<?xml version="1.0" encoding="utf-8" standalone="no"?>
<!DOCTYPE svg PUBLIC "-//W3C//DTD SVG 1.1//EN"
  "http://www.w3.org/Graphics/SVG/1.1/DTD/svg11.dtd">
<svg xmlns:xlink="http://www.w3.org/1999/xlink" width="460.8pt" height="345.6pt" viewBox="0 0 460.8 345.6" xmlns="http://www.w3.org/2000/svg" version="1.1">
 <metadata>
  <rdf:RDF xmlns:dc="http://purl.org/dc/elements/1.1/" xmlns:cc="http://creativecommons.org/ns#" xmlns:rdf="http://www.w3.org/1999/02/22-rdf-syntax-ns#">
   <cc:Work>
    <dc:type rdf:resource="http://purl.org/dc/dcmitype/StillImage"/>
    <dc:date>2024-05-29T08:02:47.400994</dc:date>
    <dc:format>image/svg+xml</dc:format>
    <dc:creator>
     <cc:Agent>
      <dc:title>Matplotlib v3.5.1, https://matplotlib.org/</dc:title>
     </cc:Agent>
    </dc:creator>
   </cc:Work>
  </rdf:RDF>
 </metadata>
 <defs>
  <style type="text/css">*{stroke-linejoin: round; stroke-linecap: butt}</style>
 </defs>
 <g id="figure_1">
  <g id="patch_1">
   <path d="M 0 345.6 
L 460.8 345.6 
L 460.8 0 
L 0 0 
z
" style="fill: #ffffff"/>
  </g>
  <g id="axes_1">
   <g id="patch_2">
    <path d="M 57.6 298.944 
L 360.8064 298.944 
L 360.8064 27.648 
L 57.6 27.648 
z
" style="fill: #ffffff"/>
   </g>
   <g id="line2d_1">
    <path d="M 44.560826 298.944 
L 44.560826 282.985412 
L 65.227428 282.985412 
L 65.227428 277.665882 
L 83.678349 277.665882 
L 83.678349 272.346353 
L 98.933205 272.346353 
L 98.933205 267.026824 
L 115.747307 267.026824 
L 115.747307 261.707294 
L 125.526971 261.707294 
L 125.526971 256.387765 
L 150.221009 256.387765 
L 150.221009 251.068235 
L 170.681267 251.068235 
L 170.681267 245.748706 
L 171.603476 245.748706 
L 171.603476 240.429176 
L 186.816825 240.429176 
L 186.816825 235.109647 
L 203.160675 235.109647 
L 203.160675 229.790118 
L 204.752328 229.790118 
L 204.752328 224.470588 
L 210.76485 224.470588 
L 210.76485 219.151059 
L 214.79756 219.151059 
L 214.79756 213.831529 
L 226.509655 213.831529 
L 226.509655 208.512 
L 230.006457 208.512 
L 230.006457 203.192471 
L 230.025149 203.192471 
L 230.025149 197.872941 
L 233.67793 197.872941 
L 233.67793 192.553412 
L 233.81348 192.553412 
L 233.81348 187.233882 
L 233.852833 187.233882 
L 233.852833 181.914353 
L 233.949657 181.914353 
L 233.949657 176.594824 
L 234.032482 176.594824 
L 234.032482 171.275294 
L 234.202559 171.275294 
L 234.202559 165.955765 
L 234.378915 165.955765 
L 234.378915 160.636235 
L 234.432668 160.636235 
L 234.432668 155.316706 
L 234.845076 155.316706 
L 234.845076 144.677647 
L 234.845837 144.677647 
L 234.845837 139.358118 
L 234.846598 139.358118 
L 234.846598 128.719059 
L 234.847359 128.719059 
L 234.847359 54.245647 
L 234.84812 54.245647 
L 234.84812 48.926118 
L 234.848881 48.926118 
L 234.848881 27.648 
L 360.8064 27.648 
" style="fill: none; stroke: #f5deb3; stroke-width: 4; stroke-linecap: square"/>
   </g>
   <g id="line2d_2">
    <defs>
     <path id="mc943730caa" d="M 0 7.778175 
L 7.778175 0 
L 0 -7.778175 
L -7.778175 0 
z
" style="stroke: #f5deb3; stroke-width: 1.5; stroke-linejoin: miter"/>
    </defs>
    <g>
     <use xlink:href="#mc943730caa" x="115.747307" y="267.026824" style="fill: #f5deb3; stroke: #f5deb3; stroke-width: 1.5; stroke-linejoin: miter"/>
     <use xlink:href="#mc943730caa" x="186.816825" y="235.109647" style="fill: #f5deb3; stroke: #f5deb3; stroke-width: 1.5; stroke-linejoin: miter"/>
     <use xlink:href="#mc943730caa" x="234.845076" y="144.677647" style="fill: #f5deb3; stroke: #f5deb3; stroke-width: 1.5; stroke-linejoin: miter"/>
     <use xlink:href="#mc943730caa" x="234.848881" y="48.926118" style="fill: #f5deb3; stroke: #f5deb3; stroke-width: 1.5; stroke-linejoin: miter"/>
     <use xlink:href="#mc943730caa" x="234.848881" y="27.648" style="fill: #f5deb3; stroke: #f5deb3; stroke-width: 1.5; stroke-linejoin: miter"/>
     <use xlink:href="#mc943730caa" x="360.8064" y="27.648" style="fill: #f5deb3; stroke: #f5deb3; stroke-width: 1.5; stroke-linejoin: miter"/>
    </g>
   </g>
   <g id="line2d_3">
    <path style="fill: none; stroke: #f5deb3; stroke-width: 4; stroke-linecap: square"/>
    <g/>
   </g>
   <g id="line2d_4">
    <path d="M 360.8064 27.648 
L 380.514816 33.07392 
" style="fill: none; stroke: #f5deb3; stroke-width: 4; stroke-linecap: square"/>
    <g>
     <use xlink:href="#mc943730caa" x="360.8064" y="27.648" style="fill: #f5deb3; stroke: #f5deb3; stroke-width: 1.5; stroke-linejoin: miter"/>
     <use xlink:href="#mc943730caa" x="380.514816" y="33.07392" style="fill: #f5deb3; stroke: #f5deb3; stroke-width: 1.5; stroke-linejoin: miter"/>
    </g>
   </g>
   <g id="matplotlib.axis_1">
    <g id="xtick_1">
     <g id="line2d_5">
      <path d="M 57.6 298.944 
L 57.6 27.648 
" clip-path="url(#p348e09b1d0)" style="fill: none; stroke: #b0b0b0; stroke-width: 0.8; stroke-linecap: square"/>
     </g>
     <g id="line2d_6">
      <defs>
       <path id="m7abc149945" d="M 0 0 
L 0 3.5 
" style="stroke: #000000; stroke-width: 0.8"/>
      </defs>
      <g>
       <use xlink:href="#m7abc149945" x="57.6" y="298.944" style="stroke: #000000; stroke-width: 0.8"/>
      </g>
     </g>
     <g id="text_1">
      <!-- 0 -->
      <g transform="translate(52.191875 318.861344)scale(0.17 -0.17)">
       <defs>
        <path id="DejaVuSans-30" d="M 2034 4250 
Q 1547 4250 1301 3770 
Q 1056 3291 1056 2328 
Q 1056 1369 1301 889 
Q 1547 409 2034 409 
Q 2525 409 2770 889 
Q 3016 1369 3016 2328 
Q 3016 3291 2770 3770 
Q 2525 4250 2034 4250 
z
M 2034 4750 
Q 2819 4750 3233 4129 
Q 3647 3509 3647 2328 
Q 3647 1150 3233 529 
Q 2819 -91 2034 -91 
Q 1250 -91 836 529 
Q 422 1150 422 2328 
Q 422 3509 836 4129 
Q 1250 4750 2034 4750 
z
" transform="scale(0.015625)"/>
       </defs>
       <use xlink:href="#DejaVuSans-30"/>
      </g>
     </g>
    </g>
    <g id="xtick_2">
     <g id="line2d_7">
      <path d="M 144.2304 298.944 
L 144.2304 27.648 
" clip-path="url(#p348e09b1d0)" style="fill: none; stroke: #b0b0b0; stroke-width: 0.8; stroke-linecap: square"/>
     </g>
     <g id="line2d_8">
      <g>
       <use xlink:href="#m7abc149945" x="144.2304" y="298.944" style="stroke: #000000; stroke-width: 0.8"/>
      </g>
     </g>
     <g id="text_2">
      <!-- 2 -->
      <g transform="translate(138.822275 318.861344)scale(0.17 -0.17)">
       <defs>
        <path id="DejaVuSans-32" d="M 1228 531 
L 3431 531 
L 3431 0 
L 469 0 
L 469 531 
Q 828 903 1448 1529 
Q 2069 2156 2228 2338 
Q 2531 2678 2651 2914 
Q 2772 3150 2772 3378 
Q 2772 3750 2511 3984 
Q 2250 4219 1831 4219 
Q 1534 4219 1204 4116 
Q 875 4013 500 3803 
L 500 4441 
Q 881 4594 1212 4672 
Q 1544 4750 1819 4750 
Q 2544 4750 2975 4387 
Q 3406 4025 3406 3419 
Q 3406 3131 3298 2873 
Q 3191 2616 2906 2266 
Q 2828 2175 2409 1742 
Q 1991 1309 1228 531 
z
" transform="scale(0.015625)"/>
       </defs>
       <use xlink:href="#DejaVuSans-32"/>
      </g>
     </g>
    </g>
    <g id="xtick_3">
     <g id="line2d_9">
      <path d="M 230.8608 298.944 
L 230.8608 27.648 
" clip-path="url(#p348e09b1d0)" style="fill: none; stroke: #b0b0b0; stroke-width: 0.8; stroke-linecap: square"/>
     </g>
     <g id="line2d_10">
      <g>
       <use xlink:href="#m7abc149945" x="230.8608" y="298.944" style="stroke: #000000; stroke-width: 0.8"/>
      </g>
     </g>
     <g id="text_3">
      <!-- 4 -->
      <g transform="translate(225.452675 318.861344)scale(0.17 -0.17)">
       <defs>
        <path id="DejaVuSans-34" d="M 2419 4116 
L 825 1625 
L 2419 1625 
L 2419 4116 
z
M 2253 4666 
L 3047 4666 
L 3047 1625 
L 3713 1625 
L 3713 1100 
L 3047 1100 
L 3047 0 
L 2419 0 
L 2419 1100 
L 313 1100 
L 313 1709 
L 2253 4666 
z
" transform="scale(0.015625)"/>
       </defs>
       <use xlink:href="#DejaVuSans-34"/>
      </g>
     </g>
    </g>
    <g id="xtick_4">
     <g id="line2d_11">
      <path d="M 317.4912 298.944 
L 317.4912 27.648 
" clip-path="url(#p348e09b1d0)" style="fill: none; stroke: #b0b0b0; stroke-width: 0.8; stroke-linecap: square"/>
     </g>
     <g id="line2d_12">
      <g>
       <use xlink:href="#m7abc149945" x="317.4912" y="298.944" style="stroke: #000000; stroke-width: 0.8"/>
      </g>
     </g>
     <g id="text_4">
      <!-- 6 -->
      <g transform="translate(312.083075 318.861344)scale(0.17 -0.17)">
       <defs>
        <path id="DejaVuSans-36" d="M 2113 2584 
Q 1688 2584 1439 2293 
Q 1191 2003 1191 1497 
Q 1191 994 1439 701 
Q 1688 409 2113 409 
Q 2538 409 2786 701 
Q 3034 994 3034 1497 
Q 3034 2003 2786 2293 
Q 2538 2584 2113 2584 
z
M 3366 4563 
L 3366 3988 
Q 3128 4100 2886 4159 
Q 2644 4219 2406 4219 
Q 1781 4219 1451 3797 
Q 1122 3375 1075 2522 
Q 1259 2794 1537 2939 
Q 1816 3084 2150 3084 
Q 2853 3084 3261 2657 
Q 3669 2231 3669 1497 
Q 3669 778 3244 343 
Q 2819 -91 2113 -91 
Q 1303 -91 875 529 
Q 447 1150 447 2328 
Q 447 3434 972 4092 
Q 1497 4750 2381 4750 
Q 2619 4750 2861 4703 
Q 3103 4656 3366 4563 
z
" transform="scale(0.015625)"/>
       </defs>
       <use xlink:href="#DejaVuSans-36"/>
      </g>
     </g>
    </g>
    <g id="xtick_5">
     <g id="line2d_13">
      <path d="M 100.9152 298.944 
L 100.9152 27.648 
" clip-path="url(#p348e09b1d0)" style="fill: none; stroke: #b0b0b0; stroke-width: 0.8; stroke-linecap: square"/>
     </g>
     <g id="line2d_14">
      <defs>
       <path id="mc3a84350ac" d="M 0 0 
L 0 2 
" style="stroke: #000000; stroke-width: 0.6"/>
      </defs>
      <g>
       <use xlink:href="#mc3a84350ac" x="100.9152" y="298.944" style="stroke: #000000; stroke-width: 0.6"/>
      </g>
     </g>
    </g>
    <g id="xtick_6">
     <g id="line2d_15">
      <path d="M 187.5456 298.944 
L 187.5456 27.648 
" clip-path="url(#p348e09b1d0)" style="fill: none; stroke: #b0b0b0; stroke-width: 0.8; stroke-linecap: square"/>
     </g>
     <g id="line2d_16">
      <g>
       <use xlink:href="#mc3a84350ac" x="187.5456" y="298.944" style="stroke: #000000; stroke-width: 0.6"/>
      </g>
     </g>
    </g>
    <g id="xtick_7">
     <g id="line2d_17">
      <path d="M 274.176 298.944 
L 274.176 27.648 
" clip-path="url(#p348e09b1d0)" style="fill: none; stroke: #b0b0b0; stroke-width: 0.8; stroke-linecap: square"/>
     </g>
     <g id="line2d_18">
      <g>
       <use xlink:href="#mc3a84350ac" x="274.176" y="298.944" style="stroke: #000000; stroke-width: 0.6"/>
      </g>
     </g>
    </g>
    <g id="xtick_8">
     <g id="line2d_19">
      <path d="M 360.8064 298.944 
L 360.8064 27.648 
" clip-path="url(#p348e09b1d0)" style="fill: none; stroke: #b0b0b0; stroke-width: 0.8; stroke-linecap: square"/>
     </g>
     <g id="line2d_20">
      <g>
       <use xlink:href="#mc3a84350ac" x="360.8064" y="298.944" style="stroke: #000000; stroke-width: 0.6"/>
      </g>
     </g>
    </g>
    <g id="text_5">
     <!-- log10(# f-evals / dimension) -->
     <g transform="translate(88.823278 339.314156)scale(0.17 -0.17)">
      <defs>
       <path id="DejaVuSans-6c" d="M 603 4863 
L 1178 4863 
L 1178 0 
L 603 0 
L 603 4863 
z
" transform="scale(0.015625)"/>
       <path id="DejaVuSans-6f" d="M 1959 3097 
Q 1497 3097 1228 2736 
Q 959 2375 959 1747 
Q 959 1119 1226 758 
Q 1494 397 1959 397 
Q 2419 397 2687 759 
Q 2956 1122 2956 1747 
Q 2956 2369 2687 2733 
Q 2419 3097 1959 3097 
z
M 1959 3584 
Q 2709 3584 3137 3096 
Q 3566 2609 3566 1747 
Q 3566 888 3137 398 
Q 2709 -91 1959 -91 
Q 1206 -91 779 398 
Q 353 888 353 1747 
Q 353 2609 779 3096 
Q 1206 3584 1959 3584 
z
" transform="scale(0.015625)"/>
       <path id="DejaVuSans-67" d="M 2906 1791 
Q 2906 2416 2648 2759 
Q 2391 3103 1925 3103 
Q 1463 3103 1205 2759 
Q 947 2416 947 1791 
Q 947 1169 1205 825 
Q 1463 481 1925 481 
Q 2391 481 2648 825 
Q 2906 1169 2906 1791 
z
M 3481 434 
Q 3481 -459 3084 -895 
Q 2688 -1331 1869 -1331 
Q 1566 -1331 1297 -1286 
Q 1028 -1241 775 -1147 
L 775 -588 
Q 1028 -725 1275 -790 
Q 1522 -856 1778 -856 
Q 2344 -856 2625 -561 
Q 2906 -266 2906 331 
L 2906 616 
Q 2728 306 2450 153 
Q 2172 0 1784 0 
Q 1141 0 747 490 
Q 353 981 353 1791 
Q 353 2603 747 3093 
Q 1141 3584 1784 3584 
Q 2172 3584 2450 3431 
Q 2728 3278 2906 2969 
L 2906 3500 
L 3481 3500 
L 3481 434 
z
" transform="scale(0.015625)"/>
       <path id="DejaVuSans-31" d="M 794 531 
L 1825 531 
L 1825 4091 
L 703 3866 
L 703 4441 
L 1819 4666 
L 2450 4666 
L 2450 531 
L 3481 531 
L 3481 0 
L 794 0 
L 794 531 
z
" transform="scale(0.015625)"/>
       <path id="DejaVuSans-28" d="M 1984 4856 
Q 1566 4138 1362 3434 
Q 1159 2731 1159 2009 
Q 1159 1288 1364 580 
Q 1569 -128 1984 -844 
L 1484 -844 
Q 1016 -109 783 600 
Q 550 1309 550 2009 
Q 550 2706 781 3412 
Q 1013 4119 1484 4856 
L 1984 4856 
z
" transform="scale(0.015625)"/>
       <path id="DejaVuSans-23" d="M 3272 2816 
L 2363 2816 
L 2100 1772 
L 3016 1772 
L 3272 2816 
z
M 2803 4594 
L 2478 3297 
L 3391 3297 
L 3719 4594 
L 4219 4594 
L 3897 3297 
L 4872 3297 
L 4872 2816 
L 3775 2816 
L 3519 1772 
L 4513 1772 
L 4513 1294 
L 3397 1294 
L 3072 0 
L 2572 0 
L 2894 1294 
L 1978 1294 
L 1656 0 
L 1153 0 
L 1478 1294 
L 494 1294 
L 494 1772 
L 1594 1772 
L 1856 2816 
L 850 2816 
L 850 3297 
L 1978 3297 
L 2297 4594 
L 2803 4594 
z
" transform="scale(0.015625)"/>
       <path id="DejaVuSans-20" transform="scale(0.015625)"/>
       <path id="DejaVuSans-66" d="M 2375 4863 
L 2375 4384 
L 1825 4384 
Q 1516 4384 1395 4259 
Q 1275 4134 1275 3809 
L 1275 3500 
L 2222 3500 
L 2222 3053 
L 1275 3053 
L 1275 0 
L 697 0 
L 697 3053 
L 147 3053 
L 147 3500 
L 697 3500 
L 697 3744 
Q 697 4328 969 4595 
Q 1241 4863 1831 4863 
L 2375 4863 
z
" transform="scale(0.015625)"/>
       <path id="DejaVuSans-2d" d="M 313 2009 
L 1997 2009 
L 1997 1497 
L 313 1497 
L 313 2009 
z
" transform="scale(0.015625)"/>
       <path id="DejaVuSans-65" d="M 3597 1894 
L 3597 1613 
L 953 1613 
Q 991 1019 1311 708 
Q 1631 397 2203 397 
Q 2534 397 2845 478 
Q 3156 559 3463 722 
L 3463 178 
Q 3153 47 2828 -22 
Q 2503 -91 2169 -91 
Q 1331 -91 842 396 
Q 353 884 353 1716 
Q 353 2575 817 3079 
Q 1281 3584 2069 3584 
Q 2775 3584 3186 3129 
Q 3597 2675 3597 1894 
z
M 3022 2063 
Q 3016 2534 2758 2815 
Q 2500 3097 2075 3097 
Q 1594 3097 1305 2825 
Q 1016 2553 972 2059 
L 3022 2063 
z
" transform="scale(0.015625)"/>
       <path id="DejaVuSans-76" d="M 191 3500 
L 800 3500 
L 1894 563 
L 2988 3500 
L 3597 3500 
L 2284 0 
L 1503 0 
L 191 3500 
z
" transform="scale(0.015625)"/>
       <path id="DejaVuSans-61" d="M 2194 1759 
Q 1497 1759 1228 1600 
Q 959 1441 959 1056 
Q 959 750 1161 570 
Q 1363 391 1709 391 
Q 2188 391 2477 730 
Q 2766 1069 2766 1631 
L 2766 1759 
L 2194 1759 
z
M 3341 1997 
L 3341 0 
L 2766 0 
L 2766 531 
Q 2569 213 2275 61 
Q 1981 -91 1556 -91 
Q 1019 -91 701 211 
Q 384 513 384 1019 
Q 384 1609 779 1909 
Q 1175 2209 1959 2209 
L 2766 2209 
L 2766 2266 
Q 2766 2663 2505 2880 
Q 2244 3097 1772 3097 
Q 1472 3097 1187 3025 
Q 903 2953 641 2809 
L 641 3341 
Q 956 3463 1253 3523 
Q 1550 3584 1831 3584 
Q 2591 3584 2966 3190 
Q 3341 2797 3341 1997 
z
" transform="scale(0.015625)"/>
       <path id="DejaVuSans-73" d="M 2834 3397 
L 2834 2853 
Q 2591 2978 2328 3040 
Q 2066 3103 1784 3103 
Q 1356 3103 1142 2972 
Q 928 2841 928 2578 
Q 928 2378 1081 2264 
Q 1234 2150 1697 2047 
L 1894 2003 
Q 2506 1872 2764 1633 
Q 3022 1394 3022 966 
Q 3022 478 2636 193 
Q 2250 -91 1575 -91 
Q 1294 -91 989 -36 
Q 684 19 347 128 
L 347 722 
Q 666 556 975 473 
Q 1284 391 1588 391 
Q 1994 391 2212 530 
Q 2431 669 2431 922 
Q 2431 1156 2273 1281 
Q 2116 1406 1581 1522 
L 1381 1569 
Q 847 1681 609 1914 
Q 372 2147 372 2553 
Q 372 3047 722 3315 
Q 1072 3584 1716 3584 
Q 2034 3584 2315 3537 
Q 2597 3491 2834 3397 
z
" transform="scale(0.015625)"/>
       <path id="DejaVuSans-2f" d="M 1625 4666 
L 2156 4666 
L 531 -594 
L 0 -594 
L 1625 4666 
z
" transform="scale(0.015625)"/>
       <path id="DejaVuSans-64" d="M 2906 2969 
L 2906 4863 
L 3481 4863 
L 3481 0 
L 2906 0 
L 2906 525 
Q 2725 213 2448 61 
Q 2172 -91 1784 -91 
Q 1150 -91 751 415 
Q 353 922 353 1747 
Q 353 2572 751 3078 
Q 1150 3584 1784 3584 
Q 2172 3584 2448 3432 
Q 2725 3281 2906 2969 
z
M 947 1747 
Q 947 1113 1208 752 
Q 1469 391 1925 391 
Q 2381 391 2643 752 
Q 2906 1113 2906 1747 
Q 2906 2381 2643 2742 
Q 2381 3103 1925 3103 
Q 1469 3103 1208 2742 
Q 947 2381 947 1747 
z
" transform="scale(0.015625)"/>
       <path id="DejaVuSans-69" d="M 603 3500 
L 1178 3500 
L 1178 0 
L 603 0 
L 603 3500 
z
M 603 4863 
L 1178 4863 
L 1178 4134 
L 603 4134 
L 603 4863 
z
" transform="scale(0.015625)"/>
       <path id="DejaVuSans-6d" d="M 3328 2828 
Q 3544 3216 3844 3400 
Q 4144 3584 4550 3584 
Q 5097 3584 5394 3201 
Q 5691 2819 5691 2113 
L 5691 0 
L 5113 0 
L 5113 2094 
Q 5113 2597 4934 2840 
Q 4756 3084 4391 3084 
Q 3944 3084 3684 2787 
Q 3425 2491 3425 1978 
L 3425 0 
L 2847 0 
L 2847 2094 
Q 2847 2600 2669 2842 
Q 2491 3084 2119 3084 
Q 1678 3084 1418 2786 
Q 1159 2488 1159 1978 
L 1159 0 
L 581 0 
L 581 3500 
L 1159 3500 
L 1159 2956 
Q 1356 3278 1631 3431 
Q 1906 3584 2284 3584 
Q 2666 3584 2933 3390 
Q 3200 3197 3328 2828 
z
" transform="scale(0.015625)"/>
       <path id="DejaVuSans-6e" d="M 3513 2113 
L 3513 0 
L 2938 0 
L 2938 2094 
Q 2938 2591 2744 2837 
Q 2550 3084 2163 3084 
Q 1697 3084 1428 2787 
Q 1159 2491 1159 1978 
L 1159 0 
L 581 0 
L 581 3500 
L 1159 3500 
L 1159 2956 
Q 1366 3272 1645 3428 
Q 1925 3584 2291 3584 
Q 2894 3584 3203 3211 
Q 3513 2838 3513 2113 
z
" transform="scale(0.015625)"/>
       <path id="DejaVuSans-29" d="M 513 4856 
L 1013 4856 
Q 1481 4119 1714 3412 
Q 1947 2706 1947 2009 
Q 1947 1309 1714 600 
Q 1481 -109 1013 -844 
L 513 -844 
Q 928 -128 1133 580 
Q 1338 1288 1338 2009 
Q 1338 2731 1133 3434 
Q 928 4138 513 4856 
z
" transform="scale(0.015625)"/>
      </defs>
      <use xlink:href="#DejaVuSans-6c"/>
      <use xlink:href="#DejaVuSans-6f" x="27.783203"/>
      <use xlink:href="#DejaVuSans-67" x="88.964844"/>
      <use xlink:href="#DejaVuSans-31" x="152.441406"/>
      <use xlink:href="#DejaVuSans-30" x="216.064453"/>
      <use xlink:href="#DejaVuSans-28" x="279.6875"/>
      <use xlink:href="#DejaVuSans-23" x="318.701172"/>
      <use xlink:href="#DejaVuSans-20" x="402.490234"/>
      <use xlink:href="#DejaVuSans-66" x="434.277344"/>
      <use xlink:href="#DejaVuSans-2d" x="463.982422"/>
      <use xlink:href="#DejaVuSans-65" x="500.066406"/>
      <use xlink:href="#DejaVuSans-76" x="561.589844"/>
      <use xlink:href="#DejaVuSans-61" x="620.769531"/>
      <use xlink:href="#DejaVuSans-6c" x="682.048828"/>
      <use xlink:href="#DejaVuSans-73" x="709.832031"/>
      <use xlink:href="#DejaVuSans-20" x="761.931641"/>
      <use xlink:href="#DejaVuSans-2f" x="793.71875"/>
      <use xlink:href="#DejaVuSans-20" x="827.410156"/>
      <use xlink:href="#DejaVuSans-64" x="859.197266"/>
      <use xlink:href="#DejaVuSans-69" x="922.673828"/>
      <use xlink:href="#DejaVuSans-6d" x="950.457031"/>
      <use xlink:href="#DejaVuSans-65" x="1047.869141"/>
      <use xlink:href="#DejaVuSans-6e" x="1109.392578"/>
      <use xlink:href="#DejaVuSans-73" x="1172.771484"/>
      <use xlink:href="#DejaVuSans-69" x="1224.871094"/>
      <use xlink:href="#DejaVuSans-6f" x="1252.654297"/>
      <use xlink:href="#DejaVuSans-6e" x="1313.835938"/>
      <use xlink:href="#DejaVuSans-29" x="1377.214844"/>
     </g>
    </g>
   </g>
   <g id="matplotlib.axis_2">
    <g id="ytick_1">
     <g id="line2d_21">
      <path d="M 57.6 298.944 
L 360.8064 298.944 
" clip-path="url(#p348e09b1d0)" style="fill: none; stroke: #b0b0b0; stroke-width: 0.8; stroke-linecap: square"/>
     </g>
     <g id="line2d_22">
      <defs>
       <path id="m3d2ec85d41" d="M 0 0 
L -3.5 0 
" style="stroke: #000000; stroke-width: 0.8"/>
      </defs>
      <g>
       <use xlink:href="#m3d2ec85d41" x="57.6" y="298.944" style="stroke: #000000; stroke-width: 0.8"/>
      </g>
     </g>
     <g id="text_6">
      <!-- 0.0 -->
      <g transform="translate(25.155 305.02275)scale(0.16 -0.16)">
       <defs>
        <path id="DejaVuSans-2e" d="M 684 794 
L 1344 794 
L 1344 0 
L 684 0 
L 684 794 
z
" transform="scale(0.015625)"/>
       </defs>
       <use xlink:href="#DejaVuSans-30"/>
       <use xlink:href="#DejaVuSans-2e" x="63.623047"/>
       <use xlink:href="#DejaVuSans-30" x="95.410156"/>
      </g>
     </g>
    </g>
    <g id="ytick_2">
     <g id="line2d_23">
      <path d="M 57.6 244.6848 
L 360.8064 244.6848 
" clip-path="url(#p348e09b1d0)" style="fill: none; stroke: #b0b0b0; stroke-width: 0.8; stroke-linecap: square"/>
     </g>
     <g id="line2d_24">
      <g>
       <use xlink:href="#m3d2ec85d41" x="57.6" y="244.6848" style="stroke: #000000; stroke-width: 0.8"/>
      </g>
     </g>
     <g id="text_7">
      <!-- 0.2 -->
      <g transform="translate(25.155 250.76355)scale(0.16 -0.16)">
       <use xlink:href="#DejaVuSans-30"/>
       <use xlink:href="#DejaVuSans-2e" x="63.623047"/>
       <use xlink:href="#DejaVuSans-32" x="95.410156"/>
      </g>
     </g>
    </g>
    <g id="ytick_3">
     <g id="line2d_25">
      <path d="M 57.6 190.4256 
L 360.8064 190.4256 
" clip-path="url(#p348e09b1d0)" style="fill: none; stroke: #b0b0b0; stroke-width: 0.8; stroke-linecap: square"/>
     </g>
     <g id="line2d_26">
      <g>
       <use xlink:href="#m3d2ec85d41" x="57.6" y="190.4256" style="stroke: #000000; stroke-width: 0.8"/>
      </g>
     </g>
     <g id="text_8">
      <!-- 0.4 -->
      <g transform="translate(25.155 196.50435)scale(0.16 -0.16)">
       <use xlink:href="#DejaVuSans-30"/>
       <use xlink:href="#DejaVuSans-2e" x="63.623047"/>
       <use xlink:href="#DejaVuSans-34" x="95.410156"/>
      </g>
     </g>
    </g>
    <g id="ytick_4">
     <g id="line2d_27">
      <path d="M 57.6 136.1664 
L 360.8064 136.1664 
" clip-path="url(#p348e09b1d0)" style="fill: none; stroke: #b0b0b0; stroke-width: 0.8; stroke-linecap: square"/>
     </g>
     <g id="line2d_28">
      <g>
       <use xlink:href="#m3d2ec85d41" x="57.6" y="136.1664" style="stroke: #000000; stroke-width: 0.8"/>
      </g>
     </g>
     <g id="text_9">
      <!-- 0.6 -->
      <g transform="translate(25.155 142.24515)scale(0.16 -0.16)">
       <use xlink:href="#DejaVuSans-30"/>
       <use xlink:href="#DejaVuSans-2e" x="63.623047"/>
       <use xlink:href="#DejaVuSans-36" x="95.410156"/>
      </g>
     </g>
    </g>
    <g id="ytick_5">
     <g id="line2d_29">
      <path d="M 57.6 81.9072 
L 360.8064 81.9072 
" clip-path="url(#p348e09b1d0)" style="fill: none; stroke: #b0b0b0; stroke-width: 0.8; stroke-linecap: square"/>
     </g>
     <g id="line2d_30">
      <g>
       <use xlink:href="#m3d2ec85d41" x="57.6" y="81.9072" style="stroke: #000000; stroke-width: 0.8"/>
      </g>
     </g>
     <g id="text_10">
      <!-- 0.8 -->
      <g transform="translate(25.155 87.98595)scale(0.16 -0.16)">
       <defs>
        <path id="DejaVuSans-38" d="M 2034 2216 
Q 1584 2216 1326 1975 
Q 1069 1734 1069 1313 
Q 1069 891 1326 650 
Q 1584 409 2034 409 
Q 2484 409 2743 651 
Q 3003 894 3003 1313 
Q 3003 1734 2745 1975 
Q 2488 2216 2034 2216 
z
M 1403 2484 
Q 997 2584 770 2862 
Q 544 3141 544 3541 
Q 544 4100 942 4425 
Q 1341 4750 2034 4750 
Q 2731 4750 3128 4425 
Q 3525 4100 3525 3541 
Q 3525 3141 3298 2862 
Q 3072 2584 2669 2484 
Q 3125 2378 3379 2068 
Q 3634 1759 3634 1313 
Q 3634 634 3220 271 
Q 2806 -91 2034 -91 
Q 1263 -91 848 271 
Q 434 634 434 1313 
Q 434 1759 690 2068 
Q 947 2378 1403 2484 
z
M 1172 3481 
Q 1172 3119 1398 2916 
Q 1625 2713 2034 2713 
Q 2441 2713 2670 2916 
Q 2900 3119 2900 3481 
Q 2900 3844 2670 4047 
Q 2441 4250 2034 4250 
Q 1625 4250 1398 4047 
Q 1172 3844 1172 3481 
z
" transform="scale(0.015625)"/>
       </defs>
       <use xlink:href="#DejaVuSans-30"/>
       <use xlink:href="#DejaVuSans-2e" x="63.623047"/>
       <use xlink:href="#DejaVuSans-38" x="95.410156"/>
      </g>
     </g>
    </g>
    <g id="ytick_6">
     <g id="line2d_31">
      <path d="M 57.6 27.648 
L 360.8064 27.648 
" clip-path="url(#p348e09b1d0)" style="fill: none; stroke: #b0b0b0; stroke-width: 0.8; stroke-linecap: square"/>
     </g>
     <g id="line2d_32">
      <g>
       <use xlink:href="#m3d2ec85d41" x="57.6" y="27.648" style="stroke: #000000; stroke-width: 0.8"/>
      </g>
     </g>
     <g id="text_11">
      <!-- 1.0 -->
      <g transform="translate(25.155 33.72675)scale(0.16 -0.16)">
       <use xlink:href="#DejaVuSans-31"/>
       <use xlink:href="#DejaVuSans-2e" x="63.623047"/>
       <use xlink:href="#DejaVuSans-30" x="95.410156"/>
      </g>
     </g>
    </g>
    <g id="text_12">
     <!-- Fraction of function,target pairs -->
     <g transform="translate(17.619531 297.681)rotate(-90)scale(0.17 -0.17)">
      <defs>
       <path id="DejaVuSans-46" d="M 628 4666 
L 3309 4666 
L 3309 4134 
L 1259 4134 
L 1259 2759 
L 3109 2759 
L 3109 2228 
L 1259 2228 
L 1259 0 
L 628 0 
L 628 4666 
z
" transform="scale(0.015625)"/>
       <path id="DejaVuSans-72" d="M 2631 2963 
Q 2534 3019 2420 3045 
Q 2306 3072 2169 3072 
Q 1681 3072 1420 2755 
Q 1159 2438 1159 1844 
L 1159 0 
L 581 0 
L 581 3500 
L 1159 3500 
L 1159 2956 
Q 1341 3275 1631 3429 
Q 1922 3584 2338 3584 
Q 2397 3584 2469 3576 
Q 2541 3569 2628 3553 
L 2631 2963 
z
" transform="scale(0.015625)"/>
       <path id="DejaVuSans-63" d="M 3122 3366 
L 3122 2828 
Q 2878 2963 2633 3030 
Q 2388 3097 2138 3097 
Q 1578 3097 1268 2742 
Q 959 2388 959 1747 
Q 959 1106 1268 751 
Q 1578 397 2138 397 
Q 2388 397 2633 464 
Q 2878 531 3122 666 
L 3122 134 
Q 2881 22 2623 -34 
Q 2366 -91 2075 -91 
Q 1284 -91 818 406 
Q 353 903 353 1747 
Q 353 2603 823 3093 
Q 1294 3584 2113 3584 
Q 2378 3584 2631 3529 
Q 2884 3475 3122 3366 
z
" transform="scale(0.015625)"/>
       <path id="DejaVuSans-74" d="M 1172 4494 
L 1172 3500 
L 2356 3500 
L 2356 3053 
L 1172 3053 
L 1172 1153 
Q 1172 725 1289 603 
Q 1406 481 1766 481 
L 2356 481 
L 2356 0 
L 1766 0 
Q 1100 0 847 248 
Q 594 497 594 1153 
L 594 3053 
L 172 3053 
L 172 3500 
L 594 3500 
L 594 4494 
L 1172 4494 
z
" transform="scale(0.015625)"/>
       <path id="DejaVuSans-75" d="M 544 1381 
L 544 3500 
L 1119 3500 
L 1119 1403 
Q 1119 906 1312 657 
Q 1506 409 1894 409 
Q 2359 409 2629 706 
Q 2900 1003 2900 1516 
L 2900 3500 
L 3475 3500 
L 3475 0 
L 2900 0 
L 2900 538 
Q 2691 219 2414 64 
Q 2138 -91 1772 -91 
Q 1169 -91 856 284 
Q 544 659 544 1381 
z
M 1991 3584 
L 1991 3584 
z
" transform="scale(0.015625)"/>
       <path id="DejaVuSans-2c" d="M 750 794 
L 1409 794 
L 1409 256 
L 897 -744 
L 494 -744 
L 750 256 
L 750 794 
z
" transform="scale(0.015625)"/>
       <path id="DejaVuSans-70" d="M 1159 525 
L 1159 -1331 
L 581 -1331 
L 581 3500 
L 1159 3500 
L 1159 2969 
Q 1341 3281 1617 3432 
Q 1894 3584 2278 3584 
Q 2916 3584 3314 3078 
Q 3713 2572 3713 1747 
Q 3713 922 3314 415 
Q 2916 -91 2278 -91 
Q 1894 -91 1617 61 
Q 1341 213 1159 525 
z
M 3116 1747 
Q 3116 2381 2855 2742 
Q 2594 3103 2138 3103 
Q 1681 3103 1420 2742 
Q 1159 2381 1159 1747 
Q 1159 1113 1420 752 
Q 1681 391 2138 391 
Q 2594 391 2855 752 
Q 3116 1113 3116 1747 
z
" transform="scale(0.015625)"/>
      </defs>
      <use xlink:href="#DejaVuSans-46"/>
      <use xlink:href="#DejaVuSans-72" x="50.269531"/>
      <use xlink:href="#DejaVuSans-61" x="91.382812"/>
      <use xlink:href="#DejaVuSans-63" x="152.662109"/>
      <use xlink:href="#DejaVuSans-74" x="207.642578"/>
      <use xlink:href="#DejaVuSans-69" x="246.851562"/>
      <use xlink:href="#DejaVuSans-6f" x="274.634766"/>
      <use xlink:href="#DejaVuSans-6e" x="335.816406"/>
      <use xlink:href="#DejaVuSans-20" x="399.195312"/>
      <use xlink:href="#DejaVuSans-6f" x="430.982422"/>
      <use xlink:href="#DejaVuSans-66" x="492.164062"/>
      <use xlink:href="#DejaVuSans-20" x="527.369141"/>
      <use xlink:href="#DejaVuSans-66" x="559.15625"/>
      <use xlink:href="#DejaVuSans-75" x="594.361328"/>
      <use xlink:href="#DejaVuSans-6e" x="657.740234"/>
      <use xlink:href="#DejaVuSans-63" x="721.119141"/>
      <use xlink:href="#DejaVuSans-74" x="776.099609"/>
      <use xlink:href="#DejaVuSans-69" x="815.308594"/>
      <use xlink:href="#DejaVuSans-6f" x="843.091797"/>
      <use xlink:href="#DejaVuSans-6e" x="904.273438"/>
      <use xlink:href="#DejaVuSans-2c" x="967.652344"/>
      <use xlink:href="#DejaVuSans-74" x="999.439453"/>
      <use xlink:href="#DejaVuSans-61" x="1038.648438"/>
      <use xlink:href="#DejaVuSans-72" x="1099.927734"/>
      <use xlink:href="#DejaVuSans-67" x="1139.291016"/>
      <use xlink:href="#DejaVuSans-65" x="1202.767578"/>
      <use xlink:href="#DejaVuSans-74" x="1264.291016"/>
      <use xlink:href="#DejaVuSans-20" x="1303.5"/>
      <use xlink:href="#DejaVuSans-70" x="1335.287109"/>
      <use xlink:href="#DejaVuSans-61" x="1398.763672"/>
      <use xlink:href="#DejaVuSans-69" x="1460.042969"/>
      <use xlink:href="#DejaVuSans-72" x="1487.826172"/>
      <use xlink:href="#DejaVuSans-73" x="1528.939453"/>
     </g>
    </g>
   </g>
   <g id="line2d_33">
    <defs>
     <path id="m084a9a6bf9" d="M 0 1.5 
C 0.397805 1.5 0.77937 1.341951 1.06066 1.06066 
C 1.341951 0.77937 1.5 0.397805 1.5 0 
C 1.5 -0.397805 1.341951 -0.77937 1.06066 -1.06066 
C 0.77937 -1.341951 0.397805 -1.5 0 -1.5 
C -0.397805 -1.5 -0.77937 -1.341951 -1.06066 -1.06066 
C -1.341951 -0.77937 -1.5 -0.397805 -1.5 0 
C -1.5 0.397805 -1.341951 0.77937 -1.06066 1.06066 
C -0.77937 1.341951 -0.397805 1.5 0 1.5 
z
" style="stroke: #f5deb3"/>
    </defs>
    <g>
     <use xlink:href="#m084a9a6bf9" x="234.848881" y="27.648" style="fill: #f5deb3; stroke: #f5deb3"/>
     <use xlink:href="#m084a9a6bf9" x="234.848881" y="27.648" style="fill: #f5deb3; stroke: #f5deb3"/>
    </g>
   </g>
   <g id="line2d_34">
    <defs>
     <path id="m6c03cbe6cb" d="M 0 1.5 
C 0.397805 1.5 0.77937 1.341951 1.06066 1.06066 
C 1.341951 0.77937 1.5 0.397805 1.5 0 
C 1.5 -0.397805 1.341951 -0.77937 1.06066 -1.06066 
C 0.77937 -1.341951 0.397805 -1.5 0 -1.5 
C -0.397805 -1.5 -0.77937 -1.341951 -1.06066 -1.06066 
C -1.341951 -0.77937 -1.5 -0.397805 -1.5 0 
C -1.5 0.397805 -1.341951 0.77937 -1.06066 1.06066 
C -0.77937 1.341951 -0.397805 1.5 0 1.5 
z
" style="stroke: #000080"/>
    </defs>
    <g>
     <use xlink:href="#m6c03cbe6cb" x="360.463597" y="27.648" style="fill: #000080; stroke: #000080"/>
     <use xlink:href="#m6c03cbe6cb" x="360.463597" y="27.648" style="fill: #000080; stroke: #000080"/>
    </g>
   </g>
   <g id="line2d_35">
    <path d="M 44.560826 298.944 
L 44.560826 285.113224 
L 57.6 285.113224 
L 57.6 281.921506 
L 65.227428 281.921506 
L 65.227428 279.084424 
L 70.639174 279.084424 
L 70.639174 277.311247 
L 74.836851 277.311247 
L 74.836851 276.956612 
L 78.266603 276.956612 
L 78.266603 275.892706 
L 81.166416 275.892706 
L 81.166416 275.538071 
L 83.678349 275.538071 
L 83.678349 274.8288 
L 85.894031 274.8288 
L 85.894031 273.764894 
L 87.876026 273.764894 
L 87.876026 273.055624 
L 89.668958 273.055624 
L 89.668958 272.700988 
L 100.9152 272.700988 
L 100.9152 272.346353 
L 101.833019 272.346353 
L 101.833019 270.927812 
L 104.344952 270.927812 
L 104.344952 269.863906 
L 105.112877 269.863906 
L 105.112877 268.8 
L 106.560633 268.8 
L 106.560633 268.090729 
L 107.904887 268.090729 
L 107.904887 267.736094 
L 110.335561 267.736094 
L 110.335561 267.381459 
L 113.478107 267.381459 
L 113.478107 267.026824 
L 113.954374 267.026824 
L 113.954374 266.317553 
L 118.524569 266.317553 
L 118.524569 265.962918 
L 119.24818 265.962918 
L 119.24818 264.899012 
L 120.28394 264.899012 
L 120.28394 264.544376 
L 125.526971 264.544376 
L 125.526971 263.835106 
L 126.756923 263.835106 
L 126.756923 263.480471 
L 127.458055 263.480471 
L 127.458055 262.416565 
L 128.133992 262.416565 
L 128.133992 262.061929 
L 128.999044 262.061929 
L 128.999044 261.352659 
L 131.378407 261.352659 
L 131.378407 260.998024 
L 134.463557 260.998024 
L 134.463557 260.643388 
L 135.981441 260.643388 
L 135.981441 259.934118 
L 136.836659 259.934118 
L 136.836659 259.579482 
L 140.26641 259.579482 
L 140.26641 259.224847 
L 145.590864 259.224847 
L 145.590864 258.870212 
L 147.893838 258.870212 
L 147.893838 258.515576 
L 149.595059 258.515576 
L 149.595059 258.160941 
L 154.595705 258.160941 
L 154.595705 256.387765 
L 155.13016 256.387765 
L 155.13016 256.033129 
L 159.816746 256.033129 
L 159.816746 255.678494 
L 160.223059 255.678494 
L 160.223059 255.323859 
L 165.604634 255.323859 
L 165.604634 254.969224 
L 165.993131 254.969224 
L 165.993131 254.614588 
L 167.361848 254.614588 
L 167.361848 254.259953 
L 168.765753 254.259953 
L 168.765753 253.905318 
L 170.37916 253.905318 
L 170.37916 253.550682 
L 170.978599 253.550682 
L 170.978599 253.196047 
L 171.338209 253.196047 
L 171.404878 252.132141 
L 171.756506 252.132141 
L 171.756506 251.777506 
L 172.208263 251.777506 
L 172.293095 251.068235 
L 174.600249 251.068235 
L 174.600249 250.7136 
L 177.086427 250.7136 
L 177.086427 250.358965 
L 180.674054 250.358965 
L 180.674054 250.004329 
L 182.133854 250.004329 
L 182.133854 249.295059 
L 183.158861 249.295059 
L 183.158861 248.940424 
L 185.73008 248.940424 
L 185.73008 248.585788 
L 186.139934 248.585788 
L 186.139934 247.876518 
L 186.251096 247.876518 
L 186.251096 247.521882 
L 188.265306 247.521882 
L 188.265306 246.812612 
L 190.667153 246.812612 
L 190.667153 246.457976 
L 192.14528 246.457976 
L 192.14528 246.103341 
L 205.19918 246.103341 
L 205.19918 245.394071 
L 209.076197 245.394071 
L 209.076197 245.039435 
L 215.331179 245.039435 
L 215.331179 244.6848 
L 215.559563 244.6848 
L 215.559563 244.330165 
L 217.161167 244.330165 
L 217.174801 243.620894 
L 217.672424 243.620894 
L 217.672424 243.266259 
L 226.939726 243.266259 
L 226.939726 242.911624 
L 228.764544 242.911624 
L 228.764544 242.556988 
L 229.274874 242.556988 
L 229.289195 241.493082 
L 230.614646 241.493082 
L 230.614646 240.783812 
L 231.458807 240.783812 
L 231.458807 240.429176 
L 233.03128 240.429176 
L 233.063937 238.656 
L 234.462205 238.656 
L 234.462205 238.301365 
L 235.267251 238.301365 
L 235.267251 237.946729 
L 237.098097 237.946729 
L 237.098097 237.592094 
L 238.217281 237.592094 
L 238.217281 237.237459 
L 238.778805 237.237459 
L 238.794852 236.528188 
L 239.509078 236.528188 
L 239.509078 236.173553 
L 242.426786 236.173553 
L 242.427803 235.109647 
L 242.682393 235.109647 
L 242.688914 233.691106 
L 242.957332 233.691106 
L 242.957332 233.336471 
L 243.22636 233.336471 
L 243.25899 231.563294 
L 243.346857 231.563294 
L 243.438654 229.790118 
L 243.539116 229.790118 
L 243.55445 229.080847 
L 243.653821 229.080847 
L 243.653821 228.726212 
L 245.54224 228.726212 
L 245.593026 228.016941 
L 245.865267 228.016941 
L 245.967087 224.825224 
L 246.757145 224.825224 
L 246.769262 223.761318 
L 268.198766 223.761318 
L 268.198766 223.406682 
L 268.40838 223.406682 
L 268.40838 223.052047 
L 268.529659 223.052047 
L 268.529659 222.697412 
L 274.20861 222.697412 
L 274.31656 219.860329 
L 274.414703 219.860329 
L 274.414703 219.151059 
L 274.757781 219.151059 
L 274.757781 218.796424 
L 275.062889 218.796424 
L 275.086741 217.732518 
L 275.787728 217.732518 
L 275.831363 216.313976 
L 275.946687 216.313976 
L 275.946687 215.959341 
L 276.176929 215.959341 
L 276.180142 214.895435 
L 276.629538 214.895435 
L 276.629538 214.5408 
L 276.770019 214.5408 
L 276.845418 212.767624 
L 277.368093 212.767624 
L 277.409245 210.285176 
L 277.495144 210.285176 
L 277.548603 206.738824 
L 277.889613 206.738824 
L 277.966432 202.4832 
L 284.462968 202.4832 
L 284.462968 202.128565 
L 284.603059 202.128565 
L 284.603059 201.773929 
L 287.231486 201.773929 
L 287.302773 200.000753 
L 287.664166 200.000753 
L 287.664166 199.646118 
L 288.060429 199.646118 
L 288.121344 198.936847 
L 288.243655 198.936847 
L 288.321061 197.872941 
L 288.367963 197.872941 
L 288.367963 197.518306 
L 288.481916 197.518306 
L 288.481916 197.163671 
L 288.878847 197.163671 
L 288.976957 189.361694 
L 289.163471 189.361694 
L 289.205698 185.815341 
L 289.286542 185.815341 
L 289.286542 185.460706 
L 293.109393 185.460706 
L 293.142093 184.042165 
L 294.869672 184.042165 
L 294.900703 183.332894 
L 295.038536 183.332894 
L 295.038536 182.623624 
L 295.410304 182.623624 
L 295.410304 182.268988 
L 295.534466 182.268988 
L 295.587036 180.850447 
L 295.747607 180.850447 
L 295.774361 180.141176 
L 295.983223 180.141176 
L 296.041382 178.013365 
L 296.167071 178.013365 
L 296.249411 173.403106 
L 298.993594 173.403106 
L 298.993594 173.048471 
L 300.277966 173.048471 
L 300.298199 171.275294 
L 300.480184 171.275294 
L 300.480184 170.920659 
L 300.775617 170.920659 
L 300.839572 169.856753 
L 300.937151 169.856753 
L 300.957458 168.438212 
L 301.104571 168.438212 
L 301.146194 164.891859 
L 301.25634 164.891859 
L 301.318528 162.764047 
L 304.486907 162.764047 
L 304.486907 162.409412 
L 304.819748 162.409412 
L 304.8703 161.345506 
L 305.000236 161.345506 
L 305.017074 160.636235 
L 305.13525 160.636235 
L 305.176655 156.380612 
L 305.257843 156.380612 
L 305.308131 153.898165 
L 307.035126 153.898165 
L 307.035126 152.834259 
L 308.230889 152.834259 
L 308.257676 152.124988 
L 308.353822 152.124988 
L 308.460731 150.351812 
L 308.477247 150.351812 
L 308.568955 145.741553 
L 308.597876 145.741553 
L 308.597876 145.032282 
L 310.071537 145.032282 
L 310.071537 144.677647 
L 310.786253 144.677647 
L 310.786253 144.323012 
L 311.081225 144.323012 
L 311.186921 142.904471 
L 311.202432 142.904471 
L 311.304734 137.939576 
L 311.359137 137.939576 
L 311.397434 135.811765 
L 313.315332 135.811765 
L 313.315332 135.102494 
L 313.57615 135.102494 
L 313.648663 133.683953 
L 313.723438 133.683953 
L 313.811246 127.655153 
L 314.931457 127.655153 
L 314.931457 127.300518 
L 315.528707 127.300518 
L 315.528707 126.945882 
L 315.742665 126.945882 
L 315.824947 125.527341 
L 315.891833 125.527341 
L 315.989926 119.143906 
L 317.701509 119.143906 
L 317.775846 118.08 
L 317.840706 118.08 
L 317.906512 110.987294 
L 319.611269 110.987294 
L 319.662065 106.0224 
L 321.151317 106.0224 
L 321.260913 101.766776 
L 321.265824 101.766776 
L 321.282408 100.348235 
L 322.588663 100.348235 
L 322.696104 97.865788 
L 322.704333 97.865788 
L 322.760577 93.9648 
L 323.971219 93.9648 
L 324.079922 90.773082 
L 324.082565 90.773082 
L 324.118349 88.645271 
L 325.30887 88.645271 
L 325.396519 83.680376 
L 326.464416 83.680376 
L 326.559654 82.261835 
L 326.591943 82.261835 
L 326.59334 81.197929 
L 327.676678 81.197929 
L 327.718551 76.942306 
L 328.749318 76.942306 
L 328.780239 73.750588 
L 329.750164 73.750588 
L 329.794563 71.977412 
L 330.711231 71.977412 
L 330.739176 68.785694 
L 331.584276 68.785694 
L 331.647105 65.593976 
L 332.453226 65.593976 
L 332.513222 62.402259 
L 333.258301 62.402259 
L 333.341212 60.629082 
L 334.079252 60.629082 
L 334.134288 58.855906 
L 334.868585 58.855906 
L 334.902529 56.373459 
L 335.575843 56.373459 
L 335.626676 53.891012 
L 336.304217 53.891012 
L 336.330698 52.472471 
L 336.983778 52.472471 
L 337.00932 50.699294 
L 337.644819 50.699294 
L 337.644819 49.990024 
L 338.275028 49.990024 
L 338.296511 47.507576 
L 338.866844 47.507576 
L 338.909606 45.7344 
L 339.461212 45.7344 
L 339.502645 43.606588 
L 340.055862 43.606588 
L 340.077558 42.897318 
L 340.596483 42.897318 
L 340.61946 41.124141 
L 341.174553 41.124141 
L 341.177215 40.414871 
L 341.689045 40.414871 
L 341.689045 40.060235 
L 342.679968 40.060235 
L 342.679968 39.7056 
L 343.166617 39.7056 
L 343.200649 38.641694 
L 343.661594 38.641694 
L 343.67424 37.223153 
L 344.12295 37.223153 
L 344.12295 36.513882 
L 344.555474 36.513882 
L 344.587086 34.740706 
L 345.016173 34.740706 
L 345.016173 34.386071 
L 345.44556 34.386071 
L 345.44556 34.031435 
L 345.866467 34.031435 
L 345.866467 33.6768 
L 346.27794 33.6768 
L 346.293653 32.967529 
L 347.462354 32.967529 
L 347.462354 32.612894 
L 347.839777 32.612894 
L 347.839777 32.258259 
L 348.210908 32.258259 
L 348.210908 31.903624 
L 348.574827 31.903624 
L 348.574827 31.548988 
L 349.280197 31.548988 
L 349.292169 30.839718 
L 349.626156 30.839718 
L 349.626156 30.485082 
L 351.872363 30.485082 
L 351.872363 30.130447 
L 352.467778 30.130447 
L 352.476194 29.421176 
L 353.602581 29.421176 
L 353.604889 28.711906 
L 359.283452 28.711906 
L 359.283452 28.357271 
L 359.486332 28.357271 
L 359.486332 28.002635 
L 360.463597 28.002635 
L 360.463597 27.648 
L 360.8064 27.648 
L 360.8064 27.648 
" style="fill: none; stroke: #000080; stroke-width: 1.5; stroke-linecap: square"/>
   </g>
   <g id="line2d_36">
    <defs>
     <path id="me3692910b4" d="M 0 6 
C 1.591219 6 3.117479 5.367802 4.242641 4.242641 
C 5.367802 3.117479 6 1.591219 6 0 
C 6 -1.591219 5.367802 -3.117479 4.242641 -4.242641 
C 3.117479 -5.367802 1.591219 -6 0 -6 
C -1.591219 -6 -3.117479 -5.367802 -4.242641 -4.242641 
C -5.367802 -3.117479 -6 -1.591219 -6 0 
C -6 1.591219 -5.367802 3.117479 -4.242641 4.242641 
C -3.117479 5.367802 -1.591219 6 0 6 
z
" style="stroke: #000080; stroke-width: 1.5"/>
    </defs>
    <g>
     <use xlink:href="#me3692910b4" x="100.9152" y="272.346353" style="fill-opacity: 0; stroke: #000080; stroke-width: 1.5"/>
     <use xlink:href="#me3692910b4" x="192.14528" y="246.103341" style="fill-opacity: 0; stroke: #000080; stroke-width: 1.5"/>
     <use xlink:href="#me3692910b4" x="288.121344" y="199.291482" style="fill-opacity: 0; stroke: #000080; stroke-width: 1.5"/>
     <use xlink:href="#me3692910b4" x="327.718551" y="76.942306" style="fill-opacity: 0; stroke: #000080; stroke-width: 1.5"/>
     <use xlink:href="#me3692910b4" x="360.463597" y="27.648" style="fill-opacity: 0; stroke: #000080; stroke-width: 1.5"/>
     <use xlink:href="#me3692910b4" x="360.8064" y="27.648" style="fill-opacity: 0; stroke: #000080; stroke-width: 1.5"/>
    </g>
   </g>
   <g id="line2d_37">
    <path style="fill: none; stroke: #000080; stroke-width: 1.5; stroke-linecap: square"/>
    <g/>
   </g>
   <g id="line2d_38">
    <path d="M 274.176 222.697412 
" clip-path="url(#p348e09b1d0)" style="fill: none; stroke: #000080; stroke-width: 1.5; stroke-linecap: square"/>
    <defs>
     <path id="mb632cd98b2" d="M -12 12 
L 12 -12 
M -12 -12 
L 12 12 
" style="stroke: #000080"/>
    </defs>
    <g clip-path="url(#p348e09b1d0)">
     <use xlink:href="#mb632cd98b2" x="274.176" y="222.697412" style="fill: #000080; stroke: #000080"/>
    </g>
   </g>
   <g id="line2d_39">
    <defs>
     <path id="m89950245dc" d="M 0 1.5 
C 0.397805 1.5 0.77937 1.341951 1.06066 1.06066 
C 1.341951 0.77937 1.5 0.397805 1.5 0 
C 1.5 -0.397805 1.341951 -0.77937 1.06066 -1.06066 
C 0.77937 -1.341951 0.397805 -1.5 0 -1.5 
C -0.397805 -1.5 -0.77937 -1.341951 -1.06066 -1.06066 
C -1.341951 -0.77937 -1.5 -0.397805 -1.5 0 
C -1.5 0.397805 -1.341951 0.77937 -1.06066 1.06066 
C -0.77937 1.341951 -0.397805 1.5 0 1.5 
z
" style="stroke: #ff00ff"/>
    </defs>
    <g>
     <use xlink:href="#m89950245dc" x="332.381677" y="27.648" style="fill: #ff00ff; stroke: #ff00ff"/>
     <use xlink:href="#m89950245dc" x="332.381677" y="27.648" style="fill: #ff00ff; stroke: #ff00ff"/>
    </g>
   </g>
   <g id="line2d_40">
    <path d="M 44.560826 298.944 
L 44.560826 284.049318 
L 57.6 284.049318 
L 57.6 281.921506 
L 65.227428 281.921506 
L 65.227428 280.8576 
L 70.639174 280.8576 
L 70.639174 280.148329 
L 74.836851 280.148329 
L 74.836851 278.729788 
L 78.266603 278.729788 
L 78.266603 278.375153 
L 85.894031 278.375153 
L 85.894031 277.665882 
L 87.876026 277.665882 
L 87.876026 276.956612 
L 89.668958 276.956612 
L 89.668958 276.601976 
L 91.305777 276.601976 
L 91.305777 275.538071 
L 92.811505 275.538071 
L 92.811505 274.474165 
L 94.205591 274.474165 
L 94.205591 273.764894 
L 102.708132 273.764894 
L 102.708132 272.700988 
L 104.344952 272.700988 
L 104.344952 271.637082 
L 105.112877 271.637082 
L 105.112877 271.282447 
L 107.904887 271.282447 
L 107.904887 270.927812 
L 109.159456 270.927812 
L 109.159456 270.573176 
L 112.989468 270.573176 
L 112.989468 270.218541 
L 113.954374 270.218541 
L 113.954374 269.154635 
L 115.314838 269.154635 
L 115.314838 268.445365 
L 116.170056 268.445365 
L 116.170056 267.736094 
L 116.988079 267.736094 
L 116.988079 267.381459 
L 117.772007 267.381459 
L 117.772007 266.672188 
L 118.524569 266.672188 
L 118.524569 266.317553 
L 119.24818 266.317553 
L 119.24818 265.962918 
L 120.944062 265.962918 
L 120.944062 264.544376 
L 122.19863 264.544376 
L 122.19863 264.189741 
L 123.08753 264.189741 
L 123.08753 263.835106 
L 124.748451 263.835106 
L 124.748451 263.125835 
L 126.028642 263.125835 
L 126.028642 262.7712 
L 126.756923 262.7712 
L 126.756923 262.061929 
L 127.227236 262.061929 
L 127.227236 261.707294 
L 128.786481 261.707294 
L 128.786481 261.352659 
L 130.4233 261.352659 
L 130.4233 260.998024 
L 133.490329 260.998024 
L 133.490329 260.643388 
L 138.818654 260.643388 
L 138.818654 259.934118 
L 139.067817 259.934118 
L 139.067817 259.579482 
L 139.313723 259.579482 
L 139.313723 259.224847 
L 139.914782 259.224847 
L 139.914782 258.870212 
L 141.283499 258.870212 
L 141.283499 258.515576 
L 143.560197 258.515576 
L 143.560197 257.806306 
L 145.503164 257.806306 
L 145.503164 257.451671 
L 146.695245 257.451671 
L 146.695245 257.097035 
L 148.276979 257.097035 
L 148.276979 256.7424 
L 149.945377 256.7424 
L 149.945377 256.387765 
L 150.559965 256.387765 
L 150.62703 255.323859 
L 151.54166 255.323859 
L 151.54166 254.969224 
L 154.101358 254.969224 
L 154.101358 254.614588 
L 161.42959 254.614588 
L 161.42959 254.259953 
L 161.654432 254.259953 
L 161.654432 253.196047 
L 163.019227 253.196047 
L 163.019227 252.841412 
L 164.388551 252.841412 
L 164.388551 252.486776 
L 167.416772 252.486776 
L 167.416772 252.132141 
L 169.144777 252.132141 
L 169.144777 251.777506 
L 170.09592 251.777506 
L 170.09592 251.422871 
L 170.402572 251.422871 
L 170.402572 250.7136 
L 171.88669 250.7136 
L 171.88669 250.358965 
L 172.101681 250.358965 
L 172.101681 250.004329 
L 173.060174 250.004329 
L 173.060174 249.295059 
L 173.87517 249.295059 
L 173.87517 248.940424 
L 176.230828 248.940424 
L 176.230828 248.231153 
L 177.314646 248.231153 
L 177.314646 247.521882 
L 182.233915 247.521882 
L 182.233915 247.167247 
L 183.063612 247.167247 
L 183.08747 246.457976 
L 185.594932 246.457976 
L 185.605362 244.6848 
L 188.677189 244.6848 
L 188.677189 244.330165 
L 194.372416 244.330165 
L 194.372416 243.266259 
L 195.820172 243.266259 
L 195.820172 242.556988 
L 198.903439 242.556988 
L 198.903439 242.202353 
L 205.010563 242.202353 
L 205.010563 241.847718 
L 205.345802 241.847718 
L 205.345802 240.429176 
L 210.251485 240.429176 
L 210.251485 240.074541 
L 211.893696 240.074541 
L 211.893696 239.010635 
L 212.266365 239.010635 
L 212.266365 238.301365 
L 212.851124 238.301365 
L 212.851124 237.592094 
L 213.757506 237.592094 
L 213.850667 236.173553 
L 213.987243 236.173553 
L 213.987243 235.109647 
L 215.17376 235.109647 
L 215.17376 234.755012 
L 216.076414 234.755012 
L 216.076414 234.400376 
L 216.641636 234.400376 
L 216.641636 233.336471 
L 216.949557 233.336471 
L 216.949557 232.981835 
L 217.19815 232.981835 
L 217.19815 231.917929 
L 217.464602 231.917929 
L 217.464602 230.144753 
L 217.885476 230.144753 
L 217.885476 229.790118 
L 218.476039 229.790118 
L 218.581121 229.080847 
L 218.676634 229.080847 
L 218.725106 227.662306 
L 218.891115 227.662306 
L 218.891115 226.953035 
L 219.740685 226.953035 
L 219.740685 226.5984 
L 220.696161 226.5984 
L 220.696161 223.761318 
L 220.853729 223.761318 
L 220.917665 219.860329 
L 221.252945 219.860329 
L 221.304601 217.732518 
L 221.673012 217.732518 
L 221.673012 217.377882 
L 222.022312 217.377882 
L 222.10339 216.313976 
L 222.635159 216.313976 
L 222.693327 215.250071 
L 222.9815 215.250071 
L 223.038608 213.476894 
L 223.458696 213.476894 
L 223.458696 213.122259 
L 223.70797 213.122259 
L 223.70797 211.703718 
L 224.238328 211.703718 
L 224.343693 207.448094 
L 224.816502 207.448094 
L 224.816502 207.093459 
L 225.080523 207.093459 
L 225.080523 206.738824 
L 225.641201 206.738824 
L 225.641201 206.384188 
L 226.039162 206.384188 
L 226.039162 206.029553 
L 226.471686 206.029553 
L 226.471686 205.320282 
L 226.938567 205.320282 
L 226.938567 204.256376 
L 227.262497 204.256376 
L 227.262497 203.901741 
L 227.848881 203.901741 
L 227.848881 203.192471 
L 227.97321 203.192471 
L 227.97321 202.4832 
L 228.371428 202.4832 
L 228.371428 202.128565 
L 228.723493 202.128565 
L 228.723493 201.773929 
L 229.833415 201.773929 
L 229.833415 200.000753 
L 232.422301 200.000753 
L 232.422301 199.291482 
L 233.516093 199.291482 
L 233.569108 197.872941 
L 233.646323 197.872941 
L 233.646323 197.518306 
L 234.146564 197.518306 
L 234.146564 197.163671 
L 235.052456 197.163671 
L 235.052456 196.809035 
L 235.276178 196.809035 
L 235.276178 196.4544 
L 235.512703 196.4544 
L 235.605024 195.745129 
L 235.71725 195.745129 
L 235.71725 195.390494 
L 235.848301 195.390494 
L 235.948326 193.617318 
L 236.009947 193.617318 
L 236.009947 193.262682 
L 236.289704 193.262682 
L 236.289704 192.908047 
L 237.094046 192.908047 
L 237.094046 192.553412 
L 237.335593 192.553412 
L 237.335593 192.198776 
L 237.488306 192.198776 
L 237.531241 189.361694 
L 246.039 189.361694 
L 246.039 187.588518 
L 246.797907 187.588518 
L 246.797907 186.879247 
L 247.226371 186.879247 
L 247.275565 184.042165 
L 247.571926 184.042165 
L 247.571926 182.978259 
L 248.095017 182.978259 
L 248.149499 179.077271 
L 248.224389 179.077271 
L 248.224389 178.368 
L 248.461684 178.368 
L 248.522474 177.304094 
L 248.669033 177.304094 
L 248.710959 176.594824 
L 274.196118 176.594824 
L 274.284885 173.403106 
L 274.344826 173.403106 
L 274.444491 171.629929 
L 274.465806 171.629929 
L 274.465806 171.275294 
L 274.646103 171.275294 
L 274.654449 169.502118 
L 274.794678 169.502118 
L 274.884658 167.019671 
L 274.918957 167.019671 
L 274.975833 163.473318 
L 275.039276 163.473318 
L 275.146149 160.2816 
L 275.189781 160.2816 
L 275.296249 153.188894 
L 275.3214 153.188894 
L 275.420086 148.933271 
L 275.454477 148.933271 
L 275.510985 143.613741 
L 275.609643 143.613741 
L 275.7142 141.131294 
L 275.723992 141.131294 
L 275.784361 139.712753 
L 275.877818 139.712753 
L 275.877818 138.648847 
L 276.116366 138.648847 
L 276.22642 137.939576 
L 276.231901 137.939576 
L 276.292514 136.521035 
L 276.415996 136.521035 
L 276.499809 134.393224 
L 276.629043 134.393224 
L 276.683041 131.910776 
L 277.979576 131.910776 
L 277.979576 130.492235 
L 278.120813 130.492235 
L 278.212108 128.364424 
L 278.2697 128.364424 
L 278.374956 125.881976 
L 278.384058 125.881976 
L 278.459412 123.399529 
L 287.225236 123.399529 
L 287.3148 119.143906 
L 287.349899 119.143906 
L 287.45592 117.370729 
L 287.561994 117.370729 
L 287.671053 114.533647 
L 287.698575 114.533647 
L 287.794128 109.923388 
L 287.812999 109.923388 
L 287.914682 103.894588 
L 287.963646 103.894588 
L 288.021631 101.766776 
L 288.085322 101.766776 
L 288.085322 101.057506 
L 288.210364 101.057506 
L 288.210364 100.702871 
L 288.395014 100.702871 
L 288.481652 98.929694 
L 288.507575 98.929694 
L 288.510429 98.220424 
L 289.212932 98.220424 
L 289.290796 97.511153 
L 289.336016 97.511153 
L 289.44498 92.900894 
L 289.495207 92.900894 
L 289.495207 92.191624 
L 294.860904 92.191624 
L 294.956942 90.063812 
L 295.070002 90.063812 
L 295.171576 85.808188 
L 295.20439 85.808188 
L 295.280907 79.424753 
L 295.394144 79.424753 
L 295.42715 78.360847 
L 295.5512 78.360847 
L 295.643967 76.233035 
L 295.696323 76.233035 
L 295.715938 74.459859 
L 296.197728 74.459859 
L 296.308407 72.332047 
L 296.348128 72.332047 
L 296.392904 71.268141 
L 300.280103 71.268141 
L 300.375107 68.431059 
L 300.442857 68.431059 
L 300.529538 65.948612 
L 300.582206 65.948612 
L 300.632307 64.175435 
L 300.694453 64.175435 
L 300.788284 62.402259 
L 300.806218 62.402259 
L 300.913122 59.919812 
L 301.279735 59.919812 
L 301.344642 58.855906 
L 301.394637 58.855906 
L 301.431428 57.437365 
L 304.469437 57.437365 
L 304.506031 56.728094 
L 304.588795 56.728094 
L 304.698639 53.891012 
L 304.734957 53.891012 
L 304.778769 52.827106 
L 304.938396 52.827106 
L 304.980877 52.117835 
L 305.276757 52.117835 
L 305.329257 51.408565 
L 305.38879 51.408565 
L 305.38879 51.053929 
L 307.889692 51.053929 
L 307.889692 50.699294 
L 308.001756 50.699294 
L 308.110958 44.670494 
L 308.240412 44.670494 
L 308.323512 43.961224 
L 308.615615 43.961224 
L 308.664399 41.833412 
L 310.805815 41.833412 
L 310.911131 40.769506 
L 310.922044 40.769506 
L 310.993208 37.932424 
L 311.034338 37.932424 
L 311.034338 37.577788 
L 311.160852 37.577788 
L 311.160852 37.223153 
L 311.423827 37.223153 
L 311.441622 36.513882 
L 313.29946 36.513882 
L 313.40692 35.449976 
L 313.43001 35.449976 
L 313.502251 34.386071 
L 313.622385 34.386071 
L 313.622385 34.031435 
L 313.87258 34.031435 
L 313.87258 33.6768 
L 315.608716 33.6768 
L 315.706079 31.194353 
L 315.780138 31.194353 
L 315.780138 30.839718 
L 317.561077 30.839718 
L 317.561077 30.485082 
L 317.724813 30.485082 
L 317.724813 30.130447 
L 317.956973 30.130447 
L 317.956973 29.421176 
L 319.299543 29.421176 
L 319.384668 28.357271 
L 325.164329 28.357271 
L 325.164329 28.002635 
L 332.381677 28.002635 
L 332.381677 27.648 
L 360.8064 27.648 
L 360.8064 27.648 
" style="fill: none; stroke: #ff00ff; stroke-width: 1.5; stroke-linecap: square"/>
   </g>
   <g id="line2d_41">
    <defs>
     <path id="md67f4d80e0" d="M 0 8.485281 
L 5.091169 0 
L 0 -8.485281 
L -5.091169 0 
z
" style="stroke: #ff00ff; stroke-width: 1.5; stroke-linejoin: miter"/>
    </defs>
    <g>
     <use xlink:href="#md67f4d80e0" x="146.695245" y="257.451671" style="fill-opacity: 0; stroke: #ff00ff; stroke-width: 1.5; stroke-linejoin: miter"/>
     <use xlink:href="#md67f4d80e0" x="226.471686" y="206.029553" style="fill-opacity: 0; stroke: #ff00ff; stroke-width: 1.5; stroke-linejoin: miter"/>
     <use xlink:href="#md67f4d80e0" x="275.454477" y="148.933271" style="fill-opacity: 0; stroke: #ff00ff; stroke-width: 1.5; stroke-linejoin: miter"/>
     <use xlink:href="#md67f4d80e0" x="332.381677" y="28.002635" style="fill-opacity: 0; stroke: #ff00ff; stroke-width: 1.5; stroke-linejoin: miter"/>
     <use xlink:href="#md67f4d80e0" x="332.381677" y="27.648" style="fill-opacity: 0; stroke: #ff00ff; stroke-width: 1.5; stroke-linejoin: miter"/>
     <use xlink:href="#md67f4d80e0" x="360.8064" y="27.648" style="fill-opacity: 0; stroke: #ff00ff; stroke-width: 1.5; stroke-linejoin: miter"/>
    </g>
   </g>
   <g id="line2d_42">
    <path style="fill: none; stroke: #ff00ff; stroke-width: 1.5; stroke-linecap: square"/>
    <g/>
   </g>
   <g id="line2d_43">
    <path d="M 274.176 176.594824 
" clip-path="url(#p348e09b1d0)" style="fill: none; stroke: #ff00ff; stroke-width: 1.5; stroke-linecap: square"/>
    <defs>
     <path id="mf9c15f4d5b" d="M -12 12 
L 12 -12 
M -12 -12 
L 12 12 
" style="stroke: #ff00ff"/>
    </defs>
    <g clip-path="url(#p348e09b1d0)">
     <use xlink:href="#mf9c15f4d5b" x="274.176" y="176.594824" style="fill: #ff00ff; stroke: #ff00ff"/>
    </g>
   </g>
   <g id="line2d_44">
    <path d="M 360.8064 27.648 
L 380.514816 293.51808 
" style="fill: none; stroke: #000080; stroke-width: 1.5; stroke-linecap: square"/>
    <g>
     <use xlink:href="#me3692910b4" x="360.8064" y="27.648" style="fill-opacity: 0; stroke: #000080; stroke-width: 1.5"/>
     <use xlink:href="#me3692910b4" x="380.514816" y="293.51808" style="fill-opacity: 0; stroke: #000080; stroke-width: 1.5"/>
    </g>
   </g>
   <g id="line2d_45">
    <path d="M 360.8064 27.648 
L 380.514816 163.296 
" style="fill: none; stroke: #ff00ff; stroke-width: 1.5; stroke-linecap: square"/>
    <g>
     <use xlink:href="#md67f4d80e0" x="360.8064" y="27.648" style="fill-opacity: 0; stroke: #ff00ff; stroke-width: 1.5; stroke-linejoin: miter"/>
     <use xlink:href="#md67f4d80e0" x="380.514816" y="163.296" style="fill-opacity: 0; stroke: #ff00ff; stroke-width: 1.5; stroke-linejoin: miter"/>
    </g>
   </g>
   <g id="line2d_46">
    <path d="M 360.8064 298.944 
L 360.8064 27.648 
" style="fill: none; stroke: #000000; stroke-width: 1.5; stroke-linecap: square"/>
   </g>
   <g id="patch_3">
    <path d="M 57.6 298.944 
L 360.8064 298.944 
" style="fill: none; stroke: #000000; stroke-width: 0.8; stroke-linejoin: miter; stroke-linecap: square"/>
   </g>
   <g id="patch_4">
    <path d="M 57.6 27.648 
L 360.8064 27.648 
" style="fill: none; stroke: #000000; stroke-width: 0.8; stroke-linejoin: miter; stroke-linecap: square"/>
   </g>
   <g id="text_13">
    <!-- LCGA -->
    <g transform="translate(386.578944 297.381205)scale(0.14 -0.14)">
     <defs>
      <path id="DejaVuSans-4c" d="M 628 4666 
L 1259 4666 
L 1259 531 
L 3531 531 
L 3531 0 
L 628 0 
L 628 4666 
z
" transform="scale(0.015625)"/>
      <path id="DejaVuSans-43" d="M 4122 4306 
L 4122 3641 
Q 3803 3938 3442 4084 
Q 3081 4231 2675 4231 
Q 1875 4231 1450 3742 
Q 1025 3253 1025 2328 
Q 1025 1406 1450 917 
Q 1875 428 2675 428 
Q 3081 428 3442 575 
Q 3803 722 4122 1019 
L 4122 359 
Q 3791 134 3420 21 
Q 3050 -91 2638 -91 
Q 1578 -91 968 557 
Q 359 1206 359 2328 
Q 359 3453 968 4101 
Q 1578 4750 2638 4750 
Q 3056 4750 3426 4639 
Q 3797 4528 4122 4306 
z
" transform="scale(0.015625)"/>
      <path id="DejaVuSans-47" d="M 3809 666 
L 3809 1919 
L 2778 1919 
L 2778 2438 
L 4434 2438 
L 4434 434 
Q 4069 175 3628 42 
Q 3188 -91 2688 -91 
Q 1594 -91 976 548 
Q 359 1188 359 2328 
Q 359 3472 976 4111 
Q 1594 4750 2688 4750 
Q 3144 4750 3555 4637 
Q 3966 4525 4313 4306 
L 4313 3634 
Q 3963 3931 3569 4081 
Q 3175 4231 2741 4231 
Q 1884 4231 1454 3753 
Q 1025 3275 1025 2328 
Q 1025 1384 1454 906 
Q 1884 428 2741 428 
Q 3075 428 3337 486 
Q 3600 544 3809 666 
z
" transform="scale(0.015625)"/>
      <path id="DejaVuSans-41" d="M 2188 4044 
L 1331 1722 
L 3047 1722 
L 2188 4044 
z
M 1831 4666 
L 2547 4666 
L 4325 0 
L 3669 0 
L 3244 1197 
L 1141 1197 
L 716 0 
L 50 0 
L 1831 4666 
z
" transform="scale(0.015625)"/>
     </defs>
     <use xlink:href="#DejaVuSans-4c"/>
     <use xlink:href="#DejaVuSans-43" x="55.712891"/>
     <use xlink:href="#DejaVuSans-47" x="125.537109"/>
     <use xlink:href="#DejaVuSans-41" x="203.027344"/>
    </g>
   </g>
   <g id="text_14">
    <!-- PSO -->
    <g transform="translate(386.578944 167.159125)scale(0.14 -0.14)">
     <defs>
      <path id="DejaVuSans-50" d="M 1259 4147 
L 1259 2394 
L 2053 2394 
Q 2494 2394 2734 2622 
Q 2975 2850 2975 3272 
Q 2975 3691 2734 3919 
Q 2494 4147 2053 4147 
L 1259 4147 
z
M 628 4666 
L 2053 4666 
Q 2838 4666 3239 4311 
Q 3641 3956 3641 3272 
Q 3641 2581 3239 2228 
Q 2838 1875 2053 1875 
L 1259 1875 
L 1259 0 
L 628 0 
L 628 4666 
z
" transform="scale(0.015625)"/>
      <path id="DejaVuSans-53" d="M 3425 4513 
L 3425 3897 
Q 3066 4069 2747 4153 
Q 2428 4238 2131 4238 
Q 1616 4238 1336 4038 
Q 1056 3838 1056 3469 
Q 1056 3159 1242 3001 
Q 1428 2844 1947 2747 
L 2328 2669 
Q 3034 2534 3370 2195 
Q 3706 1856 3706 1288 
Q 3706 609 3251 259 
Q 2797 -91 1919 -91 
Q 1588 -91 1214 -16 
Q 841 59 441 206 
L 441 856 
Q 825 641 1194 531 
Q 1563 422 1919 422 
Q 2459 422 2753 634 
Q 3047 847 3047 1241 
Q 3047 1584 2836 1778 
Q 2625 1972 2144 2069 
L 1759 2144 
Q 1053 2284 737 2584 
Q 422 2884 422 3419 
Q 422 4038 858 4394 
Q 1294 4750 2059 4750 
Q 2388 4750 2728 4690 
Q 3069 4631 3425 4513 
z
" transform="scale(0.015625)"/>
      <path id="DejaVuSans-4f" d="M 2522 4238 
Q 1834 4238 1429 3725 
Q 1025 3213 1025 2328 
Q 1025 1447 1429 934 
Q 1834 422 2522 422 
Q 3209 422 3611 934 
Q 4013 1447 4013 2328 
Q 4013 3213 3611 3725 
Q 3209 4238 2522 4238 
z
M 2522 4750 
Q 3503 4750 4090 4092 
Q 4678 3434 4678 2328 
Q 4678 1225 4090 567 
Q 3503 -91 2522 -91 
Q 1538 -91 948 565 
Q 359 1222 359 2328 
Q 359 3434 948 4092 
Q 1538 4750 2522 4750 
z
" transform="scale(0.015625)"/>
     </defs>
     <use xlink:href="#DejaVuSans-50"/>
     <use xlink:href="#DejaVuSans-53" x="60.302734"/>
     <use xlink:href="#DejaVuSans-4f" x="123.779297"/>
    </g>
   </g>
   <g id="text_15">
    <!-- best 2009 -->
    <g transform="translate(386.578944 36.937045)scale(0.14 -0.14)">
     <defs>
      <path id="DejaVuSans-62" d="M 3116 1747 
Q 3116 2381 2855 2742 
Q 2594 3103 2138 3103 
Q 1681 3103 1420 2742 
Q 1159 2381 1159 1747 
Q 1159 1113 1420 752 
Q 1681 391 2138 391 
Q 2594 391 2855 752 
Q 3116 1113 3116 1747 
z
M 1159 2969 
Q 1341 3281 1617 3432 
Q 1894 3584 2278 3584 
Q 2916 3584 3314 3078 
Q 3713 2572 3713 1747 
Q 3713 922 3314 415 
Q 2916 -91 2278 -91 
Q 1894 -91 1617 61 
Q 1341 213 1159 525 
L 1159 0 
L 581 0 
L 581 4863 
L 1159 4863 
L 1159 2969 
z
" transform="scale(0.015625)"/>
      <path id="DejaVuSans-39" d="M 703 97 
L 703 672 
Q 941 559 1184 500 
Q 1428 441 1663 441 
Q 2288 441 2617 861 
Q 2947 1281 2994 2138 
Q 2813 1869 2534 1725 
Q 2256 1581 1919 1581 
Q 1219 1581 811 2004 
Q 403 2428 403 3163 
Q 403 3881 828 4315 
Q 1253 4750 1959 4750 
Q 2769 4750 3195 4129 
Q 3622 3509 3622 2328 
Q 3622 1225 3098 567 
Q 2575 -91 1691 -91 
Q 1453 -91 1209 -44 
Q 966 3 703 97 
z
M 1959 2075 
Q 2384 2075 2632 2365 
Q 2881 2656 2881 3163 
Q 2881 3666 2632 3958 
Q 2384 4250 1959 4250 
Q 1534 4250 1286 3958 
Q 1038 3666 1038 3163 
Q 1038 2656 1286 2365 
Q 1534 2075 1959 2075 
z
" transform="scale(0.015625)"/>
     </defs>
     <use xlink:href="#DejaVuSans-62"/>
     <use xlink:href="#DejaVuSans-65" x="63.476562"/>
     <use xlink:href="#DejaVuSans-73" x="125"/>
     <use xlink:href="#DejaVuSans-74" x="177.099609"/>
     <use xlink:href="#DejaVuSans-20" x="216.308594"/>
     <use xlink:href="#DejaVuSans-32" x="248.095703"/>
     <use xlink:href="#DejaVuSans-30" x="311.71875"/>
     <use xlink:href="#DejaVuSans-30" x="375.341797"/>
     <use xlink:href="#DejaVuSans-39" x="438.964844"/>
    </g>
   </g>
   <g id="text_16">
    <!-- bbob f24, 2-D -->
    <g transform="translate(60.632064 38.111366)scale(0.102 -0.102)">
     <defs>
      <path id="DejaVuSans-44" d="M 1259 4147 
L 1259 519 
L 2022 519 
Q 2988 519 3436 956 
Q 3884 1394 3884 2338 
Q 3884 3275 3436 3711 
Q 2988 4147 2022 4147 
L 1259 4147 
z
M 628 4666 
L 1925 4666 
Q 3281 4666 3915 4102 
Q 4550 3538 4550 2338 
Q 4550 1131 3912 565 
Q 3275 0 1925 0 
L 628 0 
L 628 4666 
z
" transform="scale(0.015625)"/>
     </defs>
     <use xlink:href="#DejaVuSans-62"/>
     <use xlink:href="#DejaVuSans-62" x="63.476562"/>
     <use xlink:href="#DejaVuSans-6f" x="126.953125"/>
     <use xlink:href="#DejaVuSans-62" x="188.134766"/>
     <use xlink:href="#DejaVuSans-20" x="251.611328"/>
     <use xlink:href="#DejaVuSans-66" x="283.398438"/>
     <use xlink:href="#DejaVuSans-32" x="318.603516"/>
     <use xlink:href="#DejaVuSans-34" x="382.226562"/>
     <use xlink:href="#DejaVuSans-2c" x="445.849609"/>
     <use xlink:href="#DejaVuSans-20" x="477.636719"/>
     <use xlink:href="#DejaVuSans-32" x="509.423828"/>
     <use xlink:href="#DejaVuSans-2d" x="573.046875"/>
     <use xlink:href="#DejaVuSans-44" x="609.130859"/>
    </g>
    <!-- 51 targets: 100..1e-08 -->
    <g transform="translate(60.632064 49.533135)scale(0.102 -0.102)">
     <defs>
      <path id="DejaVuSans-35" d="M 691 4666 
L 3169 4666 
L 3169 4134 
L 1269 4134 
L 1269 2991 
Q 1406 3038 1543 3061 
Q 1681 3084 1819 3084 
Q 2600 3084 3056 2656 
Q 3513 2228 3513 1497 
Q 3513 744 3044 326 
Q 2575 -91 1722 -91 
Q 1428 -91 1123 -41 
Q 819 9 494 109 
L 494 744 
Q 775 591 1075 516 
Q 1375 441 1709 441 
Q 2250 441 2565 725 
Q 2881 1009 2881 1497 
Q 2881 1984 2565 2268 
Q 2250 2553 1709 2553 
Q 1456 2553 1204 2497 
Q 953 2441 691 2322 
L 691 4666 
z
" transform="scale(0.015625)"/>
      <path id="DejaVuSans-3a" d="M 750 794 
L 1409 794 
L 1409 0 
L 750 0 
L 750 794 
z
M 750 3309 
L 1409 3309 
L 1409 2516 
L 750 2516 
L 750 3309 
z
" transform="scale(0.015625)"/>
     </defs>
     <use xlink:href="#DejaVuSans-35"/>
     <use xlink:href="#DejaVuSans-31" x="63.623047"/>
     <use xlink:href="#DejaVuSans-20" x="127.246094"/>
     <use xlink:href="#DejaVuSans-74" x="159.033203"/>
     <use xlink:href="#DejaVuSans-61" x="198.242188"/>
     <use xlink:href="#DejaVuSans-72" x="259.521484"/>
     <use xlink:href="#DejaVuSans-67" x="298.884766"/>
     <use xlink:href="#DejaVuSans-65" x="362.361328"/>
     <use xlink:href="#DejaVuSans-74" x="423.884766"/>
     <use xlink:href="#DejaVuSans-73" x="463.09375"/>
     <use xlink:href="#DejaVuSans-3a" x="515.193359"/>
     <use xlink:href="#DejaVuSans-20" x="548.884766"/>
     <use xlink:href="#DejaVuSans-31" x="580.671875"/>
     <use xlink:href="#DejaVuSans-30" x="644.294922"/>
     <use xlink:href="#DejaVuSans-30" x="707.917969"/>
     <use xlink:href="#DejaVuSans-2e" x="771.541016"/>
     <use xlink:href="#DejaVuSans-2e" x="803.328125"/>
     <use xlink:href="#DejaVuSans-31" x="835.115234"/>
     <use xlink:href="#DejaVuSans-65" x="898.738281"/>
     <use xlink:href="#DejaVuSans-2d" x="960.261719"/>
     <use xlink:href="#DejaVuSans-30" x="996.345703"/>
     <use xlink:href="#DejaVuSans-38" x="1059.96875"/>
    </g>
    <!-- 15 instances -->
    <g transform="translate(60.632064 60.954904)scale(0.102 -0.102)">
     <use xlink:href="#DejaVuSans-31"/>
     <use xlink:href="#DejaVuSans-35" x="63.623047"/>
     <use xlink:href="#DejaVuSans-20" x="127.246094"/>
     <use xlink:href="#DejaVuSans-69" x="159.033203"/>
     <use xlink:href="#DejaVuSans-6e" x="186.816406"/>
     <use xlink:href="#DejaVuSans-73" x="250.195312"/>
     <use xlink:href="#DejaVuSans-74" x="302.294922"/>
     <use xlink:href="#DejaVuSans-61" x="341.503906"/>
     <use xlink:href="#DejaVuSans-6e" x="402.783203"/>
     <use xlink:href="#DejaVuSans-63" x="466.162109"/>
     <use xlink:href="#DejaVuSans-65" x="521.142578"/>
     <use xlink:href="#DejaVuSans-73" x="582.666016"/>
    </g>
   </g>
   <g id="text_17">
    <!-- v2.6 -->
    <g style="fill: #808080" transform="translate(198.292262 294.151352)scale(0.1 -0.1)">
     <use xlink:href="#DejaVuSans-76"/>
     <use xlink:href="#DejaVuSans-32" x="59.179688"/>
     <use xlink:href="#DejaVuSans-2e" x="122.802734"/>
     <use xlink:href="#DejaVuSans-36" x="154.589844"/>
    </g>
   </g>
   <g id="text_18">
    <!-- 24 Lunacek bi-Rastrigin -->
    <g transform="translate(91.411012 21.648)scale(0.2 -0.2)">
     <defs>
      <path id="DejaVuSans-6b" d="M 581 4863 
L 1159 4863 
L 1159 1991 
L 2875 3500 
L 3609 3500 
L 1753 1863 
L 3688 0 
L 2938 0 
L 1159 1709 
L 1159 0 
L 581 0 
L 581 4863 
z
" transform="scale(0.015625)"/>
      <path id="DejaVuSans-52" d="M 2841 2188 
Q 3044 2119 3236 1894 
Q 3428 1669 3622 1275 
L 4263 0 
L 3584 0 
L 2988 1197 
Q 2756 1666 2539 1819 
Q 2322 1972 1947 1972 
L 1259 1972 
L 1259 0 
L 628 0 
L 628 4666 
L 2053 4666 
Q 2853 4666 3247 4331 
Q 3641 3997 3641 3322 
Q 3641 2881 3436 2590 
Q 3231 2300 2841 2188 
z
M 1259 4147 
L 1259 2491 
L 2053 2491 
Q 2509 2491 2742 2702 
Q 2975 2913 2975 3322 
Q 2975 3731 2742 3939 
Q 2509 4147 2053 4147 
L 1259 4147 
z
" transform="scale(0.015625)"/>
     </defs>
     <use xlink:href="#DejaVuSans-32"/>
     <use xlink:href="#DejaVuSans-34" x="63.623047"/>
     <use xlink:href="#DejaVuSans-20" x="127.246094"/>
     <use xlink:href="#DejaVuSans-4c" x="159.033203"/>
     <use xlink:href="#DejaVuSans-75" x="212.996094"/>
     <use xlink:href="#DejaVuSans-6e" x="276.375"/>
     <use xlink:href="#DejaVuSans-61" x="339.753906"/>
     <use xlink:href="#DejaVuSans-63" x="401.033203"/>
     <use xlink:href="#DejaVuSans-65" x="456.013672"/>
     <use xlink:href="#DejaVuSans-6b" x="517.537109"/>
     <use xlink:href="#DejaVuSans-20" x="575.447266"/>
     <use xlink:href="#DejaVuSans-62" x="607.234375"/>
     <use xlink:href="#DejaVuSans-69" x="670.710938"/>
     <use xlink:href="#DejaVuSans-2d" x="698.494141"/>
     <use xlink:href="#DejaVuSans-52" x="734.578125"/>
     <use xlink:href="#DejaVuSans-61" x="801.810547"/>
     <use xlink:href="#DejaVuSans-73" x="863.089844"/>
     <use xlink:href="#DejaVuSans-74" x="915.189453"/>
     <use xlink:href="#DejaVuSans-72" x="954.398438"/>
     <use xlink:href="#DejaVuSans-69" x="995.511719"/>
     <use xlink:href="#DejaVuSans-67" x="1023.294922"/>
     <use xlink:href="#DejaVuSans-69" x="1086.771484"/>
     <use xlink:href="#DejaVuSans-6e" x="1114.554688"/>
    </g>
   </g>
  </g>
 </g>
 <defs>
  <clipPath id="p348e09b1d0">
   <rect x="57.6" y="27.648" width="303.2064" height="271.296"/>
  </clipPath>
 </defs>
</svg>
