<?xml version="1.0" encoding="utf-8" standalone="no"?>
<!DOCTYPE svg PUBLIC "-//W3C//DTD SVG 1.1//EN"
  "http://www.w3.org/Graphics/SVG/1.1/DTD/svg11.dtd">
<svg xmlns:xlink="http://www.w3.org/1999/xlink" width="460.8pt" height="345.6pt" viewBox="0 0 460.8 345.6" xmlns="http://www.w3.org/2000/svg" version="1.1">
 <metadata>
  <rdf:RDF xmlns:dc="http://purl.org/dc/elements/1.1/" xmlns:cc="http://creativecommons.org/ns#" xmlns:rdf="http://www.w3.org/1999/02/22-rdf-syntax-ns#">
   <cc:Work>
    <dc:type rdf:resource="http://purl.org/dc/dcmitype/StillImage"/>
    <dc:date>2024-05-29T08:02:16.367057</dc:date>
    <dc:format>image/svg+xml</dc:format>
    <dc:creator>
     <cc:Agent>
      <dc:title>Matplotlib v3.5.1, https://matplotlib.org/</dc:title>
     </cc:Agent>
    </dc:creator>
   </cc:Work>
  </rdf:RDF>
 </metadata>
 <defs>
  <style type="text/css">*{stroke-linejoin: round; stroke-linecap: butt}</style>
 </defs>
 <g id="figure_1">
  <g id="patch_1">
   <path d="M 0 345.6 
L 460.8 345.6 
L 460.8 0 
L 0 0 
z
" style="fill: #ffffff"/>
  </g>
  <g id="axes_1">
   <g id="patch_2">
    <path d="M 57.6 298.944 
L 360.8064 298.944 
L 360.8064 27.648 
L 57.6 27.648 
z
" style="fill: #ffffff"/>
   </g>
   <g id="line2d_1">
    <path d="M 101.287718 298.944 
L 101.287718 293.624471 
L 106.699465 293.624471 
L 106.699465 288.304941 
L 116.583514 288.304941 
L 116.583514 282.985412 
L 120.48442 282.985412 
L 120.48442 277.665882 
L 123.880906 277.665882 
L 123.880906 272.346353 
L 127.549596 272.346353 
L 127.549596 267.026824 
L 129.622688 267.026824 
L 129.622688 261.707294 
L 131.341119 261.707294 
L 131.341119 256.387765 
L 132.984158 256.387765 
L 132.984158 251.068235 
L 133.853052 251.068235 
L 133.853052 245.748706 
L 135.328609 245.748706 
L 135.328609 240.429176 
L 136.413909 240.429176 
L 136.413909 235.109647 
L 137.140746 235.109647 
L 137.140746 229.790118 
L 138.335954 229.790118 
L 138.335954 224.470588 
L 139.748412 224.470588 
L 139.748412 219.151059 
L 140.634374 219.151059 
L 140.634374 213.831529 
L 141.953481 213.831529 
L 141.953481 208.512 
L 142.804452 208.512 
L 142.804452 203.192471 
L 143.423243 203.192471 
L 143.423243 197.872941 
L 144.436197 197.872941 
L 144.436197 192.553412 
L 144.950106 192.553412 
L 144.950106 187.233882 
L 145.765046 187.233882 
L 145.765046 181.914353 
L 146.529503 181.914353 
L 146.529503 176.594824 
L 147.135588 176.594824 
L 147.135588 171.275294 
L 148.307296 171.275294 
L 148.307296 165.955765 
L 149.049758 165.955765 
L 149.049758 160.636235 
L 149.750003 160.636235 
L 149.750003 155.316706 
L 150.533072 155.316706 
L 150.533072 149.997176 
L 151.375128 149.997176 
L 151.375128 144.677647 
L 151.920429 144.677647 
L 151.920429 139.358118 
L 152.739781 139.358118 
L 152.739781 134.038588 
L 153.398253 134.038588 
L 153.398253 128.719059 
L 154.101358 128.719059 
L 154.101358 123.399529 
L 154.779128 123.399529 
L 154.779128 118.08 
L 155.24573 118.08 
L 155.24573 112.760471 
L 155.711258 112.760471 
L 155.711258 107.440941 
L 156.165543 107.440941 
L 156.165543 102.121412 
L 156.657763 102.121412 
L 156.657763 96.801882 
L 157.30716 96.801882 
L 157.30716 91.482353 
L 157.779907 91.482353 
L 157.779907 86.162824 
L 158.070579 86.162824 
L 158.070579 80.843294 
L 158.638786 80.843294 
L 158.638786 75.523765 
L 159.258152 75.523765 
L 159.258152 70.204235 
L 159.651731 70.204235 
L 159.651731 64.884706 
L 160.102084 64.884706 
L 160.102084 59.565176 
L 160.4627 59.565176 
L 160.4627 54.245647 
L 160.730652 54.245647 
L 160.730652 48.926118 
L 161.079527 48.926118 
L 161.079527 43.606588 
L 161.437128 43.606588 
L 161.437128 38.287059 
L 161.832391 38.287059 
L 161.832391 32.967529 
L 162.370732 32.967529 
L 162.370732 27.648 
L 360.8064 27.648 
" style="fill: none; stroke: #f5deb3; stroke-width: 4; stroke-linecap: square"/>
   </g>
   <g id="line2d_2">
    <defs>
     <path id="m1afb7c34ac" d="M 0 7.778175 
L 7.778175 0 
L 0 -7.778175 
L -7.778175 0 
z
" style="stroke: #f5deb3; stroke-width: 1.5; stroke-linejoin: miter"/>
    </defs>
    <g>
     <use xlink:href="#m1afb7c34ac" x="139.748412" y="219.151059" style="fill: #f5deb3; stroke: #f5deb3; stroke-width: 1.5; stroke-linejoin: miter"/>
     <use xlink:href="#m1afb7c34ac" x="158.638786" y="75.523765" style="fill: #f5deb3; stroke: #f5deb3; stroke-width: 1.5; stroke-linejoin: miter"/>
     <use xlink:href="#m1afb7c34ac" x="162.370732" y="32.967529" style="fill: #f5deb3; stroke: #f5deb3; stroke-width: 1.5; stroke-linejoin: miter"/>
     <use xlink:href="#m1afb7c34ac" x="162.370732" y="27.648" style="fill: #f5deb3; stroke: #f5deb3; stroke-width: 1.5; stroke-linejoin: miter"/>
     <use xlink:href="#m1afb7c34ac" x="360.8064" y="27.648" style="fill: #f5deb3; stroke: #f5deb3; stroke-width: 1.5; stroke-linejoin: miter"/>
    </g>
   </g>
   <g id="line2d_3">
    <path style="fill: none; stroke: #f5deb3; stroke-width: 4; stroke-linecap: square"/>
    <g/>
   </g>
   <g id="line2d_4">
    <path d="M 360.8064 27.648 
L 380.514816 33.07392 
" style="fill: none; stroke: #f5deb3; stroke-width: 4; stroke-linecap: square"/>
    <g>
     <use xlink:href="#m1afb7c34ac" x="360.8064" y="27.648" style="fill: #f5deb3; stroke: #f5deb3; stroke-width: 1.5; stroke-linejoin: miter"/>
     <use xlink:href="#m1afb7c34ac" x="380.514816" y="33.07392" style="fill: #f5deb3; stroke: #f5deb3; stroke-width: 1.5; stroke-linejoin: miter"/>
    </g>
   </g>
   <g id="matplotlib.axis_1">
    <g id="xtick_1">
     <g id="line2d_5">
      <path d="M 57.6 298.944 
L 57.6 27.648 
" clip-path="url(#p9f5ae5baa8)" style="fill: none; stroke: #b0b0b0; stroke-width: 0.8; stroke-linecap: square"/>
     </g>
     <g id="line2d_6">
      <defs>
       <path id="m3a712b816e" d="M 0 0 
L 0 3.5 
" style="stroke: #000000; stroke-width: 0.8"/>
      </defs>
      <g>
       <use xlink:href="#m3a712b816e" x="57.6" y="298.944" style="stroke: #000000; stroke-width: 0.8"/>
      </g>
     </g>
     <g id="text_1">
      <!-- 0 -->
      <g transform="translate(52.191875 318.861344)scale(0.17 -0.17)">
       <defs>
        <path id="DejaVuSans-30" d="M 2034 4250 
Q 1547 4250 1301 3770 
Q 1056 3291 1056 2328 
Q 1056 1369 1301 889 
Q 1547 409 2034 409 
Q 2525 409 2770 889 
Q 3016 1369 3016 2328 
Q 3016 3291 2770 3770 
Q 2525 4250 2034 4250 
z
M 2034 4750 
Q 2819 4750 3233 4129 
Q 3647 3509 3647 2328 
Q 3647 1150 3233 529 
Q 2819 -91 2034 -91 
Q 1250 -91 836 529 
Q 422 1150 422 2328 
Q 422 3509 836 4129 
Q 1250 4750 2034 4750 
z
" transform="scale(0.015625)"/>
       </defs>
       <use xlink:href="#DejaVuSans-30"/>
      </g>
     </g>
    </g>
    <g id="xtick_2">
     <g id="line2d_7">
      <path d="M 144.2304 298.944 
L 144.2304 27.648 
" clip-path="url(#p9f5ae5baa8)" style="fill: none; stroke: #b0b0b0; stroke-width: 0.8; stroke-linecap: square"/>
     </g>
     <g id="line2d_8">
      <g>
       <use xlink:href="#m3a712b816e" x="144.2304" y="298.944" style="stroke: #000000; stroke-width: 0.8"/>
      </g>
     </g>
     <g id="text_2">
      <!-- 2 -->
      <g transform="translate(138.822275 318.861344)scale(0.17 -0.17)">
       <defs>
        <path id="DejaVuSans-32" d="M 1228 531 
L 3431 531 
L 3431 0 
L 469 0 
L 469 531 
Q 828 903 1448 1529 
Q 2069 2156 2228 2338 
Q 2531 2678 2651 2914 
Q 2772 3150 2772 3378 
Q 2772 3750 2511 3984 
Q 2250 4219 1831 4219 
Q 1534 4219 1204 4116 
Q 875 4013 500 3803 
L 500 4441 
Q 881 4594 1212 4672 
Q 1544 4750 1819 4750 
Q 2544 4750 2975 4387 
Q 3406 4025 3406 3419 
Q 3406 3131 3298 2873 
Q 3191 2616 2906 2266 
Q 2828 2175 2409 1742 
Q 1991 1309 1228 531 
z
" transform="scale(0.015625)"/>
       </defs>
       <use xlink:href="#DejaVuSans-32"/>
      </g>
     </g>
    </g>
    <g id="xtick_3">
     <g id="line2d_9">
      <path d="M 230.8608 298.944 
L 230.8608 27.648 
" clip-path="url(#p9f5ae5baa8)" style="fill: none; stroke: #b0b0b0; stroke-width: 0.8; stroke-linecap: square"/>
     </g>
     <g id="line2d_10">
      <g>
       <use xlink:href="#m3a712b816e" x="230.8608" y="298.944" style="stroke: #000000; stroke-width: 0.8"/>
      </g>
     </g>
     <g id="text_3">
      <!-- 4 -->
      <g transform="translate(225.452675 318.861344)scale(0.17 -0.17)">
       <defs>
        <path id="DejaVuSans-34" d="M 2419 4116 
L 825 1625 
L 2419 1625 
L 2419 4116 
z
M 2253 4666 
L 3047 4666 
L 3047 1625 
L 3713 1625 
L 3713 1100 
L 3047 1100 
L 3047 0 
L 2419 0 
L 2419 1100 
L 313 1100 
L 313 1709 
L 2253 4666 
z
" transform="scale(0.015625)"/>
       </defs>
       <use xlink:href="#DejaVuSans-34"/>
      </g>
     </g>
    </g>
    <g id="xtick_4">
     <g id="line2d_11">
      <path d="M 317.4912 298.944 
L 317.4912 27.648 
" clip-path="url(#p9f5ae5baa8)" style="fill: none; stroke: #b0b0b0; stroke-width: 0.8; stroke-linecap: square"/>
     </g>
     <g id="line2d_12">
      <g>
       <use xlink:href="#m3a712b816e" x="317.4912" y="298.944" style="stroke: #000000; stroke-width: 0.8"/>
      </g>
     </g>
     <g id="text_4">
      <!-- 6 -->
      <g transform="translate(312.083075 318.861344)scale(0.17 -0.17)">
       <defs>
        <path id="DejaVuSans-36" d="M 2113 2584 
Q 1688 2584 1439 2293 
Q 1191 2003 1191 1497 
Q 1191 994 1439 701 
Q 1688 409 2113 409 
Q 2538 409 2786 701 
Q 3034 994 3034 1497 
Q 3034 2003 2786 2293 
Q 2538 2584 2113 2584 
z
M 3366 4563 
L 3366 3988 
Q 3128 4100 2886 4159 
Q 2644 4219 2406 4219 
Q 1781 4219 1451 3797 
Q 1122 3375 1075 2522 
Q 1259 2794 1537 2939 
Q 1816 3084 2150 3084 
Q 2853 3084 3261 2657 
Q 3669 2231 3669 1497 
Q 3669 778 3244 343 
Q 2819 -91 2113 -91 
Q 1303 -91 875 529 
Q 447 1150 447 2328 
Q 447 3434 972 4092 
Q 1497 4750 2381 4750 
Q 2619 4750 2861 4703 
Q 3103 4656 3366 4563 
z
" transform="scale(0.015625)"/>
       </defs>
       <use xlink:href="#DejaVuSans-36"/>
      </g>
     </g>
    </g>
    <g id="xtick_5">
     <g id="line2d_13">
      <path d="M 100.9152 298.944 
L 100.9152 27.648 
" clip-path="url(#p9f5ae5baa8)" style="fill: none; stroke: #b0b0b0; stroke-width: 0.8; stroke-linecap: square"/>
     </g>
     <g id="line2d_14">
      <defs>
       <path id="m2ac65e36ef" d="M 0 0 
L 0 2 
" style="stroke: #000000; stroke-width: 0.6"/>
      </defs>
      <g>
       <use xlink:href="#m2ac65e36ef" x="100.9152" y="298.944" style="stroke: #000000; stroke-width: 0.6"/>
      </g>
     </g>
    </g>
    <g id="xtick_6">
     <g id="line2d_15">
      <path d="M 187.5456 298.944 
L 187.5456 27.648 
" clip-path="url(#p9f5ae5baa8)" style="fill: none; stroke: #b0b0b0; stroke-width: 0.8; stroke-linecap: square"/>
     </g>
     <g id="line2d_16">
      <g>
       <use xlink:href="#m2ac65e36ef" x="187.5456" y="298.944" style="stroke: #000000; stroke-width: 0.6"/>
      </g>
     </g>
    </g>
    <g id="xtick_7">
     <g id="line2d_17">
      <path d="M 274.176 298.944 
L 274.176 27.648 
" clip-path="url(#p9f5ae5baa8)" style="fill: none; stroke: #b0b0b0; stroke-width: 0.8; stroke-linecap: square"/>
     </g>
     <g id="line2d_18">
      <g>
       <use xlink:href="#m2ac65e36ef" x="274.176" y="298.944" style="stroke: #000000; stroke-width: 0.6"/>
      </g>
     </g>
    </g>
    <g id="xtick_8">
     <g id="line2d_19">
      <path d="M 360.8064 298.944 
L 360.8064 27.648 
" clip-path="url(#p9f5ae5baa8)" style="fill: none; stroke: #b0b0b0; stroke-width: 0.8; stroke-linecap: square"/>
     </g>
     <g id="line2d_20">
      <g>
       <use xlink:href="#m2ac65e36ef" x="360.8064" y="298.944" style="stroke: #000000; stroke-width: 0.6"/>
      </g>
     </g>
    </g>
    <g id="text_5">
     <!-- log10(# f-evals / dimension) -->
     <g transform="translate(88.823278 339.314156)scale(0.17 -0.17)">
      <defs>
       <path id="DejaVuSans-6c" d="M 603 4863 
L 1178 4863 
L 1178 0 
L 603 0 
L 603 4863 
z
" transform="scale(0.015625)"/>
       <path id="DejaVuSans-6f" d="M 1959 3097 
Q 1497 3097 1228 2736 
Q 959 2375 959 1747 
Q 959 1119 1226 758 
Q 1494 397 1959 397 
Q 2419 397 2687 759 
Q 2956 1122 2956 1747 
Q 2956 2369 2687 2733 
Q 2419 3097 1959 3097 
z
M 1959 3584 
Q 2709 3584 3137 3096 
Q 3566 2609 3566 1747 
Q 3566 888 3137 398 
Q 2709 -91 1959 -91 
Q 1206 -91 779 398 
Q 353 888 353 1747 
Q 353 2609 779 3096 
Q 1206 3584 1959 3584 
z
" transform="scale(0.015625)"/>
       <path id="DejaVuSans-67" d="M 2906 1791 
Q 2906 2416 2648 2759 
Q 2391 3103 1925 3103 
Q 1463 3103 1205 2759 
Q 947 2416 947 1791 
Q 947 1169 1205 825 
Q 1463 481 1925 481 
Q 2391 481 2648 825 
Q 2906 1169 2906 1791 
z
M 3481 434 
Q 3481 -459 3084 -895 
Q 2688 -1331 1869 -1331 
Q 1566 -1331 1297 -1286 
Q 1028 -1241 775 -1147 
L 775 -588 
Q 1028 -725 1275 -790 
Q 1522 -856 1778 -856 
Q 2344 -856 2625 -561 
Q 2906 -266 2906 331 
L 2906 616 
Q 2728 306 2450 153 
Q 2172 0 1784 0 
Q 1141 0 747 490 
Q 353 981 353 1791 
Q 353 2603 747 3093 
Q 1141 3584 1784 3584 
Q 2172 3584 2450 3431 
Q 2728 3278 2906 2969 
L 2906 3500 
L 3481 3500 
L 3481 434 
z
" transform="scale(0.015625)"/>
       <path id="DejaVuSans-31" d="M 794 531 
L 1825 531 
L 1825 4091 
L 703 3866 
L 703 4441 
L 1819 4666 
L 2450 4666 
L 2450 531 
L 3481 531 
L 3481 0 
L 794 0 
L 794 531 
z
" transform="scale(0.015625)"/>
       <path id="DejaVuSans-28" d="M 1984 4856 
Q 1566 4138 1362 3434 
Q 1159 2731 1159 2009 
Q 1159 1288 1364 580 
Q 1569 -128 1984 -844 
L 1484 -844 
Q 1016 -109 783 600 
Q 550 1309 550 2009 
Q 550 2706 781 3412 
Q 1013 4119 1484 4856 
L 1984 4856 
z
" transform="scale(0.015625)"/>
       <path id="DejaVuSans-23" d="M 3272 2816 
L 2363 2816 
L 2100 1772 
L 3016 1772 
L 3272 2816 
z
M 2803 4594 
L 2478 3297 
L 3391 3297 
L 3719 4594 
L 4219 4594 
L 3897 3297 
L 4872 3297 
L 4872 2816 
L 3775 2816 
L 3519 1772 
L 4513 1772 
L 4513 1294 
L 3397 1294 
L 3072 0 
L 2572 0 
L 2894 1294 
L 1978 1294 
L 1656 0 
L 1153 0 
L 1478 1294 
L 494 1294 
L 494 1772 
L 1594 1772 
L 1856 2816 
L 850 2816 
L 850 3297 
L 1978 3297 
L 2297 4594 
L 2803 4594 
z
" transform="scale(0.015625)"/>
       <path id="DejaVuSans-20" transform="scale(0.015625)"/>
       <path id="DejaVuSans-66" d="M 2375 4863 
L 2375 4384 
L 1825 4384 
Q 1516 4384 1395 4259 
Q 1275 4134 1275 3809 
L 1275 3500 
L 2222 3500 
L 2222 3053 
L 1275 3053 
L 1275 0 
L 697 0 
L 697 3053 
L 147 3053 
L 147 3500 
L 697 3500 
L 697 3744 
Q 697 4328 969 4595 
Q 1241 4863 1831 4863 
L 2375 4863 
z
" transform="scale(0.015625)"/>
       <path id="DejaVuSans-2d" d="M 313 2009 
L 1997 2009 
L 1997 1497 
L 313 1497 
L 313 2009 
z
" transform="scale(0.015625)"/>
       <path id="DejaVuSans-65" d="M 3597 1894 
L 3597 1613 
L 953 1613 
Q 991 1019 1311 708 
Q 1631 397 2203 397 
Q 2534 397 2845 478 
Q 3156 559 3463 722 
L 3463 178 
Q 3153 47 2828 -22 
Q 2503 -91 2169 -91 
Q 1331 -91 842 396 
Q 353 884 353 1716 
Q 353 2575 817 3079 
Q 1281 3584 2069 3584 
Q 2775 3584 3186 3129 
Q 3597 2675 3597 1894 
z
M 3022 2063 
Q 3016 2534 2758 2815 
Q 2500 3097 2075 3097 
Q 1594 3097 1305 2825 
Q 1016 2553 972 2059 
L 3022 2063 
z
" transform="scale(0.015625)"/>
       <path id="DejaVuSans-76" d="M 191 3500 
L 800 3500 
L 1894 563 
L 2988 3500 
L 3597 3500 
L 2284 0 
L 1503 0 
L 191 3500 
z
" transform="scale(0.015625)"/>
       <path id="DejaVuSans-61" d="M 2194 1759 
Q 1497 1759 1228 1600 
Q 959 1441 959 1056 
Q 959 750 1161 570 
Q 1363 391 1709 391 
Q 2188 391 2477 730 
Q 2766 1069 2766 1631 
L 2766 1759 
L 2194 1759 
z
M 3341 1997 
L 3341 0 
L 2766 0 
L 2766 531 
Q 2569 213 2275 61 
Q 1981 -91 1556 -91 
Q 1019 -91 701 211 
Q 384 513 384 1019 
Q 384 1609 779 1909 
Q 1175 2209 1959 2209 
L 2766 2209 
L 2766 2266 
Q 2766 2663 2505 2880 
Q 2244 3097 1772 3097 
Q 1472 3097 1187 3025 
Q 903 2953 641 2809 
L 641 3341 
Q 956 3463 1253 3523 
Q 1550 3584 1831 3584 
Q 2591 3584 2966 3190 
Q 3341 2797 3341 1997 
z
" transform="scale(0.015625)"/>
       <path id="DejaVuSans-73" d="M 2834 3397 
L 2834 2853 
Q 2591 2978 2328 3040 
Q 2066 3103 1784 3103 
Q 1356 3103 1142 2972 
Q 928 2841 928 2578 
Q 928 2378 1081 2264 
Q 1234 2150 1697 2047 
L 1894 2003 
Q 2506 1872 2764 1633 
Q 3022 1394 3022 966 
Q 3022 478 2636 193 
Q 2250 -91 1575 -91 
Q 1294 -91 989 -36 
Q 684 19 347 128 
L 347 722 
Q 666 556 975 473 
Q 1284 391 1588 391 
Q 1994 391 2212 530 
Q 2431 669 2431 922 
Q 2431 1156 2273 1281 
Q 2116 1406 1581 1522 
L 1381 1569 
Q 847 1681 609 1914 
Q 372 2147 372 2553 
Q 372 3047 722 3315 
Q 1072 3584 1716 3584 
Q 2034 3584 2315 3537 
Q 2597 3491 2834 3397 
z
" transform="scale(0.015625)"/>
       <path id="DejaVuSans-2f" d="M 1625 4666 
L 2156 4666 
L 531 -594 
L 0 -594 
L 1625 4666 
z
" transform="scale(0.015625)"/>
       <path id="DejaVuSans-64" d="M 2906 2969 
L 2906 4863 
L 3481 4863 
L 3481 0 
L 2906 0 
L 2906 525 
Q 2725 213 2448 61 
Q 2172 -91 1784 -91 
Q 1150 -91 751 415 
Q 353 922 353 1747 
Q 353 2572 751 3078 
Q 1150 3584 1784 3584 
Q 2172 3584 2448 3432 
Q 2725 3281 2906 2969 
z
M 947 1747 
Q 947 1113 1208 752 
Q 1469 391 1925 391 
Q 2381 391 2643 752 
Q 2906 1113 2906 1747 
Q 2906 2381 2643 2742 
Q 2381 3103 1925 3103 
Q 1469 3103 1208 2742 
Q 947 2381 947 1747 
z
" transform="scale(0.015625)"/>
       <path id="DejaVuSans-69" d="M 603 3500 
L 1178 3500 
L 1178 0 
L 603 0 
L 603 3500 
z
M 603 4863 
L 1178 4863 
L 1178 4134 
L 603 4134 
L 603 4863 
z
" transform="scale(0.015625)"/>
       <path id="DejaVuSans-6d" d="M 3328 2828 
Q 3544 3216 3844 3400 
Q 4144 3584 4550 3584 
Q 5097 3584 5394 3201 
Q 5691 2819 5691 2113 
L 5691 0 
L 5113 0 
L 5113 2094 
Q 5113 2597 4934 2840 
Q 4756 3084 4391 3084 
Q 3944 3084 3684 2787 
Q 3425 2491 3425 1978 
L 3425 0 
L 2847 0 
L 2847 2094 
Q 2847 2600 2669 2842 
Q 2491 3084 2119 3084 
Q 1678 3084 1418 2786 
Q 1159 2488 1159 1978 
L 1159 0 
L 581 0 
L 581 3500 
L 1159 3500 
L 1159 2956 
Q 1356 3278 1631 3431 
Q 1906 3584 2284 3584 
Q 2666 3584 2933 3390 
Q 3200 3197 3328 2828 
z
" transform="scale(0.015625)"/>
       <path id="DejaVuSans-6e" d="M 3513 2113 
L 3513 0 
L 2938 0 
L 2938 2094 
Q 2938 2591 2744 2837 
Q 2550 3084 2163 3084 
Q 1697 3084 1428 2787 
Q 1159 2491 1159 1978 
L 1159 0 
L 581 0 
L 581 3500 
L 1159 3500 
L 1159 2956 
Q 1366 3272 1645 3428 
Q 1925 3584 2291 3584 
Q 2894 3584 3203 3211 
Q 3513 2838 3513 2113 
z
" transform="scale(0.015625)"/>
       <path id="DejaVuSans-29" d="M 513 4856 
L 1013 4856 
Q 1481 4119 1714 3412 
Q 1947 2706 1947 2009 
Q 1947 1309 1714 600 
Q 1481 -109 1013 -844 
L 513 -844 
Q 928 -128 1133 580 
Q 1338 1288 1338 2009 
Q 1338 2731 1133 3434 
Q 928 4138 513 4856 
z
" transform="scale(0.015625)"/>
      </defs>
      <use xlink:href="#DejaVuSans-6c"/>
      <use xlink:href="#DejaVuSans-6f" x="27.783203"/>
      <use xlink:href="#DejaVuSans-67" x="88.964844"/>
      <use xlink:href="#DejaVuSans-31" x="152.441406"/>
      <use xlink:href="#DejaVuSans-30" x="216.064453"/>
      <use xlink:href="#DejaVuSans-28" x="279.6875"/>
      <use xlink:href="#DejaVuSans-23" x="318.701172"/>
      <use xlink:href="#DejaVuSans-20" x="402.490234"/>
      <use xlink:href="#DejaVuSans-66" x="434.277344"/>
      <use xlink:href="#DejaVuSans-2d" x="463.982422"/>
      <use xlink:href="#DejaVuSans-65" x="500.066406"/>
      <use xlink:href="#DejaVuSans-76" x="561.589844"/>
      <use xlink:href="#DejaVuSans-61" x="620.769531"/>
      <use xlink:href="#DejaVuSans-6c" x="682.048828"/>
      <use xlink:href="#DejaVuSans-73" x="709.832031"/>
      <use xlink:href="#DejaVuSans-20" x="761.931641"/>
      <use xlink:href="#DejaVuSans-2f" x="793.71875"/>
      <use xlink:href="#DejaVuSans-20" x="827.410156"/>
      <use xlink:href="#DejaVuSans-64" x="859.197266"/>
      <use xlink:href="#DejaVuSans-69" x="922.673828"/>
      <use xlink:href="#DejaVuSans-6d" x="950.457031"/>
      <use xlink:href="#DejaVuSans-65" x="1047.869141"/>
      <use xlink:href="#DejaVuSans-6e" x="1109.392578"/>
      <use xlink:href="#DejaVuSans-73" x="1172.771484"/>
      <use xlink:href="#DejaVuSans-69" x="1224.871094"/>
      <use xlink:href="#DejaVuSans-6f" x="1252.654297"/>
      <use xlink:href="#DejaVuSans-6e" x="1313.835938"/>
      <use xlink:href="#DejaVuSans-29" x="1377.214844"/>
     </g>
    </g>
   </g>
   <g id="matplotlib.axis_2">
    <g id="ytick_1">
     <g id="line2d_21">
      <path d="M 57.6 298.944 
L 360.8064 298.944 
" clip-path="url(#p9f5ae5baa8)" style="fill: none; stroke: #b0b0b0; stroke-width: 0.8; stroke-linecap: square"/>
     </g>
     <g id="line2d_22">
      <defs>
       <path id="m53de4f850e" d="M 0 0 
L -3.5 0 
" style="stroke: #000000; stroke-width: 0.8"/>
      </defs>
      <g>
       <use xlink:href="#m53de4f850e" x="57.6" y="298.944" style="stroke: #000000; stroke-width: 0.8"/>
      </g>
     </g>
     <g id="text_6">
      <!-- 0.0 -->
      <g transform="translate(25.155 305.02275)scale(0.16 -0.16)">
       <defs>
        <path id="DejaVuSans-2e" d="M 684 794 
L 1344 794 
L 1344 0 
L 684 0 
L 684 794 
z
" transform="scale(0.015625)"/>
       </defs>
       <use xlink:href="#DejaVuSans-30"/>
       <use xlink:href="#DejaVuSans-2e" x="63.623047"/>
       <use xlink:href="#DejaVuSans-30" x="95.410156"/>
      </g>
     </g>
    </g>
    <g id="ytick_2">
     <g id="line2d_23">
      <path d="M 57.6 244.6848 
L 360.8064 244.6848 
" clip-path="url(#p9f5ae5baa8)" style="fill: none; stroke: #b0b0b0; stroke-width: 0.8; stroke-linecap: square"/>
     </g>
     <g id="line2d_24">
      <g>
       <use xlink:href="#m53de4f850e" x="57.6" y="244.6848" style="stroke: #000000; stroke-width: 0.8"/>
      </g>
     </g>
     <g id="text_7">
      <!-- 0.2 -->
      <g transform="translate(25.155 250.76355)scale(0.16 -0.16)">
       <use xlink:href="#DejaVuSans-30"/>
       <use xlink:href="#DejaVuSans-2e" x="63.623047"/>
       <use xlink:href="#DejaVuSans-32" x="95.410156"/>
      </g>
     </g>
    </g>
    <g id="ytick_3">
     <g id="line2d_25">
      <path d="M 57.6 190.4256 
L 360.8064 190.4256 
" clip-path="url(#p9f5ae5baa8)" style="fill: none; stroke: #b0b0b0; stroke-width: 0.8; stroke-linecap: square"/>
     </g>
     <g id="line2d_26">
      <g>
       <use xlink:href="#m53de4f850e" x="57.6" y="190.4256" style="stroke: #000000; stroke-width: 0.8"/>
      </g>
     </g>
     <g id="text_8">
      <!-- 0.4 -->
      <g transform="translate(25.155 196.50435)scale(0.16 -0.16)">
       <use xlink:href="#DejaVuSans-30"/>
       <use xlink:href="#DejaVuSans-2e" x="63.623047"/>
       <use xlink:href="#DejaVuSans-34" x="95.410156"/>
      </g>
     </g>
    </g>
    <g id="ytick_4">
     <g id="line2d_27">
      <path d="M 57.6 136.1664 
L 360.8064 136.1664 
" clip-path="url(#p9f5ae5baa8)" style="fill: none; stroke: #b0b0b0; stroke-width: 0.8; stroke-linecap: square"/>
     </g>
     <g id="line2d_28">
      <g>
       <use xlink:href="#m53de4f850e" x="57.6" y="136.1664" style="stroke: #000000; stroke-width: 0.8"/>
      </g>
     </g>
     <g id="text_9">
      <!-- 0.6 -->
      <g transform="translate(25.155 142.24515)scale(0.16 -0.16)">
       <use xlink:href="#DejaVuSans-30"/>
       <use xlink:href="#DejaVuSans-2e" x="63.623047"/>
       <use xlink:href="#DejaVuSans-36" x="95.410156"/>
      </g>
     </g>
    </g>
    <g id="ytick_5">
     <g id="line2d_29">
      <path d="M 57.6 81.9072 
L 360.8064 81.9072 
" clip-path="url(#p9f5ae5baa8)" style="fill: none; stroke: #b0b0b0; stroke-width: 0.8; stroke-linecap: square"/>
     </g>
     <g id="line2d_30">
      <g>
       <use xlink:href="#m53de4f850e" x="57.6" y="81.9072" style="stroke: #000000; stroke-width: 0.8"/>
      </g>
     </g>
     <g id="text_10">
      <!-- 0.8 -->
      <g transform="translate(25.155 87.98595)scale(0.16 -0.16)">
       <defs>
        <path id="DejaVuSans-38" d="M 2034 2216 
Q 1584 2216 1326 1975 
Q 1069 1734 1069 1313 
Q 1069 891 1326 650 
Q 1584 409 2034 409 
Q 2484 409 2743 651 
Q 3003 894 3003 1313 
Q 3003 1734 2745 1975 
Q 2488 2216 2034 2216 
z
M 1403 2484 
Q 997 2584 770 2862 
Q 544 3141 544 3541 
Q 544 4100 942 4425 
Q 1341 4750 2034 4750 
Q 2731 4750 3128 4425 
Q 3525 4100 3525 3541 
Q 3525 3141 3298 2862 
Q 3072 2584 2669 2484 
Q 3125 2378 3379 2068 
Q 3634 1759 3634 1313 
Q 3634 634 3220 271 
Q 2806 -91 2034 -91 
Q 1263 -91 848 271 
Q 434 634 434 1313 
Q 434 1759 690 2068 
Q 947 2378 1403 2484 
z
M 1172 3481 
Q 1172 3119 1398 2916 
Q 1625 2713 2034 2713 
Q 2441 2713 2670 2916 
Q 2900 3119 2900 3481 
Q 2900 3844 2670 4047 
Q 2441 4250 2034 4250 
Q 1625 4250 1398 4047 
Q 1172 3844 1172 3481 
z
" transform="scale(0.015625)"/>
       </defs>
       <use xlink:href="#DejaVuSans-30"/>
       <use xlink:href="#DejaVuSans-2e" x="63.623047"/>
       <use xlink:href="#DejaVuSans-38" x="95.410156"/>
      </g>
     </g>
    </g>
    <g id="ytick_6">
     <g id="line2d_31">
      <path d="M 57.6 27.648 
L 360.8064 27.648 
" clip-path="url(#p9f5ae5baa8)" style="fill: none; stroke: #b0b0b0; stroke-width: 0.8; stroke-linecap: square"/>
     </g>
     <g id="line2d_32">
      <g>
       <use xlink:href="#m53de4f850e" x="57.6" y="27.648" style="stroke: #000000; stroke-width: 0.8"/>
      </g>
     </g>
     <g id="text_11">
      <!-- 1.0 -->
      <g transform="translate(25.155 33.72675)scale(0.16 -0.16)">
       <use xlink:href="#DejaVuSans-31"/>
       <use xlink:href="#DejaVuSans-2e" x="63.623047"/>
       <use xlink:href="#DejaVuSans-30" x="95.410156"/>
      </g>
     </g>
    </g>
    <g id="text_12">
     <!-- Fraction of function,target pairs -->
     <g transform="translate(17.619531 297.681)rotate(-90)scale(0.17 -0.17)">
      <defs>
       <path id="DejaVuSans-46" d="M 628 4666 
L 3309 4666 
L 3309 4134 
L 1259 4134 
L 1259 2759 
L 3109 2759 
L 3109 2228 
L 1259 2228 
L 1259 0 
L 628 0 
L 628 4666 
z
" transform="scale(0.015625)"/>
       <path id="DejaVuSans-72" d="M 2631 2963 
Q 2534 3019 2420 3045 
Q 2306 3072 2169 3072 
Q 1681 3072 1420 2755 
Q 1159 2438 1159 1844 
L 1159 0 
L 581 0 
L 581 3500 
L 1159 3500 
L 1159 2956 
Q 1341 3275 1631 3429 
Q 1922 3584 2338 3584 
Q 2397 3584 2469 3576 
Q 2541 3569 2628 3553 
L 2631 2963 
z
" transform="scale(0.015625)"/>
       <path id="DejaVuSans-63" d="M 3122 3366 
L 3122 2828 
Q 2878 2963 2633 3030 
Q 2388 3097 2138 3097 
Q 1578 3097 1268 2742 
Q 959 2388 959 1747 
Q 959 1106 1268 751 
Q 1578 397 2138 397 
Q 2388 397 2633 464 
Q 2878 531 3122 666 
L 3122 134 
Q 2881 22 2623 -34 
Q 2366 -91 2075 -91 
Q 1284 -91 818 406 
Q 353 903 353 1747 
Q 353 2603 823 3093 
Q 1294 3584 2113 3584 
Q 2378 3584 2631 3529 
Q 2884 3475 3122 3366 
z
" transform="scale(0.015625)"/>
       <path id="DejaVuSans-74" d="M 1172 4494 
L 1172 3500 
L 2356 3500 
L 2356 3053 
L 1172 3053 
L 1172 1153 
Q 1172 725 1289 603 
Q 1406 481 1766 481 
L 2356 481 
L 2356 0 
L 1766 0 
Q 1100 0 847 248 
Q 594 497 594 1153 
L 594 3053 
L 172 3053 
L 172 3500 
L 594 3500 
L 594 4494 
L 1172 4494 
z
" transform="scale(0.015625)"/>
       <path id="DejaVuSans-75" d="M 544 1381 
L 544 3500 
L 1119 3500 
L 1119 1403 
Q 1119 906 1312 657 
Q 1506 409 1894 409 
Q 2359 409 2629 706 
Q 2900 1003 2900 1516 
L 2900 3500 
L 3475 3500 
L 3475 0 
L 2900 0 
L 2900 538 
Q 2691 219 2414 64 
Q 2138 -91 1772 -91 
Q 1169 -91 856 284 
Q 544 659 544 1381 
z
M 1991 3584 
L 1991 3584 
z
" transform="scale(0.015625)"/>
       <path id="DejaVuSans-2c" d="M 750 794 
L 1409 794 
L 1409 256 
L 897 -744 
L 494 -744 
L 750 256 
L 750 794 
z
" transform="scale(0.015625)"/>
       <path id="DejaVuSans-70" d="M 1159 525 
L 1159 -1331 
L 581 -1331 
L 581 3500 
L 1159 3500 
L 1159 2969 
Q 1341 3281 1617 3432 
Q 1894 3584 2278 3584 
Q 2916 3584 3314 3078 
Q 3713 2572 3713 1747 
Q 3713 922 3314 415 
Q 2916 -91 2278 -91 
Q 1894 -91 1617 61 
Q 1341 213 1159 525 
z
M 3116 1747 
Q 3116 2381 2855 2742 
Q 2594 3103 2138 3103 
Q 1681 3103 1420 2742 
Q 1159 2381 1159 1747 
Q 1159 1113 1420 752 
Q 1681 391 2138 391 
Q 2594 391 2855 752 
Q 3116 1113 3116 1747 
z
" transform="scale(0.015625)"/>
      </defs>
      <use xlink:href="#DejaVuSans-46"/>
      <use xlink:href="#DejaVuSans-72" x="50.269531"/>
      <use xlink:href="#DejaVuSans-61" x="91.382812"/>
      <use xlink:href="#DejaVuSans-63" x="152.662109"/>
      <use xlink:href="#DejaVuSans-74" x="207.642578"/>
      <use xlink:href="#DejaVuSans-69" x="246.851562"/>
      <use xlink:href="#DejaVuSans-6f" x="274.634766"/>
      <use xlink:href="#DejaVuSans-6e" x="335.816406"/>
      <use xlink:href="#DejaVuSans-20" x="399.195312"/>
      <use xlink:href="#DejaVuSans-6f" x="430.982422"/>
      <use xlink:href="#DejaVuSans-66" x="492.164062"/>
      <use xlink:href="#DejaVuSans-20" x="527.369141"/>
      <use xlink:href="#DejaVuSans-66" x="559.15625"/>
      <use xlink:href="#DejaVuSans-75" x="594.361328"/>
      <use xlink:href="#DejaVuSans-6e" x="657.740234"/>
      <use xlink:href="#DejaVuSans-63" x="721.119141"/>
      <use xlink:href="#DejaVuSans-74" x="776.099609"/>
      <use xlink:href="#DejaVuSans-69" x="815.308594"/>
      <use xlink:href="#DejaVuSans-6f" x="843.091797"/>
      <use xlink:href="#DejaVuSans-6e" x="904.273438"/>
      <use xlink:href="#DejaVuSans-2c" x="967.652344"/>
      <use xlink:href="#DejaVuSans-74" x="999.439453"/>
      <use xlink:href="#DejaVuSans-61" x="1038.648438"/>
      <use xlink:href="#DejaVuSans-72" x="1099.927734"/>
      <use xlink:href="#DejaVuSans-67" x="1139.291016"/>
      <use xlink:href="#DejaVuSans-65" x="1202.767578"/>
      <use xlink:href="#DejaVuSans-74" x="1264.291016"/>
      <use xlink:href="#DejaVuSans-20" x="1303.5"/>
      <use xlink:href="#DejaVuSans-70" x="1335.287109"/>
      <use xlink:href="#DejaVuSans-61" x="1398.763672"/>
      <use xlink:href="#DejaVuSans-69" x="1460.042969"/>
      <use xlink:href="#DejaVuSans-72" x="1487.826172"/>
      <use xlink:href="#DejaVuSans-73" x="1528.939453"/>
     </g>
    </g>
   </g>
   <g id="line2d_33">
    <defs>
     <path id="m02cd68c2fa" d="M 0 1.5 
C 0.397805 1.5 0.77937 1.341951 1.06066 1.06066 
C 1.341951 0.77937 1.5 0.397805 1.5 0 
C 1.5 -0.397805 1.341951 -0.77937 1.06066 -1.06066 
C 0.77937 -1.341951 0.397805 -1.5 0 -1.5 
C -0.397805 -1.5 -0.77937 -1.341951 -1.06066 -1.06066 
C -1.341951 -0.77937 -1.5 -0.397805 -1.5 0 
C -1.5 0.397805 -1.341951 0.77937 -1.06066 1.06066 
C -0.77937 1.341951 -0.397805 1.5 0 1.5 
z
" style="stroke: #f5deb3"/>
    </defs>
    <g>
     <use xlink:href="#m02cd68c2fa" x="162.370732" y="27.648" style="fill: #f5deb3; stroke: #f5deb3"/>
     <use xlink:href="#m02cd68c2fa" x="162.370732" y="27.648" style="fill: #f5deb3; stroke: #f5deb3"/>
    </g>
   </g>
   <g id="line2d_34">
    <defs>
     <path id="mf38c52baea" d="M 0 1.5 
C 0.397805 1.5 0.77937 1.341951 1.06066 1.06066 
C 1.341951 0.77937 1.5 0.397805 1.5 0 
C 1.5 -0.397805 1.341951 -0.77937 1.06066 -1.06066 
C 0.77937 -1.341951 0.397805 -1.5 0 -1.5 
C -0.397805 -1.5 -0.77937 -1.341951 -1.06066 -1.06066 
C -1.341951 -0.77937 -1.5 -0.397805 -1.5 0 
C -1.5 0.397805 -1.341951 0.77937 -1.06066 1.06066 
C -0.77937 1.341951 -0.397805 1.5 0 1.5 
z
" style="stroke: #000080"/>
    </defs>
    <g>
     <use xlink:href="#mf38c52baea" x="298.104277" y="27.648" style="fill: #000080; stroke: #000080"/>
     <use xlink:href="#mf38c52baea" x="298.104277" y="27.648" style="fill: #000080; stroke: #000080"/>
    </g>
   </g>
   <g id="line2d_35">
    <path d="M 132.001241 298.944 
L 132.001241 298.589365 
L 132.46399 298.589365 
L 132.46399 297.880094 
L 133.556801 297.880094 
L 133.556801 297.525459 
L 134.368469 297.525459 
L 134.368469 297.170824 
L 134.652304 297.170824 
L 134.7148 296.461553 
L 135.237805 296.461553 
L 135.237805 296.106918 
L 135.628162 296.106918 
L 135.687504 295.043012 
L 136.270855 295.043012 
L 136.270855 294.688376 
L 137.003134 294.688376 
L 137.003134 293.979106 
L 137.140746 293.979106 
L 137.140746 293.624471 
L 137.304564 293.624471 
L 137.304564 293.269835 
L 137.439996 293.269835 
L 137.520791 292.205929 
L 137.893309 292.205929 
L 137.998402 291.496659 
L 138.438609 291.496659 
L 138.438609 291.142024 
L 139.362521 291.142024 
L 139.362521 290.787388 
L 139.580558 290.787388 
L 139.604629 290.078118 
L 139.985636 290.078118 
L 139.985636 289.723482 
L 144.173881 289.723482 
L 144.173881 289.368847 
L 145.712961 289.368847 
L 145.712961 289.014212 
L 146.859539 289.014212 
L 146.924857 288.304941 
L 148.185734 288.304941 
L 148.185734 287.595671 
L 148.563035 287.595671 
L 148.563035 287.241035 
L 148.947561 287.241035 
L 148.947561 286.8864 
L 149.453084 286.8864 
L 149.453084 286.531765 
L 149.79204 286.531765 
L 149.79204 285.822494 
L 150.72052 285.822494 
L 150.72052 285.467859 
L 151.464982 285.467859 
L 151.464982 285.113224 
L 151.656094 285.113224 
L 151.656094 284.758588 
L 152.094611 284.758588 
L 152.094611 284.403953 
L 154.497869 284.403953 
L 154.497869 284.049318 
L 155.035072 284.049318 
L 155.035072 283.694682 
L 155.904407 283.694682 
L 155.904407 283.340047 
L 157.222487 283.340047 
L 157.222487 282.985412 
L 158.436556 282.985412 
L 158.436556 282.630776 
L 159.808529 282.630776 
L 159.808529 282.276141 
L 162.520739 282.276141 
L 162.520739 281.921506 
L 163.552052 281.921506 
L 163.552052 281.566871 
L 163.978243 281.566871 
L 164.017708 280.8576 
L 164.427166 280.8576 
L 164.427166 280.502965 
L 165.146166 280.502965 
L 165.146166 280.148329 
L 166.05809 280.148329 
L 166.05809 279.793694 
L 166.655701 279.793694 
L 166.655701 279.439059 
L 167.034489 279.439059 
L 167.034489 279.084424 
L 167.16834 279.084424 
L 167.16834 278.729788 
L 168.100708 278.729788 
L 168.15352 278.020518 
L 170.411929 278.020518 
L 170.411929 277.665882 
L 171.042029 277.665882 
L 171.042029 277.311247 
L 173.177632 277.311247 
L 173.189742 276.601976 
L 174.544011 276.601976 
L 174.544011 276.247341 
L 174.674972 276.247341 
L 174.674972 275.892706 
L 175.22251 275.892706 
L 175.22251 275.538071 
L 175.662797 275.538071 
L 175.662797 275.183435 
L 176.340357 275.183435 
L 176.340357 274.8288 
L 176.84544 274.8288 
L 176.84544 274.474165 
L 177.230202 274.474165 
L 177.230202 274.119529 
L 177.504875 274.119529 
L 177.504875 273.764894 
L 178.026881 273.764894 
L 178.026881 273.410259 
L 178.874886 273.410259 
L 178.874886 273.055624 
L 179.366508 273.055624 
L 179.366508 272.700988 
L 179.712 272.700988 
L 179.712 272.346353 
L 180.513445 272.346353 
L 180.513445 271.991718 
L 183.156486 271.991718 
L 183.156486 271.637082 
L 183.434726 271.637082 
L 183.434726 271.282447 
L 184.828311 271.282447 
L 184.828311 270.927812 
L 185.283538 270.927812 
L 185.283538 270.573176 
L 185.944318 270.573176 
L 185.944318 270.218541 
L 186.38763 270.218541 
L 186.38763 269.863906 
L 186.566827 269.863906 
L 186.566827 269.509271 
L 186.803132 269.509271 
L 186.803132 269.154635 
L 188.077889 269.154635 
L 188.138139 268.445365 
L 189.439161 268.445365 
L 189.439161 268.090729 
L 189.91781 268.090729 
L 189.91781 267.736094 
L 190.287271 267.736094 
L 190.287271 267.381459 
L 190.843208 267.381459 
L 190.934549 266.672188 
L 193.677957 266.672188 
L 193.677957 266.317553 
L 194.194916 266.317553 
L 194.194916 265.962918 
L 194.308183 265.962918 
L 194.308183 265.608282 
L 194.842826 265.608282 
L 194.842826 265.253647 
L 195.303005 265.253647 
L 195.303005 264.899012 
L 195.973432 264.899012 
L 195.973432 264.544376 
L 197.009234 264.544376 
L 197.009234 264.189741 
L 197.155399 264.189741 
L 197.155399 263.835106 
L 197.340714 263.835106 
L 197.340714 263.480471 
L 197.921744 263.480471 
L 197.921744 263.125835 
L 198.590234 263.125835 
L 198.590234 262.7712 
L 198.810644 262.7712 
L 198.810644 262.416565 
L 199.090722 262.416565 
L 199.187215 261.707294 
L 200.19417 261.707294 
L 200.19417 261.352659 
L 201.066708 261.352659 
L 201.066708 260.998024 
L 201.642709 260.998024 
L 201.642709 260.643388 
L 202.410172 260.643388 
L 202.410172 260.288753 
L 203.77393 260.288753 
L 203.77393 259.934118 
L 204.333947 259.934118 
L 204.333947 259.579482 
L 204.446122 259.579482 
L 204.446122 259.224847 
L 204.692694 259.224847 
L 204.692694 258.870212 
L 205.650039 258.870212 
L 205.650039 258.515576 
L 206.822071 258.515576 
L 206.822071 258.160941 
L 206.937168 258.160941 
L 206.937168 257.806306 
L 207.288175 257.806306 
L 207.288175 257.451671 
L 207.835357 257.451671 
L 207.940619 256.387765 
L 208.017439 256.387765 
L 208.017439 256.033129 
L 208.592096 256.033129 
L 208.592096 255.678494 
L 208.758506 255.678494 
L 208.758506 255.323859 
L 209.812042 255.323859 
L 209.812042 254.969224 
L 209.983461 254.969224 
L 209.983461 254.614588 
L 210.557307 254.614588 
L 210.557307 254.259953 
L 210.958209 254.259953 
L 210.958209 253.905318 
L 211.570229 253.905318 
L 211.570229 253.550682 
L 212.330956 253.550682 
L 212.330956 253.196047 
L 213.027678 253.196047 
L 213.099869 252.486776 
L 213.541468 252.486776 
L 213.578747 251.777506 
L 213.902173 251.777506 
L 213.902173 251.422871 
L 214.064582 251.422871 
L 214.064582 251.068235 
L 214.396087 251.068235 
L 214.418643 250.358965 
L 215.296359 250.358965 
L 215.296359 250.004329 
L 215.557017 250.004329 
L 215.557017 249.649694 
L 215.696117 249.649694 
L 215.696117 249.295059 
L 215.965871 249.295059 
L 215.965871 248.940424 
L 216.802384 248.940424 
L 216.865826 248.231153 
L 217.152203 248.231153 
L 217.247089 247.167247 
L 217.357317 247.167247 
L 217.357317 246.812612 
L 217.492572 246.812612 
L 217.492572 246.457976 
L 217.64472 246.457976 
L 217.64472 246.103341 
L 217.978609 246.103341 
L 218.069427 245.039435 
L 218.244609 245.039435 
L 218.285398 244.330165 
L 218.836298 244.330165 
L 218.836298 243.975529 
L 219.130922 243.975529 
L 219.130922 243.620894 
L 220.047672 243.620894 
L 220.078397 242.911624 
L 220.237232 242.911624 
L 220.237232 242.556988 
L 220.426867 242.556988 
L 220.426867 242.202353 
L 220.557767 242.202353 
L 220.557767 241.847718 
L 220.920218 241.847718 
L 220.973749 240.783812 
L 221.100595 240.783812 
L 221.170313 240.074541 
L 221.286772 240.074541 
L 221.286772 239.719906 
L 221.673625 239.719906 
L 221.673625 239.365271 
L 221.942696 239.365271 
L 221.942696 239.010635 
L 222.068299 239.010635 
L 222.068299 238.656 
L 222.282915 238.656 
L 222.282915 238.301365 
L 222.45045 238.301365 
L 222.51271 237.592094 
L 222.784 237.592094 
L 222.784 237.237459 
L 223.12338 237.237459 
L 223.171852 236.173553 
L 223.306688 236.173553 
L 223.306688 235.818918 
L 223.450051 235.818918 
L 223.548538 234.400376 
L 223.768678 234.400376 
L 223.875063 232.981835 
L 223.965657 232.981835 
L 223.988983 232.272565 
L 224.472527 232.272565 
L 224.472527 231.917929 
L 224.961206 231.917929 
L 225.063122 230.854024 
L 225.338368 230.854024 
L 225.44228 229.790118 
L 225.520902 229.790118 
L 225.520902 229.435482 
L 225.694999 229.435482 
L 225.726907 228.371576 
L 225.884663 228.371576 
L 225.884663 228.016941 
L 226.072434 228.016941 
L 226.099833 226.953035 
L 226.538082 226.953035 
L 226.575209 226.243765 
L 227.344542 226.243765 
L 227.344542 225.889129 
L 227.457366 225.889129 
L 227.551582 224.825224 
L 227.743051 224.825224 
L 227.743051 224.470588 
L 227.953899 224.470588 
L 227.97321 223.761318 
L 228.127202 223.761318 
L 228.127202 223.406682 
L 228.312068 223.406682 
L 228.420965 222.342776 
L 228.65847 222.342776 
L 228.74603 220.924235 
L 228.828364 220.924235 
L 228.89176 220.214965 
L 229.113524 220.214965 
L 229.181522 219.505694 
L 229.520092 219.505694 
L 229.561056 218.796424 
L 229.677606 218.796424 
L 229.767737 217.732518 
L 229.867159 217.732518 
L 229.92142 216.668612 
L 230.029672 216.668612 
L 230.029672 216.313976 
L 230.192157 216.313976 
L 230.192157 215.959341 
L 230.456362 215.959341 
L 230.534044 215.250071 
L 230.687692 215.250071 
L 230.687692 214.895435 
L 230.855344 214.895435 
L 230.855344 214.5408 
L 231.031957 214.5408 
L 231.10656 213.122259 
L 231.252489 213.122259 
L 231.299963 212.058353 
L 231.396015 212.058353 
L 231.408809 211.349082 
L 231.598241 211.349082 
L 231.6407 209.930541 
L 231.736649 209.930541 
L 231.736649 209.575906 
L 232.477103 209.575906 
L 232.477103 209.221271 
L 232.593439 209.221271 
L 232.686709 208.512 
L 232.850732 208.512 
L 232.851409 207.802729 
L 233.218411 207.802729 
L 233.248757 207.093459 
L 233.37854 207.093459 
L 233.477994 206.384188 
L 233.51789 206.384188 
L 233.520503 205.674918 
L 233.725645 205.674918 
L 233.725645 205.320282 
L 234.088817 205.320282 
L 234.088817 204.965647 
L 234.28773 204.965647 
L 234.3419 204.256376 
L 234.484095 204.256376 
L 234.540334 203.547106 
L 234.605656 203.547106 
L 234.704827 202.128565 
L 234.809883 202.128565 
L 234.809883 201.773929 
L 235.013275 201.773929 
L 235.122177 201.064659 
L 235.185962 201.064659 
L 235.222548 200.355388 
L 235.320012 200.355388 
L 235.320012 200.000753 
L 235.470642 200.000753 
L 235.569614 198.227576 
L 235.776444 198.227576 
L 235.879877 197.163671 
L 236.043681 197.163671 
L 236.056387 196.4544 
L 236.186097 196.4544 
L 236.262762 195.390494 
L 236.395547 195.390494 
L 236.497592 193.617318 
L 236.55911 193.617318 
L 236.55911 193.262682 
L 236.705965 193.262682 
L 236.761034 192.553412 
L 237.026802 192.553412 
L 237.111595 191.844141 
L 237.278706 191.844141 
L 237.324923 191.134871 
L 237.412237 191.134871 
L 237.412237 190.780235 
L 237.874991 190.780235 
L 237.900628 189.716329 
L 238.134016 189.716329 
L 238.216136 189.007059 
L 238.292704 189.007059 
L 238.350779 187.943153 
L 238.421643 187.943153 
L 238.434476 187.233882 
L 238.596771 187.233882 
L 238.681368 185.460706 
L 238.740733 185.460706 
L 238.841925 184.751435 
L 239.06253 184.751435 
L 239.125676 184.042165 
L 239.189216 184.042165 
L 239.197913 183.332894 
L 239.36671 183.332894 
L 239.438506 182.268988 
L 239.772592 182.268988 
L 239.843091 180.850447 
L 239.911816 180.850447 
L 239.995229 179.786541 
L 240.078619 179.786541 
L 240.096243 179.077271 
L 240.410231 179.077271 
L 240.460438 176.949459 
L 240.711934 176.949459 
L 240.711934 176.594824 
L 240.934032 176.594824 
L 240.94317 175.885553 
L 241.10995 175.885553 
L 241.209183 174.821647 
L 241.271912 174.821647 
L 241.271912 174.467012 
L 241.483469 174.467012 
L 241.497795 173.757741 
L 241.679448 173.757741 
L 241.774571 173.048471 
L 241.919443 173.048471 
L 241.992868 171.629929 
L 242.032797 171.629929 
L 242.142375 170.920659 
L 242.164358 170.920659 
L 242.164358 170.566024 
L 242.325609 170.566024 
L 242.375143 169.502118 
L 242.47636 169.502118 
L 242.47636 169.147482 
L 242.695734 169.147482 
L 242.708665 168.438212 
L 242.831717 168.438212 
L 242.90792 166.665035 
L 242.970282 166.665035 
L 243.080639 165.955765 
L 243.130972 165.955765 
L 243.193478 164.537224 
L 243.293215 164.537224 
L 243.293215 164.182588 
L 243.421778 164.182588 
L 243.520314 162.764047 
L 243.558952 162.764047 
L 243.628741 162.054776 
L 243.694659 162.054776 
L 243.78544 160.990871 
L 243.863539 160.990871 
L 243.953886 159.572329 
L 244.148797 159.572329 
L 244.178477 158.863059 
L 244.310354 158.863059 
L 244.402158 158.153788 
L 244.422295 158.153788 
L 244.496341 157.089882 
L 244.570369 157.089882 
L 244.679334 156.025976 
L 244.788029 156.025976 
L 244.888338 154.962071 
L 244.934688 154.962071 
L 245.039532 153.898165 
L 245.254225 153.898165 
L 245.254225 153.543529 
L 245.430719 153.543529 
L 245.530083 152.479624 
L 245.579612 152.479624 
L 245.670833 150.706447 
L 245.783242 150.706447 
L 245.848059 149.287906 
L 246.090641 149.287906 
L 246.189253 148.578635 
L 246.215136 148.578635 
L 246.311775 146.805459 
L 246.371089 146.805459 
L 246.437861 145.741553 
L 246.583588 145.741553 
L 246.583588 145.386918 
L 246.777739 145.386918 
L 246.827233 144.323012 
L 246.925752 144.323012 
L 247.009014 143.259106 
L 247.053053 143.259106 
L 247.157283 141.840565 
L 247.206105 141.840565 
L 247.206105 141.485929 
L 247.438206 141.485929 
L 247.480786 139.712753 
L 247.580668 139.712753 
L 247.658623 138.648847 
L 247.938587 138.648847 
L 248.009104 137.939576 
L 248.050337 137.939576 
L 248.111566 136.875671 
L 248.189228 136.875671 
L 248.22708 135.811765 
L 248.381065 135.811765 
L 248.469063 134.747859 
L 248.50562 134.747859 
L 248.585928 133.329318 
L 248.679031 133.329318 
L 248.708701 132.620047 
L 248.790179 132.620047 
L 248.830895 131.910776 
L 248.90709 131.910776 
L 248.978814 131.201506 
L 249.151708 131.201506 
L 249.257206 130.1376 
L 249.29177 130.1376 
L 249.384475 129.073694 
L 249.456715 129.073694 
L 249.550981 127.300518 
L 249.624598 127.300518 
L 249.734865 126.236612 
L 249.799452 126.236612 
L 249.86827 125.172706 
L 249.955934 125.172706 
L 250.032332 123.754165 
L 250.159471 123.754165 
L 250.17302 122.335624 
L 250.291917 122.335624 
L 250.336929 121.271718 
L 250.463359 121.271718 
L 250.536538 120.562447 
L 250.644494 120.562447 
L 250.719002 119.498541 
L 250.822794 119.498541 
L 250.822794 119.143906 
L 250.965404 119.143906 
L 250.965404 118.789271 
L 251.117966 118.789271 
L 251.193626 117.016094 
L 251.25671 117.016094 
L 251.25671 116.661459 
L 251.399552 116.661459 
L 251.399552 116.306824 
L 251.553595 116.306824 
L 251.628088 115.597553 
L 251.693339 115.597553 
L 251.798953 114.533647 
L 251.901396 114.533647 
L 251.989829 113.469741 
L 252.029189 113.469741 
L 252.042616 112.405835 
L 252.171336 112.405835 
L 252.171336 112.0512 
L 252.349007 112.0512 
L 252.45352 111.341929 
L 252.636482 111.341929 
L 252.743589 109.568753 
L 252.835705 109.568753 
L 252.892941 108.504847 
L 252.989379 108.504847 
L 253.075914 107.440941 
L 253.123786 107.440941 
L 253.123786 107.086306 
L 253.3229 107.086306 
L 253.3229 106.731671 
L 253.571298 106.731671 
L 253.571298 106.377035 
L 253.699391 106.377035 
L 253.800796 104.958494 
L 253.858386 104.958494 
L 253.858386 104.603859 
L 254.173492 104.603859 
L 254.214305 103.894588 
L 254.303027 103.894588 
L 254.336757 103.185318 
L 254.421787 103.185318 
L 254.421787 102.830682 
L 254.594591 102.830682 
L 254.594591 102.476047 
L 254.726506 102.476047 
L 254.726506 102.121412 
L 254.923734 102.121412 
L 254.993488 101.412141 
L 255.071816 101.412141 
L 255.116066 100.702871 
L 255.270563 100.702871 
L 255.370663 99.9936 
L 255.391405 99.9936 
L 255.412839 98.575059 
L 255.58389 98.575059 
L 255.646005 97.511153 
L 255.836714 97.511153 
L 255.854558 96.801882 
L 255.982607 96.801882 
L 256.058852 95.737976 
L 256.275232 95.737976 
L 256.377893 95.028706 
L 256.441646 95.028706 
L 256.469585 94.319435 
L 256.646481 94.319435 
L 256.743055 92.900894 
L 256.873854 92.900894 
L 256.970397 91.836988 
L 257.130241 91.836988 
L 257.204858 90.773082 
L 257.258292 90.773082 
L 257.340001 90.063812 
L 257.399709 90.063812 
L 257.457672 88.999906 
L 257.598149 88.999906 
L 257.659036 88.290635 
L 257.720042 88.290635 
L 257.777793 87.226729 
L 257.912201 87.226729 
L 257.912201 86.872094 
L 258.099721 86.872094 
L 258.155923 86.162824 
L 258.294056 86.162824 
L 258.370961 84.744282 
L 258.408231 84.744282 
L 258.408231 84.389647 
L 258.588395 84.389647 
L 258.588395 84.035012 
L 258.778497 84.035012 
L 258.888887 82.971106 
L 258.932211 82.971106 
L 258.976069 82.261835 
L 259.214807 82.261835 
L 259.263581 81.197929 
L 259.442897 81.197929 
L 259.442897 80.843294 
L 259.568533 80.843294 
L 259.645013 79.779388 
L 259.688705 79.779388 
L 259.737929 78.715482 
L 259.92111 78.715482 
L 259.92111 78.360847 
L 260.05604 78.360847 
L 260.082361 77.651576 
L 260.183559 77.651576 
L 260.195152 76.942306 
L 260.399953 76.942306 
L 260.399953 76.587671 
L 260.642993 76.587671 
L 260.642993 76.233035 
L 260.76488 76.233035 
L 260.825682 74.814494 
L 260.927801 74.814494 
L 261.035611 73.395953 
L 261.1261 73.395953 
L 261.126777 72.686682 
L 261.449938 72.686682 
L 261.449938 72.332047 
L 261.631883 72.332047 
L 261.691448 71.622776 
L 261.887538 71.622776 
L 261.949292 70.204235 
L 262.142727 70.204235 
L 262.194795 69.140329 
L 262.542942 69.140329 
L 262.542942 68.785694 
L 262.731261 68.785694 
L 262.731261 68.431059 
L 262.852197 68.431059 
L 262.852197 68.076424 
L 263.013709 68.076424 
L 263.031543 67.367153 
L 263.166823 67.367153 
L 263.166823 67.012518 
L 263.375769 67.012518 
L 263.465771 65.948612 
L 263.53482 65.948612 
L 263.547931 65.239341 
L 263.8551 65.239341 
L 263.8551 64.884706 
L 264.019271 64.884706 
L 264.06608 64.175435 
L 264.14884 64.175435 
L 264.233982 63.466165 
L 264.389798 63.466165 
L 264.389798 63.111529 
L 264.637332 63.111529 
L 264.637332 62.756894 
L 265.288606 62.756894 
L 265.288606 62.402259 
L 265.473524 62.402259 
L 265.542621 61.692988 
L 265.621488 61.692988 
L 265.621488 61.338353 
L 265.84933 61.338353 
L 265.872949 60.629082 
L 266.162384 60.629082 
L 266.25235 59.210541 
L 266.497354 59.210541 
L 266.58765 58.146635 
L 267.008609 58.146635 
L 267.008609 57.792 
L 267.234499 57.792 
L 267.234499 57.437365 
L 267.378065 57.437365 
L 267.470153 56.373459 
L 267.841385 56.373459 
L 267.948193 54.954918 
L 267.960814 54.954918 
L 267.960814 54.600282 
L 268.140986 54.600282 
L 268.140986 54.245647 
L 268.288424 54.245647 
L 268.288424 53.891012 
L 268.426724 53.891012 
L 268.489438 52.472471 
L 268.564547 52.472471 
L 268.628295 51.7632 
L 268.677193 51.7632 
L 268.746387 51.053929 
L 268.824229 51.053929 
L 268.840599 50.344659 
L 268.985897 50.344659 
L 269.092753 49.635388 
L 269.183828 49.635388 
L 269.270729 48.571482 
L 269.339066 48.571482 
L 269.397725 47.862212 
L 269.478406 47.862212 
L 269.478406 47.507576 
L 269.917086 47.507576 
L 269.917086 47.152941 
L 270.221785 47.152941 
L 270.221785 46.798306 
L 270.357825 46.798306 
L 270.357825 46.443671 
L 270.641796 46.443671 
L 270.641796 46.089035 
L 271.025696 46.089035 
L 271.025696 45.7344 
L 271.174808 45.7344 
L 271.174808 45.379765 
L 271.345348 45.379765 
L 271.345348 45.025129 
L 271.505036 45.025129 
L 271.608992 43.961224 
L 271.915508 43.961224 
L 271.915508 43.606588 
L 272.055398 43.606588 
L 272.055398 43.251953 
L 272.392834 43.251953 
L 272.392834 42.897318 
L 272.701286 42.897318 
L 272.701286 42.542682 
L 273.259308 42.542682 
L 273.259308 42.188047 
L 273.586426 42.188047 
L 273.586426 41.833412 
L 273.894649 41.833412 
L 273.894649 41.478776 
L 274.062734 41.478776 
L 274.062734 41.124141 
L 276.386665 41.124141 
L 276.386665 40.769506 
L 277.142776 40.769506 
L 277.142776 40.414871 
L 277.505974 40.414871 
L 277.543005 39.7056 
L 277.647451 39.7056 
L 277.647451 39.350965 
L 278.399634 39.350965 
L 278.399634 38.996329 
L 278.807472 38.996329 
L 278.887407 38.287059 
L 279.018378 38.287059 
L 279.082052 37.577788 
L 279.421572 37.577788 
L 279.492082 36.868518 
L 279.820026 36.868518 
L 279.820026 36.513882 
L 280.372596 36.513882 
L 280.435429 35.804612 
L 280.714073 35.804612 
L 280.714073 35.449976 
L 280.861319 35.449976 
L 280.861319 35.095341 
L 281.185772 35.095341 
L 281.295054 34.386071 
L 281.450021 34.386071 
L 281.450021 34.031435 
L 282.151549 34.031435 
L 282.151549 33.6768 
L 282.392771 33.6768 
L 282.392771 33.322165 
L 282.611726 33.322165 
L 282.611726 32.967529 
L 282.753837 32.967529 
L 282.861932 32.258259 
L 283.508837 32.258259 
L 283.508837 31.903624 
L 283.801064 31.903624 
L 283.801064 31.548988 
L 284.15949 31.548988 
L 284.15949 31.194353 
L 284.585944 31.194353 
L 284.585944 30.839718 
L 284.735999 30.839718 
L 284.735999 30.485082 
L 284.912909 30.485082 
L 284.912909 30.130447 
L 285.341774 30.130447 
L 285.341774 29.421176 
L 288.566081 29.421176 
L 288.566081 29.066541 
L 289.530826 29.066541 
L 289.530826 28.711906 
L 291.568492 28.711906 
L 291.568492 28.357271 
L 297.120213 28.357271 
L 297.120213 28.002635 
L 298.104277 28.002635 
L 298.104277 27.648 
L 360.8064 27.648 
L 360.8064 27.648 
" style="fill: none; stroke: #000080; stroke-width: 1.5; stroke-linecap: square"/>
   </g>
   <g id="line2d_36">
    <defs>
     <path id="mb15af4a486" d="M 0 6 
C 1.591219 6 3.117479 5.367802 4.242641 4.242641 
C 5.367802 3.117479 6 1.591219 6 0 
C 6 -1.591219 5.367802 -3.117479 4.242641 -4.242641 
C 3.117479 -5.367802 1.591219 -6 0 -6 
C -1.591219 -6 -3.117479 -5.367802 -4.242641 -4.242641 
C -5.367802 -3.117479 -6 -1.591219 -6 0 
C -6 1.591219 -5.367802 3.117479 -4.242641 4.242641 
C -3.117479 5.367802 -1.591219 6 0 6 
z
" style="stroke: #000080; stroke-width: 1.5"/>
    </defs>
    <g>
     <use xlink:href="#mb15af4a486" x="193.677957" y="266.672188" style="fill-opacity: 0; stroke: #000080; stroke-width: 1.5"/>
     <use xlink:href="#mb15af4a486" x="244.178477" y="159.217694" style="fill-opacity: 0; stroke: #000080; stroke-width: 1.5"/>
     <use xlink:href="#mb15af4a486" x="283.508837" y="32.258259" style="fill-opacity: 0; stroke: #000080; stroke-width: 1.5"/>
     <use xlink:href="#mb15af4a486" x="298.104277" y="27.648" style="fill-opacity: 0; stroke: #000080; stroke-width: 1.5"/>
     <use xlink:href="#mb15af4a486" x="360.8064" y="27.648" style="fill-opacity: 0; stroke: #000080; stroke-width: 1.5"/>
    </g>
   </g>
   <g id="line2d_37">
    <path style="fill: none; stroke: #000080; stroke-width: 1.5; stroke-linecap: square"/>
    <g/>
   </g>
   <g id="line2d_38">
    <path d="M 274.176 41.124141 
" clip-path="url(#p9f5ae5baa8)" style="fill: none; stroke: #000080; stroke-width: 1.5; stroke-linecap: square"/>
    <defs>
     <path id="m419ca79e1f" d="M -12 12 
L 12 -12 
M -12 -12 
L 12 12 
" style="stroke: #000080"/>
    </defs>
    <g clip-path="url(#p9f5ae5baa8)">
     <use xlink:href="#m419ca79e1f" x="274.176" y="41.124141" style="fill: #000080; stroke: #000080"/>
    </g>
   </g>
   <g id="line2d_39">
    <defs>
     <path id="m88b92a2529" d="M 0 1.5 
C 0.397805 1.5 0.77937 1.341951 1.06066 1.06066 
C 1.341951 0.77937 1.5 0.397805 1.5 0 
C 1.5 -0.397805 1.341951 -0.77937 1.06066 -1.06066 
C 0.77937 -1.341951 0.397805 -1.5 0 -1.5 
C -0.397805 -1.5 -0.77937 -1.341951 -1.06066 -1.06066 
C -1.341951 -0.77937 -1.5 -0.397805 -1.5 0 
C -1.5 0.397805 -1.341951 0.77937 -1.06066 1.06066 
C -0.77937 1.341951 -0.397805 1.5 0 1.5 
z
" style="stroke: #ff00ff"/>
    </defs>
    <g>
     <use xlink:href="#m88b92a2529" x="300.482424" y="27.648" style="fill: #ff00ff; stroke: #ff00ff"/>
     <use xlink:href="#m88b92a2529" x="300.482424" y="27.648" style="fill: #ff00ff; stroke: #ff00ff"/>
    </g>
   </g>
   <g id="line2d_40">
    <path d="M 105.26277 298.944 
L 105.26277 298.589365 
L 115.402131 298.589365 
L 115.402131 298.234729 
L 115.917548 298.234729 
L 115.917548 297.880094 
L 118.076654 297.880094 
L 118.076654 297.525459 
L 118.450653 297.525459 
L 118.450653 297.170824 
L 121.201758 297.170824 
L 121.201758 296.816188 
L 121.329295 296.816188 
L 121.329295 296.461553 
L 123.317644 296.461553 
L 123.317644 296.106918 
L 125.526971 296.106918 
L 125.526971 295.752282 
L 126.225624 295.752282 
L 126.225624 295.397647 
L 126.372018 295.397647 
L 126.372018 295.043012 
L 127.134109 295.043012 
L 127.134109 294.688376 
L 129.125437 294.688376 
L 129.125437 294.333741 
L 129.375706 294.333741 
L 129.417095 293.624471 
L 130.265881 293.624471 
L 130.344755 292.9152 
L 130.964122 292.9152 
L 130.964122 292.560565 
L 131.228811 292.560565 
L 131.228811 292.205929 
L 131.341119 292.205929 
L 131.341119 291.851294 
L 131.452761 291.851294 
L 131.452761 291.496659 
L 131.965169 291.496659 
L 131.965169 291.142024 
L 132.287354 291.142024 
L 132.287354 290.787388 
L 133.120474 290.787388 
L 133.120474 290.432753 
L 133.457005 290.432753 
L 133.457005 290.078118 
L 133.918257 290.078118 
L 133.918257 289.723482 
L 134.745971 289.723482 
L 134.745971 289.368847 
L 135.237805 289.368847 
L 135.237805 289.014212 
L 135.92302 289.014212 
L 135.92302 288.659576 
L 136.527575 288.659576 
L 136.527575 288.304941 
L 140.770526 288.304941 
L 140.770526 287.950306 
L 141.239443 287.950306 
L 141.239443 287.595671 
L 141.415049 287.595671 
L 141.415049 287.241035 
L 143.364242 287.241035 
L 143.364242 286.8864 
L 143.48206 286.8864 
L 143.48206 286.531765 
L 145.46797 286.531765 
L 145.46797 286.177129 
L 146.662213 286.177129 
L 146.662213 285.822494 
L 146.892226 285.822494 
L 146.892226 285.467859 
L 147.248088 285.467859 
L 147.264104 284.403953 
L 147.565858 284.403953 
L 147.565858 284.049318 
L 148.048032 284.049318 
L 148.048032 283.694682 
L 149.295664 283.694682 
L 149.295664 283.340047 
L 149.524205 283.340047 
L 149.524205 282.985412 
L 151.233056 282.985412 
L 151.233056 282.630776 
L 151.400845 282.630776 
L 151.400845 282.276141 
L 151.932924 282.276141 
L 151.932924 281.921506 
L 152.106991 281.921506 
L 152.106991 281.566871 
L 152.486788 281.566871 
L 152.486788 281.212235 
L 152.643804 281.212235 
L 152.643804 280.8576 
L 152.775647 280.8576 
L 152.775647 280.502965 
L 153.142309 280.502965 
L 153.142309 280.148329 
L 153.58223 280.148329 
L 153.593669 279.439059 
L 154.811312 279.439059 
L 154.811312 279.084424 
L 155.422953 279.084424 
L 155.422953 278.729788 
L 155.964992 278.729788 
L 155.964992 278.375153 
L 156.265023 278.375153 
L 156.373846 277.311247 
L 156.68689 277.311247 
L 156.68689 276.956612 
L 156.956595 276.956612 
L 156.956595 276.601976 
L 157.231914 276.601976 
L 157.231914 276.247341 
L 157.632869 276.247341 
L 157.632869 275.892706 
L 158.043518 275.892706 
L 158.043518 275.538071 
L 158.682463 275.538071 
L 158.752135 274.8288 
L 159.460157 274.8288 
L 159.460157 274.474165 
L 159.593632 274.474165 
L 159.593632 274.119529 
L 159.775628 274.119529 
L 159.775628 273.764894 
L 159.939564 273.764894 
L 159.939564 273.410259 
L 160.730652 273.410259 
L 160.730652 273.055624 
L 161.048777 273.055624 
L 161.094883 272.346353 
L 161.209658 272.346353 
L 161.209658 271.991718 
L 161.422049 271.991718 
L 161.422049 271.637082 
L 161.810238 271.637082 
L 161.810238 271.282447 
L 162.183335 271.282447 
L 162.183335 270.927812 
L 162.605924 270.927812 
L 162.605924 270.573176 
L 163.978243 270.573176 
L 163.978243 270.218541 
L 164.142137 270.218541 
L 164.2268 269.509271 
L 164.650849 269.509271 
L 164.657201 268.8 
L 165.385963 268.8 
L 165.385963 268.445365 
L 165.802874 268.445365 
L 165.826761 267.736094 
L 166.087543 267.736094 
L 166.087543 267.381459 
L 166.385358 267.381459 
L 166.385358 267.026824 
L 166.50663 267.026824 
L 166.50663 266.672188 
L 166.91095 266.672188 
L 166.91095 266.317553 
L 167.073627 266.317553 
L 167.073627 265.962918 
L 167.361848 265.962918 
L 167.38933 265.253647 
L 167.586025 265.253647 
L 167.586025 264.899012 
L 168.058351 264.899012 
L 168.058351 264.544376 
L 168.253455 264.544376 
L 168.253455 264.189741 
L 168.575917 264.189741 
L 168.678769 263.480471 
L 168.781062 263.480471 
L 168.781062 263.125835 
L 169.049477 263.125835 
L 169.094679 262.061929 
L 169.442591 262.061929 
L 169.442591 261.707294 
L 169.774511 261.707294 
L 169.774511 261.352659 
L 170.486615 261.352659 
L 170.486615 260.998024 
L 170.905844 260.998024 
L 170.905844 260.643388 
L 171.132274 260.643388 
L 171.132274 260.288753 
L 171.440338 260.288753 
L 171.440338 259.934118 
L 171.612255 259.934118 
L 171.612255 259.579482 
L 173.640268 259.579482 
L 173.707122 258.870212 
L 173.844019 258.870212 
L 173.844019 258.515576 
L 174.321163 258.515576 
L 174.321163 258.160941 
L 174.540256 258.160941 
L 174.637648 257.451671 
L 174.734538 257.451671 
L 174.734538 257.097035 
L 174.985608 257.097035 
L 174.985608 256.7424 
L 175.15357 256.7424 
L 175.15357 256.387765 
L 175.570583 256.387765 
L 175.570583 256.033129 
L 175.866889 256.033129 
L 175.866889 255.678494 
L 176.120657 255.678494 
L 176.144812 254.969224 
L 176.715418 254.969224 
L 176.715418 254.614588 
L 177.02071 254.614588 
L 177.1192 253.905318 
L 177.750281 253.905318 
L 177.750281 253.550682 
L 177.876513 253.550682 
L 177.876513 253.196047 
L 178.070512 253.196047 
L 178.107831 252.486776 
L 178.397624 252.486776 
L 178.397624 252.132141 
L 178.510479 252.132141 
L 178.510479 251.777506 
L 179.141427 251.777506 
L 179.141427 251.422871 
L 179.26161 251.422871 
L 179.26161 251.068235 
L 179.465043 251.068235 
L 179.465043 250.7136 
L 179.805909 250.7136 
L 179.805909 250.358965 
L 180.287923 250.358965 
L 180.287923 250.004329 
L 180.568042 250.004329 
L 180.633351 249.295059 
L 180.714669 249.295059 
L 180.714669 248.940424 
L 181.089573 248.940424 
L 181.089573 248.585788 
L 181.226942 248.585788 
L 181.226942 248.231153 
L 181.392038 248.231153 
L 181.392038 247.876518 
L 181.725635 247.876518 
L 181.797269 247.167247 
L 181.932119 247.167247 
L 181.997921 246.457976 
L 182.148897 246.457976 
L 182.148897 246.103341 
L 182.385492 246.103341 
L 182.385492 245.748706 
L 182.553035 245.748706 
L 182.553035 245.394071 
L 182.675284 245.394071 
L 182.675284 245.039435 
L 182.917423 245.039435 
L 182.917423 244.6848 
L 183.303193 244.6848 
L 183.401929 243.975529 
L 183.530448 243.975529 
L 183.530448 243.620894 
L 183.71583 243.620894 
L 183.71583 243.266259 
L 184.388512 243.266259 
L 184.388512 242.911624 
L 184.508274 242.911624 
L 184.508274 242.556988 
L 184.819615 242.556988 
L 184.819615 242.202353 
L 185.025066 242.202353 
L 185.113046 240.783812 
L 185.452499 240.783812 
L 185.492405 240.074541 
L 186.007709 240.074541 
L 186.048492 239.010635 
L 186.198629 239.010635 
L 186.198629 238.656 
L 186.437579 238.656 
L 186.525167 237.946729 
L 186.779634 237.946729 
L 186.779634 237.592094 
L 186.94156 237.592094 
L 186.94156 237.237459 
L 187.270836 237.237459 
L 187.270836 236.882824 
L 187.428605 236.882824 
L 187.445634 236.173553 
L 187.581308 236.173553 
L 187.674954 235.109647 
L 187.803424 235.109647 
L 187.803424 234.755012 
L 188.150894 234.755012 
L 188.150894 234.400376 
L 188.263495 234.400376 
L 188.263495 234.045741 
L 188.793735 234.045741 
L 188.83418 232.981835 
L 189.278582 232.981835 
L 189.319711 232.272565 
L 189.588258 232.272565 
L 189.595007 231.563294 
L 189.803039 231.563294 
L 189.848033 230.854024 
L 190.020343 230.854024 
L 190.020343 230.499388 
L 190.230274 230.499388 
L 190.316517 229.790118 
L 190.445951 229.790118 
L 190.445951 229.435482 
L 190.689449 229.435482 
L 190.689449 229.080847 
L 190.871602 229.080847 
L 190.871602 228.726212 
L 191.047325 228.726212 
L 191.047325 228.371576 
L 191.540528 228.371576 
L 191.636122 227.662306 
L 191.732739 227.662306 
L 191.732739 227.307671 
L 191.854313 227.307671 
L 191.854313 226.953035 
L 192.132017 226.953035 
L 192.132017 226.5984 
L 192.348935 226.5984 
L 192.348935 226.243765 
L 192.521553 226.243765 
L 192.521553 225.889129 
L 192.724053 225.889129 
L 192.835146 224.115953 
L 192.846503 224.115953 
L 192.956876 223.406682 
L 193.035721 223.406682 
L 193.035721 223.052047 
L 193.284163 223.052047 
L 193.284163 222.697412 
L 193.429192 222.697412 
L 193.429192 222.342776 
L 193.722713 222.342776 
L 193.722713 221.988141 
L 193.914092 221.988141 
L 194.023726 221.278871 
L 194.03572 221.278871 
L 194.03572 220.924235 
L 194.152595 220.924235 
L 194.190952 220.214965 
L 194.369798 220.214965 
L 194.369798 219.860329 
L 194.588404 219.860329 
L 194.620718 219.151059 
L 195.009284 219.151059 
L 195.110218 218.087153 
L 195.239378 218.087153 
L 195.306741 217.377882 
L 195.383787 217.377882 
L 195.383787 217.023247 
L 195.579941 217.023247 
L 195.579941 216.668612 
L 195.761921 216.668612 
L 195.761921 216.313976 
L 196.099206 216.313976 
L 196.099206 215.959341 
L 196.26324 215.959341 
L 196.324681 215.250071 
L 196.42351 215.250071 
L 196.49963 214.5408 
L 196.584753 214.5408 
L 196.655589 213.831529 
L 196.783807 213.831529 
L 196.783807 213.476894 
L 196.952274 213.476894 
L 197.058082 212.412988 
L 197.433247 212.412988 
L 197.507612 211.349082 
L 197.677435 211.349082 
L 197.725675 210.639812 
L 198.06424 210.639812 
L 198.06424 210.285176 
L 198.202463 210.285176 
L 198.312102 208.866635 
L 198.426381 208.866635 
L 198.532628 207.802729 
L 198.62367 207.802729 
L 198.62367 207.448094 
L 199.16897 207.448094 
L 199.216573 206.029553 
L 199.421803 206.029553 
L 199.471764 205.320282 
L 199.569306 205.320282 
L 199.569306 204.965647 
L 199.693978 204.965647 
L 199.791358 203.901741 
L 199.838392 203.901741 
L 199.890189 202.837835 
L 200.055374 202.837835 
L 200.1249 201.773929 
L 200.520706 201.773929 
L 200.532971 201.064659 
L 200.710392 201.064659 
L 200.710392 200.710024 
L 200.828677 200.710024 
L 200.84631 200.000753 
L 200.964668 200.000753 
L 201.006102 199.291482 
L 201.145387 199.291482 
L 201.145387 198.936847 
L 201.376763 198.936847 
L 201.376763 198.582212 
L 201.49901 198.582212 
L 201.538391 197.872941 
L 201.659595 197.872941 
L 201.768545 197.163671 
L 201.808248 197.163671 
L 201.918095 196.099765 
L 201.935611 196.099765 
L 202.025563 195.035859 
L 202.049071 195.035859 
L 202.079501 193.971953 
L 202.365732 193.971953 
L 202.365732 193.617318 
L 202.487689 193.617318 
L 202.514023 192.908047 
L 202.607171 192.908047 
L 202.618149 192.198776 
L 202.731773 192.198776 
L 202.810486 191.489506 
L 202.851387 191.489506 
L 202.90135 190.070965 
L 203.074355 190.070965 
L 203.074355 189.716329 
L 203.214731 189.716329 
L 203.214731 189.361694 
L 203.470609 189.361694 
L 203.470609 189.007059 
L 203.72146 189.007059 
L 203.789802 188.297788 
L 204.03646 188.297788 
L 204.074002 187.588518 
L 204.162087 187.588518 
L 204.162087 187.233882 
L 204.333176 187.233882 
L 204.333176 186.879247 
L 204.511886 186.879247 
L 204.511886 186.524612 
L 204.651065 186.524612 
L 204.753082 185.106071 
L 204.803508 185.106071 
L 204.909189 184.042165 
L 205.017996 184.042165 
L 205.017996 183.687529 
L 205.178561 183.687529 
L 205.214629 182.978259 
L 205.467362 182.978259 
L 205.557839 181.914353 
L 205.647883 181.914353 
L 205.689517 181.205082 
L 206.036218 181.205082 
L 206.069977 180.495812 
L 206.267793 180.495812 
L 206.375954 179.431906 
L 206.418768 179.431906 
L 206.527439 178.722635 
L 206.603409 178.722635 
L 206.603409 178.368 
L 206.784225 178.368 
L 206.877352 177.658729 
L 206.93851 177.658729 
L 207.03021 176.240188 
L 207.198389 176.240188 
L 207.198389 175.885553 
L 207.31187 175.885553 
L 207.31187 175.530918 
L 207.427287 175.530918 
L 207.427287 175.176282 
L 207.554342 175.176282 
L 207.554342 174.821647 
L 207.701174 174.821647 
L 207.701174 174.467012 
L 207.812953 174.467012 
L 207.89731 173.757741 
L 207.939983 173.757741 
L 207.939983 173.403106 
L 208.12421 173.403106 
L 208.231631 171.984565 
L 208.289797 171.984565 
L 208.346538 170.920659 
L 208.577342 170.920659 
L 208.640581 170.211388 
L 208.691997 170.211388 
L 208.69383 169.502118 
L 209.12584 169.502118 
L 209.221765 168.792847 
L 209.303598 168.792847 
L 209.303598 168.083576 
L 209.439201 168.083576 
L 209.504296 167.374306 
L 209.716772 167.374306 
L 209.818951 166.3104 
L 209.882748 166.3104 
L 209.977753 165.246494 
L 210.015393 165.246494 
L 210.034754 164.537224 
L 210.259361 164.537224 
L 210.289144 163.827953 
L 210.622514 163.827953 
L 210.713316 162.409412 
L 210.805866 162.409412 
L 210.894702 161.345506 
L 210.986366 161.345506 
L 210.992317 160.636235 
L 211.199421 160.636235 
L 211.272571 159.926965 
L 211.400565 159.926965 
L 211.507705 158.863059 
L 211.616855 158.863059 
L 211.688403 157.799153 
L 211.76591 157.799153 
L 211.874609 157.089882 
L 211.88957 157.089882 
L 211.989866 156.025976 
L 212.08963 156.025976 
L 212.08963 155.671341 
L 212.262321 155.671341 
L 212.285564 154.607435 
L 212.374731 154.607435 
L 212.374731 154.2528 
L 212.548821 154.2528 
L 212.643194 152.479624 
L 212.683778 152.479624 
L 212.683778 152.124988 
L 212.869246 152.124988 
L 212.869246 151.770353 
L 213.02525 151.770353 
L 213.02525 151.415718 
L 213.143822 151.415718 
L 213.143822 151.061082 
L 213.293268 151.061082 
L 213.293268 150.706447 
L 213.405411 150.706447 
L 213.405411 150.351812 
L 213.573561 150.351812 
L 213.602774 149.642541 
L 213.730403 149.642541 
L 213.82044 148.578635 
L 213.946606 148.578635 
L 213.946606 148.224 
L 214.097629 148.224 
L 214.170862 147.514729 
L 214.221044 147.514729 
L 214.280633 145.741553 
L 214.343202 145.741553 
L 214.444323 144.677647 
L 214.581141 144.677647 
L 214.581141 144.323012 
L 214.69255 144.323012 
L 214.797118 142.904471 
L 214.856674 142.904471 
L 214.856674 142.549835 
L 215.149924 142.549835 
L 215.162496 141.840565 
L 215.292055 141.840565 
L 215.380506 140.422024 
L 215.413888 140.422024 
L 215.522612 139.003482 
L 215.541309 139.003482 
L 215.541309 138.648847 
L 215.661122 138.648847 
L 215.769269 137.584941 
L 215.828759 137.584941 
L 215.897231 136.1664 
L 215.965455 136.1664 
L 216.049562 135.102494 
L 216.112706 135.102494 
L 216.217476 132.620047 
L 216.23222 132.620047 
L 216.335922 131.556141 
L 216.381467 131.556141 
L 216.456863 130.492235 
L 216.589086 130.492235 
L 216.654051 129.073694 
L 216.709214 129.073694 
L 216.761828 128.009788 
L 216.881653 128.009788 
L 216.979877 126.591247 
L 217.037625 126.591247 
L 217.079157 125.527341 
L 217.191148 125.527341 
L 217.23079 124.818071 
L 217.317941 124.818071 
L 217.399304 123.754165 
L 217.518589 123.754165 
L 217.614693 122.335624 
L 217.648138 122.335624 
L 217.675837 121.271718 
L 217.763974 121.271718 
L 217.846065 119.498541 
L 217.909084 119.498541 
L 217.995764 118.08 
L 218.115413 118.08 
L 218.196725 117.016094 
L 218.2527 117.016094 
L 218.361594 114.888282 
L 218.424734 114.888282 
L 218.509439 113.115106 
L 218.545314 113.115106 
L 218.578592 112.405835 
L 218.665486 112.405835 
L 218.765941 110.987294 
L 218.815254 110.987294 
L 218.915979 109.568753 
L 218.993557 109.568753 
L 219.07856 108.504847 
L 219.108098 108.504847 
L 219.21461 106.731671 
L 219.292708 106.731671 
L 219.341008 105.667765 
L 219.414091 105.667765 
L 219.415474 104.958494 
L 219.637802 104.958494 
L 219.660334 103.894588 
L 219.782088 103.894588 
L 219.874744 102.476047 
L 219.90811 102.476047 
L 219.90811 102.121412 
L 220.033628 102.121412 
L 220.111071 100.702871 
L 220.180896 100.702871 
L 220.216043 99.9936 
L 220.319444 99.9936 
L 220.425229 98.929694 
L 220.437346 98.929694 
L 220.532702 97.511153 
L 220.600983 97.511153 
L 220.689701 96.447247 
L 220.772537 96.447247 
L 220.863973 95.383341 
L 220.900423 95.383341 
L 220.917665 94.674071 
L 221.016338 94.674071 
L 221.116707 93.610165 
L 221.218114 93.610165 
L 221.243851 92.900894 
L 221.414641 92.900894 
L 221.446938 91.836988 
L 221.566636 91.836988 
L 221.639872 90.773082 
L 221.684964 90.773082 
L 221.738505 89.709176 
L 221.860921 89.709176 
L 221.913359 88.645271 
L 222.017797 88.645271 
L 222.078203 87.581365 
L 222.230904 87.581365 
L 222.339814 86.162824 
L 222.342773 86.162824 
L 222.403915 85.453553 
L 222.459861 85.453553 
L 222.500979 84.744282 
L 222.784 84.744282 
L 222.872226 84.035012 
L 222.961757 84.035012 
L 222.961757 83.680376 
L 223.233184 83.680376 
L 223.310623 82.616471 
L 223.375146 82.616471 
L 223.438332 81.9072 
L 223.539657 81.9072 
L 223.569061 81.197929 
L 223.687322 81.197929 
L 223.687322 80.843294 
L 224.150384 80.843294 
L 224.256241 80.134024 
L 224.340766 80.134024 
L 224.428356 79.424753 
L 224.712194 79.424753 
L 224.712194 79.070118 
L 224.904749 79.070118 
L 224.933128 78.360847 
L 225.83804 78.360847 
L 225.83804 78.006212 
L 226.1209 78.006212 
L 226.1209 77.651576 
L 227.937646 77.651576 
L 227.937646 77.296941 
L 228.219646 77.296941 
L 228.219646 76.942306 
L 228.537113 76.942306 
L 228.537113 76.587671 
L 230.398805 76.587671 
L 230.398805 76.233035 
L 274.218935 76.233035 
L 274.325539 70.204235 
L 274.362194 70.204235 
L 274.472658 64.884706 
L 274.47886 64.884706 
L 274.588312 60.274447 
L 274.59306 60.274447 
L 274.703278 57.437365 
L 274.722949 57.437365 
L 274.806797 53.181741 
L 274.840439 53.181741 
L 274.946026 49.635388 
L 274.982051 49.635388 
L 275.091077 45.025129 
L 275.098888 45.025129 
L 275.207864 40.414871 
L 275.22698 40.414871 
L 275.298021 37.932424 
L 275.345121 37.932424 
L 275.345121 37.577788 
L 275.498996 37.577788 
L 275.584124 36.868518 
L 275.769157 36.868518 
L 275.769157 36.513882 
L 275.927399 36.513882 
L 275.927399 36.159247 
L 287.2477 36.159247 
L 287.321179 34.740706 
L 287.370489 34.740706 
L 287.478314 33.322165 
L 287.49554 33.322165 
L 287.599741 31.548988 
L 287.625094 31.548988 
L 287.726129 30.485082 
L 287.776946 30.485082 
L 287.776946 30.130447 
L 294.85888 30.130447 
L 294.969222 28.711906 
L 295.005257 28.711906 
L 295.065411 28.002635 
L 300.482424 28.002635 
L 300.482424 27.648 
L 360.8064 27.648 
L 360.8064 27.648 
" style="fill: none; stroke: #ff00ff; stroke-width: 1.5; stroke-linecap: square"/>
   </g>
   <g id="line2d_41">
    <defs>
     <path id="m0bff582411" d="M 0 8.485281 
L 5.091169 0 
L 0 -8.485281 
L -5.091169 0 
z
" style="stroke: #ff00ff; stroke-width: 1.5; stroke-linejoin: miter"/>
    </defs>
    <g>
     <use xlink:href="#m0bff582411" x="149.524205" y="282.985412" style="fill-opacity: 0; stroke: #ff00ff; stroke-width: 1.5; stroke-linejoin: miter"/>
     <use xlink:href="#m0bff582411" x="215.965455" y="135.811765" style="fill-opacity: 0; stroke: #ff00ff; stroke-width: 1.5; stroke-linejoin: miter"/>
     <use xlink:href="#m0bff582411" x="275.294334" y="38.287059" style="fill-opacity: 0; stroke: #ff00ff; stroke-width: 1.5; stroke-linejoin: miter"/>
     <use xlink:href="#m0bff582411" x="300.482424" y="27.648" style="fill-opacity: 0; stroke: #ff00ff; stroke-width: 1.5; stroke-linejoin: miter"/>
     <use xlink:href="#m0bff582411" x="360.8064" y="27.648" style="fill-opacity: 0; stroke: #ff00ff; stroke-width: 1.5; stroke-linejoin: miter"/>
    </g>
   </g>
   <g id="line2d_42">
    <path style="fill: none; stroke: #ff00ff; stroke-width: 1.5; stroke-linecap: square"/>
    <g/>
   </g>
   <g id="line2d_43">
    <path d="M 274.176 76.233035 
" clip-path="url(#p9f5ae5baa8)" style="fill: none; stroke: #ff00ff; stroke-width: 1.5; stroke-linecap: square"/>
    <defs>
     <path id="m518f602012" d="M -12 12 
L 12 -12 
M -12 -12 
L 12 12 
" style="stroke: #ff00ff"/>
    </defs>
    <g clip-path="url(#p9f5ae5baa8)">
     <use xlink:href="#m518f602012" x="274.176" y="76.233035" style="fill: #ff00ff; stroke: #ff00ff"/>
    </g>
   </g>
   <g id="line2d_44">
    <path d="M 360.8064 27.648 
L 380.514816 293.51808 
" style="fill: none; stroke: #ff00ff; stroke-width: 1.5; stroke-linecap: square"/>
    <g>
     <use xlink:href="#m0bff582411" x="360.8064" y="27.648" style="fill-opacity: 0; stroke: #ff00ff; stroke-width: 1.5; stroke-linejoin: miter"/>
     <use xlink:href="#m0bff582411" x="380.514816" y="293.51808" style="fill-opacity: 0; stroke: #ff00ff; stroke-width: 1.5; stroke-linejoin: miter"/>
    </g>
   </g>
   <g id="line2d_45">
    <path d="M 360.8064 27.648 
L 380.514816 163.296 
" style="fill: none; stroke: #000080; stroke-width: 1.5; stroke-linecap: square"/>
    <g>
     <use xlink:href="#mb15af4a486" x="360.8064" y="27.648" style="fill-opacity: 0; stroke: #000080; stroke-width: 1.5"/>
     <use xlink:href="#mb15af4a486" x="380.514816" y="163.296" style="fill-opacity: 0; stroke: #000080; stroke-width: 1.5"/>
    </g>
   </g>
   <g id="line2d_46">
    <path d="M 360.8064 298.944 
L 360.8064 27.648 
" style="fill: none; stroke: #000000; stroke-width: 1.5; stroke-linecap: square"/>
   </g>
   <g id="patch_3">
    <path d="M 57.6 298.944 
L 360.8064 298.944 
" style="fill: none; stroke: #000000; stroke-width: 0.8; stroke-linejoin: miter; stroke-linecap: square"/>
   </g>
   <g id="patch_4">
    <path d="M 57.6 27.648 
L 360.8064 27.648 
" style="fill: none; stroke: #000000; stroke-width: 0.8; stroke-linejoin: miter; stroke-linecap: square"/>
   </g>
   <g id="text_13">
    <!-- PSO -->
    <g transform="translate(386.578944 297.381205)scale(0.14 -0.14)">
     <defs>
      <path id="DejaVuSans-50" d="M 1259 4147 
L 1259 2394 
L 2053 2394 
Q 2494 2394 2734 2622 
Q 2975 2850 2975 3272 
Q 2975 3691 2734 3919 
Q 2494 4147 2053 4147 
L 1259 4147 
z
M 628 4666 
L 2053 4666 
Q 2838 4666 3239 4311 
Q 3641 3956 3641 3272 
Q 3641 2581 3239 2228 
Q 2838 1875 2053 1875 
L 1259 1875 
L 1259 0 
L 628 0 
L 628 4666 
z
" transform="scale(0.015625)"/>
      <path id="DejaVuSans-53" d="M 3425 4513 
L 3425 3897 
Q 3066 4069 2747 4153 
Q 2428 4238 2131 4238 
Q 1616 4238 1336 4038 
Q 1056 3838 1056 3469 
Q 1056 3159 1242 3001 
Q 1428 2844 1947 2747 
L 2328 2669 
Q 3034 2534 3370 2195 
Q 3706 1856 3706 1288 
Q 3706 609 3251 259 
Q 2797 -91 1919 -91 
Q 1588 -91 1214 -16 
Q 841 59 441 206 
L 441 856 
Q 825 641 1194 531 
Q 1563 422 1919 422 
Q 2459 422 2753 634 
Q 3047 847 3047 1241 
Q 3047 1584 2836 1778 
Q 2625 1972 2144 2069 
L 1759 2144 
Q 1053 2284 737 2584 
Q 422 2884 422 3419 
Q 422 4038 858 4394 
Q 1294 4750 2059 4750 
Q 2388 4750 2728 4690 
Q 3069 4631 3425 4513 
z
" transform="scale(0.015625)"/>
      <path id="DejaVuSans-4f" d="M 2522 4238 
Q 1834 4238 1429 3725 
Q 1025 3213 1025 2328 
Q 1025 1447 1429 934 
Q 1834 422 2522 422 
Q 3209 422 3611 934 
Q 4013 1447 4013 2328 
Q 4013 3213 3611 3725 
Q 3209 4238 2522 4238 
z
M 2522 4750 
Q 3503 4750 4090 4092 
Q 4678 3434 4678 2328 
Q 4678 1225 4090 567 
Q 3503 -91 2522 -91 
Q 1538 -91 948 565 
Q 359 1222 359 2328 
Q 359 3434 948 4092 
Q 1538 4750 2522 4750 
z
" transform="scale(0.015625)"/>
     </defs>
     <use xlink:href="#DejaVuSans-50"/>
     <use xlink:href="#DejaVuSans-53" x="60.302734"/>
     <use xlink:href="#DejaVuSans-4f" x="123.779297"/>
    </g>
   </g>
   <g id="text_14">
    <!-- LCGA -->
    <g transform="translate(386.578944 167.159125)scale(0.14 -0.14)">
     <defs>
      <path id="DejaVuSans-4c" d="M 628 4666 
L 1259 4666 
L 1259 531 
L 3531 531 
L 3531 0 
L 628 0 
L 628 4666 
z
" transform="scale(0.015625)"/>
      <path id="DejaVuSans-43" d="M 4122 4306 
L 4122 3641 
Q 3803 3938 3442 4084 
Q 3081 4231 2675 4231 
Q 1875 4231 1450 3742 
Q 1025 3253 1025 2328 
Q 1025 1406 1450 917 
Q 1875 428 2675 428 
Q 3081 428 3442 575 
Q 3803 722 4122 1019 
L 4122 359 
Q 3791 134 3420 21 
Q 3050 -91 2638 -91 
Q 1578 -91 968 557 
Q 359 1206 359 2328 
Q 359 3453 968 4101 
Q 1578 4750 2638 4750 
Q 3056 4750 3426 4639 
Q 3797 4528 4122 4306 
z
" transform="scale(0.015625)"/>
      <path id="DejaVuSans-47" d="M 3809 666 
L 3809 1919 
L 2778 1919 
L 2778 2438 
L 4434 2438 
L 4434 434 
Q 4069 175 3628 42 
Q 3188 -91 2688 -91 
Q 1594 -91 976 548 
Q 359 1188 359 2328 
Q 359 3472 976 4111 
Q 1594 4750 2688 4750 
Q 3144 4750 3555 4637 
Q 3966 4525 4313 4306 
L 4313 3634 
Q 3963 3931 3569 4081 
Q 3175 4231 2741 4231 
Q 1884 4231 1454 3753 
Q 1025 3275 1025 2328 
Q 1025 1384 1454 906 
Q 1884 428 2741 428 
Q 3075 428 3337 486 
Q 3600 544 3809 666 
z
" transform="scale(0.015625)"/>
      <path id="DejaVuSans-41" d="M 2188 4044 
L 1331 1722 
L 3047 1722 
L 2188 4044 
z
M 1831 4666 
L 2547 4666 
L 4325 0 
L 3669 0 
L 3244 1197 
L 1141 1197 
L 716 0 
L 50 0 
L 1831 4666 
z
" transform="scale(0.015625)"/>
     </defs>
     <use xlink:href="#DejaVuSans-4c"/>
     <use xlink:href="#DejaVuSans-43" x="55.712891"/>
     <use xlink:href="#DejaVuSans-47" x="125.537109"/>
     <use xlink:href="#DejaVuSans-41" x="203.027344"/>
    </g>
   </g>
   <g id="text_15">
    <!-- best 2009 -->
    <g transform="translate(386.578944 36.937045)scale(0.14 -0.14)">
     <defs>
      <path id="DejaVuSans-62" d="M 3116 1747 
Q 3116 2381 2855 2742 
Q 2594 3103 2138 3103 
Q 1681 3103 1420 2742 
Q 1159 2381 1159 1747 
Q 1159 1113 1420 752 
Q 1681 391 2138 391 
Q 2594 391 2855 752 
Q 3116 1113 3116 1747 
z
M 1159 2969 
Q 1341 3281 1617 3432 
Q 1894 3584 2278 3584 
Q 2916 3584 3314 3078 
Q 3713 2572 3713 1747 
Q 3713 922 3314 415 
Q 2916 -91 2278 -91 
Q 1894 -91 1617 61 
Q 1341 213 1159 525 
L 1159 0 
L 581 0 
L 581 4863 
L 1159 4863 
L 1159 2969 
z
" transform="scale(0.015625)"/>
      <path id="DejaVuSans-39" d="M 703 97 
L 703 672 
Q 941 559 1184 500 
Q 1428 441 1663 441 
Q 2288 441 2617 861 
Q 2947 1281 2994 2138 
Q 2813 1869 2534 1725 
Q 2256 1581 1919 1581 
Q 1219 1581 811 2004 
Q 403 2428 403 3163 
Q 403 3881 828 4315 
Q 1253 4750 1959 4750 
Q 2769 4750 3195 4129 
Q 3622 3509 3622 2328 
Q 3622 1225 3098 567 
Q 2575 -91 1691 -91 
Q 1453 -91 1209 -44 
Q 966 3 703 97 
z
M 1959 2075 
Q 2384 2075 2632 2365 
Q 2881 2656 2881 3163 
Q 2881 3666 2632 3958 
Q 2384 4250 1959 4250 
Q 1534 4250 1286 3958 
Q 1038 3666 1038 3163 
Q 1038 2656 1286 2365 
Q 1534 2075 1959 2075 
z
" transform="scale(0.015625)"/>
     </defs>
     <use xlink:href="#DejaVuSans-62"/>
     <use xlink:href="#DejaVuSans-65" x="63.476562"/>
     <use xlink:href="#DejaVuSans-73" x="125"/>
     <use xlink:href="#DejaVuSans-74" x="177.099609"/>
     <use xlink:href="#DejaVuSans-20" x="216.308594"/>
     <use xlink:href="#DejaVuSans-32" x="248.095703"/>
     <use xlink:href="#DejaVuSans-30" x="311.71875"/>
     <use xlink:href="#DejaVuSans-30" x="375.341797"/>
     <use xlink:href="#DejaVuSans-39" x="438.964844"/>
    </g>
   </g>
   <g id="text_16">
    <!-- bbob f6, 10-D -->
    <g transform="translate(60.632064 38.111366)scale(0.102 -0.102)">
     <defs>
      <path id="DejaVuSans-44" d="M 1259 4147 
L 1259 519 
L 2022 519 
Q 2988 519 3436 956 
Q 3884 1394 3884 2338 
Q 3884 3275 3436 3711 
Q 2988 4147 2022 4147 
L 1259 4147 
z
M 628 4666 
L 1925 4666 
Q 3281 4666 3915 4102 
Q 4550 3538 4550 2338 
Q 4550 1131 3912 565 
Q 3275 0 1925 0 
L 628 0 
L 628 4666 
z
" transform="scale(0.015625)"/>
     </defs>
     <use xlink:href="#DejaVuSans-62"/>
     <use xlink:href="#DejaVuSans-62" x="63.476562"/>
     <use xlink:href="#DejaVuSans-6f" x="126.953125"/>
     <use xlink:href="#DejaVuSans-62" x="188.134766"/>
     <use xlink:href="#DejaVuSans-20" x="251.611328"/>
     <use xlink:href="#DejaVuSans-66" x="283.398438"/>
     <use xlink:href="#DejaVuSans-36" x="318.603516"/>
     <use xlink:href="#DejaVuSans-2c" x="382.226562"/>
     <use xlink:href="#DejaVuSans-20" x="414.013672"/>
     <use xlink:href="#DejaVuSans-31" x="445.800781"/>
     <use xlink:href="#DejaVuSans-30" x="509.423828"/>
     <use xlink:href="#DejaVuSans-2d" x="573.046875"/>
     <use xlink:href="#DejaVuSans-44" x="609.130859"/>
    </g>
    <!-- 51 targets: 100..1e-08 -->
    <g transform="translate(60.632064 49.533135)scale(0.102 -0.102)">
     <defs>
      <path id="DejaVuSans-35" d="M 691 4666 
L 3169 4666 
L 3169 4134 
L 1269 4134 
L 1269 2991 
Q 1406 3038 1543 3061 
Q 1681 3084 1819 3084 
Q 2600 3084 3056 2656 
Q 3513 2228 3513 1497 
Q 3513 744 3044 326 
Q 2575 -91 1722 -91 
Q 1428 -91 1123 -41 
Q 819 9 494 109 
L 494 744 
Q 775 591 1075 516 
Q 1375 441 1709 441 
Q 2250 441 2565 725 
Q 2881 1009 2881 1497 
Q 2881 1984 2565 2268 
Q 2250 2553 1709 2553 
Q 1456 2553 1204 2497 
Q 953 2441 691 2322 
L 691 4666 
z
" transform="scale(0.015625)"/>
      <path id="DejaVuSans-3a" d="M 750 794 
L 1409 794 
L 1409 0 
L 750 0 
L 750 794 
z
M 750 3309 
L 1409 3309 
L 1409 2516 
L 750 2516 
L 750 3309 
z
" transform="scale(0.015625)"/>
     </defs>
     <use xlink:href="#DejaVuSans-35"/>
     <use xlink:href="#DejaVuSans-31" x="63.623047"/>
     <use xlink:href="#DejaVuSans-20" x="127.246094"/>
     <use xlink:href="#DejaVuSans-74" x="159.033203"/>
     <use xlink:href="#DejaVuSans-61" x="198.242188"/>
     <use xlink:href="#DejaVuSans-72" x="259.521484"/>
     <use xlink:href="#DejaVuSans-67" x="298.884766"/>
     <use xlink:href="#DejaVuSans-65" x="362.361328"/>
     <use xlink:href="#DejaVuSans-74" x="423.884766"/>
     <use xlink:href="#DejaVuSans-73" x="463.09375"/>
     <use xlink:href="#DejaVuSans-3a" x="515.193359"/>
     <use xlink:href="#DejaVuSans-20" x="548.884766"/>
     <use xlink:href="#DejaVuSans-31" x="580.671875"/>
     <use xlink:href="#DejaVuSans-30" x="644.294922"/>
     <use xlink:href="#DejaVuSans-30" x="707.917969"/>
     <use xlink:href="#DejaVuSans-2e" x="771.541016"/>
     <use xlink:href="#DejaVuSans-2e" x="803.328125"/>
     <use xlink:href="#DejaVuSans-31" x="835.115234"/>
     <use xlink:href="#DejaVuSans-65" x="898.738281"/>
     <use xlink:href="#DejaVuSans-2d" x="960.261719"/>
     <use xlink:href="#DejaVuSans-30" x="996.345703"/>
     <use xlink:href="#DejaVuSans-38" x="1059.96875"/>
    </g>
    <!-- 15 instances -->
    <g transform="translate(60.632064 60.954904)scale(0.102 -0.102)">
     <use xlink:href="#DejaVuSans-31"/>
     <use xlink:href="#DejaVuSans-35" x="63.623047"/>
     <use xlink:href="#DejaVuSans-20" x="127.246094"/>
     <use xlink:href="#DejaVuSans-69" x="159.033203"/>
     <use xlink:href="#DejaVuSans-6e" x="186.816406"/>
     <use xlink:href="#DejaVuSans-73" x="250.195312"/>
     <use xlink:href="#DejaVuSans-74" x="302.294922"/>
     <use xlink:href="#DejaVuSans-61" x="341.503906"/>
     <use xlink:href="#DejaVuSans-6e" x="402.783203"/>
     <use xlink:href="#DejaVuSans-63" x="466.162109"/>
     <use xlink:href="#DejaVuSans-65" x="521.142578"/>
     <use xlink:href="#DejaVuSans-73" x="582.666016"/>
    </g>
   </g>
   <g id="text_17">
    <!-- v2.6 -->
    <g style="fill: #808080" transform="translate(198.292262 294.151352)scale(0.1 -0.1)">
     <use xlink:href="#DejaVuSans-76"/>
     <use xlink:href="#DejaVuSans-32" x="59.179688"/>
     <use xlink:href="#DejaVuSans-2e" x="122.802734"/>
     <use xlink:href="#DejaVuSans-36" x="154.589844"/>
    </g>
   </g>
   <g id="text_18">
    <!-- 6 Attractive sector -->
    <g transform="translate(116.45945 21.648)scale(0.2 -0.2)">
     <use xlink:href="#DejaVuSans-36"/>
     <use xlink:href="#DejaVuSans-20" x="63.623047"/>
     <use xlink:href="#DejaVuSans-41" x="95.410156"/>
     <use xlink:href="#DejaVuSans-74" x="162.068359"/>
     <use xlink:href="#DejaVuSans-74" x="201.277344"/>
     <use xlink:href="#DejaVuSans-72" x="240.486328"/>
     <use xlink:href="#DejaVuSans-61" x="281.599609"/>
     <use xlink:href="#DejaVuSans-63" x="342.878906"/>
     <use xlink:href="#DejaVuSans-74" x="397.859375"/>
     <use xlink:href="#DejaVuSans-69" x="437.068359"/>
     <use xlink:href="#DejaVuSans-76" x="464.851562"/>
     <use xlink:href="#DejaVuSans-65" x="524.03125"/>
     <use xlink:href="#DejaVuSans-20" x="585.554688"/>
     <use xlink:href="#DejaVuSans-73" x="617.341797"/>
     <use xlink:href="#DejaVuSans-65" x="669.441406"/>
     <use xlink:href="#DejaVuSans-63" x="730.964844"/>
     <use xlink:href="#DejaVuSans-74" x="785.945312"/>
     <use xlink:href="#DejaVuSans-6f" x="825.154297"/>
     <use xlink:href="#DejaVuSans-72" x="886.335938"/>
    </g>
   </g>
  </g>
 </g>
 <defs>
  <clipPath id="p9f5ae5baa8">
   <rect x="57.6" y="27.648" width="303.2064" height="271.296"/>
  </clipPath>
 </defs>
</svg>
