<?xml version="1.0" encoding="utf-8" standalone="no"?>
<!DOCTYPE svg PUBLIC "-//W3C//DTD SVG 1.1//EN"
  "http://www.w3.org/Graphics/SVG/1.1/DTD/svg11.dtd">
<svg xmlns:xlink="http://www.w3.org/1999/xlink" width="460.8pt" height="345.6pt" viewBox="0 0 460.8 345.6" xmlns="http://www.w3.org/2000/svg" version="1.1">
 <metadata>
  <rdf:RDF xmlns:dc="http://purl.org/dc/elements/1.1/" xmlns:cc="http://creativecommons.org/ns#" xmlns:rdf="http://www.w3.org/1999/02/22-rdf-syntax-ns#">
   <cc:Work>
    <dc:type rdf:resource="http://purl.org/dc/dcmitype/StillImage"/>
    <dc:date>2024-05-29T08:02:21.075108</dc:date>
    <dc:format>image/svg+xml</dc:format>
    <dc:creator>
     <cc:Agent>
      <dc:title>Matplotlib v3.5.1, https://matplotlib.org/</dc:title>
     </cc:Agent>
    </dc:creator>
   </cc:Work>
  </rdf:RDF>
 </metadata>
 <defs>
  <style type="text/css">*{stroke-linejoin: round; stroke-linecap: butt}</style>
 </defs>
 <g id="figure_1">
  <g id="patch_1">
   <path d="M 0 345.6 
L 460.8 345.6 
L 460.8 0 
L 0 0 
z
" style="fill: #ffffff"/>
  </g>
  <g id="axes_1">
   <g id="patch_2">
    <path d="M 57.6 298.944 
L 360.8064 298.944 
L 360.8064 27.648 
L 57.6 27.648 
z
" style="fill: #ffffff"/>
   </g>
   <g id="line2d_1">
    <path d="M 36.933397 298.944 
L 36.933397 272.346353 
L 94.205591 272.346353 
L 94.205591 267.026824 
L 97.485448 267.026824 
L 97.485448 261.707294 
L 102.12927 261.707294 
L 102.12927 256.387765 
L 109.756698 256.387765 
L 109.756698 251.068235 
L 113.316634 251.068235 
L 113.316634 245.748706 
L 115.460102 245.748706 
L 115.460102 240.429176 
L 117.899543 240.429176 
L 117.899543 235.109647 
L 121.371615 235.109647 
L 121.371615 229.790118 
L 124.3016 229.790118 
L 124.3016 224.470588 
L 126.355808 224.470588 
L 126.355808 219.151059 
L 128.060076 219.151059 
L 128.060076 213.831529 
L 128.499277 213.831529 
L 128.499277 208.512 
L 129.622688 208.512 
L 129.622688 203.192471 
L 130.292209 203.192471 
L 130.292209 197.872941 
L 130.682774 197.872941 
L 130.682774 192.553412 
L 131.065395 192.553412 
L 131.065395 187.233882 
L 131.440389 187.233882 
L 131.440389 181.914353 
L 131.686295 181.914353 
L 131.686295 176.594824 
L 131.808053 176.594824 
L 131.808053 171.275294 
L 132.168669 171.275294 
L 132.168669 165.955765 
L 132.287354 165.955765 
L 132.287354 160.636235 
L 132.405295 160.636235 
L 132.405295 155.316706 
L 132.638982 155.316706 
L 132.638982 144.677647 
L 132.869802 144.677647 
L 132.869802 139.358118 
L 132.984158 139.358118 
L 132.984158 128.719059 
L 133.097823 128.719059 
L 133.097823 123.399529 
L 133.210806 123.399529 
L 133.210806 118.08 
L 133.323114 118.08 
L 133.323114 112.760471 
L 133.434756 112.760471 
L 133.434756 107.440941 
L 133.545739 107.440941 
L 133.545739 102.121412 
L 133.765759 102.121412 
L 133.765759 91.482353 
L 133.983236 91.482353 
L 133.983236 80.843294 
L 134.091039 80.843294 
L 134.091039 75.523765 
L 134.198228 75.523765 
L 134.198228 70.204235 
L 134.304809 70.204235 
L 134.304809 59.565176 
L 134.41079 59.565176 
L 134.41079 54.245647 
L 134.516177 54.245647 
L 134.516177 43.606588 
L 134.620977 43.606588 
L 134.620977 32.967529 
L 134.725196 32.967529 
L 134.725196 27.648 
L 360.8064 27.648 
" style="fill: none; stroke: #f5deb3; stroke-width: 4; stroke-linecap: square"/>
   </g>
   <g id="line2d_2">
    <defs>
     <path id="mecd592eaf7" d="M 0 7.778175 
L 7.778175 0 
L 0 -7.778175 
L -7.778175 0 
z
" style="stroke: #f5deb3; stroke-width: 1.5; stroke-linejoin: miter"/>
    </defs>
    <g>
     <use xlink:href="#mecd592eaf7" x="128.499277" y="213.831529" style="fill: #f5deb3; stroke: #f5deb3; stroke-width: 1.5; stroke-linejoin: miter"/>
     <use xlink:href="#mecd592eaf7" x="133.434756" y="112.760471" style="fill: #f5deb3; stroke: #f5deb3; stroke-width: 1.5; stroke-linejoin: miter"/>
     <use xlink:href="#mecd592eaf7" x="134.725196" y="32.967529" style="fill: #f5deb3; stroke: #f5deb3; stroke-width: 1.5; stroke-linejoin: miter"/>
     <use xlink:href="#mecd592eaf7" x="134.725196" y="27.648" style="fill: #f5deb3; stroke: #f5deb3; stroke-width: 1.5; stroke-linejoin: miter"/>
     <use xlink:href="#mecd592eaf7" x="134.725196" y="27.648" style="fill: #f5deb3; stroke: #f5deb3; stroke-width: 1.5; stroke-linejoin: miter"/>
     <use xlink:href="#mecd592eaf7" x="360.8064" y="27.648" style="fill: #f5deb3; stroke: #f5deb3; stroke-width: 1.5; stroke-linejoin: miter"/>
    </g>
   </g>
   <g id="line2d_3">
    <path style="fill: none; stroke: #f5deb3; stroke-width: 4; stroke-linecap: square"/>
    <g/>
   </g>
   <g id="line2d_4">
    <path d="M 360.8064 27.648 
L 380.514816 33.07392 
" style="fill: none; stroke: #f5deb3; stroke-width: 4; stroke-linecap: square"/>
    <g>
     <use xlink:href="#mecd592eaf7" x="360.8064" y="27.648" style="fill: #f5deb3; stroke: #f5deb3; stroke-width: 1.5; stroke-linejoin: miter"/>
     <use xlink:href="#mecd592eaf7" x="380.514816" y="33.07392" style="fill: #f5deb3; stroke: #f5deb3; stroke-width: 1.5; stroke-linejoin: miter"/>
    </g>
   </g>
   <g id="matplotlib.axis_1">
    <g id="xtick_1">
     <g id="line2d_5">
      <path d="M 57.6 298.944 
L 57.6 27.648 
" clip-path="url(#p40d5db3afe)" style="fill: none; stroke: #b0b0b0; stroke-width: 0.8; stroke-linecap: square"/>
     </g>
     <g id="line2d_6">
      <defs>
       <path id="ma753a0f917" d="M 0 0 
L 0 3.5 
" style="stroke: #000000; stroke-width: 0.8"/>
      </defs>
      <g>
       <use xlink:href="#ma753a0f917" x="57.6" y="298.944" style="stroke: #000000; stroke-width: 0.8"/>
      </g>
     </g>
     <g id="text_1">
      <!-- 0 -->
      <g transform="translate(52.191875 318.861344)scale(0.17 -0.17)">
       <defs>
        <path id="DejaVuSans-30" d="M 2034 4250 
Q 1547 4250 1301 3770 
Q 1056 3291 1056 2328 
Q 1056 1369 1301 889 
Q 1547 409 2034 409 
Q 2525 409 2770 889 
Q 3016 1369 3016 2328 
Q 3016 3291 2770 3770 
Q 2525 4250 2034 4250 
z
M 2034 4750 
Q 2819 4750 3233 4129 
Q 3647 3509 3647 2328 
Q 3647 1150 3233 529 
Q 2819 -91 2034 -91 
Q 1250 -91 836 529 
Q 422 1150 422 2328 
Q 422 3509 836 4129 
Q 1250 4750 2034 4750 
z
" transform="scale(0.015625)"/>
       </defs>
       <use xlink:href="#DejaVuSans-30"/>
      </g>
     </g>
    </g>
    <g id="xtick_2">
     <g id="line2d_7">
      <path d="M 144.2304 298.944 
L 144.2304 27.648 
" clip-path="url(#p40d5db3afe)" style="fill: none; stroke: #b0b0b0; stroke-width: 0.8; stroke-linecap: square"/>
     </g>
     <g id="line2d_8">
      <g>
       <use xlink:href="#ma753a0f917" x="144.2304" y="298.944" style="stroke: #000000; stroke-width: 0.8"/>
      </g>
     </g>
     <g id="text_2">
      <!-- 2 -->
      <g transform="translate(138.822275 318.861344)scale(0.17 -0.17)">
       <defs>
        <path id="DejaVuSans-32" d="M 1228 531 
L 3431 531 
L 3431 0 
L 469 0 
L 469 531 
Q 828 903 1448 1529 
Q 2069 2156 2228 2338 
Q 2531 2678 2651 2914 
Q 2772 3150 2772 3378 
Q 2772 3750 2511 3984 
Q 2250 4219 1831 4219 
Q 1534 4219 1204 4116 
Q 875 4013 500 3803 
L 500 4441 
Q 881 4594 1212 4672 
Q 1544 4750 1819 4750 
Q 2544 4750 2975 4387 
Q 3406 4025 3406 3419 
Q 3406 3131 3298 2873 
Q 3191 2616 2906 2266 
Q 2828 2175 2409 1742 
Q 1991 1309 1228 531 
z
" transform="scale(0.015625)"/>
       </defs>
       <use xlink:href="#DejaVuSans-32"/>
      </g>
     </g>
    </g>
    <g id="xtick_3">
     <g id="line2d_9">
      <path d="M 230.8608 298.944 
L 230.8608 27.648 
" clip-path="url(#p40d5db3afe)" style="fill: none; stroke: #b0b0b0; stroke-width: 0.8; stroke-linecap: square"/>
     </g>
     <g id="line2d_10">
      <g>
       <use xlink:href="#ma753a0f917" x="230.8608" y="298.944" style="stroke: #000000; stroke-width: 0.8"/>
      </g>
     </g>
     <g id="text_3">
      <!-- 4 -->
      <g transform="translate(225.452675 318.861344)scale(0.17 -0.17)">
       <defs>
        <path id="DejaVuSans-34" d="M 2419 4116 
L 825 1625 
L 2419 1625 
L 2419 4116 
z
M 2253 4666 
L 3047 4666 
L 3047 1625 
L 3713 1625 
L 3713 1100 
L 3047 1100 
L 3047 0 
L 2419 0 
L 2419 1100 
L 313 1100 
L 313 1709 
L 2253 4666 
z
" transform="scale(0.015625)"/>
       </defs>
       <use xlink:href="#DejaVuSans-34"/>
      </g>
     </g>
    </g>
    <g id="xtick_4">
     <g id="line2d_11">
      <path d="M 317.4912 298.944 
L 317.4912 27.648 
" clip-path="url(#p40d5db3afe)" style="fill: none; stroke: #b0b0b0; stroke-width: 0.8; stroke-linecap: square"/>
     </g>
     <g id="line2d_12">
      <g>
       <use xlink:href="#ma753a0f917" x="317.4912" y="298.944" style="stroke: #000000; stroke-width: 0.8"/>
      </g>
     </g>
     <g id="text_4">
      <!-- 6 -->
      <g transform="translate(312.083075 318.861344)scale(0.17 -0.17)">
       <defs>
        <path id="DejaVuSans-36" d="M 2113 2584 
Q 1688 2584 1439 2293 
Q 1191 2003 1191 1497 
Q 1191 994 1439 701 
Q 1688 409 2113 409 
Q 2538 409 2786 701 
Q 3034 994 3034 1497 
Q 3034 2003 2786 2293 
Q 2538 2584 2113 2584 
z
M 3366 4563 
L 3366 3988 
Q 3128 4100 2886 4159 
Q 2644 4219 2406 4219 
Q 1781 4219 1451 3797 
Q 1122 3375 1075 2522 
Q 1259 2794 1537 2939 
Q 1816 3084 2150 3084 
Q 2853 3084 3261 2657 
Q 3669 2231 3669 1497 
Q 3669 778 3244 343 
Q 2819 -91 2113 -91 
Q 1303 -91 875 529 
Q 447 1150 447 2328 
Q 447 3434 972 4092 
Q 1497 4750 2381 4750 
Q 2619 4750 2861 4703 
Q 3103 4656 3366 4563 
z
" transform="scale(0.015625)"/>
       </defs>
       <use xlink:href="#DejaVuSans-36"/>
      </g>
     </g>
    </g>
    <g id="xtick_5">
     <g id="line2d_13">
      <path d="M 100.9152 298.944 
L 100.9152 27.648 
" clip-path="url(#p40d5db3afe)" style="fill: none; stroke: #b0b0b0; stroke-width: 0.8; stroke-linecap: square"/>
     </g>
     <g id="line2d_14">
      <defs>
       <path id="m28420d20f5" d="M 0 0 
L 0 2 
" style="stroke: #000000; stroke-width: 0.6"/>
      </defs>
      <g>
       <use xlink:href="#m28420d20f5" x="100.9152" y="298.944" style="stroke: #000000; stroke-width: 0.6"/>
      </g>
     </g>
    </g>
    <g id="xtick_6">
     <g id="line2d_15">
      <path d="M 187.5456 298.944 
L 187.5456 27.648 
" clip-path="url(#p40d5db3afe)" style="fill: none; stroke: #b0b0b0; stroke-width: 0.8; stroke-linecap: square"/>
     </g>
     <g id="line2d_16">
      <g>
       <use xlink:href="#m28420d20f5" x="187.5456" y="298.944" style="stroke: #000000; stroke-width: 0.6"/>
      </g>
     </g>
    </g>
    <g id="xtick_7">
     <g id="line2d_17">
      <path d="M 274.176 298.944 
L 274.176 27.648 
" clip-path="url(#p40d5db3afe)" style="fill: none; stroke: #b0b0b0; stroke-width: 0.8; stroke-linecap: square"/>
     </g>
     <g id="line2d_18">
      <g>
       <use xlink:href="#m28420d20f5" x="274.176" y="298.944" style="stroke: #000000; stroke-width: 0.6"/>
      </g>
     </g>
    </g>
    <g id="xtick_8">
     <g id="line2d_19">
      <path d="M 360.8064 298.944 
L 360.8064 27.648 
" clip-path="url(#p40d5db3afe)" style="fill: none; stroke: #b0b0b0; stroke-width: 0.8; stroke-linecap: square"/>
     </g>
     <g id="line2d_20">
      <g>
       <use xlink:href="#m28420d20f5" x="360.8064" y="298.944" style="stroke: #000000; stroke-width: 0.6"/>
      </g>
     </g>
    </g>
    <g id="text_5">
     <!-- log10(# f-evals / dimension) -->
     <g transform="translate(88.823278 339.314156)scale(0.17 -0.17)">
      <defs>
       <path id="DejaVuSans-6c" d="M 603 4863 
L 1178 4863 
L 1178 0 
L 603 0 
L 603 4863 
z
" transform="scale(0.015625)"/>
       <path id="DejaVuSans-6f" d="M 1959 3097 
Q 1497 3097 1228 2736 
Q 959 2375 959 1747 
Q 959 1119 1226 758 
Q 1494 397 1959 397 
Q 2419 397 2687 759 
Q 2956 1122 2956 1747 
Q 2956 2369 2687 2733 
Q 2419 3097 1959 3097 
z
M 1959 3584 
Q 2709 3584 3137 3096 
Q 3566 2609 3566 1747 
Q 3566 888 3137 398 
Q 2709 -91 1959 -91 
Q 1206 -91 779 398 
Q 353 888 353 1747 
Q 353 2609 779 3096 
Q 1206 3584 1959 3584 
z
" transform="scale(0.015625)"/>
       <path id="DejaVuSans-67" d="M 2906 1791 
Q 2906 2416 2648 2759 
Q 2391 3103 1925 3103 
Q 1463 3103 1205 2759 
Q 947 2416 947 1791 
Q 947 1169 1205 825 
Q 1463 481 1925 481 
Q 2391 481 2648 825 
Q 2906 1169 2906 1791 
z
M 3481 434 
Q 3481 -459 3084 -895 
Q 2688 -1331 1869 -1331 
Q 1566 -1331 1297 -1286 
Q 1028 -1241 775 -1147 
L 775 -588 
Q 1028 -725 1275 -790 
Q 1522 -856 1778 -856 
Q 2344 -856 2625 -561 
Q 2906 -266 2906 331 
L 2906 616 
Q 2728 306 2450 153 
Q 2172 0 1784 0 
Q 1141 0 747 490 
Q 353 981 353 1791 
Q 353 2603 747 3093 
Q 1141 3584 1784 3584 
Q 2172 3584 2450 3431 
Q 2728 3278 2906 2969 
L 2906 3500 
L 3481 3500 
L 3481 434 
z
" transform="scale(0.015625)"/>
       <path id="DejaVuSans-31" d="M 794 531 
L 1825 531 
L 1825 4091 
L 703 3866 
L 703 4441 
L 1819 4666 
L 2450 4666 
L 2450 531 
L 3481 531 
L 3481 0 
L 794 0 
L 794 531 
z
" transform="scale(0.015625)"/>
       <path id="DejaVuSans-28" d="M 1984 4856 
Q 1566 4138 1362 3434 
Q 1159 2731 1159 2009 
Q 1159 1288 1364 580 
Q 1569 -128 1984 -844 
L 1484 -844 
Q 1016 -109 783 600 
Q 550 1309 550 2009 
Q 550 2706 781 3412 
Q 1013 4119 1484 4856 
L 1984 4856 
z
" transform="scale(0.015625)"/>
       <path id="DejaVuSans-23" d="M 3272 2816 
L 2363 2816 
L 2100 1772 
L 3016 1772 
L 3272 2816 
z
M 2803 4594 
L 2478 3297 
L 3391 3297 
L 3719 4594 
L 4219 4594 
L 3897 3297 
L 4872 3297 
L 4872 2816 
L 3775 2816 
L 3519 1772 
L 4513 1772 
L 4513 1294 
L 3397 1294 
L 3072 0 
L 2572 0 
L 2894 1294 
L 1978 1294 
L 1656 0 
L 1153 0 
L 1478 1294 
L 494 1294 
L 494 1772 
L 1594 1772 
L 1856 2816 
L 850 2816 
L 850 3297 
L 1978 3297 
L 2297 4594 
L 2803 4594 
z
" transform="scale(0.015625)"/>
       <path id="DejaVuSans-20" transform="scale(0.015625)"/>
       <path id="DejaVuSans-66" d="M 2375 4863 
L 2375 4384 
L 1825 4384 
Q 1516 4384 1395 4259 
Q 1275 4134 1275 3809 
L 1275 3500 
L 2222 3500 
L 2222 3053 
L 1275 3053 
L 1275 0 
L 697 0 
L 697 3053 
L 147 3053 
L 147 3500 
L 697 3500 
L 697 3744 
Q 697 4328 969 4595 
Q 1241 4863 1831 4863 
L 2375 4863 
z
" transform="scale(0.015625)"/>
       <path id="DejaVuSans-2d" d="M 313 2009 
L 1997 2009 
L 1997 1497 
L 313 1497 
L 313 2009 
z
" transform="scale(0.015625)"/>
       <path id="DejaVuSans-65" d="M 3597 1894 
L 3597 1613 
L 953 1613 
Q 991 1019 1311 708 
Q 1631 397 2203 397 
Q 2534 397 2845 478 
Q 3156 559 3463 722 
L 3463 178 
Q 3153 47 2828 -22 
Q 2503 -91 2169 -91 
Q 1331 -91 842 396 
Q 353 884 353 1716 
Q 353 2575 817 3079 
Q 1281 3584 2069 3584 
Q 2775 3584 3186 3129 
Q 3597 2675 3597 1894 
z
M 3022 2063 
Q 3016 2534 2758 2815 
Q 2500 3097 2075 3097 
Q 1594 3097 1305 2825 
Q 1016 2553 972 2059 
L 3022 2063 
z
" transform="scale(0.015625)"/>
       <path id="DejaVuSans-76" d="M 191 3500 
L 800 3500 
L 1894 563 
L 2988 3500 
L 3597 3500 
L 2284 0 
L 1503 0 
L 191 3500 
z
" transform="scale(0.015625)"/>
       <path id="DejaVuSans-61" d="M 2194 1759 
Q 1497 1759 1228 1600 
Q 959 1441 959 1056 
Q 959 750 1161 570 
Q 1363 391 1709 391 
Q 2188 391 2477 730 
Q 2766 1069 2766 1631 
L 2766 1759 
L 2194 1759 
z
M 3341 1997 
L 3341 0 
L 2766 0 
L 2766 531 
Q 2569 213 2275 61 
Q 1981 -91 1556 -91 
Q 1019 -91 701 211 
Q 384 513 384 1019 
Q 384 1609 779 1909 
Q 1175 2209 1959 2209 
L 2766 2209 
L 2766 2266 
Q 2766 2663 2505 2880 
Q 2244 3097 1772 3097 
Q 1472 3097 1187 3025 
Q 903 2953 641 2809 
L 641 3341 
Q 956 3463 1253 3523 
Q 1550 3584 1831 3584 
Q 2591 3584 2966 3190 
Q 3341 2797 3341 1997 
z
" transform="scale(0.015625)"/>
       <path id="DejaVuSans-73" d="M 2834 3397 
L 2834 2853 
Q 2591 2978 2328 3040 
Q 2066 3103 1784 3103 
Q 1356 3103 1142 2972 
Q 928 2841 928 2578 
Q 928 2378 1081 2264 
Q 1234 2150 1697 2047 
L 1894 2003 
Q 2506 1872 2764 1633 
Q 3022 1394 3022 966 
Q 3022 478 2636 193 
Q 2250 -91 1575 -91 
Q 1294 -91 989 -36 
Q 684 19 347 128 
L 347 722 
Q 666 556 975 473 
Q 1284 391 1588 391 
Q 1994 391 2212 530 
Q 2431 669 2431 922 
Q 2431 1156 2273 1281 
Q 2116 1406 1581 1522 
L 1381 1569 
Q 847 1681 609 1914 
Q 372 2147 372 2553 
Q 372 3047 722 3315 
Q 1072 3584 1716 3584 
Q 2034 3584 2315 3537 
Q 2597 3491 2834 3397 
z
" transform="scale(0.015625)"/>
       <path id="DejaVuSans-2f" d="M 1625 4666 
L 2156 4666 
L 531 -594 
L 0 -594 
L 1625 4666 
z
" transform="scale(0.015625)"/>
       <path id="DejaVuSans-64" d="M 2906 2969 
L 2906 4863 
L 3481 4863 
L 3481 0 
L 2906 0 
L 2906 525 
Q 2725 213 2448 61 
Q 2172 -91 1784 -91 
Q 1150 -91 751 415 
Q 353 922 353 1747 
Q 353 2572 751 3078 
Q 1150 3584 1784 3584 
Q 2172 3584 2448 3432 
Q 2725 3281 2906 2969 
z
M 947 1747 
Q 947 1113 1208 752 
Q 1469 391 1925 391 
Q 2381 391 2643 752 
Q 2906 1113 2906 1747 
Q 2906 2381 2643 2742 
Q 2381 3103 1925 3103 
Q 1469 3103 1208 2742 
Q 947 2381 947 1747 
z
" transform="scale(0.015625)"/>
       <path id="DejaVuSans-69" d="M 603 3500 
L 1178 3500 
L 1178 0 
L 603 0 
L 603 3500 
z
M 603 4863 
L 1178 4863 
L 1178 4134 
L 603 4134 
L 603 4863 
z
" transform="scale(0.015625)"/>
       <path id="DejaVuSans-6d" d="M 3328 2828 
Q 3544 3216 3844 3400 
Q 4144 3584 4550 3584 
Q 5097 3584 5394 3201 
Q 5691 2819 5691 2113 
L 5691 0 
L 5113 0 
L 5113 2094 
Q 5113 2597 4934 2840 
Q 4756 3084 4391 3084 
Q 3944 3084 3684 2787 
Q 3425 2491 3425 1978 
L 3425 0 
L 2847 0 
L 2847 2094 
Q 2847 2600 2669 2842 
Q 2491 3084 2119 3084 
Q 1678 3084 1418 2786 
Q 1159 2488 1159 1978 
L 1159 0 
L 581 0 
L 581 3500 
L 1159 3500 
L 1159 2956 
Q 1356 3278 1631 3431 
Q 1906 3584 2284 3584 
Q 2666 3584 2933 3390 
Q 3200 3197 3328 2828 
z
" transform="scale(0.015625)"/>
       <path id="DejaVuSans-6e" d="M 3513 2113 
L 3513 0 
L 2938 0 
L 2938 2094 
Q 2938 2591 2744 2837 
Q 2550 3084 2163 3084 
Q 1697 3084 1428 2787 
Q 1159 2491 1159 1978 
L 1159 0 
L 581 0 
L 581 3500 
L 1159 3500 
L 1159 2956 
Q 1366 3272 1645 3428 
Q 1925 3584 2291 3584 
Q 2894 3584 3203 3211 
Q 3513 2838 3513 2113 
z
" transform="scale(0.015625)"/>
       <path id="DejaVuSans-29" d="M 513 4856 
L 1013 4856 
Q 1481 4119 1714 3412 
Q 1947 2706 1947 2009 
Q 1947 1309 1714 600 
Q 1481 -109 1013 -844 
L 513 -844 
Q 928 -128 1133 580 
Q 1338 1288 1338 2009 
Q 1338 2731 1133 3434 
Q 928 4138 513 4856 
z
" transform="scale(0.015625)"/>
      </defs>
      <use xlink:href="#DejaVuSans-6c"/>
      <use xlink:href="#DejaVuSans-6f" x="27.783203"/>
      <use xlink:href="#DejaVuSans-67" x="88.964844"/>
      <use xlink:href="#DejaVuSans-31" x="152.441406"/>
      <use xlink:href="#DejaVuSans-30" x="216.064453"/>
      <use xlink:href="#DejaVuSans-28" x="279.6875"/>
      <use xlink:href="#DejaVuSans-23" x="318.701172"/>
      <use xlink:href="#DejaVuSans-20" x="402.490234"/>
      <use xlink:href="#DejaVuSans-66" x="434.277344"/>
      <use xlink:href="#DejaVuSans-2d" x="463.982422"/>
      <use xlink:href="#DejaVuSans-65" x="500.066406"/>
      <use xlink:href="#DejaVuSans-76" x="561.589844"/>
      <use xlink:href="#DejaVuSans-61" x="620.769531"/>
      <use xlink:href="#DejaVuSans-6c" x="682.048828"/>
      <use xlink:href="#DejaVuSans-73" x="709.832031"/>
      <use xlink:href="#DejaVuSans-20" x="761.931641"/>
      <use xlink:href="#DejaVuSans-2f" x="793.71875"/>
      <use xlink:href="#DejaVuSans-20" x="827.410156"/>
      <use xlink:href="#DejaVuSans-64" x="859.197266"/>
      <use xlink:href="#DejaVuSans-69" x="922.673828"/>
      <use xlink:href="#DejaVuSans-6d" x="950.457031"/>
      <use xlink:href="#DejaVuSans-65" x="1047.869141"/>
      <use xlink:href="#DejaVuSans-6e" x="1109.392578"/>
      <use xlink:href="#DejaVuSans-73" x="1172.771484"/>
      <use xlink:href="#DejaVuSans-69" x="1224.871094"/>
      <use xlink:href="#DejaVuSans-6f" x="1252.654297"/>
      <use xlink:href="#DejaVuSans-6e" x="1313.835938"/>
      <use xlink:href="#DejaVuSans-29" x="1377.214844"/>
     </g>
    </g>
   </g>
   <g id="matplotlib.axis_2">
    <g id="ytick_1">
     <g id="line2d_21">
      <path d="M 57.6 298.944 
L 360.8064 298.944 
" clip-path="url(#p40d5db3afe)" style="fill: none; stroke: #b0b0b0; stroke-width: 0.8; stroke-linecap: square"/>
     </g>
     <g id="line2d_22">
      <defs>
       <path id="mc7b76fcebe" d="M 0 0 
L -3.5 0 
" style="stroke: #000000; stroke-width: 0.8"/>
      </defs>
      <g>
       <use xlink:href="#mc7b76fcebe" x="57.6" y="298.944" style="stroke: #000000; stroke-width: 0.8"/>
      </g>
     </g>
     <g id="text_6">
      <!-- 0.0 -->
      <g transform="translate(25.155 305.02275)scale(0.16 -0.16)">
       <defs>
        <path id="DejaVuSans-2e" d="M 684 794 
L 1344 794 
L 1344 0 
L 684 0 
L 684 794 
z
" transform="scale(0.015625)"/>
       </defs>
       <use xlink:href="#DejaVuSans-30"/>
       <use xlink:href="#DejaVuSans-2e" x="63.623047"/>
       <use xlink:href="#DejaVuSans-30" x="95.410156"/>
      </g>
     </g>
    </g>
    <g id="ytick_2">
     <g id="line2d_23">
      <path d="M 57.6 244.6848 
L 360.8064 244.6848 
" clip-path="url(#p40d5db3afe)" style="fill: none; stroke: #b0b0b0; stroke-width: 0.8; stroke-linecap: square"/>
     </g>
     <g id="line2d_24">
      <g>
       <use xlink:href="#mc7b76fcebe" x="57.6" y="244.6848" style="stroke: #000000; stroke-width: 0.8"/>
      </g>
     </g>
     <g id="text_7">
      <!-- 0.2 -->
      <g transform="translate(25.155 250.76355)scale(0.16 -0.16)">
       <use xlink:href="#DejaVuSans-30"/>
       <use xlink:href="#DejaVuSans-2e" x="63.623047"/>
       <use xlink:href="#DejaVuSans-32" x="95.410156"/>
      </g>
     </g>
    </g>
    <g id="ytick_3">
     <g id="line2d_25">
      <path d="M 57.6 190.4256 
L 360.8064 190.4256 
" clip-path="url(#p40d5db3afe)" style="fill: none; stroke: #b0b0b0; stroke-width: 0.8; stroke-linecap: square"/>
     </g>
     <g id="line2d_26">
      <g>
       <use xlink:href="#mc7b76fcebe" x="57.6" y="190.4256" style="stroke: #000000; stroke-width: 0.8"/>
      </g>
     </g>
     <g id="text_8">
      <!-- 0.4 -->
      <g transform="translate(25.155 196.50435)scale(0.16 -0.16)">
       <use xlink:href="#DejaVuSans-30"/>
       <use xlink:href="#DejaVuSans-2e" x="63.623047"/>
       <use xlink:href="#DejaVuSans-34" x="95.410156"/>
      </g>
     </g>
    </g>
    <g id="ytick_4">
     <g id="line2d_27">
      <path d="M 57.6 136.1664 
L 360.8064 136.1664 
" clip-path="url(#p40d5db3afe)" style="fill: none; stroke: #b0b0b0; stroke-width: 0.8; stroke-linecap: square"/>
     </g>
     <g id="line2d_28">
      <g>
       <use xlink:href="#mc7b76fcebe" x="57.6" y="136.1664" style="stroke: #000000; stroke-width: 0.8"/>
      </g>
     </g>
     <g id="text_9">
      <!-- 0.6 -->
      <g transform="translate(25.155 142.24515)scale(0.16 -0.16)">
       <use xlink:href="#DejaVuSans-30"/>
       <use xlink:href="#DejaVuSans-2e" x="63.623047"/>
       <use xlink:href="#DejaVuSans-36" x="95.410156"/>
      </g>
     </g>
    </g>
    <g id="ytick_5">
     <g id="line2d_29">
      <path d="M 57.6 81.9072 
L 360.8064 81.9072 
" clip-path="url(#p40d5db3afe)" style="fill: none; stroke: #b0b0b0; stroke-width: 0.8; stroke-linecap: square"/>
     </g>
     <g id="line2d_30">
      <g>
       <use xlink:href="#mc7b76fcebe" x="57.6" y="81.9072" style="stroke: #000000; stroke-width: 0.8"/>
      </g>
     </g>
     <g id="text_10">
      <!-- 0.8 -->
      <g transform="translate(25.155 87.98595)scale(0.16 -0.16)">
       <defs>
        <path id="DejaVuSans-38" d="M 2034 2216 
Q 1584 2216 1326 1975 
Q 1069 1734 1069 1313 
Q 1069 891 1326 650 
Q 1584 409 2034 409 
Q 2484 409 2743 651 
Q 3003 894 3003 1313 
Q 3003 1734 2745 1975 
Q 2488 2216 2034 2216 
z
M 1403 2484 
Q 997 2584 770 2862 
Q 544 3141 544 3541 
Q 544 4100 942 4425 
Q 1341 4750 2034 4750 
Q 2731 4750 3128 4425 
Q 3525 4100 3525 3541 
Q 3525 3141 3298 2862 
Q 3072 2584 2669 2484 
Q 3125 2378 3379 2068 
Q 3634 1759 3634 1313 
Q 3634 634 3220 271 
Q 2806 -91 2034 -91 
Q 1263 -91 848 271 
Q 434 634 434 1313 
Q 434 1759 690 2068 
Q 947 2378 1403 2484 
z
M 1172 3481 
Q 1172 3119 1398 2916 
Q 1625 2713 2034 2713 
Q 2441 2713 2670 2916 
Q 2900 3119 2900 3481 
Q 2900 3844 2670 4047 
Q 2441 4250 2034 4250 
Q 1625 4250 1398 4047 
Q 1172 3844 1172 3481 
z
" transform="scale(0.015625)"/>
       </defs>
       <use xlink:href="#DejaVuSans-30"/>
       <use xlink:href="#DejaVuSans-2e" x="63.623047"/>
       <use xlink:href="#DejaVuSans-38" x="95.410156"/>
      </g>
     </g>
    </g>
    <g id="ytick_6">
     <g id="line2d_31">
      <path d="M 57.6 27.648 
L 360.8064 27.648 
" clip-path="url(#p40d5db3afe)" style="fill: none; stroke: #b0b0b0; stroke-width: 0.8; stroke-linecap: square"/>
     </g>
     <g id="line2d_32">
      <g>
       <use xlink:href="#mc7b76fcebe" x="57.6" y="27.648" style="stroke: #000000; stroke-width: 0.8"/>
      </g>
     </g>
     <g id="text_11">
      <!-- 1.0 -->
      <g transform="translate(25.155 33.72675)scale(0.16 -0.16)">
       <use xlink:href="#DejaVuSans-31"/>
       <use xlink:href="#DejaVuSans-2e" x="63.623047"/>
       <use xlink:href="#DejaVuSans-30" x="95.410156"/>
      </g>
     </g>
    </g>
    <g id="text_12">
     <!-- Fraction of function,target pairs -->
     <g transform="translate(17.619531 297.681)rotate(-90)scale(0.17 -0.17)">
      <defs>
       <path id="DejaVuSans-46" d="M 628 4666 
L 3309 4666 
L 3309 4134 
L 1259 4134 
L 1259 2759 
L 3109 2759 
L 3109 2228 
L 1259 2228 
L 1259 0 
L 628 0 
L 628 4666 
z
" transform="scale(0.015625)"/>
       <path id="DejaVuSans-72" d="M 2631 2963 
Q 2534 3019 2420 3045 
Q 2306 3072 2169 3072 
Q 1681 3072 1420 2755 
Q 1159 2438 1159 1844 
L 1159 0 
L 581 0 
L 581 3500 
L 1159 3500 
L 1159 2956 
Q 1341 3275 1631 3429 
Q 1922 3584 2338 3584 
Q 2397 3584 2469 3576 
Q 2541 3569 2628 3553 
L 2631 2963 
z
" transform="scale(0.015625)"/>
       <path id="DejaVuSans-63" d="M 3122 3366 
L 3122 2828 
Q 2878 2963 2633 3030 
Q 2388 3097 2138 3097 
Q 1578 3097 1268 2742 
Q 959 2388 959 1747 
Q 959 1106 1268 751 
Q 1578 397 2138 397 
Q 2388 397 2633 464 
Q 2878 531 3122 666 
L 3122 134 
Q 2881 22 2623 -34 
Q 2366 -91 2075 -91 
Q 1284 -91 818 406 
Q 353 903 353 1747 
Q 353 2603 823 3093 
Q 1294 3584 2113 3584 
Q 2378 3584 2631 3529 
Q 2884 3475 3122 3366 
z
" transform="scale(0.015625)"/>
       <path id="DejaVuSans-74" d="M 1172 4494 
L 1172 3500 
L 2356 3500 
L 2356 3053 
L 1172 3053 
L 1172 1153 
Q 1172 725 1289 603 
Q 1406 481 1766 481 
L 2356 481 
L 2356 0 
L 1766 0 
Q 1100 0 847 248 
Q 594 497 594 1153 
L 594 3053 
L 172 3053 
L 172 3500 
L 594 3500 
L 594 4494 
L 1172 4494 
z
" transform="scale(0.015625)"/>
       <path id="DejaVuSans-75" d="M 544 1381 
L 544 3500 
L 1119 3500 
L 1119 1403 
Q 1119 906 1312 657 
Q 1506 409 1894 409 
Q 2359 409 2629 706 
Q 2900 1003 2900 1516 
L 2900 3500 
L 3475 3500 
L 3475 0 
L 2900 0 
L 2900 538 
Q 2691 219 2414 64 
Q 2138 -91 1772 -91 
Q 1169 -91 856 284 
Q 544 659 544 1381 
z
M 1991 3584 
L 1991 3584 
z
" transform="scale(0.015625)"/>
       <path id="DejaVuSans-2c" d="M 750 794 
L 1409 794 
L 1409 256 
L 897 -744 
L 494 -744 
L 750 256 
L 750 794 
z
" transform="scale(0.015625)"/>
       <path id="DejaVuSans-70" d="M 1159 525 
L 1159 -1331 
L 581 -1331 
L 581 3500 
L 1159 3500 
L 1159 2969 
Q 1341 3281 1617 3432 
Q 1894 3584 2278 3584 
Q 2916 3584 3314 3078 
Q 3713 2572 3713 1747 
Q 3713 922 3314 415 
Q 2916 -91 2278 -91 
Q 1894 -91 1617 61 
Q 1341 213 1159 525 
z
M 3116 1747 
Q 3116 2381 2855 2742 
Q 2594 3103 2138 3103 
Q 1681 3103 1420 2742 
Q 1159 2381 1159 1747 
Q 1159 1113 1420 752 
Q 1681 391 2138 391 
Q 2594 391 2855 752 
Q 3116 1113 3116 1747 
z
" transform="scale(0.015625)"/>
      </defs>
      <use xlink:href="#DejaVuSans-46"/>
      <use xlink:href="#DejaVuSans-72" x="50.269531"/>
      <use xlink:href="#DejaVuSans-61" x="91.382812"/>
      <use xlink:href="#DejaVuSans-63" x="152.662109"/>
      <use xlink:href="#DejaVuSans-74" x="207.642578"/>
      <use xlink:href="#DejaVuSans-69" x="246.851562"/>
      <use xlink:href="#DejaVuSans-6f" x="274.634766"/>
      <use xlink:href="#DejaVuSans-6e" x="335.816406"/>
      <use xlink:href="#DejaVuSans-20" x="399.195312"/>
      <use xlink:href="#DejaVuSans-6f" x="430.982422"/>
      <use xlink:href="#DejaVuSans-66" x="492.164062"/>
      <use xlink:href="#DejaVuSans-20" x="527.369141"/>
      <use xlink:href="#DejaVuSans-66" x="559.15625"/>
      <use xlink:href="#DejaVuSans-75" x="594.361328"/>
      <use xlink:href="#DejaVuSans-6e" x="657.740234"/>
      <use xlink:href="#DejaVuSans-63" x="721.119141"/>
      <use xlink:href="#DejaVuSans-74" x="776.099609"/>
      <use xlink:href="#DejaVuSans-69" x="815.308594"/>
      <use xlink:href="#DejaVuSans-6f" x="843.091797"/>
      <use xlink:href="#DejaVuSans-6e" x="904.273438"/>
      <use xlink:href="#DejaVuSans-2c" x="967.652344"/>
      <use xlink:href="#DejaVuSans-74" x="999.439453"/>
      <use xlink:href="#DejaVuSans-61" x="1038.648438"/>
      <use xlink:href="#DejaVuSans-72" x="1099.927734"/>
      <use xlink:href="#DejaVuSans-67" x="1139.291016"/>
      <use xlink:href="#DejaVuSans-65" x="1202.767578"/>
      <use xlink:href="#DejaVuSans-74" x="1264.291016"/>
      <use xlink:href="#DejaVuSans-20" x="1303.5"/>
      <use xlink:href="#DejaVuSans-70" x="1335.287109"/>
      <use xlink:href="#DejaVuSans-61" x="1398.763672"/>
      <use xlink:href="#DejaVuSans-69" x="1460.042969"/>
      <use xlink:href="#DejaVuSans-72" x="1487.826172"/>
      <use xlink:href="#DejaVuSans-73" x="1528.939453"/>
     </g>
    </g>
   </g>
   <g id="line2d_33">
    <defs>
     <path id="m75c14e3d63" d="M 0 1.5 
C 0.397805 1.5 0.77937 1.341951 1.06066 1.06066 
C 1.341951 0.77937 1.5 0.397805 1.5 0 
C 1.5 -0.397805 1.341951 -0.77937 1.06066 -1.06066 
C 0.77937 -1.341951 0.397805 -1.5 0 -1.5 
C -0.397805 -1.5 -0.77937 -1.341951 -1.06066 -1.06066 
C -1.341951 -0.77937 -1.5 -0.397805 -1.5 0 
C -1.5 0.397805 -1.341951 0.77937 -1.06066 1.06066 
C -0.77937 1.341951 -0.397805 1.5 0 1.5 
z
" style="stroke: #f5deb3"/>
    </defs>
    <g>
     <use xlink:href="#m75c14e3d63" x="134.725196" y="27.648" style="fill: #f5deb3; stroke: #f5deb3"/>
     <use xlink:href="#m75c14e3d63" x="134.725196" y="27.648" style="fill: #f5deb3; stroke: #f5deb3"/>
    </g>
   </g>
   <g id="line2d_34">
    <defs>
     <path id="m10c32afd70" d="M 0 1.5 
C 0.397805 1.5 0.77937 1.341951 1.06066 1.06066 
C 1.341951 0.77937 1.5 0.397805 1.5 0 
C 1.5 -0.397805 1.341951 -0.77937 1.06066 -1.06066 
C 0.77937 -1.341951 0.397805 -1.5 0 -1.5 
C -0.397805 -1.5 -0.77937 -1.341951 -1.06066 -1.06066 
C -1.341951 -0.77937 -1.5 -0.397805 -1.5 0 
C -1.5 0.397805 -1.341951 0.77937 -1.06066 1.06066 
C -0.77937 1.341951 -0.397805 1.5 0 1.5 
z
" style="stroke: #000080"/>
    </defs>
    <g>
     <use xlink:href="#m10c32afd70" x="260.827288" y="27.648" style="fill: #000080; stroke: #000080"/>
     <use xlink:href="#m10c32afd70" x="260.827288" y="27.648" style="fill: #000080; stroke: #000080"/>
    </g>
   </g>
   <g id="line2d_35">
    <path d="M 85.184077 298.944 
L 85.184077 298.589365 
L 108.119879 298.589365 
L 108.119879 298.234729 
L 110.144579 298.234729 
L 110.144579 296.461553 
L 110.897141 296.461553 
L 110.897141 296.106918 
L 113.638206 296.106918 
L 113.638206 295.752282 
L 114.872193 295.752282 
L 114.872193 294.688376 
L 119.366121 294.688376 
L 119.366121 293.624471 
L 120.506564 293.624471 
L 120.506564 291.496659 
L 121.789667 291.496659 
L 121.789667 291.142024 
L 123.183753 291.142024 
L 123.183753 290.078118 
L 124.119844 290.078118 
L 124.119844 289.368847 
L 124.836562 289.368847 
L 124.836562 289.014212 
L 126.192937 289.014212 
L 126.192937 287.595671 
L 126.677381 287.595671 
L 126.677381 286.531765 
L 129.348062 286.531765 
L 129.348062 285.113224 
L 129.622688 285.113224 
L 129.622688 284.403953 
L 130.938718 284.403953 
L 130.938718 284.049318 
L 135.338671 284.049318 
L 135.338671 283.694682 
L 137.067478 283.694682 
L 137.159019 282.630776 
L 137.787626 282.630776 
L 137.787626 281.921506 
L 138.650692 281.921506 
L 138.650692 281.566871 
L 142.661862 281.566871 
L 142.661862 281.212235 
L 143.592659 281.212235 
L 143.592659 280.8576 
L 144.293001 280.8576 
L 144.293001 279.084424 
L 145.207843 279.084424 
L 145.26728 278.020518 
L 145.326529 278.020518 
L 145.326529 277.311247 
L 150.515122 277.311247 
L 150.515122 274.119529 
L 153.914919 274.119529 
L 153.989717 273.055624 
L 154.212341 273.055624 
L 154.322673 270.927812 
L 154.359307 270.927812 
L 154.468783 270.218541 
L 154.577625 270.218541 
L 154.577625 269.509271 
L 155.18278 269.509271 
L 155.217778 268.445365 
L 155.529866 268.445365 
L 155.598521 266.317553 
L 155.666927 266.317553 
L 155.666927 265.962918 
L 155.971711 265.962918 
L 156.038776 263.125835 
L 156.105602 263.125835 
L 156.105602 262.7712 
L 156.468962 262.7712 
L 156.468962 259.934118 
L 156.825436 259.934118 
L 156.825436 259.224847 
L 157.048816 259.224847 
L 157.048816 258.870212 
L 157.332175 258.870212 
L 157.363398 257.806306 
L 157.549652 257.806306 
L 157.549652 257.097035 
L 157.703468 257.097035 
L 157.795157 255.678494 
L 157.946987 255.678494 
L 157.977206 254.969224 
L 158.804221 254.969224 
L 158.861925 253.196047 
L 159.005416 253.196047 
L 159.005416 252.841412 
L 159.204482 252.841412 
L 159.204482 252.486776 
L 159.345393 252.486776 
L 159.345393 251.422871 
L 159.540912 251.422871 
L 159.596403 250.004329 
L 159.761902 250.004329 
L 159.761902 249.649694 
L 159.953161 249.649694 
L 160.061585 248.585788 
L 160.169388 248.585788 
L 160.169388 248.231153 
L 160.409709 248.231153 
L 160.409709 247.521882 
L 160.568234 247.521882 
L 160.568234 245.039435 
L 160.725435 245.039435 
L 160.725435 243.975529 
L 162.515995 243.975529 
L 162.515995 243.620894 
L 163.007676 243.620894 
L 163.007676 243.266259 
L 163.79962 243.266259 
L 163.79962 242.911624 
L 164.194282 242.911624 
L 164.194282 242.556988 
L 164.474253 242.556988 
L 164.474253 242.202353 
L 164.980424 242.202353 
L 164.980424 241.493082 
L 166.537305 241.493082 
L 166.537305 240.783812 
L 167.689013 240.783812 
L 167.689013 240.429176 
L 168.876036 240.429176 
L 168.876036 240.074541 
L 171.136775 240.074541 
L 171.136775 239.719906 
L 172.073157 239.719906 
L 172.073157 239.365271 
L 172.257795 239.365271 
L 172.257795 239.010635 
L 172.454629 239.010635 
L 172.454629 238.656 
L 172.965131 238.656 
L 172.965131 238.301365 
L 173.855707 238.301365 
L 173.855707 237.946729 
L 174.594009 237.946729 
L 174.594009 237.592094 
L 175.388379 237.592094 
L 175.388379 237.237459 
L 175.930944 237.237459 
L 176.000573 236.528188 
L 179.002704 236.528188 
L 179.022444 232.981835 
L 179.470823 232.981835 
L 179.470823 232.272565 
L 181.435472 232.272565 
L 181.435472 231.917929 
L 183.023783 231.917929 
L 183.023783 231.563294 
L 185.24035 231.563294 
L 185.304035 230.854024 
L 187.184741 230.854024 
L 187.184741 230.499388 
L 194.625883 230.499388 
L 194.625883 229.790118 
L 195.442807 229.790118 
L 195.442807 229.435482 
L 195.781763 229.435482 
L 195.781763 229.080847 
L 195.950983 229.080847 
L 195.950983 228.726212 
L 196.663314 228.726212 
L 196.663314 228.371576 
L 198.272436 228.371576 
L 198.272436 228.016941 
L 199.3037 228.016941 
L 199.3037 227.662306 
L 203.562361 227.662306 
L 203.623815 226.5984 
L 204.407525 226.5984 
L 204.407525 225.889129 
L 205.529898 225.889129 
L 205.529898 225.534494 
L 206.720752 225.534494 
L 206.750144 224.825224 
L 206.965777 224.825224 
L 206.965777 224.470588 
L 210.299248 224.470588 
L 210.299248 224.115953 
L 213.034796 224.115953 
L 213.034796 223.761318 
L 215.939692 223.761318 
L 215.939692 223.406682 
L 217.902966 223.406682 
L 217.902966 223.052047 
L 220.889453 223.052047 
L 220.889453 222.697412 
L 221.742374 222.697412 
L 221.742374 222.342776 
L 224.088381 222.342776 
L 224.088381 221.988141 
L 233.030721 221.988141 
L 233.030721 221.633506 
L 234.780021 221.633506 
L 234.780021 221.278871 
L 237.719868 221.278871 
L 237.785508 220.5696 
L 237.993086 220.5696 
L 238.061631 219.151059 
L 238.139723 219.151059 
L 238.204766 218.441788 
L 238.271276 218.441788 
L 238.377542 217.023247 
L 238.430031 217.023247 
L 238.483629 215.604706 
L 238.541244 215.604706 
L 238.647658 212.767624 
L 238.680789 212.767624 
L 238.755534 212.058353 
L 238.874266 212.058353 
L 238.968633 210.994447 
L 238.98859 210.994447 
L 239.079957 209.575906 
L 239.212359 209.575906 
L 239.212359 209.221271 
L 239.343437 209.221271 
L 239.435883 207.802729 
L 239.472417 207.802729 
L 239.583174 204.965647 
L 239.632409 204.965647 
L 239.726972 202.4832 
L 239.895299 202.4832 
L 239.974652 199.291482 
L 240.040589 199.291482 
L 240.125465 197.163671 
L 240.155713 197.163671 
L 240.238168 193.262682 
L 240.31078 193.262682 
L 240.339595 192.198776 
L 240.426152 192.198776 
L 240.526198 190.070965 
L 240.579389 190.070965 
L 240.686809 186.169976 
L 240.70874 186.169976 
L 240.803232 180.141176 
L 240.841635 180.141176 
L 240.935463 177.658729 
L 240.998489 177.658729 
L 241.094816 176.594824 
L 241.134444 176.594824 
L 241.134444 176.240188 
L 241.277356 176.240188 
L 241.381949 173.048471 
L 241.390908 173.048471 
L 241.479191 168.083576 
L 241.550373 168.083576 
L 241.650637 166.3104 
L 241.685586 166.3104 
L 241.789694 163.827953 
L 241.799513 163.827953 
L 241.900553 163.118682 
L 241.947915 163.118682 
L 242.058886 159.926965 
L 242.061997 159.926965 
L 242.166799 158.153788 
L 242.18398 158.153788 
L 242.201489 156.735247 
L 242.34302 156.735247 
L 242.431024 153.898165 
L 242.503766 153.898165 
L 242.594048 146.450824 
L 242.691589 146.450824 
L 242.799268 144.677647 
L 242.80525 144.677647 
L 242.896084 140.067388 
L 242.921862 140.067388 
L 243.016737 139.003482 
L 243.071861 139.003482 
L 243.087253 135.811765 
L 243.193348 135.811765 
L 243.296906 131.556141 
L 243.31438 131.556141 
L 243.412127 128.364424 
L 243.434316 128.364424 
L 243.492717 124.818071 
L 243.548382 124.818071 
L 243.644924 122.335624 
L 243.697606 122.335624 
L 243.776038 119.853176 
L 243.812297 119.853176 
L 243.900915 113.115106 
L 244.021542 113.115106 
L 244.09088 111.696565 
L 244.134281 111.696565 
L 244.242961 108.859482 
L 244.258656 108.859482 
L 244.353772 106.377035 
L 244.487652 106.377035 
L 244.51134 104.958494 
L 244.652844 104.958494 
L 244.707287 103.894588 
L 244.770855 103.894588 
L 244.880096 100.348235 
L 244.893187 100.348235 
L 245.003496 96.801882 
L 245.010295 96.801882 
L 245.070492 94.319435 
L 245.124623 94.319435 
L 245.214593 91.836988 
L 245.311408 91.836988 
L 245.412647 87.936 
L 245.424215 87.936 
L 245.486851 86.517459 
L 245.570233 86.517459 
L 245.637817 84.035012 
L 245.709146 84.035012 
L 245.752667 83.325741 
L 245.881499 83.325741 
L 245.974108 80.843294 
L 246.066263 80.843294 
L 246.174924 80.134024 
L 246.243419 80.134024 
L 246.343906 78.715482 
L 246.366745 78.715482 
L 246.448789 76.942306 
L 246.508928 76.942306 
L 246.596605 74.105224 
L 246.629446 74.105224 
L 246.629446 73.395953 
L 246.946749 73.395953 
L 247.002661 72.332047 
L 247.145677 72.332047 
L 247.246982 71.268141 
L 247.376957 71.268141 
L 247.481952 70.204235 
L 247.492834 70.204235 
L 247.595899 68.076424 
L 247.650945 68.076424 
L 247.650945 67.721788 
L 247.817159 67.721788 
L 247.923024 64.175435 
L 247.938714 64.175435 
L 248.015957 63.111529 
L 248.071548 63.111529 
L 248.171248 61.692988 
L 248.187231 61.692988 
L 248.273157 59.919812 
L 248.435958 59.919812 
L 248.435958 59.565176 
L 248.553346 59.565176 
L 248.656376 57.082729 
L 248.683627 57.082729 
L 248.785948 54.600282 
L 248.797068 54.600282 
L 248.891082 51.7632 
L 248.915353 51.7632 
L 249.019769 50.344659 
L 249.028365 50.344659 
L 249.09794 46.798306 
L 249.170339 46.798306 
L 249.247181 45.025129 
L 249.303724 45.025129 
L 249.371353 43.606588 
L 249.656555 43.606588 
L 249.657478 42.542682 
L 249.956593 42.542682 
L 249.970902 41.478776 
L 250.177961 41.478776 
L 250.274499 39.7056 
L 250.535414 39.7056 
L 250.640879 38.287059 
L 250.675903 38.287059 
L 250.675903 37.932424 
L 250.876684 37.932424 
L 250.960881 36.868518 
L 251.035479 36.868518 
L 251.127085 35.804612 
L 251.64035 35.804612 
L 251.648659 35.095341 
L 251.910983 35.095341 
L 251.910983 34.740706 
L 252.687901 34.740706 
L 252.774364 33.322165 
L 252.812665 33.322165 
L 252.877559 32.612894 
L 252.93777 32.612894 
L 252.999142 31.903624 
L 253.144511 31.903624 
L 253.144511 31.548988 
L 253.411889 31.548988 
L 253.411889 31.194353 
L 253.609584 31.194353 
L 253.716125 30.130447 
L 253.753672 30.130447 
L 253.851276 29.066541 
L 253.865679 29.066541 
L 253.865679 28.357271 
L 259.557652 28.357271 
L 259.557652 28.002635 
L 260.827288 28.002635 
L 260.827288 27.648 
L 360.8064 27.648 
L 360.8064 27.648 
" style="fill: none; stroke: #000080; stroke-width: 1.5; stroke-linecap: square"/>
   </g>
   <g id="line2d_36">
    <defs>
     <path id="m9da3d058c3" d="M 0 6 
C 1.591219 6 3.117479 5.367802 4.242641 4.242641 
C 5.367802 3.117479 6 1.591219 6 0 
C 6 -1.591219 5.367802 -3.117479 4.242641 -4.242641 
C 3.117479 -5.367802 1.591219 -6 0 -6 
C -1.591219 -6 -3.117479 -5.367802 -4.242641 -4.242641 
C -5.367802 -3.117479 -6 -1.591219 -6 0 
C -6 1.591219 -5.367802 3.117479 -4.242641 4.242641 
C -3.117479 5.367802 -1.591219 6 0 6 
z
" style="stroke: #000080; stroke-width: 1.5"/>
    </defs>
    <g>
     <use xlink:href="#m9da3d058c3" x="172.454629" y="239.010635" style="fill-opacity: 0; stroke: #000080; stroke-width: 1.5"/>
     <use xlink:href="#m9da3d058c3" x="243.866083" y="119.143906" style="fill-opacity: 0; stroke: #000080; stroke-width: 1.5"/>
     <use xlink:href="#m9da3d058c3" x="260.827288" y="27.648" style="fill-opacity: 0; stroke: #000080; stroke-width: 1.5"/>
     <use xlink:href="#m9da3d058c3" x="260.827288" y="27.648" style="fill-opacity: 0; stroke: #000080; stroke-width: 1.5"/>
     <use xlink:href="#m9da3d058c3" x="360.8064" y="27.648" style="fill-opacity: 0; stroke: #000080; stroke-width: 1.5"/>
    </g>
   </g>
   <g id="line2d_37">
    <path style="fill: none; stroke: #000080; stroke-width: 1.5; stroke-linecap: square"/>
    <g/>
   </g>
   <g id="line2d_38">
    <defs>
     <path id="mf2f7db7bbb" d="M 0 1.5 
C 0.397805 1.5 0.77937 1.341951 1.06066 1.06066 
C 1.341951 0.77937 1.5 0.397805 1.5 0 
C 1.5 -0.397805 1.341951 -0.77937 1.06066 -1.06066 
C 0.77937 -1.341951 0.397805 -1.5 0 -1.5 
C -0.397805 -1.5 -0.77937 -1.341951 -1.06066 -1.06066 
C -1.341951 -0.77937 -1.5 -0.397805 -1.5 0 
C -1.5 0.397805 -1.341951 0.77937 -1.06066 1.06066 
C -0.77937 1.341951 -0.397805 1.5 0 1.5 
z
" style="stroke: #ff00ff"/>
    </defs>
    <g>
     <use xlink:href="#mf2f7db7bbb" x="265.390602" y="27.648" style="fill: #ff00ff; stroke: #ff00ff"/>
     <use xlink:href="#mf2f7db7bbb" x="265.390602" y="27.648" style="fill: #ff00ff; stroke: #ff00ff"/>
    </g>
   </g>
   <g id="line2d_39">
    <path d="M 63.011746 298.944 
L 63.011746 296.816188 
L 67.209423 296.816188 
L 67.209423 296.461553 
L 100.9152 296.461553 
L 100.9152 295.752282 
L 101.532027 295.752282 
L 101.532027 294.688376 
L 109.360651 294.688376 
L 109.360651 291.496659 
L 110.144579 291.496659 
L 110.144579 290.432753 
L 113.954374 290.432753 
L 113.954374 288.304941 
L 118.64712 288.304941 
L 118.64712 286.8864 
L 119.599808 286.8864 
L 119.599808 285.467859 
L 121.789667 285.467859 
L 121.789667 284.758588 
L 121.99526 284.758588 
L 121.99526 283.340047 
L 122.598891 283.340047 
L 122.598891 282.630776 
L 122.795872 282.630776 
L 122.795872 282.276141 
L 124.119844 282.276141 
L 124.119844 281.921506 
L 125.184934 281.921506 
L 125.184934 281.566871 
L 125.35673 281.566871 
L 125.35673 280.8576 
L 125.862901 280.8576 
L 125.862901 280.502965 
L 126.192937 280.502965 
L 126.192937 279.439059 
L 126.517282 279.439059 
L 126.517282 279.084424 
L 129.209231 279.084424 
L 129.209231 278.375153 
L 129.485876 278.375153 
L 129.485876 277.311247 
L 129.622688 277.311247 
L 129.622688 276.601976 
L 130.292209 276.601976 
L 130.292209 275.892706 
L 133.656071 275.892706 
L 133.656071 274.474165 
L 134.198228 274.474165 
L 134.198228 273.764894 
L 134.516177 273.764894 
L 134.516177 273.410259 
L 135.034434 273.410259 
L 135.034434 273.055624 
L 135.237805 273.055624 
L 135.338671 271.991718 
L 135.638065 271.991718 
L 135.638065 271.282447 
L 136.88305 271.282447 
L 136.88305 270.218541 
L 138.650692 270.218541 
L 138.650692 268.8 
L 139.067817 268.8 
L 139.067817 268.090729 
L 140.875745 268.090729 
L 140.875745 266.672188 
L 141.96763 266.672188 
L 141.96763 266.317553 
L 142.999601 266.317553 
L 142.999601 265.253647 
L 143.850356 265.253647 
L 143.850356 264.544376 
L 145.503164 264.544376 
L 145.503164 263.125835 
L 146.193574 263.125835 
L 146.24998 261.707294 
L 146.913986 261.707294 
L 146.913986 260.998024 
L 147.868016 260.998024 
L 147.868016 260.643388 
L 148.32748 260.643388 
L 148.32748 260.288753 
L 148.478174 260.288753 
L 148.478174 259.579482 
L 150.379949 259.579482 
L 150.425115 258.870212 
L 151.60532 258.870212 
L 151.60532 258.515576 
L 152.515067 258.515576 
L 152.595631 257.806306 
L 152.635783 257.806306 
L 152.635783 257.451671 
L 153.071898 257.451671 
L 153.071898 257.097035 
L 153.459779 257.097035 
L 153.459779 255.678494 
L 154.138425 255.678494 
L 154.138425 255.323859 
L 154.935952 255.323859 
L 154.935952 254.969224 
L 155.802997 254.969224 
L 155.802997 254.259953 
L 156.403417 254.259953 
L 156.436218 253.550682 
L 157.112155 253.550682 
L 157.175281 252.486776 
L 157.856036 252.486776 
L 157.856036 251.068235 
L 158.513014 251.068235 
L 158.571617 250.004329 
L 158.630038 250.004329 
L 158.630038 249.649694 
L 159.624087 249.649694 
L 159.624087 248.585788 
L 161.815163 248.585788 
L 161.815163 248.231153 
L 162.515995 248.231153 
L 162.515995 246.812612 
L 163.464289 246.812612 
L 163.464289 246.457976 
L 163.688506 246.457976 
L 163.688506 245.394071 
L 164.538274 245.394071 
L 164.538274 245.039435 
L 164.665667 245.039435 
L 164.665667 244.6848 
L 165.021997 244.6848 
L 165.021997 244.330165 
L 166.169767 244.330165 
L 166.247742 243.620894 
L 166.613775 243.620894 
L 166.689935 242.556988 
L 166.860176 242.556988 
L 166.935348 240.783812 
L 167.471536 240.783812 
L 167.471536 240.429176 
L 168.892945 240.429176 
L 168.994082 239.719906 
L 169.244573 239.719906 
L 169.244573 239.365271 
L 169.360337 239.365271 
L 169.360337 239.010635 
L 170.072123 239.010635 
L 170.072123 238.656 
L 170.511445 238.656 
L 170.511445 237.946729 
L 172.566188 237.946729 
L 172.566188 237.592094 
L 172.704712 237.592094 
L 172.704712 237.237459 
L 172.869606 237.237459 
L 172.869606 236.882824 
L 173.369117 236.882824 
L 173.369117 235.464282 
L 174.010854 235.464282 
L 174.010854 235.109647 
L 174.266624 235.109647 
L 174.304691 234.045741 
L 174.443616 234.045741 
L 174.518962 232.981835 
L 174.569026 232.981835 
L 174.569026 232.6272 
L 175.244228 232.6272 
L 175.244228 232.272565 
L 175.471959 232.272565 
L 175.471959 231.917929 
L 175.708734 231.917929 
L 175.708734 231.563294 
L 176.322146 231.563294 
L 176.322146 231.208659 
L 176.68305 231.208659 
L 176.68305 230.499388 
L 176.872001 230.499388 
L 176.916185 229.790118 
L 177.146467 229.790118 
L 177.146467 229.080847 
L 177.946625 229.080847 
L 178.019599 227.307671 
L 178.216255 227.307671 
L 178.216255 226.953035 
L 178.633741 226.953035 
L 178.633741 226.243765 
L 179.595626 226.243765 
L 179.595626 225.179859 
L 180.29069 225.179859 
L 180.29069 224.825224 
L 180.428504 224.825224 
L 180.428504 224.470588 
L 180.547132 224.470588 
L 180.547132 224.115953 
L 181.199724 224.115953 
L 181.199724 223.761318 
L 181.685435 223.761318 
L 181.685435 223.406682 
L 182.366508 223.406682 
L 182.374764 221.988141 
L 182.742588 221.988141 
L 182.839472 220.5696 
L 183.705066 220.5696 
L 183.705066 220.214965 
L 183.873506 220.214965 
L 183.873506 219.860329 
L 184.347677 219.860329 
L 184.347677 219.505694 
L 184.495742 219.505694 
L 184.495742 219.151059 
L 185.702436 219.151059 
L 185.805892 218.087153 
L 186.017913 218.087153 
L 186.079022 217.377882 
L 186.281299 217.377882 
L 186.281299 217.023247 
L 186.49469 217.023247 
L 186.49469 216.668612 
L 186.862397 216.668612 
L 186.901371 215.959341 
L 187.868873 215.959341 
L 187.979494 213.476894 
L 188.052881 213.476894 
L 188.132062 212.767624 
L 188.570607 212.767624 
L 188.570607 212.058353 
L 188.683092 212.058353 
L 188.683092 210.639812 
L 188.835937 210.639812 
L 188.835937 210.285176 
L 189.068684 210.285176 
L 189.068684 209.930541 
L 189.201221 209.930541 
L 189.258556 209.221271 
L 190.541911 209.221271 
L 190.541911 208.866635 
L 190.759879 208.866635 
L 190.759879 208.512 
L 191.490769 208.512 
L 191.490769 208.157365 
L 191.99244 208.157365 
L 191.99244 206.384188 
L 192.321227 206.384188 
L 192.335815 205.320282 
L 192.677809 205.320282 
L 192.701661 204.611012 
L 193.861723 204.611012 
L 193.861723 204.256376 
L 194.137584 204.256376 
L 194.137584 203.192471 
L 194.313435 203.192471 
L 194.313435 202.837835 
L 194.478985 202.837835 
L 194.556897 202.128565 
L 195.114412 202.128565 
L 195.114412 201.419294 
L 195.664025 201.419294 
L 195.664025 201.064659 
L 195.82623 201.064659 
L 195.82623 200.710024 
L 196.05897 200.710024 
L 196.138562 200.000753 
L 196.410598 200.000753 
L 196.410598 199.646118 
L 197.026667 199.646118 
L 197.026667 199.291482 
L 197.416558 199.291482 
L 197.416558 198.936847 
L 198.133657 198.936847 
L 198.133657 198.227576 
L 198.543465 198.227576 
L 198.543465 197.872941 
L 198.741611 197.872941 
L 198.741611 197.518306 
L 199.17235 197.518306 
L 199.17235 197.163671 
L 199.474093 197.163671 
L 199.474093 196.809035 
L 199.652842 196.809035 
L 199.652842 196.4544 
L 199.966484 196.4544 
L 199.966484 196.099765 
L 200.124579 196.099765 
L 200.172711 195.390494 
L 200.436837 195.390494 
L 200.436837 195.035859 
L 200.669237 195.035859 
L 200.669237 194.681224 
L 200.843217 194.681224 
L 200.843217 193.971953 
L 200.997209 193.971953 
L 201.082897 193.262682 
L 201.848746 193.262682 
L 201.848746 192.908047 
L 202.006386 192.908047 
L 202.006386 192.553412 
L 202.15118 192.553412 
L 202.228908 191.489506 
L 202.491372 191.489506 
L 202.491372 190.070965 
L 202.836651 190.070965 
L 202.836651 189.361694 
L 203.068861 189.361694 
L 203.068861 189.007059 
L 203.317229 189.007059 
L 203.411889 188.297788 
L 203.94385 188.297788 
L 203.94385 187.943153 
L 204.430539 187.943153 
L 204.44842 187.233882 
L 205.319007 187.233882 
L 205.421112 186.524612 
L 206.304379 186.524612 
L 206.304379 185.815341 
L 206.495407 185.815341 
L 206.495407 185.460706 
L 206.736584 185.460706 
L 206.736584 184.751435 
L 206.867252 184.751435 
L 206.97694 184.042165 
L 207.258294 184.042165 
L 207.258294 183.687529 
L 207.759502 183.687529 
L 207.759502 183.332894 
L 207.9491 183.332894 
L 207.9491 182.978259 
L 208.071637 182.978259 
L 208.071637 182.623624 
L 208.231005 182.623624 
L 208.231005 182.268988 
L 208.467553 182.268988 
L 208.467553 181.914353 
L 208.619525 181.914353 
L 208.725586 180.850447 
L 208.970092 180.850447 
L 208.982134 180.141176 
L 209.447815 180.141176 
L 209.447815 179.786541 
L 209.580442 179.786541 
L 209.60375 179.077271 
L 209.896513 179.077271 
L 210.003235 178.368 
L 210.261797 178.368 
L 210.261797 178.013365 
L 210.715511 178.013365 
L 210.715511 177.658729 
L 211.020423 177.658729 
L 211.020423 177.304094 
L 211.297423 177.304094 
L 211.315155 176.594824 
L 211.573901 176.594824 
L 211.573901 176.240188 
L 211.756564 176.240188 
L 211.756564 175.885553 
L 211.873921 175.885553 
L 211.873921 175.530918 
L 212.01618 175.530918 
L 212.01618 175.176282 
L 212.297511 175.176282 
L 212.361325 174.467012 
L 212.581326 174.467012 
L 212.581326 174.112376 
L 212.87724 174.112376 
L 212.87724 173.757741 
L 213.121939 173.757741 
L 213.152505 173.048471 
L 213.398432 173.048471 
L 213.401604 172.3392 
L 213.512317 172.3392 
L 213.586288 171.629929 
L 213.831297 171.629929 
L 213.831297 170.920659 
L 214.262003 170.920659 
L 214.313455 169.856753 
L 214.60288 169.856753 
L 214.60288 169.502118 
L 215.019379 169.502118 
L 215.019379 169.147482 
L 215.436822 169.147482 
L 215.436822 168.792847 
L 215.60124 168.792847 
L 215.60124 168.438212 
L 215.719411 168.438212 
L 215.719411 168.083576 
L 215.957702 168.083576 
L 216.021292 167.374306 
L 216.273524 167.374306 
L 216.273524 167.019671 
L 216.840871 167.019671 
L 216.840871 166.665035 
L 216.981713 166.665035 
L 216.981713 166.3104 
L 217.16831 166.3104 
L 217.16831 165.955765 
L 217.581824 165.955765 
L 217.681902 165.246494 
L 217.842933 165.246494 
L 217.874224 164.537224 
L 218.053454 164.537224 
L 218.053454 164.182588 
L 218.234674 164.182588 
L 218.314252 163.473318 
L 218.408087 163.473318 
L 218.408087 163.118682 
L 218.548572 163.118682 
L 218.656851 162.409412 
L 218.67244 162.409412 
L 218.67244 162.054776 
L 218.918937 162.054776 
L 218.96738 160.2816 
L 219.251956 160.2816 
L 219.280991 159.217694 
L 219.363206 159.217694 
L 219.363206 158.863059 
L 219.746346 158.863059 
L 219.807382 158.153788 
L 219.891828 158.153788 
L 219.891828 157.799153 
L 220.252337 157.799153 
L 220.252337 157.444518 
L 220.41802 157.444518 
L 220.513909 156.735247 
L 220.560586 156.735247 
L 220.654674 155.671341 
L 220.772966 155.671341 
L 220.772966 154.962071 
L 220.922451 154.962071 
L 220.998869 154.2528 
L 221.375333 154.2528 
L 221.485064 153.543529 
L 221.508789 153.543529 
L 221.526306 152.834259 
L 221.79626 152.834259 
L 221.79626 152.479624 
L 222.064396 152.479624 
L 222.120362 151.415718 
L 222.205987 151.415718 
L 222.303086 150.706447 
L 222.466427 150.706447 
L 222.512417 149.997176 
L 222.95288 149.997176 
L 223.000555 148.933271 
L 223.068046 148.933271 
L 223.150418 147.514729 
L 223.223964 147.514729 
L 223.223964 147.160094 
L 223.382332 147.160094 
L 223.471703 145.741553 
L 223.570816 145.741553 
L 223.570816 145.386918 
L 223.905037 145.386918 
L 223.905037 145.032282 
L 224.323288 145.032282 
L 224.414493 143.613741 
L 224.547406 143.613741 
L 224.655855 142.1952 
L 224.679387 142.1952 
L 224.747201 141.485929 
L 224.851056 141.485929 
L 224.851056 141.131294 
L 224.988644 141.131294 
L 225.035708 140.422024 
L 225.171956 140.422024 
L 225.183831 139.003482 
L 225.428977 139.003482 
L 225.428977 138.648847 
L 225.656091 138.648847 
L 225.656091 138.294212 
L 225.82567 138.294212 
L 225.911521 136.521035 
L 226.008347 136.521035 
L 226.069926 135.811765 
L 226.140171 135.811765 
L 226.140171 135.457129 
L 226.623106 135.457129 
L 226.679576 134.747859 
L 226.768642 134.747859 
L 226.768642 134.393224 
L 226.914607 134.393224 
L 226.914607 134.038588 
L 227.040252 134.038588 
L 227.149029 132.974682 
L 227.164299 132.974682 
L 227.164299 132.620047 
L 227.276917 132.620047 
L 227.276917 132.265412 
L 227.700745 132.265412 
L 227.700745 131.910776 
L 227.891884 131.910776 
L 227.891884 131.556141 
L 228.216543 131.556141 
L 228.30151 130.492235 
L 228.622766 130.492235 
L 228.699593 129.428329 
L 228.938628 129.428329 
L 229.034228 128.719059 
L 229.193173 128.719059 
L 229.27999 127.655153 
L 229.472019 127.655153 
L 229.472019 127.300518 
L 229.846986 127.300518 
L 229.93282 126.236612 
L 229.986761 126.236612 
L 230.089609 125.172706 
L 230.187998 125.172706 
L 230.187998 124.818071 
L 230.380674 124.818071 
L 230.380674 124.463435 
L 230.499941 124.463435 
L 230.499941 124.1088 
L 230.628618 124.1088 
L 230.628618 123.754165 
L 230.74696 123.754165 
L 230.787921 122.690259 
L 231.000738 122.690259 
L 231.000738 122.335624 
L 231.338149 122.335624 
L 231.338149 120.562447 
L 231.487334 120.562447 
L 231.487334 120.207812 
L 231.725393 120.207812 
L 231.828716 119.143906 
L 231.895899 119.143906 
L 231.995931 118.08 
L 232.124185 118.08 
L 232.206092 116.661459 
L 232.37 116.661459 
L 232.381571 115.952188 
L 232.673104 115.952188 
L 232.698144 115.242918 
L 232.826233 115.242918 
L 232.928755 114.533647 
L 232.96131 114.533647 
L 232.96131 114.179012 
L 233.089854 114.179012 
L 233.162123 112.760471 
L 233.337192 112.760471 
L 233.429864 111.696565 
L 233.770823 111.696565 
L 233.836245 109.568753 
L 233.970132 109.568753 
L 234.001465 108.859482 
L 234.452883 108.859482 
L 234.547964 107.795576 
L 234.717295 107.795576 
L 234.728019 107.086306 
L 235.115077 107.086306 
L 235.115077 106.731671 
L 235.302194 106.731671 
L 235.302194 106.377035 
L 235.478639 106.377035 
L 235.478639 106.0224 
L 235.647613 106.0224 
L 235.693742 105.313129 
L 235.79242 105.313129 
L 235.83964 104.249224 
L 236.031633 104.249224 
L 236.031633 103.894588 
L 236.197621 103.894588 
L 236.304499 102.476047 
L 236.386481 102.476047 
L 236.479739 101.766776 
L 236.525731 101.766776 
L 236.534545 99.638965 
L 236.640453 99.638965 
L 236.640453 98.575059 
L 236.778301 98.575059 
L 236.870097 97.865788 
L 237.046942 97.865788 
L 237.046942 97.511153 
L 237.165266 97.511153 
L 237.191709 96.801882 
L 237.2931 96.801882 
L 237.300671 96.092612 
L 237.615941 96.092612 
L 237.615941 95.737976 
L 237.808926 95.737976 
L 237.824955 95.028706 
L 238.160578 95.028706 
L 238.160578 94.319435 
L 238.439673 94.319435 
L 238.519555 93.610165 
L 239.000798 93.610165 
L 239.084007 92.900894 
L 239.304249 92.900894 
L 239.413212 91.482353 
L 239.423556 91.482353 
L 239.423556 90.773082 
L 239.716793 90.773082 
L 239.794171 90.063812 
L 240.199658 90.063812 
L 240.201947 89.354541 
L 240.327467 89.354541 
L 240.327467 88.999906 
L 240.626461 88.999906 
L 240.626461 88.645271 
L 240.947939 88.645271 
L 240.989341 87.936 
L 241.192463 87.936 
L 241.248138 86.872094 
L 241.633669 86.872094 
L 241.633669 86.517459 
L 241.807223 86.517459 
L 241.915193 85.808188 
L 241.934694 85.808188 
L 242.019774 84.744282 
L 242.135833 84.744282 
L 242.236801 83.680376 
L 242.309614 83.680376 
L 242.318824 82.971106 
L 242.530087 82.971106 
L 242.530087 82.616471 
L 242.947275 82.616471 
L 242.947275 82.261835 
L 243.226848 82.261835 
L 243.226848 81.9072 
L 243.355412 81.9072 
L 243.355412 81.552565 
L 243.505848 81.552565 
L 243.608978 80.488659 
L 243.844713 80.488659 
L 243.938499 79.779388 
L 244.079704 79.779388 
L 244.079704 79.424753 
L 244.424338 79.424753 
L 244.497374 78.360847 
L 244.707888 78.360847 
L 244.78103 77.651576 
L 244.824958 77.651576 
L 244.86938 76.587671 
L 244.979532 76.587671 
L 245.017387 75.8784 
L 245.216055 75.8784 
L 245.297442 75.169129 
L 245.426817 75.169129 
L 245.426817 74.814494 
L 245.81875 74.814494 
L 245.902087 74.105224 
L 246.078275 74.105224 
L 246.078275 73.750588 
L 246.303113 73.750588 
L 246.354366 73.041318 
L 246.822348 73.041318 
L 246.822348 72.686682 
L 246.940348 72.686682 
L 247.037987 71.622776 
L 247.138024 71.622776 
L 247.138024 71.268141 
L 247.383732 71.268141 
L 247.383732 70.913506 
L 247.88349 70.913506 
L 247.937449 70.204235 
L 248.116704 70.204235 
L 248.120462 69.494965 
L 248.278126 69.494965 
L 248.278126 69.140329 
L 248.402671 69.140329 
L 248.402671 68.785694 
L 248.732189 68.785694 
L 248.814943 67.012518 
L 248.923757 67.012518 
L 248.923757 66.657882 
L 249.072713 66.657882 
L 249.159912 65.593976 
L 249.25355 65.593976 
L 249.311015 64.884706 
L 249.50542 64.884706 
L 249.595505 63.8208 
L 249.793425 63.8208 
L 249.793425 63.466165 
L 249.957729 63.466165 
L 249.957729 63.111529 
L 250.079571 63.111529 
L 250.079571 62.756894 
L 250.246328 62.756894 
L 250.330715 62.047624 
L 250.386763 62.047624 
L 250.386763 61.692988 
L 250.616982 61.692988 
L 250.689894 60.629082 
L 250.7573 60.629082 
L 250.7573 60.274447 
L 250.910408 60.274447 
L 250.955064 59.210541 
L 251.073203 59.210541 
L 251.073203 58.855906 
L 251.338551 58.855906 
L 251.338551 58.501271 
L 251.681028 58.501271 
L 251.782134 56.728094 
L 251.854784 56.728094 
L 251.878187 56.018824 
L 251.998026 56.018824 
L 252.074519 55.309553 
L 252.131482 55.309553 
L 252.141803 53.891012 
L 252.354428 53.891012 
L 252.354428 53.536376 
L 252.549837 53.536376 
L 252.549837 53.181741 
L 252.701259 53.181741 
L 252.773777 50.699294 
L 252.854199 50.699294 
L 252.89642 49.990024 
L 252.983866 49.990024 
L 252.983866 49.635388 
L 253.106112 49.635388 
L 253.212286 48.926118 
L 253.258478 48.926118 
L 253.355455 47.507576 
L 253.440043 47.507576 
L 253.440043 47.152941 
L 253.732305 47.152941 
L 253.732305 46.798306 
L 254.071653 46.798306 
L 254.071653 46.443671 
L 254.239782 46.443671 
L 254.274674 45.379765 
L 254.49678 45.379765 
L 254.578709 44.670494 
L 254.63514 44.670494 
L 254.63514 44.315859 
L 254.790071 44.315859 
L 254.869336 43.251953 
L 255.321815 43.251953 
L 255.417072 42.542682 
L 255.534834 42.542682 
L 255.552899 41.833412 
L 255.798343 41.833412 
L 255.798343 41.478776 
L 256.041448 41.478776 
L 256.113165 40.769506 
L 256.358082 40.769506 
L 256.46883 40.060235 
L 256.558145 40.060235 
L 256.558145 39.7056 
L 256.72077 39.7056 
L 256.72077 39.350965 
L 256.860289 39.350965 
L 256.9415 38.641694 
L 257.096817 38.641694 
L 257.096817 38.287059 
L 257.669564 38.287059 
L 257.718508 36.868518 
L 257.920313 36.868518 
L 257.938606 36.159247 
L 258.124539 36.159247 
L 258.124539 35.804612 
L 258.714402 35.804612 
L 258.755581 34.386071 
L 258.88353 34.386071 
L 258.88353 34.031435 
L 259.493165 34.031435 
L 259.493165 33.6768 
L 259.616482 33.6768 
L 259.646371 32.967529 
L 259.747775 32.967529 
L 259.747775 32.612894 
L 260.301896 32.612894 
L 260.301896 32.258259 
L 260.57599 32.258259 
L 260.57599 31.903624 
L 260.80841 31.903624 
L 260.80841 31.548988 
L 261.029419 31.548988 
L 261.029419 31.194353 
L 261.530479 31.194353 
L 261.530479 30.839718 
L 261.720613 30.839718 
L 261.720613 30.485082 
L 261.947322 30.485082 
L 261.947322 29.421176 
L 262.521889 29.421176 
L 262.521889 29.066541 
L 263.281698 29.066541 
L 263.281698 28.711906 
L 263.997147 28.711906 
L 263.997147 28.357271 
L 264.194423 28.357271 
L 264.194423 28.002635 
L 265.390602 28.002635 
L 265.390602 27.648 
L 360.8064 27.648 
L 360.8064 27.648 
" style="fill: none; stroke: #ff00ff; stroke-width: 1.5; stroke-linecap: square"/>
   </g>
   <g id="line2d_40">
    <defs>
     <path id="m486b8774b6" d="M 0 8.485281 
L 5.091169 0 
L 0 -8.485281 
L -5.091169 0 
z
" style="stroke: #ff00ff; stroke-width: 1.5; stroke-linejoin: miter"/>
    </defs>
    <g>
     <use xlink:href="#m486b8774b6" x="165.021997" y="244.6848" style="fill-opacity: 0; stroke: #ff00ff; stroke-width: 1.5; stroke-linejoin: miter"/>
     <use xlink:href="#m486b8774b6" x="225.428977" y="139.003482" style="fill-opacity: 0; stroke: #ff00ff; stroke-width: 1.5; stroke-linejoin: miter"/>
     <use xlink:href="#m486b8774b6" x="265.390602" y="28.002635" style="fill-opacity: 0; stroke: #ff00ff; stroke-width: 1.5; stroke-linejoin: miter"/>
     <use xlink:href="#m486b8774b6" x="265.390602" y="27.648" style="fill-opacity: 0; stroke: #ff00ff; stroke-width: 1.5; stroke-linejoin: miter"/>
     <use xlink:href="#m486b8774b6" x="360.8064" y="27.648" style="fill-opacity: 0; stroke: #ff00ff; stroke-width: 1.5; stroke-linejoin: miter"/>
    </g>
   </g>
   <g id="line2d_41">
    <path style="fill: none; stroke: #ff00ff; stroke-width: 1.5; stroke-linecap: square"/>
    <g/>
   </g>
   <g id="line2d_42">
    <path d="M 360.8064 27.648 
L 380.514816 293.51808 
" style="fill: none; stroke: #ff00ff; stroke-width: 1.5; stroke-linecap: square"/>
    <g>
     <use xlink:href="#m486b8774b6" x="360.8064" y="27.648" style="fill-opacity: 0; stroke: #ff00ff; stroke-width: 1.5; stroke-linejoin: miter"/>
     <use xlink:href="#m486b8774b6" x="380.514816" y="293.51808" style="fill-opacity: 0; stroke: #ff00ff; stroke-width: 1.5; stroke-linejoin: miter"/>
    </g>
   </g>
   <g id="line2d_43">
    <path d="M 360.8064 27.648 
L 380.514816 163.296 
" style="fill: none; stroke: #000080; stroke-width: 1.5; stroke-linecap: square"/>
    <g>
     <use xlink:href="#m9da3d058c3" x="360.8064" y="27.648" style="fill-opacity: 0; stroke: #000080; stroke-width: 1.5"/>
     <use xlink:href="#m9da3d058c3" x="380.514816" y="163.296" style="fill-opacity: 0; stroke: #000080; stroke-width: 1.5"/>
    </g>
   </g>
   <g id="line2d_44">
    <path d="M 360.8064 298.944 
L 360.8064 27.648 
" style="fill: none; stroke: #000000; stroke-width: 1.5; stroke-linecap: square"/>
   </g>
   <g id="patch_3">
    <path d="M 57.6 298.944 
L 360.8064 298.944 
" style="fill: none; stroke: #000000; stroke-width: 0.8; stroke-linejoin: miter; stroke-linecap: square"/>
   </g>
   <g id="patch_4">
    <path d="M 57.6 27.648 
L 360.8064 27.648 
" style="fill: none; stroke: #000000; stroke-width: 0.8; stroke-linejoin: miter; stroke-linecap: square"/>
   </g>
   <g id="text_13">
    <!-- PSO -->
    <g transform="translate(386.578944 297.381205)scale(0.14 -0.14)">
     <defs>
      <path id="DejaVuSans-50" d="M 1259 4147 
L 1259 2394 
L 2053 2394 
Q 2494 2394 2734 2622 
Q 2975 2850 2975 3272 
Q 2975 3691 2734 3919 
Q 2494 4147 2053 4147 
L 1259 4147 
z
M 628 4666 
L 2053 4666 
Q 2838 4666 3239 4311 
Q 3641 3956 3641 3272 
Q 3641 2581 3239 2228 
Q 2838 1875 2053 1875 
L 1259 1875 
L 1259 0 
L 628 0 
L 628 4666 
z
" transform="scale(0.015625)"/>
      <path id="DejaVuSans-53" d="M 3425 4513 
L 3425 3897 
Q 3066 4069 2747 4153 
Q 2428 4238 2131 4238 
Q 1616 4238 1336 4038 
Q 1056 3838 1056 3469 
Q 1056 3159 1242 3001 
Q 1428 2844 1947 2747 
L 2328 2669 
Q 3034 2534 3370 2195 
Q 3706 1856 3706 1288 
Q 3706 609 3251 259 
Q 2797 -91 1919 -91 
Q 1588 -91 1214 -16 
Q 841 59 441 206 
L 441 856 
Q 825 641 1194 531 
Q 1563 422 1919 422 
Q 2459 422 2753 634 
Q 3047 847 3047 1241 
Q 3047 1584 2836 1778 
Q 2625 1972 2144 2069 
L 1759 2144 
Q 1053 2284 737 2584 
Q 422 2884 422 3419 
Q 422 4038 858 4394 
Q 1294 4750 2059 4750 
Q 2388 4750 2728 4690 
Q 3069 4631 3425 4513 
z
" transform="scale(0.015625)"/>
      <path id="DejaVuSans-4f" d="M 2522 4238 
Q 1834 4238 1429 3725 
Q 1025 3213 1025 2328 
Q 1025 1447 1429 934 
Q 1834 422 2522 422 
Q 3209 422 3611 934 
Q 4013 1447 4013 2328 
Q 4013 3213 3611 3725 
Q 3209 4238 2522 4238 
z
M 2522 4750 
Q 3503 4750 4090 4092 
Q 4678 3434 4678 2328 
Q 4678 1225 4090 567 
Q 3503 -91 2522 -91 
Q 1538 -91 948 565 
Q 359 1222 359 2328 
Q 359 3434 948 4092 
Q 1538 4750 2522 4750 
z
" transform="scale(0.015625)"/>
     </defs>
     <use xlink:href="#DejaVuSans-50"/>
     <use xlink:href="#DejaVuSans-53" x="60.302734"/>
     <use xlink:href="#DejaVuSans-4f" x="123.779297"/>
    </g>
   </g>
   <g id="text_14">
    <!-- LCGA -->
    <g transform="translate(386.578944 167.159125)scale(0.14 -0.14)">
     <defs>
      <path id="DejaVuSans-4c" d="M 628 4666 
L 1259 4666 
L 1259 531 
L 3531 531 
L 3531 0 
L 628 0 
L 628 4666 
z
" transform="scale(0.015625)"/>
      <path id="DejaVuSans-43" d="M 4122 4306 
L 4122 3641 
Q 3803 3938 3442 4084 
Q 3081 4231 2675 4231 
Q 1875 4231 1450 3742 
Q 1025 3253 1025 2328 
Q 1025 1406 1450 917 
Q 1875 428 2675 428 
Q 3081 428 3442 575 
Q 3803 722 4122 1019 
L 4122 359 
Q 3791 134 3420 21 
Q 3050 -91 2638 -91 
Q 1578 -91 968 557 
Q 359 1206 359 2328 
Q 359 3453 968 4101 
Q 1578 4750 2638 4750 
Q 3056 4750 3426 4639 
Q 3797 4528 4122 4306 
z
" transform="scale(0.015625)"/>
      <path id="DejaVuSans-47" d="M 3809 666 
L 3809 1919 
L 2778 1919 
L 2778 2438 
L 4434 2438 
L 4434 434 
Q 4069 175 3628 42 
Q 3188 -91 2688 -91 
Q 1594 -91 976 548 
Q 359 1188 359 2328 
Q 359 3472 976 4111 
Q 1594 4750 2688 4750 
Q 3144 4750 3555 4637 
Q 3966 4525 4313 4306 
L 4313 3634 
Q 3963 3931 3569 4081 
Q 3175 4231 2741 4231 
Q 1884 4231 1454 3753 
Q 1025 3275 1025 2328 
Q 1025 1384 1454 906 
Q 1884 428 2741 428 
Q 3075 428 3337 486 
Q 3600 544 3809 666 
z
" transform="scale(0.015625)"/>
      <path id="DejaVuSans-41" d="M 2188 4044 
L 1331 1722 
L 3047 1722 
L 2188 4044 
z
M 1831 4666 
L 2547 4666 
L 4325 0 
L 3669 0 
L 3244 1197 
L 1141 1197 
L 716 0 
L 50 0 
L 1831 4666 
z
" transform="scale(0.015625)"/>
     </defs>
     <use xlink:href="#DejaVuSans-4c"/>
     <use xlink:href="#DejaVuSans-43" x="55.712891"/>
     <use xlink:href="#DejaVuSans-47" x="125.537109"/>
     <use xlink:href="#DejaVuSans-41" x="203.027344"/>
    </g>
   </g>
   <g id="text_15">
    <!-- best 2009 -->
    <g transform="translate(386.578944 36.937045)scale(0.14 -0.14)">
     <defs>
      <path id="DejaVuSans-62" d="M 3116 1747 
Q 3116 2381 2855 2742 
Q 2594 3103 2138 3103 
Q 1681 3103 1420 2742 
Q 1159 2381 1159 1747 
Q 1159 1113 1420 752 
Q 1681 391 2138 391 
Q 2594 391 2855 752 
Q 3116 1113 3116 1747 
z
M 1159 2969 
Q 1341 3281 1617 3432 
Q 1894 3584 2278 3584 
Q 2916 3584 3314 3078 
Q 3713 2572 3713 1747 
Q 3713 922 3314 415 
Q 2916 -91 2278 -91 
Q 1894 -91 1617 61 
Q 1341 213 1159 525 
L 1159 0 
L 581 0 
L 581 4863 
L 1159 4863 
L 1159 2969 
z
" transform="scale(0.015625)"/>
      <path id="DejaVuSans-39" d="M 703 97 
L 703 672 
Q 941 559 1184 500 
Q 1428 441 1663 441 
Q 2288 441 2617 861 
Q 2947 1281 2994 2138 
Q 2813 1869 2534 1725 
Q 2256 1581 1919 1581 
Q 1219 1581 811 2004 
Q 403 2428 403 3163 
Q 403 3881 828 4315 
Q 1253 4750 1959 4750 
Q 2769 4750 3195 4129 
Q 3622 3509 3622 2328 
Q 3622 1225 3098 567 
Q 2575 -91 1691 -91 
Q 1453 -91 1209 -44 
Q 966 3 703 97 
z
M 1959 2075 
Q 2384 2075 2632 2365 
Q 2881 2656 2881 3163 
Q 2881 3666 2632 3958 
Q 2384 4250 1959 4250 
Q 1534 4250 1286 3958 
Q 1038 3666 1038 3163 
Q 1038 2656 1286 2365 
Q 1534 2075 1959 2075 
z
" transform="scale(0.015625)"/>
     </defs>
     <use xlink:href="#DejaVuSans-62"/>
     <use xlink:href="#DejaVuSans-65" x="63.476562"/>
     <use xlink:href="#DejaVuSans-73" x="125"/>
     <use xlink:href="#DejaVuSans-74" x="177.099609"/>
     <use xlink:href="#DejaVuSans-20" x="216.308594"/>
     <use xlink:href="#DejaVuSans-32" x="248.095703"/>
     <use xlink:href="#DejaVuSans-30" x="311.71875"/>
     <use xlink:href="#DejaVuSans-30" x="375.341797"/>
     <use xlink:href="#DejaVuSans-39" x="438.964844"/>
    </g>
   </g>
   <g id="text_16">
    <!-- bbob f9, 3-D -->
    <g transform="translate(60.632064 38.111366)scale(0.102 -0.102)">
     <defs>
      <path id="DejaVuSans-33" d="M 2597 2516 
Q 3050 2419 3304 2112 
Q 3559 1806 3559 1356 
Q 3559 666 3084 287 
Q 2609 -91 1734 -91 
Q 1441 -91 1130 -33 
Q 819 25 488 141 
L 488 750 
Q 750 597 1062 519 
Q 1375 441 1716 441 
Q 2309 441 2620 675 
Q 2931 909 2931 1356 
Q 2931 1769 2642 2001 
Q 2353 2234 1838 2234 
L 1294 2234 
L 1294 2753 
L 1863 2753 
Q 2328 2753 2575 2939 
Q 2822 3125 2822 3475 
Q 2822 3834 2567 4026 
Q 2313 4219 1838 4219 
Q 1578 4219 1281 4162 
Q 984 4106 628 3988 
L 628 4550 
Q 988 4650 1302 4700 
Q 1616 4750 1894 4750 
Q 2613 4750 3031 4423 
Q 3450 4097 3450 3541 
Q 3450 3153 3228 2886 
Q 3006 2619 2597 2516 
z
" transform="scale(0.015625)"/>
      <path id="DejaVuSans-44" d="M 1259 4147 
L 1259 519 
L 2022 519 
Q 2988 519 3436 956 
Q 3884 1394 3884 2338 
Q 3884 3275 3436 3711 
Q 2988 4147 2022 4147 
L 1259 4147 
z
M 628 4666 
L 1925 4666 
Q 3281 4666 3915 4102 
Q 4550 3538 4550 2338 
Q 4550 1131 3912 565 
Q 3275 0 1925 0 
L 628 0 
L 628 4666 
z
" transform="scale(0.015625)"/>
     </defs>
     <use xlink:href="#DejaVuSans-62"/>
     <use xlink:href="#DejaVuSans-62" x="63.476562"/>
     <use xlink:href="#DejaVuSans-6f" x="126.953125"/>
     <use xlink:href="#DejaVuSans-62" x="188.134766"/>
     <use xlink:href="#DejaVuSans-20" x="251.611328"/>
     <use xlink:href="#DejaVuSans-66" x="283.398438"/>
     <use xlink:href="#DejaVuSans-39" x="318.603516"/>
     <use xlink:href="#DejaVuSans-2c" x="382.226562"/>
     <use xlink:href="#DejaVuSans-20" x="414.013672"/>
     <use xlink:href="#DejaVuSans-33" x="445.800781"/>
     <use xlink:href="#DejaVuSans-2d" x="509.423828"/>
     <use xlink:href="#DejaVuSans-44" x="545.507812"/>
    </g>
    <!-- 51 targets: 100..1e-08 -->
    <g transform="translate(60.632064 49.533135)scale(0.102 -0.102)">
     <defs>
      <path id="DejaVuSans-35" d="M 691 4666 
L 3169 4666 
L 3169 4134 
L 1269 4134 
L 1269 2991 
Q 1406 3038 1543 3061 
Q 1681 3084 1819 3084 
Q 2600 3084 3056 2656 
Q 3513 2228 3513 1497 
Q 3513 744 3044 326 
Q 2575 -91 1722 -91 
Q 1428 -91 1123 -41 
Q 819 9 494 109 
L 494 744 
Q 775 591 1075 516 
Q 1375 441 1709 441 
Q 2250 441 2565 725 
Q 2881 1009 2881 1497 
Q 2881 1984 2565 2268 
Q 2250 2553 1709 2553 
Q 1456 2553 1204 2497 
Q 953 2441 691 2322 
L 691 4666 
z
" transform="scale(0.015625)"/>
      <path id="DejaVuSans-3a" d="M 750 794 
L 1409 794 
L 1409 0 
L 750 0 
L 750 794 
z
M 750 3309 
L 1409 3309 
L 1409 2516 
L 750 2516 
L 750 3309 
z
" transform="scale(0.015625)"/>
     </defs>
     <use xlink:href="#DejaVuSans-35"/>
     <use xlink:href="#DejaVuSans-31" x="63.623047"/>
     <use xlink:href="#DejaVuSans-20" x="127.246094"/>
     <use xlink:href="#DejaVuSans-74" x="159.033203"/>
     <use xlink:href="#DejaVuSans-61" x="198.242188"/>
     <use xlink:href="#DejaVuSans-72" x="259.521484"/>
     <use xlink:href="#DejaVuSans-67" x="298.884766"/>
     <use xlink:href="#DejaVuSans-65" x="362.361328"/>
     <use xlink:href="#DejaVuSans-74" x="423.884766"/>
     <use xlink:href="#DejaVuSans-73" x="463.09375"/>
     <use xlink:href="#DejaVuSans-3a" x="515.193359"/>
     <use xlink:href="#DejaVuSans-20" x="548.884766"/>
     <use xlink:href="#DejaVuSans-31" x="580.671875"/>
     <use xlink:href="#DejaVuSans-30" x="644.294922"/>
     <use xlink:href="#DejaVuSans-30" x="707.917969"/>
     <use xlink:href="#DejaVuSans-2e" x="771.541016"/>
     <use xlink:href="#DejaVuSans-2e" x="803.328125"/>
     <use xlink:href="#DejaVuSans-31" x="835.115234"/>
     <use xlink:href="#DejaVuSans-65" x="898.738281"/>
     <use xlink:href="#DejaVuSans-2d" x="960.261719"/>
     <use xlink:href="#DejaVuSans-30" x="996.345703"/>
     <use xlink:href="#DejaVuSans-38" x="1059.96875"/>
    </g>
    <!-- 15 instances -->
    <g transform="translate(60.632064 60.954904)scale(0.102 -0.102)">
     <use xlink:href="#DejaVuSans-31"/>
     <use xlink:href="#DejaVuSans-35" x="63.623047"/>
     <use xlink:href="#DejaVuSans-20" x="127.246094"/>
     <use xlink:href="#DejaVuSans-69" x="159.033203"/>
     <use xlink:href="#DejaVuSans-6e" x="186.816406"/>
     <use xlink:href="#DejaVuSans-73" x="250.195312"/>
     <use xlink:href="#DejaVuSans-74" x="302.294922"/>
     <use xlink:href="#DejaVuSans-61" x="341.503906"/>
     <use xlink:href="#DejaVuSans-6e" x="402.783203"/>
     <use xlink:href="#DejaVuSans-63" x="466.162109"/>
     <use xlink:href="#DejaVuSans-65" x="521.142578"/>
     <use xlink:href="#DejaVuSans-73" x="582.666016"/>
    </g>
   </g>
   <g id="text_17">
    <!-- v2.6 -->
    <g style="fill: #808080" transform="translate(198.292262 294.151352)scale(0.1 -0.1)">
     <use xlink:href="#DejaVuSans-76"/>
     <use xlink:href="#DejaVuSans-32" x="59.179688"/>
     <use xlink:href="#DejaVuSans-2e" x="122.802734"/>
     <use xlink:href="#DejaVuSans-36" x="154.589844"/>
    </g>
   </g>
   <g id="text_18">
    <!-- 9 Rosenbrock rotated -->
    <g transform="translate(102.050075 21.648)scale(0.2 -0.2)">
     <defs>
      <path id="DejaVuSans-52" d="M 2841 2188 
Q 3044 2119 3236 1894 
Q 3428 1669 3622 1275 
L 4263 0 
L 3584 0 
L 2988 1197 
Q 2756 1666 2539 1819 
Q 2322 1972 1947 1972 
L 1259 1972 
L 1259 0 
L 628 0 
L 628 4666 
L 2053 4666 
Q 2853 4666 3247 4331 
Q 3641 3997 3641 3322 
Q 3641 2881 3436 2590 
Q 3231 2300 2841 2188 
z
M 1259 4147 
L 1259 2491 
L 2053 2491 
Q 2509 2491 2742 2702 
Q 2975 2913 2975 3322 
Q 2975 3731 2742 3939 
Q 2509 4147 2053 4147 
L 1259 4147 
z
" transform="scale(0.015625)"/>
      <path id="DejaVuSans-6b" d="M 581 4863 
L 1159 4863 
L 1159 1991 
L 2875 3500 
L 3609 3500 
L 1753 1863 
L 3688 0 
L 2938 0 
L 1159 1709 
L 1159 0 
L 581 0 
L 581 4863 
z
" transform="scale(0.015625)"/>
     </defs>
     <use xlink:href="#DejaVuSans-39"/>
     <use xlink:href="#DejaVuSans-20" x="63.623047"/>
     <use xlink:href="#DejaVuSans-52" x="95.410156"/>
     <use xlink:href="#DejaVuSans-6f" x="160.392578"/>
     <use xlink:href="#DejaVuSans-73" x="221.574219"/>
     <use xlink:href="#DejaVuSans-65" x="273.673828"/>
     <use xlink:href="#DejaVuSans-6e" x="335.197266"/>
     <use xlink:href="#DejaVuSans-62" x="398.576172"/>
     <use xlink:href="#DejaVuSans-72" x="462.052734"/>
     <use xlink:href="#DejaVuSans-6f" x="500.916016"/>
     <use xlink:href="#DejaVuSans-63" x="562.097656"/>
     <use xlink:href="#DejaVuSans-6b" x="617.078125"/>
     <use xlink:href="#DejaVuSans-20" x="674.988281"/>
     <use xlink:href="#DejaVuSans-72" x="706.775391"/>
     <use xlink:href="#DejaVuSans-6f" x="745.638672"/>
     <use xlink:href="#DejaVuSans-74" x="806.820312"/>
     <use xlink:href="#DejaVuSans-61" x="846.029297"/>
     <use xlink:href="#DejaVuSans-74" x="907.308594"/>
     <use xlink:href="#DejaVuSans-65" x="946.517578"/>
     <use xlink:href="#DejaVuSans-64" x="1008.041016"/>
    </g>
   </g>
  </g>
 </g>
 <defs>
  <clipPath id="p40d5db3afe">
   <rect x="57.6" y="27.648" width="303.2064" height="271.296"/>
  </clipPath>
 </defs>
</svg>
