<?xml version="1.0" encoding="utf-8" standalone="no"?>
<!DOCTYPE svg PUBLIC "-//W3C//DTD SVG 1.1//EN"
  "http://www.w3.org/Graphics/SVG/1.1/DTD/svg11.dtd">
<svg xmlns:xlink="http://www.w3.org/1999/xlink" width="460.8pt" height="345.6pt" viewBox="0 0 460.8 345.6" xmlns="http://www.w3.org/2000/svg" version="1.1">
 <metadata>
  <rdf:RDF xmlns:dc="http://purl.org/dc/elements/1.1/" xmlns:cc="http://creativecommons.org/ns#" xmlns:rdf="http://www.w3.org/1999/02/22-rdf-syntax-ns#">
   <cc:Work>
    <dc:type rdf:resource="http://purl.org/dc/dcmitype/StillImage"/>
    <dc:date>2024-05-29T08:02:33.138307</dc:date>
    <dc:format>image/svg+xml</dc:format>
    <dc:creator>
     <cc:Agent>
      <dc:title>Matplotlib v3.5.1, https://matplotlib.org/</dc:title>
     </cc:Agent>
    </dc:creator>
   </cc:Work>
  </rdf:RDF>
 </metadata>
 <defs>
  <style type="text/css">*{stroke-linejoin: round; stroke-linecap: butt}</style>
 </defs>
 <g id="figure_1">
  <g id="patch_1">
   <path d="M 0 345.6 
L 460.8 345.6 
L 460.8 0 
L 0 0 
z
" style="fill: #ffffff"/>
  </g>
  <g id="axes_1">
   <g id="patch_2">
    <path d="M 57.6 298.944 
L 360.8064 298.944 
L 360.8064 27.648 
L 57.6 27.648 
z
" style="fill: #ffffff"/>
   </g>
   <g id="line2d_1">
    <path d="M 44.560826 298.944 
L 44.560826 288.304941 
L 57.6 288.304941 
L 57.6 282.985412 
L 70.639174 282.985412 
L 70.639174 277.665882 
L 78.266603 277.665882 
L 78.266603 272.346353 
L 85.894031 272.346353 
L 85.894031 267.026824 
L 97.857967 267.026824 
L 97.857967 261.707294 
L 109.159456 261.707294 
L 109.159456 256.387765 
L 113.954374 256.387765 
L 113.954374 251.068235 
L 116.583514 251.068235 
L 116.583514 245.748706 
L 118.152051 245.748706 
L 118.152051 240.429176 
L 122.499621 240.429176 
L 122.499621 235.109647 
L 125.271028 235.109647 
L 125.271028 229.790118 
L 135.687504 229.790118 
L 135.687504 224.470588 
L 139.556456 224.470588 
L 139.556456 219.151059 
L 141.610664 219.151059 
L 141.610664 213.831529 
L 141.932237 213.831529 
L 141.932237 208.512 
L 145.237585 208.512 
L 145.237585 203.192471 
L 151.982822 203.192471 
L 151.982822 197.872941 
L 153.189104 197.872941 
L 153.189104 192.553412 
L 153.421349 192.553412 
L 153.421349 187.233882 
L 153.989717 187.233882 
L 153.989717 181.914353 
L 154.322673 181.914353 
L 154.322673 176.594824 
L 154.649839 176.594824 
L 154.649839 171.275294 
L 155.13016 171.275294 
L 155.13016 165.955765 
L 155.18278 165.955765 
L 155.18278 160.636235 
L 156.501649 160.636235 
L 156.501649 155.316706 
L 156.648044 155.316706 
L 156.648044 149.997176 
L 156.696589 149.997176 
L 156.696589 144.677647 
L 156.793307 144.677647 
L 156.793307 139.358118 
L 156.84148 139.358118 
L 156.84148 134.038588 
L 156.937458 134.038588 
L 156.937458 128.719059 
L 157.363398 128.719059 
L 157.363398 123.399529 
L 157.503261 123.399529 
L 157.503261 118.08 
L 157.642093 118.08 
L 157.642093 112.760471 
L 157.688143 112.760471 
L 157.688143 107.440941 
L 157.871225 107.440941 
L 157.871225 102.121412 
L 160.142495 102.121412 
L 160.142495 96.801882 
L 162.38507 96.801882 
L 162.38507 91.482353 
L 162.456597 91.482353 
L 162.456597 80.843294 
L 162.56338 80.843294 
L 162.56338 75.523765 
L 162.634233 75.523765 
L 162.634233 70.204235 
L 162.740015 70.204235 
L 162.740015 64.884706 
L 162.775144 64.884706 
L 162.775144 59.565176 
L 162.845206 59.565176 
L 162.845206 54.245647 
L 163.430425 54.245647 
L 163.430425 48.926118 
L 163.464289 48.926118 
L 163.464289 43.606588 
L 163.531835 43.606588 
L 163.531835 32.967529 
L 163.59914 32.967529 
L 163.59914 27.648 
L 360.8064 27.648 
" style="fill: none; stroke: #f5deb3; stroke-width: 4; stroke-linecap: square"/>
   </g>
   <g id="line2d_2">
    <defs>
     <path id="md28e27b5e9" d="M 0 7.778175 
L 7.778175 0 
L 0 -7.778175 
L -7.778175 0 
z
" style="stroke: #f5deb3; stroke-width: 1.5; stroke-linejoin: miter"/>
    </defs>
    <g>
     <use xlink:href="#md28e27b5e9" x="118.152051" y="240.429176" style="fill: #f5deb3; stroke: #f5deb3; stroke-width: 1.5; stroke-linejoin: miter"/>
     <use xlink:href="#md28e27b5e9" x="157.363398" y="123.399529" style="fill: #f5deb3; stroke: #f5deb3; stroke-width: 1.5; stroke-linejoin: miter"/>
     <use xlink:href="#md28e27b5e9" x="163.464289" y="43.606588" style="fill: #f5deb3; stroke: #f5deb3; stroke-width: 1.5; stroke-linejoin: miter"/>
     <use xlink:href="#md28e27b5e9" x="163.59914" y="27.648" style="fill: #f5deb3; stroke: #f5deb3; stroke-width: 1.5; stroke-linejoin: miter"/>
     <use xlink:href="#md28e27b5e9" x="163.59914" y="27.648" style="fill: #f5deb3; stroke: #f5deb3; stroke-width: 1.5; stroke-linejoin: miter"/>
     <use xlink:href="#md28e27b5e9" x="360.8064" y="27.648" style="fill: #f5deb3; stroke: #f5deb3; stroke-width: 1.5; stroke-linejoin: miter"/>
    </g>
   </g>
   <g id="line2d_3">
    <path style="fill: none; stroke: #f5deb3; stroke-width: 4; stroke-linecap: square"/>
    <g/>
   </g>
   <g id="line2d_4">
    <path d="M 360.8064 27.648 
L 380.514816 33.07392 
" style="fill: none; stroke: #f5deb3; stroke-width: 4; stroke-linecap: square"/>
    <g>
     <use xlink:href="#md28e27b5e9" x="360.8064" y="27.648" style="fill: #f5deb3; stroke: #f5deb3; stroke-width: 1.5; stroke-linejoin: miter"/>
     <use xlink:href="#md28e27b5e9" x="380.514816" y="33.07392" style="fill: #f5deb3; stroke: #f5deb3; stroke-width: 1.5; stroke-linejoin: miter"/>
    </g>
   </g>
   <g id="matplotlib.axis_1">
    <g id="xtick_1">
     <g id="line2d_5">
      <path d="M 57.6 298.944 
L 57.6 27.648 
" clip-path="url(#p129615752b)" style="fill: none; stroke: #b0b0b0; stroke-width: 0.8; stroke-linecap: square"/>
     </g>
     <g id="line2d_6">
      <defs>
       <path id="m565c62c62a" d="M 0 0 
L 0 3.5 
" style="stroke: #000000; stroke-width: 0.8"/>
      </defs>
      <g>
       <use xlink:href="#m565c62c62a" x="57.6" y="298.944" style="stroke: #000000; stroke-width: 0.8"/>
      </g>
     </g>
     <g id="text_1">
      <!-- 0 -->
      <g transform="translate(52.191875 318.861344)scale(0.17 -0.17)">
       <defs>
        <path id="DejaVuSans-30" d="M 2034 4250 
Q 1547 4250 1301 3770 
Q 1056 3291 1056 2328 
Q 1056 1369 1301 889 
Q 1547 409 2034 409 
Q 2525 409 2770 889 
Q 3016 1369 3016 2328 
Q 3016 3291 2770 3770 
Q 2525 4250 2034 4250 
z
M 2034 4750 
Q 2819 4750 3233 4129 
Q 3647 3509 3647 2328 
Q 3647 1150 3233 529 
Q 2819 -91 2034 -91 
Q 1250 -91 836 529 
Q 422 1150 422 2328 
Q 422 3509 836 4129 
Q 1250 4750 2034 4750 
z
" transform="scale(0.015625)"/>
       </defs>
       <use xlink:href="#DejaVuSans-30"/>
      </g>
     </g>
    </g>
    <g id="xtick_2">
     <g id="line2d_7">
      <path d="M 144.2304 298.944 
L 144.2304 27.648 
" clip-path="url(#p129615752b)" style="fill: none; stroke: #b0b0b0; stroke-width: 0.8; stroke-linecap: square"/>
     </g>
     <g id="line2d_8">
      <g>
       <use xlink:href="#m565c62c62a" x="144.2304" y="298.944" style="stroke: #000000; stroke-width: 0.8"/>
      </g>
     </g>
     <g id="text_2">
      <!-- 2 -->
      <g transform="translate(138.822275 318.861344)scale(0.17 -0.17)">
       <defs>
        <path id="DejaVuSans-32" d="M 1228 531 
L 3431 531 
L 3431 0 
L 469 0 
L 469 531 
Q 828 903 1448 1529 
Q 2069 2156 2228 2338 
Q 2531 2678 2651 2914 
Q 2772 3150 2772 3378 
Q 2772 3750 2511 3984 
Q 2250 4219 1831 4219 
Q 1534 4219 1204 4116 
Q 875 4013 500 3803 
L 500 4441 
Q 881 4594 1212 4672 
Q 1544 4750 1819 4750 
Q 2544 4750 2975 4387 
Q 3406 4025 3406 3419 
Q 3406 3131 3298 2873 
Q 3191 2616 2906 2266 
Q 2828 2175 2409 1742 
Q 1991 1309 1228 531 
z
" transform="scale(0.015625)"/>
       </defs>
       <use xlink:href="#DejaVuSans-32"/>
      </g>
     </g>
    </g>
    <g id="xtick_3">
     <g id="line2d_9">
      <path d="M 230.8608 298.944 
L 230.8608 27.648 
" clip-path="url(#p129615752b)" style="fill: none; stroke: #b0b0b0; stroke-width: 0.8; stroke-linecap: square"/>
     </g>
     <g id="line2d_10">
      <g>
       <use xlink:href="#m565c62c62a" x="230.8608" y="298.944" style="stroke: #000000; stroke-width: 0.8"/>
      </g>
     </g>
     <g id="text_3">
      <!-- 4 -->
      <g transform="translate(225.452675 318.861344)scale(0.17 -0.17)">
       <defs>
        <path id="DejaVuSans-34" d="M 2419 4116 
L 825 1625 
L 2419 1625 
L 2419 4116 
z
M 2253 4666 
L 3047 4666 
L 3047 1625 
L 3713 1625 
L 3713 1100 
L 3047 1100 
L 3047 0 
L 2419 0 
L 2419 1100 
L 313 1100 
L 313 1709 
L 2253 4666 
z
" transform="scale(0.015625)"/>
       </defs>
       <use xlink:href="#DejaVuSans-34"/>
      </g>
     </g>
    </g>
    <g id="xtick_4">
     <g id="line2d_11">
      <path d="M 317.4912 298.944 
L 317.4912 27.648 
" clip-path="url(#p129615752b)" style="fill: none; stroke: #b0b0b0; stroke-width: 0.8; stroke-linecap: square"/>
     </g>
     <g id="line2d_12">
      <g>
       <use xlink:href="#m565c62c62a" x="317.4912" y="298.944" style="stroke: #000000; stroke-width: 0.8"/>
      </g>
     </g>
     <g id="text_4">
      <!-- 6 -->
      <g transform="translate(312.083075 318.861344)scale(0.17 -0.17)">
       <defs>
        <path id="DejaVuSans-36" d="M 2113 2584 
Q 1688 2584 1439 2293 
Q 1191 2003 1191 1497 
Q 1191 994 1439 701 
Q 1688 409 2113 409 
Q 2538 409 2786 701 
Q 3034 994 3034 1497 
Q 3034 2003 2786 2293 
Q 2538 2584 2113 2584 
z
M 3366 4563 
L 3366 3988 
Q 3128 4100 2886 4159 
Q 2644 4219 2406 4219 
Q 1781 4219 1451 3797 
Q 1122 3375 1075 2522 
Q 1259 2794 1537 2939 
Q 1816 3084 2150 3084 
Q 2853 3084 3261 2657 
Q 3669 2231 3669 1497 
Q 3669 778 3244 343 
Q 2819 -91 2113 -91 
Q 1303 -91 875 529 
Q 447 1150 447 2328 
Q 447 3434 972 4092 
Q 1497 4750 2381 4750 
Q 2619 4750 2861 4703 
Q 3103 4656 3366 4563 
z
" transform="scale(0.015625)"/>
       </defs>
       <use xlink:href="#DejaVuSans-36"/>
      </g>
     </g>
    </g>
    <g id="xtick_5">
     <g id="line2d_13">
      <path d="M 100.9152 298.944 
L 100.9152 27.648 
" clip-path="url(#p129615752b)" style="fill: none; stroke: #b0b0b0; stroke-width: 0.8; stroke-linecap: square"/>
     </g>
     <g id="line2d_14">
      <defs>
       <path id="mce1e71d3bc" d="M 0 0 
L 0 2 
" style="stroke: #000000; stroke-width: 0.6"/>
      </defs>
      <g>
       <use xlink:href="#mce1e71d3bc" x="100.9152" y="298.944" style="stroke: #000000; stroke-width: 0.6"/>
      </g>
     </g>
    </g>
    <g id="xtick_6">
     <g id="line2d_15">
      <path d="M 187.5456 298.944 
L 187.5456 27.648 
" clip-path="url(#p129615752b)" style="fill: none; stroke: #b0b0b0; stroke-width: 0.8; stroke-linecap: square"/>
     </g>
     <g id="line2d_16">
      <g>
       <use xlink:href="#mce1e71d3bc" x="187.5456" y="298.944" style="stroke: #000000; stroke-width: 0.6"/>
      </g>
     </g>
    </g>
    <g id="xtick_7">
     <g id="line2d_17">
      <path d="M 274.176 298.944 
L 274.176 27.648 
" clip-path="url(#p129615752b)" style="fill: none; stroke: #b0b0b0; stroke-width: 0.8; stroke-linecap: square"/>
     </g>
     <g id="line2d_18">
      <g>
       <use xlink:href="#mce1e71d3bc" x="274.176" y="298.944" style="stroke: #000000; stroke-width: 0.6"/>
      </g>
     </g>
    </g>
    <g id="xtick_8">
     <g id="line2d_19">
      <path d="M 360.8064 298.944 
L 360.8064 27.648 
" clip-path="url(#p129615752b)" style="fill: none; stroke: #b0b0b0; stroke-width: 0.8; stroke-linecap: square"/>
     </g>
     <g id="line2d_20">
      <g>
       <use xlink:href="#mce1e71d3bc" x="360.8064" y="298.944" style="stroke: #000000; stroke-width: 0.6"/>
      </g>
     </g>
    </g>
    <g id="text_5">
     <!-- log10(# f-evals / dimension) -->
     <g transform="translate(88.823278 339.314156)scale(0.17 -0.17)">
      <defs>
       <path id="DejaVuSans-6c" d="M 603 4863 
L 1178 4863 
L 1178 0 
L 603 0 
L 603 4863 
z
" transform="scale(0.015625)"/>
       <path id="DejaVuSans-6f" d="M 1959 3097 
Q 1497 3097 1228 2736 
Q 959 2375 959 1747 
Q 959 1119 1226 758 
Q 1494 397 1959 397 
Q 2419 397 2687 759 
Q 2956 1122 2956 1747 
Q 2956 2369 2687 2733 
Q 2419 3097 1959 3097 
z
M 1959 3584 
Q 2709 3584 3137 3096 
Q 3566 2609 3566 1747 
Q 3566 888 3137 398 
Q 2709 -91 1959 -91 
Q 1206 -91 779 398 
Q 353 888 353 1747 
Q 353 2609 779 3096 
Q 1206 3584 1959 3584 
z
" transform="scale(0.015625)"/>
       <path id="DejaVuSans-67" d="M 2906 1791 
Q 2906 2416 2648 2759 
Q 2391 3103 1925 3103 
Q 1463 3103 1205 2759 
Q 947 2416 947 1791 
Q 947 1169 1205 825 
Q 1463 481 1925 481 
Q 2391 481 2648 825 
Q 2906 1169 2906 1791 
z
M 3481 434 
Q 3481 -459 3084 -895 
Q 2688 -1331 1869 -1331 
Q 1566 -1331 1297 -1286 
Q 1028 -1241 775 -1147 
L 775 -588 
Q 1028 -725 1275 -790 
Q 1522 -856 1778 -856 
Q 2344 -856 2625 -561 
Q 2906 -266 2906 331 
L 2906 616 
Q 2728 306 2450 153 
Q 2172 0 1784 0 
Q 1141 0 747 490 
Q 353 981 353 1791 
Q 353 2603 747 3093 
Q 1141 3584 1784 3584 
Q 2172 3584 2450 3431 
Q 2728 3278 2906 2969 
L 2906 3500 
L 3481 3500 
L 3481 434 
z
" transform="scale(0.015625)"/>
       <path id="DejaVuSans-31" d="M 794 531 
L 1825 531 
L 1825 4091 
L 703 3866 
L 703 4441 
L 1819 4666 
L 2450 4666 
L 2450 531 
L 3481 531 
L 3481 0 
L 794 0 
L 794 531 
z
" transform="scale(0.015625)"/>
       <path id="DejaVuSans-28" d="M 1984 4856 
Q 1566 4138 1362 3434 
Q 1159 2731 1159 2009 
Q 1159 1288 1364 580 
Q 1569 -128 1984 -844 
L 1484 -844 
Q 1016 -109 783 600 
Q 550 1309 550 2009 
Q 550 2706 781 3412 
Q 1013 4119 1484 4856 
L 1984 4856 
z
" transform="scale(0.015625)"/>
       <path id="DejaVuSans-23" d="M 3272 2816 
L 2363 2816 
L 2100 1772 
L 3016 1772 
L 3272 2816 
z
M 2803 4594 
L 2478 3297 
L 3391 3297 
L 3719 4594 
L 4219 4594 
L 3897 3297 
L 4872 3297 
L 4872 2816 
L 3775 2816 
L 3519 1772 
L 4513 1772 
L 4513 1294 
L 3397 1294 
L 3072 0 
L 2572 0 
L 2894 1294 
L 1978 1294 
L 1656 0 
L 1153 0 
L 1478 1294 
L 494 1294 
L 494 1772 
L 1594 1772 
L 1856 2816 
L 850 2816 
L 850 3297 
L 1978 3297 
L 2297 4594 
L 2803 4594 
z
" transform="scale(0.015625)"/>
       <path id="DejaVuSans-20" transform="scale(0.015625)"/>
       <path id="DejaVuSans-66" d="M 2375 4863 
L 2375 4384 
L 1825 4384 
Q 1516 4384 1395 4259 
Q 1275 4134 1275 3809 
L 1275 3500 
L 2222 3500 
L 2222 3053 
L 1275 3053 
L 1275 0 
L 697 0 
L 697 3053 
L 147 3053 
L 147 3500 
L 697 3500 
L 697 3744 
Q 697 4328 969 4595 
Q 1241 4863 1831 4863 
L 2375 4863 
z
" transform="scale(0.015625)"/>
       <path id="DejaVuSans-2d" d="M 313 2009 
L 1997 2009 
L 1997 1497 
L 313 1497 
L 313 2009 
z
" transform="scale(0.015625)"/>
       <path id="DejaVuSans-65" d="M 3597 1894 
L 3597 1613 
L 953 1613 
Q 991 1019 1311 708 
Q 1631 397 2203 397 
Q 2534 397 2845 478 
Q 3156 559 3463 722 
L 3463 178 
Q 3153 47 2828 -22 
Q 2503 -91 2169 -91 
Q 1331 -91 842 396 
Q 353 884 353 1716 
Q 353 2575 817 3079 
Q 1281 3584 2069 3584 
Q 2775 3584 3186 3129 
Q 3597 2675 3597 1894 
z
M 3022 2063 
Q 3016 2534 2758 2815 
Q 2500 3097 2075 3097 
Q 1594 3097 1305 2825 
Q 1016 2553 972 2059 
L 3022 2063 
z
" transform="scale(0.015625)"/>
       <path id="DejaVuSans-76" d="M 191 3500 
L 800 3500 
L 1894 563 
L 2988 3500 
L 3597 3500 
L 2284 0 
L 1503 0 
L 191 3500 
z
" transform="scale(0.015625)"/>
       <path id="DejaVuSans-61" d="M 2194 1759 
Q 1497 1759 1228 1600 
Q 959 1441 959 1056 
Q 959 750 1161 570 
Q 1363 391 1709 391 
Q 2188 391 2477 730 
Q 2766 1069 2766 1631 
L 2766 1759 
L 2194 1759 
z
M 3341 1997 
L 3341 0 
L 2766 0 
L 2766 531 
Q 2569 213 2275 61 
Q 1981 -91 1556 -91 
Q 1019 -91 701 211 
Q 384 513 384 1019 
Q 384 1609 779 1909 
Q 1175 2209 1959 2209 
L 2766 2209 
L 2766 2266 
Q 2766 2663 2505 2880 
Q 2244 3097 1772 3097 
Q 1472 3097 1187 3025 
Q 903 2953 641 2809 
L 641 3341 
Q 956 3463 1253 3523 
Q 1550 3584 1831 3584 
Q 2591 3584 2966 3190 
Q 3341 2797 3341 1997 
z
" transform="scale(0.015625)"/>
       <path id="DejaVuSans-73" d="M 2834 3397 
L 2834 2853 
Q 2591 2978 2328 3040 
Q 2066 3103 1784 3103 
Q 1356 3103 1142 2972 
Q 928 2841 928 2578 
Q 928 2378 1081 2264 
Q 1234 2150 1697 2047 
L 1894 2003 
Q 2506 1872 2764 1633 
Q 3022 1394 3022 966 
Q 3022 478 2636 193 
Q 2250 -91 1575 -91 
Q 1294 -91 989 -36 
Q 684 19 347 128 
L 347 722 
Q 666 556 975 473 
Q 1284 391 1588 391 
Q 1994 391 2212 530 
Q 2431 669 2431 922 
Q 2431 1156 2273 1281 
Q 2116 1406 1581 1522 
L 1381 1569 
Q 847 1681 609 1914 
Q 372 2147 372 2553 
Q 372 3047 722 3315 
Q 1072 3584 1716 3584 
Q 2034 3584 2315 3537 
Q 2597 3491 2834 3397 
z
" transform="scale(0.015625)"/>
       <path id="DejaVuSans-2f" d="M 1625 4666 
L 2156 4666 
L 531 -594 
L 0 -594 
L 1625 4666 
z
" transform="scale(0.015625)"/>
       <path id="DejaVuSans-64" d="M 2906 2969 
L 2906 4863 
L 3481 4863 
L 3481 0 
L 2906 0 
L 2906 525 
Q 2725 213 2448 61 
Q 2172 -91 1784 -91 
Q 1150 -91 751 415 
Q 353 922 353 1747 
Q 353 2572 751 3078 
Q 1150 3584 1784 3584 
Q 2172 3584 2448 3432 
Q 2725 3281 2906 2969 
z
M 947 1747 
Q 947 1113 1208 752 
Q 1469 391 1925 391 
Q 2381 391 2643 752 
Q 2906 1113 2906 1747 
Q 2906 2381 2643 2742 
Q 2381 3103 1925 3103 
Q 1469 3103 1208 2742 
Q 947 2381 947 1747 
z
" transform="scale(0.015625)"/>
       <path id="DejaVuSans-69" d="M 603 3500 
L 1178 3500 
L 1178 0 
L 603 0 
L 603 3500 
z
M 603 4863 
L 1178 4863 
L 1178 4134 
L 603 4134 
L 603 4863 
z
" transform="scale(0.015625)"/>
       <path id="DejaVuSans-6d" d="M 3328 2828 
Q 3544 3216 3844 3400 
Q 4144 3584 4550 3584 
Q 5097 3584 5394 3201 
Q 5691 2819 5691 2113 
L 5691 0 
L 5113 0 
L 5113 2094 
Q 5113 2597 4934 2840 
Q 4756 3084 4391 3084 
Q 3944 3084 3684 2787 
Q 3425 2491 3425 1978 
L 3425 0 
L 2847 0 
L 2847 2094 
Q 2847 2600 2669 2842 
Q 2491 3084 2119 3084 
Q 1678 3084 1418 2786 
Q 1159 2488 1159 1978 
L 1159 0 
L 581 0 
L 581 3500 
L 1159 3500 
L 1159 2956 
Q 1356 3278 1631 3431 
Q 1906 3584 2284 3584 
Q 2666 3584 2933 3390 
Q 3200 3197 3328 2828 
z
" transform="scale(0.015625)"/>
       <path id="DejaVuSans-6e" d="M 3513 2113 
L 3513 0 
L 2938 0 
L 2938 2094 
Q 2938 2591 2744 2837 
Q 2550 3084 2163 3084 
Q 1697 3084 1428 2787 
Q 1159 2491 1159 1978 
L 1159 0 
L 581 0 
L 581 3500 
L 1159 3500 
L 1159 2956 
Q 1366 3272 1645 3428 
Q 1925 3584 2291 3584 
Q 2894 3584 3203 3211 
Q 3513 2838 3513 2113 
z
" transform="scale(0.015625)"/>
       <path id="DejaVuSans-29" d="M 513 4856 
L 1013 4856 
Q 1481 4119 1714 3412 
Q 1947 2706 1947 2009 
Q 1947 1309 1714 600 
Q 1481 -109 1013 -844 
L 513 -844 
Q 928 -128 1133 580 
Q 1338 1288 1338 2009 
Q 1338 2731 1133 3434 
Q 928 4138 513 4856 
z
" transform="scale(0.015625)"/>
      </defs>
      <use xlink:href="#DejaVuSans-6c"/>
      <use xlink:href="#DejaVuSans-6f" x="27.783203"/>
      <use xlink:href="#DejaVuSans-67" x="88.964844"/>
      <use xlink:href="#DejaVuSans-31" x="152.441406"/>
      <use xlink:href="#DejaVuSans-30" x="216.064453"/>
      <use xlink:href="#DejaVuSans-28" x="279.6875"/>
      <use xlink:href="#DejaVuSans-23" x="318.701172"/>
      <use xlink:href="#DejaVuSans-20" x="402.490234"/>
      <use xlink:href="#DejaVuSans-66" x="434.277344"/>
      <use xlink:href="#DejaVuSans-2d" x="463.982422"/>
      <use xlink:href="#DejaVuSans-65" x="500.066406"/>
      <use xlink:href="#DejaVuSans-76" x="561.589844"/>
      <use xlink:href="#DejaVuSans-61" x="620.769531"/>
      <use xlink:href="#DejaVuSans-6c" x="682.048828"/>
      <use xlink:href="#DejaVuSans-73" x="709.832031"/>
      <use xlink:href="#DejaVuSans-20" x="761.931641"/>
      <use xlink:href="#DejaVuSans-2f" x="793.71875"/>
      <use xlink:href="#DejaVuSans-20" x="827.410156"/>
      <use xlink:href="#DejaVuSans-64" x="859.197266"/>
      <use xlink:href="#DejaVuSans-69" x="922.673828"/>
      <use xlink:href="#DejaVuSans-6d" x="950.457031"/>
      <use xlink:href="#DejaVuSans-65" x="1047.869141"/>
      <use xlink:href="#DejaVuSans-6e" x="1109.392578"/>
      <use xlink:href="#DejaVuSans-73" x="1172.771484"/>
      <use xlink:href="#DejaVuSans-69" x="1224.871094"/>
      <use xlink:href="#DejaVuSans-6f" x="1252.654297"/>
      <use xlink:href="#DejaVuSans-6e" x="1313.835938"/>
      <use xlink:href="#DejaVuSans-29" x="1377.214844"/>
     </g>
    </g>
   </g>
   <g id="matplotlib.axis_2">
    <g id="ytick_1">
     <g id="line2d_21">
      <path d="M 57.6 298.944 
L 360.8064 298.944 
" clip-path="url(#p129615752b)" style="fill: none; stroke: #b0b0b0; stroke-width: 0.8; stroke-linecap: square"/>
     </g>
     <g id="line2d_22">
      <defs>
       <path id="m5ccadd9c0b" d="M 0 0 
L -3.5 0 
" style="stroke: #000000; stroke-width: 0.8"/>
      </defs>
      <g>
       <use xlink:href="#m5ccadd9c0b" x="57.6" y="298.944" style="stroke: #000000; stroke-width: 0.8"/>
      </g>
     </g>
     <g id="text_6">
      <!-- 0.0 -->
      <g transform="translate(25.155 305.02275)scale(0.16 -0.16)">
       <defs>
        <path id="DejaVuSans-2e" d="M 684 794 
L 1344 794 
L 1344 0 
L 684 0 
L 684 794 
z
" transform="scale(0.015625)"/>
       </defs>
       <use xlink:href="#DejaVuSans-30"/>
       <use xlink:href="#DejaVuSans-2e" x="63.623047"/>
       <use xlink:href="#DejaVuSans-30" x="95.410156"/>
      </g>
     </g>
    </g>
    <g id="ytick_2">
     <g id="line2d_23">
      <path d="M 57.6 244.6848 
L 360.8064 244.6848 
" clip-path="url(#p129615752b)" style="fill: none; stroke: #b0b0b0; stroke-width: 0.8; stroke-linecap: square"/>
     </g>
     <g id="line2d_24">
      <g>
       <use xlink:href="#m5ccadd9c0b" x="57.6" y="244.6848" style="stroke: #000000; stroke-width: 0.8"/>
      </g>
     </g>
     <g id="text_7">
      <!-- 0.2 -->
      <g transform="translate(25.155 250.76355)scale(0.16 -0.16)">
       <use xlink:href="#DejaVuSans-30"/>
       <use xlink:href="#DejaVuSans-2e" x="63.623047"/>
       <use xlink:href="#DejaVuSans-32" x="95.410156"/>
      </g>
     </g>
    </g>
    <g id="ytick_3">
     <g id="line2d_25">
      <path d="M 57.6 190.4256 
L 360.8064 190.4256 
" clip-path="url(#p129615752b)" style="fill: none; stroke: #b0b0b0; stroke-width: 0.8; stroke-linecap: square"/>
     </g>
     <g id="line2d_26">
      <g>
       <use xlink:href="#m5ccadd9c0b" x="57.6" y="190.4256" style="stroke: #000000; stroke-width: 0.8"/>
      </g>
     </g>
     <g id="text_8">
      <!-- 0.4 -->
      <g transform="translate(25.155 196.50435)scale(0.16 -0.16)">
       <use xlink:href="#DejaVuSans-30"/>
       <use xlink:href="#DejaVuSans-2e" x="63.623047"/>
       <use xlink:href="#DejaVuSans-34" x="95.410156"/>
      </g>
     </g>
    </g>
    <g id="ytick_4">
     <g id="line2d_27">
      <path d="M 57.6 136.1664 
L 360.8064 136.1664 
" clip-path="url(#p129615752b)" style="fill: none; stroke: #b0b0b0; stroke-width: 0.8; stroke-linecap: square"/>
     </g>
     <g id="line2d_28">
      <g>
       <use xlink:href="#m5ccadd9c0b" x="57.6" y="136.1664" style="stroke: #000000; stroke-width: 0.8"/>
      </g>
     </g>
     <g id="text_9">
      <!-- 0.6 -->
      <g transform="translate(25.155 142.24515)scale(0.16 -0.16)">
       <use xlink:href="#DejaVuSans-30"/>
       <use xlink:href="#DejaVuSans-2e" x="63.623047"/>
       <use xlink:href="#DejaVuSans-36" x="95.410156"/>
      </g>
     </g>
    </g>
    <g id="ytick_5">
     <g id="line2d_29">
      <path d="M 57.6 81.9072 
L 360.8064 81.9072 
" clip-path="url(#p129615752b)" style="fill: none; stroke: #b0b0b0; stroke-width: 0.8; stroke-linecap: square"/>
     </g>
     <g id="line2d_30">
      <g>
       <use xlink:href="#m5ccadd9c0b" x="57.6" y="81.9072" style="stroke: #000000; stroke-width: 0.8"/>
      </g>
     </g>
     <g id="text_10">
      <!-- 0.8 -->
      <g transform="translate(25.155 87.98595)scale(0.16 -0.16)">
       <defs>
        <path id="DejaVuSans-38" d="M 2034 2216 
Q 1584 2216 1326 1975 
Q 1069 1734 1069 1313 
Q 1069 891 1326 650 
Q 1584 409 2034 409 
Q 2484 409 2743 651 
Q 3003 894 3003 1313 
Q 3003 1734 2745 1975 
Q 2488 2216 2034 2216 
z
M 1403 2484 
Q 997 2584 770 2862 
Q 544 3141 544 3541 
Q 544 4100 942 4425 
Q 1341 4750 2034 4750 
Q 2731 4750 3128 4425 
Q 3525 4100 3525 3541 
Q 3525 3141 3298 2862 
Q 3072 2584 2669 2484 
Q 3125 2378 3379 2068 
Q 3634 1759 3634 1313 
Q 3634 634 3220 271 
Q 2806 -91 2034 -91 
Q 1263 -91 848 271 
Q 434 634 434 1313 
Q 434 1759 690 2068 
Q 947 2378 1403 2484 
z
M 1172 3481 
Q 1172 3119 1398 2916 
Q 1625 2713 2034 2713 
Q 2441 2713 2670 2916 
Q 2900 3119 2900 3481 
Q 2900 3844 2670 4047 
Q 2441 4250 2034 4250 
Q 1625 4250 1398 4047 
Q 1172 3844 1172 3481 
z
" transform="scale(0.015625)"/>
       </defs>
       <use xlink:href="#DejaVuSans-30"/>
       <use xlink:href="#DejaVuSans-2e" x="63.623047"/>
       <use xlink:href="#DejaVuSans-38" x="95.410156"/>
      </g>
     </g>
    </g>
    <g id="ytick_6">
     <g id="line2d_31">
      <path d="M 57.6 27.648 
L 360.8064 27.648 
" clip-path="url(#p129615752b)" style="fill: none; stroke: #b0b0b0; stroke-width: 0.8; stroke-linecap: square"/>
     </g>
     <g id="line2d_32">
      <g>
       <use xlink:href="#m5ccadd9c0b" x="57.6" y="27.648" style="stroke: #000000; stroke-width: 0.8"/>
      </g>
     </g>
     <g id="text_11">
      <!-- 1.0 -->
      <g transform="translate(25.155 33.72675)scale(0.16 -0.16)">
       <use xlink:href="#DejaVuSans-31"/>
       <use xlink:href="#DejaVuSans-2e" x="63.623047"/>
       <use xlink:href="#DejaVuSans-30" x="95.410156"/>
      </g>
     </g>
    </g>
    <g id="text_12">
     <!-- Fraction of function,target pairs -->
     <g transform="translate(17.619531 297.681)rotate(-90)scale(0.17 -0.17)">
      <defs>
       <path id="DejaVuSans-46" d="M 628 4666 
L 3309 4666 
L 3309 4134 
L 1259 4134 
L 1259 2759 
L 3109 2759 
L 3109 2228 
L 1259 2228 
L 1259 0 
L 628 0 
L 628 4666 
z
" transform="scale(0.015625)"/>
       <path id="DejaVuSans-72" d="M 2631 2963 
Q 2534 3019 2420 3045 
Q 2306 3072 2169 3072 
Q 1681 3072 1420 2755 
Q 1159 2438 1159 1844 
L 1159 0 
L 581 0 
L 581 3500 
L 1159 3500 
L 1159 2956 
Q 1341 3275 1631 3429 
Q 1922 3584 2338 3584 
Q 2397 3584 2469 3576 
Q 2541 3569 2628 3553 
L 2631 2963 
z
" transform="scale(0.015625)"/>
       <path id="DejaVuSans-63" d="M 3122 3366 
L 3122 2828 
Q 2878 2963 2633 3030 
Q 2388 3097 2138 3097 
Q 1578 3097 1268 2742 
Q 959 2388 959 1747 
Q 959 1106 1268 751 
Q 1578 397 2138 397 
Q 2388 397 2633 464 
Q 2878 531 3122 666 
L 3122 134 
Q 2881 22 2623 -34 
Q 2366 -91 2075 -91 
Q 1284 -91 818 406 
Q 353 903 353 1747 
Q 353 2603 823 3093 
Q 1294 3584 2113 3584 
Q 2378 3584 2631 3529 
Q 2884 3475 3122 3366 
z
" transform="scale(0.015625)"/>
       <path id="DejaVuSans-74" d="M 1172 4494 
L 1172 3500 
L 2356 3500 
L 2356 3053 
L 1172 3053 
L 1172 1153 
Q 1172 725 1289 603 
Q 1406 481 1766 481 
L 2356 481 
L 2356 0 
L 1766 0 
Q 1100 0 847 248 
Q 594 497 594 1153 
L 594 3053 
L 172 3053 
L 172 3500 
L 594 3500 
L 594 4494 
L 1172 4494 
z
" transform="scale(0.015625)"/>
       <path id="DejaVuSans-75" d="M 544 1381 
L 544 3500 
L 1119 3500 
L 1119 1403 
Q 1119 906 1312 657 
Q 1506 409 1894 409 
Q 2359 409 2629 706 
Q 2900 1003 2900 1516 
L 2900 3500 
L 3475 3500 
L 3475 0 
L 2900 0 
L 2900 538 
Q 2691 219 2414 64 
Q 2138 -91 1772 -91 
Q 1169 -91 856 284 
Q 544 659 544 1381 
z
M 1991 3584 
L 1991 3584 
z
" transform="scale(0.015625)"/>
       <path id="DejaVuSans-2c" d="M 750 794 
L 1409 794 
L 1409 256 
L 897 -744 
L 494 -744 
L 750 256 
L 750 794 
z
" transform="scale(0.015625)"/>
       <path id="DejaVuSans-70" d="M 1159 525 
L 1159 -1331 
L 581 -1331 
L 581 3500 
L 1159 3500 
L 1159 2969 
Q 1341 3281 1617 3432 
Q 1894 3584 2278 3584 
Q 2916 3584 3314 3078 
Q 3713 2572 3713 1747 
Q 3713 922 3314 415 
Q 2916 -91 2278 -91 
Q 1894 -91 1617 61 
Q 1341 213 1159 525 
z
M 3116 1747 
Q 3116 2381 2855 2742 
Q 2594 3103 2138 3103 
Q 1681 3103 1420 2742 
Q 1159 2381 1159 1747 
Q 1159 1113 1420 752 
Q 1681 391 2138 391 
Q 2594 391 2855 752 
Q 3116 1113 3116 1747 
z
" transform="scale(0.015625)"/>
      </defs>
      <use xlink:href="#DejaVuSans-46"/>
      <use xlink:href="#DejaVuSans-72" x="50.269531"/>
      <use xlink:href="#DejaVuSans-61" x="91.382812"/>
      <use xlink:href="#DejaVuSans-63" x="152.662109"/>
      <use xlink:href="#DejaVuSans-74" x="207.642578"/>
      <use xlink:href="#DejaVuSans-69" x="246.851562"/>
      <use xlink:href="#DejaVuSans-6f" x="274.634766"/>
      <use xlink:href="#DejaVuSans-6e" x="335.816406"/>
      <use xlink:href="#DejaVuSans-20" x="399.195312"/>
      <use xlink:href="#DejaVuSans-6f" x="430.982422"/>
      <use xlink:href="#DejaVuSans-66" x="492.164062"/>
      <use xlink:href="#DejaVuSans-20" x="527.369141"/>
      <use xlink:href="#DejaVuSans-66" x="559.15625"/>
      <use xlink:href="#DejaVuSans-75" x="594.361328"/>
      <use xlink:href="#DejaVuSans-6e" x="657.740234"/>
      <use xlink:href="#DejaVuSans-63" x="721.119141"/>
      <use xlink:href="#DejaVuSans-74" x="776.099609"/>
      <use xlink:href="#DejaVuSans-69" x="815.308594"/>
      <use xlink:href="#DejaVuSans-6f" x="843.091797"/>
      <use xlink:href="#DejaVuSans-6e" x="904.273438"/>
      <use xlink:href="#DejaVuSans-2c" x="967.652344"/>
      <use xlink:href="#DejaVuSans-74" x="999.439453"/>
      <use xlink:href="#DejaVuSans-61" x="1038.648438"/>
      <use xlink:href="#DejaVuSans-72" x="1099.927734"/>
      <use xlink:href="#DejaVuSans-67" x="1139.291016"/>
      <use xlink:href="#DejaVuSans-65" x="1202.767578"/>
      <use xlink:href="#DejaVuSans-74" x="1264.291016"/>
      <use xlink:href="#DejaVuSans-20" x="1303.5"/>
      <use xlink:href="#DejaVuSans-70" x="1335.287109"/>
      <use xlink:href="#DejaVuSans-61" x="1398.763672"/>
      <use xlink:href="#DejaVuSans-69" x="1460.042969"/>
      <use xlink:href="#DejaVuSans-72" x="1487.826172"/>
      <use xlink:href="#DejaVuSans-73" x="1528.939453"/>
     </g>
    </g>
   </g>
   <g id="line2d_33">
    <defs>
     <path id="m05dd370ec7" d="M 0 1.5 
C 0.397805 1.5 0.77937 1.341951 1.06066 1.06066 
C 1.341951 0.77937 1.5 0.397805 1.5 0 
C 1.5 -0.397805 1.341951 -0.77937 1.06066 -1.06066 
C 0.77937 -1.341951 0.397805 -1.5 0 -1.5 
C -0.397805 -1.5 -0.77937 -1.341951 -1.06066 -1.06066 
C -1.341951 -0.77937 -1.5 -0.397805 -1.5 0 
C -1.5 0.397805 -1.341951 0.77937 -1.06066 1.06066 
C -0.77937 1.341951 -0.397805 1.5 0 1.5 
z
" style="stroke: #f5deb3"/>
    </defs>
    <g>
     <use xlink:href="#m05dd370ec7" x="163.59914" y="27.648" style="fill: #f5deb3; stroke: #f5deb3"/>
     <use xlink:href="#m05dd370ec7" x="163.59914" y="27.648" style="fill: #f5deb3; stroke: #f5deb3"/>
    </g>
   </g>
   <g id="line2d_34">
    <defs>
     <path id="m8fe0d6326d" d="M 0 1.5 
C 0.397805 1.5 0.77937 1.341951 1.06066 1.06066 
C 1.341951 0.77937 1.5 0.397805 1.5 0 
C 1.5 -0.397805 1.341951 -0.77937 1.06066 -1.06066 
C 0.77937 -1.341951 0.397805 -1.5 0 -1.5 
C -0.397805 -1.5 -0.77937 -1.341951 -1.06066 -1.06066 
C -1.341951 -0.77937 -1.5 -0.397805 -1.5 0 
C -1.5 0.397805 -1.341951 0.77937 -1.06066 1.06066 
C -0.77937 1.341951 -0.397805 1.5 0 1.5 
z
" style="stroke: #000080"/>
    </defs>
    <g>
     <use xlink:href="#m8fe0d6326d" x="311.597963" y="27.648" style="fill: #000080; stroke: #000080"/>
     <use xlink:href="#m8fe0d6326d" x="311.597963" y="27.648" style="fill: #000080; stroke: #000080"/>
    </g>
   </g>
   <g id="line2d_35">
    <path d="M 44.560826 298.944 
L 44.560826 293.624471 
L 57.6 293.624471 
L 57.6 290.432753 
L 65.227428 290.432753 
L 65.227428 286.531765 
L 70.639174 286.531765 
L 70.639174 285.822494 
L 74.836851 285.822494 
L 74.836851 282.276141 
L 78.266603 282.276141 
L 78.266603 279.793694 
L 81.166416 279.793694 
L 81.166416 278.729788 
L 83.678349 278.729788 
L 83.678349 278.375153 
L 85.894031 278.375153 
L 85.894031 273.764894 
L 87.876026 273.764894 
L 87.876026 271.991718 
L 89.668958 271.991718 
L 89.668958 271.637082 
L 91.305777 271.637082 
L 91.305777 268.8 
L 92.811505 268.8 
L 92.811505 268.445365 
L 98.933205 268.445365 
L 98.933205 267.736094 
L 100.9152 267.736094 
L 100.9152 265.608282 
L 101.833019 265.608282 
L 101.833019 264.189741 
L 108.542628 264.189741 
L 108.542628 263.835106 
L 109.756698 263.835106 
L 109.756698 263.480471 
L 111.97238 263.480471 
L 111.97238 263.125835 
L 112.487797 263.125835 
L 112.487797 262.7712 
L 112.989468 262.7712 
L 112.989468 259.224847 
L 114.872193 259.224847 
L 114.872193 258.870212 
L 117.772007 258.870212 
L 117.772007 256.7424 
L 118.152051 256.7424 
L 118.152051 256.033129 
L 118.889854 256.033129 
L 118.889854 254.969224 
L 119.944983 254.969224 
L 119.944983 254.614588 
L 125.526971 254.614588 
L 125.526971 253.196047 
L 132.46399 253.196047 
L 132.46399 252.486776 
L 133.323114 252.486776 
L 133.323114 251.777506 
L 134.14471 251.777506 
L 134.14471 251.422871 
L 134.304809 251.422871 
L 134.304809 249.649694 
L 136.97549 249.649694 
L 136.97549 249.295059 
L 139.191172 249.295059 
L 139.191172 248.231153 
L 140.49723 248.231153 
L 140.49723 247.876518 
L 141.825656 247.876518 
L 141.825656 247.167247 
L 147.423525 247.167247 
L 147.423525 246.812612 
L 149.453084 246.812612 
L 149.453084 246.103341 
L 150.357325 246.103341 
L 150.357325 244.6848 
L 152.595631 244.6848 
L 152.595631 244.330165 
L 153.933646 244.330165 
L 153.933646 243.620894 
L 156.205398 243.620894 
L 156.205398 243.266259 
L 156.452597 243.266259 
L 156.452597 242.202353 
L 157.032948 242.202353 
L 157.032948 240.783812 
L 158.321284 240.783812 
L 158.321284 240.429176 
L 158.630038 240.429176 
L 158.630038 240.074541 
L 160.816532 240.074541 
L 160.816532 239.719906 
L 161.278189 239.719906 
L 161.278189 239.365271 
L 161.504837 239.365271 
L 161.542347 238.656 
L 161.691646 238.656 
L 161.691646 237.592094 
L 162.023298 237.592094 
L 162.023298 233.336471 
L 162.241195 233.336471 
L 162.241195 231.563294 
L 163.766354 231.563294 
L 163.766354 230.499388 
L 164.834193 230.499388 
L 164.834193 230.144753 
L 165.084184 230.144753 
L 165.084184 229.080847 
L 165.269521 229.080847 
L 165.269521 228.016941 
L 165.993131 228.016941 
L 166.052194 226.243765 
L 166.373767 226.243765 
L 166.373767 225.534494 
L 166.8036 225.534494 
L 166.888401 224.825224 
L 167.251516 224.825224 
L 167.251516 224.470588 
L 167.580589 224.470588 
L 167.580589 224.115953 
L 167.983997 224.115953 
L 167.983997 223.761318 
L 168.195663 223.761318 
L 168.248209 222.697412 
L 168.430973 222.697412 
L 168.482867 221.633506 
L 168.560441 221.633506 
L 168.586228 220.924235 
L 169.565302 220.924235 
L 169.565302 220.5696 
L 170.119687 220.5696 
L 170.214455 219.505694 
L 170.727317 219.505694 
L 170.727317 219.151059 
L 171.069148 219.151059 
L 171.069148 218.796424 
L 171.315934 218.796424 
L 171.315934 218.441788 
L 172.711612 218.441788 
L 172.711612 217.377882 
L 173.221995 217.377882 
L 173.221995 217.023247 
L 176.144812 217.023247 
L 176.144812 216.313976 
L 176.822169 216.313976 
L 176.822169 215.959341 
L 177.620009 215.959341 
L 177.620009 215.604706 
L 178.400683 215.604706 
L 178.400683 214.186165 
L 178.824112 214.186165 
L 178.883832 211.703718 
L 178.987886 211.703718 
L 179.06186 210.639812 
L 179.120831 210.639812 
L 179.120831 210.285176 
L 179.354881 210.285176 
L 179.354881 209.930541 
L 180.633351 209.930541 
L 180.633351 209.575906 
L 181.155741 209.575906 
L 181.168947 208.866635 
L 182.133854 208.866635 
L 182.133854 208.512 
L 182.308614 208.512 
L 182.308614 207.802729 
L 182.931853 207.802729 
L 182.931853 207.448094 
L 184.91505 207.448094 
L 184.91505 207.093459 
L 186.728623 207.093459 
L 186.728623 205.674918 
L 187.676822 205.674918 
L 187.676822 204.965647 
L 188.827153 204.965647 
L 188.827153 204.611012 
L 190.928264 204.611012 
L 190.928264 204.256376 
L 192.452116 204.256376 
L 192.546084 202.837835 
L 192.746895 202.837835 
L 192.746895 202.128565 
L 193.336779 202.128565 
L 193.336779 201.773929 
L 193.631734 201.773929 
L 193.631734 201.419294 
L 194.619426 201.419294 
L 194.677457 200.355388 
L 196.257322 200.355388 
L 196.257322 200.000753 
L 197.791259 200.000753 
L 197.791259 199.646118 
L 197.981249 199.646118 
L 197.981249 199.291482 
L 198.382021 199.291482 
L 198.382021 198.227576 
L 199.102938 198.227576 
L 199.102938 197.518306 
L 199.890189 197.518306 
L 199.890189 197.163671 
L 200.180721 197.163671 
L 200.180721 196.4544 
L 200.324321 196.4544 
L 200.419449 193.617318 
L 200.490481 193.617318 
L 200.598878 192.553412 
L 200.888005 192.553412 
L 200.98954 191.844141 
L 201.538391 191.844141 
L 201.538391 191.489506 
L 202.424677 191.489506 
L 202.424677 191.134871 
L 203.356503 191.134871 
L 203.356503 190.780235 
L 204.002765 190.780235 
L 204.100549 187.588518 
L 206.160406 187.588518 
L 206.223239 186.169976 
L 206.667505 186.169976 
L 206.667505 183.332894 
L 206.826797 183.332894 
L 206.880717 182.268988 
L 207.0549 182.268988 
L 207.0549 180.850447 
L 207.184486 180.850447 
L 207.257194 178.722635 
L 207.355891 178.722635 
L 207.405046 174.821647 
L 208.877513 174.821647 
L 208.877513 173.757741 
L 209.595984 173.757741 
L 209.595984 172.693835 
L 210.110299 172.693835 
L 210.110299 172.3392 
L 211.060887 172.3392 
L 211.060887 171.984565 
L 211.531899 171.984565 
L 211.542408 171.275294 
L 215.565927 171.275294 
L 215.565927 170.920659 
L 216.527121 170.920659 
L 216.585471 170.211388 
L 216.711609 170.211388 
L 216.711609 169.856753 
L 219.075041 169.856753 
L 219.075041 169.502118 
L 221.602366 169.502118 
L 221.602366 169.147482 
L 223.621099 169.147482 
L 223.621099 168.792847 
L 223.929526 168.792847 
L 223.929526 168.438212 
L 224.784049 168.438212 
L 224.785348 167.374306 
L 225.486639 167.374306 
L 225.486639 167.019671 
L 225.637476 167.019671 
L 225.637476 166.665035 
L 225.795734 166.665035 
L 225.795734 166.3104 
L 226.362094 166.3104 
L 226.472873 164.891859 
L 226.481185 164.891859 
L 226.591267 163.827953 
L 226.63724 163.827953 
L 226.63724 163.473318 
L 227.311404 163.473318 
L 227.311404 163.118682 
L 229.296352 163.118682 
L 229.296352 162.764047 
L 229.515849 162.764047 
L 229.515849 162.054776 
L 230.702116 162.054776 
L 230.702116 161.700141 
L 231.928512 161.700141 
L 231.928512 160.636235 
L 232.305073 160.636235 
L 232.413642 157.089882 
L 232.494013 157.089882 
L 232.536222 155.671341 
L 232.660572 155.671341 
L 232.660572 155.316706 
L 236.043538 155.316706 
L 236.043538 154.2528 
L 236.310836 154.2528 
L 236.41474 153.543529 
L 236.813748 153.543529 
L 236.813748 153.188894 
L 237.285525 153.188894 
L 237.285525 152.834259 
L 237.412104 152.834259 
L 237.412104 152.479624 
L 237.686307 152.479624 
L 237.686961 150.706447 
L 240.530324 150.706447 
L 240.530324 147.160094 
L 242.867125 147.160094 
L 242.867125 146.805459 
L 247.373568 146.805459 
L 247.400137 146.096188 
L 247.589329 146.096188 
L 247.649917 143.259106 
L 247.745995 143.259106 
L 247.845016 139.003482 
L 247.894142 139.003482 
L 247.901747 137.230306 
L 250.402747 137.230306 
L 250.476161 135.811765 
L 250.551602 135.811765 
L 250.551602 135.102494 
L 251.166544 135.102494 
L 251.274895 132.265412 
L 251.332956 132.265412 
L 251.399047 129.073694 
L 251.462076 129.073694 
L 251.538373 124.818071 
L 251.588441 124.818071 
L 251.588441 121.980988 
L 251.933088 121.980988 
L 251.933088 120.207812 
L 252.086189 120.207812 
L 252.172729 115.242918 
L 258.412145 115.242918 
L 258.433659 114.179012 
L 258.539564 114.179012 
L 258.539564 113.824376 
L 274.242382 113.824376 
L 274.338859 111.696565 
L 274.399837 111.696565 
L 274.507716 110.278024 
L 274.520557 110.278024 
L 274.621869 107.086306 
L 274.675344 107.086306 
L 274.773824 98.575059 
L 275.03676 98.575059 
L 275.03676 98.220424 
L 275.414538 98.220424 
L 275.490911 96.801882 
L 275.601623 96.801882 
L 275.621841 94.674071 
L 275.850561 94.674071 
L 275.850561 93.610165 
L 276.06854 93.610165 
L 276.127561 89.709176 
L 276.503715 89.709176 
L 276.547298 88.999906 
L 276.652557 88.999906 
L 276.702541 87.936 
L 277.084411 87.936 
L 277.084411 86.872094 
L 277.4375 86.872094 
L 277.4375 86.517459 
L 278.231073 86.517459 
L 278.334659 81.197929 
L 278.86877 81.197929 
L 278.874047 80.488659 
L 279.053508 80.488659 
L 279.125582 75.169129 
L 279.205878 75.169129 
L 279.262378 73.041318 
L 287.266413 73.041318 
L 287.268289 71.977412 
L 287.401424 71.977412 
L 287.483573 66.303247 
L 287.946012 66.303247 
L 287.946012 65.593976 
L 288.071082 65.593976 
L 288.071082 65.239341 
L 288.185235 65.239341 
L 288.222716 62.756894 
L 288.415013 62.756894 
L 288.52083 60.629082 
L 288.725532 60.629082 
L 288.725532 59.919812 
L 289.35462 59.919812 
L 289.40919 55.309553 
L 289.710481 55.309553 
L 289.820006 52.827106 
L 289.845745 52.827106 
L 289.897728 50.344659 
L 294.917511 50.344659 
L 295.021959 47.507576 
L 295.291197 47.507576 
L 295.332969 46.443671 
L 295.511393 46.443671 
L 295.520257 45.7344 
L 295.650937 45.7344 
L 295.72303 44.670494 
L 296.309712 44.670494 
L 296.333333 42.542682 
L 296.548888 42.542682 
L 296.641092 39.7056 
L 296.689043 39.7056 
L 296.689043 38.996329 
L 300.279986 38.996329 
L 300.383866 37.577788 
L 300.758158 37.577788 
L 300.760424 36.868518 
L 301.024682 36.868518 
L 301.024682 36.513882 
L 301.601815 36.513882 
L 301.655891 33.322165 
L 304.576465 33.322165 
L 304.576465 32.967529 
L 304.747647 32.967529 
L 304.853955 32.258259 
L 305.070795 32.258259 
L 305.070795 31.903624 
L 305.357891 31.903624 
L 305.357891 31.548988 
L 305.53761 31.548988 
L 305.548775 30.839718 
L 307.943675 30.839718 
L 307.970967 29.775812 
L 308.21072 29.775812 
L 308.21072 29.421176 
L 308.621268 29.421176 
L 308.621268 29.066541 
L 308.827643 29.066541 
L 308.827643 28.711906 
L 311.163973 28.711906 
L 311.163973 28.357271 
L 311.563347 28.357271 
L 311.597963 27.648 
L 360.8064 27.648 
L 360.8064 27.648 
" style="fill: none; stroke: #000080; stroke-width: 1.5; stroke-linecap: square"/>
   </g>
   <g id="line2d_36">
    <defs>
     <path id="mc61fe19b30" d="M 0 6 
C 1.591219 6 3.117479 5.367802 4.242641 4.242641 
C 5.367802 3.117479 6 1.591219 6 0 
C 6 -1.591219 5.367802 -3.117479 4.242641 -4.242641 
C 3.117479 -5.367802 1.591219 -6 0 -6 
C -1.591219 -6 -3.117479 -5.367802 -4.242641 -4.242641 
C -5.367802 -3.117479 -6 -1.591219 -6 0 
C -6 1.591219 -5.367802 3.117479 -4.242641 4.242641 
C -3.117479 5.367802 -1.591219 6 0 6 
z
" style="stroke: #000080; stroke-width: 1.5"/>
    </defs>
    <g>
     <use xlink:href="#mc61fe19b30" x="147.423525" y="247.167247" style="fill-opacity: 0; stroke: #000080; stroke-width: 1.5"/>
     <use xlink:href="#mc61fe19b30" x="207.355891" y="178.722635" style="fill-opacity: 0; stroke: #000080; stroke-width: 1.5"/>
     <use xlink:href="#mc61fe19b30" x="279.262378" y="73.041318" style="fill-opacity: 0; stroke: #000080; stroke-width: 1.5"/>
     <use xlink:href="#mc61fe19b30" x="311.597963" y="27.648" style="fill-opacity: 0; stroke: #000080; stroke-width: 1.5"/>
     <use xlink:href="#mc61fe19b30" x="311.597963" y="27.648" style="fill-opacity: 0; stroke: #000080; stroke-width: 1.5"/>
     <use xlink:href="#mc61fe19b30" x="360.8064" y="27.648" style="fill-opacity: 0; stroke: #000080; stroke-width: 1.5"/>
    </g>
   </g>
   <g id="line2d_37">
    <path style="fill: none; stroke: #000080; stroke-width: 1.5; stroke-linecap: square"/>
    <g/>
   </g>
   <g id="line2d_38">
    <path d="M 274.176 113.824376 
" clip-path="url(#p129615752b)" style="fill: none; stroke: #000080; stroke-width: 1.5; stroke-linecap: square"/>
    <defs>
     <path id="ma7ea534e71" d="M -12 12 
L 12 -12 
M -12 -12 
L 12 12 
" style="stroke: #000080"/>
    </defs>
    <g clip-path="url(#p129615752b)">
     <use xlink:href="#ma7ea534e71" x="274.176" y="113.824376" style="fill: #000080; stroke: #000080"/>
    </g>
   </g>
   <g id="line2d_39">
    <defs>
     <path id="mc0b95016c5" d="M 0 1.5 
C 0.397805 1.5 0.77937 1.341951 1.06066 1.06066 
C 1.341951 0.77937 1.5 0.397805 1.5 0 
C 1.5 -0.397805 1.341951 -0.77937 1.06066 -1.06066 
C 0.77937 -1.341951 0.397805 -1.5 0 -1.5 
C -0.397805 -1.5 -0.77937 -1.341951 -1.06066 -1.06066 
C -1.341951 -0.77937 -1.5 -0.397805 -1.5 0 
C -1.5 0.397805 -1.341951 0.77937 -1.06066 1.06066 
C -0.77937 1.341951 -0.397805 1.5 0 1.5 
z
" style="stroke: #ff00ff"/>
    </defs>
    <g>
     <use xlink:href="#mc0b95016c5" x="300.373635" y="27.648" style="fill: #ff00ff; stroke: #ff00ff"/>
     <use xlink:href="#mc0b95016c5" x="300.373635" y="27.648" style="fill: #ff00ff; stroke: #ff00ff"/>
    </g>
   </g>
   <g id="line2d_40">
    <path d="M 44.560826 298.944 
L 44.560826 294.333741 
L 57.6 294.333741 
L 57.6 287.595671 
L 65.227428 287.595671 
L 65.227428 280.148329 
L 70.639174 280.148329 
L 70.639174 279.439059 
L 74.836851 279.439059 
L 74.836851 277.665882 
L 83.678349 277.665882 
L 83.678349 276.247341 
L 85.894031 276.247341 
L 85.894031 275.538071 
L 87.876026 275.538071 
L 87.876026 275.183435 
L 89.668958 275.183435 
L 89.668958 273.764894 
L 91.305777 273.764894 
L 91.305777 271.991718 
L 94.205591 271.991718 
L 94.205591 271.637082 
L 95.503454 271.637082 
L 95.503454 270.218541 
L 96.717523 270.218541 
L 96.717523 269.509271 
L 98.933205 269.509271 
L 98.933205 268.445365 
L 101.833019 268.445365 
L 101.833019 268.090729 
L 102.708132 268.090729 
L 102.708132 265.608282 
L 103.544339 265.608282 
L 103.544339 265.253647 
L 107.904887 265.253647 
L 107.904887 263.125835 
L 108.542628 263.125835 
L 108.542628 262.061929 
L 110.897141 262.061929 
L 110.897141 258.870212 
L 111.442442 258.870212 
L 111.442442 258.515576 
L 111.97238 258.515576 
L 111.97238 258.160941 
L 112.487797 258.160941 
L 112.487797 256.387765 
L 113.954374 256.387765 
L 113.954374 255.323859 
L 114.418881 255.323859 
L 114.418881 252.841412 
L 116.583514 252.841412 
L 116.583514 251.422871 
L 118.524569 251.422871 
L 118.524569 250.7136 
L 122.795872 250.7136 
L 122.795872 250.358965 
L 123.936316 250.358965 
L 123.936316 250.004329 
L 124.748451 250.004329 
L 124.748451 248.940424 
L 126.756923 248.940424 
L 126.756923 247.521882 
L 128.57149 247.521882 
L 128.57149 245.748706 
L 129.209231 245.748706 
L 129.209231 245.039435 
L 130.226319 245.039435 
L 130.226319 244.6848 
L 131.002163 244.6848 
L 131.002163 244.330165 
L 131.378407 244.330165 
L 131.378407 243.620894 
L 132.812362 243.620894 
L 132.812362 242.911624 
L 133.490329 242.911624 
L 133.490329 241.847718 
L 136.270855 241.847718 
L 136.270855 241.138447 
L 137.520791 241.138447 
L 137.520791 240.074541 
L 139.914782 240.074541 
L 139.914782 239.010635 
L 140.032723 239.010635 
L 140.032723 238.656 
L 144.786447 238.656 
L 144.786447 236.882824 
L 145.678157 236.882824 
L 145.678157 236.173553 
L 146.362288 236.173553 
L 146.362288 235.818918 
L 146.612557 235.818918 
L 146.612557 234.400376 
L 150.693856 234.400376 
L 150.693856 233.336471 
L 151.089903 233.336471 
L 151.089903 231.917929 
L 152.53524 231.917929 
L 152.53524 231.563294 
L 153.189104 231.563294 
L 153.189104 230.854024 
L 155.077392 230.854024 
L 155.13016 228.726212 
L 157.871225 228.726212 
L 157.871225 228.371576 
L 158.933807 228.371576 
L 158.933807 226.953035 
L 160.142495 226.953035 
L 160.142495 226.243765 
L 160.816532 226.243765 
L 160.816532 225.534494 
L 161.765853 225.534494 
L 161.765853 225.179859 
L 163.899064 225.179859 
L 163.899064 224.470588 
L 164.548924 224.470588 
L 164.548924 223.406682 
L 166.83191 223.406682 
L 166.83191 222.697412 
L 167.580589 222.697412 
L 167.580589 222.342776 
L 168.116567 222.342776 
L 168.116567 221.278871 
L 169.119745 221.278871 
L 169.119745 220.214965 
L 169.735764 220.214965 
L 169.735764 219.151059 
L 170.308749 219.151059 
L 170.308749 218.796424 
L 173.640268 218.796424 
L 173.640268 218.441788 
L 175.352444 218.441788 
L 175.352444 217.732518 
L 175.814319 217.732518 
L 175.814319 215.959341 
L 175.954182 215.959341 
L 175.954182 213.122259 
L 176.401688 213.122259 
L 176.435674 210.994447 
L 177.1192 210.994447 
L 177.1192 210.285176 
L 177.572122 210.285176 
L 177.588098 209.575906 
L 177.715419 209.575906 
L 177.715419 208.866635 
L 178.958215 208.866635 
L 178.958215 207.802729 
L 181.195331 207.802729 
L 181.195331 207.093459 
L 181.470148 207.093459 
L 181.470148 206.738824 
L 181.779386 206.738824 
L 181.779386 206.029553 
L 182.592241 206.029553 
L 182.592241 205.674918 
L 182.811266 205.674918 
L 182.811266 204.611012 
L 182.991858 204.611012 
L 182.991858 204.256376 
L 183.651154 204.256376 
L 183.731965 202.128565 
L 184.23212 202.128565 
L 184.23212 201.773929 
L 184.806563 201.773929 
L 184.893403 200.000753 
L 184.95827 200.000753 
L 184.95827 199.646118 
L 185.636619 199.646118 
L 185.636619 199.291482 
L 185.802452 199.291482 
L 185.864265 198.227576 
L 186.089188 198.227576 
L 186.099348 195.745129 
L 186.411622 195.745129 
L 186.411622 195.035859 
L 186.550968 195.035859 
L 186.550968 194.681224 
L 187.001683 194.681224 
L 187.04037 193.617318 
L 187.242181 193.617318 
L 187.242181 191.489506 
L 187.517361 191.489506 
L 187.526779 189.716329 
L 188.037615 189.716329 
L 188.037615 189.361694 
L 188.156358 189.361694 
L 188.156358 189.007059 
L 188.517089 189.007059 
L 188.517089 185.815341 
L 188.78317 185.815341 
L 188.791974 183.332894 
L 188.897312 183.332894 
L 188.897312 182.978259 
L 189.432356 182.978259 
L 189.474849 179.786541 
L 189.677488 179.786541 
L 189.677488 179.077271 
L 190.092771 179.077271 
L 190.092771 178.368 
L 190.248206 178.368 
L 190.248206 177.658729 
L 190.402367 177.658729 
L 190.402367 177.304094 
L 192.137913 177.304094 
L 192.137913 176.949459 
L 192.408587 176.949459 
L 192.408587 176.594824 
L 192.66826 176.594824 
L 192.689739 175.530918 
L 192.952643 175.530918 
L 192.952643 175.176282 
L 193.072216 175.176282 
L 193.121231 173.757741 
L 193.225837 173.757741 
L 193.225837 172.3392 
L 193.371315 172.3392 
L 193.385111 170.566024 
L 193.529367 170.566024 
L 193.549885 166.3104 
L 193.760604 166.3104 
L 193.814602 165.246494 
L 193.928836 165.246494 
L 194.002384 160.990871 
L 194.068997 160.990871 
L 194.088935 159.217694 
L 194.208122 159.217694 
L 194.208122 158.863059 
L 194.444253 158.863059 
L 194.509322 158.153788 
L 194.600043 158.153788 
L 194.64524 154.962071 
L 194.895082 154.962071 
L 194.895082 153.188894 
L 195.110218 153.188894 
L 195.110218 152.479624 
L 195.372622 152.479624 
L 195.416002 149.997176 
L 195.490137 149.997176 
L 195.557837 147.160094 
L 195.686412 147.160094 
L 195.686412 146.805459 
L 195.898768 146.805459 
L 195.898768 146.450824 
L 196.084874 146.450824 
L 196.084874 145.741553 
L 196.304617 145.741553 
L 196.304617 145.386918 
L 196.457509 145.386918 
L 196.55681 142.549835 
L 196.771139 142.549835 
L 196.771139 142.1952 
L 197.005822 142.1952 
L 197.005822 141.840565 
L 197.355237 141.840565 
L 197.366401 139.712753 
L 197.851177 139.712753 
L 197.943404 138.294212 
L 198.185374 138.294212 
L 198.196056 137.230306 
L 198.403158 137.230306 
L 198.403158 136.875671 
L 198.660172 136.875671 
L 198.660172 135.811765 
L 198.877709 135.811765 
L 198.965049 133.683953 
L 199.545465 133.683953 
L 199.545465 133.329318 
L 199.713691 133.329318 
L 199.816849 131.201506 
L 200.1663 131.201506 
L 200.1663 130.1376 
L 200.329089 130.1376 
L 200.409958 129.428329 
L 200.673918 129.428329 
L 200.706654 126.945882 
L 200.892632 126.945882 
L 200.892632 126.591247 
L 201.136255 126.591247 
L 201.136255 124.463435 
L 201.439783 124.463435 
L 201.444277 123.754165 
L 201.551797 123.754165 
L 201.551797 123.044894 
L 201.689774 123.044894 
L 201.689774 120.917082 
L 202.067335 120.917082 
L 202.067335 119.498541 
L 202.343473 119.498541 
L 202.420412 116.661459 
L 202.484288 116.661459 
L 202.488539 115.597553 
L 202.750225 115.597553 
L 202.750225 113.824376 
L 202.883878 113.824376 
L 202.883878 113.115106 
L 203.372731 113.115106 
L 203.401095 112.0512 
L 203.63848 112.0512 
L 203.63848 111.341929 
L 204.248213 111.341929 
L 204.248213 110.987294 
L 204.44842 110.987294 
L 204.555347 107.795576 
L 204.86504 107.795576 
L 204.954726 105.667765 
L 205.114351 105.667765 
L 205.114351 104.603859 
L 205.305595 104.603859 
L 205.415049 100.348235 
L 205.465911 100.348235 
L 205.49129 96.447247 
L 205.757513 96.447247 
L 205.757513 96.092612 
L 206.079812 96.092612 
L 206.181374 95.028706 
L 206.237174 95.028706 
L 206.237174 94.319435 
L 206.389776 94.319435 
L 206.389776 93.9648 
L 206.551426 93.9648 
L 206.633439 91.482353 
L 206.725277 91.482353 
L 206.745625 89.709176 
L 206.843664 89.709176 
L 206.904259 86.162824 
L 206.988097 86.162824 
L 207.084884 84.744282 
L 207.525748 84.744282 
L 207.635985 83.680376 
L 207.677964 83.680376 
L 207.723068 82.971106 
L 207.806547 82.971106 
L 207.806547 81.197929 
L 208.019973 81.197929 
L 208.019973 80.843294 
L 208.302906 80.843294 
L 208.355874 80.134024 
L 208.414898 80.134024 
L 208.414898 79.424753 
L 208.765205 79.424753 
L 208.774336 78.006212 
L 209.174757 78.006212 
L 209.195598 76.233035 
L 209.408628 76.233035 
L 209.490826 74.105224 
L 209.528868 74.105224 
L 209.616363 71.977412 
L 210.335691 71.977412 
L 210.405576 71.268141 
L 210.53626 71.268141 
L 210.53626 69.494965 
L 210.786736 69.494965 
L 210.786736 68.431059 
L 211.341721 68.431059 
L 211.341721 67.367153 
L 211.75916 67.367153 
L 211.75916 66.657882 
L 212.164996 66.657882 
L 212.164996 65.593976 
L 212.372218 65.593976 
L 212.372218 64.530071 
L 212.616917 64.530071 
L 212.616917 64.175435 
L 213.284651 64.175435 
L 213.387323 62.756894 
L 213.569788 62.756894 
L 213.569788 62.047624 
L 214.0655 62.047624 
L 214.0655 61.692988 
L 214.250635 61.692988 
L 214.250635 60.983718 
L 214.400149 60.983718 
L 214.46772 59.919812 
L 214.757752 59.919812 
L 214.757752 59.210541 
L 215.121716 59.210541 
L 215.121716 58.501271 
L 215.431839 58.501271 
L 215.431839 57.437365 
L 215.770528 57.437365 
L 215.770528 57.082729 
L 216.103227 57.082729 
L 216.103227 55.664188 
L 217.376203 55.664188 
L 217.376203 54.245647 
L 217.607845 54.245647 
L 217.607845 52.117835 
L 219.000979 52.117835 
L 219.000979 50.344659 
L 274.321694 50.344659 
L 274.430855 45.379765 
L 274.435958 45.379765 
L 274.533758 41.478776 
L 274.55027 41.478776 
L 274.642525 37.223153 
L 274.6649 37.223153 
L 274.771728 34.386071 
L 274.830958 34.386071 
L 274.845396 33.6768 
L 274.94552 33.6768 
L 274.986646 32.967529 
L 275.151687 32.967529 
L 275.151687 32.612894 
L 287.357228 32.612894 
L 287.457499 30.130447 
L 287.498264 30.130447 
L 287.531774 29.066541 
L 287.709343 29.066541 
L 287.709343 28.711906 
L 295.126603 28.711906 
L 295.150059 28.002635 
L 300.373635 28.002635 
L 300.373635 27.648 
L 360.8064 27.648 
L 360.8064 27.648 
" style="fill: none; stroke: #ff00ff; stroke-width: 1.5; stroke-linecap: square"/>
   </g>
   <g id="line2d_41">
    <defs>
     <path id="me686ffd29b" d="M 0 8.485281 
L 5.091169 0 
L 0 -8.485281 
L -5.091169 0 
z
" style="stroke: #ff00ff; stroke-width: 1.5; stroke-linejoin: miter"/>
    </defs>
    <g>
     <use xlink:href="#me686ffd29b" x="146.612557" y="235.818918" style="fill-opacity: 0; stroke: #ff00ff; stroke-width: 1.5; stroke-linejoin: miter"/>
     <use xlink:href="#me686ffd29b" x="202.750225" y="113.824376" style="fill-opacity: 0; stroke: #ff00ff; stroke-width: 1.5; stroke-linejoin: miter"/>
     <use xlink:href="#me686ffd29b" x="219.000979" y="50.344659" style="fill-opacity: 0; stroke: #ff00ff; stroke-width: 1.5; stroke-linejoin: miter"/>
     <use xlink:href="#me686ffd29b" x="300.373635" y="27.648" style="fill-opacity: 0; stroke: #ff00ff; stroke-width: 1.5; stroke-linejoin: miter"/>
     <use xlink:href="#me686ffd29b" x="300.373635" y="27.648" style="fill-opacity: 0; stroke: #ff00ff; stroke-width: 1.5; stroke-linejoin: miter"/>
     <use xlink:href="#me686ffd29b" x="360.8064" y="27.648" style="fill-opacity: 0; stroke: #ff00ff; stroke-width: 1.5; stroke-linejoin: miter"/>
    </g>
   </g>
   <g id="line2d_42">
    <path style="fill: none; stroke: #ff00ff; stroke-width: 1.5; stroke-linecap: square"/>
    <g/>
   </g>
   <g id="line2d_43">
    <path d="M 274.176 50.344659 
" clip-path="url(#p129615752b)" style="fill: none; stroke: #ff00ff; stroke-width: 1.5; stroke-linecap: square"/>
    <defs>
     <path id="m174d222885" d="M -12 12 
L 12 -12 
M -12 -12 
L 12 12 
" style="stroke: #ff00ff"/>
    </defs>
    <g clip-path="url(#p129615752b)">
     <use xlink:href="#m174d222885" x="274.176" y="50.344659" style="fill: #ff00ff; stroke: #ff00ff"/>
    </g>
   </g>
   <g id="line2d_44">
    <path d="M 360.8064 27.648 
L 380.514816 293.51808 
" style="fill: none; stroke: #000080; stroke-width: 1.5; stroke-linecap: square"/>
    <g>
     <use xlink:href="#mc61fe19b30" x="360.8064" y="27.648" style="fill-opacity: 0; stroke: #000080; stroke-width: 1.5"/>
     <use xlink:href="#mc61fe19b30" x="380.514816" y="293.51808" style="fill-opacity: 0; stroke: #000080; stroke-width: 1.5"/>
    </g>
   </g>
   <g id="line2d_45">
    <path d="M 360.8064 27.648 
L 380.514816 163.296 
" style="fill: none; stroke: #ff00ff; stroke-width: 1.5; stroke-linecap: square"/>
    <g>
     <use xlink:href="#me686ffd29b" x="360.8064" y="27.648" style="fill-opacity: 0; stroke: #ff00ff; stroke-width: 1.5; stroke-linejoin: miter"/>
     <use xlink:href="#me686ffd29b" x="380.514816" y="163.296" style="fill-opacity: 0; stroke: #ff00ff; stroke-width: 1.5; stroke-linejoin: miter"/>
    </g>
   </g>
   <g id="line2d_46">
    <path d="M 360.8064 298.944 
L 360.8064 27.648 
" style="fill: none; stroke: #000000; stroke-width: 1.5; stroke-linecap: square"/>
   </g>
   <g id="patch_3">
    <path d="M 57.6 298.944 
L 360.8064 298.944 
" style="fill: none; stroke: #000000; stroke-width: 0.8; stroke-linejoin: miter; stroke-linecap: square"/>
   </g>
   <g id="patch_4">
    <path d="M 57.6 27.648 
L 360.8064 27.648 
" style="fill: none; stroke: #000000; stroke-width: 0.8; stroke-linejoin: miter; stroke-linecap: square"/>
   </g>
   <g id="text_13">
    <!-- LCGA -->
    <g transform="translate(386.578944 297.381205)scale(0.14 -0.14)">
     <defs>
      <path id="DejaVuSans-4c" d="M 628 4666 
L 1259 4666 
L 1259 531 
L 3531 531 
L 3531 0 
L 628 0 
L 628 4666 
z
" transform="scale(0.015625)"/>
      <path id="DejaVuSans-43" d="M 4122 4306 
L 4122 3641 
Q 3803 3938 3442 4084 
Q 3081 4231 2675 4231 
Q 1875 4231 1450 3742 
Q 1025 3253 1025 2328 
Q 1025 1406 1450 917 
Q 1875 428 2675 428 
Q 3081 428 3442 575 
Q 3803 722 4122 1019 
L 4122 359 
Q 3791 134 3420 21 
Q 3050 -91 2638 -91 
Q 1578 -91 968 557 
Q 359 1206 359 2328 
Q 359 3453 968 4101 
Q 1578 4750 2638 4750 
Q 3056 4750 3426 4639 
Q 3797 4528 4122 4306 
z
" transform="scale(0.015625)"/>
      <path id="DejaVuSans-47" d="M 3809 666 
L 3809 1919 
L 2778 1919 
L 2778 2438 
L 4434 2438 
L 4434 434 
Q 4069 175 3628 42 
Q 3188 -91 2688 -91 
Q 1594 -91 976 548 
Q 359 1188 359 2328 
Q 359 3472 976 4111 
Q 1594 4750 2688 4750 
Q 3144 4750 3555 4637 
Q 3966 4525 4313 4306 
L 4313 3634 
Q 3963 3931 3569 4081 
Q 3175 4231 2741 4231 
Q 1884 4231 1454 3753 
Q 1025 3275 1025 2328 
Q 1025 1384 1454 906 
Q 1884 428 2741 428 
Q 3075 428 3337 486 
Q 3600 544 3809 666 
z
" transform="scale(0.015625)"/>
      <path id="DejaVuSans-41" d="M 2188 4044 
L 1331 1722 
L 3047 1722 
L 2188 4044 
z
M 1831 4666 
L 2547 4666 
L 4325 0 
L 3669 0 
L 3244 1197 
L 1141 1197 
L 716 0 
L 50 0 
L 1831 4666 
z
" transform="scale(0.015625)"/>
     </defs>
     <use xlink:href="#DejaVuSans-4c"/>
     <use xlink:href="#DejaVuSans-43" x="55.712891"/>
     <use xlink:href="#DejaVuSans-47" x="125.537109"/>
     <use xlink:href="#DejaVuSans-41" x="203.027344"/>
    </g>
   </g>
   <g id="text_14">
    <!-- PSO -->
    <g transform="translate(386.578944 167.159125)scale(0.14 -0.14)">
     <defs>
      <path id="DejaVuSans-50" d="M 1259 4147 
L 1259 2394 
L 2053 2394 
Q 2494 2394 2734 2622 
Q 2975 2850 2975 3272 
Q 2975 3691 2734 3919 
Q 2494 4147 2053 4147 
L 1259 4147 
z
M 628 4666 
L 2053 4666 
Q 2838 4666 3239 4311 
Q 3641 3956 3641 3272 
Q 3641 2581 3239 2228 
Q 2838 1875 2053 1875 
L 1259 1875 
L 1259 0 
L 628 0 
L 628 4666 
z
" transform="scale(0.015625)"/>
      <path id="DejaVuSans-53" d="M 3425 4513 
L 3425 3897 
Q 3066 4069 2747 4153 
Q 2428 4238 2131 4238 
Q 1616 4238 1336 4038 
Q 1056 3838 1056 3469 
Q 1056 3159 1242 3001 
Q 1428 2844 1947 2747 
L 2328 2669 
Q 3034 2534 3370 2195 
Q 3706 1856 3706 1288 
Q 3706 609 3251 259 
Q 2797 -91 1919 -91 
Q 1588 -91 1214 -16 
Q 841 59 441 206 
L 441 856 
Q 825 641 1194 531 
Q 1563 422 1919 422 
Q 2459 422 2753 634 
Q 3047 847 3047 1241 
Q 3047 1584 2836 1778 
Q 2625 1972 2144 2069 
L 1759 2144 
Q 1053 2284 737 2584 
Q 422 2884 422 3419 
Q 422 4038 858 4394 
Q 1294 4750 2059 4750 
Q 2388 4750 2728 4690 
Q 3069 4631 3425 4513 
z
" transform="scale(0.015625)"/>
      <path id="DejaVuSans-4f" d="M 2522 4238 
Q 1834 4238 1429 3725 
Q 1025 3213 1025 2328 
Q 1025 1447 1429 934 
Q 1834 422 2522 422 
Q 3209 422 3611 934 
Q 4013 1447 4013 2328 
Q 4013 3213 3611 3725 
Q 3209 4238 2522 4238 
z
M 2522 4750 
Q 3503 4750 4090 4092 
Q 4678 3434 4678 2328 
Q 4678 1225 4090 567 
Q 3503 -91 2522 -91 
Q 1538 -91 948 565 
Q 359 1222 359 2328 
Q 359 3434 948 4092 
Q 1538 4750 2522 4750 
z
" transform="scale(0.015625)"/>
     </defs>
     <use xlink:href="#DejaVuSans-50"/>
     <use xlink:href="#DejaVuSans-53" x="60.302734"/>
     <use xlink:href="#DejaVuSans-4f" x="123.779297"/>
    </g>
   </g>
   <g id="text_15">
    <!-- best 2009 -->
    <g transform="translate(386.578944 36.937045)scale(0.14 -0.14)">
     <defs>
      <path id="DejaVuSans-62" d="M 3116 1747 
Q 3116 2381 2855 2742 
Q 2594 3103 2138 3103 
Q 1681 3103 1420 2742 
Q 1159 2381 1159 1747 
Q 1159 1113 1420 752 
Q 1681 391 2138 391 
Q 2594 391 2855 752 
Q 3116 1113 3116 1747 
z
M 1159 2969 
Q 1341 3281 1617 3432 
Q 1894 3584 2278 3584 
Q 2916 3584 3314 3078 
Q 3713 2572 3713 1747 
Q 3713 922 3314 415 
Q 2916 -91 2278 -91 
Q 1894 -91 1617 61 
Q 1341 213 1159 525 
L 1159 0 
L 581 0 
L 581 4863 
L 1159 4863 
L 1159 2969 
z
" transform="scale(0.015625)"/>
      <path id="DejaVuSans-39" d="M 703 97 
L 703 672 
Q 941 559 1184 500 
Q 1428 441 1663 441 
Q 2288 441 2617 861 
Q 2947 1281 2994 2138 
Q 2813 1869 2534 1725 
Q 2256 1581 1919 1581 
Q 1219 1581 811 2004 
Q 403 2428 403 3163 
Q 403 3881 828 4315 
Q 1253 4750 1959 4750 
Q 2769 4750 3195 4129 
Q 3622 3509 3622 2328 
Q 3622 1225 3098 567 
Q 2575 -91 1691 -91 
Q 1453 -91 1209 -44 
Q 966 3 703 97 
z
M 1959 2075 
Q 2384 2075 2632 2365 
Q 2881 2656 2881 3163 
Q 2881 3666 2632 3958 
Q 2384 4250 1959 4250 
Q 1534 4250 1286 3958 
Q 1038 3666 1038 3163 
Q 1038 2656 1286 2365 
Q 1534 2075 1959 2075 
z
" transform="scale(0.015625)"/>
     </defs>
     <use xlink:href="#DejaVuSans-62"/>
     <use xlink:href="#DejaVuSans-65" x="63.476562"/>
     <use xlink:href="#DejaVuSans-73" x="125"/>
     <use xlink:href="#DejaVuSans-74" x="177.099609"/>
     <use xlink:href="#DejaVuSans-20" x="216.308594"/>
     <use xlink:href="#DejaVuSans-32" x="248.095703"/>
     <use xlink:href="#DejaVuSans-30" x="311.71875"/>
     <use xlink:href="#DejaVuSans-30" x="375.341797"/>
     <use xlink:href="#DejaVuSans-39" x="438.964844"/>
    </g>
   </g>
   <g id="text_16">
    <!-- bbob f16, 2-D -->
    <g transform="translate(60.632064 38.111366)scale(0.102 -0.102)">
     <defs>
      <path id="DejaVuSans-44" d="M 1259 4147 
L 1259 519 
L 2022 519 
Q 2988 519 3436 956 
Q 3884 1394 3884 2338 
Q 3884 3275 3436 3711 
Q 2988 4147 2022 4147 
L 1259 4147 
z
M 628 4666 
L 1925 4666 
Q 3281 4666 3915 4102 
Q 4550 3538 4550 2338 
Q 4550 1131 3912 565 
Q 3275 0 1925 0 
L 628 0 
L 628 4666 
z
" transform="scale(0.015625)"/>
     </defs>
     <use xlink:href="#DejaVuSans-62"/>
     <use xlink:href="#DejaVuSans-62" x="63.476562"/>
     <use xlink:href="#DejaVuSans-6f" x="126.953125"/>
     <use xlink:href="#DejaVuSans-62" x="188.134766"/>
     <use xlink:href="#DejaVuSans-20" x="251.611328"/>
     <use xlink:href="#DejaVuSans-66" x="283.398438"/>
     <use xlink:href="#DejaVuSans-31" x="318.603516"/>
     <use xlink:href="#DejaVuSans-36" x="382.226562"/>
     <use xlink:href="#DejaVuSans-2c" x="445.849609"/>
     <use xlink:href="#DejaVuSans-20" x="477.636719"/>
     <use xlink:href="#DejaVuSans-32" x="509.423828"/>
     <use xlink:href="#DejaVuSans-2d" x="573.046875"/>
     <use xlink:href="#DejaVuSans-44" x="609.130859"/>
    </g>
    <!-- 51 targets: 100..1e-08 -->
    <g transform="translate(60.632064 49.533135)scale(0.102 -0.102)">
     <defs>
      <path id="DejaVuSans-35" d="M 691 4666 
L 3169 4666 
L 3169 4134 
L 1269 4134 
L 1269 2991 
Q 1406 3038 1543 3061 
Q 1681 3084 1819 3084 
Q 2600 3084 3056 2656 
Q 3513 2228 3513 1497 
Q 3513 744 3044 326 
Q 2575 -91 1722 -91 
Q 1428 -91 1123 -41 
Q 819 9 494 109 
L 494 744 
Q 775 591 1075 516 
Q 1375 441 1709 441 
Q 2250 441 2565 725 
Q 2881 1009 2881 1497 
Q 2881 1984 2565 2268 
Q 2250 2553 1709 2553 
Q 1456 2553 1204 2497 
Q 953 2441 691 2322 
L 691 4666 
z
" transform="scale(0.015625)"/>
      <path id="DejaVuSans-3a" d="M 750 794 
L 1409 794 
L 1409 0 
L 750 0 
L 750 794 
z
M 750 3309 
L 1409 3309 
L 1409 2516 
L 750 2516 
L 750 3309 
z
" transform="scale(0.015625)"/>
     </defs>
     <use xlink:href="#DejaVuSans-35"/>
     <use xlink:href="#DejaVuSans-31" x="63.623047"/>
     <use xlink:href="#DejaVuSans-20" x="127.246094"/>
     <use xlink:href="#DejaVuSans-74" x="159.033203"/>
     <use xlink:href="#DejaVuSans-61" x="198.242188"/>
     <use xlink:href="#DejaVuSans-72" x="259.521484"/>
     <use xlink:href="#DejaVuSans-67" x="298.884766"/>
     <use xlink:href="#DejaVuSans-65" x="362.361328"/>
     <use xlink:href="#DejaVuSans-74" x="423.884766"/>
     <use xlink:href="#DejaVuSans-73" x="463.09375"/>
     <use xlink:href="#DejaVuSans-3a" x="515.193359"/>
     <use xlink:href="#DejaVuSans-20" x="548.884766"/>
     <use xlink:href="#DejaVuSans-31" x="580.671875"/>
     <use xlink:href="#DejaVuSans-30" x="644.294922"/>
     <use xlink:href="#DejaVuSans-30" x="707.917969"/>
     <use xlink:href="#DejaVuSans-2e" x="771.541016"/>
     <use xlink:href="#DejaVuSans-2e" x="803.328125"/>
     <use xlink:href="#DejaVuSans-31" x="835.115234"/>
     <use xlink:href="#DejaVuSans-65" x="898.738281"/>
     <use xlink:href="#DejaVuSans-2d" x="960.261719"/>
     <use xlink:href="#DejaVuSans-30" x="996.345703"/>
     <use xlink:href="#DejaVuSans-38" x="1059.96875"/>
    </g>
    <!-- 15 instances -->
    <g transform="translate(60.632064 60.954904)scale(0.102 -0.102)">
     <use xlink:href="#DejaVuSans-31"/>
     <use xlink:href="#DejaVuSans-35" x="63.623047"/>
     <use xlink:href="#DejaVuSans-20" x="127.246094"/>
     <use xlink:href="#DejaVuSans-69" x="159.033203"/>
     <use xlink:href="#DejaVuSans-6e" x="186.816406"/>
     <use xlink:href="#DejaVuSans-73" x="250.195312"/>
     <use xlink:href="#DejaVuSans-74" x="302.294922"/>
     <use xlink:href="#DejaVuSans-61" x="341.503906"/>
     <use xlink:href="#DejaVuSans-6e" x="402.783203"/>
     <use xlink:href="#DejaVuSans-63" x="466.162109"/>
     <use xlink:href="#DejaVuSans-65" x="521.142578"/>
     <use xlink:href="#DejaVuSans-73" x="582.666016"/>
    </g>
   </g>
   <g id="text_17">
    <!-- v2.6 -->
    <g style="fill: #808080" transform="translate(198.292262 294.151352)scale(0.1 -0.1)">
     <use xlink:href="#DejaVuSans-76"/>
     <use xlink:href="#DejaVuSans-32" x="59.179688"/>
     <use xlink:href="#DejaVuSans-2e" x="122.802734"/>
     <use xlink:href="#DejaVuSans-36" x="154.589844"/>
    </g>
   </g>
   <g id="text_18">
    <!-- 16 Weierstrass -->
    <g transform="translate(135.017262 21.648)scale(0.2 -0.2)">
     <defs>
      <path id="DejaVuSans-57" d="M 213 4666 
L 850 4666 
L 1831 722 
L 2809 4666 
L 3519 4666 
L 4500 722 
L 5478 4666 
L 6119 4666 
L 4947 0 
L 4153 0 
L 3169 4050 
L 2175 0 
L 1381 0 
L 213 4666 
z
" transform="scale(0.015625)"/>
     </defs>
     <use xlink:href="#DejaVuSans-31"/>
     <use xlink:href="#DejaVuSans-36" x="63.623047"/>
     <use xlink:href="#DejaVuSans-20" x="127.246094"/>
     <use xlink:href="#DejaVuSans-57" x="159.033203"/>
     <use xlink:href="#DejaVuSans-65" x="252.035156"/>
     <use xlink:href="#DejaVuSans-69" x="313.558594"/>
     <use xlink:href="#DejaVuSans-65" x="341.341797"/>
     <use xlink:href="#DejaVuSans-72" x="402.865234"/>
     <use xlink:href="#DejaVuSans-73" x="443.978516"/>
     <use xlink:href="#DejaVuSans-74" x="496.078125"/>
     <use xlink:href="#DejaVuSans-72" x="535.287109"/>
     <use xlink:href="#DejaVuSans-61" x="576.400391"/>
     <use xlink:href="#DejaVuSans-73" x="637.679688"/>
     <use xlink:href="#DejaVuSans-73" x="689.779297"/>
    </g>
   </g>
  </g>
 </g>
 <defs>
  <clipPath id="p129615752b">
   <rect x="57.6" y="27.648" width="303.2064" height="271.296"/>
  </clipPath>
 </defs>
</svg>
