<?xml version="1.0" encoding="utf-8" standalone="no"?>
<!DOCTYPE svg PUBLIC "-//W3C//DTD SVG 1.1//EN"
  "http://www.w3.org/Graphics/SVG/1.1/DTD/svg11.dtd">
<svg xmlns:xlink="http://www.w3.org/1999/xlink" width="460.8pt" height="345.6pt" viewBox="0 0 460.8 345.6" xmlns="http://www.w3.org/2000/svg" version="1.1">
 <metadata>
  <rdf:RDF xmlns:dc="http://purl.org/dc/elements/1.1/" xmlns:cc="http://creativecommons.org/ns#" xmlns:rdf="http://www.w3.org/1999/02/22-rdf-syntax-ns#">
   <cc:Work>
    <dc:type rdf:resource="http://purl.org/dc/dcmitype/StillImage"/>
    <dc:date>2024-05-29T07:56:42.621071</dc:date>
    <dc:format>image/svg+xml</dc:format>
    <dc:creator>
     <cc:Agent>
      <dc:title>Matplotlib v3.5.1, https://matplotlib.org/</dc:title>
     </cc:Agent>
    </dc:creator>
   </cc:Work>
  </rdf:RDF>
 </metadata>
 <defs>
  <style type="text/css">*{stroke-linejoin: round; stroke-linecap: butt}</style>
 </defs>
 <g id="figure_1">
  <g id="patch_1">
   <path d="M 0 345.6 
L 460.8 345.6 
L 460.8 0 
L 0 0 
z
" style="fill: #ffffff"/>
  </g>
  <g id="axes_1">
   <g id="patch_2">
    <path d="M 57.6 298.944 
L 360.8064 298.944 
L 360.8064 27.648 
L 57.6 27.648 
z
" style="fill: #ffffff"/>
   </g>
   <g id="matplotlib.axis_1">
    <g id="xtick_1">
     <g id="line2d_1">
      <path d="M 57.6 298.944 
L 57.6 27.648 
" clip-path="url(#pd05b44ce36)" style="fill: none; stroke: #b0b0b0; stroke-width: 0.8; stroke-linecap: square"/>
     </g>
     <g id="line2d_2">
      <defs>
       <path id="mb6369eeba4" d="M 0 0 
L 0 3.5 
" style="stroke: #000000; stroke-width: 0.8"/>
      </defs>
      <g>
       <use xlink:href="#mb6369eeba4" x="57.6" y="298.944" style="stroke: #000000; stroke-width: 0.8"/>
      </g>
     </g>
     <g id="text_1">
      <!-- 0 -->
      <g transform="translate(52.191875 318.861344)scale(0.17 -0.17)">
       <defs>
        <path id="DejaVuSans-30" d="M 2034 4250 
Q 1547 4250 1301 3770 
Q 1056 3291 1056 2328 
Q 1056 1369 1301 889 
Q 1547 409 2034 409 
Q 2525 409 2770 889 
Q 3016 1369 3016 2328 
Q 3016 3291 2770 3770 
Q 2525 4250 2034 4250 
z
M 2034 4750 
Q 2819 4750 3233 4129 
Q 3647 3509 3647 2328 
Q 3647 1150 3233 529 
Q 2819 -91 2034 -91 
Q 1250 -91 836 529 
Q 422 1150 422 2328 
Q 422 3509 836 4129 
Q 1250 4750 2034 4750 
z
" transform="scale(0.015625)"/>
       </defs>
       <use xlink:href="#DejaVuSans-30"/>
      </g>
     </g>
    </g>
    <g id="xtick_2">
     <g id="line2d_3">
      <path d="M 144.2304 298.944 
L 144.2304 27.648 
" clip-path="url(#pd05b44ce36)" style="fill: none; stroke: #b0b0b0; stroke-width: 0.8; stroke-linecap: square"/>
     </g>
     <g id="line2d_4">
      <g>
       <use xlink:href="#mb6369eeba4" x="144.2304" y="298.944" style="stroke: #000000; stroke-width: 0.8"/>
      </g>
     </g>
     <g id="text_2">
      <!-- 2 -->
      <g transform="translate(138.822275 318.861344)scale(0.17 -0.17)">
       <defs>
        <path id="DejaVuSans-32" d="M 1228 531 
L 3431 531 
L 3431 0 
L 469 0 
L 469 531 
Q 828 903 1448 1529 
Q 2069 2156 2228 2338 
Q 2531 2678 2651 2914 
Q 2772 3150 2772 3378 
Q 2772 3750 2511 3984 
Q 2250 4219 1831 4219 
Q 1534 4219 1204 4116 
Q 875 4013 500 3803 
L 500 4441 
Q 881 4594 1212 4672 
Q 1544 4750 1819 4750 
Q 2544 4750 2975 4387 
Q 3406 4025 3406 3419 
Q 3406 3131 3298 2873 
Q 3191 2616 2906 2266 
Q 2828 2175 2409 1742 
Q 1991 1309 1228 531 
z
" transform="scale(0.015625)"/>
       </defs>
       <use xlink:href="#DejaVuSans-32"/>
      </g>
     </g>
    </g>
    <g id="xtick_3">
     <g id="line2d_5">
      <path d="M 230.8608 298.944 
L 230.8608 27.648 
" clip-path="url(#pd05b44ce36)" style="fill: none; stroke: #b0b0b0; stroke-width: 0.8; stroke-linecap: square"/>
     </g>
     <g id="line2d_6">
      <g>
       <use xlink:href="#mb6369eeba4" x="230.8608" y="298.944" style="stroke: #000000; stroke-width: 0.8"/>
      </g>
     </g>
     <g id="text_3">
      <!-- 4 -->
      <g transform="translate(225.452675 318.861344)scale(0.17 -0.17)">
       <defs>
        <path id="DejaVuSans-34" d="M 2419 4116 
L 825 1625 
L 2419 1625 
L 2419 4116 
z
M 2253 4666 
L 3047 4666 
L 3047 1625 
L 3713 1625 
L 3713 1100 
L 3047 1100 
L 3047 0 
L 2419 0 
L 2419 1100 
L 313 1100 
L 313 1709 
L 2253 4666 
z
" transform="scale(0.015625)"/>
       </defs>
       <use xlink:href="#DejaVuSans-34"/>
      </g>
     </g>
    </g>
    <g id="xtick_4">
     <g id="line2d_7">
      <path d="M 317.4912 298.944 
L 317.4912 27.648 
" clip-path="url(#pd05b44ce36)" style="fill: none; stroke: #b0b0b0; stroke-width: 0.8; stroke-linecap: square"/>
     </g>
     <g id="line2d_8">
      <g>
       <use xlink:href="#mb6369eeba4" x="317.4912" y="298.944" style="stroke: #000000; stroke-width: 0.8"/>
      </g>
     </g>
     <g id="text_4">
      <!-- 6 -->
      <g transform="translate(312.083075 318.861344)scale(0.17 -0.17)">
       <defs>
        <path id="DejaVuSans-36" d="M 2113 2584 
Q 1688 2584 1439 2293 
Q 1191 2003 1191 1497 
Q 1191 994 1439 701 
Q 1688 409 2113 409 
Q 2538 409 2786 701 
Q 3034 994 3034 1497 
Q 3034 2003 2786 2293 
Q 2538 2584 2113 2584 
z
M 3366 4563 
L 3366 3988 
Q 3128 4100 2886 4159 
Q 2644 4219 2406 4219 
Q 1781 4219 1451 3797 
Q 1122 3375 1075 2522 
Q 1259 2794 1537 2939 
Q 1816 3084 2150 3084 
Q 2853 3084 3261 2657 
Q 3669 2231 3669 1497 
Q 3669 778 3244 343 
Q 2819 -91 2113 -91 
Q 1303 -91 875 529 
Q 447 1150 447 2328 
Q 447 3434 972 4092 
Q 1497 4750 2381 4750 
Q 2619 4750 2861 4703 
Q 3103 4656 3366 4563 
z
" transform="scale(0.015625)"/>
       </defs>
       <use xlink:href="#DejaVuSans-36"/>
      </g>
     </g>
    </g>
    <g id="xtick_5">
     <g id="line2d_9">
      <path d="M 100.9152 298.944 
L 100.9152 27.648 
" clip-path="url(#pd05b44ce36)" style="fill: none; stroke: #b0b0b0; stroke-width: 0.8; stroke-linecap: square"/>
     </g>
     <g id="line2d_10">
      <defs>
       <path id="m039c5b50be" d="M 0 0 
L 0 2 
" style="stroke: #000000; stroke-width: 0.6"/>
      </defs>
      <g>
       <use xlink:href="#m039c5b50be" x="100.9152" y="298.944" style="stroke: #000000; stroke-width: 0.6"/>
      </g>
     </g>
    </g>
    <g id="xtick_6">
     <g id="line2d_11">
      <path d="M 187.5456 298.944 
L 187.5456 27.648 
" clip-path="url(#pd05b44ce36)" style="fill: none; stroke: #b0b0b0; stroke-width: 0.8; stroke-linecap: square"/>
     </g>
     <g id="line2d_12">
      <g>
       <use xlink:href="#m039c5b50be" x="187.5456" y="298.944" style="stroke: #000000; stroke-width: 0.6"/>
      </g>
     </g>
    </g>
    <g id="xtick_7">
     <g id="line2d_13">
      <path d="M 274.176 298.944 
L 274.176 27.648 
" clip-path="url(#pd05b44ce36)" style="fill: none; stroke: #b0b0b0; stroke-width: 0.8; stroke-linecap: square"/>
     </g>
     <g id="line2d_14">
      <g>
       <use xlink:href="#m039c5b50be" x="274.176" y="298.944" style="stroke: #000000; stroke-width: 0.6"/>
      </g>
     </g>
    </g>
    <g id="xtick_8">
     <g id="line2d_15">
      <path d="M 360.8064 298.944 
L 360.8064 27.648 
" clip-path="url(#pd05b44ce36)" style="fill: none; stroke: #b0b0b0; stroke-width: 0.8; stroke-linecap: square"/>
     </g>
     <g id="line2d_16">
      <g>
       <use xlink:href="#m039c5b50be" x="360.8064" y="298.944" style="stroke: #000000; stroke-width: 0.6"/>
      </g>
     </g>
    </g>
    <g id="text_5">
     <!-- log10(# f-evals / dimension) -->
     <g transform="translate(88.823278 339.314156)scale(0.17 -0.17)">
      <defs>
       <path id="DejaVuSans-6c" d="M 603 4863 
L 1178 4863 
L 1178 0 
L 603 0 
L 603 4863 
z
" transform="scale(0.015625)"/>
       <path id="DejaVuSans-6f" d="M 1959 3097 
Q 1497 3097 1228 2736 
Q 959 2375 959 1747 
Q 959 1119 1226 758 
Q 1494 397 1959 397 
Q 2419 397 2687 759 
Q 2956 1122 2956 1747 
Q 2956 2369 2687 2733 
Q 2419 3097 1959 3097 
z
M 1959 3584 
Q 2709 3584 3137 3096 
Q 3566 2609 3566 1747 
Q 3566 888 3137 398 
Q 2709 -91 1959 -91 
Q 1206 -91 779 398 
Q 353 888 353 1747 
Q 353 2609 779 3096 
Q 1206 3584 1959 3584 
z
" transform="scale(0.015625)"/>
       <path id="DejaVuSans-67" d="M 2906 1791 
Q 2906 2416 2648 2759 
Q 2391 3103 1925 3103 
Q 1463 3103 1205 2759 
Q 947 2416 947 1791 
Q 947 1169 1205 825 
Q 1463 481 1925 481 
Q 2391 481 2648 825 
Q 2906 1169 2906 1791 
z
M 3481 434 
Q 3481 -459 3084 -895 
Q 2688 -1331 1869 -1331 
Q 1566 -1331 1297 -1286 
Q 1028 -1241 775 -1147 
L 775 -588 
Q 1028 -725 1275 -790 
Q 1522 -856 1778 -856 
Q 2344 -856 2625 -561 
Q 2906 -266 2906 331 
L 2906 616 
Q 2728 306 2450 153 
Q 2172 0 1784 0 
Q 1141 0 747 490 
Q 353 981 353 1791 
Q 353 2603 747 3093 
Q 1141 3584 1784 3584 
Q 2172 3584 2450 3431 
Q 2728 3278 2906 2969 
L 2906 3500 
L 3481 3500 
L 3481 434 
z
" transform="scale(0.015625)"/>
       <path id="DejaVuSans-31" d="M 794 531 
L 1825 531 
L 1825 4091 
L 703 3866 
L 703 4441 
L 1819 4666 
L 2450 4666 
L 2450 531 
L 3481 531 
L 3481 0 
L 794 0 
L 794 531 
z
" transform="scale(0.015625)"/>
       <path id="DejaVuSans-28" d="M 1984 4856 
Q 1566 4138 1362 3434 
Q 1159 2731 1159 2009 
Q 1159 1288 1364 580 
Q 1569 -128 1984 -844 
L 1484 -844 
Q 1016 -109 783 600 
Q 550 1309 550 2009 
Q 550 2706 781 3412 
Q 1013 4119 1484 4856 
L 1984 4856 
z
" transform="scale(0.015625)"/>
       <path id="DejaVuSans-23" d="M 3272 2816 
L 2363 2816 
L 2100 1772 
L 3016 1772 
L 3272 2816 
z
M 2803 4594 
L 2478 3297 
L 3391 3297 
L 3719 4594 
L 4219 4594 
L 3897 3297 
L 4872 3297 
L 4872 2816 
L 3775 2816 
L 3519 1772 
L 4513 1772 
L 4513 1294 
L 3397 1294 
L 3072 0 
L 2572 0 
L 2894 1294 
L 1978 1294 
L 1656 0 
L 1153 0 
L 1478 1294 
L 494 1294 
L 494 1772 
L 1594 1772 
L 1856 2816 
L 850 2816 
L 850 3297 
L 1978 3297 
L 2297 4594 
L 2803 4594 
z
" transform="scale(0.015625)"/>
       <path id="DejaVuSans-20" transform="scale(0.015625)"/>
       <path id="DejaVuSans-66" d="M 2375 4863 
L 2375 4384 
L 1825 4384 
Q 1516 4384 1395 4259 
Q 1275 4134 1275 3809 
L 1275 3500 
L 2222 3500 
L 2222 3053 
L 1275 3053 
L 1275 0 
L 697 0 
L 697 3053 
L 147 3053 
L 147 3500 
L 697 3500 
L 697 3744 
Q 697 4328 969 4595 
Q 1241 4863 1831 4863 
L 2375 4863 
z
" transform="scale(0.015625)"/>
       <path id="DejaVuSans-2d" d="M 313 2009 
L 1997 2009 
L 1997 1497 
L 313 1497 
L 313 2009 
z
" transform="scale(0.015625)"/>
       <path id="DejaVuSans-65" d="M 3597 1894 
L 3597 1613 
L 953 1613 
Q 991 1019 1311 708 
Q 1631 397 2203 397 
Q 2534 397 2845 478 
Q 3156 559 3463 722 
L 3463 178 
Q 3153 47 2828 -22 
Q 2503 -91 2169 -91 
Q 1331 -91 842 396 
Q 353 884 353 1716 
Q 353 2575 817 3079 
Q 1281 3584 2069 3584 
Q 2775 3584 3186 3129 
Q 3597 2675 3597 1894 
z
M 3022 2063 
Q 3016 2534 2758 2815 
Q 2500 3097 2075 3097 
Q 1594 3097 1305 2825 
Q 1016 2553 972 2059 
L 3022 2063 
z
" transform="scale(0.015625)"/>
       <path id="DejaVuSans-76" d="M 191 3500 
L 800 3500 
L 1894 563 
L 2988 3500 
L 3597 3500 
L 2284 0 
L 1503 0 
L 191 3500 
z
" transform="scale(0.015625)"/>
       <path id="DejaVuSans-61" d="M 2194 1759 
Q 1497 1759 1228 1600 
Q 959 1441 959 1056 
Q 959 750 1161 570 
Q 1363 391 1709 391 
Q 2188 391 2477 730 
Q 2766 1069 2766 1631 
L 2766 1759 
L 2194 1759 
z
M 3341 1997 
L 3341 0 
L 2766 0 
L 2766 531 
Q 2569 213 2275 61 
Q 1981 -91 1556 -91 
Q 1019 -91 701 211 
Q 384 513 384 1019 
Q 384 1609 779 1909 
Q 1175 2209 1959 2209 
L 2766 2209 
L 2766 2266 
Q 2766 2663 2505 2880 
Q 2244 3097 1772 3097 
Q 1472 3097 1187 3025 
Q 903 2953 641 2809 
L 641 3341 
Q 956 3463 1253 3523 
Q 1550 3584 1831 3584 
Q 2591 3584 2966 3190 
Q 3341 2797 3341 1997 
z
" transform="scale(0.015625)"/>
       <path id="DejaVuSans-73" d="M 2834 3397 
L 2834 2853 
Q 2591 2978 2328 3040 
Q 2066 3103 1784 3103 
Q 1356 3103 1142 2972 
Q 928 2841 928 2578 
Q 928 2378 1081 2264 
Q 1234 2150 1697 2047 
L 1894 2003 
Q 2506 1872 2764 1633 
Q 3022 1394 3022 966 
Q 3022 478 2636 193 
Q 2250 -91 1575 -91 
Q 1294 -91 989 -36 
Q 684 19 347 128 
L 347 722 
Q 666 556 975 473 
Q 1284 391 1588 391 
Q 1994 391 2212 530 
Q 2431 669 2431 922 
Q 2431 1156 2273 1281 
Q 2116 1406 1581 1522 
L 1381 1569 
Q 847 1681 609 1914 
Q 372 2147 372 2553 
Q 372 3047 722 3315 
Q 1072 3584 1716 3584 
Q 2034 3584 2315 3537 
Q 2597 3491 2834 3397 
z
" transform="scale(0.015625)"/>
       <path id="DejaVuSans-2f" d="M 1625 4666 
L 2156 4666 
L 531 -594 
L 0 -594 
L 1625 4666 
z
" transform="scale(0.015625)"/>
       <path id="DejaVuSans-64" d="M 2906 2969 
L 2906 4863 
L 3481 4863 
L 3481 0 
L 2906 0 
L 2906 525 
Q 2725 213 2448 61 
Q 2172 -91 1784 -91 
Q 1150 -91 751 415 
Q 353 922 353 1747 
Q 353 2572 751 3078 
Q 1150 3584 1784 3584 
Q 2172 3584 2448 3432 
Q 2725 3281 2906 2969 
z
M 947 1747 
Q 947 1113 1208 752 
Q 1469 391 1925 391 
Q 2381 391 2643 752 
Q 2906 1113 2906 1747 
Q 2906 2381 2643 2742 
Q 2381 3103 1925 3103 
Q 1469 3103 1208 2742 
Q 947 2381 947 1747 
z
" transform="scale(0.015625)"/>
       <path id="DejaVuSans-69" d="M 603 3500 
L 1178 3500 
L 1178 0 
L 603 0 
L 603 3500 
z
M 603 4863 
L 1178 4863 
L 1178 4134 
L 603 4134 
L 603 4863 
z
" transform="scale(0.015625)"/>
       <path id="DejaVuSans-6d" d="M 3328 2828 
Q 3544 3216 3844 3400 
Q 4144 3584 4550 3584 
Q 5097 3584 5394 3201 
Q 5691 2819 5691 2113 
L 5691 0 
L 5113 0 
L 5113 2094 
Q 5113 2597 4934 2840 
Q 4756 3084 4391 3084 
Q 3944 3084 3684 2787 
Q 3425 2491 3425 1978 
L 3425 0 
L 2847 0 
L 2847 2094 
Q 2847 2600 2669 2842 
Q 2491 3084 2119 3084 
Q 1678 3084 1418 2786 
Q 1159 2488 1159 1978 
L 1159 0 
L 581 0 
L 581 3500 
L 1159 3500 
L 1159 2956 
Q 1356 3278 1631 3431 
Q 1906 3584 2284 3584 
Q 2666 3584 2933 3390 
Q 3200 3197 3328 2828 
z
" transform="scale(0.015625)"/>
       <path id="DejaVuSans-6e" d="M 3513 2113 
L 3513 0 
L 2938 0 
L 2938 2094 
Q 2938 2591 2744 2837 
Q 2550 3084 2163 3084 
Q 1697 3084 1428 2787 
Q 1159 2491 1159 1978 
L 1159 0 
L 581 0 
L 581 3500 
L 1159 3500 
L 1159 2956 
Q 1366 3272 1645 3428 
Q 1925 3584 2291 3584 
Q 2894 3584 3203 3211 
Q 3513 2838 3513 2113 
z
" transform="scale(0.015625)"/>
       <path id="DejaVuSans-29" d="M 513 4856 
L 1013 4856 
Q 1481 4119 1714 3412 
Q 1947 2706 1947 2009 
Q 1947 1309 1714 600 
Q 1481 -109 1013 -844 
L 513 -844 
Q 928 -128 1133 580 
Q 1338 1288 1338 2009 
Q 1338 2731 1133 3434 
Q 928 4138 513 4856 
z
" transform="scale(0.015625)"/>
      </defs>
      <use xlink:href="#DejaVuSans-6c"/>
      <use xlink:href="#DejaVuSans-6f" x="27.783203"/>
      <use xlink:href="#DejaVuSans-67" x="88.964844"/>
      <use xlink:href="#DejaVuSans-31" x="152.441406"/>
      <use xlink:href="#DejaVuSans-30" x="216.064453"/>
      <use xlink:href="#DejaVuSans-28" x="279.6875"/>
      <use xlink:href="#DejaVuSans-23" x="318.701172"/>
      <use xlink:href="#DejaVuSans-20" x="402.490234"/>
      <use xlink:href="#DejaVuSans-66" x="434.277344"/>
      <use xlink:href="#DejaVuSans-2d" x="463.982422"/>
      <use xlink:href="#DejaVuSans-65" x="500.066406"/>
      <use xlink:href="#DejaVuSans-76" x="561.589844"/>
      <use xlink:href="#DejaVuSans-61" x="620.769531"/>
      <use xlink:href="#DejaVuSans-6c" x="682.048828"/>
      <use xlink:href="#DejaVuSans-73" x="709.832031"/>
      <use xlink:href="#DejaVuSans-20" x="761.931641"/>
      <use xlink:href="#DejaVuSans-2f" x="793.71875"/>
      <use xlink:href="#DejaVuSans-20" x="827.410156"/>
      <use xlink:href="#DejaVuSans-64" x="859.197266"/>
      <use xlink:href="#DejaVuSans-69" x="922.673828"/>
      <use xlink:href="#DejaVuSans-6d" x="950.457031"/>
      <use xlink:href="#DejaVuSans-65" x="1047.869141"/>
      <use xlink:href="#DejaVuSans-6e" x="1109.392578"/>
      <use xlink:href="#DejaVuSans-73" x="1172.771484"/>
      <use xlink:href="#DejaVuSans-69" x="1224.871094"/>
      <use xlink:href="#DejaVuSans-6f" x="1252.654297"/>
      <use xlink:href="#DejaVuSans-6e" x="1313.835938"/>
      <use xlink:href="#DejaVuSans-29" x="1377.214844"/>
     </g>
    </g>
   </g>
   <g id="matplotlib.axis_2">
    <g id="ytick_1">
     <g id="line2d_17">
      <path d="M 57.6 298.944 
L 360.8064 298.944 
" clip-path="url(#pd05b44ce36)" style="fill: none; stroke: #b0b0b0; stroke-width: 0.8; stroke-linecap: square"/>
     </g>
     <g id="line2d_18">
      <defs>
       <path id="me3404ad081" d="M 0 0 
L -3.5 0 
" style="stroke: #000000; stroke-width: 0.8"/>
      </defs>
      <g>
       <use xlink:href="#me3404ad081" x="57.6" y="298.944" style="stroke: #000000; stroke-width: 0.8"/>
      </g>
     </g>
     <g id="text_6">
      <!-- 0.0 -->
      <g transform="translate(25.155 305.02275)scale(0.16 -0.16)">
       <defs>
        <path id="DejaVuSans-2e" d="M 684 794 
L 1344 794 
L 1344 0 
L 684 0 
L 684 794 
z
" transform="scale(0.015625)"/>
       </defs>
       <use xlink:href="#DejaVuSans-30"/>
       <use xlink:href="#DejaVuSans-2e" x="63.623047"/>
       <use xlink:href="#DejaVuSans-30" x="95.410156"/>
      </g>
     </g>
    </g>
    <g id="ytick_2">
     <g id="line2d_19">
      <path d="M 57.6 244.6848 
L 360.8064 244.6848 
" clip-path="url(#pd05b44ce36)" style="fill: none; stroke: #b0b0b0; stroke-width: 0.8; stroke-linecap: square"/>
     </g>
     <g id="line2d_20">
      <g>
       <use xlink:href="#me3404ad081" x="57.6" y="244.6848" style="stroke: #000000; stroke-width: 0.8"/>
      </g>
     </g>
     <g id="text_7">
      <!-- 0.2 -->
      <g transform="translate(25.155 250.76355)scale(0.16 -0.16)">
       <use xlink:href="#DejaVuSans-30"/>
       <use xlink:href="#DejaVuSans-2e" x="63.623047"/>
       <use xlink:href="#DejaVuSans-32" x="95.410156"/>
      </g>
     </g>
    </g>
    <g id="ytick_3">
     <g id="line2d_21">
      <path d="M 57.6 190.4256 
L 360.8064 190.4256 
" clip-path="url(#pd05b44ce36)" style="fill: none; stroke: #b0b0b0; stroke-width: 0.8; stroke-linecap: square"/>
     </g>
     <g id="line2d_22">
      <g>
       <use xlink:href="#me3404ad081" x="57.6" y="190.4256" style="stroke: #000000; stroke-width: 0.8"/>
      </g>
     </g>
     <g id="text_8">
      <!-- 0.4 -->
      <g transform="translate(25.155 196.50435)scale(0.16 -0.16)">
       <use xlink:href="#DejaVuSans-30"/>
       <use xlink:href="#DejaVuSans-2e" x="63.623047"/>
       <use xlink:href="#DejaVuSans-34" x="95.410156"/>
      </g>
     </g>
    </g>
    <g id="ytick_4">
     <g id="line2d_23">
      <path d="M 57.6 136.1664 
L 360.8064 136.1664 
" clip-path="url(#pd05b44ce36)" style="fill: none; stroke: #b0b0b0; stroke-width: 0.8; stroke-linecap: square"/>
     </g>
     <g id="line2d_24">
      <g>
       <use xlink:href="#me3404ad081" x="57.6" y="136.1664" style="stroke: #000000; stroke-width: 0.8"/>
      </g>
     </g>
     <g id="text_9">
      <!-- 0.6 -->
      <g transform="translate(25.155 142.24515)scale(0.16 -0.16)">
       <use xlink:href="#DejaVuSans-30"/>
       <use xlink:href="#DejaVuSans-2e" x="63.623047"/>
       <use xlink:href="#DejaVuSans-36" x="95.410156"/>
      </g>
     </g>
    </g>
    <g id="ytick_5">
     <g id="line2d_25">
      <path d="M 57.6 81.9072 
L 360.8064 81.9072 
" clip-path="url(#pd05b44ce36)" style="fill: none; stroke: #b0b0b0; stroke-width: 0.8; stroke-linecap: square"/>
     </g>
     <g id="line2d_26">
      <g>
       <use xlink:href="#me3404ad081" x="57.6" y="81.9072" style="stroke: #000000; stroke-width: 0.8"/>
      </g>
     </g>
     <g id="text_10">
      <!-- 0.8 -->
      <g transform="translate(25.155 87.98595)scale(0.16 -0.16)">
       <defs>
        <path id="DejaVuSans-38" d="M 2034 2216 
Q 1584 2216 1326 1975 
Q 1069 1734 1069 1313 
Q 1069 891 1326 650 
Q 1584 409 2034 409 
Q 2484 409 2743 651 
Q 3003 894 3003 1313 
Q 3003 1734 2745 1975 
Q 2488 2216 2034 2216 
z
M 1403 2484 
Q 997 2584 770 2862 
Q 544 3141 544 3541 
Q 544 4100 942 4425 
Q 1341 4750 2034 4750 
Q 2731 4750 3128 4425 
Q 3525 4100 3525 3541 
Q 3525 3141 3298 2862 
Q 3072 2584 2669 2484 
Q 3125 2378 3379 2068 
Q 3634 1759 3634 1313 
Q 3634 634 3220 271 
Q 2806 -91 2034 -91 
Q 1263 -91 848 271 
Q 434 634 434 1313 
Q 434 1759 690 2068 
Q 947 2378 1403 2484 
z
M 1172 3481 
Q 1172 3119 1398 2916 
Q 1625 2713 2034 2713 
Q 2441 2713 2670 2916 
Q 2900 3119 2900 3481 
Q 2900 3844 2670 4047 
Q 2441 4250 2034 4250 
Q 1625 4250 1398 4047 
Q 1172 3844 1172 3481 
z
" transform="scale(0.015625)"/>
       </defs>
       <use xlink:href="#DejaVuSans-30"/>
       <use xlink:href="#DejaVuSans-2e" x="63.623047"/>
       <use xlink:href="#DejaVuSans-38" x="95.410156"/>
      </g>
     </g>
    </g>
    <g id="ytick_6">
     <g id="line2d_27">
      <path d="M 57.6 27.648 
L 360.8064 27.648 
" clip-path="url(#pd05b44ce36)" style="fill: none; stroke: #b0b0b0; stroke-width: 0.8; stroke-linecap: square"/>
     </g>
     <g id="line2d_28">
      <g>
       <use xlink:href="#me3404ad081" x="57.6" y="27.648" style="stroke: #000000; stroke-width: 0.8"/>
      </g>
     </g>
     <g id="text_11">
      <!-- 1.0 -->
      <g transform="translate(25.155 33.72675)scale(0.16 -0.16)">
       <use xlink:href="#DejaVuSans-31"/>
       <use xlink:href="#DejaVuSans-2e" x="63.623047"/>
       <use xlink:href="#DejaVuSans-30" x="95.410156"/>
      </g>
     </g>
    </g>
    <g id="text_12">
     <!-- Fraction of function,target pairs -->
     <g transform="translate(17.619531 297.681)rotate(-90)scale(0.17 -0.17)">
      <defs>
       <path id="DejaVuSans-46" d="M 628 4666 
L 3309 4666 
L 3309 4134 
L 1259 4134 
L 1259 2759 
L 3109 2759 
L 3109 2228 
L 1259 2228 
L 1259 0 
L 628 0 
L 628 4666 
z
" transform="scale(0.015625)"/>
       <path id="DejaVuSans-72" d="M 2631 2963 
Q 2534 3019 2420 3045 
Q 2306 3072 2169 3072 
Q 1681 3072 1420 2755 
Q 1159 2438 1159 1844 
L 1159 0 
L 581 0 
L 581 3500 
L 1159 3500 
L 1159 2956 
Q 1341 3275 1631 3429 
Q 1922 3584 2338 3584 
Q 2397 3584 2469 3576 
Q 2541 3569 2628 3553 
L 2631 2963 
z
" transform="scale(0.015625)"/>
       <path id="DejaVuSans-63" d="M 3122 3366 
L 3122 2828 
Q 2878 2963 2633 3030 
Q 2388 3097 2138 3097 
Q 1578 3097 1268 2742 
Q 959 2388 959 1747 
Q 959 1106 1268 751 
Q 1578 397 2138 397 
Q 2388 397 2633 464 
Q 2878 531 3122 666 
L 3122 134 
Q 2881 22 2623 -34 
Q 2366 -91 2075 -91 
Q 1284 -91 818 406 
Q 353 903 353 1747 
Q 353 2603 823 3093 
Q 1294 3584 2113 3584 
Q 2378 3584 2631 3529 
Q 2884 3475 3122 3366 
z
" transform="scale(0.015625)"/>
       <path id="DejaVuSans-74" d="M 1172 4494 
L 1172 3500 
L 2356 3500 
L 2356 3053 
L 1172 3053 
L 1172 1153 
Q 1172 725 1289 603 
Q 1406 481 1766 481 
L 2356 481 
L 2356 0 
L 1766 0 
Q 1100 0 847 248 
Q 594 497 594 1153 
L 594 3053 
L 172 3053 
L 172 3500 
L 594 3500 
L 594 4494 
L 1172 4494 
z
" transform="scale(0.015625)"/>
       <path id="DejaVuSans-75" d="M 544 1381 
L 544 3500 
L 1119 3500 
L 1119 1403 
Q 1119 906 1312 657 
Q 1506 409 1894 409 
Q 2359 409 2629 706 
Q 2900 1003 2900 1516 
L 2900 3500 
L 3475 3500 
L 3475 0 
L 2900 0 
L 2900 538 
Q 2691 219 2414 64 
Q 2138 -91 1772 -91 
Q 1169 -91 856 284 
Q 544 659 544 1381 
z
M 1991 3584 
L 1991 3584 
z
" transform="scale(0.015625)"/>
       <path id="DejaVuSans-2c" d="M 750 794 
L 1409 794 
L 1409 256 
L 897 -744 
L 494 -744 
L 750 256 
L 750 794 
z
" transform="scale(0.015625)"/>
       <path id="DejaVuSans-70" d="M 1159 525 
L 1159 -1331 
L 581 -1331 
L 581 3500 
L 1159 3500 
L 1159 2969 
Q 1341 3281 1617 3432 
Q 1894 3584 2278 3584 
Q 2916 3584 3314 3078 
Q 3713 2572 3713 1747 
Q 3713 922 3314 415 
Q 2916 -91 2278 -91 
Q 1894 -91 1617 61 
Q 1341 213 1159 525 
z
M 3116 1747 
Q 3116 2381 2855 2742 
Q 2594 3103 2138 3103 
Q 1681 3103 1420 2742 
Q 1159 2381 1159 1747 
Q 1159 1113 1420 752 
Q 1681 391 2138 391 
Q 2594 391 2855 752 
Q 3116 1113 3116 1747 
z
" transform="scale(0.015625)"/>
      </defs>
      <use xlink:href="#DejaVuSans-46"/>
      <use xlink:href="#DejaVuSans-72" x="50.269531"/>
      <use xlink:href="#DejaVuSans-61" x="91.382812"/>
      <use xlink:href="#DejaVuSans-63" x="152.662109"/>
      <use xlink:href="#DejaVuSans-74" x="207.642578"/>
      <use xlink:href="#DejaVuSans-69" x="246.851562"/>
      <use xlink:href="#DejaVuSans-6f" x="274.634766"/>
      <use xlink:href="#DejaVuSans-6e" x="335.816406"/>
      <use xlink:href="#DejaVuSans-20" x="399.195312"/>
      <use xlink:href="#DejaVuSans-6f" x="430.982422"/>
      <use xlink:href="#DejaVuSans-66" x="492.164062"/>
      <use xlink:href="#DejaVuSans-20" x="527.369141"/>
      <use xlink:href="#DejaVuSans-66" x="559.15625"/>
      <use xlink:href="#DejaVuSans-75" x="594.361328"/>
      <use xlink:href="#DejaVuSans-6e" x="657.740234"/>
      <use xlink:href="#DejaVuSans-63" x="721.119141"/>
      <use xlink:href="#DejaVuSans-74" x="776.099609"/>
      <use xlink:href="#DejaVuSans-69" x="815.308594"/>
      <use xlink:href="#DejaVuSans-6f" x="843.091797"/>
      <use xlink:href="#DejaVuSans-6e" x="904.273438"/>
      <use xlink:href="#DejaVuSans-2c" x="967.652344"/>
      <use xlink:href="#DejaVuSans-74" x="999.439453"/>
      <use xlink:href="#DejaVuSans-61" x="1038.648438"/>
      <use xlink:href="#DejaVuSans-72" x="1099.927734"/>
      <use xlink:href="#DejaVuSans-67" x="1139.291016"/>
      <use xlink:href="#DejaVuSans-65" x="1202.767578"/>
      <use xlink:href="#DejaVuSans-74" x="1264.291016"/>
      <use xlink:href="#DejaVuSans-20" x="1303.5"/>
      <use xlink:href="#DejaVuSans-70" x="1335.287109"/>
      <use xlink:href="#DejaVuSans-61" x="1398.763672"/>
      <use xlink:href="#DejaVuSans-69" x="1460.042969"/>
      <use xlink:href="#DejaVuSans-72" x="1487.826172"/>
      <use xlink:href="#DejaVuSans-73" x="1528.939453"/>
     </g>
    </g>
   </g>
   <g id="line2d_29">
    <defs>
     <path id="mc3ecca6299" d="M 0 1.5 
C 0.397805 1.5 0.77937 1.341951 1.06066 1.06066 
C 1.341951 0.77937 1.5 0.397805 1.5 0 
C 1.5 -0.397805 1.341951 -0.77937 1.06066 -1.06066 
C 0.77937 -1.341951 0.397805 -1.5 0 -1.5 
C -0.397805 -1.5 -0.77937 -1.341951 -1.06066 -1.06066 
C -1.341951 -0.77937 -1.5 -0.397805 -1.5 0 
C -1.5 0.397805 -1.341951 0.77937 -1.06066 1.06066 
C -0.77937 1.341951 -0.397805 1.5 0 1.5 
z
" style="stroke: #00bfbf"/>
    </defs>
    <g>
     <use xlink:href="#mc3ecca6299" x="306.00802" y="27.648" style="fill: #00bfbf; stroke: #00bfbf"/>
     <use xlink:href="#mc3ecca6299" x="306.00802" y="27.648" style="fill: #00bfbf; stroke: #00bfbf"/>
    </g>
   </g>
   <g id="line2d_30">
    <path d="M 44.560826 298.944 
L 44.560826 282.276141 
L 57.6 282.276141 
L 57.6 278.729788 
L 65.227428 278.729788 
L 65.227428 275.183435 
L 70.639174 275.183435 
L 70.639174 274.8288 
L 74.836851 274.8288 
L 74.836851 271.637082 
L 78.266603 271.637082 
L 78.266603 270.573176 
L 81.166416 270.573176 
L 81.166416 269.154635 
L 83.678349 269.154635 
L 83.678349 268.445365 
L 85.894031 268.445365 
L 85.894031 268.090729 
L 87.876026 268.090729 
L 87.876026 266.317553 
L 89.668958 266.317553 
L 89.668958 265.608282 
L 94.205591 265.608282 
L 94.205591 264.544376 
L 96.717523 264.544376 
L 96.717523 264.189741 
L 105.112877 264.189741 
L 105.112877 263.835106 
L 107.244765 263.835106 
L 107.244765 263.480471 
L 107.904887 263.480471 
L 107.904887 263.125835 
L 110.335561 263.125835 
L 110.335561 261.707294 
L 111.442442 261.707294 
L 111.442442 261.352659 
L 112.487797 261.352659 
L 112.487797 260.288753 
L 113.954374 260.288753 
L 113.954374 259.224847 
L 115.747307 259.224847 
L 115.747307 258.870212 
L 116.583514 258.870212 
L 116.583514 258.515576 
L 123.08753 258.515576 
L 123.08753 258.160941 
L 123.374735 258.160941 
L 123.374735 257.451671 
L 124.481616 257.451671 
L 124.481616 257.097035 
L 125.011554 257.097035 
L 125.011554 255.678494 
L 129.209231 255.678494 
L 129.209231 255.323859 
L 131.747272 255.323859 
L 131.747272 254.969224 
L 133.983236 254.969224 
L 133.983236 254.614588 
L 134.463557 254.614588 
L 134.463557 253.550682 
L 138.943648 253.550682 
L 138.943648 253.196047 
L 142.865233 253.196047 
L 142.865233 252.486776 
L 144.136106 252.486776 
L 144.2304 250.358965 
L 144.786447 250.358965 
L 144.786447 250.004329 
L 145.590864 250.004329 
L 145.590864 249.649694 
L 150.425115 249.649694 
L 150.425115 249.295059 
L 151.982822 249.295059 
L 151.982822 248.940424 
L 152.715833 248.940424 
L 152.715833 248.585788 
L 152.953957 248.585788 
L 152.953957 247.876518 
L 155.339761 247.876518 
L 155.339761 247.521882 
L 157.175281 247.521882 
L 157.175281 246.812612 
L 157.734081 246.812612 
L 157.779907 246.103341 
L 160.97168 246.103341 
L 160.97168 245.394071 
L 162.880139 245.394071 
L 162.949812 244.330165 
L 166.489353 244.330165 
L 166.489353 243.975529 
L 169.832482 243.975529 
L 169.832482 243.266259 
L 171.82171 243.266259 
L 171.82171 242.911624 
L 174.145567 242.911624 
L 174.164733 241.138447 
L 181.625402 241.138447 
L 181.625402 240.783812 
L 182.481765 240.783812 
L 182.481765 240.429176 
L 186.017913 240.429176 
L 186.017913 240.074541 
L 186.816825 240.074541 
L 186.816825 239.719906 
L 187.213483 239.719906 
L 187.270836 239.010635 
L 188.274356 239.010635 
L 188.274356 238.301365 
L 188.61509 238.301365 
L 188.61509 237.946729 
L 190.975352 237.946729 
L 190.975352 237.237459 
L 192.825202 237.237459 
L 192.825202 236.882824 
L 194.161861 236.882824 
L 194.161861 236.528188 
L 195.808051 236.528188 
L 195.808051 236.173553 
L 196.162374 236.173553 
L 196.162374 235.818918 
L 196.845868 235.818918 
L 196.845868 235.109647 
L 198.893151 235.109647 
L 198.893151 234.400376 
L 199.649547 234.400376 
L 199.649547 234.045741 
L 201.072208 234.045741 
L 201.072208 233.691106 
L 201.853143 233.691106 
L 201.853143 233.336471 
L 201.9671 233.336471 
L 201.9671 232.981835 
L 202.356318 232.981835 
L 202.356318 232.6272 
L 203.77393 232.6272 
L 203.861058 231.208659 
L 205.294614 231.208659 
L 205.294614 230.854024 
L 205.422324 230.854024 
L 205.422324 230.499388 
L 205.882129 230.499388 
L 205.882129 230.144753 
L 206.020021 230.144753 
L 206.020021 229.790118 
L 206.341355 229.790118 
L 206.341355 229.435482 
L 206.489682 229.435482 
L 206.50342 228.726212 
L 206.636848 228.726212 
L 206.653886 227.307671 
L 207.207651 227.307671 
L 207.207651 226.953035 
L 207.359172 226.953035 
L 207.359172 226.5984 
L 207.499716 226.5984 
L 207.499716 226.243765 
L 207.755219 226.243765 
L 207.755219 225.534494 
L 209.290576 225.534494 
L 209.293536 224.115953 
L 212.592093 224.115953 
L 212.592093 223.761318 
L 212.728221 223.761318 
L 212.745476 223.052047 
L 213.396845 223.052047 
L 213.396845 222.697412 
L 213.628651 222.697412 
L 213.628651 221.988141 
L 214.086161 221.988141 
L 214.086161 221.633506 
L 217.909833 221.633506 
L 217.909833 221.278871 
L 219.953514 221.278871 
L 219.953514 220.214965 
L 221.450971 220.214965 
L 221.450971 219.505694 
L 221.82872 219.505694 
L 221.930301 218.796424 
L 224.810015 218.796424 
L 224.810015 218.441788 
L 225.246052 218.441788 
L 225.246052 216.668612 
L 225.904993 216.668612 
L 225.929459 215.604706 
L 227.617857 215.604706 
L 227.617857 215.250071 
L 228.160891 215.250071 
L 228.160891 214.895435 
L 229.698829 214.895435 
L 229.698829 214.5408 
L 231.254515 214.5408 
L 231.352815 212.058353 
L 231.629327 212.058353 
L 231.703222 211.349082 
L 231.826036 211.349082 
L 231.826036 210.639812 
L 231.984416 210.639812 
L 232.027782 209.930541 
L 232.268452 209.930541 
L 232.268452 209.221271 
L 232.741599 209.221271 
L 232.741599 208.866635 
L 233.304181 208.866635 
L 233.412078 207.802729 
L 233.619537 207.802729 
L 233.719183 206.738824 
L 233.888099 206.738824 
L 233.888099 206.384188 
L 234.020559 206.384188 
L 234.020559 205.674918 
L 234.141034 205.674918 
L 234.250534 204.965647 
L 234.314051 204.965647 
L 234.389834 203.192471 
L 235.457534 203.192471 
L 235.528855 202.4832 
L 235.577229 202.4832 
L 235.577229 201.773929 
L 235.69544 201.773929 
L 235.73976 201.064659 
L 235.887223 201.064659 
L 235.887223 200.355388 
L 236.089184 200.355388 
L 236.089184 200.000753 
L 236.312948 200.000753 
L 236.312948 199.646118 
L 237.471767 199.646118 
L 237.471767 199.291482 
L 239.704649 199.291482 
L 239.704649 198.936847 
L 241.115186 198.936847 
L 241.162026 197.518306 
L 245.295404 197.518306 
L 245.37471 196.809035 
L 245.612787 196.809035 
L 245.71299 194.681224 
L 245.763744 194.681224 
L 245.821581 193.971953 
L 245.926172 193.971953 
L 245.926172 193.617318 
L 246.182007 193.617318 
L 246.187838 192.198776 
L 246.437286 192.198776 
L 246.472184 190.4256 
L 246.609911 190.4256 
L 246.685092 187.233882 
L 246.968068 187.233882 
L 246.968068 186.879247 
L 247.241733 186.879247 
L 247.350877 184.042165 
L 247.371613 184.042165 
L 247.422769 181.914353 
L 247.596285 181.914353 
L 247.658007 180.495812 
L 247.721062 180.495812 
L 247.800349 179.786541 
L 247.991254 179.786541 
L 248.003735 178.722635 
L 248.1911 178.722635 
L 248.227752 177.304094 
L 248.381065 177.304094 
L 248.432139 175.885553 
L 248.503337 175.885553 
L 248.53277 175.176282 
L 248.670128 175.176282 
L 248.67852 173.757741 
L 248.904423 173.757741 
L 248.904423 173.403106 
L 249.029797 173.403106 
L 249.029797 173.048471 
L 249.151139 173.048471 
L 249.253668 171.984565 
L 249.275945 171.984565 
L 249.275945 171.629929 
L 249.391149 171.629929 
L 249.501463 168.792847 
L 249.510888 168.792847 
L 249.510888 167.728941 
L 249.723274 167.728941 
L 249.723274 167.374306 
L 249.928852 167.374306 
L 249.928852 167.019671 
L 250.043191 167.019671 
L 250.110922 162.764047 
L 250.217106 162.764047 
L 250.27986 160.636235 
L 250.36243 160.636235 
L 250.453603 157.444518 
L 250.47583 157.444518 
L 250.47583 157.089882 
L 250.628057 157.089882 
L 250.647122 155.671341 
L 250.825008 155.671341 
L 250.904575 153.898165 
L 250.968957 153.898165 
L 251.068492 150.351812 
L 251.140639 150.351812 
L 251.235132 148.224 
L 251.275212 148.224 
L 251.31711 147.160094 
L 251.436575 147.160094 
L 251.539313 143.259106 
L 251.607807 143.259106 
L 251.695017 137.584941 
L 251.718929 137.584941 
L 251.776566 135.102494 
L 251.945358 135.102494 
L 251.945358 134.747859 
L 252.132697 134.747859 
L 252.150601 134.038588 
L 252.315182 134.038588 
L 252.315182 133.329318 
L 252.490851 133.329318 
L 252.580594 129.428329 
L 252.671386 129.428329 
L 252.765559 125.527341 
L 252.987058 125.527341 
L 253.059159 124.818071 
L 253.144511 124.818071 
L 253.253521 121.980988 
L 253.595639 121.980988 
L 253.595639 121.626353 
L 253.849244 121.626353 
L 253.849244 121.271718 
L 254.495887 121.271718 
L 254.548295 120.562447 
L 254.63195 120.562447 
L 254.728199 117.016094 
L 254.867586 117.016094 
L 254.867849 115.952188 
L 255.059555 115.952188 
L 255.059555 115.597553 
L 255.188518 115.597553 
L 255.249069 113.824376 
L 255.373423 113.824376 
L 255.48045 110.632659 
L 255.48858 110.632659 
L 255.578279 108.859482 
L 255.619943 108.859482 
L 255.701236 106.0224 
L 255.736613 106.0224 
L 255.752649 103.539953 
L 255.962358 103.539953 
L 255.962358 102.476047 
L 256.139109 102.476047 
L 256.217461 101.412141 
L 256.448888 101.412141 
L 256.448888 101.057506 
L 256.573256 101.057506 
L 256.646003 99.284329 
L 256.754599 99.284329 
L 256.754599 98.575059 
L 256.913972 98.575059 
L 257.014948 96.801882 
L 257.087876 96.801882 
L 257.087876 96.447247 
L 257.254639 96.447247 
L 257.32918 95.737976 
L 257.38759 95.737976 
L 257.456574 95.028706 
L 257.516415 95.028706 
L 257.616486 91.127718 
L 257.62805 91.127718 
L 257.735646 88.999906 
L 257.740604 88.999906 
L 257.740604 87.226729 
L 257.942767 87.226729 
L 257.997972 86.517459 
L 258.06498 86.517459 
L 258.06498 86.162824 
L 258.185523 86.162824 
L 258.185523 84.744282 
L 258.311421 84.744282 
L 258.350292 81.552565 
L 258.530491 81.552565 
L 258.556402 78.715482 
L 258.772867 78.715482 
L 258.772867 78.006212 
L 258.934072 78.006212 
L 258.934072 77.651576 
L 259.306798 77.651576 
L 259.306798 77.296941 
L 259.434085 77.296941 
L 259.434085 76.942306 
L 259.549058 76.942306 
L 259.549058 76.233035 
L 259.710472 76.233035 
L 259.797936 73.395953 
L 259.897858 73.395953 
L 259.897858 72.686682 
L 260.133861 72.686682 
L 260.133861 72.332047 
L 265.640805 72.332047 
L 265.640805 71.977412 
L 274.618562 71.977412 
L 274.703534 71.268141 
L 274.875145 71.268141 
L 274.931791 70.204235 
L 275.522372 70.204235 
L 275.522372 69.8496 
L 276.279145 69.8496 
L 276.318551 68.076424 
L 276.444531 68.076424 
L 276.485588 67.012518 
L 278.005837 67.012518 
L 278.099523 65.239341 
L 278.230694 65.239341 
L 278.298959 64.530071 
L 278.392404 64.530071 
L 278.491294 62.756894 
L 278.537823 62.756894 
L 278.645895 61.692988 
L 278.651456 61.692988 
L 278.651456 61.338353 
L 278.787756 61.338353 
L 278.869064 59.565176 
L 278.962715 59.565176 
L 279.006275 58.501271 
L 279.090558 58.501271 
L 279.160181 53.181741 
L 279.345166 53.181741 
L 279.388919 51.7632 
L 279.458515 51.7632 
L 279.51589 50.699294 
L 279.673285 50.699294 
L 279.673285 50.344659 
L 279.874727 50.344659 
L 279.890144 48.571482 
L 280.021785 48.571482 
L 280.096912 47.507576 
L 280.151417 47.507576 
L 280.231619 45.7344 
L 280.498375 45.7344 
L 280.498375 45.025129 
L 280.692015 45.025129 
L 280.738058 42.542682 
L 280.814216 42.542682 
L 280.919665 40.769506 
L 280.976166 40.769506 
L 281.047975 38.641694 
L 289.357054 38.641694 
L 289.419064 37.577788 
L 289.49629 37.577788 
L 289.49629 37.223153 
L 289.806448 37.223153 
L 289.865444 35.804612 
L 290.127332 35.804612 
L 290.127332 35.095341 
L 290.266961 35.095341 
L 290.373581 34.386071 
L 290.407625 34.386071 
L 290.449925 33.6768 
L 290.593909 33.6768 
L 290.593909 33.322165 
L 290.732158 33.322165 
L 290.756913 31.903624 
L 290.887591 31.903624 
L 290.887591 31.548988 
L 295.097922 31.548988 
L 295.097922 31.194353 
L 296.370283 31.194353 
L 296.370283 30.839718 
L 296.495697 30.839718 
L 296.495697 30.485082 
L 296.729642 30.485082 
L 296.773011 29.775812 
L 297.059678 29.775812 
L 297.059678 29.421176 
L 297.324821 29.421176 
L 297.324821 29.066541 
L 301.623932 29.066541 
L 301.623932 28.711906 
L 301.941168 28.711906 
L 301.941168 28.357271 
L 305.553176 28.357271 
L 305.553176 28.002635 
L 306.00802 28.002635 
L 306.00802 27.648 
L 360.8064 27.648 
L 360.8064 27.648 
" style="fill: none; stroke: #00bfbf; stroke-width: 1.5; stroke-linecap: square"/>
   </g>
   <g id="line2d_31">
    <defs>
     <path id="m4c3974e9a4" d="M -6 0 
L 6 0 
M 0 6 
L 0 -6 
" style="stroke: #00bfbf; stroke-width: 1.5"/>
    </defs>
    <g>
     <use xlink:href="#m4c3974e9a4" x="107.904887" y="263.125835" style="fill-opacity: 0; stroke: #00bfbf; stroke-width: 1.5"/>
     <use xlink:href="#m4c3974e9a4" x="205.294614" y="230.854024" style="fill-opacity: 0; stroke: #00bfbf; stroke-width: 1.5"/>
     <use xlink:href="#m4c3974e9a4" x="251.688801" y="139.358118" style="fill-opacity: 0; stroke: #00bfbf; stroke-width: 1.5"/>
     <use xlink:href="#m4c3974e9a4" x="289.357054" y="38.641694" style="fill-opacity: 0; stroke: #00bfbf; stroke-width: 1.5"/>
     <use xlink:href="#m4c3974e9a4" x="306.00802" y="27.648" style="fill-opacity: 0; stroke: #00bfbf; stroke-width: 1.5"/>
     <use xlink:href="#m4c3974e9a4" x="360.8064" y="27.648" style="fill-opacity: 0; stroke: #00bfbf; stroke-width: 1.5"/>
    </g>
   </g>
   <g id="line2d_32">
    <path style="fill: none; stroke: #00bfbf; stroke-width: 1.5; stroke-linecap: square"/>
    <g/>
   </g>
   <g id="line2d_33">
    <path d="M 274.176 71.977412 
" clip-path="url(#pd05b44ce36)" style="fill: none; stroke: #00bfbf; stroke-width: 1.5; stroke-linecap: square"/>
    <defs>
     <path id="m6c12f6b9e8" d="M -12 12 
L 12 -12 
M -12 -12 
L 12 12 
" style="stroke: #00bfbf"/>
    </defs>
    <g clip-path="url(#pd05b44ce36)">
     <use xlink:href="#m6c12f6b9e8" x="274.176" y="71.977412" style="fill: #00bfbf; stroke: #00bfbf"/>
    </g>
   </g>
   <g id="line2d_34">
    <defs>
     <path id="mf4cc96f234" d="M 0 1.5 
C 0.397805 1.5 0.77937 1.341951 1.06066 1.06066 
C 1.341951 0.77937 1.5 0.397805 1.5 0 
C 1.5 -0.397805 1.341951 -0.77937 1.06066 -1.06066 
C 0.77937 -1.341951 0.397805 -1.5 0 -1.5 
C -0.397805 -1.5 -0.77937 -1.341951 -1.06066 -1.06066 
C -1.341951 -0.77937 -1.5 -0.397805 -1.5 0 
C -1.5 0.397805 -1.341951 0.77937 -1.06066 1.06066 
C -0.77937 1.341951 -0.397805 1.5 0 1.5 
z
" style="stroke: #008000"/>
    </defs>
    <g>
     <use xlink:href="#mf4cc96f234" x="338.957547" y="27.648" style="fill: #008000; stroke: #008000"/>
     <use xlink:href="#mf4cc96f234" x="338.957547" y="27.648" style="fill: #008000; stroke: #008000"/>
    </g>
   </g>
   <g id="line2d_35">
    <path d="M 36.933397 298.944 
L 36.933397 277.311247 
L 49.972572 277.311247 
L 49.972572 274.119529 
L 57.6 274.119529 
L 57.6 271.282447 
L 63.011746 271.282447 
L 63.011746 269.509271 
L 67.209423 269.509271 
L 67.209423 268.445365 
L 70.639174 268.445365 
L 70.639174 267.381459 
L 76.050921 267.381459 
L 76.050921 267.026824 
L 78.266603 267.026824 
L 78.266603 265.962918 
L 80.248597 265.962918 
L 80.248597 265.253647 
L 82.04153 265.253647 
L 82.04153 264.899012 
L 95.916911 264.899012 
L 95.916911 264.544376 
L 98.223251 264.544376 
L 98.223251 263.480471 
L 99.617337 263.480471 
L 99.617337 262.7712 
L 100.277459 262.7712 
L 100.277459 262.416565 
L 101.532027 262.416565 
L 101.532027 262.061929 
L 102.12927 262.061929 
L 102.12927 261.707294 
L 103.815014 261.707294 
L 103.815014 261.352659 
L 104.344952 261.352659 
L 104.344952 260.643388 
L 108.119879 260.643388 
L 108.119879 259.934118 
L 110.144579 259.934118 
L 110.144579 259.579482 
L 113.638206 259.579482 
L 113.638206 258.870212 
L 120.944062 258.870212 
L 120.944062 258.160941 
L 123.563797 258.160941 
L 123.563797 257.806306 
L 124.836562 257.806306 
L 124.836562 257.451671 
L 126.677381 257.451671 
L 126.677381 256.387765 
L 128.060076 256.387765 
L 128.060076 256.033129 
L 131.31622 256.033129 
L 131.31622 255.678494 
L 132.984158 255.678494 
L 132.984158 255.323859 
L 134.931919 255.323859 
L 134.931919 254.969224 
L 135.438999 254.969224 
L 135.438999 254.614588 
L 136.508678 254.614588 
L 136.508678 254.259953 
L 137.430998 254.259953 
L 137.430998 253.905318 
L 138.566146 253.905318 
L 138.566146 253.196047 
L 141.320133 253.196047 
L 141.320133 252.486776 
L 143.462475 252.486776 
L 143.462475 251.777506 
L 145.207843 251.777506 
L 145.207843 251.422871 
L 147.868016 251.422871 
L 147.868016 251.068235 
L 149.165879 251.068235 
L 149.165879 250.358965 
L 151.435079 250.358965 
L 151.435079 250.004329 
L 159.816746 250.004329 
L 159.816746 249.649694 
L 163.214524 249.649694 
L 163.214524 248.231153 
L 165.674958 248.231153 
L 165.674958 247.521882 
L 170.480403 247.521882 
L 170.511445 246.812612 
L 170.834332 246.812612 
L 170.834332 246.457976 
L 171.522819 246.457976 
L 171.522819 246.103341 
L 173.594249 246.103341 
L 173.594249 245.748706 
L 176.139064 245.748706 
L 176.139064 245.394071 
L 176.99326 245.394071 
L 176.99326 245.039435 
L 177.146467 245.039435 
L 177.146467 244.6848 
L 181.591012 244.6848 
L 181.591012 244.330165 
L 181.821936 244.330165 
L 181.821936 243.975529 
L 182.192288 243.975529 
L 182.192288 243.620894 
L 184.078188 243.620894 
L 184.078188 243.266259 
L 185.626206 243.266259 
L 185.626206 242.911624 
L 187.41977 242.911624 
L 187.41977 242.556988 
L 187.788574 242.556988 
L 187.788574 242.202353 
L 188.095558 242.202353 
L 188.095558 241.847718 
L 190.563288 241.847718 
L 190.563288 241.493082 
L 198.762347 241.493082 
L 198.762347 241.138447 
L 205.740835 241.138447 
L 205.740835 240.783812 
L 206.334427 240.783812 
L 206.334427 240.429176 
L 206.552568 240.429176 
L 206.552568 240.074541 
L 207.352609 240.074541 
L 207.374476 239.365271 
L 208.113707 239.365271 
L 208.113707 239.010635 
L 209.559051 239.010635 
L 209.559051 238.656 
L 212.529889 238.656 
L 212.529889 238.301365 
L 218.091816 238.301365 
L 218.111585 237.592094 
L 218.68562 237.592094 
L 218.68562 237.237459 
L 219.015697 237.237459 
L 219.015697 236.882824 
L 219.184423 236.882824 
L 219.184423 236.528188 
L 220.075171 236.528188 
L 220.075171 236.173553 
L 220.484541 236.173553 
L 220.589836 235.464282 
L 221.946927 235.464282 
L 221.946927 235.109647 
L 223.249355 235.109647 
L 223.249355 234.755012 
L 223.98835 234.755012 
L 223.98835 234.400376 
L 224.573701 234.400376 
L 224.573701 234.045741 
L 225.621329 234.045741 
L 225.621329 233.691106 
L 226.399491 233.691106 
L 226.399491 233.336471 
L 226.625463 233.336471 
L 226.625463 232.981835 
L 227.416746 232.981835 
L 227.416746 232.6272 
L 227.843361 232.6272 
L 227.843361 231.917929 
L 228.03525 231.917929 
L 228.03525 231.563294 
L 228.498761 231.563294 
L 228.58105 230.144753 
L 228.788712 230.144753 
L 228.788712 229.790118 
L 228.974708 229.790118 
L 228.974708 229.435482 
L 229.804585 229.435482 
L 229.804585 229.080847 
L 230.593033 229.080847 
L 230.593033 228.726212 
L 230.932148 228.726212 
L 230.932148 228.371576 
L 233.545474 228.371576 
L 233.545474 228.016941 
L 233.979697 228.016941 
L 234.071908 226.5984 
L 234.258126 226.5984 
L 234.258126 226.243765 
L 234.871441 226.243765 
L 234.871441 225.889129 
L 237.764232 225.889129 
L 237.764232 225.534494 
L 239.738319 225.534494 
L 239.738319 225.179859 
L 240.199658 225.179859 
L 240.199658 224.825224 
L 240.69499 224.825224 
L 240.69499 224.470588 
L 240.878854 224.470588 
L 240.878854 224.115953 
L 241.010922 224.115953 
L 241.010922 223.761318 
L 245.128735 223.761318 
L 245.156323 222.697412 
L 245.243223 222.697412 
L 245.243223 222.342776 
L 246.117886 222.342776 
L 246.117886 221.988141 
L 247.521822 221.988141 
L 247.521822 221.633506 
L 248.171998 221.633506 
L 248.171998 221.278871 
L 248.32279 221.278871 
L 248.326259 220.5696 
L 248.460085 220.5696 
L 248.539386 218.796424 
L 248.574878 218.796424 
L 248.626648 217.732518 
L 248.796343 217.732518 
L 248.796343 217.377882 
L 248.968831 217.377882 
L 249.035048 216.313976 
L 249.622123 216.313976 
L 249.692076 215.250071 
L 249.874159 215.250071 
L 249.890583 213.122259 
L 250.314893 213.122259 
L 250.396532 209.575906 
L 250.585584 209.575906 
L 250.622465 208.157365 
L 250.756211 208.157365 
L 250.847451 207.448094 
L 250.872572 207.448094 
L 250.929189 206.029553 
L 251.004343 206.029553 
L 251.063137 203.901741 
L 251.15141 203.901741 
L 251.250729 201.419294 
L 251.286966 201.419294 
L 251.286966 200.355388 
L 251.492674 200.355388 
L 251.591878 199.291482 
L 251.612281 199.291482 
L 251.708581 197.163671 
L 251.723687 197.163671 
L 251.766043 195.390494 
L 251.880238 195.390494 
L 251.95435 194.326588 
L 251.994152 194.326588 
L 252.013919 193.617318 
L 252.223959 193.617318 
L 252.254751 191.844141 
L 252.38361 191.844141 
L 252.38361 191.134871 
L 252.515162 191.134871 
L 252.534191 190.4256 
L 252.655448 190.4256 
L 252.713234 189.716329 
L 252.766733 189.716329 
L 252.766733 189.361694 
L 252.925161 189.361694 
L 252.977094 188.652424 
L 253.180727 188.652424 
L 253.180727 188.297788 
L 253.715009 188.297788 
L 253.715009 187.943153 
L 253.83908 187.943153 
L 253.83908 187.233882 
L 254.087166 187.233882 
L 254.087166 186.879247 
L 254.290742 186.879247 
L 254.290742 186.524612 
L 254.950708 186.524612 
L 254.950708 186.169976 
L 255.281455 186.169976 
L 255.281455 185.815341 
L 257.009092 185.815341 
L 257.009092 185.460706 
L 257.121207 185.460706 
L 257.121207 184.751435 
L 258.89752 184.751435 
L 258.968724 183.687529 
L 259.047088 183.687529 
L 259.047088 183.332894 
L 259.395604 183.332894 
L 259.448358 181.914353 
L 259.511905 181.914353 
L 259.527895 181.205082 
L 260.639323 181.205082 
L 260.720787 179.431906 
L 260.766504 179.431906 
L 260.869313 178.013365 
L 260.9603 178.013365 
L 260.9603 176.949459 
L 261.210298 176.949459 
L 261.210298 176.594824 
L 262.921433 176.594824 
L 262.931468 175.885553 
L 263.057017 175.885553 
L 263.064037 175.176282 
L 263.209836 175.176282 
L 263.297693 174.467012 
L 263.900706 174.467012 
L 263.966314 173.757741 
L 264.029866 173.757741 
L 264.031371 173.048471 
L 264.215836 173.048471 
L 264.215836 172.693835 
L 264.560305 172.693835 
L 264.560305 172.3392 
L 265.112272 172.3392 
L 265.164887 171.629929 
L 265.282158 171.629929 
L 265.282158 171.275294 
L 265.563259 171.275294 
L 265.563259 170.920659 
L 266.303752 170.920659 
L 266.343066 170.211388 
L 266.416523 170.211388 
L 266.416523 169.856753 
L 266.607079 169.856753 
L 266.607079 169.502118 
L 267.557718 169.502118 
L 267.557718 169.147482 
L 267.881279 169.147482 
L 267.93579 168.438212 
L 271.444578 168.438212 
L 271.444578 168.083576 
L 273.011827 168.083576 
L 273.038359 167.374306 
L 273.158215 167.374306 
L 273.158215 167.019671 
L 274.51443 167.019671 
L 274.51443 166.665035 
L 276.304417 166.665035 
L 276.304417 165.955765 
L 277.134736 165.955765 
L 277.154014 164.182588 
L 277.821057 164.182588 
L 277.821057 163.473318 
L 277.994042 163.473318 
L 277.994042 162.764047 
L 278.259912 162.764047 
L 278.259912 162.409412 
L 278.388569 162.409412 
L 278.474686 160.636235 
L 278.703556 160.636235 
L 278.746195 159.217694 
L 278.839896 159.217694 
L 278.898284 156.380612 
L 278.967674 156.380612 
L 279.056266 152.479624 
L 279.106124 152.479624 
L 279.210869 147.160094 
L 279.224874 147.160094 
L 279.312552 144.323012 
L 279.34407 144.323012 
L 279.443379 142.904471 
L 279.456076 142.904471 
L 279.506115 142.1952 
L 279.733861 142.1952 
L 279.786146 141.485929 
L 280.046654 141.485929 
L 280.046654 140.776659 
L 280.557762 140.776659 
L 280.557762 140.422024 
L 281.108127 140.422024 
L 281.132316 139.712753 
L 281.24074 139.712753 
L 281.28226 137.939576 
L 281.645966 137.939576 
L 281.665769 136.875671 
L 282.520116 136.875671 
L 282.551638 135.811765 
L 282.818576 135.811765 
L 282.886735 134.747859 
L 283.015146 134.747859 
L 283.015146 134.038588 
L 283.2441 134.038588 
L 283.289041 132.974682 
L 283.687877 132.974682 
L 283.732714 131.910776 
L 286.642093 131.910776 
L 286.713164 130.492235 
L 288.738287 130.492235 
L 288.738287 130.1376 
L 289.476117 130.1376 
L 289.537348 128.719059 
L 289.638721 128.719059 
L 289.728718 126.236612 
L 289.757006 126.236612 
L 289.859738 120.562447 
L 289.870032 120.562447 
L 289.97873 115.597553 
L 290.032628 115.597553 
L 290.068385 113.824376 
L 290.162441 113.824376 
L 290.198621 113.115106 
L 291.077262 113.115106 
L 291.082266 112.405835 
L 291.339368 112.405835 
L 291.377678 111.341929 
L 292.028489 111.341929 
L 292.028489 110.632659 
L 292.277995 110.632659 
L 292.31822 108.504847 
L 292.566014 108.504847 
L 292.566014 108.150212 
L 293.97546 108.150212 
L 293.97546 107.795576 
L 295.845547 107.795576 
L 295.845547 107.440941 
L 296.365744 107.440941 
L 296.418621 106.377035 
L 296.531576 106.377035 
L 296.613804 100.702871 
L 296.643267 100.702871 
L 296.751637 94.319435 
L 296.766984 94.319435 
L 296.766984 93.9648 
L 296.973801 93.9648 
L 297.009506 93.255529 
L 297.675094 93.255529 
L 297.675094 92.900894 
L 298.36441 92.900894 
L 298.442178 91.836988 
L 298.573254 91.836988 
L 298.59359 90.773082 
L 299.607768 90.773082 
L 299.607768 90.418447 
L 301.538054 90.418447 
L 301.639645 87.226729 
L 301.649167 87.226729 
L 301.703978 83.680376 
L 301.821346 83.680376 
L 301.821346 83.325741 
L 302.296262 83.325741 
L 302.296262 82.971106 
L 302.478208 82.971106 
L 302.478208 82.616471 
L 302.814536 82.616471 
L 302.814536 82.261835 
L 302.95557 82.261835 
L 302.962616 81.552565 
L 303.119383 81.552565 
L 303.119383 81.197929 
L 305.45921 81.197929 
L 305.561743 78.715482 
L 305.597673 78.715482 
L 305.645721 76.942306 
L 306.093159 76.942306 
L 306.093159 76.587671 
L 306.451984 76.587671 
L 306.451984 76.233035 
L 306.583242 76.233035 
L 306.583242 75.523765 
L 306.813431 75.523765 
L 306.813431 74.814494 
L 307.696884 74.814494 
L 307.696884 74.459859 
L 308.76358 74.459859 
L 308.871222 68.431059 
L 309.767531 68.431059 
L 309.767531 68.076424 
L 310.623222 68.076424 
L 310.623222 67.721788 
L 311.347584 67.721788 
L 311.347584 67.367153 
L 311.525843 67.367153 
L 311.621237 60.629082 
L 311.641889 60.629082 
L 311.641889 60.274447 
L 313.977414 60.274447 
L 314.040443 55.309553 
L 314.789126 55.309553 
L 314.789126 54.600282 
L 316.133778 54.600282 
L 316.181697 52.472471 
L 318.049128 52.472471 
L 318.084523 48.216847 
L 319.792562 48.216847 
L 319.828786 46.089035 
L 321.369755 46.089035 
L 321.396981 44.670494 
L 322.871858 44.670494 
L 322.888559 43.961224 
L 324.220966 43.961224 
L 324.241296 42.188047 
L 325.495855 42.188047 
L 325.516248 40.060235 
L 326.683714 40.060235 
L 326.690095 38.641694 
L 327.80369 38.641694 
L 327.81507 36.868518 
L 328.191785 36.868518 
L 328.191785 36.513882 
L 328.862556 36.513882 
L 328.883093 35.449976 
L 329.861527 35.449976 
L 329.882713 32.967529 
L 330.81174 32.967529 
L 330.820936 32.258259 
L 331.727362 32.258259 
L 331.727362 31.903624 
L 332.580808 31.903624 
L 332.580808 31.548988 
L 333.422689 31.548988 
L 333.422689 31.194353 
L 334.211718 31.194353 
L 334.211718 30.839718 
L 334.954605 30.839718 
L 334.954605 30.485082 
L 335.684407 30.485082 
L 335.684407 30.130447 
L 335.907518 30.130447 
L 335.907518 29.775812 
L 336.381047 29.775812 
L 336.391469 29.066541 
L 337.714557 29.066541 
L 337.714557 28.711906 
L 338.346981 28.711906 
L 338.353655 28.002635 
L 338.957547 28.002635 
L 338.957547 27.648 
L 360.8064 27.648 
L 360.8064 27.648 
" style="fill: none; stroke: #008000; stroke-width: 1.5; stroke-linecap: square"/>
   </g>
   <g id="line2d_36">
    <defs>
     <path id="mc156f0067c" d="M -0 6 
L 6 -6 
L -6 -6 
z
" style="stroke: #008000; stroke-width: 1.5; stroke-linejoin: miter"/>
    </defs>
    <g>
     <use xlink:href="#mc156f0067c" x="110.144579" y="259.934118" style="fill-opacity: 0; stroke: #008000; stroke-width: 1.5; stroke-linejoin: miter"/>
     <use xlink:href="#mc156f0067c" x="190.563288" y="241.847718" style="fill-opacity: 0; stroke: #008000; stroke-width: 1.5; stroke-linejoin: miter"/>
     <use xlink:href="#mc156f0067c" x="261.210298" y="176.949459" style="fill-opacity: 0; stroke: #008000; stroke-width: 1.5; stroke-linejoin: miter"/>
     <use xlink:href="#mc156f0067c" x="314.040443" y="55.664188" style="fill-opacity: 0; stroke: #008000; stroke-width: 1.5; stroke-linejoin: miter"/>
     <use xlink:href="#mc156f0067c" x="338.957547" y="27.648" style="fill-opacity: 0; stroke: #008000; stroke-width: 1.5; stroke-linejoin: miter"/>
     <use xlink:href="#mc156f0067c" x="360.8064" y="27.648" style="fill-opacity: 0; stroke: #008000; stroke-width: 1.5; stroke-linejoin: miter"/>
    </g>
   </g>
   <g id="line2d_37">
    <path style="fill: none; stroke: #008000; stroke-width: 1.5; stroke-linecap: square"/>
    <g/>
   </g>
   <g id="line2d_38">
    <path d="M 274.176 167.019671 
" clip-path="url(#pd05b44ce36)" style="fill: none; stroke: #008000; stroke-width: 1.5; stroke-linecap: square"/>
    <defs>
     <path id="md859fdac5b" d="M -12 12 
L 12 -12 
M -12 -12 
L 12 12 
" style="stroke: #008000"/>
    </defs>
    <g clip-path="url(#pd05b44ce36)">
     <use xlink:href="#md859fdac5b" x="274.176" y="167.019671" style="fill: #008000; stroke: #008000"/>
    </g>
   </g>
   <g id="line2d_39">
    <defs>
     <path id="m05f949d968" d="M 0 1.5 
C 0.397805 1.5 0.77937 1.341951 1.06066 1.06066 
C 1.341951 0.77937 1.5 0.397805 1.5 0 
C 1.5 -0.397805 1.341951 -0.77937 1.06066 -1.06066 
C 0.77937 -1.341951 0.397805 -1.5 0 -1.5 
C -0.397805 -1.5 -0.77937 -1.341951 -1.06066 -1.06066 
C -1.341951 -0.77937 -1.5 -0.397805 -1.5 0 
C -1.5 0.397805 -1.341951 0.77937 -1.06066 1.06066 
C -0.77937 1.341951 -0.397805 1.5 0 1.5 
z
" style="stroke: #0000ff"/>
    </defs>
    <g>
     <use xlink:href="#m05f949d968" x="346.722839" y="192.553412" style="fill: #0000ff; stroke: #0000ff"/>
     <use xlink:href="#m05f949d968" x="346.722839" y="192.553412" style="fill: #0000ff; stroke: #0000ff"/>
    </g>
   </g>
   <g id="line2d_40">
    <path d="M 27.323974 298.944 
L 27.323974 275.892706 
L 40.363149 275.892706 
L 40.363149 271.637082 
L 47.990577 271.637082 
L 47.990577 269.154635 
L 53.402323 269.154635 
L 53.402323 267.026824 
L 57.6 267.026824 
L 57.6 266.672188 
L 61.029752 266.672188 
L 61.029752 266.317553 
L 68.65718 266.317553 
L 68.65718 265.253647 
L 70.639174 265.253647 
L 70.639174 264.899012 
L 75.574654 264.899012 
L 75.574654 264.189741 
L 78.266603 264.189741 
L 78.266603 263.835106 
L 79.480672 263.835106 
L 79.480672 263.480471 
L 83.678349 263.480471 
L 83.678349 263.125835 
L 87.1081 263.125835 
L 87.1081 262.7712 
L 88.613828 262.7712 
L 88.613828 262.416565 
L 89.323782 262.416565 
L 89.323782 261.352659 
L 90.007914 261.352659 
L 90.007914 260.998024 
L 92.519847 260.998024 
L 92.519847 260.288753 
L 95.250946 260.288753 
L 95.250946 259.934118 
L 97.18203 259.934118 
L 97.18203 259.579482 
L 99.751228 259.579482 
L 99.751228 258.515576 
L 100.147275 258.515576 
L 100.147275 258.160941 
L 100.535156 258.160941 
L 100.535156 257.806306 
L 103.047088 257.806306 
L 103.047088 257.451671 
L 103.707211 257.451671 
L 103.707211 256.7424 
L 104.028784 256.7424 
L 104.028784 256.387765 
L 107.244765 256.387765 
L 107.244765 256.033129 
L 113.186449 256.033129 
L 113.186449 255.678494 
L 115.227139 255.678494 
L 115.227139 255.323859 
L 116.419219 255.323859 
L 116.419219 254.969224 
L 121.581803 254.969224 
L 121.581803 254.614588 
L 122.076872 254.614588 
L 122.076872 254.259953 
L 122.913079 254.259953 
L 122.913079 253.550682 
L 128.871795 253.550682 
L 128.871795 253.196047 
L 136.242113 253.196047 
L 136.242113 252.486776 
L 141.48048 252.486776 
L 141.48048 252.132141 
L 147.022411 252.132141 
L 147.119461 251.422871 
L 149.107908 251.422871 
L 149.107908 251.068235 
L 150.533072 251.068235 
L 150.533072 250.7136 
L 151.168122 250.7136 
L 151.168122 250.358965 
L 158.471883 250.358965 
L 158.471883 250.004329 
L 164.427166 250.004329 
L 164.427166 249.649694 
L 168.137692 249.649694 
L 168.137692 249.295059 
L 170.129185 249.295059 
L 170.129185 248.940424 
L 170.336945 248.940424 
L 170.336945 248.585788 
L 170.955893 248.585788 
L 170.955893 248.231153 
L 173.422332 248.231153 
L 173.422332 247.876518 
L 173.620559 247.876518 
L 173.620559 247.521882 
L 173.886839 247.521882 
L 173.886839 247.167247 
L 174.149402 247.167247 
L 174.149402 246.812612 
L 175.616746 246.812612 
L 175.616746 246.457976 
L 175.821337 246.457976 
L 175.821337 246.103341 
L 177.524113 246.103341 
L 177.524113 245.748706 
L 178.339408 245.748706 
L 178.339408 245.394071 
L 179.842775 245.394071 
L 179.842775 245.039435 
L 180.846737 245.039435 
L 180.846737 244.6848 
L 181.651154 244.6848 
L 181.651154 244.330165 
L 183.558372 244.330165 
L 183.558372 243.975529 
L 183.894836 243.975529 
L 183.894836 243.620894 
L 186.087155 243.620894 
L 186.087155 243.266259 
L 186.329524 243.266259 
L 186.329524 242.911624 
L 193.235571 242.911624 
L 193.235571 242.556988 
L 196.918016 242.556988 
L 196.918016 242.202353 
L 197.061485 242.202353 
L 197.061485 241.847718 
L 199.448798 241.847718 
L 199.448798 241.493082 
L 200.277532 241.493082 
L 200.277532 241.138447 
L 201.776492 241.138447 
L 201.776492 240.783812 
L 202.505532 240.783812 
L 202.505532 240.429176 
L 203.934407 240.429176 
L 203.934407 240.074541 
L 208.09647 240.074541 
L 208.09647 239.719906 
L 209.23721 239.719906 
L 209.23721 239.365271 
L 209.489654 239.365271 
L 209.489654 239.010635 
L 210.208113 239.010635 
L 210.309347 238.301365 
L 215.904731 238.301365 
L 215.904731 237.946729 
L 216.855927 237.946729 
L 216.855927 237.592094 
L 225.913805 237.592094 
L 225.913805 237.237459 
L 233.680359 237.237459 
L 233.680359 236.528188 
L 233.892583 236.528188 
L 233.892583 236.173553 
L 242.692525 236.173553 
L 242.692525 235.818918 
L 247.158548 235.818918 
L 247.158548 235.464282 
L 247.343829 235.464282 
L 247.435712 234.755012 
L 247.691944 234.755012 
L 247.691944 234.400376 
L 249.141888 234.400376 
L 249.141888 234.045741 
L 249.481619 234.045741 
L 249.481619 233.691106 
L 249.755202 233.691106 
L 249.830839 232.981835 
L 251.510716 232.981835 
L 251.510716 232.6272 
L 255.226624 232.6272 
L 255.226624 232.272565 
L 258.615001 232.272565 
L 258.615001 231.917929 
L 261.931122 231.917929 
L 261.931122 231.563294 
L 265.228498 231.563294 
L 265.274813 230.499388 
L 265.462586 230.499388 
L 265.462586 230.144753 
L 273.682437 230.144753 
L 273.682437 229.790118 
L 274.327573 229.790118 
L 274.327573 229.435482 
L 274.572626 229.435482 
L 274.572626 229.080847 
L 274.762705 229.080847 
L 274.793277 228.371576 
L 276.243449 228.371576 
L 276.243449 227.307671 
L 278.189569 227.307671 
L 278.189569 226.953035 
L 278.658736 226.953035 
L 278.733325 225.889129 
L 279.10763 225.889129 
L 279.10763 225.179859 
L 282.071938 225.179859 
L 282.071938 224.115953 
L 283.268456 224.115953 
L 283.358522 223.052047 
L 286.970012 223.052047 
L 286.970012 222.697412 
L 287.510814 222.697412 
L 287.510814 222.342776 
L 287.656708 222.342776 
L 287.656708 221.988141 
L 289.358447 221.988141 
L 289.386207 221.278871 
L 289.631509 221.278871 
L 289.631509 220.5696 
L 292.305485 220.5696 
L 292.361245 218.796424 
L 294.679516 218.796424 
L 294.679516 218.441788 
L 294.980984 218.441788 
L 294.980984 218.087153 
L 296.317431 218.087153 
L 296.317431 217.732518 
L 296.48115 217.732518 
L 296.48115 217.377882 
L 296.634019 217.377882 
L 296.634019 217.023247 
L 297.857961 217.023247 
L 297.857961 216.668612 
L 298.392261 216.668612 
L 298.392261 216.313976 
L 301.371168 216.313976 
L 301.371168 215.959341 
L 301.613649 215.959341 
L 301.613649 215.604706 
L 301.897882 215.604706 
L 301.897882 215.250071 
L 302.55996 215.250071 
L 302.55996 214.5408 
L 302.976359 214.5408 
L 302.976359 213.831529 
L 305.54721 213.831529 
L 305.54721 213.476894 
L 306.660235 213.476894 
L 306.681982 212.058353 
L 307.980841 212.058353 
L 307.980841 211.703718 
L 309.735856 211.703718 
L 309.757951 210.285176 
L 312.381729 210.285176 
L 312.400927 209.575906 
L 313.232532 209.575906 
L 313.232532 209.221271 
L 313.399407 209.221271 
L 313.399407 208.866635 
L 314.700931 208.866635 
L 314.70372 208.157365 
L 316.765334 208.157365 
L 316.780543 207.093459 
L 319.747184 207.093459 
L 319.747184 206.738824 
L 320.320094 206.738824 
L 320.320094 206.029553 
L 321.870824 206.029553 
L 321.870824 205.674918 
L 322.389169 205.674918 
L 322.389169 205.320282 
L 322.855482 205.320282 
L 322.855482 204.611012 
L 323.305163 204.611012 
L 323.305163 204.256376 
L 324.639487 204.256376 
L 324.639487 203.901741 
L 325.490819 203.901741 
L 325.490819 203.547106 
L 325.891693 203.547106 
L 325.891693 202.837835 
L 326.681842 202.837835 
L 326.681842 202.128565 
L 327.049561 202.128565 
L 327.051295 201.064659 
L 328.859048 201.064659 
L 328.859048 200.710024 
L 329.188475 200.710024 
L 329.188475 200.000753 
L 330.172411 200.000753 
L 330.178402 199.291482 
L 331.107431 199.291482 
L 331.113131 198.227576 
L 331.996836 198.227576 
L 332.003605 197.518306 
L 332.57787 197.518306 
L 332.57787 197.163671 
L 332.848418 197.163671 
L 332.853826 196.099765 
L 335.681477 196.099765 
L 335.681477 195.745129 
L 336.603905 195.745129 
L 336.603905 195.390494 
L 337.278028 195.390494 
L 337.278028 195.035859 
L 337.919919 195.035859 
L 337.919919 194.681224 
L 339.148794 194.681224 
L 339.148794 194.326588 
L 340.853068 194.326588 
L 340.853068 193.971953 
L 341.392827 193.971953 
L 341.392827 193.617318 
L 345.200615 193.617318 
L 345.200615 193.262682 
L 345.626869 193.262682 
L 345.626869 192.908047 
L 346.722839 192.908047 
L 346.722839 192.553412 
L 360.8064 192.553412 
L 360.8064 192.553412 
" style="fill: none; stroke: #0000ff; stroke-width: 1.5; stroke-linecap: square"/>
   </g>
   <g id="line2d_41">
    <defs>
     <path id="me92f80a434" d="M 0 -6 
L -1.347084 -1.854102 
L -5.706339 -1.854102 
L -2.179628 0.708204 
L -3.526712 4.854102 
L -0 2.291796 
L 3.526712 4.854102 
L 2.179628 0.708204 
L 5.706339 -1.854102 
L 1.347084 -1.854102 
z
" style="stroke: #0000ff; stroke-width: 1.5; stroke-linejoin: bevel"/>
    </defs>
    <g>
     <use xlink:href="#me92f80a434" x="122.913079" y="253.550682" style="fill-opacity: 0; stroke: #0000ff; stroke-width: 1.5; stroke-linejoin: bevel"/>
     <use xlink:href="#me92f80a434" x="216.855927" y="237.946729" style="fill-opacity: 0; stroke: #0000ff; stroke-width: 1.5; stroke-linejoin: bevel"/>
     <use xlink:href="#me92f80a434" x="287.656708" y="222.342776" style="fill-opacity: 0; stroke: #0000ff; stroke-width: 1.5; stroke-linejoin: bevel"/>
     <use xlink:href="#me92f80a434" x="341.392827" y="193.617318" style="fill-opacity: 0; stroke: #0000ff; stroke-width: 1.5; stroke-linejoin: bevel"/>
     <use xlink:href="#me92f80a434" x="346.722839" y="192.553412" style="fill-opacity: 0; stroke: #0000ff; stroke-width: 1.5; stroke-linejoin: bevel"/>
     <use xlink:href="#me92f80a434" x="360.8064" y="192.553412" style="fill-opacity: 0; stroke: #0000ff; stroke-width: 1.5; stroke-linejoin: bevel"/>
    </g>
   </g>
   <g id="line2d_42">
    <path style="fill: none; stroke: #0000ff; stroke-width: 1.5; stroke-linecap: square"/>
    <g/>
   </g>
   <g id="line2d_43">
    <path d="M 274.176 229.790118 
" clip-path="url(#pd05b44ce36)" style="fill: none; stroke: #0000ff; stroke-width: 1.5; stroke-linecap: square"/>
    <defs>
     <path id="m428ffaae0f" d="M -12 12 
L 12 -12 
M -12 -12 
L 12 12 
" style="stroke: #0000ff"/>
    </defs>
    <g clip-path="url(#pd05b44ce36)">
     <use xlink:href="#m428ffaae0f" x="274.176" y="229.790118" style="fill: #0000ff; stroke: #0000ff"/>
    </g>
   </g>
   <g id="line2d_44">
    <defs>
     <path id="mf83d2aacb3" d="M 0 1.5 
C 0.397805 1.5 0.77937 1.341951 1.06066 1.06066 
C 1.341951 0.77937 1.5 0.397805 1.5 0 
C 1.5 -0.397805 1.341951 -0.77937 1.06066 -1.06066 
C 0.77937 -1.341951 0.397805 -1.5 0 -1.5 
C -0.397805 -1.5 -0.77937 -1.341951 -1.06066 -1.06066 
C -1.341951 -0.77937 -1.5 -0.397805 -1.5 0 
C -1.5 0.397805 -1.341951 0.77937 -1.06066 1.06066 
C -0.77937 1.341951 -0.397805 1.5 0 1.5 
z
" style="stroke: #000000"/>
    </defs>
    <g>
     <use xlink:href="#mf83d2aacb3" x="349.646974" y="219.151059" style="stroke: #000000"/>
     <use xlink:href="#mf83d2aacb3" x="349.646974" y="219.151059" style="stroke: #000000"/>
    </g>
   </g>
   <g id="line2d_45">
    <path d="M 14.2848 298.944 
L 14.2848 273.410259 
L 27.323974 273.410259 
L 27.323974 270.573176 
L 34.951403 270.573176 
L 34.951403 269.509271 
L 47.990577 269.509271 
L 47.990577 267.736094 
L 50.890391 267.736094 
L 50.890391 266.317553 
L 53.402323 266.317553 
L 53.402323 265.253647 
L 55.618005 265.253647 
L 55.618005 264.899012 
L 57.6 264.899012 
L 57.6 264.544376 
L 59.392932 264.544376 
L 59.392932 264.189741 
L 69.674268 264.189741 
L 69.674268 263.125835 
L 70.639174 263.125835 
L 70.639174 262.061929 
L 74.836851 262.061929 
L 74.836851 261.707294 
L 76.284608 261.707294 
L 76.284608 261.352659 
L 80.059535 261.352659 
L 80.059535 260.998024 
L 80.621116 260.998024 
L 80.621116 260.643388 
L 86.307488 260.643388 
L 86.307488 260.288753 
L 94.995002 260.288753 
L 94.995002 259.934118 
L 98.933205 259.934118 
L 98.933205 259.224847 
L 106.560633 259.224847 
L 106.560633 258.870212 
L 107.774703 258.870212 
L 107.774703 258.515576 
L 110.221204 258.515576 
L 110.221204 257.806306 
L 114.961559 257.806306 
L 114.961559 257.451671 
L 119.034004 257.451671 
L 119.034004 257.097035 
L 124.642171 257.097035 
L 124.642171 256.7424 
L 124.801367 256.7424 
L 124.801367 256.387765 
L 125.526971 256.387765 
L 125.526971 256.033129 
L 128.743679 256.033129 
L 128.743679 255.678494 
L 131.820186 255.678494 
L 131.820186 255.323859 
L 132.743202 255.323859 
L 132.743202 254.969224 
L 133.188264 254.969224 
L 133.188264 254.614588 
L 137.998402 254.614588 
L 137.998402 254.259953 
L 139.411192 254.259953 
L 139.411192 253.905318 
L 142.01707 253.905318 
L 142.01707 253.196047 
L 142.60042 253.196047 
L 142.60042 252.841412 
L 143.984246 252.841412 
L 143.984246 252.486776 
L 144.768174 252.486776 
L 144.768174 252.132141 
L 146.412609 252.132141 
L 146.412609 251.777506 
L 148.44312 251.777506 
L 148.44312 251.422871 
L 150.262008 251.422871 
L 150.262008 251.068235 
L 154.311669 251.068235 
L 154.311669 250.7136 
L 156.511445 250.7136 
L 156.511445 250.358965 
L 157.09001 250.358965 
L 157.09001 250.004329 
L 159.824959 250.004329 
L 159.890533 249.295059 
L 161.110227 249.295059 
L 161.110227 248.940424 
L 163.109086 248.940424 
L 163.109086 248.585788 
L 164.272231 248.585788 
L 164.272231 248.231153 
L 165.96353 248.231153 
L 165.96353 247.521882 
L 168.258701 247.521882 
L 168.258701 247.167247 
L 170.486615 247.167247 
L 170.486615 246.812612 
L 171.231046 246.812612 
L 171.231046 246.457976 
L 171.621029 246.457976 
L 171.621029 246.103341 
L 173.003206 246.103341 
L 173.003206 245.748706 
L 174.187707 245.748706 
L 174.187707 245.394071 
L 176.302778 245.394071 
L 176.302778 245.039435 
L 177.533725 245.039435 
L 177.533725 244.6848 
L 179.992331 244.6848 
L 179.992331 244.330165 
L 182.373113 244.330165 
L 182.373113 243.975529 
L 183.945019 243.975529 
L 183.945019 243.620894 
L 184.81309 243.620894 
L 184.81309 243.266259 
L 185.868378 243.266259 
L 185.927925 242.556988 
L 187.91074 242.556988 
L 187.91074 242.202353 
L 192.032989 242.202353 
L 192.032989 241.847718 
L 193.118434 241.847718 
L 193.118434 241.493082 
L 203.77393 241.493082 
L 203.77393 241.138447 
L 204.688157 241.138447 
L 204.688157 240.783812 
L 207.610752 240.783812 
L 207.610752 240.429176 
L 209.487897 240.429176 
L 209.487897 240.074541 
L 209.882174 240.074541 
L 209.882174 239.719906 
L 220.232599 239.719906 
L 220.232599 239.365271 
L 236.508184 239.365271 
L 236.508184 239.010635 
L 236.683478 239.010635 
L 236.683478 238.656 
L 237.142469 238.656 
L 237.142469 238.301365 
L 237.458127 238.301365 
L 237.458127 237.946729 
L 244.218285 237.946729 
L 244.218285 237.592094 
L 244.668682 237.592094 
L 244.668682 237.237459 
L 244.856094 237.237459 
L 244.856094 236.882824 
L 245.132259 236.882824 
L 245.132259 236.528188 
L 245.310681 236.528188 
L 245.310681 236.173553 
L 248.426964 236.173553 
L 248.426964 235.818918 
L 257.389197 235.818918 
L 257.389197 235.464282 
L 258.194192 235.464282 
L 258.194192 235.109647 
L 259.264994 235.109647 
L 259.264994 234.755012 
L 260.493388 234.755012 
L 260.493388 234.400376 
L 273.824516 234.400376 
L 273.824516 234.045741 
L 274.254862 234.045741 
L 274.318353 233.336471 
L 274.714798 233.336471 
L 274.714798 232.981835 
L 276.673934 232.981835 
L 276.673934 232.6272 
L 278.440002 232.6272 
L 278.440002 232.272565 
L 280.635253 232.272565 
L 280.635253 231.563294 
L 281.199945 231.563294 
L 281.199945 231.208659 
L 287.254647 231.208659 
L 287.254647 230.854024 
L 287.486503 230.854024 
L 287.486503 230.499388 
L 287.742315 230.499388 
L 287.742315 230.144753 
L 289.123529 230.144753 
L 289.123529 229.790118 
L 290.720686 229.790118 
L 290.720686 229.435482 
L 291.285912 229.435482 
L 291.285912 229.080847 
L 295.698474 229.080847 
L 295.698474 228.726212 
L 296.373868 228.726212 
L 296.373868 227.662306 
L 297.250625 227.662306 
L 297.250625 227.307671 
L 300.297317 227.307671 
L 300.297317 226.953035 
L 300.899875 226.953035 
L 300.899875 226.5984 
L 302.088643 226.5984 
L 302.088643 226.243765 
L 302.399615 226.243765 
L 302.399615 225.889129 
L 304.978854 225.889129 
L 304.978854 225.534494 
L 305.238747 225.534494 
L 305.238747 225.179859 
L 308.321819 225.179859 
L 308.321819 224.825224 
L 308.539642 224.825224 
L 308.539642 224.470588 
L 308.662986 224.470588 
L 308.662986 224.115953 
L 311.453165 224.115953 
L 311.453165 223.761318 
L 312.037236 223.761318 
L 312.037236 223.406682 
L 313.789066 223.406682 
L 313.789066 223.052047 
L 316.033599 223.052047 
L 316.033599 222.697412 
L 317.756458 222.697412 
L 317.756458 222.342776 
L 317.879097 222.342776 
L 317.963807 221.633506 
L 319.714263 221.633506 
L 319.714263 221.278871 
L 326.629466 221.278871 
L 326.629466 220.924235 
L 327.707965 220.924235 
L 327.707965 220.5696 
L 334.918521 220.5696 
L 334.918521 220.214965 
L 339.520842 220.214965 
L 339.520842 219.860329 
L 349.303403 219.860329 
L 349.303403 219.505694 
L 349.646974 219.505694 
L 349.646974 219.151059 
L 360.8064 219.151059 
L 360.8064 219.151059 
" style="fill: none; stroke: #000000; stroke-width: 1.5; stroke-linecap: square"/>
   </g>
   <g id="line2d_46">
    <defs>
     <path id="m2def78ab9d" d="M 0 6 
C 1.591219 6 3.117479 5.367802 4.242641 4.242641 
C 5.367802 3.117479 6 1.591219 6 0 
C 6 -1.591219 5.367802 -3.117479 4.242641 -4.242641 
C 3.117479 -5.367802 1.591219 -6 0 -6 
C -1.591219 -6 -3.117479 -5.367802 -4.242641 -4.242641 
C -5.367802 -3.117479 -6 -1.591219 -6 0 
C -6 1.591219 -5.367802 3.117479 -4.242641 4.242641 
C -3.117479 5.367802 -1.591219 6 0 6 
z
" style="stroke: #000000; stroke-width: 1.5"/>
    </defs>
    <g>
     <use xlink:href="#m2def78ab9d" x="98.933205" y="259.224847" style="fill-opacity: 0; stroke: #000000; stroke-width: 1.5"/>
     <use xlink:href="#m2def78ab9d" x="209.882174" y="240.074541" style="fill-opacity: 0; stroke: #000000; stroke-width: 1.5"/>
     <use xlink:href="#m2def78ab9d" x="260.493388" y="234.400376" style="fill-opacity: 0; stroke: #000000; stroke-width: 1.5"/>
     <use xlink:href="#m2def78ab9d" x="349.646974" y="219.151059" style="fill-opacity: 0; stroke: #000000; stroke-width: 1.5"/>
     <use xlink:href="#m2def78ab9d" x="349.646974" y="219.151059" style="fill-opacity: 0; stroke: #000000; stroke-width: 1.5"/>
     <use xlink:href="#m2def78ab9d" x="360.8064" y="219.151059" style="fill-opacity: 0; stroke: #000000; stroke-width: 1.5"/>
    </g>
   </g>
   <g id="line2d_47">
    <path style="fill: none; stroke: #000000; stroke-width: 1.5; stroke-linecap: square"/>
    <g/>
   </g>
   <g id="line2d_48">
    <path d="M 274.176 234.045741 
" clip-path="url(#pd05b44ce36)" style="fill: none; stroke: #000000; stroke-width: 1.5; stroke-linecap: square"/>
    <defs>
     <path id="m63bff54be3" d="M -12 12 
L 12 -12 
M -12 -12 
L 12 12 
" style="stroke: #000000"/>
    </defs>
    <g clip-path="url(#pd05b44ce36)">
     <use xlink:href="#m63bff54be3" x="274.176" y="234.045741" style="stroke: #000000"/>
    </g>
   </g>
   <g id="line2d_49">
    <defs>
     <path id="md6914920eb" d="M 0 1.5 
C 0.397805 1.5 0.77937 1.341951 1.06066 1.06066 
C 1.341951 0.77937 1.5 0.397805 1.5 0 
C 1.5 -0.397805 1.341951 -0.77937 1.06066 -1.06066 
C 0.77937 -1.341951 0.397805 -1.5 0 -1.5 
C -0.397805 -1.5 -0.77937 -1.341951 -1.06066 -1.06066 
C -1.341951 -0.77937 -1.5 -0.397805 -1.5 0 
C -1.5 0.397805 -1.341951 0.77937 -1.06066 1.06066 
C -0.77937 1.341951 -0.397805 1.5 0 1.5 
z
" style="stroke: #ff0000"/>
    </defs>
    <g>
     <use xlink:href="#md6914920eb" x="354.523417" y="229.790118" style="fill: #ff0000; stroke: #ff0000"/>
     <use xlink:href="#md6914920eb" x="354.523417" y="229.790118" style="fill: #ff0000; stroke: #ff0000"/>
    </g>
   </g>
   <g id="line2d_50">
    <path d="M 1.245626 298.944 
L 1.245626 273.410259 
L 14.2848 273.410259 
L 14.2848 271.991718 
L 21.912228 271.991718 
L 21.912228 270.573176 
L 27.323974 270.573176 
L 27.323974 269.154635 
L 31.521651 269.154635 
L 31.521651 267.381459 
L 34.951403 267.381459 
L 34.951403 267.026824 
L 49.496305 267.026824 
L 49.496305 266.672188 
L 52.188254 266.672188 
L 52.188254 265.608282 
L 53.402323 265.608282 
L 53.402323 265.253647 
L 70.639174 265.253647 
L 70.639174 264.899012 
L 74.456807 264.899012 
L 74.456807 264.189741 
L 75.209369 264.189741 
L 75.209369 263.835106 
L 77.628862 263.835106 
L 77.628862 263.480471 
L 80.621116 263.480471 
L 80.621116 263.125835 
L 81.955828 263.125835 
L 81.955828 262.7712 
L 89.14879 262.7712 
L 89.14879 262.061929 
L 90.505165 262.061929 
L 90.505165 261.707294 
L 90.989609 261.707294 
L 90.989609 261.352659 
L 94.604437 261.352659 
L 94.604437 260.998024 
L 99.550033 260.998024 
L 99.550033 260.643388 
L 117.1475 260.643388 
L 117.1475 260.288753 
L 117.305581 260.288753 
L 117.305581 259.934118 
L 118.74459 259.934118 
L 118.74459 259.579482 
L 120.976468 259.579482 
L 120.976468 259.224847 
L 124.562065 259.224847 
L 124.562065 258.870212 
L 124.959227 258.870212 
L 124.959227 258.515576 
L 125.501533 258.515576 
L 125.501533 258.160941 
L 126.347698 258.160941 
L 126.347698 257.806306 
L 127.319904 257.806306 
L 127.319904 257.451671 
L 131.801984 257.451671 
L 131.801984 257.097035 
L 133.423621 257.097035 
L 133.423621 256.7424 
L 134.352574 256.7424 
L 134.384351 256.033129 
L 134.761537 256.033129 
L 134.761537 255.678494 
L 135.433996 255.678494 
L 135.433996 255.323859 
L 136.25649 255.323859 
L 136.25649 254.969224 
L 140.984104 254.969224 
L 140.984104 254.614588 
L 142.363015 254.614588 
L 142.363015 254.259953 
L 142.487252 254.259953 
L 142.487252 253.905318 
L 143.491845 253.905318 
L 143.491845 253.550682 
L 154.768388 253.550682 
L 154.768388 253.196047 
L 156.521235 253.196047 
L 156.521235 252.841412 
L 157.123217 252.841412 
L 157.123217 252.486776 
L 160.585328 252.486776 
L 160.585328 252.132141 
L 161.55733 252.132141 
L 161.55733 251.777506 
L 166.512385 251.777506 
L 166.512385 251.422871 
L 168.015899 251.422871 
L 168.015899 251.068235 
L 168.219327 251.068235 
L 168.219327 250.7136 
L 168.915748 250.7136 
L 168.925874 250.004329 
L 173.250171 250.004329 
L 173.250171 249.649694 
L 175.278564 249.649694 
L 175.278564 249.295059 
L 178.587865 249.295059 
L 178.587865 248.940424 
L 180.226955 248.940424 
L 180.226955 248.585788 
L 180.424384 248.585788 
L 180.424384 248.231153 
L 181.564747 248.231153 
L 181.564747 247.876518 
L 183.899404 247.876518 
L 183.899404 247.521882 
L 185.990349 247.521882 
L 185.990349 247.167247 
L 187.89782 247.167247 
L 187.89782 246.812612 
L 189.856353 246.812612 
L 189.856353 246.457976 
L 198.033027 246.457976 
L 198.033027 246.103341 
L 199.79283 246.103341 
L 199.79283 245.748706 
L 200.089203 245.748706 
L 200.089203 245.394071 
L 200.469199 245.394071 
L 200.469199 245.039435 
L 202.865557 245.039435 
L 202.865557 244.6848 
L 203.169695 244.6848 
L 203.169695 244.330165 
L 204.958081 244.330165 
L 204.958081 243.975529 
L 205.621275 243.975529 
L 205.621275 243.620894 
L 205.957564 243.620894 
L 205.957564 243.266259 
L 210.809144 243.266259 
L 210.809144 242.911624 
L 225.037246 242.911624 
L 225.037246 242.556988 
L 240.027728 242.556988 
L 240.027728 242.202353 
L 248.397105 242.202353 
L 248.397105 241.847718 
L 248.787931 241.847718 
L 248.787931 241.493082 
L 248.990586 241.493082 
L 248.990586 241.138447 
L 252.744705 241.138447 
L 252.744705 240.783812 
L 264.743403 240.783812 
L 264.743403 240.429176 
L 267.604803 240.429176 
L 267.604803 240.074541 
L 270.895459 240.074541 
L 270.92625 239.365271 
L 272.833807 239.365271 
L 272.833807 239.010635 
L 273.486362 239.010635 
L 273.486362 238.656 
L 274.812981 238.656 
L 274.812981 238.301365 
L 278.555687 238.301365 
L 278.555687 237.946729 
L 279.399468 237.946729 
L 279.399468 237.237459 
L 283.084002 237.237459 
L 283.084002 236.173553 
L 285.660388 236.173553 
L 285.660388 235.818918 
L 288.687231 235.818918 
L 288.687231 235.464282 
L 289.53219 235.464282 
L 289.53219 234.755012 
L 299.493014 234.755012 
L 299.493014 234.400376 
L 303.845443 234.400376 
L 303.845443 234.045741 
L 304.191139 234.045741 
L 304.191139 233.691106 
L 309.690853 233.691106 
L 309.690853 233.336471 
L 312.342637 233.336471 
L 312.342637 232.272565 
L 321.847228 232.272565 
L 321.847228 231.917929 
L 323.283301 231.917929 
L 323.283301 231.563294 
L 324.617476 231.563294 
L 324.617476 231.208659 
L 325.863262 231.208659 
L 325.863262 230.854024 
L 330.155768 230.854024 
L 330.155768 230.499388 
L 335.178359 230.499388 
L 335.178359 230.144753 
L 354.523417 230.144753 
L 354.523417 229.790118 
L 360.8064 229.790118 
L 360.8064 229.790118 
" style="fill: none; stroke: #ff0000; stroke-width: 1.5; stroke-linecap: square"/>
   </g>
   <g id="line2d_51">
    <defs>
     <path id="mf43c8f2ec9" d="M -6 6 
L 6 6 
L 6 -6 
L -6 -6 
z
" style="stroke: #ff0000; stroke-width: 1.5; stroke-linejoin: miter"/>
    </defs>
    <g>
     <use xlink:href="#mf43c8f2ec9" x="70.639174" y="264.899012" style="fill-opacity: 0; stroke: #ff0000; stroke-width: 1.5; stroke-linejoin: miter"/>
     <use xlink:href="#mf43c8f2ec9" x="161.55733" y="251.777506" style="fill-opacity: 0; stroke: #ff0000; stroke-width: 1.5; stroke-linejoin: miter"/>
     <use xlink:href="#mf43c8f2ec9" x="252.744705" y="241.138447" style="fill-opacity: 0; stroke: #ff0000; stroke-width: 1.5; stroke-linejoin: miter"/>
     <use xlink:href="#mf43c8f2ec9" x="330.155768" y="230.499388" style="fill-opacity: 0; stroke: #ff0000; stroke-width: 1.5; stroke-linejoin: miter"/>
     <use xlink:href="#mf43c8f2ec9" x="354.523417" y="229.790118" style="fill-opacity: 0; stroke: #ff0000; stroke-width: 1.5; stroke-linejoin: miter"/>
     <use xlink:href="#mf43c8f2ec9" x="360.8064" y="229.790118" style="fill-opacity: 0; stroke: #ff0000; stroke-width: 1.5; stroke-linejoin: miter"/>
    </g>
   </g>
   <g id="line2d_52">
    <path style="fill: none; stroke: #ff0000; stroke-width: 1.5; stroke-linecap: square"/>
    <g/>
   </g>
   <g id="line2d_53">
    <path d="M 274.176 238.656 
" clip-path="url(#pd05b44ce36)" style="fill: none; stroke: #ff0000; stroke-width: 1.5; stroke-linecap: square"/>
    <defs>
     <path id="m6b38aa338b" d="M -12 12 
L 12 -12 
M -12 -12 
L 12 12 
" style="stroke: #ff0000"/>
    </defs>
    <g clip-path="url(#pd05b44ce36)">
     <use xlink:href="#m6b38aa338b" x="274.176" y="238.656" style="fill: #ff0000; stroke: #ff0000"/>
    </g>
   </g>
   <g id="line2d_54">
    <defs>
     <path id="m3adaec61a8" d="M 0 1.5 
C 0.397805 1.5 0.77937 1.341951 1.06066 1.06066 
C 1.341951 0.77937 1.5 0.397805 1.5 0 
C 1.5 -0.397805 1.341951 -0.77937 1.06066 -1.06066 
C 0.77937 -1.341951 0.397805 -1.5 0 -1.5 
C -0.397805 -1.5 -0.77937 -1.341951 -1.06066 -1.06066 
C -1.341951 -0.77937 -1.5 -0.397805 -1.5 0 
C -1.5 0.397805 -1.341951 0.77937 -1.06066 1.06066 
C -0.77937 1.341951 -0.397805 1.5 0 1.5 
z
" style="stroke: #bf00bf"/>
    </defs>
    <g>
     <use xlink:href="#m3adaec61a8" x="304.821609" y="240.429176" style="fill: #bf00bf; stroke: #bf00bf"/>
     <use xlink:href="#m3adaec61a8" x="304.821609" y="240.429176" style="fill: #bf00bf; stroke: #bf00bf"/>
    </g>
   </g>
   <g id="line2d_55">
    <path d="M -1 273.764894 
L 1.245626 273.764894 
L 1.245626 271.637082 
L 8.873054 271.637082 
L 8.873054 271.282447 
L 14.2848 271.282447 
L 14.2848 269.863906 
L 18.482477 269.863906 
L 18.482477 269.509271 
L 21.912228 269.509271 
L 21.912228 269.154635 
L 29.539656 269.154635 
L 29.539656 268.8 
L 33.314583 268.8 
L 33.314583 268.445365 
L 39.149079 268.445365 
L 39.149079 268.090729 
L 42.578831 268.090729 
L 42.578831 267.736094 
L 44.560826 267.736094 
L 44.560826 267.381459 
L 50.890391 267.381459 
L 50.890391 267.026824 
L 53.981186 267.026824 
L 53.981186 266.672188 
L 74.263866 266.672188 
L 74.263866 266.317553 
L 74.456807 266.317553 
L 74.456807 265.962918 
L 75.024032 265.962918 
L 75.024032 265.608282 
L 77.301696 265.608282 
L 77.301696 265.253647 
L 79.034528 265.253647 
L 79.034528 264.899012 
L 80.621116 264.899012 
L 80.621116 264.544376 
L 82.589273 264.544376 
L 82.589273 264.189741 
L 83.912036 264.189741 
L 83.912036 263.480471 
L 101.148887 263.480471 
L 101.148887 263.125835 
L 111.81496 263.125835 
L 111.81496 262.7712 
L 112.815401 262.7712 
L 112.815401 262.416565 
L 116.232657 262.416565 
L 116.232657 262.061929 
L 117.962989 262.061929 
L 117.962989 261.707294 
L 120.64987 261.707294 
L 120.64987 261.352659 
L 123.073054 261.352659 
L 123.073054 260.998024 
L 126.745013 260.998024 
L 126.745013 260.643388 
L 130.067235 260.643388 
L 130.067235 260.288753 
L 131.12527 260.288753 
L 131.12527 259.934118 
L 133.238946 259.934118 
L 133.238946 259.579482 
L 134.613137 259.579482 
L 134.613137 259.224847 
L 135.546259 259.224847 
L 135.546259 258.870212 
L 135.915705 258.870212 
L 135.915705 258.515576 
L 142.006486 258.515576 
L 142.006486 258.160941 
L 144.630562 258.160941 
L 144.630562 257.806306 
L 147.187903 257.806306 
L 147.187903 257.451671 
L 147.324045 257.451671 
L 147.324045 257.097035 
L 149.760521 257.097035 
L 149.760521 256.7424 
L 151.304226 256.7424 
L 151.304226 256.387765 
L 151.700408 256.387765 
L 151.700408 256.033129 
L 152.811444 256.033129 
L 152.811444 255.678494 
L 153.74742 255.678494 
L 153.74742 255.323859 
L 154.644432 255.323859 
L 154.644432 254.969224 
L 154.83809 254.969224 
L 154.891532 254.259953 
L 155.277126 254.259953 
L 155.277126 253.905318 
L 156.120605 253.905318 
L 156.120605 253.550682 
L 157.701936 253.550682 
L 157.701936 253.196047 
L 162.613005 253.196047 
L 162.613005 252.841412 
L 163.304595 252.841412 
L 163.304595 252.486776 
L 164.739583 252.486776 
L 164.739583 252.132141 
L 167.379716 252.132141 
L 167.379716 251.777506 
L 168.124491 251.777506 
L 168.124491 251.422871 
L 170.708911 251.422871 
L 170.708911 251.068235 
L 171.699811 251.068235 
L 171.699811 250.7136 
L 173.619573 250.7136 
L 173.619573 250.358965 
L 176.645871 250.358965 
L 176.645871 250.004329 
L 177.880444 250.004329 
L 177.880444 249.649694 
L 180.786209 249.649694 
L 180.786209 249.295059 
L 187.668414 249.295059 
L 187.668414 248.940424 
L 193.270639 248.940424 
L 193.270639 248.585788 
L 193.798419 248.585788 
L 193.798419 248.231153 
L 194.539503 248.231153 
L 194.539503 247.876518 
L 194.974146 247.876518 
L 194.974146 247.521882 
L 195.671762 247.521882 
L 195.671762 247.167247 
L 204.829984 247.167247 
L 204.829984 246.812612 
L 230.710556 246.812612 
L 230.710556 246.457976 
L 242.496412 246.457976 
L 242.496412 246.103341 
L 247.220617 246.103341 
L 247.220617 245.748706 
L 251.563361 245.748706 
L 251.563361 245.394071 
L 266.246336 245.394071 
L 266.246336 245.039435 
L 274.242878 245.039435 
L 274.242878 244.330165 
L 274.436478 244.330165 
L 274.436478 243.975529 
L 277.378977 243.975529 
L 277.378977 243.620894 
L 283.665111 243.620894 
L 283.665111 243.266259 
L 287.449449 243.266259 
L 287.449449 242.911624 
L 295.454602 242.911624 
L 295.454602 242.556988 
L 300.280677 242.556988 
L 300.280677 242.202353 
L 301.617324 242.202353 
L 301.617324 241.493082 
L 303.111282 241.493082 
L 303.111282 241.138447 
L 304.473091 241.138447 
L 304.473091 240.783812 
L 304.821609 240.783812 
L 304.821609 240.429176 
L 360.8064 240.429176 
L 360.8064 240.429176 
" style="fill: none; stroke: #bf00bf; stroke-width: 1.5; stroke-linecap: square"/>
   </g>
   <g id="line2d_56">
    <defs>
     <path id="m3cfd3ab7af" d="M 0 8.485281 
L 8.485281 0 
L 0 -8.485281 
L -8.485281 0 
z
" style="stroke: #bf00bf; stroke-width: 1.5; stroke-linejoin: miter"/>
    </defs>
    <g>
     <use xlink:href="#m3cfd3ab7af" x="123.073054" y="261.352659" style="fill-opacity: 0; stroke: #bf00bf; stroke-width: 1.5; stroke-linejoin: miter"/>
     <use xlink:href="#m3cfd3ab7af" x="204.829984" y="247.167247" style="fill-opacity: 0; stroke: #bf00bf; stroke-width: 1.5; stroke-linejoin: miter"/>
     <use xlink:href="#m3cfd3ab7af" x="304.821609" y="240.783812" style="fill-opacity: 0; stroke: #bf00bf; stroke-width: 1.5; stroke-linejoin: miter"/>
     <use xlink:href="#m3cfd3ab7af" x="304.821609" y="240.429176" style="fill-opacity: 0; stroke: #bf00bf; stroke-width: 1.5; stroke-linejoin: miter"/>
     <use xlink:href="#m3cfd3ab7af" x="360.8064" y="240.429176" style="fill-opacity: 0; stroke: #bf00bf; stroke-width: 1.5; stroke-linejoin: miter"/>
    </g>
   </g>
   <g id="line2d_57">
    <path style="fill: none; stroke: #bf00bf; stroke-width: 1.5; stroke-linecap: square"/>
    <g/>
   </g>
   <g id="line2d_58">
    <path d="M 274.176 245.039435 
" clip-path="url(#pd05b44ce36)" style="fill: none; stroke: #bf00bf; stroke-width: 1.5; stroke-linecap: square"/>
    <defs>
     <path id="m8a0f2ae0d7" d="M -12 12 
L 12 -12 
M -12 -12 
L 12 12 
" style="stroke: #bf00bf"/>
    </defs>
    <g clip-path="url(#pd05b44ce36)">
     <use xlink:href="#m8a0f2ae0d7" x="274.176" y="245.039435" style="fill: #bf00bf; stroke: #bf00bf"/>
    </g>
   </g>
   <g id="line2d_59">
    <path d="M 360.8064 240.429176 
L 380.514816 293.51808 
" style="fill: none; stroke: #bf00bf; stroke-width: 1.5; stroke-linecap: square"/>
    <g>
     <use xlink:href="#m3cfd3ab7af" x="360.8064" y="240.429176" style="fill-opacity: 0; stroke: #bf00bf; stroke-width: 1.5; stroke-linejoin: miter"/>
     <use xlink:href="#m3cfd3ab7af" x="380.514816" y="293.51808" style="fill-opacity: 0; stroke: #bf00bf; stroke-width: 1.5; stroke-linejoin: miter"/>
    </g>
   </g>
   <g id="line2d_60">
    <path d="M 360.8064 229.790118 
L 380.514816 241.429248 
" style="fill: none; stroke: #ff0000; stroke-width: 1.5; stroke-linecap: square"/>
    <g>
     <use xlink:href="#mf43c8f2ec9" x="360.8064" y="229.790118" style="fill-opacity: 0; stroke: #ff0000; stroke-width: 1.5; stroke-linejoin: miter"/>
     <use xlink:href="#mf43c8f2ec9" x="380.514816" y="241.429248" style="fill-opacity: 0; stroke: #ff0000; stroke-width: 1.5; stroke-linejoin: miter"/>
    </g>
   </g>
   <g id="line2d_61">
    <path d="M 360.8064 219.151059 
L 380.514816 189.340416 
" style="fill: none; stroke: #000000; stroke-width: 1.5; stroke-linecap: square"/>
    <g>
     <use xlink:href="#m2def78ab9d" x="360.8064" y="219.151059" style="fill-opacity: 0; stroke: #000000; stroke-width: 1.5"/>
     <use xlink:href="#m2def78ab9d" x="380.514816" y="189.340416" style="fill-opacity: 0; stroke: #000000; stroke-width: 1.5"/>
    </g>
   </g>
   <g id="line2d_62">
    <path d="M 360.8064 192.553412 
L 380.514816 137.251584 
" style="fill: none; stroke: #0000ff; stroke-width: 1.5; stroke-linecap: square"/>
    <g>
     <use xlink:href="#me92f80a434" x="360.8064" y="192.553412" style="fill-opacity: 0; stroke: #0000ff; stroke-width: 1.5; stroke-linejoin: bevel"/>
     <use xlink:href="#me92f80a434" x="380.514816" y="137.251584" style="fill-opacity: 0; stroke: #0000ff; stroke-width: 1.5; stroke-linejoin: bevel"/>
    </g>
   </g>
   <g id="line2d_63">
    <path d="M 360.8064 27.648 
L 380.514816 85.162752 
" style="fill: none; stroke: #008000; stroke-width: 1.5; stroke-linecap: square"/>
    <g>
     <use xlink:href="#mc156f0067c" x="360.8064" y="27.648" style="fill-opacity: 0; stroke: #008000; stroke-width: 1.5; stroke-linejoin: miter"/>
     <use xlink:href="#mc156f0067c" x="380.514816" y="85.162752" style="fill-opacity: 0; stroke: #008000; stroke-width: 1.5; stroke-linejoin: miter"/>
    </g>
   </g>
   <g id="line2d_64">
    <path d="M 360.8064 27.648 
L 380.514816 33.07392 
" style="fill: none; stroke: #00bfbf; stroke-width: 1.5; stroke-linecap: square"/>
    <g>
     <use xlink:href="#m4c3974e9a4" x="360.8064" y="27.648" style="fill-opacity: 0; stroke: #00bfbf; stroke-width: 1.5"/>
     <use xlink:href="#m4c3974e9a4" x="380.514816" y="33.07392" style="fill-opacity: 0; stroke: #00bfbf; stroke-width: 1.5"/>
    </g>
   </g>
   <g id="line2d_65">
    <path d="M 360.8064 298.944 
L 360.8064 27.648 
" style="fill: none; stroke: #000000; stroke-width: 1.5; stroke-linecap: square"/>
   </g>
   <g id="patch_3">
    <path d="M 57.6 298.944 
L 360.8064 298.944 
" style="fill: none; stroke: #000000; stroke-width: 0.8; stroke-linejoin: miter; stroke-linecap: square"/>
   </g>
   <g id="patch_4">
    <path d="M 57.6 27.648 
L 360.8064 27.648 
" style="fill: none; stroke: #000000; stroke-width: 0.8; stroke-linejoin: miter; stroke-linecap: square"/>
   </g>
   <g id="text_13">
    <!-- 40-D -->
    <g transform="translate(386.578944 297.381205)scale(0.14 -0.14)">
     <defs>
      <path id="DejaVuSans-44" d="M 1259 4147 
L 1259 519 
L 2022 519 
Q 2988 519 3436 956 
Q 3884 1394 3884 2338 
Q 3884 3275 3436 3711 
Q 2988 4147 2022 4147 
L 1259 4147 
z
M 628 4666 
L 1925 4666 
Q 3281 4666 3915 4102 
Q 4550 3538 4550 2338 
Q 4550 1131 3912 565 
Q 3275 0 1925 0 
L 628 0 
L 628 4666 
z
" transform="scale(0.015625)"/>
     </defs>
     <use xlink:href="#DejaVuSans-34"/>
     <use xlink:href="#DejaVuSans-30" x="63.623047"/>
     <use xlink:href="#DejaVuSans-2d" x="127.246094"/>
     <use xlink:href="#DejaVuSans-44" x="163.330078"/>
    </g>
   </g>
   <g id="text_14">
    <!-- 20-D -->
    <g transform="translate(386.578944 245.292373)scale(0.14 -0.14)">
     <use xlink:href="#DejaVuSans-32"/>
     <use xlink:href="#DejaVuSans-30" x="63.623047"/>
     <use xlink:href="#DejaVuSans-2d" x="127.246094"/>
     <use xlink:href="#DejaVuSans-44" x="163.330078"/>
    </g>
   </g>
   <g id="text_15">
    <!-- 10-D -->
    <g transform="translate(386.578944 193.203541)scale(0.14 -0.14)">
     <use xlink:href="#DejaVuSans-31"/>
     <use xlink:href="#DejaVuSans-30" x="63.623047"/>
     <use xlink:href="#DejaVuSans-2d" x="127.246094"/>
     <use xlink:href="#DejaVuSans-44" x="163.330078"/>
    </g>
   </g>
   <g id="text_16">
    <!-- 5-D -->
    <g transform="translate(386.578944 141.114709)scale(0.14 -0.14)">
     <defs>
      <path id="DejaVuSans-35" d="M 691 4666 
L 3169 4666 
L 3169 4134 
L 1269 4134 
L 1269 2991 
Q 1406 3038 1543 3061 
Q 1681 3084 1819 3084 
Q 2600 3084 3056 2656 
Q 3513 2228 3513 1497 
Q 3513 744 3044 326 
Q 2575 -91 1722 -91 
Q 1428 -91 1123 -41 
Q 819 9 494 109 
L 494 744 
Q 775 591 1075 516 
Q 1375 441 1709 441 
Q 2250 441 2565 725 
Q 2881 1009 2881 1497 
Q 2881 1984 2565 2268 
Q 2250 2553 1709 2553 
Q 1456 2553 1204 2497 
Q 953 2441 691 2322 
L 691 4666 
z
" transform="scale(0.015625)"/>
     </defs>
     <use xlink:href="#DejaVuSans-35"/>
     <use xlink:href="#DejaVuSans-2d" x="63.623047"/>
     <use xlink:href="#DejaVuSans-44" x="99.707031"/>
    </g>
   </g>
   <g id="text_17">
    <!-- 3-D -->
    <g transform="translate(386.578944 89.025877)scale(0.14 -0.14)">
     <defs>
      <path id="DejaVuSans-33" d="M 2597 2516 
Q 3050 2419 3304 2112 
Q 3559 1806 3559 1356 
Q 3559 666 3084 287 
Q 2609 -91 1734 -91 
Q 1441 -91 1130 -33 
Q 819 25 488 141 
L 488 750 
Q 750 597 1062 519 
Q 1375 441 1716 441 
Q 2309 441 2620 675 
Q 2931 909 2931 1356 
Q 2931 1769 2642 2001 
Q 2353 2234 1838 2234 
L 1294 2234 
L 1294 2753 
L 1863 2753 
Q 2328 2753 2575 2939 
Q 2822 3125 2822 3475 
Q 2822 3834 2567 4026 
Q 2313 4219 1838 4219 
Q 1578 4219 1281 4162 
Q 984 4106 628 3988 
L 628 4550 
Q 988 4650 1302 4700 
Q 1616 4750 1894 4750 
Q 2613 4750 3031 4423 
Q 3450 4097 3450 3541 
Q 3450 3153 3228 2886 
Q 3006 2619 2597 2516 
z
" transform="scale(0.015625)"/>
     </defs>
     <use xlink:href="#DejaVuSans-33"/>
     <use xlink:href="#DejaVuSans-2d" x="63.623047"/>
     <use xlink:href="#DejaVuSans-44" x="99.707031"/>
    </g>
   </g>
   <g id="text_18">
    <!-- 2-D -->
    <g transform="translate(386.578944 36.937045)scale(0.14 -0.14)">
     <use xlink:href="#DejaVuSans-32"/>
     <use xlink:href="#DejaVuSans-2d" x="63.623047"/>
     <use xlink:href="#DejaVuSans-44" x="99.707031"/>
    </g>
   </g>
   <g id="text_19">
    <!-- bbob f23 -->
    <g transform="translate(60.632064 38.111366)scale(0.102 -0.102)">
     <defs>
      <path id="DejaVuSans-62" d="M 3116 1747 
Q 3116 2381 2855 2742 
Q 2594 3103 2138 3103 
Q 1681 3103 1420 2742 
Q 1159 2381 1159 1747 
Q 1159 1113 1420 752 
Q 1681 391 2138 391 
Q 2594 391 2855 752 
Q 3116 1113 3116 1747 
z
M 1159 2969 
Q 1341 3281 1617 3432 
Q 1894 3584 2278 3584 
Q 2916 3584 3314 3078 
Q 3713 2572 3713 1747 
Q 3713 922 3314 415 
Q 2916 -91 2278 -91 
Q 1894 -91 1617 61 
Q 1341 213 1159 525 
L 1159 0 
L 581 0 
L 581 4863 
L 1159 4863 
L 1159 2969 
z
" transform="scale(0.015625)"/>
     </defs>
     <use xlink:href="#DejaVuSans-62"/>
     <use xlink:href="#DejaVuSans-62" x="63.476562"/>
     <use xlink:href="#DejaVuSans-6f" x="126.953125"/>
     <use xlink:href="#DejaVuSans-62" x="188.134766"/>
     <use xlink:href="#DejaVuSans-20" x="251.611328"/>
     <use xlink:href="#DejaVuSans-66" x="283.398438"/>
     <use xlink:href="#DejaVuSans-32" x="318.603516"/>
     <use xlink:href="#DejaVuSans-33" x="382.226562"/>
    </g>
    <!-- 51 targets: 100..1e-08 -->
    <g transform="translate(60.632064 49.533135)scale(0.102 -0.102)">
     <defs>
      <path id="DejaVuSans-3a" d="M 750 794 
L 1409 794 
L 1409 0 
L 750 0 
L 750 794 
z
M 750 3309 
L 1409 3309 
L 1409 2516 
L 750 2516 
L 750 3309 
z
" transform="scale(0.015625)"/>
     </defs>
     <use xlink:href="#DejaVuSans-35"/>
     <use xlink:href="#DejaVuSans-31" x="63.623047"/>
     <use xlink:href="#DejaVuSans-20" x="127.246094"/>
     <use xlink:href="#DejaVuSans-74" x="159.033203"/>
     <use xlink:href="#DejaVuSans-61" x="198.242188"/>
     <use xlink:href="#DejaVuSans-72" x="259.521484"/>
     <use xlink:href="#DejaVuSans-67" x="298.884766"/>
     <use xlink:href="#DejaVuSans-65" x="362.361328"/>
     <use xlink:href="#DejaVuSans-74" x="423.884766"/>
     <use xlink:href="#DejaVuSans-73" x="463.09375"/>
     <use xlink:href="#DejaVuSans-3a" x="515.193359"/>
     <use xlink:href="#DejaVuSans-20" x="548.884766"/>
     <use xlink:href="#DejaVuSans-31" x="580.671875"/>
     <use xlink:href="#DejaVuSans-30" x="644.294922"/>
     <use xlink:href="#DejaVuSans-30" x="707.917969"/>
     <use xlink:href="#DejaVuSans-2e" x="771.541016"/>
     <use xlink:href="#DejaVuSans-2e" x="803.328125"/>
     <use xlink:href="#DejaVuSans-31" x="835.115234"/>
     <use xlink:href="#DejaVuSans-65" x="898.738281"/>
     <use xlink:href="#DejaVuSans-2d" x="960.261719"/>
     <use xlink:href="#DejaVuSans-30" x="996.345703"/>
     <use xlink:href="#DejaVuSans-38" x="1059.96875"/>
    </g>
    <!-- 15 instances -->
    <g transform="translate(60.632064 60.954904)scale(0.102 -0.102)">
     <use xlink:href="#DejaVuSans-31"/>
     <use xlink:href="#DejaVuSans-35" x="63.623047"/>
     <use xlink:href="#DejaVuSans-20" x="127.246094"/>
     <use xlink:href="#DejaVuSans-69" x="159.033203"/>
     <use xlink:href="#DejaVuSans-6e" x="186.816406"/>
     <use xlink:href="#DejaVuSans-73" x="250.195312"/>
     <use xlink:href="#DejaVuSans-74" x="302.294922"/>
     <use xlink:href="#DejaVuSans-61" x="341.503906"/>
     <use xlink:href="#DejaVuSans-6e" x="402.783203"/>
     <use xlink:href="#DejaVuSans-63" x="466.162109"/>
     <use xlink:href="#DejaVuSans-65" x="521.142578"/>
     <use xlink:href="#DejaVuSans-73" x="582.666016"/>
    </g>
   </g>
   <g id="text_20">
    <!-- v2.6 -->
    <g style="fill: #808080" transform="translate(198.292262 294.151352)scale(0.1 -0.1)">
     <use xlink:href="#DejaVuSans-76"/>
     <use xlink:href="#DejaVuSans-32" x="59.179688"/>
     <use xlink:href="#DejaVuSans-2e" x="122.802734"/>
     <use xlink:href="#DejaVuSans-36" x="154.589844"/>
    </g>
   </g>
   <g id="text_21">
    <!-- 23 Katsuuras -->
    <g transform="translate(143.536012 21.648)scale(0.2 -0.2)">
     <defs>
      <path id="DejaVuSans-4b" d="M 628 4666 
L 1259 4666 
L 1259 2694 
L 3353 4666 
L 4166 4666 
L 1850 2491 
L 4331 0 
L 3500 0 
L 1259 2247 
L 1259 0 
L 628 0 
L 628 4666 
z
" transform="scale(0.015625)"/>
     </defs>
     <use xlink:href="#DejaVuSans-32"/>
     <use xlink:href="#DejaVuSans-33" x="63.623047"/>
     <use xlink:href="#DejaVuSans-20" x="127.246094"/>
     <use xlink:href="#DejaVuSans-4b" x="159.033203"/>
     <use xlink:href="#DejaVuSans-61" x="222.859375"/>
     <use xlink:href="#DejaVuSans-74" x="284.138672"/>
     <use xlink:href="#DejaVuSans-73" x="323.347656"/>
     <use xlink:href="#DejaVuSans-75" x="375.447266"/>
     <use xlink:href="#DejaVuSans-75" x="438.826172"/>
     <use xlink:href="#DejaVuSans-72" x="502.205078"/>
     <use xlink:href="#DejaVuSans-61" x="543.318359"/>
     <use xlink:href="#DejaVuSans-73" x="604.597656"/>
    </g>
   </g>
  </g>
 </g>
 <defs>
  <clipPath id="pd05b44ce36">
   <rect x="57.6" y="27.648" width="303.2064" height="271.296"/>
  </clipPath>
 </defs>
</svg>
