<?xml version="1.0" encoding="utf-8" standalone="no"?>
<!DOCTYPE svg PUBLIC "-//W3C//DTD SVG 1.1//EN"
  "http://www.w3.org/Graphics/SVG/1.1/DTD/svg11.dtd">
<svg xmlns:xlink="http://www.w3.org/1999/xlink" width="460.8pt" height="345.6pt" viewBox="0 0 460.8 345.6" xmlns="http://www.w3.org/2000/svg" version="1.1">
 <metadata>
  <rdf:RDF xmlns:dc="http://purl.org/dc/elements/1.1/" xmlns:cc="http://creativecommons.org/ns#" xmlns:rdf="http://www.w3.org/1999/02/22-rdf-syntax-ns#">
   <cc:Work>
    <dc:type rdf:resource="http://purl.org/dc/dcmitype/StillImage"/>
    <dc:date>2024-05-29T07:56:43.323117</dc:date>
    <dc:format>image/svg+xml</dc:format>
    <dc:creator>
     <cc:Agent>
      <dc:title>Matplotlib v3.5.1, https://matplotlib.org/</dc:title>
     </cc:Agent>
    </dc:creator>
   </cc:Work>
  </rdf:RDF>
 </metadata>
 <defs>
  <style type="text/css">*{stroke-linejoin: round; stroke-linecap: butt}</style>
 </defs>
 <g id="figure_1">
  <g id="patch_1">
   <path d="M 0 345.6 
L 460.8 345.6 
L 460.8 0 
L 0 0 
z
" style="fill: #ffffff"/>
  </g>
  <g id="axes_1">
   <g id="patch_2">
    <path d="M 57.6 298.944 
L 360.8064 298.944 
L 360.8064 6.912 
L 57.6 6.912 
z
" style="fill: #ffffff"/>
   </g>
   <g id="matplotlib.axis_1">
    <g id="xtick_1">
     <g id="line2d_1">
      <path d="M 57.6 298.944 
L 57.6 6.912 
" clip-path="url(#pa1fd79b1e5)" style="fill: none; stroke: #b0b0b0; stroke-width: 0.8; stroke-linecap: square"/>
     </g>
     <g id="line2d_2">
      <defs>
       <path id="m28d88f0d47" d="M 0 0 
L 0 3.5 
" style="stroke: #000000; stroke-width: 0.8"/>
      </defs>
      <g>
       <use xlink:href="#m28d88f0d47" x="57.6" y="298.944" style="stroke: #000000; stroke-width: 0.8"/>
      </g>
     </g>
     <g id="text_1">
      <!-- 0 -->
      <g transform="translate(52.191875 318.861344)scale(0.17 -0.17)">
       <defs>
        <path id="DejaVuSans-30" d="M 2034 4250 
Q 1547 4250 1301 3770 
Q 1056 3291 1056 2328 
Q 1056 1369 1301 889 
Q 1547 409 2034 409 
Q 2525 409 2770 889 
Q 3016 1369 3016 2328 
Q 3016 3291 2770 3770 
Q 2525 4250 2034 4250 
z
M 2034 4750 
Q 2819 4750 3233 4129 
Q 3647 3509 3647 2328 
Q 3647 1150 3233 529 
Q 2819 -91 2034 -91 
Q 1250 -91 836 529 
Q 422 1150 422 2328 
Q 422 3509 836 4129 
Q 1250 4750 2034 4750 
z
" transform="scale(0.015625)"/>
       </defs>
       <use xlink:href="#DejaVuSans-30"/>
      </g>
     </g>
    </g>
    <g id="xtick_2">
     <g id="line2d_3">
      <path d="M 144.2304 298.944 
L 144.2304 6.912 
" clip-path="url(#pa1fd79b1e5)" style="fill: none; stroke: #b0b0b0; stroke-width: 0.8; stroke-linecap: square"/>
     </g>
     <g id="line2d_4">
      <g>
       <use xlink:href="#m28d88f0d47" x="144.2304" y="298.944" style="stroke: #000000; stroke-width: 0.8"/>
      </g>
     </g>
     <g id="text_2">
      <!-- 2 -->
      <g transform="translate(138.822275 318.861344)scale(0.17 -0.17)">
       <defs>
        <path id="DejaVuSans-32" d="M 1228 531 
L 3431 531 
L 3431 0 
L 469 0 
L 469 531 
Q 828 903 1448 1529 
Q 2069 2156 2228 2338 
Q 2531 2678 2651 2914 
Q 2772 3150 2772 3378 
Q 2772 3750 2511 3984 
Q 2250 4219 1831 4219 
Q 1534 4219 1204 4116 
Q 875 4013 500 3803 
L 500 4441 
Q 881 4594 1212 4672 
Q 1544 4750 1819 4750 
Q 2544 4750 2975 4387 
Q 3406 4025 3406 3419 
Q 3406 3131 3298 2873 
Q 3191 2616 2906 2266 
Q 2828 2175 2409 1742 
Q 1991 1309 1228 531 
z
" transform="scale(0.015625)"/>
       </defs>
       <use xlink:href="#DejaVuSans-32"/>
      </g>
     </g>
    </g>
    <g id="xtick_3">
     <g id="line2d_5">
      <path d="M 230.8608 298.944 
L 230.8608 6.912 
" clip-path="url(#pa1fd79b1e5)" style="fill: none; stroke: #b0b0b0; stroke-width: 0.8; stroke-linecap: square"/>
     </g>
     <g id="line2d_6">
      <g>
       <use xlink:href="#m28d88f0d47" x="230.8608" y="298.944" style="stroke: #000000; stroke-width: 0.8"/>
      </g>
     </g>
     <g id="text_3">
      <!-- 4 -->
      <g transform="translate(225.452675 318.861344)scale(0.17 -0.17)">
       <defs>
        <path id="DejaVuSans-34" d="M 2419 4116 
L 825 1625 
L 2419 1625 
L 2419 4116 
z
M 2253 4666 
L 3047 4666 
L 3047 1625 
L 3713 1625 
L 3713 1100 
L 3047 1100 
L 3047 0 
L 2419 0 
L 2419 1100 
L 313 1100 
L 313 1709 
L 2253 4666 
z
" transform="scale(0.015625)"/>
       </defs>
       <use xlink:href="#DejaVuSans-34"/>
      </g>
     </g>
    </g>
    <g id="xtick_4">
     <g id="line2d_7">
      <path d="M 317.4912 298.944 
L 317.4912 6.912 
" clip-path="url(#pa1fd79b1e5)" style="fill: none; stroke: #b0b0b0; stroke-width: 0.8; stroke-linecap: square"/>
     </g>
     <g id="line2d_8">
      <g>
       <use xlink:href="#m28d88f0d47" x="317.4912" y="298.944" style="stroke: #000000; stroke-width: 0.8"/>
      </g>
     </g>
     <g id="text_4">
      <!-- 6 -->
      <g transform="translate(312.083075 318.861344)scale(0.17 -0.17)">
       <defs>
        <path id="DejaVuSans-36" d="M 2113 2584 
Q 1688 2584 1439 2293 
Q 1191 2003 1191 1497 
Q 1191 994 1439 701 
Q 1688 409 2113 409 
Q 2538 409 2786 701 
Q 3034 994 3034 1497 
Q 3034 2003 2786 2293 
Q 2538 2584 2113 2584 
z
M 3366 4563 
L 3366 3988 
Q 3128 4100 2886 4159 
Q 2644 4219 2406 4219 
Q 1781 4219 1451 3797 
Q 1122 3375 1075 2522 
Q 1259 2794 1537 2939 
Q 1816 3084 2150 3084 
Q 2853 3084 3261 2657 
Q 3669 2231 3669 1497 
Q 3669 778 3244 343 
Q 2819 -91 2113 -91 
Q 1303 -91 875 529 
Q 447 1150 447 2328 
Q 447 3434 972 4092 
Q 1497 4750 2381 4750 
Q 2619 4750 2861 4703 
Q 3103 4656 3366 4563 
z
" transform="scale(0.015625)"/>
       </defs>
       <use xlink:href="#DejaVuSans-36"/>
      </g>
     </g>
    </g>
    <g id="xtick_5">
     <g id="line2d_9">
      <path d="M 100.9152 298.944 
L 100.9152 6.912 
" clip-path="url(#pa1fd79b1e5)" style="fill: none; stroke: #b0b0b0; stroke-width: 0.8; stroke-linecap: square"/>
     </g>
     <g id="line2d_10">
      <defs>
       <path id="m5c992766cd" d="M 0 0 
L 0 2 
" style="stroke: #000000; stroke-width: 0.6"/>
      </defs>
      <g>
       <use xlink:href="#m5c992766cd" x="100.9152" y="298.944" style="stroke: #000000; stroke-width: 0.6"/>
      </g>
     </g>
    </g>
    <g id="xtick_6">
     <g id="line2d_11">
      <path d="M 187.5456 298.944 
L 187.5456 6.912 
" clip-path="url(#pa1fd79b1e5)" style="fill: none; stroke: #b0b0b0; stroke-width: 0.8; stroke-linecap: square"/>
     </g>
     <g id="line2d_12">
      <g>
       <use xlink:href="#m5c992766cd" x="187.5456" y="298.944" style="stroke: #000000; stroke-width: 0.6"/>
      </g>
     </g>
    </g>
    <g id="xtick_7">
     <g id="line2d_13">
      <path d="M 274.176 298.944 
L 274.176 6.912 
" clip-path="url(#pa1fd79b1e5)" style="fill: none; stroke: #b0b0b0; stroke-width: 0.8; stroke-linecap: square"/>
     </g>
     <g id="line2d_14">
      <g>
       <use xlink:href="#m5c992766cd" x="274.176" y="298.944" style="stroke: #000000; stroke-width: 0.6"/>
      </g>
     </g>
    </g>
    <g id="xtick_8">
     <g id="line2d_15">
      <path d="M 360.8064 298.944 
L 360.8064 6.912 
" clip-path="url(#pa1fd79b1e5)" style="fill: none; stroke: #b0b0b0; stroke-width: 0.8; stroke-linecap: square"/>
     </g>
     <g id="line2d_16">
      <g>
       <use xlink:href="#m5c992766cd" x="360.8064" y="298.944" style="stroke: #000000; stroke-width: 0.6"/>
      </g>
     </g>
    </g>
    <g id="text_5">
     <!-- log10(# f-evals / dimension) -->
     <g transform="translate(88.823278 339.314156)scale(0.17 -0.17)">
      <defs>
       <path id="DejaVuSans-6c" d="M 603 4863 
L 1178 4863 
L 1178 0 
L 603 0 
L 603 4863 
z
" transform="scale(0.015625)"/>
       <path id="DejaVuSans-6f" d="M 1959 3097 
Q 1497 3097 1228 2736 
Q 959 2375 959 1747 
Q 959 1119 1226 758 
Q 1494 397 1959 397 
Q 2419 397 2687 759 
Q 2956 1122 2956 1747 
Q 2956 2369 2687 2733 
Q 2419 3097 1959 3097 
z
M 1959 3584 
Q 2709 3584 3137 3096 
Q 3566 2609 3566 1747 
Q 3566 888 3137 398 
Q 2709 -91 1959 -91 
Q 1206 -91 779 398 
Q 353 888 353 1747 
Q 353 2609 779 3096 
Q 1206 3584 1959 3584 
z
" transform="scale(0.015625)"/>
       <path id="DejaVuSans-67" d="M 2906 1791 
Q 2906 2416 2648 2759 
Q 2391 3103 1925 3103 
Q 1463 3103 1205 2759 
Q 947 2416 947 1791 
Q 947 1169 1205 825 
Q 1463 481 1925 481 
Q 2391 481 2648 825 
Q 2906 1169 2906 1791 
z
M 3481 434 
Q 3481 -459 3084 -895 
Q 2688 -1331 1869 -1331 
Q 1566 -1331 1297 -1286 
Q 1028 -1241 775 -1147 
L 775 -588 
Q 1028 -725 1275 -790 
Q 1522 -856 1778 -856 
Q 2344 -856 2625 -561 
Q 2906 -266 2906 331 
L 2906 616 
Q 2728 306 2450 153 
Q 2172 0 1784 0 
Q 1141 0 747 490 
Q 353 981 353 1791 
Q 353 2603 747 3093 
Q 1141 3584 1784 3584 
Q 2172 3584 2450 3431 
Q 2728 3278 2906 2969 
L 2906 3500 
L 3481 3500 
L 3481 434 
z
" transform="scale(0.015625)"/>
       <path id="DejaVuSans-31" d="M 794 531 
L 1825 531 
L 1825 4091 
L 703 3866 
L 703 4441 
L 1819 4666 
L 2450 4666 
L 2450 531 
L 3481 531 
L 3481 0 
L 794 0 
L 794 531 
z
" transform="scale(0.015625)"/>
       <path id="DejaVuSans-28" d="M 1984 4856 
Q 1566 4138 1362 3434 
Q 1159 2731 1159 2009 
Q 1159 1288 1364 580 
Q 1569 -128 1984 -844 
L 1484 -844 
Q 1016 -109 783 600 
Q 550 1309 550 2009 
Q 550 2706 781 3412 
Q 1013 4119 1484 4856 
L 1984 4856 
z
" transform="scale(0.015625)"/>
       <path id="DejaVuSans-23" d="M 3272 2816 
L 2363 2816 
L 2100 1772 
L 3016 1772 
L 3272 2816 
z
M 2803 4594 
L 2478 3297 
L 3391 3297 
L 3719 4594 
L 4219 4594 
L 3897 3297 
L 4872 3297 
L 4872 2816 
L 3775 2816 
L 3519 1772 
L 4513 1772 
L 4513 1294 
L 3397 1294 
L 3072 0 
L 2572 0 
L 2894 1294 
L 1978 1294 
L 1656 0 
L 1153 0 
L 1478 1294 
L 494 1294 
L 494 1772 
L 1594 1772 
L 1856 2816 
L 850 2816 
L 850 3297 
L 1978 3297 
L 2297 4594 
L 2803 4594 
z
" transform="scale(0.015625)"/>
       <path id="DejaVuSans-20" transform="scale(0.015625)"/>
       <path id="DejaVuSans-66" d="M 2375 4863 
L 2375 4384 
L 1825 4384 
Q 1516 4384 1395 4259 
Q 1275 4134 1275 3809 
L 1275 3500 
L 2222 3500 
L 2222 3053 
L 1275 3053 
L 1275 0 
L 697 0 
L 697 3053 
L 147 3053 
L 147 3500 
L 697 3500 
L 697 3744 
Q 697 4328 969 4595 
Q 1241 4863 1831 4863 
L 2375 4863 
z
" transform="scale(0.015625)"/>
       <path id="DejaVuSans-2d" d="M 313 2009 
L 1997 2009 
L 1997 1497 
L 313 1497 
L 313 2009 
z
" transform="scale(0.015625)"/>
       <path id="DejaVuSans-65" d="M 3597 1894 
L 3597 1613 
L 953 1613 
Q 991 1019 1311 708 
Q 1631 397 2203 397 
Q 2534 397 2845 478 
Q 3156 559 3463 722 
L 3463 178 
Q 3153 47 2828 -22 
Q 2503 -91 2169 -91 
Q 1331 -91 842 396 
Q 353 884 353 1716 
Q 353 2575 817 3079 
Q 1281 3584 2069 3584 
Q 2775 3584 3186 3129 
Q 3597 2675 3597 1894 
z
M 3022 2063 
Q 3016 2534 2758 2815 
Q 2500 3097 2075 3097 
Q 1594 3097 1305 2825 
Q 1016 2553 972 2059 
L 3022 2063 
z
" transform="scale(0.015625)"/>
       <path id="DejaVuSans-76" d="M 191 3500 
L 800 3500 
L 1894 563 
L 2988 3500 
L 3597 3500 
L 2284 0 
L 1503 0 
L 191 3500 
z
" transform="scale(0.015625)"/>
       <path id="DejaVuSans-61" d="M 2194 1759 
Q 1497 1759 1228 1600 
Q 959 1441 959 1056 
Q 959 750 1161 570 
Q 1363 391 1709 391 
Q 2188 391 2477 730 
Q 2766 1069 2766 1631 
L 2766 1759 
L 2194 1759 
z
M 3341 1997 
L 3341 0 
L 2766 0 
L 2766 531 
Q 2569 213 2275 61 
Q 1981 -91 1556 -91 
Q 1019 -91 701 211 
Q 384 513 384 1019 
Q 384 1609 779 1909 
Q 1175 2209 1959 2209 
L 2766 2209 
L 2766 2266 
Q 2766 2663 2505 2880 
Q 2244 3097 1772 3097 
Q 1472 3097 1187 3025 
Q 903 2953 641 2809 
L 641 3341 
Q 956 3463 1253 3523 
Q 1550 3584 1831 3584 
Q 2591 3584 2966 3190 
Q 3341 2797 3341 1997 
z
" transform="scale(0.015625)"/>
       <path id="DejaVuSans-73" d="M 2834 3397 
L 2834 2853 
Q 2591 2978 2328 3040 
Q 2066 3103 1784 3103 
Q 1356 3103 1142 2972 
Q 928 2841 928 2578 
Q 928 2378 1081 2264 
Q 1234 2150 1697 2047 
L 1894 2003 
Q 2506 1872 2764 1633 
Q 3022 1394 3022 966 
Q 3022 478 2636 193 
Q 2250 -91 1575 -91 
Q 1294 -91 989 -36 
Q 684 19 347 128 
L 347 722 
Q 666 556 975 473 
Q 1284 391 1588 391 
Q 1994 391 2212 530 
Q 2431 669 2431 922 
Q 2431 1156 2273 1281 
Q 2116 1406 1581 1522 
L 1381 1569 
Q 847 1681 609 1914 
Q 372 2147 372 2553 
Q 372 3047 722 3315 
Q 1072 3584 1716 3584 
Q 2034 3584 2315 3537 
Q 2597 3491 2834 3397 
z
" transform="scale(0.015625)"/>
       <path id="DejaVuSans-2f" d="M 1625 4666 
L 2156 4666 
L 531 -594 
L 0 -594 
L 1625 4666 
z
" transform="scale(0.015625)"/>
       <path id="DejaVuSans-64" d="M 2906 2969 
L 2906 4863 
L 3481 4863 
L 3481 0 
L 2906 0 
L 2906 525 
Q 2725 213 2448 61 
Q 2172 -91 1784 -91 
Q 1150 -91 751 415 
Q 353 922 353 1747 
Q 353 2572 751 3078 
Q 1150 3584 1784 3584 
Q 2172 3584 2448 3432 
Q 2725 3281 2906 2969 
z
M 947 1747 
Q 947 1113 1208 752 
Q 1469 391 1925 391 
Q 2381 391 2643 752 
Q 2906 1113 2906 1747 
Q 2906 2381 2643 2742 
Q 2381 3103 1925 3103 
Q 1469 3103 1208 2742 
Q 947 2381 947 1747 
z
" transform="scale(0.015625)"/>
       <path id="DejaVuSans-69" d="M 603 3500 
L 1178 3500 
L 1178 0 
L 603 0 
L 603 3500 
z
M 603 4863 
L 1178 4863 
L 1178 4134 
L 603 4134 
L 603 4863 
z
" transform="scale(0.015625)"/>
       <path id="DejaVuSans-6d" d="M 3328 2828 
Q 3544 3216 3844 3400 
Q 4144 3584 4550 3584 
Q 5097 3584 5394 3201 
Q 5691 2819 5691 2113 
L 5691 0 
L 5113 0 
L 5113 2094 
Q 5113 2597 4934 2840 
Q 4756 3084 4391 3084 
Q 3944 3084 3684 2787 
Q 3425 2491 3425 1978 
L 3425 0 
L 2847 0 
L 2847 2094 
Q 2847 2600 2669 2842 
Q 2491 3084 2119 3084 
Q 1678 3084 1418 2786 
Q 1159 2488 1159 1978 
L 1159 0 
L 581 0 
L 581 3500 
L 1159 3500 
L 1159 2956 
Q 1356 3278 1631 3431 
Q 1906 3584 2284 3584 
Q 2666 3584 2933 3390 
Q 3200 3197 3328 2828 
z
" transform="scale(0.015625)"/>
       <path id="DejaVuSans-6e" d="M 3513 2113 
L 3513 0 
L 2938 0 
L 2938 2094 
Q 2938 2591 2744 2837 
Q 2550 3084 2163 3084 
Q 1697 3084 1428 2787 
Q 1159 2491 1159 1978 
L 1159 0 
L 581 0 
L 581 3500 
L 1159 3500 
L 1159 2956 
Q 1366 3272 1645 3428 
Q 1925 3584 2291 3584 
Q 2894 3584 3203 3211 
Q 3513 2838 3513 2113 
z
" transform="scale(0.015625)"/>
       <path id="DejaVuSans-29" d="M 513 4856 
L 1013 4856 
Q 1481 4119 1714 3412 
Q 1947 2706 1947 2009 
Q 1947 1309 1714 600 
Q 1481 -109 1013 -844 
L 513 -844 
Q 928 -128 1133 580 
Q 1338 1288 1338 2009 
Q 1338 2731 1133 3434 
Q 928 4138 513 4856 
z
" transform="scale(0.015625)"/>
      </defs>
      <use xlink:href="#DejaVuSans-6c"/>
      <use xlink:href="#DejaVuSans-6f" x="27.783203"/>
      <use xlink:href="#DejaVuSans-67" x="88.964844"/>
      <use xlink:href="#DejaVuSans-31" x="152.441406"/>
      <use xlink:href="#DejaVuSans-30" x="216.064453"/>
      <use xlink:href="#DejaVuSans-28" x="279.6875"/>
      <use xlink:href="#DejaVuSans-23" x="318.701172"/>
      <use xlink:href="#DejaVuSans-20" x="402.490234"/>
      <use xlink:href="#DejaVuSans-66" x="434.277344"/>
      <use xlink:href="#DejaVuSans-2d" x="463.982422"/>
      <use xlink:href="#DejaVuSans-65" x="500.066406"/>
      <use xlink:href="#DejaVuSans-76" x="561.589844"/>
      <use xlink:href="#DejaVuSans-61" x="620.769531"/>
      <use xlink:href="#DejaVuSans-6c" x="682.048828"/>
      <use xlink:href="#DejaVuSans-73" x="709.832031"/>
      <use xlink:href="#DejaVuSans-20" x="761.931641"/>
      <use xlink:href="#DejaVuSans-2f" x="793.71875"/>
      <use xlink:href="#DejaVuSans-20" x="827.410156"/>
      <use xlink:href="#DejaVuSans-64" x="859.197266"/>
      <use xlink:href="#DejaVuSans-69" x="922.673828"/>
      <use xlink:href="#DejaVuSans-6d" x="950.457031"/>
      <use xlink:href="#DejaVuSans-65" x="1047.869141"/>
      <use xlink:href="#DejaVuSans-6e" x="1109.392578"/>
      <use xlink:href="#DejaVuSans-73" x="1172.771484"/>
      <use xlink:href="#DejaVuSans-69" x="1224.871094"/>
      <use xlink:href="#DejaVuSans-6f" x="1252.654297"/>
      <use xlink:href="#DejaVuSans-6e" x="1313.835938"/>
      <use xlink:href="#DejaVuSans-29" x="1377.214844"/>
     </g>
    </g>
   </g>
   <g id="matplotlib.axis_2">
    <g id="ytick_1">
     <g id="line2d_17">
      <path d="M 57.6 298.944 
L 360.8064 298.944 
" clip-path="url(#pa1fd79b1e5)" style="fill: none; stroke: #b0b0b0; stroke-width: 0.8; stroke-linecap: square"/>
     </g>
     <g id="line2d_18">
      <defs>
       <path id="me2e1466174" d="M 0 0 
L -3.5 0 
" style="stroke: #000000; stroke-width: 0.8"/>
      </defs>
      <g>
       <use xlink:href="#me2e1466174" x="57.6" y="298.944" style="stroke: #000000; stroke-width: 0.8"/>
      </g>
     </g>
     <g id="text_6">
      <!-- 0.0 -->
      <g transform="translate(25.155 305.02275)scale(0.16 -0.16)">
       <defs>
        <path id="DejaVuSans-2e" d="M 684 794 
L 1344 794 
L 1344 0 
L 684 0 
L 684 794 
z
" transform="scale(0.015625)"/>
       </defs>
       <use xlink:href="#DejaVuSans-30"/>
       <use xlink:href="#DejaVuSans-2e" x="63.623047"/>
       <use xlink:href="#DejaVuSans-30" x="95.410156"/>
      </g>
     </g>
    </g>
    <g id="ytick_2">
     <g id="line2d_19">
      <path d="M 57.6 240.5376 
L 360.8064 240.5376 
" clip-path="url(#pa1fd79b1e5)" style="fill: none; stroke: #b0b0b0; stroke-width: 0.8; stroke-linecap: square"/>
     </g>
     <g id="line2d_20">
      <g>
       <use xlink:href="#me2e1466174" x="57.6" y="240.5376" style="stroke: #000000; stroke-width: 0.8"/>
      </g>
     </g>
     <g id="text_7">
      <!-- 0.2 -->
      <g transform="translate(25.155 246.61635)scale(0.16 -0.16)">
       <use xlink:href="#DejaVuSans-30"/>
       <use xlink:href="#DejaVuSans-2e" x="63.623047"/>
       <use xlink:href="#DejaVuSans-32" x="95.410156"/>
      </g>
     </g>
    </g>
    <g id="ytick_3">
     <g id="line2d_21">
      <path d="M 57.6 182.1312 
L 360.8064 182.1312 
" clip-path="url(#pa1fd79b1e5)" style="fill: none; stroke: #b0b0b0; stroke-width: 0.8; stroke-linecap: square"/>
     </g>
     <g id="line2d_22">
      <g>
       <use xlink:href="#me2e1466174" x="57.6" y="182.1312" style="stroke: #000000; stroke-width: 0.8"/>
      </g>
     </g>
     <g id="text_8">
      <!-- 0.4 -->
      <g transform="translate(25.155 188.20995)scale(0.16 -0.16)">
       <use xlink:href="#DejaVuSans-30"/>
       <use xlink:href="#DejaVuSans-2e" x="63.623047"/>
       <use xlink:href="#DejaVuSans-34" x="95.410156"/>
      </g>
     </g>
    </g>
    <g id="ytick_4">
     <g id="line2d_23">
      <path d="M 57.6 123.7248 
L 360.8064 123.7248 
" clip-path="url(#pa1fd79b1e5)" style="fill: none; stroke: #b0b0b0; stroke-width: 0.8; stroke-linecap: square"/>
     </g>
     <g id="line2d_24">
      <g>
       <use xlink:href="#me2e1466174" x="57.6" y="123.7248" style="stroke: #000000; stroke-width: 0.8"/>
      </g>
     </g>
     <g id="text_9">
      <!-- 0.6 -->
      <g transform="translate(25.155 129.80355)scale(0.16 -0.16)">
       <use xlink:href="#DejaVuSans-30"/>
       <use xlink:href="#DejaVuSans-2e" x="63.623047"/>
       <use xlink:href="#DejaVuSans-36" x="95.410156"/>
      </g>
     </g>
    </g>
    <g id="ytick_5">
     <g id="line2d_25">
      <path d="M 57.6 65.3184 
L 360.8064 65.3184 
" clip-path="url(#pa1fd79b1e5)" style="fill: none; stroke: #b0b0b0; stroke-width: 0.8; stroke-linecap: square"/>
     </g>
     <g id="line2d_26">
      <g>
       <use xlink:href="#me2e1466174" x="57.6" y="65.3184" style="stroke: #000000; stroke-width: 0.8"/>
      </g>
     </g>
     <g id="text_10">
      <!-- 0.8 -->
      <g transform="translate(25.155 71.39715)scale(0.16 -0.16)">
       <defs>
        <path id="DejaVuSans-38" d="M 2034 2216 
Q 1584 2216 1326 1975 
Q 1069 1734 1069 1313 
Q 1069 891 1326 650 
Q 1584 409 2034 409 
Q 2484 409 2743 651 
Q 3003 894 3003 1313 
Q 3003 1734 2745 1975 
Q 2488 2216 2034 2216 
z
M 1403 2484 
Q 997 2584 770 2862 
Q 544 3141 544 3541 
Q 544 4100 942 4425 
Q 1341 4750 2034 4750 
Q 2731 4750 3128 4425 
Q 3525 4100 3525 3541 
Q 3525 3141 3298 2862 
Q 3072 2584 2669 2484 
Q 3125 2378 3379 2068 
Q 3634 1759 3634 1313 
Q 3634 634 3220 271 
Q 2806 -91 2034 -91 
Q 1263 -91 848 271 
Q 434 634 434 1313 
Q 434 1759 690 2068 
Q 947 2378 1403 2484 
z
M 1172 3481 
Q 1172 3119 1398 2916 
Q 1625 2713 2034 2713 
Q 2441 2713 2670 2916 
Q 2900 3119 2900 3481 
Q 2900 3844 2670 4047 
Q 2441 4250 2034 4250 
Q 1625 4250 1398 4047 
Q 1172 3844 1172 3481 
z
" transform="scale(0.015625)"/>
       </defs>
       <use xlink:href="#DejaVuSans-30"/>
       <use xlink:href="#DejaVuSans-2e" x="63.623047"/>
       <use xlink:href="#DejaVuSans-38" x="95.410156"/>
      </g>
     </g>
    </g>
    <g id="ytick_6">
     <g id="line2d_27">
      <path d="M 57.6 6.912 
L 360.8064 6.912 
" clip-path="url(#pa1fd79b1e5)" style="fill: none; stroke: #b0b0b0; stroke-width: 0.8; stroke-linecap: square"/>
     </g>
     <g id="line2d_28">
      <g>
       <use xlink:href="#me2e1466174" x="57.6" y="6.912" style="stroke: #000000; stroke-width: 0.8"/>
      </g>
     </g>
     <g id="text_11">
      <!-- 1.0 -->
      <g transform="translate(25.155 12.99075)scale(0.16 -0.16)">
       <use xlink:href="#DejaVuSans-31"/>
       <use xlink:href="#DejaVuSans-2e" x="63.623047"/>
       <use xlink:href="#DejaVuSans-30" x="95.410156"/>
      </g>
     </g>
    </g>
    <g id="text_12">
     <!-- Fraction of function,target pairs -->
     <g transform="translate(17.619531 287.313)rotate(-90)scale(0.17 -0.17)">
      <defs>
       <path id="DejaVuSans-46" d="M 628 4666 
L 3309 4666 
L 3309 4134 
L 1259 4134 
L 1259 2759 
L 3109 2759 
L 3109 2228 
L 1259 2228 
L 1259 0 
L 628 0 
L 628 4666 
z
" transform="scale(0.015625)"/>
       <path id="DejaVuSans-72" d="M 2631 2963 
Q 2534 3019 2420 3045 
Q 2306 3072 2169 3072 
Q 1681 3072 1420 2755 
Q 1159 2438 1159 1844 
L 1159 0 
L 581 0 
L 581 3500 
L 1159 3500 
L 1159 2956 
Q 1341 3275 1631 3429 
Q 1922 3584 2338 3584 
Q 2397 3584 2469 3576 
Q 2541 3569 2628 3553 
L 2631 2963 
z
" transform="scale(0.015625)"/>
       <path id="DejaVuSans-63" d="M 3122 3366 
L 3122 2828 
Q 2878 2963 2633 3030 
Q 2388 3097 2138 3097 
Q 1578 3097 1268 2742 
Q 959 2388 959 1747 
Q 959 1106 1268 751 
Q 1578 397 2138 397 
Q 2388 397 2633 464 
Q 2878 531 3122 666 
L 3122 134 
Q 2881 22 2623 -34 
Q 2366 -91 2075 -91 
Q 1284 -91 818 406 
Q 353 903 353 1747 
Q 353 2603 823 3093 
Q 1294 3584 2113 3584 
Q 2378 3584 2631 3529 
Q 2884 3475 3122 3366 
z
" transform="scale(0.015625)"/>
       <path id="DejaVuSans-74" d="M 1172 4494 
L 1172 3500 
L 2356 3500 
L 2356 3053 
L 1172 3053 
L 1172 1153 
Q 1172 725 1289 603 
Q 1406 481 1766 481 
L 2356 481 
L 2356 0 
L 1766 0 
Q 1100 0 847 248 
Q 594 497 594 1153 
L 594 3053 
L 172 3053 
L 172 3500 
L 594 3500 
L 594 4494 
L 1172 4494 
z
" transform="scale(0.015625)"/>
       <path id="DejaVuSans-75" d="M 544 1381 
L 544 3500 
L 1119 3500 
L 1119 1403 
Q 1119 906 1312 657 
Q 1506 409 1894 409 
Q 2359 409 2629 706 
Q 2900 1003 2900 1516 
L 2900 3500 
L 3475 3500 
L 3475 0 
L 2900 0 
L 2900 538 
Q 2691 219 2414 64 
Q 2138 -91 1772 -91 
Q 1169 -91 856 284 
Q 544 659 544 1381 
z
M 1991 3584 
L 1991 3584 
z
" transform="scale(0.015625)"/>
       <path id="DejaVuSans-2c" d="M 750 794 
L 1409 794 
L 1409 256 
L 897 -744 
L 494 -744 
L 750 256 
L 750 794 
z
" transform="scale(0.015625)"/>
       <path id="DejaVuSans-70" d="M 1159 525 
L 1159 -1331 
L 581 -1331 
L 581 3500 
L 1159 3500 
L 1159 2969 
Q 1341 3281 1617 3432 
Q 1894 3584 2278 3584 
Q 2916 3584 3314 3078 
Q 3713 2572 3713 1747 
Q 3713 922 3314 415 
Q 2916 -91 2278 -91 
Q 1894 -91 1617 61 
Q 1341 213 1159 525 
z
M 3116 1747 
Q 3116 2381 2855 2742 
Q 2594 3103 2138 3103 
Q 1681 3103 1420 2742 
Q 1159 2381 1159 1747 
Q 1159 1113 1420 752 
Q 1681 391 2138 391 
Q 2594 391 2855 752 
Q 3116 1113 3116 1747 
z
" transform="scale(0.015625)"/>
      </defs>
      <use xlink:href="#DejaVuSans-46"/>
      <use xlink:href="#DejaVuSans-72" x="50.269531"/>
      <use xlink:href="#DejaVuSans-61" x="91.382812"/>
      <use xlink:href="#DejaVuSans-63" x="152.662109"/>
      <use xlink:href="#DejaVuSans-74" x="207.642578"/>
      <use xlink:href="#DejaVuSans-69" x="246.851562"/>
      <use xlink:href="#DejaVuSans-6f" x="274.634766"/>
      <use xlink:href="#DejaVuSans-6e" x="335.816406"/>
      <use xlink:href="#DejaVuSans-20" x="399.195312"/>
      <use xlink:href="#DejaVuSans-6f" x="430.982422"/>
      <use xlink:href="#DejaVuSans-66" x="492.164062"/>
      <use xlink:href="#DejaVuSans-20" x="527.369141"/>
      <use xlink:href="#DejaVuSans-66" x="559.15625"/>
      <use xlink:href="#DejaVuSans-75" x="594.361328"/>
      <use xlink:href="#DejaVuSans-6e" x="657.740234"/>
      <use xlink:href="#DejaVuSans-63" x="721.119141"/>
      <use xlink:href="#DejaVuSans-74" x="776.099609"/>
      <use xlink:href="#DejaVuSans-69" x="815.308594"/>
      <use xlink:href="#DejaVuSans-6f" x="843.091797"/>
      <use xlink:href="#DejaVuSans-6e" x="904.273438"/>
      <use xlink:href="#DejaVuSans-2c" x="967.652344"/>
      <use xlink:href="#DejaVuSans-74" x="999.439453"/>
      <use xlink:href="#DejaVuSans-61" x="1038.648438"/>
      <use xlink:href="#DejaVuSans-72" x="1099.927734"/>
      <use xlink:href="#DejaVuSans-67" x="1139.291016"/>
      <use xlink:href="#DejaVuSans-65" x="1202.767578"/>
      <use xlink:href="#DejaVuSans-74" x="1264.291016"/>
      <use xlink:href="#DejaVuSans-20" x="1303.5"/>
      <use xlink:href="#DejaVuSans-70" x="1335.287109"/>
      <use xlink:href="#DejaVuSans-61" x="1398.763672"/>
      <use xlink:href="#DejaVuSans-69" x="1460.042969"/>
      <use xlink:href="#DejaVuSans-72" x="1487.826172"/>
      <use xlink:href="#DejaVuSans-73" x="1528.939453"/>
     </g>
    </g>
   </g>
   <g id="line2d_29">
    <defs>
     <path id="mcdc0d0aa42" d="M 0 1.5 
C 0.397805 1.5 0.77937 1.341951 1.06066 1.06066 
C 1.341951 0.77937 1.5 0.397805 1.5 0 
C 1.5 -0.397805 1.341951 -0.77937 1.06066 -1.06066 
C 0.77937 -1.341951 0.397805 -1.5 0 -1.5 
C -0.397805 -1.5 -0.77937 -1.341951 -1.06066 -1.06066 
C -1.341951 -0.77937 -1.5 -0.397805 -1.5 0 
C -1.5 0.397805 -1.341951 0.77937 -1.06066 1.06066 
C -0.77937 1.341951 -0.397805 1.5 0 1.5 
z
" style="stroke: #000080"/>
    </defs>
    <g>
     <use xlink:href="#mcdc0d0aa42" x="273.505895" y="6.912" style="fill: #000080; stroke: #000080"/>
     <use xlink:href="#mcdc0d0aa42" x="273.505895" y="6.912" style="fill: #000080; stroke: #000080"/>
    </g>
   </g>
   <g id="line2d_30">
    <path d="M 134.620977 298.944 
L 134.620977 298.180518 
L 138.050729 298.180518 
L 138.050729 297.798776 
L 141.718467 297.798776 
L 141.718467 296.653553 
L 143.946089 296.653553 
L 143.946089 296.271812 
L 148.276979 296.271812 
L 148.276979 292.072659 
L 155.598521 292.072659 
L 155.598521 290.545694 
L 157.688143 290.545694 
L 157.688143 289.018729 
L 158.804221 289.018729 
L 158.804221 287.873506 
L 159.61025 287.873506 
L 159.61025 285.9648 
L 161.802848 285.9648 
L 161.913396 284.437835 
L 162.492258 284.437835 
L 162.527853 282.147388 
L 162.634233 282.147388 
L 162.634233 280.620424 
L 163.362513 280.620424 
L 163.362513 279.093459 
L 164.420735 279.093459 
L 164.420735 276.803012 
L 165.084184 276.803012 
L 165.1152 274.894306 
L 165.933882 274.894306 
L 166.022686 271.458635 
L 166.111072 271.458635 
L 166.111072 271.076894 
L 166.315707 271.076894 
L 166.315707 270.695153 
L 166.746854 270.695153 
L 166.746854 269.931671 
L 166.916583 269.931671 
L 166.916583 269.168188 
L 167.056864 269.168188 
L 167.140533 267.641224 
L 167.361848 267.641224 
L 167.361848 266.877741 
L 167.580589 266.877741 
L 167.580589 263.823812 
L 168.090128 263.823812 
L 168.090128 263.060329 
L 168.430973 263.060329 
L 168.534619 261.533365 
L 168.611979 261.533365 
L 168.611979 261.151624 
L 169.044448 261.151624 
L 169.044448 260.0064 
L 169.614163 260.0064 
L 169.687218 257.334212 
L 170.048295 257.334212 
L 170.048295 256.952471 
L 170.355719 256.952471 
L 170.355719 256.570729 
L 171.271304 256.570729 
L 171.271304 256.188988 
L 171.843395 256.188988 
L 171.843395 254.280282 
L 176.384671 254.280282 
L 176.435674 252.753318 
L 178.628705 252.753318 
L 178.628705 251.989835 
L 181.195331 251.989835 
L 181.195331 251.608094 
L 183.593219 251.608094 
L 183.639581 249.699388 
L 184.88257 249.699388 
L 184.88257 249.317647 
L 186.541048 249.317647 
L 186.620255 248.554165 
L 186.885142 248.554165 
L 186.885142 243.591529 
L 187.927337 243.591529 
L 187.927337 243.209788 
L 192.603677 243.209788 
L 192.603677 242.446306 
L 193.10024 242.446306 
L 193.10024 242.064565 
L 193.385111 242.064565 
L 193.385111 241.682824 
L 195.856488 241.682824 
L 195.856488 240.919341 
L 196.174268 240.919341 
L 196.174268 240.5376 
L 198.571401 240.5376 
L 198.571401 238.628894 
L 199.787433 238.628894 
L 199.787433 237.865412 
L 199.899946 237.865412 
L 199.934056 237.101929 
L 200.1663 237.101929 
L 200.219121 235.574965 
L 200.329089 235.574965 
L 200.329089 235.193224 
L 200.485754 235.193224 
L 200.485754 234.048 
L 200.62236 234.048 
L 200.62236 233.284518 
L 202.343473 233.284518 
L 202.343473 230.612329 
L 202.560655 230.612329 
L 202.624057 229.085365 
L 202.979358 229.085365 
L 202.979358 228.703624 
L 203.514126 228.703624 
L 203.514126 228.321882 
L 204.67681 228.321882 
L 204.67681 227.176659 
L 206.575383 227.176659 
L 206.606141 226.413176 
L 207.329622 226.413176 
L 207.329622 225.649694 
L 208.919834 225.649694 
L 208.965072 224.886212 
L 209.755516 224.886212 
L 209.755516 222.595765 
L 209.942325 222.595765 
L 209.942325 221.832282 
L 210.433457 221.832282 
L 210.433457 221.450541 
L 211.587007 221.450541 
L 211.587007 220.687059 
L 211.733178 220.687059 
L 211.782514 218.778353 
L 211.978577 218.778353 
L 211.978577 218.396612 
L 212.47498 218.396612 
L 212.512436 215.342682 
L 212.609473 215.342682 
L 212.624358 213.433976 
L 213.082452 213.433976 
L 213.082452 213.052235 
L 214.436217 213.052235 
L 214.539528 211.525271 
L 215.208375 211.525271 
L 215.208375 209.616565 
L 215.63367 209.616565 
L 215.635783 208.471341 
L 217.936027 208.471341 
L 217.936027 208.0896 
L 218.249391 208.0896 
L 218.295306 207.326118 
L 218.374019 207.326118 
L 218.470587 205.417412 
L 218.620827 205.417412 
L 218.620827 204.653929 
L 219.006279 204.653929 
L 219.006279 204.272188 
L 220.122394 204.272188 
L 220.122394 203.508706 
L 221.455624 203.508706 
L 221.455624 203.126965 
L 222.466916 203.126965 
L 222.512417 198.927812 
L 223.138133 198.927812 
L 223.138133 198.546071 
L 225.891524 198.546071 
L 225.962437 197.400847 
L 226.325022 197.400847 
L 226.434829 196.637365 
L 227.744827 196.637365 
L 227.744827 196.255624 
L 228.300432 196.255624 
L 228.300432 194.728659 
L 228.432527 194.728659 
L 228.432527 193.583435 
L 229.599517 193.583435 
L 229.64673 192.056471 
L 229.926561 192.056471 
L 229.926561 191.292988 
L 237.070396 191.292988 
L 237.070396 190.911247 
L 239.045493 190.911247 
L 239.052188 189.384282 
L 247.818305 189.384282 
L 247.818305 188.6208 
L 247.993145 188.6208 
L 247.993145 188.239059 
L 248.206817 188.239059 
L 248.309402 187.475576 
L 248.335053 187.475576 
L 248.366976 185.566871 
L 248.475332 185.566871 
L 248.479388 184.039906 
L 248.659176 184.039906 
L 248.76042 176.786824 
L 248.794893 176.786824 
L 248.804679 175.6416 
L 248.914873 175.6416 
L 248.958771 174.496376 
L 249.161808 174.496376 
L 249.260389 171.824188 
L 249.334868 171.824188 
L 249.438506 164.189365 
L 249.562818 164.189365 
L 249.562818 163.807624 
L 249.97828 163.807624 
L 250.066925 162.6624 
L 250.434008 162.6624 
L 250.434008 162.280659 
L 250.59547 162.280659 
L 250.657633 159.226729 
L 250.837046 159.226729 
L 250.915267 157.318024 
L 251.019596 157.318024 
L 251.094817 153.500612 
L 251.188903 153.500612 
L 251.232266 150.828424 
L 251.34309 150.828424 
L 251.380413 146.629271 
L 251.474656 146.629271 
L 251.518308 141.284894 
L 251.607807 141.284894 
L 251.607807 140.903153 
L 251.74746 140.903153 
L 251.854066 137.849224 
L 251.910369 137.849224 
L 251.969873 136.322259 
L 252.041396 136.322259 
L 252.041396 135.558776 
L 252.164548 135.558776 
L 252.246505 133.268329 
L 252.305258 133.268329 
L 252.415637 130.2144 
L 252.418328 130.2144 
L 252.478038 128.305694 
L 252.60015 128.305694 
L 252.706462 126.396988 
L 252.751463 126.396988 
L 252.849913 123.7248 
L 252.971966 123.7248 
L 253.019523 121.052612 
L 253.115719 121.052612 
L 253.209706 118.762165 
L 253.245224 118.762165 
L 253.306649 116.089976 
L 253.417561 116.089976 
L 253.472208 112.654306 
L 253.529233 112.654306 
L 253.604063 107.309929 
L 253.823454 107.309929 
L 253.869739 105.782965 
L 253.945711 105.782965 
L 254.025496 101.965553 
L 254.079228 101.965553 
L 254.170713 99.293365 
L 254.197936 99.293365 
L 254.301025 93.185506 
L 254.359372 93.185506 
L 254.382284 88.986353 
L 254.58484 88.986353 
L 254.615196 85.932424 
L 254.799998 85.932424 
L 254.799998 83.260235 
L 255.037194 83.260235 
L 255.136573 79.824565 
L 255.225903 79.824565 
L 255.306348 74.861929 
L 255.338891 74.861929 
L 255.380321 71.808 
L 255.480958 71.808 
L 255.590157 69.135812 
L 255.651445 69.135812 
L 255.651445 68.372329 
L 255.81441 68.372329 
L 255.837861 66.463624 
L 255.940797 66.463624 
L 256.009605 65.3184 
L 256.109888 65.3184 
L 256.208663 63.409694 
L 256.233092 63.409694 
L 256.342149 61.882729 
L 256.367861 61.882729 
L 256.409507 57.683576 
L 256.605596 57.683576 
L 256.672257 55.774871 
L 256.805821 55.774871 
L 256.906671 50.048753 
L 257.088343 50.048753 
L 257.120276 48.140047 
L 257.209262 48.140047 
L 257.246081 46.231341 
L 257.337469 46.231341 
L 257.440096 42.032188 
L 257.492228 42.032188 
L 257.496109 40.505224 
L 257.634623 40.505224 
L 257.742407 39.741741 
L 257.901257 39.741741 
L 257.911085 38.978259 
L 258.031728 38.978259 
L 258.090433 36.687812 
L 258.192344 36.687812 
L 258.209056 35.924329 
L 258.479429 35.924329 
L 258.479429 35.542588 
L 259.487142 35.542588 
L 259.487142 35.160847 
L 260.850987 35.160847 
L 260.958021 34.015624 
L 260.966186 34.015624 
L 261.002787 33.252141 
L 261.078419 33.252141 
L 261.127417 29.052988 
L 261.25721 29.052988 
L 261.25721 28.671247 
L 261.379243 28.671247 
L 261.441722 26.762541 
L 261.490892 26.762541 
L 261.490892 26.3808 
L 261.756323 26.3808 
L 261.762147 25.235576 
L 261.940354 25.235576 
L 261.940354 24.853835 
L 262.299033 24.853835 
L 262.350425 23.708612 
L 262.58911 23.708612 
L 262.58911 23.326871 
L 263.47883 23.326871 
L 263.47883 22.945129 
L 263.91667 22.945129 
L 263.91667 22.181647 
L 264.147622 22.181647 
L 264.210192 21.036424 
L 264.333919 21.036424 
L 264.333919 20.654682 
L 264.617612 20.654682 
L 264.617612 19.127718 
L 264.772684 19.127718 
L 264.847736 17.982494 
L 264.905869 17.982494 
L 264.905869 16.455529 
L 265.034907 16.455529 
L 265.034907 14.546824 
L 266.463823 14.546824 
L 266.463823 14.165082 
L 266.754927 14.165082 
L 266.816506 11.111153 
L 272.746501 11.111153 
L 272.776921 8.820706 
L 272.859518 8.820706 
L 272.859518 7.675482 
L 273.300976 7.675482 
L 273.300976 7.293741 
L 273.505895 7.293741 
L 273.505895 6.912 
L 360.8064 6.912 
L 360.8064 6.912 
" style="fill: none; stroke: #000080; stroke-width: 1.5; stroke-linecap: square"/>
   </g>
   <g id="line2d_31">
    <defs>
     <path id="mdcf0dd94fe" d="M 0 6 
C 1.591219 6 3.117479 5.367802 4.242641 4.242641 
C 5.367802 3.117479 6 1.591219 6 0 
C 6 -1.591219 5.367802 -3.117479 4.242641 -4.242641 
C 3.117479 -5.367802 1.591219 -6 0 -6 
C -1.591219 -6 -3.117479 -5.367802 -4.242641 -4.242641 
C -5.367802 -3.117479 -6 -1.591219 -6 0 
C -6 1.591219 -5.367802 3.117479 -4.242641 4.242641 
C -3.117479 5.367802 -1.591219 6 0 6 
z
" style="stroke: #000080; stroke-width: 1.5"/>
    </defs>
    <g>
     <use xlink:href="#mdcf0dd94fe" x="187.927337" y="243.209788" style="fill-opacity: 0; stroke: #000080; stroke-width: 1.5"/>
     <use xlink:href="#mdcf0dd94fe" x="251.361445" y="148.919718" style="fill-opacity: 0; stroke: #000080; stroke-width: 1.5"/>
     <use xlink:href="#mdcf0dd94fe" x="265.034907" y="14.546824" style="fill-opacity: 0; stroke: #000080; stroke-width: 1.5"/>
     <use xlink:href="#mdcf0dd94fe" x="273.505895" y="6.912" style="fill-opacity: 0; stroke: #000080; stroke-width: 1.5"/>
     <use xlink:href="#mdcf0dd94fe" x="360.8064" y="6.912" style="fill-opacity: 0; stroke: #000080; stroke-width: 1.5"/>
    </g>
   </g>
   <g id="line2d_32">
    <path style="fill: none; stroke: #000080; stroke-width: 1.5; stroke-linecap: square"/>
    <g/>
   </g>
   <g id="line2d_33">
    <defs>
     <path id="mb4d373b916" d="M 0 1.5 
C 0.397805 1.5 0.77937 1.341951 1.06066 1.06066 
C 1.341951 0.77937 1.5 0.397805 1.5 0 
C 1.5 -0.397805 1.341951 -0.77937 1.06066 -1.06066 
C 0.77937 -1.341951 0.397805 -1.5 0 -1.5 
C -0.397805 -1.5 -0.77937 -1.341951 -1.06066 -1.06066 
C -1.341951 -0.77937 -1.5 -0.397805 -1.5 0 
C -1.5 0.397805 -1.341951 0.77937 -1.06066 1.06066 
C -0.77937 1.341951 -0.397805 1.5 0 1.5 
z
" style="stroke: #ff00ff"/>
    </defs>
    <g>
     <use xlink:href="#mb4d373b916" x="297.057309" y="6.912" style="fill: #ff00ff; stroke: #ff00ff"/>
     <use xlink:href="#mb4d373b916" x="297.057309" y="6.912" style="fill: #ff00ff; stroke: #ff00ff"/>
    </g>
   </g>
   <g id="line2d_34">
    <path d="M 127.227236 298.944 
L 127.227236 297.798776 
L 129.826058 297.798776 
L 129.826058 297.417035 
L 141.50224 297.417035 
L 141.50224 297.035294 
L 142.038218 297.035294 
L 142.038218 296.653553 
L 148.352679 296.653553 
L 148.352679 295.126588 
L 155.495444 295.126588 
L 155.495444 292.836141 
L 157.410135 292.836141 
L 157.456756 291.690918 
L 159.61025 291.690918 
L 159.61025 290.927435 
L 161.542347 290.927435 
L 161.579783 281.765647 
L 161.691646 281.765647 
L 161.691646 280.620424 
L 161.876619 280.620424 
L 161.876619 279.4752 
L 162.023298 279.4752 
L 162.023298 278.329976 
L 162.527853 278.329976 
L 162.527853 277.184753 
L 162.880139 277.184753 
L 162.984551 272.603859 
L 163.191653 272.603859 
L 163.191653 271.840376 
L 164.452864 271.840376 
L 164.452864 270.695153 
L 164.676244 270.695153 
L 164.676244 269.549929 
L 164.834193 269.549929 
L 164.834193 268.404706 
L 165.146166 268.404706 
L 165.146166 267.641224 
L 165.45305 267.641224 
L 165.45305 265.350776 
L 165.604634 265.350776 
L 165.604634 263.823812 
L 165.933882 263.823812 
L 165.96353 262.296847 
L 166.286609 262.296847 
L 166.286609 261.151624 
L 166.431649 261.151624 
L 166.431649 260.769882 
L 166.575579 260.769882 
L 166.575579 260.388141 
L 167.140533 260.388141 
L 167.196106 259.624659 
L 167.306762 259.624659 
L 167.306762 259.242918 
L 168.010586 259.242918 
L 168.116567 257.715953 
L 168.404973 257.715953 
L 168.456938 254.662024 
L 169.368578 254.662024 
L 169.368578 252.371576 
L 172.250727 252.371576 
L 172.250727 251.989835 
L 175.0442 251.989835 
L 175.0442 251.608094 
L 175.171736 251.608094 
L 175.171736 250.844612 
L 177.889089 250.844612 
L 177.889089 250.462871 
L 182.008023 250.462871 
L 182.008023 247.408941 
L 184.05178 247.408941 
L 184.05178 245.881976 
L 185.098054 245.881976 
L 185.098054 244.736753 
L 191.743277 244.736753 
L 191.743277 241.301082 
L 192.248116 241.301082 
L 192.248116 240.5376 
L 195.210614 240.5376 
L 195.210614 239.774118 
L 199.092759 239.774118 
L 199.092759 239.010635 
L 199.968104 239.010635 
L 199.968104 238.247153 
L 202.167039 238.247153 
L 202.171362 237.101929 
L 208.259173 237.101929 
L 208.315383 236.338447 
L 209.633814 236.338447 
L 209.633814 234.811482 
L 210.439029 234.811482 
L 210.439029 232.139294 
L 211.613192 232.139294 
L 211.613192 231.757553 
L 211.978577 231.757553 
L 211.978577 231.375812 
L 212.23348 231.375812 
L 212.23348 230.994071 
L 214.361751 230.994071 
L 214.361751 230.612329 
L 217.638263 230.612329 
L 217.638263 230.230588 
L 219.449664 230.230588 
L 219.449664 228.703624 
L 221.523731 228.703624 
L 221.523731 228.321882 
L 222.18412 228.321882 
L 222.197541 227.176659 
L 222.310497 227.176659 
L 222.369676 225.649694 
L 223.842309 225.649694 
L 223.842309 225.267953 
L 231.041461 225.267953 
L 231.041461 224.886212 
L 231.589556 224.886212 
L 231.589556 224.504471 
L 232.081629 224.504471 
L 232.089561 221.832282 
L 245.337713 221.832282 
L 245.337713 221.450541 
L 245.457579 221.450541 
L 245.457579 221.0688 
L 245.60205 221.0688 
L 245.60205 220.687059 
L 245.855521 220.687059 
L 245.927861 213.052235 
L 246.201991 213.052235 
L 246.201991 212.670494 
L 246.345007 212.670494 
L 246.443449 208.471341 
L 246.46603 208.471341 
L 246.565883 203.890447 
L 246.996014 203.890447 
L 247.023519 203.126965 
L 247.398576 203.126965 
L 247.48273 201.218259 
L 247.536299 201.218259 
L 247.536299 200.454776 
L 247.668402 200.454776 
L 247.741011 199.309553 
L 247.986713 199.309553 
L 248.055089 198.546071 
L 248.105174 198.546071 
L 248.113446 197.782588 
L 248.335053 197.782588 
L 248.358073 196.637365 
L 248.611645 196.637365 
L 248.674507 193.965176 
L 248.77095 193.965176 
L 248.879898 192.819953 
L 248.995035 192.819953 
L 249.066997 188.6208 
L 249.123371 188.6208 
L 249.233845 184.039906 
L 249.252961 184.039906 
L 249.252961 183.276424 
L 249.439557 183.276424 
L 249.464763 182.512941 
L 249.603147 182.512941 
L 249.692882 174.496376 
L 249.763261 174.496376 
L 249.813469 172.587671 
L 249.88032 172.587671 
L 249.973854 170.678965 
L 250.035047 170.678965 
L 250.117682 169.533741 
L 250.235585 169.533741 
L 250.30062 167.243294 
L 250.347414 167.243294 
L 250.347414 166.861553 
L 250.468534 166.861553 
L 250.468534 165.716329 
L 250.593493 165.716329 
L 250.593493 164.952847 
L 250.759151 164.952847 
L 250.8455 160.371953 
L 250.898417 160.371953 
L 251.001871 159.608471 
L 251.054672 159.608471 
L 251.054672 159.226729 
L 251.171337 159.226729 
L 251.269492 156.936282 
L 251.302202 156.936282 
L 251.370299 150.828424 
L 251.468996 150.828424 
L 251.513602 149.301459 
L 251.604684 149.301459 
L 251.670763 147.774494 
L 251.773162 147.774494 
L 251.778732 145.484047 
L 251.93769 145.484047 
L 252.000777 143.1936 
L 252.076752 143.1936 
L 252.15424 139.376188 
L 252.262492 139.376188 
L 252.325402 133.650071 
L 252.465813 133.650071 
L 252.515261 131.359624 
L 252.6114 131.359624 
L 252.646588 130.2144 
L 252.809541 130.2144 
L 252.87999 128.305694 
L 252.953955 128.305694 
L 253.01315 126.015247 
L 253.130409 126.015247 
L 253.230338 122.961318 
L 253.415576 122.961318 
L 253.511749 121.434353 
L 253.601255 121.434353 
L 253.640526 119.525647 
L 253.845086 119.525647 
L 253.889107 117.998682 
L 254.005719 117.998682 
L 254.050736 115.708235 
L 254.152997 115.708235 
L 254.237882 109.218635 
L 254.287222 109.218635 
L 254.311573 108.455153 
L 254.398439 108.455153 
L 254.46051 101.583812 
L 254.522377 101.583812 
L 254.625303 97.7664 
L 254.634077 97.7664 
L 254.73005 93.567247 
L 254.762549 93.567247 
L 254.831587 90.131576 
L 254.887527 90.131576 
L 254.918708 88.986353 
L 255.058775 88.986353 
L 255.162434 86.314165 
L 255.240321 86.314165 
L 255.3084 85.168941 
L 255.392069 85.168941 
L 255.4624 78.679341 
L 255.533736 78.679341 
L 255.565383 77.152376 
L 255.667805 77.152376 
L 255.765919 71.426259 
L 255.830878 71.426259 
L 255.89462 68.372329 
L 255.980182 68.372329 
L 256.073483 61.882729 
L 256.185915 61.882729 
L 256.185915 61.119247 
L 256.364952 61.119247 
L 256.447682 58.447059 
L 256.496856 58.447059 
L 256.544703 56.156612 
L 256.642898 56.156612 
L 256.720611 53.484424 
L 256.846037 53.484424 
L 256.906435 51.575718 
L 257.011669 51.575718 
L 257.122605 50.048753 
L 257.270125 50.048753 
L 257.355188 46.994824 
L 257.417644 46.994824 
L 257.465265 44.322635 
L 257.565152 44.322635 
L 257.66881 42.795671 
L 257.688931 42.795671 
L 257.777298 39.741741 
L 257.903714 39.741741 
L 257.960593 37.451294 
L 258.090433 37.451294 
L 258.090433 37.069553 
L 258.382986 37.069553 
L 258.382986 35.924329 
L 258.508223 35.924329 
L 258.540428 34.779106 
L 258.679635 34.779106 
L 258.694206 34.015624 
L 258.796742 34.015624 
L 258.897026 30.961694 
L 259.096005 30.961694 
L 259.102294 29.434729 
L 259.264662 29.434729 
L 259.264662 29.052988 
L 259.448495 29.052988 
L 259.537592 26.3808 
L 259.56563 26.3808 
L 259.638496 25.235576 
L 259.704383 25.235576 
L 259.782173 22.181647 
L 259.850783 22.181647 
L 259.930179 21.036424 
L 260.475588 21.036424 
L 260.475588 20.654682 
L 260.614969 20.654682 
L 260.660365 17.982494 
L 260.857479 17.982494 
L 260.85977 17.219012 
L 260.976244 17.219012 
L 260.976244 16.455529 
L 261.1545 16.455529 
L 261.1545 16.073788 
L 261.279439 16.073788 
L 261.279439 15.692047 
L 268.037173 15.692047 
L 268.037173 15.310306 
L 268.334748 15.310306 
L 268.354497 14.165082 
L 268.477778 14.165082 
L 268.477778 13.783341 
L 268.708489 13.783341 
L 268.708489 10.729412 
L 269.209786 10.729412 
L 269.209786 9.965929 
L 274.027083 9.965929 
L 274.027083 9.584188 
L 278.610485 9.584188 
L 278.610485 9.202447 
L 279.772529 9.202447 
L 279.772529 8.820706 
L 280.711761 8.820706 
L 280.722855 8.057224 
L 284.895478 8.057224 
L 284.895478 7.675482 
L 291.022016 7.675482 
L 291.022016 7.293741 
L 297.057309 7.293741 
L 297.057309 6.912 
L 360.8064 6.912 
L 360.8064 6.912 
" style="fill: none; stroke: #ff00ff; stroke-width: 1.5; stroke-linecap: square"/>
   </g>
   <g id="line2d_35">
    <defs>
     <path id="m240dee16a6" d="M 0 8.485281 
L 5.091169 0 
L 0 -8.485281 
L -5.091169 0 
z
" style="stroke: #ff00ff; stroke-width: 1.5; stroke-linejoin: miter"/>
    </defs>
    <g>
     <use xlink:href="#m240dee16a6" x="219.449664" y="230.230588" style="fill-opacity: 0; stroke: #ff00ff; stroke-width: 1.5; stroke-linejoin: miter"/>
     <use xlink:href="#m240dee16a6" x="254.050736" y="116.089976" style="fill-opacity: 0; stroke: #ff00ff; stroke-width: 1.5; stroke-linejoin: miter"/>
     <use xlink:href="#m240dee16a6" x="297.057309" y="7.293741" style="fill-opacity: 0; stroke: #ff00ff; stroke-width: 1.5; stroke-linejoin: miter"/>
     <use xlink:href="#m240dee16a6" x="297.057309" y="6.912" style="fill-opacity: 0; stroke: #ff00ff; stroke-width: 1.5; stroke-linejoin: miter"/>
     <use xlink:href="#m240dee16a6" x="360.8064" y="6.912" style="fill-opacity: 0; stroke: #ff00ff; stroke-width: 1.5; stroke-linejoin: miter"/>
    </g>
   </g>
   <g id="line2d_36">
    <path style="fill: none; stroke: #ff00ff; stroke-width: 1.5; stroke-linecap: square"/>
    <g/>
   </g>
   <g id="line2d_37">
    <path d="M 274.176 9.584188 
" clip-path="url(#pa1fd79b1e5)" style="fill: none; stroke: #ff00ff; stroke-width: 1.5; stroke-linecap: square"/>
    <defs>
     <path id="m3dab81ef7b" d="M -12 12 
L 12 -12 
M -12 -12 
L 12 12 
" style="stroke: #ff00ff"/>
    </defs>
    <g clip-path="url(#pa1fd79b1e5)">
     <use xlink:href="#m3dab81ef7b" x="274.176" y="9.584188" style="fill: #ff00ff; stroke: #ff00ff"/>
    </g>
   </g>
   <g id="line2d_38">
    <defs>
     <path id="m76446bc68b" d="M 0 1.5 
C 0.397805 1.5 0.77937 1.341951 1.06066 1.06066 
C 1.341951 0.77937 1.5 0.397805 1.5 0 
C 1.5 -0.397805 1.341951 -0.77937 1.06066 -1.06066 
C 0.77937 -1.341951 0.397805 -1.5 0 -1.5 
C -0.397805 -1.5 -0.77937 -1.341951 -1.06066 -1.06066 
C -1.341951 -0.77937 -1.5 -0.397805 -1.5 0 
C -1.5 0.397805 -1.341951 0.77937 -1.06066 1.06066 
C -0.77937 1.341951 -0.397805 1.5 0 1.5 
z
" style="stroke: #ff7500"/>
    </defs>
    <g>
     <use xlink:href="#m76446bc68b" x="285.416221" y="6.912" style="fill: #ff7500; stroke: #ff7500"/>
     <use xlink:href="#m76446bc68b" x="285.416221" y="6.912" style="fill: #ff7500; stroke: #ff7500"/>
    </g>
   </g>
   <g id="line2d_39">
    <path d="M 109.159456 298.944 
L 109.159456 298.562259 
L 126.028642 298.562259 
L 126.028642 297.417035 
L 128.999044 297.417035 
L 128.999044 294.744847 
L 140.382174 294.744847 
L 140.382174 292.072659 
L 141.50224 292.072659 
L 141.50224 291.309176 
L 145.93763 291.309176 
L 145.93763 290.163953 
L 147.816265 290.163953 
L 147.816265 289.782212 
L 153.421349 289.782212 
L 153.421349 289.400471 
L 154.703817 289.400471 
L 154.703817 288.636988 
L 156.745011 288.636988 
L 156.745011 287.873506 
L 156.88953 287.873506 
L 156.88953 287.491765 
L 159.019705 287.491765 
L 159.019705 286.728282 
L 161.579783 286.728282 
L 161.579783 285.9648 
L 162.05979 285.9648 
L 162.05979 284.819576 
L 162.634233 284.819576 
L 162.740015 281.383906 
L 163.157294 281.383906 
L 163.22595 278.711718 
L 163.632702 278.711718 
L 163.632702 277.948235 
L 163.766354 277.948235 
L 163.865975 275.276047 
L 163.932096 275.276047 
L 163.96507 274.512565 
L 164.063646 274.512565 
L 164.063646 273.749082 
L 164.580835 273.749082 
L 164.580835 270.313412 
L 164.70794 270.313412 
L 164.70794 268.786447 
L 164.959603 268.786447 
L 165.053116 266.496 
L 165.1152 266.496 
L 165.1152 265.350776 
L 165.664928 265.350776 
L 165.664928 264.205553 
L 165.993131 264.205553 
L 166.022686 263.060329 
L 166.111072 263.060329 
L 166.169767 260.0064 
L 166.286609 260.0064 
L 166.373767 256.570729 
L 166.431649 256.570729 
L 166.489353 253.5168 
L 166.632844 253.5168 
L 166.632844 252.371576 
L 166.746854 252.371576 
L 166.746854 251.608094 
L 167.16834 251.608094 
L 167.16834 248.554165 
L 167.607754 248.554165 
L 167.716022 246.645459 
L 167.823671 246.645459 
L 167.823671 246.263718 
L 168.611979 246.263718 
L 168.611979 245.881976 
L 170.308749 245.881976 
L 170.308749 243.973271 
L 171.360458 243.973271 
L 171.360458 243.591529 
L 171.756506 243.591529 
L 171.756506 243.209788 
L 172.208263 243.209788 
L 172.208263 240.919341 
L 172.377547 240.919341 
L 172.377547 237.865412 
L 172.62865 237.865412 
L 172.732295 236.720188 
L 172.794209 236.720188 
L 172.814802 235.574965 
L 172.978738 235.574965 
L 172.978738 235.193224 
L 175.007602 235.193224 
L 175.007602 234.811482 
L 175.988986 234.811482 
L 175.988986 234.429741 
L 176.282249 234.429741 
L 176.282249 234.048 
L 177.651866 234.048 
L 177.667774 233.284518 
L 178.734177 233.284518 
L 178.734177 231.375812 
L 179.311218 231.375812 
L 179.325784 230.230588 
L 181.009863 230.230588 
L 181.009863 229.085365 
L 182.46945 229.085365 
L 182.567747 225.267953 
L 183.60482 225.267953 
L 183.60482 224.886212 
L 186.089188 224.886212 
L 186.089188 224.504471 
L 186.708966 224.504471 
L 186.816825 223.359247 
L 187.069333 223.359247 
L 187.069333 222.595765 
L 187.37553 222.595765 
L 187.37553 222.214024 
L 187.676822 222.214024 
L 187.676822 221.832282 
L 187.881197 221.832282 
L 187.881197 220.687059 
L 188.835937 220.687059 
L 188.94103 219.160094 
L 190.018694 219.160094 
L 190.018694 214.5792 
L 193.713228 214.5792 
L 193.713228 214.197459 
L 197.028561 214.197459 
L 197.028561 212.288753 
L 202.162715 212.288753 
L 202.240396 210.761788 
L 202.653572 210.761788 
L 202.653572 210.380047 
L 205.349453 210.380047 
L 205.349453 209.234824 
L 205.671583 209.234824 
L 205.671583 208.853082 
L 205.835939 208.853082 
L 205.835939 207.326118 
L 205.98123 207.326118 
L 205.98123 206.944376 
L 212.412387 206.944376 
L 212.412387 206.562635 
L 216.741518 206.562635 
L 216.775357 205.417412 
L 217.702738 205.417412 
L 217.702738 205.035671 
L 220.107406 205.035671 
L 220.107406 204.653929 
L 224.263723 204.653929 
L 224.263723 204.272188 
L 231.386688 204.272188 
L 231.386688 203.126965 
L 232.217764 203.126965 
L 232.222139 200.454776 
L 232.437011 200.454776 
L 232.528476 195.1104 
L 233.016188 195.1104 
L 233.038821 193.583435 
L 238.618205 193.583435 
L 238.618205 193.201694 
L 239.260367 193.201694 
L 239.260367 192.819953 
L 239.765094 192.819953 
L 239.765094 192.056471 
L 240.375551 192.056471 
L 240.375551 191.292988 
L 240.967369 191.292988 
L 240.967369 190.911247 
L 241.356304 190.911247 
L 241.356304 190.529506 
L 243.227335 190.529506 
L 243.227335 190.147765 
L 244.615606 190.147765 
L 244.704133 189.384282 
L 244.796282 189.384282 
L 244.822719 188.239059 
L 245.246872 188.239059 
L 245.246872 187.857318 
L 245.50514 187.857318 
L 245.605916 187.093835 
L 245.657816 187.093835 
L 245.721103 184.803388 
L 245.95655 184.803388 
L 246.044875 181.367718 
L 246.290002 181.367718 
L 246.384611 176.786824 
L 246.534429 176.786824 
L 246.624565 172.969412 
L 246.661148 172.969412 
L 246.661148 172.205929 
L 246.777739 172.205929 
L 246.875553 164.952847 
L 246.892408 164.952847 
L 246.95488 159.608471 
L 247.005585 159.608471 
L 247.066888 156.936282 
L 247.139872 156.936282 
L 247.227947 155.027576 
L 247.434075 155.027576 
L 247.468341 152.355388 
L 247.602853 152.355388 
L 247.661857 151.210165 
L 247.781993 151.210165 
L 247.885773 146.629271 
L 248.13073 146.629271 
L 248.13073 146.247529 
L 248.250157 146.247529 
L 248.250157 145.865788 
L 248.578301 145.865788 
L 248.578301 144.338824 
L 248.79598 144.338824 
L 248.882785 143.575341 
L 248.926757 143.575341 
L 248.926757 143.1936 
L 249.081642 143.1936 
L 249.151851 142.048376 
L 249.198038 142.048376 
L 249.198038 141.666635 
L 249.459165 141.666635 
L 249.518216 139.757929 
L 249.642351 139.757929 
L 249.648241 138.994447 
L 249.762572 138.994447 
L 249.827545 138.230965 
L 249.96602 138.230965 
L 250.043191 133.650071 
L 250.476161 133.650071 
L 250.571405 131.359624 
L 250.772537 131.359624 
L 250.772537 130.977882 
L 250.923363 130.977882 
L 250.933396 127.160471 
L 251.149918 127.160471 
L 251.149918 123.343059 
L 251.375989 123.343059 
L 251.375989 122.961318 
L 251.541819 122.961318 
L 251.628088 122.197835 
L 252.018196 122.197835 
L 252.018196 121.816094 
L 252.351228 121.816094 
L 252.446714 117.616941 
L 252.46462 117.616941 
L 252.46462 116.471718 
L 252.582669 116.471718 
L 252.636837 113.036047 
L 252.754695 113.036047 
L 252.865688 110.363859 
L 252.915844 110.363859 
L 253.025315 108.455153 
L 253.027052 108.455153 
L 253.099 106.546447 
L 253.157453 106.546447 
L 253.257811 101.583812 
L 253.28296 101.583812 
L 253.28296 101.202071 
L 253.402811 101.202071 
L 253.499331 99.675106 
L 253.532615 99.675106 
L 253.638565 97.002918 
L 253.771489 97.002918 
L 253.813183 93.948988 
L 254.172892 93.948988 
L 254.272326 88.986353 
L 254.373661 88.986353 
L 254.467752 82.878494 
L 254.498029 82.878494 
L 254.520772 81.351529 
L 254.709147 81.351529 
L 254.723702 79.442824 
L 254.928654 79.442824 
L 254.980132 77.915859 
L 255.343499 77.915859 
L 255.343499 77.534118 
L 255.535763 77.534118 
L 255.57297 76.007153 
L 255.669063 76.007153 
L 255.773926 71.044518 
L 255.808667 71.044518 
L 255.91524 68.754071 
L 256.207685 68.754071 
L 256.301327 67.990588 
L 256.5411 67.990588 
L 256.644809 67.227106 
L 256.682748 67.227106 
L 256.750799 62.264471 
L 256.820261 62.264471 
L 256.820261 61.882729 
L 256.940089 61.882729 
L 256.940089 59.974024 
L 257.164706 59.974024 
L 257.164706 59.592282 
L 257.309131 59.592282 
L 257.344374 58.447059 
L 257.784269 58.447059 
L 257.784269 58.065318 
L 257.913764 58.065318 
L 257.913764 57.683576 
L 258.089327 57.683576 
L 258.189264 53.866165 
L 258.26261 53.866165 
L 258.26261 53.484424 
L 258.431269 53.484424 
L 258.431269 53.102682 
L 258.741912 53.102682 
L 258.741912 52.720941 
L 259.016582 52.720941 
L 259.073347 51.957459 
L 259.148141 51.957459 
L 259.211389 50.812235 
L 259.283977 50.812235 
L 259.319648 50.048753 
L 259.69423 50.048753 
L 259.738253 48.903529 
L 259.863871 48.903529 
L 259.863871 48.521788 
L 260.022418 48.521788 
L 260.116393 46.231341 
L 260.210295 46.231341 
L 260.22432 45.467859 
L 260.443411 45.467859 
L 260.443411 45.086118 
L 260.603942 45.086118 
L 260.707577 44.322635 
L 260.727389 44.322635 
L 260.728543 43.559153 
L 261.029104 43.559153 
L 261.098788 42.032188 
L 261.170468 42.032188 
L 261.170468 41.650447 
L 261.331083 41.650447 
L 261.383328 40.886965 
L 261.450974 40.886965 
L 261.530725 36.306071 
L 261.583521 36.306071 
L 261.673869 34.779106 
L 261.933863 34.779106 
L 261.938911 34.015624 
L 262.136163 34.015624 
L 262.136163 33.633882 
L 262.588414 33.633882 
L 262.623558 32.8704 
L 263.013199 32.8704 
L 263.013199 32.488659 
L 263.259978 32.488659 
L 263.261994 31.343435 
L 264.745841 31.343435 
L 264.745841 30.961694 
L 265.775502 30.961694 
L 265.775502 30.579953 
L 266.681522 30.579953 
L 266.756183 29.816471 
L 267.772398 29.816471 
L 267.772398 29.434729 
L 268.053981 29.434729 
L 268.053981 28.671247 
L 268.395851 28.671247 
L 268.463893 27.907765 
L 268.545906 27.907765 
L 268.569617 27.144282 
L 268.66517 27.144282 
L 268.745935 20.654682 
L 268.997817 20.654682 
L 268.997817 20.272941 
L 269.206601 20.272941 
L 269.206601 19.509459 
L 269.320179 19.509459 
L 269.320179 19.127718 
L 269.499403 19.127718 
L 269.599479 17.600753 
L 269.625493 17.600753 
L 269.634116 16.073788 
L 269.752171 16.073788 
L 269.810032 15.310306 
L 270.023065 15.310306 
L 270.027405 14.546824 
L 270.214449 14.546824 
L 270.294854 13.019859 
L 270.387691 13.019859 
L 270.437323 9.584188 
L 270.521581 9.584188 
L 270.58191 8.057224 
L 280.165172 8.057224 
L 280.165172 7.675482 
L 281.170681 7.675482 
L 281.170681 7.293741 
L 285.416221 7.293741 
L 285.416221 6.912 
L 360.8064 6.912 
L 360.8064 6.912 
" style="fill: none; stroke: #ff7500; stroke-width: 1.5; stroke-linecap: square"/>
   </g>
   <g id="line2d_40">
    <defs>
     <path id="m27f56fbca6" d="M 0 -6 
L -1.347084 -1.854102 
L -5.706339 -1.854102 
L -2.179628 0.708204 
L -3.526712 4.854102 
L -0 2.291796 
L 3.526712 4.854102 
L 2.179628 0.708204 
L 5.706339 -1.854102 
L 1.347084 -1.854102 
z
" style="stroke: #ff7500; stroke-width: 1.5; stroke-linejoin: bevel"/>
    </defs>
    <g>
     <use xlink:href="#m27f56fbca6" x="190.018694" y="214.5792" style="fill-opacity: 0; stroke: #ff7500; stroke-width: 1.5; stroke-linejoin: bevel"/>
     <use xlink:href="#m27f56fbca6" x="254.37447" y="87.077647" style="fill-opacity: 0; stroke: #ff7500; stroke-width: 1.5; stroke-linejoin: bevel"/>
     <use xlink:href="#m27f56fbca6" x="285.416221" y="7.293741" style="fill-opacity: 0; stroke: #ff7500; stroke-width: 1.5; stroke-linejoin: bevel"/>
     <use xlink:href="#m27f56fbca6" x="285.416221" y="6.912" style="fill-opacity: 0; stroke: #ff7500; stroke-width: 1.5; stroke-linejoin: bevel"/>
     <use xlink:href="#m27f56fbca6" x="360.8064" y="6.912" style="fill-opacity: 0; stroke: #ff7500; stroke-width: 1.5; stroke-linejoin: bevel"/>
    </g>
   </g>
   <g id="line2d_41">
    <path style="fill: none; stroke: #ff7500; stroke-width: 1.5; stroke-linecap: square"/>
    <g/>
   </g>
   <g id="line2d_42">
    <path d="M 274.176 8.057224 
" clip-path="url(#pa1fd79b1e5)" style="fill: none; stroke: #ff7500; stroke-width: 1.5; stroke-linecap: square"/>
    <defs>
     <path id="ma61f20b44b" d="M -12 12 
L 12 -12 
M -12 -12 
L 12 12 
" style="stroke: #ff7500"/>
    </defs>
    <g clip-path="url(#pa1fd79b1e5)">
     <use xlink:href="#ma61f20b44b" x="274.176" y="8.057224" style="fill: #ff7500; stroke: #ff7500"/>
    </g>
   </g>
   <g id="line2d_43">
    <defs>
     <path id="m357174f4d2" d="M 0 1.5 
C 0.397805 1.5 0.77937 1.341951 1.06066 1.06066 
C 1.341951 0.77937 1.5 0.397805 1.5 0 
C 1.5 -0.397805 1.341951 -0.77937 1.06066 -1.06066 
C 0.77937 -1.341951 0.397805 -1.5 0 -1.5 
C -0.397805 -1.5 -0.77937 -1.341951 -1.06066 -1.06066 
C -1.341951 -0.77937 -1.5 -0.397805 -1.5 0 
C -1.5 0.397805 -1.341951 0.77937 -1.06066 1.06066 
C -0.77937 1.341951 -0.397805 1.5 0 1.5 
z
" style="stroke: #6495ed"/>
    </defs>
    <g>
     <use xlink:href="#m357174f4d2" x="345.836441" y="6.912" style="fill: #6495ed; stroke: #6495ed"/>
     <use xlink:href="#m357174f4d2" x="345.836441" y="6.912" style="fill: #6495ed; stroke: #6495ed"/>
    </g>
   </g>
   <g id="line2d_44">
    <path d="M 57.6 298.944 
L 57.6 296.271812 
L 65.227428 296.271812 
L 65.227428 293.217882 
L 78.266603 293.217882 
L 78.266603 292.4544 
L 83.678349 292.4544 
L 83.678349 291.690918 
L 89.668958 291.690918 
L 89.668958 290.163953 
L 91.305777 290.163953 
L 91.305777 289.018729 
L 92.811505 289.018729 
L 92.811505 287.110024 
L 96.717523 287.110024 
L 96.717523 285.583059 
L 105.112877 285.583059 
L 105.112877 285.201318 
L 105.850679 285.201318 
L 105.850679 284.056094 
L 107.244765 284.056094 
L 107.244765 282.529129 
L 109.159456 282.529129 
L 109.159456 282.147388 
L 109.756698 282.147388 
L 109.756698 281.002165 
L 113.478107 281.002165 
L 113.478107 280.620424 
L 115.314838 280.620424 
L 115.314838 279.856941 
L 115.747307 279.856941 
L 115.747307 279.093459 
L 116.170056 279.093459 
L 116.170056 278.711718 
L 122.19863 278.711718 
L 122.19863 278.329976 
L 125.011554 278.329976 
L 125.011554 277.184753 
L 125.526971 277.184753 
L 125.526971 276.803012 
L 126.993549 276.803012 
L 126.993549 276.421271 
L 128.57149 276.421271 
L 128.57149 275.276047 
L 129.209231 275.276047 
L 129.209231 274.894306 
L 133.154399 274.894306 
L 133.154399 273.367341 
L 135.687504 273.367341 
L 135.687504 272.222118 
L 136.126705 272.222118 
L 136.126705 270.695153 
L 137.113304 270.695153 
L 137.113304 270.313412 
L 138.818654 270.313412 
L 138.818654 269.168188 
L 139.676658 269.168188 
L 139.676658 268.404706 
L 143.166224 268.404706 
L 143.166224 266.877741 
L 143.462475 266.877741 
L 143.462475 265.350776 
L 144.136106 265.350776 
L 144.136106 264.587294 
L 149.381693 264.587294 
L 149.381693 264.205553 
L 152.715833 264.205553 
L 152.715833 263.442071 
L 153.593669 263.442071 
L 153.593669 262.678588 
L 156.155566 262.678588 
L 156.155566 261.533365 
L 156.937458 261.533365 
L 156.937458 261.151624 
L 159.527013 261.151624 
L 159.527013 260.0064 
L 161.087207 260.0064 
L 161.087207 259.624659 
L 161.542347 259.624659 
L 161.542347 258.861176 
L 162.05979 258.861176 
L 162.05979 258.479435 
L 162.420867 258.479435 
L 162.420867 256.570729 
L 162.810208 256.570729 
L 162.915008 255.043765 
L 163.088387 255.043765 
L 163.088387 253.135059 
L 163.294355 253.135059 
L 163.328465 250.462871 
L 163.565517 250.462871 
L 163.565517 250.081129 
L 164.259262 250.081129 
L 164.291668 249.317647 
L 164.70794 249.317647 
L 164.70794 248.935906 
L 165.392072 248.935906 
L 165.392072 248.172424 
L 165.544147 248.172424 
L 165.544147 247.408941 
L 165.695002 247.408941 
L 165.725029 246.263718 
L 165.874446 246.263718 
L 165.874446 245.881976 
L 166.169767 245.881976 
L 166.257466 245.118494 
L 166.460523 245.118494 
L 166.460523 244.355012 
L 166.8036 244.355012 
L 166.8036 243.973271 
L 166.916583 243.973271 
L 166.972821 242.828047 
L 167.028891 242.828047 
L 167.112684 242.064565 
L 167.16834 242.064565 
L 167.16834 241.301082 
L 167.361848 241.301082 
L 167.361848 240.5376 
L 167.607754 240.5376 
L 167.661966 239.774118 
L 168.010586 239.774118 
L 168.010586 239.392376 
L 168.169334 239.392376 
L 168.169334 238.628894 
L 168.300609 238.628894 
L 168.300609 238.247153 
L 168.637696 238.247153 
L 168.663377 235.956706 
L 169.319074 235.956706 
L 169.319074 235.574965 
L 169.442591 235.574965 
L 169.442591 234.811482 
L 169.928705 234.811482 
L 169.928705 234.429741 
L 170.704306 234.429741 
L 170.704306 234.048 
L 170.93316 234.048 
L 170.93316 232.521035 
L 171.404878 232.521035 
L 171.404878 232.139294 
L 171.537509 232.139294 
L 171.537509 231.757553 
L 175.388379 231.757553 
L 175.388379 230.230588 
L 175.77919 230.230588 
L 175.77919 229.467106 
L 176.179266 229.467106 
L 176.265124 228.703624 
L 177.200883 228.703624 
L 177.200883 228.321882 
L 178.03 228.321882 
L 178.03 227.940141 
L 178.400683 227.940141 
L 178.400683 227.5584 
L 178.628705 227.5584 
L 178.628705 227.176659 
L 178.86892 227.176659 
L 178.86892 226.794918 
L 179.179617 226.794918 
L 179.179617 226.413176 
L 179.456369 226.413176 
L 179.456369 226.031435 
L 179.842775 226.031435 
L 179.842775 225.649694 
L 182.702072 225.649694 
L 182.702072 225.267953 
L 183.063612 225.267953 
L 183.063612 224.886212 
L 183.66272 224.886212 
L 183.75499 223.740988 
L 183.84681 223.740988 
L 183.938184 222.977506 
L 184.153434 222.977506 
L 184.153434 222.595765 
L 187.871955 222.595765 
L 187.871955 222.214024 
L 188.70374 222.214024 
L 188.70374 221.0688 
L 189.29573 221.0688 
L 189.29573 220.305318 
L 190.272631 220.305318 
L 190.272631 219.541835 
L 191.569409 219.541835 
L 191.569409 218.396612 
L 192.860689 218.396612 
L 192.860689 218.014871 
L 193.211923 218.014871 
L 193.211923 217.633129 
L 193.364413 217.633129 
L 193.364413 217.251388 
L 193.787622 217.251388 
L 193.787622 216.869647 
L 195.75949 216.869647 
L 195.82623 216.106165 
L 196.013051 216.106165 
L 196.013051 215.724424 
L 196.316422 215.724424 
L 196.316422 214.197459 
L 197.260074 214.197459 
L 197.327298 210.761788 
L 197.862051 210.761788 
L 197.862051 208.471341 
L 198.291925 208.471341 
L 198.291925 208.0896 
L 198.660172 208.0896 
L 198.660172 207.326118 
L 200.641125 207.326118 
L 200.641125 206.562635 
L 200.874117 206.562635 
L 200.961903 205.799153 
L 202.543711 205.799153 
L 202.543711 205.035671 
L 203.793768 205.035671 
L 203.793768 203.508706 
L 205.246957 203.508706 
L 205.246957 202.363482 
L 205.693102 202.363482 
L 205.75394 200.836518 
L 205.974169 200.836518 
L 205.974169 198.927812 
L 206.177881 198.927812 
L 206.177881 198.546071 
L 206.623207 198.546071 
L 206.623207 197.400847 
L 206.857146 197.400847 
L 206.857146 196.637365 
L 206.974708 196.637365 
L 206.974708 196.255624 
L 207.094868 196.255624 
L 207.144708 195.492141 
L 207.270384 195.492141 
L 207.270384 195.1104 
L 207.512737 195.1104 
L 207.512737 193.583435 
L 207.940619 193.583435 
L 207.940619 193.201694 
L 208.224739 193.201694 
L 208.2623 191.674729 
L 208.572422 191.674729 
L 208.572422 191.292988 
L 208.798664 191.292988 
L 208.88659 190.529506 
L 208.965072 190.529506 
L 209.037228 189.766024 
L 209.165819 189.766024 
L 209.266876 189.002541 
L 209.305373 189.002541 
L 209.305373 187.857318 
L 209.426272 187.857318 
L 209.426272 187.475576 
L 209.581414 187.475576 
L 209.581414 187.093835 
L 209.723717 187.093835 
L 209.78726 184.803388 
L 209.973756 184.803388 
L 209.973756 184.421647 
L 210.214879 184.421647 
L 210.310469 183.276424 
L 213.430136 183.276424 
L 213.430136 182.512941 
L 214.402406 182.512941 
L 214.402406 182.1312 
L 215.039018 182.1312 
L 215.039018 181.749459 
L 220.574675 181.749459 
L 220.574675 180.222494 
L 226.200116 180.222494 
L 226.200116 179.840753 
L 226.50847 179.840753 
L 226.50847 179.459012 
L 227.327299 179.459012 
L 227.344316 178.695529 
L 228.009364 178.695529 
L 228.078193 176.023341 
L 229.773718 176.023341 
L 229.773718 174.878118 
L 230.047751 174.878118 
L 230.047751 174.496376 
L 230.3604 174.496376 
L 230.3604 173.351153 
L 230.614646 173.351153 
L 230.685983 171.824188 
L 231.155699 171.824188 
L 231.155699 170.678965 
L 232.161673 170.678965 
L 232.161673 169.533741 
L 232.948968 169.533741 
L 233.019543 168.388518 
L 233.124911 168.388518 
L 233.124911 168.006776 
L 233.398111 168.006776 
L 233.398111 166.479812 
L 233.63821 166.479812 
L 233.744214 163.807624 
L 234.039632 163.807624 
L 234.039632 163.425882 
L 234.323443 163.425882 
L 234.323443 161.898918 
L 234.56754 161.898918 
L 234.653077 161.135435 
L 234.701453 161.135435 
L 234.70452 158.844988 
L 234.921028 158.844988 
L 234.921028 158.463247 
L 236.144664 158.463247 
L 236.214848 157.699765 
L 236.681684 157.699765 
L 236.778759 156.936282 
L 236.806893 156.936282 
L 236.806893 156.554541 
L 237.477723 156.554541 
L 237.509455 155.027576 
L 238.143981 155.027576 
L 238.200734 153.882353 
L 238.603253 153.882353 
L 238.603253 151.210165 
L 239.429323 151.210165 
L 239.429323 150.828424 
L 239.777394 150.828424 
L 239.798461 149.301459 
L 239.962674 149.301459 
L 239.962674 148.537976 
L 242.808905 148.537976 
L 242.858677 147.011012 
L 242.971665 147.011012 
L 243.041202 145.102306 
L 245.577547 145.102306 
L 245.623947 143.957082 
L 245.927861 143.957082 
L 245.927861 143.1936 
L 246.451663 143.1936 
L 246.451663 142.811859 
L 257.389886 142.811859 
L 257.413517 140.521412 
L 257.844422 140.521412 
L 257.845319 139.757929 
L 268.596967 139.757929 
L 268.608478 138.612706 
L 268.723954 138.612706 
L 268.82698 137.849224 
L 269.098988 137.849224 
L 269.200721 135.940518 
L 269.282518 135.940518 
L 269.345001 133.268329 
L 269.424237 133.268329 
L 269.453639 131.359624 
L 270.358102 131.359624 
L 270.458996 130.2144 
L 270.469766 130.2144 
L 270.571432 128.687435 
L 270.591472 128.687435 
L 270.683879 124.870024 
L 270.761404 124.870024 
L 270.86353 122.579576 
L 270.874631 122.579576 
L 270.880347 120.670871 
L 271.193642 120.670871 
L 271.193642 120.289129 
L 271.309125 120.289129 
L 271.396555 119.525647 
L 271.492587 119.525647 
L 271.546532 117.998682 
L 271.771683 117.998682 
L 271.840709 116.853459 
L 271.944781 116.853459 
L 271.944781 116.089976 
L 272.076695 116.089976 
L 272.172464 110.7456 
L 272.233155 110.7456 
L 272.291052 107.691671 
L 272.492505 107.691671 
L 272.598975 106.928188 
L 272.612778 106.928188 
L 272.672067 103.874259 
L 272.898013 103.874259 
L 273.006523 102.347294 
L 273.01853 102.347294 
L 273.061293 98.148141 
L 273.236225 98.148141 
L 273.244232 97.002918 
L 273.561856 97.002918 
L 273.561856 96.621176 
L 274.23957 96.621176 
L 274.253625 95.857694 
L 274.392214 95.857694 
L 274.498749 93.567247 
L 274.506144 93.567247 
L 274.549625 92.803765 
L 274.670489 92.803765 
L 274.773369 88.604612 
L 274.970243 88.604612 
L 274.970243 88.222871 
L 275.234468 88.222871 
L 275.234468 87.841129 
L 275.673767 87.841129 
L 275.72685 86.695906 
L 276.090982 86.695906 
L 276.175745 85.932424 
L 276.21427 85.932424 
L 276.311415 83.260235 
L 276.352345 83.260235 
L 276.352681 80.969788 
L 276.515513 80.969788 
L 276.515513 80.588047 
L 276.767888 80.588047 
L 276.820182 79.442824 
L 276.978387 79.442824 
L 276.978387 79.061082 
L 277.428245 79.061082 
L 277.45418 76.770635 
L 277.895943 76.770635 
L 277.895943 76.007153 
L 280.63652 76.007153 
L 280.642324 74.480188 
L 280.76869 74.480188 
L 280.76869 73.716706 
L 284.63173 73.716706 
L 284.63173 72.953224 
L 284.945791 72.953224 
L 284.988932 68.754071 
L 285.44833 68.754071 
L 285.545509 67.608847 
L 285.585246 67.608847 
L 285.639428 66.463624 
L 285.783036 66.463624 
L 285.783036 65.700141 
L 286.051402 65.700141 
L 286.083744 64.936659 
L 286.196529 64.936659 
L 286.2963 63.409694 
L 286.449797 63.409694 
L 286.478234 61.882729 
L 286.587032 61.882729 
L 286.656438 57.683576 
L 287.254027 57.683576 
L 287.265428 56.920094 
L 287.519516 56.920094 
L 287.519516 56.538353 
L 287.751852 56.538353 
L 287.751852 56.156612 
L 288.124705 56.156612 
L 288.124705 55.774871 
L 288.276265 55.774871 
L 288.33498 52.720941 
L 288.668504 52.720941 
L 288.668504 51.957459 
L 288.925583 51.957459 
L 288.925583 51.575718 
L 289.201763 51.575718 
L 289.201763 51.193976 
L 290.724823 51.193976 
L 290.798863 50.048753 
L 293.163427 50.048753 
L 293.163427 49.667012 
L 293.297667 49.667012 
L 293.388088 48.903529 
L 293.801934 48.903529 
L 293.801934 48.521788 
L 294.174772 48.521788 
L 294.174772 47.758306 
L 294.42618 47.758306 
L 294.472729 46.231341 
L 295.008881 46.231341 
L 295.020686 45.467859 
L 295.469015 45.467859 
L 295.555729 43.940894 
L 295.581671 43.940894 
L 295.596497 40.886965 
L 296.004132 40.886965 
L 296.004132 40.505224 
L 296.166019 40.505224 
L 296.169175 39.741741 
L 297.252942 39.741741 
L 297.306017 37.833035 
L 299.153858 37.833035 
L 299.180192 36.687812 
L 299.48172 36.687812 
L 299.48172 36.306071 
L 299.977055 36.306071 
L 300.025698 34.397365 
L 300.791712 34.397365 
L 300.822583 32.106918 
L 302.088707 32.106918 
L 302.131403 30.579953 
L 303.580016 30.579953 
L 303.592879 29.434729 
L 304.230518 29.434729 
L 304.230518 28.289506 
L 304.772593 28.289506 
L 304.772593 27.907765 
L 304.898942 27.907765 
L 304.907978 25.617318 
L 307.157939 25.617318 
L 307.157939 25.235576 
L 307.700519 25.235576 
L 307.700519 24.853835 
L 308.2625 24.853835 
L 308.2625 24.472094 
L 310.160643 24.472094 
L 310.160643 24.090353 
L 310.623963 24.090353 
L 310.623963 23.708612 
L 311.101896 23.708612 
L 311.108394 22.181647 
L 311.370913 22.181647 
L 311.370913 21.799906 
L 311.852895 21.799906 
L 311.87706 20.272941 
L 312.751324 20.272941 
L 312.764111 18.745976 
L 313.57901 18.745976 
L 313.579786 17.982494 
L 315.028028 17.982494 
L 315.028028 17.600753 
L 315.386468 17.600753 
L 315.386468 17.219012 
L 315.758802 17.219012 
L 315.763875 16.455529 
L 317.066531 16.455529 
L 317.066531 16.073788 
L 317.715985 16.073788 
L 317.720557 14.928565 
L 318.264674 14.928565 
L 318.264674 14.546824 
L 321.112245 14.546824 
L 321.112276 13.783341 
L 323.518411 13.783341 
L 323.518411 13.4016 
L 323.984877 13.4016 
L 323.984877 12.638118 
L 325.271427 12.638118 
L 325.271843 11.874635 
L 325.626171 11.874635 
L 325.626171 11.492894 
L 326.476374 11.492894 
L 326.476374 10.729412 
L 327.224498 10.729412 
L 327.224498 10.347671 
L 328.982008 10.347671 
L 328.982008 9.965929 
L 329.686531 9.965929 
L 329.686531 9.584188 
L 330.643103 9.584188 
L 330.643103 9.202447 
L 333.259578 9.202447 
L 333.259578 8.820706 
L 334.056032 8.820706 
L 334.056032 8.057224 
L 334.82013 8.057224 
L 334.82013 7.675482 
L 335.554399 7.675482 
L 335.554399 7.293741 
L 345.836441 7.293741 
L 345.836441 6.912 
L 360.8064 6.912 
L 360.8064 6.912 
" style="fill: none; stroke: #6495ed; stroke-width: 1.5; stroke-linecap: square"/>
   </g>
   <g id="line2d_45">
    <defs>
     <path id="mebcb61b041" d="M -0 6 
L 6 -6 
L -6 -6 
z
" style="stroke: #6495ed; stroke-width: 1.5; stroke-linejoin: miter"/>
    </defs>
    <g>
     <use xlink:href="#mebcb61b041" x="208.88659" y="190.911247" style="fill-opacity: 0; stroke: #6495ed; stroke-width: 1.5; stroke-linejoin: miter"/>
     <use xlink:href="#mebcb61b041" x="280.76869" y="74.480188" style="fill-opacity: 0; stroke: #6495ed; stroke-width: 1.5; stroke-linejoin: miter"/>
     <use xlink:href="#mebcb61b041" x="345.836441" y="6.912" style="fill-opacity: 0; stroke: #6495ed; stroke-width: 1.5; stroke-linejoin: miter"/>
     <use xlink:href="#mebcb61b041" x="345.836441" y="6.912" style="fill-opacity: 0; stroke: #6495ed; stroke-width: 1.5; stroke-linejoin: miter"/>
     <use xlink:href="#mebcb61b041" x="360.8064" y="6.912" style="fill-opacity: 0; stroke: #6495ed; stroke-width: 1.5; stroke-linejoin: miter"/>
    </g>
   </g>
   <g id="line2d_46">
    <path style="fill: none; stroke: #6495ed; stroke-width: 1.5; stroke-linecap: square"/>
    <g/>
   </g>
   <g id="line2d_47">
    <path d="M 274.176 96.621176 
" clip-path="url(#pa1fd79b1e5)" style="fill: none; stroke: #6495ed; stroke-width: 1.5; stroke-linecap: square"/>
    <defs>
     <path id="m7f36677ee3" d="M -12 12 
L 12 -12 
M -12 -12 
L 12 12 
" style="stroke: #6495ed"/>
    </defs>
    <g clip-path="url(#pa1fd79b1e5)">
     <use xlink:href="#m7f36677ee3" x="274.176" y="96.621176" style="fill: #6495ed; stroke: #6495ed"/>
    </g>
   </g>
   <g id="line2d_48">
    <defs>
     <path id="md6f6ac5ba9" d="M 0 1.5 
C 0.397805 1.5 0.77937 1.341951 1.06066 1.06066 
C 1.341951 0.77937 1.5 0.397805 1.5 0 
C 1.5 -0.397805 1.341951 -0.77937 1.06066 -1.06066 
C 0.77937 -1.341951 0.397805 -1.5 0 -1.5 
C -0.397805 -1.5 -0.77937 -1.341951 -1.06066 -1.06066 
C -1.341951 -0.77937 -1.5 -0.397805 -1.5 0 
C -1.5 0.397805 -1.341951 0.77937 -1.06066 1.06066 
C -0.77937 1.341951 -0.397805 1.5 0 1.5 
z
" style="stroke: #ff0000"/>
    </defs>
    <g>
     <use xlink:href="#md6f6ac5ba9" x="296.980649" y="6.912" style="fill: #ff0000; stroke: #ff0000"/>
     <use xlink:href="#md6f6ac5ba9" x="296.980649" y="6.912" style="fill: #ff0000; stroke: #ff0000"/>
    </g>
   </g>
   <g id="line2d_49">
    <path d="M 44.560826 298.944 
L 44.560826 270.313412 
L 57.6 270.313412 
L 57.6 258.861176 
L 65.227428 258.861176 
L 65.227428 248.935906 
L 70.639174 248.935906 
L 70.639174 248.554165 
L 74.836851 248.554165 
L 74.836851 245.118494 
L 78.266603 245.118494 
L 78.266603 242.064565 
L 81.166416 242.064565 
L 81.166416 241.682824 
L 83.678349 241.682824 
L 83.678349 240.155859 
L 85.894031 240.155859 
L 85.894031 239.010635 
L 91.305777 239.010635 
L 91.305777 237.483671 
L 92.811505 237.483671 
L 92.811505 236.720188 
L 94.205591 236.720188 
L 94.205591 234.048 
L 102.708132 234.048 
L 102.708132 232.139294 
L 103.544339 232.139294 
L 103.544339 229.848847 
L 107.244765 229.848847 
L 107.244765 229.467106 
L 109.159456 229.467106 
L 109.159456 229.085365 
L 113.478107 229.085365 
L 113.478107 228.703624 
L 113.954374 228.703624 
L 113.954374 227.5584 
L 115.747307 227.5584 
L 115.747307 224.886212 
L 117.772007 224.886212 
L 117.772007 223.740988 
L 123.374735 223.740988 
L 123.374735 222.595765 
L 124.210942 222.595765 
L 124.210942 221.832282 
L 125.011554 221.832282 
L 125.011554 221.450541 
L 126.274549 221.450541 
L 126.274549 221.0688 
L 128.354013 221.0688 
L 128.354013 220.305318 
L 131.563744 220.305318 
L 131.563744 213.815718 
L 135.085483 213.815718 
L 135.085483 210.761788 
L 135.835047 210.761788 
L 135.835047 210.380047 
L 135.981441 210.380047 
L 135.981441 209.616565 
L 137.250116 209.616565 
L 137.250116 208.471341 
L 144.510478 208.471341 
L 144.510478 206.180894 
L 144.694906 206.180894 
L 144.694906 205.799153 
L 144.968202 205.799153 
L 144.968202 204.653929 
L 146.362288 204.653929 
L 146.362288 203.508706 
L 147.423525 203.508706 
L 147.423525 202.745224 
L 149.73597 202.745224 
L 149.73597 201.981741 
L 153.821002 201.981741 
L 153.877408 200.073035 
L 160.541906 200.073035 
L 160.541906 199.691294 
L 161.240147 199.691294 
L 161.240147 199.309553 
L 161.579783 199.309553 
L 161.579783 198.546071 
L 161.728786 198.546071 
L 161.728786 197.782588 
L 161.876619 197.782588 
L 161.876619 197.019106 
L 162.132562 197.019106 
L 162.205054 195.492141 
L 162.277267 195.492141 
L 162.277267 195.1104 
L 162.420867 195.1104 
L 162.420867 194.728659 
L 162.880139 194.728659 
L 162.915008 193.583435 
L 163.22595 193.583435 
L 163.328465 190.529506 
L 163.565517 190.529506 
L 163.565517 189.002541 
L 163.699647 189.002541 
L 163.79962 186.330353 
L 163.96507 186.330353 
L 163.96507 185.185129 
L 164.194282 185.185129 
L 164.259262 182.1312 
L 164.356312 182.1312 
L 164.356312 181.367718 
L 164.834193 181.367718 
L 164.834193 180.985976 
L 164.990826 180.985976 
L 165.053116 177.168565 
L 165.17708 177.168565 
L 165.17708 175.6416 
L 165.300233 175.6416 
L 165.361509 174.496376 
L 165.604634 174.496376 
L 165.604634 174.114635 
L 165.933882 174.114635 
L 165.96353 173.351153 
L 166.111072 173.351153 
L 166.140442 171.442447 
L 166.431649 171.442447 
L 166.460523 168.388518 
L 166.575579 168.388518 
L 166.632844 162.6624 
L 166.689935 162.6624 
L 166.775248 161.898918 
L 166.972821 161.898918 
L 166.972821 160.371953 
L 167.112684 160.371953 
L 167.112684 159.990212 
L 167.223831 159.990212 
L 167.334325 157.318024 
L 167.444174 157.318024 
L 167.471536 156.554541 
L 167.580589 156.554541 
L 167.661966 154.645835 
L 167.742992 154.645835 
L 167.823671 152.355388 
L 167.877265 152.355388 
L 167.877265 149.6832 
L 168.037137 149.6832 
L 168.037137 149.301459 
L 168.169334 149.301459 
L 168.221954 148.156235 
L 168.456938 148.156235 
L 168.456938 147.774494 
L 168.79126 147.774494 
L 168.79126 147.392753 
L 169.044448 147.392753 
L 169.044448 146.247529 
L 169.491772 146.247529 
L 169.565302 144.720565 
L 169.880655 144.720565 
L 169.880655 144.338824 
L 170.119687 144.338824 
L 170.214455 142.048376 
L 170.773255 142.048376 
L 170.773255 140.903153 
L 170.9104 140.903153 
L 170.9104 140.521412 
L 171.11426 140.521412 
L 171.20416 137.849224 
L 171.603476 137.849224 
L 171.71291 135.558776 
L 171.756506 135.558776 
L 171.756506 134.795294 
L 172.123046 134.795294 
L 172.144386 134.031812 
L 172.91743 134.031812 
L 172.91743 131.359624 
L 173.60083 131.359624 
L 173.60083 130.977882 
L 173.914037 130.977882 
L 173.914037 130.596141 
L 174.241203 130.596141 
L 174.241203 130.2144 
L 174.600249 130.2144 
L 174.600249 129.832659 
L 175.262307 129.832659 
L 175.262307 128.305694 
L 175.655719 128.305694 
L 175.655719 127.923953 
L 176.282249 127.923953 
L 176.282249 127.542212 
L 176.738821 127.542212 
L 176.738821 127.160471 
L 177.492039 127.160471 
L 177.492039 126.015247 
L 179.282053 126.015247 
L 179.282053 125.633506 
L 179.771814 125.633506 
L 179.856935 124.870024 
L 179.955757 124.870024 
L 179.997952 122.197835 
L 180.23528 122.197835 
L 180.23528 121.434353 
L 182.395389 121.434353 
L 182.395389 120.670871 
L 182.787055 120.670871 
L 182.787055 119.907388 
L 186.261169 119.907388 
L 186.261169 119.525647 
L 189.836378 119.525647 
L 189.836378 119.143906 
L 193.618117 119.143906 
L 193.618117 118.762165 
L 198.382021 118.762165 
L 198.382021 118.380424 
L 200.386209 118.380424 
L 200.386209 117.998682 
L 200.827749 117.998682 
L 200.827749 117.616941 
L 202.467276 117.616941 
L 202.467276 117.2352 
L 203.626482 117.2352 
L 203.626482 116.853459 
L 204.190063 116.853459 
L 204.190063 116.471718 
L 207.339477 116.471718 
L 207.339477 116.089976 
L 208.62157 116.089976 
L 208.639968 114.563012 
L 209.314246 114.563012 
L 209.346743 112.654306 
L 211.006916 112.654306 
L 211.006916 112.272565 
L 211.394742 112.272565 
L 211.394742 111.890824 
L 212.096262 111.890824 
L 212.096262 111.509082 
L 216.830959 111.509082 
L 216.830959 109.600376 
L 217.61165 109.600376 
L 217.61165 106.928188 
L 218.280625 106.928188 
L 218.280625 106.546447 
L 222.210953 106.546447 
L 222.210953 106.164706 
L 225.235907 106.164706 
L 225.280249 103.874259 
L 230.843862 103.874259 
L 230.843862 103.492518 
L 232.138838 103.492518 
L 232.138838 103.110776 
L 236.774638 103.110776 
L 236.774638 102.729035 
L 238.840448 102.729035 
L 238.840448 102.347294 
L 239.096558 102.347294 
L 239.096558 101.965553 
L 240.031541 101.965553 
L 240.117992 101.202071 
L 240.923347 101.202071 
L 240.923347 99.675106 
L 244.046602 99.675106 
L 244.126693 98.529882 
L 244.309342 98.529882 
L 244.347038 97.384659 
L 244.558021 97.384659 
L 244.558021 96.621176 
L 244.798524 96.621176 
L 244.798524 96.239435 
L 244.916518 96.239435 
L 244.916518 95.857694 
L 245.03909 95.857694 
L 245.086394 93.948988 
L 245.207868 93.948988 
L 245.253437 92.803765 
L 245.502549 92.803765 
L 245.565929 91.2768 
L 245.614075 91.2768 
L 245.614075 90.895059 
L 246.118582 90.895059 
L 246.119 90.131576 
L 246.249369 90.131576 
L 246.249369 89.749835 
L 246.471364 89.749835 
L 246.526251 88.986353 
L 246.679819 88.986353 
L 246.784195 87.077647 
L 246.857478 87.077647 
L 246.883581 85.932424 
L 246.976057 85.932424 
L 247.083572 83.641976 
L 247.092703 83.641976 
L 247.12918 82.878494 
L 247.221247 82.878494 
L 247.225189 81.733271 
L 247.355183 81.733271 
L 247.432906 79.442824 
L 247.51225 79.442824 
L 247.570766 77.915859 
L 247.715303 77.915859 
L 247.786584 75.625412 
L 247.840821 75.625412 
L 247.858358 74.480188 
L 247.979899 74.480188 
L 248.032073 71.426259 
L 248.224016 71.426259 
L 248.224016 71.044518 
L 248.388846 71.044518 
L 248.491182 69.899294 
L 248.532402 69.899294 
L 248.533873 68.754071 
L 248.659541 68.754071 
L 248.717512 67.990588 
L 248.816633 67.990588 
L 248.915954 61.500988 
L 249.064495 61.500988 
L 249.115175 55.774871 
L 249.176735 55.774871 
L 249.176735 54.629647 
L 249.306665 54.629647 
L 249.400279 53.484424 
L 249.51682 53.484424 
L 249.617034 52.3392 
L 249.679051 52.3392 
L 249.767737 50.812235 
L 249.91895 50.812235 
L 249.98747 47.758306 
L 250.804167 47.758306 
L 250.889337 46.231341 
L 250.997035 46.231341 
L 250.99768 43.559153 
L 251.238316 43.559153 
L 251.243728 42.413929 
L 251.417978 42.413929 
L 251.491627 41.650447 
L 251.621226 41.650447 
L 251.621226 41.268706 
L 251.957313 41.268706 
L 251.957313 40.886965 
L 252.438352 40.886965 
L 252.438352 40.505224 
L 252.760862 40.505224 
L 252.760862 40.123482 
L 252.94349 40.123482 
L 252.94349 39.741741 
L 254.796045 39.741741 
L 254.897752 38.978259 
L 254.985089 38.978259 
L 255.040055 35.542588 
L 255.727838 35.542588 
L 255.828134 34.397365 
L 255.891886 34.397365 
L 255.939806 32.106918 
L 256.206218 32.106918 
L 256.206218 30.579953 
L 256.370527 30.579953 
L 256.426187 28.289506 
L 256.488188 28.289506 
L 256.488188 27.907765 
L 257.996194 27.907765 
L 257.996194 27.526024 
L 258.61414 27.526024 
L 258.61414 27.144282 
L 258.727164 27.144282 
L 258.749602 26.3808 
L 261.328104 26.3808 
L 261.396134 25.235576 
L 262.197427 25.235576 
L 262.197427 24.472094 
L 262.872381 24.472094 
L 262.872381 24.090353 
L 263.863857 24.090353 
L 263.863857 23.708612 
L 264.764465 23.708612 
L 264.764465 23.326871 
L 269.881075 23.326871 
L 269.881075 22.181647 
L 270.231044 22.181647 
L 270.231044 18.745976 
L 270.772904 18.745976 
L 270.772904 18.364235 
L 274.103813 18.364235 
L 274.109289 17.600753 
L 277.141218 17.600753 
L 277.141218 17.219012 
L 278.269474 17.219012 
L 278.304473 16.455529 
L 278.755635 16.455529 
L 278.760353 15.692047 
L 279.133172 15.692047 
L 279.133172 15.310306 
L 279.968562 15.310306 
L 279.975474 14.165082 
L 280.35826 14.165082 
L 280.360426 12.638118 
L 281.034001 12.638118 
L 281.034001 12.256376 
L 282.163647 12.256376 
L 282.163647 11.874635 
L 285.345919 11.874635 
L 285.345919 11.111153 
L 287.278041 11.111153 
L 287.278041 10.729412 
L 287.901627 10.729412 
L 287.901627 10.347671 
L 288.756148 10.347671 
L 288.756148 9.965929 
L 289.523556 9.965929 
L 289.572412 9.202447 
L 289.806858 9.202447 
L 289.806858 8.820706 
L 290.304271 8.820706 
L 290.337524 8.057224 
L 290.551341 8.057224 
L 290.551341 7.675482 
L 293.617293 7.675482 
L 293.617293 7.293741 
L 296.980649 7.293741 
L 296.980649 6.912 
L 360.8064 6.912 
L 360.8064 6.912 
" style="fill: none; stroke: #ff0000; stroke-width: 1.5; stroke-linecap: square"/>
   </g>
   <g id="line2d_50">
    <defs>
     <path id="mee5e9b4a55" d="M 0 -6 
L -5.196152 -3 
L -5.196152 3 
L -0 6 
L 5.196152 3 
L 5.196152 -3 
z
" style="stroke: #ff0000; stroke-width: 1.5; stroke-linejoin: miter"/>
    </defs>
    <g>
     <use xlink:href="#mee5e9b4a55" x="94.205591" y="234.048" style="fill-opacity: 0; stroke: #ff0000; stroke-width: 1.5; stroke-linejoin: miter"/>
     <use xlink:href="#mee5e9b4a55" x="172.91743" y="131.359624" style="fill-opacity: 0; stroke: #ff0000; stroke-width: 1.5; stroke-linejoin: miter"/>
     <use xlink:href="#mee5e9b4a55" x="246.118582" y="90.513318" style="fill-opacity: 0; stroke: #ff0000; stroke-width: 1.5; stroke-linejoin: miter"/>
     <use xlink:href="#mee5e9b4a55" x="287.901627" y="10.729412" style="fill-opacity: 0; stroke: #ff0000; stroke-width: 1.5; stroke-linejoin: miter"/>
     <use xlink:href="#mee5e9b4a55" x="296.980649" y="6.912" style="fill-opacity: 0; stroke: #ff0000; stroke-width: 1.5; stroke-linejoin: miter"/>
     <use xlink:href="#mee5e9b4a55" x="360.8064" y="6.912" style="fill-opacity: 0; stroke: #ff0000; stroke-width: 1.5; stroke-linejoin: miter"/>
    </g>
   </g>
   <g id="line2d_51">
    <path style="fill: none; stroke: #ff0000; stroke-width: 1.5; stroke-linecap: square"/>
    <g/>
   </g>
   <g id="line2d_52">
    <path d="M 274.176 17.600753 
" clip-path="url(#pa1fd79b1e5)" style="fill: none; stroke: #ff0000; stroke-width: 1.5; stroke-linecap: square"/>
    <defs>
     <path id="m40215a4baa" d="M -12 12 
L 12 -12 
M -12 -12 
L 12 12 
" style="stroke: #ff0000"/>
    </defs>
    <g clip-path="url(#pa1fd79b1e5)">
     <use xlink:href="#m40215a4baa" x="274.176" y="17.600753" style="fill: #ff0000; stroke: #ff0000"/>
    </g>
   </g>
   <g id="line2d_53">
    <path d="M 360.8064 6.912 
L 380.514816 293.10336 
" style="fill: none; stroke: #6495ed; stroke-width: 1.5; stroke-linecap: square"/>
    <g>
     <use xlink:href="#mebcb61b041" x="360.8064" y="6.912" style="fill-opacity: 0; stroke: #6495ed; stroke-width: 1.5; stroke-linejoin: miter"/>
     <use xlink:href="#mebcb61b041" x="380.514816" y="293.10336" style="fill-opacity: 0; stroke: #6495ed; stroke-width: 1.5; stroke-linejoin: miter"/>
    </g>
   </g>
   <g id="line2d_54">
    <path d="M 360.8064 6.912 
L 380.514816 223.01568 
" style="fill: none; stroke: #ff00ff; stroke-width: 1.5; stroke-linecap: square"/>
    <g>
     <use xlink:href="#m240dee16a6" x="360.8064" y="6.912" style="fill-opacity: 0; stroke: #ff00ff; stroke-width: 1.5; stroke-linejoin: miter"/>
     <use xlink:href="#m240dee16a6" x="380.514816" y="223.01568" style="fill-opacity: 0; stroke: #ff00ff; stroke-width: 1.5; stroke-linejoin: miter"/>
    </g>
   </g>
   <g id="line2d_55">
    <path d="M 360.8064 6.912 
L 380.514816 152.928 
" style="fill: none; stroke: #ff0000; stroke-width: 1.5; stroke-linecap: square"/>
    <g>
     <use xlink:href="#mee5e9b4a55" x="360.8064" y="6.912" style="fill-opacity: 0; stroke: #ff0000; stroke-width: 1.5; stroke-linejoin: miter"/>
     <use xlink:href="#mee5e9b4a55" x="380.514816" y="152.928" style="fill-opacity: 0; stroke: #ff0000; stroke-width: 1.5; stroke-linejoin: miter"/>
    </g>
   </g>
   <g id="line2d_56">
    <path d="M 360.8064 6.912 
L 380.514816 82.84032 
" style="fill: none; stroke: #ff7500; stroke-width: 1.5; stroke-linecap: square"/>
    <g>
     <use xlink:href="#m27f56fbca6" x="360.8064" y="6.912" style="fill-opacity: 0; stroke: #ff7500; stroke-width: 1.5; stroke-linejoin: bevel"/>
     <use xlink:href="#m27f56fbca6" x="380.514816" y="82.84032" style="fill-opacity: 0; stroke: #ff7500; stroke-width: 1.5; stroke-linejoin: bevel"/>
    </g>
   </g>
   <g id="line2d_57">
    <path d="M 360.8064 6.912 
L 380.514816 12.75264 
" style="fill: none; stroke: #000080; stroke-width: 1.5; stroke-linecap: square"/>
    <g>
     <use xlink:href="#mdcf0dd94fe" x="360.8064" y="6.912" style="fill-opacity: 0; stroke: #000080; stroke-width: 1.5"/>
     <use xlink:href="#mdcf0dd94fe" x="380.514816" y="12.75264" style="fill-opacity: 0; stroke: #000080; stroke-width: 1.5"/>
    </g>
   </g>
   <g id="line2d_58">
    <path d="M 360.8064 298.944 
L 360.8064 6.912 
" style="fill: none; stroke: #000000; stroke-width: 1.5; stroke-linecap: square"/>
   </g>
   <g id="patch_3">
    <path d="M 57.6 298.944 
L 360.8064 298.944 
" style="fill: none; stroke: #000000; stroke-width: 0.8; stroke-linejoin: miter; stroke-linecap: square"/>
   </g>
   <g id="patch_4">
    <path d="M 57.6 6.912 
L 360.8064 6.912 
" style="fill: none; stroke: #000000; stroke-width: 0.8; stroke-linejoin: miter; stroke-linecap: square"/>
   </g>
   <g id="text_13">
    <!-- f13 -->
    <g transform="translate(386.578944 296.966485)scale(0.14 -0.14)">
     <defs>
      <path id="DejaVuSans-33" d="M 2597 2516 
Q 3050 2419 3304 2112 
Q 3559 1806 3559 1356 
Q 3559 666 3084 287 
Q 2609 -91 1734 -91 
Q 1441 -91 1130 -33 
Q 819 25 488 141 
L 488 750 
Q 750 597 1062 519 
Q 1375 441 1716 441 
Q 2309 441 2620 675 
Q 2931 909 2931 1356 
Q 2931 1769 2642 2001 
Q 2353 2234 1838 2234 
L 1294 2234 
L 1294 2753 
L 1863 2753 
Q 2328 2753 2575 2939 
Q 2822 3125 2822 3475 
Q 2822 3834 2567 4026 
Q 2313 4219 1838 4219 
Q 1578 4219 1281 4162 
Q 984 4106 628 3988 
L 628 4550 
Q 988 4650 1302 4700 
Q 1616 4750 1894 4750 
Q 2613 4750 3031 4423 
Q 3450 4097 3450 3541 
Q 3450 3153 3228 2886 
Q 3006 2619 2597 2516 
z
" transform="scale(0.015625)"/>
     </defs>
     <use xlink:href="#DejaVuSans-66"/>
     <use xlink:href="#DejaVuSans-31" x="35.205078"/>
     <use xlink:href="#DejaVuSans-33" x="98.828125"/>
    </g>
   </g>
   <g id="text_14">
    <!-- f11 -->
    <g transform="translate(386.578944 226.878805)scale(0.14 -0.14)">
     <use xlink:href="#DejaVuSans-66"/>
     <use xlink:href="#DejaVuSans-31" x="35.205078"/>
     <use xlink:href="#DejaVuSans-31" x="98.828125"/>
    </g>
   </g>
   <g id="text_15">
    <!-- f14 -->
    <g transform="translate(386.578944 156.791125)scale(0.14 -0.14)">
     <use xlink:href="#DejaVuSans-66"/>
     <use xlink:href="#DejaVuSans-31" x="35.205078"/>
     <use xlink:href="#DejaVuSans-34" x="98.828125"/>
    </g>
   </g>
   <g id="text_16">
    <!-- f12 -->
    <g transform="translate(386.578944 86.703445)scale(0.14 -0.14)">
     <use xlink:href="#DejaVuSans-66"/>
     <use xlink:href="#DejaVuSans-31" x="35.205078"/>
     <use xlink:href="#DejaVuSans-32" x="98.828125"/>
    </g>
   </g>
   <g id="text_17">
    <!-- f10 -->
    <g transform="translate(386.578944 16.615765)scale(0.14 -0.14)">
     <use xlink:href="#DejaVuSans-66"/>
     <use xlink:href="#DejaVuSans-31" x="35.205078"/>
     <use xlink:href="#DejaVuSans-30" x="98.828125"/>
    </g>
   </g>
   <g id="text_18">
    <!-- bbob -->
    <g transform="translate(60.632064 17.582726)scale(0.102 -0.102)">
     <defs>
      <path id="DejaVuSans-62" d="M 3116 1747 
Q 3116 2381 2855 2742 
Q 2594 3103 2138 3103 
Q 1681 3103 1420 2742 
Q 1159 2381 1159 1747 
Q 1159 1113 1420 752 
Q 1681 391 2138 391 
Q 2594 391 2855 752 
Q 3116 1113 3116 1747 
z
M 1159 2969 
Q 1341 3281 1617 3432 
Q 1894 3584 2278 3584 
Q 2916 3584 3314 3078 
Q 3713 2572 3713 1747 
Q 3713 922 3314 415 
Q 2916 -91 2278 -91 
Q 1894 -91 1617 61 
Q 1341 213 1159 525 
L 1159 0 
L 581 0 
L 581 4863 
L 1159 4863 
L 1159 2969 
z
" transform="scale(0.015625)"/>
     </defs>
     <use xlink:href="#DejaVuSans-62"/>
     <use xlink:href="#DejaVuSans-62" x="63.476562"/>
     <use xlink:href="#DejaVuSans-6f" x="126.953125"/>
     <use xlink:href="#DejaVuSans-62" x="188.134766"/>
    </g>
    <!-- Ill-conditioned functions, 2-D -->
    <g transform="translate(60.632064 29.004495)scale(0.102 -0.102)">
     <defs>
      <path id="DejaVuSans-49" d="M 628 4666 
L 1259 4666 
L 1259 0 
L 628 0 
L 628 4666 
z
" transform="scale(0.015625)"/>
      <path id="DejaVuSans-44" d="M 1259 4147 
L 1259 519 
L 2022 519 
Q 2988 519 3436 956 
Q 3884 1394 3884 2338 
Q 3884 3275 3436 3711 
Q 2988 4147 2022 4147 
L 1259 4147 
z
M 628 4666 
L 1925 4666 
Q 3281 4666 3915 4102 
Q 4550 3538 4550 2338 
Q 4550 1131 3912 565 
Q 3275 0 1925 0 
L 628 0 
L 628 4666 
z
" transform="scale(0.015625)"/>
     </defs>
     <use xlink:href="#DejaVuSans-49"/>
     <use xlink:href="#DejaVuSans-6c" x="29.492188"/>
     <use xlink:href="#DejaVuSans-6c" x="57.275391"/>
     <use xlink:href="#DejaVuSans-2d" x="85.058594"/>
     <use xlink:href="#DejaVuSans-63" x="121.142578"/>
     <use xlink:href="#DejaVuSans-6f" x="176.123047"/>
     <use xlink:href="#DejaVuSans-6e" x="237.304688"/>
     <use xlink:href="#DejaVuSans-64" x="300.683594"/>
     <use xlink:href="#DejaVuSans-69" x="364.160156"/>
     <use xlink:href="#DejaVuSans-74" x="391.943359"/>
     <use xlink:href="#DejaVuSans-69" x="431.152344"/>
     <use xlink:href="#DejaVuSans-6f" x="458.935547"/>
     <use xlink:href="#DejaVuSans-6e" x="520.117188"/>
     <use xlink:href="#DejaVuSans-65" x="583.496094"/>
     <use xlink:href="#DejaVuSans-64" x="645.019531"/>
     <use xlink:href="#DejaVuSans-20" x="708.496094"/>
     <use xlink:href="#DejaVuSans-66" x="740.283203"/>
     <use xlink:href="#DejaVuSans-75" x="775.488281"/>
     <use xlink:href="#DejaVuSans-6e" x="838.867188"/>
     <use xlink:href="#DejaVuSans-63" x="902.246094"/>
     <use xlink:href="#DejaVuSans-74" x="957.226562"/>
     <use xlink:href="#DejaVuSans-69" x="996.435547"/>
     <use xlink:href="#DejaVuSans-6f" x="1024.21875"/>
     <use xlink:href="#DejaVuSans-6e" x="1085.400391"/>
     <use xlink:href="#DejaVuSans-73" x="1148.779297"/>
     <use xlink:href="#DejaVuSans-2c" x="1200.878906"/>
     <use xlink:href="#DejaVuSans-20" x="1232.666016"/>
     <use xlink:href="#DejaVuSans-32" x="1264.453125"/>
     <use xlink:href="#DejaVuSans-2d" x="1328.076172"/>
     <use xlink:href="#DejaVuSans-44" x="1364.160156"/>
    </g>
    <!-- 51 targets: 100..1e-08 -->
    <g transform="translate(60.632064 40.426264)scale(0.102 -0.102)">
     <defs>
      <path id="DejaVuSans-35" d="M 691 4666 
L 3169 4666 
L 3169 4134 
L 1269 4134 
L 1269 2991 
Q 1406 3038 1543 3061 
Q 1681 3084 1819 3084 
Q 2600 3084 3056 2656 
Q 3513 2228 3513 1497 
Q 3513 744 3044 326 
Q 2575 -91 1722 -91 
Q 1428 -91 1123 -41 
Q 819 9 494 109 
L 494 744 
Q 775 591 1075 516 
Q 1375 441 1709 441 
Q 2250 441 2565 725 
Q 2881 1009 2881 1497 
Q 2881 1984 2565 2268 
Q 2250 2553 1709 2553 
Q 1456 2553 1204 2497 
Q 953 2441 691 2322 
L 691 4666 
z
" transform="scale(0.015625)"/>
      <path id="DejaVuSans-3a" d="M 750 794 
L 1409 794 
L 1409 0 
L 750 0 
L 750 794 
z
M 750 3309 
L 1409 3309 
L 1409 2516 
L 750 2516 
L 750 3309 
z
" transform="scale(0.015625)"/>
     </defs>
     <use xlink:href="#DejaVuSans-35"/>
     <use xlink:href="#DejaVuSans-31" x="63.623047"/>
     <use xlink:href="#DejaVuSans-20" x="127.246094"/>
     <use xlink:href="#DejaVuSans-74" x="159.033203"/>
     <use xlink:href="#DejaVuSans-61" x="198.242188"/>
     <use xlink:href="#DejaVuSans-72" x="259.521484"/>
     <use xlink:href="#DejaVuSans-67" x="298.884766"/>
     <use xlink:href="#DejaVuSans-65" x="362.361328"/>
     <use xlink:href="#DejaVuSans-74" x="423.884766"/>
     <use xlink:href="#DejaVuSans-73" x="463.09375"/>
     <use xlink:href="#DejaVuSans-3a" x="515.193359"/>
     <use xlink:href="#DejaVuSans-20" x="548.884766"/>
     <use xlink:href="#DejaVuSans-31" x="580.671875"/>
     <use xlink:href="#DejaVuSans-30" x="644.294922"/>
     <use xlink:href="#DejaVuSans-30" x="707.917969"/>
     <use xlink:href="#DejaVuSans-2e" x="771.541016"/>
     <use xlink:href="#DejaVuSans-2e" x="803.328125"/>
     <use xlink:href="#DejaVuSans-31" x="835.115234"/>
     <use xlink:href="#DejaVuSans-65" x="898.738281"/>
     <use xlink:href="#DejaVuSans-2d" x="960.261719"/>
     <use xlink:href="#DejaVuSans-30" x="996.345703"/>
     <use xlink:href="#DejaVuSans-38" x="1059.96875"/>
    </g>
    <!-- 15 instances -->
    <g transform="translate(60.632064 51.848032)scale(0.102 -0.102)">
     <use xlink:href="#DejaVuSans-31"/>
     <use xlink:href="#DejaVuSans-35" x="63.623047"/>
     <use xlink:href="#DejaVuSans-20" x="127.246094"/>
     <use xlink:href="#DejaVuSans-69" x="159.033203"/>
     <use xlink:href="#DejaVuSans-6e" x="186.816406"/>
     <use xlink:href="#DejaVuSans-73" x="250.195312"/>
     <use xlink:href="#DejaVuSans-74" x="302.294922"/>
     <use xlink:href="#DejaVuSans-61" x="341.503906"/>
     <use xlink:href="#DejaVuSans-6e" x="402.783203"/>
     <use xlink:href="#DejaVuSans-63" x="466.162109"/>
     <use xlink:href="#DejaVuSans-65" x="521.142578"/>
     <use xlink:href="#DejaVuSans-73" x="582.666016"/>
    </g>
   </g>
   <g id="text_19">
    <!-- v2.6 -->
    <g style="fill: #808080" transform="translate(198.292262 293.943992)scale(0.1 -0.1)">
     <use xlink:href="#DejaVuSans-76"/>
     <use xlink:href="#DejaVuSans-32" x="59.179688"/>
     <use xlink:href="#DejaVuSans-2e" x="122.802734"/>
     <use xlink:href="#DejaVuSans-36" x="154.589844"/>
    </g>
   </g>
  </g>
 </g>
 <defs>
  <clipPath id="pa1fd79b1e5">
   <rect x="57.6" y="6.912" width="303.2064" height="292.032"/>
  </clipPath>
 </defs>
</svg>
