<?xml version="1.0" encoding="utf-8" standalone="no"?>
<!DOCTYPE svg PUBLIC "-//W3C//DTD SVG 1.1//EN"
  "http://www.w3.org/Graphics/SVG/1.1/DTD/svg11.dtd">
<svg xmlns:xlink="http://www.w3.org/1999/xlink" width="460.8pt" height="345.6pt" viewBox="0 0 460.8 345.6" xmlns="http://www.w3.org/2000/svg" version="1.1">
 <metadata>
  <rdf:RDF xmlns:dc="http://purl.org/dc/elements/1.1/" xmlns:cc="http://creativecommons.org/ns#" xmlns:rdf="http://www.w3.org/1999/02/22-rdf-syntax-ns#">
   <cc:Work>
    <dc:type rdf:resource="http://purl.org/dc/dcmitype/StillImage"/>
    <dc:date>2024-05-29T07:56:49.489208</dc:date>
    <dc:format>image/svg+xml</dc:format>
    <dc:creator>
     <cc:Agent>
      <dc:title>Matplotlib v3.5.1, https://matplotlib.org/</dc:title>
     </cc:Agent>
    </dc:creator>
   </cc:Work>
  </rdf:RDF>
 </metadata>
 <defs>
  <style type="text/css">*{stroke-linejoin: round; stroke-linecap: butt}</style>
 </defs>
 <g id="figure_1">
  <g id="patch_1">
   <path d="M 0 345.6 
L 460.8 345.6 
L 460.8 0 
L 0 0 
z
" style="fill: #ffffff"/>
  </g>
  <g id="axes_1">
   <g id="patch_2">
    <path d="M 57.6 298.944 
L 360.8064 298.944 
L 360.8064 6.912 
L 57.6 6.912 
z
" style="fill: #ffffff"/>
   </g>
   <g id="matplotlib.axis_1">
    <g id="xtick_1">
     <g id="line2d_1">
      <path d="M 57.6 298.944 
L 57.6 6.912 
" clip-path="url(#paeca785df7)" style="fill: none; stroke: #b0b0b0; stroke-width: 0.8; stroke-linecap: square"/>
     </g>
     <g id="line2d_2">
      <defs>
       <path id="m64bb9c31d3" d="M 0 0 
L 0 3.5 
" style="stroke: #000000; stroke-width: 0.8"/>
      </defs>
      <g>
       <use xlink:href="#m64bb9c31d3" x="57.6" y="298.944" style="stroke: #000000; stroke-width: 0.8"/>
      </g>
     </g>
     <g id="text_1">
      <!-- 0 -->
      <g transform="translate(52.191875 318.861344)scale(0.17 -0.17)">
       <defs>
        <path id="DejaVuSans-30" d="M 2034 4250 
Q 1547 4250 1301 3770 
Q 1056 3291 1056 2328 
Q 1056 1369 1301 889 
Q 1547 409 2034 409 
Q 2525 409 2770 889 
Q 3016 1369 3016 2328 
Q 3016 3291 2770 3770 
Q 2525 4250 2034 4250 
z
M 2034 4750 
Q 2819 4750 3233 4129 
Q 3647 3509 3647 2328 
Q 3647 1150 3233 529 
Q 2819 -91 2034 -91 
Q 1250 -91 836 529 
Q 422 1150 422 2328 
Q 422 3509 836 4129 
Q 1250 4750 2034 4750 
z
" transform="scale(0.015625)"/>
       </defs>
       <use xlink:href="#DejaVuSans-30"/>
      </g>
     </g>
    </g>
    <g id="xtick_2">
     <g id="line2d_3">
      <path d="M 144.2304 298.944 
L 144.2304 6.912 
" clip-path="url(#paeca785df7)" style="fill: none; stroke: #b0b0b0; stroke-width: 0.8; stroke-linecap: square"/>
     </g>
     <g id="line2d_4">
      <g>
       <use xlink:href="#m64bb9c31d3" x="144.2304" y="298.944" style="stroke: #000000; stroke-width: 0.8"/>
      </g>
     </g>
     <g id="text_2">
      <!-- 2 -->
      <g transform="translate(138.822275 318.861344)scale(0.17 -0.17)">
       <defs>
        <path id="DejaVuSans-32" d="M 1228 531 
L 3431 531 
L 3431 0 
L 469 0 
L 469 531 
Q 828 903 1448 1529 
Q 2069 2156 2228 2338 
Q 2531 2678 2651 2914 
Q 2772 3150 2772 3378 
Q 2772 3750 2511 3984 
Q 2250 4219 1831 4219 
Q 1534 4219 1204 4116 
Q 875 4013 500 3803 
L 500 4441 
Q 881 4594 1212 4672 
Q 1544 4750 1819 4750 
Q 2544 4750 2975 4387 
Q 3406 4025 3406 3419 
Q 3406 3131 3298 2873 
Q 3191 2616 2906 2266 
Q 2828 2175 2409 1742 
Q 1991 1309 1228 531 
z
" transform="scale(0.015625)"/>
       </defs>
       <use xlink:href="#DejaVuSans-32"/>
      </g>
     </g>
    </g>
    <g id="xtick_3">
     <g id="line2d_5">
      <path d="M 230.8608 298.944 
L 230.8608 6.912 
" clip-path="url(#paeca785df7)" style="fill: none; stroke: #b0b0b0; stroke-width: 0.8; stroke-linecap: square"/>
     </g>
     <g id="line2d_6">
      <g>
       <use xlink:href="#m64bb9c31d3" x="230.8608" y="298.944" style="stroke: #000000; stroke-width: 0.8"/>
      </g>
     </g>
     <g id="text_3">
      <!-- 4 -->
      <g transform="translate(225.452675 318.861344)scale(0.17 -0.17)">
       <defs>
        <path id="DejaVuSans-34" d="M 2419 4116 
L 825 1625 
L 2419 1625 
L 2419 4116 
z
M 2253 4666 
L 3047 4666 
L 3047 1625 
L 3713 1625 
L 3713 1100 
L 3047 1100 
L 3047 0 
L 2419 0 
L 2419 1100 
L 313 1100 
L 313 1709 
L 2253 4666 
z
" transform="scale(0.015625)"/>
       </defs>
       <use xlink:href="#DejaVuSans-34"/>
      </g>
     </g>
    </g>
    <g id="xtick_4">
     <g id="line2d_7">
      <path d="M 317.4912 298.944 
L 317.4912 6.912 
" clip-path="url(#paeca785df7)" style="fill: none; stroke: #b0b0b0; stroke-width: 0.8; stroke-linecap: square"/>
     </g>
     <g id="line2d_8">
      <g>
       <use xlink:href="#m64bb9c31d3" x="317.4912" y="298.944" style="stroke: #000000; stroke-width: 0.8"/>
      </g>
     </g>
     <g id="text_4">
      <!-- 6 -->
      <g transform="translate(312.083075 318.861344)scale(0.17 -0.17)">
       <defs>
        <path id="DejaVuSans-36" d="M 2113 2584 
Q 1688 2584 1439 2293 
Q 1191 2003 1191 1497 
Q 1191 994 1439 701 
Q 1688 409 2113 409 
Q 2538 409 2786 701 
Q 3034 994 3034 1497 
Q 3034 2003 2786 2293 
Q 2538 2584 2113 2584 
z
M 3366 4563 
L 3366 3988 
Q 3128 4100 2886 4159 
Q 2644 4219 2406 4219 
Q 1781 4219 1451 3797 
Q 1122 3375 1075 2522 
Q 1259 2794 1537 2939 
Q 1816 3084 2150 3084 
Q 2853 3084 3261 2657 
Q 3669 2231 3669 1497 
Q 3669 778 3244 343 
Q 2819 -91 2113 -91 
Q 1303 -91 875 529 
Q 447 1150 447 2328 
Q 447 3434 972 4092 
Q 1497 4750 2381 4750 
Q 2619 4750 2861 4703 
Q 3103 4656 3366 4563 
z
" transform="scale(0.015625)"/>
       </defs>
       <use xlink:href="#DejaVuSans-36"/>
      </g>
     </g>
    </g>
    <g id="xtick_5">
     <g id="line2d_9">
      <path d="M 100.9152 298.944 
L 100.9152 6.912 
" clip-path="url(#paeca785df7)" style="fill: none; stroke: #b0b0b0; stroke-width: 0.8; stroke-linecap: square"/>
     </g>
     <g id="line2d_10">
      <defs>
       <path id="m62ca48b907" d="M 0 0 
L 0 2 
" style="stroke: #000000; stroke-width: 0.6"/>
      </defs>
      <g>
       <use xlink:href="#m62ca48b907" x="100.9152" y="298.944" style="stroke: #000000; stroke-width: 0.6"/>
      </g>
     </g>
    </g>
    <g id="xtick_6">
     <g id="line2d_11">
      <path d="M 187.5456 298.944 
L 187.5456 6.912 
" clip-path="url(#paeca785df7)" style="fill: none; stroke: #b0b0b0; stroke-width: 0.8; stroke-linecap: square"/>
     </g>
     <g id="line2d_12">
      <g>
       <use xlink:href="#m62ca48b907" x="187.5456" y="298.944" style="stroke: #000000; stroke-width: 0.6"/>
      </g>
     </g>
    </g>
    <g id="xtick_7">
     <g id="line2d_13">
      <path d="M 274.176 298.944 
L 274.176 6.912 
" clip-path="url(#paeca785df7)" style="fill: none; stroke: #b0b0b0; stroke-width: 0.8; stroke-linecap: square"/>
     </g>
     <g id="line2d_14">
      <g>
       <use xlink:href="#m62ca48b907" x="274.176" y="298.944" style="stroke: #000000; stroke-width: 0.6"/>
      </g>
     </g>
    </g>
    <g id="xtick_8">
     <g id="line2d_15">
      <path d="M 360.8064 298.944 
L 360.8064 6.912 
" clip-path="url(#paeca785df7)" style="fill: none; stroke: #b0b0b0; stroke-width: 0.8; stroke-linecap: square"/>
     </g>
     <g id="line2d_16">
      <g>
       <use xlink:href="#m62ca48b907" x="360.8064" y="298.944" style="stroke: #000000; stroke-width: 0.6"/>
      </g>
     </g>
    </g>
    <g id="text_5">
     <!-- log10(# f-evals / dimension) -->
     <g transform="translate(88.823278 339.314156)scale(0.17 -0.17)">
      <defs>
       <path id="DejaVuSans-6c" d="M 603 4863 
L 1178 4863 
L 1178 0 
L 603 0 
L 603 4863 
z
" transform="scale(0.015625)"/>
       <path id="DejaVuSans-6f" d="M 1959 3097 
Q 1497 3097 1228 2736 
Q 959 2375 959 1747 
Q 959 1119 1226 758 
Q 1494 397 1959 397 
Q 2419 397 2687 759 
Q 2956 1122 2956 1747 
Q 2956 2369 2687 2733 
Q 2419 3097 1959 3097 
z
M 1959 3584 
Q 2709 3584 3137 3096 
Q 3566 2609 3566 1747 
Q 3566 888 3137 398 
Q 2709 -91 1959 -91 
Q 1206 -91 779 398 
Q 353 888 353 1747 
Q 353 2609 779 3096 
Q 1206 3584 1959 3584 
z
" transform="scale(0.015625)"/>
       <path id="DejaVuSans-67" d="M 2906 1791 
Q 2906 2416 2648 2759 
Q 2391 3103 1925 3103 
Q 1463 3103 1205 2759 
Q 947 2416 947 1791 
Q 947 1169 1205 825 
Q 1463 481 1925 481 
Q 2391 481 2648 825 
Q 2906 1169 2906 1791 
z
M 3481 434 
Q 3481 -459 3084 -895 
Q 2688 -1331 1869 -1331 
Q 1566 -1331 1297 -1286 
Q 1028 -1241 775 -1147 
L 775 -588 
Q 1028 -725 1275 -790 
Q 1522 -856 1778 -856 
Q 2344 -856 2625 -561 
Q 2906 -266 2906 331 
L 2906 616 
Q 2728 306 2450 153 
Q 2172 0 1784 0 
Q 1141 0 747 490 
Q 353 981 353 1791 
Q 353 2603 747 3093 
Q 1141 3584 1784 3584 
Q 2172 3584 2450 3431 
Q 2728 3278 2906 2969 
L 2906 3500 
L 3481 3500 
L 3481 434 
z
" transform="scale(0.015625)"/>
       <path id="DejaVuSans-31" d="M 794 531 
L 1825 531 
L 1825 4091 
L 703 3866 
L 703 4441 
L 1819 4666 
L 2450 4666 
L 2450 531 
L 3481 531 
L 3481 0 
L 794 0 
L 794 531 
z
" transform="scale(0.015625)"/>
       <path id="DejaVuSans-28" d="M 1984 4856 
Q 1566 4138 1362 3434 
Q 1159 2731 1159 2009 
Q 1159 1288 1364 580 
Q 1569 -128 1984 -844 
L 1484 -844 
Q 1016 -109 783 600 
Q 550 1309 550 2009 
Q 550 2706 781 3412 
Q 1013 4119 1484 4856 
L 1984 4856 
z
" transform="scale(0.015625)"/>
       <path id="DejaVuSans-23" d="M 3272 2816 
L 2363 2816 
L 2100 1772 
L 3016 1772 
L 3272 2816 
z
M 2803 4594 
L 2478 3297 
L 3391 3297 
L 3719 4594 
L 4219 4594 
L 3897 3297 
L 4872 3297 
L 4872 2816 
L 3775 2816 
L 3519 1772 
L 4513 1772 
L 4513 1294 
L 3397 1294 
L 3072 0 
L 2572 0 
L 2894 1294 
L 1978 1294 
L 1656 0 
L 1153 0 
L 1478 1294 
L 494 1294 
L 494 1772 
L 1594 1772 
L 1856 2816 
L 850 2816 
L 850 3297 
L 1978 3297 
L 2297 4594 
L 2803 4594 
z
" transform="scale(0.015625)"/>
       <path id="DejaVuSans-20" transform="scale(0.015625)"/>
       <path id="DejaVuSans-66" d="M 2375 4863 
L 2375 4384 
L 1825 4384 
Q 1516 4384 1395 4259 
Q 1275 4134 1275 3809 
L 1275 3500 
L 2222 3500 
L 2222 3053 
L 1275 3053 
L 1275 0 
L 697 0 
L 697 3053 
L 147 3053 
L 147 3500 
L 697 3500 
L 697 3744 
Q 697 4328 969 4595 
Q 1241 4863 1831 4863 
L 2375 4863 
z
" transform="scale(0.015625)"/>
       <path id="DejaVuSans-2d" d="M 313 2009 
L 1997 2009 
L 1997 1497 
L 313 1497 
L 313 2009 
z
" transform="scale(0.015625)"/>
       <path id="DejaVuSans-65" d="M 3597 1894 
L 3597 1613 
L 953 1613 
Q 991 1019 1311 708 
Q 1631 397 2203 397 
Q 2534 397 2845 478 
Q 3156 559 3463 722 
L 3463 178 
Q 3153 47 2828 -22 
Q 2503 -91 2169 -91 
Q 1331 -91 842 396 
Q 353 884 353 1716 
Q 353 2575 817 3079 
Q 1281 3584 2069 3584 
Q 2775 3584 3186 3129 
Q 3597 2675 3597 1894 
z
M 3022 2063 
Q 3016 2534 2758 2815 
Q 2500 3097 2075 3097 
Q 1594 3097 1305 2825 
Q 1016 2553 972 2059 
L 3022 2063 
z
" transform="scale(0.015625)"/>
       <path id="DejaVuSans-76" d="M 191 3500 
L 800 3500 
L 1894 563 
L 2988 3500 
L 3597 3500 
L 2284 0 
L 1503 0 
L 191 3500 
z
" transform="scale(0.015625)"/>
       <path id="DejaVuSans-61" d="M 2194 1759 
Q 1497 1759 1228 1600 
Q 959 1441 959 1056 
Q 959 750 1161 570 
Q 1363 391 1709 391 
Q 2188 391 2477 730 
Q 2766 1069 2766 1631 
L 2766 1759 
L 2194 1759 
z
M 3341 1997 
L 3341 0 
L 2766 0 
L 2766 531 
Q 2569 213 2275 61 
Q 1981 -91 1556 -91 
Q 1019 -91 701 211 
Q 384 513 384 1019 
Q 384 1609 779 1909 
Q 1175 2209 1959 2209 
L 2766 2209 
L 2766 2266 
Q 2766 2663 2505 2880 
Q 2244 3097 1772 3097 
Q 1472 3097 1187 3025 
Q 903 2953 641 2809 
L 641 3341 
Q 956 3463 1253 3523 
Q 1550 3584 1831 3584 
Q 2591 3584 2966 3190 
Q 3341 2797 3341 1997 
z
" transform="scale(0.015625)"/>
       <path id="DejaVuSans-73" d="M 2834 3397 
L 2834 2853 
Q 2591 2978 2328 3040 
Q 2066 3103 1784 3103 
Q 1356 3103 1142 2972 
Q 928 2841 928 2578 
Q 928 2378 1081 2264 
Q 1234 2150 1697 2047 
L 1894 2003 
Q 2506 1872 2764 1633 
Q 3022 1394 3022 966 
Q 3022 478 2636 193 
Q 2250 -91 1575 -91 
Q 1294 -91 989 -36 
Q 684 19 347 128 
L 347 722 
Q 666 556 975 473 
Q 1284 391 1588 391 
Q 1994 391 2212 530 
Q 2431 669 2431 922 
Q 2431 1156 2273 1281 
Q 2116 1406 1581 1522 
L 1381 1569 
Q 847 1681 609 1914 
Q 372 2147 372 2553 
Q 372 3047 722 3315 
Q 1072 3584 1716 3584 
Q 2034 3584 2315 3537 
Q 2597 3491 2834 3397 
z
" transform="scale(0.015625)"/>
       <path id="DejaVuSans-2f" d="M 1625 4666 
L 2156 4666 
L 531 -594 
L 0 -594 
L 1625 4666 
z
" transform="scale(0.015625)"/>
       <path id="DejaVuSans-64" d="M 2906 2969 
L 2906 4863 
L 3481 4863 
L 3481 0 
L 2906 0 
L 2906 525 
Q 2725 213 2448 61 
Q 2172 -91 1784 -91 
Q 1150 -91 751 415 
Q 353 922 353 1747 
Q 353 2572 751 3078 
Q 1150 3584 1784 3584 
Q 2172 3584 2448 3432 
Q 2725 3281 2906 2969 
z
M 947 1747 
Q 947 1113 1208 752 
Q 1469 391 1925 391 
Q 2381 391 2643 752 
Q 2906 1113 2906 1747 
Q 2906 2381 2643 2742 
Q 2381 3103 1925 3103 
Q 1469 3103 1208 2742 
Q 947 2381 947 1747 
z
" transform="scale(0.015625)"/>
       <path id="DejaVuSans-69" d="M 603 3500 
L 1178 3500 
L 1178 0 
L 603 0 
L 603 3500 
z
M 603 4863 
L 1178 4863 
L 1178 4134 
L 603 4134 
L 603 4863 
z
" transform="scale(0.015625)"/>
       <path id="DejaVuSans-6d" d="M 3328 2828 
Q 3544 3216 3844 3400 
Q 4144 3584 4550 3584 
Q 5097 3584 5394 3201 
Q 5691 2819 5691 2113 
L 5691 0 
L 5113 0 
L 5113 2094 
Q 5113 2597 4934 2840 
Q 4756 3084 4391 3084 
Q 3944 3084 3684 2787 
Q 3425 2491 3425 1978 
L 3425 0 
L 2847 0 
L 2847 2094 
Q 2847 2600 2669 2842 
Q 2491 3084 2119 3084 
Q 1678 3084 1418 2786 
Q 1159 2488 1159 1978 
L 1159 0 
L 581 0 
L 581 3500 
L 1159 3500 
L 1159 2956 
Q 1356 3278 1631 3431 
Q 1906 3584 2284 3584 
Q 2666 3584 2933 3390 
Q 3200 3197 3328 2828 
z
" transform="scale(0.015625)"/>
       <path id="DejaVuSans-6e" d="M 3513 2113 
L 3513 0 
L 2938 0 
L 2938 2094 
Q 2938 2591 2744 2837 
Q 2550 3084 2163 3084 
Q 1697 3084 1428 2787 
Q 1159 2491 1159 1978 
L 1159 0 
L 581 0 
L 581 3500 
L 1159 3500 
L 1159 2956 
Q 1366 3272 1645 3428 
Q 1925 3584 2291 3584 
Q 2894 3584 3203 3211 
Q 3513 2838 3513 2113 
z
" transform="scale(0.015625)"/>
       <path id="DejaVuSans-29" d="M 513 4856 
L 1013 4856 
Q 1481 4119 1714 3412 
Q 1947 2706 1947 2009 
Q 1947 1309 1714 600 
Q 1481 -109 1013 -844 
L 513 -844 
Q 928 -128 1133 580 
Q 1338 1288 1338 2009 
Q 1338 2731 1133 3434 
Q 928 4138 513 4856 
z
" transform="scale(0.015625)"/>
      </defs>
      <use xlink:href="#DejaVuSans-6c"/>
      <use xlink:href="#DejaVuSans-6f" x="27.783203"/>
      <use xlink:href="#DejaVuSans-67" x="88.964844"/>
      <use xlink:href="#DejaVuSans-31" x="152.441406"/>
      <use xlink:href="#DejaVuSans-30" x="216.064453"/>
      <use xlink:href="#DejaVuSans-28" x="279.6875"/>
      <use xlink:href="#DejaVuSans-23" x="318.701172"/>
      <use xlink:href="#DejaVuSans-20" x="402.490234"/>
      <use xlink:href="#DejaVuSans-66" x="434.277344"/>
      <use xlink:href="#DejaVuSans-2d" x="463.982422"/>
      <use xlink:href="#DejaVuSans-65" x="500.066406"/>
      <use xlink:href="#DejaVuSans-76" x="561.589844"/>
      <use xlink:href="#DejaVuSans-61" x="620.769531"/>
      <use xlink:href="#DejaVuSans-6c" x="682.048828"/>
      <use xlink:href="#DejaVuSans-73" x="709.832031"/>
      <use xlink:href="#DejaVuSans-20" x="761.931641"/>
      <use xlink:href="#DejaVuSans-2f" x="793.71875"/>
      <use xlink:href="#DejaVuSans-20" x="827.410156"/>
      <use xlink:href="#DejaVuSans-64" x="859.197266"/>
      <use xlink:href="#DejaVuSans-69" x="922.673828"/>
      <use xlink:href="#DejaVuSans-6d" x="950.457031"/>
      <use xlink:href="#DejaVuSans-65" x="1047.869141"/>
      <use xlink:href="#DejaVuSans-6e" x="1109.392578"/>
      <use xlink:href="#DejaVuSans-73" x="1172.771484"/>
      <use xlink:href="#DejaVuSans-69" x="1224.871094"/>
      <use xlink:href="#DejaVuSans-6f" x="1252.654297"/>
      <use xlink:href="#DejaVuSans-6e" x="1313.835938"/>
      <use xlink:href="#DejaVuSans-29" x="1377.214844"/>
     </g>
    </g>
   </g>
   <g id="matplotlib.axis_2">
    <g id="ytick_1">
     <g id="line2d_17">
      <path d="M 57.6 298.944 
L 360.8064 298.944 
" clip-path="url(#paeca785df7)" style="fill: none; stroke: #b0b0b0; stroke-width: 0.8; stroke-linecap: square"/>
     </g>
     <g id="line2d_18">
      <defs>
       <path id="md9aa755228" d="M 0 0 
L -3.5 0 
" style="stroke: #000000; stroke-width: 0.8"/>
      </defs>
      <g>
       <use xlink:href="#md9aa755228" x="57.6" y="298.944" style="stroke: #000000; stroke-width: 0.8"/>
      </g>
     </g>
     <g id="text_6">
      <!-- 0.0 -->
      <g transform="translate(25.155 305.02275)scale(0.16 -0.16)">
       <defs>
        <path id="DejaVuSans-2e" d="M 684 794 
L 1344 794 
L 1344 0 
L 684 0 
L 684 794 
z
" transform="scale(0.015625)"/>
       </defs>
       <use xlink:href="#DejaVuSans-30"/>
       <use xlink:href="#DejaVuSans-2e" x="63.623047"/>
       <use xlink:href="#DejaVuSans-30" x="95.410156"/>
      </g>
     </g>
    </g>
    <g id="ytick_2">
     <g id="line2d_19">
      <path d="M 57.6 240.5376 
L 360.8064 240.5376 
" clip-path="url(#paeca785df7)" style="fill: none; stroke: #b0b0b0; stroke-width: 0.8; stroke-linecap: square"/>
     </g>
     <g id="line2d_20">
      <g>
       <use xlink:href="#md9aa755228" x="57.6" y="240.5376" style="stroke: #000000; stroke-width: 0.8"/>
      </g>
     </g>
     <g id="text_7">
      <!-- 0.2 -->
      <g transform="translate(25.155 246.61635)scale(0.16 -0.16)">
       <use xlink:href="#DejaVuSans-30"/>
       <use xlink:href="#DejaVuSans-2e" x="63.623047"/>
       <use xlink:href="#DejaVuSans-32" x="95.410156"/>
      </g>
     </g>
    </g>
    <g id="ytick_3">
     <g id="line2d_21">
      <path d="M 57.6 182.1312 
L 360.8064 182.1312 
" clip-path="url(#paeca785df7)" style="fill: none; stroke: #b0b0b0; stroke-width: 0.8; stroke-linecap: square"/>
     </g>
     <g id="line2d_22">
      <g>
       <use xlink:href="#md9aa755228" x="57.6" y="182.1312" style="stroke: #000000; stroke-width: 0.8"/>
      </g>
     </g>
     <g id="text_8">
      <!-- 0.4 -->
      <g transform="translate(25.155 188.20995)scale(0.16 -0.16)">
       <use xlink:href="#DejaVuSans-30"/>
       <use xlink:href="#DejaVuSans-2e" x="63.623047"/>
       <use xlink:href="#DejaVuSans-34" x="95.410156"/>
      </g>
     </g>
    </g>
    <g id="ytick_4">
     <g id="line2d_23">
      <path d="M 57.6 123.7248 
L 360.8064 123.7248 
" clip-path="url(#paeca785df7)" style="fill: none; stroke: #b0b0b0; stroke-width: 0.8; stroke-linecap: square"/>
     </g>
     <g id="line2d_24">
      <g>
       <use xlink:href="#md9aa755228" x="57.6" y="123.7248" style="stroke: #000000; stroke-width: 0.8"/>
      </g>
     </g>
     <g id="text_9">
      <!-- 0.6 -->
      <g transform="translate(25.155 129.80355)scale(0.16 -0.16)">
       <use xlink:href="#DejaVuSans-30"/>
       <use xlink:href="#DejaVuSans-2e" x="63.623047"/>
       <use xlink:href="#DejaVuSans-36" x="95.410156"/>
      </g>
     </g>
    </g>
    <g id="ytick_5">
     <g id="line2d_25">
      <path d="M 57.6 65.3184 
L 360.8064 65.3184 
" clip-path="url(#paeca785df7)" style="fill: none; stroke: #b0b0b0; stroke-width: 0.8; stroke-linecap: square"/>
     </g>
     <g id="line2d_26">
      <g>
       <use xlink:href="#md9aa755228" x="57.6" y="65.3184" style="stroke: #000000; stroke-width: 0.8"/>
      </g>
     </g>
     <g id="text_10">
      <!-- 0.8 -->
      <g transform="translate(25.155 71.39715)scale(0.16 -0.16)">
       <defs>
        <path id="DejaVuSans-38" d="M 2034 2216 
Q 1584 2216 1326 1975 
Q 1069 1734 1069 1313 
Q 1069 891 1326 650 
Q 1584 409 2034 409 
Q 2484 409 2743 651 
Q 3003 894 3003 1313 
Q 3003 1734 2745 1975 
Q 2488 2216 2034 2216 
z
M 1403 2484 
Q 997 2584 770 2862 
Q 544 3141 544 3541 
Q 544 4100 942 4425 
Q 1341 4750 2034 4750 
Q 2731 4750 3128 4425 
Q 3525 4100 3525 3541 
Q 3525 3141 3298 2862 
Q 3072 2584 2669 2484 
Q 3125 2378 3379 2068 
Q 3634 1759 3634 1313 
Q 3634 634 3220 271 
Q 2806 -91 2034 -91 
Q 1263 -91 848 271 
Q 434 634 434 1313 
Q 434 1759 690 2068 
Q 947 2378 1403 2484 
z
M 1172 3481 
Q 1172 3119 1398 2916 
Q 1625 2713 2034 2713 
Q 2441 2713 2670 2916 
Q 2900 3119 2900 3481 
Q 2900 3844 2670 4047 
Q 2441 4250 2034 4250 
Q 1625 4250 1398 4047 
Q 1172 3844 1172 3481 
z
" transform="scale(0.015625)"/>
       </defs>
       <use xlink:href="#DejaVuSans-30"/>
       <use xlink:href="#DejaVuSans-2e" x="63.623047"/>
       <use xlink:href="#DejaVuSans-38" x="95.410156"/>
      </g>
     </g>
    </g>
    <g id="ytick_6">
     <g id="line2d_27">
      <path d="M 57.6 6.912 
L 360.8064 6.912 
" clip-path="url(#paeca785df7)" style="fill: none; stroke: #b0b0b0; stroke-width: 0.8; stroke-linecap: square"/>
     </g>
     <g id="line2d_28">
      <g>
       <use xlink:href="#md9aa755228" x="57.6" y="6.912" style="stroke: #000000; stroke-width: 0.8"/>
      </g>
     </g>
     <g id="text_11">
      <!-- 1.0 -->
      <g transform="translate(25.155 12.99075)scale(0.16 -0.16)">
       <use xlink:href="#DejaVuSans-31"/>
       <use xlink:href="#DejaVuSans-2e" x="63.623047"/>
       <use xlink:href="#DejaVuSans-30" x="95.410156"/>
      </g>
     </g>
    </g>
    <g id="text_12">
     <!-- Fraction of function,target pairs -->
     <g transform="translate(17.619531 287.313)rotate(-90)scale(0.17 -0.17)">
      <defs>
       <path id="DejaVuSans-46" d="M 628 4666 
L 3309 4666 
L 3309 4134 
L 1259 4134 
L 1259 2759 
L 3109 2759 
L 3109 2228 
L 1259 2228 
L 1259 0 
L 628 0 
L 628 4666 
z
" transform="scale(0.015625)"/>
       <path id="DejaVuSans-72" d="M 2631 2963 
Q 2534 3019 2420 3045 
Q 2306 3072 2169 3072 
Q 1681 3072 1420 2755 
Q 1159 2438 1159 1844 
L 1159 0 
L 581 0 
L 581 3500 
L 1159 3500 
L 1159 2956 
Q 1341 3275 1631 3429 
Q 1922 3584 2338 3584 
Q 2397 3584 2469 3576 
Q 2541 3569 2628 3553 
L 2631 2963 
z
" transform="scale(0.015625)"/>
       <path id="DejaVuSans-63" d="M 3122 3366 
L 3122 2828 
Q 2878 2963 2633 3030 
Q 2388 3097 2138 3097 
Q 1578 3097 1268 2742 
Q 959 2388 959 1747 
Q 959 1106 1268 751 
Q 1578 397 2138 397 
Q 2388 397 2633 464 
Q 2878 531 3122 666 
L 3122 134 
Q 2881 22 2623 -34 
Q 2366 -91 2075 -91 
Q 1284 -91 818 406 
Q 353 903 353 1747 
Q 353 2603 823 3093 
Q 1294 3584 2113 3584 
Q 2378 3584 2631 3529 
Q 2884 3475 3122 3366 
z
" transform="scale(0.015625)"/>
       <path id="DejaVuSans-74" d="M 1172 4494 
L 1172 3500 
L 2356 3500 
L 2356 3053 
L 1172 3053 
L 1172 1153 
Q 1172 725 1289 603 
Q 1406 481 1766 481 
L 2356 481 
L 2356 0 
L 1766 0 
Q 1100 0 847 248 
Q 594 497 594 1153 
L 594 3053 
L 172 3053 
L 172 3500 
L 594 3500 
L 594 4494 
L 1172 4494 
z
" transform="scale(0.015625)"/>
       <path id="DejaVuSans-75" d="M 544 1381 
L 544 3500 
L 1119 3500 
L 1119 1403 
Q 1119 906 1312 657 
Q 1506 409 1894 409 
Q 2359 409 2629 706 
Q 2900 1003 2900 1516 
L 2900 3500 
L 3475 3500 
L 3475 0 
L 2900 0 
L 2900 538 
Q 2691 219 2414 64 
Q 2138 -91 1772 -91 
Q 1169 -91 856 284 
Q 544 659 544 1381 
z
M 1991 3584 
L 1991 3584 
z
" transform="scale(0.015625)"/>
       <path id="DejaVuSans-2c" d="M 750 794 
L 1409 794 
L 1409 256 
L 897 -744 
L 494 -744 
L 750 256 
L 750 794 
z
" transform="scale(0.015625)"/>
       <path id="DejaVuSans-70" d="M 1159 525 
L 1159 -1331 
L 581 -1331 
L 581 3500 
L 1159 3500 
L 1159 2969 
Q 1341 3281 1617 3432 
Q 1894 3584 2278 3584 
Q 2916 3584 3314 3078 
Q 3713 2572 3713 1747 
Q 3713 922 3314 415 
Q 2916 -91 2278 -91 
Q 1894 -91 1617 61 
Q 1341 213 1159 525 
z
M 3116 1747 
Q 3116 2381 2855 2742 
Q 2594 3103 2138 3103 
Q 1681 3103 1420 2742 
Q 1159 2381 1159 1747 
Q 1159 1113 1420 752 
Q 1681 391 2138 391 
Q 2594 391 2855 752 
Q 3116 1113 3116 1747 
z
" transform="scale(0.015625)"/>
      </defs>
      <use xlink:href="#DejaVuSans-46"/>
      <use xlink:href="#DejaVuSans-72" x="50.269531"/>
      <use xlink:href="#DejaVuSans-61" x="91.382812"/>
      <use xlink:href="#DejaVuSans-63" x="152.662109"/>
      <use xlink:href="#DejaVuSans-74" x="207.642578"/>
      <use xlink:href="#DejaVuSans-69" x="246.851562"/>
      <use xlink:href="#DejaVuSans-6f" x="274.634766"/>
      <use xlink:href="#DejaVuSans-6e" x="335.816406"/>
      <use xlink:href="#DejaVuSans-20" x="399.195312"/>
      <use xlink:href="#DejaVuSans-6f" x="430.982422"/>
      <use xlink:href="#DejaVuSans-66" x="492.164062"/>
      <use xlink:href="#DejaVuSans-20" x="527.369141"/>
      <use xlink:href="#DejaVuSans-66" x="559.15625"/>
      <use xlink:href="#DejaVuSans-75" x="594.361328"/>
      <use xlink:href="#DejaVuSans-6e" x="657.740234"/>
      <use xlink:href="#DejaVuSans-63" x="721.119141"/>
      <use xlink:href="#DejaVuSans-74" x="776.099609"/>
      <use xlink:href="#DejaVuSans-69" x="815.308594"/>
      <use xlink:href="#DejaVuSans-6f" x="843.091797"/>
      <use xlink:href="#DejaVuSans-6e" x="904.273438"/>
      <use xlink:href="#DejaVuSans-2c" x="967.652344"/>
      <use xlink:href="#DejaVuSans-74" x="999.439453"/>
      <use xlink:href="#DejaVuSans-61" x="1038.648438"/>
      <use xlink:href="#DejaVuSans-72" x="1099.927734"/>
      <use xlink:href="#DejaVuSans-67" x="1139.291016"/>
      <use xlink:href="#DejaVuSans-65" x="1202.767578"/>
      <use xlink:href="#DejaVuSans-74" x="1264.291016"/>
      <use xlink:href="#DejaVuSans-20" x="1303.5"/>
      <use xlink:href="#DejaVuSans-70" x="1335.287109"/>
      <use xlink:href="#DejaVuSans-61" x="1398.763672"/>
      <use xlink:href="#DejaVuSans-69" x="1460.042969"/>
      <use xlink:href="#DejaVuSans-72" x="1487.826172"/>
      <use xlink:href="#DejaVuSans-73" x="1528.939453"/>
     </g>
    </g>
   </g>
   <g id="line2d_29">
    <defs>
     <path id="m76afbe1f68" d="M 0 1.5 
C 0.397805 1.5 0.77937 1.341951 1.06066 1.06066 
C 1.341951 0.77937 1.5 0.397805 1.5 0 
C 1.5 -0.397805 1.341951 -0.77937 1.06066 -1.06066 
C 0.77937 -1.341951 0.397805 -1.5 0 -1.5 
C -0.397805 -1.5 -0.77937 -1.341951 -1.06066 -1.06066 
C -1.341951 -0.77937 -1.5 -0.397805 -1.5 0 
C -1.5 0.397805 -1.341951 0.77937 -1.06066 1.06066 
C -0.77937 1.341951 -0.397805 1.5 0 1.5 
z
" style="stroke: #000080"/>
    </defs>
    <g>
     <use xlink:href="#m76afbe1f68" x="352.977452" y="293.217882" style="fill: #000080; stroke: #000080"/>
     <use xlink:href="#m76afbe1f68" x="352.977452" y="293.217882" style="fill: #000080; stroke: #000080"/>
    </g>
   </g>
   <g id="line2d_30">
    <path d="M 273.33555 298.944 
L 273.33555 298.562259 
L 294.566604 298.562259 
L 294.566604 297.798776 
L 304.286913 297.798776 
L 304.286913 297.035294 
L 313.190498 297.035294 
L 313.190498 296.653553 
L 315.417655 296.653553 
L 315.417655 296.271812 
L 322.363346 296.271812 
L 322.363346 295.508329 
L 323.761962 295.508329 
L 323.761962 295.126588 
L 325.063751 295.126588 
L 325.063751 294.744847 
L 326.281256 294.744847 
L 326.281256 294.363106 
L 336.14534 294.363106 
L 336.14534 293.981365 
L 349.884431 293.981365 
L 349.884431 293.599624 
L 352.977452 293.599624 
L 352.977452 293.217882 
L 360.8064 293.217882 
" style="fill: none; stroke: #000080; stroke-width: 1.5; stroke-linecap: square"/>
   </g>
   <g id="line2d_31">
    <defs>
     <path id="m5433914241" d="M 0 6 
C 1.591219 6 3.117479 5.367802 4.242641 4.242641 
C 5.367802 3.117479 6 1.591219 6 0 
C 6 -1.591219 5.367802 -3.117479 4.242641 -4.242641 
C 3.117479 -5.367802 1.591219 -6 0 -6 
C -1.591219 -6 -3.117479 -5.367802 -4.242641 -4.242641 
C -5.367802 -3.117479 -6 -1.591219 -6 0 
C -6 1.591219 -5.367802 3.117479 -4.242641 4.242641 
C -3.117479 5.367802 -1.591219 6 0 6 
z
" style="stroke: #000080; stroke-width: 1.5"/>
    </defs>
    <g>
     <use xlink:href="#m5433914241" x="313.190498" y="297.035294" style="fill-opacity: 0; stroke: #000080; stroke-width: 1.5"/>
     <use xlink:href="#m5433914241" x="352.977452" y="293.599624" style="fill-opacity: 0; stroke: #000080; stroke-width: 1.5"/>
     <use xlink:href="#m5433914241" x="360.8064" y="293.217882" style="fill-opacity: 0; stroke: #000080; stroke-width: 1.5"/>
    </g>
   </g>
   <g id="line2d_32">
    <path style="fill: none; stroke: #000080; stroke-width: 1.5; stroke-linecap: square"/>
    <g/>
   </g>
   <g id="line2d_33">
    <path d="M 274.176 298.562259 
" clip-path="url(#paeca785df7)" style="fill: none; stroke: #000080; stroke-width: 1.5; stroke-linecap: square"/>
    <defs>
     <path id="ma4bb9a5efd" d="M -12 12 
L 12 -12 
M -12 -12 
L 12 12 
" style="stroke: #000080"/>
    </defs>
    <g clip-path="url(#paeca785df7)">
     <use xlink:href="#ma4bb9a5efd" x="274.176" y="298.562259" style="fill: #000080; stroke: #000080"/>
    </g>
   </g>
   <g id="line2d_34">
    <defs>
     <path id="m8c99d22395" d="M 0 1.5 
C 0.397805 1.5 0.77937 1.341951 1.06066 1.06066 
C 1.341951 0.77937 1.5 0.397805 1.5 0 
C 1.5 -0.397805 1.341951 -0.77937 1.06066 -1.06066 
C 0.77937 -1.341951 0.397805 -1.5 0 -1.5 
C -0.397805 -1.5 -0.77937 -1.341951 -1.06066 -1.06066 
C -1.341951 -0.77937 -1.5 -0.397805 -1.5 0 
C -1.5 0.397805 -1.341951 0.77937 -1.06066 1.06066 
C -0.77937 1.341951 -0.397805 1.5 0 1.5 
z
" style="stroke: #ff00ff"/>
    </defs>
    <g>
     <use xlink:href="#m8c99d22395" x="348.502416" y="104.256" style="fill: #ff00ff; stroke: #ff00ff"/>
     <use xlink:href="#m8c99d22395" x="348.502416" y="104.256" style="fill: #ff00ff; stroke: #ff00ff"/>
    </g>
   </g>
   <g id="line2d_35">
    <path d="M 122.499621 298.944 
L 122.499621 298.562259 
L 126.828223 298.562259 
L 126.828223 298.180518 
L 131.874686 298.180518 
L 131.874686 297.798776 
L 137.304564 297.798776 
L 137.304564 297.417035 
L 160.793149 297.417035 
L 160.793149 297.035294 
L 168.464721 297.035294 
L 168.464721 296.653553 
L 175.445731 296.653553 
L 175.445731 296.271812 
L 179.788869 296.271812 
L 179.788869 295.890071 
L 188.192744 295.890071 
L 188.192744 295.508329 
L 188.931421 295.508329 
L 188.931421 295.126588 
L 189.605127 295.126588 
L 189.605127 294.744847 
L 190.355441 294.744847 
L 190.355441 294.363106 
L 191.107352 294.363106 
L 191.107352 293.981365 
L 192.79463 293.981365 
L 192.79463 293.599624 
L 195.011182 293.599624 
L 195.011182 293.217882 
L 196.136179 293.217882 
L 196.136179 292.836141 
L 200.427987 292.836141 
L 200.427987 292.4544 
L 200.68047 292.4544 
L 200.68047 292.072659 
L 200.957293 292.072659 
L 200.957293 291.690918 
L 201.177313 291.690918 
L 201.177313 291.309176 
L 203.106463 291.309176 
L 203.106463 290.927435 
L 203.22863 290.927435 
L 203.22863 290.545694 
L 203.735387 290.545694 
L 203.735387 290.163953 
L 204.996062 290.163953 
L 204.996062 289.782212 
L 205.283627 289.782212 
L 205.283627 289.400471 
L 205.832381 289.400471 
L 205.832381 289.018729 
L 206.50033 289.018729 
L 206.50033 288.636988 
L 206.617406 288.636988 
L 206.617406 288.255247 
L 207.535176 288.255247 
L 207.535176 287.873506 
L 209.048627 287.873506 
L 209.064814 287.110024 
L 209.209875 287.110024 
L 209.209875 286.728282 
L 209.442138 286.728282 
L 209.442138 286.346541 
L 210.22784 286.346541 
L 210.22784 285.9648 
L 211.60534 285.9648 
L 211.60534 285.583059 
L 212.505449 285.583059 
L 212.505449 285.201318 
L 212.767391 285.201318 
L 212.767391 284.819576 
L 213.254219 284.819576 
L 213.254219 284.437835 
L 213.406838 284.437835 
L 213.406838 284.056094 
L 213.883861 284.056094 
L 213.883861 283.674353 
L 214.811473 283.674353 
L 214.811473 283.292612 
L 216.55008 283.292612 
L 216.57281 282.529129 
L 217.834037 282.529129 
L 217.866719 281.765647 
L 217.945934 281.765647 
L 217.945934 281.383906 
L 218.141139 281.383906 
L 218.181598 280.620424 
L 218.923255 280.620424 
L 218.923255 280.238682 
L 219.313225 280.238682 
L 219.313225 279.856941 
L 219.656751 279.856941 
L 219.656751 279.4752 
L 219.849258 279.4752 
L 219.849258 279.093459 
L 220.02426 279.093459 
L 220.02426 278.711718 
L 220.153828 278.711718 
L 220.153828 278.329976 
L 220.323891 278.329976 
L 220.370933 277.566494 
L 221.038072 277.566494 
L 221.038072 277.184753 
L 221.48429 277.184753 
L 221.48429 276.803012 
L 222.356968 276.803012 
L 222.356968 276.421271 
L 222.924074 276.421271 
L 222.924074 276.039529 
L 223.169162 276.039529 
L 223.169162 275.657788 
L 223.416828 275.657788 
L 223.416828 275.276047 
L 224.11528 275.276047 
L 224.202449 274.512565 
L 224.234181 274.512565 
L 224.234181 274.130824 
L 224.536746 274.130824 
L 224.536746 273.749082 
L 225.01172 273.749082 
L 225.01172 273.367341 
L 225.519278 273.367341 
L 225.519278 272.9856 
L 226.167914 272.9856 
L 226.167914 272.603859 
L 226.426259 272.603859 
L 226.536544 271.458635 
L 226.588435 271.458635 
L 226.66712 270.695153 
L 227.009919 270.695153 
L 227.01442 269.931671 
L 227.504421 269.931671 
L 227.582062 268.786447 
L 227.676771 268.786447 
L 227.715277 268.022965 
L 227.858814 268.022965 
L 227.935997 267.259482 
L 229.147245 267.259482 
L 229.147245 266.877741 
L 229.369701 266.877741 
L 229.369701 266.496 
L 229.767538 266.496 
L 229.835699 265.732518 
L 230.146294 265.732518 
L 230.249377 264.969035 
L 230.99996 264.969035 
L 231.060828 264.205553 
L 231.13782 264.205553 
L 231.13782 263.823812 
L 231.506763 263.823812 
L 231.547797 263.060329 
L 231.830145 263.060329 
L 231.830145 262.678588 
L 232.047043 262.678588 
L 232.071225 261.915106 
L 232.754616 261.915106 
L 232.754616 261.533365 
L 232.871874 261.533365 
L 232.928924 260.769882 
L 233.544903 260.769882 
L 233.544903 260.388141 
L 233.801015 260.388141 
L 233.814284 259.624659 
L 233.931131 259.624659 
L 234.030972 258.861176 
L 234.090322 258.861176 
L 234.090322 258.479435 
L 234.41975 258.479435 
L 234.491154 257.715953 
L 234.616444 257.715953 
L 234.715098 256.952471 
L 234.947765 256.952471 
L 235.052155 256.188988 
L 235.115202 256.188988 
L 235.115202 255.807247 
L 235.817322 255.807247 
L 235.817322 255.425506 
L 237.00266 255.425506 
L 237.089386 254.662024 
L 237.165961 254.662024 
L 237.165961 254.280282 
L 237.433339 254.280282 
L 237.433339 253.898541 
L 237.766556 253.898541 
L 237.766556 253.5168 
L 238.160515 253.5168 
L 238.160515 253.135059 
L 238.462062 253.135059 
L 238.493495 252.371576 
L 239.014543 252.371576 
L 239.104691 251.226353 
L 239.16316 251.226353 
L 239.16316 250.844612 
L 239.306591 250.844612 
L 239.41542 249.699388 
L 239.840582 249.699388 
L 239.902221 248.935906 
L 239.961746 248.935906 
L 240.065419 248.172424 
L 240.091868 248.172424 
L 240.168181 247.408941 
L 240.507696 247.408941 
L 240.526779 246.263718 
L 240.641268 246.263718 
L 240.742497 245.500235 
L 241.148313 245.500235 
L 241.210105 244.355012 
L 241.273372 244.355012 
L 241.273372 243.973271 
L 241.41189 243.973271 
L 241.41189 243.591529 
L 241.553072 243.591529 
L 241.553072 243.209788 
L 242.002442 243.209788 
L 242.002442 242.828047 
L 242.294954 242.828047 
L 242.294954 242.446306 
L 242.728946 242.446306 
L 242.728946 242.064565 
L 242.868715 242.064565 
L 242.978828 240.5376 
L 243.612751 240.5376 
L 243.661395 239.774118 
L 243.863256 239.774118 
L 243.863256 239.392376 
L 244.009468 239.392376 
L 244.009468 239.010635 
L 244.481619 239.010635 
L 244.481619 238.628894 
L 245.135562 238.628894 
L 245.239734 237.865412 
L 245.264856 237.865412 
L 245.374145 236.338447 
L 245.803866 236.338447 
L 245.803866 235.956706 
L 246.221164 235.956706 
L 246.221164 235.574965 
L 246.393222 235.574965 
L 246.412654 234.811482 
L 246.554492 234.811482 
L 246.554492 234.429741 
L 246.765143 234.429741 
L 246.765143 234.048 
L 246.955839 234.048 
L 247.004987 233.284518 
L 247.156571 233.284518 
L 247.156571 232.902776 
L 247.293911 232.902776 
L 247.354322 231.757553 
L 247.464917 231.757553 
L 247.528467 230.612329 
L 247.63581 230.612329 
L 247.644715 229.848847 
L 248.003962 229.848847 
L 248.003962 229.467106 
L 248.115965 229.467106 
L 248.115965 229.085365 
L 248.296339 229.085365 
L 248.296339 228.703624 
L 248.626941 228.703624 
L 248.658957 227.940141 
L 249.430411 227.940141 
L 249.496155 227.176659 
L 249.694679 227.176659 
L 249.718477 226.413176 
L 249.868852 226.413176 
L 249.979403 225.267953 
L 250.008623 225.267953 
L 250.076546 224.122729 
L 250.260318 224.122729 
L 250.260318 223.740988 
L 250.417885 223.740988 
L 250.514052 222.977506 
L 250.672239 222.977506 
L 250.719395 222.214024 
L 250.86334 222.214024 
L 250.913194 221.450541 
L 251.365461 221.450541 
L 251.365461 221.0688 
L 251.653487 221.0688 
L 251.653487 220.687059 
L 251.818319 220.687059 
L 251.818319 220.305318 
L 251.955045 220.305318 
L 252.051278 219.541835 
L 252.148932 219.541835 
L 252.219568 218.396612 
L 252.362958 218.396612 
L 252.362958 218.014871 
L 252.637841 218.014871 
L 252.637841 217.633129 
L 252.772926 217.633129 
L 252.772926 217.251388 
L 252.909407 217.251388 
L 252.909407 216.869647 
L 253.107938 216.869647 
L 253.107938 216.487906 
L 253.399547 216.487906 
L 253.399547 216.106165 
L 253.628193 216.106165 
L 253.719883 214.197459 
L 253.762777 214.197459 
L 253.762777 213.815718 
L 254.023272 213.815718 
L 254.121776 213.052235 
L 254.375009 213.052235 
L 254.465553 212.288753 
L 254.527429 212.288753 
L 254.527429 211.907012 
L 254.686286 211.907012 
L 254.746201 210.380047 
L 254.802421 210.380047 
L 254.880996 209.616565 
L 254.958852 209.616565 
L 254.958852 209.234824 
L 255.07758 209.234824 
L 255.146689 208.471341 
L 255.31827 208.471341 
L 255.31827 208.0896 
L 255.455939 208.0896 
L 255.518451 206.562635 
L 255.691213 206.562635 
L 255.781654 205.417412 
L 255.883182 205.417412 
L 255.883182 205.035671 
L 256.458612 205.035671 
L 256.541172 204.272188 
L 256.796701 204.272188 
L 256.796701 203.890447 
L 256.941289 203.890447 
L 256.941289 203.508706 
L 257.358798 203.508706 
L 257.453898 201.981741 
L 257.878253 201.981741 
L 257.915305 201.218259 
L 258.137222 201.218259 
L 258.137222 200.836518 
L 258.272973 200.836518 
L 258.272973 200.454776 
L 258.56833 200.454776 
L 258.631857 199.691294 
L 258.712383 199.691294 
L 258.712383 199.309553 
L 258.856828 199.309553 
L 258.957004 197.782588 
L 259.003333 197.782588 
L 259.003333 197.400847 
L 259.188285 197.400847 
L 259.188285 197.019106 
L 259.368276 197.019106 
L 259.452507 196.255624 
L 259.582432 196.255624 
L 259.684478 195.1104 
L 260.301548 195.1104 
L 260.392439 194.346918 
L 260.484627 194.346918 
L 260.542107 193.583435 
L 260.650561 193.583435 
L 260.664552 192.819953 
L 260.796378 192.819953 
L 260.872423 192.056471 
L 261.018847 192.056471 
L 261.018847 191.674729 
L 261.170468 191.674729 
L 261.220876 190.911247 
L 261.433724 190.911247 
L 261.472163 190.147765 
L 261.617585 190.147765 
L 261.617585 189.766024 
L 261.730093 189.766024 
L 261.730093 189.384282 
L 261.906274 189.384282 
L 262.009424 187.857318 
L 262.041203 187.857318 
L 262.041203 187.475576 
L 262.200201 187.475576 
L 262.200201 187.093835 
L 262.321691 187.093835 
L 262.321691 186.712094 
L 262.568917 186.712094 
L 262.659852 185.185129 
L 262.949021 185.185129 
L 263.009487 184.421647 
L 263.239954 184.421647 
L 263.315399 183.658165 
L 263.38577 183.658165 
L 263.460019 182.512941 
L 263.514291 182.512941 
L 263.514291 182.1312 
L 263.627181 182.1312 
L 263.688629 181.367718 
L 263.922316 181.367718 
L 263.98787 180.604235 
L 264.147461 180.604235 
L 264.147461 180.222494 
L 264.324457 180.222494 
L 264.427533 178.695529 
L 264.443303 178.695529 
L 264.454724 177.932047 
L 264.641283 177.932047 
L 264.653005 177.168565 
L 264.975438 177.168565 
L 264.975438 176.786824 
L 265.267353 176.786824 
L 265.267353 176.405082 
L 265.413045 176.405082 
L 265.413045 176.023341 
L 265.813171 176.023341 
L 265.813171 175.6416 
L 266.052397 175.6416 
L 266.060334 174.878118 
L 266.228514 174.878118 
L 266.326246 174.114635 
L 266.362687 174.114635 
L 266.406892 172.969412 
L 266.733075 172.969412 
L 266.824808 171.824188 
L 267.077789 171.824188 
L 267.077789 171.442447 
L 267.202681 171.442447 
L 267.297296 170.678965 
L 267.420044 170.678965 
L 267.473135 169.915482 
L 267.540697 169.915482 
L 267.540697 169.533741 
L 267.738259 169.533741 
L 267.738259 169.152 
L 267.859303 169.152 
L 267.859303 168.770259 
L 268.272712 168.770259 
L 268.272712 168.388518 
L 268.48119 168.388518 
L 268.482603 167.625035 
L 268.647852 167.625035 
L 268.742495 166.861553 
L 268.872609 166.861553 
L 268.930053 166.098071 
L 269.066102 166.098071 
L 269.066102 165.716329 
L 269.19197 165.716329 
L 269.19197 165.334588 
L 269.305392 165.334588 
L 269.363876 164.571106 
L 269.561905 164.571106 
L 269.633266 163.044141 
L 269.802973 163.044141 
L 269.802973 162.6624 
L 270.11111 162.6624 
L 270.221646 161.898918 
L 270.591768 161.898918 
L 270.63671 161.135435 
L 270.716228 161.135435 
L 270.807936 159.608471 
L 270.849133 159.608471 
L 270.865739 158.844988 
L 271.191361 158.844988 
L 271.191361 158.463247 
L 271.583381 158.463247 
L 271.678498 157.318024 
L 271.76682 157.318024 
L 271.76682 156.936282 
L 271.985445 156.936282 
L 272.033065 156.1728 
L 272.710602 156.1728 
L 272.710602 155.791059 
L 272.893643 155.791059 
L 272.893643 155.027576 
L 273.035347 155.027576 
L 273.035347 154.645835 
L 273.15086 154.645835 
L 273.218775 153.500612 
L 273.34785 153.500612 
L 273.34785 153.118871 
L 273.507065 153.118871 
L 273.615268 152.355388 
L 273.626931 152.355388 
L 273.735518 150.446682 
L 274.039688 150.446682 
L 274.111771 148.919718 
L 279.895933 148.919718 
L 279.895933 148.537976 
L 281.004936 148.537976 
L 281.004936 148.156235 
L 281.715706 148.156235 
L 281.715706 147.392753 
L 282.778478 147.392753 
L 282.778478 146.629271 
L 282.975631 146.629271 
L 283.045547 145.865788 
L 283.283357 145.865788 
L 283.283357 145.484047 
L 283.696808 145.484047 
L 283.728879 144.720565 
L 284.088498 144.720565 
L 284.138871 143.957082 
L 284.494152 143.957082 
L 284.494152 143.575341 
L 284.653443 143.575341 
L 284.69392 142.811859 
L 284.833199 142.811859 
L 284.833199 142.430118 
L 285.292312 142.430118 
L 285.292312 142.048376 
L 285.57671 142.048376 
L 285.57671 141.666635 
L 285.963494 141.666635 
L 286.049126 139.757929 
L 286.174205 139.757929 
L 286.174205 139.376188 
L 286.74265 139.376188 
L 286.74265 138.994447 
L 286.88368 138.994447 
L 286.966734 137.467482 
L 287.147142 137.467482 
L 287.183088 136.322259 
L 291.789526 136.322259 
L 291.789526 135.940518 
L 292.445748 135.940518 
L 292.445748 135.558776 
L 292.93147 135.558776 
L 292.93147 135.177035 
L 293.494806 135.177035 
L 293.494806 134.795294 
L 293.7663 134.795294 
L 293.7663 134.031812 
L 294.01747 134.031812 
L 294.046383 133.268329 
L 294.155062 133.268329 
L 294.155062 132.886588 
L 294.366708 132.886588 
L 294.366708 132.504847 
L 294.511561 132.504847 
L 294.528909 131.741365 
L 294.657543 131.741365 
L 294.67734 130.977882 
L 294.797275 130.977882 
L 294.821217 129.450918 
L 296.92243 129.450918 
L 296.92243 129.069176 
L 298.253758 129.069176 
L 298.253758 128.687435 
L 298.942993 128.687435 
L 299.017056 127.923953 
L 299.101038 127.923953 
L 299.211008 127.160471 
L 299.45295 127.160471 
L 299.467164 126.015247 
L 299.680358 126.015247 
L 299.680358 125.633506 
L 300.01957 125.633506 
L 300.118577 124.488282 
L 304.202452 124.488282 
L 304.229361 123.7248 
L 304.355556 123.7248 
L 304.439197 122.579576 
L 306.423116 122.579576 
L 306.423116 121.816094 
L 306.660258 121.816094 
L 306.660258 121.434353 
L 307.351322 121.434353 
L 307.360664 120.670871 
L 307.861261 120.670871 
L 307.861261 120.289129 
L 310.64779 120.289129 
L 310.687472 119.525647 
L 310.762178 119.525647 
L 310.767836 118.762165 
L 312.779085 118.762165 
L 312.799346 117.998682 
L 312.988324 117.998682 
L 313.008717 117.2352 
L 313.211196 117.2352 
L 313.285507 116.471718 
L 314.977403 116.471718 
L 314.977403 116.089976 
L 315.256258 116.089976 
L 315.256258 115.326494 
L 315.436043 115.326494 
L 315.436043 114.181271 
L 317.263701 114.181271 
L 317.263701 113.799529 
L 319.224294 113.799529 
L 319.271781 113.036047 
L 320.866107 113.036047 
L 320.866107 112.654306 
L 322.376059 112.654306 
L 322.416229 111.890824 
L 323.811061 111.890824 
L 323.811061 111.509082 
L 324.967268 111.509082 
L 324.967268 111.127341 
L 326.291579 111.127341 
L 326.291579 110.7456 
L 327.330135 110.7456 
L 327.330135 110.363859 
L 329.558318 110.363859 
L 329.558318 109.218635 
L 330.523582 109.218635 
L 330.523582 108.836894 
L 332.317132 108.836894 
L 332.317132 108.455153 
L 333.130919 108.455153 
L 333.130919 108.073412 
L 333.954466 108.073412 
L 333.954466 107.691671 
L 334.637381 107.691671 
L 334.637381 107.309929 
L 336.779005 107.309929 
L 336.779005 106.928188 
L 338.082275 106.928188 
L 338.082275 106.546447 
L 339.882086 106.546447 
L 339.882086 106.164706 
L 340.445689 106.164706 
L 340.492977 105.401224 
L 341.583781 105.401224 
L 341.583781 105.019482 
L 343.978821 105.019482 
L 343.978821 104.637741 
L 348.502416 104.637741 
L 348.502416 104.256 
L 360.8064 104.256 
L 360.8064 104.256 
" style="fill: none; stroke: #ff00ff; stroke-width: 1.5; stroke-linecap: square"/>
   </g>
   <g id="line2d_36">
    <defs>
     <path id="m96f05a254d" d="M 0 8.485281 
L 5.091169 0 
L 0 -8.485281 
L -5.091169 0 
z
" style="stroke: #ff00ff; stroke-width: 1.5; stroke-linejoin: miter"/>
    </defs>
    <g>
     <use xlink:href="#m96f05a254d" x="222.356968" y="276.421271" style="fill-opacity: 0; stroke: #ff00ff; stroke-width: 1.5; stroke-linejoin: miter"/>
     <use xlink:href="#m96f05a254d" x="272.033065" y="156.554541" style="fill-opacity: 0; stroke: #ff00ff; stroke-width: 1.5; stroke-linejoin: miter"/>
     <use xlink:href="#m96f05a254d" x="319.271781" y="113.417788" style="fill-opacity: 0; stroke: #ff00ff; stroke-width: 1.5; stroke-linejoin: miter"/>
     <use xlink:href="#m96f05a254d" x="348.502416" y="104.256" style="fill-opacity: 0; stroke: #ff00ff; stroke-width: 1.5; stroke-linejoin: miter"/>
     <use xlink:href="#m96f05a254d" x="360.8064" y="104.256" style="fill-opacity: 0; stroke: #ff00ff; stroke-width: 1.5; stroke-linejoin: miter"/>
    </g>
   </g>
   <g id="line2d_37">
    <path style="fill: none; stroke: #ff00ff; stroke-width: 1.5; stroke-linecap: square"/>
    <g/>
   </g>
   <g id="line2d_38">
    <path d="M 274.176 148.919718 
" clip-path="url(#paeca785df7)" style="fill: none; stroke: #ff00ff; stroke-width: 1.5; stroke-linecap: square"/>
    <defs>
     <path id="m07851533e1" d="M -12 12 
L 12 -12 
M -12 -12 
L 12 12 
" style="stroke: #ff00ff"/>
    </defs>
    <g clip-path="url(#paeca785df7)">
     <use xlink:href="#m07851533e1" x="274.176" y="148.919718" style="fill: #ff00ff; stroke: #ff00ff"/>
    </g>
   </g>
   <g id="line2d_39">
    <defs>
     <path id="m4c4b6f9689" d="M 0 1.5 
C 0.397805 1.5 0.77937 1.341951 1.06066 1.06066 
C 1.341951 0.77937 1.5 0.397805 1.5 0 
C 1.5 -0.397805 1.341951 -0.77937 1.06066 -1.06066 
C 0.77937 -1.341951 0.397805 -1.5 0 -1.5 
C -0.397805 -1.5 -0.77937 -1.341951 -1.06066 -1.06066 
C -1.341951 -0.77937 -1.5 -0.397805 -1.5 0 
C -1.5 0.397805 -1.341951 0.77937 -1.06066 1.06066 
C -0.77937 1.341951 -0.397805 1.5 0 1.5 
z
" style="stroke: #ff7500"/>
    </defs>
    <g>
     <use xlink:href="#m4c4b6f9689" x="349.238477" y="150.064941" style="fill: #ff7500; stroke: #ff7500"/>
     <use xlink:href="#m4c4b6f9689" x="349.238477" y="150.064941" style="fill: #ff7500; stroke: #ff7500"/>
    </g>
   </g>
   <g id="line2d_40">
    <path d="M 194.506724 298.944 
L 194.506724 298.562259 
L 195.864347 298.562259 
L 195.864347 298.180518 
L 197.375328 298.180518 
L 197.411549 297.417035 
L 197.988269 297.417035 
L 197.988269 297.035294 
L 198.565119 297.035294 
L 198.565119 296.653553 
L 199.097849 296.653553 
L 199.097849 296.271812 
L 199.425804 296.271812 
L 199.526569 295.126588 
L 199.834966 295.126588 
L 199.834966 294.744847 
L 200.186966 294.744847 
L 200.186966 294.363106 
L 200.411382 294.363106 
L 200.504183 293.217882 
L 200.626114 293.217882 
L 200.626114 292.836141 
L 200.76823 292.836141 
L 200.76823 292.4544 
L 201.040102 292.4544 
L 201.040102 292.072659 
L 201.284101 292.072659 
L 201.351496 291.309176 
L 201.424498 291.309176 
L 201.424498 290.927435 
L 201.572335 290.927435 
L 201.572335 290.545694 
L 201.855341 290.545694 
L 201.855341 290.163953 
L 202.148006 290.163953 
L 202.148006 289.782212 
L 202.328047 289.782212 
L 202.408037 289.018729 
L 202.455784 289.018729 
L 202.455784 288.636988 
L 202.773683 288.636988 
L 202.773683 288.255247 
L 202.915066 288.255247 
L 203.015348 287.491765 
L 203.045906 287.491765 
L 203.045906 287.110024 
L 203.587234 287.110024 
L 203.587234 286.728282 
L 203.734989 286.728282 
L 203.734989 286.346541 
L 203.905259 286.346541 
L 203.996882 285.583059 
L 204.047417 285.583059 
L 204.047417 285.201318 
L 204.190451 285.201318 
L 204.29692 284.437835 
L 204.463732 284.437835 
L 204.503487 283.674353 
L 204.707054 283.674353 
L 204.707054 283.292612 
L 204.838426 283.292612 
L 204.854549 282.529129 
L 204.988248 282.529129 
L 205.059563 281.765647 
L 205.212423 281.765647 
L 205.307058 281.002165 
L 205.646446 281.002165 
L 205.689876 279.856941 
L 206.021782 279.856941 
L 206.114545 277.948235 
L 206.146065 277.948235 
L 206.146065 277.566494 
L 206.300446 277.566494 
L 206.387358 276.421271 
L 206.620477 276.421271 
L 206.717132 275.276047 
L 206.765612 275.276047 
L 206.826797 273.749082 
L 207.216578 273.749082 
L 207.291139 272.9856 
L 207.384744 272.9856 
L 207.384744 272.603859 
L 207.633075 272.603859 
L 207.738829 271.458635 
L 207.747508 271.458635 
L 207.747508 271.076894 
L 207.883596 271.076894 
L 207.967955 270.313412 
L 208.007299 270.313412 
L 208.113812 269.549929 
L 208.136176 269.549929 
L 208.136176 269.168188 
L 208.260736 269.168188 
L 208.358674 268.022965 
L 208.398763 268.022965 
L 208.446199 267.259482 
L 208.515433 267.259482 
L 208.594554 266.496 
L 208.813246 266.496 
L 208.908659 265.350776 
L 208.94699 265.350776 
L 208.998779 264.587294 
L 209.189944 264.587294 
L 209.189944 264.205553 
L 209.356482 264.205553 
L 209.427154 263.442071 
L 209.530037 263.442071 
L 209.604721 262.678588 
L 209.702296 262.678588 
L 209.775146 261.915106 
L 209.977467 261.915106 
L 210.035608 261.151624 
L 210.112 261.151624 
L 210.204165 260.388141 
L 210.275944 260.388141 
L 210.329529 259.624659 
L 210.476036 259.624659 
L 210.476036 259.242918 
L 210.6181 259.242918 
L 210.6181 258.861176 
L 210.77607 258.861176 
L 210.790837 257.715953 
L 210.919968 257.715953 
L 210.999888 256.952471 
L 211.081894 256.952471 
L 211.185506 255.807247 
L 211.252043 255.807247 
L 211.252043 255.425506 
L 211.604032 255.425506 
L 211.657102 254.662024 
L 211.961118 254.662024 
L 212.026507 253.898541 
L 212.100597 253.898541 
L 212.100597 253.5168 
L 212.331208 253.5168 
L 212.438952 252.371576 
L 212.448216 252.371576 
L 212.448216 251.989835 
L 212.793951 251.989835 
L 212.891262 251.226353 
L 213.102286 251.226353 
L 213.102286 250.844612 
L 213.259015 250.844612 
L 213.259015 250.462871 
L 213.503641 250.462871 
L 213.503641 250.081129 
L 213.799952 250.081129 
L 213.861816 249.317647 
L 213.937358 249.317647 
L 213.937358 248.935906 
L 214.067567 248.935906 
L 214.086161 248.172424 
L 214.25973 248.172424 
L 214.25973 247.790682 
L 214.479182 247.790682 
L 214.575553 246.645459 
L 214.593205 246.645459 
L 214.593205 246.263718 
L 214.925041 246.263718 
L 214.998188 245.500235 
L 215.151876 245.500235 
L 215.225228 244.736753 
L 215.350925 244.736753 
L 215.350925 244.355012 
L 215.954864 244.355012 
L 215.954864 243.973271 
L 216.082399 243.973271 
L 216.100548 243.209788 
L 216.427713 243.209788 
L 216.427713 242.828047 
L 216.640034 242.828047 
L 216.640034 242.446306 
L 216.922938 242.446306 
L 216.922938 241.682824 
L 217.651745 241.682824 
L 217.756802 240.155859 
L 218.578411 240.155859 
L 218.578411 239.774118 
L 218.869243 239.774118 
L 218.869243 239.392376 
L 219.928976 239.392376 
L 219.928976 239.010635 
L 220.623526 239.010635 
L 220.665782 238.247153 
L 221.187938 238.247153 
L 221.187938 237.865412 
L 221.362507 237.865412 
L 221.441197 236.720188 
L 221.792807 236.720188 
L 221.792807 236.338447 
L 223.447122 236.338447 
L 223.462739 235.193224 
L 224.161131 235.193224 
L 224.161131 234.048 
L 224.467903 234.048 
L 224.467903 233.666259 
L 227.389957 233.666259 
L 227.407595 232.902776 
L 231.247329 232.902776 
L 231.247329 232.521035 
L 274.622916 232.521035 
L 274.622916 232.139294 
L 274.737507 232.139294 
L 274.819363 230.230588 
L 274.86569 230.230588 
L 274.974922 228.321882 
L 275.014545 228.321882 
L 275.090737 224.886212 
L 275.130555 224.886212 
L 275.237144 223.359247 
L 275.282924 223.359247 
L 275.303195 222.214024 
L 275.404487 222.214024 
L 275.469647 219.541835 
L 276.004402 219.541835 
L 276.004402 219.160094 
L 287.483285 219.160094 
L 287.577602 216.869647 
L 287.606822 216.869647 
L 287.705939 212.670494 
L 287.769377 212.670494 
L 287.873116 206.944376 
L 287.981458 206.944376 
L 287.981458 206.562635 
L 288.151581 206.562635 
L 288.151581 205.799153 
L 295.043295 205.799153 
L 295.152484 201.6 
L 295.166199 201.6 
L 295.261076 195.873882 
L 295.283777 195.873882 
L 295.283777 195.492141 
L 300.446163 195.492141 
L 300.542543 192.438212 
L 300.568815 192.438212 
L 300.586196 188.6208 
L 304.579859 188.6208 
L 304.678683 185.566871 
L 304.704225 185.566871 
L 304.762583 183.276424 
L 307.982391 183.276424 
L 308.092004 177.932047 
L 308.14093 177.932047 
L 308.14093 177.550306 
L 310.896878 177.550306 
L 311.003732 174.878118 
L 313.409679 174.878118 
L 313.457495 171.442447 
L 313.532031 171.442447 
L 313.532031 171.060706 
L 315.619376 171.060706 
L 315.721361 168.006776 
L 317.572636 168.006776 
L 317.64712 166.098071 
L 319.399093 166.098071 
L 319.457892 164.189365 
L 321.002374 164.189365 
L 321.050974 162.280659 
L 322.513011 162.280659 
L 322.513814 161.517176 
L 323.875769 161.517176 
L 323.932268 159.608471 
L 326.414862 159.608471 
L 326.414862 159.226729 
L 327.550482 159.226729 
L 327.550482 158.844988 
L 328.618717 158.844988 
L 328.654756 157.699765 
L 329.634683 157.699765 
L 329.647692 156.936282 
L 330.575156 156.936282 
L 330.597214 156.1728 
L 331.511855 156.1728 
L 331.511855 155.791059 
L 332.380923 155.791059 
L 332.38408 155.027576 
L 333.206917 155.027576 
L 333.206917 154.645835 
L 334.007572 154.645835 
L 334.015842 153.118871 
L 336.222728 153.118871 
L 336.222728 152.737129 
L 337.563786 152.737129 
L 337.563786 152.355388 
L 338.194156 152.355388 
L 338.200036 151.591906 
L 340.558266 151.591906 
L 340.558266 151.210165 
L 341.624716 151.210165 
L 341.624716 150.828424 
L 343.125778 150.828424 
L 343.125778 150.446682 
L 349.238477 150.446682 
L 349.238477 150.064941 
L 360.8064 150.064941 
L 360.8064 150.064941 
" style="fill: none; stroke: #ff7500; stroke-width: 1.5; stroke-linecap: square"/>
   </g>
   <g id="line2d_41">
    <defs>
     <path id="m2a94c00d69" d="M 0 -6 
L -1.347084 -1.854102 
L -5.706339 -1.854102 
L -2.179628 0.708204 
L -3.526712 4.854102 
L -0 2.291796 
L 3.526712 4.854102 
L 2.179628 0.708204 
L 5.706339 -1.854102 
L 1.347084 -1.854102 
z
" style="stroke: #ff7500; stroke-width: 1.5; stroke-linejoin: bevel"/>
    </defs>
    <g>
     <use xlink:href="#m2a94c00d69" x="231.247329" y="232.521035" style="fill-opacity: 0; stroke: #ff7500; stroke-width: 1.5; stroke-linejoin: bevel"/>
     <use xlink:href="#m2a94c00d69" x="304.762294" y="183.658165" style="fill-opacity: 0; stroke: #ff7500; stroke-width: 1.5; stroke-linejoin: bevel"/>
     <use xlink:href="#m2a94c00d69" x="349.238477" y="150.064941" style="fill-opacity: 0; stroke: #ff7500; stroke-width: 1.5; stroke-linejoin: bevel"/>
     <use xlink:href="#m2a94c00d69" x="360.8064" y="150.064941" style="fill-opacity: 0; stroke: #ff7500; stroke-width: 1.5; stroke-linejoin: bevel"/>
    </g>
   </g>
   <g id="line2d_42">
    <path style="fill: none; stroke: #ff7500; stroke-width: 1.5; stroke-linecap: square"/>
    <g/>
   </g>
   <g id="line2d_43">
    <path d="M 274.176 232.521035 
" clip-path="url(#paeca785df7)" style="fill: none; stroke: #ff7500; stroke-width: 1.5; stroke-linecap: square"/>
    <defs>
     <path id="md7dbc20ad4" d="M -12 12 
L 12 -12 
M -12 -12 
L 12 12 
" style="stroke: #ff7500"/>
    </defs>
    <g clip-path="url(#paeca785df7)">
     <use xlink:href="#md7dbc20ad4" x="274.176" y="232.521035" style="fill: #ff7500; stroke: #ff7500"/>
    </g>
   </g>
   <g id="line2d_44">
    <defs>
     <path id="m7039beef4f" d="M 0 1.5 
C 0.397805 1.5 0.77937 1.341951 1.06066 1.06066 
C 1.341951 0.77937 1.5 0.397805 1.5 0 
C 1.5 -0.397805 1.341951 -0.77937 1.06066 -1.06066 
C 0.77937 -1.341951 0.397805 -1.5 0 -1.5 
C -0.397805 -1.5 -0.77937 -1.341951 -1.06066 -1.06066 
C -1.341951 -0.77937 -1.5 -0.397805 -1.5 0 
C -1.5 0.397805 -1.341951 0.77937 -1.06066 1.06066 
C -0.77937 1.341951 -0.397805 1.5 0 1.5 
z
" style="stroke: #6495ed"/>
    </defs>
    <g>
     <use xlink:href="#m7039beef4f" x="345.393886" y="207.326118" style="fill: #6495ed; stroke: #6495ed"/>
     <use xlink:href="#m7039beef4f" x="345.393886" y="207.326118" style="fill: #6495ed; stroke: #6495ed"/>
    </g>
   </g>
   <g id="line2d_45">
    <path d="M 178.624172 298.944 
L 178.624172 298.562259 
L 179.095791 298.562259 
L 179.095791 298.180518 
L 180.499771 298.180518 
L 180.499771 297.798776 
L 183.220515 297.798776 
L 183.220515 297.417035 
L 183.89712 297.417035 
L 183.89712 297.035294 
L 184.425187 297.035294 
L 184.425187 296.653553 
L 184.54251 296.653553 
L 184.637162 295.890071 
L 185.159017 295.890071 
L 185.159017 295.508329 
L 185.953533 295.508329 
L 186.013832 294.744847 
L 186.365611 294.744847 
L 186.365611 294.363106 
L 186.949329 294.363106 
L 187.048097 293.599624 
L 187.541837 293.599624 
L 187.541837 293.217882 
L 187.915352 293.217882 
L 187.915352 292.836141 
L 188.532268 292.836141 
L 188.532268 292.4544 
L 189.902879 292.4544 
L 189.902879 292.072659 
L 190.714103 292.072659 
L 190.714103 291.690918 
L 190.941617 291.690918 
L 190.941617 291.309176 
L 191.436034 291.309176 
L 191.436034 290.927435 
L 191.794375 290.927435 
L 191.794375 290.545694 
L 191.928968 290.545694 
L 191.928968 290.163953 
L 192.515054 290.163953 
L 192.535265 289.400471 
L 193.210531 289.400471 
L 193.210531 289.018729 
L 194.515168 289.018729 
L 194.568988 288.255247 
L 195.256242 288.255247 
L 195.256242 287.873506 
L 195.510472 287.873506 
L 195.510472 287.491765 
L 195.671151 287.491765 
L 195.671151 287.110024 
L 196.208721 287.110024 
L 196.208721 286.728282 
L 196.524157 286.728282 
L 196.567293 285.9648 
L 196.94771 285.9648 
L 196.94771 285.583059 
L 197.545791 285.583059 
L 197.545791 285.201318 
L 198.021712 285.201318 
L 198.021712 284.819576 
L 198.204064 284.819576 
L 198.229133 284.056094 
L 198.496403 284.056094 
L 198.496403 283.674353 
L 199.70778 283.674353 
L 199.70778 283.292612 
L 200.329565 283.292612 
L 200.329565 282.910871 
L 200.622829 282.910871 
L 200.622829 282.529129 
L 201.059372 282.529129 
L 201.164549 281.765647 
L 201.487359 281.765647 
L 201.487359 281.383906 
L 201.801196 281.383906 
L 201.801196 281.002165 
L 202.117253 281.002165 
L 202.144977 280.238682 
L 202.266648 280.238682 
L 202.369582 279.4752 
L 203.276786 279.4752 
L 203.276786 279.093459 
L 203.768372 279.093459 
L 203.768372 278.711718 
L 204.049373 278.711718 
L 204.049373 278.329976 
L 204.335102 278.329976 
L 204.383202 277.566494 
L 204.454546 277.566494 
L 204.511504 276.803012 
L 205.027654 276.803012 
L 205.065123 276.039529 
L 205.430686 276.039529 
L 205.494551 275.276047 
L 205.669788 275.276047 
L 205.669788 274.894306 
L 206.016497 274.894306 
L 206.088589 274.130824 
L 206.334081 274.130824 
L 206.334081 273.749082 
L 206.449438 273.749082 
L 206.449438 273.367341 
L 206.708983 273.367341 
L 206.708983 272.9856 
L 207.062234 272.9856 
L 207.082553 272.222118 
L 207.267417 272.222118 
L 207.267417 271.840376 
L 207.382778 271.840376 
L 207.480168 271.076894 
L 207.528675 271.076894 
L 207.528675 270.695153 
L 207.727894 270.695153 
L 207.727894 270.313412 
L 208.132713 270.313412 
L 208.132713 269.931671 
L 208.254168 269.931671 
L 208.304154 269.168188 
L 208.484866 269.168188 
L 208.542255 268.404706 
L 209.083083 268.404706 
L 209.083083 268.022965 
L 209.51132 268.022965 
L 209.51132 267.641224 
L 209.633814 267.641224 
L 209.633814 267.259482 
L 209.788125 267.259482 
L 209.814057 266.496 
L 210.012829 266.496 
L 210.055232 265.350776 
L 210.264421 265.350776 
L 210.264421 264.969035 
L 210.405576 264.969035 
L 210.405576 264.587294 
L 210.519073 264.587294 
L 210.519073 264.205553 
L 211.09454 264.205553 
L 211.09454 263.823812 
L 211.256844 263.823812 
L 211.256844 263.442071 
L 211.560523 263.442071 
L 211.560523 263.060329 
L 212.164742 263.060329 
L 212.164742 262.678588 
L 212.35336 262.678588 
L 212.35336 262.296847 
L 212.549319 262.296847 
L 212.549319 261.915106 
L 212.74104 261.915106 
L 212.801568 261.151624 
L 212.952528 261.151624 
L 212.952528 260.769882 
L 213.366595 260.769882 
L 213.409455 260.0064 
L 213.833002 260.0064 
L 213.833002 259.624659 
L 214.039298 259.624659 
L 214.12169 258.861176 
L 214.247223 258.861176 
L 214.247223 258.479435 
L 214.628459 258.479435 
L 214.628459 258.097694 
L 214.773021 258.097694 
L 214.82008 257.334212 
L 215.361863 257.334212 
L 215.361863 256.952471 
L 215.533025 256.952471 
L 215.533025 256.570729 
L 215.733359 256.570729 
L 215.733359 256.188988 
L 215.884099 256.188988 
L 215.957979 255.425506 
L 216.934971 255.425506 
L 216.934971 255.043765 
L 217.274803 255.043765 
L 217.30209 254.280282 
L 217.426026 254.280282 
L 217.426026 253.898541 
L 217.863904 253.898541 
L 217.868033 253.135059 
L 218.303926 253.135059 
L 218.303926 252.753318 
L 218.426738 252.753318 
L 218.462407 251.989835 
L 218.766657 251.989835 
L 218.766657 251.608094 
L 218.897512 251.608094 
L 218.897512 251.226353 
L 219.841656 251.226353 
L 219.841656 250.844612 
L 220.068884 250.844612 
L 220.068884 250.462871 
L 220.451746 250.462871 
L 220.451746 250.081129 
L 221.304445 250.081129 
L 221.304445 249.699388 
L 221.699512 249.699388 
L 221.699512 249.317647 
L 222.375731 249.317647 
L 222.375731 248.935906 
L 223.288972 248.935906 
L 223.288972 248.554165 
L 224.983588 248.554165 
L 225.073232 247.790682 
L 232.234296 247.790682 
L 232.234296 247.408941 
L 232.676976 247.408941 
L 232.676976 247.0272 
L 240.447278 247.0272 
L 240.447278 246.645459 
L 274.682973 246.645459 
L 274.787004 245.118494 
L 274.822554 245.118494 
L 274.929948 242.064565 
L 274.93816 242.064565 
L 274.999462 240.919341 
L 275.095834 240.919341 
L 275.195092 238.628894 
L 275.207143 238.628894 
L 275.275136 237.483671 
L 275.337598 237.483671 
L 275.337598 236.720188 
L 275.504361 236.720188 
L 275.504361 236.338447 
L 287.465552 236.338447 
L 287.50842 235.193224 
L 287.58351 235.193224 
L 287.58351 234.811482 
L 287.731621 234.811482 
L 287.833798 233.284518 
L 287.894249 233.284518 
L 287.894249 232.902776 
L 288.200723 232.902776 
L 288.223572 232.139294 
L 288.719138 232.139294 
L 288.719138 231.375812 
L 295.075593 231.375812 
L 295.169426 229.085365 
L 295.188471 229.085365 
L 295.295892 227.5584 
L 295.505338 227.5584 
L 295.520837 226.794918 
L 295.858484 226.794918 
L 295.858484 226.413176 
L 300.461414 226.413176 
L 300.514344 225.267953 
L 300.595336 225.267953 
L 300.59695 224.504471 
L 300.765304 224.504471 
L 300.765304 224.122729 
L 304.600226 224.122729 
L 304.690154 222.977506 
L 304.726604 222.977506 
L 304.726604 222.595765 
L 304.861894 222.595765 
L 304.861894 221.832282 
L 308.023221 221.832282 
L 308.069484 220.687059 
L 310.918946 220.687059 
L 310.918946 220.305318 
L 313.42397 220.305318 
L 313.434479 218.778353 
L 315.634551 218.778353 
L 315.738011 217.633129 
L 317.604049 217.633129 
L 317.604049 217.251388 
L 319.379092 217.251388 
L 319.409438 216.106165 
L 321.015039 216.106165 
L 321.035847 214.960941 
L 322.513546 214.960941 
L 322.513546 214.5792 
L 323.968174 214.5792 
L 323.968174 213.815718 
L 327.59462 213.815718 
L 327.59462 213.052235 
L 331.513933 213.052235 
L 331.513933 212.288753 
L 332.417246 212.288753 
L 332.417246 211.907012 
L 336.217683 211.907012 
L 336.217683 211.525271 
L 336.909266 211.525271 
L 336.933788 210.761788 
L 338.203845 210.761788 
L 338.203845 210.380047 
L 338.819189 210.380047 
L 338.819189 209.998306 
L 339.992596 209.998306 
L 339.992596 209.616565 
L 340.573153 209.616565 
L 340.573153 209.234824 
L 341.089928 209.234824 
L 341.089928 208.853082 
L 342.133538 208.853082 
L 342.140312 208.0896 
L 344.08452 208.0896 
L 344.08452 207.707859 
L 345.393886 207.707859 
L 345.393886 207.326118 
L 360.8064 207.326118 
L 360.8064 207.326118 
" style="fill: none; stroke: #6495ed; stroke-width: 1.5; stroke-linecap: square"/>
   </g>
   <g id="line2d_46">
    <defs>
     <path id="m105e45ed0d" d="M -0 6 
L 6 -6 
L -6 -6 
z
" style="stroke: #6495ed; stroke-width: 1.5; stroke-linejoin: miter"/>
    </defs>
    <g>
     <use xlink:href="#m105e45ed0d" x="216.934971" y="255.043765" style="fill-opacity: 0; stroke: #6495ed; stroke-width: 1.5; stroke-linejoin: miter"/>
     <use xlink:href="#m105e45ed0d" x="319.409438" y="216.106165" style="fill-opacity: 0; stroke: #6495ed; stroke-width: 1.5; stroke-linejoin: miter"/>
     <use xlink:href="#m105e45ed0d" x="345.393886" y="207.326118" style="fill-opacity: 0; stroke: #6495ed; stroke-width: 1.5; stroke-linejoin: miter"/>
     <use xlink:href="#m105e45ed0d" x="360.8064" y="207.326118" style="fill-opacity: 0; stroke: #6495ed; stroke-width: 1.5; stroke-linejoin: miter"/>
    </g>
   </g>
   <g id="line2d_47">
    <path style="fill: none; stroke: #6495ed; stroke-width: 1.5; stroke-linecap: square"/>
    <g/>
   </g>
   <g id="line2d_48">
    <path d="M 274.176 246.645459 
" clip-path="url(#paeca785df7)" style="fill: none; stroke: #6495ed; stroke-width: 1.5; stroke-linecap: square"/>
    <defs>
     <path id="m2de7d0a244" d="M -12 12 
L 12 -12 
M -12 -12 
L 12 12 
" style="stroke: #6495ed"/>
    </defs>
    <g clip-path="url(#paeca785df7)">
     <use xlink:href="#m2de7d0a244" x="274.176" y="246.645459" style="fill: #6495ed; stroke: #6495ed"/>
    </g>
   </g>
   <g id="line2d_49">
    <defs>
     <path id="m3aaa2ebd94" d="M 0 1.5 
C 0.397805 1.5 0.77937 1.341951 1.06066 1.06066 
C 1.341951 0.77937 1.5 0.397805 1.5 0 
C 1.5 -0.397805 1.341951 -0.77937 1.06066 -1.06066 
C 0.77937 -1.341951 0.397805 -1.5 0 -1.5 
C -0.397805 -1.5 -0.77937 -1.341951 -1.06066 -1.06066 
C -1.341951 -0.77937 -1.5 -0.397805 -1.5 0 
C -1.5 0.397805 -1.341951 0.77937 -1.06066 1.06066 
C -0.77937 1.341951 -0.397805 1.5 0 1.5 
z
" style="stroke: #ff0000"/>
    </defs>
    <g>
     <use xlink:href="#m3aaa2ebd94" x="333.847207" y="109.982118" style="fill: #ff0000; stroke: #ff0000"/>
     <use xlink:href="#m3aaa2ebd94" x="333.847207" y="109.982118" style="fill: #ff0000; stroke: #ff0000"/>
    </g>
   </g>
   <g id="line2d_50">
    <path d="M 1.245626 298.944 
L 1.245626 297.798776 
L 14.2848 297.798776 
L 14.2848 297.035294 
L 21.912228 297.035294 
L 21.912228 296.653553 
L 27.323974 296.653553 
L 27.323974 293.981365 
L 31.521651 293.981365 
L 31.521651 293.217882 
L 37.851216 293.217882 
L 37.851216 292.4544 
L 42.578831 292.4544 
L 42.578831 291.690918 
L 44.560826 291.690918 
L 44.560826 290.927435 
L 47.990577 290.927435 
L 47.990577 290.163953 
L 49.496305 290.163953 
L 49.496305 289.400471 
L 55.618005 289.400471 
L 55.618005 289.018729 
L 56.635094 289.018729 
L 56.635094 288.636988 
L 57.6 288.636988 
L 57.6 288.255247 
L 60.229139 288.255247 
L 60.229139 287.491765 
L 65.844256 287.491765 
L 65.844256 287.110024 
L 69.172597 287.110024 
L 69.172597 286.728282 
L 80.895742 286.728282 
L 80.895742 286.346541 
L 81.696354 286.346541 
L 81.696354 285.9648 
L 84.818792 285.9648 
L 84.818792 285.583059 
L 89.497162 285.583059 
L 89.497162 285.201318 
L 94.205591 285.201318 
L 94.205591 284.819576 
L 94.472426 284.819576 
L 94.472426 284.437835 
L 98.510456 284.437835 
L 98.510456 283.674353 
L 100.820906 283.674353 
L 100.820906 283.292612 
L 110.674517 283.292612 
L 110.674517 282.910871 
L 111.602996 282.910871 
L 111.602996 282.529129 
L 112.128493 282.529129 
L 112.128493 282.147388 
L 112.989468 282.147388 
L 112.989468 281.765647 
L 113.332844 281.765647 
L 113.332844 281.383906 
L 117.65648 281.383906 
L 117.65648 280.620424 
L 118.450653 280.620424 
L 118.524569 279.093459 
L 118.853643 279.093459 
L 118.962067 277.948235 
L 119.034004 277.948235 
L 119.105667 276.803012 
L 119.530006 276.803012 
L 119.530006 276.039529 
L 119.876453 276.039529 
L 119.979155 274.894306 
L 120.013265 274.894306 
L 120.047313 274.130824 
L 120.250317 274.130824 
L 120.250317 273.749082 
L 120.550775 273.749082 
L 120.550775 273.367341 
L 120.9116 273.367341 
L 121.008818 272.222118 
L 121.073351 272.222118 
L 121.073351 271.840376 
L 121.39274 271.840376 
L 121.39274 271.458635 
L 121.644403 271.458635 
L 121.706797 270.695153 
L 122.228947 270.695153 
L 122.319605 269.168188 
L 122.588988 269.168188 
L 122.588988 268.786447 
L 122.795872 268.786447 
L 122.795872 268.404706 
L 123.145323 268.404706 
L 123.145323 268.022965 
L 123.460048 268.022965 
L 123.460048 267.641224 
L 123.629523 267.641224 
L 123.629523 267.259482 
L 124.210942 267.259482 
L 124.238185 266.114259 
L 126.102752 266.114259 
L 126.176572 265.350776 
L 126.250102 265.350776 
L 126.250102 264.969035 
L 126.517282 264.969035 
L 126.517282 264.587294 
L 128.222309 264.587294 
L 128.222309 264.205553 
L 128.463066 264.205553 
L 128.463066 263.823812 
L 128.765092 263.823812 
L 128.765092 263.442071 
L 130.811181 263.442071 
L 130.811181 263.060329 
L 131.582177 263.060329 
L 131.582177 262.678588 
L 136.906202 262.678588 
L 136.906202 262.296847 
L 137.290966 262.296847 
L 137.290966 261.915106 
L 138.03766 261.915106 
L 138.03766 261.533365 
L 139.080189 261.533365 
L 139.080189 261.151624 
L 139.902947 261.151624 
L 139.902947 260.769882 
L 140.173284 260.769882 
L 140.173284 260.388141 
L 140.554495 260.388141 
L 140.554495 260.0064 
L 140.691224 260.0064 
L 140.691224 259.624659 
L 141.55653 259.624659 
L 141.55653 259.242918 
L 142.528483 259.242918 
L 142.528483 258.861176 
L 142.753651 258.861176 
L 142.753651 258.479435 
L 144.501209 258.479435 
L 144.501209 258.097694 
L 144.749884 258.097694 
L 144.749884 257.715953 
L 145.291002 257.715953 
L 145.291002 257.334212 
L 145.40622 257.334212 
L 145.40622 256.952471 
L 146.244347 256.952471 
L 146.269683 256.188988 
L 147.183884 256.188988 
L 147.224037 255.425506 
L 147.502732 255.425506 
L 147.502732 255.043765 
L 147.691478 255.043765 
L 147.691478 254.662024 
L 148.910927 254.662024 
L 148.947561 253.898541 
L 149.573831 253.898541 
L 149.658599 253.135059 
L 150.207323 253.135059 
L 150.207323 252.753318 
L 150.879716 252.753318 
L 150.952233 251.226353 
L 151.889155 251.226353 
L 151.889155 250.844612 
L 152.328451 250.844612 
L 152.328451 250.462871 
L 153.650761 250.462871 
L 153.65646 249.699388 
L 153.956095 249.699388 
L 153.995314 248.935906 
L 154.067935 248.935906 
L 154.067935 248.554165 
L 154.322673 248.554165 
L 154.322673 248.172424 
L 155.12489 248.172424 
L 155.12489 247.790682 
L 156.609116 247.790682 
L 156.638319 247.0272 
L 157.009121 247.0272 
L 157.04247 246.263718 
L 157.213055 246.263718 
L 157.213055 245.881976 
L 157.966635 245.881976 
L 157.966635 245.500235 
L 158.370139 245.500235 
L 158.463058 244.736753 
L 158.717331 244.736753 
L 158.721685 243.973271 
L 159.088142 243.973271 
L 159.088142 243.591529 
L 159.572839 243.591529 
L 159.572839 243.209788 
L 159.750914 243.209788 
L 159.857774 242.064565 
L 159.97218 242.064565 
L 159.97218 241.682824 
L 160.35923 241.682824 
L 160.383158 240.919341 
L 160.522136 240.919341 
L 160.522136 240.5376 
L 160.963953 240.5376 
L 160.963953 240.155859 
L 161.391854 240.155859 
L 161.493569 239.392376 
L 161.613412 239.392376 
L 161.613412 239.010635 
L 161.869254 239.010635 
L 161.869254 238.628894 
L 162.081651 238.628894 
L 162.081651 238.247153 
L 162.694249 238.247153 
L 162.694249 237.865412 
L 163.146974 237.865412 
L 163.174482 237.101929 
L 164.298142 237.101929 
L 164.34663 236.338447 
L 164.459284 236.338447 
L 164.459284 235.956706 
L 164.590397 235.956706 
L 164.590397 235.574965 
L 164.897003 235.574965 
L 164.984586 234.048 
L 166.353466 234.048 
L 166.353466 233.666259 
L 166.492234 233.666259 
L 166.492234 233.284518 
L 166.609959 233.284518 
L 166.609959 232.902776 
L 166.868648 232.902776 
L 166.868648 232.521035 
L 167.129398 232.521035 
L 167.240447 231.757553 
L 167.430478 231.757553 
L 167.430478 231.375812 
L 167.610468 231.375812 
L 167.672789 230.230588 
L 168.604258 230.230588 
L 168.604258 229.848847 
L 168.920812 229.848847 
L 169.019282 229.085365 
L 169.187255 229.085365 
L 169.187255 228.703624 
L 169.469656 228.703624 
L 169.469656 228.321882 
L 169.638546 228.321882 
L 169.638546 227.940141 
L 170.362755 227.940141 
L 170.362755 227.5584 
L 170.752597 227.5584 
L 170.851093 226.794918 
L 170.899009 226.794918 
L 170.899009 226.413176 
L 171.4691 226.413176 
L 171.533103 225.649694 
L 171.664838 225.649694 
L 171.6714 224.886212 
L 171.942824 224.886212 
L 171.942824 224.504471 
L 172.086712 224.504471 
L 172.086712 224.122729 
L 172.278277 224.122729 
L 172.31213 223.359247 
L 172.507702 223.359247 
L 172.507702 222.977506 
L 173.422332 222.977506 
L 173.422332 222.595765 
L 173.779606 222.595765 
L 173.779606 222.214024 
L 174.074482 222.214024 
L 174.13022 221.450541 
L 174.404568 221.450541 
L 174.404568 221.0688 
L 174.803176 221.0688 
L 174.803176 220.687059 
L 174.941545 220.687059 
L 175.036886 219.923576 
L 175.082552 219.923576 
L 175.082552 219.541835 
L 175.40632 219.541835 
L 175.40632 219.160094 
L 176.075715 219.160094 
L 176.075715 218.778353 
L 176.297648 218.778353 
L 176.328408 218.014871 
L 176.488232 218.014871 
L 176.488232 217.633129 
L 176.760527 217.633129 
L 176.760527 217.251388 
L 177.051954 217.251388 
L 177.051954 216.869647 
L 177.316266 216.869647 
L 177.316266 216.487906 
L 177.506479 216.487906 
L 177.584904 215.724424 
L 178.609052 215.724424 
L 178.67398 214.960941 
L 178.929984 214.960941 
L 178.929984 214.5792 
L 179.43901 214.5792 
L 179.548682 213.433976 
L 179.560189 213.433976 
L 179.560189 213.052235 
L 179.700586 213.052235 
L 179.783186 212.288753 
L 180.693018 212.288753 
L 180.759244 211.143529 
L 181.176866 211.143529 
L 181.176866 210.761788 
L 181.390733 210.761788 
L 181.390733 210.380047 
L 182.416403 210.380047 
L 182.505142 209.616565 
L 182.799165 209.616565 
L 182.799165 209.234824 
L 183.189713 209.234824 
L 183.189713 208.853082 
L 183.398412 208.853082 
L 183.398412 208.471341 
L 183.661563 208.471341 
L 183.661563 208.0896 
L 184.038185 208.0896 
L 184.038185 207.707859 
L 184.887987 207.707859 
L 184.887987 207.326118 
L 185.733188 207.326118 
L 185.733188 206.944376 
L 186.192565 206.944376 
L 186.192565 206.562635 
L 186.739425 206.562635 
L 186.739425 206.180894 
L 187.498512 206.180894 
L 187.498512 205.799153 
L 187.872879 205.799153 
L 187.872879 205.417412 
L 188.011024 205.417412 
L 188.011024 205.035671 
L 188.639066 205.035671 
L 188.642616 204.272188 
L 188.856125 204.272188 
L 188.943649 203.508706 
L 189.110563 203.508706 
L 189.110563 203.126965 
L 189.308581 203.126965 
L 189.308581 202.745224 
L 190.78233 202.745224 
L 190.805281 201.981741 
L 191.148559 201.981741 
L 191.148559 201.6 
L 192.267884 201.6 
L 192.267884 201.218259 
L 192.687592 201.218259 
L 192.711907 200.454776 
L 193.725422 200.454776 
L 193.725422 200.073035 
L 193.930176 200.073035 
L 193.930176 199.691294 
L 194.147298 199.691294 
L 194.147298 199.309553 
L 194.620718 199.309553 
L 194.620718 198.927812 
L 194.875344 198.927812 
L 194.875344 198.546071 
L 195.168638 198.546071 
L 195.168638 198.164329 
L 195.316078 198.164329 
L 195.316078 197.782588 
L 196.224144 197.782588 
L 196.224144 197.400847 
L 197.445477 197.400847 
L 197.445477 197.019106 
L 197.566231 197.019106 
L 197.566231 196.637365 
L 197.983409 196.637365 
L 197.983409 196.255624 
L 198.461161 196.255624 
L 198.461161 195.873882 
L 199.108534 195.873882 
L 199.108534 195.492141 
L 199.626302 195.492141 
L 199.696936 194.728659 
L 200.379078 194.728659 
L 200.379078 194.346918 
L 201.082287 194.346918 
L 201.108375 193.583435 
L 201.588839 193.583435 
L 201.612899 192.819953 
L 201.889158 192.819953 
L 201.889158 192.438212 
L 202.283843 192.438212 
L 202.283843 192.056471 
L 202.927942 192.056471 
L 203.017414 191.292988 
L 203.211051 191.292988 
L 203.260884 189.766024 
L 203.340262 189.766024 
L 203.450024 189.002541 
L 203.704335 189.002541 
L 203.704335 188.6208 
L 203.935587 188.6208 
L 203.965081 187.857318 
L 204.268716 187.857318 
L 204.268716 187.475576 
L 204.665835 187.475576 
L 204.665835 187.093835 
L 205.122113 187.093835 
L 205.122113 186.712094 
L 205.424869 186.712094 
L 205.48513 185.948612 
L 205.541224 185.948612 
L 205.578768 185.185129 
L 205.6888 185.185129 
L 205.780362 184.421647 
L 205.856561 184.421647 
L 205.856561 184.039906 
L 206.278915 184.039906 
L 206.321258 183.276424 
L 206.465615 183.276424 
L 206.517492 182.512941 
L 207.221536 182.512941 
L 207.221536 182.1312 
L 207.588727 182.1312 
L 207.588727 181.749459 
L 207.765817 181.749459 
L 207.765817 181.367718 
L 208.204676 181.367718 
L 208.204676 180.985976 
L 208.365517 180.985976 
L 208.365517 180.604235 
L 208.478066 180.604235 
L 208.537017 179.840753 
L 209.001485 179.840753 
L 209.001485 179.459012 
L 209.205415 179.459012 
L 209.205415 179.077271 
L 209.615782 179.077271 
L 209.615782 178.695529 
L 210.204729 178.695529 
L 210.294758 177.932047 
L 210.605682 177.932047 
L 210.689694 177.168565 
L 210.754992 177.168565 
L 210.754992 176.786824 
L 210.996373 176.786824 
L 210.996373 176.405082 
L 211.284291 176.405082 
L 211.284291 176.023341 
L 212.081719 176.023341 
L 212.168045 175.259859 
L 212.217776 175.259859 
L 212.244617 174.496376 
L 212.534375 174.496376 
L 212.57768 173.732894 
L 212.665972 173.732894 
L 212.688474 172.969412 
L 212.921798 172.969412 
L 212.921798 172.587671 
L 213.664585 172.587671 
L 213.664585 172.205929 
L 213.960469 172.205929 
L 213.960469 171.824188 
L 214.50837 171.824188 
L 214.578459 170.678965 
L 215.039236 170.678965 
L 215.05319 169.915482 
L 215.481542 169.915482 
L 215.481542 169.533741 
L 215.665763 169.533741 
L 215.665763 169.152 
L 215.799875 169.152 
L 215.799875 168.770259 
L 215.984132 168.770259 
L 216.018532 168.006776 
L 216.24593 168.006776 
L 216.24593 167.625035 
L 217.538842 167.625035 
L 217.538842 167.243294 
L 217.767181 167.243294 
L 217.767181 166.861553 
L 217.905713 166.861553 
L 217.905713 166.479812 
L 218.328113 166.479812 
L 218.328113 166.098071 
L 218.448948 166.098071 
L 218.448948 165.716329 
L 218.753055 165.716329 
L 218.825244 164.952847 
L 219.559068 164.952847 
L 219.559068 164.571106 
L 219.701403 164.571106 
L 219.701403 164.189365 
L 219.833883 164.189365 
L 219.833883 163.807624 
L 220.00618 163.807624 
L 220.00618 163.425882 
L 220.215215 163.425882 
L 220.310547 161.898918 
L 220.595627 161.898918 
L 220.595627 161.517176 
L 220.789735 161.517176 
L 220.789735 161.135435 
L 221.257647 161.135435 
L 221.257647 160.753694 
L 221.736519 160.753694 
L 221.736519 160.371953 
L 221.851813 160.371953 
L 221.936198 159.226729 
L 222.513736 159.226729 
L 222.513736 158.844988 
L 222.732634 158.844988 
L 222.732634 158.463247 
L 222.921348 158.463247 
L 222.930813 157.699765 
L 223.507286 157.699765 
L 223.507286 157.318024 
L 224.197357 157.318024 
L 224.197357 156.936282 
L 224.592873 156.936282 
L 224.592873 156.554541 
L 225.00697 156.554541 
L 225.00697 156.1728 
L 225.160795 156.1728 
L 225.227915 155.027576 
L 225.291128 155.027576 
L 225.300105 154.264094 
L 225.467605 154.264094 
L 225.467605 153.882353 
L 226.270958 153.882353 
L 226.318557 153.118871 
L 226.568712 153.118871 
L 226.568712 152.737129 
L 228.125462 152.737129 
L 228.125462 152.355388 
L 228.511447 152.355388 
L 228.511447 151.973647 
L 228.69312 151.973647 
L 228.797006 151.210165 
L 228.818826 151.210165 
L 228.818826 150.828424 
L 229.321377 150.828424 
L 229.42186 150.064941 
L 230.262684 150.064941 
L 230.262684 149.6832 
L 230.446653 149.6832 
L 230.446653 149.301459 
L 230.849604 149.301459 
L 230.849604 148.919718 
L 231.704661 148.919718 
L 231.704661 148.537976 
L 232.060285 148.537976 
L 232.060285 148.156235 
L 232.385214 148.156235 
L 232.385214 147.774494 
L 232.656041 147.774494 
L 232.656041 147.392753 
L 233.10689 147.392753 
L 233.10689 147.011012 
L 233.607592 147.011012 
L 233.607592 146.629271 
L 233.741712 146.629271 
L 233.824491 145.865788 
L 233.8885 145.865788 
L 233.8885 145.484047 
L 235.189176 145.484047 
L 235.189176 145.102306 
L 235.576204 145.102306 
L 235.576204 144.720565 
L 236.037039 144.720565 
L 236.037039 144.338824 
L 237.191776 144.338824 
L 237.191776 143.957082 
L 237.668958 143.957082 
L 237.70632 143.1936 
L 237.812242 143.1936 
L 237.812242 142.811859 
L 238.008745 142.811859 
L 238.008745 142.430118 
L 238.400613 142.430118 
L 238.400613 142.048376 
L 238.892809 142.048376 
L 238.892809 141.666635 
L 239.948522 141.666635 
L 239.948522 141.284894 
L 240.310893 141.284894 
L 240.310893 140.903153 
L 240.603201 140.903153 
L 240.603201 140.521412 
L 242.188943 140.521412 
L 242.188943 140.139671 
L 242.942443 140.139671 
L 242.942443 139.757929 
L 243.176234 139.757929 
L 243.176234 139.376188 
L 243.349908 139.376188 
L 243.349908 138.994447 
L 243.778342 138.994447 
L 243.778342 138.612706 
L 244.367371 138.612706 
L 244.464512 137.849224 
L 244.899624 137.849224 
L 244.90007 137.085741 
L 245.131378 137.085741 
L 245.131378 136.704 
L 245.904201 136.704 
L 245.904201 136.322259 
L 246.987874 136.322259 
L 246.987874 135.940518 
L 247.419766 135.940518 
L 247.419766 135.558776 
L 247.641477 135.558776 
L 247.641477 135.177035 
L 247.890947 135.177035 
L 247.890947 134.795294 
L 249.260991 134.795294 
L 249.260991 134.413553 
L 249.398489 134.413553 
L 249.398489 134.031812 
L 249.753548 134.031812 
L 249.861215 133.268329 
L 249.919633 133.268329 
L 249.919633 132.886588 
L 250.185886 132.886588 
L 250.185886 132.504847 
L 250.518948 132.504847 
L 250.518948 132.123106 
L 251.30271 132.123106 
L 251.30271 131.741365 
L 251.445205 131.741365 
L 251.445205 131.359624 
L 251.854066 131.359624 
L 251.854066 130.977882 
L 254.093021 130.977882 
L 254.093021 130.596141 
L 254.580602 130.596141 
L 254.580602 130.2144 
L 255.499321 130.2144 
L 255.499321 129.832659 
L 255.955223 129.832659 
L 255.955223 129.450918 
L 256.205533 129.450918 
L 256.236827 128.687435 
L 256.38269 128.687435 
L 256.38269 128.305694 
L 257.607388 128.305694 
L 257.713725 127.160471 
L 258.136957 127.160471 
L 258.136957 126.778729 
L 259.12609 126.778729 
L 259.173967 126.015247 
L 259.536957 126.015247 
L 259.536957 125.633506 
L 260.51407 125.633506 
L 260.51407 125.251765 
L 260.826313 125.251765 
L 260.826313 124.870024 
L 261.25663 124.870024 
L 261.25663 124.488282 
L 261.492941 124.488282 
L 261.492941 124.106541 
L 263.46833 124.106541 
L 263.46833 123.7248 
L 263.798178 123.7248 
L 263.798178 123.343059 
L 264.062796 123.343059 
L 264.062796 122.961318 
L 264.32803 122.961318 
L 264.32803 122.579576 
L 264.797306 122.579576 
L 264.797306 122.197835 
L 264.96967 122.197835 
L 264.96967 121.816094 
L 266.122465 121.816094 
L 266.122465 121.434353 
L 266.583285 121.434353 
L 266.583285 121.052612 
L 268.192083 121.052612 
L 268.192083 120.670871 
L 268.513335 120.670871 
L 268.513335 120.289129 
L 268.82643 120.289129 
L 268.82643 119.907388 
L 269.155267 119.907388 
L 269.155267 119.525647 
L 269.746328 119.525647 
L 269.823267 118.762165 
L 270.788013 118.762165 
L 270.884986 117.616941 
L 270.901762 117.616941 
L 270.901762 117.2352 
L 271.09927 117.2352 
L 271.09927 116.853459 
L 271.259173 116.853459 
L 271.259173 116.471718 
L 272.263438 116.471718 
L 272.263438 116.089976 
L 272.909999 116.089976 
L 273.0175 115.326494 
L 274.056847 115.326494 
L 274.056847 114.944753 
L 284.596114 114.944753 
L 284.596114 114.563012 
L 285.813238 114.563012 
L 285.813238 114.181271 
L 299.566438 114.181271 
L 299.566438 113.799529 
L 303.903724 113.799529 
L 303.903724 113.417788 
L 307.425976 113.417788 
L 307.425976 112.654306 
L 307.676605 112.654306 
L 307.676605 111.890824 
L 307.861971 111.890824 
L 307.861971 111.509082 
L 310.391584 111.509082 
L 310.391584 111.127341 
L 310.764615 111.127341 
L 310.764615 110.363859 
L 333.847207 110.363859 
L 333.847207 109.982118 
L 360.8064 109.982118 
L 360.8064 109.982118 
" style="fill: none; stroke: #ff0000; stroke-width: 1.5; stroke-linecap: square"/>
   </g>
   <g id="line2d_51">
    <defs>
     <path id="mc528248171" d="M 0 -6 
L -5.196152 -3 
L -5.196152 3 
L -0 6 
L 5.196152 3 
L 5.196152 -3 
z
" style="stroke: #ff0000; stroke-width: 1.5; stroke-linejoin: miter"/>
    </defs>
    <g>
     <use xlink:href="#mc528248171" x="84.818792" y="285.9648" style="fill-opacity: 0; stroke: #ff0000; stroke-width: 1.5; stroke-linejoin: miter"/>
     <use xlink:href="#mc528248171" x="167.430478" y="231.757553" style="fill-opacity: 0; stroke: #ff0000; stroke-width: 1.5; stroke-linejoin: miter"/>
     <use xlink:href="#mc528248171" x="212.081719" y="175.6416" style="fill-opacity: 0; stroke: #ff0000; stroke-width: 1.5; stroke-linejoin: miter"/>
     <use xlink:href="#mc528248171" x="285.813238" y="114.563012" style="fill-opacity: 0; stroke: #ff0000; stroke-width: 1.5; stroke-linejoin: miter"/>
     <use xlink:href="#mc528248171" x="333.847207" y="109.982118" style="fill-opacity: 0; stroke: #ff0000; stroke-width: 1.5; stroke-linejoin: miter"/>
     <use xlink:href="#mc528248171" x="360.8064" y="109.982118" style="fill-opacity: 0; stroke: #ff0000; stroke-width: 1.5; stroke-linejoin: miter"/>
    </g>
   </g>
   <g id="line2d_52">
    <path style="fill: none; stroke: #ff0000; stroke-width: 1.5; stroke-linecap: square"/>
    <g/>
   </g>
   <g id="line2d_53">
    <path d="M 274.176 114.944753 
" clip-path="url(#paeca785df7)" style="fill: none; stroke: #ff0000; stroke-width: 1.5; stroke-linecap: square"/>
    <defs>
     <path id="m75ce611884" d="M -12 12 
L 12 -12 
M -12 -12 
L 12 12 
" style="stroke: #ff0000"/>
    </defs>
    <g clip-path="url(#paeca785df7)">
     <use xlink:href="#m75ce611884" x="274.176" y="114.944753" style="fill: #ff0000; stroke: #ff0000"/>
    </g>
   </g>
   <g id="line2d_54">
    <path d="M 360.8064 293.217882 
L 380.514816 293.10336 
" style="fill: none; stroke: #000080; stroke-width: 1.5; stroke-linecap: square"/>
    <g>
     <use xlink:href="#m5433914241" x="360.8064" y="293.217882" style="fill-opacity: 0; stroke: #000080; stroke-width: 1.5"/>
     <use xlink:href="#m5433914241" x="380.514816" y="293.10336" style="fill-opacity: 0; stroke: #000080; stroke-width: 1.5"/>
    </g>
   </g>
   <g id="line2d_55">
    <path d="M 360.8064 207.326118 
L 380.514816 223.01568 
" style="fill: none; stroke: #6495ed; stroke-width: 1.5; stroke-linecap: square"/>
    <g>
     <use xlink:href="#m105e45ed0d" x="360.8064" y="207.326118" style="fill-opacity: 0; stroke: #6495ed; stroke-width: 1.5; stroke-linejoin: miter"/>
     <use xlink:href="#m105e45ed0d" x="380.514816" y="223.01568" style="fill-opacity: 0; stroke: #6495ed; stroke-width: 1.5; stroke-linejoin: miter"/>
    </g>
   </g>
   <g id="line2d_56">
    <path d="M 360.8064 150.064941 
L 380.514816 152.928 
" style="fill: none; stroke: #ff7500; stroke-width: 1.5; stroke-linecap: square"/>
    <g>
     <use xlink:href="#m2a94c00d69" x="360.8064" y="150.064941" style="fill-opacity: 0; stroke: #ff7500; stroke-width: 1.5; stroke-linejoin: bevel"/>
     <use xlink:href="#m2a94c00d69" x="380.514816" y="152.928" style="fill-opacity: 0; stroke: #ff7500; stroke-width: 1.5; stroke-linejoin: bevel"/>
    </g>
   </g>
   <g id="line2d_57">
    <path d="M 360.8064 109.982118 
L 380.514816 82.84032 
" style="fill: none; stroke: #ff0000; stroke-width: 1.5; stroke-linecap: square"/>
    <g>
     <use xlink:href="#mc528248171" x="360.8064" y="109.982118" style="fill-opacity: 0; stroke: #ff0000; stroke-width: 1.5; stroke-linejoin: miter"/>
     <use xlink:href="#mc528248171" x="380.514816" y="82.84032" style="fill-opacity: 0; stroke: #ff0000; stroke-width: 1.5; stroke-linejoin: miter"/>
    </g>
   </g>
   <g id="line2d_58">
    <path d="M 360.8064 104.256 
L 380.514816 12.75264 
" style="fill: none; stroke: #ff00ff; stroke-width: 1.5; stroke-linecap: square"/>
    <g>
     <use xlink:href="#m96f05a254d" x="360.8064" y="104.256" style="fill-opacity: 0; stroke: #ff00ff; stroke-width: 1.5; stroke-linejoin: miter"/>
     <use xlink:href="#m96f05a254d" x="380.514816" y="12.75264" style="fill-opacity: 0; stroke: #ff00ff; stroke-width: 1.5; stroke-linejoin: miter"/>
    </g>
   </g>
   <g id="line2d_59">
    <path d="M 360.8064 298.944 
L 360.8064 6.912 
" style="fill: none; stroke: #000000; stroke-width: 1.5; stroke-linecap: square"/>
   </g>
   <g id="patch_3">
    <path d="M 57.6 298.944 
L 360.8064 298.944 
" style="fill: none; stroke: #000000; stroke-width: 0.8; stroke-linejoin: miter; stroke-linecap: square"/>
   </g>
   <g id="patch_4">
    <path d="M 57.6 6.912 
L 360.8064 6.912 
" style="fill: none; stroke: #000000; stroke-width: 0.8; stroke-linejoin: miter; stroke-linecap: square"/>
   </g>
   <g id="text_13">
    <!-- f10 -->
    <g transform="translate(386.578944 296.966485)scale(0.14 -0.14)">
     <use xlink:href="#DejaVuSans-66"/>
     <use xlink:href="#DejaVuSans-31" x="35.205078"/>
     <use xlink:href="#DejaVuSans-30" x="98.828125"/>
    </g>
   </g>
   <g id="text_14">
    <!-- f13 -->
    <g transform="translate(386.578944 226.878805)scale(0.14 -0.14)">
     <defs>
      <path id="DejaVuSans-33" d="M 2597 2516 
Q 3050 2419 3304 2112 
Q 3559 1806 3559 1356 
Q 3559 666 3084 287 
Q 2609 -91 1734 -91 
Q 1441 -91 1130 -33 
Q 819 25 488 141 
L 488 750 
Q 750 597 1062 519 
Q 1375 441 1716 441 
Q 2309 441 2620 675 
Q 2931 909 2931 1356 
Q 2931 1769 2642 2001 
Q 2353 2234 1838 2234 
L 1294 2234 
L 1294 2753 
L 1863 2753 
Q 2328 2753 2575 2939 
Q 2822 3125 2822 3475 
Q 2822 3834 2567 4026 
Q 2313 4219 1838 4219 
Q 1578 4219 1281 4162 
Q 984 4106 628 3988 
L 628 4550 
Q 988 4650 1302 4700 
Q 1616 4750 1894 4750 
Q 2613 4750 3031 4423 
Q 3450 4097 3450 3541 
Q 3450 3153 3228 2886 
Q 3006 2619 2597 2516 
z
" transform="scale(0.015625)"/>
     </defs>
     <use xlink:href="#DejaVuSans-66"/>
     <use xlink:href="#DejaVuSans-31" x="35.205078"/>
     <use xlink:href="#DejaVuSans-33" x="98.828125"/>
    </g>
   </g>
   <g id="text_15">
    <!-- f12 -->
    <g transform="translate(386.578944 156.791125)scale(0.14 -0.14)">
     <use xlink:href="#DejaVuSans-66"/>
     <use xlink:href="#DejaVuSans-31" x="35.205078"/>
     <use xlink:href="#DejaVuSans-32" x="98.828125"/>
    </g>
   </g>
   <g id="text_16">
    <!-- f14 -->
    <g transform="translate(386.578944 86.703445)scale(0.14 -0.14)">
     <use xlink:href="#DejaVuSans-66"/>
     <use xlink:href="#DejaVuSans-31" x="35.205078"/>
     <use xlink:href="#DejaVuSans-34" x="98.828125"/>
    </g>
   </g>
   <g id="text_17">
    <!-- f11 -->
    <g transform="translate(386.578944 16.615765)scale(0.14 -0.14)">
     <use xlink:href="#DejaVuSans-66"/>
     <use xlink:href="#DejaVuSans-31" x="35.205078"/>
     <use xlink:href="#DejaVuSans-31" x="98.828125"/>
    </g>
   </g>
   <g id="text_18">
    <!-- bbob -->
    <g transform="translate(60.632064 17.582726)scale(0.102 -0.102)">
     <defs>
      <path id="DejaVuSans-62" d="M 3116 1747 
Q 3116 2381 2855 2742 
Q 2594 3103 2138 3103 
Q 1681 3103 1420 2742 
Q 1159 2381 1159 1747 
Q 1159 1113 1420 752 
Q 1681 391 2138 391 
Q 2594 391 2855 752 
Q 3116 1113 3116 1747 
z
M 1159 2969 
Q 1341 3281 1617 3432 
Q 1894 3584 2278 3584 
Q 2916 3584 3314 3078 
Q 3713 2572 3713 1747 
Q 3713 922 3314 415 
Q 2916 -91 2278 -91 
Q 1894 -91 1617 61 
Q 1341 213 1159 525 
L 1159 0 
L 581 0 
L 581 4863 
L 1159 4863 
L 1159 2969 
z
" transform="scale(0.015625)"/>
     </defs>
     <use xlink:href="#DejaVuSans-62"/>
     <use xlink:href="#DejaVuSans-62" x="63.476562"/>
     <use xlink:href="#DejaVuSans-6f" x="126.953125"/>
     <use xlink:href="#DejaVuSans-62" x="188.134766"/>
    </g>
    <!-- Ill-conditioned functions, 20-D -->
    <g transform="translate(60.632064 29.004495)scale(0.102 -0.102)">
     <defs>
      <path id="DejaVuSans-49" d="M 628 4666 
L 1259 4666 
L 1259 0 
L 628 0 
L 628 4666 
z
" transform="scale(0.015625)"/>
      <path id="DejaVuSans-44" d="M 1259 4147 
L 1259 519 
L 2022 519 
Q 2988 519 3436 956 
Q 3884 1394 3884 2338 
Q 3884 3275 3436 3711 
Q 2988 4147 2022 4147 
L 1259 4147 
z
M 628 4666 
L 1925 4666 
Q 3281 4666 3915 4102 
Q 4550 3538 4550 2338 
Q 4550 1131 3912 565 
Q 3275 0 1925 0 
L 628 0 
L 628 4666 
z
" transform="scale(0.015625)"/>
     </defs>
     <use xlink:href="#DejaVuSans-49"/>
     <use xlink:href="#DejaVuSans-6c" x="29.492188"/>
     <use xlink:href="#DejaVuSans-6c" x="57.275391"/>
     <use xlink:href="#DejaVuSans-2d" x="85.058594"/>
     <use xlink:href="#DejaVuSans-63" x="121.142578"/>
     <use xlink:href="#DejaVuSans-6f" x="176.123047"/>
     <use xlink:href="#DejaVuSans-6e" x="237.304688"/>
     <use xlink:href="#DejaVuSans-64" x="300.683594"/>
     <use xlink:href="#DejaVuSans-69" x="364.160156"/>
     <use xlink:href="#DejaVuSans-74" x="391.943359"/>
     <use xlink:href="#DejaVuSans-69" x="431.152344"/>
     <use xlink:href="#DejaVuSans-6f" x="458.935547"/>
     <use xlink:href="#DejaVuSans-6e" x="520.117188"/>
     <use xlink:href="#DejaVuSans-65" x="583.496094"/>
     <use xlink:href="#DejaVuSans-64" x="645.019531"/>
     <use xlink:href="#DejaVuSans-20" x="708.496094"/>
     <use xlink:href="#DejaVuSans-66" x="740.283203"/>
     <use xlink:href="#DejaVuSans-75" x="775.488281"/>
     <use xlink:href="#DejaVuSans-6e" x="838.867188"/>
     <use xlink:href="#DejaVuSans-63" x="902.246094"/>
     <use xlink:href="#DejaVuSans-74" x="957.226562"/>
     <use xlink:href="#DejaVuSans-69" x="996.435547"/>
     <use xlink:href="#DejaVuSans-6f" x="1024.21875"/>
     <use xlink:href="#DejaVuSans-6e" x="1085.400391"/>
     <use xlink:href="#DejaVuSans-73" x="1148.779297"/>
     <use xlink:href="#DejaVuSans-2c" x="1200.878906"/>
     <use xlink:href="#DejaVuSans-20" x="1232.666016"/>
     <use xlink:href="#DejaVuSans-32" x="1264.453125"/>
     <use xlink:href="#DejaVuSans-30" x="1328.076172"/>
     <use xlink:href="#DejaVuSans-2d" x="1391.699219"/>
     <use xlink:href="#DejaVuSans-44" x="1427.783203"/>
    </g>
    <!-- 51 targets: 100..1e-08 -->
    <g transform="translate(60.632064 40.426264)scale(0.102 -0.102)">
     <defs>
      <path id="DejaVuSans-35" d="M 691 4666 
L 3169 4666 
L 3169 4134 
L 1269 4134 
L 1269 2991 
Q 1406 3038 1543 3061 
Q 1681 3084 1819 3084 
Q 2600 3084 3056 2656 
Q 3513 2228 3513 1497 
Q 3513 744 3044 326 
Q 2575 -91 1722 -91 
Q 1428 -91 1123 -41 
Q 819 9 494 109 
L 494 744 
Q 775 591 1075 516 
Q 1375 441 1709 441 
Q 2250 441 2565 725 
Q 2881 1009 2881 1497 
Q 2881 1984 2565 2268 
Q 2250 2553 1709 2553 
Q 1456 2553 1204 2497 
Q 953 2441 691 2322 
L 691 4666 
z
" transform="scale(0.015625)"/>
      <path id="DejaVuSans-3a" d="M 750 794 
L 1409 794 
L 1409 0 
L 750 0 
L 750 794 
z
M 750 3309 
L 1409 3309 
L 1409 2516 
L 750 2516 
L 750 3309 
z
" transform="scale(0.015625)"/>
     </defs>
     <use xlink:href="#DejaVuSans-35"/>
     <use xlink:href="#DejaVuSans-31" x="63.623047"/>
     <use xlink:href="#DejaVuSans-20" x="127.246094"/>
     <use xlink:href="#DejaVuSans-74" x="159.033203"/>
     <use xlink:href="#DejaVuSans-61" x="198.242188"/>
     <use xlink:href="#DejaVuSans-72" x="259.521484"/>
     <use xlink:href="#DejaVuSans-67" x="298.884766"/>
     <use xlink:href="#DejaVuSans-65" x="362.361328"/>
     <use xlink:href="#DejaVuSans-74" x="423.884766"/>
     <use xlink:href="#DejaVuSans-73" x="463.09375"/>
     <use xlink:href="#DejaVuSans-3a" x="515.193359"/>
     <use xlink:href="#DejaVuSans-20" x="548.884766"/>
     <use xlink:href="#DejaVuSans-31" x="580.671875"/>
     <use xlink:href="#DejaVuSans-30" x="644.294922"/>
     <use xlink:href="#DejaVuSans-30" x="707.917969"/>
     <use xlink:href="#DejaVuSans-2e" x="771.541016"/>
     <use xlink:href="#DejaVuSans-2e" x="803.328125"/>
     <use xlink:href="#DejaVuSans-31" x="835.115234"/>
     <use xlink:href="#DejaVuSans-65" x="898.738281"/>
     <use xlink:href="#DejaVuSans-2d" x="960.261719"/>
     <use xlink:href="#DejaVuSans-30" x="996.345703"/>
     <use xlink:href="#DejaVuSans-38" x="1059.96875"/>
    </g>
    <!-- 15 instances -->
    <g transform="translate(60.632064 51.848032)scale(0.102 -0.102)">
     <use xlink:href="#DejaVuSans-31"/>
     <use xlink:href="#DejaVuSans-35" x="63.623047"/>
     <use xlink:href="#DejaVuSans-20" x="127.246094"/>
     <use xlink:href="#DejaVuSans-69" x="159.033203"/>
     <use xlink:href="#DejaVuSans-6e" x="186.816406"/>
     <use xlink:href="#DejaVuSans-73" x="250.195312"/>
     <use xlink:href="#DejaVuSans-74" x="302.294922"/>
     <use xlink:href="#DejaVuSans-61" x="341.503906"/>
     <use xlink:href="#DejaVuSans-6e" x="402.783203"/>
     <use xlink:href="#DejaVuSans-63" x="466.162109"/>
     <use xlink:href="#DejaVuSans-65" x="521.142578"/>
     <use xlink:href="#DejaVuSans-73" x="582.666016"/>
    </g>
   </g>
   <g id="text_19">
    <!-- v2.6 -->
    <g style="fill: #808080" transform="translate(198.292262 293.943992)scale(0.1 -0.1)">
     <use xlink:href="#DejaVuSans-76"/>
     <use xlink:href="#DejaVuSans-32" x="59.179688"/>
     <use xlink:href="#DejaVuSans-2e" x="122.802734"/>
     <use xlink:href="#DejaVuSans-36" x="154.589844"/>
    </g>
   </g>
  </g>
 </g>
 <defs>
  <clipPath id="paeca785df7">
   <rect x="57.6" y="6.912" width="303.2064" height="292.032"/>
  </clipPath>
 </defs>
</svg>
