<?xml version="1.0" encoding="utf-8" standalone="no"?>
<!DOCTYPE svg PUBLIC "-//W3C//DTD SVG 1.1//EN"
  "http://www.w3.org/Graphics/SVG/1.1/DTD/svg11.dtd">
<svg xmlns:xlink="http://www.w3.org/1999/xlink" width="460.8pt" height="345.6pt" viewBox="0 0 460.8 345.6" xmlns="http://www.w3.org/2000/svg" version="1.1">
 <metadata>
  <rdf:RDF xmlns:dc="http://purl.org/dc/elements/1.1/" xmlns:cc="http://creativecommons.org/ns#" xmlns:rdf="http://www.w3.org/1999/02/22-rdf-syntax-ns#">
   <cc:Work>
    <dc:type rdf:resource="http://purl.org/dc/dcmitype/StillImage"/>
    <dc:date>2024-05-29T08:05:09.716394</dc:date>
    <dc:format>image/svg+xml</dc:format>
    <dc:creator>
     <cc:Agent>
      <dc:title>Matplotlib v3.5.1, https://matplotlib.org/</dc:title>
     </cc:Agent>
    </dc:creator>
   </cc:Work>
  </rdf:RDF>
 </metadata>
 <defs>
  <style type="text/css">*{stroke-linejoin: round; stroke-linecap: butt}</style>
 </defs>
 <g id="figure_1">
  <g id="patch_1">
   <path d="M 0 345.6 
L 460.8 345.6 
L 460.8 0 
L 0 0 
z
" style="fill: #ffffff"/>
  </g>
  <g id="axes_1">
   <g id="patch_2">
    <path d="M 34.16 291.28 
L 453.192 291.28 
L 453.192 3 
L 34.16 3 
z
" style="fill: #ffffff"/>
   </g>
   <g id="matplotlib.axis_1">
    <g id="xtick_1">
     <g id="line2d_1">
      <path d="M 171.368954 291.28 
L 171.368954 3 
" clip-path="url(#p927c914bd7)" style="fill: none; stroke: #b0b0b0; stroke-width: 0.8; stroke-linecap: square"/>
     </g>
     <g id="line2d_2">
      <defs>
       <path id="m2bc7286378" d="M 0 0 
L 0 3.5 
" style="stroke: #000000; stroke-width: 0.8"/>
      </defs>
      <g>
       <use xlink:href="#m2bc7286378" x="171.368954" y="291.28" style="stroke: #000000; stroke-width: 0.8"/>
      </g>
     </g>
     <g id="text_1">
      <!-- -1 -->
      <g transform="translate(161.398641 313.476875)scale(0.2 -0.2)">
       <defs>
        <path id="DejaVuSans-2d" d="M 313 2009 
L 1997 2009 
L 1997 1497 
L 313 1497 
L 313 2009 
z
" transform="scale(0.015625)"/>
        <path id="DejaVuSans-31" d="M 794 531 
L 1825 531 
L 1825 4091 
L 703 3866 
L 703 4441 
L 1819 4666 
L 2450 4666 
L 2450 531 
L 3481 531 
L 3481 0 
L 794 0 
L 794 531 
z
" transform="scale(0.015625)"/>
       </defs>
       <use xlink:href="#DejaVuSans-2d"/>
       <use xlink:href="#DejaVuSans-31" x="36.083984"/>
      </g>
     </g>
    </g>
    <g id="xtick_2">
     <g id="line2d_3">
      <path d="M 315.983046 291.28 
L 315.983046 3 
" clip-path="url(#p927c914bd7)" style="fill: none; stroke: #b0b0b0; stroke-width: 0.8; stroke-linecap: square"/>
     </g>
     <g id="line2d_4">
      <g>
       <use xlink:href="#m2bc7286378" x="315.983046" y="291.28" style="stroke: #000000; stroke-width: 0.8"/>
      </g>
     </g>
     <g id="text_2">
      <!-- 1 -->
      <g transform="translate(309.620546 313.476875)scale(0.2 -0.2)">
       <use xlink:href="#DejaVuSans-31"/>
      </g>
     </g>
    </g>
    <g id="xtick_3">
     <g id="line2d_5">
      <defs>
       <path id="mf31622cd12" d="M 0 0 
L 0 2 
" style="stroke: #000000; stroke-width: 0.6"/>
      </defs>
      <g>
       <use xlink:href="#mf31622cd12" x="48.521452" y="291.28" style="stroke: #000000; stroke-width: 0.6"/>
      </g>
     </g>
    </g>
    <g id="xtick_4">
     <g id="line2d_6">
      <g>
       <use xlink:href="#mf31622cd12" x="61.25409" y="291.28" style="stroke: #000000; stroke-width: 0.6"/>
      </g>
     </g>
    </g>
    <g id="xtick_5">
     <g id="line2d_7">
      <g>
       <use xlink:href="#mf31622cd12" x="70.288041" y="291.28" style="stroke: #000000; stroke-width: 0.6"/>
      </g>
     </g>
    </g>
    <g id="xtick_6">
     <g id="line2d_8">
      <g>
       <use xlink:href="#mf31622cd12" x="77.295318" y="291.28" style="stroke: #000000; stroke-width: 0.6"/>
      </g>
     </g>
    </g>
    <g id="xtick_7">
     <g id="line2d_9">
      <g>
       <use xlink:href="#mf31622cd12" x="83.02068" y="291.28" style="stroke: #000000; stroke-width: 0.6"/>
      </g>
     </g>
    </g>
    <g id="xtick_8">
     <g id="line2d_10">
      <g>
       <use xlink:href="#mf31622cd12" x="87.861405" y="291.28" style="stroke: #000000; stroke-width: 0.6"/>
      </g>
     </g>
    </g>
    <g id="xtick_9">
     <g id="line2d_11">
      <g>
       <use xlink:href="#mf31622cd12" x="92.054631" y="291.28" style="stroke: #000000; stroke-width: 0.6"/>
      </g>
     </g>
    </g>
    <g id="xtick_10">
     <g id="line2d_12">
      <g>
       <use xlink:href="#mf31622cd12" x="95.753319" y="291.28" style="stroke: #000000; stroke-width: 0.6"/>
      </g>
     </g>
    </g>
    <g id="xtick_11">
     <g id="line2d_13">
      <g>
       <use xlink:href="#mf31622cd12" x="120.828498" y="291.28" style="stroke: #000000; stroke-width: 0.6"/>
      </g>
     </g>
    </g>
    <g id="xtick_12">
     <g id="line2d_14">
      <g>
       <use xlink:href="#mf31622cd12" x="133.561136" y="291.28" style="stroke: #000000; stroke-width: 0.6"/>
      </g>
     </g>
    </g>
    <g id="xtick_13">
     <g id="line2d_15">
      <g>
       <use xlink:href="#mf31622cd12" x="142.595087" y="291.28" style="stroke: #000000; stroke-width: 0.6"/>
      </g>
     </g>
    </g>
    <g id="xtick_14">
     <g id="line2d_16">
      <g>
       <use xlink:href="#mf31622cd12" x="149.602364" y="291.28" style="stroke: #000000; stroke-width: 0.6"/>
      </g>
     </g>
    </g>
    <g id="xtick_15">
     <g id="line2d_17">
      <g>
       <use xlink:href="#mf31622cd12" x="155.327726" y="291.28" style="stroke: #000000; stroke-width: 0.6"/>
      </g>
     </g>
    </g>
    <g id="xtick_16">
     <g id="line2d_18">
      <g>
       <use xlink:href="#mf31622cd12" x="160.168451" y="291.28" style="stroke: #000000; stroke-width: 0.6"/>
      </g>
     </g>
    </g>
    <g id="xtick_17">
     <g id="line2d_19">
      <g>
       <use xlink:href="#mf31622cd12" x="164.361677" y="291.28" style="stroke: #000000; stroke-width: 0.6"/>
      </g>
     </g>
    </g>
    <g id="xtick_18">
     <g id="line2d_20">
      <g>
       <use xlink:href="#mf31622cd12" x="168.060365" y="291.28" style="stroke: #000000; stroke-width: 0.6"/>
      </g>
     </g>
    </g>
    <g id="xtick_19">
     <g id="line2d_21">
      <g>
       <use xlink:href="#mf31622cd12" x="193.135544" y="291.28" style="stroke: #000000; stroke-width: 0.6"/>
      </g>
     </g>
    </g>
    <g id="xtick_20">
     <g id="line2d_22">
      <g>
       <use xlink:href="#mf31622cd12" x="205.868182" y="291.28" style="stroke: #000000; stroke-width: 0.6"/>
      </g>
     </g>
    </g>
    <g id="xtick_21">
     <g id="line2d_23">
      <g>
       <use xlink:href="#mf31622cd12" x="214.902133" y="291.28" style="stroke: #000000; stroke-width: 0.6"/>
      </g>
     </g>
    </g>
    <g id="xtick_22">
     <g id="line2d_24">
      <g>
       <use xlink:href="#mf31622cd12" x="221.90941" y="291.28" style="stroke: #000000; stroke-width: 0.6"/>
      </g>
     </g>
    </g>
    <g id="xtick_23">
     <g id="line2d_25">
      <g>
       <use xlink:href="#mf31622cd12" x="227.634772" y="291.28" style="stroke: #000000; stroke-width: 0.6"/>
      </g>
     </g>
    </g>
    <g id="xtick_24">
     <g id="line2d_26">
      <g>
       <use xlink:href="#mf31622cd12" x="232.475497" y="291.28" style="stroke: #000000; stroke-width: 0.6"/>
      </g>
     </g>
    </g>
    <g id="xtick_25">
     <g id="line2d_27">
      <g>
       <use xlink:href="#mf31622cd12" x="236.668723" y="291.28" style="stroke: #000000; stroke-width: 0.6"/>
      </g>
     </g>
    </g>
    <g id="xtick_26">
     <g id="line2d_28">
      <g>
       <use xlink:href="#mf31622cd12" x="240.367411" y="291.28" style="stroke: #000000; stroke-width: 0.6"/>
      </g>
     </g>
    </g>
    <g id="xtick_27">
     <g id="line2d_29">
      <g>
       <use xlink:href="#mf31622cd12" x="265.44259" y="291.28" style="stroke: #000000; stroke-width: 0.6"/>
      </g>
     </g>
    </g>
    <g id="xtick_28">
     <g id="line2d_30">
      <g>
       <use xlink:href="#mf31622cd12" x="278.175229" y="291.28" style="stroke: #000000; stroke-width: 0.6"/>
      </g>
     </g>
    </g>
    <g id="xtick_29">
     <g id="line2d_31">
      <g>
       <use xlink:href="#mf31622cd12" x="287.20918" y="291.28" style="stroke: #000000; stroke-width: 0.6"/>
      </g>
     </g>
    </g>
    <g id="xtick_30">
     <g id="line2d_32">
      <g>
       <use xlink:href="#mf31622cd12" x="294.216456" y="291.28" style="stroke: #000000; stroke-width: 0.6"/>
      </g>
     </g>
    </g>
    <g id="xtick_31">
     <g id="line2d_33">
      <g>
       <use xlink:href="#mf31622cd12" x="299.941818" y="291.28" style="stroke: #000000; stroke-width: 0.6"/>
      </g>
     </g>
    </g>
    <g id="xtick_32">
     <g id="line2d_34">
      <g>
       <use xlink:href="#mf31622cd12" x="304.782543" y="291.28" style="stroke: #000000; stroke-width: 0.6"/>
      </g>
     </g>
    </g>
    <g id="xtick_33">
     <g id="line2d_35">
      <g>
       <use xlink:href="#mf31622cd12" x="308.975769" y="291.28" style="stroke: #000000; stroke-width: 0.6"/>
      </g>
     </g>
    </g>
    <g id="xtick_34">
     <g id="line2d_36">
      <g>
       <use xlink:href="#mf31622cd12" x="312.674457" y="291.28" style="stroke: #000000; stroke-width: 0.6"/>
      </g>
     </g>
    </g>
    <g id="xtick_35">
     <g id="line2d_37">
      <g>
       <use xlink:href="#mf31622cd12" x="337.749636" y="291.28" style="stroke: #000000; stroke-width: 0.6"/>
      </g>
     </g>
    </g>
    <g id="xtick_36">
     <g id="line2d_38">
      <g>
       <use xlink:href="#mf31622cd12" x="350.482275" y="291.28" style="stroke: #000000; stroke-width: 0.6"/>
      </g>
     </g>
    </g>
    <g id="xtick_37">
     <g id="line2d_39">
      <g>
       <use xlink:href="#mf31622cd12" x="359.516226" y="291.28" style="stroke: #000000; stroke-width: 0.6"/>
      </g>
     </g>
    </g>
    <g id="xtick_38">
     <g id="line2d_40">
      <g>
       <use xlink:href="#mf31622cd12" x="366.523502" y="291.28" style="stroke: #000000; stroke-width: 0.6"/>
      </g>
     </g>
    </g>
    <g id="xtick_39">
     <g id="line2d_41">
      <g>
       <use xlink:href="#mf31622cd12" x="372.248864" y="291.28" style="stroke: #000000; stroke-width: 0.6"/>
      </g>
     </g>
    </g>
    <g id="xtick_40">
     <g id="line2d_42">
      <g>
       <use xlink:href="#mf31622cd12" x="377.089589" y="291.28" style="stroke: #000000; stroke-width: 0.6"/>
      </g>
     </g>
    </g>
    <g id="xtick_41">
     <g id="line2d_43">
      <g>
       <use xlink:href="#mf31622cd12" x="381.282815" y="291.28" style="stroke: #000000; stroke-width: 0.6"/>
      </g>
     </g>
    </g>
    <g id="xtick_42">
     <g id="line2d_44">
      <g>
       <use xlink:href="#mf31622cd12" x="384.981503" y="291.28" style="stroke: #000000; stroke-width: 0.6"/>
      </g>
     </g>
    </g>
    <g id="xtick_43">
     <g id="line2d_45">
      <g>
       <use xlink:href="#mf31622cd12" x="410.056682" y="291.28" style="stroke: #000000; stroke-width: 0.6"/>
      </g>
     </g>
    </g>
    <g id="xtick_44">
     <g id="line2d_46">
      <g>
       <use xlink:href="#mf31622cd12" x="422.789321" y="291.28" style="stroke: #000000; stroke-width: 0.6"/>
      </g>
     </g>
    </g>
    <g id="xtick_45">
     <g id="line2d_47">
      <g>
       <use xlink:href="#mf31622cd12" x="431.823272" y="291.28" style="stroke: #000000; stroke-width: 0.6"/>
      </g>
     </g>
    </g>
    <g id="xtick_46">
     <g id="line2d_48">
      <g>
       <use xlink:href="#mf31622cd12" x="438.830548" y="291.28" style="stroke: #000000; stroke-width: 0.6"/>
      </g>
     </g>
    </g>
    <g id="xtick_47">
     <g id="line2d_49">
      <g>
       <use xlink:href="#mf31622cd12" x="444.55591" y="291.28" style="stroke: #000000; stroke-width: 0.6"/>
      </g>
     </g>
    </g>
    <g id="xtick_48">
     <g id="line2d_50">
      <g>
       <use xlink:href="#mf31622cd12" x="449.396635" y="291.28" style="stroke: #000000; stroke-width: 0.6"/>
      </g>
     </g>
    </g>
    <g id="text_3">
     <!-- log10 of FEvals ratio -->
     <g transform="translate(141.371312 336.833125)scale(0.2 -0.2)">
      <defs>
       <path id="DejaVuSans-6c" d="M 603 4863 
L 1178 4863 
L 1178 0 
L 603 0 
L 603 4863 
z
" transform="scale(0.015625)"/>
       <path id="DejaVuSans-6f" d="M 1959 3097 
Q 1497 3097 1228 2736 
Q 959 2375 959 1747 
Q 959 1119 1226 758 
Q 1494 397 1959 397 
Q 2419 397 2687 759 
Q 2956 1122 2956 1747 
Q 2956 2369 2687 2733 
Q 2419 3097 1959 3097 
z
M 1959 3584 
Q 2709 3584 3137 3096 
Q 3566 2609 3566 1747 
Q 3566 888 3137 398 
Q 2709 -91 1959 -91 
Q 1206 -91 779 398 
Q 353 888 353 1747 
Q 353 2609 779 3096 
Q 1206 3584 1959 3584 
z
" transform="scale(0.015625)"/>
       <path id="DejaVuSans-67" d="M 2906 1791 
Q 2906 2416 2648 2759 
Q 2391 3103 1925 3103 
Q 1463 3103 1205 2759 
Q 947 2416 947 1791 
Q 947 1169 1205 825 
Q 1463 481 1925 481 
Q 2391 481 2648 825 
Q 2906 1169 2906 1791 
z
M 3481 434 
Q 3481 -459 3084 -895 
Q 2688 -1331 1869 -1331 
Q 1566 -1331 1297 -1286 
Q 1028 -1241 775 -1147 
L 775 -588 
Q 1028 -725 1275 -790 
Q 1522 -856 1778 -856 
Q 2344 -856 2625 -561 
Q 2906 -266 2906 331 
L 2906 616 
Q 2728 306 2450 153 
Q 2172 0 1784 0 
Q 1141 0 747 490 
Q 353 981 353 1791 
Q 353 2603 747 3093 
Q 1141 3584 1784 3584 
Q 2172 3584 2450 3431 
Q 2728 3278 2906 2969 
L 2906 3500 
L 3481 3500 
L 3481 434 
z
" transform="scale(0.015625)"/>
       <path id="DejaVuSans-30" d="M 2034 4250 
Q 1547 4250 1301 3770 
Q 1056 3291 1056 2328 
Q 1056 1369 1301 889 
Q 1547 409 2034 409 
Q 2525 409 2770 889 
Q 3016 1369 3016 2328 
Q 3016 3291 2770 3770 
Q 2525 4250 2034 4250 
z
M 2034 4750 
Q 2819 4750 3233 4129 
Q 3647 3509 3647 2328 
Q 3647 1150 3233 529 
Q 2819 -91 2034 -91 
Q 1250 -91 836 529 
Q 422 1150 422 2328 
Q 422 3509 836 4129 
Q 1250 4750 2034 4750 
z
" transform="scale(0.015625)"/>
       <path id="DejaVuSans-20" transform="scale(0.015625)"/>
       <path id="DejaVuSans-66" d="M 2375 4863 
L 2375 4384 
L 1825 4384 
Q 1516 4384 1395 4259 
Q 1275 4134 1275 3809 
L 1275 3500 
L 2222 3500 
L 2222 3053 
L 1275 3053 
L 1275 0 
L 697 0 
L 697 3053 
L 147 3053 
L 147 3500 
L 697 3500 
L 697 3744 
Q 697 4328 969 4595 
Q 1241 4863 1831 4863 
L 2375 4863 
z
" transform="scale(0.015625)"/>
       <path id="DejaVuSans-46" d="M 628 4666 
L 3309 4666 
L 3309 4134 
L 1259 4134 
L 1259 2759 
L 3109 2759 
L 3109 2228 
L 1259 2228 
L 1259 0 
L 628 0 
L 628 4666 
z
" transform="scale(0.015625)"/>
       <path id="DejaVuSans-45" d="M 628 4666 
L 3578 4666 
L 3578 4134 
L 1259 4134 
L 1259 2753 
L 3481 2753 
L 3481 2222 
L 1259 2222 
L 1259 531 
L 3634 531 
L 3634 0 
L 628 0 
L 628 4666 
z
" transform="scale(0.015625)"/>
       <path id="DejaVuSans-76" d="M 191 3500 
L 800 3500 
L 1894 563 
L 2988 3500 
L 3597 3500 
L 2284 0 
L 1503 0 
L 191 3500 
z
" transform="scale(0.015625)"/>
       <path id="DejaVuSans-61" d="M 2194 1759 
Q 1497 1759 1228 1600 
Q 959 1441 959 1056 
Q 959 750 1161 570 
Q 1363 391 1709 391 
Q 2188 391 2477 730 
Q 2766 1069 2766 1631 
L 2766 1759 
L 2194 1759 
z
M 3341 1997 
L 3341 0 
L 2766 0 
L 2766 531 
Q 2569 213 2275 61 
Q 1981 -91 1556 -91 
Q 1019 -91 701 211 
Q 384 513 384 1019 
Q 384 1609 779 1909 
Q 1175 2209 1959 2209 
L 2766 2209 
L 2766 2266 
Q 2766 2663 2505 2880 
Q 2244 3097 1772 3097 
Q 1472 3097 1187 3025 
Q 903 2953 641 2809 
L 641 3341 
Q 956 3463 1253 3523 
Q 1550 3584 1831 3584 
Q 2591 3584 2966 3190 
Q 3341 2797 3341 1997 
z
" transform="scale(0.015625)"/>
       <path id="DejaVuSans-73" d="M 2834 3397 
L 2834 2853 
Q 2591 2978 2328 3040 
Q 2066 3103 1784 3103 
Q 1356 3103 1142 2972 
Q 928 2841 928 2578 
Q 928 2378 1081 2264 
Q 1234 2150 1697 2047 
L 1894 2003 
Q 2506 1872 2764 1633 
Q 3022 1394 3022 966 
Q 3022 478 2636 193 
Q 2250 -91 1575 -91 
Q 1294 -91 989 -36 
Q 684 19 347 128 
L 347 722 
Q 666 556 975 473 
Q 1284 391 1588 391 
Q 1994 391 2212 530 
Q 2431 669 2431 922 
Q 2431 1156 2273 1281 
Q 2116 1406 1581 1522 
L 1381 1569 
Q 847 1681 609 1914 
Q 372 2147 372 2553 
Q 372 3047 722 3315 
Q 1072 3584 1716 3584 
Q 2034 3584 2315 3537 
Q 2597 3491 2834 3397 
z
" transform="scale(0.015625)"/>
       <path id="DejaVuSans-72" d="M 2631 2963 
Q 2534 3019 2420 3045 
Q 2306 3072 2169 3072 
Q 1681 3072 1420 2755 
Q 1159 2438 1159 1844 
L 1159 0 
L 581 0 
L 581 3500 
L 1159 3500 
L 1159 2956 
Q 1341 3275 1631 3429 
Q 1922 3584 2338 3584 
Q 2397 3584 2469 3576 
Q 2541 3569 2628 3553 
L 2631 2963 
z
" transform="scale(0.015625)"/>
       <path id="DejaVuSans-74" d="M 1172 4494 
L 1172 3500 
L 2356 3500 
L 2356 3053 
L 1172 3053 
L 1172 1153 
Q 1172 725 1289 603 
Q 1406 481 1766 481 
L 2356 481 
L 2356 0 
L 1766 0 
Q 1100 0 847 248 
Q 594 497 594 1153 
L 594 3053 
L 172 3053 
L 172 3500 
L 594 3500 
L 594 4494 
L 1172 4494 
z
" transform="scale(0.015625)"/>
       <path id="DejaVuSans-69" d="M 603 3500 
L 1178 3500 
L 1178 0 
L 603 0 
L 603 3500 
z
M 603 4863 
L 1178 4863 
L 1178 4134 
L 603 4134 
L 603 4863 
z
" transform="scale(0.015625)"/>
      </defs>
      <use xlink:href="#DejaVuSans-6c"/>
      <use xlink:href="#DejaVuSans-6f" x="27.783203"/>
      <use xlink:href="#DejaVuSans-67" x="88.964844"/>
      <use xlink:href="#DejaVuSans-31" x="152.441406"/>
      <use xlink:href="#DejaVuSans-30" x="216.064453"/>
      <use xlink:href="#DejaVuSans-20" x="279.6875"/>
      <use xlink:href="#DejaVuSans-6f" x="311.474609"/>
      <use xlink:href="#DejaVuSans-66" x="372.65625"/>
      <use xlink:href="#DejaVuSans-20" x="407.861328"/>
      <use xlink:href="#DejaVuSans-46" x="439.648438"/>
      <use xlink:href="#DejaVuSans-45" x="497.167969"/>
      <use xlink:href="#DejaVuSans-76" x="560.351562"/>
      <use xlink:href="#DejaVuSans-61" x="619.53125"/>
      <use xlink:href="#DejaVuSans-6c" x="680.810547"/>
      <use xlink:href="#DejaVuSans-73" x="708.59375"/>
      <use xlink:href="#DejaVuSans-20" x="760.693359"/>
      <use xlink:href="#DejaVuSans-72" x="792.480469"/>
      <use xlink:href="#DejaVuSans-61" x="833.59375"/>
      <use xlink:href="#DejaVuSans-74" x="894.873047"/>
      <use xlink:href="#DejaVuSans-69" x="934.082031"/>
      <use xlink:href="#DejaVuSans-6f" x="961.865234"/>
     </g>
    </g>
   </g>
   <g id="matplotlib.axis_2">
    <g id="ytick_1">
     <g id="line2d_51">
      <path d="M 34.16 288.453725 
L 453.192 288.453725 
" clip-path="url(#p927c914bd7)" style="fill: none; stroke: #b0b0b0; stroke-width: 0.8; stroke-linecap: square"/>
     </g>
     <g id="line2d_52">
      <defs>
       <path id="m1b3d59a0d0" d="M 0 0 
L -3.5 0 
" style="stroke: #000000; stroke-width: 0.8"/>
      </defs>
      <g>
       <use xlink:href="#m1b3d59a0d0" x="34.16" y="288.453725" style="stroke: #000000; stroke-width: 0.8"/>
      </g>
     </g>
    </g>
    <g id="ytick_2">
     <g id="line2d_53">
      <path d="M 34.16 217.796863 
L 453.192 217.796863 
" clip-path="url(#p927c914bd7)" style="fill: none; stroke: #b0b0b0; stroke-width: 0.8; stroke-linecap: square"/>
     </g>
     <g id="line2d_54">
      <g>
       <use xlink:href="#m1b3d59a0d0" x="34.16" y="217.796863" style="stroke: #000000; stroke-width: 0.8"/>
      </g>
     </g>
    </g>
    <g id="ytick_3">
     <g id="line2d_55">
      <path d="M 34.16 147.14 
L 453.192 147.14 
" clip-path="url(#p927c914bd7)" style="fill: none; stroke: #b0b0b0; stroke-width: 0.8; stroke-linecap: square"/>
     </g>
     <g id="line2d_56">
      <g>
       <use xlink:href="#m1b3d59a0d0" x="34.16" y="147.14" style="stroke: #000000; stroke-width: 0.8"/>
      </g>
     </g>
    </g>
    <g id="ytick_4">
     <g id="line2d_57">
      <path d="M 34.16 76.483137 
L 453.192 76.483137 
" clip-path="url(#p927c914bd7)" style="fill: none; stroke: #b0b0b0; stroke-width: 0.8; stroke-linecap: square"/>
     </g>
     <g id="line2d_58">
      <g>
       <use xlink:href="#m1b3d59a0d0" x="34.16" y="76.483137" style="stroke: #000000; stroke-width: 0.8"/>
      </g>
     </g>
    </g>
    <g id="ytick_5">
     <g id="line2d_59">
      <path d="M 34.16 5.826275 
L 453.192 5.826275 
" clip-path="url(#p927c914bd7)" style="fill: none; stroke: #b0b0b0; stroke-width: 0.8; stroke-linecap: square"/>
     </g>
     <g id="line2d_60">
      <g>
       <use xlink:href="#m1b3d59a0d0" x="34.16" y="5.826275" style="stroke: #000000; stroke-width: 0.8"/>
      </g>
     </g>
    </g>
    <g id="text_4">
     <!-- proportion of trials -->
     <g transform="translate(19.000625 240.14625)rotate(-90)scale(0.2 -0.2)">
      <defs>
       <path id="DejaVuSans-70" d="M 1159 525 
L 1159 -1331 
L 581 -1331 
L 581 3500 
L 1159 3500 
L 1159 2969 
Q 1341 3281 1617 3432 
Q 1894 3584 2278 3584 
Q 2916 3584 3314 3078 
Q 3713 2572 3713 1747 
Q 3713 922 3314 415 
Q 2916 -91 2278 -91 
Q 1894 -91 1617 61 
Q 1341 213 1159 525 
z
M 3116 1747 
Q 3116 2381 2855 2742 
Q 2594 3103 2138 3103 
Q 1681 3103 1420 2742 
Q 1159 2381 1159 1747 
Q 1159 1113 1420 752 
Q 1681 391 2138 391 
Q 2594 391 2855 752 
Q 3116 1113 3116 1747 
z
" transform="scale(0.015625)"/>
       <path id="DejaVuSans-6e" d="M 3513 2113 
L 3513 0 
L 2938 0 
L 2938 2094 
Q 2938 2591 2744 2837 
Q 2550 3084 2163 3084 
Q 1697 3084 1428 2787 
Q 1159 2491 1159 1978 
L 1159 0 
L 581 0 
L 581 3500 
L 1159 3500 
L 1159 2956 
Q 1366 3272 1645 3428 
Q 1925 3584 2291 3584 
Q 2894 3584 3203 3211 
Q 3513 2838 3513 2113 
z
" transform="scale(0.015625)"/>
      </defs>
      <use xlink:href="#DejaVuSans-70"/>
      <use xlink:href="#DejaVuSans-72" x="63.476562"/>
      <use xlink:href="#DejaVuSans-6f" x="102.339844"/>
      <use xlink:href="#DejaVuSans-70" x="163.521484"/>
      <use xlink:href="#DejaVuSans-6f" x="226.998047"/>
      <use xlink:href="#DejaVuSans-72" x="288.179688"/>
      <use xlink:href="#DejaVuSans-74" x="329.292969"/>
      <use xlink:href="#DejaVuSans-69" x="368.501953"/>
      <use xlink:href="#DejaVuSans-6f" x="396.285156"/>
      <use xlink:href="#DejaVuSans-6e" x="457.466797"/>
      <use xlink:href="#DejaVuSans-20" x="520.845703"/>
      <use xlink:href="#DejaVuSans-6f" x="552.632812"/>
      <use xlink:href="#DejaVuSans-66" x="613.814453"/>
      <use xlink:href="#DejaVuSans-20" x="649.019531"/>
      <use xlink:href="#DejaVuSans-74" x="680.806641"/>
      <use xlink:href="#DejaVuSans-72" x="720.015625"/>
      <use xlink:href="#DejaVuSans-69" x="761.128906"/>
      <use xlink:href="#DejaVuSans-61" x="788.912109"/>
      <use xlink:href="#DejaVuSans-6c" x="850.191406"/>
      <use xlink:href="#DejaVuSans-73" x="877.974609"/>
     </g>
    </g>
   </g>
   <g id="line2d_61">
    <path d="M 34.16 270.78951 
L 75.720253 270.78951 
L 75.720253 270.537164 
L 96.73709 270.537164 
L 96.73709 270.284818 
L 99.061908 270.284818 
L 99.061908 269.52778 
L 99.219314 269.52778 
L 99.219314 269.023088 
L 99.377514 269.023088 
L 99.377514 268.770742 
L 99.696324 268.770742 
L 99.696324 268.518396 
L 100.018405 268.518396 
L 100.018405 268.013704 
L 100.507805 268.013704 
L 100.507805 267.509013 
L 100.838361 267.509013 
L 100.838361 267.004321 
L 111.794547 267.004321 
L 111.794547 266.247283 
L 111.951953 266.247283 
L 111.951953 265.742591 
L 112.110153 265.742591 
L 112.110153 265.490245 
L 112.428963 265.490245 
L 112.428963 265.237899 
L 112.751043 265.237899 
L 112.751043 264.733207 
L 113.074309 264.733207 
L 113.074309 264.480861 
L 113.240444 264.480861 
L 113.240444 263.976169 
L 113.571 263.976169 
L 113.571 263.471478 
L 114.90748 263.471478 
L 114.90748 263.219132 
L 115.421524 263.219132 
L 115.421524 262.966786 
L 117.316453 262.966786 
L 117.316453 262.71444 
L 125.010342 262.71444 
L 125.010342 262.462094 
L 127.535925 262.462094 
L 127.535925 262.209748 
L 128.825068 262.209748 
L 128.825068 261.957402 
L 133.363428 261.957402 
L 133.363428 261.705056 
L 133.561136 261.705056 
L 133.561136 260.19098 
L 133.718543 260.19098 
L 133.718543 259.181597 
L 133.876743 259.181597 
L 133.876743 258.676905 
L 134.195553 258.676905 
L 134.195553 258.172213 
L 134.517633 258.172213 
L 134.517633 257.162829 
L 135.007034 257.162829 
L 135.007034 256.153445 
L 135.33759 256.153445 
L 135.438517 254.891716 
L 136.378427 254.891716 
L 136.378427 254.63937 
L 138.081896 254.63937 
L 138.081896 254.387024 
L 139.67481 254.387024 
L 139.685319 253.882332 
L 142.75319 253.882332 
L 142.75319 253.629986 
L 146.027179 253.629986 
L 146.027179 253.37764 
L 147.07645 253.37764 
L 147.07645 253.125294 
L 149.841904 253.125294 
L 149.841904 252.872948 
L 152.595347 252.872948 
L 152.595347 252.11591 
L 152.752754 252.11591 
L 152.752754 251.611218 
L 152.910953 251.611218 
L 152.910953 251.358873 
L 153.229764 251.358873 
L 153.229764 251.106527 
L 153.551844 251.106527 
L 153.551844 250.601835 
L 153.822204 250.601835 
L 153.822204 250.349489 
L 154.041244 250.349489 
L 154.041244 249.844797 
L 154.3718 249.844797 
L 154.3718 249.340105 
L 155.327726 249.340105 
L 155.327726 248.583067 
L 155.485133 248.583067 
L 155.485133 248.078375 
L 155.643332 248.078375 
L 155.643332 247.826029 
L 155.962143 247.826029 
L 155.962143 247.573683 
L 156.284223 247.573683 
L 156.284223 247.068992 
L 156.773623 247.068992 
L 156.773623 246.5643 
L 157.10418 246.5643 
L 157.10418 246.059608 
L 157.900153 246.059608 
L 157.900153 245.807262 
L 158.551285 245.807262 
L 158.551285 245.554916 
L 159.491195 245.554916 
L 159.491195 245.30257 
L 160.168451 245.30257 
L 160.168451 244.545532 
L 160.325857 244.545532 
L 160.325857 244.04084 
L 160.484057 244.04084 
L 160.484057 243.788494 
L 160.802867 243.788494 
L 160.802867 243.536148 
L 161.124948 243.536148 
L 161.124948 243.031457 
L 161.524516 243.031457 
L 161.614348 242.274419 
L 161.944904 242.274419 
L 161.944904 241.769727 
L 162.107894 241.769727 
L 162.107894 241.517381 
L 162.364398 241.517381 
L 162.364398 241.265035 
L 162.798086 241.265035 
L 162.798086 241.012689 
L 163.770027 241.012689 
L 163.770027 240.760343 
L 164.197569 240.760343 
L 164.197569 240.507997 
L 164.711613 240.507997 
L 164.711613 240.255651 
L 165.157155 240.255651 
L 165.157155 240.003305 
L 166.179124 240.003305 
L 166.265445 238.993922 
L 166.422852 238.993922 
L 166.422852 238.48923 
L 166.581051 238.48923 
L 166.606542 237.984538 
L 166.899861 237.984538 
L 166.899861 237.732192 
L 167.221942 237.732192 
L 167.221942 237.2275 
L 167.711342 237.2275 
L 167.711342 236.722808 
L 168.012295 236.722808 
L 168.115431 235.713424 
L 168.526339 235.713424 
L 168.526339 235.461078 
L 169.085091 235.461078 
L 169.085091 235.208732 
L 169.796356 235.208732 
L 169.796356 234.956387 
L 170.189218 234.956387 
L 170.189218 234.704041 
L 170.421267 234.704041 
L 170.469294 234.199349 
L 170.736266 234.199349 
L 170.736266 233.947003 
L 170.947402 233.947003 
L 170.947402 233.694657 
L 171.409204 233.694657 
L 171.50587 233.189965 
L 172.2547 233.189965 
L 172.309748 232.685273 
L 172.90109 232.685273 
L 172.90109 231.928235 
L 173.042125 231.928235 
L 173.058496 231.171197 
L 173.216696 231.171197 
L 173.216696 230.918852 
L 173.451055 230.918852 
L 173.535506 230.41416 
L 173.857586 230.41416 
L 173.907995 229.657122 
L 174.043158 229.657122 
L 174.043158 229.404776 
L 174.346987 229.404776 
L 174.364053 228.647738 
L 174.677543 228.647738 
L 174.716095 227.8907 
L 174.847905 227.8907 
L 174.847905 227.638354 
L 176.826014 227.638354 
L 176.934971 227.133662 
L 178.154796 227.133662 
L 178.154796 226.881317 
L 178.52143 226.881317 
L 178.52143 226.628971 
L 179.607861 226.628971 
L 179.607861 225.871933 
L 179.765268 225.871933 
L 179.828728 225.114895 
L 179.923467 225.114895 
L 180.032765 224.610203 
L 180.107246 224.610203 
L 180.107246 224.357857 
L 180.242278 224.357857 
L 180.242278 224.105511 
L 180.564358 224.105511 
L 180.64074 223.348473 
L 180.793004 223.348473 
L 180.793004 222.591436 
L 180.95041 222.591436 
L 181.053758 220.825014 
L 181.10861 220.825014 
L 181.10861 220.572668 
L 181.384315 220.572668 
L 181.43429 219.563284 
L 181.749501 219.563284 
L 181.749501 219.058592 
L 181.940417 219.058592 
L 181.940417 218.806246 
L 182.107227 218.806246 
L 182.107227 218.553901 
L 182.238901 218.553901 
L 182.238901 218.049209 
L 182.454461 218.049209 
L 182.454461 217.796863 
L 182.569457 217.796863 
L 182.653517 217.039825 
L 183.12473 217.039825 
L 183.12473 216.787479 
L 184.279567 216.787479 
L 184.349389 216.282787 
L 184.637283 216.282787 
L 184.637283 216.030441 
L 185.545928 216.030441 
L 185.545928 215.778095 
L 186.468243 215.778095 
L 186.468243 215.525749 
L 186.975877 215.525749 
L 186.975877 215.273403 
L 187.371985 215.273403 
L 187.371985 215.021057 
L 188.180043 215.021057 
L 188.269922 214.516366 
L 188.371436 214.516366 
L 188.371436 214.26402 
L 188.487272 214.26402 
L 188.487272 214.011674 
L 188.693265 214.011674 
L 188.695511 213.506982 
L 188.852981 213.506982 
L 188.852981 213.254636 
L 188.964899 213.254636 
L 189.003172 212.497598 
L 189.166309 212.497598 
L 189.166309 212.245252 
L 189.358458 212.245252 
L 189.362553 211.74056 
L 189.858023 211.74056 
L 189.858023 211.488214 
L 190.31047 211.488214 
L 190.398122 210.983522 
L 191.157428 210.983522 
L 191.228199 210.226485 
L 191.506825 210.226485 
L 191.582243 209.721793 
L 191.670698 209.721793 
L 191.670698 209.469447 
L 192.257993 209.469447 
L 192.357465 208.712409 
L 192.522706 208.712409 
L 192.522706 208.460063 
L 192.779625 208.460063 
L 192.779625 208.207717 
L 192.93093 208.207717 
L 192.93093 207.955371 
L 193.541585 207.955371 
L 193.541585 207.703025 
L 194.568862 207.703025 
L 194.568862 207.450679 
L 195.422515 207.450679 
L 195.422515 207.198333 
L 195.882355 207.198333 
L 195.945464 206.693641 
L 196.0613 206.693641 
L 196.154892 206.18895 
L 196.267293 206.18895 
L 196.369631 205.431912 
L 196.555292 205.431912 
L 196.604422 204.674874 
L 196.740337 204.674874 
L 196.740337 204.422528 
L 196.921771 204.422528 
L 196.932486 203.917836 
L 197.432051 203.917836 
L 197.47682 203.413144 
L 198.229069 203.413144 
L 198.229069 203.160798 
L 198.416452 203.160798 
L 198.416452 202.908452 
L 198.731456 202.908452 
L 198.731456 202.656106 
L 199.048273 202.656106 
L 199.082753 202.151415 
L 199.293054 202.151415 
L 199.293054 201.899069 
L 199.425424 201.899069 
L 199.514994 200.889685 
L 199.993993 200.889685 
L 199.993993 200.637339 
L 200.187932 200.637339 
L 200.232964 199.880301 
L 200.396365 199.880301 
L 200.396365 199.627955 
L 200.593666 199.627955 
L 200.6351 199.123263 
L 200.807833 199.123263 
L 200.807833 198.870917 
L 201.295121 198.870917 
L 201.392508 198.366225 
L 201.693729 198.366225 
L 201.693729 198.11388 
L 201.809165 198.11388 
L 201.809165 197.861534 
L 201.984799 197.861534 
L 202.004188 197.356842 
L 202.47327 197.356842 
L 202.559593 196.095112 
L 202.613354 196.095112 
L 202.717 195.338074 
L 202.8752 195.338074 
L 202.8752 195.085728 
L 203.146208 195.085728 
L 203.248576 194.32869 
L 203.292097 194.32869 
L 203.292097 194.076345 
L 203.51609 194.076345 
L 203.626632 193.066961 
L 203.653071 193.066961 
L 203.704093 192.562269 
L 204.005491 192.562269 
L 204.005491 192.057577 
L 204.188486 192.057577 
L 204.188486 191.805231 
L 204.336047 191.805231 
L 204.33844 191.048193 
L 204.474071 191.048193 
L 204.488452 190.543501 
L 205.114833 190.543501 
L 205.114833 190.291155 
L 206.118763 190.291155 
L 206.118763 190.03881 
L 206.297783 190.03881 
L 206.297783 189.786464 
L 206.427206 189.786464 
L 206.433413 189.281772 
L 206.543042 189.281772 
L 206.584908 188.77708 
L 206.667587 188.77708 
L 206.751281 187.767696 
L 207.049237 187.767696 
L 207.049237 187.51535 
L 207.222079 187.51535 
L 207.222079 187.263004 
L 207.340524 187.263004 
L 207.414228 185.748929 
L 207.495378 185.748929 
L 207.557725 184.991891 
L 207.715924 184.991891 
L 207.807035 184.487199 
L 207.913793 184.487199 
L 207.913793 184.234853 
L 208.034735 184.234853 
L 208.072901 183.730161 
L 208.209128 183.730161 
L 208.209128 183.477815 
L 208.356815 183.477815 
L 208.356815 182.973123 
L 208.721892 182.973123 
L 208.721892 182.720777 
L 208.846215 182.720777 
L 208.859926 181.963739 
L 208.991155 181.963739 
L 208.991155 181.711394 
L 209.176771 181.711394 
L 209.213197 180.954356 
L 209.394829 180.954356 
L 209.394829 180.70201 
L 209.751403 180.70201 
L 209.751403 180.449664 
L 210.088644 180.449664 
L 210.192945 179.944972 
L 210.343879 179.944972 
L 210.379389 179.44028 
L 210.693097 179.44028 
L 210.779225 178.17855 
L 210.866314 178.17855 
L 210.930987 177.421513 
L 211.024513 177.421513 
L 211.024513 177.169167 
L 211.207141 177.169167 
L 211.207141 176.916821 
L 211.343324 176.916821 
L 211.343324 176.664475 
L 211.500243 176.664475 
L 211.511602 176.159783 
L 211.665404 176.159783 
L 211.665404 175.655091 
L 211.794034 175.655091 
L 211.794034 175.402745 
L 211.919604 175.402745 
L 211.919604 175.150399 
L 212.154804 175.150399 
L 212.154804 174.645707 
L 212.371688 174.645707 
L 212.371688 174.393361 
L 212.48536 174.393361 
L 212.48536 173.888669 
L 212.625095 173.888669 
L 212.733944 172.879286 
L 212.83353 172.879286 
L 212.932063 172.374594 
L 212.98859 172.374594 
L 212.98859 172.122248 
L 213.102069 172.122248 
L 213.124221 171.617556 
L 213.555808 171.617556 
L 213.555808 171.36521 
L 213.827037 171.36521 
L 213.932393 170.355826 
L 214.122733 170.355826 
L 214.122733 170.10348 
L 214.345805 170.10348 
L 214.345805 169.851134 
L 214.461641 169.851134 
L 214.461641 169.598789 
L 214.667634 169.598789 
L 214.66988 169.094097 
L 214.886509 169.094097 
L 214.967836 168.589405 
L 215.128748 168.589405 
L 215.140678 168.084713 
L 215.332827 168.084713 
L 215.430031 167.580021 
L 215.78638 167.580021 
L 215.832392 167.075329 
L 216.040836 167.075329 
L 216.040836 166.822983 
L 216.278377 166.822983 
L 216.278377 166.570637 
L 216.626386 166.570637 
L 216.626386 166.318291 
L 216.903995 166.318291 
L 216.924569 165.813599 
L 217.040404 165.813599 
L 217.131797 165.308908 
L 217.246397 165.308908 
L 217.248643 164.804216 
L 217.490862 164.804216 
L 217.585675 164.047178 
L 217.636373 164.047178 
L 217.719442 163.29014 
L 217.895116 163.29014 
L 217.911591 162.280756 
L 218.052523 162.280756 
L 218.052523 161.776064 
L 218.210722 161.776064 
L 218.283421 161.271373 
L 218.366861 161.271373 
L 218.430772 160.261989 
L 218.529533 160.261989 
L 218.529533 160.009643 
L 218.690869 160.009643 
L 218.78203 159.504951 
L 218.851613 159.504951 
L 218.958301 158.747913 
L 219.102641 158.747913 
L 219.102641 158.495567 
L 219.341013 158.495567 
L 219.408833 157.738529 
L 219.524668 157.738529 
L 219.524668 157.486183 
L 219.67157 157.486183 
L 219.751069 155.719762 
L 220.030864 155.719762 
L 220.09959 155.21507 
L 220.203706 155.21507 
L 220.203706 154.962724 
L 220.326204 154.962724 
L 220.395855 154.458032 
L 220.569754 154.458032 
L 220.569754 154.205686 
L 220.89542 154.205686 
L 220.89542 153.95334 
L 221.333716 153.95334 
L 221.333716 153.700994 
L 221.632263 153.700994 
L 221.737663 153.196303 
L 221.747353 153.196303 
L 221.75469 152.691611 
L 221.882983 152.691611 
L 221.882983 152.439265 
L 222.006653 152.439265 
L 222.006653 152.186919 
L 222.189906 152.186919 
L 222.194824 151.682227 
L 222.409344 151.682227 
L 222.477187 151.177535 
L 223.261207 151.177535 
L 223.321542 150.672843 
L 223.431968 150.672843 
L 223.431968 150.420497 
L 223.623537 150.420497 
L 223.667294 149.915805 
L 223.992644 149.915805 
L 223.992644 149.663459 
L 224.469537 149.663459 
L 224.578576 148.906422 
L 224.807658 148.906422 
L 224.854453 148.40173 
L 224.932554 148.40173 
L 224.932554 148.149384 
L 225.379053 148.149384 
L 225.445354 147.644692 
L 225.710212 147.644692 
L 225.764859 147.14 
L 226.062451 147.14 
L 226.062451 146.887654 
L 226.312006 146.887654 
L 226.312006 146.635308 
L 226.447636 146.635308 
L 226.511526 146.130616 
L 226.609469 146.130616 
L 226.716609 145.625924 
L 226.813795 145.625924 
L 226.813795 145.373578 
L 227.017011 145.373578 
L 227.020466 144.868887 
L 227.616979 144.868887 
L 227.616979 144.616541 
L 227.732815 144.616541 
L 227.732815 144.364195 
L 227.848858 144.364195 
L 227.941054 143.607157 
L 227.960376 143.607157 
L 227.960376 143.354811 
L 228.23901 143.354811 
L 228.239445 142.850119 
L 228.411852 142.850119 
L 228.411852 142.597773 
L 228.54978 142.597773 
L 228.642042 141.840735 
L 229.011692 141.840735 
L 229.103566 140.831352 
L 229.128795 140.831352 
L 229.188232 140.074314 
L 229.328516 140.074314 
L 229.334574 139.569622 
L 230.012109 139.569622 
L 230.04913 139.06493 
L 230.164965 139.06493 
L 230.177721 138.560238 
L 230.370958 138.560238 
L 230.40297 137.8032 
L 230.67116 137.8032 
L 230.67116 137.550854 
L 230.844002 137.550854 
L 230.844002 137.298508 
L 230.958752 137.298508 
L 231.036151 136.541471 
L 231.23595 136.541471 
L 231.267268 136.036779 
L 231.37933 136.036779 
L 231.37933 135.784433 
L 231.535716 135.784433 
L 231.635199 134.522703 
L 231.662602 134.522703 
L 231.672496 134.018011 
L 231.868595 134.018011 
L 231.971451 133.008627 
L 232.168798 133.008627 
L 232.168798 132.756282 
L 232.34164 132.756282 
L 232.34164 132.503936 
L 232.497908 132.503936 
L 232.533789 131.999244 
L 232.835121 131.999244 
L 232.835121 131.746898 
L 232.967214 131.746898 
L 233.033354 131.242206 
L 233.338672 131.242206 
L 233.338672 130.98986 
L 233.504603 130.98986 
L 233.504603 130.737514 
L 233.702411 130.737514 
L 233.702411 130.485168 
L 233.818247 130.485168 
L 233.893169 129.72813 
L 233.948899 129.72813 
L 234.026486 128.971092 
L 234.255671 128.971092 
L 234.332758 128.214055 
L 234.497284 128.214055 
L 234.497284 127.961709 
L 234.689433 127.961709 
L 234.689433 127.709363 
L 234.919144 127.709363 
L 234.919144 127.457017 
L 235.0739 127.457017 
L 235.0739 127.204671 
L 235.188998 127.204671 
L 235.188998 126.952325 
L 235.460427 126.952325 
L 235.460427 126.699979 
L 235.630577 126.699979 
L 235.630577 126.447633 
L 235.775774 126.447633 
L 235.874548 125.438249 
L 235.906752 125.438249 
L 235.92549 124.933557 
L 236.118028 124.933557 
L 236.164285 124.428866 
L 236.43681 124.428866 
L 236.488402 123.924174 
L 236.896662 123.924174 
L 236.924397 123.419482 
L 237.563855 123.419482 
L 237.563855 123.167136 
L 237.699486 123.167136 
L 237.699486 122.91479 
L 237.880033 122.91479 
L 237.880033 122.662444 
L 238.21859 122.662444 
L 238.269981 122.157752 
L 238.6584 122.157752 
L 238.746564 121.400714 
L 238.784025 121.400714 
L 238.883739 120.896022 
L 239.144465 120.896022 
L 239.144465 120.643676 
L 239.300258 120.643676 
L 239.300258 120.391331 
L 239.626983 120.391331 
L 239.626983 120.138985 
L 239.880643 120.138985 
L 239.952498 119.634293 
L 240.02948 119.634293 
L 240.119807 119.129601 
L 240.340427 119.129601 
L 240.340427 118.877255 
L 240.579735 118.877255 
L 240.685241 118.120217 
L 240.801076 118.120217 
L 240.852184 117.615525 
L 241.007069 117.615525 
L 241.093779 116.858487 
L 241.178225 116.858487 
L 241.22279 116.10145 
L 241.307272 116.10145 
L 241.326092 115.596758 
L 241.480113 115.596758 
L 241.586325 114.83972 
L 241.672262 114.83972 
L 241.672262 114.587374 
L 241.789176 114.587374 
L 241.789176 114.335028 
L 241.924807 114.335028 
L 241.924807 114.082682 
L 242.171827 114.082682 
L 242.263365 113.325644 
L 242.312793 113.325644 
L 242.37633 112.820952 
L 242.510213 112.820952 
L 242.510213 112.568606 
L 242.988707 112.568606 
L 242.988707 112.316261 
L 243.195932 112.316261 
L 243.195932 112.063915 
L 243.471232 112.063915 
L 243.57686 111.559223 
L 243.81043 111.559223 
L 243.81043 111.306877 
L 244.470948 111.306877 
L 244.470948 111.054531 
L 245.145019 111.054531 
L 245.145019 110.802185 
L 245.404153 110.802185 
L 245.404153 110.549839 
L 245.574547 110.549839 
L 245.595413 110.045147 
L 245.966075 110.045147 
L 245.966075 109.792801 
L 246.45428 109.792801 
L 246.45428 109.540455 
L 246.828018 109.540455 
L 246.828018 109.288109 
L 247.005728 109.288109 
L 247.052452 108.783417 
L 247.209499 108.783417 
L 247.209499 108.531071 
L 247.421021 108.531071 
L 247.528362 108.02638 
L 247.809603 108.02638 
L 247.809603 107.774034 
L 248.277133 107.774034 
L 248.277133 107.521688 
L 248.665265 107.521688 
L 248.665265 107.269342 
L 248.788242 107.269342 
L 248.818083 106.76465 
L 249.011957 106.76465 
L 249.011957 106.512304 
L 249.37034 106.512304 
L 249.397642 106.007612 
L 249.482103 106.007612 
L 249.482103 105.755266 
L 249.658879 105.755266 
L 249.768945 105.250574 
L 249.883754 105.250574 
L 249.941685 104.745882 
L 250.002203 104.745882 
L 250.078642 104.24119 
L 250.167776 104.24119 
L 250.196077 103.736499 
L 250.286119 103.736499 
L 250.286119 103.484153 
L 250.71957 103.484153 
L 250.830414 102.979461 
L 250.898425 102.979461 
L 250.898425 102.727115 
L 251.277773 102.727115 
L 251.277773 102.474769 
L 251.592276 102.474769 
L 251.592276 102.222423 
L 251.724195 102.222423 
L 251.724195 101.970077 
L 251.903443 101.970077 
L 251.985674 101.465385 
L 252.11929 101.465385 
L 252.11929 101.213039 
L 252.621699 101.213039 
L 252.633334 100.708347 
L 252.948904 100.708347 
L 252.948904 100.456001 
L 253.106465 100.456001 
L 253.20818 99.95131 
L 253.31711 99.95131 
L 253.352895 99.446618 
L 253.69848 99.446618 
L 253.711282 98.941926 
L 253.843632 98.941926 
L 253.843632 98.68958 
L 254.019635 98.68958 
L 254.019635 98.437234 
L 254.333309 98.437234 
L 254.362092 97.932542 
L 254.528262 97.932542 
L 254.528262 97.680196 
L 254.785936 97.680196 
L 254.785936 97.42785 
L 255.094469 97.42785 
L 255.15093 96.923158 
L 255.26641 96.923158 
L 255.26641 96.670812 
L 255.402041 96.670812 
L 255.472732 96.16612 
L 255.637477 96.16612 
L 255.718169 95.661429 
L 255.817597 95.661429 
L 255.817597 95.409083 
L 256.347284 95.409083 
L 256.416397 94.904391 
L 256.459753 94.904391 
L 256.459753 94.652045 
L 256.669558 94.652045 
L 256.739104 93.895007 
L 257.035895 93.895007 
L 257.035895 93.642661 
L 257.470648 93.642661 
L 257.470648 93.390315 
L 257.643997 93.390315 
L 257.643997 93.137969 
L 257.984692 93.137969 
L 258.079868 92.633277 
L 258.51761 92.633277 
L 258.51761 92.380931 
L 258.897962 92.380931 
L 258.897962 92.128585 
L 259.035683 92.128585 
L 259.035683 91.876239 
L 259.69738 91.876239 
L 259.701731 91.371548 
L 259.879621 91.371548 
L 259.879621 91.119202 
L 260.113689 91.119202 
L 260.113689 90.866856 
L 260.307563 90.866856 
L 260.307563 90.61451 
L 260.458959 90.61451 
L 260.458959 90.362164 
L 260.863874 90.362164 
L 260.863874 90.109818 
L 261.276636 90.109818 
L 261.276636 89.857472 
L 261.444396 89.857472 
L 261.444396 89.605126 
L 261.596251 89.605126 
L 261.600548 89.100434 
L 261.932633 89.100434 
L 261.932633 88.848088 
L 262.239626 88.848088 
L 262.305189 88.343396 
L 262.7584 88.343396 
L 262.847573 87.838704 
L 262.894031 87.838704 
L 262.952274 87.081667 
L 263.03731 87.081667 
L 263.087905 86.576975 
L 263.237524 86.576975 
L 263.331394 86.072283 
L 263.754151 86.072283 
L 263.765804 85.567591 
L 263.865582 85.567591 
L 263.891697 85.062899 
L 264.234912 85.062899 
L 264.279848 84.558207 
L 264.414481 84.558207 
L 264.414481 84.305861 
L 264.604745 84.305861 
L 264.624074 83.801169 
L 264.747735 83.801169 
L 264.755007 83.296478 
L 264.870708 83.296478 
L 264.870708 83.044132 
L 265.218515 83.044132 
L 265.218515 82.791786 
L 265.347065 82.791786 
L 265.44259 82.034748 
L 265.698753 82.034748 
L 265.698753 81.782402 
L 265.946002 81.782402 
L 265.996099 81.27771 
L 266.174776 81.27771 
L 266.212797 80.773018 
L 267.462845 80.773018 
L 267.462845 80.520672 
L 267.626602 80.520672 
L 267.626602 80.268326 
L 267.82927 80.268326 
L 267.82927 80.01598 
L 268.107725 80.01598 
L 268.107725 79.763634 
L 268.343314 79.763634 
L 268.429229 79.258943 
L 268.830066 79.258943 
L 268.830066 79.006597 
L 269.028221 79.006597 
L 269.028221 78.754251 
L 269.161606 78.754251 
L 269.161606 78.501905 
L 269.294831 78.501905 
L 269.294831 78.249559 
L 269.646291 78.249559 
L 269.714618 77.744867 
L 269.783168 77.744867 
L 269.813217 77.240175 
L 270.099093 77.240175 
L 270.149812 76.735483 
L 270.238242 76.735483 
L 270.339564 76.230791 
L 270.483534 76.230791 
L 270.575238 75.473754 
L 271.267666 75.473754 
L 271.267666 75.221408 
L 271.383501 75.221408 
L 271.383501 74.969062 
L 271.589494 74.969062 
L 271.59174 74.46437 
L 271.889697 74.46437 
L 271.889697 74.212024 
L 272.062538 74.212024 
L 272.062538 73.959678 
L 272.246997 73.959678 
L 272.254687 73.454986 
L 272.440872 73.454986 
L 272.457928 72.950294 
L 272.593559 72.950294 
L 272.593559 72.697948 
L 272.720809 72.697948 
L 272.754253 72.193256 
L 272.852398 72.193256 
L 272.959939 71.688564 
L 273.90493 71.688564 
L 273.90493 71.436218 
L 274.053657 71.436218 
L 274.053657 71.183873 
L 274.375133 71.183873 
L 274.451257 70.679181 
L 275.293705 70.679181 
L 275.293705 70.426835 
L 275.530003 70.426835 
L 275.635377 69.922143 
L 275.782423 69.922143 
L 275.782423 69.669797 
L 275.926596 69.669797 
L 275.926596 69.417451 
L 276.394249 69.417451 
L 276.394249 69.165105 
L 276.786821 69.165105 
L 276.88662 68.660413 
L 276.980696 68.660413 
L 277.077719 68.155721 
L 278.175229 68.155721 
L 278.175229 67.651029 
L 278.327198 67.651029 
L 278.327198 67.398683 
L 278.557826 67.398683 
L 278.656767 66.641646 
L 279.892651 66.641646 
L 279.892651 66.3893 
L 280.039092 66.3893 
L 280.039092 66.136954 
L 280.410017 66.136954 
L 280.457714 65.632262 
L 280.645064 65.632262 
L 280.645064 65.379916 
L 280.832561 65.379916 
L 280.940079 64.622878 
L 281.035017 64.622878 
L 281.035017 64.370532 
L 281.946525 64.370532 
L 281.946525 64.118186 
L 282.221752 64.118186 
L 282.3073 63.361148 
L 282.727391 63.361148 
L 282.818989 62.856457 
L 283.095358 62.856457 
L 283.095358 62.604111 
L 283.274413 62.604111 
L 283.274413 62.351765 
L 283.468287 62.351765 
L 283.531329 61.847073 
L 284.016416 61.847073 
L 284.016416 61.594727 
L 284.139452 61.594727 
L 284.154701 61.090035 
L 285.158549 61.090035 
L 285.260338 60.080651 
L 285.746863 60.080651 
L 285.746863 59.828305 
L 286.285217 59.828305 
L 286.285217 59.575959 
L 286.486349 59.575959 
L 286.537938 59.071268 
L 286.661127 59.071268 
L 286.661127 58.818922 
L 286.796758 58.818922 
L 286.796758 58.566576 
L 286.940219 58.566576 
L 286.981306 58.061884 
L 287.734293 58.061884 
L 287.734293 57.809538 
L 287.852367 57.809538 
L 287.852367 57.557192 
L 288.186371 57.557192 
L 288.186371 57.304846 
L 288.391575 57.304846 
L 288.432069 56.800154 
L 288.527205 56.800154 
L 288.625943 56.043116 
L 288.873169 56.043116 
L 288.873169 55.79077 
L 289.000995 55.79077 
L 289.011567 55.286078 
L 289.79929 55.286078 
L 289.79929 55.033732 
L 289.993164 55.033732 
L 289.993164 54.781387 
L 290.466083 54.781387 
L 290.554952 54.276695 
L 291.003685 54.276695 
L 291.003685 54.024349 
L 291.530584 54.024349 
L 291.530584 53.772003 
L 292.447591 53.772003 
L 292.447591 53.519657 
L 292.596599 53.519657 
L 292.596599 53.267311 
L 292.723903 53.267311 
L 292.723903 53.014965 
L 292.973941 53.014965 
L 293.038462 52.510273 
L 294.24229 52.510273 
L 294.24229 52.257927 
L 294.757346 52.257927 
L 294.757346 52.005581 
L 295.344357 52.005581 
L 295.344357 51.753235 
L 295.538231 51.753235 
L 295.538231 51.500889 
L 295.972738 51.500889 
L 295.972738 51.248543 
L 296.149724 51.248543 
L 296.149724 50.996197 
L 296.379282 50.996197 
L 296.379282 50.743852 
L 297.880172 50.743852 
L 297.880172 50.491506 
L 298.046943 50.491506 
L 298.131597 49.986814 
L 298.240817 49.986814 
L 298.276337 49.482122 
L 298.398971 49.482122 
L 298.398971 49.229776 
L 298.737572 49.229776 
L 298.737572 48.97743 
L 298.865965 48.97743 
L 298.865965 48.725084 
L 299.498818 48.725084 
L 299.498818 48.472738 
L 299.941818 48.472738 
L 299.941818 47.463354 
L 300.689548 47.463354 
L 300.689548 47.211008 
L 302.354287 47.211008 
L 302.419996 46.706317 
L 302.654674 46.706317 
L 302.654674 46.453971 
L 302.77051 46.453971 
L 302.77051 46.201625 
L 302.939689 46.201625 
L 302.978749 45.444587 
L 303.276705 45.444587 
L 303.276705 45.192241 
L 303.449547 45.192241 
L 303.449547 44.939895 
L 303.584433 44.939895 
L 303.641696 44.435203 
L 304.141261 44.435203 
L 304.141261 44.182857 
L 304.839029 44.182857 
L 304.839029 43.930511 
L 305.043885 43.930511 
L 305.043885 43.678165 
L 305.177347 43.678165 
L 305.177347 43.425819 
L 305.440665 43.425819 
L 305.440665 43.173473 
L 305.978649 43.173473 
L 305.978649 42.921127 
L 306.146327 42.921127 
L 306.229563 42.416436 
L 306.296901 42.416436 
L 306.296901 42.16409 
L 306.423437 42.16409 
L 306.423437 41.911744 
L 307.17714 41.911744 
L 307.17714 41.659398 
L 307.342681 41.659398 
L 307.342681 41.407052 
L 307.746471 41.407052 
L 307.746471 41.154706 
L 308.907587 41.154706 
L 308.907587 40.90236 
L 309.611288 40.90236 
L 309.611288 40.650014 
L 311.648259 40.650014 
L 311.648259 40.397668 
L 312.334796 40.397668 
L 312.334796 40.145322 
L 312.569565 40.145322 
L 312.569565 39.892976 
L 313.702017 39.892976 
L 313.702017 39.64063 
L 314.065243 39.64063 
L 314.065243 39.388284 
L 314.235965 39.388284 
L 314.235965 39.135938 
L 314.918338 39.135938 
L 314.918338 38.883592 
L 315.432464 38.883592 
L 315.432464 38.631246 
L 315.92909 38.631246 
L 315.92909 38.378901 
L 316.255654 38.378901 
L 316.255654 38.126555 
L 316.763881 38.126555 
L 316.763881 37.874209 
L 317.496258 37.874209 
L 317.496258 37.621863 
L 317.943415 37.621863 
L 317.943415 37.369517 
L 318.818186 37.369517 
L 318.818186 37.117171 
L 318.976029 37.117171 
L 319.004707 36.360133 
L 319.247083 36.360133 
L 319.247083 36.107787 
L 319.876364 36.107787 
L 319.876364 35.855441 
L 320.977531 35.855441 
L 320.977531 35.603095 
L 321.708408 35.603095 
L 321.708408 35.098403 
L 321.949669 35.098403 
L 322.00688 34.593711 
L 322.263063 34.593711 
L 322.294393 34.08902 
L 322.378898 34.08902 
L 322.378898 33.836674 
L 322.584891 33.836674 
L 322.587137 33.331982 
L 322.819433 33.331982 
L 322.885094 32.82729 
L 323.057935 32.82729 
L 323.057935 32.574944 
L 323.250084 32.574944 
L 323.250084 32.322598 
L 323.680117 32.322598 
L 323.74965 31.817906 
L 323.956166 31.817906 
L 323.956166 31.56556 
L 325.049054 31.56556 
L 325.049054 31.313214 
L 325.975855 31.313214 
L 325.975855 31.060868 
L 326.26592 31.060868 
L 326.26592 30.808522 
L 326.549133 30.808522 
L 326.549133 30.303831 
L 328.285609 30.303831 
L 328.285609 30.051485 
L 330.132289 30.051485 
L 330.132289 29.799139 
L 331.43001 29.799139 
L 331.43001 29.546793 
L 331.692369 29.546793 
L 331.692369 29.294447 
L 331.862737 29.294447 
L 331.862737 29.042101 
L 332.646127 29.042101 
L 332.646127 28.537409 
L 334.526726 28.537409 
L 334.587628 28.032717 
L 336.747555 28.032717 
L 336.747555 27.780371 
L 337.805475 27.780371 
L 337.805475 27.528025 
L 339.281771 27.528025 
L 339.281771 27.023333 
L 339.825164 27.023333 
L 339.825164 26.770987 
L 341.058556 26.770987 
L 341.058556 26.518641 
L 343.156834 26.518641 
L 343.156834 26.266296 
L 345.176522 26.266296 
L 345.176522 26.01395 
L 345.988543 26.01395 
L 345.988543 25.509258 
L 347.173686 25.509258 
L 347.173686 25.004566 
L 349.451989 25.004566 
L 349.549052 24.499874 
L 351.384938 24.499874 
L 351.471678 23.995182 
L 353.404627 23.995182 
L 353.515455 23.49049 
L 355.535144 23.49049 
L 355.535144 23.238144 
L 356.102259 23.238144 
L 356.102259 22.985798 
L 359.269252 22.985798 
L 359.269252 22.733452 
L 361.579007 22.733452 
L 361.579007 22.481106 
L 365.500235 22.481106 
L 365.500235 22.228761 
L 366.096202 22.228761 
L 366.096202 21.976415 
L 368.115891 21.976415 
L 368.115891 21.724069 
L 368.940275 21.724069 
L 368.940275 21.219377 
L 373.118562 21.219377 
L 373.118562 20.967031 
L 373.781 20.967031 
L 373.781 20.462339 
L 377.089589 20.462339 
L 377.089589 19.957647 
L 378.46992 19.957647 
L 378.46992 19.705301 
L 383.356918 19.705301 
L 383.356918 19.452955 
L 384.275798 19.452955 
L 384.275798 18.948263 
L 384.765076 18.948263 
L 384.765076 18.695917 
L 386.698025 18.695917 
L 386.698025 18.443571 
L 388.828541 18.443571 
L 388.828541 18.191225 
L 393.077118 18.191225 
L 393.077118 17.93888 
L 395.386873 17.93888 
L 395.386873 17.686534 
L 401.409289 17.686534 
L 401.409289 17.434188 
L 406.926428 17.434188 
L 406.926428 17.181842 
L 412.277786 17.181842 
L 412.277786 16.929496 
L 418.572942 16.929496 
L 418.572942 16.67715 
L 420.505891 16.67715 
L 420.505891 16.424804 
L 422.636407 16.424804 
L 422.636407 16.172458 
L 435.217155 16.172458 
L 435.217155 15.920112 
L 453.192 15.920112 
L 453.192 15.920112 
" clip-path="url(#p927c914bd7)" style="fill: none; stroke: #000000; stroke-width: 3; stroke-linecap: square"/>
   </g>
   <g id="line2d_62">
    <path clip-path="url(#p927c914bd7)" style="fill: none; stroke: #000000; stroke-width: 3; stroke-linecap: square"/>
   </g>
   <g id="line2d_63">
    <path d="M 34.16 186.226775 
L 192.126524 186.226775 
L 192.126524 185.825885 
L 192.497405 185.825885 
L 192.497405 185.424995 
L 193.904943 185.424995 
L 193.904943 185.024105 
L 194.275825 185.024105 
L 194.275825 184.623215 
L 194.93049 184.623215 
L 194.93158 183.821435 
L 195.373586 183.821435 
L 195.373586 183.420545 
L 195.61105 183.420545 
L 195.61105 183.019655 
L 195.744468 183.019655 
L 195.744468 182.618765 
L 195.877718 182.618765 
L 195.981932 181.816985 
L 196.186919 181.816985 
L 196.28795 180.213425 
L 196.658832 180.213425 
L 196.708909 179.411645 
L 197.306159 179.411645 
L 197.306159 179.010755 
L 198.177552 179.010755 
L 198.177552 178.609865 
L 198.415016 178.609865 
L 198.415016 178.208975 
L 198.681684 178.208975 
L 198.681684 177.808085 
L 199.091916 177.808085 
L 199.091916 177.407195 
L 203.099327 177.407195 
L 203.099327 177.006305 
L 203.680107 177.006305 
L 203.680107 176.605415 
L 204.172025 176.605415 
L 204.172025 176.204525 
L 204.877746 176.204525 
L 204.877746 175.803635 
L 205.458526 175.803635 
L 205.458526 175.402745 
L 205.950445 175.402745 
L 205.950445 175.001855 
L 206.346389 175.001855 
L 206.346389 174.600965 
L 206.583853 174.600965 
L 206.583853 174.200075 
L 206.850521 174.200075 
L 206.927169 172.997405 
L 207.164633 172.997405 
L 207.260753 172.195625 
L 207.419088 172.195625 
L 207.431301 170.992955 
L 207.656552 170.992955 
L 207.656552 170.592065 
L 207.841533 170.592065 
L 207.923219 169.389395 
L 208.145617 169.389395 
L 208.191161 168.587615 
L 208.333452 168.587615 
L 208.333452 168.186725 
L 208.679384 168.186725 
L 208.724928 167.384945 
L 208.938647 167.384945 
L 208.938647 166.984055 
L 209.11644 166.984055 
L 209.11644 166.583165 
L 209.264857 166.583165 
L 209.309528 165.781385 
L 209.675534 165.781385 
L 209.675534 165.380495 
L 209.798624 165.380495 
L 209.798624 164.979605 
L 210.005603 164.979605 
L 210.005603 164.578715 
L 210.733073 164.578715 
L 210.733073 164.177825 
L 211.144177 164.177825 
L 211.144177 163.776935 
L 211.381641 163.776935 
L 211.381641 163.376045 
L 211.648309 163.376045 
L 211.742613 162.574265 
L 211.784022 162.574265 
L 211.784022 162.173375 
L 212.058541 162.173375 
L 212.058541 161.772485 
L 212.428324 161.772485 
L 212.511492 160.970705 
L 212.647103 160.970705 
L 212.647103 160.569815 
L 213.017985 160.569815 
L 213.017985 160.168925 
L 213.252665 160.168925 
L 213.252665 159.768035 
L 213.40012 159.768035 
L 213.490129 158.966255 
L 213.756797 158.966255 
L 213.756797 158.565365 
L 213.980135 158.565365 
L 213.980135 158.164475 
L 214.167029 158.164475 
L 214.217599 156.961805 
L 214.463809 156.961805 
L 214.484267 156.160025 
L 214.834691 156.160025 
L 214.903072 154.957355 
L 215.45107 154.957355 
L 215.45107 154.556465 
L 215.675387 154.556465 
L 215.675387 154.155575 
L 215.912851 154.155575 
L 215.98309 153.353795 
L 216.179518 153.353795 
L 216.179518 152.952905 
L 216.589751 152.952905 
L 216.681491 151.750235 
L 217.23843 151.750235 
L 217.283974 150.547565 
L 217.384299 150.547565 
L 217.384299 150.146675 
L 217.74774 150.146675 
L 217.74774 149.745785 
L 218.150134 149.745785 
L 218.150134 149.344895 
L 218.316025 149.344895 
L 218.387598 148.142225 
L 218.654266 148.142225 
L 218.654266 147.741335 
L 219.064498 147.741335 
L 219.162718 146.939555 
L 219.854596 146.939555 
L 219.91145 146.137775 
L 220.49223 146.137775 
L 220.596506 145.335995 
L 220.631361 145.335995 
L 220.631361 144.935105 
L 220.868825 144.935105 
L 220.868825 144.534215 
L 220.984148 144.534215 
L 221.075138 143.732435 
L 221.135493 143.732435 
L 221.135493 143.331545 
L 221.545725 143.331545 
L 221.626077 142.128875 
L 222.387935 142.128875 
L 222.459717 141.327095 
L 222.726355 141.327095 
L 222.726355 140.926205 
L 222.881416 140.926205 
L 222.92696 140.124425 
L 223.156032 140.124425 
L 223.156032 139.723535 
L 223.428257 139.723535 
L 223.526914 138.921755 
L 223.619907 138.921755 
L 223.715056 138.119975 
L 223.7606 138.119975 
L 223.7606 137.719085 
L 223.981695 137.719085 
L 224.027239 136.516415 
L 224.200687 136.516415 
L 224.200687 136.115525 
L 224.324286 136.115525 
L 224.344037 135.313745 
L 224.692605 135.313745 
L 224.709238 134.511965 
L 224.834296 134.511965 
L 224.834296 134.111075 
L 225.100935 134.111075 
L 225.206676 133.309295 
L 225.267601 133.309295 
L 225.358818 132.507515 
L 225.436612 132.507515 
L 225.51196 131.705735 
L 225.579625 131.705735 
L 225.625169 130.903955 
L 225.892585 130.903955 
L 225.959998 130.102175 
L 226.017392 130.102175 
L 226.017392 129.701285 
L 226.334561 129.701285 
L 226.334561 129.300395 
L 226.509311 129.300395 
L 226.509311 128.899505 
L 226.675319 128.899505 
L 226.705442 127.696835 
L 226.793158 127.696835 
L 226.817726 126.895055 
L 226.912783 126.895055 
L 226.912783 126.494165 
L 227.046021 126.494165 
L 227.046021 126.093275 
L 227.179451 126.093275 
L 227.179451 125.692385 
L 227.545196 125.692385 
L 227.589683 124.890605 
L 228.417694 124.890605 
L 228.514664 124.088825 
L 228.585633 124.088825 
L 228.585633 123.687935 
L 228.752128 123.687935 
L 228.752128 123.287045 
L 229.018795 123.287045 
L 229.1194 122.485265 
L 229.138527 122.485265 
L 229.240448 121.683485 
L 229.429028 121.683485 
L 229.430808 120.881705 
L 229.706438 120.881705 
L 229.706438 120.480815 
L 230.16795 120.480815 
L 230.274722 118.877255 
L 230.526183 118.877255 
L 230.526183 118.476365 
L 230.686148 118.476365 
L 230.731692 117.273695 
L 230.80849 117.273695 
L 230.80849 116.872805 
L 231.006673 116.872805 
L 231.095546 116.071025 
L 231.253653 116.071025 
L 231.253653 115.670135 
L 231.466427 115.670135 
L 231.466427 115.269245 
L 231.715195 115.269245 
L 231.813294 114.066575 
L 231.97811 114.066575 
L 232.023654 113.264795 
L 232.262012 113.264795 
L 232.347061 111.661235 
L 232.555204 111.661235 
L 232.555204 111.260345 
L 232.948904 111.260345 
L 232.948904 110.859455 
L 233.070358 110.859455 
L 233.09735 109.656785 
L 233.381252 109.656785 
L 233.381252 109.255895 
L 233.899512 109.255895 
L 233.899512 108.855005 
L 234.06627 108.855005 
L 234.128835 108.053225 
L 234.196422 108.053225 
L 234.196422 107.652335 
L 234.346632 107.652335 
L 234.45163 106.850555 
L 234.709615 106.850555 
L 234.76561 106.048775 
L 234.8804 106.048775 
L 234.8804 105.647885 
L 235.201534 105.647885 
L 235.201534 105.246995 
L 235.32161 105.246995 
L 235.423652 103.643435 
L 235.768685 103.643435 
L 235.810937 102.841655 
L 236.302735 102.841655 
L 236.302735 102.440765 
L 236.44085 102.440765 
L 236.44085 102.039875 
L 236.644577 102.039875 
L 236.644577 101.638985 
L 236.836502 101.638985 
L 236.911215 100.837205 
L 237.118536 100.837205 
L 237.118536 100.436315 
L 237.240357 100.436315 
L 237.307364 99.634535 
L 237.470658 99.634535 
L 237.470658 99.233645 
L 237.678445 99.233645 
L 237.678445 98.832755 
L 237.888144 98.832755 
L 237.904879 98.030975 
L 238.004425 98.030975 
L 238.004425 97.630085 
L 238.380062 97.630085 
L 238.380062 97.229195 
L 238.509146 97.229195 
L 238.587179 96.427415 
L 238.751856 96.427415 
L 238.824643 95.224745 
L 238.926623 95.224745 
L 238.926623 94.823855 
L 239.09131 94.823855 
L 239.09131 94.422965 
L 239.285623 94.422965 
L 239.367535 93.621185 
L 239.501542 93.621185 
L 239.501542 93.220295 
L 239.721584 93.220295 
L 239.721584 92.819405 
L 240.094617 92.819405 
L 240.094617 92.418515 
L 240.24038 92.418515 
L 240.24038 92.017625 
L 240.906106 92.017625 
L 240.928257 91.215845 
L 241.035111 91.215845 
L 241.035111 90.814955 
L 241.194895 90.814955 
L 241.213581 90.013175 
L 241.648017 90.013175 
L 241.648017 89.612285 
L 241.762581 89.612285 
L 241.762581 89.211395 
L 242.068349 89.211395 
L 242.105152 88.008725 
L 242.468921 88.008725 
L 242.514465 87.206945 
L 242.649129 87.206945 
L 242.649129 86.806055 
L 242.792826 86.806055 
L 242.792826 86.405165 
L 243.141047 86.405165 
L 243.141047 86.004275 
L 243.321432 86.004275 
L 243.321432 85.603385 
L 243.439445 85.603385 
L 243.457833 84.801605 
L 243.588161 84.801605 
L 243.615668 83.999825 
L 243.948836 83.999825 
L 243.948836 83.598935 
L 244.155072 83.598935 
L 244.21364 82.797155 
L 244.42171 82.797155 
L 244.485626 81.594485 
L 244.90763 81.594485 
L 245.010522 80.391815 
L 245.191533 80.391815 
L 245.275877 79.590035 
L 245.395547 79.590035 
L 245.395547 79.189145 
L 245.542515 79.189145 
L 245.542515 78.788255 
L 245.765542 78.788255 
L 245.844161 77.585585 
L 245.93258 77.585585 
L 246.019641 76.783805 
L 246.1108 76.783805 
L 246.1108 76.382915 
L 246.549093 76.382915 
L 246.636362 74.779355 
L 246.866137 74.779355 
L 246.974049 73.977575 
L 247.140446 73.977575 
L 247.140446 73.576685 
L 247.291003 73.576685 
L 247.382733 72.774905 
L 247.604887 72.774905 
L 247.708731 71.572235 
L 247.844668 71.572235 
L 247.899349 70.770455 
L 248.124643 70.770455 
L 248.229389 69.968675 
L 248.251131 69.968675 
L 248.274933 69.166895 
L 248.391281 69.166895 
L 248.413807 68.365115 
L 248.974625 68.365115 
L 249.082432 67.563335 
L 249.111109 67.563335 
L 249.191311 66.761555 
L 249.247302 66.761555 
L 249.348629 65.959775 
L 249.475213 65.959775 
L 249.475213 65.558885 
L 249.702095 65.558885 
L 249.702095 65.157995 
L 249.916071 65.157995 
L 249.989212 64.356215 
L 250.18271 64.356215 
L 250.18271 63.955325 
L 251.038534 63.955325 
L 251.126164 63.153545 
L 251.397346 63.153545 
L 251.397346 62.752655 
L 251.592336 62.752655 
L 251.592336 62.351765 
L 251.780641 62.351765 
L 251.872174 61.549985 
L 252.138812 61.549985 
L 252.246968 59.946425 
L 252.418126 59.946425 
L 252.418126 59.545535 
L 252.534811 59.545535 
L 252.534811 59.144645 
L 252.702028 59.144645 
L 252.702028 58.743755 
L 252.815253 58.743755 
L 252.815253 58.342865 
L 253.040096 58.342865 
L 253.040096 57.941975 
L 253.306735 57.941975 
L 253.306735 57.541085 
L 253.487655 57.541085 
L 253.53893 56.739305 
L 253.736743 56.739305 
L 253.822833 55.937525 
L 253.872094 55.937525 
L 253.872094 55.536635 
L 254.107215 55.536635 
L 254.107215 55.135745 
L 254.321295 55.135745 
L 254.391117 53.933075 
L 254.457765 53.933075 
L 254.457765 53.532185 
L 254.587933 53.532185 
L 254.587933 53.131295 
L 254.904666 53.131295 
L 254.904666 52.730405 
L 255.095735 52.730405 
L 255.095735 52.329515 
L 255.398441 52.329515 
L 255.398441 51.928625 
L 255.645786 51.928625 
L 255.645786 51.527735 
L 255.761626 51.527735 
L 255.860696 50.725955 
L 255.929689 50.725955 
L 255.929689 50.325065 
L 256.185864 50.325065 
L 256.185864 49.924175 
L 256.29711 49.924175 
L 256.387697 48.721505 
L 256.671599 48.721505 
L 256.671599 48.320615 
L 256.882431 48.320615 
L 256.887163 47.518835 
L 257.450715 47.518835 
L 257.450715 47.117945 
L 257.636294 47.117945 
L 257.677402 46.316165 
L 258.179125 46.316165 
L 258.179125 45.915275 
L 258.463028 45.915275 
L 258.463028 45.514385 
L 258.843266 45.514385 
L 258.929027 44.712605 
L 258.989286 44.712605 
L 258.989286 44.311715 
L 259.475639 44.311715 
L 259.475639 43.910825 
L 259.682121 43.910825 
L 259.731197 43.109045 
L 260.011188 43.109045 
L 260.011188 42.708155 
L 260.135228 42.708155 
L 260.211264 41.906375 
L 260.41913 41.906375 
L 260.41913 41.505485 
L 261.15891 41.505485 
L 261.15891 41.104595 
L 261.292386 41.104595 
L 261.30315 40.302815 
L 261.466604 40.302815 
L 261.522625 39.100145 
L 261.587053 39.100145 
L 261.587053 38.699255 
L 262.397279 38.699255 
L 262.397279 38.298365 
L 262.584348 38.298365 
L 262.585844 37.496585 
L 262.868251 37.496585 
L 262.908936 36.694805 
L 263.478728 36.694805 
L 263.478728 36.293915 
L 264.029741 36.293915 
L 264.029741 35.893025 
L 264.236623 35.893025 
L 264.236623 35.492135 
L 264.598026 35.492135 
L 264.64665 34.690355 
L 265.44259 34.690355 
L 265.44259 34.289465 
L 265.927849 34.289465 
L 265.927849 33.888575 
L 266.136597 33.888575 
L 266.136597 33.487685 
L 266.369625 33.487685 
L 266.369625 33.086795 
L 266.878508 33.086795 
L 266.878508 32.685905 
L 268.669405 32.685905 
L 268.669936 31.884125 
L 269.548153 31.884125 
L 269.548153 31.483235 
L 269.790209 31.483235 
L 269.790209 31.082345 
L 270.358494 31.082345 
L 270.358494 30.681455 
L 270.626038 30.681455 
L 270.626038 30.280565 
L 271.793961 30.280565 
L 271.897065 29.478785 
L 272.638976 29.478785 
L 272.638976 29.077895 
L 273.075159 29.077895 
L 273.075159 28.677005 
L 274.309138 28.677005 
L 274.396124 27.875225 
L 274.430404 27.875225 
L 274.430404 27.474335 
L 274.974383 27.474335 
L 274.974383 27.073445 
L 276.386507 27.073445 
L 276.386507 26.672555 
L 277.554429 26.672555 
L 277.554429 26.271665 
L 278.679805 26.271665 
L 278.679805 25.870775 
L 278.835628 25.870775 
L 278.835628 25.469885 
L 281.90662 25.469885 
L 281.90662 25.068995 
L 283.027424 25.068995 
L 283.027424 24.668105 
L 283.595709 24.668105 
L 283.595709 24.267215 
L 284.460528 24.267215 
L 284.460528 23.866325 
L 285.13428 23.866325 
L 285.13428 23.465435 
L 285.876191 23.465435 
L 285.876191 23.064545 
L 286.827035 23.064545 
L 286.827035 22.663655 
L 287.667619 22.663655 
L 287.667619 22.262765 
L 289.623722 22.262765 
L 289.623722 21.861875 
L 290.791644 21.861875 
L 290.791644 21.460985 
L 291.056341 21.460985 
L 291.056341 21.060095 
L 292.072842 21.060095 
L 292.072842 20.659205 
L 293.128562 20.659205 
L 293.128562 20.258315 
L 296.66619 20.258315 
L 296.66619 19.857425 
L 298.73841 19.857425 
L 298.73841 19.456535 
L 304.690553 19.456535 
L 304.690553 19.055645 
L 306.762773 19.055645 
L 306.762773 18.654755 
L 317.178765 18.654755 
L 317.178765 18.253865 
L 319.250985 18.253865 
L 319.250985 17.852975 
L 453.192 17.852975 
L 453.192 17.852975 
" clip-path="url(#p927c914bd7)" style="fill: none; stroke: #00bfbf; stroke-width: 3; stroke-linecap: square"/>
   </g>
   <g id="line2d_64">
    <path clip-path="url(#p927c914bd7)" style="fill: none; stroke: #00bfbf; stroke-width: 3; stroke-linecap: square"/>
   </g>
   <g id="line2d_65">
    <path d="M 34.16 157.233838 
L 219.884291 157.233838 
L 219.884291 156.560915 
L 226.971695 156.560915 
L 226.971695 155.887993 
L 228.170666 155.887993 
L 228.170666 155.21507 
L 230.284675 155.21507 
L 230.284675 154.542148 
L 230.577204 154.542148 
L 230.577204 153.869225 
L 231.199045 153.869225 
L 231.199045 153.196303 
L 232.472535 153.196303 
L 232.472535 152.52338 
L 233.159847 152.52338 
L 233.159847 151.850458 
L 233.514739 151.850458 
L 233.514739 151.177535 
L 235.518078 151.177535 
L 235.518078 150.504613 
L 238.61977 150.504613 
L 238.61977 149.83169 
L 239.422856 149.83169 
L 239.469184 148.485845 
L 239.559938 148.485845 
L 239.559938 147.812923 
L 240.602143 147.812923 
L 240.602143 147.14 
L 240.758909 147.14 
L 240.758909 146.467077 
L 241.072205 146.467077 
L 241.072205 145.794155 
L 241.772745 145.794155 
L 241.801114 144.44831 
L 241.983167 144.44831 
L 241.983167 143.775387 
L 242.209393 143.775387 
L 242.252816 142.429542 
L 242.872919 142.429542 
L 242.91211 141.083697 
L 243.035359 141.083697 
L 243.123852 139.737852 
L 243.165448 139.737852 
L 243.165448 139.06493 
L 243.461102 139.06493 
L 243.461102 138.392007 
L 243.787289 138.392007 
L 243.787289 137.719085 
L 243.915123 137.719085 
L 243.915123 137.046162 
L 244.207652 137.046162 
L 244.207652 136.37324 
L 244.829493 136.37324 
L 244.829493 135.700317 
L 245.256768 135.700317 
L 245.256768 135.027395 
L 245.400584 135.027395 
L 245.400584 134.354472 
L 245.707174 134.354472 
L 245.74809 133.008627 
L 246.51026 133.008627 
L 246.51026 132.335705 
L 246.790294 132.335705 
L 246.839193 130.98986 
L 246.906145 130.98986 
L 246.906145 130.316937 
L 247.709231 130.316937 
L 247.709231 129.644015 
L 248.106321 129.644015 
L 248.106321 128.971092 
L 248.262801 128.971092 
L 248.262801 128.29817 
L 248.860149 128.29817 
L 248.88239 126.952325 
L 249.020154 126.952325 
L 249.07057 125.60648 
L 249.148526 125.60648 
L 249.148526 124.933557 
L 249.296796 124.933557 
L 249.340219 122.91479 
L 249.82324 122.91479 
L 249.82324 122.241867 
L 249.934524 122.241867 
L 249.999514 120.896022 
L 250.05912 120.896022 
L 250.122762 118.877255 
L 250.211256 118.877255 
L 250.269542 117.53141 
L 250.495767 117.53141 
L 250.53919 116.185565 
L 250.73761 116.185565 
L 250.73761 115.512642 
L 251.198485 115.512642 
L 251.198485 114.83972 
L 251.321734 114.83972 
L 251.410227 113.493875 
L 251.895326 113.493875 
L 251.895326 112.820952 
L 252.057428 112.820952 
L 252.057428 112.14803 
L 252.173129 112.14803 
L 252.173129 111.475107 
L 252.344172 111.475107 
L 252.383551 110.129262 
L 252.465658 110.129262 
L 252.465658 109.45634 
L 252.609777 109.45634 
L 252.698412 106.76465 
L 252.902306 106.76465 
L 252.945729 105.418805 
L 253.087499 105.418805 
L 253.099632 104.07296 
L 253.297921 104.07296 
L 253.312494 102.727115 
L 253.435743 102.727115 
L 253.543143 100.035425 
L 253.56757 100.035425 
L 253.660448 98.016657 
L 253.728272 98.016657 
L 253.816765 96.670812 
L 253.926597 96.670812 
L 253.926597 95.99789 
L 254.226864 95.99789 
L 254.253557 94.652045 
L 254.350113 94.652045 
L 254.438606 93.3062 
L 254.591994 93.3062 
L 254.702653 91.960355 
L 254.987148 91.960355 
L 255.056643 89.941587 
L 255.125568 89.941587 
L 255.125568 89.268665 
L 255.258722 89.268665 
L 255.258722 88.595742 
L 255.484948 88.595742 
L 255.528371 87.249897 
L 255.657152 87.249897 
L 255.657152 86.576975 
L 255.949681 86.576975 
L 256.049345 84.558207 
L 256.187666 84.558207 
L 256.187666 83.885285 
L 256.310914 83.885285 
L 256.399408 82.53944 
L 256.571522 82.53944 
L 256.571522 81.866517 
L 257.09155 81.866517 
L 257.168765 80.520672 
L 257.239577 80.520672 
L 257.239577 79.84775 
L 257.406532 79.84775 
L 257.406532 79.174827 
L 257.532106 79.174827 
L 257.616954 77.828982 
L 257.843179 77.828982 
L 257.886602 76.483137 
L 257.988827 76.483137 
L 257.988827 75.810215 
L 258.153947 75.810215 
L 258.204663 74.46437 
L 258.532324 74.46437 
L 258.545897 73.118525 
L 258.669146 73.118525 
L 258.757639 71.77268 
L 259.007749 71.77268 
L 259.031032 70.426835 
L 259.282774 70.426835 
L 259.282774 69.753912 
L 259.575303 69.753912 
L 259.575303 69.08099 
L 259.807684 69.08099 
L 259.807684 68.408067 
L 260.114749 68.408067 
L 260.197144 67.062222 
L 260.61077 67.062222 
L 260.61077 66.3893 
L 260.851044 66.3893 
L 260.890555 65.043455 
L 261.357638 65.043455 
L 261.357638 64.370532 
L 261.56806 64.370532 
L 261.56806 63.69761 
L 261.794286 63.69761 
L 261.893249 61.678842 
L 262.157945 61.678842 
L 262.196581 60.332997 
L 262.47298 60.332997 
L 262.497003 58.987152 
L 262.620252 58.987152 
L 262.708745 57.641307 
L 262.960659 57.641307 
L 262.999667 56.295462 
L 263.171081 56.295462 
L 263.171081 55.62254 
L 263.397306 55.62254 
L 263.440729 54.276695 
L 264.100024 54.276695 
L 264.136063 52.93085 
L 264.223273 52.93085 
L 264.311766 51.585005 
L 264.516177 51.585005 
L 264.516177 50.912082 
L 264.841661 50.912082 
L 264.939149 49.566237 
L 265.349556 49.566237 
L 265.349556 48.893315 
L 265.559977 48.893315 
L 265.559977 48.220392 
L 265.786203 48.220392 
L 265.829626 46.874547 
L 266.424086 46.874547 
L 266.488921 44.85578 
L 266.61217 44.85578 
L 266.700663 43.509935 
L 266.99828 43.509935 
L 266.99828 42.837012 
L 267.180237 42.837012 
L 267.289038 41.491167 
L 267.49946 41.491167 
L 267.575392 40.145322 
L 267.725685 40.145322 
L 267.801366 38.126555 
L 268.027107 38.126555 
L 268.027107 37.453632 
L 268.222442 37.453632 
L 268.222442 36.78071 
L 268.428403 36.78071 
L 268.467283 35.434865 
L 268.551652 35.434865 
L 268.640145 33.416097 
L 268.833579 33.416097 
L 268.833579 32.743175 
L 270.070304 32.743175 
L 270.151255 31.39733 
L 270.361676 31.39733 
L 270.416004 30.051485 
L 270.587902 30.051485 
L 270.631325 28.70564 
L 270.773061 28.70564 
L 270.773061 28.032717 
L 271.29062 28.032717 
L 271.29062 27.359795 
L 271.413868 27.359795 
L 271.502362 26.01395 
L 272.355486 26.01395 
L 272.459201 24.668105 
L 273.327473 24.668105 
L 273.327473 23.995182 
L 273.635278 23.995182 
L 273.722627 22.649337 
L 274.130559 22.649337 
L 274.130559 21.976415 
L 274.398683 21.976415 
L 274.398683 21.303492 
L 274.525713 21.303492 
L 274.525713 20.63057 
L 275.217703 20.63057 
L 275.217703 19.957647 
L 276.480448 19.957647 
L 276.480448 19.284725 
L 276.690869 19.284725 
L 276.690869 18.611802 
L 276.875602 18.611802 
L 276.960518 16.593035 
L 277.086024 16.593035 
L 277.086024 15.920112 
L 277.260899 15.920112 
L 277.355673 13.901345 
L 277.619813 13.901345 
L 277.619813 13.228422 
L 277.743061 13.228422 
L 277.831555 11.882577 
L 278.014967 11.882577 
L 278.014967 11.209655 
L 278.138216 11.209655 
L 278.226709 9.86381 
L 279.964471 9.86381 
L 279.964471 9.190887 
L 280.359625 9.190887 
L 280.359625 8.517965 
L 281.546896 8.517965 
L 281.546896 7.845042 
L 281.94205 7.845042 
L 281.94205 7.17212 
L 283.590092 7.17212 
L 283.590092 6.499197 
L 283.985247 6.499197 
L 283.985247 5.826275 
L 453.192 5.826275 
L 453.192 5.826275 
" clip-path="url(#p927c914bd7)" style="fill: none; stroke: #bf00bf; stroke-width: 3; stroke-linecap: square"/>
   </g>
   <g id="line2d_66">
    <path clip-path="url(#p927c914bd7)" style="fill: none; stroke: #bf00bf; stroke-width: 3; stroke-linecap: square"/>
   </g>
   <g id="line2d_67">
    <path d="M 34.690468 5.826275 
L 34.16 5.826275 
L 453.192 5.826275 
L 461.8 5.826275 
" clip-path="url(#p927c914bd7)" style="fill: none; stroke: #ff0000; stroke-width: 3; stroke-linecap: square"/>
   </g>
   <g id="line2d_68">
    <path d="M 243.676 291.28 
L 243.676 3 
" clip-path="url(#p927c914bd7)" style="fill: none; stroke: #000000; stroke-width: 1.5; stroke-linecap: square"/>
   </g>
   <g id="line2d_69">
    <path d="M 34.16 147.14 
L 453.192 147.14 
" clip-path="url(#p927c914bd7)" style="fill: none; stroke-dasharray: 2,3.3; stroke-dashoffset: 0; stroke: #000000; stroke-width: 2"/>
   </g>
   <g id="patch_3">
    <path d="M 34.16 291.28 
L 34.16 3 
" style="fill: none; stroke: #000000; stroke-width: 0.8; stroke-linejoin: miter; stroke-linecap: square"/>
   </g>
   <g id="patch_4">
    <path d="M 453.192 291.28 
L 453.192 3 
" style="fill: none; stroke: #000000; stroke-width: 0.8; stroke-linejoin: miter; stroke-linecap: square"/>
   </g>
   <g id="patch_5">
    <path d="M 34.16 291.28 
L 453.192 291.28 
" style="fill: none; stroke: #000000; stroke-width: 0.8; stroke-linejoin: miter; stroke-linecap: square"/>
   </g>
   <g id="patch_6">
    <path d="M 34.16 3 
L 453.192 3 
" style="fill: none; stroke: #000000; stroke-width: 0.8; stroke-linejoin: miter; stroke-linecap: square"/>
   </g>
   <g id="text_5">
    <!-- f10-f14,5-D -->
    <g transform="translate(330.91761 285.5144)scale(0.2 -0.2)">
     <defs>
      <path id="DejaVuSans-34" d="M 2419 4116 
L 825 1625 
L 2419 1625 
L 2419 4116 
z
M 2253 4666 
L 3047 4666 
L 3047 1625 
L 3713 1625 
L 3713 1100 
L 3047 1100 
L 3047 0 
L 2419 0 
L 2419 1100 
L 313 1100 
L 313 1709 
L 2253 4666 
z
" transform="scale(0.015625)"/>
      <path id="DejaVuSans-2c" d="M 750 794 
L 1409 794 
L 1409 256 
L 897 -744 
L 494 -744 
L 750 256 
L 750 794 
z
" transform="scale(0.015625)"/>
      <path id="DejaVuSans-35" d="M 691 4666 
L 3169 4666 
L 3169 4134 
L 1269 4134 
L 1269 2991 
Q 1406 3038 1543 3061 
Q 1681 3084 1819 3084 
Q 2600 3084 3056 2656 
Q 3513 2228 3513 1497 
Q 3513 744 3044 326 
Q 2575 -91 1722 -91 
Q 1428 -91 1123 -41 
Q 819 9 494 109 
L 494 744 
Q 775 591 1075 516 
Q 1375 441 1709 441 
Q 2250 441 2565 725 
Q 2881 1009 2881 1497 
Q 2881 1984 2565 2268 
Q 2250 2553 1709 2553 
Q 1456 2553 1204 2497 
Q 953 2441 691 2322 
L 691 4666 
z
" transform="scale(0.015625)"/>
      <path id="DejaVuSans-44" d="M 1259 4147 
L 1259 519 
L 2022 519 
Q 2988 519 3436 956 
Q 3884 1394 3884 2338 
Q 3884 3275 3436 3711 
Q 2988 4147 2022 4147 
L 1259 4147 
z
M 628 4666 
L 1925 4666 
Q 3281 4666 3915 4102 
Q 4550 3538 4550 2338 
Q 4550 1131 3912 565 
Q 3275 0 1925 0 
L 628 0 
L 628 4666 
z
" transform="scale(0.015625)"/>
     </defs>
     <use xlink:href="#DejaVuSans-66"/>
     <use xlink:href="#DejaVuSans-31" x="35.205078"/>
     <use xlink:href="#DejaVuSans-30" x="98.828125"/>
     <use xlink:href="#DejaVuSans-2d" x="162.451172"/>
     <use xlink:href="#DejaVuSans-66" x="198.535156"/>
     <use xlink:href="#DejaVuSans-31" x="233.740234"/>
     <use xlink:href="#DejaVuSans-34" x="297.363281"/>
     <use xlink:href="#DejaVuSans-2c" x="360.986328"/>
     <use xlink:href="#DejaVuSans-35" x="392.773438"/>
     <use xlink:href="#DejaVuSans-2d" x="456.396484"/>
     <use xlink:href="#DejaVuSans-44" x="492.480469"/>
    </g>
   </g>
   <g id="text_6">
    <!-- v2.6 -->
    <g style="fill: #808080" transform="translate(232.765062 286.317512)scale(0.1 -0.1)">
     <defs>
      <path id="DejaVuSans-32" d="M 1228 531 
L 3431 531 
L 3431 0 
L 469 0 
L 469 531 
Q 828 903 1448 1529 
Q 2069 2156 2228 2338 
Q 2531 2678 2651 2914 
Q 2772 3150 2772 3378 
Q 2772 3750 2511 3984 
Q 2250 4219 1831 4219 
Q 1534 4219 1204 4116 
Q 875 4013 500 3803 
L 500 4441 
Q 881 4594 1212 4672 
Q 1544 4750 1819 4750 
Q 2544 4750 2975 4387 
Q 3406 4025 3406 3419 
Q 3406 3131 3298 2873 
Q 3191 2616 2906 2266 
Q 2828 2175 2409 1742 
Q 1991 1309 1228 531 
z
" transform="scale(0.015625)"/>
      <path id="DejaVuSans-2e" d="M 684 794 
L 1344 794 
L 1344 0 
L 684 0 
L 684 794 
z
" transform="scale(0.015625)"/>
      <path id="DejaVuSans-36" d="M 2113 2584 
Q 1688 2584 1439 2293 
Q 1191 2003 1191 1497 
Q 1191 994 1439 701 
Q 1688 409 2113 409 
Q 2538 409 2786 701 
Q 3034 994 3034 1497 
Q 3034 2003 2786 2293 
Q 2538 2584 2113 2584 
z
M 3366 4563 
L 3366 3988 
Q 3128 4100 2886 4159 
Q 2644 4219 2406 4219 
Q 1781 4219 1451 3797 
Q 1122 3375 1075 2522 
Q 1259 2794 1537 2939 
Q 1816 3084 2150 3084 
Q 2853 3084 3261 2657 
Q 3669 2231 3669 1497 
Q 3669 778 3244 343 
Q 2819 -91 2113 -91 
Q 1303 -91 875 529 
Q 447 1150 447 2328 
Q 447 3434 972 4092 
Q 1497 4750 2381 4750 
Q 2619 4750 2861 4703 
Q 3103 4656 3366 4563 
z
" transform="scale(0.015625)"/>
     </defs>
     <use xlink:href="#DejaVuSans-76"/>
     <use xlink:href="#DejaVuSans-32" x="59.179688"/>
     <use xlink:href="#DejaVuSans-2e" x="122.802734"/>
     <use xlink:href="#DejaVuSans-36" x="154.589844"/>
    </g>
   </g>
   <g id="legend_1">
    <g id="patch_7">
     <path d="M 48.16 136.425 
L 177.381875 136.425 
Q 181.381875 136.425 181.381875 132.425 
L 181.381875 17 
Q 181.381875 13 177.381875 13 
L 48.16 13 
Q 44.16 13 44.16 17 
L 44.16 132.425 
Q 44.16 136.425 48.16 136.425 
z
" style="fill: #ffffff; opacity: 0.2; stroke: #cccccc; stroke-linejoin: miter"/>
    </g>
    <g id="line2d_70">
     <path d="M 52.16 29.196875 
L 72.16 29.196875 
L 92.16 29.196875 
" style="fill: none; stroke: #000000; stroke-width: 3; stroke-linecap: square"/>
    </g>
    <g id="text_7">
     <!-- 1: 5/5 -->
     <g transform="translate(108.16 36.196875)scale(0.2 -0.2)">
      <defs>
       <path id="DejaVuSans-3a" d="M 750 794 
L 1409 794 
L 1409 0 
L 750 0 
L 750 794 
z
M 750 3309 
L 1409 3309 
L 1409 2516 
L 750 2516 
L 750 3309 
z
" transform="scale(0.015625)"/>
       <path id="DejaVuSans-2f" d="M 1625 4666 
L 2156 4666 
L 531 -594 
L 0 -594 
L 1625 4666 
z
" transform="scale(0.015625)"/>
      </defs>
      <use xlink:href="#DejaVuSans-31"/>
      <use xlink:href="#DejaVuSans-3a" x="63.623047"/>
      <use xlink:href="#DejaVuSans-20" x="97.314453"/>
      <use xlink:href="#DejaVuSans-35" x="129.101562"/>
      <use xlink:href="#DejaVuSans-2f" x="192.724609"/>
      <use xlink:href="#DejaVuSans-35" x="226.416016"/>
     </g>
    </g>
    <g id="line2d_71">
     <path d="M 52.16 58.553125 
L 72.16 58.553125 
L 92.16 58.553125 
" style="fill: none; stroke: #00bfbf; stroke-width: 3; stroke-linecap: square"/>
    </g>
    <g id="text_8">
     <!-- -1: 5/4 -->
     <g transform="translate(108.16 65.553125)scale(0.2 -0.2)">
      <use xlink:href="#DejaVuSans-2d"/>
      <use xlink:href="#DejaVuSans-31" x="36.083984"/>
      <use xlink:href="#DejaVuSans-3a" x="99.707031"/>
      <use xlink:href="#DejaVuSans-20" x="133.398438"/>
      <use xlink:href="#DejaVuSans-35" x="165.185547"/>
      <use xlink:href="#DejaVuSans-2f" x="228.808594"/>
      <use xlink:href="#DejaVuSans-34" x="262.5"/>
     </g>
    </g>
    <g id="line2d_72">
     <path d="M 52.16 87.909375 
L 72.16 87.909375 
L 92.16 87.909375 
" style="fill: none; stroke: #bf00bf; stroke-width: 3; stroke-linecap: square"/>
    </g>
    <g id="text_9">
     <!-- -4: 3/1 -->
     <g transform="translate(108.16 94.909375)scale(0.2 -0.2)">
      <defs>
       <path id="DejaVuSans-33" d="M 2597 2516 
Q 3050 2419 3304 2112 
Q 3559 1806 3559 1356 
Q 3559 666 3084 287 
Q 2609 -91 1734 -91 
Q 1441 -91 1130 -33 
Q 819 25 488 141 
L 488 750 
Q 750 597 1062 519 
Q 1375 441 1716 441 
Q 2309 441 2620 675 
Q 2931 909 2931 1356 
Q 2931 1769 2642 2001 
Q 2353 2234 1838 2234 
L 1294 2234 
L 1294 2753 
L 1863 2753 
Q 2328 2753 2575 2939 
Q 2822 3125 2822 3475 
Q 2822 3834 2567 4026 
Q 2313 4219 1838 4219 
Q 1578 4219 1281 4162 
Q 984 4106 628 3988 
L 628 4550 
Q 988 4650 1302 4700 
Q 1616 4750 1894 4750 
Q 2613 4750 3031 4423 
Q 3450 4097 3450 3541 
Q 3450 3153 3228 2886 
Q 3006 2619 2597 2516 
z
" transform="scale(0.015625)"/>
      </defs>
      <use xlink:href="#DejaVuSans-2d"/>
      <use xlink:href="#DejaVuSans-34" x="36.083984"/>
      <use xlink:href="#DejaVuSans-3a" x="99.707031"/>
      <use xlink:href="#DejaVuSans-20" x="133.398438"/>
      <use xlink:href="#DejaVuSans-33" x="165.185547"/>
      <use xlink:href="#DejaVuSans-2f" x="228.808594"/>
      <use xlink:href="#DejaVuSans-31" x="262.5"/>
     </g>
    </g>
    <g id="line2d_73">
     <path d="M 52.16 117.265625 
L 72.16 117.265625 
L 92.16 117.265625 
" style="fill: none; stroke: #ff0000; stroke-width: 3; stroke-linecap: square"/>
    </g>
    <g id="text_10">
     <!-- -8: 1/0 -->
     <g transform="translate(108.16 124.265625)scale(0.2 -0.2)">
      <defs>
       <path id="DejaVuSans-38" d="M 2034 2216 
Q 1584 2216 1326 1975 
Q 1069 1734 1069 1313 
Q 1069 891 1326 650 
Q 1584 409 2034 409 
Q 2484 409 2743 651 
Q 3003 894 3003 1313 
Q 3003 1734 2745 1975 
Q 2488 2216 2034 2216 
z
M 1403 2484 
Q 997 2584 770 2862 
Q 544 3141 544 3541 
Q 544 4100 942 4425 
Q 1341 4750 2034 4750 
Q 2731 4750 3128 4425 
Q 3525 4100 3525 3541 
Q 3525 3141 3298 2862 
Q 3072 2584 2669 2484 
Q 3125 2378 3379 2068 
Q 3634 1759 3634 1313 
Q 3634 634 3220 271 
Q 2806 -91 2034 -91 
Q 1263 -91 848 271 
Q 434 634 434 1313 
Q 434 1759 690 2068 
Q 947 2378 1403 2484 
z
M 1172 3481 
Q 1172 3119 1398 2916 
Q 1625 2713 2034 2713 
Q 2441 2713 2670 2916 
Q 2900 3119 2900 3481 
Q 2900 3844 2670 4047 
Q 2441 4250 2034 4250 
Q 1625 4250 1398 4047 
Q 1172 3844 1172 3481 
z
" transform="scale(0.015625)"/>
      </defs>
      <use xlink:href="#DejaVuSans-2d"/>
      <use xlink:href="#DejaVuSans-38" x="36.083984"/>
      <use xlink:href="#DejaVuSans-3a" x="99.707031"/>
      <use xlink:href="#DejaVuSans-20" x="133.398438"/>
      <use xlink:href="#DejaVuSans-31" x="165.185547"/>
      <use xlink:href="#DejaVuSans-2f" x="228.808594"/>
      <use xlink:href="#DejaVuSans-30" x="262.5"/>
     </g>
    </g>
   </g>
  </g>
 </g>
 <defs>
  <clipPath id="p927c914bd7">
   <rect x="34.16" y="3" width="419.032" height="288.28"/>
  </clipPath>
 </defs>
</svg>
