<?xml version="1.0" encoding="utf-8" standalone="no"?>
<!DOCTYPE svg PUBLIC "-//W3C//DTD SVG 1.1//EN"
  "http://www.w3.org/Graphics/SVG/1.1/DTD/svg11.dtd">
<svg xmlns:xlink="http://www.w3.org/1999/xlink" width="460.8pt" height="345.6pt" viewBox="0 0 460.8 345.6" xmlns="http://www.w3.org/2000/svg" version="1.1">
 <metadata>
  <rdf:RDF xmlns:dc="http://purl.org/dc/elements/1.1/" xmlns:cc="http://creativecommons.org/ns#" xmlns:rdf="http://www.w3.org/1999/02/22-rdf-syntax-ns#">
   <cc:Work>
    <dc:type rdf:resource="http://purl.org/dc/dcmitype/StillImage"/>
    <dc:date>2024-05-29T08:05:13.857942</dc:date>
    <dc:format>image/svg+xml</dc:format>
    <dc:creator>
     <cc:Agent>
      <dc:title>Matplotlib v3.5.1, https://matplotlib.org/</dc:title>
     </cc:Agent>
    </dc:creator>
   </cc:Work>
  </rdf:RDF>
 </metadata>
 <defs>
  <style type="text/css">*{stroke-linejoin: round; stroke-linecap: butt}</style>
 </defs>
 <g id="figure_1">
  <g id="patch_1">
   <path d="M 0 345.6 
L 460.8 345.6 
L 460.8 0 
L 0 0 
z
" style="fill: #ffffff"/>
  </g>
  <g id="axes_1">
   <g id="patch_2">
    <path d="M 34.16 291.28 
L 453.192 291.28 
L 453.192 3 
L 34.16 3 
z
" style="fill: #ffffff"/>
   </g>
   <g id="matplotlib.axis_1">
    <g id="xtick_1">
     <g id="line2d_1">
      <path d="M 106.393491 291.28 
L 106.393491 3 
" clip-path="url(#p189080b5f6)" style="fill: none; stroke: #b0b0b0; stroke-width: 0.8; stroke-linecap: square"/>
     </g>
     <g id="line2d_2">
      <defs>
       <path id="meca026cfc3" d="M 0 0 
L 0 3.5 
" style="stroke: #000000; stroke-width: 0.8"/>
      </defs>
      <g>
       <use xlink:href="#meca026cfc3" x="106.393491" y="291.28" style="stroke: #000000; stroke-width: 0.8"/>
      </g>
     </g>
     <g id="text_1">
      <!-- -2 -->
      <g transform="translate(96.423179 313.476875)scale(0.2 -0.2)">
       <defs>
        <path id="DejaVuSans-2d" d="M 313 2009 
L 1997 2009 
L 1997 1497 
L 313 1497 
L 313 2009 
z
" transform="scale(0.015625)"/>
        <path id="DejaVuSans-32" d="M 1228 531 
L 3431 531 
L 3431 0 
L 469 0 
L 469 531 
Q 828 903 1448 1529 
Q 2069 2156 2228 2338 
Q 2531 2678 2651 2914 
Q 2772 3150 2772 3378 
Q 2772 3750 2511 3984 
Q 2250 4219 1831 4219 
Q 1534 4219 1204 4116 
Q 875 4013 500 3803 
L 500 4441 
Q 881 4594 1212 4672 
Q 1544 4750 1819 4750 
Q 2544 4750 2975 4387 
Q 3406 4025 3406 3419 
Q 3406 3131 3298 2873 
Q 3191 2616 2906 2266 
Q 2828 2175 2409 1742 
Q 1991 1309 1228 531 
z
" transform="scale(0.015625)"/>
       </defs>
       <use xlink:href="#DejaVuSans-2d"/>
       <use xlink:href="#DejaVuSans-32" x="36.083984"/>
      </g>
     </g>
    </g>
    <g id="xtick_2">
     <g id="line2d_3">
      <path d="M 243.676 291.28 
L 243.676 3 
" clip-path="url(#p189080b5f6)" style="fill: none; stroke: #b0b0b0; stroke-width: 0.8; stroke-linecap: square"/>
     </g>
     <g id="line2d_4">
      <g>
       <use xlink:href="#meca026cfc3" x="243.676" y="291.28" style="stroke: #000000; stroke-width: 0.8"/>
      </g>
     </g>
     <g id="text_2">
      <!-- 0 -->
      <g transform="translate(237.3135 313.476875)scale(0.2 -0.2)">
       <defs>
        <path id="DejaVuSans-30" d="M 2034 4250 
Q 1547 4250 1301 3770 
Q 1056 3291 1056 2328 
Q 1056 1369 1301 889 
Q 1547 409 2034 409 
Q 2525 409 2770 889 
Q 3016 1369 3016 2328 
Q 3016 3291 2770 3770 
Q 2525 4250 2034 4250 
z
M 2034 4750 
Q 2819 4750 3233 4129 
Q 3647 3509 3647 2328 
Q 3647 1150 3233 529 
Q 2819 -91 2034 -91 
Q 1250 -91 836 529 
Q 422 1150 422 2328 
Q 422 3509 836 4129 
Q 1250 4750 2034 4750 
z
" transform="scale(0.015625)"/>
       </defs>
       <use xlink:href="#DejaVuSans-30"/>
      </g>
     </g>
    </g>
    <g id="xtick_3">
     <g id="line2d_5">
      <path d="M 380.958509 291.28 
L 380.958509 3 
" clip-path="url(#p189080b5f6)" style="fill: none; stroke: #b0b0b0; stroke-width: 0.8; stroke-linecap: square"/>
     </g>
     <g id="line2d_6">
      <g>
       <use xlink:href="#meca026cfc3" x="380.958509" y="291.28" style="stroke: #000000; stroke-width: 0.8"/>
      </g>
     </g>
     <g id="text_3">
      <!-- 2 -->
      <g transform="translate(374.596009 313.476875)scale(0.2 -0.2)">
       <use xlink:href="#DejaVuSans-32"/>
      </g>
     </g>
    </g>
    <g id="text_4">
     <!-- log10 of FEvals ratio -->
     <g transform="translate(141.371312 336.833125)scale(0.2 -0.2)">
      <defs>
       <path id="DejaVuSans-6c" d="M 603 4863 
L 1178 4863 
L 1178 0 
L 603 0 
L 603 4863 
z
" transform="scale(0.015625)"/>
       <path id="DejaVuSans-6f" d="M 1959 3097 
Q 1497 3097 1228 2736 
Q 959 2375 959 1747 
Q 959 1119 1226 758 
Q 1494 397 1959 397 
Q 2419 397 2687 759 
Q 2956 1122 2956 1747 
Q 2956 2369 2687 2733 
Q 2419 3097 1959 3097 
z
M 1959 3584 
Q 2709 3584 3137 3096 
Q 3566 2609 3566 1747 
Q 3566 888 3137 398 
Q 2709 -91 1959 -91 
Q 1206 -91 779 398 
Q 353 888 353 1747 
Q 353 2609 779 3096 
Q 1206 3584 1959 3584 
z
" transform="scale(0.015625)"/>
       <path id="DejaVuSans-67" d="M 2906 1791 
Q 2906 2416 2648 2759 
Q 2391 3103 1925 3103 
Q 1463 3103 1205 2759 
Q 947 2416 947 1791 
Q 947 1169 1205 825 
Q 1463 481 1925 481 
Q 2391 481 2648 825 
Q 2906 1169 2906 1791 
z
M 3481 434 
Q 3481 -459 3084 -895 
Q 2688 -1331 1869 -1331 
Q 1566 -1331 1297 -1286 
Q 1028 -1241 775 -1147 
L 775 -588 
Q 1028 -725 1275 -790 
Q 1522 -856 1778 -856 
Q 2344 -856 2625 -561 
Q 2906 -266 2906 331 
L 2906 616 
Q 2728 306 2450 153 
Q 2172 0 1784 0 
Q 1141 0 747 490 
Q 353 981 353 1791 
Q 353 2603 747 3093 
Q 1141 3584 1784 3584 
Q 2172 3584 2450 3431 
Q 2728 3278 2906 2969 
L 2906 3500 
L 3481 3500 
L 3481 434 
z
" transform="scale(0.015625)"/>
       <path id="DejaVuSans-31" d="M 794 531 
L 1825 531 
L 1825 4091 
L 703 3866 
L 703 4441 
L 1819 4666 
L 2450 4666 
L 2450 531 
L 3481 531 
L 3481 0 
L 794 0 
L 794 531 
z
" transform="scale(0.015625)"/>
       <path id="DejaVuSans-20" transform="scale(0.015625)"/>
       <path id="DejaVuSans-66" d="M 2375 4863 
L 2375 4384 
L 1825 4384 
Q 1516 4384 1395 4259 
Q 1275 4134 1275 3809 
L 1275 3500 
L 2222 3500 
L 2222 3053 
L 1275 3053 
L 1275 0 
L 697 0 
L 697 3053 
L 147 3053 
L 147 3500 
L 697 3500 
L 697 3744 
Q 697 4328 969 4595 
Q 1241 4863 1831 4863 
L 2375 4863 
z
" transform="scale(0.015625)"/>
       <path id="DejaVuSans-46" d="M 628 4666 
L 3309 4666 
L 3309 4134 
L 1259 4134 
L 1259 2759 
L 3109 2759 
L 3109 2228 
L 1259 2228 
L 1259 0 
L 628 0 
L 628 4666 
z
" transform="scale(0.015625)"/>
       <path id="DejaVuSans-45" d="M 628 4666 
L 3578 4666 
L 3578 4134 
L 1259 4134 
L 1259 2753 
L 3481 2753 
L 3481 2222 
L 1259 2222 
L 1259 531 
L 3634 531 
L 3634 0 
L 628 0 
L 628 4666 
z
" transform="scale(0.015625)"/>
       <path id="DejaVuSans-76" d="M 191 3500 
L 800 3500 
L 1894 563 
L 2988 3500 
L 3597 3500 
L 2284 0 
L 1503 0 
L 191 3500 
z
" transform="scale(0.015625)"/>
       <path id="DejaVuSans-61" d="M 2194 1759 
Q 1497 1759 1228 1600 
Q 959 1441 959 1056 
Q 959 750 1161 570 
Q 1363 391 1709 391 
Q 2188 391 2477 730 
Q 2766 1069 2766 1631 
L 2766 1759 
L 2194 1759 
z
M 3341 1997 
L 3341 0 
L 2766 0 
L 2766 531 
Q 2569 213 2275 61 
Q 1981 -91 1556 -91 
Q 1019 -91 701 211 
Q 384 513 384 1019 
Q 384 1609 779 1909 
Q 1175 2209 1959 2209 
L 2766 2209 
L 2766 2266 
Q 2766 2663 2505 2880 
Q 2244 3097 1772 3097 
Q 1472 3097 1187 3025 
Q 903 2953 641 2809 
L 641 3341 
Q 956 3463 1253 3523 
Q 1550 3584 1831 3584 
Q 2591 3584 2966 3190 
Q 3341 2797 3341 1997 
z
" transform="scale(0.015625)"/>
       <path id="DejaVuSans-73" d="M 2834 3397 
L 2834 2853 
Q 2591 2978 2328 3040 
Q 2066 3103 1784 3103 
Q 1356 3103 1142 2972 
Q 928 2841 928 2578 
Q 928 2378 1081 2264 
Q 1234 2150 1697 2047 
L 1894 2003 
Q 2506 1872 2764 1633 
Q 3022 1394 3022 966 
Q 3022 478 2636 193 
Q 2250 -91 1575 -91 
Q 1294 -91 989 -36 
Q 684 19 347 128 
L 347 722 
Q 666 556 975 473 
Q 1284 391 1588 391 
Q 1994 391 2212 530 
Q 2431 669 2431 922 
Q 2431 1156 2273 1281 
Q 2116 1406 1581 1522 
L 1381 1569 
Q 847 1681 609 1914 
Q 372 2147 372 2553 
Q 372 3047 722 3315 
Q 1072 3584 1716 3584 
Q 2034 3584 2315 3537 
Q 2597 3491 2834 3397 
z
" transform="scale(0.015625)"/>
       <path id="DejaVuSans-72" d="M 2631 2963 
Q 2534 3019 2420 3045 
Q 2306 3072 2169 3072 
Q 1681 3072 1420 2755 
Q 1159 2438 1159 1844 
L 1159 0 
L 581 0 
L 581 3500 
L 1159 3500 
L 1159 2956 
Q 1341 3275 1631 3429 
Q 1922 3584 2338 3584 
Q 2397 3584 2469 3576 
Q 2541 3569 2628 3553 
L 2631 2963 
z
" transform="scale(0.015625)"/>
       <path id="DejaVuSans-74" d="M 1172 4494 
L 1172 3500 
L 2356 3500 
L 2356 3053 
L 1172 3053 
L 1172 1153 
Q 1172 725 1289 603 
Q 1406 481 1766 481 
L 2356 481 
L 2356 0 
L 1766 0 
Q 1100 0 847 248 
Q 594 497 594 1153 
L 594 3053 
L 172 3053 
L 172 3500 
L 594 3500 
L 594 4494 
L 1172 4494 
z
" transform="scale(0.015625)"/>
       <path id="DejaVuSans-69" d="M 603 3500 
L 1178 3500 
L 1178 0 
L 603 0 
L 603 3500 
z
M 603 4863 
L 1178 4863 
L 1178 4134 
L 603 4134 
L 603 4863 
z
" transform="scale(0.015625)"/>
      </defs>
      <use xlink:href="#DejaVuSans-6c"/>
      <use xlink:href="#DejaVuSans-6f" x="27.783203"/>
      <use xlink:href="#DejaVuSans-67" x="88.964844"/>
      <use xlink:href="#DejaVuSans-31" x="152.441406"/>
      <use xlink:href="#DejaVuSans-30" x="216.064453"/>
      <use xlink:href="#DejaVuSans-20" x="279.6875"/>
      <use xlink:href="#DejaVuSans-6f" x="311.474609"/>
      <use xlink:href="#DejaVuSans-66" x="372.65625"/>
      <use xlink:href="#DejaVuSans-20" x="407.861328"/>
      <use xlink:href="#DejaVuSans-46" x="439.648438"/>
      <use xlink:href="#DejaVuSans-45" x="497.167969"/>
      <use xlink:href="#DejaVuSans-76" x="560.351562"/>
      <use xlink:href="#DejaVuSans-61" x="619.53125"/>
      <use xlink:href="#DejaVuSans-6c" x="680.810547"/>
      <use xlink:href="#DejaVuSans-73" x="708.59375"/>
      <use xlink:href="#DejaVuSans-20" x="760.693359"/>
      <use xlink:href="#DejaVuSans-72" x="792.480469"/>
      <use xlink:href="#DejaVuSans-61" x="833.59375"/>
      <use xlink:href="#DejaVuSans-74" x="894.873047"/>
      <use xlink:href="#DejaVuSans-69" x="934.082031"/>
      <use xlink:href="#DejaVuSans-6f" x="961.865234"/>
     </g>
    </g>
   </g>
   <g id="matplotlib.axis_2">
    <g id="ytick_1">
     <g id="line2d_7">
      <path d="M 34.16 288.453725 
L 453.192 288.453725 
" clip-path="url(#p189080b5f6)" style="fill: none; stroke: #b0b0b0; stroke-width: 0.8; stroke-linecap: square"/>
     </g>
     <g id="line2d_8">
      <defs>
       <path id="m4f53fe16e6" d="M 0 0 
L -3.5 0 
" style="stroke: #000000; stroke-width: 0.8"/>
      </defs>
      <g>
       <use xlink:href="#m4f53fe16e6" x="34.16" y="288.453725" style="stroke: #000000; stroke-width: 0.8"/>
      </g>
     </g>
    </g>
    <g id="ytick_2">
     <g id="line2d_9">
      <path d="M 34.16 217.796863 
L 453.192 217.796863 
" clip-path="url(#p189080b5f6)" style="fill: none; stroke: #b0b0b0; stroke-width: 0.8; stroke-linecap: square"/>
     </g>
     <g id="line2d_10">
      <g>
       <use xlink:href="#m4f53fe16e6" x="34.16" y="217.796863" style="stroke: #000000; stroke-width: 0.8"/>
      </g>
     </g>
    </g>
    <g id="ytick_3">
     <g id="line2d_11">
      <path d="M 34.16 147.14 
L 453.192 147.14 
" clip-path="url(#p189080b5f6)" style="fill: none; stroke: #b0b0b0; stroke-width: 0.8; stroke-linecap: square"/>
     </g>
     <g id="line2d_12">
      <g>
       <use xlink:href="#m4f53fe16e6" x="34.16" y="147.14" style="stroke: #000000; stroke-width: 0.8"/>
      </g>
     </g>
    </g>
    <g id="ytick_4">
     <g id="line2d_13">
      <path d="M 34.16 76.483137 
L 453.192 76.483137 
" clip-path="url(#p189080b5f6)" style="fill: none; stroke: #b0b0b0; stroke-width: 0.8; stroke-linecap: square"/>
     </g>
     <g id="line2d_14">
      <g>
       <use xlink:href="#m4f53fe16e6" x="34.16" y="76.483137" style="stroke: #000000; stroke-width: 0.8"/>
      </g>
     </g>
    </g>
    <g id="ytick_5">
     <g id="line2d_15">
      <path d="M 34.16 5.826275 
L 453.192 5.826275 
" clip-path="url(#p189080b5f6)" style="fill: none; stroke: #b0b0b0; stroke-width: 0.8; stroke-linecap: square"/>
     </g>
     <g id="line2d_16">
      <g>
       <use xlink:href="#m4f53fe16e6" x="34.16" y="5.826275" style="stroke: #000000; stroke-width: 0.8"/>
      </g>
     </g>
    </g>
    <g id="text_5">
     <!-- proportion of trials -->
     <g transform="translate(19.000625 240.14625)rotate(-90)scale(0.2 -0.2)">
      <defs>
       <path id="DejaVuSans-70" d="M 1159 525 
L 1159 -1331 
L 581 -1331 
L 581 3500 
L 1159 3500 
L 1159 2969 
Q 1341 3281 1617 3432 
Q 1894 3584 2278 3584 
Q 2916 3584 3314 3078 
Q 3713 2572 3713 1747 
Q 3713 922 3314 415 
Q 2916 -91 2278 -91 
Q 1894 -91 1617 61 
Q 1341 213 1159 525 
z
M 3116 1747 
Q 3116 2381 2855 2742 
Q 2594 3103 2138 3103 
Q 1681 3103 1420 2742 
Q 1159 2381 1159 1747 
Q 1159 1113 1420 752 
Q 1681 391 2138 391 
Q 2594 391 2855 752 
Q 3116 1113 3116 1747 
z
" transform="scale(0.015625)"/>
       <path id="DejaVuSans-6e" d="M 3513 2113 
L 3513 0 
L 2938 0 
L 2938 2094 
Q 2938 2591 2744 2837 
Q 2550 3084 2163 3084 
Q 1697 3084 1428 2787 
Q 1159 2491 1159 1978 
L 1159 0 
L 581 0 
L 581 3500 
L 1159 3500 
L 1159 2956 
Q 1366 3272 1645 3428 
Q 1925 3584 2291 3584 
Q 2894 3584 3203 3211 
Q 3513 2838 3513 2113 
z
" transform="scale(0.015625)"/>
      </defs>
      <use xlink:href="#DejaVuSans-70"/>
      <use xlink:href="#DejaVuSans-72" x="63.476562"/>
      <use xlink:href="#DejaVuSans-6f" x="102.339844"/>
      <use xlink:href="#DejaVuSans-70" x="163.521484"/>
      <use xlink:href="#DejaVuSans-6f" x="226.998047"/>
      <use xlink:href="#DejaVuSans-72" x="288.179688"/>
      <use xlink:href="#DejaVuSans-74" x="329.292969"/>
      <use xlink:href="#DejaVuSans-69" x="368.501953"/>
      <use xlink:href="#DejaVuSans-6f" x="396.285156"/>
      <use xlink:href="#DejaVuSans-6e" x="457.466797"/>
      <use xlink:href="#DejaVuSans-20" x="520.845703"/>
      <use xlink:href="#DejaVuSans-6f" x="552.632812"/>
      <use xlink:href="#DejaVuSans-66" x="613.814453"/>
      <use xlink:href="#DejaVuSans-20" x="649.019531"/>
      <use xlink:href="#DejaVuSans-74" x="680.806641"/>
      <use xlink:href="#DejaVuSans-72" x="720.015625"/>
      <use xlink:href="#DejaVuSans-69" x="761.128906"/>
      <use xlink:href="#DejaVuSans-61" x="788.912109"/>
      <use xlink:href="#DejaVuSans-6c" x="850.191406"/>
      <use xlink:href="#DejaVuSans-73" x="877.974609"/>
     </g>
    </g>
   </g>
   <g id="line2d_17">
    <path d="M 34.16 288.453725 
L 94.09961 288.453725 
L 94.09961 288.139695 
L 111.529504 288.139695 
L 111.529504 287.825664 
L 132.403934 287.825664 
L 132.403934 287.511634 
L 133.280217 287.511634 
L 133.280217 287.197603 
L 136.140043 287.197603 
L 136.140043 286.883573 
L 137.281059 286.883573 
L 137.281059 286.569542 
L 141.105299 286.569542 
L 141.105299 286.255512 
L 141.766087 286.255512 
L 141.86906 285.31342 
L 142.024189 285.31342 
L 142.024189 284.99939 
L 143.079538 284.99939 
L 143.079538 284.685359 
L 143.419428 284.685359 
L 143.419428 284.371329 
L 144.117957 284.371329 
L 144.117957 284.057298 
L 147.388101 284.057298 
L 147.388101 283.743268 
L 148.099815 283.743268 
L 148.099815 283.429237 
L 152.917209 283.429237 
L 152.992016 282.487146 
L 153.293135 282.487146 
L 153.368892 281.859085 
L 154.565546 281.859085 
L 154.565546 281.545054 
L 157.937506 281.545054 
L 157.937506 281.231024 
L 158.778809 281.231024 
L 158.778809 280.916993 
L 162.909556 280.916993 
L 162.909556 280.602963 
L 163.494825 280.602963 
L 163.494825 280.288932 
L 167.83661 280.288932 
L 167.83661 279.974902 
L 173.506497 279.974902 
L 173.506497 279.660871 
L 176.812593 279.660871 
L 176.812593 279.346841 
L 177.319804 279.346841 
L 177.319804 279.03281 
L 181.029633 279.03281 
L 181.029633 278.71878 
L 182.989692 278.71878 
L 182.989692 278.404749 
L 183.49287 278.404749 
L 183.49287 278.090719 
L 185.442662 278.090719 
L 185.442662 277.776688 
L 186.69952 277.776688 
L 186.69952 277.462658 
L 190.861269 277.462658 
L 190.861269 277.148627 
L 194.306755 277.148627 
L 194.306755 276.834597 
L 194.558503 276.834597 
L 194.558503 276.520566 
L 194.925857 276.520566 
L 194.925857 276.206536 
L 197.30867 276.206536 
L 197.30867 275.892505 
L 198.635686 275.892505 
L 198.635686 275.578475 
L 200.22839 275.578475 
L 200.22839 275.264444 
L 200.344463 275.264444 
L 200.344463 274.950414 
L 200.922764 274.950414 
L 200.922764 274.636383 
L 201.03556 274.636383 
L 201.03556 274.322353 
L 203.057735 274.322353 
L 203.057735 274.008322 
L 203.789949 274.008322 
L 203.813551 273.380261 
L 204.054292 273.380261 
L 204.054292 273.066231 
L 205.750406 273.066231 
L 205.750406 272.7522 
L 206.791865 272.7522 
L 206.791865 272.43817 
L 207.131986 272.43817 
L 207.131986 272.124139 
L 207.499778 272.124139 
L 207.499778 271.810109 
L 210.501694 271.810109 
L 210.518754 271.182048 
L 212.164556 271.182048 
L 212.231076 270.553987 
L 212.54093 270.553987 
L 212.54093 270.239956 
L 214.077855 270.239956 
L 214.077855 269.925926 
L 214.228583 269.925926 
L 214.228583 269.611895 
L 215.2336 269.611895 
L 215.2336 269.297865 
L 216.250759 269.297865 
L 216.250759 268.983834 
L 217.583162 268.983834 
L 217.583162 268.669804 
L 218.943429 268.669804 
L 218.943429 268.355773 
L 219.209991 268.355773 
L 219.262877 267.727712 
L 219.637505 267.727712 
L 219.637505 267.413682 
L 219.930418 267.413682 
L 219.930418 267.099651 
L 220.068616 267.099651 
L 220.068616 266.785621 
L 220.463463 266.785621 
L 220.519445 266.15756 
L 220.776364 266.15756 
L 220.853149 264.901438 
L 220.966634 264.901438 
L 221.028648 264.273377 
L 221.128409 264.273377 
L 221.128409 263.959346 
L 221.292354 263.959346 
L 221.292354 263.645316 
L 221.455402 263.645316 
L 221.455402 263.331285 
L 221.774909 263.331285 
L 221.774909 263.017255 
L 221.992543 263.017255 
L 221.992543 262.703224 
L 222.32934 262.703224 
L 222.415394 262.075163 
L 222.676662 262.075163 
L 222.676662 261.761133 
L 223.205623 261.761133 
L 223.205623 261.447102 
L 223.345434 261.447102 
L 223.396262 260.819041 
L 224.030564 260.819041 
L 224.11219 260.19098 
L 224.203122 260.19098 
L 224.294332 259.562919 
L 224.56188 259.562919 
L 224.631178 258.934858 
L 224.879878 258.934858 
L 224.917929 258.306797 
L 225.008861 258.306797 
L 225.100071 257.678736 
L 225.312776 257.678736 
L 225.403708 256.736645 
L 225.436917 256.736645 
L 225.533303 255.480523 
L 225.5509 255.480523 
L 225.647103 254.852462 
L 225.665172 254.852462 
L 225.738035 253.91037 
L 225.793394 253.91037 
L 225.887746 252.340218 
L 225.977722 252.340218 
L 226.068654 251.712157 
L 226.141667 251.712157 
L 226.232599 249.827974 
L 226.304715 249.827974 
L 226.395647 248.885882 
L 226.470911 248.885882 
L 226.49671 247.943791 
L 226.618258 247.943791 
L 226.674319 247.001699 
L 226.823702 247.001699 
L 226.932788 245.431547 
L 227.017909 245.431547 
L 227.023998 244.803486 
L 227.200085 244.803486 
L 227.264707 243.861394 
L 227.337229 243.861394 
L 227.446849 242.291242 
L 227.468738 242.291242 
L 227.530704 241.34915 
L 227.616907 241.34915 
L 227.708117 240.093028 
L 227.747083 240.093028 
L 227.857697 238.522876 
L 228.044963 238.522876 
L 228.142967 237.580784 
L 228.194747 237.580784 
L 228.285679 236.324662 
L 228.336506 236.324662 
L 228.427717 234.75451 
L 228.537814 234.75451 
L 228.631782 233.812418 
L 228.713734 233.812418 
L 228.817689 232.870327 
L 228.872141 232.870327 
L 228.941835 231.928235 
L 229.078958 231.928235 
L 229.1207 231.300174 
L 229.202761 231.300174 
L 229.292571 230.358083 
L 229.364687 230.358083 
L 229.395543 229.415991 
L 229.529753 229.415991 
L 229.625955 228.4739 
L 229.747729 228.4739 
L 229.798557 227.531808 
L 230.066894 227.531808 
L 230.066894 227.217778 
L 230.259558 227.217778 
L 230.345554 225.961656 
L 230.489745 225.961656 
L 230.489745 225.647625 
L 230.606022 225.647625 
L 230.712592 225.019564 
L 230.751014 225.019564 
L 230.751014 224.705534 
L 231.030704 224.705534 
L 231.119408 224.077473 
L 231.375734 224.077473 
L 231.470613 222.19329 
L 231.514255 222.19329 
L 231.588875 220.937168 
L 231.64444 220.937168 
L 231.691493 219.681046 
L 231.794466 219.681046 
L 231.903941 218.738954 
L 231.906309 218.738954 
L 231.986558 217.796863 
L 232.017543 217.796863 
L 232.128363 217.168802 
L 232.179202 217.168802 
L 232.276841 215.91268 
L 232.343146 215.91268 
L 232.357078 214.970588 
L 232.458372 214.970588 
L 232.506194 213.714466 
L 232.57632 213.714466 
L 232.632302 213.086405 
L 232.782592 213.086405 
L 232.830529 211.830283 
L 232.893825 211.830283 
L 233.004645 210.260131 
L 233.004944 210.260131 
L 233.043335 209.318039 
L 233.162816 209.318039 
L 233.241266 208.375948 
L 233.282778 208.375948 
L 233.334654 207.433856 
L 233.405211 207.433856 
L 233.466186 206.805795 
L 233.557663 206.805795 
L 233.66105 205.235643 
L 233.677625 205.235643 
L 233.733608 203.979521 
L 233.89199 203.979521 
L 233.969387 203.037429 
L 234.003856 203.037429 
L 234.1054 201.467277 
L 234.121663 201.467277 
L 234.22261 199.897124 
L 234.313847 199.897124 
L 234.396226 198.641002 
L 234.447054 198.641002 
L 234.549602 196.442789 
L 234.587137 196.442789 
L 234.692609 195.500697 
L 234.786609 195.500697 
L 234.880139 194.244575 
L 234.92084 194.244575 
L 234.950554 193.616514 
L 235.086743 193.616514 
L 235.196101 192.046362 
L 235.206705 192.046362 
L 235.206705 191.732331 
L 235.360045 191.732331 
L 235.458291 191.10427 
L 235.509119 191.10427 
L 235.523093 190.162179 
L 235.629556 190.162179 
L 235.650743 189.534118 
L 235.765411 189.534118 
L 235.770863 188.906057 
L 235.890825 188.906057 
L 235.890825 188.592026 
L 236.060234 188.592026 
L 236.073594 187.963965 
L 236.334862 187.963965 
L 236.439634 187.335904 
L 236.483086 187.335904 
L 236.559596 186.393813 
L 236.610424 186.393813 
L 236.610424 186.079782 
L 236.744354 186.079782 
L 236.816043 185.137691 
L 237.003634 185.137691 
L 237.054461 184.50963 
L 237.127622 184.50963 
L 237.127622 184.195599 
L 237.413125 184.195599 
L 237.493075 183.253508 
L 237.66905 183.253508 
L 237.66905 182.939477 
L 238.396529 182.939477 
L 238.396529 182.625447 
L 238.731115 182.625447 
L 238.731115 182.311416 
L 239.204803 182.311416 
L 239.204803 181.997386 
L 239.413956 181.997386 
L 239.413956 181.683355 
L 239.712458 181.683355 
L 239.712458 181.369325 
L 239.83242 181.369325 
L 239.83242 181.055294 
L 240.074745 181.055294 
L 240.177718 179.485142 
L 240.276458 179.485142 
L 240.332847 178.857081 
L 240.443692 178.857081 
L 240.518499 177.914989 
L 240.607673 177.914989 
L 240.685949 177.286928 
L 240.718907 177.286928 
L 240.829727 174.774684 
L 240.837451 174.774684 
L 240.895375 173.518562 
L 241.020812 173.518562 
L 241.050138 172.576471 
L 241.159736 172.576471 
L 241.268462 171.634379 
L 241.371435 171.634379 
L 241.388196 170.378257 
L 241.482668 170.378257 
L 241.593488 168.180044 
L 241.637797 168.180044 
L 241.748617 166.923922 
L 241.813899 166.923922 
L 241.923497 165.6678 
L 241.969028 165.6678 
L 242.078626 163.783617 
L 242.14692 163.783617 
L 242.249893 162.527495 
L 242.321974 162.527495 
L 242.426614 161.271373 
L 242.581913 161.271373 
L 242.652594 160.643312 
L 242.693147 160.643312 
L 242.803967 159.70122 
L 242.816538 159.70122 
L 242.917422 158.131068 
L 242.979586 158.131068 
L 243.024378 157.188976 
L 243.11458 157.188976 
L 243.218541 155.932854 
L 243.294298 155.932854 
L 243.366009 154.990763 
L 243.460371 154.990763 
L 243.516727 154.048671 
L 243.573027 154.048671 
L 243.676 151.850458 
L 243.731565 151.850458 
L 243.842385 150.594336 
L 243.934101 150.594336 
L 243.958806 149.652244 
L 244.062796 149.652244 
L 244.172394 149.024183 
L 244.200847 149.024183 
L 244.200847 148.710153 
L 244.49879 148.710153 
L 244.49879 148.396122 
L 244.67946 148.396122 
L 244.67946 148.082092 
L 244.869618 148.082092 
L 244.920446 147.14 
L 244.989451 147.14 
L 244.989451 146.825969 
L 245.248606 146.825969 
L 245.248606 146.511939 
L 245.680136 146.511939 
L 245.717878 145.883878 
L 245.924897 145.883878 
L 246.027869 145.255817 
L 246.359399 145.255817 
L 246.359399 144.941786 
L 247.330766 144.941786 
L 247.330766 144.627756 
L 247.498257 144.627756 
L 247.498257 144.313725 
L 248.142442 144.313725 
L 248.17207 143.685664 
L 248.682051 143.685664 
L 248.682051 143.371634 
L 248.958435 143.371634 
L 248.958435 143.057603 
L 249.172419 143.057603 
L 249.172419 142.743573 
L 250.313435 142.743573 
L 250.313435 142.429542 
L 251.225867 142.429542 
L 251.300674 141.487451 
L 251.601793 141.487451 
L 251.67755 140.85939 
L 251.913832 140.85939 
L 251.988639 138.975207 
L 252.289758 138.975207 
L 252.365516 137.405054 
L 252.408941 137.405054 
L 252.499241 135.834902 
L 252.530817 135.834902 
L 252.641637 134.264749 
L 252.716444 134.264749 
L 252.79551 133.636688 
L 252.862049 133.636688 
L 252.971646 131.124444 
L 252.9825 131.124444 
L 253.09332 129.868322 
L 253.237974 129.868322 
L 253.347572 128.29817 
L 253.372849 128.29817 
L 253.423329 127.670109 
L 253.586598 127.670109 
L 253.673968 127.042048 
L 253.749725 127.042048 
L 253.749725 126.728017 
L 254.366321 126.728017 
L 254.431116 126.099956 
L 254.517131 126.099956 
L 254.591938 125.157865 
L 254.724149 125.157865 
L 254.827122 123.587712 
L 254.893057 123.587712 
L 254.968814 122.645621 
L 255.100075 122.645621 
L 255.203047 121.703529 
L 255.278805 121.703529 
L 255.278805 121.389499 
L 256.451804 121.389499 
L 256.451804 121.075468 
L 257.123787 121.075468 
L 257.123787 120.761438 
L 260.420477 120.761438 
L 260.420477 120.447407 
L 261.132191 120.447407 
L 261.132191 120.133377 
L 261.982435 120.133377 
L 261.983763 119.505316 
L 262.487305 119.505316 
L 262.487305 119.191285 
L 263.007067 119.191285 
L 263.069792 118.563224 
L 263.815341 118.563224 
L 263.815341 118.249194 
L 264.148083 118.249194 
L 264.148083 117.935163 
L 264.339077 117.935163 
L 264.339077 117.621133 
L 264.956358 117.621133 
L 264.956358 117.307102 
L 265.166753 117.307102 
L 265.166753 116.993072 
L 265.692264 116.993072 
L 265.692264 116.679041 
L 266.737999 116.679041 
L 266.779621 116.05098 
L 267.597922 116.05098 
L 267.597922 115.73695 
L 270.286453 115.73695 
L 270.286453 115.422919 
L 270.83664 115.422919 
L 270.83664 115.108889 
L 270.969882 115.108889 
L 271.010886 114.480828 
L 271.094727 114.480828 
L 271.094727 114.166797 
L 271.811185 114.166797 
L 271.811185 113.852767 
L 272.149745 113.852767 
L 272.149745 113.538736 
L 274.255125 113.538736 
L 274.255125 113.224706 
L 274.966839 113.224706 
L 275.0634 112.596645 
L 275.121251 112.596645 
L 275.121251 112.282614 
L 275.775114 112.282614 
L 275.809217 111.340523 
L 275.941932 111.340523 
L 275.941932 111.026492 
L 276.314968 111.026492 
L 276.314968 110.712462 
L 276.426201 110.712462 
L 276.537021 109.77037 
L 276.757433 109.77037 
L 276.86703 109.142309 
L 277.193426 109.142309 
L 277.193426 108.828279 
L 278.412515 108.828279 
L 278.412515 108.514248 
L 278.619533 108.514248 
L 278.722506 107.886187 
L 279.017808 107.886187 
L 279.017808 107.572157 
L 279.221134 107.572157 
L 279.221134 107.258126 
L 279.413658 107.258126 
L 279.413658 106.944096 
L 280.308491 106.944096 
L 280.308491 106.630065 
L 281.43257 106.630065 
L 281.43257 106.316035 
L 282.240844 106.316035 
L 282.240844 106.002004 
L 282.772805 106.002004 
L 282.772805 105.687974 
L 284.80453 105.687974 
L 284.80453 105.373943 
L 285.612805 105.373943 
L 285.645834 104.745882 
L 286.454108 104.745882 
L 286.454108 104.431852 
L 287.138792 104.431852 
L 287.138792 104.117821 
L 288.191411 104.117821 
L 288.191411 103.803791 
L 289.77658 103.803791 
L 289.77658 103.48976 
L 290.36185 103.48976 
L 290.36185 103.17573 
L 290.584854 103.17573 
L 290.584854 102.861699 
L 291.170124 102.861699 
L 291.170124 102.547669 
L 291.636898 102.547669 
L 291.636898 102.233638 
L 293.206811 102.233638 
L 293.206811 101.919608 
L 294.638813 101.919608 
L 294.638813 101.605577 
L 298.365703 101.605577 
L 298.365703 101.291547 
L 300.387878 101.291547 
L 300.387878 100.977516 
L 301.624336 100.977516 
L 301.624336 100.663486 
L 301.895414 100.663486 
L 301.895414 100.349455 
L 303.080549 100.349455 
L 303.080549 100.035425 
L 303.471115 100.035425 
L 303.471115 99.721394 
L 303.872621 99.721394 
L 303.872621 99.407364 
L 304.024196 99.407364 
L 304.024196 99.093333 
L 304.959979 99.093333 
L 304.959979 98.779303 
L 305.165212 98.779303 
L 305.165212 98.465272 
L 311.303582 98.465272 
L 311.303582 98.151242 
L 315.272254 98.151242 
L 315.272254 97.837211 
L 315.983968 97.837211 
L 315.983968 97.523181 
L 316.114117 97.523181 
L 316.114117 97.20915 
L 316.845927 97.20915 
L 316.845927 96.89512 
L 316.967648 96.89512 
L 316.967648 96.581089 
L 318.106506 96.581089 
L 318.106506 96.267059 
L 319.325309 96.267059 
L 319.325309 95.953028 
L 322.449699 95.953028 
L 322.449699 95.638998 
L 324.97457 95.638998 
L 324.97457 95.324967 
L 325.263452 95.324967 
L 325.263452 95.010937 
L 325.821659 95.010937 
L 325.821659 94.696906 
L 326.662963 94.696906 
L 326.662963 94.382876 
L 327.110231 94.382876 
L 327.110231 94.068845 
L 330.680575 94.068845 
L 330.680575 93.754815 
L 330.793709 93.754815 
L 330.793709 93.440784 
L 331.378979 93.440784 
L 331.48885 92.812723 
L 333.095554 92.812723 
L 333.095554 92.498693 
L 333.544012 92.498693 
L 333.544012 92.184662 
L 339.0981 92.184662 
L 339.0981 91.870632 
L 339.906375 91.870632 
L 339.906375 91.556601 
L 340.944879 91.556601 
L 340.944879 91.242571 
L 341.753154 91.242571 
L 341.753154 90.92854 
L 343.935847 90.92854 
L 343.935847 90.61451 
L 345.076863 90.61451 
L 345.076863 90.300479 
L 349.829383 90.300479 
L 349.829383 89.986449 
L 350.916741 89.986449 
L 350.916741 89.672418 
L 351.215233 89.672418 
L 351.215233 89.358388 
L 355.183905 89.358388 
L 355.183905 89.044357 
L 355.895619 89.044357 
L 355.895619 88.730327 
L 358.15455 88.730327 
L 358.15455 88.416296 
L 359.295566 88.416296 
L 359.295566 88.102266 
L 362.36135 88.102266 
L 362.36135 87.788235 
L 365.433936 87.788235 
L 365.433936 87.474205 
L 365.73331 87.474205 
L 365.73331 87.160174 
L 366.574614 87.160174 
L 366.574614 86.846144 
L 369.402608 86.846144 
L 369.402608 86.532113 
L 370.114322 86.532113 
L 370.114322 86.218083 
L 370.70536 86.218083 
L 370.70536 85.904052 
L 371.29063 85.904052 
L 371.29063 85.590022 
L 371.697704 85.590022 
L 371.697704 85.275991 
L 376.580053 85.275991 
L 376.580053 84.961961 
L 379.952013 84.961961 
L 379.952013 84.64793 
L 380.115229 84.64793 
L 380.115229 84.3339 
L 380.793317 84.3339 
L 380.793317 84.019869 
L 381.962008 84.019869 
L 381.962008 83.705839 
L 384.924063 83.705839 
L 384.924063 83.391808 
L 385.509333 83.391808 
L 385.509333 83.077778 
L 411.609355 83.077778 
L 411.609355 82.763747 
L 420.02688 82.763747 
L 420.02688 82.449717 
L 421.873659 82.449717 
L 421.873659 82.135686 
L 425.828058 82.135686 
L 425.828058 81.821656 
L 434.245583 81.821656 
L 434.245583 81.507625 
L 436.092362 81.507625 
L 436.092362 81.193595 
L 453.192 81.193595 
L 453.192 81.193595 
" clip-path="url(#p189080b5f6)" style="fill: none; stroke: #000000; stroke-width: 3; stroke-linecap: square"/>
   </g>
   <g id="line2d_18">
    <path clip-path="url(#p189080b5f6)" style="fill: none; stroke: #000000; stroke-width: 3; stroke-linecap: square"/>
   </g>
   <g id="line2d_19">
    <path d="M 34.531461 5.826275 
L 34.16 5.826275 
L 453.192 5.826275 
L 461.8 5.826275 
" clip-path="url(#p189080b5f6)" style="fill: none; stroke: #00bfbf; stroke-width: 3; stroke-linecap: square"/>
   </g>
   <g id="line2d_20"/>
   <g id="line2d_21"/>
   <g id="line2d_22">
    <path d="M 243.676 291.28 
L 243.676 3 
" clip-path="url(#p189080b5f6)" style="fill: none; stroke: #000000; stroke-width: 1.5; stroke-linecap: square"/>
   </g>
   <g id="line2d_23">
    <path d="M 34.16 147.14 
L 453.192 147.14 
" clip-path="url(#p189080b5f6)" style="fill: none; stroke-dasharray: 2,3.3; stroke-dashoffset: 0; stroke: #000000; stroke-width: 2"/>
   </g>
   <g id="patch_3">
    <path d="M 34.16 291.28 
L 34.16 3 
" style="fill: none; stroke: #000000; stroke-width: 0.8; stroke-linejoin: miter; stroke-linecap: square"/>
   </g>
   <g id="patch_4">
    <path d="M 453.192 291.28 
L 453.192 3 
" style="fill: none; stroke: #000000; stroke-width: 0.8; stroke-linejoin: miter; stroke-linecap: square"/>
   </g>
   <g id="patch_5">
    <path d="M 34.16 291.28 
L 453.192 291.28 
" style="fill: none; stroke: #000000; stroke-width: 0.8; stroke-linejoin: miter; stroke-linecap: square"/>
   </g>
   <g id="patch_6">
    <path d="M 34.16 3 
L 453.192 3 
" style="fill: none; stroke: #000000; stroke-width: 0.8; stroke-linejoin: miter; stroke-linecap: square"/>
   </g>
   <g id="text_6">
    <!-- f15-f19,20-D -->
    <g transform="translate(318.19261 285.5144)scale(0.2 -0.2)">
     <defs>
      <path id="DejaVuSans-35" d="M 691 4666 
L 3169 4666 
L 3169 4134 
L 1269 4134 
L 1269 2991 
Q 1406 3038 1543 3061 
Q 1681 3084 1819 3084 
Q 2600 3084 3056 2656 
Q 3513 2228 3513 1497 
Q 3513 744 3044 326 
Q 2575 -91 1722 -91 
Q 1428 -91 1123 -41 
Q 819 9 494 109 
L 494 744 
Q 775 591 1075 516 
Q 1375 441 1709 441 
Q 2250 441 2565 725 
Q 2881 1009 2881 1497 
Q 2881 1984 2565 2268 
Q 2250 2553 1709 2553 
Q 1456 2553 1204 2497 
Q 953 2441 691 2322 
L 691 4666 
z
" transform="scale(0.015625)"/>
      <path id="DejaVuSans-39" d="M 703 97 
L 703 672 
Q 941 559 1184 500 
Q 1428 441 1663 441 
Q 2288 441 2617 861 
Q 2947 1281 2994 2138 
Q 2813 1869 2534 1725 
Q 2256 1581 1919 1581 
Q 1219 1581 811 2004 
Q 403 2428 403 3163 
Q 403 3881 828 4315 
Q 1253 4750 1959 4750 
Q 2769 4750 3195 4129 
Q 3622 3509 3622 2328 
Q 3622 1225 3098 567 
Q 2575 -91 1691 -91 
Q 1453 -91 1209 -44 
Q 966 3 703 97 
z
M 1959 2075 
Q 2384 2075 2632 2365 
Q 2881 2656 2881 3163 
Q 2881 3666 2632 3958 
Q 2384 4250 1959 4250 
Q 1534 4250 1286 3958 
Q 1038 3666 1038 3163 
Q 1038 2656 1286 2365 
Q 1534 2075 1959 2075 
z
" transform="scale(0.015625)"/>
      <path id="DejaVuSans-2c" d="M 750 794 
L 1409 794 
L 1409 256 
L 897 -744 
L 494 -744 
L 750 256 
L 750 794 
z
" transform="scale(0.015625)"/>
      <path id="DejaVuSans-44" d="M 1259 4147 
L 1259 519 
L 2022 519 
Q 2988 519 3436 956 
Q 3884 1394 3884 2338 
Q 3884 3275 3436 3711 
Q 2988 4147 2022 4147 
L 1259 4147 
z
M 628 4666 
L 1925 4666 
Q 3281 4666 3915 4102 
Q 4550 3538 4550 2338 
Q 4550 1131 3912 565 
Q 3275 0 1925 0 
L 628 0 
L 628 4666 
z
" transform="scale(0.015625)"/>
     </defs>
     <use xlink:href="#DejaVuSans-66"/>
     <use xlink:href="#DejaVuSans-31" x="35.205078"/>
     <use xlink:href="#DejaVuSans-35" x="98.828125"/>
     <use xlink:href="#DejaVuSans-2d" x="162.451172"/>
     <use xlink:href="#DejaVuSans-66" x="198.535156"/>
     <use xlink:href="#DejaVuSans-31" x="233.740234"/>
     <use xlink:href="#DejaVuSans-39" x="297.363281"/>
     <use xlink:href="#DejaVuSans-2c" x="360.986328"/>
     <use xlink:href="#DejaVuSans-32" x="392.773438"/>
     <use xlink:href="#DejaVuSans-30" x="456.396484"/>
     <use xlink:href="#DejaVuSans-2d" x="520.019531"/>
     <use xlink:href="#DejaVuSans-44" x="556.103516"/>
    </g>
   </g>
   <g id="text_7">
    <!-- v2.6 -->
    <g style="fill: #808080" transform="translate(232.765062 286.317512)scale(0.1 -0.1)">
     <defs>
      <path id="DejaVuSans-2e" d="M 684 794 
L 1344 794 
L 1344 0 
L 684 0 
L 684 794 
z
" transform="scale(0.015625)"/>
      <path id="DejaVuSans-36" d="M 2113 2584 
Q 1688 2584 1439 2293 
Q 1191 2003 1191 1497 
Q 1191 994 1439 701 
Q 1688 409 2113 409 
Q 2538 409 2786 701 
Q 3034 994 3034 1497 
Q 3034 2003 2786 2293 
Q 2538 2584 2113 2584 
z
M 3366 4563 
L 3366 3988 
Q 3128 4100 2886 4159 
Q 2644 4219 2406 4219 
Q 1781 4219 1451 3797 
Q 1122 3375 1075 2522 
Q 1259 2794 1537 2939 
Q 1816 3084 2150 3084 
Q 2853 3084 3261 2657 
Q 3669 2231 3669 1497 
Q 3669 778 3244 343 
Q 2819 -91 2113 -91 
Q 1303 -91 875 529 
Q 447 1150 447 2328 
Q 447 3434 972 4092 
Q 1497 4750 2381 4750 
Q 2619 4750 2861 4703 
Q 3103 4656 3366 4563 
z
" transform="scale(0.015625)"/>
     </defs>
     <use xlink:href="#DejaVuSans-76"/>
     <use xlink:href="#DejaVuSans-32" x="59.179688"/>
     <use xlink:href="#DejaVuSans-2e" x="122.802734"/>
     <use xlink:href="#DejaVuSans-36" x="154.589844"/>
    </g>
   </g>
   <g id="legend_1">
    <g id="patch_7">
     <path d="M 48.16 136.425 
L 177.381875 136.425 
Q 181.381875 136.425 181.381875 132.425 
L 181.381875 17 
Q 181.381875 13 177.381875 13 
L 48.16 13 
Q 44.16 13 44.16 17 
L 44.16 132.425 
Q 44.16 136.425 48.16 136.425 
z
" style="fill: #ffffff; opacity: 0.2; stroke: #cccccc; stroke-linejoin: miter"/>
    </g>
    <g id="line2d_24">
     <path d="M 52.16 29.196875 
L 72.16 29.196875 
L 92.16 29.196875 
" style="fill: none; stroke: #000000; stroke-width: 3; stroke-linecap: square"/>
    </g>
    <g id="text_8">
     <!-- 1: 4/4 -->
     <g transform="translate(108.16 36.196875)scale(0.2 -0.2)">
      <defs>
       <path id="DejaVuSans-3a" d="M 750 794 
L 1409 794 
L 1409 0 
L 750 0 
L 750 794 
z
M 750 3309 
L 1409 3309 
L 1409 2516 
L 750 2516 
L 750 3309 
z
" transform="scale(0.015625)"/>
       <path id="DejaVuSans-34" d="M 2419 4116 
L 825 1625 
L 2419 1625 
L 2419 4116 
z
M 2253 4666 
L 3047 4666 
L 3047 1625 
L 3713 1625 
L 3713 1100 
L 3047 1100 
L 3047 0 
L 2419 0 
L 2419 1100 
L 313 1100 
L 313 1709 
L 2253 4666 
z
" transform="scale(0.015625)"/>
       <path id="DejaVuSans-2f" d="M 1625 4666 
L 2156 4666 
L 531 -594 
L 0 -594 
L 1625 4666 
z
" transform="scale(0.015625)"/>
      </defs>
      <use xlink:href="#DejaVuSans-31"/>
      <use xlink:href="#DejaVuSans-3a" x="63.623047"/>
      <use xlink:href="#DejaVuSans-20" x="97.314453"/>
      <use xlink:href="#DejaVuSans-34" x="129.101562"/>
      <use xlink:href="#DejaVuSans-2f" x="192.724609"/>
      <use xlink:href="#DejaVuSans-34" x="226.416016"/>
     </g>
    </g>
    <g id="line2d_25">
     <path d="M 52.16 58.553125 
L 72.16 58.553125 
L 92.16 58.553125 
" style="fill: none; stroke: #00bfbf; stroke-width: 3; stroke-linecap: square"/>
    </g>
    <g id="text_9">
     <!-- -1: 1/0 -->
     <g transform="translate(108.16 65.553125)scale(0.2 -0.2)">
      <use xlink:href="#DejaVuSans-2d"/>
      <use xlink:href="#DejaVuSans-31" x="36.083984"/>
      <use xlink:href="#DejaVuSans-3a" x="99.707031"/>
      <use xlink:href="#DejaVuSans-20" x="133.398438"/>
      <use xlink:href="#DejaVuSans-31" x="165.185547"/>
      <use xlink:href="#DejaVuSans-2f" x="228.808594"/>
      <use xlink:href="#DejaVuSans-30" x="262.5"/>
     </g>
    </g>
    <g id="line2d_26">
     <path d="M 52.16 87.909375 
L 72.16 87.909375 
L 92.16 87.909375 
" style="fill: none; stroke: #bf00bf; stroke-width: 3; stroke-linecap: square"/>
    </g>
    <g id="text_10">
     <!-- -4: 0/0 -->
     <g transform="translate(108.16 94.909375)scale(0.2 -0.2)">
      <use xlink:href="#DejaVuSans-2d"/>
      <use xlink:href="#DejaVuSans-34" x="36.083984"/>
      <use xlink:href="#DejaVuSans-3a" x="99.707031"/>
      <use xlink:href="#DejaVuSans-20" x="133.398438"/>
      <use xlink:href="#DejaVuSans-30" x="165.185547"/>
      <use xlink:href="#DejaVuSans-2f" x="228.808594"/>
      <use xlink:href="#DejaVuSans-30" x="262.5"/>
     </g>
    </g>
    <g id="line2d_27">
     <path d="M 52.16 117.265625 
L 72.16 117.265625 
L 92.16 117.265625 
" style="fill: none; stroke: #ff0000; stroke-width: 3; stroke-linecap: square"/>
    </g>
    <g id="text_11">
     <!-- -8: 0/0 -->
     <g transform="translate(108.16 124.265625)scale(0.2 -0.2)">
      <defs>
       <path id="DejaVuSans-38" d="M 2034 2216 
Q 1584 2216 1326 1975 
Q 1069 1734 1069 1313 
Q 1069 891 1326 650 
Q 1584 409 2034 409 
Q 2484 409 2743 651 
Q 3003 894 3003 1313 
Q 3003 1734 2745 1975 
Q 2488 2216 2034 2216 
z
M 1403 2484 
Q 997 2584 770 2862 
Q 544 3141 544 3541 
Q 544 4100 942 4425 
Q 1341 4750 2034 4750 
Q 2731 4750 3128 4425 
Q 3525 4100 3525 3541 
Q 3525 3141 3298 2862 
Q 3072 2584 2669 2484 
Q 3125 2378 3379 2068 
Q 3634 1759 3634 1313 
Q 3634 634 3220 271 
Q 2806 -91 2034 -91 
Q 1263 -91 848 271 
Q 434 634 434 1313 
Q 434 1759 690 2068 
Q 947 2378 1403 2484 
z
M 1172 3481 
Q 1172 3119 1398 2916 
Q 1625 2713 2034 2713 
Q 2441 2713 2670 2916 
Q 2900 3119 2900 3481 
Q 2900 3844 2670 4047 
Q 2441 4250 2034 4250 
Q 1625 4250 1398 4047 
Q 1172 3844 1172 3481 
z
" transform="scale(0.015625)"/>
      </defs>
      <use xlink:href="#DejaVuSans-2d"/>
      <use xlink:href="#DejaVuSans-38" x="36.083984"/>
      <use xlink:href="#DejaVuSans-3a" x="99.707031"/>
      <use xlink:href="#DejaVuSans-20" x="133.398438"/>
      <use xlink:href="#DejaVuSans-30" x="165.185547"/>
      <use xlink:href="#DejaVuSans-2f" x="228.808594"/>
      <use xlink:href="#DejaVuSans-30" x="262.5"/>
     </g>
    </g>
   </g>
  </g>
 </g>
 <defs>
  <clipPath id="p189080b5f6">
   <rect x="34.16" y="3" width="419.032" height="288.28"/>
  </clipPath>
 </defs>
</svg>
