<?xml version="1.0" encoding="utf-8" standalone="no"?>
<!DOCTYPE svg PUBLIC "-//W3C//DTD SVG 1.1//EN"
  "http://www.w3.org/Graphics/SVG/1.1/DTD/svg11.dtd">
<svg xmlns:xlink="http://www.w3.org/1999/xlink" width="460.8pt" height="345.6pt" viewBox="0 0 460.8 345.6" xmlns="http://www.w3.org/2000/svg" version="1.1">
 <metadata>
  <rdf:RDF xmlns:dc="http://purl.org/dc/elements/1.1/" xmlns:cc="http://creativecommons.org/ns#" xmlns:rdf="http://www.w3.org/1999/02/22-rdf-syntax-ns#">
   <cc:Work>
    <dc:type rdf:resource="http://purl.org/dc/dcmitype/StillImage"/>
    <dc:date>2024-05-29T08:05:33.225168</dc:date>
    <dc:format>image/svg+xml</dc:format>
    <dc:creator>
     <cc:Agent>
      <dc:title>Matplotlib v3.5.1, https://matplotlib.org/</dc:title>
     </cc:Agent>
    </dc:creator>
   </cc:Work>
  </rdf:RDF>
 </metadata>
 <defs>
  <style type="text/css">*{stroke-linejoin: round; stroke-linecap: butt}</style>
 </defs>
 <g id="figure_1">
  <g id="patch_1">
   <path d="M 0 345.6 
L 460.8 345.6 
L 460.8 0 
L 0 0 
z
" style="fill: #ffffff"/>
  </g>
  <g id="axes_1">
   <g id="patch_2">
    <path d="M 57.6 298.944 
L 360.8064 298.944 
L 360.8064 6.912 
L 57.6 6.912 
z
" style="fill: #ffffff"/>
   </g>
   <g id="line2d_1">
    <path d="M 27.323974 298.944 
L 27.323974 277.184753 
L 40.363149 277.184753 
L 40.363149 273.749082 
L 47.990577 273.749082 
L 47.990577 272.603859 
L 57.6 272.603859 
L 57.6 270.313412 
L 63.929565 270.313412 
L 63.929565 269.168188 
L 75.574654 269.168188 
L 75.574654 268.022965 
L 79.480672 268.022965 
L 79.480672 266.877741 
L 83.678349 266.877741 
L 83.678349 265.732518 
L 87.1081 265.732518 
L 87.1081 264.587294 
L 88.613828 264.587294 
L 88.613828 263.442071 
L 99.346662 263.442071 
L 99.346662 262.296847 
L 102.708132 262.296847 
L 102.708132 261.151624 
L 103.380045 261.151624 
L 103.380045 260.0064 
L 103.707211 260.0064 
L 103.707211 258.861176 
L 114.510421 258.861176 
L 114.510421 257.715953 
L 115.747307 257.715953 
L 115.747307 256.570729 
L 117.384126 256.570729 
L 117.384126 255.425506 
L 121.073351 255.425506 
L 121.073351 254.280282 
L 122.913079 254.280282 
L 122.913079 253.135059 
L 124.156336 253.135059 
L 124.156336 251.989835 
L 125.219419 251.989835 
L 125.219419 250.844612 
L 126.127391 250.844612 
L 126.127391 249.699388 
L 126.420564 249.699388 
L 126.420564 248.554165 
L 128.354013 248.554165 
L 128.354013 247.408941 
L 130.579414 247.408941 
L 130.579414 245.118494 
L 133.918257 245.118494 
L 133.918257 243.973271 
L 135.717106 243.973271 
L 135.717106 242.828047 
L 136.640557 242.828047 
L 136.640557 241.682824 
L 138.206842 241.682824 
L 138.206842 240.5376 
L 138.968547 240.5376 
L 138.968547 239.392376 
L 139.166565 239.392376 
L 139.166565 238.247153 
L 140.58877 238.247153 
L 140.58877 237.101929 
L 142.373399 237.101929 
L 142.373399 235.956706 
L 143.696162 235.956706 
L 143.696162 234.811482 
L 144.639767 234.811482 
L 144.639767 233.666259 
L 145.219746 233.666259 
L 145.219746 232.521035 
L 147.628773 232.521035 
L 147.628773 231.375812 
L 148.03267 231.375812 
L 148.03267 230.230588 
L 149.875833 230.230588 
L 149.875833 229.085365 
L 152.057422 229.085365 
L 152.057422 227.940141 
L 154.101358 227.940141 
L 154.101358 226.794918 
L 155.266666 226.794918 
L 155.266666 225.649694 
L 158.699905 225.649694 
L 158.699905 224.504471 
L 160.383158 224.504471 
L 160.383158 223.359247 
L 160.573496 223.359247 
L 160.573496 222.214024 
L 165.957604 222.214024 
L 165.957604 221.0688 
L 168.821824 221.0688 
L 168.821824 219.923576 
L 170.718116 219.923576 
L 170.718116 218.778353 
L 171.298095 218.778353 
L 171.324847 216.487906 
L 172.53279 216.487906 
L 172.53279 215.342682 
L 174.218295 215.342682 
L 174.218295 214.197459 
L 175.687546 214.197459 
L 175.687546 213.052235 
L 177.043737 213.052235 
L 177.043737 211.907012 
L 177.472768 211.907012 
L 177.472768 210.761788 
L 178.419027 210.761788 
L 178.419027 209.616565 
L 179.412941 209.616565 
L 179.412941 208.471341 
L 179.6663 208.471341 
L 179.6663 207.326118 
L 180.163003 207.326118 
L 180.163003 206.180894 
L 181.386819 206.180894 
L 181.386819 205.035671 
L 181.723072 205.035671 
L 181.723072 203.890447 
L 182.158919 203.890447 
L 182.158919 202.745224 
L 182.526034 202.745224 
L 182.526034 201.6 
L 183.196826 201.6 
L 183.196826 200.454776 
L 183.460455 200.454776 
L 183.46513 198.164329 
L 184.355108 198.164329 
L 184.355108 197.019106 
L 184.800034 197.019106 
L 184.800034 195.873882 
L 185.634537 195.873882 
L 185.634537 194.728659 
L 186.393631 194.728659 
L 186.393631 193.583435 
L 186.761992 193.583435 
L 186.761992 192.438212 
L 187.34133 192.438212 
L 187.34133 191.292988 
L 188.167281 191.292988 
L 188.167281 190.147765 
L 189.828049 190.147765 
L 189.828049 189.002541 
L 189.997239 189.002541 
L 189.997239 187.857318 
L 191.075413 187.857318 
L 191.075413 186.712094 
L 191.616436 186.712094 
L 191.616436 185.566871 
L 192.044841 185.566871 
L 192.044841 184.421647 
L 193.324331 184.421647 
L 193.324331 183.276424 
L 194.454679 183.276424 
L 194.454679 182.1312 
L 194.618135 182.1312 
L 194.708334 179.840753 
L 194.879803 179.840753 
L 194.879803 178.695529 
L 195.006754 178.695529 
L 195.006754 177.550306 
L 195.25312 177.550306 
L 195.25312 176.405082 
L 195.552922 176.405082 
L 195.552922 175.259859 
L 195.73151 175.259859 
L 195.73151 174.114635 
L 195.860116 174.114635 
L 195.860116 172.969412 
L 196.033429 172.969412 
L 196.033429 171.824188 
L 196.231259 171.824188 
L 196.231259 170.678965 
L 196.457509 170.678965 
L 196.506641 168.388518 
L 196.583589 168.388518 
L 196.583589 167.243294 
L 196.720384 167.243294 
L 196.775746 164.952847 
L 196.84013 164.952847 
L 196.84013 163.807624 
L 196.977358 163.807624 
L 196.977358 162.6624 
L 197.152013 162.6624 
L 197.152013 161.517176 
L 197.418784 161.517176 
L 197.418784 160.371953 
L 197.626869 160.371953 
L 197.626869 159.226729 
L 197.900059 159.226729 
L 197.900059 158.081506 
L 198.05133 158.081506 
L 198.05133 156.936282 
L 198.640365 156.936282 
L 198.640365 155.791059 
L 198.839563 155.791059 
L 198.839563 154.645835 
L 199.179109 154.645835 
L 199.239824 152.355388 
L 199.93795 152.355388 
L 199.93795 151.210165 
L 200.096927 151.210165 
L 200.096927 150.064941 
L 200.888931 150.064941 
L 200.918523 147.774494 
L 201.003343 147.774494 
L 201.102429 144.338824 
L 201.184603 144.338824 
L 201.282741 142.048376 
L 201.299048 142.048376 
L 201.299048 140.903153 
L 201.411 140.903153 
L 201.428995 138.612706 
L 201.59909 138.612706 
L 201.59909 137.467482 
L 201.808248 137.467482 
L 201.808248 136.322259 
L 201.988935 136.322259 
L 201.988935 135.177035 
L 202.214538 135.177035 
L 202.214538 134.031812 
L 202.375997 134.031812 
L 202.375997 132.886588 
L 202.554726 132.886588 
L 202.554726 131.741365 
L 202.671259 131.741365 
L 202.770334 128.305694 
L 202.822181 128.305694 
L 202.822181 127.160471 
L 202.98681 127.160471 
L 203.076003 124.870024 
L 203.117154 124.870024 
L 203.223726 122.579576 
L 203.306923 122.579576 
L 203.389754 120.289129 
L 203.448004 120.289129 
L 203.520564 117.998682 
L 203.592845 117.998682 
L 203.684005 115.708235 
L 203.714293 115.708235 
L 203.792181 112.272565 
L 203.866589 112.272565 
L 203.94857 108.836894 
L 204.012958 108.836894 
L 204.109909 105.401224 
L 204.162864 105.401224 
L 204.271423 101.965553 
L 204.277607 101.965553 
L 204.351662 98.529882 
L 204.410083 98.529882 
L 204.437693 96.239435 
L 204.602507 96.239435 
L 204.602507 95.094212 
L 204.73574 95.094212 
L 204.838051 92.803765 
L 204.93533 92.803765 
L 205.043986 90.513318 
L 205.135779 90.513318 
L 205.233004 88.222871 
L 212.6313 88.222871 
L 212.6313 87.077647 
L 212.77059 87.077647 
L 212.877566 84.7872 
L 212.948872 84.7872 
L 213.02088 82.496753 
L 213.110021 82.496753 
L 213.204513 80.206306 
L 213.28896 80.206306 
L 213.380654 76.770635 
L 213.490858 76.770635 
L 213.597594 73.334965 
L 213.62677 73.334965 
L 213.692486 71.044518 
L 213.762642 71.044518 
L 213.836257 68.754071 
L 213.898466 68.754071 
L 213.959545 66.463624 
L 214.013058 66.463624 
L 214.039758 64.173176 
L 214.137943 64.173176 
L 214.220133 61.882729 
L 214.280179 61.882729 
L 214.375313 58.447059 
L 214.442071 58.447059 
L 214.539976 55.011388 
L 214.600797 55.011388 
L 214.673879 52.720941 
L 214.733383 52.720941 
L 214.815667 49.285271 
L 214.860638 49.285271 
L 214.946752 46.994824 
L 215.017632 46.994824 
L 215.10651 43.559153 
L 215.168995 43.559153 
L 215.168995 42.413929 
L 244.792336 42.413929 
L 244.792336 41.268706 
L 247.310434 41.268706 
L 247.409506 34.397365 
L 247.425733 34.397365 
L 247.516597 22.945129 
L 247.539244 22.945129 
L 247.643443 12.638118 
L 247.65531 12.638118 
L 247.702398 6.912 
L 360.8064 6.912 
L 360.8064 6.912 
" style="fill: none; stroke: #f5deb3; stroke-width: 4; stroke-linecap: square"/>
   </g>
   <g id="line2d_2">
    <defs>
     <path id="mf5258e399d" d="M 0 7.778175 
L 7.778175 0 
L 0 -7.778175 
L -7.778175 0 
z
" style="stroke: #f5deb3; stroke-width: 1.5; stroke-linejoin: miter"/>
    </defs>
    <g>
     <use xlink:href="#mf5258e399d" x="88.613828" y="264.587294" style="fill: #f5deb3; stroke: #f5deb3; stroke-width: 1.5; stroke-linejoin: miter"/>
     <use xlink:href="#mf5258e399d" x="187.34133" y="192.438212" style="fill: #f5deb3; stroke: #f5deb3; stroke-width: 1.5; stroke-linejoin: miter"/>
     <use xlink:href="#mf5258e399d" x="205.233004" y="89.368094" style="fill: #f5deb3; stroke: #f5deb3; stroke-width: 1.5; stroke-linejoin: miter"/>
     <use xlink:href="#mf5258e399d" x="247.702398" y="8.057224" style="fill: #f5deb3; stroke: #f5deb3; stroke-width: 1.5; stroke-linejoin: miter"/>
     <use xlink:href="#mf5258e399d" x="247.702398" y="6.912" style="fill: #f5deb3; stroke: #f5deb3; stroke-width: 1.5; stroke-linejoin: miter"/>
     <use xlink:href="#mf5258e399d" x="360.8064" y="6.912" style="fill: #f5deb3; stroke: #f5deb3; stroke-width: 1.5; stroke-linejoin: miter"/>
    </g>
   </g>
   <g id="line2d_3">
    <path style="fill: none; stroke: #f5deb3; stroke-width: 4; stroke-linecap: square"/>
    <g/>
   </g>
   <g id="line2d_4">
    <path d="M 360.8064 6.912 
L 380.514816 12.75264 
" style="fill: none; stroke: #f5deb3; stroke-width: 4; stroke-linecap: square"/>
    <g>
     <use xlink:href="#mf5258e399d" x="360.8064" y="6.912" style="fill: #f5deb3; stroke: #f5deb3; stroke-width: 1.5; stroke-linejoin: miter"/>
     <use xlink:href="#mf5258e399d" x="380.514816" y="12.75264" style="fill: #f5deb3; stroke: #f5deb3; stroke-width: 1.5; stroke-linejoin: miter"/>
    </g>
   </g>
   <g id="matplotlib.axis_1">
    <g id="xtick_1">
     <g id="line2d_5">
      <path d="M 57.6 298.944 
L 57.6 6.912 
" clip-path="url(#p5f3847919f)" style="fill: none; stroke: #b0b0b0; stroke-width: 0.8; stroke-linecap: square"/>
     </g>
     <g id="line2d_6">
      <defs>
       <path id="me8646e9247" d="M 0 0 
L 0 3.5 
" style="stroke: #000000; stroke-width: 0.8"/>
      </defs>
      <g>
       <use xlink:href="#me8646e9247" x="57.6" y="298.944" style="stroke: #000000; stroke-width: 0.8"/>
      </g>
     </g>
     <g id="text_1">
      <!-- 0 -->
      <g transform="translate(52.191875 318.861344)scale(0.17 -0.17)">
       <defs>
        <path id="DejaVuSans-30" d="M 2034 4250 
Q 1547 4250 1301 3770 
Q 1056 3291 1056 2328 
Q 1056 1369 1301 889 
Q 1547 409 2034 409 
Q 2525 409 2770 889 
Q 3016 1369 3016 2328 
Q 3016 3291 2770 3770 
Q 2525 4250 2034 4250 
z
M 2034 4750 
Q 2819 4750 3233 4129 
Q 3647 3509 3647 2328 
Q 3647 1150 3233 529 
Q 2819 -91 2034 -91 
Q 1250 -91 836 529 
Q 422 1150 422 2328 
Q 422 3509 836 4129 
Q 1250 4750 2034 4750 
z
" transform="scale(0.015625)"/>
       </defs>
       <use xlink:href="#DejaVuSans-30"/>
      </g>
     </g>
    </g>
    <g id="xtick_2">
     <g id="line2d_7">
      <path d="M 144.2304 298.944 
L 144.2304 6.912 
" clip-path="url(#p5f3847919f)" style="fill: none; stroke: #b0b0b0; stroke-width: 0.8; stroke-linecap: square"/>
     </g>
     <g id="line2d_8">
      <g>
       <use xlink:href="#me8646e9247" x="144.2304" y="298.944" style="stroke: #000000; stroke-width: 0.8"/>
      </g>
     </g>
     <g id="text_2">
      <!-- 2 -->
      <g transform="translate(138.822275 318.861344)scale(0.17 -0.17)">
       <defs>
        <path id="DejaVuSans-32" d="M 1228 531 
L 3431 531 
L 3431 0 
L 469 0 
L 469 531 
Q 828 903 1448 1529 
Q 2069 2156 2228 2338 
Q 2531 2678 2651 2914 
Q 2772 3150 2772 3378 
Q 2772 3750 2511 3984 
Q 2250 4219 1831 4219 
Q 1534 4219 1204 4116 
Q 875 4013 500 3803 
L 500 4441 
Q 881 4594 1212 4672 
Q 1544 4750 1819 4750 
Q 2544 4750 2975 4387 
Q 3406 4025 3406 3419 
Q 3406 3131 3298 2873 
Q 3191 2616 2906 2266 
Q 2828 2175 2409 1742 
Q 1991 1309 1228 531 
z
" transform="scale(0.015625)"/>
       </defs>
       <use xlink:href="#DejaVuSans-32"/>
      </g>
     </g>
    </g>
    <g id="xtick_3">
     <g id="line2d_9">
      <path d="M 230.8608 298.944 
L 230.8608 6.912 
" clip-path="url(#p5f3847919f)" style="fill: none; stroke: #b0b0b0; stroke-width: 0.8; stroke-linecap: square"/>
     </g>
     <g id="line2d_10">
      <g>
       <use xlink:href="#me8646e9247" x="230.8608" y="298.944" style="stroke: #000000; stroke-width: 0.8"/>
      </g>
     </g>
     <g id="text_3">
      <!-- 4 -->
      <g transform="translate(225.452675 318.861344)scale(0.17 -0.17)">
       <defs>
        <path id="DejaVuSans-34" d="M 2419 4116 
L 825 1625 
L 2419 1625 
L 2419 4116 
z
M 2253 4666 
L 3047 4666 
L 3047 1625 
L 3713 1625 
L 3713 1100 
L 3047 1100 
L 3047 0 
L 2419 0 
L 2419 1100 
L 313 1100 
L 313 1709 
L 2253 4666 
z
" transform="scale(0.015625)"/>
       </defs>
       <use xlink:href="#DejaVuSans-34"/>
      </g>
     </g>
    </g>
    <g id="xtick_4">
     <g id="line2d_11">
      <path d="M 317.4912 298.944 
L 317.4912 6.912 
" clip-path="url(#p5f3847919f)" style="fill: none; stroke: #b0b0b0; stroke-width: 0.8; stroke-linecap: square"/>
     </g>
     <g id="line2d_12">
      <g>
       <use xlink:href="#me8646e9247" x="317.4912" y="298.944" style="stroke: #000000; stroke-width: 0.8"/>
      </g>
     </g>
     <g id="text_4">
      <!-- 6 -->
      <g transform="translate(312.083075 318.861344)scale(0.17 -0.17)">
       <defs>
        <path id="DejaVuSans-36" d="M 2113 2584 
Q 1688 2584 1439 2293 
Q 1191 2003 1191 1497 
Q 1191 994 1439 701 
Q 1688 409 2113 409 
Q 2538 409 2786 701 
Q 3034 994 3034 1497 
Q 3034 2003 2786 2293 
Q 2538 2584 2113 2584 
z
M 3366 4563 
L 3366 3988 
Q 3128 4100 2886 4159 
Q 2644 4219 2406 4219 
Q 1781 4219 1451 3797 
Q 1122 3375 1075 2522 
Q 1259 2794 1537 2939 
Q 1816 3084 2150 3084 
Q 2853 3084 3261 2657 
Q 3669 2231 3669 1497 
Q 3669 778 3244 343 
Q 2819 -91 2113 -91 
Q 1303 -91 875 529 
Q 447 1150 447 2328 
Q 447 3434 972 4092 
Q 1497 4750 2381 4750 
Q 2619 4750 2861 4703 
Q 3103 4656 3366 4563 
z
" transform="scale(0.015625)"/>
       </defs>
       <use xlink:href="#DejaVuSans-36"/>
      </g>
     </g>
    </g>
    <g id="xtick_5">
     <g id="line2d_13">
      <path d="M 100.9152 298.944 
L 100.9152 6.912 
" clip-path="url(#p5f3847919f)" style="fill: none; stroke: #b0b0b0; stroke-width: 0.8; stroke-linecap: square"/>
     </g>
     <g id="line2d_14">
      <defs>
       <path id="m1745e85bfc" d="M 0 0 
L 0 2 
" style="stroke: #000000; stroke-width: 0.6"/>
      </defs>
      <g>
       <use xlink:href="#m1745e85bfc" x="100.9152" y="298.944" style="stroke: #000000; stroke-width: 0.6"/>
      </g>
     </g>
    </g>
    <g id="xtick_6">
     <g id="line2d_15">
      <path d="M 187.5456 298.944 
L 187.5456 6.912 
" clip-path="url(#p5f3847919f)" style="fill: none; stroke: #b0b0b0; stroke-width: 0.8; stroke-linecap: square"/>
     </g>
     <g id="line2d_16">
      <g>
       <use xlink:href="#m1745e85bfc" x="187.5456" y="298.944" style="stroke: #000000; stroke-width: 0.6"/>
      </g>
     </g>
    </g>
    <g id="xtick_7">
     <g id="line2d_17">
      <path d="M 274.176 298.944 
L 274.176 6.912 
" clip-path="url(#p5f3847919f)" style="fill: none; stroke: #b0b0b0; stroke-width: 0.8; stroke-linecap: square"/>
     </g>
     <g id="line2d_18">
      <g>
       <use xlink:href="#m1745e85bfc" x="274.176" y="298.944" style="stroke: #000000; stroke-width: 0.6"/>
      </g>
     </g>
    </g>
    <g id="xtick_8">
     <g id="line2d_19">
      <path d="M 360.8064 298.944 
L 360.8064 6.912 
" clip-path="url(#p5f3847919f)" style="fill: none; stroke: #b0b0b0; stroke-width: 0.8; stroke-linecap: square"/>
     </g>
     <g id="line2d_20">
      <g>
       <use xlink:href="#m1745e85bfc" x="360.8064" y="298.944" style="stroke: #000000; stroke-width: 0.6"/>
      </g>
     </g>
    </g>
    <g id="text_5">
     <!-- log10(# f-evals / dimension) -->
     <g transform="translate(88.823278 339.314156)scale(0.17 -0.17)">
      <defs>
       <path id="DejaVuSans-6c" d="M 603 4863 
L 1178 4863 
L 1178 0 
L 603 0 
L 603 4863 
z
" transform="scale(0.015625)"/>
       <path id="DejaVuSans-6f" d="M 1959 3097 
Q 1497 3097 1228 2736 
Q 959 2375 959 1747 
Q 959 1119 1226 758 
Q 1494 397 1959 397 
Q 2419 397 2687 759 
Q 2956 1122 2956 1747 
Q 2956 2369 2687 2733 
Q 2419 3097 1959 3097 
z
M 1959 3584 
Q 2709 3584 3137 3096 
Q 3566 2609 3566 1747 
Q 3566 888 3137 398 
Q 2709 -91 1959 -91 
Q 1206 -91 779 398 
Q 353 888 353 1747 
Q 353 2609 779 3096 
Q 1206 3584 1959 3584 
z
" transform="scale(0.015625)"/>
       <path id="DejaVuSans-67" d="M 2906 1791 
Q 2906 2416 2648 2759 
Q 2391 3103 1925 3103 
Q 1463 3103 1205 2759 
Q 947 2416 947 1791 
Q 947 1169 1205 825 
Q 1463 481 1925 481 
Q 2391 481 2648 825 
Q 2906 1169 2906 1791 
z
M 3481 434 
Q 3481 -459 3084 -895 
Q 2688 -1331 1869 -1331 
Q 1566 -1331 1297 -1286 
Q 1028 -1241 775 -1147 
L 775 -588 
Q 1028 -725 1275 -790 
Q 1522 -856 1778 -856 
Q 2344 -856 2625 -561 
Q 2906 -266 2906 331 
L 2906 616 
Q 2728 306 2450 153 
Q 2172 0 1784 0 
Q 1141 0 747 490 
Q 353 981 353 1791 
Q 353 2603 747 3093 
Q 1141 3584 1784 3584 
Q 2172 3584 2450 3431 
Q 2728 3278 2906 2969 
L 2906 3500 
L 3481 3500 
L 3481 434 
z
" transform="scale(0.015625)"/>
       <path id="DejaVuSans-31" d="M 794 531 
L 1825 531 
L 1825 4091 
L 703 3866 
L 703 4441 
L 1819 4666 
L 2450 4666 
L 2450 531 
L 3481 531 
L 3481 0 
L 794 0 
L 794 531 
z
" transform="scale(0.015625)"/>
       <path id="DejaVuSans-28" d="M 1984 4856 
Q 1566 4138 1362 3434 
Q 1159 2731 1159 2009 
Q 1159 1288 1364 580 
Q 1569 -128 1984 -844 
L 1484 -844 
Q 1016 -109 783 600 
Q 550 1309 550 2009 
Q 550 2706 781 3412 
Q 1013 4119 1484 4856 
L 1984 4856 
z
" transform="scale(0.015625)"/>
       <path id="DejaVuSans-23" d="M 3272 2816 
L 2363 2816 
L 2100 1772 
L 3016 1772 
L 3272 2816 
z
M 2803 4594 
L 2478 3297 
L 3391 3297 
L 3719 4594 
L 4219 4594 
L 3897 3297 
L 4872 3297 
L 4872 2816 
L 3775 2816 
L 3519 1772 
L 4513 1772 
L 4513 1294 
L 3397 1294 
L 3072 0 
L 2572 0 
L 2894 1294 
L 1978 1294 
L 1656 0 
L 1153 0 
L 1478 1294 
L 494 1294 
L 494 1772 
L 1594 1772 
L 1856 2816 
L 850 2816 
L 850 3297 
L 1978 3297 
L 2297 4594 
L 2803 4594 
z
" transform="scale(0.015625)"/>
       <path id="DejaVuSans-20" transform="scale(0.015625)"/>
       <path id="DejaVuSans-66" d="M 2375 4863 
L 2375 4384 
L 1825 4384 
Q 1516 4384 1395 4259 
Q 1275 4134 1275 3809 
L 1275 3500 
L 2222 3500 
L 2222 3053 
L 1275 3053 
L 1275 0 
L 697 0 
L 697 3053 
L 147 3053 
L 147 3500 
L 697 3500 
L 697 3744 
Q 697 4328 969 4595 
Q 1241 4863 1831 4863 
L 2375 4863 
z
" transform="scale(0.015625)"/>
       <path id="DejaVuSans-2d" d="M 313 2009 
L 1997 2009 
L 1997 1497 
L 313 1497 
L 313 2009 
z
" transform="scale(0.015625)"/>
       <path id="DejaVuSans-65" d="M 3597 1894 
L 3597 1613 
L 953 1613 
Q 991 1019 1311 708 
Q 1631 397 2203 397 
Q 2534 397 2845 478 
Q 3156 559 3463 722 
L 3463 178 
Q 3153 47 2828 -22 
Q 2503 -91 2169 -91 
Q 1331 -91 842 396 
Q 353 884 353 1716 
Q 353 2575 817 3079 
Q 1281 3584 2069 3584 
Q 2775 3584 3186 3129 
Q 3597 2675 3597 1894 
z
M 3022 2063 
Q 3016 2534 2758 2815 
Q 2500 3097 2075 3097 
Q 1594 3097 1305 2825 
Q 1016 2553 972 2059 
L 3022 2063 
z
" transform="scale(0.015625)"/>
       <path id="DejaVuSans-76" d="M 191 3500 
L 800 3500 
L 1894 563 
L 2988 3500 
L 3597 3500 
L 2284 0 
L 1503 0 
L 191 3500 
z
" transform="scale(0.015625)"/>
       <path id="DejaVuSans-61" d="M 2194 1759 
Q 1497 1759 1228 1600 
Q 959 1441 959 1056 
Q 959 750 1161 570 
Q 1363 391 1709 391 
Q 2188 391 2477 730 
Q 2766 1069 2766 1631 
L 2766 1759 
L 2194 1759 
z
M 3341 1997 
L 3341 0 
L 2766 0 
L 2766 531 
Q 2569 213 2275 61 
Q 1981 -91 1556 -91 
Q 1019 -91 701 211 
Q 384 513 384 1019 
Q 384 1609 779 1909 
Q 1175 2209 1959 2209 
L 2766 2209 
L 2766 2266 
Q 2766 2663 2505 2880 
Q 2244 3097 1772 3097 
Q 1472 3097 1187 3025 
Q 903 2953 641 2809 
L 641 3341 
Q 956 3463 1253 3523 
Q 1550 3584 1831 3584 
Q 2591 3584 2966 3190 
Q 3341 2797 3341 1997 
z
" transform="scale(0.015625)"/>
       <path id="DejaVuSans-73" d="M 2834 3397 
L 2834 2853 
Q 2591 2978 2328 3040 
Q 2066 3103 1784 3103 
Q 1356 3103 1142 2972 
Q 928 2841 928 2578 
Q 928 2378 1081 2264 
Q 1234 2150 1697 2047 
L 1894 2003 
Q 2506 1872 2764 1633 
Q 3022 1394 3022 966 
Q 3022 478 2636 193 
Q 2250 -91 1575 -91 
Q 1294 -91 989 -36 
Q 684 19 347 128 
L 347 722 
Q 666 556 975 473 
Q 1284 391 1588 391 
Q 1994 391 2212 530 
Q 2431 669 2431 922 
Q 2431 1156 2273 1281 
Q 2116 1406 1581 1522 
L 1381 1569 
Q 847 1681 609 1914 
Q 372 2147 372 2553 
Q 372 3047 722 3315 
Q 1072 3584 1716 3584 
Q 2034 3584 2315 3537 
Q 2597 3491 2834 3397 
z
" transform="scale(0.015625)"/>
       <path id="DejaVuSans-2f" d="M 1625 4666 
L 2156 4666 
L 531 -594 
L 0 -594 
L 1625 4666 
z
" transform="scale(0.015625)"/>
       <path id="DejaVuSans-64" d="M 2906 2969 
L 2906 4863 
L 3481 4863 
L 3481 0 
L 2906 0 
L 2906 525 
Q 2725 213 2448 61 
Q 2172 -91 1784 -91 
Q 1150 -91 751 415 
Q 353 922 353 1747 
Q 353 2572 751 3078 
Q 1150 3584 1784 3584 
Q 2172 3584 2448 3432 
Q 2725 3281 2906 2969 
z
M 947 1747 
Q 947 1113 1208 752 
Q 1469 391 1925 391 
Q 2381 391 2643 752 
Q 2906 1113 2906 1747 
Q 2906 2381 2643 2742 
Q 2381 3103 1925 3103 
Q 1469 3103 1208 2742 
Q 947 2381 947 1747 
z
" transform="scale(0.015625)"/>
       <path id="DejaVuSans-69" d="M 603 3500 
L 1178 3500 
L 1178 0 
L 603 0 
L 603 3500 
z
M 603 4863 
L 1178 4863 
L 1178 4134 
L 603 4134 
L 603 4863 
z
" transform="scale(0.015625)"/>
       <path id="DejaVuSans-6d" d="M 3328 2828 
Q 3544 3216 3844 3400 
Q 4144 3584 4550 3584 
Q 5097 3584 5394 3201 
Q 5691 2819 5691 2113 
L 5691 0 
L 5113 0 
L 5113 2094 
Q 5113 2597 4934 2840 
Q 4756 3084 4391 3084 
Q 3944 3084 3684 2787 
Q 3425 2491 3425 1978 
L 3425 0 
L 2847 0 
L 2847 2094 
Q 2847 2600 2669 2842 
Q 2491 3084 2119 3084 
Q 1678 3084 1418 2786 
Q 1159 2488 1159 1978 
L 1159 0 
L 581 0 
L 581 3500 
L 1159 3500 
L 1159 2956 
Q 1356 3278 1631 3431 
Q 1906 3584 2284 3584 
Q 2666 3584 2933 3390 
Q 3200 3197 3328 2828 
z
" transform="scale(0.015625)"/>
       <path id="DejaVuSans-6e" d="M 3513 2113 
L 3513 0 
L 2938 0 
L 2938 2094 
Q 2938 2591 2744 2837 
Q 2550 3084 2163 3084 
Q 1697 3084 1428 2787 
Q 1159 2491 1159 1978 
L 1159 0 
L 581 0 
L 581 3500 
L 1159 3500 
L 1159 2956 
Q 1366 3272 1645 3428 
Q 1925 3584 2291 3584 
Q 2894 3584 3203 3211 
Q 3513 2838 3513 2113 
z
" transform="scale(0.015625)"/>
       <path id="DejaVuSans-29" d="M 513 4856 
L 1013 4856 
Q 1481 4119 1714 3412 
Q 1947 2706 1947 2009 
Q 1947 1309 1714 600 
Q 1481 -109 1013 -844 
L 513 -844 
Q 928 -128 1133 580 
Q 1338 1288 1338 2009 
Q 1338 2731 1133 3434 
Q 928 4138 513 4856 
z
" transform="scale(0.015625)"/>
      </defs>
      <use xlink:href="#DejaVuSans-6c"/>
      <use xlink:href="#DejaVuSans-6f" x="27.783203"/>
      <use xlink:href="#DejaVuSans-67" x="88.964844"/>
      <use xlink:href="#DejaVuSans-31" x="152.441406"/>
      <use xlink:href="#DejaVuSans-30" x="216.064453"/>
      <use xlink:href="#DejaVuSans-28" x="279.6875"/>
      <use xlink:href="#DejaVuSans-23" x="318.701172"/>
      <use xlink:href="#DejaVuSans-20" x="402.490234"/>
      <use xlink:href="#DejaVuSans-66" x="434.277344"/>
      <use xlink:href="#DejaVuSans-2d" x="463.982422"/>
      <use xlink:href="#DejaVuSans-65" x="500.066406"/>
      <use xlink:href="#DejaVuSans-76" x="561.589844"/>
      <use xlink:href="#DejaVuSans-61" x="620.769531"/>
      <use xlink:href="#DejaVuSans-6c" x="682.048828"/>
      <use xlink:href="#DejaVuSans-73" x="709.832031"/>
      <use xlink:href="#DejaVuSans-20" x="761.931641"/>
      <use xlink:href="#DejaVuSans-2f" x="793.71875"/>
      <use xlink:href="#DejaVuSans-20" x="827.410156"/>
      <use xlink:href="#DejaVuSans-64" x="859.197266"/>
      <use xlink:href="#DejaVuSans-69" x="922.673828"/>
      <use xlink:href="#DejaVuSans-6d" x="950.457031"/>
      <use xlink:href="#DejaVuSans-65" x="1047.869141"/>
      <use xlink:href="#DejaVuSans-6e" x="1109.392578"/>
      <use xlink:href="#DejaVuSans-73" x="1172.771484"/>
      <use xlink:href="#DejaVuSans-69" x="1224.871094"/>
      <use xlink:href="#DejaVuSans-6f" x="1252.654297"/>
      <use xlink:href="#DejaVuSans-6e" x="1313.835938"/>
      <use xlink:href="#DejaVuSans-29" x="1377.214844"/>
     </g>
    </g>
   </g>
   <g id="matplotlib.axis_2">
    <g id="ytick_1">
     <g id="line2d_21">
      <path d="M 57.6 298.944 
L 360.8064 298.944 
" clip-path="url(#p5f3847919f)" style="fill: none; stroke: #b0b0b0; stroke-width: 0.8; stroke-linecap: square"/>
     </g>
     <g id="line2d_22">
      <defs>
       <path id="mbe4b2d1c31" d="M 0 0 
L -3.5 0 
" style="stroke: #000000; stroke-width: 0.8"/>
      </defs>
      <g>
       <use xlink:href="#mbe4b2d1c31" x="57.6" y="298.944" style="stroke: #000000; stroke-width: 0.8"/>
      </g>
     </g>
     <g id="text_6">
      <!-- 0.0 -->
      <g transform="translate(25.155 305.02275)scale(0.16 -0.16)">
       <defs>
        <path id="DejaVuSans-2e" d="M 684 794 
L 1344 794 
L 1344 0 
L 684 0 
L 684 794 
z
" transform="scale(0.015625)"/>
       </defs>
       <use xlink:href="#DejaVuSans-30"/>
       <use xlink:href="#DejaVuSans-2e" x="63.623047"/>
       <use xlink:href="#DejaVuSans-30" x="95.410156"/>
      </g>
     </g>
    </g>
    <g id="ytick_2">
     <g id="line2d_23">
      <path d="M 57.6 240.5376 
L 360.8064 240.5376 
" clip-path="url(#p5f3847919f)" style="fill: none; stroke: #b0b0b0; stroke-width: 0.8; stroke-linecap: square"/>
     </g>
     <g id="line2d_24">
      <g>
       <use xlink:href="#mbe4b2d1c31" x="57.6" y="240.5376" style="stroke: #000000; stroke-width: 0.8"/>
      </g>
     </g>
     <g id="text_7">
      <!-- 0.2 -->
      <g transform="translate(25.155 246.61635)scale(0.16 -0.16)">
       <use xlink:href="#DejaVuSans-30"/>
       <use xlink:href="#DejaVuSans-2e" x="63.623047"/>
       <use xlink:href="#DejaVuSans-32" x="95.410156"/>
      </g>
     </g>
    </g>
    <g id="ytick_3">
     <g id="line2d_25">
      <path d="M 57.6 182.1312 
L 360.8064 182.1312 
" clip-path="url(#p5f3847919f)" style="fill: none; stroke: #b0b0b0; stroke-width: 0.8; stroke-linecap: square"/>
     </g>
     <g id="line2d_26">
      <g>
       <use xlink:href="#mbe4b2d1c31" x="57.6" y="182.1312" style="stroke: #000000; stroke-width: 0.8"/>
      </g>
     </g>
     <g id="text_8">
      <!-- 0.4 -->
      <g transform="translate(25.155 188.20995)scale(0.16 -0.16)">
       <use xlink:href="#DejaVuSans-30"/>
       <use xlink:href="#DejaVuSans-2e" x="63.623047"/>
       <use xlink:href="#DejaVuSans-34" x="95.410156"/>
      </g>
     </g>
    </g>
    <g id="ytick_4">
     <g id="line2d_27">
      <path d="M 57.6 123.7248 
L 360.8064 123.7248 
" clip-path="url(#p5f3847919f)" style="fill: none; stroke: #b0b0b0; stroke-width: 0.8; stroke-linecap: square"/>
     </g>
     <g id="line2d_28">
      <g>
       <use xlink:href="#mbe4b2d1c31" x="57.6" y="123.7248" style="stroke: #000000; stroke-width: 0.8"/>
      </g>
     </g>
     <g id="text_9">
      <!-- 0.6 -->
      <g transform="translate(25.155 129.80355)scale(0.16 -0.16)">
       <use xlink:href="#DejaVuSans-30"/>
       <use xlink:href="#DejaVuSans-2e" x="63.623047"/>
       <use xlink:href="#DejaVuSans-36" x="95.410156"/>
      </g>
     </g>
    </g>
    <g id="ytick_5">
     <g id="line2d_29">
      <path d="M 57.6 65.3184 
L 360.8064 65.3184 
" clip-path="url(#p5f3847919f)" style="fill: none; stroke: #b0b0b0; stroke-width: 0.8; stroke-linecap: square"/>
     </g>
     <g id="line2d_30">
      <g>
       <use xlink:href="#mbe4b2d1c31" x="57.6" y="65.3184" style="stroke: #000000; stroke-width: 0.8"/>
      </g>
     </g>
     <g id="text_10">
      <!-- 0.8 -->
      <g transform="translate(25.155 71.39715)scale(0.16 -0.16)">
       <defs>
        <path id="DejaVuSans-38" d="M 2034 2216 
Q 1584 2216 1326 1975 
Q 1069 1734 1069 1313 
Q 1069 891 1326 650 
Q 1584 409 2034 409 
Q 2484 409 2743 651 
Q 3003 894 3003 1313 
Q 3003 1734 2745 1975 
Q 2488 2216 2034 2216 
z
M 1403 2484 
Q 997 2584 770 2862 
Q 544 3141 544 3541 
Q 544 4100 942 4425 
Q 1341 4750 2034 4750 
Q 2731 4750 3128 4425 
Q 3525 4100 3525 3541 
Q 3525 3141 3298 2862 
Q 3072 2584 2669 2484 
Q 3125 2378 3379 2068 
Q 3634 1759 3634 1313 
Q 3634 634 3220 271 
Q 2806 -91 2034 -91 
Q 1263 -91 848 271 
Q 434 634 434 1313 
Q 434 1759 690 2068 
Q 947 2378 1403 2484 
z
M 1172 3481 
Q 1172 3119 1398 2916 
Q 1625 2713 2034 2713 
Q 2441 2713 2670 2916 
Q 2900 3119 2900 3481 
Q 2900 3844 2670 4047 
Q 2441 4250 2034 4250 
Q 1625 4250 1398 4047 
Q 1172 3844 1172 3481 
z
" transform="scale(0.015625)"/>
       </defs>
       <use xlink:href="#DejaVuSans-30"/>
       <use xlink:href="#DejaVuSans-2e" x="63.623047"/>
       <use xlink:href="#DejaVuSans-38" x="95.410156"/>
      </g>
     </g>
    </g>
    <g id="ytick_6">
     <g id="line2d_31">
      <path d="M 57.6 6.912 
L 360.8064 6.912 
" clip-path="url(#p5f3847919f)" style="fill: none; stroke: #b0b0b0; stroke-width: 0.8; stroke-linecap: square"/>
     </g>
     <g id="line2d_32">
      <g>
       <use xlink:href="#mbe4b2d1c31" x="57.6" y="6.912" style="stroke: #000000; stroke-width: 0.8"/>
      </g>
     </g>
     <g id="text_11">
      <!-- 1.0 -->
      <g transform="translate(25.155 12.99075)scale(0.16 -0.16)">
       <use xlink:href="#DejaVuSans-31"/>
       <use xlink:href="#DejaVuSans-2e" x="63.623047"/>
       <use xlink:href="#DejaVuSans-30" x="95.410156"/>
      </g>
     </g>
    </g>
    <g id="text_12">
     <!-- Fraction of function,target pairs -->
     <g transform="translate(17.619531 287.313)rotate(-90)scale(0.17 -0.17)">
      <defs>
       <path id="DejaVuSans-46" d="M 628 4666 
L 3309 4666 
L 3309 4134 
L 1259 4134 
L 1259 2759 
L 3109 2759 
L 3109 2228 
L 1259 2228 
L 1259 0 
L 628 0 
L 628 4666 
z
" transform="scale(0.015625)"/>
       <path id="DejaVuSans-72" d="M 2631 2963 
Q 2534 3019 2420 3045 
Q 2306 3072 2169 3072 
Q 1681 3072 1420 2755 
Q 1159 2438 1159 1844 
L 1159 0 
L 581 0 
L 581 3500 
L 1159 3500 
L 1159 2956 
Q 1341 3275 1631 3429 
Q 1922 3584 2338 3584 
Q 2397 3584 2469 3576 
Q 2541 3569 2628 3553 
L 2631 2963 
z
" transform="scale(0.015625)"/>
       <path id="DejaVuSans-63" d="M 3122 3366 
L 3122 2828 
Q 2878 2963 2633 3030 
Q 2388 3097 2138 3097 
Q 1578 3097 1268 2742 
Q 959 2388 959 1747 
Q 959 1106 1268 751 
Q 1578 397 2138 397 
Q 2388 397 2633 464 
Q 2878 531 3122 666 
L 3122 134 
Q 2881 22 2623 -34 
Q 2366 -91 2075 -91 
Q 1284 -91 818 406 
Q 353 903 353 1747 
Q 353 2603 823 3093 
Q 1294 3584 2113 3584 
Q 2378 3584 2631 3529 
Q 2884 3475 3122 3366 
z
" transform="scale(0.015625)"/>
       <path id="DejaVuSans-74" d="M 1172 4494 
L 1172 3500 
L 2356 3500 
L 2356 3053 
L 1172 3053 
L 1172 1153 
Q 1172 725 1289 603 
Q 1406 481 1766 481 
L 2356 481 
L 2356 0 
L 1766 0 
Q 1100 0 847 248 
Q 594 497 594 1153 
L 594 3053 
L 172 3053 
L 172 3500 
L 594 3500 
L 594 4494 
L 1172 4494 
z
" transform="scale(0.015625)"/>
       <path id="DejaVuSans-75" d="M 544 1381 
L 544 3500 
L 1119 3500 
L 1119 1403 
Q 1119 906 1312 657 
Q 1506 409 1894 409 
Q 2359 409 2629 706 
Q 2900 1003 2900 1516 
L 2900 3500 
L 3475 3500 
L 3475 0 
L 2900 0 
L 2900 538 
Q 2691 219 2414 64 
Q 2138 -91 1772 -91 
Q 1169 -91 856 284 
Q 544 659 544 1381 
z
M 1991 3584 
L 1991 3584 
z
" transform="scale(0.015625)"/>
       <path id="DejaVuSans-2c" d="M 750 794 
L 1409 794 
L 1409 256 
L 897 -744 
L 494 -744 
L 750 256 
L 750 794 
z
" transform="scale(0.015625)"/>
       <path id="DejaVuSans-70" d="M 1159 525 
L 1159 -1331 
L 581 -1331 
L 581 3500 
L 1159 3500 
L 1159 2969 
Q 1341 3281 1617 3432 
Q 1894 3584 2278 3584 
Q 2916 3584 3314 3078 
Q 3713 2572 3713 1747 
Q 3713 922 3314 415 
Q 2916 -91 2278 -91 
Q 1894 -91 1617 61 
Q 1341 213 1159 525 
z
M 3116 1747 
Q 3116 2381 2855 2742 
Q 2594 3103 2138 3103 
Q 1681 3103 1420 2742 
Q 1159 2381 1159 1747 
Q 1159 1113 1420 752 
Q 1681 391 2138 391 
Q 2594 391 2855 752 
Q 3116 1113 3116 1747 
z
" transform="scale(0.015625)"/>
      </defs>
      <use xlink:href="#DejaVuSans-46"/>
      <use xlink:href="#DejaVuSans-72" x="50.269531"/>
      <use xlink:href="#DejaVuSans-61" x="91.382812"/>
      <use xlink:href="#DejaVuSans-63" x="152.662109"/>
      <use xlink:href="#DejaVuSans-74" x="207.642578"/>
      <use xlink:href="#DejaVuSans-69" x="246.851562"/>
      <use xlink:href="#DejaVuSans-6f" x="274.634766"/>
      <use xlink:href="#DejaVuSans-6e" x="335.816406"/>
      <use xlink:href="#DejaVuSans-20" x="399.195312"/>
      <use xlink:href="#DejaVuSans-6f" x="430.982422"/>
      <use xlink:href="#DejaVuSans-66" x="492.164062"/>
      <use xlink:href="#DejaVuSans-20" x="527.369141"/>
      <use xlink:href="#DejaVuSans-66" x="559.15625"/>
      <use xlink:href="#DejaVuSans-75" x="594.361328"/>
      <use xlink:href="#DejaVuSans-6e" x="657.740234"/>
      <use xlink:href="#DejaVuSans-63" x="721.119141"/>
      <use xlink:href="#DejaVuSans-74" x="776.099609"/>
      <use xlink:href="#DejaVuSans-69" x="815.308594"/>
      <use xlink:href="#DejaVuSans-6f" x="843.091797"/>
      <use xlink:href="#DejaVuSans-6e" x="904.273438"/>
      <use xlink:href="#DejaVuSans-2c" x="967.652344"/>
      <use xlink:href="#DejaVuSans-74" x="999.439453"/>
      <use xlink:href="#DejaVuSans-61" x="1038.648438"/>
      <use xlink:href="#DejaVuSans-72" x="1099.927734"/>
      <use xlink:href="#DejaVuSans-67" x="1139.291016"/>
      <use xlink:href="#DejaVuSans-65" x="1202.767578"/>
      <use xlink:href="#DejaVuSans-74" x="1264.291016"/>
      <use xlink:href="#DejaVuSans-20" x="1303.5"/>
      <use xlink:href="#DejaVuSans-70" x="1335.287109"/>
      <use xlink:href="#DejaVuSans-61" x="1398.763672"/>
      <use xlink:href="#DejaVuSans-69" x="1460.042969"/>
      <use xlink:href="#DejaVuSans-72" x="1487.826172"/>
      <use xlink:href="#DejaVuSans-73" x="1528.939453"/>
     </g>
    </g>
   </g>
   <g id="line2d_33">
    <defs>
     <path id="m634253a052" d="M 0 1.5 
C 0.397805 1.5 0.77937 1.341951 1.06066 1.06066 
C 1.341951 0.77937 1.5 0.397805 1.5 0 
C 1.5 -0.397805 1.341951 -0.77937 1.06066 -1.06066 
C 0.77937 -1.341951 0.397805 -1.5 0 -1.5 
C -0.397805 -1.5 -0.77937 -1.341951 -1.06066 -1.06066 
C -1.341951 -0.77937 -1.5 -0.397805 -1.5 0 
C -1.5 0.397805 -1.341951 0.77937 -1.06066 1.06066 
C -0.77937 1.341951 -0.397805 1.5 0 1.5 
z
" style="stroke: #f5deb3"/>
    </defs>
    <g>
     <use xlink:href="#m634253a052" x="247.702398" y="6.912" style="fill: #f5deb3; stroke: #f5deb3"/>
     <use xlink:href="#m634253a052" x="247.702398" y="6.912" style="fill: #f5deb3; stroke: #f5deb3"/>
    </g>
   </g>
   <g id="line2d_34">
    <defs>
     <path id="m679efef318" d="M 0 1.5 
C 0.397805 1.5 0.77937 1.341951 1.06066 1.06066 
C 1.341951 0.77937 1.5 0.397805 1.5 0 
C 1.5 -0.397805 1.341951 -0.77937 1.06066 -1.06066 
C 0.77937 -1.341951 0.397805 -1.5 0 -1.5 
C -0.397805 -1.5 -0.77937 -1.341951 -1.06066 -1.06066 
C -1.341951 -0.77937 -1.5 -0.397805 -1.5 0 
C -1.5 0.397805 -1.341951 0.77937 -1.06066 1.06066 
C -0.77937 1.341951 -0.397805 1.5 0 1.5 
z
" style="stroke: #000080"/>
    </defs>
    <g>
     <use xlink:href="#m679efef318" x="351.530721" y="201.6" style="fill: #000080; stroke: #000080"/>
     <use xlink:href="#m679efef318" x="351.530721" y="201.6" style="fill: #000080; stroke: #000080"/>
    </g>
   </g>
   <g id="line2d_35">
    <path d="M 27.323974 298.944 
L 27.323974 291.15648 
L 40.363149 291.15648 
L 40.363149 288.255247 
L 47.990577 288.255247 
L 47.990577 286.346541 
L 53.402323 286.346541 
L 53.402323 284.66688 
L 57.6 284.66688 
L 57.6 284.132442 
L 61.029752 284.132442 
L 61.029752 283.063567 
L 63.929565 283.063567 
L 63.929565 282.07104 
L 66.441498 282.07104 
L 66.441498 281.689299 
L 68.65718 281.689299 
L 68.65718 281.154861 
L 70.639174 281.154861 
L 70.639174 280.849468 
L 72.432107 280.849468 
L 72.432107 280.544075 
L 74.068926 280.544075 
L 74.068926 280.085986 
L 76.96874 280.009638 
L 76.96874 279.4752 
L 78.266603 279.4752 
L 78.266603 279.017111 
L 79.480672 279.017111 
L 79.480672 278.864414 
L 81.696354 278.864414 
L 81.696354 278.482673 
L 82.713442 278.482673 
L 82.713442 278.253628 
L 83.678349 278.253628 
L 83.678349 278.024584 
L 84.596168 278.024584 
L 84.596168 277.719191 
L 86.307488 277.719191 
L 86.307488 277.108405 
L 89.323782 277.032056 
L 89.323782 276.803012 
L 90.007914 276.803012 
L 90.007914 276.650315 
L 91.305777 276.650315 
L 91.305777 276.497619 
L 91.922605 276.497619 
L 91.922605 276.344922 
L 92.519847 276.344922 
L 92.519847 276.115878 
L 94.205591 276.039529 
L 94.205591 275.963181 
L 96.241256 275.886833 
L 96.241256 275.734136 
L 96.717523 275.734136 
L 96.717523 275.428744 
L 98.077987 275.352395 
L 98.077987 275.276047 
L 98.510456 275.276047 
L 98.510456 275.123351 
L 99.346662 275.047002 
L 99.346662 274.665261 
L 100.147275 274.665261 
L 100.147275 274.436216 
L 101.287718 274.359868 
L 101.287718 274.28352 
L 102.362957 274.207172 
L 102.362957 274.054475 
L 103.047088 274.054475 
L 103.047088 273.825431 
L 103.707211 273.749082 
L 103.707211 273.672734 
L 105.850679 273.596386 
L 105.850679 273.520038 
L 106.137884 273.520038 
L 106.137884 273.367341 
L 107.5116 273.367341 
L 107.5116 273.138296 
L 108.542628 273.061948 
L 108.542628 272.9856 
L 110.221204 272.909252 
L 110.221204 272.832904 
L 111.54963 272.756555 
L 111.54963 272.680207 
L 112.385837 272.603859 
L 112.385837 272.374814 
L 114.326893 272.298466 
L 114.326893 272.145769 
L 114.872193 272.145769 
L 114.872193 271.68768 
L 115.227139 271.68768 
L 115.227139 271.458635 
L 115.575511 271.458635 
L 115.575511 271.305939 
L 116.419219 271.229591 
L 116.419219 271.153242 
L 118.152051 271.076894 
L 118.152051 270.771501 
L 118.598196 270.695153 
L 118.598196 270.618805 
L 120.813877 270.542456 
L 120.813877 270.38976 
L 121.830966 270.38976 
L 121.830966 270.237064 
L 122.677931 270.160715 
L 122.677931 270.084367 
L 122.795872 270.084367 
L 122.795872 269.855322 
L 124.695386 269.778974 
L 124.695386 269.626278 
L 125.219419 269.549929 
L 125.219419 269.473581 
L 126.420564 269.397233 
L 126.420564 269.320885 
L 127.366067 269.244536 
L 127.366067 269.168188 
L 128.266313 269.09184 
L 128.266313 268.939144 
L 128.786481 268.939144 
L 128.786481 268.786447 
L 129.041269 268.786447 
L 129.041269 268.557402 
L 130.656987 268.481054 
L 130.656987 268.328358 
L 131.63737 268.252009 
L 131.63737 268.175661 
L 135.054871 268.099313 
L 135.054871 268.022965 
L 135.59842 267.946616 
L 135.59842 267.870268 
L 136.184497 267.79392 
L 136.184497 267.717572 
L 136.584151 267.641224 
L 136.584151 267.564875 
L 137.466966 267.488527 
L 137.466966 267.412179 
L 138.154948 267.412179 
L 138.154948 267.259482 
L 139.166565 267.183134 
L 139.166565 267.106786 
L 139.985636 267.030438 
L 139.985636 266.877741 
L 141.56737 266.801393 
L 141.56737 266.725045 
L 142.579895 266.648696 
L 142.579895 266.419652 
L 143.10641 266.419652 
L 143.10641 266.037911 
L 143.265494 266.037911 
L 143.265494 265.885214 
L 144.342932 265.808866 
L 144.342932 265.503473 
L 144.529002 265.427125 
L 144.529002 265.274428 
L 144.71325 265.274428 
L 144.71325 264.969035 
L 145.076419 264.892687 
L 145.184016 264.358249 
L 145.397382 264.281901 
L 145.503164 263.90016 
L 145.608355 263.823812 
L 145.712961 263.671115 
L 145.782376 263.594767 
L 145.886021 263.060329 
L 145.954802 263.060329 
L 145.989098 262.831285 
L 146.328666 262.754936 
L 146.429353 262.525892 
L 146.662213 262.449544 
L 146.761135 262.067802 
L 147.022411 261.991454 
L 147.119461 261.533365 
L 147.216013 261.533365 
L 147.312072 261.30432 
L 147.375841 261.30432 
L 147.407644 261.075275 
L 147.660152 260.998927 
L 147.691478 260.769882 
L 147.971093 260.693534 
L 148.001907 260.540838 
L 148.124658 260.464489 
L 148.155221 260.235445 
L 148.307296 260.159096 
L 148.397954 259.701007 
L 148.428077 259.701007 
L 148.518156 259.395614 
L 148.637595 259.319266 
L 148.726679 259.166569 
L 148.785835 259.090221 
L 148.874221 258.784828 
L 149.194798 258.70848 
L 149.252502 258.403087 
L 149.338728 258.403087 
L 149.42456 258.174042 
L 149.510002 258.174042 
L 149.595059 257.868649 
L 149.847944 257.868649 
L 149.931489 257.257864 
L 150.014665 257.181515 
L 150.069911 256.799774 
L 150.234685 256.723426 
L 150.262008 256.570729 
L 150.452162 256.494381 
L 150.559965 256.11264 
L 150.613636 256.036292 
L 150.72052 255.807247 
L 150.932483 255.730899 
L 151.011358 255.425506 
L 151.063758 255.425506 
L 151.063758 255.272809 
L 151.349377 255.196461 
L 151.349377 255.120113 
L 151.782431 255.043765 
L 151.782431 254.967416 
L 152.007722 254.891068 
L 152.007722 254.662024 
L 152.20574 254.585675 
L 152.20574 254.509327 
L 152.571498 254.509327 
L 152.571498 254.356631 
L 153.001222 254.280282 
L 153.001222 254.203934 
L 153.375128 254.127586 
L 153.421349 253.974889 
L 153.650761 253.898541 
L 153.696309 253.669496 
L 154.012098 253.593148 
L 154.056781 253.287755 
L 154.476059 253.211407 
L 154.476059 253.135059 
L 154.950144 253.058711 
L 154.950144 252.982362 
L 155.161749 252.906014 
L 155.161749 252.829666 
L 155.412574 252.753318 
L 155.412574 252.676969 
L 155.741887 252.600621 
L 155.741887 252.524273 
L 155.964992 252.447925 
L 155.964992 252.371576 
L 156.225294 252.295228 
L 156.324459 252.066184 
L 156.579868 251.989835 
L 156.657763 251.760791 
L 157.288377 251.684442 
L 157.288377 251.608094 
L 157.880333 251.531746 
L 157.880333 251.455398 
L 158.418868 251.379049 
L 158.418868 251.302701 
L 158.752135 251.226353 
L 158.752135 251.150005 
L 158.976805 251.073656 
L 158.976805 250.997308 
L 160.110173 250.92096 
L 160.110173 250.844612 
L 160.541906 250.768264 
L 160.541906 250.691915 
L 161.452196 250.615567 
L 161.512345 250.462871 
L 161.765853 250.386522 
L 161.765853 250.310174 
L 162.088932 250.233826 
L 162.132562 250.081129 
L 162.6625 250.004781 
L 162.704821 249.852085 
L 163.053839 249.775736 
L 163.095289 249.546692 
L 163.945293 249.470344 
L 164.050532 249.164951 
L 164.142137 249.088602 
L 164.194282 248.783209 
L 164.783793 248.706861 
L 164.783793 248.630513 
L 166.181484 248.554165 
L 166.181484 248.477816 
L 166.564105 248.401468 
L 166.564105 248.32512 
L 167.196106 248.248772 
L 167.240447 247.943379 
L 168.627414 247.867031 
L 168.627414 247.790682 
L 169.687218 247.714334 
L 169.706651 247.561638 
L 170.588827 247.485289 
L 170.588827 247.408941 
L 171.127772 247.332593 
L 171.136775 247.179896 
L 171.947136 247.103548 
L 172.015979 246.874504 
L 172.449034 246.798155 
L 172.449034 246.721807 
L 173.462145 246.645459 
L 173.533597 246.416414 
L 173.636328 246.340066 
L 173.699269 246.111021 
L 174.871565 246.034673 
L 174.871565 245.881976 
L 175.157205 245.805628 
L 175.157205 245.72928 
L 175.581246 245.652932 
L 175.630928 245.500235 
L 175.88438 245.423887 
L 175.912332 245.271191 
L 176.591226 245.194842 
L 176.59796 245.042146 
L 176.872001 245.042146 
L 176.872001 244.889449 
L 177.683669 244.813101 
L 177.766107 244.584056 
L 177.98002 244.507708 
L 178.036239 244.355012 
L 178.46176 244.278664 
L 178.467857 244.125967 
L 179.746203 244.049619 
L 179.831439 243.896922 
L 180.196396 243.820574 
L 180.25192 243.667878 
L 180.472392 243.591529 
L 180.570768 243.438833 
L 180.964544 243.438833 
L 180.964544 243.209788 
L 181.203239 243.13344 
L 181.229574 242.980744 
L 181.381598 242.980744 
L 181.490923 242.675351 
L 182.919829 242.599002 
L 182.919829 242.293609 
L 183.201566 242.217261 
L 183.201566 242.140913 
L 184.81744 242.064565 
L 184.81744 241.988216 
L 186.297388 241.988216 
L 186.297388 241.83552 
L 186.914345 241.759172 
L 186.914345 241.682824 
L 188.024783 241.606475 
L 188.116252 241.377431 
L 188.599088 241.301082 
L 188.599088 241.224734 
L 188.986388 241.148386 
L 188.986388 241.072038 
L 189.294016 240.995689 
L 189.294016 240.919341 
L 190.652806 240.842993 
L 190.655995 240.690296 
L 191.749295 240.613948 
L 191.749295 240.5376 
L 192.978028 240.461252 
L 192.978028 240.384904 
L 193.508827 240.308555 
L 193.517046 240.155859 
L 195.145418 240.079511 
L 195.145418 240.003162 
L 195.646097 239.926814 
L 195.648543 239.774118 
L 196.224144 239.697769 
L 196.269157 239.545073 
L 196.620785 239.468725 
L 196.620785 239.392376 
L 197.313872 239.316028 
L 197.313872 239.23968 
L 198.942482 239.163332 
L 198.942482 239.086984 
L 199.865774 239.010635 
L 199.865774 238.934287 
L 200.290912 238.857939 
L 200.290912 238.781591 
L 200.874117 238.705242 
L 200.874117 238.628894 
L 201.441581 238.552546 
L 201.441581 238.476198 
L 202.304027 238.399849 
L 202.401634 238.247153 
L 202.765308 238.170805 
L 202.793766 238.018108 
L 203.064465 237.94176 
L 203.077651 237.789064 
L 203.560755 237.712715 
L 203.560755 237.636367 
L 204.276061 237.560019 
L 204.276061 237.483671 
L 205.118048 237.407322 
L 205.119526 237.254626 
L 205.515912 237.178278 
L 205.515912 237.101929 
L 207.084218 237.025581 
L 207.173224 236.796536 
L 208.488573 236.720188 
L 208.488573 236.64384 
L 213.195855 236.567492 
L 213.195855 236.491144 
L 215.962964 236.414795 
L 215.962964 236.338447 
L 216.721584 236.262099 
L 216.823423 236.109402 
L 217.888476 236.033054 
L 217.888476 235.956706 
L 218.526117 235.956706 
L 218.526117 235.804009 
L 220.171933 235.727661 
L 220.171933 235.651313 
L 221.791589 235.574965 
L 221.791589 235.498616 
L 222.218698 235.422268 
L 222.297749 235.269572 
L 222.915036 235.193224 
L 222.915036 235.116875 
L 223.389983 235.040527 
L 223.389983 234.964179 
L 224.059598 234.887831 
L 224.059598 234.811482 
L 224.65132 234.735134 
L 224.65132 234.658786 
L 225.037246 234.582438 
L 225.077709 234.429741 
L 225.192987 234.353393 
L 225.282779 234.048 
L 225.742718 233.971652 
L 225.742718 233.895304 
L 226.135658 233.818955 
L 226.135658 233.742607 
L 227.679667 233.666259 
L 227.679667 233.589911 
L 227.945994 233.513562 
L 227.991186 233.360866 
L 228.68383 233.284518 
L 228.756762 233.131821 
L 229.186868 233.055473 
L 229.219739 232.902776 
L 229.445401 232.826428 
L 229.445401 232.75008 
L 229.970201 232.673732 
L 229.970201 232.597384 
L 230.294408 232.521035 
L 230.36716 232.368339 
L 230.69035 232.291991 
L 230.790313 232.139294 
L 231.605475 232.062946 
L 231.611983 231.910249 
L 231.919979 231.833901 
L 231.919979 231.757553 
L 232.871705 231.681205 
L 232.871705 231.604856 
L 233.591411 231.528508 
L 233.591411 231.45216 
L 234.784399 231.375812 
L 234.784399 231.299464 
L 235.510205 231.223115 
L 235.510205 231.146767 
L 236.112249 231.070419 
L 236.112249 230.994071 
L 238.265186 230.917722 
L 238.265186 230.841374 
L 239.323213 230.765026 
L 239.404852 230.612329 
L 241.449 230.535981 
L 241.449 230.459633 
L 241.620295 230.383285 
L 241.680507 230.230588 
L 241.745378 230.230588 
L 241.745378 230.077892 
L 242.401441 230.001544 
L 242.401441 229.925195 
L 242.827834 229.848847 
L 242.827834 229.772499 
L 243.412513 229.696151 
L 243.412513 229.619802 
L 243.887555 229.543454 
L 243.887555 229.467106 
L 245.912063 229.390758 
L 245.912063 229.314409 
L 246.066431 229.238061 
L 246.142558 229.085365 
L 246.345833 229.009016 
L 246.345833 228.932668 
L 251.67543 228.85632 
L 251.67543 228.779972 
L 253.343123 228.703624 
L 253.406443 228.550927 
L 254.926194 228.474579 
L 254.932055 228.321882 
L 260.350864 228.245534 
L 260.350864 228.169186 
L 260.69279 228.092838 
L 260.69279 228.016489 
L 262.852438 227.940141 
L 262.852438 227.863793 
L 263.647554 227.787445 
L 263.723386 227.634748 
L 264.502257 227.5584 
L 264.526026 227.405704 
L 266.176089 227.329355 
L 266.201457 227.176659 
L 266.442099 227.100311 
L 266.442099 227.023962 
L 267.969241 226.947614 
L 267.998471 226.794918 
L 268.358444 226.718569 
L 268.385131 226.565873 
L 270.737458 226.489525 
L 270.843126 226.336828 
L 271.341674 226.26048 
L 271.341674 226.184132 
L 271.48039 226.107784 
L 271.48039 226.031435 
L 272.520483 225.955087 
L 272.520483 225.878739 
L 274.201341 225.802391 
L 274.30285 224.199078 
L 274.322534 224.122729 
L 274.381313 223.511944 
L 274.517657 223.435595 
L 274.583784 222.901158 
L 274.689335 222.824809 
L 274.722547 222.595765 
L 274.981835 222.519416 
L 274.981835 222.290372 
L 275.312548 222.214024 
L 275.399896 221.374193 
L 275.49028 221.297845 
L 275.527712 220.152621 
L 275.700969 220.152621 
L 275.781114 219.77088 
L 275.822765 219.694532 
L 275.822765 219.618184 
L 275.953501 219.618184 
L 275.962535 219.389139 
L 276.160888 219.389139 
L 276.160888 219.160094 
L 276.916175 219.160094 
L 276.916175 219.007398 
L 277.263357 218.931049 
L 277.263357 218.854701 
L 277.712922 218.778353 
L 277.712922 218.702005 
L 279.56206 218.625656 
L 279.64976 218.47296 
L 280.928496 218.396612 
L 280.928496 218.320264 
L 281.710067 218.243915 
L 281.710067 218.167567 
L 282.993404 218.091219 
L 283.002301 217.862174 
L 283.698622 217.862174 
L 283.698622 217.633129 
L 285.696116 217.556781 
L 285.696116 217.404085 
L 286.544036 217.327736 
L 286.544036 217.251388 
L 287.265034 217.17504 
L 287.318111 216.716951 
L 287.405056 216.640602 
L 287.490433 216.411558 
L 287.636466 216.335209 
L 287.681314 216.182513 
L 287.898507 216.106165 
L 288.00397 215.571727 
L 288.134032 215.495379 
L 288.134032 215.419031 
L 288.419266 215.419031 
L 288.419266 215.266334 
L 288.560163 215.266334 
L 288.560163 215.113638 
L 288.832652 215.037289 
L 288.832652 214.960941 
L 292.141303 214.884593 
L 292.141303 214.731896 
L 293.944454 214.655548 
L 293.944454 214.5792 
L 294.907691 214.502852 
L 295.015275 214.121111 
L 295.069761 214.044762 
L 295.115068 213.892066 
L 295.259478 213.815718 
L 295.364783 212.517798 
L 295.43135 212.441449 
L 295.441423 212.288753 
L 295.653832 212.288753 
L 295.653832 212.136056 
L 297.702461 212.059708 
L 297.702461 211.98336 
L 298.265602 211.907012 
L 298.265602 211.677967 
L 298.721673 211.601619 
L 298.721673 211.448922 
L 300.396982 211.372574 
L 300.496896 211.219878 
L 300.600642 211.143529 
L 300.705242 210.914485 
L 301.069653 210.838136 
L 301.069653 210.761788 
L 301.779179 210.68544 
L 301.779179 210.609092 
L 303.859039 210.532744 
L 303.859039 210.456395 
L 304.688187 210.380047 
L 304.793113 209.540216 
L 306.78105 209.463868 
L 306.78105 209.38752 
L 307.976986 209.311172 
L 308.078784 208.929431 
L 308.113346 208.853082 
L 308.166445 208.547689 
L 309.842109 208.471341 
L 309.921122 208.318645 
L 310.811059 208.242296 
L 310.907395 207.936904 
L 310.980741 207.860555 
L 310.980741 207.784207 
L 313.308543 207.707859 
L 313.404092 207.555162 
L 313.466698 207.478814 
L 313.467523 207.326118 
L 313.658681 207.326118 
L 313.732594 207.097073 
L 314.843382 207.020725 
L 314.843382 206.944376 
L 315.600466 206.944376 
L 315.664282 206.333591 
L 315.875931 206.257242 
L 315.875931 206.180894 
L 317.626838 206.104546 
L 317.630827 205.951849 
L 319.336124 205.875501 
L 319.410837 205.341064 
L 321.019713 205.264715 
L 321.037379 204.959322 
L 322.531103 204.882974 
L 322.545858 204.577581 
L 323.920358 204.501233 
L 323.92039 204.272188 
L 325.211628 204.19584 
L 325.22196 204.043144 
L 326.419669 203.966795 
L 326.420086 203.814099 
L 327.554834 203.737751 
L 327.555224 203.508706 
L 328.625707 203.432358 
L 328.625707 203.356009 
L 331.977006 203.279661 
L 332.053767 203.126965 
L 333.642928 203.050616 
L 333.642928 202.974268 
L 334.783906 202.89792 
L 334.783906 202.821572 
L 336.226861 202.745224 
L 336.226861 202.668875 
L 337.568326 202.592527 
L 337.568326 202.516179 
L 341.626443 202.439831 
L 341.626443 202.363482 
L 342.619707 202.287134 
L 342.619707 202.210786 
L 344.068133 202.134438 
L 344.068133 202.058089 
L 346.033861 201.981741 
L 346.033861 201.905393 
L 347.028274 201.829045 
L 347.028274 201.752696 
L 351.530721 201.676348 
L 351.530721 201.6 
L 360.8064 201.6 
L 360.8064 201.6 
" style="fill: none; stroke: #000080; stroke-width: 1.5; stroke-linecap: square"/>
   </g>
   <g id="line2d_36">
    <defs>
     <path id="md2bbcd0a53" d="M 0 6 
C 1.591219 6 3.117479 5.367802 4.242641 4.242641 
C 5.367802 3.117479 6 1.591219 6 0 
C 6 -1.591219 5.367802 -3.117479 4.242641 -4.242641 
C 3.117479 -5.367802 1.591219 -6 0 -6 
C -1.591219 -6 -3.117479 -5.367802 -4.242641 -4.242641 
C -5.367802 -3.117479 -6 -1.591219 -6 0 
C -6 1.591219 -5.367802 3.117479 -4.242641 4.242641 
C -3.117479 5.367802 -1.591219 6 0 6 
z
" style="stroke: #000080; stroke-width: 1.5"/>
    </defs>
    <g>
     <use xlink:href="#md2bbcd0a53" x="68.65718" y="281.154861" style="fill-opacity: 0; stroke: #000080; stroke-width: 1.5"/>
     <use xlink:href="#md2bbcd0a53" x="151.349377" y="255.120113" style="fill-opacity: 0; stroke: #000080; stroke-width: 1.5"/>
     <use xlink:href="#md2bbcd0a53" x="200.290912" y="238.781591" style="fill-opacity: 0; stroke: #000080; stroke-width: 1.5"/>
     <use xlink:href="#md2bbcd0a53" x="275.127971" y="222.214024" style="fill-opacity: 0; stroke: #000080; stroke-width: 1.5"/>
     <use xlink:href="#md2bbcd0a53" x="347.795165" y="201.676348" style="fill-opacity: 0; stroke: #000080; stroke-width: 1.5"/>
     <use xlink:href="#md2bbcd0a53" x="360.8064" y="201.6" style="fill-opacity: 0; stroke: #000080; stroke-width: 1.5"/>
    </g>
   </g>
   <g id="line2d_37">
    <path style="fill: none; stroke: #000080; stroke-width: 1.5; stroke-linecap: square"/>
    <g/>
   </g>
   <g id="line2d_38">
    <path d="M 274.176 225.802391 
" clip-path="url(#p5f3847919f)" style="fill: none; stroke: #000080; stroke-width: 1.5; stroke-linecap: square"/>
    <defs>
     <path id="mad1fdcab2c" d="M -12 12 
L 12 -12 
M -12 -12 
L 12 12 
" style="stroke: #000080"/>
    </defs>
    <g clip-path="url(#p5f3847919f)">
     <use xlink:href="#mad1fdcab2c" x="274.176" y="225.802391" style="fill: #000080; stroke: #000080"/>
    </g>
   </g>
   <g id="line2d_39">
    <defs>
     <path id="m40151cdd35" d="M 0 1.5 
C 0.397805 1.5 0.77937 1.341951 1.06066 1.06066 
C 1.341951 0.77937 1.5 0.397805 1.5 0 
C 1.5 -0.397805 1.341951 -0.77937 1.06066 -1.06066 
C 0.77937 -1.341951 0.397805 -1.5 0 -1.5 
C -0.397805 -1.5 -0.77937 -1.341951 -1.06066 -1.06066 
C -1.341951 -0.77937 -1.5 -0.397805 -1.5 0 
C -1.5 0.397805 -1.341951 0.77937 -1.06066 1.06066 
C -0.77937 1.341951 -0.397805 1.5 0 1.5 
z
" style="stroke: #ff00ff"/>
    </defs>
    <g>
     <use xlink:href="#m40151cdd35" x="320.01307" y="127.160471" style="fill: #ff00ff; stroke: #ff00ff"/>
     <use xlink:href="#m40151cdd35" x="320.01307" y="127.160471" style="fill: #ff00ff; stroke: #ff00ff"/>
    </g>
   </g>
   <g id="line2d_40">
    <path d="M 27.323974 298.944 
L 27.323974 290.392998 
L 109.756698 290.392998 
L 109.756698 290.087605 
L 109.990385 290.087605 
L 109.990385 289.553167 
L 110.674517 289.553167 
L 110.674517 289.247774 
L 111.762192 289.247774 
L 111.762192 288.866033 
L 112.989468 288.866033 
L 112.989468 288.026202 
L 113.186449 288.026202 
L 113.186449 286.575586 
L 113.381389 286.575586 
L 113.381389 285.659407 
L 113.765312 285.659407 
L 113.765312 285.354014 
L 113.954374 285.354014 
L 113.954374 284.437835 
L 125.011554 284.437835 
L 125.011554 284.132442 
L 125.322496 284.132442 
L 125.425011 283.521656 
L 125.526971 283.521656 
L 125.628382 282.300085 
L 125.729248 282.300085 
L 125.829577 280.162334 
L 126.127391 280.162334 
L 126.225624 278.711718 
L 126.323346 278.711718 
L 126.420564 276.192226 
L 126.517282 276.192226 
L 126.613505 273.596386 
L 126.709238 273.596386 
L 126.804487 269.549929 
L 126.899255 269.549929 
L 126.993549 266.343304 
L 132.428795 266.266955 
L 132.428795 266.190607 
L 132.915628 266.190607 
L 132.915628 265.961562 
L 133.120474 265.885214 
L 133.188264 265.350776 
L 133.25581 265.350776 
L 133.323114 264.969035 
L 133.457005 264.892687 
L 133.523594 264.510946 
L 133.656071 264.510946 
L 133.72196 264.281901 
L 133.853052 264.281901 
L 133.853052 264.129205 
L 133.983236 264.129205 
L 133.983236 263.976508 
L 134.112526 263.976508 
L 134.176839 263.289374 
L 134.304809 263.213026 
L 134.368469 262.678588 
L 134.431915 262.678588 
L 134.495147 262.220499 
L 134.558167 262.220499 
L 134.620977 261.915106 
L 137.574461 261.838758 
L 137.574461 261.533365 
L 137.998402 261.533365 
L 137.998402 261.380668 
L 138.310202 261.380668 
L 138.310202 261.227972 
L 138.768422 261.227972 
L 138.768422 261.075275 
L 139.018248 261.075275 
L 139.117256 260.769882 
L 139.411192 260.693534 
L 139.411192 260.617186 
L 139.556456 260.617186 
L 139.604629 260.388141 
L 139.748412 260.311793 
L 139.843661 259.930052 
L 139.985636 259.853704 
L 140.032723 259.548311 
L 141.953481 259.548311 
L 141.953481 259.395614 
L 142.497568 259.319266 
L 142.497568 259.242918 
L 143.066428 259.166569 
L 143.10641 259.013873 
L 143.38393 259.013873 
L 143.38393 258.861176 
L 143.579681 258.784828 
L 143.579681 258.70848 
L 143.850356 258.632132 
L 143.926981 258.479435 
L 144.041338 258.403087 
L 144.041338 258.021346 
L 144.529002 258.021346 
L 144.529002 257.868649 
L 145.7477 257.792301 
L 145.7477 257.715953 
L 146.395851 257.639605 
L 146.462796 257.41056 
L 147.183884 257.334212 
L 147.280107 257.105167 
L 150.097474 257.028819 
L 150.207323 256.876122 
L 150.234685 256.876122 
L 150.234685 256.723426 
L 150.479171 256.647078 
L 150.479171 256.570729 
L 151.220087 256.494381 
L 151.220087 256.418033 
L 151.882893 256.341685 
L 151.882893 256.265336 
L 152.498913 256.188988 
L 152.498913 256.11264 
L 152.906572 256.036292 
L 152.906572 255.959944 
L 153.071898 255.883595 
L 153.071898 255.807247 
L 153.967309 255.730899 
L 154.056781 255.578202 
L 154.649839 255.501854 
L 154.649839 255.349158 
L 154.843441 255.272809 
L 154.950144 255.043765 
L 156.185481 254.967416 
L 156.284856 254.738372 
L 156.8511 254.662024 
L 156.88953 254.509327 
L 157.061501 254.432979 
L 157.099504 254.203934 
L 157.934885 254.127586 
L 157.98928 253.974889 
L 158.752135 253.898541 
L 158.838864 253.745845 
L 159.011133 253.669496 
L 159.011133 253.593148 
L 159.14782 253.593148 
L 159.14782 253.440452 
L 159.68485 253.364104 
L 159.68485 253.287755 
L 160.110173 253.287755 
L 160.190875 252.982362 
L 160.699326 252.906014 
L 160.761927 252.753318 
L 161.255373 252.676969 
L 161.270586 252.524273 
L 161.825009 252.447925 
L 161.825009 252.371576 
L 162.103487 252.295228 
L 162.132562 252.142532 
L 162.761101 252.066184 
L 162.8032 251.913487 
L 162.970663 251.837139 
L 163.053839 251.684442 
L 163.504846 251.608094 
L 163.531835 251.455398 
L 164.821605 251.379049 
L 164.859342 251.150005 
L 165.707018 251.073656 
L 165.707018 250.997308 
L 167.118257 250.92096 
L 167.207201 250.768264 
L 168.17987 250.691915 
L 168.17987 250.615567 
L 168.544952 250.539219 
L 168.565601 250.310174 
L 168.963798 250.233826 
L 168.963798 250.157478 
L 169.462279 250.081129 
L 169.550619 249.852085 
L 169.986203 249.775736 
L 170.024438 249.62304 
L 170.523847 249.546692 
L 170.523847 249.470344 
L 171.878039 249.393995 
L 171.947136 249.241299 
L 172.465815 249.164951 
L 172.465815 248.935906 
L 173.691413 248.859558 
L 173.691413 248.783209 
L 174.157069 248.706861 
L 174.157069 248.630513 
L 174.871565 248.554165 
L 174.908429 248.401468 
L 175.280369 248.32512 
L 175.280369 248.248772 
L 175.545679 248.172424 
L 175.545679 248.096075 
L 175.988986 248.019727 
L 175.988986 247.943379 
L 176.898524 247.867031 
L 176.898524 247.790682 
L 177.664594 247.790682 
L 177.664594 247.637986 
L 178.455661 247.561638 
L 178.455661 247.485289 
L 178.937417 247.408941 
L 178.937417 247.332593 
L 180.140708 247.256245 
L 180.240829 247.103548 
L 180.466912 247.0272 
L 180.466912 246.950852 
L 180.717373 246.874504 
L 180.717373 246.798155 
L 181.743569 246.721807 
L 181.804928 246.569111 
L 183.324394 246.492762 
L 183.324394 246.416414 
L 184.514905 246.340066 
L 184.514905 246.263718 
L 186.050529 246.187369 
L 186.058675 246.034673 
L 186.773755 246.034673 
L 186.773755 245.881976 
L 187.432391 245.805628 
L 187.432391 245.72928 
L 188.591972 245.652932 
L 188.591972 245.576584 
L 189.324846 245.500235 
L 189.324846 245.347539 
L 189.633768 245.347539 
L 189.647231 245.118494 
L 189.814714 245.042146 
L 189.814714 244.965798 
L 190.595307 244.889449 
L 190.595307 244.813101 
L 190.802117 244.813101 
L 190.84005 244.584056 
L 191.433739 244.507708 
L 191.433739 244.43136 
L 192.041879 244.355012 
L 192.095128 244.202315 
L 192.90177 244.125967 
L 192.90177 244.049619 
L 194.517116 243.973271 
L 194.563807 243.820574 
L 194.864511 243.744226 
L 194.864511 243.667878 
L 195.228128 243.591529 
L 195.228128 243.438833 
L 195.867369 243.362485 
L 195.867369 243.286136 
L 196.6857 243.209788 
L 196.6857 243.13344 
L 197.322824 243.057092 
L 197.322824 242.980744 
L 197.740998 242.904395 
L 197.832677 242.751699 
L 199.061167 242.675351 
L 199.061167 242.599002 
L 199.444802 242.522654 
L 199.444802 242.446306 
L 199.663381 242.369958 
L 199.696936 242.217261 
L 200.087272 242.140913 
L 200.087272 242.064565 
L 200.422295 241.988216 
L 200.422295 241.911868 
L 201.297237 241.911868 
L 201.297237 241.759172 
L 202.481737 241.682824 
L 202.481737 241.606475 
L 203.485126 241.530127 
L 203.588035 241.377431 
L 203.809622 241.301082 
L 203.896585 240.919341 
L 204.921891 240.842993 
L 204.974102 240.690296 
L 205.101779 240.613948 
L 205.208009 240.384904 
L 205.265301 240.384904 
L 205.265301 240.232207 
L 205.391024 240.232207 
L 205.463734 240.003162 
L 205.510122 240.003162 
L 205.510122 239.774118 
L 205.70027 239.697769 
L 205.773224 239.392376 
L 205.823128 239.392376 
L 205.887096 239.163332 
L 206.109988 239.086984 
L 206.125408 238.857939 
L 206.324724 238.781591 
L 206.34274 238.323501 
L 206.521951 238.247153 
L 206.624571 238.094456 
L 206.677713 238.094456 
L 206.740201 237.712715 
L 206.821396 237.712715 
L 206.895519 237.178278 
L 207.082886 237.101929 
L 207.193094 236.720188 
L 207.227484 236.64384 
L 207.327651 236.185751 
L 207.359172 236.109402 
L 207.435131 235.880358 
L 207.554991 235.804009 
L 207.554991 235.727661 
L 207.747508 235.651313 
L 207.751364 235.498616 
L 208.002861 235.422268 
L 208.002861 235.34592 
L 209.47207 235.269572 
L 209.47207 235.193224 
L 210.221642 235.116875 
L 210.221642 235.040527 
L 210.594359 234.964179 
L 210.594359 234.811482 
L 210.946826 234.735134 
L 210.946826 234.658786 
L 211.148529 234.582438 
L 211.204235 234.353393 
L 211.260843 234.353393 
L 211.360826 234.048 
L 211.46028 233.971652 
L 211.46028 233.895304 
L 211.794958 233.818955 
L 211.852919 233.666259 
L 211.951868 233.589911 
L 212.0595 233.360866 
L 212.177697 233.284518 
L 212.244617 232.902776 
L 212.350592 232.826428 
L 212.444961 232.673732 
L 212.545833 232.597384 
L 212.65112 232.215642 
L 212.726248 232.139294 
L 212.804024 231.910249 
L 212.894196 231.833901 
L 212.999501 231.375812 
L 213.180453 231.299464 
L 213.28896 230.841374 
L 213.540051 230.765026 
L 213.540051 230.688678 
L 213.82044 230.612329 
L 213.842766 230.459633 
L 214.281087 230.383285 
L 214.281087 230.306936 
L 215.189777 230.230588 
L 215.189777 230.15424 
L 215.931374 230.077892 
L 215.931374 230.001544 
L 216.448365 229.925195 
L 216.55169 229.772499 
L 216.686449 229.696151 
L 216.772572 229.390758 
L 217.010541 229.314409 
L 217.010541 229.009016 
L 217.402382 228.932668 
L 217.479167 228.703624 
L 217.602897 228.627275 
L 217.602897 228.550927 
L 217.728088 228.550927 
L 217.780195 228.321882 
L 217.909458 228.245534 
L 218.010297 228.016489 
L 218.449858 227.940141 
L 218.449858 227.863793 
L 219.286792 227.787445 
L 219.286792 227.711096 
L 219.4924 227.634748 
L 219.597449 227.482052 
L 219.72573 227.405704 
L 219.72573 227.329355 
L 219.903058 227.253007 
L 219.988417 227.023962 
L 220.072723 226.947614 
L 220.180564 226.489525 
L 220.205771 226.489525 
L 220.271944 225.955087 
L 220.33591 225.878739 
L 220.422608 225.726042 
L 220.524557 225.649694 
L 220.62466 225.267953 
L 220.640213 225.267953 
L 220.727458 224.733515 
L 220.836749 224.657167 
L 220.941585 224.275426 
L 221.358922 224.199078 
L 221.421167 224.046381 
L 221.681594 223.970033 
L 221.681594 223.893685 
L 222.980928 223.817336 
L 223.085308 223.66464 
L 223.265324 223.588292 
L 223.265324 223.511944 
L 223.566566 223.435595 
L 223.677128 223.206551 
L 223.918102 223.130202 
L 223.932245 222.901158 
L 224.133984 222.901158 
L 224.193603 222.595765 
L 224.401591 222.519416 
L 224.454553 222.36672 
L 224.834132 222.290372 
L 224.883307 222.061327 
L 225.231594 221.984979 
L 225.332311 221.374193 
L 225.372649 221.297845 
L 225.468106 221.145148 
L 225.628783 221.0688 
L 225.633255 220.839755 
L 225.795981 220.763407 
L 225.87216 220.534362 
L 225.96561 220.458014 
L 226.067337 219.77088 
L 226.167552 219.694532 
L 226.234548 219.541835 
L 226.315683 219.465487 
L 226.315683 219.389139 
L 226.435543 219.389139 
L 226.517714 219.007398 
L 226.968205 218.931049 
L 227.031491 218.778353 
L 227.39776 218.702005 
L 227.442934 218.396612 
L 227.649792 218.320264 
L 227.7375 218.167567 
L 227.844686 218.091219 
L 227.844686 218.014871 
L 228.001701 217.938522 
L 228.098248 217.633129 
L 228.144815 217.556781 
L 228.194735 217.251388 
L 228.307113 217.17504 
L 228.409397 216.793299 
L 228.478702 216.716951 
L 228.532004 216.487906 
L 228.591948 216.411558 
L 228.659316 216.106165 
L 228.826478 216.029816 
L 228.826478 215.87712 
L 229.241075 215.800772 
L 229.273032 215.648075 
L 229.863391 215.571727 
L 229.96152 215.342682 
L 230.258702 215.266334 
L 230.27734 215.037289 
L 230.403431 214.960941 
L 230.452325 214.426504 
L 230.738126 214.350155 
L 230.738126 214.273807 
L 231.02972 214.197459 
L 231.034566 214.044762 
L 231.212282 213.968414 
L 231.269799 213.815718 
L 231.462451 213.739369 
L 231.489396 213.586673 
L 231.608368 213.510325 
L 231.706459 213.204932 
L 231.78256 213.128584 
L 231.885451 212.594146 
L 231.967928 212.517798 
L 232.027428 212.212405 
L 233.029604 212.136056 
L 233.07481 211.98336 
L 233.335213 211.907012 
L 233.335213 211.830664 
L 233.687159 211.754315 
L 233.729199 211.525271 
L 233.892903 211.448922 
L 233.892903 211.372574 
L 234.020559 211.372574 
L 234.075185 211.067181 
L 234.278947 210.990833 
L 234.278947 210.914485 
L 234.583598 210.838136 
L 234.583598 210.761788 
L 234.852381 210.68544 
L 234.891595 210.532744 
L 235.034081 210.456395 
L 235.116777 210.074654 
L 235.235821 209.998306 
L 235.235821 209.921958 
L 235.469317 209.845609 
L 235.469317 209.769261 
L 235.615108 209.692913 
L 235.615108 209.616565 
L 235.948757 209.540216 
L 236.050963 209.311172 
L 236.178442 209.234824 
L 236.252031 209.005779 
L 236.319704 208.929431 
L 236.4118 208.624038 
L 236.448176 208.547689 
L 236.543541 208.0896 
L 236.568834 208.013252 
L 236.622643 207.784207 
L 236.747144 207.707859 
L 236.831424 207.249769 
L 237.620232 207.173421 
L 237.700697 206.944376 
L 237.856973 206.868028 
L 237.882116 206.715332 
L 238.011961 206.638984 
L 238.011961 206.562635 
L 238.893423 206.486287 
L 238.966922 206.180894 
L 239.113064 206.104546 
L 239.113064 206.028198 
L 239.29512 205.951849 
L 239.29512 205.875501 
L 239.592637 205.799153 
L 239.695477 205.570108 
L 239.818102 205.570108 
L 239.818102 205.417412 
L 240.14316 205.341064 
L 240.168639 205.188367 
L 240.597036 205.112019 
L 240.597933 204.959322 
L 241.084841 204.882974 
L 241.084841 204.806626 
L 241.304872 204.730278 
L 241.326454 204.501233 
L 241.608612 204.424885 
L 241.710751 204.19584 
L 242.04588 204.119492 
L 242.149396 203.814099 
L 242.211232 203.814099 
L 242.256656 203.432358 
L 242.378815 203.356009 
L 242.416917 202.974268 
L 242.582282 202.89792 
L 242.618363 202.745224 
L 243.438365 202.668875 
L 243.438365 202.592527 
L 243.831942 202.516179 
L 243.831942 202.439831 
L 244.056212 202.363482 
L 244.126972 202.210786 
L 244.187279 202.134438 
L 244.187279 202.058089 
L 244.383191 201.981741 
L 244.47683 201.523652 
L 244.567827 201.447304 
L 244.597216 201.218259 
L 245.287193 201.218259 
L 245.295579 200.760169 
L 245.736124 200.683821 
L 245.806629 200.378428 
L 246.197746 200.30208 
L 246.201242 200.149384 
L 246.59166 200.073035 
L 246.689228 199.843991 
L 246.753993 199.767642 
L 246.835764 199.538598 
L 247.039366 199.462249 
L 247.145255 199.156856 
L 247.246458 199.080508 
L 247.323768 198.851464 
L 247.517838 198.775115 
L 247.605942 198.622419 
L 247.690253 198.546071 
L 247.748448 198.393374 
L 247.907981 198.317026 
L 247.916644 198.087981 
L 248.364825 198.011633 
L 248.442559 197.858936 
L 248.524092 197.782588 
L 248.535564 197.629892 
L 248.674726 197.553544 
L 248.7525 197.171802 
L 248.874628 197.095454 
L 248.874628 197.019106 
L 249.366195 196.942758 
L 249.370415 196.790061 
L 249.718925 196.713713 
L 249.776135 196.40832 
L 249.851278 196.331972 
L 249.864982 196.026579 
L 249.996451 195.950231 
L 250.067603 195.568489 
L 250.13214 195.492141 
L 250.200359 194.805007 
L 250.391826 194.728659 
L 250.459643 194.423266 
L 250.526555 194.346918 
L 250.628781 193.965176 
L 250.658618 193.888828 
L 250.658618 193.81248 
L 250.811269 193.736132 
L 250.883563 193.354391 
L 251.378707 193.278042 
L 251.40233 193.048998 
L 251.646541 192.972649 
L 251.726252 192.667256 
L 251.782877 192.590908 
L 251.880361 191.980122 
L 251.913072 191.903774 
L 251.913072 191.827426 
L 252.237933 191.751078 
L 252.316265 191.445685 
L 252.490077 191.369336 
L 252.596181 191.21664 
L 252.650014 191.140292 
L 252.66879 190.758551 
L 252.969352 190.682202 
L 253.05465 190.453158 
L 253.109956 190.376809 
L 253.192553 190.147765 
L 253.254551 190.071416 
L 253.356669 189.842372 
L 253.503226 189.766024 
L 253.611418 189.078889 
L 253.627352 189.002541 
L 253.737621 188.315407 
L 254.172021 188.239059 
L 254.232941 188.086362 
L 254.627058 188.010014 
L 254.735021 187.551925 
L 255.015067 187.475576 
L 255.015067 187.399228 
L 255.208792 187.32288 
L 255.212298 187.170184 
L 255.366726 187.093835 
L 255.389414 186.864791 
L 255.698373 186.788442 
L 255.73912 186.559398 
L 255.935986 186.483049 
L 255.992055 186.177656 
L 256.086184 186.101308 
L 256.195898 185.719567 
L 256.241245 185.643219 
L 256.241245 185.566871 
L 256.446861 185.490522 
L 256.473201 185.337826 
L 257.113008 185.261478 
L 257.181473 185.032433 
L 257.224508 184.956085 
L 257.283244 184.497995 
L 257.49967 184.421647 
L 257.49967 184.345299 
L 257.629773 184.268951 
L 257.704425 183.734513 
L 257.879796 183.658165 
L 257.980004 183.047379 
L 258.333269 182.971031 
L 258.385686 182.589289 
L 258.594684 182.512941 
L 258.688336 182.207548 
L 258.80573 182.1312 
L 258.889947 181.825807 
L 258.936441 181.749459 
L 259.027233 181.596762 
L 259.230593 181.520414 
L 259.310032 181.291369 
L 259.409109 181.215021 
L 259.493712 180.985976 
L 259.522676 180.909628 
L 259.591665 180.756932 
L 259.876387 180.680584 
L 259.876387 180.604235 
L 260.022259 180.527887 
L 260.049783 180.375191 
L 260.161619 180.298842 
L 260.22199 180.146146 
L 260.334931 180.069798 
L 260.372819 179.840753 
L 260.476757 179.764405 
L 260.55352 179.459012 
L 260.625643 179.382664 
L 260.726812 179.077271 
L 260.818183 179.000922 
L 260.818183 178.924574 
L 261.049261 178.848226 
L 261.049261 178.771878 
L 261.593182 178.695529 
L 261.663921 178.390136 
L 261.793782 178.313788 
L 261.820503 178.161092 
L 262.06274 178.084744 
L 262.070905 177.932047 
L 262.261186 177.855699 
L 262.351624 177.626654 
L 262.483845 177.550306 
L 262.502958 177.321261 
L 262.751541 177.244913 
L 262.808564 177.015868 
L 263.048477 176.93952 
L 263.049157 176.786824 
L 263.247808 176.710475 
L 263.247808 176.634127 
L 263.467333 176.557779 
L 263.572804 176.328734 
L 263.632272 176.252386 
L 263.632865 176.099689 
L 263.971276 176.023341 
L 264.081046 175.6416 
L 264.157269 175.565252 
L 264.259908 175.183511 
L 264.422052 175.107162 
L 264.422052 175.030814 
L 264.714915 174.954466 
L 264.777211 174.649073 
L 265.045393 174.572725 
L 265.092587 174.34368 
L 265.267142 174.267332 
L 265.267142 174.190984 
L 265.4584 174.114635 
L 265.458938 173.961939 
L 265.692556 173.885591 
L 265.794691 173.580198 
L 265.915663 173.503849 
L 265.944998 173.351153 
L 266.162845 173.274805 
L 266.237466 172.969412 
L 266.334639 172.893064 
L 266.385372 172.664019 
L 266.577144 172.587671 
L 266.676282 172.358626 
L 266.756825 172.282278 
L 266.777186 171.976885 
L 266.903709 171.900536 
L 266.963976 171.671492 
L 267.102847 171.595144 
L 267.110736 171.442447 
L 267.270052 171.366099 
L 267.284385 171.213402 
L 267.403455 171.137054 
L 267.500757 170.831661 
L 267.584585 170.755313 
L 267.584585 170.678965 
L 267.940962 170.602616 
L 267.942429 170.44992 
L 268.135281 170.373572 
L 268.22888 170.068179 
L 268.372228 169.991831 
L 268.399355 169.762786 
L 268.493688 169.686438 
L 268.493688 169.610089 
L 268.670414 169.533741 
L 268.709193 169.381045 
L 268.851787 169.304696 
L 268.851787 169.228348 
L 269.0049 169.152 
L 269.092852 168.770259 
L 269.216913 168.693911 
L 269.287202 168.541214 
L 269.35966 168.464866 
L 269.457483 168.235821 
L 269.614684 168.159473 
L 269.667926 167.930428 
L 269.74484 167.85408 
L 269.815655 167.548687 
L 270.025528 167.472339 
L 270.126677 167.014249 
L 270.335574 166.937901 
L 270.355867 166.632508 
L 270.544002 166.55616 
L 270.653301 166.250767 
L 270.704546 166.174419 
L 270.810444 165.945374 
L 270.85085 165.869026 
L 270.932834 165.639981 
L 271.110753 165.563633 
L 271.202766 165.25824 
L 271.304896 165.181892 
L 271.410049 165.029195 
L 271.508591 164.952847 
L 271.553367 164.723802 
L 271.748754 164.647454 
L 271.806751 164.494758 
L 271.935819 164.418409 
L 272.044256 164.265713 
L 272.152951 164.189365 
L 272.205623 164.036668 
L 272.327718 163.96032 
L 272.430169 163.731275 
L 272.56849 163.654927 
L 272.670294 163.502231 
L 272.861898 163.425882 
L 272.95603 162.891445 
L 273.316026 162.815096 
L 273.401137 162.509704 
L 273.472199 162.433355 
L 273.572193 162.127962 
L 273.626311 162.051614 
L 273.690276 161.822569 
L 273.827448 161.746221 
L 273.934915 161.440828 
L 274.119405 161.36448 
L 274.146066 161.211784 
L 274.299001 161.135435 
L 274.407123 160.906391 
L 274.551137 160.830042 
L 274.583895 160.600998 
L 274.777869 160.524649 
L 274.784682 160.371953 
L 274.909533 160.295605 
L 274.974012 160.06656 
L 275.089518 159.990212 
L 275.190958 159.532122 
L 275.335661 159.455774 
L 275.4329 159.226729 
L 275.627658 159.150381 
L 275.731128 158.997685 
L 275.780008 158.921336 
L 275.786813 158.76864 
L 275.930723 158.692292 
L 275.930723 158.615944 
L 276.275276 158.539595 
L 276.364808 158.386899 
L 276.401979 158.310551 
L 276.401979 158.234202 
L 276.549868 158.157854 
L 276.647147 157.776113 
L 276.732895 157.699765 
L 276.732895 157.623416 
L 276.967849 157.547068 
L 277.07619 157.241675 
L 277.149925 157.165327 
L 277.188335 157.012631 
L 277.33086 156.936282 
L 277.431125 156.401845 
L 277.707248 156.325496 
L 277.789394 156.096452 
L 278.108118 156.020104 
L 278.171932 155.562014 
L 278.297856 155.485666 
L 278.389321 155.103925 
L 278.534526 155.027576 
L 278.587123 154.87488 
L 278.919288 154.798532 
L 278.928204 154.645835 
L 279.190293 154.569487 
L 279.218976 154.416791 
L 279.397943 154.340442 
L 279.397943 154.264094 
L 279.542441 154.187746 
L 279.652178 153.653308 
L 279.796893 153.57696 
L 279.796893 153.500612 
L 279.964248 153.424264 
L 279.984593 153.271567 
L 280.265863 153.195219 
L 280.373529 152.737129 
L 280.451175 152.660781 
L 280.504194 152.431736 
L 280.614838 152.355388 
L 280.715402 151.820951 
L 281.078094 151.744602 
L 281.132446 151.439209 
L 281.343232 151.362861 
L 281.446813 150.98112 
L 281.661886 150.904772 
L 281.661886 150.828424 
L 281.90576 150.752075 
L 281.964441 150.523031 
L 282.050339 150.446682 
L 282.138039 150.217638 
L 282.352461 150.141289 
L 282.403305 149.988593 
L 282.875737 149.912245 
L 282.9133 149.6832 
L 283.068596 149.606852 
L 283.172383 149.225111 
L 283.404488 149.148762 
L 283.487051 148.996066 
L 283.609695 148.919718 
L 283.696195 148.537976 
L 283.761562 148.461628 
L 283.761562 148.38528 
L 283.924318 148.308932 
L 283.999748 148.079887 
L 284.087876 148.003539 
L 284.151256 147.698146 
L 284.211334 147.621798 
L 284.211334 147.545449 
L 284.378115 147.469101 
L 284.478444 147.163708 
L 284.786195 147.08736 
L 284.894956 146.858315 
L 285.040485 146.781967 
L 285.083473 146.552922 
L 285.281526 146.476574 
L 285.31733 146.323878 
L 285.51789 146.247529 
L 285.550124 146.094833 
L 285.700214 146.018485 
L 285.777575 145.78944 
L 285.848308 145.713092 
L 285.954998 145.331351 
L 286.160113 145.255002 
L 286.201274 145.102306 
L 286.482977 145.025958 
L 286.482977 144.949609 
L 286.657872 144.873261 
L 286.732655 144.644216 
L 286.984281 144.567868 
L 287.068476 144.338824 
L 287.207573 144.262475 
L 287.312984 143.957082 
L 287.477044 143.880734 
L 287.542639 143.728038 
L 287.633541 143.651689 
L 287.741081 143.422645 
L 287.808843 143.346296 
L 287.882174 143.117252 
L 288.000434 143.040904 
L 288.084774 142.888207 
L 288.270246 142.811859 
L 288.290954 142.659162 
L 288.684465 142.582814 
L 288.762646 142.277421 
L 288.862784 142.201073 
L 288.95795 141.972028 
L 289.004549 141.89568 
L 289.075383 141.590287 
L 289.167669 141.513939 
L 289.167669 141.437591 
L 289.460363 141.361242 
L 289.566677 141.132198 
L 289.72401 141.055849 
L 289.821644 140.59776 
L 289.850479 140.521412 
L 289.850479 140.445064 
L 290.108059 140.368715 
L 290.108059 140.292367 
L 290.243995 140.216019 
L 290.243995 140.139671 
L 290.558807 140.063322 
L 290.60959 139.910626 
L 290.750039 139.834278 
L 290.779604 139.681581 
L 290.963776 139.605233 
L 290.984711 139.452536 
L 291.124124 139.376188 
L 291.187255 139.223492 
L 291.310797 139.147144 
L 291.310797 139.070795 
L 291.446141 138.994447 
L 291.446141 138.918099 
L 291.705276 138.841751 
L 291.803302 138.612706 
L 292.145661 138.536358 
L 292.145661 138.460009 
L 292.382768 138.383661 
L 292.474633 138.078268 
L 292.55141 138.00192 
L 292.55141 137.925572 
L 292.778214 137.849224 
L 292.815964 137.696527 
L 292.897776 137.620179 
L 292.983927 137.391134 
L 293.101904 137.314786 
L 293.18914 137.162089 
L 293.357251 137.085741 
L 293.43445 136.933045 
L 293.505126 136.856696 
L 293.607894 136.627652 
L 293.885378 136.551304 
L 293.92383 136.322259 
L 294.067099 136.245911 
L 294.167552 136.093214 
L 294.284984 136.016866 
L 294.367699 135.864169 
L 294.418293 135.787821 
L 294.461061 135.635125 
L 294.596157 135.558776 
L 294.596157 135.482428 
L 294.737706 135.40608 
L 294.737706 135.329732 
L 294.94678 135.253384 
L 294.995333 135.100687 
L 295.125571 135.024339 
L 295.125571 134.947991 
L 295.275491 134.871642 
L 295.378427 134.566249 
L 295.605458 134.489901 
L 295.605458 134.413553 
L 295.833257 134.337205 
L 295.833257 134.260856 
L 296.37185 134.184508 
L 296.482277 133.879115 
L 296.56443 133.802767 
L 296.667806 133.650071 
L 296.971042 133.573722 
L 297.036032 133.421026 
L 297.256786 133.344678 
L 297.300846 133.115633 
L 297.463866 133.039285 
L 297.463866 132.962936 
L 297.871268 132.886588 
L 297.898803 132.733892 
L 298.113016 132.657544 
L 298.113016 132.581195 
L 298.299726 132.504847 
L 298.312161 132.352151 
L 298.540083 132.275802 
L 298.542246 132.123106 
L 298.784568 132.046758 
L 298.802408 131.894061 
L 299.027393 131.817713 
L 299.064483 131.588668 
L 299.521682 131.51232 
L 299.548644 131.359624 
L 299.776345 131.283275 
L 299.830267 131.054231 
L 300.615798 130.977882 
L 300.615798 130.901534 
L 300.811455 130.825186 
L 300.811455 130.748838 
L 301.400324 130.672489 
L 301.411162 130.519793 
L 301.625239 130.443445 
L 301.698169 130.2144 
L 302.371392 130.138052 
L 302.371392 130.061704 
L 302.565551 129.985355 
L 302.565551 129.909007 
L 302.895671 129.832659 
L 302.929561 129.679962 
L 303.137706 129.603614 
L 303.174481 129.450918 
L 303.349822 129.374569 
L 303.349822 129.298221 
L 303.805263 129.221873 
L 303.805263 129.145525 
L 304.284058 129.069176 
L 304.284058 128.992828 
L 306.140617 128.91648 
L 306.140617 128.840132 
L 306.398536 128.763784 
L 306.398536 128.687435 
L 307.894239 128.611087 
L 307.894239 128.534739 
L 308.317662 128.458391 
L 308.317662 128.382042 
L 308.850301 128.305694 
L 308.850301 128.229346 
L 309.801606 128.152998 
L 309.801606 128.076649 
L 311.304442 128.000301 
L 311.304442 127.923953 
L 313.273554 127.847605 
L 313.273554 127.771256 
L 314.410803 127.694908 
L 314.410803 127.61856 
L 316.53116 127.542212 
L 316.53116 127.465864 
L 319.059611 127.389515 
L 319.059611 127.313167 
L 320.01307 127.236819 
L 320.01307 127.160471 
L 360.8064 127.160471 
L 360.8064 127.160471 
" style="fill: none; stroke: #ff00ff; stroke-width: 1.5; stroke-linecap: square"/>
   </g>
   <g id="line2d_41">
    <defs>
     <path id="m578a904151" d="M 0 8.485281 
L 5.091169 0 
L 0 -8.485281 
L -5.091169 0 
z
" style="stroke: #ff00ff; stroke-width: 1.5; stroke-linejoin: miter"/>
    </defs>
    <g>
     <use xlink:href="#m578a904151" x="176.530511" y="247.943379" style="fill-opacity: 0; stroke: #ff00ff; stroke-width: 1.5; stroke-linejoin: miter"/>
     <use xlink:href="#m578a904151" x="247.073246" y="199.385901" style="fill-opacity: 0; stroke: #ff00ff; stroke-width: 1.5; stroke-linejoin: miter"/>
     <use xlink:href="#m578a904151" x="311.304442" y="127.923953" style="fill-opacity: 0; stroke: #ff00ff; stroke-width: 1.5; stroke-linejoin: miter"/>
     <use xlink:href="#m578a904151" x="320.01307" y="127.160471" style="fill-opacity: 0; stroke: #ff00ff; stroke-width: 1.5; stroke-linejoin: miter"/>
     <use xlink:href="#m578a904151" x="360.8064" y="127.160471" style="fill-opacity: 0; stroke: #ff00ff; stroke-width: 1.5; stroke-linejoin: miter"/>
    </g>
   </g>
   <g id="line2d_42">
    <path style="fill: none; stroke: #ff00ff; stroke-width: 1.5; stroke-linecap: square"/>
    <g/>
   </g>
   <g id="line2d_43">
    <path d="M 243.911446 202.439831 
" clip-path="url(#p5f3847919f)" style="fill: none; stroke: #ff00ff; stroke-width: 1.5; stroke-linecap: square"/>
    <defs>
     <path id="ma3672e91db" d="M -12 12 
L 12 -12 
M -12 -12 
L 12 12 
" style="stroke: #ff00ff"/>
    </defs>
    <g clip-path="url(#p5f3847919f)">
     <use xlink:href="#ma3672e91db" x="243.911446" y="202.439831" style="fill: #ff00ff; stroke: #ff00ff"/>
    </g>
   </g>
   <g id="line2d_44">
    <path d="M 360.8064 201.6 
L 380.514816 293.10336 
" style="fill: none; stroke: #000080; stroke-width: 1.5; stroke-linecap: square"/>
    <g>
     <use xlink:href="#md2bbcd0a53" x="360.8064" y="201.6" style="fill-opacity: 0; stroke: #000080; stroke-width: 1.5"/>
     <use xlink:href="#md2bbcd0a53" x="380.514816" y="293.10336" style="fill-opacity: 0; stroke: #000080; stroke-width: 1.5"/>
    </g>
   </g>
   <g id="line2d_45">
    <path d="M 360.8064 127.160471 
L 380.514816 152.928 
" style="fill: none; stroke: #ff00ff; stroke-width: 1.5; stroke-linecap: square"/>
    <g>
     <use xlink:href="#m578a904151" x="360.8064" y="127.160471" style="fill-opacity: 0; stroke: #ff00ff; stroke-width: 1.5; stroke-linejoin: miter"/>
     <use xlink:href="#m578a904151" x="380.514816" y="152.928" style="fill-opacity: 0; stroke: #ff00ff; stroke-width: 1.5; stroke-linejoin: miter"/>
    </g>
   </g>
   <g id="line2d_46">
    <path d="M 360.8064 298.944 
L 360.8064 6.912 
" style="fill: none; stroke: #000000; stroke-width: 1.5; stroke-linecap: square"/>
   </g>
   <g id="patch_3">
    <path d="M 57.6 298.944 
L 360.8064 298.944 
" style="fill: none; stroke: #000000; stroke-width: 0.8; stroke-linejoin: miter; stroke-linecap: square"/>
   </g>
   <g id="patch_4">
    <path d="M 57.6 6.912 
L 360.8064 6.912 
" style="fill: none; stroke: #000000; stroke-width: 0.8; stroke-linejoin: miter; stroke-linecap: square"/>
   </g>
   <g id="text_13">
    <!-- LCGA -->
    <g transform="translate(386.578944 296.966485)scale(0.14 -0.14)">
     <defs>
      <path id="DejaVuSans-4c" d="M 628 4666 
L 1259 4666 
L 1259 531 
L 3531 531 
L 3531 0 
L 628 0 
L 628 4666 
z
" transform="scale(0.015625)"/>
      <path id="DejaVuSans-43" d="M 4122 4306 
L 4122 3641 
Q 3803 3938 3442 4084 
Q 3081 4231 2675 4231 
Q 1875 4231 1450 3742 
Q 1025 3253 1025 2328 
Q 1025 1406 1450 917 
Q 1875 428 2675 428 
Q 3081 428 3442 575 
Q 3803 722 4122 1019 
L 4122 359 
Q 3791 134 3420 21 
Q 3050 -91 2638 -91 
Q 1578 -91 968 557 
Q 359 1206 359 2328 
Q 359 3453 968 4101 
Q 1578 4750 2638 4750 
Q 3056 4750 3426 4639 
Q 3797 4528 4122 4306 
z
" transform="scale(0.015625)"/>
      <path id="DejaVuSans-47" d="M 3809 666 
L 3809 1919 
L 2778 1919 
L 2778 2438 
L 4434 2438 
L 4434 434 
Q 4069 175 3628 42 
Q 3188 -91 2688 -91 
Q 1594 -91 976 548 
Q 359 1188 359 2328 
Q 359 3472 976 4111 
Q 1594 4750 2688 4750 
Q 3144 4750 3555 4637 
Q 3966 4525 4313 4306 
L 4313 3634 
Q 3963 3931 3569 4081 
Q 3175 4231 2741 4231 
Q 1884 4231 1454 3753 
Q 1025 3275 1025 2328 
Q 1025 1384 1454 906 
Q 1884 428 2741 428 
Q 3075 428 3337 486 
Q 3600 544 3809 666 
z
" transform="scale(0.015625)"/>
      <path id="DejaVuSans-41" d="M 2188 4044 
L 1331 1722 
L 3047 1722 
L 2188 4044 
z
M 1831 4666 
L 2547 4666 
L 4325 0 
L 3669 0 
L 3244 1197 
L 1141 1197 
L 716 0 
L 50 0 
L 1831 4666 
z
" transform="scale(0.015625)"/>
     </defs>
     <use xlink:href="#DejaVuSans-4c"/>
     <use xlink:href="#DejaVuSans-43" x="55.712891"/>
     <use xlink:href="#DejaVuSans-47" x="125.537109"/>
     <use xlink:href="#DejaVuSans-41" x="203.027344"/>
    </g>
   </g>
   <g id="text_14">
    <!-- EvoSpace- -->
    <g transform="translate(386.578944 156.791125)scale(0.14 -0.14)">
     <defs>
      <path id="DejaVuSans-45" d="M 628 4666 
L 3578 4666 
L 3578 4134 
L 1259 4134 
L 1259 2753 
L 3481 2753 
L 3481 2222 
L 1259 2222 
L 1259 531 
L 3634 531 
L 3634 0 
L 628 0 
L 628 4666 
z
" transform="scale(0.015625)"/>
      <path id="DejaVuSans-53" d="M 3425 4513 
L 3425 3897 
Q 3066 4069 2747 4153 
Q 2428 4238 2131 4238 
Q 1616 4238 1336 4038 
Q 1056 3838 1056 3469 
Q 1056 3159 1242 3001 
Q 1428 2844 1947 2747 
L 2328 2669 
Q 3034 2534 3370 2195 
Q 3706 1856 3706 1288 
Q 3706 609 3251 259 
Q 2797 -91 1919 -91 
Q 1588 -91 1214 -16 
Q 841 59 441 206 
L 441 856 
Q 825 641 1194 531 
Q 1563 422 1919 422 
Q 2459 422 2753 634 
Q 3047 847 3047 1241 
Q 3047 1584 2836 1778 
Q 2625 1972 2144 2069 
L 1759 2144 
Q 1053 2284 737 2584 
Q 422 2884 422 3419 
Q 422 4038 858 4394 
Q 1294 4750 2059 4750 
Q 2388 4750 2728 4690 
Q 3069 4631 3425 4513 
z
" transform="scale(0.015625)"/>
     </defs>
     <use xlink:href="#DejaVuSans-45"/>
     <use xlink:href="#DejaVuSans-76" x="63.183594"/>
     <use xlink:href="#DejaVuSans-6f" x="122.363281"/>
     <use xlink:href="#DejaVuSans-53" x="183.544922"/>
     <use xlink:href="#DejaVuSans-70" x="247.021484"/>
     <use xlink:href="#DejaVuSans-61" x="310.498047"/>
     <use xlink:href="#DejaVuSans-63" x="371.777344"/>
     <use xlink:href="#DejaVuSans-65" x="426.757812"/>
     <use xlink:href="#DejaVuSans-2d" x="488.28125"/>
    </g>
   </g>
   <g id="text_15">
    <!-- best 2009 -->
    <g transform="translate(386.578944 16.615765)scale(0.14 -0.14)">
     <defs>
      <path id="DejaVuSans-62" d="M 3116 1747 
Q 3116 2381 2855 2742 
Q 2594 3103 2138 3103 
Q 1681 3103 1420 2742 
Q 1159 2381 1159 1747 
Q 1159 1113 1420 752 
Q 1681 391 2138 391 
Q 2594 391 2855 752 
Q 3116 1113 3116 1747 
z
M 1159 2969 
Q 1341 3281 1617 3432 
Q 1894 3584 2278 3584 
Q 2916 3584 3314 3078 
Q 3713 2572 3713 1747 
Q 3713 922 3314 415 
Q 2916 -91 2278 -91 
Q 1894 -91 1617 61 
Q 1341 213 1159 525 
L 1159 0 
L 581 0 
L 581 4863 
L 1159 4863 
L 1159 2969 
z
" transform="scale(0.015625)"/>
      <path id="DejaVuSans-39" d="M 703 97 
L 703 672 
Q 941 559 1184 500 
Q 1428 441 1663 441 
Q 2288 441 2617 861 
Q 2947 1281 2994 2138 
Q 2813 1869 2534 1725 
Q 2256 1581 1919 1581 
Q 1219 1581 811 2004 
Q 403 2428 403 3163 
Q 403 3881 828 4315 
Q 1253 4750 1959 4750 
Q 2769 4750 3195 4129 
Q 3622 3509 3622 2328 
Q 3622 1225 3098 567 
Q 2575 -91 1691 -91 
Q 1453 -91 1209 -44 
Q 966 3 703 97 
z
M 1959 2075 
Q 2384 2075 2632 2365 
Q 2881 2656 2881 3163 
Q 2881 3666 2632 3958 
Q 2384 4250 1959 4250 
Q 1534 4250 1286 3958 
Q 1038 3666 1038 3163 
Q 1038 2656 1286 2365 
Q 1534 2075 1959 2075 
z
" transform="scale(0.015625)"/>
     </defs>
     <use xlink:href="#DejaVuSans-62"/>
     <use xlink:href="#DejaVuSans-65" x="63.476562"/>
     <use xlink:href="#DejaVuSans-73" x="125"/>
     <use xlink:href="#DejaVuSans-74" x="177.099609"/>
     <use xlink:href="#DejaVuSans-20" x="216.308594"/>
     <use xlink:href="#DejaVuSans-32" x="248.095703"/>
     <use xlink:href="#DejaVuSans-30" x="311.71875"/>
     <use xlink:href="#DejaVuSans-30" x="375.341797"/>
     <use xlink:href="#DejaVuSans-39" x="438.964844"/>
    </g>
   </g>
   <g id="text_16">
    <!-- bbob f15-f19, 5-D -->
    <g transform="translate(60.632064 17.582726)scale(0.102 -0.102)">
     <defs>
      <path id="DejaVuSans-35" d="M 691 4666 
L 3169 4666 
L 3169 4134 
L 1269 4134 
L 1269 2991 
Q 1406 3038 1543 3061 
Q 1681 3084 1819 3084 
Q 2600 3084 3056 2656 
Q 3513 2228 3513 1497 
Q 3513 744 3044 326 
Q 2575 -91 1722 -91 
Q 1428 -91 1123 -41 
Q 819 9 494 109 
L 494 744 
Q 775 591 1075 516 
Q 1375 441 1709 441 
Q 2250 441 2565 725 
Q 2881 1009 2881 1497 
Q 2881 1984 2565 2268 
Q 2250 2553 1709 2553 
Q 1456 2553 1204 2497 
Q 953 2441 691 2322 
L 691 4666 
z
" transform="scale(0.015625)"/>
      <path id="DejaVuSans-44" d="M 1259 4147 
L 1259 519 
L 2022 519 
Q 2988 519 3436 956 
Q 3884 1394 3884 2338 
Q 3884 3275 3436 3711 
Q 2988 4147 2022 4147 
L 1259 4147 
z
M 628 4666 
L 1925 4666 
Q 3281 4666 3915 4102 
Q 4550 3538 4550 2338 
Q 4550 1131 3912 565 
Q 3275 0 1925 0 
L 628 0 
L 628 4666 
z
" transform="scale(0.015625)"/>
     </defs>
     <use xlink:href="#DejaVuSans-62"/>
     <use xlink:href="#DejaVuSans-62" x="63.476562"/>
     <use xlink:href="#DejaVuSans-6f" x="126.953125"/>
     <use xlink:href="#DejaVuSans-62" x="188.134766"/>
     <use xlink:href="#DejaVuSans-20" x="251.611328"/>
     <use xlink:href="#DejaVuSans-66" x="283.398438"/>
     <use xlink:href="#DejaVuSans-31" x="318.603516"/>
     <use xlink:href="#DejaVuSans-35" x="382.226562"/>
     <use xlink:href="#DejaVuSans-2d" x="445.849609"/>
     <use xlink:href="#DejaVuSans-66" x="481.933594"/>
     <use xlink:href="#DejaVuSans-31" x="517.138672"/>
     <use xlink:href="#DejaVuSans-39" x="580.761719"/>
     <use xlink:href="#DejaVuSans-2c" x="644.384766"/>
     <use xlink:href="#DejaVuSans-20" x="676.171875"/>
     <use xlink:href="#DejaVuSans-35" x="707.958984"/>
     <use xlink:href="#DejaVuSans-2d" x="771.582031"/>
     <use xlink:href="#DejaVuSans-44" x="807.666016"/>
    </g>
    <!-- 51 targets: 100..1e-08 -->
    <g transform="translate(60.632064 29.004495)scale(0.102 -0.102)">
     <defs>
      <path id="DejaVuSans-3a" d="M 750 794 
L 1409 794 
L 1409 0 
L 750 0 
L 750 794 
z
M 750 3309 
L 1409 3309 
L 1409 2516 
L 750 2516 
L 750 3309 
z
" transform="scale(0.015625)"/>
     </defs>
     <use xlink:href="#DejaVuSans-35"/>
     <use xlink:href="#DejaVuSans-31" x="63.623047"/>
     <use xlink:href="#DejaVuSans-20" x="127.246094"/>
     <use xlink:href="#DejaVuSans-74" x="159.033203"/>
     <use xlink:href="#DejaVuSans-61" x="198.242188"/>
     <use xlink:href="#DejaVuSans-72" x="259.521484"/>
     <use xlink:href="#DejaVuSans-67" x="298.884766"/>
     <use xlink:href="#DejaVuSans-65" x="362.361328"/>
     <use xlink:href="#DejaVuSans-74" x="423.884766"/>
     <use xlink:href="#DejaVuSans-73" x="463.09375"/>
     <use xlink:href="#DejaVuSans-3a" x="515.193359"/>
     <use xlink:href="#DejaVuSans-20" x="548.884766"/>
     <use xlink:href="#DejaVuSans-31" x="580.671875"/>
     <use xlink:href="#DejaVuSans-30" x="644.294922"/>
     <use xlink:href="#DejaVuSans-30" x="707.917969"/>
     <use xlink:href="#DejaVuSans-2e" x="771.541016"/>
     <use xlink:href="#DejaVuSans-2e" x="803.328125"/>
     <use xlink:href="#DejaVuSans-31" x="835.115234"/>
     <use xlink:href="#DejaVuSans-65" x="898.738281"/>
     <use xlink:href="#DejaVuSans-2d" x="960.261719"/>
     <use xlink:href="#DejaVuSans-30" x="996.345703"/>
     <use xlink:href="#DejaVuSans-38" x="1059.96875"/>
    </g>
    <!-- 15 instances -->
    <g transform="translate(60.632064 40.426264)scale(0.102 -0.102)">
     <use xlink:href="#DejaVuSans-31"/>
     <use xlink:href="#DejaVuSans-35" x="63.623047"/>
     <use xlink:href="#DejaVuSans-20" x="127.246094"/>
     <use xlink:href="#DejaVuSans-69" x="159.033203"/>
     <use xlink:href="#DejaVuSans-6e" x="186.816406"/>
     <use xlink:href="#DejaVuSans-73" x="250.195312"/>
     <use xlink:href="#DejaVuSans-74" x="302.294922"/>
     <use xlink:href="#DejaVuSans-61" x="341.503906"/>
     <use xlink:href="#DejaVuSans-6e" x="402.783203"/>
     <use xlink:href="#DejaVuSans-63" x="466.162109"/>
     <use xlink:href="#DejaVuSans-65" x="521.142578"/>
     <use xlink:href="#DejaVuSans-73" x="582.666016"/>
    </g>
   </g>
   <g id="text_17">
    <!-- v2.6 -->
    <g style="fill: #808080" transform="translate(198.292262 293.943992)scale(0.1 -0.1)">
     <use xlink:href="#DejaVuSans-76"/>
     <use xlink:href="#DejaVuSans-32" x="59.179688"/>
     <use xlink:href="#DejaVuSans-2e" x="122.802734"/>
     <use xlink:href="#DejaVuSans-36" x="154.589844"/>
    </g>
   </g>
  </g>
 </g>
 <defs>
  <clipPath id="p5f3847919f">
   <rect x="57.6" y="6.912" width="303.2064" height="292.032"/>
  </clipPath>
 </defs>
</svg>
