<?xml version="1.0" encoding="utf-8" standalone="no"?>
<!DOCTYPE svg PUBLIC "-//W3C//DTD SVG 1.1//EN"
  "http://www.w3.org/Graphics/SVG/1.1/DTD/svg11.dtd">
<svg xmlns:xlink="http://www.w3.org/1999/xlink" width="460.8pt" height="345.6pt" viewBox="0 0 460.8 345.6" xmlns="http://www.w3.org/2000/svg" version="1.1">
 <metadata>
  <rdf:RDF xmlns:dc="http://purl.org/dc/elements/1.1/" xmlns:cc="http://creativecommons.org/ns#" xmlns:rdf="http://www.w3.org/1999/02/22-rdf-syntax-ns#">
   <cc:Work>
    <dc:type rdf:resource="http://purl.org/dc/dcmitype/StillImage"/>
    <dc:date>2024-05-29T08:08:28.904802</dc:date>
    <dc:format>image/svg+xml</dc:format>
    <dc:creator>
     <cc:Agent>
      <dc:title>Matplotlib v3.5.1, https://matplotlib.org/</dc:title>
     </cc:Agent>
    </dc:creator>
   </cc:Work>
  </rdf:RDF>
 </metadata>
 <defs>
  <style type="text/css">*{stroke-linejoin: round; stroke-linecap: butt}</style>
 </defs>
 <g id="figure_1">
  <g id="patch_1">
   <path d="M 0 345.6 
L 460.8 345.6 
L 460.8 0 
L 0 0 
z
" style="fill: #ffffff"/>
  </g>
  <g id="axes_1">
   <g id="patch_2">
    <path d="M 57.6 298.944 
L 360.8064 298.944 
L 360.8064 6.912 
L 57.6 6.912 
z
" style="fill: #ffffff"/>
   </g>
   <g id="line2d_1">
    <path d="M 1.245626 298.944 
L 1.245626 278.329976 
L 21.912228 278.329976 
L 21.912228 276.039529 
L 37.851216 276.039529 
L 37.851216 273.749082 
L 46.353758 273.749082 
L 46.353758 272.603859 
L 62.535479 272.603859 
L 62.535479 271.458635 
L 79.184421 271.458635 
L 79.184421 270.313412 
L 90.668036 270.313412 
L 90.668036 269.168188 
L 92.372304 269.168188 
L 92.372304 268.022965 
L 105.26277 268.022965 
L 105.26277 266.877741 
L 108.85357 266.877741 
L 108.85357 265.732518 
L 115.314838 265.732518 
L 115.314838 264.587294 
L 116.907859 264.587294 
L 116.907859 263.442071 
L 119.599808 263.442071 
L 119.599808 262.296847 
L 121.892744 262.296847 
L 121.892744 261.151624 
L 122.228947 261.151624 
L 122.228947 260.0064 
L 127.88896 260.0064 
L 127.88896 258.861176 
L 128.023009 258.861176 
L 128.023009 257.715953 
L 131.747272 257.715953 
L 131.747272 256.570729 
L 132.812362 256.570729 
L 132.812362 255.425506 
L 136.399653 255.425506 
L 136.399653 254.280282 
L 137.304564 254.280282 
L 137.304564 253.135059 
L 138.476961 253.135059 
L 138.476961 251.989835 
L 140.849495 251.989835 
L 140.849495 250.844612 
L 142.425236 250.844612 
L 142.425236 249.699388 
L 145.712961 249.699388 
L 145.712961 248.554165 
L 148.984124 248.554165 
L 148.984124 247.408941 
L 151.26544 247.408941 
L 151.26544 246.263718 
L 155.706148 246.263718 
L 155.706148 245.118494 
L 155.85377 245.118494 
L 155.85377 243.973271 
L 157.137431 243.973271 
L 157.137431 242.828047 
L 157.293074 242.828047 
L 157.293074 241.682824 
L 162.309673 241.682824 
L 162.309673 240.5376 
L 163.829508 240.5376 
L 163.829508 239.392376 
L 165.91013 239.392376 
L 165.91013 238.247153 
L 166.055142 238.247153 
L 166.055142 237.101929 
L 166.655701 237.101929 
L 166.661411 234.811482 
L 168.498408 234.811482 
L 168.498408 233.666259 
L 168.819278 233.666259 
L 168.819278 232.521035 
L 170.39087 232.521035 
L 170.39087 231.375812 
L 173.402394 231.375812 
L 173.402394 230.230588 
L 175.978552 230.230588 
L 175.978552 229.085365 
L 178.311769 229.085365 
L 178.311769 227.940141 
L 184.798946 227.940141 
L 184.798946 226.794918 
L 185.075543 226.794918 
L 185.075543 225.649694 
L 185.751821 225.649694 
L 185.751821 224.504471 
L 187.128087 224.504471 
L 187.128087 223.359247 
L 188.0312 223.359247 
L 188.0312 222.214024 
L 188.928799 222.214024 
L 188.928799 221.0688 
L 189.458713 221.0688 
L 189.458713 219.923576 
L 190.322198 219.923576 
L 190.322198 218.778353 
L 191.786118 218.778353 
L 191.786118 217.633129 
L 191.983279 217.633129 
L 191.983279 216.487906 
L 192.994932 216.487906 
L 192.994932 215.342682 
L 193.210531 215.342682 
L 193.210531 214.197459 
L 193.374765 214.197459 
L 193.374765 213.052235 
L 194.24439 213.052235 
L 194.24439 211.907012 
L 195.408573 211.907012 
L 195.408573 210.761788 
L 195.592823 210.761788 
L 195.643651 208.471341 
L 196.49437 208.471341 
L 196.49437 207.326118 
L 196.996718 207.326118 
L 196.996718 206.180894 
L 197.710339 206.180894 
L 197.710339 205.035671 
L 198.838531 205.035671 
L 198.838531 203.890447 
L 199.50367 203.890447 
L 199.50367 202.745224 
L 202.322045 202.745224 
L 202.322045 201.6 
L 202.643036 201.6 
L 202.643036 200.454776 
L 203.319534 200.454776 
L 203.416475 198.164329 
L 205.365509 198.164329 
L 205.447399 195.873882 
L 206.370076 195.873882 
L 206.370076 194.728659 
L 206.509599 194.728659 
L 206.509599 193.583435 
L 206.786593 193.583435 
L 206.786593 192.438212 
L 207.010837 192.438212 
L 207.010837 191.292988 
L 207.214926 191.292988 
L 207.214926 190.147765 
L 208.15128 190.147765 
L 208.15128 189.002541 
L 208.559807 189.002541 
L 208.559807 187.857318 
L 209.596275 187.857318 
L 209.596275 186.712094 
L 209.97033 186.712094 
L 210.00257 184.421647 
L 210.10548 184.421647 
L 210.10548 183.276424 
L 210.447104 183.276424 
L 210.447104 182.1312 
L 210.796577 182.1312 
L 210.796577 180.985976 
L 211.03554 180.985976 
L 211.03554 179.840753 
L 211.380441 179.840753 
L 211.380441 178.695529 
L 211.662322 178.695529 
L 211.662322 177.550306 
L 212.908613 177.550306 
L 212.908613 176.405082 
L 213.039324 176.405082 
L 213.039324 175.259859 
L 213.289678 175.259859 
L 213.289678 174.114635 
L 213.49583 174.114635 
L 213.49583 172.969412 
L 213.734611 172.969412 
L 213.734611 171.824188 
L 214.711202 171.824188 
L 214.711202 170.678965 
L 215.437392 170.678965 
L 215.494107 168.388518 
L 216.212149 168.388518 
L 216.318406 166.098071 
L 216.438852 166.098071 
L 216.438852 164.952847 
L 216.55652 164.952847 
L 216.55652 163.807624 
L 216.679254 163.807624 
L 216.773368 161.517176 
L 217.73546 161.517176 
L 217.73546 160.371953 
L 217.92256 160.371953 
L 217.92256 159.226729 
L 218.613253 159.226729 
L 218.613253 158.081506 
L 219.3299 158.081506 
L 219.3299 156.936282 
L 219.742044 156.936282 
L 219.742044 155.791059 
L 219.950994 155.791059 
L 219.950994 154.645835 
L 220.272604 154.645835 
L 220.272604 153.500612 
L 222.168151 153.500612 
L 222.168151 152.355388 
L 222.660048 152.355388 
L 222.660048 151.210165 
L 222.844448 151.210165 
L 222.844448 150.064941 
L 222.972203 150.064941 
L 223.077628 147.774494 
L 223.157267 147.774494 
L 223.25814 145.484047 
L 223.385645 145.484047 
L 223.385645 144.338824 
L 223.565457 144.338824 
L 223.565457 143.1936 
L 223.849001 143.1936 
L 223.849001 142.048376 
L 224.05244 142.048376 
L 224.05244 140.903153 
L 224.315742 140.903153 
L 224.315742 139.757929 
L 224.55201 139.757929 
L 224.55201 138.612706 
L 224.675641 138.612706 
L 224.675641 137.467482 
L 224.872836 137.467482 
L 224.872836 136.322259 
L 225.008767 136.322259 
L 225.009794 134.031812 
L 225.160159 134.031812 
L 225.261511 130.596141 
L 225.375797 130.596141 
L 225.475497 128.305694 
L 225.579279 128.305694 
L 225.579279 127.160471 
L 228.380873 127.160471 
L 228.380873 126.015247 
L 229.199921 126.015247 
L 229.199921 124.870024 
L 229.690823 124.870024 
L 229.798117 121.434353 
L 229.843644 121.434353 
L 229.917663 119.143906 
L 230.407382 119.143906 
L 230.49975 115.708235 
L 230.560727 115.708235 
L 230.649968 112.272565 
L 230.694526 112.272565 
L 230.750808 109.982118 
L 232.384954 109.982118 
L 232.462597 106.546447 
L 232.499963 106.546447 
L 232.573956 103.110776 
L 232.619327 103.110776 
L 232.72031 98.529882 
L 232.759293 98.529882 
L 232.840406 95.094212 
L 234.930576 95.094212 
L 234.930576 93.948988 
L 237.021515 93.948988 
L 237.126095 90.513318 
L 239.144882 90.513318 
L 239.198758 88.222871 
L 239.257417 88.222871 
L 239.343357 84.7872 
L 239.400373 84.7872 
L 239.500702 81.351529 
L 239.546755 81.351529 
L 239.649316 77.915859 
L 239.697947 77.915859 
L 239.805186 73.334965 
L 239.838131 73.334965 
L 239.874631 69.899294 
L 241.019511 69.899294 
L 241.034907 64.173176 
L 242.10216 64.173176 
L 242.108885 61.882729 
L 246.051924 61.882729 
L 246.136296 58.447059 
L 246.177424 58.447059 
L 246.247709 55.011388 
L 246.290623 55.011388 
L 246.376202 51.575718 
L 246.413477 51.575718 
L 246.491166 48.140047 
L 246.532548 48.140047 
L 246.600177 44.704376 
L 246.649855 44.704376 
L 246.686065 42.413929 
L 290.176555 42.413929 
L 290.176555 41.268706 
L 291.027124 41.268706 
L 291.027124 40.123482 
L 292.254312 40.123482 
L 292.254312 38.978259 
L 293.286752 38.978259 
L 293.286752 37.833035 
L 295.413291 37.833035 
L 295.413291 36.687812 
L 295.526099 36.687812 
L 295.526099 35.542588 
L 296.745344 35.542588 
L 296.842412 27.526024 
L 296.857868 27.526024 
L 296.96189 17.219012 
L 296.978119 17.219012 
L 297.079213 6.912 
L 360.8064 6.912 
L 360.8064 6.912 
" style="fill: none; stroke: #f5deb3; stroke-width: 4; stroke-linecap: square"/>
   </g>
   <g id="line2d_2">
    <defs>
     <path id="mef1d50f987" d="M 0 7.778175 
L 7.778175 0 
L 0 -7.778175 
L -7.778175 0 
z
" style="stroke: #f5deb3; stroke-width: 1.5; stroke-linejoin: miter"/>
    </defs>
    <g>
     <use xlink:href="#mef1d50f987" x="116.907859" y="264.587294" style="fill: #f5deb3; stroke: #f5deb3; stroke-width: 1.5; stroke-linejoin: miter"/>
     <use xlink:href="#mef1d50f987" x="178.311769" y="229.085365" style="fill: #f5deb3; stroke: #f5deb3; stroke-width: 1.5; stroke-linejoin: miter"/>
     <use xlink:href="#mef1d50f987" x="232.462597" y="107.691671" style="fill: #f5deb3; stroke: #f5deb3; stroke-width: 1.5; stroke-linejoin: miter"/>
     <use xlink:href="#mef1d50f987" x="246.686065" y="42.413929" style="fill: #f5deb3; stroke: #f5deb3; stroke-width: 1.5; stroke-linejoin: miter"/>
     <use xlink:href="#mef1d50f987" x="297.079213" y="6.912" style="fill: #f5deb3; stroke: #f5deb3; stroke-width: 1.5; stroke-linejoin: miter"/>
     <use xlink:href="#mef1d50f987" x="360.8064" y="6.912" style="fill: #f5deb3; stroke: #f5deb3; stroke-width: 1.5; stroke-linejoin: miter"/>
    </g>
   </g>
   <g id="line2d_3">
    <path style="fill: none; stroke: #f5deb3; stroke-width: 4; stroke-linecap: square"/>
    <g/>
   </g>
   <g id="line2d_4">
    <path d="M 360.8064 6.912 
L 380.514816 12.75264 
" style="fill: none; stroke: #f5deb3; stroke-width: 4; stroke-linecap: square"/>
    <g>
     <use xlink:href="#mef1d50f987" x="360.8064" y="6.912" style="fill: #f5deb3; stroke: #f5deb3; stroke-width: 1.5; stroke-linejoin: miter"/>
     <use xlink:href="#mef1d50f987" x="380.514816" y="12.75264" style="fill: #f5deb3; stroke: #f5deb3; stroke-width: 1.5; stroke-linejoin: miter"/>
    </g>
   </g>
   <g id="matplotlib.axis_1">
    <g id="xtick_1">
     <g id="line2d_5">
      <path d="M 57.6 298.944 
L 57.6 6.912 
" clip-path="url(#p14d3c670a7)" style="fill: none; stroke: #b0b0b0; stroke-width: 0.8; stroke-linecap: square"/>
     </g>
     <g id="line2d_6">
      <defs>
       <path id="m1fb5c60f79" d="M 0 0 
L 0 3.5 
" style="stroke: #000000; stroke-width: 0.8"/>
      </defs>
      <g>
       <use xlink:href="#m1fb5c60f79" x="57.6" y="298.944" style="stroke: #000000; stroke-width: 0.8"/>
      </g>
     </g>
     <g id="text_1">
      <!-- 0 -->
      <g transform="translate(52.191875 318.861344)scale(0.17 -0.17)">
       <defs>
        <path id="DejaVuSans-30" d="M 2034 4250 
Q 1547 4250 1301 3770 
Q 1056 3291 1056 2328 
Q 1056 1369 1301 889 
Q 1547 409 2034 409 
Q 2525 409 2770 889 
Q 3016 1369 3016 2328 
Q 3016 3291 2770 3770 
Q 2525 4250 2034 4250 
z
M 2034 4750 
Q 2819 4750 3233 4129 
Q 3647 3509 3647 2328 
Q 3647 1150 3233 529 
Q 2819 -91 2034 -91 
Q 1250 -91 836 529 
Q 422 1150 422 2328 
Q 422 3509 836 4129 
Q 1250 4750 2034 4750 
z
" transform="scale(0.015625)"/>
       </defs>
       <use xlink:href="#DejaVuSans-30"/>
      </g>
     </g>
    </g>
    <g id="xtick_2">
     <g id="line2d_7">
      <path d="M 144.2304 298.944 
L 144.2304 6.912 
" clip-path="url(#p14d3c670a7)" style="fill: none; stroke: #b0b0b0; stroke-width: 0.8; stroke-linecap: square"/>
     </g>
     <g id="line2d_8">
      <g>
       <use xlink:href="#m1fb5c60f79" x="144.2304" y="298.944" style="stroke: #000000; stroke-width: 0.8"/>
      </g>
     </g>
     <g id="text_2">
      <!-- 2 -->
      <g transform="translate(138.822275 318.861344)scale(0.17 -0.17)">
       <defs>
        <path id="DejaVuSans-32" d="M 1228 531 
L 3431 531 
L 3431 0 
L 469 0 
L 469 531 
Q 828 903 1448 1529 
Q 2069 2156 2228 2338 
Q 2531 2678 2651 2914 
Q 2772 3150 2772 3378 
Q 2772 3750 2511 3984 
Q 2250 4219 1831 4219 
Q 1534 4219 1204 4116 
Q 875 4013 500 3803 
L 500 4441 
Q 881 4594 1212 4672 
Q 1544 4750 1819 4750 
Q 2544 4750 2975 4387 
Q 3406 4025 3406 3419 
Q 3406 3131 3298 2873 
Q 3191 2616 2906 2266 
Q 2828 2175 2409 1742 
Q 1991 1309 1228 531 
z
" transform="scale(0.015625)"/>
       </defs>
       <use xlink:href="#DejaVuSans-32"/>
      </g>
     </g>
    </g>
    <g id="xtick_3">
     <g id="line2d_9">
      <path d="M 230.8608 298.944 
L 230.8608 6.912 
" clip-path="url(#p14d3c670a7)" style="fill: none; stroke: #b0b0b0; stroke-width: 0.8; stroke-linecap: square"/>
     </g>
     <g id="line2d_10">
      <g>
       <use xlink:href="#m1fb5c60f79" x="230.8608" y="298.944" style="stroke: #000000; stroke-width: 0.8"/>
      </g>
     </g>
     <g id="text_3">
      <!-- 4 -->
      <g transform="translate(225.452675 318.861344)scale(0.17 -0.17)">
       <defs>
        <path id="DejaVuSans-34" d="M 2419 4116 
L 825 1625 
L 2419 1625 
L 2419 4116 
z
M 2253 4666 
L 3047 4666 
L 3047 1625 
L 3713 1625 
L 3713 1100 
L 3047 1100 
L 3047 0 
L 2419 0 
L 2419 1100 
L 313 1100 
L 313 1709 
L 2253 4666 
z
" transform="scale(0.015625)"/>
       </defs>
       <use xlink:href="#DejaVuSans-34"/>
      </g>
     </g>
    </g>
    <g id="xtick_4">
     <g id="line2d_11">
      <path d="M 317.4912 298.944 
L 317.4912 6.912 
" clip-path="url(#p14d3c670a7)" style="fill: none; stroke: #b0b0b0; stroke-width: 0.8; stroke-linecap: square"/>
     </g>
     <g id="line2d_12">
      <g>
       <use xlink:href="#m1fb5c60f79" x="317.4912" y="298.944" style="stroke: #000000; stroke-width: 0.8"/>
      </g>
     </g>
     <g id="text_4">
      <!-- 6 -->
      <g transform="translate(312.083075 318.861344)scale(0.17 -0.17)">
       <defs>
        <path id="DejaVuSans-36" d="M 2113 2584 
Q 1688 2584 1439 2293 
Q 1191 2003 1191 1497 
Q 1191 994 1439 701 
Q 1688 409 2113 409 
Q 2538 409 2786 701 
Q 3034 994 3034 1497 
Q 3034 2003 2786 2293 
Q 2538 2584 2113 2584 
z
M 3366 4563 
L 3366 3988 
Q 3128 4100 2886 4159 
Q 2644 4219 2406 4219 
Q 1781 4219 1451 3797 
Q 1122 3375 1075 2522 
Q 1259 2794 1537 2939 
Q 1816 3084 2150 3084 
Q 2853 3084 3261 2657 
Q 3669 2231 3669 1497 
Q 3669 778 3244 343 
Q 2819 -91 2113 -91 
Q 1303 -91 875 529 
Q 447 1150 447 2328 
Q 447 3434 972 4092 
Q 1497 4750 2381 4750 
Q 2619 4750 2861 4703 
Q 3103 4656 3366 4563 
z
" transform="scale(0.015625)"/>
       </defs>
       <use xlink:href="#DejaVuSans-36"/>
      </g>
     </g>
    </g>
    <g id="xtick_5">
     <g id="line2d_13">
      <path d="M 100.9152 298.944 
L 100.9152 6.912 
" clip-path="url(#p14d3c670a7)" style="fill: none; stroke: #b0b0b0; stroke-width: 0.8; stroke-linecap: square"/>
     </g>
     <g id="line2d_14">
      <defs>
       <path id="m565b0335bd" d="M 0 0 
L 0 2 
" style="stroke: #000000; stroke-width: 0.6"/>
      </defs>
      <g>
       <use xlink:href="#m565b0335bd" x="100.9152" y="298.944" style="stroke: #000000; stroke-width: 0.6"/>
      </g>
     </g>
    </g>
    <g id="xtick_6">
     <g id="line2d_15">
      <path d="M 187.5456 298.944 
L 187.5456 6.912 
" clip-path="url(#p14d3c670a7)" style="fill: none; stroke: #b0b0b0; stroke-width: 0.8; stroke-linecap: square"/>
     </g>
     <g id="line2d_16">
      <g>
       <use xlink:href="#m565b0335bd" x="187.5456" y="298.944" style="stroke: #000000; stroke-width: 0.6"/>
      </g>
     </g>
    </g>
    <g id="xtick_7">
     <g id="line2d_17">
      <path d="M 274.176 298.944 
L 274.176 6.912 
" clip-path="url(#p14d3c670a7)" style="fill: none; stroke: #b0b0b0; stroke-width: 0.8; stroke-linecap: square"/>
     </g>
     <g id="line2d_18">
      <g>
       <use xlink:href="#m565b0335bd" x="274.176" y="298.944" style="stroke: #000000; stroke-width: 0.6"/>
      </g>
     </g>
    </g>
    <g id="xtick_8">
     <g id="line2d_19">
      <path d="M 360.8064 298.944 
L 360.8064 6.912 
" clip-path="url(#p14d3c670a7)" style="fill: none; stroke: #b0b0b0; stroke-width: 0.8; stroke-linecap: square"/>
     </g>
     <g id="line2d_20">
      <g>
       <use xlink:href="#m565b0335bd" x="360.8064" y="298.944" style="stroke: #000000; stroke-width: 0.6"/>
      </g>
     </g>
    </g>
    <g id="text_5">
     <!-- log10(# f-evals / dimension) -->
     <g transform="translate(88.823278 339.314156)scale(0.17 -0.17)">
      <defs>
       <path id="DejaVuSans-6c" d="M 603 4863 
L 1178 4863 
L 1178 0 
L 603 0 
L 603 4863 
z
" transform="scale(0.015625)"/>
       <path id="DejaVuSans-6f" d="M 1959 3097 
Q 1497 3097 1228 2736 
Q 959 2375 959 1747 
Q 959 1119 1226 758 
Q 1494 397 1959 397 
Q 2419 397 2687 759 
Q 2956 1122 2956 1747 
Q 2956 2369 2687 2733 
Q 2419 3097 1959 3097 
z
M 1959 3584 
Q 2709 3584 3137 3096 
Q 3566 2609 3566 1747 
Q 3566 888 3137 398 
Q 2709 -91 1959 -91 
Q 1206 -91 779 398 
Q 353 888 353 1747 
Q 353 2609 779 3096 
Q 1206 3584 1959 3584 
z
" transform="scale(0.015625)"/>
       <path id="DejaVuSans-67" d="M 2906 1791 
Q 2906 2416 2648 2759 
Q 2391 3103 1925 3103 
Q 1463 3103 1205 2759 
Q 947 2416 947 1791 
Q 947 1169 1205 825 
Q 1463 481 1925 481 
Q 2391 481 2648 825 
Q 2906 1169 2906 1791 
z
M 3481 434 
Q 3481 -459 3084 -895 
Q 2688 -1331 1869 -1331 
Q 1566 -1331 1297 -1286 
Q 1028 -1241 775 -1147 
L 775 -588 
Q 1028 -725 1275 -790 
Q 1522 -856 1778 -856 
Q 2344 -856 2625 -561 
Q 2906 -266 2906 331 
L 2906 616 
Q 2728 306 2450 153 
Q 2172 0 1784 0 
Q 1141 0 747 490 
Q 353 981 353 1791 
Q 353 2603 747 3093 
Q 1141 3584 1784 3584 
Q 2172 3584 2450 3431 
Q 2728 3278 2906 2969 
L 2906 3500 
L 3481 3500 
L 3481 434 
z
" transform="scale(0.015625)"/>
       <path id="DejaVuSans-31" d="M 794 531 
L 1825 531 
L 1825 4091 
L 703 3866 
L 703 4441 
L 1819 4666 
L 2450 4666 
L 2450 531 
L 3481 531 
L 3481 0 
L 794 0 
L 794 531 
z
" transform="scale(0.015625)"/>
       <path id="DejaVuSans-28" d="M 1984 4856 
Q 1566 4138 1362 3434 
Q 1159 2731 1159 2009 
Q 1159 1288 1364 580 
Q 1569 -128 1984 -844 
L 1484 -844 
Q 1016 -109 783 600 
Q 550 1309 550 2009 
Q 550 2706 781 3412 
Q 1013 4119 1484 4856 
L 1984 4856 
z
" transform="scale(0.015625)"/>
       <path id="DejaVuSans-23" d="M 3272 2816 
L 2363 2816 
L 2100 1772 
L 3016 1772 
L 3272 2816 
z
M 2803 4594 
L 2478 3297 
L 3391 3297 
L 3719 4594 
L 4219 4594 
L 3897 3297 
L 4872 3297 
L 4872 2816 
L 3775 2816 
L 3519 1772 
L 4513 1772 
L 4513 1294 
L 3397 1294 
L 3072 0 
L 2572 0 
L 2894 1294 
L 1978 1294 
L 1656 0 
L 1153 0 
L 1478 1294 
L 494 1294 
L 494 1772 
L 1594 1772 
L 1856 2816 
L 850 2816 
L 850 3297 
L 1978 3297 
L 2297 4594 
L 2803 4594 
z
" transform="scale(0.015625)"/>
       <path id="DejaVuSans-20" transform="scale(0.015625)"/>
       <path id="DejaVuSans-66" d="M 2375 4863 
L 2375 4384 
L 1825 4384 
Q 1516 4384 1395 4259 
Q 1275 4134 1275 3809 
L 1275 3500 
L 2222 3500 
L 2222 3053 
L 1275 3053 
L 1275 0 
L 697 0 
L 697 3053 
L 147 3053 
L 147 3500 
L 697 3500 
L 697 3744 
Q 697 4328 969 4595 
Q 1241 4863 1831 4863 
L 2375 4863 
z
" transform="scale(0.015625)"/>
       <path id="DejaVuSans-2d" d="M 313 2009 
L 1997 2009 
L 1997 1497 
L 313 1497 
L 313 2009 
z
" transform="scale(0.015625)"/>
       <path id="DejaVuSans-65" d="M 3597 1894 
L 3597 1613 
L 953 1613 
Q 991 1019 1311 708 
Q 1631 397 2203 397 
Q 2534 397 2845 478 
Q 3156 559 3463 722 
L 3463 178 
Q 3153 47 2828 -22 
Q 2503 -91 2169 -91 
Q 1331 -91 842 396 
Q 353 884 353 1716 
Q 353 2575 817 3079 
Q 1281 3584 2069 3584 
Q 2775 3584 3186 3129 
Q 3597 2675 3597 1894 
z
M 3022 2063 
Q 3016 2534 2758 2815 
Q 2500 3097 2075 3097 
Q 1594 3097 1305 2825 
Q 1016 2553 972 2059 
L 3022 2063 
z
" transform="scale(0.015625)"/>
       <path id="DejaVuSans-76" d="M 191 3500 
L 800 3500 
L 1894 563 
L 2988 3500 
L 3597 3500 
L 2284 0 
L 1503 0 
L 191 3500 
z
" transform="scale(0.015625)"/>
       <path id="DejaVuSans-61" d="M 2194 1759 
Q 1497 1759 1228 1600 
Q 959 1441 959 1056 
Q 959 750 1161 570 
Q 1363 391 1709 391 
Q 2188 391 2477 730 
Q 2766 1069 2766 1631 
L 2766 1759 
L 2194 1759 
z
M 3341 1997 
L 3341 0 
L 2766 0 
L 2766 531 
Q 2569 213 2275 61 
Q 1981 -91 1556 -91 
Q 1019 -91 701 211 
Q 384 513 384 1019 
Q 384 1609 779 1909 
Q 1175 2209 1959 2209 
L 2766 2209 
L 2766 2266 
Q 2766 2663 2505 2880 
Q 2244 3097 1772 3097 
Q 1472 3097 1187 3025 
Q 903 2953 641 2809 
L 641 3341 
Q 956 3463 1253 3523 
Q 1550 3584 1831 3584 
Q 2591 3584 2966 3190 
Q 3341 2797 3341 1997 
z
" transform="scale(0.015625)"/>
       <path id="DejaVuSans-73" d="M 2834 3397 
L 2834 2853 
Q 2591 2978 2328 3040 
Q 2066 3103 1784 3103 
Q 1356 3103 1142 2972 
Q 928 2841 928 2578 
Q 928 2378 1081 2264 
Q 1234 2150 1697 2047 
L 1894 2003 
Q 2506 1872 2764 1633 
Q 3022 1394 3022 966 
Q 3022 478 2636 193 
Q 2250 -91 1575 -91 
Q 1294 -91 989 -36 
Q 684 19 347 128 
L 347 722 
Q 666 556 975 473 
Q 1284 391 1588 391 
Q 1994 391 2212 530 
Q 2431 669 2431 922 
Q 2431 1156 2273 1281 
Q 2116 1406 1581 1522 
L 1381 1569 
Q 847 1681 609 1914 
Q 372 2147 372 2553 
Q 372 3047 722 3315 
Q 1072 3584 1716 3584 
Q 2034 3584 2315 3537 
Q 2597 3491 2834 3397 
z
" transform="scale(0.015625)"/>
       <path id="DejaVuSans-2f" d="M 1625 4666 
L 2156 4666 
L 531 -594 
L 0 -594 
L 1625 4666 
z
" transform="scale(0.015625)"/>
       <path id="DejaVuSans-64" d="M 2906 2969 
L 2906 4863 
L 3481 4863 
L 3481 0 
L 2906 0 
L 2906 525 
Q 2725 213 2448 61 
Q 2172 -91 1784 -91 
Q 1150 -91 751 415 
Q 353 922 353 1747 
Q 353 2572 751 3078 
Q 1150 3584 1784 3584 
Q 2172 3584 2448 3432 
Q 2725 3281 2906 2969 
z
M 947 1747 
Q 947 1113 1208 752 
Q 1469 391 1925 391 
Q 2381 391 2643 752 
Q 2906 1113 2906 1747 
Q 2906 2381 2643 2742 
Q 2381 3103 1925 3103 
Q 1469 3103 1208 2742 
Q 947 2381 947 1747 
z
" transform="scale(0.015625)"/>
       <path id="DejaVuSans-69" d="M 603 3500 
L 1178 3500 
L 1178 0 
L 603 0 
L 603 3500 
z
M 603 4863 
L 1178 4863 
L 1178 4134 
L 603 4134 
L 603 4863 
z
" transform="scale(0.015625)"/>
       <path id="DejaVuSans-6d" d="M 3328 2828 
Q 3544 3216 3844 3400 
Q 4144 3584 4550 3584 
Q 5097 3584 5394 3201 
Q 5691 2819 5691 2113 
L 5691 0 
L 5113 0 
L 5113 2094 
Q 5113 2597 4934 2840 
Q 4756 3084 4391 3084 
Q 3944 3084 3684 2787 
Q 3425 2491 3425 1978 
L 3425 0 
L 2847 0 
L 2847 2094 
Q 2847 2600 2669 2842 
Q 2491 3084 2119 3084 
Q 1678 3084 1418 2786 
Q 1159 2488 1159 1978 
L 1159 0 
L 581 0 
L 581 3500 
L 1159 3500 
L 1159 2956 
Q 1356 3278 1631 3431 
Q 1906 3584 2284 3584 
Q 2666 3584 2933 3390 
Q 3200 3197 3328 2828 
z
" transform="scale(0.015625)"/>
       <path id="DejaVuSans-6e" d="M 3513 2113 
L 3513 0 
L 2938 0 
L 2938 2094 
Q 2938 2591 2744 2837 
Q 2550 3084 2163 3084 
Q 1697 3084 1428 2787 
Q 1159 2491 1159 1978 
L 1159 0 
L 581 0 
L 581 3500 
L 1159 3500 
L 1159 2956 
Q 1366 3272 1645 3428 
Q 1925 3584 2291 3584 
Q 2894 3584 3203 3211 
Q 3513 2838 3513 2113 
z
" transform="scale(0.015625)"/>
       <path id="DejaVuSans-29" d="M 513 4856 
L 1013 4856 
Q 1481 4119 1714 3412 
Q 1947 2706 1947 2009 
Q 1947 1309 1714 600 
Q 1481 -109 1013 -844 
L 513 -844 
Q 928 -128 1133 580 
Q 1338 1288 1338 2009 
Q 1338 2731 1133 3434 
Q 928 4138 513 4856 
z
" transform="scale(0.015625)"/>
      </defs>
      <use xlink:href="#DejaVuSans-6c"/>
      <use xlink:href="#DejaVuSans-6f" x="27.783203"/>
      <use xlink:href="#DejaVuSans-67" x="88.964844"/>
      <use xlink:href="#DejaVuSans-31" x="152.441406"/>
      <use xlink:href="#DejaVuSans-30" x="216.064453"/>
      <use xlink:href="#DejaVuSans-28" x="279.6875"/>
      <use xlink:href="#DejaVuSans-23" x="318.701172"/>
      <use xlink:href="#DejaVuSans-20" x="402.490234"/>
      <use xlink:href="#DejaVuSans-66" x="434.277344"/>
      <use xlink:href="#DejaVuSans-2d" x="463.982422"/>
      <use xlink:href="#DejaVuSans-65" x="500.066406"/>
      <use xlink:href="#DejaVuSans-76" x="561.589844"/>
      <use xlink:href="#DejaVuSans-61" x="620.769531"/>
      <use xlink:href="#DejaVuSans-6c" x="682.048828"/>
      <use xlink:href="#DejaVuSans-73" x="709.832031"/>
      <use xlink:href="#DejaVuSans-20" x="761.931641"/>
      <use xlink:href="#DejaVuSans-2f" x="793.71875"/>
      <use xlink:href="#DejaVuSans-20" x="827.410156"/>
      <use xlink:href="#DejaVuSans-64" x="859.197266"/>
      <use xlink:href="#DejaVuSans-69" x="922.673828"/>
      <use xlink:href="#DejaVuSans-6d" x="950.457031"/>
      <use xlink:href="#DejaVuSans-65" x="1047.869141"/>
      <use xlink:href="#DejaVuSans-6e" x="1109.392578"/>
      <use xlink:href="#DejaVuSans-73" x="1172.771484"/>
      <use xlink:href="#DejaVuSans-69" x="1224.871094"/>
      <use xlink:href="#DejaVuSans-6f" x="1252.654297"/>
      <use xlink:href="#DejaVuSans-6e" x="1313.835938"/>
      <use xlink:href="#DejaVuSans-29" x="1377.214844"/>
     </g>
    </g>
   </g>
   <g id="matplotlib.axis_2">
    <g id="ytick_1">
     <g id="line2d_21">
      <path d="M 57.6 298.944 
L 360.8064 298.944 
" clip-path="url(#p14d3c670a7)" style="fill: none; stroke: #b0b0b0; stroke-width: 0.8; stroke-linecap: square"/>
     </g>
     <g id="line2d_22">
      <defs>
       <path id="mc8f9be5fb3" d="M 0 0 
L -3.5 0 
" style="stroke: #000000; stroke-width: 0.8"/>
      </defs>
      <g>
       <use xlink:href="#mc8f9be5fb3" x="57.6" y="298.944" style="stroke: #000000; stroke-width: 0.8"/>
      </g>
     </g>
     <g id="text_6">
      <!-- 0.0 -->
      <g transform="translate(25.155 305.02275)scale(0.16 -0.16)">
       <defs>
        <path id="DejaVuSans-2e" d="M 684 794 
L 1344 794 
L 1344 0 
L 684 0 
L 684 794 
z
" transform="scale(0.015625)"/>
       </defs>
       <use xlink:href="#DejaVuSans-30"/>
       <use xlink:href="#DejaVuSans-2e" x="63.623047"/>
       <use xlink:href="#DejaVuSans-30" x="95.410156"/>
      </g>
     </g>
    </g>
    <g id="ytick_2">
     <g id="line2d_23">
      <path d="M 57.6 240.5376 
L 360.8064 240.5376 
" clip-path="url(#p14d3c670a7)" style="fill: none; stroke: #b0b0b0; stroke-width: 0.8; stroke-linecap: square"/>
     </g>
     <g id="line2d_24">
      <g>
       <use xlink:href="#mc8f9be5fb3" x="57.6" y="240.5376" style="stroke: #000000; stroke-width: 0.8"/>
      </g>
     </g>
     <g id="text_7">
      <!-- 0.2 -->
      <g transform="translate(25.155 246.61635)scale(0.16 -0.16)">
       <use xlink:href="#DejaVuSans-30"/>
       <use xlink:href="#DejaVuSans-2e" x="63.623047"/>
       <use xlink:href="#DejaVuSans-32" x="95.410156"/>
      </g>
     </g>
    </g>
    <g id="ytick_3">
     <g id="line2d_25">
      <path d="M 57.6 182.1312 
L 360.8064 182.1312 
" clip-path="url(#p14d3c670a7)" style="fill: none; stroke: #b0b0b0; stroke-width: 0.8; stroke-linecap: square"/>
     </g>
     <g id="line2d_26">
      <g>
       <use xlink:href="#mc8f9be5fb3" x="57.6" y="182.1312" style="stroke: #000000; stroke-width: 0.8"/>
      </g>
     </g>
     <g id="text_8">
      <!-- 0.4 -->
      <g transform="translate(25.155 188.20995)scale(0.16 -0.16)">
       <use xlink:href="#DejaVuSans-30"/>
       <use xlink:href="#DejaVuSans-2e" x="63.623047"/>
       <use xlink:href="#DejaVuSans-34" x="95.410156"/>
      </g>
     </g>
    </g>
    <g id="ytick_4">
     <g id="line2d_27">
      <path d="M 57.6 123.7248 
L 360.8064 123.7248 
" clip-path="url(#p14d3c670a7)" style="fill: none; stroke: #b0b0b0; stroke-width: 0.8; stroke-linecap: square"/>
     </g>
     <g id="line2d_28">
      <g>
       <use xlink:href="#mc8f9be5fb3" x="57.6" y="123.7248" style="stroke: #000000; stroke-width: 0.8"/>
      </g>
     </g>
     <g id="text_9">
      <!-- 0.6 -->
      <g transform="translate(25.155 129.80355)scale(0.16 -0.16)">
       <use xlink:href="#DejaVuSans-30"/>
       <use xlink:href="#DejaVuSans-2e" x="63.623047"/>
       <use xlink:href="#DejaVuSans-36" x="95.410156"/>
      </g>
     </g>
    </g>
    <g id="ytick_5">
     <g id="line2d_29">
      <path d="M 57.6 65.3184 
L 360.8064 65.3184 
" clip-path="url(#p14d3c670a7)" style="fill: none; stroke: #b0b0b0; stroke-width: 0.8; stroke-linecap: square"/>
     </g>
     <g id="line2d_30">
      <g>
       <use xlink:href="#mc8f9be5fb3" x="57.6" y="65.3184" style="stroke: #000000; stroke-width: 0.8"/>
      </g>
     </g>
     <g id="text_10">
      <!-- 0.8 -->
      <g transform="translate(25.155 71.39715)scale(0.16 -0.16)">
       <defs>
        <path id="DejaVuSans-38" d="M 2034 2216 
Q 1584 2216 1326 1975 
Q 1069 1734 1069 1313 
Q 1069 891 1326 650 
Q 1584 409 2034 409 
Q 2484 409 2743 651 
Q 3003 894 3003 1313 
Q 3003 1734 2745 1975 
Q 2488 2216 2034 2216 
z
M 1403 2484 
Q 997 2584 770 2862 
Q 544 3141 544 3541 
Q 544 4100 942 4425 
Q 1341 4750 2034 4750 
Q 2731 4750 3128 4425 
Q 3525 4100 3525 3541 
Q 3525 3141 3298 2862 
Q 3072 2584 2669 2484 
Q 3125 2378 3379 2068 
Q 3634 1759 3634 1313 
Q 3634 634 3220 271 
Q 2806 -91 2034 -91 
Q 1263 -91 848 271 
Q 434 634 434 1313 
Q 434 1759 690 2068 
Q 947 2378 1403 2484 
z
M 1172 3481 
Q 1172 3119 1398 2916 
Q 1625 2713 2034 2713 
Q 2441 2713 2670 2916 
Q 2900 3119 2900 3481 
Q 2900 3844 2670 4047 
Q 2441 4250 2034 4250 
Q 1625 4250 1398 4047 
Q 1172 3844 1172 3481 
z
" transform="scale(0.015625)"/>
       </defs>
       <use xlink:href="#DejaVuSans-30"/>
       <use xlink:href="#DejaVuSans-2e" x="63.623047"/>
       <use xlink:href="#DejaVuSans-38" x="95.410156"/>
      </g>
     </g>
    </g>
    <g id="ytick_6">
     <g id="line2d_31">
      <path d="M 57.6 6.912 
L 360.8064 6.912 
" clip-path="url(#p14d3c670a7)" style="fill: none; stroke: #b0b0b0; stroke-width: 0.8; stroke-linecap: square"/>
     </g>
     <g id="line2d_32">
      <g>
       <use xlink:href="#mc8f9be5fb3" x="57.6" y="6.912" style="stroke: #000000; stroke-width: 0.8"/>
      </g>
     </g>
     <g id="text_11">
      <!-- 1.0 -->
      <g transform="translate(25.155 12.99075)scale(0.16 -0.16)">
       <use xlink:href="#DejaVuSans-31"/>
       <use xlink:href="#DejaVuSans-2e" x="63.623047"/>
       <use xlink:href="#DejaVuSans-30" x="95.410156"/>
      </g>
     </g>
    </g>
    <g id="text_12">
     <!-- Fraction of function,target pairs -->
     <g transform="translate(17.619531 287.313)rotate(-90)scale(0.17 -0.17)">
      <defs>
       <path id="DejaVuSans-46" d="M 628 4666 
L 3309 4666 
L 3309 4134 
L 1259 4134 
L 1259 2759 
L 3109 2759 
L 3109 2228 
L 1259 2228 
L 1259 0 
L 628 0 
L 628 4666 
z
" transform="scale(0.015625)"/>
       <path id="DejaVuSans-72" d="M 2631 2963 
Q 2534 3019 2420 3045 
Q 2306 3072 2169 3072 
Q 1681 3072 1420 2755 
Q 1159 2438 1159 1844 
L 1159 0 
L 581 0 
L 581 3500 
L 1159 3500 
L 1159 2956 
Q 1341 3275 1631 3429 
Q 1922 3584 2338 3584 
Q 2397 3584 2469 3576 
Q 2541 3569 2628 3553 
L 2631 2963 
z
" transform="scale(0.015625)"/>
       <path id="DejaVuSans-63" d="M 3122 3366 
L 3122 2828 
Q 2878 2963 2633 3030 
Q 2388 3097 2138 3097 
Q 1578 3097 1268 2742 
Q 959 2388 959 1747 
Q 959 1106 1268 751 
Q 1578 397 2138 397 
Q 2388 397 2633 464 
Q 2878 531 3122 666 
L 3122 134 
Q 2881 22 2623 -34 
Q 2366 -91 2075 -91 
Q 1284 -91 818 406 
Q 353 903 353 1747 
Q 353 2603 823 3093 
Q 1294 3584 2113 3584 
Q 2378 3584 2631 3529 
Q 2884 3475 3122 3366 
z
" transform="scale(0.015625)"/>
       <path id="DejaVuSans-74" d="M 1172 4494 
L 1172 3500 
L 2356 3500 
L 2356 3053 
L 1172 3053 
L 1172 1153 
Q 1172 725 1289 603 
Q 1406 481 1766 481 
L 2356 481 
L 2356 0 
L 1766 0 
Q 1100 0 847 248 
Q 594 497 594 1153 
L 594 3053 
L 172 3053 
L 172 3500 
L 594 3500 
L 594 4494 
L 1172 4494 
z
" transform="scale(0.015625)"/>
       <path id="DejaVuSans-75" d="M 544 1381 
L 544 3500 
L 1119 3500 
L 1119 1403 
Q 1119 906 1312 657 
Q 1506 409 1894 409 
Q 2359 409 2629 706 
Q 2900 1003 2900 1516 
L 2900 3500 
L 3475 3500 
L 3475 0 
L 2900 0 
L 2900 538 
Q 2691 219 2414 64 
Q 2138 -91 1772 -91 
Q 1169 -91 856 284 
Q 544 659 544 1381 
z
M 1991 3584 
L 1991 3584 
z
" transform="scale(0.015625)"/>
       <path id="DejaVuSans-2c" d="M 750 794 
L 1409 794 
L 1409 256 
L 897 -744 
L 494 -744 
L 750 256 
L 750 794 
z
" transform="scale(0.015625)"/>
       <path id="DejaVuSans-70" d="M 1159 525 
L 1159 -1331 
L 581 -1331 
L 581 3500 
L 1159 3500 
L 1159 2969 
Q 1341 3281 1617 3432 
Q 1894 3584 2278 3584 
Q 2916 3584 3314 3078 
Q 3713 2572 3713 1747 
Q 3713 922 3314 415 
Q 2916 -91 2278 -91 
Q 1894 -91 1617 61 
Q 1341 213 1159 525 
z
M 3116 1747 
Q 3116 2381 2855 2742 
Q 2594 3103 2138 3103 
Q 1681 3103 1420 2742 
Q 1159 2381 1159 1747 
Q 1159 1113 1420 752 
Q 1681 391 2138 391 
Q 2594 391 2855 752 
Q 3116 1113 3116 1747 
z
" transform="scale(0.015625)"/>
      </defs>
      <use xlink:href="#DejaVuSans-46"/>
      <use xlink:href="#DejaVuSans-72" x="50.269531"/>
      <use xlink:href="#DejaVuSans-61" x="91.382812"/>
      <use xlink:href="#DejaVuSans-63" x="152.662109"/>
      <use xlink:href="#DejaVuSans-74" x="207.642578"/>
      <use xlink:href="#DejaVuSans-69" x="246.851562"/>
      <use xlink:href="#DejaVuSans-6f" x="274.634766"/>
      <use xlink:href="#DejaVuSans-6e" x="335.816406"/>
      <use xlink:href="#DejaVuSans-20" x="399.195312"/>
      <use xlink:href="#DejaVuSans-6f" x="430.982422"/>
      <use xlink:href="#DejaVuSans-66" x="492.164062"/>
      <use xlink:href="#DejaVuSans-20" x="527.369141"/>
      <use xlink:href="#DejaVuSans-66" x="559.15625"/>
      <use xlink:href="#DejaVuSans-75" x="594.361328"/>
      <use xlink:href="#DejaVuSans-6e" x="657.740234"/>
      <use xlink:href="#DejaVuSans-63" x="721.119141"/>
      <use xlink:href="#DejaVuSans-74" x="776.099609"/>
      <use xlink:href="#DejaVuSans-69" x="815.308594"/>
      <use xlink:href="#DejaVuSans-6f" x="843.091797"/>
      <use xlink:href="#DejaVuSans-6e" x="904.273438"/>
      <use xlink:href="#DejaVuSans-2c" x="967.652344"/>
      <use xlink:href="#DejaVuSans-74" x="999.439453"/>
      <use xlink:href="#DejaVuSans-61" x="1038.648438"/>
      <use xlink:href="#DejaVuSans-72" x="1099.927734"/>
      <use xlink:href="#DejaVuSans-67" x="1139.291016"/>
      <use xlink:href="#DejaVuSans-65" x="1202.767578"/>
      <use xlink:href="#DejaVuSans-74" x="1264.291016"/>
      <use xlink:href="#DejaVuSans-20" x="1303.5"/>
      <use xlink:href="#DejaVuSans-70" x="1335.287109"/>
      <use xlink:href="#DejaVuSans-61" x="1398.763672"/>
      <use xlink:href="#DejaVuSans-69" x="1460.042969"/>
      <use xlink:href="#DejaVuSans-72" x="1487.826172"/>
      <use xlink:href="#DejaVuSans-73" x="1528.939453"/>
     </g>
    </g>
   </g>
   <g id="line2d_33">
    <defs>
     <path id="m0c158003e7" d="M 0 1.5 
C 0.397805 1.5 0.77937 1.341951 1.06066 1.06066 
C 1.341951 0.77937 1.5 0.397805 1.5 0 
C 1.5 -0.397805 1.341951 -0.77937 1.06066 -1.06066 
C 0.77937 -1.341951 0.397805 -1.5 0 -1.5 
C -0.397805 -1.5 -0.77937 -1.341951 -1.06066 -1.06066 
C -1.341951 -0.77937 -1.5 -0.397805 -1.5 0 
C -1.5 0.397805 -1.341951 0.77937 -1.06066 1.06066 
C -0.77937 1.341951 -0.397805 1.5 0 1.5 
z
" style="stroke: #f5deb3"/>
    </defs>
    <g>
     <use xlink:href="#m0c158003e7" x="297.079213" y="6.912" style="fill: #f5deb3; stroke: #f5deb3"/>
     <use xlink:href="#m0c158003e7" x="297.079213" y="6.912" style="fill: #f5deb3; stroke: #f5deb3"/>
    </g>
   </g>
   <g id="line2d_34">
    <defs>
     <path id="md2e48994bf" d="M 0 1.5 
C 0.397805 1.5 0.77937 1.341951 1.06066 1.06066 
C 1.341951 0.77937 1.5 0.397805 1.5 0 
C 1.5 -0.397805 1.341951 -0.77937 1.06066 -1.06066 
C 0.77937 -1.341951 0.397805 -1.5 0 -1.5 
C -0.397805 -1.5 -0.77937 -1.341951 -1.06066 -1.06066 
C -1.341951 -0.77937 -1.5 -0.397805 -1.5 0 
C -1.5 0.397805 -1.341951 0.77937 -1.06066 1.06066 
C -0.77937 1.341951 -0.397805 1.5 0 1.5 
z
" style="stroke: #000080"/>
    </defs>
    <g>
     <use xlink:href="#md2e48994bf" x="350.561499" y="248.554165" style="fill: #000080; stroke: #000080"/>
     <use xlink:href="#md2e48994bf" x="350.561499" y="248.554165" style="fill: #000080; stroke: #000080"/>
    </g>
   </g>
   <g id="line2d_35">
    <path d="M 1.245626 298.944 
L 1.245626 292.759793 
L 14.2848 292.759793 
L 14.2848 290.851087 
L 21.912228 290.851087 
L 21.912228 290.316649 
L 27.323974 290.316649 
L 27.323974 289.705864 
L 31.521651 289.705864 
L 31.521651 289.247774 
L 34.951403 289.247774 
L 34.951403 288.636988 
L 37.851216 288.636988 
L 37.851216 288.255247 
L 42.578831 288.178899 
L 42.578831 288.026202 
L 44.560826 288.026202 
L 44.560826 287.644461 
L 47.990577 287.568113 
L 47.990577 287.415416 
L 50.890391 287.415416 
L 50.890391 287.033675 
L 52.188254 287.033675 
L 52.188254 286.880979 
L 54.542767 286.804631 
L 54.542767 286.728282 
L 56.635094 286.651934 
L 56.635094 286.499238 
L 57.6 286.499238 
L 57.6 286.193845 
L 61.029752 286.117496 
L 61.029752 286.041148 
L 62.535479 285.9648 
L 62.535479 285.735755 
L 63.245433 285.735755 
L 63.245433 285.583059 
L 64.589687 285.583059 
L 64.589687 285.430362 
L 65.844256 285.354014 
L 65.844256 285.277666 
L 68.127242 285.277666 
L 68.127242 285.048621 
L 69.674268 284.972273 
L 69.674268 284.895925 
L 71.999638 284.819576 
L 71.999638 284.743228 
L 74.068926 284.66688 
L 74.068926 284.590532 
L 76.629783 284.514184 
L 76.629783 284.437835 
L 77.950435 284.361487 
L 77.950435 284.285139 
L 80.342421 284.208791 
L 80.342421 284.132442 
L 83.912036 284.056094 
L 83.912036 283.979746 
L 84.818792 283.903398 
L 84.818792 283.827049 
L 89.14879 283.750701 
L 89.14879 283.598005 
L 89.497162 283.598005 
L 89.497162 283.445308 
L 92.811505 283.36896 
L 92.811505 283.292612 
L 94.995002 283.216264 
L 94.995002 283.139915 
L 96.361458 283.063567 
L 96.361458 282.987219 
L 97.857967 282.910871 
L 97.857967 282.834522 
L 100.049042 282.758174 
L 100.049042 282.681826 
L 105.26277 282.605478 
L 105.337272 282.452781 
L 113.381389 282.376433 
L 113.381389 282.300085 
L 118.189637 282.223736 
L 118.264583 281.689299 
L 118.339232 281.612951 
L 118.413586 281.383906 
L 118.450653 281.383906 
L 118.561419 281.002165 
L 118.671535 280.925816 
L 118.708098 280.77312 
L 118.925995 280.696772 
L 119.034004 280.467727 
L 119.105667 280.391379 
L 119.105667 280.238682 
L 119.35436 280.162334 
L 119.424815 280.009638 
L 119.530006 279.933289 
L 119.564939 279.704245 
L 119.738639 279.627896 
L 119.842094 279.398852 
L 119.979155 279.322504 
L 119.979155 279.246155 
L 120.351004 279.169807 
L 120.351004 279.093459 
L 120.715645 279.017111 
L 120.748446 278.864414 
L 120.944062 278.788066 
L 120.944062 278.711718 
L 121.169739 278.635369 
L 121.265635 278.406325 
L 121.297492 278.406325 
L 121.329295 278.17728 
L 121.644403 278.100932 
L 121.644403 278.024584 
L 122.499621 277.948235 
L 122.559246 277.642842 
L 122.618682 277.642842 
L 122.618682 277.490146 
L 122.913079 277.413798 
L 122.942266 277.261101 
L 123.145323 277.184753 
L 123.202939 276.955708 
L 123.85314 276.87936 
L 123.936316 276.650315 
L 124.046648 276.573967 
L 124.128974 276.421271 
L 124.454723 276.344922 
L 124.454723 276.268574 
L 125.141738 276.192226 
L 125.219419 275.886833 
L 125.399435 275.810485 
L 125.399435 275.734136 
L 125.804545 275.657788 
L 125.904473 275.505092 
L 126.053378 275.428744 
L 126.078082 275.276047 
L 126.298963 275.199699 
L 126.298963 275.123351 
L 127.29678 275.047002 
L 127.29678 274.970654 
L 128.288276 274.894306 
L 128.288276 274.817958 
L 128.484801 274.817958 
L 128.50651 274.588913 
L 128.935527 274.512565 
L 128.935527 274.436216 
L 130.344755 274.359868 
L 130.344755 274.28352 
L 133.623039 274.207172 
L 133.623039 274.130824 
L 135.024208 274.054475 
L 135.024208 273.978127 
L 135.388902 273.901779 
L 135.403945 273.749082 
L 136.794809 273.672734 
L 136.794809 273.596386 
L 138.464186 273.520038 
L 138.464186 273.443689 
L 139.129595 273.367341 
L 139.191172 273.214645 
L 139.807999 273.138296 
L 139.855533 272.9856 
L 141.48048 272.909252 
L 141.589029 272.756555 
L 142.175106 272.680207 
L 142.175106 272.603859 
L 142.784148 272.527511 
L 142.784148 272.451162 
L 143.48206 272.374814 
L 143.48206 272.298466 
L 144.145557 272.222118 
L 144.211579 272.069421 
L 148.109358 271.993073 
L 148.109358 271.916725 
L 148.390416 271.916725 
L 148.390416 271.764028 
L 148.932916 271.68768 
L 148.932916 271.611332 
L 150.364115 271.534984 
L 150.364115 271.458635 
L 153.235783 271.382287 
L 153.235783 271.305939 
L 154.519655 271.229591 
L 154.519655 271.153242 
L 155.613934 271.076894 
L 155.644723 270.924198 
L 157.623641 270.847849 
L 157.623641 270.771501 
L 159.220034 270.695153 
L 159.220034 270.618805 
L 161.788059 270.542456 
L 161.788059 270.466108 
L 163.040002 270.38976 
L 163.040002 270.313412 
L 164.151925 270.237064 
L 164.151925 270.160715 
L 165.924979 270.084367 
L 165.924979 270.008019 
L 168.887874 269.931671 
L 168.887874 269.855322 
L 170.098298 269.778974 
L 170.098298 269.702626 
L 173.125069 269.626278 
L 173.125069 269.549929 
L 173.583057 269.473581 
L 173.583057 269.397233 
L 177.235084 269.320885 
L 177.235084 269.168188 
L 177.584904 269.168188 
L 177.584904 269.015492 
L 178.983439 268.939144 
L 178.983439 268.862795 
L 180.778123 268.786447 
L 180.778123 268.710099 
L 183.404274 268.633751 
L 183.404274 268.557402 
L 185.346019 268.481054 
L 185.346019 268.404706 
L 185.984218 268.328358 
L 185.984218 268.252009 
L 189.406814 268.175661 
L 189.406814 268.099313 
L 189.524867 268.099313 
L 189.632084 267.641224 
L 190.953392 267.564875 
L 190.953392 267.488527 
L 192.958992 267.412179 
L 192.958992 267.335831 
L 200.263185 267.259482 
L 200.263185 267.183134 
L 203.44962 267.106786 
L 203.44962 267.030438 
L 204.805763 266.954089 
L 204.805763 266.877741 
L 205.468451 266.801393 
L 205.5582 266.419652 
L 208.532085 266.343304 
L 208.532085 266.266955 
L 209.503418 266.190607 
L 209.593071 265.961562 
L 211.166223 265.885214 
L 211.166223 265.808866 
L 212.73192 265.732518 
L 212.73192 265.656169 
L 214.654745 265.579821 
L 214.654745 265.503473 
L 217.578902 265.427125 
L 217.578902 265.350776 
L 217.948737 265.274428 
L 217.948737 265.19808 
L 219.877105 265.121732 
L 219.877105 265.045384 
L 220.905693 264.969035 
L 220.905693 264.892687 
L 222.68563 264.816339 
L 222.792524 264.663642 
L 223.119406 264.587294 
L 223.119406 264.510946 
L 224.972915 264.434598 
L 224.972915 264.358249 
L 227.535314 264.281901 
L 227.535314 264.205553 
L 229.128381 264.129205 
L 229.210911 263.976508 
L 229.991687 263.90016 
L 229.991687 263.823812 
L 232.641501 263.747464 
L 232.641501 263.671115 
L 234.708353 263.594767 
L 234.708353 263.518419 
L 237.586778 263.442071 
L 237.586778 263.365722 
L 239.212701 263.289374 
L 239.212701 263.213026 
L 246.354173 263.136678 
L 246.396022 262.983981 
L 249.317246 262.907633 
L 249.317246 262.831285 
L 260.062455 262.754936 
L 260.062455 262.678588 
L 261.512479 262.60224 
L 261.512479 262.525892 
L 269.034988 262.449544 
L 269.034988 262.373195 
L 273.828847 262.296847 
L 273.828847 262.220499 
L 274.190902 262.144151 
L 274.286456 261.686061 
L 274.367409 261.609713 
L 274.411201 261.151624 
L 274.657539 261.075275 
L 274.657539 260.998927 
L 274.786822 260.922579 
L 274.786822 260.769882 
L 275.082331 260.769882 
L 275.082331 260.617186 
L 275.33215 260.540838 
L 275.356299 260.311793 
L 275.503633 260.311793 
L 275.503633 260.159096 
L 276.137962 260.082748 
L 276.137962 259.930052 
L 276.776376 259.853704 
L 276.776376 259.701007 
L 281.452078 259.624659 
L 281.452078 259.548311 
L 281.846044 259.548311 
L 281.846044 259.395614 
L 287.224122 259.319266 
L 287.319383 258.174042 
L 287.458334 258.097694 
L 287.542463 257.868649 
L 287.673798 257.792301 
L 287.732582 257.639605 
L 287.828336 257.563256 
L 287.828336 257.486908 
L 287.987281 257.486908 
L 288.015679 257.257864 
L 289.249211 257.181515 
L 289.249211 257.105167 
L 290.962786 257.105167 
L 290.962786 256.876122 
L 291.20283 256.876122 
L 291.20283 256.723426 
L 294.855058 256.647078 
L 294.917611 256.265336 
L 295.00526 256.188988 
L 295.061426 255.883595 
L 295.25359 255.807247 
L 295.360845 255.578202 
L 295.596219 255.501854 
L 295.603291 255.349158 
L 295.718461 255.349158 
L 295.718461 255.196461 
L 297.760692 255.120113 
L 297.760692 254.967416 
L 300.266161 254.891068 
L 300.376474 254.356631 
L 300.574065 254.280282 
L 300.680289 254.051238 
L 300.822373 253.974889 
L 300.822373 253.898541 
L 303.979937 253.822193 
L 303.979937 253.669496 
L 304.468287 253.669496 
L 304.497067 253.211407 
L 304.69634 253.135059 
L 304.764681 252.982362 
L 307.902303 252.906014 
L 307.984968 252.600621 
L 309.215675 252.524273 
L 309.215675 252.447925 
L 310.793207 252.447925 
L 310.811422 252.142532 
L 311.074713 252.066184 
L 311.074713 251.989835 
L 313.354685 251.913487 
L 313.375881 251.760791 
L 313.626767 251.760791 
L 313.626767 251.608094 
L 315.518241 251.531746 
L 315.58243 251.226353 
L 315.816534 251.150005 
L 315.816534 251.073656 
L 317.502275 250.997308 
L 317.610065 250.691915 
L 317.696864 250.615567 
L 317.696864 250.462871 
L 319.401023 250.386522 
L 319.401023 250.310174 
L 320.931888 250.310174 
L 320.972618 249.928433 
L 322.639979 249.852085 
L 322.639979 249.775736 
L 325.12405 249.699388 
L 325.180428 249.470344 
L 326.410445 249.393995 
L 326.410445 249.317647 
L 331.452066 249.241299 
L 331.452066 249.164951 
L 334.013791 249.088602 
L 334.013791 249.012254 
L 337.522866 248.935906 
L 337.522866 248.859558 
L 341.061367 248.783209 
L 341.061367 248.706861 
L 350.561499 248.630513 
L 350.561499 248.554165 
L 360.8064 248.554165 
L 360.8064 248.554165 
" style="fill: none; stroke: #000080; stroke-width: 1.5; stroke-linecap: square"/>
   </g>
   <g id="line2d_36">
    <defs>
     <path id="m8b90e74af5" d="M 0 6 
C 1.591219 6 3.117479 5.367802 4.242641 4.242641 
C 5.367802 3.117479 6 1.591219 6 0 
C 6 -1.591219 5.367802 -3.117479 4.242641 -4.242641 
C 3.117479 -5.367802 1.591219 -6 0 -6 
C -1.591219 -6 -3.117479 -5.367802 -4.242641 -4.242641 
C -5.367802 -3.117479 -6 -1.591219 -6 0 
C -6 1.591219 -5.367802 3.117479 -4.242641 4.242641 
C -3.117479 5.367802 -1.591219 6 0 6 
z
" style="stroke: #000080; stroke-width: 1.5"/>
    </defs>
    <g>
     <use xlink:href="#m8b90e74af5" x="80.342421" y="284.208791" style="fill-opacity: 0; stroke: #000080; stroke-width: 1.5"/>
     <use xlink:href="#m8b90e74af5" x="131.471303" y="274.207172" style="fill-opacity: 0; stroke: #000080; stroke-width: 1.5"/>
     <use xlink:href="#m8b90e74af5" x="224.972915" y="264.358249" style="fill-opacity: 0; stroke: #000080; stroke-width: 1.5"/>
     <use xlink:href="#m8b90e74af5" x="303.979937" y="253.822193" style="fill-opacity: 0; stroke: #000080; stroke-width: 1.5"/>
     <use xlink:href="#m8b90e74af5" x="350.561499" y="248.554165" style="fill-opacity: 0; stroke: #000080; stroke-width: 1.5"/>
     <use xlink:href="#m8b90e74af5" x="360.8064" y="248.554165" style="fill-opacity: 0; stroke: #000080; stroke-width: 1.5"/>
    </g>
   </g>
   <g id="line2d_37">
    <path style="fill: none; stroke: #000080; stroke-width: 1.5; stroke-linecap: square"/>
    <g/>
   </g>
   <g id="line2d_38">
    <path d="M 274.176 262.220499 
" clip-path="url(#p14d3c670a7)" style="fill: none; stroke: #000080; stroke-width: 1.5; stroke-linecap: square"/>
    <defs>
     <path id="m603df3d1db" d="M -12 12 
L 12 -12 
M -12 -12 
L 12 12 
" style="stroke: #000080"/>
    </defs>
    <g clip-path="url(#p14d3c670a7)">
     <use xlink:href="#m603df3d1db" x="274.176" y="262.220499" style="fill: #000080; stroke: #000080"/>
    </g>
   </g>
   <g id="line2d_39">
    <defs>
     <path id="m85ab21f712" d="M 0 1.5 
C 0.397805 1.5 0.77937 1.341951 1.06066 1.06066 
C 1.341951 0.77937 1.5 0.397805 1.5 0 
C 1.5 -0.397805 1.341951 -0.77937 1.06066 -1.06066 
C 0.77937 -1.341951 0.397805 -1.5 0 -1.5 
C -0.397805 -1.5 -0.77937 -1.341951 -1.06066 -1.06066 
C -1.341951 -0.77937 -1.5 -0.397805 -1.5 0 
C -1.5 0.397805 -1.341951 0.77937 -1.06066 1.06066 
C -0.77937 1.341951 -0.397805 1.5 0 1.5 
z
" style="stroke: #ff00ff"/>
    </defs>
    <g>
     <use xlink:href="#m85ab21f712" x="352.472906" y="231.375812" style="fill: #ff00ff; stroke: #ff00ff"/>
     <use xlink:href="#m85ab21f712" x="352.472906" y="231.375812" style="fill: #ff00ff; stroke: #ff00ff"/>
    </g>
   </g>
   <g id="line2d_40">
    <path d="M 1.245626 298.944 
L 1.245626 292.759793 
L 14.2848 292.759793 
L 14.2848 291.15648 
L 21.912228 291.15648 
L 21.912228 290.163953 
L 31.521651 290.087605 
L 31.521651 289.400471 
L 34.951403 289.400471 
L 34.951403 288.713336 
L 37.851216 288.713336 
L 37.851216 288.178899 
L 42.578831 288.102551 
L 42.578831 287.568113 
L 47.990577 287.491765 
L 47.990577 287.26272 
L 49.496305 287.26272 
L 49.496305 287.110024 
L 52.188254 287.033675 
L 52.188254 286.880979 
L 53.402323 286.880979 
L 53.402323 286.728282 
L 56.635094 286.651934 
L 56.635094 286.575586 
L 59.392932 286.499238 
L 59.392932 286.422889 
L 64.589687 286.346541 
L 64.589687 286.270193 
L 66.441498 286.193845 
L 66.441498 286.117496 
L 70.162907 286.117496 
L 70.162907 285.9648 
L 71.103681 285.888452 
L 71.103681 285.812104 
L 71.556993 285.812104 
L 71.556993 285.659407 
L 72.854856 285.583059 
L 72.854856 285.506711 
L 74.836851 285.430362 
L 74.836851 285.277666 
L 76.284608 285.201318 
L 76.284608 285.124969 
L 77.628862 285.048621 
L 77.628862 284.972273 
L 79.480672 284.895925 
L 79.480672 284.819576 
L 80.342421 284.819576 
L 80.342421 284.590532 
L 82.959349 284.514184 
L 82.959349 284.437835 
L 87.876026 284.361487 
L 87.876026 284.285139 
L 91.305777 284.208791 
L 91.305777 284.132442 
L 92.223596 284.056094 
L 92.223596 283.979746 
L 96.599582 283.903398 
L 96.599582 283.827049 
L 97.746984 283.750701 
L 97.746984 283.674353 
L 99.550033 283.598005 
L 99.550033 283.521656 
L 100.535156 283.445308 
L 100.535156 283.292612 
L 103.948904 283.216264 
L 103.948904 283.139915 
L 104.266406 283.139915 
L 104.266406 282.987219 
L 110.897141 282.910871 
L 110.897141 282.834522 
L 113.038907 282.758174 
L 113.038907 282.605478 
L 117.695068 282.529129 
L 117.695068 282.452781 
L 121.923558 282.376433 
L 121.923558 282.300085 
L 123.601383 282.223736 
L 123.629523 282.07104 
L 124.985409 281.994692 
L 124.985409 281.918344 
L 131.096932 281.841995 
L 131.096932 281.765647 
L 131.674076 281.689299 
L 131.674076 281.612951 
L 135.403945 281.536602 
L 135.403945 281.460254 
L 136.836659 281.383906 
L 136.836659 281.307558 
L 139.117256 281.231209 
L 139.117256 281.154861 
L 140.428281 281.078513 
L 140.428281 281.002165 
L 141.50224 280.925816 
L 141.50224 280.849468 
L 144.740732 280.77312 
L 144.740732 280.696772 
L 145.121326 280.620424 
L 145.121326 280.544075 
L 148.68219 280.467727 
L 148.68219 280.391379 
L 149.517105 280.315031 
L 149.517105 280.238682 
L 150.458918 280.162334 
L 150.458918 280.085986 
L 151.70673 280.009638 
L 151.70673 279.933289 
L 153.798392 279.856941 
L 153.832297 279.704245 
L 157.127956 279.627896 
L 157.127956 279.551548 
L 157.628256 279.4752 
L 157.628256 279.398852 
L 158.834537 279.322504 
L 158.834537 279.246155 
L 159.68485 279.169807 
L 159.68485 279.093459 
L 165.592552 279.017111 
L 165.592552 278.940762 
L 168.111282 278.864414 
L 168.111282 278.788066 
L 169.400686 278.711718 
L 169.400686 278.635369 
L 169.648291 278.559021 
L 169.648291 278.482673 
L 170.449309 278.406325 
L 170.449309 278.329976 
L 172.069589 278.253628 
L 172.069589 278.17728 
L 173.060174 278.100932 
L 173.060174 278.024584 
L 175.524306 277.948235 
L 175.524306 277.871887 
L 178.234779 277.795539 
L 178.234779 277.719191 
L 179.301015 277.642842 
L 179.301015 277.566494 
L 181.085596 277.490146 
L 181.196649 277.032056 
L 181.316221 276.955708 
L 181.316221 276.87936 
L 181.573793 276.803012 
L 181.573793 276.726664 
L 181.755089 276.650315 
L 181.844449 276.344922 
L 181.896592 276.268574 
L 181.961252 276.115878 
L 182.122563 276.039529 
L 182.122563 275.963181 
L 182.588569 275.886833 
L 182.588569 275.810485 
L 182.834237 275.734136 
L 182.893349 275.58144 
L 183.274887 275.505092 
L 183.334986 275.352395 
L 184.595398 275.276047 
L 184.663492 275.123351 
L 185.471412 275.047002 
L 185.471412 274.970654 
L 188.670988 274.894306 
L 188.670988 274.817958 
L 189.351354 274.741609 
L 189.351354 274.665261 
L 190.144453 274.588913 
L 190.144453 274.512565 
L 192.2869 274.436216 
L 192.2869 274.359868 
L 193.30772 274.28352 
L 193.30772 274.207172 
L 194.09292 274.130824 
L 194.09292 274.054475 
L 194.440342 273.978127 
L 194.440342 273.901779 
L 194.658133 273.825431 
L 194.658133 273.749082 
L 195.261859 273.672734 
L 195.354621 273.520038 
L 196.059767 273.443689 
L 196.102787 273.214645 
L 196.497292 273.138296 
L 196.497292 273.061948 
L 197.019469 272.9856 
L 197.019469 272.909252 
L 197.516472 272.832904 
L 197.516472 272.756555 
L 197.948815 272.680207 
L 198.035719 272.527511 
L 198.214736 272.451162 
L 198.315816 272.298466 
L 198.475897 272.222118 
L 198.475897 272.145769 
L 198.630454 272.069421 
L 198.637236 271.916725 
L 198.845754 271.840376 
L 198.845754 271.764028 
L 199.94525 271.68768 
L 199.964216 271.534984 
L 200.438891 271.458635 
L 200.438891 271.382287 
L 201.110205 271.305939 
L 201.110205 271.229591 
L 201.76457 271.153242 
L 201.76457 271.076894 
L 202.152766 271.000546 
L 202.24341 270.847849 
L 202.702801 270.771501 
L 202.704902 270.618805 
L 202.978529 270.542456 
L 202.978529 270.466108 
L 203.819525 270.38976 
L 203.819525 270.313412 
L 204.704032 270.237064 
L 204.716873 270.084367 
L 205.037306 270.008019 
L 205.136148 269.778974 
L 205.729271 269.702626 
L 205.729271 269.626278 
L 205.870769 269.549929 
L 205.870769 269.473581 
L 206.226375 269.397233 
L 206.226375 269.320885 
L 207.137407 269.244536 
L 207.179519 269.015492 
L 207.496134 268.939144 
L 207.496134 268.862795 
L 207.912926 268.786447 
L 207.912926 268.710099 
L 209.741358 268.633751 
L 209.824708 268.404706 
L 210.194574 268.328358 
L 210.194574 268.252009 
L 210.399995 268.175661 
L 210.503813 267.946616 
L 211.387063 267.870268 
L 211.474784 267.641224 
L 211.655535 267.564875 
L 211.655535 267.488527 
L 212.225377 267.412179 
L 212.225377 267.335831 
L 212.507446 267.259482 
L 212.606743 267.106786 
L 212.776495 267.030438 
L 212.776495 266.954089 
L 213.259015 266.877741 
L 213.312882 266.725045 
L 213.517835 266.648696 
L 213.521382 266.496 
L 213.842534 266.419652 
L 213.897307 266.266955 
L 214.749558 266.190607 
L 214.776339 266.037911 
L 214.894955 265.961562 
L 214.951792 265.808866 
L 215.280862 265.732518 
L 215.371508 265.427125 
L 216.024949 265.350776 
L 216.024949 265.274428 
L 216.262083 265.19808 
L 216.307603 264.969035 
L 216.478089 264.892687 
L 216.513615 264.739991 
L 216.59752 264.663642 
L 216.59752 264.587294 
L 216.986958 264.510946 
L 216.986958 264.434598 
L 217.36734 264.358249 
L 217.36734 264.281901 
L 217.593379 264.205553 
L 217.657059 264.052856 
L 217.77944 263.976508 
L 217.77944 263.90016 
L 217.910394 263.823812 
L 217.940514 263.594767 
L 218.159255 263.518419 
L 218.159255 263.442071 
L 218.466043 263.365722 
L 218.556896 263.136678 
L 219.057081 263.060329 
L 219.057081 262.983981 
L 219.393165 262.907633 
L 219.393165 262.831285 
L 219.697999 262.754936 
L 219.697999 262.678588 
L 219.928639 262.60224 
L 219.928639 262.525892 
L 220.291255 262.449544 
L 220.329984 262.296847 
L 220.51755 262.220499 
L 220.61315 261.991454 
L 221.344265 261.915106 
L 221.416039 261.533365 
L 221.742018 261.457016 
L 221.742018 261.380668 
L 222.190981 261.30432 
L 222.270891 261.151624 
L 222.409959 261.075275 
L 222.469414 260.769882 
L 223.326774 260.693534 
L 223.407185 260.388141 
L 223.666653 260.311793 
L 223.679884 260.159096 
L 223.850639 260.082748 
L 223.850639 260.0064 
L 224.041361 259.930052 
L 224.041361 259.853704 
L 224.511585 259.777355 
L 224.511585 259.701007 
L 224.948718 259.624659 
L 225.034041 259.471962 
L 225.186629 259.395614 
L 225.297324 259.090221 
L 225.559217 259.013873 
L 225.599196 258.784828 
L 225.909277 258.70848 
L 225.909277 258.632132 
L 226.172742 258.555784 
L 226.27888 258.403087 
L 226.394204 258.326739 
L 226.434829 258.174042 
L 226.642537 258.097694 
L 226.726505 257.868649 
L 226.865664 257.792301 
L 226.865664 257.715953 
L 227.024573 257.639605 
L 227.041634 257.486908 
L 227.16739 257.41056 
L 227.264205 257.181515 
L 227.353385 257.105167 
L 227.353385 257.028819 
L 227.961582 256.952471 
L 228.069794 256.723426 
L 228.520929 256.647078 
L 228.612947 256.341685 
L 228.649585 256.265336 
L 228.744556 255.807247 
L 228.917434 255.730899 
L 229.027455 255.578202 
L 229.136217 255.501854 
L 229.23482 255.272809 
L 229.484504 255.196461 
L 229.572038 255.043765 
L 229.942666 254.967416 
L 230.006654 254.738372 
L 230.260451 254.662024 
L 230.260451 254.585675 
L 230.678672 254.509327 
L 230.78512 254.203934 
L 231.241616 254.127586 
L 231.241616 254.051238 
L 231.442763 253.974889 
L 231.442763 253.898541 
L 231.814595 253.822193 
L 231.842202 253.669496 
L 232.108759 253.593148 
L 232.108759 253.5168 
L 232.418838 253.440452 
L 232.418838 253.364104 
L 232.592667 253.287755 
L 232.657409 252.906014 
L 232.806934 252.829666 
L 232.86528 252.676969 
L 233.151245 252.600621 
L 233.249337 252.371576 
L 233.545311 252.295228 
L 233.545311 252.21888 
L 233.788058 252.142532 
L 233.857726 251.913487 
L 233.986177 251.837139 
L 233.986177 251.760791 
L 234.289689 251.684442 
L 234.362603 251.531746 
L 234.501852 251.455398 
L 234.501852 251.379049 
L 234.911247 251.302701 
L 234.972651 251.073656 
L 235.836175 250.997308 
L 235.836175 250.92096 
L 236.426988 250.844612 
L 236.528098 250.615567 
L 236.673054 250.539219 
L 236.727943 250.386522 
L 237.11092 250.310174 
L 237.11092 250.233826 
L 237.432543 250.157478 
L 237.432543 250.081129 
L 237.627519 250.004781 
L 237.627519 249.928433 
L 238.051215 249.852085 
L 238.116116 249.699388 
L 238.442083 249.62304 
L 238.442083 249.546692 
L 238.596085 249.470344 
L 238.689373 249.317647 
L 238.88796 249.241299 
L 238.934373 249.088602 
L 239.974381 249.012254 
L 240.025706 248.859558 
L 240.377253 248.783209 
L 240.48177 248.554165 
L 240.975941 248.477816 
L 240.975941 248.401468 
L 241.517236 248.32512 
L 241.517236 248.248772 
L 241.968546 248.172424 
L 242.07088 247.943379 
L 242.537335 247.867031 
L 242.537335 247.790682 
L 243.119259 247.714334 
L 243.119259 247.637986 
L 243.647721 247.561638 
L 243.719413 247.332593 
L 244.221753 247.256245 
L 244.293782 247.0272 
L 244.73394 246.950852 
L 244.780806 246.721807 
L 245.192507 246.645459 
L 245.192507 246.569111 
L 245.433667 246.492762 
L 245.433667 246.416414 
L 245.831345 246.340066 
L 245.935881 246.187369 
L 246.265882 246.111021 
L 246.265882 246.034673 
L 246.55731 245.958325 
L 246.55731 245.881976 
L 246.835402 245.805628 
L 246.835402 245.72928 
L 247.208353 245.652932 
L 247.208353 245.576584 
L 247.644484 245.500235 
L 247.689291 245.347539 
L 247.958989 245.271191 
L 247.958989 245.194842 
L 248.11604 245.118494 
L 248.11604 245.042146 
L 248.456332 244.965798 
L 248.55386 244.660405 
L 249.216872 244.584056 
L 249.216872 244.507708 
L 249.634898 244.43136 
L 249.7389 244.278664 
L 249.952253 244.202315 
L 249.998525 244.049619 
L 250.725678 243.973271 
L 250.725678 243.896922 
L 251.083232 243.820574 
L 251.155291 243.667878 
L 251.402014 243.591529 
L 251.402014 243.515181 
L 251.770624 243.438833 
L 251.819925 243.286136 
L 253.049677 243.209788 
L 253.049677 243.13344 
L 253.709081 243.057092 
L 253.709081 242.980744 
L 253.859882 242.904395 
L 253.859882 242.828047 
L 256.454077 242.751699 
L 256.454077 242.675351 
L 262.25461 242.599002 
L 262.25461 242.522654 
L 275.413103 242.446306 
L 275.413103 242.369958 
L 275.789144 242.293609 
L 275.789144 242.217261 
L 276.069017 242.140913 
L 276.160786 241.911868 
L 276.38689 241.83552 
L 276.491145 241.682824 
L 276.572157 241.682824 
L 276.589464 241.453779 
L 276.768298 241.377431 
L 276.842733 241.148386 
L 277.088553 241.072038 
L 277.088553 240.995689 
L 277.75804 240.919341 
L 277.75804 240.766645 
L 278.387705 240.690296 
L 278.427168 240.461252 
L 278.613137 240.461252 
L 278.613137 240.308555 
L 278.939525 240.232207 
L 278.939525 240.155859 
L 281.718717 240.079511 
L 281.718717 240.003162 
L 288.045225 239.926814 
L 288.047817 239.774118 
L 288.250711 239.697769 
L 288.335525 239.392376 
L 288.528923 239.316028 
L 288.528923 239.23968 
L 288.729347 239.163332 
L 288.772208 238.857939 
L 289.003536 238.781591 
L 289.003536 238.705242 
L 289.466335 238.628894 
L 289.466335 238.552546 
L 290.154718 238.476198 
L 290.176519 238.323501 
L 295.587205 238.247153 
L 295.66228 237.94176 
L 295.743483 237.94176 
L 295.853793 237.483671 
L 295.959619 237.407322 
L 295.959619 237.330974 
L 296.147176 237.254626 
L 296.147176 237.178278 
L 296.376876 237.101929 
L 296.376876 237.025581 
L 296.674062 236.949233 
L 296.674062 236.872885 
L 296.856294 236.872885 
L 296.856294 236.720188 
L 300.727059 236.720188 
L 300.837797 236.414795 
L 301.035156 236.338447 
L 301.101361 235.956706 
L 301.380629 235.880358 
L 301.380629 235.727661 
L 301.787445 235.651313 
L 301.799196 235.498616 
L 304.915781 235.422268 
L 305.017425 235.193224 
L 305.042021 235.116875 
L 305.081746 234.964179 
L 305.662291 234.887831 
L 305.662291 234.811482 
L 308.271143 234.811482 
L 308.356219 234.582438 
L 308.825942 234.506089 
L 308.929721 234.353393 
L 313.589486 234.277045 
L 313.694314 234.124348 
L 314.063673 234.048 
L 314.081892 233.742607 
L 316.080424 233.666259 
L 316.080424 233.589911 
L 319.503328 233.513562 
L 319.550202 233.360866 
L 321.136874 233.284518 
L 321.136874 233.208169 
L 322.614289 233.208169 
L 322.654027 232.902776 
L 325.283042 232.826428 
L 325.283042 232.75008 
L 326.679009 232.673732 
L 326.679009 232.597384 
L 328.716414 232.521035 
L 328.716414 232.444687 
L 329.742688 232.368339 
L 329.742688 232.291991 
L 334.11467 232.215642 
L 334.11467 232.139294 
L 336.292285 232.062946 
L 336.292285 231.986598 
L 338.888427 231.910249 
L 338.888427 231.833901 
L 340.592232 231.757553 
L 340.592232 231.681205 
L 348.207567 231.604856 
L 348.207567 231.528508 
L 352.472906 231.45216 
L 352.472906 231.375812 
L 360.8064 231.375812 
L 360.8064 231.375812 
" style="fill: none; stroke: #ff00ff; stroke-width: 1.5; stroke-linecap: square"/>
   </g>
   <g id="line2d_41">
    <defs>
     <path id="m7a3f6a9549" d="M 0 8.485281 
L 5.091169 0 
L 0 -8.485281 
L -5.091169 0 
z
" style="stroke: #ff00ff; stroke-width: 1.5; stroke-linejoin: miter"/>
    </defs>
    <g>
     <use xlink:href="#m7a3f6a9549" x="94.472426" y="283.979746" style="fill-opacity: 0; stroke: #ff00ff; stroke-width: 1.5; stroke-linejoin: miter"/>
     <use xlink:href="#m7a3f6a9549" x="178.234779" y="277.795539" style="fill-opacity: 0; stroke: #ff00ff; stroke-width: 1.5; stroke-linejoin: miter"/>
     <use xlink:href="#m7a3f6a9549" x="262.25461" y="242.599002" style="fill-opacity: 0; stroke: #ff00ff; stroke-width: 1.5; stroke-linejoin: miter"/>
     <use xlink:href="#m7a3f6a9549" x="336.292285" y="232.062946" style="fill-opacity: 0; stroke: #ff00ff; stroke-width: 1.5; stroke-linejoin: miter"/>
     <use xlink:href="#m7a3f6a9549" x="352.472906" y="231.375812" style="fill-opacity: 0; stroke: #ff00ff; stroke-width: 1.5; stroke-linejoin: miter"/>
     <use xlink:href="#m7a3f6a9549" x="360.8064" y="231.375812" style="fill-opacity: 0; stroke: #ff00ff; stroke-width: 1.5; stroke-linejoin: miter"/>
    </g>
   </g>
   <g id="line2d_42">
    <path style="fill: none; stroke: #ff00ff; stroke-width: 1.5; stroke-linecap: square"/>
    <g/>
   </g>
   <g id="line2d_43">
    <path d="M 274.188938 242.522654 
" clip-path="url(#p14d3c670a7)" style="fill: none; stroke: #ff00ff; stroke-width: 1.5; stroke-linecap: square"/>
    <defs>
     <path id="mdd40da9a9d" d="M -12 12 
L 12 -12 
M -12 -12 
L 12 12 
" style="stroke: #ff00ff"/>
    </defs>
    <g clip-path="url(#p14d3c670a7)">
     <use xlink:href="#mdd40da9a9d" x="274.188938" y="242.522654" style="fill: #ff00ff; stroke: #ff00ff"/>
    </g>
   </g>
   <g id="line2d_44">
    <defs>
     <path id="mc739df2bc9" d="M 0 1.5 
C 0.397805 1.5 0.77937 1.341951 1.06066 1.06066 
C 1.341951 0.77937 1.5 0.397805 1.5 0 
C 1.5 -0.397805 1.341951 -0.77937 1.06066 -1.06066 
C 0.77937 -1.341951 0.397805 -1.5 0 -1.5 
C -0.397805 -1.5 -0.77937 -1.341951 -1.06066 -1.06066 
C -1.341951 -0.77937 -1.5 -0.397805 -1.5 0 
C -1.5 0.397805 -1.341951 0.77937 -1.06066 1.06066 
C -0.77937 1.341951 -0.397805 1.5 0 1.5 
z
" style="stroke: #ff7500"/>
    </defs>
    <g>
     <use xlink:href="#mc739df2bc9" x="355.67487" y="247.408941" style="fill: #ff7500; stroke: #ff7500"/>
     <use xlink:href="#mc739df2bc9" x="355.67487" y="247.408941" style="fill: #ff7500; stroke: #ff7500"/>
    </g>
   </g>
   <g id="line2d_45">
    <path d="M 1.245626 298.944 
L 1.245626 292.988838 
L 14.2848 292.988838 
L 14.2848 290.240301 
L 21.912228 290.240301 
L 21.912228 289.553167 
L 27.323974 289.553167 
L 27.323974 288.866033 
L 31.521651 288.866033 
L 31.521651 288.636988 
L 34.951403 288.636988 
L 34.951403 288.102551 
L 37.851216 288.102551 
L 37.851216 287.949854 
L 42.578831 287.873506 
L 42.578831 287.720809 
L 44.560826 287.720809 
L 44.560826 287.339068 
L 46.353758 287.339068 
L 46.353758 287.186372 
L 47.990577 287.186372 
L 47.990577 286.957327 
L 49.496305 286.957327 
L 49.496305 286.728282 
L 50.890391 286.728282 
L 50.890391 286.575586 
L 52.188254 286.575586 
L 52.188254 286.346541 
L 54.542767 286.270193 
L 54.542767 286.193845 
L 57.6 286.117496 
L 57.6 286.041148 
L 59.392932 286.041148 
L 59.392932 285.888452 
L 61.029752 285.812104 
L 61.029752 285.659407 
L 65.227428 285.583059 
L 65.227428 285.506711 
L 67.020361 285.430362 
L 67.020361 285.354014 
L 69.674268 285.277666 
L 69.674268 285.201318 
L 71.103681 285.124969 
L 71.103681 285.048621 
L 71.999638 284.972273 
L 71.999638 284.819576 
L 73.672879 284.743228 
L 73.672879 284.66688 
L 74.456807 284.590532 
L 74.456807 284.361487 
L 75.574654 284.285139 
L 75.574654 284.132442 
L 75.93298 284.132442 
L 75.93298 283.979746 
L 77.628862 283.903398 
L 77.628862 283.827049 
L 78.88343 283.750701 
L 78.88343 283.598005 
L 79.77233 283.598005 
L 79.77233 283.445308 
L 80.895742 283.36896 
L 80.895742 283.216264 
L 82.713442 283.139915 
L 82.713442 283.063567 
L 84.818792 282.987219 
L 84.818792 282.910871 
L 85.25629 282.910871 
L 85.25629 282.758174 
L 85.683844 282.758174 
L 85.683844 282.605478 
L 86.101895 282.529129 
L 86.101895 282.376433 
L 88.248544 282.300085 
L 88.248544 282.223736 
L 89.497162 282.147388 
L 89.497162 282.07104 
L 90.505165 281.994692 
L 90.505165 281.918344 
L 90.668036 281.918344 
L 90.668036 281.765647 
L 90.989609 281.765647 
L 90.989609 281.612951 
L 91.305777 281.612951 
L 91.305777 281.460254 
L 92.519847 281.460254 
L 92.519847 281.307558 
L 92.955655 281.231209 
L 92.955655 281.154861 
L 94.472426 281.078513 
L 94.472426 281.002165 
L 95.123409 280.925816 
L 95.123409 280.849468 
L 96.95121 280.77312 
L 96.95121 280.696772 
L 97.296386 280.620424 
L 97.296386 280.544075 
L 97.968299 280.467727 
L 97.968299 280.391379 
L 98.828405 280.315031 
L 98.828405 280.238682 
L 101.653002 280.162334 
L 101.653002 280.085986 
L 102.793446 280.009638 
L 102.793446 279.933289 
L 103.380045 279.856941 
L 103.380045 279.780593 
L 104.344952 279.704245 
L 104.42317 279.551548 
L 104.809458 279.4752 
L 104.809458 279.322504 
L 106.209005 279.246155 
L 106.209005 279.169807 
L 106.699465 279.093459 
L 106.699465 279.017111 
L 108.976522 278.940762 
L 108.976522 278.864414 
L 109.756698 278.788066 
L 109.756698 278.711718 
L 110.048356 278.635369 
L 110.048356 278.559021 
L 111.062397 278.482673 
L 111.062397 278.406325 
L 112.180244 278.329976 
L 112.180244 278.253628 
L 113.235374 278.17728 
L 113.235374 278.100932 
L 114.234452 278.024584 
L 114.234452 277.871887 
L 114.556025 277.871887 
L 114.556025 277.719191 
L 115.402131 277.642842 
L 115.402131 277.566494 
L 116.211813 277.490146 
L 116.211813 277.413798 
L 116.501546 277.337449 
L 116.501546 277.261101 
L 116.827295 277.184753 
L 116.827295 277.108405 
L 117.772007 277.032056 
L 117.848632 276.87936 
L 118.634901 276.803012 
L 118.634901 276.726664 
L 119.319033 276.650315 
L 119.319033 276.573967 
L 120.9116 276.497619 
L 120.9116 276.421271 
L 121.581803 276.344922 
L 121.581803 276.268574 
L 121.737916 276.268574 
L 121.737916 276.115878 
L 121.923558 276.039529 
L 121.923558 275.963181 
L 123.346211 275.886833 
L 123.346211 275.810485 
L 124.046648 275.734136 
L 124.046648 275.657788 
L 125.141738 275.58144 
L 125.219419 275.428744 
L 126.993549 275.352395 
L 126.993549 275.276047 
L 128.023009 275.199699 
L 128.023009 275.123351 
L 128.332126 275.047002 
L 128.332126 274.970654 
L 128.636246 274.894306 
L 128.636246 274.817958 
L 129.60223 274.741609 
L 129.60223 274.665261 
L 130.637624 274.588913 
L 130.637624 274.512565 
L 132.638982 274.436216 
L 132.638982 274.359868 
L 134.208913 274.28352 
L 134.208913 274.207172 
L 134.993495 274.130824 
L 134.993495 274.054475 
L 136.083243 273.978127 
L 136.083243 273.901779 
L 137.641335 273.825431 
L 137.641335 273.749082 
L 138.718057 273.672734 
L 138.718057 273.596386 
L 139.215746 273.520038 
L 139.215746 273.443689 
L 141.173167 273.367341 
L 141.173167 273.290993 
L 142.080444 273.214645 
L 142.090985 273.061948 
L 142.875344 272.9856 
L 142.966099 272.832904 
L 144.126651 272.756555 
L 144.126651 272.680207 
L 144.768174 272.603859 
L 144.768174 272.527511 
L 145.361989 272.451162 
L 145.361989 272.374814 
L 146.471147 272.298466 
L 146.471147 272.222118 
L 147.502732 272.145769 
L 147.502732 272.069421 
L 148.024984 271.993073 
L 148.024984 271.916725 
L 148.80797 271.840376 
L 148.80797 271.764028 
L 149.274095 271.68768 
L 149.274095 271.611332 
L 149.707872 271.534984 
L 149.742988 271.382287 
L 150.049213 271.305939 
L 150.049213 271.229591 
L 151.471384 271.153242 
L 151.471384 271.076894 
L 152.045009 271.000546 
L 152.045009 270.924198 
L 152.383411 270.847849 
L 152.383411 270.771501 
L 152.517085 270.695153 
L 152.517085 270.618805 
L 152.805483 270.542456 
L 152.805483 270.466108 
L 153.142309 270.38976 
L 153.142309 270.313412 
L 155.140696 270.237064 
L 155.18278 270.084367 
L 156.030406 270.008019 
L 156.085579 269.855322 
L 157.563547 269.778974 
L 157.563547 269.702626 
L 158.511547 269.626278 
L 158.603771 269.473581 
L 159.787973 269.397233 
L 159.787973 269.320885 
L 160.886507 269.244536 
L 160.975542 269.015492 
L 161.262981 268.939144 
L 161.262981 268.862795 
L 162.284473 268.786447 
L 162.316866 268.633751 
L 162.750561 268.557402 
L 162.750561 268.481054 
L 162.949812 268.404706 
L 162.949812 268.328358 
L 163.82619 268.252009 
L 163.856036 268.099313 
L 164.168227 268.022965 
L 164.168227 267.946616 
L 164.641317 267.870268 
L 164.641317 267.79392 
L 165.474345 267.717572 
L 165.474345 267.641224 
L 165.691997 267.564875 
L 165.691997 267.488527 
L 166.595641 267.412179 
L 166.618544 267.259482 
L 167.526142 267.183134 
L 167.575151 267.030438 
L 168.482867 266.954089 
L 168.565601 266.801393 
L 168.87519 266.725045 
L 168.91828 266.572348 
L 169.356214 266.496 
L 169.356214 266.419652 
L 170.259304 266.343304 
L 170.334597 266.190607 
L 171.559524 266.114259 
L 171.559524 266.037911 
L 171.782615 265.961562 
L 171.782615 265.885214 
L 172.290979 265.808866 
L 172.295211 265.656169 
L 172.63904 265.579821 
L 172.63904 265.503473 
L 173.171575 265.427125 
L 173.224009 265.274428 
L 173.56131 265.19808 
L 173.650114 265.045384 
L 173.75417 264.969035 
L 173.75417 264.892687 
L 174.039803 264.816339 
L 174.039803 264.739991 
L 174.639516 264.663642 
L 174.708501 264.510946 
L 175.122646 264.434598 
L 175.122646 264.358249 
L 176.110296 264.281901 
L 176.110296 264.205553 
L 177.151915 264.129205 
L 177.151915 264.052856 
L 177.557732 263.976508 
L 177.557732 263.90016 
L 177.926769 263.823812 
L 177.986274 263.594767 
L 178.182246 263.518419 
L 178.220888 263.365722 
L 178.92106 263.289374 
L 178.92106 263.213026 
L 179.301015 263.136678 
L 179.301015 263.060329 
L 179.81726 262.983981 
L 179.81726 262.907633 
L 180.09464 262.831285 
L 180.09464 262.754936 
L 180.581667 262.678588 
L 180.581667 262.60224 
L 181.113421 262.525892 
L 181.113421 262.449544 
L 182.846316 262.373195 
L 182.846316 262.296847 
L 183.400757 262.220499 
L 183.400757 262.144151 
L 183.623367 262.067802 
L 183.623367 261.991454 
L 184.475083 261.915106 
L 184.524848 261.762409 
L 185.101267 261.686061 
L 185.101267 261.609713 
L 185.532226 261.533365 
L 185.532226 261.457016 
L 185.764233 261.380668 
L 185.861179 261.227972 
L 186.350583 261.151624 
L 186.350583 261.075275 
L 187.641295 260.998927 
L 187.645038 260.846231 
L 189.447664 260.769882 
L 189.447664 260.693534 
L 190.25798 260.617186 
L 190.25798 260.540838 
L 192.991411 260.464489 
L 192.991411 260.388141 
L 195.60876 260.311793 
L 195.60876 260.235445 
L 196.301074 260.159096 
L 196.301074 260.082748 
L 197.439363 260.0064 
L 197.439363 259.930052 
L 200.819855 259.853704 
L 200.819855 259.777355 
L 210.128713 259.701007 
L 210.189776 259.548311 
L 225.737655 259.471962 
L 225.737655 259.395614 
L 235.142639 259.319266 
L 235.167717 259.166569 
L 245.497366 259.090221 
L 245.497366 259.013873 
L 250.249114 258.937525 
L 250.332152 258.784828 
L 254.72275 258.70848 
L 254.72275 258.632132 
L 258.333836 258.555784 
L 258.333836 258.479435 
L 262.566703 258.403087 
L 262.566703 258.326739 
L 264.213212 258.250391 
L 264.213212 258.174042 
L 271.010399 258.097694 
L 271.010399 258.021346 
L 274.187265 257.944998 
L 274.294562 256.723426 
L 274.326314 256.647078 
L 274.364168 255.730899 
L 274.466509 255.654551 
L 274.553156 255.425506 
L 276.401052 255.349158 
L 276.401052 255.272809 
L 281.249478 255.196461 
L 281.249478 255.120113 
L 283.580444 255.043765 
L 283.580444 254.967416 
L 287.238298 254.967416 
L 287.30054 253.974889 
L 287.526044 253.898541 
L 287.526044 253.669496 
L 288.360579 253.669496 
L 288.360579 253.5168 
L 292.069695 253.440452 
L 292.069695 253.211407 
L 294.87944 253.135059 
L 294.8992 252.906014 
L 300.28262 252.829666 
L 300.307335 252.295228 
L 301.549638 252.295228 
L 301.549638 252.142532 
L 304.486004 252.066184 
L 304.509694 251.608094 
L 304.918589 251.608094 
L 304.918589 251.455398 
L 306.546369 251.379049 
L 306.546369 251.302701 
L 307.900629 251.226353 
L 307.910097 250.997308 
L 309.642858 250.92096 
L 309.642858 250.844612 
L 310.796218 250.768264 
L 310.822801 250.310174 
L 311.116027 250.310174 
L 311.116027 250.157478 
L 313.306323 250.081129 
L 313.320035 249.775736 
L 315.520583 249.699388 
L 315.520583 249.62304 
L 317.508057 249.546692 
L 317.508057 249.470344 
L 319.300174 249.393995 
L 319.300174 249.317647 
L 319.497642 249.317647 
L 319.497642 249.088602 
L 322.442998 249.012254 
L 322.442998 248.935906 
L 325.126171 248.859558 
L 325.126171 248.783209 
L 326.33977 248.706861 
L 326.33977 248.630513 
L 328.557824 248.554165 
L 328.557824 248.477816 
L 329.153911 248.401468 
L 329.153911 248.32512 
L 331.560334 248.248772 
L 331.560334 248.096075 
L 335.470206 248.019727 
L 335.472393 247.867031 
L 338.523455 247.790682 
L 338.523455 247.714334 
L 346.029787 247.637986 
L 346.029787 247.561638 
L 355.67487 247.485289 
L 355.67487 247.408941 
L 360.8064 247.408941 
L 360.8064 247.408941 
" style="fill: none; stroke: #ff7500; stroke-width: 1.5; stroke-linecap: square"/>
   </g>
   <g id="line2d_46">
    <defs>
     <path id="mb6778b3354" d="M 0 -6 
L -1.347084 -1.854102 
L -5.706339 -1.854102 
L -2.179628 0.708204 
L -3.526712 4.854102 
L -0 2.291796 
L 3.526712 4.854102 
L 2.179628 0.708204 
L 5.706339 -1.854102 
L 1.347084 -1.854102 
z
" style="stroke: #ff7500; stroke-width: 1.5; stroke-linejoin: bevel"/>
    </defs>
    <g>
     <use xlink:href="#mb6778b3354" x="153.142309" y="270.38976" style="fill-opacity: 0; stroke: #ff7500; stroke-width: 1.5; stroke-linejoin: bevel"/>
     <use xlink:href="#mb6778b3354" x="210.189776" y="259.624659" style="fill-opacity: 0; stroke: #ff7500; stroke-width: 1.5; stroke-linejoin: bevel"/>
     <use xlink:href="#mb6778b3354" x="294.8992" y="252.982362" style="fill-opacity: 0; stroke: #ff7500; stroke-width: 1.5; stroke-linejoin: bevel"/>
     <use xlink:href="#mb6778b3354" x="355.67487" y="247.408941" style="fill-opacity: 0; stroke: #ff7500; stroke-width: 1.5; stroke-linejoin: bevel"/>
     <use xlink:href="#mb6778b3354" x="360.8064" y="247.408941" style="fill-opacity: 0; stroke: #ff7500; stroke-width: 1.5; stroke-linejoin: bevel"/>
    </g>
   </g>
   <g id="line2d_47">
    <path style="fill: none; stroke: #ff7500; stroke-width: 1.5; stroke-linecap: square"/>
    <g/>
   </g>
   <g id="line2d_48">
    <path d="M 274.176 257.944998 
" clip-path="url(#p14d3c670a7)" style="fill: none; stroke: #ff7500; stroke-width: 1.5; stroke-linecap: square"/>
    <defs>
     <path id="m93078313ed" d="M -12 12 
L 12 -12 
M -12 -12 
L 12 12 
" style="stroke: #ff7500"/>
    </defs>
    <g clip-path="url(#p14d3c670a7)">
     <use xlink:href="#m93078313ed" x="274.176" y="257.944998" style="fill: #ff7500; stroke: #ff7500"/>
    </g>
   </g>
   <g id="line2d_49">
    <path d="M 360.8064 248.554165 
L 380.514816 293.10336 
" style="fill: none; stroke: #000080; stroke-width: 1.5; stroke-linecap: square"/>
    <g>
     <use xlink:href="#m8b90e74af5" x="360.8064" y="248.554165" style="fill-opacity: 0; stroke: #000080; stroke-width: 1.5"/>
     <use xlink:href="#m8b90e74af5" x="380.514816" y="293.10336" style="fill-opacity: 0; stroke: #000080; stroke-width: 1.5"/>
    </g>
   </g>
   <g id="line2d_50">
    <path d="M 360.8064 247.408941 
L 380.514816 199.65312 
" style="fill: none; stroke: #ff7500; stroke-width: 1.5; stroke-linecap: square"/>
    <g>
     <use xlink:href="#mb6778b3354" x="360.8064" y="247.408941" style="fill-opacity: 0; stroke: #ff7500; stroke-width: 1.5; stroke-linejoin: bevel"/>
     <use xlink:href="#mb6778b3354" x="380.514816" y="199.65312" style="fill-opacity: 0; stroke: #ff7500; stroke-width: 1.5; stroke-linejoin: bevel"/>
    </g>
   </g>
   <g id="line2d_51">
    <path d="M 360.8064 231.375812 
L 380.514816 106.20288 
" style="fill: none; stroke: #ff00ff; stroke-width: 1.5; stroke-linecap: square"/>
    <g>
     <use xlink:href="#m7a3f6a9549" x="360.8064" y="231.375812" style="fill-opacity: 0; stroke: #ff00ff; stroke-width: 1.5; stroke-linejoin: miter"/>
     <use xlink:href="#m7a3f6a9549" x="380.514816" y="106.20288" style="fill-opacity: 0; stroke: #ff00ff; stroke-width: 1.5; stroke-linejoin: miter"/>
    </g>
   </g>
   <g id="line2d_52">
    <path d="M 360.8064 298.944 
L 360.8064 6.912 
" style="fill: none; stroke: #000000; stroke-width: 1.5; stroke-linecap: square"/>
   </g>
   <g id="patch_3">
    <path d="M 57.6 298.944 
L 360.8064 298.944 
" style="fill: none; stroke: #000000; stroke-width: 0.8; stroke-linejoin: miter; stroke-linecap: square"/>
   </g>
   <g id="patch_4">
    <path d="M 57.6 6.912 
L 360.8064 6.912 
" style="fill: none; stroke: #000000; stroke-width: 0.8; stroke-linejoin: miter; stroke-linecap: square"/>
   </g>
   <g id="text_13">
    <!-- LCGA -->
    <g transform="translate(386.578944 296.966485)scale(0.14 -0.14)">
     <defs>
      <path id="DejaVuSans-4c" d="M 628 4666 
L 1259 4666 
L 1259 531 
L 3531 531 
L 3531 0 
L 628 0 
L 628 4666 
z
" transform="scale(0.015625)"/>
      <path id="DejaVuSans-43" d="M 4122 4306 
L 4122 3641 
Q 3803 3938 3442 4084 
Q 3081 4231 2675 4231 
Q 1875 4231 1450 3742 
Q 1025 3253 1025 2328 
Q 1025 1406 1450 917 
Q 1875 428 2675 428 
Q 3081 428 3442 575 
Q 3803 722 4122 1019 
L 4122 359 
Q 3791 134 3420 21 
Q 3050 -91 2638 -91 
Q 1578 -91 968 557 
Q 359 1206 359 2328 
Q 359 3453 968 4101 
Q 1578 4750 2638 4750 
Q 3056 4750 3426 4639 
Q 3797 4528 4122 4306 
z
" transform="scale(0.015625)"/>
      <path id="DejaVuSans-47" d="M 3809 666 
L 3809 1919 
L 2778 1919 
L 2778 2438 
L 4434 2438 
L 4434 434 
Q 4069 175 3628 42 
Q 3188 -91 2688 -91 
Q 1594 -91 976 548 
Q 359 1188 359 2328 
Q 359 3472 976 4111 
Q 1594 4750 2688 4750 
Q 3144 4750 3555 4637 
Q 3966 4525 4313 4306 
L 4313 3634 
Q 3963 3931 3569 4081 
Q 3175 4231 2741 4231 
Q 1884 4231 1454 3753 
Q 1025 3275 1025 2328 
Q 1025 1384 1454 906 
Q 1884 428 2741 428 
Q 3075 428 3337 486 
Q 3600 544 3809 666 
z
" transform="scale(0.015625)"/>
      <path id="DejaVuSans-41" d="M 2188 4044 
L 1331 1722 
L 3047 1722 
L 2188 4044 
z
M 1831 4666 
L 2547 4666 
L 4325 0 
L 3669 0 
L 3244 1197 
L 1141 1197 
L 716 0 
L 50 0 
L 1831 4666 
z
" transform="scale(0.015625)"/>
     </defs>
     <use xlink:href="#DejaVuSans-4c"/>
     <use xlink:href="#DejaVuSans-43" x="55.712891"/>
     <use xlink:href="#DejaVuSans-47" x="125.537109"/>
     <use xlink:href="#DejaVuSans-41" x="203.027344"/>
    </g>
   </g>
   <g id="text_14">
    <!-- PSO -->
    <g transform="translate(386.578944 203.516245)scale(0.14 -0.14)">
     <defs>
      <path id="DejaVuSans-50" d="M 1259 4147 
L 1259 2394 
L 2053 2394 
Q 2494 2394 2734 2622 
Q 2975 2850 2975 3272 
Q 2975 3691 2734 3919 
Q 2494 4147 2053 4147 
L 1259 4147 
z
M 628 4666 
L 2053 4666 
Q 2838 4666 3239 4311 
Q 3641 3956 3641 3272 
Q 3641 2581 3239 2228 
Q 2838 1875 2053 1875 
L 1259 1875 
L 1259 0 
L 628 0 
L 628 4666 
z
" transform="scale(0.015625)"/>
      <path id="DejaVuSans-53" d="M 3425 4513 
L 3425 3897 
Q 3066 4069 2747 4153 
Q 2428 4238 2131 4238 
Q 1616 4238 1336 4038 
Q 1056 3838 1056 3469 
Q 1056 3159 1242 3001 
Q 1428 2844 1947 2747 
L 2328 2669 
Q 3034 2534 3370 2195 
Q 3706 1856 3706 1288 
Q 3706 609 3251 259 
Q 2797 -91 1919 -91 
Q 1588 -91 1214 -16 
Q 841 59 441 206 
L 441 856 
Q 825 641 1194 531 
Q 1563 422 1919 422 
Q 2459 422 2753 634 
Q 3047 847 3047 1241 
Q 3047 1584 2836 1778 
Q 2625 1972 2144 2069 
L 1759 2144 
Q 1053 2284 737 2584 
Q 422 2884 422 3419 
Q 422 4038 858 4394 
Q 1294 4750 2059 4750 
Q 2388 4750 2728 4690 
Q 3069 4631 3425 4513 
z
" transform="scale(0.015625)"/>
      <path id="DejaVuSans-4f" d="M 2522 4238 
Q 1834 4238 1429 3725 
Q 1025 3213 1025 2328 
Q 1025 1447 1429 934 
Q 1834 422 2522 422 
Q 3209 422 3611 934 
Q 4013 1447 4013 2328 
Q 4013 3213 3611 3725 
Q 3209 4238 2522 4238 
z
M 2522 4750 
Q 3503 4750 4090 4092 
Q 4678 3434 4678 2328 
Q 4678 1225 4090 567 
Q 3503 -91 2522 -91 
Q 1538 -91 948 565 
Q 359 1222 359 2328 
Q 359 3434 948 4092 
Q 1538 4750 2522 4750 
z
" transform="scale(0.015625)"/>
     </defs>
     <use xlink:href="#DejaVuSans-50"/>
     <use xlink:href="#DejaVuSans-53" x="60.302734"/>
     <use xlink:href="#DejaVuSans-4f" x="123.779297"/>
    </g>
   </g>
   <g id="text_15">
    <!-- GA -->
    <g transform="translate(386.578944 110.066005)scale(0.14 -0.14)">
     <use xlink:href="#DejaVuSans-47"/>
     <use xlink:href="#DejaVuSans-41" x="77.490234"/>
    </g>
   </g>
   <g id="text_16">
    <!-- best 2009 -->
    <g transform="translate(386.578944 16.615765)scale(0.14 -0.14)">
     <defs>
      <path id="DejaVuSans-62" d="M 3116 1747 
Q 3116 2381 2855 2742 
Q 2594 3103 2138 3103 
Q 1681 3103 1420 2742 
Q 1159 2381 1159 1747 
Q 1159 1113 1420 752 
Q 1681 391 2138 391 
Q 2594 391 2855 752 
Q 3116 1113 3116 1747 
z
M 1159 2969 
Q 1341 3281 1617 3432 
Q 1894 3584 2278 3584 
Q 2916 3584 3314 3078 
Q 3713 2572 3713 1747 
Q 3713 922 3314 415 
Q 2916 -91 2278 -91 
Q 1894 -91 1617 61 
Q 1341 213 1159 525 
L 1159 0 
L 581 0 
L 581 4863 
L 1159 4863 
L 1159 2969 
z
" transform="scale(0.015625)"/>
      <path id="DejaVuSans-39" d="M 703 97 
L 703 672 
Q 941 559 1184 500 
Q 1428 441 1663 441 
Q 2288 441 2617 861 
Q 2947 1281 2994 2138 
Q 2813 1869 2534 1725 
Q 2256 1581 1919 1581 
Q 1219 1581 811 2004 
Q 403 2428 403 3163 
Q 403 3881 828 4315 
Q 1253 4750 1959 4750 
Q 2769 4750 3195 4129 
Q 3622 3509 3622 2328 
Q 3622 1225 3098 567 
Q 2575 -91 1691 -91 
Q 1453 -91 1209 -44 
Q 966 3 703 97 
z
M 1959 2075 
Q 2384 2075 2632 2365 
Q 2881 2656 2881 3163 
Q 2881 3666 2632 3958 
Q 2384 4250 1959 4250 
Q 1534 4250 1286 3958 
Q 1038 3666 1038 3163 
Q 1038 2656 1286 2365 
Q 1534 2075 1959 2075 
z
" transform="scale(0.015625)"/>
     </defs>
     <use xlink:href="#DejaVuSans-62"/>
     <use xlink:href="#DejaVuSans-65" x="63.476562"/>
     <use xlink:href="#DejaVuSans-73" x="125"/>
     <use xlink:href="#DejaVuSans-74" x="177.099609"/>
     <use xlink:href="#DejaVuSans-20" x="216.308594"/>
     <use xlink:href="#DejaVuSans-32" x="248.095703"/>
     <use xlink:href="#DejaVuSans-30" x="311.71875"/>
     <use xlink:href="#DejaVuSans-30" x="375.341797"/>
     <use xlink:href="#DejaVuSans-39" x="438.964844"/>
    </g>
   </g>
   <g id="text_17">
    <!-- bbob f15-f19, 20-D -->
    <g transform="translate(60.632064 17.582726)scale(0.102 -0.102)">
     <defs>
      <path id="DejaVuSans-35" d="M 691 4666 
L 3169 4666 
L 3169 4134 
L 1269 4134 
L 1269 2991 
Q 1406 3038 1543 3061 
Q 1681 3084 1819 3084 
Q 2600 3084 3056 2656 
Q 3513 2228 3513 1497 
Q 3513 744 3044 326 
Q 2575 -91 1722 -91 
Q 1428 -91 1123 -41 
Q 819 9 494 109 
L 494 744 
Q 775 591 1075 516 
Q 1375 441 1709 441 
Q 2250 441 2565 725 
Q 2881 1009 2881 1497 
Q 2881 1984 2565 2268 
Q 2250 2553 1709 2553 
Q 1456 2553 1204 2497 
Q 953 2441 691 2322 
L 691 4666 
z
" transform="scale(0.015625)"/>
      <path id="DejaVuSans-44" d="M 1259 4147 
L 1259 519 
L 2022 519 
Q 2988 519 3436 956 
Q 3884 1394 3884 2338 
Q 3884 3275 3436 3711 
Q 2988 4147 2022 4147 
L 1259 4147 
z
M 628 4666 
L 1925 4666 
Q 3281 4666 3915 4102 
Q 4550 3538 4550 2338 
Q 4550 1131 3912 565 
Q 3275 0 1925 0 
L 628 0 
L 628 4666 
z
" transform="scale(0.015625)"/>
     </defs>
     <use xlink:href="#DejaVuSans-62"/>
     <use xlink:href="#DejaVuSans-62" x="63.476562"/>
     <use xlink:href="#DejaVuSans-6f" x="126.953125"/>
     <use xlink:href="#DejaVuSans-62" x="188.134766"/>
     <use xlink:href="#DejaVuSans-20" x="251.611328"/>
     <use xlink:href="#DejaVuSans-66" x="283.398438"/>
     <use xlink:href="#DejaVuSans-31" x="318.603516"/>
     <use xlink:href="#DejaVuSans-35" x="382.226562"/>
     <use xlink:href="#DejaVuSans-2d" x="445.849609"/>
     <use xlink:href="#DejaVuSans-66" x="481.933594"/>
     <use xlink:href="#DejaVuSans-31" x="517.138672"/>
     <use xlink:href="#DejaVuSans-39" x="580.761719"/>
     <use xlink:href="#DejaVuSans-2c" x="644.384766"/>
     <use xlink:href="#DejaVuSans-20" x="676.171875"/>
     <use xlink:href="#DejaVuSans-32" x="707.958984"/>
     <use xlink:href="#DejaVuSans-30" x="771.582031"/>
     <use xlink:href="#DejaVuSans-2d" x="835.205078"/>
     <use xlink:href="#DejaVuSans-44" x="871.289062"/>
    </g>
    <!-- 51 targets: 100..1e-08 -->
    <g transform="translate(60.632064 29.004495)scale(0.102 -0.102)">
     <defs>
      <path id="DejaVuSans-3a" d="M 750 794 
L 1409 794 
L 1409 0 
L 750 0 
L 750 794 
z
M 750 3309 
L 1409 3309 
L 1409 2516 
L 750 2516 
L 750 3309 
z
" transform="scale(0.015625)"/>
     </defs>
     <use xlink:href="#DejaVuSans-35"/>
     <use xlink:href="#DejaVuSans-31" x="63.623047"/>
     <use xlink:href="#DejaVuSans-20" x="127.246094"/>
     <use xlink:href="#DejaVuSans-74" x="159.033203"/>
     <use xlink:href="#DejaVuSans-61" x="198.242188"/>
     <use xlink:href="#DejaVuSans-72" x="259.521484"/>
     <use xlink:href="#DejaVuSans-67" x="298.884766"/>
     <use xlink:href="#DejaVuSans-65" x="362.361328"/>
     <use xlink:href="#DejaVuSans-74" x="423.884766"/>
     <use xlink:href="#DejaVuSans-73" x="463.09375"/>
     <use xlink:href="#DejaVuSans-3a" x="515.193359"/>
     <use xlink:href="#DejaVuSans-20" x="548.884766"/>
     <use xlink:href="#DejaVuSans-31" x="580.671875"/>
     <use xlink:href="#DejaVuSans-30" x="644.294922"/>
     <use xlink:href="#DejaVuSans-30" x="707.917969"/>
     <use xlink:href="#DejaVuSans-2e" x="771.541016"/>
     <use xlink:href="#DejaVuSans-2e" x="803.328125"/>
     <use xlink:href="#DejaVuSans-31" x="835.115234"/>
     <use xlink:href="#DejaVuSans-65" x="898.738281"/>
     <use xlink:href="#DejaVuSans-2d" x="960.261719"/>
     <use xlink:href="#DejaVuSans-30" x="996.345703"/>
     <use xlink:href="#DejaVuSans-38" x="1059.96875"/>
    </g>
    <!-- 15 instances -->
    <g transform="translate(60.632064 40.426264)scale(0.102 -0.102)">
     <use xlink:href="#DejaVuSans-31"/>
     <use xlink:href="#DejaVuSans-35" x="63.623047"/>
     <use xlink:href="#DejaVuSans-20" x="127.246094"/>
     <use xlink:href="#DejaVuSans-69" x="159.033203"/>
     <use xlink:href="#DejaVuSans-6e" x="186.816406"/>
     <use xlink:href="#DejaVuSans-73" x="250.195312"/>
     <use xlink:href="#DejaVuSans-74" x="302.294922"/>
     <use xlink:href="#DejaVuSans-61" x="341.503906"/>
     <use xlink:href="#DejaVuSans-6e" x="402.783203"/>
     <use xlink:href="#DejaVuSans-63" x="466.162109"/>
     <use xlink:href="#DejaVuSans-65" x="521.142578"/>
     <use xlink:href="#DejaVuSans-73" x="582.666016"/>
    </g>
   </g>
   <g id="text_18">
    <!-- v2.6 -->
    <g style="fill: #808080" transform="translate(198.292262 293.943992)scale(0.1 -0.1)">
     <use xlink:href="#DejaVuSans-76"/>
     <use xlink:href="#DejaVuSans-32" x="59.179688"/>
     <use xlink:href="#DejaVuSans-2e" x="122.802734"/>
     <use xlink:href="#DejaVuSans-36" x="154.589844"/>
    </g>
   </g>
  </g>
 </g>
 <defs>
  <clipPath id="p14d3c670a7">
   <rect x="57.6" y="6.912" width="303.2064" height="292.032"/>
  </clipPath>
 </defs>
</svg>
