<?xml version="1.0" encoding="utf-8" standalone="no"?>
<!DOCTYPE svg PUBLIC "-//W3C//DTD SVG 1.1//EN"
  "http://www.w3.org/Graphics/SVG/1.1/DTD/svg11.dtd">
<svg xmlns:xlink="http://www.w3.org/1999/xlink" width="460.8pt" height="345.6pt" viewBox="0 0 460.8 345.6" xmlns="http://www.w3.org/2000/svg" version="1.1">
 <metadata>
  <rdf:RDF xmlns:dc="http://purl.org/dc/elements/1.1/" xmlns:cc="http://creativecommons.org/ns#" xmlns:rdf="http://www.w3.org/1999/02/22-rdf-syntax-ns#">
   <cc:Work>
    <dc:type rdf:resource="http://purl.org/dc/dcmitype/StillImage"/>
    <dc:date>2024-05-29T08:01:49.819663</dc:date>
    <dc:format>image/svg+xml</dc:format>
    <dc:creator>
     <cc:Agent>
      <dc:title>Matplotlib v3.5.1, https://matplotlib.org/</dc:title>
     </cc:Agent>
    </dc:creator>
   </cc:Work>
  </rdf:RDF>
 </metadata>
 <defs>
  <style type="text/css">*{stroke-linejoin: round; stroke-linecap: butt}</style>
 </defs>
 <g id="figure_1">
  <g id="patch_1">
   <path d="M 0 345.6 
L 460.8 345.6 
L 460.8 0 
L 0 0 
z
" style="fill: #ffffff"/>
  </g>
  <g id="axes_1">
   <g id="patch_2">
    <path d="M 62.208 293.76 
L 460.8 293.76 
L 460.8 3.456 
L 62.208 3.456 
z
" style="fill: #ffffff"/>
   </g>
   <g id="line2d_1"/>
   <g id="line2d_2"/>
   <g id="line2d_3">
    <path d="M 213.183941 293.76 
L 213.183941 289.927604 
L 246.894158 289.927604 
L 246.894158 286.095208 
L 261.792314 286.095208 
L 261.792314 282.262812 
L 286.348452 282.262812 
L 286.348452 278.430416 
L 291.334579 278.430416 
L 291.334579 274.59802 
L 291.665143 274.59802 
L 291.665143 270.765624 
L 293.730732 270.765624 
L 293.730732 266.933228 
L 301.139812 266.933228 
L 301.139812 263.100832 
L 310.959235 263.100832 
L 310.959235 259.268436 
L 317.819334 259.268436 
L 317.819334 255.43604 
L 318.66642 255.43604 
L 318.66642 251.603644 
L 322.852958 251.603644 
L 322.852958 247.771248 
L 334.43893 247.771248 
L 334.43893 243.938851 
L 362.177118 243.938851 
L 362.177118 240.106455 
L 363.863612 240.106455 
L 363.863612 236.274059 
L 364.782162 236.274059 
L 364.782162 232.441663 
L 364.782162 232.441663 
L 364.782162 232.441663 
L 460.8 232.441663 
" clip-path="url(#p0421f9d5c4)" style="fill: none; stroke: #f5deb3; stroke-width: 1.5; stroke-linecap: square"/>
   </g>
   <g id="line2d_4">
    <path d="M 241.687359 293.76 
L 241.687359 289.927604 
L 249.973065 289.927604 
L 249.973065 286.095208 
L 254.403666 286.095208 
L 254.403666 282.262812 
L 271.219765 282.262812 
L 271.219765 278.430416 
L 274.143551 278.430416 
L 274.143551 274.59802 
L 311.652458 274.59802 
L 311.652458 270.765624 
L 314.065835 270.765624 
L 314.065835 266.933228 
L 317.324612 266.933228 
L 317.324612 263.100832 
L 322.198116 263.100832 
L 322.198116 259.268436 
L 323.918228 259.268436 
L 323.918228 255.43604 
L 328.858497 255.43604 
L 328.858497 251.603644 
L 331.179373 251.603644 
L 331.179373 247.771248 
L 332.435161 247.771248 
L 332.435161 243.938851 
L 335.693282 243.938851 
L 335.693282 240.106455 
L 339.320018 240.106455 
L 339.320018 236.274059 
L 339.464768 236.274059 
L 339.464768 232.441663 
L 340.599027 232.441663 
L 340.599027 228.609267 
L 343.016529 228.609267 
L 343.016529 224.776871 
L 345.369146 224.776871 
L 345.369146 220.944475 
L 345.515384 220.944475 
L 345.515384 217.112079 
L 347.697278 217.112079 
L 347.697278 213.279683 
L 347.955094 213.279683 
L 347.955094 209.447287 
L 352.918194 209.447287 
L 352.918194 205.614891 
L 356.043466 205.614891 
L 356.043466 201.782495 
L 356.460491 201.782495 
L 356.460491 197.950099 
L 358.960919 197.950099 
L 358.960919 194.117703 
L 358.960919 194.117703 
L 358.960919 194.117703 
L 460.8 194.117703 
" clip-path="url(#p0421f9d5c4)" style="fill: none; stroke: #f5deb3; stroke-width: 1.5; stroke-linecap: square"/>
   </g>
   <g id="line2d_5"/>
   <g id="line2d_6"/>
   <g id="line2d_7">
    <path d="M 217.789316 293.76 
L 217.789316 289.927604 
L 279.303109 289.927604 
L 279.303109 286.095208 
L 280.155616 286.095208 
L 280.155616 282.262812 
L 313.626225 282.262812 
L 313.626225 278.430416 
L 315.623569 278.430416 
L 315.623569 274.59802 
L 341.120062 274.59802 
L 341.120062 270.765624 
L 346.444642 270.765624 
L 346.444642 266.933228 
L 350.608143 266.933228 
L 350.608143 263.100832 
L 353.563371 263.100832 
L 353.563371 259.268436 
L 372.918723 259.268436 
L 372.918723 255.43604 
L 389.692469 255.43604 
L 389.692469 251.603644 
L 394.765367 251.603644 
L 394.765367 247.771248 
L 397.219041 247.771248 
L 397.219041 243.938851 
L 403.633577 243.938851 
L 403.633577 240.106455 
L 435.339631 240.106455 
L 435.339631 236.274059 
L 443.920385 236.274059 
L 443.920385 232.441663 
L 461.8 232.441663 
" clip-path="url(#p0421f9d5c4)" style="fill: none; stroke: #f5deb3; stroke-width: 1.5; stroke-linecap: square"/>
   </g>
   <g id="line2d_8"/>
   <g id="line2d_9">
    <path d="M 217.641787 293.76 
L 217.641787 289.927604 
L 218.70387 289.927604 
L 218.70387 286.095208 
L 259.906283 286.095208 
L 259.906283 282.262812 
L 286.798086 282.262812 
L 286.798086 278.430416 
L 307.226747 278.430416 
L 307.226747 274.59802 
L 309.852962 274.59802 
L 309.852962 270.765624 
L 342.32494 270.765624 
L 342.32494 266.933228 
L 357.16043 266.933228 
L 357.16043 263.100832 
L 371.473829 263.100832 
L 371.473829 259.268436 
L 374.6231 259.268436 
L 374.6231 255.43604 
L 375.110664 255.43604 
L 375.110664 251.603644 
L 375.305077 251.603644 
L 375.305077 247.771248 
L 387.737594 247.771248 
L 387.737594 243.938851 
L 387.982438 243.938851 
L 387.982438 240.106455 
L 388.772794 240.106455 
L 388.772794 236.274059 
L 389.37344 236.274059 
L 389.37344 232.441663 
L 391.035872 232.441663 
L 391.035872 228.609267 
L 401.029142 228.609267 
L 401.029142 224.776871 
L 401.480703 224.776871 
L 401.480703 220.944475 
L 406.713107 220.944475 
L 406.713107 217.112079 
L 407.646417 217.112079 
L 407.646417 213.279683 
L 407.989386 213.279683 
L 407.989386 209.447287 
L 408.613889 209.447287 
L 408.613889 205.614891 
L 416.079803 205.614891 
L 416.079803 201.782495 
L 417.64902 201.782495 
L 417.64902 197.950099 
L 419.504476 197.950099 
L 419.504476 194.117703 
L 422.526719 194.117703 
L 422.526719 190.285307 
L 422.606798 190.285307 
L 422.606798 186.452911 
L 424.349454 186.452911 
L 424.349454 182.620515 
L 424.890544 182.620515 
L 424.890544 178.788119 
L 424.991493 178.788119 
L 424.991493 174.955723 
L 439.298271 174.955723 
L 439.298271 171.123327 
L 443.969167 171.123327 
L 443.969167 167.290931 
L 450.999159 167.290931 
L 450.999159 163.458535 
L 451.332085 163.458535 
L 451.332085 159.626139 
L 453.267847 159.626139 
L 453.267847 155.793743 
L 453.414974 155.793743 
L 453.414974 151.961347 
L 454.691448 151.961347 
L 454.691448 148.12895 
L 461.8 148.12895 
" clip-path="url(#p0421f9d5c4)" style="fill: none; stroke: #f5deb3; stroke-width: 1.5; stroke-linecap: square"/>
   </g>
   <g id="line2d_10">
    <path d="M 383.337833 293.76 
L 383.337833 289.927604 
L 419.887723 289.927604 
L 419.887723 286.095208 
L 419.887723 286.095208 
L 419.887723 286.095208 
L 460.8 286.095208 
" clip-path="url(#p0421f9d5c4)" style="fill: none; stroke: #f5deb3; stroke-width: 1.5; stroke-linecap: square"/>
   </g>
   <g id="line2d_11">
    <path d="M 241.213338 293.76 
L 241.213338 289.927604 
L 260.261379 289.927604 
L 260.261379 286.095208 
L 278.781747 286.095208 
L 278.781747 282.262812 
L 279.926105 282.262812 
L 279.926105 278.430416 
L 287.93817 278.430416 
L 287.93817 274.59802 
L 300.62465 274.59802 
L 300.62465 270.765624 
L 309.620278 270.765624 
L 309.620278 266.933228 
L 321.314668 266.933228 
L 321.314668 263.100832 
L 321.526838 263.100832 
L 321.526838 259.268436 
L 329.666741 259.268436 
L 329.666741 255.43604 
L 330.129471 255.43604 
L 330.129471 251.603644 
L 330.635311 251.603644 
L 330.635311 247.771248 
L 336.361001 247.771248 
L 336.361001 243.938851 
L 345.619531 243.938851 
L 345.619531 240.106455 
L 348.510879 240.106455 
L 348.510879 236.274059 
L 349.726752 236.274059 
L 349.726752 232.441663 
L 351.72428 232.441663 
L 351.72428 228.609267 
L 359.209829 228.609267 
L 359.209829 224.776871 
L 360.130977 224.776871 
L 360.130977 220.944475 
L 361.463724 220.944475 
L 361.463724 217.112079 
L 367.723099 217.112079 
L 367.723099 213.279683 
L 371.250337 213.279683 
L 371.250337 209.447287 
L 372.938038 209.447287 
L 372.938038 205.614891 
L 376.152616 205.614891 
L 376.152616 201.782495 
L 380.311164 201.782495 
L 380.311164 197.950099 
L 395.495967 197.950099 
L 395.495967 194.117703 
L 399.017344 194.117703 
L 399.017344 190.285307 
L 403.861959 190.285307 
L 403.861959 186.452911 
L 410.862332 186.452911 
L 410.862332 182.620515 
L 421.279538 182.620515 
L 421.279538 178.788119 
L 421.279538 178.788119 
L 421.279538 178.788119 
L 460.8 178.788119 
" clip-path="url(#p0421f9d5c4)" style="fill: none; stroke: #f5deb3; stroke-width: 1.5; stroke-linecap: square"/>
   </g>
   <g id="line2d_12">
    <path d="M 253.077855 293.76 
L 253.077855 289.927604 
L 326.622163 289.927604 
L 326.622163 286.095208 
L 326.622163 286.095208 
L 326.622163 286.095208 
L 460.8 286.095208 
" clip-path="url(#p0421f9d5c4)" style="fill: none; stroke: #f5deb3; stroke-width: 1.5; stroke-linecap: square"/>
   </g>
   <g id="line2d_13"/>
   <g id="line2d_14">
    <path d="M 199.670501 293.76 
L 199.670501 289.927604 
L 226.878823 289.927604 
L 226.878823 286.095208 
L 252.291174 286.095208 
L 252.291174 282.262812 
L 265.397445 282.262812 
L 265.397445 278.430416 
L 273.112353 278.430416 
L 273.112353 274.59802 
L 275.940311 274.59802 
L 275.940311 270.765624 
L 279.937283 270.765624 
L 279.937283 266.933228 
L 290.755243 266.933228 
L 290.755243 263.100832 
L 298.524086 263.100832 
L 298.524086 259.268436 
L 308.474872 259.268436 
L 308.474872 255.43604 
L 317.810831 255.43604 
L 317.810831 251.603644 
L 331.285515 251.603644 
L 331.285515 247.771248 
L 337.721575 247.771248 
L 337.721575 243.938851 
L 351.275259 243.938851 
L 351.275259 240.106455 
L 352.848226 240.106455 
L 352.848226 236.274059 
L 353.647141 236.274059 
L 353.647141 232.441663 
L 356.215067 232.441663 
L 356.215067 228.609267 
L 357.16043 228.609267 
L 357.16043 224.776871 
L 357.997631 224.776871 
L 357.997631 220.944475 
L 360.98789 220.944475 
L 360.98789 217.112079 
L 364.555256 217.112079 
L 364.555256 213.279683 
L 365.049495 213.279683 
L 365.049495 209.447287 
L 365.049495 209.447287 
L 365.049495 209.447287 
L 460.8 209.447287 
" clip-path="url(#p0421f9d5c4)" style="fill: none; stroke: #f5deb3; stroke-width: 1.5; stroke-linecap: square"/>
   </g>
   <g id="line2d_15"/>
   <g id="line2d_16">
    <path d="M 294.302434 293.76 
L 294.302434 289.927604 
L 324.681954 289.927604 
L 324.681954 286.095208 
L 332.603931 286.095208 
L 332.603931 282.262812 
L 334.473582 282.262812 
L 334.473582 278.430416 
L 342.595432 278.430416 
L 342.595432 274.59802 
L 364.26274 274.59802 
L 364.26274 270.765624 
L 386.364145 270.765624 
L 386.364145 266.933228 
L 386.453179 266.933228 
L 386.453179 263.100832 
L 393.696596 263.100832 
L 393.696596 259.268436 
L 405.978116 259.268436 
L 405.978116 255.43604 
L 415.061414 255.43604 
L 415.061414 251.603644 
L 425.78375 251.603644 
L 425.78375 247.771248 
L 427.964936 247.771248 
L 427.964936 243.938851 
L 428.687483 243.938851 
L 428.687483 240.106455 
L 429.234774 240.106455 
L 429.234774 236.274059 
L 430.164403 236.274059 
L 430.164403 232.441663 
L 437.676008 232.441663 
L 437.676008 228.609267 
L 445.651186 228.609267 
L 445.651186 224.776871 
L 446.827466 224.776871 
L 446.827466 220.944475 
L 461.8 220.944475 
" clip-path="url(#p0421f9d5c4)" style="fill: none; stroke: #f5deb3; stroke-width: 1.5; stroke-linecap: square"/>
   </g>
   <g id="line2d_17"/>
   <g id="line2d_18">
    <path d="M 192.076141 293.76 
L 192.076141 289.927604 
L 236.148665 289.927604 
L 236.148665 286.095208 
L 243.470849 286.095208 
L 243.470849 282.262812 
L 247.995943 282.262812 
L 247.995943 278.430416 
L 250.854138 278.430416 
L 250.854138 274.59802 
L 255.387711 274.59802 
L 255.387711 270.765624 
L 255.836452 270.765624 
L 255.836452 266.933228 
L 264.075457 266.933228 
L 264.075457 263.100832 
L 267.759984 263.100832 
L 267.759984 259.268436 
L 276.528029 259.268436 
L 276.528029 255.43604 
L 281.161557 255.43604 
L 281.161557 251.603644 
L 282.660476 251.603644 
L 282.660476 247.771248 
L 291.291837 247.771248 
L 291.291837 243.938851 
L 292.337982 243.938851 
L 292.337982 240.106455 
L 293.193833 240.106455 
L 293.193833 236.274059 
L 295.591195 236.274059 
L 295.591195 232.441663 
L 296.457085 232.441663 
L 296.457085 228.609267 
L 311.333125 228.609267 
L 311.333125 224.776871 
L 323.229129 224.776871 
L 323.229129 220.944475 
L 324.026409 220.944475 
L 324.026409 217.112079 
L 332.323079 217.112079 
L 332.323079 213.279683 
L 333.282916 213.279683 
L 333.282916 209.447287 
L 333.282916 209.447287 
L 333.282916 209.447287 
L 460.8 209.447287 
" clip-path="url(#p0421f9d5c4)" style="fill: none; stroke: #f5deb3; stroke-width: 1.5; stroke-linecap: square"/>
   </g>
   <g id="line2d_19">
    <path d="M 343.851934 293.76 
L 343.851934 289.927604 
L 347.972419 289.927604 
L 347.972419 286.095208 
L 350.768954 286.095208 
L 350.768954 282.262812 
L 354.955637 282.262812 
L 354.955637 278.430416 
L 355.027239 278.430416 
L 355.027239 274.59802 
L 355.265703 274.59802 
L 355.265703 270.765624 
L 356.598263 270.765624 
L 356.598263 266.933228 
L 357.175038 266.933228 
L 357.175038 263.100832 
L 357.765535 263.100832 
L 357.765535 259.268436 
L 357.839714 259.268436 
L 357.839714 255.43604 
L 364.307579 255.43604 
L 364.307579 251.603644 
L 372.381674 251.603644 
L 372.381674 247.771248 
L 379.104541 247.771248 
L 379.104541 243.938851 
L 382.681069 243.938851 
L 382.681069 240.106455 
L 402.745711 240.106455 
L 402.745711 236.274059 
L 461.8 236.274059 
" clip-path="url(#p0421f9d5c4)" style="fill: none; stroke: #f5deb3; stroke-width: 1.5; stroke-linecap: square"/>
   </g>
   <g id="line2d_20">
    <path d="M 224.981669 293.76 
L 224.981669 289.927604 
L 230.464381 289.927604 
L 230.464381 286.095208 
L 267.264733 286.095208 
L 267.264733 282.262812 
L 273.500464 282.262812 
L 273.500464 278.430416 
L 279.255222 278.430416 
L 279.255222 274.59802 
L 281.680822 274.59802 
L 281.680822 270.765624 
L 283.533786 270.765624 
L 283.533786 266.933228 
L 283.779397 266.933228 
L 283.779397 263.100832 
L 295.680062 263.100832 
L 295.680062 259.268436 
L 307.391448 259.268436 
L 307.391448 255.43604 
L 310.079536 255.43604 
L 310.079536 251.603644 
L 312.155194 251.603644 
L 312.155194 247.771248 
L 312.301265 247.771248 
L 312.301265 243.938851 
L 312.827269 243.938851 
L 312.827269 240.106455 
L 314.126915 240.106455 
L 314.126915 236.274059 
L 320.552004 236.274059 
L 320.552004 232.441663 
L 320.738008 232.441663 
L 320.738008 228.609267 
L 321.708697 228.609267 
L 321.708697 224.776871 
L 322.849917 224.776871 
L 322.849917 220.944475 
L 327.077983 220.944475 
L 327.077983 217.112079 
L 329.847792 217.112079 
L 329.847792 213.279683 
L 334.80076 213.279683 
L 334.80076 209.447287 
L 349.963087 209.447287 
L 349.963087 205.614891 
L 362.583025 205.614891 
L 362.583025 201.782495 
L 377.442848 201.782495 
L 377.442848 197.950099 
L 377.894157 197.950099 
L 377.894157 194.117703 
L 383.189651 194.117703 
L 383.189651 190.285307 
L 385.91075 190.285307 
L 385.91075 186.452911 
L 385.91075 186.452911 
L 385.91075 186.452911 
L 460.8 186.452911 
" clip-path="url(#p0421f9d5c4)" style="fill: none; stroke: #f5deb3; stroke-width: 1.5; stroke-linecap: square"/>
   </g>
   <g id="line2d_21">
    <path d="M 361.609558 293.76 
L 361.609558 289.927604 
L 361.609558 289.927604 
L 361.609558 289.927604 
L 460.8 289.927604 
" clip-path="url(#p0421f9d5c4)" style="fill: none; stroke: #f5deb3; stroke-width: 1.5; stroke-linecap: square"/>
   </g>
   <g id="line2d_22">
    <path d="M 310.352584 293.76 
L 310.352584 289.927604 
L 333.257639 289.927604 
L 333.257639 286.095208 
L 341.830271 286.095208 
L 341.830271 282.262812 
L 343.918465 282.262812 
L 343.918465 278.430416 
L 346.460104 278.430416 
L 346.460104 274.59802 
L 351.704002 274.59802 
L 351.704002 270.765624 
L 360.628533 270.765624 
L 360.628533 266.933228 
L 360.834085 266.933228 
L 360.834085 263.100832 
L 363.299622 263.100832 
L 363.299622 259.268436 
L 363.299622 259.268436 
L 363.299622 259.268436 
L 460.8 259.268436 
" clip-path="url(#p0421f9d5c4)" style="fill: none; stroke: #f5deb3; stroke-width: 1.5; stroke-linecap: square"/>
   </g>
   <g id="line2d_23">
    <path d="M 291.222064 293.76 
L 291.222064 289.927604 
L 291.222064 289.927604 
L 291.222064 289.927604 
L 460.8 289.927604 
" clip-path="url(#p0421f9d5c4)" style="fill: none; stroke: #f5deb3; stroke-width: 1.5; stroke-linecap: square"/>
   </g>
   <g id="line2d_24">
    <path d="M 345.480493 293.76 
L 345.480493 289.927604 
L 351.381433 289.927604 
L 351.381433 286.095208 
L 353.897421 286.095208 
L 353.897421 282.262812 
L 388.77749 282.262812 
L 388.77749 278.430416 
L 388.809598 278.430416 
L 388.809598 274.59802 
L 389.907433 274.59802 
L 389.907433 270.765624 
L 390.030017 270.765624 
L 390.030017 266.933228 
L 390.209769 266.933228 
L 390.209769 263.100832 
L 393.931532 263.100832 
L 393.931532 259.268436 
L 396.812605 259.268436 
L 396.812605 255.43604 
L 398.566751 255.43604 
L 398.566751 251.603644 
L 401.61926 251.603644 
L 401.61926 247.771248 
L 419.936101 247.771248 
L 419.936101 243.938851 
L 429.220475 243.938851 
L 429.220475 240.106455 
L 431.468436 240.106455 
L 431.468436 236.274059 
L 461.8 236.274059 
" clip-path="url(#p0421f9d5c4)" style="fill: none; stroke: #f5deb3; stroke-width: 1.5; stroke-linecap: square"/>
   </g>
   <g id="line2d_25">
    <path d="M 348.796515 293.76 
L 348.796515 289.927604 
L 349.183317 289.927604 
L 349.183317 286.095208 
L 350.168533 286.095208 
L 350.168533 282.262812 
L 350.168533 282.262812 
L 350.168533 282.262812 
L 460.8 282.262812 
" clip-path="url(#p0421f9d5c4)" style="fill: none; stroke: #f5deb3; stroke-width: 1.5; stroke-linecap: square"/>
   </g>
   <g id="line2d_26">
    <path d="M 274.635491 293.76 
L 274.635491 290.530453 
L 339.80807 290.530453 
L 339.80807 287.300906 
L 363.228373 287.300906 
L 363.228373 284.071358 
L 365.216704 284.071358 
L 365.216704 280.841811 
L 389.634736 280.841811 
L 389.634736 277.612264 
L 394.760627 277.612264 
L 394.760627 274.382717 
L 394.760627 274.382717 
L 394.760627 274.382717 
L 460.8 274.382717 
" clip-path="url(#p0421f9d5c4)" style="fill: none; stroke: #f5deb3; stroke-width: 1.5; stroke-linecap: square"/>
   </g>
   <g id="line2d_27">
    <path d="M 212.222171 293.76 
L 212.222171 289.927604 
L 250.397386 289.927604 
L 250.397386 286.095208 
L 253.254058 286.095208 
L 253.254058 282.262812 
L 256.918817 282.262812 
L 256.918817 278.430416 
L 270.397212 278.430416 
L 270.397212 274.59802 
L 276.296694 274.59802 
L 276.296694 270.765624 
L 288.709464 270.765624 
L 288.709464 266.933228 
L 289.464803 266.933228 
L 289.464803 263.100832 
L 298.715615 263.100832 
L 298.715615 259.268436 
L 313.529527 259.268436 
L 313.529527 255.43604 
L 324.13833 255.43604 
L 324.13833 251.603644 
L 329.221 251.603644 
L 329.221 247.771248 
L 330.22348 247.771248 
L 330.22348 243.938851 
L 342.286502 243.938851 
L 342.286502 240.106455 
L 345.834418 240.106455 
L 345.834418 236.274059 
L 351.890846 236.274059 
L 351.890846 232.441663 
L 355.195531 232.441663 
L 355.195531 228.609267 
L 355.463567 228.609267 
L 355.463567 224.776871 
L 359.460881 224.776871 
L 359.460881 220.944475 
L 368.439483 220.944475 
L 368.439483 217.112079 
L 380.33639 217.112079 
L 380.33639 213.279683 
L 386.28029 213.279683 
L 386.28029 209.447287 
L 388.278036 209.447287 
L 388.278036 205.614891 
L 397.240077 205.614891 
L 397.240077 201.782495 
L 397.240077 201.782495 
L 397.240077 201.782495 
L 460.8 201.782495 
" clip-path="url(#p0421f9d5c4)" style="fill: none; stroke: #f5deb3; stroke-width: 1.5; stroke-linecap: square"/>
   </g>
   <g id="line2d_28">
    <path d="M 342.146534 293.76 
L 342.146534 289.927604 
L 342.313481 289.927604 
L 342.313481 286.095208 
L 344.46899 286.095208 
L 344.46899 282.262812 
L 379.655583 282.262812 
L 379.655583 278.430416 
L 380.103513 278.430416 
L 380.103513 274.59802 
L 407.588457 274.59802 
L 407.588457 270.765624 
L 409.906787 270.765624 
L 409.906787 266.933228 
L 410.737733 266.933228 
L 410.737733 263.100832 
L 425.904987 263.100832 
L 425.904987 259.268436 
L 431.312609 259.268436 
L 431.312609 255.43604 
L 432.470829 255.43604 
L 432.470829 251.603644 
L 433.673155 251.603644 
L 433.673155 247.771248 
L 437.593333 247.771248 
L 437.593333 243.938851 
L 442.282315 243.938851 
L 442.282315 240.106455 
L 443.76333 240.106455 
L 443.76333 236.274059 
L 444.034747 236.274059 
L 444.034747 232.441663 
L 450.495901 232.441663 
L 450.495901 228.609267 
L 457.0411 228.609267 
L 457.0411 224.776871 
L 461.8 224.776871 
" clip-path="url(#p0421f9d5c4)" style="fill: none; stroke: #f5deb3; stroke-width: 1.5; stroke-linecap: square"/>
   </g>
   <g id="line2d_29">
    <path d="M 311.405503 293.76 
L 311.405503 289.927604 
L 332.374156 289.927604 
L 332.374156 286.095208 
L 332.374156 286.095208 
L 332.374156 286.095208 
L 460.8 286.095208 
" clip-path="url(#p0421f9d5c4)" style="fill: none; stroke: #f5deb3; stroke-width: 1.5; stroke-linecap: square"/>
   </g>
   <g id="line2d_30">
    <path d="M 263.609302 293.76 
L 263.609302 289.927604 
L 285.995068 289.927604 
L 285.995068 286.095208 
L 308.451346 286.095208 
L 308.451346 282.262812 
L 314.634947 282.262812 
L 314.634947 278.430416 
L 334.735923 278.430416 
L 334.735923 274.59802 
L 341.378737 274.59802 
L 341.378737 270.765624 
L 351.543112 270.765624 
L 351.543112 266.933228 
L 363.572476 266.933228 
L 363.572476 263.100832 
L 364.400698 263.100832 
L 364.400698 259.268436 
L 365.197175 259.268436 
L 365.197175 255.43604 
L 365.197175 255.43604 
L 365.197175 255.43604 
L 460.8 255.43604 
" clip-path="url(#p0421f9d5c4)" style="fill: none; stroke: #f5deb3; stroke-width: 1.5; stroke-linecap: square"/>
   </g>
   <g id="matplotlib.axis_1">
    <g id="xtick_1">
     <g id="line2d_31">
      <path d="M 62.208 293.76 
L 62.208 3.456 
" clip-path="url(#p0421f9d5c4)" style="fill: none; stroke: #b0b0b0; stroke-width: 0.8; stroke-linecap: square"/>
     </g>
     <g id="line2d_32">
      <defs>
       <path id="m2fe4ff015a" d="M 0 0 
L 0 3.5 
" style="stroke: #000000; stroke-width: 0.8"/>
      </defs>
      <g>
       <use xlink:href="#m2fe4ff015a" x="62.208" y="293.76" style="stroke: #000000; stroke-width: 0.8"/>
      </g>
     </g>
     <g id="text_1">
      <!-- 0 -->
      <g transform="translate(55.8455 315.956875)scale(0.2 -0.2)">
       <defs>
        <path id="DejaVuSans-30" d="M 2034 4250 
Q 1547 4250 1301 3770 
Q 1056 3291 1056 2328 
Q 1056 1369 1301 889 
Q 1547 409 2034 409 
Q 2525 409 2770 889 
Q 3016 1369 3016 2328 
Q 3016 3291 2770 3770 
Q 2525 4250 2034 4250 
z
M 2034 4750 
Q 2819 4750 3233 4129 
Q 3647 3509 3647 2328 
Q 3647 1150 3233 529 
Q 2819 -91 2034 -91 
Q 1250 -91 836 529 
Q 422 1150 422 2328 
Q 422 3509 836 4129 
Q 1250 4750 2034 4750 
z
" transform="scale(0.015625)"/>
       </defs>
       <use xlink:href="#DejaVuSans-30"/>
      </g>
     </g>
    </g>
    <g id="xtick_2">
     <g id="line2d_33">
      <path d="M 214.052571 293.76 
L 214.052571 3.456 
" clip-path="url(#p0421f9d5c4)" style="fill: none; stroke: #b0b0b0; stroke-width: 0.8; stroke-linecap: square"/>
     </g>
     <g id="line2d_34">
      <g>
       <use xlink:href="#m2fe4ff015a" x="214.052571" y="293.76" style="stroke: #000000; stroke-width: 0.8"/>
      </g>
     </g>
     <g id="text_2">
      <!-- 2 -->
      <g transform="translate(207.690071 315.956875)scale(0.2 -0.2)">
       <defs>
        <path id="DejaVuSans-32" d="M 1228 531 
L 3431 531 
L 3431 0 
L 469 0 
L 469 531 
Q 828 903 1448 1529 
Q 2069 2156 2228 2338 
Q 2531 2678 2651 2914 
Q 2772 3150 2772 3378 
Q 2772 3750 2511 3984 
Q 2250 4219 1831 4219 
Q 1534 4219 1204 4116 
Q 875 4013 500 3803 
L 500 4441 
Q 881 4594 1212 4672 
Q 1544 4750 1819 4750 
Q 2544 4750 2975 4387 
Q 3406 4025 3406 3419 
Q 3406 3131 3298 2873 
Q 3191 2616 2906 2266 
Q 2828 2175 2409 1742 
Q 1991 1309 1228 531 
z
" transform="scale(0.015625)"/>
       </defs>
       <use xlink:href="#DejaVuSans-32"/>
      </g>
     </g>
    </g>
    <g id="xtick_3">
     <g id="line2d_35">
      <path d="M 365.897143 293.76 
L 365.897143 3.456 
" clip-path="url(#p0421f9d5c4)" style="fill: none; stroke: #b0b0b0; stroke-width: 0.8; stroke-linecap: square"/>
     </g>
     <g id="line2d_36">
      <g>
       <use xlink:href="#m2fe4ff015a" x="365.897143" y="293.76" style="stroke: #000000; stroke-width: 0.8"/>
      </g>
     </g>
     <g id="text_3">
      <!-- 4 -->
      <g transform="translate(359.534643 315.956875)scale(0.2 -0.2)">
       <defs>
        <path id="DejaVuSans-34" d="M 2419 4116 
L 825 1625 
L 2419 1625 
L 2419 4116 
z
M 2253 4666 
L 3047 4666 
L 3047 1625 
L 3713 1625 
L 3713 1100 
L 3047 1100 
L 3047 0 
L 2419 0 
L 2419 1100 
L 313 1100 
L 313 1709 
L 2253 4666 
z
" transform="scale(0.015625)"/>
       </defs>
       <use xlink:href="#DejaVuSans-34"/>
      </g>
     </g>
    </g>
    <g id="text_4">
     <!-- log10 of FEvals / DIM -->
     <g transform="translate(156.430563 339.313125)scale(0.2 -0.2)">
      <defs>
       <path id="DejaVuSans-6c" d="M 603 4863 
L 1178 4863 
L 1178 0 
L 603 0 
L 603 4863 
z
" transform="scale(0.015625)"/>
       <path id="DejaVuSans-6f" d="M 1959 3097 
Q 1497 3097 1228 2736 
Q 959 2375 959 1747 
Q 959 1119 1226 758 
Q 1494 397 1959 397 
Q 2419 397 2687 759 
Q 2956 1122 2956 1747 
Q 2956 2369 2687 2733 
Q 2419 3097 1959 3097 
z
M 1959 3584 
Q 2709 3584 3137 3096 
Q 3566 2609 3566 1747 
Q 3566 888 3137 398 
Q 2709 -91 1959 -91 
Q 1206 -91 779 398 
Q 353 888 353 1747 
Q 353 2609 779 3096 
Q 1206 3584 1959 3584 
z
" transform="scale(0.015625)"/>
       <path id="DejaVuSans-67" d="M 2906 1791 
Q 2906 2416 2648 2759 
Q 2391 3103 1925 3103 
Q 1463 3103 1205 2759 
Q 947 2416 947 1791 
Q 947 1169 1205 825 
Q 1463 481 1925 481 
Q 2391 481 2648 825 
Q 2906 1169 2906 1791 
z
M 3481 434 
Q 3481 -459 3084 -895 
Q 2688 -1331 1869 -1331 
Q 1566 -1331 1297 -1286 
Q 1028 -1241 775 -1147 
L 775 -588 
Q 1028 -725 1275 -790 
Q 1522 -856 1778 -856 
Q 2344 -856 2625 -561 
Q 2906 -266 2906 331 
L 2906 616 
Q 2728 306 2450 153 
Q 2172 0 1784 0 
Q 1141 0 747 490 
Q 353 981 353 1791 
Q 353 2603 747 3093 
Q 1141 3584 1784 3584 
Q 2172 3584 2450 3431 
Q 2728 3278 2906 2969 
L 2906 3500 
L 3481 3500 
L 3481 434 
z
" transform="scale(0.015625)"/>
       <path id="DejaVuSans-31" d="M 794 531 
L 1825 531 
L 1825 4091 
L 703 3866 
L 703 4441 
L 1819 4666 
L 2450 4666 
L 2450 531 
L 3481 531 
L 3481 0 
L 794 0 
L 794 531 
z
" transform="scale(0.015625)"/>
       <path id="DejaVuSans-20" transform="scale(0.015625)"/>
       <path id="DejaVuSans-66" d="M 2375 4863 
L 2375 4384 
L 1825 4384 
Q 1516 4384 1395 4259 
Q 1275 4134 1275 3809 
L 1275 3500 
L 2222 3500 
L 2222 3053 
L 1275 3053 
L 1275 0 
L 697 0 
L 697 3053 
L 147 3053 
L 147 3500 
L 697 3500 
L 697 3744 
Q 697 4328 969 4595 
Q 1241 4863 1831 4863 
L 2375 4863 
z
" transform="scale(0.015625)"/>
       <path id="DejaVuSans-46" d="M 628 4666 
L 3309 4666 
L 3309 4134 
L 1259 4134 
L 1259 2759 
L 3109 2759 
L 3109 2228 
L 1259 2228 
L 1259 0 
L 628 0 
L 628 4666 
z
" transform="scale(0.015625)"/>
       <path id="DejaVuSans-45" d="M 628 4666 
L 3578 4666 
L 3578 4134 
L 1259 4134 
L 1259 2753 
L 3481 2753 
L 3481 2222 
L 1259 2222 
L 1259 531 
L 3634 531 
L 3634 0 
L 628 0 
L 628 4666 
z
" transform="scale(0.015625)"/>
       <path id="DejaVuSans-76" d="M 191 3500 
L 800 3500 
L 1894 563 
L 2988 3500 
L 3597 3500 
L 2284 0 
L 1503 0 
L 191 3500 
z
" transform="scale(0.015625)"/>
       <path id="DejaVuSans-61" d="M 2194 1759 
Q 1497 1759 1228 1600 
Q 959 1441 959 1056 
Q 959 750 1161 570 
Q 1363 391 1709 391 
Q 2188 391 2477 730 
Q 2766 1069 2766 1631 
L 2766 1759 
L 2194 1759 
z
M 3341 1997 
L 3341 0 
L 2766 0 
L 2766 531 
Q 2569 213 2275 61 
Q 1981 -91 1556 -91 
Q 1019 -91 701 211 
Q 384 513 384 1019 
Q 384 1609 779 1909 
Q 1175 2209 1959 2209 
L 2766 2209 
L 2766 2266 
Q 2766 2663 2505 2880 
Q 2244 3097 1772 3097 
Q 1472 3097 1187 3025 
Q 903 2953 641 2809 
L 641 3341 
Q 956 3463 1253 3523 
Q 1550 3584 1831 3584 
Q 2591 3584 2966 3190 
Q 3341 2797 3341 1997 
z
" transform="scale(0.015625)"/>
       <path id="DejaVuSans-73" d="M 2834 3397 
L 2834 2853 
Q 2591 2978 2328 3040 
Q 2066 3103 1784 3103 
Q 1356 3103 1142 2972 
Q 928 2841 928 2578 
Q 928 2378 1081 2264 
Q 1234 2150 1697 2047 
L 1894 2003 
Q 2506 1872 2764 1633 
Q 3022 1394 3022 966 
Q 3022 478 2636 193 
Q 2250 -91 1575 -91 
Q 1294 -91 989 -36 
Q 684 19 347 128 
L 347 722 
Q 666 556 975 473 
Q 1284 391 1588 391 
Q 1994 391 2212 530 
Q 2431 669 2431 922 
Q 2431 1156 2273 1281 
Q 2116 1406 1581 1522 
L 1381 1569 
Q 847 1681 609 1914 
Q 372 2147 372 2553 
Q 372 3047 722 3315 
Q 1072 3584 1716 3584 
Q 2034 3584 2315 3537 
Q 2597 3491 2834 3397 
z
" transform="scale(0.015625)"/>
       <path id="DejaVuSans-2f" d="M 1625 4666 
L 2156 4666 
L 531 -594 
L 0 -594 
L 1625 4666 
z
" transform="scale(0.015625)"/>
       <path id="DejaVuSans-44" d="M 1259 4147 
L 1259 519 
L 2022 519 
Q 2988 519 3436 956 
Q 3884 1394 3884 2338 
Q 3884 3275 3436 3711 
Q 2988 4147 2022 4147 
L 1259 4147 
z
M 628 4666 
L 1925 4666 
Q 3281 4666 3915 4102 
Q 4550 3538 4550 2338 
Q 4550 1131 3912 565 
Q 3275 0 1925 0 
L 628 0 
L 628 4666 
z
" transform="scale(0.015625)"/>
       <path id="DejaVuSans-49" d="M 628 4666 
L 1259 4666 
L 1259 0 
L 628 0 
L 628 4666 
z
" transform="scale(0.015625)"/>
       <path id="DejaVuSans-4d" d="M 628 4666 
L 1569 4666 
L 2759 1491 
L 3956 4666 
L 4897 4666 
L 4897 0 
L 4281 0 
L 4281 4097 
L 3078 897 
L 2444 897 
L 1241 4097 
L 1241 0 
L 628 0 
L 628 4666 
z
" transform="scale(0.015625)"/>
      </defs>
      <use xlink:href="#DejaVuSans-6c"/>
      <use xlink:href="#DejaVuSans-6f" x="27.783203"/>
      <use xlink:href="#DejaVuSans-67" x="88.964844"/>
      <use xlink:href="#DejaVuSans-31" x="152.441406"/>
      <use xlink:href="#DejaVuSans-30" x="216.064453"/>
      <use xlink:href="#DejaVuSans-20" x="279.6875"/>
      <use xlink:href="#DejaVuSans-6f" x="311.474609"/>
      <use xlink:href="#DejaVuSans-66" x="372.65625"/>
      <use xlink:href="#DejaVuSans-20" x="407.861328"/>
      <use xlink:href="#DejaVuSans-46" x="439.648438"/>
      <use xlink:href="#DejaVuSans-45" x="497.167969"/>
      <use xlink:href="#DejaVuSans-76" x="560.351562"/>
      <use xlink:href="#DejaVuSans-61" x="619.53125"/>
      <use xlink:href="#DejaVuSans-6c" x="680.810547"/>
      <use xlink:href="#DejaVuSans-73" x="708.59375"/>
      <use xlink:href="#DejaVuSans-20" x="760.693359"/>
      <use xlink:href="#DejaVuSans-2f" x="792.480469"/>
      <use xlink:href="#DejaVuSans-20" x="826.171875"/>
      <use xlink:href="#DejaVuSans-44" x="857.958984"/>
      <use xlink:href="#DejaVuSans-49" x="934.960938"/>
      <use xlink:href="#DejaVuSans-4d" x="964.453125"/>
     </g>
    </g>
   </g>
   <g id="matplotlib.axis_2">
    <g id="ytick_1">
     <g id="line2d_37">
      <path d="M 62.208 293.76 
L 460.8 293.76 
" clip-path="url(#p0421f9d5c4)" style="fill: none; stroke: #b0b0b0; stroke-width: 0.8; stroke-linecap: square"/>
     </g>
     <g id="line2d_38">
      <defs>
       <path id="md82117f381" d="M 0 0 
L -3.5 0 
" style="stroke: #000000; stroke-width: 0.8"/>
      </defs>
      <g>
       <use xlink:href="#md82117f381" x="62.208" y="293.76" style="stroke: #000000; stroke-width: 0.8"/>
      </g>
     </g>
     <g id="text_5">
      <!-- 0.0 -->
      <g transform="translate(29.763 299.83875)scale(0.16 -0.16)">
       <defs>
        <path id="DejaVuSans-2e" d="M 684 794 
L 1344 794 
L 1344 0 
L 684 0 
L 684 794 
z
" transform="scale(0.015625)"/>
       </defs>
       <use xlink:href="#DejaVuSans-30"/>
       <use xlink:href="#DejaVuSans-2e" x="63.623047"/>
       <use xlink:href="#DejaVuSans-30" x="95.410156"/>
      </g>
     </g>
    </g>
    <g id="ytick_2">
     <g id="line2d_39">
      <path d="M 62.208 236.274059 
L 460.8 236.274059 
" clip-path="url(#p0421f9d5c4)" style="fill: none; stroke: #b0b0b0; stroke-width: 0.8; stroke-linecap: square"/>
     </g>
     <g id="line2d_40">
      <g>
       <use xlink:href="#md82117f381" x="62.208" y="236.274059" style="stroke: #000000; stroke-width: 0.8"/>
      </g>
     </g>
     <g id="text_6">
      <!-- 0.2 -->
      <g transform="translate(29.763 242.352809)scale(0.16 -0.16)">
       <use xlink:href="#DejaVuSans-30"/>
       <use xlink:href="#DejaVuSans-2e" x="63.623047"/>
       <use xlink:href="#DejaVuSans-32" x="95.410156"/>
      </g>
     </g>
    </g>
    <g id="ytick_3">
     <g id="line2d_41">
      <path d="M 62.208 178.788119 
L 460.8 178.788119 
" clip-path="url(#p0421f9d5c4)" style="fill: none; stroke: #b0b0b0; stroke-width: 0.8; stroke-linecap: square"/>
     </g>
     <g id="line2d_42">
      <g>
       <use xlink:href="#md82117f381" x="62.208" y="178.788119" style="stroke: #000000; stroke-width: 0.8"/>
      </g>
     </g>
     <g id="text_7">
      <!-- 0.4 -->
      <g transform="translate(29.763 184.866869)scale(0.16 -0.16)">
       <use xlink:href="#DejaVuSans-30"/>
       <use xlink:href="#DejaVuSans-2e" x="63.623047"/>
       <use xlink:href="#DejaVuSans-34" x="95.410156"/>
      </g>
     </g>
    </g>
    <g id="ytick_4">
     <g id="line2d_43">
      <path d="M 62.208 121.302178 
L 460.8 121.302178 
" clip-path="url(#p0421f9d5c4)" style="fill: none; stroke: #b0b0b0; stroke-width: 0.8; stroke-linecap: square"/>
     </g>
     <g id="line2d_44">
      <g>
       <use xlink:href="#md82117f381" x="62.208" y="121.302178" style="stroke: #000000; stroke-width: 0.8"/>
      </g>
     </g>
     <g id="text_8">
      <!-- 0.6 -->
      <g transform="translate(29.763 127.380928)scale(0.16 -0.16)">
       <defs>
        <path id="DejaVuSans-36" d="M 2113 2584 
Q 1688 2584 1439 2293 
Q 1191 2003 1191 1497 
Q 1191 994 1439 701 
Q 1688 409 2113 409 
Q 2538 409 2786 701 
Q 3034 994 3034 1497 
Q 3034 2003 2786 2293 
Q 2538 2584 2113 2584 
z
M 3366 4563 
L 3366 3988 
Q 3128 4100 2886 4159 
Q 2644 4219 2406 4219 
Q 1781 4219 1451 3797 
Q 1122 3375 1075 2522 
Q 1259 2794 1537 2939 
Q 1816 3084 2150 3084 
Q 2853 3084 3261 2657 
Q 3669 2231 3669 1497 
Q 3669 778 3244 343 
Q 2819 -91 2113 -91 
Q 1303 -91 875 529 
Q 447 1150 447 2328 
Q 447 3434 972 4092 
Q 1497 4750 2381 4750 
Q 2619 4750 2861 4703 
Q 3103 4656 3366 4563 
z
" transform="scale(0.015625)"/>
       </defs>
       <use xlink:href="#DejaVuSans-30"/>
       <use xlink:href="#DejaVuSans-2e" x="63.623047"/>
       <use xlink:href="#DejaVuSans-36" x="95.410156"/>
      </g>
     </g>
    </g>
    <g id="ytick_5">
     <g id="line2d_45">
      <path d="M 62.208 63.816238 
L 460.8 63.816238 
" clip-path="url(#p0421f9d5c4)" style="fill: none; stroke: #b0b0b0; stroke-width: 0.8; stroke-linecap: square"/>
     </g>
     <g id="line2d_46">
      <g>
       <use xlink:href="#md82117f381" x="62.208" y="63.816238" style="stroke: #000000; stroke-width: 0.8"/>
      </g>
     </g>
     <g id="text_9">
      <!-- 0.8 -->
      <g transform="translate(29.763 69.894988)scale(0.16 -0.16)">
       <defs>
        <path id="DejaVuSans-38" d="M 2034 2216 
Q 1584 2216 1326 1975 
Q 1069 1734 1069 1313 
Q 1069 891 1326 650 
Q 1584 409 2034 409 
Q 2484 409 2743 651 
Q 3003 894 3003 1313 
Q 3003 1734 2745 1975 
Q 2488 2216 2034 2216 
z
M 1403 2484 
Q 997 2584 770 2862 
Q 544 3141 544 3541 
Q 544 4100 942 4425 
Q 1341 4750 2034 4750 
Q 2731 4750 3128 4425 
Q 3525 4100 3525 3541 
Q 3525 3141 3298 2862 
Q 3072 2584 2669 2484 
Q 3125 2378 3379 2068 
Q 3634 1759 3634 1313 
Q 3634 634 3220 271 
Q 2806 -91 2034 -91 
Q 1263 -91 848 271 
Q 434 634 434 1313 
Q 434 1759 690 2068 
Q 947 2378 1403 2484 
z
M 1172 3481 
Q 1172 3119 1398 2916 
Q 1625 2713 2034 2713 
Q 2441 2713 2670 2916 
Q 2900 3119 2900 3481 
Q 2900 3844 2670 4047 
Q 2441 4250 2034 4250 
Q 1625 4250 1398 4047 
Q 1172 3844 1172 3481 
z
" transform="scale(0.015625)"/>
       </defs>
       <use xlink:href="#DejaVuSans-30"/>
       <use xlink:href="#DejaVuSans-2e" x="63.623047"/>
       <use xlink:href="#DejaVuSans-38" x="95.410156"/>
      </g>
     </g>
    </g>
    <g id="ytick_6">
     <g id="line2d_47">
      <path d="M 62.208 6.330297 
L 460.8 6.330297 
" clip-path="url(#p0421f9d5c4)" style="fill: none; stroke: #b0b0b0; stroke-width: 0.8; stroke-linecap: square"/>
     </g>
     <g id="line2d_48">
      <g>
       <use xlink:href="#md82117f381" x="62.208" y="6.330297" style="stroke: #000000; stroke-width: 0.8"/>
      </g>
     </g>
     <g id="text_10">
      <!-- 1.0 -->
      <g transform="translate(29.763 12.409047)scale(0.16 -0.16)">
       <use xlink:href="#DejaVuSans-31"/>
       <use xlink:href="#DejaVuSans-2e" x="63.623047"/>
       <use xlink:href="#DejaVuSans-30" x="95.410156"/>
      </g>
     </g>
    </g>
    <g id="text_11">
     <!-- proportion of trials -->
     <g transform="translate(21.603625 241.61425)rotate(-90)scale(0.2 -0.2)">
      <defs>
       <path id="DejaVuSans-70" d="M 1159 525 
L 1159 -1331 
L 581 -1331 
L 581 3500 
L 1159 3500 
L 1159 2969 
Q 1341 3281 1617 3432 
Q 1894 3584 2278 3584 
Q 2916 3584 3314 3078 
Q 3713 2572 3713 1747 
Q 3713 922 3314 415 
Q 2916 -91 2278 -91 
Q 1894 -91 1617 61 
Q 1341 213 1159 525 
z
M 3116 1747 
Q 3116 2381 2855 2742 
Q 2594 3103 2138 3103 
Q 1681 3103 1420 2742 
Q 1159 2381 1159 1747 
Q 1159 1113 1420 752 
Q 1681 391 2138 391 
Q 2594 391 2855 752 
Q 3116 1113 3116 1747 
z
" transform="scale(0.015625)"/>
       <path id="DejaVuSans-72" d="M 2631 2963 
Q 2534 3019 2420 3045 
Q 2306 3072 2169 3072 
Q 1681 3072 1420 2755 
Q 1159 2438 1159 1844 
L 1159 0 
L 581 0 
L 581 3500 
L 1159 3500 
L 1159 2956 
Q 1341 3275 1631 3429 
Q 1922 3584 2338 3584 
Q 2397 3584 2469 3576 
Q 2541 3569 2628 3553 
L 2631 2963 
z
" transform="scale(0.015625)"/>
       <path id="DejaVuSans-74" d="M 1172 4494 
L 1172 3500 
L 2356 3500 
L 2356 3053 
L 1172 3053 
L 1172 1153 
Q 1172 725 1289 603 
Q 1406 481 1766 481 
L 2356 481 
L 2356 0 
L 1766 0 
Q 1100 0 847 248 
Q 594 497 594 1153 
L 594 3053 
L 172 3053 
L 172 3500 
L 594 3500 
L 594 4494 
L 1172 4494 
z
" transform="scale(0.015625)"/>
       <path id="DejaVuSans-69" d="M 603 3500 
L 1178 3500 
L 1178 0 
L 603 0 
L 603 3500 
z
M 603 4863 
L 1178 4863 
L 1178 4134 
L 603 4134 
L 603 4863 
z
" transform="scale(0.015625)"/>
       <path id="DejaVuSans-6e" d="M 3513 2113 
L 3513 0 
L 2938 0 
L 2938 2094 
Q 2938 2591 2744 2837 
Q 2550 3084 2163 3084 
Q 1697 3084 1428 2787 
Q 1159 2491 1159 1978 
L 1159 0 
L 581 0 
L 581 3500 
L 1159 3500 
L 1159 2956 
Q 1366 3272 1645 3428 
Q 1925 3584 2291 3584 
Q 2894 3584 3203 3211 
Q 3513 2838 3513 2113 
z
" transform="scale(0.015625)"/>
      </defs>
      <use xlink:href="#DejaVuSans-70"/>
      <use xlink:href="#DejaVuSans-72" x="63.476562"/>
      <use xlink:href="#DejaVuSans-6f" x="102.339844"/>
      <use xlink:href="#DejaVuSans-70" x="163.521484"/>
      <use xlink:href="#DejaVuSans-6f" x="226.998047"/>
      <use xlink:href="#DejaVuSans-72" x="288.179688"/>
      <use xlink:href="#DejaVuSans-74" x="329.292969"/>
      <use xlink:href="#DejaVuSans-69" x="368.501953"/>
      <use xlink:href="#DejaVuSans-6f" x="396.285156"/>
      <use xlink:href="#DejaVuSans-6e" x="457.466797"/>
      <use xlink:href="#DejaVuSans-20" x="520.845703"/>
      <use xlink:href="#DejaVuSans-6f" x="552.632812"/>
      <use xlink:href="#DejaVuSans-66" x="613.814453"/>
      <use xlink:href="#DejaVuSans-20" x="649.019531"/>
      <use xlink:href="#DejaVuSans-74" x="680.806641"/>
      <use xlink:href="#DejaVuSans-72" x="720.015625"/>
      <use xlink:href="#DejaVuSans-69" x="761.128906"/>
      <use xlink:href="#DejaVuSans-61" x="788.912109"/>
      <use xlink:href="#DejaVuSans-6c" x="850.191406"/>
      <use xlink:href="#DejaVuSans-73" x="877.974609"/>
     </g>
    </g>
   </g>
   <g id="line2d_49">
    <path d="M -1 289.927604 
L -0.345035 289.927604 
L -0.345035 286.095208 
L -0.345035 286.095208 
L -0.345035 282.262812 
L 9.1406 282.262812 
L 9.1406 278.430416 
L 16.498229 278.430416 
L 16.498229 274.59802 
L 22.509851 274.59802 
L 22.509851 270.765624 
L 27.592604 270.765624 
L 27.592604 266.933228 
L 27.592604 266.933228 
L 27.592604 263.100832 
L 27.592604 263.100832 
L 27.592604 259.268436 
L 31.995485 259.268436 
L 31.995485 255.43604 
L 31.995485 255.43604 
L 31.995485 251.603644 
L 35.879101 251.603644 
L 35.879101 247.771248 
L 39.353115 247.771248 
L 39.353115 243.938851 
L 50.447489 243.938851 
L 50.447489 240.106455 
L 54.85037 240.106455 
L 54.85037 236.274059 
L 179.342833 236.274059 
L 179.342833 232.441663 
L 181.358454 232.441663 
L 181.358454 228.609267 
L 182.494048 228.609267 
L 182.494048 224.776871 
L 184.694423 224.776871 
L 184.694423 220.944475 
L 184.974362 220.944475 
L 184.974362 217.112079 
L 185.251944 217.112079 
L 185.251944 213.279683 
L 186.60585 213.279683 
L 186.60585 209.447287 
L 188.733854 209.447287 
L 188.733854 205.614891 
L 188.981637 205.614891 
L 188.981637 201.782495 
L 191.460418 201.782495 
L 191.460418 197.950099 
L 191.558405 197.950099 
L 191.558405 194.117703 
L 192.459176 194.117703 
L 192.459176 190.285307 
L 192.585873 190.285307 
L 192.585873 186.452911 
L 192.680576 186.452911 
L 192.680576 182.620515 
L 194.069428 182.620515 
L 194.069428 178.788119 
L 195.748611 178.788119 
L 195.748611 174.955723 
L 195.920493 174.955723 
L 195.920493 171.123327 
L 196.119896 171.123327 
L 196.119896 167.290931 
L 196.261592 167.290931 
L 196.261592 163.458535 
L 196.289859 163.458535 
L 196.289859 159.626139 
L 196.710971 159.626139 
L 196.710971 155.793743 
L 196.738855 155.793743 
L 196.738855 151.961347 
L 197.889179 151.961347 
L 197.889179 148.12895 
L 198.89646 148.12895 
L 198.89646 144.296554 
L 199.61946 144.296554 
L 199.61946 140.464158 
L 200.050813 140.464158 
L 200.050813 136.631762 
L 200.176614 136.631762 
L 200.176614 132.799366 
L 200.251866 132.799366 
L 200.251866 128.96697 
L 200.526327 128.96697 
L 200.526327 125.134574 
L 200.823157 125.134574 
L 200.823157 121.302178 
L 202.991153 121.302178 
L 202.991153 117.469782 
L 203.220928 117.469782 
L 203.220928 113.637386 
L 205.133566 113.637386 
L 205.133566 109.80499 
L 205.669369 109.80499 
L 205.669369 105.972594 
L 207.043428 105.972594 
L 207.043428 102.140198 
L 211.889377 102.140198 
L 211.889377 98.307802 
L 228.672733 98.307802 
L 228.672733 94.475406 
L 228.988666 94.475406 
L 228.988666 90.64301 
L 247.652598 90.64301 
L 247.652598 86.810614 
L 280.841243 86.810614 
L 280.841243 82.978218 
L 280.841243 82.978218 
L 280.841243 82.978218 
L 460.8 82.978218 
" clip-path="url(#p0421f9d5c4)" style="fill: none; stroke: #000000; stroke-width: 1.5; stroke-linecap: square"/>
   </g>
   <g id="line2d_50">
    <defs>
     <path id="md6c0324210" d="M 0 14.142136 
L 8.485281 0 
L 0 -14.142136 
L -8.485281 0 
z
" style="stroke: #000000; stroke-width: 1.5; stroke-linejoin: miter"/>
    </defs>
    <g clip-path="url(#p0421f9d5c4)">
     <use xlink:href="#md6c0324210" x="184.694423" y="224.776871" style="fill-opacity: 0; stroke: #000000; stroke-width: 1.5; stroke-linejoin: miter"/>
     <use xlink:href="#md6c0324210" x="200.251866" y="132.799366" style="fill-opacity: 0; stroke: #000000; stroke-width: 1.5; stroke-linejoin: miter"/>
     <use xlink:href="#md6c0324210" x="228.672733" y="98.307802" style="fill-opacity: 0; stroke: #000000; stroke-width: 1.5; stroke-linejoin: miter"/>
     <use xlink:href="#md6c0324210" x="280.841243" y="86.810614" style="fill-opacity: 0; stroke: #000000; stroke-width: 1.5; stroke-linejoin: miter"/>
     <use xlink:href="#md6c0324210" x="280.841243" y="82.978218" style="fill-opacity: 0; stroke: #000000; stroke-width: 1.5; stroke-linejoin: miter"/>
    </g>
   </g>
   <g id="line2d_51">
    <path clip-path="url(#p0421f9d5c4)" style="fill: none; stroke: #000000; stroke-width: 1.5; stroke-linecap: square"/>
    <g clip-path="url(#p0421f9d5c4)">
     <use xlink:href="#md6c0324210" x="-1" y="581.189703" style="fill-opacity: 0; stroke: #000000; stroke-width: 1.5; stroke-linejoin: miter"/>
     <use xlink:href="#md6c0324210" x="460.8" y="581.189703" style="fill-opacity: 0; stroke: #000000; stroke-width: 1.5; stroke-linejoin: miter"/>
    </g>
   </g>
   <g id="line2d_52">
    <path d="M -1 278.430416 
L -0.345035 278.430416 
L -0.345035 274.59802 
L -0.345035 274.59802 
L -0.345035 270.765624 
L 9.1406 270.765624 
L 9.1406 266.933228 
L 9.1406 266.933228 
L 9.1406 263.100832 
L 16.498229 263.100832 
L 16.498229 259.268436 
L 16.498229 259.268436 
L 16.498229 255.43604 
L 16.498229 255.43604 
L 16.498229 251.603644 
L 16.498229 251.603644 
L 16.498229 247.771248 
L 22.509851 247.771248 
L 22.509851 243.938851 
L 52.722366 243.938851 
L 52.722366 240.106455 
L 52.722366 240.106455 
L 52.722366 236.274059 
L 176.430867 236.274059 
L 176.430867 232.441663 
L 176.636625 232.441663 
L 176.636625 228.609267 
L 176.841107 228.609267 
L 176.841107 224.776871 
L 177.246306 224.776871 
L 177.246306 220.944475 
L 178.529833 220.944475 
L 178.529833 217.112079 
L 178.529833 217.112079 
L 178.529833 213.279683 
L 178.626527 213.279683 
L 178.626527 209.447287 
L 179.765264 209.447287 
L 179.765264 205.614891 
L 185.566346 205.614891 
L 185.566346 201.782495 
L 186.529963 201.782495 
L 186.529963 197.950099 
L 187.35526 197.950099 
L 187.35526 194.117703 
L 187.503119 194.117703 
L 187.503119 190.285307 
L 196.45895 190.285307 
L 196.45895 186.452911 
L 197.264216 186.452911 
L 197.264216 182.620515 
L 201.577824 182.620515 
L 201.577824 178.788119 
L 208.983554 178.788119 
L 208.983554 174.955723 
L 213.820951 174.955723 
L 213.820951 171.123327 
L 215.202802 171.123327 
L 215.202802 167.290931 
L 215.755385 167.290931 
L 215.755385 163.458535 
L 218.111575 163.458535 
L 218.111575 159.626139 
L 219.271643 159.626139 
L 219.271643 155.793743 
L 220.649722 155.793743 
L 220.649722 151.961347 
L 223.43087 151.961347 
L 223.43087 148.12895 
L 223.825461 148.12895 
L 223.825461 144.296554 
L 224.021 144.296554 
L 224.021 140.464158 
L 227.509632 140.464158 
L 227.509632 136.631762 
L 230.793462 136.631762 
L 230.793462 132.799366 
L 231.079967 132.799366 
L 231.079967 128.96697 
L 231.626272 128.96697 
L 231.626272 125.134574 
L 232.258722 125.134574 
L 232.258722 121.302178 
L 233.203668 121.302178 
L 233.203668 117.469782 
L 234.567749 117.469782 
L 234.567749 113.637386 
L 234.567749 113.637386 
L 234.567749 109.80499 
L 250.599355 109.80499 
L 250.599355 105.972594 
L 270.593655 105.972594 
L 270.593655 102.140198 
L 324.901607 102.140198 
L 324.901607 98.307802 
L 393.540059 98.307802 
L 393.540059 94.475406 
L 393.540059 94.475406 
L 393.540059 94.475406 
L 460.8 94.475406 
" clip-path="url(#p0421f9d5c4)" style="fill: none; stroke: #000000; stroke-width: 1.5; stroke-linecap: square"/>
   </g>
   <g id="line2d_53">
    <defs>
     <path id="m4ef860eeb7" d="M 0 7.5 
C 1.989023 7.5 3.896849 6.709753 5.303301 5.303301 
C 6.709753 3.896849 7.5 1.989023 7.5 0 
C 7.5 -1.989023 6.709753 -3.896849 5.303301 -5.303301 
C 3.896849 -6.709753 1.989023 -7.5 0 -7.5 
C -1.989023 -7.5 -3.896849 -6.709753 -5.303301 -5.303301 
C -6.709753 -3.896849 -7.5 -1.989023 -7.5 0 
C -7.5 1.989023 -6.709753 3.896849 -5.303301 5.303301 
C -3.896849 6.709753 -1.989023 7.5 0 7.5 
z
" style="stroke: #000000; stroke-width: 1.5"/>
    </defs>
    <g clip-path="url(#p0421f9d5c4)">
     <use xlink:href="#m4ef860eeb7" x="176.430867" y="236.274059" style="fill-opacity: 0; stroke: #000000; stroke-width: 1.5"/>
     <use xlink:href="#m4ef860eeb7" x="201.577824" y="182.620515" style="fill-opacity: 0; stroke: #000000; stroke-width: 1.5"/>
     <use xlink:href="#m4ef860eeb7" x="250.599355" y="109.80499" style="fill-opacity: 0; stroke: #000000; stroke-width: 1.5"/>
     <use xlink:href="#m4ef860eeb7" x="270.593655" y="105.972594" style="fill-opacity: 0; stroke: #000000; stroke-width: 1.5"/>
     <use xlink:href="#m4ef860eeb7" x="324.901607" y="102.140198" style="fill-opacity: 0; stroke: #000000; stroke-width: 1.5"/>
     <use xlink:href="#m4ef860eeb7" x="393.540059" y="94.475406" style="fill-opacity: 0; stroke: #000000; stroke-width: 1.5"/>
    </g>
   </g>
   <g id="line2d_54">
    <path clip-path="url(#p0421f9d5c4)" style="fill: none; stroke: #000000; stroke-width: 1.5; stroke-linecap: square"/>
   </g>
   <g id="line2d_55">
    <path d="M 237.993941 293.76 
L 237.993941 289.927604 
L 237.993941 289.927604 
L 237.993941 289.927604 
L 460.8 289.927604 
" clip-path="url(#p0421f9d5c4)" style="fill: none; stroke: #00bfbf; stroke-width: 1.5; stroke-linecap: square"/>
   </g>
   <g id="line2d_56">
    <defs>
     <path id="ma5bacc58ba" d="M 0 14.142136 
L 8.485281 0 
L 0 -14.142136 
L -8.485281 0 
z
" style="stroke: #00bfbf; stroke-width: 1.5; stroke-linejoin: miter"/>
    </defs>
    <g clip-path="url(#p0421f9d5c4)">
     <use xlink:href="#ma5bacc58ba" x="237.993941" y="293.76" style="fill-opacity: 0; stroke: #00bfbf; stroke-width: 1.5; stroke-linejoin: miter"/>
     <use xlink:href="#ma5bacc58ba" x="237.993941" y="293.76" style="fill-opacity: 0; stroke: #00bfbf; stroke-width: 1.5; stroke-linejoin: miter"/>
     <use xlink:href="#ma5bacc58ba" x="237.993941" y="289.927604" style="fill-opacity: 0; stroke: #00bfbf; stroke-width: 1.5; stroke-linejoin: miter"/>
    </g>
   </g>
   <g id="line2d_57">
    <path clip-path="url(#p0421f9d5c4)" style="fill: none; stroke: #00bfbf; stroke-width: 1.5; stroke-linecap: square"/>
    <g clip-path="url(#p0421f9d5c4)">
     <use xlink:href="#ma5bacc58ba" x="-1" y="581.189703" style="fill-opacity: 0; stroke: #00bfbf; stroke-width: 1.5; stroke-linejoin: miter"/>
     <use xlink:href="#ma5bacc58ba" x="460.8" y="581.189703" style="fill-opacity: 0; stroke: #00bfbf; stroke-width: 1.5; stroke-linejoin: miter"/>
    </g>
   </g>
   <g id="line2d_58">
    <path d="M 267.363071 293.76 
L 267.363071 289.927604 
L 276.448613 289.927604 
L 276.448613 286.095208 
L 289.968262 286.095208 
L 289.968262 282.262812 
L 296.454377 282.262812 
L 296.454377 278.430416 
L 338.042381 278.430416 
L 338.042381 274.59802 
L 398.383101 274.59802 
L 398.383101 270.765624 
L 398.383101 270.765624 
L 398.383101 270.765624 
L 460.8 270.765624 
" clip-path="url(#p0421f9d5c4)" style="fill: none; stroke: #00bfbf; stroke-width: 1.5; stroke-linecap: square"/>
   </g>
   <g id="line2d_59">
    <defs>
     <path id="m3d0d12786c" d="M 0 7.5 
C 1.989023 7.5 3.896849 6.709753 5.303301 5.303301 
C 6.709753 3.896849 7.5 1.989023 7.5 0 
C 7.5 -1.989023 6.709753 -3.896849 5.303301 -5.303301 
C 3.896849 -6.709753 1.989023 -7.5 0 -7.5 
C -1.989023 -7.5 -3.896849 -6.709753 -5.303301 -5.303301 
C -6.709753 -3.896849 -7.5 -1.989023 -7.5 0 
C -7.5 1.989023 -6.709753 3.896849 -5.303301 5.303301 
C -3.896849 6.709753 -1.989023 7.5 0 7.5 
z
" style="stroke: #00bfbf; stroke-width: 1.5"/>
    </defs>
    <g clip-path="url(#p0421f9d5c4)">
     <use xlink:href="#m3d0d12786c" x="296.454377" y="282.262812" style="fill-opacity: 0; stroke: #00bfbf; stroke-width: 1.5"/>
     <use xlink:href="#m3d0d12786c" x="338.042381" y="278.430416" style="fill-opacity: 0; stroke: #00bfbf; stroke-width: 1.5"/>
     <use xlink:href="#m3d0d12786c" x="398.383101" y="274.59802" style="fill-opacity: 0; stroke: #00bfbf; stroke-width: 1.5"/>
     <use xlink:href="#m3d0d12786c" x="398.383101" y="270.765624" style="fill-opacity: 0; stroke: #00bfbf; stroke-width: 1.5"/>
    </g>
   </g>
   <g id="line2d_60">
    <path clip-path="url(#p0421f9d5c4)" style="fill: none; stroke: #00bfbf; stroke-width: 1.5; stroke-linecap: square"/>
   </g>
   <g id="line2d_61">
    <path d="M 270.632211 293.76 
L 270.632211 289.927604 
L 270.632211 289.927604 
L 270.632211 289.927604 
L 460.8 289.927604 
" clip-path="url(#p0421f9d5c4)" style="fill: none; stroke: #bf00bf; stroke-width: 1.5; stroke-linecap: square"/>
   </g>
   <g id="line2d_62">
    <defs>
     <path id="m0320825c68" d="M 0 14.142136 
L 8.485281 0 
L 0 -14.142136 
L -8.485281 0 
z
" style="stroke: #bf00bf; stroke-width: 1.5; stroke-linejoin: miter"/>
    </defs>
    <g clip-path="url(#p0421f9d5c4)">
     <use xlink:href="#m0320825c68" x="270.632211" y="293.76" style="fill-opacity: 0; stroke: #bf00bf; stroke-width: 1.5; stroke-linejoin: miter"/>
     <use xlink:href="#m0320825c68" x="270.632211" y="293.76" style="fill-opacity: 0; stroke: #bf00bf; stroke-width: 1.5; stroke-linejoin: miter"/>
     <use xlink:href="#m0320825c68" x="270.632211" y="289.927604" style="fill-opacity: 0; stroke: #bf00bf; stroke-width: 1.5; stroke-linejoin: miter"/>
    </g>
   </g>
   <g id="line2d_63">
    <path clip-path="url(#p0421f9d5c4)" style="fill: none; stroke: #bf00bf; stroke-width: 1.5; stroke-linecap: square"/>
    <g clip-path="url(#p0421f9d5c4)">
     <use xlink:href="#m0320825c68" x="-1" y="581.189703" style="fill-opacity: 0; stroke: #bf00bf; stroke-width: 1.5; stroke-linejoin: miter"/>
     <use xlink:href="#m0320825c68" x="460.8" y="581.189703" style="fill-opacity: 0; stroke: #bf00bf; stroke-width: 1.5; stroke-linejoin: miter"/>
    </g>
   </g>
   <g id="line2d_64">
    <path d="M 327.691864 293.76 
L 327.691864 289.927604 
L 329.216989 289.927604 
L 329.216989 286.095208 
L 333.057394 286.095208 
L 333.057394 282.262812 
L 333.582551 282.262812 
L 333.582551 278.430416 
L 354.494555 278.430416 
L 354.494555 274.59802 
L 413.42429 274.59802 
L 413.42429 270.765624 
L 413.42429 270.765624 
L 413.42429 270.765624 
L 460.8 270.765624 
" clip-path="url(#p0421f9d5c4)" style="fill: none; stroke: #bf00bf; stroke-width: 1.5; stroke-linecap: square"/>
   </g>
   <g id="line2d_65">
    <defs>
     <path id="m62c6a0b956" d="M 0 7.5 
C 1.989023 7.5 3.896849 6.709753 5.303301 5.303301 
C 6.709753 3.896849 7.5 1.989023 7.5 0 
C 7.5 -1.989023 6.709753 -3.896849 5.303301 -5.303301 
C 3.896849 -6.709753 1.989023 -7.5 0 -7.5 
C -1.989023 -7.5 -3.896849 -6.709753 -5.303301 -5.303301 
C -6.709753 -3.896849 -7.5 -1.989023 -7.5 0 
C -7.5 1.989023 -6.709753 3.896849 -5.303301 5.303301 
C -3.896849 6.709753 -1.989023 7.5 0 7.5 
z
" style="stroke: #bf00bf; stroke-width: 1.5"/>
    </defs>
    <g clip-path="url(#p0421f9d5c4)">
     <use xlink:href="#m62c6a0b956" x="333.582551" y="282.262812" style="fill-opacity: 0; stroke: #bf00bf; stroke-width: 1.5"/>
     <use xlink:href="#m62c6a0b956" x="333.582551" y="282.262812" style="fill-opacity: 0; stroke: #bf00bf; stroke-width: 1.5"/>
     <use xlink:href="#m62c6a0b956" x="413.42429" y="274.59802" style="fill-opacity: 0; stroke: #bf00bf; stroke-width: 1.5"/>
     <use xlink:href="#m62c6a0b956" x="413.42429" y="270.765624" style="fill-opacity: 0; stroke: #bf00bf; stroke-width: 1.5"/>
    </g>
   </g>
   <g id="line2d_66">
    <path clip-path="url(#p0421f9d5c4)" style="fill: none; stroke: #bf00bf; stroke-width: 1.5; stroke-linecap: square"/>
   </g>
   <g id="line2d_67">
    <path d="M 291.222064 293.76 
L 291.222064 289.927604 
L 291.222064 289.927604 
L 291.222064 289.927604 
L 460.8 289.927604 
" clip-path="url(#p0421f9d5c4)" style="fill: none; stroke: #ff0000; stroke-width: 3; stroke-linecap: square"/>
   </g>
   <g id="line2d_68">
    <defs>
     <path id="m3c3df8463d" d="M 0 14.142136 
L 8.485281 0 
L 0 -14.142136 
L -8.485281 0 
z
" style="stroke: #ff0000; stroke-width: 3; stroke-linejoin: miter"/>
    </defs>
    <g clip-path="url(#p0421f9d5c4)">
     <use xlink:href="#m3c3df8463d" x="291.222064" y="293.76" style="fill-opacity: 0; stroke: #ff0000; stroke-width: 3; stroke-linejoin: miter"/>
     <use xlink:href="#m3c3df8463d" x="291.222064" y="293.76" style="fill-opacity: 0; stroke: #ff0000; stroke-width: 3; stroke-linejoin: miter"/>
     <use xlink:href="#m3c3df8463d" x="291.222064" y="289.927604" style="fill-opacity: 0; stroke: #ff0000; stroke-width: 3; stroke-linejoin: miter"/>
    </g>
   </g>
   <g id="line2d_69">
    <path clip-path="url(#p0421f9d5c4)" style="fill: none; stroke: #ff0000; stroke-width: 3; stroke-linecap: square"/>
    <g clip-path="url(#p0421f9d5c4)">
     <use xlink:href="#m3c3df8463d" x="-1" y="581.189703" style="fill-opacity: 0; stroke: #ff0000; stroke-width: 3; stroke-linejoin: miter"/>
     <use xlink:href="#m3c3df8463d" x="460.8" y="581.189703" style="fill-opacity: 0; stroke: #ff0000; stroke-width: 3; stroke-linejoin: miter"/>
    </g>
   </g>
   <g id="line2d_70">
    <path d="M 351.614885 293.76 
L 351.614885 289.927604 
L 352.438167 289.927604 
L 352.438167 286.095208 
L 353.526204 286.095208 
L 353.526204 282.262812 
L 356.944845 282.262812 
L 356.944845 278.430416 
L 365.535768 278.430416 
L 365.535768 274.59802 
L 433.15415 274.59802 
L 433.15415 270.765624 
L 433.15415 270.765624 
L 433.15415 270.765624 
L 460.8 270.765624 
" clip-path="url(#p0421f9d5c4)" style="fill: none; stroke: #ff0000; stroke-width: 3; stroke-linecap: square"/>
   </g>
   <g id="line2d_71">
    <defs>
     <path id="mcc18b8cfae" d="M 0 7.5 
C 1.989023 7.5 3.896849 6.709753 5.303301 5.303301 
C 6.709753 3.896849 7.5 1.989023 7.5 0 
C 7.5 -1.989023 6.709753 -3.896849 5.303301 -5.303301 
C 3.896849 -6.709753 1.989023 -7.5 0 -7.5 
C -1.989023 -7.5 -3.896849 -6.709753 -5.303301 -5.303301 
C -6.709753 -3.896849 -7.5 -1.989023 -7.5 0 
C -7.5 1.989023 -6.709753 3.896849 -5.303301 5.303301 
C -3.896849 6.709753 -1.989023 7.5 0 7.5 
z
" style="stroke: #ff0000; stroke-width: 3"/>
    </defs>
    <g clip-path="url(#p0421f9d5c4)">
     <use xlink:href="#mcc18b8cfae" x="356.944845" y="282.262812" style="fill-opacity: 0; stroke: #ff0000; stroke-width: 3"/>
     <use xlink:href="#mcc18b8cfae" x="365.535768" y="278.430416" style="fill-opacity: 0; stroke: #ff0000; stroke-width: 3"/>
     <use xlink:href="#mcc18b8cfae" x="433.15415" y="274.59802" style="fill-opacity: 0; stroke: #ff0000; stroke-width: 3"/>
     <use xlink:href="#mcc18b8cfae" x="433.15415" y="270.765624" style="fill-opacity: 0; stroke: #ff0000; stroke-width: 3"/>
    </g>
   </g>
   <g id="line2d_72">
    <path clip-path="url(#p0421f9d5c4)" style="fill: none; stroke: #ff0000; stroke-width: 3; stroke-linecap: square"/>
   </g>
   <g id="line2d_73">
    <path d="M 441.819429 293.76 
L 441.819429 3.456 
" clip-path="url(#p0421f9d5c4)" style="fill: none; stroke: #000000; stroke-width: 1.5; stroke-linecap: square"/>
    <defs>
     <path id="m72d42a0393" d="M -10 0 
L 10 0 
M 0 10 
L 0 -10 
" style="stroke: #000000; stroke-width: 3"/>
    </defs>
    <g clip-path="url(#p0421f9d5c4)">
     <use xlink:href="#m72d42a0393" x="441.819429" y="293.76" style="stroke: #000000; stroke-width: 3"/>
     <use xlink:href="#m72d42a0393" x="441.819429" y="3.456" style="stroke: #000000; stroke-width: 3"/>
    </g>
   </g>
   <g id="line2d_74">
    <path d="M 441.819429 293.76 
L 441.819429 3.456 
" clip-path="url(#p0421f9d5c4)" style="fill: none; stroke: #000000; stroke-width: 1.5; stroke-linecap: square"/>
    <defs>
     <path id="m75349c2cc6" d="M 0 7.5 
C 1.989023 7.5 3.896849 6.709753 5.303301 5.303301 
C 6.709753 3.896849 7.5 1.989023 7.5 0 
C 7.5 -1.989023 6.709753 -3.896849 5.303301 -5.303301 
C 3.896849 -6.709753 1.989023 -7.5 0 -7.5 
C -1.989023 -7.5 -3.896849 -6.709753 -5.303301 -5.303301 
C -6.709753 -3.896849 -7.5 -1.989023 -7.5 0 
C -7.5 1.989023 -6.709753 3.896849 -5.303301 5.303301 
C -3.896849 6.709753 -1.989023 7.5 0 7.5 
z
" style="stroke: #000000; stroke-width: 3"/>
    </defs>
    <g clip-path="url(#p0421f9d5c4)">
     <use xlink:href="#m75349c2cc6" x="441.819429" y="293.76" style="fill-opacity: 0; stroke: #000000; stroke-width: 3"/>
     <use xlink:href="#m75349c2cc6" x="441.819429" y="3.456" style="fill-opacity: 0; stroke: #000000; stroke-width: 3"/>
    </g>
   </g>
   <g id="patch_3">
    <path d="M 62.208 293.76 
L 62.208 3.456 
" style="fill: none; stroke: #000000; stroke-width: 0.8; stroke-linejoin: miter; stroke-linecap: square"/>
   </g>
   <g id="patch_4">
    <path d="M 460.8 293.76 
L 460.8 3.456 
" style="fill: none; stroke: #000000; stroke-width: 0.8; stroke-linejoin: miter; stroke-linecap: square"/>
   </g>
   <g id="patch_5">
    <path d="M 62.208 293.76 
L 460.8 293.76 
" style="fill: none; stroke: #000000; stroke-width: 0.8; stroke-linejoin: miter; stroke-linecap: square"/>
   </g>
   <g id="patch_6">
    <path d="M 62.208 3.456 
L 460.8 3.456 
" style="fill: none; stroke: #000000; stroke-width: 0.8; stroke-linejoin: miter; stroke-linecap: square"/>
   </g>
   <g id="text_12">
    <!-- f20-f24 -->
    <g transform="translate(225.405563 24.458955)scale(0.2 -0.2)">
     <defs>
      <path id="DejaVuSans-2d" d="M 313 2009 
L 1997 2009 
L 1997 1497 
L 313 1497 
L 313 2009 
z
" transform="scale(0.015625)"/>
     </defs>
     <use xlink:href="#DejaVuSans-66"/>
     <use xlink:href="#DejaVuSans-32" x="35.205078"/>
     <use xlink:href="#DejaVuSans-30" x="98.828125"/>
     <use xlink:href="#DejaVuSans-2d" x="162.451172"/>
     <use xlink:href="#DejaVuSans-66" x="198.535156"/>
     <use xlink:href="#DejaVuSans-32" x="233.740234"/>
     <use xlink:href="#DejaVuSans-34" x="297.363281"/>
    </g>
   </g>
   <g id="text_13">
    <!-- absolute targets -->
    <g transform="translate(62.208 606.100277)scale(0.14 -0.14)">
     <defs>
      <path id="DejaVuSans-62" d="M 3116 1747 
Q 3116 2381 2855 2742 
Q 2594 3103 2138 3103 
Q 1681 3103 1420 2742 
Q 1159 2381 1159 1747 
Q 1159 1113 1420 752 
Q 1681 391 2138 391 
Q 2594 391 2855 752 
Q 3116 1113 3116 1747 
z
M 1159 2969 
Q 1341 3281 1617 3432 
Q 1894 3584 2278 3584 
Q 2916 3584 3314 3078 
Q 3713 2572 3713 1747 
Q 3713 922 3314 415 
Q 2916 -91 2278 -91 
Q 1894 -91 1617 61 
Q 1341 213 1159 525 
L 1159 0 
L 581 0 
L 581 4863 
L 1159 4863 
L 1159 2969 
z
" transform="scale(0.015625)"/>
      <path id="DejaVuSans-75" d="M 544 1381 
L 544 3500 
L 1119 3500 
L 1119 1403 
Q 1119 906 1312 657 
Q 1506 409 1894 409 
Q 2359 409 2629 706 
Q 2900 1003 2900 1516 
L 2900 3500 
L 3475 3500 
L 3475 0 
L 2900 0 
L 2900 538 
Q 2691 219 2414 64 
Q 2138 -91 1772 -91 
Q 1169 -91 856 284 
Q 544 659 544 1381 
z
M 1991 3584 
L 1991 3584 
z
" transform="scale(0.015625)"/>
      <path id="DejaVuSans-65" d="M 3597 1894 
L 3597 1613 
L 953 1613 
Q 991 1019 1311 708 
Q 1631 397 2203 397 
Q 2534 397 2845 478 
Q 3156 559 3463 722 
L 3463 178 
Q 3153 47 2828 -22 
Q 2503 -91 2169 -91 
Q 1331 -91 842 396 
Q 353 884 353 1716 
Q 353 2575 817 3079 
Q 1281 3584 2069 3584 
Q 2775 3584 3186 3129 
Q 3597 2675 3597 1894 
z
M 3022 2063 
Q 3016 2534 2758 2815 
Q 2500 3097 2075 3097 
Q 1594 3097 1305 2825 
Q 1016 2553 972 2059 
L 3022 2063 
z
" transform="scale(0.015625)"/>
     </defs>
     <use xlink:href="#DejaVuSans-61"/>
     <use xlink:href="#DejaVuSans-62" x="61.279297"/>
     <use xlink:href="#DejaVuSans-73" x="124.755859"/>
     <use xlink:href="#DejaVuSans-6f" x="176.855469"/>
     <use xlink:href="#DejaVuSans-6c" x="238.037109"/>
     <use xlink:href="#DejaVuSans-75" x="265.820312"/>
     <use xlink:href="#DejaVuSans-74" x="329.199219"/>
     <use xlink:href="#DejaVuSans-65" x="368.408203"/>
     <use xlink:href="#DejaVuSans-20" x="429.931641"/>
     <use xlink:href="#DejaVuSans-74" x="461.71875"/>
     <use xlink:href="#DejaVuSans-61" x="500.927734"/>
     <use xlink:href="#DejaVuSans-72" x="562.207031"/>
     <use xlink:href="#DejaVuSans-67" x="601.570312"/>
     <use xlink:href="#DejaVuSans-65" x="665.046875"/>
     <use xlink:href="#DejaVuSans-74" x="726.570312"/>
     <use xlink:href="#DejaVuSans-73" x="765.779297"/>
    </g>
   </g>
   <g id="text_14">
    <!-- v2.6 -->
    <g style="fill: #808080" transform="translate(250.593063 288.777272)scale(0.1 -0.1)">
     <use xlink:href="#DejaVuSans-76"/>
     <use xlink:href="#DejaVuSans-32" x="59.179688"/>
     <use xlink:href="#DejaVuSans-2e" x="122.802734"/>
     <use xlink:href="#DejaVuSans-36" x="154.589844"/>
    </g>
   </g>
   <g id="legend_1">
    <g id="patch_7">
     <path d="M 76.208 136.881 
L 160.148625 136.881 
Q 164.148625 136.881 164.148625 132.881 
L 164.148625 17.456 
Q 164.148625 13.456 160.148625 13.456 
L 76.208 13.456 
Q 72.208 13.456 72.208 17.456 
L 72.208 132.881 
Q 72.208 136.881 76.208 136.881 
z
" style="fill: #ffffff; opacity: 0.2; stroke: #cccccc; stroke-linejoin: miter"/>
    </g>
    <g id="line2d_75">
     <path d="M 80.208 29.652875 
L 80.208 29.652875 
L 100.208 29.652875 
L 100.208 29.652875 
L 120.208 29.652875 
" style="fill: none; stroke: #000000; stroke-width: 1.5; stroke-linecap: square"/>
    </g>
    <g id="text_15">
     <!-- 1 -->
     <g transform="translate(136.208 36.652875)scale(0.2 -0.2)">
      <use xlink:href="#DejaVuSans-31"/>
     </g>
    </g>
    <g id="line2d_76">
     <path d="M 80.208 59.009125 
L 80.208 59.009125 
L 100.208 59.009125 
L 100.208 59.009125 
L 120.208 59.009125 
" style="fill: none; stroke: #00bfbf; stroke-width: 1.5; stroke-linecap: square"/>
    </g>
    <g id="text_16">
     <!-- -1 -->
     <g transform="translate(136.208 66.009125)scale(0.2 -0.2)">
      <use xlink:href="#DejaVuSans-2d"/>
      <use xlink:href="#DejaVuSans-31" x="36.083984"/>
     </g>
    </g>
    <g id="line2d_77">
     <path d="M 80.208 88.365375 
L 80.208 88.365375 
L 100.208 88.365375 
L 100.208 88.365375 
L 120.208 88.365375 
" style="fill: none; stroke: #bf00bf; stroke-width: 1.5; stroke-linecap: square"/>
    </g>
    <g id="text_17">
     <!-- -4 -->
     <g transform="translate(136.208 95.365375)scale(0.2 -0.2)">
      <use xlink:href="#DejaVuSans-2d"/>
      <use xlink:href="#DejaVuSans-34" x="36.083984"/>
     </g>
    </g>
    <g id="line2d_78">
     <path d="M 80.208 117.721625 
L 80.208 117.721625 
L 100.208 117.721625 
L 100.208 117.721625 
L 120.208 117.721625 
" style="fill: none; stroke: #ff0000; stroke-width: 3; stroke-linecap: square"/>
    </g>
    <g id="text_18">
     <!-- -8 -->
     <g transform="translate(136.208 124.721625)scale(0.2 -0.2)">
      <use xlink:href="#DejaVuSans-2d"/>
      <use xlink:href="#DejaVuSans-38" x="36.083984"/>
     </g>
    </g>
   </g>
  </g>
 </g>
 <defs>
  <clipPath id="p0421f9d5c4">
   <rect x="62.208" y="3.456" width="398.592" height="290.304"/>
  </clipPath>
 </defs>
</svg>
