<?xml version="1.0" encoding="utf-8" standalone="no"?>
<!DOCTYPE svg PUBLIC "-//W3C//DTD SVG 1.1//EN"
  "http://www.w3.org/Graphics/SVG/1.1/DTD/svg11.dtd">
<svg xmlns:xlink="http://www.w3.org/1999/xlink" width="460.8pt" height="345.6pt" viewBox="0 0 460.8 345.6" xmlns="http://www.w3.org/2000/svg" version="1.1">
 <metadata>
  <rdf:RDF xmlns:dc="http://purl.org/dc/elements/1.1/" xmlns:cc="http://creativecommons.org/ns#" xmlns:rdf="http://www.w3.org/1999/02/22-rdf-syntax-ns#">
   <cc:Work>
    <dc:type rdf:resource="http://purl.org/dc/dcmitype/StillImage"/>
    <dc:date>2024-05-29T08:01:56.114143</dc:date>
    <dc:format>image/svg+xml</dc:format>
    <dc:creator>
     <cc:Agent>
      <dc:title>Matplotlib v3.5.1, https://matplotlib.org/</dc:title>
     </cc:Agent>
    </dc:creator>
   </cc:Work>
  </rdf:RDF>
 </metadata>
 <defs>
  <style type="text/css">*{stroke-linejoin: round; stroke-linecap: butt}</style>
 </defs>
 <g id="figure_1">
  <g id="patch_1">
   <path d="M 0 345.6 
L 460.8 345.6 
L 460.8 0 
L 0 0 
z
" style="fill: #ffffff"/>
  </g>
  <g id="axes_1">
   <g id="patch_2">
    <path d="M 57.6 298.944 
L 360.8064 298.944 
L 360.8064 6.912 
L 57.6 6.912 
z
" style="fill: #ffffff"/>
   </g>
   <g id="line2d_1">
    <path d="M 36.933397 298.944 
L 36.933397 292.072659 
L 49.972572 292.072659 
L 49.972572 289.782212 
L 57.6 289.782212 
L 57.6 288.636988 
L 63.011746 288.636988 
L 63.011746 286.346541 
L 67.209423 286.346541 
L 67.209423 282.910871 
L 70.639174 282.910871 
L 70.639174 279.4752 
L 73.538988 279.4752 
L 73.538988 226.794918 
L 76.050921 226.794918 
L 76.050921 178.695529 
L 80.248597 178.695529 
L 80.248597 176.405082 
L 93.287772 176.405082 
L 93.287772 175.259859 
L 94.205591 175.259859 
L 94.205591 174.114635 
L 102.12927 174.114635 
L 102.12927 171.824188 
L 103.269713 171.824188 
L 103.269713 169.533741 
L 104.344952 169.533741 
L 104.344952 168.388518 
L 105.36204 168.388518 
L 105.36204 163.807624 
L 105.850679 163.807624 
L 105.850679 161.517176 
L 106.326946 161.517176 
L 106.326946 156.936282 
L 106.791453 156.936282 
L 106.791453 155.791059 
L 107.244765 155.791059 
L 107.244765 153.500612 
L 107.68741 153.500612 
L 107.68741 146.629271 
L 108.119879 146.629271 
L 108.119879 138.612706 
L 108.542628 138.612706 
L 108.542628 134.031812 
L 108.956085 134.031812 
L 108.956085 128.305694 
L 109.360651 128.305694 
L 109.360651 119.143906 
L 109.756698 119.143906 
L 109.756698 111.127341 
L 110.144579 111.127341 
L 110.144579 107.691671 
L 145.385592 107.691671 
L 145.385592 106.546447 
L 146.023332 106.546447 
L 146.023332 105.401224 
L 157.795157 105.401224 
L 157.795157 104.256 
L 162.634233 104.256 
L 162.634233 103.110776 
L 162.751732 103.110776 
L 162.751732 101.965553 
L 162.868502 101.965553 
L 162.868502 100.820329 
L 163.076878 100.820329 
L 163.076878 99.675106 
L 163.191653 99.675106 
L 163.282972 95.094212 
L 163.373849 95.094212 
L 163.419123 90.513318 
L 163.486831 90.513318 
L 163.531835 84.7872 
L 163.59914 84.7872 
L 163.688506 77.915859 
L 163.710781 77.915859 
L 163.821764 60.737506 
L 163.865975 60.737506 
L 163.932096 49.285271 
L 164.107292 49.285271 
L 164.172572 46.994824 
L 164.686815 46.994824 
L 164.686815 45.8496 
L 165.166781 45.8496 
L 165.187374 42.413929 
L 165.330896 42.413929 
L 165.330896 41.268706 
L 165.695002 41.268706 
L 165.715025 37.833035 
L 165.814821 37.833035 
L 165.814821 36.687812 
L 165.953653 36.687812 
L 165.953653 35.542588 
L 166.189291 35.542588 
L 166.189291 34.397365 
L 166.651893 34.397365 
L 166.670924 28.671247 
L 167.121972 28.671247 
L 167.1776 22.945129 
L 167.453299 22.945129 
L 167.453299 19.509459 
L 167.580589 19.509459 
L 167.689013 11.492894 
L 167.796816 11.492894 
L 167.796816 8.057224 
L 183.842993 8.057224 
L 183.842993 6.912 
L 360.8064 6.912 
L 360.8064 6.912 
" style="fill: none; stroke: #f5deb3; stroke-width: 4; stroke-linecap: square"/>
   </g>
   <g id="line2d_2">
    <defs>
     <path id="m109646d3e6" d="M 0 7.778175 
L 7.778175 0 
L 0 -7.778175 
L -7.778175 0 
z
" style="stroke: #f5deb3; stroke-width: 1.5; stroke-linejoin: miter"/>
    </defs>
    <g>
     <use xlink:href="#m109646d3e6" x="80.248597" y="178.695529" style="fill: #f5deb3; stroke: #f5deb3; stroke-width: 1.5; stroke-linejoin: miter"/>
     <use xlink:href="#m109646d3e6" x="110.144579" y="107.691671" style="fill: #f5deb3; stroke: #f5deb3; stroke-width: 1.5; stroke-linejoin: miter"/>
     <use xlink:href="#m109646d3e6" x="183.842993" y="8.057224" style="fill: #f5deb3; stroke: #f5deb3; stroke-width: 1.5; stroke-linejoin: miter"/>
     <use xlink:href="#m109646d3e6" x="183.842993" y="6.912" style="fill: #f5deb3; stroke: #f5deb3; stroke-width: 1.5; stroke-linejoin: miter"/>
     <use xlink:href="#m109646d3e6" x="183.842993" y="6.912" style="fill: #f5deb3; stroke: #f5deb3; stroke-width: 1.5; stroke-linejoin: miter"/>
     <use xlink:href="#m109646d3e6" x="360.8064" y="6.912" style="fill: #f5deb3; stroke: #f5deb3; stroke-width: 1.5; stroke-linejoin: miter"/>
    </g>
   </g>
   <g id="line2d_3">
    <path style="fill: none; stroke: #f5deb3; stroke-width: 4; stroke-linecap: square"/>
    <g/>
   </g>
   <g id="line2d_4">
    <path d="M 360.8064 6.912 
L 380.514816 12.75264 
" style="fill: none; stroke: #f5deb3; stroke-width: 4; stroke-linecap: square"/>
    <g>
     <use xlink:href="#m109646d3e6" x="360.8064" y="6.912" style="fill: #f5deb3; stroke: #f5deb3; stroke-width: 1.5; stroke-linejoin: miter"/>
     <use xlink:href="#m109646d3e6" x="380.514816" y="12.75264" style="fill: #f5deb3; stroke: #f5deb3; stroke-width: 1.5; stroke-linejoin: miter"/>
    </g>
   </g>
   <g id="matplotlib.axis_1">
    <g id="xtick_1">
     <g id="line2d_5">
      <path d="M 57.6 298.944 
L 57.6 6.912 
" clip-path="url(#pcd8a2164fd)" style="fill: none; stroke: #b0b0b0; stroke-width: 0.8; stroke-linecap: square"/>
     </g>
     <g id="line2d_6">
      <defs>
       <path id="mdcbe0e0ef3" d="M 0 0 
L 0 3.5 
" style="stroke: #000000; stroke-width: 0.8"/>
      </defs>
      <g>
       <use xlink:href="#mdcbe0e0ef3" x="57.6" y="298.944" style="stroke: #000000; stroke-width: 0.8"/>
      </g>
     </g>
     <g id="text_1">
      <!-- 0 -->
      <g transform="translate(52.191875 318.861344)scale(0.17 -0.17)">
       <defs>
        <path id="DejaVuSans-30" d="M 2034 4250 
Q 1547 4250 1301 3770 
Q 1056 3291 1056 2328 
Q 1056 1369 1301 889 
Q 1547 409 2034 409 
Q 2525 409 2770 889 
Q 3016 1369 3016 2328 
Q 3016 3291 2770 3770 
Q 2525 4250 2034 4250 
z
M 2034 4750 
Q 2819 4750 3233 4129 
Q 3647 3509 3647 2328 
Q 3647 1150 3233 529 
Q 2819 -91 2034 -91 
Q 1250 -91 836 529 
Q 422 1150 422 2328 
Q 422 3509 836 4129 
Q 1250 4750 2034 4750 
z
" transform="scale(0.015625)"/>
       </defs>
       <use xlink:href="#DejaVuSans-30"/>
      </g>
     </g>
    </g>
    <g id="xtick_2">
     <g id="line2d_7">
      <path d="M 144.2304 298.944 
L 144.2304 6.912 
" clip-path="url(#pcd8a2164fd)" style="fill: none; stroke: #b0b0b0; stroke-width: 0.8; stroke-linecap: square"/>
     </g>
     <g id="line2d_8">
      <g>
       <use xlink:href="#mdcbe0e0ef3" x="144.2304" y="298.944" style="stroke: #000000; stroke-width: 0.8"/>
      </g>
     </g>
     <g id="text_2">
      <!-- 2 -->
      <g transform="translate(138.822275 318.861344)scale(0.17 -0.17)">
       <defs>
        <path id="DejaVuSans-32" d="M 1228 531 
L 3431 531 
L 3431 0 
L 469 0 
L 469 531 
Q 828 903 1448 1529 
Q 2069 2156 2228 2338 
Q 2531 2678 2651 2914 
Q 2772 3150 2772 3378 
Q 2772 3750 2511 3984 
Q 2250 4219 1831 4219 
Q 1534 4219 1204 4116 
Q 875 4013 500 3803 
L 500 4441 
Q 881 4594 1212 4672 
Q 1544 4750 1819 4750 
Q 2544 4750 2975 4387 
Q 3406 4025 3406 3419 
Q 3406 3131 3298 2873 
Q 3191 2616 2906 2266 
Q 2828 2175 2409 1742 
Q 1991 1309 1228 531 
z
" transform="scale(0.015625)"/>
       </defs>
       <use xlink:href="#DejaVuSans-32"/>
      </g>
     </g>
    </g>
    <g id="xtick_3">
     <g id="line2d_9">
      <path d="M 230.8608 298.944 
L 230.8608 6.912 
" clip-path="url(#pcd8a2164fd)" style="fill: none; stroke: #b0b0b0; stroke-width: 0.8; stroke-linecap: square"/>
     </g>
     <g id="line2d_10">
      <g>
       <use xlink:href="#mdcbe0e0ef3" x="230.8608" y="298.944" style="stroke: #000000; stroke-width: 0.8"/>
      </g>
     </g>
     <g id="text_3">
      <!-- 4 -->
      <g transform="translate(225.452675 318.861344)scale(0.17 -0.17)">
       <defs>
        <path id="DejaVuSans-34" d="M 2419 4116 
L 825 1625 
L 2419 1625 
L 2419 4116 
z
M 2253 4666 
L 3047 4666 
L 3047 1625 
L 3713 1625 
L 3713 1100 
L 3047 1100 
L 3047 0 
L 2419 0 
L 2419 1100 
L 313 1100 
L 313 1709 
L 2253 4666 
z
" transform="scale(0.015625)"/>
       </defs>
       <use xlink:href="#DejaVuSans-34"/>
      </g>
     </g>
    </g>
    <g id="xtick_4">
     <g id="line2d_11">
      <path d="M 317.4912 298.944 
L 317.4912 6.912 
" clip-path="url(#pcd8a2164fd)" style="fill: none; stroke: #b0b0b0; stroke-width: 0.8; stroke-linecap: square"/>
     </g>
     <g id="line2d_12">
      <g>
       <use xlink:href="#mdcbe0e0ef3" x="317.4912" y="298.944" style="stroke: #000000; stroke-width: 0.8"/>
      </g>
     </g>
     <g id="text_4">
      <!-- 6 -->
      <g transform="translate(312.083075 318.861344)scale(0.17 -0.17)">
       <defs>
        <path id="DejaVuSans-36" d="M 2113 2584 
Q 1688 2584 1439 2293 
Q 1191 2003 1191 1497 
Q 1191 994 1439 701 
Q 1688 409 2113 409 
Q 2538 409 2786 701 
Q 3034 994 3034 1497 
Q 3034 2003 2786 2293 
Q 2538 2584 2113 2584 
z
M 3366 4563 
L 3366 3988 
Q 3128 4100 2886 4159 
Q 2644 4219 2406 4219 
Q 1781 4219 1451 3797 
Q 1122 3375 1075 2522 
Q 1259 2794 1537 2939 
Q 1816 3084 2150 3084 
Q 2853 3084 3261 2657 
Q 3669 2231 3669 1497 
Q 3669 778 3244 343 
Q 2819 -91 2113 -91 
Q 1303 -91 875 529 
Q 447 1150 447 2328 
Q 447 3434 972 4092 
Q 1497 4750 2381 4750 
Q 2619 4750 2861 4703 
Q 3103 4656 3366 4563 
z
" transform="scale(0.015625)"/>
       </defs>
       <use xlink:href="#DejaVuSans-36"/>
      </g>
     </g>
    </g>
    <g id="xtick_5">
     <g id="line2d_13">
      <path d="M 100.9152 298.944 
L 100.9152 6.912 
" clip-path="url(#pcd8a2164fd)" style="fill: none; stroke: #b0b0b0; stroke-width: 0.8; stroke-linecap: square"/>
     </g>
     <g id="line2d_14">
      <defs>
       <path id="mb579cb6aec" d="M 0 0 
L 0 2 
" style="stroke: #000000; stroke-width: 0.6"/>
      </defs>
      <g>
       <use xlink:href="#mb579cb6aec" x="100.9152" y="298.944" style="stroke: #000000; stroke-width: 0.6"/>
      </g>
     </g>
    </g>
    <g id="xtick_6">
     <g id="line2d_15">
      <path d="M 187.5456 298.944 
L 187.5456 6.912 
" clip-path="url(#pcd8a2164fd)" style="fill: none; stroke: #b0b0b0; stroke-width: 0.8; stroke-linecap: square"/>
     </g>
     <g id="line2d_16">
      <g>
       <use xlink:href="#mb579cb6aec" x="187.5456" y="298.944" style="stroke: #000000; stroke-width: 0.6"/>
      </g>
     </g>
    </g>
    <g id="xtick_7">
     <g id="line2d_17">
      <path d="M 274.176 298.944 
L 274.176 6.912 
" clip-path="url(#pcd8a2164fd)" style="fill: none; stroke: #b0b0b0; stroke-width: 0.8; stroke-linecap: square"/>
     </g>
     <g id="line2d_18">
      <g>
       <use xlink:href="#mb579cb6aec" x="274.176" y="298.944" style="stroke: #000000; stroke-width: 0.6"/>
      </g>
     </g>
    </g>
    <g id="xtick_8">
     <g id="line2d_19">
      <path d="M 360.8064 298.944 
L 360.8064 6.912 
" clip-path="url(#pcd8a2164fd)" style="fill: none; stroke: #b0b0b0; stroke-width: 0.8; stroke-linecap: square"/>
     </g>
     <g id="line2d_20">
      <g>
       <use xlink:href="#mb579cb6aec" x="360.8064" y="298.944" style="stroke: #000000; stroke-width: 0.6"/>
      </g>
     </g>
    </g>
    <g id="text_5">
     <!-- log10(# f-evals / dimension) -->
     <g transform="translate(88.823278 339.314156)scale(0.17 -0.17)">
      <defs>
       <path id="DejaVuSans-6c" d="M 603 4863 
L 1178 4863 
L 1178 0 
L 603 0 
L 603 4863 
z
" transform="scale(0.015625)"/>
       <path id="DejaVuSans-6f" d="M 1959 3097 
Q 1497 3097 1228 2736 
Q 959 2375 959 1747 
Q 959 1119 1226 758 
Q 1494 397 1959 397 
Q 2419 397 2687 759 
Q 2956 1122 2956 1747 
Q 2956 2369 2687 2733 
Q 2419 3097 1959 3097 
z
M 1959 3584 
Q 2709 3584 3137 3096 
Q 3566 2609 3566 1747 
Q 3566 888 3137 398 
Q 2709 -91 1959 -91 
Q 1206 -91 779 398 
Q 353 888 353 1747 
Q 353 2609 779 3096 
Q 1206 3584 1959 3584 
z
" transform="scale(0.015625)"/>
       <path id="DejaVuSans-67" d="M 2906 1791 
Q 2906 2416 2648 2759 
Q 2391 3103 1925 3103 
Q 1463 3103 1205 2759 
Q 947 2416 947 1791 
Q 947 1169 1205 825 
Q 1463 481 1925 481 
Q 2391 481 2648 825 
Q 2906 1169 2906 1791 
z
M 3481 434 
Q 3481 -459 3084 -895 
Q 2688 -1331 1869 -1331 
Q 1566 -1331 1297 -1286 
Q 1028 -1241 775 -1147 
L 775 -588 
Q 1028 -725 1275 -790 
Q 1522 -856 1778 -856 
Q 2344 -856 2625 -561 
Q 2906 -266 2906 331 
L 2906 616 
Q 2728 306 2450 153 
Q 2172 0 1784 0 
Q 1141 0 747 490 
Q 353 981 353 1791 
Q 353 2603 747 3093 
Q 1141 3584 1784 3584 
Q 2172 3584 2450 3431 
Q 2728 3278 2906 2969 
L 2906 3500 
L 3481 3500 
L 3481 434 
z
" transform="scale(0.015625)"/>
       <path id="DejaVuSans-31" d="M 794 531 
L 1825 531 
L 1825 4091 
L 703 3866 
L 703 4441 
L 1819 4666 
L 2450 4666 
L 2450 531 
L 3481 531 
L 3481 0 
L 794 0 
L 794 531 
z
" transform="scale(0.015625)"/>
       <path id="DejaVuSans-28" d="M 1984 4856 
Q 1566 4138 1362 3434 
Q 1159 2731 1159 2009 
Q 1159 1288 1364 580 
Q 1569 -128 1984 -844 
L 1484 -844 
Q 1016 -109 783 600 
Q 550 1309 550 2009 
Q 550 2706 781 3412 
Q 1013 4119 1484 4856 
L 1984 4856 
z
" transform="scale(0.015625)"/>
       <path id="DejaVuSans-23" d="M 3272 2816 
L 2363 2816 
L 2100 1772 
L 3016 1772 
L 3272 2816 
z
M 2803 4594 
L 2478 3297 
L 3391 3297 
L 3719 4594 
L 4219 4594 
L 3897 3297 
L 4872 3297 
L 4872 2816 
L 3775 2816 
L 3519 1772 
L 4513 1772 
L 4513 1294 
L 3397 1294 
L 3072 0 
L 2572 0 
L 2894 1294 
L 1978 1294 
L 1656 0 
L 1153 0 
L 1478 1294 
L 494 1294 
L 494 1772 
L 1594 1772 
L 1856 2816 
L 850 2816 
L 850 3297 
L 1978 3297 
L 2297 4594 
L 2803 4594 
z
" transform="scale(0.015625)"/>
       <path id="DejaVuSans-20" transform="scale(0.015625)"/>
       <path id="DejaVuSans-66" d="M 2375 4863 
L 2375 4384 
L 1825 4384 
Q 1516 4384 1395 4259 
Q 1275 4134 1275 3809 
L 1275 3500 
L 2222 3500 
L 2222 3053 
L 1275 3053 
L 1275 0 
L 697 0 
L 697 3053 
L 147 3053 
L 147 3500 
L 697 3500 
L 697 3744 
Q 697 4328 969 4595 
Q 1241 4863 1831 4863 
L 2375 4863 
z
" transform="scale(0.015625)"/>
       <path id="DejaVuSans-2d" d="M 313 2009 
L 1997 2009 
L 1997 1497 
L 313 1497 
L 313 2009 
z
" transform="scale(0.015625)"/>
       <path id="DejaVuSans-65" d="M 3597 1894 
L 3597 1613 
L 953 1613 
Q 991 1019 1311 708 
Q 1631 397 2203 397 
Q 2534 397 2845 478 
Q 3156 559 3463 722 
L 3463 178 
Q 3153 47 2828 -22 
Q 2503 -91 2169 -91 
Q 1331 -91 842 396 
Q 353 884 353 1716 
Q 353 2575 817 3079 
Q 1281 3584 2069 3584 
Q 2775 3584 3186 3129 
Q 3597 2675 3597 1894 
z
M 3022 2063 
Q 3016 2534 2758 2815 
Q 2500 3097 2075 3097 
Q 1594 3097 1305 2825 
Q 1016 2553 972 2059 
L 3022 2063 
z
" transform="scale(0.015625)"/>
       <path id="DejaVuSans-76" d="M 191 3500 
L 800 3500 
L 1894 563 
L 2988 3500 
L 3597 3500 
L 2284 0 
L 1503 0 
L 191 3500 
z
" transform="scale(0.015625)"/>
       <path id="DejaVuSans-61" d="M 2194 1759 
Q 1497 1759 1228 1600 
Q 959 1441 959 1056 
Q 959 750 1161 570 
Q 1363 391 1709 391 
Q 2188 391 2477 730 
Q 2766 1069 2766 1631 
L 2766 1759 
L 2194 1759 
z
M 3341 1997 
L 3341 0 
L 2766 0 
L 2766 531 
Q 2569 213 2275 61 
Q 1981 -91 1556 -91 
Q 1019 -91 701 211 
Q 384 513 384 1019 
Q 384 1609 779 1909 
Q 1175 2209 1959 2209 
L 2766 2209 
L 2766 2266 
Q 2766 2663 2505 2880 
Q 2244 3097 1772 3097 
Q 1472 3097 1187 3025 
Q 903 2953 641 2809 
L 641 3341 
Q 956 3463 1253 3523 
Q 1550 3584 1831 3584 
Q 2591 3584 2966 3190 
Q 3341 2797 3341 1997 
z
" transform="scale(0.015625)"/>
       <path id="DejaVuSans-73" d="M 2834 3397 
L 2834 2853 
Q 2591 2978 2328 3040 
Q 2066 3103 1784 3103 
Q 1356 3103 1142 2972 
Q 928 2841 928 2578 
Q 928 2378 1081 2264 
Q 1234 2150 1697 2047 
L 1894 2003 
Q 2506 1872 2764 1633 
Q 3022 1394 3022 966 
Q 3022 478 2636 193 
Q 2250 -91 1575 -91 
Q 1294 -91 989 -36 
Q 684 19 347 128 
L 347 722 
Q 666 556 975 473 
Q 1284 391 1588 391 
Q 1994 391 2212 530 
Q 2431 669 2431 922 
Q 2431 1156 2273 1281 
Q 2116 1406 1581 1522 
L 1381 1569 
Q 847 1681 609 1914 
Q 372 2147 372 2553 
Q 372 3047 722 3315 
Q 1072 3584 1716 3584 
Q 2034 3584 2315 3537 
Q 2597 3491 2834 3397 
z
" transform="scale(0.015625)"/>
       <path id="DejaVuSans-2f" d="M 1625 4666 
L 2156 4666 
L 531 -594 
L 0 -594 
L 1625 4666 
z
" transform="scale(0.015625)"/>
       <path id="DejaVuSans-64" d="M 2906 2969 
L 2906 4863 
L 3481 4863 
L 3481 0 
L 2906 0 
L 2906 525 
Q 2725 213 2448 61 
Q 2172 -91 1784 -91 
Q 1150 -91 751 415 
Q 353 922 353 1747 
Q 353 2572 751 3078 
Q 1150 3584 1784 3584 
Q 2172 3584 2448 3432 
Q 2725 3281 2906 2969 
z
M 947 1747 
Q 947 1113 1208 752 
Q 1469 391 1925 391 
Q 2381 391 2643 752 
Q 2906 1113 2906 1747 
Q 2906 2381 2643 2742 
Q 2381 3103 1925 3103 
Q 1469 3103 1208 2742 
Q 947 2381 947 1747 
z
" transform="scale(0.015625)"/>
       <path id="DejaVuSans-69" d="M 603 3500 
L 1178 3500 
L 1178 0 
L 603 0 
L 603 3500 
z
M 603 4863 
L 1178 4863 
L 1178 4134 
L 603 4134 
L 603 4863 
z
" transform="scale(0.015625)"/>
       <path id="DejaVuSans-6d" d="M 3328 2828 
Q 3544 3216 3844 3400 
Q 4144 3584 4550 3584 
Q 5097 3584 5394 3201 
Q 5691 2819 5691 2113 
L 5691 0 
L 5113 0 
L 5113 2094 
Q 5113 2597 4934 2840 
Q 4756 3084 4391 3084 
Q 3944 3084 3684 2787 
Q 3425 2491 3425 1978 
L 3425 0 
L 2847 0 
L 2847 2094 
Q 2847 2600 2669 2842 
Q 2491 3084 2119 3084 
Q 1678 3084 1418 2786 
Q 1159 2488 1159 1978 
L 1159 0 
L 581 0 
L 581 3500 
L 1159 3500 
L 1159 2956 
Q 1356 3278 1631 3431 
Q 1906 3584 2284 3584 
Q 2666 3584 2933 3390 
Q 3200 3197 3328 2828 
z
" transform="scale(0.015625)"/>
       <path id="DejaVuSans-6e" d="M 3513 2113 
L 3513 0 
L 2938 0 
L 2938 2094 
Q 2938 2591 2744 2837 
Q 2550 3084 2163 3084 
Q 1697 3084 1428 2787 
Q 1159 2491 1159 1978 
L 1159 0 
L 581 0 
L 581 3500 
L 1159 3500 
L 1159 2956 
Q 1366 3272 1645 3428 
Q 1925 3584 2291 3584 
Q 2894 3584 3203 3211 
Q 3513 2838 3513 2113 
z
" transform="scale(0.015625)"/>
       <path id="DejaVuSans-29" d="M 513 4856 
L 1013 4856 
Q 1481 4119 1714 3412 
Q 1947 2706 1947 2009 
Q 1947 1309 1714 600 
Q 1481 -109 1013 -844 
L 513 -844 
Q 928 -128 1133 580 
Q 1338 1288 1338 2009 
Q 1338 2731 1133 3434 
Q 928 4138 513 4856 
z
" transform="scale(0.015625)"/>
      </defs>
      <use xlink:href="#DejaVuSans-6c"/>
      <use xlink:href="#DejaVuSans-6f" x="27.783203"/>
      <use xlink:href="#DejaVuSans-67" x="88.964844"/>
      <use xlink:href="#DejaVuSans-31" x="152.441406"/>
      <use xlink:href="#DejaVuSans-30" x="216.064453"/>
      <use xlink:href="#DejaVuSans-28" x="279.6875"/>
      <use xlink:href="#DejaVuSans-23" x="318.701172"/>
      <use xlink:href="#DejaVuSans-20" x="402.490234"/>
      <use xlink:href="#DejaVuSans-66" x="434.277344"/>
      <use xlink:href="#DejaVuSans-2d" x="463.982422"/>
      <use xlink:href="#DejaVuSans-65" x="500.066406"/>
      <use xlink:href="#DejaVuSans-76" x="561.589844"/>
      <use xlink:href="#DejaVuSans-61" x="620.769531"/>
      <use xlink:href="#DejaVuSans-6c" x="682.048828"/>
      <use xlink:href="#DejaVuSans-73" x="709.832031"/>
      <use xlink:href="#DejaVuSans-20" x="761.931641"/>
      <use xlink:href="#DejaVuSans-2f" x="793.71875"/>
      <use xlink:href="#DejaVuSans-20" x="827.410156"/>
      <use xlink:href="#DejaVuSans-64" x="859.197266"/>
      <use xlink:href="#DejaVuSans-69" x="922.673828"/>
      <use xlink:href="#DejaVuSans-6d" x="950.457031"/>
      <use xlink:href="#DejaVuSans-65" x="1047.869141"/>
      <use xlink:href="#DejaVuSans-6e" x="1109.392578"/>
      <use xlink:href="#DejaVuSans-73" x="1172.771484"/>
      <use xlink:href="#DejaVuSans-69" x="1224.871094"/>
      <use xlink:href="#DejaVuSans-6f" x="1252.654297"/>
      <use xlink:href="#DejaVuSans-6e" x="1313.835938"/>
      <use xlink:href="#DejaVuSans-29" x="1377.214844"/>
     </g>
    </g>
   </g>
   <g id="matplotlib.axis_2">
    <g id="ytick_1">
     <g id="line2d_21">
      <path d="M 57.6 298.944 
L 360.8064 298.944 
" clip-path="url(#pcd8a2164fd)" style="fill: none; stroke: #b0b0b0; stroke-width: 0.8; stroke-linecap: square"/>
     </g>
     <g id="line2d_22">
      <defs>
       <path id="m7e557a88cc" d="M 0 0 
L -3.5 0 
" style="stroke: #000000; stroke-width: 0.8"/>
      </defs>
      <g>
       <use xlink:href="#m7e557a88cc" x="57.6" y="298.944" style="stroke: #000000; stroke-width: 0.8"/>
      </g>
     </g>
     <g id="text_6">
      <!-- 0.0 -->
      <g transform="translate(25.155 305.02275)scale(0.16 -0.16)">
       <defs>
        <path id="DejaVuSans-2e" d="M 684 794 
L 1344 794 
L 1344 0 
L 684 0 
L 684 794 
z
" transform="scale(0.015625)"/>
       </defs>
       <use xlink:href="#DejaVuSans-30"/>
       <use xlink:href="#DejaVuSans-2e" x="63.623047"/>
       <use xlink:href="#DejaVuSans-30" x="95.410156"/>
      </g>
     </g>
    </g>
    <g id="ytick_2">
     <g id="line2d_23">
      <path d="M 57.6 240.5376 
L 360.8064 240.5376 
" clip-path="url(#pcd8a2164fd)" style="fill: none; stroke: #b0b0b0; stroke-width: 0.8; stroke-linecap: square"/>
     </g>
     <g id="line2d_24">
      <g>
       <use xlink:href="#m7e557a88cc" x="57.6" y="240.5376" style="stroke: #000000; stroke-width: 0.8"/>
      </g>
     </g>
     <g id="text_7">
      <!-- 0.2 -->
      <g transform="translate(25.155 246.61635)scale(0.16 -0.16)">
       <use xlink:href="#DejaVuSans-30"/>
       <use xlink:href="#DejaVuSans-2e" x="63.623047"/>
       <use xlink:href="#DejaVuSans-32" x="95.410156"/>
      </g>
     </g>
    </g>
    <g id="ytick_3">
     <g id="line2d_25">
      <path d="M 57.6 182.1312 
L 360.8064 182.1312 
" clip-path="url(#pcd8a2164fd)" style="fill: none; stroke: #b0b0b0; stroke-width: 0.8; stroke-linecap: square"/>
     </g>
     <g id="line2d_26">
      <g>
       <use xlink:href="#m7e557a88cc" x="57.6" y="182.1312" style="stroke: #000000; stroke-width: 0.8"/>
      </g>
     </g>
     <g id="text_8">
      <!-- 0.4 -->
      <g transform="translate(25.155 188.20995)scale(0.16 -0.16)">
       <use xlink:href="#DejaVuSans-30"/>
       <use xlink:href="#DejaVuSans-2e" x="63.623047"/>
       <use xlink:href="#DejaVuSans-34" x="95.410156"/>
      </g>
     </g>
    </g>
    <g id="ytick_4">
     <g id="line2d_27">
      <path d="M 57.6 123.7248 
L 360.8064 123.7248 
" clip-path="url(#pcd8a2164fd)" style="fill: none; stroke: #b0b0b0; stroke-width: 0.8; stroke-linecap: square"/>
     </g>
     <g id="line2d_28">
      <g>
       <use xlink:href="#m7e557a88cc" x="57.6" y="123.7248" style="stroke: #000000; stroke-width: 0.8"/>
      </g>
     </g>
     <g id="text_9">
      <!-- 0.6 -->
      <g transform="translate(25.155 129.80355)scale(0.16 -0.16)">
       <use xlink:href="#DejaVuSans-30"/>
       <use xlink:href="#DejaVuSans-2e" x="63.623047"/>
       <use xlink:href="#DejaVuSans-36" x="95.410156"/>
      </g>
     </g>
    </g>
    <g id="ytick_5">
     <g id="line2d_29">
      <path d="M 57.6 65.3184 
L 360.8064 65.3184 
" clip-path="url(#pcd8a2164fd)" style="fill: none; stroke: #b0b0b0; stroke-width: 0.8; stroke-linecap: square"/>
     </g>
     <g id="line2d_30">
      <g>
       <use xlink:href="#m7e557a88cc" x="57.6" y="65.3184" style="stroke: #000000; stroke-width: 0.8"/>
      </g>
     </g>
     <g id="text_10">
      <!-- 0.8 -->
      <g transform="translate(25.155 71.39715)scale(0.16 -0.16)">
       <defs>
        <path id="DejaVuSans-38" d="M 2034 2216 
Q 1584 2216 1326 1975 
Q 1069 1734 1069 1313 
Q 1069 891 1326 650 
Q 1584 409 2034 409 
Q 2484 409 2743 651 
Q 3003 894 3003 1313 
Q 3003 1734 2745 1975 
Q 2488 2216 2034 2216 
z
M 1403 2484 
Q 997 2584 770 2862 
Q 544 3141 544 3541 
Q 544 4100 942 4425 
Q 1341 4750 2034 4750 
Q 2731 4750 3128 4425 
Q 3525 4100 3525 3541 
Q 3525 3141 3298 2862 
Q 3072 2584 2669 2484 
Q 3125 2378 3379 2068 
Q 3634 1759 3634 1313 
Q 3634 634 3220 271 
Q 2806 -91 2034 -91 
Q 1263 -91 848 271 
Q 434 634 434 1313 
Q 434 1759 690 2068 
Q 947 2378 1403 2484 
z
M 1172 3481 
Q 1172 3119 1398 2916 
Q 1625 2713 2034 2713 
Q 2441 2713 2670 2916 
Q 2900 3119 2900 3481 
Q 2900 3844 2670 4047 
Q 2441 4250 2034 4250 
Q 1625 4250 1398 4047 
Q 1172 3844 1172 3481 
z
" transform="scale(0.015625)"/>
       </defs>
       <use xlink:href="#DejaVuSans-30"/>
       <use xlink:href="#DejaVuSans-2e" x="63.623047"/>
       <use xlink:href="#DejaVuSans-38" x="95.410156"/>
      </g>
     </g>
    </g>
    <g id="ytick_6">
     <g id="line2d_31">
      <path d="M 57.6 6.912 
L 360.8064 6.912 
" clip-path="url(#pcd8a2164fd)" style="fill: none; stroke: #b0b0b0; stroke-width: 0.8; stroke-linecap: square"/>
     </g>
     <g id="line2d_32">
      <g>
       <use xlink:href="#m7e557a88cc" x="57.6" y="6.912" style="stroke: #000000; stroke-width: 0.8"/>
      </g>
     </g>
     <g id="text_11">
      <!-- 1.0 -->
      <g transform="translate(25.155 12.99075)scale(0.16 -0.16)">
       <use xlink:href="#DejaVuSans-31"/>
       <use xlink:href="#DejaVuSans-2e" x="63.623047"/>
       <use xlink:href="#DejaVuSans-30" x="95.410156"/>
      </g>
     </g>
    </g>
    <g id="text_12">
     <!-- Fraction of function,target pairs -->
     <g transform="translate(17.619531 287.313)rotate(-90)scale(0.17 -0.17)">
      <defs>
       <path id="DejaVuSans-46" d="M 628 4666 
L 3309 4666 
L 3309 4134 
L 1259 4134 
L 1259 2759 
L 3109 2759 
L 3109 2228 
L 1259 2228 
L 1259 0 
L 628 0 
L 628 4666 
z
" transform="scale(0.015625)"/>
       <path id="DejaVuSans-72" d="M 2631 2963 
Q 2534 3019 2420 3045 
Q 2306 3072 2169 3072 
Q 1681 3072 1420 2755 
Q 1159 2438 1159 1844 
L 1159 0 
L 581 0 
L 581 3500 
L 1159 3500 
L 1159 2956 
Q 1341 3275 1631 3429 
Q 1922 3584 2338 3584 
Q 2397 3584 2469 3576 
Q 2541 3569 2628 3553 
L 2631 2963 
z
" transform="scale(0.015625)"/>
       <path id="DejaVuSans-63" d="M 3122 3366 
L 3122 2828 
Q 2878 2963 2633 3030 
Q 2388 3097 2138 3097 
Q 1578 3097 1268 2742 
Q 959 2388 959 1747 
Q 959 1106 1268 751 
Q 1578 397 2138 397 
Q 2388 397 2633 464 
Q 2878 531 3122 666 
L 3122 134 
Q 2881 22 2623 -34 
Q 2366 -91 2075 -91 
Q 1284 -91 818 406 
Q 353 903 353 1747 
Q 353 2603 823 3093 
Q 1294 3584 2113 3584 
Q 2378 3584 2631 3529 
Q 2884 3475 3122 3366 
z
" transform="scale(0.015625)"/>
       <path id="DejaVuSans-74" d="M 1172 4494 
L 1172 3500 
L 2356 3500 
L 2356 3053 
L 1172 3053 
L 1172 1153 
Q 1172 725 1289 603 
Q 1406 481 1766 481 
L 2356 481 
L 2356 0 
L 1766 0 
Q 1100 0 847 248 
Q 594 497 594 1153 
L 594 3053 
L 172 3053 
L 172 3500 
L 594 3500 
L 594 4494 
L 1172 4494 
z
" transform="scale(0.015625)"/>
       <path id="DejaVuSans-75" d="M 544 1381 
L 544 3500 
L 1119 3500 
L 1119 1403 
Q 1119 906 1312 657 
Q 1506 409 1894 409 
Q 2359 409 2629 706 
Q 2900 1003 2900 1516 
L 2900 3500 
L 3475 3500 
L 3475 0 
L 2900 0 
L 2900 538 
Q 2691 219 2414 64 
Q 2138 -91 1772 -91 
Q 1169 -91 856 284 
Q 544 659 544 1381 
z
M 1991 3584 
L 1991 3584 
z
" transform="scale(0.015625)"/>
       <path id="DejaVuSans-2c" d="M 750 794 
L 1409 794 
L 1409 256 
L 897 -744 
L 494 -744 
L 750 256 
L 750 794 
z
" transform="scale(0.015625)"/>
       <path id="DejaVuSans-70" d="M 1159 525 
L 1159 -1331 
L 581 -1331 
L 581 3500 
L 1159 3500 
L 1159 2969 
Q 1341 3281 1617 3432 
Q 1894 3584 2278 3584 
Q 2916 3584 3314 3078 
Q 3713 2572 3713 1747 
Q 3713 922 3314 415 
Q 2916 -91 2278 -91 
Q 1894 -91 1617 61 
Q 1341 213 1159 525 
z
M 3116 1747 
Q 3116 2381 2855 2742 
Q 2594 3103 2138 3103 
Q 1681 3103 1420 2742 
Q 1159 2381 1159 1747 
Q 1159 1113 1420 752 
Q 1681 391 2138 391 
Q 2594 391 2855 752 
Q 3116 1113 3116 1747 
z
" transform="scale(0.015625)"/>
      </defs>
      <use xlink:href="#DejaVuSans-46"/>
      <use xlink:href="#DejaVuSans-72" x="50.269531"/>
      <use xlink:href="#DejaVuSans-61" x="91.382812"/>
      <use xlink:href="#DejaVuSans-63" x="152.662109"/>
      <use xlink:href="#DejaVuSans-74" x="207.642578"/>
      <use xlink:href="#DejaVuSans-69" x="246.851562"/>
      <use xlink:href="#DejaVuSans-6f" x="274.634766"/>
      <use xlink:href="#DejaVuSans-6e" x="335.816406"/>
      <use xlink:href="#DejaVuSans-20" x="399.195312"/>
      <use xlink:href="#DejaVuSans-6f" x="430.982422"/>
      <use xlink:href="#DejaVuSans-66" x="492.164062"/>
      <use xlink:href="#DejaVuSans-20" x="527.369141"/>
      <use xlink:href="#DejaVuSans-66" x="559.15625"/>
      <use xlink:href="#DejaVuSans-75" x="594.361328"/>
      <use xlink:href="#DejaVuSans-6e" x="657.740234"/>
      <use xlink:href="#DejaVuSans-63" x="721.119141"/>
      <use xlink:href="#DejaVuSans-74" x="776.099609"/>
      <use xlink:href="#DejaVuSans-69" x="815.308594"/>
      <use xlink:href="#DejaVuSans-6f" x="843.091797"/>
      <use xlink:href="#DejaVuSans-6e" x="904.273438"/>
      <use xlink:href="#DejaVuSans-2c" x="967.652344"/>
      <use xlink:href="#DejaVuSans-74" x="999.439453"/>
      <use xlink:href="#DejaVuSans-61" x="1038.648438"/>
      <use xlink:href="#DejaVuSans-72" x="1099.927734"/>
      <use xlink:href="#DejaVuSans-67" x="1139.291016"/>
      <use xlink:href="#DejaVuSans-65" x="1202.767578"/>
      <use xlink:href="#DejaVuSans-74" x="1264.291016"/>
      <use xlink:href="#DejaVuSans-20" x="1303.5"/>
      <use xlink:href="#DejaVuSans-70" x="1335.287109"/>
      <use xlink:href="#DejaVuSans-61" x="1398.763672"/>
      <use xlink:href="#DejaVuSans-69" x="1460.042969"/>
      <use xlink:href="#DejaVuSans-72" x="1487.826172"/>
      <use xlink:href="#DejaVuSans-73" x="1528.939453"/>
     </g>
    </g>
   </g>
   <g id="line2d_33">
    <defs>
     <path id="mfdfd6059c4" d="M 0 1.5 
C 0.397805 1.5 0.77937 1.341951 1.06066 1.06066 
C 1.341951 0.77937 1.5 0.397805 1.5 0 
C 1.5 -0.397805 1.341951 -0.77937 1.06066 -1.06066 
C 0.77937 -1.341951 0.397805 -1.5 0 -1.5 
C -0.397805 -1.5 -0.77937 -1.341951 -1.06066 -1.06066 
C -1.341951 -0.77937 -1.5 -0.397805 -1.5 0 
C -1.5 0.397805 -1.341951 0.77937 -1.06066 1.06066 
C -0.77937 1.341951 -0.397805 1.5 0 1.5 
z
" style="stroke: #f5deb3"/>
    </defs>
    <g>
     <use xlink:href="#mfdfd6059c4" x="183.842993" y="6.912" style="fill: #f5deb3; stroke: #f5deb3"/>
     <use xlink:href="#mfdfd6059c4" x="183.842993" y="6.912" style="fill: #f5deb3; stroke: #f5deb3"/>
    </g>
   </g>
   <g id="line2d_34">
    <defs>
     <path id="m6815b44ee1" d="M 0 1.5 
C 0.397805 1.5 0.77937 1.341951 1.06066 1.06066 
C 1.341951 0.77937 1.5 0.397805 1.5 0 
C 1.5 -0.397805 1.341951 -0.77937 1.06066 -1.06066 
C 0.77937 -1.341951 0.397805 -1.5 0 -1.5 
C -0.397805 -1.5 -0.77937 -1.341951 -1.06066 -1.06066 
C -1.341951 -0.77937 -1.5 -0.397805 -1.5 0 
C -1.5 0.397805 -1.341951 0.77937 -1.06066 1.06066 
C -0.77937 1.341951 -0.397805 1.5 0 1.5 
z
" style="stroke: #000080"/>
    </defs>
    <g>
     <use xlink:href="#m6815b44ee1" x="254.042601" y="6.912" style="fill: #000080; stroke: #000080"/>
     <use xlink:href="#m6815b44ee1" x="254.042601" y="6.912" style="fill: #000080; stroke: #000080"/>
    </g>
   </g>
   <g id="line2d_35">
    <path d="M 36.933397 298.944 
L 36.933397 293.599624 
L 49.972572 293.599624 
L 49.972572 289.705864 
L 57.6 289.705864 
L 57.6 288.331595 
L 63.011746 288.331595 
L 63.011746 287.949854 
L 67.209423 287.949854 
L 67.209423 286.728282 
L 70.639174 286.728282 
L 70.639174 284.895925 
L 73.538988 284.895925 
L 73.538988 284.514184 
L 76.050921 284.514184 
L 76.050921 283.903398 
L 78.266603 283.903398 
L 78.266603 283.750701 
L 80.248597 283.750701 
L 80.248597 283.139915 
L 82.04153 283.139915 
L 82.04153 282.758174 
L 83.678349 282.758174 
L 83.678349 282.452781 
L 85.184077 282.452781 
L 85.184077 282.300085 
L 86.578163 282.300085 
L 86.578163 282.147388 
L 87.876026 282.147388 
L 87.876026 281.460254 
L 89.090095 281.460254 
L 89.090095 280.849468 
L 90.230539 280.849468 
L 90.230539 280.544075 
L 92.322865 280.467727 
L 92.322865 280.315031 
L 93.287772 280.315031 
L 93.287772 280.085986 
L 95.080704 280.085986 
L 95.080704 279.933289 
L 95.916911 279.933289 
L 95.916911 279.704245 
L 97.485448 279.704245 
L 97.485448 279.551548 
L 98.223251 279.551548 
L 98.223251 279.398852 
L 99.617337 279.322504 
L 99.617337 279.246155 
L 100.277459 279.246155 
L 100.277459 279.093459 
L 100.9152 279.093459 
L 100.9152 278.788066 
L 101.532027 278.788066 
L 101.532027 278.559021 
L 103.269713 278.482673 
L 103.269713 278.329976 
L 104.860369 278.329976 
L 104.860369 278.17728 
L 106.791453 278.100932 
L 106.791453 278.024584 
L 108.956085 277.948235 
L 108.956085 277.871887 
L 110.524623 277.795539 
L 110.524623 277.642842 
L 111.620752 277.642842 
L 111.620752 277.490146 
L 111.97238 277.490146 
L 111.97238 277.261101 
L 113.316634 277.184753 
L 113.316634 277.108405 
L 113.954374 277.108405 
L 113.954374 276.955708 
L 114.571202 276.87936 
L 114.571202 276.726664 
L 115.168444 276.726664 
L 115.168444 276.497619 
L 115.460102 276.497619 
L 115.460102 276.344922 
L 116.854188 276.268574 
L 116.854188 276.115878 
L 118.401214 276.039529 
L 118.401214 275.963181 
L 119.129494 275.963181 
L 119.129494 275.657788 
L 120.058649 275.657788 
L 120.058649 275.428744 
L 120.726585 275.352395 
L 120.726585 275.276047 
L 121.159053 275.276047 
L 121.159053 274.970654 
L 123.374735 274.894306 
L 123.374735 274.817958 
L 126.192937 274.741609 
L 126.192937 274.436216 
L 126.836129 274.359868 
L 126.836129 274.207172 
L 129.348062 274.130824 
L 129.348062 274.054475 
L 129.758512 274.054475 
L 129.758512 273.901779 
L 131.191226 273.825431 
L 131.191226 273.596386 
L 131.929028 273.596386 
L 131.929028 273.443689 
L 132.405295 273.367341 
L 132.405295 273.290993 
L 133.323114 273.214645 
L 133.323114 273.138296 
L 133.545739 273.138296 
L 133.545739 272.9856 
L 134.516177 272.9856 
L 134.620977 272.756555 
L 134.828842 272.756555 
L 134.828842 272.451162 
L 137.699101 272.374814 
L 137.699101 271.916725 
L 138.395904 271.840376 
L 138.395904 271.764028 
L 139.394983 271.764028 
L 139.394983 271.458635 
L 139.556456 271.458635 
L 139.556456 271.076894 
L 139.716555 271.076894 
L 139.716555 270.771501 
L 140.188837 270.771501 
L 140.188837 270.618805 
L 140.573544 270.618805 
L 140.649551 270.313412 
L 142.932537 270.237064 
L 142.932537 270.084367 
L 144.10457 270.008019 
L 144.10457 269.473581 
L 144.602918 269.473581 
L 144.602918 269.320885 
L 144.968202 269.244536 
L 145.0284 269.09184 
L 145.207843 269.09184 
L 145.207843 268.939144 
L 148.022421 268.862795 
L 148.022421 268.786447 
L 148.428077 268.786447 
L 148.478174 268.557402 
L 150.515122 268.481054 
L 150.515122 268.404706 
L 151.176793 268.328358 
L 151.220087 268.175661 
L 152.230346 268.099313 
L 152.230346 268.022965 
L 152.515067 267.946616 
L 152.515067 267.870268 
L 153.877408 267.79392 
L 153.952355 267.030438 
L 154.064218 267.030438 
L 154.138425 266.572348 
L 154.212341 266.496 
L 154.285968 266.190607 
L 154.505134 266.114259 
L 154.613767 265.732518 
L 154.793439 265.656169 
L 154.900425 264.969035 
L 154.935952 264.969035 
L 154.935952 264.739991 
L 155.147716 264.739991 
L 155.217778 264.510946 
L 155.391799 264.510946 
L 155.495444 264.205553 
L 155.632755 264.129205 
L 155.666927 263.671115 
L 155.802997 263.594767 
L 155.904407 263.213026 
L 155.971711 263.213026 
L 156.072219 262.678588 
L 156.105602 262.678588 
L 156.205398 261.915106 
L 156.304668 261.915106 
L 156.337642 261.686061 
L 156.664239 261.609713 
L 156.761123 261.30432 
L 156.921495 261.30432 
L 156.953406 260.693534 
L 157.080512 260.617186 
L 157.175281 259.930052 
L 157.238196 259.930052 
L 157.300901 259.548311 
L 157.394569 259.548311 
L 157.487772 258.784828 
L 157.518738 258.784828 
L 157.580516 257.868649 
L 157.642093 257.868649 
L 157.642093 257.715953 
L 157.856036 257.715953 
L 157.946987 257.105167 
L 157.977206 257.105167 
L 158.0375 256.723426 
L 158.15751 256.647078 
L 158.247018 256.11264 
L 158.306454 256.11264 
L 158.336102 255.730899 
L 158.571617 255.654551 
L 158.659181 254.891068 
L 158.717331 254.891068 
L 158.804221 254.509327 
L 158.833095 254.509327 
L 158.890711 254.127586 
L 159.033983 254.127586 
L 159.119425 253.593148 
L 159.14782 253.593148 
L 159.232748 252.371576 
L 159.260973 252.371576 
L 159.345393 251.760791 
L 159.429436 251.684442 
L 159.513105 251.379049 
L 159.568678 251.379049 
L 159.679334 250.997308 
L 159.761902 250.997308 
L 159.871431 250.386522 
L 160.007451 250.310174 
L 160.115564 249.928433 
L 160.169388 249.852085 
L 160.249837 249.546692 
L 160.356569 249.470344 
L 160.383158 249.317647 
L 160.620781 249.317647 
L 160.725435 248.554165 
L 160.803545 248.477816 
L 160.881333 248.248772 
L 160.933013 248.248772 
L 160.984551 248.019727 
L 161.061595 248.019727 
L 161.138325 247.485289 
L 161.341421 247.408941 
L 161.391854 247.103548 
L 161.517348 247.0272 
L 161.617145 245.652932 
L 161.666845 245.652932 
L 161.765853 244.736753 
L 161.790524 244.736753 
L 161.864343 244.278664 
L 161.937874 244.278664 
L 162.011118 243.973271 
L 162.420867 243.896922 
L 162.515995 243.744226 
L 162.961399 243.667878 
L 163.053839 243.515181 
L 163.351171 243.438833 
L 163.419123 242.980744 
L 163.576732 242.904395 
L 163.621521 242.522654 
L 163.821764 242.446306 
L 163.932096 242.217261 
L 163.954085 242.217261 
L 164.019898 238.628894 
L 164.623299 238.552546 
L 164.686815 238.399849 
L 164.792203 238.399849 
L 164.876089 238.170805 
L 165.207944 238.094456 
L 165.207944 238.018108 
L 165.534047 238.018108 
L 165.634805 237.636367 
L 165.735027 237.560019 
L 165.834717 236.567492 
L 166.228279 236.567492 
L 166.325396 236.185751 
L 166.40273 236.109402 
L 166.40273 236.033054 
L 166.784704 235.956706 
L 166.784704 235.880358 
L 167.103392 235.804009 
L 167.103392 235.727661 
L 167.416772 235.651313 
L 167.526142 235.498616 
L 167.707023 235.422268 
L 167.707023 235.040527 
L 168.169334 234.964179 
L 168.169334 231.681205 
L 168.396298 231.604856 
L 168.396298 231.528508 
L 168.586228 231.45216 
L 168.586228 231.375812 
L 168.706102 231.375812 
L 168.808246 227.940141 
L 168.859111 227.940141 
L 168.859111 224.657167 
L 169.343842 224.580819 
L 169.409732 224.199078 
L 169.703414 224.122729 
L 169.784185 223.970033 
L 170.040346 223.970033 
L 170.040346 223.740988 
L 170.324419 223.66464 
L 170.340075 223.206551 
L 170.449309 223.206551 
L 170.511445 222.672113 
L 170.69663 222.672113 
L 170.69663 222.290372 
L 170.864796 222.290372 
L 170.971033 222.061327 
L 171.031472 222.061327 
L 171.061619 221.832282 
L 171.256404 221.755934 
L 171.286192 221.603238 
L 171.493403 221.526889 
L 171.493403 221.450541 
L 171.771015 221.374193 
L 171.814477 221.145148 
L 171.88669 221.145148 
L 171.972982 220.305318 
L 172.115927 220.228969 
L 172.115927 220.076273 
L 172.356469 219.999925 
L 172.440637 219.77088 
L 172.593974 219.694532 
L 172.663262 219.389139 
L 172.869606 219.312791 
L 172.924252 219.160094 
L 173.18167 219.083746 
L 173.18167 219.007398 
L 173.462145 218.931049 
L 173.515098 218.625656 
L 173.77765 218.549308 
L 173.77765 218.396612 
L 173.894614 218.396612 
L 173.894614 218.167567 
L 174.241203 218.167567 
L 174.304691 217.785826 
L 174.393216 217.785826 
L 174.393216 217.480433 
L 174.518962 217.480433 
L 174.594009 217.17504 
L 174.656319 217.17504 
L 174.73082 216.640602 
L 174.817367 216.640602 
L 174.866645 215.724424 
L 175.171736 215.648075 
L 175.244228 214.884593 
L 175.661617 214.808245 
L 175.696966 214.5792 
L 176.150559 214.502852 
L 176.162047 214.350155 
L 176.604692 214.273807 
L 176.638314 214.044762 
L 177.080959 214.044762 
L 177.080959 213.663021 
L 177.363192 213.586673 
L 177.449188 213.128584 
L 177.513428 213.052235 
L 177.577449 212.441449 
L 177.72599 212.441449 
L 177.778757 211.907012 
L 178.195651 211.907012 
L 178.195651 211.372574 
L 178.903696 211.296226 
L 178.903696 211.219878 
L 179.042162 211.219878 
L 179.052014 210.990833 
L 179.179617 210.990833 
L 179.267453 209.769261 
L 179.432255 209.692913 
L 179.518922 209.005779 
L 179.908764 208.929431 
L 179.927575 208.700386 
L 180.13327 208.700386 
L 180.13327 206.180894 
L 180.272238 206.104546 
L 180.272238 205.570108 
L 180.428504 205.570108 
L 180.501594 205.264715 
L 180.628823 205.264715 
L 180.628823 205.035671 
L 180.853898 204.959322 
L 180.853898 204.882974 
L 181.252369 204.806626 
L 181.252369 204.348536 
L 181.67687 204.272188 
L 181.753809 203.050616 
L 181.881346 202.974268 
L 181.949013 202.134438 
L 182.083622 202.058089 
L 182.192288 201.676348 
L 182.250541 201.676348 
L 182.300329 201.141911 
L 182.547311 201.065562 
L 182.604477 200.683821 
L 182.959879 200.607473 
L 183.039725 197.171802 
L 183.166777 197.095454 
L 183.198406 196.942758 
L 183.324394 196.942758 
L 183.394894 196.637365 
L 183.535105 196.637365 
L 183.61255 196.179275 
L 183.658865 196.179275 
L 183.68198 195.721186 
L 183.881127 195.644838 
L 183.972335 195.339445 
L 184.317924 195.263096 
L 184.317924 195.186748 
L 184.525216 195.186748 
L 184.56934 194.652311 
L 184.671895 194.652311 
L 184.671895 192.056471 
L 184.81019 191.980122 
L 184.889792 190.605854 
L 184.947474 190.605854 
L 185.040832 190.071416 
L 185.14798 190.071416 
L 185.254521 188.6208 
L 185.640089 188.544452 
L 185.723173 188.391755 
L 185.881399 188.391755 
L 185.94978 188.010014 
L 186.004306 188.010014 
L 186.072242 187.628273 
L 186.328186 187.551925 
L 186.414952 187.170184 
L 186.454863 187.170184 
L 186.554273 186.712094 
L 186.580694 186.712094 
L 186.686007 186.254005 
L 186.69913 186.254005 
L 186.69913 186.02496 
L 186.927309 185.948612 
L 186.991998 185.643219 
L 187.101462 185.643219 
L 187.203908 184.039906 
L 187.235808 184.039906 
L 187.248553 183.581816 
L 187.539328 183.505468 
L 187.60195 183.200075 
L 187.695494 183.123727 
L 187.72036 182.1312 
L 187.881197 182.054852 
L 187.979494 181.902155 
L 187.997867 181.902155 
L 188.07728 180.985976 
L 188.295457 180.909628 
L 188.349609 180.604235 
L 188.463419 180.527887 
L 188.540894 180.298842 
L 188.694894 180.298842 
L 188.75967 179.306315 
L 188.970118 179.229967 
L 189.080246 178.466485 
L 189.412493 178.390136 
L 189.474849 177.473958 
L 189.683086 177.473958 
L 189.750131 176.863172 
L 189.828049 176.786824 
L 189.933281 175.946993 
L 189.971902 175.946993 
L 189.971902 175.794296 
L 190.092771 175.717948 
L 190.185641 172.816715 
L 190.359221 172.816715 
L 190.445414 172.511322 
L 190.547257 172.434974 
L 190.627272 171.289751 
L 190.680428 171.289751 
L 190.786289 170.526268 
L 190.80739 170.44992 
L 190.875805 170.068179 
L 191.04316 169.991831 
L 191.084767 169.228348 
L 191.229671 169.228348 
L 191.281153 168.846607 
L 191.444955 168.770259 
L 191.541542 168.388518 
L 191.592179 168.388518 
L 191.682983 167.930428 
L 191.768342 167.930428 
L 191.813376 167.090598 
L 192.091188 167.090598 
L 192.179621 166.098071 
L 192.277394 166.021722 
L 192.360104 165.563633 
L 192.54368 165.563633 
L 192.591693 164.571106 
L 192.687353 164.494758 
L 192.72072 164.113016 
L 192.88667 164.113016 
L 192.88667 163.96032 
L 193.009007 163.96032 
L 193.05117 162.738748 
L 193.167795 162.6624 
L 193.255949 161.669873 
L 193.343691 161.669873 
L 193.42644 160.142908 
L 193.49055 160.142908 
L 193.49055 159.990212 
L 193.749335 159.913864 
L 193.857241 159.608471 
L 194.04016 159.532122 
L 194.137584 159.074033 
L 194.221318 158.997685 
L 194.221318 158.921336 
L 194.509322 158.844988 
L 194.522309 156.325496 
L 194.716045 156.249148 
L 194.82282 155.791059 
L 194.844102 155.791059 
L 194.912045 154.951228 
L 195.085035 154.87488 
L 195.177208 154.569487 
L 195.405683 154.493139 
L 195.496301 153.118871 
L 195.619173 153.118871 
L 195.619173 152.966174 
L 195.82623 152.889826 
L 195.82623 152.813478 
L 195.991051 152.737129 
L 196.098808 151.973647 
L 196.296743 151.897299 
L 196.379258 151.515558 
L 196.48482 151.515558 
L 196.582038 150.904772 
L 196.609169 150.904772 
L 196.609169 150.446682 
L 196.748086 150.370334 
L 196.805666 149.988593 
L 196.93934 149.912245 
L 196.97356 149.454155 
L 197.083403 149.377807 
L 197.170066 148.843369 
L 197.349653 148.767021 
L 197.349653 148.690673 
L 197.501704 148.690673 
L 197.557026 145.78944 
L 197.729325 145.713092 
L 197.732974 144.644216 
L 198.158641 144.567868 
L 198.158641 144.49152 
L 198.346741 144.415172 
L 198.382021 144.262475 
L 198.508486 144.186127 
L 198.599296 143.804386 
L 198.630628 143.804386 
L 198.648012 143.269948 
L 198.762347 143.269948 
L 198.862253 142.506466 
L 199.019645 142.430118 
L 199.114807 142.201073 
L 199.249924 142.124725 
L 199.350628 140.59776 
L 199.380735 140.521412 
L 199.454126 140.216019 
L 199.51728 140.139671 
L 199.590142 139.29984 
L 199.669307 139.223492 
L 199.669307 138.994447 
L 199.84948 138.994447 
L 199.872288 138.612706 
L 200.053762 138.536358 
L 200.15668 137.696527 
L 200.211128 137.620179 
L 200.303646 136.856696 
L 200.389377 136.780348 
L 200.389377 136.474955 
L 200.581639 136.398607 
L 200.581639 136.322259 
L 200.908048 136.245911 
L 200.997209 135.711473 
L 201.055397 135.635125 
L 201.156035 134.947991 
L 201.171236 134.947991 
L 201.231919 134.718946 
L 201.334632 134.642598 
L 201.442779 133.955464 
L 201.591959 133.879115 
L 201.633519 133.726419 
L 201.754703 133.650071 
L 201.857539 132.352151 
L 201.945238 132.275802 
L 202.032531 131.435972 
L 202.203034 131.435972 
L 202.249007 130.519793 
L 202.474366 130.443445 
L 202.474366 130.367096 
L 202.786517 130.290748 
L 202.822738 129.756311 
L 202.939287 129.756311 
L 203.016588 128.992828 
L 203.074355 128.992828 
L 203.148368 127.771256 
L 203.336199 127.771256 
L 203.446927 126.931426 
L 203.452312 126.931426 
L 203.530218 124.793675 
L 203.589104 124.793675 
L 203.602462 124.106541 
L 204.340881 124.106541 
L 204.44842 123.343059 
L 204.50705 123.266711 
L 204.593389 123.037666 
L 204.656621 122.961318 
L 204.767396 122.655925 
L 204.769906 122.655925 
L 204.867537 121.281656 
L 204.942295 121.205308 
L 205.034089 120.823567 
L 205.058822 120.823567 
L 205.135287 120.289129 
L 205.221246 120.289129 
L 205.311692 119.601995 
L 205.367697 119.525647 
L 205.418687 118.762165 
L 205.592467 118.762165 
L 205.697881 117.922334 
L 205.721756 117.845986 
L 205.807458 117.464245 
L 205.845423 117.387896 
L 205.947076 116.853459 
L 205.980054 116.853459 
L 206.043491 116.548066 
L 206.104377 116.548066 
L 206.167398 113.799529 
L 206.433478 113.723181 
L 206.543434 113.494136 
L 206.605003 113.494136 
L 206.704907 112.959699 
L 206.734323 112.883351 
L 206.835794 112.425261 
L 206.853776 112.425261 
L 206.96131 111.890824 
L 206.992558 111.890824 
L 207.085993 111.280038 
L 207.150238 111.280038 
L 207.223079 110.898296 
L 207.313186 110.821948 
L 207.420312 109.905769 
L 207.466038 109.905769 
L 207.548497 109.142287 
L 207.632752 109.142287 
L 207.727358 107.615322 
L 207.838556 107.538974 
L 207.917279 106.928188 
L 208.006242 106.85184 
L 208.058998 105.630268 
L 208.153587 105.630268 
L 208.164067 105.401224 
L 208.297705 105.324875 
L 208.40766 104.561393 
L 208.461366 104.485045 
L 208.562166 104.179652 
L 208.639968 104.103304 
L 208.731687 102.270946 
L 208.792585 102.194598 
L 208.875496 101.431115 
L 208.92386 101.354767 
L 208.92386 101.278419 
L 209.23721 101.202071 
L 209.245126 101.049374 
L 209.385077 101.049374 
L 209.490826 100.36224 
L 209.522045 100.36224 
L 209.601809 100.056847 
L 209.659959 99.980499 
L 209.752627 99.369713 
L 209.829503 99.369713 
L 209.925159 98.987972 
L 209.982319 98.987972 
L 210.065842 98.529882 
L 210.190435 98.453534 
L 210.280532 97.613704 
L 210.344091 97.537355 
L 210.347823 97.002918 
L 210.533489 97.002918 
L 210.563027 96.697525 
L 210.770324 96.697525 
L 210.770324 93.719944 
L 210.939234 93.719944 
L 211.047409 93.109158 
L 211.104848 93.032809 
L 211.147814 92.880113 
L 211.341721 92.803765 
L 211.400035 92.422024 
L 211.454651 92.422024 
L 211.565158 91.734889 
L 211.683711 91.734889 
L 211.683711 91.2768 
L 211.84465 91.2768 
L 211.946042 89.902532 
L 211.968309 89.826184 
L 212.00764 89.062701 
L 212.228416 89.062701 
L 212.336161 88.757308 
L 212.366353 88.757308 
L 212.388129 85.321638 
L 212.49663 85.321638 
L 212.568065 84.710852 
L 212.675537 84.634504 
L 212.696957 84.252762 
L 213.344412 84.176414 
L 213.344412 84.100066 
L 213.457042 84.100066 
L 213.466529 83.794673 
L 213.634919 83.718325 
L 213.713092 83.260235 
L 214.063969 83.183887 
L 214.137332 82.344056 
L 214.190647 82.344056 
L 214.272608 80.89344 
L 214.304385 80.89344 
L 214.331581 78.144904 
L 214.43997 78.144904 
L 214.47746 77.457769 
L 214.568622 77.457769 
L 214.674176 76.770635 
L 214.700842 76.694287 
L 214.702322 76.083501 
L 214.879124 76.083501 
L 214.961066 75.625412 
L 215.083314 75.549064 
L 215.083314 75.320019 
L 215.200448 75.320019 
L 215.236454 74.174795 
L 215.334042 74.174795 
L 215.41118 72.571482 
L 215.505032 72.495134 
L 215.582886 72.189741 
L 215.878607 72.113393 
L 215.972928 71.426259 
L 216.374019 71.349911 
L 216.471286 70.281035 
L 216.66699 70.204687 
L 216.756122 69.899294 
L 216.806488 69.899294 
L 216.900232 68.219633 
L 216.943645 68.219633 
L 217.044554 67.532499 
L 217.074591 67.456151 
L 217.173503 67.150758 
L 217.220175 67.150758 
L 217.322191 66.61632 
L 217.381339 66.539972 
L 217.447979 66.158231 
L 217.57166 66.081882 
L 217.669264 65.242052 
L 218.01129 65.242052 
L 218.116524 64.707614 
L 218.260421 64.631266 
L 218.335009 63.638739 
L 218.529257 63.638739 
L 218.623231 62.798908 
L 218.649651 62.798908 
L 218.682026 62.111774 
L 218.838318 62.111774 
L 218.921303 59.974024 
L 218.979176 59.974024 
L 219.018051 59.286889 
L 219.270543 59.286889 
L 219.270543 58.370711 
L 219.499055 58.370711 
L 219.588318 57.454532 
L 219.614558 57.454532 
L 219.629373 56.156612 
L 219.736154 56.156612 
L 219.788189 54.93504 
L 219.908671 54.858692 
L 219.912038 54.705995 
L 220.076283 54.705995 
L 220.134042 53.789816 
L 220.201572 53.789816 
L 220.242415 52.797289 
L 220.411465 52.720941 
L 220.488894 49.896056 
L 220.602822 49.819708 
L 220.67516 48.903529 
L 220.886257 48.903529 
L 220.975552 48.140047 
L 221.123442 48.063699 
L 221.190664 47.605609 
L 221.726077 47.529261 
L 221.726077 47.300216 
L 221.949948 47.300216 
L 222.030335 46.536734 
L 222.100393 46.460386 
L 222.141306 45.773252 
L 222.358348 45.696904 
L 222.381982 45.544207 
L 222.617673 45.467859 
L 222.662326 44.857073 
L 222.863882 44.857073 
L 222.928041 44.246287 
L 223.028151 44.169939 
L 223.119216 43.864546 
L 223.323451 43.864546 
L 223.335616 43.559153 
L 223.534751 43.482805 
L 223.619717 43.177412 
L 223.681354 43.177412 
L 223.695125 42.948367 
L 224.010024 42.872019 
L 224.010024 42.795671 
L 224.315298 42.795671 
L 224.379126 41.497751 
L 224.454201 41.497751 
L 224.557052 40.963313 
L 224.754143 40.886965 
L 224.839833 39.818089 
L 224.975787 39.818089 
L 225.085212 39.207304 
L 225.105658 39.130955 
L 225.105658 39.054607 
L 225.297113 38.978259 
L 225.297113 38.901911 
L 225.563248 38.901911 
L 225.563248 38.749214 
L 225.724601 38.672866 
L 225.743541 37.833035 
L 225.837139 37.833035 
L 225.893565 37.527642 
L 225.949009 37.527642 
L 226.033489 36.993205 
L 226.2238 36.916856 
L 226.3334 36.687812 
L 226.91538 36.611464 
L 226.97869 36.229722 
L 227.108503 36.229722 
L 227.190993 35.008151 
L 227.366225 35.008151 
L 227.474641 34.015624 
L 227.512889 34.015624 
L 227.512889 33.862927 
L 227.932225 33.786579 
L 227.932225 33.557534 
L 228.194157 33.481186 
L 228.238181 33.099445 
L 228.497339 33.023096 
L 228.497339 32.488659 
L 228.736836 32.412311 
L 228.736836 32.335962 
L 228.959452 32.259614 
L 229.057016 31.648828 
L 229.178779 31.57248 
L 229.210295 31.419784 
L 229.387442 31.343435 
L 229.486865 30.732649 
L 229.508439 30.732649 
L 229.617278 30.350908 
L 230.872084 30.27456 
L 230.872084 30.045515 
L 231.176059 29.969167 
L 231.176059 29.892819 
L 231.742155 29.816471 
L 231.812628 29.129336 
L 232.708946 29.052988 
L 232.711788 28.442202 
L 233.005002 28.365854 
L 233.005002 28.136809 
L 233.264491 28.136809 
L 233.265594 27.67872 
L 233.845878 27.602372 
L 233.856041 26.991586 
L 234.149986 26.915238 
L 234.195207 25.999059 
L 234.288461 25.922711 
L 234.359401 25.311925 
L 235.268987 25.235576 
L 235.338307 23.861308 
L 236.121449 23.78496 
L 236.227816 23.174174 
L 236.37713 23.097826 
L 236.37713 22.945129 
L 236.501123 22.945129 
L 236.524803 22.181647 
L 236.781963 22.105299 
L 236.892408 20.883727 
L 236.965074 20.807379 
L 237.001303 20.501986 
L 237.276165 20.425638 
L 237.276165 20.272941 
L 237.436876 20.272941 
L 237.436876 20.120245 
L 237.736408 20.043896 
L 237.830584 19.127718 
L 237.890662 19.051369 
L 237.942805 18.822325 
L 238.038097 18.822325 
L 238.140575 18.211539 
L 238.304232 18.211539 
L 238.391834 15.844744 
L 238.51705 15.844744 
L 238.593279 14.852216 
L 238.732028 14.775868 
L 238.829162 13.783341 
L 238.89555 13.783341 
L 238.995916 13.554296 
L 239.086032 13.554296 
L 239.130121 13.248904 
L 239.292637 13.172555 
L 239.386927 12.867162 
L 239.405649 12.867162 
L 239.481539 12.409073 
L 240.198131 12.332725 
L 240.198131 12.256376 
L 240.81284 12.256376 
L 240.81284 12.10368 
L 241.005438 12.10368 
L 241.014212 10.958456 
L 242.066145 10.958456 
L 242.066145 10.118626 
L 242.489916 10.118626 
L 242.489916 9.889581 
L 243.159463 9.889581 
L 243.159463 9.736885 
L 243.347987 9.736885 
L 243.347987 9.584188 
L 244.14202 9.50784 
L 244.14202 9.431492 
L 244.589178 9.431492 
L 244.589178 9.202447 
L 244.748391 9.126099 
L 244.748391 8.668009 
L 245.180063 8.668009 
L 245.180063 8.286268 
L 251.827445 8.20992 
L 251.827445 7.904527 
L 253.232342 7.828179 
L 253.232533 7.446438 
L 253.462875 7.370089 
L 253.463064 6.988348 
L 360.8064 6.912 
L 360.8064 6.912 
" style="fill: none; stroke: #000080; stroke-width: 1.5; stroke-linecap: square"/>
   </g>
   <g id="line2d_36">
    <defs>
     <path id="m03fb199c5c" d="M 0 6 
C 1.591219 6 3.117479 5.367802 4.242641 4.242641 
C 5.367802 3.117479 6 1.591219 6 0 
C 6 -1.591219 5.367802 -3.117479 4.242641 -4.242641 
C 3.117479 -5.367802 1.591219 -6 0 -6 
C -1.591219 -6 -3.117479 -5.367802 -4.242641 -4.242641 
C -5.367802 -3.117479 -6 -1.591219 -6 0 
C -6 1.591219 -5.367802 3.117479 -4.242641 4.242641 
C -3.117479 5.367802 -1.591219 6 0 6 
z
" style="stroke: #000080; stroke-width: 1.5"/>
    </defs>
    <g>
     <use xlink:href="#m03fb199c5c" x="159.789344" y="250.844612" style="fill-opacity: 0; stroke: #000080; stroke-width: 1.5"/>
     <use xlink:href="#m03fb199c5c" x="202.203034" y="131.435972" style="fill-opacity: 0; stroke: #000080; stroke-width: 1.5"/>
     <use xlink:href="#m03fb199c5c" x="245.180063" y="8.286268" style="fill-opacity: 0; stroke: #000080; stroke-width: 1.5"/>
     <use xlink:href="#m03fb199c5c" x="254.042601" y="6.912" style="fill-opacity: 0; stroke: #000080; stroke-width: 1.5"/>
     <use xlink:href="#m03fb199c5c" x="254.042601" y="6.912" style="fill-opacity: 0; stroke: #000080; stroke-width: 1.5"/>
     <use xlink:href="#m03fb199c5c" x="360.8064" y="6.912" style="fill-opacity: 0; stroke: #000080; stroke-width: 1.5"/>
    </g>
   </g>
   <g id="line2d_37">
    <path style="fill: none; stroke: #000080; stroke-width: 1.5; stroke-linecap: square"/>
    <g/>
   </g>
   <g id="line2d_38">
    <defs>
     <path id="mcab781189f" d="M 0 1.5 
C 0.397805 1.5 0.77937 1.341951 1.06066 1.06066 
C 1.341951 0.77937 1.5 0.397805 1.5 0 
C 1.5 -0.397805 1.341951 -0.77937 1.06066 -1.06066 
C 0.77937 -1.341951 0.397805 -1.5 0 -1.5 
C -0.397805 -1.5 -0.77937 -1.341951 -1.06066 -1.06066 
C -1.341951 -0.77937 -1.5 -0.397805 -1.5 0 
C -1.5 0.397805 -1.341951 0.77937 -1.06066 1.06066 
C -0.77937 1.341951 -0.397805 1.5 0 1.5 
z
" style="stroke: #ff00ff"/>
    </defs>
    <g>
     <use xlink:href="#mcab781189f" x="300.371259" y="6.912" style="fill: #ff00ff; stroke: #ff00ff"/>
     <use xlink:href="#mcab781189f" x="300.371259" y="6.912" style="fill: #ff00ff; stroke: #ff00ff"/>
    </g>
   </g>
   <g id="line2d_39">
    <path d="M 36.933397 298.944 
L 36.933397 292.683445 
L 49.972572 292.683445 
L 49.972572 290.622042 
L 57.6 290.622042 
L 57.6 289.629515 
L 63.011746 289.629515 
L 63.011746 288.102551 
L 67.209423 288.102551 
L 67.209423 287.033675 
L 70.639174 287.033675 
L 70.639174 286.499238 
L 73.538988 286.499238 
L 73.538988 285.430362 
L 76.050921 285.430362 
L 76.050921 284.743228 
L 80.248597 284.66688 
L 80.248597 284.437835 
L 82.04153 284.437835 
L 82.04153 284.132442 
L 85.184077 284.056094 
L 85.184077 283.827049 
L 86.578163 283.827049 
L 86.578163 283.063567 
L 87.876026 283.063567 
L 87.876026 282.529129 
L 90.230539 282.452781 
L 90.230539 282.376433 
L 91.305777 282.376433 
L 91.305777 281.994692 
L 94.205591 281.918344 
L 94.205591 281.536602 
L 95.916911 281.536602 
L 95.916911 281.002165 
L 96.717523 281.002165 
L 96.717523 280.77312 
L 97.485448 280.77312 
L 97.485448 280.620424 
L 98.223251 280.620424 
L 98.223251 280.391379 
L 98.933205 280.391379 
L 98.933205 280.238682 
L 99.617337 280.238682 
L 99.617337 279.627896 
L 100.277459 279.627896 
L 100.277459 279.4752 
L 102.708132 279.398852 
L 102.708132 279.017111 
L 103.269713 279.017111 
L 103.269713 278.864414 
L 104.344952 278.788066 
L 104.344952 278.559021 
L 105.850679 278.559021 
L 105.850679 278.406325 
L 106.326946 278.406325 
L 106.326946 278.253628 
L 106.791453 278.253628 
L 106.791453 277.948235 
L 107.244765 277.948235 
L 107.244765 276.650315 
L 108.119879 276.650315 
L 108.119879 276.039529 
L 108.956085 275.963181 
L 108.956085 275.505092 
L 110.144579 275.428744 
L 110.144579 275.352395 
L 110.524623 275.352395 
L 110.524623 275.123351 
L 111.262425 275.047002 
L 111.262425 274.512565 
L 111.620752 274.512565 
L 111.620752 274.359868 
L 111.97238 274.359868 
L 111.97238 274.207172 
L 112.317555 274.207172 
L 112.317555 273.901779 
L 112.656511 273.901779 
L 112.656511 273.749082 
L 113.638206 273.749082 
L 113.638206 273.520038 
L 113.954374 273.520038 
L 113.954374 266.648696 
L 114.265316 266.648696 
L 114.265316 266.419652 
L 114.571202 266.419652 
L 114.571202 266.266955 
L 115.168444 266.190607 
L 115.168444 265.961562 
L 116.583514 265.885214 
L 116.583514 265.732518 
L 116.854188 265.732518 
L 116.854188 265.579821 
L 117.899543 265.503473 
L 117.899543 265.274428 
L 118.401214 265.274428 
L 118.401214 265.045384 
L 119.599808 265.045384 
L 119.599808 264.739991 
L 119.830627 264.739991 
L 119.830627 264.358249 
L 120.058649 264.358249 
L 120.058649 263.671115 
L 120.28394 263.671115 
L 120.28394 263.136678 
L 120.506564 263.136678 
L 120.506564 262.449544 
L 120.944062 262.449544 
L 120.944062 258.861176 
L 121.159053 258.861176 
L 121.159053 255.883595 
L 121.581803 255.807247 
L 121.581803 255.654551 
L 121.789667 255.654551 
L 121.789667 252.447925 
L 121.99526 252.447925 
L 121.99526 252.142532 
L 122.399825 252.066184 
L 122.399825 251.760791 
L 122.795872 251.684442 
L 122.795872 251.608094 
L 122.990812 251.608094 
L 122.990812 251.379049 
L 123.183753 251.379049 
L 123.183753 251.150005 
L 123.750979 251.073656 
L 123.750979 250.691915 
L 123.936316 250.691915 
L 123.936316 250.386522 
L 124.481616 250.310174 
L 124.481616 250.233826 
L 124.659926 250.233826 
L 124.659926 250.004781 
L 125.184934 250.004781 
L 125.184934 249.546692 
L 125.526971 249.546692 
L 125.526971 249.088602 
L 126.993549 249.088602 
L 126.993549 248.859558 
L 127.149662 248.859558 
L 127.149662 240.079511 
L 127.458055 240.079511 
L 127.458055 235.880358 
L 127.610376 235.880358 
L 127.610376 232.979125 
L 127.911368 232.902776 
L 127.911368 232.597384 
L 128.643427 232.521035 
L 128.643427 232.444687 
L 129.069367 232.368339 
L 129.069367 229.238061 
L 129.485876 229.161713 
L 129.485876 229.085365 
L 129.758512 229.085365 
L 129.758512 228.779972 
L 130.553485 228.779972 
L 130.553485 228.627275 
L 130.811181 228.627275 
L 130.811181 225.649694 
L 130.938718 225.649694 
L 130.938718 225.420649 
L 131.929028 225.344301 
L 131.929028 225.191605 
L 132.04923 225.191605 
L 132.04923 224.96256 
L 132.405295 224.96256 
L 132.405295 224.504471 
L 132.522502 224.504471 
L 132.522502 221.374193 
L 132.638982 221.374193 
L 132.638982 218.931049 
L 132.869802 218.854701 
L 132.869802 218.625656 
L 133.097823 218.625656 
L 133.097823 218.47296 
L 133.210806 218.47296 
L 133.210806 218.167567 
L 133.874812 218.167567 
L 133.983236 217.633129 
L 134.41079 217.556781 
L 134.41079 217.480433 
L 135.136394 217.404085 
L 135.136394 217.327736 
L 135.538796 217.327736 
L 135.638065 213.968414 
L 136.790153 213.892066 
L 136.790153 213.739369 
L 136.97549 213.739369 
L 136.97549 213.586673 
L 137.159019 213.586673 
L 137.159019 213.433976 
L 138.137618 213.357628 
L 138.137618 213.28128 
L 138.481218 213.28128 
L 138.566146 212.899539 
L 139.394983 212.899539 
L 139.394983 212.746842 
L 140.110942 212.670494 
L 140.188837 212.441449 
L 140.343665 212.441449 
L 140.343665 212.288753 
L 140.573544 212.288753 
L 140.573544 212.136056 
L 141.320133 212.136056 
L 141.393187 211.754315 
L 141.754265 211.677967 
L 141.754265 211.601619 
L 141.96763 211.601619 
L 142.038218 211.067181 
L 142.387236 211.067181 
L 142.387236 210.914485 
L 142.525051 210.914485 
L 142.525051 210.761788 
L 143.592659 210.68544 
L 143.592659 210.532744 
L 144.293001 210.456395 
L 144.293001 210.380047 
L 145.561676 210.303699 
L 145.561676 209.921958 
L 145.79392 209.921958 
L 145.79392 209.769261 
L 146.136998 209.692913 
L 146.136998 209.616565 
L 146.306218 209.540216 
L 146.306218 209.311172 
L 146.418192 209.311172 
L 146.418192 209.082127 
L 146.859539 209.005779 
L 146.859539 208.700386 
L 147.502732 208.700386 
L 147.502732 208.547689 
L 147.868016 208.471341 
L 147.868016 208.165948 
L 148.478174 208.0896 
L 148.478174 208.013252 
L 148.726679 208.013252 
L 148.775988 207.555162 
L 149.875833 207.478814 
L 149.968501 207.097073 
L 150.152479 207.097073 
L 150.152479 206.638984 
L 150.470172 206.562635 
L 150.559965 206.409939 
L 150.693856 206.409939 
L 150.693856 206.257242 
L 151.00261 206.257242 
L 151.00261 205.951849 
L 151.647641 205.875501 
L 151.689867 205.646456 
L 152.393571 205.570108 
L 152.393571 205.49376 
L 152.515067 205.49376 
L 152.515067 205.341064 
L 152.635783 205.341064 
L 152.635783 205.035671 
L 153.266838 205.035671 
L 153.344252 204.806626 
L 153.726614 204.730278 
L 153.764426 204.424885 
L 155.18278 204.348536 
L 155.18278 204.272188 
L 155.391799 204.19584 
L 155.391799 204.119492 
L 156.205398 204.043144 
L 156.205398 203.585054 
L 156.53428 203.508706 
L 156.53428 203.432358 
L 156.664239 203.432358 
L 156.664239 203.203313 
L 156.88953 203.203313 
L 156.953406 202.516179 
L 157.269574 202.439831 
L 157.363398 202.210786 
L 157.487772 202.210786 
L 157.487772 202.058089 
L 157.856036 201.981741 
L 157.856036 201.752696 
L 158.007377 201.752696 
L 158.007377 201.523652 
L 158.659181 201.447304 
L 158.688279 201.294607 
L 158.861925 201.294607 
L 158.861925 201.141911 
L 159.204482 201.065562 
L 159.260973 200.836518 
L 159.457367 200.836518 
L 159.457367 200.531125 
L 159.844108 200.454776 
L 159.844108 200.378428 
L 160.088594 200.30208 
L 160.088594 200.225732 
L 160.699326 200.225732 
L 160.699326 199.767642 
L 161.035949 199.767642 
L 161.061595 199.385901 
L 161.290852 199.309553 
L 161.290852 199.156856 
L 161.864343 199.080508 
L 161.96232 198.927812 
L 162.349204 198.851464 
L 162.39701 198.546071 
L 162.539702 198.546071 
L 162.539702 198.240678 
L 163.007676 198.164329 
L 163.076878 197.70624 
L 163.145827 197.70624 
L 163.237368 197.171802 
L 164.172572 197.095454 
L 164.280872 196.331972 
L 164.410013 196.331972 
L 164.516958 196.026579 
L 164.813209 195.950231 
L 164.834193 195.797534 
L 165.084184 195.721186 
L 165.084184 195.644838 
L 165.330896 195.568489 
L 165.330896 195.492141 
L 165.933882 195.415793 
L 166.012839 195.1104 
L 166.071841 195.1104 
L 166.111072 194.423266 
L 166.364103 194.346918 
L 166.364103 194.270569 
L 166.632844 194.194221 
L 166.670924 193.888828 
L 166.8036 193.81248 
L 166.8036 193.736132 
L 167.121972 193.659784 
L 167.233064 193.507087 
L 167.435044 193.430739 
L 167.435044 193.354391 
L 167.850487 193.354391 
L 167.92181 192.667256 
L 168.309328 192.590908 
L 168.413644 191.598381 
L 168.6034 191.522033 
L 168.6034 191.445685 
L 168.892945 191.445685 
L 168.994082 190.529506 
L 169.719596 190.453158 
L 169.719596 190.376809 
L 170.103845 190.300461 
L 170.198694 189.842372 
L 170.230204 189.842372 
L 170.324419 189.536979 
L 170.464862 189.536979 
L 170.542436 189.155238 
L 170.925576 189.078889 
L 170.940741 188.849845 
L 171.211632 188.773496 
L 171.286192 188.315407 
L 171.463941 188.315407 
L 171.537509 187.704621 
L 171.68379 187.628273 
L 171.771015 187.32288 
L 172.215347 187.246532 
L 172.215347 187.170184 
L 172.46861 187.093835 
L 172.482581 186.635746 
L 172.828518 186.559398 
L 172.85592 186.406701 
L 173.18167 186.330353 
L 173.208563 186.101308 
L 173.369117 186.02496 
L 173.435613 185.185129 
L 173.554715 185.185129 
L 173.607409 184.72704 
L 173.712355 184.650692 
L 173.816719 184.497995 
L 173.881654 184.497995 
L 173.972187 183.887209 
L 174.023726 183.887209 
L 174.075124 183.658165 
L 174.342681 183.581816 
L 174.342681 183.505468 
L 174.468765 183.505468 
L 174.468765 183.352772 
L 174.915793 183.276424 
L 175.013706 182.971031 
L 175.244228 182.894682 
L 175.352444 182.665638 
L 175.519553 182.589289 
L 175.626202 182.207548 
L 175.802616 182.1312 
L 175.861055 181.978504 
L 175.977392 181.902155 
L 176.069946 181.596762 
L 176.36764 181.520414 
L 176.458298 181.215021 
L 176.503464 181.215021 
L 176.514738 180.604235 
L 176.716533 180.527887 
L 176.794427 179.993449 
L 176.860939 179.993449 
L 176.905149 179.306315 
L 177.026195 179.229967 
L 177.026195 179.153619 
L 177.320046 179.077271 
L 177.384728 178.848226 
L 177.683669 178.771878 
L 177.736555 178.542833 
L 177.904798 178.466485 
L 177.904798 178.390136 
L 178.123358 178.313788 
L 178.175024 177.855699 
L 178.431246 177.855699 
L 178.512506 177.244913 
L 178.553005 177.244913 
L 178.643809 176.93952 
L 178.834079 176.93952 
L 178.91362 176.710475 
L 179.071702 176.710475 
L 179.179617 176.328734 
L 179.277187 176.252386 
L 179.277187 176.176038 
L 179.518922 176.099689 
L 179.528527 175.946993 
L 179.633861 175.946993 
L 179.681545 175.412555 
L 179.889933 175.412555 
L 179.936974 174.801769 
L 180.077394 174.725421 
L 180.123969 174.572725 
L 180.355129 174.496376 
L 180.401022 173.732894 
L 180.538033 173.732894 
L 180.628823 173.198456 
L 180.665016 173.198456 
L 180.773181 172.893064 
L 180.809098 172.816715 
L 180.862845 172.434974 
L 180.943179 172.434974 
L 181.023172 171.671492 
L 181.111655 171.595144 
L 181.217289 170.908009 
L 181.243605 170.908009 
L 181.313602 170.602616 
L 181.392038 170.526268 
L 181.478807 169.991831 
L 181.50476 169.991831 
L 181.50476 169.533741 
L 181.745276 169.457393 
L 181.821936 169.075652 
L 181.889818 169.075652 
L 181.999605 168.541214 
L 182.075238 168.541214 
L 182.158919 168.235821 
L 182.233915 168.159473 
L 182.333448 167.014249 
L 182.383017 167.014249 
L 182.481765 166.479812 
L 182.547311 166.479812 
L 182.653338 165.869026 
L 182.693959 165.792678 
L 182.774938 165.25824 
L 182.839472 165.25824 
L 182.839472 165.105544 
L 182.959879 165.105544 
L 182.967879 164.723802 
L 183.127165 164.647454 
L 183.158861 164.113016 
L 183.25363 164.113016 
L 183.340084 163.883972 
L 183.426142 163.807624 
L 183.511809 163.044141 
L 183.666573 162.967793 
L 183.766492 162.127962 
L 183.781817 162.127962 
L 183.888744 161.746221 
L 183.90397 161.746221 
L 183.957164 161.517176 
L 184.040451 161.517176 
L 184.048005 160.982739 
L 184.198438 160.906391 
L 184.273206 160.371953 
L 184.340243 160.371953 
L 184.340243 160.142908 
L 184.480988 160.142908 
L 184.532577 159.455774 
L 184.635333 159.455774 
L 184.686501 158.615944 
L 184.759357 158.615944 
L 184.759357 158.463247 
L 184.947474 158.386899 
L 185.047994 158.234202 
L 185.126599 158.157854 
L 185.219074 157.623416 
L 185.325215 157.623416 
L 185.423742 157.012631 
L 185.500795 157.012631 
L 185.514771 156.630889 
L 185.723173 156.554541 
L 185.723173 156.478193 
L 185.840251 156.478193 
L 185.840251 156.325496 
L 186.03151 156.325496 
L 186.092575 155.638362 
L 186.187174 155.638362 
L 186.261169 154.87488 
L 186.321495 154.798532 
L 186.401629 154.493139 
L 186.441569 154.493139 
L 186.521195 154.035049 
L 186.567488 154.035049 
L 186.626841 153.424264 
L 186.784206 153.347915 
L 186.862397 152.660781 
L 186.979078 152.584433 
L 187.088617 151.133816 
L 187.101462 151.133816 
L 187.203908 150.293986 
L 187.261289 150.217638 
L 187.261289 150.141289 
L 187.38818 150.141289 
L 187.438698 149.835896 
L 187.501655 149.835896 
L 187.551869 149.377807 
L 187.645662 149.377807 
L 187.714147 148.767021 
L 187.813318 148.767021 
L 187.899666 148.308932 
L 187.979494 148.232584 
L 188.083374 148.003539 
L 188.119902 148.003539 
L 188.22906 147.621798 
L 188.295457 147.621798 
L 188.313525 147.316405 
L 188.409595 147.316405 
L 188.511134 146.476574 
L 188.534946 146.476574 
L 188.588413 145.78944 
L 188.777297 145.713092 
L 188.830081 145.025958 
L 188.935207 144.949609 
L 188.935207 144.796913 
L 189.057115 144.720565 
L 189.155227 143.728038 
L 189.344232 143.651689 
L 189.435192 143.346296 
L 189.457863 143.346296 
L 189.542638 142.582814 
L 189.711051 142.506466 
L 189.772426 142.201073 
L 189.982923 142.124725 
L 190.081815 141.284894 
L 190.158374 141.208546 
L 190.240057 140.750456 
L 190.299733 140.750456 
L 190.391589 139.605233 
L 190.4669 139.528885 
L 190.4669 139.452536 
L 190.627272 139.376188 
L 190.696345 138.994447 
L 190.78101 138.994447 
L 190.886309 138.078268 
L 190.923024 138.078268 
L 191.006678 137.314786 
L 191.131465 137.314786 
L 191.234825 135.864169 
L 191.301706 135.864169 
L 191.39903 134.642598 
L 191.460239 134.566249 
L 191.546612 133.650071 
L 191.607343 133.573722 
L 191.662842 133.191981 
L 191.768342 133.115633 
L 191.863287 131.894061 
L 191.923006 131.894061 
L 191.99739 131.283275 
L 192.194319 131.206927 
L 192.301759 130.825186 
L 192.340676 130.748838 
L 192.437618 129.527266 
L 192.54368 129.450918 
L 192.644367 129.145525 
L 192.711193 129.069176 
L 192.777782 128.687435 
L 192.844137 128.611087 
L 192.933817 128.305694 
L 193.009007 128.229346 
L 193.116569 127.084122 
L 193.135213 127.084122 
L 193.209603 125.557158 
L 193.297562 125.557158 
L 193.403491 124.946372 
L 193.42644 124.946372 
L 193.449362 124.259238 
L 193.563551 124.182889 
L 193.618117 123.7248 
L 193.70871 123.648452 
L 193.803365 123.190362 
L 193.830322 123.190362 
L 193.924369 122.350532 
L 193.955614 122.350532 
L 194.062346 121.663398 
L 194.09779 121.587049 
L 194.208122 121.052612 
L 194.256463 120.976264 
L 194.300303 120.594522 
L 194.370235 120.594522 
L 194.461627 119.143906 
L 194.513652 119.067558 
L 194.60866 118.304075 
L 194.647389 118.304075 
L 194.707477 118.075031 
L 194.81856 117.998682 
L 194.924757 117.464245 
L 194.950155 117.464245 
L 195.059819 116.395369 
L 195.106023 116.395369 
L 195.181387 115.555539 
L 195.289715 115.479191 
L 195.397423 114.868405 
L 195.434563 114.792056 
L 195.545546 113.646833 
L 195.582396 113.570485 
L 195.668098 112.883351 
L 195.700643 112.807002 
L 195.781763 112.119868 
L 195.862534 112.04352 
L 195.971028 110.821948 
L 195.975034 110.821948 
L 196.023043 110.134814 
L 196.086865 110.134814 
L 196.190116 108.989591 
L 196.225726 108.913242 
L 196.296743 108.226108 
L 196.347866 108.226108 
L 196.367492 107.920715 
L 196.504304 107.844367 
L 196.582038 107.157233 
L 196.620785 107.157233 
L 196.678756 106.470099 
L 196.732701 106.470099 
L 196.81333 105.782965 
L 196.866892 105.706616 
L 196.977358 105.401224 
L 197.030455 105.324875 
L 197.136202 104.485045 
L 197.15126 104.408696 
L 197.241358 103.721562 
L 197.342204 103.645214 
L 197.427686 103.187125 
L 197.615858 103.110776 
L 197.722025 102.499991 
L 197.729325 102.499991 
L 197.827596 100.820329 
L 197.928967 100.743981 
L 198.022611 100.438588 
L 198.05133 100.36224 
L 198.144369 99.675106 
L 198.194276 99.598758 
L 198.304317 98.835275 
L 198.314932 98.758927 
L 198.382021 98.071793 
L 198.462916 97.995445 
L 198.532978 97.308311 
L 198.585353 97.308311 
L 198.630628 96.697525 
L 198.700069 96.697525 
L 198.755438 96.163087 
L 198.85538 96.163087 
L 198.934269 95.704998 
L 198.971882 95.704998 
L 199.074082 95.094212 
L 199.182487 95.017864 
L 199.263382 93.948988 
L 199.323826 93.87264 
L 199.41413 93.338202 
L 199.440804 93.338202 
L 199.550434 92.269327 
L 199.609965 92.192979 
L 199.662723 91.505845 
L 199.735024 91.505845 
L 199.807049 90.971407 
L 199.865774 90.971407 
L 199.976201 90.284273 
L 200.03763 90.207925 
L 200.124579 89.062701 
L 200.290912 89.062701 
L 200.354497 88.375567 
L 200.465256 88.299219 
L 200.509377 87.764781 
L 200.587909 87.764781 
L 200.62236 87.230344 
L 200.734668 87.153995 
L 200.824653 86.695906 
L 200.877204 86.695906 
L 200.988005 86.008772 
L 200.991074 86.008772 
L 201.101209 84.7872 
L 201.116454 84.7872 
L 201.225859 84.176414 
L 201.250085 84.100066 
L 201.355709 82.878494 
L 201.484669 82.802146 
L 201.583042 81.962315 
L 201.701596 81.885967 
L 201.804722 80.817092 
L 201.819408 80.817092 
L 201.924812 79.900913 
L 202.02382 79.900913 
L 202.128088 78.2976 
L 202.159832 78.221252 
L 202.266218 76.846984 
L 202.340617 76.846984 
L 202.372006 76.236198 
L 202.497037 76.236198 
L 202.598722 75.625412 
L 202.621244 75.625412 
L 202.722261 74.938278 
L 202.822738 74.938278 
L 202.928219 73.10592 
L 203.00005 73.029572 
L 203.074355 72.495134 
L 203.241157 72.418786 
L 203.341616 71.273562 
L 203.390294 71.197214 
L 203.49802 70.433732 
L 203.519491 70.433732 
L 203.59712 69.135812 
L 203.653135 69.135812 
L 203.75937 68.066936 
L 203.791124 67.990588 
L 203.891326 67.150758 
L 203.920232 67.074409 
L 203.962199 66.158231 
L 204.131732 66.081882 
L 204.227558 65.165704 
L 204.299751 65.089355 
L 204.389605 64.402221 
L 204.600988 64.325873 
L 204.707054 63.944132 
L 204.717124 63.867784 
L 204.805011 62.493515 
L 204.894983 62.417167 
L 204.969632 62.111774 
L 205.016757 62.111774 
L 205.063765 61.653685 
L 205.231045 61.577336 
L 205.333627 61.271944 
L 205.348236 61.271944 
L 205.445341 60.355765 
L 205.471957 60.279416 
L 205.568427 59.744979 
L 205.592467 59.744979 
L 205.685932 59.057845 
L 205.755131 58.981496 
L 205.862009 57.912621 
L 205.87858 57.912621 
L 205.975346 56.691049 
L 206.125408 56.614701 
L 206.227885 55.469478 
L 206.237174 55.469478 
L 206.34828 54.705995 
L 206.380562 54.629647 
L 206.470201 54.400602 
L 206.554851 54.324254 
L 206.664101 53.102682 
L 206.700378 53.102682 
L 206.806537 52.644593 
L 206.84254 52.568245 
L 206.945666 51.881111 
L 207.088212 51.804762 
L 207.176758 51.423021 
L 207.240694 51.346673 
L 207.30222 50.354146 
L 207.352609 50.354146 
L 207.452985 49.667012 
L 207.494288 49.590664 
L 207.535501 49.132574 
L 207.667209 49.132574 
L 207.770204 48.292744 
L 207.798002 48.292744 
L 207.89816 47.681958 
L 207.963931 47.681958 
L 208.071637 46.536734 
L 208.222651 46.460386 
L 208.333044 45.391511 
L 208.355874 45.315162 
L 208.411797 45.086118 
L 208.521088 45.009769 
L 208.580622 44.475332 
L 208.7032 44.398984 
L 208.804741 43.635501 
L 208.903723 43.635501 
L 208.98414 43.25376 
L 209.038228 43.177412 
L 209.135992 42.108536 
L 209.217406 42.108536 
L 209.298469 41.268706 
L 209.35953 41.192358 
L 209.459555 40.65792 
L 209.590157 40.581572 
L 209.692831 39.283652 
L 209.839091 39.207304 
L 209.858251 38.520169 
L 210.141451 38.443821 
L 210.252423 37.527642 
L 210.329155 37.451294 
L 210.329155 37.222249 
L 210.461297 37.222249 
L 210.529794 36.76416 
L 210.746591 36.76416 
L 210.857692 36.382419 
L 210.86677 36.306071 
L 210.960919 35.847981 
L 211.027623 35.771633 
L 211.11739 35.313544 
L 211.217423 35.237195 
L 211.293875 34.626409 
L 211.440572 34.550061 
L 211.523137 34.244668 
L 211.580892 34.244668 
L 211.673281 33.710231 
L 211.702819 33.633882 
L 211.810155 32.717704 
L 211.947755 32.641355 
L 212.04007 32.335962 
L 212.148896 32.335962 
L 212.18616 32.030569 
L 212.511604 31.954221 
L 212.511604 31.877873 
L 212.634274 31.877873 
L 212.710127 31.496132 
L 212.798784 31.496132 
L 212.811883 31.267087 
L 212.940746 31.190739 
L 212.971607 31.038042 
L 213.247104 31.038042 
L 213.333271 30.579953 
L 213.45546 30.579953 
L 213.540681 29.969167 
L 213.744271 29.892819 
L 213.744271 29.740122 
L 213.866923 29.740122 
L 213.866923 29.358381 
L 214.111382 29.282033 
L 214.170862 28.823944 
L 214.24836 28.747595 
L 214.330071 28.365854 
L 214.426455 28.289506 
L 214.442972 28.060461 
L 214.607344 28.060461 
L 214.700842 27.067934 
L 214.78651 26.991586 
L 214.78651 26.838889 
L 214.994618 26.762541 
L 215.089116 25.846362 
L 215.138357 25.846362 
L 215.138357 25.693666 
L 215.301091 25.693666 
L 215.398346 25.235576 
L 215.459586 25.235576 
L 215.534796 25.006532 
L 215.63367 24.930184 
L 215.716606 24.624791 
L 215.772626 24.624791 
L 215.815927 24.243049 
L 215.986759 24.243049 
L 216.028191 23.937656 
L 216.130002 23.937656 
L 216.151943 23.632264 
L 216.533166 23.555915 
L 216.533166 23.403219 
L 216.838228 23.326871 
L 216.838228 23.250522 
L 217.113697 23.174174 
L 217.113697 23.097826 
L 217.317039 23.097826 
L 217.317039 22.945129 
L 217.699582 22.945129 
L 217.724811 22.563388 
L 218.024942 22.48704 
L 218.123931 22.334344 
L 218.222401 22.334344 
L 218.222401 22.181647 
L 223.9766 22.105299 
L 224.049693 21.723558 
L 224.269065 21.723558 
L 224.269065 21.570861 
L 224.962922 21.494513 
L 224.962922 21.418165 
L 225.349297 21.341816 
L 225.349297 21.112772 
L 225.666012 21.036424 
L 225.666012 20.960075 
L 225.879679 20.883727 
L 225.879679 20.731031 
L 226.042403 20.654682 
L 226.042403 20.349289 
L 226.583791 20.272941 
L 226.597167 20.043896 
L 226.952466 19.967548 
L 226.952466 19.738504 
L 227.075558 19.738504 
L 227.075558 19.509459 
L 227.61972 19.509459 
L 227.61972 19.280414 
L 227.748897 19.280414 
L 227.748897 19.127718 
L 240.785482 19.051369 
L 240.785482 18.440584 
L 241.157673 18.440584 
L 241.157673 18.287887 
L 241.583381 18.211539 
L 241.583381 18.058842 
L 241.729621 18.058842 
L 241.780924 17.753449 
L 242.029126 17.753449 
L 242.029126 17.524405 
L 242.256656 17.448056 
L 242.322233 17.142664 
L 242.4987 17.066315 
L 242.567816 16.684574 
L 242.820199 16.608226 
L 242.901375 16.379181 
L 243.044647 16.302833 
L 243.070878 16.150136 
L 274.388929 16.073788 
L 274.497054 15.233958 
L 274.509194 15.233958 
L 274.595488 14.165082 
L 274.639344 14.088734 
L 274.749572 12.867162 
L 274.763191 12.790814 
L 274.850448 11.569242 
L 274.887979 11.492894 
L 274.998745 10.118626 
L 275.003006 10.042278 
L 275.108325 9.584188 
L 277.175572 9.584188 
L 277.238926 9.355144 
L 277.430038 9.278795 
L 277.46587 9.049751 
L 287.366343 8.973402 
L 287.477143 8.286268 
L 287.503652 8.20992 
L 287.610701 7.751831 
L 287.640579 7.675482 
L 287.677325 7.446438 
L 288.808908 7.370089 
L 288.808908 7.293741 
L 295.044099 7.217393 
L 295.102406 6.988348 
L 360.8064 6.912 
L 360.8064 6.912 
" style="fill: none; stroke: #ff00ff; stroke-width: 1.5; stroke-linecap: square"/>
   </g>
   <g id="line2d_40">
    <defs>
     <path id="md65614bcb8" d="M 0 8.485281 
L 5.091169 0 
L 0 -8.485281 
L -5.091169 0 
z
" style="stroke: #ff00ff; stroke-width: 1.5; stroke-linejoin: miter"/>
    </defs>
    <g>
     <use xlink:href="#md65614bcb8" x="132.522502" y="224.504471" style="fill-opacity: 0; stroke: #ff00ff; stroke-width: 1.5; stroke-linejoin: miter"/>
     <use xlink:href="#md65614bcb8" x="194.647389" y="118.151379" style="fill-opacity: 0; stroke: #ff00ff; stroke-width: 1.5; stroke-linejoin: miter"/>
     <use xlink:href="#md65614bcb8" x="243.227498" y="16.150136" style="fill-opacity: 0; stroke: #ff00ff; stroke-width: 1.5; stroke-linejoin: miter"/>
     <use xlink:href="#md65614bcb8" x="300.371259" y="6.912" style="fill-opacity: 0; stroke: #ff00ff; stroke-width: 1.5; stroke-linejoin: miter"/>
     <use xlink:href="#md65614bcb8" x="300.371259" y="6.912" style="fill-opacity: 0; stroke: #ff00ff; stroke-width: 1.5; stroke-linejoin: miter"/>
     <use xlink:href="#md65614bcb8" x="360.8064" y="6.912" style="fill-opacity: 0; stroke: #ff00ff; stroke-width: 1.5; stroke-linejoin: miter"/>
    </g>
   </g>
   <g id="line2d_41">
    <path style="fill: none; stroke: #ff00ff; stroke-width: 1.5; stroke-linecap: square"/>
    <g/>
   </g>
   <g id="line2d_42">
    <path d="M 274.176 16.073788 
" clip-path="url(#pcd8a2164fd)" style="fill: none; stroke: #ff00ff; stroke-width: 1.5; stroke-linecap: square"/>
    <defs>
     <path id="m125929789c" d="M -12 12 
L 12 -12 
M -12 -12 
L 12 12 
" style="stroke: #ff00ff"/>
    </defs>
    <g clip-path="url(#pcd8a2164fd)">
     <use xlink:href="#m125929789c" x="274.176" y="16.073788" style="fill: #ff00ff; stroke: #ff00ff"/>
    </g>
   </g>
   <g id="line2d_43">
    <path d="M 360.8064 6.912 
L 380.514816 293.10336 
" style="fill: none; stroke: #ff00ff; stroke-width: 1.5; stroke-linecap: square"/>
    <g>
     <use xlink:href="#md65614bcb8" x="360.8064" y="6.912" style="fill-opacity: 0; stroke: #ff00ff; stroke-width: 1.5; stroke-linejoin: miter"/>
     <use xlink:href="#md65614bcb8" x="380.514816" y="293.10336" style="fill-opacity: 0; stroke: #ff00ff; stroke-width: 1.5; stroke-linejoin: miter"/>
    </g>
   </g>
   <g id="line2d_44">
    <path d="M 360.8064 6.912 
L 380.514816 152.928 
" style="fill: none; stroke: #000080; stroke-width: 1.5; stroke-linecap: square"/>
    <g>
     <use xlink:href="#m03fb199c5c" x="360.8064" y="6.912" style="fill-opacity: 0; stroke: #000080; stroke-width: 1.5"/>
     <use xlink:href="#m03fb199c5c" x="380.514816" y="152.928" style="fill-opacity: 0; stroke: #000080; stroke-width: 1.5"/>
    </g>
   </g>
   <g id="line2d_45">
    <path d="M 360.8064 298.944 
L 360.8064 6.912 
" style="fill: none; stroke: #000000; stroke-width: 1.5; stroke-linecap: square"/>
   </g>
   <g id="patch_3">
    <path d="M 57.6 298.944 
L 360.8064 298.944 
" style="fill: none; stroke: #000000; stroke-width: 0.8; stroke-linejoin: miter; stroke-linecap: square"/>
   </g>
   <g id="patch_4">
    <path d="M 57.6 6.912 
L 360.8064 6.912 
" style="fill: none; stroke: #000000; stroke-width: 0.8; stroke-linejoin: miter; stroke-linecap: square"/>
   </g>
   <g id="text_13">
    <!-- PSO -->
    <g transform="translate(386.578944 296.966485)scale(0.14 -0.14)">
     <defs>
      <path id="DejaVuSans-50" d="M 1259 4147 
L 1259 2394 
L 2053 2394 
Q 2494 2394 2734 2622 
Q 2975 2850 2975 3272 
Q 2975 3691 2734 3919 
Q 2494 4147 2053 4147 
L 1259 4147 
z
M 628 4666 
L 2053 4666 
Q 2838 4666 3239 4311 
Q 3641 3956 3641 3272 
Q 3641 2581 3239 2228 
Q 2838 1875 2053 1875 
L 1259 1875 
L 1259 0 
L 628 0 
L 628 4666 
z
" transform="scale(0.015625)"/>
      <path id="DejaVuSans-53" d="M 3425 4513 
L 3425 3897 
Q 3066 4069 2747 4153 
Q 2428 4238 2131 4238 
Q 1616 4238 1336 4038 
Q 1056 3838 1056 3469 
Q 1056 3159 1242 3001 
Q 1428 2844 1947 2747 
L 2328 2669 
Q 3034 2534 3370 2195 
Q 3706 1856 3706 1288 
Q 3706 609 3251 259 
Q 2797 -91 1919 -91 
Q 1588 -91 1214 -16 
Q 841 59 441 206 
L 441 856 
Q 825 641 1194 531 
Q 1563 422 1919 422 
Q 2459 422 2753 634 
Q 3047 847 3047 1241 
Q 3047 1584 2836 1778 
Q 2625 1972 2144 2069 
L 1759 2144 
Q 1053 2284 737 2584 
Q 422 2884 422 3419 
Q 422 4038 858 4394 
Q 1294 4750 2059 4750 
Q 2388 4750 2728 4690 
Q 3069 4631 3425 4513 
z
" transform="scale(0.015625)"/>
      <path id="DejaVuSans-4f" d="M 2522 4238 
Q 1834 4238 1429 3725 
Q 1025 3213 1025 2328 
Q 1025 1447 1429 934 
Q 1834 422 2522 422 
Q 3209 422 3611 934 
Q 4013 1447 4013 2328 
Q 4013 3213 3611 3725 
Q 3209 4238 2522 4238 
z
M 2522 4750 
Q 3503 4750 4090 4092 
Q 4678 3434 4678 2328 
Q 4678 1225 4090 567 
Q 3503 -91 2522 -91 
Q 1538 -91 948 565 
Q 359 1222 359 2328 
Q 359 3434 948 4092 
Q 1538 4750 2522 4750 
z
" transform="scale(0.015625)"/>
     </defs>
     <use xlink:href="#DejaVuSans-50"/>
     <use xlink:href="#DejaVuSans-53" x="60.302734"/>
     <use xlink:href="#DejaVuSans-4f" x="123.779297"/>
    </g>
   </g>
   <g id="text_14">
    <!-- LCGA -->
    <g transform="translate(386.578944 156.791125)scale(0.14 -0.14)">
     <defs>
      <path id="DejaVuSans-4c" d="M 628 4666 
L 1259 4666 
L 1259 531 
L 3531 531 
L 3531 0 
L 628 0 
L 628 4666 
z
" transform="scale(0.015625)"/>
      <path id="DejaVuSans-43" d="M 4122 4306 
L 4122 3641 
Q 3803 3938 3442 4084 
Q 3081 4231 2675 4231 
Q 1875 4231 1450 3742 
Q 1025 3253 1025 2328 
Q 1025 1406 1450 917 
Q 1875 428 2675 428 
Q 3081 428 3442 575 
Q 3803 722 4122 1019 
L 4122 359 
Q 3791 134 3420 21 
Q 3050 -91 2638 -91 
Q 1578 -91 968 557 
Q 359 1206 359 2328 
Q 359 3453 968 4101 
Q 1578 4750 2638 4750 
Q 3056 4750 3426 4639 
Q 3797 4528 4122 4306 
z
" transform="scale(0.015625)"/>
      <path id="DejaVuSans-47" d="M 3809 666 
L 3809 1919 
L 2778 1919 
L 2778 2438 
L 4434 2438 
L 4434 434 
Q 4069 175 3628 42 
Q 3188 -91 2688 -91 
Q 1594 -91 976 548 
Q 359 1188 359 2328 
Q 359 3472 976 4111 
Q 1594 4750 2688 4750 
Q 3144 4750 3555 4637 
Q 3966 4525 4313 4306 
L 4313 3634 
Q 3963 3931 3569 4081 
Q 3175 4231 2741 4231 
Q 1884 4231 1454 3753 
Q 1025 3275 1025 2328 
Q 1025 1384 1454 906 
Q 1884 428 2741 428 
Q 3075 428 3337 486 
Q 3600 544 3809 666 
z
" transform="scale(0.015625)"/>
      <path id="DejaVuSans-41" d="M 2188 4044 
L 1331 1722 
L 3047 1722 
L 2188 4044 
z
M 1831 4666 
L 2547 4666 
L 4325 0 
L 3669 0 
L 3244 1197 
L 1141 1197 
L 716 0 
L 50 0 
L 1831 4666 
z
" transform="scale(0.015625)"/>
     </defs>
     <use xlink:href="#DejaVuSans-4c"/>
     <use xlink:href="#DejaVuSans-43" x="55.712891"/>
     <use xlink:href="#DejaVuSans-47" x="125.537109"/>
     <use xlink:href="#DejaVuSans-41" x="203.027344"/>
    </g>
   </g>
   <g id="text_15">
    <!-- best 2009 -->
    <g transform="translate(386.578944 16.615765)scale(0.14 -0.14)">
     <defs>
      <path id="DejaVuSans-62" d="M 3116 1747 
Q 3116 2381 2855 2742 
Q 2594 3103 2138 3103 
Q 1681 3103 1420 2742 
Q 1159 2381 1159 1747 
Q 1159 1113 1420 752 
Q 1681 391 2138 391 
Q 2594 391 2855 752 
Q 3116 1113 3116 1747 
z
M 1159 2969 
Q 1341 3281 1617 3432 
Q 1894 3584 2278 3584 
Q 2916 3584 3314 3078 
Q 3713 2572 3713 1747 
Q 3713 922 3314 415 
Q 2916 -91 2278 -91 
Q 1894 -91 1617 61 
Q 1341 213 1159 525 
L 1159 0 
L 581 0 
L 581 4863 
L 1159 4863 
L 1159 2969 
z
" transform="scale(0.015625)"/>
      <path id="DejaVuSans-39" d="M 703 97 
L 703 672 
Q 941 559 1184 500 
Q 1428 441 1663 441 
Q 2288 441 2617 861 
Q 2947 1281 2994 2138 
Q 2813 1869 2534 1725 
Q 2256 1581 1919 1581 
Q 1219 1581 811 2004 
Q 403 2428 403 3163 
Q 403 3881 828 4315 
Q 1253 4750 1959 4750 
Q 2769 4750 3195 4129 
Q 3622 3509 3622 2328 
Q 3622 1225 3098 567 
Q 2575 -91 1691 -91 
Q 1453 -91 1209 -44 
Q 966 3 703 97 
z
M 1959 2075 
Q 2384 2075 2632 2365 
Q 2881 2656 2881 3163 
Q 2881 3666 2632 3958 
Q 2384 4250 1959 4250 
Q 1534 4250 1286 3958 
Q 1038 3666 1038 3163 
Q 1038 2656 1286 2365 
Q 1534 2075 1959 2075 
z
" transform="scale(0.015625)"/>
     </defs>
     <use xlink:href="#DejaVuSans-62"/>
     <use xlink:href="#DejaVuSans-65" x="63.476562"/>
     <use xlink:href="#DejaVuSans-73" x="125"/>
     <use xlink:href="#DejaVuSans-74" x="177.099609"/>
     <use xlink:href="#DejaVuSans-20" x="216.308594"/>
     <use xlink:href="#DejaVuSans-32" x="248.095703"/>
     <use xlink:href="#DejaVuSans-30" x="311.71875"/>
     <use xlink:href="#DejaVuSans-30" x="375.341797"/>
     <use xlink:href="#DejaVuSans-39" x="438.964844"/>
    </g>
   </g>
   <g id="text_16">
    <!-- bbob f1-f5, 3-D -->
    <g transform="translate(60.632064 17.582726)scale(0.102 -0.102)">
     <defs>
      <path id="DejaVuSans-35" d="M 691 4666 
L 3169 4666 
L 3169 4134 
L 1269 4134 
L 1269 2991 
Q 1406 3038 1543 3061 
Q 1681 3084 1819 3084 
Q 2600 3084 3056 2656 
Q 3513 2228 3513 1497 
Q 3513 744 3044 326 
Q 2575 -91 1722 -91 
Q 1428 -91 1123 -41 
Q 819 9 494 109 
L 494 744 
Q 775 591 1075 516 
Q 1375 441 1709 441 
Q 2250 441 2565 725 
Q 2881 1009 2881 1497 
Q 2881 1984 2565 2268 
Q 2250 2553 1709 2553 
Q 1456 2553 1204 2497 
Q 953 2441 691 2322 
L 691 4666 
z
" transform="scale(0.015625)"/>
      <path id="DejaVuSans-33" d="M 2597 2516 
Q 3050 2419 3304 2112 
Q 3559 1806 3559 1356 
Q 3559 666 3084 287 
Q 2609 -91 1734 -91 
Q 1441 -91 1130 -33 
Q 819 25 488 141 
L 488 750 
Q 750 597 1062 519 
Q 1375 441 1716 441 
Q 2309 441 2620 675 
Q 2931 909 2931 1356 
Q 2931 1769 2642 2001 
Q 2353 2234 1838 2234 
L 1294 2234 
L 1294 2753 
L 1863 2753 
Q 2328 2753 2575 2939 
Q 2822 3125 2822 3475 
Q 2822 3834 2567 4026 
Q 2313 4219 1838 4219 
Q 1578 4219 1281 4162 
Q 984 4106 628 3988 
L 628 4550 
Q 988 4650 1302 4700 
Q 1616 4750 1894 4750 
Q 2613 4750 3031 4423 
Q 3450 4097 3450 3541 
Q 3450 3153 3228 2886 
Q 3006 2619 2597 2516 
z
" transform="scale(0.015625)"/>
      <path id="DejaVuSans-44" d="M 1259 4147 
L 1259 519 
L 2022 519 
Q 2988 519 3436 956 
Q 3884 1394 3884 2338 
Q 3884 3275 3436 3711 
Q 2988 4147 2022 4147 
L 1259 4147 
z
M 628 4666 
L 1925 4666 
Q 3281 4666 3915 4102 
Q 4550 3538 4550 2338 
Q 4550 1131 3912 565 
Q 3275 0 1925 0 
L 628 0 
L 628 4666 
z
" transform="scale(0.015625)"/>
     </defs>
     <use xlink:href="#DejaVuSans-62"/>
     <use xlink:href="#DejaVuSans-62" x="63.476562"/>
     <use xlink:href="#DejaVuSans-6f" x="126.953125"/>
     <use xlink:href="#DejaVuSans-62" x="188.134766"/>
     <use xlink:href="#DejaVuSans-20" x="251.611328"/>
     <use xlink:href="#DejaVuSans-66" x="283.398438"/>
     <use xlink:href="#DejaVuSans-31" x="318.603516"/>
     <use xlink:href="#DejaVuSans-2d" x="382.226562"/>
     <use xlink:href="#DejaVuSans-66" x="418.310547"/>
     <use xlink:href="#DejaVuSans-35" x="453.515625"/>
     <use xlink:href="#DejaVuSans-2c" x="517.138672"/>
     <use xlink:href="#DejaVuSans-20" x="548.925781"/>
     <use xlink:href="#DejaVuSans-33" x="580.712891"/>
     <use xlink:href="#DejaVuSans-2d" x="644.335938"/>
     <use xlink:href="#DejaVuSans-44" x="680.419922"/>
    </g>
    <!-- 51 targets: 100..1e-08 -->
    <g transform="translate(60.632064 29.004495)scale(0.102 -0.102)">
     <defs>
      <path id="DejaVuSans-3a" d="M 750 794 
L 1409 794 
L 1409 0 
L 750 0 
L 750 794 
z
M 750 3309 
L 1409 3309 
L 1409 2516 
L 750 2516 
L 750 3309 
z
" transform="scale(0.015625)"/>
     </defs>
     <use xlink:href="#DejaVuSans-35"/>
     <use xlink:href="#DejaVuSans-31" x="63.623047"/>
     <use xlink:href="#DejaVuSans-20" x="127.246094"/>
     <use xlink:href="#DejaVuSans-74" x="159.033203"/>
     <use xlink:href="#DejaVuSans-61" x="198.242188"/>
     <use xlink:href="#DejaVuSans-72" x="259.521484"/>
     <use xlink:href="#DejaVuSans-67" x="298.884766"/>
     <use xlink:href="#DejaVuSans-65" x="362.361328"/>
     <use xlink:href="#DejaVuSans-74" x="423.884766"/>
     <use xlink:href="#DejaVuSans-73" x="463.09375"/>
     <use xlink:href="#DejaVuSans-3a" x="515.193359"/>
     <use xlink:href="#DejaVuSans-20" x="548.884766"/>
     <use xlink:href="#DejaVuSans-31" x="580.671875"/>
     <use xlink:href="#DejaVuSans-30" x="644.294922"/>
     <use xlink:href="#DejaVuSans-30" x="707.917969"/>
     <use xlink:href="#DejaVuSans-2e" x="771.541016"/>
     <use xlink:href="#DejaVuSans-2e" x="803.328125"/>
     <use xlink:href="#DejaVuSans-31" x="835.115234"/>
     <use xlink:href="#DejaVuSans-65" x="898.738281"/>
     <use xlink:href="#DejaVuSans-2d" x="960.261719"/>
     <use xlink:href="#DejaVuSans-30" x="996.345703"/>
     <use xlink:href="#DejaVuSans-38" x="1059.96875"/>
    </g>
    <!-- 15 instances -->
    <g transform="translate(60.632064 40.426264)scale(0.102 -0.102)">
     <use xlink:href="#DejaVuSans-31"/>
     <use xlink:href="#DejaVuSans-35" x="63.623047"/>
     <use xlink:href="#DejaVuSans-20" x="127.246094"/>
     <use xlink:href="#DejaVuSans-69" x="159.033203"/>
     <use xlink:href="#DejaVuSans-6e" x="186.816406"/>
     <use xlink:href="#DejaVuSans-73" x="250.195312"/>
     <use xlink:href="#DejaVuSans-74" x="302.294922"/>
     <use xlink:href="#DejaVuSans-61" x="341.503906"/>
     <use xlink:href="#DejaVuSans-6e" x="402.783203"/>
     <use xlink:href="#DejaVuSans-63" x="466.162109"/>
     <use xlink:href="#DejaVuSans-65" x="521.142578"/>
     <use xlink:href="#DejaVuSans-73" x="582.666016"/>
    </g>
   </g>
   <g id="text_17">
    <!-- v2.6 -->
    <g style="fill: #808080" transform="translate(198.292262 293.943992)scale(0.1 -0.1)">
     <use xlink:href="#DejaVuSans-76"/>
     <use xlink:href="#DejaVuSans-32" x="59.179688"/>
     <use xlink:href="#DejaVuSans-2e" x="122.802734"/>
     <use xlink:href="#DejaVuSans-36" x="154.589844"/>
    </g>
   </g>
  </g>
 </g>
 <defs>
  <clipPath id="pcd8a2164fd">
   <rect x="57.6" y="6.912" width="303.2064" height="292.032"/>
  </clipPath>
 </defs>
</svg>
