<?xml version="1.0" encoding="utf-8" standalone="no"?>
<!DOCTYPE svg PUBLIC "-//W3C//DTD SVG 1.1//EN"
  "http://www.w3.org/Graphics/SVG/1.1/DTD/svg11.dtd">
<svg xmlns:xlink="http://www.w3.org/1999/xlink" width="460.8pt" height="345.6pt" viewBox="0 0 460.8 345.6" xmlns="http://www.w3.org/2000/svg" version="1.1">
 <metadata>
  <rdf:RDF xmlns:dc="http://purl.org/dc/elements/1.1/" xmlns:cc="http://creativecommons.org/ns#" xmlns:rdf="http://www.w3.org/1999/02/22-rdf-syntax-ns#">
   <cc:Work>
    <dc:type rdf:resource="http://purl.org/dc/dcmitype/StillImage"/>
    <dc:date>2024-05-29T08:12:11.469747</dc:date>
    <dc:format>image/svg+xml</dc:format>
    <dc:creator>
     <cc:Agent>
      <dc:title>Matplotlib v3.5.1, https://matplotlib.org/</dc:title>
     </cc:Agent>
    </dc:creator>
   </cc:Work>
  </rdf:RDF>
 </metadata>
 <defs>
  <style type="text/css">*{stroke-linejoin: round; stroke-linecap: butt}</style>
 </defs>
 <g id="figure_1">
  <g id="patch_1">
   <path d="M 0 345.6 
L 460.8 345.6 
L 460.8 0 
L 0 0 
z
" style="fill: #ffffff"/>
  </g>
  <g id="axes_1">
   <g id="patch_2">
    <path d="M 57.6 298.944 
L 360.8064 298.944 
L 360.8064 27.648 
L 57.6 27.648 
z
" style="fill: #ffffff"/>
   </g>
   <g id="line2d_1">
    <path d="M 1.245626 298.944 
L 1.245626 293.624471 
L 21.912228 293.624471 
L 21.912228 288.304941 
L 62.535479 288.304941 
L 62.535479 282.985412 
L 92.372304 282.985412 
L 92.372304 277.665882 
L 119.599808 277.665882 
L 119.599808 272.346353 
L 137.304564 272.346353 
L 137.304564 267.026824 
L 162.309673 267.026824 
L 162.309673 261.707294 
L 166.055142 261.707294 
L 166.055142 256.387765 
L 175.978552 256.387765 
L 175.978552 251.068235 
L 188.0312 251.068235 
L 188.0312 245.748706 
L 193.374765 245.748706 
L 193.374765 240.429176 
L 198.838531 240.429176 
L 198.838531 235.109647 
L 203.319534 235.109647 
L 203.319534 229.790118 
L 206.509599 229.790118 
L 206.509599 224.470588 
L 210.00257 224.470588 
L 210.00257 219.151059 
L 212.908613 219.151059 
L 212.908613 213.831529 
L 215.494107 213.831529 
L 215.494107 208.512 
L 217.92256 208.512 
L 217.92256 203.192471 
L 219.742044 203.192471 
L 219.742044 197.872941 
L 222.168151 197.872941 
L 222.168151 192.553412 
L 224.05244 192.553412 
L 224.05244 187.233882 
L 224.315742 187.233882 
L 224.315742 181.914353 
L 225.216872 181.914353 
L 225.216872 176.594824 
L 228.380873 176.594824 
L 228.380873 171.275294 
L 229.199921 171.275294 
L 229.199921 165.955765 
L 229.690823 165.955765 
L 229.690823 160.636235 
L 229.73651 160.636235 
L 229.73651 155.316706 
L 229.798117 155.316706 
L 229.798117 149.997176 
L 229.843644 149.997176 
L 229.843644 144.677647 
L 229.917663 144.677647 
L 229.917663 139.358118 
L 230.407382 139.358118 
L 230.407382 134.038588 
L 230.442903 134.038588 
L 230.442903 128.719059 
L 230.49975 128.719059 
L 230.49975 123.399529 
L 230.560727 123.399529 
L 230.560727 118.08 
L 230.610548 118.08 
L 230.610548 112.760471 
L 230.649968 112.760471 
L 230.649968 107.440941 
L 230.694526 107.440941 
L 230.694526 102.121412 
L 230.750808 102.121412 
L 230.750808 96.801882 
L 232.384954 96.801882 
L 232.384954 91.482353 
L 232.42758 91.482353 
L 232.42758 86.162824 
L 232.462597 86.162824 
L 232.462597 80.843294 
L 232.499963 80.843294 
L 232.499963 75.523765 
L 232.543706 75.523765 
L 232.543706 70.204235 
L 232.573956 70.204235 
L 232.573956 64.884706 
L 232.619327 64.884706 
L 232.619327 59.565176 
L 232.662196 59.565176 
L 232.662196 54.245647 
L 232.694987 54.245647 
L 232.694987 48.926118 
L 232.72031 48.926118 
L 232.72031 43.606588 
L 232.759293 43.606588 
L 232.759293 38.287059 
L 232.812107 38.287059 
L 232.812107 32.967529 
L 232.840406 32.967529 
L 232.840406 27.648 
L 360.8064 27.648 
" style="fill: none; stroke: #f5deb3; stroke-width: 4; stroke-linecap: square"/>
   </g>
   <g id="line2d_2">
    <defs>
     <path id="mc88d9f6126" d="M 0 7.778175 
L 7.778175 0 
L 0 -7.778175 
L -7.778175 0 
z
" style="stroke: #f5deb3; stroke-width: 1.5; stroke-linejoin: miter"/>
    </defs>
    <g>
     <use xlink:href="#mc88d9f6126" x="119.599808" y="272.346353" style="fill: #f5deb3; stroke: #f5deb3; stroke-width: 1.5; stroke-linejoin: miter"/>
     <use xlink:href="#mc88d9f6126" x="215.494107" y="213.831529" style="fill: #f5deb3; stroke: #f5deb3; stroke-width: 1.5; stroke-linejoin: miter"/>
     <use xlink:href="#mc88d9f6126" x="232.573956" y="70.204235" style="fill: #f5deb3; stroke: #f5deb3; stroke-width: 1.5; stroke-linejoin: miter"/>
     <use xlink:href="#mc88d9f6126" x="232.840406" y="27.648" style="fill: #f5deb3; stroke: #f5deb3; stroke-width: 1.5; stroke-linejoin: miter"/>
     <use xlink:href="#mc88d9f6126" x="232.840406" y="27.648" style="fill: #f5deb3; stroke: #f5deb3; stroke-width: 1.5; stroke-linejoin: miter"/>
     <use xlink:href="#mc88d9f6126" x="360.8064" y="27.648" style="fill: #f5deb3; stroke: #f5deb3; stroke-width: 1.5; stroke-linejoin: miter"/>
    </g>
   </g>
   <g id="line2d_3">
    <path style="fill: none; stroke: #f5deb3; stroke-width: 4; stroke-linecap: square"/>
    <g/>
   </g>
   <g id="line2d_4">
    <path d="M 360.8064 27.648 
L 380.514816 33.07392 
" style="fill: none; stroke: #f5deb3; stroke-width: 4; stroke-linecap: square"/>
    <g>
     <use xlink:href="#mc88d9f6126" x="360.8064" y="27.648" style="fill: #f5deb3; stroke: #f5deb3; stroke-width: 1.5; stroke-linejoin: miter"/>
     <use xlink:href="#mc88d9f6126" x="380.514816" y="33.07392" style="fill: #f5deb3; stroke: #f5deb3; stroke-width: 1.5; stroke-linejoin: miter"/>
    </g>
   </g>
   <g id="matplotlib.axis_1">
    <g id="xtick_1">
     <g id="line2d_5">
      <path d="M 57.6 298.944 
L 57.6 27.648 
" clip-path="url(#pb8fea2dc45)" style="fill: none; stroke: #b0b0b0; stroke-width: 0.8; stroke-linecap: square"/>
     </g>
     <g id="line2d_6">
      <defs>
       <path id="m836f237b67" d="M 0 0 
L 0 3.5 
" style="stroke: #000000; stroke-width: 0.8"/>
      </defs>
      <g>
       <use xlink:href="#m836f237b67" x="57.6" y="298.944" style="stroke: #000000; stroke-width: 0.8"/>
      </g>
     </g>
     <g id="text_1">
      <!-- 0 -->
      <g transform="translate(52.191875 318.861344)scale(0.17 -0.17)">
       <defs>
        <path id="DejaVuSans-30" d="M 2034 4250 
Q 1547 4250 1301 3770 
Q 1056 3291 1056 2328 
Q 1056 1369 1301 889 
Q 1547 409 2034 409 
Q 2525 409 2770 889 
Q 3016 1369 3016 2328 
Q 3016 3291 2770 3770 
Q 2525 4250 2034 4250 
z
M 2034 4750 
Q 2819 4750 3233 4129 
Q 3647 3509 3647 2328 
Q 3647 1150 3233 529 
Q 2819 -91 2034 -91 
Q 1250 -91 836 529 
Q 422 1150 422 2328 
Q 422 3509 836 4129 
Q 1250 4750 2034 4750 
z
" transform="scale(0.015625)"/>
       </defs>
       <use xlink:href="#DejaVuSans-30"/>
      </g>
     </g>
    </g>
    <g id="xtick_2">
     <g id="line2d_7">
      <path d="M 144.2304 298.944 
L 144.2304 27.648 
" clip-path="url(#pb8fea2dc45)" style="fill: none; stroke: #b0b0b0; stroke-width: 0.8; stroke-linecap: square"/>
     </g>
     <g id="line2d_8">
      <g>
       <use xlink:href="#m836f237b67" x="144.2304" y="298.944" style="stroke: #000000; stroke-width: 0.8"/>
      </g>
     </g>
     <g id="text_2">
      <!-- 2 -->
      <g transform="translate(138.822275 318.861344)scale(0.17 -0.17)">
       <defs>
        <path id="DejaVuSans-32" d="M 1228 531 
L 3431 531 
L 3431 0 
L 469 0 
L 469 531 
Q 828 903 1448 1529 
Q 2069 2156 2228 2338 
Q 2531 2678 2651 2914 
Q 2772 3150 2772 3378 
Q 2772 3750 2511 3984 
Q 2250 4219 1831 4219 
Q 1534 4219 1204 4116 
Q 875 4013 500 3803 
L 500 4441 
Q 881 4594 1212 4672 
Q 1544 4750 1819 4750 
Q 2544 4750 2975 4387 
Q 3406 4025 3406 3419 
Q 3406 3131 3298 2873 
Q 3191 2616 2906 2266 
Q 2828 2175 2409 1742 
Q 1991 1309 1228 531 
z
" transform="scale(0.015625)"/>
       </defs>
       <use xlink:href="#DejaVuSans-32"/>
      </g>
     </g>
    </g>
    <g id="xtick_3">
     <g id="line2d_9">
      <path d="M 230.8608 298.944 
L 230.8608 27.648 
" clip-path="url(#pb8fea2dc45)" style="fill: none; stroke: #b0b0b0; stroke-width: 0.8; stroke-linecap: square"/>
     </g>
     <g id="line2d_10">
      <g>
       <use xlink:href="#m836f237b67" x="230.8608" y="298.944" style="stroke: #000000; stroke-width: 0.8"/>
      </g>
     </g>
     <g id="text_3">
      <!-- 4 -->
      <g transform="translate(225.452675 318.861344)scale(0.17 -0.17)">
       <defs>
        <path id="DejaVuSans-34" d="M 2419 4116 
L 825 1625 
L 2419 1625 
L 2419 4116 
z
M 2253 4666 
L 3047 4666 
L 3047 1625 
L 3713 1625 
L 3713 1100 
L 3047 1100 
L 3047 0 
L 2419 0 
L 2419 1100 
L 313 1100 
L 313 1709 
L 2253 4666 
z
" transform="scale(0.015625)"/>
       </defs>
       <use xlink:href="#DejaVuSans-34"/>
      </g>
     </g>
    </g>
    <g id="xtick_4">
     <g id="line2d_11">
      <path d="M 317.4912 298.944 
L 317.4912 27.648 
" clip-path="url(#pb8fea2dc45)" style="fill: none; stroke: #b0b0b0; stroke-width: 0.8; stroke-linecap: square"/>
     </g>
     <g id="line2d_12">
      <g>
       <use xlink:href="#m836f237b67" x="317.4912" y="298.944" style="stroke: #000000; stroke-width: 0.8"/>
      </g>
     </g>
     <g id="text_4">
      <!-- 6 -->
      <g transform="translate(312.083075 318.861344)scale(0.17 -0.17)">
       <defs>
        <path id="DejaVuSans-36" d="M 2113 2584 
Q 1688 2584 1439 2293 
Q 1191 2003 1191 1497 
Q 1191 994 1439 701 
Q 1688 409 2113 409 
Q 2538 409 2786 701 
Q 3034 994 3034 1497 
Q 3034 2003 2786 2293 
Q 2538 2584 2113 2584 
z
M 3366 4563 
L 3366 3988 
Q 3128 4100 2886 4159 
Q 2644 4219 2406 4219 
Q 1781 4219 1451 3797 
Q 1122 3375 1075 2522 
Q 1259 2794 1537 2939 
Q 1816 3084 2150 3084 
Q 2853 3084 3261 2657 
Q 3669 2231 3669 1497 
Q 3669 778 3244 343 
Q 2819 -91 2113 -91 
Q 1303 -91 875 529 
Q 447 1150 447 2328 
Q 447 3434 972 4092 
Q 1497 4750 2381 4750 
Q 2619 4750 2861 4703 
Q 3103 4656 3366 4563 
z
" transform="scale(0.015625)"/>
       </defs>
       <use xlink:href="#DejaVuSans-36"/>
      </g>
     </g>
    </g>
    <g id="xtick_5">
     <g id="line2d_13">
      <path d="M 100.9152 298.944 
L 100.9152 27.648 
" clip-path="url(#pb8fea2dc45)" style="fill: none; stroke: #b0b0b0; stroke-width: 0.8; stroke-linecap: square"/>
     </g>
     <g id="line2d_14">
      <defs>
       <path id="m14d8b6c2f8" d="M 0 0 
L 0 2 
" style="stroke: #000000; stroke-width: 0.6"/>
      </defs>
      <g>
       <use xlink:href="#m14d8b6c2f8" x="100.9152" y="298.944" style="stroke: #000000; stroke-width: 0.6"/>
      </g>
     </g>
    </g>
    <g id="xtick_6">
     <g id="line2d_15">
      <path d="M 187.5456 298.944 
L 187.5456 27.648 
" clip-path="url(#pb8fea2dc45)" style="fill: none; stroke: #b0b0b0; stroke-width: 0.8; stroke-linecap: square"/>
     </g>
     <g id="line2d_16">
      <g>
       <use xlink:href="#m14d8b6c2f8" x="187.5456" y="298.944" style="stroke: #000000; stroke-width: 0.6"/>
      </g>
     </g>
    </g>
    <g id="xtick_7">
     <g id="line2d_17">
      <path d="M 274.176 298.944 
L 274.176 27.648 
" clip-path="url(#pb8fea2dc45)" style="fill: none; stroke: #b0b0b0; stroke-width: 0.8; stroke-linecap: square"/>
     </g>
     <g id="line2d_18">
      <g>
       <use xlink:href="#m14d8b6c2f8" x="274.176" y="298.944" style="stroke: #000000; stroke-width: 0.6"/>
      </g>
     </g>
    </g>
    <g id="xtick_8">
     <g id="line2d_19">
      <path d="M 360.8064 298.944 
L 360.8064 27.648 
" clip-path="url(#pb8fea2dc45)" style="fill: none; stroke: #b0b0b0; stroke-width: 0.8; stroke-linecap: square"/>
     </g>
     <g id="line2d_20">
      <g>
       <use xlink:href="#m14d8b6c2f8" x="360.8064" y="298.944" style="stroke: #000000; stroke-width: 0.6"/>
      </g>
     </g>
    </g>
    <g id="text_5">
     <!-- log10(# f-evals / dimension) -->
     <g transform="translate(88.823278 339.314156)scale(0.17 -0.17)">
      <defs>
       <path id="DejaVuSans-6c" d="M 603 4863 
L 1178 4863 
L 1178 0 
L 603 0 
L 603 4863 
z
" transform="scale(0.015625)"/>
       <path id="DejaVuSans-6f" d="M 1959 3097 
Q 1497 3097 1228 2736 
Q 959 2375 959 1747 
Q 959 1119 1226 758 
Q 1494 397 1959 397 
Q 2419 397 2687 759 
Q 2956 1122 2956 1747 
Q 2956 2369 2687 2733 
Q 2419 3097 1959 3097 
z
M 1959 3584 
Q 2709 3584 3137 3096 
Q 3566 2609 3566 1747 
Q 3566 888 3137 398 
Q 2709 -91 1959 -91 
Q 1206 -91 779 398 
Q 353 888 353 1747 
Q 353 2609 779 3096 
Q 1206 3584 1959 3584 
z
" transform="scale(0.015625)"/>
       <path id="DejaVuSans-67" d="M 2906 1791 
Q 2906 2416 2648 2759 
Q 2391 3103 1925 3103 
Q 1463 3103 1205 2759 
Q 947 2416 947 1791 
Q 947 1169 1205 825 
Q 1463 481 1925 481 
Q 2391 481 2648 825 
Q 2906 1169 2906 1791 
z
M 3481 434 
Q 3481 -459 3084 -895 
Q 2688 -1331 1869 -1331 
Q 1566 -1331 1297 -1286 
Q 1028 -1241 775 -1147 
L 775 -588 
Q 1028 -725 1275 -790 
Q 1522 -856 1778 -856 
Q 2344 -856 2625 -561 
Q 2906 -266 2906 331 
L 2906 616 
Q 2728 306 2450 153 
Q 2172 0 1784 0 
Q 1141 0 747 490 
Q 353 981 353 1791 
Q 353 2603 747 3093 
Q 1141 3584 1784 3584 
Q 2172 3584 2450 3431 
Q 2728 3278 2906 2969 
L 2906 3500 
L 3481 3500 
L 3481 434 
z
" transform="scale(0.015625)"/>
       <path id="DejaVuSans-31" d="M 794 531 
L 1825 531 
L 1825 4091 
L 703 3866 
L 703 4441 
L 1819 4666 
L 2450 4666 
L 2450 531 
L 3481 531 
L 3481 0 
L 794 0 
L 794 531 
z
" transform="scale(0.015625)"/>
       <path id="DejaVuSans-28" d="M 1984 4856 
Q 1566 4138 1362 3434 
Q 1159 2731 1159 2009 
Q 1159 1288 1364 580 
Q 1569 -128 1984 -844 
L 1484 -844 
Q 1016 -109 783 600 
Q 550 1309 550 2009 
Q 550 2706 781 3412 
Q 1013 4119 1484 4856 
L 1984 4856 
z
" transform="scale(0.015625)"/>
       <path id="DejaVuSans-23" d="M 3272 2816 
L 2363 2816 
L 2100 1772 
L 3016 1772 
L 3272 2816 
z
M 2803 4594 
L 2478 3297 
L 3391 3297 
L 3719 4594 
L 4219 4594 
L 3897 3297 
L 4872 3297 
L 4872 2816 
L 3775 2816 
L 3519 1772 
L 4513 1772 
L 4513 1294 
L 3397 1294 
L 3072 0 
L 2572 0 
L 2894 1294 
L 1978 1294 
L 1656 0 
L 1153 0 
L 1478 1294 
L 494 1294 
L 494 1772 
L 1594 1772 
L 1856 2816 
L 850 2816 
L 850 3297 
L 1978 3297 
L 2297 4594 
L 2803 4594 
z
" transform="scale(0.015625)"/>
       <path id="DejaVuSans-20" transform="scale(0.015625)"/>
       <path id="DejaVuSans-66" d="M 2375 4863 
L 2375 4384 
L 1825 4384 
Q 1516 4384 1395 4259 
Q 1275 4134 1275 3809 
L 1275 3500 
L 2222 3500 
L 2222 3053 
L 1275 3053 
L 1275 0 
L 697 0 
L 697 3053 
L 147 3053 
L 147 3500 
L 697 3500 
L 697 3744 
Q 697 4328 969 4595 
Q 1241 4863 1831 4863 
L 2375 4863 
z
" transform="scale(0.015625)"/>
       <path id="DejaVuSans-2d" d="M 313 2009 
L 1997 2009 
L 1997 1497 
L 313 1497 
L 313 2009 
z
" transform="scale(0.015625)"/>
       <path id="DejaVuSans-65" d="M 3597 1894 
L 3597 1613 
L 953 1613 
Q 991 1019 1311 708 
Q 1631 397 2203 397 
Q 2534 397 2845 478 
Q 3156 559 3463 722 
L 3463 178 
Q 3153 47 2828 -22 
Q 2503 -91 2169 -91 
Q 1331 -91 842 396 
Q 353 884 353 1716 
Q 353 2575 817 3079 
Q 1281 3584 2069 3584 
Q 2775 3584 3186 3129 
Q 3597 2675 3597 1894 
z
M 3022 2063 
Q 3016 2534 2758 2815 
Q 2500 3097 2075 3097 
Q 1594 3097 1305 2825 
Q 1016 2553 972 2059 
L 3022 2063 
z
" transform="scale(0.015625)"/>
       <path id="DejaVuSans-76" d="M 191 3500 
L 800 3500 
L 1894 563 
L 2988 3500 
L 3597 3500 
L 2284 0 
L 1503 0 
L 191 3500 
z
" transform="scale(0.015625)"/>
       <path id="DejaVuSans-61" d="M 2194 1759 
Q 1497 1759 1228 1600 
Q 959 1441 959 1056 
Q 959 750 1161 570 
Q 1363 391 1709 391 
Q 2188 391 2477 730 
Q 2766 1069 2766 1631 
L 2766 1759 
L 2194 1759 
z
M 3341 1997 
L 3341 0 
L 2766 0 
L 2766 531 
Q 2569 213 2275 61 
Q 1981 -91 1556 -91 
Q 1019 -91 701 211 
Q 384 513 384 1019 
Q 384 1609 779 1909 
Q 1175 2209 1959 2209 
L 2766 2209 
L 2766 2266 
Q 2766 2663 2505 2880 
Q 2244 3097 1772 3097 
Q 1472 3097 1187 3025 
Q 903 2953 641 2809 
L 641 3341 
Q 956 3463 1253 3523 
Q 1550 3584 1831 3584 
Q 2591 3584 2966 3190 
Q 3341 2797 3341 1997 
z
" transform="scale(0.015625)"/>
       <path id="DejaVuSans-73" d="M 2834 3397 
L 2834 2853 
Q 2591 2978 2328 3040 
Q 2066 3103 1784 3103 
Q 1356 3103 1142 2972 
Q 928 2841 928 2578 
Q 928 2378 1081 2264 
Q 1234 2150 1697 2047 
L 1894 2003 
Q 2506 1872 2764 1633 
Q 3022 1394 3022 966 
Q 3022 478 2636 193 
Q 2250 -91 1575 -91 
Q 1294 -91 989 -36 
Q 684 19 347 128 
L 347 722 
Q 666 556 975 473 
Q 1284 391 1588 391 
Q 1994 391 2212 530 
Q 2431 669 2431 922 
Q 2431 1156 2273 1281 
Q 2116 1406 1581 1522 
L 1381 1569 
Q 847 1681 609 1914 
Q 372 2147 372 2553 
Q 372 3047 722 3315 
Q 1072 3584 1716 3584 
Q 2034 3584 2315 3537 
Q 2597 3491 2834 3397 
z
" transform="scale(0.015625)"/>
       <path id="DejaVuSans-2f" d="M 1625 4666 
L 2156 4666 
L 531 -594 
L 0 -594 
L 1625 4666 
z
" transform="scale(0.015625)"/>
       <path id="DejaVuSans-64" d="M 2906 2969 
L 2906 4863 
L 3481 4863 
L 3481 0 
L 2906 0 
L 2906 525 
Q 2725 213 2448 61 
Q 2172 -91 1784 -91 
Q 1150 -91 751 415 
Q 353 922 353 1747 
Q 353 2572 751 3078 
Q 1150 3584 1784 3584 
Q 2172 3584 2448 3432 
Q 2725 3281 2906 2969 
z
M 947 1747 
Q 947 1113 1208 752 
Q 1469 391 1925 391 
Q 2381 391 2643 752 
Q 2906 1113 2906 1747 
Q 2906 2381 2643 2742 
Q 2381 3103 1925 3103 
Q 1469 3103 1208 2742 
Q 947 2381 947 1747 
z
" transform="scale(0.015625)"/>
       <path id="DejaVuSans-69" d="M 603 3500 
L 1178 3500 
L 1178 0 
L 603 0 
L 603 3500 
z
M 603 4863 
L 1178 4863 
L 1178 4134 
L 603 4134 
L 603 4863 
z
" transform="scale(0.015625)"/>
       <path id="DejaVuSans-6d" d="M 3328 2828 
Q 3544 3216 3844 3400 
Q 4144 3584 4550 3584 
Q 5097 3584 5394 3201 
Q 5691 2819 5691 2113 
L 5691 0 
L 5113 0 
L 5113 2094 
Q 5113 2597 4934 2840 
Q 4756 3084 4391 3084 
Q 3944 3084 3684 2787 
Q 3425 2491 3425 1978 
L 3425 0 
L 2847 0 
L 2847 2094 
Q 2847 2600 2669 2842 
Q 2491 3084 2119 3084 
Q 1678 3084 1418 2786 
Q 1159 2488 1159 1978 
L 1159 0 
L 581 0 
L 581 3500 
L 1159 3500 
L 1159 2956 
Q 1356 3278 1631 3431 
Q 1906 3584 2284 3584 
Q 2666 3584 2933 3390 
Q 3200 3197 3328 2828 
z
" transform="scale(0.015625)"/>
       <path id="DejaVuSans-6e" d="M 3513 2113 
L 3513 0 
L 2938 0 
L 2938 2094 
Q 2938 2591 2744 2837 
Q 2550 3084 2163 3084 
Q 1697 3084 1428 2787 
Q 1159 2491 1159 1978 
L 1159 0 
L 581 0 
L 581 3500 
L 1159 3500 
L 1159 2956 
Q 1366 3272 1645 3428 
Q 1925 3584 2291 3584 
Q 2894 3584 3203 3211 
Q 3513 2838 3513 2113 
z
" transform="scale(0.015625)"/>
       <path id="DejaVuSans-29" d="M 513 4856 
L 1013 4856 
Q 1481 4119 1714 3412 
Q 1947 2706 1947 2009 
Q 1947 1309 1714 600 
Q 1481 -109 1013 -844 
L 513 -844 
Q 928 -128 1133 580 
Q 1338 1288 1338 2009 
Q 1338 2731 1133 3434 
Q 928 4138 513 4856 
z
" transform="scale(0.015625)"/>
      </defs>
      <use xlink:href="#DejaVuSans-6c"/>
      <use xlink:href="#DejaVuSans-6f" x="27.783203"/>
      <use xlink:href="#DejaVuSans-67" x="88.964844"/>
      <use xlink:href="#DejaVuSans-31" x="152.441406"/>
      <use xlink:href="#DejaVuSans-30" x="216.064453"/>
      <use xlink:href="#DejaVuSans-28" x="279.6875"/>
      <use xlink:href="#DejaVuSans-23" x="318.701172"/>
      <use xlink:href="#DejaVuSans-20" x="402.490234"/>
      <use xlink:href="#DejaVuSans-66" x="434.277344"/>
      <use xlink:href="#DejaVuSans-2d" x="463.982422"/>
      <use xlink:href="#DejaVuSans-65" x="500.066406"/>
      <use xlink:href="#DejaVuSans-76" x="561.589844"/>
      <use xlink:href="#DejaVuSans-61" x="620.769531"/>
      <use xlink:href="#DejaVuSans-6c" x="682.048828"/>
      <use xlink:href="#DejaVuSans-73" x="709.832031"/>
      <use xlink:href="#DejaVuSans-20" x="761.931641"/>
      <use xlink:href="#DejaVuSans-2f" x="793.71875"/>
      <use xlink:href="#DejaVuSans-20" x="827.410156"/>
      <use xlink:href="#DejaVuSans-64" x="859.197266"/>
      <use xlink:href="#DejaVuSans-69" x="922.673828"/>
      <use xlink:href="#DejaVuSans-6d" x="950.457031"/>
      <use xlink:href="#DejaVuSans-65" x="1047.869141"/>
      <use xlink:href="#DejaVuSans-6e" x="1109.392578"/>
      <use xlink:href="#DejaVuSans-73" x="1172.771484"/>
      <use xlink:href="#DejaVuSans-69" x="1224.871094"/>
      <use xlink:href="#DejaVuSans-6f" x="1252.654297"/>
      <use xlink:href="#DejaVuSans-6e" x="1313.835938"/>
      <use xlink:href="#DejaVuSans-29" x="1377.214844"/>
     </g>
    </g>
   </g>
   <g id="matplotlib.axis_2">
    <g id="ytick_1">
     <g id="line2d_21">
      <path d="M 57.6 298.944 
L 360.8064 298.944 
" clip-path="url(#pb8fea2dc45)" style="fill: none; stroke: #b0b0b0; stroke-width: 0.8; stroke-linecap: square"/>
     </g>
     <g id="line2d_22">
      <defs>
       <path id="maaa599ec93" d="M 0 0 
L -3.5 0 
" style="stroke: #000000; stroke-width: 0.8"/>
      </defs>
      <g>
       <use xlink:href="#maaa599ec93" x="57.6" y="298.944" style="stroke: #000000; stroke-width: 0.8"/>
      </g>
     </g>
     <g id="text_6">
      <!-- 0.0 -->
      <g transform="translate(25.155 305.02275)scale(0.16 -0.16)">
       <defs>
        <path id="DejaVuSans-2e" d="M 684 794 
L 1344 794 
L 1344 0 
L 684 0 
L 684 794 
z
" transform="scale(0.015625)"/>
       </defs>
       <use xlink:href="#DejaVuSans-30"/>
       <use xlink:href="#DejaVuSans-2e" x="63.623047"/>
       <use xlink:href="#DejaVuSans-30" x="95.410156"/>
      </g>
     </g>
    </g>
    <g id="ytick_2">
     <g id="line2d_23">
      <path d="M 57.6 244.6848 
L 360.8064 244.6848 
" clip-path="url(#pb8fea2dc45)" style="fill: none; stroke: #b0b0b0; stroke-width: 0.8; stroke-linecap: square"/>
     </g>
     <g id="line2d_24">
      <g>
       <use xlink:href="#maaa599ec93" x="57.6" y="244.6848" style="stroke: #000000; stroke-width: 0.8"/>
      </g>
     </g>
     <g id="text_7">
      <!-- 0.2 -->
      <g transform="translate(25.155 250.76355)scale(0.16 -0.16)">
       <use xlink:href="#DejaVuSans-30"/>
       <use xlink:href="#DejaVuSans-2e" x="63.623047"/>
       <use xlink:href="#DejaVuSans-32" x="95.410156"/>
      </g>
     </g>
    </g>
    <g id="ytick_3">
     <g id="line2d_25">
      <path d="M 57.6 190.4256 
L 360.8064 190.4256 
" clip-path="url(#pb8fea2dc45)" style="fill: none; stroke: #b0b0b0; stroke-width: 0.8; stroke-linecap: square"/>
     </g>
     <g id="line2d_26">
      <g>
       <use xlink:href="#maaa599ec93" x="57.6" y="190.4256" style="stroke: #000000; stroke-width: 0.8"/>
      </g>
     </g>
     <g id="text_8">
      <!-- 0.4 -->
      <g transform="translate(25.155 196.50435)scale(0.16 -0.16)">
       <use xlink:href="#DejaVuSans-30"/>
       <use xlink:href="#DejaVuSans-2e" x="63.623047"/>
       <use xlink:href="#DejaVuSans-34" x="95.410156"/>
      </g>
     </g>
    </g>
    <g id="ytick_4">
     <g id="line2d_27">
      <path d="M 57.6 136.1664 
L 360.8064 136.1664 
" clip-path="url(#pb8fea2dc45)" style="fill: none; stroke: #b0b0b0; stroke-width: 0.8; stroke-linecap: square"/>
     </g>
     <g id="line2d_28">
      <g>
       <use xlink:href="#maaa599ec93" x="57.6" y="136.1664" style="stroke: #000000; stroke-width: 0.8"/>
      </g>
     </g>
     <g id="text_9">
      <!-- 0.6 -->
      <g transform="translate(25.155 142.24515)scale(0.16 -0.16)">
       <use xlink:href="#DejaVuSans-30"/>
       <use xlink:href="#DejaVuSans-2e" x="63.623047"/>
       <use xlink:href="#DejaVuSans-36" x="95.410156"/>
      </g>
     </g>
    </g>
    <g id="ytick_5">
     <g id="line2d_29">
      <path d="M 57.6 81.9072 
L 360.8064 81.9072 
" clip-path="url(#pb8fea2dc45)" style="fill: none; stroke: #b0b0b0; stroke-width: 0.8; stroke-linecap: square"/>
     </g>
     <g id="line2d_30">
      <g>
       <use xlink:href="#maaa599ec93" x="57.6" y="81.9072" style="stroke: #000000; stroke-width: 0.8"/>
      </g>
     </g>
     <g id="text_10">
      <!-- 0.8 -->
      <g transform="translate(25.155 87.98595)scale(0.16 -0.16)">
       <defs>
        <path id="DejaVuSans-38" d="M 2034 2216 
Q 1584 2216 1326 1975 
Q 1069 1734 1069 1313 
Q 1069 891 1326 650 
Q 1584 409 2034 409 
Q 2484 409 2743 651 
Q 3003 894 3003 1313 
Q 3003 1734 2745 1975 
Q 2488 2216 2034 2216 
z
M 1403 2484 
Q 997 2584 770 2862 
Q 544 3141 544 3541 
Q 544 4100 942 4425 
Q 1341 4750 2034 4750 
Q 2731 4750 3128 4425 
Q 3525 4100 3525 3541 
Q 3525 3141 3298 2862 
Q 3072 2584 2669 2484 
Q 3125 2378 3379 2068 
Q 3634 1759 3634 1313 
Q 3634 634 3220 271 
Q 2806 -91 2034 -91 
Q 1263 -91 848 271 
Q 434 634 434 1313 
Q 434 1759 690 2068 
Q 947 2378 1403 2484 
z
M 1172 3481 
Q 1172 3119 1398 2916 
Q 1625 2713 2034 2713 
Q 2441 2713 2670 2916 
Q 2900 3119 2900 3481 
Q 2900 3844 2670 4047 
Q 2441 4250 2034 4250 
Q 1625 4250 1398 4047 
Q 1172 3844 1172 3481 
z
" transform="scale(0.015625)"/>
       </defs>
       <use xlink:href="#DejaVuSans-30"/>
       <use xlink:href="#DejaVuSans-2e" x="63.623047"/>
       <use xlink:href="#DejaVuSans-38" x="95.410156"/>
      </g>
     </g>
    </g>
    <g id="ytick_6">
     <g id="line2d_31">
      <path d="M 57.6 27.648 
L 360.8064 27.648 
" clip-path="url(#pb8fea2dc45)" style="fill: none; stroke: #b0b0b0; stroke-width: 0.8; stroke-linecap: square"/>
     </g>
     <g id="line2d_32">
      <g>
       <use xlink:href="#maaa599ec93" x="57.6" y="27.648" style="stroke: #000000; stroke-width: 0.8"/>
      </g>
     </g>
     <g id="text_11">
      <!-- 1.0 -->
      <g transform="translate(25.155 33.72675)scale(0.16 -0.16)">
       <use xlink:href="#DejaVuSans-31"/>
       <use xlink:href="#DejaVuSans-2e" x="63.623047"/>
       <use xlink:href="#DejaVuSans-30" x="95.410156"/>
      </g>
     </g>
    </g>
    <g id="text_12">
     <!-- Fraction of function,target pairs -->
     <g transform="translate(17.619531 297.681)rotate(-90)scale(0.17 -0.17)">
      <defs>
       <path id="DejaVuSans-46" d="M 628 4666 
L 3309 4666 
L 3309 4134 
L 1259 4134 
L 1259 2759 
L 3109 2759 
L 3109 2228 
L 1259 2228 
L 1259 0 
L 628 0 
L 628 4666 
z
" transform="scale(0.015625)"/>
       <path id="DejaVuSans-72" d="M 2631 2963 
Q 2534 3019 2420 3045 
Q 2306 3072 2169 3072 
Q 1681 3072 1420 2755 
Q 1159 2438 1159 1844 
L 1159 0 
L 581 0 
L 581 3500 
L 1159 3500 
L 1159 2956 
Q 1341 3275 1631 3429 
Q 1922 3584 2338 3584 
Q 2397 3584 2469 3576 
Q 2541 3569 2628 3553 
L 2631 2963 
z
" transform="scale(0.015625)"/>
       <path id="DejaVuSans-63" d="M 3122 3366 
L 3122 2828 
Q 2878 2963 2633 3030 
Q 2388 3097 2138 3097 
Q 1578 3097 1268 2742 
Q 959 2388 959 1747 
Q 959 1106 1268 751 
Q 1578 397 2138 397 
Q 2388 397 2633 464 
Q 2878 531 3122 666 
L 3122 134 
Q 2881 22 2623 -34 
Q 2366 -91 2075 -91 
Q 1284 -91 818 406 
Q 353 903 353 1747 
Q 353 2603 823 3093 
Q 1294 3584 2113 3584 
Q 2378 3584 2631 3529 
Q 2884 3475 3122 3366 
z
" transform="scale(0.015625)"/>
       <path id="DejaVuSans-74" d="M 1172 4494 
L 1172 3500 
L 2356 3500 
L 2356 3053 
L 1172 3053 
L 1172 1153 
Q 1172 725 1289 603 
Q 1406 481 1766 481 
L 2356 481 
L 2356 0 
L 1766 0 
Q 1100 0 847 248 
Q 594 497 594 1153 
L 594 3053 
L 172 3053 
L 172 3500 
L 594 3500 
L 594 4494 
L 1172 4494 
z
" transform="scale(0.015625)"/>
       <path id="DejaVuSans-75" d="M 544 1381 
L 544 3500 
L 1119 3500 
L 1119 1403 
Q 1119 906 1312 657 
Q 1506 409 1894 409 
Q 2359 409 2629 706 
Q 2900 1003 2900 1516 
L 2900 3500 
L 3475 3500 
L 3475 0 
L 2900 0 
L 2900 538 
Q 2691 219 2414 64 
Q 2138 -91 1772 -91 
Q 1169 -91 856 284 
Q 544 659 544 1381 
z
M 1991 3584 
L 1991 3584 
z
" transform="scale(0.015625)"/>
       <path id="DejaVuSans-2c" d="M 750 794 
L 1409 794 
L 1409 256 
L 897 -744 
L 494 -744 
L 750 256 
L 750 794 
z
" transform="scale(0.015625)"/>
       <path id="DejaVuSans-70" d="M 1159 525 
L 1159 -1331 
L 581 -1331 
L 581 3500 
L 1159 3500 
L 1159 2969 
Q 1341 3281 1617 3432 
Q 1894 3584 2278 3584 
Q 2916 3584 3314 3078 
Q 3713 2572 3713 1747 
Q 3713 922 3314 415 
Q 2916 -91 2278 -91 
Q 1894 -91 1617 61 
Q 1341 213 1159 525 
z
M 3116 1747 
Q 3116 2381 2855 2742 
Q 2594 3103 2138 3103 
Q 1681 3103 1420 2742 
Q 1159 2381 1159 1747 
Q 1159 1113 1420 752 
Q 1681 391 2138 391 
Q 2594 391 2855 752 
Q 3116 1113 3116 1747 
z
" transform="scale(0.015625)"/>
      </defs>
      <use xlink:href="#DejaVuSans-46"/>
      <use xlink:href="#DejaVuSans-72" x="50.269531"/>
      <use xlink:href="#DejaVuSans-61" x="91.382812"/>
      <use xlink:href="#DejaVuSans-63" x="152.662109"/>
      <use xlink:href="#DejaVuSans-74" x="207.642578"/>
      <use xlink:href="#DejaVuSans-69" x="246.851562"/>
      <use xlink:href="#DejaVuSans-6f" x="274.634766"/>
      <use xlink:href="#DejaVuSans-6e" x="335.816406"/>
      <use xlink:href="#DejaVuSans-20" x="399.195312"/>
      <use xlink:href="#DejaVuSans-6f" x="430.982422"/>
      <use xlink:href="#DejaVuSans-66" x="492.164062"/>
      <use xlink:href="#DejaVuSans-20" x="527.369141"/>
      <use xlink:href="#DejaVuSans-66" x="559.15625"/>
      <use xlink:href="#DejaVuSans-75" x="594.361328"/>
      <use xlink:href="#DejaVuSans-6e" x="657.740234"/>
      <use xlink:href="#DejaVuSans-63" x="721.119141"/>
      <use xlink:href="#DejaVuSans-74" x="776.099609"/>
      <use xlink:href="#DejaVuSans-69" x="815.308594"/>
      <use xlink:href="#DejaVuSans-6f" x="843.091797"/>
      <use xlink:href="#DejaVuSans-6e" x="904.273438"/>
      <use xlink:href="#DejaVuSans-2c" x="967.652344"/>
      <use xlink:href="#DejaVuSans-74" x="999.439453"/>
      <use xlink:href="#DejaVuSans-61" x="1038.648438"/>
      <use xlink:href="#DejaVuSans-72" x="1099.927734"/>
      <use xlink:href="#DejaVuSans-67" x="1139.291016"/>
      <use xlink:href="#DejaVuSans-65" x="1202.767578"/>
      <use xlink:href="#DejaVuSans-74" x="1264.291016"/>
      <use xlink:href="#DejaVuSans-20" x="1303.5"/>
      <use xlink:href="#DejaVuSans-70" x="1335.287109"/>
      <use xlink:href="#DejaVuSans-61" x="1398.763672"/>
      <use xlink:href="#DejaVuSans-69" x="1460.042969"/>
      <use xlink:href="#DejaVuSans-72" x="1487.826172"/>
      <use xlink:href="#DejaVuSans-73" x="1528.939453"/>
     </g>
    </g>
   </g>
   <g id="line2d_33">
    <defs>
     <path id="mfbfa93bc41" d="M 0 1.5 
C 0.397805 1.5 0.77937 1.341951 1.06066 1.06066 
C 1.341951 0.77937 1.5 0.397805 1.5 0 
C 1.5 -0.397805 1.341951 -0.77937 1.06066 -1.06066 
C 0.77937 -1.341951 0.397805 -1.5 0 -1.5 
C -0.397805 -1.5 -0.77937 -1.341951 -1.06066 -1.06066 
C -1.341951 -0.77937 -1.5 -0.397805 -1.5 0 
C -1.5 0.397805 -1.341951 0.77937 -1.06066 1.06066 
C -0.77937 1.341951 -0.397805 1.5 0 1.5 
z
" style="stroke: #f5deb3"/>
    </defs>
    <g>
     <use xlink:href="#mfbfa93bc41" x="232.840406" y="27.648" style="fill: #f5deb3; stroke: #f5deb3"/>
     <use xlink:href="#mfbfa93bc41" x="232.840406" y="27.648" style="fill: #f5deb3; stroke: #f5deb3"/>
    </g>
   </g>
   <g id="line2d_34">
    <defs>
     <path id="mb1d40fe152" d="M 0 1.5 
C 0.397805 1.5 0.77937 1.341951 1.06066 1.06066 
C 1.341951 0.77937 1.5 0.397805 1.5 0 
C 1.5 -0.397805 1.341951 -0.77937 1.06066 -1.06066 
C 0.77937 -1.341951 0.397805 -1.5 0 -1.5 
C -0.397805 -1.5 -0.77937 -1.341951 -1.06066 -1.06066 
C -1.341951 -0.77937 -1.5 -0.397805 -1.5 0 
C -1.5 0.397805 -1.341951 0.77937 -1.06066 1.06066 
C -0.77937 1.341951 -0.397805 1.5 0 1.5 
z
" style="stroke: #000080"/>
    </defs>
    <g>
     <use xlink:href="#mb1d40fe152" x="340.514708" y="261.707294" style="fill: #000080; stroke: #000080"/>
     <use xlink:href="#mb1d40fe152" x="340.514708" y="261.707294" style="fill: #000080; stroke: #000080"/>
    </g>
   </g>
   <g id="line2d_35">
    <path d="M 1.245626 298.944 
L 1.245626 293.979106 
L 14.2848 293.979106 
L 14.2848 293.269835 
L 21.912228 293.269835 
L 21.912228 292.205929 
L 27.323974 292.205929 
L 27.323974 290.787388 
L 31.521651 290.787388 
L 31.521651 290.078118 
L 34.951403 290.078118 
L 34.951403 289.368847 
L 37.851216 289.368847 
L 37.851216 289.014212 
L 42.578831 289.014212 
L 42.578831 288.659576 
L 44.560826 288.659576 
L 44.560826 287.950306 
L 63.245433 287.950306 
L 63.245433 287.595671 
L 65.227428 287.595671 
L 65.227428 287.241035 
L 65.844256 287.241035 
L 65.844256 286.8864 
L 68.127242 286.8864 
L 68.127242 286.531765 
L 68.65718 286.531765 
L 68.65718 286.177129 
L 70.162907 286.177129 
L 70.162907 285.822494 
L 83.441723 285.822494 
L 83.441723 285.467859 
L 83.912036 285.467859 
L 83.912036 285.113224 
L 84.818792 285.113224 
L 84.818792 284.758588 
L 88.793844 284.758588 
L 88.793844 284.403953 
L 89.14879 284.403953 
L 89.14879 284.049318 
L 95.998523 284.049318 
L 95.998523 283.694682 
L 96.361458 283.694682 
L 96.361458 283.340047 
L 98.617037 283.340047 
L 98.617037 282.985412 
L 102.187964 282.985412 
L 102.187964 282.630776 
L 122.559246 282.630776 
L 122.559246 282.276141 
L 125.141738 282.276141 
L 125.141738 281.921506 
L 127.29678 281.921506 
L 127.29678 281.566871 
L 128.765092 281.566871 
L 128.765092 281.212235 
L 130.344755 281.212235 
L 130.344755 280.8576 
L 131.471303 280.8576 
L 131.471303 280.502965 
L 135.283261 280.502965 
L 135.388902 279.793694 
L 135.403945 279.793694 
L 135.403945 279.439059 
L 136.328207 279.439059 
L 136.328207 279.084424 
L 139.030652 279.084424 
L 139.030652 278.729788 
L 141.589029 278.729788 
L 141.589029 278.375153 
L 141.804267 278.375153 
L 141.804267 278.020518 
L 143.48206 278.020518 
L 143.48206 277.665882 
L 144.211579 277.665882 
L 144.211579 277.311247 
L 148.109358 277.311247 
L 148.109358 276.956612 
L 148.390416 276.956612 
L 148.390416 276.601976 
L 148.548087 276.601976 
L 148.548087 276.247341 
L 148.932916 276.247341 
L 148.932916 275.892706 
L 151.155108 275.892706 
L 151.155108 275.538071 
L 153.235783 275.538071 
L 153.235783 275.183435 
L 154.465144 275.183435 
L 154.519655 274.474165 
L 157.623641 274.474165 
L 157.623641 274.119529 
L 159.220034 274.119529 
L 159.220034 273.764894 
L 161.561074 273.764894 
L 161.561074 273.410259 
L 161.788059 273.410259 
L 161.788059 273.055624 
L 165.136882 273.055624 
L 165.136882 272.700988 
L 170.098298 272.700988 
L 170.098298 272.346353 
L 171.773916 272.346353 
L 171.773916 271.991718 
L 178.67398 271.991718 
L 178.67398 271.637082 
L 181.629267 271.637082 
L 181.629267 271.282447 
L 185.654309 271.282447 
L 185.654309 270.927812 
L 185.984218 270.927812 
L 185.984218 270.573176 
L 214.654745 270.573176 
L 214.654745 270.218541 
L 217.693649 270.218541 
L 217.693649 269.863906 
L 274.250262 269.863906 
L 274.345358 269.154635 
L 287.23603 269.154635 
L 287.300044 267.026824 
L 294.869697 267.026824 
L 294.899225 266.317553 
L 304.46037 266.317553 
L 304.46037 265.962918 
L 307.895329 265.962918 
L 307.895329 265.253647 
L 310.793207 265.253647 
L 310.793207 264.899012 
L 313.303688 264.899012 
L 313.303688 264.544376 
L 320.927729 264.544376 
L 320.927729 264.189741 
L 322.432935 264.189741 
L 322.432935 263.480471 
L 328.552898 263.480471 
L 328.552898 263.125835 
L 331.452066 263.125835 
L 331.452066 262.7712 
L 334.731304 262.7712 
L 334.731304 262.416565 
L 339.374414 262.416565 
L 339.374414 262.061929 
L 340.514708 262.061929 
L 340.514708 261.707294 
L 360.8064 261.707294 
L 360.8064 261.707294 
" style="fill: none; stroke: #000080; stroke-width: 1.5; stroke-linecap: square"/>
   </g>
   <g id="line2d_36">
    <defs>
     <path id="mfdd3720b25" d="M 0 6 
C 1.591219 6 3.117479 5.367802 4.242641 4.242641 
C 5.367802 3.117479 6 1.591219 6 0 
C 6 -1.591219 5.367802 -3.117479 4.242641 -4.242641 
C 3.117479 -5.367802 1.591219 -6 0 -6 
C -1.591219 -6 -3.117479 -5.367802 -4.242641 -4.242641 
C -5.367802 -3.117479 -6 -1.591219 -6 0 
C -6 1.591219 -5.367802 3.117479 -4.242641 4.242641 
C -3.117479 5.367802 -1.591219 6 0 6 
z
" style="stroke: #000080; stroke-width: 1.5"/>
    </defs>
    <g>
     <use xlink:href="#mfdd3720b25" x="102.187964" y="282.630776" style="fill-opacity: 0; stroke: #000080; stroke-width: 1.5"/>
     <use xlink:href="#mfdd3720b25" x="185.984218" y="270.573176" style="fill-opacity: 0; stroke: #000080; stroke-width: 1.5"/>
     <use xlink:href="#mfdd3720b25" x="294.899225" y="266.672188" style="fill-opacity: 0; stroke: #000080; stroke-width: 1.5"/>
     <use xlink:href="#mfdd3720b25" x="340.514708" y="261.707294" style="fill-opacity: 0; stroke: #000080; stroke-width: 1.5"/>
     <use xlink:href="#mfdd3720b25" x="360.8064" y="261.707294" style="fill-opacity: 0; stroke: #000080; stroke-width: 1.5"/>
    </g>
   </g>
   <g id="line2d_37">
    <path style="fill: none; stroke: #000080; stroke-width: 1.5; stroke-linecap: square"/>
    <g/>
   </g>
   <g id="line2d_38">
    <path d="M 274.176 269.863906 
" clip-path="url(#pb8fea2dc45)" style="fill: none; stroke: #000080; stroke-width: 1.5; stroke-linecap: square"/>
    <defs>
     <path id="ma899a44ca3" d="M -12 12 
L 12 -12 
M -12 -12 
L 12 12 
" style="stroke: #000080"/>
    </defs>
    <g clip-path="url(#pb8fea2dc45)">
     <use xlink:href="#ma899a44ca3" x="274.176" y="269.863906" style="fill: #000080; stroke: #000080"/>
    </g>
   </g>
   <g id="line2d_39">
    <defs>
     <path id="m59d19f7b14" d="M 0 1.5 
C 0.397805 1.5 0.77937 1.341951 1.06066 1.06066 
C 1.341951 0.77937 1.5 0.397805 1.5 0 
C 1.5 -0.397805 1.341951 -0.77937 1.06066 -1.06066 
C 0.77937 -1.341951 0.397805 -1.5 0 -1.5 
C -0.397805 -1.5 -0.77937 -1.341951 -1.06066 -1.06066 
C -1.341951 -0.77937 -1.5 -0.397805 -1.5 0 
C -1.5 0.397805 -1.341951 0.77937 -1.06066 1.06066 
C -0.77937 1.341951 -0.397805 1.5 0 1.5 
z
" style="stroke: #ff00ff"/>
    </defs>
    <g>
     <use xlink:href="#m59d19f7b14" x="353.872088" y="229.790118" style="fill: #ff00ff; stroke: #ff00ff"/>
     <use xlink:href="#m59d19f7b14" x="353.872088" y="229.790118" style="fill: #ff00ff; stroke: #ff00ff"/>
    </g>
   </g>
   <g id="line2d_40">
    <path d="M 1.245626 298.944 
L 1.245626 293.624471 
L 14.2848 293.624471 
L 14.2848 290.787388 
L 31.521651 290.787388 
L 31.521651 290.078118 
L 40.363149 290.078118 
L 40.363149 289.723482 
L 42.578831 289.723482 
L 42.578831 288.659576 
L 47.990577 288.659576 
L 47.990577 288.304941 
L 50.890391 288.304941 
L 50.890391 287.950306 
L 54.542767 287.950306 
L 54.542767 287.595671 
L 64.589687 287.595671 
L 64.589687 287.241035 
L 70.162907 287.241035 
L 70.162907 286.8864 
L 71.556993 286.8864 
L 71.556993 286.531765 
L 74.836851 286.531765 
L 74.836851 286.177129 
L 87.876026 286.177129 
L 87.876026 285.822494 
L 92.073702 285.822494 
L 92.073702 285.467859 
L 92.223596 285.467859 
L 92.223596 285.113224 
L 94.472426 285.113224 
L 94.472426 284.758588 
L 96.599582 284.758588 
L 96.599582 284.403953 
L 97.18203 284.403953 
L 97.18203 284.049318 
L 99.550033 284.049318 
L 99.550033 283.694682 
L 103.625951 283.694682 
L 103.625951 283.340047 
L 104.266406 283.340047 
L 104.266406 282.630776 
L 113.038907 282.630776 
L 113.038907 281.921506 
L 123.908631 281.921506 
L 123.908631 281.566871 
L 139.117256 281.566871 
L 139.117256 281.212235 
L 149.686771 281.212235 
L 149.686771 280.8576 
L 153.832297 280.8576 
L 153.832297 280.502965 
L 157.628256 280.502965 
L 157.628256 280.148329 
L 158.834537 280.148329 
L 158.834537 279.793694 
L 159.527013 279.793694 
L 159.527013 279.439059 
L 159.68485 279.439059 
L 159.68485 279.084424 
L 160.13442 279.084424 
L 160.13442 278.729788 
L 165.592552 278.729788 
L 165.592552 278.375153 
L 169.604401 278.375153 
L 169.604401 278.020518 
L 178.234779 278.020518 
L 178.234779 277.665882 
L 182.081107 277.665882 
L 182.081107 277.311247 
L 182.557941 277.311247 
L 182.557941 276.956612 
L 182.893349 276.956612 
L 182.893349 276.601976 
L 204.704032 276.601976 
L 204.704032 276.247341 
L 212.606743 276.247341 
L 212.606743 275.892706 
L 214.951792 275.892706 
L 214.951792 275.538071 
L 218.466043 275.538071 
L 218.466043 275.183435 
L 219.393165 275.183435 
L 219.393165 274.8288 
L 219.697999 274.8288 
L 219.697999 274.474165 
L 221.23538 274.474165 
L 221.23538 274.119529 
L 223.679884 274.119529 
L 223.679884 273.764894 
L 223.850639 273.764894 
L 223.850639 273.410259 
L 224.948718 273.410259 
L 225.034041 272.700988 
L 225.15621 272.700988 
L 225.15621 272.346353 
L 226.172742 272.346353 
L 226.172742 271.991718 
L 226.434829 271.991718 
L 226.434829 271.637082 
L 226.665945 271.637082 
L 226.726505 270.927812 
L 226.865664 270.927812 
L 226.865664 270.573176 
L 227.023073 270.573176 
L 227.023073 270.218541 
L 227.264205 270.218541 
L 227.264205 269.863906 
L 227.961582 269.863906 
L 227.986036 269.154635 
L 228.636675 269.154635 
L 228.675486 268.090729 
L 228.861449 268.090729 
L 228.861449 267.736094 
L 229.953329 267.736094 
L 230.006654 267.026824 
L 230.260451 267.026824 
L 230.260451 266.672188 
L 230.678672 266.672188 
L 230.745603 265.962918 
L 231.241616 265.962918 
L 231.241616 265.608282 
L 231.442763 265.608282 
L 231.442763 265.253647 
L 231.814595 265.253647 
L 231.814595 264.899012 
L 232.108759 264.899012 
L 232.108759 264.544376 
L 232.418838 264.544376 
L 232.418838 264.189741 
L 232.653048 264.189741 
L 232.653048 263.835106 
L 233.151245 263.835106 
L 233.249337 263.125835 
L 233.545311 263.125835 
L 233.545311 262.7712 
L 233.788058 262.7712 
L 233.788058 262.416565 
L 233.986177 262.416565 
L 233.986177 262.061929 
L 234.417726 262.061929 
L 234.501852 261.352659 
L 234.943602 261.352659 
L 234.943602 260.998024 
L 236.511528 260.998024 
L 236.528098 260.288753 
L 236.727943 260.288753 
L 236.727943 259.934118 
L 236.99146 259.934118 
L 236.99146 259.579482 
L 237.11092 259.579482 
L 237.11092 259.224847 
L 237.432543 259.224847 
L 237.432543 258.870212 
L 237.627519 258.870212 
L 237.627519 258.515576 
L 238.051215 258.515576 
L 238.051215 258.160941 
L 238.596085 258.160941 
L 238.596085 257.806306 
L 238.744259 257.806306 
L 238.744259 257.451671 
L 238.934373 257.451671 
L 238.934373 257.097035 
L 240.377253 257.097035 
L 240.48177 256.033129 
L 240.975941 256.033129 
L 240.975941 255.678494 
L 241.403353 255.678494 
L 241.403353 255.323859 
L 242.07088 255.323859 
L 242.07088 254.969224 
L 242.786565 254.969224 
L 242.786565 254.614588 
L 243.119259 254.614588 
L 243.119259 254.259953 
L 243.497266 254.259953 
L 243.497266 253.905318 
L 245.117145 253.905318 
L 245.117145 253.550682 
L 250.852553 253.550682 
L 250.852553 253.196047 
L 253.709081 253.196047 
L 253.709081 252.841412 
L 276.200694 252.841412 
L 276.200694 252.486776 
L 276.34218 252.486776 
L 276.34218 252.132141 
L 276.682086 252.132141 
L 276.682086 251.422871 
L 276.830485 251.422871 
L 276.875151 250.7136 
L 277.088553 250.7136 
L 277.159944 249.649694 
L 277.323939 249.649694 
L 277.323939 249.295059 
L 277.824825 249.295059 
L 277.824825 248.940424 
L 279.647545 248.940424 
L 279.647545 248.585788 
L 288.733733 248.585788 
L 288.772208 247.521882 
L 288.860845 247.521882 
L 288.860845 247.167247 
L 289.768953 247.167247 
L 289.768953 246.812612 
L 290.154718 246.812612 
L 290.154718 246.103341 
L 295.404207 246.103341 
L 295.404207 245.748706 
L 295.601011 245.748706 
L 295.601011 245.394071 
L 295.77789 245.394071 
L 295.794216 244.6848 
L 295.898889 244.6848 
L 295.898889 244.330165 
L 296.856294 244.330165 
L 296.856294 243.266259 
L 300.963254 243.266259 
L 301.035156 242.556988 
L 301.787445 242.556988 
L 301.787445 242.202353 
L 304.915781 242.202353 
L 304.915781 241.847718 
L 308.410095 241.847718 
L 308.454853 240.783812 
L 308.921678 240.783812 
L 308.921678 240.429176 
L 311.678171 240.429176 
L 311.678171 240.074541 
L 313.589486 240.074541 
L 313.694314 239.365271 
L 315.77393 239.365271 
L 315.77393 239.010635 
L 317.689398 239.010635 
L 317.730897 238.301365 
L 317.815057 238.301365 
L 317.815057 237.946729 
L 319.604666 237.946729 
L 319.604666 237.237459 
L 319.86417 237.237459 
L 319.86417 236.882824 
L 321.123045 236.882824 
L 321.193344 235.818918 
L 326.48768 235.818918 
L 326.48768 235.464282 
L 326.737346 235.464282 
L 326.737346 235.109647 
L 328.687632 235.109647 
L 328.687632 234.755012 
L 329.698094 234.755012 
L 329.698094 234.400376 
L 329.908807 234.400376 
L 329.908807 234.045741 
L 330.699414 234.045741 
L 330.699414 233.691106 
L 333.308266 233.691106 
L 333.308266 233.336471 
L 335.550261 233.336471 
L 335.550261 232.981835 
L 336.304501 232.981835 
L 336.304501 232.6272 
L 338.246631 232.6272 
L 338.246631 232.272565 
L 338.380667 232.272565 
L 338.380667 231.563294 
L 338.861015 231.563294 
L 338.861015 231.208659 
L 340.032677 231.208659 
L 340.032677 230.854024 
L 343.186434 230.854024 
L 343.186434 230.499388 
L 343.6607 230.499388 
L 343.6607 230.144753 
L 353.872088 230.144753 
L 353.872088 229.790118 
L 360.8064 229.790118 
L 360.8064 229.790118 
" style="fill: none; stroke: #ff00ff; stroke-width: 1.5; stroke-linecap: square"/>
   </g>
   <g id="line2d_41">
    <defs>
     <path id="m51fe1db737" d="M 0 8.485281 
L 5.091169 0 
L 0 -8.485281 
L -5.091169 0 
z
" style="stroke: #ff00ff; stroke-width: 1.5; stroke-linejoin: miter"/>
    </defs>
    <g>
     <use xlink:href="#m51fe1db737" x="113.038907" y="282.630776" style="fill-opacity: 0; stroke: #ff00ff; stroke-width: 1.5; stroke-linejoin: miter"/>
     <use xlink:href="#m51fe1db737" x="178.234779" y="277.665882" style="fill-opacity: 0; stroke: #ff00ff; stroke-width: 1.5; stroke-linejoin: miter"/>
     <use xlink:href="#m51fe1db737" x="279.647545" y="248.940424" style="fill-opacity: 0; stroke: #ff00ff; stroke-width: 1.5; stroke-linejoin: miter"/>
     <use xlink:href="#m51fe1db737" x="353.872088" y="229.790118" style="fill-opacity: 0; stroke: #ff00ff; stroke-width: 1.5; stroke-linejoin: miter"/>
     <use xlink:href="#m51fe1db737" x="353.872088" y="229.790118" style="fill-opacity: 0; stroke: #ff00ff; stroke-width: 1.5; stroke-linejoin: miter"/>
     <use xlink:href="#m51fe1db737" x="360.8064" y="229.790118" style="fill-opacity: 0; stroke: #ff00ff; stroke-width: 1.5; stroke-linejoin: miter"/>
    </g>
   </g>
   <g id="line2d_42">
    <path style="fill: none; stroke: #ff00ff; stroke-width: 1.5; stroke-linecap: square"/>
    <g/>
   </g>
   <g id="line2d_43">
    <path d="M 274.188938 252.841412 
" clip-path="url(#pb8fea2dc45)" style="fill: none; stroke: #ff00ff; stroke-width: 1.5; stroke-linecap: square"/>
    <defs>
     <path id="m7037b3b7d4" d="M -12 12 
L 12 -12 
M -12 -12 
L 12 12 
" style="stroke: #ff00ff"/>
    </defs>
    <g clip-path="url(#pb8fea2dc45)">
     <use xlink:href="#m7037b3b7d4" x="274.188938" y="252.841412" style="fill: #ff00ff; stroke: #ff00ff"/>
    </g>
   </g>
   <g id="line2d_44">
    <defs>
     <path id="m18c14523b6" d="M 0 1.5 
C 0.397805 1.5 0.77937 1.341951 1.06066 1.06066 
C 1.341951 0.77937 1.5 0.397805 1.5 0 
C 1.5 -0.397805 1.341951 -0.77937 1.06066 -1.06066 
C 0.77937 -1.341951 0.397805 -1.5 0 -1.5 
C -0.397805 -1.5 -0.77937 -1.341951 -1.06066 -1.06066 
C -1.341951 -0.77937 -1.5 -0.397805 -1.5 0 
C -1.5 0.397805 -1.341951 0.77937 -1.06066 1.06066 
C -0.77937 1.341951 -0.397805 1.5 0 1.5 
z
" style="stroke: #ff7500"/>
    </defs>
    <g>
     <use xlink:href="#m18c14523b6" x="344.302302" y="245.748706" style="fill: #ff7500; stroke: #ff7500"/>
     <use xlink:href="#m18c14523b6" x="344.302302" y="245.748706" style="fill: #ff7500; stroke: #ff7500"/>
    </g>
   </g>
   <g id="line2d_45">
    <path d="M 1.245626 298.944 
L 1.245626 292.9152 
L 14.2848 292.9152 
L 14.2848 290.432753 
L 21.912228 290.432753 
L 21.912228 290.078118 
L 27.323974 290.078118 
L 27.323974 289.368847 
L 31.521651 289.368847 
L 31.521651 289.014212 
L 34.951403 289.014212 
L 34.951403 288.304941 
L 44.560826 288.304941 
L 44.560826 287.241035 
L 52.188254 287.241035 
L 52.188254 286.531765 
L 70.162907 286.531765 
L 70.162907 286.177129 
L 73.672879 286.177129 
L 73.672879 285.822494 
L 75.574654 285.822494 
L 75.574654 285.467859 
L 85.894031 285.467859 
L 85.894031 285.113224 
L 88.248544 285.113224 
L 88.248544 284.758588 
L 89.497162 284.758588 
L 89.497162 284.403953 
L 90.505165 284.403953 
L 90.505165 284.049318 
L 90.668036 284.049318 
L 90.668036 283.340047 
L 91.305777 283.340047 
L 91.305777 282.630776 
L 101.653002 282.630776 
L 101.653002 282.276141 
L 104.809458 282.276141 
L 104.809458 281.921506 
L 112.989468 281.921506 
L 112.989468 281.566871 
L 118.634901 281.566871 
L 118.634901 281.212235 
L 121.737916 281.212235 
L 121.737916 280.502965 
L 128.023009 280.502965 
L 128.023009 280.148329 
L 134.208913 280.148329 
L 134.208913 279.793694 
L 136.527575 279.793694 
L 136.527575 279.439059 
L 139.15425 279.439059 
L 139.215746 278.729788 
L 139.784187 278.729788 
L 139.784187 278.375153 
L 144.768174 278.375153 
L 144.768174 278.020518 
L 146.471147 278.020518 
L 146.471147 277.665882 
L 147.502732 277.665882 
L 147.502732 277.311247 
L 147.699301 277.311247 
L 147.699301 276.956612 
L 148.80797 276.956612 
L 148.80797 276.601976 
L 150.049213 276.601976 
L 150.049213 276.247341 
L 152.51103 276.247341 
L 152.51103 275.892706 
L 154.195735 275.892706 
L 154.195735 275.538071 
L 155.140696 275.538071 
L 155.18278 274.8288 
L 158.511547 274.8288 
L 158.603771 274.119529 
L 159.787973 274.119529 
L 159.787973 273.764894 
L 160.82432 273.764894 
L 160.886507 273.055624 
L 160.952356 273.055624 
L 160.952356 272.700988 
L 161.262981 272.700988 
L 161.262981 272.346353 
L 164.912672 272.346353 
L 164.912672 271.991718 
L 165.667937 271.991718 
L 165.667937 271.637082 
L 166.618544 271.637082 
L 166.618544 271.282447 
L 167.245982 271.282447 
L 167.245982 270.927812 
L 167.526142 270.927812 
L 167.526142 270.573176 
L 168.867575 270.573176 
L 168.867575 270.218541 
L 169.356214 270.218541 
L 169.356214 269.863906 
L 171.739079 269.863906 
L 171.739079 269.509271 
L 172.295211 269.509271 
L 172.295211 269.154635 
L 172.63904 269.154635 
L 172.63904 268.8 
L 173.224009 268.8 
L 173.224009 268.445365 
L 174.708501 268.445365 
L 174.708501 268.090729 
L 175.722847 268.090729 
L 175.722847 267.736094 
L 177.151915 267.736094 
L 177.151915 267.381459 
L 177.356727 267.381459 
L 177.356727 267.026824 
L 178.176056 267.026824 
L 178.182246 266.317553 
L 181.028493 266.317553 
L 181.028493 265.962918 
L 182.960679 265.962918 
L 182.960679 265.608282 
L 183.623367 265.608282 
L 183.623367 265.253647 
L 185.645986 265.253647 
L 185.645986 264.899012 
L 185.764233 264.899012 
L 185.764233 264.544376 
L 186.176387 264.544376 
L 186.176387 264.189741 
L 187.645038 264.189741 
L 187.645038 263.835106 
L 189.287158 263.835106 
L 189.287158 263.480471 
L 189.447664 263.480471 
L 189.447664 263.125835 
L 192.538151 263.125835 
L 192.538151 262.7712 
L 197.439363 262.7712 
L 197.439363 262.416565 
L 200.819855 262.416565 
L 200.819855 262.061929 
L 250.249114 262.061929 
L 250.332152 261.352659 
L 250.570943 261.352659 
L 250.570943 260.998024 
L 264.213212 260.998024 
L 264.213212 260.643388 
L 266.031874 260.643388 
L 266.031874 260.288753 
L 271.010399 260.288753 
L 271.010399 259.934118 
L 274.259441 259.934118 
L 274.345283 258.515576 
L 274.419708 258.515576 
L 274.491638 257.806306 
L 278.895034 257.806306 
L 278.895034 257.097035 
L 282.885762 257.097035 
L 282.885762 256.7424 
L 287.300006 256.7424 
L 287.309494 255.323859 
L 289.692651 255.323859 
L 289.722281 254.614588 
L 292.069695 254.614588 
L 292.069695 254.259953 
L 294.891681 254.259953 
L 294.899556 253.550682 
L 296.52996 253.550682 
L 296.52996 253.196047 
L 298.524634 253.196047 
L 298.524634 252.841412 
L 300.296813 252.841412 
L 300.296813 252.486776 
L 301.549638 252.486776 
L 301.549638 252.132141 
L 311.532639 252.132141 
L 311.532639 251.777506 
L 313.314767 251.777506 
L 313.314767 251.422871 
L 313.952314 251.422871 
L 313.952314 251.068235 
L 315.52809 251.068235 
L 315.52809 250.7136 
L 316.701383 250.7136 
L 316.701383 250.358965 
L 318.567503 250.358965 
L 318.567503 250.004329 
L 319.765529 250.004329 
L 319.765529 249.649694 
L 321.822093 249.649694 
L 321.822093 249.295059 
L 324.595785 249.295059 
L 324.595785 248.940424 
L 328.113692 248.940424 
L 328.113692 248.585788 
L 329.153911 248.585788 
L 329.153911 248.231153 
L 331.968405 248.231153 
L 331.968405 247.876518 
L 332.820182 247.876518 
L 332.820182 247.167247 
L 335.887135 247.167247 
L 335.887135 246.812612 
L 342.893904 246.812612 
L 342.893904 246.457976 
L 343.5738 246.457976 
L 343.5738 246.103341 
L 344.302302 246.103341 
L 344.302302 245.748706 
L 360.8064 245.748706 
L 360.8064 245.748706 
" style="fill: none; stroke: #ff7500; stroke-width: 1.5; stroke-linecap: square"/>
   </g>
   <g id="line2d_46">
    <defs>
     <path id="m0bb1d168bc" d="M 0 -6 
L -1.347084 -1.854102 
L -5.706339 -1.854102 
L -2.179628 0.708204 
L -3.526712 4.854102 
L -0 2.291796 
L 3.526712 4.854102 
L 2.179628 0.708204 
L 5.706339 -1.854102 
L 1.347084 -1.854102 
z
" style="stroke: #ff7500; stroke-width: 1.5; stroke-linejoin: bevel"/>
    </defs>
    <g>
     <use xlink:href="#m0bb1d168bc" x="112.989468" y="281.566871" style="fill-opacity: 0; stroke: #ff7500; stroke-width: 1.5; stroke-linejoin: bevel"/>
     <use xlink:href="#m0bb1d168bc" x="187.645038" y="263.835106" style="fill-opacity: 0; stroke: #ff7500; stroke-width: 1.5; stroke-linejoin: bevel"/>
     <use xlink:href="#m0bb1d168bc" x="274.289972" y="259.224847" style="fill-opacity: 0; stroke: #ff7500; stroke-width: 1.5; stroke-linejoin: bevel"/>
     <use xlink:href="#m0bb1d168bc" x="344.302302" y="245.748706" style="fill-opacity: 0; stroke: #ff7500; stroke-width: 1.5; stroke-linejoin: bevel"/>
     <use xlink:href="#m0bb1d168bc" x="344.302302" y="245.748706" style="fill-opacity: 0; stroke: #ff7500; stroke-width: 1.5; stroke-linejoin: bevel"/>
     <use xlink:href="#m0bb1d168bc" x="360.8064" y="245.748706" style="fill-opacity: 0; stroke: #ff7500; stroke-width: 1.5; stroke-linejoin: bevel"/>
    </g>
   </g>
   <g id="line2d_47">
    <path style="fill: none; stroke: #ff7500; stroke-width: 1.5; stroke-linecap: square"/>
    <g/>
   </g>
   <g id="line2d_48">
    <path d="M 274.176 259.934118 
" clip-path="url(#pb8fea2dc45)" style="fill: none; stroke: #ff7500; stroke-width: 1.5; stroke-linecap: square"/>
    <defs>
     <path id="m5cfacb4027" d="M -12 12 
L 12 -12 
M -12 -12 
L 12 12 
" style="stroke: #ff7500"/>
    </defs>
    <g clip-path="url(#pb8fea2dc45)">
     <use xlink:href="#m5cfacb4027" x="274.176" y="259.934118" style="fill: #ff7500; stroke: #ff7500"/>
    </g>
   </g>
   <g id="line2d_49">
    <defs>
     <path id="m7a2edc19c3" d="M 0 1.5 
C 0.397805 1.5 0.77937 1.341951 1.06066 1.06066 
C 1.341951 0.77937 1.5 0.397805 1.5 0 
C 1.5 -0.397805 1.341951 -0.77937 1.06066 -1.06066 
C 0.77937 -1.341951 0.397805 -1.5 0 -1.5 
C -0.397805 -1.5 -0.77937 -1.341951 -1.06066 -1.06066 
C -1.341951 -0.77937 -1.5 -0.397805 -1.5 0 
C -1.5 0.397805 -1.341951 0.77937 -1.06066 1.06066 
C -0.77937 1.341951 -0.397805 1.5 0 1.5 
z
" style="stroke: #6495ed"/>
    </defs>
    <g>
     <use xlink:href="#m7a2edc19c3" x="335.610018" y="240.429176" style="fill: #6495ed; stroke: #6495ed"/>
     <use xlink:href="#m7a2edc19c3" x="335.610018" y="240.429176" style="fill: #6495ed; stroke: #6495ed"/>
    </g>
   </g>
   <g id="line2d_50">
    <path d="M 1.245626 298.944 
L 1.245626 293.269835 
L 98.617037 293.269835 
L 98.723018 292.205929 
L 99.851024 292.205929 
L 99.851024 291.496659 
L 100.049042 291.496659 
L 100.049042 290.787388 
L 100.342215 290.787388 
L 100.342215 289.368847 
L 112.024561 289.368847 
L 112.128493 288.304941 
L 112.690074 288.304941 
L 112.790402 285.822494 
L 112.989468 285.822494 
L 112.989468 285.113224 
L 113.332844 285.113224 
L 113.332844 284.049318 
L 113.860081 284.049318 
L 113.860081 282.985412 
L 124.427792 282.985412 
L 124.427792 282.630776 
L 125.60308 282.630776 
L 125.60308 282.276141 
L 128.657782 282.276141 
L 128.657782 281.921506 
L 129.622688 281.921506 
L 129.622688 281.566871 
L 132.251827 281.566871 
L 132.251827 281.212235 
L 132.760515 281.212235 
L 132.760515 280.8576 
L 133.999446 280.8576 
L 134.096413 279.793694 
L 135.731889 279.793694 
L 135.731889 279.439059 
L 136.428155 279.439059 
L 136.428155 279.084424 
L 137.331728 279.084424 
L 137.331728 278.729788 
L 138.680194 278.729788 
L 138.680194 278.375153 
L 139.399036 278.375153 
L 139.399036 278.020518 
L 139.532323 278.020518 
L 139.532323 277.665882 
L 140.73658 277.665882 
L 140.73658 277.311247 
L 141.415049 277.311247 
L 141.415049 276.956612 
L 141.64307 276.956612 
L 141.64307 276.601976 
L 145.076419 276.601976 
L 145.076419 276.247341 
L 146.462796 276.247341 
L 146.462796 275.892706 
L 146.981825 275.892706 
L 146.981825 275.538071 
L 147.167799 275.538071 
L 147.183884 274.8288 
L 147.667988 274.8288 
L 147.667988 274.474165 
L 148.178111 274.474165 
L 148.178111 274.119529 
L 149.230884 274.119529 
L 149.230884 273.764894 
L 150.87311 273.764894 
L 150.87311 273.410259 
L 152.279463 273.410259 
L 152.279463 273.055624 
L 155.577951 273.055624 
L 155.577951 272.700988 
L 158.227661 272.700988 
L 158.227661 272.346353 
L 160.526092 272.346353 
L 160.526092 271.991718 
L 160.781447 271.991718 
L 160.863211 271.282447 
L 163.352305 271.282447 
L 163.352305 270.927812 
L 164.001274 270.927812 
L 164.001274 270.573176 
L 167.68631 270.573176 
L 167.68631 270.218541 
L 168.404973 270.218541 
L 168.404973 269.863906 
L 176.230828 269.863906 
L 176.230828 269.509271 
L 177.168252 269.509271 
L 177.168252 269.154635 
L 178.867428 269.154635 
L 178.867428 268.8 
L 180.143496 268.8 
L 180.143496 268.445365 
L 181.025832 268.445365 
L 181.025832 268.090729 
L 182.495303 268.090729 
L 182.495303 267.736094 
L 184.389624 267.736094 
L 184.389624 267.381459 
L 186.563855 267.381459 
L 186.563855 267.026824 
L 189.983198 267.026824 
L 189.983198 266.672188 
L 193.778846 266.672188 
L 193.778846 266.317553 
L 197.515365 266.317553 
L 197.515365 265.962918 
L 201.093276 265.962918 
L 201.093276 265.608282 
L 207.365732 265.608282 
L 207.365732 265.253647 
L 216.783906 265.253647 
L 216.783906 264.899012 
L 217.496209 264.899012 
L 217.496209 264.544376 
L 219.206747 264.544376 
L 219.206747 264.189741 
L 220.897548 264.189741 
L 220.897548 263.835106 
L 223.631876 263.835106 
L 223.631876 263.480471 
L 224.705672 263.480471 
L 224.705672 263.125835 
L 225.689552 263.125835 
L 225.689552 262.7712 
L 227.833089 262.7712 
L 227.833089 262.416565 
L 230.294892 262.416565 
L 230.294892 262.061929 
L 231.300054 262.061929 
L 231.300054 261.707294 
L 237.881922 261.707294 
L 237.881922 261.352659 
L 238.710392 261.352659 
L 238.710392 260.998024 
L 239.968297 260.998024 
L 239.968297 260.643388 
L 240.25589 260.643388 
L 240.25589 260.288753 
L 243.682007 260.288753 
L 243.682007 259.934118 
L 247.31573 259.934118 
L 247.31573 259.579482 
L 249.910513 259.579482 
L 249.910513 259.224847 
L 250.52295 259.224847 
L 250.52295 258.870212 
L 250.692079 258.870212 
L 250.692079 258.515576 
L 251.949006 258.515576 
L 251.949006 258.160941 
L 253.058581 258.160941 
L 253.058581 257.806306 
L 261.228141 257.806306 
L 261.229657 257.097035 
L 261.40272 257.097035 
L 261.40272 256.7424 
L 266.123864 256.7424 
L 266.123864 256.387765 
L 266.497 256.387765 
L 266.497 256.033129 
L 268.508364 256.033129 
L 268.50839 255.323859 
L 269.608438 255.323859 
L 269.609002 254.614588 
L 270.139481 254.614588 
L 270.139481 254.259953 
L 270.568344 254.259953 
L 270.568344 253.905318 
L 278.750554 253.905318 
L 278.750554 253.550682 
L 279.477882 253.550682 
L 279.477882 253.196047 
L 283.765026 253.196047 
L 283.765026 252.841412 
L 284.133265 252.841412 
L 284.133437 252.132141 
L 284.59545 252.132141 
L 284.59545 251.777506 
L 285.071233 251.777506 
L 285.097931 251.068235 
L 285.498574 251.068235 
L 285.498574 250.7136 
L 288.990013 250.7136 
L 288.990013 250.358965 
L 292.846152 250.358965 
L 292.846403 249.649694 
L 293.379465 249.649694 
L 293.379465 249.295059 
L 293.716266 249.295059 
L 293.716266 248.940424 
L 295.850174 248.940424 
L 295.850174 248.585788 
L 296.5476 248.585788 
L 296.5476 248.231153 
L 298.777425 248.231153 
L 298.777867 247.521882 
L 299.213096 247.521882 
L 299.213938 246.812612 
L 301.1631 246.812612 
L 301.163127 246.103341 
L 301.548034 246.103341 
L 301.548034 245.748706 
L 306.910609 245.748706 
L 306.910609 245.394071 
L 308.726925 245.394071 
L 308.754449 244.330165 
L 309.860092 244.330165 
L 309.860092 243.975529 
L 311.532019 243.975529 
L 311.532019 243.620894 
L 316.096045 243.620894 
L 316.096045 243.266259 
L 317.082792 243.266259 
L 317.082792 242.911624 
L 318.913424 242.911624 
L 318.913424 242.556988 
L 322.835479 242.556988 
L 322.835479 242.202353 
L 324.847718 242.202353 
L 324.847718 241.847718 
L 332.064285 241.847718 
L 332.064285 241.493082 
L 332.912242 241.493082 
L 332.912242 241.138447 
L 335.609719 241.138447 
L 335.610018 240.429176 
L 360.8064 240.429176 
L 360.8064 240.429176 
" style="fill: none; stroke: #6495ed; stroke-width: 1.5; stroke-linecap: square"/>
   </g>
   <g id="line2d_51">
    <defs>
     <path id="md96b61a240" d="M -0 6 
L 6 -6 
L -6 -6 
z
" style="stroke: #6495ed; stroke-width: 1.5; stroke-linejoin: miter"/>
    </defs>
    <g>
     <use xlink:href="#md96b61a240" x="164.001274" y="270.927812" style="fill-opacity: 0; stroke: #6495ed; stroke-width: 1.5; stroke-linejoin: miter"/>
     <use xlink:href="#md96b61a240" x="251.949006" y="258.515576" style="fill-opacity: 0; stroke: #6495ed; stroke-width: 1.5; stroke-linejoin: miter"/>
     <use xlink:href="#md96b61a240" x="335.610018" y="240.783812" style="fill-opacity: 0; stroke: #6495ed; stroke-width: 1.5; stroke-linejoin: miter"/>
     <use xlink:href="#md96b61a240" x="335.610018" y="240.429176" style="fill-opacity: 0; stroke: #6495ed; stroke-width: 1.5; stroke-linejoin: miter"/>
     <use xlink:href="#md96b61a240" x="360.8064" y="240.429176" style="fill-opacity: 0; stroke: #6495ed; stroke-width: 1.5; stroke-linejoin: miter"/>
    </g>
   </g>
   <g id="line2d_52">
    <path style="fill: none; stroke: #6495ed; stroke-width: 1.5; stroke-linecap: square"/>
    <g/>
   </g>
   <g id="line2d_53">
    <path d="M 261.138537 257.806306 
" clip-path="url(#pb8fea2dc45)" style="fill: none; stroke: #6495ed; stroke-width: 1.5; stroke-linecap: square"/>
    <defs>
     <path id="m76d40fb5f1" d="M -12 12 
L 12 -12 
M -12 -12 
L 12 12 
" style="stroke: #6495ed"/>
    </defs>
    <g clip-path="url(#pb8fea2dc45)">
     <use xlink:href="#m76d40fb5f1" x="261.138537" y="257.806306" style="fill: #6495ed; stroke: #6495ed"/>
    </g>
   </g>
   <g id="line2d_54">
    <path d="M 360.8064 261.707294 
L 380.514816 293.51808 
" style="fill: none; stroke: #000080; stroke-width: 1.5; stroke-linecap: square"/>
    <g>
     <use xlink:href="#mfdd3720b25" x="360.8064" y="261.707294" style="fill-opacity: 0; stroke: #000080; stroke-width: 1.5"/>
     <use xlink:href="#mfdd3720b25" x="380.514816" y="293.51808" style="fill-opacity: 0; stroke: #000080; stroke-width: 1.5"/>
    </g>
   </g>
   <g id="line2d_55">
    <path d="M 360.8064 245.748706 
L 380.514816 228.40704 
" style="fill: none; stroke: #ff7500; stroke-width: 1.5; stroke-linecap: square"/>
    <g>
     <use xlink:href="#m0bb1d168bc" x="360.8064" y="245.748706" style="fill-opacity: 0; stroke: #ff7500; stroke-width: 1.5; stroke-linejoin: bevel"/>
     <use xlink:href="#m0bb1d168bc" x="380.514816" y="228.40704" style="fill-opacity: 0; stroke: #ff7500; stroke-width: 1.5; stroke-linejoin: bevel"/>
    </g>
   </g>
   <g id="line2d_56">
    <path d="M 360.8064 240.429176 
L 380.514816 163.296 
" style="fill: none; stroke: #6495ed; stroke-width: 1.5; stroke-linecap: square"/>
    <g>
     <use xlink:href="#md96b61a240" x="360.8064" y="240.429176" style="fill-opacity: 0; stroke: #6495ed; stroke-width: 1.5; stroke-linejoin: miter"/>
     <use xlink:href="#md96b61a240" x="380.514816" y="163.296" style="fill-opacity: 0; stroke: #6495ed; stroke-width: 1.5; stroke-linejoin: miter"/>
    </g>
   </g>
   <g id="line2d_57">
    <path d="M 360.8064 229.790118 
L 380.514816 98.18496 
" style="fill: none; stroke: #ff00ff; stroke-width: 1.5; stroke-linecap: square"/>
    <g>
     <use xlink:href="#m51fe1db737" x="360.8064" y="229.790118" style="fill-opacity: 0; stroke: #ff00ff; stroke-width: 1.5; stroke-linejoin: miter"/>
     <use xlink:href="#m51fe1db737" x="380.514816" y="98.18496" style="fill-opacity: 0; stroke: #ff00ff; stroke-width: 1.5; stroke-linejoin: miter"/>
    </g>
   </g>
   <g id="line2d_58">
    <path d="M 360.8064 298.944 
L 360.8064 27.648 
" style="fill: none; stroke: #000000; stroke-width: 1.5; stroke-linecap: square"/>
   </g>
   <g id="patch_3">
    <path d="M 57.6 298.944 
L 360.8064 298.944 
" style="fill: none; stroke: #000000; stroke-width: 0.8; stroke-linejoin: miter; stroke-linecap: square"/>
   </g>
   <g id="patch_4">
    <path d="M 57.6 27.648 
L 360.8064 27.648 
" style="fill: none; stroke: #000000; stroke-width: 0.8; stroke-linejoin: miter; stroke-linecap: square"/>
   </g>
   <g id="text_13">
    <!-- LCGA -->
    <g transform="translate(386.578944 297.381205)scale(0.14 -0.14)">
     <defs>
      <path id="DejaVuSans-4c" d="M 628 4666 
L 1259 4666 
L 1259 531 
L 3531 531 
L 3531 0 
L 628 0 
L 628 4666 
z
" transform="scale(0.015625)"/>
      <path id="DejaVuSans-43" d="M 4122 4306 
L 4122 3641 
Q 3803 3938 3442 4084 
Q 3081 4231 2675 4231 
Q 1875 4231 1450 3742 
Q 1025 3253 1025 2328 
Q 1025 1406 1450 917 
Q 1875 428 2675 428 
Q 3081 428 3442 575 
Q 3803 722 4122 1019 
L 4122 359 
Q 3791 134 3420 21 
Q 3050 -91 2638 -91 
Q 1578 -91 968 557 
Q 359 1206 359 2328 
Q 359 3453 968 4101 
Q 1578 4750 2638 4750 
Q 3056 4750 3426 4639 
Q 3797 4528 4122 4306 
z
" transform="scale(0.015625)"/>
      <path id="DejaVuSans-47" d="M 3809 666 
L 3809 1919 
L 2778 1919 
L 2778 2438 
L 4434 2438 
L 4434 434 
Q 4069 175 3628 42 
Q 3188 -91 2688 -91 
Q 1594 -91 976 548 
Q 359 1188 359 2328 
Q 359 3472 976 4111 
Q 1594 4750 2688 4750 
Q 3144 4750 3555 4637 
Q 3966 4525 4313 4306 
L 4313 3634 
Q 3963 3931 3569 4081 
Q 3175 4231 2741 4231 
Q 1884 4231 1454 3753 
Q 1025 3275 1025 2328 
Q 1025 1384 1454 906 
Q 1884 428 2741 428 
Q 3075 428 3337 486 
Q 3600 544 3809 666 
z
" transform="scale(0.015625)"/>
      <path id="DejaVuSans-41" d="M 2188 4044 
L 1331 1722 
L 3047 1722 
L 2188 4044 
z
M 1831 4666 
L 2547 4666 
L 4325 0 
L 3669 0 
L 3244 1197 
L 1141 1197 
L 716 0 
L 50 0 
L 1831 4666 
z
" transform="scale(0.015625)"/>
     </defs>
     <use xlink:href="#DejaVuSans-4c"/>
     <use xlink:href="#DejaVuSans-43" x="55.712891"/>
     <use xlink:href="#DejaVuSans-47" x="125.537109"/>
     <use xlink:href="#DejaVuSans-41" x="203.027344"/>
    </g>
   </g>
   <g id="text_14">
    <!-- PSO -->
    <g transform="translate(386.578944 232.270165)scale(0.14 -0.14)">
     <defs>
      <path id="DejaVuSans-50" d="M 1259 4147 
L 1259 2394 
L 2053 2394 
Q 2494 2394 2734 2622 
Q 2975 2850 2975 3272 
Q 2975 3691 2734 3919 
Q 2494 4147 2053 4147 
L 1259 4147 
z
M 628 4666 
L 2053 4666 
Q 2838 4666 3239 4311 
Q 3641 3956 3641 3272 
Q 3641 2581 3239 2228 
Q 2838 1875 2053 1875 
L 1259 1875 
L 1259 0 
L 628 0 
L 628 4666 
z
" transform="scale(0.015625)"/>
      <path id="DejaVuSans-53" d="M 3425 4513 
L 3425 3897 
Q 3066 4069 2747 4153 
Q 2428 4238 2131 4238 
Q 1616 4238 1336 4038 
Q 1056 3838 1056 3469 
Q 1056 3159 1242 3001 
Q 1428 2844 1947 2747 
L 2328 2669 
Q 3034 2534 3370 2195 
Q 3706 1856 3706 1288 
Q 3706 609 3251 259 
Q 2797 -91 1919 -91 
Q 1588 -91 1214 -16 
Q 841 59 441 206 
L 441 856 
Q 825 641 1194 531 
Q 1563 422 1919 422 
Q 2459 422 2753 634 
Q 3047 847 3047 1241 
Q 3047 1584 2836 1778 
Q 2625 1972 2144 2069 
L 1759 2144 
Q 1053 2284 737 2584 
Q 422 2884 422 3419 
Q 422 4038 858 4394 
Q 1294 4750 2059 4750 
Q 2388 4750 2728 4690 
Q 3069 4631 3425 4513 
z
" transform="scale(0.015625)"/>
      <path id="DejaVuSans-4f" d="M 2522 4238 
Q 1834 4238 1429 3725 
Q 1025 3213 1025 2328 
Q 1025 1447 1429 934 
Q 1834 422 2522 422 
Q 3209 422 3611 934 
Q 4013 1447 4013 2328 
Q 4013 3213 3611 3725 
Q 3209 4238 2522 4238 
z
M 2522 4750 
Q 3503 4750 4090 4092 
Q 4678 3434 4678 2328 
Q 4678 1225 4090 567 
Q 3503 -91 2522 -91 
Q 1538 -91 948 565 
Q 359 1222 359 2328 
Q 359 3434 948 4092 
Q 1538 4750 2522 4750 
z
" transform="scale(0.015625)"/>
     </defs>
     <use xlink:href="#DejaVuSans-50"/>
     <use xlink:href="#DejaVuSans-53" x="60.302734"/>
     <use xlink:href="#DejaVuSans-4f" x="123.779297"/>
    </g>
   </g>
   <g id="text_15">
    <!-- EvoSpace- -->
    <g transform="translate(386.578944 167.159125)scale(0.14 -0.14)">
     <defs>
      <path id="DejaVuSans-45" d="M 628 4666 
L 3578 4666 
L 3578 4134 
L 1259 4134 
L 1259 2753 
L 3481 2753 
L 3481 2222 
L 1259 2222 
L 1259 531 
L 3634 531 
L 3634 0 
L 628 0 
L 628 4666 
z
" transform="scale(0.015625)"/>
     </defs>
     <use xlink:href="#DejaVuSans-45"/>
     <use xlink:href="#DejaVuSans-76" x="63.183594"/>
     <use xlink:href="#DejaVuSans-6f" x="122.363281"/>
     <use xlink:href="#DejaVuSans-53" x="183.544922"/>
     <use xlink:href="#DejaVuSans-70" x="247.021484"/>
     <use xlink:href="#DejaVuSans-61" x="310.498047"/>
     <use xlink:href="#DejaVuSans-63" x="371.777344"/>
     <use xlink:href="#DejaVuSans-65" x="426.757812"/>
     <use xlink:href="#DejaVuSans-2d" x="488.28125"/>
    </g>
   </g>
   <g id="text_16">
    <!-- GA -->
    <g transform="translate(386.578944 102.048085)scale(0.14 -0.14)">
     <use xlink:href="#DejaVuSans-47"/>
     <use xlink:href="#DejaVuSans-41" x="77.490234"/>
    </g>
   </g>
   <g id="text_17">
    <!-- best 2009 -->
    <g transform="translate(386.578944 36.937045)scale(0.14 -0.14)">
     <defs>
      <path id="DejaVuSans-62" d="M 3116 1747 
Q 3116 2381 2855 2742 
Q 2594 3103 2138 3103 
Q 1681 3103 1420 2742 
Q 1159 2381 1159 1747 
Q 1159 1113 1420 752 
Q 1681 391 2138 391 
Q 2594 391 2855 752 
Q 3116 1113 3116 1747 
z
M 1159 2969 
Q 1341 3281 1617 3432 
Q 1894 3584 2278 3584 
Q 2916 3584 3314 3078 
Q 3713 2572 3713 1747 
Q 3713 922 3314 415 
Q 2916 -91 2278 -91 
Q 1894 -91 1617 61 
Q 1341 213 1159 525 
L 1159 0 
L 581 0 
L 581 4863 
L 1159 4863 
L 1159 2969 
z
" transform="scale(0.015625)"/>
      <path id="DejaVuSans-39" d="M 703 97 
L 703 672 
Q 941 559 1184 500 
Q 1428 441 1663 441 
Q 2288 441 2617 861 
Q 2947 1281 2994 2138 
Q 2813 1869 2534 1725 
Q 2256 1581 1919 1581 
Q 1219 1581 811 2004 
Q 403 2428 403 3163 
Q 403 3881 828 4315 
Q 1253 4750 1959 4750 
Q 2769 4750 3195 4129 
Q 3622 3509 3622 2328 
Q 3622 1225 3098 567 
Q 2575 -91 1691 -91 
Q 1453 -91 1209 -44 
Q 966 3 703 97 
z
M 1959 2075 
Q 2384 2075 2632 2365 
Q 2881 2656 2881 3163 
Q 2881 3666 2632 3958 
Q 2384 4250 1959 4250 
Q 1534 4250 1286 3958 
Q 1038 3666 1038 3163 
Q 1038 2656 1286 2365 
Q 1534 2075 1959 2075 
z
" transform="scale(0.015625)"/>
     </defs>
     <use xlink:href="#DejaVuSans-62"/>
     <use xlink:href="#DejaVuSans-65" x="63.476562"/>
     <use xlink:href="#DejaVuSans-73" x="125"/>
     <use xlink:href="#DejaVuSans-74" x="177.099609"/>
     <use xlink:href="#DejaVuSans-20" x="216.308594"/>
     <use xlink:href="#DejaVuSans-32" x="248.095703"/>
     <use xlink:href="#DejaVuSans-30" x="311.71875"/>
     <use xlink:href="#DejaVuSans-30" x="375.341797"/>
     <use xlink:href="#DejaVuSans-39" x="438.964844"/>
    </g>
   </g>
   <g id="text_18">
    <!-- bbob f16, 20-D -->
    <g transform="translate(60.632064 38.111366)scale(0.102 -0.102)">
     <defs>
      <path id="DejaVuSans-44" d="M 1259 4147 
L 1259 519 
L 2022 519 
Q 2988 519 3436 956 
Q 3884 1394 3884 2338 
Q 3884 3275 3436 3711 
Q 2988 4147 2022 4147 
L 1259 4147 
z
M 628 4666 
L 1925 4666 
Q 3281 4666 3915 4102 
Q 4550 3538 4550 2338 
Q 4550 1131 3912 565 
Q 3275 0 1925 0 
L 628 0 
L 628 4666 
z
" transform="scale(0.015625)"/>
     </defs>
     <use xlink:href="#DejaVuSans-62"/>
     <use xlink:href="#DejaVuSans-62" x="63.476562"/>
     <use xlink:href="#DejaVuSans-6f" x="126.953125"/>
     <use xlink:href="#DejaVuSans-62" x="188.134766"/>
     <use xlink:href="#DejaVuSans-20" x="251.611328"/>
     <use xlink:href="#DejaVuSans-66" x="283.398438"/>
     <use xlink:href="#DejaVuSans-31" x="318.603516"/>
     <use xlink:href="#DejaVuSans-36" x="382.226562"/>
     <use xlink:href="#DejaVuSans-2c" x="445.849609"/>
     <use xlink:href="#DejaVuSans-20" x="477.636719"/>
     <use xlink:href="#DejaVuSans-32" x="509.423828"/>
     <use xlink:href="#DejaVuSans-30" x="573.046875"/>
     <use xlink:href="#DejaVuSans-2d" x="636.669922"/>
     <use xlink:href="#DejaVuSans-44" x="672.753906"/>
    </g>
    <!-- 51 targets: 100..1e-08 -->
    <g transform="translate(60.632064 49.533135)scale(0.102 -0.102)">
     <defs>
      <path id="DejaVuSans-35" d="M 691 4666 
L 3169 4666 
L 3169 4134 
L 1269 4134 
L 1269 2991 
Q 1406 3038 1543 3061 
Q 1681 3084 1819 3084 
Q 2600 3084 3056 2656 
Q 3513 2228 3513 1497 
Q 3513 744 3044 326 
Q 2575 -91 1722 -91 
Q 1428 -91 1123 -41 
Q 819 9 494 109 
L 494 744 
Q 775 591 1075 516 
Q 1375 441 1709 441 
Q 2250 441 2565 725 
Q 2881 1009 2881 1497 
Q 2881 1984 2565 2268 
Q 2250 2553 1709 2553 
Q 1456 2553 1204 2497 
Q 953 2441 691 2322 
L 691 4666 
z
" transform="scale(0.015625)"/>
      <path id="DejaVuSans-3a" d="M 750 794 
L 1409 794 
L 1409 0 
L 750 0 
L 750 794 
z
M 750 3309 
L 1409 3309 
L 1409 2516 
L 750 2516 
L 750 3309 
z
" transform="scale(0.015625)"/>
     </defs>
     <use xlink:href="#DejaVuSans-35"/>
     <use xlink:href="#DejaVuSans-31" x="63.623047"/>
     <use xlink:href="#DejaVuSans-20" x="127.246094"/>
     <use xlink:href="#DejaVuSans-74" x="159.033203"/>
     <use xlink:href="#DejaVuSans-61" x="198.242188"/>
     <use xlink:href="#DejaVuSans-72" x="259.521484"/>
     <use xlink:href="#DejaVuSans-67" x="298.884766"/>
     <use xlink:href="#DejaVuSans-65" x="362.361328"/>
     <use xlink:href="#DejaVuSans-74" x="423.884766"/>
     <use xlink:href="#DejaVuSans-73" x="463.09375"/>
     <use xlink:href="#DejaVuSans-3a" x="515.193359"/>
     <use xlink:href="#DejaVuSans-20" x="548.884766"/>
     <use xlink:href="#DejaVuSans-31" x="580.671875"/>
     <use xlink:href="#DejaVuSans-30" x="644.294922"/>
     <use xlink:href="#DejaVuSans-30" x="707.917969"/>
     <use xlink:href="#DejaVuSans-2e" x="771.541016"/>
     <use xlink:href="#DejaVuSans-2e" x="803.328125"/>
     <use xlink:href="#DejaVuSans-31" x="835.115234"/>
     <use xlink:href="#DejaVuSans-65" x="898.738281"/>
     <use xlink:href="#DejaVuSans-2d" x="960.261719"/>
     <use xlink:href="#DejaVuSans-30" x="996.345703"/>
     <use xlink:href="#DejaVuSans-38" x="1059.96875"/>
    </g>
    <!-- 15 instances -->
    <g transform="translate(60.632064 60.954904)scale(0.102 -0.102)">
     <use xlink:href="#DejaVuSans-31"/>
     <use xlink:href="#DejaVuSans-35" x="63.623047"/>
     <use xlink:href="#DejaVuSans-20" x="127.246094"/>
     <use xlink:href="#DejaVuSans-69" x="159.033203"/>
     <use xlink:href="#DejaVuSans-6e" x="186.816406"/>
     <use xlink:href="#DejaVuSans-73" x="250.195312"/>
     <use xlink:href="#DejaVuSans-74" x="302.294922"/>
     <use xlink:href="#DejaVuSans-61" x="341.503906"/>
     <use xlink:href="#DejaVuSans-6e" x="402.783203"/>
     <use xlink:href="#DejaVuSans-63" x="466.162109"/>
     <use xlink:href="#DejaVuSans-65" x="521.142578"/>
     <use xlink:href="#DejaVuSans-73" x="582.666016"/>
    </g>
   </g>
   <g id="text_19">
    <!-- v2.6 -->
    <g style="fill: #808080" transform="translate(198.292262 294.151352)scale(0.1 -0.1)">
     <use xlink:href="#DejaVuSans-76"/>
     <use xlink:href="#DejaVuSans-32" x="59.179688"/>
     <use xlink:href="#DejaVuSans-2e" x="122.802734"/>
     <use xlink:href="#DejaVuSans-36" x="154.589844"/>
    </g>
   </g>
   <g id="text_20">
    <!-- 16 Weierstrass -->
    <g transform="translate(135.017262 21.648)scale(0.2 -0.2)">
     <defs>
      <path id="DejaVuSans-57" d="M 213 4666 
L 850 4666 
L 1831 722 
L 2809 4666 
L 3519 4666 
L 4500 722 
L 5478 4666 
L 6119 4666 
L 4947 0 
L 4153 0 
L 3169 4050 
L 2175 0 
L 1381 0 
L 213 4666 
z
" transform="scale(0.015625)"/>
     </defs>
     <use xlink:href="#DejaVuSans-31"/>
     <use xlink:href="#DejaVuSans-36" x="63.623047"/>
     <use xlink:href="#DejaVuSans-20" x="127.246094"/>
     <use xlink:href="#DejaVuSans-57" x="159.033203"/>
     <use xlink:href="#DejaVuSans-65" x="252.035156"/>
     <use xlink:href="#DejaVuSans-69" x="313.558594"/>
     <use xlink:href="#DejaVuSans-65" x="341.341797"/>
     <use xlink:href="#DejaVuSans-72" x="402.865234"/>
     <use xlink:href="#DejaVuSans-73" x="443.978516"/>
     <use xlink:href="#DejaVuSans-74" x="496.078125"/>
     <use xlink:href="#DejaVuSans-72" x="535.287109"/>
     <use xlink:href="#DejaVuSans-61" x="576.400391"/>
     <use xlink:href="#DejaVuSans-73" x="637.679688"/>
     <use xlink:href="#DejaVuSans-73" x="689.779297"/>
    </g>
   </g>
  </g>
 </g>
 <defs>
  <clipPath id="pb8fea2dc45">
   <rect x="57.6" y="27.648" width="303.2064" height="271.296"/>
  </clipPath>
 </defs>
</svg>
