<?xml version="1.0" encoding="utf-8" standalone="no"?>
<!DOCTYPE svg PUBLIC "-//W3C//DTD SVG 1.1//EN"
  "http://www.w3.org/Graphics/SVG/1.1/DTD/svg11.dtd">
<svg xmlns:xlink="http://www.w3.org/1999/xlink" width="460.8pt" height="345.6pt" viewBox="0 0 460.8 345.6" xmlns="http://www.w3.org/2000/svg" version="1.1">
 <metadata>
  <rdf:RDF xmlns:dc="http://purl.org/dc/elements/1.1/" xmlns:cc="http://creativecommons.org/ns#" xmlns:rdf="http://www.w3.org/1999/02/22-rdf-syntax-ns#">
   <cc:Work>
    <dc:type rdf:resource="http://purl.org/dc/dcmitype/StillImage"/>
    <dc:date>2024-05-29T08:11:55.722793</dc:date>
    <dc:format>image/svg+xml</dc:format>
    <dc:creator>
     <cc:Agent>
      <dc:title>Matplotlib v3.5.1, https://matplotlib.org/</dc:title>
     </cc:Agent>
    </dc:creator>
   </cc:Work>
  </rdf:RDF>
 </metadata>
 <defs>
  <style type="text/css">*{stroke-linejoin: round; stroke-linecap: butt}</style>
 </defs>
 <g id="figure_1">
  <g id="patch_1">
   <path d="M 0 345.6 
L 460.8 345.6 
L 460.8 0 
L 0 0 
z
" style="fill: #ffffff"/>
  </g>
  <g id="axes_1">
   <g id="patch_2">
    <path d="M 57.6 298.944 
L 360.8064 298.944 
L 360.8064 27.648 
L 57.6 27.648 
z
" style="fill: #ffffff"/>
   </g>
   <g id="line2d_1">
    <path d="M 65.227428 298.944 
L 65.227428 288.304941 
L 74.836851 288.304941 
L 74.836851 267.026824 
L 81.166416 267.026824 
L 81.166416 261.707294 
L 91.305777 261.707294 
L 91.305777 240.429176 
L 97.857967 240.429176 
L 97.857967 235.109647 
L 99.950294 235.109647 
L 99.950294 229.790118 
L 100.9152 229.790118 
L 100.9152 224.470588 
L 106.560633 224.470588 
L 106.560633 219.151059 
L 112.487797 219.151059 
L 112.487797 213.831529 
L 114.418881 213.831529 
L 114.418881 208.512 
L 115.314838 208.512 
L 115.314838 203.192471 
L 115.747307 203.192471 
L 115.747307 197.872941 
L 116.583514 197.872941 
L 116.583514 187.233882 
L 116.988079 187.233882 
L 116.988079 176.594824 
L 127.458055 176.594824 
L 127.458055 171.275294 
L 128.133992 171.275294 
L 128.133992 165.955765 
L 128.354013 165.955765 
L 128.354013 160.636235 
L 128.786481 160.636235 
L 128.786481 155.316706 
L 129.209231 155.316706 
L 129.209231 149.997176 
L 129.417095 149.997176 
L 129.417095 144.677647 
L 129.622688 144.677647 
L 129.622688 128.719059 
L 129.826058 128.719059 
L 129.826058 118.08 
L 130.027253 118.08 
L 130.027253 107.440941 
L 130.226319 107.440941 
L 130.226319 102.121412 
L 130.4233 102.121412 
L 130.4233 96.801882 
L 130.811181 96.801882 
L 130.811181 91.482353 
L 131.191226 91.482353 
L 131.191226 86.162824 
L 131.747272 86.162824 
L 131.747272 80.843294 
L 132.287354 80.843294 
L 132.287354 75.523765 
L 132.46399 75.523765 
L 132.46399 70.204235 
L 132.984158 70.204235 
L 132.984158 64.884706 
L 133.323114 64.884706 
L 133.323114 48.926118 
L 133.656071 48.926118 
L 133.656071 32.967529 
L 133.983236 32.967529 
L 133.983236 27.648 
L 360.8064 27.648 
" style="fill: none; stroke: #f5deb3; stroke-width: 4; stroke-linecap: square"/>
   </g>
   <g id="line2d_2">
    <defs>
     <path id="m25ada24578" d="M 0 7.778175 
L 7.778175 0 
L 0 -7.778175 
L -7.778175 0 
z
" style="stroke: #f5deb3; stroke-width: 1.5; stroke-linejoin: miter"/>
    </defs>
    <g>
     <use xlink:href="#m25ada24578" x="114.418881" y="213.831529" style="fill: #f5deb3; stroke: #f5deb3; stroke-width: 1.5; stroke-linejoin: miter"/>
     <use xlink:href="#m25ada24578" x="132.46399" y="75.523765" style="fill: #f5deb3; stroke: #f5deb3; stroke-width: 1.5; stroke-linejoin: miter"/>
     <use xlink:href="#m25ada24578" x="133.983236" y="27.648" style="fill: #f5deb3; stroke: #f5deb3; stroke-width: 1.5; stroke-linejoin: miter"/>
     <use xlink:href="#m25ada24578" x="133.983236" y="27.648" style="fill: #f5deb3; stroke: #f5deb3; stroke-width: 1.5; stroke-linejoin: miter"/>
     <use xlink:href="#m25ada24578" x="360.8064" y="27.648" style="fill: #f5deb3; stroke: #f5deb3; stroke-width: 1.5; stroke-linejoin: miter"/>
    </g>
   </g>
   <g id="line2d_3">
    <path style="fill: none; stroke: #f5deb3; stroke-width: 4; stroke-linecap: square"/>
    <g/>
   </g>
   <g id="line2d_4">
    <path d="M 360.8064 27.648 
L 380.514816 33.07392 
" style="fill: none; stroke: #f5deb3; stroke-width: 4; stroke-linecap: square"/>
    <g>
     <use xlink:href="#m25ada24578" x="360.8064" y="27.648" style="fill: #f5deb3; stroke: #f5deb3; stroke-width: 1.5; stroke-linejoin: miter"/>
     <use xlink:href="#m25ada24578" x="380.514816" y="33.07392" style="fill: #f5deb3; stroke: #f5deb3; stroke-width: 1.5; stroke-linejoin: miter"/>
    </g>
   </g>
   <g id="matplotlib.axis_1">
    <g id="xtick_1">
     <g id="line2d_5">
      <path d="M 57.6 298.944 
L 57.6 27.648 
" clip-path="url(#p1667df232f)" style="fill: none; stroke: #b0b0b0; stroke-width: 0.8; stroke-linecap: square"/>
     </g>
     <g id="line2d_6">
      <defs>
       <path id="m59c75df8be" d="M 0 0 
L 0 3.5 
" style="stroke: #000000; stroke-width: 0.8"/>
      </defs>
      <g>
       <use xlink:href="#m59c75df8be" x="57.6" y="298.944" style="stroke: #000000; stroke-width: 0.8"/>
      </g>
     </g>
     <g id="text_1">
      <!-- 0 -->
      <g transform="translate(52.191875 318.861344)scale(0.17 -0.17)">
       <defs>
        <path id="DejaVuSans-30" d="M 2034 4250 
Q 1547 4250 1301 3770 
Q 1056 3291 1056 2328 
Q 1056 1369 1301 889 
Q 1547 409 2034 409 
Q 2525 409 2770 889 
Q 3016 1369 3016 2328 
Q 3016 3291 2770 3770 
Q 2525 4250 2034 4250 
z
M 2034 4750 
Q 2819 4750 3233 4129 
Q 3647 3509 3647 2328 
Q 3647 1150 3233 529 
Q 2819 -91 2034 -91 
Q 1250 -91 836 529 
Q 422 1150 422 2328 
Q 422 3509 836 4129 
Q 1250 4750 2034 4750 
z
" transform="scale(0.015625)"/>
       </defs>
       <use xlink:href="#DejaVuSans-30"/>
      </g>
     </g>
    </g>
    <g id="xtick_2">
     <g id="line2d_7">
      <path d="M 144.2304 298.944 
L 144.2304 27.648 
" clip-path="url(#p1667df232f)" style="fill: none; stroke: #b0b0b0; stroke-width: 0.8; stroke-linecap: square"/>
     </g>
     <g id="line2d_8">
      <g>
       <use xlink:href="#m59c75df8be" x="144.2304" y="298.944" style="stroke: #000000; stroke-width: 0.8"/>
      </g>
     </g>
     <g id="text_2">
      <!-- 2 -->
      <g transform="translate(138.822275 318.861344)scale(0.17 -0.17)">
       <defs>
        <path id="DejaVuSans-32" d="M 1228 531 
L 3431 531 
L 3431 0 
L 469 0 
L 469 531 
Q 828 903 1448 1529 
Q 2069 2156 2228 2338 
Q 2531 2678 2651 2914 
Q 2772 3150 2772 3378 
Q 2772 3750 2511 3984 
Q 2250 4219 1831 4219 
Q 1534 4219 1204 4116 
Q 875 4013 500 3803 
L 500 4441 
Q 881 4594 1212 4672 
Q 1544 4750 1819 4750 
Q 2544 4750 2975 4387 
Q 3406 4025 3406 3419 
Q 3406 3131 3298 2873 
Q 3191 2616 2906 2266 
Q 2828 2175 2409 1742 
Q 1991 1309 1228 531 
z
" transform="scale(0.015625)"/>
       </defs>
       <use xlink:href="#DejaVuSans-32"/>
      </g>
     </g>
    </g>
    <g id="xtick_3">
     <g id="line2d_9">
      <path d="M 230.8608 298.944 
L 230.8608 27.648 
" clip-path="url(#p1667df232f)" style="fill: none; stroke: #b0b0b0; stroke-width: 0.8; stroke-linecap: square"/>
     </g>
     <g id="line2d_10">
      <g>
       <use xlink:href="#m59c75df8be" x="230.8608" y="298.944" style="stroke: #000000; stroke-width: 0.8"/>
      </g>
     </g>
     <g id="text_3">
      <!-- 4 -->
      <g transform="translate(225.452675 318.861344)scale(0.17 -0.17)">
       <defs>
        <path id="DejaVuSans-34" d="M 2419 4116 
L 825 1625 
L 2419 1625 
L 2419 4116 
z
M 2253 4666 
L 3047 4666 
L 3047 1625 
L 3713 1625 
L 3713 1100 
L 3047 1100 
L 3047 0 
L 2419 0 
L 2419 1100 
L 313 1100 
L 313 1709 
L 2253 4666 
z
" transform="scale(0.015625)"/>
       </defs>
       <use xlink:href="#DejaVuSans-34"/>
      </g>
     </g>
    </g>
    <g id="xtick_4">
     <g id="line2d_11">
      <path d="M 317.4912 298.944 
L 317.4912 27.648 
" clip-path="url(#p1667df232f)" style="fill: none; stroke: #b0b0b0; stroke-width: 0.8; stroke-linecap: square"/>
     </g>
     <g id="line2d_12">
      <g>
       <use xlink:href="#m59c75df8be" x="317.4912" y="298.944" style="stroke: #000000; stroke-width: 0.8"/>
      </g>
     </g>
     <g id="text_4">
      <!-- 6 -->
      <g transform="translate(312.083075 318.861344)scale(0.17 -0.17)">
       <defs>
        <path id="DejaVuSans-36" d="M 2113 2584 
Q 1688 2584 1439 2293 
Q 1191 2003 1191 1497 
Q 1191 994 1439 701 
Q 1688 409 2113 409 
Q 2538 409 2786 701 
Q 3034 994 3034 1497 
Q 3034 2003 2786 2293 
Q 2538 2584 2113 2584 
z
M 3366 4563 
L 3366 3988 
Q 3128 4100 2886 4159 
Q 2644 4219 2406 4219 
Q 1781 4219 1451 3797 
Q 1122 3375 1075 2522 
Q 1259 2794 1537 2939 
Q 1816 3084 2150 3084 
Q 2853 3084 3261 2657 
Q 3669 2231 3669 1497 
Q 3669 778 3244 343 
Q 2819 -91 2113 -91 
Q 1303 -91 875 529 
Q 447 1150 447 2328 
Q 447 3434 972 4092 
Q 1497 4750 2381 4750 
Q 2619 4750 2861 4703 
Q 3103 4656 3366 4563 
z
" transform="scale(0.015625)"/>
       </defs>
       <use xlink:href="#DejaVuSans-36"/>
      </g>
     </g>
    </g>
    <g id="xtick_5">
     <g id="line2d_13">
      <path d="M 100.9152 298.944 
L 100.9152 27.648 
" clip-path="url(#p1667df232f)" style="fill: none; stroke: #b0b0b0; stroke-width: 0.8; stroke-linecap: square"/>
     </g>
     <g id="line2d_14">
      <defs>
       <path id="m5a94f4093e" d="M 0 0 
L 0 2 
" style="stroke: #000000; stroke-width: 0.6"/>
      </defs>
      <g>
       <use xlink:href="#m5a94f4093e" x="100.9152" y="298.944" style="stroke: #000000; stroke-width: 0.6"/>
      </g>
     </g>
    </g>
    <g id="xtick_6">
     <g id="line2d_15">
      <path d="M 187.5456 298.944 
L 187.5456 27.648 
" clip-path="url(#p1667df232f)" style="fill: none; stroke: #b0b0b0; stroke-width: 0.8; stroke-linecap: square"/>
     </g>
     <g id="line2d_16">
      <g>
       <use xlink:href="#m5a94f4093e" x="187.5456" y="298.944" style="stroke: #000000; stroke-width: 0.6"/>
      </g>
     </g>
    </g>
    <g id="xtick_7">
     <g id="line2d_17">
      <path d="M 274.176 298.944 
L 274.176 27.648 
" clip-path="url(#p1667df232f)" style="fill: none; stroke: #b0b0b0; stroke-width: 0.8; stroke-linecap: square"/>
     </g>
     <g id="line2d_18">
      <g>
       <use xlink:href="#m5a94f4093e" x="274.176" y="298.944" style="stroke: #000000; stroke-width: 0.6"/>
      </g>
     </g>
    </g>
    <g id="xtick_8">
     <g id="line2d_19">
      <path d="M 360.8064 298.944 
L 360.8064 27.648 
" clip-path="url(#p1667df232f)" style="fill: none; stroke: #b0b0b0; stroke-width: 0.8; stroke-linecap: square"/>
     </g>
     <g id="line2d_20">
      <g>
       <use xlink:href="#m5a94f4093e" x="360.8064" y="298.944" style="stroke: #000000; stroke-width: 0.6"/>
      </g>
     </g>
    </g>
    <g id="text_5">
     <!-- log10(# f-evals / dimension) -->
     <g transform="translate(88.823278 339.314156)scale(0.17 -0.17)">
      <defs>
       <path id="DejaVuSans-6c" d="M 603 4863 
L 1178 4863 
L 1178 0 
L 603 0 
L 603 4863 
z
" transform="scale(0.015625)"/>
       <path id="DejaVuSans-6f" d="M 1959 3097 
Q 1497 3097 1228 2736 
Q 959 2375 959 1747 
Q 959 1119 1226 758 
Q 1494 397 1959 397 
Q 2419 397 2687 759 
Q 2956 1122 2956 1747 
Q 2956 2369 2687 2733 
Q 2419 3097 1959 3097 
z
M 1959 3584 
Q 2709 3584 3137 3096 
Q 3566 2609 3566 1747 
Q 3566 888 3137 398 
Q 2709 -91 1959 -91 
Q 1206 -91 779 398 
Q 353 888 353 1747 
Q 353 2609 779 3096 
Q 1206 3584 1959 3584 
z
" transform="scale(0.015625)"/>
       <path id="DejaVuSans-67" d="M 2906 1791 
Q 2906 2416 2648 2759 
Q 2391 3103 1925 3103 
Q 1463 3103 1205 2759 
Q 947 2416 947 1791 
Q 947 1169 1205 825 
Q 1463 481 1925 481 
Q 2391 481 2648 825 
Q 2906 1169 2906 1791 
z
M 3481 434 
Q 3481 -459 3084 -895 
Q 2688 -1331 1869 -1331 
Q 1566 -1331 1297 -1286 
Q 1028 -1241 775 -1147 
L 775 -588 
Q 1028 -725 1275 -790 
Q 1522 -856 1778 -856 
Q 2344 -856 2625 -561 
Q 2906 -266 2906 331 
L 2906 616 
Q 2728 306 2450 153 
Q 2172 0 1784 0 
Q 1141 0 747 490 
Q 353 981 353 1791 
Q 353 2603 747 3093 
Q 1141 3584 1784 3584 
Q 2172 3584 2450 3431 
Q 2728 3278 2906 2969 
L 2906 3500 
L 3481 3500 
L 3481 434 
z
" transform="scale(0.015625)"/>
       <path id="DejaVuSans-31" d="M 794 531 
L 1825 531 
L 1825 4091 
L 703 3866 
L 703 4441 
L 1819 4666 
L 2450 4666 
L 2450 531 
L 3481 531 
L 3481 0 
L 794 0 
L 794 531 
z
" transform="scale(0.015625)"/>
       <path id="DejaVuSans-28" d="M 1984 4856 
Q 1566 4138 1362 3434 
Q 1159 2731 1159 2009 
Q 1159 1288 1364 580 
Q 1569 -128 1984 -844 
L 1484 -844 
Q 1016 -109 783 600 
Q 550 1309 550 2009 
Q 550 2706 781 3412 
Q 1013 4119 1484 4856 
L 1984 4856 
z
" transform="scale(0.015625)"/>
       <path id="DejaVuSans-23" d="M 3272 2816 
L 2363 2816 
L 2100 1772 
L 3016 1772 
L 3272 2816 
z
M 2803 4594 
L 2478 3297 
L 3391 3297 
L 3719 4594 
L 4219 4594 
L 3897 3297 
L 4872 3297 
L 4872 2816 
L 3775 2816 
L 3519 1772 
L 4513 1772 
L 4513 1294 
L 3397 1294 
L 3072 0 
L 2572 0 
L 2894 1294 
L 1978 1294 
L 1656 0 
L 1153 0 
L 1478 1294 
L 494 1294 
L 494 1772 
L 1594 1772 
L 1856 2816 
L 850 2816 
L 850 3297 
L 1978 3297 
L 2297 4594 
L 2803 4594 
z
" transform="scale(0.015625)"/>
       <path id="DejaVuSans-20" transform="scale(0.015625)"/>
       <path id="DejaVuSans-66" d="M 2375 4863 
L 2375 4384 
L 1825 4384 
Q 1516 4384 1395 4259 
Q 1275 4134 1275 3809 
L 1275 3500 
L 2222 3500 
L 2222 3053 
L 1275 3053 
L 1275 0 
L 697 0 
L 697 3053 
L 147 3053 
L 147 3500 
L 697 3500 
L 697 3744 
Q 697 4328 969 4595 
Q 1241 4863 1831 4863 
L 2375 4863 
z
" transform="scale(0.015625)"/>
       <path id="DejaVuSans-2d" d="M 313 2009 
L 1997 2009 
L 1997 1497 
L 313 1497 
L 313 2009 
z
" transform="scale(0.015625)"/>
       <path id="DejaVuSans-65" d="M 3597 1894 
L 3597 1613 
L 953 1613 
Q 991 1019 1311 708 
Q 1631 397 2203 397 
Q 2534 397 2845 478 
Q 3156 559 3463 722 
L 3463 178 
Q 3153 47 2828 -22 
Q 2503 -91 2169 -91 
Q 1331 -91 842 396 
Q 353 884 353 1716 
Q 353 2575 817 3079 
Q 1281 3584 2069 3584 
Q 2775 3584 3186 3129 
Q 3597 2675 3597 1894 
z
M 3022 2063 
Q 3016 2534 2758 2815 
Q 2500 3097 2075 3097 
Q 1594 3097 1305 2825 
Q 1016 2553 972 2059 
L 3022 2063 
z
" transform="scale(0.015625)"/>
       <path id="DejaVuSans-76" d="M 191 3500 
L 800 3500 
L 1894 563 
L 2988 3500 
L 3597 3500 
L 2284 0 
L 1503 0 
L 191 3500 
z
" transform="scale(0.015625)"/>
       <path id="DejaVuSans-61" d="M 2194 1759 
Q 1497 1759 1228 1600 
Q 959 1441 959 1056 
Q 959 750 1161 570 
Q 1363 391 1709 391 
Q 2188 391 2477 730 
Q 2766 1069 2766 1631 
L 2766 1759 
L 2194 1759 
z
M 3341 1997 
L 3341 0 
L 2766 0 
L 2766 531 
Q 2569 213 2275 61 
Q 1981 -91 1556 -91 
Q 1019 -91 701 211 
Q 384 513 384 1019 
Q 384 1609 779 1909 
Q 1175 2209 1959 2209 
L 2766 2209 
L 2766 2266 
Q 2766 2663 2505 2880 
Q 2244 3097 1772 3097 
Q 1472 3097 1187 3025 
Q 903 2953 641 2809 
L 641 3341 
Q 956 3463 1253 3523 
Q 1550 3584 1831 3584 
Q 2591 3584 2966 3190 
Q 3341 2797 3341 1997 
z
" transform="scale(0.015625)"/>
       <path id="DejaVuSans-73" d="M 2834 3397 
L 2834 2853 
Q 2591 2978 2328 3040 
Q 2066 3103 1784 3103 
Q 1356 3103 1142 2972 
Q 928 2841 928 2578 
Q 928 2378 1081 2264 
Q 1234 2150 1697 2047 
L 1894 2003 
Q 2506 1872 2764 1633 
Q 3022 1394 3022 966 
Q 3022 478 2636 193 
Q 2250 -91 1575 -91 
Q 1294 -91 989 -36 
Q 684 19 347 128 
L 347 722 
Q 666 556 975 473 
Q 1284 391 1588 391 
Q 1994 391 2212 530 
Q 2431 669 2431 922 
Q 2431 1156 2273 1281 
Q 2116 1406 1581 1522 
L 1381 1569 
Q 847 1681 609 1914 
Q 372 2147 372 2553 
Q 372 3047 722 3315 
Q 1072 3584 1716 3584 
Q 2034 3584 2315 3537 
Q 2597 3491 2834 3397 
z
" transform="scale(0.015625)"/>
       <path id="DejaVuSans-2f" d="M 1625 4666 
L 2156 4666 
L 531 -594 
L 0 -594 
L 1625 4666 
z
" transform="scale(0.015625)"/>
       <path id="DejaVuSans-64" d="M 2906 2969 
L 2906 4863 
L 3481 4863 
L 3481 0 
L 2906 0 
L 2906 525 
Q 2725 213 2448 61 
Q 2172 -91 1784 -91 
Q 1150 -91 751 415 
Q 353 922 353 1747 
Q 353 2572 751 3078 
Q 1150 3584 1784 3584 
Q 2172 3584 2448 3432 
Q 2725 3281 2906 2969 
z
M 947 1747 
Q 947 1113 1208 752 
Q 1469 391 1925 391 
Q 2381 391 2643 752 
Q 2906 1113 2906 1747 
Q 2906 2381 2643 2742 
Q 2381 3103 1925 3103 
Q 1469 3103 1208 2742 
Q 947 2381 947 1747 
z
" transform="scale(0.015625)"/>
       <path id="DejaVuSans-69" d="M 603 3500 
L 1178 3500 
L 1178 0 
L 603 0 
L 603 3500 
z
M 603 4863 
L 1178 4863 
L 1178 4134 
L 603 4134 
L 603 4863 
z
" transform="scale(0.015625)"/>
       <path id="DejaVuSans-6d" d="M 3328 2828 
Q 3544 3216 3844 3400 
Q 4144 3584 4550 3584 
Q 5097 3584 5394 3201 
Q 5691 2819 5691 2113 
L 5691 0 
L 5113 0 
L 5113 2094 
Q 5113 2597 4934 2840 
Q 4756 3084 4391 3084 
Q 3944 3084 3684 2787 
Q 3425 2491 3425 1978 
L 3425 0 
L 2847 0 
L 2847 2094 
Q 2847 2600 2669 2842 
Q 2491 3084 2119 3084 
Q 1678 3084 1418 2786 
Q 1159 2488 1159 1978 
L 1159 0 
L 581 0 
L 581 3500 
L 1159 3500 
L 1159 2956 
Q 1356 3278 1631 3431 
Q 1906 3584 2284 3584 
Q 2666 3584 2933 3390 
Q 3200 3197 3328 2828 
z
" transform="scale(0.015625)"/>
       <path id="DejaVuSans-6e" d="M 3513 2113 
L 3513 0 
L 2938 0 
L 2938 2094 
Q 2938 2591 2744 2837 
Q 2550 3084 2163 3084 
Q 1697 3084 1428 2787 
Q 1159 2491 1159 1978 
L 1159 0 
L 581 0 
L 581 3500 
L 1159 3500 
L 1159 2956 
Q 1366 3272 1645 3428 
Q 1925 3584 2291 3584 
Q 2894 3584 3203 3211 
Q 3513 2838 3513 2113 
z
" transform="scale(0.015625)"/>
       <path id="DejaVuSans-29" d="M 513 4856 
L 1013 4856 
Q 1481 4119 1714 3412 
Q 1947 2706 1947 2009 
Q 1947 1309 1714 600 
Q 1481 -109 1013 -844 
L 513 -844 
Q 928 -128 1133 580 
Q 1338 1288 1338 2009 
Q 1338 2731 1133 3434 
Q 928 4138 513 4856 
z
" transform="scale(0.015625)"/>
      </defs>
      <use xlink:href="#DejaVuSans-6c"/>
      <use xlink:href="#DejaVuSans-6f" x="27.783203"/>
      <use xlink:href="#DejaVuSans-67" x="88.964844"/>
      <use xlink:href="#DejaVuSans-31" x="152.441406"/>
      <use xlink:href="#DejaVuSans-30" x="216.064453"/>
      <use xlink:href="#DejaVuSans-28" x="279.6875"/>
      <use xlink:href="#DejaVuSans-23" x="318.701172"/>
      <use xlink:href="#DejaVuSans-20" x="402.490234"/>
      <use xlink:href="#DejaVuSans-66" x="434.277344"/>
      <use xlink:href="#DejaVuSans-2d" x="463.982422"/>
      <use xlink:href="#DejaVuSans-65" x="500.066406"/>
      <use xlink:href="#DejaVuSans-76" x="561.589844"/>
      <use xlink:href="#DejaVuSans-61" x="620.769531"/>
      <use xlink:href="#DejaVuSans-6c" x="682.048828"/>
      <use xlink:href="#DejaVuSans-73" x="709.832031"/>
      <use xlink:href="#DejaVuSans-20" x="761.931641"/>
      <use xlink:href="#DejaVuSans-2f" x="793.71875"/>
      <use xlink:href="#DejaVuSans-20" x="827.410156"/>
      <use xlink:href="#DejaVuSans-64" x="859.197266"/>
      <use xlink:href="#DejaVuSans-69" x="922.673828"/>
      <use xlink:href="#DejaVuSans-6d" x="950.457031"/>
      <use xlink:href="#DejaVuSans-65" x="1047.869141"/>
      <use xlink:href="#DejaVuSans-6e" x="1109.392578"/>
      <use xlink:href="#DejaVuSans-73" x="1172.771484"/>
      <use xlink:href="#DejaVuSans-69" x="1224.871094"/>
      <use xlink:href="#DejaVuSans-6f" x="1252.654297"/>
      <use xlink:href="#DejaVuSans-6e" x="1313.835938"/>
      <use xlink:href="#DejaVuSans-29" x="1377.214844"/>
     </g>
    </g>
   </g>
   <g id="matplotlib.axis_2">
    <g id="ytick_1">
     <g id="line2d_21">
      <path d="M 57.6 298.944 
L 360.8064 298.944 
" clip-path="url(#p1667df232f)" style="fill: none; stroke: #b0b0b0; stroke-width: 0.8; stroke-linecap: square"/>
     </g>
     <g id="line2d_22">
      <defs>
       <path id="mf6595347e6" d="M 0 0 
L -3.5 0 
" style="stroke: #000000; stroke-width: 0.8"/>
      </defs>
      <g>
       <use xlink:href="#mf6595347e6" x="57.6" y="298.944" style="stroke: #000000; stroke-width: 0.8"/>
      </g>
     </g>
     <g id="text_6">
      <!-- 0.0 -->
      <g transform="translate(25.155 305.02275)scale(0.16 -0.16)">
       <defs>
        <path id="DejaVuSans-2e" d="M 684 794 
L 1344 794 
L 1344 0 
L 684 0 
L 684 794 
z
" transform="scale(0.015625)"/>
       </defs>
       <use xlink:href="#DejaVuSans-30"/>
       <use xlink:href="#DejaVuSans-2e" x="63.623047"/>
       <use xlink:href="#DejaVuSans-30" x="95.410156"/>
      </g>
     </g>
    </g>
    <g id="ytick_2">
     <g id="line2d_23">
      <path d="M 57.6 244.6848 
L 360.8064 244.6848 
" clip-path="url(#p1667df232f)" style="fill: none; stroke: #b0b0b0; stroke-width: 0.8; stroke-linecap: square"/>
     </g>
     <g id="line2d_24">
      <g>
       <use xlink:href="#mf6595347e6" x="57.6" y="244.6848" style="stroke: #000000; stroke-width: 0.8"/>
      </g>
     </g>
     <g id="text_7">
      <!-- 0.2 -->
      <g transform="translate(25.155 250.76355)scale(0.16 -0.16)">
       <use xlink:href="#DejaVuSans-30"/>
       <use xlink:href="#DejaVuSans-2e" x="63.623047"/>
       <use xlink:href="#DejaVuSans-32" x="95.410156"/>
      </g>
     </g>
    </g>
    <g id="ytick_3">
     <g id="line2d_25">
      <path d="M 57.6 190.4256 
L 360.8064 190.4256 
" clip-path="url(#p1667df232f)" style="fill: none; stroke: #b0b0b0; stroke-width: 0.8; stroke-linecap: square"/>
     </g>
     <g id="line2d_26">
      <g>
       <use xlink:href="#mf6595347e6" x="57.6" y="190.4256" style="stroke: #000000; stroke-width: 0.8"/>
      </g>
     </g>
     <g id="text_8">
      <!-- 0.4 -->
      <g transform="translate(25.155 196.50435)scale(0.16 -0.16)">
       <use xlink:href="#DejaVuSans-30"/>
       <use xlink:href="#DejaVuSans-2e" x="63.623047"/>
       <use xlink:href="#DejaVuSans-34" x="95.410156"/>
      </g>
     </g>
    </g>
    <g id="ytick_4">
     <g id="line2d_27">
      <path d="M 57.6 136.1664 
L 360.8064 136.1664 
" clip-path="url(#p1667df232f)" style="fill: none; stroke: #b0b0b0; stroke-width: 0.8; stroke-linecap: square"/>
     </g>
     <g id="line2d_28">
      <g>
       <use xlink:href="#mf6595347e6" x="57.6" y="136.1664" style="stroke: #000000; stroke-width: 0.8"/>
      </g>
     </g>
     <g id="text_9">
      <!-- 0.6 -->
      <g transform="translate(25.155 142.24515)scale(0.16 -0.16)">
       <use xlink:href="#DejaVuSans-30"/>
       <use xlink:href="#DejaVuSans-2e" x="63.623047"/>
       <use xlink:href="#DejaVuSans-36" x="95.410156"/>
      </g>
     </g>
    </g>
    <g id="ytick_5">
     <g id="line2d_29">
      <path d="M 57.6 81.9072 
L 360.8064 81.9072 
" clip-path="url(#p1667df232f)" style="fill: none; stroke: #b0b0b0; stroke-width: 0.8; stroke-linecap: square"/>
     </g>
     <g id="line2d_30">
      <g>
       <use xlink:href="#mf6595347e6" x="57.6" y="81.9072" style="stroke: #000000; stroke-width: 0.8"/>
      </g>
     </g>
     <g id="text_10">
      <!-- 0.8 -->
      <g transform="translate(25.155 87.98595)scale(0.16 -0.16)">
       <defs>
        <path id="DejaVuSans-38" d="M 2034 2216 
Q 1584 2216 1326 1975 
Q 1069 1734 1069 1313 
Q 1069 891 1326 650 
Q 1584 409 2034 409 
Q 2484 409 2743 651 
Q 3003 894 3003 1313 
Q 3003 1734 2745 1975 
Q 2488 2216 2034 2216 
z
M 1403 2484 
Q 997 2584 770 2862 
Q 544 3141 544 3541 
Q 544 4100 942 4425 
Q 1341 4750 2034 4750 
Q 2731 4750 3128 4425 
Q 3525 4100 3525 3541 
Q 3525 3141 3298 2862 
Q 3072 2584 2669 2484 
Q 3125 2378 3379 2068 
Q 3634 1759 3634 1313 
Q 3634 634 3220 271 
Q 2806 -91 2034 -91 
Q 1263 -91 848 271 
Q 434 634 434 1313 
Q 434 1759 690 2068 
Q 947 2378 1403 2484 
z
M 1172 3481 
Q 1172 3119 1398 2916 
Q 1625 2713 2034 2713 
Q 2441 2713 2670 2916 
Q 2900 3119 2900 3481 
Q 2900 3844 2670 4047 
Q 2441 4250 2034 4250 
Q 1625 4250 1398 4047 
Q 1172 3844 1172 3481 
z
" transform="scale(0.015625)"/>
       </defs>
       <use xlink:href="#DejaVuSans-30"/>
       <use xlink:href="#DejaVuSans-2e" x="63.623047"/>
       <use xlink:href="#DejaVuSans-38" x="95.410156"/>
      </g>
     </g>
    </g>
    <g id="ytick_6">
     <g id="line2d_31">
      <path d="M 57.6 27.648 
L 360.8064 27.648 
" clip-path="url(#p1667df232f)" style="fill: none; stroke: #b0b0b0; stroke-width: 0.8; stroke-linecap: square"/>
     </g>
     <g id="line2d_32">
      <g>
       <use xlink:href="#mf6595347e6" x="57.6" y="27.648" style="stroke: #000000; stroke-width: 0.8"/>
      </g>
     </g>
     <g id="text_11">
      <!-- 1.0 -->
      <g transform="translate(25.155 33.72675)scale(0.16 -0.16)">
       <use xlink:href="#DejaVuSans-31"/>
       <use xlink:href="#DejaVuSans-2e" x="63.623047"/>
       <use xlink:href="#DejaVuSans-30" x="95.410156"/>
      </g>
     </g>
    </g>
    <g id="text_12">
     <!-- Fraction of function,target pairs -->
     <g transform="translate(17.619531 297.681)rotate(-90)scale(0.17 -0.17)">
      <defs>
       <path id="DejaVuSans-46" d="M 628 4666 
L 3309 4666 
L 3309 4134 
L 1259 4134 
L 1259 2759 
L 3109 2759 
L 3109 2228 
L 1259 2228 
L 1259 0 
L 628 0 
L 628 4666 
z
" transform="scale(0.015625)"/>
       <path id="DejaVuSans-72" d="M 2631 2963 
Q 2534 3019 2420 3045 
Q 2306 3072 2169 3072 
Q 1681 3072 1420 2755 
Q 1159 2438 1159 1844 
L 1159 0 
L 581 0 
L 581 3500 
L 1159 3500 
L 1159 2956 
Q 1341 3275 1631 3429 
Q 1922 3584 2338 3584 
Q 2397 3584 2469 3576 
Q 2541 3569 2628 3553 
L 2631 2963 
z
" transform="scale(0.015625)"/>
       <path id="DejaVuSans-63" d="M 3122 3366 
L 3122 2828 
Q 2878 2963 2633 3030 
Q 2388 3097 2138 3097 
Q 1578 3097 1268 2742 
Q 959 2388 959 1747 
Q 959 1106 1268 751 
Q 1578 397 2138 397 
Q 2388 397 2633 464 
Q 2878 531 3122 666 
L 3122 134 
Q 2881 22 2623 -34 
Q 2366 -91 2075 -91 
Q 1284 -91 818 406 
Q 353 903 353 1747 
Q 353 2603 823 3093 
Q 1294 3584 2113 3584 
Q 2378 3584 2631 3529 
Q 2884 3475 3122 3366 
z
" transform="scale(0.015625)"/>
       <path id="DejaVuSans-74" d="M 1172 4494 
L 1172 3500 
L 2356 3500 
L 2356 3053 
L 1172 3053 
L 1172 1153 
Q 1172 725 1289 603 
Q 1406 481 1766 481 
L 2356 481 
L 2356 0 
L 1766 0 
Q 1100 0 847 248 
Q 594 497 594 1153 
L 594 3053 
L 172 3053 
L 172 3500 
L 594 3500 
L 594 4494 
L 1172 4494 
z
" transform="scale(0.015625)"/>
       <path id="DejaVuSans-75" d="M 544 1381 
L 544 3500 
L 1119 3500 
L 1119 1403 
Q 1119 906 1312 657 
Q 1506 409 1894 409 
Q 2359 409 2629 706 
Q 2900 1003 2900 1516 
L 2900 3500 
L 3475 3500 
L 3475 0 
L 2900 0 
L 2900 538 
Q 2691 219 2414 64 
Q 2138 -91 1772 -91 
Q 1169 -91 856 284 
Q 544 659 544 1381 
z
M 1991 3584 
L 1991 3584 
z
" transform="scale(0.015625)"/>
       <path id="DejaVuSans-2c" d="M 750 794 
L 1409 794 
L 1409 256 
L 897 -744 
L 494 -744 
L 750 256 
L 750 794 
z
" transform="scale(0.015625)"/>
       <path id="DejaVuSans-70" d="M 1159 525 
L 1159 -1331 
L 581 -1331 
L 581 3500 
L 1159 3500 
L 1159 2969 
Q 1341 3281 1617 3432 
Q 1894 3584 2278 3584 
Q 2916 3584 3314 3078 
Q 3713 2572 3713 1747 
Q 3713 922 3314 415 
Q 2916 -91 2278 -91 
Q 1894 -91 1617 61 
Q 1341 213 1159 525 
z
M 3116 1747 
Q 3116 2381 2855 2742 
Q 2594 3103 2138 3103 
Q 1681 3103 1420 2742 
Q 1159 2381 1159 1747 
Q 1159 1113 1420 752 
Q 1681 391 2138 391 
Q 2594 391 2855 752 
Q 3116 1113 3116 1747 
z
" transform="scale(0.015625)"/>
      </defs>
      <use xlink:href="#DejaVuSans-46"/>
      <use xlink:href="#DejaVuSans-72" x="50.269531"/>
      <use xlink:href="#DejaVuSans-61" x="91.382812"/>
      <use xlink:href="#DejaVuSans-63" x="152.662109"/>
      <use xlink:href="#DejaVuSans-74" x="207.642578"/>
      <use xlink:href="#DejaVuSans-69" x="246.851562"/>
      <use xlink:href="#DejaVuSans-6f" x="274.634766"/>
      <use xlink:href="#DejaVuSans-6e" x="335.816406"/>
      <use xlink:href="#DejaVuSans-20" x="399.195312"/>
      <use xlink:href="#DejaVuSans-6f" x="430.982422"/>
      <use xlink:href="#DejaVuSans-66" x="492.164062"/>
      <use xlink:href="#DejaVuSans-20" x="527.369141"/>
      <use xlink:href="#DejaVuSans-66" x="559.15625"/>
      <use xlink:href="#DejaVuSans-75" x="594.361328"/>
      <use xlink:href="#DejaVuSans-6e" x="657.740234"/>
      <use xlink:href="#DejaVuSans-63" x="721.119141"/>
      <use xlink:href="#DejaVuSans-74" x="776.099609"/>
      <use xlink:href="#DejaVuSans-69" x="815.308594"/>
      <use xlink:href="#DejaVuSans-6f" x="843.091797"/>
      <use xlink:href="#DejaVuSans-6e" x="904.273438"/>
      <use xlink:href="#DejaVuSans-2c" x="967.652344"/>
      <use xlink:href="#DejaVuSans-74" x="999.439453"/>
      <use xlink:href="#DejaVuSans-61" x="1038.648438"/>
      <use xlink:href="#DejaVuSans-72" x="1099.927734"/>
      <use xlink:href="#DejaVuSans-67" x="1139.291016"/>
      <use xlink:href="#DejaVuSans-65" x="1202.767578"/>
      <use xlink:href="#DejaVuSans-74" x="1264.291016"/>
      <use xlink:href="#DejaVuSans-20" x="1303.5"/>
      <use xlink:href="#DejaVuSans-70" x="1335.287109"/>
      <use xlink:href="#DejaVuSans-61" x="1398.763672"/>
      <use xlink:href="#DejaVuSans-69" x="1460.042969"/>
      <use xlink:href="#DejaVuSans-72" x="1487.826172"/>
      <use xlink:href="#DejaVuSans-73" x="1528.939453"/>
     </g>
    </g>
   </g>
   <g id="line2d_33">
    <defs>
     <path id="m14fc6d934c" d="M 0 1.5 
C 0.397805 1.5 0.77937 1.341951 1.06066 1.06066 
C 1.341951 0.77937 1.5 0.397805 1.5 0 
C 1.5 -0.397805 1.341951 -0.77937 1.06066 -1.06066 
C 0.77937 -1.341951 0.397805 -1.5 0 -1.5 
C -0.397805 -1.5 -0.77937 -1.341951 -1.06066 -1.06066 
C -1.341951 -0.77937 -1.5 -0.397805 -1.5 0 
C -1.5 0.397805 -1.341951 0.77937 -1.06066 1.06066 
C -0.77937 1.341951 -0.397805 1.5 0 1.5 
z
" style="stroke: #f5deb3"/>
    </defs>
    <g>
     <use xlink:href="#m14fc6d934c" x="133.983236" y="27.648" style="fill: #f5deb3; stroke: #f5deb3"/>
     <use xlink:href="#m14fc6d934c" x="133.983236" y="27.648" style="fill: #f5deb3; stroke: #f5deb3"/>
    </g>
   </g>
   <g id="line2d_34">
    <defs>
     <path id="mc32956066b" d="M 0 1.5 
C 0.397805 1.5 0.77937 1.341951 1.06066 1.06066 
C 1.341951 0.77937 1.5 0.397805 1.5 0 
C 1.5 -0.397805 1.341951 -0.77937 1.06066 -1.06066 
C 0.77937 -1.341951 0.397805 -1.5 0 -1.5 
C -0.397805 -1.5 -0.77937 -1.341951 -1.06066 -1.06066 
C -1.341951 -0.77937 -1.5 -0.397805 -1.5 0 
C -1.5 0.397805 -1.341951 0.77937 -1.06066 1.06066 
C -0.77937 1.341951 -0.397805 1.5 0 1.5 
z
" style="stroke: #000080"/>
    </defs>
    <g>
     <use xlink:href="#mc32956066b" x="252.635359" y="27.648" style="fill: #000080; stroke: #000080"/>
     <use xlink:href="#mc32956066b" x="252.635359" y="27.648" style="fill: #000080; stroke: #000080"/>
    </g>
   </g>
   <g id="line2d_35">
    <path d="M 44.560826 298.944 
L 44.560826 295.043012 
L 70.639174 295.043012 
L 70.639174 291.496659 
L 74.836851 291.496659 
L 74.836851 288.659576 
L 78.266603 288.659576 
L 78.266603 287.950306 
L 83.678349 287.950306 
L 83.678349 287.595671 
L 85.894031 287.595671 
L 85.894031 283.694682 
L 87.876026 283.694682 
L 87.876026 281.212235 
L 94.205591 281.212235 
L 94.205591 280.8576 
L 96.717523 280.8576 
L 96.717523 276.601976 
L 99.950294 276.601976 
L 99.950294 275.538071 
L 100.9152 275.538071 
L 100.9152 274.119529 
L 103.544339 274.119529 
L 103.544339 271.637082 
L 105.850679 271.637082 
L 105.850679 263.125835 
L 109.756698 263.125835 
L 109.756698 262.7712 
L 111.97238 262.7712 
L 111.97238 262.061929 
L 114.418881 262.061929 
L 114.418881 261.707294 
L 117.772007 261.707294 
L 117.772007 259.934118 
L 118.152051 259.934118 
L 118.152051 258.515576 
L 119.24818 258.515576 
L 119.24818 258.160941 
L 121.892744 258.160941 
L 121.892744 256.387765 
L 122.499621 256.387765 
L 122.499621 255.678494 
L 126.274549 255.678494 
L 126.274549 255.323859 
L 128.999044 255.323859 
L 128.999044 254.614588 
L 129.417095 254.614588 
L 129.417095 253.905318 
L 129.622688 253.905318 
L 129.622688 253.196047 
L 130.811181 253.196047 
L 130.811181 251.777506 
L 131.191226 251.777506 
L 131.191226 250.7136 
L 133.154399 250.7136 
L 133.154399 249.295059 
L 134.14471 249.295059 
L 134.14471 247.521882 
L 135.388902 247.521882 
L 135.388902 246.457976 
L 137.787626 246.457976 
L 137.787626 246.103341 
L 138.050729 246.103341 
L 138.050729 245.394071 
L 139.313723 245.394071 
L 139.313723 245.039435 
L 141.173167 245.039435 
L 141.173167 244.330165 
L 141.50224 244.330165 
L 141.50224 242.911624 
L 141.825656 242.911624 
L 141.825656 242.202353 
L 144.786447 242.202353 
L 144.786447 241.138447 
L 145.237585 241.138447 
L 145.237585 240.429176 
L 145.678157 240.429176 
L 145.678157 239.010635 
L 145.851536 239.010635 
L 145.851536 238.656 
L 149.165879 238.656 
L 149.165879 238.301365 
L 151.731998 238.301365 
L 151.731998 237.592094 
L 152.352898 237.592094 
L 152.352898 237.237459 
L 154.322673 237.237459 
L 154.377597 235.109647 
L 154.918196 235.109647 
L 154.918196 234.755012 
L 156.937458 234.755012 
L 156.937458 232.6272 
L 157.269574 232.6272 
L 157.269574 232.272565 
L 160.933013 232.272565 
L 160.933013 231.917929 
L 161.542347 231.917929 
L 161.542347 230.854024 
L 161.876619 230.854024 
L 161.876619 229.080847 
L 162.023298 229.080847 
L 162.023298 228.016941 
L 162.31327 228.016941 
L 162.38507 226.5984 
L 163.464289 226.5984 
L 163.464289 225.179859 
L 164.194282 225.179859 
L 164.194282 224.825224 
L 164.548924 224.825224 
L 164.548924 223.761318 
L 164.771172 223.761318 
L 164.834193 220.924235 
L 164.990826 220.924235 
L 165.053116 218.796424 
L 165.146166 218.796424 
L 165.146166 218.441788 
L 165.269521 218.441788 
L 165.269521 217.732518 
L 165.392072 217.732518 
L 165.392072 217.023247 
L 166.052194 217.023247 
L 166.140442 215.604706 
L 166.315707 215.604706 
L 166.373767 213.122259 
L 166.489353 213.122259 
L 166.518139 211.349082 
L 166.689935 211.349082 
L 166.689935 208.157365 
L 166.8036 208.157365 
L 166.8036 207.093459 
L 166.916583 207.093459 
L 167.000877 203.901741 
L 167.306762 203.901741 
L 167.38933 202.4832 
L 167.553385 202.4832 
L 167.553385 201.773929 
L 167.850487 201.773929 
L 167.850487 197.872941 
L 168.248209 197.872941 
L 168.352863 196.809035 
L 168.404973 196.809035 
L 168.404973 196.4544 
L 168.765753 196.4544 
L 168.79126 195.035859 
L 169.269439 195.035859 
L 169.269439 194.681224 
L 169.832482 194.681224 
L 169.880655 192.198776 
L 170.214455 192.198776 
L 170.214455 189.716329 
L 172.440637 189.716329 
L 172.440637 189.361694 
L 172.814802 189.361694 
L 172.814802 186.169976 
L 172.958324 186.169976 
L 172.978738 184.751435 
L 173.12102 184.751435 
L 173.12102 183.687529 
L 173.242125 183.687529 
L 173.262233 180.850447 
L 174.487605 180.850447 
L 174.506426 180.141176 
L 174.712223 180.141176 
L 174.712223 179.077271 
L 175.244228 179.077271 
L 175.244228 178.722635 
L 176.604692 178.722635 
L 176.604692 178.368 
L 177.070019 178.368 
L 177.070019 177.658729 
L 179.714853 177.658729 
L 179.714853 176.240188 
L 180.822549 176.240188 
L 180.822549 175.885553 
L 181.208509 175.885553 
L 181.221678 174.821647 
L 181.470148 174.821647 
L 181.470148 174.467012 
L 182.931853 174.467012 
L 182.931853 174.112376 
L 184.388512 174.112376 
L 184.388512 173.757741 
L 184.554643 173.757741 
L 184.554643 173.403106 
L 185.406185 173.403106 
L 185.406185 173.048471 
L 185.79213 173.048471 
L 185.79213 172.693835 
L 190.571298 172.693835 
L 190.571298 171.984565 
L 191.006678 171.984565 
L 191.006678 170.920659 
L 192.459361 170.920659 
L 192.459361 169.502118 
L 193.009007 169.502118 
L 193.05117 168.438212 
L 194.287162 168.438212 
L 194.287162 168.083576 
L 194.600043 168.083576 
L 194.600043 167.019671 
L 199.624818 167.019671 
L 199.693978 164.891859 
L 199.757971 164.891859 
L 199.757971 163.118682 
L 200.040857 163.118682 
L 200.147055 162.409412 
L 200.4621 162.409412 
L 200.4621 162.054776 
L 201.07679 162.054776 
L 201.07679 161.700141 
L 201.632036 161.700141 
L 201.632036 160.636235 
L 202.804636 160.636235 
L 202.8922 159.926965 
L 203.201641 159.926965 
L 203.262923 157.444518 
L 203.397045 157.444518 
L 203.44962 155.316706 
L 203.908412 155.316706 
L 203.908412 154.962071 
L 204.947269 154.962071 
L 204.947269 154.607435 
L 205.294614 154.607435 
L 205.294614 154.2528 
L 206.375954 154.2528 
L 206.375954 152.834259 
L 206.745625 152.834259 
L 206.752403 152.124988 
L 207.210958 152.124988 
L 207.227484 151.415718 
L 208.461366 151.415718 
L 208.461366 150.706447 
L 208.64916 150.706447 
L 208.64916 150.351812 
L 210.14711 150.351812 
L 210.14711 149.997176 
L 211.07974 149.997176 
L 211.07974 149.642541 
L 213.130792 149.642541 
L 213.130792 148.933271 
L 213.961855 148.933271 
L 214.051714 148.224 
L 214.282449 148.224 
L 214.282449 146.096188 
L 216.464547 146.096188 
L 216.559336 145.386918 
L 217.314463 145.386918 
L 217.314463 145.032282 
L 218.450586 145.032282 
L 218.450586 144.677647 
L 218.983303 144.677647 
L 218.992143 143.968376 
L 220.040651 143.968376 
L 220.040651 143.613741 
L 220.383578 143.613741 
L 220.462212 139.712753 
L 222.534394 139.712753 
L 222.569504 138.648847 
L 223.024347 138.648847 
L 223.024347 138.294212 
L 225.626299 138.294212 
L 225.626299 136.1664 
L 226.272279 136.1664 
L 226.272279 135.811765 
L 227.440452 135.811765 
L 227.440452 135.102494 
L 229.038028 135.102494 
L 229.038028 134.747859 
L 234.127598 134.747859 
L 234.127598 134.393224 
L 236.767081 134.393224 
L 236.767081 134.038588 
L 236.951698 134.038588 
L 236.951698 133.683953 
L 237.790714 133.683953 
L 237.790714 133.329318 
L 239.216984 133.329318 
L 239.216984 132.974682 
L 239.343237 132.974682 
L 239.343237 132.620047 
L 240.128339 132.620047 
L 240.197749 131.201506 
L 241.248319 131.201506 
L 241.339607 128.364424 
L 241.847828 128.364424 
L 241.847828 128.009788 
L 245.36166 128.009788 
L 245.36166 127.655153 
L 245.511185 127.655153 
L 245.60248 126.945882 
L 245.644105 126.945882 
L 245.644105 126.591247 
L 245.897858 126.591247 
L 245.955707 125.527341 
L 246.010015 125.527341 
L 246.037741 123.399529 
L 246.146983 123.399529 
L 246.254349 122.335624 
L 246.380901 122.335624 
L 246.473414 118.434635 
L 246.502513 118.434635 
L 246.597284 114.179012 
L 246.64571 114.179012 
L 246.754317 108.150212 
L 246.882779 108.150212 
L 246.991226 104.603859 
L 246.995615 104.603859 
L 247.049791 102.121412 
L 247.125615 102.121412 
L 247.205868 98.575059 
L 247.283031 98.575059 
L 247.331294 94.319435 
L 247.468341 94.319435 
L 247.564574 92.191624 
L 247.590102 92.191624 
L 247.690329 89.354541 
L 247.702628 89.354541 
L 247.80952 84.035012 
L 247.814868 84.035012 
L 247.884251 79.070118 
L 247.97687 79.070118 
L 248.07544 75.523765 
L 248.097651 75.523765 
L 248.131857 73.395953 
L 248.270672 73.395953 
L 248.340997 67.721788 
L 248.527255 67.721788 
L 248.621161 65.239341 
L 248.671953 65.239341 
L 248.712779 62.402259 
L 248.813373 62.402259 
L 248.909108 60.274447 
L 248.930357 60.274447 
L 249.017261 55.664188 
L 249.075571 55.664188 
L 249.1337 51.7632 
L 249.398875 51.7632 
L 249.439206 50.699294 
L 249.680781 50.699294 
L 249.774965 49.635388 
L 249.802133 49.635388 
L 249.911436 47.152941 
L 249.92851 47.152941 
L 249.955798 45.379765 
L 250.105513 45.379765 
L 250.133895 43.251953 
L 250.510941 43.251953 
L 250.558865 39.350965 
L 250.680932 39.350965 
L 250.680932 38.641694 
L 251.042773 38.641694 
L 251.042773 37.932424 
L 251.177727 37.932424 
L 251.258682 34.740706 
L 251.333589 34.740706 
L 251.34499 34.031435 
L 251.645544 34.031435 
L 251.722032 33.322165 
L 251.762638 33.322165 
L 251.847285 31.903624 
L 251.897154 31.903624 
L 251.897154 31.548988 
L 252.099271 31.548988 
L 252.133304 29.066541 
L 252.469094 29.066541 
L 252.517938 28.002635 
L 252.635359 28.002635 
L 252.635359 27.648 
L 360.8064 27.648 
L 360.8064 27.648 
" style="fill: none; stroke: #000080; stroke-width: 1.5; stroke-linecap: square"/>
   </g>
   <g id="line2d_36">
    <defs>
     <path id="m2607fe8c99" d="M 0 6 
C 1.591219 6 3.117479 5.367802 4.242641 4.242641 
C 5.367802 3.117479 6 1.591219 6 0 
C 6 -1.591219 5.367802 -3.117479 4.242641 -4.242641 
C 3.117479 -5.367802 1.591219 -6 0 -6 
C -1.591219 -6 -3.117479 -5.367802 -4.242641 -4.242641 
C -5.367802 -3.117479 -6 -1.591219 -6 0 
C -6 1.591219 -5.367802 3.117479 -4.242641 4.242641 
C -3.117479 5.367802 -1.591219 6 0 6 
z
" style="stroke: #000080; stroke-width: 1.5"/>
    </defs>
    <g>
     <use xlink:href="#m2607fe8c99" x="114.418881" y="261.707294" style="fill-opacity: 0; stroke: #000080; stroke-width: 1.5"/>
     <use xlink:href="#m2607fe8c99" x="193.05117" y="168.792847" style="fill-opacity: 0; stroke: #000080; stroke-width: 1.5"/>
     <use xlink:href="#m2607fe8c99" x="248.712779" y="62.402259" style="fill-opacity: 0; stroke: #000080; stroke-width: 1.5"/>
     <use xlink:href="#m2607fe8c99" x="252.635359" y="28.002635" style="fill-opacity: 0; stroke: #000080; stroke-width: 1.5"/>
     <use xlink:href="#m2607fe8c99" x="252.635359" y="27.648" style="fill-opacity: 0; stroke: #000080; stroke-width: 1.5"/>
     <use xlink:href="#m2607fe8c99" x="360.8064" y="27.648" style="fill-opacity: 0; stroke: #000080; stroke-width: 1.5"/>
    </g>
   </g>
   <g id="line2d_37">
    <path style="fill: none; stroke: #000080; stroke-width: 1.5; stroke-linecap: square"/>
    <g/>
   </g>
   <g id="line2d_38">
    <defs>
     <path id="mab33f956f9" d="M 0 1.5 
C 0.397805 1.5 0.77937 1.341951 1.06066 1.06066 
C 1.341951 0.77937 1.5 0.397805 1.5 0 
C 1.5 -0.397805 1.341951 -0.77937 1.06066 -1.06066 
C 0.77937 -1.341951 0.397805 -1.5 0 -1.5 
C -0.397805 -1.5 -0.77937 -1.341951 -1.06066 -1.06066 
C -1.341951 -0.77937 -1.5 -0.397805 -1.5 0 
C -1.5 0.397805 -1.341951 0.77937 -1.06066 1.06066 
C -0.77937 1.341951 -0.397805 1.5 0 1.5 
z
" style="stroke: #ff00ff"/>
    </defs>
    <g>
     <use xlink:href="#mab33f956f9" x="335.617714" y="118.08" style="fill: #ff00ff; stroke: #ff00ff"/>
     <use xlink:href="#mab33f956f9" x="335.617714" y="118.08" style="fill: #ff00ff; stroke: #ff00ff"/>
    </g>
   </g>
   <g id="line2d_39">
    <path d="M 44.560826 298.944 
L 44.560826 293.979106 
L 65.227428 293.979106 
L 65.227428 293.624471 
L 70.639174 293.624471 
L 70.639174 290.787388 
L 74.836851 290.787388 
L 74.836851 289.723482 
L 78.266603 289.723482 
L 78.266603 287.241035 
L 81.166416 287.241035 
L 81.166416 281.566871 
L 83.678349 281.566871 
L 83.678349 280.8576 
L 85.894031 280.8576 
L 85.894031 280.502965 
L 87.876026 280.502965 
L 87.876026 280.148329 
L 89.668958 280.148329 
L 89.668958 279.084424 
L 91.305777 279.084424 
L 91.305777 277.311247 
L 95.503454 277.311247 
L 95.503454 275.892706 
L 98.933205 275.892706 
L 98.933205 275.538071 
L 105.112877 275.538071 
L 105.112877 272.700988 
L 105.850679 272.700988 
L 105.850679 270.927812 
L 106.560633 270.927812 
L 106.560633 268.090729 
L 107.904887 268.090729 
L 107.904887 266.672188 
L 112.989468 266.672188 
L 112.989468 262.7712 
L 114.418881 262.7712 
L 114.418881 260.998024 
L 123.936316 260.998024 
L 123.936316 259.579482 
L 125.011554 259.579482 
L 125.011554 259.224847 
L 125.271028 259.224847 
L 125.271028 257.806306 
L 125.526971 257.806306 
L 125.526971 257.097035 
L 126.274549 257.097035 
L 126.274549 256.033129 
L 128.354013 256.033129 
L 128.354013 254.614588 
L 128.999044 254.614588 
L 128.999044 254.259953 
L 130.618241 254.259953 
L 130.618241 253.550682 
L 132.638982 253.550682 
L 132.638982 252.486776 
L 134.14471 252.486776 
L 134.14471 250.358965 
L 137.113304 250.358965 
L 137.113304 249.649694 
L 137.250116 249.649694 
L 137.250116 249.295059 
L 137.787626 249.295059 
L 137.787626 248.940424 
L 139.435481 248.940424 
L 139.435481 247.167247 
L 139.676658 247.167247 
L 139.676658 245.394071 
L 139.796097 245.394071 
L 139.796097 245.039435 
L 146.362288 245.039435 
L 146.362288 244.6848 
L 148.048032 244.6848 
L 148.048032 243.975529 
L 150.559965 243.975529 
L 150.559965 242.556988 
L 153.071898 242.556988 
L 153.071898 242.202353 
L 154.595705 242.202353 
L 154.703817 240.783812 
L 154.918196 240.783812 
L 154.918196 239.010635 
L 155.598521 239.010635 
L 155.598521 237.946729 
L 155.85377 237.946729 
L 155.85377 237.237459 
L 157.871225 237.237459 
L 157.916719 235.464282 
L 160.061585 235.464282 
L 160.061585 235.109647 
L 162.845206 235.109647 
L 162.845206 234.755012 
L 166.888401 234.755012 
L 166.888401 232.6272 
L 167.607754 232.6272 
L 167.607754 230.854024 
L 171.091717 230.854024 
L 171.091717 230.499388 
L 175.495771 230.499388 
L 175.495771 229.790118 
L 176.738821 229.790118 
L 176.738821 228.371576 
L 178.719145 228.371576 
L 178.719145 226.953035 
L 180.179707 226.953035 
L 180.179707 226.243765 
L 183.418335 226.243765 
L 183.418335 225.179859 
L 184.488367 225.179859 
L 184.488367 224.115953 
L 184.860885 224.115953 
L 184.860885 223.406682 
L 185.395644 223.406682 
L 185.395644 223.052047 
L 189.432356 223.052047 
L 189.432356 222.342776 
L 189.869658 222.342776 
L 189.869658 221.988141 
L 190.507122 221.988141 
L 190.507122 220.924235 
L 191.355553 220.924235 
L 191.355553 220.5696 
L 191.713154 220.5696 
L 191.765837 218.441788 
L 192.415849 218.441788 
L 192.415849 216.668612 
L 193.072216 216.668612 
L 193.072216 214.895435 
L 193.225837 214.895435 
L 193.225837 214.186165 
L 193.440197 214.186165 
L 193.440197 213.122259 
L 193.679315 213.122259 
L 193.720003 210.639812 
L 193.935534 210.639812 
L 193.935534 208.512 
L 194.58711 208.512 
L 194.58711 208.157365 
L 194.939576 208.157365 
L 194.939576 207.448094 
L 195.066126 207.448094 
L 195.160483 206.738824 
L 196.168322 206.738824 
L 196.257322 205.674918 
L 196.753852 205.674918 
L 196.753852 205.320282 
L 197.051274 205.320282 
L 197.051274 204.611012 
L 198.908581 204.611012 
L 198.908581 203.547106 
L 201.795905 203.547106 
L 201.795905 202.128565 
L 202.279116 202.128565 
L 202.279116 201.064659 
L 203.67443 201.064659 
L 203.67443 200.355388 
L 204.838801 200.355388 
L 204.838801 198.936847 
L 205.857272 198.936847 
L 205.857272 198.227576 
L 206.317097 198.227576 
L 206.317097 197.872941 
L 207.181175 197.872941 
L 207.181175 196.099765 
L 207.401773 196.099765 
L 207.401773 195.745129 
L 209.323114 195.745129 
L 209.323114 193.971953 
L 209.662862 193.971953 
L 209.665764 192.553412 
L 210.450166 192.553412 
L 210.450166 192.198776 
L 210.624721 192.198776 
L 210.624721 191.134871 
L 212.037511 191.134871 
L 212.037511 190.780235 
L 212.382269 190.780235 
L 212.382269 189.716329 
L 212.63923 189.716329 
L 212.63923 189.007059 
L 214.815225 189.007059 
L 214.815225 188.652424 
L 215.180255 188.652424 
L 215.180255 187.943153 
L 216.082605 187.943153 
L 216.082605 187.588518 
L 216.547262 187.588518 
L 216.547262 185.106071 
L 216.919978 185.106071 
L 216.919978 182.978259 
L 217.647758 182.978259 
L 217.647758 178.013365 
L 219.708381 178.013365 
L 219.708381 176.240188 
L 221.218428 176.240188 
L 221.218428 175.176282 
L 221.549979 175.176282 
L 221.549979 174.821647 
L 223.685945 174.821647 
L 223.685945 171.629929 
L 224.750238 171.629929 
L 224.750238 171.275294 
L 224.87219 171.275294 
L 224.87219 170.211388 
L 225.075407 170.211388 
L 225.075407 167.374306 
L 225.496649 167.374306 
L 225.496649 166.3104 
L 226.003883 166.3104 
L 226.003883 165.601129 
L 226.464558 165.601129 
L 226.464558 164.182588 
L 226.696015 164.182588 
L 226.696015 163.827953 
L 228.375722 163.827953 
L 228.375722 163.473318 
L 228.827526 163.473318 
L 228.833813 162.764047 
L 231.020022 162.764047 
L 231.063806 158.863059 
L 232.070166 158.863059 
L 232.070166 157.444518 
L 232.978406 157.444518 
L 232.978406 157.089882 
L 233.508741 157.089882 
L 233.508741 156.380612 
L 274.727846 156.380612 
L 274.727846 156.025976 
L 275.146149 156.025976 
L 275.196375 151.770353 
L 275.298287 151.770353 
L 275.379985 150.351812 
L 275.527537 150.351812 
L 275.618966 146.096188 
L 275.647952 146.096188 
L 275.716887 145.386918 
L 275.900145 145.386918 
L 275.900145 145.032282 
L 276.089113 145.032282 
L 276.187243 142.549835 
L 287.763229 142.549835 
L 287.788929 140.422024 
L 288.006487 140.422024 
L 288.040005 139.358118 
L 288.251312 139.358118 
L 288.251312 136.521035 
L 295.247828 136.521035 
L 295.265095 135.457129 
L 295.379707 135.457129 
L 295.451783 132.974682 
L 295.577089 132.974682 
L 295.577089 131.910776 
L 300.600753 131.910776 
L 300.600753 131.201506 
L 300.741507 131.201506 
L 300.836176 130.492235 
L 304.752627 130.492235 
L 304.752627 129.428329 
L 304.865589 129.428329 
L 304.941658 128.009788 
L 304.993876 128.009788 
L 304.993876 127.655153 
L 311.029711 127.655153 
L 311.093215 126.945882 
L 311.165303 126.945882 
L 311.165303 126.236612 
L 313.525213 126.236612 
L 313.593885 125.527341 
L 313.644013 125.527341 
L 313.644013 124.463435 
L 315.728105 124.463435 
L 315.833814 121.980988 
L 317.795078 121.980988 
L 317.795078 121.626353 
L 319.484414 121.626353 
L 319.524954 120.917082 
L 321.161666 120.917082 
L 321.161666 120.562447 
L 325.296544 120.562447 
L 325.296544 119.853176 
L 326.566443 119.853176 
L 326.566443 119.498541 
L 327.699996 119.498541 
L 327.699996 119.143906 
L 328.769108 119.143906 
L 328.769108 118.789271 
L 329.780713 118.789271 
L 329.780713 118.434635 
L 335.617714 118.434635 
L 335.617714 118.08 
L 360.8064 118.08 
L 360.8064 118.08 
" style="fill: none; stroke: #ff00ff; stroke-width: 1.5; stroke-linecap: square"/>
   </g>
   <g id="line2d_40">
    <defs>
     <path id="m57a89b505a" d="M 0 8.485281 
L 5.091169 0 
L 0 -8.485281 
L -5.091169 0 
z
" style="stroke: #ff00ff; stroke-width: 1.5; stroke-linejoin: miter"/>
    </defs>
    <g>
     <use xlink:href="#m57a89b505a" x="132.638982" y="252.486776" style="fill-opacity: 0; stroke: #ff00ff; stroke-width: 1.5; stroke-linejoin: miter"/>
     <use xlink:href="#m57a89b505a" x="212.63923" y="189.716329" style="fill-opacity: 0; stroke: #ff00ff; stroke-width: 1.5; stroke-linejoin: miter"/>
     <use xlink:href="#m57a89b505a" x="233.508741" y="156.380612" style="fill-opacity: 0; stroke: #ff00ff; stroke-width: 1.5; stroke-linejoin: miter"/>
     <use xlink:href="#m57a89b505a" x="335.617714" y="118.08" style="fill-opacity: 0; stroke: #ff00ff; stroke-width: 1.5; stroke-linejoin: miter"/>
     <use xlink:href="#m57a89b505a" x="335.617714" y="118.08" style="fill-opacity: 0; stroke: #ff00ff; stroke-width: 1.5; stroke-linejoin: miter"/>
     <use xlink:href="#m57a89b505a" x="360.8064" y="118.08" style="fill-opacity: 0; stroke: #ff00ff; stroke-width: 1.5; stroke-linejoin: miter"/>
    </g>
   </g>
   <g id="line2d_41">
    <path style="fill: none; stroke: #ff00ff; stroke-width: 1.5; stroke-linecap: square"/>
    <g/>
   </g>
   <g id="line2d_42">
    <path d="M 274.292272 156.380612 
" clip-path="url(#p1667df232f)" style="fill: none; stroke: #ff00ff; stroke-width: 1.5; stroke-linecap: square"/>
    <defs>
     <path id="ma02e137547" d="M -12 12 
L 12 -12 
M -12 -12 
L 12 12 
" style="stroke: #ff00ff"/>
    </defs>
    <g clip-path="url(#p1667df232f)">
     <use xlink:href="#ma02e137547" x="274.292272" y="156.380612" style="fill: #ff00ff; stroke: #ff00ff"/>
    </g>
   </g>
   <g id="line2d_43">
    <defs>
     <path id="m1e63a8bdae" d="M 0 1.5 
C 0.397805 1.5 0.77937 1.341951 1.06066 1.06066 
C 1.341951 0.77937 1.5 0.397805 1.5 0 
C 1.5 -0.397805 1.341951 -0.77937 1.06066 -1.06066 
C 0.77937 -1.341951 0.397805 -1.5 0 -1.5 
C -0.397805 -1.5 -0.77937 -1.341951 -1.06066 -1.06066 
C -1.341951 -0.77937 -1.5 -0.397805 -1.5 0 
C -1.5 0.397805 -1.341951 0.77937 -1.06066 1.06066 
C -0.77937 1.341951 -0.397805 1.5 0 1.5 
z
" style="stroke: #ff7500"/>
    </defs>
    <g>
     <use xlink:href="#m1e63a8bdae" x="219.784799" y="27.648" style="fill: #ff7500; stroke: #ff7500"/>
     <use xlink:href="#m1e63a8bdae" x="219.784799" y="27.648" style="fill: #ff7500; stroke: #ff7500"/>
    </g>
   </g>
   <g id="line2d_44">
    <path d="M 44.560826 298.944 
L 44.560826 297.525459 
L 57.6 297.525459 
L 57.6 295.397647 
L 65.227428 295.397647 
L 65.227428 290.787388 
L 70.639174 290.787388 
L 70.639174 288.304941 
L 74.836851 288.304941 
L 74.836851 286.531765 
L 78.266603 286.531765 
L 78.266603 285.822494 
L 81.166416 285.822494 
L 81.166416 285.113224 
L 85.894031 285.113224 
L 85.894031 283.340047 
L 87.876026 283.340047 
L 87.876026 281.921506 
L 89.668958 281.921506 
L 89.668958 280.8576 
L 94.205591 280.8576 
L 94.205591 279.439059 
L 96.717523 279.439059 
L 96.717523 278.729788 
L 100.9152 278.729788 
L 100.9152 277.311247 
L 102.708132 277.311247 
L 102.708132 276.601976 
L 103.544339 276.601976 
L 103.544339 274.119529 
L 105.112877 274.119529 
L 105.112877 273.764894 
L 105.850679 273.764894 
L 105.850679 272.700988 
L 107.244765 272.700988 
L 107.244765 271.991718 
L 109.159456 271.991718 
L 109.159456 270.927812 
L 109.756698 270.927812 
L 109.756698 268.090729 
L 111.97238 268.090729 
L 111.97238 266.317553 
L 112.487797 266.317553 
L 112.487797 263.835106 
L 112.989468 263.835106 
L 112.989468 263.480471 
L 114.872193 263.480471 
L 114.872193 260.998024 
L 115.314838 260.998024 
L 115.314838 260.288753 
L 115.747307 260.288753 
L 115.747307 259.934118 
L 116.170056 259.934118 
L 116.170056 259.224847 
L 116.583514 259.224847 
L 116.583514 258.160941 
L 116.988079 258.160941 
L 116.988079 257.097035 
L 118.152051 257.097035 
L 118.152051 256.387765 
L 118.524569 256.387765 
L 118.524569 254.614588 
L 119.24818 254.614588 
L 119.24818 252.841412 
L 119.599808 252.841412 
L 119.599808 251.777506 
L 119.944983 251.777506 
L 119.944983 249.649694 
L 126.274549 249.649694 
L 126.274549 248.940424 
L 128.354013 248.940424 
L 128.354013 247.876518 
L 129.417095 247.876518 
L 129.417095 247.167247 
L 132.109044 247.167247 
L 132.109044 246.812612 
L 133.656071 246.812612 
L 133.656071 245.394071 
L 133.820365 245.394071 
L 133.820365 244.330165 
L 133.983236 244.330165 
L 133.983236 243.620894 
L 134.77709 243.620894 
L 134.77709 242.911624 
L 136.836659 242.911624 
L 136.836659 240.783812 
L 137.113304 240.783812 
L 137.113304 240.429176 
L 138.050729 240.429176 
L 138.050729 239.365271 
L 141.062184 239.365271 
L 141.062184 237.237459 
L 141.50224 237.237459 
L 141.50224 236.882824 
L 142.559347 236.882824 
L 142.559347 236.528188 
L 143.754133 236.528188 
L 143.754133 236.173553 
L 143.946089 236.173553 
L 143.946089 235.818918 
L 145.326529 235.818918 
L 145.326529 235.109647 
L 146.27812 235.109647 
L 146.27812 234.045741 
L 149.165879 234.045741 
L 149.165879 233.691106 
L 149.806031 233.691106 
L 149.806031 231.917929 
L 150.693856 231.917929 
L 150.693856 231.208659 
L 151.349377 231.208659 
L 151.349377 229.790118 
L 153.650761 229.790118 
L 153.650761 229.435482 
L 153.877408 229.435482 
L 153.877408 228.726212 
L 154.156931 228.726212 
L 154.156931 225.179859 
L 155.235253 225.179859 
L 155.235253 224.115953 
L 155.954908 224.115953 
L 155.954908 223.052047 
L 156.452597 223.052047 
L 156.452597 222.697412 
L 156.599372 222.697412 
L 156.696589 221.988141 
L 157.503261 221.988141 
L 157.503261 221.278871 
L 158.933807 221.278871 
L 158.933807 220.5696 
L 159.775628 220.5696 
L 159.775628 220.214965 
L 159.939564 220.214965 
L 159.939564 219.860329 
L 160.383158 219.860329 
L 160.383158 218.441788 
L 160.894266 218.441788 
L 160.97168 216.313976 
L 161.728786 216.313976 
L 161.728786 215.604706 
L 162.096211 215.604706 
L 162.096211 215.250071 
L 162.527853 215.250071 
L 162.527853 214.895435 
L 162.66956 214.895435 
L 162.66956 213.476894 
L 163.666204 213.476894 
L 163.666204 212.767624 
L 164.063646 212.767624 
L 164.063646 212.058353 
L 164.388551 212.058353 
L 164.452864 210.994447 
L 164.548924 210.994447 
L 164.548924 209.221271 
L 166.746854 209.221271 
L 166.746854 207.802729 
L 166.944723 207.802729 
L 166.944723 206.738824 
L 167.904005 206.738824 
L 168.010586 205.674918 
L 168.116567 205.674918 
L 168.116567 204.611012 
L 169.194741 204.611012 
L 169.194741 204.256376 
L 169.808349 204.256376 
L 169.808349 203.547106 
L 170.143423 203.547106 
L 170.143423 202.4832 
L 170.864796 202.4832 
L 170.864796 202.128565 
L 171.647326 202.128565 
L 171.647326 201.773929 
L 171.800001 201.773929 
L 171.800001 201.419294 
L 172.91743 201.419294 
L 172.91743 201.064659 
L 173.039848 201.064659 
L 173.039848 198.936847 
L 173.422332 198.936847 
L 173.422332 197.872941 
L 173.952824 197.872941 
L 173.952824 197.163671 
L 174.145567 197.163671 
L 174.145567 196.099765 
L 175.171736 196.099765 
L 175.171736 195.035859 
L 175.708734 195.035859 
L 175.708734 194.681224 
L 176.722107 194.681224 
L 176.722107 193.971953 
L 177.572122 193.971953 
L 177.572122 193.617318 
L 177.794559 193.617318 
L 177.794559 193.262682 
L 178.076737 193.262682 
L 178.076737 192.908047 
L 178.385383 192.908047 
L 178.385383 191.134871 
L 178.794182 191.134871 
L 178.794182 190.070965 
L 179.150247 190.070965 
L 179.150247 189.716329 
L 179.743355 189.716329 
L 179.743355 189.007059 
L 180.137919 189.007059 
L 180.179707 185.460706 
L 180.44223 185.460706 
L 180.44223 185.106071 
L 180.606166 185.106071 
L 180.606166 184.751435 
L 181.168947 184.751435 
L 181.168947 184.042165 
L 181.638283 184.042165 
L 181.728198 181.559718 
L 181.894052 181.559718 
L 181.894052 180.495812 
L 182.171439 180.495812 
L 182.246386 178.013365 
L 182.358249 178.013365 
L 182.358249 176.240188 
L 182.494073 176.240188 
L 182.494073 174.821647 
L 182.823359 174.821647 
L 182.823359 174.467012 
L 183.418335 174.467012 
L 183.418335 174.112376 
L 184.243334 174.112376 
L 184.243334 173.403106 
L 185.33227 173.403106 
L 185.33227 171.984565 
L 185.91562 171.984565 
L 185.997499 169.856753 
L 186.139934 169.856753 
L 186.139934 167.728941 
L 186.251096 167.728941 
L 186.251096 167.374306 
L 186.461507 167.374306 
L 186.461507 166.665035 
L 186.649872 166.665035 
L 186.649872 166.3104 
L 186.962916 166.3104 
L 186.962916 164.537224 
L 187.526779 164.537224 
L 187.526779 163.827953 
L 188.427553 163.827953 
L 188.427553 163.473318 
L 189.227044 163.473318 
L 189.321423 162.054776 
L 190.100984 162.054776 
L 190.100984 160.990871 
L 190.627272 160.990871 
L 190.627272 160.636235 
L 190.817932 160.636235 
L 190.888934 157.444518 
L 191.592179 157.444518 
L 191.599763 156.380612 
L 192.086263 156.380612 
L 192.108416 155.316706 
L 192.589295 155.316706 
L 192.589295 154.2528 
L 192.896109 154.2528 
L 192.994932 152.479624 
L 193.364413 152.479624 
L 193.364413 152.124988 
L 193.638539 152.124988 
L 193.638539 151.770353 
L 193.834811 151.770353 
L 193.908727 150.706447 
L 194.489825 150.706447 
L 194.489825 148.578635 
L 194.696761 148.578635 
L 194.741726 147.160094 
L 195.160483 147.160094 
L 195.160483 144.677647 
L 195.514783 144.677647 
L 195.514783 140.067388 
L 196.025041 140.067388 
L 196.025041 139.358118 
L 196.298711 139.358118 
L 196.392976 138.648847 
L 196.707674 138.648847 
L 196.707674 138.294212 
L 196.891708 138.294212 
L 196.891708 137.584941 
L 197.119247 137.584941 
L 197.119247 136.521035 
L 197.344067 136.521035 
L 197.422123 135.811765 
L 197.648871 135.811765 
L 197.676337 135.102494 
L 197.965039 135.102494 
L 197.965039 134.038588 
L 198.190716 134.038588 
L 198.190716 132.974682 
L 198.44009 132.974682 
L 198.44009 132.620047 
L 199.016237 132.620047 
L 199.026458 131.556141 
L 199.219607 131.556141 
L 199.219607 130.846871 
L 199.415798 130.846871 
L 199.415798 130.1376 
L 199.674244 130.1376 
L 199.674244 129.782965 
L 199.836435 129.782965 
L 199.929187 125.172706 
L 200.011789 125.172706 
L 200.045697 124.463435 
L 200.175915 124.463435 
L 200.252658 121.980988 
L 200.31001 121.980988 
L 200.31001 120.917082 
L 200.837031 120.917082 
L 200.837031 120.207812 
L 201.18187 120.207812 
L 201.18187 119.853176 
L 201.578582 119.853176 
L 201.578582 119.498541 
L 201.857539 119.498541 
L 201.949613 118.434635 
L 202.05864 118.434635 
L 202.05864 117.016094 
L 202.180005 117.016094 
L 202.257615 114.888282 
L 202.360598 114.888282 
L 202.364876 112.760471 
L 202.888039 112.760471 
L 202.929603 112.0512 
L 203.144264 112.0512 
L 203.144264 111.341929 
L 203.311806 111.341929 
L 203.311806 110.278024 
L 203.690385 110.278024 
L 203.730215 109.214118 
L 203.912353 109.214118 
L 203.912353 108.859482 
L 204.077127 108.859482 
L 204.158976 107.086306 
L 204.224974 107.086306 
L 204.3139 105.667765 
L 204.348583 105.667765 
L 204.379358 104.958494 
L 204.505778 104.958494 
L 204.589588 102.476047 
L 204.67681 102.476047 
L 204.729705 100.348235 
L 204.965907 100.348235 
L 205.040276 98.575059 
L 205.09956 98.575059 
L 205.09956 98.220424 
L 205.563615 98.220424 
L 205.664404 97.511153 
L 205.857272 97.511153 
L 205.938822 95.028706 
L 206.051699 95.028706 
L 206.146414 93.255529 
L 206.191849 93.255529 
L 206.191849 92.191624 
L 206.517149 92.191624 
L 206.527439 91.482353 
L 206.643665 91.482353 
L 206.653886 90.773082 
L 206.789637 90.773082 
L 206.863884 90.063812 
L 206.944548 90.063812 
L 206.998133 88.645271 
L 207.0649 88.645271 
L 207.0649 88.290635 
L 207.207651 88.290635 
L 207.276975 87.581365 
L 207.470387 87.581365 
L 207.577705 85.808188 
L 207.784108 85.808188 
L 207.832158 81.197929 
L 208.526228 81.197929 
L 208.541638 79.779388 
L 208.66447 79.779388 
L 208.749977 77.296941 
L 208.792585 77.296941 
L 208.792585 76.587671 
L 208.943975 76.587671 
L 208.943975 76.233035 
L 209.275767 76.233035 
L 209.275767 75.8784 
L 209.438026 75.8784 
L 209.4439 75.169129 
L 209.601809 75.169129 
L 209.697661 73.041318 
L 209.833339 73.041318 
L 209.833339 72.686682 
L 210.254298 72.686682 
L 210.254298 72.332047 
L 210.380447 72.332047 
L 210.430671 69.140329 
L 210.525174 69.140329 
L 210.555647 66.657882 
L 210.731972 66.657882 
L 210.822248 64.530071 
L 210.849519 64.530071 
L 210.920239 61.692988 
L 211.146919 61.692988 
L 211.256577 58.146635 
L 211.518754 58.146635 
L 211.560785 57.082729 
L 211.644567 57.082729 
L 211.717571 56.373459 
L 211.922032 56.373459 
L 211.922032 55.664188 
L 212.1472 55.664188 
L 212.218283 54.954918 
L 212.349586 54.954918 
L 212.349586 54.600282 
L 212.51493 54.600282 
L 212.51493 53.536376 
L 212.809427 53.536376 
L 212.809427 52.117835 
L 213.246304 52.117835 
L 213.246304 51.7632 
L 213.399225 51.7632 
L 213.399225 51.053929 
L 213.790165 51.053929 
L 213.790165 49.990024 
L 213.971091 49.990024 
L 213.971091 49.280753 
L 214.170862 49.280753 
L 214.170862 48.926118 
L 214.366273 48.926118 
L 214.442972 47.507576 
L 214.664537 47.507576 
L 214.664537 46.798306 
L 214.79756 46.798306 
L 214.890119 44.670494 
L 214.990974 44.670494 
L 215.07606 43.961224 
L 215.119544 43.961224 
L 215.119544 43.606588 
L 215.322588 43.606588 
L 215.322588 43.251953 
L 215.483033 43.251953 
L 215.483033 42.897318 
L 215.637896 42.897318 
L 215.637896 42.542682 
L 215.751638 42.542682 
L 215.82081 41.124141 
L 216.152628 41.124141 
L 216.216247 38.996329 
L 216.426092 38.996329 
L 216.502924 38.287059 
L 216.545249 38.287059 
L 216.61558 36.868518 
L 216.687648 36.868518 
L 216.777345 36.159247 
L 217.000718 36.159247 
L 217.000718 35.804612 
L 217.320259 35.804612 
L 217.320259 35.449976 
L 217.556403 35.449976 
L 217.594522 33.6768 
L 217.829149 33.6768 
L 217.911705 32.258259 
L 217.984578 32.258259 
L 217.984578 31.903624 
L 218.615418 31.903624 
L 218.615418 30.839718 
L 218.884005 30.839718 
L 218.884005 30.130447 
L 219.025699 30.130447 
L 219.025699 29.421176 
L 219.150565 29.421176 
L 219.150565 29.066541 
L 219.575184 29.066541 
L 219.575184 28.357271 
L 219.711784 28.357271 
L 219.784799 27.648 
L 360.8064 27.648 
L 360.8064 27.648 
" style="fill: none; stroke: #ff7500; stroke-width: 1.5; stroke-linecap: square"/>
   </g>
   <g id="line2d_45">
    <defs>
     <path id="m7f61a6dcbf" d="M 0 -6 
L -1.347084 -1.854102 
L -5.706339 -1.854102 
L -2.179628 0.708204 
L -3.526712 4.854102 
L -0 2.291796 
L 3.526712 4.854102 
L 2.179628 0.708204 
L 5.706339 -1.854102 
L 1.347084 -1.854102 
z
" style="stroke: #ff7500; stroke-width: 1.5; stroke-linejoin: bevel"/>
    </defs>
    <g>
     <use xlink:href="#m7f61a6dcbf" x="126.274549" y="249.649694" style="fill-opacity: 0; stroke: #ff7500; stroke-width: 1.5; stroke-linejoin: bevel"/>
     <use xlink:href="#m7f61a6dcbf" x="195.514783" y="144.677647" style="fill-opacity: 0; stroke: #ff7500; stroke-width: 1.5; stroke-linejoin: bevel"/>
     <use xlink:href="#m7f61a6dcbf" x="219.784799" y="28.002635" style="fill-opacity: 0; stroke: #ff7500; stroke-width: 1.5; stroke-linejoin: bevel"/>
     <use xlink:href="#m7f61a6dcbf" x="219.784799" y="27.648" style="fill-opacity: 0; stroke: #ff7500; stroke-width: 1.5; stroke-linejoin: bevel"/>
     <use xlink:href="#m7f61a6dcbf" x="219.784799" y="27.648" style="fill-opacity: 0; stroke: #ff7500; stroke-width: 1.5; stroke-linejoin: bevel"/>
     <use xlink:href="#m7f61a6dcbf" x="360.8064" y="27.648" style="fill-opacity: 0; stroke: #ff7500; stroke-width: 1.5; stroke-linejoin: bevel"/>
    </g>
   </g>
   <g id="line2d_46">
    <path style="fill: none; stroke: #ff7500; stroke-width: 1.5; stroke-linecap: square"/>
    <g/>
   </g>
   <g id="line2d_47">
    <defs>
     <path id="m9a5510a32f" d="M 0 1.5 
C 0.397805 1.5 0.77937 1.341951 1.06066 1.06066 
C 1.341951 0.77937 1.5 0.397805 1.5 0 
C 1.5 -0.397805 1.341951 -0.77937 1.06066 -1.06066 
C 0.77937 -1.341951 0.397805 -1.5 0 -1.5 
C -0.397805 -1.5 -0.77937 -1.341951 -1.06066 -1.06066 
C -1.341951 -0.77937 -1.5 -0.397805 -1.5 0 
C -1.5 0.397805 -1.341951 0.77937 -1.06066 1.06066 
C -0.77937 1.341951 -0.397805 1.5 0 1.5 
z
" style="stroke: #6495ed"/>
    </defs>
    <g>
     <use xlink:href="#m9a5510a32f" x="242.579255" y="27.648" style="fill: #6495ed; stroke: #6495ed"/>
     <use xlink:href="#m9a5510a32f" x="242.579255" y="27.648" style="fill: #6495ed; stroke: #6495ed"/>
    </g>
   </g>
   <g id="line2d_48">
    <path d="M 44.560826 298.944 
L 44.560826 297.525459 
L 127.686077 297.525459 
L 127.686077 293.269835 
L 128.354013 293.269835 
L 128.354013 289.014212 
L 129.209231 289.014212 
L 129.209231 287.241035 
L 129.417095 287.241035 
L 129.417095 284.049318 
L 130.027253 284.049318 
L 130.027253 274.8288 
L 130.811181 274.8288 
L 130.811181 271.637082 
L 131.191226 271.637082 
L 131.191226 263.125835 
L 143.364242 263.125835 
L 143.364242 259.579482 
L 143.754133 259.579482 
L 143.754133 254.614588 
L 144.041338 254.614588 
L 144.041338 246.812612 
L 144.2304 246.812612 
L 144.2304 238.656 
L 151.284843 238.656 
L 151.284843 237.592094 
L 151.477784 237.592094 
L 151.477784 236.882824 
L 151.60532 236.882824 
L 151.60532 236.528188 
L 151.731998 236.528188 
L 151.731998 236.173553 
L 160.4627 236.173553 
L 160.4627 235.818918 
L 162.456597 235.818918 
L 162.456597 234.755012 
L 163.498092 234.755012 
L 163.498092 233.336471 
L 164.771172 233.336471 
L 164.771172 230.144753 
L 166.8036 230.144753 
L 166.8036 229.790118 
L 167.498859 229.790118 
L 167.498859 229.435482 
L 167.689013 229.435482 
L 167.689013 228.726212 
L 172.293095 228.726212 
L 172.293095 227.662306 
L 172.876446 227.662306 
L 172.876446 226.953035 
L 174.049442 226.953035 
L 174.049442 226.243765 
L 174.878944 226.243765 
L 174.878944 224.825224 
L 177.54013 224.825224 
L 177.54013 224.470588 
L 179.017511 224.470588 
L 179.06186 222.697412 
L 185.087338 222.697412 
L 185.087338 221.633506 
L 185.236806 221.633506 
L 185.236806 220.5696 
L 186.200649 220.5696 
L 186.200649 220.214965 
L 187.385018 220.214965 
L 187.385018 219.860329 
L 189.584883 219.860329 
L 189.584883 218.441788 
L 190.288897 218.441788 
L 190.288897 218.087153 
L 198.99066 218.087153 
L 198.99066 217.377882 
L 202.653572 217.377882 
L 202.653572 217.023247 
L 203.070235 217.023247 
L 203.070235 215.250071 
L 203.750098 215.250071 
L 203.837336 214.5408 
L 203.971367 214.5408 
L 203.971367 214.186165 
L 204.367823 214.186165 
L 204.367823 213.122259 
L 204.691938 213.122259 
L 204.691938 212.767624 
L 205.032852 212.767624 
L 205.032852 211.703718 
L 205.166032 211.703718 
L 205.166032 210.639812 
L 206.575383 210.639812 
L 206.575383 209.930541 
L 206.91434 209.930541 
L 206.924414 208.866635 
L 207.084884 208.866635 
L 207.167922 202.4832 
L 207.584189 202.4832 
L 207.584189 201.419294 
L 207.975576 201.419294 
L 207.975576 201.064659 
L 208.290421 201.064659 
L 208.290421 200.710024 
L 208.722535 200.710024 
L 208.722535 200.355388 
L 209.379185 200.355388 
L 209.385077 197.163671 
L 209.790143 197.163671 
L 209.870695 195.745129 
L 210.243044 195.745129 
L 210.243044 195.390494 
L 210.541801 195.390494 
L 210.541801 194.681224 
L 210.868585 194.681224 
L 210.868585 193.262682 
L 211.017722 193.262682 
L 211.047409 191.134871 
L 211.179081 191.134871 
L 211.179081 189.716329 
L 211.315155 189.716329 
L 211.35499 187.588518 
L 211.518754 187.588518 
L 211.518754 187.233882 
L 211.816197 187.233882 
L 211.901428 186.524612 
L 212.326926 186.524612 
L 212.434945 181.914353 
L 212.904949 181.914353 
L 212.965926 180.141176 
L 213.275071 180.141176 
L 213.303795 178.722635 
L 213.631002 178.722635 
L 213.631002 178.368 
L 214.14572 178.368 
L 214.14572 178.013365 
L 214.463222 178.013365 
L 214.541768 175.176282 
L 214.744464 175.176282 
L 214.77103 173.403106 
L 214.949382 173.403106 
L 214.964716 172.3392 
L 215.067351 172.3392 
L 215.171594 171.629929 
L 215.18242 171.629929 
L 215.18242 171.275294 
L 215.382647 171.275294 
L 215.382647 170.566024 
L 215.559563 170.566024 
L 215.559563 169.502118 
L 215.741135 169.502118 
L 215.82081 168.083576 
L 215.860521 168.083576 
L 215.891813 166.665035 
L 215.997817 166.665035 
L 215.997817 164.891859 
L 216.273524 164.891859 
L 216.361148 163.827953 
L 216.385528 163.827953 
L 216.462525 162.409412 
L 216.506959 162.409412 
L 216.587479 160.636235 
L 216.625606 160.636235 
L 216.625606 159.217694 
L 216.75944 159.217694 
L 216.838889 158.153788 
L 216.931815 158.153788 
L 217.006613 155.671341 
L 217.153372 155.671341 
L 217.217586 154.962071 
L 217.297062 154.962071 
L 217.355003 153.543529 
L 217.410843 153.543529 
L 217.489509 148.224 
L 217.543043 148.224 
L 217.56594 144.323012 
L 217.680007 144.323012 
L 217.680007 143.259106 
L 217.821626 143.259106 
L 217.892974 141.840565 
L 218.110968 141.840565 
L 218.199676 141.131294 
L 218.377672 141.131294 
L 218.423276 139.003482 
L 218.628037 139.003482 
L 218.710757 135.811765 
L 218.739444 135.811765 
L 218.739444 135.457129 
L 218.923077 135.457129 
L 218.923077 134.747859 
L 219.06976 134.747859 
L 219.07856 134.038588 
L 219.312877 134.038588 
L 219.415128 130.846871 
L 221.019512 130.846871 
L 221.019512 129.428329 
L 221.174406 129.428329 
L 221.229417 127.300518 
L 221.540719 127.300518 
L 221.540719 125.172706 
L 221.793721 125.172706 
L 221.872755 124.463435 
L 222.13333 124.463435 
L 222.13333 123.399529 
L 222.304569 123.399529 
L 222.304569 122.690259 
L 222.469855 122.690259 
L 222.480138 119.853176 
L 222.878265 119.853176 
L 222.98007 117.016094 
L 223.258281 117.016094 
L 223.258281 116.306824 
L 223.401452 116.306824 
L 223.401452 115.952188 
L 223.619717 115.952188 
L 223.676301 111.696565 
L 223.743704 111.696565 
L 223.743704 110.987294 
L 223.858693 110.987294 
L 223.868244 109.214118 
L 224.090628 109.214118 
L 224.090628 108.859482 
L 224.241003 108.859482 
L 224.27307 106.377035 
L 224.355659 106.377035 
L 224.431269 101.057506 
L 224.550037 101.057506 
L 224.59996 98.929694 
L 224.681129 98.929694 
L 224.750238 97.156518 
L 224.824282 97.156518 
L 224.824282 96.092612 
L 225.072848 96.092612 
L 225.117575 93.9648 
L 225.449054 93.9648 
L 225.517903 91.836988 
L 225.637476 91.836988 
L 225.642442 90.418447 
L 226.011187 90.418447 
L 226.011187 88.290635 
L 229.44601 88.290635 
L 229.44601 87.936 
L 229.647733 87.936 
L 229.647733 87.226729 
L 229.851287 87.226729 
L 229.902823 84.389647 
L 230.044805 84.389647 
L 230.044805 84.035012 
L 230.383568 84.035012 
L 230.437516 82.616471 
L 230.533469 82.616471 
L 230.605114 80.134024 
L 230.647019 80.134024 
L 230.679337 79.424753 
L 230.792956 79.424753 
L 230.877723 77.651576 
L 231.054499 77.651576 
L 231.054499 77.296941 
L 231.324389 77.296941 
L 231.341817 76.233035 
L 231.514305 76.233035 
L 231.605836 74.105224 
L 231.696025 74.105224 
L 231.696025 73.395953 
L 231.863527 73.395953 
L 231.875116 71.268141 
L 232.061344 71.268141 
L 232.07193 69.140329 
L 232.228262 69.140329 
L 232.228262 67.367153 
L 232.497462 67.367153 
L 232.545684 66.303247 
L 232.652877 66.303247 
L 232.652877 65.593976 
L 232.973363 65.593976 
L 232.973363 65.239341 
L 233.221398 65.239341 
L 233.32482 59.919812 
L 233.432599 59.919812 
L 233.471118 58.855906 
L 233.570737 58.855906 
L 233.659296 57.792 
L 233.724838 57.792 
L 233.819911 54.245647 
L 233.885697 54.245647 
L 233.916905 50.699294 
L 234.191531 50.699294 
L 234.296821 47.507576 
L 234.348465 47.507576 
L 234.350809 46.798306 
L 234.487043 46.798306 
L 234.597638 43.251953 
L 234.600722 43.251953 
L 234.692248 41.478776 
L 234.746644 41.478776 
L 234.746644 41.124141 
L 234.914963 41.124141 
L 235.00573 38.641694 
L 235.125327 38.641694 
L 235.154546 37.223153 
L 235.26353 37.223153 
L 235.26353 36.513882 
L 235.487713 36.513882 
L 235.487713 35.449976 
L 235.744113 35.449976 
L 235.744113 35.095341 
L 236.075644 35.095341 
L 236.160283 34.386071 
L 236.641606 34.386071 
L 236.696174 33.6768 
L 236.779446 33.6768 
L 236.787684 31.903624 
L 236.940127 31.903624 
L 236.940127 31.548988 
L 237.373555 31.548988 
L 237.461836 29.775812 
L 238.013247 29.775812 
L 238.013247 29.421176 
L 241.001415 29.421176 
L 241.056198 28.002635 
L 242.579255 28.002635 
L 242.579255 27.648 
L 360.8064 27.648 
L 360.8064 27.648 
" style="fill: none; stroke: #6495ed; stroke-width: 1.5; stroke-linecap: square"/>
   </g>
   <g id="line2d_49">
    <defs>
     <path id="m85de6afb76" d="M -0 6 
L 6 -6 
L -6 -6 
z
" style="stroke: #6495ed; stroke-width: 1.5; stroke-linejoin: miter"/>
    </defs>
    <g>
     <use xlink:href="#m85de6afb76" x="151.477784" y="236.882824" style="fill-opacity: 0; stroke: #6495ed; stroke-width: 1.5; stroke-linejoin: miter"/>
     <use xlink:href="#m85de6afb76" x="222.304569" y="123.399529" style="fill-opacity: 0; stroke: #6495ed; stroke-width: 1.5; stroke-linejoin: miter"/>
     <use xlink:href="#m85de6afb76" x="242.579255" y="28.002635" style="fill-opacity: 0; stroke: #6495ed; stroke-width: 1.5; stroke-linejoin: miter"/>
     <use xlink:href="#m85de6afb76" x="242.579255" y="27.648" style="fill-opacity: 0; stroke: #6495ed; stroke-width: 1.5; stroke-linejoin: miter"/>
     <use xlink:href="#m85de6afb76" x="242.579255" y="27.648" style="fill-opacity: 0; stroke: #6495ed; stroke-width: 1.5; stroke-linejoin: miter"/>
     <use xlink:href="#m85de6afb76" x="360.8064" y="27.648" style="fill-opacity: 0; stroke: #6495ed; stroke-width: 1.5; stroke-linejoin: miter"/>
    </g>
   </g>
   <g id="line2d_50">
    <path style="fill: none; stroke: #6495ed; stroke-width: 1.5; stroke-linecap: square"/>
    <g/>
   </g>
   <g id="line2d_51">
    <path d="M 360.8064 118.08 
L 380.514816 293.51808 
" style="fill: none; stroke: #ff00ff; stroke-width: 1.5; stroke-linecap: square"/>
    <g>
     <use xlink:href="#m57a89b505a" x="360.8064" y="118.08" style="fill-opacity: 0; stroke: #ff00ff; stroke-width: 1.5; stroke-linejoin: miter"/>
     <use xlink:href="#m57a89b505a" x="380.514816" y="293.51808" style="fill-opacity: 0; stroke: #ff00ff; stroke-width: 1.5; stroke-linejoin: miter"/>
    </g>
   </g>
   <g id="line2d_52">
    <path d="M 360.8064 27.648 
L 380.514816 228.40704 
" style="fill: none; stroke: #000080; stroke-width: 1.5; stroke-linecap: square"/>
    <g>
     <use xlink:href="#m2607fe8c99" x="360.8064" y="27.648" style="fill-opacity: 0; stroke: #000080; stroke-width: 1.5"/>
     <use xlink:href="#m2607fe8c99" x="380.514816" y="228.40704" style="fill-opacity: 0; stroke: #000080; stroke-width: 1.5"/>
    </g>
   </g>
   <g id="line2d_53">
    <path d="M 360.8064 27.648 
L 380.514816 163.296 
" style="fill: none; stroke: #6495ed; stroke-width: 1.5; stroke-linecap: square"/>
    <g>
     <use xlink:href="#m85de6afb76" x="360.8064" y="27.648" style="fill-opacity: 0; stroke: #6495ed; stroke-width: 1.5; stroke-linejoin: miter"/>
     <use xlink:href="#m85de6afb76" x="380.514816" y="163.296" style="fill-opacity: 0; stroke: #6495ed; stroke-width: 1.5; stroke-linejoin: miter"/>
    </g>
   </g>
   <g id="line2d_54">
    <path d="M 360.8064 27.648 
L 380.514816 98.18496 
" style="fill: none; stroke: #ff7500; stroke-width: 1.5; stroke-linecap: square"/>
    <g>
     <use xlink:href="#m7f61a6dcbf" x="360.8064" y="27.648" style="fill-opacity: 0; stroke: #ff7500; stroke-width: 1.5; stroke-linejoin: bevel"/>
     <use xlink:href="#m7f61a6dcbf" x="380.514816" y="98.18496" style="fill-opacity: 0; stroke: #ff7500; stroke-width: 1.5; stroke-linejoin: bevel"/>
    </g>
   </g>
   <g id="line2d_55">
    <path d="M 360.8064 298.944 
L 360.8064 27.648 
" style="fill: none; stroke: #000000; stroke-width: 1.5; stroke-linecap: square"/>
   </g>
   <g id="patch_3">
    <path d="M 57.6 298.944 
L 360.8064 298.944 
" style="fill: none; stroke: #000000; stroke-width: 0.8; stroke-linejoin: miter; stroke-linecap: square"/>
   </g>
   <g id="patch_4">
    <path d="M 57.6 27.648 
L 360.8064 27.648 
" style="fill: none; stroke: #000000; stroke-width: 0.8; stroke-linejoin: miter; stroke-linecap: square"/>
   </g>
   <g id="text_13">
    <!-- GA -->
    <g transform="translate(386.578944 297.381205)scale(0.14 -0.14)">
     <defs>
      <path id="DejaVuSans-47" d="M 3809 666 
L 3809 1919 
L 2778 1919 
L 2778 2438 
L 4434 2438 
L 4434 434 
Q 4069 175 3628 42 
Q 3188 -91 2688 -91 
Q 1594 -91 976 548 
Q 359 1188 359 2328 
Q 359 3472 976 4111 
Q 1594 4750 2688 4750 
Q 3144 4750 3555 4637 
Q 3966 4525 4313 4306 
L 4313 3634 
Q 3963 3931 3569 4081 
Q 3175 4231 2741 4231 
Q 1884 4231 1454 3753 
Q 1025 3275 1025 2328 
Q 1025 1384 1454 906 
Q 1884 428 2741 428 
Q 3075 428 3337 486 
Q 3600 544 3809 666 
z
" transform="scale(0.015625)"/>
      <path id="DejaVuSans-41" d="M 2188 4044 
L 1331 1722 
L 3047 1722 
L 2188 4044 
z
M 1831 4666 
L 2547 4666 
L 4325 0 
L 3669 0 
L 3244 1197 
L 1141 1197 
L 716 0 
L 50 0 
L 1831 4666 
z
" transform="scale(0.015625)"/>
     </defs>
     <use xlink:href="#DejaVuSans-47"/>
     <use xlink:href="#DejaVuSans-41" x="77.490234"/>
    </g>
   </g>
   <g id="text_14">
    <!-- LCGA -->
    <g transform="translate(386.578944 232.270165)scale(0.14 -0.14)">
     <defs>
      <path id="DejaVuSans-4c" d="M 628 4666 
L 1259 4666 
L 1259 531 
L 3531 531 
L 3531 0 
L 628 0 
L 628 4666 
z
" transform="scale(0.015625)"/>
      <path id="DejaVuSans-43" d="M 4122 4306 
L 4122 3641 
Q 3803 3938 3442 4084 
Q 3081 4231 2675 4231 
Q 1875 4231 1450 3742 
Q 1025 3253 1025 2328 
Q 1025 1406 1450 917 
Q 1875 428 2675 428 
Q 3081 428 3442 575 
Q 3803 722 4122 1019 
L 4122 359 
Q 3791 134 3420 21 
Q 3050 -91 2638 -91 
Q 1578 -91 968 557 
Q 359 1206 359 2328 
Q 359 3453 968 4101 
Q 1578 4750 2638 4750 
Q 3056 4750 3426 4639 
Q 3797 4528 4122 4306 
z
" transform="scale(0.015625)"/>
     </defs>
     <use xlink:href="#DejaVuSans-4c"/>
     <use xlink:href="#DejaVuSans-43" x="55.712891"/>
     <use xlink:href="#DejaVuSans-47" x="125.537109"/>
     <use xlink:href="#DejaVuSans-41" x="203.027344"/>
    </g>
   </g>
   <g id="text_15">
    <!-- EvoSpace- -->
    <g transform="translate(386.578944 167.159125)scale(0.14 -0.14)">
     <defs>
      <path id="DejaVuSans-45" d="M 628 4666 
L 3578 4666 
L 3578 4134 
L 1259 4134 
L 1259 2753 
L 3481 2753 
L 3481 2222 
L 1259 2222 
L 1259 531 
L 3634 531 
L 3634 0 
L 628 0 
L 628 4666 
z
" transform="scale(0.015625)"/>
      <path id="DejaVuSans-53" d="M 3425 4513 
L 3425 3897 
Q 3066 4069 2747 4153 
Q 2428 4238 2131 4238 
Q 1616 4238 1336 4038 
Q 1056 3838 1056 3469 
Q 1056 3159 1242 3001 
Q 1428 2844 1947 2747 
L 2328 2669 
Q 3034 2534 3370 2195 
Q 3706 1856 3706 1288 
Q 3706 609 3251 259 
Q 2797 -91 1919 -91 
Q 1588 -91 1214 -16 
Q 841 59 441 206 
L 441 856 
Q 825 641 1194 531 
Q 1563 422 1919 422 
Q 2459 422 2753 634 
Q 3047 847 3047 1241 
Q 3047 1584 2836 1778 
Q 2625 1972 2144 2069 
L 1759 2144 
Q 1053 2284 737 2584 
Q 422 2884 422 3419 
Q 422 4038 858 4394 
Q 1294 4750 2059 4750 
Q 2388 4750 2728 4690 
Q 3069 4631 3425 4513 
z
" transform="scale(0.015625)"/>
     </defs>
     <use xlink:href="#DejaVuSans-45"/>
     <use xlink:href="#DejaVuSans-76" x="63.183594"/>
     <use xlink:href="#DejaVuSans-6f" x="122.363281"/>
     <use xlink:href="#DejaVuSans-53" x="183.544922"/>
     <use xlink:href="#DejaVuSans-70" x="247.021484"/>
     <use xlink:href="#DejaVuSans-61" x="310.498047"/>
     <use xlink:href="#DejaVuSans-63" x="371.777344"/>
     <use xlink:href="#DejaVuSans-65" x="426.757812"/>
     <use xlink:href="#DejaVuSans-2d" x="488.28125"/>
    </g>
   </g>
   <g id="text_16">
    <!-- PSO -->
    <g transform="translate(386.578944 102.048085)scale(0.14 -0.14)">
     <defs>
      <path id="DejaVuSans-50" d="M 1259 4147 
L 1259 2394 
L 2053 2394 
Q 2494 2394 2734 2622 
Q 2975 2850 2975 3272 
Q 2975 3691 2734 3919 
Q 2494 4147 2053 4147 
L 1259 4147 
z
M 628 4666 
L 2053 4666 
Q 2838 4666 3239 4311 
Q 3641 3956 3641 3272 
Q 3641 2581 3239 2228 
Q 2838 1875 2053 1875 
L 1259 1875 
L 1259 0 
L 628 0 
L 628 4666 
z
" transform="scale(0.015625)"/>
      <path id="DejaVuSans-4f" d="M 2522 4238 
Q 1834 4238 1429 3725 
Q 1025 3213 1025 2328 
Q 1025 1447 1429 934 
Q 1834 422 2522 422 
Q 3209 422 3611 934 
Q 4013 1447 4013 2328 
Q 4013 3213 3611 3725 
Q 3209 4238 2522 4238 
z
M 2522 4750 
Q 3503 4750 4090 4092 
Q 4678 3434 4678 2328 
Q 4678 1225 4090 567 
Q 3503 -91 2522 -91 
Q 1538 -91 948 565 
Q 359 1222 359 2328 
Q 359 3434 948 4092 
Q 1538 4750 2522 4750 
z
" transform="scale(0.015625)"/>
     </defs>
     <use xlink:href="#DejaVuSans-50"/>
     <use xlink:href="#DejaVuSans-53" x="60.302734"/>
     <use xlink:href="#DejaVuSans-4f" x="123.779297"/>
    </g>
   </g>
   <g id="text_17">
    <!-- best 2009 -->
    <g transform="translate(386.578944 36.937045)scale(0.14 -0.14)">
     <defs>
      <path id="DejaVuSans-62" d="M 3116 1747 
Q 3116 2381 2855 2742 
Q 2594 3103 2138 3103 
Q 1681 3103 1420 2742 
Q 1159 2381 1159 1747 
Q 1159 1113 1420 752 
Q 1681 391 2138 391 
Q 2594 391 2855 752 
Q 3116 1113 3116 1747 
z
M 1159 2969 
Q 1341 3281 1617 3432 
Q 1894 3584 2278 3584 
Q 2916 3584 3314 3078 
Q 3713 2572 3713 1747 
Q 3713 922 3314 415 
Q 2916 -91 2278 -91 
Q 1894 -91 1617 61 
Q 1341 213 1159 525 
L 1159 0 
L 581 0 
L 581 4863 
L 1159 4863 
L 1159 2969 
z
" transform="scale(0.015625)"/>
      <path id="DejaVuSans-39" d="M 703 97 
L 703 672 
Q 941 559 1184 500 
Q 1428 441 1663 441 
Q 2288 441 2617 861 
Q 2947 1281 2994 2138 
Q 2813 1869 2534 1725 
Q 2256 1581 1919 1581 
Q 1219 1581 811 2004 
Q 403 2428 403 3163 
Q 403 3881 828 4315 
Q 1253 4750 1959 4750 
Q 2769 4750 3195 4129 
Q 3622 3509 3622 2328 
Q 3622 1225 3098 567 
Q 2575 -91 1691 -91 
Q 1453 -91 1209 -44 
Q 966 3 703 97 
z
M 1959 2075 
Q 2384 2075 2632 2365 
Q 2881 2656 2881 3163 
Q 2881 3666 2632 3958 
Q 2384 4250 1959 4250 
Q 1534 4250 1286 3958 
Q 1038 3666 1038 3163 
Q 1038 2656 1286 2365 
Q 1534 2075 1959 2075 
z
" transform="scale(0.015625)"/>
     </defs>
     <use xlink:href="#DejaVuSans-62"/>
     <use xlink:href="#DejaVuSans-65" x="63.476562"/>
     <use xlink:href="#DejaVuSans-73" x="125"/>
     <use xlink:href="#DejaVuSans-74" x="177.099609"/>
     <use xlink:href="#DejaVuSans-20" x="216.308594"/>
     <use xlink:href="#DejaVuSans-32" x="248.095703"/>
     <use xlink:href="#DejaVuSans-30" x="311.71875"/>
     <use xlink:href="#DejaVuSans-30" x="375.341797"/>
     <use xlink:href="#DejaVuSans-39" x="438.964844"/>
    </g>
   </g>
   <g id="text_18">
    <!-- bbob f8, 2-D -->
    <g transform="translate(60.632064 38.111366)scale(0.102 -0.102)">
     <defs>
      <path id="DejaVuSans-44" d="M 1259 4147 
L 1259 519 
L 2022 519 
Q 2988 519 3436 956 
Q 3884 1394 3884 2338 
Q 3884 3275 3436 3711 
Q 2988 4147 2022 4147 
L 1259 4147 
z
M 628 4666 
L 1925 4666 
Q 3281 4666 3915 4102 
Q 4550 3538 4550 2338 
Q 4550 1131 3912 565 
Q 3275 0 1925 0 
L 628 0 
L 628 4666 
z
" transform="scale(0.015625)"/>
     </defs>
     <use xlink:href="#DejaVuSans-62"/>
     <use xlink:href="#DejaVuSans-62" x="63.476562"/>
     <use xlink:href="#DejaVuSans-6f" x="126.953125"/>
     <use xlink:href="#DejaVuSans-62" x="188.134766"/>
     <use xlink:href="#DejaVuSans-20" x="251.611328"/>
     <use xlink:href="#DejaVuSans-66" x="283.398438"/>
     <use xlink:href="#DejaVuSans-38" x="318.603516"/>
     <use xlink:href="#DejaVuSans-2c" x="382.226562"/>
     <use xlink:href="#DejaVuSans-20" x="414.013672"/>
     <use xlink:href="#DejaVuSans-32" x="445.800781"/>
     <use xlink:href="#DejaVuSans-2d" x="509.423828"/>
     <use xlink:href="#DejaVuSans-44" x="545.507812"/>
    </g>
    <!-- 51 targets: 100..1e-08 -->
    <g transform="translate(60.632064 49.533135)scale(0.102 -0.102)">
     <defs>
      <path id="DejaVuSans-35" d="M 691 4666 
L 3169 4666 
L 3169 4134 
L 1269 4134 
L 1269 2991 
Q 1406 3038 1543 3061 
Q 1681 3084 1819 3084 
Q 2600 3084 3056 2656 
Q 3513 2228 3513 1497 
Q 3513 744 3044 326 
Q 2575 -91 1722 -91 
Q 1428 -91 1123 -41 
Q 819 9 494 109 
L 494 744 
Q 775 591 1075 516 
Q 1375 441 1709 441 
Q 2250 441 2565 725 
Q 2881 1009 2881 1497 
Q 2881 1984 2565 2268 
Q 2250 2553 1709 2553 
Q 1456 2553 1204 2497 
Q 953 2441 691 2322 
L 691 4666 
z
" transform="scale(0.015625)"/>
      <path id="DejaVuSans-3a" d="M 750 794 
L 1409 794 
L 1409 0 
L 750 0 
L 750 794 
z
M 750 3309 
L 1409 3309 
L 1409 2516 
L 750 2516 
L 750 3309 
z
" transform="scale(0.015625)"/>
     </defs>
     <use xlink:href="#DejaVuSans-35"/>
     <use xlink:href="#DejaVuSans-31" x="63.623047"/>
     <use xlink:href="#DejaVuSans-20" x="127.246094"/>
     <use xlink:href="#DejaVuSans-74" x="159.033203"/>
     <use xlink:href="#DejaVuSans-61" x="198.242188"/>
     <use xlink:href="#DejaVuSans-72" x="259.521484"/>
     <use xlink:href="#DejaVuSans-67" x="298.884766"/>
     <use xlink:href="#DejaVuSans-65" x="362.361328"/>
     <use xlink:href="#DejaVuSans-74" x="423.884766"/>
     <use xlink:href="#DejaVuSans-73" x="463.09375"/>
     <use xlink:href="#DejaVuSans-3a" x="515.193359"/>
     <use xlink:href="#DejaVuSans-20" x="548.884766"/>
     <use xlink:href="#DejaVuSans-31" x="580.671875"/>
     <use xlink:href="#DejaVuSans-30" x="644.294922"/>
     <use xlink:href="#DejaVuSans-30" x="707.917969"/>
     <use xlink:href="#DejaVuSans-2e" x="771.541016"/>
     <use xlink:href="#DejaVuSans-2e" x="803.328125"/>
     <use xlink:href="#DejaVuSans-31" x="835.115234"/>
     <use xlink:href="#DejaVuSans-65" x="898.738281"/>
     <use xlink:href="#DejaVuSans-2d" x="960.261719"/>
     <use xlink:href="#DejaVuSans-30" x="996.345703"/>
     <use xlink:href="#DejaVuSans-38" x="1059.96875"/>
    </g>
    <!-- 15 instances -->
    <g transform="translate(60.632064 60.954904)scale(0.102 -0.102)">
     <use xlink:href="#DejaVuSans-31"/>
     <use xlink:href="#DejaVuSans-35" x="63.623047"/>
     <use xlink:href="#DejaVuSans-20" x="127.246094"/>
     <use xlink:href="#DejaVuSans-69" x="159.033203"/>
     <use xlink:href="#DejaVuSans-6e" x="186.816406"/>
     <use xlink:href="#DejaVuSans-73" x="250.195312"/>
     <use xlink:href="#DejaVuSans-74" x="302.294922"/>
     <use xlink:href="#DejaVuSans-61" x="341.503906"/>
     <use xlink:href="#DejaVuSans-6e" x="402.783203"/>
     <use xlink:href="#DejaVuSans-63" x="466.162109"/>
     <use xlink:href="#DejaVuSans-65" x="521.142578"/>
     <use xlink:href="#DejaVuSans-73" x="582.666016"/>
    </g>
   </g>
   <g id="text_19">
    <!-- v2.6 -->
    <g style="fill: #808080" transform="translate(198.292262 294.151352)scale(0.1 -0.1)">
     <use xlink:href="#DejaVuSans-76"/>
     <use xlink:href="#DejaVuSans-32" x="59.179688"/>
     <use xlink:href="#DejaVuSans-2e" x="122.802734"/>
     <use xlink:href="#DejaVuSans-36" x="154.589844"/>
    </g>
   </g>
   <g id="text_20">
    <!-- 8 Rosenbrock original -->
    <g transform="translate(101.14695 21.648)scale(0.2 -0.2)">
     <defs>
      <path id="DejaVuSans-52" d="M 2841 2188 
Q 3044 2119 3236 1894 
Q 3428 1669 3622 1275 
L 4263 0 
L 3584 0 
L 2988 1197 
Q 2756 1666 2539 1819 
Q 2322 1972 1947 1972 
L 1259 1972 
L 1259 0 
L 628 0 
L 628 4666 
L 2053 4666 
Q 2853 4666 3247 4331 
Q 3641 3997 3641 3322 
Q 3641 2881 3436 2590 
Q 3231 2300 2841 2188 
z
M 1259 4147 
L 1259 2491 
L 2053 2491 
Q 2509 2491 2742 2702 
Q 2975 2913 2975 3322 
Q 2975 3731 2742 3939 
Q 2509 4147 2053 4147 
L 1259 4147 
z
" transform="scale(0.015625)"/>
      <path id="DejaVuSans-6b" d="M 581 4863 
L 1159 4863 
L 1159 1991 
L 2875 3500 
L 3609 3500 
L 1753 1863 
L 3688 0 
L 2938 0 
L 1159 1709 
L 1159 0 
L 581 0 
L 581 4863 
z
" transform="scale(0.015625)"/>
     </defs>
     <use xlink:href="#DejaVuSans-38"/>
     <use xlink:href="#DejaVuSans-20" x="63.623047"/>
     <use xlink:href="#DejaVuSans-52" x="95.410156"/>
     <use xlink:href="#DejaVuSans-6f" x="160.392578"/>
     <use xlink:href="#DejaVuSans-73" x="221.574219"/>
     <use xlink:href="#DejaVuSans-65" x="273.673828"/>
     <use xlink:href="#DejaVuSans-6e" x="335.197266"/>
     <use xlink:href="#DejaVuSans-62" x="398.576172"/>
     <use xlink:href="#DejaVuSans-72" x="462.052734"/>
     <use xlink:href="#DejaVuSans-6f" x="500.916016"/>
     <use xlink:href="#DejaVuSans-63" x="562.097656"/>
     <use xlink:href="#DejaVuSans-6b" x="617.078125"/>
     <use xlink:href="#DejaVuSans-20" x="674.988281"/>
     <use xlink:href="#DejaVuSans-6f" x="706.775391"/>
     <use xlink:href="#DejaVuSans-72" x="767.957031"/>
     <use xlink:href="#DejaVuSans-69" x="809.070312"/>
     <use xlink:href="#DejaVuSans-67" x="836.853516"/>
     <use xlink:href="#DejaVuSans-69" x="900.330078"/>
     <use xlink:href="#DejaVuSans-6e" x="928.113281"/>
     <use xlink:href="#DejaVuSans-61" x="991.492188"/>
     <use xlink:href="#DejaVuSans-6c" x="1052.771484"/>
    </g>
   </g>
  </g>
 </g>
 <defs>
  <clipPath id="p1667df232f">
   <rect x="57.6" y="27.648" width="303.2064" height="271.296"/>
  </clipPath>
 </defs>
</svg>
