<?xml version="1.0" encoding="utf-8" standalone="no"?>
<!DOCTYPE svg PUBLIC "-//W3C//DTD SVG 1.1//EN"
  "http://www.w3.org/Graphics/SVG/1.1/DTD/svg11.dtd">
<svg xmlns:xlink="http://www.w3.org/1999/xlink" width="460.8pt" height="345.6pt" viewBox="0 0 460.8 345.6" xmlns="http://www.w3.org/2000/svg" version="1.1">
 <metadata>
  <rdf:RDF xmlns:dc="http://purl.org/dc/elements/1.1/" xmlns:cc="http://creativecommons.org/ns#" xmlns:rdf="http://www.w3.org/1999/02/22-rdf-syntax-ns#">
   <cc:Work>
    <dc:type rdf:resource="http://purl.org/dc/dcmitype/StillImage"/>
    <dc:date>2024-05-29T08:12:03.812688</dc:date>
    <dc:format>image/svg+xml</dc:format>
    <dc:creator>
     <cc:Agent>
      <dc:title>Matplotlib v3.5.1, https://matplotlib.org/</dc:title>
     </cc:Agent>
    </dc:creator>
   </cc:Work>
  </rdf:RDF>
 </metadata>
 <defs>
  <style type="text/css">*{stroke-linejoin: round; stroke-linecap: butt}</style>
 </defs>
 <g id="figure_1">
  <g id="patch_1">
   <path d="M 0 345.6 
L 460.8 345.6 
L 460.8 0 
L 0 0 
z
" style="fill: #ffffff"/>
  </g>
  <g id="axes_1">
   <g id="patch_2">
    <path d="M 57.6 298.944 
L 360.8064 298.944 
L 360.8064 27.648 
L 57.6 27.648 
z
" style="fill: #ffffff"/>
   </g>
   <g id="line2d_1">
    <path d="M 119.944983 298.944 
L 119.944983 293.624471 
L 121.201758 293.624471 
L 121.201758 282.985412 
L 124.588805 282.985412 
L 124.588805 277.665882 
L 129.458394 277.665882 
L 129.458394 272.346353 
L 131.747272 272.346353 
L 131.747272 267.026824 
L 133.01833 267.026824 
L 133.01833 261.707294 
L 135.388902 261.707294 
L 135.388902 256.387765 
L 137.466966 256.387765 
L 137.466966 251.068235 
L 139.867398 251.068235 
L 139.867398 245.748706 
L 142.164612 245.748706 
L 142.164612 240.429176 
L 143.696162 240.429176 
L 143.696162 235.109647 
L 145.255407 235.109647 
L 145.255407 229.790118 
L 146.579379 229.790118 
L 146.579379 224.470588 
L 147.502732 224.470588 
L 147.502732 219.151059 
L 148.276979 219.151059 
L 148.276979 213.831529 
L 148.844805 213.831529 
L 148.844805 208.512 
L 149.2669 208.512 
L 149.2669 203.192471 
L 149.764026 203.192471 
L 149.764026 197.872941 
L 150.138743 197.872941 
L 150.138743 192.553412 
L 150.425115 192.553412 
L 150.425115 187.233882 
L 150.998235 187.233882 
L 150.998235 181.914353 
L 151.426526 181.914353 
L 151.426526 176.594824 
L 151.832729 176.594824 
L 151.832729 171.275294 
L 152.25492 171.275294 
L 152.25492 165.955765 
L 152.703847 165.955765 
L 152.703847 160.636235 
L 153.118868 160.636235 
L 153.118868 155.316706 
L 153.559331 155.316706 
L 153.559331 149.997176 
L 155.066821 149.997176 
L 155.066821 144.677647 
L 155.433326 144.677647 
L 155.433326 139.358118 
L 157.023421 139.358118 
L 157.023421 134.038588 
L 157.316545 134.038588 
L 157.316545 128.719059 
L 157.715719 128.719059 
L 157.715719 123.399529 
L 164.239791 123.399529 
L 164.239791 118.08 
L 168.430973 118.08 
L 168.430973 112.760471 
L 168.637696 112.760471 
L 168.637696 107.440941 
L 168.801454 107.440941 
L 168.801454 102.121412 
L 170.644345 102.121412 
L 170.644345 96.801882 
L 172.578697 96.801882 
L 172.578697 91.482353 
L 173.549438 91.482353 
L 173.549438 86.162824 
L 173.855707 86.162824 
L 173.855707 80.843294 
L 174.126381 80.843294 
L 174.126381 75.523765 
L 174.370492 75.523765 
L 174.370492 70.204235 
L 174.615217 70.204235 
L 174.615217 64.884706 
L 174.860492 64.884706 
L 174.860492 59.565176 
L 175.077078 59.565176 
L 175.077078 54.245647 
L 175.316441 54.245647 
L 175.316441 48.926118 
L 175.506477 48.926118 
L 175.506477 43.606588 
L 175.715792 43.606588 
L 175.715792 38.287059 
L 175.947214 38.287059 
L 175.947214 32.967529 
L 176.196469 32.967529 
L 176.196469 27.648 
L 360.8064 27.648 
" style="fill: none; stroke: #f5deb3; stroke-width: 4; stroke-linecap: square"/>
   </g>
   <g id="line2d_2">
    <defs>
     <path id="m377a92391f" d="M 0 7.778175 
L 7.778175 0 
L 0 -7.778175 
L -7.778175 0 
z
" style="stroke: #f5deb3; stroke-width: 1.5; stroke-linejoin: miter"/>
    </defs>
    <g>
     <use xlink:href="#m377a92391f" x="153.559331" y="149.997176" style="fill: #f5deb3; stroke: #f5deb3; stroke-width: 1.5; stroke-linejoin: miter"/>
     <use xlink:href="#m377a92391f" x="176.196469" y="32.967529" style="fill: #f5deb3; stroke: #f5deb3; stroke-width: 1.5; stroke-linejoin: miter"/>
     <use xlink:href="#m377a92391f" x="176.196469" y="27.648" style="fill: #f5deb3; stroke: #f5deb3; stroke-width: 1.5; stroke-linejoin: miter"/>
     <use xlink:href="#m377a92391f" x="176.196469" y="27.648" style="fill: #f5deb3; stroke: #f5deb3; stroke-width: 1.5; stroke-linejoin: miter"/>
     <use xlink:href="#m377a92391f" x="360.8064" y="27.648" style="fill: #f5deb3; stroke: #f5deb3; stroke-width: 1.5; stroke-linejoin: miter"/>
    </g>
   </g>
   <g id="line2d_3">
    <path style="fill: none; stroke: #f5deb3; stroke-width: 4; stroke-linecap: square"/>
    <g/>
   </g>
   <g id="line2d_4">
    <path d="M 360.8064 27.648 
L 380.514816 33.07392 
" style="fill: none; stroke: #f5deb3; stroke-width: 4; stroke-linecap: square"/>
    <g>
     <use xlink:href="#m377a92391f" x="360.8064" y="27.648" style="fill: #f5deb3; stroke: #f5deb3; stroke-width: 1.5; stroke-linejoin: miter"/>
     <use xlink:href="#m377a92391f" x="380.514816" y="33.07392" style="fill: #f5deb3; stroke: #f5deb3; stroke-width: 1.5; stroke-linejoin: miter"/>
    </g>
   </g>
   <g id="matplotlib.axis_1">
    <g id="xtick_1">
     <g id="line2d_5">
      <path d="M 57.6 298.944 
L 57.6 27.648 
" clip-path="url(#pfd98794916)" style="fill: none; stroke: #b0b0b0; stroke-width: 0.8; stroke-linecap: square"/>
     </g>
     <g id="line2d_6">
      <defs>
       <path id="mfa91c913ca" d="M 0 0 
L 0 3.5 
" style="stroke: #000000; stroke-width: 0.8"/>
      </defs>
      <g>
       <use xlink:href="#mfa91c913ca" x="57.6" y="298.944" style="stroke: #000000; stroke-width: 0.8"/>
      </g>
     </g>
     <g id="text_1">
      <!-- 0 -->
      <g transform="translate(52.191875 318.861344)scale(0.17 -0.17)">
       <defs>
        <path id="DejaVuSans-30" d="M 2034 4250 
Q 1547 4250 1301 3770 
Q 1056 3291 1056 2328 
Q 1056 1369 1301 889 
Q 1547 409 2034 409 
Q 2525 409 2770 889 
Q 3016 1369 3016 2328 
Q 3016 3291 2770 3770 
Q 2525 4250 2034 4250 
z
M 2034 4750 
Q 2819 4750 3233 4129 
Q 3647 3509 3647 2328 
Q 3647 1150 3233 529 
Q 2819 -91 2034 -91 
Q 1250 -91 836 529 
Q 422 1150 422 2328 
Q 422 3509 836 4129 
Q 1250 4750 2034 4750 
z
" transform="scale(0.015625)"/>
       </defs>
       <use xlink:href="#DejaVuSans-30"/>
      </g>
     </g>
    </g>
    <g id="xtick_2">
     <g id="line2d_7">
      <path d="M 144.2304 298.944 
L 144.2304 27.648 
" clip-path="url(#pfd98794916)" style="fill: none; stroke: #b0b0b0; stroke-width: 0.8; stroke-linecap: square"/>
     </g>
     <g id="line2d_8">
      <g>
       <use xlink:href="#mfa91c913ca" x="144.2304" y="298.944" style="stroke: #000000; stroke-width: 0.8"/>
      </g>
     </g>
     <g id="text_2">
      <!-- 2 -->
      <g transform="translate(138.822275 318.861344)scale(0.17 -0.17)">
       <defs>
        <path id="DejaVuSans-32" d="M 1228 531 
L 3431 531 
L 3431 0 
L 469 0 
L 469 531 
Q 828 903 1448 1529 
Q 2069 2156 2228 2338 
Q 2531 2678 2651 2914 
Q 2772 3150 2772 3378 
Q 2772 3750 2511 3984 
Q 2250 4219 1831 4219 
Q 1534 4219 1204 4116 
Q 875 4013 500 3803 
L 500 4441 
Q 881 4594 1212 4672 
Q 1544 4750 1819 4750 
Q 2544 4750 2975 4387 
Q 3406 4025 3406 3419 
Q 3406 3131 3298 2873 
Q 3191 2616 2906 2266 
Q 2828 2175 2409 1742 
Q 1991 1309 1228 531 
z
" transform="scale(0.015625)"/>
       </defs>
       <use xlink:href="#DejaVuSans-32"/>
      </g>
     </g>
    </g>
    <g id="xtick_3">
     <g id="line2d_9">
      <path d="M 230.8608 298.944 
L 230.8608 27.648 
" clip-path="url(#pfd98794916)" style="fill: none; stroke: #b0b0b0; stroke-width: 0.8; stroke-linecap: square"/>
     </g>
     <g id="line2d_10">
      <g>
       <use xlink:href="#mfa91c913ca" x="230.8608" y="298.944" style="stroke: #000000; stroke-width: 0.8"/>
      </g>
     </g>
     <g id="text_3">
      <!-- 4 -->
      <g transform="translate(225.452675 318.861344)scale(0.17 -0.17)">
       <defs>
        <path id="DejaVuSans-34" d="M 2419 4116 
L 825 1625 
L 2419 1625 
L 2419 4116 
z
M 2253 4666 
L 3047 4666 
L 3047 1625 
L 3713 1625 
L 3713 1100 
L 3047 1100 
L 3047 0 
L 2419 0 
L 2419 1100 
L 313 1100 
L 313 1709 
L 2253 4666 
z
" transform="scale(0.015625)"/>
       </defs>
       <use xlink:href="#DejaVuSans-34"/>
      </g>
     </g>
    </g>
    <g id="xtick_4">
     <g id="line2d_11">
      <path d="M 317.4912 298.944 
L 317.4912 27.648 
" clip-path="url(#pfd98794916)" style="fill: none; stroke: #b0b0b0; stroke-width: 0.8; stroke-linecap: square"/>
     </g>
     <g id="line2d_12">
      <g>
       <use xlink:href="#mfa91c913ca" x="317.4912" y="298.944" style="stroke: #000000; stroke-width: 0.8"/>
      </g>
     </g>
     <g id="text_4">
      <!-- 6 -->
      <g transform="translate(312.083075 318.861344)scale(0.17 -0.17)">
       <defs>
        <path id="DejaVuSans-36" d="M 2113 2584 
Q 1688 2584 1439 2293 
Q 1191 2003 1191 1497 
Q 1191 994 1439 701 
Q 1688 409 2113 409 
Q 2538 409 2786 701 
Q 3034 994 3034 1497 
Q 3034 2003 2786 2293 
Q 2538 2584 2113 2584 
z
M 3366 4563 
L 3366 3988 
Q 3128 4100 2886 4159 
Q 2644 4219 2406 4219 
Q 1781 4219 1451 3797 
Q 1122 3375 1075 2522 
Q 1259 2794 1537 2939 
Q 1816 3084 2150 3084 
Q 2853 3084 3261 2657 
Q 3669 2231 3669 1497 
Q 3669 778 3244 343 
Q 2819 -91 2113 -91 
Q 1303 -91 875 529 
Q 447 1150 447 2328 
Q 447 3434 972 4092 
Q 1497 4750 2381 4750 
Q 2619 4750 2861 4703 
Q 3103 4656 3366 4563 
z
" transform="scale(0.015625)"/>
       </defs>
       <use xlink:href="#DejaVuSans-36"/>
      </g>
     </g>
    </g>
    <g id="xtick_5">
     <g id="line2d_13">
      <path d="M 100.9152 298.944 
L 100.9152 27.648 
" clip-path="url(#pfd98794916)" style="fill: none; stroke: #b0b0b0; stroke-width: 0.8; stroke-linecap: square"/>
     </g>
     <g id="line2d_14">
      <defs>
       <path id="md824b714ec" d="M 0 0 
L 0 2 
" style="stroke: #000000; stroke-width: 0.6"/>
      </defs>
      <g>
       <use xlink:href="#md824b714ec" x="100.9152" y="298.944" style="stroke: #000000; stroke-width: 0.6"/>
      </g>
     </g>
    </g>
    <g id="xtick_6">
     <g id="line2d_15">
      <path d="M 187.5456 298.944 
L 187.5456 27.648 
" clip-path="url(#pfd98794916)" style="fill: none; stroke: #b0b0b0; stroke-width: 0.8; stroke-linecap: square"/>
     </g>
     <g id="line2d_16">
      <g>
       <use xlink:href="#md824b714ec" x="187.5456" y="298.944" style="stroke: #000000; stroke-width: 0.6"/>
      </g>
     </g>
    </g>
    <g id="xtick_7">
     <g id="line2d_17">
      <path d="M 274.176 298.944 
L 274.176 27.648 
" clip-path="url(#pfd98794916)" style="fill: none; stroke: #b0b0b0; stroke-width: 0.8; stroke-linecap: square"/>
     </g>
     <g id="line2d_18">
      <g>
       <use xlink:href="#md824b714ec" x="274.176" y="298.944" style="stroke: #000000; stroke-width: 0.6"/>
      </g>
     </g>
    </g>
    <g id="xtick_8">
     <g id="line2d_19">
      <path d="M 360.8064 298.944 
L 360.8064 27.648 
" clip-path="url(#pfd98794916)" style="fill: none; stroke: #b0b0b0; stroke-width: 0.8; stroke-linecap: square"/>
     </g>
     <g id="line2d_20">
      <g>
       <use xlink:href="#md824b714ec" x="360.8064" y="298.944" style="stroke: #000000; stroke-width: 0.6"/>
      </g>
     </g>
    </g>
    <g id="text_5">
     <!-- log10(# f-evals / dimension) -->
     <g transform="translate(88.823278 339.314156)scale(0.17 -0.17)">
      <defs>
       <path id="DejaVuSans-6c" d="M 603 4863 
L 1178 4863 
L 1178 0 
L 603 0 
L 603 4863 
z
" transform="scale(0.015625)"/>
       <path id="DejaVuSans-6f" d="M 1959 3097 
Q 1497 3097 1228 2736 
Q 959 2375 959 1747 
Q 959 1119 1226 758 
Q 1494 397 1959 397 
Q 2419 397 2687 759 
Q 2956 1122 2956 1747 
Q 2956 2369 2687 2733 
Q 2419 3097 1959 3097 
z
M 1959 3584 
Q 2709 3584 3137 3096 
Q 3566 2609 3566 1747 
Q 3566 888 3137 398 
Q 2709 -91 1959 -91 
Q 1206 -91 779 398 
Q 353 888 353 1747 
Q 353 2609 779 3096 
Q 1206 3584 1959 3584 
z
" transform="scale(0.015625)"/>
       <path id="DejaVuSans-67" d="M 2906 1791 
Q 2906 2416 2648 2759 
Q 2391 3103 1925 3103 
Q 1463 3103 1205 2759 
Q 947 2416 947 1791 
Q 947 1169 1205 825 
Q 1463 481 1925 481 
Q 2391 481 2648 825 
Q 2906 1169 2906 1791 
z
M 3481 434 
Q 3481 -459 3084 -895 
Q 2688 -1331 1869 -1331 
Q 1566 -1331 1297 -1286 
Q 1028 -1241 775 -1147 
L 775 -588 
Q 1028 -725 1275 -790 
Q 1522 -856 1778 -856 
Q 2344 -856 2625 -561 
Q 2906 -266 2906 331 
L 2906 616 
Q 2728 306 2450 153 
Q 2172 0 1784 0 
Q 1141 0 747 490 
Q 353 981 353 1791 
Q 353 2603 747 3093 
Q 1141 3584 1784 3584 
Q 2172 3584 2450 3431 
Q 2728 3278 2906 2969 
L 2906 3500 
L 3481 3500 
L 3481 434 
z
" transform="scale(0.015625)"/>
       <path id="DejaVuSans-31" d="M 794 531 
L 1825 531 
L 1825 4091 
L 703 3866 
L 703 4441 
L 1819 4666 
L 2450 4666 
L 2450 531 
L 3481 531 
L 3481 0 
L 794 0 
L 794 531 
z
" transform="scale(0.015625)"/>
       <path id="DejaVuSans-28" d="M 1984 4856 
Q 1566 4138 1362 3434 
Q 1159 2731 1159 2009 
Q 1159 1288 1364 580 
Q 1569 -128 1984 -844 
L 1484 -844 
Q 1016 -109 783 600 
Q 550 1309 550 2009 
Q 550 2706 781 3412 
Q 1013 4119 1484 4856 
L 1984 4856 
z
" transform="scale(0.015625)"/>
       <path id="DejaVuSans-23" d="M 3272 2816 
L 2363 2816 
L 2100 1772 
L 3016 1772 
L 3272 2816 
z
M 2803 4594 
L 2478 3297 
L 3391 3297 
L 3719 4594 
L 4219 4594 
L 3897 3297 
L 4872 3297 
L 4872 2816 
L 3775 2816 
L 3519 1772 
L 4513 1772 
L 4513 1294 
L 3397 1294 
L 3072 0 
L 2572 0 
L 2894 1294 
L 1978 1294 
L 1656 0 
L 1153 0 
L 1478 1294 
L 494 1294 
L 494 1772 
L 1594 1772 
L 1856 2816 
L 850 2816 
L 850 3297 
L 1978 3297 
L 2297 4594 
L 2803 4594 
z
" transform="scale(0.015625)"/>
       <path id="DejaVuSans-20" transform="scale(0.015625)"/>
       <path id="DejaVuSans-66" d="M 2375 4863 
L 2375 4384 
L 1825 4384 
Q 1516 4384 1395 4259 
Q 1275 4134 1275 3809 
L 1275 3500 
L 2222 3500 
L 2222 3053 
L 1275 3053 
L 1275 0 
L 697 0 
L 697 3053 
L 147 3053 
L 147 3500 
L 697 3500 
L 697 3744 
Q 697 4328 969 4595 
Q 1241 4863 1831 4863 
L 2375 4863 
z
" transform="scale(0.015625)"/>
       <path id="DejaVuSans-2d" d="M 313 2009 
L 1997 2009 
L 1997 1497 
L 313 1497 
L 313 2009 
z
" transform="scale(0.015625)"/>
       <path id="DejaVuSans-65" d="M 3597 1894 
L 3597 1613 
L 953 1613 
Q 991 1019 1311 708 
Q 1631 397 2203 397 
Q 2534 397 2845 478 
Q 3156 559 3463 722 
L 3463 178 
Q 3153 47 2828 -22 
Q 2503 -91 2169 -91 
Q 1331 -91 842 396 
Q 353 884 353 1716 
Q 353 2575 817 3079 
Q 1281 3584 2069 3584 
Q 2775 3584 3186 3129 
Q 3597 2675 3597 1894 
z
M 3022 2063 
Q 3016 2534 2758 2815 
Q 2500 3097 2075 3097 
Q 1594 3097 1305 2825 
Q 1016 2553 972 2059 
L 3022 2063 
z
" transform="scale(0.015625)"/>
       <path id="DejaVuSans-76" d="M 191 3500 
L 800 3500 
L 1894 563 
L 2988 3500 
L 3597 3500 
L 2284 0 
L 1503 0 
L 191 3500 
z
" transform="scale(0.015625)"/>
       <path id="DejaVuSans-61" d="M 2194 1759 
Q 1497 1759 1228 1600 
Q 959 1441 959 1056 
Q 959 750 1161 570 
Q 1363 391 1709 391 
Q 2188 391 2477 730 
Q 2766 1069 2766 1631 
L 2766 1759 
L 2194 1759 
z
M 3341 1997 
L 3341 0 
L 2766 0 
L 2766 531 
Q 2569 213 2275 61 
Q 1981 -91 1556 -91 
Q 1019 -91 701 211 
Q 384 513 384 1019 
Q 384 1609 779 1909 
Q 1175 2209 1959 2209 
L 2766 2209 
L 2766 2266 
Q 2766 2663 2505 2880 
Q 2244 3097 1772 3097 
Q 1472 3097 1187 3025 
Q 903 2953 641 2809 
L 641 3341 
Q 956 3463 1253 3523 
Q 1550 3584 1831 3584 
Q 2591 3584 2966 3190 
Q 3341 2797 3341 1997 
z
" transform="scale(0.015625)"/>
       <path id="DejaVuSans-73" d="M 2834 3397 
L 2834 2853 
Q 2591 2978 2328 3040 
Q 2066 3103 1784 3103 
Q 1356 3103 1142 2972 
Q 928 2841 928 2578 
Q 928 2378 1081 2264 
Q 1234 2150 1697 2047 
L 1894 2003 
Q 2506 1872 2764 1633 
Q 3022 1394 3022 966 
Q 3022 478 2636 193 
Q 2250 -91 1575 -91 
Q 1294 -91 989 -36 
Q 684 19 347 128 
L 347 722 
Q 666 556 975 473 
Q 1284 391 1588 391 
Q 1994 391 2212 530 
Q 2431 669 2431 922 
Q 2431 1156 2273 1281 
Q 2116 1406 1581 1522 
L 1381 1569 
Q 847 1681 609 1914 
Q 372 2147 372 2553 
Q 372 3047 722 3315 
Q 1072 3584 1716 3584 
Q 2034 3584 2315 3537 
Q 2597 3491 2834 3397 
z
" transform="scale(0.015625)"/>
       <path id="DejaVuSans-2f" d="M 1625 4666 
L 2156 4666 
L 531 -594 
L 0 -594 
L 1625 4666 
z
" transform="scale(0.015625)"/>
       <path id="DejaVuSans-64" d="M 2906 2969 
L 2906 4863 
L 3481 4863 
L 3481 0 
L 2906 0 
L 2906 525 
Q 2725 213 2448 61 
Q 2172 -91 1784 -91 
Q 1150 -91 751 415 
Q 353 922 353 1747 
Q 353 2572 751 3078 
Q 1150 3584 1784 3584 
Q 2172 3584 2448 3432 
Q 2725 3281 2906 2969 
z
M 947 1747 
Q 947 1113 1208 752 
Q 1469 391 1925 391 
Q 2381 391 2643 752 
Q 2906 1113 2906 1747 
Q 2906 2381 2643 2742 
Q 2381 3103 1925 3103 
Q 1469 3103 1208 2742 
Q 947 2381 947 1747 
z
" transform="scale(0.015625)"/>
       <path id="DejaVuSans-69" d="M 603 3500 
L 1178 3500 
L 1178 0 
L 603 0 
L 603 3500 
z
M 603 4863 
L 1178 4863 
L 1178 4134 
L 603 4134 
L 603 4863 
z
" transform="scale(0.015625)"/>
       <path id="DejaVuSans-6d" d="M 3328 2828 
Q 3544 3216 3844 3400 
Q 4144 3584 4550 3584 
Q 5097 3584 5394 3201 
Q 5691 2819 5691 2113 
L 5691 0 
L 5113 0 
L 5113 2094 
Q 5113 2597 4934 2840 
Q 4756 3084 4391 3084 
Q 3944 3084 3684 2787 
Q 3425 2491 3425 1978 
L 3425 0 
L 2847 0 
L 2847 2094 
Q 2847 2600 2669 2842 
Q 2491 3084 2119 3084 
Q 1678 3084 1418 2786 
Q 1159 2488 1159 1978 
L 1159 0 
L 581 0 
L 581 3500 
L 1159 3500 
L 1159 2956 
Q 1356 3278 1631 3431 
Q 1906 3584 2284 3584 
Q 2666 3584 2933 3390 
Q 3200 3197 3328 2828 
z
" transform="scale(0.015625)"/>
       <path id="DejaVuSans-6e" d="M 3513 2113 
L 3513 0 
L 2938 0 
L 2938 2094 
Q 2938 2591 2744 2837 
Q 2550 3084 2163 3084 
Q 1697 3084 1428 2787 
Q 1159 2491 1159 1978 
L 1159 0 
L 581 0 
L 581 3500 
L 1159 3500 
L 1159 2956 
Q 1366 3272 1645 3428 
Q 1925 3584 2291 3584 
Q 2894 3584 3203 3211 
Q 3513 2838 3513 2113 
z
" transform="scale(0.015625)"/>
       <path id="DejaVuSans-29" d="M 513 4856 
L 1013 4856 
Q 1481 4119 1714 3412 
Q 1947 2706 1947 2009 
Q 1947 1309 1714 600 
Q 1481 -109 1013 -844 
L 513 -844 
Q 928 -128 1133 580 
Q 1338 1288 1338 2009 
Q 1338 2731 1133 3434 
Q 928 4138 513 4856 
z
" transform="scale(0.015625)"/>
      </defs>
      <use xlink:href="#DejaVuSans-6c"/>
      <use xlink:href="#DejaVuSans-6f" x="27.783203"/>
      <use xlink:href="#DejaVuSans-67" x="88.964844"/>
      <use xlink:href="#DejaVuSans-31" x="152.441406"/>
      <use xlink:href="#DejaVuSans-30" x="216.064453"/>
      <use xlink:href="#DejaVuSans-28" x="279.6875"/>
      <use xlink:href="#DejaVuSans-23" x="318.701172"/>
      <use xlink:href="#DejaVuSans-20" x="402.490234"/>
      <use xlink:href="#DejaVuSans-66" x="434.277344"/>
      <use xlink:href="#DejaVuSans-2d" x="463.982422"/>
      <use xlink:href="#DejaVuSans-65" x="500.066406"/>
      <use xlink:href="#DejaVuSans-76" x="561.589844"/>
      <use xlink:href="#DejaVuSans-61" x="620.769531"/>
      <use xlink:href="#DejaVuSans-6c" x="682.048828"/>
      <use xlink:href="#DejaVuSans-73" x="709.832031"/>
      <use xlink:href="#DejaVuSans-20" x="761.931641"/>
      <use xlink:href="#DejaVuSans-2f" x="793.71875"/>
      <use xlink:href="#DejaVuSans-20" x="827.410156"/>
      <use xlink:href="#DejaVuSans-64" x="859.197266"/>
      <use xlink:href="#DejaVuSans-69" x="922.673828"/>
      <use xlink:href="#DejaVuSans-6d" x="950.457031"/>
      <use xlink:href="#DejaVuSans-65" x="1047.869141"/>
      <use xlink:href="#DejaVuSans-6e" x="1109.392578"/>
      <use xlink:href="#DejaVuSans-73" x="1172.771484"/>
      <use xlink:href="#DejaVuSans-69" x="1224.871094"/>
      <use xlink:href="#DejaVuSans-6f" x="1252.654297"/>
      <use xlink:href="#DejaVuSans-6e" x="1313.835938"/>
      <use xlink:href="#DejaVuSans-29" x="1377.214844"/>
     </g>
    </g>
   </g>
   <g id="matplotlib.axis_2">
    <g id="ytick_1">
     <g id="line2d_21">
      <path d="M 57.6 298.944 
L 360.8064 298.944 
" clip-path="url(#pfd98794916)" style="fill: none; stroke: #b0b0b0; stroke-width: 0.8; stroke-linecap: square"/>
     </g>
     <g id="line2d_22">
      <defs>
       <path id="m75b225eb92" d="M 0 0 
L -3.5 0 
" style="stroke: #000000; stroke-width: 0.8"/>
      </defs>
      <g>
       <use xlink:href="#m75b225eb92" x="57.6" y="298.944" style="stroke: #000000; stroke-width: 0.8"/>
      </g>
     </g>
     <g id="text_6">
      <!-- 0.0 -->
      <g transform="translate(25.155 305.02275)scale(0.16 -0.16)">
       <defs>
        <path id="DejaVuSans-2e" d="M 684 794 
L 1344 794 
L 1344 0 
L 684 0 
L 684 794 
z
" transform="scale(0.015625)"/>
       </defs>
       <use xlink:href="#DejaVuSans-30"/>
       <use xlink:href="#DejaVuSans-2e" x="63.623047"/>
       <use xlink:href="#DejaVuSans-30" x="95.410156"/>
      </g>
     </g>
    </g>
    <g id="ytick_2">
     <g id="line2d_23">
      <path d="M 57.6 244.6848 
L 360.8064 244.6848 
" clip-path="url(#pfd98794916)" style="fill: none; stroke: #b0b0b0; stroke-width: 0.8; stroke-linecap: square"/>
     </g>
     <g id="line2d_24">
      <g>
       <use xlink:href="#m75b225eb92" x="57.6" y="244.6848" style="stroke: #000000; stroke-width: 0.8"/>
      </g>
     </g>
     <g id="text_7">
      <!-- 0.2 -->
      <g transform="translate(25.155 250.76355)scale(0.16 -0.16)">
       <use xlink:href="#DejaVuSans-30"/>
       <use xlink:href="#DejaVuSans-2e" x="63.623047"/>
       <use xlink:href="#DejaVuSans-32" x="95.410156"/>
      </g>
     </g>
    </g>
    <g id="ytick_3">
     <g id="line2d_25">
      <path d="M 57.6 190.4256 
L 360.8064 190.4256 
" clip-path="url(#pfd98794916)" style="fill: none; stroke: #b0b0b0; stroke-width: 0.8; stroke-linecap: square"/>
     </g>
     <g id="line2d_26">
      <g>
       <use xlink:href="#m75b225eb92" x="57.6" y="190.4256" style="stroke: #000000; stroke-width: 0.8"/>
      </g>
     </g>
     <g id="text_8">
      <!-- 0.4 -->
      <g transform="translate(25.155 196.50435)scale(0.16 -0.16)">
       <use xlink:href="#DejaVuSans-30"/>
       <use xlink:href="#DejaVuSans-2e" x="63.623047"/>
       <use xlink:href="#DejaVuSans-34" x="95.410156"/>
      </g>
     </g>
    </g>
    <g id="ytick_4">
     <g id="line2d_27">
      <path d="M 57.6 136.1664 
L 360.8064 136.1664 
" clip-path="url(#pfd98794916)" style="fill: none; stroke: #b0b0b0; stroke-width: 0.8; stroke-linecap: square"/>
     </g>
     <g id="line2d_28">
      <g>
       <use xlink:href="#m75b225eb92" x="57.6" y="136.1664" style="stroke: #000000; stroke-width: 0.8"/>
      </g>
     </g>
     <g id="text_9">
      <!-- 0.6 -->
      <g transform="translate(25.155 142.24515)scale(0.16 -0.16)">
       <use xlink:href="#DejaVuSans-30"/>
       <use xlink:href="#DejaVuSans-2e" x="63.623047"/>
       <use xlink:href="#DejaVuSans-36" x="95.410156"/>
      </g>
     </g>
    </g>
    <g id="ytick_5">
     <g id="line2d_29">
      <path d="M 57.6 81.9072 
L 360.8064 81.9072 
" clip-path="url(#pfd98794916)" style="fill: none; stroke: #b0b0b0; stroke-width: 0.8; stroke-linecap: square"/>
     </g>
     <g id="line2d_30">
      <g>
       <use xlink:href="#m75b225eb92" x="57.6" y="81.9072" style="stroke: #000000; stroke-width: 0.8"/>
      </g>
     </g>
     <g id="text_10">
      <!-- 0.8 -->
      <g transform="translate(25.155 87.98595)scale(0.16 -0.16)">
       <defs>
        <path id="DejaVuSans-38" d="M 2034 2216 
Q 1584 2216 1326 1975 
Q 1069 1734 1069 1313 
Q 1069 891 1326 650 
Q 1584 409 2034 409 
Q 2484 409 2743 651 
Q 3003 894 3003 1313 
Q 3003 1734 2745 1975 
Q 2488 2216 2034 2216 
z
M 1403 2484 
Q 997 2584 770 2862 
Q 544 3141 544 3541 
Q 544 4100 942 4425 
Q 1341 4750 2034 4750 
Q 2731 4750 3128 4425 
Q 3525 4100 3525 3541 
Q 3525 3141 3298 2862 
Q 3072 2584 2669 2484 
Q 3125 2378 3379 2068 
Q 3634 1759 3634 1313 
Q 3634 634 3220 271 
Q 2806 -91 2034 -91 
Q 1263 -91 848 271 
Q 434 634 434 1313 
Q 434 1759 690 2068 
Q 947 2378 1403 2484 
z
M 1172 3481 
Q 1172 3119 1398 2916 
Q 1625 2713 2034 2713 
Q 2441 2713 2670 2916 
Q 2900 3119 2900 3481 
Q 2900 3844 2670 4047 
Q 2441 4250 2034 4250 
Q 1625 4250 1398 4047 
Q 1172 3844 1172 3481 
z
" transform="scale(0.015625)"/>
       </defs>
       <use xlink:href="#DejaVuSans-30"/>
       <use xlink:href="#DejaVuSans-2e" x="63.623047"/>
       <use xlink:href="#DejaVuSans-38" x="95.410156"/>
      </g>
     </g>
    </g>
    <g id="ytick_6">
     <g id="line2d_31">
      <path d="M 57.6 27.648 
L 360.8064 27.648 
" clip-path="url(#pfd98794916)" style="fill: none; stroke: #b0b0b0; stroke-width: 0.8; stroke-linecap: square"/>
     </g>
     <g id="line2d_32">
      <g>
       <use xlink:href="#m75b225eb92" x="57.6" y="27.648" style="stroke: #000000; stroke-width: 0.8"/>
      </g>
     </g>
     <g id="text_11">
      <!-- 1.0 -->
      <g transform="translate(25.155 33.72675)scale(0.16 -0.16)">
       <use xlink:href="#DejaVuSans-31"/>
       <use xlink:href="#DejaVuSans-2e" x="63.623047"/>
       <use xlink:href="#DejaVuSans-30" x="95.410156"/>
      </g>
     </g>
    </g>
    <g id="text_12">
     <!-- Fraction of function,target pairs -->
     <g transform="translate(17.619531 297.681)rotate(-90)scale(0.17 -0.17)">
      <defs>
       <path id="DejaVuSans-46" d="M 628 4666 
L 3309 4666 
L 3309 4134 
L 1259 4134 
L 1259 2759 
L 3109 2759 
L 3109 2228 
L 1259 2228 
L 1259 0 
L 628 0 
L 628 4666 
z
" transform="scale(0.015625)"/>
       <path id="DejaVuSans-72" d="M 2631 2963 
Q 2534 3019 2420 3045 
Q 2306 3072 2169 3072 
Q 1681 3072 1420 2755 
Q 1159 2438 1159 1844 
L 1159 0 
L 581 0 
L 581 3500 
L 1159 3500 
L 1159 2956 
Q 1341 3275 1631 3429 
Q 1922 3584 2338 3584 
Q 2397 3584 2469 3576 
Q 2541 3569 2628 3553 
L 2631 2963 
z
" transform="scale(0.015625)"/>
       <path id="DejaVuSans-63" d="M 3122 3366 
L 3122 2828 
Q 2878 2963 2633 3030 
Q 2388 3097 2138 3097 
Q 1578 3097 1268 2742 
Q 959 2388 959 1747 
Q 959 1106 1268 751 
Q 1578 397 2138 397 
Q 2388 397 2633 464 
Q 2878 531 3122 666 
L 3122 134 
Q 2881 22 2623 -34 
Q 2366 -91 2075 -91 
Q 1284 -91 818 406 
Q 353 903 353 1747 
Q 353 2603 823 3093 
Q 1294 3584 2113 3584 
Q 2378 3584 2631 3529 
Q 2884 3475 3122 3366 
z
" transform="scale(0.015625)"/>
       <path id="DejaVuSans-74" d="M 1172 4494 
L 1172 3500 
L 2356 3500 
L 2356 3053 
L 1172 3053 
L 1172 1153 
Q 1172 725 1289 603 
Q 1406 481 1766 481 
L 2356 481 
L 2356 0 
L 1766 0 
Q 1100 0 847 248 
Q 594 497 594 1153 
L 594 3053 
L 172 3053 
L 172 3500 
L 594 3500 
L 594 4494 
L 1172 4494 
z
" transform="scale(0.015625)"/>
       <path id="DejaVuSans-75" d="M 544 1381 
L 544 3500 
L 1119 3500 
L 1119 1403 
Q 1119 906 1312 657 
Q 1506 409 1894 409 
Q 2359 409 2629 706 
Q 2900 1003 2900 1516 
L 2900 3500 
L 3475 3500 
L 3475 0 
L 2900 0 
L 2900 538 
Q 2691 219 2414 64 
Q 2138 -91 1772 -91 
Q 1169 -91 856 284 
Q 544 659 544 1381 
z
M 1991 3584 
L 1991 3584 
z
" transform="scale(0.015625)"/>
       <path id="DejaVuSans-2c" d="M 750 794 
L 1409 794 
L 1409 256 
L 897 -744 
L 494 -744 
L 750 256 
L 750 794 
z
" transform="scale(0.015625)"/>
       <path id="DejaVuSans-70" d="M 1159 525 
L 1159 -1331 
L 581 -1331 
L 581 3500 
L 1159 3500 
L 1159 2969 
Q 1341 3281 1617 3432 
Q 1894 3584 2278 3584 
Q 2916 3584 3314 3078 
Q 3713 2572 3713 1747 
Q 3713 922 3314 415 
Q 2916 -91 2278 -91 
Q 1894 -91 1617 61 
Q 1341 213 1159 525 
z
M 3116 1747 
Q 3116 2381 2855 2742 
Q 2594 3103 2138 3103 
Q 1681 3103 1420 2742 
Q 1159 2381 1159 1747 
Q 1159 1113 1420 752 
Q 1681 391 2138 391 
Q 2594 391 2855 752 
Q 3116 1113 3116 1747 
z
" transform="scale(0.015625)"/>
      </defs>
      <use xlink:href="#DejaVuSans-46"/>
      <use xlink:href="#DejaVuSans-72" x="50.269531"/>
      <use xlink:href="#DejaVuSans-61" x="91.382812"/>
      <use xlink:href="#DejaVuSans-63" x="152.662109"/>
      <use xlink:href="#DejaVuSans-74" x="207.642578"/>
      <use xlink:href="#DejaVuSans-69" x="246.851562"/>
      <use xlink:href="#DejaVuSans-6f" x="274.634766"/>
      <use xlink:href="#DejaVuSans-6e" x="335.816406"/>
      <use xlink:href="#DejaVuSans-20" x="399.195312"/>
      <use xlink:href="#DejaVuSans-6f" x="430.982422"/>
      <use xlink:href="#DejaVuSans-66" x="492.164062"/>
      <use xlink:href="#DejaVuSans-20" x="527.369141"/>
      <use xlink:href="#DejaVuSans-66" x="559.15625"/>
      <use xlink:href="#DejaVuSans-75" x="594.361328"/>
      <use xlink:href="#DejaVuSans-6e" x="657.740234"/>
      <use xlink:href="#DejaVuSans-63" x="721.119141"/>
      <use xlink:href="#DejaVuSans-74" x="776.099609"/>
      <use xlink:href="#DejaVuSans-69" x="815.308594"/>
      <use xlink:href="#DejaVuSans-6f" x="843.091797"/>
      <use xlink:href="#DejaVuSans-6e" x="904.273438"/>
      <use xlink:href="#DejaVuSans-2c" x="967.652344"/>
      <use xlink:href="#DejaVuSans-74" x="999.439453"/>
      <use xlink:href="#DejaVuSans-61" x="1038.648438"/>
      <use xlink:href="#DejaVuSans-72" x="1099.927734"/>
      <use xlink:href="#DejaVuSans-67" x="1139.291016"/>
      <use xlink:href="#DejaVuSans-65" x="1202.767578"/>
      <use xlink:href="#DejaVuSans-74" x="1264.291016"/>
      <use xlink:href="#DejaVuSans-20" x="1303.5"/>
      <use xlink:href="#DejaVuSans-70" x="1335.287109"/>
      <use xlink:href="#DejaVuSans-61" x="1398.763672"/>
      <use xlink:href="#DejaVuSans-69" x="1460.042969"/>
      <use xlink:href="#DejaVuSans-72" x="1487.826172"/>
      <use xlink:href="#DejaVuSans-73" x="1528.939453"/>
     </g>
    </g>
   </g>
   <g id="line2d_33">
    <defs>
     <path id="m29d300fe9a" d="M 0 1.5 
C 0.397805 1.5 0.77937 1.341951 1.06066 1.06066 
C 1.341951 0.77937 1.5 0.397805 1.5 0 
C 1.5 -0.397805 1.341951 -0.77937 1.06066 -1.06066 
C 0.77937 -1.341951 0.397805 -1.5 0 -1.5 
C -0.397805 -1.5 -0.77937 -1.341951 -1.06066 -1.06066 
C -1.341951 -0.77937 -1.5 -0.397805 -1.5 0 
C -1.5 0.397805 -1.341951 0.77937 -1.06066 1.06066 
C -0.77937 1.341951 -0.397805 1.5 0 1.5 
z
" style="stroke: #f5deb3"/>
    </defs>
    <g>
     <use xlink:href="#m29d300fe9a" x="176.196469" y="27.648" style="fill: #f5deb3; stroke: #f5deb3"/>
     <use xlink:href="#m29d300fe9a" x="176.196469" y="27.648" style="fill: #f5deb3; stroke: #f5deb3"/>
    </g>
   </g>
   <g id="line2d_34">
    <defs>
     <path id="mef0d39861b" d="M 0 1.5 
C 0.397805 1.5 0.77937 1.341951 1.06066 1.06066 
C 1.341951 0.77937 1.5 0.397805 1.5 0 
C 1.5 -0.397805 1.341951 -0.77937 1.06066 -1.06066 
C 0.77937 -1.341951 0.397805 -1.5 0 -1.5 
C -0.397805 -1.5 -0.77937 -1.341951 -1.06066 -1.06066 
C -1.341951 -0.77937 -1.5 -0.397805 -1.5 0 
C -1.5 0.397805 -1.341951 0.77937 -1.06066 1.06066 
C -0.77937 1.341951 -0.397805 1.5 0 1.5 
z
" style="stroke: #000080"/>
    </defs>
    <g>
     <use xlink:href="#mef0d39861b" x="348.890799" y="192.553412" style="fill: #000080; stroke: #000080"/>
     <use xlink:href="#mef0d39861b" x="348.890799" y="192.553412" style="fill: #000080; stroke: #000080"/>
    </g>
   </g>
   <g id="line2d_35">
    <path d="M 187.543719 298.944 
L 187.543719 298.589365 
L 190.703768 298.589365 
L 190.703768 298.234729 
L 191.794375 298.234729 
L 191.794375 297.880094 
L 192.600802 297.880094 
L 192.600802 297.525459 
L 193.656219 297.525459 
L 193.656219 297.170824 
L 194.814726 297.170824 
L 194.814726 296.816188 
L 195.018137 296.816188 
L 195.018137 296.461553 
L 196.562635 296.461553 
L 196.609169 295.752282 
L 197.572856 295.752282 
L 197.619162 295.043012 
L 198.112573 295.043012 
L 198.188579 294.333741 
L 198.617405 294.333741 
L 198.638279 293.624471 
L 199.169984 293.624471 
L 199.169984 293.269835 
L 199.333547 293.269835 
L 199.333547 292.9152 
L 199.572284 292.9152 
L 199.572284 292.205929 
L 200.02536 292.205929 
L 200.02536 291.851294 
L 200.457366 291.851294 
L 200.52165 291.142024 
L 200.90928 291.142024 
L 201.016217 289.368847 
L 201.112491 289.368847 
L 201.112491 288.304941 
L 201.328907 288.304941 
L 201.401096 287.595671 
L 201.562515 287.595671 
L 201.59909 286.531765 
L 202.029918 286.531765 
L 202.070812 285.822494 
L 202.181734 285.822494 
L 202.181734 285.467859 
L 202.304885 285.467859 
L 202.304885 285.113224 
L 202.524207 285.113224 
L 202.524207 284.758588 
L 203.284121 284.758588 
L 203.390564 283.340047 
L 203.425373 283.340047 
L 203.441541 282.630776 
L 203.697561 282.630776 
L 203.79694 280.8576 
L 204.213344 280.8576 
L 204.213344 280.502965 
L 204.556109 280.502965 
L 204.556109 280.148329 
L 205.240349 280.148329 
L 205.240349 279.793694 
L 205.657223 279.793694 
L 205.657223 279.439059 
L 205.806033 279.439059 
L 205.833805 278.375153 
L 205.920415 278.375153 
L 205.990406 277.665882 
L 206.033402 277.665882 
L 206.033402 276.956612 
L 206.147114 276.956612 
L 206.240656 274.8288 
L 206.260839 274.8288 
L 206.260839 274.474165 
L 206.602043 274.474165 
L 206.602043 274.119529 
L 206.769336 274.119529 
L 206.846361 272.346353 
L 206.900898 272.346353 
L 207.010837 271.637082 
L 207.020192 271.637082 
L 207.020192 271.282447 
L 207.133423 271.282447 
L 207.151344 270.573176 
L 207.279611 270.573176 
L 207.279611 270.218541 
L 207.450808 270.218541 
L 207.502972 269.509271 
L 207.592616 269.509271 
L 207.701174 268.8 
L 207.742366 268.8 
L 207.787957 268.090729 
L 207.883277 268.090729 
L 207.969225 267.381459 
L 208.026307 267.381459 
L 208.041499 266.672188 
L 208.180196 266.672188 
L 208.180196 265.608282 
L 208.395037 265.608282 
L 208.504015 264.899012 
L 208.820533 264.899012 
L 208.869038 264.189741 
L 208.973505 264.189741 
L 209.083981 262.7712 
L 209.141365 262.7712 
L 209.237804 261.352659 
L 209.271619 261.352659 
L 209.291168 260.643388 
L 209.449772 260.643388 
L 209.52185 259.934118 
L 209.588409 259.934118 
L 209.669827 259.224847 
L 210.009695 259.224847 
L 210.015963 258.515576 
L 211.256044 258.515576 
L 211.256044 258.160941 
L 211.645612 258.160941 
L 211.702472 257.097035 
L 211.838446 257.097035 
L 211.838446 256.7424 
L 212.185314 256.7424 
L 212.278493 255.323859 
L 212.411886 255.323859 
L 212.411886 254.969224 
L 213.021366 254.969224 
L 213.021366 254.614588 
L 213.196336 254.614588 
L 213.196336 254.259953 
L 213.390656 254.259953 
L 213.390656 253.905318 
L 213.801349 253.905318 
L 213.876206 253.196047 
L 214.057689 253.196047 
L 214.057689 252.486776 
L 214.941053 252.486776 
L 215.03291 251.777506 
L 215.784369 251.777506 
L 215.784369 251.422871 
L 215.920139 251.422871 
L 215.920139 250.7136 
L 216.113942 250.7136 
L 216.113942 250.004329 
L 216.550483 250.004329 
L 216.570599 249.295059 
L 216.796823 249.295059 
L 216.906553 248.231153 
L 217.124893 248.231153 
L 217.210202 247.167247 
L 217.697815 247.167247 
L 217.766238 246.457976 
L 218.199307 246.457976 
L 218.199307 246.103341 
L 218.326098 246.103341 
L 218.421819 245.039435 
L 218.776315 245.039435 
L 218.776315 244.330165 
L 218.890049 244.330165 
L 218.890049 243.975529 
L 219.02464 243.975529 
L 219.02464 243.266259 
L 219.186289 243.266259 
L 219.186289 242.911624 
L 219.421695 242.911624 
L 219.421695 242.556988 
L 219.748837 242.556988 
L 219.748837 241.847718 
L 220.106074 241.847718 
L 220.1387 241.138447 
L 220.488677 241.138447 
L 220.488677 240.783812 
L 221.619591 240.783812 
L 221.619591 240.429176 
L 221.769641 240.429176 
L 221.861528 239.719906 
L 223.129907 239.719906 
L 223.129907 239.365271 
L 223.585131 239.365271 
L 223.692555 238.656 
L 223.973526 238.656 
L 223.973526 238.301365 
L 224.587623 238.301365 
L 224.587623 237.946729 
L 226.036974 237.946729 
L 226.036974 237.592094 
L 226.30586 237.592094 
L 226.30586 237.237459 
L 274.521776 237.237459 
L 274.626829 235.109647 
L 274.672028 235.109647 
L 274.773587 232.272565 
L 274.787104 232.272565 
L 274.862961 230.854024 
L 274.930671 230.854024 
L 275.036095 229.435482 
L 275.051239 229.435482 
L 275.152884 226.953035 
L 275.293164 226.953035 
L 275.38362 225.889129 
L 275.597524 225.889129 
L 275.597524 225.534494 
L 287.432876 225.534494 
L 287.523208 223.406682 
L 287.561606 223.406682 
L 287.657884 221.988141 
L 287.678332 221.988141 
L 287.714171 220.5696 
L 287.856338 220.5696 
L 287.939361 218.796424 
L 295.048449 218.796424 
L 295.138897 217.377882 
L 295.159797 217.377882 
L 295.263777 214.895435 
L 295.286561 214.895435 
L 295.286561 214.5408 
L 300.428455 214.5408 
L 300.508643 213.122259 
L 300.563599 213.122259 
L 300.619927 212.058353 
L 304.642984 212.058353 
L 304.740927 210.285176 
L 308.046974 210.285176 
L 308.122835 208.512 
L 310.918187 208.512 
L 310.991361 206.738824 
L 313.413099 206.738824 
L 313.4772 205.674918 
L 315.615532 205.674918 
L 315.653586 203.901741 
L 317.584748 203.901741 
L 317.638285 201.773929 
L 319.380433 201.773929 
L 319.417893 200.710024 
L 321.003731 200.710024 
L 321.043602 199.646118 
L 325.215422 199.646118 
L 325.215422 199.291482 
L 327.529507 199.291482 
L 327.559801 198.227576 
L 329.633997 198.227576 
L 329.633997 197.872941 
L 330.59764 197.872941 
L 330.603017 197.163671 
L 331.498698 197.163671 
L 331.498698 196.809035 
L 332.389357 196.809035 
L 332.389357 196.4544 
L 333.222697 196.4544 
L 333.222697 196.099765 
L 334.020681 196.099765 
L 334.021551 195.390494 
L 334.766398 195.390494 
L 334.787023 194.681224 
L 338.206262 194.681224 
L 338.206262 194.326588 
L 340.551913 194.326588 
L 340.55508 193.617318 
L 343.130569 193.617318 
L 343.130569 193.262682 
L 345.396011 193.262682 
L 345.396011 192.908047 
L 348.890799 192.908047 
L 348.890799 192.553412 
L 360.8064 192.553412 
L 360.8064 192.553412 
" style="fill: none; stroke: #000080; stroke-width: 1.5; stroke-linecap: square"/>
   </g>
   <g id="line2d_36">
    <defs>
     <path id="mbd0e98dcc1" d="M 0 6 
C 1.591219 6 3.117479 5.367802 4.242641 4.242641 
C 5.367802 3.117479 6 1.591219 6 0 
C 6 -1.591219 5.367802 -3.117479 4.242641 -4.242641 
C 3.117479 -5.367802 1.591219 -6 0 -6 
C -1.591219 -6 -3.117479 -5.367802 -4.242641 -4.242641 
C -5.367802 -3.117479 -6 -1.591219 -6 0 
C -6 1.591219 -5.367802 3.117479 -4.242641 4.242641 
C -3.117479 5.367802 -1.591219 6 0 6 
z
" style="stroke: #000080; stroke-width: 1.5"/>
    </defs>
    <g>
     <use xlink:href="#mbd0e98dcc1" x="226.30586" y="237.237459" style="fill-opacity: 0; stroke: #000080; stroke-width: 1.5"/>
     <use xlink:href="#mbd0e98dcc1" x="321.043602" y="200.000753" style="fill-opacity: 0; stroke: #000080; stroke-width: 1.5"/>
     <use xlink:href="#mbd0e98dcc1" x="348.890799" y="192.553412" style="fill-opacity: 0; stroke: #000080; stroke-width: 1.5"/>
     <use xlink:href="#mbd0e98dcc1" x="360.8064" y="192.553412" style="fill-opacity: 0; stroke: #000080; stroke-width: 1.5"/>
    </g>
   </g>
   <g id="line2d_37">
    <path style="fill: none; stroke: #000080; stroke-width: 1.5; stroke-linecap: square"/>
    <g/>
   </g>
   <g id="line2d_38">
    <path d="M 274.176 237.237459 
" clip-path="url(#pfd98794916)" style="fill: none; stroke: #000080; stroke-width: 1.5; stroke-linecap: square"/>
    <defs>
     <path id="mc8528ba70d" d="M -12 12 
L 12 -12 
M -12 -12 
L 12 12 
" style="stroke: #000080"/>
    </defs>
    <g clip-path="url(#pfd98794916)">
     <use xlink:href="#mc8528ba70d" x="274.176" y="237.237459" style="fill: #000080; stroke: #000080"/>
    </g>
   </g>
   <g id="line2d_39">
    <defs>
     <path id="m22371f0613" d="M 0 1.5 
C 0.397805 1.5 0.77937 1.341951 1.06066 1.06066 
C 1.341951 0.77937 1.5 0.397805 1.5 0 
C 1.5 -0.397805 1.341951 -0.77937 1.06066 -1.06066 
C 0.77937 -1.341951 0.397805 -1.5 0 -1.5 
C -0.397805 -1.5 -0.77937 -1.341951 -1.06066 -1.06066 
C -1.341951 -0.77937 -1.5 -0.397805 -1.5 0 
C -1.5 0.397805 -1.341951 0.77937 -1.06066 1.06066 
C -0.77937 1.341951 -0.397805 1.5 0 1.5 
z
" style="stroke: #ff00ff"/>
    </defs>
    <g>
     <use xlink:href="#m22371f0613" x="363.146447" y="203.192471" style="fill: #ff00ff; stroke: #ff00ff"/>
     <use xlink:href="#m22371f0613" x="363.146447" y="203.192471" style="fill: #ff00ff; stroke: #ff00ff"/>
    </g>
   </g>
   <g id="line2d_40">
    <path d="M 233.618075 298.944 
L 233.618075 298.589365 
L 233.787253 298.589365 
L 233.787253 298.234729 
L 234.515876 298.234729 
L 234.515876 297.880094 
L 234.790201 297.880094 
L 234.790201 297.525459 
L 235.062088 297.525459 
L 235.062088 297.170824 
L 235.259212 297.170824 
L 235.259212 296.816188 
L 235.387272 296.816188 
L 235.419926 296.106918 
L 235.724514 296.106918 
L 235.755283 295.397647 
L 235.836464 295.397647 
L 235.91974 294.333741 
L 235.955502 294.333741 
L 235.955502 293.979106 
L 236.285898 293.979106 
L 236.301259 293.269835 
L 236.433074 293.269835 
L 236.538534 291.496659 
L 236.621812 291.496659 
L 236.648246 290.787388 
L 236.817586 290.787388 
L 236.817586 290.432753 
L 236.983378 290.432753 
L 236.983378 290.078118 
L 237.210375 290.078118 
L 237.27175 288.304941 
L 237.342125 288.304941 
L 237.423123 287.241035 
L 237.563937 287.241035 
L 237.563937 286.8864 
L 237.866568 286.8864 
L 237.955409 285.467859 
L 237.981967 285.467859 
L 238.041265 284.758588 
L 238.19513 284.758588 
L 238.296125 283.694682 
L 238.516049 283.694682 
L 238.516049 283.340047 
L 238.815446 283.340047 
L 238.92396 282.276141 
L 239.007346 282.276141 
L 239.115126 281.212235 
L 239.128464 281.212235 
L 239.233264 279.793694 
L 239.240013 279.793694 
L 239.322613 278.375153 
L 239.469124 278.375153 
L 239.469124 277.665882 
L 239.983418 277.665882 
L 240.03027 276.601976 
L 240.131557 276.601976 
L 240.131557 276.247341 
L 240.285264 276.247341 
L 240.346148 274.474165 
L 240.509723 274.474165 
L 240.509723 274.119529 
L 240.850928 274.119529 
L 240.958243 273.055624 
L 240.975282 273.055624 
L 240.975282 272.700988 
L 241.157565 272.700988 
L 241.157565 272.346353 
L 241.345749 272.346353 
L 241.408455 271.282447 
L 241.602662 271.282447 
L 241.661023 270.218541 
L 241.851919 270.218541 
L 241.851919 269.863906 
L 241.964116 269.863906 
L 241.98912 268.8 
L 242.437159 268.8 
L 242.521553 268.090729 
L 242.613831 268.090729 
L 242.640803 267.026824 
L 243.018052 267.026824 
L 243.115876 265.962918 
L 243.339979 265.962918 
L 243.412224 265.253647 
L 243.599041 265.253647 
L 243.617764 264.544376 
L 243.904113 264.544376 
L 244.009888 262.416565 
L 244.160489 262.416565 
L 244.160489 262.061929 
L 244.302438 262.061929 
L 244.413419 260.998024 
L 245.250374 260.998024 
L 245.250374 260.643388 
L 245.705472 260.643388 
L 245.781199 258.870212 
L 246.141056 258.870212 
L 246.24472 258.160941 
L 246.328481 258.160941 
L 246.387578 257.451671 
L 246.573636 257.451671 
L 246.573636 257.097035 
L 246.960636 257.097035 
L 247.022802 256.387765 
L 247.083334 256.387765 
L 247.094608 255.678494 
L 247.381387 255.678494 
L 247.381387 255.323859 
L 247.526062 255.323859 
L 247.526062 254.969224 
L 247.81059 254.969224 
L 247.81059 254.614588 
L 248.144997 254.614588 
L 248.144997 254.259953 
L 248.822498 254.259953 
L 248.822498 253.905318 
L 250.113964 253.905318 
L 250.113964 253.550682 
L 250.469131 253.550682 
L 250.469131 253.196047 
L 276.659548 253.196047 
L 276.767167 252.486776 
L 276.873668 252.486776 
L 276.93602 250.358965 
L 277.012878 250.358965 
L 277.053054 249.295059 
L 277.134661 249.295059 
L 277.146311 248.231153 
L 277.369712 248.231153 
L 277.477317 246.457976 
L 277.513569 246.457976 
L 277.624115 244.330165 
L 277.674492 244.330165 
L 277.674492 243.975529 
L 277.837658 243.975529 
L 277.9279 242.202353 
L 277.9983 242.202353 
L 278.078591 240.074541 
L 278.177301 240.074541 
L 278.26074 239.365271 
L 278.316614 239.365271 
L 278.383155 238.301365 
L 278.520898 238.301365 
L 278.520898 237.946729 
L 288.562299 237.946729 
L 288.562299 237.592094 
L 288.687422 237.592094 
L 288.687422 237.237459 
L 288.830865 237.237459 
L 288.830865 236.882824 
L 288.957881 236.882824 
L 289.055367 235.464282 
L 289.179594 235.464282 
L 289.267492 233.691106 
L 289.314417 233.691106 
L 289.399176 231.917929 
L 289.436123 231.917929 
L 289.436123 231.563294 
L 289.665864 231.563294 
L 289.709608 230.144753 
L 295.79691 230.144753 
L 295.79691 229.790118 
L 295.909521 229.790118 
L 295.980396 228.726212 
L 296.022157 228.726212 
L 296.061757 228.016941 
L 296.143973 228.016941 
L 296.235383 226.243765 
L 296.263266 226.243765 
L 296.326403 225.534494 
L 301.004872 225.534494 
L 301.11408 224.825224 
L 301.149226 224.825224 
L 301.173614 223.761318 
L 301.264155 223.761318 
L 301.264155 223.406682 
L 301.438212 223.406682 
L 301.438212 223.052047 
L 305.002505 223.052047 
L 305.030195 222.342776 
L 305.142925 222.342776 
L 305.168595 221.633506 
L 305.281146 221.633506 
L 305.356274 219.860329 
L 305.470922 219.860329 
L 305.489815 219.151059 
L 308.575224 219.151059 
L 308.638303 218.441788 
L 311.296196 218.441788 
L 311.405654 217.023247 
L 311.528665 217.023247 
L 311.528665 216.668612 
L 313.744568 216.668612 
L 313.768105 215.959341 
L 313.863751 215.959341 
L 313.863751 215.604706 
L 315.978931 215.604706 
L 315.996366 214.895435 
L 317.839822 214.895435 
L 317.930208 213.476894 
L 321.211916 213.476894 
L 321.303017 211.703718 
L 322.757364 211.703718 
L 322.757364 210.994447 
L 324.135384 210.994447 
L 324.148723 209.930541 
L 325.405556 209.930541 
L 325.405556 209.575906 
L 326.590277 209.575906 
L 326.590277 209.221271 
L 327.72328 209.221271 
L 327.72328 208.866635 
L 328.777512 208.866635 
L 328.777512 208.512 
L 329.78261 208.512 
L 329.78261 208.157365 
L 330.74598 208.157365 
L 330.751159 207.448094 
L 331.653587 207.448094 
L 331.653587 207.093459 
L 332.519413 207.093459 
L 332.524127 206.384188 
L 337.669019 206.384188 
L 337.669019 206.029553 
L 338.917368 206.029553 
L 338.917368 205.674918 
L 339.510166 205.674918 
L 339.510166 205.320282 
L 340.639441 205.320282 
L 340.639441 204.965647 
L 345.887876 204.965647 
L 345.887876 204.611012 
L 351.883625 204.611012 
L 351.883625 204.256376 
L 353.337414 204.256376 
L 353.337414 203.901741 
L 357.35469 203.901741 
L 357.35469 203.547106 
L 360.8064 203.547106 
L 360.8064 203.547106 
" style="fill: none; stroke: #ff00ff; stroke-width: 1.5; stroke-linecap: square"/>
   </g>
   <g id="line2d_41">
    <defs>
     <path id="m8d8aea4296" d="M 0 8.485281 
L 5.091169 0 
L 0 -8.485281 
L -5.091169 0 
z
" style="stroke: #ff00ff; stroke-width: 1.5; stroke-linejoin: miter"/>
    </defs>
    <g>
     <use xlink:href="#m8d8aea4296" x="288.687422" y="237.592094" style="fill-opacity: 0; stroke: #ff00ff; stroke-width: 1.5; stroke-linejoin: miter"/>
     <use xlink:href="#m8d8aea4296" x="345.887876" y="204.965647" style="fill-opacity: 0; stroke: #ff00ff; stroke-width: 1.5; stroke-linejoin: miter"/>
     <use xlink:href="#m8d8aea4296" x="357.35469" y="203.547106" style="fill-opacity: 0; stroke: #ff00ff; stroke-width: 1.5; stroke-linejoin: miter"/>
     <use xlink:href="#m8d8aea4296" x="360.8064" y="203.547106" style="fill-opacity: 0; stroke: #ff00ff; stroke-width: 1.5; stroke-linejoin: miter"/>
    </g>
   </g>
   <g id="line2d_42">
    <path style="fill: none; stroke: #ff00ff; stroke-width: 1.5; stroke-linecap: square"/>
    <g/>
   </g>
   <g id="line2d_43">
    <path d="M 274.176 253.196047 
" clip-path="url(#pfd98794916)" style="fill: none; stroke: #ff00ff; stroke-width: 1.5; stroke-linecap: square"/>
    <defs>
     <path id="ma188ace2c5" d="M -12 12 
L 12 -12 
M -12 -12 
L 12 12 
" style="stroke: #ff00ff"/>
    </defs>
    <g clip-path="url(#pfd98794916)">
     <use xlink:href="#ma188ace2c5" x="274.176" y="253.196047" style="fill: #ff00ff; stroke: #ff00ff"/>
    </g>
   </g>
   <g id="line2d_44">
    <defs>
     <path id="m0f84aa3421" d="M 0 1.5 
C 0.397805 1.5 0.77937 1.341951 1.06066 1.06066 
C 1.341951 0.77937 1.5 0.397805 1.5 0 
C 1.5 -0.397805 1.341951 -0.77937 1.06066 -1.06066 
C 0.77937 -1.341951 0.397805 -1.5 0 -1.5 
C -0.397805 -1.5 -0.77937 -1.341951 -1.06066 -1.06066 
C -1.341951 -0.77937 -1.5 -0.397805 -1.5 0 
C -1.5 0.397805 -1.341951 0.77937 -1.06066 1.06066 
C -0.77937 1.341951 -0.397805 1.5 0 1.5 
z
" style="stroke: #ff7500"/>
    </defs>
    <g>
     <use xlink:href="#m0f84aa3421" x="342.108152" y="192.553412" style="fill: #ff7500; stroke: #ff7500"/>
     <use xlink:href="#m0f84aa3421" x="342.108152" y="192.553412" style="fill: #ff7500; stroke: #ff7500"/>
    </g>
   </g>
   <g id="line2d_45">
    <path d="M 173.0195 298.944 
L 173.0195 298.589365 
L 174.374282 298.589365 
L 174.374282 297.880094 
L 174.540256 297.880094 
L 174.540256 297.525459 
L 174.867875 297.525459 
L 174.956244 296.461553 
L 175.182628 296.461553 
L 175.182628 296.106918 
L 175.413492 296.106918 
L 175.413492 295.752282 
L 175.591903 295.752282 
L 175.694612 295.043012 
L 175.712263 295.043012 
L 175.712263 294.688376 
L 175.985509 294.688376 
L 175.985509 294.333741 
L 176.137914 294.333741 
L 176.137914 293.979106 
L 176.503464 293.979106 
L 176.503464 293.624471 
L 176.641673 293.624471 
L 176.688635 292.560565 
L 176.778874 292.560565 
L 176.881951 291.496659 
L 177.151915 291.496659 
L 177.151915 291.142024 
L 177.395487 291.142024 
L 177.434167 290.432753 
L 177.514497 290.432753 
L 177.565728 288.304941 
L 177.775595 288.304941 
L 177.819813 287.241035 
L 178.086071 287.241035 
L 178.179151 286.177129 
L 178.314842 286.177129 
L 178.415971 285.113224 
L 178.437353 285.113224 
L 178.495268 283.694682 
L 178.655883 283.694682 
L 178.740186 282.630776 
L 178.794182 282.630776 
L 178.794182 282.276141 
L 178.981956 282.276141 
L 178.981956 281.921506 
L 179.12966 281.921506 
L 179.170811 280.8576 
L 179.24407 280.8576 
L 179.24407 280.148329 
L 179.56594 280.148329 
L 179.58031 279.439059 
L 179.94449 279.439059 
L 179.969833 278.729788 
L 180.115594 278.729788 
L 180.221402 277.665882 
L 180.29069 277.665882 
L 180.29069 277.311247 
L 180.436741 277.311247 
L 180.529841 275.538071 
L 180.557135 275.538071 
L 180.627917 274.8288 
L 180.682184 274.8288 
L 180.755196 273.764894 
L 181.015188 273.764894 
L 181.094875 272.346353 
L 181.161025 272.346353 
L 181.229574 270.927812 
L 181.303119 270.927812 
L 181.303119 270.573176 
L 181.527223 270.573176 
L 181.568624 269.863906 
L 181.712814 269.863906 
L 181.792161 269.154635 
L 181.850816 269.154635 
L 181.95239 268.445365 
L 182.071044 268.445365 
L 182.173942 267.026824 
L 182.266321 267.026824 
L 182.365682 265.962918 
L 182.390441 265.962918 
L 182.464522 265.253647 
L 182.538312 265.253647 
L 182.616704 263.480471 
L 182.663095 263.480471 
L 182.663095 263.125835 
L 182.816104 263.125835 
L 182.87889 262.416565 
L 182.955878 262.416565 
L 182.955878 262.061929 
L 183.092238 262.061929 
L 183.092238 261.707294 
L 183.206305 261.707294 
L 183.281967 260.998024 
L 183.359677 260.998024 
L 183.45578 259.934118 
L 183.535105 259.934118 
L 183.535105 259.579482 
L 183.667344 259.579482 
L 183.667344 259.224847 
L 183.878841 259.224847 
L 183.878841 258.870212 
L 184.137657 258.870212 
L 184.214164 258.160941 
L 184.306009 258.160941 
L 184.355108 257.451671 
L 184.49058 257.451671 
L 184.49058 257.097035 
L 184.917213 257.097035 
L 184.943154 256.033129 
L 185.175028 256.033129 
L 185.175028 255.678494 
L 185.372431 255.678494 
L 185.372431 255.323859 
L 185.684446 255.323859 
L 185.684446 254.969224 
L 185.79626 254.969224 
L 185.79626 254.614588 
L 186.224881 254.614588 
L 186.224881 254.259953 
L 186.493364 254.259953 
L 186.554934 253.550682 
L 186.744333 253.550682 
L 186.744333 253.196047 
L 186.984247 253.196047 
L 186.984247 252.841412 
L 187.144429 252.841412 
L 187.144429 252.486776 
L 187.422926 252.486776 
L 187.422926 252.132141 
L 187.643167 252.132141 
L 187.643167 251.777506 
L 187.903358 251.777506 
L 187.903358 251.422871 
L 188.09434 251.422871 
L 188.09434 251.068235 
L 188.860511 251.068235 
L 188.860511 250.7136 
L 188.974187 250.7136 
L 188.974187 250.358965 
L 189.211554 250.358965 
L 189.211554 250.004329 
L 189.367582 250.004329 
L 189.367582 249.649694 
L 189.726134 249.649694 
L 189.791356 248.940424 
L 190.279139 248.940424 
L 190.279139 248.585788 
L 192.412945 248.585788 
L 192.412945 248.231153 
L 274.298777 248.231153 
L 274.392289 239.010635 
L 274.418101 239.010635 
L 274.418101 238.301365 
L 287.279025 238.301365 
L 287.336615 229.435482 
L 294.888184 229.435482 
L 294.92365 221.988141 
L 300.288545 221.988141 
L 300.308655 217.732518 
L 304.480834 217.732518 
L 304.494372 212.412988 
L 307.909022 212.412988 
L 307.922344 209.221271 
L 310.803445 209.221271 
L 310.81093 207.802729 
L 313.31396 207.802729 
L 313.320696 204.965647 
L 315.52868 204.965647 
L 315.532029 203.901741 
L 317.50898 203.901741 
L 317.515551 201.773929 
L 319.300297 201.773929 
L 319.306271 200.000753 
L 320.932357 200.000753 
L 320.941246 198.936847 
L 322.440839 198.936847 
L 322.443405 197.163671 
L 323.83411 197.163671 
L 323.838162 195.745129 
L 325.132325 195.745129 
L 325.132754 195.035859 
L 326.345646 195.035859 
L 326.345646 194.681224 
L 327.487469 194.681224 
L 327.487469 194.326588 
L 328.557465 194.326588 
L 328.557465 193.971953 
L 331.458549 193.971953 
L 331.458549 193.617318 
L 333.970276 193.617318 
L 333.970276 193.262682 
L 339.956398 193.262682 
L 339.956398 192.908047 
L 342.108152 192.908047 
L 342.108152 192.553412 
L 360.8064 192.553412 
L 360.8064 192.553412 
" style="fill: none; stroke: #ff7500; stroke-width: 1.5; stroke-linecap: square"/>
   </g>
   <g id="line2d_46">
    <defs>
     <path id="m9a17243f9e" d="M 0 -6 
L -1.347084 -1.854102 
L -5.706339 -1.854102 
L -2.179628 0.708204 
L -3.526712 4.854102 
L -0 2.291796 
L 3.526712 4.854102 
L 2.179628 0.708204 
L 5.706339 -1.854102 
L 1.347084 -1.854102 
z
" style="stroke: #ff7500; stroke-width: 1.5; stroke-linejoin: bevel"/>
    </defs>
    <g>
     <use xlink:href="#m9a17243f9e" x="192.412945" y="248.585788" style="fill-opacity: 0; stroke: #ff7500; stroke-width: 1.5; stroke-linejoin: bevel"/>
     <use xlink:href="#m9a17243f9e" x="274.418101" y="239.010635" style="fill-opacity: 0; stroke: #ff7500; stroke-width: 1.5; stroke-linejoin: bevel"/>
     <use xlink:href="#m9a17243f9e" x="342.108152" y="192.553412" style="fill-opacity: 0; stroke: #ff7500; stroke-width: 1.5; stroke-linejoin: bevel"/>
     <use xlink:href="#m9a17243f9e" x="360.8064" y="192.553412" style="fill-opacity: 0; stroke: #ff7500; stroke-width: 1.5; stroke-linejoin: bevel"/>
    </g>
   </g>
   <g id="line2d_47">
    <path style="fill: none; stroke: #ff7500; stroke-width: 1.5; stroke-linecap: square"/>
    <g/>
   </g>
   <g id="line2d_48">
    <path d="M 274.176 248.231153 
" clip-path="url(#pfd98794916)" style="fill: none; stroke: #ff7500; stroke-width: 1.5; stroke-linecap: square"/>
    <defs>
     <path id="m94b4bedf1f" d="M -12 12 
L 12 -12 
M -12 -12 
L 12 12 
" style="stroke: #ff7500"/>
    </defs>
    <g clip-path="url(#pfd98794916)">
     <use xlink:href="#m94b4bedf1f" x="274.176" y="248.231153" style="fill: #ff7500; stroke: #ff7500"/>
    </g>
   </g>
   <g id="line2d_49">
    <defs>
     <path id="m3acdac2a08" d="M 0 1.5 
C 0.397805 1.5 0.77937 1.341951 1.06066 1.06066 
C 1.341951 0.77937 1.5 0.397805 1.5 0 
C 1.5 -0.397805 1.341951 -0.77937 1.06066 -1.06066 
C 0.77937 -1.341951 0.397805 -1.5 0 -1.5 
C -0.397805 -1.5 -0.77937 -1.341951 -1.06066 -1.06066 
C -1.341951 -0.77937 -1.5 -0.397805 -1.5 0 
C -1.5 0.397805 -1.341951 0.77937 -1.06066 1.06066 
C -0.77937 1.341951 -0.397805 1.5 0 1.5 
z
" style="stroke: #6495ed"/>
    </defs>
    <g>
     <use xlink:href="#m3acdac2a08" x="304.011149" y="219.151059" style="fill: #6495ed; stroke: #6495ed"/>
     <use xlink:href="#m3acdac2a08" x="304.011149" y="219.151059" style="fill: #6495ed; stroke: #6495ed"/>
    </g>
   </g>
   <g id="line2d_50">
    <path d="M 215.213995 298.944 
L 215.213995 298.589365 
L 216.915241 298.589365 
L 216.994036 297.880094 
L 217.139333 297.880094 
L 217.247089 296.106918 
L 217.257947 296.106918 
L 217.335323 294.333741 
L 217.412381 294.333741 
L 217.511706 291.851294 
L 217.549533 291.851294 
L 217.643201 290.432753 
L 217.773406 290.432753 
L 217.773406 290.078118 
L 220.330642 290.078118 
L 220.330642 289.723482 
L 222.737994 289.723482 
L 222.737994 289.368847 
L 222.96834 289.368847 
L 222.96834 289.014212 
L 223.139267 289.014212 
L 223.139267 288.659576 
L 223.420739 288.659576 
L 223.420739 287.950306 
L 223.652308 287.950306 
L 223.652308 287.595671 
L 223.900952 287.595671 
L 223.991151 286.531765 
L 224.979474 286.531765 
L 224.979474 286.177129 
L 225.548117 286.177129 
L 225.548117 285.822494 
L 226.046696 285.822494 
L 226.057869 285.113224 
L 226.195054 285.113224 
L 226.263874 284.049318 
L 226.31185 284.049318 
L 226.383825 282.985412 
L 226.425544 282.985412 
L 226.441255 281.921506 
L 227.222594 281.921506 
L 227.317991 281.212235 
L 227.337511 281.212235 
L 227.402056 280.502965 
L 227.508468 280.502965 
L 227.594822 278.729788 
L 227.652469 278.729788 
L 227.729725 277.311247 
L 227.798033 277.311247 
L 227.899372 274.8288 
L 227.936986 274.8288 
L 228.040423 272.346353 
L 228.071867 272.346353 
L 228.171094 270.927812 
L 228.192351 270.927812 
L 228.291593 267.736094 
L 228.310129 267.736094 
L 228.416467 264.544376 
L 228.457766 264.544376 
L 228.55392 263.480471 
L 228.996115 263.480471 
L 228.996115 263.125835 
L 229.78846 263.125835 
L 229.78846 262.7712 
L 230.085623 262.7712 
L 230.182603 262.061929 
L 230.289366 262.061929 
L 230.289366 261.707294 
L 230.405359 261.707294 
L 230.492078 260.288753 
L 232.258151 260.288753 
L 232.258151 259.934118 
L 232.906158 259.934118 
L 233.006288 259.224847 
L 233.24478 259.224847 
L 233.350875 258.515576 
L 233.508088 258.515576 
L 233.580181 257.097035 
L 233.742277 257.097035 
L 233.838868 256.387765 
L 235.402498 256.387765 
L 235.402498 256.033129 
L 235.52034 256.033129 
L 235.52034 255.678494 
L 236.240587 255.678494 
L 236.240587 255.323859 
L 241.825366 255.323859 
L 241.825366 254.969224 
L 242.379937 254.969224 
L 242.379937 254.614588 
L 242.621484 254.614588 
L 242.719985 252.841412 
L 243.661633 252.841412 
L 243.72193 250.358965 
L 243.813431 250.358965 
L 243.813431 250.004329 
L 244.065351 250.004329 
L 244.065351 249.649694 
L 244.587878 249.649694 
L 244.682401 248.585788 
L 245.132347 248.585788 
L 245.199355 247.876518 
L 245.410158 247.876518 
L 245.410158 247.521882 
L 246.794843 247.521882 
L 246.794843 247.167247 
L 248.07205 247.167247 
L 248.07205 246.812612 
L 250.449353 246.812612 
L 250.544072 246.103341 
L 250.721817 246.103341 
L 250.7502 245.039435 
L 251.383762 245.039435 
L 251.448543 243.975529 
L 251.504752 243.975529 
L 251.504752 243.620894 
L 251.651836 243.620894 
L 251.651836 243.266259 
L 252.238053 243.266259 
L 252.314942 242.556988 
L 252.362508 242.556988 
L 252.362508 242.202353 
L 252.483224 242.202353 
L 252.488408 241.493082 
L 252.732888 241.493082 
L 252.732888 241.138447 
L 253.361163 241.138447 
L 253.361163 240.783812 
L 253.928279 240.783812 
L 253.928279 240.429176 
L 254.068494 240.429176 
L 254.068494 240.074541 
L 254.411838 240.074541 
L 254.411838 239.719906 
L 256.295829 239.719906 
L 256.295829 239.365271 
L 256.957998 239.365271 
L 256.957998 239.010635 
L 257.471712 239.010635 
L 257.581022 237.946729 
L 257.74466 237.946729 
L 257.74466 237.592094 
L 258.187944 237.592094 
L 258.187944 237.237459 
L 258.333225 237.237459 
L 258.443429 235.818918 
L 259.167911 235.818918 
L 259.167911 235.464282 
L 259.405479 235.464282 
L 259.405479 235.109647 
L 261.078004 235.109647 
L 261.082155 234.400376 
L 261.236675 234.400376 
L 261.236675 234.045741 
L 262.875914 234.045741 
L 262.875914 233.691106 
L 263.006285 233.691106 
L 263.006285 233.336471 
L 263.31297 233.336471 
L 263.31297 232.981835 
L 263.829946 232.981835 
L 263.829946 232.6272 
L 264.568301 232.6272 
L 264.568301 232.272565 
L 264.999245 232.272565 
L 265.104961 231.563294 
L 265.427068 231.563294 
L 265.427068 231.208659 
L 265.810252 231.208659 
L 265.897882 230.499388 
L 266.838665 230.499388 
L 266.838665 230.144753 
L 267.456445 230.144753 
L 267.456445 229.790118 
L 267.750943 229.790118 
L 267.761184 229.080847 
L 267.952253 229.080847 
L 267.952253 228.726212 
L 268.505008 228.726212 
L 268.505008 228.371576 
L 268.731267 228.371576 
L 268.731267 228.016941 
L 269.099234 228.016941 
L 269.099234 227.662306 
L 269.358299 227.662306 
L 269.358299 227.307671 
L 270.207086 227.307671 
L 270.254416 226.5984 
L 270.923131 226.5984 
L 270.923131 226.243765 
L 272.975871 226.243765 
L 272.975871 225.889129 
L 275.758611 225.889129 
L 275.758611 225.534494 
L 276.524979 225.534494 
L 276.628135 224.825224 
L 279.732209 224.825224 
L 279.732209 224.470588 
L 280.210447 224.470588 
L 280.210447 224.115953 
L 280.709794 224.115953 
L 280.709794 223.761318 
L 280.929048 223.761318 
L 280.929048 223.406682 
L 281.131484 223.406682 
L 281.131484 223.052047 
L 281.924273 223.052047 
L 281.924273 222.697412 
L 282.39395 222.697412 
L 282.39395 222.342776 
L 283.101679 222.342776 
L 283.101679 221.988141 
L 284.022398 221.988141 
L 284.022398 221.633506 
L 284.576445 221.633506 
L 284.576445 221.278871 
L 287.185297 221.278871 
L 287.185297 220.924235 
L 287.803028 220.924235 
L 287.803028 220.5696 
L 289.420729 220.5696 
L 289.420729 220.214965 
L 291.675618 220.214965 
L 291.675618 219.860329 
L 300.034227 219.860329 
L 300.034227 219.505694 
L 304.011149 219.505694 
L 304.011149 219.151059 
L 360.8064 219.151059 
L 360.8064 219.151059 
" style="fill: none; stroke: #6495ed; stroke-width: 1.5; stroke-linecap: square"/>
   </g>
   <g id="line2d_51">
    <defs>
     <path id="m5affa71481" d="M -0 6 
L 6 -6 
L -6 -6 
z
" style="stroke: #6495ed; stroke-width: 1.5; stroke-linejoin: miter"/>
    </defs>
    <g>
     <use xlink:href="#m5affa71481" x="284.576445" y="221.633506" style="fill-opacity: 0; stroke: #6495ed; stroke-width: 1.5; stroke-linejoin: miter"/>
     <use xlink:href="#m5affa71481" x="304.011149" y="219.151059" style="fill-opacity: 0; stroke: #6495ed; stroke-width: 1.5; stroke-linejoin: miter"/>
     <use xlink:href="#m5affa71481" x="304.011149" y="219.151059" style="fill-opacity: 0; stroke: #6495ed; stroke-width: 1.5; stroke-linejoin: miter"/>
     <use xlink:href="#m5affa71481" x="360.8064" y="219.151059" style="fill-opacity: 0; stroke: #6495ed; stroke-width: 1.5; stroke-linejoin: miter"/>
    </g>
   </g>
   <g id="line2d_52">
    <path style="fill: none; stroke: #6495ed; stroke-width: 1.5; stroke-linecap: square"/>
    <g/>
   </g>
   <g id="line2d_53">
    <path d="M 230.888996 260.288753 
" clip-path="url(#pfd98794916)" style="fill: none; stroke: #6495ed; stroke-width: 1.5; stroke-linecap: square"/>
    <defs>
     <path id="me79fccaaf8" d="M -12 12 
L 12 -12 
M -12 -12 
L 12 12 
" style="stroke: #6495ed"/>
    </defs>
    <g clip-path="url(#pfd98794916)">
     <use xlink:href="#me79fccaaf8" x="230.888996" y="260.288753" style="fill: #6495ed; stroke: #6495ed"/>
    </g>
   </g>
   <g id="line2d_54">
    <path d="M 360.8064 219.151059 
L 380.514816 293.51808 
" style="fill: none; stroke: #6495ed; stroke-width: 1.5; stroke-linecap: square"/>
    <g>
     <use xlink:href="#m5affa71481" x="360.8064" y="219.151059" style="fill-opacity: 0; stroke: #6495ed; stroke-width: 1.5; stroke-linejoin: miter"/>
     <use xlink:href="#m5affa71481" x="380.514816" y="293.51808" style="fill-opacity: 0; stroke: #6495ed; stroke-width: 1.5; stroke-linejoin: miter"/>
    </g>
   </g>
   <g id="line2d_55">
    <path d="M 360.8064 203.547106 
L 380.514816 228.40704 
" style="fill: none; stroke: #ff00ff; stroke-width: 1.5; stroke-linecap: square"/>
    <g>
     <use xlink:href="#m8d8aea4296" x="360.8064" y="203.547106" style="fill-opacity: 0; stroke: #ff00ff; stroke-width: 1.5; stroke-linejoin: miter"/>
     <use xlink:href="#m8d8aea4296" x="380.514816" y="228.40704" style="fill-opacity: 0; stroke: #ff00ff; stroke-width: 1.5; stroke-linejoin: miter"/>
    </g>
   </g>
   <g id="line2d_56">
    <path d="M 360.8064 192.553412 
L 380.514816 163.296 
" style="fill: none; stroke: #000080; stroke-width: 1.5; stroke-linecap: square"/>
    <g>
     <use xlink:href="#mbd0e98dcc1" x="360.8064" y="192.553412" style="fill-opacity: 0; stroke: #000080; stroke-width: 1.5"/>
     <use xlink:href="#mbd0e98dcc1" x="380.514816" y="163.296" style="fill-opacity: 0; stroke: #000080; stroke-width: 1.5"/>
    </g>
   </g>
   <g id="line2d_57">
    <path d="M 360.8064 192.553412 
L 380.514816 98.18496 
" style="fill: none; stroke: #ff7500; stroke-width: 1.5; stroke-linecap: square"/>
    <g>
     <use xlink:href="#m9a17243f9e" x="360.8064" y="192.553412" style="fill-opacity: 0; stroke: #ff7500; stroke-width: 1.5; stroke-linejoin: bevel"/>
     <use xlink:href="#m9a17243f9e" x="380.514816" y="98.18496" style="fill-opacity: 0; stroke: #ff7500; stroke-width: 1.5; stroke-linejoin: bevel"/>
    </g>
   </g>
   <g id="line2d_58">
    <path d="M 360.8064 298.944 
L 360.8064 27.648 
" style="fill: none; stroke: #000000; stroke-width: 1.5; stroke-linecap: square"/>
   </g>
   <g id="patch_3">
    <path d="M 57.6 298.944 
L 360.8064 298.944 
" style="fill: none; stroke: #000000; stroke-width: 0.8; stroke-linejoin: miter; stroke-linecap: square"/>
   </g>
   <g id="patch_4">
    <path d="M 57.6 27.648 
L 360.8064 27.648 
" style="fill: none; stroke: #000000; stroke-width: 0.8; stroke-linejoin: miter; stroke-linecap: square"/>
   </g>
   <g id="text_13">
    <!-- EvoSpace- -->
    <g transform="translate(386.578944 297.381205)scale(0.14 -0.14)">
     <defs>
      <path id="DejaVuSans-45" d="M 628 4666 
L 3578 4666 
L 3578 4134 
L 1259 4134 
L 1259 2753 
L 3481 2753 
L 3481 2222 
L 1259 2222 
L 1259 531 
L 3634 531 
L 3634 0 
L 628 0 
L 628 4666 
z
" transform="scale(0.015625)"/>
      <path id="DejaVuSans-53" d="M 3425 4513 
L 3425 3897 
Q 3066 4069 2747 4153 
Q 2428 4238 2131 4238 
Q 1616 4238 1336 4038 
Q 1056 3838 1056 3469 
Q 1056 3159 1242 3001 
Q 1428 2844 1947 2747 
L 2328 2669 
Q 3034 2534 3370 2195 
Q 3706 1856 3706 1288 
Q 3706 609 3251 259 
Q 2797 -91 1919 -91 
Q 1588 -91 1214 -16 
Q 841 59 441 206 
L 441 856 
Q 825 641 1194 531 
Q 1563 422 1919 422 
Q 2459 422 2753 634 
Q 3047 847 3047 1241 
Q 3047 1584 2836 1778 
Q 2625 1972 2144 2069 
L 1759 2144 
Q 1053 2284 737 2584 
Q 422 2884 422 3419 
Q 422 4038 858 4394 
Q 1294 4750 2059 4750 
Q 2388 4750 2728 4690 
Q 3069 4631 3425 4513 
z
" transform="scale(0.015625)"/>
     </defs>
     <use xlink:href="#DejaVuSans-45"/>
     <use xlink:href="#DejaVuSans-76" x="63.183594"/>
     <use xlink:href="#DejaVuSans-6f" x="122.363281"/>
     <use xlink:href="#DejaVuSans-53" x="183.544922"/>
     <use xlink:href="#DejaVuSans-70" x="247.021484"/>
     <use xlink:href="#DejaVuSans-61" x="310.498047"/>
     <use xlink:href="#DejaVuSans-63" x="371.777344"/>
     <use xlink:href="#DejaVuSans-65" x="426.757812"/>
     <use xlink:href="#DejaVuSans-2d" x="488.28125"/>
    </g>
   </g>
   <g id="text_14">
    <!-- GA -->
    <g transform="translate(386.578944 232.270165)scale(0.14 -0.14)">
     <defs>
      <path id="DejaVuSans-47" d="M 3809 666 
L 3809 1919 
L 2778 1919 
L 2778 2438 
L 4434 2438 
L 4434 434 
Q 4069 175 3628 42 
Q 3188 -91 2688 -91 
Q 1594 -91 976 548 
Q 359 1188 359 2328 
Q 359 3472 976 4111 
Q 1594 4750 2688 4750 
Q 3144 4750 3555 4637 
Q 3966 4525 4313 4306 
L 4313 3634 
Q 3963 3931 3569 4081 
Q 3175 4231 2741 4231 
Q 1884 4231 1454 3753 
Q 1025 3275 1025 2328 
Q 1025 1384 1454 906 
Q 1884 428 2741 428 
Q 3075 428 3337 486 
Q 3600 544 3809 666 
z
" transform="scale(0.015625)"/>
      <path id="DejaVuSans-41" d="M 2188 4044 
L 1331 1722 
L 3047 1722 
L 2188 4044 
z
M 1831 4666 
L 2547 4666 
L 4325 0 
L 3669 0 
L 3244 1197 
L 1141 1197 
L 716 0 
L 50 0 
L 1831 4666 
z
" transform="scale(0.015625)"/>
     </defs>
     <use xlink:href="#DejaVuSans-47"/>
     <use xlink:href="#DejaVuSans-41" x="77.490234"/>
    </g>
   </g>
   <g id="text_15">
    <!-- LCGA -->
    <g transform="translate(386.578944 167.159125)scale(0.14 -0.14)">
     <defs>
      <path id="DejaVuSans-4c" d="M 628 4666 
L 1259 4666 
L 1259 531 
L 3531 531 
L 3531 0 
L 628 0 
L 628 4666 
z
" transform="scale(0.015625)"/>
      <path id="DejaVuSans-43" d="M 4122 4306 
L 4122 3641 
Q 3803 3938 3442 4084 
Q 3081 4231 2675 4231 
Q 1875 4231 1450 3742 
Q 1025 3253 1025 2328 
Q 1025 1406 1450 917 
Q 1875 428 2675 428 
Q 3081 428 3442 575 
Q 3803 722 4122 1019 
L 4122 359 
Q 3791 134 3420 21 
Q 3050 -91 2638 -91 
Q 1578 -91 968 557 
Q 359 1206 359 2328 
Q 359 3453 968 4101 
Q 1578 4750 2638 4750 
Q 3056 4750 3426 4639 
Q 3797 4528 4122 4306 
z
" transform="scale(0.015625)"/>
     </defs>
     <use xlink:href="#DejaVuSans-4c"/>
     <use xlink:href="#DejaVuSans-43" x="55.712891"/>
     <use xlink:href="#DejaVuSans-47" x="125.537109"/>
     <use xlink:href="#DejaVuSans-41" x="203.027344"/>
    </g>
   </g>
   <g id="text_16">
    <!-- PSO -->
    <g transform="translate(386.578944 102.048085)scale(0.14 -0.14)">
     <defs>
      <path id="DejaVuSans-50" d="M 1259 4147 
L 1259 2394 
L 2053 2394 
Q 2494 2394 2734 2622 
Q 2975 2850 2975 3272 
Q 2975 3691 2734 3919 
Q 2494 4147 2053 4147 
L 1259 4147 
z
M 628 4666 
L 2053 4666 
Q 2838 4666 3239 4311 
Q 3641 3956 3641 3272 
Q 3641 2581 3239 2228 
Q 2838 1875 2053 1875 
L 1259 1875 
L 1259 0 
L 628 0 
L 628 4666 
z
" transform="scale(0.015625)"/>
      <path id="DejaVuSans-4f" d="M 2522 4238 
Q 1834 4238 1429 3725 
Q 1025 3213 1025 2328 
Q 1025 1447 1429 934 
Q 1834 422 2522 422 
Q 3209 422 3611 934 
Q 4013 1447 4013 2328 
Q 4013 3213 3611 3725 
Q 3209 4238 2522 4238 
z
M 2522 4750 
Q 3503 4750 4090 4092 
Q 4678 3434 4678 2328 
Q 4678 1225 4090 567 
Q 3503 -91 2522 -91 
Q 1538 -91 948 565 
Q 359 1222 359 2328 
Q 359 3434 948 4092 
Q 1538 4750 2522 4750 
z
" transform="scale(0.015625)"/>
     </defs>
     <use xlink:href="#DejaVuSans-50"/>
     <use xlink:href="#DejaVuSans-53" x="60.302734"/>
     <use xlink:href="#DejaVuSans-4f" x="123.779297"/>
    </g>
   </g>
   <g id="text_17">
    <!-- best 2009 -->
    <g transform="translate(386.578944 36.937045)scale(0.14 -0.14)">
     <defs>
      <path id="DejaVuSans-62" d="M 3116 1747 
Q 3116 2381 2855 2742 
Q 2594 3103 2138 3103 
Q 1681 3103 1420 2742 
Q 1159 2381 1159 1747 
Q 1159 1113 1420 752 
Q 1681 391 2138 391 
Q 2594 391 2855 752 
Q 3116 1113 3116 1747 
z
M 1159 2969 
Q 1341 3281 1617 3432 
Q 1894 3584 2278 3584 
Q 2916 3584 3314 3078 
Q 3713 2572 3713 1747 
Q 3713 922 3314 415 
Q 2916 -91 2278 -91 
Q 1894 -91 1617 61 
Q 1341 213 1159 525 
L 1159 0 
L 581 0 
L 581 4863 
L 1159 4863 
L 1159 2969 
z
" transform="scale(0.015625)"/>
      <path id="DejaVuSans-39" d="M 703 97 
L 703 672 
Q 941 559 1184 500 
Q 1428 441 1663 441 
Q 2288 441 2617 861 
Q 2947 1281 2994 2138 
Q 2813 1869 2534 1725 
Q 2256 1581 1919 1581 
Q 1219 1581 811 2004 
Q 403 2428 403 3163 
Q 403 3881 828 4315 
Q 1253 4750 1959 4750 
Q 2769 4750 3195 4129 
Q 3622 3509 3622 2328 
Q 3622 1225 3098 567 
Q 2575 -91 1691 -91 
Q 1453 -91 1209 -44 
Q 966 3 703 97 
z
M 1959 2075 
Q 2384 2075 2632 2365 
Q 2881 2656 2881 3163 
Q 2881 3666 2632 3958 
Q 2384 4250 1959 4250 
Q 1534 4250 1286 3958 
Q 1038 3666 1038 3163 
Q 1038 2656 1286 2365 
Q 1534 2075 1959 2075 
z
" transform="scale(0.015625)"/>
     </defs>
     <use xlink:href="#DejaVuSans-62"/>
     <use xlink:href="#DejaVuSans-65" x="63.476562"/>
     <use xlink:href="#DejaVuSans-73" x="125"/>
     <use xlink:href="#DejaVuSans-74" x="177.099609"/>
     <use xlink:href="#DejaVuSans-20" x="216.308594"/>
     <use xlink:href="#DejaVuSans-32" x="248.095703"/>
     <use xlink:href="#DejaVuSans-30" x="311.71875"/>
     <use xlink:href="#DejaVuSans-30" x="375.341797"/>
     <use xlink:href="#DejaVuSans-39" x="438.964844"/>
    </g>
   </g>
   <g id="text_18">
    <!-- bbob f12, 10-D -->
    <g transform="translate(60.632064 38.111366)scale(0.102 -0.102)">
     <defs>
      <path id="DejaVuSans-44" d="M 1259 4147 
L 1259 519 
L 2022 519 
Q 2988 519 3436 956 
Q 3884 1394 3884 2338 
Q 3884 3275 3436 3711 
Q 2988 4147 2022 4147 
L 1259 4147 
z
M 628 4666 
L 1925 4666 
Q 3281 4666 3915 4102 
Q 4550 3538 4550 2338 
Q 4550 1131 3912 565 
Q 3275 0 1925 0 
L 628 0 
L 628 4666 
z
" transform="scale(0.015625)"/>
     </defs>
     <use xlink:href="#DejaVuSans-62"/>
     <use xlink:href="#DejaVuSans-62" x="63.476562"/>
     <use xlink:href="#DejaVuSans-6f" x="126.953125"/>
     <use xlink:href="#DejaVuSans-62" x="188.134766"/>
     <use xlink:href="#DejaVuSans-20" x="251.611328"/>
     <use xlink:href="#DejaVuSans-66" x="283.398438"/>
     <use xlink:href="#DejaVuSans-31" x="318.603516"/>
     <use xlink:href="#DejaVuSans-32" x="382.226562"/>
     <use xlink:href="#DejaVuSans-2c" x="445.849609"/>
     <use xlink:href="#DejaVuSans-20" x="477.636719"/>
     <use xlink:href="#DejaVuSans-31" x="509.423828"/>
     <use xlink:href="#DejaVuSans-30" x="573.046875"/>
     <use xlink:href="#DejaVuSans-2d" x="636.669922"/>
     <use xlink:href="#DejaVuSans-44" x="672.753906"/>
    </g>
    <!-- 51 targets: 100..1e-08 -->
    <g transform="translate(60.632064 49.533135)scale(0.102 -0.102)">
     <defs>
      <path id="DejaVuSans-35" d="M 691 4666 
L 3169 4666 
L 3169 4134 
L 1269 4134 
L 1269 2991 
Q 1406 3038 1543 3061 
Q 1681 3084 1819 3084 
Q 2600 3084 3056 2656 
Q 3513 2228 3513 1497 
Q 3513 744 3044 326 
Q 2575 -91 1722 -91 
Q 1428 -91 1123 -41 
Q 819 9 494 109 
L 494 744 
Q 775 591 1075 516 
Q 1375 441 1709 441 
Q 2250 441 2565 725 
Q 2881 1009 2881 1497 
Q 2881 1984 2565 2268 
Q 2250 2553 1709 2553 
Q 1456 2553 1204 2497 
Q 953 2441 691 2322 
L 691 4666 
z
" transform="scale(0.015625)"/>
      <path id="DejaVuSans-3a" d="M 750 794 
L 1409 794 
L 1409 0 
L 750 0 
L 750 794 
z
M 750 3309 
L 1409 3309 
L 1409 2516 
L 750 2516 
L 750 3309 
z
" transform="scale(0.015625)"/>
     </defs>
     <use xlink:href="#DejaVuSans-35"/>
     <use xlink:href="#DejaVuSans-31" x="63.623047"/>
     <use xlink:href="#DejaVuSans-20" x="127.246094"/>
     <use xlink:href="#DejaVuSans-74" x="159.033203"/>
     <use xlink:href="#DejaVuSans-61" x="198.242188"/>
     <use xlink:href="#DejaVuSans-72" x="259.521484"/>
     <use xlink:href="#DejaVuSans-67" x="298.884766"/>
     <use xlink:href="#DejaVuSans-65" x="362.361328"/>
     <use xlink:href="#DejaVuSans-74" x="423.884766"/>
     <use xlink:href="#DejaVuSans-73" x="463.09375"/>
     <use xlink:href="#DejaVuSans-3a" x="515.193359"/>
     <use xlink:href="#DejaVuSans-20" x="548.884766"/>
     <use xlink:href="#DejaVuSans-31" x="580.671875"/>
     <use xlink:href="#DejaVuSans-30" x="644.294922"/>
     <use xlink:href="#DejaVuSans-30" x="707.917969"/>
     <use xlink:href="#DejaVuSans-2e" x="771.541016"/>
     <use xlink:href="#DejaVuSans-2e" x="803.328125"/>
     <use xlink:href="#DejaVuSans-31" x="835.115234"/>
     <use xlink:href="#DejaVuSans-65" x="898.738281"/>
     <use xlink:href="#DejaVuSans-2d" x="960.261719"/>
     <use xlink:href="#DejaVuSans-30" x="996.345703"/>
     <use xlink:href="#DejaVuSans-38" x="1059.96875"/>
    </g>
    <!-- 15 instances -->
    <g transform="translate(60.632064 60.954904)scale(0.102 -0.102)">
     <use xlink:href="#DejaVuSans-31"/>
     <use xlink:href="#DejaVuSans-35" x="63.623047"/>
     <use xlink:href="#DejaVuSans-20" x="127.246094"/>
     <use xlink:href="#DejaVuSans-69" x="159.033203"/>
     <use xlink:href="#DejaVuSans-6e" x="186.816406"/>
     <use xlink:href="#DejaVuSans-73" x="250.195312"/>
     <use xlink:href="#DejaVuSans-74" x="302.294922"/>
     <use xlink:href="#DejaVuSans-61" x="341.503906"/>
     <use xlink:href="#DejaVuSans-6e" x="402.783203"/>
     <use xlink:href="#DejaVuSans-63" x="466.162109"/>
     <use xlink:href="#DejaVuSans-65" x="521.142578"/>
     <use xlink:href="#DejaVuSans-73" x="582.666016"/>
    </g>
   </g>
   <g id="text_19">
    <!-- v2.6 -->
    <g style="fill: #808080" transform="translate(198.292262 294.151352)scale(0.1 -0.1)">
     <use xlink:href="#DejaVuSans-76"/>
     <use xlink:href="#DejaVuSans-32" x="59.179688"/>
     <use xlink:href="#DejaVuSans-2e" x="122.802734"/>
     <use xlink:href="#DejaVuSans-36" x="154.589844"/>
    </g>
   </g>
   <g id="text_20">
    <!-- 12 Bent cigar -->
    <g transform="translate(141.986012 21.648)scale(0.2 -0.2)">
     <defs>
      <path id="DejaVuSans-42" d="M 1259 2228 
L 1259 519 
L 2272 519 
Q 2781 519 3026 730 
Q 3272 941 3272 1375 
Q 3272 1813 3026 2020 
Q 2781 2228 2272 2228 
L 1259 2228 
z
M 1259 4147 
L 1259 2741 
L 2194 2741 
Q 2656 2741 2882 2914 
Q 3109 3088 3109 3444 
Q 3109 3797 2882 3972 
Q 2656 4147 2194 4147 
L 1259 4147 
z
M 628 4666 
L 2241 4666 
Q 2963 4666 3353 4366 
Q 3744 4066 3744 3513 
Q 3744 3084 3544 2831 
Q 3344 2578 2956 2516 
Q 3422 2416 3680 2098 
Q 3938 1781 3938 1306 
Q 3938 681 3513 340 
Q 3088 0 2303 0 
L 628 0 
L 628 4666 
z
" transform="scale(0.015625)"/>
     </defs>
     <use xlink:href="#DejaVuSans-31"/>
     <use xlink:href="#DejaVuSans-32" x="63.623047"/>
     <use xlink:href="#DejaVuSans-20" x="127.246094"/>
     <use xlink:href="#DejaVuSans-42" x="159.033203"/>
     <use xlink:href="#DejaVuSans-65" x="227.636719"/>
     <use xlink:href="#DejaVuSans-6e" x="289.160156"/>
     <use xlink:href="#DejaVuSans-74" x="352.539062"/>
     <use xlink:href="#DejaVuSans-20" x="391.748047"/>
     <use xlink:href="#DejaVuSans-63" x="423.535156"/>
     <use xlink:href="#DejaVuSans-69" x="478.515625"/>
     <use xlink:href="#DejaVuSans-67" x="506.298828"/>
     <use xlink:href="#DejaVuSans-61" x="569.775391"/>
     <use xlink:href="#DejaVuSans-72" x="631.054688"/>
    </g>
   </g>
  </g>
 </g>
 <defs>
  <clipPath id="pfd98794916">
   <rect x="57.6" y="27.648" width="303.2064" height="271.296"/>
  </clipPath>
 </defs>
</svg>
