<?xml version="1.0" encoding="utf-8" standalone="no"?>
<!DOCTYPE svg PUBLIC "-//W3C//DTD SVG 1.1//EN"
  "http://www.w3.org/Graphics/SVG/1.1/DTD/svg11.dtd">
<svg xmlns:xlink="http://www.w3.org/1999/xlink" width="460.8pt" height="345.6pt" viewBox="0 0 460.8 345.6" xmlns="http://www.w3.org/2000/svg" version="1.1">
 <metadata>
  <rdf:RDF xmlns:dc="http://purl.org/dc/elements/1.1/" xmlns:cc="http://creativecommons.org/ns#" xmlns:rdf="http://www.w3.org/1999/02/22-rdf-syntax-ns#">
   <cc:Work>
    <dc:type rdf:resource="http://purl.org/dc/dcmitype/StillImage"/>
    <dc:date>2024-05-29T08:12:02.883163</dc:date>
    <dc:format>image/svg+xml</dc:format>
    <dc:creator>
     <cc:Agent>
      <dc:title>Matplotlib v3.5.1, https://matplotlib.org/</dc:title>
     </cc:Agent>
    </dc:creator>
   </cc:Work>
  </rdf:RDF>
 </metadata>
 <defs>
  <style type="text/css">*{stroke-linejoin: round; stroke-linecap: butt}</style>
 </defs>
 <g id="figure_1">
  <g id="patch_1">
   <path d="M 0 345.6 
L 460.8 345.6 
L 460.8 0 
L 0 0 
z
" style="fill: #ffffff"/>
  </g>
  <g id="axes_1">
   <g id="patch_2">
    <path d="M 57.6 298.944 
L 360.8064 298.944 
L 360.8064 27.648 
L 57.6 27.648 
z
" style="fill: #ffffff"/>
   </g>
   <g id="line2d_1">
    <path d="M 98.933205 298.944 
L 98.933205 293.624471 
L 100.9152 293.624471 
L 100.9152 288.304941 
L 101.833019 288.304941 
L 101.833019 282.985412 
L 104.344952 282.985412 
L 104.344952 277.665882 
L 109.159456 277.665882 
L 109.159456 272.346353 
L 111.442442 272.346353 
L 111.442442 267.026824 
L 112.989468 267.026824 
L 112.989468 261.707294 
L 113.478107 261.707294 
L 113.478107 256.387765 
L 113.954374 256.387765 
L 113.954374 251.068235 
L 114.872193 251.068235 
L 114.872193 245.748706 
L 116.583514 245.748706 
L 116.583514 240.429176 
L 118.152051 240.429176 
L 118.152051 235.109647 
L 120.28394 235.109647 
L 120.28394 229.790118 
L 122.499621 229.790118 
L 122.499621 224.470588 
L 123.657621 224.470588 
L 123.657621 219.151059 
L 125.779479 219.151059 
L 125.779479 213.831529 
L 127.227236 213.831529 
L 127.227236 208.512 
L 127.911368 208.512 
L 127.911368 203.192471 
L 128.57149 203.192471 
L 128.57149 197.872941 
L 129.417095 197.872941 
L 129.417095 192.553412 
L 130.027253 192.553412 
L 130.027253 187.233882 
L 130.4233 187.233882 
L 130.4233 181.914353 
L 130.618241 181.914353 
L 130.618241 176.594824 
L 131.002163 176.594824 
L 131.002163 171.275294 
L 131.378407 171.275294 
L 131.378407 165.955765 
L 132.109044 165.955765 
L 132.109044 160.636235 
L 132.638982 160.636235 
L 132.638982 155.316706 
L 133.323114 155.316706 
L 133.323114 149.997176 
L 133.983236 149.997176 
L 133.983236 144.677647 
L 134.620977 144.677647 
L 134.620977 139.358118 
L 135.388902 139.358118 
L 135.388902 134.038588 
L 136.413909 134.038588 
L 136.413909 128.719059 
L 136.836659 128.719059 
L 136.836659 123.399529 
L 137.787626 123.399529 
L 137.787626 118.08 
L 138.566146 118.08 
L 138.566146 112.760471 
L 139.191172 112.760471 
L 139.191172 107.440941 
L 139.556456 107.440941 
L 139.556456 102.121412 
L 140.032723 102.121412 
L 140.032723 96.801882 
L 140.611586 96.801882 
L 140.611586 91.482353 
L 141.173167 91.482353 
L 141.173167 86.162824 
L 141.718467 86.162824 
L 141.718467 80.843294 
L 142.248405 80.843294 
L 142.248405 75.523765 
L 142.661862 75.523765 
L 142.661862 70.204235 
L 142.966099 70.204235 
L 142.966099 64.884706 
L 143.364242 64.884706 
L 143.364242 59.565176 
L 143.754133 59.565176 
L 143.754133 54.245647 
L 144.2304 54.245647 
L 144.2304 48.926118 
L 144.417581 48.926118 
L 144.417581 43.606588 
L 144.602918 43.606588 
L 144.602918 38.287059 
L 144.968202 38.287059 
L 144.968202 32.967529 
L 145.237585 32.967529 
L 145.237585 27.648 
L 360.8064 27.648 
" style="fill: none; stroke: #f5deb3; stroke-width: 4; stroke-linecap: square"/>
   </g>
   <g id="line2d_2">
    <defs>
     <path id="m9baa13c3eb" d="M 0 7.778175 
L 7.778175 0 
L 0 -7.778175 
L -7.778175 0 
z
" style="stroke: #f5deb3; stroke-width: 1.5; stroke-linejoin: miter"/>
    </defs>
    <g>
     <use xlink:href="#m9baa13c3eb" x="118.152051" y="235.109647" style="fill: #f5deb3; stroke: #f5deb3; stroke-width: 1.5; stroke-linejoin: miter"/>
     <use xlink:href="#m9baa13c3eb" x="141.173167" y="86.162824" style="fill: #f5deb3; stroke: #f5deb3; stroke-width: 1.5; stroke-linejoin: miter"/>
     <use xlink:href="#m9baa13c3eb" x="145.237585" y="32.967529" style="fill: #f5deb3; stroke: #f5deb3; stroke-width: 1.5; stroke-linejoin: miter"/>
     <use xlink:href="#m9baa13c3eb" x="145.237585" y="27.648" style="fill: #f5deb3; stroke: #f5deb3; stroke-width: 1.5; stroke-linejoin: miter"/>
     <use xlink:href="#m9baa13c3eb" x="360.8064" y="27.648" style="fill: #f5deb3; stroke: #f5deb3; stroke-width: 1.5; stroke-linejoin: miter"/>
    </g>
   </g>
   <g id="line2d_3">
    <path style="fill: none; stroke: #f5deb3; stroke-width: 4; stroke-linecap: square"/>
    <g/>
   </g>
   <g id="line2d_4">
    <path d="M 360.8064 27.648 
L 380.514816 33.07392 
" style="fill: none; stroke: #f5deb3; stroke-width: 4; stroke-linecap: square"/>
    <g>
     <use xlink:href="#m9baa13c3eb" x="360.8064" y="27.648" style="fill: #f5deb3; stroke: #f5deb3; stroke-width: 1.5; stroke-linejoin: miter"/>
     <use xlink:href="#m9baa13c3eb" x="380.514816" y="33.07392" style="fill: #f5deb3; stroke: #f5deb3; stroke-width: 1.5; stroke-linejoin: miter"/>
    </g>
   </g>
   <g id="matplotlib.axis_1">
    <g id="xtick_1">
     <g id="line2d_5">
      <path d="M 57.6 298.944 
L 57.6 27.648 
" clip-path="url(#p9cc4ab6cdf)" style="fill: none; stroke: #b0b0b0; stroke-width: 0.8; stroke-linecap: square"/>
     </g>
     <g id="line2d_6">
      <defs>
       <path id="md70e570fa6" d="M 0 0 
L 0 3.5 
" style="stroke: #000000; stroke-width: 0.8"/>
      </defs>
      <g>
       <use xlink:href="#md70e570fa6" x="57.6" y="298.944" style="stroke: #000000; stroke-width: 0.8"/>
      </g>
     </g>
     <g id="text_1">
      <!-- 0 -->
      <g transform="translate(52.191875 318.861344)scale(0.17 -0.17)">
       <defs>
        <path id="DejaVuSans-30" d="M 2034 4250 
Q 1547 4250 1301 3770 
Q 1056 3291 1056 2328 
Q 1056 1369 1301 889 
Q 1547 409 2034 409 
Q 2525 409 2770 889 
Q 3016 1369 3016 2328 
Q 3016 3291 2770 3770 
Q 2525 4250 2034 4250 
z
M 2034 4750 
Q 2819 4750 3233 4129 
Q 3647 3509 3647 2328 
Q 3647 1150 3233 529 
Q 2819 -91 2034 -91 
Q 1250 -91 836 529 
Q 422 1150 422 2328 
Q 422 3509 836 4129 
Q 1250 4750 2034 4750 
z
" transform="scale(0.015625)"/>
       </defs>
       <use xlink:href="#DejaVuSans-30"/>
      </g>
     </g>
    </g>
    <g id="xtick_2">
     <g id="line2d_7">
      <path d="M 144.2304 298.944 
L 144.2304 27.648 
" clip-path="url(#p9cc4ab6cdf)" style="fill: none; stroke: #b0b0b0; stroke-width: 0.8; stroke-linecap: square"/>
     </g>
     <g id="line2d_8">
      <g>
       <use xlink:href="#md70e570fa6" x="144.2304" y="298.944" style="stroke: #000000; stroke-width: 0.8"/>
      </g>
     </g>
     <g id="text_2">
      <!-- 2 -->
      <g transform="translate(138.822275 318.861344)scale(0.17 -0.17)">
       <defs>
        <path id="DejaVuSans-32" d="M 1228 531 
L 3431 531 
L 3431 0 
L 469 0 
L 469 531 
Q 828 903 1448 1529 
Q 2069 2156 2228 2338 
Q 2531 2678 2651 2914 
Q 2772 3150 2772 3378 
Q 2772 3750 2511 3984 
Q 2250 4219 1831 4219 
Q 1534 4219 1204 4116 
Q 875 4013 500 3803 
L 500 4441 
Q 881 4594 1212 4672 
Q 1544 4750 1819 4750 
Q 2544 4750 2975 4387 
Q 3406 4025 3406 3419 
Q 3406 3131 3298 2873 
Q 3191 2616 2906 2266 
Q 2828 2175 2409 1742 
Q 1991 1309 1228 531 
z
" transform="scale(0.015625)"/>
       </defs>
       <use xlink:href="#DejaVuSans-32"/>
      </g>
     </g>
    </g>
    <g id="xtick_3">
     <g id="line2d_9">
      <path d="M 230.8608 298.944 
L 230.8608 27.648 
" clip-path="url(#p9cc4ab6cdf)" style="fill: none; stroke: #b0b0b0; stroke-width: 0.8; stroke-linecap: square"/>
     </g>
     <g id="line2d_10">
      <g>
       <use xlink:href="#md70e570fa6" x="230.8608" y="298.944" style="stroke: #000000; stroke-width: 0.8"/>
      </g>
     </g>
     <g id="text_3">
      <!-- 4 -->
      <g transform="translate(225.452675 318.861344)scale(0.17 -0.17)">
       <defs>
        <path id="DejaVuSans-34" d="M 2419 4116 
L 825 1625 
L 2419 1625 
L 2419 4116 
z
M 2253 4666 
L 3047 4666 
L 3047 1625 
L 3713 1625 
L 3713 1100 
L 3047 1100 
L 3047 0 
L 2419 0 
L 2419 1100 
L 313 1100 
L 313 1709 
L 2253 4666 
z
" transform="scale(0.015625)"/>
       </defs>
       <use xlink:href="#DejaVuSans-34"/>
      </g>
     </g>
    </g>
    <g id="xtick_4">
     <g id="line2d_11">
      <path d="M 317.4912 298.944 
L 317.4912 27.648 
" clip-path="url(#p9cc4ab6cdf)" style="fill: none; stroke: #b0b0b0; stroke-width: 0.8; stroke-linecap: square"/>
     </g>
     <g id="line2d_12">
      <g>
       <use xlink:href="#md70e570fa6" x="317.4912" y="298.944" style="stroke: #000000; stroke-width: 0.8"/>
      </g>
     </g>
     <g id="text_4">
      <!-- 6 -->
      <g transform="translate(312.083075 318.861344)scale(0.17 -0.17)">
       <defs>
        <path id="DejaVuSans-36" d="M 2113 2584 
Q 1688 2584 1439 2293 
Q 1191 2003 1191 1497 
Q 1191 994 1439 701 
Q 1688 409 2113 409 
Q 2538 409 2786 701 
Q 3034 994 3034 1497 
Q 3034 2003 2786 2293 
Q 2538 2584 2113 2584 
z
M 3366 4563 
L 3366 3988 
Q 3128 4100 2886 4159 
Q 2644 4219 2406 4219 
Q 1781 4219 1451 3797 
Q 1122 3375 1075 2522 
Q 1259 2794 1537 2939 
Q 1816 3084 2150 3084 
Q 2853 3084 3261 2657 
Q 3669 2231 3669 1497 
Q 3669 778 3244 343 
Q 2819 -91 2113 -91 
Q 1303 -91 875 529 
Q 447 1150 447 2328 
Q 447 3434 972 4092 
Q 1497 4750 2381 4750 
Q 2619 4750 2861 4703 
Q 3103 4656 3366 4563 
z
" transform="scale(0.015625)"/>
       </defs>
       <use xlink:href="#DejaVuSans-36"/>
      </g>
     </g>
    </g>
    <g id="xtick_5">
     <g id="line2d_13">
      <path d="M 100.9152 298.944 
L 100.9152 27.648 
" clip-path="url(#p9cc4ab6cdf)" style="fill: none; stroke: #b0b0b0; stroke-width: 0.8; stroke-linecap: square"/>
     </g>
     <g id="line2d_14">
      <defs>
       <path id="mc424cf3d2d" d="M 0 0 
L 0 2 
" style="stroke: #000000; stroke-width: 0.6"/>
      </defs>
      <g>
       <use xlink:href="#mc424cf3d2d" x="100.9152" y="298.944" style="stroke: #000000; stroke-width: 0.6"/>
      </g>
     </g>
    </g>
    <g id="xtick_6">
     <g id="line2d_15">
      <path d="M 187.5456 298.944 
L 187.5456 27.648 
" clip-path="url(#p9cc4ab6cdf)" style="fill: none; stroke: #b0b0b0; stroke-width: 0.8; stroke-linecap: square"/>
     </g>
     <g id="line2d_16">
      <g>
       <use xlink:href="#mc424cf3d2d" x="187.5456" y="298.944" style="stroke: #000000; stroke-width: 0.6"/>
      </g>
     </g>
    </g>
    <g id="xtick_7">
     <g id="line2d_17">
      <path d="M 274.176 298.944 
L 274.176 27.648 
" clip-path="url(#p9cc4ab6cdf)" style="fill: none; stroke: #b0b0b0; stroke-width: 0.8; stroke-linecap: square"/>
     </g>
     <g id="line2d_18">
      <g>
       <use xlink:href="#mc424cf3d2d" x="274.176" y="298.944" style="stroke: #000000; stroke-width: 0.6"/>
      </g>
     </g>
    </g>
    <g id="xtick_8">
     <g id="line2d_19">
      <path d="M 360.8064 298.944 
L 360.8064 27.648 
" clip-path="url(#p9cc4ab6cdf)" style="fill: none; stroke: #b0b0b0; stroke-width: 0.8; stroke-linecap: square"/>
     </g>
     <g id="line2d_20">
      <g>
       <use xlink:href="#mc424cf3d2d" x="360.8064" y="298.944" style="stroke: #000000; stroke-width: 0.6"/>
      </g>
     </g>
    </g>
    <g id="text_5">
     <!-- log10(# f-evals / dimension) -->
     <g transform="translate(88.823278 339.314156)scale(0.17 -0.17)">
      <defs>
       <path id="DejaVuSans-6c" d="M 603 4863 
L 1178 4863 
L 1178 0 
L 603 0 
L 603 4863 
z
" transform="scale(0.015625)"/>
       <path id="DejaVuSans-6f" d="M 1959 3097 
Q 1497 3097 1228 2736 
Q 959 2375 959 1747 
Q 959 1119 1226 758 
Q 1494 397 1959 397 
Q 2419 397 2687 759 
Q 2956 1122 2956 1747 
Q 2956 2369 2687 2733 
Q 2419 3097 1959 3097 
z
M 1959 3584 
Q 2709 3584 3137 3096 
Q 3566 2609 3566 1747 
Q 3566 888 3137 398 
Q 2709 -91 1959 -91 
Q 1206 -91 779 398 
Q 353 888 353 1747 
Q 353 2609 779 3096 
Q 1206 3584 1959 3584 
z
" transform="scale(0.015625)"/>
       <path id="DejaVuSans-67" d="M 2906 1791 
Q 2906 2416 2648 2759 
Q 2391 3103 1925 3103 
Q 1463 3103 1205 2759 
Q 947 2416 947 1791 
Q 947 1169 1205 825 
Q 1463 481 1925 481 
Q 2391 481 2648 825 
Q 2906 1169 2906 1791 
z
M 3481 434 
Q 3481 -459 3084 -895 
Q 2688 -1331 1869 -1331 
Q 1566 -1331 1297 -1286 
Q 1028 -1241 775 -1147 
L 775 -588 
Q 1028 -725 1275 -790 
Q 1522 -856 1778 -856 
Q 2344 -856 2625 -561 
Q 2906 -266 2906 331 
L 2906 616 
Q 2728 306 2450 153 
Q 2172 0 1784 0 
Q 1141 0 747 490 
Q 353 981 353 1791 
Q 353 2603 747 3093 
Q 1141 3584 1784 3584 
Q 2172 3584 2450 3431 
Q 2728 3278 2906 2969 
L 2906 3500 
L 3481 3500 
L 3481 434 
z
" transform="scale(0.015625)"/>
       <path id="DejaVuSans-31" d="M 794 531 
L 1825 531 
L 1825 4091 
L 703 3866 
L 703 4441 
L 1819 4666 
L 2450 4666 
L 2450 531 
L 3481 531 
L 3481 0 
L 794 0 
L 794 531 
z
" transform="scale(0.015625)"/>
       <path id="DejaVuSans-28" d="M 1984 4856 
Q 1566 4138 1362 3434 
Q 1159 2731 1159 2009 
Q 1159 1288 1364 580 
Q 1569 -128 1984 -844 
L 1484 -844 
Q 1016 -109 783 600 
Q 550 1309 550 2009 
Q 550 2706 781 3412 
Q 1013 4119 1484 4856 
L 1984 4856 
z
" transform="scale(0.015625)"/>
       <path id="DejaVuSans-23" d="M 3272 2816 
L 2363 2816 
L 2100 1772 
L 3016 1772 
L 3272 2816 
z
M 2803 4594 
L 2478 3297 
L 3391 3297 
L 3719 4594 
L 4219 4594 
L 3897 3297 
L 4872 3297 
L 4872 2816 
L 3775 2816 
L 3519 1772 
L 4513 1772 
L 4513 1294 
L 3397 1294 
L 3072 0 
L 2572 0 
L 2894 1294 
L 1978 1294 
L 1656 0 
L 1153 0 
L 1478 1294 
L 494 1294 
L 494 1772 
L 1594 1772 
L 1856 2816 
L 850 2816 
L 850 3297 
L 1978 3297 
L 2297 4594 
L 2803 4594 
z
" transform="scale(0.015625)"/>
       <path id="DejaVuSans-20" transform="scale(0.015625)"/>
       <path id="DejaVuSans-66" d="M 2375 4863 
L 2375 4384 
L 1825 4384 
Q 1516 4384 1395 4259 
Q 1275 4134 1275 3809 
L 1275 3500 
L 2222 3500 
L 2222 3053 
L 1275 3053 
L 1275 0 
L 697 0 
L 697 3053 
L 147 3053 
L 147 3500 
L 697 3500 
L 697 3744 
Q 697 4328 969 4595 
Q 1241 4863 1831 4863 
L 2375 4863 
z
" transform="scale(0.015625)"/>
       <path id="DejaVuSans-2d" d="M 313 2009 
L 1997 2009 
L 1997 1497 
L 313 1497 
L 313 2009 
z
" transform="scale(0.015625)"/>
       <path id="DejaVuSans-65" d="M 3597 1894 
L 3597 1613 
L 953 1613 
Q 991 1019 1311 708 
Q 1631 397 2203 397 
Q 2534 397 2845 478 
Q 3156 559 3463 722 
L 3463 178 
Q 3153 47 2828 -22 
Q 2503 -91 2169 -91 
Q 1331 -91 842 396 
Q 353 884 353 1716 
Q 353 2575 817 3079 
Q 1281 3584 2069 3584 
Q 2775 3584 3186 3129 
Q 3597 2675 3597 1894 
z
M 3022 2063 
Q 3016 2534 2758 2815 
Q 2500 3097 2075 3097 
Q 1594 3097 1305 2825 
Q 1016 2553 972 2059 
L 3022 2063 
z
" transform="scale(0.015625)"/>
       <path id="DejaVuSans-76" d="M 191 3500 
L 800 3500 
L 1894 563 
L 2988 3500 
L 3597 3500 
L 2284 0 
L 1503 0 
L 191 3500 
z
" transform="scale(0.015625)"/>
       <path id="DejaVuSans-61" d="M 2194 1759 
Q 1497 1759 1228 1600 
Q 959 1441 959 1056 
Q 959 750 1161 570 
Q 1363 391 1709 391 
Q 2188 391 2477 730 
Q 2766 1069 2766 1631 
L 2766 1759 
L 2194 1759 
z
M 3341 1997 
L 3341 0 
L 2766 0 
L 2766 531 
Q 2569 213 2275 61 
Q 1981 -91 1556 -91 
Q 1019 -91 701 211 
Q 384 513 384 1019 
Q 384 1609 779 1909 
Q 1175 2209 1959 2209 
L 2766 2209 
L 2766 2266 
Q 2766 2663 2505 2880 
Q 2244 3097 1772 3097 
Q 1472 3097 1187 3025 
Q 903 2953 641 2809 
L 641 3341 
Q 956 3463 1253 3523 
Q 1550 3584 1831 3584 
Q 2591 3584 2966 3190 
Q 3341 2797 3341 1997 
z
" transform="scale(0.015625)"/>
       <path id="DejaVuSans-73" d="M 2834 3397 
L 2834 2853 
Q 2591 2978 2328 3040 
Q 2066 3103 1784 3103 
Q 1356 3103 1142 2972 
Q 928 2841 928 2578 
Q 928 2378 1081 2264 
Q 1234 2150 1697 2047 
L 1894 2003 
Q 2506 1872 2764 1633 
Q 3022 1394 3022 966 
Q 3022 478 2636 193 
Q 2250 -91 1575 -91 
Q 1294 -91 989 -36 
Q 684 19 347 128 
L 347 722 
Q 666 556 975 473 
Q 1284 391 1588 391 
Q 1994 391 2212 530 
Q 2431 669 2431 922 
Q 2431 1156 2273 1281 
Q 2116 1406 1581 1522 
L 1381 1569 
Q 847 1681 609 1914 
Q 372 2147 372 2553 
Q 372 3047 722 3315 
Q 1072 3584 1716 3584 
Q 2034 3584 2315 3537 
Q 2597 3491 2834 3397 
z
" transform="scale(0.015625)"/>
       <path id="DejaVuSans-2f" d="M 1625 4666 
L 2156 4666 
L 531 -594 
L 0 -594 
L 1625 4666 
z
" transform="scale(0.015625)"/>
       <path id="DejaVuSans-64" d="M 2906 2969 
L 2906 4863 
L 3481 4863 
L 3481 0 
L 2906 0 
L 2906 525 
Q 2725 213 2448 61 
Q 2172 -91 1784 -91 
Q 1150 -91 751 415 
Q 353 922 353 1747 
Q 353 2572 751 3078 
Q 1150 3584 1784 3584 
Q 2172 3584 2448 3432 
Q 2725 3281 2906 2969 
z
M 947 1747 
Q 947 1113 1208 752 
Q 1469 391 1925 391 
Q 2381 391 2643 752 
Q 2906 1113 2906 1747 
Q 2906 2381 2643 2742 
Q 2381 3103 1925 3103 
Q 1469 3103 1208 2742 
Q 947 2381 947 1747 
z
" transform="scale(0.015625)"/>
       <path id="DejaVuSans-69" d="M 603 3500 
L 1178 3500 
L 1178 0 
L 603 0 
L 603 3500 
z
M 603 4863 
L 1178 4863 
L 1178 4134 
L 603 4134 
L 603 4863 
z
" transform="scale(0.015625)"/>
       <path id="DejaVuSans-6d" d="M 3328 2828 
Q 3544 3216 3844 3400 
Q 4144 3584 4550 3584 
Q 5097 3584 5394 3201 
Q 5691 2819 5691 2113 
L 5691 0 
L 5113 0 
L 5113 2094 
Q 5113 2597 4934 2840 
Q 4756 3084 4391 3084 
Q 3944 3084 3684 2787 
Q 3425 2491 3425 1978 
L 3425 0 
L 2847 0 
L 2847 2094 
Q 2847 2600 2669 2842 
Q 2491 3084 2119 3084 
Q 1678 3084 1418 2786 
Q 1159 2488 1159 1978 
L 1159 0 
L 581 0 
L 581 3500 
L 1159 3500 
L 1159 2956 
Q 1356 3278 1631 3431 
Q 1906 3584 2284 3584 
Q 2666 3584 2933 3390 
Q 3200 3197 3328 2828 
z
" transform="scale(0.015625)"/>
       <path id="DejaVuSans-6e" d="M 3513 2113 
L 3513 0 
L 2938 0 
L 2938 2094 
Q 2938 2591 2744 2837 
Q 2550 3084 2163 3084 
Q 1697 3084 1428 2787 
Q 1159 2491 1159 1978 
L 1159 0 
L 581 0 
L 581 3500 
L 1159 3500 
L 1159 2956 
Q 1366 3272 1645 3428 
Q 1925 3584 2291 3584 
Q 2894 3584 3203 3211 
Q 3513 2838 3513 2113 
z
" transform="scale(0.015625)"/>
       <path id="DejaVuSans-29" d="M 513 4856 
L 1013 4856 
Q 1481 4119 1714 3412 
Q 1947 2706 1947 2009 
Q 1947 1309 1714 600 
Q 1481 -109 1013 -844 
L 513 -844 
Q 928 -128 1133 580 
Q 1338 1288 1338 2009 
Q 1338 2731 1133 3434 
Q 928 4138 513 4856 
z
" transform="scale(0.015625)"/>
      </defs>
      <use xlink:href="#DejaVuSans-6c"/>
      <use xlink:href="#DejaVuSans-6f" x="27.783203"/>
      <use xlink:href="#DejaVuSans-67" x="88.964844"/>
      <use xlink:href="#DejaVuSans-31" x="152.441406"/>
      <use xlink:href="#DejaVuSans-30" x="216.064453"/>
      <use xlink:href="#DejaVuSans-28" x="279.6875"/>
      <use xlink:href="#DejaVuSans-23" x="318.701172"/>
      <use xlink:href="#DejaVuSans-20" x="402.490234"/>
      <use xlink:href="#DejaVuSans-66" x="434.277344"/>
      <use xlink:href="#DejaVuSans-2d" x="463.982422"/>
      <use xlink:href="#DejaVuSans-65" x="500.066406"/>
      <use xlink:href="#DejaVuSans-76" x="561.589844"/>
      <use xlink:href="#DejaVuSans-61" x="620.769531"/>
      <use xlink:href="#DejaVuSans-6c" x="682.048828"/>
      <use xlink:href="#DejaVuSans-73" x="709.832031"/>
      <use xlink:href="#DejaVuSans-20" x="761.931641"/>
      <use xlink:href="#DejaVuSans-2f" x="793.71875"/>
      <use xlink:href="#DejaVuSans-20" x="827.410156"/>
      <use xlink:href="#DejaVuSans-64" x="859.197266"/>
      <use xlink:href="#DejaVuSans-69" x="922.673828"/>
      <use xlink:href="#DejaVuSans-6d" x="950.457031"/>
      <use xlink:href="#DejaVuSans-65" x="1047.869141"/>
      <use xlink:href="#DejaVuSans-6e" x="1109.392578"/>
      <use xlink:href="#DejaVuSans-73" x="1172.771484"/>
      <use xlink:href="#DejaVuSans-69" x="1224.871094"/>
      <use xlink:href="#DejaVuSans-6f" x="1252.654297"/>
      <use xlink:href="#DejaVuSans-6e" x="1313.835938"/>
      <use xlink:href="#DejaVuSans-29" x="1377.214844"/>
     </g>
    </g>
   </g>
   <g id="matplotlib.axis_2">
    <g id="ytick_1">
     <g id="line2d_21">
      <path d="M 57.6 298.944 
L 360.8064 298.944 
" clip-path="url(#p9cc4ab6cdf)" style="fill: none; stroke: #b0b0b0; stroke-width: 0.8; stroke-linecap: square"/>
     </g>
     <g id="line2d_22">
      <defs>
       <path id="m12c943c753" d="M 0 0 
L -3.5 0 
" style="stroke: #000000; stroke-width: 0.8"/>
      </defs>
      <g>
       <use xlink:href="#m12c943c753" x="57.6" y="298.944" style="stroke: #000000; stroke-width: 0.8"/>
      </g>
     </g>
     <g id="text_6">
      <!-- 0.0 -->
      <g transform="translate(25.155 305.02275)scale(0.16 -0.16)">
       <defs>
        <path id="DejaVuSans-2e" d="M 684 794 
L 1344 794 
L 1344 0 
L 684 0 
L 684 794 
z
" transform="scale(0.015625)"/>
       </defs>
       <use xlink:href="#DejaVuSans-30"/>
       <use xlink:href="#DejaVuSans-2e" x="63.623047"/>
       <use xlink:href="#DejaVuSans-30" x="95.410156"/>
      </g>
     </g>
    </g>
    <g id="ytick_2">
     <g id="line2d_23">
      <path d="M 57.6 244.6848 
L 360.8064 244.6848 
" clip-path="url(#p9cc4ab6cdf)" style="fill: none; stroke: #b0b0b0; stroke-width: 0.8; stroke-linecap: square"/>
     </g>
     <g id="line2d_24">
      <g>
       <use xlink:href="#m12c943c753" x="57.6" y="244.6848" style="stroke: #000000; stroke-width: 0.8"/>
      </g>
     </g>
     <g id="text_7">
      <!-- 0.2 -->
      <g transform="translate(25.155 250.76355)scale(0.16 -0.16)">
       <use xlink:href="#DejaVuSans-30"/>
       <use xlink:href="#DejaVuSans-2e" x="63.623047"/>
       <use xlink:href="#DejaVuSans-32" x="95.410156"/>
      </g>
     </g>
    </g>
    <g id="ytick_3">
     <g id="line2d_25">
      <path d="M 57.6 190.4256 
L 360.8064 190.4256 
" clip-path="url(#p9cc4ab6cdf)" style="fill: none; stroke: #b0b0b0; stroke-width: 0.8; stroke-linecap: square"/>
     </g>
     <g id="line2d_26">
      <g>
       <use xlink:href="#m12c943c753" x="57.6" y="190.4256" style="stroke: #000000; stroke-width: 0.8"/>
      </g>
     </g>
     <g id="text_8">
      <!-- 0.4 -->
      <g transform="translate(25.155 196.50435)scale(0.16 -0.16)">
       <use xlink:href="#DejaVuSans-30"/>
       <use xlink:href="#DejaVuSans-2e" x="63.623047"/>
       <use xlink:href="#DejaVuSans-34" x="95.410156"/>
      </g>
     </g>
    </g>
    <g id="ytick_4">
     <g id="line2d_27">
      <path d="M 57.6 136.1664 
L 360.8064 136.1664 
" clip-path="url(#p9cc4ab6cdf)" style="fill: none; stroke: #b0b0b0; stroke-width: 0.8; stroke-linecap: square"/>
     </g>
     <g id="line2d_28">
      <g>
       <use xlink:href="#m12c943c753" x="57.6" y="136.1664" style="stroke: #000000; stroke-width: 0.8"/>
      </g>
     </g>
     <g id="text_9">
      <!-- 0.6 -->
      <g transform="translate(25.155 142.24515)scale(0.16 -0.16)">
       <use xlink:href="#DejaVuSans-30"/>
       <use xlink:href="#DejaVuSans-2e" x="63.623047"/>
       <use xlink:href="#DejaVuSans-36" x="95.410156"/>
      </g>
     </g>
    </g>
    <g id="ytick_5">
     <g id="line2d_29">
      <path d="M 57.6 81.9072 
L 360.8064 81.9072 
" clip-path="url(#p9cc4ab6cdf)" style="fill: none; stroke: #b0b0b0; stroke-width: 0.8; stroke-linecap: square"/>
     </g>
     <g id="line2d_30">
      <g>
       <use xlink:href="#m12c943c753" x="57.6" y="81.9072" style="stroke: #000000; stroke-width: 0.8"/>
      </g>
     </g>
     <g id="text_10">
      <!-- 0.8 -->
      <g transform="translate(25.155 87.98595)scale(0.16 -0.16)">
       <defs>
        <path id="DejaVuSans-38" d="M 2034 2216 
Q 1584 2216 1326 1975 
Q 1069 1734 1069 1313 
Q 1069 891 1326 650 
Q 1584 409 2034 409 
Q 2484 409 2743 651 
Q 3003 894 3003 1313 
Q 3003 1734 2745 1975 
Q 2488 2216 2034 2216 
z
M 1403 2484 
Q 997 2584 770 2862 
Q 544 3141 544 3541 
Q 544 4100 942 4425 
Q 1341 4750 2034 4750 
Q 2731 4750 3128 4425 
Q 3525 4100 3525 3541 
Q 3525 3141 3298 2862 
Q 3072 2584 2669 2484 
Q 3125 2378 3379 2068 
Q 3634 1759 3634 1313 
Q 3634 634 3220 271 
Q 2806 -91 2034 -91 
Q 1263 -91 848 271 
Q 434 634 434 1313 
Q 434 1759 690 2068 
Q 947 2378 1403 2484 
z
M 1172 3481 
Q 1172 3119 1398 2916 
Q 1625 2713 2034 2713 
Q 2441 2713 2670 2916 
Q 2900 3119 2900 3481 
Q 2900 3844 2670 4047 
Q 2441 4250 2034 4250 
Q 1625 4250 1398 4047 
Q 1172 3844 1172 3481 
z
" transform="scale(0.015625)"/>
       </defs>
       <use xlink:href="#DejaVuSans-30"/>
       <use xlink:href="#DejaVuSans-2e" x="63.623047"/>
       <use xlink:href="#DejaVuSans-38" x="95.410156"/>
      </g>
     </g>
    </g>
    <g id="ytick_6">
     <g id="line2d_31">
      <path d="M 57.6 27.648 
L 360.8064 27.648 
" clip-path="url(#p9cc4ab6cdf)" style="fill: none; stroke: #b0b0b0; stroke-width: 0.8; stroke-linecap: square"/>
     </g>
     <g id="line2d_32">
      <g>
       <use xlink:href="#m12c943c753" x="57.6" y="27.648" style="stroke: #000000; stroke-width: 0.8"/>
      </g>
     </g>
     <g id="text_11">
      <!-- 1.0 -->
      <g transform="translate(25.155 33.72675)scale(0.16 -0.16)">
       <use xlink:href="#DejaVuSans-31"/>
       <use xlink:href="#DejaVuSans-2e" x="63.623047"/>
       <use xlink:href="#DejaVuSans-30" x="95.410156"/>
      </g>
     </g>
    </g>
    <g id="text_12">
     <!-- Fraction of function,target pairs -->
     <g transform="translate(17.619531 297.681)rotate(-90)scale(0.17 -0.17)">
      <defs>
       <path id="DejaVuSans-46" d="M 628 4666 
L 3309 4666 
L 3309 4134 
L 1259 4134 
L 1259 2759 
L 3109 2759 
L 3109 2228 
L 1259 2228 
L 1259 0 
L 628 0 
L 628 4666 
z
" transform="scale(0.015625)"/>
       <path id="DejaVuSans-72" d="M 2631 2963 
Q 2534 3019 2420 3045 
Q 2306 3072 2169 3072 
Q 1681 3072 1420 2755 
Q 1159 2438 1159 1844 
L 1159 0 
L 581 0 
L 581 3500 
L 1159 3500 
L 1159 2956 
Q 1341 3275 1631 3429 
Q 1922 3584 2338 3584 
Q 2397 3584 2469 3576 
Q 2541 3569 2628 3553 
L 2631 2963 
z
" transform="scale(0.015625)"/>
       <path id="DejaVuSans-63" d="M 3122 3366 
L 3122 2828 
Q 2878 2963 2633 3030 
Q 2388 3097 2138 3097 
Q 1578 3097 1268 2742 
Q 959 2388 959 1747 
Q 959 1106 1268 751 
Q 1578 397 2138 397 
Q 2388 397 2633 464 
Q 2878 531 3122 666 
L 3122 134 
Q 2881 22 2623 -34 
Q 2366 -91 2075 -91 
Q 1284 -91 818 406 
Q 353 903 353 1747 
Q 353 2603 823 3093 
Q 1294 3584 2113 3584 
Q 2378 3584 2631 3529 
Q 2884 3475 3122 3366 
z
" transform="scale(0.015625)"/>
       <path id="DejaVuSans-74" d="M 1172 4494 
L 1172 3500 
L 2356 3500 
L 2356 3053 
L 1172 3053 
L 1172 1153 
Q 1172 725 1289 603 
Q 1406 481 1766 481 
L 2356 481 
L 2356 0 
L 1766 0 
Q 1100 0 847 248 
Q 594 497 594 1153 
L 594 3053 
L 172 3053 
L 172 3500 
L 594 3500 
L 594 4494 
L 1172 4494 
z
" transform="scale(0.015625)"/>
       <path id="DejaVuSans-75" d="M 544 1381 
L 544 3500 
L 1119 3500 
L 1119 1403 
Q 1119 906 1312 657 
Q 1506 409 1894 409 
Q 2359 409 2629 706 
Q 2900 1003 2900 1516 
L 2900 3500 
L 3475 3500 
L 3475 0 
L 2900 0 
L 2900 538 
Q 2691 219 2414 64 
Q 2138 -91 1772 -91 
Q 1169 -91 856 284 
Q 544 659 544 1381 
z
M 1991 3584 
L 1991 3584 
z
" transform="scale(0.015625)"/>
       <path id="DejaVuSans-2c" d="M 750 794 
L 1409 794 
L 1409 256 
L 897 -744 
L 494 -744 
L 750 256 
L 750 794 
z
" transform="scale(0.015625)"/>
       <path id="DejaVuSans-70" d="M 1159 525 
L 1159 -1331 
L 581 -1331 
L 581 3500 
L 1159 3500 
L 1159 2969 
Q 1341 3281 1617 3432 
Q 1894 3584 2278 3584 
Q 2916 3584 3314 3078 
Q 3713 2572 3713 1747 
Q 3713 922 3314 415 
Q 2916 -91 2278 -91 
Q 1894 -91 1617 61 
Q 1341 213 1159 525 
z
M 3116 1747 
Q 3116 2381 2855 2742 
Q 2594 3103 2138 3103 
Q 1681 3103 1420 2742 
Q 1159 2381 1159 1747 
Q 1159 1113 1420 752 
Q 1681 391 2138 391 
Q 2594 391 2855 752 
Q 3116 1113 3116 1747 
z
" transform="scale(0.015625)"/>
      </defs>
      <use xlink:href="#DejaVuSans-46"/>
      <use xlink:href="#DejaVuSans-72" x="50.269531"/>
      <use xlink:href="#DejaVuSans-61" x="91.382812"/>
      <use xlink:href="#DejaVuSans-63" x="152.662109"/>
      <use xlink:href="#DejaVuSans-74" x="207.642578"/>
      <use xlink:href="#DejaVuSans-69" x="246.851562"/>
      <use xlink:href="#DejaVuSans-6f" x="274.634766"/>
      <use xlink:href="#DejaVuSans-6e" x="335.816406"/>
      <use xlink:href="#DejaVuSans-20" x="399.195312"/>
      <use xlink:href="#DejaVuSans-6f" x="430.982422"/>
      <use xlink:href="#DejaVuSans-66" x="492.164062"/>
      <use xlink:href="#DejaVuSans-20" x="527.369141"/>
      <use xlink:href="#DejaVuSans-66" x="559.15625"/>
      <use xlink:href="#DejaVuSans-75" x="594.361328"/>
      <use xlink:href="#DejaVuSans-6e" x="657.740234"/>
      <use xlink:href="#DejaVuSans-63" x="721.119141"/>
      <use xlink:href="#DejaVuSans-74" x="776.099609"/>
      <use xlink:href="#DejaVuSans-69" x="815.308594"/>
      <use xlink:href="#DejaVuSans-6f" x="843.091797"/>
      <use xlink:href="#DejaVuSans-6e" x="904.273438"/>
      <use xlink:href="#DejaVuSans-2c" x="967.652344"/>
      <use xlink:href="#DejaVuSans-74" x="999.439453"/>
      <use xlink:href="#DejaVuSans-61" x="1038.648438"/>
      <use xlink:href="#DejaVuSans-72" x="1099.927734"/>
      <use xlink:href="#DejaVuSans-67" x="1139.291016"/>
      <use xlink:href="#DejaVuSans-65" x="1202.767578"/>
      <use xlink:href="#DejaVuSans-74" x="1264.291016"/>
      <use xlink:href="#DejaVuSans-20" x="1303.5"/>
      <use xlink:href="#DejaVuSans-70" x="1335.287109"/>
      <use xlink:href="#DejaVuSans-61" x="1398.763672"/>
      <use xlink:href="#DejaVuSans-69" x="1460.042969"/>
      <use xlink:href="#DejaVuSans-72" x="1487.826172"/>
      <use xlink:href="#DejaVuSans-73" x="1528.939453"/>
     </g>
    </g>
   </g>
   <g id="line2d_33">
    <defs>
     <path id="m65ee99f27b" d="M 0 1.5 
C 0.397805 1.5 0.77937 1.341951 1.06066 1.06066 
C 1.341951 0.77937 1.5 0.397805 1.5 0 
C 1.5 -0.397805 1.341951 -0.77937 1.06066 -1.06066 
C 0.77937 -1.341951 0.397805 -1.5 0 -1.5 
C -0.397805 -1.5 -0.77937 -1.341951 -1.06066 -1.06066 
C -1.341951 -0.77937 -1.5 -0.397805 -1.5 0 
C -1.5 0.397805 -1.341951 0.77937 -1.06066 1.06066 
C -0.77937 1.341951 -0.397805 1.5 0 1.5 
z
" style="stroke: #f5deb3"/>
    </defs>
    <g>
     <use xlink:href="#m65ee99f27b" x="145.237585" y="27.648" style="fill: #f5deb3; stroke: #f5deb3"/>
     <use xlink:href="#m65ee99f27b" x="145.237585" y="27.648" style="fill: #f5deb3; stroke: #f5deb3"/>
    </g>
   </g>
   <g id="line2d_34">
    <defs>
     <path id="m913737961c" d="M 0 1.5 
C 0.397805 1.5 0.77937 1.341951 1.06066 1.06066 
C 1.341951 0.77937 1.5 0.397805 1.5 0 
C 1.5 -0.397805 1.341951 -0.77937 1.06066 -1.06066 
C 0.77937 -1.341951 0.397805 -1.5 0 -1.5 
C -0.397805 -1.5 -0.77937 -1.341951 -1.06066 -1.06066 
C -1.341951 -0.77937 -1.5 -0.397805 -1.5 0 
C -1.5 0.397805 -1.341951 0.77937 -1.06066 1.06066 
C -0.77937 1.341951 -0.397805 1.5 0 1.5 
z
" style="stroke: #000080"/>
    </defs>
    <g>
     <use xlink:href="#m913737961c" x="279.561156" y="27.648" style="fill: #000080; stroke: #000080"/>
     <use xlink:href="#m913737961c" x="279.561156" y="27.648" style="fill: #000080; stroke: #000080"/>
    </g>
   </g>
   <g id="line2d_35">
    <path d="M 109.159456 298.944 
L 109.159456 298.589365 
L 126.028642 298.589365 
L 126.028642 297.525459 
L 128.999044 297.525459 
L 128.999044 295.043012 
L 140.382174 295.043012 
L 140.382174 292.560565 
L 141.50224 292.560565 
L 141.50224 291.851294 
L 145.93763 291.851294 
L 145.93763 290.787388 
L 147.816265 290.787388 
L 147.816265 290.432753 
L 153.421349 290.432753 
L 153.421349 290.078118 
L 154.703817 290.078118 
L 154.703817 289.368847 
L 156.745011 289.368847 
L 156.745011 288.659576 
L 156.88953 288.659576 
L 156.88953 288.304941 
L 159.019705 288.304941 
L 159.019705 287.595671 
L 161.579783 287.595671 
L 161.579783 286.8864 
L 162.05979 286.8864 
L 162.05979 285.822494 
L 162.634233 285.822494 
L 162.740015 282.630776 
L 163.157294 282.630776 
L 163.22595 280.148329 
L 163.632702 280.148329 
L 163.632702 279.439059 
L 163.766354 279.439059 
L 163.865975 276.956612 
L 163.932096 276.956612 
L 163.96507 276.247341 
L 164.063646 276.247341 
L 164.063646 275.538071 
L 164.580835 275.538071 
L 164.580835 272.346353 
L 164.70794 272.346353 
L 164.70794 270.927812 
L 164.959603 270.927812 
L 165.053116 268.8 
L 165.1152 268.8 
L 165.1152 267.736094 
L 165.664928 267.736094 
L 165.664928 266.672188 
L 165.993131 266.672188 
L 166.022686 265.608282 
L 166.111072 265.608282 
L 166.169767 262.7712 
L 166.286609 262.7712 
L 166.373767 259.579482 
L 166.431649 259.579482 
L 166.489353 256.7424 
L 166.632844 256.7424 
L 166.632844 255.678494 
L 166.746854 255.678494 
L 166.746854 254.969224 
L 167.16834 254.969224 
L 167.16834 252.132141 
L 167.607754 252.132141 
L 167.716022 250.358965 
L 167.823671 250.358965 
L 167.823671 250.004329 
L 168.611979 250.004329 
L 168.611979 249.649694 
L 170.308749 249.649694 
L 170.308749 247.876518 
L 171.360458 247.876518 
L 171.360458 247.521882 
L 171.756506 247.521882 
L 171.756506 247.167247 
L 172.208263 247.167247 
L 172.208263 245.039435 
L 172.377547 245.039435 
L 172.377547 242.202353 
L 172.62865 242.202353 
L 172.732295 241.138447 
L 172.794209 241.138447 
L 172.814802 240.074541 
L 172.978738 240.074541 
L 172.978738 239.719906 
L 175.007602 239.719906 
L 175.007602 239.365271 
L 175.988986 239.365271 
L 175.988986 239.010635 
L 176.282249 239.010635 
L 176.282249 238.656 
L 177.651866 238.656 
L 177.667774 237.946729 
L 178.734177 237.946729 
L 178.734177 236.173553 
L 179.311218 236.173553 
L 179.325784 235.109647 
L 181.009863 235.109647 
L 181.009863 234.045741 
L 182.46945 234.045741 
L 182.567747 230.499388 
L 183.60482 230.499388 
L 183.60482 230.144753 
L 186.089188 230.144753 
L 186.089188 229.790118 
L 186.708966 229.790118 
L 186.816825 228.726212 
L 187.069333 228.726212 
L 187.069333 228.016941 
L 187.37553 228.016941 
L 187.37553 227.662306 
L 187.676822 227.662306 
L 187.676822 227.307671 
L 187.881197 227.307671 
L 187.881197 226.243765 
L 188.835937 226.243765 
L 188.94103 224.825224 
L 190.018694 224.825224 
L 190.018694 220.5696 
L 193.713228 220.5696 
L 193.713228 220.214965 
L 197.028561 220.214965 
L 197.028561 218.441788 
L 202.162715 218.441788 
L 202.240396 217.023247 
L 202.653572 217.023247 
L 202.653572 216.668612 
L 205.349453 216.668612 
L 205.349453 215.604706 
L 205.671583 215.604706 
L 205.671583 215.250071 
L 205.835939 215.250071 
L 205.835939 213.831529 
L 205.98123 213.831529 
L 205.98123 213.476894 
L 212.412387 213.476894 
L 212.412387 213.122259 
L 216.741518 213.122259 
L 216.775357 212.058353 
L 217.702738 212.058353 
L 217.702738 211.703718 
L 220.107406 211.703718 
L 220.107406 211.349082 
L 224.263723 211.349082 
L 224.263723 210.994447 
L 231.386688 210.994447 
L 231.386688 209.930541 
L 232.217764 209.930541 
L 232.222139 207.448094 
L 232.437011 207.448094 
L 232.528476 202.4832 
L 233.016188 202.4832 
L 233.038821 201.064659 
L 238.618205 201.064659 
L 238.618205 200.710024 
L 239.260367 200.710024 
L 239.260367 200.355388 
L 239.765094 200.355388 
L 239.765094 199.646118 
L 240.375551 199.646118 
L 240.375551 198.936847 
L 240.967369 198.936847 
L 240.967369 198.582212 
L 241.356304 198.582212 
L 241.356304 198.227576 
L 243.227335 198.227576 
L 243.227335 197.872941 
L 244.615606 197.872941 
L 244.704133 197.163671 
L 244.796282 197.163671 
L 244.822719 196.099765 
L 245.246872 196.099765 
L 245.246872 195.745129 
L 245.50514 195.745129 
L 245.605916 195.035859 
L 245.657816 195.035859 
L 245.721103 192.908047 
L 245.95655 192.908047 
L 246.044875 189.716329 
L 246.290002 189.716329 
L 246.384611 185.460706 
L 246.534429 185.460706 
L 246.624565 181.914353 
L 246.661148 181.914353 
L 246.661148 181.205082 
L 246.777739 181.205082 
L 246.875553 174.467012 
L 246.892408 174.467012 
L 246.95488 169.502118 
L 247.005585 169.502118 
L 247.066888 167.019671 
L 247.139872 167.019671 
L 247.227947 165.246494 
L 247.434075 165.246494 
L 247.468341 162.764047 
L 247.602853 162.764047 
L 247.661857 161.700141 
L 247.781993 161.700141 
L 247.885773 157.444518 
L 248.13073 157.444518 
L 248.13073 157.089882 
L 248.250157 157.089882 
L 248.250157 156.735247 
L 248.578301 156.735247 
L 248.578301 155.316706 
L 248.79598 155.316706 
L 248.882785 154.607435 
L 248.926757 154.607435 
L 248.926757 154.2528 
L 249.081642 154.2528 
L 249.151851 153.188894 
L 249.198038 153.188894 
L 249.198038 152.834259 
L 249.459165 152.834259 
L 249.518216 151.061082 
L 249.642351 151.061082 
L 249.648241 150.351812 
L 249.762572 150.351812 
L 249.827545 149.642541 
L 249.96602 149.642541 
L 250.043191 145.386918 
L 250.476161 145.386918 
L 250.571405 143.259106 
L 250.772537 143.259106 
L 250.772537 142.904471 
L 250.923363 142.904471 
L 250.933396 139.358118 
L 251.149918 139.358118 
L 251.149918 135.811765 
L 251.375989 135.811765 
L 251.375989 135.457129 
L 251.541819 135.457129 
L 251.628088 134.747859 
L 252.018196 134.747859 
L 252.018196 134.393224 
L 252.351228 134.393224 
L 252.446714 130.492235 
L 252.46462 130.492235 
L 252.46462 129.428329 
L 252.582669 129.428329 
L 252.636837 126.236612 
L 252.754695 126.236612 
L 252.865688 123.754165 
L 252.915844 123.754165 
L 253.025315 121.980988 
L 253.027052 121.980988 
L 253.099 120.207812 
L 253.157453 120.207812 
L 253.257811 115.597553 
L 253.28296 115.597553 
L 253.28296 115.242918 
L 253.402811 115.242918 
L 253.499331 113.824376 
L 253.532615 113.824376 
L 253.638565 111.341929 
L 253.771489 111.341929 
L 253.813183 108.504847 
L 254.172892 108.504847 
L 254.272326 103.894588 
L 254.373661 103.894588 
L 254.467752 98.220424 
L 254.498029 98.220424 
L 254.520772 96.801882 
L 254.709147 96.801882 
L 254.723702 95.028706 
L 254.928654 95.028706 
L 254.980132 93.610165 
L 255.343499 93.610165 
L 255.343499 93.255529 
L 255.535763 93.255529 
L 255.57297 91.836988 
L 255.669063 91.836988 
L 255.773926 87.226729 
L 255.808667 87.226729 
L 255.91524 85.098918 
L 256.207685 85.098918 
L 256.301327 84.389647 
L 256.5411 84.389647 
L 256.644809 83.680376 
L 256.682748 83.680376 
L 256.750799 79.070118 
L 256.820261 79.070118 
L 256.820261 78.715482 
L 256.940089 78.715482 
L 256.940089 76.942306 
L 257.164706 76.942306 
L 257.164706 76.587671 
L 257.309131 76.587671 
L 257.344374 75.523765 
L 257.784269 75.523765 
L 257.784269 75.169129 
L 257.913764 75.169129 
L 257.913764 74.814494 
L 258.089327 74.814494 
L 258.189264 71.268141 
L 258.26261 71.268141 
L 258.26261 70.913506 
L 258.431269 70.913506 
L 258.431269 70.558871 
L 258.741912 70.558871 
L 258.741912 70.204235 
L 259.016582 70.204235 
L 259.073347 69.494965 
L 259.148141 69.494965 
L 259.211389 68.431059 
L 259.283977 68.431059 
L 259.319648 67.721788 
L 259.69423 67.721788 
L 259.738253 66.657882 
L 259.863871 66.657882 
L 259.863871 66.303247 
L 260.022418 66.303247 
L 260.116393 64.175435 
L 260.210295 64.175435 
L 260.22432 63.466165 
L 260.443411 63.466165 
L 260.443411 63.111529 
L 260.603942 63.111529 
L 260.707577 62.402259 
L 260.727389 62.402259 
L 260.728543 61.692988 
L 261.029104 61.692988 
L 261.098788 60.274447 
L 261.170468 60.274447 
L 261.170468 59.919812 
L 261.331083 59.919812 
L 261.383328 59.210541 
L 261.450974 59.210541 
L 261.530725 54.954918 
L 261.583521 54.954918 
L 261.673869 53.536376 
L 261.933863 53.536376 
L 261.938911 52.827106 
L 262.136163 52.827106 
L 262.136163 52.472471 
L 262.588414 52.472471 
L 262.623558 51.7632 
L 263.013199 51.7632 
L 263.013199 51.408565 
L 263.259978 51.408565 
L 263.261994 50.344659 
L 264.745841 50.344659 
L 264.745841 49.990024 
L 265.775502 49.990024 
L 265.775502 49.635388 
L 266.681522 49.635388 
L 266.756183 48.926118 
L 267.772398 48.926118 
L 267.772398 48.571482 
L 268.053981 48.571482 
L 268.053981 47.862212 
L 268.395851 47.862212 
L 268.463893 47.152941 
L 268.545906 47.152941 
L 268.569617 46.443671 
L 268.66517 46.443671 
L 268.745935 40.414871 
L 268.997817 40.414871 
L 268.997817 40.060235 
L 269.206601 40.060235 
L 269.206601 39.350965 
L 269.320179 39.350965 
L 269.320179 38.996329 
L 269.499403 38.996329 
L 269.599479 37.577788 
L 269.625493 37.577788 
L 269.634116 36.159247 
L 269.752171 36.159247 
L 269.810032 35.449976 
L 270.023065 35.449976 
L 270.027405 34.740706 
L 270.214449 34.740706 
L 270.294854 33.322165 
L 270.387691 33.322165 
L 270.437323 30.130447 
L 270.521581 30.130447 
L 270.58191 28.711906 
L 277.062318 28.711906 
L 277.062318 28.357271 
L 278.163473 28.357271 
L 278.163473 28.002635 
L 279.561156 28.002635 
L 279.561156 27.648 
L 360.8064 27.648 
L 360.8064 27.648 
" style="fill: none; stroke: #000080; stroke-width: 1.5; stroke-linecap: square"/>
   </g>
   <g id="line2d_36">
    <defs>
     <path id="mf28627f22a" d="M 0 6 
C 1.591219 6 3.117479 5.367802 4.242641 4.242641 
C 5.367802 3.117479 6 1.591219 6 0 
C 6 -1.591219 5.367802 -3.117479 4.242641 -4.242641 
C 3.117479 -5.367802 1.591219 -6 0 -6 
C -1.591219 -6 -3.117479 -5.367802 -4.242641 -4.242641 
C -5.367802 -3.117479 -6 -1.591219 -6 0 
C -6 1.591219 -5.367802 3.117479 -4.242641 4.242641 
C -3.117479 5.367802 -1.591219 6 0 6 
z
" style="stroke: #000080; stroke-width: 1.5"/>
    </defs>
    <g>
     <use xlink:href="#mf28627f22a" x="202.653572" y="216.668612" style="fill-opacity: 0; stroke: #000080; stroke-width: 1.5"/>
     <use xlink:href="#mf28627f22a" x="255.914992" y="86.517459" style="fill-opacity: 0; stroke: #000080; stroke-width: 1.5"/>
     <use xlink:href="#mf28627f22a" x="279.561156" y="27.648" style="fill-opacity: 0; stroke: #000080; stroke-width: 1.5"/>
     <use xlink:href="#mf28627f22a" x="279.561156" y="27.648" style="fill-opacity: 0; stroke: #000080; stroke-width: 1.5"/>
     <use xlink:href="#mf28627f22a" x="360.8064" y="27.648" style="fill-opacity: 0; stroke: #000080; stroke-width: 1.5"/>
    </g>
   </g>
   <g id="line2d_37">
    <path style="fill: none; stroke: #000080; stroke-width: 1.5; stroke-linecap: square"/>
    <g/>
   </g>
   <g id="line2d_38">
    <path d="M 274.176 28.711906 
" clip-path="url(#p9cc4ab6cdf)" style="fill: none; stroke: #000080; stroke-width: 1.5; stroke-linecap: square"/>
    <defs>
     <path id="me519f84d4c" d="M -12 12 
L 12 -12 
M -12 -12 
L 12 12 
" style="stroke: #000080"/>
    </defs>
    <g clip-path="url(#p9cc4ab6cdf)">
     <use xlink:href="#me519f84d4c" x="274.176" y="28.711906" style="fill: #000080; stroke: #000080"/>
    </g>
   </g>
   <g id="line2d_39">
    <defs>
     <path id="m206962e379" d="M 0 1.5 
C 0.397805 1.5 0.77937 1.341951 1.06066 1.06066 
C 1.341951 0.77937 1.5 0.397805 1.5 0 
C 1.5 -0.397805 1.341951 -0.77937 1.06066 -1.06066 
C 0.77937 -1.341951 0.397805 -1.5 0 -1.5 
C -0.397805 -1.5 -0.77937 -1.341951 -1.06066 -1.06066 
C -1.341951 -0.77937 -1.5 -0.397805 -1.5 0 
C -1.5 0.397805 -1.341951 0.77937 -1.06066 1.06066 
C -0.77937 1.341951 -0.397805 1.5 0 1.5 
z
" style="stroke: #ff00ff"/>
    </defs>
    <g>
     <use xlink:href="#m206962e379" x="322.988001" y="27.648" style="fill: #ff00ff; stroke: #ff00ff"/>
     <use xlink:href="#m206962e379" x="322.988001" y="27.648" style="fill: #ff00ff; stroke: #ff00ff"/>
    </g>
   </g>
   <g id="line2d_40">
    <path d="M 81.166416 298.944 
L 81.166416 298.234729 
L 138.692823 298.234729 
L 138.692823 297.170824 
L 141.173167 297.170824 
L 141.173167 296.106918 
L 144.041338 296.106918 
L 144.041338 295.043012 
L 144.417581 295.043012 
L 144.417581 293.979106 
L 146.023332 293.979106 
L 146.023332 292.205929 
L 154.703817 292.205929 
L 154.703817 290.787388 
L 160.541906 290.787388 
L 160.541906 290.078118 
L 161.617145 290.078118 
L 161.617145 289.368847 
L 162.527853 289.368847 
L 162.527853 287.595671 
L 163.498092 287.595671 
L 163.498092 286.177129 
L 163.699647 286.177129 
L 163.699647 285.467859 
L 164.129077 285.467859 
L 164.129077 285.113224 
L 165.392072 285.113224 
L 165.392072 284.403953 
L 165.933882 284.403953 
L 165.933882 283.694682 
L 166.83191 283.694682 
L 166.83191 282.276141 
L 168.169334 282.276141 
L 168.169334 279.084424 
L 169.319074 279.084424 
L 169.343842 276.956612 
L 171.778266 276.956612 
L 171.778266 276.247341 
L 174.823534 276.247341 
L 174.823534 275.183435 
L 175.388379 275.183435 
L 175.388379 274.8288 
L 176.144812 274.8288 
L 176.144812 273.764894 
L 178.492224 273.764894 
L 178.492224 273.055624 
L 181.894052 273.055624 
L 181.894052 272.700988 
L 184.265742 272.700988 
L 184.265742 271.637082 
L 185.437775 271.637082 
L 185.437775 271.282447 
L 190.706949 271.282447 
L 190.706949 269.863906 
L 191.878235 269.863906 
L 191.878235 269.154635 
L 194.786584 269.154635 
L 194.786584 268.8 
L 195.116509 268.8 
L 195.122797 265.253647 
L 196.150471 265.253647 
L 196.150471 264.189741 
L 196.469219 264.189741 
L 196.469219 263.125835 
L 197.986649 263.125835 
L 197.986649 262.416565 
L 199.087667 262.416565 
L 199.087667 261.707294 
L 201.281835 261.707294 
L 201.281835 261.352659 
L 201.524975 261.352659 
L 201.524975 258.160941 
L 201.936487 258.160941 
L 201.936487 257.806306 
L 202.433205 257.806306 
L 202.433205 256.387765 
L 204.038026 256.387765 
L 204.038026 255.323859 
L 205.140209 255.323859 
L 205.140209 251.422871 
L 206.261534 251.422871 
L 206.261534 251.068235 
L 208.045296 251.068235 
L 208.045296 250.004329 
L 209.674469 250.004329 
L 209.674469 249.649694 
L 210.240229 249.649694 
L 210.335691 246.457976 
L 210.726487 246.457976 
L 210.792204 244.6848 
L 211.458169 244.6848 
L 211.458169 244.330165 
L 212.124295 244.330165 
L 212.198001 243.266259 
L 212.369705 243.266259 
L 212.369705 242.202353 
L 212.51493 242.202353 
L 212.562261 241.138447 
L 212.760253 241.138447 
L 212.831514 238.656 
L 213.482331 238.656 
L 213.583932 235.464282 
L 213.964165 235.464282 
L 213.964165 234.400376 
L 214.615525 234.400376 
L 214.615525 234.045741 
L 215.099989 234.045741 
L 215.099989 232.981835 
L 216.379436 232.981835 
L 216.379436 232.6272 
L 216.523091 232.6272 
L 216.523091 232.272565 
L 216.699632 232.272565 
L 216.699632 231.917929 
L 216.848797 231.917929 
L 216.933787 230.499388 
L 217.810335 230.499388 
L 217.889226 228.726212 
L 218.363056 228.726212 
L 218.394103 226.243765 
L 218.597375 226.243765 
L 218.597375 225.889129 
L 219.966946 225.889129 
L 220.007185 224.115953 
L 220.445857 224.115953 
L 220.52749 223.052047 
L 221.138168 223.052047 
L 221.186994 222.342776 
L 221.460275 222.342776 
L 221.50982 220.5696 
L 221.614672 220.5696 
L 221.614672 218.087153 
L 221.942394 218.087153 
L 221.942394 217.377882 
L 222.257076 217.377882 
L 222.257076 215.604706 
L 223.40984 215.604706 
L 223.493516 209.575906 
L 223.850503 209.575906 
L 223.850503 208.157365 
L 224.679822 208.157365 
L 224.679822 207.448094 
L 225.263791 207.448094 
L 225.263791 204.256376 
L 225.72666 204.256376 
L 225.72666 202.128565 
L 225.931904 202.128565 
L 225.931904 200.710024 
L 226.606604 200.710024 
L 226.679576 197.872941 
L 226.727677 197.872941 
L 226.814183 195.745129 
L 227.698148 195.745129 
L 227.698148 195.035859 
L 228.360688 195.035859 
L 228.360688 194.681224 
L 228.903871 194.681224 
L 228.903871 194.326588 
L 229.664781 194.326588 
L 229.664781 192.553412 
L 231.130682 192.553412 
L 231.130682 191.844141 
L 231.632938 191.844141 
L 231.707718 190.070965 
L 232.604073 190.070965 
L 232.604073 189.361694 
L 233.091525 189.361694 
L 233.091525 187.588518 
L 233.42111 187.588518 
L 233.453917 186.879247 
L 233.919303 186.879247 
L 233.95285 185.460706 
L 234.223022 185.460706 
L 234.223022 185.106071 
L 234.90131 185.106071 
L 234.90131 184.751435 
L 235.096813 184.751435 
L 235.153049 183.332894 
L 235.30962 183.332894 
L 235.394073 181.914353 
L 235.783975 181.914353 
L 235.783975 181.559718 
L 237.041299 181.559718 
L 237.041299 181.205082 
L 237.477723 181.205082 
L 237.477723 180.141176 
L 237.61616 180.141176 
L 237.61616 177.304094 
L 238.291564 177.304094 
L 238.321954 175.885553 
L 238.421014 175.885553 
L 238.50703 173.403106 
L 238.712003 173.403106 
L 238.781892 172.693835 
L 238.919671 172.693835 
L 238.919671 172.3392 
L 239.28202 172.3392 
L 239.28202 171.984565 
L 239.529261 171.984565 
L 239.529261 171.629929 
L 239.717576 171.629929 
L 239.717576 170.211388 
L 240.603873 170.211388 
L 240.653679 169.502118 
L 241.243445 169.502118 
L 241.311026 168.438212 
L 241.437424 168.438212 
L 241.522466 167.728941 
L 241.89602 167.728941 
L 241.984226 164.537224 
L 242.226865 164.537224 
L 242.226865 163.827953 
L 242.475041 163.827953 
L 242.475041 162.764047 
L 243.541513 162.764047 
L 243.541513 161.700141 
L 243.836378 161.700141 
L 243.899034 160.636235 
L 244.028394 160.636235 
L 244.028394 159.926965 
L 245.033777 159.926965 
L 245.033777 159.572329 
L 245.383839 159.572329 
L 245.383839 158.508424 
L 245.692052 158.508424 
L 245.692052 157.799153 
L 245.858487 157.799153 
L 245.858487 156.735247 
L 246.16492 156.735247 
L 246.16492 156.025976 
L 246.440162 156.025976 
L 246.440162 154.607435 
L 246.766839 154.607435 
L 246.766839 153.898165 
L 247.566896 153.898165 
L 247.671481 152.124988 
L 248.089372 152.124988 
L 248.173497 149.642541 
L 248.505178 149.642541 
L 248.505178 148.933271 
L 248.701852 148.933271 
L 248.795618 143.259106 
L 249.474907 143.259106 
L 249.545408 140.422024 
L 250.659275 140.422024 
L 250.659275 138.294212 
L 250.833468 138.294212 
L 250.833468 137.939576 
L 251.867618 137.939576 
L 251.867618 137.584941 
L 252.334715 137.584941 
L 252.334715 135.811765 
L 252.477144 135.811765 
L 252.477144 134.038588 
L 253.079667 134.038588 
L 253.079667 133.683953 
L 253.577653 133.683953 
L 253.577653 132.974682 
L 253.887171 132.974682 
L 253.948468 130.846871 
L 254.261484 130.846871 
L 254.261484 130.492235 
L 256.158237 130.492235 
L 256.158237 129.428329 
L 256.629516 129.428329 
L 256.629516 128.719059 
L 257.168655 128.719059 
L 257.168655 128.364424 
L 258.752165 128.364424 
L 258.752165 126.591247 
L 260.400423 126.591247 
L 260.400423 126.236612 
L 260.849459 126.236612 
L 260.849459 125.881976 
L 261.044422 125.881976 
L 261.044422 125.527341 
L 261.848925 125.527341 
L 261.848925 125.172706 
L 263.677095 125.172706 
L 263.677095 124.818071 
L 274.681297 124.818071 
L 274.681297 124.463435 
L 275.152937 124.463435 
L 275.204035 123.399529 
L 275.311839 123.399529 
L 275.313964 122.690259 
L 275.439884 122.690259 
L 275.515366 119.498541 
L 275.592291 119.498541 
L 275.664036 117.725365 
L 275.727283 117.725365 
L 275.736202 116.661459 
L 275.86183 116.661459 
L 275.969616 115.597553 
L 276.09922 115.597553 
L 276.152812 114.888282 
L 276.287554 114.888282 
L 276.376041 112.760471 
L 276.505543 112.760471 
L 276.576628 111.696565 
L 276.778211 111.696565 
L 276.880887 108.859482 
L 276.897579 108.859482 
L 276.962821 107.440941 
L 277.011179 107.440941 
L 277.070384 106.0224 
L 277.201698 106.0224 
L 277.297314 104.958494 
L 277.316029 104.958494 
L 277.398233 102.121412 
L 277.435365 102.121412 
L 277.473765 101.412141 
L 277.643728 101.412141 
L 277.692164 100.702871 
L 277.89548 100.702871 
L 277.956972 99.284329 
L 278.041866 99.284329 
L 278.148324 97.156518 
L 278.2093 97.156518 
L 278.2093 96.801882 
L 278.362311 96.801882 
L 278.465104 94.319435 
L 278.548561 94.319435 
L 278.607735 92.546259 
L 278.748998 92.546259 
L 278.748998 91.836988 
L 279.005111 91.836988 
L 279.043853 89.709176 
L 279.38949 89.709176 
L 279.423393 87.226729 
L 279.568996 87.226729 
L 279.568996 86.872094 
L 279.692026 86.872094 
L 279.782516 85.453553 
L 279.864998 85.453553 
L 279.864998 84.744282 
L 280.369835 84.744282 
L 280.369835 83.680376 
L 281.639747 83.680376 
L 281.639747 83.325741 
L 281.850398 83.325741 
L 281.850398 82.971106 
L 287.849228 82.971106 
L 287.950218 81.9072 
L 288.013159 81.9072 
L 288.013159 81.552565 
L 288.256608 81.552565 
L 288.355529 80.134024 
L 288.47985 80.134024 
L 288.586966 79.070118 
L 288.61545 79.070118 
L 288.670245 75.523765 
L 288.77174 75.523765 
L 288.77174 74.814494 
L 288.888531 74.814494 
L 288.989372 72.332047 
L 289.219189 72.332047 
L 289.330175 70.913506 
L 289.391729 70.913506 
L 289.476325 69.494965 
L 289.533329 69.494965 
L 289.612656 65.593976 
L 289.691484 65.593976 
L 289.699811 64.530071 
L 289.835069 64.530071 
L 289.835069 64.175435 
L 289.989947 64.175435 
L 290.071416 62.047624 
L 290.224408 62.047624 
L 290.224408 61.692988 
L 290.69088 61.692988 
L 290.69088 61.338353 
L 291.05483 61.338353 
L 291.05483 60.629082 
L 295.427332 60.629082 
L 295.449475 59.565176 
L 295.647753 59.565176 
L 295.725932 58.855906 
L 295.861909 58.855906 
L 295.931217 57.792 
L 295.976878 57.792 
L 296.011117 56.728094 
L 296.161752 56.728094 
L 296.238178 55.664188 
L 296.282171 55.664188 
L 296.314671 54.954918 
L 296.423426 54.954918 
L 296.509992 51.7632 
L 296.570437 51.7632 
L 296.570437 51.408565 
L 296.829121 51.408565 
L 296.936073 50.699294 
L 296.972307 50.699294 
L 297.005426 49.635388 
L 297.521132 49.635388 
L 297.521132 49.280753 
L 297.94497 49.280753 
L 297.94497 48.926118 
L 300.682551 48.926118 
L 300.682551 48.571482 
L 300.88963 48.571482 
L 300.948826 47.862212 
L 301.028315 47.862212 
L 301.104549 46.798306 
L 301.165269 46.798306 
L 301.165269 46.443671 
L 301.50376 46.443671 
L 301.59205 44.670494 
L 301.664052 44.670494 
L 301.664052 43.606588 
L 301.780129 43.606588 
L 301.780129 42.897318 
L 301.900536 42.897318 
L 301.900536 42.542682 
L 302.083736 42.542682 
L 302.083736 42.188047 
L 302.324284 42.188047 
L 302.324284 41.478776 
L 305.09628 41.478776 
L 305.129535 40.414871 
L 305.299213 40.414871 
L 305.301605 39.7056 
L 305.5122 39.7056 
L 305.551703 38.287059 
L 305.704226 38.287059 
L 305.802022 36.513882 
L 308.244949 36.513882 
L 308.244949 36.159247 
L 308.439057 36.159247 
L 308.439057 35.449976 
L 308.744574 35.449976 
L 308.81807 34.386071 
L 308.870141 34.386071 
L 308.870141 33.6768 
L 309.032265 33.6768 
L 309.032265 33.322165 
L 311.076741 33.322165 
L 311.109689 32.612894 
L 311.374221 32.612894 
L 311.374221 32.258259 
L 311.509895 32.258259 
L 311.509895 31.903624 
L 311.770796 31.903624 
L 311.770796 31.548988 
L 311.8958 31.548988 
L 311.8958 31.194353 
L 313.595273 31.194353 
L 313.595273 30.839718 
L 314.005261 30.839718 
L 314.005261 30.485082 
L 314.127748 30.485082 
L 314.190302 29.775812 
L 316.518906 29.775812 
L 316.518906 29.421176 
L 318.103761 29.421176 
L 318.103761 29.066541 
L 318.222752 29.066541 
L 318.234446 28.357271 
L 319.820394 28.357271 
L 319.820394 28.002635 
L 322.988001 28.002635 
L 322.988001 27.648 
L 360.8064 27.648 
L 360.8064 27.648 
" style="fill: none; stroke: #ff00ff; stroke-width: 1.5; stroke-linecap: square"/>
   </g>
   <g id="line2d_41">
    <defs>
     <path id="m1bc92a857d" d="M 0 8.485281 
L 5.091169 0 
L 0 -8.485281 
L -5.091169 0 
z
" style="stroke: #ff00ff; stroke-width: 1.5; stroke-linejoin: miter"/>
    </defs>
    <g>
     <use xlink:href="#m1bc92a857d" x="185.437775" y="271.282447" style="fill-opacity: 0; stroke: #ff00ff; stroke-width: 1.5; stroke-linejoin: miter"/>
     <use xlink:href="#m1bc92a857d" x="249.545408" y="141.485929" style="fill-opacity: 0; stroke: #ff00ff; stroke-width: 1.5; stroke-linejoin: miter"/>
     <use xlink:href="#m1bc92a857d" x="305.802022" y="37.223153" style="fill-opacity: 0; stroke: #ff00ff; stroke-width: 1.5; stroke-linejoin: miter"/>
     <use xlink:href="#m1bc92a857d" x="322.988001" y="27.648" style="fill-opacity: 0; stroke: #ff00ff; stroke-width: 1.5; stroke-linejoin: miter"/>
     <use xlink:href="#m1bc92a857d" x="360.8064" y="27.648" style="fill-opacity: 0; stroke: #ff00ff; stroke-width: 1.5; stroke-linejoin: miter"/>
    </g>
   </g>
   <g id="line2d_42">
    <path style="fill: none; stroke: #ff00ff; stroke-width: 1.5; stroke-linecap: square"/>
    <g/>
   </g>
   <g id="line2d_43">
    <path d="M 274.292272 124.818071 
" clip-path="url(#p9cc4ab6cdf)" style="fill: none; stroke: #ff00ff; stroke-width: 1.5; stroke-linecap: square"/>
    <defs>
     <path id="ma1d9ca6738" d="M -12 12 
L 12 -12 
M -12 -12 
L 12 12 
" style="stroke: #ff00ff"/>
    </defs>
    <g clip-path="url(#p9cc4ab6cdf)">
     <use xlink:href="#ma1d9ca6738" x="274.292272" y="124.818071" style="fill: #ff00ff; stroke: #ff00ff"/>
    </g>
   </g>
   <g id="line2d_44">
    <defs>
     <path id="md28dd9c700" d="M 0 1.5 
C 0.397805 1.5 0.77937 1.341951 1.06066 1.06066 
C 1.341951 0.77937 1.5 0.397805 1.5 0 
C 1.5 -0.397805 1.341951 -0.77937 1.06066 -1.06066 
C 0.77937 -1.341951 0.397805 -1.5 0 -1.5 
C -0.397805 -1.5 -0.77937 -1.341951 -1.06066 -1.06066 
C -1.341951 -0.77937 -1.5 -0.397805 -1.5 0 
C -1.5 0.397805 -1.341951 0.77937 -1.06066 1.06066 
C -0.77937 1.341951 -0.397805 1.5 0 1.5 
z
" style="stroke: #ff7500"/>
    </defs>
    <g>
     <use xlink:href="#md28dd9c700" x="284.985596" y="27.648" style="fill: #ff7500; stroke: #ff7500"/>
     <use xlink:href="#md28dd9c700" x="284.985596" y="27.648" style="fill: #ff7500; stroke: #ff7500"/>
    </g>
   </g>
   <g id="line2d_45">
    <path d="M 74.836851 298.944 
L 74.836851 298.589365 
L 124.210942 298.589365 
L 124.210942 296.816188 
L 126.028642 296.816188 
L 126.028642 296.106918 
L 130.618241 296.106918 
L 130.618241 293.979106 
L 131.378407 293.979106 
L 131.378407 292.9152 
L 139.191172 292.9152 
L 139.191172 292.205929 
L 140.725251 292.205929 
L 140.725251 291.142024 
L 141.283499 291.142024 
L 141.283499 289.723482 
L 142.865233 289.723482 
L 142.865233 289.368847 
L 147.264104 289.368847 
L 147.264104 287.595671 
L 148.428077 287.595671 
L 148.428077 286.8864 
L 149.020615 286.8864 
L 149.093387 285.467859 
L 149.524205 285.467859 
L 149.595059 283.340047 
L 151.349377 283.340047 
L 151.349377 282.630776 
L 153.071898 282.630776 
L 153.071898 280.502965 
L 154.918196 280.502965 
L 154.918196 277.665882 
L 156.105602 277.665882 
L 156.155566 274.119529 
L 157.127956 274.119529 
L 157.127956 273.055624 
L 158.187393 273.055624 
L 158.187393 271.991718 
L 158.321284 271.991718 
L 158.321284 271.282447 
L 159.105212 271.282447 
L 159.105212 270.218541 
L 159.359426 270.218541 
L 159.359426 269.863906 
L 159.61025 269.863906 
L 159.61025 264.544376 
L 160.061585 264.544376 
L 160.061585 262.416565 
L 160.933013 262.416565 
L 160.97168 261.352659 
L 162.349204 261.352659 
L 162.349204 257.806306 
L 162.775144 257.806306 
L 162.775144 257.451671 
L 163.157294 257.451671 
L 163.157294 257.097035 
L 163.997986 257.097035 
L 163.997986 256.7424 
L 165.904188 256.7424 
L 165.904188 256.387765 
L 166.661411 256.387765 
L 166.661411 255.678494 
L 168.169334 255.678494 
L 168.169334 254.614588 
L 168.79126 254.614588 
L 168.79126 254.259953 
L 169.06958 254.259953 
L 169.06958 253.196047 
L 169.194741 253.196047 
L 169.194741 252.486776 
L 171.449192 252.486776 
L 171.449192 251.068235 
L 171.800001 251.068235 
L 171.800001 250.7136 
L 174.823534 250.7136 
L 174.823534 250.358965 
L 175.352444 250.358965 
L 175.424244 248.940424 
L 176.006364 248.940424 
L 176.006364 248.585788 
L 176.788874 248.585788 
L 176.788874 248.231153 
L 177.635944 248.231153 
L 177.635944 246.812612 
L 179.743355 246.812612 
L 179.743355 246.103341 
L 179.955757 246.103341 
L 179.955757 245.748706 
L 180.741697 245.748706 
L 180.741697 243.620894 
L 181.274261 243.620894 
L 181.313602 242.556988 
L 181.779386 242.556988 
L 181.779386 241.847718 
L 182.171439 241.847718 
L 182.171439 241.138447 
L 182.506372 241.138447 
L 182.506372 240.429176 
L 183.488484 240.429176 
L 183.488484 240.074541 
L 184.554643 240.074541 
L 184.554643 239.719906 
L 184.81744 239.719906 
L 184.87173 239.010635 
L 185.130164 239.010635 
L 185.130164 238.301365 
L 185.268681 238.301365 
L 185.268681 237.946729 
L 185.843683 237.946729 
L 185.843683 237.237459 
L 186.099348 237.237459 
L 186.099348 236.173553 
L 186.33153 236.173553 
L 186.33153 235.109647 
L 186.51126 235.109647 
L 186.560881 230.854024 
L 186.79726 230.854024 
L 186.894881 230.144753 
L 187.165556 230.144753 
L 187.165556 229.080847 
L 188.037615 229.080847 
L 188.037615 227.662306 
L 188.481326 227.662306 
L 188.481326 226.953035 
L 188.730254 226.953035 
L 188.730254 226.5984 
L 189.019466 226.5984 
L 189.019466 226.243765 
L 189.466358 226.243765 
L 189.559547 223.406682 
L 189.828049 223.406682 
L 189.828049 223.052047 
L 190.256351 223.052047 
L 190.256351 222.342776 
L 190.587307 222.342776 
L 190.667153 218.796424 
L 191.216778 218.796424 
L 191.216778 217.732518 
L 191.705616 217.732518 
L 191.705616 216.668612 
L 192.196768 216.668612 
L 192.196768 216.313976 
L 192.603677 216.313976 
L 192.603677 214.186165 
L 192.818097 214.186165 
L 192.818097 213.476894 
L 193.016041 213.476894 
L 193.072216 212.767624 
L 193.915432 212.767624 
L 193.915432 211.703718 
L 194.411634 211.703718 
L 194.424688 209.930541 
L 194.593578 209.930541 
L 194.593578 209.221271 
L 194.888717 209.221271 
L 194.939576 208.512 
L 195.141649 208.512 
L 195.141649 206.738824 
L 195.322922 206.738824 
L 195.322922 205.674918 
L 195.674204 205.674918 
L 195.729075 204.611012 
L 196.132604 204.611012 
L 196.132604 204.256376 
L 196.392976 204.256376 
L 196.392976 203.547106 
L 196.568458 203.547106 
L 196.62659 202.128565 
L 196.926015 202.128565 
L 196.926015 201.773929 
L 197.533073 201.773929 
L 197.632372 201.064659 
L 198.334377 201.064659 
L 198.334377 200.710024 
L 199.153753 200.710024 
L 199.153753 200.355388 
L 199.435805 200.355388 
L 199.435805 200.000753 
L 199.634713 200.000753 
L 199.738304 199.291482 
L 200.016637 199.291482 
L 200.016637 198.582212 
L 200.223916 198.582212 
L 200.223916 197.872941 
L 200.36243 197.872941 
L 200.36243 197.518306 
L 200.485754 197.518306 
L 200.485754 197.163671 
L 200.687955 197.163671 
L 200.743997 194.681224 
L 200.961903 194.681224 
L 201.067625 193.971953 
L 201.159076 193.971953 
L 201.259162 192.198776 
L 201.45326 192.198776 
L 201.45326 191.489506 
L 201.609782 191.489506 
L 201.632036 190.070965 
L 201.809129 190.070965 
L 201.809129 189.361694 
L 202.04559 189.361694 
L 202.04559 188.652424 
L 202.309177 188.652424 
L 202.330619 186.879247 
L 202.81717 186.879247 
L 202.81717 185.815341 
L 203.493991 185.815341 
L 203.582422 185.106071 
L 203.634482 185.106071 
L 203.634482 184.3968 
L 203.793768 184.3968 
L 203.868958 183.687529 
L 203.920232 183.687529 
L 204.018445 181.914353 
L 204.127837 181.914353 
L 204.127837 178.722635 
L 204.306184 178.722635 
L 204.306184 174.112376 
L 204.417757 174.112376 
L 204.417757 173.757741 
L 204.578181 173.757741 
L 204.578181 173.403106 
L 204.894983 173.403106 
L 204.894983 172.693835 
L 205.132825 172.693835 
L 205.169718 171.629929 
L 205.462283 171.629929 
L 205.473166 170.566024 
L 205.768227 170.566024 
L 205.835939 169.502118 
L 205.91404 169.502118 
L 206.023543 167.019671 
L 206.034106 167.019671 
L 206.034106 166.665035 
L 206.195339 166.665035 
L 206.195339 165.601129 
L 206.320565 165.601129 
L 206.320565 164.537224 
L 206.489682 164.537224 
L 206.537723 163.473318 
L 206.725277 163.473318 
L 206.772721 158.863059 
L 206.984751 158.863059 
L 206.984751 158.508424 
L 207.21757 158.508424 
L 207.270384 156.735247 
L 207.434477 156.735247 
L 207.434477 155.316706 
L 207.771274 155.316706 
L 207.806547 152.834259 
L 208.035804 152.834259 
L 208.035804 152.124988 
L 208.234137 152.124988 
L 208.321618 151.061082 
L 208.907752 151.061082 
L 208.934926 147.514729 
L 209.260947 147.514729 
L 209.260947 147.160094 
L 209.420393 147.160094 
L 209.420393 146.805459 
L 209.543479 146.805459 
L 209.543479 146.450824 
L 209.729503 146.450824 
L 209.729503 146.096188 
L 210.036461 146.096188 
L 210.036461 145.386918 
L 210.257111 145.386918 
L 210.257111 144.323012 
L 210.505756 144.323012 
L 210.566716 142.1952 
L 210.632992 142.1952 
L 210.742938 140.776659 
L 211.823961 140.776659 
L 211.857569 139.003482 
L 212.195464 139.003482 
L 212.195464 138.294212 
L 212.517424 138.294212 
L 212.626837 135.457129 
L 212.634274 135.457129 
L 212.634274 135.102494 
L 213.123549 135.102494 
L 213.123549 134.747859 
L 213.498908 134.747859 
L 213.567429 131.556141 
L 214.15258 131.556141 
L 214.15258 131.201506 
L 214.345918 131.201506 
L 214.345918 130.846871 
L 215.160762 130.846871 
L 215.258024 129.782965 
L 215.419019 129.782965 
L 215.419019 128.364424 
L 215.755837 128.364424 
L 215.755837 128.009788 
L 216.144404 128.009788 
L 216.2019 125.881976 
L 216.308215 125.881976 
L 216.308215 125.172706 
L 216.529136 125.172706 
L 216.529136 124.818071 
L 216.894305 124.818071 
L 216.894305 124.1088 
L 217.100671 124.1088 
L 217.100671 123.044894 
L 217.349217 123.044894 
L 217.349217 122.690259 
L 217.468436 122.690259 
L 217.533495 120.207812 
L 217.958451 120.207812 
L 218.006944 118.434635 
L 218.218104 118.434635 
L 218.218104 118.08 
L 218.919529 118.08 
L 218.919529 117.370729 
L 219.508229 117.370729 
L 219.508229 116.306824 
L 219.887895 116.306824 
L 219.887895 115.952188 
L 220.10574 115.952188 
L 220.10574 115.597553 
L 220.563297 115.597553 
L 220.563297 115.242918 
L 220.738093 115.242918 
L 220.763852 113.115106 
L 221.331157 113.115106 
L 221.331157 111.696565 
L 221.851509 111.696565 
L 221.851509 111.341929 
L 222.16621 111.341929 
L 222.169196 110.632659 
L 222.537322 110.632659 
L 222.537322 110.278024 
L 224.037981 110.278024 
L 224.097366 109.568753 
L 224.216916 109.568753 
L 224.216916 109.214118 
L 224.416701 109.214118 
L 224.416701 108.150212 
L 224.652367 108.150212 
L 224.725492 107.086306 
L 225.048523 107.086306 
L 225.048523 106.377035 
L 225.391276 106.377035 
L 225.391276 106.0224 
L 225.736544 106.0224 
L 225.736544 104.249224 
L 227.279572 104.249224 
L 227.279572 103.185318 
L 227.460747 103.185318 
L 227.460747 101.412141 
L 227.595493 101.412141 
L 227.595493 100.348235 
L 227.823474 100.348235 
L 227.823474 99.9936 
L 228.0378 99.9936 
L 228.130465 99.284329 
L 228.17283 99.284329 
L 228.258354 97.511153 
L 228.517947 97.511153 
L 228.597677 96.801882 
L 229.193858 96.801882 
L 229.28715 95.028706 
L 229.341272 95.028706 
L 229.341272 94.674071 
L 229.666785 94.674071 
L 229.666785 94.319435 
L 230.974267 94.319435 
L 231.049844 92.191624 
L 232.328577 92.191624 
L 232.352052 90.418447 
L 232.832446 90.418447 
L 232.832446 89.354541 
L 233.590272 89.354541 
L 233.653622 86.872094 
L 233.804635 86.872094 
L 233.885697 85.453553 
L 233.918504 85.453553 
L 233.918504 85.098918 
L 234.416324 85.098918 
L 234.416324 84.744282 
L 236.121212 84.744282 
L 236.21697 83.325741 
L 236.24525 83.325741 
L 236.301682 82.616471 
L 236.44552 82.616471 
L 236.44552 82.261835 
L 236.845252 82.261835 
L 236.901279 81.552565 
L 237.465809 81.552565 
L 237.539156 80.488659 
L 237.831666 80.488659 
L 237.831666 80.134024 
L 238.564573 80.134024 
L 238.564573 79.424753 
L 239.134161 79.424753 
L 239.134161 78.715482 
L 239.323453 78.715482 
L 239.323453 77.651576 
L 239.872592 77.651576 
L 239.872592 77.296941 
L 240.192022 77.296941 
L 240.291988 76.587671 
L 240.821705 76.587671 
L 240.821705 76.233035 
L 241.217971 76.233035 
L 241.217971 75.523765 
L 242.647741 75.523765 
L 242.647741 74.105224 
L 243.380729 74.105224 
L 243.395227 73.395953 
L 244.269265 73.395953 
L 244.269265 73.041318 
L 244.855826 73.041318 
L 244.855826 72.686682 
L 245.32333 72.686682 
L 245.33597 71.977412 
L 245.467966 71.977412 
L 245.467966 71.622776 
L 245.677509 71.622776 
L 245.787156 70.558871 
L 245.905892 70.558871 
L 245.905892 70.204235 
L 246.257669 70.204235 
L 246.290831 69.494965 
L 247.216911 69.494965 
L 247.216911 69.140329 
L 248.007894 69.140329 
L 248.033205 67.367153 
L 248.538651 67.367153 
L 248.538651 67.012518 
L 248.802505 67.012518 
L 248.802505 66.657882 
L 249.302077 66.657882 
L 249.302077 66.303247 
L 250.66945 66.303247 
L 250.66945 65.948612 
L 250.868893 65.948612 
L 250.868893 65.593976 
L 251.724825 65.593976 
L 251.724825 64.530071 
L 251.865155 64.530071 
L 251.865155 62.047624 
L 252.311875 62.047624 
L 252.311875 60.983718 
L 252.919047 60.983718 
L 252.919047 60.629082 
L 253.092943 60.629082 
L 253.200243 58.855906 
L 253.503847 58.855906 
L 253.582713 57.437365 
L 253.765645 57.437365 
L 253.765645 57.082729 
L 253.925022 57.082729 
L 253.925022 56.728094 
L 254.0543 56.728094 
L 254.123797 54.600282 
L 254.591501 54.600282 
L 254.591501 53.891012 
L 254.760437 53.891012 
L 254.789193 53.181741 
L 256.421354 53.181741 
L 256.421354 52.827106 
L 258.17958 52.827106 
L 258.26765 51.7632 
L 258.752165 51.7632 
L 258.752165 51.408565 
L 259.389137 51.408565 
L 259.389137 50.344659 
L 260.114605 50.344659 
L 260.114605 49.990024 
L 260.714696 49.990024 
L 260.714696 49.635388 
L 261.101615 49.635388 
L 261.101615 49.280753 
L 261.615825 49.280753 
L 261.615825 48.926118 
L 261.748676 48.926118 
L 261.748676 48.216847 
L 262.054644 48.216847 
L 262.054644 46.798306 
L 262.528762 46.798306 
L 262.528762 46.443671 
L 262.985938 46.443671 
L 262.985938 46.089035 
L 263.287516 46.089035 
L 263.287516 45.7344 
L 263.692538 45.7344 
L 263.692538 45.025129 
L 264.216901 45.025129 
L 264.216901 44.670494 
L 264.464404 44.670494 
L 264.464404 44.315859 
L 264.830122 44.315859 
L 264.850825 43.606588 
L 265.098257 43.606588 
L 265.098257 43.251953 
L 265.684137 43.251953 
L 265.684137 42.897318 
L 265.983973 42.897318 
L 265.983973 42.542682 
L 266.868594 42.542682 
L 266.868594 41.833412 
L 267.213974 41.833412 
L 267.213974 40.769506 
L 267.354398 40.769506 
L 267.354398 39.7056 
L 267.57545 39.7056 
L 267.59441 38.287059 
L 267.777421 38.287059 
L 267.81439 36.868518 
L 269.416607 36.868518 
L 269.416607 36.159247 
L 271.159113 36.159247 
L 271.159113 34.740706 
L 271.342834 34.740706 
L 271.342834 34.386071 
L 271.491827 34.386071 
L 271.491827 34.031435 
L 271.654068 34.031435 
L 271.654068 33.6768 
L 272.663201 33.6768 
L 272.663201 32.612894 
L 273.683712 32.612894 
L 273.683712 32.258259 
L 274.671772 32.258259 
L 274.691641 31.548988 
L 275.07715 31.548988 
L 275.080198 30.839718 
L 275.684014 30.839718 
L 275.684014 29.775812 
L 276.991591 29.775812 
L 276.991591 29.421176 
L 279.189962 29.421176 
L 279.189962 29.066541 
L 279.606102 29.066541 
L 279.606102 28.711906 
L 282.44021 28.711906 
L 282.44021 28.357271 
L 284.286636 28.357271 
L 284.286636 28.002635 
L 284.985596 28.002635 
L 284.985596 27.648 
L 360.8064 27.648 
L 360.8064 27.648 
" style="fill: none; stroke: #ff7500; stroke-width: 1.5; stroke-linecap: square"/>
   </g>
   <g id="line2d_46">
    <defs>
     <path id="ma6cb36a8f9" d="M 0 -6 
L -1.347084 -1.854102 
L -5.706339 -1.854102 
L -2.179628 0.708204 
L -3.526712 4.854102 
L -0 2.291796 
L 3.526712 4.854102 
L 2.179628 0.708204 
L 5.706339 -1.854102 
L 1.347084 -1.854102 
z
" style="stroke: #ff7500; stroke-width: 1.5; stroke-linejoin: bevel"/>
    </defs>
    <g>
     <use xlink:href="#ma6cb36a8f9" x="165.904188" y="256.7424" style="fill-opacity: 0; stroke: #ff7500; stroke-width: 1.5; stroke-linejoin: bevel"/>
     <use xlink:href="#ma6cb36a8f9" x="222.537322" y="110.632659" style="fill-opacity: 0; stroke: #ff7500; stroke-width: 1.5; stroke-linejoin: bevel"/>
     <use xlink:href="#ma6cb36a8f9" x="284.985596" y="28.002635" style="fill-opacity: 0; stroke: #ff7500; stroke-width: 1.5; stroke-linejoin: bevel"/>
     <use xlink:href="#ma6cb36a8f9" x="284.985596" y="27.648" style="fill-opacity: 0; stroke: #ff7500; stroke-width: 1.5; stroke-linejoin: bevel"/>
     <use xlink:href="#ma6cb36a8f9" x="360.8064" y="27.648" style="fill-opacity: 0; stroke: #ff7500; stroke-width: 1.5; stroke-linejoin: bevel"/>
    </g>
   </g>
   <g id="line2d_47">
    <path style="fill: none; stroke: #ff7500; stroke-width: 1.5; stroke-linecap: square"/>
    <g/>
   </g>
   <g id="line2d_48">
    <path d="M 274.176 32.258259 
" clip-path="url(#p9cc4ab6cdf)" style="fill: none; stroke: #ff7500; stroke-width: 1.5; stroke-linecap: square"/>
    <defs>
     <path id="m1fdde13bf1" d="M -12 12 
L 12 -12 
M -12 -12 
L 12 12 
" style="stroke: #ff7500"/>
    </defs>
    <g clip-path="url(#p9cc4ab6cdf)">
     <use xlink:href="#m1fdde13bf1" x="274.176" y="32.258259" style="fill: #ff7500; stroke: #ff7500"/>
    </g>
   </g>
   <g id="line2d_49">
    <defs>
     <path id="m9cd2e7fffb" d="M 0 1.5 
C 0.397805 1.5 0.77937 1.341951 1.06066 1.06066 
C 1.341951 0.77937 1.5 0.397805 1.5 0 
C 1.5 -0.397805 1.341951 -0.77937 1.06066 -1.06066 
C 0.77937 -1.341951 0.397805 -1.5 0 -1.5 
C -0.397805 -1.5 -0.77937 -1.341951 -1.06066 -1.06066 
C -1.341951 -0.77937 -1.5 -0.397805 -1.5 0 
C -1.5 0.397805 -1.341951 0.77937 -1.06066 1.06066 
C -0.77937 1.341951 -0.397805 1.5 0 1.5 
z
" style="stroke: #6495ed"/>
    </defs>
    <g>
     <use xlink:href="#m9cd2e7fffb" x="286.585865" y="27.648" style="fill: #6495ed; stroke: #6495ed"/>
     <use xlink:href="#m9cd2e7fffb" x="286.585865" y="27.648" style="fill: #6495ed; stroke: #6495ed"/>
    </g>
   </g>
   <g id="line2d_50">
    <path d="M 128.133992 298.944 
L 128.133992 298.234729 
L 130.618241 298.234729 
L 130.618241 295.752282 
L 130.811181 295.752282 
L 130.811181 292.205929 
L 131.191226 292.205929 
L 131.191226 289.368847 
L 144.136106 289.368847 
L 144.136106 286.177129 
L 150.357325 286.177129 
L 150.357325 285.467859 
L 151.155108 285.467859 
L 151.155108 283.694682 
L 151.41369 283.694682 
L 151.41369 282.985412 
L 151.54166 282.985412 
L 151.54166 282.630776 
L 151.857828 282.630776 
L 151.857828 281.921506 
L 156.452597 281.921506 
L 156.452597 280.8576 
L 161.202028 280.8576 
L 161.202028 278.375153 
L 162.132562 278.375153 
L 162.132562 278.020518 
L 164.897003 278.020518 
L 164.897003 276.601976 
L 165.874446 276.601976 
L 165.874446 275.183435 
L 170.308749 275.183435 
L 170.308749 274.474165 
L 171.226568 274.474165 
L 171.226568 273.764894 
L 173.640268 273.764894 
L 173.640268 273.410259 
L 174.010854 273.410259 
L 174.010854 272.700988 
L 175.15357 272.700988 
L 175.15357 270.573176 
L 175.849382 270.573176 
L 175.849382 268.8 
L 180.903055 268.8 
L 180.903055 268.090729 
L 185.055154 268.090729 
L 185.055154 267.736094 
L 186.767875 267.736094 
L 186.767875 265.962918 
L 195.692512 265.962918 
L 195.692512 264.899012 
L 204.116147 264.899012 
L 204.116147 264.544376 
L 205.513017 264.544376 
L 205.614077 263.125835 
L 205.624873 263.125835 
L 205.624873 261.352659 
L 206.069275 261.352659 
L 206.069275 260.998024 
L 206.223239 260.998024 
L 206.223239 259.579482 
L 206.34828 259.579482 
L 206.34828 258.515576 
L 207.748794 258.515576 
L 207.748794 257.451671 
L 208.3185 257.451671 
L 208.3185 257.097035 
L 208.612364 257.097035 
L 208.612364 256.7424 
L 208.792585 256.7424 
L 208.792585 256.387765 
L 210.638505 256.387765 
L 210.660539 254.259953 
L 211.07974 254.259953 
L 211.07974 253.196047 
L 211.301858 253.196047 
L 211.301858 252.132141 
L 211.566032 252.132141 
L 211.566032 251.068235 
L 211.717571 251.068235 
L 211.782514 250.358965 
L 211.870479 250.358965 
L 211.968309 249.295059 
L 212.126841 249.295059 
L 212.126841 248.585788 
L 212.47498 248.585788 
L 212.494965 245.748706 
L 212.875609 245.748706 
L 212.875609 245.039435 
L 212.98783 245.039435 
L 212.98783 243.620894 
L 213.773843 243.620894 
L 213.773843 241.493082 
L 213.964165 241.493082 
L 213.964165 240.783812 
L 214.166293 240.783812 
L 214.166293 240.429176 
L 214.375313 240.429176 
L 214.375313 239.010635 
L 214.644502 239.010635 
L 214.737816 236.882824 
L 215.041199 236.882824 
L 215.041199 235.109647 
L 215.478772 235.109647 
L 215.531963 234.045741 
L 215.910563 234.045741 
L 215.910563 233.691106 
L 216.022672 233.691106 
L 216.117649 232.272565 
L 216.156739 232.272565 
L 216.156739 231.917929 
L 216.312292 231.917929 
L 216.312292 231.208659 
L 216.589488 231.208659 
L 216.589488 230.854024 
L 216.76342 230.854024 
L 216.793247 229.790118 
L 216.914056 229.790118 
L 216.990891 228.726212 
L 217.030171 228.726212 
L 217.030171 228.016941 
L 217.15727 228.016941 
L 217.225354 222.342776 
L 217.337639 222.342776 
L 217.337639 221.988141 
L 217.57166 221.988141 
L 217.681902 216.668612 
L 217.697058 216.668612 
L 217.761332 214.895435 
L 217.885476 214.895435 
L 217.943505 212.412988 
L 218.116524 212.412988 
L 218.140584 211.349082 
L 218.800259 211.349082 
L 218.899999 209.575906 
L 219.013343 209.575906 
L 219.038047 208.157365 
L 219.187338 208.157365 
L 219.210067 204.965647 
L 219.492744 204.965647 
L 219.556323 201.064659 
L 220.868133 201.064659 
L 220.868133 200.710024 
L 221.074978 200.710024 
L 221.074978 198.227576 
L 221.248242 198.227576 
L 221.334278 193.971953 
L 221.849991 193.971953 
L 221.919714 191.844141 
L 222.116869 191.844141 
L 222.116869 191.134871 
L 222.515349 191.134871 
L 222.597253 189.361694 
L 222.80624 189.361694 
L 222.80624 188.652424 
L 222.950016 188.652424 
L 222.99865 187.233882 
L 223.136715 187.233882 
L 223.169304 185.106071 
L 223.310342 185.106071 
L 223.367863 181.559718 
L 223.65286 181.559718 
L 223.72722 178.368 
L 223.790332 178.368 
L 223.840943 175.885553 
L 224.000093 175.885553 
L 224.102756 173.048471 
L 224.19682 173.048471 
L 224.271735 171.275294 
L 224.346352 171.275294 
L 224.346352 170.920659 
L 224.639279 170.920659 
L 224.639279 170.211388 
L 224.769752 170.211388 
L 224.773652 167.019671 
L 224.88124 167.019671 
L 224.899326 165.246494 
L 225.015185 165.246494 
L 225.015185 164.891859 
L 225.183831 164.891859 
L 225.282779 163.473318 
L 225.408879 163.473318 
L 225.408879 162.764047 
L 229.282036 162.764047 
L 229.282036 162.409412 
L 230.757051 162.409412 
L 230.851392 161.345506 
L 230.887118 161.345506 
L 230.904017 160.636235 
L 232.55772 160.636235 
L 232.640046 159.926965 
L 232.790898 159.926965 
L 232.877282 158.153788 
L 232.982608 158.153788 
L 232.982608 157.089882 
L 233.315742 157.089882 
L 233.315742 156.380612 
L 233.541396 156.380612 
L 233.650378 154.2528 
L 233.702207 154.2528 
L 233.713526 153.543529 
L 233.881692 153.543529 
L 233.931291 152.479624 
L 234.044398 152.479624 
L 234.102281 150.706447 
L 234.231673 150.706447 
L 234.231673 149.642541 
L 234.416324 149.642541 
L 234.416324 149.287906 
L 234.571402 149.287906 
L 234.592239 147.514729 
L 234.795543 147.514729 
L 234.866374 146.450824 
L 234.928606 146.450824 
L 234.947538 143.259106 
L 235.67142 143.259106 
L 235.67142 142.904471 
L 235.80062 142.904471 
L 235.872816 142.1952 
L 236.146085 142.1952 
L 236.146085 141.485929 
L 236.468572 141.485929 
L 236.468572 141.131294 
L 236.961221 141.131294 
L 237.047393 134.747859 
L 237.316249 134.747859 
L 237.316249 134.393224 
L 237.497562 134.393224 
L 237.581317 131.556141 
L 237.619444 131.556141 
L 237.619444 131.201506 
L 237.750325 131.201506 
L 237.819975 129.782965 
L 237.866697 129.782965 
L 237.949474 128.364424 
L 238.126091 128.364424 
L 238.126091 128.009788 
L 241.099365 128.009788 
L 241.099365 126.945882 
L 241.250484 126.945882 
L 241.250484 126.591247 
L 241.478121 126.591247 
L 241.508052 125.527341 
L 242.241766 125.527341 
L 242.344212 124.818071 
L 242.46743 124.818071 
L 242.547445 124.1088 
L 242.698442 124.1088 
L 242.719485 123.399529 
L 242.819866 123.399529 
L 242.869609 120.917082 
L 243.00326 120.917082 
L 243.095272 118.789271 
L 243.116367 118.789271 
L 243.192697 117.370729 
L 243.241952 117.370729 
L 243.241952 115.597553 
L 243.393778 115.597553 
L 243.408266 114.888282 
L 243.531444 114.888282 
L 243.531444 114.533647 
L 243.884919 114.533647 
L 243.978818 110.987294 
L 244.283555 110.987294 
L 244.330038 109.923388 
L 244.513009 109.923388 
L 244.558475 108.504847 
L 244.758129 108.504847 
L 244.828987 106.377035 
L 244.917855 106.377035 
L 244.937447 105.667765 
L 245.051038 105.667765 
L 245.158229 103.539953 
L 245.290163 103.539953 
L 245.364271 98.929694 
L 245.44502 98.929694 
L 245.549996 97.156518 
L 245.574966 97.156518 
L 245.660814 96.092612 
L 245.703592 96.092612 
L 245.703592 95.737976 
L 245.877548 95.737976 
L 245.919836 95.028706 
L 247.789644 95.028706 
L 247.859882 93.610165 
L 248.103294 93.610165 
L 248.103294 92.900894 
L 248.253143 92.900894 
L 248.334682 91.127718 
L 249.13904 91.127718 
L 249.13904 90.773082 
L 249.48085 90.773082 
L 249.48085 89.709176 
L 249.63091 89.709176 
L 249.723964 88.999906 
L 250.099764 88.999906 
L 250.099764 88.645271 
L 250.28522 88.645271 
L 250.395756 87.936 
L 250.451943 87.936 
L 250.451943 87.581365 
L 251.00993 87.581365 
L 251.00993 87.226729 
L 251.251047 87.226729 
L 251.34309 84.744282 
L 251.796975 84.744282 
L 251.796975 84.389647 
L 252.285091 84.389647 
L 252.285091 82.971106 
L 252.676401 82.971106 
L 252.689964 81.9072 
L 252.790202 81.9072 
L 252.86598 79.779388 
L 253.310357 79.779388 
L 253.399689 78.360847 
L 253.903757 78.360847 
L 253.95894 77.651576 
L 254.179701 77.651576 
L 254.179701 77.296941 
L 254.977783 77.296941 
L 254.977783 76.942306 
L 255.104196 76.942306 
L 255.157007 76.233035 
L 255.321986 76.233035 
L 255.398706 74.105224 
L 255.54083 74.105224 
L 255.54083 73.750588 
L 255.941789 73.750588 
L 255.941789 73.395953 
L 256.479515 73.395953 
L 256.551665 71.977412 
L 256.815291 71.977412 
L 256.847691 71.268141 
L 256.935151 71.268141 
L 256.935151 70.913506 
L 257.167029 70.913506 
L 257.167029 69.8496 
L 257.374957 69.8496 
L 257.374957 65.948612 
L 257.56629 65.948612 
L 257.56629 65.593976 
L 257.897905 65.593976 
L 257.993526 59.919812 
L 258.433007 59.919812 
L 258.433007 58.855906 
L 258.595201 58.855906 
L 258.683922 58.146635 
L 258.875824 58.146635 
L 258.940204 57.437365 
L 259.482007 57.437365 
L 259.482007 56.018824 
L 259.807427 56.018824 
L 259.807427 55.664188 
L 259.988656 55.664188 
L 259.988656 54.600282 
L 260.136044 54.600282 
L 260.136044 54.245647 
L 260.662873 54.245647 
L 260.662873 53.181741 
L 260.873892 53.181741 
L 260.873892 52.827106 
L 261.120264 52.827106 
L 261.120264 52.117835 
L 261.333131 52.117835 
L 261.333131 51.7632 
L 261.681363 51.7632 
L 261.699629 49.280753 
L 262.418554 49.280753 
L 262.418554 48.926118 
L 262.540986 48.926118 
L 262.540986 48.216847 
L 263.185389 48.216847 
L 263.283824 47.152941 
L 263.403438 47.152941 
L 263.403438 46.798306 
L 263.675781 46.798306 
L 263.675781 45.025129 
L 263.799468 45.025129 
L 263.880936 44.315859 
L 263.971762 44.315859 
L 264.066177 42.542682 
L 264.114412 42.542682 
L 264.114412 42.188047 
L 264.25806 42.188047 
L 264.25806 41.833412 
L 264.85067 41.833412 
L 264.85067 41.478776 
L 265.112424 41.478776 
L 265.112424 41.124141 
L 265.409448 41.124141 
L 265.424432 40.414871 
L 265.528983 40.414871 
L 265.528983 39.7056 
L 265.699347 39.7056 
L 265.736358 37.932424 
L 265.839195 37.932424 
L 265.916247 37.223153 
L 266.276527 37.223153 
L 266.276527 36.868518 
L 266.896037 36.868518 
L 266.896037 36.513882 
L 267.11635 36.513882 
L 267.11635 36.159247 
L 267.442861 36.159247 
L 267.464913 35.449976 
L 267.797895 35.449976 
L 267.797895 34.740706 
L 268.202772 34.740706 
L 268.307399 33.6768 
L 268.895849 33.6768 
L 268.895849 33.322165 
L 269.011808 33.322165 
L 269.011808 32.612894 
L 270.607625 32.612894 
L 270.607625 32.258259 
L 271.608734 32.258259 
L 271.608734 31.903624 
L 272.255252 31.903624 
L 272.286373 30.839718 
L 272.965843 30.839718 
L 273.047616 30.130447 
L 274.221938 30.130447 
L 274.221938 29.775812 
L 276.84803 29.775812 
L 276.84803 29.421176 
L 277.292054 29.421176 
L 277.292054 29.066541 
L 280.038736 29.066541 
L 280.038736 28.711906 
L 281.146607 28.711906 
L 281.146607 28.357271 
L 283.87054 28.357271 
L 283.87054 28.002635 
L 286.585865 28.002635 
L 286.585865 27.648 
L 360.8064 27.648 
L 360.8064 27.648 
" style="fill: none; stroke: #6495ed; stroke-width: 1.5; stroke-linecap: square"/>
   </g>
   <g id="line2d_51">
    <defs>
     <path id="mdfb8512a46" d="M -0 6 
L 6 -6 
L -6 -6 
z
" style="stroke: #6495ed; stroke-width: 1.5; stroke-linejoin: miter"/>
    </defs>
    <g>
     <use xlink:href="#mdfb8512a46" x="175.849382" y="268.8" style="fill-opacity: 0; stroke: #6495ed; stroke-width: 1.5; stroke-linejoin: miter"/>
     <use xlink:href="#mdfb8512a46" x="232.982608" y="157.089882" style="fill-opacity: 0; stroke: #6495ed; stroke-width: 1.5; stroke-linejoin: miter"/>
     <use xlink:href="#mdfb8512a46" x="263.675781" y="46.798306" style="fill-opacity: 0; stroke: #6495ed; stroke-width: 1.5; stroke-linejoin: miter"/>
     <use xlink:href="#mdfb8512a46" x="286.585865" y="27.648" style="fill-opacity: 0; stroke: #6495ed; stroke-width: 1.5; stroke-linejoin: miter"/>
     <use xlink:href="#mdfb8512a46" x="360.8064" y="27.648" style="fill-opacity: 0; stroke: #6495ed; stroke-width: 1.5; stroke-linejoin: miter"/>
    </g>
   </g>
   <g id="line2d_52">
    <path style="fill: none; stroke: #6495ed; stroke-width: 1.5; stroke-linecap: square"/>
    <g/>
   </g>
   <g id="line2d_53">
    <path d="M 267.11635 36.159247 
" clip-path="url(#p9cc4ab6cdf)" style="fill: none; stroke: #6495ed; stroke-width: 1.5; stroke-linecap: square"/>
    <defs>
     <path id="m9e02da577f" d="M -12 12 
L 12 -12 
M -12 -12 
L 12 12 
" style="stroke: #6495ed"/>
    </defs>
    <g clip-path="url(#p9cc4ab6cdf)">
     <use xlink:href="#m9e02da577f" x="267.11635" y="36.159247" style="fill: #6495ed; stroke: #6495ed"/>
    </g>
   </g>
   <g id="line2d_54">
    <path d="M 360.8064 27.648 
L 380.514816 293.51808 
" style="fill: none; stroke: #ff00ff; stroke-width: 1.5; stroke-linecap: square"/>
    <g>
     <use xlink:href="#m1bc92a857d" x="360.8064" y="27.648" style="fill-opacity: 0; stroke: #ff00ff; stroke-width: 1.5; stroke-linejoin: miter"/>
     <use xlink:href="#m1bc92a857d" x="380.514816" y="293.51808" style="fill-opacity: 0; stroke: #ff00ff; stroke-width: 1.5; stroke-linejoin: miter"/>
    </g>
   </g>
   <g id="line2d_55">
    <path d="M 360.8064 27.648 
L 380.514816 228.40704 
" style="fill: none; stroke: #6495ed; stroke-width: 1.5; stroke-linecap: square"/>
    <g>
     <use xlink:href="#mdfb8512a46" x="360.8064" y="27.648" style="fill-opacity: 0; stroke: #6495ed; stroke-width: 1.5; stroke-linejoin: miter"/>
     <use xlink:href="#mdfb8512a46" x="380.514816" y="228.40704" style="fill-opacity: 0; stroke: #6495ed; stroke-width: 1.5; stroke-linejoin: miter"/>
    </g>
   </g>
   <g id="line2d_56">
    <path d="M 360.8064 27.648 
L 380.514816 163.296 
" style="fill: none; stroke: #ff7500; stroke-width: 1.5; stroke-linecap: square"/>
    <g>
     <use xlink:href="#ma6cb36a8f9" x="360.8064" y="27.648" style="fill-opacity: 0; stroke: #ff7500; stroke-width: 1.5; stroke-linejoin: bevel"/>
     <use xlink:href="#ma6cb36a8f9" x="380.514816" y="163.296" style="fill-opacity: 0; stroke: #ff7500; stroke-width: 1.5; stroke-linejoin: bevel"/>
    </g>
   </g>
   <g id="line2d_57">
    <path d="M 360.8064 27.648 
L 380.514816 98.18496 
" style="fill: none; stroke: #000080; stroke-width: 1.5; stroke-linecap: square"/>
    <g>
     <use xlink:href="#mf28627f22a" x="360.8064" y="27.648" style="fill-opacity: 0; stroke: #000080; stroke-width: 1.5"/>
     <use xlink:href="#mf28627f22a" x="380.514816" y="98.18496" style="fill-opacity: 0; stroke: #000080; stroke-width: 1.5"/>
    </g>
   </g>
   <g id="line2d_58">
    <path d="M 360.8064 298.944 
L 360.8064 27.648 
" style="fill: none; stroke: #000000; stroke-width: 1.5; stroke-linecap: square"/>
   </g>
   <g id="patch_3">
    <path d="M 57.6 298.944 
L 360.8064 298.944 
" style="fill: none; stroke: #000000; stroke-width: 0.8; stroke-linejoin: miter; stroke-linecap: square"/>
   </g>
   <g id="patch_4">
    <path d="M 57.6 27.648 
L 360.8064 27.648 
" style="fill: none; stroke: #000000; stroke-width: 0.8; stroke-linejoin: miter; stroke-linecap: square"/>
   </g>
   <g id="text_13">
    <!-- GA -->
    <g transform="translate(386.578944 297.381205)scale(0.14 -0.14)">
     <defs>
      <path id="DejaVuSans-47" d="M 3809 666 
L 3809 1919 
L 2778 1919 
L 2778 2438 
L 4434 2438 
L 4434 434 
Q 4069 175 3628 42 
Q 3188 -91 2688 -91 
Q 1594 -91 976 548 
Q 359 1188 359 2328 
Q 359 3472 976 4111 
Q 1594 4750 2688 4750 
Q 3144 4750 3555 4637 
Q 3966 4525 4313 4306 
L 4313 3634 
Q 3963 3931 3569 4081 
Q 3175 4231 2741 4231 
Q 1884 4231 1454 3753 
Q 1025 3275 1025 2328 
Q 1025 1384 1454 906 
Q 1884 428 2741 428 
Q 3075 428 3337 486 
Q 3600 544 3809 666 
z
" transform="scale(0.015625)"/>
      <path id="DejaVuSans-41" d="M 2188 4044 
L 1331 1722 
L 3047 1722 
L 2188 4044 
z
M 1831 4666 
L 2547 4666 
L 4325 0 
L 3669 0 
L 3244 1197 
L 1141 1197 
L 716 0 
L 50 0 
L 1831 4666 
z
" transform="scale(0.015625)"/>
     </defs>
     <use xlink:href="#DejaVuSans-47"/>
     <use xlink:href="#DejaVuSans-41" x="77.490234"/>
    </g>
   </g>
   <g id="text_14">
    <!-- EvoSpace- -->
    <g transform="translate(386.578944 232.270165)scale(0.14 -0.14)">
     <defs>
      <path id="DejaVuSans-45" d="M 628 4666 
L 3578 4666 
L 3578 4134 
L 1259 4134 
L 1259 2753 
L 3481 2753 
L 3481 2222 
L 1259 2222 
L 1259 531 
L 3634 531 
L 3634 0 
L 628 0 
L 628 4666 
z
" transform="scale(0.015625)"/>
      <path id="DejaVuSans-53" d="M 3425 4513 
L 3425 3897 
Q 3066 4069 2747 4153 
Q 2428 4238 2131 4238 
Q 1616 4238 1336 4038 
Q 1056 3838 1056 3469 
Q 1056 3159 1242 3001 
Q 1428 2844 1947 2747 
L 2328 2669 
Q 3034 2534 3370 2195 
Q 3706 1856 3706 1288 
Q 3706 609 3251 259 
Q 2797 -91 1919 -91 
Q 1588 -91 1214 -16 
Q 841 59 441 206 
L 441 856 
Q 825 641 1194 531 
Q 1563 422 1919 422 
Q 2459 422 2753 634 
Q 3047 847 3047 1241 
Q 3047 1584 2836 1778 
Q 2625 1972 2144 2069 
L 1759 2144 
Q 1053 2284 737 2584 
Q 422 2884 422 3419 
Q 422 4038 858 4394 
Q 1294 4750 2059 4750 
Q 2388 4750 2728 4690 
Q 3069 4631 3425 4513 
z
" transform="scale(0.015625)"/>
     </defs>
     <use xlink:href="#DejaVuSans-45"/>
     <use xlink:href="#DejaVuSans-76" x="63.183594"/>
     <use xlink:href="#DejaVuSans-6f" x="122.363281"/>
     <use xlink:href="#DejaVuSans-53" x="183.544922"/>
     <use xlink:href="#DejaVuSans-70" x="247.021484"/>
     <use xlink:href="#DejaVuSans-61" x="310.498047"/>
     <use xlink:href="#DejaVuSans-63" x="371.777344"/>
     <use xlink:href="#DejaVuSans-65" x="426.757812"/>
     <use xlink:href="#DejaVuSans-2d" x="488.28125"/>
    </g>
   </g>
   <g id="text_15">
    <!-- PSO -->
    <g transform="translate(386.578944 167.159125)scale(0.14 -0.14)">
     <defs>
      <path id="DejaVuSans-50" d="M 1259 4147 
L 1259 2394 
L 2053 2394 
Q 2494 2394 2734 2622 
Q 2975 2850 2975 3272 
Q 2975 3691 2734 3919 
Q 2494 4147 2053 4147 
L 1259 4147 
z
M 628 4666 
L 2053 4666 
Q 2838 4666 3239 4311 
Q 3641 3956 3641 3272 
Q 3641 2581 3239 2228 
Q 2838 1875 2053 1875 
L 1259 1875 
L 1259 0 
L 628 0 
L 628 4666 
z
" transform="scale(0.015625)"/>
      <path id="DejaVuSans-4f" d="M 2522 4238 
Q 1834 4238 1429 3725 
Q 1025 3213 1025 2328 
Q 1025 1447 1429 934 
Q 1834 422 2522 422 
Q 3209 422 3611 934 
Q 4013 1447 4013 2328 
Q 4013 3213 3611 3725 
Q 3209 4238 2522 4238 
z
M 2522 4750 
Q 3503 4750 4090 4092 
Q 4678 3434 4678 2328 
Q 4678 1225 4090 567 
Q 3503 -91 2522 -91 
Q 1538 -91 948 565 
Q 359 1222 359 2328 
Q 359 3434 948 4092 
Q 1538 4750 2522 4750 
z
" transform="scale(0.015625)"/>
     </defs>
     <use xlink:href="#DejaVuSans-50"/>
     <use xlink:href="#DejaVuSans-53" x="60.302734"/>
     <use xlink:href="#DejaVuSans-4f" x="123.779297"/>
    </g>
   </g>
   <g id="text_16">
    <!-- LCGA -->
    <g transform="translate(386.578944 102.048085)scale(0.14 -0.14)">
     <defs>
      <path id="DejaVuSans-4c" d="M 628 4666 
L 1259 4666 
L 1259 531 
L 3531 531 
L 3531 0 
L 628 0 
L 628 4666 
z
" transform="scale(0.015625)"/>
      <path id="DejaVuSans-43" d="M 4122 4306 
L 4122 3641 
Q 3803 3938 3442 4084 
Q 3081 4231 2675 4231 
Q 1875 4231 1450 3742 
Q 1025 3253 1025 2328 
Q 1025 1406 1450 917 
Q 1875 428 2675 428 
Q 3081 428 3442 575 
Q 3803 722 4122 1019 
L 4122 359 
Q 3791 134 3420 21 
Q 3050 -91 2638 -91 
Q 1578 -91 968 557 
Q 359 1206 359 2328 
Q 359 3453 968 4101 
Q 1578 4750 2638 4750 
Q 3056 4750 3426 4639 
Q 3797 4528 4122 4306 
z
" transform="scale(0.015625)"/>
     </defs>
     <use xlink:href="#DejaVuSans-4c"/>
     <use xlink:href="#DejaVuSans-43" x="55.712891"/>
     <use xlink:href="#DejaVuSans-47" x="125.537109"/>
     <use xlink:href="#DejaVuSans-41" x="203.027344"/>
    </g>
   </g>
   <g id="text_17">
    <!-- best 2009 -->
    <g transform="translate(386.578944 36.937045)scale(0.14 -0.14)">
     <defs>
      <path id="DejaVuSans-62" d="M 3116 1747 
Q 3116 2381 2855 2742 
Q 2594 3103 2138 3103 
Q 1681 3103 1420 2742 
Q 1159 2381 1159 1747 
Q 1159 1113 1420 752 
Q 1681 391 2138 391 
Q 2594 391 2855 752 
Q 3116 1113 3116 1747 
z
M 1159 2969 
Q 1341 3281 1617 3432 
Q 1894 3584 2278 3584 
Q 2916 3584 3314 3078 
Q 3713 2572 3713 1747 
Q 3713 922 3314 415 
Q 2916 -91 2278 -91 
Q 1894 -91 1617 61 
Q 1341 213 1159 525 
L 1159 0 
L 581 0 
L 581 4863 
L 1159 4863 
L 1159 2969 
z
" transform="scale(0.015625)"/>
      <path id="DejaVuSans-39" d="M 703 97 
L 703 672 
Q 941 559 1184 500 
Q 1428 441 1663 441 
Q 2288 441 2617 861 
Q 2947 1281 2994 2138 
Q 2813 1869 2534 1725 
Q 2256 1581 1919 1581 
Q 1219 1581 811 2004 
Q 403 2428 403 3163 
Q 403 3881 828 4315 
Q 1253 4750 1959 4750 
Q 2769 4750 3195 4129 
Q 3622 3509 3622 2328 
Q 3622 1225 3098 567 
Q 2575 -91 1691 -91 
Q 1453 -91 1209 -44 
Q 966 3 703 97 
z
M 1959 2075 
Q 2384 2075 2632 2365 
Q 2881 2656 2881 3163 
Q 2881 3666 2632 3958 
Q 2384 4250 1959 4250 
Q 1534 4250 1286 3958 
Q 1038 3666 1038 3163 
Q 1038 2656 1286 2365 
Q 1534 2075 1959 2075 
z
" transform="scale(0.015625)"/>
     </defs>
     <use xlink:href="#DejaVuSans-62"/>
     <use xlink:href="#DejaVuSans-65" x="63.476562"/>
     <use xlink:href="#DejaVuSans-73" x="125"/>
     <use xlink:href="#DejaVuSans-74" x="177.099609"/>
     <use xlink:href="#DejaVuSans-20" x="216.308594"/>
     <use xlink:href="#DejaVuSans-32" x="248.095703"/>
     <use xlink:href="#DejaVuSans-30" x="311.71875"/>
     <use xlink:href="#DejaVuSans-30" x="375.341797"/>
     <use xlink:href="#DejaVuSans-39" x="438.964844"/>
    </g>
   </g>
   <g id="text_18">
    <!-- bbob f12, 2-D -->
    <g transform="translate(60.632064 38.111366)scale(0.102 -0.102)">
     <defs>
      <path id="DejaVuSans-44" d="M 1259 4147 
L 1259 519 
L 2022 519 
Q 2988 519 3436 956 
Q 3884 1394 3884 2338 
Q 3884 3275 3436 3711 
Q 2988 4147 2022 4147 
L 1259 4147 
z
M 628 4666 
L 1925 4666 
Q 3281 4666 3915 4102 
Q 4550 3538 4550 2338 
Q 4550 1131 3912 565 
Q 3275 0 1925 0 
L 628 0 
L 628 4666 
z
" transform="scale(0.015625)"/>
     </defs>
     <use xlink:href="#DejaVuSans-62"/>
     <use xlink:href="#DejaVuSans-62" x="63.476562"/>
     <use xlink:href="#DejaVuSans-6f" x="126.953125"/>
     <use xlink:href="#DejaVuSans-62" x="188.134766"/>
     <use xlink:href="#DejaVuSans-20" x="251.611328"/>
     <use xlink:href="#DejaVuSans-66" x="283.398438"/>
     <use xlink:href="#DejaVuSans-31" x="318.603516"/>
     <use xlink:href="#DejaVuSans-32" x="382.226562"/>
     <use xlink:href="#DejaVuSans-2c" x="445.849609"/>
     <use xlink:href="#DejaVuSans-20" x="477.636719"/>
     <use xlink:href="#DejaVuSans-32" x="509.423828"/>
     <use xlink:href="#DejaVuSans-2d" x="573.046875"/>
     <use xlink:href="#DejaVuSans-44" x="609.130859"/>
    </g>
    <!-- 51 targets: 100..1e-08 -->
    <g transform="translate(60.632064 49.533135)scale(0.102 -0.102)">
     <defs>
      <path id="DejaVuSans-35" d="M 691 4666 
L 3169 4666 
L 3169 4134 
L 1269 4134 
L 1269 2991 
Q 1406 3038 1543 3061 
Q 1681 3084 1819 3084 
Q 2600 3084 3056 2656 
Q 3513 2228 3513 1497 
Q 3513 744 3044 326 
Q 2575 -91 1722 -91 
Q 1428 -91 1123 -41 
Q 819 9 494 109 
L 494 744 
Q 775 591 1075 516 
Q 1375 441 1709 441 
Q 2250 441 2565 725 
Q 2881 1009 2881 1497 
Q 2881 1984 2565 2268 
Q 2250 2553 1709 2553 
Q 1456 2553 1204 2497 
Q 953 2441 691 2322 
L 691 4666 
z
" transform="scale(0.015625)"/>
      <path id="DejaVuSans-3a" d="M 750 794 
L 1409 794 
L 1409 0 
L 750 0 
L 750 794 
z
M 750 3309 
L 1409 3309 
L 1409 2516 
L 750 2516 
L 750 3309 
z
" transform="scale(0.015625)"/>
     </defs>
     <use xlink:href="#DejaVuSans-35"/>
     <use xlink:href="#DejaVuSans-31" x="63.623047"/>
     <use xlink:href="#DejaVuSans-20" x="127.246094"/>
     <use xlink:href="#DejaVuSans-74" x="159.033203"/>
     <use xlink:href="#DejaVuSans-61" x="198.242188"/>
     <use xlink:href="#DejaVuSans-72" x="259.521484"/>
     <use xlink:href="#DejaVuSans-67" x="298.884766"/>
     <use xlink:href="#DejaVuSans-65" x="362.361328"/>
     <use xlink:href="#DejaVuSans-74" x="423.884766"/>
     <use xlink:href="#DejaVuSans-73" x="463.09375"/>
     <use xlink:href="#DejaVuSans-3a" x="515.193359"/>
     <use xlink:href="#DejaVuSans-20" x="548.884766"/>
     <use xlink:href="#DejaVuSans-31" x="580.671875"/>
     <use xlink:href="#DejaVuSans-30" x="644.294922"/>
     <use xlink:href="#DejaVuSans-30" x="707.917969"/>
     <use xlink:href="#DejaVuSans-2e" x="771.541016"/>
     <use xlink:href="#DejaVuSans-2e" x="803.328125"/>
     <use xlink:href="#DejaVuSans-31" x="835.115234"/>
     <use xlink:href="#DejaVuSans-65" x="898.738281"/>
     <use xlink:href="#DejaVuSans-2d" x="960.261719"/>
     <use xlink:href="#DejaVuSans-30" x="996.345703"/>
     <use xlink:href="#DejaVuSans-38" x="1059.96875"/>
    </g>
    <!-- 15 instances -->
    <g transform="translate(60.632064 60.954904)scale(0.102 -0.102)">
     <use xlink:href="#DejaVuSans-31"/>
     <use xlink:href="#DejaVuSans-35" x="63.623047"/>
     <use xlink:href="#DejaVuSans-20" x="127.246094"/>
     <use xlink:href="#DejaVuSans-69" x="159.033203"/>
     <use xlink:href="#DejaVuSans-6e" x="186.816406"/>
     <use xlink:href="#DejaVuSans-73" x="250.195312"/>
     <use xlink:href="#DejaVuSans-74" x="302.294922"/>
     <use xlink:href="#DejaVuSans-61" x="341.503906"/>
     <use xlink:href="#DejaVuSans-6e" x="402.783203"/>
     <use xlink:href="#DejaVuSans-63" x="466.162109"/>
     <use xlink:href="#DejaVuSans-65" x="521.142578"/>
     <use xlink:href="#DejaVuSans-73" x="582.666016"/>
    </g>
   </g>
   <g id="text_19">
    <!-- v2.6 -->
    <g style="fill: #808080" transform="translate(198.292262 294.151352)scale(0.1 -0.1)">
     <use xlink:href="#DejaVuSans-76"/>
     <use xlink:href="#DejaVuSans-32" x="59.179688"/>
     <use xlink:href="#DejaVuSans-2e" x="122.802734"/>
     <use xlink:href="#DejaVuSans-36" x="154.589844"/>
    </g>
   </g>
   <g id="text_20">
    <!-- 12 Bent cigar -->
    <g transform="translate(141.986012 21.648)scale(0.2 -0.2)">
     <defs>
      <path id="DejaVuSans-42" d="M 1259 2228 
L 1259 519 
L 2272 519 
Q 2781 519 3026 730 
Q 3272 941 3272 1375 
Q 3272 1813 3026 2020 
Q 2781 2228 2272 2228 
L 1259 2228 
z
M 1259 4147 
L 1259 2741 
L 2194 2741 
Q 2656 2741 2882 2914 
Q 3109 3088 3109 3444 
Q 3109 3797 2882 3972 
Q 2656 4147 2194 4147 
L 1259 4147 
z
M 628 4666 
L 2241 4666 
Q 2963 4666 3353 4366 
Q 3744 4066 3744 3513 
Q 3744 3084 3544 2831 
Q 3344 2578 2956 2516 
Q 3422 2416 3680 2098 
Q 3938 1781 3938 1306 
Q 3938 681 3513 340 
Q 3088 0 2303 0 
L 628 0 
L 628 4666 
z
" transform="scale(0.015625)"/>
     </defs>
     <use xlink:href="#DejaVuSans-31"/>
     <use xlink:href="#DejaVuSans-32" x="63.623047"/>
     <use xlink:href="#DejaVuSans-20" x="127.246094"/>
     <use xlink:href="#DejaVuSans-42" x="159.033203"/>
     <use xlink:href="#DejaVuSans-65" x="227.636719"/>
     <use xlink:href="#DejaVuSans-6e" x="289.160156"/>
     <use xlink:href="#DejaVuSans-74" x="352.539062"/>
     <use xlink:href="#DejaVuSans-20" x="391.748047"/>
     <use xlink:href="#DejaVuSans-63" x="423.535156"/>
     <use xlink:href="#DejaVuSans-69" x="478.515625"/>
     <use xlink:href="#DejaVuSans-67" x="506.298828"/>
     <use xlink:href="#DejaVuSans-61" x="569.775391"/>
     <use xlink:href="#DejaVuSans-72" x="631.054688"/>
    </g>
   </g>
  </g>
 </g>
 <defs>
  <clipPath id="p9cc4ab6cdf">
   <rect x="57.6" y="27.648" width="303.2064" height="271.296"/>
  </clipPath>
 </defs>
</svg>
