<?xml version="1.0" encoding="utf-8" standalone="no"?>
<!DOCTYPE svg PUBLIC "-//W3C//DTD SVG 1.1//EN"
  "http://www.w3.org/Graphics/SVG/1.1/DTD/svg11.dtd">
<svg xmlns:xlink="http://www.w3.org/1999/xlink" width="460.8pt" height="345.6pt" viewBox="0 0 460.8 345.6" xmlns="http://www.w3.org/2000/svg" version="1.1">
 <metadata>
  <rdf:RDF xmlns:dc="http://purl.org/dc/elements/1.1/" xmlns:cc="http://creativecommons.org/ns#" xmlns:rdf="http://www.w3.org/1999/02/22-rdf-syntax-ns#">
   <cc:Work>
    <dc:type rdf:resource="http://purl.org/dc/dcmitype/StillImage"/>
    <dc:date>2024-05-29T08:11:54.847121</dc:date>
    <dc:format>image/svg+xml</dc:format>
    <dc:creator>
     <cc:Agent>
      <dc:title>Matplotlib v3.5.1, https://matplotlib.org/</dc:title>
     </cc:Agent>
    </dc:creator>
   </cc:Work>
  </rdf:RDF>
 </metadata>
 <defs>
  <style type="text/css">*{stroke-linejoin: round; stroke-linecap: butt}</style>
 </defs>
 <g id="figure_1">
  <g id="patch_1">
   <path d="M 0 345.6 
L 460.8 345.6 
L 460.8 0 
L 0 0 
z
" style="fill: #ffffff"/>
  </g>
  <g id="axes_1">
   <g id="patch_2">
    <path d="M 57.6 298.944 
L 360.8064 298.944 
L 360.8064 27.648 
L 57.6 27.648 
z
" style="fill: #ffffff"/>
   </g>
   <g id="line2d_1">
    <path d="M 80.059535 298.944 
L 80.059535 293.624471 
L 90.007914 293.624471 
L 90.007914 288.304941 
L 94.735529 288.304941 
L 94.735529 282.985412 
L 95.503454 282.985412 
L 95.503454 277.665882 
L 97.18203 277.665882 
L 97.18203 272.346353 
L 111.117162 272.346353 
L 111.117162 267.026824 
L 125.628382 267.026824 
L 125.628382 261.707294 
L 136.92008 261.707294 
L 136.92008 256.387765 
L 139.652679 256.387765 
L 139.652679 251.068235 
L 143.18612 251.068235 
L 143.18612 245.748706 
L 153.200785 245.748706 
L 153.200785 240.429176 
L 163.314829 240.429176 
L 163.314829 235.109647 
L 165.927947 235.109647 
L 165.927947 229.790118 
L 166.379563 229.790118 
L 166.379563 224.470588 
L 170.805345 224.470588 
L 170.805345 219.151059 
L 171.20416 219.151059 
L 171.20416 213.831529 
L 172.076012 213.831529 
L 172.076012 208.512 
L 172.85592 208.512 
L 172.85592 203.192471 
L 173.217966 203.192471 
L 173.217966 197.872941 
L 173.730661 197.872941 
L 173.730661 192.553412 
L 174.875255 192.553412 
L 174.875255 187.233882 
L 174.967261 187.233882 
L 174.967261 181.914353 
L 175.029569 181.914353 
L 175.029569 70.204235 
L 175.701674 70.204235 
L 175.701674 64.884706 
L 175.75456 64.884706 
L 175.75456 59.565176 
L 175.915823 59.565176 
L 175.915823 54.245647 
L 176.94485 54.245647 
L 176.94485 48.926118 
L 177.197622 48.926118 
L 177.197622 43.606588 
L 177.337316 43.606588 
L 177.337316 38.287059 
L 177.427726 38.287059 
L 177.427726 32.967529 
L 177.597677 32.967529 
L 177.597677 27.648 
L 360.8064 27.648 
" style="fill: none; stroke: #f5deb3; stroke-width: 4; stroke-linecap: square"/>
   </g>
   <g id="line2d_2">
    <defs>
     <path id="m7dfadba2bc" d="M 0 7.778175 
L 7.778175 0 
L 0 -7.778175 
L -7.778175 0 
z
" style="stroke: #f5deb3; stroke-width: 1.5; stroke-linejoin: miter"/>
    </defs>
    <g>
     <use xlink:href="#m7dfadba2bc" x="172.85592" y="208.512" style="fill: #f5deb3; stroke: #f5deb3; stroke-width: 1.5; stroke-linejoin: miter"/>
     <use xlink:href="#m7dfadba2bc" x="177.197622" y="43.606588" style="fill: #f5deb3; stroke: #f5deb3; stroke-width: 1.5; stroke-linejoin: miter"/>
     <use xlink:href="#m7dfadba2bc" x="177.597677" y="27.648" style="fill: #f5deb3; stroke: #f5deb3; stroke-width: 1.5; stroke-linejoin: miter"/>
     <use xlink:href="#m7dfadba2bc" x="177.597677" y="27.648" style="fill: #f5deb3; stroke: #f5deb3; stroke-width: 1.5; stroke-linejoin: miter"/>
     <use xlink:href="#m7dfadba2bc" x="360.8064" y="27.648" style="fill: #f5deb3; stroke: #f5deb3; stroke-width: 1.5; stroke-linejoin: miter"/>
    </g>
   </g>
   <g id="line2d_3">
    <path style="fill: none; stroke: #f5deb3; stroke-width: 4; stroke-linecap: square"/>
    <g/>
   </g>
   <g id="line2d_4">
    <path d="M 360.8064 27.648 
L 380.514816 33.07392 
" style="fill: none; stroke: #f5deb3; stroke-width: 4; stroke-linecap: square"/>
    <g>
     <use xlink:href="#m7dfadba2bc" x="360.8064" y="27.648" style="fill: #f5deb3; stroke: #f5deb3; stroke-width: 1.5; stroke-linejoin: miter"/>
     <use xlink:href="#m7dfadba2bc" x="380.514816" y="33.07392" style="fill: #f5deb3; stroke: #f5deb3; stroke-width: 1.5; stroke-linejoin: miter"/>
    </g>
   </g>
   <g id="matplotlib.axis_1">
    <g id="xtick_1">
     <g id="line2d_5">
      <path d="M 57.6 298.944 
L 57.6 27.648 
" clip-path="url(#p9779b1b74a)" style="fill: none; stroke: #b0b0b0; stroke-width: 0.8; stroke-linecap: square"/>
     </g>
     <g id="line2d_6">
      <defs>
       <path id="m2d6a323aaa" d="M 0 0 
L 0 3.5 
" style="stroke: #000000; stroke-width: 0.8"/>
      </defs>
      <g>
       <use xlink:href="#m2d6a323aaa" x="57.6" y="298.944" style="stroke: #000000; stroke-width: 0.8"/>
      </g>
     </g>
     <g id="text_1">
      <!-- 0 -->
      <g transform="translate(52.191875 318.861344)scale(0.17 -0.17)">
       <defs>
        <path id="DejaVuSans-30" d="M 2034 4250 
Q 1547 4250 1301 3770 
Q 1056 3291 1056 2328 
Q 1056 1369 1301 889 
Q 1547 409 2034 409 
Q 2525 409 2770 889 
Q 3016 1369 3016 2328 
Q 3016 3291 2770 3770 
Q 2525 4250 2034 4250 
z
M 2034 4750 
Q 2819 4750 3233 4129 
Q 3647 3509 3647 2328 
Q 3647 1150 3233 529 
Q 2819 -91 2034 -91 
Q 1250 -91 836 529 
Q 422 1150 422 2328 
Q 422 3509 836 4129 
Q 1250 4750 2034 4750 
z
" transform="scale(0.015625)"/>
       </defs>
       <use xlink:href="#DejaVuSans-30"/>
      </g>
     </g>
    </g>
    <g id="xtick_2">
     <g id="line2d_7">
      <path d="M 144.2304 298.944 
L 144.2304 27.648 
" clip-path="url(#p9779b1b74a)" style="fill: none; stroke: #b0b0b0; stroke-width: 0.8; stroke-linecap: square"/>
     </g>
     <g id="line2d_8">
      <g>
       <use xlink:href="#m2d6a323aaa" x="144.2304" y="298.944" style="stroke: #000000; stroke-width: 0.8"/>
      </g>
     </g>
     <g id="text_2">
      <!-- 2 -->
      <g transform="translate(138.822275 318.861344)scale(0.17 -0.17)">
       <defs>
        <path id="DejaVuSans-32" d="M 1228 531 
L 3431 531 
L 3431 0 
L 469 0 
L 469 531 
Q 828 903 1448 1529 
Q 2069 2156 2228 2338 
Q 2531 2678 2651 2914 
Q 2772 3150 2772 3378 
Q 2772 3750 2511 3984 
Q 2250 4219 1831 4219 
Q 1534 4219 1204 4116 
Q 875 4013 500 3803 
L 500 4441 
Q 881 4594 1212 4672 
Q 1544 4750 1819 4750 
Q 2544 4750 2975 4387 
Q 3406 4025 3406 3419 
Q 3406 3131 3298 2873 
Q 3191 2616 2906 2266 
Q 2828 2175 2409 1742 
Q 1991 1309 1228 531 
z
" transform="scale(0.015625)"/>
       </defs>
       <use xlink:href="#DejaVuSans-32"/>
      </g>
     </g>
    </g>
    <g id="xtick_3">
     <g id="line2d_9">
      <path d="M 230.8608 298.944 
L 230.8608 27.648 
" clip-path="url(#p9779b1b74a)" style="fill: none; stroke: #b0b0b0; stroke-width: 0.8; stroke-linecap: square"/>
     </g>
     <g id="line2d_10">
      <g>
       <use xlink:href="#m2d6a323aaa" x="230.8608" y="298.944" style="stroke: #000000; stroke-width: 0.8"/>
      </g>
     </g>
     <g id="text_3">
      <!-- 4 -->
      <g transform="translate(225.452675 318.861344)scale(0.17 -0.17)">
       <defs>
        <path id="DejaVuSans-34" d="M 2419 4116 
L 825 1625 
L 2419 1625 
L 2419 4116 
z
M 2253 4666 
L 3047 4666 
L 3047 1625 
L 3713 1625 
L 3713 1100 
L 3047 1100 
L 3047 0 
L 2419 0 
L 2419 1100 
L 313 1100 
L 313 1709 
L 2253 4666 
z
" transform="scale(0.015625)"/>
       </defs>
       <use xlink:href="#DejaVuSans-34"/>
      </g>
     </g>
    </g>
    <g id="xtick_4">
     <g id="line2d_11">
      <path d="M 317.4912 298.944 
L 317.4912 27.648 
" clip-path="url(#p9779b1b74a)" style="fill: none; stroke: #b0b0b0; stroke-width: 0.8; stroke-linecap: square"/>
     </g>
     <g id="line2d_12">
      <g>
       <use xlink:href="#m2d6a323aaa" x="317.4912" y="298.944" style="stroke: #000000; stroke-width: 0.8"/>
      </g>
     </g>
     <g id="text_4">
      <!-- 6 -->
      <g transform="translate(312.083075 318.861344)scale(0.17 -0.17)">
       <defs>
        <path id="DejaVuSans-36" d="M 2113 2584 
Q 1688 2584 1439 2293 
Q 1191 2003 1191 1497 
Q 1191 994 1439 701 
Q 1688 409 2113 409 
Q 2538 409 2786 701 
Q 3034 994 3034 1497 
Q 3034 2003 2786 2293 
Q 2538 2584 2113 2584 
z
M 3366 4563 
L 3366 3988 
Q 3128 4100 2886 4159 
Q 2644 4219 2406 4219 
Q 1781 4219 1451 3797 
Q 1122 3375 1075 2522 
Q 1259 2794 1537 2939 
Q 1816 3084 2150 3084 
Q 2853 3084 3261 2657 
Q 3669 2231 3669 1497 
Q 3669 778 3244 343 
Q 2819 -91 2113 -91 
Q 1303 -91 875 529 
Q 447 1150 447 2328 
Q 447 3434 972 4092 
Q 1497 4750 2381 4750 
Q 2619 4750 2861 4703 
Q 3103 4656 3366 4563 
z
" transform="scale(0.015625)"/>
       </defs>
       <use xlink:href="#DejaVuSans-36"/>
      </g>
     </g>
    </g>
    <g id="xtick_5">
     <g id="line2d_13">
      <path d="M 100.9152 298.944 
L 100.9152 27.648 
" clip-path="url(#p9779b1b74a)" style="fill: none; stroke: #b0b0b0; stroke-width: 0.8; stroke-linecap: square"/>
     </g>
     <g id="line2d_14">
      <defs>
       <path id="m13aaafbff4" d="M 0 0 
L 0 2 
" style="stroke: #000000; stroke-width: 0.6"/>
      </defs>
      <g>
       <use xlink:href="#m13aaafbff4" x="100.9152" y="298.944" style="stroke: #000000; stroke-width: 0.6"/>
      </g>
     </g>
    </g>
    <g id="xtick_6">
     <g id="line2d_15">
      <path d="M 187.5456 298.944 
L 187.5456 27.648 
" clip-path="url(#p9779b1b74a)" style="fill: none; stroke: #b0b0b0; stroke-width: 0.8; stroke-linecap: square"/>
     </g>
     <g id="line2d_16">
      <g>
       <use xlink:href="#m13aaafbff4" x="187.5456" y="298.944" style="stroke: #000000; stroke-width: 0.6"/>
      </g>
     </g>
    </g>
    <g id="xtick_7">
     <g id="line2d_17">
      <path d="M 274.176 298.944 
L 274.176 27.648 
" clip-path="url(#p9779b1b74a)" style="fill: none; stroke: #b0b0b0; stroke-width: 0.8; stroke-linecap: square"/>
     </g>
     <g id="line2d_18">
      <g>
       <use xlink:href="#m13aaafbff4" x="274.176" y="298.944" style="stroke: #000000; stroke-width: 0.6"/>
      </g>
     </g>
    </g>
    <g id="xtick_8">
     <g id="line2d_19">
      <path d="M 360.8064 298.944 
L 360.8064 27.648 
" clip-path="url(#p9779b1b74a)" style="fill: none; stroke: #b0b0b0; stroke-width: 0.8; stroke-linecap: square"/>
     </g>
     <g id="line2d_20">
      <g>
       <use xlink:href="#m13aaafbff4" x="360.8064" y="298.944" style="stroke: #000000; stroke-width: 0.6"/>
      </g>
     </g>
    </g>
    <g id="text_5">
     <!-- log10(# f-evals / dimension) -->
     <g transform="translate(88.823278 339.314156)scale(0.17 -0.17)">
      <defs>
       <path id="DejaVuSans-6c" d="M 603 4863 
L 1178 4863 
L 1178 0 
L 603 0 
L 603 4863 
z
" transform="scale(0.015625)"/>
       <path id="DejaVuSans-6f" d="M 1959 3097 
Q 1497 3097 1228 2736 
Q 959 2375 959 1747 
Q 959 1119 1226 758 
Q 1494 397 1959 397 
Q 2419 397 2687 759 
Q 2956 1122 2956 1747 
Q 2956 2369 2687 2733 
Q 2419 3097 1959 3097 
z
M 1959 3584 
Q 2709 3584 3137 3096 
Q 3566 2609 3566 1747 
Q 3566 888 3137 398 
Q 2709 -91 1959 -91 
Q 1206 -91 779 398 
Q 353 888 353 1747 
Q 353 2609 779 3096 
Q 1206 3584 1959 3584 
z
" transform="scale(0.015625)"/>
       <path id="DejaVuSans-67" d="M 2906 1791 
Q 2906 2416 2648 2759 
Q 2391 3103 1925 3103 
Q 1463 3103 1205 2759 
Q 947 2416 947 1791 
Q 947 1169 1205 825 
Q 1463 481 1925 481 
Q 2391 481 2648 825 
Q 2906 1169 2906 1791 
z
M 3481 434 
Q 3481 -459 3084 -895 
Q 2688 -1331 1869 -1331 
Q 1566 -1331 1297 -1286 
Q 1028 -1241 775 -1147 
L 775 -588 
Q 1028 -725 1275 -790 
Q 1522 -856 1778 -856 
Q 2344 -856 2625 -561 
Q 2906 -266 2906 331 
L 2906 616 
Q 2728 306 2450 153 
Q 2172 0 1784 0 
Q 1141 0 747 490 
Q 353 981 353 1791 
Q 353 2603 747 3093 
Q 1141 3584 1784 3584 
Q 2172 3584 2450 3431 
Q 2728 3278 2906 2969 
L 2906 3500 
L 3481 3500 
L 3481 434 
z
" transform="scale(0.015625)"/>
       <path id="DejaVuSans-31" d="M 794 531 
L 1825 531 
L 1825 4091 
L 703 3866 
L 703 4441 
L 1819 4666 
L 2450 4666 
L 2450 531 
L 3481 531 
L 3481 0 
L 794 0 
L 794 531 
z
" transform="scale(0.015625)"/>
       <path id="DejaVuSans-28" d="M 1984 4856 
Q 1566 4138 1362 3434 
Q 1159 2731 1159 2009 
Q 1159 1288 1364 580 
Q 1569 -128 1984 -844 
L 1484 -844 
Q 1016 -109 783 600 
Q 550 1309 550 2009 
Q 550 2706 781 3412 
Q 1013 4119 1484 4856 
L 1984 4856 
z
" transform="scale(0.015625)"/>
       <path id="DejaVuSans-23" d="M 3272 2816 
L 2363 2816 
L 2100 1772 
L 3016 1772 
L 3272 2816 
z
M 2803 4594 
L 2478 3297 
L 3391 3297 
L 3719 4594 
L 4219 4594 
L 3897 3297 
L 4872 3297 
L 4872 2816 
L 3775 2816 
L 3519 1772 
L 4513 1772 
L 4513 1294 
L 3397 1294 
L 3072 0 
L 2572 0 
L 2894 1294 
L 1978 1294 
L 1656 0 
L 1153 0 
L 1478 1294 
L 494 1294 
L 494 1772 
L 1594 1772 
L 1856 2816 
L 850 2816 
L 850 3297 
L 1978 3297 
L 2297 4594 
L 2803 4594 
z
" transform="scale(0.015625)"/>
       <path id="DejaVuSans-20" transform="scale(0.015625)"/>
       <path id="DejaVuSans-66" d="M 2375 4863 
L 2375 4384 
L 1825 4384 
Q 1516 4384 1395 4259 
Q 1275 4134 1275 3809 
L 1275 3500 
L 2222 3500 
L 2222 3053 
L 1275 3053 
L 1275 0 
L 697 0 
L 697 3053 
L 147 3053 
L 147 3500 
L 697 3500 
L 697 3744 
Q 697 4328 969 4595 
Q 1241 4863 1831 4863 
L 2375 4863 
z
" transform="scale(0.015625)"/>
       <path id="DejaVuSans-2d" d="M 313 2009 
L 1997 2009 
L 1997 1497 
L 313 1497 
L 313 2009 
z
" transform="scale(0.015625)"/>
       <path id="DejaVuSans-65" d="M 3597 1894 
L 3597 1613 
L 953 1613 
Q 991 1019 1311 708 
Q 1631 397 2203 397 
Q 2534 397 2845 478 
Q 3156 559 3463 722 
L 3463 178 
Q 3153 47 2828 -22 
Q 2503 -91 2169 -91 
Q 1331 -91 842 396 
Q 353 884 353 1716 
Q 353 2575 817 3079 
Q 1281 3584 2069 3584 
Q 2775 3584 3186 3129 
Q 3597 2675 3597 1894 
z
M 3022 2063 
Q 3016 2534 2758 2815 
Q 2500 3097 2075 3097 
Q 1594 3097 1305 2825 
Q 1016 2553 972 2059 
L 3022 2063 
z
" transform="scale(0.015625)"/>
       <path id="DejaVuSans-76" d="M 191 3500 
L 800 3500 
L 1894 563 
L 2988 3500 
L 3597 3500 
L 2284 0 
L 1503 0 
L 191 3500 
z
" transform="scale(0.015625)"/>
       <path id="DejaVuSans-61" d="M 2194 1759 
Q 1497 1759 1228 1600 
Q 959 1441 959 1056 
Q 959 750 1161 570 
Q 1363 391 1709 391 
Q 2188 391 2477 730 
Q 2766 1069 2766 1631 
L 2766 1759 
L 2194 1759 
z
M 3341 1997 
L 3341 0 
L 2766 0 
L 2766 531 
Q 2569 213 2275 61 
Q 1981 -91 1556 -91 
Q 1019 -91 701 211 
Q 384 513 384 1019 
Q 384 1609 779 1909 
Q 1175 2209 1959 2209 
L 2766 2209 
L 2766 2266 
Q 2766 2663 2505 2880 
Q 2244 3097 1772 3097 
Q 1472 3097 1187 3025 
Q 903 2953 641 2809 
L 641 3341 
Q 956 3463 1253 3523 
Q 1550 3584 1831 3584 
Q 2591 3584 2966 3190 
Q 3341 2797 3341 1997 
z
" transform="scale(0.015625)"/>
       <path id="DejaVuSans-73" d="M 2834 3397 
L 2834 2853 
Q 2591 2978 2328 3040 
Q 2066 3103 1784 3103 
Q 1356 3103 1142 2972 
Q 928 2841 928 2578 
Q 928 2378 1081 2264 
Q 1234 2150 1697 2047 
L 1894 2003 
Q 2506 1872 2764 1633 
Q 3022 1394 3022 966 
Q 3022 478 2636 193 
Q 2250 -91 1575 -91 
Q 1294 -91 989 -36 
Q 684 19 347 128 
L 347 722 
Q 666 556 975 473 
Q 1284 391 1588 391 
Q 1994 391 2212 530 
Q 2431 669 2431 922 
Q 2431 1156 2273 1281 
Q 2116 1406 1581 1522 
L 1381 1569 
Q 847 1681 609 1914 
Q 372 2147 372 2553 
Q 372 3047 722 3315 
Q 1072 3584 1716 3584 
Q 2034 3584 2315 3537 
Q 2597 3491 2834 3397 
z
" transform="scale(0.015625)"/>
       <path id="DejaVuSans-2f" d="M 1625 4666 
L 2156 4666 
L 531 -594 
L 0 -594 
L 1625 4666 
z
" transform="scale(0.015625)"/>
       <path id="DejaVuSans-64" d="M 2906 2969 
L 2906 4863 
L 3481 4863 
L 3481 0 
L 2906 0 
L 2906 525 
Q 2725 213 2448 61 
Q 2172 -91 1784 -91 
Q 1150 -91 751 415 
Q 353 922 353 1747 
Q 353 2572 751 3078 
Q 1150 3584 1784 3584 
Q 2172 3584 2448 3432 
Q 2725 3281 2906 2969 
z
M 947 1747 
Q 947 1113 1208 752 
Q 1469 391 1925 391 
Q 2381 391 2643 752 
Q 2906 1113 2906 1747 
Q 2906 2381 2643 2742 
Q 2381 3103 1925 3103 
Q 1469 3103 1208 2742 
Q 947 2381 947 1747 
z
" transform="scale(0.015625)"/>
       <path id="DejaVuSans-69" d="M 603 3500 
L 1178 3500 
L 1178 0 
L 603 0 
L 603 3500 
z
M 603 4863 
L 1178 4863 
L 1178 4134 
L 603 4134 
L 603 4863 
z
" transform="scale(0.015625)"/>
       <path id="DejaVuSans-6d" d="M 3328 2828 
Q 3544 3216 3844 3400 
Q 4144 3584 4550 3584 
Q 5097 3584 5394 3201 
Q 5691 2819 5691 2113 
L 5691 0 
L 5113 0 
L 5113 2094 
Q 5113 2597 4934 2840 
Q 4756 3084 4391 3084 
Q 3944 3084 3684 2787 
Q 3425 2491 3425 1978 
L 3425 0 
L 2847 0 
L 2847 2094 
Q 2847 2600 2669 2842 
Q 2491 3084 2119 3084 
Q 1678 3084 1418 2786 
Q 1159 2488 1159 1978 
L 1159 0 
L 581 0 
L 581 3500 
L 1159 3500 
L 1159 2956 
Q 1356 3278 1631 3431 
Q 1906 3584 2284 3584 
Q 2666 3584 2933 3390 
Q 3200 3197 3328 2828 
z
" transform="scale(0.015625)"/>
       <path id="DejaVuSans-6e" d="M 3513 2113 
L 3513 0 
L 2938 0 
L 2938 2094 
Q 2938 2591 2744 2837 
Q 2550 3084 2163 3084 
Q 1697 3084 1428 2787 
Q 1159 2491 1159 1978 
L 1159 0 
L 581 0 
L 581 3500 
L 1159 3500 
L 1159 2956 
Q 1366 3272 1645 3428 
Q 1925 3584 2291 3584 
Q 2894 3584 3203 3211 
Q 3513 2838 3513 2113 
z
" transform="scale(0.015625)"/>
       <path id="DejaVuSans-29" d="M 513 4856 
L 1013 4856 
Q 1481 4119 1714 3412 
Q 1947 2706 1947 2009 
Q 1947 1309 1714 600 
Q 1481 -109 1013 -844 
L 513 -844 
Q 928 -128 1133 580 
Q 1338 1288 1338 2009 
Q 1338 2731 1133 3434 
Q 928 4138 513 4856 
z
" transform="scale(0.015625)"/>
      </defs>
      <use xlink:href="#DejaVuSans-6c"/>
      <use xlink:href="#DejaVuSans-6f" x="27.783203"/>
      <use xlink:href="#DejaVuSans-67" x="88.964844"/>
      <use xlink:href="#DejaVuSans-31" x="152.441406"/>
      <use xlink:href="#DejaVuSans-30" x="216.064453"/>
      <use xlink:href="#DejaVuSans-28" x="279.6875"/>
      <use xlink:href="#DejaVuSans-23" x="318.701172"/>
      <use xlink:href="#DejaVuSans-20" x="402.490234"/>
      <use xlink:href="#DejaVuSans-66" x="434.277344"/>
      <use xlink:href="#DejaVuSans-2d" x="463.982422"/>
      <use xlink:href="#DejaVuSans-65" x="500.066406"/>
      <use xlink:href="#DejaVuSans-76" x="561.589844"/>
      <use xlink:href="#DejaVuSans-61" x="620.769531"/>
      <use xlink:href="#DejaVuSans-6c" x="682.048828"/>
      <use xlink:href="#DejaVuSans-73" x="709.832031"/>
      <use xlink:href="#DejaVuSans-20" x="761.931641"/>
      <use xlink:href="#DejaVuSans-2f" x="793.71875"/>
      <use xlink:href="#DejaVuSans-20" x="827.410156"/>
      <use xlink:href="#DejaVuSans-64" x="859.197266"/>
      <use xlink:href="#DejaVuSans-69" x="922.673828"/>
      <use xlink:href="#DejaVuSans-6d" x="950.457031"/>
      <use xlink:href="#DejaVuSans-65" x="1047.869141"/>
      <use xlink:href="#DejaVuSans-6e" x="1109.392578"/>
      <use xlink:href="#DejaVuSans-73" x="1172.771484"/>
      <use xlink:href="#DejaVuSans-69" x="1224.871094"/>
      <use xlink:href="#DejaVuSans-6f" x="1252.654297"/>
      <use xlink:href="#DejaVuSans-6e" x="1313.835938"/>
      <use xlink:href="#DejaVuSans-29" x="1377.214844"/>
     </g>
    </g>
   </g>
   <g id="matplotlib.axis_2">
    <g id="ytick_1">
     <g id="line2d_21">
      <path d="M 57.6 298.944 
L 360.8064 298.944 
" clip-path="url(#p9779b1b74a)" style="fill: none; stroke: #b0b0b0; stroke-width: 0.8; stroke-linecap: square"/>
     </g>
     <g id="line2d_22">
      <defs>
       <path id="m49dd536ac3" d="M 0 0 
L -3.5 0 
" style="stroke: #000000; stroke-width: 0.8"/>
      </defs>
      <g>
       <use xlink:href="#m49dd536ac3" x="57.6" y="298.944" style="stroke: #000000; stroke-width: 0.8"/>
      </g>
     </g>
     <g id="text_6">
      <!-- 0.0 -->
      <g transform="translate(25.155 305.02275)scale(0.16 -0.16)">
       <defs>
        <path id="DejaVuSans-2e" d="M 684 794 
L 1344 794 
L 1344 0 
L 684 0 
L 684 794 
z
" transform="scale(0.015625)"/>
       </defs>
       <use xlink:href="#DejaVuSans-30"/>
       <use xlink:href="#DejaVuSans-2e" x="63.623047"/>
       <use xlink:href="#DejaVuSans-30" x="95.410156"/>
      </g>
     </g>
    </g>
    <g id="ytick_2">
     <g id="line2d_23">
      <path d="M 57.6 244.6848 
L 360.8064 244.6848 
" clip-path="url(#p9779b1b74a)" style="fill: none; stroke: #b0b0b0; stroke-width: 0.8; stroke-linecap: square"/>
     </g>
     <g id="line2d_24">
      <g>
       <use xlink:href="#m49dd536ac3" x="57.6" y="244.6848" style="stroke: #000000; stroke-width: 0.8"/>
      </g>
     </g>
     <g id="text_7">
      <!-- 0.2 -->
      <g transform="translate(25.155 250.76355)scale(0.16 -0.16)">
       <use xlink:href="#DejaVuSans-30"/>
       <use xlink:href="#DejaVuSans-2e" x="63.623047"/>
       <use xlink:href="#DejaVuSans-32" x="95.410156"/>
      </g>
     </g>
    </g>
    <g id="ytick_3">
     <g id="line2d_25">
      <path d="M 57.6 190.4256 
L 360.8064 190.4256 
" clip-path="url(#p9779b1b74a)" style="fill: none; stroke: #b0b0b0; stroke-width: 0.8; stroke-linecap: square"/>
     </g>
     <g id="line2d_26">
      <g>
       <use xlink:href="#m49dd536ac3" x="57.6" y="190.4256" style="stroke: #000000; stroke-width: 0.8"/>
      </g>
     </g>
     <g id="text_8">
      <!-- 0.4 -->
      <g transform="translate(25.155 196.50435)scale(0.16 -0.16)">
       <use xlink:href="#DejaVuSans-30"/>
       <use xlink:href="#DejaVuSans-2e" x="63.623047"/>
       <use xlink:href="#DejaVuSans-34" x="95.410156"/>
      </g>
     </g>
    </g>
    <g id="ytick_4">
     <g id="line2d_27">
      <path d="M 57.6 136.1664 
L 360.8064 136.1664 
" clip-path="url(#p9779b1b74a)" style="fill: none; stroke: #b0b0b0; stroke-width: 0.8; stroke-linecap: square"/>
     </g>
     <g id="line2d_28">
      <g>
       <use xlink:href="#m49dd536ac3" x="57.6" y="136.1664" style="stroke: #000000; stroke-width: 0.8"/>
      </g>
     </g>
     <g id="text_9">
      <!-- 0.6 -->
      <g transform="translate(25.155 142.24515)scale(0.16 -0.16)">
       <use xlink:href="#DejaVuSans-30"/>
       <use xlink:href="#DejaVuSans-2e" x="63.623047"/>
       <use xlink:href="#DejaVuSans-36" x="95.410156"/>
      </g>
     </g>
    </g>
    <g id="ytick_5">
     <g id="line2d_29">
      <path d="M 57.6 81.9072 
L 360.8064 81.9072 
" clip-path="url(#p9779b1b74a)" style="fill: none; stroke: #b0b0b0; stroke-width: 0.8; stroke-linecap: square"/>
     </g>
     <g id="line2d_30">
      <g>
       <use xlink:href="#m49dd536ac3" x="57.6" y="81.9072" style="stroke: #000000; stroke-width: 0.8"/>
      </g>
     </g>
     <g id="text_10">
      <!-- 0.8 -->
      <g transform="translate(25.155 87.98595)scale(0.16 -0.16)">
       <defs>
        <path id="DejaVuSans-38" d="M 2034 2216 
Q 1584 2216 1326 1975 
Q 1069 1734 1069 1313 
Q 1069 891 1326 650 
Q 1584 409 2034 409 
Q 2484 409 2743 651 
Q 3003 894 3003 1313 
Q 3003 1734 2745 1975 
Q 2488 2216 2034 2216 
z
M 1403 2484 
Q 997 2584 770 2862 
Q 544 3141 544 3541 
Q 544 4100 942 4425 
Q 1341 4750 2034 4750 
Q 2731 4750 3128 4425 
Q 3525 4100 3525 3541 
Q 3525 3141 3298 2862 
Q 3072 2584 2669 2484 
Q 3125 2378 3379 2068 
Q 3634 1759 3634 1313 
Q 3634 634 3220 271 
Q 2806 -91 2034 -91 
Q 1263 -91 848 271 
Q 434 634 434 1313 
Q 434 1759 690 2068 
Q 947 2378 1403 2484 
z
M 1172 3481 
Q 1172 3119 1398 2916 
Q 1625 2713 2034 2713 
Q 2441 2713 2670 2916 
Q 2900 3119 2900 3481 
Q 2900 3844 2670 4047 
Q 2441 4250 2034 4250 
Q 1625 4250 1398 4047 
Q 1172 3844 1172 3481 
z
" transform="scale(0.015625)"/>
       </defs>
       <use xlink:href="#DejaVuSans-30"/>
       <use xlink:href="#DejaVuSans-2e" x="63.623047"/>
       <use xlink:href="#DejaVuSans-38" x="95.410156"/>
      </g>
     </g>
    </g>
    <g id="ytick_6">
     <g id="line2d_31">
      <path d="M 57.6 27.648 
L 360.8064 27.648 
" clip-path="url(#p9779b1b74a)" style="fill: none; stroke: #b0b0b0; stroke-width: 0.8; stroke-linecap: square"/>
     </g>
     <g id="line2d_32">
      <g>
       <use xlink:href="#m49dd536ac3" x="57.6" y="27.648" style="stroke: #000000; stroke-width: 0.8"/>
      </g>
     </g>
     <g id="text_11">
      <!-- 1.0 -->
      <g transform="translate(25.155 33.72675)scale(0.16 -0.16)">
       <use xlink:href="#DejaVuSans-31"/>
       <use xlink:href="#DejaVuSans-2e" x="63.623047"/>
       <use xlink:href="#DejaVuSans-30" x="95.410156"/>
      </g>
     </g>
    </g>
    <g id="text_12">
     <!-- Fraction of function,target pairs -->
     <g transform="translate(17.619531 297.681)rotate(-90)scale(0.17 -0.17)">
      <defs>
       <path id="DejaVuSans-46" d="M 628 4666 
L 3309 4666 
L 3309 4134 
L 1259 4134 
L 1259 2759 
L 3109 2759 
L 3109 2228 
L 1259 2228 
L 1259 0 
L 628 0 
L 628 4666 
z
" transform="scale(0.015625)"/>
       <path id="DejaVuSans-72" d="M 2631 2963 
Q 2534 3019 2420 3045 
Q 2306 3072 2169 3072 
Q 1681 3072 1420 2755 
Q 1159 2438 1159 1844 
L 1159 0 
L 581 0 
L 581 3500 
L 1159 3500 
L 1159 2956 
Q 1341 3275 1631 3429 
Q 1922 3584 2338 3584 
Q 2397 3584 2469 3576 
Q 2541 3569 2628 3553 
L 2631 2963 
z
" transform="scale(0.015625)"/>
       <path id="DejaVuSans-63" d="M 3122 3366 
L 3122 2828 
Q 2878 2963 2633 3030 
Q 2388 3097 2138 3097 
Q 1578 3097 1268 2742 
Q 959 2388 959 1747 
Q 959 1106 1268 751 
Q 1578 397 2138 397 
Q 2388 397 2633 464 
Q 2878 531 3122 666 
L 3122 134 
Q 2881 22 2623 -34 
Q 2366 -91 2075 -91 
Q 1284 -91 818 406 
Q 353 903 353 1747 
Q 353 2603 823 3093 
Q 1294 3584 2113 3584 
Q 2378 3584 2631 3529 
Q 2884 3475 3122 3366 
z
" transform="scale(0.015625)"/>
       <path id="DejaVuSans-74" d="M 1172 4494 
L 1172 3500 
L 2356 3500 
L 2356 3053 
L 1172 3053 
L 1172 1153 
Q 1172 725 1289 603 
Q 1406 481 1766 481 
L 2356 481 
L 2356 0 
L 1766 0 
Q 1100 0 847 248 
Q 594 497 594 1153 
L 594 3053 
L 172 3053 
L 172 3500 
L 594 3500 
L 594 4494 
L 1172 4494 
z
" transform="scale(0.015625)"/>
       <path id="DejaVuSans-75" d="M 544 1381 
L 544 3500 
L 1119 3500 
L 1119 1403 
Q 1119 906 1312 657 
Q 1506 409 1894 409 
Q 2359 409 2629 706 
Q 2900 1003 2900 1516 
L 2900 3500 
L 3475 3500 
L 3475 0 
L 2900 0 
L 2900 538 
Q 2691 219 2414 64 
Q 2138 -91 1772 -91 
Q 1169 -91 856 284 
Q 544 659 544 1381 
z
M 1991 3584 
L 1991 3584 
z
" transform="scale(0.015625)"/>
       <path id="DejaVuSans-2c" d="M 750 794 
L 1409 794 
L 1409 256 
L 897 -744 
L 494 -744 
L 750 256 
L 750 794 
z
" transform="scale(0.015625)"/>
       <path id="DejaVuSans-70" d="M 1159 525 
L 1159 -1331 
L 581 -1331 
L 581 3500 
L 1159 3500 
L 1159 2969 
Q 1341 3281 1617 3432 
Q 1894 3584 2278 3584 
Q 2916 3584 3314 3078 
Q 3713 2572 3713 1747 
Q 3713 922 3314 415 
Q 2916 -91 2278 -91 
Q 1894 -91 1617 61 
Q 1341 213 1159 525 
z
M 3116 1747 
Q 3116 2381 2855 2742 
Q 2594 3103 2138 3103 
Q 1681 3103 1420 2742 
Q 1159 2381 1159 1747 
Q 1159 1113 1420 752 
Q 1681 391 2138 391 
Q 2594 391 2855 752 
Q 3116 1113 3116 1747 
z
" transform="scale(0.015625)"/>
      </defs>
      <use xlink:href="#DejaVuSans-46"/>
      <use xlink:href="#DejaVuSans-72" x="50.269531"/>
      <use xlink:href="#DejaVuSans-61" x="91.382812"/>
      <use xlink:href="#DejaVuSans-63" x="152.662109"/>
      <use xlink:href="#DejaVuSans-74" x="207.642578"/>
      <use xlink:href="#DejaVuSans-69" x="246.851562"/>
      <use xlink:href="#DejaVuSans-6f" x="274.634766"/>
      <use xlink:href="#DejaVuSans-6e" x="335.816406"/>
      <use xlink:href="#DejaVuSans-20" x="399.195312"/>
      <use xlink:href="#DejaVuSans-6f" x="430.982422"/>
      <use xlink:href="#DejaVuSans-66" x="492.164062"/>
      <use xlink:href="#DejaVuSans-20" x="527.369141"/>
      <use xlink:href="#DejaVuSans-66" x="559.15625"/>
      <use xlink:href="#DejaVuSans-75" x="594.361328"/>
      <use xlink:href="#DejaVuSans-6e" x="657.740234"/>
      <use xlink:href="#DejaVuSans-63" x="721.119141"/>
      <use xlink:href="#DejaVuSans-74" x="776.099609"/>
      <use xlink:href="#DejaVuSans-69" x="815.308594"/>
      <use xlink:href="#DejaVuSans-6f" x="843.091797"/>
      <use xlink:href="#DejaVuSans-6e" x="904.273438"/>
      <use xlink:href="#DejaVuSans-2c" x="967.652344"/>
      <use xlink:href="#DejaVuSans-74" x="999.439453"/>
      <use xlink:href="#DejaVuSans-61" x="1038.648438"/>
      <use xlink:href="#DejaVuSans-72" x="1099.927734"/>
      <use xlink:href="#DejaVuSans-67" x="1139.291016"/>
      <use xlink:href="#DejaVuSans-65" x="1202.767578"/>
      <use xlink:href="#DejaVuSans-74" x="1264.291016"/>
      <use xlink:href="#DejaVuSans-20" x="1303.5"/>
      <use xlink:href="#DejaVuSans-70" x="1335.287109"/>
      <use xlink:href="#DejaVuSans-61" x="1398.763672"/>
      <use xlink:href="#DejaVuSans-69" x="1460.042969"/>
      <use xlink:href="#DejaVuSans-72" x="1487.826172"/>
      <use xlink:href="#DejaVuSans-73" x="1528.939453"/>
     </g>
    </g>
   </g>
   <g id="line2d_33">
    <defs>
     <path id="m4b2b4998b4" d="M 0 1.5 
C 0.397805 1.5 0.77937 1.341951 1.06066 1.06066 
C 1.341951 0.77937 1.5 0.397805 1.5 0 
C 1.5 -0.397805 1.341951 -0.77937 1.06066 -1.06066 
C 0.77937 -1.341951 0.397805 -1.5 0 -1.5 
C -0.397805 -1.5 -0.77937 -1.341951 -1.06066 -1.06066 
C -1.341951 -0.77937 -1.5 -0.397805 -1.5 0 
C -1.5 0.397805 -1.341951 0.77937 -1.06066 1.06066 
C -0.77937 1.341951 -0.397805 1.5 0 1.5 
z
" style="stroke: #f5deb3"/>
    </defs>
    <g>
     <use xlink:href="#m4b2b4998b4" x="177.597677" y="27.648" style="fill: #f5deb3; stroke: #f5deb3"/>
     <use xlink:href="#m4b2b4998b4" x="177.597677" y="27.648" style="fill: #f5deb3; stroke: #f5deb3"/>
    </g>
   </g>
   <g id="line2d_34">
    <defs>
     <path id="mc28b314e32" d="M 0 1.5 
C 0.397805 1.5 0.77937 1.341951 1.06066 1.06066 
C 1.341951 0.77937 1.5 0.397805 1.5 0 
C 1.5 -0.397805 1.341951 -0.77937 1.06066 -1.06066 
C 0.77937 -1.341951 0.397805 -1.5 0 -1.5 
C -0.397805 -1.5 -0.77937 -1.341951 -1.06066 -1.06066 
C -1.341951 -0.77937 -1.5 -0.397805 -1.5 0 
C -1.5 0.397805 -1.341951 0.77937 -1.06066 1.06066 
C -0.77937 1.341951 -0.397805 1.5 0 1.5 
z
" style="stroke: #000080"/>
    </defs>
    <g>
     <use xlink:href="#mc28b314e32" x="321.311298" y="245.748706" style="fill: #000080; stroke: #000080"/>
     <use xlink:href="#mc28b314e32" x="321.311298" y="245.748706" style="fill: #000080; stroke: #000080"/>
    </g>
   </g>
   <g id="line2d_35">
    <path d="M 104.961779 298.944 
L 104.961779 298.589365 
L 107.643612 298.589365 
L 107.643612 298.234729 
L 119.105667 298.234729 
L 119.105667 297.170824 
L 126.127391 297.170824 
L 126.127391 296.816188 
L 131.41562 296.816188 
L 131.41562 296.461553 
L 131.563744 296.461553 
L 131.563744 296.106918 
L 131.783764 296.106918 
L 131.820186 295.397647 
L 132.001241 295.397647 
L 132.073179 294.333741 
L 132.144842 294.333741 
L 132.216233 292.560565 
L 132.393534 292.560565 
L 132.393534 292.205929 
L 132.673786 292.205929 
L 132.673786 291.851294 
L 132.949924 291.851294 
L 133.05244 290.078118 
L 133.222067 290.078118 
L 133.323114 288.659576 
L 133.390178 288.659576 
L 133.390178 288.304941 
L 134.015642 288.304941 
L 134.047992 287.595671 
L 134.176839 287.595671 
L 134.176839 287.241035 
L 134.304809 287.241035 
L 134.304809 286.8864 
L 134.589598 286.8864 
L 134.683578 286.177129 
L 134.745971 286.177129 
L 134.839175 285.467859 
L 135.14656 285.467859 
L 135.207439 284.758588 
L 135.418977 284.758588 
L 135.478982 284.049318 
L 135.74666 284.049318 
L 135.805631 282.985412 
L 135.92302 282.985412 
L 136.010584 281.921506 
L 136.068734 281.921506 
L 136.155623 280.8576 
L 136.752866 280.8576 
L 136.752866 280.502965 
L 137.168148 280.502965 
L 137.168148 280.148329 
L 137.412988 280.148329 
L 137.412988 279.793694 
L 139.411192 279.793694 
L 139.411192 279.439059 
L 139.604629 279.439059 
L 139.604629 279.084424 
L 140.079694 279.084424 
L 140.14993 278.020518 
L 140.950542 278.020518 
L 140.950542 277.665882 
L 142.661862 277.665882 
L 142.661862 277.311247 
L 143.48206 277.311247 
L 143.48206 276.956612 
L 144.621352 276.956612 
L 144.621352 276.601976 
L 149.495789 276.601976 
L 149.495789 276.247341 
L 149.945377 276.247341 
L 149.945377 275.892706 
L 150.425115 275.892706 
L 150.425115 275.538071 
L 151.011358 275.538071 
L 151.089903 274.8288 
L 151.995276 274.8288 
L 152.057422 274.119529 
L 152.316216 274.119529 
L 152.316216 273.764894 
L 152.870956 273.764894 
L 152.870956 273.410259 
L 157.651312 273.410259 
L 157.76159 272.346353 
L 157.862113 272.346353 
L 157.862113 271.991718 
L 158.847515 271.991718 
L 158.847515 271.637082 
L 160.557708 271.637082 
L 160.557708 271.282447 
L 162.081651 271.282447 
L 162.081651 270.927812 
L 165.232599 270.927812 
L 165.232599 270.573176 
L 165.886348 270.573176 
L 165.886348 270.218541 
L 166.758217 270.218541 
L 166.758217 269.863906 
L 168.399768 269.863906 
L 168.399768 269.509271 
L 171.226568 269.509271 
L 171.226568 269.154635 
L 172.699191 269.154635 
L 172.744694 268.445365 
L 173.314415 268.445365 
L 173.314415 268.090729 
L 175.659258 268.090729 
L 175.659258 267.736094 
L 176.079176 267.736094 
L 176.079176 267.381459 
L 185.51966 267.381459 
L 185.51966 267.026824 
L 187.077049 267.026824 
L 187.077049 266.672188 
L 187.424819 266.672188 
L 187.424819 266.317553 
L 188.097994 266.317553 
L 188.097994 265.962918 
L 188.292444 265.962918 
L 188.292444 265.608282 
L 189.031638 265.608282 
L 189.031638 265.253647 
L 193.89531 265.253647 
L 193.89531 264.899012 
L 198.344975 264.899012 
L 198.344975 264.544376 
L 199.352637 264.544376 
L 199.352637 264.189741 
L 205.728198 264.189741 
L 205.728198 263.835106 
L 214.253364 263.835106 
L 214.253364 263.480471 
L 216.125474 263.480471 
L 216.125474 263.125835 
L 216.643639 263.125835 
L 216.643639 262.7712 
L 217.79188 262.7712 
L 217.79188 262.416565 
L 219.497563 262.416565 
L 219.497563 262.061929 
L 220.509235 262.061929 
L 220.509235 261.707294 
L 220.88956 261.707294 
L 220.88956 261.352659 
L 222.054484 261.352659 
L 222.054484 260.998024 
L 222.315238 260.998024 
L 222.315238 260.643388 
L 243.939719 260.643388 
L 243.939719 260.288753 
L 244.663896 260.288753 
L 244.72422 259.579482 
L 248.21811 259.579482 
L 248.21811 259.224847 
L 249.887642 259.224847 
L 249.887642 258.870212 
L 259.187493 258.870212 
L 259.187493 258.515576 
L 261.371962 258.515576 
L 261.371962 258.160941 
L 262.170061 258.160941 
L 262.170061 257.806306 
L 265.795338 257.806306 
L 265.795338 257.451671 
L 266.67673 257.451671 
L 266.67673 257.097035 
L 267.797816 257.097035 
L 267.797816 256.7424 
L 270.023581 256.7424 
L 270.023581 256.387765 
L 271.280688 256.387765 
L 271.283167 255.678494 
L 274.008018 255.678494 
L 274.008018 255.323859 
L 274.214787 255.323859 
L 274.220756 254.259953 
L 274.344155 254.259953 
L 274.344155 253.905318 
L 275.230893 253.905318 
L 275.251833 253.196047 
L 277.745658 253.196047 
L 277.745658 252.841412 
L 287.131371 252.841412 
L 287.234578 251.777506 
L 287.265109 251.777506 
L 287.29944 250.7136 
L 289.444279 250.7136 
L 289.444279 250.358965 
L 294.857533 250.358965 
L 294.857533 250.004329 
L 296.357624 250.004329 
L 296.357624 249.649694 
L 296.492234 249.649694 
L 296.492234 249.295059 
L 297.476005 249.295059 
L 297.476005 248.940424 
L 300.296529 248.940424 
L 300.296529 248.585788 
L 304.418549 248.585788 
L 304.418549 248.231153 
L 306.821661 248.231153 
L 306.821661 247.876518 
L 307.853884 247.876518 
L 307.853884 247.521882 
L 308.654535 247.521882 
L 308.654535 247.167247 
L 311.445879 247.167247 
L 311.445879 246.812612 
L 311.955598 246.812612 
L 311.955598 246.457976 
L 313.876048 246.457976 
L 313.876048 246.103341 
L 321.311298 246.103341 
L 321.311298 245.748706 
L 360.8064 245.748706 
L 360.8064 245.748706 
" style="fill: none; stroke: #000080; stroke-width: 1.5; stroke-linecap: square"/>
   </g>
   <g id="line2d_36">
    <defs>
     <path id="macdcef175d" d="M 0 6 
C 1.591219 6 3.117479 5.367802 4.242641 4.242641 
C 5.367802 3.117479 6 1.591219 6 0 
C 6 -1.591219 5.367802 -3.117479 4.242641 -4.242641 
C 3.117479 -5.367802 1.591219 -6 0 -6 
C -1.591219 -6 -3.117479 -5.367802 -4.242641 -4.242641 
C -5.367802 -3.117479 -6 -1.591219 -6 0 
C -6 1.591219 -5.367802 3.117479 -4.242641 4.242641 
C -3.117479 5.367802 -1.591219 6 0 6 
z
" style="stroke: #000080; stroke-width: 1.5"/>
    </defs>
    <g>
     <use xlink:href="#macdcef175d" x="185.51966" y="267.381459" style="fill-opacity: 0; stroke: #000080; stroke-width: 1.5"/>
     <use xlink:href="#macdcef175d" x="277.745658" y="253.196047" style="fill-opacity: 0; stroke: #000080; stroke-width: 1.5"/>
     <use xlink:href="#macdcef175d" x="321.311298" y="245.748706" style="fill-opacity: 0; stroke: #000080; stroke-width: 1.5"/>
     <use xlink:href="#macdcef175d" x="321.311298" y="245.748706" style="fill-opacity: 0; stroke: #000080; stroke-width: 1.5"/>
     <use xlink:href="#macdcef175d" x="360.8064" y="245.748706" style="fill-opacity: 0; stroke: #000080; stroke-width: 1.5"/>
    </g>
   </g>
   <g id="line2d_37">
    <path style="fill: none; stroke: #000080; stroke-width: 1.5; stroke-linecap: square"/>
    <g/>
   </g>
   <g id="line2d_38">
    <path d="M 274.176 255.323859 
" clip-path="url(#p9779b1b74a)" style="fill: none; stroke: #000080; stroke-width: 1.5; stroke-linecap: square"/>
    <defs>
     <path id="m4e5928d513" d="M -12 12 
L 12 -12 
M -12 -12 
L 12 12 
" style="stroke: #000080"/>
    </defs>
    <g clip-path="url(#p9779b1b74a)">
     <use xlink:href="#m4e5928d513" x="274.176" y="255.323859" style="fill: #000080; stroke: #000080"/>
    </g>
   </g>
   <g id="line2d_39">
    <defs>
     <path id="mf87e4d18e1" d="M 0 1.5 
C 0.397805 1.5 0.77937 1.341951 1.06066 1.06066 
C 1.341951 0.77937 1.5 0.397805 1.5 0 
C 1.5 -0.397805 1.341951 -0.77937 1.06066 -1.06066 
C 0.77937 -1.341951 0.397805 -1.5 0 -1.5 
C -0.397805 -1.5 -0.77937 -1.341951 -1.06066 -1.06066 
C -1.341951 -0.77937 -1.5 -0.397805 -1.5 0 
C -1.5 0.397805 -1.341951 0.77937 -1.06066 1.06066 
C -0.77937 1.341951 -0.397805 1.5 0 1.5 
z
" style="stroke: #ff00ff"/>
    </defs>
    <g>
     <use xlink:href="#mf87e4d18e1" x="357.203429" y="70.204235" style="fill: #ff00ff; stroke: #ff00ff"/>
     <use xlink:href="#mf87e4d18e1" x="357.203429" y="70.204235" style="fill: #ff00ff; stroke: #ff00ff"/>
    </g>
   </g>
   <g id="line2d_40">
    <path d="M 95.752617 298.944 
L 95.752617 298.234729 
L 115.917548 298.234729 
L 115.917548 297.880094 
L 116.086263 297.880094 
L 116.086263 297.170824 
L 123.825333 297.170824 
L 123.825333 296.106918 
L 124.695386 296.106918 
L 124.695386 295.752282 
L 129.78556 295.752282 
L 129.78556 295.397647 
L 130.540507 295.397647 
L 130.540507 295.043012 
L 130.695654 295.043012 
L 130.695654 294.688376 
L 142.60042 294.688376 
L 142.682299 293.624471 
L 144.694906 293.624471 
L 144.694906 293.269835 
L 147.439393 293.269835 
L 147.439393 292.9152 
L 148.322436 292.9152 
L 148.428077 291.496659 
L 149.049758 291.496659 
L 149.049758 291.142024 
L 150.357325 291.142024 
L 150.357325 290.432753 
L 153.877408 290.432753 
L 153.877408 290.078118 
L 154.012098 290.078118 
L 154.012098 289.723482 
L 155.85377 289.723482 
L 155.85377 289.368847 
L 156.793307 289.368847 
L 156.793307 289.014212 
L 157.651312 289.014212 
L 157.651312 288.659576 
L 159.643442 288.659576 
L 159.643442 288.304941 
L 161.832391 288.304941 
L 161.832391 287.595671 
L 168.090128 287.595671 
L 168.090128 287.241035 
L 168.79126 287.241035 
L 168.79126 286.8864 
L 172.271923 286.8864 
L 172.271923 286.531765 
L 175.215265 286.531765 
L 175.215265 286.177129 
L 176.792206 286.177129 
L 176.792206 285.822494 
L 177.024001 285.822494 
L 177.024001 285.467859 
L 178.922548 285.467859 
L 178.922548 285.113224 
L 180.747098 285.113224 
L 180.747098 284.758588 
L 180.860161 284.758588 
L 180.860161 284.403953 
L 181.633132 284.403953 
L 181.633132 284.049318 
L 182.091166 284.049318 
L 182.091166 283.694682 
L 183.338515 283.694682 
L 183.338515 283.340047 
L 184.312712 283.340047 
L 184.312712 282.985412 
L 185.44619 282.985412 
L 185.44619 282.630776 
L 187.017167 282.630776 
L 187.017167 282.276141 
L 187.958648 282.276141 
L 187.958648 281.921506 
L 188.294252 281.921506 
L 188.294252 281.566871 
L 188.470584 281.566871 
L 188.470584 281.212235 
L 188.584853 281.212235 
L 188.584853 280.8576 
L 188.790214 280.8576 
L 188.790214 280.502965 
L 189.239082 280.502965 
L 189.276866 279.793694 
L 190.468511 279.793694 
L 190.55848 279.084424 
L 190.622481 279.084424 
L 190.622481 278.729788 
L 191.375513 278.729788 
L 191.375513 278.375153 
L 192.816676 278.375153 
L 192.816676 278.020518 
L 195.236879 278.020518 
L 195.236879 277.311247 
L 195.377585 277.311247 
L 195.397423 276.601976 
L 195.509857 276.601976 
L 195.603245 275.892706 
L 195.74733 275.892706 
L 195.74733 275.538071 
L 196.208721 275.538071 
L 196.208721 275.183435 
L 196.774595 275.183435 
L 196.774595 274.8288 
L 196.892853 274.8288 
L 196.892853 274.474165 
L 197.144109 274.474165 
L 197.221873 273.410259 
L 197.504289 273.410259 
L 197.504289 273.055624 
L 198.394706 273.055624 
L 198.394706 272.700988 
L 199.980735 272.700988 
L 199.980735 272.346353 
L 200.227751 272.346353 
L 200.227751 271.991718 
L 200.659871 271.991718 
L 200.659871 271.282447 
L 200.80824 271.282447 
L 200.80824 270.927812 
L 201.07679 270.927812 
L 201.07679 270.573176 
L 201.377665 270.573176 
L 201.377665 270.218541 
L 201.517815 270.218541 
L 201.517815 269.863906 
L 202.356318 269.863906 
L 202.356318 269.509271 
L 202.614772 269.509271 
L 202.614772 269.154635 
L 202.912157 269.154635 
L 202.912157 268.8 
L 203.443965 268.8 
L 203.443965 268.445365 
L 203.561558 268.445365 
L 203.561558 268.090729 
L 204.599468 268.090729 
L 204.599468 267.736094 
L 205.16898 267.736094 
L 205.223451 266.672188 
L 205.490566 266.672188 
L 205.490566 266.317553 
L 205.722472 266.317553 
L 205.722472 265.962918 
L 206.25249 265.962918 
L 206.25249 265.608282 
L 206.713737 265.608282 
L 206.744269 264.189741 
L 207.071563 264.189741 
L 207.071563 263.835106 
L 207.676029 263.835106 
L 207.676029 263.480471 
L 208.373912 263.480471 
L 208.393174 262.7712 
L 208.646709 262.7712 
L 208.702996 261.707294 
L 209.092361 261.707294 
L 209.138977 260.998024 
L 209.34202 260.998024 
L 209.34202 260.643388 
L 210.102928 260.643388 
L 210.102928 259.934118 
L 210.221642 259.934118 
L 210.221642 259.579482 
L 210.535152 259.579482 
L 210.631338 258.515576 
L 210.935436 258.515576 
L 210.935436 258.160941 
L 211.487169 258.160941 
L 211.585435 257.451671 
L 211.694136 257.451671 
L 211.694136 257.097035 
L 212.775019 257.097035 
L 212.775019 256.7424 
L 213.054357 256.7424 
L 213.054357 256.387765 
L 213.414924 256.387765 
L 213.414924 256.033129 
L 213.635702 256.033129 
L 213.635702 255.678494 
L 214.048955 255.678494 
L 214.048955 254.969224 
L 214.311943 254.969224 
L 214.311943 254.614588 
L 214.68055 254.614588 
L 214.692106 253.550682 
L 215.317001 253.550682 
L 215.317001 253.196047 
L 215.984962 253.196047 
L 216.059481 252.486776 
L 216.104052 252.486776 
L 216.211739 251.777506 
L 216.366433 251.777506 
L 216.455244 251.068235 
L 216.612772 251.068235 
L 216.612772 250.358965 
L 216.908528 250.358965 
L 216.949163 249.649694 
L 217.370809 249.649694 
L 217.370809 249.295059 
L 217.59871 249.295059 
L 217.59871 248.940424 
L 218.425827 248.940424 
L 218.446947 248.231153 
L 219.336496 248.231153 
L 219.436548 247.167247 
L 219.70736 247.167247 
L 219.70736 246.812612 
L 219.946794 246.812612 
L 219.946794 246.457976 
L 220.391456 246.457976 
L 220.391456 246.103341 
L 220.56037 246.103341 
L 220.56037 245.748706 
L 220.750011 245.748706 
L 220.750011 245.394071 
L 221.04045 245.394071 
L 221.04045 245.039435 
L 221.334903 245.039435 
L 221.422409 244.330165 
L 221.673625 244.330165 
L 221.762625 243.266259 
L 222.598128 243.266259 
L 222.687809 242.556988 
L 222.917331 242.556988 
L 222.917331 242.202353 
L 223.133311 242.202353 
L 223.179211 241.493082 
L 223.290941 241.493082 
L 223.394739 240.783812 
L 223.84941 240.783812 
L 223.84941 240.429176 
L 224.221736 240.429176 
L 224.221736 240.074541 
L 224.484675 240.074541 
L 224.484675 239.719906 
L 225.489392 239.719906 
L 225.500652 239.010635 
L 225.613125 239.010635 
L 225.654603 238.301365 
L 226.290996 238.301365 
L 226.290996 237.592094 
L 226.749926 237.592094 
L 226.786405 236.882824 
L 227.227159 236.882824 
L 227.227159 236.528188 
L 227.411098 236.528188 
L 227.411098 236.173553 
L 227.891003 236.173553 
L 227.891003 235.818918 
L 228.065757 235.818918 
L 228.065757 235.464282 
L 228.860193 235.464282 
L 228.860193 235.109647 
L 229.030772 235.109647 
L 229.030772 234.755012 
L 229.212348 234.755012 
L 229.212348 234.400376 
L 229.493003 234.400376 
L 229.493003 234.045741 
L 230.181628 234.045741 
L 230.181628 233.691106 
L 230.400733 233.691106 
L 230.400733 233.336471 
L 230.590616 233.336471 
L 230.590616 232.981835 
L 231.101546 232.981835 
L 231.101546 232.6272 
L 231.91411 232.6272 
L 232.003368 231.917929 
L 232.724229 231.917929 
L 232.811429 231.208659 
L 233.320694 231.208659 
L 233.320694 230.854024 
L 233.558517 230.854024 
L 233.558517 230.499388 
L 233.768567 230.499388 
L 233.768567 229.790118 
L 234.968266 229.790118 
L 234.968266 229.435482 
L 235.953923 229.435482 
L 235.953923 229.080847 
L 236.143954 229.080847 
L 236.143954 228.726212 
L 236.786174 228.726212 
L 236.786174 228.371576 
L 239.24941 228.371576 
L 239.24941 228.016941 
L 245.520679 228.016941 
L 245.520679 227.662306 
L 256.327774 227.662306 
L 256.327774 227.307671 
L 263.585426 227.307671 
L 263.585426 219.505694 
L 270.67169 219.505694 
L 270.67169 219.151059 
L 275.188034 219.151059 
L 275.296284 216.313976 
L 275.301441 216.313976 
L 275.400196 215.250071 
L 275.470763 215.250071 
L 275.547957 214.186165 
L 275.596443 214.186165 
L 275.680194 212.058353 
L 275.717511 212.058353 
L 275.7956 211.349082 
L 275.908193 211.349082 
L 275.990946 209.575906 
L 276.075718 209.575906 
L 276.154861 208.512 
L 276.38168 208.512 
L 276.38168 208.157365 
L 276.493307 208.157365 
L 276.591673 206.738824 
L 276.906188 206.738824 
L 276.906188 206.384188 
L 282.655537 206.384188 
L 282.655537 198.227576 
L 285.544502 198.227576 
L 285.544502 197.872941 
L 287.773659 197.872941 
L 287.82189 196.809035 
L 287.957734 196.809035 
L 288.04977 195.745129 
L 288.144527 195.745129 
L 288.230613 193.617318 
L 288.25772 193.617318 
L 288.350323 192.198776 
L 288.46176 192.198776 
L 288.46176 191.844141 
L 288.629755 191.844141 
L 288.629755 191.134871 
L 289.161351 191.134871 
L 289.161351 190.780235 
L 290.5444 190.780235 
L 290.5444 190.4256 
L 291.928734 190.4256 
L 291.928734 182.623624 
L 295.278108 182.623624 
L 295.328099 181.914353 
L 295.403093 181.914353 
L 295.450775 180.495812 
L 295.525615 180.495812 
L 295.606928 178.722635 
L 296.162162 178.722635 
L 296.162162 178.013365 
L 298.112342 178.013365 
L 298.112342 173.757741 
L 299.437553 173.757741 
L 299.437553 173.403106 
L 300.556473 173.403106 
L 300.619641 172.3392 
L 300.702579 172.3392 
L 300.702579 171.984565 
L 300.830484 171.984565 
L 300.860982 171.275294 
L 302.758377 171.275294 
L 302.758377 166.3104 
L 303.801451 166.3104 
L 303.801451 165.955765 
L 304.76264 165.955765 
L 304.76264 165.246494 
L 304.914337 165.246494 
L 304.938887 164.182588 
L 306.481205 164.182588 
L 306.481205 159.217694 
L 308.126091 159.217694 
L 308.224804 157.799153 
L 308.267821 157.799153 
L 308.267821 157.444518 
L 309.587599 157.444518 
L 309.587599 152.479624 
L 310.319202 152.479624 
L 310.319202 152.124988 
L 310.991197 152.124988 
L 310.991197 151.770353 
L 312.252991 151.770353 
L 312.252991 146.805459 
L 314.182675 146.805459 
L 314.182675 146.450824 
L 314.587171 146.450824 
L 314.587171 140.776659 
L 315.150556 140.776659 
L 315.150556 140.067388 
L 315.676447 140.067388 
L 315.781238 138.294212 
L 316.66343 138.294212 
L 316.66343 134.393224 
L 317.168725 134.393224 
L 317.168725 134.038588 
L 318.533137 134.038588 
L 318.533137 131.910776 
L 318.991203 131.910776 
L 318.991203 131.556141 
L 319.421342 131.556141 
L 319.472881 130.492235 
L 320.233697 130.492235 
L 320.233697 125.881976 
L 321.793191 125.881976 
L 321.793191 121.626353 
L 323.233241 121.626353 
L 323.233241 116.661459 
L 324.570848 116.661459 
L 324.570848 114.179012 
L 325.819625 114.179012 
L 325.819625 112.405835 
L 326.462067 112.405835 
L 326.462067 112.0512 
L 326.99064 112.0512 
L 326.99064 109.923388 
L 328.093011 109.923388 
L 328.093011 106.731671 
L 329.134343 106.731671 
L 329.134343 104.603859 
L 329.396434 104.603859 
L 329.396434 104.249224 
L 330.121042 104.249224 
L 330.121042 101.766776 
L 330.369828 101.766776 
L 330.369828 101.057506 
L 331.058556 101.057506 
L 331.058556 98.575059 
L 331.295323 98.575059 
L 331.295323 98.220424 
L 331.951557 98.220424 
L 331.951557 96.447247 
L 332.80408 96.447247 
L 332.80408 94.319435 
L 333.619637 94.319435 
L 333.619637 92.191624 
L 334.261204 92.191624 
L 334.261204 91.836988 
L 334.401301 91.836988 
L 334.401301 90.418447 
L 335.151776 90.418447 
L 335.151776 90.063812 
L 335.873457 90.063812 
L 335.873457 88.645271 
L 336.568471 88.645271 
L 336.568471 87.936 
L 337.238719 87.936 
L 337.238719 85.808188 
L 337.885906 85.808188 
L 337.885906 85.098918 
L 338.511566 85.098918 
L 338.511566 83.325741 
L 339.117085 83.325741 
L 339.117085 82.971106 
L 339.70372 82.971106 
L 339.70372 82.261835 
L 340.272612 82.261835 
L 340.272612 81.9072 
L 340.824804 81.9072 
L 340.824804 81.197929 
L 341.361248 81.197929 
L 341.361248 79.779388 
L 341.882817 79.779388 
L 341.882817 78.360847 
L 342.390315 78.360847 
L 342.390315 77.296941 
L 342.88448 77.296941 
L 342.88448 76.587671 
L 343.489447 76.587671 
L 343.489447 76.233035 
L 343.835493 76.233035 
L 343.835493 75.8784 
L 344.293558 75.8784 
L 344.293558 75.169129 
L 344.740733 75.169129 
L 344.740733 74.814494 
L 346.021811 74.814494 
L 346.021811 74.459859 
L 346.829826 74.459859 
L 346.932572 73.750588 
L 347.221181 73.750588 
L 347.221181 73.041318 
L 347.60456 73.041318 
L 347.60456 72.332047 
L 349.753944 72.332047 
L 349.753944 71.977412 
L 351.985811 71.977412 
L 351.985811 71.622776 
L 355.286366 71.622776 
L 355.286366 71.268141 
L 355.536958 71.268141 
L 355.536958 70.558871 
L 357.203429 70.558871 
L 357.203429 70.204235 
L 360.8064 70.204235 
L 360.8064 70.204235 
" style="fill: none; stroke: #ff00ff; stroke-width: 1.5; stroke-linecap: square"/>
   </g>
   <g id="line2d_41">
    <defs>
     <path id="m0b5220f66c" d="M 0 8.485281 
L 5.091169 0 
L 0 -8.485281 
L -5.091169 0 
z
" style="stroke: #ff00ff; stroke-width: 1.5; stroke-linejoin: miter"/>
    </defs>
    <g>
     <use xlink:href="#m0b5220f66c" x="210.221642" y="259.934118" style="fill-opacity: 0; stroke: #ff00ff; stroke-width: 1.5; stroke-linejoin: miter"/>
     <use xlink:href="#m0b5220f66c" x="290.5444" y="190.4256" style="fill-opacity: 0; stroke: #ff00ff; stroke-width: 1.5; stroke-linejoin: miter"/>
     <use xlink:href="#m0b5220f66c" x="331.951557" y="96.447247" style="fill-opacity: 0; stroke: #ff00ff; stroke-width: 1.5; stroke-linejoin: miter"/>
     <use xlink:href="#m0b5220f66c" x="357.203429" y="70.204235" style="fill-opacity: 0; stroke: #ff00ff; stroke-width: 1.5; stroke-linejoin: miter"/>
     <use xlink:href="#m0b5220f66c" x="360.8064" y="70.204235" style="fill-opacity: 0; stroke: #ff00ff; stroke-width: 1.5; stroke-linejoin: miter"/>
    </g>
   </g>
   <g id="line2d_42">
    <path style="fill: none; stroke: #ff00ff; stroke-width: 1.5; stroke-linecap: square"/>
    <g/>
   </g>
   <g id="line2d_43">
    <path d="M 274.176 219.151059 
" clip-path="url(#p9779b1b74a)" style="fill: none; stroke: #ff00ff; stroke-width: 1.5; stroke-linecap: square"/>
    <defs>
     <path id="m79733e6670" d="M -12 12 
L 12 -12 
M -12 -12 
L 12 12 
" style="stroke: #ff00ff"/>
    </defs>
    <g clip-path="url(#p9779b1b74a)">
     <use xlink:href="#m79733e6670" x="274.176" y="219.151059" style="fill: #ff00ff; stroke: #ff00ff"/>
    </g>
   </g>
   <g id="line2d_44">
    <defs>
     <path id="m48b9883b3b" d="M 0 1.5 
C 0.397805 1.5 0.77937 1.341951 1.06066 1.06066 
C 1.341951 0.77937 1.5 0.397805 1.5 0 
C 1.5 -0.397805 1.341951 -0.77937 1.06066 -1.06066 
C 0.77937 -1.341951 0.397805 -1.5 0 -1.5 
C -0.397805 -1.5 -0.77937 -1.341951 -1.06066 -1.06066 
C -1.341951 -0.77937 -1.5 -0.397805 -1.5 0 
C -1.5 0.397805 -1.341951 0.77937 -1.06066 1.06066 
C -0.77937 1.341951 -0.397805 1.5 0 1.5 
z
" style="stroke: #ff7500"/>
    </defs>
    <g>
     <use xlink:href="#m48b9883b3b" x="322.441735" y="235.109647" style="fill: #ff7500; stroke: #ff7500"/>
     <use xlink:href="#m48b9883b3b" x="322.441735" y="235.109647" style="fill: #ff7500; stroke: #ff7500"/>
    </g>
   </g>
   <g id="line2d_45">
    <path d="M 50.890391 298.944 
L 50.890391 298.589365 
L 78.266603 298.589365 
L 78.266603 298.234729 
L 91.616719 298.234729 
L 91.616719 297.880094 
L 96.241256 297.880094 
L 96.241256 297.170824 
L 97.635342 297.170824 
L 97.635342 296.816188 
L 99.346662 296.816188 
L 99.346662 296.106918 
L 99.751228 296.106918 
L 99.751228 295.752282 
L 101.653002 295.752282 
L 101.653002 295.397647 
L 103.707211 295.397647 
L 103.707211 295.043012 
L 104.655893 295.043012 
L 104.655893 294.688376 
L 105.99483 294.688376 
L 105.99483 294.333741 
L 106.837279 294.333741 
L 106.837279 293.979106 
L 107.774703 293.979106 
L 107.774703 293.624471 
L 108.034177 293.624471 
L 108.034177 293.269835 
L 108.667622 293.269835 
L 108.667622 292.9152 
L 111.762192 292.9152 
L 111.762192 292.560565 
L 112.283321 292.560565 
L 112.283321 292.205929 
L 113.284172 292.205929 
L 113.284172 291.851294 
L 114.510421 291.851294 
L 114.510421 291.496659 
L 115.575511 291.496659 
L 115.661605 290.787388 
L 116.086263 290.787388 
L 116.086263 290.432753 
L 116.907859 290.432753 
L 116.907859 290.078118 
L 117.1475 290.078118 
L 117.1475 289.723482 
L 117.617813 289.723482 
L 117.617813 289.368847 
L 118.524569 289.368847 
L 118.524569 289.014212 
L 120.149089 289.014212 
L 120.216635 287.950306 
L 120.351004 287.950306 
L 120.351004 287.595671 
L 120.48442 287.595671 
L 120.48442 287.241035 
L 121.329295 287.241035 
L 121.329295 286.8864 
L 121.518993 286.8864 
L 121.518993 286.177129 
L 122.015696 286.177129 
L 122.015696 285.822494 
L 122.259215 285.822494 
L 122.259215 285.467859 
L 122.795872 285.467859 
L 122.795872 285.113224 
L 122.913079 285.113224 
L 122.913079 284.758588 
L 124.101572 284.758588 
L 124.101572 284.403953 
L 124.373813 284.403953 
L 124.373813 284.049318 
L 124.695386 284.049318 
L 124.695386 283.694682 
L 124.854134 283.694682 
L 124.854134 283.340047 
L 126.127391 283.340047 
L 126.127391 282.985412 
L 126.468985 282.985412 
L 126.468985 282.276141 
L 128.310214 282.276141 
L 128.310214 281.921506 
L 129.0834 281.921506 
L 129.0834 281.566871 
L 129.581749 281.566871 
L 129.581749 281.212235 
L 130.734242 281.212235 
L 130.734242 280.8576 
L 131.002163 280.8576 
L 131.002163 280.502965 
L 132.984158 280.502965 
L 132.984158 280.148329 
L 133.323114 280.148329 
L 133.390178 279.439059 
L 133.623039 279.439059 
L 133.623039 279.084424 
L 134.368469 279.084424 
L 134.368469 278.729788 
L 134.620977 278.729788 
L 134.620977 278.375153 
L 135.177024 278.375153 
L 135.177024 278.020518 
L 136.612375 278.020518 
L 136.612375 277.311247 
L 137.113304 277.311247 
L 137.113304 276.956612 
L 137.574461 276.956612 
L 137.574461 276.601976 
L 137.734561 276.601976 
L 137.787626 275.892706 
L 138.128947 275.892706 
L 138.128947 275.183435 
L 139.508159 275.183435 
L 139.508159 274.8288 
L 139.676658 274.8288 
L 139.676658 274.474165 
L 139.93843 274.474165 
L 139.93843 273.764894 
L 140.770526 273.764894 
L 140.770526 273.410259 
L 142.47693 273.410259 
L 142.538777 272.700988 
L 142.905644 272.700988 
L 142.905644 272.346353 
L 143.166224 272.346353 
L 143.166224 271.991718 
L 143.599145 271.991718 
L 143.599145 271.637082 
L 146.091614 271.637082 
L 146.091614 271.282447 
L 146.546143 271.282447 
L 146.546143 270.927812 
L 146.695245 270.927812 
L 146.695245 270.573176 
L 146.87589 270.573176 
L 146.87589 270.218541 
L 148.200973 270.218541 
L 148.200973 269.863906 
L 149.410282 269.863906 
L 149.410282 269.509271 
L 150.38447 269.509271 
L 150.38447 269.154635 
L 150.985103 269.154635 
L 150.985103 268.8 
L 151.70673 268.8 
L 151.731998 268.090729 
L 151.845283 268.090729 
L 151.907925 267.381459 
L 152.462515 267.381459 
L 152.462515 267.026824 
L 153.165721 267.026824 
L 153.165721 266.672188 
L 153.317193 266.672188 
L 153.317193 265.962918 
L 153.854866 265.962918 
L 153.854866 265.253647 
L 154.476059 265.253647 
L 154.476059 264.899012 
L 156.462418 264.899012 
L 156.462418 264.544376 
L 156.68689 264.544376 
L 156.774003 263.835106 
L 157.586683 263.835106 
L 157.586683 263.480471 
L 158.052543 263.480471 
L 158.052543 263.125835 
L 159.376252 263.125835 
L 159.376252 262.7712 
L 160.478568 262.7712 
L 160.565603 262.061929 
L 160.738476 262.061929 
L 160.738476 261.707294 
L 161.010268 261.707294 
L 161.041081 260.998024 
L 161.406958 260.998024 
L 161.406958 260.643388 
L 162.549177 260.643388 
L 162.655437 259.934118 
L 162.810208 259.934118 
L 162.810208 259.579482 
L 163.416862 259.579482 
L 163.416862 259.224847 
L 164.155187 259.224847 
L 164.155187 258.870212 
L 164.291668 258.870212 
L 164.291668 258.515576 
L 166.01087 258.515576 
L 166.01087 258.160941 
L 167.000877 258.160941 
L 167.000877 257.806306 
L 168.938524 257.806306 
L 168.938524 257.451671 
L 169.06958 257.451671 
L 169.06958 257.097035 
L 169.457359 257.097035 
L 169.457359 256.7424 
L 169.628797 256.7424 
L 169.628797 256.387765 
L 169.995769 256.387765 
L 169.995769 256.033129 
L 170.759486 256.033129 
L 170.759486 255.678494 
L 170.964979 255.678494 
L 170.964979 255.323859 
L 171.118765 255.323859 
L 171.118765 254.969224 
L 172.649425 254.969224 
L 172.649425 254.614588 
L 173.832324 254.614588 
L 173.867387 253.905318 
L 174.298352 253.905318 
L 174.317363 253.196047 
L 174.551519 253.196047 
L 174.551519 252.841412 
L 175.957665 252.841412 
L 176.048006 251.777506 
L 177.043737 251.777506 
L 177.043737 251.422871 
L 177.702725 251.422871 
L 177.702725 251.068235 
L 177.845034 251.068235 
L 177.845034 250.7136 
L 178.562105 250.7136 
L 178.562105 250.358965 
L 178.734177 250.358965 
L 178.734177 250.004329 
L 179.182551 250.004329 
L 179.182551 249.649694 
L 179.63768 249.649694 
L 179.63768 249.295059 
L 182.714236 249.295059 
L 182.714236 248.940424 
L 183.479146 248.940424 
L 183.479146 248.585788 
L 184.097028 248.585788 
L 184.097028 248.231153 
L 186.212769 248.231153 
L 186.212769 247.876518 
L 188.299675 247.876518 
L 188.299675 247.521882 
L 196.331758 247.521882 
L 196.331758 247.167247 
L 198.574541 247.167247 
L 198.574541 246.812612 
L 224.167308 246.812612 
L 224.167308 246.457976 
L 265.932057 246.457976 
L 265.932057 246.103341 
L 269.937458 246.103341 
L 269.937458 245.748706 
L 274.200759 245.748706 
L 274.293393 242.556988 
L 274.320947 242.556988 
L 274.370797 241.493082 
L 274.511098 241.493082 
L 274.511098 241.138447 
L 287.250366 241.138447 
L 287.312825 239.365271 
L 294.866071 239.365271 
L 294.866071 239.010635 
L 300.263508 239.010635 
L 300.303238 237.592094 
L 304.46611 237.592094 
L 304.491147 236.882824 
L 307.914384 236.882824 
L 307.914384 236.528188 
L 310.791652 236.528188 
L 310.791652 236.173553 
L 313.302328 236.173553 
L 313.302328 235.818918 
L 315.517031 235.818918 
L 315.517031 235.464282 
L 322.441735 235.464282 
L 322.441735 235.109647 
L 360.8064 235.109647 
L 360.8064 235.109647 
" style="fill: none; stroke: #ff7500; stroke-width: 1.5; stroke-linecap: square"/>
   </g>
   <g id="line2d_46">
    <defs>
     <path id="me5e2b84d55" d="M 0 -6 
L -1.347084 -1.854102 
L -5.706339 -1.854102 
L -2.179628 0.708204 
L -3.526712 4.854102 
L -0 2.291796 
L 3.526712 4.854102 
L 2.179628 0.708204 
L 5.706339 -1.854102 
L 1.347084 -1.854102 
z
" style="stroke: #ff7500; stroke-width: 1.5; stroke-linejoin: bevel"/>
    </defs>
    <g>
     <use xlink:href="#me5e2b84d55" x="116.907859" y="290.078118" style="fill-opacity: 0; stroke: #ff7500; stroke-width: 1.5; stroke-linejoin: bevel"/>
     <use xlink:href="#me5e2b84d55" x="183.479146" y="248.585788" style="fill-opacity: 0; stroke: #ff7500; stroke-width: 1.5; stroke-linejoin: bevel"/>
     <use xlink:href="#me5e2b84d55" x="224.167308" y="246.812612" style="fill-opacity: 0; stroke: #ff7500; stroke-width: 1.5; stroke-linejoin: bevel"/>
     <use xlink:href="#me5e2b84d55" x="322.441735" y="235.464282" style="fill-opacity: 0; stroke: #ff7500; stroke-width: 1.5; stroke-linejoin: bevel"/>
     <use xlink:href="#me5e2b84d55" x="322.441735" y="235.109647" style="fill-opacity: 0; stroke: #ff7500; stroke-width: 1.5; stroke-linejoin: bevel"/>
     <use xlink:href="#me5e2b84d55" x="360.8064" y="235.109647" style="fill-opacity: 0; stroke: #ff7500; stroke-width: 1.5; stroke-linejoin: bevel"/>
    </g>
   </g>
   <g id="line2d_47">
    <path style="fill: none; stroke: #ff7500; stroke-width: 1.5; stroke-linecap: square"/>
    <g/>
   </g>
   <g id="line2d_48">
    <path d="M 274.176 245.748706 
" clip-path="url(#p9779b1b74a)" style="fill: none; stroke: #ff7500; stroke-width: 1.5; stroke-linecap: square"/>
    <defs>
     <path id="m300dd19567" d="M -12 12 
L 12 -12 
M -12 -12 
L 12 12 
" style="stroke: #ff7500"/>
    </defs>
    <g clip-path="url(#p9779b1b74a)">
     <use xlink:href="#m300dd19567" x="274.176" y="245.748706" style="fill: #ff7500; stroke: #ff7500"/>
    </g>
   </g>
   <g id="line2d_49">
    <defs>
     <path id="mde0fea69d1" d="M 0 1.5 
C 0.397805 1.5 0.77937 1.341951 1.06066 1.06066 
C 1.341951 0.77937 1.5 0.397805 1.5 0 
C 1.5 -0.397805 1.341951 -0.77937 1.06066 -1.06066 
C 0.77937 -1.341951 0.397805 -1.5 0 -1.5 
C -0.397805 -1.5 -0.77937 -1.341951 -1.06066 -1.06066 
C -1.341951 -0.77937 -1.5 -0.397805 -1.5 0 
C -1.5 0.397805 -1.341951 0.77937 -1.06066 1.06066 
C -0.77937 1.341951 -0.397805 1.5 0 1.5 
z
" style="stroke: #6495ed"/>
    </defs>
    <g>
     <use xlink:href="#mde0fea69d1" x="290.028709" y="27.648" style="fill: #6495ed; stroke: #6495ed"/>
     <use xlink:href="#mde0fea69d1" x="290.028709" y="27.648" style="fill: #6495ed; stroke: #6495ed"/>
    </g>
   </g>
   <g id="line2d_50">
    <path d="M 125.373824 298.944 
L 125.425011 297.880094 
L 126.127391 297.880094 
L 126.127391 297.170824 
L 126.323346 297.170824 
L 126.420564 295.043012 
L 126.468985 295.043012 
L 126.468985 294.333741 
L 126.756923 294.333741 
L 126.851931 293.269835 
L 126.993549 293.269835 
L 126.993549 292.560565 
L 132.638982 292.560565 
L 132.673786 291.851294 
L 133.323114 291.851294 
L 133.323114 291.496659 
L 133.523594 291.496659 
L 133.589949 290.787388 
L 133.656071 290.787388 
L 133.689044 290.078118 
L 133.885683 290.078118 
L 133.918257 289.014212 
L 134.336666 289.014212 
L 134.368469 287.950306 
L 134.526683 287.950306 
L 134.620977 287.241035 
L 137.945929 287.241035 
L 137.945929 286.8864 
L 139.043049 286.8864 
L 139.092553 285.822494 
L 139.240288 285.822494 
L 139.240288 285.467859 
L 139.748412 285.467859 
L 139.843661 284.049318 
L 139.867398 284.049318 
L 139.867398 283.694682 
L 141.761416 283.694682 
L 141.761416 283.340047 
L 142.784148 283.340047 
L 142.784148 282.630776 
L 143.086429 282.630776 
L 143.18612 281.212235 
L 143.305055 281.212235 
L 143.403597 280.502965 
L 144.098256 280.502965 
L 144.098256 280.148329 
L 146.142663 280.148329 
L 146.142663 279.793694 
L 146.429353 279.793694 
L 146.429353 279.439059 
L 147.391749 279.439059 
L 147.471089 278.729788 
L 147.660152 278.729788 
L 147.660152 278.375153 
L 147.971093 278.375153 
L 147.971093 278.020518 
L 149.064312 278.020518 
L 149.122418 277.311247 
L 149.223672 277.311247 
L 149.223672 276.956612 
L 149.495789 276.956612 
L 149.495789 276.601976 
L 150.398028 276.601976 
L 150.398028 276.247341 
L 151.795018 276.247341 
L 151.795018 275.892706 
L 152.763699 275.892706 
L 152.859068 274.8288 
L 153.75309 274.8288 
L 153.75309 274.474165 
L 153.933646 274.474165 
L 153.933646 274.119529 
L 154.14583 274.119529 
L 154.14583 273.764894 
L 154.311669 273.764894 
L 154.311669 273.410259 
L 155.151225 273.410259 
L 155.151225 273.055624 
L 155.402189 273.055624 
L 155.402189 272.700988 
L 155.924624 272.700988 
L 155.924624 272.346353 
L 156.065535 272.346353 
L 156.065535 271.991718 
L 156.274942 271.991718 
L 156.274942 271.637082 
L 157.269574 271.637082 
L 157.269574 271.282447 
L 157.447441 271.282447 
L 157.447441 270.927812 
L 157.953034 270.927812 
L 157.953034 270.573176 
L 158.717331 270.573176 
L 158.717331 270.218541 
L 158.864805 270.218541 
L 158.91658 269.509271 
L 159.15633 269.509271 
L 159.24122 268.8 
L 159.560352 268.8 
L 159.560352 268.090729 
L 161.78066 268.090729 
L 161.78066 267.736094 
L 162.306075 267.736094 
L 162.306075 267.381459 
L 163.585698 267.381459 
L 163.585698 267.026824 
L 164.612692 267.026824 
L 164.612692 266.672188 
L 164.764859 266.672188 
L 164.764859 265.962918 
L 164.878182 265.962918 
L 164.878182 265.608282 
L 165.51383 265.608282 
L 165.51383 265.253647 
L 165.850619 265.253647 
L 165.850619 264.899012 
L 170.00055 264.899012 
L 170.00055 264.544376 
L 171.136775 264.544376 
L 171.136775 264.189741 
L 172.242242 264.189741 
L 172.242242 263.835106 
L 173.10076 263.835106 
L 173.10076 263.480471 
L 174.122542 263.480471 
L 174.122542 263.125835 
L 174.923154 263.125835 
L 174.923154 262.7712 
L 176.782208 262.7712 
L 176.782208 262.416565 
L 178.299472 262.416565 
L 178.299472 262.061929 
L 178.546935 262.061929 
L 178.546935 261.707294 
L 179.958573 261.707294 
L 179.958573 261.352659 
L 181.158383 261.352659 
L 181.158383 260.998024 
L 181.977698 260.998024 
L 181.977698 260.643388 
L 186.814869 260.643388 
L 186.814869 260.288753 
L 195.539398 260.288753 
L 195.539398 259.934118 
L 196.025041 259.934118 
L 196.025041 259.579482 
L 197.061485 259.579482 
L 197.061485 259.224847 
L 197.575063 259.224847 
L 197.632372 258.160941 
L 197.855527 258.160941 
L 197.855527 257.806306 
L 198.344975 257.806306 
L 198.42216 257.097035 
L 198.890064 257.097035 
L 198.908581 256.387765 
L 199.497692 256.387765 
L 199.575261 255.678494 
L 199.662393 255.678494 
L 199.662393 255.323859 
L 199.801167 255.323859 
L 199.892141 254.259953 
L 200.189368 254.259953 
L 200.189368 253.905318 
L 200.380505 253.905318 
L 200.380505 253.550682 
L 201.473906 253.550682 
L 201.473906 253.196047 
L 202.11682 253.196047 
L 202.11682 252.841412 
L 203.35975 252.841412 
L 203.35975 252.486776 
L 203.780281 252.486776 
L 203.780281 252.132141 
L 204.005118 252.132141 
L 204.005118 251.777506 
L 206.005219 251.777506 
L 206.005219 251.422871 
L 207.038221 251.422871 
L 207.038221 251.068235 
L 212.289098 251.068235 
L 212.289098 250.7136 
L 212.589609 250.7136 
L 212.589609 250.358965 
L 213.593355 250.358965 
L 213.593355 250.004329 
L 213.884093 250.004329 
L 213.884093 249.649694 
L 215.020689 249.649694 
L 215.020689 249.295059 
L 215.596865 249.295059 
L 215.596865 248.940424 
L 215.941771 248.940424 
L 216.016462 248.231153 
L 216.071047 248.231153 
L 216.071047 247.876518 
L 216.318406 247.876518 
L 216.318406 247.521882 
L 216.698434 247.521882 
L 216.755459 246.457976 
L 216.936548 246.457976 
L 216.959407 245.748706 
L 217.171686 245.748706 
L 217.178305 245.039435 
L 219.973658 245.039435 
L 219.973658 244.6848 
L 220.686471 244.6848 
L 220.686471 243.975529 
L 227.499023 243.975529 
L 227.499023 243.620894 
L 227.637292 243.620894 
L 227.637292 243.266259 
L 227.872049 243.266259 
L 227.89739 242.202353 
L 227.989433 242.202353 
L 228.033209 241.138447 
L 228.295474 241.138447 
L 228.295474 240.783812 
L 228.526893 240.783812 
L 228.526893 240.429176 
L 228.665447 240.429176 
L 228.665447 240.074541 
L 229.613593 240.074541 
L 229.613593 239.719906 
L 229.797619 239.719906 
L 229.797619 239.365271 
L 229.917663 239.365271 
L 230.022986 238.301365 
L 230.371988 238.301365 
L 230.477876 237.592094 
L 231.126973 237.592094 
L 231.126973 237.237459 
L 231.802253 237.237459 
L 231.846754 236.528188 
L 233.327625 236.528188 
L 233.355983 235.818918 
L 233.454573 235.818918 
L 233.454573 235.464282 
L 233.713526 235.464282 
L 233.713526 235.109647 
L 234.680736 235.109647 
L 234.680736 234.755012 
L 234.955106 234.755012 
L 234.98731 234.045741 
L 235.144811 234.045741 
L 235.144811 233.691106 
L 235.889959 233.691106 
L 235.889959 233.336471 
L 236.9687 233.336471 
L 236.9687 232.981835 
L 237.641233 232.981835 
L 237.641233 232.6272 
L 237.850487 232.6272 
L 237.919897 231.563294 
L 238.153558 231.563294 
L 238.159302 230.854024 
L 238.701715 230.854024 
L 238.701715 230.499388 
L 238.951511 230.499388 
L 238.975967 229.435482 
L 239.097772 229.435482 
L 239.194652 228.726212 
L 239.239531 228.726212 
L 239.239531 228.371576 
L 239.503851 228.371576 
L 239.503851 228.016941 
L 240.816276 228.016941 
L 240.816276 227.662306 
L 241.124018 227.662306 
L 241.160502 226.953035 
L 241.355335 226.953035 
L 241.398358 226.243765 
L 242.530154 226.243765 
L 242.530559 225.534494 
L 242.848833 225.534494 
L 242.948034 224.825224 
L 242.987568 224.825224 
L 243.085158 224.115953 
L 243.105675 224.115953 
L 243.202656 222.697412 
L 243.319425 222.697412 
L 243.320298 221.988141 
L 243.563645 221.988141 
L 243.563645 221.633506 
L 243.718606 221.633506 
L 243.718606 221.278871 
L 244.198855 221.278871 
L 244.309618 209.930541 
L 244.944478 209.930541 
L 244.944478 209.575906 
L 245.134461 209.575906 
L 245.134461 209.221271 
L 245.388706 209.221271 
L 245.396873 208.512 
L 245.70701 208.512 
L 245.809263 207.802729 
L 246.814509 207.802729 
L 246.814509 207.448094 
L 247.338816 207.448094 
L 247.338816 207.093459 
L 247.732803 207.093459 
L 247.732803 206.738824 
L 248.010389 206.738824 
L 248.010389 206.384188 
L 248.493687 206.384188 
L 248.493687 206.029553 
L 248.916386 206.029553 
L 248.916386 205.674918 
L 249.392976 205.674918 
L 249.392976 205.320282 
L 249.554045 205.320282 
L 249.647548 193.971953 
L 249.877308 193.971953 
L 249.877308 193.617318 
L 250.716646 193.617318 
L 250.716646 193.262682 
L 250.83646 193.262682 
L 250.83646 192.908047 
L 251.072539 192.908047 
L 251.177088 184.3968 
L 251.18986 184.3968 
L 251.269301 182.978259 
L 251.309943 182.978259 
L 251.393048 180.495812 
L 251.733138 180.495812 
L 251.771182 177.658729 
L 251.884238 177.658729 
L 251.884238 177.304094 
L 252.058107 177.304094 
L 252.094648 175.885553 
L 252.25628 175.885553 
L 252.318128 175.176282 
L 252.570037 175.176282 
L 252.641092 174.467012 
L 252.693618 174.467012 
L 252.698509 173.757741 
L 253.133921 173.757741 
L 253.190545 171.629929 
L 253.250546 171.629929 
L 253.284845 170.211388 
L 253.538645 170.211388 
L 253.615458 168.792847 
L 253.849133 168.792847 
L 253.849133 168.438212 
L 254.335083 168.438212 
L 254.381098 167.019671 
L 254.650974 167.019671 
L 254.71677 165.955765 
L 254.915775 165.955765 
L 254.998285 155.316706 
L 255.039951 155.316706 
L 255.113216 153.543529 
L 255.252207 153.543529 
L 255.252207 153.188894 
L 255.511476 153.188894 
L 255.552781 151.415718 
L 255.777728 151.415718 
L 255.777728 151.061082 
L 256.044703 151.061082 
L 256.044703 150.706447 
L 256.252077 150.706447 
L 256.252077 150.351812 
L 256.556081 150.351812 
L 256.575845 149.642541 
L 256.682271 149.642541 
L 256.761721 146.450824 
L 256.843012 146.450824 
L 256.843012 145.741553 
L 257.001078 145.741553 
L 257.108814 144.677647 
L 257.369166 144.677647 
L 257.378357 143.968376 
L 257.66596 143.968376 
L 257.771585 143.259106 
L 257.811811 143.259106 
L 257.858759 141.131294 
L 258.084637 141.131294 
L 258.158303 139.003482 
L 258.23133 139.003482 
L 258.257656 137.584941 
L 258.471541 137.584941 
L 258.550273 136.521035 
L 258.712918 136.521035 
L 258.807944 135.811765 
L 259.110718 135.811765 
L 259.110718 135.457129 
L 259.3131 135.457129 
L 259.380217 134.393224 
L 259.507748 134.393224 
L 259.580512 130.492235 
L 259.63764 130.492235 
L 259.63764 130.1376 
L 259.759356 130.1376 
L 259.818891 128.719059 
L 259.893718 128.719059 
L 259.931663 128.009788 
L 260.091432 128.009788 
L 260.17081 126.945882 
L 260.274095 126.945882 
L 260.327273 126.236612 
L 260.560582 126.236612 
L 260.662565 124.1088 
L 260.755399 124.1088 
L 260.78881 123.044894 
L 260.934724 123.044894 
L 260.959502 121.271718 
L 261.145778 121.271718 
L 261.245842 119.143906 
L 261.268795 119.143906 
L 261.3533 118.08 
L 261.386298 118.08 
L 261.485168 116.661459 
L 261.620776 116.661459 
L 261.731807 115.597553 
L 261.740298 115.597553 
L 261.850954 114.179012 
L 261.915751 114.179012 
L 262.019963 113.469741 
L 262.062669 113.469741 
L 262.090048 112.760471 
L 262.218254 112.760471 
L 262.250515 112.0512 
L 262.44328 112.0512 
L 262.520094 110.987294 
L 262.60147 110.987294 
L 262.60147 110.632659 
L 262.922369 110.632659 
L 262.981333 109.923388 
L 263.038346 109.923388 
L 263.132443 109.214118 
L 263.222738 109.214118 
L 263.282448 108.150212 
L 263.446813 108.150212 
L 263.458523 106.377035 
L 263.940282 106.377035 
L 263.940282 106.0224 
L 264.06125 106.0224 
L 264.078279 105.313129 
L 264.259048 105.313129 
L 264.30428 104.603859 
L 264.413899 104.603859 
L 264.413899 104.249224 
L 264.568646 104.249224 
L 264.568897 103.539953 
L 264.734658 103.539953 
L 264.838529 102.121412 
L 264.857926 102.121412 
L 264.916212 101.057506 
L 265.019885 101.057506 
L 265.073736 97.865788 
L 265.190442 97.865788 
L 265.233431 97.156518 
L 265.363284 97.156518 
L 265.426019 96.092612 
L 265.525259 96.092612 
L 265.599688 95.383341 
L 265.773532 95.383341 
L 265.829845 94.319435 
L 266.034035 94.319435 
L 266.034035 93.9648 
L 266.221193 93.9648 
L 266.221193 93.610165 
L 266.392088 93.610165 
L 266.392088 93.255529 
L 266.604087 93.255529 
L 266.604087 92.900894 
L 266.921035 92.900894 
L 266.921035 92.546259 
L 267.049318 92.546259 
L 267.151525 91.127718 
L 267.16147 91.127718 
L 267.229955 90.418447 
L 267.367451 90.418447 
L 267.419869 89.709176 
L 267.624174 89.709176 
L 267.73039 88.645271 
L 267.771578 88.645271 
L 267.881463 87.226729 
L 267.917862 87.226729 
L 268.015809 86.162824 
L 268.145652 86.162824 
L 268.181259 85.453553 
L 268.312153 85.453553 
L 268.401886 84.035012 
L 268.550448 84.035012 
L 268.591475 82.971106 
L 268.705445 82.971106 
L 268.732046 81.552565 
L 268.907751 81.552565 
L 268.907751 81.197929 
L 269.024552 81.197929 
L 269.043986 80.488659 
L 269.316063 80.488659 
L 269.392122 79.424753 
L 269.482994 79.424753 
L 269.555304 78.360847 
L 269.598231 78.360847 
L 269.663359 77.296941 
L 269.736124 77.296941 
L 269.817007 75.169129 
L 269.874811 75.169129 
L 269.975854 74.105224 
L 270.097937 74.105224 
L 270.15952 73.395953 
L 270.275769 73.395953 
L 270.275769 73.041318 
L 270.431654 73.041318 
L 270.475836 72.332047 
L 270.569039 72.332047 
L 270.569404 71.622776 
L 270.766411 71.622776 
L 270.85608 70.913506 
L 270.986846 70.913506 
L 271.069371 69.494965 
L 271.246824 69.494965 
L 271.354202 68.076424 
L 271.545255 68.076424 
L 271.545255 67.721788 
L 271.926811 67.721788 
L 271.986333 66.657882 
L 272.070258 66.657882 
L 272.174912 65.593976 
L 272.312375 65.593976 
L 272.374749 64.530071 
L 272.430541 64.530071 
L 272.430541 64.175435 
L 272.569187 64.175435 
L 272.626939 63.466165 
L 272.689767 63.466165 
L 272.760054 62.402259 
L 272.999396 62.402259 
L 273.095314 60.983718 
L 273.346877 60.983718 
L 273.411034 60.274447 
L 273.527579 60.274447 
L 273.632509 59.565176 
L 273.656097 59.565176 
L 273.757814 58.855906 
L 273.769159 58.855906 
L 273.769159 58.501271 
L 273.901484 58.501271 
L 273.998487 57.792 
L 274.090741 57.792 
L 274.176508 56.728094 
L 274.260144 56.728094 
L 274.260144 56.373459 
L 274.441486 56.373459 
L 274.538907 55.664188 
L 274.662425 55.664188 
L 274.739716 54.600282 
L 274.972623 54.600282 
L 274.972623 54.245647 
L 275.170895 54.245647 
L 275.237651 52.472471 
L 275.286197 52.472471 
L 275.286197 52.117835 
L 275.459608 52.117835 
L 275.551385 51.053929 
L 275.642176 51.053929 
L 275.642176 50.699294 
L 275.858889 50.699294 
L 275.858889 50.344659 
L 276.351122 50.344659 
L 276.434673 49.280753 
L 276.652508 49.280753 
L 276.761068 47.862212 
L 276.895105 47.862212 
L 276.930171 47.152941 
L 277.113061 47.152941 
L 277.208615 46.443671 
L 277.77422 46.443671 
L 277.836125 45.7344 
L 278.101981 45.7344 
L 278.176723 45.025129 
L 278.55828 45.025129 
L 278.618597 44.315859 
L 278.794747 44.315859 
L 278.794747 43.961224 
L 278.906492 43.961224 
L 279.017418 43.251953 
L 279.113013 43.251953 
L 279.130166 42.188047 
L 279.313139 42.188047 
L 279.399069 40.769506 
L 279.703163 40.769506 
L 279.777321 40.060235 
L 280.459972 40.060235 
L 280.459972 39.7056 
L 280.929429 39.7056 
L 280.960408 38.996329 
L 281.10063 38.996329 
L 281.143762 38.287059 
L 281.590726 38.287059 
L 281.590726 37.932424 
L 281.837709 37.932424 
L 281.912482 36.868518 
L 282.001384 36.868518 
L 282.088349 36.159247 
L 282.232897 36.159247 
L 282.232897 35.804612 
L 282.467516 35.804612 
L 282.532812 34.740706 
L 282.745847 34.740706 
L 282.822188 34.031435 
L 283.009031 34.031435 
L 283.009031 33.6768 
L 283.568385 33.6768 
L 283.582401 32.967529 
L 284.352045 32.967529 
L 284.352045 32.612894 
L 284.581747 32.612894 
L 284.581747 32.258259 
L 284.761799 32.258259 
L 284.839694 31.548988 
L 285.237046 31.548988 
L 285.237046 31.194353 
L 285.412992 31.194353 
L 285.417298 30.485082 
L 286.321853 30.485082 
L 286.321853 30.130447 
L 286.524492 30.130447 
L 286.524492 29.775812 
L 286.6835 29.775812 
L 286.779246 29.066541 
L 287.723658 29.066541 
L 287.723658 28.711906 
L 288.077462 28.711906 
L 288.13577 28.002635 
L 290.028709 28.002635 
L 290.028709 27.648 
L 360.8064 27.648 
L 360.8064 27.648 
" style="fill: none; stroke: #6495ed; stroke-width: 1.5; stroke-linecap: square"/>
   </g>
   <g id="line2d_51">
    <defs>
     <path id="mfd7b903afd" d="M -0 6 
L 6 -6 
L -6 -6 
z
" style="stroke: #6495ed; stroke-width: 1.5; stroke-linejoin: miter"/>
    </defs>
    <g>
     <use xlink:href="#mfd7b903afd" x="164.764859" y="266.672188" style="fill-opacity: 0; stroke: #6495ed; stroke-width: 1.5; stroke-linejoin: miter"/>
     <use xlink:href="#mfd7b903afd" x="249.574717" y="204.611012" style="fill-opacity: 0; stroke: #6495ed; stroke-width: 1.5; stroke-linejoin: miter"/>
     <use xlink:href="#mfd7b903afd" x="288.13577" y="28.357271" style="fill-opacity: 0; stroke: #6495ed; stroke-width: 1.5; stroke-linejoin: miter"/>
     <use xlink:href="#mfd7b903afd" x="290.028709" y="27.648" style="fill-opacity: 0; stroke: #6495ed; stroke-width: 1.5; stroke-linejoin: miter"/>
     <use xlink:href="#mfd7b903afd" x="360.8064" y="27.648" style="fill-opacity: 0; stroke: #6495ed; stroke-width: 1.5; stroke-linejoin: miter"/>
    </g>
   </g>
   <g id="line2d_52">
    <path style="fill: none; stroke: #6495ed; stroke-width: 1.5; stroke-linecap: square"/>
    <g/>
   </g>
   <g id="line2d_53">
    <path d="M 234.98731 234.045741 
" clip-path="url(#p9779b1b74a)" style="fill: none; stroke: #6495ed; stroke-width: 1.5; stroke-linecap: square"/>
    <defs>
     <path id="m37e2d9b5d5" d="M -12 12 
L 12 -12 
M -12 -12 
L 12 12 
" style="stroke: #6495ed"/>
    </defs>
    <g clip-path="url(#p9779b1b74a)">
     <use xlink:href="#m37e2d9b5d5" x="234.98731" y="234.045741" style="fill: #6495ed; stroke: #6495ed"/>
    </g>
   </g>
   <g id="line2d_54">
    <path d="M 360.8064 245.748706 
L 380.514816 293.51808 
" style="fill: none; stroke: #000080; stroke-width: 1.5; stroke-linecap: square"/>
    <g>
     <use xlink:href="#macdcef175d" x="360.8064" y="245.748706" style="fill-opacity: 0; stroke: #000080; stroke-width: 1.5"/>
     <use xlink:href="#macdcef175d" x="380.514816" y="293.51808" style="fill-opacity: 0; stroke: #000080; stroke-width: 1.5"/>
    </g>
   </g>
   <g id="line2d_55">
    <path d="M 360.8064 235.109647 
L 380.514816 228.40704 
" style="fill: none; stroke: #ff7500; stroke-width: 1.5; stroke-linecap: square"/>
    <g>
     <use xlink:href="#me5e2b84d55" x="360.8064" y="235.109647" style="fill-opacity: 0; stroke: #ff7500; stroke-width: 1.5; stroke-linejoin: bevel"/>
     <use xlink:href="#me5e2b84d55" x="380.514816" y="228.40704" style="fill-opacity: 0; stroke: #ff7500; stroke-width: 1.5; stroke-linejoin: bevel"/>
    </g>
   </g>
   <g id="line2d_56">
    <path d="M 360.8064 70.204235 
L 380.514816 163.296 
" style="fill: none; stroke: #ff00ff; stroke-width: 1.5; stroke-linecap: square"/>
    <g>
     <use xlink:href="#m0b5220f66c" x="360.8064" y="70.204235" style="fill-opacity: 0; stroke: #ff00ff; stroke-width: 1.5; stroke-linejoin: miter"/>
     <use xlink:href="#m0b5220f66c" x="380.514816" y="163.296" style="fill-opacity: 0; stroke: #ff00ff; stroke-width: 1.5; stroke-linejoin: miter"/>
    </g>
   </g>
   <g id="line2d_57">
    <path d="M 360.8064 27.648 
L 380.514816 98.18496 
" style="fill: none; stroke: #6495ed; stroke-width: 1.5; stroke-linecap: square"/>
    <g>
     <use xlink:href="#mfd7b903afd" x="360.8064" y="27.648" style="fill-opacity: 0; stroke: #6495ed; stroke-width: 1.5; stroke-linejoin: miter"/>
     <use xlink:href="#mfd7b903afd" x="380.514816" y="98.18496" style="fill-opacity: 0; stroke: #6495ed; stroke-width: 1.5; stroke-linejoin: miter"/>
    </g>
   </g>
   <g id="line2d_58">
    <path d="M 360.8064 298.944 
L 360.8064 27.648 
" style="fill: none; stroke: #000000; stroke-width: 1.5; stroke-linecap: square"/>
   </g>
   <g id="patch_3">
    <path d="M 57.6 298.944 
L 360.8064 298.944 
" style="fill: none; stroke: #000000; stroke-width: 0.8; stroke-linejoin: miter; stroke-linecap: square"/>
   </g>
   <g id="patch_4">
    <path d="M 57.6 27.648 
L 360.8064 27.648 
" style="fill: none; stroke: #000000; stroke-width: 0.8; stroke-linejoin: miter; stroke-linecap: square"/>
   </g>
   <g id="text_13">
    <!-- LCGA -->
    <g transform="translate(386.578944 297.381205)scale(0.14 -0.14)">
     <defs>
      <path id="DejaVuSans-4c" d="M 628 4666 
L 1259 4666 
L 1259 531 
L 3531 531 
L 3531 0 
L 628 0 
L 628 4666 
z
" transform="scale(0.015625)"/>
      <path id="DejaVuSans-43" d="M 4122 4306 
L 4122 3641 
Q 3803 3938 3442 4084 
Q 3081 4231 2675 4231 
Q 1875 4231 1450 3742 
Q 1025 3253 1025 2328 
Q 1025 1406 1450 917 
Q 1875 428 2675 428 
Q 3081 428 3442 575 
Q 3803 722 4122 1019 
L 4122 359 
Q 3791 134 3420 21 
Q 3050 -91 2638 -91 
Q 1578 -91 968 557 
Q 359 1206 359 2328 
Q 359 3453 968 4101 
Q 1578 4750 2638 4750 
Q 3056 4750 3426 4639 
Q 3797 4528 4122 4306 
z
" transform="scale(0.015625)"/>
      <path id="DejaVuSans-47" d="M 3809 666 
L 3809 1919 
L 2778 1919 
L 2778 2438 
L 4434 2438 
L 4434 434 
Q 4069 175 3628 42 
Q 3188 -91 2688 -91 
Q 1594 -91 976 548 
Q 359 1188 359 2328 
Q 359 3472 976 4111 
Q 1594 4750 2688 4750 
Q 3144 4750 3555 4637 
Q 3966 4525 4313 4306 
L 4313 3634 
Q 3963 3931 3569 4081 
Q 3175 4231 2741 4231 
Q 1884 4231 1454 3753 
Q 1025 3275 1025 2328 
Q 1025 1384 1454 906 
Q 1884 428 2741 428 
Q 3075 428 3337 486 
Q 3600 544 3809 666 
z
" transform="scale(0.015625)"/>
      <path id="DejaVuSans-41" d="M 2188 4044 
L 1331 1722 
L 3047 1722 
L 2188 4044 
z
M 1831 4666 
L 2547 4666 
L 4325 0 
L 3669 0 
L 3244 1197 
L 1141 1197 
L 716 0 
L 50 0 
L 1831 4666 
z
" transform="scale(0.015625)"/>
     </defs>
     <use xlink:href="#DejaVuSans-4c"/>
     <use xlink:href="#DejaVuSans-43" x="55.712891"/>
     <use xlink:href="#DejaVuSans-47" x="125.537109"/>
     <use xlink:href="#DejaVuSans-41" x="203.027344"/>
    </g>
   </g>
   <g id="text_14">
    <!-- PSO -->
    <g transform="translate(386.578944 232.270165)scale(0.14 -0.14)">
     <defs>
      <path id="DejaVuSans-50" d="M 1259 4147 
L 1259 2394 
L 2053 2394 
Q 2494 2394 2734 2622 
Q 2975 2850 2975 3272 
Q 2975 3691 2734 3919 
Q 2494 4147 2053 4147 
L 1259 4147 
z
M 628 4666 
L 2053 4666 
Q 2838 4666 3239 4311 
Q 3641 3956 3641 3272 
Q 3641 2581 3239 2228 
Q 2838 1875 2053 1875 
L 1259 1875 
L 1259 0 
L 628 0 
L 628 4666 
z
" transform="scale(0.015625)"/>
      <path id="DejaVuSans-53" d="M 3425 4513 
L 3425 3897 
Q 3066 4069 2747 4153 
Q 2428 4238 2131 4238 
Q 1616 4238 1336 4038 
Q 1056 3838 1056 3469 
Q 1056 3159 1242 3001 
Q 1428 2844 1947 2747 
L 2328 2669 
Q 3034 2534 3370 2195 
Q 3706 1856 3706 1288 
Q 3706 609 3251 259 
Q 2797 -91 1919 -91 
Q 1588 -91 1214 -16 
Q 841 59 441 206 
L 441 856 
Q 825 641 1194 531 
Q 1563 422 1919 422 
Q 2459 422 2753 634 
Q 3047 847 3047 1241 
Q 3047 1584 2836 1778 
Q 2625 1972 2144 2069 
L 1759 2144 
Q 1053 2284 737 2584 
Q 422 2884 422 3419 
Q 422 4038 858 4394 
Q 1294 4750 2059 4750 
Q 2388 4750 2728 4690 
Q 3069 4631 3425 4513 
z
" transform="scale(0.015625)"/>
      <path id="DejaVuSans-4f" d="M 2522 4238 
Q 1834 4238 1429 3725 
Q 1025 3213 1025 2328 
Q 1025 1447 1429 934 
Q 1834 422 2522 422 
Q 3209 422 3611 934 
Q 4013 1447 4013 2328 
Q 4013 3213 3611 3725 
Q 3209 4238 2522 4238 
z
M 2522 4750 
Q 3503 4750 4090 4092 
Q 4678 3434 4678 2328 
Q 4678 1225 4090 567 
Q 3503 -91 2522 -91 
Q 1538 -91 948 565 
Q 359 1222 359 2328 
Q 359 3434 948 4092 
Q 1538 4750 2522 4750 
z
" transform="scale(0.015625)"/>
     </defs>
     <use xlink:href="#DejaVuSans-50"/>
     <use xlink:href="#DejaVuSans-53" x="60.302734"/>
     <use xlink:href="#DejaVuSans-4f" x="123.779297"/>
    </g>
   </g>
   <g id="text_15">
    <!-- GA -->
    <g transform="translate(386.578944 167.159125)scale(0.14 -0.14)">
     <use xlink:href="#DejaVuSans-47"/>
     <use xlink:href="#DejaVuSans-41" x="77.490234"/>
    </g>
   </g>
   <g id="text_16">
    <!-- EvoSpace- -->
    <g transform="translate(386.578944 102.048085)scale(0.14 -0.14)">
     <defs>
      <path id="DejaVuSans-45" d="M 628 4666 
L 3578 4666 
L 3578 4134 
L 1259 4134 
L 1259 2753 
L 3481 2753 
L 3481 2222 
L 1259 2222 
L 1259 531 
L 3634 531 
L 3634 0 
L 628 0 
L 628 4666 
z
" transform="scale(0.015625)"/>
     </defs>
     <use xlink:href="#DejaVuSans-45"/>
     <use xlink:href="#DejaVuSans-76" x="63.183594"/>
     <use xlink:href="#DejaVuSans-6f" x="122.363281"/>
     <use xlink:href="#DejaVuSans-53" x="183.544922"/>
     <use xlink:href="#DejaVuSans-70" x="247.021484"/>
     <use xlink:href="#DejaVuSans-61" x="310.498047"/>
     <use xlink:href="#DejaVuSans-63" x="371.777344"/>
     <use xlink:href="#DejaVuSans-65" x="426.757812"/>
     <use xlink:href="#DejaVuSans-2d" x="488.28125"/>
    </g>
   </g>
   <g id="text_17">
    <!-- best 2009 -->
    <g transform="translate(386.578944 36.937045)scale(0.14 -0.14)">
     <defs>
      <path id="DejaVuSans-62" d="M 3116 1747 
Q 3116 2381 2855 2742 
Q 2594 3103 2138 3103 
Q 1681 3103 1420 2742 
Q 1159 2381 1159 1747 
Q 1159 1113 1420 752 
Q 1681 391 2138 391 
Q 2594 391 2855 752 
Q 3116 1113 3116 1747 
z
M 1159 2969 
Q 1341 3281 1617 3432 
Q 1894 3584 2278 3584 
Q 2916 3584 3314 3078 
Q 3713 2572 3713 1747 
Q 3713 922 3314 415 
Q 2916 -91 2278 -91 
Q 1894 -91 1617 61 
Q 1341 213 1159 525 
L 1159 0 
L 581 0 
L 581 4863 
L 1159 4863 
L 1159 2969 
z
" transform="scale(0.015625)"/>
      <path id="DejaVuSans-39" d="M 703 97 
L 703 672 
Q 941 559 1184 500 
Q 1428 441 1663 441 
Q 2288 441 2617 861 
Q 2947 1281 2994 2138 
Q 2813 1869 2534 1725 
Q 2256 1581 1919 1581 
Q 1219 1581 811 2004 
Q 403 2428 403 3163 
Q 403 3881 828 4315 
Q 1253 4750 1959 4750 
Q 2769 4750 3195 4129 
Q 3622 3509 3622 2328 
Q 3622 1225 3098 567 
Q 2575 -91 1691 -91 
Q 1453 -91 1209 -44 
Q 966 3 703 97 
z
M 1959 2075 
Q 2384 2075 2632 2365 
Q 2881 2656 2881 3163 
Q 2881 3666 2632 3958 
Q 2384 4250 1959 4250 
Q 1534 4250 1286 3958 
Q 1038 3666 1038 3163 
Q 1038 2656 1286 2365 
Q 1534 2075 1959 2075 
z
" transform="scale(0.015625)"/>
     </defs>
     <use xlink:href="#DejaVuSans-62"/>
     <use xlink:href="#DejaVuSans-65" x="63.476562"/>
     <use xlink:href="#DejaVuSans-73" x="125"/>
     <use xlink:href="#DejaVuSans-74" x="177.099609"/>
     <use xlink:href="#DejaVuSans-20" x="216.308594"/>
     <use xlink:href="#DejaVuSans-32" x="248.095703"/>
     <use xlink:href="#DejaVuSans-30" x="311.71875"/>
     <use xlink:href="#DejaVuSans-30" x="375.341797"/>
     <use xlink:href="#DejaVuSans-39" x="438.964844"/>
    </g>
   </g>
   <g id="text_18">
    <!-- bbob f7, 10-D -->
    <g transform="translate(60.632064 38.111366)scale(0.102 -0.102)">
     <defs>
      <path id="DejaVuSans-37" d="M 525 4666 
L 3525 4666 
L 3525 4397 
L 1831 0 
L 1172 0 
L 2766 4134 
L 525 4134 
L 525 4666 
z
" transform="scale(0.015625)"/>
      <path id="DejaVuSans-44" d="M 1259 4147 
L 1259 519 
L 2022 519 
Q 2988 519 3436 956 
Q 3884 1394 3884 2338 
Q 3884 3275 3436 3711 
Q 2988 4147 2022 4147 
L 1259 4147 
z
M 628 4666 
L 1925 4666 
Q 3281 4666 3915 4102 
Q 4550 3538 4550 2338 
Q 4550 1131 3912 565 
Q 3275 0 1925 0 
L 628 0 
L 628 4666 
z
" transform="scale(0.015625)"/>
     </defs>
     <use xlink:href="#DejaVuSans-62"/>
     <use xlink:href="#DejaVuSans-62" x="63.476562"/>
     <use xlink:href="#DejaVuSans-6f" x="126.953125"/>
     <use xlink:href="#DejaVuSans-62" x="188.134766"/>
     <use xlink:href="#DejaVuSans-20" x="251.611328"/>
     <use xlink:href="#DejaVuSans-66" x="283.398438"/>
     <use xlink:href="#DejaVuSans-37" x="318.603516"/>
     <use xlink:href="#DejaVuSans-2c" x="382.226562"/>
     <use xlink:href="#DejaVuSans-20" x="414.013672"/>
     <use xlink:href="#DejaVuSans-31" x="445.800781"/>
     <use xlink:href="#DejaVuSans-30" x="509.423828"/>
     <use xlink:href="#DejaVuSans-2d" x="573.046875"/>
     <use xlink:href="#DejaVuSans-44" x="609.130859"/>
    </g>
    <!-- 51 targets: 100..1e-08 -->
    <g transform="translate(60.632064 49.533135)scale(0.102 -0.102)">
     <defs>
      <path id="DejaVuSans-35" d="M 691 4666 
L 3169 4666 
L 3169 4134 
L 1269 4134 
L 1269 2991 
Q 1406 3038 1543 3061 
Q 1681 3084 1819 3084 
Q 2600 3084 3056 2656 
Q 3513 2228 3513 1497 
Q 3513 744 3044 326 
Q 2575 -91 1722 -91 
Q 1428 -91 1123 -41 
Q 819 9 494 109 
L 494 744 
Q 775 591 1075 516 
Q 1375 441 1709 441 
Q 2250 441 2565 725 
Q 2881 1009 2881 1497 
Q 2881 1984 2565 2268 
Q 2250 2553 1709 2553 
Q 1456 2553 1204 2497 
Q 953 2441 691 2322 
L 691 4666 
z
" transform="scale(0.015625)"/>
      <path id="DejaVuSans-3a" d="M 750 794 
L 1409 794 
L 1409 0 
L 750 0 
L 750 794 
z
M 750 3309 
L 1409 3309 
L 1409 2516 
L 750 2516 
L 750 3309 
z
" transform="scale(0.015625)"/>
     </defs>
     <use xlink:href="#DejaVuSans-35"/>
     <use xlink:href="#DejaVuSans-31" x="63.623047"/>
     <use xlink:href="#DejaVuSans-20" x="127.246094"/>
     <use xlink:href="#DejaVuSans-74" x="159.033203"/>
     <use xlink:href="#DejaVuSans-61" x="198.242188"/>
     <use xlink:href="#DejaVuSans-72" x="259.521484"/>
     <use xlink:href="#DejaVuSans-67" x="298.884766"/>
     <use xlink:href="#DejaVuSans-65" x="362.361328"/>
     <use xlink:href="#DejaVuSans-74" x="423.884766"/>
     <use xlink:href="#DejaVuSans-73" x="463.09375"/>
     <use xlink:href="#DejaVuSans-3a" x="515.193359"/>
     <use xlink:href="#DejaVuSans-20" x="548.884766"/>
     <use xlink:href="#DejaVuSans-31" x="580.671875"/>
     <use xlink:href="#DejaVuSans-30" x="644.294922"/>
     <use xlink:href="#DejaVuSans-30" x="707.917969"/>
     <use xlink:href="#DejaVuSans-2e" x="771.541016"/>
     <use xlink:href="#DejaVuSans-2e" x="803.328125"/>
     <use xlink:href="#DejaVuSans-31" x="835.115234"/>
     <use xlink:href="#DejaVuSans-65" x="898.738281"/>
     <use xlink:href="#DejaVuSans-2d" x="960.261719"/>
     <use xlink:href="#DejaVuSans-30" x="996.345703"/>
     <use xlink:href="#DejaVuSans-38" x="1059.96875"/>
    </g>
    <!-- 15 instances -->
    <g transform="translate(60.632064 60.954904)scale(0.102 -0.102)">
     <use xlink:href="#DejaVuSans-31"/>
     <use xlink:href="#DejaVuSans-35" x="63.623047"/>
     <use xlink:href="#DejaVuSans-20" x="127.246094"/>
     <use xlink:href="#DejaVuSans-69" x="159.033203"/>
     <use xlink:href="#DejaVuSans-6e" x="186.816406"/>
     <use xlink:href="#DejaVuSans-73" x="250.195312"/>
     <use xlink:href="#DejaVuSans-74" x="302.294922"/>
     <use xlink:href="#DejaVuSans-61" x="341.503906"/>
     <use xlink:href="#DejaVuSans-6e" x="402.783203"/>
     <use xlink:href="#DejaVuSans-63" x="466.162109"/>
     <use xlink:href="#DejaVuSans-65" x="521.142578"/>
     <use xlink:href="#DejaVuSans-73" x="582.666016"/>
    </g>
   </g>
   <g id="text_19">
    <!-- v2.6 -->
    <g style="fill: #808080" transform="translate(198.292262 294.151352)scale(0.1 -0.1)">
     <use xlink:href="#DejaVuSans-76"/>
     <use xlink:href="#DejaVuSans-32" x="59.179688"/>
     <use xlink:href="#DejaVuSans-2e" x="122.802734"/>
     <use xlink:href="#DejaVuSans-36" x="154.589844"/>
    </g>
   </g>
   <g id="text_20">
    <!-- 7 Step-ellipsoid -->
    <g transform="translate(131.993825 21.648)scale(0.2 -0.2)">
     <use xlink:href="#DejaVuSans-37"/>
     <use xlink:href="#DejaVuSans-20" x="63.623047"/>
     <use xlink:href="#DejaVuSans-53" x="95.410156"/>
     <use xlink:href="#DejaVuSans-74" x="158.886719"/>
     <use xlink:href="#DejaVuSans-65" x="198.095703"/>
     <use xlink:href="#DejaVuSans-70" x="259.619141"/>
     <use xlink:href="#DejaVuSans-2d" x="323.095703"/>
     <use xlink:href="#DejaVuSans-65" x="359.179688"/>
     <use xlink:href="#DejaVuSans-6c" x="420.703125"/>
     <use xlink:href="#DejaVuSans-6c" x="448.486328"/>
     <use xlink:href="#DejaVuSans-69" x="476.269531"/>
     <use xlink:href="#DejaVuSans-70" x="504.052734"/>
     <use xlink:href="#DejaVuSans-73" x="567.529297"/>
     <use xlink:href="#DejaVuSans-6f" x="619.628906"/>
     <use xlink:href="#DejaVuSans-69" x="680.810547"/>
     <use xlink:href="#DejaVuSans-64" x="708.59375"/>
    </g>
   </g>
  </g>
 </g>
 <defs>
  <clipPath id="p9779b1b74a">
   <rect x="57.6" y="27.648" width="303.2064" height="271.296"/>
  </clipPath>
 </defs>
</svg>
