<?xml version="1.0" encoding="utf-8" standalone="no"?>
<!DOCTYPE svg PUBLIC "-//W3C//DTD SVG 1.1//EN"
  "http://www.w3.org/Graphics/SVG/1.1/DTD/svg11.dtd">
<svg xmlns:xlink="http://www.w3.org/1999/xlink" width="460.8pt" height="345.6pt" viewBox="0 0 460.8 345.6" xmlns="http://www.w3.org/2000/svg" version="1.1">
 <metadata>
  <rdf:RDF xmlns:dc="http://purl.org/dc/elements/1.1/" xmlns:cc="http://creativecommons.org/ns#" xmlns:rdf="http://www.w3.org/1999/02/22-rdf-syntax-ns#">
   <cc:Work>
    <dc:type rdf:resource="http://purl.org/dc/dcmitype/StillImage"/>
    <dc:date>2024-05-29T08:12:05.306053</dc:date>
    <dc:format>image/svg+xml</dc:format>
    <dc:creator>
     <cc:Agent>
      <dc:title>Matplotlib v3.5.1, https://matplotlib.org/</dc:title>
     </cc:Agent>
    </dc:creator>
   </cc:Work>
  </rdf:RDF>
 </metadata>
 <defs>
  <style type="text/css">*{stroke-linejoin: round; stroke-linecap: butt}</style>
 </defs>
 <g id="figure_1">
  <g id="patch_1">
   <path d="M 0 345.6 
L 460.8 345.6 
L 460.8 0 
L 0 0 
z
" style="fill: #ffffff"/>
  </g>
  <g id="axes_1">
   <g id="patch_2">
    <path d="M 57.6 298.944 
L 360.8064 298.944 
L 360.8064 27.648 
L 57.6 27.648 
z
" style="fill: #ffffff"/>
   </g>
   <g id="line2d_1">
    <path d="M 98.510456 298.944 
L 98.510456 293.624471 
L 101.653002 293.624471 
L 101.653002 288.304941 
L 103.707211 288.304941 
L 103.707211 282.985412 
L 112.589207 282.985412 
L 112.589207 277.665882 
L 116.253478 277.665882 
L 116.253478 272.346353 
L 119.177058 272.346353 
L 119.177058 267.026824 
L 120.944062 267.026824 
L 120.944062 261.707294 
L 122.677931 261.707294 
L 122.677931 256.387765 
L 124.156336 256.387765 
L 124.156336 251.068235 
L 125.322496 251.068235 
L 125.322496 245.748706 
L 126.517282 245.748706 
L 126.517282 240.429176 
L 127.821575 240.429176 
L 127.821575 235.109647 
L 128.700779 235.109647 
L 128.700779 229.790118 
L 129.54072 229.790118 
L 129.54072 224.470588 
L 130.265881 224.470588 
L 130.265881 219.151059 
L 131.191226 219.151059 
L 131.191226 213.831529 
L 132.216233 213.831529 
L 132.216233 208.512 
L 133.05244 208.512 
L 133.05244 203.192471 
L 134.240933 203.192471 
L 134.240933 197.872941 
L 134.931919 197.872941 
L 134.931919 192.553412 
L 135.776169 192.553412 
L 135.776169 187.233882 
L 136.356818 187.233882 
L 136.356818 181.914353 
L 137.030737 181.914353 
L 137.030737 176.594824 
L 141.523975 176.594824 
L 141.523975 171.275294 
L 155.904407 171.275294 
L 155.904407 165.955765 
L 162.349204 165.955765 
L 162.349204 160.636235 
L 162.956765 160.636235 
L 162.956765 155.316706 
L 163.666204 155.316706 
L 163.666204 149.997176 
L 164.168227 149.997176 
L 164.168227 144.677647 
L 164.682588 144.677647 
L 164.682588 139.358118 
L 165.183257 139.358118 
L 165.183257 134.038588 
L 165.695002 134.038588 
L 165.695002 128.719059 
L 166.251633 128.719059 
L 166.251633 123.399529 
L 166.758217 123.399529 
L 166.758217 118.08 
L 167.229371 118.08 
L 167.229371 112.760471 
L 167.818303 112.760471 
L 167.818303 107.440941 
L 168.3163 107.440941 
L 168.3163 102.121412 
L 168.903083 102.121412 
L 168.903083 96.801882 
L 169.363634 96.801882 
L 169.363634 91.482353 
L 170.043526 91.482353 
L 170.043526 86.162824 
L 170.374474 86.162824 
L 170.374474 80.843294 
L 170.828233 80.843294 
L 170.828233 75.523765 
L 171.190702 75.523765 
L 171.190702 70.204235 
L 171.67796 70.204235 
L 171.67796 64.884706 
L 172.118775 64.884706 
L 172.118775 59.565176 
L 172.566188 59.565176 
L 172.566188 54.245647 
L 172.814802 54.245647 
L 172.814802 48.926118 
L 173.10076 48.926118 
L 173.10076 43.606588 
L 173.50981 43.606588 
L 173.50981 38.287059 
L 174.010854 38.287059 
L 174.010854 32.967529 
L 174.324962 32.967529 
L 174.324962 27.648 
L 360.8064 27.648 
" style="fill: none; stroke: #f5deb3; stroke-width: 4; stroke-linecap: square"/>
   </g>
   <g id="line2d_2">
    <defs>
     <path id="ma489af221b" d="M 0 7.778175 
L 7.778175 0 
L 0 -7.778175 
L -7.778175 0 
z
" style="stroke: #f5deb3; stroke-width: 1.5; stroke-linejoin: miter"/>
    </defs>
    <g>
     <use xlink:href="#ma489af221b" x="124.156336" y="256.387765" style="fill: #f5deb3; stroke: #f5deb3; stroke-width: 1.5; stroke-linejoin: miter"/>
     <use xlink:href="#ma489af221b" x="166.758217" y="123.399529" style="fill: #f5deb3; stroke: #f5deb3; stroke-width: 1.5; stroke-linejoin: miter"/>
     <use xlink:href="#ma489af221b" x="174.324962" y="32.967529" style="fill: #f5deb3; stroke: #f5deb3; stroke-width: 1.5; stroke-linejoin: miter"/>
     <use xlink:href="#ma489af221b" x="174.324962" y="27.648" style="fill: #f5deb3; stroke: #f5deb3; stroke-width: 1.5; stroke-linejoin: miter"/>
     <use xlink:href="#ma489af221b" x="360.8064" y="27.648" style="fill: #f5deb3; stroke: #f5deb3; stroke-width: 1.5; stroke-linejoin: miter"/>
    </g>
   </g>
   <g id="line2d_3">
    <path style="fill: none; stroke: #f5deb3; stroke-width: 4; stroke-linecap: square"/>
    <g/>
   </g>
   <g id="line2d_4">
    <path d="M 360.8064 27.648 
L 380.514816 33.07392 
" style="fill: none; stroke: #f5deb3; stroke-width: 4; stroke-linecap: square"/>
    <g>
     <use xlink:href="#ma489af221b" x="360.8064" y="27.648" style="fill: #f5deb3; stroke: #f5deb3; stroke-width: 1.5; stroke-linejoin: miter"/>
     <use xlink:href="#ma489af221b" x="380.514816" y="33.07392" style="fill: #f5deb3; stroke: #f5deb3; stroke-width: 1.5; stroke-linejoin: miter"/>
    </g>
   </g>
   <g id="matplotlib.axis_1">
    <g id="xtick_1">
     <g id="line2d_5">
      <path d="M 57.6 298.944 
L 57.6 27.648 
" clip-path="url(#p9b5016dbeb)" style="fill: none; stroke: #b0b0b0; stroke-width: 0.8; stroke-linecap: square"/>
     </g>
     <g id="line2d_6">
      <defs>
       <path id="m70a472102d" d="M 0 0 
L 0 3.5 
" style="stroke: #000000; stroke-width: 0.8"/>
      </defs>
      <g>
       <use xlink:href="#m70a472102d" x="57.6" y="298.944" style="stroke: #000000; stroke-width: 0.8"/>
      </g>
     </g>
     <g id="text_1">
      <!-- 0 -->
      <g transform="translate(52.191875 318.861344)scale(0.17 -0.17)">
       <defs>
        <path id="DejaVuSans-30" d="M 2034 4250 
Q 1547 4250 1301 3770 
Q 1056 3291 1056 2328 
Q 1056 1369 1301 889 
Q 1547 409 2034 409 
Q 2525 409 2770 889 
Q 3016 1369 3016 2328 
Q 3016 3291 2770 3770 
Q 2525 4250 2034 4250 
z
M 2034 4750 
Q 2819 4750 3233 4129 
Q 3647 3509 3647 2328 
Q 3647 1150 3233 529 
Q 2819 -91 2034 -91 
Q 1250 -91 836 529 
Q 422 1150 422 2328 
Q 422 3509 836 4129 
Q 1250 4750 2034 4750 
z
" transform="scale(0.015625)"/>
       </defs>
       <use xlink:href="#DejaVuSans-30"/>
      </g>
     </g>
    </g>
    <g id="xtick_2">
     <g id="line2d_7">
      <path d="M 144.2304 298.944 
L 144.2304 27.648 
" clip-path="url(#p9b5016dbeb)" style="fill: none; stroke: #b0b0b0; stroke-width: 0.8; stroke-linecap: square"/>
     </g>
     <g id="line2d_8">
      <g>
       <use xlink:href="#m70a472102d" x="144.2304" y="298.944" style="stroke: #000000; stroke-width: 0.8"/>
      </g>
     </g>
     <g id="text_2">
      <!-- 2 -->
      <g transform="translate(138.822275 318.861344)scale(0.17 -0.17)">
       <defs>
        <path id="DejaVuSans-32" d="M 1228 531 
L 3431 531 
L 3431 0 
L 469 0 
L 469 531 
Q 828 903 1448 1529 
Q 2069 2156 2228 2338 
Q 2531 2678 2651 2914 
Q 2772 3150 2772 3378 
Q 2772 3750 2511 3984 
Q 2250 4219 1831 4219 
Q 1534 4219 1204 4116 
Q 875 4013 500 3803 
L 500 4441 
Q 881 4594 1212 4672 
Q 1544 4750 1819 4750 
Q 2544 4750 2975 4387 
Q 3406 4025 3406 3419 
Q 3406 3131 3298 2873 
Q 3191 2616 2906 2266 
Q 2828 2175 2409 1742 
Q 1991 1309 1228 531 
z
" transform="scale(0.015625)"/>
       </defs>
       <use xlink:href="#DejaVuSans-32"/>
      </g>
     </g>
    </g>
    <g id="xtick_3">
     <g id="line2d_9">
      <path d="M 230.8608 298.944 
L 230.8608 27.648 
" clip-path="url(#p9b5016dbeb)" style="fill: none; stroke: #b0b0b0; stroke-width: 0.8; stroke-linecap: square"/>
     </g>
     <g id="line2d_10">
      <g>
       <use xlink:href="#m70a472102d" x="230.8608" y="298.944" style="stroke: #000000; stroke-width: 0.8"/>
      </g>
     </g>
     <g id="text_3">
      <!-- 4 -->
      <g transform="translate(225.452675 318.861344)scale(0.17 -0.17)">
       <defs>
        <path id="DejaVuSans-34" d="M 2419 4116 
L 825 1625 
L 2419 1625 
L 2419 4116 
z
M 2253 4666 
L 3047 4666 
L 3047 1625 
L 3713 1625 
L 3713 1100 
L 3047 1100 
L 3047 0 
L 2419 0 
L 2419 1100 
L 313 1100 
L 313 1709 
L 2253 4666 
z
" transform="scale(0.015625)"/>
       </defs>
       <use xlink:href="#DejaVuSans-34"/>
      </g>
     </g>
    </g>
    <g id="xtick_4">
     <g id="line2d_11">
      <path d="M 317.4912 298.944 
L 317.4912 27.648 
" clip-path="url(#p9b5016dbeb)" style="fill: none; stroke: #b0b0b0; stroke-width: 0.8; stroke-linecap: square"/>
     </g>
     <g id="line2d_12">
      <g>
       <use xlink:href="#m70a472102d" x="317.4912" y="298.944" style="stroke: #000000; stroke-width: 0.8"/>
      </g>
     </g>
     <g id="text_4">
      <!-- 6 -->
      <g transform="translate(312.083075 318.861344)scale(0.17 -0.17)">
       <defs>
        <path id="DejaVuSans-36" d="M 2113 2584 
Q 1688 2584 1439 2293 
Q 1191 2003 1191 1497 
Q 1191 994 1439 701 
Q 1688 409 2113 409 
Q 2538 409 2786 701 
Q 3034 994 3034 1497 
Q 3034 2003 2786 2293 
Q 2538 2584 2113 2584 
z
M 3366 4563 
L 3366 3988 
Q 3128 4100 2886 4159 
Q 2644 4219 2406 4219 
Q 1781 4219 1451 3797 
Q 1122 3375 1075 2522 
Q 1259 2794 1537 2939 
Q 1816 3084 2150 3084 
Q 2853 3084 3261 2657 
Q 3669 2231 3669 1497 
Q 3669 778 3244 343 
Q 2819 -91 2113 -91 
Q 1303 -91 875 529 
Q 447 1150 447 2328 
Q 447 3434 972 4092 
Q 1497 4750 2381 4750 
Q 2619 4750 2861 4703 
Q 3103 4656 3366 4563 
z
" transform="scale(0.015625)"/>
       </defs>
       <use xlink:href="#DejaVuSans-36"/>
      </g>
     </g>
    </g>
    <g id="xtick_5">
     <g id="line2d_13">
      <path d="M 100.9152 298.944 
L 100.9152 27.648 
" clip-path="url(#p9b5016dbeb)" style="fill: none; stroke: #b0b0b0; stroke-width: 0.8; stroke-linecap: square"/>
     </g>
     <g id="line2d_14">
      <defs>
       <path id="me3d9f28e52" d="M 0 0 
L 0 2 
" style="stroke: #000000; stroke-width: 0.6"/>
      </defs>
      <g>
       <use xlink:href="#me3d9f28e52" x="100.9152" y="298.944" style="stroke: #000000; stroke-width: 0.6"/>
      </g>
     </g>
    </g>
    <g id="xtick_6">
     <g id="line2d_15">
      <path d="M 187.5456 298.944 
L 187.5456 27.648 
" clip-path="url(#p9b5016dbeb)" style="fill: none; stroke: #b0b0b0; stroke-width: 0.8; stroke-linecap: square"/>
     </g>
     <g id="line2d_16">
      <g>
       <use xlink:href="#me3d9f28e52" x="187.5456" y="298.944" style="stroke: #000000; stroke-width: 0.6"/>
      </g>
     </g>
    </g>
    <g id="xtick_7">
     <g id="line2d_17">
      <path d="M 274.176 298.944 
L 274.176 27.648 
" clip-path="url(#p9b5016dbeb)" style="fill: none; stroke: #b0b0b0; stroke-width: 0.8; stroke-linecap: square"/>
     </g>
     <g id="line2d_18">
      <g>
       <use xlink:href="#me3d9f28e52" x="274.176" y="298.944" style="stroke: #000000; stroke-width: 0.6"/>
      </g>
     </g>
    </g>
    <g id="xtick_8">
     <g id="line2d_19">
      <path d="M 360.8064 298.944 
L 360.8064 27.648 
" clip-path="url(#p9b5016dbeb)" style="fill: none; stroke: #b0b0b0; stroke-width: 0.8; stroke-linecap: square"/>
     </g>
     <g id="line2d_20">
      <g>
       <use xlink:href="#me3d9f28e52" x="360.8064" y="298.944" style="stroke: #000000; stroke-width: 0.6"/>
      </g>
     </g>
    </g>
    <g id="text_5">
     <!-- log10(# f-evals / dimension) -->
     <g transform="translate(88.823278 339.314156)scale(0.17 -0.17)">
      <defs>
       <path id="DejaVuSans-6c" d="M 603 4863 
L 1178 4863 
L 1178 0 
L 603 0 
L 603 4863 
z
" transform="scale(0.015625)"/>
       <path id="DejaVuSans-6f" d="M 1959 3097 
Q 1497 3097 1228 2736 
Q 959 2375 959 1747 
Q 959 1119 1226 758 
Q 1494 397 1959 397 
Q 2419 397 2687 759 
Q 2956 1122 2956 1747 
Q 2956 2369 2687 2733 
Q 2419 3097 1959 3097 
z
M 1959 3584 
Q 2709 3584 3137 3096 
Q 3566 2609 3566 1747 
Q 3566 888 3137 398 
Q 2709 -91 1959 -91 
Q 1206 -91 779 398 
Q 353 888 353 1747 
Q 353 2609 779 3096 
Q 1206 3584 1959 3584 
z
" transform="scale(0.015625)"/>
       <path id="DejaVuSans-67" d="M 2906 1791 
Q 2906 2416 2648 2759 
Q 2391 3103 1925 3103 
Q 1463 3103 1205 2759 
Q 947 2416 947 1791 
Q 947 1169 1205 825 
Q 1463 481 1925 481 
Q 2391 481 2648 825 
Q 2906 1169 2906 1791 
z
M 3481 434 
Q 3481 -459 3084 -895 
Q 2688 -1331 1869 -1331 
Q 1566 -1331 1297 -1286 
Q 1028 -1241 775 -1147 
L 775 -588 
Q 1028 -725 1275 -790 
Q 1522 -856 1778 -856 
Q 2344 -856 2625 -561 
Q 2906 -266 2906 331 
L 2906 616 
Q 2728 306 2450 153 
Q 2172 0 1784 0 
Q 1141 0 747 490 
Q 353 981 353 1791 
Q 353 2603 747 3093 
Q 1141 3584 1784 3584 
Q 2172 3584 2450 3431 
Q 2728 3278 2906 2969 
L 2906 3500 
L 3481 3500 
L 3481 434 
z
" transform="scale(0.015625)"/>
       <path id="DejaVuSans-31" d="M 794 531 
L 1825 531 
L 1825 4091 
L 703 3866 
L 703 4441 
L 1819 4666 
L 2450 4666 
L 2450 531 
L 3481 531 
L 3481 0 
L 794 0 
L 794 531 
z
" transform="scale(0.015625)"/>
       <path id="DejaVuSans-28" d="M 1984 4856 
Q 1566 4138 1362 3434 
Q 1159 2731 1159 2009 
Q 1159 1288 1364 580 
Q 1569 -128 1984 -844 
L 1484 -844 
Q 1016 -109 783 600 
Q 550 1309 550 2009 
Q 550 2706 781 3412 
Q 1013 4119 1484 4856 
L 1984 4856 
z
" transform="scale(0.015625)"/>
       <path id="DejaVuSans-23" d="M 3272 2816 
L 2363 2816 
L 2100 1772 
L 3016 1772 
L 3272 2816 
z
M 2803 4594 
L 2478 3297 
L 3391 3297 
L 3719 4594 
L 4219 4594 
L 3897 3297 
L 4872 3297 
L 4872 2816 
L 3775 2816 
L 3519 1772 
L 4513 1772 
L 4513 1294 
L 3397 1294 
L 3072 0 
L 2572 0 
L 2894 1294 
L 1978 1294 
L 1656 0 
L 1153 0 
L 1478 1294 
L 494 1294 
L 494 1772 
L 1594 1772 
L 1856 2816 
L 850 2816 
L 850 3297 
L 1978 3297 
L 2297 4594 
L 2803 4594 
z
" transform="scale(0.015625)"/>
       <path id="DejaVuSans-20" transform="scale(0.015625)"/>
       <path id="DejaVuSans-66" d="M 2375 4863 
L 2375 4384 
L 1825 4384 
Q 1516 4384 1395 4259 
Q 1275 4134 1275 3809 
L 1275 3500 
L 2222 3500 
L 2222 3053 
L 1275 3053 
L 1275 0 
L 697 0 
L 697 3053 
L 147 3053 
L 147 3500 
L 697 3500 
L 697 3744 
Q 697 4328 969 4595 
Q 1241 4863 1831 4863 
L 2375 4863 
z
" transform="scale(0.015625)"/>
       <path id="DejaVuSans-2d" d="M 313 2009 
L 1997 2009 
L 1997 1497 
L 313 1497 
L 313 2009 
z
" transform="scale(0.015625)"/>
       <path id="DejaVuSans-65" d="M 3597 1894 
L 3597 1613 
L 953 1613 
Q 991 1019 1311 708 
Q 1631 397 2203 397 
Q 2534 397 2845 478 
Q 3156 559 3463 722 
L 3463 178 
Q 3153 47 2828 -22 
Q 2503 -91 2169 -91 
Q 1331 -91 842 396 
Q 353 884 353 1716 
Q 353 2575 817 3079 
Q 1281 3584 2069 3584 
Q 2775 3584 3186 3129 
Q 3597 2675 3597 1894 
z
M 3022 2063 
Q 3016 2534 2758 2815 
Q 2500 3097 2075 3097 
Q 1594 3097 1305 2825 
Q 1016 2553 972 2059 
L 3022 2063 
z
" transform="scale(0.015625)"/>
       <path id="DejaVuSans-76" d="M 191 3500 
L 800 3500 
L 1894 563 
L 2988 3500 
L 3597 3500 
L 2284 0 
L 1503 0 
L 191 3500 
z
" transform="scale(0.015625)"/>
       <path id="DejaVuSans-61" d="M 2194 1759 
Q 1497 1759 1228 1600 
Q 959 1441 959 1056 
Q 959 750 1161 570 
Q 1363 391 1709 391 
Q 2188 391 2477 730 
Q 2766 1069 2766 1631 
L 2766 1759 
L 2194 1759 
z
M 3341 1997 
L 3341 0 
L 2766 0 
L 2766 531 
Q 2569 213 2275 61 
Q 1981 -91 1556 -91 
Q 1019 -91 701 211 
Q 384 513 384 1019 
Q 384 1609 779 1909 
Q 1175 2209 1959 2209 
L 2766 2209 
L 2766 2266 
Q 2766 2663 2505 2880 
Q 2244 3097 1772 3097 
Q 1472 3097 1187 3025 
Q 903 2953 641 2809 
L 641 3341 
Q 956 3463 1253 3523 
Q 1550 3584 1831 3584 
Q 2591 3584 2966 3190 
Q 3341 2797 3341 1997 
z
" transform="scale(0.015625)"/>
       <path id="DejaVuSans-73" d="M 2834 3397 
L 2834 2853 
Q 2591 2978 2328 3040 
Q 2066 3103 1784 3103 
Q 1356 3103 1142 2972 
Q 928 2841 928 2578 
Q 928 2378 1081 2264 
Q 1234 2150 1697 2047 
L 1894 2003 
Q 2506 1872 2764 1633 
Q 3022 1394 3022 966 
Q 3022 478 2636 193 
Q 2250 -91 1575 -91 
Q 1294 -91 989 -36 
Q 684 19 347 128 
L 347 722 
Q 666 556 975 473 
Q 1284 391 1588 391 
Q 1994 391 2212 530 
Q 2431 669 2431 922 
Q 2431 1156 2273 1281 
Q 2116 1406 1581 1522 
L 1381 1569 
Q 847 1681 609 1914 
Q 372 2147 372 2553 
Q 372 3047 722 3315 
Q 1072 3584 1716 3584 
Q 2034 3584 2315 3537 
Q 2597 3491 2834 3397 
z
" transform="scale(0.015625)"/>
       <path id="DejaVuSans-2f" d="M 1625 4666 
L 2156 4666 
L 531 -594 
L 0 -594 
L 1625 4666 
z
" transform="scale(0.015625)"/>
       <path id="DejaVuSans-64" d="M 2906 2969 
L 2906 4863 
L 3481 4863 
L 3481 0 
L 2906 0 
L 2906 525 
Q 2725 213 2448 61 
Q 2172 -91 1784 -91 
Q 1150 -91 751 415 
Q 353 922 353 1747 
Q 353 2572 751 3078 
Q 1150 3584 1784 3584 
Q 2172 3584 2448 3432 
Q 2725 3281 2906 2969 
z
M 947 1747 
Q 947 1113 1208 752 
Q 1469 391 1925 391 
Q 2381 391 2643 752 
Q 2906 1113 2906 1747 
Q 2906 2381 2643 2742 
Q 2381 3103 1925 3103 
Q 1469 3103 1208 2742 
Q 947 2381 947 1747 
z
" transform="scale(0.015625)"/>
       <path id="DejaVuSans-69" d="M 603 3500 
L 1178 3500 
L 1178 0 
L 603 0 
L 603 3500 
z
M 603 4863 
L 1178 4863 
L 1178 4134 
L 603 4134 
L 603 4863 
z
" transform="scale(0.015625)"/>
       <path id="DejaVuSans-6d" d="M 3328 2828 
Q 3544 3216 3844 3400 
Q 4144 3584 4550 3584 
Q 5097 3584 5394 3201 
Q 5691 2819 5691 2113 
L 5691 0 
L 5113 0 
L 5113 2094 
Q 5113 2597 4934 2840 
Q 4756 3084 4391 3084 
Q 3944 3084 3684 2787 
Q 3425 2491 3425 1978 
L 3425 0 
L 2847 0 
L 2847 2094 
Q 2847 2600 2669 2842 
Q 2491 3084 2119 3084 
Q 1678 3084 1418 2786 
Q 1159 2488 1159 1978 
L 1159 0 
L 581 0 
L 581 3500 
L 1159 3500 
L 1159 2956 
Q 1356 3278 1631 3431 
Q 1906 3584 2284 3584 
Q 2666 3584 2933 3390 
Q 3200 3197 3328 2828 
z
" transform="scale(0.015625)"/>
       <path id="DejaVuSans-6e" d="M 3513 2113 
L 3513 0 
L 2938 0 
L 2938 2094 
Q 2938 2591 2744 2837 
Q 2550 3084 2163 3084 
Q 1697 3084 1428 2787 
Q 1159 2491 1159 1978 
L 1159 0 
L 581 0 
L 581 3500 
L 1159 3500 
L 1159 2956 
Q 1366 3272 1645 3428 
Q 1925 3584 2291 3584 
Q 2894 3584 3203 3211 
Q 3513 2838 3513 2113 
z
" transform="scale(0.015625)"/>
       <path id="DejaVuSans-29" d="M 513 4856 
L 1013 4856 
Q 1481 4119 1714 3412 
Q 1947 2706 1947 2009 
Q 1947 1309 1714 600 
Q 1481 -109 1013 -844 
L 513 -844 
Q 928 -128 1133 580 
Q 1338 1288 1338 2009 
Q 1338 2731 1133 3434 
Q 928 4138 513 4856 
z
" transform="scale(0.015625)"/>
      </defs>
      <use xlink:href="#DejaVuSans-6c"/>
      <use xlink:href="#DejaVuSans-6f" x="27.783203"/>
      <use xlink:href="#DejaVuSans-67" x="88.964844"/>
      <use xlink:href="#DejaVuSans-31" x="152.441406"/>
      <use xlink:href="#DejaVuSans-30" x="216.064453"/>
      <use xlink:href="#DejaVuSans-28" x="279.6875"/>
      <use xlink:href="#DejaVuSans-23" x="318.701172"/>
      <use xlink:href="#DejaVuSans-20" x="402.490234"/>
      <use xlink:href="#DejaVuSans-66" x="434.277344"/>
      <use xlink:href="#DejaVuSans-2d" x="463.982422"/>
      <use xlink:href="#DejaVuSans-65" x="500.066406"/>
      <use xlink:href="#DejaVuSans-76" x="561.589844"/>
      <use xlink:href="#DejaVuSans-61" x="620.769531"/>
      <use xlink:href="#DejaVuSans-6c" x="682.048828"/>
      <use xlink:href="#DejaVuSans-73" x="709.832031"/>
      <use xlink:href="#DejaVuSans-20" x="761.931641"/>
      <use xlink:href="#DejaVuSans-2f" x="793.71875"/>
      <use xlink:href="#DejaVuSans-20" x="827.410156"/>
      <use xlink:href="#DejaVuSans-64" x="859.197266"/>
      <use xlink:href="#DejaVuSans-69" x="922.673828"/>
      <use xlink:href="#DejaVuSans-6d" x="950.457031"/>
      <use xlink:href="#DejaVuSans-65" x="1047.869141"/>
      <use xlink:href="#DejaVuSans-6e" x="1109.392578"/>
      <use xlink:href="#DejaVuSans-73" x="1172.771484"/>
      <use xlink:href="#DejaVuSans-69" x="1224.871094"/>
      <use xlink:href="#DejaVuSans-6f" x="1252.654297"/>
      <use xlink:href="#DejaVuSans-6e" x="1313.835938"/>
      <use xlink:href="#DejaVuSans-29" x="1377.214844"/>
     </g>
    </g>
   </g>
   <g id="matplotlib.axis_2">
    <g id="ytick_1">
     <g id="line2d_21">
      <path d="M 57.6 298.944 
L 360.8064 298.944 
" clip-path="url(#p9b5016dbeb)" style="fill: none; stroke: #b0b0b0; stroke-width: 0.8; stroke-linecap: square"/>
     </g>
     <g id="line2d_22">
      <defs>
       <path id="m76898daac6" d="M 0 0 
L -3.5 0 
" style="stroke: #000000; stroke-width: 0.8"/>
      </defs>
      <g>
       <use xlink:href="#m76898daac6" x="57.6" y="298.944" style="stroke: #000000; stroke-width: 0.8"/>
      </g>
     </g>
     <g id="text_6">
      <!-- 0.0 -->
      <g transform="translate(25.155 305.02275)scale(0.16 -0.16)">
       <defs>
        <path id="DejaVuSans-2e" d="M 684 794 
L 1344 794 
L 1344 0 
L 684 0 
L 684 794 
z
" transform="scale(0.015625)"/>
       </defs>
       <use xlink:href="#DejaVuSans-30"/>
       <use xlink:href="#DejaVuSans-2e" x="63.623047"/>
       <use xlink:href="#DejaVuSans-30" x="95.410156"/>
      </g>
     </g>
    </g>
    <g id="ytick_2">
     <g id="line2d_23">
      <path d="M 57.6 244.6848 
L 360.8064 244.6848 
" clip-path="url(#p9b5016dbeb)" style="fill: none; stroke: #b0b0b0; stroke-width: 0.8; stroke-linecap: square"/>
     </g>
     <g id="line2d_24">
      <g>
       <use xlink:href="#m76898daac6" x="57.6" y="244.6848" style="stroke: #000000; stroke-width: 0.8"/>
      </g>
     </g>
     <g id="text_7">
      <!-- 0.2 -->
      <g transform="translate(25.155 250.76355)scale(0.16 -0.16)">
       <use xlink:href="#DejaVuSans-30"/>
       <use xlink:href="#DejaVuSans-2e" x="63.623047"/>
       <use xlink:href="#DejaVuSans-32" x="95.410156"/>
      </g>
     </g>
    </g>
    <g id="ytick_3">
     <g id="line2d_25">
      <path d="M 57.6 190.4256 
L 360.8064 190.4256 
" clip-path="url(#p9b5016dbeb)" style="fill: none; stroke: #b0b0b0; stroke-width: 0.8; stroke-linecap: square"/>
     </g>
     <g id="line2d_26">
      <g>
       <use xlink:href="#m76898daac6" x="57.6" y="190.4256" style="stroke: #000000; stroke-width: 0.8"/>
      </g>
     </g>
     <g id="text_8">
      <!-- 0.4 -->
      <g transform="translate(25.155 196.50435)scale(0.16 -0.16)">
       <use xlink:href="#DejaVuSans-30"/>
       <use xlink:href="#DejaVuSans-2e" x="63.623047"/>
       <use xlink:href="#DejaVuSans-34" x="95.410156"/>
      </g>
     </g>
    </g>
    <g id="ytick_4">
     <g id="line2d_27">
      <path d="M 57.6 136.1664 
L 360.8064 136.1664 
" clip-path="url(#p9b5016dbeb)" style="fill: none; stroke: #b0b0b0; stroke-width: 0.8; stroke-linecap: square"/>
     </g>
     <g id="line2d_28">
      <g>
       <use xlink:href="#m76898daac6" x="57.6" y="136.1664" style="stroke: #000000; stroke-width: 0.8"/>
      </g>
     </g>
     <g id="text_9">
      <!-- 0.6 -->
      <g transform="translate(25.155 142.24515)scale(0.16 -0.16)">
       <use xlink:href="#DejaVuSans-30"/>
       <use xlink:href="#DejaVuSans-2e" x="63.623047"/>
       <use xlink:href="#DejaVuSans-36" x="95.410156"/>
      </g>
     </g>
    </g>
    <g id="ytick_5">
     <g id="line2d_29">
      <path d="M 57.6 81.9072 
L 360.8064 81.9072 
" clip-path="url(#p9b5016dbeb)" style="fill: none; stroke: #b0b0b0; stroke-width: 0.8; stroke-linecap: square"/>
     </g>
     <g id="line2d_30">
      <g>
       <use xlink:href="#m76898daac6" x="57.6" y="81.9072" style="stroke: #000000; stroke-width: 0.8"/>
      </g>
     </g>
     <g id="text_10">
      <!-- 0.8 -->
      <g transform="translate(25.155 87.98595)scale(0.16 -0.16)">
       <defs>
        <path id="DejaVuSans-38" d="M 2034 2216 
Q 1584 2216 1326 1975 
Q 1069 1734 1069 1313 
Q 1069 891 1326 650 
Q 1584 409 2034 409 
Q 2484 409 2743 651 
Q 3003 894 3003 1313 
Q 3003 1734 2745 1975 
Q 2488 2216 2034 2216 
z
M 1403 2484 
Q 997 2584 770 2862 
Q 544 3141 544 3541 
Q 544 4100 942 4425 
Q 1341 4750 2034 4750 
Q 2731 4750 3128 4425 
Q 3525 4100 3525 3541 
Q 3525 3141 3298 2862 
Q 3072 2584 2669 2484 
Q 3125 2378 3379 2068 
Q 3634 1759 3634 1313 
Q 3634 634 3220 271 
Q 2806 -91 2034 -91 
Q 1263 -91 848 271 
Q 434 634 434 1313 
Q 434 1759 690 2068 
Q 947 2378 1403 2484 
z
M 1172 3481 
Q 1172 3119 1398 2916 
Q 1625 2713 2034 2713 
Q 2441 2713 2670 2916 
Q 2900 3119 2900 3481 
Q 2900 3844 2670 4047 
Q 2441 4250 2034 4250 
Q 1625 4250 1398 4047 
Q 1172 3844 1172 3481 
z
" transform="scale(0.015625)"/>
       </defs>
       <use xlink:href="#DejaVuSans-30"/>
       <use xlink:href="#DejaVuSans-2e" x="63.623047"/>
       <use xlink:href="#DejaVuSans-38" x="95.410156"/>
      </g>
     </g>
    </g>
    <g id="ytick_6">
     <g id="line2d_31">
      <path d="M 57.6 27.648 
L 360.8064 27.648 
" clip-path="url(#p9b5016dbeb)" style="fill: none; stroke: #b0b0b0; stroke-width: 0.8; stroke-linecap: square"/>
     </g>
     <g id="line2d_32">
      <g>
       <use xlink:href="#m76898daac6" x="57.6" y="27.648" style="stroke: #000000; stroke-width: 0.8"/>
      </g>
     </g>
     <g id="text_11">
      <!-- 1.0 -->
      <g transform="translate(25.155 33.72675)scale(0.16 -0.16)">
       <use xlink:href="#DejaVuSans-31"/>
       <use xlink:href="#DejaVuSans-2e" x="63.623047"/>
       <use xlink:href="#DejaVuSans-30" x="95.410156"/>
      </g>
     </g>
    </g>
    <g id="text_12">
     <!-- Fraction of function,target pairs -->
     <g transform="translate(17.619531 297.681)rotate(-90)scale(0.17 -0.17)">
      <defs>
       <path id="DejaVuSans-46" d="M 628 4666 
L 3309 4666 
L 3309 4134 
L 1259 4134 
L 1259 2759 
L 3109 2759 
L 3109 2228 
L 1259 2228 
L 1259 0 
L 628 0 
L 628 4666 
z
" transform="scale(0.015625)"/>
       <path id="DejaVuSans-72" d="M 2631 2963 
Q 2534 3019 2420 3045 
Q 2306 3072 2169 3072 
Q 1681 3072 1420 2755 
Q 1159 2438 1159 1844 
L 1159 0 
L 581 0 
L 581 3500 
L 1159 3500 
L 1159 2956 
Q 1341 3275 1631 3429 
Q 1922 3584 2338 3584 
Q 2397 3584 2469 3576 
Q 2541 3569 2628 3553 
L 2631 2963 
z
" transform="scale(0.015625)"/>
       <path id="DejaVuSans-63" d="M 3122 3366 
L 3122 2828 
Q 2878 2963 2633 3030 
Q 2388 3097 2138 3097 
Q 1578 3097 1268 2742 
Q 959 2388 959 1747 
Q 959 1106 1268 751 
Q 1578 397 2138 397 
Q 2388 397 2633 464 
Q 2878 531 3122 666 
L 3122 134 
Q 2881 22 2623 -34 
Q 2366 -91 2075 -91 
Q 1284 -91 818 406 
Q 353 903 353 1747 
Q 353 2603 823 3093 
Q 1294 3584 2113 3584 
Q 2378 3584 2631 3529 
Q 2884 3475 3122 3366 
z
" transform="scale(0.015625)"/>
       <path id="DejaVuSans-74" d="M 1172 4494 
L 1172 3500 
L 2356 3500 
L 2356 3053 
L 1172 3053 
L 1172 1153 
Q 1172 725 1289 603 
Q 1406 481 1766 481 
L 2356 481 
L 2356 0 
L 1766 0 
Q 1100 0 847 248 
Q 594 497 594 1153 
L 594 3053 
L 172 3053 
L 172 3500 
L 594 3500 
L 594 4494 
L 1172 4494 
z
" transform="scale(0.015625)"/>
       <path id="DejaVuSans-75" d="M 544 1381 
L 544 3500 
L 1119 3500 
L 1119 1403 
Q 1119 906 1312 657 
Q 1506 409 1894 409 
Q 2359 409 2629 706 
Q 2900 1003 2900 1516 
L 2900 3500 
L 3475 3500 
L 3475 0 
L 2900 0 
L 2900 538 
Q 2691 219 2414 64 
Q 2138 -91 1772 -91 
Q 1169 -91 856 284 
Q 544 659 544 1381 
z
M 1991 3584 
L 1991 3584 
z
" transform="scale(0.015625)"/>
       <path id="DejaVuSans-2c" d="M 750 794 
L 1409 794 
L 1409 256 
L 897 -744 
L 494 -744 
L 750 256 
L 750 794 
z
" transform="scale(0.015625)"/>
       <path id="DejaVuSans-70" d="M 1159 525 
L 1159 -1331 
L 581 -1331 
L 581 3500 
L 1159 3500 
L 1159 2969 
Q 1341 3281 1617 3432 
Q 1894 3584 2278 3584 
Q 2916 3584 3314 3078 
Q 3713 2572 3713 1747 
Q 3713 922 3314 415 
Q 2916 -91 2278 -91 
Q 1894 -91 1617 61 
Q 1341 213 1159 525 
z
M 3116 1747 
Q 3116 2381 2855 2742 
Q 2594 3103 2138 3103 
Q 1681 3103 1420 2742 
Q 1159 2381 1159 1747 
Q 1159 1113 1420 752 
Q 1681 391 2138 391 
Q 2594 391 2855 752 
Q 3116 1113 3116 1747 
z
" transform="scale(0.015625)"/>
      </defs>
      <use xlink:href="#DejaVuSans-46"/>
      <use xlink:href="#DejaVuSans-72" x="50.269531"/>
      <use xlink:href="#DejaVuSans-61" x="91.382812"/>
      <use xlink:href="#DejaVuSans-63" x="152.662109"/>
      <use xlink:href="#DejaVuSans-74" x="207.642578"/>
      <use xlink:href="#DejaVuSans-69" x="246.851562"/>
      <use xlink:href="#DejaVuSans-6f" x="274.634766"/>
      <use xlink:href="#DejaVuSans-6e" x="335.816406"/>
      <use xlink:href="#DejaVuSans-20" x="399.195312"/>
      <use xlink:href="#DejaVuSans-6f" x="430.982422"/>
      <use xlink:href="#DejaVuSans-66" x="492.164062"/>
      <use xlink:href="#DejaVuSans-20" x="527.369141"/>
      <use xlink:href="#DejaVuSans-66" x="559.15625"/>
      <use xlink:href="#DejaVuSans-75" x="594.361328"/>
      <use xlink:href="#DejaVuSans-6e" x="657.740234"/>
      <use xlink:href="#DejaVuSans-63" x="721.119141"/>
      <use xlink:href="#DejaVuSans-74" x="776.099609"/>
      <use xlink:href="#DejaVuSans-69" x="815.308594"/>
      <use xlink:href="#DejaVuSans-6f" x="843.091797"/>
      <use xlink:href="#DejaVuSans-6e" x="904.273438"/>
      <use xlink:href="#DejaVuSans-2c" x="967.652344"/>
      <use xlink:href="#DejaVuSans-74" x="999.439453"/>
      <use xlink:href="#DejaVuSans-61" x="1038.648438"/>
      <use xlink:href="#DejaVuSans-72" x="1099.927734"/>
      <use xlink:href="#DejaVuSans-67" x="1139.291016"/>
      <use xlink:href="#DejaVuSans-65" x="1202.767578"/>
      <use xlink:href="#DejaVuSans-74" x="1264.291016"/>
      <use xlink:href="#DejaVuSans-20" x="1303.5"/>
      <use xlink:href="#DejaVuSans-70" x="1335.287109"/>
      <use xlink:href="#DejaVuSans-61" x="1398.763672"/>
      <use xlink:href="#DejaVuSans-69" x="1460.042969"/>
      <use xlink:href="#DejaVuSans-72" x="1487.826172"/>
      <use xlink:href="#DejaVuSans-73" x="1528.939453"/>
     </g>
    </g>
   </g>
   <g id="line2d_33">
    <defs>
     <path id="m8d943f0164" d="M 0 1.5 
C 0.397805 1.5 0.77937 1.341951 1.06066 1.06066 
C 1.341951 0.77937 1.5 0.397805 1.5 0 
C 1.5 -0.397805 1.341951 -0.77937 1.06066 -1.06066 
C 0.77937 -1.341951 0.397805 -1.5 0 -1.5 
C -0.397805 -1.5 -0.77937 -1.341951 -1.06066 -1.06066 
C -1.341951 -0.77937 -1.5 -0.397805 -1.5 0 
C -1.5 0.397805 -1.341951 0.77937 -1.06066 1.06066 
C -0.77937 1.341951 -0.397805 1.5 0 1.5 
z
" style="stroke: #f5deb3"/>
    </defs>
    <g>
     <use xlink:href="#m8d943f0164" x="174.324962" y="27.648" style="fill: #f5deb3; stroke: #f5deb3"/>
     <use xlink:href="#m8d943f0164" x="174.324962" y="27.648" style="fill: #f5deb3; stroke: #f5deb3"/>
    </g>
   </g>
   <g id="line2d_34">
    <defs>
     <path id="m399744bd50" d="M 0 1.5 
C 0.397805 1.5 0.77937 1.341951 1.06066 1.06066 
C 1.341951 0.77937 1.5 0.397805 1.5 0 
C 1.5 -0.397805 1.341951 -0.77937 1.06066 -1.06066 
C 0.77937 -1.341951 0.397805 -1.5 0 -1.5 
C -0.397805 -1.5 -0.77937 -1.341951 -1.06066 -1.06066 
C -1.341951 -0.77937 -1.5 -0.397805 -1.5 0 
C -1.5 0.397805 -1.341951 0.77937 -1.06066 1.06066 
C -0.77937 1.341951 -0.397805 1.5 0 1.5 
z
" style="stroke: #000080"/>
    </defs>
    <g>
     <use xlink:href="#m399744bd50" x="352.425841" y="192.553412" style="fill: #000080; stroke: #000080"/>
     <use xlink:href="#m399744bd50" x="352.425841" y="192.553412" style="fill: #000080; stroke: #000080"/>
    </g>
   </g>
   <g id="line2d_35">
    <path d="M 146.529503 298.944 
L 146.529503 298.589365 
L 146.695245 298.589365 
L 146.695245 298.234729 
L 147.502732 298.234729 
L 147.502732 297.880094 
L 147.628773 297.880094 
L 147.691478 297.170824 
L 147.909315 297.170824 
L 147.909315 296.816188 
L 148.094045 296.816188 
L 148.094045 296.461553 
L 148.276979 296.461553 
L 148.276979 296.106918 
L 148.458151 296.106918 
L 148.458151 295.397647 
L 148.697031 295.397647 
L 148.697031 294.688376 
L 148.815343 294.688376 
L 148.903591 293.979106 
L 148.962194 293.979106 
L 148.962194 293.624471 
L 149.078856 293.624471 
L 149.078856 293.269835 
L 149.338728 293.269835 
L 149.367382 292.560565 
L 149.679732 292.560565 
L 149.679732 292.205929 
L 149.959255 292.205929 
L 149.959255 291.496659 
L 150.124997 291.496659 
L 150.152479 290.787388 
L 150.343738 290.787388 
L 150.425115 290.078118 
L 150.479171 290.078118 
L 150.479171 289.723482 
L 150.747146 289.723482 
L 150.747146 289.014212 
L 151.089903 289.014212 
L 151.089903 288.659576 
L 151.656094 288.659576 
L 151.656094 288.304941 
L 153.854866 288.304941 
L 153.854866 287.950306 
L 155.161749 287.950306 
L 155.161749 287.595671 
L 155.964992 287.595671 
L 155.985143 286.8864 
L 159.50197 286.8864 
L 159.50197 286.531765 
L 160.699326 286.531765 
L 160.730652 285.822494 
L 161.010268 285.822494 
L 161.010268 285.113224 
L 163.612572 285.113224 
L 163.612572 284.758588 
L 163.746367 284.758588 
L 163.773012 284.049318 
L 164.568077 284.049318 
L 164.606324 283.340047 
L 165.021997 283.340047 
L 165.021997 282.985412 
L 165.343147 282.985412 
L 165.343147 282.630776 
L 165.50169 282.630776 
L 165.50169 282.276141 
L 165.658907 282.276141 
L 165.743021 280.8576 
L 166.598506 280.8576 
L 166.598506 280.502965 
L 168.063651 280.502965 
L 168.063651 280.148329 
L 168.913216 280.148329 
L 168.913216 279.793694 
L 169.755147 279.793694 
L 169.842126 279.084424 
L 169.919104 279.084424 
L 169.919104 278.729788 
L 170.176605 278.729788 
L 170.176605 278.375153 
L 170.542436 278.375153 
L 170.542436 278.020518 
L 170.992209 278.020518 
L 171.001277 277.311247 
L 171.369351 277.311247 
L 171.369351 276.956612 
L 172.237998 276.956612 
L 172.237998 276.247341 
L 172.641118 276.247341 
L 172.641118 275.892706 
L 172.896949 275.892706 
L 172.896949 275.538071 
L 174.431028 275.538071 
L 174.431028 275.183435 
L 174.701055 275.183435 
L 174.701055 274.8288 
L 176.752182 274.8288 
L 176.752182 274.474165 
L 177.810347 274.474165 
L 177.810347 274.119529 
L 178.104724 274.119529 
L 178.104724 273.764894 
L 178.370071 273.764894 
L 178.370071 273.055624 
L 178.865936 273.055624 
L 178.937417 272.346353 
L 179.03822 272.346353 
L 179.03822 271.637082 
L 179.214801 271.637082 
L 179.214801 271.282447 
L 179.430325 271.282447 
L 179.430325 270.927812 
L 179.871084 270.927812 
L 179.871084 270.573176 
L 180.185272 270.573176 
L 180.185272 270.218541 
L 180.598003 270.218541 
L 180.598003 269.863906 
L 181.589291 269.863906 
L 181.589291 269.509271 
L 183.794068 269.509271 
L 183.794068 269.154635 
L 184.743353 269.154635 
L 184.743353 268.8 
L 185.323804 268.8 
L 185.404078 268.090729 
L 188.366424 268.090729 
L 188.366424 267.736094 
L 188.878044 267.736094 
L 188.958488 267.026824 
L 189.245957 267.026824 
L 189.245957 266.672188 
L 189.907857 266.672188 
L 189.907857 266.317553 
L 190.20416 266.317553 
L 190.20416 265.962918 
L 190.357061 265.962918 
L 190.357061 265.608282 
L 192.277394 265.608282 
L 192.277394 265.253647 
L 192.89894 265.253647 
L 192.89894 264.899012 
L 193.126825 264.899012 
L 193.126825 264.544376 
L 193.398898 264.544376 
L 193.398898 264.189741 
L 194.780182 264.189741 
L 194.780182 263.835106 
L 195.004223 263.835106 
L 195.110218 263.125835 
L 195.697391 263.125835 
L 195.714458 262.416565 
L 197.396512 262.416565 
L 197.396512 262.061929 
L 197.843562 262.061929 
L 197.843562 261.707294 
L 198.053483 261.707294 
L 198.150079 260.643388 
L 198.246182 260.643388 
L 198.246182 260.288753 
L 199.394768 260.288753 
L 199.394768 259.934118 
L 200.125864 259.934118 
L 200.125864 259.224847 
L 200.344338 259.224847 
L 200.344338 258.870212 
L 200.784989 258.870212 
L 200.809169 258.160941 
L 201.349689 258.160941 
L 201.349689 257.806306 
L 202.42553 257.806306 
L 202.42553 257.451671 
L 202.873887 257.451671 
L 202.953667 256.7424 
L 203.709514 256.7424 
L 203.709514 256.387765 
L 204.704032 256.387765 
L 204.704032 256.033129 
L 204.875526 256.033129 
L 204.875526 255.678494 
L 205.835939 255.678494 
L 205.835939 255.323859 
L 206.192547 255.323859 
L 206.192547 254.969224 
L 206.433937 254.969224 
L 206.517835 254.259953 
L 207.057567 254.259953 
L 207.15864 253.196047 
L 207.599095 253.196047 
L 207.599095 252.841412 
L 208.043398 252.841412 
L 208.043398 252.486776 
L 208.477448 252.486776 
L 208.477448 252.132141 
L 209.236022 252.132141 
L 209.236022 251.777506 
L 211.062504 251.777506 
L 211.062504 251.422871 
L 212.397836 251.422871 
L 212.397836 251.068235 
L 212.710456 251.068235 
L 212.710456 250.7136 
L 212.958619 250.7136 
L 212.958619 250.358965 
L 213.108088 250.358965 
L 213.108088 250.004329 
L 213.28513 250.004329 
L 213.373983 249.295059 
L 214.192776 249.295059 
L 214.192776 248.940424 
L 214.504107 248.940424 
L 214.504107 248.585788 
L 214.814784 248.585788 
L 214.814784 248.231153 
L 216.31433 248.231153 
L 216.31433 247.876518 
L 217.254845 247.876518 
L 217.254845 247.521882 
L 217.953595 247.521882 
L 217.953595 247.167247 
L 218.684901 247.167247 
L 218.684901 246.812612 
L 218.958173 246.812612 
L 218.958173 246.457976 
L 219.26102 246.457976 
L 219.26102 246.103341 
L 220.32208 246.103341 
L 220.32208 245.748706 
L 221.888825 245.748706 
L 221.888825 245.394071 
L 222.11058 245.394071 
L 222.11058 245.039435 
L 223.518268 245.039435 
L 223.518268 244.6848 
L 224.146353 244.6848 
L 224.146353 244.330165 
L 224.360709 244.330165 
L 224.360709 243.975529 
L 227.11386 243.975529 
L 227.11386 243.620894 
L 227.423974 243.620894 
L 227.423974 243.266259 
L 228.343277 243.266259 
L 228.42225 242.556988 
L 228.763493 242.556988 
L 228.763493 242.202353 
L 229.153116 242.202353 
L 229.158059 241.493082 
L 229.474179 241.493082 
L 229.512212 240.783812 
L 230.043037 240.783812 
L 230.043037 240.429176 
L 237.604465 240.429176 
L 237.604465 240.074541 
L 238.190671 240.074541 
L 238.190671 239.719906 
L 274.237676 239.719906 
L 274.34313 236.882824 
L 274.391433 236.882824 
L 274.502022 235.109647 
L 274.503686 235.109647 
L 274.597953 233.336471 
L 274.684794 233.336471 
L 274.739826 231.917929 
L 274.821472 231.917929 
L 274.90425 229.790118 
L 274.948427 229.790118 
L 274.961025 228.726212 
L 275.149526 228.726212 
L 275.149526 228.371576 
L 275.321825 228.371576 
L 275.321825 227.662306 
L 275.657517 227.662306 
L 275.753491 226.5984 
L 275.819938 226.5984 
L 275.850251 225.179859 
L 287.317849 225.179859 
L 287.421493 223.406682 
L 287.435981 223.406682 
L 287.486336 222.697412 
L 287.564404 222.697412 
L 287.666058 220.924235 
L 287.701215 220.924235 
L 287.79681 219.505694 
L 287.84126 219.505694 
L 287.862155 218.796424 
L 287.982817 218.796424 
L 288.07092 216.313976 
L 288.094848 216.313976 
L 288.094848 215.604706 
L 294.964594 215.604706 
L 295.02381 213.476894 
L 295.087347 213.476894 
L 295.172741 211.349082 
L 295.383265 211.349082 
L 295.433598 210.285176 
L 300.316756 210.285176 
L 300.316756 209.930541 
L 300.447247 209.930541 
L 300.544006 208.157365 
L 300.580621 208.157365 
L 300.580621 207.802729 
L 304.563555 207.802729 
L 304.665666 205.674918 
L 308.004547 205.674918 
L 308.050249 203.901741 
L 308.136942 203.901741 
L 308.160156 202.837835 
L 310.886871 202.837835 
L 310.926087 201.773929 
L 313.360106 201.773929 
L 313.360106 201.419294 
L 313.502693 201.419294 
L 313.511137 200.710024 
L 315.621687 200.710024 
L 315.702763 200.000753 
L 317.590851 200.000753 
L 317.658721 198.936847 
L 319.33258 198.936847 
L 319.33258 198.582212 
L 319.447163 198.582212 
L 319.447163 198.227576 
L 320.982727 198.227576 
L 320.99972 197.518306 
L 325.181669 197.518306 
L 325.181669 197.163671 
L 328.603807 197.163671 
L 328.603807 196.809035 
L 332.368668 196.809035 
L 332.368668 196.4544 
L 333.200651 196.4544 
L 333.200651 196.099765 
L 334.765901 196.099765 
L 334.765901 195.745129 
L 336.212777 195.745129 
L 336.212777 195.390494 
L 337.552695 195.390494 
L 337.552695 195.035859 
L 340.540154 195.035859 
L 340.540154 194.681224 
L 341.613847 194.681224 
L 341.613847 193.971953 
L 344.057144 193.971953 
L 344.057144 193.617318 
L 345.806268 193.617318 
L 345.806268 193.262682 
L 351.524291 193.262682 
L 351.524291 192.908047 
L 352.425841 192.908047 
L 352.425841 192.553412 
L 360.8064 192.553412 
L 360.8064 192.553412 
" style="fill: none; stroke: #000080; stroke-width: 1.5; stroke-linecap: square"/>
   </g>
   <g id="line2d_36">
    <defs>
     <path id="m61e8600af9" d="M 0 6 
C 1.591219 6 3.117479 5.367802 4.242641 4.242641 
C 5.367802 3.117479 6 1.591219 6 0 
C 6 -1.591219 5.367802 -3.117479 4.242641 -4.242641 
C 3.117479 -5.367802 1.591219 -6 0 -6 
C -1.591219 -6 -3.117479 -5.367802 -4.242641 -4.242641 
C -5.367802 -3.117479 -6 -1.591219 -6 0 
C -6 1.591219 -5.367802 3.117479 -4.242641 4.242641 
C -3.117479 5.367802 -1.591219 6 0 6 
z
" style="stroke: #000080; stroke-width: 1.5"/>
    </defs>
    <g>
     <use xlink:href="#m61e8600af9" x="193.398898" y="264.189741" style="fill-opacity: 0; stroke: #000080; stroke-width: 1.5"/>
     <use xlink:href="#m61e8600af9" x="275.819938" y="226.5984" style="fill-opacity: 0; stroke: #000080; stroke-width: 1.5"/>
     <use xlink:href="#m61e8600af9" x="334.765901" y="196.099765" style="fill-opacity: 0; stroke: #000080; stroke-width: 1.5"/>
     <use xlink:href="#m61e8600af9" x="352.425841" y="192.553412" style="fill-opacity: 0; stroke: #000080; stroke-width: 1.5"/>
     <use xlink:href="#m61e8600af9" x="360.8064" y="192.553412" style="fill-opacity: 0; stroke: #000080; stroke-width: 1.5"/>
    </g>
   </g>
   <g id="line2d_37">
    <path style="fill: none; stroke: #000080; stroke-width: 1.5; stroke-linecap: square"/>
    <g/>
   </g>
   <g id="line2d_38">
    <path d="M 274.176 239.719906 
" clip-path="url(#p9b5016dbeb)" style="fill: none; stroke: #000080; stroke-width: 1.5; stroke-linecap: square"/>
    <defs>
     <path id="mb03e9765c9" d="M -12 12 
L 12 -12 
M -12 -12 
L 12 12 
" style="stroke: #000080"/>
    </defs>
    <g clip-path="url(#p9b5016dbeb)">
     <use xlink:href="#mb03e9765c9" x="274.176" y="239.719906" style="fill: #000080; stroke: #000080"/>
    </g>
   </g>
   <g id="line2d_39">
    <defs>
     <path id="m15e3325e43" d="M 0 1.5 
C 0.397805 1.5 0.77937 1.341951 1.06066 1.06066 
C 1.341951 0.77937 1.5 0.397805 1.5 0 
C 1.5 -0.397805 1.341951 -0.77937 1.06066 -1.06066 
C 0.77937 -1.341951 0.397805 -1.5 0 -1.5 
C -0.397805 -1.5 -0.77937 -1.341951 -1.06066 -1.06066 
C -1.341951 -0.77937 -1.5 -0.397805 -1.5 0 
C -1.5 0.397805 -1.341951 0.77937 -1.06066 1.06066 
C -0.77937 1.341951 -0.397805 1.5 0 1.5 
z
" style="stroke: #ff00ff"/>
    </defs>
    <g>
     <use xlink:href="#m15e3325e43" x="356.759354" y="181.914353" style="fill: #ff00ff; stroke: #ff00ff"/>
     <use xlink:href="#m15e3325e43" x="356.759354" y="181.914353" style="fill: #ff00ff; stroke: #ff00ff"/>
    </g>
   </g>
   <g id="line2d_40">
    <path d="M 137.627979 298.944 
L 137.627979 298.589365 
L 174.195358 298.589365 
L 174.195358 298.234729 
L 185.763199 298.234729 
L 185.812768 297.525459 
L 186.095285 297.525459 
L 186.095285 297.170824 
L 186.220844 297.170824 
L 186.220844 296.816188 
L 186.816825 296.816188 
L 186.816825 296.461553 
L 187.477756 296.461553 
L 187.477756 295.752282 
L 188.986388 295.752282 
L 188.986388 295.397647 
L 189.828049 295.397647 
L 189.828049 295.043012 
L 192.059645 295.043012 
L 192.059645 294.688376 
L 192.373692 294.688376 
L 192.373692 294.333741 
L 194.334427 294.333741 
L 194.423383 293.624471 
L 194.470308 293.624471 
L 194.470308 293.269835 
L 194.610383 293.269835 
L 194.718615 292.560565 
L 196.883694 292.560565 
L 196.883694 291.851294 
L 197.447699 291.851294 
L 197.447699 291.496659 
L 197.68402 291.496659 
L 197.703763 290.787388 
L 198.042719 290.787388 
L 198.042719 290.432753 
L 198.765111 290.432753 
L 198.765111 289.723482 
L 201.533025 289.723482 
L 201.533025 289.368847 
L 202.563195 289.368847 
L 202.563195 289.014212 
L 204.000412 289.014212 
L 204.074002 287.595671 
L 205.840208 287.595671 
L 205.840208 287.241035 
L 206.097362 287.241035 
L 206.192547 286.531765 
L 207.692152 286.531765 
L 207.774484 285.467859 
L 208.257296 285.467859 
L 208.324735 284.403953 
L 209.109706 284.403953 
L 209.109706 284.049318 
L 209.4439 284.049318 
L 209.4439 283.340047 
L 209.799943 283.340047 
L 209.799943 282.985412 
L 210.035892 282.985412 
L 210.035892 282.630776 
L 210.496873 282.630776 
L 210.496873 282.276141 
L 210.972835 282.276141 
L 210.972835 281.921506 
L 211.536103 281.921506 
L 211.593819 281.212235 
L 212.704531 281.212235 
L 212.790265 280.502965 
L 213.247743 280.502965 
L 213.247743 280.148329 
L 213.646509 280.148329 
L 213.679361 279.439059 
L 214.075604 279.439059 
L 214.075604 279.084424 
L 214.884402 279.084424 
L 214.884402 278.729788 
L 215.013264 278.729788 
L 215.080413 277.665882 
L 215.2563 277.665882 
L 215.343201 276.956612 
L 216.014391 276.956612 
L 216.014391 276.601976 
L 216.142347 276.601976 
L 216.142347 276.247341 
L 216.267804 276.247341 
L 216.267804 275.892706 
L 216.565371 275.892706 
L 216.565371 275.538071 
L 217.784719 275.538071 
L 217.784719 275.183435 
L 217.900469 275.183435 
L 217.900469 274.8288 
L 218.496376 274.8288 
L 218.496376 274.474165 
L 218.620106 274.474165 
L 218.620106 274.119529 
L 218.855182 274.119529 
L 218.855182 273.764894 
L 219.120391 273.764894 
L 219.120391 273.410259 
L 220.222998 273.410259 
L 220.264015 272.700988 
L 220.685502 272.700988 
L 220.711977 271.637082 
L 220.883486 271.637082 
L 220.99442 270.218541 
L 221.324599 270.218541 
L 221.337712 269.509271 
L 222.063195 269.509271 
L 222.063195 269.154635 
L 222.518866 269.154635 
L 222.518866 268.8 
L 222.679964 268.8 
L 222.679964 268.445365 
L 222.82009 268.445365 
L 222.835659 267.381459 
L 223.272084 267.381459 
L 223.272084 267.026824 
L 223.656171 267.026824 
L 223.656171 266.672188 
L 224.044469 266.672188 
L 224.081189 265.962918 
L 224.1614 265.962918 
L 224.1614 265.608282 
L 224.33784 265.608282 
L 224.37771 264.899012 
L 224.835687 264.899012 
L 224.835687 264.544376 
L 225.355012 264.544376 
L 225.396307 263.835106 
L 226.3511 263.835106 
L 226.3511 263.480471 
L 226.686623 263.480471 
L 226.686623 262.7712 
L 227.307541 262.7712 
L 227.307541 262.416565 
L 227.437519 262.416565 
L 227.461423 261.707294 
L 227.776547 261.707294 
L 227.776547 261.352659 
L 227.898051 261.352659 
L 228.007832 260.643388 
L 228.020087 260.643388 
L 228.085607 259.579482 
L 228.351017 259.579482 
L 228.366058 258.870212 
L 228.746661 258.870212 
L 228.746661 258.515576 
L 229.039478 258.515576 
L 229.039478 258.160941 
L 229.420236 258.160941 
L 229.49806 257.097035 
L 229.681612 257.097035 
L 229.681612 256.7424 
L 229.81652 256.7424 
L 229.88599 256.033129 
L 229.985185 256.033129 
L 229.985185 255.678494 
L 230.238102 255.678494 
L 230.238102 255.323859 
L 230.502626 255.323859 
L 230.502626 254.969224 
L 230.675917 254.969224 
L 230.675917 254.614588 
L 230.811449 254.614588 
L 230.890874 252.841412 
L 231.050589 252.841412 
L 231.050589 252.486776 
L 231.363075 252.486776 
L 231.363075 252.132141 
L 231.614875 252.132141 
L 231.614875 251.777506 
L 231.978213 251.777506 
L 231.978213 251.422871 
L 232.259723 251.422871 
L 232.351704 250.358965 
L 232.418318 250.358965 
L 232.440125 249.649694 
L 232.746875 249.649694 
L 232.746875 249.295059 
L 233.022562 249.295059 
L 233.045689 248.231153 
L 233.209115 248.231153 
L 233.209115 247.876518 
L 233.847055 247.876518 
L 233.847055 247.521882 
L 234.016105 247.521882 
L 234.016105 247.167247 
L 234.134712 247.167247 
L 234.134712 246.457976 
L 234.395914 246.457976 
L 234.440134 245.039435 
L 234.635077 245.039435 
L 234.71801 243.975529 
L 234.803935 243.975529 
L 234.803935 243.620894 
L 234.970685 243.620894 
L 235.019006 242.911624 
L 235.191343 242.911624 
L 235.191343 242.556988 
L 235.31259 242.556988 
L 235.31259 242.202353 
L 235.431585 242.202353 
L 235.443089 241.493082 
L 235.792806 241.493082 
L 235.899891 240.783812 
L 236.572445 240.783812 
L 236.622366 240.074541 
L 236.83252 240.074541 
L 236.850041 239.365271 
L 237.009716 239.365271 
L 237.009716 239.010635 
L 237.129263 239.010635 
L 237.129263 238.301365 
L 237.517248 238.301365 
L 237.530449 237.237459 
L 237.789933 237.237459 
L 237.789933 236.528188 
L 237.930493 236.528188 
L 237.930493 236.173553 
L 238.215372 236.173553 
L 238.215372 235.818918 
L 238.39343 235.818918 
L 238.430199 235.109647 
L 238.633891 235.109647 
L 238.633891 234.755012 
L 238.821361 234.755012 
L 238.821361 234.400376 
L 239.120584 234.400376 
L 239.207692 233.691106 
L 239.233988 233.691106 
L 239.233988 233.336471 
L 239.75091 233.336471 
L 239.75091 232.981835 
L 240.337397 232.981835 
L 240.337397 232.6272 
L 240.46789 232.6272 
L 240.46789 232.272565 
L 240.813948 232.272565 
L 240.887172 230.854024 
L 241.544546 230.854024 
L 241.617534 230.144753 
L 241.812129 230.144753 
L 241.858525 229.435482 
L 242.022199 229.435482 
L 242.022199 229.080847 
L 242.398181 229.080847 
L 242.398181 228.726212 
L 242.570576 228.726212 
L 242.570576 228.371576 
L 242.851916 228.371576 
L 242.851916 228.016941 
L 243.081032 228.016941 
L 243.081032 227.662306 
L 243.348116 227.662306 
L 243.348116 227.307671 
L 243.895083 227.307671 
L 243.895083 226.953035 
L 244.129202 226.953035 
L 244.220967 225.534494 
L 244.759117 225.534494 
L 244.759117 225.179859 
L 245.052276 225.179859 
L 245.052276 224.825224 
L 245.543188 224.825224 
L 245.543188 224.470588 
L 246.526005 224.470588 
L 246.526005 224.115953 
L 247.471842 224.115953 
L 247.471842 223.761318 
L 247.688253 223.761318 
L 247.688253 223.406682 
L 248.133434 223.406682 
L 248.133434 223.052047 
L 248.323236 223.052047 
L 248.323236 222.697412 
L 248.776902 222.697412 
L 248.776902 222.342776 
L 250.924787 222.342776 
L 250.954159 221.633506 
L 251.853141 221.633506 
L 251.853141 221.278871 
L 254.771575 221.278871 
L 254.771575 220.924235 
L 276.362129 220.924235 
L 276.457815 220.214965 
L 276.490479 220.214965 
L 276.544893 219.151059 
L 276.666998 219.151059 
L 276.702953 218.441788 
L 276.784812 218.441788 
L 276.838871 217.023247 
L 277.12495 217.023247 
L 277.196764 216.313976 
L 277.300517 216.313976 
L 277.311443 215.604706 
L 277.67104 215.604706 
L 277.725544 214.186165 
L 277.954894 214.186165 
L 277.954894 213.476894 
L 278.314047 213.476894 
L 278.356241 212.058353 
L 279.035588 212.058353 
L 279.035588 211.703718 
L 288.405709 211.703718 
L 288.405709 211.349082 
L 288.700308 211.349082 
L 288.700308 210.994447 
L 288.878632 210.994447 
L 288.878632 210.285176 
L 289.030889 210.285176 
L 289.109501 208.866635 
L 289.159646 208.866635 
L 289.159646 208.512 
L 289.333705 208.512 
L 289.433097 207.802729 
L 289.456473 207.802729 
L 289.505319 207.093459 
L 289.836051 207.093459 
L 289.839766 206.384188 
L 289.955935 206.384188 
L 289.955935 206.029553 
L 290.367887 206.029553 
L 290.367887 205.674918 
L 295.803406 205.674918 
L 295.803406 205.320282 
L 295.996733 205.320282 
L 296.040946 204.256376 
L 296.151163 204.256376 
L 296.151163 203.547106 
L 296.305646 203.547106 
L 296.390479 202.4832 
L 296.737366 202.4832 
L 296.737366 202.128565 
L 297.025582 202.128565 
L 297.025582 201.773929 
L 301.142395 201.773929 
L 301.145472 201.064659 
L 301.289338 201.064659 
L 301.289338 200.710024 
L 301.647324 200.710024 
L 301.647324 199.646118 
L 305.15756 199.646118 
L 305.190226 198.936847 
L 305.426152 198.936847 
L 305.426152 197.872941 
L 308.734868 197.872941 
L 308.734868 197.518306 
L 311.519507 197.518306 
L 311.62392 196.809035 
L 311.660487 196.809035 
L 311.660487 196.4544 
L 311.791409 196.4544 
L 311.791409 195.745129 
L 314.041123 195.745129 
L 314.041123 195.390494 
L 315.938981 195.390494 
L 315.938981 195.035859 
L 316.316182 195.035859 
L 316.316182 194.681224 
L 317.899441 194.681224 
L 317.899441 194.326588 
L 318.133763 194.326588 
L 318.133763 193.617318 
L 319.960879 193.617318 
L 319.960879 193.262682 
L 321.293239 193.262682 
L 321.391122 191.844141 
L 322.77659 191.844141 
L 322.77659 191.489506 
L 322.920039 191.489506 
L 322.920039 191.134871 
L 324.284849 191.134871 
L 324.304108 190.4256 
L 325.557303 190.4256 
L 325.557303 190.070965 
L 328.880537 190.070965 
L 328.94268 189.361694 
L 329.992964 189.361694 
L 329.992964 189.007059 
L 330.834808 189.007059 
L 330.879845 188.297788 
L 332.660724 188.297788 
L 332.660724 187.588518 
L 333.526914 187.588518 
L 333.526914 187.233882 
L 334.276168 187.233882 
L 334.315609 186.524612 
L 335.03468 186.524612 
L 335.03468 186.169976 
L 335.800235 186.169976 
L 335.800235 185.815341 
L 336.455604 185.815341 
L 336.455604 185.460706 
L 337.176214 185.460706 
L 337.176214 185.106071 
L 338.417645 185.106071 
L 338.458371 184.3968 
L 339.620481 184.3968 
L 339.629006 183.687529 
L 341.291771 183.687529 
L 341.326733 182.978259 
L 342.858842 182.978259 
L 342.858842 182.623624 
L 346.401874 182.623624 
L 346.401874 182.268988 
L 356.759354 182.268988 
L 356.759354 181.914353 
L 360.8064 181.914353 
L 360.8064 181.914353 
" style="fill: none; stroke: #ff00ff; stroke-width: 1.5; stroke-linecap: square"/>
   </g>
   <g id="line2d_41">
    <defs>
     <path id="mcc3967a137" d="M 0 8.485281 
L 5.091169 0 
L 0 -8.485281 
L -5.091169 0 
z
" style="stroke: #ff00ff; stroke-width: 1.5; stroke-linejoin: miter"/>
    </defs>
    <g>
     <use xlink:href="#mcc3967a137" x="194.718615" y="292.560565" style="fill-opacity: 0; stroke: #ff00ff; stroke-width: 1.5; stroke-linejoin: miter"/>
     <use xlink:href="#mcc3967a137" x="248.133434" y="223.406682" style="fill-opacity: 0; stroke: #ff00ff; stroke-width: 1.5; stroke-linejoin: miter"/>
     <use xlink:href="#mcc3967a137" x="324.304108" y="190.4256" style="fill-opacity: 0; stroke: #ff00ff; stroke-width: 1.5; stroke-linejoin: miter"/>
     <use xlink:href="#mcc3967a137" x="356.759354" y="181.914353" style="fill-opacity: 0; stroke: #ff00ff; stroke-width: 1.5; stroke-linejoin: miter"/>
     <use xlink:href="#mcc3967a137" x="360.8064" y="181.914353" style="fill-opacity: 0; stroke: #ff00ff; stroke-width: 1.5; stroke-linejoin: miter"/>
    </g>
   </g>
   <g id="line2d_42">
    <path style="fill: none; stroke: #ff00ff; stroke-width: 1.5; stroke-linecap: square"/>
    <g/>
   </g>
   <g id="line2d_43">
    <path d="M 274.255293 220.924235 
" clip-path="url(#p9b5016dbeb)" style="fill: none; stroke: #ff00ff; stroke-width: 1.5; stroke-linecap: square"/>
    <defs>
     <path id="m05cb40118d" d="M -12 12 
L 12 -12 
M -12 -12 
L 12 12 
" style="stroke: #ff00ff"/>
    </defs>
    <g clip-path="url(#p9b5016dbeb)">
     <use xlink:href="#m05cb40118d" x="274.255293" y="220.924235" style="fill: #ff00ff; stroke: #ff00ff"/>
    </g>
   </g>
   <g id="line2d_44">
    <defs>
     <path id="m84a8193b39" d="M 0 1.5 
C 0.397805 1.5 0.77937 1.341951 1.06066 1.06066 
C 1.341951 0.77937 1.5 0.397805 1.5 0 
C 1.5 -0.397805 1.341951 -0.77937 1.06066 -1.06066 
C 0.77937 -1.341951 0.397805 -1.5 0 -1.5 
C -0.397805 -1.5 -0.77937 -1.341951 -1.06066 -1.06066 
C -1.341951 -0.77937 -1.5 -0.397805 -1.5 0 
C -1.5 0.397805 -1.341951 0.77937 -1.06066 1.06066 
C -0.77937 1.341951 -0.397805 1.5 0 1.5 
z
" style="stroke: #ff7500"/>
    </defs>
    <g>
     <use xlink:href="#m84a8193b39" x="340.518069" y="213.831529" style="fill: #ff7500; stroke: #ff7500"/>
     <use xlink:href="#m84a8193b39" x="340.518069" y="213.831529" style="fill: #ff7500; stroke: #ff7500"/>
    </g>
   </g>
   <g id="line2d_45">
    <path d="M 122.677931 298.944 
L 122.677931 298.589365 
L 124.156336 298.589365 
L 124.156336 298.234729 
L 127.366067 298.234729 
L 127.366067 297.880094 
L 130.656987 297.880094 
L 130.656987 297.525459 
L 131.41562 297.525459 
L 131.41562 296.816188 
L 135.657857 296.816188 
L 135.657857 296.461553 
L 136.864507 296.461553 
L 136.864507 296.106918 
L 138.36167 296.106918 
L 138.36167 295.752282 
L 139.508159 295.752282 
L 139.508159 294.688376 
L 139.891105 294.688376 
L 139.891105 294.333741 
L 140.219905 294.333741 
L 140.219905 293.979106 
L 140.359078 293.979106 
L 140.359078 293.624471 
L 143.02636 293.624471 
L 143.02636 293.269835 
L 144.041338 293.269835 
L 144.041338 292.560565 
L 144.155003 292.560565 
L 144.155003 292.205929 
L 144.931992 292.205929 
L 144.931992 291.851294 
L 145.219746 291.851294 
L 145.219746 291.496659 
L 145.538293 291.496659 
L 145.538293 290.432753 
L 147.216013 290.432753 
L 147.216013 290.078118 
L 147.753975 290.078118 
L 147.753975 289.723482 
L 148.844805 289.723482 
L 148.844805 289.368847 
L 149.395993 289.368847 
L 149.395993 289.014212 
L 149.595059 289.014212 
L 149.595059 288.659576 
L 149.73597 288.659576 
L 149.73597 288.304941 
L 150.425115 288.304941 
L 150.425115 287.950306 
L 150.667154 287.950306 
L 150.667154 287.595671 
L 152.279463 287.595671 
L 152.279463 287.241035 
L 152.523139 287.241035 
L 152.523139 286.8864 
L 153.235783 286.8864 
L 153.235783 286.531765 
L 153.854866 286.531765 
L 153.854866 286.177129 
L 153.989717 286.177129 
L 154.012098 285.467859 
L 154.628204 285.467859 
L 154.628204 285.113224 
L 154.928852 285.113224 
L 154.928852 284.758588 
L 155.516105 284.758588 
L 155.516105 284.403953 
L 155.701037 284.403953 
L 155.701037 284.049318 
L 155.823323 284.049318 
L 155.823323 283.694682 
L 156.025382 283.694682 
L 156.025382 283.340047 
L 156.205398 283.340047 
L 156.205398 282.985412 
L 156.870325 282.985412 
L 156.870325 282.630776 
L 157.288377 282.630776 
L 157.288377 282.276141 
L 157.642093 282.276141 
L 157.642093 281.921506 
L 158.471883 281.921506 
L 158.471883 281.212235 
L 158.907961 281.212235 
L 158.907961 280.8576 
L 159.130788 280.8576 
L 159.130788 280.502965 
L 160.174762 280.502965 
L 160.174762 280.148329 
L 161.34647 280.148329 
L 161.34647 279.793694 
L 161.632069 279.793694 
L 161.676769 278.729788 
L 162.690724 278.729788 
L 162.690724 278.375153 
L 163.59914 278.375153 
L 163.692963 277.665882 
L 164.011136 277.665882 
L 164.063646 276.956612 
L 164.129077 276.956612 
L 164.129077 276.601976 
L 164.771172 276.601976 
L 164.771172 275.892706 
L 165.021997 275.892706 
L 165.021997 275.538071 
L 165.133786 275.538071 
L 165.133786 275.183435 
L 165.318637 275.183435 
L 165.318637 274.8288 
L 166.239959 274.8288 
L 166.239959 274.474165 
L 167.262578 274.474165 
L 167.317792 273.410259 
L 167.91469 273.410259 
L 167.91469 272.700988 
L 168.042443 272.700988 
L 168.042443 272.346353 
L 169.104709 272.346353 
L 169.124754 271.637082 
L 170.157651 271.637082 
L 170.157651 271.282447 
L 170.374474 271.282447 
L 170.477296 270.573176 
L 171.315934 270.573176 
L 171.324847 269.863906 
L 172.682617 269.863906 
L 172.682617 269.509271 
L 173.894614 269.509271 
L 173.917919 268.8 
L 174.203007 268.8 
L 174.203007 268.445365 
L 174.317363 268.445365 
L 174.317363 268.090729 
L 175.316441 268.090729 
L 175.316441 267.736094 
L 175.452888 267.736094 
L 175.502909 267.026824 
L 176.564266 267.026824 
L 176.564266 266.672188 
L 177.401939 266.672188 
L 177.401939 266.317553 
L 177.607251 266.317553 
L 177.607251 265.962918 
L 178.247119 265.962918 
L 178.247119 265.608282 
L 178.4068 265.608282 
L 178.4068 265.253647 
L 178.877868 265.253647 
L 178.895753 264.544376 
L 179.557313 264.544376 
L 179.557313 264.189741 
L 179.888049 264.189741 
L 179.888049 263.835106 
L 181.604776 263.835106 
L 181.604776 263.480471 
L 181.855908 263.480471 
L 181.855908 263.125835 
L 182.168936 263.125835 
L 182.168936 262.7712 
L 182.358249 262.7712 
L 182.358249 261.707294 
L 183.073159 261.707294 
L 183.073159 261.352659 
L 183.862832 261.352659 
L 183.862832 260.998024 
L 184.930188 260.998024 
L 184.930188 260.643388 
L 185.812768 260.643388 
L 185.812768 260.288753 
L 188.283402 260.288753 
L 188.283402 259.934118 
L 189.21844 259.934118 
L 189.21844 259.579482 
L 190.337611 259.579482 
L 190.337611 259.224847 
L 192.347478 259.224847 
L 192.347478 258.870212 
L 193.291095 258.870212 
L 193.291095 258.515576 
L 261.834575 258.515576 
L 261.834575 258.160941 
L 262.926201 258.160941 
L 262.926201 257.806306 
L 274.223496 257.806306 
L 274.318241 251.422871 
L 274.37063 251.422871 
L 274.417266 249.649694 
L 282.038899 249.649694 
L 282.038899 249.295059 
L 282.418993 249.295059 
L 282.418993 248.940424 
L 287.24724 248.940424 
L 287.336194 242.911624 
L 294.86024 242.911624 
L 294.9152 236.882824 
L 300.269496 236.882824 
L 300.308823 233.336471 
L 304.464858 233.336471 
L 304.491113 230.854024 
L 307.895009 230.854024 
L 307.918111 228.371576 
L 310.797976 228.371576 
L 310.809518 225.179859 
L 313.30835 225.179859 
L 313.317963 224.470588 
L 315.533436 224.470588 
L 315.533436 223.761318 
L 317.505473 223.761318 
L 317.513009 222.697412 
L 319.299722 222.697412 
L 319.299722 222.342776 
L 320.930192 222.342776 
L 320.942215 220.5696 
L 322.443457 220.5696 
L 322.443457 220.214965 
L 323.8286 220.214965 
L 323.8286 219.860329 
L 325.130062 219.860329 
L 325.13317 218.441788 
L 326.341619 218.441788 
L 326.341619 218.087153 
L 327.481863 218.087153 
L 327.481863 217.732518 
L 328.560499 217.732518 
L 328.561865 216.668612 
L 329.574495 216.668612 
L 329.574495 216.313976 
L 331.459752 216.313976 
L 331.459752 215.959341 
L 333.168999 215.959341 
L 333.168999 215.604706 
L 333.970241 215.604706 
L 333.970241 215.250071 
L 337.526807 215.250071 
L 337.526807 214.895435 
L 338.16352 214.895435 
L 338.16352 214.5408 
L 338.78094 214.5408 
L 338.78094 214.186165 
L 340.518069 214.186165 
L 340.518069 213.831529 
L 360.8064 213.831529 
L 360.8064 213.831529 
" style="fill: none; stroke: #ff7500; stroke-width: 1.5; stroke-linecap: square"/>
   </g>
   <g id="line2d_46">
    <defs>
     <path id="m3349cbb162" d="M 0 -6 
L -1.347084 -1.854102 
L -5.706339 -1.854102 
L -2.179628 0.708204 
L -3.526712 4.854102 
L -0 2.291796 
L 3.526712 4.854102 
L 2.179628 0.708204 
L 5.706339 -1.854102 
L 1.347084 -1.854102 
z
" style="stroke: #ff7500; stroke-width: 1.5; stroke-linejoin: bevel"/>
    </defs>
    <g>
     <use xlink:href="#m3349cbb162" x="173.917919" y="269.154635" style="fill-opacity: 0; stroke: #ff7500; stroke-width: 1.5; stroke-linejoin: bevel"/>
     <use xlink:href="#m3349cbb162" x="193.291095" y="258.515576" style="fill-opacity: 0; stroke: #ff7500; stroke-width: 1.5; stroke-linejoin: bevel"/>
     <use xlink:href="#m3349cbb162" x="310.809518" y="225.889129" style="fill-opacity: 0; stroke: #ff7500; stroke-width: 1.5; stroke-linejoin: bevel"/>
     <use xlink:href="#m3349cbb162" x="340.518069" y="213.831529" style="fill-opacity: 0; stroke: #ff7500; stroke-width: 1.5; stroke-linejoin: bevel"/>
     <use xlink:href="#m3349cbb162" x="360.8064" y="213.831529" style="fill-opacity: 0; stroke: #ff7500; stroke-width: 1.5; stroke-linejoin: bevel"/>
    </g>
   </g>
   <g id="line2d_47">
    <path style="fill: none; stroke: #ff7500; stroke-width: 1.5; stroke-linecap: square"/>
    <g/>
   </g>
   <g id="line2d_48">
    <path d="M 274.176 257.806306 
" clip-path="url(#p9b5016dbeb)" style="fill: none; stroke: #ff7500; stroke-width: 1.5; stroke-linecap: square"/>
    <defs>
     <path id="m30c17172b0" d="M -12 12 
L 12 -12 
M -12 -12 
L 12 12 
" style="stroke: #ff7500"/>
    </defs>
    <g clip-path="url(#p9b5016dbeb)">
     <use xlink:href="#m30c17172b0" x="274.176" y="257.806306" style="fill: #ff7500; stroke: #ff7500"/>
    </g>
   </g>
   <g id="line2d_49">
    <defs>
     <path id="m1da254b014" d="M 0 1.5 
C 0.397805 1.5 0.77937 1.341951 1.06066 1.06066 
C 1.341951 0.77937 1.5 0.397805 1.5 0 
C 1.5 -0.397805 1.341951 -0.77937 1.06066 -1.06066 
C 0.77937 -1.341951 0.397805 -1.5 0 -1.5 
C -0.397805 -1.5 -0.77937 -1.341951 -1.06066 -1.06066 
C -1.341951 -0.77937 -1.5 -0.397805 -1.5 0 
C -1.5 0.397805 -1.341951 0.77937 -1.06066 1.06066 
C -0.77937 1.341951 -0.397805 1.5 0 1.5 
z
" style="stroke: #6495ed"/>
    </defs>
    <g>
     <use xlink:href="#m1da254b014" x="323.427128" y="224.470588" style="fill: #6495ed; stroke: #6495ed"/>
     <use xlink:href="#m1da254b014" x="323.427128" y="224.470588" style="fill: #6495ed; stroke: #6495ed"/>
    </g>
   </g>
   <g id="line2d_50">
    <path d="M 133.656071 298.944 
L 133.656071 298.589365 
L 133.853052 298.589365 
L 133.853052 298.234729 
L 138.206842 298.234729 
L 138.206842 297.880094 
L 138.616919 297.880094 
L 138.616919 297.525459 
L 139.018248 297.525459 
L 139.018248 297.170824 
L 139.362521 297.170824 
L 139.362521 296.816188 
L 142.164612 296.816188 
L 142.164612 296.461553 
L 144.079302 296.461553 
L 144.079302 296.106918 
L 145.503164 296.106918 
L 145.503164 295.752282 
L 146.261241 295.752282 
L 146.362288 295.043012 
L 147.087167 295.043012 
L 147.087167 294.688376 
L 148.185734 294.688376 
L 148.185734 294.333741 
L 148.367783 294.333741 
L 148.367783 293.979106 
L 148.932916 293.979106 
L 148.932916 293.624471 
L 149.165879 293.624471 
L 149.165879 293.269835 
L 149.679732 293.269835 
L 149.679732 292.9152 
L 151.731998 292.9152 
L 151.782431 292.205929 
L 152.303973 292.205929 
L 152.303973 291.851294 
L 155.18278 291.851294 
L 155.18278 291.142024 
L 155.391799 291.142024 
L 155.454055 290.078118 
L 156.540799 290.078118 
L 156.579868 289.368847 
L 157.023421 289.368847 
L 157.023421 289.014212 
L 158.294582 289.014212 
L 158.294582 288.659576 
L 158.630038 288.659576 
L 158.630038 288.304941 
L 159.783859 288.304941 
L 159.783859 287.950306 
L 160.335271 287.950306 
L 160.335271 287.595671 
L 161.17912 287.595671 
L 161.240147 286.8864 
L 163.136649 286.8864 
L 163.136649 286.531765 
L 163.558786 286.531765 
L 163.558786 286.177129 
L 164.568077 286.177129 
L 164.568077 285.822494 
L 165.257222 285.822494 
L 165.367626 285.113224 
L 167.229371 285.113224 
L 167.229371 284.758588 
L 167.427738 284.758588 
L 167.427738 284.403953 
L 167.558829 284.403953 
L 167.558829 284.049318 
L 169.403154 284.049318 
L 169.403154 283.694682 
L 170.129185 283.694682 
L 170.129185 283.340047 
L 171.79131 283.340047 
L 171.79131 282.985412 
L 172.440637 282.985412 
L 172.524431 282.276141 
L 173.366453 282.276141 
L 173.366453 281.921506 
L 174.23357 281.921506 
L 174.23357 281.566871 
L 174.930512 281.566871 
L 174.930512 281.212235 
L 176.10684 281.212235 
L 176.10684 280.8576 
L 176.577751 280.8576 
L 176.577751 280.502965 
L 178.054941 280.502965 
L 178.054941 280.148329 
L 179.24407 280.148329 
L 179.24407 279.793694 
L 179.768971 279.793694 
L 179.854104 278.729788 
L 180.201956 278.729788 
L 180.201956 278.375153 
L 180.46143 278.375153 
L 180.46143 278.020518 
L 181.74869 278.020518 
L 181.74869 277.665882 
L 182.188953 277.665882 
L 182.188953 277.311247 
L 182.624036 277.311247 
L 182.624036 276.956612 
L 185.037967 276.956612 
L 185.037967 276.601976 
L 185.298382 276.601976 
L 185.404078 275.892706 
L 185.622039 275.892706 
L 185.622039 275.538071 
L 190.31814 275.538071 
L 190.31814 275.183435 
L 191.52531 275.183435 
L 191.52531 274.8288 
L 191.800377 274.8288 
L 191.800377 274.119529 
L 192.335815 274.119529 
L 192.335815 273.764894 
L 193.177094 273.764894 
L 193.177094 273.410259 
L 193.968988 273.410259 
L 194.049038 272.346353 
L 194.13405 272.346353 
L 194.13405 271.991718 
L 194.407716 271.991718 
L 194.407716 271.637082 
L 195.606922 271.637082 
L 195.606922 271.282447 
L 196.920301 271.282447 
L 196.920301 270.927812 
L 197.106804 270.927812 
L 197.111329 270.218541 
L 198.692443 270.218541 
L 198.692443 269.863906 
L 199.255981 269.863906 
L 199.255981 269.509271 
L 200.868559 269.509271 
L 200.868559 269.154635 
L 201.260977 269.154635 
L 201.260977 268.8 
L 203.039716 268.8 
L 203.039716 268.445365 
L 204.622249 268.445365 
L 204.622249 268.090729 
L 204.923385 268.090729 
L 204.923385 267.736094 
L 205.482593 267.736094 
L 205.482593 267.381459 
L 205.940945 267.381459 
L 205.940945 267.026824 
L 206.116998 267.026824 
L 206.116998 266.672188 
L 206.258056 266.672188 
L 206.258056 266.317553 
L 206.471119 266.317553 
L 206.534295 265.253647 
L 206.78896 265.253647 
L 206.78896 264.899012 
L 207.207651 264.899012 
L 207.207651 264.544376 
L 207.45342 264.544376 
L 207.45342 264.189741 
L 209.523605 264.189741 
L 209.523605 263.835106 
L 209.89422 263.835106 
L 209.89422 263.480471 
L 211.432824 263.480471 
L 211.480318 262.7712 
L 211.645089 262.7712 
L 211.744095 262.061929 
L 211.850852 262.061929 
L 211.850852 261.707294 
L 212.000122 261.707294 
L 212.000122 261.352659 
L 212.160422 261.352659 
L 212.204088 260.643388 
L 212.858963 260.643388 
L 212.95667 259.224847 
L 213.951228 259.224847 
L 213.951228 258.870212 
L 215.6742 258.870212 
L 215.6742 258.515576 
L 215.932206 258.515576 
L 215.932206 258.160941 
L 216.266987 258.160941 
L 216.296387 257.451671 
L 216.495255 257.451671 
L 216.581452 256.033129 
L 216.619992 256.033129 
L 216.619992 255.678494 
L 216.834528 255.678494 
L 216.834528 255.323859 
L 217.016825 255.323859 
L 217.095197 254.614588 
L 217.226907 254.614588 
L 217.328372 253.905318 
L 217.709173 253.905318 
L 217.709173 253.550682 
L 219.9172 253.550682 
L 219.9172 253.196047 
L 220.448147 253.196047 
L 220.448147 252.841412 
L 221.00967 252.841412 
L 221.00967 252.486776 
L 224.795219 252.486776 
L 224.795219 252.132141 
L 225.38876 252.132141 
L 225.38876 251.422871 
L 225.737779 251.422871 
L 225.737779 251.068235 
L 231.359412 251.068235 
L 231.359412 250.7136 
L 232.743471 250.7136 
L 232.743471 250.358965 
L 245.184338 250.358965 
L 245.184338 250.004329 
L 245.401129 250.004329 
L 245.401129 249.649694 
L 246.25327 249.649694 
L 246.328151 248.231153 
L 247.00096 248.231153 
L 247.105478 246.457976 
L 247.112615 246.457976 
L 247.221247 245.039435 
L 247.84372 245.039435 
L 247.947464 243.620894 
L 247.980354 243.620894 
L 247.980354 243.266259 
L 248.657789 243.266259 
L 248.665675 242.556988 
L 248.78764 242.556988 
L 248.78764 242.202353 
L 249.724861 242.202353 
L 249.724861 241.847718 
L 249.875117 241.847718 
L 249.981208 240.429176 
L 258.236071 240.429176 
L 258.236071 240.074541 
L 258.610956 240.074541 
L 258.680364 238.301365 
L 258.936356 238.301365 
L 259.02698 237.592094 
L 259.412408 237.592094 
L 259.471446 236.882824 
L 260.172315 236.882824 
L 260.172315 236.528188 
L 261.243448 236.528188 
L 261.243448 236.173553 
L 265.673587 236.173553 
L 265.673587 235.818918 
L 266.250486 235.818918 
L 266.295155 235.109647 
L 266.781701 235.109647 
L 266.787999 234.400376 
L 270.611285 234.400376 
L 270.620014 233.691106 
L 270.871043 233.691106 
L 270.871043 233.336471 
L 271.292138 233.336471 
L 271.292138 232.981835 
L 272.256856 232.981835 
L 272.258731 231.917929 
L 274.854852 231.917929 
L 274.854852 231.563294 
L 275.23461 231.563294 
L 275.23461 231.208659 
L 276.023543 231.208659 
L 276.024737 230.144753 
L 278.212776 230.144753 
L 278.212776 229.790118 
L 279.159633 229.790118 
L 279.159633 229.435482 
L 281.025807 229.435482 
L 281.025807 229.080847 
L 281.84657 229.080847 
L 281.84657 228.726212 
L 283.474478 228.726212 
L 283.47457 228.016941 
L 286.008227 228.016941 
L 286.008227 227.662306 
L 287.641579 227.662306 
L 287.641579 227.307671 
L 291.001484 227.307671 
L 291.001484 226.953035 
L 292.691184 226.953035 
L 292.691184 226.5984 
L 297.765739 226.5984 
L 297.765739 226.243765 
L 299.582343 226.243765 
L 299.582343 225.889129 
L 304.843574 225.889129 
L 304.843574 225.534494 
L 315.731659 225.534494 
L 315.731659 225.179859 
L 323.14907 225.179859 
L 323.14907 224.825224 
L 323.427128 224.825224 
L 323.427128 224.470588 
L 360.8064 224.470588 
L 360.8064 224.470588 
" style="fill: none; stroke: #6495ed; stroke-width: 1.5; stroke-linecap: square"/>
   </g>
   <g id="line2d_51">
    <defs>
     <path id="mb61eae29e2" d="M -0 6 
L 6 -6 
L -6 -6 
z
" style="stroke: #6495ed; stroke-width: 1.5; stroke-linejoin: miter"/>
    </defs>
    <g>
     <use xlink:href="#mb61eae29e2" x="225.737779" y="251.422871" style="fill-opacity: 0; stroke: #6495ed; stroke-width: 1.5; stroke-linejoin: miter"/>
     <use xlink:href="#mb61eae29e2" x="292.691184" y="226.953035" style="fill-opacity: 0; stroke: #6495ed; stroke-width: 1.5; stroke-linejoin: miter"/>
     <use xlink:href="#mb61eae29e2" x="323.427128" y="224.470588" style="fill-opacity: 0; stroke: #6495ed; stroke-width: 1.5; stroke-linejoin: miter"/>
     <use xlink:href="#mb61eae29e2" x="323.427128" y="224.470588" style="fill-opacity: 0; stroke: #6495ed; stroke-width: 1.5; stroke-linejoin: miter"/>
     <use xlink:href="#mb61eae29e2" x="360.8064" y="224.470588" style="fill-opacity: 0; stroke: #6495ed; stroke-width: 1.5; stroke-linejoin: miter"/>
    </g>
   </g>
   <g id="line2d_52">
    <path style="fill: none; stroke: #6495ed; stroke-width: 1.5; stroke-linecap: square"/>
    <g/>
   </g>
   <g id="line2d_53">
    <path d="M 243.909942 250.358965 
" clip-path="url(#p9b5016dbeb)" style="fill: none; stroke: #6495ed; stroke-width: 1.5; stroke-linecap: square"/>
    <defs>
     <path id="m903fa3256a" d="M -12 12 
L 12 -12 
M -12 -12 
L 12 12 
" style="stroke: #6495ed"/>
    </defs>
    <g clip-path="url(#p9b5016dbeb)">
     <use xlink:href="#m903fa3256a" x="243.909942" y="250.358965" style="fill: #6495ed; stroke: #6495ed"/>
    </g>
   </g>
   <g id="line2d_54">
    <path d="M 360.8064 224.470588 
L 380.514816 293.51808 
" style="fill: none; stroke: #6495ed; stroke-width: 1.5; stroke-linecap: square"/>
    <g>
     <use xlink:href="#mb61eae29e2" x="360.8064" y="224.470588" style="fill-opacity: 0; stroke: #6495ed; stroke-width: 1.5; stroke-linejoin: miter"/>
     <use xlink:href="#mb61eae29e2" x="380.514816" y="293.51808" style="fill-opacity: 0; stroke: #6495ed; stroke-width: 1.5; stroke-linejoin: miter"/>
    </g>
   </g>
   <g id="line2d_55">
    <path d="M 360.8064 213.831529 
L 380.514816 228.40704 
" style="fill: none; stroke: #ff7500; stroke-width: 1.5; stroke-linecap: square"/>
    <g>
     <use xlink:href="#m3349cbb162" x="360.8064" y="213.831529" style="fill-opacity: 0; stroke: #ff7500; stroke-width: 1.5; stroke-linejoin: bevel"/>
     <use xlink:href="#m3349cbb162" x="380.514816" y="228.40704" style="fill-opacity: 0; stroke: #ff7500; stroke-width: 1.5; stroke-linejoin: bevel"/>
    </g>
   </g>
   <g id="line2d_56">
    <path d="M 360.8064 192.553412 
L 380.514816 163.296 
" style="fill: none; stroke: #000080; stroke-width: 1.5; stroke-linecap: square"/>
    <g>
     <use xlink:href="#m61e8600af9" x="360.8064" y="192.553412" style="fill-opacity: 0; stroke: #000080; stroke-width: 1.5"/>
     <use xlink:href="#m61e8600af9" x="380.514816" y="163.296" style="fill-opacity: 0; stroke: #000080; stroke-width: 1.5"/>
    </g>
   </g>
   <g id="line2d_57">
    <path d="M 360.8064 181.914353 
L 380.514816 98.18496 
" style="fill: none; stroke: #ff00ff; stroke-width: 1.5; stroke-linecap: square"/>
    <g>
     <use xlink:href="#mcc3967a137" x="360.8064" y="181.914353" style="fill-opacity: 0; stroke: #ff00ff; stroke-width: 1.5; stroke-linejoin: miter"/>
     <use xlink:href="#mcc3967a137" x="380.514816" y="98.18496" style="fill-opacity: 0; stroke: #ff00ff; stroke-width: 1.5; stroke-linejoin: miter"/>
    </g>
   </g>
   <g id="line2d_58">
    <path d="M 360.8064 298.944 
L 360.8064 27.648 
" style="fill: none; stroke: #000000; stroke-width: 1.5; stroke-linecap: square"/>
   </g>
   <g id="patch_3">
    <path d="M 57.6 298.944 
L 360.8064 298.944 
" style="fill: none; stroke: #000000; stroke-width: 0.8; stroke-linejoin: miter; stroke-linecap: square"/>
   </g>
   <g id="patch_4">
    <path d="M 57.6 27.648 
L 360.8064 27.648 
" style="fill: none; stroke: #000000; stroke-width: 0.8; stroke-linejoin: miter; stroke-linecap: square"/>
   </g>
   <g id="text_13">
    <!-- EvoSpace- -->
    <g transform="translate(386.578944 297.381205)scale(0.14 -0.14)">
     <defs>
      <path id="DejaVuSans-45" d="M 628 4666 
L 3578 4666 
L 3578 4134 
L 1259 4134 
L 1259 2753 
L 3481 2753 
L 3481 2222 
L 1259 2222 
L 1259 531 
L 3634 531 
L 3634 0 
L 628 0 
L 628 4666 
z
" transform="scale(0.015625)"/>
      <path id="DejaVuSans-53" d="M 3425 4513 
L 3425 3897 
Q 3066 4069 2747 4153 
Q 2428 4238 2131 4238 
Q 1616 4238 1336 4038 
Q 1056 3838 1056 3469 
Q 1056 3159 1242 3001 
Q 1428 2844 1947 2747 
L 2328 2669 
Q 3034 2534 3370 2195 
Q 3706 1856 3706 1288 
Q 3706 609 3251 259 
Q 2797 -91 1919 -91 
Q 1588 -91 1214 -16 
Q 841 59 441 206 
L 441 856 
Q 825 641 1194 531 
Q 1563 422 1919 422 
Q 2459 422 2753 634 
Q 3047 847 3047 1241 
Q 3047 1584 2836 1778 
Q 2625 1972 2144 2069 
L 1759 2144 
Q 1053 2284 737 2584 
Q 422 2884 422 3419 
Q 422 4038 858 4394 
Q 1294 4750 2059 4750 
Q 2388 4750 2728 4690 
Q 3069 4631 3425 4513 
z
" transform="scale(0.015625)"/>
     </defs>
     <use xlink:href="#DejaVuSans-45"/>
     <use xlink:href="#DejaVuSans-76" x="63.183594"/>
     <use xlink:href="#DejaVuSans-6f" x="122.363281"/>
     <use xlink:href="#DejaVuSans-53" x="183.544922"/>
     <use xlink:href="#DejaVuSans-70" x="247.021484"/>
     <use xlink:href="#DejaVuSans-61" x="310.498047"/>
     <use xlink:href="#DejaVuSans-63" x="371.777344"/>
     <use xlink:href="#DejaVuSans-65" x="426.757812"/>
     <use xlink:href="#DejaVuSans-2d" x="488.28125"/>
    </g>
   </g>
   <g id="text_14">
    <!-- PSO -->
    <g transform="translate(386.578944 232.270165)scale(0.14 -0.14)">
     <defs>
      <path id="DejaVuSans-50" d="M 1259 4147 
L 1259 2394 
L 2053 2394 
Q 2494 2394 2734 2622 
Q 2975 2850 2975 3272 
Q 2975 3691 2734 3919 
Q 2494 4147 2053 4147 
L 1259 4147 
z
M 628 4666 
L 2053 4666 
Q 2838 4666 3239 4311 
Q 3641 3956 3641 3272 
Q 3641 2581 3239 2228 
Q 2838 1875 2053 1875 
L 1259 1875 
L 1259 0 
L 628 0 
L 628 4666 
z
" transform="scale(0.015625)"/>
      <path id="DejaVuSans-4f" d="M 2522 4238 
Q 1834 4238 1429 3725 
Q 1025 3213 1025 2328 
Q 1025 1447 1429 934 
Q 1834 422 2522 422 
Q 3209 422 3611 934 
Q 4013 1447 4013 2328 
Q 4013 3213 3611 3725 
Q 3209 4238 2522 4238 
z
M 2522 4750 
Q 3503 4750 4090 4092 
Q 4678 3434 4678 2328 
Q 4678 1225 4090 567 
Q 3503 -91 2522 -91 
Q 1538 -91 948 565 
Q 359 1222 359 2328 
Q 359 3434 948 4092 
Q 1538 4750 2522 4750 
z
" transform="scale(0.015625)"/>
     </defs>
     <use xlink:href="#DejaVuSans-50"/>
     <use xlink:href="#DejaVuSans-53" x="60.302734"/>
     <use xlink:href="#DejaVuSans-4f" x="123.779297"/>
    </g>
   </g>
   <g id="text_15">
    <!-- LCGA -->
    <g transform="translate(386.578944 167.159125)scale(0.14 -0.14)">
     <defs>
      <path id="DejaVuSans-4c" d="M 628 4666 
L 1259 4666 
L 1259 531 
L 3531 531 
L 3531 0 
L 628 0 
L 628 4666 
z
" transform="scale(0.015625)"/>
      <path id="DejaVuSans-43" d="M 4122 4306 
L 4122 3641 
Q 3803 3938 3442 4084 
Q 3081 4231 2675 4231 
Q 1875 4231 1450 3742 
Q 1025 3253 1025 2328 
Q 1025 1406 1450 917 
Q 1875 428 2675 428 
Q 3081 428 3442 575 
Q 3803 722 4122 1019 
L 4122 359 
Q 3791 134 3420 21 
Q 3050 -91 2638 -91 
Q 1578 -91 968 557 
Q 359 1206 359 2328 
Q 359 3453 968 4101 
Q 1578 4750 2638 4750 
Q 3056 4750 3426 4639 
Q 3797 4528 4122 4306 
z
" transform="scale(0.015625)"/>
      <path id="DejaVuSans-47" d="M 3809 666 
L 3809 1919 
L 2778 1919 
L 2778 2438 
L 4434 2438 
L 4434 434 
Q 4069 175 3628 42 
Q 3188 -91 2688 -91 
Q 1594 -91 976 548 
Q 359 1188 359 2328 
Q 359 3472 976 4111 
Q 1594 4750 2688 4750 
Q 3144 4750 3555 4637 
Q 3966 4525 4313 4306 
L 4313 3634 
Q 3963 3931 3569 4081 
Q 3175 4231 2741 4231 
Q 1884 4231 1454 3753 
Q 1025 3275 1025 2328 
Q 1025 1384 1454 906 
Q 1884 428 2741 428 
Q 3075 428 3337 486 
Q 3600 544 3809 666 
z
" transform="scale(0.015625)"/>
      <path id="DejaVuSans-41" d="M 2188 4044 
L 1331 1722 
L 3047 1722 
L 2188 4044 
z
M 1831 4666 
L 2547 4666 
L 4325 0 
L 3669 0 
L 3244 1197 
L 1141 1197 
L 716 0 
L 50 0 
L 1831 4666 
z
" transform="scale(0.015625)"/>
     </defs>
     <use xlink:href="#DejaVuSans-4c"/>
     <use xlink:href="#DejaVuSans-43" x="55.712891"/>
     <use xlink:href="#DejaVuSans-47" x="125.537109"/>
     <use xlink:href="#DejaVuSans-41" x="203.027344"/>
    </g>
   </g>
   <g id="text_16">
    <!-- GA -->
    <g transform="translate(386.578944 102.048085)scale(0.14 -0.14)">
     <use xlink:href="#DejaVuSans-47"/>
     <use xlink:href="#DejaVuSans-41" x="77.490234"/>
    </g>
   </g>
   <g id="text_17">
    <!-- best 2009 -->
    <g transform="translate(386.578944 36.937045)scale(0.14 -0.14)">
     <defs>
      <path id="DejaVuSans-62" d="M 3116 1747 
Q 3116 2381 2855 2742 
Q 2594 3103 2138 3103 
Q 1681 3103 1420 2742 
Q 1159 2381 1159 1747 
Q 1159 1113 1420 752 
Q 1681 391 2138 391 
Q 2594 391 2855 752 
Q 3116 1113 3116 1747 
z
M 1159 2969 
Q 1341 3281 1617 3432 
Q 1894 3584 2278 3584 
Q 2916 3584 3314 3078 
Q 3713 2572 3713 1747 
Q 3713 922 3314 415 
Q 2916 -91 2278 -91 
Q 1894 -91 1617 61 
Q 1341 213 1159 525 
L 1159 0 
L 581 0 
L 581 4863 
L 1159 4863 
L 1159 2969 
z
" transform="scale(0.015625)"/>
      <path id="DejaVuSans-39" d="M 703 97 
L 703 672 
Q 941 559 1184 500 
Q 1428 441 1663 441 
Q 2288 441 2617 861 
Q 2947 1281 2994 2138 
Q 2813 1869 2534 1725 
Q 2256 1581 1919 1581 
Q 1219 1581 811 2004 
Q 403 2428 403 3163 
Q 403 3881 828 4315 
Q 1253 4750 1959 4750 
Q 2769 4750 3195 4129 
Q 3622 3509 3622 2328 
Q 3622 1225 3098 567 
Q 2575 -91 1691 -91 
Q 1453 -91 1209 -44 
Q 966 3 703 97 
z
M 1959 2075 
Q 2384 2075 2632 2365 
Q 2881 2656 2881 3163 
Q 2881 3666 2632 3958 
Q 2384 4250 1959 4250 
Q 1534 4250 1286 3958 
Q 1038 3666 1038 3163 
Q 1038 2656 1286 2365 
Q 1534 2075 1959 2075 
z
" transform="scale(0.015625)"/>
     </defs>
     <use xlink:href="#DejaVuSans-62"/>
     <use xlink:href="#DejaVuSans-65" x="63.476562"/>
     <use xlink:href="#DejaVuSans-73" x="125"/>
     <use xlink:href="#DejaVuSans-74" x="177.099609"/>
     <use xlink:href="#DejaVuSans-20" x="216.308594"/>
     <use xlink:href="#DejaVuSans-32" x="248.095703"/>
     <use xlink:href="#DejaVuSans-30" x="311.71875"/>
     <use xlink:href="#DejaVuSans-30" x="375.341797"/>
     <use xlink:href="#DejaVuSans-39" x="438.964844"/>
    </g>
   </g>
   <g id="text_18">
    <!-- bbob f13, 5-D -->
    <g transform="translate(60.632064 38.111366)scale(0.102 -0.102)">
     <defs>
      <path id="DejaVuSans-33" d="M 2597 2516 
Q 3050 2419 3304 2112 
Q 3559 1806 3559 1356 
Q 3559 666 3084 287 
Q 2609 -91 1734 -91 
Q 1441 -91 1130 -33 
Q 819 25 488 141 
L 488 750 
Q 750 597 1062 519 
Q 1375 441 1716 441 
Q 2309 441 2620 675 
Q 2931 909 2931 1356 
Q 2931 1769 2642 2001 
Q 2353 2234 1838 2234 
L 1294 2234 
L 1294 2753 
L 1863 2753 
Q 2328 2753 2575 2939 
Q 2822 3125 2822 3475 
Q 2822 3834 2567 4026 
Q 2313 4219 1838 4219 
Q 1578 4219 1281 4162 
Q 984 4106 628 3988 
L 628 4550 
Q 988 4650 1302 4700 
Q 1616 4750 1894 4750 
Q 2613 4750 3031 4423 
Q 3450 4097 3450 3541 
Q 3450 3153 3228 2886 
Q 3006 2619 2597 2516 
z
" transform="scale(0.015625)"/>
      <path id="DejaVuSans-35" d="M 691 4666 
L 3169 4666 
L 3169 4134 
L 1269 4134 
L 1269 2991 
Q 1406 3038 1543 3061 
Q 1681 3084 1819 3084 
Q 2600 3084 3056 2656 
Q 3513 2228 3513 1497 
Q 3513 744 3044 326 
Q 2575 -91 1722 -91 
Q 1428 -91 1123 -41 
Q 819 9 494 109 
L 494 744 
Q 775 591 1075 516 
Q 1375 441 1709 441 
Q 2250 441 2565 725 
Q 2881 1009 2881 1497 
Q 2881 1984 2565 2268 
Q 2250 2553 1709 2553 
Q 1456 2553 1204 2497 
Q 953 2441 691 2322 
L 691 4666 
z
" transform="scale(0.015625)"/>
      <path id="DejaVuSans-44" d="M 1259 4147 
L 1259 519 
L 2022 519 
Q 2988 519 3436 956 
Q 3884 1394 3884 2338 
Q 3884 3275 3436 3711 
Q 2988 4147 2022 4147 
L 1259 4147 
z
M 628 4666 
L 1925 4666 
Q 3281 4666 3915 4102 
Q 4550 3538 4550 2338 
Q 4550 1131 3912 565 
Q 3275 0 1925 0 
L 628 0 
L 628 4666 
z
" transform="scale(0.015625)"/>
     </defs>
     <use xlink:href="#DejaVuSans-62"/>
     <use xlink:href="#DejaVuSans-62" x="63.476562"/>
     <use xlink:href="#DejaVuSans-6f" x="126.953125"/>
     <use xlink:href="#DejaVuSans-62" x="188.134766"/>
     <use xlink:href="#DejaVuSans-20" x="251.611328"/>
     <use xlink:href="#DejaVuSans-66" x="283.398438"/>
     <use xlink:href="#DejaVuSans-31" x="318.603516"/>
     <use xlink:href="#DejaVuSans-33" x="382.226562"/>
     <use xlink:href="#DejaVuSans-2c" x="445.849609"/>
     <use xlink:href="#DejaVuSans-20" x="477.636719"/>
     <use xlink:href="#DejaVuSans-35" x="509.423828"/>
     <use xlink:href="#DejaVuSans-2d" x="573.046875"/>
     <use xlink:href="#DejaVuSans-44" x="609.130859"/>
    </g>
    <!-- 51 targets: 100..1e-08 -->
    <g transform="translate(60.632064 49.533135)scale(0.102 -0.102)">
     <defs>
      <path id="DejaVuSans-3a" d="M 750 794 
L 1409 794 
L 1409 0 
L 750 0 
L 750 794 
z
M 750 3309 
L 1409 3309 
L 1409 2516 
L 750 2516 
L 750 3309 
z
" transform="scale(0.015625)"/>
     </defs>
     <use xlink:href="#DejaVuSans-35"/>
     <use xlink:href="#DejaVuSans-31" x="63.623047"/>
     <use xlink:href="#DejaVuSans-20" x="127.246094"/>
     <use xlink:href="#DejaVuSans-74" x="159.033203"/>
     <use xlink:href="#DejaVuSans-61" x="198.242188"/>
     <use xlink:href="#DejaVuSans-72" x="259.521484"/>
     <use xlink:href="#DejaVuSans-67" x="298.884766"/>
     <use xlink:href="#DejaVuSans-65" x="362.361328"/>
     <use xlink:href="#DejaVuSans-74" x="423.884766"/>
     <use xlink:href="#DejaVuSans-73" x="463.09375"/>
     <use xlink:href="#DejaVuSans-3a" x="515.193359"/>
     <use xlink:href="#DejaVuSans-20" x="548.884766"/>
     <use xlink:href="#DejaVuSans-31" x="580.671875"/>
     <use xlink:href="#DejaVuSans-30" x="644.294922"/>
     <use xlink:href="#DejaVuSans-30" x="707.917969"/>
     <use xlink:href="#DejaVuSans-2e" x="771.541016"/>
     <use xlink:href="#DejaVuSans-2e" x="803.328125"/>
     <use xlink:href="#DejaVuSans-31" x="835.115234"/>
     <use xlink:href="#DejaVuSans-65" x="898.738281"/>
     <use xlink:href="#DejaVuSans-2d" x="960.261719"/>
     <use xlink:href="#DejaVuSans-30" x="996.345703"/>
     <use xlink:href="#DejaVuSans-38" x="1059.96875"/>
    </g>
    <!-- 15 instances -->
    <g transform="translate(60.632064 60.954904)scale(0.102 -0.102)">
     <use xlink:href="#DejaVuSans-31"/>
     <use xlink:href="#DejaVuSans-35" x="63.623047"/>
     <use xlink:href="#DejaVuSans-20" x="127.246094"/>
     <use xlink:href="#DejaVuSans-69" x="159.033203"/>
     <use xlink:href="#DejaVuSans-6e" x="186.816406"/>
     <use xlink:href="#DejaVuSans-73" x="250.195312"/>
     <use xlink:href="#DejaVuSans-74" x="302.294922"/>
     <use xlink:href="#DejaVuSans-61" x="341.503906"/>
     <use xlink:href="#DejaVuSans-6e" x="402.783203"/>
     <use xlink:href="#DejaVuSans-63" x="466.162109"/>
     <use xlink:href="#DejaVuSans-65" x="521.142578"/>
     <use xlink:href="#DejaVuSans-73" x="582.666016"/>
    </g>
   </g>
   <g id="text_19">
    <!-- v2.6 -->
    <g style="fill: #808080" transform="translate(198.292262 294.151352)scale(0.1 -0.1)">
     <use xlink:href="#DejaVuSans-76"/>
     <use xlink:href="#DejaVuSans-32" x="59.179688"/>
     <use xlink:href="#DejaVuSans-2e" x="122.802734"/>
     <use xlink:href="#DejaVuSans-36" x="154.589844"/>
    </g>
   </g>
   <g id="text_20">
    <!-- 13 Sharp ridge -->
    <g transform="translate(135.10945 21.648)scale(0.2 -0.2)">
     <defs>
      <path id="DejaVuSans-68" d="M 3513 2113 
L 3513 0 
L 2938 0 
L 2938 2094 
Q 2938 2591 2744 2837 
Q 2550 3084 2163 3084 
Q 1697 3084 1428 2787 
Q 1159 2491 1159 1978 
L 1159 0 
L 581 0 
L 581 4863 
L 1159 4863 
L 1159 2956 
Q 1366 3272 1645 3428 
Q 1925 3584 2291 3584 
Q 2894 3584 3203 3211 
Q 3513 2838 3513 2113 
z
" transform="scale(0.015625)"/>
     </defs>
     <use xlink:href="#DejaVuSans-31"/>
     <use xlink:href="#DejaVuSans-33" x="63.623047"/>
     <use xlink:href="#DejaVuSans-20" x="127.246094"/>
     <use xlink:href="#DejaVuSans-53" x="159.033203"/>
     <use xlink:href="#DejaVuSans-68" x="222.509766"/>
     <use xlink:href="#DejaVuSans-61" x="285.888672"/>
     <use xlink:href="#DejaVuSans-72" x="347.167969"/>
     <use xlink:href="#DejaVuSans-70" x="388.28125"/>
     <use xlink:href="#DejaVuSans-20" x="451.757812"/>
     <use xlink:href="#DejaVuSans-72" x="483.544922"/>
     <use xlink:href="#DejaVuSans-69" x="524.658203"/>
     <use xlink:href="#DejaVuSans-64" x="552.441406"/>
     <use xlink:href="#DejaVuSans-67" x="615.917969"/>
     <use xlink:href="#DejaVuSans-65" x="679.394531"/>
    </g>
   </g>
  </g>
 </g>
 <defs>
  <clipPath id="p9b5016dbeb">
   <rect x="57.6" y="27.648" width="303.2064" height="271.296"/>
  </clipPath>
 </defs>
</svg>
