<?xml version="1.0" encoding="utf-8" standalone="no"?>
<!DOCTYPE svg PUBLIC "-//W3C//DTD SVG 1.1//EN"
  "http://www.w3.org/Graphics/SVG/1.1/DTD/svg11.dtd">
<svg xmlns:xlink="http://www.w3.org/1999/xlink" width="460.8pt" height="345.6pt" viewBox="0 0 460.8 345.6" xmlns="http://www.w3.org/2000/svg" version="1.1">
 <metadata>
  <rdf:RDF xmlns:dc="http://purl.org/dc/elements/1.1/" xmlns:cc="http://creativecommons.org/ns#" xmlns:rdf="http://www.w3.org/1999/02/22-rdf-syntax-ns#">
   <cc:Work>
    <dc:type rdf:resource="http://purl.org/dc/dcmitype/StillImage"/>
    <dc:date>2024-05-29T08:12:05.927330</dc:date>
    <dc:format>image/svg+xml</dc:format>
    <dc:creator>
     <cc:Agent>
      <dc:title>Matplotlib v3.5.1, https://matplotlib.org/</dc:title>
     </cc:Agent>
    </dc:creator>
   </cc:Work>
  </rdf:RDF>
 </metadata>
 <defs>
  <style type="text/css">*{stroke-linejoin: round; stroke-linecap: butt}</style>
 </defs>
 <g id="figure_1">
  <g id="patch_1">
   <path d="M 0 345.6 
L 460.8 345.6 
L 460.8 0 
L 0 0 
z
" style="fill: #ffffff"/>
  </g>
  <g id="axes_1">
   <g id="patch_2">
    <path d="M 57.6 298.944 
L 360.8064 298.944 
L 360.8064 27.648 
L 57.6 27.648 
z
" style="fill: #ffffff"/>
   </g>
   <g id="line2d_1">
    <path d="M 97.857967 298.944 
L 97.857967 293.624471 
L 99.650899 293.624471 
L 99.650899 288.304941 
L 101.922385 288.304941 
L 101.922385 282.985412 
L 104.187532 282.985412 
L 104.187532 277.665882 
L 118.671535 277.665882 
L 118.671535 272.346353 
L 123.145323 272.346353 
L 123.145323 267.026824 
L 123.825333 267.026824 
L 123.825333 261.707294 
L 127.776517 261.707294 
L 127.776517 256.387765 
L 141.436884 256.387765 
L 141.436884 251.068235 
L 142.895549 251.068235 
L 142.895549 245.748706 
L 144.426892 245.748706 
L 144.426892 240.429176 
L 145.773713 240.429176 
L 145.773713 235.109647 
L 146.949293 235.109647 
L 146.949293 229.790118 
L 148.185734 229.790118 
L 148.185734 224.470588 
L 149.158642 224.470588 
L 149.158642 219.151059 
L 150.227848 219.151059 
L 150.227848 213.831529 
L 151.239537 213.831529 
L 151.239537 208.512 
L 152.181101 208.512 
L 152.181101 203.192471 
L 153.113003 203.192471 
L 153.113003 197.872941 
L 153.911171 197.872941 
L 153.911171 192.553412 
L 154.795227 192.553412 
L 154.795227 187.233882 
L 155.731683 187.233882 
L 155.731683 181.914353 
L 159.317295 181.914353 
L 159.317295 176.594824 
L 178.578777 176.594824 
L 178.578777 171.275294 
L 185.67302 171.275294 
L 185.67302 165.955765 
L 186.330527 165.955765 
L 186.330527 160.636235 
L 186.884168 160.636235 
L 186.884168 155.316706 
L 187.352737 155.316706 
L 187.352737 149.997176 
L 187.989908 149.997176 
L 187.989908 144.677647 
L 188.57506 144.677647 
L 188.57506 139.358118 
L 189.095844 139.358118 
L 189.095844 134.038588 
L 189.566307 134.038588 
L 189.566307 128.719059 
L 190.02529 128.719059 
L 190.02529 123.399529 
L 190.478171 123.399529 
L 190.478171 118.08 
L 190.910969 118.08 
L 190.910969 112.760471 
L 191.328649 112.760471 
L 191.328649 107.440941 
L 191.792123 107.440941 
L 191.792123 102.121412 
L 192.228327 102.121412 
L 192.228327 96.801882 
L 192.67399 96.801882 
L 192.67399 91.482353 
L 193.085533 91.482353 
L 193.085533 86.162824 
L 193.485521 86.162824 
L 193.485521 80.843294 
L 193.869118 80.843294 
L 193.869118 75.523765 
L 194.234505 75.523765 
L 194.234505 70.204235 
L 194.548256 70.204235 
L 194.548256 64.884706 
L 194.937037 64.884706 
L 194.937037 59.565176 
L 195.298645 59.565176 
L 195.298645 54.245647 
L 195.665654 54.245647 
L 195.665654 48.926118 
L 195.957199 48.926118 
L 195.957199 43.606588 
L 196.295758 43.606588 
L 196.295758 38.287059 
L 196.601034 38.287059 
L 196.601034 32.967529 
L 196.883694 32.967529 
L 196.883694 27.648 
L 360.8064 27.648 
" style="fill: none; stroke: #f5deb3; stroke-width: 4; stroke-linecap: square"/>
   </g>
   <g id="line2d_2">
    <defs>
     <path id="mf33d54be1d" d="M 0 7.778175 
L 7.778175 0 
L 0 -7.778175 
L -7.778175 0 
z
" style="stroke: #f5deb3; stroke-width: 1.5; stroke-linejoin: miter"/>
    </defs>
    <g>
     <use xlink:href="#mf33d54be1d" x="148.185734" y="224.470588" style="fill: #f5deb3; stroke: #f5deb3; stroke-width: 1.5; stroke-linejoin: miter"/>
     <use xlink:href="#mf33d54be1d" x="189.095844" y="134.038588" style="fill: #f5deb3; stroke: #f5deb3; stroke-width: 1.5; stroke-linejoin: miter"/>
     <use xlink:href="#mf33d54be1d" x="196.883694" y="27.648" style="fill: #f5deb3; stroke: #f5deb3; stroke-width: 1.5; stroke-linejoin: miter"/>
     <use xlink:href="#mf33d54be1d" x="196.883694" y="27.648" style="fill: #f5deb3; stroke: #f5deb3; stroke-width: 1.5; stroke-linejoin: miter"/>
     <use xlink:href="#mf33d54be1d" x="360.8064" y="27.648" style="fill: #f5deb3; stroke: #f5deb3; stroke-width: 1.5; stroke-linejoin: miter"/>
    </g>
   </g>
   <g id="line2d_3">
    <path style="fill: none; stroke: #f5deb3; stroke-width: 4; stroke-linecap: square"/>
    <g/>
   </g>
   <g id="line2d_4">
    <path d="M 360.8064 27.648 
L 380.514816 33.07392 
" style="fill: none; stroke: #f5deb3; stroke-width: 4; stroke-linecap: square"/>
    <g>
     <use xlink:href="#mf33d54be1d" x="360.8064" y="27.648" style="fill: #f5deb3; stroke: #f5deb3; stroke-width: 1.5; stroke-linejoin: miter"/>
     <use xlink:href="#mf33d54be1d" x="380.514816" y="33.07392" style="fill: #f5deb3; stroke: #f5deb3; stroke-width: 1.5; stroke-linejoin: miter"/>
    </g>
   </g>
   <g id="matplotlib.axis_1">
    <g id="xtick_1">
     <g id="line2d_5">
      <path d="M 57.6 298.944 
L 57.6 27.648 
" clip-path="url(#p7f0fad2d6f)" style="fill: none; stroke: #b0b0b0; stroke-width: 0.8; stroke-linecap: square"/>
     </g>
     <g id="line2d_6">
      <defs>
       <path id="m26b9a83c21" d="M 0 0 
L 0 3.5 
" style="stroke: #000000; stroke-width: 0.8"/>
      </defs>
      <g>
       <use xlink:href="#m26b9a83c21" x="57.6" y="298.944" style="stroke: #000000; stroke-width: 0.8"/>
      </g>
     </g>
     <g id="text_1">
      <!-- 0 -->
      <g transform="translate(52.191875 318.861344)scale(0.17 -0.17)">
       <defs>
        <path id="DejaVuSans-30" d="M 2034 4250 
Q 1547 4250 1301 3770 
Q 1056 3291 1056 2328 
Q 1056 1369 1301 889 
Q 1547 409 2034 409 
Q 2525 409 2770 889 
Q 3016 1369 3016 2328 
Q 3016 3291 2770 3770 
Q 2525 4250 2034 4250 
z
M 2034 4750 
Q 2819 4750 3233 4129 
Q 3647 3509 3647 2328 
Q 3647 1150 3233 529 
Q 2819 -91 2034 -91 
Q 1250 -91 836 529 
Q 422 1150 422 2328 
Q 422 3509 836 4129 
Q 1250 4750 2034 4750 
z
" transform="scale(0.015625)"/>
       </defs>
       <use xlink:href="#DejaVuSans-30"/>
      </g>
     </g>
    </g>
    <g id="xtick_2">
     <g id="line2d_7">
      <path d="M 144.2304 298.944 
L 144.2304 27.648 
" clip-path="url(#p7f0fad2d6f)" style="fill: none; stroke: #b0b0b0; stroke-width: 0.8; stroke-linecap: square"/>
     </g>
     <g id="line2d_8">
      <g>
       <use xlink:href="#m26b9a83c21" x="144.2304" y="298.944" style="stroke: #000000; stroke-width: 0.8"/>
      </g>
     </g>
     <g id="text_2">
      <!-- 2 -->
      <g transform="translate(138.822275 318.861344)scale(0.17 -0.17)">
       <defs>
        <path id="DejaVuSans-32" d="M 1228 531 
L 3431 531 
L 3431 0 
L 469 0 
L 469 531 
Q 828 903 1448 1529 
Q 2069 2156 2228 2338 
Q 2531 2678 2651 2914 
Q 2772 3150 2772 3378 
Q 2772 3750 2511 3984 
Q 2250 4219 1831 4219 
Q 1534 4219 1204 4116 
Q 875 4013 500 3803 
L 500 4441 
Q 881 4594 1212 4672 
Q 1544 4750 1819 4750 
Q 2544 4750 2975 4387 
Q 3406 4025 3406 3419 
Q 3406 3131 3298 2873 
Q 3191 2616 2906 2266 
Q 2828 2175 2409 1742 
Q 1991 1309 1228 531 
z
" transform="scale(0.015625)"/>
       </defs>
       <use xlink:href="#DejaVuSans-32"/>
      </g>
     </g>
    </g>
    <g id="xtick_3">
     <g id="line2d_9">
      <path d="M 230.8608 298.944 
L 230.8608 27.648 
" clip-path="url(#p7f0fad2d6f)" style="fill: none; stroke: #b0b0b0; stroke-width: 0.8; stroke-linecap: square"/>
     </g>
     <g id="line2d_10">
      <g>
       <use xlink:href="#m26b9a83c21" x="230.8608" y="298.944" style="stroke: #000000; stroke-width: 0.8"/>
      </g>
     </g>
     <g id="text_3">
      <!-- 4 -->
      <g transform="translate(225.452675 318.861344)scale(0.17 -0.17)">
       <defs>
        <path id="DejaVuSans-34" d="M 2419 4116 
L 825 1625 
L 2419 1625 
L 2419 4116 
z
M 2253 4666 
L 3047 4666 
L 3047 1625 
L 3713 1625 
L 3713 1100 
L 3047 1100 
L 3047 0 
L 2419 0 
L 2419 1100 
L 313 1100 
L 313 1709 
L 2253 4666 
z
" transform="scale(0.015625)"/>
       </defs>
       <use xlink:href="#DejaVuSans-34"/>
      </g>
     </g>
    </g>
    <g id="xtick_4">
     <g id="line2d_11">
      <path d="M 317.4912 298.944 
L 317.4912 27.648 
" clip-path="url(#p7f0fad2d6f)" style="fill: none; stroke: #b0b0b0; stroke-width: 0.8; stroke-linecap: square"/>
     </g>
     <g id="line2d_12">
      <g>
       <use xlink:href="#m26b9a83c21" x="317.4912" y="298.944" style="stroke: #000000; stroke-width: 0.8"/>
      </g>
     </g>
     <g id="text_4">
      <!-- 6 -->
      <g transform="translate(312.083075 318.861344)scale(0.17 -0.17)">
       <defs>
        <path id="DejaVuSans-36" d="M 2113 2584 
Q 1688 2584 1439 2293 
Q 1191 2003 1191 1497 
Q 1191 994 1439 701 
Q 1688 409 2113 409 
Q 2538 409 2786 701 
Q 3034 994 3034 1497 
Q 3034 2003 2786 2293 
Q 2538 2584 2113 2584 
z
M 3366 4563 
L 3366 3988 
Q 3128 4100 2886 4159 
Q 2644 4219 2406 4219 
Q 1781 4219 1451 3797 
Q 1122 3375 1075 2522 
Q 1259 2794 1537 2939 
Q 1816 3084 2150 3084 
Q 2853 3084 3261 2657 
Q 3669 2231 3669 1497 
Q 3669 778 3244 343 
Q 2819 -91 2113 -91 
Q 1303 -91 875 529 
Q 447 1150 447 2328 
Q 447 3434 972 4092 
Q 1497 4750 2381 4750 
Q 2619 4750 2861 4703 
Q 3103 4656 3366 4563 
z
" transform="scale(0.015625)"/>
       </defs>
       <use xlink:href="#DejaVuSans-36"/>
      </g>
     </g>
    </g>
    <g id="xtick_5">
     <g id="line2d_13">
      <path d="M 100.9152 298.944 
L 100.9152 27.648 
" clip-path="url(#p7f0fad2d6f)" style="fill: none; stroke: #b0b0b0; stroke-width: 0.8; stroke-linecap: square"/>
     </g>
     <g id="line2d_14">
      <defs>
       <path id="m4cce56b21c" d="M 0 0 
L 0 2 
" style="stroke: #000000; stroke-width: 0.6"/>
      </defs>
      <g>
       <use xlink:href="#m4cce56b21c" x="100.9152" y="298.944" style="stroke: #000000; stroke-width: 0.6"/>
      </g>
     </g>
    </g>
    <g id="xtick_6">
     <g id="line2d_15">
      <path d="M 187.5456 298.944 
L 187.5456 27.648 
" clip-path="url(#p7f0fad2d6f)" style="fill: none; stroke: #b0b0b0; stroke-width: 0.8; stroke-linecap: square"/>
     </g>
     <g id="line2d_16">
      <g>
       <use xlink:href="#m4cce56b21c" x="187.5456" y="298.944" style="stroke: #000000; stroke-width: 0.6"/>
      </g>
     </g>
    </g>
    <g id="xtick_7">
     <g id="line2d_17">
      <path d="M 274.176 298.944 
L 274.176 27.648 
" clip-path="url(#p7f0fad2d6f)" style="fill: none; stroke: #b0b0b0; stroke-width: 0.8; stroke-linecap: square"/>
     </g>
     <g id="line2d_18">
      <g>
       <use xlink:href="#m4cce56b21c" x="274.176" y="298.944" style="stroke: #000000; stroke-width: 0.6"/>
      </g>
     </g>
    </g>
    <g id="xtick_8">
     <g id="line2d_19">
      <path d="M 360.8064 298.944 
L 360.8064 27.648 
" clip-path="url(#p7f0fad2d6f)" style="fill: none; stroke: #b0b0b0; stroke-width: 0.8; stroke-linecap: square"/>
     </g>
     <g id="line2d_20">
      <g>
       <use xlink:href="#m4cce56b21c" x="360.8064" y="298.944" style="stroke: #000000; stroke-width: 0.6"/>
      </g>
     </g>
    </g>
    <g id="text_5">
     <!-- log10(# f-evals / dimension) -->
     <g transform="translate(88.823278 339.314156)scale(0.17 -0.17)">
      <defs>
       <path id="DejaVuSans-6c" d="M 603 4863 
L 1178 4863 
L 1178 0 
L 603 0 
L 603 4863 
z
" transform="scale(0.015625)"/>
       <path id="DejaVuSans-6f" d="M 1959 3097 
Q 1497 3097 1228 2736 
Q 959 2375 959 1747 
Q 959 1119 1226 758 
Q 1494 397 1959 397 
Q 2419 397 2687 759 
Q 2956 1122 2956 1747 
Q 2956 2369 2687 2733 
Q 2419 3097 1959 3097 
z
M 1959 3584 
Q 2709 3584 3137 3096 
Q 3566 2609 3566 1747 
Q 3566 888 3137 398 
Q 2709 -91 1959 -91 
Q 1206 -91 779 398 
Q 353 888 353 1747 
Q 353 2609 779 3096 
Q 1206 3584 1959 3584 
z
" transform="scale(0.015625)"/>
       <path id="DejaVuSans-67" d="M 2906 1791 
Q 2906 2416 2648 2759 
Q 2391 3103 1925 3103 
Q 1463 3103 1205 2759 
Q 947 2416 947 1791 
Q 947 1169 1205 825 
Q 1463 481 1925 481 
Q 2391 481 2648 825 
Q 2906 1169 2906 1791 
z
M 3481 434 
Q 3481 -459 3084 -895 
Q 2688 -1331 1869 -1331 
Q 1566 -1331 1297 -1286 
Q 1028 -1241 775 -1147 
L 775 -588 
Q 1028 -725 1275 -790 
Q 1522 -856 1778 -856 
Q 2344 -856 2625 -561 
Q 2906 -266 2906 331 
L 2906 616 
Q 2728 306 2450 153 
Q 2172 0 1784 0 
Q 1141 0 747 490 
Q 353 981 353 1791 
Q 353 2603 747 3093 
Q 1141 3584 1784 3584 
Q 2172 3584 2450 3431 
Q 2728 3278 2906 2969 
L 2906 3500 
L 3481 3500 
L 3481 434 
z
" transform="scale(0.015625)"/>
       <path id="DejaVuSans-31" d="M 794 531 
L 1825 531 
L 1825 4091 
L 703 3866 
L 703 4441 
L 1819 4666 
L 2450 4666 
L 2450 531 
L 3481 531 
L 3481 0 
L 794 0 
L 794 531 
z
" transform="scale(0.015625)"/>
       <path id="DejaVuSans-28" d="M 1984 4856 
Q 1566 4138 1362 3434 
Q 1159 2731 1159 2009 
Q 1159 1288 1364 580 
Q 1569 -128 1984 -844 
L 1484 -844 
Q 1016 -109 783 600 
Q 550 1309 550 2009 
Q 550 2706 781 3412 
Q 1013 4119 1484 4856 
L 1984 4856 
z
" transform="scale(0.015625)"/>
       <path id="DejaVuSans-23" d="M 3272 2816 
L 2363 2816 
L 2100 1772 
L 3016 1772 
L 3272 2816 
z
M 2803 4594 
L 2478 3297 
L 3391 3297 
L 3719 4594 
L 4219 4594 
L 3897 3297 
L 4872 3297 
L 4872 2816 
L 3775 2816 
L 3519 1772 
L 4513 1772 
L 4513 1294 
L 3397 1294 
L 3072 0 
L 2572 0 
L 2894 1294 
L 1978 1294 
L 1656 0 
L 1153 0 
L 1478 1294 
L 494 1294 
L 494 1772 
L 1594 1772 
L 1856 2816 
L 850 2816 
L 850 3297 
L 1978 3297 
L 2297 4594 
L 2803 4594 
z
" transform="scale(0.015625)"/>
       <path id="DejaVuSans-20" transform="scale(0.015625)"/>
       <path id="DejaVuSans-66" d="M 2375 4863 
L 2375 4384 
L 1825 4384 
Q 1516 4384 1395 4259 
Q 1275 4134 1275 3809 
L 1275 3500 
L 2222 3500 
L 2222 3053 
L 1275 3053 
L 1275 0 
L 697 0 
L 697 3053 
L 147 3053 
L 147 3500 
L 697 3500 
L 697 3744 
Q 697 4328 969 4595 
Q 1241 4863 1831 4863 
L 2375 4863 
z
" transform="scale(0.015625)"/>
       <path id="DejaVuSans-2d" d="M 313 2009 
L 1997 2009 
L 1997 1497 
L 313 1497 
L 313 2009 
z
" transform="scale(0.015625)"/>
       <path id="DejaVuSans-65" d="M 3597 1894 
L 3597 1613 
L 953 1613 
Q 991 1019 1311 708 
Q 1631 397 2203 397 
Q 2534 397 2845 478 
Q 3156 559 3463 722 
L 3463 178 
Q 3153 47 2828 -22 
Q 2503 -91 2169 -91 
Q 1331 -91 842 396 
Q 353 884 353 1716 
Q 353 2575 817 3079 
Q 1281 3584 2069 3584 
Q 2775 3584 3186 3129 
Q 3597 2675 3597 1894 
z
M 3022 2063 
Q 3016 2534 2758 2815 
Q 2500 3097 2075 3097 
Q 1594 3097 1305 2825 
Q 1016 2553 972 2059 
L 3022 2063 
z
" transform="scale(0.015625)"/>
       <path id="DejaVuSans-76" d="M 191 3500 
L 800 3500 
L 1894 563 
L 2988 3500 
L 3597 3500 
L 2284 0 
L 1503 0 
L 191 3500 
z
" transform="scale(0.015625)"/>
       <path id="DejaVuSans-61" d="M 2194 1759 
Q 1497 1759 1228 1600 
Q 959 1441 959 1056 
Q 959 750 1161 570 
Q 1363 391 1709 391 
Q 2188 391 2477 730 
Q 2766 1069 2766 1631 
L 2766 1759 
L 2194 1759 
z
M 3341 1997 
L 3341 0 
L 2766 0 
L 2766 531 
Q 2569 213 2275 61 
Q 1981 -91 1556 -91 
Q 1019 -91 701 211 
Q 384 513 384 1019 
Q 384 1609 779 1909 
Q 1175 2209 1959 2209 
L 2766 2209 
L 2766 2266 
Q 2766 2663 2505 2880 
Q 2244 3097 1772 3097 
Q 1472 3097 1187 3025 
Q 903 2953 641 2809 
L 641 3341 
Q 956 3463 1253 3523 
Q 1550 3584 1831 3584 
Q 2591 3584 2966 3190 
Q 3341 2797 3341 1997 
z
" transform="scale(0.015625)"/>
       <path id="DejaVuSans-73" d="M 2834 3397 
L 2834 2853 
Q 2591 2978 2328 3040 
Q 2066 3103 1784 3103 
Q 1356 3103 1142 2972 
Q 928 2841 928 2578 
Q 928 2378 1081 2264 
Q 1234 2150 1697 2047 
L 1894 2003 
Q 2506 1872 2764 1633 
Q 3022 1394 3022 966 
Q 3022 478 2636 193 
Q 2250 -91 1575 -91 
Q 1294 -91 989 -36 
Q 684 19 347 128 
L 347 722 
Q 666 556 975 473 
Q 1284 391 1588 391 
Q 1994 391 2212 530 
Q 2431 669 2431 922 
Q 2431 1156 2273 1281 
Q 2116 1406 1581 1522 
L 1381 1569 
Q 847 1681 609 1914 
Q 372 2147 372 2553 
Q 372 3047 722 3315 
Q 1072 3584 1716 3584 
Q 2034 3584 2315 3537 
Q 2597 3491 2834 3397 
z
" transform="scale(0.015625)"/>
       <path id="DejaVuSans-2f" d="M 1625 4666 
L 2156 4666 
L 531 -594 
L 0 -594 
L 1625 4666 
z
" transform="scale(0.015625)"/>
       <path id="DejaVuSans-64" d="M 2906 2969 
L 2906 4863 
L 3481 4863 
L 3481 0 
L 2906 0 
L 2906 525 
Q 2725 213 2448 61 
Q 2172 -91 1784 -91 
Q 1150 -91 751 415 
Q 353 922 353 1747 
Q 353 2572 751 3078 
Q 1150 3584 1784 3584 
Q 2172 3584 2448 3432 
Q 2725 3281 2906 2969 
z
M 947 1747 
Q 947 1113 1208 752 
Q 1469 391 1925 391 
Q 2381 391 2643 752 
Q 2906 1113 2906 1747 
Q 2906 2381 2643 2742 
Q 2381 3103 1925 3103 
Q 1469 3103 1208 2742 
Q 947 2381 947 1747 
z
" transform="scale(0.015625)"/>
       <path id="DejaVuSans-69" d="M 603 3500 
L 1178 3500 
L 1178 0 
L 603 0 
L 603 3500 
z
M 603 4863 
L 1178 4863 
L 1178 4134 
L 603 4134 
L 603 4863 
z
" transform="scale(0.015625)"/>
       <path id="DejaVuSans-6d" d="M 3328 2828 
Q 3544 3216 3844 3400 
Q 4144 3584 4550 3584 
Q 5097 3584 5394 3201 
Q 5691 2819 5691 2113 
L 5691 0 
L 5113 0 
L 5113 2094 
Q 5113 2597 4934 2840 
Q 4756 3084 4391 3084 
Q 3944 3084 3684 2787 
Q 3425 2491 3425 1978 
L 3425 0 
L 2847 0 
L 2847 2094 
Q 2847 2600 2669 2842 
Q 2491 3084 2119 3084 
Q 1678 3084 1418 2786 
Q 1159 2488 1159 1978 
L 1159 0 
L 581 0 
L 581 3500 
L 1159 3500 
L 1159 2956 
Q 1356 3278 1631 3431 
Q 1906 3584 2284 3584 
Q 2666 3584 2933 3390 
Q 3200 3197 3328 2828 
z
" transform="scale(0.015625)"/>
       <path id="DejaVuSans-6e" d="M 3513 2113 
L 3513 0 
L 2938 0 
L 2938 2094 
Q 2938 2591 2744 2837 
Q 2550 3084 2163 3084 
Q 1697 3084 1428 2787 
Q 1159 2491 1159 1978 
L 1159 0 
L 581 0 
L 581 3500 
L 1159 3500 
L 1159 2956 
Q 1366 3272 1645 3428 
Q 1925 3584 2291 3584 
Q 2894 3584 3203 3211 
Q 3513 2838 3513 2113 
z
" transform="scale(0.015625)"/>
       <path id="DejaVuSans-29" d="M 513 4856 
L 1013 4856 
Q 1481 4119 1714 3412 
Q 1947 2706 1947 2009 
Q 1947 1309 1714 600 
Q 1481 -109 1013 -844 
L 513 -844 
Q 928 -128 1133 580 
Q 1338 1288 1338 2009 
Q 1338 2731 1133 3434 
Q 928 4138 513 4856 
z
" transform="scale(0.015625)"/>
      </defs>
      <use xlink:href="#DejaVuSans-6c"/>
      <use xlink:href="#DejaVuSans-6f" x="27.783203"/>
      <use xlink:href="#DejaVuSans-67" x="88.964844"/>
      <use xlink:href="#DejaVuSans-31" x="152.441406"/>
      <use xlink:href="#DejaVuSans-30" x="216.064453"/>
      <use xlink:href="#DejaVuSans-28" x="279.6875"/>
      <use xlink:href="#DejaVuSans-23" x="318.701172"/>
      <use xlink:href="#DejaVuSans-20" x="402.490234"/>
      <use xlink:href="#DejaVuSans-66" x="434.277344"/>
      <use xlink:href="#DejaVuSans-2d" x="463.982422"/>
      <use xlink:href="#DejaVuSans-65" x="500.066406"/>
      <use xlink:href="#DejaVuSans-76" x="561.589844"/>
      <use xlink:href="#DejaVuSans-61" x="620.769531"/>
      <use xlink:href="#DejaVuSans-6c" x="682.048828"/>
      <use xlink:href="#DejaVuSans-73" x="709.832031"/>
      <use xlink:href="#DejaVuSans-20" x="761.931641"/>
      <use xlink:href="#DejaVuSans-2f" x="793.71875"/>
      <use xlink:href="#DejaVuSans-20" x="827.410156"/>
      <use xlink:href="#DejaVuSans-64" x="859.197266"/>
      <use xlink:href="#DejaVuSans-69" x="922.673828"/>
      <use xlink:href="#DejaVuSans-6d" x="950.457031"/>
      <use xlink:href="#DejaVuSans-65" x="1047.869141"/>
      <use xlink:href="#DejaVuSans-6e" x="1109.392578"/>
      <use xlink:href="#DejaVuSans-73" x="1172.771484"/>
      <use xlink:href="#DejaVuSans-69" x="1224.871094"/>
      <use xlink:href="#DejaVuSans-6f" x="1252.654297"/>
      <use xlink:href="#DejaVuSans-6e" x="1313.835938"/>
      <use xlink:href="#DejaVuSans-29" x="1377.214844"/>
     </g>
    </g>
   </g>
   <g id="matplotlib.axis_2">
    <g id="ytick_1">
     <g id="line2d_21">
      <path d="M 57.6 298.944 
L 360.8064 298.944 
" clip-path="url(#p7f0fad2d6f)" style="fill: none; stroke: #b0b0b0; stroke-width: 0.8; stroke-linecap: square"/>
     </g>
     <g id="line2d_22">
      <defs>
       <path id="m05227736a7" d="M 0 0 
L -3.5 0 
" style="stroke: #000000; stroke-width: 0.8"/>
      </defs>
      <g>
       <use xlink:href="#m05227736a7" x="57.6" y="298.944" style="stroke: #000000; stroke-width: 0.8"/>
      </g>
     </g>
     <g id="text_6">
      <!-- 0.0 -->
      <g transform="translate(25.155 305.02275)scale(0.16 -0.16)">
       <defs>
        <path id="DejaVuSans-2e" d="M 684 794 
L 1344 794 
L 1344 0 
L 684 0 
L 684 794 
z
" transform="scale(0.015625)"/>
       </defs>
       <use xlink:href="#DejaVuSans-30"/>
       <use xlink:href="#DejaVuSans-2e" x="63.623047"/>
       <use xlink:href="#DejaVuSans-30" x="95.410156"/>
      </g>
     </g>
    </g>
    <g id="ytick_2">
     <g id="line2d_23">
      <path d="M 57.6 244.6848 
L 360.8064 244.6848 
" clip-path="url(#p7f0fad2d6f)" style="fill: none; stroke: #b0b0b0; stroke-width: 0.8; stroke-linecap: square"/>
     </g>
     <g id="line2d_24">
      <g>
       <use xlink:href="#m05227736a7" x="57.6" y="244.6848" style="stroke: #000000; stroke-width: 0.8"/>
      </g>
     </g>
     <g id="text_7">
      <!-- 0.2 -->
      <g transform="translate(25.155 250.76355)scale(0.16 -0.16)">
       <use xlink:href="#DejaVuSans-30"/>
       <use xlink:href="#DejaVuSans-2e" x="63.623047"/>
       <use xlink:href="#DejaVuSans-32" x="95.410156"/>
      </g>
     </g>
    </g>
    <g id="ytick_3">
     <g id="line2d_25">
      <path d="M 57.6 190.4256 
L 360.8064 190.4256 
" clip-path="url(#p7f0fad2d6f)" style="fill: none; stroke: #b0b0b0; stroke-width: 0.8; stroke-linecap: square"/>
     </g>
     <g id="line2d_26">
      <g>
       <use xlink:href="#m05227736a7" x="57.6" y="190.4256" style="stroke: #000000; stroke-width: 0.8"/>
      </g>
     </g>
     <g id="text_8">
      <!-- 0.4 -->
      <g transform="translate(25.155 196.50435)scale(0.16 -0.16)">
       <use xlink:href="#DejaVuSans-30"/>
       <use xlink:href="#DejaVuSans-2e" x="63.623047"/>
       <use xlink:href="#DejaVuSans-34" x="95.410156"/>
      </g>
     </g>
    </g>
    <g id="ytick_4">
     <g id="line2d_27">
      <path d="M 57.6 136.1664 
L 360.8064 136.1664 
" clip-path="url(#p7f0fad2d6f)" style="fill: none; stroke: #b0b0b0; stroke-width: 0.8; stroke-linecap: square"/>
     </g>
     <g id="line2d_28">
      <g>
       <use xlink:href="#m05227736a7" x="57.6" y="136.1664" style="stroke: #000000; stroke-width: 0.8"/>
      </g>
     </g>
     <g id="text_9">
      <!-- 0.6 -->
      <g transform="translate(25.155 142.24515)scale(0.16 -0.16)">
       <use xlink:href="#DejaVuSans-30"/>
       <use xlink:href="#DejaVuSans-2e" x="63.623047"/>
       <use xlink:href="#DejaVuSans-36" x="95.410156"/>
      </g>
     </g>
    </g>
    <g id="ytick_5">
     <g id="line2d_29">
      <path d="M 57.6 81.9072 
L 360.8064 81.9072 
" clip-path="url(#p7f0fad2d6f)" style="fill: none; stroke: #b0b0b0; stroke-width: 0.8; stroke-linecap: square"/>
     </g>
     <g id="line2d_30">
      <g>
       <use xlink:href="#m05227736a7" x="57.6" y="81.9072" style="stroke: #000000; stroke-width: 0.8"/>
      </g>
     </g>
     <g id="text_10">
      <!-- 0.8 -->
      <g transform="translate(25.155 87.98595)scale(0.16 -0.16)">
       <defs>
        <path id="DejaVuSans-38" d="M 2034 2216 
Q 1584 2216 1326 1975 
Q 1069 1734 1069 1313 
Q 1069 891 1326 650 
Q 1584 409 2034 409 
Q 2484 409 2743 651 
Q 3003 894 3003 1313 
Q 3003 1734 2745 1975 
Q 2488 2216 2034 2216 
z
M 1403 2484 
Q 997 2584 770 2862 
Q 544 3141 544 3541 
Q 544 4100 942 4425 
Q 1341 4750 2034 4750 
Q 2731 4750 3128 4425 
Q 3525 4100 3525 3541 
Q 3525 3141 3298 2862 
Q 3072 2584 2669 2484 
Q 3125 2378 3379 2068 
Q 3634 1759 3634 1313 
Q 3634 634 3220 271 
Q 2806 -91 2034 -91 
Q 1263 -91 848 271 
Q 434 634 434 1313 
Q 434 1759 690 2068 
Q 947 2378 1403 2484 
z
M 1172 3481 
Q 1172 3119 1398 2916 
Q 1625 2713 2034 2713 
Q 2441 2713 2670 2916 
Q 2900 3119 2900 3481 
Q 2900 3844 2670 4047 
Q 2441 4250 2034 4250 
Q 1625 4250 1398 4047 
Q 1172 3844 1172 3481 
z
" transform="scale(0.015625)"/>
       </defs>
       <use xlink:href="#DejaVuSans-30"/>
       <use xlink:href="#DejaVuSans-2e" x="63.623047"/>
       <use xlink:href="#DejaVuSans-38" x="95.410156"/>
      </g>
     </g>
    </g>
    <g id="ytick_6">
     <g id="line2d_31">
      <path d="M 57.6 27.648 
L 360.8064 27.648 
" clip-path="url(#p7f0fad2d6f)" style="fill: none; stroke: #b0b0b0; stroke-width: 0.8; stroke-linecap: square"/>
     </g>
     <g id="line2d_32">
      <g>
       <use xlink:href="#m05227736a7" x="57.6" y="27.648" style="stroke: #000000; stroke-width: 0.8"/>
      </g>
     </g>
     <g id="text_11">
      <!-- 1.0 -->
      <g transform="translate(25.155 33.72675)scale(0.16 -0.16)">
       <use xlink:href="#DejaVuSans-31"/>
       <use xlink:href="#DejaVuSans-2e" x="63.623047"/>
       <use xlink:href="#DejaVuSans-30" x="95.410156"/>
      </g>
     </g>
    </g>
    <g id="text_12">
     <!-- Fraction of function,target pairs -->
     <g transform="translate(17.619531 297.681)rotate(-90)scale(0.17 -0.17)">
      <defs>
       <path id="DejaVuSans-46" d="M 628 4666 
L 3309 4666 
L 3309 4134 
L 1259 4134 
L 1259 2759 
L 3109 2759 
L 3109 2228 
L 1259 2228 
L 1259 0 
L 628 0 
L 628 4666 
z
" transform="scale(0.015625)"/>
       <path id="DejaVuSans-72" d="M 2631 2963 
Q 2534 3019 2420 3045 
Q 2306 3072 2169 3072 
Q 1681 3072 1420 2755 
Q 1159 2438 1159 1844 
L 1159 0 
L 581 0 
L 581 3500 
L 1159 3500 
L 1159 2956 
Q 1341 3275 1631 3429 
Q 1922 3584 2338 3584 
Q 2397 3584 2469 3576 
Q 2541 3569 2628 3553 
L 2631 2963 
z
" transform="scale(0.015625)"/>
       <path id="DejaVuSans-63" d="M 3122 3366 
L 3122 2828 
Q 2878 2963 2633 3030 
Q 2388 3097 2138 3097 
Q 1578 3097 1268 2742 
Q 959 2388 959 1747 
Q 959 1106 1268 751 
Q 1578 397 2138 397 
Q 2388 397 2633 464 
Q 2878 531 3122 666 
L 3122 134 
Q 2881 22 2623 -34 
Q 2366 -91 2075 -91 
Q 1284 -91 818 406 
Q 353 903 353 1747 
Q 353 2603 823 3093 
Q 1294 3584 2113 3584 
Q 2378 3584 2631 3529 
Q 2884 3475 3122 3366 
z
" transform="scale(0.015625)"/>
       <path id="DejaVuSans-74" d="M 1172 4494 
L 1172 3500 
L 2356 3500 
L 2356 3053 
L 1172 3053 
L 1172 1153 
Q 1172 725 1289 603 
Q 1406 481 1766 481 
L 2356 481 
L 2356 0 
L 1766 0 
Q 1100 0 847 248 
Q 594 497 594 1153 
L 594 3053 
L 172 3053 
L 172 3500 
L 594 3500 
L 594 4494 
L 1172 4494 
z
" transform="scale(0.015625)"/>
       <path id="DejaVuSans-75" d="M 544 1381 
L 544 3500 
L 1119 3500 
L 1119 1403 
Q 1119 906 1312 657 
Q 1506 409 1894 409 
Q 2359 409 2629 706 
Q 2900 1003 2900 1516 
L 2900 3500 
L 3475 3500 
L 3475 0 
L 2900 0 
L 2900 538 
Q 2691 219 2414 64 
Q 2138 -91 1772 -91 
Q 1169 -91 856 284 
Q 544 659 544 1381 
z
M 1991 3584 
L 1991 3584 
z
" transform="scale(0.015625)"/>
       <path id="DejaVuSans-2c" d="M 750 794 
L 1409 794 
L 1409 256 
L 897 -744 
L 494 -744 
L 750 256 
L 750 794 
z
" transform="scale(0.015625)"/>
       <path id="DejaVuSans-70" d="M 1159 525 
L 1159 -1331 
L 581 -1331 
L 581 3500 
L 1159 3500 
L 1159 2969 
Q 1341 3281 1617 3432 
Q 1894 3584 2278 3584 
Q 2916 3584 3314 3078 
Q 3713 2572 3713 1747 
Q 3713 922 3314 415 
Q 2916 -91 2278 -91 
Q 1894 -91 1617 61 
Q 1341 213 1159 525 
z
M 3116 1747 
Q 3116 2381 2855 2742 
Q 2594 3103 2138 3103 
Q 1681 3103 1420 2742 
Q 1159 2381 1159 1747 
Q 1159 1113 1420 752 
Q 1681 391 2138 391 
Q 2594 391 2855 752 
Q 3116 1113 3116 1747 
z
" transform="scale(0.015625)"/>
      </defs>
      <use xlink:href="#DejaVuSans-46"/>
      <use xlink:href="#DejaVuSans-72" x="50.269531"/>
      <use xlink:href="#DejaVuSans-61" x="91.382812"/>
      <use xlink:href="#DejaVuSans-63" x="152.662109"/>
      <use xlink:href="#DejaVuSans-74" x="207.642578"/>
      <use xlink:href="#DejaVuSans-69" x="246.851562"/>
      <use xlink:href="#DejaVuSans-6f" x="274.634766"/>
      <use xlink:href="#DejaVuSans-6e" x="335.816406"/>
      <use xlink:href="#DejaVuSans-20" x="399.195312"/>
      <use xlink:href="#DejaVuSans-6f" x="430.982422"/>
      <use xlink:href="#DejaVuSans-66" x="492.164062"/>
      <use xlink:href="#DejaVuSans-20" x="527.369141"/>
      <use xlink:href="#DejaVuSans-66" x="559.15625"/>
      <use xlink:href="#DejaVuSans-75" x="594.361328"/>
      <use xlink:href="#DejaVuSans-6e" x="657.740234"/>
      <use xlink:href="#DejaVuSans-63" x="721.119141"/>
      <use xlink:href="#DejaVuSans-74" x="776.099609"/>
      <use xlink:href="#DejaVuSans-69" x="815.308594"/>
      <use xlink:href="#DejaVuSans-6f" x="843.091797"/>
      <use xlink:href="#DejaVuSans-6e" x="904.273438"/>
      <use xlink:href="#DejaVuSans-2c" x="967.652344"/>
      <use xlink:href="#DejaVuSans-74" x="999.439453"/>
      <use xlink:href="#DejaVuSans-61" x="1038.648438"/>
      <use xlink:href="#DejaVuSans-72" x="1099.927734"/>
      <use xlink:href="#DejaVuSans-67" x="1139.291016"/>
      <use xlink:href="#DejaVuSans-65" x="1202.767578"/>
      <use xlink:href="#DejaVuSans-74" x="1264.291016"/>
      <use xlink:href="#DejaVuSans-20" x="1303.5"/>
      <use xlink:href="#DejaVuSans-70" x="1335.287109"/>
      <use xlink:href="#DejaVuSans-61" x="1398.763672"/>
      <use xlink:href="#DejaVuSans-69" x="1460.042969"/>
      <use xlink:href="#DejaVuSans-72" x="1487.826172"/>
      <use xlink:href="#DejaVuSans-73" x="1528.939453"/>
     </g>
    </g>
   </g>
   <g id="line2d_33">
    <defs>
     <path id="md54c4c2410" d="M 0 1.5 
C 0.397805 1.5 0.77937 1.341951 1.06066 1.06066 
C 1.341951 0.77937 1.5 0.397805 1.5 0 
C 1.5 -0.397805 1.341951 -0.77937 1.06066 -1.06066 
C 0.77937 -1.341951 0.397805 -1.5 0 -1.5 
C -0.397805 -1.5 -0.77937 -1.341951 -1.06066 -1.06066 
C -1.341951 -0.77937 -1.5 -0.397805 -1.5 0 
C -1.5 0.397805 -1.341951 0.77937 -1.06066 1.06066 
C -0.77937 1.341951 -0.397805 1.5 0 1.5 
z
" style="stroke: #f5deb3"/>
    </defs>
    <g>
     <use xlink:href="#md54c4c2410" x="196.883694" y="27.648" style="fill: #f5deb3; stroke: #f5deb3"/>
     <use xlink:href="#md54c4c2410" x="196.883694" y="27.648" style="fill: #f5deb3; stroke: #f5deb3"/>
    </g>
   </g>
   <g id="line2d_34">
    <defs>
     <path id="mfe6bb41113" d="M 0 1.5 
C 0.397805 1.5 0.77937 1.341951 1.06066 1.06066 
C 1.341951 0.77937 1.5 0.397805 1.5 0 
C 1.5 -0.397805 1.341951 -0.77937 1.06066 -1.06066 
C 0.77937 -1.341951 0.397805 -1.5 0 -1.5 
C -0.397805 -1.5 -0.77937 -1.341951 -1.06066 -1.06066 
C -1.341951 -0.77937 -1.5 -0.397805 -1.5 0 
C -1.5 0.397805 -1.341951 0.77937 -1.06066 1.06066 
C -0.77937 1.341951 -0.397805 1.5 0 1.5 
z
" style="stroke: #000080"/>
    </defs>
    <g>
     <use xlink:href="#mfe6bb41113" x="339.436506" y="213.831529" style="fill: #000080; stroke: #000080"/>
     <use xlink:href="#mfe6bb41113" x="339.436506" y="213.831529" style="fill: #000080; stroke: #000080"/>
    </g>
   </g>
   <g id="line2d_35">
    <path d="M 178.624172 298.944 
L 178.624172 298.589365 
L 179.095791 298.589365 
L 179.095791 298.234729 
L 180.499771 298.234729 
L 180.499771 297.880094 
L 183.220515 297.880094 
L 183.220515 297.525459 
L 183.89712 297.525459 
L 183.89712 297.170824 
L 184.425187 297.170824 
L 184.425187 296.816188 
L 184.54251 296.816188 
L 184.637162 296.106918 
L 185.159017 296.106918 
L 185.159017 295.752282 
L 185.953533 295.752282 
L 186.013832 295.043012 
L 186.365611 295.043012 
L 186.365611 294.688376 
L 186.949329 294.688376 
L 187.048097 293.979106 
L 187.541837 293.979106 
L 187.541837 293.624471 
L 187.915352 293.624471 
L 187.915352 293.269835 
L 188.532268 293.269835 
L 188.532268 292.9152 
L 189.902879 292.9152 
L 189.902879 292.560565 
L 190.714103 292.560565 
L 190.714103 292.205929 
L 190.941617 292.205929 
L 190.941617 291.851294 
L 191.436034 291.851294 
L 191.436034 291.496659 
L 191.794375 291.496659 
L 191.794375 291.142024 
L 191.928968 291.142024 
L 191.928968 290.787388 
L 192.515054 290.787388 
L 192.535265 290.078118 
L 193.210531 290.078118 
L 193.210531 289.723482 
L 194.515168 289.723482 
L 194.568988 289.014212 
L 195.256242 289.014212 
L 195.256242 288.659576 
L 195.510472 288.659576 
L 195.510472 288.304941 
L 195.671151 288.304941 
L 195.671151 287.950306 
L 196.208721 287.950306 
L 196.208721 287.595671 
L 196.524157 287.595671 
L 196.567293 286.8864 
L 196.94771 286.8864 
L 196.94771 286.531765 
L 197.545791 286.531765 
L 197.545791 286.177129 
L 198.021712 286.177129 
L 198.021712 285.822494 
L 198.204064 285.822494 
L 198.229133 285.113224 
L 198.496403 285.113224 
L 198.496403 284.758588 
L 199.70778 284.758588 
L 199.70778 284.403953 
L 200.329565 284.403953 
L 200.329565 284.049318 
L 200.622829 284.049318 
L 200.622829 283.694682 
L 201.059372 283.694682 
L 201.164549 282.985412 
L 201.487359 282.985412 
L 201.487359 282.630776 
L 201.801196 282.630776 
L 201.801196 282.276141 
L 202.117253 282.276141 
L 202.144977 281.566871 
L 202.266648 281.566871 
L 202.369582 280.8576 
L 203.276786 280.8576 
L 203.276786 280.502965 
L 203.768372 280.502965 
L 203.768372 280.148329 
L 204.049373 280.148329 
L 204.049373 279.793694 
L 204.335102 279.793694 
L 204.383202 279.084424 
L 204.454546 279.084424 
L 204.511504 278.375153 
L 205.027654 278.375153 
L 205.065123 277.665882 
L 205.430686 277.665882 
L 205.494551 276.956612 
L 205.669788 276.956612 
L 205.669788 276.601976 
L 206.016497 276.601976 
L 206.088589 275.892706 
L 206.334081 275.892706 
L 206.334081 275.538071 
L 206.449438 275.538071 
L 206.449438 275.183435 
L 206.708983 275.183435 
L 206.708983 274.8288 
L 207.062234 274.8288 
L 207.082553 274.119529 
L 207.267417 274.119529 
L 207.267417 273.764894 
L 207.382778 273.764894 
L 207.480168 273.055624 
L 207.528675 273.055624 
L 207.528675 272.700988 
L 207.727894 272.700988 
L 207.727894 272.346353 
L 208.132713 272.346353 
L 208.132713 271.991718 
L 208.254168 271.991718 
L 208.304154 271.282447 
L 208.484866 271.282447 
L 208.542255 270.573176 
L 209.083083 270.573176 
L 209.083083 270.218541 
L 209.51132 270.218541 
L 209.51132 269.863906 
L 209.633814 269.863906 
L 209.633814 269.509271 
L 209.788125 269.509271 
L 209.814057 268.8 
L 210.012829 268.8 
L 210.055232 267.736094 
L 210.264421 267.736094 
L 210.264421 267.381459 
L 210.405576 267.381459 
L 210.405576 267.026824 
L 210.519073 267.026824 
L 210.519073 266.672188 
L 211.09454 266.672188 
L 211.09454 266.317553 
L 211.256844 266.317553 
L 211.256844 265.962918 
L 211.560523 265.962918 
L 211.560523 265.608282 
L 212.164742 265.608282 
L 212.164742 265.253647 
L 212.35336 265.253647 
L 212.35336 264.899012 
L 212.549319 264.899012 
L 212.549319 264.544376 
L 212.74104 264.544376 
L 212.801568 263.835106 
L 212.952528 263.835106 
L 212.952528 263.480471 
L 213.366595 263.480471 
L 213.409455 262.7712 
L 213.833002 262.7712 
L 213.833002 262.416565 
L 214.039298 262.416565 
L 214.12169 261.707294 
L 214.247223 261.707294 
L 214.247223 261.352659 
L 214.628459 261.352659 
L 214.628459 260.998024 
L 214.773021 260.998024 
L 214.82008 260.288753 
L 215.361863 260.288753 
L 215.361863 259.934118 
L 215.533025 259.934118 
L 215.533025 259.579482 
L 215.733359 259.579482 
L 215.733359 259.224847 
L 215.884099 259.224847 
L 215.957979 258.515576 
L 216.934971 258.515576 
L 216.934971 258.160941 
L 217.274803 258.160941 
L 217.30209 257.451671 
L 217.426026 257.451671 
L 217.426026 257.097035 
L 217.863904 257.097035 
L 217.868033 256.387765 
L 218.303926 256.387765 
L 218.303926 256.033129 
L 218.426738 256.033129 
L 218.462407 255.323859 
L 218.766657 255.323859 
L 218.766657 254.969224 
L 218.897512 254.969224 
L 218.897512 254.614588 
L 219.841656 254.614588 
L 219.841656 254.259953 
L 220.068884 254.259953 
L 220.068884 253.905318 
L 220.451746 253.905318 
L 220.451746 253.550682 
L 221.304445 253.550682 
L 221.304445 253.196047 
L 221.699512 253.196047 
L 221.699512 252.841412 
L 222.375731 252.841412 
L 222.375731 252.486776 
L 223.288972 252.486776 
L 223.288972 252.132141 
L 224.983588 252.132141 
L 225.073232 251.422871 
L 232.234296 251.422871 
L 232.234296 251.068235 
L 232.676976 251.068235 
L 232.676976 250.7136 
L 240.447278 250.7136 
L 240.447278 250.358965 
L 274.711123 250.358965 
L 274.757991 248.940424 
L 274.822554 248.940424 
L 274.929948 246.103341 
L 274.93816 246.103341 
L 275.005943 245.039435 
L 275.052531 245.039435 
L 275.068137 244.330165 
L 275.195092 244.330165 
L 275.297782 240.429176 
L 275.39355 240.429176 
L 275.504361 239.365271 
L 275.510486 239.365271 
L 275.510486 239.010635 
L 276.098023 239.010635 
L 276.098023 238.301365 
L 287.50842 238.301365 
L 287.523157 237.592094 
L 287.634723 237.592094 
L 287.73781 234.400376 
L 287.772769 234.400376 
L 287.772769 233.691106 
L 287.891077 233.691106 
L 287.894249 232.272565 
L 288.223572 232.272565 
L 288.223572 231.563294 
L 295.048484 231.563294 
L 295.105337 230.854024 
L 295.192635 230.854024 
L 295.298031 229.435482 
L 295.858484 229.435482 
L 295.858484 228.371576 
L 300.463618 228.371576 
L 300.463618 228.016941 
L 300.59695 228.016941 
L 300.59695 227.662306 
L 304.619627 227.662306 
L 304.660309 226.953035 
L 304.861894 226.953035 
L 304.861894 226.243765 
L 308.055506 226.243765 
L 308.11087 224.825224 
L 308.216063 224.825224 
L 308.223951 224.115953 
L 310.895795 224.115953 
L 310.942597 223.052047 
L 313.42555 223.052047 
L 313.434479 222.342776 
L 313.550736 222.342776 
L 313.550736 221.278871 
L 315.619541 221.278871 
L 315.662243 220.214965 
L 317.596895 220.214965 
L 317.596895 219.860329 
L 319.38675 219.860329 
L 319.471544 219.151059 
L 321.015039 219.151059 
L 321.035847 218.087153 
L 322.513546 218.087153 
L 322.532761 217.377882 
L 323.901441 217.377882 
L 323.901441 217.023247 
L 325.193936 217.023247 
L 325.256245 216.313976 
L 328.663131 216.313976 
L 328.663131 215.959341 
L 329.624947 215.959341 
L 329.638115 215.250071 
L 330.633682 215.250071 
L 330.633682 214.895435 
L 335.545371 214.895435 
L 335.545371 214.5408 
L 336.909266 214.5408 
L 336.909266 214.186165 
L 339.436506 214.186165 
L 339.436506 213.831529 
L 360.8064 213.831529 
L 360.8064 213.831529 
" style="fill: none; stroke: #000080; stroke-width: 1.5; stroke-linecap: square"/>
   </g>
   <g id="line2d_36">
    <defs>
     <path id="mb96cd3add0" d="M 0 6 
C 1.591219 6 3.117479 5.367802 4.242641 4.242641 
C 5.367802 3.117479 6 1.591219 6 0 
C 6 -1.591219 5.367802 -3.117479 4.242641 -4.242641 
C 3.117479 -5.367802 1.591219 -6 0 -6 
C -1.591219 -6 -3.117479 -5.367802 -4.242641 -4.242641 
C -5.367802 -3.117479 -6 -1.591219 -6 0 
C -6 1.591219 -5.367802 3.117479 -4.242641 4.242641 
C -3.117479 5.367802 -1.591219 6 0 6 
z
" style="stroke: #000080; stroke-width: 1.5"/>
    </defs>
    <g>
     <use xlink:href="#mb96cd3add0" x="276.098023" y="239.010635" style="fill-opacity: 0; stroke: #000080; stroke-width: 1.5"/>
     <use xlink:href="#mb96cd3add0" x="339.436506" y="214.186165" style="fill-opacity: 0; stroke: #000080; stroke-width: 1.5"/>
     <use xlink:href="#mb96cd3add0" x="339.436506" y="213.831529" style="fill-opacity: 0; stroke: #000080; stroke-width: 1.5"/>
     <use xlink:href="#mb96cd3add0" x="360.8064" y="213.831529" style="fill-opacity: 0; stroke: #000080; stroke-width: 1.5"/>
    </g>
   </g>
   <g id="line2d_37">
    <path style="fill: none; stroke: #000080; stroke-width: 1.5; stroke-linecap: square"/>
    <g/>
   </g>
   <g id="line2d_38">
    <path d="M 274.176 250.358965 
" clip-path="url(#p7f0fad2d6f)" style="fill: none; stroke: #000080; stroke-width: 1.5; stroke-linecap: square"/>
    <defs>
     <path id="m521eb88411" d="M -12 12 
L 12 -12 
M -12 -12 
L 12 12 
" style="stroke: #000080"/>
    </defs>
    <g clip-path="url(#p7f0fad2d6f)">
     <use xlink:href="#m521eb88411" x="274.176" y="250.358965" style="fill: #000080; stroke: #000080"/>
    </g>
   </g>
   <g id="line2d_39">
    <defs>
     <path id="m62bfecf687" d="M 0 1.5 
C 0.397805 1.5 0.77937 1.341951 1.06066 1.06066 
C 1.341951 0.77937 1.5 0.397805 1.5 0 
C 1.5 -0.397805 1.341951 -0.77937 1.06066 -1.06066 
C 0.77937 -1.341951 0.397805 -1.5 0 -1.5 
C -0.397805 -1.5 -0.77937 -1.341951 -1.06066 -1.06066 
C -1.341951 -0.77937 -1.5 -0.397805 -1.5 0 
C -1.5 0.397805 -1.341951 0.77937 -1.06066 1.06066 
C -0.77937 1.341951 -0.397805 1.5 0 1.5 
z
" style="stroke: #ff00ff"/>
    </defs>
    <g>
     <use xlink:href="#m62bfecf687" x="345.021724" y="256.387765" style="fill: #ff00ff; stroke: #ff00ff"/>
     <use xlink:href="#m62bfecf687" x="345.021724" y="256.387765" style="fill: #ff00ff; stroke: #ff00ff"/>
    </g>
   </g>
   <g id="line2d_40">
    <path d="M 217.646429 298.944 
L 217.646429 298.589365 
L 219.097378 298.589365 
L 219.170011 297.880094 
L 220.154327 297.880094 
L 220.172265 297.170824 
L 220.38604 297.170824 
L 220.38604 296.816188 
L 220.857091 296.816188 
L 220.860132 296.106918 
L 221.301005 296.106918 
L 221.301005 295.752282 
L 221.471434 295.752282 
L 221.471434 295.397647 
L 221.946322 295.397647 
L 221.946322 295.043012 
L 222.380013 295.043012 
L 222.380013 294.688376 
L 222.552396 294.688376 
L 222.552396 294.333741 
L 222.743498 294.333741 
L 222.743498 293.979106 
L 222.911304 293.979106 
L 222.997079 293.269835 
L 223.433167 293.269835 
L 223.472075 292.560565 
L 223.545347 292.560565 
L 223.545347 292.205929 
L 224.375984 292.205929 
L 224.454157 291.496659 
L 225.08372 291.496659 
L 225.08372 291.142024 
L 225.275946 291.142024 
L 225.375042 290.078118 
L 225.409131 290.078118 
L 225.409131 289.723482 
L 225.745434 289.723482 
L 225.745434 289.368847 
L 225.950352 289.368847 
L 225.950352 289.014212 
L 226.186977 289.014212 
L 226.186977 288.659576 
L 226.991211 288.659576 
L 226.991211 288.304941 
L 227.144025 288.304941 
L 227.144025 287.950306 
L 227.285374 287.950306 
L 227.285374 287.595671 
L 228.009692 287.595671 
L 228.019978 286.8864 
L 228.54371 286.8864 
L 228.54371 286.531765 
L 228.745188 286.531765 
L 228.745188 286.177129 
L 228.893953 286.177129 
L 228.920458 285.467859 
L 229.294307 285.467859 
L 229.295738 284.758588 
L 230.003996 284.758588 
L 230.003996 284.403953 
L 230.726477 284.403953 
L 230.726477 284.049318 
L 230.87246 284.049318 
L 230.885239 283.340047 
L 231.000147 283.340047 
L 231.000147 282.985412 
L 231.367196 282.985412 
L 231.388517 282.276141 
L 232.006288 282.276141 
L 232.106558 281.566871 
L 232.466829 281.566871 
L 232.466829 281.212235 
L 232.748492 281.212235 
L 232.748492 280.8576 
L 233.189346 280.8576 
L 233.270367 280.148329 
L 233.603935 280.148329 
L 233.609462 279.439059 
L 233.885376 279.439059 
L 233.885376 279.084424 
L 234.346902 279.084424 
L 234.346902 278.729788 
L 235.031821 278.729788 
L 235.031821 278.375153 
L 235.165922 278.375153 
L 235.165922 278.020518 
L 235.438002 278.020518 
L 235.438002 277.665882 
L 235.921321 277.665882 
L 235.921537 276.956612 
L 236.10734 276.956612 
L 236.10734 276.601976 
L 236.465291 276.601976 
L 236.465291 276.247341 
L 237.298689 276.247341 
L 237.298689 275.892706 
L 237.520681 275.892706 
L 237.520681 275.538071 
L 237.911946 275.538071 
L 237.911946 275.183435 
L 238.35539 275.183435 
L 238.35539 274.8288 
L 238.745991 274.8288 
L 238.745991 274.474165 
L 240.149418 274.474165 
L 240.149418 274.119529 
L 241.976882 274.119529 
L 241.976882 273.764894 
L 242.339819 273.764894 
L 242.339819 273.410259 
L 242.683848 273.410259 
L 242.683848 273.055624 
L 243.876163 273.055624 
L 243.876163 272.700988 
L 244.083803 272.700988 
L 244.083803 272.346353 
L 245.430459 272.346353 
L 245.430459 271.991718 
L 248.468104 271.991718 
L 248.468104 271.637082 
L 259.297009 271.637082 
L 259.297009 271.282447 
L 276.445706 271.282447 
L 276.52258 269.509271 
L 276.742261 269.509271 
L 276.742261 269.154635 
L 277.30954 269.154635 
L 277.365474 268.445365 
L 277.612569 268.445365 
L 277.612569 268.090729 
L 278.458663 268.090729 
L 278.458663 267.736094 
L 288.419627 267.736094 
L 288.507132 267.026824 
L 288.578442 267.026824 
L 288.605761 265.962918 
L 289.017707 265.962918 
L 289.017707 265.608282 
L 289.483855 265.608282 
L 289.483855 265.253647 
L 295.717808 265.253647 
L 295.717808 264.899012 
L 301.097294 264.899012 
L 301.128364 264.189741 
L 301.428949 264.189741 
L 301.428949 263.835106 
L 305.131873 263.835106 
L 305.201354 262.7712 
L 308.510358 262.7712 
L 308.510358 262.061929 
L 311.173322 262.061929 
L 311.273293 261.352659 
L 313.63832 261.352659 
L 313.726042 260.288753 
L 317.840548 260.288753 
L 317.853313 259.579482 
L 319.603145 259.579482 
L 319.603145 259.224847 
L 321.214647 259.224847 
L 321.214647 258.870212 
L 326.556596 258.870212 
L 326.556596 258.515576 
L 327.642977 258.515576 
L 327.642977 258.160941 
L 332.489905 258.160941 
L 332.489905 257.451671 
L 334.084335 257.451671 
L 334.084335 257.097035 
L 339.490586 257.097035 
L 339.490586 256.7424 
L 345.021724 256.7424 
L 345.021724 256.387765 
L 360.8064 256.387765 
L 360.8064 256.387765 
" style="fill: none; stroke: #ff00ff; stroke-width: 1.5; stroke-linecap: square"/>
   </g>
   <g id="line2d_41">
    <defs>
     <path id="mbabe4ed2fb" d="M 0 8.485281 
L 5.091169 0 
L 0 -8.485281 
L -5.091169 0 
z
" style="stroke: #ff00ff; stroke-width: 1.5; stroke-linejoin: miter"/>
    </defs>
    <g>
     <use xlink:href="#mbabe4ed2fb" x="238.35539" y="274.8288" style="fill-opacity: 0; stroke: #ff00ff; stroke-width: 1.5; stroke-linejoin: miter"/>
     <use xlink:href="#mbabe4ed2fb" x="317.853313" y="259.934118" style="fill-opacity: 0; stroke: #ff00ff; stroke-width: 1.5; stroke-linejoin: miter"/>
     <use xlink:href="#mbabe4ed2fb" x="345.021724" y="256.387765" style="fill-opacity: 0; stroke: #ff00ff; stroke-width: 1.5; stroke-linejoin: miter"/>
     <use xlink:href="#mbabe4ed2fb" x="360.8064" y="256.387765" style="fill-opacity: 0; stroke: #ff00ff; stroke-width: 1.5; stroke-linejoin: miter"/>
    </g>
   </g>
   <g id="line2d_42">
    <path style="fill: none; stroke: #ff00ff; stroke-width: 1.5; stroke-linecap: square"/>
    <g/>
   </g>
   <g id="line2d_43">
    <path d="M 274.188938 271.282447 
" clip-path="url(#p7f0fad2d6f)" style="fill: none; stroke: #ff00ff; stroke-width: 1.5; stroke-linecap: square"/>
    <defs>
     <path id="m963a3067a5" d="M -12 12 
L 12 -12 
M -12 -12 
L 12 12 
" style="stroke: #ff00ff"/>
    </defs>
    <g clip-path="url(#p7f0fad2d6f)">
     <use xlink:href="#m963a3067a5" x="274.188938" y="271.282447" style="fill: #ff00ff; stroke: #ff00ff"/>
    </g>
   </g>
   <g id="line2d_44">
    <defs>
     <path id="mc0172d42c4" d="M 0 1.5 
C 0.397805 1.5 0.77937 1.341951 1.06066 1.06066 
C 1.341951 0.77937 1.5 0.397805 1.5 0 
C 1.5 -0.397805 1.341951 -0.77937 1.06066 -1.06066 
C 0.77937 -1.341951 0.397805 -1.5 0 -1.5 
C -0.397805 -1.5 -0.77937 -1.341951 -1.06066 -1.06066 
C -1.341951 -0.77937 -1.5 -0.397805 -1.5 0 
C -1.5 0.397805 -1.341951 0.77937 -1.06066 1.06066 
C -0.77937 1.341951 -0.397805 1.5 0 1.5 
z
" style="stroke: #ff7500"/>
    </defs>
    <g>
     <use xlink:href="#mc0172d42c4" x="354.102585" y="118.08" style="fill: #ff7500; stroke: #ff7500"/>
     <use xlink:href="#mc0172d42c4" x="354.102585" y="118.08" style="fill: #ff7500; stroke: #ff7500"/>
    </g>
   </g>
   <g id="line2d_45">
    <path d="M 156.677186 298.944 
L 156.677186 298.589365 
L 158.374574 298.589365 
L 158.374574 298.234729 
L 159.451784 298.234729 
L 159.451784 297.880094 
L 160.494422 297.880094 
L 160.494422 297.525459 
L 160.832105 297.525459 
L 160.832105 297.170824 
L 161.34647 297.170824 
L 161.406958 296.461553 
L 162.085292 296.461553 
L 162.085292 296.106918 
L 162.510064 296.106918 
L 162.510064 295.752282 
L 163.129762 295.752282 
L 163.129762 295.397647 
L 164.564886 295.397647 
L 164.564886 295.043012 
L 165.028225 295.043012 
L 165.028225 294.688376 
L 165.419536 294.688376 
L 165.419536 294.333741 
L 165.993131 294.333741 
L 166.052194 293.624471 
L 166.160974 293.624471 
L 166.160974 293.269835 
L 166.388254 293.269835 
L 166.388254 292.9152 
L 166.755376 292.9152 
L 166.755376 292.560565 
L 166.868648 292.560565 
L 166.868648 292.205929 
L 167.545216 292.205929 
L 167.545216 291.851294 
L 167.786064 291.851294 
L 167.786064 291.496659 
L 168.755541 291.496659 
L 168.755541 291.142024 
L 168.943582 291.142024 
L 169.051991 290.078118 
L 169.868623 290.078118 
L 169.969451 289.368847 
L 170.715815 289.368847 
L 170.715815 289.014212 
L 171.100737 289.014212 
L 171.197432 287.950306 
L 171.550721 287.950306 
L 171.623221 287.241035 
L 171.680147 287.241035 
L 171.680147 286.8864 
L 172.193378 286.8864 
L 172.193378 286.531765 
L 172.516068 286.531765 
L 172.55993 285.822494 
L 173.408378 285.822494 
L 173.408378 285.467859 
L 173.87517 285.467859 
L 173.915978 284.758588 
L 174.769816 284.758588 
L 174.769816 284.403953 
L 174.917634 284.403953 
L 174.95257 283.694682 
L 175.177183 283.694682 
L 175.200767 282.985412 
L 175.852885 282.985412 
L 175.852885 282.630776 
L 176.440767 282.630776 
L 176.440767 282.276141 
L 176.742162 282.276141 
L 176.742162 281.921506 
L 176.97622 281.921506 
L 176.97622 281.566871 
L 177.272471 281.566871 
L 177.272471 281.212235 
L 177.995653 281.212235 
L 177.995653 280.8576 
L 178.316378 280.8576 
L 178.316378 280.502965 
L 178.469381 280.502965 
L 178.469381 280.148329 
L 179.639112 280.148329 
L 179.646271 279.439059 
L 179.825769 279.439059 
L 179.825769 279.084424 
L 180.608887 279.084424 
L 180.608887 278.729788 
L 181.076312 278.729788 
L 181.141204 278.020518 
L 181.215094 278.020518 
L 181.215094 277.665882 
L 181.329315 277.665882 
L 181.329315 277.311247 
L 181.564747 277.311247 
L 181.564747 276.956612 
L 182.441094 276.956612 
L 182.441094 276.601976 
L 182.900575 276.601976 
L 182.900575 276.247341 
L 183.261899 276.247341 
L 183.261899 275.892706 
L 183.761892 275.892706 
L 183.868551 274.474165 
L 185.342847 274.474165 
L 185.342847 274.119529 
L 185.604319 274.119529 
L 185.604319 273.764894 
L 186.225889 273.764894 
L 186.225889 273.410259 
L 186.509272 273.410259 
L 186.509272 273.055624 
L 186.685351 273.055624 
L 186.685351 272.700988 
L 187.284193 272.700988 
L 187.29754 271.991718 
L 187.53431 271.991718 
L 187.53431 271.637082 
L 188.557242 271.637082 
L 188.557242 271.282447 
L 189.858017 271.282447 
L 189.858017 270.927812 
L 190.641639 270.927812 
L 190.641639 270.573176 
L 190.844786 270.573176 
L 190.844786 270.218541 
L 191.558014 270.218541 
L 191.558014 269.863906 
L 192.760444 269.863906 
L 192.760444 269.509271 
L 193.144295 269.509271 
L 193.144295 269.154635 
L 193.822015 269.154635 
L 193.822015 268.8 
L 194.552145 268.8 
L 194.552145 268.445365 
L 195.557837 268.445365 
L 195.557837 268.090729 
L 196.532325 268.090729 
L 196.532325 267.736094 
L 196.93972 267.736094 
L 196.93972 267.381459 
L 197.692249 267.381459 
L 197.692249 267.026824 
L 198.395234 267.026824 
L 198.395234 266.672188 
L 199.093268 266.672188 
L 199.093268 266.317553 
L 199.429805 266.317553 
L 199.429805 265.962918 
L 199.917496 265.962918 
L 199.917496 265.608282 
L 201.222829 265.608282 
L 201.222829 265.253647 
L 202.002025 265.253647 
L 202.002025 264.899012 
L 202.65273 264.899012 
L 202.65273 264.544376 
L 203.217594 264.544376 
L 203.217594 264.189741 
L 204.100939 264.189741 
L 204.100939 263.835106 
L 206.313976 263.835106 
L 206.313976 263.480471 
L 274.212422 263.480471 
L 274.322385 256.033129 
L 274.329402 256.033129 
L 274.427635 251.068235 
L 274.44705 251.068235 
L 274.535659 248.940424 
L 274.561239 248.940424 
L 274.624175 246.457976 
L 274.679383 246.457976 
L 274.679383 245.394071 
L 287.255322 245.394071 
L 287.366225 237.592094 
L 287.369519 237.592094 
L 287.430315 235.109647 
L 294.877319 235.109647 
L 294.977343 226.953035 
L 294.993184 226.953035 
L 294.993184 226.5984 
L 300.274572 226.5984 
L 300.381463 216.668612 
L 304.472863 216.668612 
L 304.542519 207.448094 
L 307.903448 207.448094 
L 307.957218 197.163671 
L 310.800775 197.163671 
L 310.854332 191.134871 
L 313.307915 191.134871 
L 313.357188 185.106071 
L 315.531249 185.106071 
L 315.554226 180.850447 
L 317.51104 180.850447 
L 317.542149 176.240188 
L 319.296417 176.240188 
L 319.319482 173.757741 
L 320.93556 173.757741 
L 320.963418 168.438212 
L 322.443731 168.438212 
L 322.459938 165.246494 
L 323.834012 165.246494 
L 323.85165 161.700141 
L 325.128894 161.700141 
L 325.145653 159.217694 
L 326.344444 159.217694 
L 326.35285 157.089882 
L 327.48565 157.089882 
L 327.49858 153.898165 
L 328.561311 153.898165 
L 328.56999 152.124988 
L 329.577263 152.124988 
L 329.5923 150.706447 
L 330.553039 150.706447 
L 330.553039 149.997176 
L 331.460252 149.997176 
L 331.46818 148.224 
L 332.332974 148.224 
L 332.341737 146.805459 
L 333.169258 146.805459 
L 333.179223 143.259106 
L 333.970678 143.259106 
L 333.973563 142.1952 
L 334.744271 142.1952 
L 334.744271 141.840565 
L 335.474807 141.840565 
L 335.478257 139.712753 
L 336.183685 139.712753 
L 336.188676 139.003482 
L 336.867028 139.003482 
L 336.872904 137.939576 
L 337.526906 137.939576 
L 337.530518 136.1664 
L 338.166901 136.1664 
L 338.169903 134.393224 
L 338.7831 134.393224 
L 338.78604 133.683953 
L 339.378075 133.683953 
L 339.384991 131.556141 
L 340.520784 131.556141 
L 340.527315 130.1376 
L 341.06647 130.1376 
L 341.067544 129.428329 
L 341.593462 129.428329 
L 341.598819 127.655153 
L 342.108336 127.655153 
L 342.11202 126.945882 
L 342.610541 126.945882 
L 342.610541 126.236612 
L 343.102352 126.236612 
L 343.106359 125.172706 
L 343.576113 125.172706 
L 343.576748 124.1088 
L 344.04046 124.1088 
L 344.044295 122.690259 
L 344.935784 122.690259 
L 344.937799 121.980988 
L 345.372787 121.980988 
L 345.372787 121.626353 
L 346.209776 121.626353 
L 346.209776 121.271718 
L 347.391522 121.271718 
L 347.391932 120.562447 
L 347.771195 120.562447 
L 347.773424 119.853176 
L 349.564025 119.853176 
L 349.564025 119.498541 
L 350.562658 119.498541 
L 350.562658 119.143906 
L 352.415546 119.143906 
L 352.415546 118.789271 
L 352.708692 118.789271 
L 352.708692 118.434635 
L 354.102585 118.434635 
L 354.102585 118.08 
L 360.8064 118.08 
L 360.8064 118.08 
" style="fill: none; stroke: #ff7500; stroke-width: 1.5; stroke-linecap: square"/>
   </g>
   <g id="line2d_46">
    <defs>
     <path id="m77e381c6d0" d="M 0 -6 
L -1.347084 -1.854102 
L -5.706339 -1.854102 
L -2.179628 0.708204 
L -3.526712 4.854102 
L -0 2.291796 
L 3.526712 4.854102 
L 2.179628 0.708204 
L 5.706339 -1.854102 
L 1.347084 -1.854102 
z
" style="stroke: #ff7500; stroke-width: 1.5; stroke-linejoin: bevel"/>
    </defs>
    <g>
     <use xlink:href="#m77e381c6d0" x="206.313976" y="263.480471" style="fill-opacity: 0; stroke: #ff7500; stroke-width: 1.5; stroke-linejoin: bevel"/>
     <use xlink:href="#m77e381c6d0" x="304.509538" y="212.058353" style="fill-opacity: 0; stroke: #ff7500; stroke-width: 1.5; stroke-linejoin: bevel"/>
     <use xlink:href="#m77e381c6d0" x="347.773424" y="119.853176" style="fill-opacity: 0; stroke: #ff7500; stroke-width: 1.5; stroke-linejoin: bevel"/>
     <use xlink:href="#m77e381c6d0" x="354.102585" y="118.08" style="fill-opacity: 0; stroke: #ff7500; stroke-width: 1.5; stroke-linejoin: bevel"/>
     <use xlink:href="#m77e381c6d0" x="360.8064" y="118.08" style="fill-opacity: 0; stroke: #ff7500; stroke-width: 1.5; stroke-linejoin: bevel"/>
    </g>
   </g>
   <g id="line2d_47">
    <path style="fill: none; stroke: #ff7500; stroke-width: 1.5; stroke-linecap: square"/>
    <g/>
   </g>
   <g id="line2d_48">
    <path d="M 274.176 263.480471 
" clip-path="url(#p7f0fad2d6f)" style="fill: none; stroke: #ff7500; stroke-width: 1.5; stroke-linecap: square"/>
    <defs>
     <path id="md71e79fc86" d="M -12 12 
L 12 -12 
M -12 -12 
L 12 12 
" style="stroke: #ff7500"/>
    </defs>
    <g clip-path="url(#p7f0fad2d6f)">
     <use xlink:href="#md71e79fc86" x="274.176" y="263.480471" style="fill: #ff7500; stroke: #ff7500"/>
    </g>
   </g>
   <g id="line2d_49">
    <defs>
     <path id="me4d2440dc1" d="M 0 1.5 
C 0.397805 1.5 0.77937 1.341951 1.06066 1.06066 
C 1.341951 0.77937 1.5 0.397805 1.5 0 
C 1.5 -0.397805 1.341951 -0.77937 1.06066 -1.06066 
C 0.77937 -1.341951 0.397805 -1.5 0 -1.5 
C -0.397805 -1.5 -0.77937 -1.341951 -1.06066 -1.06066 
C -1.341951 -0.77937 -1.5 -0.397805 -1.5 0 
C -1.5 0.397805 -1.341951 0.77937 -1.06066 1.06066 
C -0.77937 1.341951 -0.397805 1.5 0 1.5 
z
" style="stroke: #6495ed"/>
    </defs>
    <g>
     <use xlink:href="#me4d2440dc1" x="328.599989" y="155.316706" style="fill: #6495ed; stroke: #6495ed"/>
     <use xlink:href="#me4d2440dc1" x="328.599989" y="155.316706" style="fill: #6495ed; stroke: #6495ed"/>
    </g>
   </g>
   <g id="line2d_50">
    <path d="M 164.236544 298.944 
L 164.236544 298.589365 
L 165.50169 298.589365 
L 165.50169 298.234729 
L 166.460523 298.234729 
L 166.460523 297.880094 
L 168.337202 297.880094 
L 168.337202 297.525459 
L 168.591381 297.525459 
L 168.591381 297.170824 
L 168.788711 297.170824 
L 168.788711 296.816188 
L 168.920812 296.816188 
L 168.920812 296.461553 
L 169.662898 296.461553 
L 169.662898 296.106918 
L 170.088784 296.106918 
L 170.088784 295.752282 
L 170.841952 295.752282 
L 170.841952 295.397647 
L 171.491195 295.397647 
L 171.491195 295.043012 
L 172.574528 295.043012 
L 172.574528 294.688376 
L 172.89285 294.688376 
L 172.89285 294.333741 
L 173.406384 294.333741 
L 173.406384 293.979106 
L 173.814768 293.979106 
L 173.814768 293.624471 
L 174.089874 293.624471 
L 174.089874 293.269835 
L 184.457357 293.269835 
L 184.457357 292.9152 
L 185.581363 292.9152 
L 185.581363 292.560565 
L 185.979107 292.560565 
L 185.979107 292.205929 
L 186.279287 292.205929 
L 186.333537 291.496659 
L 187.453197 291.496659 
L 187.453197 291.142024 
L 193.495121 291.142024 
L 193.495121 290.787388 
L 193.612668 290.787388 
L 193.612668 290.432753 
L 193.890611 290.432753 
L 193.890611 290.078118 
L 194.247683 290.078118 
L 194.247683 289.723482 
L 194.554737 289.723482 
L 194.554737 289.368847 
L 196.578935 289.368847 
L 196.672967 288.659576 
L 197.868029 288.659576 
L 197.868029 288.304941 
L 198.686201 288.304941 
L 198.686201 287.950306 
L 198.832337 287.950306 
L 198.832337 287.595671 
L 199.81048 287.595671 
L 199.81048 287.241035 
L 200.635028 287.241035 
L 200.635028 286.8864 
L 200.873654 286.8864 
L 200.873654 286.531765 
L 201.543754 286.531765 
L 201.620022 285.822494 
L 203.141801 285.822494 
L 203.209006 285.113224 
L 203.670838 285.113224 
L 203.670838 284.758588 
L 204.165975 284.758588 
L 204.165975 284.403953 
L 205.855139 284.403953 
L 205.855139 284.049318 
L 206.281695 284.049318 
L 206.281695 283.694682 
L 207.403082 283.694682 
L 207.440358 282.985412 
L 207.791805 282.985412 
L 207.828319 282.276141 
L 207.92439 282.276141 
L 207.92439 281.921506 
L 208.821747 281.921506 
L 208.821747 281.566871 
L 209.702585 281.566871 
L 209.702585 281.212235 
L 210.326167 281.212235 
L 210.326167 280.8576 
L 212.803533 280.8576 
L 212.803533 280.502965 
L 213.213647 280.502965 
L 213.213647 280.148329 
L 214.680105 280.148329 
L 214.680105 279.793694 
L 214.799106 279.793694 
L 214.799106 279.439059 
L 215.04447 279.439059 
L 215.140382 278.729788 
L 217.080918 278.729788 
L 217.080918 278.375153 
L 217.262211 278.375153 
L 217.262211 278.020518 
L 218.22234 278.020518 
L 218.22234 277.665882 
L 219.461392 277.665882 
L 219.461392 277.311247 
L 219.761398 277.311247 
L 219.761398 276.956612 
L 220.135539 276.956612 
L 220.135539 276.601976 
L 220.276732 276.601976 
L 220.276732 276.247341 
L 220.480022 276.247341 
L 220.508419 275.538071 
L 220.643128 275.538071 
L 220.643128 275.183435 
L 220.868453 275.183435 
L 220.868453 274.8288 
L 221.664119 274.8288 
L 221.664119 274.474165 
L 223.667756 274.474165 
L 223.67892 273.764894 
L 224.646871 273.764894 
L 224.646871 273.410259 
L 224.958375 273.410259 
L 224.958375 273.055624 
L 225.574048 273.055624 
L 225.574048 272.700988 
L 226.264835 272.700988 
L 226.264835 272.346353 
L 227.117877 272.346353 
L 227.221453 271.282447 
L 227.37502 271.282447 
L 227.37502 270.927812 
L 228.179881 270.927812 
L 228.275736 269.863906 
L 228.960666 269.863906 
L 228.960666 269.509271 
L 229.289195 269.509271 
L 229.304629 268.8 
L 229.492598 268.8 
L 229.492598 268.445365 
L 231.263816 268.445365 
L 231.263816 268.090729 
L 232.142089 268.090729 
L 232.204019 267.026824 
L 232.689611 267.026824 
L 232.689611 266.672188 
L 233.715789 266.672188 
L 233.786046 265.608282 
L 233.830115 265.608282 
L 233.830115 265.253647 
L 234.447986 265.253647 
L 234.447986 264.899012 
L 235.297959 264.899012 
L 235.297959 264.544376 
L 235.429224 264.544376 
L 235.429224 264.189741 
L 235.805683 264.189741 
L 235.805683 263.835106 
L 235.970705 263.835106 
L 236.067516 263.125835 
L 236.138839 263.125835 
L 236.138839 262.7712 
L 236.385593 262.7712 
L 236.385593 262.416565 
L 236.719058 262.416565 
L 236.824232 261.352659 
L 237.684802 261.352659 
L 237.684802 260.998024 
L 237.8034 260.998024 
L 237.8034 260.643388 
L 239.111123 260.643388 
L 239.177371 259.934118 
L 239.599613 259.934118 
L 239.599613 259.579482 
L 240.12466 259.579482 
L 240.12466 259.224847 
L 240.342341 259.224847 
L 240.395449 258.515576 
L 241.07375 258.515576 
L 241.07375 258.160941 
L 241.459229 258.160941 
L 241.498116 257.451671 
L 242.552599 257.451671 
L 242.623195 256.7424 
L 242.820315 256.7424 
L 242.873235 256.033129 
L 243.236399 256.033129 
L 243.236399 255.678494 
L 243.419993 255.678494 
L 243.419993 255.323859 
L 243.969964 255.323859 
L 243.969964 254.969224 
L 244.782152 254.969224 
L 244.853814 254.259953 
L 245.537542 254.259953 
L 245.537542 253.905318 
L 246.009679 253.905318 
L 246.052427 252.841412 
L 246.888677 252.841412 
L 246.888677 252.486776 
L 247.160684 252.486776 
L 247.160684 252.132141 
L 247.919227 252.132141 
L 247.919227 251.777506 
L 248.085043 251.777506 
L 248.085043 251.422871 
L 248.339882 251.422871 
L 248.406064 250.7136 
L 249.685795 250.7136 
L 249.685795 250.358965 
L 250.48173 250.358965 
L 250.48173 250.004329 
L 250.83633 250.004329 
L 250.83633 249.649694 
L 251.331688 249.649694 
L 251.331688 249.295059 
L 251.918047 249.295059 
L 251.96099 248.231153 
L 252.900957 248.231153 
L 252.900957 247.876518 
L 253.469352 247.876518 
L 253.469352 247.521882 
L 253.861295 247.521882 
L 253.861295 247.167247 
L 255.052693 247.167247 
L 255.052693 246.812612 
L 255.377843 246.812612 
L 255.377843 246.457976 
L 255.925964 246.457976 
L 255.983596 245.748706 
L 257.131777 245.748706 
L 257.131777 245.394071 
L 257.45845 245.394071 
L 257.55521 244.6848 
L 259.070785 244.6848 
L 259.070785 244.330165 
L 260.242478 244.330165 
L 260.340073 243.620894 
L 262.26992 243.620894 
L 262.26992 243.266259 
L 262.557948 243.266259 
L 262.557948 242.911624 
L 262.846547 242.911624 
L 262.846547 242.556988 
L 263.315198 242.556988 
L 263.315198 242.202353 
L 264.263636 242.202353 
L 264.264656 241.493082 
L 264.787285 241.493082 
L 264.887046 240.783812 
L 265.078343 240.783812 
L 265.08847 240.074541 
L 265.410213 240.074541 
L 265.410213 239.719906 
L 265.543604 239.719906 
L 265.543604 239.365271 
L 265.680163 239.365271 
L 265.691744 238.301365 
L 266.234597 238.301365 
L 266.234597 237.946729 
L 266.518859 237.946729 
L 266.518859 237.592094 
L 266.703616 237.592094 
L 266.801646 236.882824 
L 267.092063 236.882824 
L 267.179638 235.818918 
L 267.281834 235.818918 
L 267.281834 235.464282 
L 267.487287 235.464282 
L 267.487287 235.109647 
L 267.724904 235.109647 
L 267.724904 234.755012 
L 268.094597 234.755012 
L 268.094597 234.400376 
L 268.370704 234.400376 
L 268.458477 233.691106 
L 268.760867 233.691106 
L 268.868007 231.208659 
L 269.595328 231.208659 
L 269.595328 230.854024 
L 269.9057 230.854024 
L 269.9057 230.499388 
L 270.126152 230.499388 
L 270.133232 229.435482 
L 270.505606 229.435482 
L 270.507138 228.016941 
L 270.730975 228.016941 
L 270.731472 227.307671 
L 270.88856 227.307671 
L 270.889523 226.5984 
L 271.516794 226.5984 
L 271.516794 226.243765 
L 272.427702 226.243765 
L 272.427702 225.889129 
L 273.171657 225.889129 
L 273.171657 225.534494 
L 273.734767 225.534494 
L 273.783494 224.115953 
L 275.052038 224.115953 
L 275.052038 223.761318 
L 276.478191 223.761318 
L 276.478191 223.406682 
L 276.705526 223.406682 
L 276.705526 223.052047 
L 276.888722 223.052047 
L 276.95496 222.342776 
L 277.066037 222.342776 
L 277.164663 221.633506 
L 277.430967 221.633506 
L 277.430967 221.278871 
L 277.619518 221.278871 
L 277.619518 220.924235 
L 277.768922 220.924235 
L 277.768922 220.5696 
L 277.979922 220.5696 
L 277.981612 219.505694 
L 278.139008 219.505694 
L 278.1914 218.796424 
L 278.339951 218.796424 
L 278.374136 218.087153 
L 278.876955 218.087153 
L 278.876955 217.732518 
L 279.067757 217.732518 
L 279.068424 216.668612 
L 279.214134 216.668612 
L 279.214134 216.313976 
L 279.678186 216.313976 
L 279.678186 215.959341 
L 279.986969 215.959341 
L 280.073759 215.250071 
L 280.222298 215.250071 
L 280.239988 213.476894 
L 280.656092 213.476894 
L 280.656092 213.122259 
L 281.142015 213.122259 
L 281.142015 212.767624 
L 282.392248 212.767624 
L 282.392248 212.412988 
L 283.330369 212.412988 
L 283.391872 211.349082 
L 283.450009 211.349082 
L 283.452427 210.285176 
L 284.006726 210.285176 
L 284.013284 209.575906 
L 284.27484 209.575906 
L 284.27484 209.221271 
L 284.425243 209.221271 
L 284.42653 208.157365 
L 284.68024 208.157365 
L 284.748539 207.093459 
L 284.940803 207.093459 
L 284.940803 206.738824 
L 285.120517 206.738824 
L 285.120517 206.384188 
L 285.307698 206.384188 
L 285.307698 206.029553 
L 285.470577 206.029553 
L 285.470577 205.674918 
L 286.053763 205.674918 
L 286.053763 205.320282 
L 286.293134 205.320282 
L 286.383255 204.256376 
L 286.997588 204.256376 
L 286.997731 203.547106 
L 287.658393 203.547106 
L 287.65849 202.837835 
L 288.803643 202.837835 
L 288.891035 201.773929 
L 288.918075 201.773929 
L 288.918075 201.419294 
L 289.098999 201.419294 
L 289.098999 201.064659 
L 289.302008 201.064659 
L 289.413098 200.000753 
L 289.466585 200.000753 
L 289.466585 199.646118 
L 289.756993 199.646118 
L 289.756993 199.291482 
L 290.39529 199.291482 
L 290.491308 198.582212 
L 290.734666 198.582212 
L 290.734666 198.227576 
L 291.238266 198.227576 
L 291.257687 197.518306 
L 292.624359 197.518306 
L 292.624359 197.163671 
L 292.7847 197.163671 
L 292.7847 196.809035 
L 292.934816 196.809035 
L 293.030908 195.390494 
L 293.230178 195.390494 
L 293.230178 195.035859 
L 293.437356 195.035859 
L 293.525044 193.971953 
L 293.810862 193.971953 
L 293.810862 193.617318 
L 293.998775 193.617318 
L 293.998966 192.553412 
L 294.233492 192.553412 
L 294.292343 191.489506 
L 294.514899 191.489506 
L 294.514899 191.134871 
L 294.713991 191.134871 
L 294.713991 190.780235 
L 295.140208 190.780235 
L 295.140208 190.4256 
L 296.114215 190.4256 
L 296.11989 189.716329 
L 296.543636 189.716329 
L 296.576022 189.007059 
L 296.822386 189.007059 
L 296.823278 188.297788 
L 296.986827 188.297788 
L 297.088812 186.879247 
L 297.271994 186.879247 
L 297.271994 186.524612 
L 297.462664 186.524612 
L 297.462664 186.169976 
L 297.618176 186.169976 
L 297.618176 185.815341 
L 298.647685 185.815341 
L 298.719644 184.3968 
L 298.837908 184.3968 
L 298.911083 183.332894 
L 299.041202 183.332894 
L 299.041202 182.978259 
L 299.153023 182.978259 
L 299.237768 181.914353 
L 299.322322 181.914353 
L 299.326176 181.205082 
L 299.452268 181.205082 
L 299.486789 180.495812 
L 299.67765 180.495812 
L 299.684312 179.786541 
L 300.478883 179.786541 
L 300.478883 179.431906 
L 301.115203 179.431906 
L 301.115203 179.077271 
L 301.282491 179.077271 
L 301.282491 178.722635 
L 301.396295 178.722635 
L 301.396295 178.368 
L 301.788973 178.368 
L 301.788973 178.013365 
L 301.959352 178.013365 
L 302.066205 177.304094 
L 302.253622 177.304094 
L 302.253622 176.949459 
L 302.669691 176.949459 
L 302.669691 176.594824 
L 303.236922 176.594824 
L 303.236922 176.240188 
L 303.479658 176.240188 
L 303.479658 175.885553 
L 303.710581 175.885553 
L 303.81397 174.821647 
L 304.117081 174.821647 
L 304.117081 174.467012 
L 304.257382 174.467012 
L 304.257382 174.112376 
L 305.141389 174.112376 
L 305.141389 173.757741 
L 305.371177 173.757741 
L 305.371467 173.048471 
L 305.511242 173.048471 
L 305.572652 171.629929 
L 305.828241 171.629929 
L 305.828241 171.275294 
L 306.175569 171.275294 
L 306.175569 170.920659 
L 307.818184 170.920659 
L 307.818184 170.566024 
L 308.415491 170.566024 
L 308.415723 169.856753 
L 308.717657 169.856753 
L 308.717657 169.502118 
L 308.869553 169.502118 
L 308.869553 169.147482 
L 309.039273 169.147482 
L 309.110027 168.083576 
L 309.920424 168.083576 
L 309.920424 167.728941 
L 310.092694 167.728941 
L 310.092694 167.374306 
L 310.523878 167.374306 
L 310.523878 167.019671 
L 311.376457 167.019671 
L 311.451885 166.3104 
L 311.500555 166.3104 
L 311.590251 165.246494 
L 312.022909 165.246494 
L 312.022909 164.891859 
L 312.708209 164.891859 
L 312.708209 164.537224 
L 312.897373 164.537224 
L 312.897373 164.182588 
L 313.172494 164.182588 
L 313.172494 163.827953 
L 313.406663 163.827953 
L 313.406663 163.473318 
L 313.729533 163.473318 
L 313.729533 163.118682 
L 313.963472 163.118682 
L 314.003931 162.054776 
L 314.540638 162.054776 
L 314.540638 161.700141 
L 315.157797 161.700141 
L 315.219851 160.990871 
L 315.973962 160.990871 
L 315.973962 160.636235 
L 317.96307 160.636235 
L 318.062029 159.926965 
L 318.161559 159.926965 
L 318.255035 159.217694 
L 318.495634 159.217694 
L 318.495634 158.863059 
L 318.952596 158.863059 
L 318.952596 158.508424 
L 319.080073 158.508424 
L 319.080073 158.153788 
L 319.367327 158.153788 
L 319.367327 157.799153 
L 320.533311 157.799153 
L 320.533311 157.444518 
L 323.636051 157.444518 
L 323.636051 157.089882 
L 325.399554 157.089882 
L 325.399554 156.735247 
L 326.39028 156.735247 
L 326.390393 156.025976 
L 327.871042 156.025976 
L 327.871042 155.671341 
L 328.599989 155.671341 
L 328.599989 155.316706 
L 360.8064 155.316706 
L 360.8064 155.316706 
" style="fill: none; stroke: #6495ed; stroke-width: 1.5; stroke-linecap: square"/>
   </g>
   <g id="line2d_51">
    <defs>
     <path id="m8c86758d9b" d="M -0 6 
L 6 -6 
L -6 -6 
z
" style="stroke: #6495ed; stroke-width: 1.5; stroke-linejoin: miter"/>
    </defs>
    <g>
     <use xlink:href="#m8c86758d9b" x="215.140382" y="279.084424" style="fill-opacity: 0; stroke: #6495ed; stroke-width: 1.5; stroke-linejoin: miter"/>
     <use xlink:href="#m8c86758d9b" x="301.959352" y="178.013365" style="fill-opacity: 0; stroke: #6495ed; stroke-width: 1.5; stroke-linejoin: miter"/>
     <use xlink:href="#m8c86758d9b" x="328.599989" y="155.316706" style="fill-opacity: 0; stroke: #6495ed; stroke-width: 1.5; stroke-linejoin: miter"/>
     <use xlink:href="#m8c86758d9b" x="360.8064" y="155.316706" style="fill-opacity: 0; stroke: #6495ed; stroke-width: 1.5; stroke-linejoin: miter"/>
    </g>
   </g>
   <g id="line2d_52">
    <path style="fill: none; stroke: #6495ed; stroke-width: 1.5; stroke-linecap: square"/>
    <g/>
   </g>
   <g id="line2d_53">
    <path d="M 261.138293 243.620894 
" clip-path="url(#p7f0fad2d6f)" style="fill: none; stroke: #6495ed; stroke-width: 1.5; stroke-linecap: square"/>
    <defs>
     <path id="meb55e03a81" d="M -12 12 
L 12 -12 
M -12 -12 
L 12 12 
" style="stroke: #6495ed"/>
    </defs>
    <g clip-path="url(#p7f0fad2d6f)">
     <use xlink:href="#meb55e03a81" x="261.138293" y="243.620894" style="fill: #6495ed; stroke: #6495ed"/>
    </g>
   </g>
   <g id="line2d_54">
    <path d="M 360.8064 256.387765 
L 380.514816 293.51808 
" style="fill: none; stroke: #ff00ff; stroke-width: 1.5; stroke-linecap: square"/>
    <g>
     <use xlink:href="#mbabe4ed2fb" x="360.8064" y="256.387765" style="fill-opacity: 0; stroke: #ff00ff; stroke-width: 1.5; stroke-linejoin: miter"/>
     <use xlink:href="#mbabe4ed2fb" x="380.514816" y="293.51808" style="fill-opacity: 0; stroke: #ff00ff; stroke-width: 1.5; stroke-linejoin: miter"/>
    </g>
   </g>
   <g id="line2d_55">
    <path d="M 360.8064 213.831529 
L 380.514816 228.40704 
" style="fill: none; stroke: #000080; stroke-width: 1.5; stroke-linecap: square"/>
    <g>
     <use xlink:href="#mb96cd3add0" x="360.8064" y="213.831529" style="fill-opacity: 0; stroke: #000080; stroke-width: 1.5"/>
     <use xlink:href="#mb96cd3add0" x="380.514816" y="228.40704" style="fill-opacity: 0; stroke: #000080; stroke-width: 1.5"/>
    </g>
   </g>
   <g id="line2d_56">
    <path d="M 360.8064 155.316706 
L 380.514816 163.296 
" style="fill: none; stroke: #6495ed; stroke-width: 1.5; stroke-linecap: square"/>
    <g>
     <use xlink:href="#m8c86758d9b" x="360.8064" y="155.316706" style="fill-opacity: 0; stroke: #6495ed; stroke-width: 1.5; stroke-linejoin: miter"/>
     <use xlink:href="#m8c86758d9b" x="380.514816" y="163.296" style="fill-opacity: 0; stroke: #6495ed; stroke-width: 1.5; stroke-linejoin: miter"/>
    </g>
   </g>
   <g id="line2d_57">
    <path d="M 360.8064 118.08 
L 380.514816 98.18496 
" style="fill: none; stroke: #ff7500; stroke-width: 1.5; stroke-linecap: square"/>
    <g>
     <use xlink:href="#m77e381c6d0" x="360.8064" y="118.08" style="fill-opacity: 0; stroke: #ff7500; stroke-width: 1.5; stroke-linejoin: bevel"/>
     <use xlink:href="#m77e381c6d0" x="380.514816" y="98.18496" style="fill-opacity: 0; stroke: #ff7500; stroke-width: 1.5; stroke-linejoin: bevel"/>
    </g>
   </g>
   <g id="line2d_58">
    <path d="M 360.8064 298.944 
L 360.8064 27.648 
" style="fill: none; stroke: #000000; stroke-width: 1.5; stroke-linecap: square"/>
   </g>
   <g id="patch_3">
    <path d="M 57.6 298.944 
L 360.8064 298.944 
" style="fill: none; stroke: #000000; stroke-width: 0.8; stroke-linejoin: miter; stroke-linecap: square"/>
   </g>
   <g id="patch_4">
    <path d="M 57.6 27.648 
L 360.8064 27.648 
" style="fill: none; stroke: #000000; stroke-width: 0.8; stroke-linejoin: miter; stroke-linecap: square"/>
   </g>
   <g id="text_13">
    <!-- GA -->
    <g transform="translate(386.578944 297.381205)scale(0.14 -0.14)">
     <defs>
      <path id="DejaVuSans-47" d="M 3809 666 
L 3809 1919 
L 2778 1919 
L 2778 2438 
L 4434 2438 
L 4434 434 
Q 4069 175 3628 42 
Q 3188 -91 2688 -91 
Q 1594 -91 976 548 
Q 359 1188 359 2328 
Q 359 3472 976 4111 
Q 1594 4750 2688 4750 
Q 3144 4750 3555 4637 
Q 3966 4525 4313 4306 
L 4313 3634 
Q 3963 3931 3569 4081 
Q 3175 4231 2741 4231 
Q 1884 4231 1454 3753 
Q 1025 3275 1025 2328 
Q 1025 1384 1454 906 
Q 1884 428 2741 428 
Q 3075 428 3337 486 
Q 3600 544 3809 666 
z
" transform="scale(0.015625)"/>
      <path id="DejaVuSans-41" d="M 2188 4044 
L 1331 1722 
L 3047 1722 
L 2188 4044 
z
M 1831 4666 
L 2547 4666 
L 4325 0 
L 3669 0 
L 3244 1197 
L 1141 1197 
L 716 0 
L 50 0 
L 1831 4666 
z
" transform="scale(0.015625)"/>
     </defs>
     <use xlink:href="#DejaVuSans-47"/>
     <use xlink:href="#DejaVuSans-41" x="77.490234"/>
    </g>
   </g>
   <g id="text_14">
    <!-- LCGA -->
    <g transform="translate(386.578944 232.270165)scale(0.14 -0.14)">
     <defs>
      <path id="DejaVuSans-4c" d="M 628 4666 
L 1259 4666 
L 1259 531 
L 3531 531 
L 3531 0 
L 628 0 
L 628 4666 
z
" transform="scale(0.015625)"/>
      <path id="DejaVuSans-43" d="M 4122 4306 
L 4122 3641 
Q 3803 3938 3442 4084 
Q 3081 4231 2675 4231 
Q 1875 4231 1450 3742 
Q 1025 3253 1025 2328 
Q 1025 1406 1450 917 
Q 1875 428 2675 428 
Q 3081 428 3442 575 
Q 3803 722 4122 1019 
L 4122 359 
Q 3791 134 3420 21 
Q 3050 -91 2638 -91 
Q 1578 -91 968 557 
Q 359 1206 359 2328 
Q 359 3453 968 4101 
Q 1578 4750 2638 4750 
Q 3056 4750 3426 4639 
Q 3797 4528 4122 4306 
z
" transform="scale(0.015625)"/>
     </defs>
     <use xlink:href="#DejaVuSans-4c"/>
     <use xlink:href="#DejaVuSans-43" x="55.712891"/>
     <use xlink:href="#DejaVuSans-47" x="125.537109"/>
     <use xlink:href="#DejaVuSans-41" x="203.027344"/>
    </g>
   </g>
   <g id="text_15">
    <!-- EvoSpace- -->
    <g transform="translate(386.578944 167.159125)scale(0.14 -0.14)">
     <defs>
      <path id="DejaVuSans-45" d="M 628 4666 
L 3578 4666 
L 3578 4134 
L 1259 4134 
L 1259 2753 
L 3481 2753 
L 3481 2222 
L 1259 2222 
L 1259 531 
L 3634 531 
L 3634 0 
L 628 0 
L 628 4666 
z
" transform="scale(0.015625)"/>
      <path id="DejaVuSans-53" d="M 3425 4513 
L 3425 3897 
Q 3066 4069 2747 4153 
Q 2428 4238 2131 4238 
Q 1616 4238 1336 4038 
Q 1056 3838 1056 3469 
Q 1056 3159 1242 3001 
Q 1428 2844 1947 2747 
L 2328 2669 
Q 3034 2534 3370 2195 
Q 3706 1856 3706 1288 
Q 3706 609 3251 259 
Q 2797 -91 1919 -91 
Q 1588 -91 1214 -16 
Q 841 59 441 206 
L 441 856 
Q 825 641 1194 531 
Q 1563 422 1919 422 
Q 2459 422 2753 634 
Q 3047 847 3047 1241 
Q 3047 1584 2836 1778 
Q 2625 1972 2144 2069 
L 1759 2144 
Q 1053 2284 737 2584 
Q 422 2884 422 3419 
Q 422 4038 858 4394 
Q 1294 4750 2059 4750 
Q 2388 4750 2728 4690 
Q 3069 4631 3425 4513 
z
" transform="scale(0.015625)"/>
     </defs>
     <use xlink:href="#DejaVuSans-45"/>
     <use xlink:href="#DejaVuSans-76" x="63.183594"/>
     <use xlink:href="#DejaVuSans-6f" x="122.363281"/>
     <use xlink:href="#DejaVuSans-53" x="183.544922"/>
     <use xlink:href="#DejaVuSans-70" x="247.021484"/>
     <use xlink:href="#DejaVuSans-61" x="310.498047"/>
     <use xlink:href="#DejaVuSans-63" x="371.777344"/>
     <use xlink:href="#DejaVuSans-65" x="426.757812"/>
     <use xlink:href="#DejaVuSans-2d" x="488.28125"/>
    </g>
   </g>
   <g id="text_16">
    <!-- PSO -->
    <g transform="translate(386.578944 102.048085)scale(0.14 -0.14)">
     <defs>
      <path id="DejaVuSans-50" d="M 1259 4147 
L 1259 2394 
L 2053 2394 
Q 2494 2394 2734 2622 
Q 2975 2850 2975 3272 
Q 2975 3691 2734 3919 
Q 2494 4147 2053 4147 
L 1259 4147 
z
M 628 4666 
L 2053 4666 
Q 2838 4666 3239 4311 
Q 3641 3956 3641 3272 
Q 3641 2581 3239 2228 
Q 2838 1875 2053 1875 
L 1259 1875 
L 1259 0 
L 628 0 
L 628 4666 
z
" transform="scale(0.015625)"/>
      <path id="DejaVuSans-4f" d="M 2522 4238 
Q 1834 4238 1429 3725 
Q 1025 3213 1025 2328 
Q 1025 1447 1429 934 
Q 1834 422 2522 422 
Q 3209 422 3611 934 
Q 4013 1447 4013 2328 
Q 4013 3213 3611 3725 
Q 3209 4238 2522 4238 
z
M 2522 4750 
Q 3503 4750 4090 4092 
Q 4678 3434 4678 2328 
Q 4678 1225 4090 567 
Q 3503 -91 2522 -91 
Q 1538 -91 948 565 
Q 359 1222 359 2328 
Q 359 3434 948 4092 
Q 1538 4750 2522 4750 
z
" transform="scale(0.015625)"/>
     </defs>
     <use xlink:href="#DejaVuSans-50"/>
     <use xlink:href="#DejaVuSans-53" x="60.302734"/>
     <use xlink:href="#DejaVuSans-4f" x="123.779297"/>
    </g>
   </g>
   <g id="text_17">
    <!-- best 2009 -->
    <g transform="translate(386.578944 36.937045)scale(0.14 -0.14)">
     <defs>
      <path id="DejaVuSans-62" d="M 3116 1747 
Q 3116 2381 2855 2742 
Q 2594 3103 2138 3103 
Q 1681 3103 1420 2742 
Q 1159 2381 1159 1747 
Q 1159 1113 1420 752 
Q 1681 391 2138 391 
Q 2594 391 2855 752 
Q 3116 1113 3116 1747 
z
M 1159 2969 
Q 1341 3281 1617 3432 
Q 1894 3584 2278 3584 
Q 2916 3584 3314 3078 
Q 3713 2572 3713 1747 
Q 3713 922 3314 415 
Q 2916 -91 2278 -91 
Q 1894 -91 1617 61 
Q 1341 213 1159 525 
L 1159 0 
L 581 0 
L 581 4863 
L 1159 4863 
L 1159 2969 
z
" transform="scale(0.015625)"/>
      <path id="DejaVuSans-39" d="M 703 97 
L 703 672 
Q 941 559 1184 500 
Q 1428 441 1663 441 
Q 2288 441 2617 861 
Q 2947 1281 2994 2138 
Q 2813 1869 2534 1725 
Q 2256 1581 1919 1581 
Q 1219 1581 811 2004 
Q 403 2428 403 3163 
Q 403 3881 828 4315 
Q 1253 4750 1959 4750 
Q 2769 4750 3195 4129 
Q 3622 3509 3622 2328 
Q 3622 1225 3098 567 
Q 2575 -91 1691 -91 
Q 1453 -91 1209 -44 
Q 966 3 703 97 
z
M 1959 2075 
Q 2384 2075 2632 2365 
Q 2881 2656 2881 3163 
Q 2881 3666 2632 3958 
Q 2384 4250 1959 4250 
Q 1534 4250 1286 3958 
Q 1038 3666 1038 3163 
Q 1038 2656 1286 2365 
Q 1534 2075 1959 2075 
z
" transform="scale(0.015625)"/>
     </defs>
     <use xlink:href="#DejaVuSans-62"/>
     <use xlink:href="#DejaVuSans-65" x="63.476562"/>
     <use xlink:href="#DejaVuSans-73" x="125"/>
     <use xlink:href="#DejaVuSans-74" x="177.099609"/>
     <use xlink:href="#DejaVuSans-20" x="216.308594"/>
     <use xlink:href="#DejaVuSans-32" x="248.095703"/>
     <use xlink:href="#DejaVuSans-30" x="311.71875"/>
     <use xlink:href="#DejaVuSans-30" x="375.341797"/>
     <use xlink:href="#DejaVuSans-39" x="438.964844"/>
    </g>
   </g>
   <g id="text_18">
    <!-- bbob f13, 20-D -->
    <g transform="translate(60.632064 38.111366)scale(0.102 -0.102)">
     <defs>
      <path id="DejaVuSans-33" d="M 2597 2516 
Q 3050 2419 3304 2112 
Q 3559 1806 3559 1356 
Q 3559 666 3084 287 
Q 2609 -91 1734 -91 
Q 1441 -91 1130 -33 
Q 819 25 488 141 
L 488 750 
Q 750 597 1062 519 
Q 1375 441 1716 441 
Q 2309 441 2620 675 
Q 2931 909 2931 1356 
Q 2931 1769 2642 2001 
Q 2353 2234 1838 2234 
L 1294 2234 
L 1294 2753 
L 1863 2753 
Q 2328 2753 2575 2939 
Q 2822 3125 2822 3475 
Q 2822 3834 2567 4026 
Q 2313 4219 1838 4219 
Q 1578 4219 1281 4162 
Q 984 4106 628 3988 
L 628 4550 
Q 988 4650 1302 4700 
Q 1616 4750 1894 4750 
Q 2613 4750 3031 4423 
Q 3450 4097 3450 3541 
Q 3450 3153 3228 2886 
Q 3006 2619 2597 2516 
z
" transform="scale(0.015625)"/>
      <path id="DejaVuSans-44" d="M 1259 4147 
L 1259 519 
L 2022 519 
Q 2988 519 3436 956 
Q 3884 1394 3884 2338 
Q 3884 3275 3436 3711 
Q 2988 4147 2022 4147 
L 1259 4147 
z
M 628 4666 
L 1925 4666 
Q 3281 4666 3915 4102 
Q 4550 3538 4550 2338 
Q 4550 1131 3912 565 
Q 3275 0 1925 0 
L 628 0 
L 628 4666 
z
" transform="scale(0.015625)"/>
     </defs>
     <use xlink:href="#DejaVuSans-62"/>
     <use xlink:href="#DejaVuSans-62" x="63.476562"/>
     <use xlink:href="#DejaVuSans-6f" x="126.953125"/>
     <use xlink:href="#DejaVuSans-62" x="188.134766"/>
     <use xlink:href="#DejaVuSans-20" x="251.611328"/>
     <use xlink:href="#DejaVuSans-66" x="283.398438"/>
     <use xlink:href="#DejaVuSans-31" x="318.603516"/>
     <use xlink:href="#DejaVuSans-33" x="382.226562"/>
     <use xlink:href="#DejaVuSans-2c" x="445.849609"/>
     <use xlink:href="#DejaVuSans-20" x="477.636719"/>
     <use xlink:href="#DejaVuSans-32" x="509.423828"/>
     <use xlink:href="#DejaVuSans-30" x="573.046875"/>
     <use xlink:href="#DejaVuSans-2d" x="636.669922"/>
     <use xlink:href="#DejaVuSans-44" x="672.753906"/>
    </g>
    <!-- 51 targets: 100..1e-08 -->
    <g transform="translate(60.632064 49.533135)scale(0.102 -0.102)">
     <defs>
      <path id="DejaVuSans-35" d="M 691 4666 
L 3169 4666 
L 3169 4134 
L 1269 4134 
L 1269 2991 
Q 1406 3038 1543 3061 
Q 1681 3084 1819 3084 
Q 2600 3084 3056 2656 
Q 3513 2228 3513 1497 
Q 3513 744 3044 326 
Q 2575 -91 1722 -91 
Q 1428 -91 1123 -41 
Q 819 9 494 109 
L 494 744 
Q 775 591 1075 516 
Q 1375 441 1709 441 
Q 2250 441 2565 725 
Q 2881 1009 2881 1497 
Q 2881 1984 2565 2268 
Q 2250 2553 1709 2553 
Q 1456 2553 1204 2497 
Q 953 2441 691 2322 
L 691 4666 
z
" transform="scale(0.015625)"/>
      <path id="DejaVuSans-3a" d="M 750 794 
L 1409 794 
L 1409 0 
L 750 0 
L 750 794 
z
M 750 3309 
L 1409 3309 
L 1409 2516 
L 750 2516 
L 750 3309 
z
" transform="scale(0.015625)"/>
     </defs>
     <use xlink:href="#DejaVuSans-35"/>
     <use xlink:href="#DejaVuSans-31" x="63.623047"/>
     <use xlink:href="#DejaVuSans-20" x="127.246094"/>
     <use xlink:href="#DejaVuSans-74" x="159.033203"/>
     <use xlink:href="#DejaVuSans-61" x="198.242188"/>
     <use xlink:href="#DejaVuSans-72" x="259.521484"/>
     <use xlink:href="#DejaVuSans-67" x="298.884766"/>
     <use xlink:href="#DejaVuSans-65" x="362.361328"/>
     <use xlink:href="#DejaVuSans-74" x="423.884766"/>
     <use xlink:href="#DejaVuSans-73" x="463.09375"/>
     <use xlink:href="#DejaVuSans-3a" x="515.193359"/>
     <use xlink:href="#DejaVuSans-20" x="548.884766"/>
     <use xlink:href="#DejaVuSans-31" x="580.671875"/>
     <use xlink:href="#DejaVuSans-30" x="644.294922"/>
     <use xlink:href="#DejaVuSans-30" x="707.917969"/>
     <use xlink:href="#DejaVuSans-2e" x="771.541016"/>
     <use xlink:href="#DejaVuSans-2e" x="803.328125"/>
     <use xlink:href="#DejaVuSans-31" x="835.115234"/>
     <use xlink:href="#DejaVuSans-65" x="898.738281"/>
     <use xlink:href="#DejaVuSans-2d" x="960.261719"/>
     <use xlink:href="#DejaVuSans-30" x="996.345703"/>
     <use xlink:href="#DejaVuSans-38" x="1059.96875"/>
    </g>
    <!-- 15 instances -->
    <g transform="translate(60.632064 60.954904)scale(0.102 -0.102)">
     <use xlink:href="#DejaVuSans-31"/>
     <use xlink:href="#DejaVuSans-35" x="63.623047"/>
     <use xlink:href="#DejaVuSans-20" x="127.246094"/>
     <use xlink:href="#DejaVuSans-69" x="159.033203"/>
     <use xlink:href="#DejaVuSans-6e" x="186.816406"/>
     <use xlink:href="#DejaVuSans-73" x="250.195312"/>
     <use xlink:href="#DejaVuSans-74" x="302.294922"/>
     <use xlink:href="#DejaVuSans-61" x="341.503906"/>
     <use xlink:href="#DejaVuSans-6e" x="402.783203"/>
     <use xlink:href="#DejaVuSans-63" x="466.162109"/>
     <use xlink:href="#DejaVuSans-65" x="521.142578"/>
     <use xlink:href="#DejaVuSans-73" x="582.666016"/>
    </g>
   </g>
   <g id="text_19">
    <!-- v2.6 -->
    <g style="fill: #808080" transform="translate(198.292262 294.151352)scale(0.1 -0.1)">
     <use xlink:href="#DejaVuSans-76"/>
     <use xlink:href="#DejaVuSans-32" x="59.179688"/>
     <use xlink:href="#DejaVuSans-2e" x="122.802734"/>
     <use xlink:href="#DejaVuSans-36" x="154.589844"/>
    </g>
   </g>
   <g id="text_20">
    <!-- 13 Sharp ridge -->
    <g transform="translate(135.10945 21.648)scale(0.2 -0.2)">
     <defs>
      <path id="DejaVuSans-68" d="M 3513 2113 
L 3513 0 
L 2938 0 
L 2938 2094 
Q 2938 2591 2744 2837 
Q 2550 3084 2163 3084 
Q 1697 3084 1428 2787 
Q 1159 2491 1159 1978 
L 1159 0 
L 581 0 
L 581 4863 
L 1159 4863 
L 1159 2956 
Q 1366 3272 1645 3428 
Q 1925 3584 2291 3584 
Q 2894 3584 3203 3211 
Q 3513 2838 3513 2113 
z
" transform="scale(0.015625)"/>
     </defs>
     <use xlink:href="#DejaVuSans-31"/>
     <use xlink:href="#DejaVuSans-33" x="63.623047"/>
     <use xlink:href="#DejaVuSans-20" x="127.246094"/>
     <use xlink:href="#DejaVuSans-53" x="159.033203"/>
     <use xlink:href="#DejaVuSans-68" x="222.509766"/>
     <use xlink:href="#DejaVuSans-61" x="285.888672"/>
     <use xlink:href="#DejaVuSans-72" x="347.167969"/>
     <use xlink:href="#DejaVuSans-70" x="388.28125"/>
     <use xlink:href="#DejaVuSans-20" x="451.757812"/>
     <use xlink:href="#DejaVuSans-72" x="483.544922"/>
     <use xlink:href="#DejaVuSans-69" x="524.658203"/>
     <use xlink:href="#DejaVuSans-64" x="552.441406"/>
     <use xlink:href="#DejaVuSans-67" x="615.917969"/>
     <use xlink:href="#DejaVuSans-65" x="679.394531"/>
    </g>
   </g>
  </g>
 </g>
 <defs>
  <clipPath id="p7f0fad2d6f">
   <rect x="57.6" y="27.648" width="303.2064" height="271.296"/>
  </clipPath>
 </defs>
</svg>
