<?xml version="1.0" encoding="utf-8" standalone="no"?>
<!DOCTYPE svg PUBLIC "-//W3C//DTD SVG 1.1//EN"
  "http://www.w3.org/Graphics/SVG/1.1/DTD/svg11.dtd">
<svg xmlns:xlink="http://www.w3.org/1999/xlink" width="460.8pt" height="345.6pt" viewBox="0 0 460.8 345.6" xmlns="http://www.w3.org/2000/svg" version="1.1">
 <metadata>
  <rdf:RDF xmlns:dc="http://purl.org/dc/elements/1.1/" xmlns:cc="http://creativecommons.org/ns#" xmlns:rdf="http://www.w3.org/1999/02/22-rdf-syntax-ns#">
   <cc:Work>
    <dc:type rdf:resource="http://purl.org/dc/dcmitype/StillImage"/>
    <dc:date>2024-05-29T08:08:50.229441</dc:date>
    <dc:format>image/svg+xml</dc:format>
    <dc:creator>
     <cc:Agent>
      <dc:title>Matplotlib v3.5.1, https://matplotlib.org/</dc:title>
     </cc:Agent>
    </dc:creator>
   </cc:Work>
  </rdf:RDF>
 </metadata>
 <defs>
  <style type="text/css">*{stroke-linejoin: round; stroke-linecap: butt}</style>
 </defs>
 <g id="figure_1">
  <g id="patch_1">
   <path d="M 0 345.6 
L 460.8 345.6 
L 460.8 0 
L 0 0 
z
" style="fill: #ffffff"/>
  </g>
  <g id="axes_1">
   <g id="patch_2">
    <path d="M 57.6 298.944 
L 360.8064 298.944 
L 360.8064 27.648 
L 57.6 27.648 
z
" style="fill: #ffffff"/>
   </g>
   <g id="line2d_1">
    <path d="M 27.323974 298.944 
L 27.323974 282.985412 
L 83.678349 282.985412 
L 83.678349 277.665882 
L 88.613828 277.665882 
L 88.613828 272.346353 
L 94.205591 272.346353 
L 94.205591 267.026824 
L 100.147275 267.026824 
L 100.147275 261.707294 
L 104.961779 261.707294 
L 104.961779 256.387765 
L 107.5116 256.387765 
L 107.5116 251.068235 
L 115.227139 251.068235 
L 115.227139 245.748706 
L 118.450653 245.748706 
L 118.450653 240.429176 
L 123.260379 240.429176 
L 123.260379 235.109647 
L 124.906754 235.109647 
L 124.906754 229.790118 
L 126.323346 229.790118 
L 126.323346 224.470588 
L 127.911368 224.470588 
L 127.911368 219.151059 
L 128.266313 219.151059 
L 128.266313 213.831529 
L 129.041269 213.831529 
L 129.041269 208.512 
L 130.027253 208.512 
L 130.027253 203.192471 
L 130.344755 203.192471 
L 130.344755 197.872941 
L 131.63737 197.872941 
L 131.63737 192.553412 
L 132.144842 192.553412 
L 132.144842 187.233882 
L 132.708526 187.233882 
L 132.708526 181.914353 
L 133.120474 181.914353 
L 133.120474 171.275294 
L 134.176839 171.275294 
L 134.176839 165.955765 
L 134.620977 165.955765 
L 134.620977 160.636235 
L 134.87014 160.636235 
L 134.87014 155.316706 
L 135.893741 155.316706 
L 135.893741 139.358118 
L 136.068734 139.358118 
L 136.068734 123.399529 
L 136.126705 123.399529 
L 136.126705 118.08 
L 136.242113 118.08 
L 136.242113 112.760471 
L 136.696795 112.760471 
L 136.696795 107.440941 
L 136.864507 107.440941 
L 136.864507 102.121412 
L 136.97549 102.121412 
L 136.97549 96.801882 
L 137.195511 96.801882 
L 137.195511 91.482353 
L 137.250116 91.482353 
L 137.250116 86.162824 
L 137.787626 86.162824 
L 137.787626 80.843294 
L 137.840541 80.843294 
L 137.840541 70.204235 
L 138.050729 70.204235 
L 138.050729 64.884706 
L 138.36167 64.884706 
L 138.36167 59.565176 
L 138.515235 59.565176 
L 138.515235 54.245647 
L 138.718057 54.245647 
L 138.718057 27.648 
L 360.8064 27.648 
" style="fill: none; stroke: #f5deb3; stroke-width: 4; stroke-linecap: square"/>
   </g>
   <g id="line2d_2">
    <defs>
     <path id="m3f2b8ab68f" d="M 0 7.778175 
L 7.778175 0 
L 0 -7.778175 
L -7.778175 0 
z
" style="stroke: #f5deb3; stroke-width: 1.5; stroke-linejoin: miter"/>
    </defs>
    <g>
     <use xlink:href="#m3f2b8ab68f" x="128.266313" y="219.151059" style="fill: #f5deb3; stroke: #f5deb3; stroke-width: 1.5; stroke-linejoin: miter"/>
     <use xlink:href="#m3f2b8ab68f" x="137.195511" y="96.801882" style="fill: #f5deb3; stroke: #f5deb3; stroke-width: 1.5; stroke-linejoin: miter"/>
     <use xlink:href="#m3f2b8ab68f" x="138.718057" y="54.245647" style="fill: #f5deb3; stroke: #f5deb3; stroke-width: 1.5; stroke-linejoin: miter"/>
     <use xlink:href="#m3f2b8ab68f" x="138.718057" y="27.648" style="fill: #f5deb3; stroke: #f5deb3; stroke-width: 1.5; stroke-linejoin: miter"/>
     <use xlink:href="#m3f2b8ab68f" x="138.718057" y="27.648" style="fill: #f5deb3; stroke: #f5deb3; stroke-width: 1.5; stroke-linejoin: miter"/>
     <use xlink:href="#m3f2b8ab68f" x="360.8064" y="27.648" style="fill: #f5deb3; stroke: #f5deb3; stroke-width: 1.5; stroke-linejoin: miter"/>
    </g>
   </g>
   <g id="line2d_3">
    <path style="fill: none; stroke: #f5deb3; stroke-width: 4; stroke-linecap: square"/>
    <g/>
   </g>
   <g id="line2d_4">
    <path d="M 360.8064 27.648 
L 380.514816 33.07392 
" style="fill: none; stroke: #f5deb3; stroke-width: 4; stroke-linecap: square"/>
    <g>
     <use xlink:href="#m3f2b8ab68f" x="360.8064" y="27.648" style="fill: #f5deb3; stroke: #f5deb3; stroke-width: 1.5; stroke-linejoin: miter"/>
     <use xlink:href="#m3f2b8ab68f" x="380.514816" y="33.07392" style="fill: #f5deb3; stroke: #f5deb3; stroke-width: 1.5; stroke-linejoin: miter"/>
    </g>
   </g>
   <g id="matplotlib.axis_1">
    <g id="xtick_1">
     <g id="line2d_5">
      <path d="M 57.6 298.944 
L 57.6 27.648 
" clip-path="url(#p46bb784df1)" style="fill: none; stroke: #b0b0b0; stroke-width: 0.8; stroke-linecap: square"/>
     </g>
     <g id="line2d_6">
      <defs>
       <path id="mdef83cb12b" d="M 0 0 
L 0 3.5 
" style="stroke: #000000; stroke-width: 0.8"/>
      </defs>
      <g>
       <use xlink:href="#mdef83cb12b" x="57.6" y="298.944" style="stroke: #000000; stroke-width: 0.8"/>
      </g>
     </g>
     <g id="text_1">
      <!-- 0 -->
      <g transform="translate(52.191875 318.861344)scale(0.17 -0.17)">
       <defs>
        <path id="DejaVuSans-30" d="M 2034 4250 
Q 1547 4250 1301 3770 
Q 1056 3291 1056 2328 
Q 1056 1369 1301 889 
Q 1547 409 2034 409 
Q 2525 409 2770 889 
Q 3016 1369 3016 2328 
Q 3016 3291 2770 3770 
Q 2525 4250 2034 4250 
z
M 2034 4750 
Q 2819 4750 3233 4129 
Q 3647 3509 3647 2328 
Q 3647 1150 3233 529 
Q 2819 -91 2034 -91 
Q 1250 -91 836 529 
Q 422 1150 422 2328 
Q 422 3509 836 4129 
Q 1250 4750 2034 4750 
z
" transform="scale(0.015625)"/>
       </defs>
       <use xlink:href="#DejaVuSans-30"/>
      </g>
     </g>
    </g>
    <g id="xtick_2">
     <g id="line2d_7">
      <path d="M 144.2304 298.944 
L 144.2304 27.648 
" clip-path="url(#p46bb784df1)" style="fill: none; stroke: #b0b0b0; stroke-width: 0.8; stroke-linecap: square"/>
     </g>
     <g id="line2d_8">
      <g>
       <use xlink:href="#mdef83cb12b" x="144.2304" y="298.944" style="stroke: #000000; stroke-width: 0.8"/>
      </g>
     </g>
     <g id="text_2">
      <!-- 2 -->
      <g transform="translate(138.822275 318.861344)scale(0.17 -0.17)">
       <defs>
        <path id="DejaVuSans-32" d="M 1228 531 
L 3431 531 
L 3431 0 
L 469 0 
L 469 531 
Q 828 903 1448 1529 
Q 2069 2156 2228 2338 
Q 2531 2678 2651 2914 
Q 2772 3150 2772 3378 
Q 2772 3750 2511 3984 
Q 2250 4219 1831 4219 
Q 1534 4219 1204 4116 
Q 875 4013 500 3803 
L 500 4441 
Q 881 4594 1212 4672 
Q 1544 4750 1819 4750 
Q 2544 4750 2975 4387 
Q 3406 4025 3406 3419 
Q 3406 3131 3298 2873 
Q 3191 2616 2906 2266 
Q 2828 2175 2409 1742 
Q 1991 1309 1228 531 
z
" transform="scale(0.015625)"/>
       </defs>
       <use xlink:href="#DejaVuSans-32"/>
      </g>
     </g>
    </g>
    <g id="xtick_3">
     <g id="line2d_9">
      <path d="M 230.8608 298.944 
L 230.8608 27.648 
" clip-path="url(#p46bb784df1)" style="fill: none; stroke: #b0b0b0; stroke-width: 0.8; stroke-linecap: square"/>
     </g>
     <g id="line2d_10">
      <g>
       <use xlink:href="#mdef83cb12b" x="230.8608" y="298.944" style="stroke: #000000; stroke-width: 0.8"/>
      </g>
     </g>
     <g id="text_3">
      <!-- 4 -->
      <g transform="translate(225.452675 318.861344)scale(0.17 -0.17)">
       <defs>
        <path id="DejaVuSans-34" d="M 2419 4116 
L 825 1625 
L 2419 1625 
L 2419 4116 
z
M 2253 4666 
L 3047 4666 
L 3047 1625 
L 3713 1625 
L 3713 1100 
L 3047 1100 
L 3047 0 
L 2419 0 
L 2419 1100 
L 313 1100 
L 313 1709 
L 2253 4666 
z
" transform="scale(0.015625)"/>
       </defs>
       <use xlink:href="#DejaVuSans-34"/>
      </g>
     </g>
    </g>
    <g id="xtick_4">
     <g id="line2d_11">
      <path d="M 317.4912 298.944 
L 317.4912 27.648 
" clip-path="url(#p46bb784df1)" style="fill: none; stroke: #b0b0b0; stroke-width: 0.8; stroke-linecap: square"/>
     </g>
     <g id="line2d_12">
      <g>
       <use xlink:href="#mdef83cb12b" x="317.4912" y="298.944" style="stroke: #000000; stroke-width: 0.8"/>
      </g>
     </g>
     <g id="text_4">
      <!-- 6 -->
      <g transform="translate(312.083075 318.861344)scale(0.17 -0.17)">
       <defs>
        <path id="DejaVuSans-36" d="M 2113 2584 
Q 1688 2584 1439 2293 
Q 1191 2003 1191 1497 
Q 1191 994 1439 701 
Q 1688 409 2113 409 
Q 2538 409 2786 701 
Q 3034 994 3034 1497 
Q 3034 2003 2786 2293 
Q 2538 2584 2113 2584 
z
M 3366 4563 
L 3366 3988 
Q 3128 4100 2886 4159 
Q 2644 4219 2406 4219 
Q 1781 4219 1451 3797 
Q 1122 3375 1075 2522 
Q 1259 2794 1537 2939 
Q 1816 3084 2150 3084 
Q 2853 3084 3261 2657 
Q 3669 2231 3669 1497 
Q 3669 778 3244 343 
Q 2819 -91 2113 -91 
Q 1303 -91 875 529 
Q 447 1150 447 2328 
Q 447 3434 972 4092 
Q 1497 4750 2381 4750 
Q 2619 4750 2861 4703 
Q 3103 4656 3366 4563 
z
" transform="scale(0.015625)"/>
       </defs>
       <use xlink:href="#DejaVuSans-36"/>
      </g>
     </g>
    </g>
    <g id="xtick_5">
     <g id="line2d_13">
      <path d="M 100.9152 298.944 
L 100.9152 27.648 
" clip-path="url(#p46bb784df1)" style="fill: none; stroke: #b0b0b0; stroke-width: 0.8; stroke-linecap: square"/>
     </g>
     <g id="line2d_14">
      <defs>
       <path id="m0d85598866" d="M 0 0 
L 0 2 
" style="stroke: #000000; stroke-width: 0.6"/>
      </defs>
      <g>
       <use xlink:href="#m0d85598866" x="100.9152" y="298.944" style="stroke: #000000; stroke-width: 0.6"/>
      </g>
     </g>
    </g>
    <g id="xtick_6">
     <g id="line2d_15">
      <path d="M 187.5456 298.944 
L 187.5456 27.648 
" clip-path="url(#p46bb784df1)" style="fill: none; stroke: #b0b0b0; stroke-width: 0.8; stroke-linecap: square"/>
     </g>
     <g id="line2d_16">
      <g>
       <use xlink:href="#m0d85598866" x="187.5456" y="298.944" style="stroke: #000000; stroke-width: 0.6"/>
      </g>
     </g>
    </g>
    <g id="xtick_7">
     <g id="line2d_17">
      <path d="M 274.176 298.944 
L 274.176 27.648 
" clip-path="url(#p46bb784df1)" style="fill: none; stroke: #b0b0b0; stroke-width: 0.8; stroke-linecap: square"/>
     </g>
     <g id="line2d_18">
      <g>
       <use xlink:href="#m0d85598866" x="274.176" y="298.944" style="stroke: #000000; stroke-width: 0.6"/>
      </g>
     </g>
    </g>
    <g id="xtick_8">
     <g id="line2d_19">
      <path d="M 360.8064 298.944 
L 360.8064 27.648 
" clip-path="url(#p46bb784df1)" style="fill: none; stroke: #b0b0b0; stroke-width: 0.8; stroke-linecap: square"/>
     </g>
     <g id="line2d_20">
      <g>
       <use xlink:href="#m0d85598866" x="360.8064" y="298.944" style="stroke: #000000; stroke-width: 0.6"/>
      </g>
     </g>
    </g>
    <g id="text_5">
     <!-- log10(# f-evals / dimension) -->
     <g transform="translate(88.823278 339.314156)scale(0.17 -0.17)">
      <defs>
       <path id="DejaVuSans-6c" d="M 603 4863 
L 1178 4863 
L 1178 0 
L 603 0 
L 603 4863 
z
" transform="scale(0.015625)"/>
       <path id="DejaVuSans-6f" d="M 1959 3097 
Q 1497 3097 1228 2736 
Q 959 2375 959 1747 
Q 959 1119 1226 758 
Q 1494 397 1959 397 
Q 2419 397 2687 759 
Q 2956 1122 2956 1747 
Q 2956 2369 2687 2733 
Q 2419 3097 1959 3097 
z
M 1959 3584 
Q 2709 3584 3137 3096 
Q 3566 2609 3566 1747 
Q 3566 888 3137 398 
Q 2709 -91 1959 -91 
Q 1206 -91 779 398 
Q 353 888 353 1747 
Q 353 2609 779 3096 
Q 1206 3584 1959 3584 
z
" transform="scale(0.015625)"/>
       <path id="DejaVuSans-67" d="M 2906 1791 
Q 2906 2416 2648 2759 
Q 2391 3103 1925 3103 
Q 1463 3103 1205 2759 
Q 947 2416 947 1791 
Q 947 1169 1205 825 
Q 1463 481 1925 481 
Q 2391 481 2648 825 
Q 2906 1169 2906 1791 
z
M 3481 434 
Q 3481 -459 3084 -895 
Q 2688 -1331 1869 -1331 
Q 1566 -1331 1297 -1286 
Q 1028 -1241 775 -1147 
L 775 -588 
Q 1028 -725 1275 -790 
Q 1522 -856 1778 -856 
Q 2344 -856 2625 -561 
Q 2906 -266 2906 331 
L 2906 616 
Q 2728 306 2450 153 
Q 2172 0 1784 0 
Q 1141 0 747 490 
Q 353 981 353 1791 
Q 353 2603 747 3093 
Q 1141 3584 1784 3584 
Q 2172 3584 2450 3431 
Q 2728 3278 2906 2969 
L 2906 3500 
L 3481 3500 
L 3481 434 
z
" transform="scale(0.015625)"/>
       <path id="DejaVuSans-31" d="M 794 531 
L 1825 531 
L 1825 4091 
L 703 3866 
L 703 4441 
L 1819 4666 
L 2450 4666 
L 2450 531 
L 3481 531 
L 3481 0 
L 794 0 
L 794 531 
z
" transform="scale(0.015625)"/>
       <path id="DejaVuSans-28" d="M 1984 4856 
Q 1566 4138 1362 3434 
Q 1159 2731 1159 2009 
Q 1159 1288 1364 580 
Q 1569 -128 1984 -844 
L 1484 -844 
Q 1016 -109 783 600 
Q 550 1309 550 2009 
Q 550 2706 781 3412 
Q 1013 4119 1484 4856 
L 1984 4856 
z
" transform="scale(0.015625)"/>
       <path id="DejaVuSans-23" d="M 3272 2816 
L 2363 2816 
L 2100 1772 
L 3016 1772 
L 3272 2816 
z
M 2803 4594 
L 2478 3297 
L 3391 3297 
L 3719 4594 
L 4219 4594 
L 3897 3297 
L 4872 3297 
L 4872 2816 
L 3775 2816 
L 3519 1772 
L 4513 1772 
L 4513 1294 
L 3397 1294 
L 3072 0 
L 2572 0 
L 2894 1294 
L 1978 1294 
L 1656 0 
L 1153 0 
L 1478 1294 
L 494 1294 
L 494 1772 
L 1594 1772 
L 1856 2816 
L 850 2816 
L 850 3297 
L 1978 3297 
L 2297 4594 
L 2803 4594 
z
" transform="scale(0.015625)"/>
       <path id="DejaVuSans-20" transform="scale(0.015625)"/>
       <path id="DejaVuSans-66" d="M 2375 4863 
L 2375 4384 
L 1825 4384 
Q 1516 4384 1395 4259 
Q 1275 4134 1275 3809 
L 1275 3500 
L 2222 3500 
L 2222 3053 
L 1275 3053 
L 1275 0 
L 697 0 
L 697 3053 
L 147 3053 
L 147 3500 
L 697 3500 
L 697 3744 
Q 697 4328 969 4595 
Q 1241 4863 1831 4863 
L 2375 4863 
z
" transform="scale(0.015625)"/>
       <path id="DejaVuSans-2d" d="M 313 2009 
L 1997 2009 
L 1997 1497 
L 313 1497 
L 313 2009 
z
" transform="scale(0.015625)"/>
       <path id="DejaVuSans-65" d="M 3597 1894 
L 3597 1613 
L 953 1613 
Q 991 1019 1311 708 
Q 1631 397 2203 397 
Q 2534 397 2845 478 
Q 3156 559 3463 722 
L 3463 178 
Q 3153 47 2828 -22 
Q 2503 -91 2169 -91 
Q 1331 -91 842 396 
Q 353 884 353 1716 
Q 353 2575 817 3079 
Q 1281 3584 2069 3584 
Q 2775 3584 3186 3129 
Q 3597 2675 3597 1894 
z
M 3022 2063 
Q 3016 2534 2758 2815 
Q 2500 3097 2075 3097 
Q 1594 3097 1305 2825 
Q 1016 2553 972 2059 
L 3022 2063 
z
" transform="scale(0.015625)"/>
       <path id="DejaVuSans-76" d="M 191 3500 
L 800 3500 
L 1894 563 
L 2988 3500 
L 3597 3500 
L 2284 0 
L 1503 0 
L 191 3500 
z
" transform="scale(0.015625)"/>
       <path id="DejaVuSans-61" d="M 2194 1759 
Q 1497 1759 1228 1600 
Q 959 1441 959 1056 
Q 959 750 1161 570 
Q 1363 391 1709 391 
Q 2188 391 2477 730 
Q 2766 1069 2766 1631 
L 2766 1759 
L 2194 1759 
z
M 3341 1997 
L 3341 0 
L 2766 0 
L 2766 531 
Q 2569 213 2275 61 
Q 1981 -91 1556 -91 
Q 1019 -91 701 211 
Q 384 513 384 1019 
Q 384 1609 779 1909 
Q 1175 2209 1959 2209 
L 2766 2209 
L 2766 2266 
Q 2766 2663 2505 2880 
Q 2244 3097 1772 3097 
Q 1472 3097 1187 3025 
Q 903 2953 641 2809 
L 641 3341 
Q 956 3463 1253 3523 
Q 1550 3584 1831 3584 
Q 2591 3584 2966 3190 
Q 3341 2797 3341 1997 
z
" transform="scale(0.015625)"/>
       <path id="DejaVuSans-73" d="M 2834 3397 
L 2834 2853 
Q 2591 2978 2328 3040 
Q 2066 3103 1784 3103 
Q 1356 3103 1142 2972 
Q 928 2841 928 2578 
Q 928 2378 1081 2264 
Q 1234 2150 1697 2047 
L 1894 2003 
Q 2506 1872 2764 1633 
Q 3022 1394 3022 966 
Q 3022 478 2636 193 
Q 2250 -91 1575 -91 
Q 1294 -91 989 -36 
Q 684 19 347 128 
L 347 722 
Q 666 556 975 473 
Q 1284 391 1588 391 
Q 1994 391 2212 530 
Q 2431 669 2431 922 
Q 2431 1156 2273 1281 
Q 2116 1406 1581 1522 
L 1381 1569 
Q 847 1681 609 1914 
Q 372 2147 372 2553 
Q 372 3047 722 3315 
Q 1072 3584 1716 3584 
Q 2034 3584 2315 3537 
Q 2597 3491 2834 3397 
z
" transform="scale(0.015625)"/>
       <path id="DejaVuSans-2f" d="M 1625 4666 
L 2156 4666 
L 531 -594 
L 0 -594 
L 1625 4666 
z
" transform="scale(0.015625)"/>
       <path id="DejaVuSans-64" d="M 2906 2969 
L 2906 4863 
L 3481 4863 
L 3481 0 
L 2906 0 
L 2906 525 
Q 2725 213 2448 61 
Q 2172 -91 1784 -91 
Q 1150 -91 751 415 
Q 353 922 353 1747 
Q 353 2572 751 3078 
Q 1150 3584 1784 3584 
Q 2172 3584 2448 3432 
Q 2725 3281 2906 2969 
z
M 947 1747 
Q 947 1113 1208 752 
Q 1469 391 1925 391 
Q 2381 391 2643 752 
Q 2906 1113 2906 1747 
Q 2906 2381 2643 2742 
Q 2381 3103 1925 3103 
Q 1469 3103 1208 2742 
Q 947 2381 947 1747 
z
" transform="scale(0.015625)"/>
       <path id="DejaVuSans-69" d="M 603 3500 
L 1178 3500 
L 1178 0 
L 603 0 
L 603 3500 
z
M 603 4863 
L 1178 4863 
L 1178 4134 
L 603 4134 
L 603 4863 
z
" transform="scale(0.015625)"/>
       <path id="DejaVuSans-6d" d="M 3328 2828 
Q 3544 3216 3844 3400 
Q 4144 3584 4550 3584 
Q 5097 3584 5394 3201 
Q 5691 2819 5691 2113 
L 5691 0 
L 5113 0 
L 5113 2094 
Q 5113 2597 4934 2840 
Q 4756 3084 4391 3084 
Q 3944 3084 3684 2787 
Q 3425 2491 3425 1978 
L 3425 0 
L 2847 0 
L 2847 2094 
Q 2847 2600 2669 2842 
Q 2491 3084 2119 3084 
Q 1678 3084 1418 2786 
Q 1159 2488 1159 1978 
L 1159 0 
L 581 0 
L 581 3500 
L 1159 3500 
L 1159 2956 
Q 1356 3278 1631 3431 
Q 1906 3584 2284 3584 
Q 2666 3584 2933 3390 
Q 3200 3197 3328 2828 
z
" transform="scale(0.015625)"/>
       <path id="DejaVuSans-6e" d="M 3513 2113 
L 3513 0 
L 2938 0 
L 2938 2094 
Q 2938 2591 2744 2837 
Q 2550 3084 2163 3084 
Q 1697 3084 1428 2787 
Q 1159 2491 1159 1978 
L 1159 0 
L 581 0 
L 581 3500 
L 1159 3500 
L 1159 2956 
Q 1366 3272 1645 3428 
Q 1925 3584 2291 3584 
Q 2894 3584 3203 3211 
Q 3513 2838 3513 2113 
z
" transform="scale(0.015625)"/>
       <path id="DejaVuSans-29" d="M 513 4856 
L 1013 4856 
Q 1481 4119 1714 3412 
Q 1947 2706 1947 2009 
Q 1947 1309 1714 600 
Q 1481 -109 1013 -844 
L 513 -844 
Q 928 -128 1133 580 
Q 1338 1288 1338 2009 
Q 1338 2731 1133 3434 
Q 928 4138 513 4856 
z
" transform="scale(0.015625)"/>
      </defs>
      <use xlink:href="#DejaVuSans-6c"/>
      <use xlink:href="#DejaVuSans-6f" x="27.783203"/>
      <use xlink:href="#DejaVuSans-67" x="88.964844"/>
      <use xlink:href="#DejaVuSans-31" x="152.441406"/>
      <use xlink:href="#DejaVuSans-30" x="216.064453"/>
      <use xlink:href="#DejaVuSans-28" x="279.6875"/>
      <use xlink:href="#DejaVuSans-23" x="318.701172"/>
      <use xlink:href="#DejaVuSans-20" x="402.490234"/>
      <use xlink:href="#DejaVuSans-66" x="434.277344"/>
      <use xlink:href="#DejaVuSans-2d" x="463.982422"/>
      <use xlink:href="#DejaVuSans-65" x="500.066406"/>
      <use xlink:href="#DejaVuSans-76" x="561.589844"/>
      <use xlink:href="#DejaVuSans-61" x="620.769531"/>
      <use xlink:href="#DejaVuSans-6c" x="682.048828"/>
      <use xlink:href="#DejaVuSans-73" x="709.832031"/>
      <use xlink:href="#DejaVuSans-20" x="761.931641"/>
      <use xlink:href="#DejaVuSans-2f" x="793.71875"/>
      <use xlink:href="#DejaVuSans-20" x="827.410156"/>
      <use xlink:href="#DejaVuSans-64" x="859.197266"/>
      <use xlink:href="#DejaVuSans-69" x="922.673828"/>
      <use xlink:href="#DejaVuSans-6d" x="950.457031"/>
      <use xlink:href="#DejaVuSans-65" x="1047.869141"/>
      <use xlink:href="#DejaVuSans-6e" x="1109.392578"/>
      <use xlink:href="#DejaVuSans-73" x="1172.771484"/>
      <use xlink:href="#DejaVuSans-69" x="1224.871094"/>
      <use xlink:href="#DejaVuSans-6f" x="1252.654297"/>
      <use xlink:href="#DejaVuSans-6e" x="1313.835938"/>
      <use xlink:href="#DejaVuSans-29" x="1377.214844"/>
     </g>
    </g>
   </g>
   <g id="matplotlib.axis_2">
    <g id="ytick_1">
     <g id="line2d_21">
      <path d="M 57.6 298.944 
L 360.8064 298.944 
" clip-path="url(#p46bb784df1)" style="fill: none; stroke: #b0b0b0; stroke-width: 0.8; stroke-linecap: square"/>
     </g>
     <g id="line2d_22">
      <defs>
       <path id="ma484cc72db" d="M 0 0 
L -3.5 0 
" style="stroke: #000000; stroke-width: 0.8"/>
      </defs>
      <g>
       <use xlink:href="#ma484cc72db" x="57.6" y="298.944" style="stroke: #000000; stroke-width: 0.8"/>
      </g>
     </g>
     <g id="text_6">
      <!-- 0.0 -->
      <g transform="translate(25.155 305.02275)scale(0.16 -0.16)">
       <defs>
        <path id="DejaVuSans-2e" d="M 684 794 
L 1344 794 
L 1344 0 
L 684 0 
L 684 794 
z
" transform="scale(0.015625)"/>
       </defs>
       <use xlink:href="#DejaVuSans-30"/>
       <use xlink:href="#DejaVuSans-2e" x="63.623047"/>
       <use xlink:href="#DejaVuSans-30" x="95.410156"/>
      </g>
     </g>
    </g>
    <g id="ytick_2">
     <g id="line2d_23">
      <path d="M 57.6 244.6848 
L 360.8064 244.6848 
" clip-path="url(#p46bb784df1)" style="fill: none; stroke: #b0b0b0; stroke-width: 0.8; stroke-linecap: square"/>
     </g>
     <g id="line2d_24">
      <g>
       <use xlink:href="#ma484cc72db" x="57.6" y="244.6848" style="stroke: #000000; stroke-width: 0.8"/>
      </g>
     </g>
     <g id="text_7">
      <!-- 0.2 -->
      <g transform="translate(25.155 250.76355)scale(0.16 -0.16)">
       <use xlink:href="#DejaVuSans-30"/>
       <use xlink:href="#DejaVuSans-2e" x="63.623047"/>
       <use xlink:href="#DejaVuSans-32" x="95.410156"/>
      </g>
     </g>
    </g>
    <g id="ytick_3">
     <g id="line2d_25">
      <path d="M 57.6 190.4256 
L 360.8064 190.4256 
" clip-path="url(#p46bb784df1)" style="fill: none; stroke: #b0b0b0; stroke-width: 0.8; stroke-linecap: square"/>
     </g>
     <g id="line2d_26">
      <g>
       <use xlink:href="#ma484cc72db" x="57.6" y="190.4256" style="stroke: #000000; stroke-width: 0.8"/>
      </g>
     </g>
     <g id="text_8">
      <!-- 0.4 -->
      <g transform="translate(25.155 196.50435)scale(0.16 -0.16)">
       <use xlink:href="#DejaVuSans-30"/>
       <use xlink:href="#DejaVuSans-2e" x="63.623047"/>
       <use xlink:href="#DejaVuSans-34" x="95.410156"/>
      </g>
     </g>
    </g>
    <g id="ytick_4">
     <g id="line2d_27">
      <path d="M 57.6 136.1664 
L 360.8064 136.1664 
" clip-path="url(#p46bb784df1)" style="fill: none; stroke: #b0b0b0; stroke-width: 0.8; stroke-linecap: square"/>
     </g>
     <g id="line2d_28">
      <g>
       <use xlink:href="#ma484cc72db" x="57.6" y="136.1664" style="stroke: #000000; stroke-width: 0.8"/>
      </g>
     </g>
     <g id="text_9">
      <!-- 0.6 -->
      <g transform="translate(25.155 142.24515)scale(0.16 -0.16)">
       <use xlink:href="#DejaVuSans-30"/>
       <use xlink:href="#DejaVuSans-2e" x="63.623047"/>
       <use xlink:href="#DejaVuSans-36" x="95.410156"/>
      </g>
     </g>
    </g>
    <g id="ytick_5">
     <g id="line2d_29">
      <path d="M 57.6 81.9072 
L 360.8064 81.9072 
" clip-path="url(#p46bb784df1)" style="fill: none; stroke: #b0b0b0; stroke-width: 0.8; stroke-linecap: square"/>
     </g>
     <g id="line2d_30">
      <g>
       <use xlink:href="#ma484cc72db" x="57.6" y="81.9072" style="stroke: #000000; stroke-width: 0.8"/>
      </g>
     </g>
     <g id="text_10">
      <!-- 0.8 -->
      <g transform="translate(25.155 87.98595)scale(0.16 -0.16)">
       <defs>
        <path id="DejaVuSans-38" d="M 2034 2216 
Q 1584 2216 1326 1975 
Q 1069 1734 1069 1313 
Q 1069 891 1326 650 
Q 1584 409 2034 409 
Q 2484 409 2743 651 
Q 3003 894 3003 1313 
Q 3003 1734 2745 1975 
Q 2488 2216 2034 2216 
z
M 1403 2484 
Q 997 2584 770 2862 
Q 544 3141 544 3541 
Q 544 4100 942 4425 
Q 1341 4750 2034 4750 
Q 2731 4750 3128 4425 
Q 3525 4100 3525 3541 
Q 3525 3141 3298 2862 
Q 3072 2584 2669 2484 
Q 3125 2378 3379 2068 
Q 3634 1759 3634 1313 
Q 3634 634 3220 271 
Q 2806 -91 2034 -91 
Q 1263 -91 848 271 
Q 434 634 434 1313 
Q 434 1759 690 2068 
Q 947 2378 1403 2484 
z
M 1172 3481 
Q 1172 3119 1398 2916 
Q 1625 2713 2034 2713 
Q 2441 2713 2670 2916 
Q 2900 3119 2900 3481 
Q 2900 3844 2670 4047 
Q 2441 4250 2034 4250 
Q 1625 4250 1398 4047 
Q 1172 3844 1172 3481 
z
" transform="scale(0.015625)"/>
       </defs>
       <use xlink:href="#DejaVuSans-30"/>
       <use xlink:href="#DejaVuSans-2e" x="63.623047"/>
       <use xlink:href="#DejaVuSans-38" x="95.410156"/>
      </g>
     </g>
    </g>
    <g id="ytick_6">
     <g id="line2d_31">
      <path d="M 57.6 27.648 
L 360.8064 27.648 
" clip-path="url(#p46bb784df1)" style="fill: none; stroke: #b0b0b0; stroke-width: 0.8; stroke-linecap: square"/>
     </g>
     <g id="line2d_32">
      <g>
       <use xlink:href="#ma484cc72db" x="57.6" y="27.648" style="stroke: #000000; stroke-width: 0.8"/>
      </g>
     </g>
     <g id="text_11">
      <!-- 1.0 -->
      <g transform="translate(25.155 33.72675)scale(0.16 -0.16)">
       <use xlink:href="#DejaVuSans-31"/>
       <use xlink:href="#DejaVuSans-2e" x="63.623047"/>
       <use xlink:href="#DejaVuSans-30" x="95.410156"/>
      </g>
     </g>
    </g>
    <g id="text_12">
     <!-- Fraction of function,target pairs -->
     <g transform="translate(17.619531 297.681)rotate(-90)scale(0.17 -0.17)">
      <defs>
       <path id="DejaVuSans-46" d="M 628 4666 
L 3309 4666 
L 3309 4134 
L 1259 4134 
L 1259 2759 
L 3109 2759 
L 3109 2228 
L 1259 2228 
L 1259 0 
L 628 0 
L 628 4666 
z
" transform="scale(0.015625)"/>
       <path id="DejaVuSans-72" d="M 2631 2963 
Q 2534 3019 2420 3045 
Q 2306 3072 2169 3072 
Q 1681 3072 1420 2755 
Q 1159 2438 1159 1844 
L 1159 0 
L 581 0 
L 581 3500 
L 1159 3500 
L 1159 2956 
Q 1341 3275 1631 3429 
Q 1922 3584 2338 3584 
Q 2397 3584 2469 3576 
Q 2541 3569 2628 3553 
L 2631 2963 
z
" transform="scale(0.015625)"/>
       <path id="DejaVuSans-63" d="M 3122 3366 
L 3122 2828 
Q 2878 2963 2633 3030 
Q 2388 3097 2138 3097 
Q 1578 3097 1268 2742 
Q 959 2388 959 1747 
Q 959 1106 1268 751 
Q 1578 397 2138 397 
Q 2388 397 2633 464 
Q 2878 531 3122 666 
L 3122 134 
Q 2881 22 2623 -34 
Q 2366 -91 2075 -91 
Q 1284 -91 818 406 
Q 353 903 353 1747 
Q 353 2603 823 3093 
Q 1294 3584 2113 3584 
Q 2378 3584 2631 3529 
Q 2884 3475 3122 3366 
z
" transform="scale(0.015625)"/>
       <path id="DejaVuSans-74" d="M 1172 4494 
L 1172 3500 
L 2356 3500 
L 2356 3053 
L 1172 3053 
L 1172 1153 
Q 1172 725 1289 603 
Q 1406 481 1766 481 
L 2356 481 
L 2356 0 
L 1766 0 
Q 1100 0 847 248 
Q 594 497 594 1153 
L 594 3053 
L 172 3053 
L 172 3500 
L 594 3500 
L 594 4494 
L 1172 4494 
z
" transform="scale(0.015625)"/>
       <path id="DejaVuSans-75" d="M 544 1381 
L 544 3500 
L 1119 3500 
L 1119 1403 
Q 1119 906 1312 657 
Q 1506 409 1894 409 
Q 2359 409 2629 706 
Q 2900 1003 2900 1516 
L 2900 3500 
L 3475 3500 
L 3475 0 
L 2900 0 
L 2900 538 
Q 2691 219 2414 64 
Q 2138 -91 1772 -91 
Q 1169 -91 856 284 
Q 544 659 544 1381 
z
M 1991 3584 
L 1991 3584 
z
" transform="scale(0.015625)"/>
       <path id="DejaVuSans-2c" d="M 750 794 
L 1409 794 
L 1409 256 
L 897 -744 
L 494 -744 
L 750 256 
L 750 794 
z
" transform="scale(0.015625)"/>
       <path id="DejaVuSans-70" d="M 1159 525 
L 1159 -1331 
L 581 -1331 
L 581 3500 
L 1159 3500 
L 1159 2969 
Q 1341 3281 1617 3432 
Q 1894 3584 2278 3584 
Q 2916 3584 3314 3078 
Q 3713 2572 3713 1747 
Q 3713 922 3314 415 
Q 2916 -91 2278 -91 
Q 1894 -91 1617 61 
Q 1341 213 1159 525 
z
M 3116 1747 
Q 3116 2381 2855 2742 
Q 2594 3103 2138 3103 
Q 1681 3103 1420 2742 
Q 1159 2381 1159 1747 
Q 1159 1113 1420 752 
Q 1681 391 2138 391 
Q 2594 391 2855 752 
Q 3116 1113 3116 1747 
z
" transform="scale(0.015625)"/>
      </defs>
      <use xlink:href="#DejaVuSans-46"/>
      <use xlink:href="#DejaVuSans-72" x="50.269531"/>
      <use xlink:href="#DejaVuSans-61" x="91.382812"/>
      <use xlink:href="#DejaVuSans-63" x="152.662109"/>
      <use xlink:href="#DejaVuSans-74" x="207.642578"/>
      <use xlink:href="#DejaVuSans-69" x="246.851562"/>
      <use xlink:href="#DejaVuSans-6f" x="274.634766"/>
      <use xlink:href="#DejaVuSans-6e" x="335.816406"/>
      <use xlink:href="#DejaVuSans-20" x="399.195312"/>
      <use xlink:href="#DejaVuSans-6f" x="430.982422"/>
      <use xlink:href="#DejaVuSans-66" x="492.164062"/>
      <use xlink:href="#DejaVuSans-20" x="527.369141"/>
      <use xlink:href="#DejaVuSans-66" x="559.15625"/>
      <use xlink:href="#DejaVuSans-75" x="594.361328"/>
      <use xlink:href="#DejaVuSans-6e" x="657.740234"/>
      <use xlink:href="#DejaVuSans-63" x="721.119141"/>
      <use xlink:href="#DejaVuSans-74" x="776.099609"/>
      <use xlink:href="#DejaVuSans-69" x="815.308594"/>
      <use xlink:href="#DejaVuSans-6f" x="843.091797"/>
      <use xlink:href="#DejaVuSans-6e" x="904.273438"/>
      <use xlink:href="#DejaVuSans-2c" x="967.652344"/>
      <use xlink:href="#DejaVuSans-74" x="999.439453"/>
      <use xlink:href="#DejaVuSans-61" x="1038.648438"/>
      <use xlink:href="#DejaVuSans-72" x="1099.927734"/>
      <use xlink:href="#DejaVuSans-67" x="1139.291016"/>
      <use xlink:href="#DejaVuSans-65" x="1202.767578"/>
      <use xlink:href="#DejaVuSans-74" x="1264.291016"/>
      <use xlink:href="#DejaVuSans-20" x="1303.5"/>
      <use xlink:href="#DejaVuSans-70" x="1335.287109"/>
      <use xlink:href="#DejaVuSans-61" x="1398.763672"/>
      <use xlink:href="#DejaVuSans-69" x="1460.042969"/>
      <use xlink:href="#DejaVuSans-72" x="1487.826172"/>
      <use xlink:href="#DejaVuSans-73" x="1528.939453"/>
     </g>
    </g>
   </g>
   <g id="line2d_33">
    <defs>
     <path id="m2457fdad9e" d="M 0 1.5 
C 0.397805 1.5 0.77937 1.341951 1.06066 1.06066 
C 1.341951 0.77937 1.5 0.397805 1.5 0 
C 1.5 -0.397805 1.341951 -0.77937 1.06066 -1.06066 
C 0.77937 -1.341951 0.397805 -1.5 0 -1.5 
C -0.397805 -1.5 -0.77937 -1.341951 -1.06066 -1.06066 
C -1.341951 -0.77937 -1.5 -0.397805 -1.5 0 
C -1.5 0.397805 -1.341951 0.77937 -1.06066 1.06066 
C -0.77937 1.341951 -0.397805 1.5 0 1.5 
z
" style="stroke: #f5deb3"/>
    </defs>
    <g>
     <use xlink:href="#m2457fdad9e" x="138.718057" y="27.648" style="fill: #f5deb3; stroke: #f5deb3"/>
     <use xlink:href="#m2457fdad9e" x="138.718057" y="27.648" style="fill: #f5deb3; stroke: #f5deb3"/>
    </g>
   </g>
   <g id="line2d_34">
    <defs>
     <path id="ma40e568a39" d="M 0 1.5 
C 0.397805 1.5 0.77937 1.341951 1.06066 1.06066 
C 1.341951 0.77937 1.5 0.397805 1.5 0 
C 1.5 -0.397805 1.341951 -0.77937 1.06066 -1.06066 
C 0.77937 -1.341951 0.397805 -1.5 0 -1.5 
C -0.397805 -1.5 -0.77937 -1.341951 -1.06066 -1.06066 
C -1.341951 -0.77937 -1.5 -0.397805 -1.5 0 
C -1.5 0.397805 -1.341951 0.77937 -1.06066 1.06066 
C -0.77937 1.341951 -0.397805 1.5 0 1.5 
z
" style="stroke: #000080"/>
    </defs>
    <g>
     <use xlink:href="#ma40e568a39" x="289.164463" y="27.648" style="fill: #000080; stroke: #000080"/>
     <use xlink:href="#ma40e568a39" x="289.164463" y="27.648" style="fill: #000080; stroke: #000080"/>
    </g>
   </g>
   <g id="line2d_35">
    <path d="M 145.678157 298.944 
L 145.7477 298.234729 
L 145.816988 298.234729 
L 145.851536 297.170824 
L 146.159649 297.170824 
L 146.193574 295.397647 
L 146.395851 295.397647 
L 146.395851 295.043012 
L 146.892226 295.043012 
L 146.892226 294.333741 
L 147.1517 294.333741 
L 147.1517 293.269835 
L 147.343984 293.269835 
L 147.343984 292.9152 
L 147.471089 292.9152 
L 147.565858 290.787388 
L 148.03267 290.787388 
L 148.03267 290.432753 
L 148.337564 290.432753 
L 148.428077 289.723482 
L 148.458151 289.723482 
L 148.518156 288.659576 
L 148.785835 288.659576 
L 148.785835 288.304941 
L 148.991428 288.304941 
L 149.078856 287.595671 
L 149.136916 287.595671 
L 149.194798 286.8864 
L 149.395993 286.8864 
L 149.395993 285.467859 
L 149.595059 285.467859 
L 149.595059 285.113224 
L 149.820013 285.113224 
L 149.820013 284.758588 
L 150.069911 284.758588 
L 150.179921 283.694682 
L 150.398028 283.694682 
L 150.425115 282.985412 
L 150.640414 282.985412 
L 150.667154 281.921506 
L 151.063758 281.921506 
L 151.063758 281.566871 
L 151.194122 281.566871 
L 151.194122 281.212235 
L 151.400845 281.212235 
L 151.452172 280.148329 
L 151.95789 280.148329 
L 151.95789 279.793694 
L 152.352898 279.793694 
L 152.352898 279.439059 
L 152.523139 279.439059 
L 152.523139 279.084424 
L 152.787587 279.084424 
L 152.811444 278.375153 
L 153.627945 278.375153 
L 153.627945 278.020518 
L 154.079083 278.020518 
L 154.079083 277.665882 
L 154.256552 277.665882 
L 154.256552 276.956612 
L 154.606544 276.956612 
L 154.606544 276.601976 
L 155.433326 276.601976 
L 155.433326 276.247341 
L 156.638319 276.247341 
L 156.638319 275.892706 
L 157.004352 275.892706 
L 157.004352 275.538071 
L 157.344671 275.538071 
L 157.344671 275.183435 
L 158.0976 275.183435 
L 158.187393 274.474165 
L 158.890711 274.474165 
L 158.890711 274.119529 
L 159.096679 274.119529 
L 159.096679 273.764894 
L 159.816746 273.764894 
L 159.816746 273.410259 
L 160.808741 273.410259 
L 160.808741 273.055624 
L 161.422049 273.055624 
L 161.422049 272.346353 
L 162.984551 272.346353 
L 162.984551 271.991718 
L 163.342092 271.991718 
L 163.423645 270.927812 
L 164.129077 270.927812 
L 164.207296 270.218541 
L 164.491347 270.218541 
L 164.491347 269.863906 
L 164.669899 269.863906 
L 164.669899 269.509271 
L 164.909539 269.509271 
L 164.909539 269.154635 
L 165.404283 269.154635 
L 165.416487 268.445365 
L 165.707018 268.445365 
L 165.707018 268.090729 
L 166.134572 268.090729 
L 166.134572 267.736094 
L 166.950346 267.736094 
L 166.950346 267.381459 
L 167.185004 267.381459 
L 167.185004 267.026824 
L 167.416772 267.026824 
L 167.416772 266.672188 
L 168.462127 266.672188 
L 168.462127 266.317553 
L 169.024318 266.317553 
L 169.094679 265.608282 
L 170.167131 265.608282 
L 170.167131 265.253647 
L 171.0194 265.253647 
L 171.0194 264.899012 
L 171.280238 264.899012 
L 171.280238 264.544376 
L 171.773916 264.544376 
L 171.808687 263.835106 
L 171.955755 263.835106 
L 171.955755 263.480471 
L 172.524431 263.480471 
L 172.524431 263.125835 
L 173.092649 263.125835 
L 173.18167 262.416565 
L 173.213936 262.416565 
L 173.246148 261.352659 
L 173.557354 261.352659 
L 173.588983 260.643388 
L 174.218295 260.643388 
L 174.218295 260.288753 
L 174.461224 260.288753 
L 174.461224 259.934118 
L 174.745685 259.934118 
L 174.745685 259.579482 
L 174.945221 259.579482 
L 174.945221 259.224847 
L 177.759778 259.224847 
L 177.759778 258.870212 
L 179.366508 258.870212 
L 179.366508 258.515576 
L 180.023223 258.515576 
L 180.068066 257.806306 
L 181.012526 257.806306 
L 181.012526 257.451671 
L 182.407753 257.451671 
L 182.407753 257.097035 
L 182.638693 257.097035 
L 182.638693 256.7424 
L 182.886121 256.7424 
L 182.886121 256.387765 
L 183.111297 256.387765 
L 183.111297 256.033129 
L 183.60482 256.033129 
L 183.60482 255.678494 
L 187.409667 255.678494 
L 187.409667 255.323859 
L 188.046776 255.323859 
L 188.046776 254.969224 
L 188.449081 254.969224 
L 188.449081 254.614588 
L 190.262865 254.614588 
L 190.288897 253.905318 
L 191.427619 253.905318 
L 191.427619 253.550682 
L 195.327898 253.550682 
L 195.327898 253.196047 
L 198.216336 253.196047 
L 198.216336 252.841412 
L 202.581813 252.841412 
L 202.581813 252.486776 
L 202.853889 252.486776 
L 202.853889 252.132141 
L 204.117706 252.132141 
L 204.117706 251.777506 
L 204.365515 251.777506 
L 204.365515 251.422871 
L 204.495848 251.422871 
L 204.495848 251.068235 
L 204.984527 251.068235 
L 204.984527 250.7136 
L 205.49274 250.7136 
L 205.49274 250.358965 
L 207.120137 250.358965 
L 207.208974 249.649694 
L 209.266876 249.649694 
L 209.266876 249.295059 
L 210.054095 249.295059 
L 210.054095 248.940424 
L 212.46698 248.940424 
L 212.46698 248.585788 
L 213.081968 248.585788 
L 213.081968 248.231153 
L 214.303781 248.231153 
L 214.303781 247.876518 
L 215.756677 247.876518 
L 215.756677 247.521882 
L 219.165283 247.521882 
L 219.165283 247.167247 
L 220.890518 247.167247 
L 220.890518 246.812612 
L 228.072957 246.812612 
L 228.072957 246.457976 
L 228.409825 246.457976 
L 228.409825 246.103341 
L 228.53839 246.103341 
L 228.53839 245.748706 
L 229.244765 245.748706 
L 229.244765 245.394071 
L 229.5017 245.394071 
L 229.5017 245.039435 
L 229.689622 245.039435 
L 229.689622 244.6848 
L 230.126158 244.6848 
L 230.21125 243.975529 
L 230.335462 243.975529 
L 230.335462 243.620894 
L 230.937395 243.620894 
L 231.041275 242.556988 
L 231.185306 242.556988 
L 231.261698 241.847718 
L 231.389797 241.847718 
L 231.389797 241.493082 
L 231.501036 241.493082 
L 231.501036 241.138447 
L 231.674059 241.138447 
L 231.73629 240.429176 
L 232.03556 240.429176 
L 232.03556 240.074541 
L 232.177114 240.074541 
L 232.177114 239.719906 
L 232.489183 239.719906 
L 232.489183 239.365271 
L 232.626693 239.365271 
L 232.675951 238.301365 
L 232.739046 238.301365 
L 232.739046 237.946729 
L 232.854116 237.946729 
L 232.943243 237.237459 
L 233.009813 237.237459 
L 233.009813 236.882824 
L 233.246934 236.882824 
L 233.246934 236.528188 
L 233.370475 236.528188 
L 233.448672 235.464282 
L 233.486013 235.464282 
L 233.486013 235.109647 
L 233.6132 235.109647 
L 233.6132 234.755012 
L 233.73921 234.755012 
L 233.840955 234.045741 
L 233.866626 234.045741 
L 233.882653 232.981835 
L 234.077722 232.981835 
L 234.178288 232.272565 
L 234.285848 232.272565 
L 234.285848 231.917929 
L 234.399343 231.917929 
L 234.489525 231.208659 
L 234.618139 231.208659 
L 234.71004 230.144753 
L 235.079834 230.144753 
L 235.181477 229.080847 
L 235.217326 229.080847 
L 235.217326 228.726212 
L 235.404123 228.726212 
L 235.422435 227.662306 
L 235.575033 227.662306 
L 235.575033 227.307671 
L 235.758908 227.307671 
L 235.863879 226.243765 
L 236.198849 226.243765 
L 236.268125 225.534494 
L 236.350359 225.534494 
L 236.350359 225.179859 
L 236.518492 225.179859 
L 236.593539 224.470588 
L 236.689827 224.470588 
L 236.768318 222.697412 
L 237.057951 222.697412 
L 237.156205 221.633506 
L 237.25368 221.633506 
L 237.329858 220.214965 
L 237.376216 220.214965 
L 237.446334 219.151059 
L 237.510644 219.151059 
L 237.620494 217.732518 
L 237.745107 217.732518 
L 237.745107 217.377882 
L 237.873566 217.377882 
L 237.873566 217.023247 
L 238.053333 217.023247 
L 238.156239 215.604706 
L 238.209773 215.604706 
L 238.305752 214.5408 
L 238.35962 214.5408 
L 238.463632 213.122259 
L 238.647077 213.122259 
L 238.74531 212.412988 
L 238.84574 212.412988 
L 238.84574 212.058353 
L 238.983298 212.058353 
L 239.035994 210.639812 
L 239.102871 210.639812 
L 239.168544 209.221271 
L 239.338802 209.221271 
L 239.411301 207.802729 
L 239.467576 207.802729 
L 239.467576 207.448094 
L 239.746453 207.448094 
L 239.823009 206.738824 
L 239.859189 206.738824 
L 239.916931 205.320282 
L 240.015707 205.320282 
L 240.015707 204.965647 
L 240.297343 204.965647 
L 240.297343 204.611012 
L 240.437613 204.611012 
L 240.437613 204.256376 
L 240.561575 204.256376 
L 240.638695 203.192471 
L 240.709929 203.192471 
L 240.709929 202.837835 
L 240.828572 202.837835 
L 240.828572 202.4832 
L 241.028608 202.4832 
L 241.135897 201.064659 
L 241.161373 201.064659 
L 241.203756 200.000753 
L 241.284779 200.000753 
L 241.358134 199.291482 
L 241.429918 199.291482 
L 241.524494 197.518306 
L 241.634942 197.518306 
L 241.740526 195.035859 
L 241.752338 195.035859 
L 241.806032 192.198776 
L 241.874663 192.198776 
L 241.880738 191.489506 
L 241.988079 191.489506 
L 242.078446 189.361694 
L 242.104954 189.361694 
L 242.135144 188.652424 
L 242.242075 188.652424 
L 242.336957 187.233882 
L 242.425057 187.233882 
L 242.530154 185.815341 
L 242.605269 185.815341 
L 242.706761 182.623624 
L 242.833011 182.623624 
L 242.931899 179.431906 
L 242.982334 179.431906 
L 243.071992 176.949459 
L 243.140082 176.949459 
L 243.248087 175.176282 
L 243.28136 175.176282 
L 243.38566 174.112376 
L 243.396483 174.112376 
L 243.396483 173.757741 
L 243.511674 173.757741 
L 243.602672 172.3392 
L 243.679724 172.3392 
L 243.753807 171.275294 
L 243.893389 171.275294 
L 243.988556 170.211388 
L 244.01232 170.211388 
L 244.120651 168.792847 
L 244.124369 168.792847 
L 244.212828 167.728941 
L 244.24019 167.728941 
L 244.347221 164.891859 
L 244.426594 164.891859 
L 244.537665 163.118682 
L 244.591415 163.118682 
L 244.684747 160.2816 
L 244.717016 160.2816 
L 244.719178 159.572329 
L 244.878787 159.572329 
L 244.945813 158.153788 
L 245.071376 158.153788 
L 245.174672 155.671341 
L 245.218569 155.671341 
L 245.304485 153.898165 
L 245.361486 153.898165 
L 245.451258 150.706447 
L 245.4876 150.706447 
L 245.580902 146.805459 
L 245.599816 146.805459 
L 245.693762 146.096188 
L 245.728956 146.096188 
L 245.772261 142.904471 
L 245.872298 142.904471 
L 245.887706 142.1952 
L 245.986627 142.1952 
L 246.067437 138.294212 
L 246.134876 138.294212 
L 246.209396 137.230306 
L 246.322859 137.230306 
L 246.402734 135.457129 
L 246.567352 135.457129 
L 246.567352 135.102494 
L 246.726819 135.102494 
L 246.7971 133.329318 
L 246.867924 133.329318 
L 246.927274 132.265412 
L 247.041277 132.265412 
L 247.114994 130.492235 
L 247.171674 130.492235 
L 247.240001 129.782965 
L 247.305726 129.782965 
L 247.387639 128.719059 
L 247.446932 128.719059 
L 247.552107 127.655153 
L 247.630951 127.655153 
L 247.710234 126.591247 
L 247.838838 126.591247 
L 247.928492 124.463435 
L 247.983988 124.463435 
L 248.063157 123.044894 
L 248.126523 123.044894 
L 248.201355 122.335624 
L 248.26575 122.335624 
L 248.375801 120.562447 
L 248.380546 120.562447 
L 248.455705 118.434635 
L 248.500096 118.434635 
L 248.553346 116.661459 
L 248.613621 116.661459 
L 248.71176 115.597553 
L 248.763543 115.597553 
L 248.84153 113.469741 
L 248.877949 113.469741 
L 248.978024 112.0512 
L 249.09128 112.0512 
L 249.163373 108.859482 
L 249.251191 108.859482 
L 249.360427 105.667765 
L 249.401894 105.667765 
L 249.427572 104.958494 
L 249.514587 104.958494 
L 249.620087 102.476047 
L 249.694472 102.476047 
L 249.789757 101.057506 
L 249.918062 101.057506 
L 250.024047 99.9936 
L 250.08589 99.9936 
L 250.194841 98.929694 
L 250.303699 98.929694 
L 250.383698 98.220424 
L 250.519676 98.220424 
L 250.541891 97.511153 
L 250.632858 97.511153 
L 250.632858 97.156518 
L 251.020884 97.156518 
L 251.118159 96.092612 
L 251.16322 96.092612 
L 251.25989 95.383341 
L 251.285314 95.383341 
L 251.347965 93.9648 
L 251.426932 93.9648 
L 251.502932 93.255529 
L 251.54207 93.255529 
L 251.560231 91.836988 
L 251.845374 91.836988 
L 251.845374 91.482353 
L 252.026869 91.482353 
L 252.026869 91.127718 
L 252.152845 91.127718 
L 252.232014 90.063812 
L 252.384089 90.063812 
L 252.384089 89.709176 
L 252.611104 89.709176 
L 252.611104 89.354541 
L 252.83319 89.354541 
L 252.83319 88.999906 
L 252.969701 88.999906 
L 252.969701 88.645271 
L 253.173834 88.645271 
L 253.173834 88.290635 
L 253.341643 88.290635 
L 253.370546 87.581365 
L 253.495434 87.581365 
L 253.602772 86.517459 
L 253.627576 86.517459 
L 253.627576 86.162824 
L 253.748769 86.162824 
L 253.831167 85.098918 
L 253.902707 85.098918 
L 253.902707 84.744282 
L 254.08005 84.744282 
L 254.117132 83.680376 
L 254.259749 83.680376 
L 254.354193 82.971106 
L 254.481316 82.971106 
L 254.585533 81.197929 
L 254.622697 81.197929 
L 254.697124 80.134024 
L 254.741471 80.134024 
L 254.825642 78.360847 
L 254.970004 78.360847 
L 255.015692 77.296941 
L 255.31686 77.296941 
L 255.362431 76.233035 
L 255.46413 76.233035 
L 255.481212 75.169129 
L 255.592986 75.169129 
L 255.592986 74.814494 
L 255.847482 74.814494 
L 255.847482 74.459859 
L 256.093958 74.459859 
L 256.152011 73.395953 
L 256.252077 73.395953 
L 256.280542 71.977412 
L 256.428121 71.977412 
L 256.428121 71.622776 
L 256.898095 71.622776 
L 256.975983 70.913506 
L 257.309362 70.913506 
L 257.329272 69.494965 
L 257.677404 69.494965 
L 257.677404 69.140329 
L 257.790023 69.140329 
L 257.840837 68.076424 
L 258.047253 68.076424 
L 258.119033 66.303247 
L 258.384641 66.303247 
L 258.384641 65.948612 
L 258.503593 65.948612 
L 258.593909 65.239341 
L 258.753361 65.239341 
L 258.753361 64.884706 
L 258.972439 64.884706 
L 258.972439 64.530071 
L 259.216848 64.530071 
L 259.216848 64.175435 
L 259.903644 64.175435 
L 259.903644 63.8208 
L 260.238493 63.8208 
L 260.238493 63.466165 
L 260.360825 63.466165 
L 260.360825 63.111529 
L 260.573922 63.111529 
L 260.573922 62.756894 
L 261.045254 62.756894 
L 261.15247 61.338353 
L 261.16134 61.338353 
L 261.208474 60.629082 
L 262.099023 60.629082 
L 262.144438 59.210541 
L 262.248281 59.210541 
L 262.259626 58.501271 
L 262.525896 58.501271 
L 262.605264 57.792 
L 262.701754 57.792 
L 262.739175 56.728094 
L 262.841994 56.728094 
L 262.951157 56.018824 
L 262.973009 56.018824 
L 262.973623 55.309553 
L 263.108336 55.309553 
L 263.212195 53.181741 
L 263.534423 53.181741 
L 263.534423 52.827106 
L 263.952822 52.827106 
L 264.062506 52.117835 
L 264.069654 52.117835 
L 264.120127 50.699294 
L 264.314387 50.699294 
L 264.382644 49.635388 
L 264.504396 49.635388 
L 264.574288 47.862212 
L 264.632053 47.862212 
L 264.632053 47.507576 
L 264.983551 47.507576 
L 265.004698 46.798306 
L 265.480932 46.798306 
L 265.480932 46.443671 
L 265.764827 46.443671 
L 265.870726 45.379765 
L 265.96125 45.379765 
L 265.979465 44.670494 
L 266.087059 44.670494 
L 266.087059 44.315859 
L 266.901161 44.315859 
L 266.901161 43.961224 
L 269.624894 43.961224 
L 269.624894 43.606588 
L 269.869514 43.606588 
L 269.869514 43.251953 
L 274.263758 43.251953 
L 274.327946 42.542682 
L 275.985411 42.542682 
L 275.985411 42.188047 
L 276.147646 42.188047 
L 276.236471 41.124141 
L 276.430402 41.124141 
L 276.430402 40.769506 
L 276.658032 40.769506 
L 276.658032 40.414871 
L 276.92814 40.414871 
L 276.92814 40.060235 
L 277.051213 40.060235 
L 277.091759 39.350965 
L 277.172364 39.350965 
L 277.272167 38.287059 
L 277.443494 38.287059 
L 277.520121 37.577788 
L 277.633228 37.577788 
L 277.633228 37.223153 
L 277.744413 37.223153 
L 277.744413 36.868518 
L 277.979499 36.868518 
L 278.031862 35.804612 
L 278.394463 35.804612 
L 278.436717 35.095341 
L 278.508754 35.095341 
L 278.610113 34.386071 
L 278.631442 34.386071 
L 278.687796 33.322165 
L 279.114865 33.322165 
L 279.114865 32.967529 
L 279.668706 32.967529 
L 279.668706 32.612894 
L 279.891782 32.612894 
L 279.963667 31.548988 
L 280.095799 31.548988 
L 280.095799 31.194353 
L 280.276067 31.194353 
L 280.276067 30.839718 
L 280.612086 30.839718 
L 280.612086 30.485082 
L 280.993391 30.485082 
L 281.042008 29.775812 
L 282.145331 29.775812 
L 282.145331 29.421176 
L 282.637046 29.421176 
L 282.637046 29.066541 
L 282.839097 29.066541 
L 282.839097 28.711906 
L 283.02039 28.711906 
L 283.02039 28.357271 
L 283.475832 28.357271 
L 283.475832 28.002635 
L 289.164463 28.002635 
L 289.164463 27.648 
L 360.8064 27.648 
L 360.8064 27.648 
" style="fill: none; stroke: #000080; stroke-width: 1.5; stroke-linecap: square"/>
   </g>
   <g id="line2d_36">
    <defs>
     <path id="m3371299cad" d="M 0 6 
C 1.591219 6 3.117479 5.367802 4.242641 4.242641 
C 5.367802 3.117479 6 1.591219 6 0 
C 6 -1.591219 5.367802 -3.117479 4.242641 -4.242641 
C 3.117479 -5.367802 1.591219 -6 0 -6 
C -1.591219 -6 -3.117479 -5.367802 -4.242641 -4.242641 
C -5.367802 -3.117479 -6 -1.591219 -6 0 
C -6 1.591219 -5.367802 3.117479 -4.242641 4.242641 
C -3.117479 5.367802 -1.591219 6 0 6 
z
" style="stroke: #000080; stroke-width: 1.5"/>
    </defs>
    <g>
     <use xlink:href="#m3371299cad" x="198.216336" y="253.196047" style="fill-opacity: 0; stroke: #000080; stroke-width: 1.5"/>
     <use xlink:href="#m3371299cad" x="246.927274" y="132.620047" style="fill-opacity: 0; stroke: #000080; stroke-width: 1.5"/>
     <use xlink:href="#m3371299cad" x="280.612086" y="30.485082" style="fill-opacity: 0; stroke: #000080; stroke-width: 1.5"/>
     <use xlink:href="#m3371299cad" x="289.164463" y="27.648" style="fill-opacity: 0; stroke: #000080; stroke-width: 1.5"/>
     <use xlink:href="#m3371299cad" x="360.8064" y="27.648" style="fill-opacity: 0; stroke: #000080; stroke-width: 1.5"/>
    </g>
   </g>
   <g id="line2d_37">
    <path style="fill: none; stroke: #000080; stroke-width: 1.5; stroke-linecap: square"/>
    <g/>
   </g>
   <g id="line2d_38">
    <path d="M 274.176 43.251953 
" clip-path="url(#p46bb784df1)" style="fill: none; stroke: #000080; stroke-width: 1.5; stroke-linecap: square"/>
    <defs>
     <path id="m46f7e3f6ba" d="M -12 12 
L 12 -12 
M -12 -12 
L 12 12 
" style="stroke: #000080"/>
    </defs>
    <g clip-path="url(#p46bb784df1)">
     <use xlink:href="#m46f7e3f6ba" x="274.176" y="43.251953" style="fill: #000080; stroke: #000080"/>
    </g>
   </g>
   <g id="line2d_39">
    <defs>
     <path id="m074fed3a0a" d="M 0 1.5 
C 0.397805 1.5 0.77937 1.341951 1.06066 1.06066 
C 1.341951 0.77937 1.5 0.397805 1.5 0 
C 1.5 -0.397805 1.341951 -0.77937 1.06066 -1.06066 
C 0.77937 -1.341951 0.397805 -1.5 0 -1.5 
C -0.397805 -1.5 -0.77937 -1.341951 -1.06066 -1.06066 
C -1.341951 -0.77937 -1.5 -0.397805 -1.5 0 
C -1.5 0.397805 -1.341951 0.77937 -1.06066 1.06066 
C -0.77937 1.341951 -0.397805 1.5 0 1.5 
z
" style="stroke: #ff00ff"/>
    </defs>
    <g>
     <use xlink:href="#m074fed3a0a" x="343.704315" y="240.429176" style="fill: #ff00ff; stroke: #ff00ff"/>
     <use xlink:href="#m074fed3a0a" x="343.704315" y="240.429176" style="fill: #ff00ff; stroke: #ff00ff"/>
    </g>
   </g>
   <g id="line2d_40">
    <path d="M 121.581803 298.944 
L 121.581803 298.234729 
L 151.982822 298.234729 
L 151.982822 297.880094 
L 168.462127 297.880094 
L 168.462127 297.525459 
L 170.374474 297.525459 
L 170.374474 296.106918 
L 172.591198 296.106918 
L 172.591198 295.043012 
L 179.325784 295.043012 
L 179.325784 294.688376 
L 181.287383 294.688376 
L 181.287383 294.333741 
L 183.333809 294.333741 
L 183.333809 293.979106 
L 183.9131 293.979106 
L 183.931346 292.9152 
L 184.585493 292.9152 
L 184.585493 292.560565 
L 185.638701 292.560565 
L 185.638701 292.205929 
L 185.886878 292.205929 
L 185.895095 291.496659 
L 187.003619 291.496659 
L 187.003619 291.142024 
L 187.458867 291.142024 
L 187.458867 290.787388 
L 188.431143 290.787388 
L 188.431143 290.432753 
L 188.723187 290.432753 
L 188.723187 289.723482 
L 189.556167 289.723482 
L 189.556167 289.014212 
L 190.489435 289.014212 
L 190.489435 288.659576 
L 192.731194 288.659576 
L 192.731194 288.304941 
L 193.431944 288.304941 
L 193.431944 287.950306 
L 194.410328 287.950306 
L 194.478117 285.822494 
L 194.610383 285.822494 
L 194.610383 285.467859 
L 195.019402 285.467859 
L 195.019402 285.113224 
L 195.200598 285.113224 
L 195.200598 284.758588 
L 195.469162 284.758588 
L 195.469162 284.403953 
L 195.767997 284.403953 
L 195.767997 283.694682 
L 195.918064 283.694682 
L 195.918064 283.340047 
L 196.550983 283.340047 
L 196.550983 282.630776 
L 196.94771 282.630776 
L 197.027425 280.8576 
L 197.758496 280.8576 
L 197.758496 280.502965 
L 200.55842 280.502965 
L 200.55842 280.148329 
L 201.920724 280.148329 
L 201.995917 279.439059 
L 202.367443 279.439059 
L 202.464723 278.020518 
L 202.942054 278.020518 
L 202.942054 277.311247 
L 203.817545 277.311247 
L 203.817545 276.601976 
L 204.218773 276.601976 
L 204.218773 276.247341 
L 204.371669 276.247341 
L 204.371669 275.538071 
L 204.527909 275.538071 
L 204.53096 274.8288 
L 205.570832 274.8288 
L 205.570832 274.474165 
L 205.935284 274.474165 
L 205.935284 274.119529 
L 206.327497 274.119529 
L 206.327497 273.410259 
L 207.268406 273.410259 
L 207.268406 272.346353 
L 207.39719 272.346353 
L 207.482124 271.637082 
L 207.5433 271.637082 
L 207.643096 270.573176 
L 207.686994 270.573176 
L 207.686994 270.218541 
L 208.119169 270.218541 
L 208.119169 269.863906 
L 208.314759 269.863906 
L 208.314759 269.509271 
L 208.866616 269.509271 
L 208.866616 269.154635 
L 209.088171 269.154635 
L 209.088171 268.8 
L 209.37329 268.8 
L 209.37329 268.445365 
L 209.578499 268.445365 
L 209.607632 267.736094 
L 209.69824 267.736094 
L 209.69824 267.381459 
L 209.865527 267.381459 
L 209.865527 267.026824 
L 210.357523 267.026824 
L 210.357523 266.317553 
L 210.628581 266.317553 
L 210.64071 265.608282 
L 210.851154 265.608282 
L 210.851154 265.253647 
L 211.5056 265.253647 
L 211.5056 264.899012 
L 211.633592 264.899012 
L 211.633592 264.544376 
L 211.868414 264.544376 
L 211.868414 264.189741 
L 212.347573 264.189741 
L 212.347573 262.7712 
L 212.47098 262.7712 
L 212.515928 262.061929 
L 213.335818 262.061929 
L 213.335818 261.352659 
L 213.594768 261.352659 
L 213.594768 260.998024 
L 214.055391 260.998024 
L 214.055391 260.643388 
L 214.345465 260.643388 
L 214.345465 260.288753 
L 214.736929 260.288753 
L 214.763507 259.579482 
L 214.995784 259.579482 
L 214.995784 259.224847 
L 215.20016 259.224847 
L 215.248537 258.515576 
L 215.374079 258.515576 
L 215.374079 258.160941 
L 216.068982 258.160941 
L 216.174406 256.7424 
L 216.282509 256.7424 
L 216.282509 256.387765 
L 216.500906 256.387765 
L 216.500906 256.033129 
L 217.675837 256.033129 
L 217.675837 255.678494 
L 217.955836 255.678494 
L 217.955836 255.323859 
L 218.076481 255.323859 
L 218.076481 254.969224 
L 218.759499 254.969224 
L 218.759499 254.614588 
L 220.525861 254.614588 
L 220.525861 253.905318 
L 220.637622 253.905318 
L 220.713268 252.841412 
L 221.194858 252.841412 
L 221.194858 252.486776 
L 222.086602 252.486776 
L 222.086602 252.132141 
L 222.393001 252.132141 
L 222.393001 251.777506 
L 222.569796 251.777506 
L 222.569796 251.422871 
L 222.720024 251.422871 
L 222.720024 251.068235 
L 222.845456 251.068235 
L 222.845456 250.7136 
L 226.074617 250.7136 
L 226.074617 250.358965 
L 234.074551 250.358965 
L 234.074551 250.004329 
L 236.581052 250.004329 
L 236.581052 249.649694 
L 242.917833 249.649694 
L 242.917833 249.295059 
L 245.194351 249.295059 
L 245.194351 248.940424 
L 274.942721 248.940424 
L 275.006762 248.231153 
L 275.306774 248.231153 
L 275.413182 247.521882 
L 276.355763 247.521882 
L 276.355763 247.167247 
L 288.374004 247.167247 
L 288.374004 246.457976 
L 288.522945 246.457976 
L 288.522945 246.103341 
L 288.993343 246.103341 
L 288.993343 245.748706 
L 295.2825 245.748706 
L 295.2825 245.394071 
L 296.214251 245.394071 
L 296.214251 245.039435 
L 300.604741 245.039435 
L 300.604741 244.6848 
L 300.957907 244.6848 
L 300.957907 244.330165 
L 304.970595 244.330165 
L 304.970595 243.620894 
L 308.327842 243.620894 
L 308.327842 243.266259 
L 313.648564 243.266259 
L 313.648564 242.911624 
L 321.184524 242.911624 
L 321.184524 242.556988 
L 324.058122 242.556988 
L 324.058122 242.202353 
L 325.345489 242.202353 
L 325.345489 241.847718 
L 328.750726 241.847718 
L 328.750726 241.493082 
L 330.720452 241.493082 
L 330.720452 241.138447 
L 336.337226 241.138447 
L 336.337226 240.783812 
L 343.704315 240.783812 
L 343.704315 240.429176 
L 360.8064 240.429176 
L 360.8064 240.429176 
" style="fill: none; stroke: #ff00ff; stroke-width: 1.5; stroke-linecap: square"/>
   </g>
   <g id="line2d_41">
    <defs>
     <path id="mf9fccd2fc8" d="M 0 8.485281 
L 5.091169 0 
L 0 -8.485281 
L -5.091169 0 
z
" style="stroke: #ff00ff; stroke-width: 1.5; stroke-linejoin: miter"/>
    </defs>
    <g>
     <use xlink:href="#mf9fccd2fc8" x="172.591198" y="296.106918" style="fill-opacity: 0; stroke: #ff00ff; stroke-width: 1.5; stroke-linejoin: miter"/>
     <use xlink:href="#mf9fccd2fc8" x="245.194351" y="249.295059" style="fill-opacity: 0; stroke: #ff00ff; stroke-width: 1.5; stroke-linejoin: miter"/>
     <use xlink:href="#mf9fccd2fc8" x="300.957907" y="244.330165" style="fill-opacity: 0; stroke: #ff00ff; stroke-width: 1.5; stroke-linejoin: miter"/>
     <use xlink:href="#mf9fccd2fc8" x="343.704315" y="240.429176" style="fill-opacity: 0; stroke: #ff00ff; stroke-width: 1.5; stroke-linejoin: miter"/>
     <use xlink:href="#mf9fccd2fc8" x="360.8064" y="240.429176" style="fill-opacity: 0; stroke: #ff00ff; stroke-width: 1.5; stroke-linejoin: miter"/>
    </g>
   </g>
   <g id="line2d_42">
    <path style="fill: none; stroke: #ff00ff; stroke-width: 1.5; stroke-linecap: square"/>
    <g/>
   </g>
   <g id="line2d_43">
    <path d="M 274.255293 248.940424 
" clip-path="url(#p46bb784df1)" style="fill: none; stroke: #ff00ff; stroke-width: 1.5; stroke-linecap: square"/>
    <defs>
     <path id="m3f57460ec8" d="M -12 12 
L 12 -12 
M -12 -12 
L 12 12 
" style="stroke: #ff00ff"/>
    </defs>
    <g clip-path="url(#p46bb784df1)">
     <use xlink:href="#m3f57460ec8" x="274.255293" y="248.940424" style="fill: #ff00ff; stroke: #ff00ff"/>
    </g>
   </g>
   <g id="line2d_44">
    <defs>
     <path id="m04608db78d" d="M 0 1.5 
C 0.397805 1.5 0.77937 1.341951 1.06066 1.06066 
C 1.341951 0.77937 1.5 0.397805 1.5 0 
C 1.5 -0.397805 1.341951 -0.77937 1.06066 -1.06066 
C 0.77937 -1.341951 0.397805 -1.5 0 -1.5 
C -0.397805 -1.5 -0.77937 -1.341951 -1.06066 -1.06066 
C -1.341951 -0.77937 -1.5 -0.397805 -1.5 0 
C -1.5 0.397805 -1.341951 0.77937 -1.06066 1.06066 
C -0.77937 1.341951 -0.397805 1.5 0 1.5 
z
" style="stroke: #ff7500"/>
    </defs>
    <g>
     <use xlink:href="#m04608db78d" x="324.063426" y="27.648" style="fill: #ff7500; stroke: #ff7500"/>
     <use xlink:href="#m04608db78d" x="324.063426" y="27.648" style="fill: #ff7500; stroke: #ff7500"/>
    </g>
   </g>
   <g id="line2d_45">
    <path d="M 98.077987 298.944 
L 98.077987 298.589365 
L 109.520071 298.589365 
L 109.520071 297.880094 
L 114.141556 297.880094 
L 114.141556 297.170824 
L 117.067958 297.170824 
L 117.067958 296.461553 
L 117.384126 296.461553 
L 117.384126 296.106918 
L 118.000953 296.106918 
L 118.000953 295.752282 
L 125.628382 295.752282 
L 125.628382 295.397647 
L 127.366067 295.397647 
L 127.366067 295.043012 
L 130.027253 295.043012 
L 130.027253 294.688376 
L 133.78762 294.688376 
L 133.78762 294.333741 
L 134.240933 294.333741 
L 134.240933 293.979106 
L 134.931919 293.979106 
L 134.931919 293.624471 
L 135.35878 293.624471 
L 135.35878 291.851294 
L 136.584151 291.851294 
L 136.584151 289.723482 
L 136.696795 289.723482 
L 136.696795 289.368847 
L 138.515235 289.368847 
L 138.515235 287.950306 
L 138.918715 287.950306 
L 138.918715 286.531765 
L 139.117256 286.531765 
L 139.117256 286.177129 
L 139.459738 286.177129 
L 139.459738 285.822494 
L 139.652679 285.822494 
L 139.652679 285.467859 
L 141.739954 285.467859 
L 141.739954 284.758588 
L 142.41488 284.758588 
L 142.45627 284.049318 
L 142.743475 284.049318 
L 142.784148 282.985412 
L 142.865233 282.985412 
L 142.865233 281.566871 
L 143.579681 281.566871 
L 143.579681 280.8576 
L 143.965177 280.8576 
L 144.003296 279.793694 
L 145.148219 279.793694 
L 145.148219 279.439059 
L 145.432709 279.439059 
L 145.503164 278.729788 
L 145.782376 278.729788 
L 145.782376 278.375153 
L 146.728219 278.375153 
L 146.728219 277.665882 
L 146.892226 277.665882 
L 146.892226 277.311247 
L 147.753975 277.311247 
L 147.753975 276.956612 
L 148.216198 276.956612 
L 148.216198 276.601976 
L 148.667336 276.601976 
L 148.667336 276.247341 
L 149.049758 276.247341 
L 149.049758 275.892706 
L 149.31003 275.892706 
L 149.31003 274.8288 
L 149.959255 274.8288 
L 149.959255 274.119529 
L 150.72052 274.119529 
L 150.72052 273.764894 
L 152.953957 273.764894 
L 152.953957 273.410259 
L 153.989717 273.410259 
L 153.989717 272.346353 
L 154.563149 272.346353 
L 154.628204 271.282447 
L 154.950144 271.282447 
L 154.950144 270.573176 
L 155.536743 270.573176 
L 155.536743 270.218541 
L 156.284856 270.218541 
L 156.284856 269.863906 
L 156.442771 269.863906 
L 156.442771 269.509271 
L 157.568177 269.509271 
L 157.605171 268.8 
L 158.418868 268.8 
L 158.418868 268.090729 
L 158.717331 268.090729 
L 158.717331 267.736094 
L 159.164837 267.736094 
L 159.198823 267.026824 
L 159.750914 267.026824 
L 159.849576 266.317553 
L 159.996606 266.317553 
L 159.996606 265.962918 
L 160.652238 265.962918 
L 160.652238 265.608282 
L 160.917524 265.608282 
L 160.963953 264.544376 
L 161.17912 264.544376 
L 161.17912 264.189741 
L 161.542347 264.189741 
L 161.646981 263.480471 
L 161.661881 263.480471 
L 161.661881 263.125835 
L 162.147083 263.125835 
L 162.233972 262.416565 
L 162.956765 262.416565 
L 163.053839 261.707294 
L 164.089846 261.707294 
L 164.089846 261.352659 
L 164.504157 261.352659 
L 164.504157 260.998024 
L 164.63178 260.998024 
L 164.63178 260.643388 
L 165.096597 260.643388 
L 165.096597 260.288753 
L 165.477385 260.288753 
L 165.477385 259.934118 
L 165.790918 259.934118 
L 165.898243 259.224847 
L 166.40273 259.224847 
L 166.40273 258.870212 
L 166.701332 258.870212 
L 166.701332 258.515576 
L 167.040085 258.515576 
L 167.040085 258.160941 
L 167.732209 258.160941 
L 167.732209 257.806306 
L 167.871912 257.806306 
L 167.871912 257.451671 
L 168.295375 257.451671 
L 168.295375 257.097035 
L 168.903083 257.097035 
L 168.903083 256.7424 
L 169.383404 256.7424 
L 169.383404 256.387765 
L 169.822832 256.387765 
L 169.822832 256.033129 
L 170.919507 256.033129 
L 170.919507 255.678494 
L 171.082693 255.678494 
L 171.091717 254.969224 
L 171.351562 254.969224 
L 171.351562 254.614588 
L 172.33959 254.614588 
L 172.33959 254.259953 
L 173.060174 254.259953 
L 173.060174 253.905318 
L 173.44623 253.905318 
L 173.44623 253.550682 
L 173.902386 253.550682 
L 173.902386 253.196047 
L 174.05715 253.196047 
L 174.05715 252.841412 
L 174.678701 252.841412 
L 174.678701 252.486776 
L 174.95257 252.486776 
L 174.95257 252.132141 
L 175.345249 252.132141 
L 175.345249 251.777506 
L 176.645031 251.777506 
L 176.712072 251.068235 
L 177.549733 251.068235 
L 177.549733 250.7136 
L 177.822968 250.7136 
L 177.822968 250.358965 
L 178.46176 250.358965 
L 178.46176 250.004329 
L 179.120831 250.004329 
L 179.120831 249.649694 
L 179.273294 249.649694 
L 179.273294 249.295059 
L 179.677735 249.295059 
L 179.677735 248.940424 
L 180.488824 248.940424 
L 180.488824 248.585788 
L 180.841365 248.585788 
L 180.841365 248.231153 
L 181.977698 248.231153 
L 181.977698 247.876518 
L 182.123818 247.876518 
L 182.123818 247.521882 
L 182.789478 247.521882 
L 182.789478 247.167247 
L 183.347923 247.167247 
L 183.347923 246.812612 
L 183.488484 246.812612 
L 183.488484 246.457976 
L 184.225388 246.457976 
L 184.261263 245.748706 
L 184.457357 245.748706 
L 184.457357 245.394071 
L 185.132303 245.394071 
L 185.132303 245.039435 
L 185.251688 245.039435 
L 185.302622 244.330165 
L 186.050529 244.330165 
L 186.050529 243.975529 
L 186.801175 243.975529 
L 186.801175 243.620894 
L 186.991998 243.620894 
L 186.991998 243.266259 
L 188.355616 243.266259 
L 188.355616 242.911624 
L 188.62042 242.911624 
L 188.62042 242.556988 
L 188.849983 242.556988 
L 188.849983 242.202353 
L 189.170188 242.202353 
L 189.170188 241.847718 
L 189.423846 241.847718 
L 189.423846 241.493082 
L 190.553671 241.493082 
L 190.553671 241.138447 
L 190.811607 241.138447 
L 190.811607 240.783812 
L 190.947113 240.783812 
L 190.947113 240.429176 
L 191.558774 240.429176 
L 191.558774 240.074541 
L 192.256904 240.074541 
L 192.256904 239.719906 
L 192.39987 239.719906 
L 192.39987 239.365271 
L 192.576342 239.365271 
L 192.587857 238.656 
L 192.870614 238.656 
L 192.870614 238.301365 
L 193.000563 238.301365 
L 193.000563 237.946729 
L 193.138008 237.946729 
L 193.138008 237.592094 
L 193.47866 237.592094 
L 193.47866 237.237459 
L 194.181701 237.237459 
L 194.181701 236.882824 
L 195.245626 236.882824 
L 195.347788 235.818918 
L 195.459283 235.818918 
L 195.459283 235.464282 
L 196.84013 235.464282 
L 196.84013 235.109647 
L 197.813069 235.109647 
L 197.917409 234.400376 
L 198.265344 234.400376 
L 198.265344 234.045741 
L 198.969149 234.045741 
L 198.969149 233.691106 
L 199.160856 233.691106 
L 199.160856 233.336471 
L 200.129719 233.336471 
L 200.20665 232.6272 
L 200.340527 232.6272 
L 200.340527 232.272565 
L 200.515043 232.272565 
L 200.515043 231.917929 
L 201.107918 231.917929 
L 201.107918 231.563294 
L 201.322577 231.563294 
L 201.356913 230.499388 
L 202.915481 230.499388 
L 202.915481 230.144753 
L 203.391375 230.144753 
L 203.42699 229.080847 
L 203.533435 229.080847 
L 203.533435 228.726212 
L 203.652069 228.726212 
L 203.652069 228.371576 
L 204.083376 228.371576 
L 204.083376 228.016941 
L 205.027654 228.016941 
L 205.09586 227.307671 
L 205.681628 227.307671 
L 205.681628 226.953035 
L 205.916874 226.953035 
L 205.916874 226.5984 
L 206.373188 226.5984 
L 206.373188 226.243765 
L 207.469082 226.243765 
L 207.55629 225.179859 
L 208.213457 225.179859 
L 208.213457 224.825224 
L 208.452701 224.825224 
L 208.452701 224.470588 
L 209.085777 224.470588 
L 209.085777 224.115953 
L 209.29176 224.115953 
L 209.323705 223.406682 
L 209.864378 223.406682 
L 209.864378 223.052047 
L 210.293635 223.052047 
L 210.402227 222.342776 
L 210.650627 222.342776 
L 210.650627 221.633506 
L 211.290681 221.633506 
L 211.290681 221.278871 
L 211.50981 221.278871 
L 211.575998 220.5696 
L 212.167537 220.5696 
L 212.167537 220.214965 
L 213.799952 220.214965 
L 213.799952 219.860329 
L 214.449274 219.860329 
L 214.449274 219.505694 
L 214.905502 219.505694 
L 214.942368 218.796424 
L 215.268369 218.796424 
L 215.268369 218.441788 
L 216.001133 218.441788 
L 216.10199 217.732518 
L 216.593505 217.732518 
L 216.593505 217.377882 
L 216.705621 217.377882 
L 216.705621 217.023247 
L 217.703874 217.023247 
L 217.759067 216.313976 
L 217.817863 216.313976 
L 217.817863 215.959341 
L 217.996137 215.959341 
L 217.996137 215.604706 
L 218.760215 215.604706 
L 218.760215 215.250071 
L 218.92698 215.250071 
L 218.92698 214.895435 
L 219.169486 214.895435 
L 219.169486 214.5408 
L 219.541221 214.5408 
L 219.62003 213.831529 
L 219.880815 213.831529 
L 219.880815 213.476894 
L 220.813658 213.476894 
L 220.813658 213.122259 
L 221.33022 213.122259 
L 221.33022 212.767624 
L 221.858493 212.767624 
L 221.858493 212.412988 
L 222.153065 212.412988 
L 222.153065 212.058353 
L 222.573303 212.058353 
L 222.573303 211.703718 
L 223.340106 211.703718 
L 223.421298 210.994447 
L 223.463714 210.994447 
L 223.470403 210.285176 
L 223.661137 210.285176 
L 223.68319 209.575906 
L 224.74425 209.575906 
L 224.74425 209.221271 
L 224.924103 209.221271 
L 224.924103 208.866635 
L 225.17976 208.866635 
L 225.251375 207.448094 
L 226.928832 207.448094 
L 226.962651 206.738824 
L 227.156971 206.738824 
L 227.156971 206.384188 
L 227.385545 206.384188 
L 227.385545 206.029553 
L 227.991186 206.029553 
L 227.991186 205.674918 
L 228.139163 205.674918 
L 228.139163 205.320282 
L 228.64493 205.320282 
L 228.64493 204.965647 
L 228.815995 204.965647 
L 228.859147 204.256376 
L 228.98053 204.256376 
L 229.020403 203.547106 
L 229.163413 203.547106 
L 229.163413 203.192471 
L 229.521102 203.192471 
L 229.521102 202.837835 
L 229.787863 202.837835 
L 229.860217 202.128565 
L 230.106978 202.128565 
L 230.106978 201.773929 
L 230.439248 201.773929 
L 230.439248 201.419294 
L 230.660713 201.419294 
L 230.702116 200.710024 
L 231.508308 200.710024 
L 231.508308 200.355388 
L 231.668293 200.355388 
L 231.668293 200.000753 
L 232.029903 200.000753 
L 232.029903 199.646118 
L 232.230361 199.646118 
L 232.328751 198.936847 
L 232.381571 198.936847 
L 232.381571 198.582212 
L 232.615043 198.582212 
L 232.615043 198.227576 
L 233.069123 198.227576 
L 233.069123 197.872941 
L 233.328285 197.872941 
L 233.328285 197.518306 
L 233.56699 197.518306 
L 233.56699 197.163671 
L 233.802704 197.163671 
L 233.802704 196.809035 
L 233.944708 196.809035 
L 233.944708 196.4544 
L 234.345339 196.4544 
L 234.345339 196.099765 
L 234.700532 196.099765 
L 234.715252 195.390494 
L 234.894631 195.390494 
L 234.894631 195.035859 
L 235.093959 195.035859 
L 235.093959 194.681224 
L 235.26085 194.681224 
L 235.26085 194.326588 
L 235.380468 194.326588 
L 235.447217 193.617318 
L 235.909674 193.617318 
L 235.909674 193.262682 
L 236.055531 193.262682 
L 236.084624 192.553412 
L 236.424399 192.553412 
L 236.424399 192.198776 
L 236.5466 192.198776 
L 236.609344 191.489506 
L 237.007002 191.489506 
L 237.007002 191.134871 
L 237.14193 191.134871 
L 237.14193 190.780235 
L 237.295416 190.780235 
L 237.295416 190.4256 
L 237.605254 190.4256 
L 237.605254 190.070965 
L 238.148068 190.070965 
L 238.148068 189.716329 
L 238.41132 189.716329 
L 238.41132 189.361694 
L 238.939516 189.361694 
L 239.032339 188.297788 
L 239.120584 188.297788 
L 239.120584 187.943153 
L 239.408913 187.943153 
L 239.412734 187.233882 
L 239.599731 187.233882 
L 239.599731 186.879247 
L 240.14339 186.879247 
L 240.14339 186.524612 
L 240.288456 186.524612 
L 240.367836 185.815341 
L 240.412269 185.815341 
L 240.412269 185.460706 
L 240.594569 185.460706 
L 240.594569 185.106071 
L 241.228707 185.106071 
L 241.278725 184.3968 
L 241.410817 184.3968 
L 241.410817 184.042165 
L 241.547744 184.042165 
L 241.547744 183.687529 
L 241.852233 183.687529 
L 241.852233 183.332894 
L 242.101435 183.332894 
L 242.101435 182.978259 
L 242.365757 182.978259 
L 242.474229 182.268988 
L 242.809304 182.268988 
L 242.809304 181.914353 
L 242.995564 181.914353 
L 243.087319 180.850447 
L 243.190744 180.850447 
L 243.190744 180.495812 
L 243.537006 180.495812 
L 243.562113 179.431906 
L 243.693613 179.431906 
L 243.762904 178.013365 
L 243.863445 178.013365 
L 243.863445 177.658729 
L 244.032691 177.658729 
L 244.032691 177.304094 
L 244.158912 177.304094 
L 244.196355 176.594824 
L 244.381541 176.594824 
L 244.381541 176.240188 
L 244.532391 176.240188 
L 244.532391 175.885553 
L 244.671752 175.885553 
L 244.671752 175.530918 
L 244.820659 175.530918 
L 244.820659 175.176282 
L 244.947592 175.176282 
L 244.947592 174.821647 
L 245.093458 174.821647 
L 245.204358 173.757741 
L 245.332223 173.757741 
L 245.362705 173.048471 
L 245.485525 173.048471 
L 245.485525 172.693835 
L 246.58057 172.693835 
L 246.58057 172.3392 
L 246.758519 172.3392 
L 246.797262 170.920659 
L 247.224401 170.920659 
L 247.250708 170.211388 
L 247.410911 170.211388 
L 247.449113 169.147482 
L 247.58987 169.147482 
L 247.656235 168.083576 
L 247.76362 168.083576 
L 247.76362 167.728941 
L 248.069036 167.728941 
L 248.087264 167.019671 
L 248.250083 167.019671 
L 248.274101 165.955765 
L 248.815474 165.955765 
L 248.815474 165.601129 
L 248.955608 165.601129 
L 248.955608 165.246494 
L 249.073142 165.246494 
L 249.152704 164.182588 
L 249.309981 164.182588 
L 249.309981 163.827953 
L 249.631049 163.827953 
L 249.631049 163.473318 
L 249.883879 163.473318 
L 249.883879 163.118682 
L 250.089952 163.118682 
L 250.089952 162.764047 
L 250.201166 162.764047 
L 250.201166 162.409412 
L 250.315072 162.409412 
L 250.315072 162.054776 
L 250.444107 162.054776 
L 250.53819 160.990871 
L 250.809184 160.990871 
L 250.809184 160.636235 
L 251.102002 160.636235 
L 251.102002 160.2816 
L 251.492757 160.2816 
L 251.548209 159.572329 
L 252.45919 159.572329 
L 252.45919 159.217694 
L 252.571876 159.217694 
L 252.571876 158.863059 
L 252.810595 158.863059 
L 252.810595 158.508424 
L 253.249058 158.508424 
L 253.249058 158.153788 
L 253.693859 158.153788 
L 253.693859 157.799153 
L 253.860768 157.799153 
L 253.873947 157.089882 
L 254.102592 157.089882 
L 254.102592 156.735247 
L 254.269399 156.735247 
L 254.269399 156.380612 
L 254.894764 156.380612 
L 254.894764 156.025976 
L 255.241865 156.025976 
L 255.241865 155.671341 
L 255.407279 155.671341 
L 255.407279 155.316706 
L 255.549895 155.316706 
L 255.586518 154.607435 
L 255.683497 154.607435 
L 255.683497 154.2528 
L 256.655697 154.2528 
L 256.655697 153.898165 
L 256.894041 153.898165 
L 256.894041 153.543529 
L 257.164659 153.543529 
L 257.164659 153.188894 
L 257.349529 153.188894 
L 257.349529 152.834259 
L 257.625874 152.834259 
L 257.625874 152.479624 
L 257.863416 152.479624 
L 257.863416 152.124988 
L 258.101622 152.124988 
L 258.181033 151.415718 
L 258.228608 151.415718 
L 258.292437 150.706447 
L 258.356225 150.706447 
L 258.356225 150.351812 
L 258.865766 150.351812 
L 258.865766 149.997176 
L 259.044481 149.997176 
L 259.064654 149.287906 
L 259.309037 149.287906 
L 259.309037 148.933271 
L 259.932545 148.933271 
L 259.977816 147.869365 
L 260.154089 147.869365 
L 260.154089 147.514729 
L 260.472782 147.514729 
L 260.503936 146.805459 
L 260.786166 146.805459 
L 260.786166 146.450824 
L 260.930426 146.450824 
L 260.930426 146.096188 
L 261.535146 146.096188 
L 261.535146 145.741553 
L 261.905064 145.741553 
L 261.987016 145.032282 
L 262.134522 145.032282 
L 262.173515 144.323012 
L 262.314271 144.323012 
L 262.314271 143.968376 
L 262.911005 143.968376 
L 262.911005 143.613741 
L 263.123169 143.613741 
L 263.123169 143.259106 
L 263.656375 143.259106 
L 263.742788 142.1952 
L 263.963573 142.1952 
L 263.963573 141.840565 
L 264.094425 141.840565 
L 264.128666 141.131294 
L 264.261374 141.131294 
L 264.340869 140.422024 
L 264.617175 140.422024 
L 264.654472 139.712753 
L 265.040808 139.712753 
L 265.111663 139.003482 
L 265.200752 139.003482 
L 265.200752 138.648847 
L 265.371547 138.648847 
L 265.371547 138.294212 
L 265.714042 138.294212 
L 265.815944 137.230306 
L 265.970272 137.230306 
L 265.996152 136.521035 
L 266.510421 136.521035 
L 266.569535 135.457129 
L 266.64975 135.457129 
L 266.64975 135.102494 
L 266.887531 135.102494 
L 266.887531 134.747859 
L 267.068239 134.747859 
L 267.120319 133.683953 
L 267.389159 133.683953 
L 267.407499 132.620047 
L 267.521776 132.620047 
L 267.521776 132.265412 
L 267.640689 132.265412 
L 267.652667 131.556141 
L 268.420467 131.556141 
L 268.519015 130.492235 
L 268.550803 130.492235 
L 268.550803 130.1376 
L 268.710199 130.1376 
L 268.800788 129.073694 
L 268.990086 129.073694 
L 269.016684 128.364424 
L 269.117779 128.364424 
L 269.224502 127.655153 
L 269.388895 127.655153 
L 269.388895 127.300518 
L 269.761831 127.300518 
L 269.81518 126.591247 
L 269.952157 126.591247 
L 269.987868 125.527341 
L 270.095763 125.527341 
L 270.095763 125.172706 
L 270.243198 125.172706 
L 270.313643 124.463435 
L 270.569814 124.463435 
L 270.634826 123.754165 
L 270.973826 123.754165 
L 270.973826 123.399529 
L 271.085363 123.399529 
L 271.085363 123.044894 
L 271.300644 123.044894 
L 271.407695 121.626353 
L 271.539867 121.626353 
L 271.623994 120.917082 
L 271.869248 120.917082 
L 271.90286 120.207812 
L 272.05205 120.207812 
L 272.05205 119.853176 
L 272.336018 119.853176 
L 272.371292 119.143906 
L 272.610161 119.143906 
L 272.622751 118.434635 
L 272.74644 118.434635 
L 272.834524 117.370729 
L 272.893865 117.370729 
L 272.940207 116.661459 
L 273.43224 116.661459 
L 273.43224 116.306824 
L 273.686454 116.306824 
L 273.747136 115.597553 
L 273.897876 115.597553 
L 274.000956 114.888282 
L 274.239138 114.888282 
L 274.348946 112.760471 
L 274.416114 112.760471 
L 274.497917 111.696565 
L 274.541177 111.696565 
L 274.613729 108.859482 
L 274.710813 108.859482 
L 274.799574 107.440941 
L 274.859823 107.440941 
L 274.920602 106.731671 
L 274.97978 106.731671 
L 275.04215 105.667765 
L 275.102166 105.667765 
L 275.179369 104.603859 
L 275.247622 104.603859 
L 275.349487 102.830682 
L 275.646108 102.830682 
L 275.660786 102.121412 
L 275.873882 102.121412 
L 275.873882 101.766776 
L 276.078268 101.766776 
L 276.107218 100.348235 
L 276.207112 100.348235 
L 276.25622 99.284329 
L 276.435274 99.284329 
L 276.435274 98.929694 
L 276.618423 98.929694 
L 276.692292 97.511153 
L 276.795125 97.511153 
L 276.795125 97.156518 
L 276.953897 97.156518 
L 276.953897 96.801882 
L 277.193463 96.801882 
L 277.279569 95.383341 
L 277.375506 95.383341 
L 277.468524 94.674071 
L 277.489388 94.674071 
L 277.582976 93.610165 
L 277.627936 93.610165 
L 277.655474 92.546259 
L 277.784456 92.546259 
L 277.879465 91.127718 
L 278.079891 91.127718 
L 278.079891 90.773082 
L 278.207311 90.773082 
L 278.307343 89.709176 
L 278.3716 89.709176 
L 278.409099 88.999906 
L 278.572864 88.999906 
L 278.622474 87.581365 
L 278.744749 87.581365 
L 278.838565 86.517459 
L 278.871365 86.517459 
L 278.871365 86.162824 
L 279.01416 86.162824 
L 279.01416 85.808188 
L 279.35771 85.808188 
L 279.35771 85.098918 
L 279.676206 85.098918 
L 279.737808 84.035012 
L 279.94377 84.035012 
L 279.94377 83.680376 
L 280.425014 83.680376 
L 280.425014 83.325741 
L 280.774308 83.325741 
L 280.774308 82.971106 
L 280.921453 82.971106 
L 280.921453 82.616471 
L 281.076452 82.616471 
L 281.137748 81.9072 
L 281.584674 81.9072 
L 281.687266 81.197929 
L 281.937141 81.197929 
L 281.937141 80.488659 
L 282.141907 80.488659 
L 282.141907 80.134024 
L 282.413604 80.134024 
L 282.413604 79.424753 
L 282.698564 79.424753 
L 282.698564 79.070118 
L 282.903626 79.070118 
L 282.903626 78.715482 
L 283.036488 78.715482 
L 283.036488 78.360847 
L 283.323412 78.360847 
L 283.323412 78.006212 
L 283.472917 78.006212 
L 283.556232 77.296941 
L 283.786206 77.296941 
L 283.82596 76.587671 
L 284.126178 76.587671 
L 284.229907 75.169129 
L 284.558385 75.169129 
L 284.612059 74.105224 
L 284.800359 74.105224 
L 284.901871 73.041318 
L 285.237422 73.041318 
L 285.237422 72.686682 
L 285.351362 72.686682 
L 285.382949 71.977412 
L 285.733257 71.977412 
L 285.733257 71.622776 
L 286.112919 71.622776 
L 286.112919 70.913506 
L 286.317671 70.913506 
L 286.317671 70.558871 
L 286.454577 70.558871 
L 286.556392 69.140329 
L 286.585028 69.140329 
L 286.607424 68.076424 
L 287.076626 68.076424 
L 287.127856 67.367153 
L 287.335615 67.367153 
L 287.410158 66.657882 
L 287.703139 66.657882 
L 287.723548 65.948612 
L 287.963266 65.948612 
L 287.981282 65.239341 
L 288.164338 65.239341 
L 288.164338 64.884706 
L 288.570283 64.884706 
L 288.614115 64.175435 
L 288.695962 64.175435 
L 288.806015 63.466165 
L 288.882868 63.466165 
L 288.944725 62.402259 
L 289.286685 62.402259 
L 289.394033 60.983718 
L 289.52814 60.983718 
L 289.63791 58.855906 
L 289.690544 58.855906 
L 289.690544 58.501271 
L 289.968501 58.501271 
L 289.968501 58.146635 
L 290.398121 58.146635 
L 290.426134 57.437365 
L 292.050498 57.437365 
L 292.050498 57.082729 
L 292.261157 57.082729 
L 292.298911 56.373459 
L 292.632164 56.373459 
L 292.712235 54.954918 
L 292.909079 54.954918 
L 292.909079 54.245647 
L 293.191057 54.245647 
L 293.274965 52.827106 
L 293.332427 52.827106 
L 293.378208 52.117835 
L 293.498271 52.117835 
L 293.498271 51.408565 
L 293.620799 51.408565 
L 293.620799 51.053929 
L 293.734661 51.053929 
L 293.834585 50.344659 
L 294.114988 50.344659 
L 294.114988 49.990024 
L 294.260061 49.990024 
L 294.335002 48.926118 
L 294.424859 48.926118 
L 294.424859 48.571482 
L 295.626233 48.571482 
L 295.626233 48.216847 
L 295.903121 48.216847 
L 295.903121 47.862212 
L 296.096827 47.862212 
L 296.1409 46.798306 
L 296.235878 46.798306 
L 296.296385 45.7344 
L 296.347531 45.7344 
L 296.361962 45.025129 
L 297.053669 45.025129 
L 297.053669 44.670494 
L 298.280796 44.670494 
L 298.280796 44.315859 
L 298.776644 44.315859 
L 298.823155 43.606588 
L 299.255214 43.606588 
L 299.255214 43.251953 
L 299.42957 43.251953 
L 299.42957 42.542682 
L 299.703634 42.542682 
L 299.703634 42.188047 
L 300.148046 42.188047 
L 300.148046 41.833412 
L 300.569201 41.833412 
L 300.569201 41.478776 
L 300.78971 41.478776 
L 300.78971 41.124141 
L 300.905055 41.124141 
L 300.981096 39.7056 
L 301.053208 39.7056 
L 301.12164 38.641694 
L 301.20277 38.641694 
L 301.20277 38.287059 
L 301.319208 38.287059 
L 301.344531 37.577788 
L 301.455758 37.577788 
L 301.458519 36.868518 
L 301.616265 36.868518 
L 301.616265 36.513882 
L 303.279294 36.513882 
L 303.314115 35.449976 
L 303.648191 35.449976 
L 303.648191 35.095341 
L 305.183721 35.095341 
L 305.201314 34.386071 
L 305.368483 34.386071 
L 305.419213 33.6768 
L 306.55145 33.6768 
L 306.55145 33.322165 
L 307.141839 33.322165 
L 307.221618 32.612894 
L 307.433555 32.612894 
L 307.433555 32.258259 
L 307.629689 32.258259 
L 307.629689 31.903624 
L 308.318072 31.903624 
L 308.318072 31.548988 
L 308.494198 31.548988 
L 308.494198 31.194353 
L 308.656792 31.194353 
L 308.656792 30.839718 
L 311.398337 30.839718 
L 311.398337 30.485082 
L 312.968958 30.485082 
L 313.023955 29.775812 
L 313.790944 29.775812 
L 313.798335 29.066541 
L 313.943566 29.066541 
L 313.943566 28.711906 
L 315.242155 28.711906 
L 315.242155 28.357271 
L 317.272845 28.357271 
L 317.272845 28.002635 
L 324.063426 28.002635 
L 324.063426 27.648 
L 360.8064 27.648 
L 360.8064 27.648 
" style="fill: none; stroke: #ff7500; stroke-width: 1.5; stroke-linecap: square"/>
   </g>
   <g id="line2d_46">
    <defs>
     <path id="m9c19777c4d" d="M 0 -6 
L -1.347084 -1.854102 
L -5.706339 -1.854102 
L -2.179628 0.708204 
L -3.526712 4.854102 
L -0 2.291796 
L 3.526712 4.854102 
L 2.179628 0.708204 
L 5.706339 -1.854102 
L 1.347084 -1.854102 
z
" style="stroke: #ff7500; stroke-width: 1.5; stroke-linejoin: bevel"/>
    </defs>
    <g>
     <use xlink:href="#m9c19777c4d" x="201.107918" y="231.563294" style="fill-opacity: 0; stroke: #ff7500; stroke-width: 1.5; stroke-linejoin: bevel"/>
     <use xlink:href="#m9c19777c4d" x="276.25622" y="99.284329" style="fill-opacity: 0; stroke: #ff7500; stroke-width: 1.5; stroke-linejoin: bevel"/>
     <use xlink:href="#m9c19777c4d" x="315.242155" y="28.357271" style="fill-opacity: 0; stroke: #ff7500; stroke-width: 1.5; stroke-linejoin: bevel"/>
     <use xlink:href="#m9c19777c4d" x="324.063426" y="27.648" style="fill-opacity: 0; stroke: #ff7500; stroke-width: 1.5; stroke-linejoin: bevel"/>
     <use xlink:href="#m9c19777c4d" x="360.8064" y="27.648" style="fill-opacity: 0; stroke: #ff7500; stroke-width: 1.5; stroke-linejoin: bevel"/>
    </g>
   </g>
   <g id="line2d_47">
    <path style="fill: none; stroke: #ff7500; stroke-width: 1.5; stroke-linecap: square"/>
    <g/>
   </g>
   <g id="line2d_48">
    <path d="M 274.176 114.888282 
" clip-path="url(#p46bb784df1)" style="fill: none; stroke: #ff7500; stroke-width: 1.5; stroke-linecap: square"/>
    <defs>
     <path id="m6a51c085cc" d="M -12 12 
L 12 -12 
M -12 -12 
L 12 12 
" style="stroke: #ff7500"/>
    </defs>
    <g clip-path="url(#p46bb784df1)">
     <use xlink:href="#m6a51c085cc" x="274.176" y="114.888282" style="fill: #ff7500; stroke: #ff7500"/>
    </g>
   </g>
   <g id="line2d_49">
    <path d="M 360.8064 240.429176 
L 380.514816 293.51808 
" style="fill: none; stroke: #ff00ff; stroke-width: 1.5; stroke-linecap: square"/>
    <g>
     <use xlink:href="#mf9fccd2fc8" x="360.8064" y="240.429176" style="fill-opacity: 0; stroke: #ff00ff; stroke-width: 1.5; stroke-linejoin: miter"/>
     <use xlink:href="#mf9fccd2fc8" x="380.514816" y="293.51808" style="fill-opacity: 0; stroke: #ff00ff; stroke-width: 1.5; stroke-linejoin: miter"/>
    </g>
   </g>
   <g id="line2d_50">
    <path d="M 360.8064 27.648 
L 380.514816 206.70336 
" style="fill: none; stroke: #ff7500; stroke-width: 1.5; stroke-linecap: square"/>
    <g>
     <use xlink:href="#m9c19777c4d" x="360.8064" y="27.648" style="fill-opacity: 0; stroke: #ff7500; stroke-width: 1.5; stroke-linejoin: bevel"/>
     <use xlink:href="#m9c19777c4d" x="380.514816" y="206.70336" style="fill-opacity: 0; stroke: #ff7500; stroke-width: 1.5; stroke-linejoin: bevel"/>
    </g>
   </g>
   <g id="line2d_51">
    <path d="M 360.8064 27.648 
L 380.514816 119.88864 
" style="fill: none; stroke: #000080; stroke-width: 1.5; stroke-linecap: square"/>
    <g>
     <use xlink:href="#m3371299cad" x="360.8064" y="27.648" style="fill-opacity: 0; stroke: #000080; stroke-width: 1.5"/>
     <use xlink:href="#m3371299cad" x="380.514816" y="119.88864" style="fill-opacity: 0; stroke: #000080; stroke-width: 1.5"/>
    </g>
   </g>
   <g id="line2d_52">
    <path d="M 360.8064 298.944 
L 360.8064 27.648 
" style="fill: none; stroke: #000000; stroke-width: 1.5; stroke-linecap: square"/>
   </g>
   <g id="patch_3">
    <path d="M 57.6 298.944 
L 360.8064 298.944 
" style="fill: none; stroke: #000000; stroke-width: 0.8; stroke-linejoin: miter; stroke-linecap: square"/>
   </g>
   <g id="patch_4">
    <path d="M 57.6 27.648 
L 360.8064 27.648 
" style="fill: none; stroke: #000000; stroke-width: 0.8; stroke-linejoin: miter; stroke-linecap: square"/>
   </g>
   <g id="text_13">
    <!-- GA -->
    <g transform="translate(386.578944 297.381205)scale(0.14 -0.14)">
     <defs>
      <path id="DejaVuSans-47" d="M 3809 666 
L 3809 1919 
L 2778 1919 
L 2778 2438 
L 4434 2438 
L 4434 434 
Q 4069 175 3628 42 
Q 3188 -91 2688 -91 
Q 1594 -91 976 548 
Q 359 1188 359 2328 
Q 359 3472 976 4111 
Q 1594 4750 2688 4750 
Q 3144 4750 3555 4637 
Q 3966 4525 4313 4306 
L 4313 3634 
Q 3963 3931 3569 4081 
Q 3175 4231 2741 4231 
Q 1884 4231 1454 3753 
Q 1025 3275 1025 2328 
Q 1025 1384 1454 906 
Q 1884 428 2741 428 
Q 3075 428 3337 486 
Q 3600 544 3809 666 
z
" transform="scale(0.015625)"/>
      <path id="DejaVuSans-41" d="M 2188 4044 
L 1331 1722 
L 3047 1722 
L 2188 4044 
z
M 1831 4666 
L 2547 4666 
L 4325 0 
L 3669 0 
L 3244 1197 
L 1141 1197 
L 716 0 
L 50 0 
L 1831 4666 
z
" transform="scale(0.015625)"/>
     </defs>
     <use xlink:href="#DejaVuSans-47"/>
     <use xlink:href="#DejaVuSans-41" x="77.490234"/>
    </g>
   </g>
   <g id="text_14">
    <!-- PSO -->
    <g transform="translate(386.578944 210.566485)scale(0.14 -0.14)">
     <defs>
      <path id="DejaVuSans-50" d="M 1259 4147 
L 1259 2394 
L 2053 2394 
Q 2494 2394 2734 2622 
Q 2975 2850 2975 3272 
Q 2975 3691 2734 3919 
Q 2494 4147 2053 4147 
L 1259 4147 
z
M 628 4666 
L 2053 4666 
Q 2838 4666 3239 4311 
Q 3641 3956 3641 3272 
Q 3641 2581 3239 2228 
Q 2838 1875 2053 1875 
L 1259 1875 
L 1259 0 
L 628 0 
L 628 4666 
z
" transform="scale(0.015625)"/>
      <path id="DejaVuSans-53" d="M 3425 4513 
L 3425 3897 
Q 3066 4069 2747 4153 
Q 2428 4238 2131 4238 
Q 1616 4238 1336 4038 
Q 1056 3838 1056 3469 
Q 1056 3159 1242 3001 
Q 1428 2844 1947 2747 
L 2328 2669 
Q 3034 2534 3370 2195 
Q 3706 1856 3706 1288 
Q 3706 609 3251 259 
Q 2797 -91 1919 -91 
Q 1588 -91 1214 -16 
Q 841 59 441 206 
L 441 856 
Q 825 641 1194 531 
Q 1563 422 1919 422 
Q 2459 422 2753 634 
Q 3047 847 3047 1241 
Q 3047 1584 2836 1778 
Q 2625 1972 2144 2069 
L 1759 2144 
Q 1053 2284 737 2584 
Q 422 2884 422 3419 
Q 422 4038 858 4394 
Q 1294 4750 2059 4750 
Q 2388 4750 2728 4690 
Q 3069 4631 3425 4513 
z
" transform="scale(0.015625)"/>
      <path id="DejaVuSans-4f" d="M 2522 4238 
Q 1834 4238 1429 3725 
Q 1025 3213 1025 2328 
Q 1025 1447 1429 934 
Q 1834 422 2522 422 
Q 3209 422 3611 934 
Q 4013 1447 4013 2328 
Q 4013 3213 3611 3725 
Q 3209 4238 2522 4238 
z
M 2522 4750 
Q 3503 4750 4090 4092 
Q 4678 3434 4678 2328 
Q 4678 1225 4090 567 
Q 3503 -91 2522 -91 
Q 1538 -91 948 565 
Q 359 1222 359 2328 
Q 359 3434 948 4092 
Q 1538 4750 2522 4750 
z
" transform="scale(0.015625)"/>
     </defs>
     <use xlink:href="#DejaVuSans-50"/>
     <use xlink:href="#DejaVuSans-53" x="60.302734"/>
     <use xlink:href="#DejaVuSans-4f" x="123.779297"/>
    </g>
   </g>
   <g id="text_15">
    <!-- LCGA -->
    <g transform="translate(386.578944 123.751765)scale(0.14 -0.14)">
     <defs>
      <path id="DejaVuSans-4c" d="M 628 4666 
L 1259 4666 
L 1259 531 
L 3531 531 
L 3531 0 
L 628 0 
L 628 4666 
z
" transform="scale(0.015625)"/>
      <path id="DejaVuSans-43" d="M 4122 4306 
L 4122 3641 
Q 3803 3938 3442 4084 
Q 3081 4231 2675 4231 
Q 1875 4231 1450 3742 
Q 1025 3253 1025 2328 
Q 1025 1406 1450 917 
Q 1875 428 2675 428 
Q 3081 428 3442 575 
Q 3803 722 4122 1019 
L 4122 359 
Q 3791 134 3420 21 
Q 3050 -91 2638 -91 
Q 1578 -91 968 557 
Q 359 1206 359 2328 
Q 359 3453 968 4101 
Q 1578 4750 2638 4750 
Q 3056 4750 3426 4639 
Q 3797 4528 4122 4306 
z
" transform="scale(0.015625)"/>
     </defs>
     <use xlink:href="#DejaVuSans-4c"/>
     <use xlink:href="#DejaVuSans-43" x="55.712891"/>
     <use xlink:href="#DejaVuSans-47" x="125.537109"/>
     <use xlink:href="#DejaVuSans-41" x="203.027344"/>
    </g>
   </g>
   <g id="text_16">
    <!-- best 2009 -->
    <g transform="translate(386.578944 36.937045)scale(0.14 -0.14)">
     <defs>
      <path id="DejaVuSans-62" d="M 3116 1747 
Q 3116 2381 2855 2742 
Q 2594 3103 2138 3103 
Q 1681 3103 1420 2742 
Q 1159 2381 1159 1747 
Q 1159 1113 1420 752 
Q 1681 391 2138 391 
Q 2594 391 2855 752 
Q 3116 1113 3116 1747 
z
M 1159 2969 
Q 1341 3281 1617 3432 
Q 1894 3584 2278 3584 
Q 2916 3584 3314 3078 
Q 3713 2572 3713 1747 
Q 3713 922 3314 415 
Q 2916 -91 2278 -91 
Q 1894 -91 1617 61 
Q 1341 213 1159 525 
L 1159 0 
L 581 0 
L 581 4863 
L 1159 4863 
L 1159 2969 
z
" transform="scale(0.015625)"/>
      <path id="DejaVuSans-39" d="M 703 97 
L 703 672 
Q 941 559 1184 500 
Q 1428 441 1663 441 
Q 2288 441 2617 861 
Q 2947 1281 2994 2138 
Q 2813 1869 2534 1725 
Q 2256 1581 1919 1581 
Q 1219 1581 811 2004 
Q 403 2428 403 3163 
Q 403 3881 828 4315 
Q 1253 4750 1959 4750 
Q 2769 4750 3195 4129 
Q 3622 3509 3622 2328 
Q 3622 1225 3098 567 
Q 2575 -91 1691 -91 
Q 1453 -91 1209 -44 
Q 966 3 703 97 
z
M 1959 2075 
Q 2384 2075 2632 2365 
Q 2881 2656 2881 3163 
Q 2881 3666 2632 3958 
Q 2384 4250 1959 4250 
Q 1534 4250 1286 3958 
Q 1038 3666 1038 3163 
Q 1038 2656 1286 2365 
Q 1534 2075 1959 2075 
z
" transform="scale(0.015625)"/>
     </defs>
     <use xlink:href="#DejaVuSans-62"/>
     <use xlink:href="#DejaVuSans-65" x="63.476562"/>
     <use xlink:href="#DejaVuSans-73" x="125"/>
     <use xlink:href="#DejaVuSans-74" x="177.099609"/>
     <use xlink:href="#DejaVuSans-20" x="216.308594"/>
     <use xlink:href="#DejaVuSans-32" x="248.095703"/>
     <use xlink:href="#DejaVuSans-30" x="311.71875"/>
     <use xlink:href="#DejaVuSans-30" x="375.341797"/>
     <use xlink:href="#DejaVuSans-39" x="438.964844"/>
    </g>
   </g>
   <g id="text_17">
    <!-- bbob f9, 5-D -->
    <g transform="translate(60.632064 38.111366)scale(0.102 -0.102)">
     <defs>
      <path id="DejaVuSans-35" d="M 691 4666 
L 3169 4666 
L 3169 4134 
L 1269 4134 
L 1269 2991 
Q 1406 3038 1543 3061 
Q 1681 3084 1819 3084 
Q 2600 3084 3056 2656 
Q 3513 2228 3513 1497 
Q 3513 744 3044 326 
Q 2575 -91 1722 -91 
Q 1428 -91 1123 -41 
Q 819 9 494 109 
L 494 744 
Q 775 591 1075 516 
Q 1375 441 1709 441 
Q 2250 441 2565 725 
Q 2881 1009 2881 1497 
Q 2881 1984 2565 2268 
Q 2250 2553 1709 2553 
Q 1456 2553 1204 2497 
Q 953 2441 691 2322 
L 691 4666 
z
" transform="scale(0.015625)"/>
      <path id="DejaVuSans-44" d="M 1259 4147 
L 1259 519 
L 2022 519 
Q 2988 519 3436 956 
Q 3884 1394 3884 2338 
Q 3884 3275 3436 3711 
Q 2988 4147 2022 4147 
L 1259 4147 
z
M 628 4666 
L 1925 4666 
Q 3281 4666 3915 4102 
Q 4550 3538 4550 2338 
Q 4550 1131 3912 565 
Q 3275 0 1925 0 
L 628 0 
L 628 4666 
z
" transform="scale(0.015625)"/>
     </defs>
     <use xlink:href="#DejaVuSans-62"/>
     <use xlink:href="#DejaVuSans-62" x="63.476562"/>
     <use xlink:href="#DejaVuSans-6f" x="126.953125"/>
     <use xlink:href="#DejaVuSans-62" x="188.134766"/>
     <use xlink:href="#DejaVuSans-20" x="251.611328"/>
     <use xlink:href="#DejaVuSans-66" x="283.398438"/>
     <use xlink:href="#DejaVuSans-39" x="318.603516"/>
     <use xlink:href="#DejaVuSans-2c" x="382.226562"/>
     <use xlink:href="#DejaVuSans-20" x="414.013672"/>
     <use xlink:href="#DejaVuSans-35" x="445.800781"/>
     <use xlink:href="#DejaVuSans-2d" x="509.423828"/>
     <use xlink:href="#DejaVuSans-44" x="545.507812"/>
    </g>
    <!-- 51 targets: 100..1e-08 -->
    <g transform="translate(60.632064 49.533135)scale(0.102 -0.102)">
     <defs>
      <path id="DejaVuSans-3a" d="M 750 794 
L 1409 794 
L 1409 0 
L 750 0 
L 750 794 
z
M 750 3309 
L 1409 3309 
L 1409 2516 
L 750 2516 
L 750 3309 
z
" transform="scale(0.015625)"/>
     </defs>
     <use xlink:href="#DejaVuSans-35"/>
     <use xlink:href="#DejaVuSans-31" x="63.623047"/>
     <use xlink:href="#DejaVuSans-20" x="127.246094"/>
     <use xlink:href="#DejaVuSans-74" x="159.033203"/>
     <use xlink:href="#DejaVuSans-61" x="198.242188"/>
     <use xlink:href="#DejaVuSans-72" x="259.521484"/>
     <use xlink:href="#DejaVuSans-67" x="298.884766"/>
     <use xlink:href="#DejaVuSans-65" x="362.361328"/>
     <use xlink:href="#DejaVuSans-74" x="423.884766"/>
     <use xlink:href="#DejaVuSans-73" x="463.09375"/>
     <use xlink:href="#DejaVuSans-3a" x="515.193359"/>
     <use xlink:href="#DejaVuSans-20" x="548.884766"/>
     <use xlink:href="#DejaVuSans-31" x="580.671875"/>
     <use xlink:href="#DejaVuSans-30" x="644.294922"/>
     <use xlink:href="#DejaVuSans-30" x="707.917969"/>
     <use xlink:href="#DejaVuSans-2e" x="771.541016"/>
     <use xlink:href="#DejaVuSans-2e" x="803.328125"/>
     <use xlink:href="#DejaVuSans-31" x="835.115234"/>
     <use xlink:href="#DejaVuSans-65" x="898.738281"/>
     <use xlink:href="#DejaVuSans-2d" x="960.261719"/>
     <use xlink:href="#DejaVuSans-30" x="996.345703"/>
     <use xlink:href="#DejaVuSans-38" x="1059.96875"/>
    </g>
    <!-- 15 instances -->
    <g transform="translate(60.632064 60.954904)scale(0.102 -0.102)">
     <use xlink:href="#DejaVuSans-31"/>
     <use xlink:href="#DejaVuSans-35" x="63.623047"/>
     <use xlink:href="#DejaVuSans-20" x="127.246094"/>
     <use xlink:href="#DejaVuSans-69" x="159.033203"/>
     <use xlink:href="#DejaVuSans-6e" x="186.816406"/>
     <use xlink:href="#DejaVuSans-73" x="250.195312"/>
     <use xlink:href="#DejaVuSans-74" x="302.294922"/>
     <use xlink:href="#DejaVuSans-61" x="341.503906"/>
     <use xlink:href="#DejaVuSans-6e" x="402.783203"/>
     <use xlink:href="#DejaVuSans-63" x="466.162109"/>
     <use xlink:href="#DejaVuSans-65" x="521.142578"/>
     <use xlink:href="#DejaVuSans-73" x="582.666016"/>
    </g>
   </g>
   <g id="text_18">
    <!-- v2.6 -->
    <g style="fill: #808080" transform="translate(198.292262 294.151352)scale(0.1 -0.1)">
     <use xlink:href="#DejaVuSans-76"/>
     <use xlink:href="#DejaVuSans-32" x="59.179688"/>
     <use xlink:href="#DejaVuSans-2e" x="122.802734"/>
     <use xlink:href="#DejaVuSans-36" x="154.589844"/>
    </g>
   </g>
   <g id="text_19">
    <!-- 9 Rosenbrock rotated -->
    <g transform="translate(102.050075 21.648)scale(0.2 -0.2)">
     <defs>
      <path id="DejaVuSans-52" d="M 2841 2188 
Q 3044 2119 3236 1894 
Q 3428 1669 3622 1275 
L 4263 0 
L 3584 0 
L 2988 1197 
Q 2756 1666 2539 1819 
Q 2322 1972 1947 1972 
L 1259 1972 
L 1259 0 
L 628 0 
L 628 4666 
L 2053 4666 
Q 2853 4666 3247 4331 
Q 3641 3997 3641 3322 
Q 3641 2881 3436 2590 
Q 3231 2300 2841 2188 
z
M 1259 4147 
L 1259 2491 
L 2053 2491 
Q 2509 2491 2742 2702 
Q 2975 2913 2975 3322 
Q 2975 3731 2742 3939 
Q 2509 4147 2053 4147 
L 1259 4147 
z
" transform="scale(0.015625)"/>
      <path id="DejaVuSans-6b" d="M 581 4863 
L 1159 4863 
L 1159 1991 
L 2875 3500 
L 3609 3500 
L 1753 1863 
L 3688 0 
L 2938 0 
L 1159 1709 
L 1159 0 
L 581 0 
L 581 4863 
z
" transform="scale(0.015625)"/>
     </defs>
     <use xlink:href="#DejaVuSans-39"/>
     <use xlink:href="#DejaVuSans-20" x="63.623047"/>
     <use xlink:href="#DejaVuSans-52" x="95.410156"/>
     <use xlink:href="#DejaVuSans-6f" x="160.392578"/>
     <use xlink:href="#DejaVuSans-73" x="221.574219"/>
     <use xlink:href="#DejaVuSans-65" x="273.673828"/>
     <use xlink:href="#DejaVuSans-6e" x="335.197266"/>
     <use xlink:href="#DejaVuSans-62" x="398.576172"/>
     <use xlink:href="#DejaVuSans-72" x="462.052734"/>
     <use xlink:href="#DejaVuSans-6f" x="500.916016"/>
     <use xlink:href="#DejaVuSans-63" x="562.097656"/>
     <use xlink:href="#DejaVuSans-6b" x="617.078125"/>
     <use xlink:href="#DejaVuSans-20" x="674.988281"/>
     <use xlink:href="#DejaVuSans-72" x="706.775391"/>
     <use xlink:href="#DejaVuSans-6f" x="745.638672"/>
     <use xlink:href="#DejaVuSans-74" x="806.820312"/>
     <use xlink:href="#DejaVuSans-61" x="846.029297"/>
     <use xlink:href="#DejaVuSans-74" x="907.308594"/>
     <use xlink:href="#DejaVuSans-65" x="946.517578"/>
     <use xlink:href="#DejaVuSans-64" x="1008.041016"/>
    </g>
   </g>
  </g>
 </g>
 <defs>
  <clipPath id="p46bb784df1">
   <rect x="57.6" y="27.648" width="303.2064" height="271.296"/>
  </clipPath>
 </defs>
</svg>
