<?xml version="1.0" encoding="utf-8" standalone="no"?>
<!DOCTYPE svg PUBLIC "-//W3C//DTD SVG 1.1//EN"
  "http://www.w3.org/Graphics/SVG/1.1/DTD/svg11.dtd">
<svg xmlns:xlink="http://www.w3.org/1999/xlink" width="460.8pt" height="345.6pt" viewBox="0 0 460.8 345.6" xmlns="http://www.w3.org/2000/svg" version="1.1">
 <metadata>
  <rdf:RDF xmlns:dc="http://purl.org/dc/elements/1.1/" xmlns:cc="http://creativecommons.org/ns#" xmlns:rdf="http://www.w3.org/1999/02/22-rdf-syntax-ns#">
   <cc:Work>
    <dc:type rdf:resource="http://purl.org/dc/dcmitype/StillImage"/>
    <dc:date>2024-05-29T08:09:10.985628</dc:date>
    <dc:format>image/svg+xml</dc:format>
    <dc:creator>
     <cc:Agent>
      <dc:title>Matplotlib v3.5.1, https://matplotlib.org/</dc:title>
     </cc:Agent>
    </dc:creator>
   </cc:Work>
  </rdf:RDF>
 </metadata>
 <defs>
  <style type="text/css">*{stroke-linejoin: round; stroke-linecap: butt}</style>
 </defs>
 <g id="figure_1">
  <g id="patch_1">
   <path d="M 0 345.6 
L 460.8 345.6 
L 460.8 0 
L 0 0 
z
" style="fill: #ffffff"/>
  </g>
  <g id="axes_1">
   <g id="patch_2">
    <path d="M 57.6 298.944 
L 360.8064 298.944 
L 360.8064 27.648 
L 57.6 27.648 
z
" style="fill: #ffffff"/>
   </g>
   <g id="line2d_1">
    <path d="M 14.2848 298.944 
L 14.2848 293.624471 
L 40.363149 293.624471 
L 40.363149 288.304941 
L 78.266603 288.304941 
L 78.266603 282.985412 
L 86.307488 282.985412 
L 86.307488 277.665882 
L 90.007914 277.665882 
L 90.007914 272.346353 
L 105.850679 272.346353 
L 105.850679 267.026824 
L 135.805631 267.026824 
L 135.805631 261.707294 
L 139.289277 261.707294 
L 139.289277 256.387765 
L 141.371301 256.387765 
L 141.371301 251.068235 
L 151.375128 251.068235 
L 151.375128 245.748706 
L 159.367841 245.748706 
L 159.367841 240.429176 
L 171.808687 240.429176 
L 171.808687 235.109647 
L 171.916937 235.109647 
L 171.916937 229.790118 
L 171.947136 229.790118 
L 171.947136 224.470588 
L 171.977286 224.470588 
L 171.977286 219.151059 
L 172.067447 219.151059 
L 172.067447 213.831529 
L 172.118775 213.831529 
L 172.118775 208.512 
L 172.186995 208.512 
L 172.186995 203.192471 
L 172.229507 203.192471 
L 172.229507 197.872941 
L 172.301557 197.872941 
L 172.301557 192.553412 
L 172.470008 192.553412 
L 172.470008 187.233882 
L 172.524431 187.233882 
L 172.524431 181.914353 
L 172.587032 181.914353 
L 172.587032 176.594824 
L 172.868238 176.594824 
L 172.868238 171.275294 
L 172.958324 171.275294 
L 172.958324 165.955765 
L 173.011355 165.955765 
L 173.011355 160.636235 
L 173.346455 160.636235 
L 173.346455 155.316706 
L 173.442249 155.316706 
L 173.442249 149.997176 
L 173.565266 149.997176 
L 173.565266 144.677647 
L 173.75417 144.677647 
L 173.75417 139.358118 
L 173.956698 139.358118 
L 173.956698 134.038588 
L 174.11486 134.038588 
L 174.11486 128.719059 
L 174.20683 128.719059 
L 174.20683 123.399529 
L 174.472534 123.399529 
L 174.472534 118.08 
L 174.689881 118.08 
L 174.689881 112.760471 
L 174.782796 112.760471 
L 174.782796 107.440941 
L 175.135386 107.440941 
L 175.135386 102.121412 
L 175.273147 102.121412 
L 175.273147 96.801882 
L 175.395557 96.801882 
L 175.395557 91.482353 
L 176.964669 91.482353 
L 176.964669 86.162824 
L 177.220434 86.162824 
L 177.220434 80.843294 
L 177.308164 80.843294 
L 177.308164 75.523765 
L 182.518663 75.523765 
L 182.518663 70.204235 
L 182.604477 70.204235 
L 182.604477 64.884706 
L 189.848033 64.884706 
L 189.848033 59.565176 
L 189.892919 59.565176 
L 189.892919 54.245647 
L 189.934385 54.245647 
L 189.934385 48.926118 
L 194.506724 48.926118 
L 194.506724 43.606588 
L 194.600043 43.606588 
L 194.600043 38.287059 
L 194.652977 38.287059 
L 194.652977 32.967529 
L 198.460108 32.967529 
L 198.460108 27.648 
L 360.8064 27.648 
" style="fill: none; stroke: #f5deb3; stroke-width: 4; stroke-linecap: square"/>
   </g>
   <g id="line2d_2">
    <defs>
     <path id="m37a3172662" d="M 0 7.778175 
L 7.778175 0 
L 0 -7.778175 
L -7.778175 0 
z
" style="stroke: #f5deb3; stroke-width: 1.5; stroke-linejoin: miter"/>
    </defs>
    <g>
     <use xlink:href="#m37a3172662" x="105.850679" y="272.346353" style="fill: #f5deb3; stroke: #f5deb3; stroke-width: 1.5; stroke-linejoin: miter"/>
     <use xlink:href="#m37a3172662" x="172.118775" y="213.831529" style="fill: #f5deb3; stroke: #f5deb3; stroke-width: 1.5; stroke-linejoin: miter"/>
     <use xlink:href="#m37a3172662" x="189.934385" y="54.245647" style="fill: #f5deb3; stroke: #f5deb3; stroke-width: 1.5; stroke-linejoin: miter"/>
     <use xlink:href="#m37a3172662" x="198.460108" y="32.967529" style="fill: #f5deb3; stroke: #f5deb3; stroke-width: 1.5; stroke-linejoin: miter"/>
     <use xlink:href="#m37a3172662" x="198.460108" y="27.648" style="fill: #f5deb3; stroke: #f5deb3; stroke-width: 1.5; stroke-linejoin: miter"/>
     <use xlink:href="#m37a3172662" x="360.8064" y="27.648" style="fill: #f5deb3; stroke: #f5deb3; stroke-width: 1.5; stroke-linejoin: miter"/>
    </g>
   </g>
   <g id="line2d_3">
    <path style="fill: none; stroke: #f5deb3; stroke-width: 4; stroke-linecap: square"/>
    <g/>
   </g>
   <g id="line2d_4">
    <path d="M 360.8064 27.648 
L 380.514816 33.07392 
" style="fill: none; stroke: #f5deb3; stroke-width: 4; stroke-linecap: square"/>
    <g>
     <use xlink:href="#m37a3172662" x="360.8064" y="27.648" style="fill: #f5deb3; stroke: #f5deb3; stroke-width: 1.5; stroke-linejoin: miter"/>
     <use xlink:href="#m37a3172662" x="380.514816" y="33.07392" style="fill: #f5deb3; stroke: #f5deb3; stroke-width: 1.5; stroke-linejoin: miter"/>
    </g>
   </g>
   <g id="matplotlib.axis_1">
    <g id="xtick_1">
     <g id="line2d_5">
      <path d="M 57.6 298.944 
L 57.6 27.648 
" clip-path="url(#p0eb459f49e)" style="fill: none; stroke: #b0b0b0; stroke-width: 0.8; stroke-linecap: square"/>
     </g>
     <g id="line2d_6">
      <defs>
       <path id="m683f0f771d" d="M 0 0 
L 0 3.5 
" style="stroke: #000000; stroke-width: 0.8"/>
      </defs>
      <g>
       <use xlink:href="#m683f0f771d" x="57.6" y="298.944" style="stroke: #000000; stroke-width: 0.8"/>
      </g>
     </g>
     <g id="text_1">
      <!-- 0 -->
      <g transform="translate(52.191875 318.861344)scale(0.17 -0.17)">
       <defs>
        <path id="DejaVuSans-30" d="M 2034 4250 
Q 1547 4250 1301 3770 
Q 1056 3291 1056 2328 
Q 1056 1369 1301 889 
Q 1547 409 2034 409 
Q 2525 409 2770 889 
Q 3016 1369 3016 2328 
Q 3016 3291 2770 3770 
Q 2525 4250 2034 4250 
z
M 2034 4750 
Q 2819 4750 3233 4129 
Q 3647 3509 3647 2328 
Q 3647 1150 3233 529 
Q 2819 -91 2034 -91 
Q 1250 -91 836 529 
Q 422 1150 422 2328 
Q 422 3509 836 4129 
Q 1250 4750 2034 4750 
z
" transform="scale(0.015625)"/>
       </defs>
       <use xlink:href="#DejaVuSans-30"/>
      </g>
     </g>
    </g>
    <g id="xtick_2">
     <g id="line2d_7">
      <path d="M 144.2304 298.944 
L 144.2304 27.648 
" clip-path="url(#p0eb459f49e)" style="fill: none; stroke: #b0b0b0; stroke-width: 0.8; stroke-linecap: square"/>
     </g>
     <g id="line2d_8">
      <g>
       <use xlink:href="#m683f0f771d" x="144.2304" y="298.944" style="stroke: #000000; stroke-width: 0.8"/>
      </g>
     </g>
     <g id="text_2">
      <!-- 2 -->
      <g transform="translate(138.822275 318.861344)scale(0.17 -0.17)">
       <defs>
        <path id="DejaVuSans-32" d="M 1228 531 
L 3431 531 
L 3431 0 
L 469 0 
L 469 531 
Q 828 903 1448 1529 
Q 2069 2156 2228 2338 
Q 2531 2678 2651 2914 
Q 2772 3150 2772 3378 
Q 2772 3750 2511 3984 
Q 2250 4219 1831 4219 
Q 1534 4219 1204 4116 
Q 875 4013 500 3803 
L 500 4441 
Q 881 4594 1212 4672 
Q 1544 4750 1819 4750 
Q 2544 4750 2975 4387 
Q 3406 4025 3406 3419 
Q 3406 3131 3298 2873 
Q 3191 2616 2906 2266 
Q 2828 2175 2409 1742 
Q 1991 1309 1228 531 
z
" transform="scale(0.015625)"/>
       </defs>
       <use xlink:href="#DejaVuSans-32"/>
      </g>
     </g>
    </g>
    <g id="xtick_3">
     <g id="line2d_9">
      <path d="M 230.8608 298.944 
L 230.8608 27.648 
" clip-path="url(#p0eb459f49e)" style="fill: none; stroke: #b0b0b0; stroke-width: 0.8; stroke-linecap: square"/>
     </g>
     <g id="line2d_10">
      <g>
       <use xlink:href="#m683f0f771d" x="230.8608" y="298.944" style="stroke: #000000; stroke-width: 0.8"/>
      </g>
     </g>
     <g id="text_3">
      <!-- 4 -->
      <g transform="translate(225.452675 318.861344)scale(0.17 -0.17)">
       <defs>
        <path id="DejaVuSans-34" d="M 2419 4116 
L 825 1625 
L 2419 1625 
L 2419 4116 
z
M 2253 4666 
L 3047 4666 
L 3047 1625 
L 3713 1625 
L 3713 1100 
L 3047 1100 
L 3047 0 
L 2419 0 
L 2419 1100 
L 313 1100 
L 313 1709 
L 2253 4666 
z
" transform="scale(0.015625)"/>
       </defs>
       <use xlink:href="#DejaVuSans-34"/>
      </g>
     </g>
    </g>
    <g id="xtick_4">
     <g id="line2d_11">
      <path d="M 317.4912 298.944 
L 317.4912 27.648 
" clip-path="url(#p0eb459f49e)" style="fill: none; stroke: #b0b0b0; stroke-width: 0.8; stroke-linecap: square"/>
     </g>
     <g id="line2d_12">
      <g>
       <use xlink:href="#m683f0f771d" x="317.4912" y="298.944" style="stroke: #000000; stroke-width: 0.8"/>
      </g>
     </g>
     <g id="text_4">
      <!-- 6 -->
      <g transform="translate(312.083075 318.861344)scale(0.17 -0.17)">
       <defs>
        <path id="DejaVuSans-36" d="M 2113 2584 
Q 1688 2584 1439 2293 
Q 1191 2003 1191 1497 
Q 1191 994 1439 701 
Q 1688 409 2113 409 
Q 2538 409 2786 701 
Q 3034 994 3034 1497 
Q 3034 2003 2786 2293 
Q 2538 2584 2113 2584 
z
M 3366 4563 
L 3366 3988 
Q 3128 4100 2886 4159 
Q 2644 4219 2406 4219 
Q 1781 4219 1451 3797 
Q 1122 3375 1075 2522 
Q 1259 2794 1537 2939 
Q 1816 3084 2150 3084 
Q 2853 3084 3261 2657 
Q 3669 2231 3669 1497 
Q 3669 778 3244 343 
Q 2819 -91 2113 -91 
Q 1303 -91 875 529 
Q 447 1150 447 2328 
Q 447 3434 972 4092 
Q 1497 4750 2381 4750 
Q 2619 4750 2861 4703 
Q 3103 4656 3366 4563 
z
" transform="scale(0.015625)"/>
       </defs>
       <use xlink:href="#DejaVuSans-36"/>
      </g>
     </g>
    </g>
    <g id="xtick_5">
     <g id="line2d_13">
      <path d="M 100.9152 298.944 
L 100.9152 27.648 
" clip-path="url(#p0eb459f49e)" style="fill: none; stroke: #b0b0b0; stroke-width: 0.8; stroke-linecap: square"/>
     </g>
     <g id="line2d_14">
      <defs>
       <path id="m08c425a199" d="M 0 0 
L 0 2 
" style="stroke: #000000; stroke-width: 0.6"/>
      </defs>
      <g>
       <use xlink:href="#m08c425a199" x="100.9152" y="298.944" style="stroke: #000000; stroke-width: 0.6"/>
      </g>
     </g>
    </g>
    <g id="xtick_6">
     <g id="line2d_15">
      <path d="M 187.5456 298.944 
L 187.5456 27.648 
" clip-path="url(#p0eb459f49e)" style="fill: none; stroke: #b0b0b0; stroke-width: 0.8; stroke-linecap: square"/>
     </g>
     <g id="line2d_16">
      <g>
       <use xlink:href="#m08c425a199" x="187.5456" y="298.944" style="stroke: #000000; stroke-width: 0.6"/>
      </g>
     </g>
    </g>
    <g id="xtick_7">
     <g id="line2d_17">
      <path d="M 274.176 298.944 
L 274.176 27.648 
" clip-path="url(#p0eb459f49e)" style="fill: none; stroke: #b0b0b0; stroke-width: 0.8; stroke-linecap: square"/>
     </g>
     <g id="line2d_18">
      <g>
       <use xlink:href="#m08c425a199" x="274.176" y="298.944" style="stroke: #000000; stroke-width: 0.6"/>
      </g>
     </g>
    </g>
    <g id="xtick_8">
     <g id="line2d_19">
      <path d="M 360.8064 298.944 
L 360.8064 27.648 
" clip-path="url(#p0eb459f49e)" style="fill: none; stroke: #b0b0b0; stroke-width: 0.8; stroke-linecap: square"/>
     </g>
     <g id="line2d_20">
      <g>
       <use xlink:href="#m08c425a199" x="360.8064" y="298.944" style="stroke: #000000; stroke-width: 0.6"/>
      </g>
     </g>
    </g>
    <g id="text_5">
     <!-- log10(# f-evals / dimension) -->
     <g transform="translate(88.823278 339.314156)scale(0.17 -0.17)">
      <defs>
       <path id="DejaVuSans-6c" d="M 603 4863 
L 1178 4863 
L 1178 0 
L 603 0 
L 603 4863 
z
" transform="scale(0.015625)"/>
       <path id="DejaVuSans-6f" d="M 1959 3097 
Q 1497 3097 1228 2736 
Q 959 2375 959 1747 
Q 959 1119 1226 758 
Q 1494 397 1959 397 
Q 2419 397 2687 759 
Q 2956 1122 2956 1747 
Q 2956 2369 2687 2733 
Q 2419 3097 1959 3097 
z
M 1959 3584 
Q 2709 3584 3137 3096 
Q 3566 2609 3566 1747 
Q 3566 888 3137 398 
Q 2709 -91 1959 -91 
Q 1206 -91 779 398 
Q 353 888 353 1747 
Q 353 2609 779 3096 
Q 1206 3584 1959 3584 
z
" transform="scale(0.015625)"/>
       <path id="DejaVuSans-67" d="M 2906 1791 
Q 2906 2416 2648 2759 
Q 2391 3103 1925 3103 
Q 1463 3103 1205 2759 
Q 947 2416 947 1791 
Q 947 1169 1205 825 
Q 1463 481 1925 481 
Q 2391 481 2648 825 
Q 2906 1169 2906 1791 
z
M 3481 434 
Q 3481 -459 3084 -895 
Q 2688 -1331 1869 -1331 
Q 1566 -1331 1297 -1286 
Q 1028 -1241 775 -1147 
L 775 -588 
Q 1028 -725 1275 -790 
Q 1522 -856 1778 -856 
Q 2344 -856 2625 -561 
Q 2906 -266 2906 331 
L 2906 616 
Q 2728 306 2450 153 
Q 2172 0 1784 0 
Q 1141 0 747 490 
Q 353 981 353 1791 
Q 353 2603 747 3093 
Q 1141 3584 1784 3584 
Q 2172 3584 2450 3431 
Q 2728 3278 2906 2969 
L 2906 3500 
L 3481 3500 
L 3481 434 
z
" transform="scale(0.015625)"/>
       <path id="DejaVuSans-31" d="M 794 531 
L 1825 531 
L 1825 4091 
L 703 3866 
L 703 4441 
L 1819 4666 
L 2450 4666 
L 2450 531 
L 3481 531 
L 3481 0 
L 794 0 
L 794 531 
z
" transform="scale(0.015625)"/>
       <path id="DejaVuSans-28" d="M 1984 4856 
Q 1566 4138 1362 3434 
Q 1159 2731 1159 2009 
Q 1159 1288 1364 580 
Q 1569 -128 1984 -844 
L 1484 -844 
Q 1016 -109 783 600 
Q 550 1309 550 2009 
Q 550 2706 781 3412 
Q 1013 4119 1484 4856 
L 1984 4856 
z
" transform="scale(0.015625)"/>
       <path id="DejaVuSans-23" d="M 3272 2816 
L 2363 2816 
L 2100 1772 
L 3016 1772 
L 3272 2816 
z
M 2803 4594 
L 2478 3297 
L 3391 3297 
L 3719 4594 
L 4219 4594 
L 3897 3297 
L 4872 3297 
L 4872 2816 
L 3775 2816 
L 3519 1772 
L 4513 1772 
L 4513 1294 
L 3397 1294 
L 3072 0 
L 2572 0 
L 2894 1294 
L 1978 1294 
L 1656 0 
L 1153 0 
L 1478 1294 
L 494 1294 
L 494 1772 
L 1594 1772 
L 1856 2816 
L 850 2816 
L 850 3297 
L 1978 3297 
L 2297 4594 
L 2803 4594 
z
" transform="scale(0.015625)"/>
       <path id="DejaVuSans-20" transform="scale(0.015625)"/>
       <path id="DejaVuSans-66" d="M 2375 4863 
L 2375 4384 
L 1825 4384 
Q 1516 4384 1395 4259 
Q 1275 4134 1275 3809 
L 1275 3500 
L 2222 3500 
L 2222 3053 
L 1275 3053 
L 1275 0 
L 697 0 
L 697 3053 
L 147 3053 
L 147 3500 
L 697 3500 
L 697 3744 
Q 697 4328 969 4595 
Q 1241 4863 1831 4863 
L 2375 4863 
z
" transform="scale(0.015625)"/>
       <path id="DejaVuSans-2d" d="M 313 2009 
L 1997 2009 
L 1997 1497 
L 313 1497 
L 313 2009 
z
" transform="scale(0.015625)"/>
       <path id="DejaVuSans-65" d="M 3597 1894 
L 3597 1613 
L 953 1613 
Q 991 1019 1311 708 
Q 1631 397 2203 397 
Q 2534 397 2845 478 
Q 3156 559 3463 722 
L 3463 178 
Q 3153 47 2828 -22 
Q 2503 -91 2169 -91 
Q 1331 -91 842 396 
Q 353 884 353 1716 
Q 353 2575 817 3079 
Q 1281 3584 2069 3584 
Q 2775 3584 3186 3129 
Q 3597 2675 3597 1894 
z
M 3022 2063 
Q 3016 2534 2758 2815 
Q 2500 3097 2075 3097 
Q 1594 3097 1305 2825 
Q 1016 2553 972 2059 
L 3022 2063 
z
" transform="scale(0.015625)"/>
       <path id="DejaVuSans-76" d="M 191 3500 
L 800 3500 
L 1894 563 
L 2988 3500 
L 3597 3500 
L 2284 0 
L 1503 0 
L 191 3500 
z
" transform="scale(0.015625)"/>
       <path id="DejaVuSans-61" d="M 2194 1759 
Q 1497 1759 1228 1600 
Q 959 1441 959 1056 
Q 959 750 1161 570 
Q 1363 391 1709 391 
Q 2188 391 2477 730 
Q 2766 1069 2766 1631 
L 2766 1759 
L 2194 1759 
z
M 3341 1997 
L 3341 0 
L 2766 0 
L 2766 531 
Q 2569 213 2275 61 
Q 1981 -91 1556 -91 
Q 1019 -91 701 211 
Q 384 513 384 1019 
Q 384 1609 779 1909 
Q 1175 2209 1959 2209 
L 2766 2209 
L 2766 2266 
Q 2766 2663 2505 2880 
Q 2244 3097 1772 3097 
Q 1472 3097 1187 3025 
Q 903 2953 641 2809 
L 641 3341 
Q 956 3463 1253 3523 
Q 1550 3584 1831 3584 
Q 2591 3584 2966 3190 
Q 3341 2797 3341 1997 
z
" transform="scale(0.015625)"/>
       <path id="DejaVuSans-73" d="M 2834 3397 
L 2834 2853 
Q 2591 2978 2328 3040 
Q 2066 3103 1784 3103 
Q 1356 3103 1142 2972 
Q 928 2841 928 2578 
Q 928 2378 1081 2264 
Q 1234 2150 1697 2047 
L 1894 2003 
Q 2506 1872 2764 1633 
Q 3022 1394 3022 966 
Q 3022 478 2636 193 
Q 2250 -91 1575 -91 
Q 1294 -91 989 -36 
Q 684 19 347 128 
L 347 722 
Q 666 556 975 473 
Q 1284 391 1588 391 
Q 1994 391 2212 530 
Q 2431 669 2431 922 
Q 2431 1156 2273 1281 
Q 2116 1406 1581 1522 
L 1381 1569 
Q 847 1681 609 1914 
Q 372 2147 372 2553 
Q 372 3047 722 3315 
Q 1072 3584 1716 3584 
Q 2034 3584 2315 3537 
Q 2597 3491 2834 3397 
z
" transform="scale(0.015625)"/>
       <path id="DejaVuSans-2f" d="M 1625 4666 
L 2156 4666 
L 531 -594 
L 0 -594 
L 1625 4666 
z
" transform="scale(0.015625)"/>
       <path id="DejaVuSans-64" d="M 2906 2969 
L 2906 4863 
L 3481 4863 
L 3481 0 
L 2906 0 
L 2906 525 
Q 2725 213 2448 61 
Q 2172 -91 1784 -91 
Q 1150 -91 751 415 
Q 353 922 353 1747 
Q 353 2572 751 3078 
Q 1150 3584 1784 3584 
Q 2172 3584 2448 3432 
Q 2725 3281 2906 2969 
z
M 947 1747 
Q 947 1113 1208 752 
Q 1469 391 1925 391 
Q 2381 391 2643 752 
Q 2906 1113 2906 1747 
Q 2906 2381 2643 2742 
Q 2381 3103 1925 3103 
Q 1469 3103 1208 2742 
Q 947 2381 947 1747 
z
" transform="scale(0.015625)"/>
       <path id="DejaVuSans-69" d="M 603 3500 
L 1178 3500 
L 1178 0 
L 603 0 
L 603 3500 
z
M 603 4863 
L 1178 4863 
L 1178 4134 
L 603 4134 
L 603 4863 
z
" transform="scale(0.015625)"/>
       <path id="DejaVuSans-6d" d="M 3328 2828 
Q 3544 3216 3844 3400 
Q 4144 3584 4550 3584 
Q 5097 3584 5394 3201 
Q 5691 2819 5691 2113 
L 5691 0 
L 5113 0 
L 5113 2094 
Q 5113 2597 4934 2840 
Q 4756 3084 4391 3084 
Q 3944 3084 3684 2787 
Q 3425 2491 3425 1978 
L 3425 0 
L 2847 0 
L 2847 2094 
Q 2847 2600 2669 2842 
Q 2491 3084 2119 3084 
Q 1678 3084 1418 2786 
Q 1159 2488 1159 1978 
L 1159 0 
L 581 0 
L 581 3500 
L 1159 3500 
L 1159 2956 
Q 1356 3278 1631 3431 
Q 1906 3584 2284 3584 
Q 2666 3584 2933 3390 
Q 3200 3197 3328 2828 
z
" transform="scale(0.015625)"/>
       <path id="DejaVuSans-6e" d="M 3513 2113 
L 3513 0 
L 2938 0 
L 2938 2094 
Q 2938 2591 2744 2837 
Q 2550 3084 2163 3084 
Q 1697 3084 1428 2787 
Q 1159 2491 1159 1978 
L 1159 0 
L 581 0 
L 581 3500 
L 1159 3500 
L 1159 2956 
Q 1366 3272 1645 3428 
Q 1925 3584 2291 3584 
Q 2894 3584 3203 3211 
Q 3513 2838 3513 2113 
z
" transform="scale(0.015625)"/>
       <path id="DejaVuSans-29" d="M 513 4856 
L 1013 4856 
Q 1481 4119 1714 3412 
Q 1947 2706 1947 2009 
Q 1947 1309 1714 600 
Q 1481 -109 1013 -844 
L 513 -844 
Q 928 -128 1133 580 
Q 1338 1288 1338 2009 
Q 1338 2731 1133 3434 
Q 928 4138 513 4856 
z
" transform="scale(0.015625)"/>
      </defs>
      <use xlink:href="#DejaVuSans-6c"/>
      <use xlink:href="#DejaVuSans-6f" x="27.783203"/>
      <use xlink:href="#DejaVuSans-67" x="88.964844"/>
      <use xlink:href="#DejaVuSans-31" x="152.441406"/>
      <use xlink:href="#DejaVuSans-30" x="216.064453"/>
      <use xlink:href="#DejaVuSans-28" x="279.6875"/>
      <use xlink:href="#DejaVuSans-23" x="318.701172"/>
      <use xlink:href="#DejaVuSans-20" x="402.490234"/>
      <use xlink:href="#DejaVuSans-66" x="434.277344"/>
      <use xlink:href="#DejaVuSans-2d" x="463.982422"/>
      <use xlink:href="#DejaVuSans-65" x="500.066406"/>
      <use xlink:href="#DejaVuSans-76" x="561.589844"/>
      <use xlink:href="#DejaVuSans-61" x="620.769531"/>
      <use xlink:href="#DejaVuSans-6c" x="682.048828"/>
      <use xlink:href="#DejaVuSans-73" x="709.832031"/>
      <use xlink:href="#DejaVuSans-20" x="761.931641"/>
      <use xlink:href="#DejaVuSans-2f" x="793.71875"/>
      <use xlink:href="#DejaVuSans-20" x="827.410156"/>
      <use xlink:href="#DejaVuSans-64" x="859.197266"/>
      <use xlink:href="#DejaVuSans-69" x="922.673828"/>
      <use xlink:href="#DejaVuSans-6d" x="950.457031"/>
      <use xlink:href="#DejaVuSans-65" x="1047.869141"/>
      <use xlink:href="#DejaVuSans-6e" x="1109.392578"/>
      <use xlink:href="#DejaVuSans-73" x="1172.771484"/>
      <use xlink:href="#DejaVuSans-69" x="1224.871094"/>
      <use xlink:href="#DejaVuSans-6f" x="1252.654297"/>
      <use xlink:href="#DejaVuSans-6e" x="1313.835938"/>
      <use xlink:href="#DejaVuSans-29" x="1377.214844"/>
     </g>
    </g>
   </g>
   <g id="matplotlib.axis_2">
    <g id="ytick_1">
     <g id="line2d_21">
      <path d="M 57.6 298.944 
L 360.8064 298.944 
" clip-path="url(#p0eb459f49e)" style="fill: none; stroke: #b0b0b0; stroke-width: 0.8; stroke-linecap: square"/>
     </g>
     <g id="line2d_22">
      <defs>
       <path id="m7056e05a96" d="M 0 0 
L -3.5 0 
" style="stroke: #000000; stroke-width: 0.8"/>
      </defs>
      <g>
       <use xlink:href="#m7056e05a96" x="57.6" y="298.944" style="stroke: #000000; stroke-width: 0.8"/>
      </g>
     </g>
     <g id="text_6">
      <!-- 0.0 -->
      <g transform="translate(25.155 305.02275)scale(0.16 -0.16)">
       <defs>
        <path id="DejaVuSans-2e" d="M 684 794 
L 1344 794 
L 1344 0 
L 684 0 
L 684 794 
z
" transform="scale(0.015625)"/>
       </defs>
       <use xlink:href="#DejaVuSans-30"/>
       <use xlink:href="#DejaVuSans-2e" x="63.623047"/>
       <use xlink:href="#DejaVuSans-30" x="95.410156"/>
      </g>
     </g>
    </g>
    <g id="ytick_2">
     <g id="line2d_23">
      <path d="M 57.6 244.6848 
L 360.8064 244.6848 
" clip-path="url(#p0eb459f49e)" style="fill: none; stroke: #b0b0b0; stroke-width: 0.8; stroke-linecap: square"/>
     </g>
     <g id="line2d_24">
      <g>
       <use xlink:href="#m7056e05a96" x="57.6" y="244.6848" style="stroke: #000000; stroke-width: 0.8"/>
      </g>
     </g>
     <g id="text_7">
      <!-- 0.2 -->
      <g transform="translate(25.155 250.76355)scale(0.16 -0.16)">
       <use xlink:href="#DejaVuSans-30"/>
       <use xlink:href="#DejaVuSans-2e" x="63.623047"/>
       <use xlink:href="#DejaVuSans-32" x="95.410156"/>
      </g>
     </g>
    </g>
    <g id="ytick_3">
     <g id="line2d_25">
      <path d="M 57.6 190.4256 
L 360.8064 190.4256 
" clip-path="url(#p0eb459f49e)" style="fill: none; stroke: #b0b0b0; stroke-width: 0.8; stroke-linecap: square"/>
     </g>
     <g id="line2d_26">
      <g>
       <use xlink:href="#m7056e05a96" x="57.6" y="190.4256" style="stroke: #000000; stroke-width: 0.8"/>
      </g>
     </g>
     <g id="text_8">
      <!-- 0.4 -->
      <g transform="translate(25.155 196.50435)scale(0.16 -0.16)">
       <use xlink:href="#DejaVuSans-30"/>
       <use xlink:href="#DejaVuSans-2e" x="63.623047"/>
       <use xlink:href="#DejaVuSans-34" x="95.410156"/>
      </g>
     </g>
    </g>
    <g id="ytick_4">
     <g id="line2d_27">
      <path d="M 57.6 136.1664 
L 360.8064 136.1664 
" clip-path="url(#p0eb459f49e)" style="fill: none; stroke: #b0b0b0; stroke-width: 0.8; stroke-linecap: square"/>
     </g>
     <g id="line2d_28">
      <g>
       <use xlink:href="#m7056e05a96" x="57.6" y="136.1664" style="stroke: #000000; stroke-width: 0.8"/>
      </g>
     </g>
     <g id="text_9">
      <!-- 0.6 -->
      <g transform="translate(25.155 142.24515)scale(0.16 -0.16)">
       <use xlink:href="#DejaVuSans-30"/>
       <use xlink:href="#DejaVuSans-2e" x="63.623047"/>
       <use xlink:href="#DejaVuSans-36" x="95.410156"/>
      </g>
     </g>
    </g>
    <g id="ytick_5">
     <g id="line2d_29">
      <path d="M 57.6 81.9072 
L 360.8064 81.9072 
" clip-path="url(#p0eb459f49e)" style="fill: none; stroke: #b0b0b0; stroke-width: 0.8; stroke-linecap: square"/>
     </g>
     <g id="line2d_30">
      <g>
       <use xlink:href="#m7056e05a96" x="57.6" y="81.9072" style="stroke: #000000; stroke-width: 0.8"/>
      </g>
     </g>
     <g id="text_10">
      <!-- 0.8 -->
      <g transform="translate(25.155 87.98595)scale(0.16 -0.16)">
       <defs>
        <path id="DejaVuSans-38" d="M 2034 2216 
Q 1584 2216 1326 1975 
Q 1069 1734 1069 1313 
Q 1069 891 1326 650 
Q 1584 409 2034 409 
Q 2484 409 2743 651 
Q 3003 894 3003 1313 
Q 3003 1734 2745 1975 
Q 2488 2216 2034 2216 
z
M 1403 2484 
Q 997 2584 770 2862 
Q 544 3141 544 3541 
Q 544 4100 942 4425 
Q 1341 4750 2034 4750 
Q 2731 4750 3128 4425 
Q 3525 4100 3525 3541 
Q 3525 3141 3298 2862 
Q 3072 2584 2669 2484 
Q 3125 2378 3379 2068 
Q 3634 1759 3634 1313 
Q 3634 634 3220 271 
Q 2806 -91 2034 -91 
Q 1263 -91 848 271 
Q 434 634 434 1313 
Q 434 1759 690 2068 
Q 947 2378 1403 2484 
z
M 1172 3481 
Q 1172 3119 1398 2916 
Q 1625 2713 2034 2713 
Q 2441 2713 2670 2916 
Q 2900 3119 2900 3481 
Q 2900 3844 2670 4047 
Q 2441 4250 2034 4250 
Q 1625 4250 1398 4047 
Q 1172 3844 1172 3481 
z
" transform="scale(0.015625)"/>
       </defs>
       <use xlink:href="#DejaVuSans-30"/>
       <use xlink:href="#DejaVuSans-2e" x="63.623047"/>
       <use xlink:href="#DejaVuSans-38" x="95.410156"/>
      </g>
     </g>
    </g>
    <g id="ytick_6">
     <g id="line2d_31">
      <path d="M 57.6 27.648 
L 360.8064 27.648 
" clip-path="url(#p0eb459f49e)" style="fill: none; stroke: #b0b0b0; stroke-width: 0.8; stroke-linecap: square"/>
     </g>
     <g id="line2d_32">
      <g>
       <use xlink:href="#m7056e05a96" x="57.6" y="27.648" style="stroke: #000000; stroke-width: 0.8"/>
      </g>
     </g>
     <g id="text_11">
      <!-- 1.0 -->
      <g transform="translate(25.155 33.72675)scale(0.16 -0.16)">
       <use xlink:href="#DejaVuSans-31"/>
       <use xlink:href="#DejaVuSans-2e" x="63.623047"/>
       <use xlink:href="#DejaVuSans-30" x="95.410156"/>
      </g>
     </g>
    </g>
    <g id="text_12">
     <!-- Fraction of function,target pairs -->
     <g transform="translate(17.619531 297.681)rotate(-90)scale(0.17 -0.17)">
      <defs>
       <path id="DejaVuSans-46" d="M 628 4666 
L 3309 4666 
L 3309 4134 
L 1259 4134 
L 1259 2759 
L 3109 2759 
L 3109 2228 
L 1259 2228 
L 1259 0 
L 628 0 
L 628 4666 
z
" transform="scale(0.015625)"/>
       <path id="DejaVuSans-72" d="M 2631 2963 
Q 2534 3019 2420 3045 
Q 2306 3072 2169 3072 
Q 1681 3072 1420 2755 
Q 1159 2438 1159 1844 
L 1159 0 
L 581 0 
L 581 3500 
L 1159 3500 
L 1159 2956 
Q 1341 3275 1631 3429 
Q 1922 3584 2338 3584 
Q 2397 3584 2469 3576 
Q 2541 3569 2628 3553 
L 2631 2963 
z
" transform="scale(0.015625)"/>
       <path id="DejaVuSans-63" d="M 3122 3366 
L 3122 2828 
Q 2878 2963 2633 3030 
Q 2388 3097 2138 3097 
Q 1578 3097 1268 2742 
Q 959 2388 959 1747 
Q 959 1106 1268 751 
Q 1578 397 2138 397 
Q 2388 397 2633 464 
Q 2878 531 3122 666 
L 3122 134 
Q 2881 22 2623 -34 
Q 2366 -91 2075 -91 
Q 1284 -91 818 406 
Q 353 903 353 1747 
Q 353 2603 823 3093 
Q 1294 3584 2113 3584 
Q 2378 3584 2631 3529 
Q 2884 3475 3122 3366 
z
" transform="scale(0.015625)"/>
       <path id="DejaVuSans-74" d="M 1172 4494 
L 1172 3500 
L 2356 3500 
L 2356 3053 
L 1172 3053 
L 1172 1153 
Q 1172 725 1289 603 
Q 1406 481 1766 481 
L 2356 481 
L 2356 0 
L 1766 0 
Q 1100 0 847 248 
Q 594 497 594 1153 
L 594 3053 
L 172 3053 
L 172 3500 
L 594 3500 
L 594 4494 
L 1172 4494 
z
" transform="scale(0.015625)"/>
       <path id="DejaVuSans-75" d="M 544 1381 
L 544 3500 
L 1119 3500 
L 1119 1403 
Q 1119 906 1312 657 
Q 1506 409 1894 409 
Q 2359 409 2629 706 
Q 2900 1003 2900 1516 
L 2900 3500 
L 3475 3500 
L 3475 0 
L 2900 0 
L 2900 538 
Q 2691 219 2414 64 
Q 2138 -91 1772 -91 
Q 1169 -91 856 284 
Q 544 659 544 1381 
z
M 1991 3584 
L 1991 3584 
z
" transform="scale(0.015625)"/>
       <path id="DejaVuSans-2c" d="M 750 794 
L 1409 794 
L 1409 256 
L 897 -744 
L 494 -744 
L 750 256 
L 750 794 
z
" transform="scale(0.015625)"/>
       <path id="DejaVuSans-70" d="M 1159 525 
L 1159 -1331 
L 581 -1331 
L 581 3500 
L 1159 3500 
L 1159 2969 
Q 1341 3281 1617 3432 
Q 1894 3584 2278 3584 
Q 2916 3584 3314 3078 
Q 3713 2572 3713 1747 
Q 3713 922 3314 415 
Q 2916 -91 2278 -91 
Q 1894 -91 1617 61 
Q 1341 213 1159 525 
z
M 3116 1747 
Q 3116 2381 2855 2742 
Q 2594 3103 2138 3103 
Q 1681 3103 1420 2742 
Q 1159 2381 1159 1747 
Q 1159 1113 1420 752 
Q 1681 391 2138 391 
Q 2594 391 2855 752 
Q 3116 1113 3116 1747 
z
" transform="scale(0.015625)"/>
      </defs>
      <use xlink:href="#DejaVuSans-46"/>
      <use xlink:href="#DejaVuSans-72" x="50.269531"/>
      <use xlink:href="#DejaVuSans-61" x="91.382812"/>
      <use xlink:href="#DejaVuSans-63" x="152.662109"/>
      <use xlink:href="#DejaVuSans-74" x="207.642578"/>
      <use xlink:href="#DejaVuSans-69" x="246.851562"/>
      <use xlink:href="#DejaVuSans-6f" x="274.634766"/>
      <use xlink:href="#DejaVuSans-6e" x="335.816406"/>
      <use xlink:href="#DejaVuSans-20" x="399.195312"/>
      <use xlink:href="#DejaVuSans-6f" x="430.982422"/>
      <use xlink:href="#DejaVuSans-66" x="492.164062"/>
      <use xlink:href="#DejaVuSans-20" x="527.369141"/>
      <use xlink:href="#DejaVuSans-66" x="559.15625"/>
      <use xlink:href="#DejaVuSans-75" x="594.361328"/>
      <use xlink:href="#DejaVuSans-6e" x="657.740234"/>
      <use xlink:href="#DejaVuSans-63" x="721.119141"/>
      <use xlink:href="#DejaVuSans-74" x="776.099609"/>
      <use xlink:href="#DejaVuSans-69" x="815.308594"/>
      <use xlink:href="#DejaVuSans-6f" x="843.091797"/>
      <use xlink:href="#DejaVuSans-6e" x="904.273438"/>
      <use xlink:href="#DejaVuSans-2c" x="967.652344"/>
      <use xlink:href="#DejaVuSans-74" x="999.439453"/>
      <use xlink:href="#DejaVuSans-61" x="1038.648438"/>
      <use xlink:href="#DejaVuSans-72" x="1099.927734"/>
      <use xlink:href="#DejaVuSans-67" x="1139.291016"/>
      <use xlink:href="#DejaVuSans-65" x="1202.767578"/>
      <use xlink:href="#DejaVuSans-74" x="1264.291016"/>
      <use xlink:href="#DejaVuSans-20" x="1303.5"/>
      <use xlink:href="#DejaVuSans-70" x="1335.287109"/>
      <use xlink:href="#DejaVuSans-61" x="1398.763672"/>
      <use xlink:href="#DejaVuSans-69" x="1460.042969"/>
      <use xlink:href="#DejaVuSans-72" x="1487.826172"/>
      <use xlink:href="#DejaVuSans-73" x="1528.939453"/>
     </g>
    </g>
   </g>
   <g id="line2d_33">
    <defs>
     <path id="m5beb874608" d="M 0 1.5 
C 0.397805 1.5 0.77937 1.341951 1.06066 1.06066 
C 1.341951 0.77937 1.5 0.397805 1.5 0 
C 1.5 -0.397805 1.341951 -0.77937 1.06066 -1.06066 
C 0.77937 -1.341951 0.397805 -1.5 0 -1.5 
C -0.397805 -1.5 -0.77937 -1.341951 -1.06066 -1.06066 
C -1.341951 -0.77937 -1.5 -0.397805 -1.5 0 
C -1.5 0.397805 -1.341951 0.77937 -1.06066 1.06066 
C -0.77937 1.341951 -0.397805 1.5 0 1.5 
z
" style="stroke: #f5deb3"/>
    </defs>
    <g>
     <use xlink:href="#m5beb874608" x="198.460108" y="27.648" style="fill: #f5deb3; stroke: #f5deb3"/>
     <use xlink:href="#m5beb874608" x="198.460108" y="27.648" style="fill: #f5deb3; stroke: #f5deb3"/>
    </g>
   </g>
   <g id="line2d_34">
    <defs>
     <path id="mda16c6a585" d="M 0 1.5 
C 0.397805 1.5 0.77937 1.341951 1.06066 1.06066 
C 1.341951 0.77937 1.5 0.397805 1.5 0 
C 1.5 -0.397805 1.341951 -0.77937 1.06066 -1.06066 
C 0.77937 -1.341951 0.397805 -1.5 0 -1.5 
C -0.397805 -1.5 -0.77937 -1.341951 -1.06066 -1.06066 
C -1.341951 -0.77937 -1.5 -0.397805 -1.5 0 
C -1.5 0.397805 -1.341951 0.77937 -1.06066 1.06066 
C -0.77937 1.341951 -0.397805 1.5 0 1.5 
z
" style="stroke: #000080"/>
    </defs>
    <g>
     <use xlink:href="#mda16c6a585" x="327.531285" y="27.648" style="fill: #000080; stroke: #000080"/>
     <use xlink:href="#mda16c6a585" x="327.531285" y="27.648" style="fill: #000080; stroke: #000080"/>
    </g>
   </g>
   <g id="line2d_35">
    <path d="M 14.2848 298.944 
L 14.2848 293.624471 
L 40.363149 293.624471 
L 40.363149 293.269835 
L 61.029752 293.269835 
L 61.029752 292.9152 
L 65.227428 292.9152 
L 65.227428 292.560565 
L 66.441498 292.560565 
L 66.441498 292.205929 
L 68.65718 292.205929 
L 68.65718 291.142024 
L 73.268314 291.142024 
L 73.268314 290.787388 
L 85.894031 290.787388 
L 85.894031 290.432753 
L 87.1081 290.432753 
L 87.1081 290.078118 
L 88.248544 290.078118 
L 88.248544 289.368847 
L 93.098709 289.368847 
L 93.098709 289.014212 
L 95.503454 289.014212 
L 95.503454 288.659576 
L 101.287718 288.659576 
L 101.287718 288.304941 
L 108.416798 288.304941 
L 108.416798 287.950306 
L 108.791791 287.950306 
L 108.791791 287.595671 
L 112.890198 287.595671 
L 112.890198 287.241035 
L 116.907859 287.241035 
L 116.907859 286.531765 
L 117.226706 286.531765 
L 117.226706 286.177129 
L 120.0813 286.177129 
L 120.0813 285.822494 
L 123.544976 285.822494 
L 123.544976 285.113224 
L 124.642171 285.113224 
L 124.642171 284.758588 
L 125.979073 284.758588 
L 125.979073 284.403953 
L 131.153565 284.403953 
L 131.153565 284.049318 
L 132.001241 284.049318 
L 132.001241 283.694682 
L 132.358208 283.694682 
L 132.358208 283.340047 
L 132.846847 283.340047 
L 132.846847 282.985412 
L 133.356676 282.985412 
L 133.356676 282.630776 
L 134.112526 282.630776 
L 134.176839 280.148329 
L 134.336666 280.148329 
L 134.336666 279.793694 
L 135.508912 279.793694 
L 135.508912 279.439059 
L 135.717106 279.439059 
L 135.717106 279.084424 
L 136.836659 279.084424 
L 136.836659 278.729788 
L 136.97549 278.729788 
L 136.97549 278.020518 
L 137.113304 278.020518 
L 137.113304 277.665882 
L 137.893309 277.665882 
L 137.893309 277.311247 
L 138.128947 277.311247 
L 138.128947 276.956612 
L 141.151022 276.956612 
L 141.151022 276.601976 
L 141.327451 276.601976 
L 141.349389 275.892706 
L 141.84702 275.892706 
L 141.84702 275.538071 
L 142.143605 275.538071 
L 142.143605 275.183435 
L 142.331827 275.183435 
L 142.331827 274.8288 
L 142.743475 274.8288 
L 142.743475 274.474165 
L 143.599145 274.474165 
L 143.599145 274.119529 
L 144.768174 274.119529 
L 144.768174 273.764894 
L 145.201889 273.764894 
L 145.201889 273.410259 
L 145.450347 273.410259 
L 145.450347 273.055624 
L 145.851536 273.055624 
L 145.851536 272.700988 
L 146.27812 272.700988 
L 146.27812 272.346353 
L 146.662213 272.346353 
L 146.662213 271.991718 
L 147.232057 271.991718 
L 147.232057 271.637082 
L 147.800712 271.637082 
L 147.800712 271.282447 
L 148.001907 271.282447 
L 148.048032 270.573176 
L 148.785835 270.573176 
L 148.785835 270.218541 
L 148.962194 270.218541 
L 148.962194 269.863906 
L 149.107908 269.863906 
L 149.122418 269.154635 
L 149.42456 269.154635 
L 149.495789 267.736094 
L 150.069911 267.736094 
L 150.069911 267.381459 
L 150.998235 267.381459 
L 151.037576 266.672188 
L 151.233056 266.672188 
L 151.336488 265.608282 
L 151.464982 265.608282 
L 151.464982 265.253647 
L 152.045009 265.253647 
L 152.094611 264.544376 
L 152.835271 264.544376 
L 152.835271 264.189741 
L 153.455939 264.189741 
L 153.455939 263.835106 
L 154.574008 263.835106 
L 154.574008 263.480471 
L 155.024477 263.480471 
L 155.024477 263.125835 
L 155.914518 263.125835 
L 155.944819 262.416565 
L 156.265023 262.416565 
L 156.363979 260.643388 
L 156.918301 260.643388 
L 156.985263 259.934118 
L 157.184731 259.934118 
L 157.184731 259.579482 
L 158.907961 259.579482 
L 158.951018 258.515576 
L 159.105212 258.515576 
L 159.105212 258.160941 
L 159.367841 258.160941 
L 159.443406 257.451671 
L 160.110173 257.451671 
L 160.110173 257.097035 
L 160.863211 257.097035 
L 160.863211 256.7424 
L 162.168843 256.7424 
L 162.168843 256.387765 
L 162.55628 256.387765 
L 162.55628 256.033129 
L 162.928937 256.033129 
L 162.928937 255.678494 
L 163.625994 255.678494 
L 163.625994 255.323859 
L 164.317552 255.323859 
L 164.317552 254.969224 
L 164.764859 254.969224 
L 164.859342 253.905318 
L 164.878182 253.905318 
L 164.878182 253.550682 
L 165.183257 253.550682 
L 165.183257 253.196047 
L 165.343147 253.196047 
L 165.34927 252.486776 
L 166.099311 252.486776 
L 166.099311 252.132141 
L 166.338952 252.132141 
L 166.338952 251.777506 
L 166.552624 251.777506 
L 166.552624 251.422871 
L 166.83191 251.422871 
L 166.83191 251.068235 
L 167.460596 251.068235 
L 167.460596 250.7136 
L 170.648965 250.7136 
L 170.648965 250.358965 
L 171.669213 250.358965 
L 171.669213 250.004329 
L 172.624492 250.004329 
L 172.624492 249.649694 
L 172.79833 249.649694 
L 172.79833 249.295059 
L 173.362455 249.295059 
L 173.362455 248.940424 
L 175.106254 248.940424 
L 175.106254 248.585788 
L 175.616746 248.585788 
L 175.655719 247.876518 
L 176.175823 247.876518 
L 176.199907 247.167247 
L 177.686847 247.167247 
L 177.686847 246.812612 
L 178.664933 246.812612 
L 178.664933 246.457976 
L 178.812146 246.457976 
L 178.812146 246.103341 
L 179.56594 246.103341 
L 179.56594 245.748706 
L 180.201956 245.748706 
L 180.201956 245.394071 
L 180.444974 245.394071 
L 180.444974 245.039435 
L 180.695726 245.039435 
L 180.695726 244.6848 
L 180.945851 244.6848 
L 180.945851 244.330165 
L 181.896592 244.330165 
L 181.896592 243.975529 
L 182.301157 243.975529 
L 182.301157 243.620894 
L 182.808846 243.620894 
L 182.808846 243.266259 
L 183.399584 243.266259 
L 183.399584 242.911624 
L 183.708911 242.911624 
L 183.789475 242.202353 
L 183.992796 242.202353 
L 183.992796 241.847718 
L 186.085122 241.847718 
L 186.085122 241.493082 
L 186.4635 241.493082 
L 186.4635 241.138447 
L 187.792288 241.138447 
L 187.792288 240.783812 
L 187.907049 240.783812 
L 187.962329 240.074541 
L 188.130846 240.074541 
L 188.130846 239.719906 
L 189.561237 239.719906 
L 189.561237 239.365271 
L 190.730786 239.365271 
L 190.730786 239.010635 
L 190.989455 239.010635 
L 191.014501 238.301365 
L 192.018164 238.301365 
L 192.018164 237.946729 
L 192.19383 237.946729 
L 192.19383 237.592094 
L 192.645323 237.592094 
L 192.645323 237.237459 
L 193.05117 237.237459 
L 193.131019 236.528188 
L 193.30218 236.528188 
L 193.396141 235.818918 
L 194.180379 235.818918 
L 194.180379 235.464282 
L 194.791704 235.464282 
L 194.791704 235.109647 
L 195.092594 235.109647 
L 195.092594 234.755012 
L 196.101593 234.755012 
L 196.101593 234.400376 
L 196.674125 234.400376 
L 196.674125 234.045741 
L 197.168938 234.045741 
L 197.168938 233.691106 
L 198.53053 233.691106 
L 198.53053 233.336471 
L 198.789961 233.336471 
L 198.789961 232.981835 
L 199.011124 232.981835 
L 199.011124 232.272565 
L 199.850132 232.272565 
L 199.850132 231.917929 
L 201.196443 231.917929 
L 201.196443 231.563294 
L 201.405598 231.563294 
L 201.405598 231.208659 
L 201.625808 231.208659 
L 201.625808 230.854024 
L 201.918971 230.854024 
L 201.918971 230.499388 
L 202.07255 230.499388 
L 202.07255 230.144753 
L 202.492789 230.144753 
L 202.492789 229.790118 
L 202.75274 229.790118 
L 202.75274 229.435482 
L 203.049619 229.435482 
L 203.049619 229.080847 
L 203.647274 229.080847 
L 203.647274 228.726212 
L 204.200931 228.726212 
L 204.200931 228.371576 
L 204.42466 228.371576 
L 204.42466 228.016941 
L 204.553062 228.016941 
L 204.644244 226.953035 
L 205.046212 226.953035 
L 205.046212 226.5984 
L 205.50795 226.5984 
L 205.571554 225.889129 
L 207.072896 225.889129 
L 207.072896 225.534494 
L 207.71148 225.534494 
L 207.71148 225.179859 
L 208.425441 225.179859 
L 208.425441 224.825224 
L 208.875092 224.825224 
L 208.875092 224.470588 
L 209.531206 224.470588 
L 209.531206 224.115953 
L 209.702296 224.115953 
L 209.702296 223.761318 
L 209.829311 223.761318 
L 209.829311 223.406682 
L 210.474646 223.406682 
L 210.55011 222.697412 
L 210.916438 222.697412 
L 211.004213 221.278871 
L 211.349153 221.278871 
L 211.349153 220.924235 
L 211.485061 220.924235 
L 211.485061 220.5696 
L 212.883437 220.5696 
L 212.883437 220.214965 
L 213.03059 220.214965 
L 213.03059 219.860329 
L 213.278425 219.860329 
L 213.278425 219.505694 
L 213.534381 219.505694 
L 213.534381 219.151059 
L 213.96555 219.151059 
L 213.96555 218.796424 
L 214.42315 218.796424 
L 214.42315 218.441788 
L 214.625784 218.441788 
L 214.625784 218.087153 
L 214.926577 218.087153 
L 215.026364 217.377882 
L 215.046868 217.377882 
L 215.121282 216.668612 
L 215.454467 216.668612 
L 215.454467 216.313976 
L 215.595171 216.313976 
L 215.68769 215.604706 
L 215.768011 215.604706 
L 215.768011 215.250071 
L 216.060308 215.250071 
L 216.117237 214.5408 
L 216.273116 214.5408 
L 216.353828 213.831529 
L 216.505345 213.831529 
L 216.537195 213.122259 
L 216.729958 213.122259 
L 216.729958 212.767624 
L 216.921162 212.767624 
L 216.996002 211.349082 
L 217.214089 211.349082 
L 217.31137 210.639812 
L 217.386602 210.639812 
L 217.40392 209.930541 
L 217.627242 209.930541 
L 217.702738 208.866635 
L 217.765106 208.866635 
L 217.783965 207.802729 
L 217.892974 207.802729 
L 217.995764 205.674918 
L 218.008807 205.674918 
L 218.008807 205.320282 
L 218.256009 205.320282 
L 218.33745 203.901741 
L 218.415258 203.901741 
L 218.479672 202.4832 
L 218.572808 202.4832 
L 218.62263 201.064659 
L 218.723672 201.064659 
L 218.82132 199.291482 
L 218.835941 199.291482 
L 218.847345 198.227576 
L 219.027816 198.227576 
L 219.027816 197.518306 
L 219.312877 197.518306 
L 219.380529 195.745129 
L 219.449319 195.745129 
L 219.529543 195.035859 
L 219.579296 195.035859 
L 219.657945 194.326588 
L 219.771237 194.326588 
L 219.772933 193.617318 
L 219.927967 193.617318 
L 220.029279 192.553412 
L 220.167616 192.553412 
L 220.167616 192.198776 
L 220.331301 192.198776 
L 220.331301 191.489506 
L 220.461558 191.489506 
L 220.548331 190.780235 
L 220.581499 190.780235 
L 220.581499 190.4256 
L 220.740671 190.4256 
L 220.833223 189.716329 
L 220.977249 189.716329 
L 221.051227 189.007059 
L 221.127756 189.007059 
L 221.225022 187.588518 
L 221.244792 187.588518 
L 221.323662 186.169976 
L 221.382288 186.169976 
L 221.440731 185.106071 
L 221.644171 185.106071 
L 221.735449 183.332894 
L 221.845435 183.332894 
L 221.845435 182.623624 
L 222.038255 182.623624 
L 222.042163 181.914353 
L 222.154858 181.914353 
L 222.154858 181.559718 
L 222.309608 181.559718 
L 222.376765 180.141176 
L 222.780532 180.141176 
L 222.780532 179.786541 
L 222.998079 179.786541 
L 222.998079 179.431906 
L 223.278841 179.431906 
L 223.386065 178.722635 
L 223.528826 178.722635 
L 223.528826 178.368 
L 223.771421 178.368 
L 223.771421 178.013365 
L 223.911843 178.013365 
L 223.911843 177.658729 
L 224.637707 177.658729 
L 224.637707 177.304094 
L 274.196963 177.304094 
L 274.307988 170.566024 
L 274.314805 170.566024 
L 274.421091 165.601129 
L 274.427459 165.601129 
L 274.518894 161.345506 
L 274.564962 161.345506 
L 274.646984 158.863059 
L 274.699821 158.863059 
L 274.804414 155.671341 
L 274.816836 155.671341 
L 274.835881 153.898165 
L 274.953338 153.898165 
L 275.051903 149.642541 
L 275.069832 149.642541 
L 275.168719 136.521035 
L 275.185449 136.521035 
L 275.294583 130.1376 
L 275.299864 130.1376 
L 275.408672 126.945882 
L 275.424152 126.945882 
L 275.433199 125.881976 
L 287.230528 125.881976 
L 287.335213 118.434635 
L 287.342473 118.434635 
L 287.447161 113.115106 
L 287.457991 113.115106 
L 287.538321 111.341929 
L 287.573449 111.341929 
L 287.682268 103.894588 
L 287.690396 103.894588 
L 287.798159 92.900894 
L 287.803529 92.900894 
L 287.878978 91.127718 
L 294.856311 91.127718 
L 294.931615 87.581365 
L 294.971714 87.581365 
L 295.059561 83.325741 
L 295.09059 83.325741 
L 295.197506 76.233035 
L 295.202213 76.233035 
L 295.262532 69.8496 
L 300.262027 69.8496 
L 300.36127 64.530071 
L 300.386678 64.530071 
L 300.497504 60.274447 
L 300.49944 60.274447 
L 300.567804 55.309553 
L 304.471437 55.309553 
L 304.578891 52.117835 
L 304.599202 52.117835 
L 304.708369 45.025129 
L 304.720364 45.025129 
L 304.720364 44.670494 
L 307.887931 44.670494 
L 307.990569 41.124141 
L 308.037523 41.124141 
L 308.080294 39.350965 
L 310.786865 39.350965 
L 310.864918 37.223153 
L 310.909752 37.223153 
L 310.926655 35.095341 
L 313.298665 35.095341 
L 313.346223 32.967529 
L 313.416468 32.967529 
L 313.426242 32.258259 
L 315.563619 32.258259 
L 315.622402 31.194353 
L 317.508598 31.194353 
L 317.599807 29.066541 
L 320.988389 29.066541 
L 320.988389 28.711906 
L 322.499433 28.711906 
L 322.499433 28.357271 
L 326.360349 28.357271 
L 326.360349 28.002635 
L 327.531285 28.002635 
L 327.531285 27.648 
L 360.8064 27.648 
L 360.8064 27.648 
" style="fill: none; stroke: #000080; stroke-width: 1.5; stroke-linecap: square"/>
   </g>
   <g id="line2d_36">
    <defs>
     <path id="m270a81d558" d="M 0 6 
C 1.591219 6 3.117479 5.367802 4.242641 4.242641 
C 5.367802 3.117479 6 1.591219 6 0 
C 6 -1.591219 5.367802 -3.117479 4.242641 -4.242641 
C 3.117479 -5.367802 1.591219 -6 0 -6 
C -1.591219 -6 -3.117479 -5.367802 -4.242641 -4.242641 
C -5.367802 -3.117479 -6 -1.591219 -6 0 
C -6 1.591219 -5.367802 3.117479 -4.242641 4.242641 
C -3.117479 5.367802 -1.591219 6 0 6 
z
" style="stroke: #000080; stroke-width: 1.5"/>
    </defs>
    <g>
     <use xlink:href="#m270a81d558" x="101.287718" y="288.304941" style="fill-opacity: 0; stroke: #000080; stroke-width: 1.5"/>
     <use xlink:href="#m270a81d558" x="196.101593" y="234.400376" style="fill-opacity: 0; stroke: #000080; stroke-width: 1.5"/>
     <use xlink:href="#m270a81d558" x="224.637707" y="177.658729" style="fill-opacity: 0; stroke: #000080; stroke-width: 1.5"/>
     <use xlink:href="#m270a81d558" x="308.053825" y="40.769506" style="fill-opacity: 0; stroke: #000080; stroke-width: 1.5"/>
     <use xlink:href="#m270a81d558" x="327.531285" y="27.648" style="fill-opacity: 0; stroke: #000080; stroke-width: 1.5"/>
     <use xlink:href="#m270a81d558" x="360.8064" y="27.648" style="fill-opacity: 0; stroke: #000080; stroke-width: 1.5"/>
    </g>
   </g>
   <g id="line2d_37">
    <path style="fill: none; stroke: #000080; stroke-width: 1.5; stroke-linecap: square"/>
    <g/>
   </g>
   <g id="line2d_38">
    <path d="M 274.176 177.304094 
" clip-path="url(#p0eb459f49e)" style="fill: none; stroke: #000080; stroke-width: 1.5; stroke-linecap: square"/>
    <defs>
     <path id="m81ad519be7" d="M -12 12 
L 12 -12 
M -12 -12 
L 12 12 
" style="stroke: #000080"/>
    </defs>
    <g clip-path="url(#p0eb459f49e)">
     <use xlink:href="#m81ad519be7" x="274.176" y="177.304094" style="fill: #000080; stroke: #000080"/>
    </g>
   </g>
   <g id="line2d_39">
    <defs>
     <path id="ma5500d9e35" d="M 0 1.5 
C 0.397805 1.5 0.77937 1.341951 1.06066 1.06066 
C 1.341951 0.77937 1.5 0.397805 1.5 0 
C 1.5 -0.397805 1.341951 -0.77937 1.06066 -1.06066 
C 0.77937 -1.341951 0.397805 -1.5 0 -1.5 
C -0.397805 -1.5 -0.77937 -1.341951 -1.06066 -1.06066 
C -1.341951 -0.77937 -1.5 -0.397805 -1.5 0 
C -1.5 0.397805 -1.341951 0.77937 -1.06066 1.06066 
C -0.77937 1.341951 -0.397805 1.5 0 1.5 
z
" style="stroke: #ff00ff"/>
    </defs>
    <g>
     <use xlink:href="#ma5500d9e35" x="337.00418" y="27.648" style="fill: #ff00ff; stroke: #ff00ff"/>
     <use xlink:href="#ma5500d9e35" x="337.00418" y="27.648" style="fill: #ff00ff; stroke: #ff00ff"/>
    </g>
   </g>
   <g id="line2d_40">
    <path d="M 14.2848 298.944 
L 14.2848 293.624471 
L 40.363149 293.624471 
L 40.363149 293.269835 
L 62.535479 293.269835 
L 62.535479 292.9152 
L 65.227428 292.9152 
L 65.227428 292.205929 
L 72.432107 292.205929 
L 72.432107 291.851294 
L 74.068926 291.851294 
L 74.068926 291.142024 
L 78.266603 291.142024 
L 78.266603 290.787388 
L 79.480672 290.787388 
L 79.480672 290.432753 
L 83.202082 290.432753 
L 83.202082 290.078118 
L 83.678349 290.078118 
L 83.678349 289.723482 
L 85.038813 289.723482 
L 85.038813 289.368847 
L 88.613828 289.368847 
L 88.613828 289.014212 
L 89.668958 289.014212 
L 89.668958 288.659576 
L 93.381595 288.659576 
L 93.381595 288.304941 
L 94.205591 288.304941 
L 94.205591 287.950306 
L 94.995002 287.950306 
L 94.995002 287.241035 
L 95.998523 287.241035 
L 95.998523 286.8864 
L 97.18203 286.8864 
L 97.18203 286.531765 
L 98.077987 286.531765 
L 98.077987 286.177129 
L 98.510456 286.177129 
L 98.510456 285.467859 
L 99.14107 285.467859 
L 99.14107 285.113224 
L 100.726138 285.113224 
L 100.726138 284.758588 
L 106.42077 284.758588 
L 106.42077 284.403953 
L 116.907859 284.403953 
L 116.907859 284.049318 
L 121.329295 284.049318 
L 121.329295 283.694682 
L 127.911368 283.694682 
L 127.911368 283.340047 
L 129.250988 283.340047 
L 129.250988 282.985412 
L 131.115828 282.985412 
L 131.115828 282.630776 
L 135.508912 282.630776 
L 135.508912 282.276141 
L 135.805631 282.276141 
L 135.805631 281.921506 
L 138.050729 281.921506 
L 138.050729 281.566871 
L 148.261802 281.566871 
L 148.261802 281.212235 
L 152.057422 281.212235 
L 152.057422 280.8576 
L 154.190197 280.8576 
L 154.190197 280.502965 
L 156.185481 280.502965 
L 156.185481 280.148329 
L 157.269574 280.148329 
L 157.269574 279.793694 
L 159.734419 279.793694 
L 159.734419 279.084424 
L 164.984586 279.084424 
L 164.984586 278.729788 
L 166.05809 278.729788 
L 166.05809 278.375153 
L 167.661966 278.375153 
L 167.661966 278.020518 
L 168.801454 278.020518 
L 168.801454 277.665882 
L 171.082693 277.665882 
L 171.082693 277.311247 
L 171.916937 277.311247 
L 171.916937 276.601976 
L 174.525228 276.601976 
L 174.525228 276.247341 
L 175.388379 276.247341 
L 175.388379 275.892706 
L 175.595454 275.892706 
L 175.595454 275.538071 
L 176.10684 275.538071 
L 176.10684 275.183435 
L 177.337316 275.183435 
L 177.337316 274.8288 
L 177.575318 274.8288 
L 177.575318 274.474165 
L 179.363602 274.474165 
L 179.363602 274.119529 
L 179.563065 274.119529 
L 179.563065 273.764894 
L 182.60203 273.764894 
L 182.60203 273.410259 
L 182.893349 273.410259 
L 182.893349 273.055624 
L 183.357327 273.055624 
L 183.357327 272.700988 
L 184.261263 272.700988 
L 184.261263 271.991718 
L 187.034572 271.991718 
L 187.034572 271.637082 
L 187.673086 271.637082 
L 187.673086 271.282447 
L 188.627526 271.282447 
L 188.627526 270.927812 
L 188.793735 270.927812 
L 188.793735 270.218541 
L 189.891258 270.218541 
L 189.891258 269.863906 
L 191.086325 269.863906 
L 191.086325 269.154635 
L 191.406181 269.154635 
L 191.406181 268.8 
L 192.302246 268.8 
L 192.302246 268.445365 
L 194.594871 268.445365 
L 194.594871 267.736094 
L 195.675425 267.736094 
L 195.675425 267.381459 
L 196.174268 267.381459 
L 196.174268 267.026824 
L 196.325861 267.026824 
L 196.325861 266.317553 
L 196.555645 266.317553 
L 196.660224 264.899012 
L 196.775746 264.899012 
L 196.775746 264.189741 
L 197.050139 264.189741 
L 197.152013 263.480471 
L 197.441031 263.480471 
L 197.441031 262.416565 
L 197.692797 262.416565 
L 197.692797 262.061929 
L 197.821786 262.061929 
L 197.821786 261.707294 
L 199.143601 261.707294 
L 199.143601 261.352659 
L 199.297322 261.352659 
L 199.297322 260.998024 
L 199.445801 260.998024 
L 199.445801 260.643388 
L 199.74519 260.643388 
L 199.74519 260.288753 
L 200.692631 260.288753 
L 200.780335 259.579482 
L 201.427196 259.579482 
L 201.46583 257.097035 
L 201.595525 257.097035 
L 201.618687 256.033129 
L 202.94952 256.033129 
L 202.94952 255.678494 
L 203.435075 255.678494 
L 203.468995 254.614588 
L 204.566768 254.614588 
L 204.566768 254.259953 
L 204.831298 254.259953 
L 204.913673 252.841412 
L 205.081794 252.841412 
L 205.081794 251.777506 
L 205.420869 251.777506 
L 205.420869 251.422871 
L 205.819568 251.422871 
L 205.860114 250.7136 
L 206.126809 250.7136 
L 206.126809 250.358965 
L 206.261534 250.358965 
L 206.261534 249.649694 
L 206.569226 249.649694 
L 206.569226 249.295059 
L 206.775429 249.295059 
L 206.775429 248.940424 
L 207.086215 248.940424 
L 207.086215 248.585788 
L 207.764212 248.585788 
L 207.764212 248.231153 
L 208.225993 248.231153 
L 208.225993 247.167247 
L 208.420481 247.167247 
L 208.420481 246.812612 
L 208.828423 246.812612 
L 208.837524 246.103341 
L 209.055823 246.103341 
L 209.055823 245.748706 
L 209.463858 245.748706 
L 209.491412 245.039435 
L 210.161248 245.039435 
L 210.161248 244.6848 
L 211.136187 244.6848 
L 211.136187 244.330165 
L 211.494543 244.330165 
L 211.582814 243.266259 
L 211.765391 243.266259 
L 211.765391 242.911624 
L 212.029835 242.911624 
L 212.029835 242.556988 
L 212.412387 242.556988 
L 212.506448 241.138447 
L 212.60004 241.138447 
L 212.627829 239.719906 
L 212.711937 239.719906 
L 212.711937 239.010635 
L 212.842792 239.010635 
L 212.880013 237.946729 
L 213.296618 237.946729 
L 213.296618 237.237459 
L 213.588173 237.237459 
L 213.588173 236.528188 
L 213.712156 236.528188 
L 213.712156 236.173553 
L 213.890122 236.173553 
L 213.93412 235.464282 
L 214.777666 235.464282 
L 214.800652 232.981835 
L 215.12215 232.981835 
L 215.152092 232.272565 
L 215.324736 232.272565 
L 215.390784 231.563294 
L 215.842139 231.563294 
L 215.929294 230.144753 
L 215.977909 230.144753 
L 215.992012 229.435482 
L 216.109821 229.435482 
L 216.181796 227.307671 
L 216.770583 227.307671 
L 216.836114 226.5984 
L 217.358088 226.5984 
L 217.358088 226.243765 
L 217.497931 226.243765 
L 217.497931 225.889129 
L 217.724685 225.889129 
L 217.833285 225.179859 
L 217.842307 225.179859 
L 217.937523 223.406682 
L 218.004336 223.406682 
L 218.104669 222.342776 
L 218.163873 222.342776 
L 218.163873 221.633506 
L 218.389358 221.633506 
L 218.423276 220.5696 
L 218.801688 220.5696 
L 218.801688 220.214965 
L 219.324343 220.214965 
L 219.324343 219.505694 
L 219.615584 219.505694 
L 219.72505 218.087153 
L 220.222005 218.087153 
L 220.222005 217.732518 
L 220.352032 217.732518 
L 220.352032 217.377882 
L 220.681624 217.377882 
L 220.681624 217.023247 
L 220.826169 217.023247 
L 220.87805 216.313976 
L 221.132489 216.313976 
L 221.132489 214.5408 
L 221.25796 214.5408 
L 221.323662 212.767624 
L 221.518477 212.767624 
L 221.518477 212.058353 
L 221.776045 212.058353 
L 221.776045 211.703718 
L 221.989782 211.703718 
L 222.071601 209.575906 
L 222.506552 209.575906 
L 222.506552 209.221271 
L 222.860429 209.221271 
L 222.94056 207.802729 
L 223.073644 207.802729 
L 223.073644 207.448094 
L 223.448098 207.448094 
L 223.511874 206.738824 
L 223.723371 206.738824 
L 223.723371 205.674918 
L 223.861968 205.674918 
L 223.887058 204.256376 
L 223.978951 204.256376 
L 223.978951 203.192471 
L 224.117569 203.192471 
L 224.117569 202.837835 
L 224.260517 202.837835 
L 224.358317 200.355388 
L 224.374523 200.355388 
L 224.464335 198.582212 
L 225.456075 198.582212 
L 225.531143 195.745129 
L 225.601684 195.745129 
L 225.63698 195.035859 
L 225.797458 195.035859 
L 225.876819 193.262682 
L 226.023355 193.262682 
L 226.036731 192.553412 
L 226.377857 192.553412 
L 226.377857 192.198776 
L 226.676757 192.198776 
L 226.719239 191.134871 
L 226.796447 191.134871 
L 226.845182 189.007059 
L 226.912132 189.007059 
L 226.912132 188.652424 
L 227.11386 188.652424 
L 227.179634 187.233882 
L 227.267507 187.233882 
L 227.358371 186.169976 
L 227.583629 186.169976 
L 227.583629 185.815341 
L 227.827011 185.815341 
L 227.86102 184.751435 
L 227.954338 184.751435 
L 228.024025 183.687529 
L 228.237388 183.687529 
L 228.237388 183.332894 
L 228.594282 183.332894 
L 228.594282 182.978259 
L 228.772113 182.978259 
L 228.772113 182.623624 
L 228.893222 182.623624 
L 228.914513 180.850447 
L 229.021647 180.850447 
L 229.088737 179.786541 
L 229.689422 179.786541 
L 229.689422 178.722635 
L 229.888169 178.722635 
L 229.951257 176.594824 
L 230.003504 176.594824 
L 230.108349 175.530918 
L 230.1152 175.530918 
L 230.169923 174.821647 
L 230.276175 174.821647 
L 230.276175 174.467012 
L 230.428664 174.467012 
L 230.462127 173.757741 
L 230.559866 173.757741 
L 230.559866 173.403106 
L 230.79843 173.403106 
L 230.892752 171.275294 
L 230.912273 171.275294 
L 230.920901 170.211388 
L 231.135132 170.211388 
L 231.150513 168.438212 
L 231.323838 168.438212 
L 231.41776 166.665035 
L 231.804579 166.665035 
L 231.880997 164.537224 
L 231.938996 164.537224 
L 231.990263 163.473318 
L 232.446523 163.473318 
L 232.446523 163.118682 
L 232.804983 163.118682 
L 232.804983 162.764047 
L 232.98328 162.764047 
L 233.046359 162.054776 
L 233.142416 162.054776 
L 233.142416 161.700141 
L 233.261014 161.700141 
L 233.358289 160.636235 
L 233.377717 160.636235 
L 233.377717 160.2816 
L 233.492393 160.2816 
L 233.586529 158.508424 
L 233.624572 158.508424 
L 233.624572 158.153788 
L 233.887619 158.153788 
L 233.96673 157.089882 
L 234.126175 157.089882 
L 234.201141 156.380612 
L 234.29353 156.380612 
L 234.343463 155.316706 
L 234.411185 155.316706 
L 234.487198 153.543529 
L 234.558115 153.543529 
L 234.558115 153.188894 
L 234.718163 153.188894 
L 234.718163 152.834259 
L 234.840814 152.834259 
L 234.840814 152.479624 
L 235.074723 152.479624 
L 235.131774 151.061082 
L 235.18656 151.061082 
L 235.253851 149.997176 
L 235.318973 149.997176 
L 235.364632 148.933271 
L 235.718703 148.933271 
L 235.718703 148.578635 
L 235.948757 148.578635 
L 236.014095 147.869365 
L 236.145943 147.869365 
L 236.22956 146.450824 
L 236.408438 146.450824 
L 236.507627 145.741553 
L 236.551605 145.741553 
L 236.592707 144.677647 
L 236.685135 144.677647 
L 236.727461 143.968376 
L 236.989355 143.968376 
L 236.989355 143.259106 
L 237.250332 143.259106 
L 237.313579 142.1952 
L 237.512626 142.1952 
L 237.512626 141.485929 
L 237.698997 141.485929 
L 237.793447 140.776659 
L 237.855027 140.776659 
L 237.949215 138.294212 
L 238.202135 138.294212 
L 238.254014 137.584941 
L 238.502269 137.584941 
L 238.502269 137.230306 
L 238.733926 137.230306 
L 238.733926 136.875671 
L 238.858656 136.875671 
L 238.87488 135.811765 
L 239.021127 135.811765 
L 239.037577 134.747859 
L 239.180877 134.747859 
L 239.223739 134.038588 
L 239.45531 134.038588 
L 239.552741 133.329318 
L 239.661692 133.329318 
L 239.764157 131.556141 
L 239.804776 131.556141 
L 239.829316 130.846871 
L 239.919953 130.846871 
L 239.920767 130.1376 
L 240.270212 130.1376 
L 240.28857 128.719059 
L 240.391426 128.719059 
L 240.499246 128.009788 
L 240.870937 128.009788 
L 240.870937 127.655153 
L 241.233259 127.655153 
L 241.296773 126.591247 
L 241.395887 126.591247 
L 241.425305 125.881976 
L 241.600643 125.881976 
L 241.674261 124.818071 
L 242.141652 124.818071 
L 242.141652 124.463435 
L 242.275635 124.463435 
L 242.364022 123.754165 
L 242.443258 123.754165 
L 242.448135 123.044894 
L 242.649752 123.044894 
L 242.752805 121.271718 
L 243.22168 121.271718 
L 243.22168 120.917082 
L 243.558665 120.917082 
L 243.558665 120.562447 
L 243.760536 120.562447 
L 243.760536 120.207812 
L 244.192836 120.207812 
L 244.192836 119.853176 
L 244.371821 119.853176 
L 244.445882 119.143906 
L 244.870481 119.143906 
L 244.870481 118.789271 
L 245.305794 118.789271 
L 245.341372 118.08 
L 245.454722 118.08 
L 245.454722 117.725365 
L 246.552246 117.725365 
L 246.552246 117.370729 
L 246.775075 117.370729 
L 246.775075 117.016094 
L 247.721138 117.016094 
L 247.721138 116.661459 
L 247.962552 116.661459 
L 247.962552 116.306824 
L 266.676534 116.306824 
L 266.676534 115.952188 
L 274.566196 115.952188 
L 274.643718 115.242918 
L 274.872027 115.242918 
L 274.960448 111.341929 
L 275.007698 111.341929 
L 275.099211 108.859482 
L 275.121246 108.859482 
L 275.168165 107.440941 
L 275.248315 107.440941 
L 275.345457 104.603859 
L 275.366976 104.603859 
L 275.466003 102.121412 
L 275.536954 102.121412 
L 275.627919 99.638965 
L 275.660073 99.638965 
L 275.712501 98.220424 
L 275.773806 98.220424 
L 275.808972 95.028706 
L 275.887439 95.028706 
L 275.971839 93.255529 
L 276.011501 93.255529 
L 276.118741 91.127718 
L 276.154217 91.127718 
L 276.237651 89.354541 
L 276.273459 89.354541 
L 276.367621 86.872094 
L 276.515663 86.872094 
L 276.579525 85.808188 
L 276.64822 85.808188 
L 276.735703 84.035012 
L 276.774754 84.035012 
L 276.87771 81.197929 
L 276.896944 81.197929 
L 276.998296 78.360847 
L 277.047371 78.360847 
L 277.133584 75.523765 
L 277.25261 75.523765 
L 277.344583 74.105224 
L 277.370665 74.105224 
L 277.414219 72.332047 
L 277.549295 72.332047 
L 277.582583 71.268141 
L 277.685219 71.268141 
L 277.77102 69.8496 
L 277.847472 69.8496 
L 277.847472 69.140329 
L 278.346734 69.140329 
L 278.346734 68.785694 
L 283.836712 68.785694 
L 283.836712 68.431059 
L 287.466058 68.431059 
L 287.466058 68.076424 
L 287.592948 68.076424 
L 287.634562 66.657882 
L 287.767769 66.657882 
L 287.872994 64.530071 
L 287.999108 64.530071 
L 288.0878 63.111529 
L 288.146891 63.111529 
L 288.230275 61.692988 
L 288.306253 61.692988 
L 288.367167 60.629082 
L 288.421356 60.629082 
L 288.527989 59.565176 
L 288.53526 59.565176 
L 288.627897 58.146635 
L 288.66732 58.146635 
L 288.706991 56.018824 
L 288.785788 56.018824 
L 288.880242 54.245647 
L 288.901082 54.245647 
L 288.903876 52.472471 
L 289.03492 52.472471 
L 289.140339 51.408565 
L 289.265282 51.408565 
L 289.265282 51.053929 
L 289.415893 51.053929 
L 289.415893 50.344659 
L 295.206875 50.344659 
L 295.317659 49.635388 
L 295.445644 49.635388 
L 295.468846 48.571482 
L 295.62287 48.571482 
L 295.732871 47.152941 
L 295.823046 47.152941 
L 295.850073 46.089035 
L 295.959158 46.089035 
L 295.983158 44.315859 
L 296.07511 44.315859 
L 296.07511 43.961224 
L 296.233857 43.961224 
L 296.24983 43.251953 
L 300.629832 43.251953 
L 300.629832 42.897318 
L 300.867106 42.897318 
L 300.867106 42.542682 
L 300.99443 42.542682 
L 301.101802 40.060235 
L 301.186217 40.060235 
L 301.249191 38.287059 
L 305.046402 38.287059 
L 305.136012 37.577788 
L 305.201177 37.577788 
L 305.228096 36.159247 
L 305.352085 36.159247 
L 305.352085 35.804612 
L 308.380157 35.804612 
L 308.420018 35.095341 
L 311.268251 35.095341 
L 311.326909 33.6768 
L 311.390483 33.6768 
L 311.428854 32.967529 
L 313.66854 32.967529 
L 313.730122 31.903624 
L 313.79752 31.903624 
L 313.79752 31.548988 
L 315.84173 31.548988 
L 315.897125 30.839718 
L 317.857085 30.839718 
L 317.857085 30.485082 
L 321.207699 30.485082 
L 321.301223 29.775812 
L 322.692702 29.775812 
L 322.696089 29.066541 
L 324.147181 29.066541 
L 324.147181 28.711906 
L 329.747889 28.711906 
L 329.747889 28.357271 
L 330.714207 28.357271 
L 330.714207 28.002635 
L 337.00418 28.002635 
L 337.00418 27.648 
L 360.8064 27.648 
L 360.8064 27.648 
" style="fill: none; stroke: #ff00ff; stroke-width: 1.5; stroke-linecap: square"/>
   </g>
   <g id="line2d_41">
    <defs>
     <path id="m83cedb6ab4" d="M 0 8.485281 
L 5.091169 0 
L 0 -8.485281 
L -5.091169 0 
z
" style="stroke: #ff00ff; stroke-width: 1.5; stroke-linejoin: miter"/>
    </defs>
    <g>
     <use xlink:href="#m83cedb6ab4" x="116.907859" y="284.403953" style="fill-opacity: 0; stroke: #ff00ff; stroke-width: 1.5; stroke-linejoin: miter"/>
     <use xlink:href="#m83cedb6ab4" x="221.323662" y="212.767624" style="fill-opacity: 0; stroke: #ff00ff; stroke-width: 1.5; stroke-linejoin: miter"/>
     <use xlink:href="#m83cedb6ab4" x="247.962552" y="116.306824" style="fill-opacity: 0; stroke: #ff00ff; stroke-width: 1.5; stroke-linejoin: miter"/>
     <use xlink:href="#m83cedb6ab4" x="330.714207" y="28.002635" style="fill-opacity: 0; stroke: #ff00ff; stroke-width: 1.5; stroke-linejoin: miter"/>
     <use xlink:href="#m83cedb6ab4" x="337.00418" y="27.648" style="fill-opacity: 0; stroke: #ff00ff; stroke-width: 1.5; stroke-linejoin: miter"/>
     <use xlink:href="#m83cedb6ab4" x="360.8064" y="27.648" style="fill-opacity: 0; stroke: #ff00ff; stroke-width: 1.5; stroke-linejoin: miter"/>
    </g>
   </g>
   <g id="line2d_42">
    <path style="fill: none; stroke: #ff00ff; stroke-width: 1.5; stroke-linecap: square"/>
    <g/>
   </g>
   <g id="line2d_43">
    <path d="M 274.176 115.952188 
" clip-path="url(#p0eb459f49e)" style="fill: none; stroke: #ff00ff; stroke-width: 1.5; stroke-linecap: square"/>
    <defs>
     <path id="m926525f822" d="M -12 12 
L 12 -12 
M -12 -12 
L 12 12 
" style="stroke: #ff00ff"/>
    </defs>
    <g clip-path="url(#p0eb459f49e)">
     <use xlink:href="#m926525f822" x="274.176" y="115.952188" style="fill: #ff00ff; stroke: #ff00ff"/>
    </g>
   </g>
   <g id="line2d_44">
    <defs>
     <path id="mbd2f1c41b6" d="M 0 1.5 
C 0.397805 1.5 0.77937 1.341951 1.06066 1.06066 
C 1.341951 0.77937 1.5 0.397805 1.5 0 
C 1.5 -0.397805 1.341951 -0.77937 1.06066 -1.06066 
C 0.77937 -1.341951 0.397805 -1.5 0 -1.5 
C -0.397805 -1.5 -0.77937 -1.341951 -1.06066 -1.06066 
C -1.341951 -0.77937 -1.5 -0.397805 -1.5 0 
C -1.5 0.397805 -1.341951 0.77937 -1.06066 1.06066 
C -0.77937 1.341951 -0.397805 1.5 0 1.5 
z
" style="stroke: #ff7500"/>
    </defs>
    <g>
     <use xlink:href="#mbd2f1c41b6" x="323.83073" y="27.648" style="fill: #ff7500; stroke: #ff7500"/>
     <use xlink:href="#mbd2f1c41b6" x="323.83073" y="27.648" style="fill: #ff7500; stroke: #ff7500"/>
    </g>
   </g>
   <g id="line2d_45">
    <path d="M 14.2848 298.944 
L 14.2848 293.269835 
L 44.560826 293.269835 
L 44.560826 292.9152 
L 57.6 292.9152 
L 57.6 292.560565 
L 59.392932 292.560565 
L 59.392932 292.205929 
L 78.88343 292.205929 
L 78.88343 291.851294 
L 80.059535 291.851294 
L 80.059535 291.496659 
L 84.142855 291.496659 
L 84.142855 291.142024 
L 85.894031 291.142024 
L 85.894031 290.078118 
L 88.972154 290.078118 
L 88.972154 289.723482 
L 89.323782 289.723482 
L 89.323782 289.368847 
L 90.340871 289.368847 
L 90.340871 289.014212 
L 90.668036 289.014212 
L 90.668036 288.659576 
L 99.950294 288.659576 
L 99.950294 288.304941 
L 101.287718 288.304941 
L 101.287718 287.595671 
L 103.047088 287.595671 
L 103.047088 287.241035 
L 103.380045 287.241035 
L 103.380045 286.8864 
L 104.028784 286.8864 
L 104.028784 286.531765 
L 104.501065 286.531765 
L 104.501065 286.177129 
L 105.99483 286.177129 
L 105.99483 285.822494 
L 106.699465 285.822494 
L 106.699465 285.113224 
L 108.416798 285.113224 
L 108.416798 284.758588 
L 108.667622 284.758588 
L 108.667622 284.403953 
L 109.756698 284.403953 
L 109.756698 283.694682 
L 110.335561 283.694682 
L 110.335561 283.340047 
L 111.007473 283.340047 
L 111.007473 282.630776 
L 111.334639 282.630776 
L 111.334639 282.276141 
L 114.418881 282.276141 
L 114.418881 281.921506 
L 114.872193 281.921506 
L 114.872193 281.566871 
L 115.489021 281.566871 
L 115.489021 281.212235 
L 115.917548 281.212235 
L 115.917548 280.8576 
L 116.336531 280.8576 
L 116.336531 280.502965 
L 116.583514 280.502965 
L 116.583514 280.148329 
L 117.540239 280.148329 
L 117.540239 279.439059 
L 118.301945 279.439059 
L 118.376446 278.729788 
L 118.671535 278.729788 
L 118.671535 278.375153 
L 119.530006 278.375153 
L 119.530006 278.020518 
L 121.137664 278.020518 
L 121.137664 277.665882 
L 122.19863 277.665882 
L 122.19863 276.956612 
L 122.319605 276.956612 
L 122.319605 276.601976 
L 123.317644 276.601976 
L 123.317644 276.247341 
L 123.601383 276.247341 
L 123.601383 275.892706 
L 124.373813 275.892706 
L 124.481616 275.183435 
L 125.322496 275.183435 
L 125.322496 274.8288 
L 125.577745 274.8288 
L 125.577745 274.474165 
L 126.127391 274.474165 
L 126.127391 274.119529 
L 127.273627 274.119529 
L 127.273627 273.410259 
L 128.354013 273.410259 
L 128.354013 273.055624 
L 128.57149 273.055624 
L 128.57149 272.700988 
L 129.458394 272.700988 
L 129.458394 271.991718 
L 130.107132 271.991718 
L 130.107132 271.637082 
L 130.265881 271.637082 
L 130.265881 271.282447 
L 131.040128 271.282447 
L 131.115828 269.863906 
L 131.892817 269.863906 
L 131.892817 269.509271 
L 132.322814 269.509271 
L 132.322814 269.154635 
L 132.673786 269.154635 
L 132.673786 268.8 
L 133.423621 268.8 
L 133.423621 268.445365 
L 133.589949 268.445365 
L 133.589949 267.736094 
L 133.918257 267.736094 
L 133.918257 266.672188 
L 134.839175 266.672188 
L 134.839175 266.317553 
L 135.116046 266.317553 
L 135.116046 265.608282 
L 135.628162 265.608282 
L 135.628162 264.899012 
L 135.74666 264.899012 
L 135.74666 264.544376 
L 136.44239 264.544376 
L 136.44239 264.189741 
L 136.836659 264.189741 
L 136.836659 263.835106 
L 137.439996 263.835106 
L 137.439996 263.480471 
L 137.707972 263.480471 
L 137.707972 263.125835 
L 138.310202 263.125835 
L 138.310202 262.7712 
L 138.489728 262.7712 
L 138.489728 262.416565 
L 139.867398 262.416565 
L 139.867398 262.061929 
L 142.101521 262.061929 
L 142.185595 261.352659 
L 142.620923 261.352659 
L 142.620923 260.998024 
L 142.865233 260.998024 
L 142.865233 260.643388 
L 143.166224 260.643388 
L 143.166224 260.288753 
L 143.754133 260.288753 
L 143.754133 259.224847 
L 144.931992 259.224847 
L 145.004344 258.160941 
L 145.643288 258.160941 
L 145.643288 257.451671 
L 145.886021 257.451671 
L 145.920443 255.678494 
L 146.843174 255.678494 
L 146.843174 254.614588 
L 147.486917 254.614588 
L 147.486917 254.259953 
L 148.139946 254.259953 
L 148.139946 253.905318 
L 148.533127 253.905318 
L 148.533127 253.196047 
L 149.107908 253.196047 
L 149.107908 252.132141 
L 149.889763 252.132141 
L 149.889763 251.777506 
L 150.124997 251.777506 
L 150.152479 251.068235 
L 151.076835 251.068235 
L 151.076835 250.7136 
L 151.60532 250.7136 
L 151.60532 250.358965 
L 151.731998 250.358965 
L 151.731998 250.004329 
L 152.020159 250.004329 
L 152.020159 249.649694 
L 152.401695 249.649694 
L 152.498913 248.585788 
L 153.095398 248.585788 
L 153.095398 248.231153 
L 153.351976 248.231153 
L 153.351976 247.521882 
L 154.023279 247.521882 
L 154.023279 247.167247 
L 154.519655 247.167247 
L 154.519655 246.812612 
L 154.693034 246.812612 
L 154.768388 246.103341 
L 155.098517 246.103341 
L 155.098517 245.748706 
L 155.995211 245.748706 
L 156.025382 244.330165 
L 156.245169 244.330165 
L 156.245169 243.975529 
L 156.947029 243.975529 
L 156.947029 243.620894 
L 157.3353 243.620894 
L 157.3353 243.266259 
L 157.475372 243.266259 
L 157.475372 242.911624 
L 157.862113 242.911624 
L 157.862113 242.556988 
L 157.998331 242.556988 
L 157.998331 242.202353 
L 158.2053 242.202353 
L 158.276759 241.493082 
L 158.392304 241.493082 
L 158.454228 240.783812 
L 158.603771 240.783812 
L 158.603771 240.429176 
L 158.778196 240.429176 
L 158.778196 240.074541 
L 158.976805 240.074541 
L 158.993977 239.365271 
L 159.088142 239.365271 
L 159.088142 238.656 
L 159.334159 238.656 
L 159.334159 237.946729 
L 160.142495 237.946729 
L 160.142495 237.592094 
L 160.375185 237.592094 
L 160.407056 236.882824 
L 160.557708 236.882824 
L 160.557708 236.528188 
L 160.722826 236.528188 
L 160.722826 236.173553 
L 161.002557 236.173553 
L 161.002557 235.818918 
L 161.773258 235.818918 
L 161.773258 235.464282 
L 162.05979 235.464282 
L 162.05979 235.109647 
L 162.277267 235.109647 
L 162.277267 234.755012 
L 162.463734 234.755012 
L 162.463734 234.400376 
L 162.79619 234.400376 
L 162.79619 233.691106 
L 162.928937 233.691106 
L 163.012297 232.6272 
L 163.839461 232.6272 
L 163.839461 232.272565 
L 164.174745 232.272565 
L 164.174745 231.563294 
L 164.349858 231.563294 
L 164.452864 230.854024 
L 164.853058 230.854024 
L 164.853058 230.499388 
L 165.550204 230.499388 
L 165.580463 229.435482 
L 165.862536 229.435482 
L 165.862536 229.080847 
L 166.004959 229.080847 
L 166.004959 228.726212 
L 166.362169 228.726212 
L 166.425869 228.016941 
L 166.678531 228.016941 
L 166.678531 227.662306 
L 167.079212 227.662306 
L 167.079212 227.307671 
L 167.240447 227.307671 
L 167.240447 226.953035 
L 167.893313 226.953035 
L 167.94671 225.534494 
L 168.242961 225.534494 
L 168.242961 225.179859 
L 168.415377 225.179859 
L 168.415377 224.825224 
L 168.591381 224.825224 
L 168.591381 224.470588 
L 168.765753 224.470588 
L 168.765753 224.115953 
L 169.014245 224.115953 
L 169.014245 223.761318 
L 169.224656 223.761318 
L 169.224656 223.052047 
L 169.511408 223.052047 
L 169.609283 222.342776 
L 169.981418 222.342776 
L 169.981418 221.988141 
L 170.148167 221.988141 
L 170.148167 221.633506 
L 170.374474 221.633506 
L 170.4353 220.924235 
L 170.787015 220.924235 
L 170.791599 220.214965 
L 171.032981 220.214965 
L 171.141275 219.505694 
L 171.418183 219.505694 
L 171.422616 218.796424 
L 171.568323 218.796424 
L 171.67796 217.377882 
L 172.237998 217.377882 
L 172.237998 217.023247 
L 172.536968 217.023247 
L 172.624492 215.959341 
L 172.732295 215.959341 
L 172.823033 214.895435 
L 172.88875 214.895435 
L 172.88875 214.5408 
L 173.031711 214.5408 
L 173.031711 214.186165 
L 173.398404 214.186165 
L 173.398404 213.831529 
L 173.620559 213.831529 
L 173.620559 213.476894 
L 173.801101 213.476894 
L 173.805007 212.767624 
L 174.487605 212.767624 
L 174.510187 212.058353 
L 174.686155 212.058353 
L 174.786503 211.349082 
L 174.989276 211.349082 
L 174.989276 209.930541 
L 175.106254 209.930541 
L 175.200767 209.221271 
L 175.294806 209.221271 
L 175.305627 208.512 
L 175.44931 208.512 
L 175.44931 208.157365 
L 175.705205 208.157365 
L 175.803787 207.448094 
L 175.968112 207.448094 
L 176.054937 206.738824 
L 176.14826 206.738824 
L 176.14826 206.384188 
L 176.289094 206.384188 
L 176.289094 206.029553 
L 176.435674 206.029553 
L 176.435674 205.674918 
L 176.55752 205.674918 
L 176.564266 204.611012 
L 176.825495 204.611012 
L 176.865364 203.901741 
L 177.317886 203.901741 
L 177.421282 202.4832 
L 177.565728 202.4832 
L 177.610441 201.773929 
L 177.822968 201.773929 
L 177.822968 201.419294 
L 178.101616 201.419294 
L 178.101616 200.710024 
L 178.440406 200.710024 
L 178.48309 200.000753 
L 178.595434 200.000753 
L 178.604514 199.291482 
L 178.731171 199.291482 
L 178.803166 197.872941 
L 178.856981 197.872941 
L 178.856981 197.163671 
L 179.08842 197.163671 
L 179.094317 196.4544 
L 179.305388 196.4544 
L 179.305388 196.099765 
L 179.424532 196.099765 
L 179.528527 195.390494 
L 179.545804 195.390494 
L 179.545804 195.035859 
L 179.924755 195.035859 
L 179.936034 193.971953 
L 180.098833 193.971953 
L 180.190835 193.262682 
L 180.285156 193.262682 
L 180.345937 191.844141 
L 180.425758 191.844141 
L 180.425758 190.780235 
L 180.540763 190.780235 
L 180.540763 190.4256 
L 180.860161 190.4256 
L 180.860161 190.070965 
L 181.176866 190.070965 
L 181.176866 189.716329 
L 181.498707 189.716329 
L 181.506489 189.007059 
L 181.694851 189.007059 
L 181.717944 187.943153 
L 181.80748 187.943153 
L 181.878804 186.524612 
L 181.927048 186.524612 
L 181.977698 185.460706 
L 182.111266 185.460706 
L 182.111266 185.106071 
L 182.330966 185.106071 
L 182.330966 184.751435 
L 182.516205 184.751435 
L 182.619148 183.687529 
L 182.726392 183.687529 
L 182.740969 182.623624 
L 183.082701 182.623624 
L 183.187342 181.205082 
L 183.220515 181.205082 
L 183.300836 180.495812 
L 183.434726 180.495812 
L 183.434726 180.141176 
L 183.738875 180.141176 
L 183.738875 179.786541 
L 184.112838 179.786541 
L 184.205179 178.368 
L 184.227633 178.368 
L 184.245576 177.658729 
L 184.548026 177.658729 
L 184.649235 176.949459 
L 184.666781 176.949459 
L 184.752084 174.821647 
L 184.984155 174.821647 
L 184.984155 174.467012 
L 185.100196 174.467012 
L 185.100196 174.112376 
L 185.408293 174.112376 
L 185.437775 173.048471 
L 185.607448 173.048471 
L 185.636619 171.984565 
L 185.999541 171.984565 
L 185.999541 171.275294 
L 186.554934 171.275294 
L 186.554934 170.920659 
L 186.728623 170.920659 
L 186.728623 170.566024 
L 186.890986 170.566024 
L 186.991998 169.502118 
L 187.451306 169.502118 
L 187.451306 169.147482 
L 187.60195 169.147482 
L 187.60195 168.792847 
L 187.743953 168.792847 
L 187.788574 168.083576 
L 188.258062 168.083576 
L 188.258062 167.728941 
L 189.280298 167.728941 
L 189.280298 167.374306 
L 274.180326 167.374306 
L 274.289523 129.782965 
L 274.291842 129.782965 
L 274.370369 108.504847 
L 287.219839 108.504847 
L 287.30853 75.169129 
L 294.848715 75.169129 
L 294.906016 56.373459 
L 300.259249 56.373459 
L 300.30146 46.798306 
L 304.460312 46.798306 
L 304.485987 38.641694 
L 307.887645 38.641694 
L 307.903238 36.513882 
L 310.786613 36.513882 
L 310.806328 31.903624 
L 313.297918 31.903624 
L 313.317272 29.775812 
L 315.51981 29.775812 
L 315.51981 29.421176 
L 317.502416 29.421176 
L 317.502416 29.066541 
L 319.286097 29.066541 
L 319.286097 28.711906 
L 320.934073 28.711906 
L 320.934073 28.357271 
L 322.437279 28.357271 
L 322.437279 28.002635 
L 323.83073 28.002635 
L 323.83073 27.648 
L 360.8064 27.648 
L 360.8064 27.648 
" style="fill: none; stroke: #ff7500; stroke-width: 1.5; stroke-linecap: square"/>
   </g>
   <g id="line2d_46">
    <defs>
     <path id="md94d8075c6" d="M 0 -6 
L -1.347084 -1.854102 
L -5.706339 -1.854102 
L -2.179628 0.708204 
L -3.526712 4.854102 
L -0 2.291796 
L 3.526712 4.854102 
L 2.179628 0.708204 
L 5.706339 -1.854102 
L 1.347084 -1.854102 
z
" style="stroke: #ff7500; stroke-width: 1.5; stroke-linejoin: bevel"/>
    </defs>
    <g>
     <use xlink:href="#md94d8075c6" x="162.79619" y="233.691106" style="fill-opacity: 0; stroke: #ff7500; stroke-width: 1.5; stroke-linejoin: bevel"/>
     <use xlink:href="#md94d8075c6" x="189.280298" y="167.374306" style="fill-opacity: 0; stroke: #ff7500; stroke-width: 1.5; stroke-linejoin: bevel"/>
     <use xlink:href="#md94d8075c6" x="287.269865" y="84.389647" style="fill-opacity: 0; stroke: #ff7500; stroke-width: 1.5; stroke-linejoin: bevel"/>
     <use xlink:href="#md94d8075c6" x="323.83073" y="27.648" style="fill-opacity: 0; stroke: #ff7500; stroke-width: 1.5; stroke-linejoin: bevel"/>
     <use xlink:href="#md94d8075c6" x="360.8064" y="27.648" style="fill-opacity: 0; stroke: #ff7500; stroke-width: 1.5; stroke-linejoin: bevel"/>
    </g>
   </g>
   <g id="line2d_47">
    <path style="fill: none; stroke: #ff7500; stroke-width: 1.5; stroke-linecap: square"/>
    <g/>
   </g>
   <g id="line2d_48">
    <path d="M 274.176 167.374306 
" clip-path="url(#p0eb459f49e)" style="fill: none; stroke: #ff7500; stroke-width: 1.5; stroke-linecap: square"/>
    <defs>
     <path id="mb3d7624e90" d="M -12 12 
L 12 -12 
M -12 -12 
L 12 12 
" style="stroke: #ff7500"/>
    </defs>
    <g clip-path="url(#p0eb459f49e)">
     <use xlink:href="#mb3d7624e90" x="274.176" y="167.374306" style="fill: #ff7500; stroke: #ff7500"/>
    </g>
   </g>
   <g id="line2d_49">
    <path d="M 360.8064 27.648 
L 380.514816 293.51808 
" style="fill: none; stroke: #ff00ff; stroke-width: 1.5; stroke-linecap: square"/>
    <g>
     <use xlink:href="#m83cedb6ab4" x="360.8064" y="27.648" style="fill-opacity: 0; stroke: #ff00ff; stroke-width: 1.5; stroke-linejoin: miter"/>
     <use xlink:href="#m83cedb6ab4" x="380.514816" y="293.51808" style="fill-opacity: 0; stroke: #ff00ff; stroke-width: 1.5; stroke-linejoin: miter"/>
    </g>
   </g>
   <g id="line2d_50">
    <path d="M 360.8064 27.648 
L 380.514816 206.70336 
" style="fill: none; stroke: #000080; stroke-width: 1.5; stroke-linecap: square"/>
    <g>
     <use xlink:href="#m270a81d558" x="360.8064" y="27.648" style="fill-opacity: 0; stroke: #000080; stroke-width: 1.5"/>
     <use xlink:href="#m270a81d558" x="380.514816" y="206.70336" style="fill-opacity: 0; stroke: #000080; stroke-width: 1.5"/>
    </g>
   </g>
   <g id="line2d_51">
    <path d="M 360.8064 27.648 
L 380.514816 119.88864 
" style="fill: none; stroke: #ff7500; stroke-width: 1.5; stroke-linecap: square"/>
    <g>
     <use xlink:href="#md94d8075c6" x="360.8064" y="27.648" style="fill-opacity: 0; stroke: #ff7500; stroke-width: 1.5; stroke-linejoin: bevel"/>
     <use xlink:href="#md94d8075c6" x="380.514816" y="119.88864" style="fill-opacity: 0; stroke: #ff7500; stroke-width: 1.5; stroke-linejoin: bevel"/>
    </g>
   </g>
   <g id="line2d_52">
    <path d="M 360.8064 298.944 
L 360.8064 27.648 
" style="fill: none; stroke: #000000; stroke-width: 1.5; stroke-linecap: square"/>
   </g>
   <g id="patch_3">
    <path d="M 57.6 298.944 
L 360.8064 298.944 
" style="fill: none; stroke: #000000; stroke-width: 0.8; stroke-linejoin: miter; stroke-linecap: square"/>
   </g>
   <g id="patch_4">
    <path d="M 57.6 27.648 
L 360.8064 27.648 
" style="fill: none; stroke: #000000; stroke-width: 0.8; stroke-linejoin: miter; stroke-linecap: square"/>
   </g>
   <g id="text_13">
    <!-- GA -->
    <g transform="translate(386.578944 297.381205)scale(0.14 -0.14)">
     <defs>
      <path id="DejaVuSans-47" d="M 3809 666 
L 3809 1919 
L 2778 1919 
L 2778 2438 
L 4434 2438 
L 4434 434 
Q 4069 175 3628 42 
Q 3188 -91 2688 -91 
Q 1594 -91 976 548 
Q 359 1188 359 2328 
Q 359 3472 976 4111 
Q 1594 4750 2688 4750 
Q 3144 4750 3555 4637 
Q 3966 4525 4313 4306 
L 4313 3634 
Q 3963 3931 3569 4081 
Q 3175 4231 2741 4231 
Q 1884 4231 1454 3753 
Q 1025 3275 1025 2328 
Q 1025 1384 1454 906 
Q 1884 428 2741 428 
Q 3075 428 3337 486 
Q 3600 544 3809 666 
z
" transform="scale(0.015625)"/>
      <path id="DejaVuSans-41" d="M 2188 4044 
L 1331 1722 
L 3047 1722 
L 2188 4044 
z
M 1831 4666 
L 2547 4666 
L 4325 0 
L 3669 0 
L 3244 1197 
L 1141 1197 
L 716 0 
L 50 0 
L 1831 4666 
z
" transform="scale(0.015625)"/>
     </defs>
     <use xlink:href="#DejaVuSans-47"/>
     <use xlink:href="#DejaVuSans-41" x="77.490234"/>
    </g>
   </g>
   <g id="text_14">
    <!-- LCGA -->
    <g transform="translate(386.578944 210.566485)scale(0.14 -0.14)">
     <defs>
      <path id="DejaVuSans-4c" d="M 628 4666 
L 1259 4666 
L 1259 531 
L 3531 531 
L 3531 0 
L 628 0 
L 628 4666 
z
" transform="scale(0.015625)"/>
      <path id="DejaVuSans-43" d="M 4122 4306 
L 4122 3641 
Q 3803 3938 3442 4084 
Q 3081 4231 2675 4231 
Q 1875 4231 1450 3742 
Q 1025 3253 1025 2328 
Q 1025 1406 1450 917 
Q 1875 428 2675 428 
Q 3081 428 3442 575 
Q 3803 722 4122 1019 
L 4122 359 
Q 3791 134 3420 21 
Q 3050 -91 2638 -91 
Q 1578 -91 968 557 
Q 359 1206 359 2328 
Q 359 3453 968 4101 
Q 1578 4750 2638 4750 
Q 3056 4750 3426 4639 
Q 3797 4528 4122 4306 
z
" transform="scale(0.015625)"/>
     </defs>
     <use xlink:href="#DejaVuSans-4c"/>
     <use xlink:href="#DejaVuSans-43" x="55.712891"/>
     <use xlink:href="#DejaVuSans-47" x="125.537109"/>
     <use xlink:href="#DejaVuSans-41" x="203.027344"/>
    </g>
   </g>
   <g id="text_15">
    <!-- PSO -->
    <g transform="translate(386.578944 123.751765)scale(0.14 -0.14)">
     <defs>
      <path id="DejaVuSans-50" d="M 1259 4147 
L 1259 2394 
L 2053 2394 
Q 2494 2394 2734 2622 
Q 2975 2850 2975 3272 
Q 2975 3691 2734 3919 
Q 2494 4147 2053 4147 
L 1259 4147 
z
M 628 4666 
L 2053 4666 
Q 2838 4666 3239 4311 
Q 3641 3956 3641 3272 
Q 3641 2581 3239 2228 
Q 2838 1875 2053 1875 
L 1259 1875 
L 1259 0 
L 628 0 
L 628 4666 
z
" transform="scale(0.015625)"/>
      <path id="DejaVuSans-53" d="M 3425 4513 
L 3425 3897 
Q 3066 4069 2747 4153 
Q 2428 4238 2131 4238 
Q 1616 4238 1336 4038 
Q 1056 3838 1056 3469 
Q 1056 3159 1242 3001 
Q 1428 2844 1947 2747 
L 2328 2669 
Q 3034 2534 3370 2195 
Q 3706 1856 3706 1288 
Q 3706 609 3251 259 
Q 2797 -91 1919 -91 
Q 1588 -91 1214 -16 
Q 841 59 441 206 
L 441 856 
Q 825 641 1194 531 
Q 1563 422 1919 422 
Q 2459 422 2753 634 
Q 3047 847 3047 1241 
Q 3047 1584 2836 1778 
Q 2625 1972 2144 2069 
L 1759 2144 
Q 1053 2284 737 2584 
Q 422 2884 422 3419 
Q 422 4038 858 4394 
Q 1294 4750 2059 4750 
Q 2388 4750 2728 4690 
Q 3069 4631 3425 4513 
z
" transform="scale(0.015625)"/>
      <path id="DejaVuSans-4f" d="M 2522 4238 
Q 1834 4238 1429 3725 
Q 1025 3213 1025 2328 
Q 1025 1447 1429 934 
Q 1834 422 2522 422 
Q 3209 422 3611 934 
Q 4013 1447 4013 2328 
Q 4013 3213 3611 3725 
Q 3209 4238 2522 4238 
z
M 2522 4750 
Q 3503 4750 4090 4092 
Q 4678 3434 4678 2328 
Q 4678 1225 4090 567 
Q 3503 -91 2522 -91 
Q 1538 -91 948 565 
Q 359 1222 359 2328 
Q 359 3434 948 4092 
Q 1538 4750 2522 4750 
z
" transform="scale(0.015625)"/>
     </defs>
     <use xlink:href="#DejaVuSans-50"/>
     <use xlink:href="#DejaVuSans-53" x="60.302734"/>
     <use xlink:href="#DejaVuSans-4f" x="123.779297"/>
    </g>
   </g>
   <g id="text_16">
    <!-- best 2009 -->
    <g transform="translate(386.578944 36.937045)scale(0.14 -0.14)">
     <defs>
      <path id="DejaVuSans-62" d="M 3116 1747 
Q 3116 2381 2855 2742 
Q 2594 3103 2138 3103 
Q 1681 3103 1420 2742 
Q 1159 2381 1159 1747 
Q 1159 1113 1420 752 
Q 1681 391 2138 391 
Q 2594 391 2855 752 
Q 3116 1113 3116 1747 
z
M 1159 2969 
Q 1341 3281 1617 3432 
Q 1894 3584 2278 3584 
Q 2916 3584 3314 3078 
Q 3713 2572 3713 1747 
Q 3713 922 3314 415 
Q 2916 -91 2278 -91 
Q 1894 -91 1617 61 
Q 1341 213 1159 525 
L 1159 0 
L 581 0 
L 581 4863 
L 1159 4863 
L 1159 2969 
z
" transform="scale(0.015625)"/>
      <path id="DejaVuSans-39" d="M 703 97 
L 703 672 
Q 941 559 1184 500 
Q 1428 441 1663 441 
Q 2288 441 2617 861 
Q 2947 1281 2994 2138 
Q 2813 1869 2534 1725 
Q 2256 1581 1919 1581 
Q 1219 1581 811 2004 
Q 403 2428 403 3163 
Q 403 3881 828 4315 
Q 1253 4750 1959 4750 
Q 2769 4750 3195 4129 
Q 3622 3509 3622 2328 
Q 3622 1225 3098 567 
Q 2575 -91 1691 -91 
Q 1453 -91 1209 -44 
Q 966 3 703 97 
z
M 1959 2075 
Q 2384 2075 2632 2365 
Q 2881 2656 2881 3163 
Q 2881 3666 2632 3958 
Q 2384 4250 1959 4250 
Q 1534 4250 1286 3958 
Q 1038 3666 1038 3163 
Q 1038 2656 1286 2365 
Q 1534 2075 1959 2075 
z
" transform="scale(0.015625)"/>
     </defs>
     <use xlink:href="#DejaVuSans-62"/>
     <use xlink:href="#DejaVuSans-65" x="63.476562"/>
     <use xlink:href="#DejaVuSans-73" x="125"/>
     <use xlink:href="#DejaVuSans-74" x="177.099609"/>
     <use xlink:href="#DejaVuSans-20" x="216.308594"/>
     <use xlink:href="#DejaVuSans-32" x="248.095703"/>
     <use xlink:href="#DejaVuSans-30" x="311.71875"/>
     <use xlink:href="#DejaVuSans-30" x="375.341797"/>
     <use xlink:href="#DejaVuSans-39" x="438.964844"/>
    </g>
   </g>
   <g id="text_17">
    <!-- bbob f21, 10-D -->
    <g transform="translate(60.632064 38.111366)scale(0.102 -0.102)">
     <defs>
      <path id="DejaVuSans-44" d="M 1259 4147 
L 1259 519 
L 2022 519 
Q 2988 519 3436 956 
Q 3884 1394 3884 2338 
Q 3884 3275 3436 3711 
Q 2988 4147 2022 4147 
L 1259 4147 
z
M 628 4666 
L 1925 4666 
Q 3281 4666 3915 4102 
Q 4550 3538 4550 2338 
Q 4550 1131 3912 565 
Q 3275 0 1925 0 
L 628 0 
L 628 4666 
z
" transform="scale(0.015625)"/>
     </defs>
     <use xlink:href="#DejaVuSans-62"/>
     <use xlink:href="#DejaVuSans-62" x="63.476562"/>
     <use xlink:href="#DejaVuSans-6f" x="126.953125"/>
     <use xlink:href="#DejaVuSans-62" x="188.134766"/>
     <use xlink:href="#DejaVuSans-20" x="251.611328"/>
     <use xlink:href="#DejaVuSans-66" x="283.398438"/>
     <use xlink:href="#DejaVuSans-32" x="318.603516"/>
     <use xlink:href="#DejaVuSans-31" x="382.226562"/>
     <use xlink:href="#DejaVuSans-2c" x="445.849609"/>
     <use xlink:href="#DejaVuSans-20" x="477.636719"/>
     <use xlink:href="#DejaVuSans-31" x="509.423828"/>
     <use xlink:href="#DejaVuSans-30" x="573.046875"/>
     <use xlink:href="#DejaVuSans-2d" x="636.669922"/>
     <use xlink:href="#DejaVuSans-44" x="672.753906"/>
    </g>
    <!-- 51 targets: 100..1e-08 -->
    <g transform="translate(60.632064 49.533135)scale(0.102 -0.102)">
     <defs>
      <path id="DejaVuSans-35" d="M 691 4666 
L 3169 4666 
L 3169 4134 
L 1269 4134 
L 1269 2991 
Q 1406 3038 1543 3061 
Q 1681 3084 1819 3084 
Q 2600 3084 3056 2656 
Q 3513 2228 3513 1497 
Q 3513 744 3044 326 
Q 2575 -91 1722 -91 
Q 1428 -91 1123 -41 
Q 819 9 494 109 
L 494 744 
Q 775 591 1075 516 
Q 1375 441 1709 441 
Q 2250 441 2565 725 
Q 2881 1009 2881 1497 
Q 2881 1984 2565 2268 
Q 2250 2553 1709 2553 
Q 1456 2553 1204 2497 
Q 953 2441 691 2322 
L 691 4666 
z
" transform="scale(0.015625)"/>
      <path id="DejaVuSans-3a" d="M 750 794 
L 1409 794 
L 1409 0 
L 750 0 
L 750 794 
z
M 750 3309 
L 1409 3309 
L 1409 2516 
L 750 2516 
L 750 3309 
z
" transform="scale(0.015625)"/>
     </defs>
     <use xlink:href="#DejaVuSans-35"/>
     <use xlink:href="#DejaVuSans-31" x="63.623047"/>
     <use xlink:href="#DejaVuSans-20" x="127.246094"/>
     <use xlink:href="#DejaVuSans-74" x="159.033203"/>
     <use xlink:href="#DejaVuSans-61" x="198.242188"/>
     <use xlink:href="#DejaVuSans-72" x="259.521484"/>
     <use xlink:href="#DejaVuSans-67" x="298.884766"/>
     <use xlink:href="#DejaVuSans-65" x="362.361328"/>
     <use xlink:href="#DejaVuSans-74" x="423.884766"/>
     <use xlink:href="#DejaVuSans-73" x="463.09375"/>
     <use xlink:href="#DejaVuSans-3a" x="515.193359"/>
     <use xlink:href="#DejaVuSans-20" x="548.884766"/>
     <use xlink:href="#DejaVuSans-31" x="580.671875"/>
     <use xlink:href="#DejaVuSans-30" x="644.294922"/>
     <use xlink:href="#DejaVuSans-30" x="707.917969"/>
     <use xlink:href="#DejaVuSans-2e" x="771.541016"/>
     <use xlink:href="#DejaVuSans-2e" x="803.328125"/>
     <use xlink:href="#DejaVuSans-31" x="835.115234"/>
     <use xlink:href="#DejaVuSans-65" x="898.738281"/>
     <use xlink:href="#DejaVuSans-2d" x="960.261719"/>
     <use xlink:href="#DejaVuSans-30" x="996.345703"/>
     <use xlink:href="#DejaVuSans-38" x="1059.96875"/>
    </g>
    <!-- 15 instances -->
    <g transform="translate(60.632064 60.954904)scale(0.102 -0.102)">
     <use xlink:href="#DejaVuSans-31"/>
     <use xlink:href="#DejaVuSans-35" x="63.623047"/>
     <use xlink:href="#DejaVuSans-20" x="127.246094"/>
     <use xlink:href="#DejaVuSans-69" x="159.033203"/>
     <use xlink:href="#DejaVuSans-6e" x="186.816406"/>
     <use xlink:href="#DejaVuSans-73" x="250.195312"/>
     <use xlink:href="#DejaVuSans-74" x="302.294922"/>
     <use xlink:href="#DejaVuSans-61" x="341.503906"/>
     <use xlink:href="#DejaVuSans-6e" x="402.783203"/>
     <use xlink:href="#DejaVuSans-63" x="466.162109"/>
     <use xlink:href="#DejaVuSans-65" x="521.142578"/>
     <use xlink:href="#DejaVuSans-73" x="582.666016"/>
    </g>
   </g>
   <g id="text_18">
    <!-- v2.6 -->
    <g style="fill: #808080" transform="translate(198.292262 294.151352)scale(0.1 -0.1)">
     <use xlink:href="#DejaVuSans-76"/>
     <use xlink:href="#DejaVuSans-32" x="59.179688"/>
     <use xlink:href="#DejaVuSans-2e" x="122.802734"/>
     <use xlink:href="#DejaVuSans-36" x="154.589844"/>
    </g>
   </g>
   <g id="text_19">
    <!-- 21 Gallagher 101 peaks -->
    <g transform="translate(89.7157 21.648)scale(0.2 -0.2)">
     <defs>
      <path id="DejaVuSans-68" d="M 3513 2113 
L 3513 0 
L 2938 0 
L 2938 2094 
Q 2938 2591 2744 2837 
Q 2550 3084 2163 3084 
Q 1697 3084 1428 2787 
Q 1159 2491 1159 1978 
L 1159 0 
L 581 0 
L 581 4863 
L 1159 4863 
L 1159 2956 
Q 1366 3272 1645 3428 
Q 1925 3584 2291 3584 
Q 2894 3584 3203 3211 
Q 3513 2838 3513 2113 
z
" transform="scale(0.015625)"/>
      <path id="DejaVuSans-6b" d="M 581 4863 
L 1159 4863 
L 1159 1991 
L 2875 3500 
L 3609 3500 
L 1753 1863 
L 3688 0 
L 2938 0 
L 1159 1709 
L 1159 0 
L 581 0 
L 581 4863 
z
" transform="scale(0.015625)"/>
     </defs>
     <use xlink:href="#DejaVuSans-32"/>
     <use xlink:href="#DejaVuSans-31" x="63.623047"/>
     <use xlink:href="#DejaVuSans-20" x="127.246094"/>
     <use xlink:href="#DejaVuSans-47" x="159.033203"/>
     <use xlink:href="#DejaVuSans-61" x="236.523438"/>
     <use xlink:href="#DejaVuSans-6c" x="297.802734"/>
     <use xlink:href="#DejaVuSans-6c" x="325.585938"/>
     <use xlink:href="#DejaVuSans-61" x="353.369141"/>
     <use xlink:href="#DejaVuSans-67" x="414.648438"/>
     <use xlink:href="#DejaVuSans-68" x="478.125"/>
     <use xlink:href="#DejaVuSans-65" x="541.503906"/>
     <use xlink:href="#DejaVuSans-72" x="603.027344"/>
     <use xlink:href="#DejaVuSans-20" x="644.140625"/>
     <use xlink:href="#DejaVuSans-31" x="675.927734"/>
     <use xlink:href="#DejaVuSans-30" x="739.550781"/>
     <use xlink:href="#DejaVuSans-31" x="803.173828"/>
     <use xlink:href="#DejaVuSans-20" x="866.796875"/>
     <use xlink:href="#DejaVuSans-70" x="898.583984"/>
     <use xlink:href="#DejaVuSans-65" x="962.060547"/>
     <use xlink:href="#DejaVuSans-61" x="1023.583984"/>
     <use xlink:href="#DejaVuSans-6b" x="1084.863281"/>
     <use xlink:href="#DejaVuSans-73" x="1142.773438"/>
    </g>
   </g>
  </g>
 </g>
 <defs>
  <clipPath id="p0eb459f49e">
   <rect x="57.6" y="27.648" width="303.2064" height="271.296"/>
  </clipPath>
 </defs>
</svg>
