<?xml version="1.0" encoding="utf-8" standalone="no"?>
<!DOCTYPE svg PUBLIC "-//W3C//DTD SVG 1.1//EN"
  "http://www.w3.org/Graphics/SVG/1.1/DTD/svg11.dtd">
<svg xmlns:xlink="http://www.w3.org/1999/xlink" width="460.8pt" height="345.6pt" viewBox="0 0 460.8 345.6" xmlns="http://www.w3.org/2000/svg" version="1.1">
 <metadata>
  <rdf:RDF xmlns:dc="http://purl.org/dc/elements/1.1/" xmlns:cc="http://creativecommons.org/ns#" xmlns:rdf="http://www.w3.org/1999/02/22-rdf-syntax-ns#">
   <cc:Work>
    <dc:type rdf:resource="http://purl.org/dc/dcmitype/StillImage"/>
    <dc:date>2024-05-29T08:05:52.154476</dc:date>
    <dc:format>image/svg+xml</dc:format>
    <dc:creator>
     <cc:Agent>
      <dc:title>Matplotlib v3.5.1, https://matplotlib.org/</dc:title>
     </cc:Agent>
    </dc:creator>
   </cc:Work>
  </rdf:RDF>
 </metadata>
 <defs>
  <style type="text/css">*{stroke-linejoin: round; stroke-linecap: butt}</style>
 </defs>
 <g id="figure_1">
  <g id="patch_1">
   <path d="M 0 345.6 
L 460.8 345.6 
L 460.8 0 
L 0 0 
z
" style="fill: #ffffff"/>
  </g>
  <g id="axes_1">
   <g id="patch_2">
    <path d="M 57.6 298.944 
L 360.8064 298.944 
L 360.8064 27.648 
L 57.6 27.648 
z
" style="fill: #ffffff"/>
   </g>
   <g id="line2d_1">
    <path d="M 106.326946 298.944 
L 106.326946 293.624471 
L 108.542628 293.624471 
L 108.542628 288.304941 
L 109.360651 288.304941 
L 109.360651 282.985412 
L 109.756698 282.985412 
L 109.756698 277.665882 
L 112.656511 277.665882 
L 112.656511 272.346353 
L 115.460102 272.346353 
L 115.460102 267.026824 
L 119.129494 267.026824 
L 119.129494 261.707294 
L 122.795872 261.707294 
L 122.795872 256.387765 
L 124.836562 256.387765 
L 124.836562 251.068235 
L 128.354013 251.068235 
L 128.354013 245.748706 
L 133.323114 245.748706 
L 133.323114 240.429176 
L 136.97549 240.429176 
L 136.97549 235.109647 
L 139.232111 235.109647 
L 139.232111 229.790118 
L 144.602918 229.790118 
L 144.602918 224.470588 
L 145.678157 224.470588 
L 145.678157 219.151059 
L 146.47393 219.151059 
L 146.47393 213.831529 
L 147.343984 213.831529 
L 147.343984 208.512 
L 148.124658 208.512 
L 148.124658 203.192471 
L 148.874221 203.192471 
L 148.874221 197.872941 
L 149.357835 197.872941 
L 149.357835 192.553412 
L 149.689117 192.553412 
L 149.689117 187.233882 
L 150.198193 187.233882 
L 150.198193 181.914353 
L 150.470172 181.914353 
L 150.470172 176.594824 
L 150.78259 176.594824 
L 150.78259 171.275294 
L 151.306379 171.275294 
L 151.306379 165.955765 
L 151.647641 165.955765 
L 151.647641 160.636235 
L 153.5746 160.636235 
L 153.5746 155.316706 
L 156.857511 155.316706 
L 156.857511 149.997176 
L 157.269574 149.997176 
L 157.269574 144.677647 
L 157.672805 144.677647 
L 157.672805 139.358118 
L 158.007377 139.358118 
L 158.007377 134.038588 
L 158.336102 134.038588 
L 158.336102 128.719059 
L 158.890711 128.719059 
L 158.890711 123.399529 
L 159.260973 123.399529 
L 159.260973 118.08 
L 159.679334 118.08 
L 159.679334 112.760471 
L 160.061585 112.760471 
L 160.061585 107.440941 
L 160.329943 107.440941 
L 160.329943 102.121412 
L 160.568234 102.121412 
L 160.568234 96.801882 
L 160.855439 96.801882 
L 160.855439 91.482353 
L 161.163832 91.482353 
L 161.163832 86.162824 
L 161.391854 86.162824 
L 161.391854 80.843294 
L 161.567313 80.843294 
L 161.567313 75.523765 
L 161.937874 75.523765 
L 161.937874 70.204235 
L 162.084079 70.204235 
L 162.084079 64.884706 
L 162.277267 64.884706 
L 162.277267 59.565176 
L 162.444694 59.565176 
L 162.444694 54.245647 
L 162.634233 54.245647 
L 162.634233 48.926118 
L 162.751732 48.926118 
L 162.751732 43.606588 
L 162.938218 43.606588 
L 162.938218 38.287059 
L 163.076878 38.287059 
L 163.076878 32.967529 
L 163.214524 32.967529 
L 163.214524 27.648 
L 360.8064 27.648 
" style="fill: none; stroke: #f5deb3; stroke-width: 4; stroke-linecap: square"/>
   </g>
   <g id="line2d_2">
    <defs>
     <path id="mec97a2bd20" d="M 0 7.778175 
L 7.778175 0 
L 0 -7.778175 
L -7.778175 0 
z
" style="stroke: #f5deb3; stroke-width: 1.5; stroke-linejoin: miter"/>
    </defs>
    <g>
     <use xlink:href="#mec97a2bd20" x="119.129494" y="261.707294" style="fill: #f5deb3; stroke: #f5deb3; stroke-width: 1.5; stroke-linejoin: miter"/>
     <use xlink:href="#mec97a2bd20" x="158.890711" y="128.719059" style="fill: #f5deb3; stroke: #f5deb3; stroke-width: 1.5; stroke-linejoin: miter"/>
     <use xlink:href="#mec97a2bd20" x="163.214524" y="32.967529" style="fill: #f5deb3; stroke: #f5deb3; stroke-width: 1.5; stroke-linejoin: miter"/>
     <use xlink:href="#mec97a2bd20" x="163.214524" y="27.648" style="fill: #f5deb3; stroke: #f5deb3; stroke-width: 1.5; stroke-linejoin: miter"/>
     <use xlink:href="#mec97a2bd20" x="360.8064" y="27.648" style="fill: #f5deb3; stroke: #f5deb3; stroke-width: 1.5; stroke-linejoin: miter"/>
    </g>
   </g>
   <g id="line2d_3">
    <path style="fill: none; stroke: #f5deb3; stroke-width: 4; stroke-linecap: square"/>
    <g/>
   </g>
   <g id="line2d_4">
    <path d="M 360.8064 27.648 
L 380.514816 33.07392 
" style="fill: none; stroke: #f5deb3; stroke-width: 4; stroke-linecap: square"/>
    <g>
     <use xlink:href="#mec97a2bd20" x="360.8064" y="27.648" style="fill: #f5deb3; stroke: #f5deb3; stroke-width: 1.5; stroke-linejoin: miter"/>
     <use xlink:href="#mec97a2bd20" x="380.514816" y="33.07392" style="fill: #f5deb3; stroke: #f5deb3; stroke-width: 1.5; stroke-linejoin: miter"/>
    </g>
   </g>
   <g id="matplotlib.axis_1">
    <g id="xtick_1">
     <g id="line2d_5">
      <path d="M 57.6 298.944 
L 57.6 27.648 
" clip-path="url(#pc70d819e1b)" style="fill: none; stroke: #b0b0b0; stroke-width: 0.8; stroke-linecap: square"/>
     </g>
     <g id="line2d_6">
      <defs>
       <path id="m32f8dfdf4d" d="M 0 0 
L 0 3.5 
" style="stroke: #000000; stroke-width: 0.8"/>
      </defs>
      <g>
       <use xlink:href="#m32f8dfdf4d" x="57.6" y="298.944" style="stroke: #000000; stroke-width: 0.8"/>
      </g>
     </g>
     <g id="text_1">
      <!-- 0 -->
      <g transform="translate(52.191875 318.861344)scale(0.17 -0.17)">
       <defs>
        <path id="DejaVuSans-30" d="M 2034 4250 
Q 1547 4250 1301 3770 
Q 1056 3291 1056 2328 
Q 1056 1369 1301 889 
Q 1547 409 2034 409 
Q 2525 409 2770 889 
Q 3016 1369 3016 2328 
Q 3016 3291 2770 3770 
Q 2525 4250 2034 4250 
z
M 2034 4750 
Q 2819 4750 3233 4129 
Q 3647 3509 3647 2328 
Q 3647 1150 3233 529 
Q 2819 -91 2034 -91 
Q 1250 -91 836 529 
Q 422 1150 422 2328 
Q 422 3509 836 4129 
Q 1250 4750 2034 4750 
z
" transform="scale(0.015625)"/>
       </defs>
       <use xlink:href="#DejaVuSans-30"/>
      </g>
     </g>
    </g>
    <g id="xtick_2">
     <g id="line2d_7">
      <path d="M 144.2304 298.944 
L 144.2304 27.648 
" clip-path="url(#pc70d819e1b)" style="fill: none; stroke: #b0b0b0; stroke-width: 0.8; stroke-linecap: square"/>
     </g>
     <g id="line2d_8">
      <g>
       <use xlink:href="#m32f8dfdf4d" x="144.2304" y="298.944" style="stroke: #000000; stroke-width: 0.8"/>
      </g>
     </g>
     <g id="text_2">
      <!-- 2 -->
      <g transform="translate(138.822275 318.861344)scale(0.17 -0.17)">
       <defs>
        <path id="DejaVuSans-32" d="M 1228 531 
L 3431 531 
L 3431 0 
L 469 0 
L 469 531 
Q 828 903 1448 1529 
Q 2069 2156 2228 2338 
Q 2531 2678 2651 2914 
Q 2772 3150 2772 3378 
Q 2772 3750 2511 3984 
Q 2250 4219 1831 4219 
Q 1534 4219 1204 4116 
Q 875 4013 500 3803 
L 500 4441 
Q 881 4594 1212 4672 
Q 1544 4750 1819 4750 
Q 2544 4750 2975 4387 
Q 3406 4025 3406 3419 
Q 3406 3131 3298 2873 
Q 3191 2616 2906 2266 
Q 2828 2175 2409 1742 
Q 1991 1309 1228 531 
z
" transform="scale(0.015625)"/>
       </defs>
       <use xlink:href="#DejaVuSans-32"/>
      </g>
     </g>
    </g>
    <g id="xtick_3">
     <g id="line2d_9">
      <path d="M 230.8608 298.944 
L 230.8608 27.648 
" clip-path="url(#pc70d819e1b)" style="fill: none; stroke: #b0b0b0; stroke-width: 0.8; stroke-linecap: square"/>
     </g>
     <g id="line2d_10">
      <g>
       <use xlink:href="#m32f8dfdf4d" x="230.8608" y="298.944" style="stroke: #000000; stroke-width: 0.8"/>
      </g>
     </g>
     <g id="text_3">
      <!-- 4 -->
      <g transform="translate(225.452675 318.861344)scale(0.17 -0.17)">
       <defs>
        <path id="DejaVuSans-34" d="M 2419 4116 
L 825 1625 
L 2419 1625 
L 2419 4116 
z
M 2253 4666 
L 3047 4666 
L 3047 1625 
L 3713 1625 
L 3713 1100 
L 3047 1100 
L 3047 0 
L 2419 0 
L 2419 1100 
L 313 1100 
L 313 1709 
L 2253 4666 
z
" transform="scale(0.015625)"/>
       </defs>
       <use xlink:href="#DejaVuSans-34"/>
      </g>
     </g>
    </g>
    <g id="xtick_4">
     <g id="line2d_11">
      <path d="M 317.4912 298.944 
L 317.4912 27.648 
" clip-path="url(#pc70d819e1b)" style="fill: none; stroke: #b0b0b0; stroke-width: 0.8; stroke-linecap: square"/>
     </g>
     <g id="line2d_12">
      <g>
       <use xlink:href="#m32f8dfdf4d" x="317.4912" y="298.944" style="stroke: #000000; stroke-width: 0.8"/>
      </g>
     </g>
     <g id="text_4">
      <!-- 6 -->
      <g transform="translate(312.083075 318.861344)scale(0.17 -0.17)">
       <defs>
        <path id="DejaVuSans-36" d="M 2113 2584 
Q 1688 2584 1439 2293 
Q 1191 2003 1191 1497 
Q 1191 994 1439 701 
Q 1688 409 2113 409 
Q 2538 409 2786 701 
Q 3034 994 3034 1497 
Q 3034 2003 2786 2293 
Q 2538 2584 2113 2584 
z
M 3366 4563 
L 3366 3988 
Q 3128 4100 2886 4159 
Q 2644 4219 2406 4219 
Q 1781 4219 1451 3797 
Q 1122 3375 1075 2522 
Q 1259 2794 1537 2939 
Q 1816 3084 2150 3084 
Q 2853 3084 3261 2657 
Q 3669 2231 3669 1497 
Q 3669 778 3244 343 
Q 2819 -91 2113 -91 
Q 1303 -91 875 529 
Q 447 1150 447 2328 
Q 447 3434 972 4092 
Q 1497 4750 2381 4750 
Q 2619 4750 2861 4703 
Q 3103 4656 3366 4563 
z
" transform="scale(0.015625)"/>
       </defs>
       <use xlink:href="#DejaVuSans-36"/>
      </g>
     </g>
    </g>
    <g id="xtick_5">
     <g id="line2d_13">
      <path d="M 100.9152 298.944 
L 100.9152 27.648 
" clip-path="url(#pc70d819e1b)" style="fill: none; stroke: #b0b0b0; stroke-width: 0.8; stroke-linecap: square"/>
     </g>
     <g id="line2d_14">
      <defs>
       <path id="m74fd3a9f8d" d="M 0 0 
L 0 2 
" style="stroke: #000000; stroke-width: 0.6"/>
      </defs>
      <g>
       <use xlink:href="#m74fd3a9f8d" x="100.9152" y="298.944" style="stroke: #000000; stroke-width: 0.6"/>
      </g>
     </g>
    </g>
    <g id="xtick_6">
     <g id="line2d_15">
      <path d="M 187.5456 298.944 
L 187.5456 27.648 
" clip-path="url(#pc70d819e1b)" style="fill: none; stroke: #b0b0b0; stroke-width: 0.8; stroke-linecap: square"/>
     </g>
     <g id="line2d_16">
      <g>
       <use xlink:href="#m74fd3a9f8d" x="187.5456" y="298.944" style="stroke: #000000; stroke-width: 0.6"/>
      </g>
     </g>
    </g>
    <g id="xtick_7">
     <g id="line2d_17">
      <path d="M 274.176 298.944 
L 274.176 27.648 
" clip-path="url(#pc70d819e1b)" style="fill: none; stroke: #b0b0b0; stroke-width: 0.8; stroke-linecap: square"/>
     </g>
     <g id="line2d_18">
      <g>
       <use xlink:href="#m74fd3a9f8d" x="274.176" y="298.944" style="stroke: #000000; stroke-width: 0.6"/>
      </g>
     </g>
    </g>
    <g id="xtick_8">
     <g id="line2d_19">
      <path d="M 360.8064 298.944 
L 360.8064 27.648 
" clip-path="url(#pc70d819e1b)" style="fill: none; stroke: #b0b0b0; stroke-width: 0.8; stroke-linecap: square"/>
     </g>
     <g id="line2d_20">
      <g>
       <use xlink:href="#m74fd3a9f8d" x="360.8064" y="298.944" style="stroke: #000000; stroke-width: 0.6"/>
      </g>
     </g>
    </g>
    <g id="text_5">
     <!-- log10(# f-evals / dimension) -->
     <g transform="translate(88.823278 339.314156)scale(0.17 -0.17)">
      <defs>
       <path id="DejaVuSans-6c" d="M 603 4863 
L 1178 4863 
L 1178 0 
L 603 0 
L 603 4863 
z
" transform="scale(0.015625)"/>
       <path id="DejaVuSans-6f" d="M 1959 3097 
Q 1497 3097 1228 2736 
Q 959 2375 959 1747 
Q 959 1119 1226 758 
Q 1494 397 1959 397 
Q 2419 397 2687 759 
Q 2956 1122 2956 1747 
Q 2956 2369 2687 2733 
Q 2419 3097 1959 3097 
z
M 1959 3584 
Q 2709 3584 3137 3096 
Q 3566 2609 3566 1747 
Q 3566 888 3137 398 
Q 2709 -91 1959 -91 
Q 1206 -91 779 398 
Q 353 888 353 1747 
Q 353 2609 779 3096 
Q 1206 3584 1959 3584 
z
" transform="scale(0.015625)"/>
       <path id="DejaVuSans-67" d="M 2906 1791 
Q 2906 2416 2648 2759 
Q 2391 3103 1925 3103 
Q 1463 3103 1205 2759 
Q 947 2416 947 1791 
Q 947 1169 1205 825 
Q 1463 481 1925 481 
Q 2391 481 2648 825 
Q 2906 1169 2906 1791 
z
M 3481 434 
Q 3481 -459 3084 -895 
Q 2688 -1331 1869 -1331 
Q 1566 -1331 1297 -1286 
Q 1028 -1241 775 -1147 
L 775 -588 
Q 1028 -725 1275 -790 
Q 1522 -856 1778 -856 
Q 2344 -856 2625 -561 
Q 2906 -266 2906 331 
L 2906 616 
Q 2728 306 2450 153 
Q 2172 0 1784 0 
Q 1141 0 747 490 
Q 353 981 353 1791 
Q 353 2603 747 3093 
Q 1141 3584 1784 3584 
Q 2172 3584 2450 3431 
Q 2728 3278 2906 2969 
L 2906 3500 
L 3481 3500 
L 3481 434 
z
" transform="scale(0.015625)"/>
       <path id="DejaVuSans-31" d="M 794 531 
L 1825 531 
L 1825 4091 
L 703 3866 
L 703 4441 
L 1819 4666 
L 2450 4666 
L 2450 531 
L 3481 531 
L 3481 0 
L 794 0 
L 794 531 
z
" transform="scale(0.015625)"/>
       <path id="DejaVuSans-28" d="M 1984 4856 
Q 1566 4138 1362 3434 
Q 1159 2731 1159 2009 
Q 1159 1288 1364 580 
Q 1569 -128 1984 -844 
L 1484 -844 
Q 1016 -109 783 600 
Q 550 1309 550 2009 
Q 550 2706 781 3412 
Q 1013 4119 1484 4856 
L 1984 4856 
z
" transform="scale(0.015625)"/>
       <path id="DejaVuSans-23" d="M 3272 2816 
L 2363 2816 
L 2100 1772 
L 3016 1772 
L 3272 2816 
z
M 2803 4594 
L 2478 3297 
L 3391 3297 
L 3719 4594 
L 4219 4594 
L 3897 3297 
L 4872 3297 
L 4872 2816 
L 3775 2816 
L 3519 1772 
L 4513 1772 
L 4513 1294 
L 3397 1294 
L 3072 0 
L 2572 0 
L 2894 1294 
L 1978 1294 
L 1656 0 
L 1153 0 
L 1478 1294 
L 494 1294 
L 494 1772 
L 1594 1772 
L 1856 2816 
L 850 2816 
L 850 3297 
L 1978 3297 
L 2297 4594 
L 2803 4594 
z
" transform="scale(0.015625)"/>
       <path id="DejaVuSans-20" transform="scale(0.015625)"/>
       <path id="DejaVuSans-66" d="M 2375 4863 
L 2375 4384 
L 1825 4384 
Q 1516 4384 1395 4259 
Q 1275 4134 1275 3809 
L 1275 3500 
L 2222 3500 
L 2222 3053 
L 1275 3053 
L 1275 0 
L 697 0 
L 697 3053 
L 147 3053 
L 147 3500 
L 697 3500 
L 697 3744 
Q 697 4328 969 4595 
Q 1241 4863 1831 4863 
L 2375 4863 
z
" transform="scale(0.015625)"/>
       <path id="DejaVuSans-2d" d="M 313 2009 
L 1997 2009 
L 1997 1497 
L 313 1497 
L 313 2009 
z
" transform="scale(0.015625)"/>
       <path id="DejaVuSans-65" d="M 3597 1894 
L 3597 1613 
L 953 1613 
Q 991 1019 1311 708 
Q 1631 397 2203 397 
Q 2534 397 2845 478 
Q 3156 559 3463 722 
L 3463 178 
Q 3153 47 2828 -22 
Q 2503 -91 2169 -91 
Q 1331 -91 842 396 
Q 353 884 353 1716 
Q 353 2575 817 3079 
Q 1281 3584 2069 3584 
Q 2775 3584 3186 3129 
Q 3597 2675 3597 1894 
z
M 3022 2063 
Q 3016 2534 2758 2815 
Q 2500 3097 2075 3097 
Q 1594 3097 1305 2825 
Q 1016 2553 972 2059 
L 3022 2063 
z
" transform="scale(0.015625)"/>
       <path id="DejaVuSans-76" d="M 191 3500 
L 800 3500 
L 1894 563 
L 2988 3500 
L 3597 3500 
L 2284 0 
L 1503 0 
L 191 3500 
z
" transform="scale(0.015625)"/>
       <path id="DejaVuSans-61" d="M 2194 1759 
Q 1497 1759 1228 1600 
Q 959 1441 959 1056 
Q 959 750 1161 570 
Q 1363 391 1709 391 
Q 2188 391 2477 730 
Q 2766 1069 2766 1631 
L 2766 1759 
L 2194 1759 
z
M 3341 1997 
L 3341 0 
L 2766 0 
L 2766 531 
Q 2569 213 2275 61 
Q 1981 -91 1556 -91 
Q 1019 -91 701 211 
Q 384 513 384 1019 
Q 384 1609 779 1909 
Q 1175 2209 1959 2209 
L 2766 2209 
L 2766 2266 
Q 2766 2663 2505 2880 
Q 2244 3097 1772 3097 
Q 1472 3097 1187 3025 
Q 903 2953 641 2809 
L 641 3341 
Q 956 3463 1253 3523 
Q 1550 3584 1831 3584 
Q 2591 3584 2966 3190 
Q 3341 2797 3341 1997 
z
" transform="scale(0.015625)"/>
       <path id="DejaVuSans-73" d="M 2834 3397 
L 2834 2853 
Q 2591 2978 2328 3040 
Q 2066 3103 1784 3103 
Q 1356 3103 1142 2972 
Q 928 2841 928 2578 
Q 928 2378 1081 2264 
Q 1234 2150 1697 2047 
L 1894 2003 
Q 2506 1872 2764 1633 
Q 3022 1394 3022 966 
Q 3022 478 2636 193 
Q 2250 -91 1575 -91 
Q 1294 -91 989 -36 
Q 684 19 347 128 
L 347 722 
Q 666 556 975 473 
Q 1284 391 1588 391 
Q 1994 391 2212 530 
Q 2431 669 2431 922 
Q 2431 1156 2273 1281 
Q 2116 1406 1581 1522 
L 1381 1569 
Q 847 1681 609 1914 
Q 372 2147 372 2553 
Q 372 3047 722 3315 
Q 1072 3584 1716 3584 
Q 2034 3584 2315 3537 
Q 2597 3491 2834 3397 
z
" transform="scale(0.015625)"/>
       <path id="DejaVuSans-2f" d="M 1625 4666 
L 2156 4666 
L 531 -594 
L 0 -594 
L 1625 4666 
z
" transform="scale(0.015625)"/>
       <path id="DejaVuSans-64" d="M 2906 2969 
L 2906 4863 
L 3481 4863 
L 3481 0 
L 2906 0 
L 2906 525 
Q 2725 213 2448 61 
Q 2172 -91 1784 -91 
Q 1150 -91 751 415 
Q 353 922 353 1747 
Q 353 2572 751 3078 
Q 1150 3584 1784 3584 
Q 2172 3584 2448 3432 
Q 2725 3281 2906 2969 
z
M 947 1747 
Q 947 1113 1208 752 
Q 1469 391 1925 391 
Q 2381 391 2643 752 
Q 2906 1113 2906 1747 
Q 2906 2381 2643 2742 
Q 2381 3103 1925 3103 
Q 1469 3103 1208 2742 
Q 947 2381 947 1747 
z
" transform="scale(0.015625)"/>
       <path id="DejaVuSans-69" d="M 603 3500 
L 1178 3500 
L 1178 0 
L 603 0 
L 603 3500 
z
M 603 4863 
L 1178 4863 
L 1178 4134 
L 603 4134 
L 603 4863 
z
" transform="scale(0.015625)"/>
       <path id="DejaVuSans-6d" d="M 3328 2828 
Q 3544 3216 3844 3400 
Q 4144 3584 4550 3584 
Q 5097 3584 5394 3201 
Q 5691 2819 5691 2113 
L 5691 0 
L 5113 0 
L 5113 2094 
Q 5113 2597 4934 2840 
Q 4756 3084 4391 3084 
Q 3944 3084 3684 2787 
Q 3425 2491 3425 1978 
L 3425 0 
L 2847 0 
L 2847 2094 
Q 2847 2600 2669 2842 
Q 2491 3084 2119 3084 
Q 1678 3084 1418 2786 
Q 1159 2488 1159 1978 
L 1159 0 
L 581 0 
L 581 3500 
L 1159 3500 
L 1159 2956 
Q 1356 3278 1631 3431 
Q 1906 3584 2284 3584 
Q 2666 3584 2933 3390 
Q 3200 3197 3328 2828 
z
" transform="scale(0.015625)"/>
       <path id="DejaVuSans-6e" d="M 3513 2113 
L 3513 0 
L 2938 0 
L 2938 2094 
Q 2938 2591 2744 2837 
Q 2550 3084 2163 3084 
Q 1697 3084 1428 2787 
Q 1159 2491 1159 1978 
L 1159 0 
L 581 0 
L 581 3500 
L 1159 3500 
L 1159 2956 
Q 1366 3272 1645 3428 
Q 1925 3584 2291 3584 
Q 2894 3584 3203 3211 
Q 3513 2838 3513 2113 
z
" transform="scale(0.015625)"/>
       <path id="DejaVuSans-29" d="M 513 4856 
L 1013 4856 
Q 1481 4119 1714 3412 
Q 1947 2706 1947 2009 
Q 1947 1309 1714 600 
Q 1481 -109 1013 -844 
L 513 -844 
Q 928 -128 1133 580 
Q 1338 1288 1338 2009 
Q 1338 2731 1133 3434 
Q 928 4138 513 4856 
z
" transform="scale(0.015625)"/>
      </defs>
      <use xlink:href="#DejaVuSans-6c"/>
      <use xlink:href="#DejaVuSans-6f" x="27.783203"/>
      <use xlink:href="#DejaVuSans-67" x="88.964844"/>
      <use xlink:href="#DejaVuSans-31" x="152.441406"/>
      <use xlink:href="#DejaVuSans-30" x="216.064453"/>
      <use xlink:href="#DejaVuSans-28" x="279.6875"/>
      <use xlink:href="#DejaVuSans-23" x="318.701172"/>
      <use xlink:href="#DejaVuSans-20" x="402.490234"/>
      <use xlink:href="#DejaVuSans-66" x="434.277344"/>
      <use xlink:href="#DejaVuSans-2d" x="463.982422"/>
      <use xlink:href="#DejaVuSans-65" x="500.066406"/>
      <use xlink:href="#DejaVuSans-76" x="561.589844"/>
      <use xlink:href="#DejaVuSans-61" x="620.769531"/>
      <use xlink:href="#DejaVuSans-6c" x="682.048828"/>
      <use xlink:href="#DejaVuSans-73" x="709.832031"/>
      <use xlink:href="#DejaVuSans-20" x="761.931641"/>
      <use xlink:href="#DejaVuSans-2f" x="793.71875"/>
      <use xlink:href="#DejaVuSans-20" x="827.410156"/>
      <use xlink:href="#DejaVuSans-64" x="859.197266"/>
      <use xlink:href="#DejaVuSans-69" x="922.673828"/>
      <use xlink:href="#DejaVuSans-6d" x="950.457031"/>
      <use xlink:href="#DejaVuSans-65" x="1047.869141"/>
      <use xlink:href="#DejaVuSans-6e" x="1109.392578"/>
      <use xlink:href="#DejaVuSans-73" x="1172.771484"/>
      <use xlink:href="#DejaVuSans-69" x="1224.871094"/>
      <use xlink:href="#DejaVuSans-6f" x="1252.654297"/>
      <use xlink:href="#DejaVuSans-6e" x="1313.835938"/>
      <use xlink:href="#DejaVuSans-29" x="1377.214844"/>
     </g>
    </g>
   </g>
   <g id="matplotlib.axis_2">
    <g id="ytick_1">
     <g id="line2d_21">
      <path d="M 57.6 298.944 
L 360.8064 298.944 
" clip-path="url(#pc70d819e1b)" style="fill: none; stroke: #b0b0b0; stroke-width: 0.8; stroke-linecap: square"/>
     </g>
     <g id="line2d_22">
      <defs>
       <path id="m67a57dc363" d="M 0 0 
L -3.5 0 
" style="stroke: #000000; stroke-width: 0.8"/>
      </defs>
      <g>
       <use xlink:href="#m67a57dc363" x="57.6" y="298.944" style="stroke: #000000; stroke-width: 0.8"/>
      </g>
     </g>
     <g id="text_6">
      <!-- 0.0 -->
      <g transform="translate(25.155 305.02275)scale(0.16 -0.16)">
       <defs>
        <path id="DejaVuSans-2e" d="M 684 794 
L 1344 794 
L 1344 0 
L 684 0 
L 684 794 
z
" transform="scale(0.015625)"/>
       </defs>
       <use xlink:href="#DejaVuSans-30"/>
       <use xlink:href="#DejaVuSans-2e" x="63.623047"/>
       <use xlink:href="#DejaVuSans-30" x="95.410156"/>
      </g>
     </g>
    </g>
    <g id="ytick_2">
     <g id="line2d_23">
      <path d="M 57.6 244.6848 
L 360.8064 244.6848 
" clip-path="url(#pc70d819e1b)" style="fill: none; stroke: #b0b0b0; stroke-width: 0.8; stroke-linecap: square"/>
     </g>
     <g id="line2d_24">
      <g>
       <use xlink:href="#m67a57dc363" x="57.6" y="244.6848" style="stroke: #000000; stroke-width: 0.8"/>
      </g>
     </g>
     <g id="text_7">
      <!-- 0.2 -->
      <g transform="translate(25.155 250.76355)scale(0.16 -0.16)">
       <use xlink:href="#DejaVuSans-30"/>
       <use xlink:href="#DejaVuSans-2e" x="63.623047"/>
       <use xlink:href="#DejaVuSans-32" x="95.410156"/>
      </g>
     </g>
    </g>
    <g id="ytick_3">
     <g id="line2d_25">
      <path d="M 57.6 190.4256 
L 360.8064 190.4256 
" clip-path="url(#pc70d819e1b)" style="fill: none; stroke: #b0b0b0; stroke-width: 0.8; stroke-linecap: square"/>
     </g>
     <g id="line2d_26">
      <g>
       <use xlink:href="#m67a57dc363" x="57.6" y="190.4256" style="stroke: #000000; stroke-width: 0.8"/>
      </g>
     </g>
     <g id="text_8">
      <!-- 0.4 -->
      <g transform="translate(25.155 196.50435)scale(0.16 -0.16)">
       <use xlink:href="#DejaVuSans-30"/>
       <use xlink:href="#DejaVuSans-2e" x="63.623047"/>
       <use xlink:href="#DejaVuSans-34" x="95.410156"/>
      </g>
     </g>
    </g>
    <g id="ytick_4">
     <g id="line2d_27">
      <path d="M 57.6 136.1664 
L 360.8064 136.1664 
" clip-path="url(#pc70d819e1b)" style="fill: none; stroke: #b0b0b0; stroke-width: 0.8; stroke-linecap: square"/>
     </g>
     <g id="line2d_28">
      <g>
       <use xlink:href="#m67a57dc363" x="57.6" y="136.1664" style="stroke: #000000; stroke-width: 0.8"/>
      </g>
     </g>
     <g id="text_9">
      <!-- 0.6 -->
      <g transform="translate(25.155 142.24515)scale(0.16 -0.16)">
       <use xlink:href="#DejaVuSans-30"/>
       <use xlink:href="#DejaVuSans-2e" x="63.623047"/>
       <use xlink:href="#DejaVuSans-36" x="95.410156"/>
      </g>
     </g>
    </g>
    <g id="ytick_5">
     <g id="line2d_29">
      <path d="M 57.6 81.9072 
L 360.8064 81.9072 
" clip-path="url(#pc70d819e1b)" style="fill: none; stroke: #b0b0b0; stroke-width: 0.8; stroke-linecap: square"/>
     </g>
     <g id="line2d_30">
      <g>
       <use xlink:href="#m67a57dc363" x="57.6" y="81.9072" style="stroke: #000000; stroke-width: 0.8"/>
      </g>
     </g>
     <g id="text_10">
      <!-- 0.8 -->
      <g transform="translate(25.155 87.98595)scale(0.16 -0.16)">
       <defs>
        <path id="DejaVuSans-38" d="M 2034 2216 
Q 1584 2216 1326 1975 
Q 1069 1734 1069 1313 
Q 1069 891 1326 650 
Q 1584 409 2034 409 
Q 2484 409 2743 651 
Q 3003 894 3003 1313 
Q 3003 1734 2745 1975 
Q 2488 2216 2034 2216 
z
M 1403 2484 
Q 997 2584 770 2862 
Q 544 3141 544 3541 
Q 544 4100 942 4425 
Q 1341 4750 2034 4750 
Q 2731 4750 3128 4425 
Q 3525 4100 3525 3541 
Q 3525 3141 3298 2862 
Q 3072 2584 2669 2484 
Q 3125 2378 3379 2068 
Q 3634 1759 3634 1313 
Q 3634 634 3220 271 
Q 2806 -91 2034 -91 
Q 1263 -91 848 271 
Q 434 634 434 1313 
Q 434 1759 690 2068 
Q 947 2378 1403 2484 
z
M 1172 3481 
Q 1172 3119 1398 2916 
Q 1625 2713 2034 2713 
Q 2441 2713 2670 2916 
Q 2900 3119 2900 3481 
Q 2900 3844 2670 4047 
Q 2441 4250 2034 4250 
Q 1625 4250 1398 4047 
Q 1172 3844 1172 3481 
z
" transform="scale(0.015625)"/>
       </defs>
       <use xlink:href="#DejaVuSans-30"/>
       <use xlink:href="#DejaVuSans-2e" x="63.623047"/>
       <use xlink:href="#DejaVuSans-38" x="95.410156"/>
      </g>
     </g>
    </g>
    <g id="ytick_6">
     <g id="line2d_31">
      <path d="M 57.6 27.648 
L 360.8064 27.648 
" clip-path="url(#pc70d819e1b)" style="fill: none; stroke: #b0b0b0; stroke-width: 0.8; stroke-linecap: square"/>
     </g>
     <g id="line2d_32">
      <g>
       <use xlink:href="#m67a57dc363" x="57.6" y="27.648" style="stroke: #000000; stroke-width: 0.8"/>
      </g>
     </g>
     <g id="text_11">
      <!-- 1.0 -->
      <g transform="translate(25.155 33.72675)scale(0.16 -0.16)">
       <use xlink:href="#DejaVuSans-31"/>
       <use xlink:href="#DejaVuSans-2e" x="63.623047"/>
       <use xlink:href="#DejaVuSans-30" x="95.410156"/>
      </g>
     </g>
    </g>
    <g id="text_12">
     <!-- Fraction of function,target pairs -->
     <g transform="translate(17.619531 297.681)rotate(-90)scale(0.17 -0.17)">
      <defs>
       <path id="DejaVuSans-46" d="M 628 4666 
L 3309 4666 
L 3309 4134 
L 1259 4134 
L 1259 2759 
L 3109 2759 
L 3109 2228 
L 1259 2228 
L 1259 0 
L 628 0 
L 628 4666 
z
" transform="scale(0.015625)"/>
       <path id="DejaVuSans-72" d="M 2631 2963 
Q 2534 3019 2420 3045 
Q 2306 3072 2169 3072 
Q 1681 3072 1420 2755 
Q 1159 2438 1159 1844 
L 1159 0 
L 581 0 
L 581 3500 
L 1159 3500 
L 1159 2956 
Q 1341 3275 1631 3429 
Q 1922 3584 2338 3584 
Q 2397 3584 2469 3576 
Q 2541 3569 2628 3553 
L 2631 2963 
z
" transform="scale(0.015625)"/>
       <path id="DejaVuSans-63" d="M 3122 3366 
L 3122 2828 
Q 2878 2963 2633 3030 
Q 2388 3097 2138 3097 
Q 1578 3097 1268 2742 
Q 959 2388 959 1747 
Q 959 1106 1268 751 
Q 1578 397 2138 397 
Q 2388 397 2633 464 
Q 2878 531 3122 666 
L 3122 134 
Q 2881 22 2623 -34 
Q 2366 -91 2075 -91 
Q 1284 -91 818 406 
Q 353 903 353 1747 
Q 353 2603 823 3093 
Q 1294 3584 2113 3584 
Q 2378 3584 2631 3529 
Q 2884 3475 3122 3366 
z
" transform="scale(0.015625)"/>
       <path id="DejaVuSans-74" d="M 1172 4494 
L 1172 3500 
L 2356 3500 
L 2356 3053 
L 1172 3053 
L 1172 1153 
Q 1172 725 1289 603 
Q 1406 481 1766 481 
L 2356 481 
L 2356 0 
L 1766 0 
Q 1100 0 847 248 
Q 594 497 594 1153 
L 594 3053 
L 172 3053 
L 172 3500 
L 594 3500 
L 594 4494 
L 1172 4494 
z
" transform="scale(0.015625)"/>
       <path id="DejaVuSans-75" d="M 544 1381 
L 544 3500 
L 1119 3500 
L 1119 1403 
Q 1119 906 1312 657 
Q 1506 409 1894 409 
Q 2359 409 2629 706 
Q 2900 1003 2900 1516 
L 2900 3500 
L 3475 3500 
L 3475 0 
L 2900 0 
L 2900 538 
Q 2691 219 2414 64 
Q 2138 -91 1772 -91 
Q 1169 -91 856 284 
Q 544 659 544 1381 
z
M 1991 3584 
L 1991 3584 
z
" transform="scale(0.015625)"/>
       <path id="DejaVuSans-2c" d="M 750 794 
L 1409 794 
L 1409 256 
L 897 -744 
L 494 -744 
L 750 256 
L 750 794 
z
" transform="scale(0.015625)"/>
       <path id="DejaVuSans-70" d="M 1159 525 
L 1159 -1331 
L 581 -1331 
L 581 3500 
L 1159 3500 
L 1159 2969 
Q 1341 3281 1617 3432 
Q 1894 3584 2278 3584 
Q 2916 3584 3314 3078 
Q 3713 2572 3713 1747 
Q 3713 922 3314 415 
Q 2916 -91 2278 -91 
Q 1894 -91 1617 61 
Q 1341 213 1159 525 
z
M 3116 1747 
Q 3116 2381 2855 2742 
Q 2594 3103 2138 3103 
Q 1681 3103 1420 2742 
Q 1159 2381 1159 1747 
Q 1159 1113 1420 752 
Q 1681 391 2138 391 
Q 2594 391 2855 752 
Q 3116 1113 3116 1747 
z
" transform="scale(0.015625)"/>
      </defs>
      <use xlink:href="#DejaVuSans-46"/>
      <use xlink:href="#DejaVuSans-72" x="50.269531"/>
      <use xlink:href="#DejaVuSans-61" x="91.382812"/>
      <use xlink:href="#DejaVuSans-63" x="152.662109"/>
      <use xlink:href="#DejaVuSans-74" x="207.642578"/>
      <use xlink:href="#DejaVuSans-69" x="246.851562"/>
      <use xlink:href="#DejaVuSans-6f" x="274.634766"/>
      <use xlink:href="#DejaVuSans-6e" x="335.816406"/>
      <use xlink:href="#DejaVuSans-20" x="399.195312"/>
      <use xlink:href="#DejaVuSans-6f" x="430.982422"/>
      <use xlink:href="#DejaVuSans-66" x="492.164062"/>
      <use xlink:href="#DejaVuSans-20" x="527.369141"/>
      <use xlink:href="#DejaVuSans-66" x="559.15625"/>
      <use xlink:href="#DejaVuSans-75" x="594.361328"/>
      <use xlink:href="#DejaVuSans-6e" x="657.740234"/>
      <use xlink:href="#DejaVuSans-63" x="721.119141"/>
      <use xlink:href="#DejaVuSans-74" x="776.099609"/>
      <use xlink:href="#DejaVuSans-69" x="815.308594"/>
      <use xlink:href="#DejaVuSans-6f" x="843.091797"/>
      <use xlink:href="#DejaVuSans-6e" x="904.273438"/>
      <use xlink:href="#DejaVuSans-2c" x="967.652344"/>
      <use xlink:href="#DejaVuSans-74" x="999.439453"/>
      <use xlink:href="#DejaVuSans-61" x="1038.648438"/>
      <use xlink:href="#DejaVuSans-72" x="1099.927734"/>
      <use xlink:href="#DejaVuSans-67" x="1139.291016"/>
      <use xlink:href="#DejaVuSans-65" x="1202.767578"/>
      <use xlink:href="#DejaVuSans-74" x="1264.291016"/>
      <use xlink:href="#DejaVuSans-20" x="1303.5"/>
      <use xlink:href="#DejaVuSans-70" x="1335.287109"/>
      <use xlink:href="#DejaVuSans-61" x="1398.763672"/>
      <use xlink:href="#DejaVuSans-69" x="1460.042969"/>
      <use xlink:href="#DejaVuSans-72" x="1487.826172"/>
      <use xlink:href="#DejaVuSans-73" x="1528.939453"/>
     </g>
    </g>
   </g>
   <g id="line2d_33">
    <defs>
     <path id="m73d86b128f" d="M 0 1.5 
C 0.397805 1.5 0.77937 1.341951 1.06066 1.06066 
C 1.341951 0.77937 1.5 0.397805 1.5 0 
C 1.5 -0.397805 1.341951 -0.77937 1.06066 -1.06066 
C 0.77937 -1.341951 0.397805 -1.5 0 -1.5 
C -0.397805 -1.5 -0.77937 -1.341951 -1.06066 -1.06066 
C -1.341951 -0.77937 -1.5 -0.397805 -1.5 0 
C -1.5 0.397805 -1.341951 0.77937 -1.06066 1.06066 
C -0.77937 1.341951 -0.397805 1.5 0 1.5 
z
" style="stroke: #f5deb3"/>
    </defs>
    <g>
     <use xlink:href="#m73d86b128f" x="163.214524" y="27.648" style="fill: #f5deb3; stroke: #f5deb3"/>
     <use xlink:href="#m73d86b128f" x="163.214524" y="27.648" style="fill: #f5deb3; stroke: #f5deb3"/>
    </g>
   </g>
   <g id="line2d_34">
    <defs>
     <path id="m641244cc22" d="M 0 1.5 
C 0.397805 1.5 0.77937 1.341951 1.06066 1.06066 
C 1.341951 0.77937 1.5 0.397805 1.5 0 
C 1.5 -0.397805 1.341951 -0.77937 1.06066 -1.06066 
C 0.77937 -1.341951 0.397805 -1.5 0 -1.5 
C -0.397805 -1.5 -0.77937 -1.341951 -1.06066 -1.06066 
C -1.341951 -0.77937 -1.5 -0.397805 -1.5 0 
C -1.5 0.397805 -1.341951 0.77937 -1.06066 1.06066 
C -0.77937 1.341951 -0.397805 1.5 0 1.5 
z
" style="stroke: #000080"/>
    </defs>
    <g>
     <use xlink:href="#m641244cc22" x="324.868802" y="27.648" style="fill: #000080; stroke: #000080"/>
     <use xlink:href="#m641244cc22" x="324.868802" y="27.648" style="fill: #000080; stroke: #000080"/>
    </g>
   </g>
   <g id="line2d_35">
    <path d="M 156.403417 298.944 
L 156.403417 298.589365 
L 158.513014 298.589365 
L 158.600851 296.461553 
L 158.717331 296.461553 
L 158.717331 296.106918 
L 160.329943 296.106918 
L 160.329943 295.397647 
L 161.265517 295.397647 
L 161.265517 295.043012 
L 161.567313 295.043012 
L 161.567313 294.688376 
L 163.888041 294.688376 
L 163.888041 294.333741 
L 164.063646 294.333741 
L 164.063646 292.9152 
L 165.392072 292.9152 
L 165.392072 291.851294 
L 169.976632 291.851294 
L 169.976632 291.142024 
L 170.588827 291.142024 
L 170.588827 290.432753 
L 170.71198 290.432753 
L 170.71198 289.368847 
L 171.15177 289.368847 
L 171.15177 287.950306 
L 171.301069 287.950306 
L 171.301069 287.241035 
L 172.482581 287.241035 
L 172.524431 285.113224 
L 173.894614 285.113224 
L 173.894614 284.403953 
L 174.431028 284.403953 
L 174.49388 283.694682 
L 174.693607 283.694682 
L 174.718424 282.276141 
L 175.232165 282.276141 
L 175.232165 281.921506 
L 175.376408 281.921506 
L 175.376408 281.566871 
L 175.696966 281.566871 
L 175.696966 278.375153 
L 175.930944 278.375153 
L 175.977392 276.601976 
L 176.638314 276.601976 
L 176.638314 275.892706 
L 177.502736 275.892706 
L 177.577449 274.119529 
L 177.957067 274.119529 
L 177.957067 272.346353 
L 178.257396 272.346353 
L 178.257396 270.927812 
L 178.663928 270.927812 
L 178.663928 270.573176 
L 178.784194 270.573176 
L 178.784194 270.218541 
L 179.451549 270.218541 
L 179.451549 268.8 
L 180.123969 268.8 
L 180.179707 267.381459 
L 180.601632 267.381459 
L 180.6107 266.672188 
L 181.365929 266.672188 
L 181.400733 265.253647 
L 181.608215 265.253647 
L 181.608215 264.899012 
L 181.847421 264.899012 
L 181.847421 264.544376 
L 182.855571 264.544376 
L 182.855571 264.189741 
L 183.850626 264.189741 
L 183.850626 263.835106 
L 184.115848 263.835106 
L 184.115848 263.480471 
L 184.317924 263.480471 
L 184.317924 263.125835 
L 184.495742 263.125835 
L 184.584025 262.061929 
L 184.620688 262.061929 
L 184.642651 260.998024 
L 184.752084 260.998024 
L 184.752084 260.288753 
L 184.96906 260.288753 
L 184.96906 259.934118 
L 185.374543 259.934118 
L 185.374543 259.579482 
L 185.486809 259.579482 
L 185.563605 258.160941 
L 185.653962 258.160941 
L 185.653962 257.806306 
L 187.413456 257.806306 
L 187.413456 257.451671 
L 189.811379 257.451671 
L 189.811379 257.097035 
L 190.770448 257.097035 
L 190.828467 254.969224 
L 197.457328 254.969224 
L 197.542289 254.259953 
L 200.653624 254.259953 
L 200.653624 253.905318 
L 202.719462 253.905318 
L 202.719462 253.550682 
L 205.954147 253.550682 
L 205.954147 253.196047 
L 206.141748 253.196047 
L 206.141748 252.841412 
L 206.401286 252.841412 
L 206.486245 250.358965 
L 206.682248 250.358965 
L 206.750144 249.649694 
L 206.981404 249.649694 
L 206.981404 248.940424 
L 207.094868 248.940424 
L 207.110388 248.231153 
L 207.361359 248.231153 
L 207.361359 247.876518 
L 207.686564 247.876518 
L 207.686564 247.521882 
L 207.896035 247.521882 
L 207.94274 246.457976 
L 208.105301 246.457976 
L 208.105301 246.103341 
L 208.484042 246.103341 
L 208.484042 245.748706 
L 209.15787 245.748706 
L 209.15787 245.394071 
L 209.525944 245.394071 
L 209.525944 245.039435 
L 211.047409 245.039435 
L 211.047409 244.6848 
L 211.318699 244.6848 
L 211.415908 243.266259 
L 212.852758 243.266259 
L 212.852758 242.911624 
L 213.083258 242.911624 
L 213.120329 242.202353 
L 240.053287 242.202353 
L 240.053287 241.847718 
L 241.028096 241.847718 
L 241.028096 241.493082 
L 241.144248 241.493082 
L 241.144248 241.138447 
L 241.603229 241.138447 
L 241.672885 240.074541 
L 242.141342 240.074541 
L 242.225837 239.010635 
L 242.420852 239.010635 
L 242.420852 238.656 
L 242.595728 238.656 
L 242.619907 237.946729 
L 242.941337 237.946729 
L 242.997998 237.237459 
L 243.068256 237.237459 
L 243.119635 235.109647 
L 243.257692 235.109647 
L 243.257692 234.755012 
L 243.40215 234.755012 
L 243.40215 232.6272 
L 243.750457 232.6272 
L 243.855401 231.917929 
L 244.14233 231.917929 
L 244.230951 230.499388 
L 244.272493 230.499388 
L 244.272493 230.144753 
L 244.499196 230.144753 
L 244.59915 228.726212 
L 244.618473 228.726212 
L 244.618473 228.371576 
L 244.785218 228.371576 
L 244.807041 226.5984 
L 244.930919 226.5984 
L 244.981308 225.889129 
L 245.198214 225.889129 
L 245.303262 223.761318 
L 245.598613 223.761318 
L 245.598613 223.406682 
L 245.910823 223.406682 
L 245.910823 223.052047 
L 246.072689 223.052047 
L 246.144339 222.342776 
L 246.243695 222.342776 
L 246.256977 220.924235 
L 246.408497 220.924235 
L 246.518478 218.441788 
L 246.522842 218.441788 
L 246.62809 217.732518 
L 246.658982 217.732518 
L 246.745694 216.313976 
L 246.798713 216.313976 
L 246.798713 215.959341 
L 247.329203 215.959341 
L 247.329203 215.604706 
L 247.472361 215.604706 
L 247.476768 214.186165 
L 247.742417 214.186165 
L 247.742417 213.831529 
L 248.227628 213.831529 
L 248.295756 212.412988 
L 248.45664 212.412988 
L 248.45664 212.058353 
L 248.579768 212.058353 
L 248.579768 211.703718 
L 248.77966 211.703718 
L 248.77966 211.349082 
L 248.999458 211.349082 
L 248.999458 210.994447 
L 249.134768 210.994447 
L 249.134768 210.639812 
L 249.24954 210.639812 
L 249.24954 210.285176 
L 249.443643 210.285176 
L 249.443643 209.930541 
L 250.165381 209.930541 
L 250.165381 209.575906 
L 250.337619 209.575906 
L 250.385209 208.866635 
L 250.761002 208.866635 
L 250.803841 208.157365 
L 250.99811 208.157365 
L 251.048563 207.448094 
L 251.155461 207.448094 
L 251.182943 206.738824 
L 251.348472 206.738824 
L 251.408515 205.674918 
L 251.504397 205.674918 
L 251.504397 205.320282 
L 251.749525 205.320282 
L 251.84595 204.256376 
L 251.865052 204.256376 
L 251.969669 203.192471 
L 251.998841 203.192471 
L 252.033259 201.419294 
L 252.211064 201.419294 
L 252.211064 201.064659 
L 252.644027 201.064659 
L 252.726182 200.355388 
L 253.013633 200.355388 
L 253.013633 200.000753 
L 253.213624 200.000753 
L 253.213624 199.646118 
L 253.433245 199.646118 
L 253.433245 199.291482 
L 253.629782 199.291482 
L 253.72431 197.872941 
L 253.849059 197.872941 
L 253.891319 197.163671 
L 254.049366 197.163671 
L 254.142905 194.326588 
L 254.19848 194.326588 
L 254.306435 191.844141 
L 254.520505 191.844141 
L 254.602864 190.780235 
L 254.660815 190.780235 
L 254.755244 189.716329 
L 254.811499 189.716329 
L 254.901159 188.652424 
L 254.9406 188.652424 
L 254.9406 188.297788 
L 255.121557 188.297788 
L 255.164846 187.233882 
L 255.279229 187.233882 
L 255.388835 186.169976 
L 255.446454 186.169976 
L 255.553912 182.623624 
L 255.567406 182.623624 
L 255.567406 181.914353 
L 255.835284 181.914353 
L 255.90779 181.205082 
L 256.148022 181.205082 
L 256.148022 180.141176 
L 256.376989 180.141176 
L 256.376989 179.077271 
L 256.522598 179.077271 
L 256.522598 178.722635 
L 256.665021 178.722635 
L 256.665021 178.368 
L 256.808899 178.368 
L 256.808899 178.013365 
L 257.054797 178.013365 
L 257.138588 177.304094 
L 257.220926 177.304094 
L 257.220926 176.949459 
L 257.529257 176.949459 
L 257.599466 174.821647 
L 257.650253 174.821647 
L 257.650253 174.467012 
L 257.773174 174.467012 
L 257.773174 174.112376 
L 258.07 174.112376 
L 258.07 173.757741 
L 258.376452 173.757741 
L 258.376452 173.403106 
L 258.53726 173.403106 
L 258.53726 173.048471 
L 258.70841 173.048471 
L 258.70841 172.693835 
L 258.917287 172.693835 
L 258.984479 171.984565 
L 259.132662 171.984565 
L 259.225763 170.920659 
L 259.51628 170.920659 
L 259.621104 170.211388 
L 260.111493 170.211388 
L 260.197248 169.147482 
L 260.332941 169.147482 
L 260.433715 168.083576 
L 260.512832 168.083576 
L 260.512832 167.728941 
L 261.06659 167.728941 
L 261.06659 167.374306 
L 261.583827 167.374306 
L 261.621754 166.3104 
L 261.850857 166.3104 
L 261.865944 165.601129 
L 262.016146 165.601129 
L 262.026914 164.537224 
L 262.584698 164.537224 
L 262.641048 163.827953 
L 262.751518 163.827953 
L 262.858596 161.700141 
L 262.871866 161.700141 
L 262.964726 160.636235 
L 263.081009 160.636235 
L 263.081009 160.2816 
L 263.309428 160.2816 
L 263.390927 159.217694 
L 263.511578 159.217694 
L 263.620033 158.153788 
L 263.647159 158.153788 
L 263.647159 157.799153 
L 263.825957 157.799153 
L 263.898216 156.735247 
L 264.046096 156.735247 
L 264.122867 154.607435 
L 264.185573 154.607435 
L 264.294358 153.543529 
L 264.311209 153.543529 
L 264.334818 152.834259 
L 264.500097 152.834259 
L 264.565218 152.124988 
L 264.690533 152.124988 
L 264.690533 151.770353 
L 264.823268 151.770353 
L 264.867442 150.706447 
L 264.977274 150.706447 
L 265.049223 149.997176 
L 265.218769 149.997176 
L 265.272095 148.933271 
L 265.395203 148.933271 
L 265.495938 144.677647 
L 265.525954 144.677647 
L 265.622733 142.549835 
L 265.772513 142.549835 
L 265.875445 141.840565 
L 265.973647 141.840565 
L 266.058504 141.131294 
L 266.090047 141.131294 
L 266.157487 139.358118 
L 266.241712 139.358118 
L 266.328892 138.648847 
L 266.375844 138.648847 
L 266.442837 137.939576 
L 266.554591 137.939576 
L 266.65091 136.875671 
L 266.675964 136.875671 
L 266.686518 136.1664 
L 266.829298 136.1664 
L 266.917955 135.457129 
L 266.983783 135.457129 
L 267.010142 134.038588 
L 267.203893 134.038588 
L 267.203893 133.683953 
L 267.336863 133.683953 
L 267.336863 133.329318 
L 267.483313 133.329318 
L 267.483313 132.974682 
L 267.614062 132.974682 
L 267.68326 132.265412 
L 267.878037 132.265412 
L 267.878037 131.910776 
L 268.027742 131.910776 
L 268.05016 131.201506 
L 268.15581 131.201506 
L 268.248586 129.428329 
L 268.291245 129.428329 
L 268.291245 129.073694 
L 268.449191 129.073694 
L 268.449191 128.009788 
L 268.600678 128.009788 
L 268.710417 126.591247 
L 268.726928 126.591247 
L 268.765591 125.881976 
L 268.847592 125.881976 
L 268.9236 124.463435 
L 269.020841 124.463435 
L 269.020841 124.1088 
L 269.355253 124.1088 
L 269.355253 123.754165 
L 269.481706 123.754165 
L 269.503905 123.044894 
L 269.6324 123.044894 
L 269.709444 120.562447 
L 269.745427 120.562447 
L 269.853992 114.533647 
L 269.895449 114.533647 
L 269.990939 112.405835 
L 270.013171 112.405835 
L 270.027874 110.632659 
L 270.148346 110.632659 
L 270.174582 109.923388 
L 270.27137 109.923388 
L 270.27137 109.568753 
L 270.455519 109.568753 
L 270.499027 108.504847 
L 270.731344 108.504847 
L 270.805224 107.440941 
L 270.918673 107.440941 
L 270.918673 107.086306 
L 271.146189 107.086306 
L 271.255263 105.313129 
L 271.567433 105.313129 
L 271.635021 103.185318 
L 271.837123 103.185318 
L 271.909977 102.476047 
L 271.995721 102.476047 
L 272.086262 101.766776 
L 272.309515 101.766776 
L 272.309515 101.412141 
L 272.526659 101.412141 
L 272.526659 101.057506 
L 273.089648 101.057506 
L 273.115805 100.348235 
L 273.379378 100.348235 
L 273.483952 98.575059 
L 273.600623 98.575059 
L 273.635761 97.865788 
L 273.885768 97.865788 
L 273.993144 95.737976 
L 274.055598 95.737976 
L 274.09991 93.9648 
L 274.166968 93.9648 
L 274.166968 93.610165 
L 274.722913 93.610165 
L 274.728942 92.900894 
L 277.336872 92.900894 
L 277.336872 92.546259 
L 277.52369 92.546259 
L 277.52369 92.191624 
L 277.646361 92.191624 
L 277.756215 90.773082 
L 277.842173 90.773082 
L 277.842173 90.418447 
L 278.017215 90.418447 
L 278.120965 88.999906 
L 278.413465 88.999906 
L 278.413465 88.645271 
L 279.026297 88.645271 
L 279.08411 87.936 
L 279.179848 87.936 
L 279.221326 86.872094 
L 279.641705 86.872094 
L 279.683956 86.162824 
L 279.78931 86.162824 
L 279.861012 85.098918 
L 279.907028 85.098918 
L 280.003923 83.325741 
L 280.119167 83.325741 
L 280.123738 80.843294 
L 280.282903 80.843294 
L 280.346655 80.134024 
L 280.53868 80.134024 
L 280.53868 79.779388 
L 280.676065 79.779388 
L 280.676065 79.424753 
L 280.835661 79.424753 
L 280.835661 79.070118 
L 281.539265 79.070118 
L 281.539265 78.715482 
L 282.585193 78.715482 
L 282.67796 78.006212 
L 282.769637 78.006212 
L 282.824001 76.233035 
L 282.930923 76.233035 
L 282.992595 75.523765 
L 283.064077 75.523765 
L 283.064077 75.169129 
L 283.359407 75.169129 
L 283.39113 73.395953 
L 283.47883 73.395953 
L 283.557557 72.686682 
L 283.629963 72.686682 
L 283.629963 72.332047 
L 283.971412 72.332047 
L 283.971412 71.977412 
L 284.247543 71.977412 
L 284.247543 71.622776 
L 284.400515 71.622776 
L 284.453457 70.913506 
L 284.56886 70.913506 
L 284.56886 70.204235 
L 284.680188 70.204235 
L 284.680188 69.8496 
L 284.958804 69.8496 
L 284.958804 69.494965 
L 285.100474 69.494965 
L 285.178023 64.175435 
L 285.216276 64.175435 
L 285.308935 62.756894 
L 285.363987 62.756894 
L 285.363987 62.047624 
L 285.761201 62.047624 
L 285.803528 61.338353 
L 285.974934 61.338353 
L 285.974934 60.983718 
L 286.116263 60.983718 
L 286.116263 60.629082 
L 286.408574 60.629082 
L 286.408574 60.274447 
L 286.67984 60.274447 
L 286.67984 59.919812 
L 286.82108 59.919812 
L 286.821913 59.210541 
L 287.070618 59.210541 
L 287.177168 55.664188 
L 289.004059 55.664188 
L 289.004059 55.309553 
L 289.261798 55.309553 
L 289.273127 54.600282 
L 289.746101 54.600282 
L 289.746101 54.245647 
L 290.230432 54.245647 
L 290.306612 52.117835 
L 290.420493 52.117835 
L 290.423137 51.053929 
L 290.765326 51.053929 
L 290.765326 50.699294 
L 291.770043 50.699294 
L 291.770043 50.344659 
L 291.885798 50.344659 
L 291.885798 49.990024 
L 292.031814 49.990024 
L 292.135333 48.926118 
L 292.652558 48.926118 
L 292.652558 48.571482 
L 292.864997 48.571482 
L 292.864997 48.216847 
L 293.007759 48.216847 
L 293.047214 47.152941 
L 293.120379 47.152941 
L 293.120379 46.798306 
L 293.46543 46.798306 
L 293.55891 42.542682 
L 294.024927 42.542682 
L 294.033155 41.478776 
L 294.664241 41.478776 
L 294.664241 41.124141 
L 294.802554 41.124141 
L 294.817274 39.350965 
L 296.681008 39.350965 
L 296.681008 38.996329 
L 296.9685 38.996329 
L 296.9685 38.641694 
L 297.276014 38.641694 
L 297.276014 38.287059 
L 298.43933 38.287059 
L 298.514297 37.577788 
L 298.630369 37.577788 
L 298.630369 36.868518 
L 298.790974 36.868518 
L 298.790974 36.513882 
L 299.240651 36.513882 
L 299.240651 36.159247 
L 300.058746 36.159247 
L 300.058746 35.804612 
L 300.224321 35.804612 
L 300.224321 35.095341 
L 301.201139 35.095341 
L 301.201139 34.740706 
L 301.92663 34.740706 
L 301.92663 34.386071 
L 302.552453 34.386071 
L 302.552453 34.031435 
L 302.81641 34.031435 
L 302.848204 33.322165 
L 303.401368 33.322165 
L 303.401368 32.967529 
L 303.68329 32.967529 
L 303.692368 32.258259 
L 305.801532 32.258259 
L 305.801532 31.903624 
L 306.408159 31.903624 
L 306.408159 31.548988 
L 307.250878 31.548988 
L 307.250878 31.194353 
L 307.422898 31.194353 
L 307.422898 30.839718 
L 307.751601 30.839718 
L 307.849634 30.130447 
L 307.869117 30.130447 
L 307.869117 29.775812 
L 310.20904 29.775812 
L 310.20904 29.421176 
L 312.288046 29.421176 
L 312.288046 29.066541 
L 312.822344 29.066541 
L 312.822344 28.711906 
L 312.994047 28.711906 
L 312.994047 28.357271 
L 317.115206 28.357271 
L 317.115206 28.002635 
L 324.868802 28.002635 
L 324.868802 27.648 
L 360.8064 27.648 
L 360.8064 27.648 
" style="fill: none; stroke: #000080; stroke-width: 1.5; stroke-linecap: square"/>
   </g>
   <g id="line2d_36">
    <defs>
     <path id="mf948daf887" d="M 0 6 
C 1.591219 6 3.117479 5.367802 4.242641 4.242641 
C 5.367802 3.117479 6 1.591219 6 0 
C 6 -1.591219 5.367802 -3.117479 4.242641 -4.242641 
C 3.117479 -5.367802 1.591219 -6 0 -6 
C -1.591219 -6 -3.117479 -5.367802 -4.242641 -4.242641 
C -5.367802 -3.117479 -6 -1.591219 -6 0 
C -6 1.591219 -5.367802 3.117479 -4.242641 4.242641 
C -3.117479 5.367802 -1.591219 6 0 6 
z
" style="stroke: #000080; stroke-width: 1.5"/>
    </defs>
    <g>
     <use xlink:href="#mf948daf887" x="213.120329" y="242.556988" style="fill-opacity: 0; stroke: #000080; stroke-width: 1.5"/>
     <use xlink:href="#mf948daf887" x="269.678409" y="122.690259" style="fill-opacity: 0; stroke: #000080; stroke-width: 1.5"/>
     <use xlink:href="#mf948daf887" x="297.276014" y="38.641694" style="fill-opacity: 0; stroke: #000080; stroke-width: 1.5"/>
     <use xlink:href="#mf948daf887" x="324.868802" y="27.648" style="fill-opacity: 0; stroke: #000080; stroke-width: 1.5"/>
     <use xlink:href="#mf948daf887" x="360.8064" y="27.648" style="fill-opacity: 0; stroke: #000080; stroke-width: 1.5"/>
    </g>
   </g>
   <g id="line2d_37">
    <path style="fill: none; stroke: #000080; stroke-width: 1.5; stroke-linecap: square"/>
    <g/>
   </g>
   <g id="line2d_38">
    <path d="M 274.176 93.610165 
" clip-path="url(#pc70d819e1b)" style="fill: none; stroke: #000080; stroke-width: 1.5; stroke-linecap: square"/>
    <defs>
     <path id="mde82625ca9" d="M -12 12 
L 12 -12 
M -12 -12 
L 12 12 
" style="stroke: #000080"/>
    </defs>
    <g clip-path="url(#pc70d819e1b)">
     <use xlink:href="#mde82625ca9" x="274.176" y="93.610165" style="fill: #000080; stroke: #000080"/>
    </g>
   </g>
   <g id="line2d_39">
    <defs>
     <path id="m4813b9e875" d="M 0 1.5 
C 0.397805 1.5 0.77937 1.341951 1.06066 1.06066 
C 1.341951 0.77937 1.5 0.397805 1.5 0 
C 1.5 -0.397805 1.341951 -0.77937 1.06066 -1.06066 
C 0.77937 -1.341951 0.397805 -1.5 0 -1.5 
C -0.397805 -1.5 -0.77937 -1.341951 -1.06066 -1.06066 
C -1.341951 -0.77937 -1.5 -0.397805 -1.5 0 
C -1.5 0.397805 -1.341951 0.77937 -1.06066 1.06066 
C -0.77937 1.341951 -0.397805 1.5 0 1.5 
z
" style="stroke: #ff00ff"/>
    </defs>
    <g>
     <use xlink:href="#m4813b9e875" x="344.989811" y="128.719059" style="fill: #ff00ff; stroke: #ff00ff"/>
     <use xlink:href="#m4813b9e875" x="344.989811" y="128.719059" style="fill: #ff00ff; stroke: #ff00ff"/>
    </g>
   </g>
   <g id="line2d_40">
    <path d="M 142.729897 298.944 
L 142.729897 298.234729 
L 165.654892 298.234729 
L 165.654892 296.106918 
L 178.318938 296.106918 
L 178.318938 295.752282 
L 178.67398 295.752282 
L 178.67398 295.043012 
L 181.208509 295.043012 
L 181.208509 293.624471 
L 181.965892 293.624471 
L 181.965892 291.851294 
L 183.245751 291.851294 
L 183.245751 289.723482 
L 183.751154 289.723482 
L 183.751154 287.950306 
L 189.039748 287.950306 
L 189.039748 287.595671 
L 192.287144 287.595671 
L 192.287144 286.531765 
L 194.992409 286.531765 
L 194.992409 285.467859 
L 204.49432 285.467859 
L 204.49432 284.403953 
L 205.980054 284.403953 
L 205.980054 283.340047 
L 206.188358 283.340047 
L 206.188358 282.276141 
L 207.14139 282.276141 
L 207.207651 280.8576 
L 207.433388 280.8576 
L 207.481255 278.020518 
L 207.55932 278.020518 
L 207.578786 277.311247 
L 207.712339 277.311247 
L 207.793728 276.247341 
L 207.925769 276.247341 
L 207.925769 274.8288 
L 208.197566 274.8288 
L 208.197566 274.474165 
L 208.405591 274.474165 
L 208.405591 273.410259 
L 208.611341 273.410259 
L 208.69709 270.927812 
L 208.814865 270.927812 
L 208.814865 270.573176 
L 208.98414 270.573176 
L 209.048227 268.445365 
L 209.100138 268.445365 
L 209.15787 267.381459 
L 209.215425 267.381459 
L 209.298469 265.962918 
L 209.381149 265.962918 
L 209.412551 265.253647 
L 209.688967 265.253647 
L 209.688967 264.899012 
L 209.817992 264.899012 
L 209.817992 264.189741 
L 209.991829 264.189741 
L 209.991829 263.835106 
L 210.126354 263.835106 
L 210.126354 263.480471 
L 212.145504 263.480471 
L 212.145504 263.125835 
L 212.314325 263.125835 
L 212.314325 262.061929 
L 213.469691 262.061929 
L 213.469691 261.707294 
L 213.988781 261.707294 
L 213.988781 261.352659 
L 214.381337 261.352659 
L 214.438469 259.934118 
L 214.531314 259.934118 
L 214.531314 259.579482 
L 214.974202 259.579482 
L 215.029565 258.870212 
L 215.276699 258.870212 
L 215.276699 257.451671 
L 215.689938 257.451671 
L 215.689938 257.097035 
L 215.881388 257.097035 
L 215.981228 256.387765 
L 217.09285 256.387765 
L 217.186479 255.323859 
L 217.222765 255.323859 
L 217.222765 253.905318 
L 217.351788 253.905318 
L 217.351788 253.196047 
L 220.414743 253.196047 
L 220.414743 252.841412 
L 221.481967 252.841412 
L 221.481967 252.486776 
L 221.792198 252.486776 
L 221.792198 252.132141 
L 227.123806 252.132141 
L 227.123806 251.422871 
L 228.56122 251.422871 
L 228.56122 251.068235 
L 230.651458 251.068235 
L 230.651458 250.7136 
L 233.305282 250.7136 
L 233.360266 248.940424 
L 233.429864 248.940424 
L 233.429864 248.585788 
L 233.647404 248.585788 
L 233.647404 248.231153 
L 233.848018 248.231153 
L 233.848018 247.876518 
L 240.528824 247.876518 
L 240.528824 247.521882 
L 241.733843 247.521882 
L 241.733843 247.167247 
L 242.627624 247.167247 
L 242.627624 246.812612 
L 247.471842 246.812612 
L 247.471842 246.457976 
L 250.685742 246.457976 
L 250.685742 246.103341 
L 251.178046 246.103341 
L 251.178046 245.748706 
L 253.686518 245.748706 
L 253.701048 245.039435 
L 253.938082 245.039435 
L 253.98106 243.620894 
L 255.094083 243.620894 
L 255.178279 241.138447 
L 255.26998 241.138447 
L 255.308998 239.365271 
L 255.454938 239.365271 
L 255.454938 239.010635 
L 255.637422 239.010635 
L 255.747974 237.592094 
L 255.799509 237.592094 
L 255.875305 236.528188 
L 256.04638 236.528188 
L 256.059362 235.818918 
L 256.37715 235.818918 
L 256.37715 235.464282 
L 256.499825 235.464282 
L 256.499825 235.109647 
L 256.718391 235.109647 
L 256.718391 234.755012 
L 257.992934 234.755012 
L 257.992934 234.400376 
L 258.207517 234.400376 
L 258.207517 234.045741 
L 258.603095 234.045741 
L 258.603095 233.691106 
L 258.868539 233.691106 
L 258.868539 233.336471 
L 259.044004 233.336471 
L 259.044004 232.6272 
L 260.206606 232.6272 
L 260.206606 232.272565 
L 260.436318 232.272565 
L 260.436318 231.917929 
L 260.664674 231.917929 
L 260.743724 231.208659 
L 261.310716 231.208659 
L 261.310716 230.854024 
L 261.434564 230.854024 
L 261.434564 230.499388 
L 261.568391 230.499388 
L 261.569371 229.790118 
L 261.890539 229.790118 
L 261.894273 229.080847 
L 262.542732 229.080847 
L 262.542732 228.726212 
L 263.626187 228.726212 
L 263.626187 228.371576 
L 264.889542 228.371576 
L 264.889542 228.016941 
L 265.424981 228.016941 
L 265.489173 226.953035 
L 266.593853 226.953035 
L 266.593853 226.5984 
L 266.74497 226.5984 
L 266.786717 225.889129 
L 267.396299 225.889129 
L 267.428461 224.825224 
L 267.57821 224.825224 
L 267.582573 224.115953 
L 267.752822 224.115953 
L 267.807618 222.697412 
L 267.866377 222.697412 
L 267.952034 221.278871 
L 268.044602 221.278871 
L 268.044602 220.924235 
L 268.282926 220.924235 
L 268.320715 220.214965 
L 269.126113 220.214965 
L 269.126113 219.860329 
L 269.332797 219.860329 
L 269.332797 219.505694 
L 269.521822 219.505694 
L 269.575951 218.441788 
L 269.683028 218.441788 
L 269.683028 218.087153 
L 270.471026 218.087153 
L 270.471026 217.732518 
L 270.612437 217.732518 
L 270.612437 217.377882 
L 270.872239 217.377882 
L 270.872239 217.023247 
L 271.605499 217.023247 
L 271.607727 216.313976 
L 271.761206 216.313976 
L 271.761206 215.959341 
L 271.995651 215.959341 
L 271.995651 215.604706 
L 273.387881 215.604706 
L 273.482065 214.895435 
L 274.46386 214.895435 
L 274.523542 214.186165 
L 274.872154 214.186165 
L 274.89468 213.476894 
L 274.988178 213.476894 
L 275.07703 211.703718 
L 275.108444 211.703718 
L 275.190197 210.994447 
L 275.368542 210.994447 
L 275.368542 210.639812 
L 275.769964 210.639812 
L 275.803751 208.866635 
L 275.88741 208.866635 
L 275.88741 208.512 
L 276.030852 208.512 
L 276.032499 207.093459 
L 276.243393 207.093459 
L 276.243393 206.738824 
L 276.867903 206.738824 
L 276.943345 205.320282 
L 277.158563 205.320282 
L 277.158563 204.965647 
L 277.427981 204.965647 
L 277.427981 204.611012 
L 277.602355 204.611012 
L 277.602355 204.256376 
L 277.800123 204.256376 
L 277.800123 203.901741 
L 278.254814 203.901741 
L 278.254814 203.547106 
L 278.567562 203.547106 
L 278.567562 203.192471 
L 279.039423 203.192471 
L 279.103133 202.4832 
L 279.162394 202.4832 
L 279.166723 201.773929 
L 279.61181 201.773929 
L 279.61181 201.419294 
L 280.231801 201.419294 
L 280.273655 200.000753 
L 280.406184 200.000753 
L 280.406184 199.646118 
L 280.964477 199.646118 
L 281.027881 198.936847 
L 281.70821 198.936847 
L 281.732983 198.227576 
L 281.873111 198.227576 
L 281.873111 197.872941 
L 281.993382 197.872941 
L 281.993382 197.518306 
L 282.656759 197.518306 
L 282.72471 196.4544 
L 283.018438 196.4544 
L 283.093023 195.745129 
L 283.53111 195.745129 
L 283.53111 195.390494 
L 283.83472 195.390494 
L 283.883925 194.681224 
L 284.024571 194.681224 
L 284.024571 194.326588 
L 284.400224 194.326588 
L 284.400224 193.971953 
L 284.626693 193.971953 
L 284.626693 193.617318 
L 284.927637 193.617318 
L 285.005794 192.553412 
L 285.114117 192.553412 
L 285.207139 191.489506 
L 285.415186 191.489506 
L 285.493272 190.070965 
L 285.633069 190.070965 
L 285.653417 189.361694 
L 285.80765 189.361694 
L 285.80765 189.007059 
L 286.526834 189.007059 
L 286.526834 188.652424 
L 286.683613 188.652424 
L 286.731252 187.943153 
L 286.982834 187.943153 
L 286.982834 187.588518 
L 287.299637 187.588518 
L 287.390338 186.879247 
L 287.938954 186.879247 
L 288.029785 186.169976 
L 288.126961 186.169976 
L 288.144635 185.460706 
L 288.507765 185.460706 
L 288.564231 184.751435 
L 288.820599 184.751435 
L 288.820599 184.3968 
L 289.132959 184.3968 
L 289.132959 184.042165 
L 289.257805 184.042165 
L 289.288016 183.332894 
L 289.387638 183.332894 
L 289.387638 182.978259 
L 289.543915 182.978259 
L 289.543915 182.623624 
L 289.815939 182.623624 
L 289.859765 181.914353 
L 290.133495 181.914353 
L 290.133495 181.559718 
L 290.774358 181.559718 
L 290.774358 181.205082 
L 290.895971 181.205082 
L 290.987682 180.495812 
L 291.319465 180.495812 
L 291.322666 179.786541 
L 291.666197 179.786541 
L 291.666197 179.431906 
L 291.833382 179.431906 
L 291.833382 179.077271 
L 292.088691 179.077271 
L 292.088691 178.722635 
L 292.421629 178.722635 
L 292.499844 178.013365 
L 292.735759 178.013365 
L 292.735759 177.658729 
L 292.906281 177.658729 
L 292.906281 177.304094 
L 293.290302 177.304094 
L 293.335217 176.594824 
L 293.687811 176.594824 
L 293.687811 176.240188 
L 294.062524 176.240188 
L 294.062524 175.885553 
L 294.253838 175.885553 
L 294.308622 175.176282 
L 294.48609 175.176282 
L 294.536656 174.467012 
L 294.604304 174.467012 
L 294.604304 174.112376 
L 294.725208 174.112376 
L 294.725208 173.757741 
L 295.221902 173.757741 
L 295.327694 173.048471 
L 295.46944 173.048471 
L 295.548281 172.3392 
L 295.986685 172.3392 
L 296.08751 171.275294 
L 296.177481 171.275294 
L 296.177481 170.920659 
L 296.948065 170.920659 
L 296.948065 170.566024 
L 297.133343 170.566024 
L 297.133343 170.211388 
L 297.700895 170.211388 
L 297.700895 169.856753 
L 298.240871 169.856753 
L 298.240871 169.502118 
L 298.668065 169.502118 
L 298.668065 169.147482 
L 299.148539 169.147482 
L 299.168479 168.438212 
L 299.41424 168.438212 
L 299.427022 167.728941 
L 299.966457 167.728941 
L 300.035462 166.3104 
L 300.087379 166.3104 
L 300.087379 165.955765 
L 300.219343 165.955765 
L 300.31409 165.246494 
L 300.453353 165.246494 
L 300.531786 164.537224 
L 301.160459 164.537224 
L 301.255693 163.827953 
L 301.50109 163.827953 
L 301.50109 163.473318 
L 301.731722 163.473318 
L 301.757833 162.764047 
L 301.925167 162.764047 
L 301.938416 162.054776 
L 302.046597 162.054776 
L 302.046597 161.700141 
L 302.283009 161.700141 
L 302.283009 161.345506 
L 302.470491 161.345506 
L 302.470491 160.990871 
L 302.827734 160.990871 
L 302.828131 160.2816 
L 302.991223 160.2816 
L 302.991223 159.926965 
L 303.337858 159.926965 
L 303.337858 159.572329 
L 303.532529 159.572329 
L 303.625262 158.863059 
L 304.122934 158.863059 
L 304.122934 158.508424 
L 304.797463 158.508424 
L 304.797463 158.153788 
L 305.108316 158.153788 
L 305.108316 157.799153 
L 305.269019 157.799153 
L 305.269019 157.444518 
L 305.474206 157.444518 
L 305.474206 157.089882 
L 306.600098 157.089882 
L 306.600098 156.735247 
L 306.842479 156.735247 
L 306.842479 156.380612 
L 307.334611 156.380612 
L 307.443395 155.671341 
L 307.462084 155.671341 
L 307.462084 155.316706 
L 307.636661 155.316706 
L 307.636661 154.962071 
L 308.218256 154.962071 
L 308.218256 154.607435 
L 309.038757 154.607435 
L 309.038757 154.2528 
L 309.345426 154.2528 
L 309.345426 153.898165 
L 309.507611 153.898165 
L 309.507611 153.543529 
L 309.765564 153.543529 
L 309.838576 152.834259 
L 309.88311 152.834259 
L 309.88311 152.479624 
L 310.626564 152.479624 
L 310.626564 152.124988 
L 310.98885 152.124988 
L 310.98885 151.770353 
L 311.18298 151.770353 
L 311.18298 151.415718 
L 311.987949 151.415718 
L 311.987949 151.061082 
L 312.42936 151.061082 
L 312.52728 150.351812 
L 312.912039 150.351812 
L 312.912039 149.997176 
L 313.041039 149.997176 
L 313.041039 149.642541 
L 313.639742 149.642541 
L 313.639742 149.287906 
L 314.469211 149.287906 
L 314.469211 148.933271 
L 314.681215 148.933271 
L 314.790465 147.514729 
L 314.86365 147.514729 
L 314.86365 147.160094 
L 315.210742 147.160094 
L 315.220834 146.450824 
L 315.864359 146.450824 
L 315.864359 146.096188 
L 316.106003 146.096188 
L 316.106003 145.741553 
L 316.591085 145.741553 
L 316.591085 145.386918 
L 316.87462 145.386918 
L 316.87462 145.032282 
L 317.034185 145.032282 
L 317.034185 144.677647 
L 317.168661 144.677647 
L 317.168661 144.323012 
L 317.919983 144.323012 
L 317.919983 143.968376 
L 318.206288 143.968376 
L 318.206288 143.613741 
L 318.48471 143.613741 
L 318.48471 143.259106 
L 318.718051 143.259106 
L 318.718051 142.904471 
L 318.945371 142.904471 
L 319.023124 142.1952 
L 319.260974 142.1952 
L 319.260974 141.840565 
L 321.109147 141.840565 
L 321.109147 141.485929 
L 321.259725 141.485929 
L 321.259725 141.131294 
L 321.522344 141.131294 
L 321.522344 140.776659 
L 322.021615 140.776659 
L 322.12352 140.067388 
L 322.170441 140.067388 
L 322.170441 139.712753 
L 322.327697 139.712753 
L 322.327697 139.358118 
L 322.842639 139.358118 
L 322.842639 139.003482 
L 323.201095 139.003482 
L 323.201095 138.648847 
L 323.41169 138.648847 
L 323.490221 137.939576 
L 323.665658 137.939576 
L 323.665658 137.584941 
L 323.918746 137.584941 
L 323.962646 136.875671 
L 324.487585 136.875671 
L 324.487585 136.521035 
L 324.657927 136.521035 
L 324.657927 136.1664 
L 325.146874 136.1664 
L 325.146874 135.811765 
L 325.336681 135.811765 
L 325.336681 135.457129 
L 325.565855 135.457129 
L 325.565855 135.102494 
L 325.765296 135.102494 
L 325.765296 134.747859 
L 325.990874 134.747859 
L 325.990874 134.393224 
L 326.346237 134.393224 
L 326.346237 134.038588 
L 327.208678 134.038588 
L 327.208678 133.683953 
L 327.411375 133.683953 
L 327.475738 132.974682 
L 327.797063 132.974682 
L 327.797063 132.620047 
L 329.327986 132.620047 
L 329.327986 132.265412 
L 329.986625 132.265412 
L 329.986625 131.910776 
L 330.391984 131.910776 
L 330.391984 131.556141 
L 330.636972 131.556141 
L 330.636972 131.201506 
L 330.879884 131.201506 
L 330.879884 130.846871 
L 332.20213 130.846871 
L 332.20213 130.492235 
L 333.525883 130.492235 
L 333.628084 129.782965 
L 336.437909 129.782965 
L 336.531009 129.073694 
L 344.989811 129.073694 
L 344.989811 128.719059 
L 360.8064 128.719059 
L 360.8064 128.719059 
" style="fill: none; stroke: #ff00ff; stroke-width: 1.5; stroke-linecap: square"/>
   </g>
   <g id="line2d_41">
    <defs>
     <path id="m01ca76bb9d" d="M 0 8.485281 
L 5.091169 0 
L 0 -8.485281 
L -5.091169 0 
z
" style="stroke: #ff00ff; stroke-width: 1.5; stroke-linejoin: miter"/>
    </defs>
    <g>
     <use xlink:href="#m01ca76bb9d" x="209.215425" y="267.026824" style="fill-opacity: 0; stroke: #ff00ff; stroke-width: 1.5; stroke-linejoin: miter"/>
     <use xlink:href="#m01ca76bb9d" x="268.044602" y="220.924235" style="fill-opacity: 0; stroke: #ff00ff; stroke-width: 1.5; stroke-linejoin: miter"/>
     <use xlink:href="#m01ca76bb9d" x="308.218256" y="154.962071" style="fill-opacity: 0; stroke: #ff00ff; stroke-width: 1.5; stroke-linejoin: miter"/>
     <use xlink:href="#m01ca76bb9d" x="344.989811" y="128.719059" style="fill-opacity: 0; stroke: #ff00ff; stroke-width: 1.5; stroke-linejoin: miter"/>
     <use xlink:href="#m01ca76bb9d" x="360.8064" y="128.719059" style="fill-opacity: 0; stroke: #ff00ff; stroke-width: 1.5; stroke-linejoin: miter"/>
    </g>
   </g>
   <g id="line2d_42">
    <path style="fill: none; stroke: #ff00ff; stroke-width: 1.5; stroke-linecap: square"/>
    <g/>
   </g>
   <g id="line2d_43">
    <path d="M 253.523501 245.748706 
" clip-path="url(#pc70d819e1b)" style="fill: none; stroke: #ff00ff; stroke-width: 1.5; stroke-linecap: square"/>
    <defs>
     <path id="mf743c7fbb5" d="M -12 12 
L 12 -12 
M -12 -12 
L 12 12 
" style="stroke: #ff00ff"/>
    </defs>
    <g clip-path="url(#pc70d819e1b)">
     <use xlink:href="#mf743c7fbb5" x="253.523501" y="245.748706" style="fill: #ff00ff; stroke: #ff00ff"/>
    </g>
   </g>
   <g id="line2d_44">
    <path d="M 360.8064 128.719059 
L 380.514816 293.51808 
" style="fill: none; stroke: #ff00ff; stroke-width: 1.5; stroke-linecap: square"/>
    <g>
     <use xlink:href="#m01ca76bb9d" x="360.8064" y="128.719059" style="fill-opacity: 0; stroke: #ff00ff; stroke-width: 1.5; stroke-linejoin: miter"/>
     <use xlink:href="#m01ca76bb9d" x="380.514816" y="293.51808" style="fill-opacity: 0; stroke: #ff00ff; stroke-width: 1.5; stroke-linejoin: miter"/>
    </g>
   </g>
   <g id="line2d_45">
    <path d="M 360.8064 27.648 
L 380.514816 163.296 
" style="fill: none; stroke: #000080; stroke-width: 1.5; stroke-linecap: square"/>
    <g>
     <use xlink:href="#mf948daf887" x="360.8064" y="27.648" style="fill-opacity: 0; stroke: #000080; stroke-width: 1.5"/>
     <use xlink:href="#mf948daf887" x="380.514816" y="163.296" style="fill-opacity: 0; stroke: #000080; stroke-width: 1.5"/>
    </g>
   </g>
   <g id="line2d_46">
    <path d="M 360.8064 298.944 
L 360.8064 27.648 
" style="fill: none; stroke: #000000; stroke-width: 1.5; stroke-linecap: square"/>
   </g>
   <g id="patch_3">
    <path d="M 57.6 298.944 
L 360.8064 298.944 
" style="fill: none; stroke: #000000; stroke-width: 0.8; stroke-linejoin: miter; stroke-linecap: square"/>
   </g>
   <g id="patch_4">
    <path d="M 57.6 27.648 
L 360.8064 27.648 
" style="fill: none; stroke: #000000; stroke-width: 0.8; stroke-linejoin: miter; stroke-linecap: square"/>
   </g>
   <g id="text_13">
    <!-- EvoSpace- -->
    <g transform="translate(386.578944 297.381205)scale(0.14 -0.14)">
     <defs>
      <path id="DejaVuSans-45" d="M 628 4666 
L 3578 4666 
L 3578 4134 
L 1259 4134 
L 1259 2753 
L 3481 2753 
L 3481 2222 
L 1259 2222 
L 1259 531 
L 3634 531 
L 3634 0 
L 628 0 
L 628 4666 
z
" transform="scale(0.015625)"/>
      <path id="DejaVuSans-53" d="M 3425 4513 
L 3425 3897 
Q 3066 4069 2747 4153 
Q 2428 4238 2131 4238 
Q 1616 4238 1336 4038 
Q 1056 3838 1056 3469 
Q 1056 3159 1242 3001 
Q 1428 2844 1947 2747 
L 2328 2669 
Q 3034 2534 3370 2195 
Q 3706 1856 3706 1288 
Q 3706 609 3251 259 
Q 2797 -91 1919 -91 
Q 1588 -91 1214 -16 
Q 841 59 441 206 
L 441 856 
Q 825 641 1194 531 
Q 1563 422 1919 422 
Q 2459 422 2753 634 
Q 3047 847 3047 1241 
Q 3047 1584 2836 1778 
Q 2625 1972 2144 2069 
L 1759 2144 
Q 1053 2284 737 2584 
Q 422 2884 422 3419 
Q 422 4038 858 4394 
Q 1294 4750 2059 4750 
Q 2388 4750 2728 4690 
Q 3069 4631 3425 4513 
z
" transform="scale(0.015625)"/>
     </defs>
     <use xlink:href="#DejaVuSans-45"/>
     <use xlink:href="#DejaVuSans-76" x="63.183594"/>
     <use xlink:href="#DejaVuSans-6f" x="122.363281"/>
     <use xlink:href="#DejaVuSans-53" x="183.544922"/>
     <use xlink:href="#DejaVuSans-70" x="247.021484"/>
     <use xlink:href="#DejaVuSans-61" x="310.498047"/>
     <use xlink:href="#DejaVuSans-63" x="371.777344"/>
     <use xlink:href="#DejaVuSans-65" x="426.757812"/>
     <use xlink:href="#DejaVuSans-2d" x="488.28125"/>
    </g>
   </g>
   <g id="text_14">
    <!-- LCGA -->
    <g transform="translate(386.578944 167.159125)scale(0.14 -0.14)">
     <defs>
      <path id="DejaVuSans-4c" d="M 628 4666 
L 1259 4666 
L 1259 531 
L 3531 531 
L 3531 0 
L 628 0 
L 628 4666 
z
" transform="scale(0.015625)"/>
      <path id="DejaVuSans-43" d="M 4122 4306 
L 4122 3641 
Q 3803 3938 3442 4084 
Q 3081 4231 2675 4231 
Q 1875 4231 1450 3742 
Q 1025 3253 1025 2328 
Q 1025 1406 1450 917 
Q 1875 428 2675 428 
Q 3081 428 3442 575 
Q 3803 722 4122 1019 
L 4122 359 
Q 3791 134 3420 21 
Q 3050 -91 2638 -91 
Q 1578 -91 968 557 
Q 359 1206 359 2328 
Q 359 3453 968 4101 
Q 1578 4750 2638 4750 
Q 3056 4750 3426 4639 
Q 3797 4528 4122 4306 
z
" transform="scale(0.015625)"/>
      <path id="DejaVuSans-47" d="M 3809 666 
L 3809 1919 
L 2778 1919 
L 2778 2438 
L 4434 2438 
L 4434 434 
Q 4069 175 3628 42 
Q 3188 -91 2688 -91 
Q 1594 -91 976 548 
Q 359 1188 359 2328 
Q 359 3472 976 4111 
Q 1594 4750 2688 4750 
Q 3144 4750 3555 4637 
Q 3966 4525 4313 4306 
L 4313 3634 
Q 3963 3931 3569 4081 
Q 3175 4231 2741 4231 
Q 1884 4231 1454 3753 
Q 1025 3275 1025 2328 
Q 1025 1384 1454 906 
Q 1884 428 2741 428 
Q 3075 428 3337 486 
Q 3600 544 3809 666 
z
" transform="scale(0.015625)"/>
      <path id="DejaVuSans-41" d="M 2188 4044 
L 1331 1722 
L 3047 1722 
L 2188 4044 
z
M 1831 4666 
L 2547 4666 
L 4325 0 
L 3669 0 
L 3244 1197 
L 1141 1197 
L 716 0 
L 50 0 
L 1831 4666 
z
" transform="scale(0.015625)"/>
     </defs>
     <use xlink:href="#DejaVuSans-4c"/>
     <use xlink:href="#DejaVuSans-43" x="55.712891"/>
     <use xlink:href="#DejaVuSans-47" x="125.537109"/>
     <use xlink:href="#DejaVuSans-41" x="203.027344"/>
    </g>
   </g>
   <g id="text_15">
    <!-- best 2009 -->
    <g transform="translate(386.578944 36.937045)scale(0.14 -0.14)">
     <defs>
      <path id="DejaVuSans-62" d="M 3116 1747 
Q 3116 2381 2855 2742 
Q 2594 3103 2138 3103 
Q 1681 3103 1420 2742 
Q 1159 2381 1159 1747 
Q 1159 1113 1420 752 
Q 1681 391 2138 391 
Q 2594 391 2855 752 
Q 3116 1113 3116 1747 
z
M 1159 2969 
Q 1341 3281 1617 3432 
Q 1894 3584 2278 3584 
Q 2916 3584 3314 3078 
Q 3713 2572 3713 1747 
Q 3713 922 3314 415 
Q 2916 -91 2278 -91 
Q 1894 -91 1617 61 
Q 1341 213 1159 525 
L 1159 0 
L 581 0 
L 581 4863 
L 1159 4863 
L 1159 2969 
z
" transform="scale(0.015625)"/>
      <path id="DejaVuSans-39" d="M 703 97 
L 703 672 
Q 941 559 1184 500 
Q 1428 441 1663 441 
Q 2288 441 2617 861 
Q 2947 1281 2994 2138 
Q 2813 1869 2534 1725 
Q 2256 1581 1919 1581 
Q 1219 1581 811 2004 
Q 403 2428 403 3163 
Q 403 3881 828 4315 
Q 1253 4750 1959 4750 
Q 2769 4750 3195 4129 
Q 3622 3509 3622 2328 
Q 3622 1225 3098 567 
Q 2575 -91 1691 -91 
Q 1453 -91 1209 -44 
Q 966 3 703 97 
z
M 1959 2075 
Q 2384 2075 2632 2365 
Q 2881 2656 2881 3163 
Q 2881 3666 2632 3958 
Q 2384 4250 1959 4250 
Q 1534 4250 1286 3958 
Q 1038 3666 1038 3163 
Q 1038 2656 1286 2365 
Q 1534 2075 1959 2075 
z
" transform="scale(0.015625)"/>
     </defs>
     <use xlink:href="#DejaVuSans-62"/>
     <use xlink:href="#DejaVuSans-65" x="63.476562"/>
     <use xlink:href="#DejaVuSans-73" x="125"/>
     <use xlink:href="#DejaVuSans-74" x="177.099609"/>
     <use xlink:href="#DejaVuSans-20" x="216.308594"/>
     <use xlink:href="#DejaVuSans-32" x="248.095703"/>
     <use xlink:href="#DejaVuSans-30" x="311.71875"/>
     <use xlink:href="#DejaVuSans-30" x="375.341797"/>
     <use xlink:href="#DejaVuSans-39" x="438.964844"/>
    </g>
   </g>
   <g id="text_16">
    <!-- bbob f12, 3-D -->
    <g transform="translate(60.632064 38.111366)scale(0.102 -0.102)">
     <defs>
      <path id="DejaVuSans-33" d="M 2597 2516 
Q 3050 2419 3304 2112 
Q 3559 1806 3559 1356 
Q 3559 666 3084 287 
Q 2609 -91 1734 -91 
Q 1441 -91 1130 -33 
Q 819 25 488 141 
L 488 750 
Q 750 597 1062 519 
Q 1375 441 1716 441 
Q 2309 441 2620 675 
Q 2931 909 2931 1356 
Q 2931 1769 2642 2001 
Q 2353 2234 1838 2234 
L 1294 2234 
L 1294 2753 
L 1863 2753 
Q 2328 2753 2575 2939 
Q 2822 3125 2822 3475 
Q 2822 3834 2567 4026 
Q 2313 4219 1838 4219 
Q 1578 4219 1281 4162 
Q 984 4106 628 3988 
L 628 4550 
Q 988 4650 1302 4700 
Q 1616 4750 1894 4750 
Q 2613 4750 3031 4423 
Q 3450 4097 3450 3541 
Q 3450 3153 3228 2886 
Q 3006 2619 2597 2516 
z
" transform="scale(0.015625)"/>
      <path id="DejaVuSans-44" d="M 1259 4147 
L 1259 519 
L 2022 519 
Q 2988 519 3436 956 
Q 3884 1394 3884 2338 
Q 3884 3275 3436 3711 
Q 2988 4147 2022 4147 
L 1259 4147 
z
M 628 4666 
L 1925 4666 
Q 3281 4666 3915 4102 
Q 4550 3538 4550 2338 
Q 4550 1131 3912 565 
Q 3275 0 1925 0 
L 628 0 
L 628 4666 
z
" transform="scale(0.015625)"/>
     </defs>
     <use xlink:href="#DejaVuSans-62"/>
     <use xlink:href="#DejaVuSans-62" x="63.476562"/>
     <use xlink:href="#DejaVuSans-6f" x="126.953125"/>
     <use xlink:href="#DejaVuSans-62" x="188.134766"/>
     <use xlink:href="#DejaVuSans-20" x="251.611328"/>
     <use xlink:href="#DejaVuSans-66" x="283.398438"/>
     <use xlink:href="#DejaVuSans-31" x="318.603516"/>
     <use xlink:href="#DejaVuSans-32" x="382.226562"/>
     <use xlink:href="#DejaVuSans-2c" x="445.849609"/>
     <use xlink:href="#DejaVuSans-20" x="477.636719"/>
     <use xlink:href="#DejaVuSans-33" x="509.423828"/>
     <use xlink:href="#DejaVuSans-2d" x="573.046875"/>
     <use xlink:href="#DejaVuSans-44" x="609.130859"/>
    </g>
    <!-- 51 targets: 100..1e-08 -->
    <g transform="translate(60.632064 49.533135)scale(0.102 -0.102)">
     <defs>
      <path id="DejaVuSans-35" d="M 691 4666 
L 3169 4666 
L 3169 4134 
L 1269 4134 
L 1269 2991 
Q 1406 3038 1543 3061 
Q 1681 3084 1819 3084 
Q 2600 3084 3056 2656 
Q 3513 2228 3513 1497 
Q 3513 744 3044 326 
Q 2575 -91 1722 -91 
Q 1428 -91 1123 -41 
Q 819 9 494 109 
L 494 744 
Q 775 591 1075 516 
Q 1375 441 1709 441 
Q 2250 441 2565 725 
Q 2881 1009 2881 1497 
Q 2881 1984 2565 2268 
Q 2250 2553 1709 2553 
Q 1456 2553 1204 2497 
Q 953 2441 691 2322 
L 691 4666 
z
" transform="scale(0.015625)"/>
      <path id="DejaVuSans-3a" d="M 750 794 
L 1409 794 
L 1409 0 
L 750 0 
L 750 794 
z
M 750 3309 
L 1409 3309 
L 1409 2516 
L 750 2516 
L 750 3309 
z
" transform="scale(0.015625)"/>
     </defs>
     <use xlink:href="#DejaVuSans-35"/>
     <use xlink:href="#DejaVuSans-31" x="63.623047"/>
     <use xlink:href="#DejaVuSans-20" x="127.246094"/>
     <use xlink:href="#DejaVuSans-74" x="159.033203"/>
     <use xlink:href="#DejaVuSans-61" x="198.242188"/>
     <use xlink:href="#DejaVuSans-72" x="259.521484"/>
     <use xlink:href="#DejaVuSans-67" x="298.884766"/>
     <use xlink:href="#DejaVuSans-65" x="362.361328"/>
     <use xlink:href="#DejaVuSans-74" x="423.884766"/>
     <use xlink:href="#DejaVuSans-73" x="463.09375"/>
     <use xlink:href="#DejaVuSans-3a" x="515.193359"/>
     <use xlink:href="#DejaVuSans-20" x="548.884766"/>
     <use xlink:href="#DejaVuSans-31" x="580.671875"/>
     <use xlink:href="#DejaVuSans-30" x="644.294922"/>
     <use xlink:href="#DejaVuSans-30" x="707.917969"/>
     <use xlink:href="#DejaVuSans-2e" x="771.541016"/>
     <use xlink:href="#DejaVuSans-2e" x="803.328125"/>
     <use xlink:href="#DejaVuSans-31" x="835.115234"/>
     <use xlink:href="#DejaVuSans-65" x="898.738281"/>
     <use xlink:href="#DejaVuSans-2d" x="960.261719"/>
     <use xlink:href="#DejaVuSans-30" x="996.345703"/>
     <use xlink:href="#DejaVuSans-38" x="1059.96875"/>
    </g>
    <!-- 15 instances -->
    <g transform="translate(60.632064 60.954904)scale(0.102 -0.102)">
     <use xlink:href="#DejaVuSans-31"/>
     <use xlink:href="#DejaVuSans-35" x="63.623047"/>
     <use xlink:href="#DejaVuSans-20" x="127.246094"/>
     <use xlink:href="#DejaVuSans-69" x="159.033203"/>
     <use xlink:href="#DejaVuSans-6e" x="186.816406"/>
     <use xlink:href="#DejaVuSans-73" x="250.195312"/>
     <use xlink:href="#DejaVuSans-74" x="302.294922"/>
     <use xlink:href="#DejaVuSans-61" x="341.503906"/>
     <use xlink:href="#DejaVuSans-6e" x="402.783203"/>
     <use xlink:href="#DejaVuSans-63" x="466.162109"/>
     <use xlink:href="#DejaVuSans-65" x="521.142578"/>
     <use xlink:href="#DejaVuSans-73" x="582.666016"/>
    </g>
   </g>
   <g id="text_17">
    <!-- v2.6 -->
    <g style="fill: #808080" transform="translate(198.292262 294.151352)scale(0.1 -0.1)">
     <use xlink:href="#DejaVuSans-76"/>
     <use xlink:href="#DejaVuSans-32" x="59.179688"/>
     <use xlink:href="#DejaVuSans-2e" x="122.802734"/>
     <use xlink:href="#DejaVuSans-36" x="154.589844"/>
    </g>
   </g>
   <g id="text_18">
    <!-- 12 Bent cigar -->
    <g transform="translate(141.986012 21.648)scale(0.2 -0.2)">
     <defs>
      <path id="DejaVuSans-42" d="M 1259 2228 
L 1259 519 
L 2272 519 
Q 2781 519 3026 730 
Q 3272 941 3272 1375 
Q 3272 1813 3026 2020 
Q 2781 2228 2272 2228 
L 1259 2228 
z
M 1259 4147 
L 1259 2741 
L 2194 2741 
Q 2656 2741 2882 2914 
Q 3109 3088 3109 3444 
Q 3109 3797 2882 3972 
Q 2656 4147 2194 4147 
L 1259 4147 
z
M 628 4666 
L 2241 4666 
Q 2963 4666 3353 4366 
Q 3744 4066 3744 3513 
Q 3744 3084 3544 2831 
Q 3344 2578 2956 2516 
Q 3422 2416 3680 2098 
Q 3938 1781 3938 1306 
Q 3938 681 3513 340 
Q 3088 0 2303 0 
L 628 0 
L 628 4666 
z
" transform="scale(0.015625)"/>
     </defs>
     <use xlink:href="#DejaVuSans-31"/>
     <use xlink:href="#DejaVuSans-32" x="63.623047"/>
     <use xlink:href="#DejaVuSans-20" x="127.246094"/>
     <use xlink:href="#DejaVuSans-42" x="159.033203"/>
     <use xlink:href="#DejaVuSans-65" x="227.636719"/>
     <use xlink:href="#DejaVuSans-6e" x="289.160156"/>
     <use xlink:href="#DejaVuSans-74" x="352.539062"/>
     <use xlink:href="#DejaVuSans-20" x="391.748047"/>
     <use xlink:href="#DejaVuSans-63" x="423.535156"/>
     <use xlink:href="#DejaVuSans-69" x="478.515625"/>
     <use xlink:href="#DejaVuSans-67" x="506.298828"/>
     <use xlink:href="#DejaVuSans-61" x="569.775391"/>
     <use xlink:href="#DejaVuSans-72" x="631.054688"/>
    </g>
   </g>
  </g>
 </g>
 <defs>
  <clipPath id="pc70d819e1b">
   <rect x="57.6" y="27.648" width="303.2064" height="271.296"/>
  </clipPath>
 </defs>
</svg>
