<?xml version="1.0" encoding="utf-8" standalone="no"?>
<!DOCTYPE svg PUBLIC "-//W3C//DTD SVG 1.1//EN"
  "http://www.w3.org/Graphics/SVG/1.1/DTD/svg11.dtd">
<svg xmlns:xlink="http://www.w3.org/1999/xlink" width="460.8pt" height="345.6pt" viewBox="0 0 460.8 345.6" xmlns="http://www.w3.org/2000/svg" version="1.1">
 <metadata>
  <rdf:RDF xmlns:dc="http://purl.org/dc/elements/1.1/" xmlns:cc="http://creativecommons.org/ns#" xmlns:rdf="http://www.w3.org/1999/02/22-rdf-syntax-ns#">
   <cc:Work>
    <dc:type rdf:resource="http://purl.org/dc/dcmitype/StillImage"/>
    <dc:date>2024-05-29T08:05:39.421542</dc:date>
    <dc:format>image/svg+xml</dc:format>
    <dc:creator>
     <cc:Agent>
      <dc:title>Matplotlib v3.5.1, https://matplotlib.org/</dc:title>
     </cc:Agent>
    </dc:creator>
   </cc:Work>
  </rdf:RDF>
 </metadata>
 <defs>
  <style type="text/css">*{stroke-linejoin: round; stroke-linecap: butt}</style>
 </defs>
 <g id="figure_1">
  <g id="patch_1">
   <path d="M 0 345.6 
L 460.8 345.6 
L 460.8 0 
L 0 0 
z
" style="fill: #ffffff"/>
  </g>
  <g id="axes_1">
   <g id="patch_2">
    <path d="M 57.6 298.944 
L 360.8064 298.944 
L 360.8064 27.648 
L 57.6 27.648 
z
" style="fill: #ffffff"/>
   </g>
   <g id="line2d_1">
    <path d="M 67.209423 298.944 
L 67.209423 293.624471 
L 80.248597 293.624471 
L 80.248597 288.304941 
L 94.205591 288.304941 
L 94.205591 282.985412 
L 104.344952 282.985412 
L 104.344952 277.665882 
L 105.850679 277.665882 
L 105.850679 272.346353 
L 106.326946 272.346353 
L 106.326946 267.026824 
L 107.244765 267.026824 
L 107.244765 261.707294 
L 157.795157 261.707294 
L 157.795157 256.387765 
L 162.634233 256.387765 
L 162.634233 251.068235 
L 162.751732 251.068235 
L 162.751732 245.748706 
L 162.868502 245.748706 
L 162.868502 240.429176 
L 163.865975 240.429176 
L 163.865975 235.109647 
L 163.932096 235.109647 
L 163.932096 224.470588 
L 164.107292 224.470588 
L 164.107292 219.151059 
L 164.172572 219.151059 
L 164.172572 213.831529 
L 164.686815 213.831529 
L 164.686815 208.512 
L 165.166781 208.512 
L 165.166781 203.192471 
L 165.187374 203.192471 
L 165.187374 192.553412 
L 165.330896 192.553412 
L 165.330896 187.233882 
L 165.695002 187.233882 
L 165.695002 181.914353 
L 165.715025 181.914353 
L 165.715025 171.275294 
L 165.814821 171.275294 
L 165.814821 165.955765 
L 165.953653 165.955765 
L 165.953653 160.636235 
L 166.189291 160.636235 
L 166.189291 155.316706 
L 166.651893 155.316706 
L 166.651893 139.358118 
L 166.670924 139.358118 
L 166.670924 128.719059 
L 167.121972 128.719059 
L 167.121972 123.399529 
L 167.140533 123.399529 
L 167.140533 112.760471 
L 167.159075 112.760471 
L 167.159075 107.440941 
L 167.1776 107.440941 
L 167.1776 102.121412 
L 167.453299 102.121412 
L 167.453299 86.162824 
L 167.580589 86.162824 
L 167.580589 75.523765 
L 167.598703 75.523765 
L 167.598703 70.204235 
L 167.652941 70.204235 
L 167.652941 59.565176 
L 167.689013 59.565176 
L 167.689013 48.926118 
L 167.796816 48.926118 
L 167.796816 32.967529 
L 183.842993 32.967529 
L 183.842993 27.648 
L 360.8064 27.648 
" style="fill: none; stroke: #f5deb3; stroke-width: 4; stroke-linecap: square"/>
   </g>
   <g id="line2d_2">
    <defs>
     <path id="m57b6baeebf" d="M 0 7.778175 
L 7.778175 0 
L 0 -7.778175 
L -7.778175 0 
z
" style="stroke: #f5deb3; stroke-width: 1.5; stroke-linejoin: miter"/>
    </defs>
    <g>
     <use xlink:href="#m57b6baeebf" x="165.715025" y="171.275294" style="fill: #f5deb3; stroke: #f5deb3; stroke-width: 1.5; stroke-linejoin: miter"/>
     <use xlink:href="#m57b6baeebf" x="167.652941" y="59.565176" style="fill: #f5deb3; stroke: #f5deb3; stroke-width: 1.5; stroke-linejoin: miter"/>
     <use xlink:href="#m57b6baeebf" x="183.842993" y="27.648" style="fill: #f5deb3; stroke: #f5deb3; stroke-width: 1.5; stroke-linejoin: miter"/>
     <use xlink:href="#m57b6baeebf" x="183.842993" y="27.648" style="fill: #f5deb3; stroke: #f5deb3; stroke-width: 1.5; stroke-linejoin: miter"/>
     <use xlink:href="#m57b6baeebf" x="360.8064" y="27.648" style="fill: #f5deb3; stroke: #f5deb3; stroke-width: 1.5; stroke-linejoin: miter"/>
    </g>
   </g>
   <g id="line2d_3">
    <path style="fill: none; stroke: #f5deb3; stroke-width: 4; stroke-linecap: square"/>
    <g/>
   </g>
   <g id="line2d_4">
    <path d="M 360.8064 27.648 
L 380.514816 33.07392 
" style="fill: none; stroke: #f5deb3; stroke-width: 4; stroke-linecap: square"/>
    <g>
     <use xlink:href="#m57b6baeebf" x="360.8064" y="27.648" style="fill: #f5deb3; stroke: #f5deb3; stroke-width: 1.5; stroke-linejoin: miter"/>
     <use xlink:href="#m57b6baeebf" x="380.514816" y="33.07392" style="fill: #f5deb3; stroke: #f5deb3; stroke-width: 1.5; stroke-linejoin: miter"/>
    </g>
   </g>
   <g id="matplotlib.axis_1">
    <g id="xtick_1">
     <g id="line2d_5">
      <path d="M 57.6 298.944 
L 57.6 27.648 
" clip-path="url(#p9036423ec5)" style="fill: none; stroke: #b0b0b0; stroke-width: 0.8; stroke-linecap: square"/>
     </g>
     <g id="line2d_6">
      <defs>
       <path id="m69b4cf876c" d="M 0 0 
L 0 3.5 
" style="stroke: #000000; stroke-width: 0.8"/>
      </defs>
      <g>
       <use xlink:href="#m69b4cf876c" x="57.6" y="298.944" style="stroke: #000000; stroke-width: 0.8"/>
      </g>
     </g>
     <g id="text_1">
      <!-- 0 -->
      <g transform="translate(52.191875 318.861344)scale(0.17 -0.17)">
       <defs>
        <path id="DejaVuSans-30" d="M 2034 4250 
Q 1547 4250 1301 3770 
Q 1056 3291 1056 2328 
Q 1056 1369 1301 889 
Q 1547 409 2034 409 
Q 2525 409 2770 889 
Q 3016 1369 3016 2328 
Q 3016 3291 2770 3770 
Q 2525 4250 2034 4250 
z
M 2034 4750 
Q 2819 4750 3233 4129 
Q 3647 3509 3647 2328 
Q 3647 1150 3233 529 
Q 2819 -91 2034 -91 
Q 1250 -91 836 529 
Q 422 1150 422 2328 
Q 422 3509 836 4129 
Q 1250 4750 2034 4750 
z
" transform="scale(0.015625)"/>
       </defs>
       <use xlink:href="#DejaVuSans-30"/>
      </g>
     </g>
    </g>
    <g id="xtick_2">
     <g id="line2d_7">
      <path d="M 144.2304 298.944 
L 144.2304 27.648 
" clip-path="url(#p9036423ec5)" style="fill: none; stroke: #b0b0b0; stroke-width: 0.8; stroke-linecap: square"/>
     </g>
     <g id="line2d_8">
      <g>
       <use xlink:href="#m69b4cf876c" x="144.2304" y="298.944" style="stroke: #000000; stroke-width: 0.8"/>
      </g>
     </g>
     <g id="text_2">
      <!-- 2 -->
      <g transform="translate(138.822275 318.861344)scale(0.17 -0.17)">
       <defs>
        <path id="DejaVuSans-32" d="M 1228 531 
L 3431 531 
L 3431 0 
L 469 0 
L 469 531 
Q 828 903 1448 1529 
Q 2069 2156 2228 2338 
Q 2531 2678 2651 2914 
Q 2772 3150 2772 3378 
Q 2772 3750 2511 3984 
Q 2250 4219 1831 4219 
Q 1534 4219 1204 4116 
Q 875 4013 500 3803 
L 500 4441 
Q 881 4594 1212 4672 
Q 1544 4750 1819 4750 
Q 2544 4750 2975 4387 
Q 3406 4025 3406 3419 
Q 3406 3131 3298 2873 
Q 3191 2616 2906 2266 
Q 2828 2175 2409 1742 
Q 1991 1309 1228 531 
z
" transform="scale(0.015625)"/>
       </defs>
       <use xlink:href="#DejaVuSans-32"/>
      </g>
     </g>
    </g>
    <g id="xtick_3">
     <g id="line2d_9">
      <path d="M 230.8608 298.944 
L 230.8608 27.648 
" clip-path="url(#p9036423ec5)" style="fill: none; stroke: #b0b0b0; stroke-width: 0.8; stroke-linecap: square"/>
     </g>
     <g id="line2d_10">
      <g>
       <use xlink:href="#m69b4cf876c" x="230.8608" y="298.944" style="stroke: #000000; stroke-width: 0.8"/>
      </g>
     </g>
     <g id="text_3">
      <!-- 4 -->
      <g transform="translate(225.452675 318.861344)scale(0.17 -0.17)">
       <defs>
        <path id="DejaVuSans-34" d="M 2419 4116 
L 825 1625 
L 2419 1625 
L 2419 4116 
z
M 2253 4666 
L 3047 4666 
L 3047 1625 
L 3713 1625 
L 3713 1100 
L 3047 1100 
L 3047 0 
L 2419 0 
L 2419 1100 
L 313 1100 
L 313 1709 
L 2253 4666 
z
" transform="scale(0.015625)"/>
       </defs>
       <use xlink:href="#DejaVuSans-34"/>
      </g>
     </g>
    </g>
    <g id="xtick_4">
     <g id="line2d_11">
      <path d="M 317.4912 298.944 
L 317.4912 27.648 
" clip-path="url(#p9036423ec5)" style="fill: none; stroke: #b0b0b0; stroke-width: 0.8; stroke-linecap: square"/>
     </g>
     <g id="line2d_12">
      <g>
       <use xlink:href="#m69b4cf876c" x="317.4912" y="298.944" style="stroke: #000000; stroke-width: 0.8"/>
      </g>
     </g>
     <g id="text_4">
      <!-- 6 -->
      <g transform="translate(312.083075 318.861344)scale(0.17 -0.17)">
       <defs>
        <path id="DejaVuSans-36" d="M 2113 2584 
Q 1688 2584 1439 2293 
Q 1191 2003 1191 1497 
Q 1191 994 1439 701 
Q 1688 409 2113 409 
Q 2538 409 2786 701 
Q 3034 994 3034 1497 
Q 3034 2003 2786 2293 
Q 2538 2584 2113 2584 
z
M 3366 4563 
L 3366 3988 
Q 3128 4100 2886 4159 
Q 2644 4219 2406 4219 
Q 1781 4219 1451 3797 
Q 1122 3375 1075 2522 
Q 1259 2794 1537 2939 
Q 1816 3084 2150 3084 
Q 2853 3084 3261 2657 
Q 3669 2231 3669 1497 
Q 3669 778 3244 343 
Q 2819 -91 2113 -91 
Q 1303 -91 875 529 
Q 447 1150 447 2328 
Q 447 3434 972 4092 
Q 1497 4750 2381 4750 
Q 2619 4750 2861 4703 
Q 3103 4656 3366 4563 
z
" transform="scale(0.015625)"/>
       </defs>
       <use xlink:href="#DejaVuSans-36"/>
      </g>
     </g>
    </g>
    <g id="xtick_5">
     <g id="line2d_13">
      <path d="M 100.9152 298.944 
L 100.9152 27.648 
" clip-path="url(#p9036423ec5)" style="fill: none; stroke: #b0b0b0; stroke-width: 0.8; stroke-linecap: square"/>
     </g>
     <g id="line2d_14">
      <defs>
       <path id="m9978222409" d="M 0 0 
L 0 2 
" style="stroke: #000000; stroke-width: 0.6"/>
      </defs>
      <g>
       <use xlink:href="#m9978222409" x="100.9152" y="298.944" style="stroke: #000000; stroke-width: 0.6"/>
      </g>
     </g>
    </g>
    <g id="xtick_6">
     <g id="line2d_15">
      <path d="M 187.5456 298.944 
L 187.5456 27.648 
" clip-path="url(#p9036423ec5)" style="fill: none; stroke: #b0b0b0; stroke-width: 0.8; stroke-linecap: square"/>
     </g>
     <g id="line2d_16">
      <g>
       <use xlink:href="#m9978222409" x="187.5456" y="298.944" style="stroke: #000000; stroke-width: 0.6"/>
      </g>
     </g>
    </g>
    <g id="xtick_7">
     <g id="line2d_17">
      <path d="M 274.176 298.944 
L 274.176 27.648 
" clip-path="url(#p9036423ec5)" style="fill: none; stroke: #b0b0b0; stroke-width: 0.8; stroke-linecap: square"/>
     </g>
     <g id="line2d_18">
      <g>
       <use xlink:href="#m9978222409" x="274.176" y="298.944" style="stroke: #000000; stroke-width: 0.6"/>
      </g>
     </g>
    </g>
    <g id="xtick_8">
     <g id="line2d_19">
      <path d="M 360.8064 298.944 
L 360.8064 27.648 
" clip-path="url(#p9036423ec5)" style="fill: none; stroke: #b0b0b0; stroke-width: 0.8; stroke-linecap: square"/>
     </g>
     <g id="line2d_20">
      <g>
       <use xlink:href="#m9978222409" x="360.8064" y="298.944" style="stroke: #000000; stroke-width: 0.6"/>
      </g>
     </g>
    </g>
    <g id="text_5">
     <!-- log10(# f-evals / dimension) -->
     <g transform="translate(88.823278 339.314156)scale(0.17 -0.17)">
      <defs>
       <path id="DejaVuSans-6c" d="M 603 4863 
L 1178 4863 
L 1178 0 
L 603 0 
L 603 4863 
z
" transform="scale(0.015625)"/>
       <path id="DejaVuSans-6f" d="M 1959 3097 
Q 1497 3097 1228 2736 
Q 959 2375 959 1747 
Q 959 1119 1226 758 
Q 1494 397 1959 397 
Q 2419 397 2687 759 
Q 2956 1122 2956 1747 
Q 2956 2369 2687 2733 
Q 2419 3097 1959 3097 
z
M 1959 3584 
Q 2709 3584 3137 3096 
Q 3566 2609 3566 1747 
Q 3566 888 3137 398 
Q 2709 -91 1959 -91 
Q 1206 -91 779 398 
Q 353 888 353 1747 
Q 353 2609 779 3096 
Q 1206 3584 1959 3584 
z
" transform="scale(0.015625)"/>
       <path id="DejaVuSans-67" d="M 2906 1791 
Q 2906 2416 2648 2759 
Q 2391 3103 1925 3103 
Q 1463 3103 1205 2759 
Q 947 2416 947 1791 
Q 947 1169 1205 825 
Q 1463 481 1925 481 
Q 2391 481 2648 825 
Q 2906 1169 2906 1791 
z
M 3481 434 
Q 3481 -459 3084 -895 
Q 2688 -1331 1869 -1331 
Q 1566 -1331 1297 -1286 
Q 1028 -1241 775 -1147 
L 775 -588 
Q 1028 -725 1275 -790 
Q 1522 -856 1778 -856 
Q 2344 -856 2625 -561 
Q 2906 -266 2906 331 
L 2906 616 
Q 2728 306 2450 153 
Q 2172 0 1784 0 
Q 1141 0 747 490 
Q 353 981 353 1791 
Q 353 2603 747 3093 
Q 1141 3584 1784 3584 
Q 2172 3584 2450 3431 
Q 2728 3278 2906 2969 
L 2906 3500 
L 3481 3500 
L 3481 434 
z
" transform="scale(0.015625)"/>
       <path id="DejaVuSans-31" d="M 794 531 
L 1825 531 
L 1825 4091 
L 703 3866 
L 703 4441 
L 1819 4666 
L 2450 4666 
L 2450 531 
L 3481 531 
L 3481 0 
L 794 0 
L 794 531 
z
" transform="scale(0.015625)"/>
       <path id="DejaVuSans-28" d="M 1984 4856 
Q 1566 4138 1362 3434 
Q 1159 2731 1159 2009 
Q 1159 1288 1364 580 
Q 1569 -128 1984 -844 
L 1484 -844 
Q 1016 -109 783 600 
Q 550 1309 550 2009 
Q 550 2706 781 3412 
Q 1013 4119 1484 4856 
L 1984 4856 
z
" transform="scale(0.015625)"/>
       <path id="DejaVuSans-23" d="M 3272 2816 
L 2363 2816 
L 2100 1772 
L 3016 1772 
L 3272 2816 
z
M 2803 4594 
L 2478 3297 
L 3391 3297 
L 3719 4594 
L 4219 4594 
L 3897 3297 
L 4872 3297 
L 4872 2816 
L 3775 2816 
L 3519 1772 
L 4513 1772 
L 4513 1294 
L 3397 1294 
L 3072 0 
L 2572 0 
L 2894 1294 
L 1978 1294 
L 1656 0 
L 1153 0 
L 1478 1294 
L 494 1294 
L 494 1772 
L 1594 1772 
L 1856 2816 
L 850 2816 
L 850 3297 
L 1978 3297 
L 2297 4594 
L 2803 4594 
z
" transform="scale(0.015625)"/>
       <path id="DejaVuSans-20" transform="scale(0.015625)"/>
       <path id="DejaVuSans-66" d="M 2375 4863 
L 2375 4384 
L 1825 4384 
Q 1516 4384 1395 4259 
Q 1275 4134 1275 3809 
L 1275 3500 
L 2222 3500 
L 2222 3053 
L 1275 3053 
L 1275 0 
L 697 0 
L 697 3053 
L 147 3053 
L 147 3500 
L 697 3500 
L 697 3744 
Q 697 4328 969 4595 
Q 1241 4863 1831 4863 
L 2375 4863 
z
" transform="scale(0.015625)"/>
       <path id="DejaVuSans-2d" d="M 313 2009 
L 1997 2009 
L 1997 1497 
L 313 1497 
L 313 2009 
z
" transform="scale(0.015625)"/>
       <path id="DejaVuSans-65" d="M 3597 1894 
L 3597 1613 
L 953 1613 
Q 991 1019 1311 708 
Q 1631 397 2203 397 
Q 2534 397 2845 478 
Q 3156 559 3463 722 
L 3463 178 
Q 3153 47 2828 -22 
Q 2503 -91 2169 -91 
Q 1331 -91 842 396 
Q 353 884 353 1716 
Q 353 2575 817 3079 
Q 1281 3584 2069 3584 
Q 2775 3584 3186 3129 
Q 3597 2675 3597 1894 
z
M 3022 2063 
Q 3016 2534 2758 2815 
Q 2500 3097 2075 3097 
Q 1594 3097 1305 2825 
Q 1016 2553 972 2059 
L 3022 2063 
z
" transform="scale(0.015625)"/>
       <path id="DejaVuSans-76" d="M 191 3500 
L 800 3500 
L 1894 563 
L 2988 3500 
L 3597 3500 
L 2284 0 
L 1503 0 
L 191 3500 
z
" transform="scale(0.015625)"/>
       <path id="DejaVuSans-61" d="M 2194 1759 
Q 1497 1759 1228 1600 
Q 959 1441 959 1056 
Q 959 750 1161 570 
Q 1363 391 1709 391 
Q 2188 391 2477 730 
Q 2766 1069 2766 1631 
L 2766 1759 
L 2194 1759 
z
M 3341 1997 
L 3341 0 
L 2766 0 
L 2766 531 
Q 2569 213 2275 61 
Q 1981 -91 1556 -91 
Q 1019 -91 701 211 
Q 384 513 384 1019 
Q 384 1609 779 1909 
Q 1175 2209 1959 2209 
L 2766 2209 
L 2766 2266 
Q 2766 2663 2505 2880 
Q 2244 3097 1772 3097 
Q 1472 3097 1187 3025 
Q 903 2953 641 2809 
L 641 3341 
Q 956 3463 1253 3523 
Q 1550 3584 1831 3584 
Q 2591 3584 2966 3190 
Q 3341 2797 3341 1997 
z
" transform="scale(0.015625)"/>
       <path id="DejaVuSans-73" d="M 2834 3397 
L 2834 2853 
Q 2591 2978 2328 3040 
Q 2066 3103 1784 3103 
Q 1356 3103 1142 2972 
Q 928 2841 928 2578 
Q 928 2378 1081 2264 
Q 1234 2150 1697 2047 
L 1894 2003 
Q 2506 1872 2764 1633 
Q 3022 1394 3022 966 
Q 3022 478 2636 193 
Q 2250 -91 1575 -91 
Q 1294 -91 989 -36 
Q 684 19 347 128 
L 347 722 
Q 666 556 975 473 
Q 1284 391 1588 391 
Q 1994 391 2212 530 
Q 2431 669 2431 922 
Q 2431 1156 2273 1281 
Q 2116 1406 1581 1522 
L 1381 1569 
Q 847 1681 609 1914 
Q 372 2147 372 2553 
Q 372 3047 722 3315 
Q 1072 3584 1716 3584 
Q 2034 3584 2315 3537 
Q 2597 3491 2834 3397 
z
" transform="scale(0.015625)"/>
       <path id="DejaVuSans-2f" d="M 1625 4666 
L 2156 4666 
L 531 -594 
L 0 -594 
L 1625 4666 
z
" transform="scale(0.015625)"/>
       <path id="DejaVuSans-64" d="M 2906 2969 
L 2906 4863 
L 3481 4863 
L 3481 0 
L 2906 0 
L 2906 525 
Q 2725 213 2448 61 
Q 2172 -91 1784 -91 
Q 1150 -91 751 415 
Q 353 922 353 1747 
Q 353 2572 751 3078 
Q 1150 3584 1784 3584 
Q 2172 3584 2448 3432 
Q 2725 3281 2906 2969 
z
M 947 1747 
Q 947 1113 1208 752 
Q 1469 391 1925 391 
Q 2381 391 2643 752 
Q 2906 1113 2906 1747 
Q 2906 2381 2643 2742 
Q 2381 3103 1925 3103 
Q 1469 3103 1208 2742 
Q 947 2381 947 1747 
z
" transform="scale(0.015625)"/>
       <path id="DejaVuSans-69" d="M 603 3500 
L 1178 3500 
L 1178 0 
L 603 0 
L 603 3500 
z
M 603 4863 
L 1178 4863 
L 1178 4134 
L 603 4134 
L 603 4863 
z
" transform="scale(0.015625)"/>
       <path id="DejaVuSans-6d" d="M 3328 2828 
Q 3544 3216 3844 3400 
Q 4144 3584 4550 3584 
Q 5097 3584 5394 3201 
Q 5691 2819 5691 2113 
L 5691 0 
L 5113 0 
L 5113 2094 
Q 5113 2597 4934 2840 
Q 4756 3084 4391 3084 
Q 3944 3084 3684 2787 
Q 3425 2491 3425 1978 
L 3425 0 
L 2847 0 
L 2847 2094 
Q 2847 2600 2669 2842 
Q 2491 3084 2119 3084 
Q 1678 3084 1418 2786 
Q 1159 2488 1159 1978 
L 1159 0 
L 581 0 
L 581 3500 
L 1159 3500 
L 1159 2956 
Q 1356 3278 1631 3431 
Q 1906 3584 2284 3584 
Q 2666 3584 2933 3390 
Q 3200 3197 3328 2828 
z
" transform="scale(0.015625)"/>
       <path id="DejaVuSans-6e" d="M 3513 2113 
L 3513 0 
L 2938 0 
L 2938 2094 
Q 2938 2591 2744 2837 
Q 2550 3084 2163 3084 
Q 1697 3084 1428 2787 
Q 1159 2491 1159 1978 
L 1159 0 
L 581 0 
L 581 3500 
L 1159 3500 
L 1159 2956 
Q 1366 3272 1645 3428 
Q 1925 3584 2291 3584 
Q 2894 3584 3203 3211 
Q 3513 2838 3513 2113 
z
" transform="scale(0.015625)"/>
       <path id="DejaVuSans-29" d="M 513 4856 
L 1013 4856 
Q 1481 4119 1714 3412 
Q 1947 2706 1947 2009 
Q 1947 1309 1714 600 
Q 1481 -109 1013 -844 
L 513 -844 
Q 928 -128 1133 580 
Q 1338 1288 1338 2009 
Q 1338 2731 1133 3434 
Q 928 4138 513 4856 
z
" transform="scale(0.015625)"/>
      </defs>
      <use xlink:href="#DejaVuSans-6c"/>
      <use xlink:href="#DejaVuSans-6f" x="27.783203"/>
      <use xlink:href="#DejaVuSans-67" x="88.964844"/>
      <use xlink:href="#DejaVuSans-31" x="152.441406"/>
      <use xlink:href="#DejaVuSans-30" x="216.064453"/>
      <use xlink:href="#DejaVuSans-28" x="279.6875"/>
      <use xlink:href="#DejaVuSans-23" x="318.701172"/>
      <use xlink:href="#DejaVuSans-20" x="402.490234"/>
      <use xlink:href="#DejaVuSans-66" x="434.277344"/>
      <use xlink:href="#DejaVuSans-2d" x="463.982422"/>
      <use xlink:href="#DejaVuSans-65" x="500.066406"/>
      <use xlink:href="#DejaVuSans-76" x="561.589844"/>
      <use xlink:href="#DejaVuSans-61" x="620.769531"/>
      <use xlink:href="#DejaVuSans-6c" x="682.048828"/>
      <use xlink:href="#DejaVuSans-73" x="709.832031"/>
      <use xlink:href="#DejaVuSans-20" x="761.931641"/>
      <use xlink:href="#DejaVuSans-2f" x="793.71875"/>
      <use xlink:href="#DejaVuSans-20" x="827.410156"/>
      <use xlink:href="#DejaVuSans-64" x="859.197266"/>
      <use xlink:href="#DejaVuSans-69" x="922.673828"/>
      <use xlink:href="#DejaVuSans-6d" x="950.457031"/>
      <use xlink:href="#DejaVuSans-65" x="1047.869141"/>
      <use xlink:href="#DejaVuSans-6e" x="1109.392578"/>
      <use xlink:href="#DejaVuSans-73" x="1172.771484"/>
      <use xlink:href="#DejaVuSans-69" x="1224.871094"/>
      <use xlink:href="#DejaVuSans-6f" x="1252.654297"/>
      <use xlink:href="#DejaVuSans-6e" x="1313.835938"/>
      <use xlink:href="#DejaVuSans-29" x="1377.214844"/>
     </g>
    </g>
   </g>
   <g id="matplotlib.axis_2">
    <g id="ytick_1">
     <g id="line2d_21">
      <path d="M 57.6 298.944 
L 360.8064 298.944 
" clip-path="url(#p9036423ec5)" style="fill: none; stroke: #b0b0b0; stroke-width: 0.8; stroke-linecap: square"/>
     </g>
     <g id="line2d_22">
      <defs>
       <path id="m69a1d02c75" d="M 0 0 
L -3.5 0 
" style="stroke: #000000; stroke-width: 0.8"/>
      </defs>
      <g>
       <use xlink:href="#m69a1d02c75" x="57.6" y="298.944" style="stroke: #000000; stroke-width: 0.8"/>
      </g>
     </g>
     <g id="text_6">
      <!-- 0.0 -->
      <g transform="translate(25.155 305.02275)scale(0.16 -0.16)">
       <defs>
        <path id="DejaVuSans-2e" d="M 684 794 
L 1344 794 
L 1344 0 
L 684 0 
L 684 794 
z
" transform="scale(0.015625)"/>
       </defs>
       <use xlink:href="#DejaVuSans-30"/>
       <use xlink:href="#DejaVuSans-2e" x="63.623047"/>
       <use xlink:href="#DejaVuSans-30" x="95.410156"/>
      </g>
     </g>
    </g>
    <g id="ytick_2">
     <g id="line2d_23">
      <path d="M 57.6 244.6848 
L 360.8064 244.6848 
" clip-path="url(#p9036423ec5)" style="fill: none; stroke: #b0b0b0; stroke-width: 0.8; stroke-linecap: square"/>
     </g>
     <g id="line2d_24">
      <g>
       <use xlink:href="#m69a1d02c75" x="57.6" y="244.6848" style="stroke: #000000; stroke-width: 0.8"/>
      </g>
     </g>
     <g id="text_7">
      <!-- 0.2 -->
      <g transform="translate(25.155 250.76355)scale(0.16 -0.16)">
       <use xlink:href="#DejaVuSans-30"/>
       <use xlink:href="#DejaVuSans-2e" x="63.623047"/>
       <use xlink:href="#DejaVuSans-32" x="95.410156"/>
      </g>
     </g>
    </g>
    <g id="ytick_3">
     <g id="line2d_25">
      <path d="M 57.6 190.4256 
L 360.8064 190.4256 
" clip-path="url(#p9036423ec5)" style="fill: none; stroke: #b0b0b0; stroke-width: 0.8; stroke-linecap: square"/>
     </g>
     <g id="line2d_26">
      <g>
       <use xlink:href="#m69a1d02c75" x="57.6" y="190.4256" style="stroke: #000000; stroke-width: 0.8"/>
      </g>
     </g>
     <g id="text_8">
      <!-- 0.4 -->
      <g transform="translate(25.155 196.50435)scale(0.16 -0.16)">
       <use xlink:href="#DejaVuSans-30"/>
       <use xlink:href="#DejaVuSans-2e" x="63.623047"/>
       <use xlink:href="#DejaVuSans-34" x="95.410156"/>
      </g>
     </g>
    </g>
    <g id="ytick_4">
     <g id="line2d_27">
      <path d="M 57.6 136.1664 
L 360.8064 136.1664 
" clip-path="url(#p9036423ec5)" style="fill: none; stroke: #b0b0b0; stroke-width: 0.8; stroke-linecap: square"/>
     </g>
     <g id="line2d_28">
      <g>
       <use xlink:href="#m69a1d02c75" x="57.6" y="136.1664" style="stroke: #000000; stroke-width: 0.8"/>
      </g>
     </g>
     <g id="text_9">
      <!-- 0.6 -->
      <g transform="translate(25.155 142.24515)scale(0.16 -0.16)">
       <use xlink:href="#DejaVuSans-30"/>
       <use xlink:href="#DejaVuSans-2e" x="63.623047"/>
       <use xlink:href="#DejaVuSans-36" x="95.410156"/>
      </g>
     </g>
    </g>
    <g id="ytick_5">
     <g id="line2d_29">
      <path d="M 57.6 81.9072 
L 360.8064 81.9072 
" clip-path="url(#p9036423ec5)" style="fill: none; stroke: #b0b0b0; stroke-width: 0.8; stroke-linecap: square"/>
     </g>
     <g id="line2d_30">
      <g>
       <use xlink:href="#m69a1d02c75" x="57.6" y="81.9072" style="stroke: #000000; stroke-width: 0.8"/>
      </g>
     </g>
     <g id="text_10">
      <!-- 0.8 -->
      <g transform="translate(25.155 87.98595)scale(0.16 -0.16)">
       <defs>
        <path id="DejaVuSans-38" d="M 2034 2216 
Q 1584 2216 1326 1975 
Q 1069 1734 1069 1313 
Q 1069 891 1326 650 
Q 1584 409 2034 409 
Q 2484 409 2743 651 
Q 3003 894 3003 1313 
Q 3003 1734 2745 1975 
Q 2488 2216 2034 2216 
z
M 1403 2484 
Q 997 2584 770 2862 
Q 544 3141 544 3541 
Q 544 4100 942 4425 
Q 1341 4750 2034 4750 
Q 2731 4750 3128 4425 
Q 3525 4100 3525 3541 
Q 3525 3141 3298 2862 
Q 3072 2584 2669 2484 
Q 3125 2378 3379 2068 
Q 3634 1759 3634 1313 
Q 3634 634 3220 271 
Q 2806 -91 2034 -91 
Q 1263 -91 848 271 
Q 434 634 434 1313 
Q 434 1759 690 2068 
Q 947 2378 1403 2484 
z
M 1172 3481 
Q 1172 3119 1398 2916 
Q 1625 2713 2034 2713 
Q 2441 2713 2670 2916 
Q 2900 3119 2900 3481 
Q 2900 3844 2670 4047 
Q 2441 4250 2034 4250 
Q 1625 4250 1398 4047 
Q 1172 3844 1172 3481 
z
" transform="scale(0.015625)"/>
       </defs>
       <use xlink:href="#DejaVuSans-30"/>
       <use xlink:href="#DejaVuSans-2e" x="63.623047"/>
       <use xlink:href="#DejaVuSans-38" x="95.410156"/>
      </g>
     </g>
    </g>
    <g id="ytick_6">
     <g id="line2d_31">
      <path d="M 57.6 27.648 
L 360.8064 27.648 
" clip-path="url(#p9036423ec5)" style="fill: none; stroke: #b0b0b0; stroke-width: 0.8; stroke-linecap: square"/>
     </g>
     <g id="line2d_32">
      <g>
       <use xlink:href="#m69a1d02c75" x="57.6" y="27.648" style="stroke: #000000; stroke-width: 0.8"/>
      </g>
     </g>
     <g id="text_11">
      <!-- 1.0 -->
      <g transform="translate(25.155 33.72675)scale(0.16 -0.16)">
       <use xlink:href="#DejaVuSans-31"/>
       <use xlink:href="#DejaVuSans-2e" x="63.623047"/>
       <use xlink:href="#DejaVuSans-30" x="95.410156"/>
      </g>
     </g>
    </g>
    <g id="text_12">
     <!-- Fraction of function,target pairs -->
     <g transform="translate(17.619531 297.681)rotate(-90)scale(0.17 -0.17)">
      <defs>
       <path id="DejaVuSans-46" d="M 628 4666 
L 3309 4666 
L 3309 4134 
L 1259 4134 
L 1259 2759 
L 3109 2759 
L 3109 2228 
L 1259 2228 
L 1259 0 
L 628 0 
L 628 4666 
z
" transform="scale(0.015625)"/>
       <path id="DejaVuSans-72" d="M 2631 2963 
Q 2534 3019 2420 3045 
Q 2306 3072 2169 3072 
Q 1681 3072 1420 2755 
Q 1159 2438 1159 1844 
L 1159 0 
L 581 0 
L 581 3500 
L 1159 3500 
L 1159 2956 
Q 1341 3275 1631 3429 
Q 1922 3584 2338 3584 
Q 2397 3584 2469 3576 
Q 2541 3569 2628 3553 
L 2631 2963 
z
" transform="scale(0.015625)"/>
       <path id="DejaVuSans-63" d="M 3122 3366 
L 3122 2828 
Q 2878 2963 2633 3030 
Q 2388 3097 2138 3097 
Q 1578 3097 1268 2742 
Q 959 2388 959 1747 
Q 959 1106 1268 751 
Q 1578 397 2138 397 
Q 2388 397 2633 464 
Q 2878 531 3122 666 
L 3122 134 
Q 2881 22 2623 -34 
Q 2366 -91 2075 -91 
Q 1284 -91 818 406 
Q 353 903 353 1747 
Q 353 2603 823 3093 
Q 1294 3584 2113 3584 
Q 2378 3584 2631 3529 
Q 2884 3475 3122 3366 
z
" transform="scale(0.015625)"/>
       <path id="DejaVuSans-74" d="M 1172 4494 
L 1172 3500 
L 2356 3500 
L 2356 3053 
L 1172 3053 
L 1172 1153 
Q 1172 725 1289 603 
Q 1406 481 1766 481 
L 2356 481 
L 2356 0 
L 1766 0 
Q 1100 0 847 248 
Q 594 497 594 1153 
L 594 3053 
L 172 3053 
L 172 3500 
L 594 3500 
L 594 4494 
L 1172 4494 
z
" transform="scale(0.015625)"/>
       <path id="DejaVuSans-75" d="M 544 1381 
L 544 3500 
L 1119 3500 
L 1119 1403 
Q 1119 906 1312 657 
Q 1506 409 1894 409 
Q 2359 409 2629 706 
Q 2900 1003 2900 1516 
L 2900 3500 
L 3475 3500 
L 3475 0 
L 2900 0 
L 2900 538 
Q 2691 219 2414 64 
Q 2138 -91 1772 -91 
Q 1169 -91 856 284 
Q 544 659 544 1381 
z
M 1991 3584 
L 1991 3584 
z
" transform="scale(0.015625)"/>
       <path id="DejaVuSans-2c" d="M 750 794 
L 1409 794 
L 1409 256 
L 897 -744 
L 494 -744 
L 750 256 
L 750 794 
z
" transform="scale(0.015625)"/>
       <path id="DejaVuSans-70" d="M 1159 525 
L 1159 -1331 
L 581 -1331 
L 581 3500 
L 1159 3500 
L 1159 2969 
Q 1341 3281 1617 3432 
Q 1894 3584 2278 3584 
Q 2916 3584 3314 3078 
Q 3713 2572 3713 1747 
Q 3713 922 3314 415 
Q 2916 -91 2278 -91 
Q 1894 -91 1617 61 
Q 1341 213 1159 525 
z
M 3116 1747 
Q 3116 2381 2855 2742 
Q 2594 3103 2138 3103 
Q 1681 3103 1420 2742 
Q 1159 2381 1159 1747 
Q 1159 1113 1420 752 
Q 1681 391 2138 391 
Q 2594 391 2855 752 
Q 3116 1113 3116 1747 
z
" transform="scale(0.015625)"/>
      </defs>
      <use xlink:href="#DejaVuSans-46"/>
      <use xlink:href="#DejaVuSans-72" x="50.269531"/>
      <use xlink:href="#DejaVuSans-61" x="91.382812"/>
      <use xlink:href="#DejaVuSans-63" x="152.662109"/>
      <use xlink:href="#DejaVuSans-74" x="207.642578"/>
      <use xlink:href="#DejaVuSans-69" x="246.851562"/>
      <use xlink:href="#DejaVuSans-6f" x="274.634766"/>
      <use xlink:href="#DejaVuSans-6e" x="335.816406"/>
      <use xlink:href="#DejaVuSans-20" x="399.195312"/>
      <use xlink:href="#DejaVuSans-6f" x="430.982422"/>
      <use xlink:href="#DejaVuSans-66" x="492.164062"/>
      <use xlink:href="#DejaVuSans-20" x="527.369141"/>
      <use xlink:href="#DejaVuSans-66" x="559.15625"/>
      <use xlink:href="#DejaVuSans-75" x="594.361328"/>
      <use xlink:href="#DejaVuSans-6e" x="657.740234"/>
      <use xlink:href="#DejaVuSans-63" x="721.119141"/>
      <use xlink:href="#DejaVuSans-74" x="776.099609"/>
      <use xlink:href="#DejaVuSans-69" x="815.308594"/>
      <use xlink:href="#DejaVuSans-6f" x="843.091797"/>
      <use xlink:href="#DejaVuSans-6e" x="904.273438"/>
      <use xlink:href="#DejaVuSans-2c" x="967.652344"/>
      <use xlink:href="#DejaVuSans-74" x="999.439453"/>
      <use xlink:href="#DejaVuSans-61" x="1038.648438"/>
      <use xlink:href="#DejaVuSans-72" x="1099.927734"/>
      <use xlink:href="#DejaVuSans-67" x="1139.291016"/>
      <use xlink:href="#DejaVuSans-65" x="1202.767578"/>
      <use xlink:href="#DejaVuSans-74" x="1264.291016"/>
      <use xlink:href="#DejaVuSans-20" x="1303.5"/>
      <use xlink:href="#DejaVuSans-70" x="1335.287109"/>
      <use xlink:href="#DejaVuSans-61" x="1398.763672"/>
      <use xlink:href="#DejaVuSans-69" x="1460.042969"/>
      <use xlink:href="#DejaVuSans-72" x="1487.826172"/>
      <use xlink:href="#DejaVuSans-73" x="1528.939453"/>
     </g>
    </g>
   </g>
   <g id="line2d_33">
    <defs>
     <path id="m80b37249e3" d="M 0 1.5 
C 0.397805 1.5 0.77937 1.341951 1.06066 1.06066 
C 1.341951 0.77937 1.5 0.397805 1.5 0 
C 1.5 -0.397805 1.341951 -0.77937 1.06066 -1.06066 
C 0.77937 -1.341951 0.397805 -1.5 0 -1.5 
C -0.397805 -1.5 -0.77937 -1.341951 -1.06066 -1.06066 
C -1.341951 -0.77937 -1.5 -0.397805 -1.5 0 
C -1.5 0.397805 -1.341951 0.77937 -1.06066 1.06066 
C -0.77937 1.341951 -0.397805 1.5 0 1.5 
z
" style="stroke: #f5deb3"/>
    </defs>
    <g>
     <use xlink:href="#m80b37249e3" x="183.842993" y="27.648" style="fill: #f5deb3; stroke: #f5deb3"/>
     <use xlink:href="#m80b37249e3" x="183.842993" y="27.648" style="fill: #f5deb3; stroke: #f5deb3"/>
    </g>
   </g>
   <g id="line2d_34">
    <defs>
     <path id="meb0e1d440a" d="M 0 1.5 
C 0.397805 1.5 0.77937 1.341951 1.06066 1.06066 
C 1.341951 0.77937 1.5 0.397805 1.5 0 
C 1.5 -0.397805 1.341951 -0.77937 1.06066 -1.06066 
C 0.77937 -1.341951 0.397805 -1.5 0 -1.5 
C -0.397805 -1.5 -0.77937 -1.341951 -1.06066 -1.06066 
C -1.341951 -0.77937 -1.5 -0.397805 -1.5 0 
C -1.5 0.397805 -1.341951 0.77937 -1.06066 1.06066 
C -0.77937 1.341951 -0.397805 1.5 0 1.5 
z
" style="stroke: #000080"/>
    </defs>
    <g>
     <use xlink:href="#meb0e1d440a" x="245.180063" y="27.648" style="fill: #000080; stroke: #000080"/>
     <use xlink:href="#meb0e1d440a" x="245.180063" y="27.648" style="fill: #000080; stroke: #000080"/>
    </g>
   </g>
   <g id="line2d_35">
    <path d="M 36.933397 298.944 
L 36.933397 298.234729 
L 49.972572 298.234729 
L 49.972572 297.880094 
L 57.6 297.880094 
L 57.6 297.170824 
L 63.011746 297.170824 
L 63.011746 296.461553 
L 67.209423 296.461553 
L 67.209423 294.333741 
L 70.639174 294.333741 
L 70.639174 293.979106 
L 73.538988 293.979106 
L 73.538988 293.269835 
L 78.266603 293.269835 
L 78.266603 292.9152 
L 80.248597 292.9152 
L 80.248597 292.560565 
L 82.04153 292.560565 
L 82.04153 291.496659 
L 86.578163 291.496659 
L 86.578163 291.142024 
L 87.876026 291.142024 
L 87.876026 290.787388 
L 89.090095 290.787388 
L 89.090095 290.078118 
L 91.305777 290.078118 
L 91.305777 289.723482 
L 92.322865 289.723482 
L 92.322865 289.368847 
L 93.287772 289.368847 
L 93.287772 289.014212 
L 95.080704 289.014212 
L 95.080704 288.304941 
L 95.916911 288.304941 
L 95.916911 287.950306 
L 97.485448 287.950306 
L 97.485448 287.595671 
L 98.223251 287.595671 
L 98.223251 286.8864 
L 100.9152 286.8864 
L 100.9152 286.531765 
L 104.860369 286.531765 
L 104.860369 286.177129 
L 105.850679 286.177129 
L 105.850679 285.822494 
L 110.144579 285.822494 
L 110.144579 285.467859 
L 110.524623 285.467859 
L 110.524623 285.113224 
L 113.316634 285.113224 
L 113.316634 284.758588 
L 115.460102 284.758588 
L 115.460102 284.049318 
L 119.129494 284.049318 
L 119.129494 283.694682 
L 120.726585 283.694682 
L 120.726585 283.340047 
L 121.159053 283.340047 
L 121.159053 282.630776 
L 127.761474 282.630776 
L 127.761474 282.276141 
L 133.545739 282.276141 
L 133.545739 281.566871 
L 140.188837 281.566871 
L 140.188837 280.8576 
L 148.022421 280.8576 
L 148.022421 280.502965 
L 150.515122 280.502965 
L 150.515122 280.148329 
L 152.024303 280.148329 
L 152.024303 279.793694 
L 152.515067 279.793694 
L 152.515067 279.439059 
L 153.914919 279.439059 
L 153.952355 278.729788 
L 154.285968 278.729788 
L 154.285968 278.375153 
L 154.900425 278.375153 
L 154.935952 276.956612 
L 155.391799 276.956612 
L 155.391799 276.601976 
L 155.529866 276.601976 
L 155.632755 275.892706 
L 155.769072 275.892706 
L 155.769072 275.538071 
L 155.904407 275.538071 
L 155.904407 275.183435 
L 156.205398 275.183435 
L 156.205398 274.8288 
L 156.436218 274.8288 
L 156.436218 274.474165 
L 156.664239 274.474165 
L 156.664239 274.119529 
L 157.048816 274.119529 
L 157.048816 273.764894 
L 157.456756 273.764894 
L 157.487772 273.055624 
L 157.642093 273.055624 
L 157.642093 272.346353 
L 158.0375 272.346353 
L 158.0375 271.991718 
L 158.187393 271.991718 
L 158.247018 271.282447 
L 158.483644 271.282447 
L 158.483644 270.927812 
L 158.659181 270.927812 
L 158.659181 270.573176 
L 159.033983 270.573176 
L 159.033983 270.218541 
L 159.176172 270.218541 
L 159.176172 269.863906 
L 159.761902 269.863906 
L 159.844108 268.8 
L 160.196243 268.8 
L 160.196243 268.445365 
L 160.673181 268.445365 
L 160.751508 267.736094 
L 160.984551 267.736094 
L 161.087207 267.026824 
L 161.138325 267.026824 
L 161.138325 266.672188 
L 161.341421 266.672188 
L 161.391854 265.962918 
L 161.617145 265.962918 
L 161.666845 265.253647 
L 161.864343 265.253647 
L 161.864343 264.899012 
L 162.634233 264.899012 
L 162.634233 264.544376 
L 162.961399 264.544376 
L 162.961399 264.189741 
L 163.821764 264.189741 
L 163.821764 263.835106 
L 164.019898 263.835106 
L 164.019898 263.480471 
L 165.534047 263.480471 
L 165.534047 262.7712 
L 167.416772 262.7712 
L 167.416772 262.416565 
L 169.622295 262.416565 
L 169.703414 261.707294 
L 170.864796 261.707294 
L 170.864796 261.352659 
L 171.419661 261.352659 
L 171.419661 260.998024 
L 172.842224 260.998024 
L 172.842224 260.643388 
L 173.462145 260.643388 
L 173.462145 259.579482 
L 174.73082 259.579482 
L 174.817367 258.870212 
L 177.200883 258.870212 
L 177.200883 258.515576 
L 177.577449 258.515576 
L 177.577449 258.160941 
L 177.747115 258.160941 
L 177.747115 257.806306 
L 179.403277 257.806306 
L 179.403277 257.451671 
L 179.776554 257.451671 
L 179.776554 257.097035 
L 179.908764 257.097035 
L 179.927575 256.033129 
L 180.253768 256.033129 
L 180.253768 255.678494 
L 180.628823 255.678494 
L 180.628823 254.614588 
L 181.556559 254.614588 
L 181.556559 254.259953 
L 182.033257 254.259953 
L 182.033257 253.905318 
L 184.525216 253.905318 
L 184.525216 253.550682 
L 184.839175 253.550682 
L 184.839175 253.196047 
L 185.040832 253.196047 
L 185.040832 252.841412 
L 185.353418 252.841412 
L 185.353418 252.486776 
L 186.59389 252.486776 
L 186.59389 252.132141 
L 186.959682 252.132141 
L 186.959682 251.777506 
L 187.14635 251.777506 
L 187.203908 250.358965 
L 187.979494 250.358965 
L 187.979494 250.004329 
L 188.349609 250.004329 
L 188.349609 248.940424 
L 188.694894 248.940424 
L 188.694894 248.585788 
L 189.080246 248.585788 
L 189.080246 246.457976 
L 189.275723 246.457976 
L 189.275723 246.103341 
L 189.452198 246.103341 
L 189.452198 245.748706 
L 189.750131 245.748706 
L 189.750131 245.394071 
L 191.813376 245.394071 
L 191.813376 244.6848 
L 192.179621 244.6848 
L 192.287144 242.202353 
L 192.360104 242.202353 
L 192.360104 241.493082 
L 192.88667 241.493082 
L 192.88667 240.783812 
L 193.009007 240.783812 
L 193.032442 237.237459 
L 193.398898 237.237459 
L 193.398898 235.818918 
L 194.084506 235.818918 
L 194.084506 235.464282 
L 194.221318 235.464282 
L 194.221318 235.109647 
L 194.716045 235.109647 
L 194.716045 234.755012 
L 194.852608 234.755012 
L 194.852608 234.400376 
L 195.298022 234.400376 
L 195.405683 233.336471 
L 195.789856 233.336471 
L 195.82623 232.6272 
L 195.999054 232.6272 
L 195.999054 231.563294 
L 196.332151 231.563294 
L 196.332151 231.208659 
L 196.582038 231.208659 
L 196.609169 230.499388 
L 196.805666 230.499388 
L 196.805666 229.790118 
L 197.722025 229.790118 
L 197.722025 229.435482 
L 197.979448 229.435482 
L 197.979448 229.080847 
L 198.304317 229.080847 
L 198.382021 228.016941 
L 198.599296 228.016941 
L 198.648012 225.179859 
L 199.033269 225.179859 
L 199.033269 224.825224 
L 199.510643 224.825224 
L 199.51728 223.052047 
L 200.053762 223.052047 
L 200.053762 220.924235 
L 200.188727 220.924235 
L 200.188727 220.5696 
L 201.125596 220.5696 
L 201.125596 218.796424 
L 201.313531 218.796424 
L 201.313531 218.441788 
L 201.795905 218.441788 
L 201.795905 218.087153 
L 202.939287 218.087153 
L 202.939287 215.250071 
L 203.126469 215.250071 
L 203.126469 214.895435 
L 203.479213 214.895435 
L 203.479213 213.476894 
L 204.433094 213.476894 
L 204.433094 213.122259 
L 204.588321 213.122259 
L 204.593389 212.412988 
L 204.85255 212.412988 
L 204.897476 210.994447 
L 205.135287 210.994447 
L 205.221246 208.512 
L 205.693102 208.512 
L 205.724142 206.384188 
L 205.807458 206.384188 
L 205.845423 204.256376 
L 206.765951 204.256376 
L 206.765951 203.547106 
L 206.896415 203.547106 
L 206.896415 202.128565 
L 207.052677 202.128565 
L 207.052677 201.773929 
L 207.223079 201.773929 
L 207.223079 201.419294 
L 207.420312 201.419294 
L 207.466038 197.518306 
L 207.632752 197.518306 
L 207.727358 191.844141 
L 208.782449 191.844141 
L 208.782449 191.489506 
L 208.92386 191.489506 
L 208.92386 191.134871 
L 209.215425 191.134871 
L 209.23721 190.4256 
L 209.543479 190.4256 
L 209.543479 190.070965 
L 209.671568 190.070965 
L 209.671568 189.716329 
L 209.829503 189.716329 
L 209.863995 188.652424 
L 210.008935 188.652424 
L 210.065842 187.233882 
L 210.344091 187.233882 
L 210.344091 185.460706 
L 210.533489 185.460706 
L 210.533489 184.3968 
L 210.94285 184.3968 
L 210.94285 184.042165 
L 211.904863 184.042165 
L 211.946042 178.368 
L 212.499959 178.368 
L 212.541516 176.594824 
L 212.675537 176.594824 
L 212.675537 175.530918 
L 213.344412 175.530918 
L 213.344412 175.176282 
L 213.457042 175.176282 
L 213.466529 173.757741 
L 213.634919 173.757741 
L 213.713092 172.3392 
L 213.931807 172.3392 
L 213.931807 171.984565 
L 214.137332 171.984565 
L 214.137332 170.920659 
L 214.258972 170.920659 
L 214.272608 169.502118 
L 214.568622 169.502118 
L 214.568622 168.083576 
L 214.702322 168.083576 
L 214.702322 166.665035 
L 214.906966 166.665035 
L 214.961066 165.601129 
L 215.200448 165.601129 
L 215.236454 162.409412 
L 215.356931 162.409412 
L 215.41118 158.863059 
L 215.505032 158.863059 
L 215.505032 158.508424 
L 215.878607 158.508424 
L 215.972928 155.671341 
L 216.374019 155.671341 
L 216.463199 151.415718 
L 216.66699 151.415718 
L 216.689646 150.706447 
L 216.838228 150.706447 
L 216.838228 150.351812 
L 217.068065 150.351812 
L 217.173503 149.642541 
L 217.317039 149.642541 
L 217.390324 148.578635 
L 217.669264 148.578635 
L 217.669264 148.224 
L 218.260421 148.224 
L 218.331348 146.450824 
L 218.616019 146.450824 
L 218.682026 144.323012 
L 219.018051 144.323012 
L 219.018051 142.1952 
L 219.270543 142.1952 
L 219.270543 137.939576 
L 219.588318 137.939576 
L 219.629373 133.683953 
L 219.908671 133.683953 
L 219.908671 133.329318 
L 220.134042 133.329318 
L 220.228075 127.655153 
L 220.587671 127.655153 
L 220.587671 127.300518 
L 220.975552 127.300518 
L 221.061259 125.881976 
L 221.123442 125.881976 
L 221.146577 124.1088 
L 221.698542 124.1088 
L 221.726077 122.690259 
L 221.949948 122.690259 
L 222.030335 120.207812 
L 222.280343 120.207812 
L 222.358348 119.498541 
L 222.863882 119.498541 
L 222.928041 117.016094 
L 223.323451 117.016094 
L 223.335616 115.597553 
L 223.681354 115.597553 
L 223.681354 114.888282 
L 223.826822 114.888282 
L 223.826822 114.533647 
L 224.975787 114.533647 
L 225.085212 112.405835 
L 225.088621 112.405835 
L 225.088621 112.0512 
L 225.266746 112.0512 
L 225.266746 111.696565 
L 225.712238 111.696565 
L 225.741072 110.987294 
L 225.949009 110.987294 
L 226.033489 108.859482 
L 226.424116 108.859482 
L 226.424116 108.504847 
L 226.92775 108.504847 
L 226.97869 107.795576 
L 227.108503 107.795576 
L 227.108503 105.313129 
L 227.932225 105.313129 
L 227.932225 104.249224 
L 228.238181 104.249224 
L 228.238181 102.830682 
L 228.66439 102.830682 
L 228.66439 102.476047 
L 228.855102 102.476047 
L 228.959452 101.766776 
L 229.057016 101.766776 
L 229.057016 99.284329 
L 229.178779 99.284329 
L 229.210295 98.575059 
L 229.375232 98.575059 
L 229.375232 98.220424 
L 229.598511 98.220424 
L 229.617278 97.156518 
L 229.925573 97.156518 
L 229.925573 96.801882 
L 231.084575 96.801882 
L 231.084575 96.447247 
L 231.732579 96.447247 
L 231.812628 92.900894 
L 232.50206 92.900894 
L 232.50206 92.546259 
L 232.708946 92.546259 
L 232.711788 89.709176 
L 232.965235 89.709176 
L 233.005002 88.290635 
L 233.264491 88.290635 
L 233.265594 86.162824 
L 233.767599 86.162824 
L 233.767599 85.808188 
L 235.268987 85.808188 
L 235.338307 79.424753 
L 235.526653 79.424753 
L 235.526653 79.070118 
L 236.121449 79.070118 
L 236.227816 76.233035 
L 236.24525 76.233035 
L 236.24525 75.8784 
L 236.37713 75.8784 
L 236.37713 75.169129 
L 236.501123 75.169129 
L 236.524803 71.622776 
L 236.621074 71.622776 
L 236.621074 71.268141 
L 236.781963 71.268141 
L 236.892408 65.593976 
L 236.962354 65.593976 
L 237.001303 63.8208 
L 237.117666 63.8208 
L 237.117666 63.466165 
L 237.276165 63.466165 
L 237.276165 62.756894 
L 237.436876 62.756894 
L 237.436876 62.047624 
L 237.732492 62.047624 
L 237.830584 57.437365 
L 237.850055 57.437365 
L 237.942805 56.018824 
L 238.038097 56.018824 
L 238.140575 53.181741 
L 238.309719 53.181741 
L 238.391834 46.089035 
L 238.593279 46.089035 
L 238.638536 45.379765 
L 238.732028 45.379765 
L 238.829162 42.188047 
L 238.89555 42.188047 
L 238.995916 41.124141 
L 239.086032 41.124141 
L 239.130121 39.7056 
L 239.232059 39.7056 
L 239.338243 38.641694 
L 239.385333 38.641694 
L 239.481539 35.804612 
L 240.18744 35.804612 
L 240.198131 35.095341 
L 243.159463 35.095341 
L 243.159463 34.386071 
L 243.347987 34.386071 
L 243.347987 33.6768 
L 243.736863 33.6768 
L 243.736863 33.322165 
L 244.14202 33.322165 
L 244.14202 32.967529 
L 244.589178 32.967529 
L 244.589178 31.903624 
L 244.700979 31.903624 
L 244.748391 29.421176 
L 245.180063 29.421176 
L 245.180063 27.648 
L 360.8064 27.648 
L 360.8064 27.648 
" style="fill: none; stroke: #000080; stroke-width: 1.5; stroke-linecap: square"/>
   </g>
   <g id="line2d_36">
    <defs>
     <path id="m9cad421642" d="M 0 6 
C 1.591219 6 3.117479 5.367802 4.242641 4.242641 
C 5.367802 3.117479 6 1.591219 6 0 
C 6 -1.591219 5.367802 -3.117479 4.242641 -4.242641 
C 3.117479 -5.367802 1.591219 -6 0 -6 
C -1.591219 -6 -3.117479 -5.367802 -4.242641 -4.242641 
C -5.367802 -3.117479 -6 -1.591219 -6 0 
C -6 1.591219 -5.367802 3.117479 -4.242641 4.242641 
C -3.117479 5.367802 -1.591219 6 0 6 
z
" style="stroke: #000080; stroke-width: 1.5"/>
    </defs>
    <g>
     <use xlink:href="#m9cad421642" x="115.460102" y="284.758588" style="fill-opacity: 0; stroke: #000080; stroke-width: 1.5"/>
     <use xlink:href="#m9cad421642" x="204.897476" y="210.994447" style="fill-opacity: 0; stroke: #000080; stroke-width: 1.5"/>
     <use xlink:href="#m9cad421642" x="236.621074" y="71.268141" style="fill-opacity: 0; stroke: #000080; stroke-width: 1.5"/>
     <use xlink:href="#m9cad421642" x="245.180063" y="27.648" style="fill-opacity: 0; stroke: #000080; stroke-width: 1.5"/>
     <use xlink:href="#m9cad421642" x="245.180063" y="27.648" style="fill-opacity: 0; stroke: #000080; stroke-width: 1.5"/>
     <use xlink:href="#m9cad421642" x="360.8064" y="27.648" style="fill-opacity: 0; stroke: #000080; stroke-width: 1.5"/>
    </g>
   </g>
   <g id="line2d_37">
    <path style="fill: none; stroke: #000080; stroke-width: 1.5; stroke-linecap: square"/>
    <g/>
   </g>
   <g id="line2d_38">
    <defs>
     <path id="m5a9b7e842c" d="M 0 1.5 
C 0.397805 1.5 0.77937 1.341951 1.06066 1.06066 
C 1.341951 0.77937 1.5 0.397805 1.5 0 
C 1.5 -0.397805 1.341951 -0.77937 1.06066 -1.06066 
C 0.77937 -1.341951 0.397805 -1.5 0 -1.5 
C -0.397805 -1.5 -0.77937 -1.341951 -1.06066 -1.06066 
C -1.341951 -0.77937 -1.5 -0.397805 -1.5 0 
C -1.5 0.397805 -1.341951 0.77937 -1.06066 1.06066 
C -0.77937 1.341951 -0.397805 1.5 0 1.5 
z
" style="stroke: #ff00ff"/>
    </defs>
    <g>
     <use xlink:href="#m5a9b7e842c" x="237.301561" y="27.648" style="fill: #ff00ff; stroke: #ff00ff"/>
     <use xlink:href="#m5a9b7e842c" x="237.301561" y="27.648" style="fill: #ff00ff; stroke: #ff00ff"/>
    </g>
   </g>
   <g id="line2d_39">
    <path d="M 36.933397 298.944 
L 36.933397 296.816188 
L 134.828842 296.816188 
L 134.931919 293.979106 
L 135.136394 293.979106 
L 135.136394 292.560565 
L 135.538796 292.560565 
L 135.538796 291.142024 
L 135.736814 291.142024 
L 135.835047 286.531765 
L 135.932769 286.531765 
L 136.029987 280.8576 
L 136.126705 280.8576 
L 136.126705 278.375153 
L 136.318661 278.375153 
L 136.318661 277.665882 
L 136.602972 277.665882 
L 136.602972 275.892706 
L 142.178603 275.892706 
L 142.178603 275.183435 
L 143.133017 275.183435 
L 143.133017 274.119529 
L 143.265494 274.119529 
L 143.331383 272.346353 
L 143.397043 272.346353 
L 143.462475 270.927812 
L 143.721949 270.927812 
L 143.721949 269.863906 
L 143.850356 269.863906 
L 143.850356 269.509271 
L 147.502732 269.509271 
L 147.502732 268.8 
L 147.919625 268.8 
L 147.919625 268.445365 
L 148.175569 268.445365 
L 148.175569 268.090729 
L 148.57797 268.090729 
L 148.57797 267.736094 
L 148.775988 267.736094 
L 148.775988 267.381459 
L 149.117582 267.381459 
L 149.117582 266.317553 
L 152.230346 266.317553 
L 152.230346 265.962918 
L 152.352898 265.962918 
L 152.352898 265.608282 
L 152.595631 265.608282 
L 152.595631 265.253647 
L 152.835271 265.253647 
L 152.835271 264.899012 
L 155.735085 264.899012 
L 155.735085 264.544376 
L 157.269574 264.544376 
L 157.269574 264.189741 
L 157.518738 264.189741 
L 157.518738 263.480471 
L 158.424766 263.480471 
L 158.424766 263.125835 
L 158.688279 263.125835 
L 158.688279 262.7712 
L 161.815163 262.7712 
L 161.815163 259.579482 
L 162.681321 259.579482 
L 162.681321 259.224847 
L 163.237368 259.224847 
L 163.237368 258.870212 
L 163.531835 258.870212 
L 163.531835 258.515576 
L 165.874446 258.515576 
L 165.874446 258.160941 
L 166.012839 258.160941 
L 166.012839 257.806306 
L 166.556452 257.806306 
L 166.556452 257.097035 
L 167.084795 257.097035 
L 167.084795 256.7424 
L 167.251516 256.7424 
L 167.251516 256.387765 
L 168.67193 256.387765 
L 168.757243 255.678494 
L 168.876036 255.678494 
L 168.943582 254.614588 
L 169.409732 254.614588 
L 169.409732 254.259953 
L 170.293066 254.259953 
L 170.293066 253.550682 
L 171.360458 253.550682 
L 171.360458 253.196047 
L 172.328329 253.196047 
L 172.328329 252.841412 
L 172.635578 252.841412 
L 172.635578 252.486776 
L 173.005923 252.486776 
L 173.005923 251.777506 
L 174.63142 251.777506 
L 174.63142 251.422871 
L 175.988986 251.422871 
L 175.988986 251.068235 
L 176.242267 251.068235 
L 176.242267 250.358965 
L 176.627113 250.358965 
L 176.627113 250.004329 
L 177.481335 250.004329 
L 177.481335 249.649694 
L 177.831377 249.649694 
L 177.831377 249.295059 
L 178.390485 249.295059 
L 178.390485 248.940424 
L 178.542888 248.940424 
L 178.542888 248.585788 
L 180.22603 248.585788 
L 180.22603 248.231153 
L 180.755196 248.231153 
L 180.755196 247.876518 
L 181.085154 247.876518 
L 181.085154 247.521882 
L 182.283747 247.521882 
L 182.283747 245.748706 
L 182.448907 245.748706 
L 182.448907 244.6848 
L 183.850626 244.6848 
L 183.850626 243.620894 
L 184.635333 243.620894 
L 184.635333 241.138447 
L 185.183561 241.138447 
L 185.183561 240.783812 
L 186.112887 240.783812 
L 186.112887 239.010635 
L 187.127126 239.010635 
L 187.127126 238.656 
L 187.293092 238.656 
L 187.293092 238.301365 
L 187.41977 238.301365 
L 187.41977 237.592094 
L 188.022338 237.592094 
L 188.022338 236.882824 
L 188.301482 236.882824 
L 188.331576 235.818918 
L 189.491819 235.818918 
L 189.491819 235.109647 
L 190.174739 235.109647 
L 190.174739 234.045741 
L 190.440038 234.045741 
L 190.440038 233.691106 
L 190.860039 233.691106 
L 190.860039 232.981835 
L 191.332494 232.981835 
L 191.332494 232.272565 
L 192.355249 232.272565 
L 192.355249 231.563294 
L 192.96675 231.563294 
L 192.96675 230.854024 
L 193.417264 230.854024 
L 193.42644 229.790118 
L 195.446927 229.790118 
L 195.446927 229.435482 
L 203.804339 229.435482 
L 203.804339 229.080847 
L 204.979563 229.080847 
L 204.979563 228.726212 
L 206.385169 228.726212 
L 206.385169 228.371576 
L 208.044241 228.371576 
L 208.1431 227.662306 
L 209.207497 227.662306 
L 209.207497 227.307671 
L 209.748775 227.307671 
L 209.750701 225.179859 
L 209.898424 225.179859 
L 209.898424 224.825224 
L 210.022229 224.825224 
L 210.096122 224.115953 
L 210.284277 224.115953 
L 210.299248 223.406682 
L 210.470568 223.406682 
L 210.470568 222.342776 
L 211.092298 222.342776 
L 211.197816 220.214965 
L 211.435289 220.214965 
L 211.435289 219.505694 
L 211.784243 219.505694 
L 211.784243 218.796424 
L 212.126841 218.796424 
L 212.126841 218.441788 
L 212.295829 218.441788 
L 212.295829 218.087153 
L 212.463312 218.087153 
L 212.463312 217.732518 
L 213.113887 217.732518 
L 213.113887 217.377882 
L 213.255099 217.377882 
L 213.322123 213.831529 
L 213.407948 213.831529 
L 213.407948 213.476894 
L 213.565857 213.476894 
L 213.572146 212.058353 
L 213.722451 212.058353 
L 213.747386 210.639812 
L 214.189125 210.639812 
L 214.213449 209.575906 
L 214.577565 209.575906 
L 214.577565 208.866635 
L 214.709722 208.866635 
L 214.783563 208.157365 
L 215.054279 208.157365 
L 215.113752 207.093459 
L 215.247961 207.093459 
L 215.286747 205.674918 
L 215.368365 205.674918 
L 215.432551 202.837835 
L 215.543291 202.837835 
L 215.543291 201.773929 
L 215.674481 201.773929 
L 215.772626 200.355388 
L 215.788002 200.355388 
L 215.854952 198.936847 
L 215.931374 198.936847 
L 215.990907 197.163671 
L 216.050251 197.163671 
L 216.069533 195.390494 
L 216.187542 195.390494 
L 216.206684 193.262682 
L 216.318406 193.262682 
L 216.401088 191.489506 
L 216.453761 191.489506 
L 216.541222 190.780235 
L 216.593505 190.780235 
L 216.669657 187.588518 
L 216.721584 187.588518 
L 216.802517 184.3968 
L 216.854079 184.3968 
L 216.937074 181.205082 
L 216.990891 181.205082 
L 217.070675 177.304094 
L 217.139723 177.304094 
L 217.19815 175.530918 
L 217.265441 175.530918 
L 217.374919 171.629929 
L 217.380055 171.629929 
L 217.45821 168.438212 
L 217.496528 168.438212 
L 217.583094 166.3104 
L 217.799038 166.3104 
L 217.799038 165.955765 
L 218.000113 165.955765 
L 218.000113 165.246494 
L 218.246939 165.246494 
L 218.246939 164.537224 
L 218.968559 164.537224 
L 218.968559 164.182588 
L 219.086184 164.182588 
L 219.086184 163.473318 
L 219.203077 163.473318 
L 219.203077 162.409412 
L 219.425496 162.409412 
L 219.425496 162.054776 
L 219.776889 162.054776 
L 219.776889 161.700141 
L 220.15621 161.700141 
L 220.15621 161.345506 
L 220.958576 161.345506 
L 221.022157 159.217694 
L 221.097119 159.217694 
L 221.202194 157.444518 
L 221.232556 157.444518 
L 221.33688 156.380612 
L 221.400234 156.380612 
L 221.440628 153.188894 
L 221.598263 153.188894 
L 221.646423 152.479624 
L 221.810468 152.479624 
L 221.911643 151.415718 
L 221.950955 151.415718 
L 222.012278 150.351812 
L 222.112377 150.351812 
L 222.221874 148.578635 
L 222.250635 148.578635 
L 222.343562 146.450824 
L 222.468386 146.450824 
L 222.545617 144.677647 
L 222.642925 144.677647 
L 222.739732 142.904471 
L 222.798541 142.904471 
L 222.894553 139.358118 
L 222.931865 139.358118 
L 223.0272 137.584941 
L 223.056656 137.584941 
L 223.056656 137.230306 
L 223.177796 137.230306 
L 223.262507 134.393224 
L 223.297223 134.393224 
L 223.331874 131.201506 
L 223.583746 131.201506 
L 223.6547 130.492235 
L 224.002802 130.492235 
L 224.002802 129.428329 
L 224.143127 129.428329 
L 224.232531 125.881976 
L 224.448911 125.881976 
L 224.448911 125.527341 
L 224.572825 125.527341 
L 224.673289 124.463435 
L 224.858822 124.463435 
L 224.920836 122.690259 
L 225.010907 122.690259 
L 225.091178 120.917082 
L 225.16941 120.917082 
L 225.181287 117.370729 
L 225.310594 117.370729 
L 225.409717 114.888282 
L 225.428977 114.888282 
L 225.493313 110.987294 
L 225.543293 110.987294 
L 225.651129 108.150212 
L 225.678405 108.150212 
L 225.78465 103.539953 
L 225.815833 103.539953 
L 225.905809 99.9936 
L 225.946566 99.9936 
L 226.029436 91.836988 
L 226.080439 91.836988 
L 226.190875 89.709176 
L 226.221393 89.709176 
L 226.31744 87.226729 
L 226.357315 87.226729 
L 226.460597 82.616471 
L 226.468518 82.616471 
L 226.577493 78.715482 
L 226.586939 78.715482 
L 226.696797 76.233035 
L 226.70462 76.233035 
L 226.812239 71.268141 
L 226.823123 71.268141 
L 226.906871 67.367153 
L 226.945518 67.367153 
L 227.054843 65.948612 
L 227.099315 65.948612 
L 227.099315 65.593976 
L 227.327678 65.593976 
L 227.403187 64.530071 
L 227.849985 64.530071 
L 227.849985 63.8208 
L 228.853009 63.8208 
L 228.853009 63.466165 
L 229.812542 63.466165 
L 229.892593 62.047624 
L 229.937431 62.047624 
L 230.003176 59.919812 
L 230.075885 59.919812 
L 230.16654 58.146635 
L 230.219816 58.146635 
L 230.317528 54.600282 
L 230.384533 54.600282 
L 230.469875 51.053929 
L 230.512721 51.053929 
L 230.561841 49.990024 
L 230.625444 49.990024 
L 230.717918 47.507576 
L 230.753898 47.507576 
L 230.816855 45.7344 
L 230.877723 45.7344 
L 230.877723 45.025129 
L 231.155082 45.025129 
L 231.155082 44.670494 
L 231.703222 44.670494 
L 231.703222 44.315859 
L 231.941542 44.315859 
L 232.033674 42.897318 
L 232.182142 42.897318 
L 232.240503 41.478776 
L 232.293455 41.478776 
L 232.356685 38.641694 
L 232.409311 38.641694 
L 232.409311 38.287059 
L 232.638905 38.287059 
L 232.727693 36.159247 
L 232.75266 36.159247 
L 232.840914 35.095341 
L 233.520993 35.095341 
L 233.520993 34.740706 
L 233.737488 34.740706 
L 233.737488 33.322165 
L 235.036894 33.322165 
L 235.036894 32.612894 
L 235.381257 32.612894 
L 235.381257 31.903624 
L 235.723303 31.903624 
L 235.723303 31.194353 
L 235.96387 31.194353 
L 235.96387 30.839718 
L 236.575314 30.839718 
L 236.667643 29.775812 
L 236.850953 29.775812 
L 236.850953 29.066541 
L 237.122611 29.066541 
L 237.122611 28.357271 
L 237.301561 28.357271 
L 237.301561 27.648 
L 360.8064 27.648 
L 360.8064 27.648 
" style="fill: none; stroke: #ff00ff; stroke-width: 1.5; stroke-linecap: square"/>
   </g>
   <g id="line2d_40">
    <defs>
     <path id="m1620b8fa81" d="M 0 8.485281 
L 5.091169 0 
L 0 -8.485281 
L -5.091169 0 
z
" style="stroke: #ff00ff; stroke-width: 1.5; stroke-linejoin: miter"/>
    </defs>
    <g>
     <use xlink:href="#m1620b8fa81" x="143.850356" y="269.863906" style="fill-opacity: 0; stroke: #ff00ff; stroke-width: 1.5; stroke-linejoin: miter"/>
     <use xlink:href="#m1620b8fa81" x="219.776889" y="162.054776" style="fill-opacity: 0; stroke: #ff00ff; stroke-width: 1.5; stroke-linejoin: miter"/>
     <use xlink:href="#m1620b8fa81" x="232.840914" y="35.804612" style="fill-opacity: 0; stroke: #ff00ff; stroke-width: 1.5; stroke-linejoin: miter"/>
     <use xlink:href="#m1620b8fa81" x="237.301561" y="27.648" style="fill-opacity: 0; stroke: #ff00ff; stroke-width: 1.5; stroke-linejoin: miter"/>
     <use xlink:href="#m1620b8fa81" x="237.301561" y="27.648" style="fill-opacity: 0; stroke: #ff00ff; stroke-width: 1.5; stroke-linejoin: miter"/>
     <use xlink:href="#m1620b8fa81" x="360.8064" y="27.648" style="fill-opacity: 0; stroke: #ff00ff; stroke-width: 1.5; stroke-linejoin: miter"/>
    </g>
   </g>
   <g id="line2d_41">
    <path style="fill: none; stroke: #ff00ff; stroke-width: 1.5; stroke-linecap: square"/>
    <g/>
   </g>
   <g id="line2d_42">
    <path d="M 360.8064 27.648 
L 380.514816 293.51808 
" style="fill: none; stroke: #000080; stroke-width: 1.5; stroke-linecap: square"/>
    <g>
     <use xlink:href="#m9cad421642" x="360.8064" y="27.648" style="fill-opacity: 0; stroke: #000080; stroke-width: 1.5"/>
     <use xlink:href="#m9cad421642" x="380.514816" y="293.51808" style="fill-opacity: 0; stroke: #000080; stroke-width: 1.5"/>
    </g>
   </g>
   <g id="line2d_43">
    <path d="M 360.8064 27.648 
L 380.514816 163.296 
" style="fill: none; stroke: #ff00ff; stroke-width: 1.5; stroke-linecap: square"/>
    <g>
     <use xlink:href="#m1620b8fa81" x="360.8064" y="27.648" style="fill-opacity: 0; stroke: #ff00ff; stroke-width: 1.5; stroke-linejoin: miter"/>
     <use xlink:href="#m1620b8fa81" x="380.514816" y="163.296" style="fill-opacity: 0; stroke: #ff00ff; stroke-width: 1.5; stroke-linejoin: miter"/>
    </g>
   </g>
   <g id="line2d_44">
    <path d="M 360.8064 298.944 
L 360.8064 27.648 
" style="fill: none; stroke: #000000; stroke-width: 1.5; stroke-linecap: square"/>
   </g>
   <g id="patch_3">
    <path d="M 57.6 298.944 
L 360.8064 298.944 
" style="fill: none; stroke: #000000; stroke-width: 0.8; stroke-linejoin: miter; stroke-linecap: square"/>
   </g>
   <g id="patch_4">
    <path d="M 57.6 27.648 
L 360.8064 27.648 
" style="fill: none; stroke: #000000; stroke-width: 0.8; stroke-linejoin: miter; stroke-linecap: square"/>
   </g>
   <g id="text_13">
    <!-- LCGA -->
    <g transform="translate(386.578944 297.381205)scale(0.14 -0.14)">
     <defs>
      <path id="DejaVuSans-4c" d="M 628 4666 
L 1259 4666 
L 1259 531 
L 3531 531 
L 3531 0 
L 628 0 
L 628 4666 
z
" transform="scale(0.015625)"/>
      <path id="DejaVuSans-43" d="M 4122 4306 
L 4122 3641 
Q 3803 3938 3442 4084 
Q 3081 4231 2675 4231 
Q 1875 4231 1450 3742 
Q 1025 3253 1025 2328 
Q 1025 1406 1450 917 
Q 1875 428 2675 428 
Q 3081 428 3442 575 
Q 3803 722 4122 1019 
L 4122 359 
Q 3791 134 3420 21 
Q 3050 -91 2638 -91 
Q 1578 -91 968 557 
Q 359 1206 359 2328 
Q 359 3453 968 4101 
Q 1578 4750 2638 4750 
Q 3056 4750 3426 4639 
Q 3797 4528 4122 4306 
z
" transform="scale(0.015625)"/>
      <path id="DejaVuSans-47" d="M 3809 666 
L 3809 1919 
L 2778 1919 
L 2778 2438 
L 4434 2438 
L 4434 434 
Q 4069 175 3628 42 
Q 3188 -91 2688 -91 
Q 1594 -91 976 548 
Q 359 1188 359 2328 
Q 359 3472 976 4111 
Q 1594 4750 2688 4750 
Q 3144 4750 3555 4637 
Q 3966 4525 4313 4306 
L 4313 3634 
Q 3963 3931 3569 4081 
Q 3175 4231 2741 4231 
Q 1884 4231 1454 3753 
Q 1025 3275 1025 2328 
Q 1025 1384 1454 906 
Q 1884 428 2741 428 
Q 3075 428 3337 486 
Q 3600 544 3809 666 
z
" transform="scale(0.015625)"/>
      <path id="DejaVuSans-41" d="M 2188 4044 
L 1331 1722 
L 3047 1722 
L 2188 4044 
z
M 1831 4666 
L 2547 4666 
L 4325 0 
L 3669 0 
L 3244 1197 
L 1141 1197 
L 716 0 
L 50 0 
L 1831 4666 
z
" transform="scale(0.015625)"/>
     </defs>
     <use xlink:href="#DejaVuSans-4c"/>
     <use xlink:href="#DejaVuSans-43" x="55.712891"/>
     <use xlink:href="#DejaVuSans-47" x="125.537109"/>
     <use xlink:href="#DejaVuSans-41" x="203.027344"/>
    </g>
   </g>
   <g id="text_14">
    <!-- EvoSpace- -->
    <g transform="translate(386.578944 167.159125)scale(0.14 -0.14)">
     <defs>
      <path id="DejaVuSans-45" d="M 628 4666 
L 3578 4666 
L 3578 4134 
L 1259 4134 
L 1259 2753 
L 3481 2753 
L 3481 2222 
L 1259 2222 
L 1259 531 
L 3634 531 
L 3634 0 
L 628 0 
L 628 4666 
z
" transform="scale(0.015625)"/>
      <path id="DejaVuSans-53" d="M 3425 4513 
L 3425 3897 
Q 3066 4069 2747 4153 
Q 2428 4238 2131 4238 
Q 1616 4238 1336 4038 
Q 1056 3838 1056 3469 
Q 1056 3159 1242 3001 
Q 1428 2844 1947 2747 
L 2328 2669 
Q 3034 2534 3370 2195 
Q 3706 1856 3706 1288 
Q 3706 609 3251 259 
Q 2797 -91 1919 -91 
Q 1588 -91 1214 -16 
Q 841 59 441 206 
L 441 856 
Q 825 641 1194 531 
Q 1563 422 1919 422 
Q 2459 422 2753 634 
Q 3047 847 3047 1241 
Q 3047 1584 2836 1778 
Q 2625 1972 2144 2069 
L 1759 2144 
Q 1053 2284 737 2584 
Q 422 2884 422 3419 
Q 422 4038 858 4394 
Q 1294 4750 2059 4750 
Q 2388 4750 2728 4690 
Q 3069 4631 3425 4513 
z
" transform="scale(0.015625)"/>
     </defs>
     <use xlink:href="#DejaVuSans-45"/>
     <use xlink:href="#DejaVuSans-76" x="63.183594"/>
     <use xlink:href="#DejaVuSans-6f" x="122.363281"/>
     <use xlink:href="#DejaVuSans-53" x="183.544922"/>
     <use xlink:href="#DejaVuSans-70" x="247.021484"/>
     <use xlink:href="#DejaVuSans-61" x="310.498047"/>
     <use xlink:href="#DejaVuSans-63" x="371.777344"/>
     <use xlink:href="#DejaVuSans-65" x="426.757812"/>
     <use xlink:href="#DejaVuSans-2d" x="488.28125"/>
    </g>
   </g>
   <g id="text_15">
    <!-- best 2009 -->
    <g transform="translate(386.578944 36.937045)scale(0.14 -0.14)">
     <defs>
      <path id="DejaVuSans-62" d="M 3116 1747 
Q 3116 2381 2855 2742 
Q 2594 3103 2138 3103 
Q 1681 3103 1420 2742 
Q 1159 2381 1159 1747 
Q 1159 1113 1420 752 
Q 1681 391 2138 391 
Q 2594 391 2855 752 
Q 3116 1113 3116 1747 
z
M 1159 2969 
Q 1341 3281 1617 3432 
Q 1894 3584 2278 3584 
Q 2916 3584 3314 3078 
Q 3713 2572 3713 1747 
Q 3713 922 3314 415 
Q 2916 -91 2278 -91 
Q 1894 -91 1617 61 
Q 1341 213 1159 525 
L 1159 0 
L 581 0 
L 581 4863 
L 1159 4863 
L 1159 2969 
z
" transform="scale(0.015625)"/>
      <path id="DejaVuSans-39" d="M 703 97 
L 703 672 
Q 941 559 1184 500 
Q 1428 441 1663 441 
Q 2288 441 2617 861 
Q 2947 1281 2994 2138 
Q 2813 1869 2534 1725 
Q 2256 1581 1919 1581 
Q 1219 1581 811 2004 
Q 403 2428 403 3163 
Q 403 3881 828 4315 
Q 1253 4750 1959 4750 
Q 2769 4750 3195 4129 
Q 3622 3509 3622 2328 
Q 3622 1225 3098 567 
Q 2575 -91 1691 -91 
Q 1453 -91 1209 -44 
Q 966 3 703 97 
z
M 1959 2075 
Q 2384 2075 2632 2365 
Q 2881 2656 2881 3163 
Q 2881 3666 2632 3958 
Q 2384 4250 1959 4250 
Q 1534 4250 1286 3958 
Q 1038 3666 1038 3163 
Q 1038 2656 1286 2365 
Q 1534 2075 1959 2075 
z
" transform="scale(0.015625)"/>
     </defs>
     <use xlink:href="#DejaVuSans-62"/>
     <use xlink:href="#DejaVuSans-65" x="63.476562"/>
     <use xlink:href="#DejaVuSans-73" x="125"/>
     <use xlink:href="#DejaVuSans-74" x="177.099609"/>
     <use xlink:href="#DejaVuSans-20" x="216.308594"/>
     <use xlink:href="#DejaVuSans-32" x="248.095703"/>
     <use xlink:href="#DejaVuSans-30" x="311.71875"/>
     <use xlink:href="#DejaVuSans-30" x="375.341797"/>
     <use xlink:href="#DejaVuSans-39" x="438.964844"/>
    </g>
   </g>
   <g id="text_16">
    <!-- bbob f4, 3-D -->
    <g transform="translate(60.632064 38.111366)scale(0.102 -0.102)">
     <defs>
      <path id="DejaVuSans-33" d="M 2597 2516 
Q 3050 2419 3304 2112 
Q 3559 1806 3559 1356 
Q 3559 666 3084 287 
Q 2609 -91 1734 -91 
Q 1441 -91 1130 -33 
Q 819 25 488 141 
L 488 750 
Q 750 597 1062 519 
Q 1375 441 1716 441 
Q 2309 441 2620 675 
Q 2931 909 2931 1356 
Q 2931 1769 2642 2001 
Q 2353 2234 1838 2234 
L 1294 2234 
L 1294 2753 
L 1863 2753 
Q 2328 2753 2575 2939 
Q 2822 3125 2822 3475 
Q 2822 3834 2567 4026 
Q 2313 4219 1838 4219 
Q 1578 4219 1281 4162 
Q 984 4106 628 3988 
L 628 4550 
Q 988 4650 1302 4700 
Q 1616 4750 1894 4750 
Q 2613 4750 3031 4423 
Q 3450 4097 3450 3541 
Q 3450 3153 3228 2886 
Q 3006 2619 2597 2516 
z
" transform="scale(0.015625)"/>
      <path id="DejaVuSans-44" d="M 1259 4147 
L 1259 519 
L 2022 519 
Q 2988 519 3436 956 
Q 3884 1394 3884 2338 
Q 3884 3275 3436 3711 
Q 2988 4147 2022 4147 
L 1259 4147 
z
M 628 4666 
L 1925 4666 
Q 3281 4666 3915 4102 
Q 4550 3538 4550 2338 
Q 4550 1131 3912 565 
Q 3275 0 1925 0 
L 628 0 
L 628 4666 
z
" transform="scale(0.015625)"/>
     </defs>
     <use xlink:href="#DejaVuSans-62"/>
     <use xlink:href="#DejaVuSans-62" x="63.476562"/>
     <use xlink:href="#DejaVuSans-6f" x="126.953125"/>
     <use xlink:href="#DejaVuSans-62" x="188.134766"/>
     <use xlink:href="#DejaVuSans-20" x="251.611328"/>
     <use xlink:href="#DejaVuSans-66" x="283.398438"/>
     <use xlink:href="#DejaVuSans-34" x="318.603516"/>
     <use xlink:href="#DejaVuSans-2c" x="382.226562"/>
     <use xlink:href="#DejaVuSans-20" x="414.013672"/>
     <use xlink:href="#DejaVuSans-33" x="445.800781"/>
     <use xlink:href="#DejaVuSans-2d" x="509.423828"/>
     <use xlink:href="#DejaVuSans-44" x="545.507812"/>
    </g>
    <!-- 51 targets: 100..1e-08 -->
    <g transform="translate(60.632064 49.533135)scale(0.102 -0.102)">
     <defs>
      <path id="DejaVuSans-35" d="M 691 4666 
L 3169 4666 
L 3169 4134 
L 1269 4134 
L 1269 2991 
Q 1406 3038 1543 3061 
Q 1681 3084 1819 3084 
Q 2600 3084 3056 2656 
Q 3513 2228 3513 1497 
Q 3513 744 3044 326 
Q 2575 -91 1722 -91 
Q 1428 -91 1123 -41 
Q 819 9 494 109 
L 494 744 
Q 775 591 1075 516 
Q 1375 441 1709 441 
Q 2250 441 2565 725 
Q 2881 1009 2881 1497 
Q 2881 1984 2565 2268 
Q 2250 2553 1709 2553 
Q 1456 2553 1204 2497 
Q 953 2441 691 2322 
L 691 4666 
z
" transform="scale(0.015625)"/>
      <path id="DejaVuSans-3a" d="M 750 794 
L 1409 794 
L 1409 0 
L 750 0 
L 750 794 
z
M 750 3309 
L 1409 3309 
L 1409 2516 
L 750 2516 
L 750 3309 
z
" transform="scale(0.015625)"/>
     </defs>
     <use xlink:href="#DejaVuSans-35"/>
     <use xlink:href="#DejaVuSans-31" x="63.623047"/>
     <use xlink:href="#DejaVuSans-20" x="127.246094"/>
     <use xlink:href="#DejaVuSans-74" x="159.033203"/>
     <use xlink:href="#DejaVuSans-61" x="198.242188"/>
     <use xlink:href="#DejaVuSans-72" x="259.521484"/>
     <use xlink:href="#DejaVuSans-67" x="298.884766"/>
     <use xlink:href="#DejaVuSans-65" x="362.361328"/>
     <use xlink:href="#DejaVuSans-74" x="423.884766"/>
     <use xlink:href="#DejaVuSans-73" x="463.09375"/>
     <use xlink:href="#DejaVuSans-3a" x="515.193359"/>
     <use xlink:href="#DejaVuSans-20" x="548.884766"/>
     <use xlink:href="#DejaVuSans-31" x="580.671875"/>
     <use xlink:href="#DejaVuSans-30" x="644.294922"/>
     <use xlink:href="#DejaVuSans-30" x="707.917969"/>
     <use xlink:href="#DejaVuSans-2e" x="771.541016"/>
     <use xlink:href="#DejaVuSans-2e" x="803.328125"/>
     <use xlink:href="#DejaVuSans-31" x="835.115234"/>
     <use xlink:href="#DejaVuSans-65" x="898.738281"/>
     <use xlink:href="#DejaVuSans-2d" x="960.261719"/>
     <use xlink:href="#DejaVuSans-30" x="996.345703"/>
     <use xlink:href="#DejaVuSans-38" x="1059.96875"/>
    </g>
    <!-- 15 instances -->
    <g transform="translate(60.632064 60.954904)scale(0.102 -0.102)">
     <use xlink:href="#DejaVuSans-31"/>
     <use xlink:href="#DejaVuSans-35" x="63.623047"/>
     <use xlink:href="#DejaVuSans-20" x="127.246094"/>
     <use xlink:href="#DejaVuSans-69" x="159.033203"/>
     <use xlink:href="#DejaVuSans-6e" x="186.816406"/>
     <use xlink:href="#DejaVuSans-73" x="250.195312"/>
     <use xlink:href="#DejaVuSans-74" x="302.294922"/>
     <use xlink:href="#DejaVuSans-61" x="341.503906"/>
     <use xlink:href="#DejaVuSans-6e" x="402.783203"/>
     <use xlink:href="#DejaVuSans-63" x="466.162109"/>
     <use xlink:href="#DejaVuSans-65" x="521.142578"/>
     <use xlink:href="#DejaVuSans-73" x="582.666016"/>
    </g>
   </g>
   <g id="text_17">
    <!-- v2.6 -->
    <g style="fill: #808080" transform="translate(198.292262 294.151352)scale(0.1 -0.1)">
     <use xlink:href="#DejaVuSans-76"/>
     <use xlink:href="#DejaVuSans-32" x="59.179688"/>
     <use xlink:href="#DejaVuSans-2e" x="122.802734"/>
     <use xlink:href="#DejaVuSans-36" x="154.589844"/>
    </g>
   </g>
   <g id="text_18">
    <!-- 4 Skew Rastrigin-Bueche separ -->
    <g transform="translate(54.3282 21.648)scale(0.2 -0.2)">
     <defs>
      <path id="DejaVuSans-6b" d="M 581 4863 
L 1159 4863 
L 1159 1991 
L 2875 3500 
L 3609 3500 
L 1753 1863 
L 3688 0 
L 2938 0 
L 1159 1709 
L 1159 0 
L 581 0 
L 581 4863 
z
" transform="scale(0.015625)"/>
      <path id="DejaVuSans-77" d="M 269 3500 
L 844 3500 
L 1563 769 
L 2278 3500 
L 2956 3500 
L 3675 769 
L 4391 3500 
L 4966 3500 
L 4050 0 
L 3372 0 
L 2619 2869 
L 1863 0 
L 1184 0 
L 269 3500 
z
" transform="scale(0.015625)"/>
      <path id="DejaVuSans-52" d="M 2841 2188 
Q 3044 2119 3236 1894 
Q 3428 1669 3622 1275 
L 4263 0 
L 3584 0 
L 2988 1197 
Q 2756 1666 2539 1819 
Q 2322 1972 1947 1972 
L 1259 1972 
L 1259 0 
L 628 0 
L 628 4666 
L 2053 4666 
Q 2853 4666 3247 4331 
Q 3641 3997 3641 3322 
Q 3641 2881 3436 2590 
Q 3231 2300 2841 2188 
z
M 1259 4147 
L 1259 2491 
L 2053 2491 
Q 2509 2491 2742 2702 
Q 2975 2913 2975 3322 
Q 2975 3731 2742 3939 
Q 2509 4147 2053 4147 
L 1259 4147 
z
" transform="scale(0.015625)"/>
      <path id="DejaVuSans-42" d="M 1259 2228 
L 1259 519 
L 2272 519 
Q 2781 519 3026 730 
Q 3272 941 3272 1375 
Q 3272 1813 3026 2020 
Q 2781 2228 2272 2228 
L 1259 2228 
z
M 1259 4147 
L 1259 2741 
L 2194 2741 
Q 2656 2741 2882 2914 
Q 3109 3088 3109 3444 
Q 3109 3797 2882 3972 
Q 2656 4147 2194 4147 
L 1259 4147 
z
M 628 4666 
L 2241 4666 
Q 2963 4666 3353 4366 
Q 3744 4066 3744 3513 
Q 3744 3084 3544 2831 
Q 3344 2578 2956 2516 
Q 3422 2416 3680 2098 
Q 3938 1781 3938 1306 
Q 3938 681 3513 340 
Q 3088 0 2303 0 
L 628 0 
L 628 4666 
z
" transform="scale(0.015625)"/>
      <path id="DejaVuSans-68" d="M 3513 2113 
L 3513 0 
L 2938 0 
L 2938 2094 
Q 2938 2591 2744 2837 
Q 2550 3084 2163 3084 
Q 1697 3084 1428 2787 
Q 1159 2491 1159 1978 
L 1159 0 
L 581 0 
L 581 4863 
L 1159 4863 
L 1159 2956 
Q 1366 3272 1645 3428 
Q 1925 3584 2291 3584 
Q 2894 3584 3203 3211 
Q 3513 2838 3513 2113 
z
" transform="scale(0.015625)"/>
     </defs>
     <use xlink:href="#DejaVuSans-34"/>
     <use xlink:href="#DejaVuSans-20" x="63.623047"/>
     <use xlink:href="#DejaVuSans-53" x="95.410156"/>
     <use xlink:href="#DejaVuSans-6b" x="158.886719"/>
     <use xlink:href="#DejaVuSans-65" x="213.171875"/>
     <use xlink:href="#DejaVuSans-77" x="274.695312"/>
     <use xlink:href="#DejaVuSans-20" x="356.482422"/>
     <use xlink:href="#DejaVuSans-52" x="388.269531"/>
     <use xlink:href="#DejaVuSans-61" x="455.501953"/>
     <use xlink:href="#DejaVuSans-73" x="516.78125"/>
     <use xlink:href="#DejaVuSans-74" x="568.880859"/>
     <use xlink:href="#DejaVuSans-72" x="608.089844"/>
     <use xlink:href="#DejaVuSans-69" x="649.203125"/>
     <use xlink:href="#DejaVuSans-67" x="676.986328"/>
     <use xlink:href="#DejaVuSans-69" x="740.462891"/>
     <use xlink:href="#DejaVuSans-6e" x="768.246094"/>
     <use xlink:href="#DejaVuSans-2d" x="831.625"/>
     <use xlink:href="#DejaVuSans-42" x="864.083984"/>
     <use xlink:href="#DejaVuSans-75" x="932.6875"/>
     <use xlink:href="#DejaVuSans-65" x="996.066406"/>
     <use xlink:href="#DejaVuSans-63" x="1057.589844"/>
     <use xlink:href="#DejaVuSans-68" x="1112.570312"/>
     <use xlink:href="#DejaVuSans-65" x="1175.949219"/>
     <use xlink:href="#DejaVuSans-20" x="1237.472656"/>
     <use xlink:href="#DejaVuSans-73" x="1269.259766"/>
     <use xlink:href="#DejaVuSans-65" x="1321.359375"/>
     <use xlink:href="#DejaVuSans-70" x="1382.882812"/>
     <use xlink:href="#DejaVuSans-61" x="1446.359375"/>
     <use xlink:href="#DejaVuSans-72" x="1507.638672"/>
    </g>
   </g>
  </g>
 </g>
 <defs>
  <clipPath id="p9036423ec5">
   <rect x="57.6" y="27.648" width="303.2064" height="271.296"/>
  </clipPath>
 </defs>
</svg>
