<?xml version="1.0" encoding="utf-8" standalone="no"?>
<!DOCTYPE svg PUBLIC "-//W3C//DTD SVG 1.1//EN"
  "http://www.w3.org/Graphics/SVG/1.1/DTD/svg11.dtd">
<svg xmlns:xlink="http://www.w3.org/1999/xlink" width="460.8pt" height="345.6pt" viewBox="0 0 460.8 345.6" xmlns="http://www.w3.org/2000/svg" version="1.1">
 <metadata>
  <rdf:RDF xmlns:dc="http://purl.org/dc/elements/1.1/" xmlns:cc="http://creativecommons.org/ns#" xmlns:rdf="http://www.w3.org/1999/02/22-rdf-syntax-ns#">
   <cc:Work>
    <dc:type rdf:resource="http://purl.org/dc/dcmitype/StillImage"/>
    <dc:date>2024-05-29T08:05:50.567796</dc:date>
    <dc:format>image/svg+xml</dc:format>
    <dc:creator>
     <cc:Agent>
      <dc:title>Matplotlib v3.5.1, https://matplotlib.org/</dc:title>
     </cc:Agent>
    </dc:creator>
   </cc:Work>
  </rdf:RDF>
 </metadata>
 <defs>
  <style type="text/css">*{stroke-linejoin: round; stroke-linecap: butt}</style>
 </defs>
 <g id="figure_1">
  <g id="patch_1">
   <path d="M 0 345.6 
L 460.8 345.6 
L 460.8 0 
L 0 0 
z
" style="fill: #ffffff"/>
  </g>
  <g id="axes_1">
   <g id="patch_2">
    <path d="M 57.6 298.944 
L 360.8064 298.944 
L 360.8064 27.648 
L 57.6 27.648 
z
" style="fill: #ffffff"/>
   </g>
   <g id="line2d_1">
    <path d="M 83.678349 298.944 
L 83.678349 293.624471 
L 95.916911 293.624471 
L 95.916911 288.304941 
L 96.717523 288.304941 
L 96.717523 282.985412 
L 104.344952 282.985412 
L 104.344952 277.665882 
L 113.954374 277.665882 
L 113.954374 272.346353 
L 116.030193 272.346353 
L 116.030193 267.026824 
L 119.366121 267.026824 
L 119.366121 261.707294 
L 121.581803 261.707294 
L 121.581803 256.387765 
L 123.374735 256.387765 
L 123.374735 251.068235 
L 123.563797 251.068235 
L 123.563797 245.748706 
L 124.481616 245.748706 
L 124.481616 240.429176 
L 130.027253 240.429176 
L 130.027253 235.109647 
L 130.682774 235.109647 
L 130.682774 229.790118 
L 133.983236 229.790118 
L 133.983236 224.470588 
L 134.516177 224.470588 
L 134.516177 219.151059 
L 138.985129 219.151059 
L 138.985129 213.831529 
L 139.150143 213.831529 
L 139.150143 208.512 
L 140.649551 208.512 
L 140.649551 203.192471 
L 140.950542 203.192471 
L 140.950542 197.872941 
L 141.538451 197.872941 
L 141.538451 192.553412 
L 141.754265 192.553412 
L 141.754265 187.233882 
L 142.038218 187.233882 
L 142.038218 181.914353 
L 142.178603 181.914353 
L 142.178603 176.594824 
L 142.387236 176.594824 
L 142.387236 171.275294 
L 142.593581 171.275294 
L 142.593581 165.955765 
L 142.729897 165.955765 
L 142.729897 160.636235 
L 142.932537 160.636235 
L 142.932537 155.316706 
L 142.999601 155.316706 
L 142.999601 149.997176 
L 143.331383 149.997176 
L 143.331383 144.677647 
L 143.462475 144.677647 
L 143.462475 139.358118 
L 143.52768 139.358118 
L 143.52768 134.038588 
L 143.721949 134.038588 
L 143.721949 128.719059 
L 143.850356 128.719059 
L 143.850356 123.399529 
L 144.10457 123.399529 
L 144.10457 118.08 
L 144.2304 118.08 
L 144.2304 112.760471 
L 144.355394 112.760471 
L 144.355394 107.440941 
L 144.541342 107.440941 
L 144.541342 102.121412 
L 144.786447 102.121412 
L 144.786447 96.801882 
L 144.907812 96.801882 
L 144.907812 91.482353 
L 145.088405 91.482353 
L 145.088405 86.162824 
L 145.148219 86.162824 
L 145.148219 80.843294 
L 145.326529 80.843294 
L 145.326529 75.523765 
L 145.385592 75.523765 
L 145.385592 70.204235 
L 145.561676 70.204235 
L 145.561676 64.884706 
L 145.736128 64.884706 
L 145.736128 59.565176 
L 145.851536 59.565176 
L 145.851536 54.245647 
L 145.966241 54.245647 
L 145.966241 48.926118 
L 146.24998 48.926118 
L 146.24998 43.606588 
L 146.306218 43.606588 
L 146.306218 38.287059 
L 146.418192 38.287059 
L 146.418192 32.967529 
L 146.584913 32.967529 
L 146.584913 27.648 
L 360.8064 27.648 
" style="fill: none; stroke: #f5deb3; stroke-width: 4; stroke-linecap: square"/>
   </g>
   <g id="line2d_2">
    <defs>
     <path id="mb85df9ac73" d="M 0 7.778175 
L 7.778175 0 
L 0 -7.778175 
L -7.778175 0 
z
" style="stroke: #f5deb3; stroke-width: 1.5; stroke-linejoin: miter"/>
    </defs>
    <g>
     <use xlink:href="#mb85df9ac73" x="142.932537" y="160.636235" style="fill: #f5deb3; stroke: #f5deb3; stroke-width: 1.5; stroke-linejoin: miter"/>
     <use xlink:href="#mb85df9ac73" x="146.584913" y="32.967529" style="fill: #f5deb3; stroke: #f5deb3; stroke-width: 1.5; stroke-linejoin: miter"/>
     <use xlink:href="#mb85df9ac73" x="146.584913" y="27.648" style="fill: #f5deb3; stroke: #f5deb3; stroke-width: 1.5; stroke-linejoin: miter"/>
     <use xlink:href="#mb85df9ac73" x="146.584913" y="27.648" style="fill: #f5deb3; stroke: #f5deb3; stroke-width: 1.5; stroke-linejoin: miter"/>
     <use xlink:href="#mb85df9ac73" x="360.8064" y="27.648" style="fill: #f5deb3; stroke: #f5deb3; stroke-width: 1.5; stroke-linejoin: miter"/>
    </g>
   </g>
   <g id="line2d_3">
    <path style="fill: none; stroke: #f5deb3; stroke-width: 4; stroke-linecap: square"/>
    <g/>
   </g>
   <g id="line2d_4">
    <path d="M 360.8064 27.648 
L 380.514816 33.07392 
" style="fill: none; stroke: #f5deb3; stroke-width: 4; stroke-linecap: square"/>
    <g>
     <use xlink:href="#mb85df9ac73" x="360.8064" y="27.648" style="fill: #f5deb3; stroke: #f5deb3; stroke-width: 1.5; stroke-linejoin: miter"/>
     <use xlink:href="#mb85df9ac73" x="380.514816" y="33.07392" style="fill: #f5deb3; stroke: #f5deb3; stroke-width: 1.5; stroke-linejoin: miter"/>
    </g>
   </g>
   <g id="matplotlib.axis_1">
    <g id="xtick_1">
     <g id="line2d_5">
      <path d="M 57.6 298.944 
L 57.6 27.648 
" clip-path="url(#p0044982ed4)" style="fill: none; stroke: #b0b0b0; stroke-width: 0.8; stroke-linecap: square"/>
     </g>
     <g id="line2d_6">
      <defs>
       <path id="me23f7a0876" d="M 0 0 
L 0 3.5 
" style="stroke: #000000; stroke-width: 0.8"/>
      </defs>
      <g>
       <use xlink:href="#me23f7a0876" x="57.6" y="298.944" style="stroke: #000000; stroke-width: 0.8"/>
      </g>
     </g>
     <g id="text_1">
      <!-- 0 -->
      <g transform="translate(52.191875 318.861344)scale(0.17 -0.17)">
       <defs>
        <path id="DejaVuSans-30" d="M 2034 4250 
Q 1547 4250 1301 3770 
Q 1056 3291 1056 2328 
Q 1056 1369 1301 889 
Q 1547 409 2034 409 
Q 2525 409 2770 889 
Q 3016 1369 3016 2328 
Q 3016 3291 2770 3770 
Q 2525 4250 2034 4250 
z
M 2034 4750 
Q 2819 4750 3233 4129 
Q 3647 3509 3647 2328 
Q 3647 1150 3233 529 
Q 2819 -91 2034 -91 
Q 1250 -91 836 529 
Q 422 1150 422 2328 
Q 422 3509 836 4129 
Q 1250 4750 2034 4750 
z
" transform="scale(0.015625)"/>
       </defs>
       <use xlink:href="#DejaVuSans-30"/>
      </g>
     </g>
    </g>
    <g id="xtick_2">
     <g id="line2d_7">
      <path d="M 144.2304 298.944 
L 144.2304 27.648 
" clip-path="url(#p0044982ed4)" style="fill: none; stroke: #b0b0b0; stroke-width: 0.8; stroke-linecap: square"/>
     </g>
     <g id="line2d_8">
      <g>
       <use xlink:href="#me23f7a0876" x="144.2304" y="298.944" style="stroke: #000000; stroke-width: 0.8"/>
      </g>
     </g>
     <g id="text_2">
      <!-- 2 -->
      <g transform="translate(138.822275 318.861344)scale(0.17 -0.17)">
       <defs>
        <path id="DejaVuSans-32" d="M 1228 531 
L 3431 531 
L 3431 0 
L 469 0 
L 469 531 
Q 828 903 1448 1529 
Q 2069 2156 2228 2338 
Q 2531 2678 2651 2914 
Q 2772 3150 2772 3378 
Q 2772 3750 2511 3984 
Q 2250 4219 1831 4219 
Q 1534 4219 1204 4116 
Q 875 4013 500 3803 
L 500 4441 
Q 881 4594 1212 4672 
Q 1544 4750 1819 4750 
Q 2544 4750 2975 4387 
Q 3406 4025 3406 3419 
Q 3406 3131 3298 2873 
Q 3191 2616 2906 2266 
Q 2828 2175 2409 1742 
Q 1991 1309 1228 531 
z
" transform="scale(0.015625)"/>
       </defs>
       <use xlink:href="#DejaVuSans-32"/>
      </g>
     </g>
    </g>
    <g id="xtick_3">
     <g id="line2d_9">
      <path d="M 230.8608 298.944 
L 230.8608 27.648 
" clip-path="url(#p0044982ed4)" style="fill: none; stroke: #b0b0b0; stroke-width: 0.8; stroke-linecap: square"/>
     </g>
     <g id="line2d_10">
      <g>
       <use xlink:href="#me23f7a0876" x="230.8608" y="298.944" style="stroke: #000000; stroke-width: 0.8"/>
      </g>
     </g>
     <g id="text_3">
      <!-- 4 -->
      <g transform="translate(225.452675 318.861344)scale(0.17 -0.17)">
       <defs>
        <path id="DejaVuSans-34" d="M 2419 4116 
L 825 1625 
L 2419 1625 
L 2419 4116 
z
M 2253 4666 
L 3047 4666 
L 3047 1625 
L 3713 1625 
L 3713 1100 
L 3047 1100 
L 3047 0 
L 2419 0 
L 2419 1100 
L 313 1100 
L 313 1709 
L 2253 4666 
z
" transform="scale(0.015625)"/>
       </defs>
       <use xlink:href="#DejaVuSans-34"/>
      </g>
     </g>
    </g>
    <g id="xtick_4">
     <g id="line2d_11">
      <path d="M 317.4912 298.944 
L 317.4912 27.648 
" clip-path="url(#p0044982ed4)" style="fill: none; stroke: #b0b0b0; stroke-width: 0.8; stroke-linecap: square"/>
     </g>
     <g id="line2d_12">
      <g>
       <use xlink:href="#me23f7a0876" x="317.4912" y="298.944" style="stroke: #000000; stroke-width: 0.8"/>
      </g>
     </g>
     <g id="text_4">
      <!-- 6 -->
      <g transform="translate(312.083075 318.861344)scale(0.17 -0.17)">
       <defs>
        <path id="DejaVuSans-36" d="M 2113 2584 
Q 1688 2584 1439 2293 
Q 1191 2003 1191 1497 
Q 1191 994 1439 701 
Q 1688 409 2113 409 
Q 2538 409 2786 701 
Q 3034 994 3034 1497 
Q 3034 2003 2786 2293 
Q 2538 2584 2113 2584 
z
M 3366 4563 
L 3366 3988 
Q 3128 4100 2886 4159 
Q 2644 4219 2406 4219 
Q 1781 4219 1451 3797 
Q 1122 3375 1075 2522 
Q 1259 2794 1537 2939 
Q 1816 3084 2150 3084 
Q 2853 3084 3261 2657 
Q 3669 2231 3669 1497 
Q 3669 778 3244 343 
Q 2819 -91 2113 -91 
Q 1303 -91 875 529 
Q 447 1150 447 2328 
Q 447 3434 972 4092 
Q 1497 4750 2381 4750 
Q 2619 4750 2861 4703 
Q 3103 4656 3366 4563 
z
" transform="scale(0.015625)"/>
       </defs>
       <use xlink:href="#DejaVuSans-36"/>
      </g>
     </g>
    </g>
    <g id="xtick_5">
     <g id="line2d_13">
      <path d="M 100.9152 298.944 
L 100.9152 27.648 
" clip-path="url(#p0044982ed4)" style="fill: none; stroke: #b0b0b0; stroke-width: 0.8; stroke-linecap: square"/>
     </g>
     <g id="line2d_14">
      <defs>
       <path id="mf4b4c63810" d="M 0 0 
L 0 2 
" style="stroke: #000000; stroke-width: 0.6"/>
      </defs>
      <g>
       <use xlink:href="#mf4b4c63810" x="100.9152" y="298.944" style="stroke: #000000; stroke-width: 0.6"/>
      </g>
     </g>
    </g>
    <g id="xtick_6">
     <g id="line2d_15">
      <path d="M 187.5456 298.944 
L 187.5456 27.648 
" clip-path="url(#p0044982ed4)" style="fill: none; stroke: #b0b0b0; stroke-width: 0.8; stroke-linecap: square"/>
     </g>
     <g id="line2d_16">
      <g>
       <use xlink:href="#mf4b4c63810" x="187.5456" y="298.944" style="stroke: #000000; stroke-width: 0.6"/>
      </g>
     </g>
    </g>
    <g id="xtick_7">
     <g id="line2d_17">
      <path d="M 274.176 298.944 
L 274.176 27.648 
" clip-path="url(#p0044982ed4)" style="fill: none; stroke: #b0b0b0; stroke-width: 0.8; stroke-linecap: square"/>
     </g>
     <g id="line2d_18">
      <g>
       <use xlink:href="#mf4b4c63810" x="274.176" y="298.944" style="stroke: #000000; stroke-width: 0.6"/>
      </g>
     </g>
    </g>
    <g id="xtick_8">
     <g id="line2d_19">
      <path d="M 360.8064 298.944 
L 360.8064 27.648 
" clip-path="url(#p0044982ed4)" style="fill: none; stroke: #b0b0b0; stroke-width: 0.8; stroke-linecap: square"/>
     </g>
     <g id="line2d_20">
      <g>
       <use xlink:href="#mf4b4c63810" x="360.8064" y="298.944" style="stroke: #000000; stroke-width: 0.6"/>
      </g>
     </g>
    </g>
    <g id="text_5">
     <!-- log10(# f-evals / dimension) -->
     <g transform="translate(88.823278 339.314156)scale(0.17 -0.17)">
      <defs>
       <path id="DejaVuSans-6c" d="M 603 4863 
L 1178 4863 
L 1178 0 
L 603 0 
L 603 4863 
z
" transform="scale(0.015625)"/>
       <path id="DejaVuSans-6f" d="M 1959 3097 
Q 1497 3097 1228 2736 
Q 959 2375 959 1747 
Q 959 1119 1226 758 
Q 1494 397 1959 397 
Q 2419 397 2687 759 
Q 2956 1122 2956 1747 
Q 2956 2369 2687 2733 
Q 2419 3097 1959 3097 
z
M 1959 3584 
Q 2709 3584 3137 3096 
Q 3566 2609 3566 1747 
Q 3566 888 3137 398 
Q 2709 -91 1959 -91 
Q 1206 -91 779 398 
Q 353 888 353 1747 
Q 353 2609 779 3096 
Q 1206 3584 1959 3584 
z
" transform="scale(0.015625)"/>
       <path id="DejaVuSans-67" d="M 2906 1791 
Q 2906 2416 2648 2759 
Q 2391 3103 1925 3103 
Q 1463 3103 1205 2759 
Q 947 2416 947 1791 
Q 947 1169 1205 825 
Q 1463 481 1925 481 
Q 2391 481 2648 825 
Q 2906 1169 2906 1791 
z
M 3481 434 
Q 3481 -459 3084 -895 
Q 2688 -1331 1869 -1331 
Q 1566 -1331 1297 -1286 
Q 1028 -1241 775 -1147 
L 775 -588 
Q 1028 -725 1275 -790 
Q 1522 -856 1778 -856 
Q 2344 -856 2625 -561 
Q 2906 -266 2906 331 
L 2906 616 
Q 2728 306 2450 153 
Q 2172 0 1784 0 
Q 1141 0 747 490 
Q 353 981 353 1791 
Q 353 2603 747 3093 
Q 1141 3584 1784 3584 
Q 2172 3584 2450 3431 
Q 2728 3278 2906 2969 
L 2906 3500 
L 3481 3500 
L 3481 434 
z
" transform="scale(0.015625)"/>
       <path id="DejaVuSans-31" d="M 794 531 
L 1825 531 
L 1825 4091 
L 703 3866 
L 703 4441 
L 1819 4666 
L 2450 4666 
L 2450 531 
L 3481 531 
L 3481 0 
L 794 0 
L 794 531 
z
" transform="scale(0.015625)"/>
       <path id="DejaVuSans-28" d="M 1984 4856 
Q 1566 4138 1362 3434 
Q 1159 2731 1159 2009 
Q 1159 1288 1364 580 
Q 1569 -128 1984 -844 
L 1484 -844 
Q 1016 -109 783 600 
Q 550 1309 550 2009 
Q 550 2706 781 3412 
Q 1013 4119 1484 4856 
L 1984 4856 
z
" transform="scale(0.015625)"/>
       <path id="DejaVuSans-23" d="M 3272 2816 
L 2363 2816 
L 2100 1772 
L 3016 1772 
L 3272 2816 
z
M 2803 4594 
L 2478 3297 
L 3391 3297 
L 3719 4594 
L 4219 4594 
L 3897 3297 
L 4872 3297 
L 4872 2816 
L 3775 2816 
L 3519 1772 
L 4513 1772 
L 4513 1294 
L 3397 1294 
L 3072 0 
L 2572 0 
L 2894 1294 
L 1978 1294 
L 1656 0 
L 1153 0 
L 1478 1294 
L 494 1294 
L 494 1772 
L 1594 1772 
L 1856 2816 
L 850 2816 
L 850 3297 
L 1978 3297 
L 2297 4594 
L 2803 4594 
z
" transform="scale(0.015625)"/>
       <path id="DejaVuSans-20" transform="scale(0.015625)"/>
       <path id="DejaVuSans-66" d="M 2375 4863 
L 2375 4384 
L 1825 4384 
Q 1516 4384 1395 4259 
Q 1275 4134 1275 3809 
L 1275 3500 
L 2222 3500 
L 2222 3053 
L 1275 3053 
L 1275 0 
L 697 0 
L 697 3053 
L 147 3053 
L 147 3500 
L 697 3500 
L 697 3744 
Q 697 4328 969 4595 
Q 1241 4863 1831 4863 
L 2375 4863 
z
" transform="scale(0.015625)"/>
       <path id="DejaVuSans-2d" d="M 313 2009 
L 1997 2009 
L 1997 1497 
L 313 1497 
L 313 2009 
z
" transform="scale(0.015625)"/>
       <path id="DejaVuSans-65" d="M 3597 1894 
L 3597 1613 
L 953 1613 
Q 991 1019 1311 708 
Q 1631 397 2203 397 
Q 2534 397 2845 478 
Q 3156 559 3463 722 
L 3463 178 
Q 3153 47 2828 -22 
Q 2503 -91 2169 -91 
Q 1331 -91 842 396 
Q 353 884 353 1716 
Q 353 2575 817 3079 
Q 1281 3584 2069 3584 
Q 2775 3584 3186 3129 
Q 3597 2675 3597 1894 
z
M 3022 2063 
Q 3016 2534 2758 2815 
Q 2500 3097 2075 3097 
Q 1594 3097 1305 2825 
Q 1016 2553 972 2059 
L 3022 2063 
z
" transform="scale(0.015625)"/>
       <path id="DejaVuSans-76" d="M 191 3500 
L 800 3500 
L 1894 563 
L 2988 3500 
L 3597 3500 
L 2284 0 
L 1503 0 
L 191 3500 
z
" transform="scale(0.015625)"/>
       <path id="DejaVuSans-61" d="M 2194 1759 
Q 1497 1759 1228 1600 
Q 959 1441 959 1056 
Q 959 750 1161 570 
Q 1363 391 1709 391 
Q 2188 391 2477 730 
Q 2766 1069 2766 1631 
L 2766 1759 
L 2194 1759 
z
M 3341 1997 
L 3341 0 
L 2766 0 
L 2766 531 
Q 2569 213 2275 61 
Q 1981 -91 1556 -91 
Q 1019 -91 701 211 
Q 384 513 384 1019 
Q 384 1609 779 1909 
Q 1175 2209 1959 2209 
L 2766 2209 
L 2766 2266 
Q 2766 2663 2505 2880 
Q 2244 3097 1772 3097 
Q 1472 3097 1187 3025 
Q 903 2953 641 2809 
L 641 3341 
Q 956 3463 1253 3523 
Q 1550 3584 1831 3584 
Q 2591 3584 2966 3190 
Q 3341 2797 3341 1997 
z
" transform="scale(0.015625)"/>
       <path id="DejaVuSans-73" d="M 2834 3397 
L 2834 2853 
Q 2591 2978 2328 3040 
Q 2066 3103 1784 3103 
Q 1356 3103 1142 2972 
Q 928 2841 928 2578 
Q 928 2378 1081 2264 
Q 1234 2150 1697 2047 
L 1894 2003 
Q 2506 1872 2764 1633 
Q 3022 1394 3022 966 
Q 3022 478 2636 193 
Q 2250 -91 1575 -91 
Q 1294 -91 989 -36 
Q 684 19 347 128 
L 347 722 
Q 666 556 975 473 
Q 1284 391 1588 391 
Q 1994 391 2212 530 
Q 2431 669 2431 922 
Q 2431 1156 2273 1281 
Q 2116 1406 1581 1522 
L 1381 1569 
Q 847 1681 609 1914 
Q 372 2147 372 2553 
Q 372 3047 722 3315 
Q 1072 3584 1716 3584 
Q 2034 3584 2315 3537 
Q 2597 3491 2834 3397 
z
" transform="scale(0.015625)"/>
       <path id="DejaVuSans-2f" d="M 1625 4666 
L 2156 4666 
L 531 -594 
L 0 -594 
L 1625 4666 
z
" transform="scale(0.015625)"/>
       <path id="DejaVuSans-64" d="M 2906 2969 
L 2906 4863 
L 3481 4863 
L 3481 0 
L 2906 0 
L 2906 525 
Q 2725 213 2448 61 
Q 2172 -91 1784 -91 
Q 1150 -91 751 415 
Q 353 922 353 1747 
Q 353 2572 751 3078 
Q 1150 3584 1784 3584 
Q 2172 3584 2448 3432 
Q 2725 3281 2906 2969 
z
M 947 1747 
Q 947 1113 1208 752 
Q 1469 391 1925 391 
Q 2381 391 2643 752 
Q 2906 1113 2906 1747 
Q 2906 2381 2643 2742 
Q 2381 3103 1925 3103 
Q 1469 3103 1208 2742 
Q 947 2381 947 1747 
z
" transform="scale(0.015625)"/>
       <path id="DejaVuSans-69" d="M 603 3500 
L 1178 3500 
L 1178 0 
L 603 0 
L 603 3500 
z
M 603 4863 
L 1178 4863 
L 1178 4134 
L 603 4134 
L 603 4863 
z
" transform="scale(0.015625)"/>
       <path id="DejaVuSans-6d" d="M 3328 2828 
Q 3544 3216 3844 3400 
Q 4144 3584 4550 3584 
Q 5097 3584 5394 3201 
Q 5691 2819 5691 2113 
L 5691 0 
L 5113 0 
L 5113 2094 
Q 5113 2597 4934 2840 
Q 4756 3084 4391 3084 
Q 3944 3084 3684 2787 
Q 3425 2491 3425 1978 
L 3425 0 
L 2847 0 
L 2847 2094 
Q 2847 2600 2669 2842 
Q 2491 3084 2119 3084 
Q 1678 3084 1418 2786 
Q 1159 2488 1159 1978 
L 1159 0 
L 581 0 
L 581 3500 
L 1159 3500 
L 1159 2956 
Q 1356 3278 1631 3431 
Q 1906 3584 2284 3584 
Q 2666 3584 2933 3390 
Q 3200 3197 3328 2828 
z
" transform="scale(0.015625)"/>
       <path id="DejaVuSans-6e" d="M 3513 2113 
L 3513 0 
L 2938 0 
L 2938 2094 
Q 2938 2591 2744 2837 
Q 2550 3084 2163 3084 
Q 1697 3084 1428 2787 
Q 1159 2491 1159 1978 
L 1159 0 
L 581 0 
L 581 3500 
L 1159 3500 
L 1159 2956 
Q 1366 3272 1645 3428 
Q 1925 3584 2291 3584 
Q 2894 3584 3203 3211 
Q 3513 2838 3513 2113 
z
" transform="scale(0.015625)"/>
       <path id="DejaVuSans-29" d="M 513 4856 
L 1013 4856 
Q 1481 4119 1714 3412 
Q 1947 2706 1947 2009 
Q 1947 1309 1714 600 
Q 1481 -109 1013 -844 
L 513 -844 
Q 928 -128 1133 580 
Q 1338 1288 1338 2009 
Q 1338 2731 1133 3434 
Q 928 4138 513 4856 
z
" transform="scale(0.015625)"/>
      </defs>
      <use xlink:href="#DejaVuSans-6c"/>
      <use xlink:href="#DejaVuSans-6f" x="27.783203"/>
      <use xlink:href="#DejaVuSans-67" x="88.964844"/>
      <use xlink:href="#DejaVuSans-31" x="152.441406"/>
      <use xlink:href="#DejaVuSans-30" x="216.064453"/>
      <use xlink:href="#DejaVuSans-28" x="279.6875"/>
      <use xlink:href="#DejaVuSans-23" x="318.701172"/>
      <use xlink:href="#DejaVuSans-20" x="402.490234"/>
      <use xlink:href="#DejaVuSans-66" x="434.277344"/>
      <use xlink:href="#DejaVuSans-2d" x="463.982422"/>
      <use xlink:href="#DejaVuSans-65" x="500.066406"/>
      <use xlink:href="#DejaVuSans-76" x="561.589844"/>
      <use xlink:href="#DejaVuSans-61" x="620.769531"/>
      <use xlink:href="#DejaVuSans-6c" x="682.048828"/>
      <use xlink:href="#DejaVuSans-73" x="709.832031"/>
      <use xlink:href="#DejaVuSans-20" x="761.931641"/>
      <use xlink:href="#DejaVuSans-2f" x="793.71875"/>
      <use xlink:href="#DejaVuSans-20" x="827.410156"/>
      <use xlink:href="#DejaVuSans-64" x="859.197266"/>
      <use xlink:href="#DejaVuSans-69" x="922.673828"/>
      <use xlink:href="#DejaVuSans-6d" x="950.457031"/>
      <use xlink:href="#DejaVuSans-65" x="1047.869141"/>
      <use xlink:href="#DejaVuSans-6e" x="1109.392578"/>
      <use xlink:href="#DejaVuSans-73" x="1172.771484"/>
      <use xlink:href="#DejaVuSans-69" x="1224.871094"/>
      <use xlink:href="#DejaVuSans-6f" x="1252.654297"/>
      <use xlink:href="#DejaVuSans-6e" x="1313.835938"/>
      <use xlink:href="#DejaVuSans-29" x="1377.214844"/>
     </g>
    </g>
   </g>
   <g id="matplotlib.axis_2">
    <g id="ytick_1">
     <g id="line2d_21">
      <path d="M 57.6 298.944 
L 360.8064 298.944 
" clip-path="url(#p0044982ed4)" style="fill: none; stroke: #b0b0b0; stroke-width: 0.8; stroke-linecap: square"/>
     </g>
     <g id="line2d_22">
      <defs>
       <path id="me26223dcf0" d="M 0 0 
L -3.5 0 
" style="stroke: #000000; stroke-width: 0.8"/>
      </defs>
      <g>
       <use xlink:href="#me26223dcf0" x="57.6" y="298.944" style="stroke: #000000; stroke-width: 0.8"/>
      </g>
     </g>
     <g id="text_6">
      <!-- 0.0 -->
      <g transform="translate(25.155 305.02275)scale(0.16 -0.16)">
       <defs>
        <path id="DejaVuSans-2e" d="M 684 794 
L 1344 794 
L 1344 0 
L 684 0 
L 684 794 
z
" transform="scale(0.015625)"/>
       </defs>
       <use xlink:href="#DejaVuSans-30"/>
       <use xlink:href="#DejaVuSans-2e" x="63.623047"/>
       <use xlink:href="#DejaVuSans-30" x="95.410156"/>
      </g>
     </g>
    </g>
    <g id="ytick_2">
     <g id="line2d_23">
      <path d="M 57.6 244.6848 
L 360.8064 244.6848 
" clip-path="url(#p0044982ed4)" style="fill: none; stroke: #b0b0b0; stroke-width: 0.8; stroke-linecap: square"/>
     </g>
     <g id="line2d_24">
      <g>
       <use xlink:href="#me26223dcf0" x="57.6" y="244.6848" style="stroke: #000000; stroke-width: 0.8"/>
      </g>
     </g>
     <g id="text_7">
      <!-- 0.2 -->
      <g transform="translate(25.155 250.76355)scale(0.16 -0.16)">
       <use xlink:href="#DejaVuSans-30"/>
       <use xlink:href="#DejaVuSans-2e" x="63.623047"/>
       <use xlink:href="#DejaVuSans-32" x="95.410156"/>
      </g>
     </g>
    </g>
    <g id="ytick_3">
     <g id="line2d_25">
      <path d="M 57.6 190.4256 
L 360.8064 190.4256 
" clip-path="url(#p0044982ed4)" style="fill: none; stroke: #b0b0b0; stroke-width: 0.8; stroke-linecap: square"/>
     </g>
     <g id="line2d_26">
      <g>
       <use xlink:href="#me26223dcf0" x="57.6" y="190.4256" style="stroke: #000000; stroke-width: 0.8"/>
      </g>
     </g>
     <g id="text_8">
      <!-- 0.4 -->
      <g transform="translate(25.155 196.50435)scale(0.16 -0.16)">
       <use xlink:href="#DejaVuSans-30"/>
       <use xlink:href="#DejaVuSans-2e" x="63.623047"/>
       <use xlink:href="#DejaVuSans-34" x="95.410156"/>
      </g>
     </g>
    </g>
    <g id="ytick_4">
     <g id="line2d_27">
      <path d="M 57.6 136.1664 
L 360.8064 136.1664 
" clip-path="url(#p0044982ed4)" style="fill: none; stroke: #b0b0b0; stroke-width: 0.8; stroke-linecap: square"/>
     </g>
     <g id="line2d_28">
      <g>
       <use xlink:href="#me26223dcf0" x="57.6" y="136.1664" style="stroke: #000000; stroke-width: 0.8"/>
      </g>
     </g>
     <g id="text_9">
      <!-- 0.6 -->
      <g transform="translate(25.155 142.24515)scale(0.16 -0.16)">
       <use xlink:href="#DejaVuSans-30"/>
       <use xlink:href="#DejaVuSans-2e" x="63.623047"/>
       <use xlink:href="#DejaVuSans-36" x="95.410156"/>
      </g>
     </g>
    </g>
    <g id="ytick_5">
     <g id="line2d_29">
      <path d="M 57.6 81.9072 
L 360.8064 81.9072 
" clip-path="url(#p0044982ed4)" style="fill: none; stroke: #b0b0b0; stroke-width: 0.8; stroke-linecap: square"/>
     </g>
     <g id="line2d_30">
      <g>
       <use xlink:href="#me26223dcf0" x="57.6" y="81.9072" style="stroke: #000000; stroke-width: 0.8"/>
      </g>
     </g>
     <g id="text_10">
      <!-- 0.8 -->
      <g transform="translate(25.155 87.98595)scale(0.16 -0.16)">
       <defs>
        <path id="DejaVuSans-38" d="M 2034 2216 
Q 1584 2216 1326 1975 
Q 1069 1734 1069 1313 
Q 1069 891 1326 650 
Q 1584 409 2034 409 
Q 2484 409 2743 651 
Q 3003 894 3003 1313 
Q 3003 1734 2745 1975 
Q 2488 2216 2034 2216 
z
M 1403 2484 
Q 997 2584 770 2862 
Q 544 3141 544 3541 
Q 544 4100 942 4425 
Q 1341 4750 2034 4750 
Q 2731 4750 3128 4425 
Q 3525 4100 3525 3541 
Q 3525 3141 3298 2862 
Q 3072 2584 2669 2484 
Q 3125 2378 3379 2068 
Q 3634 1759 3634 1313 
Q 3634 634 3220 271 
Q 2806 -91 2034 -91 
Q 1263 -91 848 271 
Q 434 634 434 1313 
Q 434 1759 690 2068 
Q 947 2378 1403 2484 
z
M 1172 3481 
Q 1172 3119 1398 2916 
Q 1625 2713 2034 2713 
Q 2441 2713 2670 2916 
Q 2900 3119 2900 3481 
Q 2900 3844 2670 4047 
Q 2441 4250 2034 4250 
Q 1625 4250 1398 4047 
Q 1172 3844 1172 3481 
z
" transform="scale(0.015625)"/>
       </defs>
       <use xlink:href="#DejaVuSans-30"/>
       <use xlink:href="#DejaVuSans-2e" x="63.623047"/>
       <use xlink:href="#DejaVuSans-38" x="95.410156"/>
      </g>
     </g>
    </g>
    <g id="ytick_6">
     <g id="line2d_31">
      <path d="M 57.6 27.648 
L 360.8064 27.648 
" clip-path="url(#p0044982ed4)" style="fill: none; stroke: #b0b0b0; stroke-width: 0.8; stroke-linecap: square"/>
     </g>
     <g id="line2d_32">
      <g>
       <use xlink:href="#me26223dcf0" x="57.6" y="27.648" style="stroke: #000000; stroke-width: 0.8"/>
      </g>
     </g>
     <g id="text_11">
      <!-- 1.0 -->
      <g transform="translate(25.155 33.72675)scale(0.16 -0.16)">
       <use xlink:href="#DejaVuSans-31"/>
       <use xlink:href="#DejaVuSans-2e" x="63.623047"/>
       <use xlink:href="#DejaVuSans-30" x="95.410156"/>
      </g>
     </g>
    </g>
    <g id="text_12">
     <!-- Fraction of function,target pairs -->
     <g transform="translate(17.619531 297.681)rotate(-90)scale(0.17 -0.17)">
      <defs>
       <path id="DejaVuSans-46" d="M 628 4666 
L 3309 4666 
L 3309 4134 
L 1259 4134 
L 1259 2759 
L 3109 2759 
L 3109 2228 
L 1259 2228 
L 1259 0 
L 628 0 
L 628 4666 
z
" transform="scale(0.015625)"/>
       <path id="DejaVuSans-72" d="M 2631 2963 
Q 2534 3019 2420 3045 
Q 2306 3072 2169 3072 
Q 1681 3072 1420 2755 
Q 1159 2438 1159 1844 
L 1159 0 
L 581 0 
L 581 3500 
L 1159 3500 
L 1159 2956 
Q 1341 3275 1631 3429 
Q 1922 3584 2338 3584 
Q 2397 3584 2469 3576 
Q 2541 3569 2628 3553 
L 2631 2963 
z
" transform="scale(0.015625)"/>
       <path id="DejaVuSans-63" d="M 3122 3366 
L 3122 2828 
Q 2878 2963 2633 3030 
Q 2388 3097 2138 3097 
Q 1578 3097 1268 2742 
Q 959 2388 959 1747 
Q 959 1106 1268 751 
Q 1578 397 2138 397 
Q 2388 397 2633 464 
Q 2878 531 3122 666 
L 3122 134 
Q 2881 22 2623 -34 
Q 2366 -91 2075 -91 
Q 1284 -91 818 406 
Q 353 903 353 1747 
Q 353 2603 823 3093 
Q 1294 3584 2113 3584 
Q 2378 3584 2631 3529 
Q 2884 3475 3122 3366 
z
" transform="scale(0.015625)"/>
       <path id="DejaVuSans-74" d="M 1172 4494 
L 1172 3500 
L 2356 3500 
L 2356 3053 
L 1172 3053 
L 1172 1153 
Q 1172 725 1289 603 
Q 1406 481 1766 481 
L 2356 481 
L 2356 0 
L 1766 0 
Q 1100 0 847 248 
Q 594 497 594 1153 
L 594 3053 
L 172 3053 
L 172 3500 
L 594 3500 
L 594 4494 
L 1172 4494 
z
" transform="scale(0.015625)"/>
       <path id="DejaVuSans-75" d="M 544 1381 
L 544 3500 
L 1119 3500 
L 1119 1403 
Q 1119 906 1312 657 
Q 1506 409 1894 409 
Q 2359 409 2629 706 
Q 2900 1003 2900 1516 
L 2900 3500 
L 3475 3500 
L 3475 0 
L 2900 0 
L 2900 538 
Q 2691 219 2414 64 
Q 2138 -91 1772 -91 
Q 1169 -91 856 284 
Q 544 659 544 1381 
z
M 1991 3584 
L 1991 3584 
z
" transform="scale(0.015625)"/>
       <path id="DejaVuSans-2c" d="M 750 794 
L 1409 794 
L 1409 256 
L 897 -744 
L 494 -744 
L 750 256 
L 750 794 
z
" transform="scale(0.015625)"/>
       <path id="DejaVuSans-70" d="M 1159 525 
L 1159 -1331 
L 581 -1331 
L 581 3500 
L 1159 3500 
L 1159 2969 
Q 1341 3281 1617 3432 
Q 1894 3584 2278 3584 
Q 2916 3584 3314 3078 
Q 3713 2572 3713 1747 
Q 3713 922 3314 415 
Q 2916 -91 2278 -91 
Q 1894 -91 1617 61 
Q 1341 213 1159 525 
z
M 3116 1747 
Q 3116 2381 2855 2742 
Q 2594 3103 2138 3103 
Q 1681 3103 1420 2742 
Q 1159 2381 1159 1747 
Q 1159 1113 1420 752 
Q 1681 391 2138 391 
Q 2594 391 2855 752 
Q 3116 1113 3116 1747 
z
" transform="scale(0.015625)"/>
      </defs>
      <use xlink:href="#DejaVuSans-46"/>
      <use xlink:href="#DejaVuSans-72" x="50.269531"/>
      <use xlink:href="#DejaVuSans-61" x="91.382812"/>
      <use xlink:href="#DejaVuSans-63" x="152.662109"/>
      <use xlink:href="#DejaVuSans-74" x="207.642578"/>
      <use xlink:href="#DejaVuSans-69" x="246.851562"/>
      <use xlink:href="#DejaVuSans-6f" x="274.634766"/>
      <use xlink:href="#DejaVuSans-6e" x="335.816406"/>
      <use xlink:href="#DejaVuSans-20" x="399.195312"/>
      <use xlink:href="#DejaVuSans-6f" x="430.982422"/>
      <use xlink:href="#DejaVuSans-66" x="492.164062"/>
      <use xlink:href="#DejaVuSans-20" x="527.369141"/>
      <use xlink:href="#DejaVuSans-66" x="559.15625"/>
      <use xlink:href="#DejaVuSans-75" x="594.361328"/>
      <use xlink:href="#DejaVuSans-6e" x="657.740234"/>
      <use xlink:href="#DejaVuSans-63" x="721.119141"/>
      <use xlink:href="#DejaVuSans-74" x="776.099609"/>
      <use xlink:href="#DejaVuSans-69" x="815.308594"/>
      <use xlink:href="#DejaVuSans-6f" x="843.091797"/>
      <use xlink:href="#DejaVuSans-6e" x="904.273438"/>
      <use xlink:href="#DejaVuSans-2c" x="967.652344"/>
      <use xlink:href="#DejaVuSans-74" x="999.439453"/>
      <use xlink:href="#DejaVuSans-61" x="1038.648438"/>
      <use xlink:href="#DejaVuSans-72" x="1099.927734"/>
      <use xlink:href="#DejaVuSans-67" x="1139.291016"/>
      <use xlink:href="#DejaVuSans-65" x="1202.767578"/>
      <use xlink:href="#DejaVuSans-74" x="1264.291016"/>
      <use xlink:href="#DejaVuSans-20" x="1303.5"/>
      <use xlink:href="#DejaVuSans-70" x="1335.287109"/>
      <use xlink:href="#DejaVuSans-61" x="1398.763672"/>
      <use xlink:href="#DejaVuSans-69" x="1460.042969"/>
      <use xlink:href="#DejaVuSans-72" x="1487.826172"/>
      <use xlink:href="#DejaVuSans-73" x="1528.939453"/>
     </g>
    </g>
   </g>
   <g id="line2d_33">
    <defs>
     <path id="m8f12bbabe2" d="M 0 1.5 
C 0.397805 1.5 0.77937 1.341951 1.06066 1.06066 
C 1.341951 0.77937 1.5 0.397805 1.5 0 
C 1.5 -0.397805 1.341951 -0.77937 1.06066 -1.06066 
C 0.77937 -1.341951 0.397805 -1.5 0 -1.5 
C -0.397805 -1.5 -0.77937 -1.341951 -1.06066 -1.06066 
C -1.341951 -0.77937 -1.5 -0.397805 -1.5 0 
C -1.5 0.397805 -1.341951 0.77937 -1.06066 1.06066 
C -0.77937 1.341951 -0.397805 1.5 0 1.5 
z
" style="stroke: #f5deb3"/>
    </defs>
    <g>
     <use xlink:href="#m8f12bbabe2" x="146.584913" y="27.648" style="fill: #f5deb3; stroke: #f5deb3"/>
     <use xlink:href="#m8f12bbabe2" x="146.584913" y="27.648" style="fill: #f5deb3; stroke: #f5deb3"/>
    </g>
   </g>
   <g id="line2d_34">
    <defs>
     <path id="meb9829e909" d="M 0 1.5 
C 0.397805 1.5 0.77937 1.341951 1.06066 1.06066 
C 1.341951 0.77937 1.5 0.397805 1.5 0 
C 1.5 -0.397805 1.341951 -0.77937 1.06066 -1.06066 
C 0.77937 -1.341951 0.397805 -1.5 0 -1.5 
C -0.397805 -1.5 -0.77937 -1.341951 -1.06066 -1.06066 
C -1.341951 -0.77937 -1.5 -0.397805 -1.5 0 
C -1.5 0.397805 -1.341951 0.77937 -1.06066 1.06066 
C -0.77937 1.341951 -0.397805 1.5 0 1.5 
z
" style="stroke: #000080"/>
    </defs>
    <g>
     <use xlink:href="#meb9829e909" x="341.579488" y="27.648" style="fill: #000080; stroke: #000080"/>
     <use xlink:href="#meb9829e909" x="341.579488" y="27.648" style="fill: #000080; stroke: #000080"/>
    </g>
   </g>
   <g id="line2d_35">
    <path d="M 95.916911 298.944 
L 95.916911 298.234729 
L 116.308887 298.234729 
L 116.308887 297.880094 
L 123.750979 297.880094 
L 123.750979 297.525459 
L 126.355808 297.525459 
L 126.355808 296.106918 
L 130.682774 296.106918 
L 130.682774 295.397647 
L 131.686295 295.397647 
L 131.686295 293.624471 
L 138.818654 293.624471 
L 138.818654 293.269835 
L 139.067817 293.269835 
L 139.067817 292.560565 
L 140.032723 292.560565 
L 140.032723 291.851294 
L 140.26641 291.851294 
L 140.26641 290.787388 
L 142.593581 290.787388 
L 142.593581 289.368847 
L 148.923146 289.368847 
L 148.971944 286.8864 
L 149.642146 286.8864 
L 149.689117 285.822494 
L 151.774035 285.822494 
L 151.774035 284.403953 
L 152.675851 284.403953 
L 152.675851 283.694682 
L 154.971412 283.694682 
L 154.971412 283.340047 
L 156.304668 283.340047 
L 156.304668 282.630776 
L 156.566854 282.630776 
L 156.566854 282.276141 
L 156.696589 282.276141 
L 156.728884 281.566871 
L 157.300901 281.566871 
L 157.300901 281.212235 
L 158.336102 281.212235 
L 158.336102 280.148329 
L 158.717331 280.148329 
L 158.717331 279.793694 
L 159.232748 279.793694 
L 159.232748 279.439059 
L 159.457367 279.439059 
L 159.457367 279.084424 
L 159.706897 279.084424 
L 159.706897 278.375153 
L 160.115564 278.375153 
L 160.169388 275.538071 
L 160.276577 275.538071 
L 160.303279 274.119529 
L 161.112783 274.119529 
L 161.112783 273.410259 
L 161.290852 273.410259 
L 161.290852 273.055624 
L 162.492258 273.055624 
L 162.492258 271.991718 
L 165.874446 271.991718 
L 165.874446 271.282447 
L 169.07795 271.282447 
L 169.07795 270.573176 
L 172.058879 270.573176 
L 172.058879 269.509271 
L 172.663262 269.509271 
L 172.663262 268.8 
L 173.302386 268.8 
L 173.302386 268.445365 
L 173.985085 268.445365 
L 173.985085 268.090729 
L 175.195931 268.090729 
L 175.195931 267.736094 
L 176.694218 267.736094 
L 176.694218 267.381459 
L 177.146467 267.381459 
L 177.146467 267.026824 
L 179.412941 267.026824 
L 179.412941 266.672188 
L 179.576479 266.672188 
L 179.576479 266.317553 
L 180.011995 266.317553 
L 180.011995 265.962918 
L 181.199724 265.962918 
L 181.199724 265.608282 
L 182.200621 265.608282 
L 182.200621 265.253647 
L 182.391266 265.253647 
L 182.391266 264.899012 
L 184.997802 264.899012 
L 184.997802 264.544376 
L 188.481326 264.544376 
L 188.481326 263.480471 
L 191.358113 263.480471 
L 191.358113 263.125835 
L 192.62523 263.125835 
L 192.653928 260.643388 
L 194.013502 260.643388 
L 194.013502 260.288753 
L 195.072431 260.288753 
L 195.072431 259.224847 
L 195.611006 259.224847 
L 195.611006 258.870212 
L 195.757464 258.870212 
L 195.757464 258.515576 
L 196.740395 258.515576 
L 196.740395 258.160941 
L 198.731234 258.160941 
L 198.731234 257.806306 
L 198.858817 257.806306 
L 198.858817 257.451671 
L 199.124975 257.451671 
L 199.124975 257.097035 
L 199.616567 257.097035 
L 199.636362 256.387765 
L 200.534543 256.387765 
L 200.534543 256.033129 
L 202.107859 256.033129 
L 202.107859 255.678494 
L 203.203005 255.678494 
L 203.21664 254.969224 
L 204.81503 254.969224 
L 204.81503 254.614588 
L 207.041558 254.614588 
L 207.041558 254.259953 
L 208.611341 254.259953 
L 208.67263 252.132141 
L 209.181707 252.132141 
L 209.193614 250.7136 
L 213.113887 250.7136 
L 213.113887 250.358965 
L 215.148479 250.358965 
L 215.148479 250.004329 
L 217.282226 250.004329 
L 217.282226 249.649694 
L 218.169537 249.649694 
L 218.169537 249.295059 
L 218.850195 249.295059 
L 218.850195 248.940424 
L 222.390837 248.940424 
L 222.390837 248.585788 
L 223.763832 248.585788 
L 223.763832 248.231153 
L 224.485027 248.231153 
L 224.485027 247.876518 
L 224.631421 247.876518 
L 224.631421 247.521882 
L 226.086098 247.521882 
L 226.086098 247.167247 
L 227.496399 247.167247 
L 227.496399 246.812612 
L 227.751856 246.812612 
L 227.751856 246.457976 
L 227.99805 246.457976 
L 228.075284 244.330165 
L 228.373217 244.330165 
L 228.444651 241.847718 
L 228.836955 241.847718 
L 228.9421 240.783812 
L 229.351467 240.783812 
L 229.351467 240.074541 
L 229.536717 240.074541 
L 229.536717 239.719906 
L 230.076538 239.719906 
L 230.116375 239.010635 
L 231.290404 239.010635 
L 231.290404 238.301365 
L 231.720602 238.301365 
L 231.720602 237.237459 
L 232.669117 237.237459 
L 232.669117 236.882824 
L 233.024015 236.882824 
L 233.024015 236.528188 
L 233.508469 236.528188 
L 233.545474 235.818918 
L 234.799867 235.818918 
L 234.799867 235.464282 
L 235.885302 235.464282 
L 235.885302 235.109647 
L 238.063769 235.109647 
L 238.063769 234.755012 
L 238.233178 234.755012 
L 238.233178 234.400376 
L 238.46857 234.400376 
L 238.489482 232.981835 
L 239.087247 232.981835 
L 239.087247 232.6272 
L 239.5883 232.6272 
L 239.589877 231.208659 
L 239.755913 231.208659 
L 239.755913 230.854024 
L 239.877446 230.854024 
L 239.877446 230.499388 
L 240.322159 230.499388 
L 240.322159 229.080847 
L 240.726934 229.080847 
L 240.754007 228.371576 
L 240.861912 228.371576 
L 240.861912 228.016941 
L 241.01275 228.016941 
L 241.03613 227.307671 
L 241.202598 227.307671 
L 241.269785 226.5984 
L 241.355766 226.5984 
L 241.389833 225.889129 
L 241.750018 225.889129 
L 241.750018 225.534494 
L 241.899159 225.534494 
L 241.996545 224.825224 
L 242.157171 224.825224 
L 242.157171 224.470588 
L 242.353916 224.470588 
L 242.353916 224.115953 
L 242.545592 224.115953 
L 242.558054 223.052047 
L 242.671184 223.052047 
L 242.711972 221.633506 
L 242.925165 221.633506 
L 242.980886 220.924235 
L 243.324727 220.924235 
L 243.324727 220.214965 
L 243.52185 220.214965 
L 243.52185 219.860329 
L 243.940063 219.860329 
L 243.984749 219.151059 
L 244.070385 219.151059 
L 244.070385 218.796424 
L 244.301671 218.796424 
L 244.393517 217.732518 
L 244.487348 217.732518 
L 244.487348 217.377882 
L 244.660675 217.377882 
L 244.660675 217.023247 
L 244.865806 217.023247 
L 244.925872 215.604706 
L 245.199969 215.604706 
L 245.199969 215.250071 
L 245.540085 215.250071 
L 245.634386 214.186165 
L 245.811954 214.186165 
L 245.887988 212.412988 
L 245.943476 212.412988 
L 245.961187 211.703718 
L 246.065425 211.703718 
L 246.161306 210.994447 
L 246.298422 210.994447 
L 246.328481 209.930541 
L 246.414259 209.930541 
L 246.414259 209.221271 
L 246.552818 209.221271 
L 246.552818 208.866635 
L 246.986969 208.866635 
L 247.087807 207.802729 
L 247.334167 207.802729 
L 247.339129 207.093459 
L 247.905802 207.093459 
L 247.958433 205.674918 
L 248.625917 205.674918 
L 248.652724 204.965647 
L 248.964281 204.965647 
L 248.964281 204.611012 
L 249.216718 204.611012 
L 249.304665 203.901741 
L 249.384943 203.901741 
L 249.412094 203.192471 
L 249.521704 203.192471 
L 249.521704 202.837835 
L 249.716716 202.837835 
L 249.820451 202.128565 
L 249.83395 202.128565 
L 249.897651 200.000753 
L 250.067603 200.000753 
L 250.14852 199.291482 
L 250.187839 199.291482 
L 250.223716 198.582212 
L 250.357203 198.582212 
L 250.373434 197.518306 
L 250.553033 197.518306 
L 250.553033 197.163671 
L 250.845934 197.163671 
L 250.845934 196.809035 
L 251.207833 196.809035 
L 251.220797 196.099765 
L 251.323133 196.099765 
L 251.431218 195.035859 
L 251.651981 195.035859 
L 251.693049 193.971953 
L 251.924904 193.971953 
L 251.939633 193.262682 
L 252.249321 193.262682 
L 252.33081 191.489506 
L 252.433274 191.489506 
L 252.538351 188.652424 
L 252.56804 188.652424 
L 252.56804 188.297788 
L 253.223177 188.297788 
L 253.223177 187.943153 
L 253.484926 187.943153 
L 253.580184 186.879247 
L 253.722078 186.879247 
L 253.722078 186.524612 
L 253.906797 186.524612 
L 253.906797 186.169976 
L 254.112323 186.169976 
L 254.175979 184.3968 
L 254.430082 184.3968 
L 254.430082 183.332894 
L 254.654443 183.332894 
L 254.654443 182.623624 
L 254.882456 182.623624 
L 254.942343 181.914353 
L 255.051671 181.914353 
L 255.152784 178.722635 
L 255.209583 178.722635 
L 255.285734 177.304094 
L 255.439155 177.304094 
L 255.534497 175.885553 
L 255.670153 175.885553 
L 255.711363 171.629929 
L 255.808834 171.629929 
L 255.808834 171.275294 
L 256.021213 171.275294 
L 256.113656 169.856753 
L 256.186404 169.856753 
L 256.252532 166.665035 
L 256.414263 166.665035 
L 256.511857 165.601129 
L 256.600649 165.601129 
L 256.600649 165.246494 
L 256.804163 165.246494 
L 256.901331 164.182588 
L 256.945575 164.182588 
L 256.945575 163.827953 
L 257.078153 163.827953 
L 257.118413 163.118682 
L 257.223705 163.118682 
L 257.223705 162.764047 
L 257.434982 162.764047 
L 257.434982 162.409412 
L 257.624876 162.409412 
L 257.624876 162.054776 
L 257.890381 162.054776 
L 257.960445 160.990871 
L 258.009675 160.990871 
L 258.097878 160.2816 
L 258.196817 160.2816 
L 258.217919 159.572329 
L 258.361051 159.572329 
L 258.455726 158.153788 
L 258.475095 158.153788 
L 258.475095 157.444518 
L 258.597785 157.444518 
L 258.617725 156.735247 
L 258.752877 156.735247 
L 258.782747 155.316706 
L 259.121637 155.316706 
L 259.217154 152.479624 
L 259.234368 152.479624 
L 259.281624 151.770353 
L 259.349598 151.770353 
L 259.452884 150.706447 
L 259.555606 150.706447 
L 259.611587 149.997176 
L 259.717235 149.997176 
L 259.72359 148.933271 
L 259.956169 148.933271 
L 260.057647 146.805459 
L 260.204366 146.805459 
L 260.204366 146.450824 
L 260.33124 146.450824 
L 260.33124 146.096188 
L 260.499085 146.096188 
L 260.599361 141.840565 
L 260.611746 141.840565 
L 260.692687 140.067388 
L 260.72489 140.067388 
L 260.72489 139.712753 
L 260.856334 139.712753 
L 260.856334 139.358118 
L 261.157382 139.358118 
L 261.259951 137.939576 
L 261.480797 137.939576 
L 261.527777 136.875671 
L 261.625175 136.875671 
L 261.73143 135.102494 
L 261.762874 135.102494 
L 261.859428 133.329318 
L 261.965212 133.329318 
L 262.063122 130.1376 
L 262.148289 130.1376 
L 262.148289 129.428329 
L 262.387894 129.428329 
L 262.387894 129.073694 
L 262.558902 129.073694 
L 262.627382 128.009788 
L 262.738162 128.009788 
L 262.84188 125.527341 
L 262.874039 125.527341 
L 262.917669 123.399529 
L 263.020064 123.399529 
L 263.025396 122.690259 
L 263.232063 122.690259 
L 263.232063 122.335624 
L 263.542282 122.335624 
L 263.542282 121.980988 
L 263.810732 121.980988 
L 263.863206 120.562447 
L 264.015666 120.562447 
L 264.016312 119.853176 
L 264.274731 119.853176 
L 264.329739 118.789271 
L 264.60604 118.789271 
L 264.60604 118.434635 
L 264.739577 118.434635 
L 264.744754 117.370729 
L 265.107906 117.370729 
L 265.107906 117.016094 
L 265.256284 117.016094 
L 265.256284 116.661459 
L 265.412996 116.661459 
L 265.474739 114.888282 
L 265.555625 114.888282 
L 265.616112 111.696565 
L 265.70643 111.696565 
L 265.81344 110.987294 
L 265.986929 110.987294 
L 266.087155 109.568753 
L 266.233584 109.568753 
L 266.278388 108.504847 
L 266.527679 108.504847 
L 266.622919 106.731671 
L 266.880195 106.731671 
L 266.895437 105.667765 
L 267.256777 105.667765 
L 267.361741 104.249224 
L 267.369576 104.249224 
L 267.369576 103.894588 
L 267.84962 103.894588 
L 267.867517 103.185318 
L 267.962071 103.185318 
L 267.963292 102.476047 
L 268.136197 102.476047 
L 268.235434 101.412141 
L 268.350566 101.412141 
L 268.386854 100.702871 
L 268.523605 100.702871 
L 268.523605 100.348235 
L 268.892653 100.348235 
L 268.963351 98.929694 
L 269.052567 98.929694 
L 269.124555 96.092612 
L 269.338393 96.092612 
L 269.374931 94.319435 
L 269.551272 94.319435 
L 269.551272 93.9648 
L 269.870712 93.9648 
L 269.884975 92.900894 
L 270.098022 92.900894 
L 270.204655 90.773082 
L 270.29312 90.773082 
L 270.338235 89.354541 
L 270.411068 89.354541 
L 270.486138 86.517459 
L 270.584377 86.517459 
L 270.584377 86.162824 
L 270.900322 86.162824 
L 270.993233 85.453553 
L 271.018763 85.453553 
L 271.089235 84.389647 
L 271.189601 84.389647 
L 271.242735 82.261835 
L 271.439139 82.261835 
L 271.503359 80.488659 
L 271.756928 80.488659 
L 271.820287 78.360847 
L 272.111751 78.360847 
L 272.111751 78.006212 
L 272.413511 78.006212 
L 272.413511 77.651576 
L 272.628988 77.651576 
L 272.723585 75.8784 
L 272.761413 75.8784 
L 272.829096 74.459859 
L 272.876524 74.459859 
L 272.970356 73.041318 
L 273.011827 73.041318 
L 273.116402 71.622776 
L 273.31877 71.622776 
L 273.421526 70.913506 
L 273.444683 70.913506 
L 273.485188 68.431059 
L 273.72377 68.431059 
L 273.834499 66.303247 
L 273.883411 66.303247 
L 273.95264 63.8208 
L 279.324431 63.8208 
L 279.349644 61.692988 
L 280.64857 61.692988 
L 280.64857 61.338353 
L 280.803065 61.338353 
L 280.803065 60.983718 
L 281.290982 60.983718 
L 281.290982 60.274447 
L 282.088365 60.274447 
L 282.146661 59.565176 
L 282.307697 59.565176 
L 282.400503 57.792 
L 283.084512 57.792 
L 283.084512 57.437365 
L 283.222326 57.437365 
L 283.222326 57.082729 
L 283.779402 57.082729 
L 283.779402 56.728094 
L 284.600483 56.728094 
L 284.600483 56.373459 
L 284.761842 56.373459 
L 284.788827 55.664188 
L 284.967392 55.664188 
L 284.967392 55.309553 
L 285.185428 55.309553 
L 285.286716 54.245647 
L 285.393127 54.245647 
L 285.393127 53.181741 
L 285.799506 53.181741 
L 285.803494 51.7632 
L 286.044497 51.7632 
L 286.074169 51.053929 
L 286.553775 51.053929 
L 286.553775 50.699294 
L 286.791442 50.699294 
L 286.872939 47.862212 
L 286.990419 47.862212 
L 287.045199 46.798306 
L 287.103826 46.798306 
L 287.103826 46.443671 
L 290.935297 46.443671 
L 290.935297 46.089035 
L 291.107062 46.089035 
L 291.107062 45.7344 
L 291.490295 45.7344 
L 291.511541 45.025129 
L 291.705997 45.025129 
L 291.773365 44.315859 
L 292.276965 44.315859 
L 292.276965 43.961224 
L 292.6217 43.961224 
L 292.623158 43.251953 
L 293.647719 43.251953 
L 293.647719 42.897318 
L 293.910758 42.897318 
L 293.910758 42.542682 
L 294.729456 42.542682 
L 294.749506 41.833412 
L 297.524504 41.833412 
L 297.524504 41.124141 
L 298.614793 41.124141 
L 298.614793 40.769506 
L 299.269829 40.769506 
L 299.269829 40.414871 
L 299.561748 40.414871 
L 299.561748 40.060235 
L 299.960104 40.060235 
L 299.960104 39.7056 
L 302.300762 39.7056 
L 302.300762 39.350965 
L 302.673636 39.350965 
L 302.673636 38.287059 
L 303.109486 38.287059 
L 303.109486 37.932424 
L 304.315878 37.932424 
L 304.362445 37.223153 
L 306.411708 37.223153 
L 306.411708 36.868518 
L 307.231188 36.868518 
L 307.231188 36.513882 
L 307.387322 36.513882 
L 307.387322 36.159247 
L 307.599259 36.159247 
L 307.599259 35.804612 
L 307.825289 35.804612 
L 307.833327 35.095341 
L 308.848988 35.095341 
L 308.848988 34.740706 
L 309.528697 34.740706 
L 309.528697 34.031435 
L 310.661495 34.031435 
L 310.733183 32.967529 
L 312.201881 32.967529 
L 312.201881 32.612894 
L 314.542032 32.612894 
L 314.542032 31.548988 
L 316.378017 31.548988 
L 316.378017 31.194353 
L 317.457328 31.194353 
L 317.462145 30.485082 
L 318.496548 30.485082 
L 318.496548 30.130447 
L 320.892729 30.130447 
L 320.896742 29.421176 
L 328.071008 29.421176 
L 328.071008 29.066541 
L 331.039764 29.066541 
L 331.039764 28.711906 
L 333.948025 28.711906 
L 333.948025 28.357271 
L 337.225191 28.357271 
L 337.225191 28.002635 
L 341.579488 28.002635 
L 341.579488 27.648 
L 360.8064 27.648 
L 360.8064 27.648 
" style="fill: none; stroke: #000080; stroke-width: 1.5; stroke-linecap: square"/>
   </g>
   <g id="line2d_36">
    <defs>
     <path id="mb8486645cc" d="M 0 6 
C 1.591219 6 3.117479 5.367802 4.242641 4.242641 
C 5.367802 3.117479 6 1.591219 6 0 
C 6 -1.591219 5.367802 -3.117479 4.242641 -4.242641 
C 3.117479 -5.367802 1.591219 -6 0 -6 
C -1.591219 -6 -3.117479 -5.367802 -4.242641 -4.242641 
C -5.367802 -3.117479 -6 -1.591219 -6 0 
C -6 1.591219 -5.367802 3.117479 -4.242641 4.242641 
C -3.117479 5.367802 -1.591219 6 0 6 
z
" style="stroke: #000080; stroke-width: 1.5"/>
    </defs>
    <g>
     <use xlink:href="#mb8486645cc" x="213.113887" y="250.7136" style="fill-opacity: 0; stroke: #000080; stroke-width: 1.5"/>
     <use xlink:href="#mb8486645cc" x="261.965212" y="133.329318" style="fill-opacity: 0; stroke: #000080; stroke-width: 1.5"/>
     <use xlink:href="#mb8486645cc" x="341.579488" y="27.648" style="fill-opacity: 0; stroke: #000080; stroke-width: 1.5"/>
     <use xlink:href="#mb8486645cc" x="341.579488" y="27.648" style="fill-opacity: 0; stroke: #000080; stroke-width: 1.5"/>
     <use xlink:href="#mb8486645cc" x="360.8064" y="27.648" style="fill-opacity: 0; stroke: #000080; stroke-width: 1.5"/>
    </g>
   </g>
   <g id="line2d_37">
    <path style="fill: none; stroke: #000080; stroke-width: 1.5; stroke-linecap: square"/>
    <g/>
   </g>
   <g id="line2d_38">
    <path d="M 274.176 63.8208 
" clip-path="url(#p0044982ed4)" style="fill: none; stroke: #000080; stroke-width: 1.5; stroke-linecap: square"/>
    <defs>
     <path id="m756a3f1e67" d="M -12 12 
L 12 -12 
M -12 -12 
L 12 12 
" style="stroke: #000080"/>
    </defs>
    <g clip-path="url(#p0044982ed4)">
     <use xlink:href="#m756a3f1e67" x="274.176" y="63.8208" style="fill: #000080; stroke: #000080"/>
    </g>
   </g>
   <g id="line2d_39">
    <defs>
     <path id="m5266aac979" d="M 0 1.5 
C 0.397805 1.5 0.77937 1.341951 1.06066 1.06066 
C 1.341951 0.77937 1.5 0.397805 1.5 0 
C 1.5 -0.397805 1.341951 -0.77937 1.06066 -1.06066 
C 0.77937 -1.341951 0.397805 -1.5 0 -1.5 
C -0.397805 -1.5 -0.77937 -1.341951 -1.06066 -1.06066 
C -1.341951 -0.77937 -1.5 -0.397805 -1.5 0 
C -1.5 0.397805 -1.341951 0.77937 -1.06066 1.06066 
C -0.77937 1.341951 -0.397805 1.5 0 1.5 
z
" style="stroke: #ff00ff"/>
    </defs>
    <g>
     <use xlink:href="#m5266aac979" x="308.391753" y="27.648" style="fill: #ff00ff; stroke: #ff00ff"/>
     <use xlink:href="#m5266aac979" x="308.391753" y="27.648" style="fill: #ff00ff; stroke: #ff00ff"/>
    </g>
   </g>
   <g id="line2d_40">
    <path d="M 121.371615 298.944 
L 121.371615 296.461553 
L 122.399825 296.461553 
L 122.399825 295.397647 
L 122.795872 295.397647 
L 122.795872 294.688376 
L 123.183753 294.688376 
L 123.183753 291.851294 
L 123.374735 291.851294 
L 123.374735 291.496659 
L 123.563797 291.496659 
L 123.563797 290.078118 
L 136.602972 290.078118 
L 136.602972 289.723482 
L 142.797687 289.723482 
L 142.797687 289.368847 
L 143.265494 289.368847 
L 143.265494 289.014212 
L 143.721949 289.014212 
L 143.721949 287.950306 
L 144.2304 287.950306 
L 144.2304 287.241035 
L 148.874221 287.241035 
L 148.874221 286.531765 
L 149.642146 286.531765 
L 149.642146 285.822494 
L 153.228011 285.822494 
L 153.228011 285.467859 
L 157.080512 285.467859 
L 157.080512 285.113224 
L 160.568234 285.113224 
L 160.568234 284.758588 
L 161.691646 284.758588 
L 161.691646 282.985412 
L 162.132562 282.985412 
L 162.132562 282.630776 
L 164.150838 282.630776 
L 164.150838 281.212235 
L 166.7279 281.212235 
L 166.7279 280.8576 
L 167.886182 280.8576 
L 167.886182 280.148329 
L 168.551837 280.148329 
L 168.551837 279.793694 
L 170.27737 279.793694 
L 170.27737 279.439059 
L 171.031472 279.439059 
L 171.031472 279.084424 
L 181.616811 279.084424 
L 181.616811 278.729788 
L 186.84288 278.729788 
L 186.84288 278.375153 
L 191.848327 278.375153 
L 191.848327 278.020518 
L 193.283701 278.020518 
L 193.283701 277.665882 
L 195.655878 277.665882 
L 195.655878 277.311247 
L 195.918868 277.311247 
L 195.918868 276.601976 
L 198.026203 276.601976 
L 198.126512 274.119529 
L 198.872558 274.119529 
L 198.872558 273.410259 
L 199.226348 273.410259 
L 199.226348 270.927812 
L 199.675889 270.927812 
L 199.675889 269.863906 
L 200.211128 269.863906 
L 200.211128 268.8 
L 200.417867 268.8 
L 200.417867 268.445365 
L 200.637999 268.445365 
L 200.709769 267.381459 
L 201.040102 267.381459 
L 201.040102 266.317553 
L 201.695686 266.317553 
L 201.695686 265.962918 
L 203.11825 265.962918 
L 203.11825 265.608282 
L 203.796411 265.608282 
L 203.796411 265.253647 
L 204.136925 265.253647 
L 204.136925 264.899012 
L 205.031614 264.899012 
L 205.031614 264.544376 
L 205.46712 264.544376 
L 205.46712 264.189741 
L 206.274282 264.189741 
L 206.274282 263.835106 
L 207.136964 263.835106 
L 207.136964 263.480471 
L 207.570137 263.480471 
L 207.570137 263.125835 
L 207.750936 263.125835 
L 207.785177 262.416565 
L 207.963931 262.416565 
L 207.963931 261.707294 
L 208.086372 261.707294 
L 208.086372 261.352659 
L 208.208022 261.352659 
L 208.295624 259.934118 
L 208.459303 259.934118 
L 208.516976 259.224847 
L 209.322129 259.224847 
L 209.426272 257.806306 
L 209.771876 257.806306 
L 209.771876 257.451671 
L 209.904156 257.451671 
L 209.904156 257.097035 
L 210.263672 257.097035 
L 210.316077 256.033129 
L 210.563027 256.033129 
L 210.653197 255.323859 
L 210.884912 255.323859 
L 210.884912 254.969224 
L 211.983709 254.969224 
L 211.983709 254.614588 
L 213.046115 254.614588 
L 213.046115 254.259953 
L 213.178206 254.259953 
L 213.178206 253.905318 
L 213.907116 253.905318 
L 213.907116 253.550682 
L 215.522046 253.550682 
L 215.522046 253.196047 
L 215.814532 253.196047 
L 215.814532 252.841412 
L 215.975695 252.841412 
L 215.975695 252.486776 
L 216.341485 252.486776 
L 216.341485 252.132141 
L 216.521075 252.132141 
L 216.521075 250.7136 
L 216.720254 250.7136 
L 216.720254 249.649694 
L 216.898915 249.649694 
L 216.898915 249.295059 
L 217.064148 249.295059 
L 217.064148 248.585788 
L 217.364642 248.585788 
L 217.364642 247.521882 
L 217.69327 247.521882 
L 217.69327 246.812612 
L 222.566093 246.812612 
L 222.566093 246.457976 
L 224.266394 246.457976 
L 224.266394 245.748706 
L 224.64975 245.748706 
L 224.64975 245.394071 
L 224.824282 245.394071 
L 224.824282 245.039435 
L 225.028869 245.039435 
L 225.028869 243.266259 
L 225.251544 243.266259 
L 225.335003 242.556988 
L 225.464097 242.556988 
L 225.464097 242.202353 
L 225.584842 242.202353 
L 225.584842 241.847718 
L 226.001853 241.847718 
L 226.081248 241.138447 
L 226.157893 241.138447 
L 226.157893 240.429176 
L 226.556221 240.429176 
L 226.55701 239.365271 
L 226.677227 239.365271 
L 226.712439 237.946729 
L 226.93316 237.946729 
L 226.93316 237.592094 
L 227.293599 237.592094 
L 227.293599 237.237459 
L 228.53995 237.237459 
L 228.53995 236.882824 
L 229.4477 236.882824 
L 229.4477 236.528188 
L 230.959614 236.528188 
L 230.959614 235.818918 
L 232.85671 235.818918 
L 232.85671 235.464282 
L 233.08094 235.464282 
L 233.154909 234.755012 
L 233.708406 234.755012 
L 233.708406 234.045741 
L 234.225644 234.045741 
L 234.280098 232.981835 
L 234.744859 232.981835 
L 234.744859 232.6272 
L 235.295755 232.6272 
L 235.323475 230.854024 
L 235.47128 230.854024 
L 235.47128 229.790118 
L 235.589669 229.790118 
L 235.589669 228.371576 
L 235.736857 228.371576 
L 235.736857 228.016941 
L 238.160153 228.016941 
L 238.167808 226.953035 
L 239.006899 226.953035 
L 239.07469 225.889129 
L 239.168463 225.889129 
L 239.236077 225.179859 
L 239.314254 225.179859 
L 239.335446 224.470588 
L 239.718359 224.470588 
L 239.725015 223.761318 
L 239.847914 223.761318 
L 239.847914 223.406682 
L 240.051364 223.406682 
L 240.059441 222.342776 
L 240.182092 222.342776 
L 240.28876 221.278871 
L 240.326709 221.278871 
L 240.326709 220.5696 
L 240.863754 220.5696 
L 240.863754 219.860329 
L 241.150055 219.860329 
L 241.150055 218.796424 
L 241.325232 218.796424 
L 241.422051 217.377882 
L 241.504135 217.377882 
L 241.538646 216.668612 
L 241.70286 216.668612 
L 241.70286 215.959341 
L 242.69794 215.959341 
L 242.69794 215.604706 
L 243.322464 215.604706 
L 243.354766 214.895435 
L 243.464823 214.895435 
L 243.528886 213.831529 
L 243.632526 213.831529 
L 243.705844 213.122259 
L 243.845027 213.122259 
L 243.845027 212.767624 
L 244.208141 212.767624 
L 244.237419 212.058353 
L 244.392295 212.058353 
L 244.483701 210.994447 
L 244.511036 210.994447 
L 244.544998 209.930541 
L 244.67452 209.930541 
L 244.783124 208.512 
L 244.794488 208.512 
L 244.794488 208.157365 
L 244.931216 208.157365 
L 244.993441 207.093459 
L 245.699176 207.093459 
L 245.699176 206.738824 
L 245.868797 206.738824 
L 245.868797 206.384188 
L 246.114541 206.384188 
L 246.114541 206.029553 
L 246.434272 206.029553 
L 246.434272 205.674918 
L 246.818053 205.674918 
L 246.818053 204.965647 
L 246.951814 204.965647 
L 246.959277 204.256376 
L 247.431347 204.256376 
L 247.5257 203.192471 
L 247.583787 203.192471 
L 247.658135 200.355388 
L 247.814359 200.355388 
L 247.825813 198.936847 
L 248.046414 198.936847 
L 248.046414 198.582212 
L 248.244807 198.582212 
L 248.246549 197.872941 
L 248.418212 197.872941 
L 248.418212 197.518306 
L 248.557018 197.518306 
L 248.598583 195.390494 
L 248.698694 195.390494 
L 248.803592 194.681224 
L 248.826287 194.681224 
L 248.920636 193.971953 
L 248.960927 193.971953 
L 248.960927 193.617318 
L 249.966361 193.617318 
L 250.056983 192.908047 
L 250.389428 192.908047 
L 250.41162 192.198776 
L 250.543125 192.198776 
L 250.622465 190.780235 
L 250.723082 190.780235 
L 250.801669 187.588518 
L 250.836612 187.588518 
L 250.945581 186.169976 
L 250.948383 186.169976 
L 250.948383 185.815341 
L 251.269174 185.815341 
L 251.281884 184.042165 
L 251.43773 184.042165 
L 251.43773 183.687529 
L 251.643882 183.687529 
L 251.654888 182.978259 
L 251.939633 182.978259 
L 251.996599 181.914353 
L 252.355629 181.914353 
L 252.355629 181.559718 
L 252.514963 181.559718 
L 252.610907 179.786541 
L 252.754009 179.786541 
L 252.852251 178.722635 
L 253.006872 178.722635 
L 253.117064 176.949459 
L 253.217446 176.949459 
L 253.313683 175.885553 
L 253.332682 175.885553 
L 253.394296 173.757741 
L 253.503941 173.757741 
L 253.597043 173.048471 
L 253.684655 173.048471 
L 253.746986 170.211388 
L 253.814664 170.211388 
L 253.913058 167.374306 
L 253.972068 167.374306 
L 254.022476 165.246494 
L 254.36153 165.246494 
L 254.36153 164.182588 
L 254.682566 164.182588 
L 254.682566 163.827953 
L 254.805705 163.827953 
L 254.823256 163.118682 
L 254.988654 163.118682 
L 254.988654 162.764047 
L 255.153818 162.764047 
L 255.153818 161.345506 
L 255.407211 161.345506 
L 255.407211 160.990871 
L 255.524697 160.990871 
L 255.524697 160.636235 
L 255.755321 160.636235 
L 255.755321 160.2816 
L 255.890228 160.2816 
L 255.99766 159.217694 
L 256.130192 159.217694 
L 256.140172 158.508424 
L 256.255133 158.508424 
L 256.255133 158.153788 
L 256.461595 158.153788 
L 256.501751 156.735247 
L 256.784574 156.735247 
L 256.887975 156.025976 
L 257.066946 156.025976 
L 257.137812 154.962071 
L 257.205631 154.962071 
L 257.243459 153.898165 
L 257.359251 153.898165 
L 257.414969 152.834259 
L 257.549452 152.834259 
L 257.646781 151.770353 
L 257.68765 151.770353 
L 257.783969 150.351812 
L 257.948117 150.351812 
L 258.046218 147.869365 
L 258.094341 147.869365 
L 258.128807 146.096188 
L 258.475529 146.096188 
L 258.475529 145.741553 
L 258.589027 145.741553 
L 258.677992 142.549835 
L 258.8103 142.549835 
L 258.859907 141.840565 
L 258.923495 141.840565 
L 258.923495 141.485929 
L 259.253368 141.485929 
L 259.283423 140.067388 
L 259.406744 140.067388 
L 259.51587 138.648847 
L 259.549058 138.648847 
L 259.652072 137.584941 
L 259.739942 137.584941 
L 259.818796 136.521035 
L 259.854543 136.521035 
L 259.933989 133.329318 
L 259.974988 133.329318 
L 260.008175 131.556141 
L 260.848185 131.556141 
L 260.950803 130.846871 
L 261.080558 130.846871 
L 261.176414 128.719059 
L 261.230399 128.719059 
L 261.230399 128.364424 
L 261.342003 128.364424 
L 261.449864 127.300518 
L 261.527532 127.300518 
L 261.57268 124.818071 
L 261.683008 124.818071 
L 261.780213 123.399529 
L 261.840471 123.399529 
L 261.922079 122.335624 
L 262.211054 122.335624 
L 262.216857 121.626353 
L 262.472541 121.626353 
L 262.482001 120.917082 
L 262.600948 120.917082 
L 262.711191 117.016094 
L 262.787852 117.016094 
L 262.877012 115.242918 
L 262.917669 115.242918 
L 262.948332 113.824376 
L 263.043423 113.824376 
L 263.077389 112.405835 
L 263.732565 112.405835 
L 263.764002 110.987294 
L 263.844753 110.987294 
L 263.884349 108.859482 
L 263.970629 108.859482 
L 264.039219 107.795576 
L 264.08838 107.795576 
L 264.178746 106.0224 
L 264.538862 106.0224 
L 264.6075 104.603859 
L 264.885638 104.603859 
L 264.947188 103.894588 
L 265.018742 103.894588 
L 265.018742 103.539953 
L 265.503596 103.539953 
L 265.543326 102.830682 
L 265.656592 102.830682 
L 265.721277 101.057506 
L 265.799743 101.057506 
L 265.799743 100.702871 
L 266.576956 100.702871 
L 266.614485 99.638965 
L 266.964105 99.638965 
L 267.02051 98.220424 
L 267.419931 98.220424 
L 267.45761 97.511153 
L 267.676795 97.511153 
L 267.724038 95.383341 
L 267.927576 95.383341 
L 267.927576 95.028706 
L 268.158919 95.028706 
L 268.158919 94.674071 
L 268.357744 94.674071 
L 268.46075 93.610165 
L 268.469245 93.610165 
L 268.530209 92.900894 
L 268.584647 92.900894 
L 268.67122 89.709176 
L 268.799169 89.709176 
L 268.877201 88.645271 
L 269.05372 88.645271 
L 269.143984 87.581365 
L 269.323385 87.581365 
L 269.323385 87.226729 
L 269.436665 87.226729 
L 269.476474 85.098918 
L 269.729231 85.098918 
L 269.783639 83.325741 
L 270.205274 83.325741 
L 270.205274 82.971106 
L 273.345855 82.971106 
L 273.345855 82.616471 
L 274.575794 82.616471 
L 274.593526 81.552565 
L 274.81363 81.552565 
L 274.873544 80.488659 
L 275.385249 80.488659 
L 275.385249 80.134024 
L 275.622712 80.134024 
L 275.629678 79.424753 
L 275.859622 79.424753 
L 275.932757 78.715482 
L 276.113905 78.715482 
L 276.219446 78.006212 
L 276.33983 78.006212 
L 276.35927 77.296941 
L 276.649809 77.296941 
L 276.665581 76.587671 
L 276.789211 76.587671 
L 276.789211 76.233035 
L 277.075061 76.233035 
L 277.185567 75.523765 
L 277.201324 75.523765 
L 277.201324 75.169129 
L 277.424446 75.169129 
L 277.470555 74.459859 
L 277.584786 74.459859 
L 277.637234 73.750588 
L 277.865071 73.750588 
L 277.869657 73.041318 
L 278.089875 73.041318 
L 278.157131 71.622776 
L 278.260619 71.622776 
L 278.349331 70.204235 
L 278.419821 70.204235 
L 278.523272 69.140329 
L 278.533919 69.140329 
L 278.629423 67.012518 
L 278.750424 67.012518 
L 278.750424 66.657882 
L 278.919055 66.657882 
L 278.919055 66.303247 
L 279.126281 66.303247 
L 279.225114 64.175435 
L 279.280934 64.175435 
L 279.311216 63.466165 
L 279.401486 63.466165 
L 279.494682 62.402259 
L 279.520233 62.402259 
L 279.617023 60.983718 
L 279.684705 60.983718 
L 279.730314 59.919812 
L 279.934935 59.919812 
L 280.014592 58.855906 
L 280.052757 58.855906 
L 280.052757 58.501271 
L 280.187028 58.501271 
L 280.199552 57.437365 
L 280.901079 57.437365 
L 280.901079 57.082729 
L 281.628168 57.082729 
L 281.667158 56.373459 
L 282.005297 56.373459 
L 282.009804 55.309553 
L 282.258878 55.309553 
L 282.258878 54.954918 
L 282.483824 54.954918 
L 282.492853 54.245647 
L 282.638693 54.245647 
L 282.652244 53.536376 
L 282.869087 53.536376 
L 282.869087 53.181741 
L 284.291434 53.181741 
L 284.291434 52.827106 
L 284.688115 52.827106 
L 284.688115 52.472471 
L 285.994047 52.472471 
L 286.098272 51.7632 
L 286.128756 51.7632 
L 286.128756 51.408565 
L 286.437743 51.408565 
L 286.437743 51.053929 
L 286.689031 51.053929 
L 286.689031 50.699294 
L 286.862879 50.699294 
L 286.9237 49.635388 
L 287.065531 49.635388 
L 287.142138 48.216847 
L 287.327707 48.216847 
L 287.383597 47.507576 
L 287.516184 47.507576 
L 287.573948 45.025129 
L 287.863591 45.025129 
L 287.925101 43.961224 
L 287.994353 43.961224 
L 287.994353 43.606588 
L 288.181304 43.606588 
L 288.218793 42.897318 
L 288.294643 42.897318 
L 288.294643 42.542682 
L 288.456149 42.542682 
L 288.456149 42.188047 
L 288.945697 42.188047 
L 289.029671 41.478776 
L 289.06062 41.478776 
L 289.142272 40.769506 
L 289.449046 40.769506 
L 289.449046 40.414871 
L 289.847476 40.414871 
L 289.847476 40.060235 
L 289.993666 40.060235 
L 290.077839 38.996329 
L 291.891667 38.996329 
L 291.891667 38.641694 
L 292.215057 38.641694 
L 292.215057 38.287059 
L 292.753893 38.287059 
L 292.753893 37.932424 
L 293.019231 37.932424 
L 293.019231 37.577788 
L 293.284263 37.577788 
L 293.359251 36.868518 
L 293.437657 36.868518 
L 293.532329 35.804612 
L 293.564727 35.804612 
L 293.564727 35.449976 
L 293.708114 35.449976 
L 293.708114 35.095341 
L 294.017197 35.095341 
L 294.017197 34.740706 
L 294.300234 34.740706 
L 294.336105 33.6768 
L 294.415214 33.6768 
L 294.497313 32.612894 
L 294.937341 32.612894 
L 294.937341 32.258259 
L 295.386307 32.258259 
L 295.386307 31.903624 
L 295.769695 31.903624 
L 295.769695 31.548988 
L 297.496462 31.548988 
L 297.496462 31.194353 
L 297.683632 31.194353 
L 297.683632 30.839718 
L 298.391828 30.839718 
L 298.391828 30.485082 
L 298.650951 30.485082 
L 298.650951 30.130447 
L 299.789687 30.130447 
L 299.789687 29.775812 
L 301.698854 29.775812 
L 301.698854 29.421176 
L 302.066283 29.421176 
L 302.066283 29.066541 
L 302.632831 29.066541 
L 302.707571 28.357271 
L 307.63629 28.357271 
L 307.63629 28.002635 
L 308.391753 28.002635 
L 308.391753 27.648 
L 360.8064 27.648 
L 360.8064 27.648 
" style="fill: none; stroke: #ff00ff; stroke-width: 1.5; stroke-linecap: square"/>
   </g>
   <g id="line2d_41">
    <defs>
     <path id="meddfbf2091" d="M 0 8.485281 
L 5.091169 0 
L 0 -8.485281 
L -5.091169 0 
z
" style="stroke: #ff00ff; stroke-width: 1.5; stroke-linejoin: miter"/>
    </defs>
    <g>
     <use xlink:href="#meddfbf2091" x="225.464097" y="242.202353" style="fill-opacity: 0; stroke: #ff00ff; stroke-width: 1.5; stroke-linejoin: miter"/>
     <use xlink:href="#meddfbf2091" x="262.653432" y="119.853176" style="fill-opacity: 0; stroke: #ff00ff; stroke-width: 1.5; stroke-linejoin: miter"/>
     <use xlink:href="#meddfbf2091" x="308.391753" y="28.002635" style="fill-opacity: 0; stroke: #ff00ff; stroke-width: 1.5; stroke-linejoin: miter"/>
     <use xlink:href="#meddfbf2091" x="308.391753" y="27.648" style="fill-opacity: 0; stroke: #ff00ff; stroke-width: 1.5; stroke-linejoin: miter"/>
     <use xlink:href="#meddfbf2091" x="360.8064" y="27.648" style="fill-opacity: 0; stroke: #ff00ff; stroke-width: 1.5; stroke-linejoin: miter"/>
    </g>
   </g>
   <g id="line2d_42">
    <path style="fill: none; stroke: #ff00ff; stroke-width: 1.5; stroke-linecap: square"/>
    <g/>
   </g>
   <g id="line2d_43">
    <path d="M 269.460851 85.808188 
" clip-path="url(#p0044982ed4)" style="fill: none; stroke: #ff00ff; stroke-width: 1.5; stroke-linecap: square"/>
    <defs>
     <path id="mcb47808707" d="M -12 12 
L 12 -12 
M -12 -12 
L 12 12 
" style="stroke: #ff00ff"/>
    </defs>
    <g clip-path="url(#p0044982ed4)">
     <use xlink:href="#mcb47808707" x="269.460851" y="85.808188" style="fill: #ff00ff; stroke: #ff00ff"/>
    </g>
   </g>
   <g id="line2d_44">
    <path d="M 360.8064 27.648 
L 380.514816 293.51808 
" style="fill: none; stroke: #000080; stroke-width: 1.5; stroke-linecap: square"/>
    <g>
     <use xlink:href="#mb8486645cc" x="360.8064" y="27.648" style="fill-opacity: 0; stroke: #000080; stroke-width: 1.5"/>
     <use xlink:href="#mb8486645cc" x="380.514816" y="293.51808" style="fill-opacity: 0; stroke: #000080; stroke-width: 1.5"/>
    </g>
   </g>
   <g id="line2d_45">
    <path d="M 360.8064 27.648 
L 380.514816 163.296 
" style="fill: none; stroke: #ff00ff; stroke-width: 1.5; stroke-linecap: square"/>
    <g>
     <use xlink:href="#meddfbf2091" x="360.8064" y="27.648" style="fill-opacity: 0; stroke: #ff00ff; stroke-width: 1.5; stroke-linejoin: miter"/>
     <use xlink:href="#meddfbf2091" x="380.514816" y="163.296" style="fill-opacity: 0; stroke: #ff00ff; stroke-width: 1.5; stroke-linejoin: miter"/>
    </g>
   </g>
   <g id="line2d_46">
    <path d="M 360.8064 298.944 
L 360.8064 27.648 
" style="fill: none; stroke: #000000; stroke-width: 1.5; stroke-linecap: square"/>
   </g>
   <g id="patch_3">
    <path d="M 57.6 298.944 
L 360.8064 298.944 
" style="fill: none; stroke: #000000; stroke-width: 0.8; stroke-linejoin: miter; stroke-linecap: square"/>
   </g>
   <g id="patch_4">
    <path d="M 57.6 27.648 
L 360.8064 27.648 
" style="fill: none; stroke: #000000; stroke-width: 0.8; stroke-linejoin: miter; stroke-linecap: square"/>
   </g>
   <g id="text_13">
    <!-- LCGA -->
    <g transform="translate(386.578944 297.381205)scale(0.14 -0.14)">
     <defs>
      <path id="DejaVuSans-4c" d="M 628 4666 
L 1259 4666 
L 1259 531 
L 3531 531 
L 3531 0 
L 628 0 
L 628 4666 
z
" transform="scale(0.015625)"/>
      <path id="DejaVuSans-43" d="M 4122 4306 
L 4122 3641 
Q 3803 3938 3442 4084 
Q 3081 4231 2675 4231 
Q 1875 4231 1450 3742 
Q 1025 3253 1025 2328 
Q 1025 1406 1450 917 
Q 1875 428 2675 428 
Q 3081 428 3442 575 
Q 3803 722 4122 1019 
L 4122 359 
Q 3791 134 3420 21 
Q 3050 -91 2638 -91 
Q 1578 -91 968 557 
Q 359 1206 359 2328 
Q 359 3453 968 4101 
Q 1578 4750 2638 4750 
Q 3056 4750 3426 4639 
Q 3797 4528 4122 4306 
z
" transform="scale(0.015625)"/>
      <path id="DejaVuSans-47" d="M 3809 666 
L 3809 1919 
L 2778 1919 
L 2778 2438 
L 4434 2438 
L 4434 434 
Q 4069 175 3628 42 
Q 3188 -91 2688 -91 
Q 1594 -91 976 548 
Q 359 1188 359 2328 
Q 359 3472 976 4111 
Q 1594 4750 2688 4750 
Q 3144 4750 3555 4637 
Q 3966 4525 4313 4306 
L 4313 3634 
Q 3963 3931 3569 4081 
Q 3175 4231 2741 4231 
Q 1884 4231 1454 3753 
Q 1025 3275 1025 2328 
Q 1025 1384 1454 906 
Q 1884 428 2741 428 
Q 3075 428 3337 486 
Q 3600 544 3809 666 
z
" transform="scale(0.015625)"/>
      <path id="DejaVuSans-41" d="M 2188 4044 
L 1331 1722 
L 3047 1722 
L 2188 4044 
z
M 1831 4666 
L 2547 4666 
L 4325 0 
L 3669 0 
L 3244 1197 
L 1141 1197 
L 716 0 
L 50 0 
L 1831 4666 
z
" transform="scale(0.015625)"/>
     </defs>
     <use xlink:href="#DejaVuSans-4c"/>
     <use xlink:href="#DejaVuSans-43" x="55.712891"/>
     <use xlink:href="#DejaVuSans-47" x="125.537109"/>
     <use xlink:href="#DejaVuSans-41" x="203.027344"/>
    </g>
   </g>
   <g id="text_14">
    <!-- EvoSpace- -->
    <g transform="translate(386.578944 167.159125)scale(0.14 -0.14)">
     <defs>
      <path id="DejaVuSans-45" d="M 628 4666 
L 3578 4666 
L 3578 4134 
L 1259 4134 
L 1259 2753 
L 3481 2753 
L 3481 2222 
L 1259 2222 
L 1259 531 
L 3634 531 
L 3634 0 
L 628 0 
L 628 4666 
z
" transform="scale(0.015625)"/>
      <path id="DejaVuSans-53" d="M 3425 4513 
L 3425 3897 
Q 3066 4069 2747 4153 
Q 2428 4238 2131 4238 
Q 1616 4238 1336 4038 
Q 1056 3838 1056 3469 
Q 1056 3159 1242 3001 
Q 1428 2844 1947 2747 
L 2328 2669 
Q 3034 2534 3370 2195 
Q 3706 1856 3706 1288 
Q 3706 609 3251 259 
Q 2797 -91 1919 -91 
Q 1588 -91 1214 -16 
Q 841 59 441 206 
L 441 856 
Q 825 641 1194 531 
Q 1563 422 1919 422 
Q 2459 422 2753 634 
Q 3047 847 3047 1241 
Q 3047 1584 2836 1778 
Q 2625 1972 2144 2069 
L 1759 2144 
Q 1053 2284 737 2584 
Q 422 2884 422 3419 
Q 422 4038 858 4394 
Q 1294 4750 2059 4750 
Q 2388 4750 2728 4690 
Q 3069 4631 3425 4513 
z
" transform="scale(0.015625)"/>
     </defs>
     <use xlink:href="#DejaVuSans-45"/>
     <use xlink:href="#DejaVuSans-76" x="63.183594"/>
     <use xlink:href="#DejaVuSans-6f" x="122.363281"/>
     <use xlink:href="#DejaVuSans-53" x="183.544922"/>
     <use xlink:href="#DejaVuSans-70" x="247.021484"/>
     <use xlink:href="#DejaVuSans-61" x="310.498047"/>
     <use xlink:href="#DejaVuSans-63" x="371.777344"/>
     <use xlink:href="#DejaVuSans-65" x="426.757812"/>
     <use xlink:href="#DejaVuSans-2d" x="488.28125"/>
    </g>
   </g>
   <g id="text_15">
    <!-- best 2009 -->
    <g transform="translate(386.578944 36.937045)scale(0.14 -0.14)">
     <defs>
      <path id="DejaVuSans-62" d="M 3116 1747 
Q 3116 2381 2855 2742 
Q 2594 3103 2138 3103 
Q 1681 3103 1420 2742 
Q 1159 2381 1159 1747 
Q 1159 1113 1420 752 
Q 1681 391 2138 391 
Q 2594 391 2855 752 
Q 3116 1113 3116 1747 
z
M 1159 2969 
Q 1341 3281 1617 3432 
Q 1894 3584 2278 3584 
Q 2916 3584 3314 3078 
Q 3713 2572 3713 1747 
Q 3713 922 3314 415 
Q 2916 -91 2278 -91 
Q 1894 -91 1617 61 
Q 1341 213 1159 525 
L 1159 0 
L 581 0 
L 581 4863 
L 1159 4863 
L 1159 2969 
z
" transform="scale(0.015625)"/>
      <path id="DejaVuSans-39" d="M 703 97 
L 703 672 
Q 941 559 1184 500 
Q 1428 441 1663 441 
Q 2288 441 2617 861 
Q 2947 1281 2994 2138 
Q 2813 1869 2534 1725 
Q 2256 1581 1919 1581 
Q 1219 1581 811 2004 
Q 403 2428 403 3163 
Q 403 3881 828 4315 
Q 1253 4750 1959 4750 
Q 2769 4750 3195 4129 
Q 3622 3509 3622 2328 
Q 3622 1225 3098 567 
Q 2575 -91 1691 -91 
Q 1453 -91 1209 -44 
Q 966 3 703 97 
z
M 1959 2075 
Q 2384 2075 2632 2365 
Q 2881 2656 2881 3163 
Q 2881 3666 2632 3958 
Q 2384 4250 1959 4250 
Q 1534 4250 1286 3958 
Q 1038 3666 1038 3163 
Q 1038 2656 1286 2365 
Q 1534 2075 1959 2075 
z
" transform="scale(0.015625)"/>
     </defs>
     <use xlink:href="#DejaVuSans-62"/>
     <use xlink:href="#DejaVuSans-65" x="63.476562"/>
     <use xlink:href="#DejaVuSans-73" x="125"/>
     <use xlink:href="#DejaVuSans-74" x="177.099609"/>
     <use xlink:href="#DejaVuSans-20" x="216.308594"/>
     <use xlink:href="#DejaVuSans-32" x="248.095703"/>
     <use xlink:href="#DejaVuSans-30" x="311.71875"/>
     <use xlink:href="#DejaVuSans-30" x="375.341797"/>
     <use xlink:href="#DejaVuSans-39" x="438.964844"/>
    </g>
   </g>
   <g id="text_16">
    <!-- bbob f11, 3-D -->
    <g transform="translate(60.632064 38.111366)scale(0.102 -0.102)">
     <defs>
      <path id="DejaVuSans-33" d="M 2597 2516 
Q 3050 2419 3304 2112 
Q 3559 1806 3559 1356 
Q 3559 666 3084 287 
Q 2609 -91 1734 -91 
Q 1441 -91 1130 -33 
Q 819 25 488 141 
L 488 750 
Q 750 597 1062 519 
Q 1375 441 1716 441 
Q 2309 441 2620 675 
Q 2931 909 2931 1356 
Q 2931 1769 2642 2001 
Q 2353 2234 1838 2234 
L 1294 2234 
L 1294 2753 
L 1863 2753 
Q 2328 2753 2575 2939 
Q 2822 3125 2822 3475 
Q 2822 3834 2567 4026 
Q 2313 4219 1838 4219 
Q 1578 4219 1281 4162 
Q 984 4106 628 3988 
L 628 4550 
Q 988 4650 1302 4700 
Q 1616 4750 1894 4750 
Q 2613 4750 3031 4423 
Q 3450 4097 3450 3541 
Q 3450 3153 3228 2886 
Q 3006 2619 2597 2516 
z
" transform="scale(0.015625)"/>
      <path id="DejaVuSans-44" d="M 1259 4147 
L 1259 519 
L 2022 519 
Q 2988 519 3436 956 
Q 3884 1394 3884 2338 
Q 3884 3275 3436 3711 
Q 2988 4147 2022 4147 
L 1259 4147 
z
M 628 4666 
L 1925 4666 
Q 3281 4666 3915 4102 
Q 4550 3538 4550 2338 
Q 4550 1131 3912 565 
Q 3275 0 1925 0 
L 628 0 
L 628 4666 
z
" transform="scale(0.015625)"/>
     </defs>
     <use xlink:href="#DejaVuSans-62"/>
     <use xlink:href="#DejaVuSans-62" x="63.476562"/>
     <use xlink:href="#DejaVuSans-6f" x="126.953125"/>
     <use xlink:href="#DejaVuSans-62" x="188.134766"/>
     <use xlink:href="#DejaVuSans-20" x="251.611328"/>
     <use xlink:href="#DejaVuSans-66" x="283.398438"/>
     <use xlink:href="#DejaVuSans-31" x="318.603516"/>
     <use xlink:href="#DejaVuSans-31" x="382.226562"/>
     <use xlink:href="#DejaVuSans-2c" x="445.849609"/>
     <use xlink:href="#DejaVuSans-20" x="477.636719"/>
     <use xlink:href="#DejaVuSans-33" x="509.423828"/>
     <use xlink:href="#DejaVuSans-2d" x="573.046875"/>
     <use xlink:href="#DejaVuSans-44" x="609.130859"/>
    </g>
    <!-- 51 targets: 100..1e-08 -->
    <g transform="translate(60.632064 49.533135)scale(0.102 -0.102)">
     <defs>
      <path id="DejaVuSans-35" d="M 691 4666 
L 3169 4666 
L 3169 4134 
L 1269 4134 
L 1269 2991 
Q 1406 3038 1543 3061 
Q 1681 3084 1819 3084 
Q 2600 3084 3056 2656 
Q 3513 2228 3513 1497 
Q 3513 744 3044 326 
Q 2575 -91 1722 -91 
Q 1428 -91 1123 -41 
Q 819 9 494 109 
L 494 744 
Q 775 591 1075 516 
Q 1375 441 1709 441 
Q 2250 441 2565 725 
Q 2881 1009 2881 1497 
Q 2881 1984 2565 2268 
Q 2250 2553 1709 2553 
Q 1456 2553 1204 2497 
Q 953 2441 691 2322 
L 691 4666 
z
" transform="scale(0.015625)"/>
      <path id="DejaVuSans-3a" d="M 750 794 
L 1409 794 
L 1409 0 
L 750 0 
L 750 794 
z
M 750 3309 
L 1409 3309 
L 1409 2516 
L 750 2516 
L 750 3309 
z
" transform="scale(0.015625)"/>
     </defs>
     <use xlink:href="#DejaVuSans-35"/>
     <use xlink:href="#DejaVuSans-31" x="63.623047"/>
     <use xlink:href="#DejaVuSans-20" x="127.246094"/>
     <use xlink:href="#DejaVuSans-74" x="159.033203"/>
     <use xlink:href="#DejaVuSans-61" x="198.242188"/>
     <use xlink:href="#DejaVuSans-72" x="259.521484"/>
     <use xlink:href="#DejaVuSans-67" x="298.884766"/>
     <use xlink:href="#DejaVuSans-65" x="362.361328"/>
     <use xlink:href="#DejaVuSans-74" x="423.884766"/>
     <use xlink:href="#DejaVuSans-73" x="463.09375"/>
     <use xlink:href="#DejaVuSans-3a" x="515.193359"/>
     <use xlink:href="#DejaVuSans-20" x="548.884766"/>
     <use xlink:href="#DejaVuSans-31" x="580.671875"/>
     <use xlink:href="#DejaVuSans-30" x="644.294922"/>
     <use xlink:href="#DejaVuSans-30" x="707.917969"/>
     <use xlink:href="#DejaVuSans-2e" x="771.541016"/>
     <use xlink:href="#DejaVuSans-2e" x="803.328125"/>
     <use xlink:href="#DejaVuSans-31" x="835.115234"/>
     <use xlink:href="#DejaVuSans-65" x="898.738281"/>
     <use xlink:href="#DejaVuSans-2d" x="960.261719"/>
     <use xlink:href="#DejaVuSans-30" x="996.345703"/>
     <use xlink:href="#DejaVuSans-38" x="1059.96875"/>
    </g>
    <!-- 15 instances -->
    <g transform="translate(60.632064 60.954904)scale(0.102 -0.102)">
     <use xlink:href="#DejaVuSans-31"/>
     <use xlink:href="#DejaVuSans-35" x="63.623047"/>
     <use xlink:href="#DejaVuSans-20" x="127.246094"/>
     <use xlink:href="#DejaVuSans-69" x="159.033203"/>
     <use xlink:href="#DejaVuSans-6e" x="186.816406"/>
     <use xlink:href="#DejaVuSans-73" x="250.195312"/>
     <use xlink:href="#DejaVuSans-74" x="302.294922"/>
     <use xlink:href="#DejaVuSans-61" x="341.503906"/>
     <use xlink:href="#DejaVuSans-6e" x="402.783203"/>
     <use xlink:href="#DejaVuSans-63" x="466.162109"/>
     <use xlink:href="#DejaVuSans-65" x="521.142578"/>
     <use xlink:href="#DejaVuSans-73" x="582.666016"/>
    </g>
   </g>
   <g id="text_17">
    <!-- v2.6 -->
    <g style="fill: #808080" transform="translate(198.292262 294.151352)scale(0.1 -0.1)">
     <use xlink:href="#DejaVuSans-76"/>
     <use xlink:href="#DejaVuSans-32" x="59.179688"/>
     <use xlink:href="#DejaVuSans-2e" x="122.802734"/>
     <use xlink:href="#DejaVuSans-36" x="154.589844"/>
    </g>
   </g>
   <g id="text_18">
    <!-- 11 Discus -->
    <g transform="translate(160.567262 21.648)scale(0.2 -0.2)">
     <use xlink:href="#DejaVuSans-31"/>
     <use xlink:href="#DejaVuSans-31" x="63.623047"/>
     <use xlink:href="#DejaVuSans-20" x="127.246094"/>
     <use xlink:href="#DejaVuSans-44" x="159.033203"/>
     <use xlink:href="#DejaVuSans-69" x="236.035156"/>
     <use xlink:href="#DejaVuSans-73" x="263.818359"/>
     <use xlink:href="#DejaVuSans-63" x="315.917969"/>
     <use xlink:href="#DejaVuSans-75" x="370.898438"/>
     <use xlink:href="#DejaVuSans-73" x="434.277344"/>
    </g>
   </g>
  </g>
 </g>
 <defs>
  <clipPath id="p0044982ed4">
   <rect x="57.6" y="27.648" width="303.2064" height="271.296"/>
  </clipPath>
 </defs>
</svg>
