<?xml version="1.0" encoding="utf-8" standalone="no"?>
<!DOCTYPE svg PUBLIC "-//W3C//DTD SVG 1.1//EN"
  "http://www.w3.org/Graphics/SVG/1.1/DTD/svg11.dtd">
<svg xmlns:xlink="http://www.w3.org/1999/xlink" width="460.8pt" height="345.6pt" viewBox="0 0 460.8 345.6" xmlns="http://www.w3.org/2000/svg" version="1.1">
 <metadata>
  <rdf:RDF xmlns:dc="http://purl.org/dc/elements/1.1/" xmlns:cc="http://creativecommons.org/ns#" xmlns:rdf="http://www.w3.org/1999/02/22-rdf-syntax-ns#">
   <cc:Work>
    <dc:type rdf:resource="http://purl.org/dc/dcmitype/StillImage"/>
    <dc:date>2024-05-29T08:06:01.701816</dc:date>
    <dc:format>image/svg+xml</dc:format>
    <dc:creator>
     <cc:Agent>
      <dc:title>Matplotlib v3.5.1, https://matplotlib.org/</dc:title>
     </cc:Agent>
    </dc:creator>
   </cc:Work>
  </rdf:RDF>
 </metadata>
 <defs>
  <style type="text/css">*{stroke-linejoin: round; stroke-linecap: butt}</style>
 </defs>
 <g id="figure_1">
  <g id="patch_1">
   <path d="M 0 345.6 
L 460.8 345.6 
L 460.8 0 
L 0 0 
z
" style="fill: #ffffff"/>
  </g>
  <g id="axes_1">
   <g id="patch_2">
    <path d="M 57.6 298.944 
L 360.8064 298.944 
L 360.8064 27.648 
L 57.6 27.648 
z
" style="fill: #ffffff"/>
   </g>
   <g id="line2d_1">
    <path d="M 65.227428 298.944 
L 65.227428 293.624471 
L 70.639174 293.624471 
L 70.639174 288.304941 
L 81.166416 288.304941 
L 81.166416 282.985412 
L 85.894031 282.985412 
L 85.894031 277.665882 
L 89.668958 277.665882 
L 89.668958 272.346353 
L 99.950294 272.346353 
L 99.950294 267.026824 
L 109.756698 267.026824 
L 109.756698 261.707294 
L 116.583514 261.707294 
L 116.583514 256.387765 
L 123.374735 256.387765 
L 123.374735 251.068235 
L 131.929028 251.068235 
L 131.929028 245.748706 
L 136.696795 245.748706 
L 136.696795 240.429176 
L 138.310202 240.429176 
L 138.310202 235.109647 
L 143.850356 235.109647 
L 143.850356 229.790118 
L 146.612557 229.790118 
L 146.612557 224.470588 
L 163.362513 224.470588 
L 163.362513 219.151059 
L 166.860176 219.151059 
L 166.860176 213.831529 
L 167.526142 213.831529 
L 167.526142 208.512 
L 168.430973 208.512 
L 168.430973 203.192471 
L 178.339408 203.192471 
L 178.339408 197.872941 
L 178.613589 197.872941 
L 178.613589 192.553412 
L 178.689047 192.553412 
L 178.689047 187.233882 
L 182.321035 187.233882 
L 182.321035 181.914353 
L 182.457127 181.914353 
L 182.457127 176.594824 
L 182.979872 176.594824 
L 182.979872 171.275294 
L 183.394894 171.275294 
L 183.394894 165.955765 
L 184.576684 165.955765 
L 184.576684 160.636235 
L 185.740436 160.636235 
L 185.740436 155.316706 
L 185.864265 155.316706 
L 185.864265 149.997176 
L 186.311454 149.997176 
L 186.311454 144.677647 
L 186.855894 144.677647 
L 186.855894 139.358118 
L 188.219988 139.358118 
L 188.219988 134.038588 
L 188.364623 134.038588 
L 188.364623 128.719059 
L 188.400609 128.719059 
L 188.400609 123.399529 
L 190.998851 123.399529 
L 190.998851 118.08 
L 191.061374 118.08 
L 191.061374 112.760471 
L 191.270868 112.760471 
L 191.270868 107.440941 
L 191.462785 107.440941 
L 191.462785 102.121412 
L 192.386785 102.121412 
L 192.386785 96.801882 
L 192.473842 96.801882 
L 192.473842 91.482353 
L 192.560499 91.482353 
L 192.560499 86.162824 
L 192.639584 86.162824 
L 192.639584 80.843294 
L 193.267517 80.843294 
L 193.267517 75.523765 
L 193.590854 75.523765 
L 193.590854 70.204235 
L 193.854999 70.204235 
L 193.854999 64.884706 
L 194.161861 64.884706 
L 194.161861 59.565176 
L 194.260852 59.565176 
L 194.260852 54.245647 
L 194.378958 54.245647 
L 194.378958 48.926118 
L 194.476816 48.926118 
L 194.476816 43.606588 
L 194.535287 43.606588 
L 194.535287 38.287059 
L 194.664577 38.287059 
L 194.664577 32.967529 
L 194.72889 32.967529 
L 194.72889 27.648 
L 360.8064 27.648 
" style="fill: none; stroke: #f5deb3; stroke-width: 4; stroke-linecap: square"/>
   </g>
   <g id="line2d_2">
    <defs>
     <path id="mf41cb41871" d="M 0 7.778175 
L 7.778175 0 
L 0 -7.778175 
L -7.778175 0 
z
" style="stroke: #f5deb3; stroke-width: 1.5; stroke-linejoin: miter"/>
    </defs>
    <g>
     <use xlink:href="#mf41cb41871" x="168.430973" y="203.192471" style="fill: #f5deb3; stroke: #f5deb3; stroke-width: 1.5; stroke-linejoin: miter"/>
     <use xlink:href="#mf41cb41871" x="193.854999" y="64.884706" style="fill: #f5deb3; stroke: #f5deb3; stroke-width: 1.5; stroke-linejoin: miter"/>
     <use xlink:href="#mf41cb41871" x="194.72889" y="27.648" style="fill: #f5deb3; stroke: #f5deb3; stroke-width: 1.5; stroke-linejoin: miter"/>
     <use xlink:href="#mf41cb41871" x="194.72889" y="27.648" style="fill: #f5deb3; stroke: #f5deb3; stroke-width: 1.5; stroke-linejoin: miter"/>
     <use xlink:href="#mf41cb41871" x="360.8064" y="27.648" style="fill: #f5deb3; stroke: #f5deb3; stroke-width: 1.5; stroke-linejoin: miter"/>
    </g>
   </g>
   <g id="line2d_3">
    <path style="fill: none; stroke: #f5deb3; stroke-width: 4; stroke-linecap: square"/>
    <g/>
   </g>
   <g id="line2d_4">
    <path d="M 360.8064 27.648 
L 380.514816 33.07392 
" style="fill: none; stroke: #f5deb3; stroke-width: 4; stroke-linecap: square"/>
    <g>
     <use xlink:href="#mf41cb41871" x="360.8064" y="27.648" style="fill: #f5deb3; stroke: #f5deb3; stroke-width: 1.5; stroke-linejoin: miter"/>
     <use xlink:href="#mf41cb41871" x="380.514816" y="33.07392" style="fill: #f5deb3; stroke: #f5deb3; stroke-width: 1.5; stroke-linejoin: miter"/>
    </g>
   </g>
   <g id="matplotlib.axis_1">
    <g id="xtick_1">
     <g id="line2d_5">
      <path d="M 57.6 298.944 
L 57.6 27.648 
" clip-path="url(#pb85bdd8dc5)" style="fill: none; stroke: #b0b0b0; stroke-width: 0.8; stroke-linecap: square"/>
     </g>
     <g id="line2d_6">
      <defs>
       <path id="m18a4382923" d="M 0 0 
L 0 3.5 
" style="stroke: #000000; stroke-width: 0.8"/>
      </defs>
      <g>
       <use xlink:href="#m18a4382923" x="57.6" y="298.944" style="stroke: #000000; stroke-width: 0.8"/>
      </g>
     </g>
     <g id="text_1">
      <!-- 0 -->
      <g transform="translate(52.191875 318.861344)scale(0.17 -0.17)">
       <defs>
        <path id="DejaVuSans-30" d="M 2034 4250 
Q 1547 4250 1301 3770 
Q 1056 3291 1056 2328 
Q 1056 1369 1301 889 
Q 1547 409 2034 409 
Q 2525 409 2770 889 
Q 3016 1369 3016 2328 
Q 3016 3291 2770 3770 
Q 2525 4250 2034 4250 
z
M 2034 4750 
Q 2819 4750 3233 4129 
Q 3647 3509 3647 2328 
Q 3647 1150 3233 529 
Q 2819 -91 2034 -91 
Q 1250 -91 836 529 
Q 422 1150 422 2328 
Q 422 3509 836 4129 
Q 1250 4750 2034 4750 
z
" transform="scale(0.015625)"/>
       </defs>
       <use xlink:href="#DejaVuSans-30"/>
      </g>
     </g>
    </g>
    <g id="xtick_2">
     <g id="line2d_7">
      <path d="M 144.2304 298.944 
L 144.2304 27.648 
" clip-path="url(#pb85bdd8dc5)" style="fill: none; stroke: #b0b0b0; stroke-width: 0.8; stroke-linecap: square"/>
     </g>
     <g id="line2d_8">
      <g>
       <use xlink:href="#m18a4382923" x="144.2304" y="298.944" style="stroke: #000000; stroke-width: 0.8"/>
      </g>
     </g>
     <g id="text_2">
      <!-- 2 -->
      <g transform="translate(138.822275 318.861344)scale(0.17 -0.17)">
       <defs>
        <path id="DejaVuSans-32" d="M 1228 531 
L 3431 531 
L 3431 0 
L 469 0 
L 469 531 
Q 828 903 1448 1529 
Q 2069 2156 2228 2338 
Q 2531 2678 2651 2914 
Q 2772 3150 2772 3378 
Q 2772 3750 2511 3984 
Q 2250 4219 1831 4219 
Q 1534 4219 1204 4116 
Q 875 4013 500 3803 
L 500 4441 
Q 881 4594 1212 4672 
Q 1544 4750 1819 4750 
Q 2544 4750 2975 4387 
Q 3406 4025 3406 3419 
Q 3406 3131 3298 2873 
Q 3191 2616 2906 2266 
Q 2828 2175 2409 1742 
Q 1991 1309 1228 531 
z
" transform="scale(0.015625)"/>
       </defs>
       <use xlink:href="#DejaVuSans-32"/>
      </g>
     </g>
    </g>
    <g id="xtick_3">
     <g id="line2d_9">
      <path d="M 230.8608 298.944 
L 230.8608 27.648 
" clip-path="url(#pb85bdd8dc5)" style="fill: none; stroke: #b0b0b0; stroke-width: 0.8; stroke-linecap: square"/>
     </g>
     <g id="line2d_10">
      <g>
       <use xlink:href="#m18a4382923" x="230.8608" y="298.944" style="stroke: #000000; stroke-width: 0.8"/>
      </g>
     </g>
     <g id="text_3">
      <!-- 4 -->
      <g transform="translate(225.452675 318.861344)scale(0.17 -0.17)">
       <defs>
        <path id="DejaVuSans-34" d="M 2419 4116 
L 825 1625 
L 2419 1625 
L 2419 4116 
z
M 2253 4666 
L 3047 4666 
L 3047 1625 
L 3713 1625 
L 3713 1100 
L 3047 1100 
L 3047 0 
L 2419 0 
L 2419 1100 
L 313 1100 
L 313 1709 
L 2253 4666 
z
" transform="scale(0.015625)"/>
       </defs>
       <use xlink:href="#DejaVuSans-34"/>
      </g>
     </g>
    </g>
    <g id="xtick_4">
     <g id="line2d_11">
      <path d="M 317.4912 298.944 
L 317.4912 27.648 
" clip-path="url(#pb85bdd8dc5)" style="fill: none; stroke: #b0b0b0; stroke-width: 0.8; stroke-linecap: square"/>
     </g>
     <g id="line2d_12">
      <g>
       <use xlink:href="#m18a4382923" x="317.4912" y="298.944" style="stroke: #000000; stroke-width: 0.8"/>
      </g>
     </g>
     <g id="text_4">
      <!-- 6 -->
      <g transform="translate(312.083075 318.861344)scale(0.17 -0.17)">
       <defs>
        <path id="DejaVuSans-36" d="M 2113 2584 
Q 1688 2584 1439 2293 
Q 1191 2003 1191 1497 
Q 1191 994 1439 701 
Q 1688 409 2113 409 
Q 2538 409 2786 701 
Q 3034 994 3034 1497 
Q 3034 2003 2786 2293 
Q 2538 2584 2113 2584 
z
M 3366 4563 
L 3366 3988 
Q 3128 4100 2886 4159 
Q 2644 4219 2406 4219 
Q 1781 4219 1451 3797 
Q 1122 3375 1075 2522 
Q 1259 2794 1537 2939 
Q 1816 3084 2150 3084 
Q 2853 3084 3261 2657 
Q 3669 2231 3669 1497 
Q 3669 778 3244 343 
Q 2819 -91 2113 -91 
Q 1303 -91 875 529 
Q 447 1150 447 2328 
Q 447 3434 972 4092 
Q 1497 4750 2381 4750 
Q 2619 4750 2861 4703 
Q 3103 4656 3366 4563 
z
" transform="scale(0.015625)"/>
       </defs>
       <use xlink:href="#DejaVuSans-36"/>
      </g>
     </g>
    </g>
    <g id="xtick_5">
     <g id="line2d_13">
      <path d="M 100.9152 298.944 
L 100.9152 27.648 
" clip-path="url(#pb85bdd8dc5)" style="fill: none; stroke: #b0b0b0; stroke-width: 0.8; stroke-linecap: square"/>
     </g>
     <g id="line2d_14">
      <defs>
       <path id="me4ad6d7bf2" d="M 0 0 
L 0 2 
" style="stroke: #000000; stroke-width: 0.6"/>
      </defs>
      <g>
       <use xlink:href="#me4ad6d7bf2" x="100.9152" y="298.944" style="stroke: #000000; stroke-width: 0.6"/>
      </g>
     </g>
    </g>
    <g id="xtick_6">
     <g id="line2d_15">
      <path d="M 187.5456 298.944 
L 187.5456 27.648 
" clip-path="url(#pb85bdd8dc5)" style="fill: none; stroke: #b0b0b0; stroke-width: 0.8; stroke-linecap: square"/>
     </g>
     <g id="line2d_16">
      <g>
       <use xlink:href="#me4ad6d7bf2" x="187.5456" y="298.944" style="stroke: #000000; stroke-width: 0.6"/>
      </g>
     </g>
    </g>
    <g id="xtick_7">
     <g id="line2d_17">
      <path d="M 274.176 298.944 
L 274.176 27.648 
" clip-path="url(#pb85bdd8dc5)" style="fill: none; stroke: #b0b0b0; stroke-width: 0.8; stroke-linecap: square"/>
     </g>
     <g id="line2d_18">
      <g>
       <use xlink:href="#me4ad6d7bf2" x="274.176" y="298.944" style="stroke: #000000; stroke-width: 0.6"/>
      </g>
     </g>
    </g>
    <g id="xtick_8">
     <g id="line2d_19">
      <path d="M 360.8064 298.944 
L 360.8064 27.648 
" clip-path="url(#pb85bdd8dc5)" style="fill: none; stroke: #b0b0b0; stroke-width: 0.8; stroke-linecap: square"/>
     </g>
     <g id="line2d_20">
      <g>
       <use xlink:href="#me4ad6d7bf2" x="360.8064" y="298.944" style="stroke: #000000; stroke-width: 0.6"/>
      </g>
     </g>
    </g>
    <g id="text_5">
     <!-- log10(# f-evals / dimension) -->
     <g transform="translate(88.823278 339.314156)scale(0.17 -0.17)">
      <defs>
       <path id="DejaVuSans-6c" d="M 603 4863 
L 1178 4863 
L 1178 0 
L 603 0 
L 603 4863 
z
" transform="scale(0.015625)"/>
       <path id="DejaVuSans-6f" d="M 1959 3097 
Q 1497 3097 1228 2736 
Q 959 2375 959 1747 
Q 959 1119 1226 758 
Q 1494 397 1959 397 
Q 2419 397 2687 759 
Q 2956 1122 2956 1747 
Q 2956 2369 2687 2733 
Q 2419 3097 1959 3097 
z
M 1959 3584 
Q 2709 3584 3137 3096 
Q 3566 2609 3566 1747 
Q 3566 888 3137 398 
Q 2709 -91 1959 -91 
Q 1206 -91 779 398 
Q 353 888 353 1747 
Q 353 2609 779 3096 
Q 1206 3584 1959 3584 
z
" transform="scale(0.015625)"/>
       <path id="DejaVuSans-67" d="M 2906 1791 
Q 2906 2416 2648 2759 
Q 2391 3103 1925 3103 
Q 1463 3103 1205 2759 
Q 947 2416 947 1791 
Q 947 1169 1205 825 
Q 1463 481 1925 481 
Q 2391 481 2648 825 
Q 2906 1169 2906 1791 
z
M 3481 434 
Q 3481 -459 3084 -895 
Q 2688 -1331 1869 -1331 
Q 1566 -1331 1297 -1286 
Q 1028 -1241 775 -1147 
L 775 -588 
Q 1028 -725 1275 -790 
Q 1522 -856 1778 -856 
Q 2344 -856 2625 -561 
Q 2906 -266 2906 331 
L 2906 616 
Q 2728 306 2450 153 
Q 2172 0 1784 0 
Q 1141 0 747 490 
Q 353 981 353 1791 
Q 353 2603 747 3093 
Q 1141 3584 1784 3584 
Q 2172 3584 2450 3431 
Q 2728 3278 2906 2969 
L 2906 3500 
L 3481 3500 
L 3481 434 
z
" transform="scale(0.015625)"/>
       <path id="DejaVuSans-31" d="M 794 531 
L 1825 531 
L 1825 4091 
L 703 3866 
L 703 4441 
L 1819 4666 
L 2450 4666 
L 2450 531 
L 3481 531 
L 3481 0 
L 794 0 
L 794 531 
z
" transform="scale(0.015625)"/>
       <path id="DejaVuSans-28" d="M 1984 4856 
Q 1566 4138 1362 3434 
Q 1159 2731 1159 2009 
Q 1159 1288 1364 580 
Q 1569 -128 1984 -844 
L 1484 -844 
Q 1016 -109 783 600 
Q 550 1309 550 2009 
Q 550 2706 781 3412 
Q 1013 4119 1484 4856 
L 1984 4856 
z
" transform="scale(0.015625)"/>
       <path id="DejaVuSans-23" d="M 3272 2816 
L 2363 2816 
L 2100 1772 
L 3016 1772 
L 3272 2816 
z
M 2803 4594 
L 2478 3297 
L 3391 3297 
L 3719 4594 
L 4219 4594 
L 3897 3297 
L 4872 3297 
L 4872 2816 
L 3775 2816 
L 3519 1772 
L 4513 1772 
L 4513 1294 
L 3397 1294 
L 3072 0 
L 2572 0 
L 2894 1294 
L 1978 1294 
L 1656 0 
L 1153 0 
L 1478 1294 
L 494 1294 
L 494 1772 
L 1594 1772 
L 1856 2816 
L 850 2816 
L 850 3297 
L 1978 3297 
L 2297 4594 
L 2803 4594 
z
" transform="scale(0.015625)"/>
       <path id="DejaVuSans-20" transform="scale(0.015625)"/>
       <path id="DejaVuSans-66" d="M 2375 4863 
L 2375 4384 
L 1825 4384 
Q 1516 4384 1395 4259 
Q 1275 4134 1275 3809 
L 1275 3500 
L 2222 3500 
L 2222 3053 
L 1275 3053 
L 1275 0 
L 697 0 
L 697 3053 
L 147 3053 
L 147 3500 
L 697 3500 
L 697 3744 
Q 697 4328 969 4595 
Q 1241 4863 1831 4863 
L 2375 4863 
z
" transform="scale(0.015625)"/>
       <path id="DejaVuSans-2d" d="M 313 2009 
L 1997 2009 
L 1997 1497 
L 313 1497 
L 313 2009 
z
" transform="scale(0.015625)"/>
       <path id="DejaVuSans-65" d="M 3597 1894 
L 3597 1613 
L 953 1613 
Q 991 1019 1311 708 
Q 1631 397 2203 397 
Q 2534 397 2845 478 
Q 3156 559 3463 722 
L 3463 178 
Q 3153 47 2828 -22 
Q 2503 -91 2169 -91 
Q 1331 -91 842 396 
Q 353 884 353 1716 
Q 353 2575 817 3079 
Q 1281 3584 2069 3584 
Q 2775 3584 3186 3129 
Q 3597 2675 3597 1894 
z
M 3022 2063 
Q 3016 2534 2758 2815 
Q 2500 3097 2075 3097 
Q 1594 3097 1305 2825 
Q 1016 2553 972 2059 
L 3022 2063 
z
" transform="scale(0.015625)"/>
       <path id="DejaVuSans-76" d="M 191 3500 
L 800 3500 
L 1894 563 
L 2988 3500 
L 3597 3500 
L 2284 0 
L 1503 0 
L 191 3500 
z
" transform="scale(0.015625)"/>
       <path id="DejaVuSans-61" d="M 2194 1759 
Q 1497 1759 1228 1600 
Q 959 1441 959 1056 
Q 959 750 1161 570 
Q 1363 391 1709 391 
Q 2188 391 2477 730 
Q 2766 1069 2766 1631 
L 2766 1759 
L 2194 1759 
z
M 3341 1997 
L 3341 0 
L 2766 0 
L 2766 531 
Q 2569 213 2275 61 
Q 1981 -91 1556 -91 
Q 1019 -91 701 211 
Q 384 513 384 1019 
Q 384 1609 779 1909 
Q 1175 2209 1959 2209 
L 2766 2209 
L 2766 2266 
Q 2766 2663 2505 2880 
Q 2244 3097 1772 3097 
Q 1472 3097 1187 3025 
Q 903 2953 641 2809 
L 641 3341 
Q 956 3463 1253 3523 
Q 1550 3584 1831 3584 
Q 2591 3584 2966 3190 
Q 3341 2797 3341 1997 
z
" transform="scale(0.015625)"/>
       <path id="DejaVuSans-73" d="M 2834 3397 
L 2834 2853 
Q 2591 2978 2328 3040 
Q 2066 3103 1784 3103 
Q 1356 3103 1142 2972 
Q 928 2841 928 2578 
Q 928 2378 1081 2264 
Q 1234 2150 1697 2047 
L 1894 2003 
Q 2506 1872 2764 1633 
Q 3022 1394 3022 966 
Q 3022 478 2636 193 
Q 2250 -91 1575 -91 
Q 1294 -91 989 -36 
Q 684 19 347 128 
L 347 722 
Q 666 556 975 473 
Q 1284 391 1588 391 
Q 1994 391 2212 530 
Q 2431 669 2431 922 
Q 2431 1156 2273 1281 
Q 2116 1406 1581 1522 
L 1381 1569 
Q 847 1681 609 1914 
Q 372 2147 372 2553 
Q 372 3047 722 3315 
Q 1072 3584 1716 3584 
Q 2034 3584 2315 3537 
Q 2597 3491 2834 3397 
z
" transform="scale(0.015625)"/>
       <path id="DejaVuSans-2f" d="M 1625 4666 
L 2156 4666 
L 531 -594 
L 0 -594 
L 1625 4666 
z
" transform="scale(0.015625)"/>
       <path id="DejaVuSans-64" d="M 2906 2969 
L 2906 4863 
L 3481 4863 
L 3481 0 
L 2906 0 
L 2906 525 
Q 2725 213 2448 61 
Q 2172 -91 1784 -91 
Q 1150 -91 751 415 
Q 353 922 353 1747 
Q 353 2572 751 3078 
Q 1150 3584 1784 3584 
Q 2172 3584 2448 3432 
Q 2725 3281 2906 2969 
z
M 947 1747 
Q 947 1113 1208 752 
Q 1469 391 1925 391 
Q 2381 391 2643 752 
Q 2906 1113 2906 1747 
Q 2906 2381 2643 2742 
Q 2381 3103 1925 3103 
Q 1469 3103 1208 2742 
Q 947 2381 947 1747 
z
" transform="scale(0.015625)"/>
       <path id="DejaVuSans-69" d="M 603 3500 
L 1178 3500 
L 1178 0 
L 603 0 
L 603 3500 
z
M 603 4863 
L 1178 4863 
L 1178 4134 
L 603 4134 
L 603 4863 
z
" transform="scale(0.015625)"/>
       <path id="DejaVuSans-6d" d="M 3328 2828 
Q 3544 3216 3844 3400 
Q 4144 3584 4550 3584 
Q 5097 3584 5394 3201 
Q 5691 2819 5691 2113 
L 5691 0 
L 5113 0 
L 5113 2094 
Q 5113 2597 4934 2840 
Q 4756 3084 4391 3084 
Q 3944 3084 3684 2787 
Q 3425 2491 3425 1978 
L 3425 0 
L 2847 0 
L 2847 2094 
Q 2847 2600 2669 2842 
Q 2491 3084 2119 3084 
Q 1678 3084 1418 2786 
Q 1159 2488 1159 1978 
L 1159 0 
L 581 0 
L 581 3500 
L 1159 3500 
L 1159 2956 
Q 1356 3278 1631 3431 
Q 1906 3584 2284 3584 
Q 2666 3584 2933 3390 
Q 3200 3197 3328 2828 
z
" transform="scale(0.015625)"/>
       <path id="DejaVuSans-6e" d="M 3513 2113 
L 3513 0 
L 2938 0 
L 2938 2094 
Q 2938 2591 2744 2837 
Q 2550 3084 2163 3084 
Q 1697 3084 1428 2787 
Q 1159 2491 1159 1978 
L 1159 0 
L 581 0 
L 581 3500 
L 1159 3500 
L 1159 2956 
Q 1366 3272 1645 3428 
Q 1925 3584 2291 3584 
Q 2894 3584 3203 3211 
Q 3513 2838 3513 2113 
z
" transform="scale(0.015625)"/>
       <path id="DejaVuSans-29" d="M 513 4856 
L 1013 4856 
Q 1481 4119 1714 3412 
Q 1947 2706 1947 2009 
Q 1947 1309 1714 600 
Q 1481 -109 1013 -844 
L 513 -844 
Q 928 -128 1133 580 
Q 1338 1288 1338 2009 
Q 1338 2731 1133 3434 
Q 928 4138 513 4856 
z
" transform="scale(0.015625)"/>
      </defs>
      <use xlink:href="#DejaVuSans-6c"/>
      <use xlink:href="#DejaVuSans-6f" x="27.783203"/>
      <use xlink:href="#DejaVuSans-67" x="88.964844"/>
      <use xlink:href="#DejaVuSans-31" x="152.441406"/>
      <use xlink:href="#DejaVuSans-30" x="216.064453"/>
      <use xlink:href="#DejaVuSans-28" x="279.6875"/>
      <use xlink:href="#DejaVuSans-23" x="318.701172"/>
      <use xlink:href="#DejaVuSans-20" x="402.490234"/>
      <use xlink:href="#DejaVuSans-66" x="434.277344"/>
      <use xlink:href="#DejaVuSans-2d" x="463.982422"/>
      <use xlink:href="#DejaVuSans-65" x="500.066406"/>
      <use xlink:href="#DejaVuSans-76" x="561.589844"/>
      <use xlink:href="#DejaVuSans-61" x="620.769531"/>
      <use xlink:href="#DejaVuSans-6c" x="682.048828"/>
      <use xlink:href="#DejaVuSans-73" x="709.832031"/>
      <use xlink:href="#DejaVuSans-20" x="761.931641"/>
      <use xlink:href="#DejaVuSans-2f" x="793.71875"/>
      <use xlink:href="#DejaVuSans-20" x="827.410156"/>
      <use xlink:href="#DejaVuSans-64" x="859.197266"/>
      <use xlink:href="#DejaVuSans-69" x="922.673828"/>
      <use xlink:href="#DejaVuSans-6d" x="950.457031"/>
      <use xlink:href="#DejaVuSans-65" x="1047.869141"/>
      <use xlink:href="#DejaVuSans-6e" x="1109.392578"/>
      <use xlink:href="#DejaVuSans-73" x="1172.771484"/>
      <use xlink:href="#DejaVuSans-69" x="1224.871094"/>
      <use xlink:href="#DejaVuSans-6f" x="1252.654297"/>
      <use xlink:href="#DejaVuSans-6e" x="1313.835938"/>
      <use xlink:href="#DejaVuSans-29" x="1377.214844"/>
     </g>
    </g>
   </g>
   <g id="matplotlib.axis_2">
    <g id="ytick_1">
     <g id="line2d_21">
      <path d="M 57.6 298.944 
L 360.8064 298.944 
" clip-path="url(#pb85bdd8dc5)" style="fill: none; stroke: #b0b0b0; stroke-width: 0.8; stroke-linecap: square"/>
     </g>
     <g id="line2d_22">
      <defs>
       <path id="m0caa4bd9b8" d="M 0 0 
L -3.5 0 
" style="stroke: #000000; stroke-width: 0.8"/>
      </defs>
      <g>
       <use xlink:href="#m0caa4bd9b8" x="57.6" y="298.944" style="stroke: #000000; stroke-width: 0.8"/>
      </g>
     </g>
     <g id="text_6">
      <!-- 0.0 -->
      <g transform="translate(25.155 305.02275)scale(0.16 -0.16)">
       <defs>
        <path id="DejaVuSans-2e" d="M 684 794 
L 1344 794 
L 1344 0 
L 684 0 
L 684 794 
z
" transform="scale(0.015625)"/>
       </defs>
       <use xlink:href="#DejaVuSans-30"/>
       <use xlink:href="#DejaVuSans-2e" x="63.623047"/>
       <use xlink:href="#DejaVuSans-30" x="95.410156"/>
      </g>
     </g>
    </g>
    <g id="ytick_2">
     <g id="line2d_23">
      <path d="M 57.6 244.6848 
L 360.8064 244.6848 
" clip-path="url(#pb85bdd8dc5)" style="fill: none; stroke: #b0b0b0; stroke-width: 0.8; stroke-linecap: square"/>
     </g>
     <g id="line2d_24">
      <g>
       <use xlink:href="#m0caa4bd9b8" x="57.6" y="244.6848" style="stroke: #000000; stroke-width: 0.8"/>
      </g>
     </g>
     <g id="text_7">
      <!-- 0.2 -->
      <g transform="translate(25.155 250.76355)scale(0.16 -0.16)">
       <use xlink:href="#DejaVuSans-30"/>
       <use xlink:href="#DejaVuSans-2e" x="63.623047"/>
       <use xlink:href="#DejaVuSans-32" x="95.410156"/>
      </g>
     </g>
    </g>
    <g id="ytick_3">
     <g id="line2d_25">
      <path d="M 57.6 190.4256 
L 360.8064 190.4256 
" clip-path="url(#pb85bdd8dc5)" style="fill: none; stroke: #b0b0b0; stroke-width: 0.8; stroke-linecap: square"/>
     </g>
     <g id="line2d_26">
      <g>
       <use xlink:href="#m0caa4bd9b8" x="57.6" y="190.4256" style="stroke: #000000; stroke-width: 0.8"/>
      </g>
     </g>
     <g id="text_8">
      <!-- 0.4 -->
      <g transform="translate(25.155 196.50435)scale(0.16 -0.16)">
       <use xlink:href="#DejaVuSans-30"/>
       <use xlink:href="#DejaVuSans-2e" x="63.623047"/>
       <use xlink:href="#DejaVuSans-34" x="95.410156"/>
      </g>
     </g>
    </g>
    <g id="ytick_4">
     <g id="line2d_27">
      <path d="M 57.6 136.1664 
L 360.8064 136.1664 
" clip-path="url(#pb85bdd8dc5)" style="fill: none; stroke: #b0b0b0; stroke-width: 0.8; stroke-linecap: square"/>
     </g>
     <g id="line2d_28">
      <g>
       <use xlink:href="#m0caa4bd9b8" x="57.6" y="136.1664" style="stroke: #000000; stroke-width: 0.8"/>
      </g>
     </g>
     <g id="text_9">
      <!-- 0.6 -->
      <g transform="translate(25.155 142.24515)scale(0.16 -0.16)">
       <use xlink:href="#DejaVuSans-30"/>
       <use xlink:href="#DejaVuSans-2e" x="63.623047"/>
       <use xlink:href="#DejaVuSans-36" x="95.410156"/>
      </g>
     </g>
    </g>
    <g id="ytick_5">
     <g id="line2d_29">
      <path d="M 57.6 81.9072 
L 360.8064 81.9072 
" clip-path="url(#pb85bdd8dc5)" style="fill: none; stroke: #b0b0b0; stroke-width: 0.8; stroke-linecap: square"/>
     </g>
     <g id="line2d_30">
      <g>
       <use xlink:href="#m0caa4bd9b8" x="57.6" y="81.9072" style="stroke: #000000; stroke-width: 0.8"/>
      </g>
     </g>
     <g id="text_10">
      <!-- 0.8 -->
      <g transform="translate(25.155 87.98595)scale(0.16 -0.16)">
       <defs>
        <path id="DejaVuSans-38" d="M 2034 2216 
Q 1584 2216 1326 1975 
Q 1069 1734 1069 1313 
Q 1069 891 1326 650 
Q 1584 409 2034 409 
Q 2484 409 2743 651 
Q 3003 894 3003 1313 
Q 3003 1734 2745 1975 
Q 2488 2216 2034 2216 
z
M 1403 2484 
Q 997 2584 770 2862 
Q 544 3141 544 3541 
Q 544 4100 942 4425 
Q 1341 4750 2034 4750 
Q 2731 4750 3128 4425 
Q 3525 4100 3525 3541 
Q 3525 3141 3298 2862 
Q 3072 2584 2669 2484 
Q 3125 2378 3379 2068 
Q 3634 1759 3634 1313 
Q 3634 634 3220 271 
Q 2806 -91 2034 -91 
Q 1263 -91 848 271 
Q 434 634 434 1313 
Q 434 1759 690 2068 
Q 947 2378 1403 2484 
z
M 1172 3481 
Q 1172 3119 1398 2916 
Q 1625 2713 2034 2713 
Q 2441 2713 2670 2916 
Q 2900 3119 2900 3481 
Q 2900 3844 2670 4047 
Q 2441 4250 2034 4250 
Q 1625 4250 1398 4047 
Q 1172 3844 1172 3481 
z
" transform="scale(0.015625)"/>
       </defs>
       <use xlink:href="#DejaVuSans-30"/>
       <use xlink:href="#DejaVuSans-2e" x="63.623047"/>
       <use xlink:href="#DejaVuSans-38" x="95.410156"/>
      </g>
     </g>
    </g>
    <g id="ytick_6">
     <g id="line2d_31">
      <path d="M 57.6 27.648 
L 360.8064 27.648 
" clip-path="url(#pb85bdd8dc5)" style="fill: none; stroke: #b0b0b0; stroke-width: 0.8; stroke-linecap: square"/>
     </g>
     <g id="line2d_32">
      <g>
       <use xlink:href="#m0caa4bd9b8" x="57.6" y="27.648" style="stroke: #000000; stroke-width: 0.8"/>
      </g>
     </g>
     <g id="text_11">
      <!-- 1.0 -->
      <g transform="translate(25.155 33.72675)scale(0.16 -0.16)">
       <use xlink:href="#DejaVuSans-31"/>
       <use xlink:href="#DejaVuSans-2e" x="63.623047"/>
       <use xlink:href="#DejaVuSans-30" x="95.410156"/>
      </g>
     </g>
    </g>
    <g id="text_12">
     <!-- Fraction of function,target pairs -->
     <g transform="translate(17.619531 297.681)rotate(-90)scale(0.17 -0.17)">
      <defs>
       <path id="DejaVuSans-46" d="M 628 4666 
L 3309 4666 
L 3309 4134 
L 1259 4134 
L 1259 2759 
L 3109 2759 
L 3109 2228 
L 1259 2228 
L 1259 0 
L 628 0 
L 628 4666 
z
" transform="scale(0.015625)"/>
       <path id="DejaVuSans-72" d="M 2631 2963 
Q 2534 3019 2420 3045 
Q 2306 3072 2169 3072 
Q 1681 3072 1420 2755 
Q 1159 2438 1159 1844 
L 1159 0 
L 581 0 
L 581 3500 
L 1159 3500 
L 1159 2956 
Q 1341 3275 1631 3429 
Q 1922 3584 2338 3584 
Q 2397 3584 2469 3576 
Q 2541 3569 2628 3553 
L 2631 2963 
z
" transform="scale(0.015625)"/>
       <path id="DejaVuSans-63" d="M 3122 3366 
L 3122 2828 
Q 2878 2963 2633 3030 
Q 2388 3097 2138 3097 
Q 1578 3097 1268 2742 
Q 959 2388 959 1747 
Q 959 1106 1268 751 
Q 1578 397 2138 397 
Q 2388 397 2633 464 
Q 2878 531 3122 666 
L 3122 134 
Q 2881 22 2623 -34 
Q 2366 -91 2075 -91 
Q 1284 -91 818 406 
Q 353 903 353 1747 
Q 353 2603 823 3093 
Q 1294 3584 2113 3584 
Q 2378 3584 2631 3529 
Q 2884 3475 3122 3366 
z
" transform="scale(0.015625)"/>
       <path id="DejaVuSans-74" d="M 1172 4494 
L 1172 3500 
L 2356 3500 
L 2356 3053 
L 1172 3053 
L 1172 1153 
Q 1172 725 1289 603 
Q 1406 481 1766 481 
L 2356 481 
L 2356 0 
L 1766 0 
Q 1100 0 847 248 
Q 594 497 594 1153 
L 594 3053 
L 172 3053 
L 172 3500 
L 594 3500 
L 594 4494 
L 1172 4494 
z
" transform="scale(0.015625)"/>
       <path id="DejaVuSans-75" d="M 544 1381 
L 544 3500 
L 1119 3500 
L 1119 1403 
Q 1119 906 1312 657 
Q 1506 409 1894 409 
Q 2359 409 2629 706 
Q 2900 1003 2900 1516 
L 2900 3500 
L 3475 3500 
L 3475 0 
L 2900 0 
L 2900 538 
Q 2691 219 2414 64 
Q 2138 -91 1772 -91 
Q 1169 -91 856 284 
Q 544 659 544 1381 
z
M 1991 3584 
L 1991 3584 
z
" transform="scale(0.015625)"/>
       <path id="DejaVuSans-2c" d="M 750 794 
L 1409 794 
L 1409 256 
L 897 -744 
L 494 -744 
L 750 256 
L 750 794 
z
" transform="scale(0.015625)"/>
       <path id="DejaVuSans-70" d="M 1159 525 
L 1159 -1331 
L 581 -1331 
L 581 3500 
L 1159 3500 
L 1159 2969 
Q 1341 3281 1617 3432 
Q 1894 3584 2278 3584 
Q 2916 3584 3314 3078 
Q 3713 2572 3713 1747 
Q 3713 922 3314 415 
Q 2916 -91 2278 -91 
Q 1894 -91 1617 61 
Q 1341 213 1159 525 
z
M 3116 1747 
Q 3116 2381 2855 2742 
Q 2594 3103 2138 3103 
Q 1681 3103 1420 2742 
Q 1159 2381 1159 1747 
Q 1159 1113 1420 752 
Q 1681 391 2138 391 
Q 2594 391 2855 752 
Q 3116 1113 3116 1747 
z
" transform="scale(0.015625)"/>
      </defs>
      <use xlink:href="#DejaVuSans-46"/>
      <use xlink:href="#DejaVuSans-72" x="50.269531"/>
      <use xlink:href="#DejaVuSans-61" x="91.382812"/>
      <use xlink:href="#DejaVuSans-63" x="152.662109"/>
      <use xlink:href="#DejaVuSans-74" x="207.642578"/>
      <use xlink:href="#DejaVuSans-69" x="246.851562"/>
      <use xlink:href="#DejaVuSans-6f" x="274.634766"/>
      <use xlink:href="#DejaVuSans-6e" x="335.816406"/>
      <use xlink:href="#DejaVuSans-20" x="399.195312"/>
      <use xlink:href="#DejaVuSans-6f" x="430.982422"/>
      <use xlink:href="#DejaVuSans-66" x="492.164062"/>
      <use xlink:href="#DejaVuSans-20" x="527.369141"/>
      <use xlink:href="#DejaVuSans-66" x="559.15625"/>
      <use xlink:href="#DejaVuSans-75" x="594.361328"/>
      <use xlink:href="#DejaVuSans-6e" x="657.740234"/>
      <use xlink:href="#DejaVuSans-63" x="721.119141"/>
      <use xlink:href="#DejaVuSans-74" x="776.099609"/>
      <use xlink:href="#DejaVuSans-69" x="815.308594"/>
      <use xlink:href="#DejaVuSans-6f" x="843.091797"/>
      <use xlink:href="#DejaVuSans-6e" x="904.273438"/>
      <use xlink:href="#DejaVuSans-2c" x="967.652344"/>
      <use xlink:href="#DejaVuSans-74" x="999.439453"/>
      <use xlink:href="#DejaVuSans-61" x="1038.648438"/>
      <use xlink:href="#DejaVuSans-72" x="1099.927734"/>
      <use xlink:href="#DejaVuSans-67" x="1139.291016"/>
      <use xlink:href="#DejaVuSans-65" x="1202.767578"/>
      <use xlink:href="#DejaVuSans-74" x="1264.291016"/>
      <use xlink:href="#DejaVuSans-20" x="1303.5"/>
      <use xlink:href="#DejaVuSans-70" x="1335.287109"/>
      <use xlink:href="#DejaVuSans-61" x="1398.763672"/>
      <use xlink:href="#DejaVuSans-69" x="1460.042969"/>
      <use xlink:href="#DejaVuSans-72" x="1487.826172"/>
      <use xlink:href="#DejaVuSans-73" x="1528.939453"/>
     </g>
    </g>
   </g>
   <g id="line2d_33">
    <defs>
     <path id="m1e40ec8da9" d="M 0 1.5 
C 0.397805 1.5 0.77937 1.341951 1.06066 1.06066 
C 1.341951 0.77937 1.5 0.397805 1.5 0 
C 1.5 -0.397805 1.341951 -0.77937 1.06066 -1.06066 
C 0.77937 -1.341951 0.397805 -1.5 0 -1.5 
C -0.397805 -1.5 -0.77937 -1.341951 -1.06066 -1.06066 
C -1.341951 -0.77937 -1.5 -0.397805 -1.5 0 
C -1.5 0.397805 -1.341951 0.77937 -1.06066 1.06066 
C -0.77937 1.341951 -0.397805 1.5 0 1.5 
z
" style="stroke: #f5deb3"/>
    </defs>
    <g>
     <use xlink:href="#m1e40ec8da9" x="194.72889" y="27.648" style="fill: #f5deb3; stroke: #f5deb3"/>
     <use xlink:href="#m1e40ec8da9" x="194.72889" y="27.648" style="fill: #f5deb3; stroke: #f5deb3"/>
    </g>
   </g>
   <g id="line2d_34">
    <defs>
     <path id="m7b14e495cf" d="M 0 1.5 
C 0.397805 1.5 0.77937 1.341951 1.06066 1.06066 
C 1.341951 0.77937 1.5 0.397805 1.5 0 
C 1.5 -0.397805 1.341951 -0.77937 1.06066 -1.06066 
C 0.77937 -1.341951 0.397805 -1.5 0 -1.5 
C -0.397805 -1.5 -0.77937 -1.341951 -1.06066 -1.06066 
C -1.341951 -0.77937 -1.5 -0.397805 -1.5 0 
C -1.5 0.397805 -1.341951 0.77937 -1.06066 1.06066 
C -0.77937 1.341951 -0.397805 1.5 0 1.5 
z
" style="stroke: #000080"/>
    </defs>
    <g>
     <use xlink:href="#m7b14e495cf" x="360.702138" y="27.648" style="fill: #000080; stroke: #000080"/>
     <use xlink:href="#m7b14e495cf" x="360.702138" y="27.648" style="fill: #000080; stroke: #000080"/>
    </g>
   </g>
   <g id="line2d_35">
    <path d="M 44.560826 298.944 
L 44.560826 293.624471 
L 57.6 293.624471 
L 57.6 290.078118 
L 65.227428 290.078118 
L 65.227428 287.241035 
L 70.639174 287.241035 
L 70.639174 285.113224 
L 78.266603 285.113224 
L 78.266603 282.985412 
L 81.166416 282.985412 
L 81.166416 282.276141 
L 83.678349 282.276141 
L 83.678349 278.020518 
L 85.894031 278.020518 
L 85.894031 277.665882 
L 89.668958 277.665882 
L 89.668958 277.311247 
L 92.811505 277.311247 
L 92.811505 275.538071 
L 94.205591 275.538071 
L 94.205591 273.410259 
L 95.503454 273.410259 
L 95.503454 271.991718 
L 98.933205 271.991718 
L 98.933205 271.637082 
L 103.544339 271.637082 
L 103.544339 271.282447 
L 104.344952 271.282447 
L 104.344952 270.573176 
L 107.244765 270.573176 
L 107.244765 270.218541 
L 109.159456 270.218541 
L 109.159456 269.509271 
L 111.97238 269.509271 
L 111.97238 268.8 
L 121.892744 268.8 
L 121.892744 268.445365 
L 124.210942 268.445365 
L 124.210942 268.090729 
L 125.271028 268.090729 
L 125.271028 267.736094 
L 125.526971 267.736094 
L 125.526971 266.317553 
L 125.779479 266.317553 
L 125.779479 264.899012 
L 126.028642 264.899012 
L 126.028642 264.544376 
L 126.756923 264.544376 
L 126.756923 264.189741 
L 128.354013 264.189741 
L 128.354013 263.480471 
L 130.4233 263.480471 
L 130.4233 263.125835 
L 130.811181 263.125835 
L 130.811181 262.7712 
L 131.378407 262.7712 
L 131.378407 262.416565 
L 132.812362 262.416565 
L 132.812362 262.061929 
L 137.113304 262.061929 
L 137.113304 261.352659 
L 143.364242 261.352659 
L 143.364242 260.643388 
L 143.657415 260.643388 
L 143.657415 260.288753 
L 146.193574 260.288753 
L 146.193574 259.934118 
L 146.612557 259.934118 
L 146.612557 259.579482 
L 150.083698 259.579482 
L 150.083698 258.515576 
L 155.077392 258.515576 
L 155.077392 257.806306 
L 156.745011 257.806306 
L 156.745011 257.451671 
L 157.642093 257.451671 
L 157.642093 257.097035 
L 158.276759 257.097035 
L 158.276759 255.678494 
L 160.102084 255.678494 
L 160.102084 254.969224 
L 160.933013 254.969224 
L 160.933013 254.614588 
L 161.617145 254.614588 
L 161.617145 254.259953 
L 162.096211 254.259953 
L 162.096211 253.196047 
L 162.241195 253.196047 
L 162.31327 252.132141 
L 162.527853 252.132141 
L 162.527853 250.004329 
L 162.704821 250.004329 
L 162.704821 249.649694 
L 163.157294 249.649694 
L 163.260183 248.231153 
L 163.498092 248.231153 
L 163.498092 247.167247 
L 163.632702 247.167247 
L 163.632702 246.812612 
L 163.832826 246.812612 
L 163.832826 246.103341 
L 164.356312 246.103341 
L 164.356312 245.748706 
L 164.771172 245.748706 
L 164.865624 245.039435 
L 165.021997 245.039435 
L 165.1152 243.975529 
L 165.422585 243.975529 
L 165.422585 243.620894 
L 165.725029 243.620894 
L 165.784938 242.202353 
L 166.199045 242.202353 
L 166.199045 241.493082 
L 166.489353 241.493082 
L 166.546881 240.429176 
L 166.661411 240.429176 
L 166.661411 239.010635 
L 166.860176 239.010635 
L 166.860176 238.656 
L 167.334325 238.656 
L 167.444174 237.592094 
L 167.607754 237.592094 
L 167.607754 237.237459 
L 167.796816 237.237459 
L 167.904005 236.173553 
L 167.957371 236.173553 
L 168.010586 235.109647 
L 168.378936 235.109647 
L 168.378936 234.400376 
L 168.663377 234.400376 
L 168.765753 232.981835 
L 169.144777 232.981835 
L 169.244573 231.917929 
L 170.09592 231.917929 
L 170.09592 231.563294 
L 170.93316 231.563294 
L 170.93316 231.208659 
L 171.647326 231.208659 
L 171.647326 229.790118 
L 172.876446 229.790118 
L 172.896949 228.726212 
L 173.48202 228.726212 
L 173.48202 226.953035 
L 173.933441 226.953035 
L 173.933441 226.5984 
L 174.298352 226.5984 
L 174.298352 225.889129 
L 177.233457 225.889129 
L 177.233457 225.179859 
L 184.979843 225.179859 
L 184.979843 224.825224 
L 186.894881 224.825224 
L 186.894881 224.470588 
L 188.739083 224.470588 
L 188.739083 223.761318 
L 189.836378 223.761318 
L 189.836378 222.697412 
L 190.337611 222.697412 
L 190.337611 222.342776 
L 190.904676 222.342776 
L 190.904676 221.988141 
L 191.945352 221.988141 
L 191.945352 221.278871 
L 193.42644 221.278871 
L 193.42644 220.924235 
L 193.720003 220.924235 
L 193.720003 220.5696 
L 194.812169 220.5696 
L 194.812169 220.214965 
L 197.321705 220.214965 
L 197.321705 219.860329 
L 208.259173 219.860329 
L 208.259173 219.151059 
L 217.057619 219.151059 
L 217.057619 218.796424 
L 257.710159 218.796424 
L 257.710159 217.732518 
L 257.832317 217.732518 
L 257.907065 213.122259 
L 257.998861 213.122259 
L 257.998861 212.767624 
L 258.30836 212.767624 
L 258.30836 212.412988 
L 258.635639 212.412988 
L 258.635639 211.349082 
L 258.766467 211.349082 
L 258.816543 209.575906 
L 258.889396 209.575906 
L 258.889396 209.221271 
L 259.035943 209.221271 
L 259.041201 206.384188 
L 259.167159 206.384188 
L 259.167159 205.320282 
L 259.616278 205.320282 
L 259.661705 204.611012 
L 259.899666 204.611012 
L 259.899666 204.256376 
L 260.05871 204.256376 
L 260.05871 202.4832 
L 260.413916 202.4832 
L 260.413916 202.128565 
L 260.557246 202.128565 
L 260.55744 201.419294 
L 260.962009 201.419294 
L 260.962009 201.064659 
L 261.176101 201.064659 
L 261.242063 200.355388 
L 261.426168 200.355388 
L 261.426168 200.000753 
L 261.773971 200.000753 
L 261.775062 198.936847 
L 270.481446 198.936847 
L 270.50867 197.518306 
L 272.630554 197.518306 
L 272.630554 197.163671 
L 273.141759 197.163671 
L 273.141759 196.809035 
L 274.232725 196.809035 
L 274.268794 194.326588 
L 274.387285 194.326588 
L 274.489686 192.553412 
L 275.058133 192.553412 
L 275.058133 192.198776 
L 280.766504 192.198776 
L 280.787232 187.943153 
L 281.046016 187.943153 
L 281.130496 182.623624 
L 281.400015 182.623624 
L 281.450877 181.205082 
L 281.612212 181.205082 
L 281.612212 180.850447 
L 281.745336 180.850447 
L 281.838573 179.786541 
L 281.900371 179.786541 
L 281.900371 179.431906 
L 282.018217 179.431906 
L 282.018217 178.368 
L 285.464028 178.368 
L 285.470737 177.658729 
L 286.458318 177.658729 
L 286.458318 177.304094 
L 286.705161 177.304094 
L 286.705161 176.949459 
L 287.255529 176.949459 
L 287.321114 174.821647 
L 287.372671 174.821647 
L 287.372671 174.467012 
L 287.495947 174.467012 
L 287.495947 173.757741 
L 287.661411 173.757741 
L 287.661411 173.403106 
L 290.79758 173.403106 
L 290.825742 168.792847 
L 290.938513 168.792847 
L 291.035072 164.537224 
L 291.126936 164.537224 
L 291.202114 160.990871 
L 291.378017 160.990871 
L 291.471077 159.926965 
L 291.542018 159.926965 
L 291.542242 158.863059 
L 294.504134 158.863059 
L 294.504134 158.508424 
L 294.869515 158.508424 
L 294.873585 157.089882 
L 295.030249 157.089882 
L 295.030249 156.735247 
L 297.305 156.735247 
L 297.313607 155.316706 
L 297.427961 155.316706 
L 297.532576 153.188894 
L 297.592131 153.188894 
L 297.660704 151.415718 
L 297.717542 151.415718 
L 297.784024 149.642541 
L 297.834769 149.642541 
L 297.834769 148.933271 
L 300.276604 148.933271 
L 300.27759 147.869365 
L 302.131233 147.869365 
L 302.22591 145.741553 
L 302.248384 145.741553 
L 302.353246 142.904471 
L 302.391066 142.904471 
L 302.474399 141.840565 
L 302.5024 141.840565 
L 302.542025 140.422024 
L 305.967781 140.422024 
L 306.07418 135.102494 
L 306.111695 135.102494 
L 306.193018 130.492235 
L 306.248532 130.492235 
L 306.254549 129.782965 
L 307.897275 129.782965 
L 307.897275 129.428329 
L 309.155962 129.428329 
L 309.234336 126.236612 
L 309.295174 126.236612 
L 309.395621 121.271718 
L 309.437376 121.271718 
L 309.437376 120.562447 
L 311.876908 120.562447 
L 311.984631 117.725365 
L 311.99946 117.725365 
L 312.098882 114.533647 
L 312.122608 114.533647 
L 312.122683 113.469741 
L 313.320064 113.469741 
L 313.320064 113.115106 
L 314.255363 113.115106 
L 314.350324 109.923388 
L 314.37223 109.923388 
L 314.451111 107.086306 
L 315.518797 107.086306 
L 315.519538 106.377035 
L 316.366321 106.377035 
L 316.471065 101.766776 
L 316.517133 101.766776 
L 316.56043 99.9936 
L 318.266019 99.9936 
L 318.375217 95.383341 
L 318.38183 95.383341 
L 318.439907 94.319435 
L 319.292425 94.319435 
L 319.303439 93.610165 
L 319.989818 93.610165 
L 320.095508 90.418447 
L 320.124927 90.418447 
L 320.124927 90.063812 
L 320.928138 90.063812 
L 320.928138 89.709176 
L 321.569383 89.709176 
L 321.666041 85.098918 
L 321.690449 85.098918 
L 321.714826 84.035012 
L 323.024377 84.035012 
L 323.11549 78.715482 
L 323.16062 78.715482 
L 323.160662 77.651576 
L 324.412379 77.651576 
L 324.503221 74.459859 
L 325.124829 74.459859 
L 325.124829 74.105224 
L 325.639149 74.105224 
L 325.73886 71.268141 
L 325.756385 71.268141 
L 325.756385 70.204235 
L 326.821414 70.204235 
L 326.906287 68.076424 
L 327.961696 68.076424 
L 328.036981 65.948612 
L 328.985521 65.948612 
L 329.04462 63.466165 
L 330.003189 63.466165 
L 330.070746 61.692988 
L 330.949214 61.692988 
L 331.001991 59.210541 
L 331.844663 59.210541 
L 331.90593 56.018824 
L 332.701935 56.018824 
L 332.73029 54.245647 
L 333.502484 54.245647 
L 333.541772 51.7632 
L 334.307491 51.7632 
L 334.361251 49.635388 
L 335.063866 49.635388 
L 335.089379 48.571482 
L 335.804399 48.571482 
L 335.836403 47.507576 
L 336.486952 47.507576 
L 336.517819 45.379765 
L 337.14058 45.379765 
L 337.198011 43.251953 
L 337.791094 43.251953 
L 337.823867 41.124141 
L 338.451559 41.124141 
L 338.451559 40.414871 
L 339.052421 40.414871 
L 339.085923 38.996329 
L 339.6451 38.996329 
L 339.673515 38.287059 
L 340.243308 38.287059 
L 340.243308 37.932424 
L 340.758179 37.932424 
L 340.796348 37.223153 
L 341.316411 37.223153 
L 341.316413 36.513882 
L 342.841336 36.513882 
L 342.848289 35.804612 
L 343.314955 35.804612 
L 343.319655 34.740706 
L 344.226165 34.740706 
L 344.269897 34.031435 
L 344.693293 34.031435 
L 344.703279 33.322165 
L 345.986824 33.322165 
L 345.986824 32.967529 
L 346.39592 32.967529 
L 346.409025 32.258259 
L 347.934762 32.258259 
L 347.960833 31.548988 
L 348.687821 31.548988 
L 348.687821 31.194353 
L 349.042715 31.194353 
L 349.042715 30.839718 
L 349.383127 30.839718 
L 349.383127 30.485082 
L 350.049772 30.485082 
L 350.057054 29.421176 
L 350.387251 29.421176 
L 350.391403 28.711906 
L 352.831711 28.711906 
L 352.831711 28.357271 
L 356.245983 28.357271 
L 356.245983 28.002635 
L 360.702138 28.002635 
L 360.702138 27.648 
L 360.8064 27.648 
" style="fill: none; stroke: #000080; stroke-width: 1.5; stroke-linecap: square"/>
   </g>
   <g id="line2d_36">
    <defs>
     <path id="m21798ff8d8" d="M 0 6 
C 1.591219 6 3.117479 5.367802 4.242641 4.242641 
C 5.367802 3.117479 6 1.591219 6 0 
C 6 -1.591219 5.367802 -3.117479 4.242641 -4.242641 
C 3.117479 -5.367802 1.591219 -6 0 -6 
C -1.591219 -6 -3.117479 -5.367802 -4.242641 -4.242641 
C -5.367802 -3.117479 -6 -1.591219 -6 0 
C -6 1.591219 -5.367802 3.117479 -4.242641 4.242641 
C -3.117479 5.367802 -1.591219 6 0 6 
z
" style="stroke: #000080; stroke-width: 1.5"/>
    </defs>
    <g>
     <use xlink:href="#m21798ff8d8" x="163.157294" y="249.295059" style="fill-opacity: 0; stroke: #000080; stroke-width: 1.5"/>
     <use xlink:href="#m21798ff8d8" x="217.057619" y="218.796424" style="fill-opacity: 0; stroke: #000080; stroke-width: 1.5"/>
     <use xlink:href="#m21798ff8d8" x="297.660704" y="151.415718" style="fill-opacity: 0; stroke: #000080; stroke-width: 1.5"/>
     <use xlink:href="#m21798ff8d8" x="352.831711" y="28.357271" style="fill-opacity: 0; stroke: #000080; stroke-width: 1.5"/>
     <use xlink:href="#m21798ff8d8" x="360.702138" y="27.648" style="fill-opacity: 0; stroke: #000080; stroke-width: 1.5"/>
     <use xlink:href="#m21798ff8d8" x="360.8064" y="27.648" style="fill-opacity: 0; stroke: #000080; stroke-width: 1.5"/>
    </g>
   </g>
   <g id="line2d_37">
    <path style="fill: none; stroke: #000080; stroke-width: 1.5; stroke-linecap: square"/>
    <g/>
   </g>
   <g id="line2d_38">
    <path d="M 274.176 196.809035 
" clip-path="url(#pb85bdd8dc5)" style="fill: none; stroke: #000080; stroke-width: 1.5; stroke-linecap: square"/>
    <defs>
     <path id="m6be358d595" d="M -12 12 
L 12 -12 
M -12 -12 
L 12 12 
" style="stroke: #000080"/>
    </defs>
    <g clip-path="url(#pb85bdd8dc5)">
     <use xlink:href="#m6be358d595" x="274.176" y="196.809035" style="fill: #000080; stroke: #000080"/>
    </g>
   </g>
   <g id="line2d_39">
    <defs>
     <path id="md7b4120a64" d="M 0 1.5 
C 0.397805 1.5 0.77937 1.341951 1.06066 1.06066 
C 1.341951 0.77937 1.5 0.397805 1.5 0 
C 1.5 -0.397805 1.341951 -0.77937 1.06066 -1.06066 
C 0.77937 -1.341951 0.397805 -1.5 0 -1.5 
C -0.397805 -1.5 -0.77937 -1.341951 -1.06066 -1.06066 
C -1.341951 -0.77937 -1.5 -0.397805 -1.5 0 
C -1.5 0.397805 -1.341951 0.77937 -1.06066 1.06066 
C -0.77937 1.341951 -0.397805 1.5 0 1.5 
z
" style="stroke: #ff00ff"/>
    </defs>
    <g>
     <use xlink:href="#md7b4120a64" x="257.114686" y="27.648" style="fill: #ff00ff; stroke: #ff00ff"/>
     <use xlink:href="#md7b4120a64" x="257.114686" y="27.648" style="fill: #ff00ff; stroke: #ff00ff"/>
    </g>
   </g>
   <g id="line2d_40">
    <path d="M 44.560826 298.944 
L 44.560826 294.333741 
L 126.517282 294.333741 
L 126.517282 291.496659 
L 127.686077 291.496659 
L 127.686077 284.049318 
L 128.133992 284.049318 
L 128.133992 279.793694 
L 128.354013 279.793694 
L 128.354013 273.410259 
L 130.027253 273.410259 
L 130.027253 267.736094 
L 130.618241 267.736094 
L 130.618241 262.7712 
L 131.191226 262.7712 
L 131.191226 257.806306 
L 143.265494 257.806306 
L 143.265494 255.323859 
L 143.850356 255.323859 
L 143.850356 252.841412 
L 144.2304 252.841412 
L 144.2304 250.7136 
L 150.760445 250.7136 
L 150.760445 250.358965 
L 157.269574 250.358965 
L 157.269574 248.585788 
L 158.976805 248.585788 
L 158.976805 248.231153 
L 160.343261 248.231153 
L 160.343261 247.876518 
L 162.740015 247.876518 
L 162.740015 247.521882 
L 162.915008 247.521882 
L 162.915008 247.167247 
L 173.18167 247.167247 
L 173.18167 245.748706 
L 177.936177 245.748706 
L 177.936177 245.394071 
L 178.09229 245.394071 
L 178.09229 245.039435 
L 179.441905 245.039435 
L 179.441905 243.975529 
L 180.44223 243.975529 
L 180.44223 243.620894 
L 183.324394 243.620894 
L 183.347923 242.911624 
L 185.563605 242.911624 
L 185.563605 241.847718 
L 185.90536 241.847718 
L 185.90536 241.493082 
L 187.723466 241.493082 
L 187.723466 241.138447 
L 188.6506 241.138447 
L 188.6506 240.783812 
L 189.828049 240.783812 
L 189.828049 240.429176 
L 190.698996 240.429176 
L 190.698996 238.656 
L 192.481079 238.656 
L 192.481079 238.301365 
L 193.821341 238.301365 
L 193.875165 237.237459 
L 196.387098 237.237459 
L 196.387098 236.173553 
L 196.965961 236.173553 
L 196.965961 235.818918 
L 197.588304 235.818918 
L 197.588304 235.464282 
L 200.108507 235.464282 
L 200.108507 235.109647 
L 200.584774 235.109647 
L 200.584774 234.755012 
L 201.502593 234.755012 
L 201.502593 232.981835 
L 201.945238 232.981835 
L 201.945238 232.272565 
L 202.800456 232.272565 
L 202.800456 231.563294 
L 204.014526 231.563294 
L 204.014526 230.854024 
L 204.402407 230.854024 
L 204.402407 229.790118 
L 204.559155 229.790118 
L 204.559155 229.435482 
L 204.691938 229.435482 
L 204.782451 228.016941 
L 205.006846 228.016941 
L 205.006846 227.307671 
L 205.465911 227.307671 
L 205.465911 226.5984 
L 205.736067 226.5984 
L 205.793202 225.534494 
L 206.469055 225.534494 
L 206.469055 224.115953 
L 207.270384 224.115953 
L 207.270384 223.761318 
L 208.713379 223.761318 
L 208.713379 223.406682 
L 208.95302 223.406682 
L 208.95302 223.052047 
L 209.085178 223.052047 
L 209.085178 222.697412 
L 209.484967 222.697412 
L 209.484967 221.988141 
L 210.461297 221.988141 
L 210.461297 221.633506 
L 210.895789 221.633506 
L 210.895789 221.278871 
L 211.748772 221.278871 
L 211.798067 220.5696 
L 211.919458 220.5696 
L 211.919458 218.796424 
L 212.078401 218.796424 
L 212.175158 217.377882 
L 212.459977 217.377882 
L 212.564749 216.668612 
L 212.582154 216.668612 
L 212.582154 216.313976 
L 212.760253 216.313976 
L 212.760253 215.959341 
L 213.004848 215.959341 
L 213.089711 214.5408 
L 213.296618 214.5408 
L 213.296618 214.186165 
L 213.677955 214.186165 
L 213.764509 212.767624 
L 214.2256 212.767624 
L 214.2256 212.058353 
L 214.557437 212.058353 
L 214.557437 211.703718 
L 214.711202 211.703718 
L 214.731166 210.994447 
L 215.251556 210.994447 
L 215.251556 210.285176 
L 215.384789 210.285176 
L 215.384789 209.930541 
L 215.644233 209.930541 
L 215.644233 208.866635 
L 215.997817 208.866635 
L 216.070221 206.738824 
L 216.175227 206.738824 
L 216.267396 205.320282 
L 216.336736 205.320282 
L 216.393648 204.256376 
L 216.697635 204.256376 
L 216.739525 203.192471 
L 216.896281 203.192471 
L 216.97909 201.064659 
L 217.075243 201.064659 
L 217.075243 200.710024 
L 217.462684 200.710024 
L 217.462684 200.355388 
L 217.653453 200.355388 
L 217.746228 198.936847 
L 217.793387 198.936847 
L 217.793387 198.227576 
L 217.980848 198.227576 
L 218.04602 197.163671 
L 218.166459 197.163671 
L 218.166459 196.4544 
L 218.32097 196.4544 
L 218.32097 195.390494 
L 218.532276 195.390494 
L 218.532276 194.681224 
L 219.027463 194.681224 
L 219.027463 193.971953 
L 219.340661 193.971953 
L 219.340661 193.617318 
L 219.460012 193.617318 
L 219.460012 192.908047 
L 219.631652 192.908047 
L 219.631652 192.553412 
L 219.796659 192.553412 
L 219.796659 192.198776 
L 220.220349 192.198776 
L 220.304613 191.489506 
L 220.383578 191.489506 
L 220.467115 190.4256 
L 220.624985 190.4256 
L 220.624985 189.716329 
L 220.840915 189.716329 
L 220.871333 188.652424 
L 221.191713 188.652424 
L 221.262347 187.233882 
L 221.424584 187.233882 
L 221.498993 184.3968 
L 221.731171 184.3968 
L 221.821117 182.623624 
L 221.884885 182.623624 
L 221.884885 182.268988 
L 222.029834 182.268988 
L 222.029834 181.914353 
L 222.18412 181.914353 
L 222.18412 181.559718 
L 222.480138 181.559718 
L 222.480138 180.850447 
L 222.671535 180.850447 
L 222.671535 180.495812 
L 222.843727 180.495812 
L 222.929953 178.368 
L 223.054283 178.368 
L 223.077059 176.949459 
L 223.196182 176.949459 
L 223.196182 176.594824 
L 223.40984 176.594824 
L 223.48238 175.176282 
L 223.524104 175.176282 
L 223.61557 173.757741 
L 223.758802 173.757741 
L 223.847772 172.693835 
L 223.890056 172.693835 
L 223.911843 171.984565 
L 224.025811 171.984565 
L 224.071746 170.920659 
L 224.206201 170.920659 
L 224.298418 169.502118 
L 224.376913 169.502118 
L 224.432592 167.019671 
L 224.518439 167.019671 
L 224.559243 166.3104 
L 224.728099 166.3104 
L 224.728099 165.955765 
L 224.921265 165.955765 
L 224.966354 163.118682 
L 225.304276 163.118682 
L 225.304276 162.409412 
L 228.387526 162.409412 
L 228.387526 161.700141 
L 230.41923 161.700141 
L 230.515276 160.636235 
L 230.607021 160.636235 
L 230.607021 160.2816 
L 230.89463 160.2816 
L 230.89463 159.217694 
L 231.189004 159.217694 
L 231.189004 158.863059 
L 231.448781 158.863059 
L 231.539724 157.089882 
L 232.194121 157.089882 
L 232.194121 156.735247 
L 232.455167 156.735247 
L 232.526754 155.671341 
L 232.983448 155.671341 
L 233.067283 153.188894 
L 233.271939 153.188894 
L 233.382489 151.415718 
L 233.394001 151.415718 
L 233.43424 148.933271 
L 233.686835 148.933271 
L 233.775657 145.741553 
L 233.800613 145.741553 
L 233.885697 144.677647 
L 233.98315 144.677647 
L 233.98315 144.323012 
L 234.160775 144.323012 
L 234.266238 141.485929 
L 234.277222 141.485929 
L 234.277222 141.131294 
L 234.392952 141.131294 
L 234.471523 139.358118 
L 234.515721 139.358118 
L 234.532752 137.230306 
L 234.665375 137.230306 
L 234.763468 134.393224 
L 234.791728 134.393224 
L 234.791728 134.038588 
L 235.019308 134.038588 
L 235.10357 133.329318 
L 235.169513 133.329318 
L 235.169513 132.974682 
L 235.311847 132.974682 
L 235.311847 132.620047 
L 235.478149 132.620047 
L 235.512703 131.910776 
L 235.968411 131.910776 
L 235.98346 130.1376 
L 236.126189 130.1376 
L 236.126189 129.073694 
L 236.341084 129.073694 
L 236.411239 127.300518 
L 236.460892 127.300518 
L 236.484622 126.236612 
L 236.604909 126.236612 
L 236.604909 125.881976 
L 236.740952 125.881976 
L 236.740952 124.463435 
L 236.976177 124.463435 
L 236.976177 123.754165 
L 237.096071 123.754165 
L 237.195739 121.980988 
L 237.297554 121.980988 
L 237.356248 120.207812 
L 237.418743 120.207812 
L 237.477723 116.306824 
L 237.530581 116.306824 
L 237.616817 114.888282 
L 237.64766 114.888282 
L 237.74315 112.760471 
L 237.792667 112.760471 
L 237.891957 109.568753 
L 237.935272 109.568753 
L 238.010675 106.731671 
L 238.063982 106.731671 
L 238.138872 105.667765 
L 238.177161 105.667765 
L 238.191818 104.958494 
L 240.246355 104.958494 
L 240.246355 104.249224 
L 240.753451 104.249224 
L 240.753451 102.121412 
L 240.880327 102.121412 
L 240.934913 100.702871 
L 241.084077 100.702871 
L 241.193006 99.9936 
L 241.203865 99.9936 
L 241.262392 98.220424 
L 241.370297 98.220424 
L 241.370297 97.511153 
L 241.542201 97.511153 
L 241.632608 96.801882 
L 241.738416 96.801882 
L 241.738416 95.383341 
L 241.911708 95.383341 
L 241.911708 95.028706 
L 242.211953 95.028706 
L 242.248956 93.9648 
L 242.365655 93.9648 
L 242.427295 92.900894 
L 242.604967 92.900894 
L 242.604967 92.191624 
L 242.843262 92.191624 
L 242.91922 90.418447 
L 243.018052 90.418447 
L 243.12519 88.999906 
L 243.165332 88.999906 
L 243.271637 87.936 
L 243.312439 87.936 
L 243.320201 87.226729 
L 243.430941 87.226729 
L 243.430941 85.808188 
L 243.553492 85.808188 
L 243.613754 85.098918 
L 243.763094 85.098918 
L 243.851001 83.680376 
L 244.042868 83.680376 
L 244.042868 83.325741 
L 244.299216 83.325741 
L 244.299216 82.971106 
L 244.454195 82.971106 
L 244.454195 82.616471 
L 244.614701 82.616471 
L 244.714494 80.488659 
L 244.811522 80.488659 
L 244.811522 79.779388 
L 244.92899 79.779388 
L 245.021818 76.587671 
L 245.071376 76.587671 
L 245.166584 74.459859 
L 245.218832 74.459859 
L 245.3085 70.558871 
L 245.389488 70.558871 
L 245.480078 67.367153 
L 245.562485 67.367153 
L 245.562485 66.657882 
L 245.988143 66.657882 
L 245.988143 66.303247 
L 247.629485 66.303247 
L 247.734108 65.239341 
L 247.810666 65.239341 
L 247.810666 64.884706 
L 247.984063 64.884706 
L 248.00071 64.175435 
L 248.164876 64.175435 
L 248.265825 61.692988 
L 248.41217 61.692988 
L 248.41217 61.338353 
L 248.527623 61.338353 
L 248.636888 58.501271 
L 248.716056 58.501271 
L 248.778934 56.018824 
L 248.854978 56.018824 
L 248.891082 55.309553 
L 249.066997 55.309553 
L 249.104479 53.181741 
L 249.257206 53.181741 
L 249.327821 50.344659 
L 249.370064 50.344659 
L 249.475256 48.571482 
L 249.607661 48.571482 
L 249.607661 48.216847 
L 249.943864 48.216847 
L 250.045905 46.798306 
L 250.079796 46.798306 
L 250.079796 46.089035 
L 250.447959 46.089035 
L 250.481797 44.670494 
L 250.719919 44.670494 
L 250.806448 43.606588 
L 250.939543 43.606588 
L 251.034728 42.897318 
L 251.066885 42.897318 
L 251.066885 42.188047 
L 251.261544 42.188047 
L 251.293316 41.124141 
L 251.482829 41.124141 
L 251.482829 40.769506 
L 251.825388 40.769506 
L 251.825388 40.414871 
L 251.948424 40.414871 
L 251.979058 39.7056 
L 252.596004 39.7056 
L 252.702044 38.287059 
L 253.006196 38.287059 
L 253.006196 37.932424 
L 253.235778 37.932424 
L 253.235778 37.223153 
L 253.450991 37.223153 
L 253.480971 36.159247 
L 253.56556 36.159247 
L 253.604344 35.449976 
L 253.730539 35.449976 
L 253.815404 34.740706 
L 253.897125 34.740706 
L 253.982894 33.322165 
L 254.063618 33.322165 
L 254.063618 32.258259 
L 254.721586 32.258259 
L 254.721586 31.903624 
L 254.868111 31.903624 
L 254.92054 31.194353 
L 255.023661 31.194353 
L 255.023661 30.839718 
L 255.153387 30.839718 
L 255.179225 29.066541 
L 256.471562 29.066541 
L 256.495653 28.357271 
L 256.758635 28.357271 
L 256.758635 28.002635 
L 257.114686 28.002635 
L 257.114686 27.648 
L 360.8064 27.648 
L 360.8064 27.648 
" style="fill: none; stroke: #ff00ff; stroke-width: 1.5; stroke-linecap: square"/>
   </g>
   <g id="line2d_41">
    <defs>
     <path id="m243471b045" d="M 0 8.485281 
L 5.091169 0 
L 0 -8.485281 
L -5.091169 0 
z
" style="stroke: #ff00ff; stroke-width: 1.5; stroke-linejoin: miter"/>
    </defs>
    <g>
     <use xlink:href="#m243471b045" x="200.108507" y="235.464282" style="fill-opacity: 0; stroke: #ff00ff; stroke-width: 1.5; stroke-linejoin: miter"/>
     <use xlink:href="#m243471b045" x="237.425379" y="119.853176" style="fill-opacity: 0; stroke: #ff00ff; stroke-width: 1.5; stroke-linejoin: miter"/>
     <use xlink:href="#m243471b045" x="257.114686" y="28.002635" style="fill-opacity: 0; stroke: #ff00ff; stroke-width: 1.5; stroke-linejoin: miter"/>
     <use xlink:href="#m243471b045" x="257.114686" y="27.648" style="fill-opacity: 0; stroke: #ff00ff; stroke-width: 1.5; stroke-linejoin: miter"/>
     <use xlink:href="#m243471b045" x="360.8064" y="27.648" style="fill-opacity: 0; stroke: #ff00ff; stroke-width: 1.5; stroke-linejoin: miter"/>
    </g>
   </g>
   <g id="line2d_42">
    <path style="fill: none; stroke: #ff00ff; stroke-width: 1.5; stroke-linecap: square"/>
    <g/>
   </g>
   <g id="line2d_43">
    <path d="M 360.8064 27.648 
L 380.514816 293.51808 
" style="fill: none; stroke: #000080; stroke-width: 1.5; stroke-linecap: square"/>
    <g>
     <use xlink:href="#m21798ff8d8" x="360.8064" y="27.648" style="fill-opacity: 0; stroke: #000080; stroke-width: 1.5"/>
     <use xlink:href="#m21798ff8d8" x="380.514816" y="293.51808" style="fill-opacity: 0; stroke: #000080; stroke-width: 1.5"/>
    </g>
   </g>
   <g id="line2d_44">
    <path d="M 360.8064 27.648 
L 380.514816 163.296 
" style="fill: none; stroke: #ff00ff; stroke-width: 1.5; stroke-linecap: square"/>
    <g>
     <use xlink:href="#m243471b045" x="360.8064" y="27.648" style="fill-opacity: 0; stroke: #ff00ff; stroke-width: 1.5; stroke-linejoin: miter"/>
     <use xlink:href="#m243471b045" x="380.514816" y="163.296" style="fill-opacity: 0; stroke: #ff00ff; stroke-width: 1.5; stroke-linejoin: miter"/>
    </g>
   </g>
   <g id="line2d_45">
    <path d="M 360.8064 298.944 
L 360.8064 27.648 
" style="fill: none; stroke: #000000; stroke-width: 1.5; stroke-linecap: square"/>
   </g>
   <g id="patch_3">
    <path d="M 57.6 298.944 
L 360.8064 298.944 
" style="fill: none; stroke: #000000; stroke-width: 0.8; stroke-linejoin: miter; stroke-linecap: square"/>
   </g>
   <g id="patch_4">
    <path d="M 57.6 27.648 
L 360.8064 27.648 
" style="fill: none; stroke: #000000; stroke-width: 0.8; stroke-linejoin: miter; stroke-linecap: square"/>
   </g>
   <g id="text_13">
    <!-- LCGA -->
    <g transform="translate(386.578944 297.381205)scale(0.14 -0.14)">
     <defs>
      <path id="DejaVuSans-4c" d="M 628 4666 
L 1259 4666 
L 1259 531 
L 3531 531 
L 3531 0 
L 628 0 
L 628 4666 
z
" transform="scale(0.015625)"/>
      <path id="DejaVuSans-43" d="M 4122 4306 
L 4122 3641 
Q 3803 3938 3442 4084 
Q 3081 4231 2675 4231 
Q 1875 4231 1450 3742 
Q 1025 3253 1025 2328 
Q 1025 1406 1450 917 
Q 1875 428 2675 428 
Q 3081 428 3442 575 
Q 3803 722 4122 1019 
L 4122 359 
Q 3791 134 3420 21 
Q 3050 -91 2638 -91 
Q 1578 -91 968 557 
Q 359 1206 359 2328 
Q 359 3453 968 4101 
Q 1578 4750 2638 4750 
Q 3056 4750 3426 4639 
Q 3797 4528 4122 4306 
z
" transform="scale(0.015625)"/>
      <path id="DejaVuSans-47" d="M 3809 666 
L 3809 1919 
L 2778 1919 
L 2778 2438 
L 4434 2438 
L 4434 434 
Q 4069 175 3628 42 
Q 3188 -91 2688 -91 
Q 1594 -91 976 548 
Q 359 1188 359 2328 
Q 359 3472 976 4111 
Q 1594 4750 2688 4750 
Q 3144 4750 3555 4637 
Q 3966 4525 4313 4306 
L 4313 3634 
Q 3963 3931 3569 4081 
Q 3175 4231 2741 4231 
Q 1884 4231 1454 3753 
Q 1025 3275 1025 2328 
Q 1025 1384 1454 906 
Q 1884 428 2741 428 
Q 3075 428 3337 486 
Q 3600 544 3809 666 
z
" transform="scale(0.015625)"/>
      <path id="DejaVuSans-41" d="M 2188 4044 
L 1331 1722 
L 3047 1722 
L 2188 4044 
z
M 1831 4666 
L 2547 4666 
L 4325 0 
L 3669 0 
L 3244 1197 
L 1141 1197 
L 716 0 
L 50 0 
L 1831 4666 
z
" transform="scale(0.015625)"/>
     </defs>
     <use xlink:href="#DejaVuSans-4c"/>
     <use xlink:href="#DejaVuSans-43" x="55.712891"/>
     <use xlink:href="#DejaVuSans-47" x="125.537109"/>
     <use xlink:href="#DejaVuSans-41" x="203.027344"/>
    </g>
   </g>
   <g id="text_14">
    <!-- EvoSpace- -->
    <g transform="translate(386.578944 167.159125)scale(0.14 -0.14)">
     <defs>
      <path id="DejaVuSans-45" d="M 628 4666 
L 3578 4666 
L 3578 4134 
L 1259 4134 
L 1259 2753 
L 3481 2753 
L 3481 2222 
L 1259 2222 
L 1259 531 
L 3634 531 
L 3634 0 
L 628 0 
L 628 4666 
z
" transform="scale(0.015625)"/>
      <path id="DejaVuSans-53" d="M 3425 4513 
L 3425 3897 
Q 3066 4069 2747 4153 
Q 2428 4238 2131 4238 
Q 1616 4238 1336 4038 
Q 1056 3838 1056 3469 
Q 1056 3159 1242 3001 
Q 1428 2844 1947 2747 
L 2328 2669 
Q 3034 2534 3370 2195 
Q 3706 1856 3706 1288 
Q 3706 609 3251 259 
Q 2797 -91 1919 -91 
Q 1588 -91 1214 -16 
Q 841 59 441 206 
L 441 856 
Q 825 641 1194 531 
Q 1563 422 1919 422 
Q 2459 422 2753 634 
Q 3047 847 3047 1241 
Q 3047 1584 2836 1778 
Q 2625 1972 2144 2069 
L 1759 2144 
Q 1053 2284 737 2584 
Q 422 2884 422 3419 
Q 422 4038 858 4394 
Q 1294 4750 2059 4750 
Q 2388 4750 2728 4690 
Q 3069 4631 3425 4513 
z
" transform="scale(0.015625)"/>
     </defs>
     <use xlink:href="#DejaVuSans-45"/>
     <use xlink:href="#DejaVuSans-76" x="63.183594"/>
     <use xlink:href="#DejaVuSans-6f" x="122.363281"/>
     <use xlink:href="#DejaVuSans-53" x="183.544922"/>
     <use xlink:href="#DejaVuSans-70" x="247.021484"/>
     <use xlink:href="#DejaVuSans-61" x="310.498047"/>
     <use xlink:href="#DejaVuSans-63" x="371.777344"/>
     <use xlink:href="#DejaVuSans-65" x="426.757812"/>
     <use xlink:href="#DejaVuSans-2d" x="488.28125"/>
    </g>
   </g>
   <g id="text_15">
    <!-- best 2009 -->
    <g transform="translate(386.578944 36.937045)scale(0.14 -0.14)">
     <defs>
      <path id="DejaVuSans-62" d="M 3116 1747 
Q 3116 2381 2855 2742 
Q 2594 3103 2138 3103 
Q 1681 3103 1420 2742 
Q 1159 2381 1159 1747 
Q 1159 1113 1420 752 
Q 1681 391 2138 391 
Q 2594 391 2855 752 
Q 3116 1113 3116 1747 
z
M 1159 2969 
Q 1341 3281 1617 3432 
Q 1894 3584 2278 3584 
Q 2916 3584 3314 3078 
Q 3713 2572 3713 1747 
Q 3713 922 3314 415 
Q 2916 -91 2278 -91 
Q 1894 -91 1617 61 
Q 1341 213 1159 525 
L 1159 0 
L 581 0 
L 581 4863 
L 1159 4863 
L 1159 2969 
z
" transform="scale(0.015625)"/>
      <path id="DejaVuSans-39" d="M 703 97 
L 703 672 
Q 941 559 1184 500 
Q 1428 441 1663 441 
Q 2288 441 2617 861 
Q 2947 1281 2994 2138 
Q 2813 1869 2534 1725 
Q 2256 1581 1919 1581 
Q 1219 1581 811 2004 
Q 403 2428 403 3163 
Q 403 3881 828 4315 
Q 1253 4750 1959 4750 
Q 2769 4750 3195 4129 
Q 3622 3509 3622 2328 
Q 3622 1225 3098 567 
Q 2575 -91 1691 -91 
Q 1453 -91 1209 -44 
Q 966 3 703 97 
z
M 1959 2075 
Q 2384 2075 2632 2365 
Q 2881 2656 2881 3163 
Q 2881 3666 2632 3958 
Q 2384 4250 1959 4250 
Q 1534 4250 1286 3958 
Q 1038 3666 1038 3163 
Q 1038 2656 1286 2365 
Q 1534 2075 1959 2075 
z
" transform="scale(0.015625)"/>
     </defs>
     <use xlink:href="#DejaVuSans-62"/>
     <use xlink:href="#DejaVuSans-65" x="63.476562"/>
     <use xlink:href="#DejaVuSans-73" x="125"/>
     <use xlink:href="#DejaVuSans-74" x="177.099609"/>
     <use xlink:href="#DejaVuSans-20" x="216.308594"/>
     <use xlink:href="#DejaVuSans-32" x="248.095703"/>
     <use xlink:href="#DejaVuSans-30" x="311.71875"/>
     <use xlink:href="#DejaVuSans-30" x="375.341797"/>
     <use xlink:href="#DejaVuSans-39" x="438.964844"/>
    </g>
   </g>
   <g id="text_16">
    <!-- bbob f18, 2-D -->
    <g transform="translate(60.632064 38.111366)scale(0.102 -0.102)">
     <defs>
      <path id="DejaVuSans-44" d="M 1259 4147 
L 1259 519 
L 2022 519 
Q 2988 519 3436 956 
Q 3884 1394 3884 2338 
Q 3884 3275 3436 3711 
Q 2988 4147 2022 4147 
L 1259 4147 
z
M 628 4666 
L 1925 4666 
Q 3281 4666 3915 4102 
Q 4550 3538 4550 2338 
Q 4550 1131 3912 565 
Q 3275 0 1925 0 
L 628 0 
L 628 4666 
z
" transform="scale(0.015625)"/>
     </defs>
     <use xlink:href="#DejaVuSans-62"/>
     <use xlink:href="#DejaVuSans-62" x="63.476562"/>
     <use xlink:href="#DejaVuSans-6f" x="126.953125"/>
     <use xlink:href="#DejaVuSans-62" x="188.134766"/>
     <use xlink:href="#DejaVuSans-20" x="251.611328"/>
     <use xlink:href="#DejaVuSans-66" x="283.398438"/>
     <use xlink:href="#DejaVuSans-31" x="318.603516"/>
     <use xlink:href="#DejaVuSans-38" x="382.226562"/>
     <use xlink:href="#DejaVuSans-2c" x="445.849609"/>
     <use xlink:href="#DejaVuSans-20" x="477.636719"/>
     <use xlink:href="#DejaVuSans-32" x="509.423828"/>
     <use xlink:href="#DejaVuSans-2d" x="573.046875"/>
     <use xlink:href="#DejaVuSans-44" x="609.130859"/>
    </g>
    <!-- 51 targets: 100..1e-08 -->
    <g transform="translate(60.632064 49.533135)scale(0.102 -0.102)">
     <defs>
      <path id="DejaVuSans-35" d="M 691 4666 
L 3169 4666 
L 3169 4134 
L 1269 4134 
L 1269 2991 
Q 1406 3038 1543 3061 
Q 1681 3084 1819 3084 
Q 2600 3084 3056 2656 
Q 3513 2228 3513 1497 
Q 3513 744 3044 326 
Q 2575 -91 1722 -91 
Q 1428 -91 1123 -41 
Q 819 9 494 109 
L 494 744 
Q 775 591 1075 516 
Q 1375 441 1709 441 
Q 2250 441 2565 725 
Q 2881 1009 2881 1497 
Q 2881 1984 2565 2268 
Q 2250 2553 1709 2553 
Q 1456 2553 1204 2497 
Q 953 2441 691 2322 
L 691 4666 
z
" transform="scale(0.015625)"/>
      <path id="DejaVuSans-3a" d="M 750 794 
L 1409 794 
L 1409 0 
L 750 0 
L 750 794 
z
M 750 3309 
L 1409 3309 
L 1409 2516 
L 750 2516 
L 750 3309 
z
" transform="scale(0.015625)"/>
     </defs>
     <use xlink:href="#DejaVuSans-35"/>
     <use xlink:href="#DejaVuSans-31" x="63.623047"/>
     <use xlink:href="#DejaVuSans-20" x="127.246094"/>
     <use xlink:href="#DejaVuSans-74" x="159.033203"/>
     <use xlink:href="#DejaVuSans-61" x="198.242188"/>
     <use xlink:href="#DejaVuSans-72" x="259.521484"/>
     <use xlink:href="#DejaVuSans-67" x="298.884766"/>
     <use xlink:href="#DejaVuSans-65" x="362.361328"/>
     <use xlink:href="#DejaVuSans-74" x="423.884766"/>
     <use xlink:href="#DejaVuSans-73" x="463.09375"/>
     <use xlink:href="#DejaVuSans-3a" x="515.193359"/>
     <use xlink:href="#DejaVuSans-20" x="548.884766"/>
     <use xlink:href="#DejaVuSans-31" x="580.671875"/>
     <use xlink:href="#DejaVuSans-30" x="644.294922"/>
     <use xlink:href="#DejaVuSans-30" x="707.917969"/>
     <use xlink:href="#DejaVuSans-2e" x="771.541016"/>
     <use xlink:href="#DejaVuSans-2e" x="803.328125"/>
     <use xlink:href="#DejaVuSans-31" x="835.115234"/>
     <use xlink:href="#DejaVuSans-65" x="898.738281"/>
     <use xlink:href="#DejaVuSans-2d" x="960.261719"/>
     <use xlink:href="#DejaVuSans-30" x="996.345703"/>
     <use xlink:href="#DejaVuSans-38" x="1059.96875"/>
    </g>
    <!-- 15 instances -->
    <g transform="translate(60.632064 60.954904)scale(0.102 -0.102)">
     <use xlink:href="#DejaVuSans-31"/>
     <use xlink:href="#DejaVuSans-35" x="63.623047"/>
     <use xlink:href="#DejaVuSans-20" x="127.246094"/>
     <use xlink:href="#DejaVuSans-69" x="159.033203"/>
     <use xlink:href="#DejaVuSans-6e" x="186.816406"/>
     <use xlink:href="#DejaVuSans-73" x="250.195312"/>
     <use xlink:href="#DejaVuSans-74" x="302.294922"/>
     <use xlink:href="#DejaVuSans-61" x="341.503906"/>
     <use xlink:href="#DejaVuSans-6e" x="402.783203"/>
     <use xlink:href="#DejaVuSans-63" x="466.162109"/>
     <use xlink:href="#DejaVuSans-65" x="521.142578"/>
     <use xlink:href="#DejaVuSans-73" x="582.666016"/>
    </g>
   </g>
   <g id="text_17">
    <!-- v2.6 -->
    <g style="fill: #808080" transform="translate(198.292262 294.151352)scale(0.1 -0.1)">
     <use xlink:href="#DejaVuSans-76"/>
     <use xlink:href="#DejaVuSans-32" x="59.179688"/>
     <use xlink:href="#DejaVuSans-2e" x="122.802734"/>
     <use xlink:href="#DejaVuSans-36" x="154.589844"/>
    </g>
   </g>
   <g id="text_18">
    <!-- 18 Schaffer F7, condition 1000 -->
    <g transform="translate(55.170387 21.648)scale(0.2 -0.2)">
     <defs>
      <path id="DejaVuSans-68" d="M 3513 2113 
L 3513 0 
L 2938 0 
L 2938 2094 
Q 2938 2591 2744 2837 
Q 2550 3084 2163 3084 
Q 1697 3084 1428 2787 
Q 1159 2491 1159 1978 
L 1159 0 
L 581 0 
L 581 4863 
L 1159 4863 
L 1159 2956 
Q 1366 3272 1645 3428 
Q 1925 3584 2291 3584 
Q 2894 3584 3203 3211 
Q 3513 2838 3513 2113 
z
" transform="scale(0.015625)"/>
      <path id="DejaVuSans-37" d="M 525 4666 
L 3525 4666 
L 3525 4397 
L 1831 0 
L 1172 0 
L 2766 4134 
L 525 4134 
L 525 4666 
z
" transform="scale(0.015625)"/>
     </defs>
     <use xlink:href="#DejaVuSans-31"/>
     <use xlink:href="#DejaVuSans-38" x="63.623047"/>
     <use xlink:href="#DejaVuSans-20" x="127.246094"/>
     <use xlink:href="#DejaVuSans-53" x="159.033203"/>
     <use xlink:href="#DejaVuSans-63" x="222.509766"/>
     <use xlink:href="#DejaVuSans-68" x="277.490234"/>
     <use xlink:href="#DejaVuSans-61" x="340.869141"/>
     <use xlink:href="#DejaVuSans-66" x="402.148438"/>
     <use xlink:href="#DejaVuSans-66" x="437.353516"/>
     <use xlink:href="#DejaVuSans-65" x="472.558594"/>
     <use xlink:href="#DejaVuSans-72" x="534.082031"/>
     <use xlink:href="#DejaVuSans-20" x="575.195312"/>
     <use xlink:href="#DejaVuSans-46" x="606.982422"/>
     <use xlink:href="#DejaVuSans-37" x="664.501953"/>
     <use xlink:href="#DejaVuSans-2c" x="728.125"/>
     <use xlink:href="#DejaVuSans-20" x="759.912109"/>
     <use xlink:href="#DejaVuSans-63" x="791.699219"/>
     <use xlink:href="#DejaVuSans-6f" x="846.679688"/>
     <use xlink:href="#DejaVuSans-6e" x="907.861328"/>
     <use xlink:href="#DejaVuSans-64" x="971.240234"/>
     <use xlink:href="#DejaVuSans-69" x="1034.716797"/>
     <use xlink:href="#DejaVuSans-74" x="1062.5"/>
     <use xlink:href="#DejaVuSans-69" x="1101.708984"/>
     <use xlink:href="#DejaVuSans-6f" x="1129.492188"/>
     <use xlink:href="#DejaVuSans-6e" x="1190.673828"/>
     <use xlink:href="#DejaVuSans-20" x="1254.052734"/>
     <use xlink:href="#DejaVuSans-31" x="1285.839844"/>
     <use xlink:href="#DejaVuSans-30" x="1349.462891"/>
     <use xlink:href="#DejaVuSans-30" x="1413.085938"/>
     <use xlink:href="#DejaVuSans-30" x="1476.708984"/>
    </g>
   </g>
  </g>
 </g>
 <defs>
  <clipPath id="pb85bdd8dc5">
   <rect x="57.6" y="27.648" width="303.2064" height="271.296"/>
  </clipPath>
 </defs>
</svg>
