<?xml version="1.0" encoding="utf-8" standalone="no"?>
<!DOCTYPE svg PUBLIC "-//W3C//DTD SVG 1.1//EN"
  "http://www.w3.org/Graphics/SVG/1.1/DTD/svg11.dtd">
<svg xmlns:xlink="http://www.w3.org/1999/xlink" width="460.8pt" height="345.6pt" viewBox="0 0 460.8 345.6" xmlns="http://www.w3.org/2000/svg" version="1.1">
 <metadata>
  <rdf:RDF xmlns:dc="http://purl.org/dc/elements/1.1/" xmlns:cc="http://creativecommons.org/ns#" xmlns:rdf="http://www.w3.org/1999/02/22-rdf-syntax-ns#">
   <cc:Work>
    <dc:type rdf:resource="http://purl.org/dc/dcmitype/StillImage"/>
    <dc:date>2024-05-29T08:05:44.729800</dc:date>
    <dc:format>image/svg+xml</dc:format>
    <dc:creator>
     <cc:Agent>
      <dc:title>Matplotlib v3.5.1, https://matplotlib.org/</dc:title>
     </cc:Agent>
    </dc:creator>
   </cc:Work>
  </rdf:RDF>
 </metadata>
 <defs>
  <style type="text/css">*{stroke-linejoin: round; stroke-linecap: butt}</style>
 </defs>
 <g id="figure_1">
  <g id="patch_1">
   <path d="M 0 345.6 
L 460.8 345.6 
L 460.8 0 
L 0 0 
z
" style="fill: #ffffff"/>
  </g>
  <g id="axes_1">
   <g id="patch_2">
    <path d="M 57.6 298.944 
L 360.8064 298.944 
L 360.8064 27.648 
L 57.6 27.648 
z
" style="fill: #ffffff"/>
   </g>
   <g id="line2d_1">
    <path d="M 80.059535 298.944 
L 80.059535 293.624471 
L 90.007914 293.624471 
L 90.007914 288.304941 
L 94.735529 288.304941 
L 94.735529 282.985412 
L 95.503454 282.985412 
L 95.503454 277.665882 
L 97.18203 277.665882 
L 97.18203 272.346353 
L 111.117162 272.346353 
L 111.117162 267.026824 
L 125.628382 267.026824 
L 125.628382 261.707294 
L 136.92008 261.707294 
L 136.92008 256.387765 
L 139.652679 256.387765 
L 139.652679 251.068235 
L 143.18612 251.068235 
L 143.18612 245.748706 
L 153.200785 245.748706 
L 153.200785 240.429176 
L 163.314829 240.429176 
L 163.314829 235.109647 
L 165.927947 235.109647 
L 165.927947 229.790118 
L 166.379563 229.790118 
L 166.379563 224.470588 
L 170.805345 224.470588 
L 170.805345 219.151059 
L 171.20416 219.151059 
L 171.20416 213.831529 
L 172.076012 213.831529 
L 172.076012 208.512 
L 172.85592 208.512 
L 172.85592 203.192471 
L 173.217966 203.192471 
L 173.217966 197.872941 
L 173.730661 197.872941 
L 173.730661 192.553412 
L 174.875255 192.553412 
L 174.875255 187.233882 
L 174.967261 187.233882 
L 174.967261 181.914353 
L 175.029569 181.914353 
L 175.029569 70.204235 
L 175.701674 70.204235 
L 175.701674 64.884706 
L 175.75456 64.884706 
L 175.75456 59.565176 
L 175.915823 59.565176 
L 175.915823 54.245647 
L 176.94485 54.245647 
L 176.94485 48.926118 
L 177.197622 48.926118 
L 177.197622 43.606588 
L 177.337316 43.606588 
L 177.337316 38.287059 
L 177.427726 38.287059 
L 177.427726 32.967529 
L 177.597677 32.967529 
L 177.597677 27.648 
L 360.8064 27.648 
" style="fill: none; stroke: #f5deb3; stroke-width: 4; stroke-linecap: square"/>
   </g>
   <g id="line2d_2">
    <defs>
     <path id="m0b326c407d" d="M 0 7.778175 
L 7.778175 0 
L 0 -7.778175 
L -7.778175 0 
z
" style="stroke: #f5deb3; stroke-width: 1.5; stroke-linejoin: miter"/>
    </defs>
    <g>
     <use xlink:href="#m0b326c407d" x="174.967261" y="181.914353" style="fill: #f5deb3; stroke: #f5deb3; stroke-width: 1.5; stroke-linejoin: miter"/>
     <use xlink:href="#m0b326c407d" x="177.337316" y="43.606588" style="fill: #f5deb3; stroke: #f5deb3; stroke-width: 1.5; stroke-linejoin: miter"/>
     <use xlink:href="#m0b326c407d" x="177.597677" y="27.648" style="fill: #f5deb3; stroke: #f5deb3; stroke-width: 1.5; stroke-linejoin: miter"/>
     <use xlink:href="#m0b326c407d" x="177.597677" y="27.648" style="fill: #f5deb3; stroke: #f5deb3; stroke-width: 1.5; stroke-linejoin: miter"/>
     <use xlink:href="#m0b326c407d" x="360.8064" y="27.648" style="fill: #f5deb3; stroke: #f5deb3; stroke-width: 1.5; stroke-linejoin: miter"/>
    </g>
   </g>
   <g id="line2d_3">
    <path style="fill: none; stroke: #f5deb3; stroke-width: 4; stroke-linecap: square"/>
    <g/>
   </g>
   <g id="line2d_4">
    <path d="M 360.8064 27.648 
L 380.514816 33.07392 
" style="fill: none; stroke: #f5deb3; stroke-width: 4; stroke-linecap: square"/>
    <g>
     <use xlink:href="#m0b326c407d" x="360.8064" y="27.648" style="fill: #f5deb3; stroke: #f5deb3; stroke-width: 1.5; stroke-linejoin: miter"/>
     <use xlink:href="#m0b326c407d" x="380.514816" y="33.07392" style="fill: #f5deb3; stroke: #f5deb3; stroke-width: 1.5; stroke-linejoin: miter"/>
    </g>
   </g>
   <g id="matplotlib.axis_1">
    <g id="xtick_1">
     <g id="line2d_5">
      <path d="M 57.6 298.944 
L 57.6 27.648 
" clip-path="url(#p246e46f00a)" style="fill: none; stroke: #b0b0b0; stroke-width: 0.8; stroke-linecap: square"/>
     </g>
     <g id="line2d_6">
      <defs>
       <path id="md25b533ead" d="M 0 0 
L 0 3.5 
" style="stroke: #000000; stroke-width: 0.8"/>
      </defs>
      <g>
       <use xlink:href="#md25b533ead" x="57.6" y="298.944" style="stroke: #000000; stroke-width: 0.8"/>
      </g>
     </g>
     <g id="text_1">
      <!-- 0 -->
      <g transform="translate(52.191875 318.861344)scale(0.17 -0.17)">
       <defs>
        <path id="DejaVuSans-30" d="M 2034 4250 
Q 1547 4250 1301 3770 
Q 1056 3291 1056 2328 
Q 1056 1369 1301 889 
Q 1547 409 2034 409 
Q 2525 409 2770 889 
Q 3016 1369 3016 2328 
Q 3016 3291 2770 3770 
Q 2525 4250 2034 4250 
z
M 2034 4750 
Q 2819 4750 3233 4129 
Q 3647 3509 3647 2328 
Q 3647 1150 3233 529 
Q 2819 -91 2034 -91 
Q 1250 -91 836 529 
Q 422 1150 422 2328 
Q 422 3509 836 4129 
Q 1250 4750 2034 4750 
z
" transform="scale(0.015625)"/>
       </defs>
       <use xlink:href="#DejaVuSans-30"/>
      </g>
     </g>
    </g>
    <g id="xtick_2">
     <g id="line2d_7">
      <path d="M 144.2304 298.944 
L 144.2304 27.648 
" clip-path="url(#p246e46f00a)" style="fill: none; stroke: #b0b0b0; stroke-width: 0.8; stroke-linecap: square"/>
     </g>
     <g id="line2d_8">
      <g>
       <use xlink:href="#md25b533ead" x="144.2304" y="298.944" style="stroke: #000000; stroke-width: 0.8"/>
      </g>
     </g>
     <g id="text_2">
      <!-- 2 -->
      <g transform="translate(138.822275 318.861344)scale(0.17 -0.17)">
       <defs>
        <path id="DejaVuSans-32" d="M 1228 531 
L 3431 531 
L 3431 0 
L 469 0 
L 469 531 
Q 828 903 1448 1529 
Q 2069 2156 2228 2338 
Q 2531 2678 2651 2914 
Q 2772 3150 2772 3378 
Q 2772 3750 2511 3984 
Q 2250 4219 1831 4219 
Q 1534 4219 1204 4116 
Q 875 4013 500 3803 
L 500 4441 
Q 881 4594 1212 4672 
Q 1544 4750 1819 4750 
Q 2544 4750 2975 4387 
Q 3406 4025 3406 3419 
Q 3406 3131 3298 2873 
Q 3191 2616 2906 2266 
Q 2828 2175 2409 1742 
Q 1991 1309 1228 531 
z
" transform="scale(0.015625)"/>
       </defs>
       <use xlink:href="#DejaVuSans-32"/>
      </g>
     </g>
    </g>
    <g id="xtick_3">
     <g id="line2d_9">
      <path d="M 230.8608 298.944 
L 230.8608 27.648 
" clip-path="url(#p246e46f00a)" style="fill: none; stroke: #b0b0b0; stroke-width: 0.8; stroke-linecap: square"/>
     </g>
     <g id="line2d_10">
      <g>
       <use xlink:href="#md25b533ead" x="230.8608" y="298.944" style="stroke: #000000; stroke-width: 0.8"/>
      </g>
     </g>
     <g id="text_3">
      <!-- 4 -->
      <g transform="translate(225.452675 318.861344)scale(0.17 -0.17)">
       <defs>
        <path id="DejaVuSans-34" d="M 2419 4116 
L 825 1625 
L 2419 1625 
L 2419 4116 
z
M 2253 4666 
L 3047 4666 
L 3047 1625 
L 3713 1625 
L 3713 1100 
L 3047 1100 
L 3047 0 
L 2419 0 
L 2419 1100 
L 313 1100 
L 313 1709 
L 2253 4666 
z
" transform="scale(0.015625)"/>
       </defs>
       <use xlink:href="#DejaVuSans-34"/>
      </g>
     </g>
    </g>
    <g id="xtick_4">
     <g id="line2d_11">
      <path d="M 317.4912 298.944 
L 317.4912 27.648 
" clip-path="url(#p246e46f00a)" style="fill: none; stroke: #b0b0b0; stroke-width: 0.8; stroke-linecap: square"/>
     </g>
     <g id="line2d_12">
      <g>
       <use xlink:href="#md25b533ead" x="317.4912" y="298.944" style="stroke: #000000; stroke-width: 0.8"/>
      </g>
     </g>
     <g id="text_4">
      <!-- 6 -->
      <g transform="translate(312.083075 318.861344)scale(0.17 -0.17)">
       <defs>
        <path id="DejaVuSans-36" d="M 2113 2584 
Q 1688 2584 1439 2293 
Q 1191 2003 1191 1497 
Q 1191 994 1439 701 
Q 1688 409 2113 409 
Q 2538 409 2786 701 
Q 3034 994 3034 1497 
Q 3034 2003 2786 2293 
Q 2538 2584 2113 2584 
z
M 3366 4563 
L 3366 3988 
Q 3128 4100 2886 4159 
Q 2644 4219 2406 4219 
Q 1781 4219 1451 3797 
Q 1122 3375 1075 2522 
Q 1259 2794 1537 2939 
Q 1816 3084 2150 3084 
Q 2853 3084 3261 2657 
Q 3669 2231 3669 1497 
Q 3669 778 3244 343 
Q 2819 -91 2113 -91 
Q 1303 -91 875 529 
Q 447 1150 447 2328 
Q 447 3434 972 4092 
Q 1497 4750 2381 4750 
Q 2619 4750 2861 4703 
Q 3103 4656 3366 4563 
z
" transform="scale(0.015625)"/>
       </defs>
       <use xlink:href="#DejaVuSans-36"/>
      </g>
     </g>
    </g>
    <g id="xtick_5">
     <g id="line2d_13">
      <path d="M 100.9152 298.944 
L 100.9152 27.648 
" clip-path="url(#p246e46f00a)" style="fill: none; stroke: #b0b0b0; stroke-width: 0.8; stroke-linecap: square"/>
     </g>
     <g id="line2d_14">
      <defs>
       <path id="m2cbf8e0ab6" d="M 0 0 
L 0 2 
" style="stroke: #000000; stroke-width: 0.6"/>
      </defs>
      <g>
       <use xlink:href="#m2cbf8e0ab6" x="100.9152" y="298.944" style="stroke: #000000; stroke-width: 0.6"/>
      </g>
     </g>
    </g>
    <g id="xtick_6">
     <g id="line2d_15">
      <path d="M 187.5456 298.944 
L 187.5456 27.648 
" clip-path="url(#p246e46f00a)" style="fill: none; stroke: #b0b0b0; stroke-width: 0.8; stroke-linecap: square"/>
     </g>
     <g id="line2d_16">
      <g>
       <use xlink:href="#m2cbf8e0ab6" x="187.5456" y="298.944" style="stroke: #000000; stroke-width: 0.6"/>
      </g>
     </g>
    </g>
    <g id="xtick_7">
     <g id="line2d_17">
      <path d="M 274.176 298.944 
L 274.176 27.648 
" clip-path="url(#p246e46f00a)" style="fill: none; stroke: #b0b0b0; stroke-width: 0.8; stroke-linecap: square"/>
     </g>
     <g id="line2d_18">
      <g>
       <use xlink:href="#m2cbf8e0ab6" x="274.176" y="298.944" style="stroke: #000000; stroke-width: 0.6"/>
      </g>
     </g>
    </g>
    <g id="xtick_8">
     <g id="line2d_19">
      <path d="M 360.8064 298.944 
L 360.8064 27.648 
" clip-path="url(#p246e46f00a)" style="fill: none; stroke: #b0b0b0; stroke-width: 0.8; stroke-linecap: square"/>
     </g>
     <g id="line2d_20">
      <g>
       <use xlink:href="#m2cbf8e0ab6" x="360.8064" y="298.944" style="stroke: #000000; stroke-width: 0.6"/>
      </g>
     </g>
    </g>
    <g id="text_5">
     <!-- log10(# f-evals / dimension) -->
     <g transform="translate(88.823278 339.314156)scale(0.17 -0.17)">
      <defs>
       <path id="DejaVuSans-6c" d="M 603 4863 
L 1178 4863 
L 1178 0 
L 603 0 
L 603 4863 
z
" transform="scale(0.015625)"/>
       <path id="DejaVuSans-6f" d="M 1959 3097 
Q 1497 3097 1228 2736 
Q 959 2375 959 1747 
Q 959 1119 1226 758 
Q 1494 397 1959 397 
Q 2419 397 2687 759 
Q 2956 1122 2956 1747 
Q 2956 2369 2687 2733 
Q 2419 3097 1959 3097 
z
M 1959 3584 
Q 2709 3584 3137 3096 
Q 3566 2609 3566 1747 
Q 3566 888 3137 398 
Q 2709 -91 1959 -91 
Q 1206 -91 779 398 
Q 353 888 353 1747 
Q 353 2609 779 3096 
Q 1206 3584 1959 3584 
z
" transform="scale(0.015625)"/>
       <path id="DejaVuSans-67" d="M 2906 1791 
Q 2906 2416 2648 2759 
Q 2391 3103 1925 3103 
Q 1463 3103 1205 2759 
Q 947 2416 947 1791 
Q 947 1169 1205 825 
Q 1463 481 1925 481 
Q 2391 481 2648 825 
Q 2906 1169 2906 1791 
z
M 3481 434 
Q 3481 -459 3084 -895 
Q 2688 -1331 1869 -1331 
Q 1566 -1331 1297 -1286 
Q 1028 -1241 775 -1147 
L 775 -588 
Q 1028 -725 1275 -790 
Q 1522 -856 1778 -856 
Q 2344 -856 2625 -561 
Q 2906 -266 2906 331 
L 2906 616 
Q 2728 306 2450 153 
Q 2172 0 1784 0 
Q 1141 0 747 490 
Q 353 981 353 1791 
Q 353 2603 747 3093 
Q 1141 3584 1784 3584 
Q 2172 3584 2450 3431 
Q 2728 3278 2906 2969 
L 2906 3500 
L 3481 3500 
L 3481 434 
z
" transform="scale(0.015625)"/>
       <path id="DejaVuSans-31" d="M 794 531 
L 1825 531 
L 1825 4091 
L 703 3866 
L 703 4441 
L 1819 4666 
L 2450 4666 
L 2450 531 
L 3481 531 
L 3481 0 
L 794 0 
L 794 531 
z
" transform="scale(0.015625)"/>
       <path id="DejaVuSans-28" d="M 1984 4856 
Q 1566 4138 1362 3434 
Q 1159 2731 1159 2009 
Q 1159 1288 1364 580 
Q 1569 -128 1984 -844 
L 1484 -844 
Q 1016 -109 783 600 
Q 550 1309 550 2009 
Q 550 2706 781 3412 
Q 1013 4119 1484 4856 
L 1984 4856 
z
" transform="scale(0.015625)"/>
       <path id="DejaVuSans-23" d="M 3272 2816 
L 2363 2816 
L 2100 1772 
L 3016 1772 
L 3272 2816 
z
M 2803 4594 
L 2478 3297 
L 3391 3297 
L 3719 4594 
L 4219 4594 
L 3897 3297 
L 4872 3297 
L 4872 2816 
L 3775 2816 
L 3519 1772 
L 4513 1772 
L 4513 1294 
L 3397 1294 
L 3072 0 
L 2572 0 
L 2894 1294 
L 1978 1294 
L 1656 0 
L 1153 0 
L 1478 1294 
L 494 1294 
L 494 1772 
L 1594 1772 
L 1856 2816 
L 850 2816 
L 850 3297 
L 1978 3297 
L 2297 4594 
L 2803 4594 
z
" transform="scale(0.015625)"/>
       <path id="DejaVuSans-20" transform="scale(0.015625)"/>
       <path id="DejaVuSans-66" d="M 2375 4863 
L 2375 4384 
L 1825 4384 
Q 1516 4384 1395 4259 
Q 1275 4134 1275 3809 
L 1275 3500 
L 2222 3500 
L 2222 3053 
L 1275 3053 
L 1275 0 
L 697 0 
L 697 3053 
L 147 3053 
L 147 3500 
L 697 3500 
L 697 3744 
Q 697 4328 969 4595 
Q 1241 4863 1831 4863 
L 2375 4863 
z
" transform="scale(0.015625)"/>
       <path id="DejaVuSans-2d" d="M 313 2009 
L 1997 2009 
L 1997 1497 
L 313 1497 
L 313 2009 
z
" transform="scale(0.015625)"/>
       <path id="DejaVuSans-65" d="M 3597 1894 
L 3597 1613 
L 953 1613 
Q 991 1019 1311 708 
Q 1631 397 2203 397 
Q 2534 397 2845 478 
Q 3156 559 3463 722 
L 3463 178 
Q 3153 47 2828 -22 
Q 2503 -91 2169 -91 
Q 1331 -91 842 396 
Q 353 884 353 1716 
Q 353 2575 817 3079 
Q 1281 3584 2069 3584 
Q 2775 3584 3186 3129 
Q 3597 2675 3597 1894 
z
M 3022 2063 
Q 3016 2534 2758 2815 
Q 2500 3097 2075 3097 
Q 1594 3097 1305 2825 
Q 1016 2553 972 2059 
L 3022 2063 
z
" transform="scale(0.015625)"/>
       <path id="DejaVuSans-76" d="M 191 3500 
L 800 3500 
L 1894 563 
L 2988 3500 
L 3597 3500 
L 2284 0 
L 1503 0 
L 191 3500 
z
" transform="scale(0.015625)"/>
       <path id="DejaVuSans-61" d="M 2194 1759 
Q 1497 1759 1228 1600 
Q 959 1441 959 1056 
Q 959 750 1161 570 
Q 1363 391 1709 391 
Q 2188 391 2477 730 
Q 2766 1069 2766 1631 
L 2766 1759 
L 2194 1759 
z
M 3341 1997 
L 3341 0 
L 2766 0 
L 2766 531 
Q 2569 213 2275 61 
Q 1981 -91 1556 -91 
Q 1019 -91 701 211 
Q 384 513 384 1019 
Q 384 1609 779 1909 
Q 1175 2209 1959 2209 
L 2766 2209 
L 2766 2266 
Q 2766 2663 2505 2880 
Q 2244 3097 1772 3097 
Q 1472 3097 1187 3025 
Q 903 2953 641 2809 
L 641 3341 
Q 956 3463 1253 3523 
Q 1550 3584 1831 3584 
Q 2591 3584 2966 3190 
Q 3341 2797 3341 1997 
z
" transform="scale(0.015625)"/>
       <path id="DejaVuSans-73" d="M 2834 3397 
L 2834 2853 
Q 2591 2978 2328 3040 
Q 2066 3103 1784 3103 
Q 1356 3103 1142 2972 
Q 928 2841 928 2578 
Q 928 2378 1081 2264 
Q 1234 2150 1697 2047 
L 1894 2003 
Q 2506 1872 2764 1633 
Q 3022 1394 3022 966 
Q 3022 478 2636 193 
Q 2250 -91 1575 -91 
Q 1294 -91 989 -36 
Q 684 19 347 128 
L 347 722 
Q 666 556 975 473 
Q 1284 391 1588 391 
Q 1994 391 2212 530 
Q 2431 669 2431 922 
Q 2431 1156 2273 1281 
Q 2116 1406 1581 1522 
L 1381 1569 
Q 847 1681 609 1914 
Q 372 2147 372 2553 
Q 372 3047 722 3315 
Q 1072 3584 1716 3584 
Q 2034 3584 2315 3537 
Q 2597 3491 2834 3397 
z
" transform="scale(0.015625)"/>
       <path id="DejaVuSans-2f" d="M 1625 4666 
L 2156 4666 
L 531 -594 
L 0 -594 
L 1625 4666 
z
" transform="scale(0.015625)"/>
       <path id="DejaVuSans-64" d="M 2906 2969 
L 2906 4863 
L 3481 4863 
L 3481 0 
L 2906 0 
L 2906 525 
Q 2725 213 2448 61 
Q 2172 -91 1784 -91 
Q 1150 -91 751 415 
Q 353 922 353 1747 
Q 353 2572 751 3078 
Q 1150 3584 1784 3584 
Q 2172 3584 2448 3432 
Q 2725 3281 2906 2969 
z
M 947 1747 
Q 947 1113 1208 752 
Q 1469 391 1925 391 
Q 2381 391 2643 752 
Q 2906 1113 2906 1747 
Q 2906 2381 2643 2742 
Q 2381 3103 1925 3103 
Q 1469 3103 1208 2742 
Q 947 2381 947 1747 
z
" transform="scale(0.015625)"/>
       <path id="DejaVuSans-69" d="M 603 3500 
L 1178 3500 
L 1178 0 
L 603 0 
L 603 3500 
z
M 603 4863 
L 1178 4863 
L 1178 4134 
L 603 4134 
L 603 4863 
z
" transform="scale(0.015625)"/>
       <path id="DejaVuSans-6d" d="M 3328 2828 
Q 3544 3216 3844 3400 
Q 4144 3584 4550 3584 
Q 5097 3584 5394 3201 
Q 5691 2819 5691 2113 
L 5691 0 
L 5113 0 
L 5113 2094 
Q 5113 2597 4934 2840 
Q 4756 3084 4391 3084 
Q 3944 3084 3684 2787 
Q 3425 2491 3425 1978 
L 3425 0 
L 2847 0 
L 2847 2094 
Q 2847 2600 2669 2842 
Q 2491 3084 2119 3084 
Q 1678 3084 1418 2786 
Q 1159 2488 1159 1978 
L 1159 0 
L 581 0 
L 581 3500 
L 1159 3500 
L 1159 2956 
Q 1356 3278 1631 3431 
Q 1906 3584 2284 3584 
Q 2666 3584 2933 3390 
Q 3200 3197 3328 2828 
z
" transform="scale(0.015625)"/>
       <path id="DejaVuSans-6e" d="M 3513 2113 
L 3513 0 
L 2938 0 
L 2938 2094 
Q 2938 2591 2744 2837 
Q 2550 3084 2163 3084 
Q 1697 3084 1428 2787 
Q 1159 2491 1159 1978 
L 1159 0 
L 581 0 
L 581 3500 
L 1159 3500 
L 1159 2956 
Q 1366 3272 1645 3428 
Q 1925 3584 2291 3584 
Q 2894 3584 3203 3211 
Q 3513 2838 3513 2113 
z
" transform="scale(0.015625)"/>
       <path id="DejaVuSans-29" d="M 513 4856 
L 1013 4856 
Q 1481 4119 1714 3412 
Q 1947 2706 1947 2009 
Q 1947 1309 1714 600 
Q 1481 -109 1013 -844 
L 513 -844 
Q 928 -128 1133 580 
Q 1338 1288 1338 2009 
Q 1338 2731 1133 3434 
Q 928 4138 513 4856 
z
" transform="scale(0.015625)"/>
      </defs>
      <use xlink:href="#DejaVuSans-6c"/>
      <use xlink:href="#DejaVuSans-6f" x="27.783203"/>
      <use xlink:href="#DejaVuSans-67" x="88.964844"/>
      <use xlink:href="#DejaVuSans-31" x="152.441406"/>
      <use xlink:href="#DejaVuSans-30" x="216.064453"/>
      <use xlink:href="#DejaVuSans-28" x="279.6875"/>
      <use xlink:href="#DejaVuSans-23" x="318.701172"/>
      <use xlink:href="#DejaVuSans-20" x="402.490234"/>
      <use xlink:href="#DejaVuSans-66" x="434.277344"/>
      <use xlink:href="#DejaVuSans-2d" x="463.982422"/>
      <use xlink:href="#DejaVuSans-65" x="500.066406"/>
      <use xlink:href="#DejaVuSans-76" x="561.589844"/>
      <use xlink:href="#DejaVuSans-61" x="620.769531"/>
      <use xlink:href="#DejaVuSans-6c" x="682.048828"/>
      <use xlink:href="#DejaVuSans-73" x="709.832031"/>
      <use xlink:href="#DejaVuSans-20" x="761.931641"/>
      <use xlink:href="#DejaVuSans-2f" x="793.71875"/>
      <use xlink:href="#DejaVuSans-20" x="827.410156"/>
      <use xlink:href="#DejaVuSans-64" x="859.197266"/>
      <use xlink:href="#DejaVuSans-69" x="922.673828"/>
      <use xlink:href="#DejaVuSans-6d" x="950.457031"/>
      <use xlink:href="#DejaVuSans-65" x="1047.869141"/>
      <use xlink:href="#DejaVuSans-6e" x="1109.392578"/>
      <use xlink:href="#DejaVuSans-73" x="1172.771484"/>
      <use xlink:href="#DejaVuSans-69" x="1224.871094"/>
      <use xlink:href="#DejaVuSans-6f" x="1252.654297"/>
      <use xlink:href="#DejaVuSans-6e" x="1313.835938"/>
      <use xlink:href="#DejaVuSans-29" x="1377.214844"/>
     </g>
    </g>
   </g>
   <g id="matplotlib.axis_2">
    <g id="ytick_1">
     <g id="line2d_21">
      <path d="M 57.6 298.944 
L 360.8064 298.944 
" clip-path="url(#p246e46f00a)" style="fill: none; stroke: #b0b0b0; stroke-width: 0.8; stroke-linecap: square"/>
     </g>
     <g id="line2d_22">
      <defs>
       <path id="mfc09b26876" d="M 0 0 
L -3.5 0 
" style="stroke: #000000; stroke-width: 0.8"/>
      </defs>
      <g>
       <use xlink:href="#mfc09b26876" x="57.6" y="298.944" style="stroke: #000000; stroke-width: 0.8"/>
      </g>
     </g>
     <g id="text_6">
      <!-- 0.0 -->
      <g transform="translate(25.155 305.02275)scale(0.16 -0.16)">
       <defs>
        <path id="DejaVuSans-2e" d="M 684 794 
L 1344 794 
L 1344 0 
L 684 0 
L 684 794 
z
" transform="scale(0.015625)"/>
       </defs>
       <use xlink:href="#DejaVuSans-30"/>
       <use xlink:href="#DejaVuSans-2e" x="63.623047"/>
       <use xlink:href="#DejaVuSans-30" x="95.410156"/>
      </g>
     </g>
    </g>
    <g id="ytick_2">
     <g id="line2d_23">
      <path d="M 57.6 244.6848 
L 360.8064 244.6848 
" clip-path="url(#p246e46f00a)" style="fill: none; stroke: #b0b0b0; stroke-width: 0.8; stroke-linecap: square"/>
     </g>
     <g id="line2d_24">
      <g>
       <use xlink:href="#mfc09b26876" x="57.6" y="244.6848" style="stroke: #000000; stroke-width: 0.8"/>
      </g>
     </g>
     <g id="text_7">
      <!-- 0.2 -->
      <g transform="translate(25.155 250.76355)scale(0.16 -0.16)">
       <use xlink:href="#DejaVuSans-30"/>
       <use xlink:href="#DejaVuSans-2e" x="63.623047"/>
       <use xlink:href="#DejaVuSans-32" x="95.410156"/>
      </g>
     </g>
    </g>
    <g id="ytick_3">
     <g id="line2d_25">
      <path d="M 57.6 190.4256 
L 360.8064 190.4256 
" clip-path="url(#p246e46f00a)" style="fill: none; stroke: #b0b0b0; stroke-width: 0.8; stroke-linecap: square"/>
     </g>
     <g id="line2d_26">
      <g>
       <use xlink:href="#mfc09b26876" x="57.6" y="190.4256" style="stroke: #000000; stroke-width: 0.8"/>
      </g>
     </g>
     <g id="text_8">
      <!-- 0.4 -->
      <g transform="translate(25.155 196.50435)scale(0.16 -0.16)">
       <use xlink:href="#DejaVuSans-30"/>
       <use xlink:href="#DejaVuSans-2e" x="63.623047"/>
       <use xlink:href="#DejaVuSans-34" x="95.410156"/>
      </g>
     </g>
    </g>
    <g id="ytick_4">
     <g id="line2d_27">
      <path d="M 57.6 136.1664 
L 360.8064 136.1664 
" clip-path="url(#p246e46f00a)" style="fill: none; stroke: #b0b0b0; stroke-width: 0.8; stroke-linecap: square"/>
     </g>
     <g id="line2d_28">
      <g>
       <use xlink:href="#mfc09b26876" x="57.6" y="136.1664" style="stroke: #000000; stroke-width: 0.8"/>
      </g>
     </g>
     <g id="text_9">
      <!-- 0.6 -->
      <g transform="translate(25.155 142.24515)scale(0.16 -0.16)">
       <use xlink:href="#DejaVuSans-30"/>
       <use xlink:href="#DejaVuSans-2e" x="63.623047"/>
       <use xlink:href="#DejaVuSans-36" x="95.410156"/>
      </g>
     </g>
    </g>
    <g id="ytick_5">
     <g id="line2d_29">
      <path d="M 57.6 81.9072 
L 360.8064 81.9072 
" clip-path="url(#p246e46f00a)" style="fill: none; stroke: #b0b0b0; stroke-width: 0.8; stroke-linecap: square"/>
     </g>
     <g id="line2d_30">
      <g>
       <use xlink:href="#mfc09b26876" x="57.6" y="81.9072" style="stroke: #000000; stroke-width: 0.8"/>
      </g>
     </g>
     <g id="text_10">
      <!-- 0.8 -->
      <g transform="translate(25.155 87.98595)scale(0.16 -0.16)">
       <defs>
        <path id="DejaVuSans-38" d="M 2034 2216 
Q 1584 2216 1326 1975 
Q 1069 1734 1069 1313 
Q 1069 891 1326 650 
Q 1584 409 2034 409 
Q 2484 409 2743 651 
Q 3003 894 3003 1313 
Q 3003 1734 2745 1975 
Q 2488 2216 2034 2216 
z
M 1403 2484 
Q 997 2584 770 2862 
Q 544 3141 544 3541 
Q 544 4100 942 4425 
Q 1341 4750 2034 4750 
Q 2731 4750 3128 4425 
Q 3525 4100 3525 3541 
Q 3525 3141 3298 2862 
Q 3072 2584 2669 2484 
Q 3125 2378 3379 2068 
Q 3634 1759 3634 1313 
Q 3634 634 3220 271 
Q 2806 -91 2034 -91 
Q 1263 -91 848 271 
Q 434 634 434 1313 
Q 434 1759 690 2068 
Q 947 2378 1403 2484 
z
M 1172 3481 
Q 1172 3119 1398 2916 
Q 1625 2713 2034 2713 
Q 2441 2713 2670 2916 
Q 2900 3119 2900 3481 
Q 2900 3844 2670 4047 
Q 2441 4250 2034 4250 
Q 1625 4250 1398 4047 
Q 1172 3844 1172 3481 
z
" transform="scale(0.015625)"/>
       </defs>
       <use xlink:href="#DejaVuSans-30"/>
       <use xlink:href="#DejaVuSans-2e" x="63.623047"/>
       <use xlink:href="#DejaVuSans-38" x="95.410156"/>
      </g>
     </g>
    </g>
    <g id="ytick_6">
     <g id="line2d_31">
      <path d="M 57.6 27.648 
L 360.8064 27.648 
" clip-path="url(#p246e46f00a)" style="fill: none; stroke: #b0b0b0; stroke-width: 0.8; stroke-linecap: square"/>
     </g>
     <g id="line2d_32">
      <g>
       <use xlink:href="#mfc09b26876" x="57.6" y="27.648" style="stroke: #000000; stroke-width: 0.8"/>
      </g>
     </g>
     <g id="text_11">
      <!-- 1.0 -->
      <g transform="translate(25.155 33.72675)scale(0.16 -0.16)">
       <use xlink:href="#DejaVuSans-31"/>
       <use xlink:href="#DejaVuSans-2e" x="63.623047"/>
       <use xlink:href="#DejaVuSans-30" x="95.410156"/>
      </g>
     </g>
    </g>
    <g id="text_12">
     <!-- Fraction of function,target pairs -->
     <g transform="translate(17.619531 297.681)rotate(-90)scale(0.17 -0.17)">
      <defs>
       <path id="DejaVuSans-46" d="M 628 4666 
L 3309 4666 
L 3309 4134 
L 1259 4134 
L 1259 2759 
L 3109 2759 
L 3109 2228 
L 1259 2228 
L 1259 0 
L 628 0 
L 628 4666 
z
" transform="scale(0.015625)"/>
       <path id="DejaVuSans-72" d="M 2631 2963 
Q 2534 3019 2420 3045 
Q 2306 3072 2169 3072 
Q 1681 3072 1420 2755 
Q 1159 2438 1159 1844 
L 1159 0 
L 581 0 
L 581 3500 
L 1159 3500 
L 1159 2956 
Q 1341 3275 1631 3429 
Q 1922 3584 2338 3584 
Q 2397 3584 2469 3576 
Q 2541 3569 2628 3553 
L 2631 2963 
z
" transform="scale(0.015625)"/>
       <path id="DejaVuSans-63" d="M 3122 3366 
L 3122 2828 
Q 2878 2963 2633 3030 
Q 2388 3097 2138 3097 
Q 1578 3097 1268 2742 
Q 959 2388 959 1747 
Q 959 1106 1268 751 
Q 1578 397 2138 397 
Q 2388 397 2633 464 
Q 2878 531 3122 666 
L 3122 134 
Q 2881 22 2623 -34 
Q 2366 -91 2075 -91 
Q 1284 -91 818 406 
Q 353 903 353 1747 
Q 353 2603 823 3093 
Q 1294 3584 2113 3584 
Q 2378 3584 2631 3529 
Q 2884 3475 3122 3366 
z
" transform="scale(0.015625)"/>
       <path id="DejaVuSans-74" d="M 1172 4494 
L 1172 3500 
L 2356 3500 
L 2356 3053 
L 1172 3053 
L 1172 1153 
Q 1172 725 1289 603 
Q 1406 481 1766 481 
L 2356 481 
L 2356 0 
L 1766 0 
Q 1100 0 847 248 
Q 594 497 594 1153 
L 594 3053 
L 172 3053 
L 172 3500 
L 594 3500 
L 594 4494 
L 1172 4494 
z
" transform="scale(0.015625)"/>
       <path id="DejaVuSans-75" d="M 544 1381 
L 544 3500 
L 1119 3500 
L 1119 1403 
Q 1119 906 1312 657 
Q 1506 409 1894 409 
Q 2359 409 2629 706 
Q 2900 1003 2900 1516 
L 2900 3500 
L 3475 3500 
L 3475 0 
L 2900 0 
L 2900 538 
Q 2691 219 2414 64 
Q 2138 -91 1772 -91 
Q 1169 -91 856 284 
Q 544 659 544 1381 
z
M 1991 3584 
L 1991 3584 
z
" transform="scale(0.015625)"/>
       <path id="DejaVuSans-2c" d="M 750 794 
L 1409 794 
L 1409 256 
L 897 -744 
L 494 -744 
L 750 256 
L 750 794 
z
" transform="scale(0.015625)"/>
       <path id="DejaVuSans-70" d="M 1159 525 
L 1159 -1331 
L 581 -1331 
L 581 3500 
L 1159 3500 
L 1159 2969 
Q 1341 3281 1617 3432 
Q 1894 3584 2278 3584 
Q 2916 3584 3314 3078 
Q 3713 2572 3713 1747 
Q 3713 922 3314 415 
Q 2916 -91 2278 -91 
Q 1894 -91 1617 61 
Q 1341 213 1159 525 
z
M 3116 1747 
Q 3116 2381 2855 2742 
Q 2594 3103 2138 3103 
Q 1681 3103 1420 2742 
Q 1159 2381 1159 1747 
Q 1159 1113 1420 752 
Q 1681 391 2138 391 
Q 2594 391 2855 752 
Q 3116 1113 3116 1747 
z
" transform="scale(0.015625)"/>
      </defs>
      <use xlink:href="#DejaVuSans-46"/>
      <use xlink:href="#DejaVuSans-72" x="50.269531"/>
      <use xlink:href="#DejaVuSans-61" x="91.382812"/>
      <use xlink:href="#DejaVuSans-63" x="152.662109"/>
      <use xlink:href="#DejaVuSans-74" x="207.642578"/>
      <use xlink:href="#DejaVuSans-69" x="246.851562"/>
      <use xlink:href="#DejaVuSans-6f" x="274.634766"/>
      <use xlink:href="#DejaVuSans-6e" x="335.816406"/>
      <use xlink:href="#DejaVuSans-20" x="399.195312"/>
      <use xlink:href="#DejaVuSans-6f" x="430.982422"/>
      <use xlink:href="#DejaVuSans-66" x="492.164062"/>
      <use xlink:href="#DejaVuSans-20" x="527.369141"/>
      <use xlink:href="#DejaVuSans-66" x="559.15625"/>
      <use xlink:href="#DejaVuSans-75" x="594.361328"/>
      <use xlink:href="#DejaVuSans-6e" x="657.740234"/>
      <use xlink:href="#DejaVuSans-63" x="721.119141"/>
      <use xlink:href="#DejaVuSans-74" x="776.099609"/>
      <use xlink:href="#DejaVuSans-69" x="815.308594"/>
      <use xlink:href="#DejaVuSans-6f" x="843.091797"/>
      <use xlink:href="#DejaVuSans-6e" x="904.273438"/>
      <use xlink:href="#DejaVuSans-2c" x="967.652344"/>
      <use xlink:href="#DejaVuSans-74" x="999.439453"/>
      <use xlink:href="#DejaVuSans-61" x="1038.648438"/>
      <use xlink:href="#DejaVuSans-72" x="1099.927734"/>
      <use xlink:href="#DejaVuSans-67" x="1139.291016"/>
      <use xlink:href="#DejaVuSans-65" x="1202.767578"/>
      <use xlink:href="#DejaVuSans-74" x="1264.291016"/>
      <use xlink:href="#DejaVuSans-20" x="1303.5"/>
      <use xlink:href="#DejaVuSans-70" x="1335.287109"/>
      <use xlink:href="#DejaVuSans-61" x="1398.763672"/>
      <use xlink:href="#DejaVuSans-69" x="1460.042969"/>
      <use xlink:href="#DejaVuSans-72" x="1487.826172"/>
      <use xlink:href="#DejaVuSans-73" x="1528.939453"/>
     </g>
    </g>
   </g>
   <g id="line2d_33">
    <defs>
     <path id="m8f57c48684" d="M 0 1.5 
C 0.397805 1.5 0.77937 1.341951 1.06066 1.06066 
C 1.341951 0.77937 1.5 0.397805 1.5 0 
C 1.5 -0.397805 1.341951 -0.77937 1.06066 -1.06066 
C 0.77937 -1.341951 0.397805 -1.5 0 -1.5 
C -0.397805 -1.5 -0.77937 -1.341951 -1.06066 -1.06066 
C -1.341951 -0.77937 -1.5 -0.397805 -1.5 0 
C -1.5 0.397805 -1.341951 0.77937 -1.06066 1.06066 
C -0.77937 1.341951 -0.397805 1.5 0 1.5 
z
" style="stroke: #f5deb3"/>
    </defs>
    <g>
     <use xlink:href="#m8f57c48684" x="177.597677" y="27.648" style="fill: #f5deb3; stroke: #f5deb3"/>
     <use xlink:href="#m8f57c48684" x="177.597677" y="27.648" style="fill: #f5deb3; stroke: #f5deb3"/>
    </g>
   </g>
   <g id="line2d_34">
    <defs>
     <path id="m12cb424576" d="M 0 1.5 
C 0.397805 1.5 0.77937 1.341951 1.06066 1.06066 
C 1.341951 0.77937 1.5 0.397805 1.5 0 
C 1.5 -0.397805 1.341951 -0.77937 1.06066 -1.06066 
C 0.77937 -1.341951 0.397805 -1.5 0 -1.5 
C -0.397805 -1.5 -0.77937 -1.341951 -1.06066 -1.06066 
C -1.341951 -0.77937 -1.5 -0.397805 -1.5 0 
C -1.5 0.397805 -1.341951 0.77937 -1.06066 1.06066 
C -0.77937 1.341951 -0.397805 1.5 0 1.5 
z
" style="stroke: #000080"/>
    </defs>
    <g>
     <use xlink:href="#m12cb424576" x="327.96546" y="245.748706" style="fill: #000080; stroke: #000080"/>
     <use xlink:href="#m12cb424576" x="327.96546" y="245.748706" style="fill: #000080; stroke: #000080"/>
    </g>
   </g>
   <g id="line2d_35">
    <path d="M 104.961779 298.944 
L 104.961779 298.589365 
L 107.643612 298.589365 
L 107.643612 298.234729 
L 119.105667 298.234729 
L 119.105667 297.170824 
L 126.127391 297.170824 
L 126.127391 296.816188 
L 131.41562 296.816188 
L 131.41562 296.461553 
L 131.563744 296.461553 
L 131.563744 296.106918 
L 131.783764 296.106918 
L 131.820186 295.397647 
L 132.001241 295.397647 
L 132.073179 294.333741 
L 132.144842 294.333741 
L 132.216233 292.560565 
L 132.393534 292.560565 
L 132.393534 292.205929 
L 132.673786 292.205929 
L 132.673786 291.851294 
L 132.949924 291.851294 
L 133.05244 290.078118 
L 133.222067 290.078118 
L 133.323114 288.659576 
L 133.390178 288.659576 
L 133.390178 288.304941 
L 134.015642 288.304941 
L 134.047992 287.595671 
L 134.176839 287.595671 
L 134.176839 287.241035 
L 134.304809 287.241035 
L 134.304809 286.8864 
L 134.589598 286.8864 
L 134.683578 286.177129 
L 134.745971 286.177129 
L 134.839175 285.467859 
L 135.14656 285.467859 
L 135.207439 284.758588 
L 135.418977 284.758588 
L 135.478982 284.049318 
L 135.74666 284.049318 
L 135.805631 282.985412 
L 135.92302 282.985412 
L 136.010584 281.921506 
L 136.068734 281.921506 
L 136.155623 280.8576 
L 136.752866 280.8576 
L 136.752866 280.502965 
L 137.168148 280.502965 
L 137.168148 280.148329 
L 137.412988 280.148329 
L 137.412988 279.793694 
L 139.411192 279.793694 
L 139.411192 279.439059 
L 139.604629 279.439059 
L 139.604629 279.084424 
L 140.079694 279.084424 
L 140.14993 278.020518 
L 140.950542 278.020518 
L 140.950542 277.665882 
L 142.661862 277.665882 
L 142.661862 277.311247 
L 143.48206 277.311247 
L 143.48206 276.956612 
L 144.621352 276.956612 
L 144.621352 276.601976 
L 149.495789 276.601976 
L 149.495789 276.247341 
L 149.945377 276.247341 
L 149.945377 275.892706 
L 150.425115 275.892706 
L 150.425115 275.538071 
L 151.011358 275.538071 
L 151.089903 274.8288 
L 151.995276 274.8288 
L 152.057422 274.119529 
L 152.316216 274.119529 
L 152.316216 273.764894 
L 152.870956 273.764894 
L 152.870956 273.410259 
L 157.651312 273.410259 
L 157.76159 272.346353 
L 157.862113 272.346353 
L 157.862113 271.991718 
L 158.847515 271.991718 
L 158.847515 271.637082 
L 160.557708 271.637082 
L 160.557708 271.282447 
L 162.081651 271.282447 
L 162.081651 270.927812 
L 165.232599 270.927812 
L 165.232599 270.573176 
L 165.886348 270.573176 
L 165.886348 270.218541 
L 166.758217 270.218541 
L 166.758217 269.863906 
L 168.399768 269.863906 
L 168.399768 269.509271 
L 171.226568 269.509271 
L 171.226568 269.154635 
L 172.699191 269.154635 
L 172.744694 268.445365 
L 173.314415 268.445365 
L 173.314415 268.090729 
L 175.659258 268.090729 
L 175.659258 267.736094 
L 176.079176 267.736094 
L 176.079176 267.381459 
L 185.51966 267.381459 
L 185.51966 267.026824 
L 187.077049 267.026824 
L 187.077049 266.672188 
L 187.424819 266.672188 
L 187.424819 266.317553 
L 188.097994 266.317553 
L 188.097994 265.962918 
L 188.292444 265.962918 
L 188.292444 265.608282 
L 189.031638 265.608282 
L 189.031638 265.253647 
L 193.89531 265.253647 
L 193.89531 264.899012 
L 198.344975 264.899012 
L 198.344975 264.544376 
L 199.352637 264.544376 
L 199.352637 264.189741 
L 205.728198 264.189741 
L 205.728198 263.835106 
L 214.253364 263.835106 
L 214.253364 263.480471 
L 216.125474 263.480471 
L 216.125474 263.125835 
L 216.643639 263.125835 
L 216.643639 262.7712 
L 217.79188 262.7712 
L 217.79188 262.416565 
L 219.497563 262.416565 
L 219.497563 262.061929 
L 220.509235 262.061929 
L 220.509235 261.707294 
L 220.88956 261.707294 
L 220.88956 261.352659 
L 222.054484 261.352659 
L 222.054484 260.998024 
L 222.315238 260.998024 
L 222.315238 260.643388 
L 243.939719 260.643388 
L 243.939719 260.288753 
L 244.663896 260.288753 
L 244.72422 259.579482 
L 248.21811 259.579482 
L 248.21811 259.224847 
L 249.887642 259.224847 
L 249.887642 258.870212 
L 259.187493 258.870212 
L 259.187493 258.515576 
L 261.371962 258.515576 
L 261.371962 258.160941 
L 262.170061 258.160941 
L 262.170061 257.806306 
L 265.795338 257.806306 
L 265.795338 257.451671 
L 266.67673 257.451671 
L 266.67673 257.097035 
L 267.797816 257.097035 
L 267.797816 256.7424 
L 270.023581 256.7424 
L 270.023581 256.387765 
L 271.280688 256.387765 
L 271.283167 255.678494 
L 274.008018 255.678494 
L 274.008018 255.323859 
L 274.220756 255.323859 
L 274.243862 254.614588 
L 274.370723 254.614588 
L 274.370723 254.259953 
L 275.251833 254.259953 
L 275.251833 253.905318 
L 281.17583 253.905318 
L 281.17583 253.550682 
L 282.154184 253.550682 
L 282.154184 253.196047 
L 285.253308 253.196047 
L 285.253308 252.841412 
L 287.131371 252.841412 
L 287.131371 252.132141 
L 289.444279 252.132141 
L 289.444279 251.422871 
L 294.786775 251.422871 
L 294.786775 251.068235 
L 295.231202 251.068235 
L 295.231202 250.7136 
L 296.492234 250.7136 
L 296.492234 250.004329 
L 297.893541 250.004329 
L 297.893541 249.649694 
L 300.212494 249.649694 
L 300.296529 248.585788 
L 300.550595 248.585788 
L 300.550595 248.231153 
L 302.263149 248.231153 
L 302.263149 247.876518 
L 306.821661 247.876518 
L 306.821661 247.521882 
L 310.757685 247.521882 
L 310.757685 247.167247 
L 311.955598 247.167247 
L 311.955598 246.812612 
L 317.508083 246.812612 
L 317.508083 246.457976 
L 322.41381 246.457976 
L 322.41381 246.103341 
L 327.96546 246.103341 
L 327.96546 245.748706 
L 360.8064 245.748706 
L 360.8064 245.748706 
" style="fill: none; stroke: #000080; stroke-width: 1.5; stroke-linecap: square"/>
   </g>
   <g id="line2d_36">
    <defs>
     <path id="m88a4ff8118" d="M 0 6 
C 1.591219 6 3.117479 5.367802 4.242641 4.242641 
C 5.367802 3.117479 6 1.591219 6 0 
C 6 -1.591219 5.367802 -3.117479 4.242641 -4.242641 
C 3.117479 -5.367802 1.591219 -6 0 -6 
C -1.591219 -6 -3.117479 -5.367802 -4.242641 -4.242641 
C -5.367802 -3.117479 -6 -1.591219 -6 0 
C -6 1.591219 -5.367802 3.117479 -4.242641 4.242641 
C -3.117479 5.367802 -1.591219 6 0 6 
z
" style="stroke: #000080; stroke-width: 1.5"/>
    </defs>
    <g>
     <use xlink:href="#m88a4ff8118" x="187.424819" y="266.672188" style="fill-opacity: 0; stroke: #000080; stroke-width: 1.5"/>
     <use xlink:href="#m88a4ff8118" x="243.939719" y="260.643388" style="fill-opacity: 0; stroke: #000080; stroke-width: 1.5"/>
     <use xlink:href="#m88a4ff8118" x="327.96546" y="246.103341" style="fill-opacity: 0; stroke: #000080; stroke-width: 1.5"/>
     <use xlink:href="#m88a4ff8118" x="327.96546" y="245.748706" style="fill-opacity: 0; stroke: #000080; stroke-width: 1.5"/>
     <use xlink:href="#m88a4ff8118" x="360.8064" y="245.748706" style="fill-opacity: 0; stroke: #000080; stroke-width: 1.5"/>
    </g>
   </g>
   <g id="line2d_37">
    <path style="fill: none; stroke: #000080; stroke-width: 1.5; stroke-linecap: square"/>
    <g/>
   </g>
   <g id="line2d_38">
    <path d="M 274.176 255.323859 
" clip-path="url(#p246e46f00a)" style="fill: none; stroke: #000080; stroke-width: 1.5; stroke-linecap: square"/>
    <defs>
     <path id="m682e731199" d="M -12 12 
L 12 -12 
M -12 -12 
L 12 12 
" style="stroke: #000080"/>
    </defs>
    <g clip-path="url(#p246e46f00a)">
     <use xlink:href="#m682e731199" x="274.176" y="255.323859" style="fill: #000080; stroke: #000080"/>
    </g>
   </g>
   <g id="line2d_39">
    <defs>
     <path id="m327d706ac8" d="M 0 1.5 
C 0.397805 1.5 0.77937 1.341951 1.06066 1.06066 
C 1.341951 0.77937 1.5 0.397805 1.5 0 
C 1.5 -0.397805 1.341951 -0.77937 1.06066 -1.06066 
C 0.77937 -1.341951 0.397805 -1.5 0 -1.5 
C -0.397805 -1.5 -0.77937 -1.341951 -1.06066 -1.06066 
C -1.341951 -0.77937 -1.5 -0.397805 -1.5 0 
C -1.5 0.397805 -1.341951 0.77937 -1.06066 1.06066 
C -0.77937 1.341951 -0.397805 1.5 0 1.5 
z
" style="stroke: #ff00ff"/>
    </defs>
    <g>
     <use xlink:href="#m327d706ac8" x="295.208019" y="27.648" style="fill: #ff00ff; stroke: #ff00ff"/>
     <use xlink:href="#m327d706ac8" x="295.208019" y="27.648" style="fill: #ff00ff; stroke: #ff00ff"/>
    </g>
   </g>
   <g id="line2d_40">
    <path d="M 125.373824 298.944 
L 125.425011 297.880094 
L 126.127391 297.880094 
L 126.127391 297.170824 
L 126.323346 297.170824 
L 126.420564 295.043012 
L 126.468985 295.043012 
L 126.468985 294.333741 
L 126.756923 294.333741 
L 126.851931 293.269835 
L 126.993549 293.269835 
L 126.993549 292.560565 
L 132.638982 292.560565 
L 132.673786 291.851294 
L 133.323114 291.851294 
L 133.323114 291.496659 
L 133.523594 291.496659 
L 133.589949 290.787388 
L 133.656071 290.787388 
L 133.689044 290.078118 
L 133.885683 290.078118 
L 133.918257 289.014212 
L 134.336666 289.014212 
L 134.368469 287.950306 
L 134.526683 287.950306 
L 134.620977 287.241035 
L 137.945929 287.241035 
L 137.945929 286.8864 
L 139.043049 286.8864 
L 139.092553 285.822494 
L 139.240288 285.822494 
L 139.240288 285.467859 
L 139.748412 285.467859 
L 139.843661 284.049318 
L 139.867398 284.049318 
L 139.867398 283.694682 
L 141.761416 283.694682 
L 141.761416 283.340047 
L 142.784148 283.340047 
L 142.784148 282.630776 
L 143.086429 282.630776 
L 143.18612 281.212235 
L 143.305055 281.212235 
L 143.403597 280.502965 
L 144.098256 280.502965 
L 144.098256 280.148329 
L 146.142663 280.148329 
L 146.142663 279.793694 
L 146.429353 279.793694 
L 146.429353 279.439059 
L 147.391749 279.439059 
L 147.471089 278.729788 
L 147.660152 278.729788 
L 147.660152 278.375153 
L 147.971093 278.375153 
L 147.971093 278.020518 
L 149.064312 278.020518 
L 149.122418 277.311247 
L 149.223672 277.311247 
L 149.223672 276.956612 
L 149.495789 276.956612 
L 149.495789 276.601976 
L 150.398028 276.601976 
L 150.398028 276.247341 
L 151.795018 276.247341 
L 151.795018 275.892706 
L 152.763699 275.892706 
L 152.859068 274.8288 
L 153.75309 274.8288 
L 153.75309 274.474165 
L 153.933646 274.474165 
L 153.933646 274.119529 
L 154.14583 274.119529 
L 154.14583 273.764894 
L 154.311669 273.764894 
L 154.311669 273.410259 
L 155.151225 273.410259 
L 155.151225 273.055624 
L 155.402189 273.055624 
L 155.402189 272.700988 
L 155.924624 272.700988 
L 155.924624 272.346353 
L 156.065535 272.346353 
L 156.065535 271.991718 
L 156.274942 271.991718 
L 156.274942 271.637082 
L 157.269574 271.637082 
L 157.269574 271.282447 
L 157.447441 271.282447 
L 157.447441 270.927812 
L 157.953034 270.927812 
L 157.953034 270.573176 
L 158.717331 270.573176 
L 158.717331 270.218541 
L 158.864805 270.218541 
L 158.91658 269.509271 
L 159.15633 269.509271 
L 159.24122 268.8 
L 159.560352 268.8 
L 159.560352 268.090729 
L 161.78066 268.090729 
L 161.78066 267.736094 
L 162.306075 267.736094 
L 162.306075 267.381459 
L 163.585698 267.381459 
L 163.585698 267.026824 
L 164.612692 267.026824 
L 164.612692 266.672188 
L 164.764859 266.672188 
L 164.764859 265.962918 
L 164.878182 265.962918 
L 164.878182 265.608282 
L 165.51383 265.608282 
L 165.51383 265.253647 
L 165.850619 265.253647 
L 165.850619 264.899012 
L 170.00055 264.899012 
L 170.00055 264.544376 
L 171.136775 264.544376 
L 171.136775 264.189741 
L 172.242242 264.189741 
L 172.242242 263.835106 
L 173.10076 263.835106 
L 173.10076 263.480471 
L 174.122542 263.480471 
L 174.122542 263.125835 
L 174.923154 263.125835 
L 174.923154 262.7712 
L 176.782208 262.7712 
L 176.782208 262.416565 
L 178.299472 262.416565 
L 178.299472 262.061929 
L 178.546935 262.061929 
L 178.546935 261.707294 
L 179.958573 261.707294 
L 179.958573 261.352659 
L 181.158383 261.352659 
L 181.158383 260.998024 
L 181.977698 260.998024 
L 181.977698 260.643388 
L 186.814869 260.643388 
L 186.814869 260.288753 
L 195.539398 260.288753 
L 195.539398 259.934118 
L 196.025041 259.934118 
L 196.025041 259.579482 
L 197.061485 259.579482 
L 197.061485 259.224847 
L 197.575063 259.224847 
L 197.632372 258.160941 
L 197.855527 258.160941 
L 197.855527 257.806306 
L 198.344975 257.806306 
L 198.42216 257.097035 
L 198.890064 257.097035 
L 198.908581 256.387765 
L 199.497692 256.387765 
L 199.575261 255.678494 
L 199.662393 255.678494 
L 199.662393 255.323859 
L 199.801167 255.323859 
L 199.892141 254.259953 
L 200.189368 254.259953 
L 200.189368 253.905318 
L 200.380505 253.905318 
L 200.380505 253.550682 
L 201.473906 253.550682 
L 201.473906 253.196047 
L 202.11682 253.196047 
L 202.11682 252.841412 
L 203.35975 252.841412 
L 203.35975 252.486776 
L 203.780281 252.486776 
L 203.780281 252.132141 
L 204.005118 252.132141 
L 204.005118 251.777506 
L 206.005219 251.777506 
L 206.005219 251.422871 
L 207.038221 251.422871 
L 207.038221 251.068235 
L 212.289098 251.068235 
L 212.289098 250.7136 
L 212.589609 250.7136 
L 212.589609 250.358965 
L 213.593355 250.358965 
L 213.593355 250.004329 
L 213.884093 250.004329 
L 213.884093 249.649694 
L 215.020689 249.649694 
L 215.020689 249.295059 
L 215.596865 249.295059 
L 215.596865 248.940424 
L 215.941771 248.940424 
L 216.016462 248.231153 
L 216.071047 248.231153 
L 216.071047 247.876518 
L 216.318406 247.876518 
L 216.318406 247.521882 
L 216.698434 247.521882 
L 216.755459 246.457976 
L 216.936548 246.457976 
L 216.959407 245.748706 
L 217.171686 245.748706 
L 217.178305 245.039435 
L 219.973658 245.039435 
L 219.973658 244.6848 
L 220.686471 244.6848 
L 220.686471 243.975529 
L 227.499023 243.975529 
L 227.499023 243.620894 
L 227.637292 243.620894 
L 227.637292 243.266259 
L 227.872049 243.266259 
L 227.89739 242.202353 
L 227.989433 242.202353 
L 228.033209 241.138447 
L 228.295474 241.138447 
L 228.295474 240.783812 
L 228.526893 240.783812 
L 228.526893 240.429176 
L 228.665447 240.429176 
L 228.665447 240.074541 
L 229.613593 240.074541 
L 229.613593 239.719906 
L 229.797619 239.719906 
L 229.797619 239.365271 
L 229.917663 239.365271 
L 230.022986 238.301365 
L 230.371988 238.301365 
L 230.477876 237.592094 
L 231.126973 237.592094 
L 231.126973 237.237459 
L 231.802253 237.237459 
L 231.846754 236.528188 
L 233.327625 236.528188 
L 233.355983 235.818918 
L 233.454573 235.818918 
L 233.454573 235.464282 
L 233.713526 235.464282 
L 233.713526 235.109647 
L 234.680736 235.109647 
L 234.680736 234.755012 
L 234.955106 234.755012 
L 234.98731 234.045741 
L 235.144811 234.045741 
L 235.144811 233.691106 
L 235.889959 233.691106 
L 235.889959 233.336471 
L 236.9687 233.336471 
L 236.9687 232.981835 
L 237.641233 232.981835 
L 237.641233 232.6272 
L 237.850487 232.6272 
L 237.894675 231.563294 
L 238.159302 231.563294 
L 238.159302 231.208659 
L 238.288142 231.208659 
L 238.288142 230.854024 
L 238.701715 230.854024 
L 238.701715 230.499388 
L 238.951511 230.499388 
L 238.975967 229.435482 
L 239.097772 229.435482 
L 239.194652 228.726212 
L 239.239531 228.726212 
L 239.239531 228.371576 
L 239.505633 228.371576 
L 239.505633 228.016941 
L 240.816276 228.016941 
L 240.816276 227.662306 
L 241.037919 227.662306 
L 241.124018 226.953035 
L 241.160502 226.953035 
L 241.160502 226.5984 
L 241.355335 226.5984 
L 241.398358 225.889129 
L 242.848833 225.889129 
L 242.948034 225.179859 
L 242.987568 225.179859 
L 243.085158 224.470588 
L 243.105675 224.470588 
L 243.202656 223.406682 
L 243.319425 223.406682 
L 243.385176 222.342776 
L 243.563645 222.342776 
L 243.563645 221.988141 
L 244.198855 221.988141 
L 244.309618 210.285176 
L 244.856094 210.285176 
L 244.856094 209.930541 
L 245.134461 209.930541 
L 245.18223 209.221271 
L 245.396873 209.221271 
L 245.396873 208.866635 
L 245.530859 208.866635 
L 245.530859 208.512 
L 245.691197 208.512 
L 245.691197 208.157365 
L 245.809263 208.157365 
L 245.809263 207.802729 
L 246.814509 207.802729 
L 246.814509 207.448094 
L 247.015949 207.448094 
L 247.015949 207.093459 
L 247.338816 207.093459 
L 247.338816 206.738824 
L 248.493687 206.738824 
L 248.560102 206.029553 
L 249.392976 206.029553 
L 249.392976 205.674918 
L 249.535442 205.674918 
L 249.605925 194.681224 
L 249.647548 194.681224 
L 249.647548 193.971953 
L 249.90467 193.971953 
L 249.90467 193.617318 
L 250.459709 193.617318 
L 250.459709 193.262682 
L 250.791 193.262682 
L 250.791 192.908047 
L 251.14947 192.908047 
L 251.240863 183.687529 
L 251.310831 183.687529 
L 251.393048 181.205082 
L 251.573685 181.205082 
L 251.573685 180.850447 
L 251.733138 180.850447 
L 251.770315 178.013365 
L 252.058107 178.013365 
L 252.058107 177.658729 
L 252.544986 177.658729 
L 252.650132 175.176282 
L 252.676342 175.176282 
L 252.693618 174.467012 
L 253.114163 174.467012 
L 253.202021 173.757741 
L 253.397078 173.757741 
L 253.397078 173.403106 
L 253.586648 173.403106 
L 253.667631 172.693835 
L 254.113635 172.693835 
L 254.16788 171.984565 
L 254.245916 171.984565 
L 254.343885 171.275294 
L 254.650974 171.275294 
L 254.650974 170.920659 
L 254.909595 170.920659 
L 254.998285 160.636235 
L 255.039951 160.636235 
L 255.039951 159.217694 
L 255.511476 159.217694 
L 255.552731 156.735247 
L 255.636078 156.735247 
L 255.636078 156.380612 
L 255.84165 156.380612 
L 255.84165 156.025976 
L 256.242318 156.025976 
L 256.242318 155.316706 
L 256.499119 155.316706 
L 256.603633 154.607435 
L 256.681604 154.607435 
L 256.782267 148.224 
L 256.799663 148.224 
L 256.799663 147.514729 
L 256.926635 147.514729 
L 257.010451 144.677647 
L 257.343638 144.677647 
L 257.369166 143.613741 
L 257.66596 143.613741 
L 257.740874 142.549835 
L 257.811811 142.549835 
L 257.858759 140.776659 
L 257.963845 140.776659 
L 257.963845 140.422024 
L 258.076848 140.422024 
L 258.167116 139.358118 
L 258.433919 139.358118 
L 258.506665 137.939576 
L 258.712918 137.939576 
L 258.755667 137.230306 
L 259.097724 137.230306 
L 259.178936 136.1664 
L 259.507748 136.1664 
L 259.588071 132.974682 
L 259.762311 132.974682 
L 259.851146 131.201506 
L 260.007922 131.201506 
L 260.106102 129.428329 
L 260.126916 129.428329 
L 260.17081 128.009788 
L 260.424938 128.009788 
L 260.480575 127.300518 
L 260.552822 127.300518 
L 260.585161 125.172706 
L 260.74672 125.172706 
L 260.811868 124.1088 
L 260.999187 124.1088 
L 261.051227 122.690259 
L 261.134643 122.690259 
L 261.219977 121.626353 
L 261.268832 121.626353 
L 261.343962 120.207812 
L 261.517199 120.207812 
L 261.517199 119.853176 
L 261.884646 119.853176 
L 261.902571 119.143906 
L 262.020358 119.143906 
L 262.0972 117.370729 
L 262.376966 117.370729 
L 262.447316 116.661459 
L 262.561681 116.661459 
L 262.572316 115.952188 
L 263.05901 115.952188 
L 263.095593 115.242918 
L 263.177762 115.242918 
L 263.177762 114.888282 
L 263.303751 114.888282 
L 263.399369 113.824376 
L 263.429535 113.824376 
L 263.433065 113.115106 
L 263.557229 113.115106 
L 263.557229 112.760471 
L 263.689549 112.760471 
L 263.770054 111.696565 
L 263.905632 111.696565 
L 263.905632 111.341929 
L 264.022466 111.341929 
L 264.118394 110.278024 
L 264.280038 110.278024 
L 264.280547 109.568753 
L 264.556353 109.568753 
L 264.62674 108.504847 
L 264.707573 108.504847 
L 264.753293 107.795576 
L 264.860272 107.795576 
L 264.961766 106.731671 
L 265.022119 106.731671 
L 265.074163 104.603859 
L 265.159541 104.603859 
L 265.228438 103.539953 
L 265.270766 103.539953 
L 265.270766 103.185318 
L 265.394723 103.185318 
L 265.394723 102.830682 
L 265.552204 102.830682 
L 265.660458 101.766776 
L 265.731614 101.766776 
L 265.731614 101.412141 
L 265.935439 101.412141 
L 266.039167 100.702871 
L 266.069237 100.702871 
L 266.095414 98.220424 
L 266.221193 98.220424 
L 266.289349 96.801882 
L 266.514831 96.801882 
L 266.525796 96.092612 
L 266.692166 96.092612 
L 266.799752 94.674071 
L 266.839443 94.674071 
L 266.933922 93.9648 
L 266.960939 93.9648 
L 266.960939 93.610165 
L 267.085908 93.610165 
L 267.110024 92.900894 
L 267.202749 92.900894 
L 267.22413 92.191624 
L 267.332082 92.191624 
L 267.436295 91.482353 
L 267.483662 91.482353 
L 267.590246 90.063812 
L 267.619776 90.063812 
L 267.625133 89.354541 
L 267.787991 89.354541 
L 267.787991 88.999906 
L 267.905238 88.999906 
L 268.006907 87.936 
L 268.157882 87.936 
L 268.207733 86.517459 
L 268.31652 86.517459 
L 268.316802 85.808188 
L 268.54819 85.808188 
L 268.647385 85.098918 
L 268.66754 85.098918 
L 268.753365 84.389647 
L 268.782003 84.389647 
L 268.837601 83.325741 
L 268.907851 83.325741 
L 268.913774 82.616471 
L 269.066855 82.616471 
L 269.066855 82.261835 
L 269.30371 82.261835 
L 269.30371 81.9072 
L 269.429105 81.9072 
L 269.444037 81.197929 
L 269.624559 81.197929 
L 269.663359 80.488659 
L 269.755979 80.488659 
L 269.81027 79.779388 
L 269.951262 79.779388 
L 269.951262 79.424753 
L 270.094852 79.424753 
L 270.119024 78.715482 
L 270.275769 78.715482 
L 270.324473 78.006212 
L 270.5866 78.006212 
L 270.651622 76.942306 
L 270.876021 76.942306 
L 270.883059 76.233035 
L 271.018289 76.233035 
L 271.018934 75.523765 
L 271.131643 75.523765 
L 271.16046 74.814494 
L 271.247285 74.814494 
L 271.247285 74.459859 
L 271.389357 74.459859 
L 271.44212 73.750588 
L 271.583964 73.750588 
L 271.681688 72.686682 
L 271.833764 72.686682 
L 271.833764 72.332047 
L 272.100951 72.332047 
L 272.100951 71.977412 
L 272.289347 71.977412 
L 272.289347 71.622776 
L 272.41055 71.622776 
L 272.41055 71.268141 
L 272.551927 71.268141 
L 272.55853 70.558871 
L 272.6793 70.558871 
L 272.6793 70.204235 
L 272.813179 70.204235 
L 272.813179 69.8496 
L 272.94818 69.8496 
L 272.987617 69.140329 
L 273.369923 69.140329 
L 273.445074 68.431059 
L 273.633845 68.431059 
L 273.682959 67.012518 
L 273.778211 67.012518 
L 273.886837 65.239341 
L 273.999797 65.239341 
L 274.105192 64.530071 
L 274.217359 64.530071 
L 274.273791 63.8208 
L 274.439112 63.8208 
L 274.50193 62.756894 
L 274.582422 62.756894 
L 274.582422 62.402259 
L 274.82567 62.402259 
L 274.927942 61.692988 
L 275.12223 61.692988 
L 275.12223 61.338353 
L 275.26904 61.338353 
L 275.26904 60.983718 
L 275.508041 60.983718 
L 275.606191 59.919812 
L 275.679395 59.919812 
L 275.779887 58.501271 
L 275.793253 58.501271 
L 275.818869 57.792 
L 275.99373 57.792 
L 275.99373 57.437365 
L 276.108899 57.437365 
L 276.163021 56.728094 
L 276.256102 56.728094 
L 276.352295 56.018824 
L 276.391464 56.018824 
L 276.486703 54.245647 
L 276.511277 54.245647 
L 276.511277 53.891012 
L 276.96994 53.891012 
L 276.9884 53.181741 
L 277.246539 53.181741 
L 277.246539 52.827106 
L 277.396426 52.827106 
L 277.396426 52.472471 
L 277.581108 52.472471 
L 277.6528 51.7632 
L 277.743231 51.7632 
L 277.845956 50.699294 
L 277.920902 50.699294 
L 277.971045 49.990024 
L 278.26404 49.990024 
L 278.26404 49.635388 
L 278.432997 49.635388 
L 278.539449 48.571482 
L 278.784708 48.571482 
L 278.870852 47.862212 
L 278.947351 47.862212 
L 279.051839 46.443671 
L 279.135297 46.443671 
L 279.135297 46.089035 
L 279.330054 46.089035 
L 279.383286 45.379765 
L 279.526297 45.379765 
L 279.526297 45.025129 
L 279.6674 45.025129 
L 279.752471 43.251953 
L 279.789915 43.251953 
L 279.827758 42.542682 
L 280.03182 42.542682 
L 280.107619 41.124141 
L 280.241555 41.124141 
L 280.241555 40.769506 
L 280.865723 40.769506 
L 280.8665 40.060235 
L 281.118352 40.060235 
L 281.118352 39.7056 
L 281.637027 39.7056 
L 281.712386 38.287059 
L 281.790858 38.287059 
L 281.864429 37.223153 
L 282.36785 37.223153 
L 282.36785 36.868518 
L 282.819015 36.868518 
L 282.819015 36.513882 
L 283.039976 36.513882 
L 283.103891 35.449976 
L 283.423149 35.449976 
L 283.423149 35.095341 
L 283.777208 35.095341 
L 283.777208 34.740706 
L 284.735323 34.740706 
L 284.735323 34.386071 
L 285.295312 34.386071 
L 285.337285 33.322165 
L 285.425472 33.322165 
L 285.425472 32.967529 
L 285.606753 32.967529 
L 285.638006 31.903624 
L 287.675551 31.903624 
L 287.675551 31.548988 
L 287.78996 31.548988 
L 287.78996 31.194353 
L 288.232832 31.194353 
L 288.232832 30.839718 
L 289.765475 30.839718 
L 289.765475 30.485082 
L 290.069549 30.485082 
L 290.069549 30.130447 
L 290.368356 30.130447 
L 290.368356 29.775812 
L 291.310827 29.775812 
L 291.310827 29.421176 
L 291.667699 29.421176 
L 291.667699 29.066541 
L 292.290977 29.066541 
L 292.385627 28.357271 
L 295.085614 28.357271 
L 295.085614 28.002635 
L 295.208019 28.002635 
L 295.208019 27.648 
L 360.8064 27.648 
L 360.8064 27.648 
" style="fill: none; stroke: #ff00ff; stroke-width: 1.5; stroke-linecap: square"/>
   </g>
   <g id="line2d_41">
    <defs>
     <path id="m659cf8ad13" d="M 0 8.485281 
L 5.091169 0 
L 0 -8.485281 
L -5.091169 0 
z
" style="stroke: #ff00ff; stroke-width: 1.5; stroke-linejoin: miter"/>
    </defs>
    <g>
     <use xlink:href="#m659cf8ad13" x="200.189368" y="254.259953" style="fill-opacity: 0; stroke: #ff00ff; stroke-width: 1.5; stroke-linejoin: miter"/>
     <use xlink:href="#m659cf8ad13" x="256.761721" y="149.642541" style="fill-opacity: 0; stroke: #ff00ff; stroke-width: 1.5; stroke-linejoin: miter"/>
     <use xlink:href="#m659cf8ad13" x="295.208019" y="28.002635" style="fill-opacity: 0; stroke: #ff00ff; stroke-width: 1.5; stroke-linejoin: miter"/>
     <use xlink:href="#m659cf8ad13" x="295.208019" y="27.648" style="fill-opacity: 0; stroke: #ff00ff; stroke-width: 1.5; stroke-linejoin: miter"/>
     <use xlink:href="#m659cf8ad13" x="360.8064" y="27.648" style="fill-opacity: 0; stroke: #ff00ff; stroke-width: 1.5; stroke-linejoin: miter"/>
    </g>
   </g>
   <g id="line2d_42">
    <path style="fill: none; stroke: #ff00ff; stroke-width: 1.5; stroke-linecap: square"/>
    <g/>
   </g>
   <g id="line2d_43">
    <path d="M 234.98731 234.045741 
" clip-path="url(#p246e46f00a)" style="fill: none; stroke: #ff00ff; stroke-width: 1.5; stroke-linecap: square"/>
    <defs>
     <path id="meca5945190" d="M -12 12 
L 12 -12 
M -12 -12 
L 12 12 
" style="stroke: #ff00ff"/>
    </defs>
    <g clip-path="url(#p246e46f00a)">
     <use xlink:href="#meca5945190" x="234.98731" y="234.045741" style="fill: #ff00ff; stroke: #ff00ff"/>
    </g>
   </g>
   <g id="line2d_44">
    <path d="M 360.8064 245.748706 
L 380.514816 293.51808 
" style="fill: none; stroke: #000080; stroke-width: 1.5; stroke-linecap: square"/>
    <g>
     <use xlink:href="#m88a4ff8118" x="360.8064" y="245.748706" style="fill-opacity: 0; stroke: #000080; stroke-width: 1.5"/>
     <use xlink:href="#m88a4ff8118" x="380.514816" y="293.51808" style="fill-opacity: 0; stroke: #000080; stroke-width: 1.5"/>
    </g>
   </g>
   <g id="line2d_45">
    <path d="M 360.8064 27.648 
L 380.514816 163.296 
" style="fill: none; stroke: #ff00ff; stroke-width: 1.5; stroke-linecap: square"/>
    <g>
     <use xlink:href="#m659cf8ad13" x="360.8064" y="27.648" style="fill-opacity: 0; stroke: #ff00ff; stroke-width: 1.5; stroke-linejoin: miter"/>
     <use xlink:href="#m659cf8ad13" x="380.514816" y="163.296" style="fill-opacity: 0; stroke: #ff00ff; stroke-width: 1.5; stroke-linejoin: miter"/>
    </g>
   </g>
   <g id="line2d_46">
    <path d="M 360.8064 298.944 
L 360.8064 27.648 
" style="fill: none; stroke: #000000; stroke-width: 1.5; stroke-linecap: square"/>
   </g>
   <g id="patch_3">
    <path d="M 57.6 298.944 
L 360.8064 298.944 
" style="fill: none; stroke: #000000; stroke-width: 0.8; stroke-linejoin: miter; stroke-linecap: square"/>
   </g>
   <g id="patch_4">
    <path d="M 57.6 27.648 
L 360.8064 27.648 
" style="fill: none; stroke: #000000; stroke-width: 0.8; stroke-linejoin: miter; stroke-linecap: square"/>
   </g>
   <g id="text_13">
    <!-- LCGA -->
    <g transform="translate(386.578944 297.381205)scale(0.14 -0.14)">
     <defs>
      <path id="DejaVuSans-4c" d="M 628 4666 
L 1259 4666 
L 1259 531 
L 3531 531 
L 3531 0 
L 628 0 
L 628 4666 
z
" transform="scale(0.015625)"/>
      <path id="DejaVuSans-43" d="M 4122 4306 
L 4122 3641 
Q 3803 3938 3442 4084 
Q 3081 4231 2675 4231 
Q 1875 4231 1450 3742 
Q 1025 3253 1025 2328 
Q 1025 1406 1450 917 
Q 1875 428 2675 428 
Q 3081 428 3442 575 
Q 3803 722 4122 1019 
L 4122 359 
Q 3791 134 3420 21 
Q 3050 -91 2638 -91 
Q 1578 -91 968 557 
Q 359 1206 359 2328 
Q 359 3453 968 4101 
Q 1578 4750 2638 4750 
Q 3056 4750 3426 4639 
Q 3797 4528 4122 4306 
z
" transform="scale(0.015625)"/>
      <path id="DejaVuSans-47" d="M 3809 666 
L 3809 1919 
L 2778 1919 
L 2778 2438 
L 4434 2438 
L 4434 434 
Q 4069 175 3628 42 
Q 3188 -91 2688 -91 
Q 1594 -91 976 548 
Q 359 1188 359 2328 
Q 359 3472 976 4111 
Q 1594 4750 2688 4750 
Q 3144 4750 3555 4637 
Q 3966 4525 4313 4306 
L 4313 3634 
Q 3963 3931 3569 4081 
Q 3175 4231 2741 4231 
Q 1884 4231 1454 3753 
Q 1025 3275 1025 2328 
Q 1025 1384 1454 906 
Q 1884 428 2741 428 
Q 3075 428 3337 486 
Q 3600 544 3809 666 
z
" transform="scale(0.015625)"/>
      <path id="DejaVuSans-41" d="M 2188 4044 
L 1331 1722 
L 3047 1722 
L 2188 4044 
z
M 1831 4666 
L 2547 4666 
L 4325 0 
L 3669 0 
L 3244 1197 
L 1141 1197 
L 716 0 
L 50 0 
L 1831 4666 
z
" transform="scale(0.015625)"/>
     </defs>
     <use xlink:href="#DejaVuSans-4c"/>
     <use xlink:href="#DejaVuSans-43" x="55.712891"/>
     <use xlink:href="#DejaVuSans-47" x="125.537109"/>
     <use xlink:href="#DejaVuSans-41" x="203.027344"/>
    </g>
   </g>
   <g id="text_14">
    <!-- EvoSpace- -->
    <g transform="translate(386.578944 167.159125)scale(0.14 -0.14)">
     <defs>
      <path id="DejaVuSans-45" d="M 628 4666 
L 3578 4666 
L 3578 4134 
L 1259 4134 
L 1259 2753 
L 3481 2753 
L 3481 2222 
L 1259 2222 
L 1259 531 
L 3634 531 
L 3634 0 
L 628 0 
L 628 4666 
z
" transform="scale(0.015625)"/>
      <path id="DejaVuSans-53" d="M 3425 4513 
L 3425 3897 
Q 3066 4069 2747 4153 
Q 2428 4238 2131 4238 
Q 1616 4238 1336 4038 
Q 1056 3838 1056 3469 
Q 1056 3159 1242 3001 
Q 1428 2844 1947 2747 
L 2328 2669 
Q 3034 2534 3370 2195 
Q 3706 1856 3706 1288 
Q 3706 609 3251 259 
Q 2797 -91 1919 -91 
Q 1588 -91 1214 -16 
Q 841 59 441 206 
L 441 856 
Q 825 641 1194 531 
Q 1563 422 1919 422 
Q 2459 422 2753 634 
Q 3047 847 3047 1241 
Q 3047 1584 2836 1778 
Q 2625 1972 2144 2069 
L 1759 2144 
Q 1053 2284 737 2584 
Q 422 2884 422 3419 
Q 422 4038 858 4394 
Q 1294 4750 2059 4750 
Q 2388 4750 2728 4690 
Q 3069 4631 3425 4513 
z
" transform="scale(0.015625)"/>
     </defs>
     <use xlink:href="#DejaVuSans-45"/>
     <use xlink:href="#DejaVuSans-76" x="63.183594"/>
     <use xlink:href="#DejaVuSans-6f" x="122.363281"/>
     <use xlink:href="#DejaVuSans-53" x="183.544922"/>
     <use xlink:href="#DejaVuSans-70" x="247.021484"/>
     <use xlink:href="#DejaVuSans-61" x="310.498047"/>
     <use xlink:href="#DejaVuSans-63" x="371.777344"/>
     <use xlink:href="#DejaVuSans-65" x="426.757812"/>
     <use xlink:href="#DejaVuSans-2d" x="488.28125"/>
    </g>
   </g>
   <g id="text_15">
    <!-- best 2009 -->
    <g transform="translate(386.578944 36.937045)scale(0.14 -0.14)">
     <defs>
      <path id="DejaVuSans-62" d="M 3116 1747 
Q 3116 2381 2855 2742 
Q 2594 3103 2138 3103 
Q 1681 3103 1420 2742 
Q 1159 2381 1159 1747 
Q 1159 1113 1420 752 
Q 1681 391 2138 391 
Q 2594 391 2855 752 
Q 3116 1113 3116 1747 
z
M 1159 2969 
Q 1341 3281 1617 3432 
Q 1894 3584 2278 3584 
Q 2916 3584 3314 3078 
Q 3713 2572 3713 1747 
Q 3713 922 3314 415 
Q 2916 -91 2278 -91 
Q 1894 -91 1617 61 
Q 1341 213 1159 525 
L 1159 0 
L 581 0 
L 581 4863 
L 1159 4863 
L 1159 2969 
z
" transform="scale(0.015625)"/>
      <path id="DejaVuSans-39" d="M 703 97 
L 703 672 
Q 941 559 1184 500 
Q 1428 441 1663 441 
Q 2288 441 2617 861 
Q 2947 1281 2994 2138 
Q 2813 1869 2534 1725 
Q 2256 1581 1919 1581 
Q 1219 1581 811 2004 
Q 403 2428 403 3163 
Q 403 3881 828 4315 
Q 1253 4750 1959 4750 
Q 2769 4750 3195 4129 
Q 3622 3509 3622 2328 
Q 3622 1225 3098 567 
Q 2575 -91 1691 -91 
Q 1453 -91 1209 -44 
Q 966 3 703 97 
z
M 1959 2075 
Q 2384 2075 2632 2365 
Q 2881 2656 2881 3163 
Q 2881 3666 2632 3958 
Q 2384 4250 1959 4250 
Q 1534 4250 1286 3958 
Q 1038 3666 1038 3163 
Q 1038 2656 1286 2365 
Q 1534 2075 1959 2075 
z
" transform="scale(0.015625)"/>
     </defs>
     <use xlink:href="#DejaVuSans-62"/>
     <use xlink:href="#DejaVuSans-65" x="63.476562"/>
     <use xlink:href="#DejaVuSans-73" x="125"/>
     <use xlink:href="#DejaVuSans-74" x="177.099609"/>
     <use xlink:href="#DejaVuSans-20" x="216.308594"/>
     <use xlink:href="#DejaVuSans-32" x="248.095703"/>
     <use xlink:href="#DejaVuSans-30" x="311.71875"/>
     <use xlink:href="#DejaVuSans-30" x="375.341797"/>
     <use xlink:href="#DejaVuSans-39" x="438.964844"/>
    </g>
   </g>
   <g id="text_16">
    <!-- bbob f7, 10-D -->
    <g transform="translate(60.632064 38.111366)scale(0.102 -0.102)">
     <defs>
      <path id="DejaVuSans-37" d="M 525 4666 
L 3525 4666 
L 3525 4397 
L 1831 0 
L 1172 0 
L 2766 4134 
L 525 4134 
L 525 4666 
z
" transform="scale(0.015625)"/>
      <path id="DejaVuSans-44" d="M 1259 4147 
L 1259 519 
L 2022 519 
Q 2988 519 3436 956 
Q 3884 1394 3884 2338 
Q 3884 3275 3436 3711 
Q 2988 4147 2022 4147 
L 1259 4147 
z
M 628 4666 
L 1925 4666 
Q 3281 4666 3915 4102 
Q 4550 3538 4550 2338 
Q 4550 1131 3912 565 
Q 3275 0 1925 0 
L 628 0 
L 628 4666 
z
" transform="scale(0.015625)"/>
     </defs>
     <use xlink:href="#DejaVuSans-62"/>
     <use xlink:href="#DejaVuSans-62" x="63.476562"/>
     <use xlink:href="#DejaVuSans-6f" x="126.953125"/>
     <use xlink:href="#DejaVuSans-62" x="188.134766"/>
     <use xlink:href="#DejaVuSans-20" x="251.611328"/>
     <use xlink:href="#DejaVuSans-66" x="283.398438"/>
     <use xlink:href="#DejaVuSans-37" x="318.603516"/>
     <use xlink:href="#DejaVuSans-2c" x="382.226562"/>
     <use xlink:href="#DejaVuSans-20" x="414.013672"/>
     <use xlink:href="#DejaVuSans-31" x="445.800781"/>
     <use xlink:href="#DejaVuSans-30" x="509.423828"/>
     <use xlink:href="#DejaVuSans-2d" x="573.046875"/>
     <use xlink:href="#DejaVuSans-44" x="609.130859"/>
    </g>
    <!-- 51 targets: 100..1e-08 -->
    <g transform="translate(60.632064 49.533135)scale(0.102 -0.102)">
     <defs>
      <path id="DejaVuSans-35" d="M 691 4666 
L 3169 4666 
L 3169 4134 
L 1269 4134 
L 1269 2991 
Q 1406 3038 1543 3061 
Q 1681 3084 1819 3084 
Q 2600 3084 3056 2656 
Q 3513 2228 3513 1497 
Q 3513 744 3044 326 
Q 2575 -91 1722 -91 
Q 1428 -91 1123 -41 
Q 819 9 494 109 
L 494 744 
Q 775 591 1075 516 
Q 1375 441 1709 441 
Q 2250 441 2565 725 
Q 2881 1009 2881 1497 
Q 2881 1984 2565 2268 
Q 2250 2553 1709 2553 
Q 1456 2553 1204 2497 
Q 953 2441 691 2322 
L 691 4666 
z
" transform="scale(0.015625)"/>
      <path id="DejaVuSans-3a" d="M 750 794 
L 1409 794 
L 1409 0 
L 750 0 
L 750 794 
z
M 750 3309 
L 1409 3309 
L 1409 2516 
L 750 2516 
L 750 3309 
z
" transform="scale(0.015625)"/>
     </defs>
     <use xlink:href="#DejaVuSans-35"/>
     <use xlink:href="#DejaVuSans-31" x="63.623047"/>
     <use xlink:href="#DejaVuSans-20" x="127.246094"/>
     <use xlink:href="#DejaVuSans-74" x="159.033203"/>
     <use xlink:href="#DejaVuSans-61" x="198.242188"/>
     <use xlink:href="#DejaVuSans-72" x="259.521484"/>
     <use xlink:href="#DejaVuSans-67" x="298.884766"/>
     <use xlink:href="#DejaVuSans-65" x="362.361328"/>
     <use xlink:href="#DejaVuSans-74" x="423.884766"/>
     <use xlink:href="#DejaVuSans-73" x="463.09375"/>
     <use xlink:href="#DejaVuSans-3a" x="515.193359"/>
     <use xlink:href="#DejaVuSans-20" x="548.884766"/>
     <use xlink:href="#DejaVuSans-31" x="580.671875"/>
     <use xlink:href="#DejaVuSans-30" x="644.294922"/>
     <use xlink:href="#DejaVuSans-30" x="707.917969"/>
     <use xlink:href="#DejaVuSans-2e" x="771.541016"/>
     <use xlink:href="#DejaVuSans-2e" x="803.328125"/>
     <use xlink:href="#DejaVuSans-31" x="835.115234"/>
     <use xlink:href="#DejaVuSans-65" x="898.738281"/>
     <use xlink:href="#DejaVuSans-2d" x="960.261719"/>
     <use xlink:href="#DejaVuSans-30" x="996.345703"/>
     <use xlink:href="#DejaVuSans-38" x="1059.96875"/>
    </g>
    <!-- 15 instances -->
    <g transform="translate(60.632064 60.954904)scale(0.102 -0.102)">
     <use xlink:href="#DejaVuSans-31"/>
     <use xlink:href="#DejaVuSans-35" x="63.623047"/>
     <use xlink:href="#DejaVuSans-20" x="127.246094"/>
     <use xlink:href="#DejaVuSans-69" x="159.033203"/>
     <use xlink:href="#DejaVuSans-6e" x="186.816406"/>
     <use xlink:href="#DejaVuSans-73" x="250.195312"/>
     <use xlink:href="#DejaVuSans-74" x="302.294922"/>
     <use xlink:href="#DejaVuSans-61" x="341.503906"/>
     <use xlink:href="#DejaVuSans-6e" x="402.783203"/>
     <use xlink:href="#DejaVuSans-63" x="466.162109"/>
     <use xlink:href="#DejaVuSans-65" x="521.142578"/>
     <use xlink:href="#DejaVuSans-73" x="582.666016"/>
    </g>
   </g>
   <g id="text_17">
    <!-- v2.6 -->
    <g style="fill: #808080" transform="translate(198.292262 294.151352)scale(0.1 -0.1)">
     <use xlink:href="#DejaVuSans-76"/>
     <use xlink:href="#DejaVuSans-32" x="59.179688"/>
     <use xlink:href="#DejaVuSans-2e" x="122.802734"/>
     <use xlink:href="#DejaVuSans-36" x="154.589844"/>
    </g>
   </g>
   <g id="text_18">
    <!-- 7 Step-ellipsoid -->
    <g transform="translate(131.993825 21.648)scale(0.2 -0.2)">
     <use xlink:href="#DejaVuSans-37"/>
     <use xlink:href="#DejaVuSans-20" x="63.623047"/>
     <use xlink:href="#DejaVuSans-53" x="95.410156"/>
     <use xlink:href="#DejaVuSans-74" x="158.886719"/>
     <use xlink:href="#DejaVuSans-65" x="198.095703"/>
     <use xlink:href="#DejaVuSans-70" x="259.619141"/>
     <use xlink:href="#DejaVuSans-2d" x="323.095703"/>
     <use xlink:href="#DejaVuSans-65" x="359.179688"/>
     <use xlink:href="#DejaVuSans-6c" x="420.703125"/>
     <use xlink:href="#DejaVuSans-6c" x="448.486328"/>
     <use xlink:href="#DejaVuSans-69" x="476.269531"/>
     <use xlink:href="#DejaVuSans-70" x="504.052734"/>
     <use xlink:href="#DejaVuSans-73" x="567.529297"/>
     <use xlink:href="#DejaVuSans-6f" x="619.628906"/>
     <use xlink:href="#DejaVuSans-69" x="680.810547"/>
     <use xlink:href="#DejaVuSans-64" x="708.59375"/>
    </g>
   </g>
  </g>
 </g>
 <defs>
  <clipPath id="p246e46f00a">
   <rect x="57.6" y="27.648" width="303.2064" height="271.296"/>
  </clipPath>
 </defs>
</svg>
