<?xml version="1.0" encoding="utf-8" standalone="no"?>
<!DOCTYPE svg PUBLIC "-//W3C//DTD SVG 1.1//EN"
  "http://www.w3.org/Graphics/SVG/1.1/DTD/svg11.dtd">
<svg xmlns:xlink="http://www.w3.org/1999/xlink" width="460.8pt" height="345.6pt" viewBox="0 0 460.8 345.6" xmlns="http://www.w3.org/2000/svg" version="1.1">
 <metadata>
  <rdf:RDF xmlns:dc="http://purl.org/dc/elements/1.1/" xmlns:cc="http://creativecommons.org/ns#" xmlns:rdf="http://www.w3.org/1999/02/22-rdf-syntax-ns#">
   <cc:Work>
    <dc:type rdf:resource="http://purl.org/dc/dcmitype/StillImage"/>
    <dc:date>2024-05-29T08:05:35.483446</dc:date>
    <dc:format>image/svg+xml</dc:format>
    <dc:creator>
     <cc:Agent>
      <dc:title>Matplotlib v3.5.1, https://matplotlib.org/</dc:title>
     </cc:Agent>
    </dc:creator>
   </cc:Work>
  </rdf:RDF>
 </metadata>
 <defs>
  <style type="text/css">*{stroke-linejoin: round; stroke-linecap: butt}</style>
 </defs>
 <g id="figure_1">
  <g id="patch_1">
   <path d="M 0 345.6 
L 460.8 345.6 
L 460.8 0 
L 0 0 
z
" style="fill: #ffffff"/>
  </g>
  <g id="axes_1">
   <g id="patch_2">
    <path d="M 57.6 298.944 
L 360.8064 298.944 
L 360.8064 27.648 
L 57.6 27.648 
z
" style="fill: #ffffff"/>
   </g>
   <g id="line2d_1">
    <path d="M 34.951403 298.944 
L 34.951403 293.624471 
L 61.029752 293.624471 
L 61.029752 288.304941 
L 71.556993 288.304941 
L 71.556993 277.665882 
L 71.999638 277.665882 
L 71.999638 27.648 
L 360.8064 27.648 
" style="fill: none; stroke: #f5deb3; stroke-width: 4; stroke-linecap: square"/>
   </g>
   <g id="line2d_2">
    <defs>
     <path id="m0718236b06" d="M 0 7.778175 
L 7.778175 0 
L 0 -7.778175 
L -7.778175 0 
z
" style="stroke: #f5deb3; stroke-width: 1.5; stroke-linejoin: miter"/>
    </defs>
    <g>
     <use xlink:href="#m0718236b06" x="71.999638" y="277.665882" style="fill: #f5deb3; stroke: #f5deb3; stroke-width: 1.5; stroke-linejoin: miter"/>
     <use xlink:href="#m0718236b06" x="71.999638" y="277.665882" style="fill: #f5deb3; stroke: #f5deb3; stroke-width: 1.5; stroke-linejoin: miter"/>
     <use xlink:href="#m0718236b06" x="71.999638" y="277.665882" style="fill: #f5deb3; stroke: #f5deb3; stroke-width: 1.5; stroke-linejoin: miter"/>
     <use xlink:href="#m0718236b06" x="71.999638" y="27.648" style="fill: #f5deb3; stroke: #f5deb3; stroke-width: 1.5; stroke-linejoin: miter"/>
     <use xlink:href="#m0718236b06" x="71.999638" y="27.648" style="fill: #f5deb3; stroke: #f5deb3; stroke-width: 1.5; stroke-linejoin: miter"/>
     <use xlink:href="#m0718236b06" x="360.8064" y="27.648" style="fill: #f5deb3; stroke: #f5deb3; stroke-width: 1.5; stroke-linejoin: miter"/>
    </g>
   </g>
   <g id="line2d_3">
    <path style="fill: none; stroke: #f5deb3; stroke-width: 4; stroke-linecap: square"/>
    <g/>
   </g>
   <g id="line2d_4">
    <path d="M 360.8064 27.648 
L 380.514816 33.07392 
" style="fill: none; stroke: #f5deb3; stroke-width: 4; stroke-linecap: square"/>
    <g>
     <use xlink:href="#m0718236b06" x="360.8064" y="27.648" style="fill: #f5deb3; stroke: #f5deb3; stroke-width: 1.5; stroke-linejoin: miter"/>
     <use xlink:href="#m0718236b06" x="380.514816" y="33.07392" style="fill: #f5deb3; stroke: #f5deb3; stroke-width: 1.5; stroke-linejoin: miter"/>
    </g>
   </g>
   <g id="matplotlib.axis_1">
    <g id="xtick_1">
     <g id="line2d_5">
      <path d="M 57.6 298.944 
L 57.6 27.648 
" clip-path="url(#p44b2e8d435)" style="fill: none; stroke: #b0b0b0; stroke-width: 0.8; stroke-linecap: square"/>
     </g>
     <g id="line2d_6">
      <defs>
       <path id="m814ec0891f" d="M 0 0 
L 0 3.5 
" style="stroke: #000000; stroke-width: 0.8"/>
      </defs>
      <g>
       <use xlink:href="#m814ec0891f" x="57.6" y="298.944" style="stroke: #000000; stroke-width: 0.8"/>
      </g>
     </g>
     <g id="text_1">
      <!-- 0 -->
      <g transform="translate(52.191875 318.861344)scale(0.17 -0.17)">
       <defs>
        <path id="DejaVuSans-30" d="M 2034 4250 
Q 1547 4250 1301 3770 
Q 1056 3291 1056 2328 
Q 1056 1369 1301 889 
Q 1547 409 2034 409 
Q 2525 409 2770 889 
Q 3016 1369 3016 2328 
Q 3016 3291 2770 3770 
Q 2525 4250 2034 4250 
z
M 2034 4750 
Q 2819 4750 3233 4129 
Q 3647 3509 3647 2328 
Q 3647 1150 3233 529 
Q 2819 -91 2034 -91 
Q 1250 -91 836 529 
Q 422 1150 422 2328 
Q 422 3509 836 4129 
Q 1250 4750 2034 4750 
z
" transform="scale(0.015625)"/>
       </defs>
       <use xlink:href="#DejaVuSans-30"/>
      </g>
     </g>
    </g>
    <g id="xtick_2">
     <g id="line2d_7">
      <path d="M 144.2304 298.944 
L 144.2304 27.648 
" clip-path="url(#p44b2e8d435)" style="fill: none; stroke: #b0b0b0; stroke-width: 0.8; stroke-linecap: square"/>
     </g>
     <g id="line2d_8">
      <g>
       <use xlink:href="#m814ec0891f" x="144.2304" y="298.944" style="stroke: #000000; stroke-width: 0.8"/>
      </g>
     </g>
     <g id="text_2">
      <!-- 2 -->
      <g transform="translate(138.822275 318.861344)scale(0.17 -0.17)">
       <defs>
        <path id="DejaVuSans-32" d="M 1228 531 
L 3431 531 
L 3431 0 
L 469 0 
L 469 531 
Q 828 903 1448 1529 
Q 2069 2156 2228 2338 
Q 2531 2678 2651 2914 
Q 2772 3150 2772 3378 
Q 2772 3750 2511 3984 
Q 2250 4219 1831 4219 
Q 1534 4219 1204 4116 
Q 875 4013 500 3803 
L 500 4441 
Q 881 4594 1212 4672 
Q 1544 4750 1819 4750 
Q 2544 4750 2975 4387 
Q 3406 4025 3406 3419 
Q 3406 3131 3298 2873 
Q 3191 2616 2906 2266 
Q 2828 2175 2409 1742 
Q 1991 1309 1228 531 
z
" transform="scale(0.015625)"/>
       </defs>
       <use xlink:href="#DejaVuSans-32"/>
      </g>
     </g>
    </g>
    <g id="xtick_3">
     <g id="line2d_9">
      <path d="M 230.8608 298.944 
L 230.8608 27.648 
" clip-path="url(#p44b2e8d435)" style="fill: none; stroke: #b0b0b0; stroke-width: 0.8; stroke-linecap: square"/>
     </g>
     <g id="line2d_10">
      <g>
       <use xlink:href="#m814ec0891f" x="230.8608" y="298.944" style="stroke: #000000; stroke-width: 0.8"/>
      </g>
     </g>
     <g id="text_3">
      <!-- 4 -->
      <g transform="translate(225.452675 318.861344)scale(0.17 -0.17)">
       <defs>
        <path id="DejaVuSans-34" d="M 2419 4116 
L 825 1625 
L 2419 1625 
L 2419 4116 
z
M 2253 4666 
L 3047 4666 
L 3047 1625 
L 3713 1625 
L 3713 1100 
L 3047 1100 
L 3047 0 
L 2419 0 
L 2419 1100 
L 313 1100 
L 313 1709 
L 2253 4666 
z
" transform="scale(0.015625)"/>
       </defs>
       <use xlink:href="#DejaVuSans-34"/>
      </g>
     </g>
    </g>
    <g id="xtick_4">
     <g id="line2d_11">
      <path d="M 317.4912 298.944 
L 317.4912 27.648 
" clip-path="url(#p44b2e8d435)" style="fill: none; stroke: #b0b0b0; stroke-width: 0.8; stroke-linecap: square"/>
     </g>
     <g id="line2d_12">
      <g>
       <use xlink:href="#m814ec0891f" x="317.4912" y="298.944" style="stroke: #000000; stroke-width: 0.8"/>
      </g>
     </g>
     <g id="text_4">
      <!-- 6 -->
      <g transform="translate(312.083075 318.861344)scale(0.17 -0.17)">
       <defs>
        <path id="DejaVuSans-36" d="M 2113 2584 
Q 1688 2584 1439 2293 
Q 1191 2003 1191 1497 
Q 1191 994 1439 701 
Q 1688 409 2113 409 
Q 2538 409 2786 701 
Q 3034 994 3034 1497 
Q 3034 2003 2786 2293 
Q 2538 2584 2113 2584 
z
M 3366 4563 
L 3366 3988 
Q 3128 4100 2886 4159 
Q 2644 4219 2406 4219 
Q 1781 4219 1451 3797 
Q 1122 3375 1075 2522 
Q 1259 2794 1537 2939 
Q 1816 3084 2150 3084 
Q 2853 3084 3261 2657 
Q 3669 2231 3669 1497 
Q 3669 778 3244 343 
Q 2819 -91 2113 -91 
Q 1303 -91 875 529 
Q 447 1150 447 2328 
Q 447 3434 972 4092 
Q 1497 4750 2381 4750 
Q 2619 4750 2861 4703 
Q 3103 4656 3366 4563 
z
" transform="scale(0.015625)"/>
       </defs>
       <use xlink:href="#DejaVuSans-36"/>
      </g>
     </g>
    </g>
    <g id="xtick_5">
     <g id="line2d_13">
      <path d="M 100.9152 298.944 
L 100.9152 27.648 
" clip-path="url(#p44b2e8d435)" style="fill: none; stroke: #b0b0b0; stroke-width: 0.8; stroke-linecap: square"/>
     </g>
     <g id="line2d_14">
      <defs>
       <path id="mb63f8aa2fd" d="M 0 0 
L 0 2 
" style="stroke: #000000; stroke-width: 0.6"/>
      </defs>
      <g>
       <use xlink:href="#mb63f8aa2fd" x="100.9152" y="298.944" style="stroke: #000000; stroke-width: 0.6"/>
      </g>
     </g>
    </g>
    <g id="xtick_6">
     <g id="line2d_15">
      <path d="M 187.5456 298.944 
L 187.5456 27.648 
" clip-path="url(#p44b2e8d435)" style="fill: none; stroke: #b0b0b0; stroke-width: 0.8; stroke-linecap: square"/>
     </g>
     <g id="line2d_16">
      <g>
       <use xlink:href="#mb63f8aa2fd" x="187.5456" y="298.944" style="stroke: #000000; stroke-width: 0.6"/>
      </g>
     </g>
    </g>
    <g id="xtick_7">
     <g id="line2d_17">
      <path d="M 274.176 298.944 
L 274.176 27.648 
" clip-path="url(#p44b2e8d435)" style="fill: none; stroke: #b0b0b0; stroke-width: 0.8; stroke-linecap: square"/>
     </g>
     <g id="line2d_18">
      <g>
       <use xlink:href="#mb63f8aa2fd" x="274.176" y="298.944" style="stroke: #000000; stroke-width: 0.6"/>
      </g>
     </g>
    </g>
    <g id="xtick_8">
     <g id="line2d_19">
      <path d="M 360.8064 298.944 
L 360.8064 27.648 
" clip-path="url(#p44b2e8d435)" style="fill: none; stroke: #b0b0b0; stroke-width: 0.8; stroke-linecap: square"/>
     </g>
     <g id="line2d_20">
      <g>
       <use xlink:href="#mb63f8aa2fd" x="360.8064" y="298.944" style="stroke: #000000; stroke-width: 0.6"/>
      </g>
     </g>
    </g>
    <g id="text_5">
     <!-- log10(# f-evals / dimension) -->
     <g transform="translate(88.823278 339.314156)scale(0.17 -0.17)">
      <defs>
       <path id="DejaVuSans-6c" d="M 603 4863 
L 1178 4863 
L 1178 0 
L 603 0 
L 603 4863 
z
" transform="scale(0.015625)"/>
       <path id="DejaVuSans-6f" d="M 1959 3097 
Q 1497 3097 1228 2736 
Q 959 2375 959 1747 
Q 959 1119 1226 758 
Q 1494 397 1959 397 
Q 2419 397 2687 759 
Q 2956 1122 2956 1747 
Q 2956 2369 2687 2733 
Q 2419 3097 1959 3097 
z
M 1959 3584 
Q 2709 3584 3137 3096 
Q 3566 2609 3566 1747 
Q 3566 888 3137 398 
Q 2709 -91 1959 -91 
Q 1206 -91 779 398 
Q 353 888 353 1747 
Q 353 2609 779 3096 
Q 1206 3584 1959 3584 
z
" transform="scale(0.015625)"/>
       <path id="DejaVuSans-67" d="M 2906 1791 
Q 2906 2416 2648 2759 
Q 2391 3103 1925 3103 
Q 1463 3103 1205 2759 
Q 947 2416 947 1791 
Q 947 1169 1205 825 
Q 1463 481 1925 481 
Q 2391 481 2648 825 
Q 2906 1169 2906 1791 
z
M 3481 434 
Q 3481 -459 3084 -895 
Q 2688 -1331 1869 -1331 
Q 1566 -1331 1297 -1286 
Q 1028 -1241 775 -1147 
L 775 -588 
Q 1028 -725 1275 -790 
Q 1522 -856 1778 -856 
Q 2344 -856 2625 -561 
Q 2906 -266 2906 331 
L 2906 616 
Q 2728 306 2450 153 
Q 2172 0 1784 0 
Q 1141 0 747 490 
Q 353 981 353 1791 
Q 353 2603 747 3093 
Q 1141 3584 1784 3584 
Q 2172 3584 2450 3431 
Q 2728 3278 2906 2969 
L 2906 3500 
L 3481 3500 
L 3481 434 
z
" transform="scale(0.015625)"/>
       <path id="DejaVuSans-31" d="M 794 531 
L 1825 531 
L 1825 4091 
L 703 3866 
L 703 4441 
L 1819 4666 
L 2450 4666 
L 2450 531 
L 3481 531 
L 3481 0 
L 794 0 
L 794 531 
z
" transform="scale(0.015625)"/>
       <path id="DejaVuSans-28" d="M 1984 4856 
Q 1566 4138 1362 3434 
Q 1159 2731 1159 2009 
Q 1159 1288 1364 580 
Q 1569 -128 1984 -844 
L 1484 -844 
Q 1016 -109 783 600 
Q 550 1309 550 2009 
Q 550 2706 781 3412 
Q 1013 4119 1484 4856 
L 1984 4856 
z
" transform="scale(0.015625)"/>
       <path id="DejaVuSans-23" d="M 3272 2816 
L 2363 2816 
L 2100 1772 
L 3016 1772 
L 3272 2816 
z
M 2803 4594 
L 2478 3297 
L 3391 3297 
L 3719 4594 
L 4219 4594 
L 3897 3297 
L 4872 3297 
L 4872 2816 
L 3775 2816 
L 3519 1772 
L 4513 1772 
L 4513 1294 
L 3397 1294 
L 3072 0 
L 2572 0 
L 2894 1294 
L 1978 1294 
L 1656 0 
L 1153 0 
L 1478 1294 
L 494 1294 
L 494 1772 
L 1594 1772 
L 1856 2816 
L 850 2816 
L 850 3297 
L 1978 3297 
L 2297 4594 
L 2803 4594 
z
" transform="scale(0.015625)"/>
       <path id="DejaVuSans-20" transform="scale(0.015625)"/>
       <path id="DejaVuSans-66" d="M 2375 4863 
L 2375 4384 
L 1825 4384 
Q 1516 4384 1395 4259 
Q 1275 4134 1275 3809 
L 1275 3500 
L 2222 3500 
L 2222 3053 
L 1275 3053 
L 1275 0 
L 697 0 
L 697 3053 
L 147 3053 
L 147 3500 
L 697 3500 
L 697 3744 
Q 697 4328 969 4595 
Q 1241 4863 1831 4863 
L 2375 4863 
z
" transform="scale(0.015625)"/>
       <path id="DejaVuSans-2d" d="M 313 2009 
L 1997 2009 
L 1997 1497 
L 313 1497 
L 313 2009 
z
" transform="scale(0.015625)"/>
       <path id="DejaVuSans-65" d="M 3597 1894 
L 3597 1613 
L 953 1613 
Q 991 1019 1311 708 
Q 1631 397 2203 397 
Q 2534 397 2845 478 
Q 3156 559 3463 722 
L 3463 178 
Q 3153 47 2828 -22 
Q 2503 -91 2169 -91 
Q 1331 -91 842 396 
Q 353 884 353 1716 
Q 353 2575 817 3079 
Q 1281 3584 2069 3584 
Q 2775 3584 3186 3129 
Q 3597 2675 3597 1894 
z
M 3022 2063 
Q 3016 2534 2758 2815 
Q 2500 3097 2075 3097 
Q 1594 3097 1305 2825 
Q 1016 2553 972 2059 
L 3022 2063 
z
" transform="scale(0.015625)"/>
       <path id="DejaVuSans-76" d="M 191 3500 
L 800 3500 
L 1894 563 
L 2988 3500 
L 3597 3500 
L 2284 0 
L 1503 0 
L 191 3500 
z
" transform="scale(0.015625)"/>
       <path id="DejaVuSans-61" d="M 2194 1759 
Q 1497 1759 1228 1600 
Q 959 1441 959 1056 
Q 959 750 1161 570 
Q 1363 391 1709 391 
Q 2188 391 2477 730 
Q 2766 1069 2766 1631 
L 2766 1759 
L 2194 1759 
z
M 3341 1997 
L 3341 0 
L 2766 0 
L 2766 531 
Q 2569 213 2275 61 
Q 1981 -91 1556 -91 
Q 1019 -91 701 211 
Q 384 513 384 1019 
Q 384 1609 779 1909 
Q 1175 2209 1959 2209 
L 2766 2209 
L 2766 2266 
Q 2766 2663 2505 2880 
Q 2244 3097 1772 3097 
Q 1472 3097 1187 3025 
Q 903 2953 641 2809 
L 641 3341 
Q 956 3463 1253 3523 
Q 1550 3584 1831 3584 
Q 2591 3584 2966 3190 
Q 3341 2797 3341 1997 
z
" transform="scale(0.015625)"/>
       <path id="DejaVuSans-73" d="M 2834 3397 
L 2834 2853 
Q 2591 2978 2328 3040 
Q 2066 3103 1784 3103 
Q 1356 3103 1142 2972 
Q 928 2841 928 2578 
Q 928 2378 1081 2264 
Q 1234 2150 1697 2047 
L 1894 2003 
Q 2506 1872 2764 1633 
Q 3022 1394 3022 966 
Q 3022 478 2636 193 
Q 2250 -91 1575 -91 
Q 1294 -91 989 -36 
Q 684 19 347 128 
L 347 722 
Q 666 556 975 473 
Q 1284 391 1588 391 
Q 1994 391 2212 530 
Q 2431 669 2431 922 
Q 2431 1156 2273 1281 
Q 2116 1406 1581 1522 
L 1381 1569 
Q 847 1681 609 1914 
Q 372 2147 372 2553 
Q 372 3047 722 3315 
Q 1072 3584 1716 3584 
Q 2034 3584 2315 3537 
Q 2597 3491 2834 3397 
z
" transform="scale(0.015625)"/>
       <path id="DejaVuSans-2f" d="M 1625 4666 
L 2156 4666 
L 531 -594 
L 0 -594 
L 1625 4666 
z
" transform="scale(0.015625)"/>
       <path id="DejaVuSans-64" d="M 2906 2969 
L 2906 4863 
L 3481 4863 
L 3481 0 
L 2906 0 
L 2906 525 
Q 2725 213 2448 61 
Q 2172 -91 1784 -91 
Q 1150 -91 751 415 
Q 353 922 353 1747 
Q 353 2572 751 3078 
Q 1150 3584 1784 3584 
Q 2172 3584 2448 3432 
Q 2725 3281 2906 2969 
z
M 947 1747 
Q 947 1113 1208 752 
Q 1469 391 1925 391 
Q 2381 391 2643 752 
Q 2906 1113 2906 1747 
Q 2906 2381 2643 2742 
Q 2381 3103 1925 3103 
Q 1469 3103 1208 2742 
Q 947 2381 947 1747 
z
" transform="scale(0.015625)"/>
       <path id="DejaVuSans-69" d="M 603 3500 
L 1178 3500 
L 1178 0 
L 603 0 
L 603 3500 
z
M 603 4863 
L 1178 4863 
L 1178 4134 
L 603 4134 
L 603 4863 
z
" transform="scale(0.015625)"/>
       <path id="DejaVuSans-6d" d="M 3328 2828 
Q 3544 3216 3844 3400 
Q 4144 3584 4550 3584 
Q 5097 3584 5394 3201 
Q 5691 2819 5691 2113 
L 5691 0 
L 5113 0 
L 5113 2094 
Q 5113 2597 4934 2840 
Q 4756 3084 4391 3084 
Q 3944 3084 3684 2787 
Q 3425 2491 3425 1978 
L 3425 0 
L 2847 0 
L 2847 2094 
Q 2847 2600 2669 2842 
Q 2491 3084 2119 3084 
Q 1678 3084 1418 2786 
Q 1159 2488 1159 1978 
L 1159 0 
L 581 0 
L 581 3500 
L 1159 3500 
L 1159 2956 
Q 1356 3278 1631 3431 
Q 1906 3584 2284 3584 
Q 2666 3584 2933 3390 
Q 3200 3197 3328 2828 
z
" transform="scale(0.015625)"/>
       <path id="DejaVuSans-6e" d="M 3513 2113 
L 3513 0 
L 2938 0 
L 2938 2094 
Q 2938 2591 2744 2837 
Q 2550 3084 2163 3084 
Q 1697 3084 1428 2787 
Q 1159 2491 1159 1978 
L 1159 0 
L 581 0 
L 581 3500 
L 1159 3500 
L 1159 2956 
Q 1366 3272 1645 3428 
Q 1925 3584 2291 3584 
Q 2894 3584 3203 3211 
Q 3513 2838 3513 2113 
z
" transform="scale(0.015625)"/>
       <path id="DejaVuSans-29" d="M 513 4856 
L 1013 4856 
Q 1481 4119 1714 3412 
Q 1947 2706 1947 2009 
Q 1947 1309 1714 600 
Q 1481 -109 1013 -844 
L 513 -844 
Q 928 -128 1133 580 
Q 1338 1288 1338 2009 
Q 1338 2731 1133 3434 
Q 928 4138 513 4856 
z
" transform="scale(0.015625)"/>
      </defs>
      <use xlink:href="#DejaVuSans-6c"/>
      <use xlink:href="#DejaVuSans-6f" x="27.783203"/>
      <use xlink:href="#DejaVuSans-67" x="88.964844"/>
      <use xlink:href="#DejaVuSans-31" x="152.441406"/>
      <use xlink:href="#DejaVuSans-30" x="216.064453"/>
      <use xlink:href="#DejaVuSans-28" x="279.6875"/>
      <use xlink:href="#DejaVuSans-23" x="318.701172"/>
      <use xlink:href="#DejaVuSans-20" x="402.490234"/>
      <use xlink:href="#DejaVuSans-66" x="434.277344"/>
      <use xlink:href="#DejaVuSans-2d" x="463.982422"/>
      <use xlink:href="#DejaVuSans-65" x="500.066406"/>
      <use xlink:href="#DejaVuSans-76" x="561.589844"/>
      <use xlink:href="#DejaVuSans-61" x="620.769531"/>
      <use xlink:href="#DejaVuSans-6c" x="682.048828"/>
      <use xlink:href="#DejaVuSans-73" x="709.832031"/>
      <use xlink:href="#DejaVuSans-20" x="761.931641"/>
      <use xlink:href="#DejaVuSans-2f" x="793.71875"/>
      <use xlink:href="#DejaVuSans-20" x="827.410156"/>
      <use xlink:href="#DejaVuSans-64" x="859.197266"/>
      <use xlink:href="#DejaVuSans-69" x="922.673828"/>
      <use xlink:href="#DejaVuSans-6d" x="950.457031"/>
      <use xlink:href="#DejaVuSans-65" x="1047.869141"/>
      <use xlink:href="#DejaVuSans-6e" x="1109.392578"/>
      <use xlink:href="#DejaVuSans-73" x="1172.771484"/>
      <use xlink:href="#DejaVuSans-69" x="1224.871094"/>
      <use xlink:href="#DejaVuSans-6f" x="1252.654297"/>
      <use xlink:href="#DejaVuSans-6e" x="1313.835938"/>
      <use xlink:href="#DejaVuSans-29" x="1377.214844"/>
     </g>
    </g>
   </g>
   <g id="matplotlib.axis_2">
    <g id="ytick_1">
     <g id="line2d_21">
      <path d="M 57.6 298.944 
L 360.8064 298.944 
" clip-path="url(#p44b2e8d435)" style="fill: none; stroke: #b0b0b0; stroke-width: 0.8; stroke-linecap: square"/>
     </g>
     <g id="line2d_22">
      <defs>
       <path id="mf0f5ea5764" d="M 0 0 
L -3.5 0 
" style="stroke: #000000; stroke-width: 0.8"/>
      </defs>
      <g>
       <use xlink:href="#mf0f5ea5764" x="57.6" y="298.944" style="stroke: #000000; stroke-width: 0.8"/>
      </g>
     </g>
     <g id="text_6">
      <!-- 0.0 -->
      <g transform="translate(25.155 305.02275)scale(0.16 -0.16)">
       <defs>
        <path id="DejaVuSans-2e" d="M 684 794 
L 1344 794 
L 1344 0 
L 684 0 
L 684 794 
z
" transform="scale(0.015625)"/>
       </defs>
       <use xlink:href="#DejaVuSans-30"/>
       <use xlink:href="#DejaVuSans-2e" x="63.623047"/>
       <use xlink:href="#DejaVuSans-30" x="95.410156"/>
      </g>
     </g>
    </g>
    <g id="ytick_2">
     <g id="line2d_23">
      <path d="M 57.6 244.6848 
L 360.8064 244.6848 
" clip-path="url(#p44b2e8d435)" style="fill: none; stroke: #b0b0b0; stroke-width: 0.8; stroke-linecap: square"/>
     </g>
     <g id="line2d_24">
      <g>
       <use xlink:href="#mf0f5ea5764" x="57.6" y="244.6848" style="stroke: #000000; stroke-width: 0.8"/>
      </g>
     </g>
     <g id="text_7">
      <!-- 0.2 -->
      <g transform="translate(25.155 250.76355)scale(0.16 -0.16)">
       <use xlink:href="#DejaVuSans-30"/>
       <use xlink:href="#DejaVuSans-2e" x="63.623047"/>
       <use xlink:href="#DejaVuSans-32" x="95.410156"/>
      </g>
     </g>
    </g>
    <g id="ytick_3">
     <g id="line2d_25">
      <path d="M 57.6 190.4256 
L 360.8064 190.4256 
" clip-path="url(#p44b2e8d435)" style="fill: none; stroke: #b0b0b0; stroke-width: 0.8; stroke-linecap: square"/>
     </g>
     <g id="line2d_26">
      <g>
       <use xlink:href="#mf0f5ea5764" x="57.6" y="190.4256" style="stroke: #000000; stroke-width: 0.8"/>
      </g>
     </g>
     <g id="text_8">
      <!-- 0.4 -->
      <g transform="translate(25.155 196.50435)scale(0.16 -0.16)">
       <use xlink:href="#DejaVuSans-30"/>
       <use xlink:href="#DejaVuSans-2e" x="63.623047"/>
       <use xlink:href="#DejaVuSans-34" x="95.410156"/>
      </g>
     </g>
    </g>
    <g id="ytick_4">
     <g id="line2d_27">
      <path d="M 57.6 136.1664 
L 360.8064 136.1664 
" clip-path="url(#p44b2e8d435)" style="fill: none; stroke: #b0b0b0; stroke-width: 0.8; stroke-linecap: square"/>
     </g>
     <g id="line2d_28">
      <g>
       <use xlink:href="#mf0f5ea5764" x="57.6" y="136.1664" style="stroke: #000000; stroke-width: 0.8"/>
      </g>
     </g>
     <g id="text_9">
      <!-- 0.6 -->
      <g transform="translate(25.155 142.24515)scale(0.16 -0.16)">
       <use xlink:href="#DejaVuSans-30"/>
       <use xlink:href="#DejaVuSans-2e" x="63.623047"/>
       <use xlink:href="#DejaVuSans-36" x="95.410156"/>
      </g>
     </g>
    </g>
    <g id="ytick_5">
     <g id="line2d_29">
      <path d="M 57.6 81.9072 
L 360.8064 81.9072 
" clip-path="url(#p44b2e8d435)" style="fill: none; stroke: #b0b0b0; stroke-width: 0.8; stroke-linecap: square"/>
     </g>
     <g id="line2d_30">
      <g>
       <use xlink:href="#mf0f5ea5764" x="57.6" y="81.9072" style="stroke: #000000; stroke-width: 0.8"/>
      </g>
     </g>
     <g id="text_10">
      <!-- 0.8 -->
      <g transform="translate(25.155 87.98595)scale(0.16 -0.16)">
       <defs>
        <path id="DejaVuSans-38" d="M 2034 2216 
Q 1584 2216 1326 1975 
Q 1069 1734 1069 1313 
Q 1069 891 1326 650 
Q 1584 409 2034 409 
Q 2484 409 2743 651 
Q 3003 894 3003 1313 
Q 3003 1734 2745 1975 
Q 2488 2216 2034 2216 
z
M 1403 2484 
Q 997 2584 770 2862 
Q 544 3141 544 3541 
Q 544 4100 942 4425 
Q 1341 4750 2034 4750 
Q 2731 4750 3128 4425 
Q 3525 4100 3525 3541 
Q 3525 3141 3298 2862 
Q 3072 2584 2669 2484 
Q 3125 2378 3379 2068 
Q 3634 1759 3634 1313 
Q 3634 634 3220 271 
Q 2806 -91 2034 -91 
Q 1263 -91 848 271 
Q 434 634 434 1313 
Q 434 1759 690 2068 
Q 947 2378 1403 2484 
z
M 1172 3481 
Q 1172 3119 1398 2916 
Q 1625 2713 2034 2713 
Q 2441 2713 2670 2916 
Q 2900 3119 2900 3481 
Q 2900 3844 2670 4047 
Q 2441 4250 2034 4250 
Q 1625 4250 1398 4047 
Q 1172 3844 1172 3481 
z
" transform="scale(0.015625)"/>
       </defs>
       <use xlink:href="#DejaVuSans-30"/>
       <use xlink:href="#DejaVuSans-2e" x="63.623047"/>
       <use xlink:href="#DejaVuSans-38" x="95.410156"/>
      </g>
     </g>
    </g>
    <g id="ytick_6">
     <g id="line2d_31">
      <path d="M 57.6 27.648 
L 360.8064 27.648 
" clip-path="url(#p44b2e8d435)" style="fill: none; stroke: #b0b0b0; stroke-width: 0.8; stroke-linecap: square"/>
     </g>
     <g id="line2d_32">
      <g>
       <use xlink:href="#mf0f5ea5764" x="57.6" y="27.648" style="stroke: #000000; stroke-width: 0.8"/>
      </g>
     </g>
     <g id="text_11">
      <!-- 1.0 -->
      <g transform="translate(25.155 33.72675)scale(0.16 -0.16)">
       <use xlink:href="#DejaVuSans-31"/>
       <use xlink:href="#DejaVuSans-2e" x="63.623047"/>
       <use xlink:href="#DejaVuSans-30" x="95.410156"/>
      </g>
     </g>
    </g>
    <g id="text_12">
     <!-- Fraction of function,target pairs -->
     <g transform="translate(17.619531 297.681)rotate(-90)scale(0.17 -0.17)">
      <defs>
       <path id="DejaVuSans-46" d="M 628 4666 
L 3309 4666 
L 3309 4134 
L 1259 4134 
L 1259 2759 
L 3109 2759 
L 3109 2228 
L 1259 2228 
L 1259 0 
L 628 0 
L 628 4666 
z
" transform="scale(0.015625)"/>
       <path id="DejaVuSans-72" d="M 2631 2963 
Q 2534 3019 2420 3045 
Q 2306 3072 2169 3072 
Q 1681 3072 1420 2755 
Q 1159 2438 1159 1844 
L 1159 0 
L 581 0 
L 581 3500 
L 1159 3500 
L 1159 2956 
Q 1341 3275 1631 3429 
Q 1922 3584 2338 3584 
Q 2397 3584 2469 3576 
Q 2541 3569 2628 3553 
L 2631 2963 
z
" transform="scale(0.015625)"/>
       <path id="DejaVuSans-63" d="M 3122 3366 
L 3122 2828 
Q 2878 2963 2633 3030 
Q 2388 3097 2138 3097 
Q 1578 3097 1268 2742 
Q 959 2388 959 1747 
Q 959 1106 1268 751 
Q 1578 397 2138 397 
Q 2388 397 2633 464 
Q 2878 531 3122 666 
L 3122 134 
Q 2881 22 2623 -34 
Q 2366 -91 2075 -91 
Q 1284 -91 818 406 
Q 353 903 353 1747 
Q 353 2603 823 3093 
Q 1294 3584 2113 3584 
Q 2378 3584 2631 3529 
Q 2884 3475 3122 3366 
z
" transform="scale(0.015625)"/>
       <path id="DejaVuSans-74" d="M 1172 4494 
L 1172 3500 
L 2356 3500 
L 2356 3053 
L 1172 3053 
L 1172 1153 
Q 1172 725 1289 603 
Q 1406 481 1766 481 
L 2356 481 
L 2356 0 
L 1766 0 
Q 1100 0 847 248 
Q 594 497 594 1153 
L 594 3053 
L 172 3053 
L 172 3500 
L 594 3500 
L 594 4494 
L 1172 4494 
z
" transform="scale(0.015625)"/>
       <path id="DejaVuSans-75" d="M 544 1381 
L 544 3500 
L 1119 3500 
L 1119 1403 
Q 1119 906 1312 657 
Q 1506 409 1894 409 
Q 2359 409 2629 706 
Q 2900 1003 2900 1516 
L 2900 3500 
L 3475 3500 
L 3475 0 
L 2900 0 
L 2900 538 
Q 2691 219 2414 64 
Q 2138 -91 1772 -91 
Q 1169 -91 856 284 
Q 544 659 544 1381 
z
M 1991 3584 
L 1991 3584 
z
" transform="scale(0.015625)"/>
       <path id="DejaVuSans-2c" d="M 750 794 
L 1409 794 
L 1409 256 
L 897 -744 
L 494 -744 
L 750 256 
L 750 794 
z
" transform="scale(0.015625)"/>
       <path id="DejaVuSans-70" d="M 1159 525 
L 1159 -1331 
L 581 -1331 
L 581 3500 
L 1159 3500 
L 1159 2969 
Q 1341 3281 1617 3432 
Q 1894 3584 2278 3584 
Q 2916 3584 3314 3078 
Q 3713 2572 3713 1747 
Q 3713 922 3314 415 
Q 2916 -91 2278 -91 
Q 1894 -91 1617 61 
Q 1341 213 1159 525 
z
M 3116 1747 
Q 3116 2381 2855 2742 
Q 2594 3103 2138 3103 
Q 1681 3103 1420 2742 
Q 1159 2381 1159 1747 
Q 1159 1113 1420 752 
Q 1681 391 2138 391 
Q 2594 391 2855 752 
Q 3116 1113 3116 1747 
z
" transform="scale(0.015625)"/>
      </defs>
      <use xlink:href="#DejaVuSans-46"/>
      <use xlink:href="#DejaVuSans-72" x="50.269531"/>
      <use xlink:href="#DejaVuSans-61" x="91.382812"/>
      <use xlink:href="#DejaVuSans-63" x="152.662109"/>
      <use xlink:href="#DejaVuSans-74" x="207.642578"/>
      <use xlink:href="#DejaVuSans-69" x="246.851562"/>
      <use xlink:href="#DejaVuSans-6f" x="274.634766"/>
      <use xlink:href="#DejaVuSans-6e" x="335.816406"/>
      <use xlink:href="#DejaVuSans-20" x="399.195312"/>
      <use xlink:href="#DejaVuSans-6f" x="430.982422"/>
      <use xlink:href="#DejaVuSans-66" x="492.164062"/>
      <use xlink:href="#DejaVuSans-20" x="527.369141"/>
      <use xlink:href="#DejaVuSans-66" x="559.15625"/>
      <use xlink:href="#DejaVuSans-75" x="594.361328"/>
      <use xlink:href="#DejaVuSans-6e" x="657.740234"/>
      <use xlink:href="#DejaVuSans-63" x="721.119141"/>
      <use xlink:href="#DejaVuSans-74" x="776.099609"/>
      <use xlink:href="#DejaVuSans-69" x="815.308594"/>
      <use xlink:href="#DejaVuSans-6f" x="843.091797"/>
      <use xlink:href="#DejaVuSans-6e" x="904.273438"/>
      <use xlink:href="#DejaVuSans-2c" x="967.652344"/>
      <use xlink:href="#DejaVuSans-74" x="999.439453"/>
      <use xlink:href="#DejaVuSans-61" x="1038.648438"/>
      <use xlink:href="#DejaVuSans-72" x="1099.927734"/>
      <use xlink:href="#DejaVuSans-67" x="1139.291016"/>
      <use xlink:href="#DejaVuSans-65" x="1202.767578"/>
      <use xlink:href="#DejaVuSans-74" x="1264.291016"/>
      <use xlink:href="#DejaVuSans-20" x="1303.5"/>
      <use xlink:href="#DejaVuSans-70" x="1335.287109"/>
      <use xlink:href="#DejaVuSans-61" x="1398.763672"/>
      <use xlink:href="#DejaVuSans-69" x="1460.042969"/>
      <use xlink:href="#DejaVuSans-72" x="1487.826172"/>
      <use xlink:href="#DejaVuSans-73" x="1528.939453"/>
     </g>
    </g>
   </g>
   <g id="line2d_33">
    <defs>
     <path id="mdd9b669854" d="M 0 1.5 
C 0.397805 1.5 0.77937 1.341951 1.06066 1.06066 
C 1.341951 0.77937 1.5 0.397805 1.5 0 
C 1.5 -0.397805 1.341951 -0.77937 1.06066 -1.06066 
C 0.77937 -1.341951 0.397805 -1.5 0 -1.5 
C -0.397805 -1.5 -0.77937 -1.341951 -1.06066 -1.06066 
C -1.341951 -0.77937 -1.5 -0.397805 -1.5 0 
C -1.5 0.397805 -1.341951 0.77937 -1.06066 1.06066 
C -0.77937 1.341951 -0.397805 1.5 0 1.5 
z
" style="stroke: #f5deb3"/>
    </defs>
    <g>
     <use xlink:href="#mdd9b669854" x="71.999638" y="27.648" style="fill: #f5deb3; stroke: #f5deb3"/>
     <use xlink:href="#mdd9b669854" x="71.999638" y="27.648" style="fill: #f5deb3; stroke: #f5deb3"/>
    </g>
   </g>
   <g id="line2d_34">
    <defs>
     <path id="m50581117cd" d="M 0 1.5 
C 0.397805 1.5 0.77937 1.341951 1.06066 1.06066 
C 1.341951 0.77937 1.5 0.397805 1.5 0 
C 1.5 -0.397805 1.341951 -0.77937 1.06066 -1.06066 
C 0.77937 -1.341951 0.397805 -1.5 0 -1.5 
C -0.397805 -1.5 -0.77937 -1.341951 -1.06066 -1.06066 
C -1.341951 -0.77937 -1.5 -0.397805 -1.5 0 
C -1.5 0.397805 -1.341951 0.77937 -1.06066 1.06066 
C -0.77937 1.341951 -0.397805 1.5 0 1.5 
z
" style="stroke: #000080"/>
    </defs>
    <g>
     <use xlink:href="#m50581117cd" x="224.298951" y="27.648" style="fill: #000080; stroke: #000080"/>
     <use xlink:href="#m50581117cd" x="224.298951" y="27.648" style="fill: #000080; stroke: #000080"/>
    </g>
   </g>
   <g id="line2d_35">
    <path d="M 31.521651 298.944 
L 31.521651 298.589365 
L 49.496305 298.589365 
L 49.496305 298.234729 
L 54.542767 298.234729 
L 54.542767 297.880094 
L 77.628862 297.880094 
L 77.628862 297.525459 
L 90.505165 297.525459 
L 90.505165 297.170824 
L 100.147275 297.170824 
L 100.147275 296.816188 
L 100.630889 296.816188 
L 100.630889 296.461553 
L 103.868684 296.461553 
L 103.868684 296.106918 
L 118.189637 296.106918 
L 118.227147 295.043012 
L 118.339232 295.043012 
L 118.413586 293.979106 
L 118.561419 293.979106 
L 118.671535 292.205929 
L 118.74459 292.205929 
L 118.74459 291.851294 
L 118.889854 291.851294 
L 118.925995 290.787388 
L 119.105667 290.787388 
L 119.105667 290.078118 
L 119.319033 290.078118 
L 119.389621 288.659576 
L 119.738639 288.659576 
L 119.842094 287.950306 
L 119.876453 287.950306 
L 119.876453 287.241035 
L 120.182892 287.241035 
L 120.182892 286.8864 
L 120.48442 286.8864 
L 120.48442 286.531765 
L 120.682786 286.531765 
L 120.682786 286.177129 
L 120.813877 286.177129 
L 120.813877 285.822494 
L 121.008818 285.822494 
L 121.008818 285.467859 
L 121.361044 285.467859 
L 121.361044 285.113224 
L 121.518993 285.113224 
L 121.518993 284.758588 
L 121.8 284.758588 
L 121.8 284.403953 
L 121.923558 284.403953 
L 121.985033 283.694682 
L 122.19863 283.694682 
L 122.259215 282.630776 
L 122.349728 282.630776 
L 122.409829 281.921506 
L 122.499621 281.921506 
L 122.499621 281.566871 
L 123.573201 281.566871 
L 123.573201 281.212235 
L 123.769595 281.212235 
L 123.769595 280.8576 
L 123.908631 280.8576 
L 123.908631 280.502965 
L 124.183659 280.502965 
L 124.183659 280.148329 
L 124.642171 280.148329 
L 124.642171 279.793694 
L 124.933009 279.793694 
L 124.933009 279.439059 
L 125.245241 279.439059 
L 125.245241 279.084424 
L 125.879541 279.084424 
L 125.879541 278.729788 
L 126.993549 278.729788 
L 126.993549 278.375153 
L 128.023009 278.375153 
L 128.023009 278.020518 
L 129.68393 278.020518 
L 129.68393 277.665882 
L 131.228811 277.665882 
L 131.228811 277.311247 
L 133.154399 277.311247 
L 133.154399 276.956612 
L 133.573382 276.956612 
L 133.573382 276.601976 
L 134.947332 276.601976 
L 134.993495 275.892706 
L 135.790905 275.892706 
L 135.790905 275.538071 
L 135.908386 275.538071 
L 135.908386 275.183435 
L 136.039681 275.183435 
L 136.039681 274.8288 
L 136.385386 274.8288 
L 136.385386 274.474165 
L 136.499223 274.474165 
L 136.499223 274.119529 
L 136.989317 274.119529 
L 137.01694 273.410259 
L 137.250116 273.410259 
L 137.250116 273.055624 
L 137.372402 273.055624 
L 137.372402 272.700988 
L 137.747841 272.700988 
L 137.800869 271.991718 
L 139.592597 271.991718 
L 139.592597 271.637082 
L 141.868361 271.637082 
L 141.964094 270.927812 
L 143.225848 270.927812 
L 143.225848 270.573176 
L 143.423243 270.573176 
L 143.423243 270.218541 
L 144.202161 270.218541 
L 144.239803 269.509271 
L 144.593695 269.509271 
L 144.676545 268.8 
L 144.749884 268.8 
L 144.749884 268.445365 
L 145.103376 268.445365 
L 145.103376 268.090729 
L 145.29989 268.090729 
L 145.29989 267.736094 
L 145.712961 267.736094 
L 145.773713 267.026824 
L 146.040426 267.026824 
L 146.040426 266.672188 
L 146.629123 266.672188 
L 146.629123 266.317553 
L 147.699301 266.317553 
L 147.699301 265.962918 
L 148.155221 265.962918 
L 148.155221 265.608282 
L 148.600352 265.608282 
L 148.652472 264.899012 
L 149.057037 264.899012 
L 149.057037 264.544376 
L 149.460208 264.544376 
L 149.488678 263.835106 
L 149.623325 263.835106 
L 149.700841 263.125835 
L 150.660472 263.125835 
L 150.660472 262.7712 
L 150.8268 262.7712 
L 150.8268 262.416565 
L 151.252493 262.416565 
L 151.252493 262.061929 
L 151.769835 262.061929 
L 151.769835 261.707294 
L 152.340678 261.707294 
L 152.450367 260.643388 
L 152.817404 260.643388 
L 152.853122 259.934118 
L 152.94804 259.934118 
L 152.953957 259.224847 
L 153.183261 259.224847 
L 153.259079 258.515576 
L 153.346183 258.515576 
L 153.346183 258.160941 
L 153.650761 258.160941 
L 153.650761 257.806306 
L 154.217873 257.806306 
L 154.306165 257.097035 
L 154.366625 257.097035 
L 154.366625 256.7424 
L 154.83809 256.7424 
L 154.83809 256.387765 
L 154.955463 256.387765 
L 154.955463 256.033129 
L 155.485105 256.033129 
L 155.562509 255.323859 
L 155.726579 255.323859 
L 155.833477 254.614588 
L 156.015331 254.614588 
L 156.015331 254.259953 
L 156.975712 254.259953 
L 156.975712 253.905318 
L 157.189455 253.905318 
L 157.189455 253.550682 
L 157.354037 253.550682 
L 157.354037 253.196047 
L 157.489322 253.196047 
L 157.498616 252.486776 
L 157.793633 252.486776 
L 157.793633 252.132141 
L 158.254458 252.132141 
L 158.254458 251.777506 
L 158.782536 251.777506 
L 158.782536 251.422871 
L 159.130788 251.422871 
L 159.190332 250.7136 
L 159.249688 250.7136 
L 159.249688 250.358965 
L 159.722039 250.358965 
L 159.722039 250.004329 
L 159.976253 250.004329 
L 160.061585 248.940424 
L 160.295272 248.940424 
L 160.339266 247.521882 
L 160.407056 247.521882 
L 160.407056 247.167247 
L 160.565603 247.167247 
L 160.648309 246.457976 
L 160.816532 246.457976 
L 160.816532 246.103341 
L 161.747329 246.103341 
L 161.747329 245.748706 
L 162.147083 245.748706 
L 162.147083 245.394071 
L 162.478002 245.394071 
L 162.478002 245.039435 
L 162.725945 245.039435 
L 162.820714 244.330165 
L 162.935898 244.330165 
L 162.935898 243.975529 
L 163.636055 243.975529 
L 163.636055 243.620894 
L 164.034127 243.620894 
L 164.102932 242.911624 
L 164.40465 242.911624 
L 164.510559 242.202353 
L 165.031338 242.202353 
L 165.093494 241.493082 
L 165.419536 241.493082 
L 165.419536 241.138447 
L 165.919041 241.138447 
L 165.919041 240.783812 
L 166.114011 240.783812 
L 166.114011 240.429176 
L 166.621405 240.429176 
L 166.621405 240.074541 
L 166.812098 240.074541 
L 166.888401 239.365271 
L 167.023292 239.365271 
L 167.07642 238.656 
L 167.240447 238.656 
L 167.295726 237.592094 
L 167.378342 237.592094 
L 167.378342 237.237459 
L 167.594176 237.237459 
L 167.648427 236.528188 
L 168.394562 236.528188 
L 168.394562 236.173553 
L 168.68646 236.173553 
L 168.68646 235.818918 
L 168.920812 235.818918 
L 168.966324 235.109647 
L 169.496683 235.109647 
L 169.496683 234.755012 
L 169.643419 234.755012 
L 169.655596 234.045741 
L 169.805934 234.045741 
L 169.868623 233.336471 
L 170.045911 233.336471 
L 170.045911 232.981835 
L 170.28051 232.981835 
L 170.28051 232.6272 
L 170.418943 232.6272 
L 170.418943 232.272565 
L 170.761781 232.272565 
L 170.761781 231.917929 
L 171.121017 231.917929 
L 171.145773 231.208659 
L 171.706362 231.208659 
L 171.706362 230.854024 
L 171.972982 230.854024 
L 171.972982 230.499388 
L 172.088851 230.499388 
L 172.088851 230.144753 
L 172.666028 230.144753 
L 172.713681 229.435482 
L 172.837428 229.435482 
L 172.837428 229.080847 
L 172.958324 229.080847 
L 172.958324 228.726212 
L 173.215951 228.726212 
L 173.292356 227.307671 
L 173.529634 227.307671 
L 173.529634 226.953035 
L 173.652083 226.953035 
L 173.652083 226.5984 
L 173.805007 226.5984 
L 173.805007 226.243765 
L 173.954761 226.243765 
L 173.954761 225.889129 
L 174.116781 225.889129 
L 174.116781 225.534494 
L 174.277417 225.534494 
L 174.277417 225.179859 
L 174.449906 225.179859 
L 174.527107 224.470588 
L 174.594633 224.470588 
L 174.603992 223.761318 
L 174.753113 223.761318 
L 174.753113 223.406682 
L 175.047856 223.406682 
L 175.120826 222.342776 
L 175.588351 222.342776 
L 175.588351 221.988141 
L 176.039338 221.988141 
L 176.039338 221.633506 
L 176.422087 221.633506 
L 176.422087 221.278871 
L 176.723779 221.278871 
L 176.813851 219.860329 
L 176.99271 219.860329 
L 176.99271 219.505694 
L 177.109374 219.505694 
L 177.17315 218.796424 
L 177.517703 218.796424 
L 177.517703 218.441788 
L 177.643907 218.441788 
L 177.664594 217.732518 
L 177.818236 217.732518 
L 177.926769 216.313976 
L 177.984711 216.313976 
L 178.02376 215.604706 
L 178.186887 215.604706 
L 178.186887 215.250071 
L 178.428192 215.250071 
L 178.428192 214.895435 
L 178.592407 214.895435 
L 178.672472 214.186165 
L 178.833082 214.186165 
L 178.833082 213.831529 
L 179.044133 213.831529 
L 179.044133 213.476894 
L 179.173747 213.476894 
L 179.173747 213.122259 
L 179.340338 213.122259 
L 179.354881 212.412988 
L 179.532848 212.412988 
L 179.532848 212.058353 
L 179.77608 212.058353 
L 179.77608 211.703718 
L 180.28654 211.703718 
L 180.28654 211.349082 
L 180.406522 211.349082 
L 180.406522 210.994447 
L 180.621123 210.994447 
L 180.621123 210.639812 
L 180.744398 210.639812 
L 180.744398 210.285176 
L 180.903055 210.285176 
L 181.012526 209.221271 
L 181.356782 209.221271 
L 181.398559 208.512 
L 181.795992 208.512 
L 181.795992 208.157365 
L 181.939723 208.157365 
L 181.939723 207.802729 
L 182.112522 207.802729 
L 182.148897 207.093459 
L 183.01461 207.093459 
L 183.085085 206.384188 
L 183.413649 206.384188 
L 183.413649 206.029553 
L 183.544415 206.029553 
L 183.544415 205.674918 
L 183.729661 205.674918 
L 183.774539 204.256376 
L 183.860544 204.256376 
L 183.860544 203.901741 
L 184.209672 203.901741 
L 184.303775 203.192471 
L 184.458466 203.192471 
L 184.458466 202.837835 
L 184.883653 202.837835 
L 184.883653 202.4832 
L 185.01108 202.4832 
L 185.106622 201.419294 
L 185.122677 201.419294 
L 185.173961 200.000753 
L 185.278233 200.000753 
L 185.278233 199.646118 
L 185.48506 199.646118 
L 185.486109 198.936847 
L 185.723864 198.936847 
L 185.723864 198.582212 
L 185.90536 198.582212 
L 185.90536 198.227576 
L 186.122696 198.227576 
L 186.122696 197.872941 
L 186.281299 197.872941 
L 186.281299 197.518306 
L 186.431592 197.518306 
L 186.443564 196.4544 
L 186.666634 196.4544 
L 186.770815 195.035859 
L 186.843205 195.035859 
L 186.843205 194.681224 
L 187.132895 194.681224 
L 187.162676 193.971953 
L 187.493797 193.971953 
L 187.552183 193.262682 
L 187.761628 193.262682 
L 187.774641 192.553412 
L 187.947603 192.553412 
L 188.056848 190.780235 
L 188.730254 190.780235 
L 188.830667 189.716329 
L 189.005545 189.716329 
L 189.104504 188.652424 
L 189.123541 188.652424 
L 189.222742 187.233882 
L 189.288873 187.233882 
L 189.288873 186.879247 
L 189.573908 186.879247 
L 189.612712 185.815341 
L 189.755428 185.815341 
L 189.755428 185.460706 
L 190.028588 185.460706 
L 190.028588 185.106071 
L 190.25798 185.106071 
L 190.335989 183.687529 
L 190.470926 183.687529 
L 190.548861 182.268988 
L 190.616091 182.268988 
L 190.725227 181.205082 
L 190.951038 181.205082 
L 190.951038 180.850447 
L 191.160204 180.850447 
L 191.188125 180.141176 
L 191.299395 180.141176 
L 191.385486 179.077271 
L 191.487972 179.077271 
L 191.52531 178.368 
L 191.870762 178.368 
L 191.870762 178.013365 
L 192.115057 178.013365 
L 192.139387 177.304094 
L 192.23859 177.304094 
L 192.294209 176.594824 
L 193.045554 176.594824 
L 193.111439 175.530918 
L 193.218186 175.530918 
L 193.259189 174.467012 
L 193.711873 174.467012 
L 193.711873 174.112376 
L 193.896652 174.112376 
L 193.953607 173.403106 
L 194.289791 173.403106 
L 194.298989 172.693835 
L 194.607153 172.693835 
L 194.607153 172.3392 
L 194.860048 172.3392 
L 194.874707 171.275294 
L 195.049092 171.275294 
L 195.049092 170.920659 
L 195.195588 170.920659 
L 195.214368 170.211388 
L 195.422191 170.211388 
L 195.470396 169.147482 
L 195.716895 169.147482 
L 195.816537 167.374306 
L 195.871599 167.374306 
L 195.978238 166.665035 
L 196.237778 166.665035 
L 196.332937 165.955765 
L 196.52474 165.955765 
L 196.533492 164.891859 
L 196.780928 164.891859 
L 196.868229 164.182588 
L 196.91973 164.182588 
L 197.005822 163.118682 
L 197.276902 163.118682 
L 197.276902 162.764047 
L 197.539156 162.764047 
L 197.644473 162.054776 
L 197.654367 162.054776 
L 197.654367 161.700141 
L 197.846826 161.700141 
L 197.859333 160.636235 
L 197.999603 160.636235 
L 198.053483 159.926965 
L 198.143119 159.926965 
L 198.224335 159.217694 
L 198.292987 159.217694 
L 198.292987 158.863059 
L 198.677876 158.863059 
L 198.677876 158.508424 
L 198.838531 158.508424 
L 198.892637 157.444518 
L 199.033098 157.444518 
L 199.033098 157.089882 
L 199.400779 157.089882 
L 199.400779 156.735247 
L 199.530549 156.735247 
L 199.530549 156.380612 
L 199.652018 156.380612 
L 199.652018 156.025976 
L 199.786943 156.025976 
L 199.786943 155.671341 
L 199.902872 155.671341 
L 200.008395 154.607435 
L 200.085823 154.607435 
L 200.190328 153.188894 
L 200.341003 153.188894 
L 200.450736 152.479624 
L 200.575366 152.479624 
L 200.67579 151.415718 
L 200.730002 151.415718 
L 200.730469 150.706447 
L 200.901883 150.706447 
L 200.901883 150.351812 
L 201.019434 150.351812 
L 201.082745 149.287906 
L 201.138082 149.287906 
L 201.19189 148.578635 
L 201.338397 148.578635 
L 201.350141 147.869365 
L 201.640041 147.869365 
L 201.70839 146.805459 
L 201.775168 146.805459 
L 201.882136 145.032282 
L 202.095566 145.032282 
L 202.095566 144.677647 
L 202.294582 144.677647 
L 202.403768 143.259106 
L 202.445136 143.259106 
L 202.493214 141.840565 
L 202.715823 141.840565 
L 202.772008 140.422024 
L 203.007907 140.422024 
L 203.109342 139.003482 
L 203.135231 139.003482 
L 203.135231 138.648847 
L 203.255172 138.648847 
L 203.353256 136.875671 
L 203.524989 136.875671 
L 203.591643 135.457129 
L 203.699952 135.457129 
L 203.80883 133.329318 
L 203.823484 133.329318 
L 203.934013 131.201506 
L 203.965081 131.201506 
L 204.071267 129.782965 
L 204.077517 129.782965 
L 204.179577 129.073694 
L 204.227687 129.073694 
L 204.227687 128.719059 
L 204.385891 128.719059 
L 204.45914 127.300518 
L 204.508068 127.300518 
L 204.588067 125.527341 
L 204.639316 125.527341 
L 204.693828 124.463435 
L 204.76363 124.463435 
L 204.864666 123.399529 
L 204.895357 123.399529 
L 204.991597 121.980988 
L 205.06957 121.980988 
L 205.164557 119.498541 
L 205.208745 119.498541 
L 205.315472 118.434635 
L 205.373532 118.434635 
L 205.448488 117.370729 
L 205.70027 117.370729 
L 205.788923 116.661459 
L 205.846608 116.661459 
L 205.954736 115.597553 
L 205.9897 115.597553 
L 206.061192 113.469741 
L 206.102975 113.469741 
L 206.199527 112.0512 
L 206.243441 112.0512 
L 206.293156 110.278024 
L 206.42532 110.278024 
L 206.479027 109.568753 
L 206.599652 109.568753 
L 206.682815 108.150212 
L 206.714076 108.150212 
L 206.758162 106.731671 
L 206.854113 106.731671 
L 206.854113 106.377035 
L 207.034884 106.377035 
L 207.078891 104.958494 
L 207.166597 104.958494 
L 207.239704 103.185318 
L 207.302659 103.185318 
L 207.383761 101.766776 
L 207.482776 101.766776 
L 207.577056 100.702871 
L 207.64148 100.702871 
L 207.748794 98.575059 
L 207.817436 98.575059 
L 207.919614 97.156518 
L 208.00191 97.156518 
L 208.093946 94.674071 
L 208.126415 94.674071 
L 208.228186 92.900894 
L 208.255732 92.900894 
L 208.319124 91.836988 
L 208.399384 91.836988 
L 208.452391 90.418447 
L 208.680991 90.418447 
L 208.680991 90.063812 
L 208.817497 90.063812 
L 208.817497 89.709176 
L 208.977419 89.709176 
L 209.030925 88.645271 
L 209.109407 88.645271 
L 209.214037 86.517459 
L 209.257092 86.517459 
L 209.341725 85.453553 
L 209.379479 85.453553 
L 209.483209 84.744282 
L 209.518048 84.744282 
L 209.576749 84.035012 
L 209.693314 84.035012 
L 209.714457 82.971106 
L 209.889632 82.971106 
L 209.976896 81.197929 
L 210.069156 81.197929 
L 210.114834 80.488659 
L 210.19147 80.488659 
L 210.265546 77.651576 
L 210.310749 77.651576 
L 210.365354 76.587671 
L 210.440143 76.587671 
L 210.536538 74.105224 
L 210.739648 74.105224 
L 210.807778 72.686682 
L 210.864229 72.686682 
L 210.972835 71.622776 
L 211.005565 71.622776 
L 211.080009 70.558871 
L 211.393947 70.558871 
L 211.50481 69.494965 
L 211.52559 69.494965 
L 211.626794 67.721788 
L 211.646656 67.721788 
L 211.646656 67.367153 
L 211.906323 67.367153 
L 212.000635 65.948612 
L 212.10748 65.948612 
L 212.212708 64.530071 
L 212.247653 64.530071 
L 212.349586 62.047624 
L 212.501207 62.047624 
L 212.61121 60.983718 
L 212.642204 60.983718 
L 212.749664 59.565176 
L 212.759022 59.565176 
L 212.759022 59.210541 
L 212.904216 59.210541 
L 212.930583 58.146635 
L 213.181175 58.146635 
L 213.220616 57.437365 
L 213.295183 57.437365 
L 213.295183 57.082729 
L 213.670215 57.082729 
L 213.702792 55.664188 
L 213.785037 55.664188 
L 213.888962 54.245647 
L 213.916764 54.245647 
L 213.916764 53.891012 
L 214.099005 53.891012 
L 214.168806 53.181741 
L 214.259503 53.181741 
L 214.348633 50.699294 
L 214.466371 50.699294 
L 214.533928 49.990024 
L 214.585387 49.990024 
L 214.64272 48.926118 
L 214.720743 48.926118 
L 214.807278 47.152941 
L 214.849625 47.152941 
L 214.905721 46.089035 
L 215.046214 46.089035 
L 215.129532 45.025129 
L 215.216587 45.025129 
L 215.252419 43.606588 
L 215.36465 43.606588 
L 215.442303 42.897318 
L 215.492829 42.897318 
L 215.492829 42.542682 
L 215.758567 42.542682 
L 215.761085 41.478776 
L 215.869914 41.478776 
L 215.869914 41.124141 
L 216.173379 41.124141 
L 216.173379 40.769506 
L 216.306176 40.769506 
L 216.329202 38.996329 
L 216.5708 38.996329 
L 216.664856 38.287059 
L 216.78331 38.287059 
L 216.78331 37.932424 
L 217.098716 37.932424 
L 217.20476 36.868518 
L 217.466519 36.868518 
L 217.466519 36.159247 
L 217.745095 36.159247 
L 217.745095 35.804612 
L 218.082419 35.804612 
L 218.128928 33.322165 
L 218.348794 33.322165 
L 218.399759 32.612894 
L 218.564311 32.612894 
L 218.564311 32.258259 
L 219.062365 32.258259 
L 219.062365 31.903624 
L 219.205349 31.903624 
L 219.216007 31.194353 
L 219.735758 31.194353 
L 219.777511 29.421176 
L 219.855506 29.421176 
L 219.855506 28.711906 
L 223.540351 28.711906 
L 223.540351 28.002635 
L 224.298951 28.002635 
L 224.298951 27.648 
L 360.8064 27.648 
L 360.8064 27.648 
" style="fill: none; stroke: #000080; stroke-width: 1.5; stroke-linecap: square"/>
   </g>
   <g id="line2d_36">
    <defs>
     <path id="mdd0d9867d5" d="M 0 6 
C 1.591219 6 3.117479 5.367802 4.242641 4.242641 
C 5.367802 3.117479 6 1.591219 6 0 
C 6 -1.591219 5.367802 -3.117479 4.242641 -4.242641 
C 3.117479 -5.367802 1.591219 -6 0 -6 
C -1.591219 -6 -3.117479 -5.367802 -4.242641 -4.242641 
C -5.367802 -3.117479 -6 -1.591219 -6 0 
C -6 1.591219 -5.367802 3.117479 -4.242641 4.242641 
C -3.117479 5.367802 -1.591219 6 0 6 
z
" style="stroke: #000080; stroke-width: 1.5"/>
    </defs>
    <g>
     <use xlink:href="#mdd0d9867d5" x="90.505165" y="297.525459" style="fill-opacity: 0; stroke: #000080; stroke-width: 1.5"/>
     <use xlink:href="#mdd0d9867d5" x="160.061585" y="248.940424" style="fill-opacity: 0; stroke: #000080; stroke-width: 1.5"/>
     <use xlink:href="#mdd0d9867d5" x="207.078891" y="105.313129" style="fill-opacity: 0; stroke: #000080; stroke-width: 1.5"/>
     <use xlink:href="#mdd0d9867d5" x="224.298951" y="28.002635" style="fill-opacity: 0; stroke: #000080; stroke-width: 1.5"/>
     <use xlink:href="#mdd0d9867d5" x="224.298951" y="27.648" style="fill-opacity: 0; stroke: #000080; stroke-width: 1.5"/>
     <use xlink:href="#mdd0d9867d5" x="360.8064" y="27.648" style="fill-opacity: 0; stroke: #000080; stroke-width: 1.5"/>
    </g>
   </g>
   <g id="line2d_37">
    <path style="fill: none; stroke: #000080; stroke-width: 1.5; stroke-linecap: square"/>
    <g/>
   </g>
   <g id="line2d_38">
    <defs>
     <path id="mdc646150f7" d="M 0 1.5 
C 0.397805 1.5 0.77937 1.341951 1.06066 1.06066 
C 1.341951 0.77937 1.5 0.397805 1.5 0 
C 1.5 -0.397805 1.341951 -0.77937 1.06066 -1.06066 
C 0.77937 -1.341951 0.397805 -1.5 0 -1.5 
C -0.397805 -1.5 -0.77937 -1.341951 -1.06066 -1.06066 
C -1.341951 -0.77937 -1.5 -0.397805 -1.5 0 
C -1.5 0.397805 -1.341951 0.77937 -1.06066 1.06066 
C -0.77937 1.341951 -0.397805 1.5 0 1.5 
z
" style="stroke: #ff00ff"/>
    </defs>
    <g>
     <use xlink:href="#mdc646150f7" x="246.422774" y="27.648" style="fill: #ff00ff; stroke: #ff00ff"/>
     <use xlink:href="#mdc646150f7" x="246.422774" y="27.648" style="fill: #ff00ff; stroke: #ff00ff"/>
    </g>
   </g>
   <g id="line2d_39">
    <path d="M 112.740305 298.944 
L 112.840366 298.234729 
L 112.939899 298.234729 
L 112.989468 297.170824 
L 113.284172 297.170824 
L 113.381389 295.752282 
L 113.57433 295.752282 
L 113.622258 295.043012 
L 113.765312 295.043012 
L 113.812756 293.269835 
L 120.48442 293.269835 
L 120.550775 291.851294 
L 120.64987 291.851294 
L 120.748446 290.787388 
L 120.78119 290.787388 
L 120.879082 290.078118 
L 121.201758 290.078118 
L 121.297492 289.368847 
L 121.329295 289.368847 
L 121.329295 288.659576 
L 125.167667 288.659576 
L 125.167667 287.950306 
L 125.779479 287.950306 
L 125.829577 287.241035 
L 126.176572 287.241035 
L 126.225624 285.822494 
L 126.517282 285.822494 
L 126.517282 285.467859 
L 126.68535 285.467859 
L 126.68535 285.113224 
L 129.86647 285.113224 
L 129.947033 283.694682 
L 130.087194 283.694682 
L 130.127049 282.985412 
L 130.265881 282.985412 
L 130.265881 282.630776 
L 130.734242 282.630776 
L 130.734242 282.276141 
L 130.945072 282.276141 
L 130.964122 281.566871 
L 132.656392 281.566871 
L 132.656392 281.212235 
L 133.137444 281.212235 
L 133.238946 280.502965 
L 133.289492 280.502965 
L 133.390178 279.439059 
L 133.44032 279.439059 
L 133.44032 279.084424 
L 133.623039 279.084424 
L 133.623039 278.729788 
L 133.804 278.729788 
L 133.804 278.375153 
L 134.304809 278.375153 
L 134.304809 278.020518 
L 134.416073 278.020518 
L 134.416073 277.665882 
L 135.952253 277.665882 
L 136.039681 276.956612 
L 136.485031 276.956612 
L 136.485031 276.601976 
L 137.030737 276.601976 
L 137.030737 276.247341 
L 137.154452 276.247341 
L 137.154452 275.892706 
L 138.076838 275.892706 
L 138.076838 275.538071 
L 138.348817 275.538071 
L 138.348817 275.183435 
L 138.843719 275.183435 
L 138.843719 274.8288 
L 139.030652 274.8288 
L 139.092553 274.119529 
L 139.628669 274.119529 
L 139.628669 273.764894 
L 139.796097 273.764894 
L 139.796097 273.410259 
L 140.691224 273.410259 
L 140.702573 272.346353 
L 140.826966 272.346353 
L 140.826966 271.991718 
L 141.017607 271.991718 
L 141.039908 271.282447 
L 141.371301 271.282447 
L 141.371301 270.927812 
L 141.825656 270.927812 
L 141.825656 270.573176 
L 143.166224 270.573176 
L 143.166224 270.218541 
L 143.83115 270.218541 
L 143.907854 269.509271 
L 143.946089 269.509271 
L 143.946089 269.154635 
L 144.136106 269.154635 
L 144.155003 268.445365 
L 144.445498 268.445365 
L 144.445498 268.090729 
L 144.822939 268.090729 
L 144.822939 267.736094 
L 144.950106 267.736094 
L 144.986282 267.026824 
L 145.599611 267.026824 
L 145.62583 266.317553 
L 147.336011 266.317553 
L 147.336011 265.962918 
L 147.628773 265.962918 
L 147.707122 264.899012 
L 147.986506 264.899012 
L 148.017294 264.189741 
L 148.254209 264.189741 
L 148.254209 263.835106 
L 148.674765 263.835106 
L 148.785835 262.7712 
L 148.80797 262.7712 
L 148.80797 262.416565 
L 149.252502 262.416565 
L 149.252502 262.061929 
L 150.38447 262.061929 
L 150.411576 261.352659 
L 150.693856 261.352659 
L 150.693856 260.998024 
L 151.142085 260.998024 
L 151.142085 260.643388 
L 151.304226 260.643388 
L 151.41369 259.934118 
L 151.509749 259.934118 
L 151.516136 259.224847 
L 151.932924 259.224847 
L 151.932924 258.870212 
L 152.051217 258.870212 
L 152.051217 258.515576 
L 152.181101 258.515576 
L 152.181101 258.160941 
L 152.661837 258.160941 
L 152.667844 257.451671 
L 152.787587 257.451671 
L 152.787587 257.097035 
L 153.030703 257.097035 
L 153.077776 256.387765 
L 153.299778 256.387765 
L 153.299778 256.033129 
L 153.427118 256.033129 
L 153.427118 255.678494 
L 153.764426 255.678494 
L 153.871775 254.259953 
L 154.719981 254.259953 
L 154.719981 253.905318 
L 155.114345 253.905318 
L 155.140696 253.196047 
L 155.277126 253.196047 
L 155.381403 252.486776 
L 155.731683 252.486776 
L 155.731683 252.132141 
L 155.843627 252.132141 
L 155.909463 251.068235 
L 156.299717 251.068235 
L 156.299717 250.7136 
L 156.565227 250.7136 
L 156.648044 250.004329 
L 156.769174 250.004329 
L 156.769174 249.649694 
L 156.903921 249.649694 
L 156.985263 248.940424 
L 157.175281 248.940424 
L 157.175281 248.585788 
L 157.489322 248.585788 
L 157.554285 247.876518 
L 157.69734 247.876518 
L 157.784483 247.167247 
L 157.816487 247.167247 
L 157.871225 246.103341 
L 158.1021 246.103341 
L 158.1021 245.748706 
L 158.673735 245.748706 
L 158.673735 245.394071 
L 159.015419 245.394071 
L 159.015419 245.039435 
L 159.220034 245.039435 
L 159.220034 244.6848 
L 159.380456 244.6848 
L 159.485256 243.266259 
L 159.493615 243.266259 
L 159.585318 242.556988 
L 159.742668 242.556988 
L 159.742668 242.202353 
L 160.194901 242.202353 
L 160.287262 240.783812 
L 160.636516 240.783812 
L 160.636516 240.429176 
L 160.793149 240.429176 
L 160.793149 240.074541 
L 160.967817 240.074541 
L 160.967817 239.719906 
L 161.102557 239.719906 
L 161.102557 239.365271 
L 161.236339 239.365271 
L 161.236339 239.010635 
L 161.632069 239.010635 
L 161.736206 237.592094 
L 161.913396 237.592094 
L 161.913396 237.237459 
L 162.103487 237.237459 
L 162.103487 236.882824 
L 162.215903 236.882824 
L 162.31327 236.173553 
L 162.43874 236.173553 
L 162.495821 234.755012 
L 162.96719 234.755012 
L 163.053839 233.691106 
L 163.297769 233.691106 
L 163.297769 233.336471 
L 163.538576 233.336471 
L 163.59914 232.6272 
L 163.819551 232.6272 
L 163.899064 231.208659 
L 164.00785 231.208659 
L 164.00785 230.854024 
L 164.20079 230.854024 
L 164.20079 230.499388 
L 164.440019 230.499388 
L 164.513759 229.790118 
L 164.714273 229.790118 
L 164.714273 229.435482 
L 164.859342 229.435482 
L 164.859342 229.080847 
L 165.009535 229.080847 
L 165.084184 228.016941 
L 165.303302 228.016941 
L 165.303302 227.662306 
L 165.752011 227.662306 
L 165.844657 226.5984 
L 166.037446 226.5984 
L 166.037446 226.243765 
L 166.210744 226.243765 
L 166.272043 225.534494 
L 166.474943 225.534494 
L 166.474943 225.179859 
L 166.595641 225.179859 
L 166.615683 224.470588 
L 166.78943 224.470588 
L 166.891221 223.761318 
L 167.073627 223.761318 
L 167.073627 223.406682 
L 167.342586 223.406682 
L 167.430478 222.697412 
L 167.713323 222.697412 
L 167.812933 221.633506 
L 167.831719 221.633506 
L 167.912019 220.214965 
L 168.108639 220.214965 
L 168.135052 219.505694 
L 168.890409 219.505694 
L 168.898015 218.796424 
L 169.059531 218.796424 
L 169.092171 218.087153 
L 169.217182 218.087153 
L 169.301717 217.377882 
L 169.378463 217.377882 
L 169.388343 216.668612 
L 169.567748 216.668612 
L 169.567748 216.313976 
L 169.723639 216.313976 
L 169.825245 214.895435 
L 169.971845 214.895435 
L 169.971845 214.5408 
L 170.252229 214.5408 
L 170.3299 213.476894 
L 170.4353 213.476894 
L 170.4353 213.122259 
L 170.602722 213.122259 
L 170.623545 212.412988 
L 170.88077 212.412988 
L 170.885331 211.703718 
L 171.15252 211.703718 
L 171.226568 210.285176 
L 171.508852 210.285176 
L 171.508852 209.930541 
L 171.695443 209.930541 
L 171.695443 209.575906 
L 171.808687 209.575906 
L 171.808687 209.221271 
L 171.975134 209.221271 
L 171.975134 208.866635 
L 172.229507 208.866635 
L 172.301557 208.157365 
L 172.503517 208.157365 
L 172.55993 207.448094 
L 172.847704 207.448094 
L 172.847704 207.093459 
L 173.628445 207.093459 
L 173.628445 206.738824 
L 174.425361 206.738824 
L 174.425361 206.384188 
L 183.992796 206.384188 
L 183.992796 206.029553 
L 184.273579 206.029553 
L 184.273579 205.674918 
L 184.532577 205.674918 
L 184.614094 204.965647 
L 185.333328 204.965647 
L 185.398807 204.256376 
L 185.594932 204.256376 
L 185.594932 203.901741 
L 185.773537 203.901741 
L 185.773537 203.547106 
L 185.986262 203.547106 
L 185.986262 203.192471 
L 186.220844 203.192471 
L 186.330527 202.4832 
L 186.343566 202.4832 
L 186.343566 202.128565 
L 186.49038 202.128565 
L 186.49038 201.773929 
L 186.66959 201.773929 
L 186.729605 201.064659 
L 186.983278 201.064659 
L 186.983278 200.710024 
L 187.37458 200.710024 
L 187.37458 200.355388 
L 187.627253 200.355388 
L 187.627253 200.000753 
L 194.041714 200.000753 
L 194.112169 199.291482 
L 195.005488 199.291482 
L 195.096372 198.582212 
L 195.436418 198.582212 
L 195.436418 198.227576 
L 195.58485 198.227576 
L 195.58485 197.872941 
L 195.974633 197.872941 
L 196.002254 197.163671 
L 196.293986 197.163671 
L 196.372396 196.4544 
L 196.52299 196.4544 
L 196.52299 196.099765 
L 196.703628 196.099765 
L 196.703628 195.745129 
L 196.827501 195.745129 
L 196.827501 195.390494 
L 197.131117 195.390494 
L 197.22862 194.681224 
L 197.325061 194.681224 
L 197.325061 194.326588 
L 197.517026 194.326588 
L 197.544685 193.617318 
L 197.630721 193.617318 
L 197.630721 193.262682 
L 197.994207 193.262682 
L 197.994207 192.908047 
L 198.385193 192.908047 
L 198.44009 192.198776 
L 198.567213 192.198776 
L 198.621582 191.489506 
L 198.74334 191.489506 
L 198.823043 190.4256 
L 199.237803 190.4256 
L 199.237803 190.070965 
L 199.50118 190.070965 
L 199.587167 189.361694 
L 199.637681 189.361694 
L 199.637681 189.007059 
L 199.982191 189.007059 
L 199.982191 188.652424 
L 200.373848 188.652424 
L 200.448841 187.943153 
L 200.699176 187.943153 
L 200.740732 187.233882 
L 200.83007 187.233882 
L 200.83007 186.879247 
L 201.003803 186.879247 
L 201.003803 186.524612 
L 201.307648 186.524612 
L 201.307648 186.169976 
L 201.449218 186.169976 
L 201.55671 185.460706 
L 201.99679 185.460706 
L 202.085581 184.3968 
L 202.169633 184.3968 
L 202.169633 184.042165 
L 202.510627 184.042165 
L 202.510627 183.687529 
L 202.625745 183.687529 
L 202.663681 182.978259 
L 202.776613 182.978259 
L 202.804218 182.268988 
L 202.895111 182.268988 
L 202.969417 181.559718 
L 203.083417 181.559718 
L 203.101116 180.850447 
L 203.217594 180.850447 
L 203.29919 180.141176 
L 203.349602 180.141176 
L 203.349602 179.786541 
L 203.541876 179.786541 
L 203.541876 179.431906 
L 203.72345 179.431906 
L 203.72345 179.077271 
L 203.860663 179.077271 
L 203.860663 178.722635 
L 204.303868 178.722635 
L 204.303868 178.368 
L 206.190452 178.368 
L 206.190452 178.013365 
L 206.586325 178.013365 
L 206.586325 177.658729 
L 206.909636 177.658729 
L 206.919378 176.949459 
L 207.186142 176.949459 
L 207.289821 175.176282 
L 207.457663 175.176282 
L 207.457663 174.821647 
L 207.608486 174.821647 
L 207.685059 173.757741 
L 209.670987 173.757741 
L 209.673018 173.048471 
L 209.929452 173.048471 
L 210.001144 172.3392 
L 210.072849 172.3392 
L 210.145129 171.275294 
L 210.22446 171.275294 
L 210.311871 169.856753 
L 210.372902 169.856753 
L 210.372902 169.502118 
L 210.66109 169.502118 
L 210.66109 169.147482 
L 210.825522 169.147482 
L 210.934351 168.438212 
L 212.038791 168.438212 
L 212.061034 167.728941 
L 212.330704 167.728941 
L 212.393569 167.019671 
L 212.44371 167.019671 
L 212.446714 166.3104 
L 212.580911 166.3104 
L 212.668941 165.601129 
L 212.791002 165.601129 
L 212.891996 164.891859 
L 213.038111 164.891859 
L 213.038111 164.537224 
L 213.696 164.537224 
L 213.696 164.182588 
L 214.154409 164.182588 
L 214.154409 163.827953 
L 214.384574 163.827953 
L 214.384574 163.473318 
L 214.788058 163.473318 
L 214.894955 162.764047 
L 214.961212 162.764047 
L 215.006493 162.054776 
L 215.094988 162.054776 
L 215.180471 160.990871 
L 215.354572 160.990871 
L 215.397418 159.926965 
L 216.066917 159.926965 
L 216.066917 159.572329 
L 216.475462 159.572329 
L 216.475462 159.217694 
L 216.756255 159.217694 
L 216.756255 158.863059 
L 216.978107 158.863059 
L 216.978107 158.508424 
L 217.095783 158.508424 
L 217.173828 157.799153 
L 217.397765 157.799153 
L 217.424105 157.089882 
L 218.320237 157.089882 
L 218.320237 156.735247 
L 218.554363 156.735247 
L 218.554363 156.380612 
L 218.719009 156.380612 
L 218.800438 154.607435 
L 218.841644 154.607435 
L 218.841644 154.2528 
L 218.974281 154.2528 
L 219.054263 152.479624 
L 219.147409 152.479624 
L 219.147409 152.124988 
L 219.28714 152.124988 
L 219.391262 151.415718 
L 219.425841 151.415718 
L 219.460357 150.706447 
L 220.420478 150.706447 
L 220.420478 150.351812 
L 220.571588 150.351812 
L 220.680331 148.578635 
L 220.712622 148.578635 
L 220.770768 147.514729 
L 221.208218 147.514729 
L 221.208218 147.160094 
L 222.148133 147.160094 
L 222.217655 146.450824 
L 222.306792 146.450824 
L 222.395508 145.386918 
L 223.071652 145.386918 
L 223.071652 145.032282 
L 223.308796 145.032282 
L 223.41012 143.259106 
L 223.465944 143.259106 
L 223.558664 142.1952 
L 223.627317 142.1952 
L 223.671202 141.485929 
L 224.595498 141.485929 
L 224.595498 141.131294 
L 224.870767 141.131294 
L 224.973944 140.422024 
L 225.140791 140.422024 
L 225.140791 140.067388 
L 225.780831 140.067388 
L 225.840988 139.003482 
L 225.914539 139.003482 
L 226.012161 136.875671 
L 226.03199 136.875671 
L 226.080561 135.811765 
L 226.174552 135.811765 
L 226.246813 135.102494 
L 226.34273 135.102494 
L 226.438161 134.038588 
L 226.714315 134.038588 
L 226.807884 133.329318 
L 226.831204 133.329318 
L 226.831204 132.974682 
L 226.970518 132.974682 
L 227.075827 132.265412 
L 227.122812 132.265412 
L 227.167619 131.201506 
L 227.235829 131.201506 
L 227.336717 129.428329 
L 227.449813 129.428329 
L 227.449813 129.073694 
L 227.799472 129.073694 
L 227.799472 128.719059 
L 228.063247 128.719059 
L 228.063247 128.364424 
L 228.193109 128.364424 
L 228.25803 127.655153 
L 228.312284 127.655153 
L 228.401788 126.945882 
L 228.444616 126.945882 
L 228.444616 126.591247 
L 229.030772 126.591247 
L 229.12704 125.881976 
L 229.14302 125.881976 
L 229.247122 123.399529 
L 229.277944 123.399529 
L 229.379981 121.626353 
L 229.484808 121.626353 
L 229.486528 120.917082 
L 229.990604 120.917082 
L 230.074544 119.853176 
L 230.152839 119.853176 
L 230.245004 118.434635 
L 230.367933 118.434635 
L 230.425776 116.661459 
L 231.034846 116.661459 
L 231.142083 115.952188 
L 231.238389 115.952188 
L 231.238389 115.597553 
L 231.507217 115.597553 
L 231.604028 114.888282 
L 231.855053 114.888282 
L 231.962252 113.469741 
L 231.997259 113.469741 
L 232.099338 110.987294 
L 232.135146 110.987294 
L 232.233946 109.214118 
L 232.255531 109.214118 
L 232.296709 108.150212 
L 232.377406 108.150212 
L 232.429398 107.440941 
L 232.568804 107.440941 
L 232.568804 107.086306 
L 232.756827 107.086306 
L 232.858599 106.0224 
L 232.903121 106.0224 
L 232.903121 105.667765 
L 233.033207 105.667765 
L 233.08342 104.603859 
L 233.148913 104.603859 
L 233.148913 104.249224 
L 233.562428 104.249224 
L 233.562428 103.894588 
L 233.676148 103.894588 
L 233.723061 102.830682 
L 233.80367 102.830682 
L 233.903548 101.057506 
L 234.318356 101.057506 
L 234.365257 100.348235 
L 234.47098 100.348235 
L 234.572405 99.284329 
L 235.14923 99.284329 
L 235.23992 97.511153 
L 235.276402 97.511153 
L 235.369369 95.383341 
L 235.715796 95.383341 
L 235.808069 93.9648 
L 235.833937 93.9648 
L 235.934757 91.836988 
L 235.94689 91.836988 
L 236.02096 90.063812 
L 236.081061 90.063812 
L 236.135003 88.645271 
L 236.400803 88.645271 
L 236.400803 88.290635 
L 236.512572 88.290635 
L 236.618003 86.872094 
L 236.6396 86.872094 
L 236.669117 85.808188 
L 236.964009 85.808188 
L 237.024904 85.098918 
L 237.201313 85.098918 
L 237.307438 83.680376 
L 237.314314 83.680376 
L 237.411507 82.616471 
L 237.434069 82.616471 
L 237.539882 81.197929 
L 237.733754 81.197929 
L 237.837899 79.779388 
L 237.889756 79.779388 
L 237.998836 77.651576 
L 238.023019 77.651576 
L 238.11279 75.523765 
L 238.356337 75.523765 
L 238.419377 74.814494 
L 238.507281 74.814494 
L 238.598391 73.750588 
L 238.635758 73.750588 
L 238.717084 72.686682 
L 238.98403 72.686682 
L 238.98403 72.332047 
L 239.14912 72.332047 
L 239.230853 71.268141 
L 239.279014 71.268141 
L 239.303048 70.204235 
L 239.418703 70.204235 
L 239.52582 69.494965 
L 239.66069 69.494965 
L 239.766442 67.367153 
L 239.795536 67.367153 
L 239.905537 65.239341 
L 239.991061 65.239341 
L 239.991061 64.884706 
L 240.346602 64.884706 
L 240.403323 63.8208 
L 240.482446 63.8208 
L 240.516255 62.756894 
L 240.730144 62.756894 
L 240.830067 60.629082 
L 240.8522 60.629082 
L 240.929461 58.501271 
L 241.002841 58.501271 
L 241.002841 58.146635 
L 241.203539 58.146635 
L 241.302605 56.018824 
L 241.319605 56.018824 
L 241.387182 54.245647 
L 241.468972 54.245647 
L 241.468972 53.891012 
L 241.713076 53.891012 
L 241.814598 52.472471 
L 241.856585 52.472471 
L 241.923936 51.7632 
L 241.98584 51.7632 
L 242.017054 50.344659 
L 242.250137 50.344659 
L 242.317783 49.280753 
L 242.36938 49.280753 
L 242.442749 47.507576 
L 242.730998 47.507576 
L 242.82649 44.670494 
L 242.84356 44.670494 
L 242.922985 43.606588 
L 242.973839 43.606588 
L 242.999659 42.897318 
L 243.235765 42.897318 
L 243.342643 41.124141 
L 243.355283 41.124141 
L 243.445834 37.577788 
L 243.471062 37.577788 
L 243.531348 36.159247 
L 243.854678 36.159247 
L 243.930941 34.740706 
L 243.967481 34.740706 
L 243.967481 34.386071 
L 244.219672 34.386071 
L 244.287379 33.6768 
L 244.33491 33.6768 
L 244.33491 33.322165 
L 244.559338 33.322165 
L 244.631264 31.903624 
L 244.995837 31.903624 
L 245.004708 31.194353 
L 245.111413 31.194353 
L 245.169706 29.421176 
L 245.933349 29.421176 
L 245.933349 29.066541 
L 246.307969 29.066541 
L 246.398082 28.002635 
L 246.422774 28.002635 
L 246.422774 27.648 
L 360.8064 27.648 
L 360.8064 27.648 
" style="fill: none; stroke: #ff00ff; stroke-width: 1.5; stroke-linecap: square"/>
   </g>
   <g id="line2d_40">
    <defs>
     <path id="m9326d78d26" d="M 0 8.485281 
L 5.091169 0 
L 0 -8.485281 
L -5.091169 0 
z
" style="stroke: #ff00ff; stroke-width: 1.5; stroke-linejoin: miter"/>
    </defs>
    <g>
     <use xlink:href="#m9326d78d26" x="156.769174" y="250.004329" style="fill-opacity: 0; stroke: #ff00ff; stroke-width: 1.5; stroke-linejoin: miter"/>
     <use xlink:href="#m9326d78d26" x="218.320237" y="156.735247" style="fill-opacity: 0; stroke: #ff00ff; stroke-width: 1.5; stroke-linejoin: miter"/>
     <use xlink:href="#m9326d78d26" x="246.422774" y="28.002635" style="fill-opacity: 0; stroke: #ff00ff; stroke-width: 1.5; stroke-linejoin: miter"/>
     <use xlink:href="#m9326d78d26" x="246.422774" y="27.648" style="fill-opacity: 0; stroke: #ff00ff; stroke-width: 1.5; stroke-linejoin: miter"/>
     <use xlink:href="#m9326d78d26" x="360.8064" y="27.648" style="fill-opacity: 0; stroke: #ff00ff; stroke-width: 1.5; stroke-linejoin: miter"/>
    </g>
   </g>
   <g id="line2d_41">
    <path style="fill: none; stroke: #ff00ff; stroke-width: 1.5; stroke-linecap: square"/>
    <g/>
   </g>
   <g id="line2d_42">
    <path d="M 360.8064 27.648 
L 380.514816 293.51808 
" style="fill: none; stroke: #ff00ff; stroke-width: 1.5; stroke-linecap: square"/>
    <g>
     <use xlink:href="#m9326d78d26" x="360.8064" y="27.648" style="fill-opacity: 0; stroke: #ff00ff; stroke-width: 1.5; stroke-linejoin: miter"/>
     <use xlink:href="#m9326d78d26" x="380.514816" y="293.51808" style="fill-opacity: 0; stroke: #ff00ff; stroke-width: 1.5; stroke-linejoin: miter"/>
    </g>
   </g>
   <g id="line2d_43">
    <path d="M 360.8064 27.648 
L 380.514816 163.296 
" style="fill: none; stroke: #000080; stroke-width: 1.5; stroke-linecap: square"/>
    <g>
     <use xlink:href="#mdd0d9867d5" x="360.8064" y="27.648" style="fill-opacity: 0; stroke: #000080; stroke-width: 1.5"/>
     <use xlink:href="#mdd0d9867d5" x="380.514816" y="163.296" style="fill-opacity: 0; stroke: #000080; stroke-width: 1.5"/>
    </g>
   </g>
   <g id="line2d_44">
    <path d="M 360.8064 298.944 
L 360.8064 27.648 
" style="fill: none; stroke: #000000; stroke-width: 1.5; stroke-linecap: square"/>
   </g>
   <g id="patch_3">
    <path d="M 57.6 298.944 
L 360.8064 298.944 
" style="fill: none; stroke: #000000; stroke-width: 0.8; stroke-linejoin: miter; stroke-linecap: square"/>
   </g>
   <g id="patch_4">
    <path d="M 57.6 27.648 
L 360.8064 27.648 
" style="fill: none; stroke: #000000; stroke-width: 0.8; stroke-linejoin: miter; stroke-linecap: square"/>
   </g>
   <g id="text_13">
    <!-- EvoSpace- -->
    <g transform="translate(386.578944 297.381205)scale(0.14 -0.14)">
     <defs>
      <path id="DejaVuSans-45" d="M 628 4666 
L 3578 4666 
L 3578 4134 
L 1259 4134 
L 1259 2753 
L 3481 2753 
L 3481 2222 
L 1259 2222 
L 1259 531 
L 3634 531 
L 3634 0 
L 628 0 
L 628 4666 
z
" transform="scale(0.015625)"/>
      <path id="DejaVuSans-53" d="M 3425 4513 
L 3425 3897 
Q 3066 4069 2747 4153 
Q 2428 4238 2131 4238 
Q 1616 4238 1336 4038 
Q 1056 3838 1056 3469 
Q 1056 3159 1242 3001 
Q 1428 2844 1947 2747 
L 2328 2669 
Q 3034 2534 3370 2195 
Q 3706 1856 3706 1288 
Q 3706 609 3251 259 
Q 2797 -91 1919 -91 
Q 1588 -91 1214 -16 
Q 841 59 441 206 
L 441 856 
Q 825 641 1194 531 
Q 1563 422 1919 422 
Q 2459 422 2753 634 
Q 3047 847 3047 1241 
Q 3047 1584 2836 1778 
Q 2625 1972 2144 2069 
L 1759 2144 
Q 1053 2284 737 2584 
Q 422 2884 422 3419 
Q 422 4038 858 4394 
Q 1294 4750 2059 4750 
Q 2388 4750 2728 4690 
Q 3069 4631 3425 4513 
z
" transform="scale(0.015625)"/>
     </defs>
     <use xlink:href="#DejaVuSans-45"/>
     <use xlink:href="#DejaVuSans-76" x="63.183594"/>
     <use xlink:href="#DejaVuSans-6f" x="122.363281"/>
     <use xlink:href="#DejaVuSans-53" x="183.544922"/>
     <use xlink:href="#DejaVuSans-70" x="247.021484"/>
     <use xlink:href="#DejaVuSans-61" x="310.498047"/>
     <use xlink:href="#DejaVuSans-63" x="371.777344"/>
     <use xlink:href="#DejaVuSans-65" x="426.757812"/>
     <use xlink:href="#DejaVuSans-2d" x="488.28125"/>
    </g>
   </g>
   <g id="text_14">
    <!-- LCGA -->
    <g transform="translate(386.578944 167.159125)scale(0.14 -0.14)">
     <defs>
      <path id="DejaVuSans-4c" d="M 628 4666 
L 1259 4666 
L 1259 531 
L 3531 531 
L 3531 0 
L 628 0 
L 628 4666 
z
" transform="scale(0.015625)"/>
      <path id="DejaVuSans-43" d="M 4122 4306 
L 4122 3641 
Q 3803 3938 3442 4084 
Q 3081 4231 2675 4231 
Q 1875 4231 1450 3742 
Q 1025 3253 1025 2328 
Q 1025 1406 1450 917 
Q 1875 428 2675 428 
Q 3081 428 3442 575 
Q 3803 722 4122 1019 
L 4122 359 
Q 3791 134 3420 21 
Q 3050 -91 2638 -91 
Q 1578 -91 968 557 
Q 359 1206 359 2328 
Q 359 3453 968 4101 
Q 1578 4750 2638 4750 
Q 3056 4750 3426 4639 
Q 3797 4528 4122 4306 
z
" transform="scale(0.015625)"/>
      <path id="DejaVuSans-47" d="M 3809 666 
L 3809 1919 
L 2778 1919 
L 2778 2438 
L 4434 2438 
L 4434 434 
Q 4069 175 3628 42 
Q 3188 -91 2688 -91 
Q 1594 -91 976 548 
Q 359 1188 359 2328 
Q 359 3472 976 4111 
Q 1594 4750 2688 4750 
Q 3144 4750 3555 4637 
Q 3966 4525 4313 4306 
L 4313 3634 
Q 3963 3931 3569 4081 
Q 3175 4231 2741 4231 
Q 1884 4231 1454 3753 
Q 1025 3275 1025 2328 
Q 1025 1384 1454 906 
Q 1884 428 2741 428 
Q 3075 428 3337 486 
Q 3600 544 3809 666 
z
" transform="scale(0.015625)"/>
      <path id="DejaVuSans-41" d="M 2188 4044 
L 1331 1722 
L 3047 1722 
L 2188 4044 
z
M 1831 4666 
L 2547 4666 
L 4325 0 
L 3669 0 
L 3244 1197 
L 1141 1197 
L 716 0 
L 50 0 
L 1831 4666 
z
" transform="scale(0.015625)"/>
     </defs>
     <use xlink:href="#DejaVuSans-4c"/>
     <use xlink:href="#DejaVuSans-43" x="55.712891"/>
     <use xlink:href="#DejaVuSans-47" x="125.537109"/>
     <use xlink:href="#DejaVuSans-41" x="203.027344"/>
    </g>
   </g>
   <g id="text_15">
    <!-- best 2009 -->
    <g transform="translate(386.578944 36.937045)scale(0.14 -0.14)">
     <defs>
      <path id="DejaVuSans-62" d="M 3116 1747 
Q 3116 2381 2855 2742 
Q 2594 3103 2138 3103 
Q 1681 3103 1420 2742 
Q 1159 2381 1159 1747 
Q 1159 1113 1420 752 
Q 1681 391 2138 391 
Q 2594 391 2855 752 
Q 3116 1113 3116 1747 
z
M 1159 2969 
Q 1341 3281 1617 3432 
Q 1894 3584 2278 3584 
Q 2916 3584 3314 3078 
Q 3713 2572 3713 1747 
Q 3713 922 3314 415 
Q 2916 -91 2278 -91 
Q 1894 -91 1617 61 
Q 1341 213 1159 525 
L 1159 0 
L 581 0 
L 581 4863 
L 1159 4863 
L 1159 2969 
z
" transform="scale(0.015625)"/>
      <path id="DejaVuSans-39" d="M 703 97 
L 703 672 
Q 941 559 1184 500 
Q 1428 441 1663 441 
Q 2288 441 2617 861 
Q 2947 1281 2994 2138 
Q 2813 1869 2534 1725 
Q 2256 1581 1919 1581 
Q 1219 1581 811 2004 
Q 403 2428 403 3163 
Q 403 3881 828 4315 
Q 1253 4750 1959 4750 
Q 2769 4750 3195 4129 
Q 3622 3509 3622 2328 
Q 3622 1225 3098 567 
Q 2575 -91 1691 -91 
Q 1453 -91 1209 -44 
Q 966 3 703 97 
z
M 1959 2075 
Q 2384 2075 2632 2365 
Q 2881 2656 2881 3163 
Q 2881 3666 2632 3958 
Q 2384 4250 1959 4250 
Q 1534 4250 1286 3958 
Q 1038 3666 1038 3163 
Q 1038 2656 1286 2365 
Q 1534 2075 1959 2075 
z
" transform="scale(0.015625)"/>
     </defs>
     <use xlink:href="#DejaVuSans-62"/>
     <use xlink:href="#DejaVuSans-65" x="63.476562"/>
     <use xlink:href="#DejaVuSans-73" x="125"/>
     <use xlink:href="#DejaVuSans-74" x="177.099609"/>
     <use xlink:href="#DejaVuSans-20" x="216.308594"/>
     <use xlink:href="#DejaVuSans-32" x="248.095703"/>
     <use xlink:href="#DejaVuSans-30" x="311.71875"/>
     <use xlink:href="#DejaVuSans-30" x="375.341797"/>
     <use xlink:href="#DejaVuSans-39" x="438.964844"/>
    </g>
   </g>
   <g id="text_16">
    <!-- bbob f1, 20-D -->
    <g transform="translate(60.632064 38.111366)scale(0.102 -0.102)">
     <defs>
      <path id="DejaVuSans-44" d="M 1259 4147 
L 1259 519 
L 2022 519 
Q 2988 519 3436 956 
Q 3884 1394 3884 2338 
Q 3884 3275 3436 3711 
Q 2988 4147 2022 4147 
L 1259 4147 
z
M 628 4666 
L 1925 4666 
Q 3281 4666 3915 4102 
Q 4550 3538 4550 2338 
Q 4550 1131 3912 565 
Q 3275 0 1925 0 
L 628 0 
L 628 4666 
z
" transform="scale(0.015625)"/>
     </defs>
     <use xlink:href="#DejaVuSans-62"/>
     <use xlink:href="#DejaVuSans-62" x="63.476562"/>
     <use xlink:href="#DejaVuSans-6f" x="126.953125"/>
     <use xlink:href="#DejaVuSans-62" x="188.134766"/>
     <use xlink:href="#DejaVuSans-20" x="251.611328"/>
     <use xlink:href="#DejaVuSans-66" x="283.398438"/>
     <use xlink:href="#DejaVuSans-31" x="318.603516"/>
     <use xlink:href="#DejaVuSans-2c" x="382.226562"/>
     <use xlink:href="#DejaVuSans-20" x="414.013672"/>
     <use xlink:href="#DejaVuSans-32" x="445.800781"/>
     <use xlink:href="#DejaVuSans-30" x="509.423828"/>
     <use xlink:href="#DejaVuSans-2d" x="573.046875"/>
     <use xlink:href="#DejaVuSans-44" x="609.130859"/>
    </g>
    <!-- 51 targets: 100..1e-08 -->
    <g transform="translate(60.632064 49.533135)scale(0.102 -0.102)">
     <defs>
      <path id="DejaVuSans-35" d="M 691 4666 
L 3169 4666 
L 3169 4134 
L 1269 4134 
L 1269 2991 
Q 1406 3038 1543 3061 
Q 1681 3084 1819 3084 
Q 2600 3084 3056 2656 
Q 3513 2228 3513 1497 
Q 3513 744 3044 326 
Q 2575 -91 1722 -91 
Q 1428 -91 1123 -41 
Q 819 9 494 109 
L 494 744 
Q 775 591 1075 516 
Q 1375 441 1709 441 
Q 2250 441 2565 725 
Q 2881 1009 2881 1497 
Q 2881 1984 2565 2268 
Q 2250 2553 1709 2553 
Q 1456 2553 1204 2497 
Q 953 2441 691 2322 
L 691 4666 
z
" transform="scale(0.015625)"/>
      <path id="DejaVuSans-3a" d="M 750 794 
L 1409 794 
L 1409 0 
L 750 0 
L 750 794 
z
M 750 3309 
L 1409 3309 
L 1409 2516 
L 750 2516 
L 750 3309 
z
" transform="scale(0.015625)"/>
     </defs>
     <use xlink:href="#DejaVuSans-35"/>
     <use xlink:href="#DejaVuSans-31" x="63.623047"/>
     <use xlink:href="#DejaVuSans-20" x="127.246094"/>
     <use xlink:href="#DejaVuSans-74" x="159.033203"/>
     <use xlink:href="#DejaVuSans-61" x="198.242188"/>
     <use xlink:href="#DejaVuSans-72" x="259.521484"/>
     <use xlink:href="#DejaVuSans-67" x="298.884766"/>
     <use xlink:href="#DejaVuSans-65" x="362.361328"/>
     <use xlink:href="#DejaVuSans-74" x="423.884766"/>
     <use xlink:href="#DejaVuSans-73" x="463.09375"/>
     <use xlink:href="#DejaVuSans-3a" x="515.193359"/>
     <use xlink:href="#DejaVuSans-20" x="548.884766"/>
     <use xlink:href="#DejaVuSans-31" x="580.671875"/>
     <use xlink:href="#DejaVuSans-30" x="644.294922"/>
     <use xlink:href="#DejaVuSans-30" x="707.917969"/>
     <use xlink:href="#DejaVuSans-2e" x="771.541016"/>
     <use xlink:href="#DejaVuSans-2e" x="803.328125"/>
     <use xlink:href="#DejaVuSans-31" x="835.115234"/>
     <use xlink:href="#DejaVuSans-65" x="898.738281"/>
     <use xlink:href="#DejaVuSans-2d" x="960.261719"/>
     <use xlink:href="#DejaVuSans-30" x="996.345703"/>
     <use xlink:href="#DejaVuSans-38" x="1059.96875"/>
    </g>
    <!-- 15 instances -->
    <g transform="translate(60.632064 60.954904)scale(0.102 -0.102)">
     <use xlink:href="#DejaVuSans-31"/>
     <use xlink:href="#DejaVuSans-35" x="63.623047"/>
     <use xlink:href="#DejaVuSans-20" x="127.246094"/>
     <use xlink:href="#DejaVuSans-69" x="159.033203"/>
     <use xlink:href="#DejaVuSans-6e" x="186.816406"/>
     <use xlink:href="#DejaVuSans-73" x="250.195312"/>
     <use xlink:href="#DejaVuSans-74" x="302.294922"/>
     <use xlink:href="#DejaVuSans-61" x="341.503906"/>
     <use xlink:href="#DejaVuSans-6e" x="402.783203"/>
     <use xlink:href="#DejaVuSans-63" x="466.162109"/>
     <use xlink:href="#DejaVuSans-65" x="521.142578"/>
     <use xlink:href="#DejaVuSans-73" x="582.666016"/>
    </g>
   </g>
   <g id="text_17">
    <!-- v2.6 -->
    <g style="fill: #808080" transform="translate(198.292262 294.151352)scale(0.1 -0.1)">
     <use xlink:href="#DejaVuSans-76"/>
     <use xlink:href="#DejaVuSans-32" x="59.179688"/>
     <use xlink:href="#DejaVuSans-2e" x="122.802734"/>
     <use xlink:href="#DejaVuSans-36" x="154.589844"/>
    </g>
   </g>
   <g id="text_18">
    <!-- 1 Sphere -->
    <g transform="translate(164.436012 21.648)scale(0.2 -0.2)">
     <defs>
      <path id="DejaVuSans-68" d="M 3513 2113 
L 3513 0 
L 2938 0 
L 2938 2094 
Q 2938 2591 2744 2837 
Q 2550 3084 2163 3084 
Q 1697 3084 1428 2787 
Q 1159 2491 1159 1978 
L 1159 0 
L 581 0 
L 581 4863 
L 1159 4863 
L 1159 2956 
Q 1366 3272 1645 3428 
Q 1925 3584 2291 3584 
Q 2894 3584 3203 3211 
Q 3513 2838 3513 2113 
z
" transform="scale(0.015625)"/>
     </defs>
     <use xlink:href="#DejaVuSans-31"/>
     <use xlink:href="#DejaVuSans-20" x="63.623047"/>
     <use xlink:href="#DejaVuSans-53" x="95.410156"/>
     <use xlink:href="#DejaVuSans-70" x="158.886719"/>
     <use xlink:href="#DejaVuSans-68" x="222.363281"/>
     <use xlink:href="#DejaVuSans-65" x="285.742188"/>
     <use xlink:href="#DejaVuSans-72" x="347.265625"/>
     <use xlink:href="#DejaVuSans-65" x="386.128906"/>
    </g>
   </g>
  </g>
 </g>
 <defs>
  <clipPath id="p44b2e8d435">
   <rect x="57.6" y="27.648" width="303.2064" height="271.296"/>
  </clipPath>
 </defs>
</svg>
