<?xml version="1.0" encoding="utf-8" standalone="no"?>
<!DOCTYPE svg PUBLIC "-//W3C//DTD SVG 1.1//EN"
  "http://www.w3.org/Graphics/SVG/1.1/DTD/svg11.dtd">
<svg xmlns:xlink="http://www.w3.org/1999/xlink" width="460.8pt" height="345.6pt" viewBox="0 0 460.8 345.6" xmlns="http://www.w3.org/2000/svg" version="1.1">
 <metadata>
  <rdf:RDF xmlns:dc="http://purl.org/dc/elements/1.1/" xmlns:cc="http://creativecommons.org/ns#" xmlns:rdf="http://www.w3.org/1999/02/22-rdf-syntax-ns#">
   <cc:Work>
    <dc:type rdf:resource="http://purl.org/dc/dcmitype/StillImage"/>
    <dc:date>2024-05-29T08:06:07.474103</dc:date>
    <dc:format>image/svg+xml</dc:format>
    <dc:creator>
     <cc:Agent>
      <dc:title>Matplotlib v3.5.1, https://matplotlib.org/</dc:title>
     </cc:Agent>
    </dc:creator>
   </cc:Work>
  </rdf:RDF>
 </metadata>
 <defs>
  <style type="text/css">*{stroke-linejoin: round; stroke-linecap: butt}</style>
 </defs>
 <g id="figure_1">
  <g id="patch_1">
   <path d="M 0 345.6 
L 460.8 345.6 
L 460.8 0 
L 0 0 
z
" style="fill: #ffffff"/>
  </g>
  <g id="axes_1">
   <g id="patch_2">
    <path d="M 57.6 298.944 
L 360.8064 298.944 
L 360.8064 27.648 
L 57.6 27.648 
z
" style="fill: #ffffff"/>
   </g>
   <g id="line2d_1">
    <path d="M 14.2848 298.944 
L 14.2848 293.624471 
L 40.363149 293.624471 
L 40.363149 288.304941 
L 78.266603 288.304941 
L 78.266603 282.985412 
L 86.307488 282.985412 
L 86.307488 277.665882 
L 90.007914 277.665882 
L 90.007914 272.346353 
L 105.850679 272.346353 
L 105.850679 267.026824 
L 135.805631 267.026824 
L 135.805631 261.707294 
L 139.289277 261.707294 
L 139.289277 256.387765 
L 141.371301 256.387765 
L 141.371301 251.068235 
L 151.375128 251.068235 
L 151.375128 245.748706 
L 159.367841 245.748706 
L 159.367841 240.429176 
L 171.808687 240.429176 
L 171.808687 235.109647 
L 171.916937 235.109647 
L 171.916937 229.790118 
L 171.947136 229.790118 
L 171.947136 224.470588 
L 171.977286 224.470588 
L 171.977286 219.151059 
L 172.067447 219.151059 
L 172.067447 213.831529 
L 172.118775 213.831529 
L 172.118775 208.512 
L 172.186995 208.512 
L 172.186995 203.192471 
L 172.229507 203.192471 
L 172.229507 197.872941 
L 172.301557 197.872941 
L 172.301557 192.553412 
L 172.470008 192.553412 
L 172.470008 187.233882 
L 172.524431 187.233882 
L 172.524431 181.914353 
L 172.587032 181.914353 
L 172.587032 176.594824 
L 172.868238 176.594824 
L 172.868238 171.275294 
L 172.958324 171.275294 
L 172.958324 165.955765 
L 173.011355 165.955765 
L 173.011355 160.636235 
L 173.346455 160.636235 
L 173.346455 155.316706 
L 173.442249 155.316706 
L 173.442249 149.997176 
L 173.565266 149.997176 
L 173.565266 144.677647 
L 173.75417 144.677647 
L 173.75417 139.358118 
L 173.956698 139.358118 
L 173.956698 134.038588 
L 174.11486 134.038588 
L 174.11486 128.719059 
L 174.20683 128.719059 
L 174.20683 123.399529 
L 174.472534 123.399529 
L 174.472534 118.08 
L 174.689881 118.08 
L 174.689881 112.760471 
L 174.782796 112.760471 
L 174.782796 107.440941 
L 175.135386 107.440941 
L 175.135386 102.121412 
L 175.273147 102.121412 
L 175.273147 96.801882 
L 175.395557 96.801882 
L 175.395557 91.482353 
L 176.964669 91.482353 
L 176.964669 86.162824 
L 177.220434 86.162824 
L 177.220434 80.843294 
L 177.308164 80.843294 
L 177.308164 75.523765 
L 182.518663 75.523765 
L 182.518663 70.204235 
L 182.604477 70.204235 
L 182.604477 64.884706 
L 189.848033 64.884706 
L 189.848033 59.565176 
L 189.892919 59.565176 
L 189.892919 54.245647 
L 189.934385 54.245647 
L 189.934385 48.926118 
L 194.506724 48.926118 
L 194.506724 43.606588 
L 194.600043 43.606588 
L 194.600043 38.287059 
L 194.652977 38.287059 
L 194.652977 32.967529 
L 198.460108 32.967529 
L 198.460108 27.648 
L 360.8064 27.648 
" style="fill: none; stroke: #f5deb3; stroke-width: 4; stroke-linecap: square"/>
   </g>
   <g id="line2d_2">
    <defs>
     <path id="m47bebc3be7" d="M 0 7.778175 
L 7.778175 0 
L 0 -7.778175 
L -7.778175 0 
z
" style="stroke: #f5deb3; stroke-width: 1.5; stroke-linejoin: miter"/>
    </defs>
    <g>
     <use xlink:href="#m47bebc3be7" x="105.850679" y="272.346353" style="fill: #f5deb3; stroke: #f5deb3; stroke-width: 1.5; stroke-linejoin: miter"/>
     <use xlink:href="#m47bebc3be7" x="172.470008" y="187.233882" style="fill: #f5deb3; stroke: #f5deb3; stroke-width: 1.5; stroke-linejoin: miter"/>
     <use xlink:href="#m47bebc3be7" x="177.308164" y="75.523765" style="fill: #f5deb3; stroke: #f5deb3; stroke-width: 1.5; stroke-linejoin: miter"/>
     <use xlink:href="#m47bebc3be7" x="198.460108" y="27.648" style="fill: #f5deb3; stroke: #f5deb3; stroke-width: 1.5; stroke-linejoin: miter"/>
     <use xlink:href="#m47bebc3be7" x="198.460108" y="27.648" style="fill: #f5deb3; stroke: #f5deb3; stroke-width: 1.5; stroke-linejoin: miter"/>
     <use xlink:href="#m47bebc3be7" x="360.8064" y="27.648" style="fill: #f5deb3; stroke: #f5deb3; stroke-width: 1.5; stroke-linejoin: miter"/>
    </g>
   </g>
   <g id="line2d_3">
    <path style="fill: none; stroke: #f5deb3; stroke-width: 4; stroke-linecap: square"/>
    <g/>
   </g>
   <g id="line2d_4">
    <path d="M 360.8064 27.648 
L 380.514816 33.07392 
" style="fill: none; stroke: #f5deb3; stroke-width: 4; stroke-linecap: square"/>
    <g>
     <use xlink:href="#m47bebc3be7" x="360.8064" y="27.648" style="fill: #f5deb3; stroke: #f5deb3; stroke-width: 1.5; stroke-linejoin: miter"/>
     <use xlink:href="#m47bebc3be7" x="380.514816" y="33.07392" style="fill: #f5deb3; stroke: #f5deb3; stroke-width: 1.5; stroke-linejoin: miter"/>
    </g>
   </g>
   <g id="matplotlib.axis_1">
    <g id="xtick_1">
     <g id="line2d_5">
      <path d="M 57.6 298.944 
L 57.6 27.648 
" clip-path="url(#pe158b61fd0)" style="fill: none; stroke: #b0b0b0; stroke-width: 0.8; stroke-linecap: square"/>
     </g>
     <g id="line2d_6">
      <defs>
       <path id="md9709acda4" d="M 0 0 
L 0 3.5 
" style="stroke: #000000; stroke-width: 0.8"/>
      </defs>
      <g>
       <use xlink:href="#md9709acda4" x="57.6" y="298.944" style="stroke: #000000; stroke-width: 0.8"/>
      </g>
     </g>
     <g id="text_1">
      <!-- 0 -->
      <g transform="translate(52.191875 318.861344)scale(0.17 -0.17)">
       <defs>
        <path id="DejaVuSans-30" d="M 2034 4250 
Q 1547 4250 1301 3770 
Q 1056 3291 1056 2328 
Q 1056 1369 1301 889 
Q 1547 409 2034 409 
Q 2525 409 2770 889 
Q 3016 1369 3016 2328 
Q 3016 3291 2770 3770 
Q 2525 4250 2034 4250 
z
M 2034 4750 
Q 2819 4750 3233 4129 
Q 3647 3509 3647 2328 
Q 3647 1150 3233 529 
Q 2819 -91 2034 -91 
Q 1250 -91 836 529 
Q 422 1150 422 2328 
Q 422 3509 836 4129 
Q 1250 4750 2034 4750 
z
" transform="scale(0.015625)"/>
       </defs>
       <use xlink:href="#DejaVuSans-30"/>
      </g>
     </g>
    </g>
    <g id="xtick_2">
     <g id="line2d_7">
      <path d="M 144.2304 298.944 
L 144.2304 27.648 
" clip-path="url(#pe158b61fd0)" style="fill: none; stroke: #b0b0b0; stroke-width: 0.8; stroke-linecap: square"/>
     </g>
     <g id="line2d_8">
      <g>
       <use xlink:href="#md9709acda4" x="144.2304" y="298.944" style="stroke: #000000; stroke-width: 0.8"/>
      </g>
     </g>
     <g id="text_2">
      <!-- 2 -->
      <g transform="translate(138.822275 318.861344)scale(0.17 -0.17)">
       <defs>
        <path id="DejaVuSans-32" d="M 1228 531 
L 3431 531 
L 3431 0 
L 469 0 
L 469 531 
Q 828 903 1448 1529 
Q 2069 2156 2228 2338 
Q 2531 2678 2651 2914 
Q 2772 3150 2772 3378 
Q 2772 3750 2511 3984 
Q 2250 4219 1831 4219 
Q 1534 4219 1204 4116 
Q 875 4013 500 3803 
L 500 4441 
Q 881 4594 1212 4672 
Q 1544 4750 1819 4750 
Q 2544 4750 2975 4387 
Q 3406 4025 3406 3419 
Q 3406 3131 3298 2873 
Q 3191 2616 2906 2266 
Q 2828 2175 2409 1742 
Q 1991 1309 1228 531 
z
" transform="scale(0.015625)"/>
       </defs>
       <use xlink:href="#DejaVuSans-32"/>
      </g>
     </g>
    </g>
    <g id="xtick_3">
     <g id="line2d_9">
      <path d="M 230.8608 298.944 
L 230.8608 27.648 
" clip-path="url(#pe158b61fd0)" style="fill: none; stroke: #b0b0b0; stroke-width: 0.8; stroke-linecap: square"/>
     </g>
     <g id="line2d_10">
      <g>
       <use xlink:href="#md9709acda4" x="230.8608" y="298.944" style="stroke: #000000; stroke-width: 0.8"/>
      </g>
     </g>
     <g id="text_3">
      <!-- 4 -->
      <g transform="translate(225.452675 318.861344)scale(0.17 -0.17)">
       <defs>
        <path id="DejaVuSans-34" d="M 2419 4116 
L 825 1625 
L 2419 1625 
L 2419 4116 
z
M 2253 4666 
L 3047 4666 
L 3047 1625 
L 3713 1625 
L 3713 1100 
L 3047 1100 
L 3047 0 
L 2419 0 
L 2419 1100 
L 313 1100 
L 313 1709 
L 2253 4666 
z
" transform="scale(0.015625)"/>
       </defs>
       <use xlink:href="#DejaVuSans-34"/>
      </g>
     </g>
    </g>
    <g id="xtick_4">
     <g id="line2d_11">
      <path d="M 317.4912 298.944 
L 317.4912 27.648 
" clip-path="url(#pe158b61fd0)" style="fill: none; stroke: #b0b0b0; stroke-width: 0.8; stroke-linecap: square"/>
     </g>
     <g id="line2d_12">
      <g>
       <use xlink:href="#md9709acda4" x="317.4912" y="298.944" style="stroke: #000000; stroke-width: 0.8"/>
      </g>
     </g>
     <g id="text_4">
      <!-- 6 -->
      <g transform="translate(312.083075 318.861344)scale(0.17 -0.17)">
       <defs>
        <path id="DejaVuSans-36" d="M 2113 2584 
Q 1688 2584 1439 2293 
Q 1191 2003 1191 1497 
Q 1191 994 1439 701 
Q 1688 409 2113 409 
Q 2538 409 2786 701 
Q 3034 994 3034 1497 
Q 3034 2003 2786 2293 
Q 2538 2584 2113 2584 
z
M 3366 4563 
L 3366 3988 
Q 3128 4100 2886 4159 
Q 2644 4219 2406 4219 
Q 1781 4219 1451 3797 
Q 1122 3375 1075 2522 
Q 1259 2794 1537 2939 
Q 1816 3084 2150 3084 
Q 2853 3084 3261 2657 
Q 3669 2231 3669 1497 
Q 3669 778 3244 343 
Q 2819 -91 2113 -91 
Q 1303 -91 875 529 
Q 447 1150 447 2328 
Q 447 3434 972 4092 
Q 1497 4750 2381 4750 
Q 2619 4750 2861 4703 
Q 3103 4656 3366 4563 
z
" transform="scale(0.015625)"/>
       </defs>
       <use xlink:href="#DejaVuSans-36"/>
      </g>
     </g>
    </g>
    <g id="xtick_5">
     <g id="line2d_13">
      <path d="M 100.9152 298.944 
L 100.9152 27.648 
" clip-path="url(#pe158b61fd0)" style="fill: none; stroke: #b0b0b0; stroke-width: 0.8; stroke-linecap: square"/>
     </g>
     <g id="line2d_14">
      <defs>
       <path id="me0e82125db" d="M 0 0 
L 0 2 
" style="stroke: #000000; stroke-width: 0.6"/>
      </defs>
      <g>
       <use xlink:href="#me0e82125db" x="100.9152" y="298.944" style="stroke: #000000; stroke-width: 0.6"/>
      </g>
     </g>
    </g>
    <g id="xtick_6">
     <g id="line2d_15">
      <path d="M 187.5456 298.944 
L 187.5456 27.648 
" clip-path="url(#pe158b61fd0)" style="fill: none; stroke: #b0b0b0; stroke-width: 0.8; stroke-linecap: square"/>
     </g>
     <g id="line2d_16">
      <g>
       <use xlink:href="#me0e82125db" x="187.5456" y="298.944" style="stroke: #000000; stroke-width: 0.6"/>
      </g>
     </g>
    </g>
    <g id="xtick_7">
     <g id="line2d_17">
      <path d="M 274.176 298.944 
L 274.176 27.648 
" clip-path="url(#pe158b61fd0)" style="fill: none; stroke: #b0b0b0; stroke-width: 0.8; stroke-linecap: square"/>
     </g>
     <g id="line2d_18">
      <g>
       <use xlink:href="#me0e82125db" x="274.176" y="298.944" style="stroke: #000000; stroke-width: 0.6"/>
      </g>
     </g>
    </g>
    <g id="xtick_8">
     <g id="line2d_19">
      <path d="M 360.8064 298.944 
L 360.8064 27.648 
" clip-path="url(#pe158b61fd0)" style="fill: none; stroke: #b0b0b0; stroke-width: 0.8; stroke-linecap: square"/>
     </g>
     <g id="line2d_20">
      <g>
       <use xlink:href="#me0e82125db" x="360.8064" y="298.944" style="stroke: #000000; stroke-width: 0.6"/>
      </g>
     </g>
    </g>
    <g id="text_5">
     <!-- log10(# f-evals / dimension) -->
     <g transform="translate(88.823278 339.314156)scale(0.17 -0.17)">
      <defs>
       <path id="DejaVuSans-6c" d="M 603 4863 
L 1178 4863 
L 1178 0 
L 603 0 
L 603 4863 
z
" transform="scale(0.015625)"/>
       <path id="DejaVuSans-6f" d="M 1959 3097 
Q 1497 3097 1228 2736 
Q 959 2375 959 1747 
Q 959 1119 1226 758 
Q 1494 397 1959 397 
Q 2419 397 2687 759 
Q 2956 1122 2956 1747 
Q 2956 2369 2687 2733 
Q 2419 3097 1959 3097 
z
M 1959 3584 
Q 2709 3584 3137 3096 
Q 3566 2609 3566 1747 
Q 3566 888 3137 398 
Q 2709 -91 1959 -91 
Q 1206 -91 779 398 
Q 353 888 353 1747 
Q 353 2609 779 3096 
Q 1206 3584 1959 3584 
z
" transform="scale(0.015625)"/>
       <path id="DejaVuSans-67" d="M 2906 1791 
Q 2906 2416 2648 2759 
Q 2391 3103 1925 3103 
Q 1463 3103 1205 2759 
Q 947 2416 947 1791 
Q 947 1169 1205 825 
Q 1463 481 1925 481 
Q 2391 481 2648 825 
Q 2906 1169 2906 1791 
z
M 3481 434 
Q 3481 -459 3084 -895 
Q 2688 -1331 1869 -1331 
Q 1566 -1331 1297 -1286 
Q 1028 -1241 775 -1147 
L 775 -588 
Q 1028 -725 1275 -790 
Q 1522 -856 1778 -856 
Q 2344 -856 2625 -561 
Q 2906 -266 2906 331 
L 2906 616 
Q 2728 306 2450 153 
Q 2172 0 1784 0 
Q 1141 0 747 490 
Q 353 981 353 1791 
Q 353 2603 747 3093 
Q 1141 3584 1784 3584 
Q 2172 3584 2450 3431 
Q 2728 3278 2906 2969 
L 2906 3500 
L 3481 3500 
L 3481 434 
z
" transform="scale(0.015625)"/>
       <path id="DejaVuSans-31" d="M 794 531 
L 1825 531 
L 1825 4091 
L 703 3866 
L 703 4441 
L 1819 4666 
L 2450 4666 
L 2450 531 
L 3481 531 
L 3481 0 
L 794 0 
L 794 531 
z
" transform="scale(0.015625)"/>
       <path id="DejaVuSans-28" d="M 1984 4856 
Q 1566 4138 1362 3434 
Q 1159 2731 1159 2009 
Q 1159 1288 1364 580 
Q 1569 -128 1984 -844 
L 1484 -844 
Q 1016 -109 783 600 
Q 550 1309 550 2009 
Q 550 2706 781 3412 
Q 1013 4119 1484 4856 
L 1984 4856 
z
" transform="scale(0.015625)"/>
       <path id="DejaVuSans-23" d="M 3272 2816 
L 2363 2816 
L 2100 1772 
L 3016 1772 
L 3272 2816 
z
M 2803 4594 
L 2478 3297 
L 3391 3297 
L 3719 4594 
L 4219 4594 
L 3897 3297 
L 4872 3297 
L 4872 2816 
L 3775 2816 
L 3519 1772 
L 4513 1772 
L 4513 1294 
L 3397 1294 
L 3072 0 
L 2572 0 
L 2894 1294 
L 1978 1294 
L 1656 0 
L 1153 0 
L 1478 1294 
L 494 1294 
L 494 1772 
L 1594 1772 
L 1856 2816 
L 850 2816 
L 850 3297 
L 1978 3297 
L 2297 4594 
L 2803 4594 
z
" transform="scale(0.015625)"/>
       <path id="DejaVuSans-20" transform="scale(0.015625)"/>
       <path id="DejaVuSans-66" d="M 2375 4863 
L 2375 4384 
L 1825 4384 
Q 1516 4384 1395 4259 
Q 1275 4134 1275 3809 
L 1275 3500 
L 2222 3500 
L 2222 3053 
L 1275 3053 
L 1275 0 
L 697 0 
L 697 3053 
L 147 3053 
L 147 3500 
L 697 3500 
L 697 3744 
Q 697 4328 969 4595 
Q 1241 4863 1831 4863 
L 2375 4863 
z
" transform="scale(0.015625)"/>
       <path id="DejaVuSans-2d" d="M 313 2009 
L 1997 2009 
L 1997 1497 
L 313 1497 
L 313 2009 
z
" transform="scale(0.015625)"/>
       <path id="DejaVuSans-65" d="M 3597 1894 
L 3597 1613 
L 953 1613 
Q 991 1019 1311 708 
Q 1631 397 2203 397 
Q 2534 397 2845 478 
Q 3156 559 3463 722 
L 3463 178 
Q 3153 47 2828 -22 
Q 2503 -91 2169 -91 
Q 1331 -91 842 396 
Q 353 884 353 1716 
Q 353 2575 817 3079 
Q 1281 3584 2069 3584 
Q 2775 3584 3186 3129 
Q 3597 2675 3597 1894 
z
M 3022 2063 
Q 3016 2534 2758 2815 
Q 2500 3097 2075 3097 
Q 1594 3097 1305 2825 
Q 1016 2553 972 2059 
L 3022 2063 
z
" transform="scale(0.015625)"/>
       <path id="DejaVuSans-76" d="M 191 3500 
L 800 3500 
L 1894 563 
L 2988 3500 
L 3597 3500 
L 2284 0 
L 1503 0 
L 191 3500 
z
" transform="scale(0.015625)"/>
       <path id="DejaVuSans-61" d="M 2194 1759 
Q 1497 1759 1228 1600 
Q 959 1441 959 1056 
Q 959 750 1161 570 
Q 1363 391 1709 391 
Q 2188 391 2477 730 
Q 2766 1069 2766 1631 
L 2766 1759 
L 2194 1759 
z
M 3341 1997 
L 3341 0 
L 2766 0 
L 2766 531 
Q 2569 213 2275 61 
Q 1981 -91 1556 -91 
Q 1019 -91 701 211 
Q 384 513 384 1019 
Q 384 1609 779 1909 
Q 1175 2209 1959 2209 
L 2766 2209 
L 2766 2266 
Q 2766 2663 2505 2880 
Q 2244 3097 1772 3097 
Q 1472 3097 1187 3025 
Q 903 2953 641 2809 
L 641 3341 
Q 956 3463 1253 3523 
Q 1550 3584 1831 3584 
Q 2591 3584 2966 3190 
Q 3341 2797 3341 1997 
z
" transform="scale(0.015625)"/>
       <path id="DejaVuSans-73" d="M 2834 3397 
L 2834 2853 
Q 2591 2978 2328 3040 
Q 2066 3103 1784 3103 
Q 1356 3103 1142 2972 
Q 928 2841 928 2578 
Q 928 2378 1081 2264 
Q 1234 2150 1697 2047 
L 1894 2003 
Q 2506 1872 2764 1633 
Q 3022 1394 3022 966 
Q 3022 478 2636 193 
Q 2250 -91 1575 -91 
Q 1294 -91 989 -36 
Q 684 19 347 128 
L 347 722 
Q 666 556 975 473 
Q 1284 391 1588 391 
Q 1994 391 2212 530 
Q 2431 669 2431 922 
Q 2431 1156 2273 1281 
Q 2116 1406 1581 1522 
L 1381 1569 
Q 847 1681 609 1914 
Q 372 2147 372 2553 
Q 372 3047 722 3315 
Q 1072 3584 1716 3584 
Q 2034 3584 2315 3537 
Q 2597 3491 2834 3397 
z
" transform="scale(0.015625)"/>
       <path id="DejaVuSans-2f" d="M 1625 4666 
L 2156 4666 
L 531 -594 
L 0 -594 
L 1625 4666 
z
" transform="scale(0.015625)"/>
       <path id="DejaVuSans-64" d="M 2906 2969 
L 2906 4863 
L 3481 4863 
L 3481 0 
L 2906 0 
L 2906 525 
Q 2725 213 2448 61 
Q 2172 -91 1784 -91 
Q 1150 -91 751 415 
Q 353 922 353 1747 
Q 353 2572 751 3078 
Q 1150 3584 1784 3584 
Q 2172 3584 2448 3432 
Q 2725 3281 2906 2969 
z
M 947 1747 
Q 947 1113 1208 752 
Q 1469 391 1925 391 
Q 2381 391 2643 752 
Q 2906 1113 2906 1747 
Q 2906 2381 2643 2742 
Q 2381 3103 1925 3103 
Q 1469 3103 1208 2742 
Q 947 2381 947 1747 
z
" transform="scale(0.015625)"/>
       <path id="DejaVuSans-69" d="M 603 3500 
L 1178 3500 
L 1178 0 
L 603 0 
L 603 3500 
z
M 603 4863 
L 1178 4863 
L 1178 4134 
L 603 4134 
L 603 4863 
z
" transform="scale(0.015625)"/>
       <path id="DejaVuSans-6d" d="M 3328 2828 
Q 3544 3216 3844 3400 
Q 4144 3584 4550 3584 
Q 5097 3584 5394 3201 
Q 5691 2819 5691 2113 
L 5691 0 
L 5113 0 
L 5113 2094 
Q 5113 2597 4934 2840 
Q 4756 3084 4391 3084 
Q 3944 3084 3684 2787 
Q 3425 2491 3425 1978 
L 3425 0 
L 2847 0 
L 2847 2094 
Q 2847 2600 2669 2842 
Q 2491 3084 2119 3084 
Q 1678 3084 1418 2786 
Q 1159 2488 1159 1978 
L 1159 0 
L 581 0 
L 581 3500 
L 1159 3500 
L 1159 2956 
Q 1356 3278 1631 3431 
Q 1906 3584 2284 3584 
Q 2666 3584 2933 3390 
Q 3200 3197 3328 2828 
z
" transform="scale(0.015625)"/>
       <path id="DejaVuSans-6e" d="M 3513 2113 
L 3513 0 
L 2938 0 
L 2938 2094 
Q 2938 2591 2744 2837 
Q 2550 3084 2163 3084 
Q 1697 3084 1428 2787 
Q 1159 2491 1159 1978 
L 1159 0 
L 581 0 
L 581 3500 
L 1159 3500 
L 1159 2956 
Q 1366 3272 1645 3428 
Q 1925 3584 2291 3584 
Q 2894 3584 3203 3211 
Q 3513 2838 3513 2113 
z
" transform="scale(0.015625)"/>
       <path id="DejaVuSans-29" d="M 513 4856 
L 1013 4856 
Q 1481 4119 1714 3412 
Q 1947 2706 1947 2009 
Q 1947 1309 1714 600 
Q 1481 -109 1013 -844 
L 513 -844 
Q 928 -128 1133 580 
Q 1338 1288 1338 2009 
Q 1338 2731 1133 3434 
Q 928 4138 513 4856 
z
" transform="scale(0.015625)"/>
      </defs>
      <use xlink:href="#DejaVuSans-6c"/>
      <use xlink:href="#DejaVuSans-6f" x="27.783203"/>
      <use xlink:href="#DejaVuSans-67" x="88.964844"/>
      <use xlink:href="#DejaVuSans-31" x="152.441406"/>
      <use xlink:href="#DejaVuSans-30" x="216.064453"/>
      <use xlink:href="#DejaVuSans-28" x="279.6875"/>
      <use xlink:href="#DejaVuSans-23" x="318.701172"/>
      <use xlink:href="#DejaVuSans-20" x="402.490234"/>
      <use xlink:href="#DejaVuSans-66" x="434.277344"/>
      <use xlink:href="#DejaVuSans-2d" x="463.982422"/>
      <use xlink:href="#DejaVuSans-65" x="500.066406"/>
      <use xlink:href="#DejaVuSans-76" x="561.589844"/>
      <use xlink:href="#DejaVuSans-61" x="620.769531"/>
      <use xlink:href="#DejaVuSans-6c" x="682.048828"/>
      <use xlink:href="#DejaVuSans-73" x="709.832031"/>
      <use xlink:href="#DejaVuSans-20" x="761.931641"/>
      <use xlink:href="#DejaVuSans-2f" x="793.71875"/>
      <use xlink:href="#DejaVuSans-20" x="827.410156"/>
      <use xlink:href="#DejaVuSans-64" x="859.197266"/>
      <use xlink:href="#DejaVuSans-69" x="922.673828"/>
      <use xlink:href="#DejaVuSans-6d" x="950.457031"/>
      <use xlink:href="#DejaVuSans-65" x="1047.869141"/>
      <use xlink:href="#DejaVuSans-6e" x="1109.392578"/>
      <use xlink:href="#DejaVuSans-73" x="1172.771484"/>
      <use xlink:href="#DejaVuSans-69" x="1224.871094"/>
      <use xlink:href="#DejaVuSans-6f" x="1252.654297"/>
      <use xlink:href="#DejaVuSans-6e" x="1313.835938"/>
      <use xlink:href="#DejaVuSans-29" x="1377.214844"/>
     </g>
    </g>
   </g>
   <g id="matplotlib.axis_2">
    <g id="ytick_1">
     <g id="line2d_21">
      <path d="M 57.6 298.944 
L 360.8064 298.944 
" clip-path="url(#pe158b61fd0)" style="fill: none; stroke: #b0b0b0; stroke-width: 0.8; stroke-linecap: square"/>
     </g>
     <g id="line2d_22">
      <defs>
       <path id="m7b03bbb792" d="M 0 0 
L -3.5 0 
" style="stroke: #000000; stroke-width: 0.8"/>
      </defs>
      <g>
       <use xlink:href="#m7b03bbb792" x="57.6" y="298.944" style="stroke: #000000; stroke-width: 0.8"/>
      </g>
     </g>
     <g id="text_6">
      <!-- 0.0 -->
      <g transform="translate(25.155 305.02275)scale(0.16 -0.16)">
       <defs>
        <path id="DejaVuSans-2e" d="M 684 794 
L 1344 794 
L 1344 0 
L 684 0 
L 684 794 
z
" transform="scale(0.015625)"/>
       </defs>
       <use xlink:href="#DejaVuSans-30"/>
       <use xlink:href="#DejaVuSans-2e" x="63.623047"/>
       <use xlink:href="#DejaVuSans-30" x="95.410156"/>
      </g>
     </g>
    </g>
    <g id="ytick_2">
     <g id="line2d_23">
      <path d="M 57.6 244.6848 
L 360.8064 244.6848 
" clip-path="url(#pe158b61fd0)" style="fill: none; stroke: #b0b0b0; stroke-width: 0.8; stroke-linecap: square"/>
     </g>
     <g id="line2d_24">
      <g>
       <use xlink:href="#m7b03bbb792" x="57.6" y="244.6848" style="stroke: #000000; stroke-width: 0.8"/>
      </g>
     </g>
     <g id="text_7">
      <!-- 0.2 -->
      <g transform="translate(25.155 250.76355)scale(0.16 -0.16)">
       <use xlink:href="#DejaVuSans-30"/>
       <use xlink:href="#DejaVuSans-2e" x="63.623047"/>
       <use xlink:href="#DejaVuSans-32" x="95.410156"/>
      </g>
     </g>
    </g>
    <g id="ytick_3">
     <g id="line2d_25">
      <path d="M 57.6 190.4256 
L 360.8064 190.4256 
" clip-path="url(#pe158b61fd0)" style="fill: none; stroke: #b0b0b0; stroke-width: 0.8; stroke-linecap: square"/>
     </g>
     <g id="line2d_26">
      <g>
       <use xlink:href="#m7b03bbb792" x="57.6" y="190.4256" style="stroke: #000000; stroke-width: 0.8"/>
      </g>
     </g>
     <g id="text_8">
      <!-- 0.4 -->
      <g transform="translate(25.155 196.50435)scale(0.16 -0.16)">
       <use xlink:href="#DejaVuSans-30"/>
       <use xlink:href="#DejaVuSans-2e" x="63.623047"/>
       <use xlink:href="#DejaVuSans-34" x="95.410156"/>
      </g>
     </g>
    </g>
    <g id="ytick_4">
     <g id="line2d_27">
      <path d="M 57.6 136.1664 
L 360.8064 136.1664 
" clip-path="url(#pe158b61fd0)" style="fill: none; stroke: #b0b0b0; stroke-width: 0.8; stroke-linecap: square"/>
     </g>
     <g id="line2d_28">
      <g>
       <use xlink:href="#m7b03bbb792" x="57.6" y="136.1664" style="stroke: #000000; stroke-width: 0.8"/>
      </g>
     </g>
     <g id="text_9">
      <!-- 0.6 -->
      <g transform="translate(25.155 142.24515)scale(0.16 -0.16)">
       <use xlink:href="#DejaVuSans-30"/>
       <use xlink:href="#DejaVuSans-2e" x="63.623047"/>
       <use xlink:href="#DejaVuSans-36" x="95.410156"/>
      </g>
     </g>
    </g>
    <g id="ytick_5">
     <g id="line2d_29">
      <path d="M 57.6 81.9072 
L 360.8064 81.9072 
" clip-path="url(#pe158b61fd0)" style="fill: none; stroke: #b0b0b0; stroke-width: 0.8; stroke-linecap: square"/>
     </g>
     <g id="line2d_30">
      <g>
       <use xlink:href="#m7b03bbb792" x="57.6" y="81.9072" style="stroke: #000000; stroke-width: 0.8"/>
      </g>
     </g>
     <g id="text_10">
      <!-- 0.8 -->
      <g transform="translate(25.155 87.98595)scale(0.16 -0.16)">
       <defs>
        <path id="DejaVuSans-38" d="M 2034 2216 
Q 1584 2216 1326 1975 
Q 1069 1734 1069 1313 
Q 1069 891 1326 650 
Q 1584 409 2034 409 
Q 2484 409 2743 651 
Q 3003 894 3003 1313 
Q 3003 1734 2745 1975 
Q 2488 2216 2034 2216 
z
M 1403 2484 
Q 997 2584 770 2862 
Q 544 3141 544 3541 
Q 544 4100 942 4425 
Q 1341 4750 2034 4750 
Q 2731 4750 3128 4425 
Q 3525 4100 3525 3541 
Q 3525 3141 3298 2862 
Q 3072 2584 2669 2484 
Q 3125 2378 3379 2068 
Q 3634 1759 3634 1313 
Q 3634 634 3220 271 
Q 2806 -91 2034 -91 
Q 1263 -91 848 271 
Q 434 634 434 1313 
Q 434 1759 690 2068 
Q 947 2378 1403 2484 
z
M 1172 3481 
Q 1172 3119 1398 2916 
Q 1625 2713 2034 2713 
Q 2441 2713 2670 2916 
Q 2900 3119 2900 3481 
Q 2900 3844 2670 4047 
Q 2441 4250 2034 4250 
Q 1625 4250 1398 4047 
Q 1172 3844 1172 3481 
z
" transform="scale(0.015625)"/>
       </defs>
       <use xlink:href="#DejaVuSans-30"/>
       <use xlink:href="#DejaVuSans-2e" x="63.623047"/>
       <use xlink:href="#DejaVuSans-38" x="95.410156"/>
      </g>
     </g>
    </g>
    <g id="ytick_6">
     <g id="line2d_31">
      <path d="M 57.6 27.648 
L 360.8064 27.648 
" clip-path="url(#pe158b61fd0)" style="fill: none; stroke: #b0b0b0; stroke-width: 0.8; stroke-linecap: square"/>
     </g>
     <g id="line2d_32">
      <g>
       <use xlink:href="#m7b03bbb792" x="57.6" y="27.648" style="stroke: #000000; stroke-width: 0.8"/>
      </g>
     </g>
     <g id="text_11">
      <!-- 1.0 -->
      <g transform="translate(25.155 33.72675)scale(0.16 -0.16)">
       <use xlink:href="#DejaVuSans-31"/>
       <use xlink:href="#DejaVuSans-2e" x="63.623047"/>
       <use xlink:href="#DejaVuSans-30" x="95.410156"/>
      </g>
     </g>
    </g>
    <g id="text_12">
     <!-- Fraction of function,target pairs -->
     <g transform="translate(17.619531 297.681)rotate(-90)scale(0.17 -0.17)">
      <defs>
       <path id="DejaVuSans-46" d="M 628 4666 
L 3309 4666 
L 3309 4134 
L 1259 4134 
L 1259 2759 
L 3109 2759 
L 3109 2228 
L 1259 2228 
L 1259 0 
L 628 0 
L 628 4666 
z
" transform="scale(0.015625)"/>
       <path id="DejaVuSans-72" d="M 2631 2963 
Q 2534 3019 2420 3045 
Q 2306 3072 2169 3072 
Q 1681 3072 1420 2755 
Q 1159 2438 1159 1844 
L 1159 0 
L 581 0 
L 581 3500 
L 1159 3500 
L 1159 2956 
Q 1341 3275 1631 3429 
Q 1922 3584 2338 3584 
Q 2397 3584 2469 3576 
Q 2541 3569 2628 3553 
L 2631 2963 
z
" transform="scale(0.015625)"/>
       <path id="DejaVuSans-63" d="M 3122 3366 
L 3122 2828 
Q 2878 2963 2633 3030 
Q 2388 3097 2138 3097 
Q 1578 3097 1268 2742 
Q 959 2388 959 1747 
Q 959 1106 1268 751 
Q 1578 397 2138 397 
Q 2388 397 2633 464 
Q 2878 531 3122 666 
L 3122 134 
Q 2881 22 2623 -34 
Q 2366 -91 2075 -91 
Q 1284 -91 818 406 
Q 353 903 353 1747 
Q 353 2603 823 3093 
Q 1294 3584 2113 3584 
Q 2378 3584 2631 3529 
Q 2884 3475 3122 3366 
z
" transform="scale(0.015625)"/>
       <path id="DejaVuSans-74" d="M 1172 4494 
L 1172 3500 
L 2356 3500 
L 2356 3053 
L 1172 3053 
L 1172 1153 
Q 1172 725 1289 603 
Q 1406 481 1766 481 
L 2356 481 
L 2356 0 
L 1766 0 
Q 1100 0 847 248 
Q 594 497 594 1153 
L 594 3053 
L 172 3053 
L 172 3500 
L 594 3500 
L 594 4494 
L 1172 4494 
z
" transform="scale(0.015625)"/>
       <path id="DejaVuSans-75" d="M 544 1381 
L 544 3500 
L 1119 3500 
L 1119 1403 
Q 1119 906 1312 657 
Q 1506 409 1894 409 
Q 2359 409 2629 706 
Q 2900 1003 2900 1516 
L 2900 3500 
L 3475 3500 
L 3475 0 
L 2900 0 
L 2900 538 
Q 2691 219 2414 64 
Q 2138 -91 1772 -91 
Q 1169 -91 856 284 
Q 544 659 544 1381 
z
M 1991 3584 
L 1991 3584 
z
" transform="scale(0.015625)"/>
       <path id="DejaVuSans-2c" d="M 750 794 
L 1409 794 
L 1409 256 
L 897 -744 
L 494 -744 
L 750 256 
L 750 794 
z
" transform="scale(0.015625)"/>
       <path id="DejaVuSans-70" d="M 1159 525 
L 1159 -1331 
L 581 -1331 
L 581 3500 
L 1159 3500 
L 1159 2969 
Q 1341 3281 1617 3432 
Q 1894 3584 2278 3584 
Q 2916 3584 3314 3078 
Q 3713 2572 3713 1747 
Q 3713 922 3314 415 
Q 2916 -91 2278 -91 
Q 1894 -91 1617 61 
Q 1341 213 1159 525 
z
M 3116 1747 
Q 3116 2381 2855 2742 
Q 2594 3103 2138 3103 
Q 1681 3103 1420 2742 
Q 1159 2381 1159 1747 
Q 1159 1113 1420 752 
Q 1681 391 2138 391 
Q 2594 391 2855 752 
Q 3116 1113 3116 1747 
z
" transform="scale(0.015625)"/>
      </defs>
      <use xlink:href="#DejaVuSans-46"/>
      <use xlink:href="#DejaVuSans-72" x="50.269531"/>
      <use xlink:href="#DejaVuSans-61" x="91.382812"/>
      <use xlink:href="#DejaVuSans-63" x="152.662109"/>
      <use xlink:href="#DejaVuSans-74" x="207.642578"/>
      <use xlink:href="#DejaVuSans-69" x="246.851562"/>
      <use xlink:href="#DejaVuSans-6f" x="274.634766"/>
      <use xlink:href="#DejaVuSans-6e" x="335.816406"/>
      <use xlink:href="#DejaVuSans-20" x="399.195312"/>
      <use xlink:href="#DejaVuSans-6f" x="430.982422"/>
      <use xlink:href="#DejaVuSans-66" x="492.164062"/>
      <use xlink:href="#DejaVuSans-20" x="527.369141"/>
      <use xlink:href="#DejaVuSans-66" x="559.15625"/>
      <use xlink:href="#DejaVuSans-75" x="594.361328"/>
      <use xlink:href="#DejaVuSans-6e" x="657.740234"/>
      <use xlink:href="#DejaVuSans-63" x="721.119141"/>
      <use xlink:href="#DejaVuSans-74" x="776.099609"/>
      <use xlink:href="#DejaVuSans-69" x="815.308594"/>
      <use xlink:href="#DejaVuSans-6f" x="843.091797"/>
      <use xlink:href="#DejaVuSans-6e" x="904.273438"/>
      <use xlink:href="#DejaVuSans-2c" x="967.652344"/>
      <use xlink:href="#DejaVuSans-74" x="999.439453"/>
      <use xlink:href="#DejaVuSans-61" x="1038.648438"/>
      <use xlink:href="#DejaVuSans-72" x="1099.927734"/>
      <use xlink:href="#DejaVuSans-67" x="1139.291016"/>
      <use xlink:href="#DejaVuSans-65" x="1202.767578"/>
      <use xlink:href="#DejaVuSans-74" x="1264.291016"/>
      <use xlink:href="#DejaVuSans-20" x="1303.5"/>
      <use xlink:href="#DejaVuSans-70" x="1335.287109"/>
      <use xlink:href="#DejaVuSans-61" x="1398.763672"/>
      <use xlink:href="#DejaVuSans-69" x="1460.042969"/>
      <use xlink:href="#DejaVuSans-72" x="1487.826172"/>
      <use xlink:href="#DejaVuSans-73" x="1528.939453"/>
     </g>
    </g>
   </g>
   <g id="line2d_33">
    <defs>
     <path id="mb4b83aefa4" d="M 0 1.5 
C 0.397805 1.5 0.77937 1.341951 1.06066 1.06066 
C 1.341951 0.77937 1.5 0.397805 1.5 0 
C 1.5 -0.397805 1.341951 -0.77937 1.06066 -1.06066 
C 0.77937 -1.341951 0.397805 -1.5 0 -1.5 
C -0.397805 -1.5 -0.77937 -1.341951 -1.06066 -1.06066 
C -1.341951 -0.77937 -1.5 -0.397805 -1.5 0 
C -1.5 0.397805 -1.341951 0.77937 -1.06066 1.06066 
C -0.77937 1.341951 -0.397805 1.5 0 1.5 
z
" style="stroke: #f5deb3"/>
    </defs>
    <g>
     <use xlink:href="#mb4b83aefa4" x="198.460108" y="27.648" style="fill: #f5deb3; stroke: #f5deb3"/>
     <use xlink:href="#mb4b83aefa4" x="198.460108" y="27.648" style="fill: #f5deb3; stroke: #f5deb3"/>
    </g>
   </g>
   <g id="line2d_34">
    <defs>
     <path id="m0179b64d87" d="M 0 1.5 
C 0.397805 1.5 0.77937 1.341951 1.06066 1.06066 
C 1.341951 0.77937 1.5 0.397805 1.5 0 
C 1.5 -0.397805 1.341951 -0.77937 1.06066 -1.06066 
C 0.77937 -1.341951 0.397805 -1.5 0 -1.5 
C -0.397805 -1.5 -0.77937 -1.341951 -1.06066 -1.06066 
C -1.341951 -0.77937 -1.5 -0.397805 -1.5 0 
C -1.5 0.397805 -1.341951 0.77937 -1.06066 1.06066 
C -0.77937 1.341951 -0.397805 1.5 0 1.5 
z
" style="stroke: #000080"/>
    </defs>
    <g>
     <use xlink:href="#m0179b64d87" x="327.529677" y="27.648" style="fill: #000080; stroke: #000080"/>
     <use xlink:href="#m0179b64d87" x="327.529677" y="27.648" style="fill: #000080; stroke: #000080"/>
    </g>
   </g>
   <g id="line2d_35">
    <path d="M 14.2848 298.944 
L 14.2848 293.624471 
L 40.363149 293.624471 
L 40.363149 293.269835 
L 61.029752 293.269835 
L 61.029752 292.9152 
L 65.227428 292.9152 
L 65.227428 292.560565 
L 66.441498 292.560565 
L 66.441498 292.205929 
L 68.65718 292.205929 
L 68.65718 291.142024 
L 73.268314 291.142024 
L 73.268314 290.787388 
L 85.894031 290.787388 
L 85.894031 290.432753 
L 87.1081 290.432753 
L 87.1081 290.078118 
L 88.248544 290.078118 
L 88.248544 289.368847 
L 93.098709 289.368847 
L 93.098709 289.014212 
L 95.503454 289.014212 
L 95.503454 288.659576 
L 101.287718 288.659576 
L 101.287718 288.304941 
L 108.416798 288.304941 
L 108.416798 287.950306 
L 108.791791 287.950306 
L 108.791791 287.595671 
L 112.890198 287.595671 
L 112.890198 287.241035 
L 116.907859 287.241035 
L 116.907859 286.531765 
L 117.226706 286.531765 
L 117.226706 286.177129 
L 120.0813 286.177129 
L 120.0813 285.822494 
L 123.544976 285.822494 
L 123.544976 285.113224 
L 124.642171 285.113224 
L 124.642171 284.758588 
L 125.979073 284.758588 
L 125.979073 284.403953 
L 131.153565 284.403953 
L 131.153565 284.049318 
L 132.001241 284.049318 
L 132.001241 283.694682 
L 132.358208 283.694682 
L 132.358208 283.340047 
L 132.846847 283.340047 
L 132.846847 282.985412 
L 133.356676 282.985412 
L 133.356676 282.630776 
L 134.112526 282.630776 
L 134.176839 280.148329 
L 134.336666 280.148329 
L 134.336666 279.793694 
L 135.508912 279.793694 
L 135.508912 279.439059 
L 135.717106 279.439059 
L 135.717106 279.084424 
L 136.836659 279.084424 
L 136.836659 278.729788 
L 136.97549 278.729788 
L 136.97549 278.020518 
L 137.113304 278.020518 
L 137.113304 277.665882 
L 137.893309 277.665882 
L 137.893309 277.311247 
L 138.128947 277.311247 
L 138.128947 276.956612 
L 141.151022 276.956612 
L 141.151022 276.601976 
L 141.327451 276.601976 
L 141.349389 275.892706 
L 141.84702 275.892706 
L 141.84702 275.538071 
L 142.143605 275.538071 
L 142.143605 275.183435 
L 142.331827 275.183435 
L 142.331827 274.8288 
L 142.743475 274.8288 
L 142.743475 274.474165 
L 143.599145 274.474165 
L 143.599145 274.119529 
L 144.768174 274.119529 
L 144.768174 273.764894 
L 145.201889 273.764894 
L 145.201889 273.410259 
L 145.450347 273.410259 
L 145.450347 273.055624 
L 145.851536 273.055624 
L 145.851536 272.700988 
L 146.27812 272.700988 
L 146.27812 272.346353 
L 146.662213 272.346353 
L 146.662213 271.991718 
L 147.232057 271.991718 
L 147.232057 271.637082 
L 147.800712 271.637082 
L 147.800712 271.282447 
L 148.001907 271.282447 
L 148.048032 270.573176 
L 148.785835 270.573176 
L 148.785835 270.218541 
L 148.962194 270.218541 
L 148.962194 269.863906 
L 149.107908 269.863906 
L 149.122418 269.154635 
L 149.42456 269.154635 
L 149.495789 267.736094 
L 150.069911 267.736094 
L 150.069911 267.381459 
L 150.998235 267.381459 
L 151.037576 266.672188 
L 151.233056 266.672188 
L 151.336488 265.608282 
L 151.464982 265.608282 
L 151.464982 265.253647 
L 152.045009 265.253647 
L 152.094611 264.544376 
L 152.835271 264.544376 
L 152.835271 264.189741 
L 153.455939 264.189741 
L 153.455939 263.835106 
L 154.574008 263.835106 
L 154.574008 263.480471 
L 155.024477 263.480471 
L 155.024477 263.125835 
L 155.914518 263.125835 
L 155.944819 262.416565 
L 156.265023 262.416565 
L 156.363979 260.643388 
L 156.918301 260.643388 
L 156.985263 259.934118 
L 157.184731 259.934118 
L 157.184731 259.579482 
L 158.907961 259.579482 
L 158.951018 258.515576 
L 159.105212 258.515576 
L 159.105212 258.160941 
L 159.367841 258.160941 
L 159.443406 257.451671 
L 160.110173 257.451671 
L 160.110173 257.097035 
L 160.863211 257.097035 
L 160.863211 256.7424 
L 162.168843 256.7424 
L 162.168843 256.387765 
L 162.55628 256.387765 
L 162.55628 256.033129 
L 162.928937 256.033129 
L 162.928937 255.678494 
L 163.625994 255.678494 
L 163.625994 255.323859 
L 164.317552 255.323859 
L 164.317552 254.969224 
L 164.764859 254.969224 
L 164.859342 253.905318 
L 164.878182 253.905318 
L 164.878182 253.550682 
L 165.183257 253.550682 
L 165.183257 253.196047 
L 165.343147 253.196047 
L 165.34927 252.486776 
L 166.099311 252.486776 
L 166.099311 252.132141 
L 166.338952 252.132141 
L 166.338952 251.777506 
L 166.552624 251.777506 
L 166.552624 251.422871 
L 166.83191 251.422871 
L 166.83191 251.068235 
L 167.460596 251.068235 
L 167.460596 250.7136 
L 170.648965 250.7136 
L 170.648965 250.358965 
L 171.669213 250.358965 
L 171.669213 250.004329 
L 172.624492 250.004329 
L 172.624492 249.649694 
L 172.79833 249.649694 
L 172.79833 249.295059 
L 173.362455 249.295059 
L 173.362455 248.940424 
L 175.106254 248.940424 
L 175.106254 248.585788 
L 175.616746 248.585788 
L 175.655719 247.876518 
L 176.175823 247.876518 
L 176.199907 247.167247 
L 177.686847 247.167247 
L 177.686847 246.812612 
L 178.664933 246.812612 
L 178.664933 246.457976 
L 178.812146 246.457976 
L 178.812146 246.103341 
L 179.56594 246.103341 
L 179.56594 245.748706 
L 180.201956 245.748706 
L 180.201956 245.394071 
L 180.444974 245.394071 
L 180.444974 245.039435 
L 180.695726 245.039435 
L 180.695726 244.6848 
L 180.945851 244.6848 
L 180.945851 244.330165 
L 181.896592 244.330165 
L 181.896592 243.975529 
L 182.301157 243.975529 
L 182.301157 243.620894 
L 182.808846 243.620894 
L 182.808846 243.266259 
L 183.399584 243.266259 
L 183.399584 242.911624 
L 183.708911 242.911624 
L 183.789475 242.202353 
L 183.992796 242.202353 
L 183.992796 241.847718 
L 186.085122 241.847718 
L 186.085122 241.493082 
L 186.4635 241.493082 
L 186.4635 241.138447 
L 187.792288 241.138447 
L 187.792288 240.783812 
L 187.907049 240.783812 
L 187.962329 240.074541 
L 188.130846 240.074541 
L 188.130846 239.719906 
L 189.561237 239.719906 
L 189.561237 239.365271 
L 190.730786 239.365271 
L 190.730786 239.010635 
L 190.989455 239.010635 
L 191.014501 238.301365 
L 192.018164 238.301365 
L 192.018164 237.946729 
L 192.19383 237.946729 
L 192.19383 237.592094 
L 192.645323 237.592094 
L 192.645323 237.237459 
L 193.05117 237.237459 
L 193.131019 236.528188 
L 193.30218 236.528188 
L 193.396141 235.818918 
L 194.180379 235.818918 
L 194.180379 235.464282 
L 194.791704 235.464282 
L 194.791704 235.109647 
L 195.092594 235.109647 
L 195.092594 234.755012 
L 196.101593 234.755012 
L 196.101593 234.400376 
L 196.674125 234.400376 
L 196.674125 234.045741 
L 197.168938 234.045741 
L 197.168938 233.691106 
L 198.53053 233.691106 
L 198.53053 233.336471 
L 198.789961 233.336471 
L 198.789961 232.981835 
L 199.011124 232.981835 
L 199.011124 232.272565 
L 199.850132 232.272565 
L 199.850132 231.917929 
L 201.196443 231.917929 
L 201.196443 231.563294 
L 201.405598 231.563294 
L 201.405598 231.208659 
L 201.625808 231.208659 
L 201.625808 230.854024 
L 201.918971 230.854024 
L 201.918971 230.499388 
L 202.07255 230.499388 
L 202.07255 230.144753 
L 202.492789 230.144753 
L 202.492789 229.790118 
L 202.75274 229.790118 
L 202.75274 229.435482 
L 203.049619 229.435482 
L 203.049619 229.080847 
L 203.647274 229.080847 
L 203.647274 228.726212 
L 204.200931 228.726212 
L 204.200931 228.371576 
L 204.42466 228.371576 
L 204.42466 228.016941 
L 204.553062 228.016941 
L 204.644244 226.953035 
L 205.046212 226.953035 
L 205.046212 226.5984 
L 205.50795 226.5984 
L 205.571554 225.889129 
L 207.072896 225.889129 
L 207.072896 225.534494 
L 207.71148 225.534494 
L 207.71148 225.179859 
L 208.425441 225.179859 
L 208.425441 224.825224 
L 208.875092 224.825224 
L 208.875092 224.470588 
L 209.531206 224.470588 
L 209.531206 224.115953 
L 209.702296 224.115953 
L 209.702296 223.761318 
L 209.829311 223.761318 
L 209.829311 223.406682 
L 210.474646 223.406682 
L 210.55011 222.697412 
L 210.916438 222.697412 
L 211.004213 221.278871 
L 211.349153 221.278871 
L 211.349153 220.924235 
L 211.485061 220.924235 
L 211.485061 220.5696 
L 212.883437 220.5696 
L 212.883437 220.214965 
L 213.03059 220.214965 
L 213.03059 219.860329 
L 213.278425 219.860329 
L 213.278425 219.505694 
L 213.534381 219.505694 
L 213.534381 219.151059 
L 213.96555 219.151059 
L 213.96555 218.796424 
L 214.42315 218.796424 
L 214.42315 218.441788 
L 214.625784 218.441788 
L 214.625784 218.087153 
L 214.926577 218.087153 
L 215.026364 217.377882 
L 215.046868 217.377882 
L 215.121282 216.668612 
L 215.454467 216.668612 
L 215.454467 216.313976 
L 215.595171 216.313976 
L 215.68769 215.604706 
L 215.768011 215.604706 
L 215.768011 215.250071 
L 216.060308 215.250071 
L 216.117237 214.5408 
L 216.273116 214.5408 
L 216.353828 213.831529 
L 216.505345 213.831529 
L 216.537195 213.122259 
L 216.729958 213.122259 
L 216.729958 212.767624 
L 216.921162 212.767624 
L 216.996002 211.349082 
L 217.214089 211.349082 
L 217.31137 210.639812 
L 217.386602 210.639812 
L 217.40392 209.930541 
L 217.627242 209.930541 
L 217.702738 208.866635 
L 217.765106 208.866635 
L 217.783965 207.802729 
L 217.892974 207.802729 
L 217.995764 205.674918 
L 218.008807 205.674918 
L 218.008807 205.320282 
L 218.256009 205.320282 
L 218.33745 203.901741 
L 218.415258 203.901741 
L 218.479672 202.4832 
L 218.572808 202.4832 
L 218.62263 201.064659 
L 218.723672 201.064659 
L 218.82132 199.291482 
L 218.835941 199.291482 
L 218.847345 198.227576 
L 219.027816 198.227576 
L 219.027816 197.518306 
L 219.312877 197.518306 
L 219.380529 195.745129 
L 219.449319 195.745129 
L 219.529543 195.035859 
L 219.579296 195.035859 
L 219.657945 194.326588 
L 219.771237 194.326588 
L 219.772933 193.617318 
L 219.927967 193.617318 
L 220.029279 192.553412 
L 220.167616 192.553412 
L 220.167616 192.198776 
L 220.331301 192.198776 
L 220.331301 191.489506 
L 220.461558 191.489506 
L 220.548331 190.780235 
L 220.581499 190.780235 
L 220.581499 190.4256 
L 220.740671 190.4256 
L 220.833223 189.716329 
L 220.977249 189.716329 
L 221.051227 189.007059 
L 221.127756 189.007059 
L 221.225022 187.588518 
L 221.244792 187.588518 
L 221.323662 186.169976 
L 221.382288 186.169976 
L 221.440731 185.106071 
L 221.644171 185.106071 
L 221.735449 183.332894 
L 221.845435 183.332894 
L 221.845435 182.623624 
L 222.038255 182.623624 
L 222.042163 181.914353 
L 222.154858 181.914353 
L 222.154858 181.559718 
L 222.309608 181.559718 
L 222.376765 180.141176 
L 222.780532 180.141176 
L 222.780532 179.786541 
L 222.998079 179.786541 
L 222.998079 179.431906 
L 223.278841 179.431906 
L 223.386065 178.722635 
L 223.528826 178.722635 
L 223.528826 178.368 
L 223.771421 178.368 
L 223.771421 178.013365 
L 223.911843 178.013365 
L 223.911843 177.658729 
L 224.637707 177.658729 
L 224.637707 177.304094 
L 274.18702 177.304094 
L 274.272855 171.629929 
L 274.304532 171.629929 
L 274.413105 166.3104 
L 274.429742 166.3104 
L 274.48717 163.827953 
L 274.564962 163.827953 
L 274.658538 159.217694 
L 274.738292 159.217694 
L 274.835881 157.799153 
L 274.885854 157.799153 
L 274.970567 155.316706 
L 274.997508 155.316706 
L 275.102148 146.805459 
L 275.114733 146.805459 
L 275.212423 137.584941 
L 275.228296 137.584941 
L 275.336846 130.492235 
L 275.362084 130.492235 
L 275.399649 129.428329 
L 287.226543 129.428329 
L 287.32794 120.917082 
L 287.338119 120.917082 
L 287.447087 115.952188 
L 287.45214 115.952188 
L 287.53968 111.341929 
L 287.573449 111.341929 
L 287.683947 107.795576 
L 287.691001 107.795576 
L 287.79473 97.156518 
L 287.824458 97.156518 
L 287.878978 95.737976 
L 294.85284 95.737976 
L 294.962825 89.354541 
L 294.971714 89.354541 
L 295.082209 84.389647 
L 295.084079 84.389647 
L 295.191905 73.750588 
L 295.20701 73.750588 
L 295.287731 70.204235 
L 300.268354 70.204235 
L 300.36127 66.303247 
L 300.39123 66.303247 
L 300.500433 59.210541 
L 300.507483 59.210541 
L 300.589179 54.600282 
L 304.463287 54.600282 
L 304.568581 52.117835 
L 304.581895 52.117835 
L 304.681836 45.7344 
L 304.705107 45.7344 
L 304.705107 45.379765 
L 307.928547 45.379765 
L 308.039445 42.897318 
L 308.054875 42.897318 
L 308.073214 41.124141 
L 310.785979 41.124141 
L 310.886834 38.996329 
L 310.903553 38.996329 
L 310.966417 37.223153 
L 313.307441 37.223153 
L 313.417202 34.031435 
L 313.430333 34.031435 
L 313.445939 32.967529 
L 315.523346 32.967529 
L 315.629841 29.775812 
L 319.320247 29.775812 
L 319.384986 28.711906 
L 320.975196 28.711906 
L 321.00343 28.002635 
L 327.529677 28.002635 
L 327.529677 27.648 
L 360.8064 27.648 
L 360.8064 27.648 
" style="fill: none; stroke: #000080; stroke-width: 1.5; stroke-linecap: square"/>
   </g>
   <g id="line2d_36">
    <defs>
     <path id="mbf1c42f069" d="M 0 6 
C 1.591219 6 3.117479 5.367802 4.242641 4.242641 
C 5.367802 3.117479 6 1.591219 6 0 
C 6 -1.591219 5.367802 -3.117479 4.242641 -4.242641 
C 3.117479 -5.367802 1.591219 -6 0 -6 
C -1.591219 -6 -3.117479 -5.367802 -4.242641 -4.242641 
C -5.367802 -3.117479 -6 -1.591219 -6 0 
C -6 1.591219 -5.367802 3.117479 -4.242641 4.242641 
C -3.117479 5.367802 -1.591219 6 0 6 
z
" style="stroke: #000080; stroke-width: 1.5"/>
    </defs>
    <g>
     <use xlink:href="#mbf1c42f069" x="108.416798" y="288.304941" style="fill-opacity: 0; stroke: #000080; stroke-width: 1.5"/>
     <use xlink:href="#mbf1c42f069" x="160.110173" y="257.097035" style="fill-opacity: 0; stroke: #000080; stroke-width: 1.5"/>
     <use xlink:href="#mbf1c42f069" x="224.637707" y="177.658729" style="fill-opacity: 0; stroke: #000080; stroke-width: 1.5"/>
     <use xlink:href="#mbf1c42f069" x="295.146493" y="81.197929" style="fill-opacity: 0; stroke: #000080; stroke-width: 1.5"/>
     <use xlink:href="#mbf1c42f069" x="327.529677" y="27.648" style="fill-opacity: 0; stroke: #000080; stroke-width: 1.5"/>
     <use xlink:href="#mbf1c42f069" x="360.8064" y="27.648" style="fill-opacity: 0; stroke: #000080; stroke-width: 1.5"/>
    </g>
   </g>
   <g id="line2d_37">
    <path style="fill: none; stroke: #000080; stroke-width: 1.5; stroke-linecap: square"/>
    <g/>
   </g>
   <g id="line2d_38">
    <path d="M 274.176 177.304094 
" clip-path="url(#pe158b61fd0)" style="fill: none; stroke: #000080; stroke-width: 1.5; stroke-linecap: square"/>
    <defs>
     <path id="m325358a553" d="M -12 12 
L 12 -12 
M -12 -12 
L 12 12 
" style="stroke: #000080"/>
    </defs>
    <g clip-path="url(#pe158b61fd0)">
     <use xlink:href="#m325358a553" x="274.176" y="177.304094" style="fill: #000080; stroke: #000080"/>
    </g>
   </g>
   <g id="line2d_39">
    <defs>
     <path id="mdb1bd4b39d" d="M 0 1.5 
C 0.397805 1.5 0.77937 1.341951 1.06066 1.06066 
C 1.341951 0.77937 1.5 0.397805 1.5 0 
C 1.5 -0.397805 1.341951 -0.77937 1.06066 -1.06066 
C 0.77937 -1.341951 0.397805 -1.5 0 -1.5 
C -0.397805 -1.5 -0.77937 -1.341951 -1.06066 -1.06066 
C -1.341951 -0.77937 -1.5 -0.397805 -1.5 0 
C -1.5 0.397805 -1.341951 0.77937 -1.06066 1.06066 
C -0.77937 1.341951 -0.397805 1.5 0 1.5 
z
" style="stroke: #ff00ff"/>
    </defs>
    <g>
     <use xlink:href="#mdb1bd4b39d" x="270.639594" y="27.648" style="fill: #ff00ff; stroke: #ff00ff"/>
     <use xlink:href="#mdb1bd4b39d" x="270.639594" y="27.648" style="fill: #ff00ff; stroke: #ff00ff"/>
    </g>
   </g>
   <g id="line2d_40">
    <path d="M 14.2848 298.944 
L 14.2848 293.624471 
L 112.076599 293.624471 
L 112.076599 292.9152 
L 112.790402 292.9152 
L 112.790402 289.368847 
L 113.954374 289.368847 
L 113.954374 289.014212 
L 125.526971 289.014212 
L 125.526971 288.304941 
L 125.729248 288.304941 
L 125.729248 287.950306 
L 126.028642 287.950306 
L 126.127391 284.403953 
L 126.468985 284.403953 
L 126.565455 282.985412 
L 126.804487 282.985412 
L 126.804487 281.921506 
L 126.993549 281.921506 
L 126.993549 280.8576 
L 132.673786 280.8576 
L 132.673786 280.502965 
L 133.120474 280.502965 
L 133.188264 279.439059 
L 133.323114 279.439059 
L 133.323114 279.084424 
L 133.457005 279.084424 
L 133.457005 278.729788 
L 134.112526 278.729788 
L 134.112526 278.375153 
L 134.368469 278.375153 
L 134.368469 278.020518 
L 134.620977 278.020518 
L 134.620977 277.665882 
L 137.654681 277.665882 
L 137.654681 277.311247 
L 138.412998 277.311247 
L 138.489728 276.601976 
L 138.667556 276.601976 
L 138.667556 276.247341 
L 138.89375 276.247341 
L 138.89375 275.892706 
L 139.362521 275.892706 
L 139.435481 274.8288 
L 139.796097 274.8288 
L 139.796097 274.474165 
L 139.985636 274.474165 
L 139.985636 274.119529 
L 142.038218 274.119529 
L 142.038218 273.764894 
L 142.702713 273.764894 
L 142.702713 273.410259 
L 142.824734 273.410259 
L 142.824734 272.346353 
L 143.18612 272.346353 
L 143.18612 271.991718 
L 143.344534 271.991718 
L 143.344534 271.637082 
L 143.657415 271.637082 
L 143.657415 271.282447 
L 144.192739 271.282447 
L 144.192739 270.927812 
L 145.344267 270.927812 
L 145.344267 270.573176 
L 145.816988 270.573176 
L 145.816988 270.218541 
L 146.040426 270.218541 
L 146.040426 269.863906 
L 146.176619 269.863906 
L 146.176619 269.509271 
L 146.496179 269.509271 
L 146.496179 269.154635 
L 146.87589 269.154635 
L 146.87589 268.8 
L 147.022411 268.8 
L 147.022411 268.445365 
L 148.592894 268.445365 
L 148.592894 268.090729 
L 148.888912 268.090729 
L 148.888912 267.381459 
L 149.035192 267.381459 
L 149.035192 267.026824 
L 149.381693 267.026824 
L 149.381693 266.672188 
L 149.693807 266.672188 
L 149.693807 266.317553 
L 149.98698 266.317553 
L 149.98698 265.962918 
L 150.919305 265.962918 
L 150.919305 265.608282 
L 151.362257 265.608282 
L 151.400845 264.899012 
L 151.907925 264.899012 
L 151.97036 264.189741 
L 152.291722 264.189741 
L 152.291722 263.835106 
L 152.942122 263.835106 
L 152.953957 263.125835 
L 153.536404 263.125835 
L 153.536404 262.7712 
L 154.14583 262.7712 
L 154.14583 262.416565 
L 154.617377 262.416565 
L 154.617377 262.061929 
L 154.789862 262.061929 
L 154.789862 261.707294 
L 155.485105 261.707294 
L 155.485105 261.352659 
L 156.105602 261.352659 
L 156.115606 260.643388 
L 156.472233 260.643388 
L 156.579868 259.934118 
L 156.927882 259.934118 
L 156.927882 259.224847 
L 157.1469 259.224847 
L 157.175281 258.160941 
L 158.480705 258.160941 
L 158.480705 257.806306 
L 158.595008 257.806306 
L 158.595008 257.451671 
L 158.734741 257.451671 
L 158.734741 257.097035 
L 158.976805 257.097035 
L 158.976805 256.7424 
L 159.096679 256.7424 
L 159.096679 256.387765 
L 159.50197 256.387765 
L 159.50197 255.323859 
L 159.955879 255.323859 
L 160.012872 254.614588 
L 160.1667 254.614588 
L 160.231096 253.905318 
L 160.612908 253.905318 
L 160.612908 253.550682 
L 161.255373 253.550682 
L 161.255373 253.196047 
L 161.369176 253.196047 
L 161.369176 252.841412 
L 161.758446 252.841412 
L 161.758446 252.486776 
L 162.088932 252.486776 
L 162.088932 252.132141 
L 162.413713 252.132141 
L 162.506504 250.7136 
L 162.62716 250.7136 
L 162.62716 250.358965 
L 162.991492 250.358965 
L 162.991492 250.004329 
L 163.73303 250.004329 
L 163.73303 249.649694 
L 164.155187 249.649694 
L 164.155187 249.295059 
L 164.959603 249.295059 
L 164.959603 248.940424 
L 165.232599 248.940424 
L 165.287954 247.876518 
L 165.610672 247.876518 
L 165.670946 247.167247 
L 167.101533 247.167247 
L 167.101533 246.812612 
L 167.251516 246.812612 
L 167.251516 246.457976 
L 167.394821 246.457976 
L 167.394821 246.103341 
L 169.234617 246.103341 
L 169.234617 245.748706 
L 169.579974 245.748706 
L 169.579974 245.394071 
L 169.808349 245.394071 
L 169.808349 245.039435 
L 170.00055 245.039435 
L 170.00055 244.6848 
L 171.023928 244.6848 
L 171.023928 243.975529 
L 171.154768 243.975529 
L 171.154768 243.620894 
L 172.152916 243.620894 
L 172.152916 243.266259 
L 172.632807 243.266259 
L 172.632807 242.911624 
L 173.394413 242.911624 
L 173.394413 242.556988 
L 173.929561 242.556988 
L 173.976058 241.847718 
L 174.149402 241.847718 
L 174.149402 241.493082 
L 174.423472 241.493082 
L 174.423472 241.138447 
L 176.075715 241.138447 
L 176.075715 240.783812 
L 176.472989 240.783812 
L 176.547396 240.074541 
L 176.638314 240.074541 
L 176.638314 239.719906 
L 176.822169 239.719906 
L 176.822169 239.365271 
L 177.343789 239.365271 
L 177.343789 239.010635 
L 178.324058 239.010635 
L 178.324058 238.656 
L 178.480044 238.656 
L 178.480044 238.301365 
L 180.218626 238.301365 
L 180.29069 237.592094 
L 181.360702 237.592094 
L 181.360702 237.237459 
L 181.57896 237.237459 
L 181.61767 236.173553 
L 183.81243 236.173553 
L 183.839939 235.109647 
L 184.297069 235.109647 
L 184.297069 234.755012 
L 184.806563 234.755012 
L 184.806563 233.691106 
L 185.085194 233.691106 
L 185.085194 233.336471 
L 186.720762 233.336471 
L 186.720762 232.6272 
L 194.910349 232.6272 
L 194.910349 231.917929 
L 195.339089 231.917929 
L 195.339089 231.563294 
L 195.889112 231.563294 
L 195.889112 230.499388 
L 196.830946 230.499388 
L 196.830946 230.144753 
L 197.059217 230.144753 
L 197.059217 229.435482 
L 197.175704 229.435482 
L 197.229744 228.016941 
L 197.295957 228.016941 
L 197.295957 226.953035 
L 197.507612 226.953035 
L 197.507612 225.889129 
L 197.727865 225.889129 
L 197.727865 225.179859 
L 197.892464 225.179859 
L 197.956388 224.470588 
L 198.108281 224.470588 
L 198.108281 224.115953 
L 198.321651 224.115953 
L 198.37356 223.052047 
L 198.532628 223.052047 
L 198.532628 222.697412 
L 198.741265 222.697412 
L 198.741265 221.633506 
L 198.997825 221.633506 
L 198.997825 220.924235 
L 199.151723 220.924235 
L 199.211514 219.505694 
L 199.353641 219.505694 
L 199.412795 217.732518 
L 199.602038 217.732518 
L 199.611946 217.023247 
L 199.946709 217.023247 
L 200.004031 215.959341 
L 200.38811 215.959341 
L 200.38811 215.604706 
L 200.52165 215.604706 
L 200.52165 215.250071 
L 203.612874 215.250071 
L 203.612874 214.895435 
L 203.895007 214.895435 
L 203.895007 214.5408 
L 204.307727 214.5408 
L 204.307727 214.186165 
L 205.371344 214.186165 
L 205.371344 213.831529 
L 205.49274 213.831529 
L 205.49274 213.476894 
L 205.884258 213.476894 
L 205.884258 213.122259 
L 206.488307 213.122259 
L 206.504793 212.412988 
L 206.625253 212.412988 
L 206.625253 212.058353 
L 206.994119 212.058353 
L 206.994119 211.703718 
L 212.027787 211.703718 
L 212.027787 211.349082 
L 212.231455 211.349082 
L 212.255747 210.639812 
L 212.432941 210.639812 
L 212.432941 210.285176 
L 212.625845 210.285176 
L 212.73118 209.221271 
L 212.829551 209.221271 
L 212.927411 208.157365 
L 213.024765 208.157365 
L 213.121617 207.448094 
L 213.435362 207.448094 
L 213.435362 206.738824 
L 213.654493 206.738824 
L 213.748164 205.674918 
L 213.779907 205.674918 
L 213.841372 204.256376 
L 214.009833 204.256376 
L 214.062744 203.547106 
L 214.601243 203.547106 
L 214.601243 203.192471 
L 215.072141 203.192471 
L 215.159029 201.773929 
L 215.419019 201.773929 
L 215.419019 201.419294 
L 215.727683 201.419294 
L 215.727683 201.064659 
L 215.841721 201.064659 
L 215.895147 200.355388 
L 216.089206 200.355388 
L 216.183028 198.936847 
L 216.225669 198.936847 
L 216.307399 197.872941 
L 216.388777 197.872941 
L 216.499695 196.099765 
L 216.579443 196.099765 
L 216.683651 193.262682 
L 216.7152 193.262682 
L 216.790465 191.844141 
L 216.82858 191.844141 
L 216.896676 191.134871 
L 216.948769 191.134871 
L 217.056444 187.588518 
L 217.079157 187.588518 
L 217.134651 186.169976 
L 217.210202 186.169976 
L 217.31253 183.332894 
L 217.343043 183.332894 
L 217.452711 180.850447 
L 217.543043 180.850447 
L 217.619257 178.722635 
L 217.75718 178.722635 
L 217.75718 178.368 
L 219.320174 178.368 
L 219.320174 178.013365 
L 219.527482 178.013365 
L 219.527482 177.304094 
L 219.881152 177.304094 
L 219.948475 176.594824 
L 220.015557 176.594824 
L 220.015557 175.530918 
L 220.400315 175.530918 
L 220.400315 175.176282 
L 220.531074 175.176282 
L 220.608771 173.403106 
L 220.680654 173.403106 
L 220.738093 172.3392 
L 220.802423 172.3392 
L 220.866533 171.275294 
L 220.917984 171.275294 
L 220.930426 170.566024 
L 221.936046 170.566024 
L 221.936046 170.211388 
L 223.590392 170.211388 
L 223.645684 169.502118 
L 225.775039 169.502118 
L 225.775039 169.147482 
L 226.087714 169.147482 
L 226.136141 167.374306 
L 226.226608 167.374306 
L 226.322628 165.601129 
L 226.387166 165.601129 
L 226.485696 161.345506 
L 226.635356 161.345506 
L 226.635356 160.990871 
L 226.95455 160.990871 
L 226.95455 159.926965 
L 227.262497 159.926965 
L 227.267962 158.508424 
L 227.408838 158.508424 
L 227.509592 157.444518 
L 227.584077 157.444518 
L 227.681227 155.316706 
L 227.712609 155.316706 
L 227.733057 154.607435 
L 227.850868 154.607435 
L 227.909938 152.834259 
L 227.977596 152.834259 
L 228.059645 149.997176 
L 228.117193 149.997176 
L 228.215532 146.805459 
L 228.276708 146.805459 
L 228.377868 143.259106 
L 228.392674 143.259106 
L 228.491294 137.584941 
L 228.504945 137.584941 
L 228.548816 135.811765 
L 228.64112 135.811765 
L 228.7256 134.747859 
L 229.476204 134.747859 
L 229.476204 134.393224 
L 229.876874 134.393224 
L 229.916476 133.329318 
L 230.034783 133.329318 
L 230.074054 131.556141 
L 230.184748 131.556141 
L 230.269188 129.428329 
L 230.419615 129.428329 
L 230.474036 127.655153 
L 231.114542 127.655153 
L 231.190113 126.591247 
L 231.255805 126.591247 
L 231.288013 125.881976 
L 231.420317 125.881976 
L 231.443311 124.818071 
L 231.904859 124.818071 
L 232.00142 123.399529 
L 232.174659 123.399529 
L 232.175887 122.690259 
L 232.367338 122.690259 
L 232.46467 119.853176 
L 232.601844 119.853176 
L 232.603216 119.143906 
L 233.165729 119.143906 
L 233.165729 118.789271 
L 233.397289 118.789271 
L 233.397289 118.08 
L 233.59076 118.08 
L 233.658486 116.661459 
L 233.723222 116.661459 
L 233.819911 113.469741 
L 233.869031 113.469741 
L 233.969441 110.632659 
L 234.016901 110.632659 
L 234.112254 109.568753 
L 234.138664 109.568753 
L 234.201771 108.504847 
L 234.970988 108.504847 
L 234.970988 108.150212 
L 235.089453 108.150212 
L 235.119478 107.440941 
L 235.294764 107.440941 
L 235.294764 107.086306 
L 235.435568 107.086306 
L 235.502858 106.0224 
L 235.739179 106.0224 
L 235.739179 105.667765 
L 235.852341 105.667765 
L 235.854937 104.249224 
L 236.252031 104.249224 
L 236.252031 103.894588 
L 236.392744 103.894588 
L 236.448735 103.185318 
L 236.560221 103.185318 
L 236.560221 102.830682 
L 236.698656 102.830682 
L 236.808813 101.766776 
L 236.82019 101.766776 
L 236.876019 100.702871 
L 237.146375 100.702871 
L 237.24082 99.638965 
L 237.62404 99.638965 
L 237.629685 98.929694 
L 237.884059 98.929694 
L 237.988536 97.156518 
L 238.038824 97.156518 
L 238.131204 94.674071 
L 238.156239 94.674071 
L 238.266328 91.482353 
L 238.304485 91.482353 
L 238.367069 90.418447 
L 238.416356 90.418447 
L 238.427809 89.709176 
L 239.009908 89.709176 
L 239.089514 88.645271 
L 239.256996 88.645271 
L 239.256996 88.290635 
L 239.450426 88.290635 
L 239.464362 87.581365 
L 239.570272 87.581365 
L 239.587669 86.872094 
L 240.640261 86.872094 
L 240.640261 86.517459 
L 241.668226 86.517459 
L 241.767198 85.098918 
L 241.781625 85.098918 
L 241.85129 82.616471 
L 241.909408 82.616471 
L 241.909408 82.261835 
L 242.199705 82.261835 
L 242.200631 81.552565 
L 242.337264 81.552565 
L 242.346562 79.779388 
L 242.520845 79.779388 
L 242.601943 77.296941 
L 242.6595 77.296941 
L 242.759802 72.686682 
L 242.783072 72.686682 
L 242.836196 71.268141 
L 243.421392 71.268141 
L 243.503607 69.8496 
L 243.577046 69.8496 
L 243.609933 69.140329 
L 243.701979 69.140329 
L 243.711292 68.431059 
L 244.105214 68.431059 
L 244.177458 66.657882 
L 244.281435 66.657882 
L 244.335829 65.948612 
L 244.42321 65.948612 
L 244.434367 65.239341 
L 244.54212 65.239341 
L 244.588966 64.530071 
L 244.712062 64.530071 
L 244.802738 63.466165 
L 245.329346 63.466165 
L 245.425516 61.338353 
L 245.475061 61.338353 
L 245.554993 59.919812 
L 245.650105 59.919812 
L 245.650105 59.565176 
L 246.138885 59.565176 
L 246.216882 58.855906 
L 246.255345 58.855906 
L 246.255428 58.146635 
L 246.367377 58.146635 
L 246.374965 57.082729 
L 246.564332 57.082729 
L 246.564332 56.728094 
L 246.798955 56.728094 
L 246.798955 56.373459 
L 247.175547 56.373459 
L 247.239686 54.954918 
L 247.304078 54.954918 
L 247.304078 54.600282 
L 247.416919 54.600282 
L 247.419649 53.891012 
L 247.717069 53.891012 
L 247.804859 52.472471 
L 247.834794 52.472471 
L 247.918923 51.7632 
L 247.947084 51.7632 
L 248.029052 49.635388 
L 248.059462 49.635388 
L 248.060593 48.926118 
L 248.562524 48.926118 
L 248.577127 48.216847 
L 248.680271 48.216847 
L 248.780821 47.152941 
L 250.078374 47.152941 
L 250.186762 46.089035 
L 250.508029 46.089035 
L 250.611474 45.379765 
L 250.626807 45.379765 
L 250.727314 43.961224 
L 250.759804 43.961224 
L 250.855705 42.542682 
L 251.262943 42.542682 
L 251.321294 41.124141 
L 251.689112 41.124141 
L 251.689112 40.769506 
L 252.42377 40.769506 
L 252.42377 40.414871 
L 252.594582 40.414871 
L 252.688726 36.868518 
L 253.354734 36.868518 
L 253.354734 36.513882 
L 253.505654 36.513882 
L 253.505654 36.159247 
L 253.695983 36.159247 
L 253.695983 35.804612 
L 254.2915 35.804612 
L 254.378027 35.095341 
L 256.219416 35.095341 
L 256.219416 34.740706 
L 256.353942 34.740706 
L 256.36534 34.031435 
L 256.800137 34.031435 
L 256.800137 33.6768 
L 257.186626 33.6768 
L 257.186626 33.322165 
L 258.132809 33.322165 
L 258.132809 32.967529 
L 258.325625 32.967529 
L 258.329949 32.258259 
L 259.493671 32.258259 
L 259.493671 31.903624 
L 260.287561 31.903624 
L 260.287561 31.548988 
L 260.583456 31.548988 
L 260.631363 30.839718 
L 261.269691 30.839718 
L 261.269691 30.485082 
L 262.173586 30.485082 
L 262.173586 30.130447 
L 262.797545 30.130447 
L 262.797545 29.775812 
L 263.216507 29.775812 
L 263.243873 29.066541 
L 264.183973 29.066541 
L 264.186661 28.357271 
L 266.262494 28.357271 
L 266.262494 28.002635 
L 270.639594 28.002635 
L 270.639594 27.648 
L 360.8064 27.648 
L 360.8064 27.648 
" style="fill: none; stroke: #ff00ff; stroke-width: 1.5; stroke-linecap: square"/>
   </g>
   <g id="line2d_41">
    <defs>
     <path id="md79bd3f994" d="M 0 8.485281 
L 5.091169 0 
L 0 -8.485281 
L -5.091169 0 
z
" style="stroke: #ff00ff; stroke-width: 1.5; stroke-linejoin: miter"/>
    </defs>
    <g>
     <use xlink:href="#md79bd3f994" x="186.720762" y="232.6272" style="fill-opacity: 0; stroke: #ff00ff; stroke-width: 1.5; stroke-linejoin: miter"/>
     <use xlink:href="#md79bd3f994" x="233.819911" y="113.469741" style="fill-opacity: 0; stroke: #ff00ff; stroke-width: 1.5; stroke-linejoin: miter"/>
     <use xlink:href="#md79bd3f994" x="270.639594" y="28.002635" style="fill-opacity: 0; stroke: #ff00ff; stroke-width: 1.5; stroke-linejoin: miter"/>
     <use xlink:href="#md79bd3f994" x="270.639594" y="27.648" style="fill-opacity: 0; stroke: #ff00ff; stroke-width: 1.5; stroke-linejoin: miter"/>
     <use xlink:href="#md79bd3f994" x="360.8064" y="27.648" style="fill-opacity: 0; stroke: #ff00ff; stroke-width: 1.5; stroke-linejoin: miter"/>
    </g>
   </g>
   <g id="line2d_42">
    <path style="fill: none; stroke: #ff00ff; stroke-width: 1.5; stroke-linecap: square"/>
    <g/>
   </g>
   <g id="line2d_43">
    <path d="M 230.874339 127.655153 
" clip-path="url(#pe158b61fd0)" style="fill: none; stroke: #ff00ff; stroke-width: 1.5; stroke-linecap: square"/>
    <defs>
     <path id="m51401e2fe0" d="M -12 12 
L 12 -12 
M -12 -12 
L 12 12 
" style="stroke: #ff00ff"/>
    </defs>
    <g clip-path="url(#pe158b61fd0)">
     <use xlink:href="#m51401e2fe0" x="230.874339" y="127.655153" style="fill: #ff00ff; stroke: #ff00ff"/>
    </g>
   </g>
   <g id="line2d_44">
    <path d="M 360.8064 27.648 
L 380.514816 293.51808 
" style="fill: none; stroke: #000080; stroke-width: 1.5; stroke-linecap: square"/>
    <g>
     <use xlink:href="#mbf1c42f069" x="360.8064" y="27.648" style="fill-opacity: 0; stroke: #000080; stroke-width: 1.5"/>
     <use xlink:href="#mbf1c42f069" x="380.514816" y="293.51808" style="fill-opacity: 0; stroke: #000080; stroke-width: 1.5"/>
    </g>
   </g>
   <g id="line2d_45">
    <path d="M 360.8064 27.648 
L 380.514816 163.296 
" style="fill: none; stroke: #ff00ff; stroke-width: 1.5; stroke-linecap: square"/>
    <g>
     <use xlink:href="#md79bd3f994" x="360.8064" y="27.648" style="fill-opacity: 0; stroke: #ff00ff; stroke-width: 1.5; stroke-linejoin: miter"/>
     <use xlink:href="#md79bd3f994" x="380.514816" y="163.296" style="fill-opacity: 0; stroke: #ff00ff; stroke-width: 1.5; stroke-linejoin: miter"/>
    </g>
   </g>
   <g id="line2d_46">
    <path d="M 360.8064 298.944 
L 360.8064 27.648 
" style="fill: none; stroke: #000000; stroke-width: 1.5; stroke-linecap: square"/>
   </g>
   <g id="patch_3">
    <path d="M 57.6 298.944 
L 360.8064 298.944 
" style="fill: none; stroke: #000000; stroke-width: 0.8; stroke-linejoin: miter; stroke-linecap: square"/>
   </g>
   <g id="patch_4">
    <path d="M 57.6 27.648 
L 360.8064 27.648 
" style="fill: none; stroke: #000000; stroke-width: 0.8; stroke-linejoin: miter; stroke-linecap: square"/>
   </g>
   <g id="text_13">
    <!-- LCGA -->
    <g transform="translate(386.578944 297.381205)scale(0.14 -0.14)">
     <defs>
      <path id="DejaVuSans-4c" d="M 628 4666 
L 1259 4666 
L 1259 531 
L 3531 531 
L 3531 0 
L 628 0 
L 628 4666 
z
" transform="scale(0.015625)"/>
      <path id="DejaVuSans-43" d="M 4122 4306 
L 4122 3641 
Q 3803 3938 3442 4084 
Q 3081 4231 2675 4231 
Q 1875 4231 1450 3742 
Q 1025 3253 1025 2328 
Q 1025 1406 1450 917 
Q 1875 428 2675 428 
Q 3081 428 3442 575 
Q 3803 722 4122 1019 
L 4122 359 
Q 3791 134 3420 21 
Q 3050 -91 2638 -91 
Q 1578 -91 968 557 
Q 359 1206 359 2328 
Q 359 3453 968 4101 
Q 1578 4750 2638 4750 
Q 3056 4750 3426 4639 
Q 3797 4528 4122 4306 
z
" transform="scale(0.015625)"/>
      <path id="DejaVuSans-47" d="M 3809 666 
L 3809 1919 
L 2778 1919 
L 2778 2438 
L 4434 2438 
L 4434 434 
Q 4069 175 3628 42 
Q 3188 -91 2688 -91 
Q 1594 -91 976 548 
Q 359 1188 359 2328 
Q 359 3472 976 4111 
Q 1594 4750 2688 4750 
Q 3144 4750 3555 4637 
Q 3966 4525 4313 4306 
L 4313 3634 
Q 3963 3931 3569 4081 
Q 3175 4231 2741 4231 
Q 1884 4231 1454 3753 
Q 1025 3275 1025 2328 
Q 1025 1384 1454 906 
Q 1884 428 2741 428 
Q 3075 428 3337 486 
Q 3600 544 3809 666 
z
" transform="scale(0.015625)"/>
      <path id="DejaVuSans-41" d="M 2188 4044 
L 1331 1722 
L 3047 1722 
L 2188 4044 
z
M 1831 4666 
L 2547 4666 
L 4325 0 
L 3669 0 
L 3244 1197 
L 1141 1197 
L 716 0 
L 50 0 
L 1831 4666 
z
" transform="scale(0.015625)"/>
     </defs>
     <use xlink:href="#DejaVuSans-4c"/>
     <use xlink:href="#DejaVuSans-43" x="55.712891"/>
     <use xlink:href="#DejaVuSans-47" x="125.537109"/>
     <use xlink:href="#DejaVuSans-41" x="203.027344"/>
    </g>
   </g>
   <g id="text_14">
    <!-- EvoSpace- -->
    <g transform="translate(386.578944 167.159125)scale(0.14 -0.14)">
     <defs>
      <path id="DejaVuSans-45" d="M 628 4666 
L 3578 4666 
L 3578 4134 
L 1259 4134 
L 1259 2753 
L 3481 2753 
L 3481 2222 
L 1259 2222 
L 1259 531 
L 3634 531 
L 3634 0 
L 628 0 
L 628 4666 
z
" transform="scale(0.015625)"/>
      <path id="DejaVuSans-53" d="M 3425 4513 
L 3425 3897 
Q 3066 4069 2747 4153 
Q 2428 4238 2131 4238 
Q 1616 4238 1336 4038 
Q 1056 3838 1056 3469 
Q 1056 3159 1242 3001 
Q 1428 2844 1947 2747 
L 2328 2669 
Q 3034 2534 3370 2195 
Q 3706 1856 3706 1288 
Q 3706 609 3251 259 
Q 2797 -91 1919 -91 
Q 1588 -91 1214 -16 
Q 841 59 441 206 
L 441 856 
Q 825 641 1194 531 
Q 1563 422 1919 422 
Q 2459 422 2753 634 
Q 3047 847 3047 1241 
Q 3047 1584 2836 1778 
Q 2625 1972 2144 2069 
L 1759 2144 
Q 1053 2284 737 2584 
Q 422 2884 422 3419 
Q 422 4038 858 4394 
Q 1294 4750 2059 4750 
Q 2388 4750 2728 4690 
Q 3069 4631 3425 4513 
z
" transform="scale(0.015625)"/>
     </defs>
     <use xlink:href="#DejaVuSans-45"/>
     <use xlink:href="#DejaVuSans-76" x="63.183594"/>
     <use xlink:href="#DejaVuSans-6f" x="122.363281"/>
     <use xlink:href="#DejaVuSans-53" x="183.544922"/>
     <use xlink:href="#DejaVuSans-70" x="247.021484"/>
     <use xlink:href="#DejaVuSans-61" x="310.498047"/>
     <use xlink:href="#DejaVuSans-63" x="371.777344"/>
     <use xlink:href="#DejaVuSans-65" x="426.757812"/>
     <use xlink:href="#DejaVuSans-2d" x="488.28125"/>
    </g>
   </g>
   <g id="text_15">
    <!-- best 2009 -->
    <g transform="translate(386.578944 36.937045)scale(0.14 -0.14)">
     <defs>
      <path id="DejaVuSans-62" d="M 3116 1747 
Q 3116 2381 2855 2742 
Q 2594 3103 2138 3103 
Q 1681 3103 1420 2742 
Q 1159 2381 1159 1747 
Q 1159 1113 1420 752 
Q 1681 391 2138 391 
Q 2594 391 2855 752 
Q 3116 1113 3116 1747 
z
M 1159 2969 
Q 1341 3281 1617 3432 
Q 1894 3584 2278 3584 
Q 2916 3584 3314 3078 
Q 3713 2572 3713 1747 
Q 3713 922 3314 415 
Q 2916 -91 2278 -91 
Q 1894 -91 1617 61 
Q 1341 213 1159 525 
L 1159 0 
L 581 0 
L 581 4863 
L 1159 4863 
L 1159 2969 
z
" transform="scale(0.015625)"/>
      <path id="DejaVuSans-39" d="M 703 97 
L 703 672 
Q 941 559 1184 500 
Q 1428 441 1663 441 
Q 2288 441 2617 861 
Q 2947 1281 2994 2138 
Q 2813 1869 2534 1725 
Q 2256 1581 1919 1581 
Q 1219 1581 811 2004 
Q 403 2428 403 3163 
Q 403 3881 828 4315 
Q 1253 4750 1959 4750 
Q 2769 4750 3195 4129 
Q 3622 3509 3622 2328 
Q 3622 1225 3098 567 
Q 2575 -91 1691 -91 
Q 1453 -91 1209 -44 
Q 966 3 703 97 
z
M 1959 2075 
Q 2384 2075 2632 2365 
Q 2881 2656 2881 3163 
Q 2881 3666 2632 3958 
Q 2384 4250 1959 4250 
Q 1534 4250 1286 3958 
Q 1038 3666 1038 3163 
Q 1038 2656 1286 2365 
Q 1534 2075 1959 2075 
z
" transform="scale(0.015625)"/>
     </defs>
     <use xlink:href="#DejaVuSans-62"/>
     <use xlink:href="#DejaVuSans-65" x="63.476562"/>
     <use xlink:href="#DejaVuSans-73" x="125"/>
     <use xlink:href="#DejaVuSans-74" x="177.099609"/>
     <use xlink:href="#DejaVuSans-20" x="216.308594"/>
     <use xlink:href="#DejaVuSans-32" x="248.095703"/>
     <use xlink:href="#DejaVuSans-30" x="311.71875"/>
     <use xlink:href="#DejaVuSans-30" x="375.341797"/>
     <use xlink:href="#DejaVuSans-39" x="438.964844"/>
    </g>
   </g>
   <g id="text_16">
    <!-- bbob f21, 10-D -->
    <g transform="translate(60.632064 38.111366)scale(0.102 -0.102)">
     <defs>
      <path id="DejaVuSans-44" d="M 1259 4147 
L 1259 519 
L 2022 519 
Q 2988 519 3436 956 
Q 3884 1394 3884 2338 
Q 3884 3275 3436 3711 
Q 2988 4147 2022 4147 
L 1259 4147 
z
M 628 4666 
L 1925 4666 
Q 3281 4666 3915 4102 
Q 4550 3538 4550 2338 
Q 4550 1131 3912 565 
Q 3275 0 1925 0 
L 628 0 
L 628 4666 
z
" transform="scale(0.015625)"/>
     </defs>
     <use xlink:href="#DejaVuSans-62"/>
     <use xlink:href="#DejaVuSans-62" x="63.476562"/>
     <use xlink:href="#DejaVuSans-6f" x="126.953125"/>
     <use xlink:href="#DejaVuSans-62" x="188.134766"/>
     <use xlink:href="#DejaVuSans-20" x="251.611328"/>
     <use xlink:href="#DejaVuSans-66" x="283.398438"/>
     <use xlink:href="#DejaVuSans-32" x="318.603516"/>
     <use xlink:href="#DejaVuSans-31" x="382.226562"/>
     <use xlink:href="#DejaVuSans-2c" x="445.849609"/>
     <use xlink:href="#DejaVuSans-20" x="477.636719"/>
     <use xlink:href="#DejaVuSans-31" x="509.423828"/>
     <use xlink:href="#DejaVuSans-30" x="573.046875"/>
     <use xlink:href="#DejaVuSans-2d" x="636.669922"/>
     <use xlink:href="#DejaVuSans-44" x="672.753906"/>
    </g>
    <!-- 51 targets: 100..1e-08 -->
    <g transform="translate(60.632064 49.533135)scale(0.102 -0.102)">
     <defs>
      <path id="DejaVuSans-35" d="M 691 4666 
L 3169 4666 
L 3169 4134 
L 1269 4134 
L 1269 2991 
Q 1406 3038 1543 3061 
Q 1681 3084 1819 3084 
Q 2600 3084 3056 2656 
Q 3513 2228 3513 1497 
Q 3513 744 3044 326 
Q 2575 -91 1722 -91 
Q 1428 -91 1123 -41 
Q 819 9 494 109 
L 494 744 
Q 775 591 1075 516 
Q 1375 441 1709 441 
Q 2250 441 2565 725 
Q 2881 1009 2881 1497 
Q 2881 1984 2565 2268 
Q 2250 2553 1709 2553 
Q 1456 2553 1204 2497 
Q 953 2441 691 2322 
L 691 4666 
z
" transform="scale(0.015625)"/>
      <path id="DejaVuSans-3a" d="M 750 794 
L 1409 794 
L 1409 0 
L 750 0 
L 750 794 
z
M 750 3309 
L 1409 3309 
L 1409 2516 
L 750 2516 
L 750 3309 
z
" transform="scale(0.015625)"/>
     </defs>
     <use xlink:href="#DejaVuSans-35"/>
     <use xlink:href="#DejaVuSans-31" x="63.623047"/>
     <use xlink:href="#DejaVuSans-20" x="127.246094"/>
     <use xlink:href="#DejaVuSans-74" x="159.033203"/>
     <use xlink:href="#DejaVuSans-61" x="198.242188"/>
     <use xlink:href="#DejaVuSans-72" x="259.521484"/>
     <use xlink:href="#DejaVuSans-67" x="298.884766"/>
     <use xlink:href="#DejaVuSans-65" x="362.361328"/>
     <use xlink:href="#DejaVuSans-74" x="423.884766"/>
     <use xlink:href="#DejaVuSans-73" x="463.09375"/>
     <use xlink:href="#DejaVuSans-3a" x="515.193359"/>
     <use xlink:href="#DejaVuSans-20" x="548.884766"/>
     <use xlink:href="#DejaVuSans-31" x="580.671875"/>
     <use xlink:href="#DejaVuSans-30" x="644.294922"/>
     <use xlink:href="#DejaVuSans-30" x="707.917969"/>
     <use xlink:href="#DejaVuSans-2e" x="771.541016"/>
     <use xlink:href="#DejaVuSans-2e" x="803.328125"/>
     <use xlink:href="#DejaVuSans-31" x="835.115234"/>
     <use xlink:href="#DejaVuSans-65" x="898.738281"/>
     <use xlink:href="#DejaVuSans-2d" x="960.261719"/>
     <use xlink:href="#DejaVuSans-30" x="996.345703"/>
     <use xlink:href="#DejaVuSans-38" x="1059.96875"/>
    </g>
    <!-- 15 instances -->
    <g transform="translate(60.632064 60.954904)scale(0.102 -0.102)">
     <use xlink:href="#DejaVuSans-31"/>
     <use xlink:href="#DejaVuSans-35" x="63.623047"/>
     <use xlink:href="#DejaVuSans-20" x="127.246094"/>
     <use xlink:href="#DejaVuSans-69" x="159.033203"/>
     <use xlink:href="#DejaVuSans-6e" x="186.816406"/>
     <use xlink:href="#DejaVuSans-73" x="250.195312"/>
     <use xlink:href="#DejaVuSans-74" x="302.294922"/>
     <use xlink:href="#DejaVuSans-61" x="341.503906"/>
     <use xlink:href="#DejaVuSans-6e" x="402.783203"/>
     <use xlink:href="#DejaVuSans-63" x="466.162109"/>
     <use xlink:href="#DejaVuSans-65" x="521.142578"/>
     <use xlink:href="#DejaVuSans-73" x="582.666016"/>
    </g>
   </g>
   <g id="text_17">
    <!-- v2.6 -->
    <g style="fill: #808080" transform="translate(198.292262 294.151352)scale(0.1 -0.1)">
     <use xlink:href="#DejaVuSans-76"/>
     <use xlink:href="#DejaVuSans-32" x="59.179688"/>
     <use xlink:href="#DejaVuSans-2e" x="122.802734"/>
     <use xlink:href="#DejaVuSans-36" x="154.589844"/>
    </g>
   </g>
   <g id="text_18">
    <!-- 21 Gallagher 101 peaks -->
    <g transform="translate(89.7157 21.648)scale(0.2 -0.2)">
     <defs>
      <path id="DejaVuSans-68" d="M 3513 2113 
L 3513 0 
L 2938 0 
L 2938 2094 
Q 2938 2591 2744 2837 
Q 2550 3084 2163 3084 
Q 1697 3084 1428 2787 
Q 1159 2491 1159 1978 
L 1159 0 
L 581 0 
L 581 4863 
L 1159 4863 
L 1159 2956 
Q 1366 3272 1645 3428 
Q 1925 3584 2291 3584 
Q 2894 3584 3203 3211 
Q 3513 2838 3513 2113 
z
" transform="scale(0.015625)"/>
      <path id="DejaVuSans-6b" d="M 581 4863 
L 1159 4863 
L 1159 1991 
L 2875 3500 
L 3609 3500 
L 1753 1863 
L 3688 0 
L 2938 0 
L 1159 1709 
L 1159 0 
L 581 0 
L 581 4863 
z
" transform="scale(0.015625)"/>
     </defs>
     <use xlink:href="#DejaVuSans-32"/>
     <use xlink:href="#DejaVuSans-31" x="63.623047"/>
     <use xlink:href="#DejaVuSans-20" x="127.246094"/>
     <use xlink:href="#DejaVuSans-47" x="159.033203"/>
     <use xlink:href="#DejaVuSans-61" x="236.523438"/>
     <use xlink:href="#DejaVuSans-6c" x="297.802734"/>
     <use xlink:href="#DejaVuSans-6c" x="325.585938"/>
     <use xlink:href="#DejaVuSans-61" x="353.369141"/>
     <use xlink:href="#DejaVuSans-67" x="414.648438"/>
     <use xlink:href="#DejaVuSans-68" x="478.125"/>
     <use xlink:href="#DejaVuSans-65" x="541.503906"/>
     <use xlink:href="#DejaVuSans-72" x="603.027344"/>
     <use xlink:href="#DejaVuSans-20" x="644.140625"/>
     <use xlink:href="#DejaVuSans-31" x="675.927734"/>
     <use xlink:href="#DejaVuSans-30" x="739.550781"/>
     <use xlink:href="#DejaVuSans-31" x="803.173828"/>
     <use xlink:href="#DejaVuSans-20" x="866.796875"/>
     <use xlink:href="#DejaVuSans-70" x="898.583984"/>
     <use xlink:href="#DejaVuSans-65" x="962.060547"/>
     <use xlink:href="#DejaVuSans-61" x="1023.583984"/>
     <use xlink:href="#DejaVuSans-6b" x="1084.863281"/>
     <use xlink:href="#DejaVuSans-73" x="1142.773438"/>
    </g>
   </g>
  </g>
 </g>
 <defs>
  <clipPath id="pe158b61fd0">
   <rect x="57.6" y="27.648" width="303.2064" height="271.296"/>
  </clipPath>
 </defs>
</svg>
