<?xml version="1.0" encoding="utf-8" standalone="no"?>
<!DOCTYPE svg PUBLIC "-//W3C//DTD SVG 1.1//EN"
  "http://www.w3.org/Graphics/SVG/1.1/DTD/svg11.dtd">
<svg xmlns:xlink="http://www.w3.org/1999/xlink" width="460.8pt" height="345.6pt" viewBox="0 0 460.8 345.6" xmlns="http://www.w3.org/2000/svg" version="1.1">
 <metadata>
  <rdf:RDF xmlns:dc="http://purl.org/dc/elements/1.1/" xmlns:cc="http://creativecommons.org/ns#" xmlns:rdf="http://www.w3.org/1999/02/22-rdf-syntax-ns#">
   <cc:Work>
    <dc:type rdf:resource="http://purl.org/dc/dcmitype/StillImage"/>
    <dc:date>2024-05-29T08:05:53.463263</dc:date>
    <dc:format>image/svg+xml</dc:format>
    <dc:creator>
     <cc:Agent>
      <dc:title>Matplotlib v3.5.1, https://matplotlib.org/</dc:title>
     </cc:Agent>
    </dc:creator>
   </cc:Work>
  </rdf:RDF>
 </metadata>
 <defs>
  <style type="text/css">*{stroke-linejoin: round; stroke-linecap: butt}</style>
 </defs>
 <g id="figure_1">
  <g id="patch_1">
   <path d="M 0 345.6 
L 460.8 345.6 
L 460.8 0 
L 0 0 
z
" style="fill: #ffffff"/>
  </g>
  <g id="axes_1">
   <g id="patch_2">
    <path d="M 57.6 298.944 
L 360.8064 298.944 
L 360.8064 27.648 
L 57.6 27.648 
z
" style="fill: #ffffff"/>
   </g>
   <g id="line2d_1">
    <path d="M 74.836851 298.944 
L 74.836851 293.624471 
L 85.894031 293.624471 
L 85.894031 288.304941 
L 94.205591 288.304941 
L 94.205591 282.985412 
L 98.933205 282.985412 
L 98.933205 277.665882 
L 100.9152 277.665882 
L 100.9152 272.346353 
L 103.544339 272.346353 
L 103.544339 267.026824 
L 104.344952 267.026824 
L 104.344952 261.707294 
L 106.560633 261.707294 
L 106.560633 256.387765 
L 109.159456 256.387765 
L 109.159456 251.068235 
L 110.335561 251.068235 
L 110.335561 245.748706 
L 111.442442 245.748706 
L 111.442442 240.429176 
L 112.989468 240.429176 
L 112.989468 235.109647 
L 113.954374 235.109647 
L 113.954374 229.790118 
L 114.872193 229.790118 
L 114.872193 224.470588 
L 115.314838 224.470588 
L 115.314838 219.151059 
L 116.583514 219.151059 
L 116.583514 213.831529 
L 118.524569 213.831529 
L 118.524569 208.512 
L 119.24818 208.512 
L 119.24818 203.192471 
L 119.944983 203.192471 
L 119.944983 197.872941 
L 120.616896 197.872941 
L 120.616896 192.553412 
L 121.581803 192.553412 
L 121.581803 187.233882 
L 122.19863 187.233882 
L 122.19863 181.914353 
L 122.795872 181.914353 
L 122.795872 176.594824 
L 123.657621 176.594824 
L 123.657621 171.275294 
L 123.936316 171.275294 
L 123.936316 165.955765 
L 124.748451 165.955765 
L 124.748451 160.636235 
L 125.526971 160.636235 
L 125.526971 155.316706 
L 126.028642 155.316706 
L 126.028642 149.997176 
L 126.756923 149.997176 
L 126.756923 144.677647 
L 127.227236 144.677647 
L 127.227236 139.358118 
L 127.686077 139.358118 
L 127.686077 134.038588 
L 128.57149 134.038588 
L 128.57149 128.719059 
L 128.999044 128.719059 
L 128.999044 123.399529 
L 129.417095 123.399529 
L 129.417095 118.08 
L 129.826058 118.08 
L 129.826058 112.760471 
L 130.226319 112.760471 
L 130.226319 107.440941 
L 130.811181 107.440941 
L 130.811181 102.121412 
L 131.191226 102.121412 
L 131.191226 96.801882 
L 131.563744 96.801882 
L 131.563744 91.482353 
L 131.929028 91.482353 
L 131.929028 86.162824 
L 132.638982 86.162824 
L 132.638982 80.843294 
L 133.323114 80.843294 
L 133.323114 75.523765 
L 133.656071 75.523765 
L 133.656071 70.204235 
L 133.983236 70.204235 
L 133.983236 64.884706 
L 134.304809 64.884706 
L 134.304809 59.565176 
L 134.931919 59.565176 
L 134.931919 54.245647 
L 135.237805 54.245647 
L 135.237805 48.926118 
L 135.687504 48.926118 
L 135.687504 43.606588 
L 135.835047 43.606588 
L 135.835047 38.287059 
L 136.126705 38.287059 
L 136.126705 32.967529 
L 136.555884 32.967529 
L 136.555884 27.648 
L 360.8064 27.648 
" style="fill: none; stroke: #f5deb3; stroke-width: 4; stroke-linecap: square"/>
   </g>
   <g id="line2d_2">
    <defs>
     <path id="mac6eb67f76" d="M 0 7.778175 
L 7.778175 0 
L 0 -7.778175 
L -7.778175 0 
z
" style="stroke: #f5deb3; stroke-width: 1.5; stroke-linejoin: miter"/>
    </defs>
    <g>
     <use xlink:href="#mac6eb67f76" x="123.657621" y="176.594824" style="fill: #f5deb3; stroke: #f5deb3; stroke-width: 1.5; stroke-linejoin: miter"/>
     <use xlink:href="#mac6eb67f76" x="136.555884" y="32.967529" style="fill: #f5deb3; stroke: #f5deb3; stroke-width: 1.5; stroke-linejoin: miter"/>
     <use xlink:href="#mac6eb67f76" x="136.555884" y="27.648" style="fill: #f5deb3; stroke: #f5deb3; stroke-width: 1.5; stroke-linejoin: miter"/>
     <use xlink:href="#mac6eb67f76" x="136.555884" y="27.648" style="fill: #f5deb3; stroke: #f5deb3; stroke-width: 1.5; stroke-linejoin: miter"/>
     <use xlink:href="#mac6eb67f76" x="360.8064" y="27.648" style="fill: #f5deb3; stroke: #f5deb3; stroke-width: 1.5; stroke-linejoin: miter"/>
    </g>
   </g>
   <g id="line2d_3">
    <path style="fill: none; stroke: #f5deb3; stroke-width: 4; stroke-linecap: square"/>
    <g/>
   </g>
   <g id="line2d_4">
    <path d="M 360.8064 27.648 
L 380.514816 33.07392 
" style="fill: none; stroke: #f5deb3; stroke-width: 4; stroke-linecap: square"/>
    <g>
     <use xlink:href="#mac6eb67f76" x="360.8064" y="27.648" style="fill: #f5deb3; stroke: #f5deb3; stroke-width: 1.5; stroke-linejoin: miter"/>
     <use xlink:href="#mac6eb67f76" x="380.514816" y="33.07392" style="fill: #f5deb3; stroke: #f5deb3; stroke-width: 1.5; stroke-linejoin: miter"/>
    </g>
   </g>
   <g id="matplotlib.axis_1">
    <g id="xtick_1">
     <g id="line2d_5">
      <path d="M 57.6 298.944 
L 57.6 27.648 
" clip-path="url(#p956c665cd5)" style="fill: none; stroke: #b0b0b0; stroke-width: 0.8; stroke-linecap: square"/>
     </g>
     <g id="line2d_6">
      <defs>
       <path id="m14e7b12ddf" d="M 0 0 
L 0 3.5 
" style="stroke: #000000; stroke-width: 0.8"/>
      </defs>
      <g>
       <use xlink:href="#m14e7b12ddf" x="57.6" y="298.944" style="stroke: #000000; stroke-width: 0.8"/>
      </g>
     </g>
     <g id="text_1">
      <!-- 0 -->
      <g transform="translate(52.191875 318.861344)scale(0.17 -0.17)">
       <defs>
        <path id="DejaVuSans-30" d="M 2034 4250 
Q 1547 4250 1301 3770 
Q 1056 3291 1056 2328 
Q 1056 1369 1301 889 
Q 1547 409 2034 409 
Q 2525 409 2770 889 
Q 3016 1369 3016 2328 
Q 3016 3291 2770 3770 
Q 2525 4250 2034 4250 
z
M 2034 4750 
Q 2819 4750 3233 4129 
Q 3647 3509 3647 2328 
Q 3647 1150 3233 529 
Q 2819 -91 2034 -91 
Q 1250 -91 836 529 
Q 422 1150 422 2328 
Q 422 3509 836 4129 
Q 1250 4750 2034 4750 
z
" transform="scale(0.015625)"/>
       </defs>
       <use xlink:href="#DejaVuSans-30"/>
      </g>
     </g>
    </g>
    <g id="xtick_2">
     <g id="line2d_7">
      <path d="M 144.2304 298.944 
L 144.2304 27.648 
" clip-path="url(#p956c665cd5)" style="fill: none; stroke: #b0b0b0; stroke-width: 0.8; stroke-linecap: square"/>
     </g>
     <g id="line2d_8">
      <g>
       <use xlink:href="#m14e7b12ddf" x="144.2304" y="298.944" style="stroke: #000000; stroke-width: 0.8"/>
      </g>
     </g>
     <g id="text_2">
      <!-- 2 -->
      <g transform="translate(138.822275 318.861344)scale(0.17 -0.17)">
       <defs>
        <path id="DejaVuSans-32" d="M 1228 531 
L 3431 531 
L 3431 0 
L 469 0 
L 469 531 
Q 828 903 1448 1529 
Q 2069 2156 2228 2338 
Q 2531 2678 2651 2914 
Q 2772 3150 2772 3378 
Q 2772 3750 2511 3984 
Q 2250 4219 1831 4219 
Q 1534 4219 1204 4116 
Q 875 4013 500 3803 
L 500 4441 
Q 881 4594 1212 4672 
Q 1544 4750 1819 4750 
Q 2544 4750 2975 4387 
Q 3406 4025 3406 3419 
Q 3406 3131 3298 2873 
Q 3191 2616 2906 2266 
Q 2828 2175 2409 1742 
Q 1991 1309 1228 531 
z
" transform="scale(0.015625)"/>
       </defs>
       <use xlink:href="#DejaVuSans-32"/>
      </g>
     </g>
    </g>
    <g id="xtick_3">
     <g id="line2d_9">
      <path d="M 230.8608 298.944 
L 230.8608 27.648 
" clip-path="url(#p956c665cd5)" style="fill: none; stroke: #b0b0b0; stroke-width: 0.8; stroke-linecap: square"/>
     </g>
     <g id="line2d_10">
      <g>
       <use xlink:href="#m14e7b12ddf" x="230.8608" y="298.944" style="stroke: #000000; stroke-width: 0.8"/>
      </g>
     </g>
     <g id="text_3">
      <!-- 4 -->
      <g transform="translate(225.452675 318.861344)scale(0.17 -0.17)">
       <defs>
        <path id="DejaVuSans-34" d="M 2419 4116 
L 825 1625 
L 2419 1625 
L 2419 4116 
z
M 2253 4666 
L 3047 4666 
L 3047 1625 
L 3713 1625 
L 3713 1100 
L 3047 1100 
L 3047 0 
L 2419 0 
L 2419 1100 
L 313 1100 
L 313 1709 
L 2253 4666 
z
" transform="scale(0.015625)"/>
       </defs>
       <use xlink:href="#DejaVuSans-34"/>
      </g>
     </g>
    </g>
    <g id="xtick_4">
     <g id="line2d_11">
      <path d="M 317.4912 298.944 
L 317.4912 27.648 
" clip-path="url(#p956c665cd5)" style="fill: none; stroke: #b0b0b0; stroke-width: 0.8; stroke-linecap: square"/>
     </g>
     <g id="line2d_12">
      <g>
       <use xlink:href="#m14e7b12ddf" x="317.4912" y="298.944" style="stroke: #000000; stroke-width: 0.8"/>
      </g>
     </g>
     <g id="text_4">
      <!-- 6 -->
      <g transform="translate(312.083075 318.861344)scale(0.17 -0.17)">
       <defs>
        <path id="DejaVuSans-36" d="M 2113 2584 
Q 1688 2584 1439 2293 
Q 1191 2003 1191 1497 
Q 1191 994 1439 701 
Q 1688 409 2113 409 
Q 2538 409 2786 701 
Q 3034 994 3034 1497 
Q 3034 2003 2786 2293 
Q 2538 2584 2113 2584 
z
M 3366 4563 
L 3366 3988 
Q 3128 4100 2886 4159 
Q 2644 4219 2406 4219 
Q 1781 4219 1451 3797 
Q 1122 3375 1075 2522 
Q 1259 2794 1537 2939 
Q 1816 3084 2150 3084 
Q 2853 3084 3261 2657 
Q 3669 2231 3669 1497 
Q 3669 778 3244 343 
Q 2819 -91 2113 -91 
Q 1303 -91 875 529 
Q 447 1150 447 2328 
Q 447 3434 972 4092 
Q 1497 4750 2381 4750 
Q 2619 4750 2861 4703 
Q 3103 4656 3366 4563 
z
" transform="scale(0.015625)"/>
       </defs>
       <use xlink:href="#DejaVuSans-36"/>
      </g>
     </g>
    </g>
    <g id="xtick_5">
     <g id="line2d_13">
      <path d="M 100.9152 298.944 
L 100.9152 27.648 
" clip-path="url(#p956c665cd5)" style="fill: none; stroke: #b0b0b0; stroke-width: 0.8; stroke-linecap: square"/>
     </g>
     <g id="line2d_14">
      <defs>
       <path id="mde3a1a7323" d="M 0 0 
L 0 2 
" style="stroke: #000000; stroke-width: 0.6"/>
      </defs>
      <g>
       <use xlink:href="#mde3a1a7323" x="100.9152" y="298.944" style="stroke: #000000; stroke-width: 0.6"/>
      </g>
     </g>
    </g>
    <g id="xtick_6">
     <g id="line2d_15">
      <path d="M 187.5456 298.944 
L 187.5456 27.648 
" clip-path="url(#p956c665cd5)" style="fill: none; stroke: #b0b0b0; stroke-width: 0.8; stroke-linecap: square"/>
     </g>
     <g id="line2d_16">
      <g>
       <use xlink:href="#mde3a1a7323" x="187.5456" y="298.944" style="stroke: #000000; stroke-width: 0.6"/>
      </g>
     </g>
    </g>
    <g id="xtick_7">
     <g id="line2d_17">
      <path d="M 274.176 298.944 
L 274.176 27.648 
" clip-path="url(#p956c665cd5)" style="fill: none; stroke: #b0b0b0; stroke-width: 0.8; stroke-linecap: square"/>
     </g>
     <g id="line2d_18">
      <g>
       <use xlink:href="#mde3a1a7323" x="274.176" y="298.944" style="stroke: #000000; stroke-width: 0.6"/>
      </g>
     </g>
    </g>
    <g id="xtick_8">
     <g id="line2d_19">
      <path d="M 360.8064 298.944 
L 360.8064 27.648 
" clip-path="url(#p956c665cd5)" style="fill: none; stroke: #b0b0b0; stroke-width: 0.8; stroke-linecap: square"/>
     </g>
     <g id="line2d_20">
      <g>
       <use xlink:href="#mde3a1a7323" x="360.8064" y="298.944" style="stroke: #000000; stroke-width: 0.6"/>
      </g>
     </g>
    </g>
    <g id="text_5">
     <!-- log10(# f-evals / dimension) -->
     <g transform="translate(88.823278 339.314156)scale(0.17 -0.17)">
      <defs>
       <path id="DejaVuSans-6c" d="M 603 4863 
L 1178 4863 
L 1178 0 
L 603 0 
L 603 4863 
z
" transform="scale(0.015625)"/>
       <path id="DejaVuSans-6f" d="M 1959 3097 
Q 1497 3097 1228 2736 
Q 959 2375 959 1747 
Q 959 1119 1226 758 
Q 1494 397 1959 397 
Q 2419 397 2687 759 
Q 2956 1122 2956 1747 
Q 2956 2369 2687 2733 
Q 2419 3097 1959 3097 
z
M 1959 3584 
Q 2709 3584 3137 3096 
Q 3566 2609 3566 1747 
Q 3566 888 3137 398 
Q 2709 -91 1959 -91 
Q 1206 -91 779 398 
Q 353 888 353 1747 
Q 353 2609 779 3096 
Q 1206 3584 1959 3584 
z
" transform="scale(0.015625)"/>
       <path id="DejaVuSans-67" d="M 2906 1791 
Q 2906 2416 2648 2759 
Q 2391 3103 1925 3103 
Q 1463 3103 1205 2759 
Q 947 2416 947 1791 
Q 947 1169 1205 825 
Q 1463 481 1925 481 
Q 2391 481 2648 825 
Q 2906 1169 2906 1791 
z
M 3481 434 
Q 3481 -459 3084 -895 
Q 2688 -1331 1869 -1331 
Q 1566 -1331 1297 -1286 
Q 1028 -1241 775 -1147 
L 775 -588 
Q 1028 -725 1275 -790 
Q 1522 -856 1778 -856 
Q 2344 -856 2625 -561 
Q 2906 -266 2906 331 
L 2906 616 
Q 2728 306 2450 153 
Q 2172 0 1784 0 
Q 1141 0 747 490 
Q 353 981 353 1791 
Q 353 2603 747 3093 
Q 1141 3584 1784 3584 
Q 2172 3584 2450 3431 
Q 2728 3278 2906 2969 
L 2906 3500 
L 3481 3500 
L 3481 434 
z
" transform="scale(0.015625)"/>
       <path id="DejaVuSans-31" d="M 794 531 
L 1825 531 
L 1825 4091 
L 703 3866 
L 703 4441 
L 1819 4666 
L 2450 4666 
L 2450 531 
L 3481 531 
L 3481 0 
L 794 0 
L 794 531 
z
" transform="scale(0.015625)"/>
       <path id="DejaVuSans-28" d="M 1984 4856 
Q 1566 4138 1362 3434 
Q 1159 2731 1159 2009 
Q 1159 1288 1364 580 
Q 1569 -128 1984 -844 
L 1484 -844 
Q 1016 -109 783 600 
Q 550 1309 550 2009 
Q 550 2706 781 3412 
Q 1013 4119 1484 4856 
L 1984 4856 
z
" transform="scale(0.015625)"/>
       <path id="DejaVuSans-23" d="M 3272 2816 
L 2363 2816 
L 2100 1772 
L 3016 1772 
L 3272 2816 
z
M 2803 4594 
L 2478 3297 
L 3391 3297 
L 3719 4594 
L 4219 4594 
L 3897 3297 
L 4872 3297 
L 4872 2816 
L 3775 2816 
L 3519 1772 
L 4513 1772 
L 4513 1294 
L 3397 1294 
L 3072 0 
L 2572 0 
L 2894 1294 
L 1978 1294 
L 1656 0 
L 1153 0 
L 1478 1294 
L 494 1294 
L 494 1772 
L 1594 1772 
L 1856 2816 
L 850 2816 
L 850 3297 
L 1978 3297 
L 2297 4594 
L 2803 4594 
z
" transform="scale(0.015625)"/>
       <path id="DejaVuSans-20" transform="scale(0.015625)"/>
       <path id="DejaVuSans-66" d="M 2375 4863 
L 2375 4384 
L 1825 4384 
Q 1516 4384 1395 4259 
Q 1275 4134 1275 3809 
L 1275 3500 
L 2222 3500 
L 2222 3053 
L 1275 3053 
L 1275 0 
L 697 0 
L 697 3053 
L 147 3053 
L 147 3500 
L 697 3500 
L 697 3744 
Q 697 4328 969 4595 
Q 1241 4863 1831 4863 
L 2375 4863 
z
" transform="scale(0.015625)"/>
       <path id="DejaVuSans-2d" d="M 313 2009 
L 1997 2009 
L 1997 1497 
L 313 1497 
L 313 2009 
z
" transform="scale(0.015625)"/>
       <path id="DejaVuSans-65" d="M 3597 1894 
L 3597 1613 
L 953 1613 
Q 991 1019 1311 708 
Q 1631 397 2203 397 
Q 2534 397 2845 478 
Q 3156 559 3463 722 
L 3463 178 
Q 3153 47 2828 -22 
Q 2503 -91 2169 -91 
Q 1331 -91 842 396 
Q 353 884 353 1716 
Q 353 2575 817 3079 
Q 1281 3584 2069 3584 
Q 2775 3584 3186 3129 
Q 3597 2675 3597 1894 
z
M 3022 2063 
Q 3016 2534 2758 2815 
Q 2500 3097 2075 3097 
Q 1594 3097 1305 2825 
Q 1016 2553 972 2059 
L 3022 2063 
z
" transform="scale(0.015625)"/>
       <path id="DejaVuSans-76" d="M 191 3500 
L 800 3500 
L 1894 563 
L 2988 3500 
L 3597 3500 
L 2284 0 
L 1503 0 
L 191 3500 
z
" transform="scale(0.015625)"/>
       <path id="DejaVuSans-61" d="M 2194 1759 
Q 1497 1759 1228 1600 
Q 959 1441 959 1056 
Q 959 750 1161 570 
Q 1363 391 1709 391 
Q 2188 391 2477 730 
Q 2766 1069 2766 1631 
L 2766 1759 
L 2194 1759 
z
M 3341 1997 
L 3341 0 
L 2766 0 
L 2766 531 
Q 2569 213 2275 61 
Q 1981 -91 1556 -91 
Q 1019 -91 701 211 
Q 384 513 384 1019 
Q 384 1609 779 1909 
Q 1175 2209 1959 2209 
L 2766 2209 
L 2766 2266 
Q 2766 2663 2505 2880 
Q 2244 3097 1772 3097 
Q 1472 3097 1187 3025 
Q 903 2953 641 2809 
L 641 3341 
Q 956 3463 1253 3523 
Q 1550 3584 1831 3584 
Q 2591 3584 2966 3190 
Q 3341 2797 3341 1997 
z
" transform="scale(0.015625)"/>
       <path id="DejaVuSans-73" d="M 2834 3397 
L 2834 2853 
Q 2591 2978 2328 3040 
Q 2066 3103 1784 3103 
Q 1356 3103 1142 2972 
Q 928 2841 928 2578 
Q 928 2378 1081 2264 
Q 1234 2150 1697 2047 
L 1894 2003 
Q 2506 1872 2764 1633 
Q 3022 1394 3022 966 
Q 3022 478 2636 193 
Q 2250 -91 1575 -91 
Q 1294 -91 989 -36 
Q 684 19 347 128 
L 347 722 
Q 666 556 975 473 
Q 1284 391 1588 391 
Q 1994 391 2212 530 
Q 2431 669 2431 922 
Q 2431 1156 2273 1281 
Q 2116 1406 1581 1522 
L 1381 1569 
Q 847 1681 609 1914 
Q 372 2147 372 2553 
Q 372 3047 722 3315 
Q 1072 3584 1716 3584 
Q 2034 3584 2315 3537 
Q 2597 3491 2834 3397 
z
" transform="scale(0.015625)"/>
       <path id="DejaVuSans-2f" d="M 1625 4666 
L 2156 4666 
L 531 -594 
L 0 -594 
L 1625 4666 
z
" transform="scale(0.015625)"/>
       <path id="DejaVuSans-64" d="M 2906 2969 
L 2906 4863 
L 3481 4863 
L 3481 0 
L 2906 0 
L 2906 525 
Q 2725 213 2448 61 
Q 2172 -91 1784 -91 
Q 1150 -91 751 415 
Q 353 922 353 1747 
Q 353 2572 751 3078 
Q 1150 3584 1784 3584 
Q 2172 3584 2448 3432 
Q 2725 3281 2906 2969 
z
M 947 1747 
Q 947 1113 1208 752 
Q 1469 391 1925 391 
Q 2381 391 2643 752 
Q 2906 1113 2906 1747 
Q 2906 2381 2643 2742 
Q 2381 3103 1925 3103 
Q 1469 3103 1208 2742 
Q 947 2381 947 1747 
z
" transform="scale(0.015625)"/>
       <path id="DejaVuSans-69" d="M 603 3500 
L 1178 3500 
L 1178 0 
L 603 0 
L 603 3500 
z
M 603 4863 
L 1178 4863 
L 1178 4134 
L 603 4134 
L 603 4863 
z
" transform="scale(0.015625)"/>
       <path id="DejaVuSans-6d" d="M 3328 2828 
Q 3544 3216 3844 3400 
Q 4144 3584 4550 3584 
Q 5097 3584 5394 3201 
Q 5691 2819 5691 2113 
L 5691 0 
L 5113 0 
L 5113 2094 
Q 5113 2597 4934 2840 
Q 4756 3084 4391 3084 
Q 3944 3084 3684 2787 
Q 3425 2491 3425 1978 
L 3425 0 
L 2847 0 
L 2847 2094 
Q 2847 2600 2669 2842 
Q 2491 3084 2119 3084 
Q 1678 3084 1418 2786 
Q 1159 2488 1159 1978 
L 1159 0 
L 581 0 
L 581 3500 
L 1159 3500 
L 1159 2956 
Q 1356 3278 1631 3431 
Q 1906 3584 2284 3584 
Q 2666 3584 2933 3390 
Q 3200 3197 3328 2828 
z
" transform="scale(0.015625)"/>
       <path id="DejaVuSans-6e" d="M 3513 2113 
L 3513 0 
L 2938 0 
L 2938 2094 
Q 2938 2591 2744 2837 
Q 2550 3084 2163 3084 
Q 1697 3084 1428 2787 
Q 1159 2491 1159 1978 
L 1159 0 
L 581 0 
L 581 3500 
L 1159 3500 
L 1159 2956 
Q 1366 3272 1645 3428 
Q 1925 3584 2291 3584 
Q 2894 3584 3203 3211 
Q 3513 2838 3513 2113 
z
" transform="scale(0.015625)"/>
       <path id="DejaVuSans-29" d="M 513 4856 
L 1013 4856 
Q 1481 4119 1714 3412 
Q 1947 2706 1947 2009 
Q 1947 1309 1714 600 
Q 1481 -109 1013 -844 
L 513 -844 
Q 928 -128 1133 580 
Q 1338 1288 1338 2009 
Q 1338 2731 1133 3434 
Q 928 4138 513 4856 
z
" transform="scale(0.015625)"/>
      </defs>
      <use xlink:href="#DejaVuSans-6c"/>
      <use xlink:href="#DejaVuSans-6f" x="27.783203"/>
      <use xlink:href="#DejaVuSans-67" x="88.964844"/>
      <use xlink:href="#DejaVuSans-31" x="152.441406"/>
      <use xlink:href="#DejaVuSans-30" x="216.064453"/>
      <use xlink:href="#DejaVuSans-28" x="279.6875"/>
      <use xlink:href="#DejaVuSans-23" x="318.701172"/>
      <use xlink:href="#DejaVuSans-20" x="402.490234"/>
      <use xlink:href="#DejaVuSans-66" x="434.277344"/>
      <use xlink:href="#DejaVuSans-2d" x="463.982422"/>
      <use xlink:href="#DejaVuSans-65" x="500.066406"/>
      <use xlink:href="#DejaVuSans-76" x="561.589844"/>
      <use xlink:href="#DejaVuSans-61" x="620.769531"/>
      <use xlink:href="#DejaVuSans-6c" x="682.048828"/>
      <use xlink:href="#DejaVuSans-73" x="709.832031"/>
      <use xlink:href="#DejaVuSans-20" x="761.931641"/>
      <use xlink:href="#DejaVuSans-2f" x="793.71875"/>
      <use xlink:href="#DejaVuSans-20" x="827.410156"/>
      <use xlink:href="#DejaVuSans-64" x="859.197266"/>
      <use xlink:href="#DejaVuSans-69" x="922.673828"/>
      <use xlink:href="#DejaVuSans-6d" x="950.457031"/>
      <use xlink:href="#DejaVuSans-65" x="1047.869141"/>
      <use xlink:href="#DejaVuSans-6e" x="1109.392578"/>
      <use xlink:href="#DejaVuSans-73" x="1172.771484"/>
      <use xlink:href="#DejaVuSans-69" x="1224.871094"/>
      <use xlink:href="#DejaVuSans-6f" x="1252.654297"/>
      <use xlink:href="#DejaVuSans-6e" x="1313.835938"/>
      <use xlink:href="#DejaVuSans-29" x="1377.214844"/>
     </g>
    </g>
   </g>
   <g id="matplotlib.axis_2">
    <g id="ytick_1">
     <g id="line2d_21">
      <path d="M 57.6 298.944 
L 360.8064 298.944 
" clip-path="url(#p956c665cd5)" style="fill: none; stroke: #b0b0b0; stroke-width: 0.8; stroke-linecap: square"/>
     </g>
     <g id="line2d_22">
      <defs>
       <path id="m9478ed9094" d="M 0 0 
L -3.5 0 
" style="stroke: #000000; stroke-width: 0.8"/>
      </defs>
      <g>
       <use xlink:href="#m9478ed9094" x="57.6" y="298.944" style="stroke: #000000; stroke-width: 0.8"/>
      </g>
     </g>
     <g id="text_6">
      <!-- 0.0 -->
      <g transform="translate(25.155 305.02275)scale(0.16 -0.16)">
       <defs>
        <path id="DejaVuSans-2e" d="M 684 794 
L 1344 794 
L 1344 0 
L 684 0 
L 684 794 
z
" transform="scale(0.015625)"/>
       </defs>
       <use xlink:href="#DejaVuSans-30"/>
       <use xlink:href="#DejaVuSans-2e" x="63.623047"/>
       <use xlink:href="#DejaVuSans-30" x="95.410156"/>
      </g>
     </g>
    </g>
    <g id="ytick_2">
     <g id="line2d_23">
      <path d="M 57.6 244.6848 
L 360.8064 244.6848 
" clip-path="url(#p956c665cd5)" style="fill: none; stroke: #b0b0b0; stroke-width: 0.8; stroke-linecap: square"/>
     </g>
     <g id="line2d_24">
      <g>
       <use xlink:href="#m9478ed9094" x="57.6" y="244.6848" style="stroke: #000000; stroke-width: 0.8"/>
      </g>
     </g>
     <g id="text_7">
      <!-- 0.2 -->
      <g transform="translate(25.155 250.76355)scale(0.16 -0.16)">
       <use xlink:href="#DejaVuSans-30"/>
       <use xlink:href="#DejaVuSans-2e" x="63.623047"/>
       <use xlink:href="#DejaVuSans-32" x="95.410156"/>
      </g>
     </g>
    </g>
    <g id="ytick_3">
     <g id="line2d_25">
      <path d="M 57.6 190.4256 
L 360.8064 190.4256 
" clip-path="url(#p956c665cd5)" style="fill: none; stroke: #b0b0b0; stroke-width: 0.8; stroke-linecap: square"/>
     </g>
     <g id="line2d_26">
      <g>
       <use xlink:href="#m9478ed9094" x="57.6" y="190.4256" style="stroke: #000000; stroke-width: 0.8"/>
      </g>
     </g>
     <g id="text_8">
      <!-- 0.4 -->
      <g transform="translate(25.155 196.50435)scale(0.16 -0.16)">
       <use xlink:href="#DejaVuSans-30"/>
       <use xlink:href="#DejaVuSans-2e" x="63.623047"/>
       <use xlink:href="#DejaVuSans-34" x="95.410156"/>
      </g>
     </g>
    </g>
    <g id="ytick_4">
     <g id="line2d_27">
      <path d="M 57.6 136.1664 
L 360.8064 136.1664 
" clip-path="url(#p956c665cd5)" style="fill: none; stroke: #b0b0b0; stroke-width: 0.8; stroke-linecap: square"/>
     </g>
     <g id="line2d_28">
      <g>
       <use xlink:href="#m9478ed9094" x="57.6" y="136.1664" style="stroke: #000000; stroke-width: 0.8"/>
      </g>
     </g>
     <g id="text_9">
      <!-- 0.6 -->
      <g transform="translate(25.155 142.24515)scale(0.16 -0.16)">
       <use xlink:href="#DejaVuSans-30"/>
       <use xlink:href="#DejaVuSans-2e" x="63.623047"/>
       <use xlink:href="#DejaVuSans-36" x="95.410156"/>
      </g>
     </g>
    </g>
    <g id="ytick_5">
     <g id="line2d_29">
      <path d="M 57.6 81.9072 
L 360.8064 81.9072 
" clip-path="url(#p956c665cd5)" style="fill: none; stroke: #b0b0b0; stroke-width: 0.8; stroke-linecap: square"/>
     </g>
     <g id="line2d_30">
      <g>
       <use xlink:href="#m9478ed9094" x="57.6" y="81.9072" style="stroke: #000000; stroke-width: 0.8"/>
      </g>
     </g>
     <g id="text_10">
      <!-- 0.8 -->
      <g transform="translate(25.155 87.98595)scale(0.16 -0.16)">
       <defs>
        <path id="DejaVuSans-38" d="M 2034 2216 
Q 1584 2216 1326 1975 
Q 1069 1734 1069 1313 
Q 1069 891 1326 650 
Q 1584 409 2034 409 
Q 2484 409 2743 651 
Q 3003 894 3003 1313 
Q 3003 1734 2745 1975 
Q 2488 2216 2034 2216 
z
M 1403 2484 
Q 997 2584 770 2862 
Q 544 3141 544 3541 
Q 544 4100 942 4425 
Q 1341 4750 2034 4750 
Q 2731 4750 3128 4425 
Q 3525 4100 3525 3541 
Q 3525 3141 3298 2862 
Q 3072 2584 2669 2484 
Q 3125 2378 3379 2068 
Q 3634 1759 3634 1313 
Q 3634 634 3220 271 
Q 2806 -91 2034 -91 
Q 1263 -91 848 271 
Q 434 634 434 1313 
Q 434 1759 690 2068 
Q 947 2378 1403 2484 
z
M 1172 3481 
Q 1172 3119 1398 2916 
Q 1625 2713 2034 2713 
Q 2441 2713 2670 2916 
Q 2900 3119 2900 3481 
Q 2900 3844 2670 4047 
Q 2441 4250 2034 4250 
Q 1625 4250 1398 4047 
Q 1172 3844 1172 3481 
z
" transform="scale(0.015625)"/>
       </defs>
       <use xlink:href="#DejaVuSans-30"/>
       <use xlink:href="#DejaVuSans-2e" x="63.623047"/>
       <use xlink:href="#DejaVuSans-38" x="95.410156"/>
      </g>
     </g>
    </g>
    <g id="ytick_6">
     <g id="line2d_31">
      <path d="M 57.6 27.648 
L 360.8064 27.648 
" clip-path="url(#p956c665cd5)" style="fill: none; stroke: #b0b0b0; stroke-width: 0.8; stroke-linecap: square"/>
     </g>
     <g id="line2d_32">
      <g>
       <use xlink:href="#m9478ed9094" x="57.6" y="27.648" style="stroke: #000000; stroke-width: 0.8"/>
      </g>
     </g>
     <g id="text_11">
      <!-- 1.0 -->
      <g transform="translate(25.155 33.72675)scale(0.16 -0.16)">
       <use xlink:href="#DejaVuSans-31"/>
       <use xlink:href="#DejaVuSans-2e" x="63.623047"/>
       <use xlink:href="#DejaVuSans-30" x="95.410156"/>
      </g>
     </g>
    </g>
    <g id="text_12">
     <!-- Fraction of function,target pairs -->
     <g transform="translate(17.619531 297.681)rotate(-90)scale(0.17 -0.17)">
      <defs>
       <path id="DejaVuSans-46" d="M 628 4666 
L 3309 4666 
L 3309 4134 
L 1259 4134 
L 1259 2759 
L 3109 2759 
L 3109 2228 
L 1259 2228 
L 1259 0 
L 628 0 
L 628 4666 
z
" transform="scale(0.015625)"/>
       <path id="DejaVuSans-72" d="M 2631 2963 
Q 2534 3019 2420 3045 
Q 2306 3072 2169 3072 
Q 1681 3072 1420 2755 
Q 1159 2438 1159 1844 
L 1159 0 
L 581 0 
L 581 3500 
L 1159 3500 
L 1159 2956 
Q 1341 3275 1631 3429 
Q 1922 3584 2338 3584 
Q 2397 3584 2469 3576 
Q 2541 3569 2628 3553 
L 2631 2963 
z
" transform="scale(0.015625)"/>
       <path id="DejaVuSans-63" d="M 3122 3366 
L 3122 2828 
Q 2878 2963 2633 3030 
Q 2388 3097 2138 3097 
Q 1578 3097 1268 2742 
Q 959 2388 959 1747 
Q 959 1106 1268 751 
Q 1578 397 2138 397 
Q 2388 397 2633 464 
Q 2878 531 3122 666 
L 3122 134 
Q 2881 22 2623 -34 
Q 2366 -91 2075 -91 
Q 1284 -91 818 406 
Q 353 903 353 1747 
Q 353 2603 823 3093 
Q 1294 3584 2113 3584 
Q 2378 3584 2631 3529 
Q 2884 3475 3122 3366 
z
" transform="scale(0.015625)"/>
       <path id="DejaVuSans-74" d="M 1172 4494 
L 1172 3500 
L 2356 3500 
L 2356 3053 
L 1172 3053 
L 1172 1153 
Q 1172 725 1289 603 
Q 1406 481 1766 481 
L 2356 481 
L 2356 0 
L 1766 0 
Q 1100 0 847 248 
Q 594 497 594 1153 
L 594 3053 
L 172 3053 
L 172 3500 
L 594 3500 
L 594 4494 
L 1172 4494 
z
" transform="scale(0.015625)"/>
       <path id="DejaVuSans-75" d="M 544 1381 
L 544 3500 
L 1119 3500 
L 1119 1403 
Q 1119 906 1312 657 
Q 1506 409 1894 409 
Q 2359 409 2629 706 
Q 2900 1003 2900 1516 
L 2900 3500 
L 3475 3500 
L 3475 0 
L 2900 0 
L 2900 538 
Q 2691 219 2414 64 
Q 2138 -91 1772 -91 
Q 1169 -91 856 284 
Q 544 659 544 1381 
z
M 1991 3584 
L 1991 3584 
z
" transform="scale(0.015625)"/>
       <path id="DejaVuSans-2c" d="M 750 794 
L 1409 794 
L 1409 256 
L 897 -744 
L 494 -744 
L 750 256 
L 750 794 
z
" transform="scale(0.015625)"/>
       <path id="DejaVuSans-70" d="M 1159 525 
L 1159 -1331 
L 581 -1331 
L 581 3500 
L 1159 3500 
L 1159 2969 
Q 1341 3281 1617 3432 
Q 1894 3584 2278 3584 
Q 2916 3584 3314 3078 
Q 3713 2572 3713 1747 
Q 3713 922 3314 415 
Q 2916 -91 2278 -91 
Q 1894 -91 1617 61 
Q 1341 213 1159 525 
z
M 3116 1747 
Q 3116 2381 2855 2742 
Q 2594 3103 2138 3103 
Q 1681 3103 1420 2742 
Q 1159 2381 1159 1747 
Q 1159 1113 1420 752 
Q 1681 391 2138 391 
Q 2594 391 2855 752 
Q 3116 1113 3116 1747 
z
" transform="scale(0.015625)"/>
      </defs>
      <use xlink:href="#DejaVuSans-46"/>
      <use xlink:href="#DejaVuSans-72" x="50.269531"/>
      <use xlink:href="#DejaVuSans-61" x="91.382812"/>
      <use xlink:href="#DejaVuSans-63" x="152.662109"/>
      <use xlink:href="#DejaVuSans-74" x="207.642578"/>
      <use xlink:href="#DejaVuSans-69" x="246.851562"/>
      <use xlink:href="#DejaVuSans-6f" x="274.634766"/>
      <use xlink:href="#DejaVuSans-6e" x="335.816406"/>
      <use xlink:href="#DejaVuSans-20" x="399.195312"/>
      <use xlink:href="#DejaVuSans-6f" x="430.982422"/>
      <use xlink:href="#DejaVuSans-66" x="492.164062"/>
      <use xlink:href="#DejaVuSans-20" x="527.369141"/>
      <use xlink:href="#DejaVuSans-66" x="559.15625"/>
      <use xlink:href="#DejaVuSans-75" x="594.361328"/>
      <use xlink:href="#DejaVuSans-6e" x="657.740234"/>
      <use xlink:href="#DejaVuSans-63" x="721.119141"/>
      <use xlink:href="#DejaVuSans-74" x="776.099609"/>
      <use xlink:href="#DejaVuSans-69" x="815.308594"/>
      <use xlink:href="#DejaVuSans-6f" x="843.091797"/>
      <use xlink:href="#DejaVuSans-6e" x="904.273438"/>
      <use xlink:href="#DejaVuSans-2c" x="967.652344"/>
      <use xlink:href="#DejaVuSans-74" x="999.439453"/>
      <use xlink:href="#DejaVuSans-61" x="1038.648438"/>
      <use xlink:href="#DejaVuSans-72" x="1099.927734"/>
      <use xlink:href="#DejaVuSans-67" x="1139.291016"/>
      <use xlink:href="#DejaVuSans-65" x="1202.767578"/>
      <use xlink:href="#DejaVuSans-74" x="1264.291016"/>
      <use xlink:href="#DejaVuSans-20" x="1303.5"/>
      <use xlink:href="#DejaVuSans-70" x="1335.287109"/>
      <use xlink:href="#DejaVuSans-61" x="1398.763672"/>
      <use xlink:href="#DejaVuSans-69" x="1460.042969"/>
      <use xlink:href="#DejaVuSans-72" x="1487.826172"/>
      <use xlink:href="#DejaVuSans-73" x="1528.939453"/>
     </g>
    </g>
   </g>
   <g id="line2d_33">
    <defs>
     <path id="m4bd01f9e3d" d="M 0 1.5 
C 0.397805 1.5 0.77937 1.341951 1.06066 1.06066 
C 1.341951 0.77937 1.5 0.397805 1.5 0 
C 1.5 -0.397805 1.341951 -0.77937 1.06066 -1.06066 
C 0.77937 -1.341951 0.397805 -1.5 0 -1.5 
C -0.397805 -1.5 -0.77937 -1.341951 -1.06066 -1.06066 
C -1.341951 -0.77937 -1.5 -0.397805 -1.5 0 
C -1.5 0.397805 -1.341951 0.77937 -1.06066 1.06066 
C -0.77937 1.341951 -0.397805 1.5 0 1.5 
z
" style="stroke: #f5deb3"/>
    </defs>
    <g>
     <use xlink:href="#m4bd01f9e3d" x="136.555884" y="27.648" style="fill: #f5deb3; stroke: #f5deb3"/>
     <use xlink:href="#m4bd01f9e3d" x="136.555884" y="27.648" style="fill: #f5deb3; stroke: #f5deb3"/>
    </g>
   </g>
   <g id="line2d_34">
    <defs>
     <path id="ma7ab4cf020" d="M 0 1.5 
C 0.397805 1.5 0.77937 1.341951 1.06066 1.06066 
C 1.341951 0.77937 1.5 0.397805 1.5 0 
C 1.5 -0.397805 1.341951 -0.77937 1.06066 -1.06066 
C 0.77937 -1.341951 0.397805 -1.5 0 -1.5 
C -0.397805 -1.5 -0.77937 -1.341951 -1.06066 -1.06066 
C -1.341951 -0.77937 -1.5 -0.397805 -1.5 0 
C -1.5 0.397805 -1.341951 0.77937 -1.06066 1.06066 
C -0.77937 1.341951 -0.397805 1.5 0 1.5 
z
" style="stroke: #000080"/>
    </defs>
    <g>
     <use xlink:href="#ma7ab4cf020" x="360.25719" y="27.648" style="fill: #000080; stroke: #000080"/>
     <use xlink:href="#ma7ab4cf020" x="360.25719" y="27.648" style="fill: #000080; stroke: #000080"/>
    </g>
   </g>
   <g id="line2d_35">
    <path d="M 57.6 298.944 
L 57.6 296.461553 
L 65.227428 296.461553 
L 65.227428 293.624471 
L 78.266603 293.624471 
L 78.266603 292.9152 
L 83.678349 292.9152 
L 83.678349 292.205929 
L 89.668958 292.205929 
L 89.668958 290.787388 
L 91.305777 290.787388 
L 91.305777 289.723482 
L 92.811505 289.723482 
L 92.811505 287.950306 
L 96.717523 287.950306 
L 96.717523 286.531765 
L 105.112877 286.531765 
L 105.112877 286.177129 
L 105.850679 286.177129 
L 105.850679 285.113224 
L 107.244765 285.113224 
L 107.244765 283.694682 
L 109.159456 283.694682 
L 109.159456 283.340047 
L 109.756698 283.340047 
L 109.756698 282.276141 
L 113.478107 282.276141 
L 113.478107 281.921506 
L 115.314838 281.921506 
L 115.314838 281.212235 
L 115.747307 281.212235 
L 115.747307 280.502965 
L 116.170056 280.502965 
L 116.170056 280.148329 
L 122.19863 280.148329 
L 122.19863 279.793694 
L 125.011554 279.793694 
L 125.011554 278.729788 
L 125.526971 278.729788 
L 125.526971 278.375153 
L 126.993549 278.375153 
L 126.993549 278.020518 
L 128.57149 278.020518 
L 128.57149 276.956612 
L 129.209231 276.956612 
L 129.209231 276.601976 
L 133.154399 276.601976 
L 133.154399 275.183435 
L 135.687504 275.183435 
L 135.687504 274.119529 
L 136.126705 274.119529 
L 136.126705 272.700988 
L 137.113304 272.700988 
L 137.113304 272.346353 
L 138.818654 272.346353 
L 138.818654 271.282447 
L 139.676658 271.282447 
L 139.676658 270.573176 
L 143.166224 270.573176 
L 143.166224 269.154635 
L 143.462475 269.154635 
L 143.462475 267.736094 
L 144.136106 267.736094 
L 144.136106 267.026824 
L 149.381693 267.026824 
L 149.381693 266.672188 
L 152.715833 266.672188 
L 152.715833 265.962918 
L 153.593669 265.962918 
L 153.593669 265.253647 
L 156.155566 265.253647 
L 156.155566 264.189741 
L 156.937458 264.189741 
L 156.937458 263.835106 
L 159.527013 263.835106 
L 159.527013 262.7712 
L 161.087207 262.7712 
L 161.087207 262.416565 
L 161.542347 262.416565 
L 161.542347 261.707294 
L 162.05979 261.707294 
L 162.05979 261.352659 
L 162.420867 261.352659 
L 162.420867 259.579482 
L 162.810208 259.579482 
L 162.915008 258.160941 
L 163.088387 258.160941 
L 163.088387 256.387765 
L 163.294355 256.387765 
L 163.328465 253.905318 
L 163.565517 253.905318 
L 163.565517 253.550682 
L 164.259262 253.550682 
L 164.291668 252.841412 
L 164.70794 252.841412 
L 164.70794 252.486776 
L 165.392072 252.486776 
L 165.392072 251.777506 
L 165.544147 251.777506 
L 165.544147 251.068235 
L 165.695002 251.068235 
L 165.725029 250.004329 
L 165.874446 250.004329 
L 165.874446 249.649694 
L 166.169767 249.649694 
L 166.257466 248.940424 
L 166.460523 248.940424 
L 166.460523 248.231153 
L 166.8036 248.231153 
L 166.8036 247.876518 
L 166.916583 247.876518 
L 166.972821 246.812612 
L 167.028891 246.812612 
L 167.112684 246.103341 
L 167.16834 246.103341 
L 167.16834 245.394071 
L 167.361848 245.394071 
L 167.361848 244.6848 
L 167.607754 244.6848 
L 167.661966 243.975529 
L 168.010586 243.975529 
L 168.010586 243.620894 
L 168.169334 243.620894 
L 168.169334 242.911624 
L 168.300609 242.911624 
L 168.300609 242.556988 
L 168.637696 242.556988 
L 168.663377 240.429176 
L 169.319074 240.429176 
L 169.319074 240.074541 
L 169.442591 240.074541 
L 169.442591 239.365271 
L 169.928705 239.365271 
L 169.928705 239.010635 
L 170.704306 239.010635 
L 170.704306 238.656 
L 170.93316 238.656 
L 170.93316 237.237459 
L 171.404878 237.237459 
L 171.404878 236.882824 
L 171.537509 236.882824 
L 171.537509 236.528188 
L 175.388379 236.528188 
L 175.388379 235.109647 
L 175.77919 235.109647 
L 175.77919 234.400376 
L 176.179266 234.400376 
L 176.265124 233.691106 
L 177.200883 233.691106 
L 177.200883 233.336471 
L 178.03 233.336471 
L 178.03 232.981835 
L 178.400683 232.981835 
L 178.400683 232.6272 
L 178.628705 232.6272 
L 178.628705 232.272565 
L 178.86892 232.272565 
L 178.86892 231.917929 
L 179.179617 231.917929 
L 179.179617 231.563294 
L 179.456369 231.563294 
L 179.456369 231.208659 
L 179.842775 231.208659 
L 179.842775 230.854024 
L 182.702072 230.854024 
L 182.702072 230.499388 
L 183.063612 230.499388 
L 183.063612 230.144753 
L 183.66272 230.144753 
L 183.75499 229.080847 
L 183.84681 229.080847 
L 183.938184 228.371576 
L 184.153434 228.371576 
L 184.153434 228.016941 
L 187.871955 228.016941 
L 187.871955 227.662306 
L 188.70374 227.662306 
L 188.70374 226.5984 
L 189.29573 226.5984 
L 189.29573 225.889129 
L 190.272631 225.889129 
L 190.272631 225.179859 
L 191.569409 225.179859 
L 191.569409 224.115953 
L 192.860689 224.115953 
L 192.860689 223.761318 
L 193.211923 223.761318 
L 193.211923 223.406682 
L 193.364413 223.406682 
L 193.364413 223.052047 
L 193.787622 223.052047 
L 193.787622 222.697412 
L 195.75949 222.697412 
L 195.82623 221.988141 
L 196.013051 221.988141 
L 196.013051 221.633506 
L 196.316422 221.633506 
L 196.316422 220.214965 
L 197.260074 220.214965 
L 197.327298 217.023247 
L 197.862051 217.023247 
L 197.862051 214.895435 
L 198.291925 214.895435 
L 198.291925 214.5408 
L 198.660172 214.5408 
L 198.660172 213.831529 
L 200.641125 213.831529 
L 200.641125 213.122259 
L 200.874117 213.122259 
L 200.961903 212.412988 
L 202.543711 212.412988 
L 202.543711 211.703718 
L 203.793768 211.703718 
L 203.793768 210.285176 
L 205.246957 210.285176 
L 205.246957 209.221271 
L 205.693102 209.221271 
L 205.75394 207.802729 
L 205.974169 207.802729 
L 205.974169 206.029553 
L 206.177881 206.029553 
L 206.177881 205.674918 
L 206.623207 205.674918 
L 206.623207 204.611012 
L 206.857146 204.611012 
L 206.857146 203.901741 
L 206.974708 203.901741 
L 206.974708 203.547106 
L 207.094868 203.547106 
L 207.144708 202.837835 
L 207.270384 202.837835 
L 207.270384 202.4832 
L 207.512737 202.4832 
L 207.512737 201.064659 
L 207.940619 201.064659 
L 207.940619 200.710024 
L 208.224739 200.710024 
L 208.2623 199.291482 
L 208.572422 199.291482 
L 208.572422 198.936847 
L 208.798664 198.936847 
L 208.88659 198.227576 
L 208.965072 198.227576 
L 209.037228 197.518306 
L 209.165819 197.518306 
L 209.266876 196.809035 
L 209.305373 196.809035 
L 209.305373 195.745129 
L 209.426272 195.745129 
L 209.426272 195.390494 
L 209.581414 195.390494 
L 209.581414 195.035859 
L 209.723717 195.035859 
L 209.78726 192.908047 
L 209.973756 192.908047 
L 209.973756 192.553412 
L 210.214879 192.553412 
L 210.310469 191.489506 
L 213.430136 191.489506 
L 213.430136 190.780235 
L 214.402406 190.780235 
L 214.402406 190.4256 
L 215.039018 190.4256 
L 215.039018 190.070965 
L 220.574675 190.070965 
L 220.574675 188.652424 
L 226.200116 188.652424 
L 226.200116 188.297788 
L 226.50847 188.297788 
L 226.50847 187.943153 
L 227.327299 187.943153 
L 227.344316 187.233882 
L 228.009364 187.233882 
L 228.078193 184.751435 
L 229.773718 184.751435 
L 229.773718 183.687529 
L 230.047751 183.687529 
L 230.047751 183.332894 
L 230.3604 183.332894 
L 230.3604 182.268988 
L 230.614646 182.268988 
L 230.685983 180.850447 
L 231.155699 180.850447 
L 231.155699 179.786541 
L 232.161673 179.786541 
L 232.161673 178.722635 
L 232.948968 178.722635 
L 233.019543 177.658729 
L 233.124911 177.658729 
L 233.124911 177.304094 
L 233.398111 177.304094 
L 233.398111 175.885553 
L 233.63821 175.885553 
L 233.744214 173.403106 
L 234.039632 173.403106 
L 234.039632 173.048471 
L 234.323443 173.048471 
L 234.323443 171.629929 
L 234.56754 171.629929 
L 234.653077 170.920659 
L 234.701453 170.920659 
L 234.70452 168.792847 
L 234.921028 168.792847 
L 234.921028 168.438212 
L 236.144664 168.438212 
L 236.214848 167.728941 
L 236.681684 167.728941 
L 236.778759 167.019671 
L 236.806893 167.019671 
L 236.806893 166.665035 
L 237.477723 166.665035 
L 237.509455 165.246494 
L 238.143981 165.246494 
L 238.200734 164.182588 
L 238.603253 164.182588 
L 238.603253 161.700141 
L 239.429323 161.700141 
L 239.429323 161.345506 
L 239.777394 161.345506 
L 239.798461 159.926965 
L 239.962674 159.926965 
L 239.962674 159.217694 
L 242.808905 159.217694 
L 242.858677 157.799153 
L 242.971665 157.799153 
L 243.041202 156.025976 
L 245.577547 156.025976 
L 245.623947 154.962071 
L 245.927861 154.962071 
L 245.927861 154.2528 
L 246.451663 154.2528 
L 246.451663 153.898165 
L 257.389886 153.898165 
L 257.413517 151.770353 
L 257.844422 151.770353 
L 257.845319 151.061082 
L 268.596967 151.061082 
L 268.608478 149.997176 
L 268.723954 149.997176 
L 268.82698 149.287906 
L 269.098988 149.287906 
L 269.200721 147.514729 
L 269.282518 147.514729 
L 269.345001 145.032282 
L 269.424237 145.032282 
L 269.453639 143.259106 
L 270.358102 143.259106 
L 270.458996 142.1952 
L 270.469766 142.1952 
L 270.571432 140.776659 
L 270.591472 140.776659 
L 270.683879 137.230306 
L 270.761404 137.230306 
L 270.86353 135.102494 
L 270.874631 135.102494 
L 270.880347 133.329318 
L 271.193642 133.329318 
L 271.193642 132.974682 
L 271.309125 132.974682 
L 271.396555 132.265412 
L 271.492587 132.265412 
L 271.546532 130.846871 
L 271.771683 130.846871 
L 271.840709 129.782965 
L 271.944781 129.782965 
L 271.944781 129.073694 
L 272.076695 129.073694 
L 272.172464 124.1088 
L 272.233155 124.1088 
L 272.291052 121.271718 
L 272.492505 121.271718 
L 272.598975 120.562447 
L 272.612778 120.562447 
L 272.672067 117.725365 
L 272.898013 117.725365 
L 273.006523 116.306824 
L 273.01853 116.306824 
L 273.061293 112.405835 
L 273.236225 112.405835 
L 273.244232 111.341929 
L 273.561856 111.341929 
L 273.561856 110.987294 
L 274.253625 110.987294 
L 274.253625 110.632659 
L 274.375005 110.632659 
L 274.392214 109.923388 
L 274.488669 109.923388 
L 274.588956 107.440941 
L 274.617 107.440941 
L 274.687614 105.667765 
L 274.742637 105.667765 
L 274.785757 102.830682 
L 274.944346 102.830682 
L 274.944346 102.476047 
L 275.234468 102.476047 
L 275.234468 102.121412 
L 275.673767 102.121412 
L 275.72685 100.702871 
L 275.872662 100.702871 
L 275.953107 98.929694 
L 276.239067 98.929694 
L 276.347066 95.383341 
L 276.352681 95.383341 
L 276.352681 91.836988 
L 276.590779 91.836988 
L 276.590779 91.127718 
L 276.820182 91.127718 
L 276.930594 90.418447 
L 277.436156 90.418447 
L 277.436156 89.709176 
L 277.904277 89.709176 
L 277.904277 88.999906 
L 280.635453 88.999906 
L 280.642324 85.098918 
L 280.76869 85.098918 
L 280.768955 83.680376 
L 284.63173 83.680376 
L 284.685981 82.261835 
L 284.847429 82.261835 
L 284.954332 79.424753 
L 284.988932 79.424753 
L 285.001791 78.360847 
L 285.50816 78.360847 
L 285.545663 77.296941 
L 286.051402 77.296941 
L 286.065655 76.587671 
L 286.199607 76.587671 
L 286.2963 74.459859 
L 286.392253 74.459859 
L 286.478234 72.686682 
L 286.645341 72.686682 
L 286.656438 71.622776 
L 287.274385 71.622776 
L 287.274385 71.268141 
L 287.472721 71.268141 
L 287.51623 68.431059 
L 287.947052 68.431059 
L 287.947052 68.076424 
L 288.297189 68.076424 
L 288.33498 65.948612 
L 288.670071 65.948612 
L 288.670071 65.593976 
L 288.925583 65.593976 
L 288.925583 65.239341 
L 289.166948 65.239341 
L 289.201763 64.175435 
L 290.721427 64.175435 
L 290.724823 63.466165 
L 293.360495 63.466165 
L 293.388088 60.629082 
L 294.001707 60.629082 
L 294.095926 59.919812 
L 294.17383 59.919812 
L 294.235033 58.855906 
L 294.35453 58.855906 
L 294.35453 57.792 
L 294.471962 57.792 
L 294.471962 57.082729 
L 294.96797 57.082729 
L 294.96797 56.728094 
L 295.425326 56.728094 
L 295.425326 56.373459 
L 295.555729 56.373459 
L 295.596497 53.891012 
L 296.190025 53.891012 
L 296.190025 53.536376 
L 297.253549 53.536376 
L 297.253549 53.181741 
L 299.009227 53.181741 
L 299.052841 52.472471 
L 299.153858 52.472471 
L 299.174141 49.990024 
L 299.430396 49.990024 
L 299.430396 49.635388 
L 299.968725 49.635388 
L 299.968725 49.280753 
L 300.784992 49.280753 
L 300.822583 47.507576 
L 301.273855 47.507576 
L 301.273855 47.152941 
L 302.089048 47.152941 
L 302.089048 46.798306 
L 303.556712 46.798306 
L 303.592879 45.379765 
L 303.928023 45.379765 
L 303.928023 45.025129 
L 304.160704 45.025129 
L 304.23168 44.315859 
L 304.907978 44.315859 
L 304.907978 43.961224 
L 305.935334 43.961224 
L 305.935334 43.251953 
L 307.14958 43.251953 
L 307.168574 42.542682 
L 308.261471 42.542682 
L 308.2625 41.833412 
L 310.160643 41.833412 
L 310.171944 41.124141 
L 310.344683 41.124141 
L 310.344683 40.769506 
L 311.10751 40.769506 
L 311.108394 39.7056 
L 311.851791 39.7056 
L 311.852895 38.287059 
L 312.753273 38.287059 
L 312.761172 37.577788 
L 313.155672 37.577788 
L 313.15611 36.868518 
L 313.579786 36.868518 
L 313.579786 36.513882 
L 314.234204 36.513882 
L 314.234204 35.804612 
L 315.028028 35.804612 
L 315.039357 35.095341 
L 315.38672 35.095341 
L 315.38672 34.740706 
L 317.715985 34.740706 
L 317.720557 34.031435 
L 318.898468 34.031435 
L 318.898468 33.6768 
L 319.492754 33.6768 
L 319.492754 33.322165 
L 321.112276 33.322165 
L 321.112276 32.967529 
L 321.553103 32.967529 
L 321.553103 32.612894 
L 322.603327 32.612894 
L 322.603356 31.903624 
L 324.376447 31.903624 
L 324.376447 31.548988 
L 326.476374 31.548988 
L 326.476374 31.194353 
L 328.982008 31.194353 
L 328.982008 30.839718 
L 330.911909 30.839718 
L 330.911909 30.485082 
L 331.395963 30.485082 
L 331.395963 30.130447 
L 334.82013 30.130447 
L 334.82013 29.775812 
L 336.942174 29.775812 
L 336.942174 29.421176 
L 338.848922 29.421176 
L 338.848922 29.066541 
L 343.627151 29.066541 
L 343.627151 28.711906 
L 351.235398 28.711906 
L 351.235398 28.357271 
L 352.738173 28.357271 
L 352.738173 28.002635 
L 360.25719 28.002635 
L 360.25719 27.648 
L 360.8064 27.648 
L 360.8064 27.648 
" style="fill: none; stroke: #000080; stroke-width: 1.5; stroke-linecap: square"/>
   </g>
   <g id="line2d_36">
    <defs>
     <path id="maa6a31c380" d="M 0 6 
C 1.591219 6 3.117479 5.367802 4.242641 4.242641 
C 5.367802 3.117479 6 1.591219 6 0 
C 6 -1.591219 5.367802 -3.117479 4.242641 -4.242641 
C 3.117479 -5.367802 1.591219 -6 0 -6 
C -1.591219 -6 -3.117479 -5.367802 -4.242641 -4.242641 
C -5.367802 -3.117479 -6 -1.591219 -6 0 
C -6 1.591219 -5.367802 3.117479 -4.242641 4.242641 
C -3.117479 5.367802 -1.591219 6 0 6 
z
" style="stroke: #000080; stroke-width: 1.5"/>
    </defs>
    <g>
     <use xlink:href="#maa6a31c380" x="171.404878" y="237.237459" style="fill-opacity: 0; stroke: #000080; stroke-width: 1.5"/>
     <use xlink:href="#maa6a31c380" x="233.398111" y="175.885553" style="fill-opacity: 0; stroke: #000080; stroke-width: 1.5"/>
     <use xlink:href="#maa6a31c380" x="304.23168" y="44.670494" style="fill-opacity: 0; stroke: #000080; stroke-width: 1.5"/>
     <use xlink:href="#maa6a31c380" x="360.25719" y="27.648" style="fill-opacity: 0; stroke: #000080; stroke-width: 1.5"/>
     <use xlink:href="#maa6a31c380" x="360.8064" y="27.648" style="fill-opacity: 0; stroke: #000080; stroke-width: 1.5"/>
    </g>
   </g>
   <g id="line2d_37">
    <path style="fill: none; stroke: #000080; stroke-width: 1.5; stroke-linecap: square"/>
    <g/>
   </g>
   <g id="line2d_38">
    <path d="M 274.176 110.987294 
" clip-path="url(#p956c665cd5)" style="fill: none; stroke: #000080; stroke-width: 1.5; stroke-linecap: square"/>
    <defs>
     <path id="mb998f9f377" d="M -12 12 
L 12 -12 
M -12 -12 
L 12 12 
" style="stroke: #000080"/>
    </defs>
    <g clip-path="url(#p956c665cd5)">
     <use xlink:href="#mb998f9f377" x="274.176" y="110.987294" style="fill: #000080; stroke: #000080"/>
    </g>
   </g>
   <g id="line2d_39">
    <defs>
     <path id="me097e7a90e" d="M 0 1.5 
C 0.397805 1.5 0.77937 1.341951 1.06066 1.06066 
C 1.341951 0.77937 1.5 0.397805 1.5 0 
C 1.5 -0.397805 1.341951 -0.77937 1.06066 -1.06066 
C 0.77937 -1.341951 0.397805 -1.5 0 -1.5 
C -0.397805 -1.5 -0.77937 -1.341951 -1.06066 -1.06066 
C -1.341951 -0.77937 -1.5 -0.397805 -1.5 0 
C -1.5 0.397805 -1.341951 0.77937 -1.06066 1.06066 
C -0.77937 1.341951 -0.397805 1.5 0 1.5 
z
" style="stroke: #ff00ff"/>
    </defs>
    <g>
     <use xlink:href="#me097e7a90e" x="342.956612" y="91.482353" style="fill: #ff00ff; stroke: #ff00ff"/>
     <use xlink:href="#me097e7a90e" x="342.956612" y="91.482353" style="fill: #ff00ff; stroke: #ff00ff"/>
    </g>
   </g>
   <g id="line2d_40">
    <path d="M 44.560826 298.944 
L 44.560826 298.589365 
L 127.686077 298.589365 
L 127.686077 296.106918 
L 128.57149 296.106918 
L 128.57149 291.142024 
L 128.786481 291.142024 
L 128.786481 288.304941 
L 129.622688 288.304941 
L 129.622688 282.276141 
L 130.226319 282.276141 
L 130.226319 280.148329 
L 130.811181 280.148329 
L 130.811181 278.729788 
L 131.002163 278.729788 
L 131.002163 275.538071 
L 131.191226 275.538071 
L 131.191226 273.410259 
L 142.966099 273.410259 
L 142.966099 272.346353 
L 143.560197 272.346353 
L 143.657415 266.672188 
L 144.041338 266.672188 
L 144.041338 264.544376 
L 150.289291 264.544376 
L 150.289291 263.480471 
L 150.693856 263.480471 
L 150.693856 262.416565 
L 150.8268 262.416565 
L 150.8268 262.061929 
L 151.477784 262.061929 
L 151.477784 260.998024 
L 156.696589 260.998024 
L 156.696589 260.643388 
L 160.102084 260.643388 
L 160.102084 260.288753 
L 161.125559 260.288753 
L 161.125559 259.934118 
L 163.531835 259.934118 
L 163.531835 258.515576 
L 163.79962 258.515576 
L 163.79962 258.160941 
L 167.957371 258.160941 
L 167.957371 257.451671 
L 174.693607 257.451671 
L 174.693607 256.7424 
L 175.477915 256.7424 
L 175.477915 255.323859 
L 177.826122 255.323859 
L 177.826122 254.259953 
L 183.915382 254.259953 
L 183.915382 253.905318 
L 193.371315 253.905318 
L 193.371315 253.550682 
L 194.068997 253.550682 
L 194.068997 253.196047 
L 195.753411 253.196047 
L 195.753411 252.841412 
L 197.102277 252.841412 
L 197.102277 252.132141 
L 204.112249 252.132141 
L 204.112249 250.7136 
L 205.081053 250.7136 
L 205.081053 248.231153 
L 205.21757 248.231153 
L 205.246957 245.394071 
L 205.62847 245.394071 
L 205.62847 243.266259 
L 205.967105 243.266259 
L 205.967105 242.911624 
L 206.427733 242.911624 
L 206.427733 242.556988 
L 206.660697 242.556988 
L 206.660697 242.202353 
L 206.786255 242.202353 
L 206.836919 241.493082 
L 208.290421 241.493082 
L 208.290421 241.138447 
L 208.725586 241.138447 
L 208.725586 240.429176 
L 209.016211 240.429176 
L 209.094156 237.946729 
L 209.651248 237.946729 
L 209.651248 237.237459 
L 209.790143 237.237459 
L 209.790143 236.882824 
L 210.282405 236.882824 
L 210.282405 236.173553 
L 210.516854 236.173553 
L 210.516854 235.818918 
L 210.909376 235.818918 
L 210.909376 234.400376 
L 211.444973 234.400376 
L 211.444973 234.045741 
L 211.790292 234.045741 
L 211.790292 233.691106 
L 212.047742 233.691106 
L 212.047742 232.981835 
L 212.23348 232.981835 
L 212.23348 232.272565 
L 212.602026 232.272565 
L 212.609473 229.790118 
L 212.811883 229.790118 
L 212.811883 229.435482 
L 213.041265 229.435482 
L 213.041265 228.726212 
L 213.306187 228.726212 
L 213.306187 228.371576 
L 213.778508 228.371576 
L 213.778508 228.016941 
L 214.218766 228.016941 
L 214.275636 226.243765 
L 214.514875 226.243765 
L 214.608832 225.179859 
L 214.819639 225.179859 
L 214.887921 223.761318 
L 214.97785 223.761318 
L 214.980038 221.633506 
L 215.128229 221.633506 
L 215.152092 219.505694 
L 215.255869 219.505694 
L 215.255869 217.377882 
L 215.591359 217.377882 
L 215.665341 215.604706 
L 215.747438 215.604706 
L 215.797781 214.895435 
L 216.006106 214.895435 
L 216.099104 214.186165 
L 216.212149 214.186165 
L 216.287816 213.122259 
L 216.707617 213.122259 
L 216.781322 212.058353 
L 216.850778 212.058353 
L 216.890352 210.639812 
L 216.986958 210.639812 
L 216.986958 209.575906 
L 217.163116 209.575906 
L 217.163116 208.512 
L 217.403151 208.512 
L 217.403151 208.157365 
L 217.567847 208.157365 
L 217.664838 206.384188 
L 217.680007 206.384188 
L 217.680007 206.029553 
L 217.853578 206.029553 
L 217.877976 204.256376 
L 218.157222 204.256376 
L 218.18861 201.773929 
L 218.308142 201.773929 
L 218.308142 201.064659 
L 218.717933 201.064659 
L 218.717933 200.710024 
L 218.914204 200.710024 
L 218.914204 200.355388 
L 221.543807 200.355388 
L 221.600828 199.646118 
L 221.754079 199.646118 
L 221.754079 198.227576 
L 221.98918 198.227576 
L 221.98918 197.872941 
L 222.118366 197.872941 
L 222.118366 197.518306 
L 222.362289 197.518306 
L 222.415412 194.326588 
L 222.582653 194.326588 
L 222.582653 193.262682 
L 222.728141 193.262682 
L 222.75421 191.844141 
L 223.011503 191.844141 
L 223.011503 191.489506 
L 223.716222 191.489506 
L 223.716222 191.134871 
L 223.903676 191.134871 
L 223.903676 189.716329 
L 224.10545 189.716329 
L 224.147159 187.588518 
L 224.359646 187.588518 
L 224.457726 185.460706 
L 224.654983 185.460706 
L 224.761949 182.623624 
L 225.275186 182.623624 
L 225.275186 181.914353 
L 225.57031 181.914353 
L 225.57031 181.559718 
L 226.06224 181.559718 
L 226.06224 181.205082 
L 226.216979 181.205082 
L 226.216979 180.850447 
L 226.659596 180.850447 
L 226.659596 180.495812 
L 226.973294 180.495812 
L 226.973294 179.077271 
L 229.047352 179.077271 
L 229.047352 178.722635 
L 229.37591 178.722635 
L 229.37591 178.368 
L 229.593481 178.368 
L 229.678808 176.594824 
L 229.7787 176.594824 
L 229.7787 176.240188 
L 229.991687 176.240188 
L 229.991687 175.885553 
L 230.573624 175.885553 
L 230.573624 175.530918 
L 230.857978 175.530918 
L 230.857978 175.176282 
L 231.467916 175.176282 
L 231.467916 174.821647 
L 232.878972 174.821647 
L 232.989329 173.757741 
L 234.281143 173.757741 
L 234.281143 173.403106 
L 234.419438 173.403106 
L 234.419438 172.693835 
L 235.205384 172.693835 
L 235.205384 172.3392 
L 236.680303 172.3392 
L 236.732005 170.920659 
L 237.139909 170.920659 
L 237.139909 170.566024 
L 237.494257 170.566024 
L 237.494257 169.856753 
L 237.753586 169.856753 
L 237.753586 169.502118 
L 237.948183 169.502118 
L 238.022248 167.374306 
L 238.140788 167.374306 
L 238.239533 165.601129 
L 238.510162 165.601129 
L 238.510162 165.246494 
L 239.199483 165.246494 
L 239.247121 162.764047 
L 239.361204 162.764047 
L 239.361204 162.054776 
L 240.511188 162.054776 
L 240.511188 161.700141 
L 240.760121 161.700141 
L 240.856568 160.2816 
L 240.981105 160.2816 
L 241.060574 159.572329 
L 243.506489 159.572329 
L 243.506489 159.217694 
L 243.733226 159.217694 
L 243.733226 158.863059 
L 243.932866 158.863059 
L 243.932866 158.508424 
L 244.074113 158.508424 
L 244.109028 157.799153 
L 244.533482 157.799153 
L 244.533482 157.444518 
L 245.043073 157.444518 
L 245.071376 156.735247 
L 245.31199 156.735247 
L 245.42248 155.671341 
L 245.676226 155.671341 
L 245.718968 154.607435 
L 245.850434 154.607435 
L 245.850434 154.2528 
L 246.034382 154.2528 
L 246.061233 153.188894 
L 246.970066 153.188894 
L 246.970066 152.479624 
L 247.12918 152.479624 
L 247.214151 150.706447 
L 248.155502 150.706447 
L 248.155502 150.351812 
L 249.360567 150.351812 
L 249.360567 149.997176 
L 249.601411 149.997176 
L 249.601411 149.642541 
L 250.622465 149.642541 
L 250.622465 148.933271 
L 251.205495 148.933271 
L 251.205495 148.578635 
L 251.664539 148.578635 
L 251.664539 148.224 
L 251.865771 148.224 
L 251.865771 147.514729 
L 253.551488 147.514729 
L 253.551488 147.160094 
L 253.913979 147.160094 
L 253.934128 146.096188 
L 256.548064 146.096188 
L 256.589553 145.032282 
L 257.277979 145.032282 
L 257.370132 143.968376 
L 257.478523 143.968376 
L 257.478523 143.613741 
L 257.598558 143.613741 
L 257.683055 140.776659 
L 261.189987 140.776659 
L 261.189987 140.422024 
L 261.335179 140.422024 
L 261.335179 139.712753 
L 261.648989 139.712753 
L 261.648989 138.294212 
L 262.503763 138.294212 
L 262.503763 137.939576 
L 263.072355 137.939576 
L 263.072355 137.584941 
L 263.212531 137.584941 
L 263.212531 137.230306 
L 263.401604 137.230306 
L 263.401604 136.875671 
L 263.575911 136.875671 
L 263.643373 136.1664 
L 263.872317 136.1664 
L 263.976453 135.457129 
L 264.570339 135.457129 
L 264.570339 135.102494 
L 265.675568 135.102494 
L 265.685467 134.393224 
L 265.958804 134.393224 
L 266.018688 133.329318 
L 266.177212 133.329318 
L 266.248451 132.265412 
L 266.684604 132.265412 
L 266.684604 131.910776 
L 266.952463 131.910776 
L 266.952463 131.556141 
L 267.42038 131.556141 
L 267.527161 130.846871 
L 267.65437 130.846871 
L 267.65437 130.492235 
L 268.04812 130.492235 
L 268.113145 129.782965 
L 268.399304 129.782965 
L 268.478924 129.073694 
L 268.840224 129.073694 
L 268.849714 128.364424 
L 269.653505 128.364424 
L 269.653505 128.009788 
L 270.144889 128.009788 
L 270.144889 127.655153 
L 270.826927 127.655153 
L 270.826927 127.300518 
L 271.843158 127.300518 
L 271.94118 126.591247 
L 272.024146 126.591247 
L 272.125427 125.881976 
L 272.348253 125.881976 
L 272.350533 125.172706 
L 272.495076 125.172706 
L 272.536376 123.399529 
L 272.670131 123.399529 
L 272.77915 122.335624 
L 272.809518 122.335624 
L 272.809518 121.980988 
L 273.92184 121.980988 
L 273.92184 121.626353 
L 274.203633 121.626353 
L 274.203633 121.271718 
L 274.436329 121.271718 
L 274.438463 120.207812 
L 275.34475 120.207812 
L 275.34475 119.853176 
L 275.514928 119.853176 
L 275.514928 119.498541 
L 275.651605 119.498541 
L 275.651605 119.143906 
L 276.59293 119.143906 
L 276.59293 118.789271 
L 276.743779 118.789271 
L 276.772886 118.08 
L 276.907831 118.08 
L 276.907831 117.725365 
L 277.125625 117.725365 
L 277.207383 117.016094 
L 277.652174 117.016094 
L 277.652174 116.661459 
L 277.866359 116.661459 
L 277.866359 116.306824 
L 280.399519 116.306824 
L 280.399519 115.952188 
L 280.611618 115.952188 
L 280.708039 113.469741 
L 280.885591 113.469741 
L 280.885591 113.115106 
L 281.594974 113.115106 
L 281.636648 112.405835 
L 282.271666 112.405835 
L 282.271666 112.0512 
L 282.803896 112.0512 
L 282.805263 111.341929 
L 283.004149 111.341929 
L 283.004149 110.987294 
L 283.725205 110.987294 
L 283.822333 109.568753 
L 284.730096 109.568753 
L 284.730096 109.214118 
L 285.893698 109.214118 
L 285.893698 108.859482 
L 286.086091 108.859482 
L 286.086091 108.504847 
L 286.351479 108.504847 
L 286.402273 107.086306 
L 287.358535 107.086306 
L 287.358535 106.731671 
L 287.974173 106.731671 
L 287.974173 106.377035 
L 288.098563 106.377035 
L 288.098563 106.0224 
L 288.218793 106.0224 
L 288.218793 105.667765 
L 288.587009 105.667765 
L 288.587009 105.313129 
L 288.764465 105.313129 
L 288.795191 104.603859 
L 288.968433 104.603859 
L 289.034553 103.894588 
L 289.14854 103.894588 
L 289.14854 103.539953 
L 289.993599 103.539953 
L 289.993599 103.185318 
L 291.657385 103.185318 
L 291.657385 102.830682 
L 291.939178 102.830682 
L 292.024156 102.121412 
L 292.122741 102.121412 
L 292.12669 101.412141 
L 293.070574 101.412141 
L 293.070574 101.057506 
L 294.308655 101.057506 
L 294.394483 99.9936 
L 295.168803 99.9936 
L 295.168803 99.638965 
L 295.355742 99.638965 
L 295.355742 99.284329 
L 296.076766 99.284329 
L 296.076766 98.929694 
L 296.504195 98.929694 
L 296.593618 98.220424 
L 297.948293 98.220424 
L 297.948293 97.865788 
L 299.38366 97.865788 
L 299.38366 97.511153 
L 300.829859 97.511153 
L 300.836996 96.801882 
L 301.518475 96.801882 
L 301.518475 96.447247 
L 302.464324 96.447247 
L 302.464324 96.092612 
L 302.871052 96.092612 
L 302.871052 95.737976 
L 304.015308 95.737976 
L 304.015308 95.383341 
L 305.961689 95.383341 
L 306.011016 94.674071 
L 306.983813 94.674071 
L 306.983813 94.319435 
L 307.388025 94.319435 
L 307.388025 93.9648 
L 309.606737 93.9648 
L 309.606737 93.610165 
L 310.016059 93.610165 
L 310.016059 93.255529 
L 317.728417 93.255529 
L 317.728417 92.900894 
L 320.47959 92.900894 
L 320.47959 92.546259 
L 322.025419 92.546259 
L 322.025419 92.191624 
L 328.572814 92.191624 
L 328.572814 91.836988 
L 342.956612 91.836988 
L 342.956612 91.482353 
L 360.8064 91.482353 
L 360.8064 91.482353 
" style="fill: none; stroke: #ff00ff; stroke-width: 1.5; stroke-linecap: square"/>
   </g>
   <g id="line2d_41">
    <defs>
     <path id="m46d68e656b" d="M 0 8.485281 
L 5.091169 0 
L 0 -8.485281 
L -5.091169 0 
z
" style="stroke: #ff00ff; stroke-width: 1.5; stroke-linejoin: miter"/>
    </defs>
    <g>
     <use xlink:href="#m46d68e656b" x="131.191226" y="273.410259" style="fill-opacity: 0; stroke: #ff00ff; stroke-width: 1.5; stroke-linejoin: miter"/>
     <use xlink:href="#m46d68e656b" x="213.306187" y="228.371576" style="fill-opacity: 0; stroke: #ff00ff; stroke-width: 1.5; stroke-linejoin: miter"/>
     <use xlink:href="#m46d68e656b" x="263.872317" y="135.811765" style="fill-opacity: 0; stroke: #ff00ff; stroke-width: 1.5; stroke-linejoin: miter"/>
     <use xlink:href="#m46d68e656b" x="307.388025" y="93.9648" style="fill-opacity: 0; stroke: #ff00ff; stroke-width: 1.5; stroke-linejoin: miter"/>
     <use xlink:href="#m46d68e656b" x="342.956612" y="91.482353" style="fill-opacity: 0; stroke: #ff00ff; stroke-width: 1.5; stroke-linejoin: miter"/>
     <use xlink:href="#m46d68e656b" x="360.8064" y="91.482353" style="fill-opacity: 0; stroke: #ff00ff; stroke-width: 1.5; stroke-linejoin: miter"/>
    </g>
   </g>
   <g id="line2d_42">
    <path style="fill: none; stroke: #ff00ff; stroke-width: 1.5; stroke-linecap: square"/>
    <g/>
   </g>
   <g id="line2d_43">
    <path d="M 261.146229 140.776659 
" clip-path="url(#p956c665cd5)" style="fill: none; stroke: #ff00ff; stroke-width: 1.5; stroke-linecap: square"/>
    <defs>
     <path id="m5e1ff1324b" d="M -12 12 
L 12 -12 
M -12 -12 
L 12 12 
" style="stroke: #ff00ff"/>
    </defs>
    <g clip-path="url(#p956c665cd5)">
     <use xlink:href="#m5e1ff1324b" x="261.146229" y="140.776659" style="fill: #ff00ff; stroke: #ff00ff"/>
    </g>
   </g>
   <g id="line2d_44">
    <path d="M 360.8064 91.482353 
L 380.514816 293.51808 
" style="fill: none; stroke: #ff00ff; stroke-width: 1.5; stroke-linecap: square"/>
    <g>
     <use xlink:href="#m46d68e656b" x="360.8064" y="91.482353" style="fill-opacity: 0; stroke: #ff00ff; stroke-width: 1.5; stroke-linejoin: miter"/>
     <use xlink:href="#m46d68e656b" x="380.514816" y="293.51808" style="fill-opacity: 0; stroke: #ff00ff; stroke-width: 1.5; stroke-linejoin: miter"/>
    </g>
   </g>
   <g id="line2d_45">
    <path d="M 360.8064 27.648 
L 380.514816 163.296 
" style="fill: none; stroke: #000080; stroke-width: 1.5; stroke-linecap: square"/>
    <g>
     <use xlink:href="#maa6a31c380" x="360.8064" y="27.648" style="fill-opacity: 0; stroke: #000080; stroke-width: 1.5"/>
     <use xlink:href="#maa6a31c380" x="380.514816" y="163.296" style="fill-opacity: 0; stroke: #000080; stroke-width: 1.5"/>
    </g>
   </g>
   <g id="line2d_46">
    <path d="M 360.8064 298.944 
L 360.8064 27.648 
" style="fill: none; stroke: #000000; stroke-width: 1.5; stroke-linecap: square"/>
   </g>
   <g id="patch_3">
    <path d="M 57.6 298.944 
L 360.8064 298.944 
" style="fill: none; stroke: #000000; stroke-width: 0.8; stroke-linejoin: miter; stroke-linecap: square"/>
   </g>
   <g id="patch_4">
    <path d="M 57.6 27.648 
L 360.8064 27.648 
" style="fill: none; stroke: #000000; stroke-width: 0.8; stroke-linejoin: miter; stroke-linecap: square"/>
   </g>
   <g id="text_13">
    <!-- EvoSpace- -->
    <g transform="translate(386.578944 297.381205)scale(0.14 -0.14)">
     <defs>
      <path id="DejaVuSans-45" d="M 628 4666 
L 3578 4666 
L 3578 4134 
L 1259 4134 
L 1259 2753 
L 3481 2753 
L 3481 2222 
L 1259 2222 
L 1259 531 
L 3634 531 
L 3634 0 
L 628 0 
L 628 4666 
z
" transform="scale(0.015625)"/>
      <path id="DejaVuSans-53" d="M 3425 4513 
L 3425 3897 
Q 3066 4069 2747 4153 
Q 2428 4238 2131 4238 
Q 1616 4238 1336 4038 
Q 1056 3838 1056 3469 
Q 1056 3159 1242 3001 
Q 1428 2844 1947 2747 
L 2328 2669 
Q 3034 2534 3370 2195 
Q 3706 1856 3706 1288 
Q 3706 609 3251 259 
Q 2797 -91 1919 -91 
Q 1588 -91 1214 -16 
Q 841 59 441 206 
L 441 856 
Q 825 641 1194 531 
Q 1563 422 1919 422 
Q 2459 422 2753 634 
Q 3047 847 3047 1241 
Q 3047 1584 2836 1778 
Q 2625 1972 2144 2069 
L 1759 2144 
Q 1053 2284 737 2584 
Q 422 2884 422 3419 
Q 422 4038 858 4394 
Q 1294 4750 2059 4750 
Q 2388 4750 2728 4690 
Q 3069 4631 3425 4513 
z
" transform="scale(0.015625)"/>
     </defs>
     <use xlink:href="#DejaVuSans-45"/>
     <use xlink:href="#DejaVuSans-76" x="63.183594"/>
     <use xlink:href="#DejaVuSans-6f" x="122.363281"/>
     <use xlink:href="#DejaVuSans-53" x="183.544922"/>
     <use xlink:href="#DejaVuSans-70" x="247.021484"/>
     <use xlink:href="#DejaVuSans-61" x="310.498047"/>
     <use xlink:href="#DejaVuSans-63" x="371.777344"/>
     <use xlink:href="#DejaVuSans-65" x="426.757812"/>
     <use xlink:href="#DejaVuSans-2d" x="488.28125"/>
    </g>
   </g>
   <g id="text_14">
    <!-- LCGA -->
    <g transform="translate(386.578944 167.159125)scale(0.14 -0.14)">
     <defs>
      <path id="DejaVuSans-4c" d="M 628 4666 
L 1259 4666 
L 1259 531 
L 3531 531 
L 3531 0 
L 628 0 
L 628 4666 
z
" transform="scale(0.015625)"/>
      <path id="DejaVuSans-43" d="M 4122 4306 
L 4122 3641 
Q 3803 3938 3442 4084 
Q 3081 4231 2675 4231 
Q 1875 4231 1450 3742 
Q 1025 3253 1025 2328 
Q 1025 1406 1450 917 
Q 1875 428 2675 428 
Q 3081 428 3442 575 
Q 3803 722 4122 1019 
L 4122 359 
Q 3791 134 3420 21 
Q 3050 -91 2638 -91 
Q 1578 -91 968 557 
Q 359 1206 359 2328 
Q 359 3453 968 4101 
Q 1578 4750 2638 4750 
Q 3056 4750 3426 4639 
Q 3797 4528 4122 4306 
z
" transform="scale(0.015625)"/>
      <path id="DejaVuSans-47" d="M 3809 666 
L 3809 1919 
L 2778 1919 
L 2778 2438 
L 4434 2438 
L 4434 434 
Q 4069 175 3628 42 
Q 3188 -91 2688 -91 
Q 1594 -91 976 548 
Q 359 1188 359 2328 
Q 359 3472 976 4111 
Q 1594 4750 2688 4750 
Q 3144 4750 3555 4637 
Q 3966 4525 4313 4306 
L 4313 3634 
Q 3963 3931 3569 4081 
Q 3175 4231 2741 4231 
Q 1884 4231 1454 3753 
Q 1025 3275 1025 2328 
Q 1025 1384 1454 906 
Q 1884 428 2741 428 
Q 3075 428 3337 486 
Q 3600 544 3809 666 
z
" transform="scale(0.015625)"/>
      <path id="DejaVuSans-41" d="M 2188 4044 
L 1331 1722 
L 3047 1722 
L 2188 4044 
z
M 1831 4666 
L 2547 4666 
L 4325 0 
L 3669 0 
L 3244 1197 
L 1141 1197 
L 716 0 
L 50 0 
L 1831 4666 
z
" transform="scale(0.015625)"/>
     </defs>
     <use xlink:href="#DejaVuSans-4c"/>
     <use xlink:href="#DejaVuSans-43" x="55.712891"/>
     <use xlink:href="#DejaVuSans-47" x="125.537109"/>
     <use xlink:href="#DejaVuSans-41" x="203.027344"/>
    </g>
   </g>
   <g id="text_15">
    <!-- best 2009 -->
    <g transform="translate(386.578944 36.937045)scale(0.14 -0.14)">
     <defs>
      <path id="DejaVuSans-62" d="M 3116 1747 
Q 3116 2381 2855 2742 
Q 2594 3103 2138 3103 
Q 1681 3103 1420 2742 
Q 1159 2381 1159 1747 
Q 1159 1113 1420 752 
Q 1681 391 2138 391 
Q 2594 391 2855 752 
Q 3116 1113 3116 1747 
z
M 1159 2969 
Q 1341 3281 1617 3432 
Q 1894 3584 2278 3584 
Q 2916 3584 3314 3078 
Q 3713 2572 3713 1747 
Q 3713 922 3314 415 
Q 2916 -91 2278 -91 
Q 1894 -91 1617 61 
Q 1341 213 1159 525 
L 1159 0 
L 581 0 
L 581 4863 
L 1159 4863 
L 1159 2969 
z
" transform="scale(0.015625)"/>
      <path id="DejaVuSans-39" d="M 703 97 
L 703 672 
Q 941 559 1184 500 
Q 1428 441 1663 441 
Q 2288 441 2617 861 
Q 2947 1281 2994 2138 
Q 2813 1869 2534 1725 
Q 2256 1581 1919 1581 
Q 1219 1581 811 2004 
Q 403 2428 403 3163 
Q 403 3881 828 4315 
Q 1253 4750 1959 4750 
Q 2769 4750 3195 4129 
Q 3622 3509 3622 2328 
Q 3622 1225 3098 567 
Q 2575 -91 1691 -91 
Q 1453 -91 1209 -44 
Q 966 3 703 97 
z
M 1959 2075 
Q 2384 2075 2632 2365 
Q 2881 2656 2881 3163 
Q 2881 3666 2632 3958 
Q 2384 4250 1959 4250 
Q 1534 4250 1286 3958 
Q 1038 3666 1038 3163 
Q 1038 2656 1286 2365 
Q 1534 2075 1959 2075 
z
" transform="scale(0.015625)"/>
     </defs>
     <use xlink:href="#DejaVuSans-62"/>
     <use xlink:href="#DejaVuSans-65" x="63.476562"/>
     <use xlink:href="#DejaVuSans-73" x="125"/>
     <use xlink:href="#DejaVuSans-74" x="177.099609"/>
     <use xlink:href="#DejaVuSans-20" x="216.308594"/>
     <use xlink:href="#DejaVuSans-32" x="248.095703"/>
     <use xlink:href="#DejaVuSans-30" x="311.71875"/>
     <use xlink:href="#DejaVuSans-30" x="375.341797"/>
     <use xlink:href="#DejaVuSans-39" x="438.964844"/>
    </g>
   </g>
   <g id="text_16">
    <!-- bbob f13, 2-D -->
    <g transform="translate(60.632064 38.111366)scale(0.102 -0.102)">
     <defs>
      <path id="DejaVuSans-33" d="M 2597 2516 
Q 3050 2419 3304 2112 
Q 3559 1806 3559 1356 
Q 3559 666 3084 287 
Q 2609 -91 1734 -91 
Q 1441 -91 1130 -33 
Q 819 25 488 141 
L 488 750 
Q 750 597 1062 519 
Q 1375 441 1716 441 
Q 2309 441 2620 675 
Q 2931 909 2931 1356 
Q 2931 1769 2642 2001 
Q 2353 2234 1838 2234 
L 1294 2234 
L 1294 2753 
L 1863 2753 
Q 2328 2753 2575 2939 
Q 2822 3125 2822 3475 
Q 2822 3834 2567 4026 
Q 2313 4219 1838 4219 
Q 1578 4219 1281 4162 
Q 984 4106 628 3988 
L 628 4550 
Q 988 4650 1302 4700 
Q 1616 4750 1894 4750 
Q 2613 4750 3031 4423 
Q 3450 4097 3450 3541 
Q 3450 3153 3228 2886 
Q 3006 2619 2597 2516 
z
" transform="scale(0.015625)"/>
      <path id="DejaVuSans-44" d="M 1259 4147 
L 1259 519 
L 2022 519 
Q 2988 519 3436 956 
Q 3884 1394 3884 2338 
Q 3884 3275 3436 3711 
Q 2988 4147 2022 4147 
L 1259 4147 
z
M 628 4666 
L 1925 4666 
Q 3281 4666 3915 4102 
Q 4550 3538 4550 2338 
Q 4550 1131 3912 565 
Q 3275 0 1925 0 
L 628 0 
L 628 4666 
z
" transform="scale(0.015625)"/>
     </defs>
     <use xlink:href="#DejaVuSans-62"/>
     <use xlink:href="#DejaVuSans-62" x="63.476562"/>
     <use xlink:href="#DejaVuSans-6f" x="126.953125"/>
     <use xlink:href="#DejaVuSans-62" x="188.134766"/>
     <use xlink:href="#DejaVuSans-20" x="251.611328"/>
     <use xlink:href="#DejaVuSans-66" x="283.398438"/>
     <use xlink:href="#DejaVuSans-31" x="318.603516"/>
     <use xlink:href="#DejaVuSans-33" x="382.226562"/>
     <use xlink:href="#DejaVuSans-2c" x="445.849609"/>
     <use xlink:href="#DejaVuSans-20" x="477.636719"/>
     <use xlink:href="#DejaVuSans-32" x="509.423828"/>
     <use xlink:href="#DejaVuSans-2d" x="573.046875"/>
     <use xlink:href="#DejaVuSans-44" x="609.130859"/>
    </g>
    <!-- 51 targets: 100..1e-08 -->
    <g transform="translate(60.632064 49.533135)scale(0.102 -0.102)">
     <defs>
      <path id="DejaVuSans-35" d="M 691 4666 
L 3169 4666 
L 3169 4134 
L 1269 4134 
L 1269 2991 
Q 1406 3038 1543 3061 
Q 1681 3084 1819 3084 
Q 2600 3084 3056 2656 
Q 3513 2228 3513 1497 
Q 3513 744 3044 326 
Q 2575 -91 1722 -91 
Q 1428 -91 1123 -41 
Q 819 9 494 109 
L 494 744 
Q 775 591 1075 516 
Q 1375 441 1709 441 
Q 2250 441 2565 725 
Q 2881 1009 2881 1497 
Q 2881 1984 2565 2268 
Q 2250 2553 1709 2553 
Q 1456 2553 1204 2497 
Q 953 2441 691 2322 
L 691 4666 
z
" transform="scale(0.015625)"/>
      <path id="DejaVuSans-3a" d="M 750 794 
L 1409 794 
L 1409 0 
L 750 0 
L 750 794 
z
M 750 3309 
L 1409 3309 
L 1409 2516 
L 750 2516 
L 750 3309 
z
" transform="scale(0.015625)"/>
     </defs>
     <use xlink:href="#DejaVuSans-35"/>
     <use xlink:href="#DejaVuSans-31" x="63.623047"/>
     <use xlink:href="#DejaVuSans-20" x="127.246094"/>
     <use xlink:href="#DejaVuSans-74" x="159.033203"/>
     <use xlink:href="#DejaVuSans-61" x="198.242188"/>
     <use xlink:href="#DejaVuSans-72" x="259.521484"/>
     <use xlink:href="#DejaVuSans-67" x="298.884766"/>
     <use xlink:href="#DejaVuSans-65" x="362.361328"/>
     <use xlink:href="#DejaVuSans-74" x="423.884766"/>
     <use xlink:href="#DejaVuSans-73" x="463.09375"/>
     <use xlink:href="#DejaVuSans-3a" x="515.193359"/>
     <use xlink:href="#DejaVuSans-20" x="548.884766"/>
     <use xlink:href="#DejaVuSans-31" x="580.671875"/>
     <use xlink:href="#DejaVuSans-30" x="644.294922"/>
     <use xlink:href="#DejaVuSans-30" x="707.917969"/>
     <use xlink:href="#DejaVuSans-2e" x="771.541016"/>
     <use xlink:href="#DejaVuSans-2e" x="803.328125"/>
     <use xlink:href="#DejaVuSans-31" x="835.115234"/>
     <use xlink:href="#DejaVuSans-65" x="898.738281"/>
     <use xlink:href="#DejaVuSans-2d" x="960.261719"/>
     <use xlink:href="#DejaVuSans-30" x="996.345703"/>
     <use xlink:href="#DejaVuSans-38" x="1059.96875"/>
    </g>
    <!-- 15 instances -->
    <g transform="translate(60.632064 60.954904)scale(0.102 -0.102)">
     <use xlink:href="#DejaVuSans-31"/>
     <use xlink:href="#DejaVuSans-35" x="63.623047"/>
     <use xlink:href="#DejaVuSans-20" x="127.246094"/>
     <use xlink:href="#DejaVuSans-69" x="159.033203"/>
     <use xlink:href="#DejaVuSans-6e" x="186.816406"/>
     <use xlink:href="#DejaVuSans-73" x="250.195312"/>
     <use xlink:href="#DejaVuSans-74" x="302.294922"/>
     <use xlink:href="#DejaVuSans-61" x="341.503906"/>
     <use xlink:href="#DejaVuSans-6e" x="402.783203"/>
     <use xlink:href="#DejaVuSans-63" x="466.162109"/>
     <use xlink:href="#DejaVuSans-65" x="521.142578"/>
     <use xlink:href="#DejaVuSans-73" x="582.666016"/>
    </g>
   </g>
   <g id="text_17">
    <!-- v2.6 -->
    <g style="fill: #808080" transform="translate(198.292262 294.151352)scale(0.1 -0.1)">
     <use xlink:href="#DejaVuSans-76"/>
     <use xlink:href="#DejaVuSans-32" x="59.179688"/>
     <use xlink:href="#DejaVuSans-2e" x="122.802734"/>
     <use xlink:href="#DejaVuSans-36" x="154.589844"/>
    </g>
   </g>
   <g id="text_18">
    <!-- 13 Sharp ridge -->
    <g transform="translate(135.10945 21.648)scale(0.2 -0.2)">
     <defs>
      <path id="DejaVuSans-68" d="M 3513 2113 
L 3513 0 
L 2938 0 
L 2938 2094 
Q 2938 2591 2744 2837 
Q 2550 3084 2163 3084 
Q 1697 3084 1428 2787 
Q 1159 2491 1159 1978 
L 1159 0 
L 581 0 
L 581 4863 
L 1159 4863 
L 1159 2956 
Q 1366 3272 1645 3428 
Q 1925 3584 2291 3584 
Q 2894 3584 3203 3211 
Q 3513 2838 3513 2113 
z
" transform="scale(0.015625)"/>
     </defs>
     <use xlink:href="#DejaVuSans-31"/>
     <use xlink:href="#DejaVuSans-33" x="63.623047"/>
     <use xlink:href="#DejaVuSans-20" x="127.246094"/>
     <use xlink:href="#DejaVuSans-53" x="159.033203"/>
     <use xlink:href="#DejaVuSans-68" x="222.509766"/>
     <use xlink:href="#DejaVuSans-61" x="285.888672"/>
     <use xlink:href="#DejaVuSans-72" x="347.167969"/>
     <use xlink:href="#DejaVuSans-70" x="388.28125"/>
     <use xlink:href="#DejaVuSans-20" x="451.757812"/>
     <use xlink:href="#DejaVuSans-72" x="483.544922"/>
     <use xlink:href="#DejaVuSans-69" x="524.658203"/>
     <use xlink:href="#DejaVuSans-64" x="552.441406"/>
     <use xlink:href="#DejaVuSans-67" x="615.917969"/>
     <use xlink:href="#DejaVuSans-65" x="679.394531"/>
    </g>
   </g>
  </g>
 </g>
 <defs>
  <clipPath id="p956c665cd5">
   <rect x="57.6" y="27.648" width="303.2064" height="271.296"/>
  </clipPath>
 </defs>
</svg>
