<?xml version="1.0" encoding="utf-8" standalone="no"?>
<!DOCTYPE svg PUBLIC "-//W3C//DTD SVG 1.1//EN"
  "http://www.w3.org/Graphics/SVG/1.1/DTD/svg11.dtd">
<svg xmlns:xlink="http://www.w3.org/1999/xlink" width="460.8pt" height="345.6pt" viewBox="0 0 460.8 345.6" xmlns="http://www.w3.org/2000/svg" version="1.1">
 <metadata>
  <rdf:RDF xmlns:dc="http://purl.org/dc/elements/1.1/" xmlns:cc="http://creativecommons.org/ns#" xmlns:rdf="http://www.w3.org/1999/02/22-rdf-syntax-ns#">
   <cc:Work>
    <dc:type rdf:resource="http://purl.org/dc/dcmitype/StillImage"/>
    <dc:date>2024-05-29T08:06:05.003043</dc:date>
    <dc:format>image/svg+xml</dc:format>
    <dc:creator>
     <cc:Agent>
      <dc:title>Matplotlib v3.5.1, https://matplotlib.org/</dc:title>
     </cc:Agent>
    </dc:creator>
   </cc:Work>
  </rdf:RDF>
 </metadata>
 <defs>
  <style type="text/css">*{stroke-linejoin: round; stroke-linecap: butt}</style>
 </defs>
 <g id="figure_1">
  <g id="patch_1">
   <path d="M 0 345.6 
L 460.8 345.6 
L 460.8 0 
L 0 0 
z
" style="fill: #ffffff"/>
  </g>
  <g id="axes_1">
   <g id="patch_2">
    <path d="M 57.6 298.944 
L 360.8064 298.944 
L 360.8064 27.648 
L 57.6 27.648 
z
" style="fill: #ffffff"/>
   </g>
   <g id="line2d_1">
    <path d="M 65.227428 298.944 
L 65.227428 293.624471 
L 70.639174 293.624471 
L 70.639174 261.707294 
L 78.266603 261.707294 
L 78.266603 256.387765 
L 101.833019 256.387765 
L 101.833019 251.068235 
L 110.335561 251.068235 
L 110.335561 245.748706 
L 121.892744 245.748706 
L 121.892744 240.429176 
L 137.38594 240.429176 
L 137.38594 235.109647 
L 155.13016 235.109647 
L 155.13016 224.470588 
L 155.18278 224.470588 
L 155.18278 219.151059 
L 155.547053 219.151059 
L 155.547053 192.553412 
L 155.598521 192.553412 
L 155.598521 144.677647 
L 155.649849 144.677647 
L 155.649849 134.038588 
L 155.752086 134.038588 
L 155.752086 112.760471 
L 155.802997 112.760471 
L 155.802997 80.843294 
L 155.85377 80.843294 
L 155.85377 75.523765 
L 155.954908 75.523765 
L 155.954908 64.884706 
L 156.055505 64.884706 
L 156.055505 32.967529 
L 156.105602 32.967529 
L 156.105602 27.648 
L 360.8064 27.648 
" style="fill: none; stroke: #f5deb3; stroke-width: 4; stroke-linecap: square"/>
   </g>
   <g id="line2d_2">
    <defs>
     <path id="mfcf58e7d48" d="M 0 7.778175 
L 7.778175 0 
L 0 -7.778175 
L -7.778175 0 
z
" style="stroke: #f5deb3; stroke-width: 1.5; stroke-linejoin: miter"/>
    </defs>
    <g>
     <use xlink:href="#mfcf58e7d48" x="155.598521" y="192.553412" style="fill: #f5deb3; stroke: #f5deb3; stroke-width: 1.5; stroke-linejoin: miter"/>
     <use xlink:href="#mfcf58e7d48" x="156.105602" y="32.967529" style="fill: #f5deb3; stroke: #f5deb3; stroke-width: 1.5; stroke-linejoin: miter"/>
     <use xlink:href="#mfcf58e7d48" x="156.105602" y="27.648" style="fill: #f5deb3; stroke: #f5deb3; stroke-width: 1.5; stroke-linejoin: miter"/>
     <use xlink:href="#mfcf58e7d48" x="156.105602" y="27.648" style="fill: #f5deb3; stroke: #f5deb3; stroke-width: 1.5; stroke-linejoin: miter"/>
     <use xlink:href="#mfcf58e7d48" x="360.8064" y="27.648" style="fill: #f5deb3; stroke: #f5deb3; stroke-width: 1.5; stroke-linejoin: miter"/>
    </g>
   </g>
   <g id="line2d_3">
    <path style="fill: none; stroke: #f5deb3; stroke-width: 4; stroke-linecap: square"/>
    <g/>
   </g>
   <g id="line2d_4">
    <path d="M 360.8064 27.648 
L 380.514816 33.07392 
" style="fill: none; stroke: #f5deb3; stroke-width: 4; stroke-linecap: square"/>
    <g>
     <use xlink:href="#mfcf58e7d48" x="360.8064" y="27.648" style="fill: #f5deb3; stroke: #f5deb3; stroke-width: 1.5; stroke-linejoin: miter"/>
     <use xlink:href="#mfcf58e7d48" x="380.514816" y="33.07392" style="fill: #f5deb3; stroke: #f5deb3; stroke-width: 1.5; stroke-linejoin: miter"/>
    </g>
   </g>
   <g id="matplotlib.axis_1">
    <g id="xtick_1">
     <g id="line2d_5">
      <path d="M 57.6 298.944 
L 57.6 27.648 
" clip-path="url(#ped9b583516)" style="fill: none; stroke: #b0b0b0; stroke-width: 0.8; stroke-linecap: square"/>
     </g>
     <g id="line2d_6">
      <defs>
       <path id="m30c3722ba3" d="M 0 0 
L 0 3.5 
" style="stroke: #000000; stroke-width: 0.8"/>
      </defs>
      <g>
       <use xlink:href="#m30c3722ba3" x="57.6" y="298.944" style="stroke: #000000; stroke-width: 0.8"/>
      </g>
     </g>
     <g id="text_1">
      <!-- 0 -->
      <g transform="translate(52.191875 318.861344)scale(0.17 -0.17)">
       <defs>
        <path id="DejaVuSans-30" d="M 2034 4250 
Q 1547 4250 1301 3770 
Q 1056 3291 1056 2328 
Q 1056 1369 1301 889 
Q 1547 409 2034 409 
Q 2525 409 2770 889 
Q 3016 1369 3016 2328 
Q 3016 3291 2770 3770 
Q 2525 4250 2034 4250 
z
M 2034 4750 
Q 2819 4750 3233 4129 
Q 3647 3509 3647 2328 
Q 3647 1150 3233 529 
Q 2819 -91 2034 -91 
Q 1250 -91 836 529 
Q 422 1150 422 2328 
Q 422 3509 836 4129 
Q 1250 4750 2034 4750 
z
" transform="scale(0.015625)"/>
       </defs>
       <use xlink:href="#DejaVuSans-30"/>
      </g>
     </g>
    </g>
    <g id="xtick_2">
     <g id="line2d_7">
      <path d="M 144.2304 298.944 
L 144.2304 27.648 
" clip-path="url(#ped9b583516)" style="fill: none; stroke: #b0b0b0; stroke-width: 0.8; stroke-linecap: square"/>
     </g>
     <g id="line2d_8">
      <g>
       <use xlink:href="#m30c3722ba3" x="144.2304" y="298.944" style="stroke: #000000; stroke-width: 0.8"/>
      </g>
     </g>
     <g id="text_2">
      <!-- 2 -->
      <g transform="translate(138.822275 318.861344)scale(0.17 -0.17)">
       <defs>
        <path id="DejaVuSans-32" d="M 1228 531 
L 3431 531 
L 3431 0 
L 469 0 
L 469 531 
Q 828 903 1448 1529 
Q 2069 2156 2228 2338 
Q 2531 2678 2651 2914 
Q 2772 3150 2772 3378 
Q 2772 3750 2511 3984 
Q 2250 4219 1831 4219 
Q 1534 4219 1204 4116 
Q 875 4013 500 3803 
L 500 4441 
Q 881 4594 1212 4672 
Q 1544 4750 1819 4750 
Q 2544 4750 2975 4387 
Q 3406 4025 3406 3419 
Q 3406 3131 3298 2873 
Q 3191 2616 2906 2266 
Q 2828 2175 2409 1742 
Q 1991 1309 1228 531 
z
" transform="scale(0.015625)"/>
       </defs>
       <use xlink:href="#DejaVuSans-32"/>
      </g>
     </g>
    </g>
    <g id="xtick_3">
     <g id="line2d_9">
      <path d="M 230.8608 298.944 
L 230.8608 27.648 
" clip-path="url(#ped9b583516)" style="fill: none; stroke: #b0b0b0; stroke-width: 0.8; stroke-linecap: square"/>
     </g>
     <g id="line2d_10">
      <g>
       <use xlink:href="#m30c3722ba3" x="230.8608" y="298.944" style="stroke: #000000; stroke-width: 0.8"/>
      </g>
     </g>
     <g id="text_3">
      <!-- 4 -->
      <g transform="translate(225.452675 318.861344)scale(0.17 -0.17)">
       <defs>
        <path id="DejaVuSans-34" d="M 2419 4116 
L 825 1625 
L 2419 1625 
L 2419 4116 
z
M 2253 4666 
L 3047 4666 
L 3047 1625 
L 3713 1625 
L 3713 1100 
L 3047 1100 
L 3047 0 
L 2419 0 
L 2419 1100 
L 313 1100 
L 313 1709 
L 2253 4666 
z
" transform="scale(0.015625)"/>
       </defs>
       <use xlink:href="#DejaVuSans-34"/>
      </g>
     </g>
    </g>
    <g id="xtick_4">
     <g id="line2d_11">
      <path d="M 317.4912 298.944 
L 317.4912 27.648 
" clip-path="url(#ped9b583516)" style="fill: none; stroke: #b0b0b0; stroke-width: 0.8; stroke-linecap: square"/>
     </g>
     <g id="line2d_12">
      <g>
       <use xlink:href="#m30c3722ba3" x="317.4912" y="298.944" style="stroke: #000000; stroke-width: 0.8"/>
      </g>
     </g>
     <g id="text_4">
      <!-- 6 -->
      <g transform="translate(312.083075 318.861344)scale(0.17 -0.17)">
       <defs>
        <path id="DejaVuSans-36" d="M 2113 2584 
Q 1688 2584 1439 2293 
Q 1191 2003 1191 1497 
Q 1191 994 1439 701 
Q 1688 409 2113 409 
Q 2538 409 2786 701 
Q 3034 994 3034 1497 
Q 3034 2003 2786 2293 
Q 2538 2584 2113 2584 
z
M 3366 4563 
L 3366 3988 
Q 3128 4100 2886 4159 
Q 2644 4219 2406 4219 
Q 1781 4219 1451 3797 
Q 1122 3375 1075 2522 
Q 1259 2794 1537 2939 
Q 1816 3084 2150 3084 
Q 2853 3084 3261 2657 
Q 3669 2231 3669 1497 
Q 3669 778 3244 343 
Q 2819 -91 2113 -91 
Q 1303 -91 875 529 
Q 447 1150 447 2328 
Q 447 3434 972 4092 
Q 1497 4750 2381 4750 
Q 2619 4750 2861 4703 
Q 3103 4656 3366 4563 
z
" transform="scale(0.015625)"/>
       </defs>
       <use xlink:href="#DejaVuSans-36"/>
      </g>
     </g>
    </g>
    <g id="xtick_5">
     <g id="line2d_13">
      <path d="M 100.9152 298.944 
L 100.9152 27.648 
" clip-path="url(#ped9b583516)" style="fill: none; stroke: #b0b0b0; stroke-width: 0.8; stroke-linecap: square"/>
     </g>
     <g id="line2d_14">
      <defs>
       <path id="m5e4c254ff5" d="M 0 0 
L 0 2 
" style="stroke: #000000; stroke-width: 0.6"/>
      </defs>
      <g>
       <use xlink:href="#m5e4c254ff5" x="100.9152" y="298.944" style="stroke: #000000; stroke-width: 0.6"/>
      </g>
     </g>
    </g>
    <g id="xtick_6">
     <g id="line2d_15">
      <path d="M 187.5456 298.944 
L 187.5456 27.648 
" clip-path="url(#ped9b583516)" style="fill: none; stroke: #b0b0b0; stroke-width: 0.8; stroke-linecap: square"/>
     </g>
     <g id="line2d_16">
      <g>
       <use xlink:href="#m5e4c254ff5" x="187.5456" y="298.944" style="stroke: #000000; stroke-width: 0.6"/>
      </g>
     </g>
    </g>
    <g id="xtick_7">
     <g id="line2d_17">
      <path d="M 274.176 298.944 
L 274.176 27.648 
" clip-path="url(#ped9b583516)" style="fill: none; stroke: #b0b0b0; stroke-width: 0.8; stroke-linecap: square"/>
     </g>
     <g id="line2d_18">
      <g>
       <use xlink:href="#m5e4c254ff5" x="274.176" y="298.944" style="stroke: #000000; stroke-width: 0.6"/>
      </g>
     </g>
    </g>
    <g id="xtick_8">
     <g id="line2d_19">
      <path d="M 360.8064 298.944 
L 360.8064 27.648 
" clip-path="url(#ped9b583516)" style="fill: none; stroke: #b0b0b0; stroke-width: 0.8; stroke-linecap: square"/>
     </g>
     <g id="line2d_20">
      <g>
       <use xlink:href="#m5e4c254ff5" x="360.8064" y="298.944" style="stroke: #000000; stroke-width: 0.6"/>
      </g>
     </g>
    </g>
    <g id="text_5">
     <!-- log10(# f-evals / dimension) -->
     <g transform="translate(88.823278 339.314156)scale(0.17 -0.17)">
      <defs>
       <path id="DejaVuSans-6c" d="M 603 4863 
L 1178 4863 
L 1178 0 
L 603 0 
L 603 4863 
z
" transform="scale(0.015625)"/>
       <path id="DejaVuSans-6f" d="M 1959 3097 
Q 1497 3097 1228 2736 
Q 959 2375 959 1747 
Q 959 1119 1226 758 
Q 1494 397 1959 397 
Q 2419 397 2687 759 
Q 2956 1122 2956 1747 
Q 2956 2369 2687 2733 
Q 2419 3097 1959 3097 
z
M 1959 3584 
Q 2709 3584 3137 3096 
Q 3566 2609 3566 1747 
Q 3566 888 3137 398 
Q 2709 -91 1959 -91 
Q 1206 -91 779 398 
Q 353 888 353 1747 
Q 353 2609 779 3096 
Q 1206 3584 1959 3584 
z
" transform="scale(0.015625)"/>
       <path id="DejaVuSans-67" d="M 2906 1791 
Q 2906 2416 2648 2759 
Q 2391 3103 1925 3103 
Q 1463 3103 1205 2759 
Q 947 2416 947 1791 
Q 947 1169 1205 825 
Q 1463 481 1925 481 
Q 2391 481 2648 825 
Q 2906 1169 2906 1791 
z
M 3481 434 
Q 3481 -459 3084 -895 
Q 2688 -1331 1869 -1331 
Q 1566 -1331 1297 -1286 
Q 1028 -1241 775 -1147 
L 775 -588 
Q 1028 -725 1275 -790 
Q 1522 -856 1778 -856 
Q 2344 -856 2625 -561 
Q 2906 -266 2906 331 
L 2906 616 
Q 2728 306 2450 153 
Q 2172 0 1784 0 
Q 1141 0 747 490 
Q 353 981 353 1791 
Q 353 2603 747 3093 
Q 1141 3584 1784 3584 
Q 2172 3584 2450 3431 
Q 2728 3278 2906 2969 
L 2906 3500 
L 3481 3500 
L 3481 434 
z
" transform="scale(0.015625)"/>
       <path id="DejaVuSans-31" d="M 794 531 
L 1825 531 
L 1825 4091 
L 703 3866 
L 703 4441 
L 1819 4666 
L 2450 4666 
L 2450 531 
L 3481 531 
L 3481 0 
L 794 0 
L 794 531 
z
" transform="scale(0.015625)"/>
       <path id="DejaVuSans-28" d="M 1984 4856 
Q 1566 4138 1362 3434 
Q 1159 2731 1159 2009 
Q 1159 1288 1364 580 
Q 1569 -128 1984 -844 
L 1484 -844 
Q 1016 -109 783 600 
Q 550 1309 550 2009 
Q 550 2706 781 3412 
Q 1013 4119 1484 4856 
L 1984 4856 
z
" transform="scale(0.015625)"/>
       <path id="DejaVuSans-23" d="M 3272 2816 
L 2363 2816 
L 2100 1772 
L 3016 1772 
L 3272 2816 
z
M 2803 4594 
L 2478 3297 
L 3391 3297 
L 3719 4594 
L 4219 4594 
L 3897 3297 
L 4872 3297 
L 4872 2816 
L 3775 2816 
L 3519 1772 
L 4513 1772 
L 4513 1294 
L 3397 1294 
L 3072 0 
L 2572 0 
L 2894 1294 
L 1978 1294 
L 1656 0 
L 1153 0 
L 1478 1294 
L 494 1294 
L 494 1772 
L 1594 1772 
L 1856 2816 
L 850 2816 
L 850 3297 
L 1978 3297 
L 2297 4594 
L 2803 4594 
z
" transform="scale(0.015625)"/>
       <path id="DejaVuSans-20" transform="scale(0.015625)"/>
       <path id="DejaVuSans-66" d="M 2375 4863 
L 2375 4384 
L 1825 4384 
Q 1516 4384 1395 4259 
Q 1275 4134 1275 3809 
L 1275 3500 
L 2222 3500 
L 2222 3053 
L 1275 3053 
L 1275 0 
L 697 0 
L 697 3053 
L 147 3053 
L 147 3500 
L 697 3500 
L 697 3744 
Q 697 4328 969 4595 
Q 1241 4863 1831 4863 
L 2375 4863 
z
" transform="scale(0.015625)"/>
       <path id="DejaVuSans-2d" d="M 313 2009 
L 1997 2009 
L 1997 1497 
L 313 1497 
L 313 2009 
z
" transform="scale(0.015625)"/>
       <path id="DejaVuSans-65" d="M 3597 1894 
L 3597 1613 
L 953 1613 
Q 991 1019 1311 708 
Q 1631 397 2203 397 
Q 2534 397 2845 478 
Q 3156 559 3463 722 
L 3463 178 
Q 3153 47 2828 -22 
Q 2503 -91 2169 -91 
Q 1331 -91 842 396 
Q 353 884 353 1716 
Q 353 2575 817 3079 
Q 1281 3584 2069 3584 
Q 2775 3584 3186 3129 
Q 3597 2675 3597 1894 
z
M 3022 2063 
Q 3016 2534 2758 2815 
Q 2500 3097 2075 3097 
Q 1594 3097 1305 2825 
Q 1016 2553 972 2059 
L 3022 2063 
z
" transform="scale(0.015625)"/>
       <path id="DejaVuSans-76" d="M 191 3500 
L 800 3500 
L 1894 563 
L 2988 3500 
L 3597 3500 
L 2284 0 
L 1503 0 
L 191 3500 
z
" transform="scale(0.015625)"/>
       <path id="DejaVuSans-61" d="M 2194 1759 
Q 1497 1759 1228 1600 
Q 959 1441 959 1056 
Q 959 750 1161 570 
Q 1363 391 1709 391 
Q 2188 391 2477 730 
Q 2766 1069 2766 1631 
L 2766 1759 
L 2194 1759 
z
M 3341 1997 
L 3341 0 
L 2766 0 
L 2766 531 
Q 2569 213 2275 61 
Q 1981 -91 1556 -91 
Q 1019 -91 701 211 
Q 384 513 384 1019 
Q 384 1609 779 1909 
Q 1175 2209 1959 2209 
L 2766 2209 
L 2766 2266 
Q 2766 2663 2505 2880 
Q 2244 3097 1772 3097 
Q 1472 3097 1187 3025 
Q 903 2953 641 2809 
L 641 3341 
Q 956 3463 1253 3523 
Q 1550 3584 1831 3584 
Q 2591 3584 2966 3190 
Q 3341 2797 3341 1997 
z
" transform="scale(0.015625)"/>
       <path id="DejaVuSans-73" d="M 2834 3397 
L 2834 2853 
Q 2591 2978 2328 3040 
Q 2066 3103 1784 3103 
Q 1356 3103 1142 2972 
Q 928 2841 928 2578 
Q 928 2378 1081 2264 
Q 1234 2150 1697 2047 
L 1894 2003 
Q 2506 1872 2764 1633 
Q 3022 1394 3022 966 
Q 3022 478 2636 193 
Q 2250 -91 1575 -91 
Q 1294 -91 989 -36 
Q 684 19 347 128 
L 347 722 
Q 666 556 975 473 
Q 1284 391 1588 391 
Q 1994 391 2212 530 
Q 2431 669 2431 922 
Q 2431 1156 2273 1281 
Q 2116 1406 1581 1522 
L 1381 1569 
Q 847 1681 609 1914 
Q 372 2147 372 2553 
Q 372 3047 722 3315 
Q 1072 3584 1716 3584 
Q 2034 3584 2315 3537 
Q 2597 3491 2834 3397 
z
" transform="scale(0.015625)"/>
       <path id="DejaVuSans-2f" d="M 1625 4666 
L 2156 4666 
L 531 -594 
L 0 -594 
L 1625 4666 
z
" transform="scale(0.015625)"/>
       <path id="DejaVuSans-64" d="M 2906 2969 
L 2906 4863 
L 3481 4863 
L 3481 0 
L 2906 0 
L 2906 525 
Q 2725 213 2448 61 
Q 2172 -91 1784 -91 
Q 1150 -91 751 415 
Q 353 922 353 1747 
Q 353 2572 751 3078 
Q 1150 3584 1784 3584 
Q 2172 3584 2448 3432 
Q 2725 3281 2906 2969 
z
M 947 1747 
Q 947 1113 1208 752 
Q 1469 391 1925 391 
Q 2381 391 2643 752 
Q 2906 1113 2906 1747 
Q 2906 2381 2643 2742 
Q 2381 3103 1925 3103 
Q 1469 3103 1208 2742 
Q 947 2381 947 1747 
z
" transform="scale(0.015625)"/>
       <path id="DejaVuSans-69" d="M 603 3500 
L 1178 3500 
L 1178 0 
L 603 0 
L 603 3500 
z
M 603 4863 
L 1178 4863 
L 1178 4134 
L 603 4134 
L 603 4863 
z
" transform="scale(0.015625)"/>
       <path id="DejaVuSans-6d" d="M 3328 2828 
Q 3544 3216 3844 3400 
Q 4144 3584 4550 3584 
Q 5097 3584 5394 3201 
Q 5691 2819 5691 2113 
L 5691 0 
L 5113 0 
L 5113 2094 
Q 5113 2597 4934 2840 
Q 4756 3084 4391 3084 
Q 3944 3084 3684 2787 
Q 3425 2491 3425 1978 
L 3425 0 
L 2847 0 
L 2847 2094 
Q 2847 2600 2669 2842 
Q 2491 3084 2119 3084 
Q 1678 3084 1418 2786 
Q 1159 2488 1159 1978 
L 1159 0 
L 581 0 
L 581 3500 
L 1159 3500 
L 1159 2956 
Q 1356 3278 1631 3431 
Q 1906 3584 2284 3584 
Q 2666 3584 2933 3390 
Q 3200 3197 3328 2828 
z
" transform="scale(0.015625)"/>
       <path id="DejaVuSans-6e" d="M 3513 2113 
L 3513 0 
L 2938 0 
L 2938 2094 
Q 2938 2591 2744 2837 
Q 2550 3084 2163 3084 
Q 1697 3084 1428 2787 
Q 1159 2491 1159 1978 
L 1159 0 
L 581 0 
L 581 3500 
L 1159 3500 
L 1159 2956 
Q 1366 3272 1645 3428 
Q 1925 3584 2291 3584 
Q 2894 3584 3203 3211 
Q 3513 2838 3513 2113 
z
" transform="scale(0.015625)"/>
       <path id="DejaVuSans-29" d="M 513 4856 
L 1013 4856 
Q 1481 4119 1714 3412 
Q 1947 2706 1947 2009 
Q 1947 1309 1714 600 
Q 1481 -109 1013 -844 
L 513 -844 
Q 928 -128 1133 580 
Q 1338 1288 1338 2009 
Q 1338 2731 1133 3434 
Q 928 4138 513 4856 
z
" transform="scale(0.015625)"/>
      </defs>
      <use xlink:href="#DejaVuSans-6c"/>
      <use xlink:href="#DejaVuSans-6f" x="27.783203"/>
      <use xlink:href="#DejaVuSans-67" x="88.964844"/>
      <use xlink:href="#DejaVuSans-31" x="152.441406"/>
      <use xlink:href="#DejaVuSans-30" x="216.064453"/>
      <use xlink:href="#DejaVuSans-28" x="279.6875"/>
      <use xlink:href="#DejaVuSans-23" x="318.701172"/>
      <use xlink:href="#DejaVuSans-20" x="402.490234"/>
      <use xlink:href="#DejaVuSans-66" x="434.277344"/>
      <use xlink:href="#DejaVuSans-2d" x="463.982422"/>
      <use xlink:href="#DejaVuSans-65" x="500.066406"/>
      <use xlink:href="#DejaVuSans-76" x="561.589844"/>
      <use xlink:href="#DejaVuSans-61" x="620.769531"/>
      <use xlink:href="#DejaVuSans-6c" x="682.048828"/>
      <use xlink:href="#DejaVuSans-73" x="709.832031"/>
      <use xlink:href="#DejaVuSans-20" x="761.931641"/>
      <use xlink:href="#DejaVuSans-2f" x="793.71875"/>
      <use xlink:href="#DejaVuSans-20" x="827.410156"/>
      <use xlink:href="#DejaVuSans-64" x="859.197266"/>
      <use xlink:href="#DejaVuSans-69" x="922.673828"/>
      <use xlink:href="#DejaVuSans-6d" x="950.457031"/>
      <use xlink:href="#DejaVuSans-65" x="1047.869141"/>
      <use xlink:href="#DejaVuSans-6e" x="1109.392578"/>
      <use xlink:href="#DejaVuSans-73" x="1172.771484"/>
      <use xlink:href="#DejaVuSans-69" x="1224.871094"/>
      <use xlink:href="#DejaVuSans-6f" x="1252.654297"/>
      <use xlink:href="#DejaVuSans-6e" x="1313.835938"/>
      <use xlink:href="#DejaVuSans-29" x="1377.214844"/>
     </g>
    </g>
   </g>
   <g id="matplotlib.axis_2">
    <g id="ytick_1">
     <g id="line2d_21">
      <path d="M 57.6 298.944 
L 360.8064 298.944 
" clip-path="url(#ped9b583516)" style="fill: none; stroke: #b0b0b0; stroke-width: 0.8; stroke-linecap: square"/>
     </g>
     <g id="line2d_22">
      <defs>
       <path id="maab35802c3" d="M 0 0 
L -3.5 0 
" style="stroke: #000000; stroke-width: 0.8"/>
      </defs>
      <g>
       <use xlink:href="#maab35802c3" x="57.6" y="298.944" style="stroke: #000000; stroke-width: 0.8"/>
      </g>
     </g>
     <g id="text_6">
      <!-- 0.0 -->
      <g transform="translate(25.155 305.02275)scale(0.16 -0.16)">
       <defs>
        <path id="DejaVuSans-2e" d="M 684 794 
L 1344 794 
L 1344 0 
L 684 0 
L 684 794 
z
" transform="scale(0.015625)"/>
       </defs>
       <use xlink:href="#DejaVuSans-30"/>
       <use xlink:href="#DejaVuSans-2e" x="63.623047"/>
       <use xlink:href="#DejaVuSans-30" x="95.410156"/>
      </g>
     </g>
    </g>
    <g id="ytick_2">
     <g id="line2d_23">
      <path d="M 57.6 244.6848 
L 360.8064 244.6848 
" clip-path="url(#ped9b583516)" style="fill: none; stroke: #b0b0b0; stroke-width: 0.8; stroke-linecap: square"/>
     </g>
     <g id="line2d_24">
      <g>
       <use xlink:href="#maab35802c3" x="57.6" y="244.6848" style="stroke: #000000; stroke-width: 0.8"/>
      </g>
     </g>
     <g id="text_7">
      <!-- 0.2 -->
      <g transform="translate(25.155 250.76355)scale(0.16 -0.16)">
       <use xlink:href="#DejaVuSans-30"/>
       <use xlink:href="#DejaVuSans-2e" x="63.623047"/>
       <use xlink:href="#DejaVuSans-32" x="95.410156"/>
      </g>
     </g>
    </g>
    <g id="ytick_3">
     <g id="line2d_25">
      <path d="M 57.6 190.4256 
L 360.8064 190.4256 
" clip-path="url(#ped9b583516)" style="fill: none; stroke: #b0b0b0; stroke-width: 0.8; stroke-linecap: square"/>
     </g>
     <g id="line2d_26">
      <g>
       <use xlink:href="#maab35802c3" x="57.6" y="190.4256" style="stroke: #000000; stroke-width: 0.8"/>
      </g>
     </g>
     <g id="text_8">
      <!-- 0.4 -->
      <g transform="translate(25.155 196.50435)scale(0.16 -0.16)">
       <use xlink:href="#DejaVuSans-30"/>
       <use xlink:href="#DejaVuSans-2e" x="63.623047"/>
       <use xlink:href="#DejaVuSans-34" x="95.410156"/>
      </g>
     </g>
    </g>
    <g id="ytick_4">
     <g id="line2d_27">
      <path d="M 57.6 136.1664 
L 360.8064 136.1664 
" clip-path="url(#ped9b583516)" style="fill: none; stroke: #b0b0b0; stroke-width: 0.8; stroke-linecap: square"/>
     </g>
     <g id="line2d_28">
      <g>
       <use xlink:href="#maab35802c3" x="57.6" y="136.1664" style="stroke: #000000; stroke-width: 0.8"/>
      </g>
     </g>
     <g id="text_9">
      <!-- 0.6 -->
      <g transform="translate(25.155 142.24515)scale(0.16 -0.16)">
       <use xlink:href="#DejaVuSans-30"/>
       <use xlink:href="#DejaVuSans-2e" x="63.623047"/>
       <use xlink:href="#DejaVuSans-36" x="95.410156"/>
      </g>
     </g>
    </g>
    <g id="ytick_5">
     <g id="line2d_29">
      <path d="M 57.6 81.9072 
L 360.8064 81.9072 
" clip-path="url(#ped9b583516)" style="fill: none; stroke: #b0b0b0; stroke-width: 0.8; stroke-linecap: square"/>
     </g>
     <g id="line2d_30">
      <g>
       <use xlink:href="#maab35802c3" x="57.6" y="81.9072" style="stroke: #000000; stroke-width: 0.8"/>
      </g>
     </g>
     <g id="text_10">
      <!-- 0.8 -->
      <g transform="translate(25.155 87.98595)scale(0.16 -0.16)">
       <defs>
        <path id="DejaVuSans-38" d="M 2034 2216 
Q 1584 2216 1326 1975 
Q 1069 1734 1069 1313 
Q 1069 891 1326 650 
Q 1584 409 2034 409 
Q 2484 409 2743 651 
Q 3003 894 3003 1313 
Q 3003 1734 2745 1975 
Q 2488 2216 2034 2216 
z
M 1403 2484 
Q 997 2584 770 2862 
Q 544 3141 544 3541 
Q 544 4100 942 4425 
Q 1341 4750 2034 4750 
Q 2731 4750 3128 4425 
Q 3525 4100 3525 3541 
Q 3525 3141 3298 2862 
Q 3072 2584 2669 2484 
Q 3125 2378 3379 2068 
Q 3634 1759 3634 1313 
Q 3634 634 3220 271 
Q 2806 -91 2034 -91 
Q 1263 -91 848 271 
Q 434 634 434 1313 
Q 434 1759 690 2068 
Q 947 2378 1403 2484 
z
M 1172 3481 
Q 1172 3119 1398 2916 
Q 1625 2713 2034 2713 
Q 2441 2713 2670 2916 
Q 2900 3119 2900 3481 
Q 2900 3844 2670 4047 
Q 2441 4250 2034 4250 
Q 1625 4250 1398 4047 
Q 1172 3844 1172 3481 
z
" transform="scale(0.015625)"/>
       </defs>
       <use xlink:href="#DejaVuSans-30"/>
       <use xlink:href="#DejaVuSans-2e" x="63.623047"/>
       <use xlink:href="#DejaVuSans-38" x="95.410156"/>
      </g>
     </g>
    </g>
    <g id="ytick_6">
     <g id="line2d_31">
      <path d="M 57.6 27.648 
L 360.8064 27.648 
" clip-path="url(#ped9b583516)" style="fill: none; stroke: #b0b0b0; stroke-width: 0.8; stroke-linecap: square"/>
     </g>
     <g id="line2d_32">
      <g>
       <use xlink:href="#maab35802c3" x="57.6" y="27.648" style="stroke: #000000; stroke-width: 0.8"/>
      </g>
     </g>
     <g id="text_11">
      <!-- 1.0 -->
      <g transform="translate(25.155 33.72675)scale(0.16 -0.16)">
       <use xlink:href="#DejaVuSans-31"/>
       <use xlink:href="#DejaVuSans-2e" x="63.623047"/>
       <use xlink:href="#DejaVuSans-30" x="95.410156"/>
      </g>
     </g>
    </g>
    <g id="text_12">
     <!-- Fraction of function,target pairs -->
     <g transform="translate(17.619531 297.681)rotate(-90)scale(0.17 -0.17)">
      <defs>
       <path id="DejaVuSans-46" d="M 628 4666 
L 3309 4666 
L 3309 4134 
L 1259 4134 
L 1259 2759 
L 3109 2759 
L 3109 2228 
L 1259 2228 
L 1259 0 
L 628 0 
L 628 4666 
z
" transform="scale(0.015625)"/>
       <path id="DejaVuSans-72" d="M 2631 2963 
Q 2534 3019 2420 3045 
Q 2306 3072 2169 3072 
Q 1681 3072 1420 2755 
Q 1159 2438 1159 1844 
L 1159 0 
L 581 0 
L 581 3500 
L 1159 3500 
L 1159 2956 
Q 1341 3275 1631 3429 
Q 1922 3584 2338 3584 
Q 2397 3584 2469 3576 
Q 2541 3569 2628 3553 
L 2631 2963 
z
" transform="scale(0.015625)"/>
       <path id="DejaVuSans-63" d="M 3122 3366 
L 3122 2828 
Q 2878 2963 2633 3030 
Q 2388 3097 2138 3097 
Q 1578 3097 1268 2742 
Q 959 2388 959 1747 
Q 959 1106 1268 751 
Q 1578 397 2138 397 
Q 2388 397 2633 464 
Q 2878 531 3122 666 
L 3122 134 
Q 2881 22 2623 -34 
Q 2366 -91 2075 -91 
Q 1284 -91 818 406 
Q 353 903 353 1747 
Q 353 2603 823 3093 
Q 1294 3584 2113 3584 
Q 2378 3584 2631 3529 
Q 2884 3475 3122 3366 
z
" transform="scale(0.015625)"/>
       <path id="DejaVuSans-74" d="M 1172 4494 
L 1172 3500 
L 2356 3500 
L 2356 3053 
L 1172 3053 
L 1172 1153 
Q 1172 725 1289 603 
Q 1406 481 1766 481 
L 2356 481 
L 2356 0 
L 1766 0 
Q 1100 0 847 248 
Q 594 497 594 1153 
L 594 3053 
L 172 3053 
L 172 3500 
L 594 3500 
L 594 4494 
L 1172 4494 
z
" transform="scale(0.015625)"/>
       <path id="DejaVuSans-75" d="M 544 1381 
L 544 3500 
L 1119 3500 
L 1119 1403 
Q 1119 906 1312 657 
Q 1506 409 1894 409 
Q 2359 409 2629 706 
Q 2900 1003 2900 1516 
L 2900 3500 
L 3475 3500 
L 3475 0 
L 2900 0 
L 2900 538 
Q 2691 219 2414 64 
Q 2138 -91 1772 -91 
Q 1169 -91 856 284 
Q 544 659 544 1381 
z
M 1991 3584 
L 1991 3584 
z
" transform="scale(0.015625)"/>
       <path id="DejaVuSans-2c" d="M 750 794 
L 1409 794 
L 1409 256 
L 897 -744 
L 494 -744 
L 750 256 
L 750 794 
z
" transform="scale(0.015625)"/>
       <path id="DejaVuSans-70" d="M 1159 525 
L 1159 -1331 
L 581 -1331 
L 581 3500 
L 1159 3500 
L 1159 2969 
Q 1341 3281 1617 3432 
Q 1894 3584 2278 3584 
Q 2916 3584 3314 3078 
Q 3713 2572 3713 1747 
Q 3713 922 3314 415 
Q 2916 -91 2278 -91 
Q 1894 -91 1617 61 
Q 1341 213 1159 525 
z
M 3116 1747 
Q 3116 2381 2855 2742 
Q 2594 3103 2138 3103 
Q 1681 3103 1420 2742 
Q 1159 2381 1159 1747 
Q 1159 1113 1420 752 
Q 1681 391 2138 391 
Q 2594 391 2855 752 
Q 3116 1113 3116 1747 
z
" transform="scale(0.015625)"/>
      </defs>
      <use xlink:href="#DejaVuSans-46"/>
      <use xlink:href="#DejaVuSans-72" x="50.269531"/>
      <use xlink:href="#DejaVuSans-61" x="91.382812"/>
      <use xlink:href="#DejaVuSans-63" x="152.662109"/>
      <use xlink:href="#DejaVuSans-74" x="207.642578"/>
      <use xlink:href="#DejaVuSans-69" x="246.851562"/>
      <use xlink:href="#DejaVuSans-6f" x="274.634766"/>
      <use xlink:href="#DejaVuSans-6e" x="335.816406"/>
      <use xlink:href="#DejaVuSans-20" x="399.195312"/>
      <use xlink:href="#DejaVuSans-6f" x="430.982422"/>
      <use xlink:href="#DejaVuSans-66" x="492.164062"/>
      <use xlink:href="#DejaVuSans-20" x="527.369141"/>
      <use xlink:href="#DejaVuSans-66" x="559.15625"/>
      <use xlink:href="#DejaVuSans-75" x="594.361328"/>
      <use xlink:href="#DejaVuSans-6e" x="657.740234"/>
      <use xlink:href="#DejaVuSans-63" x="721.119141"/>
      <use xlink:href="#DejaVuSans-74" x="776.099609"/>
      <use xlink:href="#DejaVuSans-69" x="815.308594"/>
      <use xlink:href="#DejaVuSans-6f" x="843.091797"/>
      <use xlink:href="#DejaVuSans-6e" x="904.273438"/>
      <use xlink:href="#DejaVuSans-2c" x="967.652344"/>
      <use xlink:href="#DejaVuSans-74" x="999.439453"/>
      <use xlink:href="#DejaVuSans-61" x="1038.648438"/>
      <use xlink:href="#DejaVuSans-72" x="1099.927734"/>
      <use xlink:href="#DejaVuSans-67" x="1139.291016"/>
      <use xlink:href="#DejaVuSans-65" x="1202.767578"/>
      <use xlink:href="#DejaVuSans-74" x="1264.291016"/>
      <use xlink:href="#DejaVuSans-20" x="1303.5"/>
      <use xlink:href="#DejaVuSans-70" x="1335.287109"/>
      <use xlink:href="#DejaVuSans-61" x="1398.763672"/>
      <use xlink:href="#DejaVuSans-69" x="1460.042969"/>
      <use xlink:href="#DejaVuSans-72" x="1487.826172"/>
      <use xlink:href="#DejaVuSans-73" x="1528.939453"/>
     </g>
    </g>
   </g>
   <g id="line2d_33">
    <defs>
     <path id="m6f64a7a457" d="M 0 1.5 
C 0.397805 1.5 0.77937 1.341951 1.06066 1.06066 
C 1.341951 0.77937 1.5 0.397805 1.5 0 
C 1.5 -0.397805 1.341951 -0.77937 1.06066 -1.06066 
C 0.77937 -1.341951 0.397805 -1.5 0 -1.5 
C -0.397805 -1.5 -0.77937 -1.341951 -1.06066 -1.06066 
C -1.341951 -0.77937 -1.5 -0.397805 -1.5 0 
C -1.5 0.397805 -1.341951 0.77937 -1.06066 1.06066 
C -0.77937 1.341951 -0.397805 1.5 0 1.5 
z
" style="stroke: #f5deb3"/>
    </defs>
    <g>
     <use xlink:href="#m6f64a7a457" x="156.105602" y="27.648" style="fill: #f5deb3; stroke: #f5deb3"/>
     <use xlink:href="#m6f64a7a457" x="156.105602" y="27.648" style="fill: #f5deb3; stroke: #f5deb3"/>
    </g>
   </g>
   <g id="line2d_34">
    <defs>
     <path id="m69c69d56cc" d="M 0 1.5 
C 0.397805 1.5 0.77937 1.341951 1.06066 1.06066 
C 1.341951 0.77937 1.5 0.397805 1.5 0 
C 1.5 -0.397805 1.341951 -0.77937 1.06066 -1.06066 
C 0.77937 -1.341951 0.397805 -1.5 0 -1.5 
C -0.397805 -1.5 -0.77937 -1.341951 -1.06066 -1.06066 
C -1.341951 -0.77937 -1.5 -0.397805 -1.5 0 
C -1.5 0.397805 -1.341951 0.77937 -1.06066 1.06066 
C -0.77937 1.341951 -0.397805 1.5 0 1.5 
z
" style="stroke: #000080"/>
    </defs>
    <g>
     <use xlink:href="#m69c69d56cc" x="289.669167" y="27.648" style="fill: #000080; stroke: #000080"/>
     <use xlink:href="#m69c69d56cc" x="289.669167" y="27.648" style="fill: #000080; stroke: #000080"/>
    </g>
   </g>
   <g id="line2d_35">
    <path d="M 44.560826 298.944 
L 44.560826 297.170824 
L 57.6 297.170824 
L 57.6 289.723482 
L 65.227428 289.723482 
L 65.227428 284.049318 
L 70.639174 284.049318 
L 70.639174 278.729788 
L 74.836851 278.729788 
L 74.836851 275.892706 
L 78.266603 275.892706 
L 78.266603 274.8288 
L 83.678349 274.8288 
L 83.678349 271.282447 
L 85.894031 271.282447 
L 85.894031 268.090729 
L 87.876026 268.090729 
L 87.876026 267.026824 
L 89.668958 267.026824 
L 89.668958 263.125835 
L 91.305777 263.125835 
L 91.305777 262.7712 
L 94.205591 262.7712 
L 94.205591 262.416565 
L 96.717523 262.416565 
L 96.717523 262.061929 
L 98.933205 262.061929 
L 98.933205 258.515576 
L 100.9152 258.515576 
L 100.9152 258.160941 
L 105.112877 258.160941 
L 105.112877 257.451671 
L 106.560633 257.451671 
L 106.560633 257.097035 
L 107.904887 257.097035 
L 107.904887 256.7424 
L 109.159456 256.7424 
L 109.159456 255.323859 
L 111.97238 255.323859 
L 111.97238 254.969224 
L 112.487797 254.969224 
L 112.487797 254.614588 
L 113.478107 254.614588 
L 113.478107 253.905318 
L 113.954374 253.905318 
L 113.954374 252.486776 
L 115.314838 252.486776 
L 115.314838 251.777506 
L 118.889854 251.777506 
L 118.889854 251.422871 
L 119.24818 251.422871 
L 119.24818 251.068235 
L 121.892744 251.068235 
L 121.892744 250.7136 
L 130.027253 250.7136 
L 130.027253 250.358965 
L 134.931919 250.358965 
L 134.931919 250.004329 
L 135.835047 250.004329 
L 135.835047 249.649694 
L 139.914782 249.649694 
L 139.914782 248.940424 
L 143.066428 248.940424 
L 143.066428 248.585788 
L 146.446082 248.585788 
L 146.446082 247.876518 
L 148.124658 247.876518 
L 148.124658 247.521882 
L 149.093387 247.521882 
L 149.093387 247.167247 
L 150.892922 247.167247 
L 150.892922 246.812612 
L 151.220087 246.812612 
L 151.220087 245.748706 
L 151.795018 245.748706 
L 151.795018 245.039435 
L 156.155566 245.039435 
L 156.155566 244.6848 
L 156.550574 244.6848 
L 156.599372 242.202353 
L 158.007377 242.202353 
L 158.007377 241.493082 
L 160.343261 241.493082 
L 160.343261 241.138447 
L 162.420867 241.138447 
L 162.456597 238.656 
L 163.328465 238.656 
L 163.328465 238.301365 
L 163.932096 238.301365 
L 163.932096 237.946729 
L 164.771172 237.946729 
L 164.771172 237.592094 
L 165.96353 237.592094 
L 165.96353 237.237459 
L 166.140442 237.237459 
L 166.140442 236.882824 
L 166.315707 236.882824 
L 166.315707 236.528188 
L 166.489353 236.528188 
L 166.489353 235.464282 
L 166.944723 235.464282 
L 166.944723 234.400376 
L 167.140533 234.400376 
L 167.16834 233.691106 
L 167.279159 233.691106 
L 167.279159 232.6272 
L 167.769923 232.6272 
L 167.769923 231.563294 
L 168.037137 231.563294 
L 168.090128 229.790118 
L 168.482867 229.790118 
L 168.482867 228.016941 
L 168.867575 228.016941 
L 168.867575 227.307671 
L 169.019282 227.307671 
L 169.019282 226.953035 
L 171.248949 226.953035 
L 171.248949 226.243765 
L 172.356469 226.243765 
L 172.356469 225.889129 
L 173.521707 225.889129 
L 173.521707 225.534494 
L 173.659955 225.534494 
L 173.659955 225.179859 
L 174.010854 225.179859 
L 174.107176 222.697412 
L 174.145567 222.697412 
L 174.145567 222.342776 
L 174.823534 222.342776 
L 174.823534 221.988141 
L 175.15357 221.988141 
L 175.15357 221.278871 
L 175.584799 221.278871 
L 175.691079 219.860329 
L 176.671876 219.860329 
L 176.772205 217.732518 
L 177.314646 217.732518 
L 177.379346 216.668612 
L 177.54013 216.668612 
L 177.54013 214.895435 
L 177.778757 214.895435 
L 177.778757 214.5408 
L 178.03 214.5408 
L 178.03 213.831529 
L 178.537828 213.831529 
L 178.583321 213.122259 
L 178.764203 213.122259 
L 178.764203 212.767624 
L 179.899351 212.767624 
L 179.899351 212.058353 
L 180.524377 212.058353 
L 180.633351 209.575906 
L 180.835991 209.575906 
L 180.903055 208.157365 
L 182.045861 208.157365 
L 182.045861 206.384188 
L 182.221437 206.384188 
L 182.221437 206.029553 
L 182.420108 206.029553 
L 182.420108 205.320282 
L 182.543221 205.320282 
L 182.555488 204.611012 
L 182.665533 204.611012 
L 182.762814 202.837835 
L 182.799165 202.837835 
L 182.799165 202.4832 
L 183.218147 202.4832 
L 183.277247 201.773929 
L 183.52346 201.773929 
L 183.52346 200.000753 
L 183.789475 200.000753 
L 183.892552 198.582212 
L 183.90397 198.582212 
L 183.915382 197.163671 
L 184.142166 197.163671 
L 184.142166 196.809035 
L 184.697447 196.809035 
L 184.697447 196.4544 
L 184.91505 196.4544 
L 184.91505 195.745129 
L 185.140856 195.745129 
L 185.140856 195.390494 
L 185.448293 195.390494 
L 185.500795 193.262682 
L 185.73008 193.262682 
L 185.833384 189.716329 
L 185.895095 189.716329 
L 185.925875 186.169976 
L 186.461507 186.169976 
L 186.461507 185.460706 
L 187.165556 185.460706 
L 187.165556 184.751435 
L 187.356538 184.751435 
L 187.356538 184.3968 
L 188.292444 184.3968 
L 188.292444 184.042165 
L 188.967211 184.042165 
L 188.967211 182.978259 
L 191.139237 182.978259 
L 191.239978 179.077271 
L 191.546612 179.077271 
L 191.546612 178.722635 
L 191.840843 178.722635 
L 191.840843 177.658729 
L 192.078873 177.658729 
L 192.160005 176.594824 
L 192.196768 176.594824 
L 192.204112 175.885553 
L 192.350392 175.885553 
L 192.372237 170.920659 
L 192.51722 170.920659 
L 192.51722 170.211388 
L 192.632408 170.211388 
L 192.696893 168.083576 
L 192.924397 168.083576 
L 192.924397 167.728941 
L 193.05117 167.728941 
L 193.05117 166.665035 
L 193.177094 166.665035 
L 193.177094 165.246494 
L 193.350601 165.246494 
L 193.378214 164.537224 
L 193.570381 164.537224 
L 193.570381 163.473318 
L 193.740315 163.473318 
L 193.740315 162.409412 
L 194.326558 162.409412 
L 194.326558 162.054776 
L 194.535287 162.054776 
L 194.535287 161.700141 
L 195.028251 161.700141 
L 195.040884 160.990871 
L 195.465458 160.990871 
L 195.465458 160.636235 
L 195.814113 160.636235 
L 195.814113 160.2816 
L 196.574279 160.2816 
L 196.574279 158.153788 
L 197.371981 158.153788 
L 197.47768 155.671341 
L 197.566231 155.671341 
L 197.566231 155.316706 
L 197.681825 155.316706 
L 197.681825 153.543529 
L 198.126512 153.543529 
L 198.126512 153.188894 
L 200.074713 153.188894 
L 200.151868 152.479624 
L 200.697307 152.479624 
L 200.697307 152.124988 
L 202.093396 152.124988 
L 202.093396 151.770353 
L 202.729256 151.770353 
L 202.729256 151.415718 
L 202.946202 151.415718 
L 203.053744 150.351812 
L 203.107286 150.351812 
L 203.107286 149.997176 
L 203.738171 149.997176 
L 203.738171 149.642541 
L 205.15128 149.642541 
L 205.15128 149.287906 
L 205.541947 149.287906 
L 205.541947 148.933271 
L 206.023543 148.933271 
L 206.037626 147.869365 
L 206.198829 147.869365 
L 206.198829 147.514729 
L 206.623207 147.514729 
L 206.633439 146.096188 
L 207.296735 146.096188 
L 207.296735 145.741553 
L 207.574462 145.741553 
L 207.574462 145.386918 
L 207.934257 145.386918 
L 207.934257 144.677647 
L 209.186669 144.677647 
L 209.275767 143.613741 
L 209.830462 143.613741 
L 209.830462 143.259106 
L 210.007985 143.259106 
L 210.007985 142.904471 
L 210.646771 142.904471 
L 210.646771 141.485929 
L 210.857692 141.485929 
L 210.936521 139.003482 
L 211.362947 139.003482 
L 211.362947 138.648847 
L 213.325309 138.648847 
L 213.325309 138.294212 
L 213.966474 138.294212 
L 213.966474 137.939576 
L 214.345918 137.939576 
L 214.397893 136.521035 
L 215.787304 136.521035 
L 215.787304 136.1664 
L 216.799206 136.1664 
L 216.799206 135.457129 
L 217.341499 135.457129 
L 217.341499 135.102494 
L 217.780195 135.102494 
L 217.780195 134.747859 
L 218.230993 134.747859 
L 218.230993 134.393224 
L 218.716139 134.393224 
L 218.719727 133.683953 
L 218.956757 133.683953 
L 218.956757 133.329318 
L 219.175088 133.329318 
L 219.175088 132.974682 
L 219.465184 132.974682 
L 219.465184 132.620047 
L 219.919892 132.620047 
L 219.919892 132.265412 
L 220.094074 132.265412 
L 220.094074 131.910776 
L 220.787968 131.910776 
L 220.787968 131.556141 
L 220.925641 131.556141 
L 220.925641 130.846871 
L 221.29522 130.846871 
L 221.29522 130.492235 
L 222.172181 130.492235 
L 222.172181 130.1376 
L 222.329751 130.1376 
L 222.437503 128.719059 
L 222.598712 128.719059 
L 222.614757 128.009788 
L 222.780243 128.009788 
L 222.780243 127.300518 
L 222.962902 127.300518 
L 222.962902 125.881976 
L 223.301909 125.881976 
L 223.301909 125.527341 
L 223.433586 125.527341 
L 223.433586 124.818071 
L 223.610039 124.818071 
L 223.610039 124.1088 
L 223.725845 124.1088 
L 223.742331 121.980988 
L 223.971627 121.980988 
L 223.971627 121.626353 
L 224.456404 121.626353 
L 224.456404 120.562447 
L 224.661523 120.562447 
L 224.661523 120.207812 
L 224.79444 120.207812 
L 224.896744 119.498541 
L 224.930292 119.498541 
L 224.934159 118.789271 
L 225.06389 118.789271 
L 225.06773 118.08 
L 225.435253 118.08 
L 225.435253 117.725365 
L 225.664772 117.725365 
L 225.664772 117.370729 
L 227.359051 117.370729 
L 227.359051 116.661459 
L 227.610033 116.661459 
L 227.610033 115.952188 
L 228.018118 115.952188 
L 228.07383 115.242918 
L 228.383234 115.242918 
L 228.383234 114.888282 
L 228.559448 114.888282 
L 228.559448 114.533647 
L 228.797111 114.533647 
L 228.797111 114.179012 
L 229.08667 114.179012 
L 229.08667 113.824376 
L 229.252348 113.824376 
L 229.252348 113.469741 
L 229.740803 113.469741 
L 229.740803 112.760471 
L 230.11931 112.760471 
L 230.11931 112.405835 
L 230.425969 112.405835 
L 230.526769 111.696565 
L 230.540168 111.696565 
L 230.540168 110.987294 
L 232.204632 110.987294 
L 232.204632 110.278024 
L 232.333796 110.278024 
L 232.333796 109.568753 
L 232.661426 109.568753 
L 232.661426 108.859482 
L 233.0631 108.859482 
L 233.0631 108.504847 
L 233.715142 108.504847 
L 233.715142 107.795576 
L 233.872077 107.795576 
L 233.921701 106.377035 
L 234.410095 106.377035 
L 234.491696 105.313129 
L 234.886888 105.313129 
L 234.96872 104.603859 
L 237.001981 104.603859 
L 237.001981 104.249224 
L 237.193724 104.249224 
L 237.193724 103.894588 
L 237.492935 103.894588 
L 237.593158 99.9936 
L 237.952054 99.9936 
L 238.042806 97.865788 
L 238.67603 97.865788 
L 238.698987 97.156518 
L 240.579202 97.156518 
L 240.579202 96.801882 
L 240.887504 96.801882 
L 240.929406 95.737976 
L 241.516595 95.737976 
L 241.516595 93.9648 
L 242.044012 93.9648 
L 242.089633 93.255529 
L 242.452707 93.255529 
L 242.491775 92.546259 
L 242.665326 92.546259 
L 242.665326 92.191624 
L 242.776483 92.191624 
L 242.786465 91.127718 
L 242.999313 91.127718 
L 242.999313 90.773082 
L 243.280388 90.773082 
L 243.366704 89.709176 
L 243.627596 89.709176 
L 243.630459 88.999906 
L 245.230666 88.999906 
L 245.230666 88.645271 
L 245.388185 88.645271 
L 245.483969 87.581365 
L 245.588728 87.581365 
L 245.671518 84.035012 
L 245.757354 84.035012 
L 245.836013 81.9072 
L 245.907583 81.9072 
L 246.002026 80.488659 
L 246.294558 80.488659 
L 246.352852 79.779388 
L 246.538108 79.779388 
L 246.538108 79.424753 
L 247.139872 79.424753 
L 247.139872 79.070118 
L 247.314828 79.070118 
L 247.418089 77.651576 
L 247.52389 77.651576 
L 247.58121 75.169129 
L 247.749444 75.169129 
L 247.749444 73.395953 
L 247.912009 73.395953 
L 247.916188 72.686682 
L 248.079207 72.686682 
L 248.079207 72.332047 
L 248.422897 72.332047 
L 248.422897 71.622776 
L 249.473158 71.622776 
L 249.473158 71.268141 
L 249.617034 71.268141 
L 249.617034 70.913506 
L 249.997335 70.913506 
L 249.997335 70.558871 
L 250.140984 70.558871 
L 250.140984 69.494965 
L 250.30062 69.494965 
L 250.30062 69.140329 
L 270.587147 69.140329 
L 270.587147 68.431059 
L 270.996761 68.431059 
L 271.050257 56.728094 
L 271.110244 56.728094 
L 271.110244 55.309553 
L 274.212271 55.309553 
L 274.318707 49.635388 
L 274.346038 49.635388 
L 274.433361 45.025129 
L 274.477565 45.025129 
L 274.550731 43.606588 
L 274.600179 43.606588 
L 274.706003 42.542682 
L 274.713774 42.542682 
L 274.817236 41.478776 
L 274.927093 41.478776 
L 274.944166 40.769506 
L 275.046372 40.769506 
L 275.046372 40.414871 
L 275.253841 40.414871 
L 275.253841 40.060235 
L 275.422286 40.060235 
L 275.422286 39.7056 
L 275.551595 39.7056 
L 275.551595 39.350965 
L 275.814387 39.350965 
L 275.902719 38.287059 
L 276.10771 38.287059 
L 276.139937 37.577788 
L 276.263495 37.577788 
L 276.263495 37.223153 
L 277.091421 37.223153 
L 277.091421 36.868518 
L 277.228906 36.868518 
L 277.228906 36.513882 
L 277.862107 36.513882 
L 277.94258 35.095341 
L 278.222048 35.095341 
L 278.222048 34.740706 
L 278.337524 34.740706 
L 278.439177 34.031435 
L 278.656942 34.031435 
L 278.656942 33.6768 
L 285.506203 33.6768 
L 285.506203 33.322165 
L 285.710936 33.322165 
L 285.744682 30.485082 
L 287.366561 30.485082 
L 287.375703 29.775812 
L 287.655394 29.775812 
L 287.655394 29.421176 
L 287.907204 29.421176 
L 287.907204 29.066541 
L 288.31809 29.066541 
L 288.31809 28.711906 
L 288.803491 28.711906 
L 288.908699 28.002635 
L 289.669167 28.002635 
L 289.669167 27.648 
L 360.8064 27.648 
L 360.8064 27.648 
" style="fill: none; stroke: #000080; stroke-width: 1.5; stroke-linecap: square"/>
   </g>
   <g id="line2d_36">
    <defs>
     <path id="m3eb0e79927" d="M 0 6 
C 1.591219 6 3.117479 5.367802 4.242641 4.242641 
C 5.367802 3.117479 6 1.591219 6 0 
C 6 -1.591219 5.367802 -3.117479 4.242641 -4.242641 
C 3.117479 -5.367802 1.591219 -6 0 -6 
C -1.591219 -6 -3.117479 -5.367802 -4.242641 -4.242641 
C -5.367802 -3.117479 -6 -1.591219 -6 0 
C -6 1.591219 -5.367802 3.117479 -4.242641 4.242641 
C -3.117479 5.367802 -1.591219 6 0 6 
z
" style="stroke: #000080; stroke-width: 1.5"/>
    </defs>
    <g>
     <use xlink:href="#m3eb0e79927" x="156.550574" y="244.330165" style="fill-opacity: 0; stroke: #000080; stroke-width: 1.5"/>
     <use xlink:href="#m3eb0e79927" x="211.362947" y="138.648847" style="fill-opacity: 0; stroke: #000080; stroke-width: 1.5"/>
     <use xlink:href="#m3eb0e79927" x="250.30062" y="69.494965" style="fill-opacity: 0; stroke: #000080; stroke-width: 1.5"/>
     <use xlink:href="#m3eb0e79927" x="289.669167" y="27.648" style="fill-opacity: 0; stroke: #000080; stroke-width: 1.5"/>
     <use xlink:href="#m3eb0e79927" x="289.669167" y="27.648" style="fill-opacity: 0; stroke: #000080; stroke-width: 1.5"/>
     <use xlink:href="#m3eb0e79927" x="360.8064" y="27.648" style="fill-opacity: 0; stroke: #000080; stroke-width: 1.5"/>
    </g>
   </g>
   <g id="line2d_37">
    <path style="fill: none; stroke: #000080; stroke-width: 1.5; stroke-linecap: square"/>
    <g/>
   </g>
   <g id="line2d_38">
    <path d="M 274.176 55.309553 
" clip-path="url(#ped9b583516)" style="fill: none; stroke: #000080; stroke-width: 1.5; stroke-linecap: square"/>
    <defs>
     <path id="maa0b2398be" d="M -12 12 
L 12 -12 
M -12 -12 
L 12 12 
" style="stroke: #000080"/>
    </defs>
    <g clip-path="url(#ped9b583516)">
     <use xlink:href="#maa0b2398be" x="274.176" y="55.309553" style="fill: #000080; stroke: #000080"/>
    </g>
   </g>
   <g id="line2d_39">
    <defs>
     <path id="m51db0d4697" d="M 0 1.5 
C 0.397805 1.5 0.77937 1.341951 1.06066 1.06066 
C 1.341951 0.77937 1.5 0.397805 1.5 0 
C 1.5 -0.397805 1.341951 -0.77937 1.06066 -1.06066 
C 0.77937 -1.341951 0.397805 -1.5 0 -1.5 
C -0.397805 -1.5 -0.77937 -1.341951 -1.06066 -1.06066 
C -1.341951 -0.77937 -1.5 -0.397805 -1.5 0 
C -1.5 0.397805 -1.341951 0.77937 -1.06066 1.06066 
C -0.77937 1.341951 -0.397805 1.5 0 1.5 
z
" style="stroke: #ff00ff"/>
    </defs>
    <g>
     <use xlink:href="#m51db0d4697" x="234.25132" y="27.648" style="fill: #ff00ff; stroke: #ff00ff"/>
     <use xlink:href="#m51db0d4697" x="234.25132" y="27.648" style="fill: #ff00ff; stroke: #ff00ff"/>
    </g>
   </g>
   <g id="line2d_40">
    <path d="M 44.560826 298.944 
L 44.560826 295.043012 
L 127.686077 295.043012 
L 127.686077 291.496659 
L 128.354013 291.496659 
L 128.354013 284.758588 
L 130.618241 284.758588 
L 130.618241 280.8576 
L 130.811181 280.8576 
L 130.811181 273.764894 
L 131.191226 273.764894 
L 131.191226 273.055624 
L 142.248405 273.055624 
L 142.248405 269.154635 
L 143.364242 269.154635 
L 143.462475 262.061929 
L 143.850356 262.061929 
L 143.946089 256.7424 
L 144.136106 256.7424 
L 144.2304 245.748706 
L 150.760445 245.748706 
L 150.760445 245.394071 
L 151.089903 245.394071 
L 151.089903 245.039435 
L 151.668766 245.039435 
L 151.668766 244.6848 
L 151.857828 244.6848 
L 151.857828 243.620894 
L 154.918196 243.620894 
L 154.918196 242.556988 
L 156.88953 242.556988 
L 156.88953 241.847718 
L 158.630038 241.847718 
L 158.630038 241.493082 
L 164.897003 241.493082 
L 164.990826 240.783812 
L 167.526142 240.783812 
L 167.526142 240.429176 
L 169.393282 240.429176 
L 169.393282 239.365271 
L 171.046551 239.365271 
L 171.046551 239.010635 
L 171.929885 239.010635 
L 171.929885 237.237459 
L 172.524431 237.237459 
L 172.524431 236.882824 
L 175.0442 236.882824 
L 175.0442 235.818918 
L 175.726373 235.818918 
L 175.726373 234.045741 
L 177.217177 234.045741 
L 177.217177 233.691106 
L 181.470148 233.691106 
L 181.470148 232.981835 
L 183.371423 232.981835 
L 183.371423 232.272565 
L 185.16222 232.272565 
L 185.16222 231.917929 
L 189.25283 231.917929 
L 189.25283 231.208659 
L 189.567996 231.208659 
L 189.567996 230.499388 
L 189.719432 230.499388 
L 189.719432 229.790118 
L 191.340184 229.790118 
L 191.340184 227.307671 
L 192.632408 227.307671 
L 192.632408 226.953035 
L 193.149183 226.953035 
L 193.191033 226.243765 
L 193.274455 226.243765 
L 193.274455 223.406682 
L 193.453943 223.406682 
L 193.453943 223.052047 
L 194.535287 223.052047 
L 194.535287 222.697412 
L 195.135367 222.697412 
L 195.135367 221.988141 
L 198.18003 221.988141 
L 198.18003 221.633506 
L 199.118197 221.633506 
L 199.118197 220.924235 
L 200.108507 220.924235 
L 200.108507 220.214965 
L 201.204636 220.214965 
L 201.204636 219.860329 
L 202.369154 219.860329 
L 202.377707 218.087153 
L 203.213914 218.087153 
L 203.213914 216.668612 
L 204.014526 216.668612 
L 204.014526 215.959341 
L 204.402407 215.959341 
L 204.402407 214.895435 
L 205.162345 214.895435 
L 205.162345 213.122259 
L 205.389567 213.122259 
L 205.422324 212.058353 
L 205.682345 212.058353 
L 205.682345 211.703718 
L 206.289336 211.703718 
L 206.289336 211.349082 
L 206.58906 211.349082 
L 206.58906 210.285176 
L 206.793018 210.285176 
L 206.793018 209.930541 
L 208.205931 209.930541 
L 208.205931 206.384188 
L 210.21206 206.384188 
L 210.21206 206.029553 
L 210.386034 206.029553 
L 210.386034 205.674918 
L 211.942614 205.674918 
L 212.017034 202.4832 
L 212.088609 202.4832 
L 212.088609 201.773929 
L 212.342035 201.773929 
L 212.342035 201.064659 
L 212.489971 201.064659 
L 212.489971 200.710024 
L 212.816792 200.710024 
L 212.816792 200.000753 
L 213.060658 200.000753 
L 213.157326 198.582212 
L 213.291832 198.582212 
L 213.396845 196.099765 
L 213.560353 196.099765 
L 213.633352 191.844141 
L 213.764509 191.844141 
L 213.86228 187.943153 
L 213.897075 187.943153 
L 213.897075 187.588518 
L 214.083867 187.588518 
L 214.093043 186.169976 
L 214.325541 186.169976 
L 214.388864 182.623624 
L 214.481205 182.623624 
L 214.546246 180.495812 
L 214.704543 180.495812 
L 214.773243 179.077271 
L 215.021562 179.077271 
L 215.054279 178.013365 
L 215.143418 178.013365 
L 215.143418 177.658729 
L 215.270955 177.658729 
L 215.270955 175.530918 
L 215.485163 175.530918 
L 215.544707 171.984565 
L 215.625216 171.984565 
L 215.703276 168.438212 
L 215.783111 168.438212 
L 215.873044 166.3104 
L 215.912645 166.3104 
L 215.912645 165.955765 
L 216.051629 165.955765 
L 216.11353 162.764047 
L 216.17112 162.764047 
L 216.261265 155.671341 
L 216.287816 155.671341 
L 216.287816 154.962071 
L 216.460503 154.962071 
L 216.490813 150.351812 
L 216.603542 150.351812 
L 216.65365 147.160094 
L 216.727566 147.160094 
L 216.81112 145.741553 
L 216.890352 145.741553 
L 216.925897 143.613741 
L 217.049781 143.613741 
L 217.085027 141.485929 
L 217.196205 141.485929 
L 217.252519 140.067388 
L 217.310597 140.067388 
L 217.39738 136.521035 
L 217.426219 136.521035 
L 217.508646 130.492235 
L 217.564033 130.492235 
L 217.664838 124.463435 
L 217.746228 124.463435 
L 217.853578 121.271718 
L 218.068313 121.271718 
L 218.097996 116.661459 
L 218.223629 116.661459 
L 218.253068 109.214118 
L 218.588347 109.214118 
L 218.674837 107.440941 
L 218.768088 107.440941 
L 218.876892 103.894588 
L 218.903551 103.894588 
L 218.903551 103.539953 
L 219.08032 103.539953 
L 219.08032 103.185318 
L 219.265898 103.185318 
L 219.265898 101.766776 
L 219.546028 101.766776 
L 219.546028 99.638965 
L 219.940072 99.638965 
L 219.940072 97.156518 
L 220.406546 97.156518 
L 220.406546 95.737976 
L 220.778325 95.737976 
L 220.778325 95.383341 
L 220.938397 95.383341 
L 220.938397 94.674071 
L 221.365467 94.674071 
L 221.365467 93.610165 
L 221.481967 93.610165 
L 221.586974 91.127718 
L 221.654608 91.127718 
L 221.680674 90.063812 
L 221.83328 90.063812 
L 221.940883 86.162824 
L 222.044868 86.162824 
L 222.109382 84.744282 
L 222.194559 84.744282 
L 222.283805 83.325741 
L 222.343068 83.325741 
L 222.412465 80.488659 
L 222.488947 80.488659 
L 222.531465 79.070118 
L 222.699134 79.070118 
L 222.723793 77.651576 
L 222.849488 77.651576 
L 222.951448 74.105224 
L 223.050009 74.105224 
L 223.112591 71.622776 
L 223.254053 71.622776 
L 223.324387 69.140329 
L 223.464272 69.140329 
L 223.556029 62.756894 
L 223.628008 62.756894 
L 223.712096 57.792 
L 223.765661 57.792 
L 223.869608 56.018824 
L 223.924087 56.018824 
L 224.021753 52.827106 
L 224.037981 52.827106 
L 224.037981 52.117835 
L 224.254371 52.117835 
L 224.290417 50.344659 
L 224.387532 50.344659 
L 224.440533 45.7344 
L 224.571073 45.7344 
L 224.670675 43.606588 
L 224.739823 43.606588 
L 224.739823 42.542682 
L 224.945755 42.542682 
L 224.962493 40.414871 
L 225.150732 40.414871 
L 225.150732 38.996329 
L 230.276175 38.996329 
L 230.276175 38.641694 
L 230.758942 38.641694 
L 230.758942 37.577788 
L 231.317964 37.577788 
L 231.317964 36.868518 
L 231.553328 36.868518 
L 231.591366 35.804612 
L 232.089561 35.804612 
L 232.089561 34.386071 
L 232.264961 34.386071 
L 232.264961 32.967529 
L 232.61093 32.967529 
L 232.61093 31.903624 
L 233.449 31.903624 
L 233.449 31.548988 
L 233.612225 31.548988 
L 233.612225 31.194353 
L 234.014196 31.194353 
L 234.014196 30.839718 
L 234.17261 30.839718 
L 234.25132 27.648 
L 360.8064 27.648 
L 360.8064 27.648 
" style="fill: none; stroke: #ff00ff; stroke-width: 1.5; stroke-linecap: square"/>
   </g>
   <g id="line2d_41">
    <defs>
     <path id="m450208cb1a" d="M 0 8.485281 
L 5.091169 0 
L 0 -8.485281 
L -5.091169 0 
z
" style="stroke: #ff00ff; stroke-width: 1.5; stroke-linejoin: miter"/>
    </defs>
    <g>
     <use xlink:href="#m450208cb1a" x="143.364242" y="265.962918" style="fill-opacity: 0; stroke: #ff00ff; stroke-width: 1.5; stroke-linejoin: miter"/>
     <use xlink:href="#m450208cb1a" x="204.014526" y="215.959341" style="fill-opacity: 0; stroke: #ff00ff; stroke-width: 1.5; stroke-linejoin: miter"/>
     <use xlink:href="#m450208cb1a" x="224.440533" y="47.507576" style="fill-opacity: 0; stroke: #ff00ff; stroke-width: 1.5; stroke-linejoin: miter"/>
     <use xlink:href="#m450208cb1a" x="234.25132" y="28.711906" style="fill-opacity: 0; stroke: #ff00ff; stroke-width: 1.5; stroke-linejoin: miter"/>
     <use xlink:href="#m450208cb1a" x="234.25132" y="27.648" style="fill-opacity: 0; stroke: #ff00ff; stroke-width: 1.5; stroke-linejoin: miter"/>
     <use xlink:href="#m450208cb1a" x="360.8064" y="27.648" style="fill-opacity: 0; stroke: #ff00ff; stroke-width: 1.5; stroke-linejoin: miter"/>
    </g>
   </g>
   <g id="line2d_42">
    <path style="fill: none; stroke: #ff00ff; stroke-width: 1.5; stroke-linecap: square"/>
    <g/>
   </g>
   <g id="line2d_43">
    <path d="M 360.8064 27.648 
L 380.514816 293.51808 
" style="fill: none; stroke: #000080; stroke-width: 1.5; stroke-linecap: square"/>
    <g>
     <use xlink:href="#m3eb0e79927" x="360.8064" y="27.648" style="fill-opacity: 0; stroke: #000080; stroke-width: 1.5"/>
     <use xlink:href="#m3eb0e79927" x="380.514816" y="293.51808" style="fill-opacity: 0; stroke: #000080; stroke-width: 1.5"/>
    </g>
   </g>
   <g id="line2d_44">
    <path d="M 360.8064 27.648 
L 380.514816 163.296 
" style="fill: none; stroke: #ff00ff; stroke-width: 1.5; stroke-linecap: square"/>
    <g>
     <use xlink:href="#m450208cb1a" x="360.8064" y="27.648" style="fill-opacity: 0; stroke: #ff00ff; stroke-width: 1.5; stroke-linejoin: miter"/>
     <use xlink:href="#m450208cb1a" x="380.514816" y="163.296" style="fill-opacity: 0; stroke: #ff00ff; stroke-width: 1.5; stroke-linejoin: miter"/>
    </g>
   </g>
   <g id="line2d_45">
    <path d="M 360.8064 298.944 
L 360.8064 27.648 
" style="fill: none; stroke: #000000; stroke-width: 1.5; stroke-linecap: square"/>
   </g>
   <g id="patch_3">
    <path d="M 57.6 298.944 
L 360.8064 298.944 
" style="fill: none; stroke: #000000; stroke-width: 0.8; stroke-linejoin: miter; stroke-linecap: square"/>
   </g>
   <g id="patch_4">
    <path d="M 57.6 27.648 
L 360.8064 27.648 
" style="fill: none; stroke: #000000; stroke-width: 0.8; stroke-linejoin: miter; stroke-linecap: square"/>
   </g>
   <g id="text_13">
    <!-- LCGA -->
    <g transform="translate(386.578944 297.381205)scale(0.14 -0.14)">
     <defs>
      <path id="DejaVuSans-4c" d="M 628 4666 
L 1259 4666 
L 1259 531 
L 3531 531 
L 3531 0 
L 628 0 
L 628 4666 
z
" transform="scale(0.015625)"/>
      <path id="DejaVuSans-43" d="M 4122 4306 
L 4122 3641 
Q 3803 3938 3442 4084 
Q 3081 4231 2675 4231 
Q 1875 4231 1450 3742 
Q 1025 3253 1025 2328 
Q 1025 1406 1450 917 
Q 1875 428 2675 428 
Q 3081 428 3442 575 
Q 3803 722 4122 1019 
L 4122 359 
Q 3791 134 3420 21 
Q 3050 -91 2638 -91 
Q 1578 -91 968 557 
Q 359 1206 359 2328 
Q 359 3453 968 4101 
Q 1578 4750 2638 4750 
Q 3056 4750 3426 4639 
Q 3797 4528 4122 4306 
z
" transform="scale(0.015625)"/>
      <path id="DejaVuSans-47" d="M 3809 666 
L 3809 1919 
L 2778 1919 
L 2778 2438 
L 4434 2438 
L 4434 434 
Q 4069 175 3628 42 
Q 3188 -91 2688 -91 
Q 1594 -91 976 548 
Q 359 1188 359 2328 
Q 359 3472 976 4111 
Q 1594 4750 2688 4750 
Q 3144 4750 3555 4637 
Q 3966 4525 4313 4306 
L 4313 3634 
Q 3963 3931 3569 4081 
Q 3175 4231 2741 4231 
Q 1884 4231 1454 3753 
Q 1025 3275 1025 2328 
Q 1025 1384 1454 906 
Q 1884 428 2741 428 
Q 3075 428 3337 486 
Q 3600 544 3809 666 
z
" transform="scale(0.015625)"/>
      <path id="DejaVuSans-41" d="M 2188 4044 
L 1331 1722 
L 3047 1722 
L 2188 4044 
z
M 1831 4666 
L 2547 4666 
L 4325 0 
L 3669 0 
L 3244 1197 
L 1141 1197 
L 716 0 
L 50 0 
L 1831 4666 
z
" transform="scale(0.015625)"/>
     </defs>
     <use xlink:href="#DejaVuSans-4c"/>
     <use xlink:href="#DejaVuSans-43" x="55.712891"/>
     <use xlink:href="#DejaVuSans-47" x="125.537109"/>
     <use xlink:href="#DejaVuSans-41" x="203.027344"/>
    </g>
   </g>
   <g id="text_14">
    <!-- EvoSpace- -->
    <g transform="translate(386.578944 167.159125)scale(0.14 -0.14)">
     <defs>
      <path id="DejaVuSans-45" d="M 628 4666 
L 3578 4666 
L 3578 4134 
L 1259 4134 
L 1259 2753 
L 3481 2753 
L 3481 2222 
L 1259 2222 
L 1259 531 
L 3634 531 
L 3634 0 
L 628 0 
L 628 4666 
z
" transform="scale(0.015625)"/>
      <path id="DejaVuSans-53" d="M 3425 4513 
L 3425 3897 
Q 3066 4069 2747 4153 
Q 2428 4238 2131 4238 
Q 1616 4238 1336 4038 
Q 1056 3838 1056 3469 
Q 1056 3159 1242 3001 
Q 1428 2844 1947 2747 
L 2328 2669 
Q 3034 2534 3370 2195 
Q 3706 1856 3706 1288 
Q 3706 609 3251 259 
Q 2797 -91 1919 -91 
Q 1588 -91 1214 -16 
Q 841 59 441 206 
L 441 856 
Q 825 641 1194 531 
Q 1563 422 1919 422 
Q 2459 422 2753 634 
Q 3047 847 3047 1241 
Q 3047 1584 2836 1778 
Q 2625 1972 2144 2069 
L 1759 2144 
Q 1053 2284 737 2584 
Q 422 2884 422 3419 
Q 422 4038 858 4394 
Q 1294 4750 2059 4750 
Q 2388 4750 2728 4690 
Q 3069 4631 3425 4513 
z
" transform="scale(0.015625)"/>
     </defs>
     <use xlink:href="#DejaVuSans-45"/>
     <use xlink:href="#DejaVuSans-76" x="63.183594"/>
     <use xlink:href="#DejaVuSans-6f" x="122.363281"/>
     <use xlink:href="#DejaVuSans-53" x="183.544922"/>
     <use xlink:href="#DejaVuSans-70" x="247.021484"/>
     <use xlink:href="#DejaVuSans-61" x="310.498047"/>
     <use xlink:href="#DejaVuSans-63" x="371.777344"/>
     <use xlink:href="#DejaVuSans-65" x="426.757812"/>
     <use xlink:href="#DejaVuSans-2d" x="488.28125"/>
    </g>
   </g>
   <g id="text_15">
    <!-- best 2009 -->
    <g transform="translate(386.578944 36.937045)scale(0.14 -0.14)">
     <defs>
      <path id="DejaVuSans-62" d="M 3116 1747 
Q 3116 2381 2855 2742 
Q 2594 3103 2138 3103 
Q 1681 3103 1420 2742 
Q 1159 2381 1159 1747 
Q 1159 1113 1420 752 
Q 1681 391 2138 391 
Q 2594 391 2855 752 
Q 3116 1113 3116 1747 
z
M 1159 2969 
Q 1341 3281 1617 3432 
Q 1894 3584 2278 3584 
Q 2916 3584 3314 3078 
Q 3713 2572 3713 1747 
Q 3713 922 3314 415 
Q 2916 -91 2278 -91 
Q 1894 -91 1617 61 
Q 1341 213 1159 525 
L 1159 0 
L 581 0 
L 581 4863 
L 1159 4863 
L 1159 2969 
z
" transform="scale(0.015625)"/>
      <path id="DejaVuSans-39" d="M 703 97 
L 703 672 
Q 941 559 1184 500 
Q 1428 441 1663 441 
Q 2288 441 2617 861 
Q 2947 1281 2994 2138 
Q 2813 1869 2534 1725 
Q 2256 1581 1919 1581 
Q 1219 1581 811 2004 
Q 403 2428 403 3163 
Q 403 3881 828 4315 
Q 1253 4750 1959 4750 
Q 2769 4750 3195 4129 
Q 3622 3509 3622 2328 
Q 3622 1225 3098 567 
Q 2575 -91 1691 -91 
Q 1453 -91 1209 -44 
Q 966 3 703 97 
z
M 1959 2075 
Q 2384 2075 2632 2365 
Q 2881 2656 2881 3163 
Q 2881 3666 2632 3958 
Q 2384 4250 1959 4250 
Q 1534 4250 1286 3958 
Q 1038 3666 1038 3163 
Q 1038 2656 1286 2365 
Q 1534 2075 1959 2075 
z
" transform="scale(0.015625)"/>
     </defs>
     <use xlink:href="#DejaVuSans-62"/>
     <use xlink:href="#DejaVuSans-65" x="63.476562"/>
     <use xlink:href="#DejaVuSans-73" x="125"/>
     <use xlink:href="#DejaVuSans-74" x="177.099609"/>
     <use xlink:href="#DejaVuSans-20" x="216.308594"/>
     <use xlink:href="#DejaVuSans-32" x="248.095703"/>
     <use xlink:href="#DejaVuSans-30" x="311.71875"/>
     <use xlink:href="#DejaVuSans-30" x="375.341797"/>
     <use xlink:href="#DejaVuSans-39" x="438.964844"/>
    </g>
   </g>
   <g id="text_16">
    <!-- bbob f20, 2-D -->
    <g transform="translate(60.632064 38.111366)scale(0.102 -0.102)">
     <defs>
      <path id="DejaVuSans-44" d="M 1259 4147 
L 1259 519 
L 2022 519 
Q 2988 519 3436 956 
Q 3884 1394 3884 2338 
Q 3884 3275 3436 3711 
Q 2988 4147 2022 4147 
L 1259 4147 
z
M 628 4666 
L 1925 4666 
Q 3281 4666 3915 4102 
Q 4550 3538 4550 2338 
Q 4550 1131 3912 565 
Q 3275 0 1925 0 
L 628 0 
L 628 4666 
z
" transform="scale(0.015625)"/>
     </defs>
     <use xlink:href="#DejaVuSans-62"/>
     <use xlink:href="#DejaVuSans-62" x="63.476562"/>
     <use xlink:href="#DejaVuSans-6f" x="126.953125"/>
     <use xlink:href="#DejaVuSans-62" x="188.134766"/>
     <use xlink:href="#DejaVuSans-20" x="251.611328"/>
     <use xlink:href="#DejaVuSans-66" x="283.398438"/>
     <use xlink:href="#DejaVuSans-32" x="318.603516"/>
     <use xlink:href="#DejaVuSans-30" x="382.226562"/>
     <use xlink:href="#DejaVuSans-2c" x="445.849609"/>
     <use xlink:href="#DejaVuSans-20" x="477.636719"/>
     <use xlink:href="#DejaVuSans-32" x="509.423828"/>
     <use xlink:href="#DejaVuSans-2d" x="573.046875"/>
     <use xlink:href="#DejaVuSans-44" x="609.130859"/>
    </g>
    <!-- 51 targets: 100..1e-08 -->
    <g transform="translate(60.632064 49.533135)scale(0.102 -0.102)">
     <defs>
      <path id="DejaVuSans-35" d="M 691 4666 
L 3169 4666 
L 3169 4134 
L 1269 4134 
L 1269 2991 
Q 1406 3038 1543 3061 
Q 1681 3084 1819 3084 
Q 2600 3084 3056 2656 
Q 3513 2228 3513 1497 
Q 3513 744 3044 326 
Q 2575 -91 1722 -91 
Q 1428 -91 1123 -41 
Q 819 9 494 109 
L 494 744 
Q 775 591 1075 516 
Q 1375 441 1709 441 
Q 2250 441 2565 725 
Q 2881 1009 2881 1497 
Q 2881 1984 2565 2268 
Q 2250 2553 1709 2553 
Q 1456 2553 1204 2497 
Q 953 2441 691 2322 
L 691 4666 
z
" transform="scale(0.015625)"/>
      <path id="DejaVuSans-3a" d="M 750 794 
L 1409 794 
L 1409 0 
L 750 0 
L 750 794 
z
M 750 3309 
L 1409 3309 
L 1409 2516 
L 750 2516 
L 750 3309 
z
" transform="scale(0.015625)"/>
     </defs>
     <use xlink:href="#DejaVuSans-35"/>
     <use xlink:href="#DejaVuSans-31" x="63.623047"/>
     <use xlink:href="#DejaVuSans-20" x="127.246094"/>
     <use xlink:href="#DejaVuSans-74" x="159.033203"/>
     <use xlink:href="#DejaVuSans-61" x="198.242188"/>
     <use xlink:href="#DejaVuSans-72" x="259.521484"/>
     <use xlink:href="#DejaVuSans-67" x="298.884766"/>
     <use xlink:href="#DejaVuSans-65" x="362.361328"/>
     <use xlink:href="#DejaVuSans-74" x="423.884766"/>
     <use xlink:href="#DejaVuSans-73" x="463.09375"/>
     <use xlink:href="#DejaVuSans-3a" x="515.193359"/>
     <use xlink:href="#DejaVuSans-20" x="548.884766"/>
     <use xlink:href="#DejaVuSans-31" x="580.671875"/>
     <use xlink:href="#DejaVuSans-30" x="644.294922"/>
     <use xlink:href="#DejaVuSans-30" x="707.917969"/>
     <use xlink:href="#DejaVuSans-2e" x="771.541016"/>
     <use xlink:href="#DejaVuSans-2e" x="803.328125"/>
     <use xlink:href="#DejaVuSans-31" x="835.115234"/>
     <use xlink:href="#DejaVuSans-65" x="898.738281"/>
     <use xlink:href="#DejaVuSans-2d" x="960.261719"/>
     <use xlink:href="#DejaVuSans-30" x="996.345703"/>
     <use xlink:href="#DejaVuSans-38" x="1059.96875"/>
    </g>
    <!-- 15 instances -->
    <g transform="translate(60.632064 60.954904)scale(0.102 -0.102)">
     <use xlink:href="#DejaVuSans-31"/>
     <use xlink:href="#DejaVuSans-35" x="63.623047"/>
     <use xlink:href="#DejaVuSans-20" x="127.246094"/>
     <use xlink:href="#DejaVuSans-69" x="159.033203"/>
     <use xlink:href="#DejaVuSans-6e" x="186.816406"/>
     <use xlink:href="#DejaVuSans-73" x="250.195312"/>
     <use xlink:href="#DejaVuSans-74" x="302.294922"/>
     <use xlink:href="#DejaVuSans-61" x="341.503906"/>
     <use xlink:href="#DejaVuSans-6e" x="402.783203"/>
     <use xlink:href="#DejaVuSans-63" x="466.162109"/>
     <use xlink:href="#DejaVuSans-65" x="521.142578"/>
     <use xlink:href="#DejaVuSans-73" x="582.666016"/>
    </g>
   </g>
   <g id="text_17">
    <!-- v2.6 -->
    <g style="fill: #808080" transform="translate(198.292262 294.151352)scale(0.1 -0.1)">
     <use xlink:href="#DejaVuSans-76"/>
     <use xlink:href="#DejaVuSans-32" x="59.179688"/>
     <use xlink:href="#DejaVuSans-2e" x="122.802734"/>
     <use xlink:href="#DejaVuSans-36" x="154.589844"/>
    </g>
   </g>
   <g id="text_18">
    <!-- 20 Schwefel x*sin(x) -->
    <g transform="translate(106.189137 21.648)scale(0.2 -0.2)">
     <defs>
      <path id="DejaVuSans-68" d="M 3513 2113 
L 3513 0 
L 2938 0 
L 2938 2094 
Q 2938 2591 2744 2837 
Q 2550 3084 2163 3084 
Q 1697 3084 1428 2787 
Q 1159 2491 1159 1978 
L 1159 0 
L 581 0 
L 581 4863 
L 1159 4863 
L 1159 2956 
Q 1366 3272 1645 3428 
Q 1925 3584 2291 3584 
Q 2894 3584 3203 3211 
Q 3513 2838 3513 2113 
z
" transform="scale(0.015625)"/>
      <path id="DejaVuSans-77" d="M 269 3500 
L 844 3500 
L 1563 769 
L 2278 3500 
L 2956 3500 
L 3675 769 
L 4391 3500 
L 4966 3500 
L 4050 0 
L 3372 0 
L 2619 2869 
L 1863 0 
L 1184 0 
L 269 3500 
z
" transform="scale(0.015625)"/>
      <path id="DejaVuSans-78" d="M 3513 3500 
L 2247 1797 
L 3578 0 
L 2900 0 
L 1881 1375 
L 863 0 
L 184 0 
L 1544 1831 
L 300 3500 
L 978 3500 
L 1906 2253 
L 2834 3500 
L 3513 3500 
z
" transform="scale(0.015625)"/>
      <path id="DejaVuSans-2a" d="M 3009 3897 
L 1888 3291 
L 3009 2681 
L 2828 2375 
L 1778 3009 
L 1778 1831 
L 1422 1831 
L 1422 3009 
L 372 2375 
L 191 2681 
L 1313 3291 
L 191 3897 
L 372 4206 
L 1422 3572 
L 1422 4750 
L 1778 4750 
L 1778 3572 
L 2828 4206 
L 3009 3897 
z
" transform="scale(0.015625)"/>
     </defs>
     <use xlink:href="#DejaVuSans-32"/>
     <use xlink:href="#DejaVuSans-30" x="63.623047"/>
     <use xlink:href="#DejaVuSans-20" x="127.246094"/>
     <use xlink:href="#DejaVuSans-53" x="159.033203"/>
     <use xlink:href="#DejaVuSans-63" x="222.509766"/>
     <use xlink:href="#DejaVuSans-68" x="277.490234"/>
     <use xlink:href="#DejaVuSans-77" x="340.869141"/>
     <use xlink:href="#DejaVuSans-65" x="422.65625"/>
     <use xlink:href="#DejaVuSans-66" x="484.179688"/>
     <use xlink:href="#DejaVuSans-65" x="519.384766"/>
     <use xlink:href="#DejaVuSans-6c" x="580.908203"/>
     <use xlink:href="#DejaVuSans-20" x="608.691406"/>
     <use xlink:href="#DejaVuSans-78" x="640.478516"/>
     <use xlink:href="#DejaVuSans-2a" x="699.658203"/>
     <use xlink:href="#DejaVuSans-73" x="749.658203"/>
     <use xlink:href="#DejaVuSans-69" x="801.757812"/>
     <use xlink:href="#DejaVuSans-6e" x="829.541016"/>
     <use xlink:href="#DejaVuSans-28" x="892.919922"/>
     <use xlink:href="#DejaVuSans-78" x="931.933594"/>
     <use xlink:href="#DejaVuSans-29" x="991.113281"/>
    </g>
   </g>
  </g>
 </g>
 <defs>
  <clipPath id="ped9b583516">
   <rect x="57.6" y="27.648" width="303.2064" height="271.296"/>
  </clipPath>
 </defs>
</svg>
