<?xml version="1.0" encoding="utf-8" standalone="no"?>
<!DOCTYPE svg PUBLIC "-//W3C//DTD SVG 1.1//EN"
  "http://www.w3.org/Graphics/SVG/1.1/DTD/svg11.dtd">
<svg xmlns:xlink="http://www.w3.org/1999/xlink" width="460.8pt" height="345.6pt" viewBox="0 0 460.8 345.6" xmlns="http://www.w3.org/2000/svg" version="1.1">
 <metadata>
  <rdf:RDF xmlns:dc="http://purl.org/dc/elements/1.1/" xmlns:cc="http://creativecommons.org/ns#" xmlns:rdf="http://www.w3.org/1999/02/22-rdf-syntax-ns#">
   <cc:Work>
    <dc:type rdf:resource="http://purl.org/dc/dcmitype/StillImage"/>
    <dc:date>2024-05-29T08:06:10.487332</dc:date>
    <dc:format>image/svg+xml</dc:format>
    <dc:creator>
     <cc:Agent>
      <dc:title>Matplotlib v3.5.1, https://matplotlib.org/</dc:title>
     </cc:Agent>
    </dc:creator>
   </cc:Work>
  </rdf:RDF>
 </metadata>
 <defs>
  <style type="text/css">*{stroke-linejoin: round; stroke-linecap: butt}</style>
 </defs>
 <g id="figure_1">
  <g id="patch_1">
   <path d="M 0 345.6 
L 460.8 345.6 
L 460.8 0 
L 0 0 
z
" style="fill: #ffffff"/>
  </g>
  <g id="axes_1">
   <g id="patch_2">
    <path d="M 57.6 298.944 
L 360.8064 298.944 
L 360.8064 27.648 
L 57.6 27.648 
z
" style="fill: #ffffff"/>
   </g>
   <g id="line2d_1">
    <path d="M 27.323974 298.944 
L 27.323974 272.346353 
L 47.990577 272.346353 
L 47.990577 267.026824 
L 68.65718 267.026824 
L 68.65718 261.707294 
L 93.098709 261.707294 
L 93.098709 256.387765 
L 110.674517 256.387765 
L 110.674517 251.068235 
L 130.734242 251.068235 
L 130.734242 245.748706 
L 144.895711 245.748706 
L 144.895711 240.429176 
L 153.854866 240.429176 
L 153.854866 235.109647 
L 165.392072 235.109647 
L 165.392072 229.790118 
L 182.972677 229.790118 
L 182.972677 224.470588 
L 193.563551 224.470588 
L 193.563551 219.151059 
L 207.245976 219.151059 
L 207.245976 213.831529 
L 218.897157 213.831529 
L 218.897157 208.512 
L 219.170887 208.512 
L 219.170887 203.192471 
L 219.267989 203.192471 
L 219.267989 197.872941 
L 219.691698 197.872941 
L 219.691698 192.553412 
L 219.879466 192.553412 
L 219.879466 187.233882 
L 220.098742 187.233882 
L 220.098742 181.914353 
L 220.288451 181.914353 
L 220.288451 176.594824 
L 220.382593 176.594824 
L 220.382593 171.275294 
L 222.158443 171.275294 
L 222.158443 165.955765 
L 222.260939 165.955765 
L 222.260939 160.636235 
L 222.393001 160.636235 
L 222.393001 155.316706 
L 222.467798 155.316706 
L 222.467798 149.997176 
L 222.537029 149.997176 
L 222.537029 144.677647 
L 222.613008 144.677647 
L 222.613008 139.358118 
L 222.69565 139.358118 
L 222.69565 134.038588 
L 222.777931 134.038588 
L 222.777931 128.719059 
L 222.871363 128.719059 
L 222.871363 123.399529 
L 222.933967 123.399529 
L 222.933967 118.08 
L 223.008362 118.08 
L 223.008362 112.760471 
L 223.061403 112.760471 
L 223.061403 107.440941 
L 223.135864 107.440941 
L 223.135864 102.121412 
L 223.227539 102.121412 
L 223.227539 96.801882 
L 223.265324 96.801882 
L 223.265324 91.482353 
L 223.326072 91.482353 
L 223.326072 86.162824 
L 223.415151 86.162824 
L 223.415151 80.843294 
L 223.47486 80.843294 
L 223.47486 75.523765 
L 223.549371 75.523765 
L 223.549371 70.204235 
L 223.60423 70.204235 
L 223.60423 64.884706 
L 223.678231 64.884706 
L 223.678231 59.565176 
L 223.746999 59.565176 
L 223.746999 54.245647 
L 223.802382 54.245647 
L 223.802382 48.926118 
L 223.896867 48.926118 
L 223.896867 43.606588 
L 223.9643 43.606588 
L 223.9643 38.287059 
L 224.02067 38.287059 
L 224.02067 32.967529 
L 224.090358 32.967529 
L 224.090358 27.648 
L 360.8064 27.648 
" style="fill: none; stroke: #f5deb3; stroke-width: 4; stroke-linecap: square"/>
   </g>
   <g id="line2d_2">
    <defs>
     <path id="mbf9139f0a6" d="M 0 7.778175 
L 7.778175 0 
L 0 -7.778175 
L -7.778175 0 
z
" style="stroke: #f5deb3; stroke-width: 1.5; stroke-linejoin: miter"/>
    </defs>
    <g>
     <use xlink:href="#mbf9139f0a6" x="110.674517" y="251.068235" style="fill: #f5deb3; stroke: #f5deb3; stroke-width: 1.5; stroke-linejoin: miter"/>
     <use xlink:href="#mbf9139f0a6" x="220.288451" y="181.914353" style="fill: #f5deb3; stroke: #f5deb3; stroke-width: 1.5; stroke-linejoin: miter"/>
     <use xlink:href="#mbf9139f0a6" x="223.47486" y="75.523765" style="fill: #f5deb3; stroke: #f5deb3; stroke-width: 1.5; stroke-linejoin: miter"/>
     <use xlink:href="#mbf9139f0a6" x="224.090358" y="27.648" style="fill: #f5deb3; stroke: #f5deb3; stroke-width: 1.5; stroke-linejoin: miter"/>
     <use xlink:href="#mbf9139f0a6" x="224.090358" y="27.648" style="fill: #f5deb3; stroke: #f5deb3; stroke-width: 1.5; stroke-linejoin: miter"/>
     <use xlink:href="#mbf9139f0a6" x="360.8064" y="27.648" style="fill: #f5deb3; stroke: #f5deb3; stroke-width: 1.5; stroke-linejoin: miter"/>
    </g>
   </g>
   <g id="line2d_3">
    <path style="fill: none; stroke: #f5deb3; stroke-width: 4; stroke-linecap: square"/>
    <g/>
   </g>
   <g id="line2d_4">
    <path d="M 360.8064 27.648 
L 380.514816 33.07392 
" style="fill: none; stroke: #f5deb3; stroke-width: 4; stroke-linecap: square"/>
    <g>
     <use xlink:href="#mbf9139f0a6" x="360.8064" y="27.648" style="fill: #f5deb3; stroke: #f5deb3; stroke-width: 1.5; stroke-linejoin: miter"/>
     <use xlink:href="#mbf9139f0a6" x="380.514816" y="33.07392" style="fill: #f5deb3; stroke: #f5deb3; stroke-width: 1.5; stroke-linejoin: miter"/>
    </g>
   </g>
   <g id="matplotlib.axis_1">
    <g id="xtick_1">
     <g id="line2d_5">
      <path d="M 57.6 298.944 
L 57.6 27.648 
" clip-path="url(#p53200223dc)" style="fill: none; stroke: #b0b0b0; stroke-width: 0.8; stroke-linecap: square"/>
     </g>
     <g id="line2d_6">
      <defs>
       <path id="m63dac23587" d="M 0 0 
L 0 3.5 
" style="stroke: #000000; stroke-width: 0.8"/>
      </defs>
      <g>
       <use xlink:href="#m63dac23587" x="57.6" y="298.944" style="stroke: #000000; stroke-width: 0.8"/>
      </g>
     </g>
     <g id="text_1">
      <!-- 0 -->
      <g transform="translate(52.191875 318.861344)scale(0.17 -0.17)">
       <defs>
        <path id="DejaVuSans-30" d="M 2034 4250 
Q 1547 4250 1301 3770 
Q 1056 3291 1056 2328 
Q 1056 1369 1301 889 
Q 1547 409 2034 409 
Q 2525 409 2770 889 
Q 3016 1369 3016 2328 
Q 3016 3291 2770 3770 
Q 2525 4250 2034 4250 
z
M 2034 4750 
Q 2819 4750 3233 4129 
Q 3647 3509 3647 2328 
Q 3647 1150 3233 529 
Q 2819 -91 2034 -91 
Q 1250 -91 836 529 
Q 422 1150 422 2328 
Q 422 3509 836 4129 
Q 1250 4750 2034 4750 
z
" transform="scale(0.015625)"/>
       </defs>
       <use xlink:href="#DejaVuSans-30"/>
      </g>
     </g>
    </g>
    <g id="xtick_2">
     <g id="line2d_7">
      <path d="M 144.2304 298.944 
L 144.2304 27.648 
" clip-path="url(#p53200223dc)" style="fill: none; stroke: #b0b0b0; stroke-width: 0.8; stroke-linecap: square"/>
     </g>
     <g id="line2d_8">
      <g>
       <use xlink:href="#m63dac23587" x="144.2304" y="298.944" style="stroke: #000000; stroke-width: 0.8"/>
      </g>
     </g>
     <g id="text_2">
      <!-- 2 -->
      <g transform="translate(138.822275 318.861344)scale(0.17 -0.17)">
       <defs>
        <path id="DejaVuSans-32" d="M 1228 531 
L 3431 531 
L 3431 0 
L 469 0 
L 469 531 
Q 828 903 1448 1529 
Q 2069 2156 2228 2338 
Q 2531 2678 2651 2914 
Q 2772 3150 2772 3378 
Q 2772 3750 2511 3984 
Q 2250 4219 1831 4219 
Q 1534 4219 1204 4116 
Q 875 4013 500 3803 
L 500 4441 
Q 881 4594 1212 4672 
Q 1544 4750 1819 4750 
Q 2544 4750 2975 4387 
Q 3406 4025 3406 3419 
Q 3406 3131 3298 2873 
Q 3191 2616 2906 2266 
Q 2828 2175 2409 1742 
Q 1991 1309 1228 531 
z
" transform="scale(0.015625)"/>
       </defs>
       <use xlink:href="#DejaVuSans-32"/>
      </g>
     </g>
    </g>
    <g id="xtick_3">
     <g id="line2d_9">
      <path d="M 230.8608 298.944 
L 230.8608 27.648 
" clip-path="url(#p53200223dc)" style="fill: none; stroke: #b0b0b0; stroke-width: 0.8; stroke-linecap: square"/>
     </g>
     <g id="line2d_10">
      <g>
       <use xlink:href="#m63dac23587" x="230.8608" y="298.944" style="stroke: #000000; stroke-width: 0.8"/>
      </g>
     </g>
     <g id="text_3">
      <!-- 4 -->
      <g transform="translate(225.452675 318.861344)scale(0.17 -0.17)">
       <defs>
        <path id="DejaVuSans-34" d="M 2419 4116 
L 825 1625 
L 2419 1625 
L 2419 4116 
z
M 2253 4666 
L 3047 4666 
L 3047 1625 
L 3713 1625 
L 3713 1100 
L 3047 1100 
L 3047 0 
L 2419 0 
L 2419 1100 
L 313 1100 
L 313 1709 
L 2253 4666 
z
" transform="scale(0.015625)"/>
       </defs>
       <use xlink:href="#DejaVuSans-34"/>
      </g>
     </g>
    </g>
    <g id="xtick_4">
     <g id="line2d_11">
      <path d="M 317.4912 298.944 
L 317.4912 27.648 
" clip-path="url(#p53200223dc)" style="fill: none; stroke: #b0b0b0; stroke-width: 0.8; stroke-linecap: square"/>
     </g>
     <g id="line2d_12">
      <g>
       <use xlink:href="#m63dac23587" x="317.4912" y="298.944" style="stroke: #000000; stroke-width: 0.8"/>
      </g>
     </g>
     <g id="text_4">
      <!-- 6 -->
      <g transform="translate(312.083075 318.861344)scale(0.17 -0.17)">
       <defs>
        <path id="DejaVuSans-36" d="M 2113 2584 
Q 1688 2584 1439 2293 
Q 1191 2003 1191 1497 
Q 1191 994 1439 701 
Q 1688 409 2113 409 
Q 2538 409 2786 701 
Q 3034 994 3034 1497 
Q 3034 2003 2786 2293 
Q 2538 2584 2113 2584 
z
M 3366 4563 
L 3366 3988 
Q 3128 4100 2886 4159 
Q 2644 4219 2406 4219 
Q 1781 4219 1451 3797 
Q 1122 3375 1075 2522 
Q 1259 2794 1537 2939 
Q 1816 3084 2150 3084 
Q 2853 3084 3261 2657 
Q 3669 2231 3669 1497 
Q 3669 778 3244 343 
Q 2819 -91 2113 -91 
Q 1303 -91 875 529 
Q 447 1150 447 2328 
Q 447 3434 972 4092 
Q 1497 4750 2381 4750 
Q 2619 4750 2861 4703 
Q 3103 4656 3366 4563 
z
" transform="scale(0.015625)"/>
       </defs>
       <use xlink:href="#DejaVuSans-36"/>
      </g>
     </g>
    </g>
    <g id="xtick_5">
     <g id="line2d_13">
      <path d="M 100.9152 298.944 
L 100.9152 27.648 
" clip-path="url(#p53200223dc)" style="fill: none; stroke: #b0b0b0; stroke-width: 0.8; stroke-linecap: square"/>
     </g>
     <g id="line2d_14">
      <defs>
       <path id="m08e97306d4" d="M 0 0 
L 0 2 
" style="stroke: #000000; stroke-width: 0.6"/>
      </defs>
      <g>
       <use xlink:href="#m08e97306d4" x="100.9152" y="298.944" style="stroke: #000000; stroke-width: 0.6"/>
      </g>
     </g>
    </g>
    <g id="xtick_6">
     <g id="line2d_15">
      <path d="M 187.5456 298.944 
L 187.5456 27.648 
" clip-path="url(#p53200223dc)" style="fill: none; stroke: #b0b0b0; stroke-width: 0.8; stroke-linecap: square"/>
     </g>
     <g id="line2d_16">
      <g>
       <use xlink:href="#m08e97306d4" x="187.5456" y="298.944" style="stroke: #000000; stroke-width: 0.6"/>
      </g>
     </g>
    </g>
    <g id="xtick_7">
     <g id="line2d_17">
      <path d="M 274.176 298.944 
L 274.176 27.648 
" clip-path="url(#p53200223dc)" style="fill: none; stroke: #b0b0b0; stroke-width: 0.8; stroke-linecap: square"/>
     </g>
     <g id="line2d_18">
      <g>
       <use xlink:href="#m08e97306d4" x="274.176" y="298.944" style="stroke: #000000; stroke-width: 0.6"/>
      </g>
     </g>
    </g>
    <g id="xtick_8">
     <g id="line2d_19">
      <path d="M 360.8064 298.944 
L 360.8064 27.648 
" clip-path="url(#p53200223dc)" style="fill: none; stroke: #b0b0b0; stroke-width: 0.8; stroke-linecap: square"/>
     </g>
     <g id="line2d_20">
      <g>
       <use xlink:href="#m08e97306d4" x="360.8064" y="298.944" style="stroke: #000000; stroke-width: 0.6"/>
      </g>
     </g>
    </g>
    <g id="text_5">
     <!-- log10(# f-evals / dimension) -->
     <g transform="translate(88.823278 339.314156)scale(0.17 -0.17)">
      <defs>
       <path id="DejaVuSans-6c" d="M 603 4863 
L 1178 4863 
L 1178 0 
L 603 0 
L 603 4863 
z
" transform="scale(0.015625)"/>
       <path id="DejaVuSans-6f" d="M 1959 3097 
Q 1497 3097 1228 2736 
Q 959 2375 959 1747 
Q 959 1119 1226 758 
Q 1494 397 1959 397 
Q 2419 397 2687 759 
Q 2956 1122 2956 1747 
Q 2956 2369 2687 2733 
Q 2419 3097 1959 3097 
z
M 1959 3584 
Q 2709 3584 3137 3096 
Q 3566 2609 3566 1747 
Q 3566 888 3137 398 
Q 2709 -91 1959 -91 
Q 1206 -91 779 398 
Q 353 888 353 1747 
Q 353 2609 779 3096 
Q 1206 3584 1959 3584 
z
" transform="scale(0.015625)"/>
       <path id="DejaVuSans-67" d="M 2906 1791 
Q 2906 2416 2648 2759 
Q 2391 3103 1925 3103 
Q 1463 3103 1205 2759 
Q 947 2416 947 1791 
Q 947 1169 1205 825 
Q 1463 481 1925 481 
Q 2391 481 2648 825 
Q 2906 1169 2906 1791 
z
M 3481 434 
Q 3481 -459 3084 -895 
Q 2688 -1331 1869 -1331 
Q 1566 -1331 1297 -1286 
Q 1028 -1241 775 -1147 
L 775 -588 
Q 1028 -725 1275 -790 
Q 1522 -856 1778 -856 
Q 2344 -856 2625 -561 
Q 2906 -266 2906 331 
L 2906 616 
Q 2728 306 2450 153 
Q 2172 0 1784 0 
Q 1141 0 747 490 
Q 353 981 353 1791 
Q 353 2603 747 3093 
Q 1141 3584 1784 3584 
Q 2172 3584 2450 3431 
Q 2728 3278 2906 2969 
L 2906 3500 
L 3481 3500 
L 3481 434 
z
" transform="scale(0.015625)"/>
       <path id="DejaVuSans-31" d="M 794 531 
L 1825 531 
L 1825 4091 
L 703 3866 
L 703 4441 
L 1819 4666 
L 2450 4666 
L 2450 531 
L 3481 531 
L 3481 0 
L 794 0 
L 794 531 
z
" transform="scale(0.015625)"/>
       <path id="DejaVuSans-28" d="M 1984 4856 
Q 1566 4138 1362 3434 
Q 1159 2731 1159 2009 
Q 1159 1288 1364 580 
Q 1569 -128 1984 -844 
L 1484 -844 
Q 1016 -109 783 600 
Q 550 1309 550 2009 
Q 550 2706 781 3412 
Q 1013 4119 1484 4856 
L 1984 4856 
z
" transform="scale(0.015625)"/>
       <path id="DejaVuSans-23" d="M 3272 2816 
L 2363 2816 
L 2100 1772 
L 3016 1772 
L 3272 2816 
z
M 2803 4594 
L 2478 3297 
L 3391 3297 
L 3719 4594 
L 4219 4594 
L 3897 3297 
L 4872 3297 
L 4872 2816 
L 3775 2816 
L 3519 1772 
L 4513 1772 
L 4513 1294 
L 3397 1294 
L 3072 0 
L 2572 0 
L 2894 1294 
L 1978 1294 
L 1656 0 
L 1153 0 
L 1478 1294 
L 494 1294 
L 494 1772 
L 1594 1772 
L 1856 2816 
L 850 2816 
L 850 3297 
L 1978 3297 
L 2297 4594 
L 2803 4594 
z
" transform="scale(0.015625)"/>
       <path id="DejaVuSans-20" transform="scale(0.015625)"/>
       <path id="DejaVuSans-66" d="M 2375 4863 
L 2375 4384 
L 1825 4384 
Q 1516 4384 1395 4259 
Q 1275 4134 1275 3809 
L 1275 3500 
L 2222 3500 
L 2222 3053 
L 1275 3053 
L 1275 0 
L 697 0 
L 697 3053 
L 147 3053 
L 147 3500 
L 697 3500 
L 697 3744 
Q 697 4328 969 4595 
Q 1241 4863 1831 4863 
L 2375 4863 
z
" transform="scale(0.015625)"/>
       <path id="DejaVuSans-2d" d="M 313 2009 
L 1997 2009 
L 1997 1497 
L 313 1497 
L 313 2009 
z
" transform="scale(0.015625)"/>
       <path id="DejaVuSans-65" d="M 3597 1894 
L 3597 1613 
L 953 1613 
Q 991 1019 1311 708 
Q 1631 397 2203 397 
Q 2534 397 2845 478 
Q 3156 559 3463 722 
L 3463 178 
Q 3153 47 2828 -22 
Q 2503 -91 2169 -91 
Q 1331 -91 842 396 
Q 353 884 353 1716 
Q 353 2575 817 3079 
Q 1281 3584 2069 3584 
Q 2775 3584 3186 3129 
Q 3597 2675 3597 1894 
z
M 3022 2063 
Q 3016 2534 2758 2815 
Q 2500 3097 2075 3097 
Q 1594 3097 1305 2825 
Q 1016 2553 972 2059 
L 3022 2063 
z
" transform="scale(0.015625)"/>
       <path id="DejaVuSans-76" d="M 191 3500 
L 800 3500 
L 1894 563 
L 2988 3500 
L 3597 3500 
L 2284 0 
L 1503 0 
L 191 3500 
z
" transform="scale(0.015625)"/>
       <path id="DejaVuSans-61" d="M 2194 1759 
Q 1497 1759 1228 1600 
Q 959 1441 959 1056 
Q 959 750 1161 570 
Q 1363 391 1709 391 
Q 2188 391 2477 730 
Q 2766 1069 2766 1631 
L 2766 1759 
L 2194 1759 
z
M 3341 1997 
L 3341 0 
L 2766 0 
L 2766 531 
Q 2569 213 2275 61 
Q 1981 -91 1556 -91 
Q 1019 -91 701 211 
Q 384 513 384 1019 
Q 384 1609 779 1909 
Q 1175 2209 1959 2209 
L 2766 2209 
L 2766 2266 
Q 2766 2663 2505 2880 
Q 2244 3097 1772 3097 
Q 1472 3097 1187 3025 
Q 903 2953 641 2809 
L 641 3341 
Q 956 3463 1253 3523 
Q 1550 3584 1831 3584 
Q 2591 3584 2966 3190 
Q 3341 2797 3341 1997 
z
" transform="scale(0.015625)"/>
       <path id="DejaVuSans-73" d="M 2834 3397 
L 2834 2853 
Q 2591 2978 2328 3040 
Q 2066 3103 1784 3103 
Q 1356 3103 1142 2972 
Q 928 2841 928 2578 
Q 928 2378 1081 2264 
Q 1234 2150 1697 2047 
L 1894 2003 
Q 2506 1872 2764 1633 
Q 3022 1394 3022 966 
Q 3022 478 2636 193 
Q 2250 -91 1575 -91 
Q 1294 -91 989 -36 
Q 684 19 347 128 
L 347 722 
Q 666 556 975 473 
Q 1284 391 1588 391 
Q 1994 391 2212 530 
Q 2431 669 2431 922 
Q 2431 1156 2273 1281 
Q 2116 1406 1581 1522 
L 1381 1569 
Q 847 1681 609 1914 
Q 372 2147 372 2553 
Q 372 3047 722 3315 
Q 1072 3584 1716 3584 
Q 2034 3584 2315 3537 
Q 2597 3491 2834 3397 
z
" transform="scale(0.015625)"/>
       <path id="DejaVuSans-2f" d="M 1625 4666 
L 2156 4666 
L 531 -594 
L 0 -594 
L 1625 4666 
z
" transform="scale(0.015625)"/>
       <path id="DejaVuSans-64" d="M 2906 2969 
L 2906 4863 
L 3481 4863 
L 3481 0 
L 2906 0 
L 2906 525 
Q 2725 213 2448 61 
Q 2172 -91 1784 -91 
Q 1150 -91 751 415 
Q 353 922 353 1747 
Q 353 2572 751 3078 
Q 1150 3584 1784 3584 
Q 2172 3584 2448 3432 
Q 2725 3281 2906 2969 
z
M 947 1747 
Q 947 1113 1208 752 
Q 1469 391 1925 391 
Q 2381 391 2643 752 
Q 2906 1113 2906 1747 
Q 2906 2381 2643 2742 
Q 2381 3103 1925 3103 
Q 1469 3103 1208 2742 
Q 947 2381 947 1747 
z
" transform="scale(0.015625)"/>
       <path id="DejaVuSans-69" d="M 603 3500 
L 1178 3500 
L 1178 0 
L 603 0 
L 603 3500 
z
M 603 4863 
L 1178 4863 
L 1178 4134 
L 603 4134 
L 603 4863 
z
" transform="scale(0.015625)"/>
       <path id="DejaVuSans-6d" d="M 3328 2828 
Q 3544 3216 3844 3400 
Q 4144 3584 4550 3584 
Q 5097 3584 5394 3201 
Q 5691 2819 5691 2113 
L 5691 0 
L 5113 0 
L 5113 2094 
Q 5113 2597 4934 2840 
Q 4756 3084 4391 3084 
Q 3944 3084 3684 2787 
Q 3425 2491 3425 1978 
L 3425 0 
L 2847 0 
L 2847 2094 
Q 2847 2600 2669 2842 
Q 2491 3084 2119 3084 
Q 1678 3084 1418 2786 
Q 1159 2488 1159 1978 
L 1159 0 
L 581 0 
L 581 3500 
L 1159 3500 
L 1159 2956 
Q 1356 3278 1631 3431 
Q 1906 3584 2284 3584 
Q 2666 3584 2933 3390 
Q 3200 3197 3328 2828 
z
" transform="scale(0.015625)"/>
       <path id="DejaVuSans-6e" d="M 3513 2113 
L 3513 0 
L 2938 0 
L 2938 2094 
Q 2938 2591 2744 2837 
Q 2550 3084 2163 3084 
Q 1697 3084 1428 2787 
Q 1159 2491 1159 1978 
L 1159 0 
L 581 0 
L 581 3500 
L 1159 3500 
L 1159 2956 
Q 1366 3272 1645 3428 
Q 1925 3584 2291 3584 
Q 2894 3584 3203 3211 
Q 3513 2838 3513 2113 
z
" transform="scale(0.015625)"/>
       <path id="DejaVuSans-29" d="M 513 4856 
L 1013 4856 
Q 1481 4119 1714 3412 
Q 1947 2706 1947 2009 
Q 1947 1309 1714 600 
Q 1481 -109 1013 -844 
L 513 -844 
Q 928 -128 1133 580 
Q 1338 1288 1338 2009 
Q 1338 2731 1133 3434 
Q 928 4138 513 4856 
z
" transform="scale(0.015625)"/>
      </defs>
      <use xlink:href="#DejaVuSans-6c"/>
      <use xlink:href="#DejaVuSans-6f" x="27.783203"/>
      <use xlink:href="#DejaVuSans-67" x="88.964844"/>
      <use xlink:href="#DejaVuSans-31" x="152.441406"/>
      <use xlink:href="#DejaVuSans-30" x="216.064453"/>
      <use xlink:href="#DejaVuSans-28" x="279.6875"/>
      <use xlink:href="#DejaVuSans-23" x="318.701172"/>
      <use xlink:href="#DejaVuSans-20" x="402.490234"/>
      <use xlink:href="#DejaVuSans-66" x="434.277344"/>
      <use xlink:href="#DejaVuSans-2d" x="463.982422"/>
      <use xlink:href="#DejaVuSans-65" x="500.066406"/>
      <use xlink:href="#DejaVuSans-76" x="561.589844"/>
      <use xlink:href="#DejaVuSans-61" x="620.769531"/>
      <use xlink:href="#DejaVuSans-6c" x="682.048828"/>
      <use xlink:href="#DejaVuSans-73" x="709.832031"/>
      <use xlink:href="#DejaVuSans-20" x="761.931641"/>
      <use xlink:href="#DejaVuSans-2f" x="793.71875"/>
      <use xlink:href="#DejaVuSans-20" x="827.410156"/>
      <use xlink:href="#DejaVuSans-64" x="859.197266"/>
      <use xlink:href="#DejaVuSans-69" x="922.673828"/>
      <use xlink:href="#DejaVuSans-6d" x="950.457031"/>
      <use xlink:href="#DejaVuSans-65" x="1047.869141"/>
      <use xlink:href="#DejaVuSans-6e" x="1109.392578"/>
      <use xlink:href="#DejaVuSans-73" x="1172.771484"/>
      <use xlink:href="#DejaVuSans-69" x="1224.871094"/>
      <use xlink:href="#DejaVuSans-6f" x="1252.654297"/>
      <use xlink:href="#DejaVuSans-6e" x="1313.835938"/>
      <use xlink:href="#DejaVuSans-29" x="1377.214844"/>
     </g>
    </g>
   </g>
   <g id="matplotlib.axis_2">
    <g id="ytick_1">
     <g id="line2d_21">
      <path d="M 57.6 298.944 
L 360.8064 298.944 
" clip-path="url(#p53200223dc)" style="fill: none; stroke: #b0b0b0; stroke-width: 0.8; stroke-linecap: square"/>
     </g>
     <g id="line2d_22">
      <defs>
       <path id="m7ac3792310" d="M 0 0 
L -3.5 0 
" style="stroke: #000000; stroke-width: 0.8"/>
      </defs>
      <g>
       <use xlink:href="#m7ac3792310" x="57.6" y="298.944" style="stroke: #000000; stroke-width: 0.8"/>
      </g>
     </g>
     <g id="text_6">
      <!-- 0.0 -->
      <g transform="translate(25.155 305.02275)scale(0.16 -0.16)">
       <defs>
        <path id="DejaVuSans-2e" d="M 684 794 
L 1344 794 
L 1344 0 
L 684 0 
L 684 794 
z
" transform="scale(0.015625)"/>
       </defs>
       <use xlink:href="#DejaVuSans-30"/>
       <use xlink:href="#DejaVuSans-2e" x="63.623047"/>
       <use xlink:href="#DejaVuSans-30" x="95.410156"/>
      </g>
     </g>
    </g>
    <g id="ytick_2">
     <g id="line2d_23">
      <path d="M 57.6 244.6848 
L 360.8064 244.6848 
" clip-path="url(#p53200223dc)" style="fill: none; stroke: #b0b0b0; stroke-width: 0.8; stroke-linecap: square"/>
     </g>
     <g id="line2d_24">
      <g>
       <use xlink:href="#m7ac3792310" x="57.6" y="244.6848" style="stroke: #000000; stroke-width: 0.8"/>
      </g>
     </g>
     <g id="text_7">
      <!-- 0.2 -->
      <g transform="translate(25.155 250.76355)scale(0.16 -0.16)">
       <use xlink:href="#DejaVuSans-30"/>
       <use xlink:href="#DejaVuSans-2e" x="63.623047"/>
       <use xlink:href="#DejaVuSans-32" x="95.410156"/>
      </g>
     </g>
    </g>
    <g id="ytick_3">
     <g id="line2d_25">
      <path d="M 57.6 190.4256 
L 360.8064 190.4256 
" clip-path="url(#p53200223dc)" style="fill: none; stroke: #b0b0b0; stroke-width: 0.8; stroke-linecap: square"/>
     </g>
     <g id="line2d_26">
      <g>
       <use xlink:href="#m7ac3792310" x="57.6" y="190.4256" style="stroke: #000000; stroke-width: 0.8"/>
      </g>
     </g>
     <g id="text_8">
      <!-- 0.4 -->
      <g transform="translate(25.155 196.50435)scale(0.16 -0.16)">
       <use xlink:href="#DejaVuSans-30"/>
       <use xlink:href="#DejaVuSans-2e" x="63.623047"/>
       <use xlink:href="#DejaVuSans-34" x="95.410156"/>
      </g>
     </g>
    </g>
    <g id="ytick_4">
     <g id="line2d_27">
      <path d="M 57.6 136.1664 
L 360.8064 136.1664 
" clip-path="url(#p53200223dc)" style="fill: none; stroke: #b0b0b0; stroke-width: 0.8; stroke-linecap: square"/>
     </g>
     <g id="line2d_28">
      <g>
       <use xlink:href="#m7ac3792310" x="57.6" y="136.1664" style="stroke: #000000; stroke-width: 0.8"/>
      </g>
     </g>
     <g id="text_9">
      <!-- 0.6 -->
      <g transform="translate(25.155 142.24515)scale(0.16 -0.16)">
       <use xlink:href="#DejaVuSans-30"/>
       <use xlink:href="#DejaVuSans-2e" x="63.623047"/>
       <use xlink:href="#DejaVuSans-36" x="95.410156"/>
      </g>
     </g>
    </g>
    <g id="ytick_5">
     <g id="line2d_29">
      <path d="M 57.6 81.9072 
L 360.8064 81.9072 
" clip-path="url(#p53200223dc)" style="fill: none; stroke: #b0b0b0; stroke-width: 0.8; stroke-linecap: square"/>
     </g>
     <g id="line2d_30">
      <g>
       <use xlink:href="#m7ac3792310" x="57.6" y="81.9072" style="stroke: #000000; stroke-width: 0.8"/>
      </g>
     </g>
     <g id="text_10">
      <!-- 0.8 -->
      <g transform="translate(25.155 87.98595)scale(0.16 -0.16)">
       <defs>
        <path id="DejaVuSans-38" d="M 2034 2216 
Q 1584 2216 1326 1975 
Q 1069 1734 1069 1313 
Q 1069 891 1326 650 
Q 1584 409 2034 409 
Q 2484 409 2743 651 
Q 3003 894 3003 1313 
Q 3003 1734 2745 1975 
Q 2488 2216 2034 2216 
z
M 1403 2484 
Q 997 2584 770 2862 
Q 544 3141 544 3541 
Q 544 4100 942 4425 
Q 1341 4750 2034 4750 
Q 2731 4750 3128 4425 
Q 3525 4100 3525 3541 
Q 3525 3141 3298 2862 
Q 3072 2584 2669 2484 
Q 3125 2378 3379 2068 
Q 3634 1759 3634 1313 
Q 3634 634 3220 271 
Q 2806 -91 2034 -91 
Q 1263 -91 848 271 
Q 434 634 434 1313 
Q 434 1759 690 2068 
Q 947 2378 1403 2484 
z
M 1172 3481 
Q 1172 3119 1398 2916 
Q 1625 2713 2034 2713 
Q 2441 2713 2670 2916 
Q 2900 3119 2900 3481 
Q 2900 3844 2670 4047 
Q 2441 4250 2034 4250 
Q 1625 4250 1398 4047 
Q 1172 3844 1172 3481 
z
" transform="scale(0.015625)"/>
       </defs>
       <use xlink:href="#DejaVuSans-30"/>
       <use xlink:href="#DejaVuSans-2e" x="63.623047"/>
       <use xlink:href="#DejaVuSans-38" x="95.410156"/>
      </g>
     </g>
    </g>
    <g id="ytick_6">
     <g id="line2d_31">
      <path d="M 57.6 27.648 
L 360.8064 27.648 
" clip-path="url(#p53200223dc)" style="fill: none; stroke: #b0b0b0; stroke-width: 0.8; stroke-linecap: square"/>
     </g>
     <g id="line2d_32">
      <g>
       <use xlink:href="#m7ac3792310" x="57.6" y="27.648" style="stroke: #000000; stroke-width: 0.8"/>
      </g>
     </g>
     <g id="text_11">
      <!-- 1.0 -->
      <g transform="translate(25.155 33.72675)scale(0.16 -0.16)">
       <use xlink:href="#DejaVuSans-31"/>
       <use xlink:href="#DejaVuSans-2e" x="63.623047"/>
       <use xlink:href="#DejaVuSans-30" x="95.410156"/>
      </g>
     </g>
    </g>
    <g id="text_12">
     <!-- Fraction of function,target pairs -->
     <g transform="translate(17.619531 297.681)rotate(-90)scale(0.17 -0.17)">
      <defs>
       <path id="DejaVuSans-46" d="M 628 4666 
L 3309 4666 
L 3309 4134 
L 1259 4134 
L 1259 2759 
L 3109 2759 
L 3109 2228 
L 1259 2228 
L 1259 0 
L 628 0 
L 628 4666 
z
" transform="scale(0.015625)"/>
       <path id="DejaVuSans-72" d="M 2631 2963 
Q 2534 3019 2420 3045 
Q 2306 3072 2169 3072 
Q 1681 3072 1420 2755 
Q 1159 2438 1159 1844 
L 1159 0 
L 581 0 
L 581 3500 
L 1159 3500 
L 1159 2956 
Q 1341 3275 1631 3429 
Q 1922 3584 2338 3584 
Q 2397 3584 2469 3576 
Q 2541 3569 2628 3553 
L 2631 2963 
z
" transform="scale(0.015625)"/>
       <path id="DejaVuSans-63" d="M 3122 3366 
L 3122 2828 
Q 2878 2963 2633 3030 
Q 2388 3097 2138 3097 
Q 1578 3097 1268 2742 
Q 959 2388 959 1747 
Q 959 1106 1268 751 
Q 1578 397 2138 397 
Q 2388 397 2633 464 
Q 2878 531 3122 666 
L 3122 134 
Q 2881 22 2623 -34 
Q 2366 -91 2075 -91 
Q 1284 -91 818 406 
Q 353 903 353 1747 
Q 353 2603 823 3093 
Q 1294 3584 2113 3584 
Q 2378 3584 2631 3529 
Q 2884 3475 3122 3366 
z
" transform="scale(0.015625)"/>
       <path id="DejaVuSans-74" d="M 1172 4494 
L 1172 3500 
L 2356 3500 
L 2356 3053 
L 1172 3053 
L 1172 1153 
Q 1172 725 1289 603 
Q 1406 481 1766 481 
L 2356 481 
L 2356 0 
L 1766 0 
Q 1100 0 847 248 
Q 594 497 594 1153 
L 594 3053 
L 172 3053 
L 172 3500 
L 594 3500 
L 594 4494 
L 1172 4494 
z
" transform="scale(0.015625)"/>
       <path id="DejaVuSans-75" d="M 544 1381 
L 544 3500 
L 1119 3500 
L 1119 1403 
Q 1119 906 1312 657 
Q 1506 409 1894 409 
Q 2359 409 2629 706 
Q 2900 1003 2900 1516 
L 2900 3500 
L 3475 3500 
L 3475 0 
L 2900 0 
L 2900 538 
Q 2691 219 2414 64 
Q 2138 -91 1772 -91 
Q 1169 -91 856 284 
Q 544 659 544 1381 
z
M 1991 3584 
L 1991 3584 
z
" transform="scale(0.015625)"/>
       <path id="DejaVuSans-2c" d="M 750 794 
L 1409 794 
L 1409 256 
L 897 -744 
L 494 -744 
L 750 256 
L 750 794 
z
" transform="scale(0.015625)"/>
       <path id="DejaVuSans-70" d="M 1159 525 
L 1159 -1331 
L 581 -1331 
L 581 3500 
L 1159 3500 
L 1159 2969 
Q 1341 3281 1617 3432 
Q 1894 3584 2278 3584 
Q 2916 3584 3314 3078 
Q 3713 2572 3713 1747 
Q 3713 922 3314 415 
Q 2916 -91 2278 -91 
Q 1894 -91 1617 61 
Q 1341 213 1159 525 
z
M 3116 1747 
Q 3116 2381 2855 2742 
Q 2594 3103 2138 3103 
Q 1681 3103 1420 2742 
Q 1159 2381 1159 1747 
Q 1159 1113 1420 752 
Q 1681 391 2138 391 
Q 2594 391 2855 752 
Q 3116 1113 3116 1747 
z
" transform="scale(0.015625)"/>
      </defs>
      <use xlink:href="#DejaVuSans-46"/>
      <use xlink:href="#DejaVuSans-72" x="50.269531"/>
      <use xlink:href="#DejaVuSans-61" x="91.382812"/>
      <use xlink:href="#DejaVuSans-63" x="152.662109"/>
      <use xlink:href="#DejaVuSans-74" x="207.642578"/>
      <use xlink:href="#DejaVuSans-69" x="246.851562"/>
      <use xlink:href="#DejaVuSans-6f" x="274.634766"/>
      <use xlink:href="#DejaVuSans-6e" x="335.816406"/>
      <use xlink:href="#DejaVuSans-20" x="399.195312"/>
      <use xlink:href="#DejaVuSans-6f" x="430.982422"/>
      <use xlink:href="#DejaVuSans-66" x="492.164062"/>
      <use xlink:href="#DejaVuSans-20" x="527.369141"/>
      <use xlink:href="#DejaVuSans-66" x="559.15625"/>
      <use xlink:href="#DejaVuSans-75" x="594.361328"/>
      <use xlink:href="#DejaVuSans-6e" x="657.740234"/>
      <use xlink:href="#DejaVuSans-63" x="721.119141"/>
      <use xlink:href="#DejaVuSans-74" x="776.099609"/>
      <use xlink:href="#DejaVuSans-69" x="815.308594"/>
      <use xlink:href="#DejaVuSans-6f" x="843.091797"/>
      <use xlink:href="#DejaVuSans-6e" x="904.273438"/>
      <use xlink:href="#DejaVuSans-2c" x="967.652344"/>
      <use xlink:href="#DejaVuSans-74" x="999.439453"/>
      <use xlink:href="#DejaVuSans-61" x="1038.648438"/>
      <use xlink:href="#DejaVuSans-72" x="1099.927734"/>
      <use xlink:href="#DejaVuSans-67" x="1139.291016"/>
      <use xlink:href="#DejaVuSans-65" x="1202.767578"/>
      <use xlink:href="#DejaVuSans-74" x="1264.291016"/>
      <use xlink:href="#DejaVuSans-20" x="1303.5"/>
      <use xlink:href="#DejaVuSans-70" x="1335.287109"/>
      <use xlink:href="#DejaVuSans-61" x="1398.763672"/>
      <use xlink:href="#DejaVuSans-69" x="1460.042969"/>
      <use xlink:href="#DejaVuSans-72" x="1487.826172"/>
      <use xlink:href="#DejaVuSans-73" x="1528.939453"/>
     </g>
    </g>
   </g>
   <g id="line2d_33">
    <defs>
     <path id="mb827c350b0" d="M 0 1.5 
C 0.397805 1.5 0.77937 1.341951 1.06066 1.06066 
C 1.341951 0.77937 1.5 0.397805 1.5 0 
C 1.5 -0.397805 1.341951 -0.77937 1.06066 -1.06066 
C 0.77937 -1.341951 0.397805 -1.5 0 -1.5 
C -0.397805 -1.5 -0.77937 -1.341951 -1.06066 -1.06066 
C -1.341951 -0.77937 -1.5 -0.397805 -1.5 0 
C -1.5 0.397805 -1.341951 0.77937 -1.06066 1.06066 
C -0.77937 1.341951 -0.397805 1.5 0 1.5 
z
" style="stroke: #f5deb3"/>
    </defs>
    <g>
     <use xlink:href="#mb827c350b0" x="224.090358" y="27.648" style="fill: #f5deb3; stroke: #f5deb3"/>
     <use xlink:href="#mb827c350b0" x="224.090358" y="27.648" style="fill: #f5deb3; stroke: #f5deb3"/>
    </g>
   </g>
   <g id="line2d_34">
    <defs>
     <path id="m4620412c08" d="M 0 1.5 
C 0.397805 1.5 0.77937 1.341951 1.06066 1.06066 
C 1.341951 0.77937 1.5 0.397805 1.5 0 
C 1.5 -0.397805 1.341951 -0.77937 1.06066 -1.06066 
C 0.77937 -1.341951 0.397805 -1.5 0 -1.5 
C -0.397805 -1.5 -0.77937 -1.341951 -1.06066 -1.06066 
C -1.341951 -0.77937 -1.5 -0.397805 -1.5 0 
C -1.5 0.397805 -1.341951 0.77937 -1.06066 1.06066 
C -0.77937 1.341951 -0.397805 1.5 0 1.5 
z
" style="stroke: #000080"/>
    </defs>
    <g>
     <use xlink:href="#m4620412c08" x="356.679072" y="192.553412" style="fill: #000080; stroke: #000080"/>
     <use xlink:href="#m4620412c08" x="356.679072" y="192.553412" style="fill: #000080; stroke: #000080"/>
    </g>
   </g>
   <g id="line2d_35">
    <path d="M 27.323974 298.944 
L 27.323974 275.892706 
L 40.363149 275.892706 
L 40.363149 271.637082 
L 47.990577 271.637082 
L 47.990577 269.154635 
L 53.402323 269.154635 
L 53.402323 267.026824 
L 57.6 267.026824 
L 57.6 266.672188 
L 61.029752 266.672188 
L 61.029752 266.317553 
L 68.65718 266.317553 
L 68.65718 265.253647 
L 70.639174 265.253647 
L 70.639174 264.899012 
L 75.574654 264.899012 
L 75.574654 264.189741 
L 78.266603 264.189741 
L 78.266603 263.835106 
L 79.480672 263.835106 
L 79.480672 263.480471 
L 83.678349 263.480471 
L 83.678349 263.125835 
L 87.1081 263.125835 
L 87.1081 262.7712 
L 88.613828 262.7712 
L 88.613828 262.416565 
L 89.323782 262.416565 
L 89.323782 261.352659 
L 90.007914 261.352659 
L 90.007914 260.998024 
L 92.519847 260.998024 
L 92.519847 260.288753 
L 95.250946 260.288753 
L 95.250946 259.934118 
L 97.18203 259.934118 
L 97.18203 259.579482 
L 99.751228 259.579482 
L 99.751228 258.515576 
L 100.147275 258.515576 
L 100.147275 258.160941 
L 100.535156 258.160941 
L 100.535156 257.806306 
L 103.047088 257.806306 
L 103.047088 257.451671 
L 103.707211 257.451671 
L 103.707211 256.7424 
L 104.028784 256.7424 
L 104.028784 256.387765 
L 107.244765 256.387765 
L 107.244765 256.033129 
L 113.186449 256.033129 
L 113.186449 255.678494 
L 115.227139 255.678494 
L 115.227139 255.323859 
L 116.419219 255.323859 
L 116.419219 254.969224 
L 121.581803 254.969224 
L 121.581803 254.614588 
L 122.076872 254.614588 
L 122.076872 254.259953 
L 122.913079 254.259953 
L 122.913079 253.550682 
L 128.871795 253.550682 
L 128.871795 253.196047 
L 136.242113 253.196047 
L 136.242113 252.486776 
L 141.48048 252.486776 
L 141.48048 252.132141 
L 147.022411 252.132141 
L 147.119461 251.422871 
L 149.107908 251.422871 
L 149.107908 251.068235 
L 150.533072 251.068235 
L 150.533072 250.7136 
L 151.168122 250.7136 
L 151.168122 250.358965 
L 158.471883 250.358965 
L 158.471883 250.004329 
L 164.427166 250.004329 
L 164.427166 249.649694 
L 168.137692 249.649694 
L 168.137692 249.295059 
L 170.129185 249.295059 
L 170.129185 248.940424 
L 170.336945 248.940424 
L 170.336945 248.585788 
L 170.955893 248.585788 
L 170.955893 248.231153 
L 173.422332 248.231153 
L 173.422332 247.876518 
L 173.620559 247.876518 
L 173.620559 247.521882 
L 173.886839 247.521882 
L 173.886839 247.167247 
L 174.149402 247.167247 
L 174.149402 246.812612 
L 175.616746 246.812612 
L 175.616746 246.457976 
L 175.821337 246.457976 
L 175.821337 246.103341 
L 177.524113 246.103341 
L 177.524113 245.748706 
L 178.339408 245.748706 
L 178.339408 245.394071 
L 179.842775 245.394071 
L 179.842775 245.039435 
L 180.846737 245.039435 
L 180.846737 244.6848 
L 181.651154 244.6848 
L 181.651154 244.330165 
L 183.558372 244.330165 
L 183.558372 243.975529 
L 183.894836 243.975529 
L 183.894836 243.620894 
L 186.087155 243.620894 
L 186.087155 243.266259 
L 186.329524 243.266259 
L 186.329524 242.911624 
L 193.235571 242.911624 
L 193.235571 242.556988 
L 196.918016 242.556988 
L 196.918016 242.202353 
L 197.061485 242.202353 
L 197.061485 241.847718 
L 199.448798 241.847718 
L 199.448798 241.493082 
L 200.277532 241.493082 
L 200.277532 241.138447 
L 201.776492 241.138447 
L 201.776492 240.783812 
L 202.505532 240.783812 
L 202.505532 240.429176 
L 203.934407 240.429176 
L 203.934407 240.074541 
L 208.09647 240.074541 
L 208.09647 239.719906 
L 209.23721 239.719906 
L 209.23721 239.365271 
L 209.489654 239.365271 
L 209.489654 239.010635 
L 210.208113 239.010635 
L 210.309347 238.301365 
L 215.904731 238.301365 
L 215.904731 237.946729 
L 216.855927 237.946729 
L 216.855927 237.592094 
L 225.913805 237.592094 
L 225.913805 237.237459 
L 233.680359 237.237459 
L 233.680359 236.528188 
L 233.892583 236.528188 
L 233.892583 236.173553 
L 242.692525 236.173553 
L 242.692525 235.818918 
L 247.158548 235.818918 
L 247.158548 235.464282 
L 247.343829 235.464282 
L 247.435712 234.755012 
L 247.691944 234.755012 
L 247.691944 234.400376 
L 249.141888 234.400376 
L 249.141888 234.045741 
L 249.481619 234.045741 
L 249.481619 233.691106 
L 249.755202 233.691106 
L 249.830839 232.981835 
L 251.510716 232.981835 
L 251.510716 232.6272 
L 255.226624 232.6272 
L 255.226624 232.272565 
L 258.615001 232.272565 
L 258.615001 231.917929 
L 261.931122 231.917929 
L 261.931122 231.563294 
L 265.228498 231.563294 
L 265.274813 230.499388 
L 265.462586 230.499388 
L 265.462586 230.144753 
L 273.682437 230.144753 
L 273.682437 229.790118 
L 274.327573 229.790118 
L 274.327573 229.435482 
L 274.762705 229.435482 
L 274.796553 228.726212 
L 275.569264 228.726212 
L 275.569264 228.371576 
L 276.243449 228.371576 
L 276.243449 228.016941 
L 278.225309 228.016941 
L 278.293232 227.307671 
L 278.717077 227.307671 
L 278.717077 226.953035 
L 280.031971 226.953035 
L 280.031971 226.5984 
L 283.268456 226.5984 
L 283.358522 225.889129 
L 286.970012 225.889129 
L 286.970012 225.534494 
L 287.422367 225.534494 
L 287.422367 225.179859 
L 287.635178 225.179859 
L 287.656708 224.470588 
L 289.348575 224.470588 
L 289.386207 223.052047 
L 290.370114 223.052047 
L 290.370114 222.697412 
L 292.316475 222.697412 
L 292.316475 222.342776 
L 294.679516 222.342776 
L 294.679516 221.633506 
L 295.138106 221.633506 
L 295.138106 221.278871 
L 296.487471 221.278871 
L 296.487471 220.5696 
L 298.390942 220.5696 
L 298.392261 219.860329 
L 300.465523 219.860329 
L 300.465523 219.505694 
L 301.371168 219.505694 
L 301.371168 219.151059 
L 301.501287 219.151059 
L 301.501287 218.796424 
L 301.613649 218.796424 
L 301.613649 218.441788 
L 302.55996 218.441788 
L 302.55996 218.087153 
L 302.971158 218.087153 
L 303.002808 215.959341 
L 304.354344 215.959341 
L 304.354344 215.604706 
L 304.57084 215.604706 
L 304.57084 215.250071 
L 305.438108 215.250071 
L 305.54721 214.186165 
L 306.655959 214.186165 
L 306.681982 212.767624 
L 309.735856 212.767624 
L 309.740208 212.058353 
L 310.71187 212.058353 
L 310.71187 211.703718 
L 311.501369 211.703718 
L 311.570317 210.994447 
L 312.381729 210.994447 
L 312.381729 210.639812 
L 313.985449 210.639812 
L 313.985449 210.285176 
L 314.700931 210.285176 
L 314.704274 209.221271 
L 316.125495 209.221271 
L 316.125495 208.866635 
L 316.765334 208.866635 
L 316.780543 207.802729 
L 317.939836 207.802729 
L 317.999936 206.738824 
L 318.625424 206.738824 
L 318.627688 206.029553 
L 320.318025 206.029553 
L 320.318025 205.674918 
L 322.855482 205.674918 
L 322.855482 205.320282 
L 323.306928 205.320282 
L 323.315907 204.256376 
L 324.637843 204.256376 
L 324.647852 203.192471 
L 325.884169 203.192471 
L 325.891693 202.4832 
L 327.051295 202.4832 
L 327.051295 201.773929 
L 328.149948 201.773929 
L 328.149948 201.419294 
L 330.172168 201.419294 
L 330.172168 200.710024 
L 330.810206 200.710024 
L 330.810206 200.355388 
L 331.998169 200.355388 
L 332.003605 199.646118 
L 332.848418 199.646118 
L 332.853826 198.227576 
L 333.40308 198.227576 
L 333.40308 197.872941 
L 333.661078 197.872941 
L 333.661078 197.518306 
L 334.952248 197.518306 
L 334.952248 197.163671 
L 336.383489 197.163671 
L 336.383489 196.809035 
L 337.060243 196.809035 
L 337.060243 196.4544 
L 337.919919 196.4544 
L 337.919919 196.099765 
L 339.148794 196.099765 
L 339.148794 195.745129 
L 339.547254 195.745129 
L 339.547254 195.390494 
L 341.910193 195.390494 
L 341.910193 195.035859 
L 342.913606 195.035859 
L 342.913606 194.681224 
L 343.394386 194.681224 
L 343.394386 194.326588 
L 344.767123 194.326588 
L 344.767123 193.971953 
L 346.850976 193.971953 
L 346.850976 193.617318 
L 347.62476 193.617318 
L 347.62476 193.262682 
L 348.367596 193.262682 
L 348.367596 192.908047 
L 356.679072 192.908047 
L 356.679072 192.553412 
L 360.8064 192.553412 
L 360.8064 192.553412 
" style="fill: none; stroke: #000080; stroke-width: 1.5; stroke-linecap: square"/>
   </g>
   <g id="line2d_36">
    <defs>
     <path id="m1a2e02c7bd" d="M 0 6 
C 1.591219 6 3.117479 5.367802 4.242641 4.242641 
C 5.367802 3.117479 6 1.591219 6 0 
C 6 -1.591219 5.367802 -3.117479 4.242641 -4.242641 
C 3.117479 -5.367802 1.591219 -6 0 -6 
C -1.591219 -6 -3.117479 -5.367802 -4.242641 -4.242641 
C -5.367802 -3.117479 -6 -1.591219 -6 0 
C -6 1.591219 -5.367802 3.117479 -4.242641 4.242641 
C -3.117479 5.367802 -1.591219 6 0 6 
z
" style="stroke: #000080; stroke-width: 1.5"/>
    </defs>
    <g>
     <use xlink:href="#m1a2e02c7bd" x="107.244765" y="256.033129" style="fill-opacity: 0; stroke: #000080; stroke-width: 1.5"/>
     <use xlink:href="#m1a2e02c7bd" x="201.776492" y="241.138447" style="fill-opacity: 0; stroke: #000080; stroke-width: 1.5"/>
     <use xlink:href="#m1a2e02c7bd" x="280.031971" y="226.953035" style="fill-opacity: 0; stroke: #000080; stroke-width: 1.5"/>
     <use xlink:href="#m1a2e02c7bd" x="339.547254" y="195.390494" style="fill-opacity: 0; stroke: #000080; stroke-width: 1.5"/>
     <use xlink:href="#m1a2e02c7bd" x="356.679072" y="192.553412" style="fill-opacity: 0; stroke: #000080; stroke-width: 1.5"/>
     <use xlink:href="#m1a2e02c7bd" x="360.8064" y="192.553412" style="fill-opacity: 0; stroke: #000080; stroke-width: 1.5"/>
    </g>
   </g>
   <g id="line2d_37">
    <path style="fill: none; stroke: #000080; stroke-width: 1.5; stroke-linecap: square"/>
    <g/>
   </g>
   <g id="line2d_38">
    <path d="M 274.176 229.790118 
" clip-path="url(#p53200223dc)" style="fill: none; stroke: #000080; stroke-width: 1.5; stroke-linecap: square"/>
    <defs>
     <path id="mea3604d0ff" d="M -12 12 
L 12 -12 
M -12 -12 
L 12 12 
" style="stroke: #000080"/>
    </defs>
    <g clip-path="url(#p53200223dc)">
     <use xlink:href="#mea3604d0ff" x="274.176" y="229.790118" style="fill: #000080; stroke: #000080"/>
    </g>
   </g>
   <g id="line2d_39">
    <defs>
     <path id="m6287bd7515" d="M 0 1.5 
C 0.397805 1.5 0.77937 1.341951 1.06066 1.06066 
C 1.341951 0.77937 1.5 0.397805 1.5 0 
C 1.5 -0.397805 1.341951 -0.77937 1.06066 -1.06066 
C 0.77937 -1.341951 0.397805 -1.5 0 -1.5 
C -0.397805 -1.5 -0.77937 -1.341951 -1.06066 -1.06066 
C -1.341951 -0.77937 -1.5 -0.397805 -1.5 0 
C -1.5 0.397805 -1.341951 0.77937 -1.06066 1.06066 
C -0.77937 1.341951 -0.397805 1.5 0 1.5 
z
" style="stroke: #ff00ff"/>
    </defs>
    <g>
     <use xlink:href="#m6287bd7515" x="312.415316" y="27.648" style="fill: #ff00ff; stroke: #ff00ff"/>
     <use xlink:href="#m6287bd7515" x="312.415316" y="27.648" style="fill: #ff00ff; stroke: #ff00ff"/>
    </g>
   </g>
   <g id="line2d_40">
    <path d="M 27.323974 298.944 
L 27.323974 277.311247 
L 111.334639 277.311247 
L 111.334639 273.764894 
L 111.54963 273.764894 
L 111.54963 272.346353 
L 111.762192 272.346353 
L 111.762192 270.218541 
L 112.180244 270.218541 
L 112.180244 268.090729 
L 112.790402 268.090729 
L 112.790402 267.381459 
L 112.989468 267.381459 
L 112.989468 265.962918 
L 113.186449 265.962918 
L 113.186449 262.416565 
L 113.381389 262.416565 
L 113.381389 261.352659 
L 125.929373 261.352659 
L 125.929373 260.643388 
L 126.709238 260.643388 
L 126.709238 259.224847 
L 126.993549 259.224847 
L 126.993549 256.387765 
L 131.929028 256.387765 
L 131.929028 256.033129 
L 134.368469 256.033129 
L 134.368469 255.678494 
L 149.481565 255.678494 
L 149.481565 255.323859 
L 152.303973 255.323859 
L 152.303973 254.969224 
L 152.450367 254.969224 
L 152.450367 254.614588 
L 164.695268 254.614588 
L 164.695268 254.259953 
L 165.30637 254.259953 
L 165.404283 253.196047 
L 165.898243 253.196047 
L 165.898243 252.841412 
L 170.542436 252.841412 
L 170.542436 252.486776 
L 173.246148 252.486776 
L 173.246148 251.422871 
L 176.099928 251.422871 
L 176.099928 251.068235 
L 177.543331 251.068235 
L 177.543331 250.7136 
L 177.917356 250.7136 
L 177.917356 250.358965 
L 179.214801 250.358965 
L 179.214801 250.004329 
L 179.568815 250.004329 
L 179.568815 249.649694 
L 180.12955 249.649694 
L 180.218626 248.940424 
L 183.001441 248.940424 
L 183.001441 248.585788 
L 183.474475 248.585788 
L 183.474475 248.231153 
L 187.073191 248.231153 
L 187.073191 247.876518 
L 187.695494 247.876518 
L 187.695494 247.167247 
L 188.751438 247.167247 
L 188.751438 246.812612 
L 192.983664 246.812612 
L 192.983664 246.457976 
L 197.906567 246.457976 
L 197.906567 246.103341 
L 198.721544 246.103341 
L 198.721544 245.748706 
L 199.358661 245.748706 
L 199.358661 245.039435 
L 199.542483 245.039435 
L 199.542483 244.6848 
L 200.689825 244.6848 
L 200.689825 244.330165 
L 200.905582 244.330165 
L 200.905582 243.975529 
L 202.837207 243.975529 
L 202.837207 243.620894 
L 203.292268 243.620894 
L 203.292268 243.266259 
L 205.601114 243.266259 
L 205.601114 242.911624 
L 205.733206 242.911624 
L 205.733206 242.556988 
L 206.421527 242.556988 
L 206.421527 242.202353 
L 206.679074 242.202353 
L 206.679074 241.847718 
L 206.795722 241.847718 
L 206.795722 241.493082 
L 210.023368 241.493082 
L 210.023368 241.138447 
L 211.835343 241.138447 
L 211.835343 240.783812 
L 215.248537 240.783812 
L 215.248537 240.429176 
L 216.814693 240.429176 
L 216.814693 240.074541 
L 217.144404 240.074541 
L 217.222247 239.365271 
L 218.551468 239.365271 
L 218.551468 239.010635 
L 218.797402 239.010635 
L 218.797402 238.656 
L 219.469665 238.656 
L 219.469665 238.301365 
L 220.090073 238.301365 
L 220.182556 237.237459 
L 220.55126 237.237459 
L 220.55126 236.882824 
L 220.827131 236.882824 
L 220.827131 236.528188 
L 220.953693 236.528188 
L 220.99442 235.818918 
L 223.945291 235.818918 
L 223.945291 235.464282 
L 225.307562 235.464282 
L 225.358037 234.755012 
L 227.032875 234.755012 
L 227.032875 234.400376 
L 227.667634 234.400376 
L 227.729947 233.691106 
L 228.404682 233.691106 
L 228.47742 232.981835 
L 230.330045 232.981835 
L 230.330045 232.6272 
L 230.499558 232.6272 
L 230.499558 231.917929 
L 231.443858 231.917929 
L 231.552965 230.854024 
L 231.768583 230.854024 
L 231.824785 230.144753 
L 231.889014 230.144753 
L 231.947698 229.080847 
L 232.089208 229.080847 
L 232.10154 228.371576 
L 232.299149 228.371576 
L 232.299149 228.016941 
L 233.234336 228.016941 
L 233.312109 227.307671 
L 233.363231 227.307671 
L 233.461782 225.889129 
L 233.474884 225.889129 
L 233.5709 224.825224 
L 233.603447 224.825224 
L 233.603447 224.470588 
L 233.950136 224.470588 
L 233.950136 224.115953 
L 236.310977 224.115953 
L 236.334616 223.406682 
L 236.779308 223.406682 
L 236.804561 222.697412 
L 237.202186 222.697412 
L 237.202186 222.342776 
L 237.495314 222.342776 
L 237.556032 221.278871 
L 237.713509 221.278871 
L 237.713509 220.924235 
L 237.84374 220.924235 
L 237.910071 220.214965 
L 237.969982 220.214965 
L 237.969982 219.860329 
L 238.917219 219.860329 
L 238.917219 219.505694 
L 239.608477 219.505694 
L 239.608477 219.151059 
L 239.733781 219.151059 
L 239.733781 218.796424 
L 239.944111 218.796424 
L 240.036508 218.087153 
L 240.128684 218.087153 
L 240.239158 216.668612 
L 240.307592 216.668612 
L 240.315105 215.959341 
L 242.581676 215.959341 
L 242.581676 215.604706 
L 242.770791 215.604706 
L 242.770791 215.250071 
L 242.911291 215.250071 
L 242.911291 214.895435 
L 243.149285 214.895435 
L 243.208902 214.186165 
L 243.370574 214.186165 
L 243.370574 213.831529 
L 243.90242 213.831529 
L 243.90242 213.476894 
L 245.103871 213.476894 
L 245.103871 213.122259 
L 245.68846 213.122259 
L 245.68846 212.767624 
L 245.926425 212.767624 
L 245.966076 211.703718 
L 246.349797 211.703718 
L 246.349797 211.349082 
L 246.530586 211.349082 
L 246.54383 210.639812 
L 246.660985 210.639812 
L 246.660985 210.285176 
L 247.625551 210.285176 
L 247.625551 209.930541 
L 247.93168 209.930541 
L 247.992464 209.221271 
L 248.059387 209.221271 
L 248.059387 208.866635 
L 248.262767 208.866635 
L 248.355921 208.157365 
L 248.562598 208.157365 
L 248.562598 207.802729 
L 248.839505 207.802729 
L 248.839505 207.448094 
L 248.969262 207.448094 
L 248.997976 206.738824 
L 250.225239 206.738824 
L 250.225239 206.384188 
L 250.84407 206.384188 
L 250.934885 205.320282 
L 250.984776 205.320282 
L 250.984776 204.611012 
L 251.770748 204.611012 
L 251.770748 204.256376 
L 251.898322 204.256376 
L 251.955168 203.192471 
L 252.264361 203.192471 
L 252.357229 202.128565 
L 252.40397 202.128565 
L 252.490553 200.355388 
L 252.563451 200.355388 
L 252.563451 200.000753 
L 253.020624 200.000753 
L 253.020624 199.646118 
L 253.159236 199.646118 
L 253.171881 198.936847 
L 253.285302 198.936847 
L 253.342326 197.518306 
L 253.527485 197.518306 
L 253.543153 196.4544 
L 253.68089 196.4544 
L 253.715195 195.745129 
L 253.93639 195.745129 
L 253.93639 195.390494 
L 254.167771 195.390494 
L 254.186072 194.681224 
L 254.31033 194.681224 
L 254.407427 192.908047 
L 254.427539 192.908047 
L 254.427539 192.553412 
L 254.974495 192.553412 
L 255.067504 191.489506 
L 255.109951 191.489506 
L 255.201882 190.4256 
L 255.597633 190.4256 
L 255.653912 189.716329 
L 255.724277 189.716329 
L 255.824342 189.007059 
L 255.913949 189.007059 
L 255.97553 187.943153 
L 256.221419 187.943153 
L 256.279957 187.233882 
L 256.348022 187.233882 
L 256.406169 186.524612 
L 256.459891 186.524612 
L 256.459891 186.169976 
L 256.575893 186.169976 
L 256.575893 185.815341 
L 256.9478 185.815341 
L 256.9478 185.460706 
L 257.198551 185.460706 
L 257.198551 185.106071 
L 257.376106 185.106071 
L 257.376106 184.3968 
L 257.593289 184.3968 
L 257.695031 183.332894 
L 257.765105 183.332894 
L 257.855803 181.559718 
L 257.982674 181.559718 
L 258.00304 180.495812 
L 258.210858 180.495812 
L 258.303375 179.077271 
L 258.377236 179.077271 
L 258.403968 178.368 
L 258.659174 178.368 
L 258.682165 177.658729 
L 258.821565 177.658729 
L 258.929165 176.594824 
L 258.948786 176.594824 
L 258.948786 176.240188 
L 259.065662 176.240188 
L 259.065662 175.885553 
L 259.302153 175.885553 
L 259.305388 175.176282 
L 259.421889 175.176282 
L 259.421889 174.821647 
L 259.572868 174.821647 
L 259.667563 174.112376 
L 259.862221 174.112376 
L 259.926528 173.048471 
L 260.08634 173.048471 
L 260.193451 172.3392 
L 260.213219 172.3392 
L 260.288151 171.629929 
L 260.369057 171.629929 
L 260.369057 171.275294 
L 260.786012 171.275294 
L 260.786012 170.920659 
L 260.947687 170.920659 
L 261.036103 170.211388 
L 261.250554 170.211388 
L 261.317748 168.438212 
L 261.369844 168.438212 
L 261.421796 167.019671 
L 261.584293 167.019671 
L 261.614835 166.3104 
L 261.767314 166.3104 
L 261.855445 165.246494 
L 261.934224 165.246494 
L 261.934224 164.891859 
L 262.13916 164.891859 
L 262.219746 162.409412 
L 262.252253 162.409412 
L 262.252253 162.054776 
L 262.373479 162.054776 
L 262.473756 160.2816 
L 262.484616 160.2816 
L 262.484616 159.926965 
L 262.726387 159.926965 
L 262.771074 159.217694 
L 262.904294 159.217694 
L 262.935435 156.735247 
L 263.281676 156.735247 
L 263.282347 156.025976 
L 263.4316 156.025976 
L 263.4316 155.671341 
L 263.767273 155.671341 
L 263.767273 155.316706 
L 263.890915 155.316706 
L 263.934868 153.188894 
L 264.127061 153.188894 
L 264.214473 152.124988 
L 264.323219 152.124988 
L 264.399417 149.642541 
L 264.859809 149.642541 
L 264.863883 148.933271 
L 265.010027 148.933271 
L 265.075933 148.224 
L 265.122746 148.224 
L 265.131206 146.805459 
L 265.352312 146.805459 
L 265.423084 146.096188 
L 265.557588 146.096188 
L 265.557588 145.741553 
L 265.748228 145.741553 
L 265.844615 144.323012 
L 265.898613 144.323012 
L 265.898613 143.968376 
L 266.060956 143.968376 
L 266.06362 143.259106 
L 266.262122 143.259106 
L 266.367944 141.840565 
L 266.432732 141.840565 
L 266.432732 141.485929 
L 266.56666 141.485929 
L 266.56666 141.131294 
L 266.777074 141.131294 
L 266.865902 140.422024 
L 266.92546 140.422024 
L 266.92546 140.067388 
L 267.182407 140.067388 
L 267.241843 138.648847 
L 267.333218 138.648847 
L 267.336195 137.584941 
L 267.549033 137.584941 
L 267.658839 135.457129 
L 267.675005 135.457129 
L 267.675005 135.102494 
L 267.81038 135.102494 
L 267.81038 134.747859 
L 267.98394 134.747859 
L 268.041526 134.038588 
L 268.1248 134.038588 
L 268.216696 133.329318 
L 268.268786 133.329318 
L 268.354753 132.620047 
L 268.388099 132.620047 
L 268.43497 131.910776 
L 268.645492 131.910776 
L 268.753766 130.1376 
L 268.756928 130.1376 
L 268.75743 129.428329 
L 268.892337 129.428329 
L 268.892337 129.073694 
L 269.018664 129.073694 
L 269.07258 128.364424 
L 269.142918 128.364424 
L 269.195304 127.300518 
L 269.352514 127.300518 
L 269.382877 126.591247 
L 269.494047 126.591247 
L 269.494047 126.236612 
L 269.690956 126.236612 
L 269.716058 125.527341 
L 269.83879 125.527341 
L 269.83879 125.172706 
L 270.067794 125.172706 
L 270.11146 124.463435 
L 270.203276 124.463435 
L 270.205878 123.754165 
L 270.336174 123.754165 
L 270.446362 122.690259 
L 270.511253 122.690259 
L 270.511253 122.335624 
L 270.729597 122.335624 
L 270.729597 121.980988 
L 270.861353 121.980988 
L 270.888258 121.271718 
L 271.002574 121.271718 
L 271.044036 120.207812 
L 271.176352 120.207812 
L 271.262643 118.789271 
L 271.498227 118.789271 
L 271.526791 117.725365 
L 271.691308 117.725365 
L 271.765996 116.306824 
L 271.826412 116.306824 
L 271.826412 115.952188 
L 271.991088 115.952188 
L 272.09345 114.533647 
L 272.342613 114.533647 
L 272.348875 113.824376 
L 272.511607 113.824376 
L 272.511607 113.469741 
L 272.709748 113.469741 
L 272.806868 110.632659 
L 272.888064 110.632659 
L 272.969554 108.859482 
L 273.19913 108.859482 
L 273.214776 107.795576 
L 273.453755 107.795576 
L 273.526878 107.086306 
L 273.705944 107.086306 
L 273.804131 104.958494 
L 273.917988 104.958494 
L 273.970171 103.539953 
L 274.434864 103.539953 
L 274.486559 102.476047 
L 274.610751 102.476047 
L 274.610751 102.121412 
L 274.892591 102.121412 
L 275.001938 101.057506 
L 275.0926 101.057506 
L 275.160526 99.9936 
L 275.523545 99.9936 
L 275.595553 98.575059 
L 275.680663 98.575059 
L 275.680663 98.220424 
L 275.796688 98.220424 
L 275.839096 96.447247 
L 276.025351 96.447247 
L 276.054893 95.737976 
L 276.192381 95.737976 
L 276.192381 95.383341 
L 276.482993 95.383341 
L 276.588827 93.9648 
L 276.595312 93.9648 
L 276.595312 93.610165 
L 276.762167 93.610165 
L 276.804779 92.900894 
L 277.170824 92.900894 
L 277.19247 92.191624 
L 277.282089 92.191624 
L 277.294238 91.482353 
L 277.50257 91.482353 
L 277.50257 91.127718 
L 277.68909 91.127718 
L 277.757325 90.063812 
L 277.846621 90.063812 
L 277.895279 88.645271 
L 278.041606 88.645271 
L 278.042402 87.936 
L 278.200113 87.936 
L 278.259529 86.517459 
L 278.324643 86.517459 
L 278.430897 85.808188 
L 278.473369 85.808188 
L 278.473369 85.453553 
L 278.636548 85.453553 
L 278.66004 84.035012 
L 278.870808 84.035012 
L 278.974292 82.616471 
L 279.160672 82.616471 
L 279.185883 81.552565 
L 279.292212 81.552565 
L 279.36662 80.488659 
L 279.538763 80.488659 
L 279.64706 78.715482 
L 279.797674 78.715482 
L 279.824749 77.296941 
L 280.005331 77.296941 
L 280.005331 76.942306 
L 280.154128 76.942306 
L 280.197558 76.233035 
L 280.3244 76.233035 
L 280.3244 75.8784 
L 280.461441 75.8784 
L 280.461441 75.523765 
L 280.585425 75.523765 
L 280.585425 75.169129 
L 280.78829 75.169129 
L 280.886196 74.459859 
L 280.910146 74.459859 
L 280.910146 74.105224 
L 281.065577 74.105224 
L 281.150424 73.041318 
L 281.393492 73.041318 
L 281.465745 72.332047 
L 281.588683 72.332047 
L 281.588683 71.977412 
L 281.703235 71.977412 
L 281.703235 71.622776 
L 281.847196 71.622776 
L 281.935422 69.8496 
L 282.175061 69.8496 
L 282.26605 68.076424 
L 282.318764 68.076424 
L 282.329987 67.367153 
L 282.432776 67.367153 
L 282.432776 67.012518 
L 282.556394 67.012518 
L 282.556394 66.657882 
L 282.730489 66.657882 
L 282.730489 66.303247 
L 283.087675 66.303247 
L 283.137438 64.884706 
L 283.21257 64.884706 
L 283.28636 63.8208 
L 283.513682 63.8208 
L 283.559431 62.402259 
L 283.856929 62.402259 
L 283.897701 61.692988 
L 284.044509 61.692988 
L 284.079877 60.983718 
L 284.197227 60.983718 
L 284.25106 59.565176 
L 284.40334 59.565176 
L 284.495798 57.792 
L 284.562219 57.792 
L 284.562219 57.437365 
L 284.685755 57.437365 
L 284.689477 56.728094 
L 284.814684 56.728094 
L 284.814684 56.373459 
L 285.029523 56.373459 
L 285.096046 54.954918 
L 285.168482 54.954918 
L 285.168482 54.600282 
L 285.335902 54.600282 
L 285.430664 52.827106 
L 285.95202 52.827106 
L 285.95202 52.472471 
L 286.389236 52.472471 
L 286.389236 52.117835 
L 286.53846 52.117835 
L 286.53846 51.7632 
L 287.029817 51.7632 
L 287.126117 49.990024 
L 287.188217 49.990024 
L 287.188217 49.635388 
L 287.373651 49.635388 
L 287.377736 48.926118 
L 287.671677 48.926118 
L 287.671677 48.571482 
L 288.116037 48.571482 
L 288.205591 47.862212 
L 288.394175 47.862212 
L 288.475047 46.089035 
L 288.724525 46.089035 
L 288.802264 45.379765 
L 288.895895 45.379765 
L 288.895895 45.025129 
L 289.046648 45.025129 
L 289.046648 44.670494 
L 289.166414 44.670494 
L 289.212652 43.961224 
L 289.344627 43.961224 
L 289.405891 43.251953 
L 289.782445 43.251953 
L 289.782445 42.897318 
L 290.185196 42.897318 
L 290.185196 42.542682 
L 290.492833 42.542682 
L 290.492833 42.188047 
L 290.604155 42.188047 
L 290.604155 41.833412 
L 290.716384 41.833412 
L 290.763129 40.769506 
L 290.904188 40.769506 
L 290.904188 40.414871 
L 291.171393 40.414871 
L 291.171393 40.060235 
L 291.464639 40.060235 
L 291.513996 39.350965 
L 291.639789 39.350965 
L 291.639789 38.996329 
L 291.998754 38.996329 
L 292.067351 38.287059 
L 292.385827 38.287059 
L 292.385827 37.932424 
L 292.638651 37.932424 
L 292.715971 37.223153 
L 292.810558 37.223153 
L 292.810558 36.868518 
L 293.059953 36.868518 
L 293.059953 36.513882 
L 293.229929 36.513882 
L 293.229929 36.159247 
L 293.355596 36.159247 
L 293.355596 35.804612 
L 293.952529 35.804612 
L 293.952529 35.449976 
L 294.241981 35.449976 
L 294.241981 35.095341 
L 294.534799 35.095341 
L 294.62277 34.386071 
L 294.784511 34.386071 
L 294.784511 34.031435 
L 295.6698 34.031435 
L 295.6698 33.6768 
L 296.030047 33.6768 
L 296.030047 33.322165 
L 296.34539 33.322165 
L 296.34539 32.967529 
L 296.754412 32.967529 
L 296.815908 32.258259 
L 297.626773 32.258259 
L 297.626773 31.903624 
L 298.482389 31.903624 
L 298.529766 30.839718 
L 298.671513 30.839718 
L 298.671513 30.485082 
L 298.84624 30.485082 
L 298.84624 30.130447 
L 299.07417 30.130447 
L 299.07417 29.775812 
L 299.375491 29.775812 
L 299.375491 29.421176 
L 299.639777 29.421176 
L 299.639777 29.066541 
L 299.812018 29.066541 
L 299.812018 28.711906 
L 300.226817 28.711906 
L 300.226817 28.357271 
L 302.928239 28.357271 
L 302.928239 28.002635 
L 312.415316 28.002635 
L 312.415316 27.648 
L 360.8064 27.648 
L 360.8064 27.648 
" style="fill: none; stroke: #ff00ff; stroke-width: 1.5; stroke-linecap: square"/>
   </g>
   <g id="line2d_41">
    <defs>
     <path id="m6ad19a655b" d="M 0 8.485281 
L 5.091169 0 
L 0 -8.485281 
L -5.091169 0 
z
" style="stroke: #ff00ff; stroke-width: 1.5; stroke-linejoin: miter"/>
    </defs>
    <g>
     <use xlink:href="#m6ad19a655b" x="113.381389" y="262.416565" style="fill-opacity: 0; stroke: #ff00ff; stroke-width: 1.5; stroke-linejoin: miter"/>
     <use xlink:href="#m6ad19a655b" x="188.751438" y="246.812612" style="fill-opacity: 0; stroke: #ff00ff; stroke-width: 1.5; stroke-linejoin: miter"/>
     <use xlink:href="#m6ad19a655b" x="258.211737" y="179.786541" style="fill-opacity: 0; stroke: #ff00ff; stroke-width: 1.5; stroke-linejoin: miter"/>
     <use xlink:href="#m6ad19a655b" x="288.895895" y="45.379765" style="fill-opacity: 0; stroke: #ff00ff; stroke-width: 1.5; stroke-linejoin: miter"/>
     <use xlink:href="#m6ad19a655b" x="312.415316" y="27.648" style="fill-opacity: 0; stroke: #ff00ff; stroke-width: 1.5; stroke-linejoin: miter"/>
     <use xlink:href="#m6ad19a655b" x="360.8064" y="27.648" style="fill-opacity: 0; stroke: #ff00ff; stroke-width: 1.5; stroke-linejoin: miter"/>
    </g>
   </g>
   <g id="line2d_42">
    <path style="fill: none; stroke: #ff00ff; stroke-width: 1.5; stroke-linecap: square"/>
    <g/>
   </g>
   <g id="line2d_43">
    <path d="M 243.907686 213.476894 
" clip-path="url(#p53200223dc)" style="fill: none; stroke: #ff00ff; stroke-width: 1.5; stroke-linecap: square"/>
    <defs>
     <path id="m4d653756a0" d="M -12 12 
L 12 -12 
M -12 -12 
L 12 12 
" style="stroke: #ff00ff"/>
    </defs>
    <g clip-path="url(#p53200223dc)">
     <use xlink:href="#m4d653756a0" x="243.907686" y="213.476894" style="fill: #ff00ff; stroke: #ff00ff"/>
    </g>
   </g>
   <g id="line2d_44">
    <path d="M 360.8064 192.553412 
L 380.514816 293.51808 
" style="fill: none; stroke: #000080; stroke-width: 1.5; stroke-linecap: square"/>
    <g>
     <use xlink:href="#m1a2e02c7bd" x="360.8064" y="192.553412" style="fill-opacity: 0; stroke: #000080; stroke-width: 1.5"/>
     <use xlink:href="#m1a2e02c7bd" x="380.514816" y="293.51808" style="fill-opacity: 0; stroke: #000080; stroke-width: 1.5"/>
    </g>
   </g>
   <g id="line2d_45">
    <path d="M 360.8064 27.648 
L 380.514816 163.296 
" style="fill: none; stroke: #ff00ff; stroke-width: 1.5; stroke-linecap: square"/>
    <g>
     <use xlink:href="#m6ad19a655b" x="360.8064" y="27.648" style="fill-opacity: 0; stroke: #ff00ff; stroke-width: 1.5; stroke-linejoin: miter"/>
     <use xlink:href="#m6ad19a655b" x="380.514816" y="163.296" style="fill-opacity: 0; stroke: #ff00ff; stroke-width: 1.5; stroke-linejoin: miter"/>
    </g>
   </g>
   <g id="line2d_46">
    <path d="M 360.8064 298.944 
L 360.8064 27.648 
" style="fill: none; stroke: #000000; stroke-width: 1.5; stroke-linecap: square"/>
   </g>
   <g id="patch_3">
    <path d="M 57.6 298.944 
L 360.8064 298.944 
" style="fill: none; stroke: #000000; stroke-width: 0.8; stroke-linejoin: miter; stroke-linecap: square"/>
   </g>
   <g id="patch_4">
    <path d="M 57.6 27.648 
L 360.8064 27.648 
" style="fill: none; stroke: #000000; stroke-width: 0.8; stroke-linejoin: miter; stroke-linecap: square"/>
   </g>
   <g id="text_13">
    <!-- LCGA -->
    <g transform="translate(386.578944 297.381205)scale(0.14 -0.14)">
     <defs>
      <path id="DejaVuSans-4c" d="M 628 4666 
L 1259 4666 
L 1259 531 
L 3531 531 
L 3531 0 
L 628 0 
L 628 4666 
z
" transform="scale(0.015625)"/>
      <path id="DejaVuSans-43" d="M 4122 4306 
L 4122 3641 
Q 3803 3938 3442 4084 
Q 3081 4231 2675 4231 
Q 1875 4231 1450 3742 
Q 1025 3253 1025 2328 
Q 1025 1406 1450 917 
Q 1875 428 2675 428 
Q 3081 428 3442 575 
Q 3803 722 4122 1019 
L 4122 359 
Q 3791 134 3420 21 
Q 3050 -91 2638 -91 
Q 1578 -91 968 557 
Q 359 1206 359 2328 
Q 359 3453 968 4101 
Q 1578 4750 2638 4750 
Q 3056 4750 3426 4639 
Q 3797 4528 4122 4306 
z
" transform="scale(0.015625)"/>
      <path id="DejaVuSans-47" d="M 3809 666 
L 3809 1919 
L 2778 1919 
L 2778 2438 
L 4434 2438 
L 4434 434 
Q 4069 175 3628 42 
Q 3188 -91 2688 -91 
Q 1594 -91 976 548 
Q 359 1188 359 2328 
Q 359 3472 976 4111 
Q 1594 4750 2688 4750 
Q 3144 4750 3555 4637 
Q 3966 4525 4313 4306 
L 4313 3634 
Q 3963 3931 3569 4081 
Q 3175 4231 2741 4231 
Q 1884 4231 1454 3753 
Q 1025 3275 1025 2328 
Q 1025 1384 1454 906 
Q 1884 428 2741 428 
Q 3075 428 3337 486 
Q 3600 544 3809 666 
z
" transform="scale(0.015625)"/>
      <path id="DejaVuSans-41" d="M 2188 4044 
L 1331 1722 
L 3047 1722 
L 2188 4044 
z
M 1831 4666 
L 2547 4666 
L 4325 0 
L 3669 0 
L 3244 1197 
L 1141 1197 
L 716 0 
L 50 0 
L 1831 4666 
z
" transform="scale(0.015625)"/>
     </defs>
     <use xlink:href="#DejaVuSans-4c"/>
     <use xlink:href="#DejaVuSans-43" x="55.712891"/>
     <use xlink:href="#DejaVuSans-47" x="125.537109"/>
     <use xlink:href="#DejaVuSans-41" x="203.027344"/>
    </g>
   </g>
   <g id="text_14">
    <!-- EvoSpace- -->
    <g transform="translate(386.578944 167.159125)scale(0.14 -0.14)">
     <defs>
      <path id="DejaVuSans-45" d="M 628 4666 
L 3578 4666 
L 3578 4134 
L 1259 4134 
L 1259 2753 
L 3481 2753 
L 3481 2222 
L 1259 2222 
L 1259 531 
L 3634 531 
L 3634 0 
L 628 0 
L 628 4666 
z
" transform="scale(0.015625)"/>
      <path id="DejaVuSans-53" d="M 3425 4513 
L 3425 3897 
Q 3066 4069 2747 4153 
Q 2428 4238 2131 4238 
Q 1616 4238 1336 4038 
Q 1056 3838 1056 3469 
Q 1056 3159 1242 3001 
Q 1428 2844 1947 2747 
L 2328 2669 
Q 3034 2534 3370 2195 
Q 3706 1856 3706 1288 
Q 3706 609 3251 259 
Q 2797 -91 1919 -91 
Q 1588 -91 1214 -16 
Q 841 59 441 206 
L 441 856 
Q 825 641 1194 531 
Q 1563 422 1919 422 
Q 2459 422 2753 634 
Q 3047 847 3047 1241 
Q 3047 1584 2836 1778 
Q 2625 1972 2144 2069 
L 1759 2144 
Q 1053 2284 737 2584 
Q 422 2884 422 3419 
Q 422 4038 858 4394 
Q 1294 4750 2059 4750 
Q 2388 4750 2728 4690 
Q 3069 4631 3425 4513 
z
" transform="scale(0.015625)"/>
     </defs>
     <use xlink:href="#DejaVuSans-45"/>
     <use xlink:href="#DejaVuSans-76" x="63.183594"/>
     <use xlink:href="#DejaVuSans-6f" x="122.363281"/>
     <use xlink:href="#DejaVuSans-53" x="183.544922"/>
     <use xlink:href="#DejaVuSans-70" x="247.021484"/>
     <use xlink:href="#DejaVuSans-61" x="310.498047"/>
     <use xlink:href="#DejaVuSans-63" x="371.777344"/>
     <use xlink:href="#DejaVuSans-65" x="426.757812"/>
     <use xlink:href="#DejaVuSans-2d" x="488.28125"/>
    </g>
   </g>
   <g id="text_15">
    <!-- best 2009 -->
    <g transform="translate(386.578944 36.937045)scale(0.14 -0.14)">
     <defs>
      <path id="DejaVuSans-62" d="M 3116 1747 
Q 3116 2381 2855 2742 
Q 2594 3103 2138 3103 
Q 1681 3103 1420 2742 
Q 1159 2381 1159 1747 
Q 1159 1113 1420 752 
Q 1681 391 2138 391 
Q 2594 391 2855 752 
Q 3116 1113 3116 1747 
z
M 1159 2969 
Q 1341 3281 1617 3432 
Q 1894 3584 2278 3584 
Q 2916 3584 3314 3078 
Q 3713 2572 3713 1747 
Q 3713 922 3314 415 
Q 2916 -91 2278 -91 
Q 1894 -91 1617 61 
Q 1341 213 1159 525 
L 1159 0 
L 581 0 
L 581 4863 
L 1159 4863 
L 1159 2969 
z
" transform="scale(0.015625)"/>
      <path id="DejaVuSans-39" d="M 703 97 
L 703 672 
Q 941 559 1184 500 
Q 1428 441 1663 441 
Q 2288 441 2617 861 
Q 2947 1281 2994 2138 
Q 2813 1869 2534 1725 
Q 2256 1581 1919 1581 
Q 1219 1581 811 2004 
Q 403 2428 403 3163 
Q 403 3881 828 4315 
Q 1253 4750 1959 4750 
Q 2769 4750 3195 4129 
Q 3622 3509 3622 2328 
Q 3622 1225 3098 567 
Q 2575 -91 1691 -91 
Q 1453 -91 1209 -44 
Q 966 3 703 97 
z
M 1959 2075 
Q 2384 2075 2632 2365 
Q 2881 2656 2881 3163 
Q 2881 3666 2632 3958 
Q 2384 4250 1959 4250 
Q 1534 4250 1286 3958 
Q 1038 3666 1038 3163 
Q 1038 2656 1286 2365 
Q 1534 2075 1959 2075 
z
" transform="scale(0.015625)"/>
     </defs>
     <use xlink:href="#DejaVuSans-62"/>
     <use xlink:href="#DejaVuSans-65" x="63.476562"/>
     <use xlink:href="#DejaVuSans-73" x="125"/>
     <use xlink:href="#DejaVuSans-74" x="177.099609"/>
     <use xlink:href="#DejaVuSans-20" x="216.308594"/>
     <use xlink:href="#DejaVuSans-32" x="248.095703"/>
     <use xlink:href="#DejaVuSans-30" x="311.71875"/>
     <use xlink:href="#DejaVuSans-30" x="375.341797"/>
     <use xlink:href="#DejaVuSans-39" x="438.964844"/>
    </g>
   </g>
   <g id="text_16">
    <!-- bbob f23, 5-D -->
    <g transform="translate(60.632064 38.111366)scale(0.102 -0.102)">
     <defs>
      <path id="DejaVuSans-33" d="M 2597 2516 
Q 3050 2419 3304 2112 
Q 3559 1806 3559 1356 
Q 3559 666 3084 287 
Q 2609 -91 1734 -91 
Q 1441 -91 1130 -33 
Q 819 25 488 141 
L 488 750 
Q 750 597 1062 519 
Q 1375 441 1716 441 
Q 2309 441 2620 675 
Q 2931 909 2931 1356 
Q 2931 1769 2642 2001 
Q 2353 2234 1838 2234 
L 1294 2234 
L 1294 2753 
L 1863 2753 
Q 2328 2753 2575 2939 
Q 2822 3125 2822 3475 
Q 2822 3834 2567 4026 
Q 2313 4219 1838 4219 
Q 1578 4219 1281 4162 
Q 984 4106 628 3988 
L 628 4550 
Q 988 4650 1302 4700 
Q 1616 4750 1894 4750 
Q 2613 4750 3031 4423 
Q 3450 4097 3450 3541 
Q 3450 3153 3228 2886 
Q 3006 2619 2597 2516 
z
" transform="scale(0.015625)"/>
      <path id="DejaVuSans-35" d="M 691 4666 
L 3169 4666 
L 3169 4134 
L 1269 4134 
L 1269 2991 
Q 1406 3038 1543 3061 
Q 1681 3084 1819 3084 
Q 2600 3084 3056 2656 
Q 3513 2228 3513 1497 
Q 3513 744 3044 326 
Q 2575 -91 1722 -91 
Q 1428 -91 1123 -41 
Q 819 9 494 109 
L 494 744 
Q 775 591 1075 516 
Q 1375 441 1709 441 
Q 2250 441 2565 725 
Q 2881 1009 2881 1497 
Q 2881 1984 2565 2268 
Q 2250 2553 1709 2553 
Q 1456 2553 1204 2497 
Q 953 2441 691 2322 
L 691 4666 
z
" transform="scale(0.015625)"/>
      <path id="DejaVuSans-44" d="M 1259 4147 
L 1259 519 
L 2022 519 
Q 2988 519 3436 956 
Q 3884 1394 3884 2338 
Q 3884 3275 3436 3711 
Q 2988 4147 2022 4147 
L 1259 4147 
z
M 628 4666 
L 1925 4666 
Q 3281 4666 3915 4102 
Q 4550 3538 4550 2338 
Q 4550 1131 3912 565 
Q 3275 0 1925 0 
L 628 0 
L 628 4666 
z
" transform="scale(0.015625)"/>
     </defs>
     <use xlink:href="#DejaVuSans-62"/>
     <use xlink:href="#DejaVuSans-62" x="63.476562"/>
     <use xlink:href="#DejaVuSans-6f" x="126.953125"/>
     <use xlink:href="#DejaVuSans-62" x="188.134766"/>
     <use xlink:href="#DejaVuSans-20" x="251.611328"/>
     <use xlink:href="#DejaVuSans-66" x="283.398438"/>
     <use xlink:href="#DejaVuSans-32" x="318.603516"/>
     <use xlink:href="#DejaVuSans-33" x="382.226562"/>
     <use xlink:href="#DejaVuSans-2c" x="445.849609"/>
     <use xlink:href="#DejaVuSans-20" x="477.636719"/>
     <use xlink:href="#DejaVuSans-35" x="509.423828"/>
     <use xlink:href="#DejaVuSans-2d" x="573.046875"/>
     <use xlink:href="#DejaVuSans-44" x="609.130859"/>
    </g>
    <!-- 51 targets: 100..1e-08 -->
    <g transform="translate(60.632064 49.533135)scale(0.102 -0.102)">
     <defs>
      <path id="DejaVuSans-3a" d="M 750 794 
L 1409 794 
L 1409 0 
L 750 0 
L 750 794 
z
M 750 3309 
L 1409 3309 
L 1409 2516 
L 750 2516 
L 750 3309 
z
" transform="scale(0.015625)"/>
     </defs>
     <use xlink:href="#DejaVuSans-35"/>
     <use xlink:href="#DejaVuSans-31" x="63.623047"/>
     <use xlink:href="#DejaVuSans-20" x="127.246094"/>
     <use xlink:href="#DejaVuSans-74" x="159.033203"/>
     <use xlink:href="#DejaVuSans-61" x="198.242188"/>
     <use xlink:href="#DejaVuSans-72" x="259.521484"/>
     <use xlink:href="#DejaVuSans-67" x="298.884766"/>
     <use xlink:href="#DejaVuSans-65" x="362.361328"/>
     <use xlink:href="#DejaVuSans-74" x="423.884766"/>
     <use xlink:href="#DejaVuSans-73" x="463.09375"/>
     <use xlink:href="#DejaVuSans-3a" x="515.193359"/>
     <use xlink:href="#DejaVuSans-20" x="548.884766"/>
     <use xlink:href="#DejaVuSans-31" x="580.671875"/>
     <use xlink:href="#DejaVuSans-30" x="644.294922"/>
     <use xlink:href="#DejaVuSans-30" x="707.917969"/>
     <use xlink:href="#DejaVuSans-2e" x="771.541016"/>
     <use xlink:href="#DejaVuSans-2e" x="803.328125"/>
     <use xlink:href="#DejaVuSans-31" x="835.115234"/>
     <use xlink:href="#DejaVuSans-65" x="898.738281"/>
     <use xlink:href="#DejaVuSans-2d" x="960.261719"/>
     <use xlink:href="#DejaVuSans-30" x="996.345703"/>
     <use xlink:href="#DejaVuSans-38" x="1059.96875"/>
    </g>
    <!-- 15 instances -->
    <g transform="translate(60.632064 60.954904)scale(0.102 -0.102)">
     <use xlink:href="#DejaVuSans-31"/>
     <use xlink:href="#DejaVuSans-35" x="63.623047"/>
     <use xlink:href="#DejaVuSans-20" x="127.246094"/>
     <use xlink:href="#DejaVuSans-69" x="159.033203"/>
     <use xlink:href="#DejaVuSans-6e" x="186.816406"/>
     <use xlink:href="#DejaVuSans-73" x="250.195312"/>
     <use xlink:href="#DejaVuSans-74" x="302.294922"/>
     <use xlink:href="#DejaVuSans-61" x="341.503906"/>
     <use xlink:href="#DejaVuSans-6e" x="402.783203"/>
     <use xlink:href="#DejaVuSans-63" x="466.162109"/>
     <use xlink:href="#DejaVuSans-65" x="521.142578"/>
     <use xlink:href="#DejaVuSans-73" x="582.666016"/>
    </g>
   </g>
   <g id="text_17">
    <!-- v2.6 -->
    <g style="fill: #808080" transform="translate(198.292262 294.151352)scale(0.1 -0.1)">
     <use xlink:href="#DejaVuSans-76"/>
     <use xlink:href="#DejaVuSans-32" x="59.179688"/>
     <use xlink:href="#DejaVuSans-2e" x="122.802734"/>
     <use xlink:href="#DejaVuSans-36" x="154.589844"/>
    </g>
   </g>
   <g id="text_18">
    <!-- 23 Katsuuras -->
    <g transform="translate(143.536012 21.648)scale(0.2 -0.2)">
     <defs>
      <path id="DejaVuSans-4b" d="M 628 4666 
L 1259 4666 
L 1259 2694 
L 3353 4666 
L 4166 4666 
L 1850 2491 
L 4331 0 
L 3500 0 
L 1259 2247 
L 1259 0 
L 628 0 
L 628 4666 
z
" transform="scale(0.015625)"/>
     </defs>
     <use xlink:href="#DejaVuSans-32"/>
     <use xlink:href="#DejaVuSans-33" x="63.623047"/>
     <use xlink:href="#DejaVuSans-20" x="127.246094"/>
     <use xlink:href="#DejaVuSans-4b" x="159.033203"/>
     <use xlink:href="#DejaVuSans-61" x="222.859375"/>
     <use xlink:href="#DejaVuSans-74" x="284.138672"/>
     <use xlink:href="#DejaVuSans-73" x="323.347656"/>
     <use xlink:href="#DejaVuSans-75" x="375.447266"/>
     <use xlink:href="#DejaVuSans-75" x="438.826172"/>
     <use xlink:href="#DejaVuSans-72" x="502.205078"/>
     <use xlink:href="#DejaVuSans-61" x="543.318359"/>
     <use xlink:href="#DejaVuSans-73" x="604.597656"/>
    </g>
   </g>
  </g>
 </g>
 <defs>
  <clipPath id="p53200223dc">
   <rect x="57.6" y="27.648" width="303.2064" height="271.296"/>
  </clipPath>
 </defs>
</svg>
