<?xml version="1.0" encoding="utf-8" standalone="no"?>
<!DOCTYPE svg PUBLIC "-//W3C//DTD SVG 1.1//EN"
  "http://www.w3.org/Graphics/SVG/1.1/DTD/svg11.dtd">
<svg xmlns:xlink="http://www.w3.org/1999/xlink" width="460.8pt" height="345.6pt" viewBox="0 0 460.8 345.6" xmlns="http://www.w3.org/2000/svg" version="1.1">
 <metadata>
  <rdf:RDF xmlns:dc="http://purl.org/dc/elements/1.1/" xmlns:cc="http://creativecommons.org/ns#" xmlns:rdf="http://www.w3.org/1999/02/22-rdf-syntax-ns#">
   <cc:Work>
    <dc:type rdf:resource="http://purl.org/dc/dcmitype/StillImage"/>
    <dc:date>2024-05-29T08:05:39.949946</dc:date>
    <dc:format>image/svg+xml</dc:format>
    <dc:creator>
     <cc:Agent>
      <dc:title>Matplotlib v3.5.1, https://matplotlib.org/</dc:title>
     </cc:Agent>
    </dc:creator>
   </cc:Work>
  </rdf:RDF>
 </metadata>
 <defs>
  <style type="text/css">*{stroke-linejoin: round; stroke-linecap: butt}</style>
 </defs>
 <g id="figure_1">
  <g id="patch_1">
   <path d="M 0 345.6 
L 460.8 345.6 
L 460.8 0 
L 0 0 
z
" style="fill: #ffffff"/>
  </g>
  <g id="axes_1">
   <g id="patch_2">
    <path d="M 57.6 298.944 
L 360.8064 298.944 
L 360.8064 27.648 
L 57.6 27.648 
z
" style="fill: #ffffff"/>
   </g>
   <g id="line2d_1">
    <path d="M 100.535156 298.944 
L 100.535156 293.624471 
L 107.109915 293.624471 
L 107.109915 288.304941 
L 141.261484 288.304941 
L 141.261484 282.985412 
L 151.102962 282.985412 
L 151.102962 277.665882 
L 154.854139 277.665882 
L 154.854139 272.346353 
L 159.351007 272.346353 
L 159.351007 267.026824 
L 162.527853 267.026824 
L 162.527853 261.707294 
L 165.483464 261.707294 
L 165.483464 256.387765 
L 168.404973 256.387765 
L 168.404973 251.068235 
L 168.410176 251.068235 
L 168.410176 245.748706 
L 168.462127 245.748706 
L 168.462127 240.429176 
L 168.606832 240.429176 
L 168.606832 235.109647 
L 168.617126 235.109647 
L 168.617126 229.790118 
L 168.627414 229.790118 
L 168.627414 224.470588 
L 168.637696 224.470588 
L 168.637696 213.831529 
L 168.653109 213.831529 
L 168.653109 208.512 
L 168.719753 208.512 
L 168.719753 203.192471 
L 168.781062 203.192471 
L 168.781062 197.872941 
L 168.806548 197.872941 
L 168.806548 192.553412 
L 168.816733 192.553412 
L 168.816733 187.233882 
L 168.852337 187.233882 
L 168.852337 176.594824 
L 168.857418 176.594824 
L 168.857418 171.275294 
L 168.877727 171.275294 
L 168.877727 160.636235 
L 169.014245 160.636235 
L 169.014245 144.677647 
L 169.019282 144.677647 
L 169.019282 128.719059 
L 169.029352 128.719059 
L 169.029352 118.08 
L 169.034386 118.08 
L 169.034386 112.760471 
L 169.064557 112.760471 
L 169.064557 107.440941 
L 169.129761 107.440941 
L 169.129761 102.121412 
L 169.134768 102.121412 
L 169.134768 96.801882 
L 169.184759 96.801882 
L 169.184759 91.482353 
L 169.19973 91.482353 
L 169.19973 80.843294 
L 169.209704 80.843294 
L 169.209704 75.523765 
L 169.214689 75.523765 
L 169.214689 70.204235 
L 207.422056 70.204235 
L 207.422056 59.565176 
L 207.42271 59.565176 
L 207.42271 54.245647 
L 207.423364 54.245647 
L 207.423364 43.606588 
L 207.424018 43.606588 
L 207.424018 38.287059 
L 207.424672 38.287059 
L 207.424672 27.648 
L 360.8064 27.648 
" style="fill: none; stroke: #f5deb3; stroke-width: 4; stroke-linecap: square"/>
   </g>
   <g id="line2d_2">
    <defs>
     <path id="m5c74eaa710" d="M 0 7.778175 
L 7.778175 0 
L 0 -7.778175 
L -7.778175 0 
z
" style="stroke: #f5deb3; stroke-width: 1.5; stroke-linejoin: miter"/>
    </defs>
    <g>
     <use xlink:href="#m5c74eaa710" x="169.019282" y="144.677647" style="fill: #f5deb3; stroke: #f5deb3; stroke-width: 1.5; stroke-linejoin: miter"/>
     <use xlink:href="#m5c74eaa710" x="207.424672" y="38.287059" style="fill: #f5deb3; stroke: #f5deb3; stroke-width: 1.5; stroke-linejoin: miter"/>
     <use xlink:href="#m5c74eaa710" x="207.424672" y="27.648" style="fill: #f5deb3; stroke: #f5deb3; stroke-width: 1.5; stroke-linejoin: miter"/>
     <use xlink:href="#m5c74eaa710" x="207.424672" y="27.648" style="fill: #f5deb3; stroke: #f5deb3; stroke-width: 1.5; stroke-linejoin: miter"/>
     <use xlink:href="#m5c74eaa710" x="360.8064" y="27.648" style="fill: #f5deb3; stroke: #f5deb3; stroke-width: 1.5; stroke-linejoin: miter"/>
    </g>
   </g>
   <g id="line2d_3">
    <path style="fill: none; stroke: #f5deb3; stroke-width: 4; stroke-linecap: square"/>
    <g/>
   </g>
   <g id="line2d_4">
    <path d="M 360.8064 27.648 
L 380.514816 33.07392 
" style="fill: none; stroke: #f5deb3; stroke-width: 4; stroke-linecap: square"/>
    <g>
     <use xlink:href="#m5c74eaa710" x="360.8064" y="27.648" style="fill: #f5deb3; stroke: #f5deb3; stroke-width: 1.5; stroke-linejoin: miter"/>
     <use xlink:href="#m5c74eaa710" x="380.514816" y="33.07392" style="fill: #f5deb3; stroke: #f5deb3; stroke-width: 1.5; stroke-linejoin: miter"/>
    </g>
   </g>
   <g id="matplotlib.axis_1">
    <g id="xtick_1">
     <g id="line2d_5">
      <path d="M 57.6 298.944 
L 57.6 27.648 
" clip-path="url(#p76e9daa2fe)" style="fill: none; stroke: #b0b0b0; stroke-width: 0.8; stroke-linecap: square"/>
     </g>
     <g id="line2d_6">
      <defs>
       <path id="mcdde6d1724" d="M 0 0 
L 0 3.5 
" style="stroke: #000000; stroke-width: 0.8"/>
      </defs>
      <g>
       <use xlink:href="#mcdde6d1724" x="57.6" y="298.944" style="stroke: #000000; stroke-width: 0.8"/>
      </g>
     </g>
     <g id="text_1">
      <!-- 0 -->
      <g transform="translate(52.191875 318.861344)scale(0.17 -0.17)">
       <defs>
        <path id="DejaVuSans-30" d="M 2034 4250 
Q 1547 4250 1301 3770 
Q 1056 3291 1056 2328 
Q 1056 1369 1301 889 
Q 1547 409 2034 409 
Q 2525 409 2770 889 
Q 3016 1369 3016 2328 
Q 3016 3291 2770 3770 
Q 2525 4250 2034 4250 
z
M 2034 4750 
Q 2819 4750 3233 4129 
Q 3647 3509 3647 2328 
Q 3647 1150 3233 529 
Q 2819 -91 2034 -91 
Q 1250 -91 836 529 
Q 422 1150 422 2328 
Q 422 3509 836 4129 
Q 1250 4750 2034 4750 
z
" transform="scale(0.015625)"/>
       </defs>
       <use xlink:href="#DejaVuSans-30"/>
      </g>
     </g>
    </g>
    <g id="xtick_2">
     <g id="line2d_7">
      <path d="M 144.2304 298.944 
L 144.2304 27.648 
" clip-path="url(#p76e9daa2fe)" style="fill: none; stroke: #b0b0b0; stroke-width: 0.8; stroke-linecap: square"/>
     </g>
     <g id="line2d_8">
      <g>
       <use xlink:href="#mcdde6d1724" x="144.2304" y="298.944" style="stroke: #000000; stroke-width: 0.8"/>
      </g>
     </g>
     <g id="text_2">
      <!-- 2 -->
      <g transform="translate(138.822275 318.861344)scale(0.17 -0.17)">
       <defs>
        <path id="DejaVuSans-32" d="M 1228 531 
L 3431 531 
L 3431 0 
L 469 0 
L 469 531 
Q 828 903 1448 1529 
Q 2069 2156 2228 2338 
Q 2531 2678 2651 2914 
Q 2772 3150 2772 3378 
Q 2772 3750 2511 3984 
Q 2250 4219 1831 4219 
Q 1534 4219 1204 4116 
Q 875 4013 500 3803 
L 500 4441 
Q 881 4594 1212 4672 
Q 1544 4750 1819 4750 
Q 2544 4750 2975 4387 
Q 3406 4025 3406 3419 
Q 3406 3131 3298 2873 
Q 3191 2616 2906 2266 
Q 2828 2175 2409 1742 
Q 1991 1309 1228 531 
z
" transform="scale(0.015625)"/>
       </defs>
       <use xlink:href="#DejaVuSans-32"/>
      </g>
     </g>
    </g>
    <g id="xtick_3">
     <g id="line2d_9">
      <path d="M 230.8608 298.944 
L 230.8608 27.648 
" clip-path="url(#p76e9daa2fe)" style="fill: none; stroke: #b0b0b0; stroke-width: 0.8; stroke-linecap: square"/>
     </g>
     <g id="line2d_10">
      <g>
       <use xlink:href="#mcdde6d1724" x="230.8608" y="298.944" style="stroke: #000000; stroke-width: 0.8"/>
      </g>
     </g>
     <g id="text_3">
      <!-- 4 -->
      <g transform="translate(225.452675 318.861344)scale(0.17 -0.17)">
       <defs>
        <path id="DejaVuSans-34" d="M 2419 4116 
L 825 1625 
L 2419 1625 
L 2419 4116 
z
M 2253 4666 
L 3047 4666 
L 3047 1625 
L 3713 1625 
L 3713 1100 
L 3047 1100 
L 3047 0 
L 2419 0 
L 2419 1100 
L 313 1100 
L 313 1709 
L 2253 4666 
z
" transform="scale(0.015625)"/>
       </defs>
       <use xlink:href="#DejaVuSans-34"/>
      </g>
     </g>
    </g>
    <g id="xtick_4">
     <g id="line2d_11">
      <path d="M 317.4912 298.944 
L 317.4912 27.648 
" clip-path="url(#p76e9daa2fe)" style="fill: none; stroke: #b0b0b0; stroke-width: 0.8; stroke-linecap: square"/>
     </g>
     <g id="line2d_12">
      <g>
       <use xlink:href="#mcdde6d1724" x="317.4912" y="298.944" style="stroke: #000000; stroke-width: 0.8"/>
      </g>
     </g>
     <g id="text_4">
      <!-- 6 -->
      <g transform="translate(312.083075 318.861344)scale(0.17 -0.17)">
       <defs>
        <path id="DejaVuSans-36" d="M 2113 2584 
Q 1688 2584 1439 2293 
Q 1191 2003 1191 1497 
Q 1191 994 1439 701 
Q 1688 409 2113 409 
Q 2538 409 2786 701 
Q 3034 994 3034 1497 
Q 3034 2003 2786 2293 
Q 2538 2584 2113 2584 
z
M 3366 4563 
L 3366 3988 
Q 3128 4100 2886 4159 
Q 2644 4219 2406 4219 
Q 1781 4219 1451 3797 
Q 1122 3375 1075 2522 
Q 1259 2794 1537 2939 
Q 1816 3084 2150 3084 
Q 2853 3084 3261 2657 
Q 3669 2231 3669 1497 
Q 3669 778 3244 343 
Q 2819 -91 2113 -91 
Q 1303 -91 875 529 
Q 447 1150 447 2328 
Q 447 3434 972 4092 
Q 1497 4750 2381 4750 
Q 2619 4750 2861 4703 
Q 3103 4656 3366 4563 
z
" transform="scale(0.015625)"/>
       </defs>
       <use xlink:href="#DejaVuSans-36"/>
      </g>
     </g>
    </g>
    <g id="xtick_5">
     <g id="line2d_13">
      <path d="M 100.9152 298.944 
L 100.9152 27.648 
" clip-path="url(#p76e9daa2fe)" style="fill: none; stroke: #b0b0b0; stroke-width: 0.8; stroke-linecap: square"/>
     </g>
     <g id="line2d_14">
      <defs>
       <path id="m0bff907c6d" d="M 0 0 
L 0 2 
" style="stroke: #000000; stroke-width: 0.6"/>
      </defs>
      <g>
       <use xlink:href="#m0bff907c6d" x="100.9152" y="298.944" style="stroke: #000000; stroke-width: 0.6"/>
      </g>
     </g>
    </g>
    <g id="xtick_6">
     <g id="line2d_15">
      <path d="M 187.5456 298.944 
L 187.5456 27.648 
" clip-path="url(#p76e9daa2fe)" style="fill: none; stroke: #b0b0b0; stroke-width: 0.8; stroke-linecap: square"/>
     </g>
     <g id="line2d_16">
      <g>
       <use xlink:href="#m0bff907c6d" x="187.5456" y="298.944" style="stroke: #000000; stroke-width: 0.6"/>
      </g>
     </g>
    </g>
    <g id="xtick_7">
     <g id="line2d_17">
      <path d="M 274.176 298.944 
L 274.176 27.648 
" clip-path="url(#p76e9daa2fe)" style="fill: none; stroke: #b0b0b0; stroke-width: 0.8; stroke-linecap: square"/>
     </g>
     <g id="line2d_18">
      <g>
       <use xlink:href="#m0bff907c6d" x="274.176" y="298.944" style="stroke: #000000; stroke-width: 0.6"/>
      </g>
     </g>
    </g>
    <g id="xtick_8">
     <g id="line2d_19">
      <path d="M 360.8064 298.944 
L 360.8064 27.648 
" clip-path="url(#p76e9daa2fe)" style="fill: none; stroke: #b0b0b0; stroke-width: 0.8; stroke-linecap: square"/>
     </g>
     <g id="line2d_20">
      <g>
       <use xlink:href="#m0bff907c6d" x="360.8064" y="298.944" style="stroke: #000000; stroke-width: 0.6"/>
      </g>
     </g>
    </g>
    <g id="text_5">
     <!-- log10(# f-evals / dimension) -->
     <g transform="translate(88.823278 339.314156)scale(0.17 -0.17)">
      <defs>
       <path id="DejaVuSans-6c" d="M 603 4863 
L 1178 4863 
L 1178 0 
L 603 0 
L 603 4863 
z
" transform="scale(0.015625)"/>
       <path id="DejaVuSans-6f" d="M 1959 3097 
Q 1497 3097 1228 2736 
Q 959 2375 959 1747 
Q 959 1119 1226 758 
Q 1494 397 1959 397 
Q 2419 397 2687 759 
Q 2956 1122 2956 1747 
Q 2956 2369 2687 2733 
Q 2419 3097 1959 3097 
z
M 1959 3584 
Q 2709 3584 3137 3096 
Q 3566 2609 3566 1747 
Q 3566 888 3137 398 
Q 2709 -91 1959 -91 
Q 1206 -91 779 398 
Q 353 888 353 1747 
Q 353 2609 779 3096 
Q 1206 3584 1959 3584 
z
" transform="scale(0.015625)"/>
       <path id="DejaVuSans-67" d="M 2906 1791 
Q 2906 2416 2648 2759 
Q 2391 3103 1925 3103 
Q 1463 3103 1205 2759 
Q 947 2416 947 1791 
Q 947 1169 1205 825 
Q 1463 481 1925 481 
Q 2391 481 2648 825 
Q 2906 1169 2906 1791 
z
M 3481 434 
Q 3481 -459 3084 -895 
Q 2688 -1331 1869 -1331 
Q 1566 -1331 1297 -1286 
Q 1028 -1241 775 -1147 
L 775 -588 
Q 1028 -725 1275 -790 
Q 1522 -856 1778 -856 
Q 2344 -856 2625 -561 
Q 2906 -266 2906 331 
L 2906 616 
Q 2728 306 2450 153 
Q 2172 0 1784 0 
Q 1141 0 747 490 
Q 353 981 353 1791 
Q 353 2603 747 3093 
Q 1141 3584 1784 3584 
Q 2172 3584 2450 3431 
Q 2728 3278 2906 2969 
L 2906 3500 
L 3481 3500 
L 3481 434 
z
" transform="scale(0.015625)"/>
       <path id="DejaVuSans-31" d="M 794 531 
L 1825 531 
L 1825 4091 
L 703 3866 
L 703 4441 
L 1819 4666 
L 2450 4666 
L 2450 531 
L 3481 531 
L 3481 0 
L 794 0 
L 794 531 
z
" transform="scale(0.015625)"/>
       <path id="DejaVuSans-28" d="M 1984 4856 
Q 1566 4138 1362 3434 
Q 1159 2731 1159 2009 
Q 1159 1288 1364 580 
Q 1569 -128 1984 -844 
L 1484 -844 
Q 1016 -109 783 600 
Q 550 1309 550 2009 
Q 550 2706 781 3412 
Q 1013 4119 1484 4856 
L 1984 4856 
z
" transform="scale(0.015625)"/>
       <path id="DejaVuSans-23" d="M 3272 2816 
L 2363 2816 
L 2100 1772 
L 3016 1772 
L 3272 2816 
z
M 2803 4594 
L 2478 3297 
L 3391 3297 
L 3719 4594 
L 4219 4594 
L 3897 3297 
L 4872 3297 
L 4872 2816 
L 3775 2816 
L 3519 1772 
L 4513 1772 
L 4513 1294 
L 3397 1294 
L 3072 0 
L 2572 0 
L 2894 1294 
L 1978 1294 
L 1656 0 
L 1153 0 
L 1478 1294 
L 494 1294 
L 494 1772 
L 1594 1772 
L 1856 2816 
L 850 2816 
L 850 3297 
L 1978 3297 
L 2297 4594 
L 2803 4594 
z
" transform="scale(0.015625)"/>
       <path id="DejaVuSans-20" transform="scale(0.015625)"/>
       <path id="DejaVuSans-66" d="M 2375 4863 
L 2375 4384 
L 1825 4384 
Q 1516 4384 1395 4259 
Q 1275 4134 1275 3809 
L 1275 3500 
L 2222 3500 
L 2222 3053 
L 1275 3053 
L 1275 0 
L 697 0 
L 697 3053 
L 147 3053 
L 147 3500 
L 697 3500 
L 697 3744 
Q 697 4328 969 4595 
Q 1241 4863 1831 4863 
L 2375 4863 
z
" transform="scale(0.015625)"/>
       <path id="DejaVuSans-2d" d="M 313 2009 
L 1997 2009 
L 1997 1497 
L 313 1497 
L 313 2009 
z
" transform="scale(0.015625)"/>
       <path id="DejaVuSans-65" d="M 3597 1894 
L 3597 1613 
L 953 1613 
Q 991 1019 1311 708 
Q 1631 397 2203 397 
Q 2534 397 2845 478 
Q 3156 559 3463 722 
L 3463 178 
Q 3153 47 2828 -22 
Q 2503 -91 2169 -91 
Q 1331 -91 842 396 
Q 353 884 353 1716 
Q 353 2575 817 3079 
Q 1281 3584 2069 3584 
Q 2775 3584 3186 3129 
Q 3597 2675 3597 1894 
z
M 3022 2063 
Q 3016 2534 2758 2815 
Q 2500 3097 2075 3097 
Q 1594 3097 1305 2825 
Q 1016 2553 972 2059 
L 3022 2063 
z
" transform="scale(0.015625)"/>
       <path id="DejaVuSans-76" d="M 191 3500 
L 800 3500 
L 1894 563 
L 2988 3500 
L 3597 3500 
L 2284 0 
L 1503 0 
L 191 3500 
z
" transform="scale(0.015625)"/>
       <path id="DejaVuSans-61" d="M 2194 1759 
Q 1497 1759 1228 1600 
Q 959 1441 959 1056 
Q 959 750 1161 570 
Q 1363 391 1709 391 
Q 2188 391 2477 730 
Q 2766 1069 2766 1631 
L 2766 1759 
L 2194 1759 
z
M 3341 1997 
L 3341 0 
L 2766 0 
L 2766 531 
Q 2569 213 2275 61 
Q 1981 -91 1556 -91 
Q 1019 -91 701 211 
Q 384 513 384 1019 
Q 384 1609 779 1909 
Q 1175 2209 1959 2209 
L 2766 2209 
L 2766 2266 
Q 2766 2663 2505 2880 
Q 2244 3097 1772 3097 
Q 1472 3097 1187 3025 
Q 903 2953 641 2809 
L 641 3341 
Q 956 3463 1253 3523 
Q 1550 3584 1831 3584 
Q 2591 3584 2966 3190 
Q 3341 2797 3341 1997 
z
" transform="scale(0.015625)"/>
       <path id="DejaVuSans-73" d="M 2834 3397 
L 2834 2853 
Q 2591 2978 2328 3040 
Q 2066 3103 1784 3103 
Q 1356 3103 1142 2972 
Q 928 2841 928 2578 
Q 928 2378 1081 2264 
Q 1234 2150 1697 2047 
L 1894 2003 
Q 2506 1872 2764 1633 
Q 3022 1394 3022 966 
Q 3022 478 2636 193 
Q 2250 -91 1575 -91 
Q 1294 -91 989 -36 
Q 684 19 347 128 
L 347 722 
Q 666 556 975 473 
Q 1284 391 1588 391 
Q 1994 391 2212 530 
Q 2431 669 2431 922 
Q 2431 1156 2273 1281 
Q 2116 1406 1581 1522 
L 1381 1569 
Q 847 1681 609 1914 
Q 372 2147 372 2553 
Q 372 3047 722 3315 
Q 1072 3584 1716 3584 
Q 2034 3584 2315 3537 
Q 2597 3491 2834 3397 
z
" transform="scale(0.015625)"/>
       <path id="DejaVuSans-2f" d="M 1625 4666 
L 2156 4666 
L 531 -594 
L 0 -594 
L 1625 4666 
z
" transform="scale(0.015625)"/>
       <path id="DejaVuSans-64" d="M 2906 2969 
L 2906 4863 
L 3481 4863 
L 3481 0 
L 2906 0 
L 2906 525 
Q 2725 213 2448 61 
Q 2172 -91 1784 -91 
Q 1150 -91 751 415 
Q 353 922 353 1747 
Q 353 2572 751 3078 
Q 1150 3584 1784 3584 
Q 2172 3584 2448 3432 
Q 2725 3281 2906 2969 
z
M 947 1747 
Q 947 1113 1208 752 
Q 1469 391 1925 391 
Q 2381 391 2643 752 
Q 2906 1113 2906 1747 
Q 2906 2381 2643 2742 
Q 2381 3103 1925 3103 
Q 1469 3103 1208 2742 
Q 947 2381 947 1747 
z
" transform="scale(0.015625)"/>
       <path id="DejaVuSans-69" d="M 603 3500 
L 1178 3500 
L 1178 0 
L 603 0 
L 603 3500 
z
M 603 4863 
L 1178 4863 
L 1178 4134 
L 603 4134 
L 603 4863 
z
" transform="scale(0.015625)"/>
       <path id="DejaVuSans-6d" d="M 3328 2828 
Q 3544 3216 3844 3400 
Q 4144 3584 4550 3584 
Q 5097 3584 5394 3201 
Q 5691 2819 5691 2113 
L 5691 0 
L 5113 0 
L 5113 2094 
Q 5113 2597 4934 2840 
Q 4756 3084 4391 3084 
Q 3944 3084 3684 2787 
Q 3425 2491 3425 1978 
L 3425 0 
L 2847 0 
L 2847 2094 
Q 2847 2600 2669 2842 
Q 2491 3084 2119 3084 
Q 1678 3084 1418 2786 
Q 1159 2488 1159 1978 
L 1159 0 
L 581 0 
L 581 3500 
L 1159 3500 
L 1159 2956 
Q 1356 3278 1631 3431 
Q 1906 3584 2284 3584 
Q 2666 3584 2933 3390 
Q 3200 3197 3328 2828 
z
" transform="scale(0.015625)"/>
       <path id="DejaVuSans-6e" d="M 3513 2113 
L 3513 0 
L 2938 0 
L 2938 2094 
Q 2938 2591 2744 2837 
Q 2550 3084 2163 3084 
Q 1697 3084 1428 2787 
Q 1159 2491 1159 1978 
L 1159 0 
L 581 0 
L 581 3500 
L 1159 3500 
L 1159 2956 
Q 1366 3272 1645 3428 
Q 1925 3584 2291 3584 
Q 2894 3584 3203 3211 
Q 3513 2838 3513 2113 
z
" transform="scale(0.015625)"/>
       <path id="DejaVuSans-29" d="M 513 4856 
L 1013 4856 
Q 1481 4119 1714 3412 
Q 1947 2706 1947 2009 
Q 1947 1309 1714 600 
Q 1481 -109 1013 -844 
L 513 -844 
Q 928 -128 1133 580 
Q 1338 1288 1338 2009 
Q 1338 2731 1133 3434 
Q 928 4138 513 4856 
z
" transform="scale(0.015625)"/>
      </defs>
      <use xlink:href="#DejaVuSans-6c"/>
      <use xlink:href="#DejaVuSans-6f" x="27.783203"/>
      <use xlink:href="#DejaVuSans-67" x="88.964844"/>
      <use xlink:href="#DejaVuSans-31" x="152.441406"/>
      <use xlink:href="#DejaVuSans-30" x="216.064453"/>
      <use xlink:href="#DejaVuSans-28" x="279.6875"/>
      <use xlink:href="#DejaVuSans-23" x="318.701172"/>
      <use xlink:href="#DejaVuSans-20" x="402.490234"/>
      <use xlink:href="#DejaVuSans-66" x="434.277344"/>
      <use xlink:href="#DejaVuSans-2d" x="463.982422"/>
      <use xlink:href="#DejaVuSans-65" x="500.066406"/>
      <use xlink:href="#DejaVuSans-76" x="561.589844"/>
      <use xlink:href="#DejaVuSans-61" x="620.769531"/>
      <use xlink:href="#DejaVuSans-6c" x="682.048828"/>
      <use xlink:href="#DejaVuSans-73" x="709.832031"/>
      <use xlink:href="#DejaVuSans-20" x="761.931641"/>
      <use xlink:href="#DejaVuSans-2f" x="793.71875"/>
      <use xlink:href="#DejaVuSans-20" x="827.410156"/>
      <use xlink:href="#DejaVuSans-64" x="859.197266"/>
      <use xlink:href="#DejaVuSans-69" x="922.673828"/>
      <use xlink:href="#DejaVuSans-6d" x="950.457031"/>
      <use xlink:href="#DejaVuSans-65" x="1047.869141"/>
      <use xlink:href="#DejaVuSans-6e" x="1109.392578"/>
      <use xlink:href="#DejaVuSans-73" x="1172.771484"/>
      <use xlink:href="#DejaVuSans-69" x="1224.871094"/>
      <use xlink:href="#DejaVuSans-6f" x="1252.654297"/>
      <use xlink:href="#DejaVuSans-6e" x="1313.835938"/>
      <use xlink:href="#DejaVuSans-29" x="1377.214844"/>
     </g>
    </g>
   </g>
   <g id="matplotlib.axis_2">
    <g id="ytick_1">
     <g id="line2d_21">
      <path d="M 57.6 298.944 
L 360.8064 298.944 
" clip-path="url(#p76e9daa2fe)" style="fill: none; stroke: #b0b0b0; stroke-width: 0.8; stroke-linecap: square"/>
     </g>
     <g id="line2d_22">
      <defs>
       <path id="mf41f2b320e" d="M 0 0 
L -3.5 0 
" style="stroke: #000000; stroke-width: 0.8"/>
      </defs>
      <g>
       <use xlink:href="#mf41f2b320e" x="57.6" y="298.944" style="stroke: #000000; stroke-width: 0.8"/>
      </g>
     </g>
     <g id="text_6">
      <!-- 0.0 -->
      <g transform="translate(25.155 305.02275)scale(0.16 -0.16)">
       <defs>
        <path id="DejaVuSans-2e" d="M 684 794 
L 1344 794 
L 1344 0 
L 684 0 
L 684 794 
z
" transform="scale(0.015625)"/>
       </defs>
       <use xlink:href="#DejaVuSans-30"/>
       <use xlink:href="#DejaVuSans-2e" x="63.623047"/>
       <use xlink:href="#DejaVuSans-30" x="95.410156"/>
      </g>
     </g>
    </g>
    <g id="ytick_2">
     <g id="line2d_23">
      <path d="M 57.6 244.6848 
L 360.8064 244.6848 
" clip-path="url(#p76e9daa2fe)" style="fill: none; stroke: #b0b0b0; stroke-width: 0.8; stroke-linecap: square"/>
     </g>
     <g id="line2d_24">
      <g>
       <use xlink:href="#mf41f2b320e" x="57.6" y="244.6848" style="stroke: #000000; stroke-width: 0.8"/>
      </g>
     </g>
     <g id="text_7">
      <!-- 0.2 -->
      <g transform="translate(25.155 250.76355)scale(0.16 -0.16)">
       <use xlink:href="#DejaVuSans-30"/>
       <use xlink:href="#DejaVuSans-2e" x="63.623047"/>
       <use xlink:href="#DejaVuSans-32" x="95.410156"/>
      </g>
     </g>
    </g>
    <g id="ytick_3">
     <g id="line2d_25">
      <path d="M 57.6 190.4256 
L 360.8064 190.4256 
" clip-path="url(#p76e9daa2fe)" style="fill: none; stroke: #b0b0b0; stroke-width: 0.8; stroke-linecap: square"/>
     </g>
     <g id="line2d_26">
      <g>
       <use xlink:href="#mf41f2b320e" x="57.6" y="190.4256" style="stroke: #000000; stroke-width: 0.8"/>
      </g>
     </g>
     <g id="text_8">
      <!-- 0.4 -->
      <g transform="translate(25.155 196.50435)scale(0.16 -0.16)">
       <use xlink:href="#DejaVuSans-30"/>
       <use xlink:href="#DejaVuSans-2e" x="63.623047"/>
       <use xlink:href="#DejaVuSans-34" x="95.410156"/>
      </g>
     </g>
    </g>
    <g id="ytick_4">
     <g id="line2d_27">
      <path d="M 57.6 136.1664 
L 360.8064 136.1664 
" clip-path="url(#p76e9daa2fe)" style="fill: none; stroke: #b0b0b0; stroke-width: 0.8; stroke-linecap: square"/>
     </g>
     <g id="line2d_28">
      <g>
       <use xlink:href="#mf41f2b320e" x="57.6" y="136.1664" style="stroke: #000000; stroke-width: 0.8"/>
      </g>
     </g>
     <g id="text_9">
      <!-- 0.6 -->
      <g transform="translate(25.155 142.24515)scale(0.16 -0.16)">
       <use xlink:href="#DejaVuSans-30"/>
       <use xlink:href="#DejaVuSans-2e" x="63.623047"/>
       <use xlink:href="#DejaVuSans-36" x="95.410156"/>
      </g>
     </g>
    </g>
    <g id="ytick_5">
     <g id="line2d_29">
      <path d="M 57.6 81.9072 
L 360.8064 81.9072 
" clip-path="url(#p76e9daa2fe)" style="fill: none; stroke: #b0b0b0; stroke-width: 0.8; stroke-linecap: square"/>
     </g>
     <g id="line2d_30">
      <g>
       <use xlink:href="#mf41f2b320e" x="57.6" y="81.9072" style="stroke: #000000; stroke-width: 0.8"/>
      </g>
     </g>
     <g id="text_10">
      <!-- 0.8 -->
      <g transform="translate(25.155 87.98595)scale(0.16 -0.16)">
       <defs>
        <path id="DejaVuSans-38" d="M 2034 2216 
Q 1584 2216 1326 1975 
Q 1069 1734 1069 1313 
Q 1069 891 1326 650 
Q 1584 409 2034 409 
Q 2484 409 2743 651 
Q 3003 894 3003 1313 
Q 3003 1734 2745 1975 
Q 2488 2216 2034 2216 
z
M 1403 2484 
Q 997 2584 770 2862 
Q 544 3141 544 3541 
Q 544 4100 942 4425 
Q 1341 4750 2034 4750 
Q 2731 4750 3128 4425 
Q 3525 4100 3525 3541 
Q 3525 3141 3298 2862 
Q 3072 2584 2669 2484 
Q 3125 2378 3379 2068 
Q 3634 1759 3634 1313 
Q 3634 634 3220 271 
Q 2806 -91 2034 -91 
Q 1263 -91 848 271 
Q 434 634 434 1313 
Q 434 1759 690 2068 
Q 947 2378 1403 2484 
z
M 1172 3481 
Q 1172 3119 1398 2916 
Q 1625 2713 2034 2713 
Q 2441 2713 2670 2916 
Q 2900 3119 2900 3481 
Q 2900 3844 2670 4047 
Q 2441 4250 2034 4250 
Q 1625 4250 1398 4047 
Q 1172 3844 1172 3481 
z
" transform="scale(0.015625)"/>
       </defs>
       <use xlink:href="#DejaVuSans-30"/>
       <use xlink:href="#DejaVuSans-2e" x="63.623047"/>
       <use xlink:href="#DejaVuSans-38" x="95.410156"/>
      </g>
     </g>
    </g>
    <g id="ytick_6">
     <g id="line2d_31">
      <path d="M 57.6 27.648 
L 360.8064 27.648 
" clip-path="url(#p76e9daa2fe)" style="fill: none; stroke: #b0b0b0; stroke-width: 0.8; stroke-linecap: square"/>
     </g>
     <g id="line2d_32">
      <g>
       <use xlink:href="#mf41f2b320e" x="57.6" y="27.648" style="stroke: #000000; stroke-width: 0.8"/>
      </g>
     </g>
     <g id="text_11">
      <!-- 1.0 -->
      <g transform="translate(25.155 33.72675)scale(0.16 -0.16)">
       <use xlink:href="#DejaVuSans-31"/>
       <use xlink:href="#DejaVuSans-2e" x="63.623047"/>
       <use xlink:href="#DejaVuSans-30" x="95.410156"/>
      </g>
     </g>
    </g>
    <g id="text_12">
     <!-- Fraction of function,target pairs -->
     <g transform="translate(17.619531 297.681)rotate(-90)scale(0.17 -0.17)">
      <defs>
       <path id="DejaVuSans-46" d="M 628 4666 
L 3309 4666 
L 3309 4134 
L 1259 4134 
L 1259 2759 
L 3109 2759 
L 3109 2228 
L 1259 2228 
L 1259 0 
L 628 0 
L 628 4666 
z
" transform="scale(0.015625)"/>
       <path id="DejaVuSans-72" d="M 2631 2963 
Q 2534 3019 2420 3045 
Q 2306 3072 2169 3072 
Q 1681 3072 1420 2755 
Q 1159 2438 1159 1844 
L 1159 0 
L 581 0 
L 581 3500 
L 1159 3500 
L 1159 2956 
Q 1341 3275 1631 3429 
Q 1922 3584 2338 3584 
Q 2397 3584 2469 3576 
Q 2541 3569 2628 3553 
L 2631 2963 
z
" transform="scale(0.015625)"/>
       <path id="DejaVuSans-63" d="M 3122 3366 
L 3122 2828 
Q 2878 2963 2633 3030 
Q 2388 3097 2138 3097 
Q 1578 3097 1268 2742 
Q 959 2388 959 1747 
Q 959 1106 1268 751 
Q 1578 397 2138 397 
Q 2388 397 2633 464 
Q 2878 531 3122 666 
L 3122 134 
Q 2881 22 2623 -34 
Q 2366 -91 2075 -91 
Q 1284 -91 818 406 
Q 353 903 353 1747 
Q 353 2603 823 3093 
Q 1294 3584 2113 3584 
Q 2378 3584 2631 3529 
Q 2884 3475 3122 3366 
z
" transform="scale(0.015625)"/>
       <path id="DejaVuSans-74" d="M 1172 4494 
L 1172 3500 
L 2356 3500 
L 2356 3053 
L 1172 3053 
L 1172 1153 
Q 1172 725 1289 603 
Q 1406 481 1766 481 
L 2356 481 
L 2356 0 
L 1766 0 
Q 1100 0 847 248 
Q 594 497 594 1153 
L 594 3053 
L 172 3053 
L 172 3500 
L 594 3500 
L 594 4494 
L 1172 4494 
z
" transform="scale(0.015625)"/>
       <path id="DejaVuSans-75" d="M 544 1381 
L 544 3500 
L 1119 3500 
L 1119 1403 
Q 1119 906 1312 657 
Q 1506 409 1894 409 
Q 2359 409 2629 706 
Q 2900 1003 2900 1516 
L 2900 3500 
L 3475 3500 
L 3475 0 
L 2900 0 
L 2900 538 
Q 2691 219 2414 64 
Q 2138 -91 1772 -91 
Q 1169 -91 856 284 
Q 544 659 544 1381 
z
M 1991 3584 
L 1991 3584 
z
" transform="scale(0.015625)"/>
       <path id="DejaVuSans-2c" d="M 750 794 
L 1409 794 
L 1409 256 
L 897 -744 
L 494 -744 
L 750 256 
L 750 794 
z
" transform="scale(0.015625)"/>
       <path id="DejaVuSans-70" d="M 1159 525 
L 1159 -1331 
L 581 -1331 
L 581 3500 
L 1159 3500 
L 1159 2969 
Q 1341 3281 1617 3432 
Q 1894 3584 2278 3584 
Q 2916 3584 3314 3078 
Q 3713 2572 3713 1747 
Q 3713 922 3314 415 
Q 2916 -91 2278 -91 
Q 1894 -91 1617 61 
Q 1341 213 1159 525 
z
M 3116 1747 
Q 3116 2381 2855 2742 
Q 2594 3103 2138 3103 
Q 1681 3103 1420 2742 
Q 1159 2381 1159 1747 
Q 1159 1113 1420 752 
Q 1681 391 2138 391 
Q 2594 391 2855 752 
Q 3116 1113 3116 1747 
z
" transform="scale(0.015625)"/>
      </defs>
      <use xlink:href="#DejaVuSans-46"/>
      <use xlink:href="#DejaVuSans-72" x="50.269531"/>
      <use xlink:href="#DejaVuSans-61" x="91.382812"/>
      <use xlink:href="#DejaVuSans-63" x="152.662109"/>
      <use xlink:href="#DejaVuSans-74" x="207.642578"/>
      <use xlink:href="#DejaVuSans-69" x="246.851562"/>
      <use xlink:href="#DejaVuSans-6f" x="274.634766"/>
      <use xlink:href="#DejaVuSans-6e" x="335.816406"/>
      <use xlink:href="#DejaVuSans-20" x="399.195312"/>
      <use xlink:href="#DejaVuSans-6f" x="430.982422"/>
      <use xlink:href="#DejaVuSans-66" x="492.164062"/>
      <use xlink:href="#DejaVuSans-20" x="527.369141"/>
      <use xlink:href="#DejaVuSans-66" x="559.15625"/>
      <use xlink:href="#DejaVuSans-75" x="594.361328"/>
      <use xlink:href="#DejaVuSans-6e" x="657.740234"/>
      <use xlink:href="#DejaVuSans-63" x="721.119141"/>
      <use xlink:href="#DejaVuSans-74" x="776.099609"/>
      <use xlink:href="#DejaVuSans-69" x="815.308594"/>
      <use xlink:href="#DejaVuSans-6f" x="843.091797"/>
      <use xlink:href="#DejaVuSans-6e" x="904.273438"/>
      <use xlink:href="#DejaVuSans-2c" x="967.652344"/>
      <use xlink:href="#DejaVuSans-74" x="999.439453"/>
      <use xlink:href="#DejaVuSans-61" x="1038.648438"/>
      <use xlink:href="#DejaVuSans-72" x="1099.927734"/>
      <use xlink:href="#DejaVuSans-67" x="1139.291016"/>
      <use xlink:href="#DejaVuSans-65" x="1202.767578"/>
      <use xlink:href="#DejaVuSans-74" x="1264.291016"/>
      <use xlink:href="#DejaVuSans-20" x="1303.5"/>
      <use xlink:href="#DejaVuSans-70" x="1335.287109"/>
      <use xlink:href="#DejaVuSans-61" x="1398.763672"/>
      <use xlink:href="#DejaVuSans-69" x="1460.042969"/>
      <use xlink:href="#DejaVuSans-72" x="1487.826172"/>
      <use xlink:href="#DejaVuSans-73" x="1528.939453"/>
     </g>
    </g>
   </g>
   <g id="line2d_33">
    <defs>
     <path id="ma72868d3ac" d="M 0 1.5 
C 0.397805 1.5 0.77937 1.341951 1.06066 1.06066 
C 1.341951 0.77937 1.5 0.397805 1.5 0 
C 1.5 -0.397805 1.341951 -0.77937 1.06066 -1.06066 
C 0.77937 -1.341951 0.397805 -1.5 0 -1.5 
C -0.397805 -1.5 -0.77937 -1.341951 -1.06066 -1.06066 
C -1.341951 -0.77937 -1.5 -0.397805 -1.5 0 
C -1.5 0.397805 -1.341951 0.77937 -1.06066 1.06066 
C -0.77937 1.341951 -0.397805 1.5 0 1.5 
z
" style="stroke: #f5deb3"/>
    </defs>
    <g>
     <use xlink:href="#ma72868d3ac" x="207.424672" y="27.648" style="fill: #f5deb3; stroke: #f5deb3"/>
     <use xlink:href="#ma72868d3ac" x="207.424672" y="27.648" style="fill: #f5deb3; stroke: #f5deb3"/>
    </g>
   </g>
   <g id="line2d_34">
    <defs>
     <path id="m52b85cdd76" d="M 0 1.5 
C 0.397805 1.5 0.77937 1.341951 1.06066 1.06066 
C 1.341951 0.77937 1.5 0.397805 1.5 0 
C 1.5 -0.397805 1.341951 -0.77937 1.06066 -1.06066 
C 0.77937 -1.341951 0.397805 -1.5 0 -1.5 
C -0.397805 -1.5 -0.77937 -1.341951 -1.06066 -1.06066 
C -1.341951 -0.77937 -1.5 -0.397805 -1.5 0 
C -1.5 0.397805 -1.341951 0.77937 -1.06066 1.06066 
C -0.77937 1.341951 -0.397805 1.5 0 1.5 
z
" style="stroke: #000080"/>
    </defs>
    <g>
     <use xlink:href="#m52b85cdd76" x="242.996945" y="27.648" style="fill: #000080; stroke: #000080"/>
     <use xlink:href="#m52b85cdd76" x="242.996945" y="27.648" style="fill: #000080; stroke: #000080"/>
    </g>
   </g>
   <g id="line2d_35">
    <path d="M 135.864417 298.944 
L 135.864417 298.589365 
L 137.085822 298.589365 
L 137.085822 298.234729 
L 137.358854 298.234729 
L 137.439996 297.525459 
L 137.734561 297.525459 
L 137.734561 297.170824 
L 138.232735 297.170824 
L 138.232735 296.816188 
L 139.411192 296.816188 
L 139.411192 296.461553 
L 139.580558 296.461553 
L 139.580558 296.106918 
L 139.748412 296.106918 
L 139.748412 295.752282 
L 140.312801 295.752282 
L 140.312801 295.397647 
L 140.474275 295.397647 
L 140.474275 295.043012 
L 141.195285 295.043012 
L 141.195285 294.688376 
L 141.953481 294.688376 
L 141.953481 294.333741 
L 142.804452 294.333741 
L 142.804452 293.979106 
L 143.965177 293.979106 
L 143.965177 293.624471 
L 146.711739 293.624471 
L 146.711739 293.269835 
L 147.986506 293.269835 
L 147.986506 292.9152 
L 148.726679 292.9152 
L 148.726679 292.560565 
L 149.093387 292.560565 
L 149.093387 292.205929 
L 150.707193 292.205929 
L 150.707193 291.851294 
L 151.477784 291.851294 
L 151.477784 291.496659 
L 152.413875 291.496659 
L 152.413875 291.142024 
L 152.619733 291.142024 
L 152.619733 290.787388 
L 153.88867 290.787388 
L 153.911171 290.078118 
L 154.939501 290.078118 
L 154.939501 289.723482 
L 155.30847 289.723482 
L 155.350181 289.014212 
L 155.422953 289.014212 
L 155.422953 288.659576 
L 156.618856 288.659576 
L 156.618856 288.304941 
L 157.108993 288.304941 
L 157.108993 287.950306 
L 157.549652 287.950306 
L 157.549652 287.595671 
L 160.407056 287.595671 
L 160.407056 287.241035 
L 161.048777 287.241035 
L 161.048777 286.8864 
L 161.17912 286.8864 
L 161.17912 286.531765 
L 162.634233 286.531765 
L 162.634233 286.177129 
L 162.8032 286.177129 
L 162.8032 285.822494 
L 163.012297 285.822494 
L 163.012297 285.467859 
L 163.301182 285.467859 
L 163.301182 285.113224 
L 163.552052 285.113224 
L 163.552052 284.758588 
L 164.259262 284.758588 
L 164.259262 284.403953 
L 164.997064 284.403953 
L 164.997064 284.049318 
L 165.214111 284.049318 
L 165.220276 283.340047 
L 166.193193 283.340047 
L 166.193193 282.985412 
L 166.483591 282.985412 
L 166.483591 282.630776 
L 166.8036 282.630776 
L 166.8036 282.276141 
L 166.967205 282.276141 
L 166.967205 281.921506 
L 168.005271 281.921506 
L 168.005271 281.566871 
L 169.846947 281.566871 
L 169.846947 280.8576 
L 170.388529 280.8576 
L 170.397892 280.148329 
L 170.598091 280.148329 
L 170.598091 279.793694 
L 170.718116 279.793694 
L 170.718116 279.439059 
L 171.813029 279.439059 
L 171.813029 279.084424 
L 172.482581 279.084424 
L 172.482581 278.729788 
L 172.785966 278.729788 
L 172.785966 278.375153 
L 172.91743 278.375153 
L 172.91743 278.020518 
L 173.366453 278.020518 
L 173.366453 277.665882 
L 174.010854 277.665882 
L 174.010854 277.311247 
L 175.22251 277.311247 
L 175.22251 276.956612 
L 175.442151 276.956612 
L 175.442151 276.601976 
L 175.648639 276.601976 
L 175.648639 276.247341 
L 176.117204 276.247341 
L 176.117204 275.892706 
L 176.527132 275.892706 
L 176.527132 275.538071 
L 177.504875 275.538071 
L 177.504875 275.183435 
L 177.664594 275.183435 
L 177.664594 274.8288 
L 178.97899 274.8288 
L 179.01159 274.119529 
L 180.062466 274.119529 
L 180.062466 273.764894 
L 181.622825 273.764894 
L 181.622825 273.410259 
L 181.860998 273.410259 
L 181.860998 273.055624 
L 182.23142 273.055624 
L 182.23142 272.700988 
L 183.006231 272.700988 
L 183.008625 271.991718 
L 183.130337 271.991718 
L 183.130337 271.637082 
L 183.623367 271.637082 
L 183.623367 271.282447 
L 183.883413 271.282447 
L 183.883413 270.927812 
L 184.013234 270.927812 
L 184.013234 270.573176 
L 184.421855 270.573176 
L 184.421855 270.218541 
L 184.856545 270.218541 
L 184.856545 269.863906 
L 184.988465 269.863906 
L 184.988465 269.509271 
L 185.911517 269.509271 
L 185.911517 269.154635 
L 187.132895 269.154635 
L 187.132895 268.8 
L 187.607576 268.8 
L 187.660002 268.090729 
L 188.017446 268.090729 
L 188.125375 267.381459 
L 188.281594 267.381459 
L 188.281594 267.026824 
L 188.885053 267.026824 
L 188.885053 266.672188 
L 189.014247 266.672188 
L 189.014247 266.317553 
L 189.197776 266.317553 
L 189.197776 265.962918 
L 190.013745 265.962918 
L 190.013745 265.608282 
L 190.150186 265.608282 
L 190.235166 264.899012 
L 190.702178 264.899012 
L 190.767278 264.189741 
L 191.151665 264.189741 
L 191.151665 263.835106 
L 191.488735 263.835106 
L 191.488735 263.480471 
L 191.69053 263.480471 
L 191.69053 263.125835 
L 192.161477 263.125835 
L 192.161477 262.7712 
L 193.96364 262.7712 
L 194.058355 262.061929 
L 194.30293 262.061929 
L 194.30293 261.707294 
L 195.102667 261.707294 
L 195.102667 261.352659 
L 195.299268 261.352659 
L 195.299268 260.998024 
L 195.469162 260.998024 
L 195.565208 260.288753 
L 195.648543 260.288753 
L 195.648543 259.934118 
L 196.060964 259.934118 
L 196.158804 259.224847 
L 196.949992 259.224847 
L 196.994441 258.515576 
L 197.808709 258.515576 
L 197.808709 258.160941 
L 198.114718 258.160941 
L 198.194988 257.451671 
L 198.265344 257.451671 
L 198.279171 256.7424 
L 198.450628 256.7424 
L 198.450628 256.387765 
L 198.952743 256.387765 
L 199.009079 255.678494 
L 199.151723 255.678494 
L 199.151723 255.323859 
L 199.457788 255.323859 
L 199.540494 254.614588 
L 200.450736 254.614588 
L 200.450736 254.259953 
L 200.631745 254.259953 
L 200.663618 253.196047 
L 201.330715 253.196047 
L 201.330715 252.841412 
L 201.701301 252.841412 
L 201.701301 252.486776 
L 202.263637 252.486776 
L 202.321187 251.422871 
L 202.502135 251.422871 
L 202.502135 251.068235 
L 202.75693 251.068235 
L 202.75693 250.7136 
L 202.991776 250.7136 
L 203.025677 249.649694 
L 203.49238 249.649694 
L 203.530218 248.940424 
L 203.720664 248.940424 
L 203.720664 248.585788 
L 203.909989 248.585788 
L 204.014526 247.876518 
L 204.13329 247.876518 
L 204.13329 247.521882 
L 204.578181 247.521882 
L 204.578181 247.167247 
L 204.897227 247.167247 
L 204.97857 246.457976 
L 205.6888 246.457976 
L 205.726051 245.748706 
L 206.055215 245.748706 
L 206.055215 245.394071 
L 206.855124 245.394071 
L 206.867252 244.6848 
L 207.117479 244.6848 
L 207.117479 243.620894 
L 207.236732 243.620894 
L 207.303975 242.556988 
L 207.567974 242.556988 
L 207.567974 239.365271 
L 207.687639 239.365271 
L 207.687639 239.010635 
L 208.052886 239.010635 
L 208.052886 237.592094 
L 208.409315 237.592094 
L 208.497222 236.882824 
L 208.576727 236.882824 
L 208.635676 236.173553 
L 208.766423 236.173553 
L 208.864193 235.464282 
L 209.02402 235.464282 
L 209.02402 234.045741 
L 209.147332 234.045741 
L 209.162838 231.917929 
L 209.583163 231.917929 
L 209.687808 230.144753 
L 209.71272 230.144753 
L 209.818951 228.016941 
L 209.879305 228.016941 
L 209.977182 226.953035 
L 210.003995 226.953035 
L 210.003995 226.5984 
L 210.327848 226.5984 
L 210.432343 225.889129 
L 210.568929 225.889129 
L 210.576672 224.470588 
L 210.816243 224.470588 
L 210.891439 223.406682 
L 211.040936 223.406682 
L 211.08297 222.342776 
L 211.192465 222.342776 
L 211.192465 221.988141 
L 211.306646 221.988141 
L 211.393153 220.924235 
L 211.46872 220.924235 
L 211.46872 220.5696 
L 211.585959 220.5696 
L 211.592247 219.860329 
L 211.776808 219.860329 
L 211.776808 216.668612 
L 211.97139 216.668612 
L 212.062056 215.959341 
L 212.095752 215.959341 
L 212.115125 215.250071 
L 212.403859 215.250071 
L 212.495964 214.186165 
L 212.566241 214.186165 
L 212.664487 208.512 
L 212.689216 208.512 
L 212.751388 207.093459 
L 212.876588 207.093459 
L 212.924971 205.320282 
L 213.00096 205.320282 
L 213.00096 204.965647 
L 213.276988 204.965647 
L 213.3716 202.837835 
L 213.404459 202.837835 
L 213.404459 202.4832 
L 213.605128 202.4832 
L 213.605128 201.773929 
L 213.729467 201.773929 
L 213.831142 199.646118 
L 213.990011 199.646118 
L 214.088914 198.582212 
L 214.163551 198.582212 
L 214.262912 197.518306 
L 214.287898 197.518306 
L 214.395636 195.745129 
L 214.507248 195.745129 
L 214.603476 193.617318 
L 214.644502 193.617318 
L 214.666762 191.844141 
L 214.777666 191.844141 
L 214.858876 190.780235 
L 214.898911 190.780235 
L 215.004089 190.070965 
L 215.011517 190.070965 
L 215.07606 188.652424 
L 215.138646 188.652424 
L 215.138646 188.297788 
L 215.335903 188.297788 
L 215.423721 187.588518 
L 215.556168 187.588518 
L 215.665763 186.169976 
L 215.675043 186.169976 
L 215.744917 183.687529 
L 215.826667 183.687529 
L 215.826667 183.332894 
L 215.9945 183.332894 
L 216.086319 181.914353 
L 216.189594 181.914353 
L 216.189594 181.559718 
L 216.39933 181.559718 
L 216.447556 180.495812 
L 216.712407 180.495812 
L 216.814296 179.077271 
L 216.866221 179.077271 
L 216.946404 177.658729 
L 217.12255 177.658729 
L 217.12255 177.304094 
L 217.249028 177.304094 
L 217.304797 175.885553 
L 217.360401 175.885553 
L 217.425066 172.693835 
L 217.50635 172.693835 
L 217.591475 171.629929 
L 217.636363 171.629929 
L 217.636363 171.275294 
L 217.748495 171.275294 
L 217.825011 169.502118 
L 217.866344 169.502118 
L 217.953968 168.083576 
L 217.984951 168.083576 
L 218.090209 167.019671 
L 218.111709 167.019671 
L 218.111709 166.3104 
L 218.329028 166.3104 
L 218.416716 165.601129 
L 218.466589 165.601129 
L 218.535174 164.537224 
L 218.610728 164.537224 
L 218.612532 163.473318 
L 218.727975 163.473318 
L 218.837724 158.508424 
L 218.849483 158.508424 
L 218.931592 157.799153 
L 218.976227 157.799153 
L 219.052501 154.962071 
L 219.097906 154.962071 
L 219.146708 152.479624 
L 219.242539 152.479624 
L 219.308358 150.706447 
L 219.394376 150.706447 
L 219.497907 148.224 
L 219.579981 148.224 
L 219.639509 147.514729 
L 219.701574 147.514729 
L 219.72199 146.450824 
L 219.819002 146.450824 
L 219.884524 145.032282 
L 220.027941 145.032282 
L 220.027941 144.677647 
L 220.320103 144.677647 
L 220.320103 144.323012 
L 220.449456 144.323012 
L 220.552562 142.549835 
L 220.693254 142.549835 
L 220.693254 142.1952 
L 220.853729 142.1952 
L 220.910323 141.485929 
L 220.978521 141.485929 
L 221.085419 139.712753 
L 221.106599 139.712753 
L 221.206804 138.648847 
L 221.307727 138.648847 
L 221.384778 135.811765 
L 221.455934 135.811765 
L 221.482896 135.102494 
L 221.607289 135.102494 
L 221.69844 134.393224 
L 221.845435 134.393224 
L 221.944812 132.620047 
L 222.061393 132.620047 
L 222.118066 129.073694 
L 222.216315 129.073694 
L 222.308126 127.655153 
L 222.418359 127.655153 
L 222.462213 126.945882 
L 222.546983 126.945882 
L 222.546983 126.591247 
L 222.701166 126.591247 
L 222.701166 126.236612 
L 222.838253 126.236612 
L 222.889764 125.527341 
L 223.254617 125.527341 
L 223.257435 124.818071 
L 223.422136 124.818071 
L 223.499915 121.980988 
L 223.60589 121.980988 
L 223.612528 121.271718 
L 223.756881 121.271718 
L 223.797453 119.143906 
L 224.106527 119.143906 
L 224.16516 118.08 
L 224.275473 118.08 
L 224.289884 117.370729 
L 224.431798 117.370729 
L 224.447677 116.306824 
L 224.552405 116.306824 
L 224.639279 114.888282 
L 224.795738 114.888282 
L 224.89726 111.341929 
L 224.924103 111.341929 
L 225.019548 109.568753 
L 225.066706 109.568753 
L 225.171871 104.603859 
L 225.224996 104.603859 
L 225.282779 101.766776 
L 225.378441 101.766776 
L 225.464097 100.348235 
L 225.494397 100.348235 
L 225.588245 97.865788 
L 225.684351 97.865788 
L 225.765422 93.610165 
L 225.82526 93.610165 
L 225.931415 91.482353 
L 225.985853 91.482353 
L 226.069522 89.354541 
L 226.235991 89.354541 
L 226.337707 87.936 
L 226.380483 87.936 
L 226.406961 87.226729 
L 226.524822 87.226729 
L 226.524822 86.517459 
L 227.218485 86.517459 
L 227.218485 86.162824 
L 227.414261 86.162824 
L 227.498798 85.098918 
L 227.545076 85.098918 
L 227.622997 82.971106 
L 227.705936 82.971106 
L 227.707493 81.9072 
L 227.871167 81.9072 
L 227.961582 81.197929 
L 228.178471 81.197929 
L 228.271743 80.134024 
L 228.487667 80.134024 
L 228.487667 79.779388 
L 228.761179 79.779388 
L 228.761179 79.424753 
L 228.877969 79.424753 
L 228.877969 79.070118 
L 229.130856 79.070118 
L 229.162384 78.360847 
L 229.517062 78.360847 
L 229.594889 77.296941 
L 229.790651 77.296941 
L 229.790651 76.942306 
L 230.16641 76.942306 
L 230.187088 76.233035 
L 230.371988 76.233035 
L 230.393792 75.523765 
L 230.510294 75.523765 
L 230.52696 74.814494 
L 230.693387 74.814494 
L 230.759321 73.041318 
L 230.845745 73.041318 
L 230.845745 72.686682 
L 231.446411 72.686682 
L 231.446411 72.332047 
L 232.235433 72.332047 
L 232.341448 71.622776 
L 232.564766 71.622776 
L 232.580052 69.8496 
L 232.95772 69.8496 
L 232.964618 67.721788 
L 233.07899 67.721788 
L 233.07899 67.367153 
L 233.795785 67.367153 
L 233.795785 67.012518 
L 234.056306 67.012518 
L 234.056306 63.8208 
L 234.183807 63.8208 
L 234.256503 58.146635 
L 234.318122 58.146635 
L 234.355652 53.891012 
L 234.599643 53.891012 
L 234.691634 53.181741 
L 235.010559 53.181741 
L 235.067354 51.408565 
L 235.275732 51.408565 
L 235.379432 49.990024 
L 235.511674 49.990024 
L 235.511674 49.635388 
L 235.826931 49.635388 
L 235.826931 49.280753 
L 236.021246 49.280753 
L 236.098157 48.571482 
L 237.629423 48.571482 
L 237.629423 47.507576 
L 237.812957 47.507576 
L 237.812957 46.798306 
L 238.799417 46.798306 
L 238.813474 45.025129 
L 238.943066 45.025129 
L 238.943066 44.670494 
L 241.651591 44.670494 
L 241.749491 41.833412 
L 242.281992 41.833412 
L 242.368104 38.287059 
L 242.768993 38.287059 
L 242.871794 28.002635 
L 242.996945 28.002635 
L 242.996945 27.648 
L 360.8064 27.648 
L 360.8064 27.648 
" style="fill: none; stroke: #000080; stroke-width: 1.5; stroke-linecap: square"/>
   </g>
   <g id="line2d_36">
    <defs>
     <path id="me2d3777dba" d="M 0 6 
C 1.591219 6 3.117479 5.367802 4.242641 4.242641 
C 5.367802 3.117479 6 1.591219 6 0 
C 6 -1.591219 5.367802 -3.117479 4.242641 -4.242641 
C 3.117479 -5.367802 1.591219 -6 0 -6 
C -1.591219 -6 -3.117479 -5.367802 -4.242641 -4.242641 
C -5.367802 -3.117479 -6 -1.591219 -6 0 
C -6 1.591219 -5.367802 3.117479 -4.242641 4.242641 
C -3.117479 5.367802 -1.591219 6 0 6 
z
" style="stroke: #000080; stroke-width: 1.5"/>
    </defs>
    <g>
     <use xlink:href="#me2d3777dba" x="211.97139" y="216.668612" style="fill-opacity: 0; stroke: #000080; stroke-width: 1.5"/>
     <use xlink:href="#me2d3777dba" x="230.371988" y="75.8784" style="fill-opacity: 0; stroke: #000080; stroke-width: 1.5"/>
     <use xlink:href="#me2d3777dba" x="242.996945" y="27.648" style="fill-opacity: 0; stroke: #000080; stroke-width: 1.5"/>
     <use xlink:href="#me2d3777dba" x="242.996945" y="27.648" style="fill-opacity: 0; stroke: #000080; stroke-width: 1.5"/>
     <use xlink:href="#me2d3777dba" x="360.8064" y="27.648" style="fill-opacity: 0; stroke: #000080; stroke-width: 1.5"/>
    </g>
   </g>
   <g id="line2d_37">
    <path style="fill: none; stroke: #000080; stroke-width: 1.5; stroke-linecap: square"/>
    <g/>
   </g>
   <g id="line2d_38">
    <defs>
     <path id="mcb2be7c165" d="M 0 1.5 
C 0.397805 1.5 0.77937 1.341951 1.06066 1.06066 
C 1.341951 0.77937 1.5 0.397805 1.5 0 
C 1.5 -0.397805 1.341951 -0.77937 1.06066 -1.06066 
C 0.77937 -1.341951 0.397805 -1.5 0 -1.5 
C -0.397805 -1.5 -0.77937 -1.341951 -1.06066 -1.06066 
C -1.341951 -0.77937 -1.5 -0.397805 -1.5 0 
C -1.5 0.397805 -1.341951 0.77937 -1.06066 1.06066 
C -0.77937 1.341951 -0.397805 1.5 0 1.5 
z
" style="stroke: #ff00ff"/>
    </defs>
    <g>
     <use xlink:href="#mcb2be7c165" x="250.482194" y="27.648" style="fill: #ff00ff; stroke: #ff00ff"/>
     <use xlink:href="#mcb2be7c165" x="250.482194" y="27.648" style="fill: #ff00ff; stroke: #ff00ff"/>
    </g>
   </g>
   <g id="line2d_39">
    <path d="M 143.38393 298.944 
L 143.423243 298.234729 
L 143.501625 298.234729 
L 143.501625 297.880094 
L 143.734829 297.880094 
L 143.773417 297.170824 
L 144.022326 297.170824 
L 144.06033 296.106918 
L 145.538293 296.106918 
L 145.538293 295.752282 
L 145.79969 295.752282 
L 145.79969 295.397647 
L 146.311833 295.397647 
L 146.311833 295.043012 
L 146.892226 295.043012 
L 146.892226 294.688376 
L 147.216013 294.688376 
L 147.216013 294.333741 
L 147.407644 294.333741 
L 147.455248 293.269835 
L 149.833983 293.269835 
L 149.833983 292.9152 
L 150.042308 292.9152 
L 150.042308 292.560565 
L 150.166205 292.560565 
L 150.166205 292.205929 
L 150.289291 292.205929 
L 150.289291 291.851294 
L 151.643413 291.851294 
L 151.643413 291.496659 
L 151.97036 291.496659 
L 151.97036 291.142024 
L 152.291722 291.142024 
L 152.303973 290.432753 
L 152.655828 290.432753 
L 152.655828 290.078118 
L 152.847174 290.078118 
L 152.906572 288.659576 
L 153.177416 288.659576 
L 153.177416 288.304941 
L 154.854139 288.304941 
L 154.854139 287.950306 
L 155.035072 287.950306 
L 155.077392 287.241035 
L 156.125604 287.241035 
L 156.125604 286.8864 
L 156.560344 286.8864 
L 156.560344 286.531765 
L 156.75468 286.531765 
L 156.783658 285.822494 
L 157.061501 285.822494 
L 157.061501 285.467859 
L 157.752425 285.467859 
L 157.752425 285.113224 
L 158.392304 285.113224 
L 158.392304 284.758588 
L 158.507144 284.758588 
L 158.507144 284.403953 
L 158.734741 284.403953 
L 158.734741 284.049318 
L 158.864805 284.049318 
L 158.864805 283.694682 
L 159.808529 283.694682 
L 159.808529 283.340047 
L 159.964032 283.340047 
L 159.964032 282.985412 
L 160.215018 282.985412 
L 160.215018 282.630776 
L 160.383158 282.630776 
L 160.399093 281.921506 
L 161.240147 281.921506 
L 161.316153 281.212235 
L 161.691646 281.212235 
L 161.691646 280.8576 
L 161.898693 280.8576 
L 161.950101 279.793694 
L 162.31327 279.793694 
L 162.370732 279.084424 
L 164.2268 279.084424 
L 164.2268 278.729788 
L 164.70794 278.729788 
L 164.70794 278.375153 
L 165.465221 278.375153 
L 165.465221 278.020518 
L 165.610672 278.020518 
L 165.610672 277.665882 
L 165.814821 277.665882 
L 165.856578 276.956612 
L 166.523891 276.956612 
L 166.523891 276.601976 
L 166.894041 276.601976 
L 167.000877 275.183435 
L 167.339833 275.183435 
L 167.339833 274.8288 
L 167.973351 274.8288 
L 167.973351 274.474165 
L 168.127132 274.474165 
L 168.127132 274.119529 
L 168.837086 274.119529 
L 168.857418 273.410259 
L 169.682356 273.410259 
L 169.682356 273.055624 
L 170.00533 273.055624 
L 170.038756 271.991718 
L 170.556365 271.991718 
L 170.570284 271.282447 
L 170.83738 271.282447 
L 170.83738 270.927812 
L 170.97406 270.927812 
L 170.97406 270.573176 
L 171.356011 270.573176 
L 171.356011 270.218541 
L 171.541914 270.218541 
L 171.541914 269.863906 
L 172.48677 269.863906 
L 172.48677 269.509271 
L 172.880548 269.509271 
L 172.880548 269.154635 
L 173.569221 269.154635 
L 173.569221 268.8 
L 174.963589 268.8 
L 174.963589 268.445365 
L 175.495771 268.445365 
L 175.495771 268.090729 
L 175.929781 268.090729 
L 176.023726 267.381459 
L 176.127562 267.381459 
L 176.127562 267.026824 
L 176.26855 267.026824 
L 176.3267 266.317553 
L 176.533889 266.317553 
L 176.533889 265.962918 
L 177.83558 265.962918 
L 177.83558 265.608282 
L 178.274853 265.608282 
L 178.274853 264.899012 
L 178.830093 264.899012 
L 178.830093 264.544376 
L 179.002704 264.544376 
L 179.002704 264.189741 
L 179.456369 264.189741 
L 179.542926 263.480471 
L 179.646271 263.480471 
L 179.646271 263.125835 
L 180.00357 263.125835 
L 180.00357 262.7712 
L 181.089573 262.7712 
L 181.182144 261.707294 
L 181.506489 261.707294 
L 181.568624 260.998024 
L 182.101219 260.998024 
L 182.101219 260.643388 
L 182.395389 260.643388 
L 182.395389 260.288753 
L 182.787055 260.288753 
L 182.787055 259.934118 
L 183.022985 259.934118 
L 183.022985 259.579482 
L 183.144604 259.579482 
L 183.144604 259.224847 
L 183.537433 259.224847 
L 183.537433 258.870212 
L 183.821604 258.870212 
L 183.892552 258.160941 
L 183.949574 258.160941 
L 183.949574 257.806306 
L 184.743353 257.806306 
L 184.743353 257.451671 
L 184.873899 257.451671 
L 184.873899 257.097035 
L 185.603277 257.097035 
L 185.651188 256.033129 
L 185.765267 256.033129 
L 185.765267 255.678494 
L 185.919723 255.678494 
L 185.919723 255.323859 
L 186.062746 255.323859 
L 186.119652 254.259953 
L 186.307436 254.259953 
L 186.307436 253.905318 
L 186.515234 253.905318 
L 186.515234 253.550682 
L 186.724693 253.550682 
L 186.724693 253.196047 
L 187.078977 253.196047 
L 187.078977 252.841412 
L 187.594447 252.841412 
L 187.630062 252.132141 
L 196.24074 252.132141 
L 196.24074 251.777506 
L 196.434068 251.777506 
L 196.434068 251.422871 
L 197.034242 251.422871 
L 197.034242 251.068235 
L 197.290354 251.068235 
L 197.290354 250.7136 
L 197.682923 250.7136 
L 197.682923 250.358965 
L 197.866398 250.358965 
L 197.872918 249.649694 
L 198.695563 249.649694 
L 198.736077 248.940424 
L 198.834402 248.940424 
L 198.834402 248.585788 
L 199.041779 248.585788 
L 199.041779 248.231153 
L 199.247904 248.231153 
L 199.247904 247.876518 
L 199.377726 247.876518 
L 199.377726 247.521882 
L 200.261272 247.521882 
L 200.261272 247.167247 
L 204.964416 247.167247 
L 204.964416 246.812612 
L 206.877352 246.812612 
L 206.894846 246.103341 
L 207.00482 246.103341 
L 207.00482 245.748706 
L 207.889019 245.748706 
L 207.889019 245.394071 
L 208.127989 245.394071 
L 208.127989 244.6848 
L 210.848429 244.6848 
L 210.848429 244.330165 
L 211.154965 244.330165 
L 211.154965 243.975529 
L 212.139568 243.975529 
L 212.247653 242.556988 
L 212.790265 242.556988 
L 212.790265 242.202353 
L 213.169375 242.202353 
L 213.169375 241.847718 
L 213.32292 241.847718 
L 213.32292 241.493082 
L 213.513105 241.493082 
L 213.513105 241.138447 
L 213.707475 241.138447 
L 213.707475 240.783812 
L 214.120087 240.783812 
L 214.120087 240.429176 
L 215.34878 240.429176 
L 215.417309 239.719906 
L 215.492403 239.719906 
L 215.492403 238.656 
L 215.612527 238.656 
L 215.612527 238.301365 
L 215.769689 238.301365 
L 215.85175 236.528188 
L 216.554508 236.528188 
L 216.554508 236.173553 
L 216.725572 236.173553 
L 216.725572 235.818918 
L 217.076026 235.818918 
L 217.076026 235.464282 
L 217.240882 235.464282 
L 217.240882 235.109647 
L 217.43467 235.109647 
L 217.43467 234.755012 
L 219.091225 234.755012 
L 219.091225 234.400376 
L 219.499284 234.400376 
L 219.499284 234.045741 
L 220.072056 234.045741 
L 220.165623 231.917929 
L 220.231937 231.917929 
L 220.298018 230.854024 
L 220.34644 230.854024 
L 220.450765 228.726212 
L 220.53368 228.726212 
L 220.542798 228.016941 
L 220.672573 228.016941 
L 220.779611 226.243765 
L 220.80146 226.243765 
L 220.85661 225.534494 
L 221.05091 225.534494 
L 221.05091 225.179859 
L 221.234439 225.179859 
L 221.278947 224.470588 
L 221.638644 224.470588 
L 221.638644 224.115953 
L 221.937558 224.115953 
L 221.987069 223.406682 
L 222.147386 223.406682 
L 222.147386 223.052047 
L 222.314645 223.052047 
L 222.409812 221.278871 
L 222.55576 221.278871 
L 222.582945 220.5696 
L 222.770413 220.5696 
L 222.770413 219.860329 
L 224.454553 219.860329 
L 224.454553 219.505694 
L 224.703584 219.505694 
L 224.762209 218.796424 
L 225.065426 218.796424 
L 225.065426 218.441788 
L 225.180778 218.441788 
L 225.224742 217.732518 
L 225.426717 217.732518 
L 225.526898 216.668612 
L 225.570559 216.668612 
L 225.626547 215.959341 
L 225.736296 215.959341 
L 225.736296 215.604706 
L 225.863084 215.604706 
L 225.883928 213.831529 
L 226.019463 213.831529 
L 226.068066 212.412988 
L 226.165379 212.412988 
L 226.272038 211.349082 
L 226.309694 211.349082 
L 226.385973 210.285176 
L 226.433639 210.285176 
L 226.50681 209.575906 
L 226.572374 209.575906 
L 226.623106 208.866635 
L 227.280482 208.866635 
L 227.359051 208.157365 
L 227.560552 208.157365 
L 227.641088 207.448094 
L 227.673651 207.448094 
L 227.774552 206.384188 
L 227.959826 206.384188 
L 228.047415 205.320282 
L 228.157633 205.320282 
L 228.221378 203.547106 
L 228.302803 203.547106 
L 228.377868 201.773929 
L 228.613159 201.773929 
L 228.697764 200.710024 
L 228.729604 200.710024 
L 228.739924 199.646118 
L 229.038442 199.646118 
L 229.038442 199.291482 
L 229.342496 199.291482 
L 229.342496 198.936847 
L 229.623239 198.936847 
L 229.623239 198.582212 
L 229.878262 198.582212 
L 229.878262 198.227576 
L 229.996809 198.227576 
L 229.996809 197.872941 
L 230.153718 197.872941 
L 230.153718 197.518306 
L 230.270547 197.518306 
L 230.272682 195.745129 
L 230.57859 195.745129 
L 230.618267 195.035859 
L 230.732255 195.035859 
L 230.732255 194.681224 
L 231.077572 194.681224 
L 231.077572 194.326588 
L 231.391809 194.326588 
L 231.409357 192.908047 
L 231.549157 192.908047 
L 231.655854 190.780235 
L 231.799569 190.780235 
L 231.878502 188.652424 
L 231.921579 188.652424 
L 231.979453 186.524612 
L 232.038917 186.524612 
L 232.148678 182.978259 
L 232.158864 182.978259 
L 232.252911 182.268988 
L 232.28869 182.268988 
L 232.37515 181.559718 
L 232.427667 181.559718 
L 232.496773 180.850447 
L 233.085509 180.850447 
L 233.173383 180.141176 
L 233.305998 180.141176 
L 233.416841 179.077271 
L 233.482413 179.077271 
L 233.503184 178.368 
L 233.594502 178.368 
L 233.659458 176.949459 
L 233.820875 176.949459 
L 233.898826 174.821647 
L 234.004171 174.821647 
L 234.083429 173.757741 
L 234.421929 173.757741 
L 234.506735 173.048471 
L 234.537704 173.048471 
L 234.638617 172.3392 
L 234.685188 172.3392 
L 234.761327 171.629929 
L 234.814153 171.629929 
L 234.913598 170.920659 
L 234.935727 170.920659 
L 235.0178 169.147482 
L 235.050047 169.147482 
L 235.146609 167.374306 
L 235.171607 167.374306 
L 235.278112 164.891859 
L 235.287332 164.891859 
L 235.317043 163.473318 
L 235.423173 163.473318 
L 235.515787 161.700141 
L 235.716087 161.700141 
L 235.774126 160.990871 
L 236.027965 160.990871 
L 236.027965 160.2816 
L 236.146227 160.2816 
L 236.170358 158.863059 
L 236.348954 158.863059 
L 236.4146 156.735247 
L 236.461031 156.735247 
L 236.571334 153.543529 
L 236.62389 153.543529 
L 236.734346 151.415718 
L 236.737236 151.415718 
L 236.843335 149.287906 
L 236.87069 149.287906 
L 236.87069 148.933271 
L 237.169796 148.933271 
L 237.169796 148.578635 
L 237.463955 148.578635 
L 237.556559 147.514729 
L 237.582896 147.514729 
L 237.685914 146.096188 
L 237.740541 146.096188 
L 237.816336 145.032282 
L 237.894157 145.032282 
L 237.986347 141.485929 
L 238.011704 141.485929 
L 238.114709 139.003482 
L 238.139766 139.003482 
L 238.242329 136.875671 
L 238.418748 136.875671 
L 238.469031 135.811765 
L 238.569818 135.811765 
L 238.656153 134.747859 
L 238.719066 134.747859 
L 238.820868 133.329318 
L 238.904343 133.329318 
L 239.014055 130.1376 
L 239.029902 130.1376 
L 239.127131 126.236612 
L 239.194289 126.236612 
L 239.242544 124.1088 
L 239.30569 124.1088 
L 239.30569 123.754165 
L 239.473052 123.754165 
L 239.473052 123.399529 
L 239.928668 123.399529 
L 239.928668 123.044894 
L 240.090601 123.044894 
L 240.090601 122.690259 
L 240.251152 122.690259 
L 240.330803 120.917082 
L 240.385078 120.917082 
L 240.486168 119.498541 
L 240.531224 119.498541 
L 240.623476 118.08 
L 240.722183 118.08 
L 240.833222 117.016094 
L 240.93194 117.016094 
L 241.034085 115.597553 
L 241.053354 115.597553 
L 241.163658 112.405835 
L 241.186814 112.405835 
L 241.291479 108.504847 
L 241.302281 108.504847 
L 241.409958 103.539953 
L 241.421765 103.539953 
L 241.509868 101.412141 
L 241.538362 101.412141 
L 241.602237 99.9936 
L 241.805296 99.9936 
L 241.875501 99.284329 
L 241.941479 99.284329 
L 242.049409 98.220424 
L 242.097399 98.220424 
L 242.206602 95.737976 
L 242.22121 95.737976 
L 242.330824 90.418447 
L 242.333993 90.418447 
L 242.416713 88.645271 
L 242.586518 88.645271 
L 242.626819 87.581365 
L 242.707162 87.581365 
L 242.807111 86.517459 
L 243.424672 86.517459 
L 243.48727 85.098918 
L 243.544868 85.098918 
L 243.544868 84.744282 
L 243.757977 84.744282 
L 243.837699 83.680376 
L 244.042495 83.680376 
L 244.148519 79.424753 
L 244.155851 79.424753 
L 244.266867 74.814494 
L 244.267881 74.814494 
L 244.378424 71.622776 
L 244.395563 71.622776 
L 244.409941 70.913506 
L 244.880037 70.913506 
L 244.927832 70.204235 
L 245.04502 70.204235 
L 245.130585 68.431059 
L 245.159109 68.431059 
L 245.268836 64.175435 
L 245.298199 64.175435 
L 245.386447 63.466165 
L 245.515501 63.466165 
L 245.61107 62.402259 
L 245.661414 62.402259 
L 245.763915 58.501271 
L 245.804164 58.501271 
L 245.908597 57.082729 
L 245.922793 57.082729 
L 246.026403 53.181741 
L 246.124015 53.181741 
L 246.210311 51.7632 
L 246.243557 51.7632 
L 246.293315 51.053929 
L 246.356567 51.053929 
L 246.43186 50.344659 
L 246.490633 50.344659 
L 246.531731 49.280753 
L 246.611784 49.280753 
L 246.716295 46.089035 
L 246.757872 46.089035 
L 246.790165 45.379765 
L 246.877561 45.379765 
L 246.979571 44.670494 
L 247.072054 44.670494 
L 247.103812 43.606588 
L 247.327688 43.606588 
L 247.421521 42.897318 
L 247.49936 42.897318 
L 247.587782 40.769506 
L 247.617525 40.769506 
L 247.724286 39.7056 
L 247.75864 39.7056 
L 247.865596 38.641694 
L 248.216241 38.641694 
L 248.321079 36.513882 
L 248.347532 36.513882 
L 248.402696 35.095341 
L 248.554301 35.095341 
L 248.612963 34.386071 
L 248.674653 34.386071 
L 248.700614 32.967529 
L 248.834513 32.967529 
L 248.863 32.258259 
L 249.038173 32.258259 
L 249.148933 31.548988 
L 249.226193 31.548988 
L 249.268664 30.839718 
L 249.431427 30.839718 
L 249.431427 30.485082 
L 249.560521 30.485082 
L 249.643875 29.066541 
L 250.29801 29.066541 
L 250.362496 28.357271 
L 250.415789 28.357271 
L 250.482194 27.648 
L 360.8064 27.648 
L 360.8064 27.648 
" style="fill: none; stroke: #ff00ff; stroke-width: 1.5; stroke-linecap: square"/>
   </g>
   <g id="line2d_40">
    <defs>
     <path id="mc80d3b4564" d="M 0 8.485281 
L 5.091169 0 
L 0 -8.485281 
L -5.091169 0 
z
" style="stroke: #ff00ff; stroke-width: 1.5; stroke-linejoin: miter"/>
    </defs>
    <g>
     <use xlink:href="#mc80d3b4564" x="222.770413" y="220.5696" style="fill-opacity: 0; stroke: #ff00ff; stroke-width: 1.5; stroke-linejoin: miter"/>
     <use xlink:href="#mc80d3b4564" x="244.395563" y="71.622776" style="fill-opacity: 0; stroke: #ff00ff; stroke-width: 1.5; stroke-linejoin: miter"/>
     <use xlink:href="#mc80d3b4564" x="250.482194" y="27.648" style="fill-opacity: 0; stroke: #ff00ff; stroke-width: 1.5; stroke-linejoin: miter"/>
     <use xlink:href="#mc80d3b4564" x="250.482194" y="27.648" style="fill-opacity: 0; stroke: #ff00ff; stroke-width: 1.5; stroke-linejoin: miter"/>
     <use xlink:href="#mc80d3b4564" x="360.8064" y="27.648" style="fill-opacity: 0; stroke: #ff00ff; stroke-width: 1.5; stroke-linejoin: miter"/>
    </g>
   </g>
   <g id="line2d_41">
    <path style="fill: none; stroke: #ff00ff; stroke-width: 1.5; stroke-linecap: square"/>
    <g/>
   </g>
   <g id="line2d_42">
    <path d="M 360.8064 27.648 
L 380.514816 293.51808 
" style="fill: none; stroke: #ff00ff; stroke-width: 1.5; stroke-linecap: square"/>
    <g>
     <use xlink:href="#mc80d3b4564" x="360.8064" y="27.648" style="fill-opacity: 0; stroke: #ff00ff; stroke-width: 1.5; stroke-linejoin: miter"/>
     <use xlink:href="#mc80d3b4564" x="380.514816" y="293.51808" style="fill-opacity: 0; stroke: #ff00ff; stroke-width: 1.5; stroke-linejoin: miter"/>
    </g>
   </g>
   <g id="line2d_43">
    <path d="M 360.8064 27.648 
L 380.514816 163.296 
" style="fill: none; stroke: #000080; stroke-width: 1.5; stroke-linecap: square"/>
    <g>
     <use xlink:href="#me2d3777dba" x="360.8064" y="27.648" style="fill-opacity: 0; stroke: #000080; stroke-width: 1.5"/>
     <use xlink:href="#me2d3777dba" x="380.514816" y="163.296" style="fill-opacity: 0; stroke: #000080; stroke-width: 1.5"/>
    </g>
   </g>
   <g id="line2d_44">
    <path d="M 360.8064 298.944 
L 360.8064 27.648 
" style="fill: none; stroke: #000000; stroke-width: 1.5; stroke-linecap: square"/>
   </g>
   <g id="patch_3">
    <path d="M 57.6 298.944 
L 360.8064 298.944 
" style="fill: none; stroke: #000000; stroke-width: 0.8; stroke-linejoin: miter; stroke-linecap: square"/>
   </g>
   <g id="patch_4">
    <path d="M 57.6 27.648 
L 360.8064 27.648 
" style="fill: none; stroke: #000000; stroke-width: 0.8; stroke-linejoin: miter; stroke-linecap: square"/>
   </g>
   <g id="text_13">
    <!-- EvoSpace- -->
    <g transform="translate(386.578944 297.381205)scale(0.14 -0.14)">
     <defs>
      <path id="DejaVuSans-45" d="M 628 4666 
L 3578 4666 
L 3578 4134 
L 1259 4134 
L 1259 2753 
L 3481 2753 
L 3481 2222 
L 1259 2222 
L 1259 531 
L 3634 531 
L 3634 0 
L 628 0 
L 628 4666 
z
" transform="scale(0.015625)"/>
      <path id="DejaVuSans-53" d="M 3425 4513 
L 3425 3897 
Q 3066 4069 2747 4153 
Q 2428 4238 2131 4238 
Q 1616 4238 1336 4038 
Q 1056 3838 1056 3469 
Q 1056 3159 1242 3001 
Q 1428 2844 1947 2747 
L 2328 2669 
Q 3034 2534 3370 2195 
Q 3706 1856 3706 1288 
Q 3706 609 3251 259 
Q 2797 -91 1919 -91 
Q 1588 -91 1214 -16 
Q 841 59 441 206 
L 441 856 
Q 825 641 1194 531 
Q 1563 422 1919 422 
Q 2459 422 2753 634 
Q 3047 847 3047 1241 
Q 3047 1584 2836 1778 
Q 2625 1972 2144 2069 
L 1759 2144 
Q 1053 2284 737 2584 
Q 422 2884 422 3419 
Q 422 4038 858 4394 
Q 1294 4750 2059 4750 
Q 2388 4750 2728 4690 
Q 3069 4631 3425 4513 
z
" transform="scale(0.015625)"/>
     </defs>
     <use xlink:href="#DejaVuSans-45"/>
     <use xlink:href="#DejaVuSans-76" x="63.183594"/>
     <use xlink:href="#DejaVuSans-6f" x="122.363281"/>
     <use xlink:href="#DejaVuSans-53" x="183.544922"/>
     <use xlink:href="#DejaVuSans-70" x="247.021484"/>
     <use xlink:href="#DejaVuSans-61" x="310.498047"/>
     <use xlink:href="#DejaVuSans-63" x="371.777344"/>
     <use xlink:href="#DejaVuSans-65" x="426.757812"/>
     <use xlink:href="#DejaVuSans-2d" x="488.28125"/>
    </g>
   </g>
   <g id="text_14">
    <!-- LCGA -->
    <g transform="translate(386.578944 167.159125)scale(0.14 -0.14)">
     <defs>
      <path id="DejaVuSans-4c" d="M 628 4666 
L 1259 4666 
L 1259 531 
L 3531 531 
L 3531 0 
L 628 0 
L 628 4666 
z
" transform="scale(0.015625)"/>
      <path id="DejaVuSans-43" d="M 4122 4306 
L 4122 3641 
Q 3803 3938 3442 4084 
Q 3081 4231 2675 4231 
Q 1875 4231 1450 3742 
Q 1025 3253 1025 2328 
Q 1025 1406 1450 917 
Q 1875 428 2675 428 
Q 3081 428 3442 575 
Q 3803 722 4122 1019 
L 4122 359 
Q 3791 134 3420 21 
Q 3050 -91 2638 -91 
Q 1578 -91 968 557 
Q 359 1206 359 2328 
Q 359 3453 968 4101 
Q 1578 4750 2638 4750 
Q 3056 4750 3426 4639 
Q 3797 4528 4122 4306 
z
" transform="scale(0.015625)"/>
      <path id="DejaVuSans-47" d="M 3809 666 
L 3809 1919 
L 2778 1919 
L 2778 2438 
L 4434 2438 
L 4434 434 
Q 4069 175 3628 42 
Q 3188 -91 2688 -91 
Q 1594 -91 976 548 
Q 359 1188 359 2328 
Q 359 3472 976 4111 
Q 1594 4750 2688 4750 
Q 3144 4750 3555 4637 
Q 3966 4525 4313 4306 
L 4313 3634 
Q 3963 3931 3569 4081 
Q 3175 4231 2741 4231 
Q 1884 4231 1454 3753 
Q 1025 3275 1025 2328 
Q 1025 1384 1454 906 
Q 1884 428 2741 428 
Q 3075 428 3337 486 
Q 3600 544 3809 666 
z
" transform="scale(0.015625)"/>
      <path id="DejaVuSans-41" d="M 2188 4044 
L 1331 1722 
L 3047 1722 
L 2188 4044 
z
M 1831 4666 
L 2547 4666 
L 4325 0 
L 3669 0 
L 3244 1197 
L 1141 1197 
L 716 0 
L 50 0 
L 1831 4666 
z
" transform="scale(0.015625)"/>
     </defs>
     <use xlink:href="#DejaVuSans-4c"/>
     <use xlink:href="#DejaVuSans-43" x="55.712891"/>
     <use xlink:href="#DejaVuSans-47" x="125.537109"/>
     <use xlink:href="#DejaVuSans-41" x="203.027344"/>
    </g>
   </g>
   <g id="text_15">
    <!-- best 2009 -->
    <g transform="translate(386.578944 36.937045)scale(0.14 -0.14)">
     <defs>
      <path id="DejaVuSans-62" d="M 3116 1747 
Q 3116 2381 2855 2742 
Q 2594 3103 2138 3103 
Q 1681 3103 1420 2742 
Q 1159 2381 1159 1747 
Q 1159 1113 1420 752 
Q 1681 391 2138 391 
Q 2594 391 2855 752 
Q 3116 1113 3116 1747 
z
M 1159 2969 
Q 1341 3281 1617 3432 
Q 1894 3584 2278 3584 
Q 2916 3584 3314 3078 
Q 3713 2572 3713 1747 
Q 3713 922 3314 415 
Q 2916 -91 2278 -91 
Q 1894 -91 1617 61 
Q 1341 213 1159 525 
L 1159 0 
L 581 0 
L 581 4863 
L 1159 4863 
L 1159 2969 
z
" transform="scale(0.015625)"/>
      <path id="DejaVuSans-39" d="M 703 97 
L 703 672 
Q 941 559 1184 500 
Q 1428 441 1663 441 
Q 2288 441 2617 861 
Q 2947 1281 2994 2138 
Q 2813 1869 2534 1725 
Q 2256 1581 1919 1581 
Q 1219 1581 811 2004 
Q 403 2428 403 3163 
Q 403 3881 828 4315 
Q 1253 4750 1959 4750 
Q 2769 4750 3195 4129 
Q 3622 3509 3622 2328 
Q 3622 1225 3098 567 
Q 2575 -91 1691 -91 
Q 1453 -91 1209 -44 
Q 966 3 703 97 
z
M 1959 2075 
Q 2384 2075 2632 2365 
Q 2881 2656 2881 3163 
Q 2881 3666 2632 3958 
Q 2384 4250 1959 4250 
Q 1534 4250 1286 3958 
Q 1038 3666 1038 3163 
Q 1038 2656 1286 2365 
Q 1534 2075 1959 2075 
z
" transform="scale(0.015625)"/>
     </defs>
     <use xlink:href="#DejaVuSans-62"/>
     <use xlink:href="#DejaVuSans-65" x="63.476562"/>
     <use xlink:href="#DejaVuSans-73" x="125"/>
     <use xlink:href="#DejaVuSans-74" x="177.099609"/>
     <use xlink:href="#DejaVuSans-20" x="216.308594"/>
     <use xlink:href="#DejaVuSans-32" x="248.095703"/>
     <use xlink:href="#DejaVuSans-30" x="311.71875"/>
     <use xlink:href="#DejaVuSans-30" x="375.341797"/>
     <use xlink:href="#DejaVuSans-39" x="438.964844"/>
    </g>
   </g>
   <g id="text_16">
    <!-- bbob f4, 10-D -->
    <g transform="translate(60.632064 38.111366)scale(0.102 -0.102)">
     <defs>
      <path id="DejaVuSans-44" d="M 1259 4147 
L 1259 519 
L 2022 519 
Q 2988 519 3436 956 
Q 3884 1394 3884 2338 
Q 3884 3275 3436 3711 
Q 2988 4147 2022 4147 
L 1259 4147 
z
M 628 4666 
L 1925 4666 
Q 3281 4666 3915 4102 
Q 4550 3538 4550 2338 
Q 4550 1131 3912 565 
Q 3275 0 1925 0 
L 628 0 
L 628 4666 
z
" transform="scale(0.015625)"/>
     </defs>
     <use xlink:href="#DejaVuSans-62"/>
     <use xlink:href="#DejaVuSans-62" x="63.476562"/>
     <use xlink:href="#DejaVuSans-6f" x="126.953125"/>
     <use xlink:href="#DejaVuSans-62" x="188.134766"/>
     <use xlink:href="#DejaVuSans-20" x="251.611328"/>
     <use xlink:href="#DejaVuSans-66" x="283.398438"/>
     <use xlink:href="#DejaVuSans-34" x="318.603516"/>
     <use xlink:href="#DejaVuSans-2c" x="382.226562"/>
     <use xlink:href="#DejaVuSans-20" x="414.013672"/>
     <use xlink:href="#DejaVuSans-31" x="445.800781"/>
     <use xlink:href="#DejaVuSans-30" x="509.423828"/>
     <use xlink:href="#DejaVuSans-2d" x="573.046875"/>
     <use xlink:href="#DejaVuSans-44" x="609.130859"/>
    </g>
    <!-- 51 targets: 100..1e-08 -->
    <g transform="translate(60.632064 49.533135)scale(0.102 -0.102)">
     <defs>
      <path id="DejaVuSans-35" d="M 691 4666 
L 3169 4666 
L 3169 4134 
L 1269 4134 
L 1269 2991 
Q 1406 3038 1543 3061 
Q 1681 3084 1819 3084 
Q 2600 3084 3056 2656 
Q 3513 2228 3513 1497 
Q 3513 744 3044 326 
Q 2575 -91 1722 -91 
Q 1428 -91 1123 -41 
Q 819 9 494 109 
L 494 744 
Q 775 591 1075 516 
Q 1375 441 1709 441 
Q 2250 441 2565 725 
Q 2881 1009 2881 1497 
Q 2881 1984 2565 2268 
Q 2250 2553 1709 2553 
Q 1456 2553 1204 2497 
Q 953 2441 691 2322 
L 691 4666 
z
" transform="scale(0.015625)"/>
      <path id="DejaVuSans-3a" d="M 750 794 
L 1409 794 
L 1409 0 
L 750 0 
L 750 794 
z
M 750 3309 
L 1409 3309 
L 1409 2516 
L 750 2516 
L 750 3309 
z
" transform="scale(0.015625)"/>
     </defs>
     <use xlink:href="#DejaVuSans-35"/>
     <use xlink:href="#DejaVuSans-31" x="63.623047"/>
     <use xlink:href="#DejaVuSans-20" x="127.246094"/>
     <use xlink:href="#DejaVuSans-74" x="159.033203"/>
     <use xlink:href="#DejaVuSans-61" x="198.242188"/>
     <use xlink:href="#DejaVuSans-72" x="259.521484"/>
     <use xlink:href="#DejaVuSans-67" x="298.884766"/>
     <use xlink:href="#DejaVuSans-65" x="362.361328"/>
     <use xlink:href="#DejaVuSans-74" x="423.884766"/>
     <use xlink:href="#DejaVuSans-73" x="463.09375"/>
     <use xlink:href="#DejaVuSans-3a" x="515.193359"/>
     <use xlink:href="#DejaVuSans-20" x="548.884766"/>
     <use xlink:href="#DejaVuSans-31" x="580.671875"/>
     <use xlink:href="#DejaVuSans-30" x="644.294922"/>
     <use xlink:href="#DejaVuSans-30" x="707.917969"/>
     <use xlink:href="#DejaVuSans-2e" x="771.541016"/>
     <use xlink:href="#DejaVuSans-2e" x="803.328125"/>
     <use xlink:href="#DejaVuSans-31" x="835.115234"/>
     <use xlink:href="#DejaVuSans-65" x="898.738281"/>
     <use xlink:href="#DejaVuSans-2d" x="960.261719"/>
     <use xlink:href="#DejaVuSans-30" x="996.345703"/>
     <use xlink:href="#DejaVuSans-38" x="1059.96875"/>
    </g>
    <!-- 15 instances -->
    <g transform="translate(60.632064 60.954904)scale(0.102 -0.102)">
     <use xlink:href="#DejaVuSans-31"/>
     <use xlink:href="#DejaVuSans-35" x="63.623047"/>
     <use xlink:href="#DejaVuSans-20" x="127.246094"/>
     <use xlink:href="#DejaVuSans-69" x="159.033203"/>
     <use xlink:href="#DejaVuSans-6e" x="186.816406"/>
     <use xlink:href="#DejaVuSans-73" x="250.195312"/>
     <use xlink:href="#DejaVuSans-74" x="302.294922"/>
     <use xlink:href="#DejaVuSans-61" x="341.503906"/>
     <use xlink:href="#DejaVuSans-6e" x="402.783203"/>
     <use xlink:href="#DejaVuSans-63" x="466.162109"/>
     <use xlink:href="#DejaVuSans-65" x="521.142578"/>
     <use xlink:href="#DejaVuSans-73" x="582.666016"/>
    </g>
   </g>
   <g id="text_17">
    <!-- v2.6 -->
    <g style="fill: #808080" transform="translate(198.292262 294.151352)scale(0.1 -0.1)">
     <use xlink:href="#DejaVuSans-76"/>
     <use xlink:href="#DejaVuSans-32" x="59.179688"/>
     <use xlink:href="#DejaVuSans-2e" x="122.802734"/>
     <use xlink:href="#DejaVuSans-36" x="154.589844"/>
    </g>
   </g>
   <g id="text_18">
    <!-- 4 Skew Rastrigin-Bueche separ -->
    <g transform="translate(54.3282 21.648)scale(0.2 -0.2)">
     <defs>
      <path id="DejaVuSans-6b" d="M 581 4863 
L 1159 4863 
L 1159 1991 
L 2875 3500 
L 3609 3500 
L 1753 1863 
L 3688 0 
L 2938 0 
L 1159 1709 
L 1159 0 
L 581 0 
L 581 4863 
z
" transform="scale(0.015625)"/>
      <path id="DejaVuSans-77" d="M 269 3500 
L 844 3500 
L 1563 769 
L 2278 3500 
L 2956 3500 
L 3675 769 
L 4391 3500 
L 4966 3500 
L 4050 0 
L 3372 0 
L 2619 2869 
L 1863 0 
L 1184 0 
L 269 3500 
z
" transform="scale(0.015625)"/>
      <path id="DejaVuSans-52" d="M 2841 2188 
Q 3044 2119 3236 1894 
Q 3428 1669 3622 1275 
L 4263 0 
L 3584 0 
L 2988 1197 
Q 2756 1666 2539 1819 
Q 2322 1972 1947 1972 
L 1259 1972 
L 1259 0 
L 628 0 
L 628 4666 
L 2053 4666 
Q 2853 4666 3247 4331 
Q 3641 3997 3641 3322 
Q 3641 2881 3436 2590 
Q 3231 2300 2841 2188 
z
M 1259 4147 
L 1259 2491 
L 2053 2491 
Q 2509 2491 2742 2702 
Q 2975 2913 2975 3322 
Q 2975 3731 2742 3939 
Q 2509 4147 2053 4147 
L 1259 4147 
z
" transform="scale(0.015625)"/>
      <path id="DejaVuSans-42" d="M 1259 2228 
L 1259 519 
L 2272 519 
Q 2781 519 3026 730 
Q 3272 941 3272 1375 
Q 3272 1813 3026 2020 
Q 2781 2228 2272 2228 
L 1259 2228 
z
M 1259 4147 
L 1259 2741 
L 2194 2741 
Q 2656 2741 2882 2914 
Q 3109 3088 3109 3444 
Q 3109 3797 2882 3972 
Q 2656 4147 2194 4147 
L 1259 4147 
z
M 628 4666 
L 2241 4666 
Q 2963 4666 3353 4366 
Q 3744 4066 3744 3513 
Q 3744 3084 3544 2831 
Q 3344 2578 2956 2516 
Q 3422 2416 3680 2098 
Q 3938 1781 3938 1306 
Q 3938 681 3513 340 
Q 3088 0 2303 0 
L 628 0 
L 628 4666 
z
" transform="scale(0.015625)"/>
      <path id="DejaVuSans-68" d="M 3513 2113 
L 3513 0 
L 2938 0 
L 2938 2094 
Q 2938 2591 2744 2837 
Q 2550 3084 2163 3084 
Q 1697 3084 1428 2787 
Q 1159 2491 1159 1978 
L 1159 0 
L 581 0 
L 581 4863 
L 1159 4863 
L 1159 2956 
Q 1366 3272 1645 3428 
Q 1925 3584 2291 3584 
Q 2894 3584 3203 3211 
Q 3513 2838 3513 2113 
z
" transform="scale(0.015625)"/>
     </defs>
     <use xlink:href="#DejaVuSans-34"/>
     <use xlink:href="#DejaVuSans-20" x="63.623047"/>
     <use xlink:href="#DejaVuSans-53" x="95.410156"/>
     <use xlink:href="#DejaVuSans-6b" x="158.886719"/>
     <use xlink:href="#DejaVuSans-65" x="213.171875"/>
     <use xlink:href="#DejaVuSans-77" x="274.695312"/>
     <use xlink:href="#DejaVuSans-20" x="356.482422"/>
     <use xlink:href="#DejaVuSans-52" x="388.269531"/>
     <use xlink:href="#DejaVuSans-61" x="455.501953"/>
     <use xlink:href="#DejaVuSans-73" x="516.78125"/>
     <use xlink:href="#DejaVuSans-74" x="568.880859"/>
     <use xlink:href="#DejaVuSans-72" x="608.089844"/>
     <use xlink:href="#DejaVuSans-69" x="649.203125"/>
     <use xlink:href="#DejaVuSans-67" x="676.986328"/>
     <use xlink:href="#DejaVuSans-69" x="740.462891"/>
     <use xlink:href="#DejaVuSans-6e" x="768.246094"/>
     <use xlink:href="#DejaVuSans-2d" x="831.625"/>
     <use xlink:href="#DejaVuSans-42" x="864.083984"/>
     <use xlink:href="#DejaVuSans-75" x="932.6875"/>
     <use xlink:href="#DejaVuSans-65" x="996.066406"/>
     <use xlink:href="#DejaVuSans-63" x="1057.589844"/>
     <use xlink:href="#DejaVuSans-68" x="1112.570312"/>
     <use xlink:href="#DejaVuSans-65" x="1175.949219"/>
     <use xlink:href="#DejaVuSans-20" x="1237.472656"/>
     <use xlink:href="#DejaVuSans-73" x="1269.259766"/>
     <use xlink:href="#DejaVuSans-65" x="1321.359375"/>
     <use xlink:href="#DejaVuSans-70" x="1382.882812"/>
     <use xlink:href="#DejaVuSans-61" x="1446.359375"/>
     <use xlink:href="#DejaVuSans-72" x="1507.638672"/>
    </g>
   </g>
  </g>
 </g>
 <defs>
  <clipPath id="p76e9daa2fe">
   <rect x="57.6" y="27.648" width="303.2064" height="271.296"/>
  </clipPath>
 </defs>
</svg>
