<?xml version="1.0" encoding="utf-8" standalone="no"?>
<!DOCTYPE svg PUBLIC "-//W3C//DTD SVG 1.1//EN"
  "http://www.w3.org/Graphics/SVG/1.1/DTD/svg11.dtd">
<svg xmlns:xlink="http://www.w3.org/1999/xlink" width="460.8pt" height="345.6pt" viewBox="0 0 460.8 345.6" xmlns="http://www.w3.org/2000/svg" version="1.1">
 <metadata>
  <rdf:RDF xmlns:dc="http://purl.org/dc/elements/1.1/" xmlns:cc="http://creativecommons.org/ns#" xmlns:rdf="http://www.w3.org/1999/02/22-rdf-syntax-ns#">
   <cc:Work>
    <dc:type rdf:resource="http://purl.org/dc/dcmitype/StillImage"/>
    <dc:date>2024-05-29T07:58:56.241134</dc:date>
    <dc:format>image/svg+xml</dc:format>
    <dc:creator>
     <cc:Agent>
      <dc:title>Matplotlib v3.5.1, https://matplotlib.org/</dc:title>
     </cc:Agent>
    </dc:creator>
   </cc:Work>
  </rdf:RDF>
 </metadata>
 <defs>
  <style type="text/css">*{stroke-linejoin: round; stroke-linecap: butt}</style>
 </defs>
 <g id="figure_1">
  <g id="patch_1">
   <path d="M 0 345.6 
L 460.8 345.6 
L 460.8 0 
L 0 0 
z
" style="fill: #ffffff"/>
  </g>
  <g id="axes_1">
   <g id="patch_2">
    <path d="M 34.16 291.28 
L 453.192 291.28 
L 453.192 3 
L 34.16 3 
z
" style="fill: #ffffff"/>
   </g>
   <g id="matplotlib.axis_1">
    <g id="xtick_1">
     <g id="line2d_1">
      <path d="M 162.791729 291.28 
L 162.791729 3 
" clip-path="url(#p3800b8ca5c)" style="fill: none; stroke: #b0b0b0; stroke-width: 0.8; stroke-linecap: square"/>
     </g>
     <g id="line2d_2">
      <defs>
       <path id="mbd591cd6c5" d="M 0 0 
L 0 3.5 
" style="stroke: #000000; stroke-width: 0.8"/>
      </defs>
      <g>
       <use xlink:href="#mbd591cd6c5" x="162.791729" y="291.28" style="stroke: #000000; stroke-width: 0.8"/>
      </g>
     </g>
     <g id="text_1">
      <!-- -1 -->
      <g transform="translate(152.821417 313.476875)scale(0.2 -0.2)">
       <defs>
        <path id="DejaVuSans-2d" d="M 313 2009 
L 1997 2009 
L 1997 1497 
L 313 1497 
L 313 2009 
z
" transform="scale(0.015625)"/>
        <path id="DejaVuSans-31" d="M 794 531 
L 1825 531 
L 1825 4091 
L 703 3866 
L 703 4441 
L 1819 4666 
L 2450 4666 
L 2450 531 
L 3481 531 
L 3481 0 
L 794 0 
L 794 531 
z
" transform="scale(0.015625)"/>
       </defs>
       <use xlink:href="#DejaVuSans-2d"/>
       <use xlink:href="#DejaVuSans-31" x="36.083984"/>
      </g>
     </g>
    </g>
    <g id="xtick_2">
     <g id="line2d_3">
      <path d="M 324.560271 291.28 
L 324.560271 3 
" clip-path="url(#p3800b8ca5c)" style="fill: none; stroke: #b0b0b0; stroke-width: 0.8; stroke-linecap: square"/>
     </g>
     <g id="line2d_4">
      <g>
       <use xlink:href="#mbd591cd6c5" x="324.560271" y="291.28" style="stroke: #000000; stroke-width: 0.8"/>
      </g>
     </g>
     <g id="text_2">
      <!-- 1 -->
      <g transform="translate(318.197771 313.476875)scale(0.2 -0.2)">
       <use xlink:href="#DejaVuSans-31"/>
      </g>
     </g>
    </g>
    <g id="xtick_3">
     <g id="line2d_5">
      <defs>
       <path id="m2ab1cf6296" d="M 0 0 
L 0 2 
" style="stroke: #000000; stroke-width: 0.6"/>
      </defs>
      <g>
       <use xlink:href="#m2ab1cf6296" x="39.614793" y="291.28" style="stroke: #000000; stroke-width: 0.6"/>
      </g>
     </g>
    </g>
    <g id="xtick_4">
     <g id="line2d_6">
      <g>
       <use xlink:href="#m2ab1cf6296" x="49.720371" y="291.28" style="stroke: #000000; stroke-width: 0.6"/>
      </g>
     </g>
    </g>
    <g id="xtick_5">
     <g id="line2d_7">
      <g>
       <use xlink:href="#m2ab1cf6296" x="57.558867" y="291.28" style="stroke: #000000; stroke-width: 0.6"/>
      </g>
     </g>
    </g>
    <g id="xtick_6">
     <g id="line2d_8">
      <g>
       <use xlink:href="#m2ab1cf6296" x="63.963384" y="291.28" style="stroke: #000000; stroke-width: 0.6"/>
      </g>
     </g>
    </g>
    <g id="xtick_7">
     <g id="line2d_9">
      <g>
       <use xlink:href="#m2ab1cf6296" x="69.378327" y="291.28" style="stroke: #000000; stroke-width: 0.6"/>
      </g>
     </g>
    </g>
    <g id="xtick_8">
     <g id="line2d_10">
      <g>
       <use xlink:href="#m2ab1cf6296" x="74.068963" y="291.28" style="stroke: #000000; stroke-width: 0.6"/>
      </g>
     </g>
    </g>
    <g id="xtick_9">
     <g id="line2d_11">
      <g>
       <use xlink:href="#m2ab1cf6296" x="78.206397" y="291.28" style="stroke: #000000; stroke-width: 0.6"/>
      </g>
     </g>
    </g>
    <g id="xtick_10">
     <g id="line2d_12">
      <g>
       <use xlink:href="#m2ab1cf6296" x="106.25605" y="291.28" style="stroke: #000000; stroke-width: 0.6"/>
      </g>
     </g>
    </g>
    <g id="xtick_11">
     <g id="line2d_13">
      <g>
       <use xlink:href="#m2ab1cf6296" x="120.499063" y="291.28" style="stroke: #000000; stroke-width: 0.6"/>
      </g>
     </g>
    </g>
    <g id="xtick_12">
     <g id="line2d_14">
      <g>
       <use xlink:href="#m2ab1cf6296" x="130.604642" y="291.28" style="stroke: #000000; stroke-width: 0.6"/>
      </g>
     </g>
    </g>
    <g id="xtick_13">
     <g id="line2d_15">
      <g>
       <use xlink:href="#m2ab1cf6296" x="138.443138" y="291.28" style="stroke: #000000; stroke-width: 0.6"/>
      </g>
     </g>
    </g>
    <g id="xtick_14">
     <g id="line2d_16">
      <g>
       <use xlink:href="#m2ab1cf6296" x="144.847655" y="291.28" style="stroke: #000000; stroke-width: 0.6"/>
      </g>
     </g>
    </g>
    <g id="xtick_15">
     <g id="line2d_17">
      <g>
       <use xlink:href="#m2ab1cf6296" x="150.262597" y="291.28" style="stroke: #000000; stroke-width: 0.6"/>
      </g>
     </g>
    </g>
    <g id="xtick_16">
     <g id="line2d_18">
      <g>
       <use xlink:href="#m2ab1cf6296" x="154.953234" y="291.28" style="stroke: #000000; stroke-width: 0.6"/>
      </g>
     </g>
    </g>
    <g id="xtick_17">
     <g id="line2d_19">
      <g>
       <use xlink:href="#m2ab1cf6296" x="159.090668" y="291.28" style="stroke: #000000; stroke-width: 0.6"/>
      </g>
     </g>
    </g>
    <g id="xtick_18">
     <g id="line2d_20">
      <g>
       <use xlink:href="#m2ab1cf6296" x="187.140321" y="291.28" style="stroke: #000000; stroke-width: 0.6"/>
      </g>
     </g>
    </g>
    <g id="xtick_19">
     <g id="line2d_21">
      <g>
       <use xlink:href="#m2ab1cf6296" x="201.383334" y="291.28" style="stroke: #000000; stroke-width: 0.6"/>
      </g>
     </g>
    </g>
    <g id="xtick_20">
     <g id="line2d_22">
      <g>
       <use xlink:href="#m2ab1cf6296" x="211.488913" y="291.28" style="stroke: #000000; stroke-width: 0.6"/>
      </g>
     </g>
    </g>
    <g id="xtick_21">
     <g id="line2d_23">
      <g>
       <use xlink:href="#m2ab1cf6296" x="219.327408" y="291.28" style="stroke: #000000; stroke-width: 0.6"/>
      </g>
     </g>
    </g>
    <g id="xtick_22">
     <g id="line2d_24">
      <g>
       <use xlink:href="#m2ab1cf6296" x="225.731926" y="291.28" style="stroke: #000000; stroke-width: 0.6"/>
      </g>
     </g>
    </g>
    <g id="xtick_23">
     <g id="line2d_25">
      <g>
       <use xlink:href="#m2ab1cf6296" x="231.146868" y="291.28" style="stroke: #000000; stroke-width: 0.6"/>
      </g>
     </g>
    </g>
    <g id="xtick_24">
     <g id="line2d_26">
      <g>
       <use xlink:href="#m2ab1cf6296" x="235.837504" y="291.28" style="stroke: #000000; stroke-width: 0.6"/>
      </g>
     </g>
    </g>
    <g id="xtick_25">
     <g id="line2d_27">
      <g>
       <use xlink:href="#m2ab1cf6296" x="239.974939" y="291.28" style="stroke: #000000; stroke-width: 0.6"/>
      </g>
     </g>
    </g>
    <g id="xtick_26">
     <g id="line2d_28">
      <g>
       <use xlink:href="#m2ab1cf6296" x="268.024592" y="291.28" style="stroke: #000000; stroke-width: 0.6"/>
      </g>
     </g>
    </g>
    <g id="xtick_27">
     <g id="line2d_29">
      <g>
       <use xlink:href="#m2ab1cf6296" x="282.267605" y="291.28" style="stroke: #000000; stroke-width: 0.6"/>
      </g>
     </g>
    </g>
    <g id="xtick_28">
     <g id="line2d_30">
      <g>
       <use xlink:href="#m2ab1cf6296" x="292.373183" y="291.28" style="stroke: #000000; stroke-width: 0.6"/>
      </g>
     </g>
    </g>
    <g id="xtick_29">
     <g id="line2d_31">
      <g>
       <use xlink:href="#m2ab1cf6296" x="300.211679" y="291.28" style="stroke: #000000; stroke-width: 0.6"/>
      </g>
     </g>
    </g>
    <g id="xtick_30">
     <g id="line2d_32">
      <g>
       <use xlink:href="#m2ab1cf6296" x="306.616196" y="291.28" style="stroke: #000000; stroke-width: 0.6"/>
      </g>
     </g>
    </g>
    <g id="xtick_31">
     <g id="line2d_33">
      <g>
       <use xlink:href="#m2ab1cf6296" x="312.031139" y="291.28" style="stroke: #000000; stroke-width: 0.6"/>
      </g>
     </g>
    </g>
    <g id="xtick_32">
     <g id="line2d_34">
      <g>
       <use xlink:href="#m2ab1cf6296" x="316.721775" y="291.28" style="stroke: #000000; stroke-width: 0.6"/>
      </g>
     </g>
    </g>
    <g id="xtick_33">
     <g id="line2d_35">
      <g>
       <use xlink:href="#m2ab1cf6296" x="320.859209" y="291.28" style="stroke: #000000; stroke-width: 0.6"/>
      </g>
     </g>
    </g>
    <g id="xtick_34">
     <g id="line2d_36">
      <g>
       <use xlink:href="#m2ab1cf6296" x="348.908862" y="291.28" style="stroke: #000000; stroke-width: 0.6"/>
      </g>
     </g>
    </g>
    <g id="xtick_35">
     <g id="line2d_37">
      <g>
       <use xlink:href="#m2ab1cf6296" x="363.151875" y="291.28" style="stroke: #000000; stroke-width: 0.6"/>
      </g>
     </g>
    </g>
    <g id="xtick_36">
     <g id="line2d_38">
      <g>
       <use xlink:href="#m2ab1cf6296" x="373.257454" y="291.28" style="stroke: #000000; stroke-width: 0.6"/>
      </g>
     </g>
    </g>
    <g id="xtick_37">
     <g id="line2d_39">
      <g>
       <use xlink:href="#m2ab1cf6296" x="381.09595" y="291.28" style="stroke: #000000; stroke-width: 0.6"/>
      </g>
     </g>
    </g>
    <g id="xtick_38">
     <g id="line2d_40">
      <g>
       <use xlink:href="#m2ab1cf6296" x="387.500467" y="291.28" style="stroke: #000000; stroke-width: 0.6"/>
      </g>
     </g>
    </g>
    <g id="xtick_39">
     <g id="line2d_41">
      <g>
       <use xlink:href="#m2ab1cf6296" x="392.915409" y="291.28" style="stroke: #000000; stroke-width: 0.6"/>
      </g>
     </g>
    </g>
    <g id="xtick_40">
     <g id="line2d_42">
      <g>
       <use xlink:href="#m2ab1cf6296" x="397.606046" y="291.28" style="stroke: #000000; stroke-width: 0.6"/>
      </g>
     </g>
    </g>
    <g id="xtick_41">
     <g id="line2d_43">
      <g>
       <use xlink:href="#m2ab1cf6296" x="401.74348" y="291.28" style="stroke: #000000; stroke-width: 0.6"/>
      </g>
     </g>
    </g>
    <g id="xtick_42">
     <g id="line2d_44">
      <g>
       <use xlink:href="#m2ab1cf6296" x="429.793133" y="291.28" style="stroke: #000000; stroke-width: 0.6"/>
      </g>
     </g>
    </g>
    <g id="xtick_43">
     <g id="line2d_45">
      <g>
       <use xlink:href="#m2ab1cf6296" x="444.036146" y="291.28" style="stroke: #000000; stroke-width: 0.6"/>
      </g>
     </g>
    </g>
    <g id="text_3">
     <!-- log10 of FEvals ratio -->
     <g transform="translate(141.371312 336.833125)scale(0.2 -0.2)">
      <defs>
       <path id="DejaVuSans-6c" d="M 603 4863 
L 1178 4863 
L 1178 0 
L 603 0 
L 603 4863 
z
" transform="scale(0.015625)"/>
       <path id="DejaVuSans-6f" d="M 1959 3097 
Q 1497 3097 1228 2736 
Q 959 2375 959 1747 
Q 959 1119 1226 758 
Q 1494 397 1959 397 
Q 2419 397 2687 759 
Q 2956 1122 2956 1747 
Q 2956 2369 2687 2733 
Q 2419 3097 1959 3097 
z
M 1959 3584 
Q 2709 3584 3137 3096 
Q 3566 2609 3566 1747 
Q 3566 888 3137 398 
Q 2709 -91 1959 -91 
Q 1206 -91 779 398 
Q 353 888 353 1747 
Q 353 2609 779 3096 
Q 1206 3584 1959 3584 
z
" transform="scale(0.015625)"/>
       <path id="DejaVuSans-67" d="M 2906 1791 
Q 2906 2416 2648 2759 
Q 2391 3103 1925 3103 
Q 1463 3103 1205 2759 
Q 947 2416 947 1791 
Q 947 1169 1205 825 
Q 1463 481 1925 481 
Q 2391 481 2648 825 
Q 2906 1169 2906 1791 
z
M 3481 434 
Q 3481 -459 3084 -895 
Q 2688 -1331 1869 -1331 
Q 1566 -1331 1297 -1286 
Q 1028 -1241 775 -1147 
L 775 -588 
Q 1028 -725 1275 -790 
Q 1522 -856 1778 -856 
Q 2344 -856 2625 -561 
Q 2906 -266 2906 331 
L 2906 616 
Q 2728 306 2450 153 
Q 2172 0 1784 0 
Q 1141 0 747 490 
Q 353 981 353 1791 
Q 353 2603 747 3093 
Q 1141 3584 1784 3584 
Q 2172 3584 2450 3431 
Q 2728 3278 2906 2969 
L 2906 3500 
L 3481 3500 
L 3481 434 
z
" transform="scale(0.015625)"/>
       <path id="DejaVuSans-30" d="M 2034 4250 
Q 1547 4250 1301 3770 
Q 1056 3291 1056 2328 
Q 1056 1369 1301 889 
Q 1547 409 2034 409 
Q 2525 409 2770 889 
Q 3016 1369 3016 2328 
Q 3016 3291 2770 3770 
Q 2525 4250 2034 4250 
z
M 2034 4750 
Q 2819 4750 3233 4129 
Q 3647 3509 3647 2328 
Q 3647 1150 3233 529 
Q 2819 -91 2034 -91 
Q 1250 -91 836 529 
Q 422 1150 422 2328 
Q 422 3509 836 4129 
Q 1250 4750 2034 4750 
z
" transform="scale(0.015625)"/>
       <path id="DejaVuSans-20" transform="scale(0.015625)"/>
       <path id="DejaVuSans-66" d="M 2375 4863 
L 2375 4384 
L 1825 4384 
Q 1516 4384 1395 4259 
Q 1275 4134 1275 3809 
L 1275 3500 
L 2222 3500 
L 2222 3053 
L 1275 3053 
L 1275 0 
L 697 0 
L 697 3053 
L 147 3053 
L 147 3500 
L 697 3500 
L 697 3744 
Q 697 4328 969 4595 
Q 1241 4863 1831 4863 
L 2375 4863 
z
" transform="scale(0.015625)"/>
       <path id="DejaVuSans-46" d="M 628 4666 
L 3309 4666 
L 3309 4134 
L 1259 4134 
L 1259 2759 
L 3109 2759 
L 3109 2228 
L 1259 2228 
L 1259 0 
L 628 0 
L 628 4666 
z
" transform="scale(0.015625)"/>
       <path id="DejaVuSans-45" d="M 628 4666 
L 3578 4666 
L 3578 4134 
L 1259 4134 
L 1259 2753 
L 3481 2753 
L 3481 2222 
L 1259 2222 
L 1259 531 
L 3634 531 
L 3634 0 
L 628 0 
L 628 4666 
z
" transform="scale(0.015625)"/>
       <path id="DejaVuSans-76" d="M 191 3500 
L 800 3500 
L 1894 563 
L 2988 3500 
L 3597 3500 
L 2284 0 
L 1503 0 
L 191 3500 
z
" transform="scale(0.015625)"/>
       <path id="DejaVuSans-61" d="M 2194 1759 
Q 1497 1759 1228 1600 
Q 959 1441 959 1056 
Q 959 750 1161 570 
Q 1363 391 1709 391 
Q 2188 391 2477 730 
Q 2766 1069 2766 1631 
L 2766 1759 
L 2194 1759 
z
M 3341 1997 
L 3341 0 
L 2766 0 
L 2766 531 
Q 2569 213 2275 61 
Q 1981 -91 1556 -91 
Q 1019 -91 701 211 
Q 384 513 384 1019 
Q 384 1609 779 1909 
Q 1175 2209 1959 2209 
L 2766 2209 
L 2766 2266 
Q 2766 2663 2505 2880 
Q 2244 3097 1772 3097 
Q 1472 3097 1187 3025 
Q 903 2953 641 2809 
L 641 3341 
Q 956 3463 1253 3523 
Q 1550 3584 1831 3584 
Q 2591 3584 2966 3190 
Q 3341 2797 3341 1997 
z
" transform="scale(0.015625)"/>
       <path id="DejaVuSans-73" d="M 2834 3397 
L 2834 2853 
Q 2591 2978 2328 3040 
Q 2066 3103 1784 3103 
Q 1356 3103 1142 2972 
Q 928 2841 928 2578 
Q 928 2378 1081 2264 
Q 1234 2150 1697 2047 
L 1894 2003 
Q 2506 1872 2764 1633 
Q 3022 1394 3022 966 
Q 3022 478 2636 193 
Q 2250 -91 1575 -91 
Q 1294 -91 989 -36 
Q 684 19 347 128 
L 347 722 
Q 666 556 975 473 
Q 1284 391 1588 391 
Q 1994 391 2212 530 
Q 2431 669 2431 922 
Q 2431 1156 2273 1281 
Q 2116 1406 1581 1522 
L 1381 1569 
Q 847 1681 609 1914 
Q 372 2147 372 2553 
Q 372 3047 722 3315 
Q 1072 3584 1716 3584 
Q 2034 3584 2315 3537 
Q 2597 3491 2834 3397 
z
" transform="scale(0.015625)"/>
       <path id="DejaVuSans-72" d="M 2631 2963 
Q 2534 3019 2420 3045 
Q 2306 3072 2169 3072 
Q 1681 3072 1420 2755 
Q 1159 2438 1159 1844 
L 1159 0 
L 581 0 
L 581 3500 
L 1159 3500 
L 1159 2956 
Q 1341 3275 1631 3429 
Q 1922 3584 2338 3584 
Q 2397 3584 2469 3576 
Q 2541 3569 2628 3553 
L 2631 2963 
z
" transform="scale(0.015625)"/>
       <path id="DejaVuSans-74" d="M 1172 4494 
L 1172 3500 
L 2356 3500 
L 2356 3053 
L 1172 3053 
L 1172 1153 
Q 1172 725 1289 603 
Q 1406 481 1766 481 
L 2356 481 
L 2356 0 
L 1766 0 
Q 1100 0 847 248 
Q 594 497 594 1153 
L 594 3053 
L 172 3053 
L 172 3500 
L 594 3500 
L 594 4494 
L 1172 4494 
z
" transform="scale(0.015625)"/>
       <path id="DejaVuSans-69" d="M 603 3500 
L 1178 3500 
L 1178 0 
L 603 0 
L 603 3500 
z
M 603 4863 
L 1178 4863 
L 1178 4134 
L 603 4134 
L 603 4863 
z
" transform="scale(0.015625)"/>
      </defs>
      <use xlink:href="#DejaVuSans-6c"/>
      <use xlink:href="#DejaVuSans-6f" x="27.783203"/>
      <use xlink:href="#DejaVuSans-67" x="88.964844"/>
      <use xlink:href="#DejaVuSans-31" x="152.441406"/>
      <use xlink:href="#DejaVuSans-30" x="216.064453"/>
      <use xlink:href="#DejaVuSans-20" x="279.6875"/>
      <use xlink:href="#DejaVuSans-6f" x="311.474609"/>
      <use xlink:href="#DejaVuSans-66" x="372.65625"/>
      <use xlink:href="#DejaVuSans-20" x="407.861328"/>
      <use xlink:href="#DejaVuSans-46" x="439.648438"/>
      <use xlink:href="#DejaVuSans-45" x="497.167969"/>
      <use xlink:href="#DejaVuSans-76" x="560.351562"/>
      <use xlink:href="#DejaVuSans-61" x="619.53125"/>
      <use xlink:href="#DejaVuSans-6c" x="680.810547"/>
      <use xlink:href="#DejaVuSans-73" x="708.59375"/>
      <use xlink:href="#DejaVuSans-20" x="760.693359"/>
      <use xlink:href="#DejaVuSans-72" x="792.480469"/>
      <use xlink:href="#DejaVuSans-61" x="833.59375"/>
      <use xlink:href="#DejaVuSans-74" x="894.873047"/>
      <use xlink:href="#DejaVuSans-69" x="934.082031"/>
      <use xlink:href="#DejaVuSans-6f" x="961.865234"/>
     </g>
    </g>
   </g>
   <g id="matplotlib.axis_2">
    <g id="ytick_1">
     <g id="line2d_46">
      <path d="M 34.16 288.453725 
L 453.192 288.453725 
" clip-path="url(#p3800b8ca5c)" style="fill: none; stroke: #b0b0b0; stroke-width: 0.8; stroke-linecap: square"/>
     </g>
     <g id="line2d_47">
      <defs>
       <path id="m18fef0c1b2" d="M 0 0 
L -3.5 0 
" style="stroke: #000000; stroke-width: 0.8"/>
      </defs>
      <g>
       <use xlink:href="#m18fef0c1b2" x="34.16" y="288.453725" style="stroke: #000000; stroke-width: 0.8"/>
      </g>
     </g>
    </g>
    <g id="ytick_2">
     <g id="line2d_48">
      <path d="M 34.16 217.796863 
L 453.192 217.796863 
" clip-path="url(#p3800b8ca5c)" style="fill: none; stroke: #b0b0b0; stroke-width: 0.8; stroke-linecap: square"/>
     </g>
     <g id="line2d_49">
      <g>
       <use xlink:href="#m18fef0c1b2" x="34.16" y="217.796863" style="stroke: #000000; stroke-width: 0.8"/>
      </g>
     </g>
    </g>
    <g id="ytick_3">
     <g id="line2d_50">
      <path d="M 34.16 147.14 
L 453.192 147.14 
" clip-path="url(#p3800b8ca5c)" style="fill: none; stroke: #b0b0b0; stroke-width: 0.8; stroke-linecap: square"/>
     </g>
     <g id="line2d_51">
      <g>
       <use xlink:href="#m18fef0c1b2" x="34.16" y="147.14" style="stroke: #000000; stroke-width: 0.8"/>
      </g>
     </g>
    </g>
    <g id="ytick_4">
     <g id="line2d_52">
      <path d="M 34.16 76.483137 
L 453.192 76.483137 
" clip-path="url(#p3800b8ca5c)" style="fill: none; stroke: #b0b0b0; stroke-width: 0.8; stroke-linecap: square"/>
     </g>
     <g id="line2d_53">
      <g>
       <use xlink:href="#m18fef0c1b2" x="34.16" y="76.483137" style="stroke: #000000; stroke-width: 0.8"/>
      </g>
     </g>
    </g>
    <g id="ytick_5">
     <g id="line2d_54">
      <path d="M 34.16 5.826275 
L 453.192 5.826275 
" clip-path="url(#p3800b8ca5c)" style="fill: none; stroke: #b0b0b0; stroke-width: 0.8; stroke-linecap: square"/>
     </g>
     <g id="line2d_55">
      <g>
       <use xlink:href="#m18fef0c1b2" x="34.16" y="5.826275" style="stroke: #000000; stroke-width: 0.8"/>
      </g>
     </g>
    </g>
    <g id="text_4">
     <!-- proportion of trials -->
     <g transform="translate(19.000625 240.14625)rotate(-90)scale(0.2 -0.2)">
      <defs>
       <path id="DejaVuSans-70" d="M 1159 525 
L 1159 -1331 
L 581 -1331 
L 581 3500 
L 1159 3500 
L 1159 2969 
Q 1341 3281 1617 3432 
Q 1894 3584 2278 3584 
Q 2916 3584 3314 3078 
Q 3713 2572 3713 1747 
Q 3713 922 3314 415 
Q 2916 -91 2278 -91 
Q 1894 -91 1617 61 
Q 1341 213 1159 525 
z
M 3116 1747 
Q 3116 2381 2855 2742 
Q 2594 3103 2138 3103 
Q 1681 3103 1420 2742 
Q 1159 2381 1159 1747 
Q 1159 1113 1420 752 
Q 1681 391 2138 391 
Q 2594 391 2855 752 
Q 3116 1113 3116 1747 
z
" transform="scale(0.015625)"/>
       <path id="DejaVuSans-6e" d="M 3513 2113 
L 3513 0 
L 2938 0 
L 2938 2094 
Q 2938 2591 2744 2837 
Q 2550 3084 2163 3084 
Q 1697 3084 1428 2787 
Q 1159 2491 1159 1978 
L 1159 0 
L 581 0 
L 581 3500 
L 1159 3500 
L 1159 2956 
Q 1366 3272 1645 3428 
Q 1925 3584 2291 3584 
Q 2894 3584 3203 3211 
Q 3513 2838 3513 2113 
z
" transform="scale(0.015625)"/>
      </defs>
      <use xlink:href="#DejaVuSans-70"/>
      <use xlink:href="#DejaVuSans-72" x="63.476562"/>
      <use xlink:href="#DejaVuSans-6f" x="102.339844"/>
      <use xlink:href="#DejaVuSans-70" x="163.521484"/>
      <use xlink:href="#DejaVuSans-6f" x="226.998047"/>
      <use xlink:href="#DejaVuSans-72" x="288.179688"/>
      <use xlink:href="#DejaVuSans-74" x="329.292969"/>
      <use xlink:href="#DejaVuSans-69" x="368.501953"/>
      <use xlink:href="#DejaVuSans-6f" x="396.285156"/>
      <use xlink:href="#DejaVuSans-6e" x="457.466797"/>
      <use xlink:href="#DejaVuSans-20" x="520.845703"/>
      <use xlink:href="#DejaVuSans-6f" x="552.632812"/>
      <use xlink:href="#DejaVuSans-66" x="613.814453"/>
      <use xlink:href="#DejaVuSans-20" x="649.019531"/>
      <use xlink:href="#DejaVuSans-74" x="680.806641"/>
      <use xlink:href="#DejaVuSans-72" x="720.015625"/>
      <use xlink:href="#DejaVuSans-69" x="761.128906"/>
      <use xlink:href="#DejaVuSans-61" x="788.912109"/>
      <use xlink:href="#DejaVuSans-6c" x="850.191406"/>
      <use xlink:href="#DejaVuSans-73" x="877.974609"/>
     </g>
    </g>
   </g>
   <g id="line2d_56">
    <path d="M 34.16 265.843529 
L 101.798898 265.843529 
L 101.798898 265.592305 
L 102.238249 265.592305 
L 102.238249 265.341081 
L 104.409977 265.341081 
L 104.463023 264.084959 
L 104.558901 264.084959 
L 104.558901 263.833734 
L 104.849327 263.833734 
L 104.902374 262.577612 
L 105.09176 262.577612 
L 105.09176 262.326388 
L 106.145697 262.326388 
L 106.145697 262.075163 
L 106.45799 262.075163 
L 106.45799 261.823939 
L 106.585047 261.823939 
L 106.585047 261.572715 
L 106.778388 261.572715 
L 106.778388 261.32149 
L 106.897341 261.32149 
L 106.960802 260.567817 
L 107.217739 260.567817 
L 107.243719 260.065368 
L 107.330536 260.065368 
L 107.400152 259.311695 
L 107.649801 259.311695 
L 107.649801 259.060471 
L 107.791492 259.060471 
L 107.791492 258.809246 
L 108.228365 258.809246 
L 108.230842 258.306797 
L 108.373574 258.306797 
L 108.450144 257.804349 
L 108.988367 257.804349 
L 108.988367 257.553124 
L 109.109549 257.553124 
L 109.109549 257.3019 
L 109.499543 257.3019 
L 109.583436 256.548227 
L 109.612268 256.548227 
L 109.612268 256.297002 
L 109.759587 256.297002 
L 109.820725 255.794553 
L 109.902511 255.794553 
L 109.944429 255.292105 
L 110.051618 255.292105 
L 110.051618 255.04088 
L 110.2078 255.04088 
L 110.260075 254.538431 
L 110.323957 254.538431 
L 110.323957 254.287207 
L 111.599446 254.287207 
L 111.652492 253.031085 
L 113.335165 253.031085 
L 113.335165 252.779861 
L 113.647459 252.779861 
L 113.647459 252.528636 
L 113.967857 252.528636 
L 113.967857 252.277412 
L 114.109288 252.277412 
L 114.15027 251.774963 
L 114.98096 251.774963 
L 114.98096 251.523739 
L 115.718897 251.523739 
L 115.718897 251.272514 
L 115.961436 251.272514 
L 115.961436 251.02129 
L 116.295541 251.02129 
L 116.299017 250.518841 
L 116.801736 250.518841 
L 116.801736 250.267617 
L 117.010193 250.267617 
L 117.010193 250.016392 
L 118.329975 250.016392 
L 118.383022 248.76027 
L 118.572514 248.76027 
L 118.625561 247.504148 
L 118.90662 247.504148 
L 118.959666 246.248026 
L 119.41133 246.248026 
L 119.41133 245.996802 
L 119.944189 245.996802 
L 119.944189 245.745577 
L 120.065695 245.745577 
L 120.065695 245.494353 
L 120.308234 245.494353 
L 120.377989 244.991904 
L 120.620528 244.991904 
L 120.698387 244.238231 
L 120.839818 244.238231 
L 120.940926 243.484558 
L 120.954633 243.484558 
L 120.954633 243.233333 
L 121.082357 243.233333 
L 121.123339 242.730885 
L 121.275031 242.730885 
L 121.275031 242.47966 
L 121.416462 242.47966 
L 121.457445 241.977211 
L 121.71149 241.977211 
L 121.71149 241.725987 
L 121.954029 241.725987 
L 121.954029 241.474763 
L 122.096147 241.474763 
L 122.182965 240.721089 
L 122.288135 240.721089 
L 122.288135 240.469865 
L 122.50223 240.469865 
L 122.50223 240.218641 
L 122.629527 240.218641 
L 122.629527 239.967416 
L 123.029547 239.967416 
L 123.080794 239.464967 
L 123.226003 239.464967 
L 123.302573 238.711294 
L 123.532266 238.711294 
L 123.606192 238.208845 
L 123.740723 238.208845 
L 123.774805 237.706397 
L 123.939764 237.706397 
L 123.983262 237.203948 
L 124.108911 237.203948 
L 124.108911 236.952723 
L 124.317368 236.952723 
L 124.351972 236.450275 
L 124.435865 236.450275 
L 124.472623 235.947826 
L 124.612016 235.947826 
L 124.612016 235.696601 
L 124.75494 235.696601 
L 124.796858 234.942928 
L 124.868302 234.942928 
L 124.868302 234.691704 
L 125.060229 234.691704 
L 125.060229 234.440479 
L 125.176386 234.440479 
L 125.187568 233.938031 
L 125.766131 233.938031 
L 125.766131 233.686806 
L 125.911341 233.686806 
L 125.98791 233.184357 
L 126.117333 233.184357 
L 126.117333 232.933133 
L 126.624581 232.933133 
L 126.711399 232.430684 
L 127.030664 232.430684 
L 127.121202 231.677011 
L 127.297354 231.677011 
L 127.297354 231.425786 
L 127.440277 231.425786 
L 127.482195 230.923338 
L 127.609228 230.923338 
L 127.609228 230.672113 
L 127.745566 230.672113 
L 127.831006 229.91844 
L 127.861723 229.91844 
L 127.861723 229.667216 
L 127.977244 229.667216 
L 127.977244 229.415991 
L 128.728412 229.415991 
L 128.781458 228.159869 
L 128.880406 228.159869 
L 128.964299 227.65742 
L 129.14045 227.65742 
L 129.14045 227.406196 
L 129.283374 227.406196 
L 129.325292 226.903747 
L 129.588663 226.903747 
L 129.63233 226.401298 
L 129.70482 226.401298 
L 129.70482 226.150074 
L 129.826439 226.150074 
L 129.826439 225.89885 
L 130.436986 225.89885 
L 130.464131 225.396401 
L 130.69339 225.396401 
L 130.776425 224.893952 
L 131.096823 224.893952 
L 131.096823 224.642728 
L 131.238254 224.642728 
L 131.279237 224.140279 
L 132.001783 224.140279 
L 132.109927 223.386606 
L 132.335254 223.386606 
L 132.437517 222.884157 
L 132.447052 222.884157 
L 132.514021 221.628035 
L 132.868114 221.628035 
L 132.868114 221.37681 
L 133.046881 221.37681 
L 133.046881 221.125586 
L 133.304468 221.125586 
L 133.357514 219.367015 
L 133.427984 219.367015 
L 133.427984 219.115791 
L 133.930702 219.115791 
L 133.930702 218.864566 
L 134.13916 218.864566 
L 134.173237 218.362118 
L 134.485531 218.362118 
L 134.485531 218.110893 
L 134.598846 218.110893 
L 134.665908 216.603547 
L 134.805929 216.603547 
L 134.805929 216.352322 
L 134.94736 216.352322 
L 135.040188 215.347425 
L 135.10689 215.347425 
L 135.198839 214.593752 
L 135.238751 214.593752 
L 135.285656 214.091303 
L 135.352481 214.091303 
L 135.426155 213.588854 
L 135.604922 213.588854 
L 135.672879 213.086405 
L 135.771611 213.086405 
L 135.855293 211.830283 
L 135.956225 211.830283 
L 136.009271 210.322937 
L 136.149928 210.322937 
L 136.253931 209.318039 
L 136.328695 209.318039 
L 136.405264 208.564366 
L 136.660874 208.564366 
L 136.763547 207.559468 
L 136.809824 207.559468 
L 136.809824 207.308244 
L 136.952673 207.308244 
L 136.981272 206.805795 
L 137.122704 206.805795 
L 137.226117 205.800898 
L 137.275897 205.800898 
L 137.35979 205.047224 
L 137.454663 205.047224 
L 137.538556 204.293551 
L 137.639808 204.293551 
L 137.720783 203.037429 
L 137.848265 203.037429 
L 137.923569 202.032532 
L 137.984154 202.032532 
L 138.033556 200.525185 
L 138.100311 200.525185 
L 138.162921 200.022736 
L 138.264217 200.022736 
L 138.329652 198.766614 
L 138.376132 198.766614 
L 138.466067 198.264166 
L 138.506759 198.264166 
L 138.507049 197.761717 
L 138.715216 197.761717 
L 138.74309 197.259268 
L 138.908215 197.259268 
L 138.908992 196.756819 
L 139.053424 196.756819 
L 139.129994 196.25437 
L 139.27595 196.25437 
L 139.378075 195.249473 
L 139.406813 195.249473 
L 139.514435 193.993351 
L 139.535183 193.993351 
L 139.535183 193.742126 
L 139.784158 193.742126 
L 139.854448 192.988453 
L 139.932018 192.988453 
L 140.023609 192.23478 
L 140.047295 192.23478 
L 140.135029 191.481107 
L 140.179393 191.481107 
L 140.263286 190.978658 
L 140.362721 190.978658 
L 140.439438 190.224985 
L 140.493297 190.224985 
L 140.5845 188.717638 
L 140.624279 188.717638 
L 140.723958 186.707843 
L 140.765511 186.707843 
L 140.765511 186.456619 
L 140.88765 186.456619 
L 140.88765 186.205394 
L 141.003807 186.205394 
L 141.06095 185.702946 
L 141.147768 185.702946 
L 141.158515 185.200497 
L 141.366972 185.200497 
L 141.467033 184.446824 
L 141.49173 184.446824 
L 141.514726 183.944375 
L 141.633899 183.944375 
L 141.717792 183.190702 
L 141.788083 183.190702 
L 141.893944 182.185804 
L 141.964234 182.185804 
L 142.045596 181.432131 
L 142.078785 181.432131 
L 142.149076 180.678458 
L 142.190806 180.678458 
L 142.28607 179.67356 
L 142.332663 179.67356 
L 142.412555 178.668662 
L 142.458314 178.668662 
L 142.557764 177.161316 
L 142.585069 177.161316 
L 142.634333 175.905194 
L 142.746107 175.905194 
L 142.810743 174.397847 
L 142.89756 174.397847 
L 142.89756 174.146623 
L 143.120053 174.146623 
L 143.216826 173.141725 
L 143.316774 173.141725 
L 143.405678 172.136828 
L 143.574275 172.136828 
L 143.683733 171.383155 
L 143.719743 171.383155 
L 143.795389 170.378257 
L 143.940598 170.378257 
L 144.025032 169.373359 
L 144.074969 169.373359 
L 144.155855 166.861115 
L 144.278816 166.861115 
L 144.278816 166.609891 
L 144.39199 166.609891 
L 144.481827 165.856218 
L 144.508147 165.856218 
L 144.607829 164.85132 
L 144.655158 164.85132 
L 144.715122 164.348871 
L 144.794121 164.348871 
L 144.899963 163.343974 
L 144.911507 163.343974 
L 144.927372 162.841525 
L 145.052938 162.841525 
L 145.163335 161.334179 
L 145.21105 161.334179 
L 145.296932 160.329281 
L 145.326612 160.329281 
L 145.326612 160.078057 
L 145.441711 160.078057 
L 145.511453 159.073159 
L 145.637141 159.073159 
L 145.637141 158.821935 
L 145.774824 158.821935 
L 145.838529 158.319486 
L 145.890981 158.319486 
L 145.971558 157.565813 
L 146.028415 157.565813 
L 146.127622 156.812139 
L 146.150822 156.812139 
L 146.150822 156.560915 
L 146.47122 156.560915 
L 146.47122 156.309691 
L 146.584307 156.309691 
L 146.665646 155.053569 
L 146.759787 155.053569 
L 146.846604 154.55112 
L 146.883179 154.55112 
L 146.883179 154.299895 
L 147.16587 154.299895 
L 147.242668 153.546222 
L 147.281913 153.546222 
L 147.324913 152.792549 
L 147.445679 152.792549 
L 147.484324 152.2901 
L 147.626643 152.2901 
L 147.626643 152.038876 
L 147.744433 152.038876 
L 147.837806 151.285203 
L 147.880805 151.285203 
L 147.966212 150.029081 
L 148.052559 150.029081 
L 148.156855 149.526632 
L 148.245908 149.526632 
L 148.320731 149.024183 
L 148.802381 149.024183 
L 148.802381 148.772959 
L 149.013295 148.772959 
L 149.099504 148.019285 
L 149.275656 148.019285 
L 149.3051 147.516837 
L 149.418579 147.516837 
L 149.513557 146.763163 
L 149.653006 146.763163 
L 149.723869 146.00949 
L 149.840025 146.00949 
L 149.840025 145.758266 
L 150.715095 145.758266 
L 150.733889 145.255817 
L 150.96455 145.255817 
L 151.012384 144.502144 
L 151.346801 144.502144 
L 151.346801 144.250919 
L 151.524117 144.250919 
L 151.633908 143.497246 
L 151.666346 143.497246 
L 151.67742 142.743573 
L 151.844997 142.743573 
L 151.902058 142.241124 
L 151.966066 142.241124 
L 152.040889 141.738675 
L 152.107146 141.738675 
L 152.107146 141.487451 
L 152.434918 141.487451 
L 152.434918 141.236227 
L 153.023341 141.236227 
L 153.023341 140.985002 
L 153.360093 140.985002 
L 153.427802 139.980105 
L 153.672387 139.980105 
L 153.672387 139.72888 
L 153.992785 139.72888 
L 153.992785 139.477656 
L 154.134216 139.477656 
L 154.175198 138.975207 
L 154.373164 138.975207 
L 154.373164 138.723983 
L 154.586876 138.723983 
L 154.678426 137.719085 
L 154.759424 137.719085 
L 154.759424 137.467861 
L 154.946987 137.467861 
L 155.005888 136.714187 
L 155.114391 136.714187 
L 155.114391 136.462963 
L 155.397738 136.462963 
L 155.397738 136.211739 
L 155.566251 136.211739 
L 155.641074 135.458065 
L 155.693452 135.458065 
L 155.793301 134.704392 
L 155.924113 134.704392 
L 156.02787 133.950719 
L 156.25853 133.950719 
L 156.323945 133.197046 
L 156.647134 133.197046 
L 156.721957 132.694597 
L 156.826664 132.694597 
L 156.926593 131.438475 
L 156.952618 131.438475 
L 157.04633 130.182353 
L 157.066709 130.182353 
L 157.102745 129.679904 
L 157.245668 129.679904 
L 157.287586 129.177455 
L 157.401127 129.177455 
L 157.401127 128.926231 
L 157.550957 128.926231 
L 157.550957 128.675007 
L 157.667114 128.675007 
L 157.667114 128.423782 
L 158.020391 128.423782 
L 158.10887 127.418885 
L 158.320208 127.418885 
L 158.398584 126.162763 
L 158.609169 126.162763 
L 158.71346 124.906641 
L 158.830726 124.906641 
L 158.873549 124.404192 
L 159.059938 124.404192 
L 159.059938 124.152967 
L 159.27389 124.152967 
L 159.348713 123.399294 
L 159.391712 123.399294 
L 159.482127 122.645621 
L 159.531547 122.645621 
L 159.599919 122.143172 
L 159.755328 122.143172 
L 159.782161 121.640723 
L 160.076208 121.640723 
L 160.076208 121.389499 
L 160.254058 121.389499 
L 160.254058 121.138275 
L 160.491479 121.138275 
L 160.585071 120.635826 
L 160.6057 120.635826 
L 160.6057 120.384601 
L 160.735626 120.384601 
L 160.778625 119.882153 
L 161.224972 119.882153 
L 161.224972 119.630928 
L 161.998769 119.630928 
L 161.998769 119.379704 
L 162.231074 119.379704 
L 162.335217 118.877255 
L 162.39371 118.877255 
L 162.48236 118.123582 
L 162.604375 118.123582 
L 162.604375 117.872357 
L 162.765708 117.872357 
L 162.765708 117.621133 
L 162.990635 117.621133 
L 163.079653 116.86746 
L 163.112756 116.86746 
L 163.124309 116.365011 
L 163.230022 116.365011 
L 163.310313 115.611338 
L 163.351867 115.611338 
L 163.459234 114.857664 
L 163.513369 114.857664 
L 163.513369 114.60644 
L 163.742581 114.60644 
L 163.823808 114.103991 
L 164.107156 114.103991 
L 164.107156 113.852767 
L 164.345847 113.852767 
L 164.45291 113.350318 
L 164.653354 113.350318 
L 164.653354 113.099094 
L 164.890775 113.099094 
L 164.984367 112.34542 
L 165.004996 112.34542 
L 165.004996 112.094196 
L 165.174123 112.094196 
L 165.267715 111.591747 
L 165.288344 111.591747 
L 165.288344 111.340523 
L 165.706408 111.340523 
L 165.749408 110.838074 
L 166.001338 110.838074 
L 166.021759 110.335625 
L 166.734513 110.335625 
L 166.793006 109.833176 
L 167.017861 109.833176 
L 167.125106 108.32583 
L 167.333302 108.32583 
L 167.444178 107.572157 
L 167.498834 107.572157 
L 167.498834 107.320932 
L 167.649402 107.320932 
L 167.753694 106.818484 
L 167.762758 106.818484 
L 167.870959 106.06481 
L 167.970282 106.06481 
L 168.074574 104.808688 
L 168.100171 104.808688 
L 168.191839 104.30624 
L 168.421051 104.30624 
L 168.475899 103.552566 
L 168.579158 103.552566 
L 168.579158 103.301342 
L 168.745143 103.301342 
L 168.785626 102.547669 
L 169.028491 102.547669 
L 169.028491 102.296444 
L 169.153919 102.296444 
L 169.153919 102.04522 
L 169.294292 102.04522 
L 169.294292 101.793996 
L 169.456183 101.793996 
L 169.531712 101.291547 
L 169.615172 101.291547 
L 169.645933 100.537874 
L 169.729397 100.537874 
L 169.772397 100.035425 
L 169.852593 100.035425 
L 169.946185 99.532976 
L 169.966814 99.532976 
L 169.992244 98.779303 
L 170.234243 98.779303 
L 170.282185 98.276854 
L 170.358604 98.276854 
L 170.462285 97.774405 
L 170.498449 97.774405 
L 170.602741 97.271956 
L 170.636082 97.271956 
L 170.720007 96.769508 
L 170.884709 96.769508 
L 170.989001 95.76461 
L 171.073662 95.76461 
L 171.106266 95.262161 
L 171.240203 95.262161 
L 171.335478 94.508488 
L 171.355521 94.508488 
L 171.449102 93.50359 
L 171.696331 93.50359 
L 171.754824 92.749917 
L 172.012286 92.749917 
L 172.053445 92.247468 
L 172.143339 92.247468 
L 172.143339 91.996244 
L 172.317426 91.996244 
L 172.38076 91.493795 
L 172.474352 91.493795 
L 172.529599 90.488898 
L 172.656124 90.488898 
L 172.767019 89.735224 
L 172.860611 89.735224 
L 172.939446 88.730327 
L 172.991596 88.730327 
L 173.093704 87.976654 
L 173.134863 87.976654 
L 173.134863 87.725429 
L 173.386081 87.725429 
L 173.469144 87.22298 
L 173.510303 87.22298 
L 173.510303 86.971756 
L 173.706961 86.971756 
L 173.815326 86.469307 
L 173.889236 86.469307 
L 173.954401 85.966858 
L 174.224498 85.966858 
L 174.33426 84.961961 
L 174.400825 84.961961 
L 174.47273 84.208288 
L 174.523347 84.208288 
L 174.610758 83.705839 
L 174.66925 83.705839 
L 174.66925 83.454614 
L 174.959488 83.454614 
L 175.000647 82.700941 
L 175.103126 82.700941 
L 175.199099 81.947268 
L 175.220392 81.947268 
L 175.231109 81.444819 
L 175.381342 81.444819 
L 175.449603 80.94237 
L 175.656832 80.94237 
L 175.761124 79.937473 
L 175.798381 79.937473 
L 175.907446 77.927678 
L 175.946761 77.927678 
L 176.011738 77.425229 
L 176.100534 77.425229 
L 176.210419 76.169107 
L 176.235128 76.169107 
L 176.32791 75.164209 
L 176.358215 75.164209 
L 176.462026 74.159312 
L 176.472176 74.159312 
L 176.543389 73.154414 
L 176.584547 73.154414 
L 176.687967 72.149516 
L 176.72279 72.149516 
L 176.824153 71.647068 
L 176.881145 71.647068 
L 176.974737 70.64217 
L 176.995366 70.64217 
L 177.071193 70.139721 
L 177.181417 70.139721 
L 177.287642 69.637272 
L 177.301722 69.637272 
L 177.412078 68.38115 
L 177.453631 68.38115 
L 177.555146 66.873804 
L 177.571814 66.873804 
L 177.653364 65.868906 
L 177.701106 65.868906 
L 177.801026 63.859111 
L 177.818423 63.859111 
L 177.903978 62.10054 
L 178.165601 62.10054 
L 178.178311 61.598092 
L 178.325166 61.598092 
L 178.402819 60.844418 
L 178.460651 60.844418 
L 178.554675 59.839521 
L 178.577916 59.839521 
L 178.635469 59.337072 
L 178.72349 59.337072 
L 178.807128 58.332174 
L 178.859452 58.332174 
L 178.969004 56.824828 
L 178.995147 56.824828 
L 179.091235 55.81993 
L 179.132394 55.81993 
L 179.232568 55.066257 
L 179.249594 55.066257 
L 179.353886 53.307686 
L 179.382129 53.307686 
L 179.484237 51.549115 
L 179.509745 51.549115 
L 179.546733 51.046667 
L 179.633495 51.046667 
L 179.700363 50.041769 
L 179.762211 50.041769 
L 179.859677 48.785647 
L 179.975678 48.785647 
L 180.064938 47.529525 
L 180.131413 47.529525 
L 180.23867 46.524627 
L 180.332262 46.524627 
L 180.352891 46.022179 
L 180.623956 46.022179 
L 180.716913 45.51973 
L 180.735513 45.51973 
L 180.839434 44.766057 
L 180.894484 44.766057 
L 180.991894 43.761159 
L 181.037246 43.761159 
L 181.134799 42.756261 
L 181.225497 42.756261 
L 181.305224 41.500139 
L 181.350021 41.500139 
L 181.393511 40.997691 
L 181.461882 40.997691 
L 181.554119 40.495242 
L 181.644125 40.495242 
L 181.703223 39.992793 
L 181.889591 39.992793 
L 181.991699 39.490344 
L 182.045286 39.490344 
L 182.148248 38.234222 
L 182.195766 38.234222 
L 182.288723 37.480549 
L 182.310058 37.480549 
L 182.411244 36.726876 
L 182.64079 36.726876 
L 182.733747 35.973203 
L 182.8114 35.973203 
L 182.856269 35.470754 
L 182.933921 35.470754 
L 183.034136 34.717081 
L 183.086936 34.717081 
L 183.086936 34.465856 
L 183.38728 34.465856 
L 183.411792 33.963407 
L 183.617096 33.963407 
L 183.686279 33.460959 
L 183.857483 33.460959 
L 183.966585 32.95851 
L 183.999129 32.95851 
L 184.093038 31.953612 
L 184.131303 31.953612 
L 184.208956 31.199939 
L 184.610422 31.199939 
L 184.642967 30.69749 
L 184.733363 30.69749 
L 184.733363 30.446266 
L 184.945894 30.446266 
L 185.048002 28.938919 
L 185.080547 28.938919 
L 185.080547 28.687695 
L 185.225905 28.687695 
L 185.318862 28.185246 
L 185.404115 28.185246 
L 185.481767 26.929124 
L 185.626638 26.929124 
L 185.626638 26.6779 
L 185.881365 26.6779 
L 185.96211 26.175451 
L 186.064218 26.175451 
L 186.064218 25.924227 
L 186.40747 25.924227 
L 186.511762 25.170553 
L 186.629027 25.170553 
L 186.716418 24.41688 
L 186.858239 24.41688 
L 186.946331 23.663207 
L 187.222813 23.663207 
L 187.222813 23.411983 
L 187.402698 23.411983 
L 187.402698 23.160758 
L 187.789666 23.160758 
L 187.82221 22.658309 
L 187.930002 22.658309 
L 187.98923 22.155861 
L 188.046536 22.155861 
L 188.069513 21.402187 
L 188.282208 21.402187 
L 188.383372 19.894841 
L 188.404001 19.894841 
L 188.497687 18.889943 
L 188.530231 18.889943 
L 188.530231 18.638719 
L 188.713351 18.638719 
L 188.805882 18.13627 
L 188.859556 18.13627 
L 188.859556 17.885046 
L 188.985252 17.885046 
L 189.048823 17.382597 
L 189.150931 17.382597 
L 189.150931 17.131373 
L 189.298424 17.131373 
L 189.391381 16.628924 
L 189.513902 16.628924 
L 189.526371 16.126475 
L 189.703538 16.126475 
L 189.805266 15.121577 
L 190.133518 15.121577 
L 190.192011 14.619129 
L 190.3499 14.619129 
L 190.3499 14.367904 
L 190.719754 14.367904 
L 190.788937 13.865455 
L 191.016715 13.865455 
L 191.078077 13.111782 
L 191.22578 13.111782 
L 191.22578 12.860558 
L 191.718322 12.860558 
L 191.811279 12.358109 
L 191.892594 12.358109 
L 191.933801 11.85566 
L 192.061749 11.85566 
L 192.144148 11.353211 
L 192.385137 11.353211 
L 192.478094 10.850763 
L 192.600615 10.850763 
L 192.600615 10.599538 
L 192.976158 10.599538 
L 192.976158 10.348314 
L 193.139652 10.348314 
L 193.208835 9.845865 
L 193.619996 9.845865 
L 193.619996 9.594641 
L 193.806467 9.594641 
L 193.87565 9.092192 
L 193.955468 9.092192 
L 194.057576 8.589743 
L 194.433016 8.589743 
L 194.481647 8.087294 
L 195.148461 8.087294 
L 195.148461 7.83607 
L 195.92336 7.83607 
L 195.92336 7.584845 
L 196.79924 7.584845 
L 196.79924 7.333621 
L 197.291782 7.333621 
L 197.384739 6.831172 
L 197.50726 6.831172 
L 197.50726 6.579948 
L 198.713112 6.579948 
L 198.782295 6.077499 
L 200.055107 6.077499 
L 200.055107 5.826275 
L 453.192 5.826275 
L 453.192 5.826275 
" clip-path="url(#p3800b8ca5c)" style="fill: none; stroke: #000000; stroke-width: 3; stroke-linecap: square"/>
   </g>
   <g id="line2d_57">
    <path clip-path="url(#p3800b8ca5c)" style="fill: none; stroke: #000000; stroke-width: 3; stroke-linecap: square"/>
   </g>
   <g id="line2d_58">
    <path d="M 34.16 122.645621 
L 74.001855 122.645621 
L 74.001855 122.394397 
L 74.175345 122.394397 
L 74.175345 122.143172 
L 74.741679 122.143172 
L 74.741679 121.891948 
L 74.931618 121.891948 
L 74.931618 121.640723 
L 75.761693 121.640723 
L 75.761693 121.389499 
L 76.128186 121.389499 
L 76.163187 120.635826 
L 76.269434 120.635826 
L 76.269434 120.384601 
L 76.620814 120.384601 
L 76.620814 120.133377 
L 77.060681 120.133377 
L 77.060681 119.882153 
L 77.562117 119.882153 
L 77.655673 119.379704 
L 77.779901 119.379704 
L 77.779901 119.128479 
L 77.914183 119.128479 
L 77.953392 118.626031 
L 78.519726 118.626031 
L 78.519726 118.374806 
L 78.709664 118.374806 
L 78.709664 118.123582 
L 78.846272 118.123582 
L 78.846272 117.872357 
L 79.539739 117.872357 
L 79.539739 117.621133 
L 79.906233 117.621133 
L 79.941233 116.86746 
L 80.047481 116.86746 
L 80.047481 116.616235 
L 80.39886 116.616235 
L 80.39886 116.365011 
L 80.838728 116.365011 
L 80.838728 116.113786 
L 81.340163 116.113786 
L 81.433719 115.611338 
L 81.69223 115.611338 
L 81.69223 115.360113 
L 82.624318 115.360113 
L 82.624318 115.108889 
L 92.977169 115.108889 
L 92.977169 114.857664 
L 93.150659 114.857664 
L 93.150659 114.60644 
L 93.716993 114.60644 
L 93.716993 114.355216 
L 93.906932 114.355216 
L 93.906932 114.103991 
L 94.737007 114.103991 
L 94.737007 113.852767 
L 95.1035 113.852767 
L 95.138501 113.099094 
L 95.244749 113.099094 
L 95.244749 112.847869 
L 95.596128 112.847869 
L 95.596128 112.596645 
L 96.035996 112.596645 
L 96.035996 112.34542 
L 96.537431 112.34542 
L 96.630987 111.842972 
L 96.889498 111.842972 
L 96.889498 111.591747 
L 97.821586 111.591747 
L 97.821586 111.340523 
L 105.764533 111.340523 
L 105.764533 111.089298 
L 105.938023 111.089298 
L 105.938023 110.838074 
L 106.504357 110.838074 
L 106.504357 110.58685 
L 106.694296 110.58685 
L 106.694296 110.335625 
L 106.932779 110.335625 
L 106.932779 110.084401 
L 107.106269 110.084401 
L 107.106269 109.833176 
L 107.524371 109.833176 
L 107.524371 109.581952 
L 107.672603 109.581952 
L 107.672603 109.330728 
L 107.862542 109.330728 
L 107.925865 108.32583 
L 108.032112 108.32583 
L 108.078799 107.823381 
L 108.252289 107.823381 
L 108.252289 107.572157 
L 108.383492 107.572157 
L 108.383492 107.320932 
L 108.692617 107.320932 
L 108.692617 107.069708 
L 108.818623 107.069708 
L 108.823359 106.567259 
L 109.008561 106.567259 
L 109.094111 105.562362 
L 109.200359 105.562362 
L 109.200359 105.311137 
L 109.324795 105.311137 
L 109.418351 104.808688 
L 109.551738 104.808688 
L 109.551738 104.557464 
L 109.676861 104.557464 
L 109.676861 104.30624 
L 109.838637 104.30624 
L 109.838637 104.055015 
L 109.991605 104.055015 
L 109.991605 103.803791 
L 110.20513 103.803791 
L 110.24013 103.050118 
L 110.346378 103.050118 
L 110.346378 102.798893 
L 110.493041 102.798893 
L 110.586597 102.296444 
L 110.60895 102.296444 
L 110.697758 101.793996 
L 110.845108 101.793996 
L 110.845108 101.542771 
L 111.137625 101.542771 
L 111.137625 101.291547 
L 111.63906 101.291547 
L 111.732616 100.789098 
L 111.777196 100.789098 
L 111.777196 100.537874 
L 111.991127 100.537874 
L 111.991127 100.286649 
L 112.923215 100.286649 
L 112.923215 100.035425 
L 128.705822 100.035425 
L 128.705822 99.7842 
L 128.879313 99.7842 
L 128.879313 99.532976 
L 129.445647 99.532976 
L 129.445647 99.281752 
L 129.635585 99.281752 
L 129.635585 99.030527 
L 130.46566 99.030527 
L 130.46566 98.779303 
L 130.832154 98.779303 
L 130.867154 98.02563 
L 130.973402 98.02563 
L 130.973402 97.774405 
L 131.164685 97.774405 
L 131.164685 97.523181 
L 131.324782 97.523181 
L 131.338175 97.020732 
L 131.764649 97.020732 
L 131.764649 96.769508 
L 131.90451 96.769508 
L 131.90451 96.518283 
L 132.094448 96.518283 
L 132.094448 96.267059 
L 132.266084 96.267059 
L 132.35964 95.76461 
L 132.618151 95.76461 
L 132.618151 95.513386 
L 132.924523 95.513386 
L 132.924523 95.262161 
L 133.291017 95.262161 
L 133.326017 94.508488 
L 133.432265 94.508488 
L 133.432265 94.257264 
L 133.550239 94.257264 
L 133.550239 94.006039 
L 133.715513 94.006039 
L 133.783644 93.50359 
L 133.889003 93.50359 
L 133.889003 93.252366 
L 134.223512 93.252366 
L 134.223512 93.001142 
L 134.455337 93.001142 
L 134.455337 92.749917 
L 134.645276 92.749917 
L 134.724947 92.247468 
L 134.818503 92.247468 
L 134.818503 91.996244 
L 135.077014 91.996244 
L 135.077014 91.74502 
L 135.475351 91.74502 
L 135.475351 91.493795 
L 135.841844 91.493795 
L 135.876845 90.740122 
L 135.983092 90.740122 
L 136.009102 90.237673 
L 136.334472 90.237673 
L 136.334472 89.986449 
L 136.774339 89.986449 
L 136.774339 89.735224 
L 137.275775 89.735224 
L 137.369331 89.232776 
L 137.627841 89.232776 
L 137.72646 88.730327 
L 137.89995 88.730327 
L 137.89995 88.479102 
L 138.466285 88.479102 
L 138.55993 87.976654 
L 138.656223 87.976654 
L 138.656223 87.725429 
L 139.486298 87.725429 
L 139.486298 87.474205 
L 139.852792 87.474205 
L 139.887792 86.720532 
L 139.99404 86.720532 
L 139.99404 86.469307 
L 140.345419 86.469307 
L 140.345419 86.218083 
L 140.785287 86.218083 
L 140.785287 85.966858 
L 141.286722 85.966858 
L 141.380278 85.46441 
L 141.415399 85.46441 
L 141.415399 85.213185 
L 141.588889 85.213185 
L 141.638789 84.710736 
L 142.155223 84.710736 
L 142.155223 84.459512 
L 142.345162 84.459512 
L 142.345162 84.208288 
L 142.570877 84.208288 
L 142.570877 83.957063 
L 143.175237 83.957063 
L 143.175237 83.705839 
L 143.54173 83.705839 
L 143.576731 82.952166 
L 143.682978 82.952166 
L 143.682978 82.700941 
L 144.034358 82.700941 
L 144.034358 82.449717 
L 144.474225 82.449717 
L 144.474225 82.198492 
L 144.975661 82.198492 
L 145.069217 81.696044 
L 145.151758 81.696044 
L 145.151758 81.444819 
L 145.325249 81.444819 
L 145.327727 80.94237 
L 145.891583 80.94237 
L 145.891583 80.691146 
L 146.081521 80.691146 
L 146.081521 80.439922 
L 146.259816 80.439922 
L 146.259816 80.188697 
L 146.694312 80.188697 
L 146.694312 79.937473 
L 146.867803 79.937473 
L 146.911596 79.435024 
L 147.27809 79.435024 
L 147.31309 78.681351 
L 147.419338 78.681351 
L 147.434137 78.178902 
L 147.624075 78.178902 
L 147.624075 77.927678 
L 147.770717 77.927678 
L 147.770717 77.676453 
L 148.210585 77.676453 
L 148.210585 77.425229 
L 148.45415 77.425229 
L 148.556468 76.92278 
L 148.71202 76.92278 
L 148.820644 76.169107 
L 148.827221 76.169107 
L 148.855644 75.415434 
L 148.961892 75.415434 
L 149.064087 74.912985 
L 149.12266 74.912985 
L 149.12266 74.66176 
L 149.313271 74.66176 
L 149.393413 74.159312 
L 149.753139 74.159312 
L 149.753139 73.908087 
L 149.988323 73.908087 
L 150.051761 73.154414 
L 150.099845 73.154414 
L 150.099845 72.90319 
L 150.247204 72.90319 
L 150.34813 71.647068 
L 150.38949 71.647068 
L 150.490073 70.893394 
L 150.554514 70.893394 
L 150.617953 70.139721 
L 150.666036 70.139721 
L 150.682335 69.637272 
L 150.813395 69.637272 
L 150.870883 68.883599 
L 150.953087 68.883599 
L 151.056407 67.878702 
L 151.246346 67.878702 
L 151.246346 67.627477 
L 151.427652 67.627477 
L 151.538729 67.125028 
L 152.076421 67.125028 
L 152.177627 66.371355 
L 152.225711 66.371355 
L 152.226557 65.868906 
L 152.37307 65.868906 
L 152.477915 64.612784 
L 152.515356 64.612784 
L 152.584162 63.859111 
L 152.792749 63.859111 
L 152.792749 63.607887 
L 152.935542 63.607887 
L 152.987326 63.105438 
L 153.375409 63.105438 
L 153.375409 62.854214 
L 153.522603 62.854214 
L 153.522603 62.602989 
L 153.793355 62.602989 
L 153.876845 62.10054 
L 153.970401 62.10054 
L 153.970401 61.849316 
L 154.11545 61.849316 
L 154.122882 61.095643 
L 154.228911 61.095643 
L 154.228911 60.844418 
L 154.352424 60.844418 
L 154.352424 60.593194 
L 154.520759 60.593194 
L 154.520759 60.341969 
L 154.681642 60.341969 
L 154.791511 59.337072 
L 154.846291 59.337072 
L 154.954457 58.834623 
L 155.017896 58.834623 
L 155.117043 57.829725 
L 155.161 57.829725 
L 155.270826 56.824828 
L 155.319711 56.824828 
L 155.372213 56.071155 
L 155.500827 56.071155 
L 155.500827 55.81993 
L 155.827594 55.81993 
L 155.827594 55.568706 
L 155.952613 55.568706 
L 156.016051 55.066257 
L 156.064135 55.066257 
L 156.064135 54.815033 
L 156.211494 54.815033 
L 156.278145 53.307686 
L 156.341583 53.307686 
L 156.441441 52.051564 
L 156.480813 52.051564 
L 156.544251 51.297891 
L 156.592335 51.297891 
L 156.6959 50.041769 
L 156.712194 50.041769 
L 156.797181 48.534423 
L 156.82575 48.534423 
L 156.92081 47.529525 
L 156.978297 47.529525 
L 157.079684 46.524627 
L 157.135459 46.524627 
L 157.192692 45.770954 
L 157.35395 45.770954 
L 157.406212 45.268505 
L 157.535066 45.268505 
L 157.535066 45.017281 
L 157.688575 45.017281 
L 157.715732 44.514832 
L 157.873296 44.514832 
L 157.959327 43.761159 
L 157.984818 43.761159 
L 157.986484 43.25871 
L 158.132177 43.25871 
L 158.236648 42.002588 
L 158.274463 42.002588 
L 158.312245 40.997691 
L 158.432091 40.997691 
L 158.516379 40.244017 
L 158.567313 40.244017 
L 158.630752 39.23912 
L 158.678836 39.23912 
L 158.746433 38.485447 
L 158.826195 38.485447 
L 158.900163 37.480549 
L 158.968481 37.480549 
L 159.046347 36.726876 
L 159.081585 36.726876 
L 159.183868 35.219529 
L 159.211025 35.219529 
L 159.259108 34.465856 
L 159.37931 34.465856 
L 159.463955 33.209734 
L 159.521596 33.209734 
L 159.565341 32.204837 
L 159.920043 32.204837 
L 160.020723 31.199939 
L 160.07974 31.199939 
L 160.11153 30.195041 
L 160.405272 30.195041 
L 160.438111 28.938919 
L 160.60794 28.938919 
L 160.615372 28.185246 
L 160.789056 28.185246 
L 160.805548 27.180349 
L 161.358664 27.180349 
L 161.385821 26.6779 
L 162.000423 26.6779 
L 162.007855 25.924227 
L 162.300337 25.924227 
L 162.307769 25.170553 
L 162.542515 25.170553 
L 162.542515 24.919329 
L 162.694441 24.919329 
L 162.701873 24.165656 
L 162.813268 24.165656 
L 162.813268 23.914431 
L 163.247556 23.914431 
L 163.307412 21.904636 
L 163.808353 21.904636 
L 163.808353 21.653412 
L 163.97437 21.653412 
L 164.037808 21.150963 
L 164.085892 21.150963 
L 164.085892 20.899739 
L 164.233251 20.899739 
L 164.290738 20.146065 
L 164.375537 20.146065 
L 164.392125 19.643617 
L 164.602067 19.643617 
L 164.602067 19.392392 
L 164.804736 19.392392 
L 164.847507 18.889943 
L 164.985851 18.889943 
L 164.985851 18.638719 
L 166.197218 18.638719 
L 166.212604 18.13627 
L 166.497132 18.13627 
L 166.497132 17.885046 
L 166.891236 17.885046 
L 166.891236 17.633821 
L 167.338996 17.633821 
L 167.444352 17.131373 
L 167.471509 17.131373 
L 167.471509 16.880148 
L 167.949297 16.880148 
L 167.949297 16.628924 
L 168.101497 16.628924 
L 168.108929 15.875251 
L 168.456196 15.875251 
L 168.456196 15.624026 
L 168.726949 15.624026 
L 168.726949 15.372802 
L 169.88805 15.372802 
L 169.951489 14.870353 
L 169.999573 14.870353 
L 170.082654 14.367904 
L 170.146931 14.367904 
L 170.204419 13.865455 
L 170.289218 13.865455 
L 170.305806 13.363007 
L 170.761188 13.363007 
L 170.761188 13.111782 
L 172.126285 13.111782 
L 172.126285 12.860558 
L 172.298292 12.860558 
L 172.365096 12.358109 
L 173.092531 12.358109 
L 173.092531 12.106885 
L 173.752371 12.106885 
L 173.752371 11.85566 
L 174.015178 11.85566 
L 174.02261 11.101987 
L 174.759622 11.101987 
L 174.759622 10.850763 
L 177.751691 10.850763 
L 177.751691 10.599538 
L 177.925181 10.599538 
L 177.925181 10.348314 
L 178.211973 10.348314 
L 178.211973 10.097089 
L 178.491515 10.097089 
L 178.543823 9.594641 
L 178.681454 9.594641 
L 178.681454 9.343416 
L 178.888135 9.343416 
L 178.888135 9.092192 
L 179.044824 9.092192 
L 179.044824 8.840967 
L 179.235891 8.840967 
L 179.235891 8.589743 
L 179.511529 8.589743 
L 179.511529 8.338519 
L 179.878022 8.338519 
L 179.913023 7.584845 
L 180.01927 7.584845 
L 180.01927 7.333621 
L 180.37065 7.333621 
L 180.37065 7.082397 
L 180.810517 7.082397 
L 180.810517 6.831172 
L 181.311953 6.831172 
L 181.405509 6.328723 
L 181.664019 6.328723 
L 181.664019 6.077499 
L 182.596108 6.077499 
L 182.596108 5.826275 
L 453.192 5.826275 
L 453.192 5.826275 
" clip-path="url(#p3800b8ca5c)" style="fill: none; stroke: #00bfbf; stroke-width: 3; stroke-linecap: square"/>
   </g>
   <g id="line2d_59">
    <path clip-path="url(#p3800b8ca5c)" style="fill: none; stroke: #00bfbf; stroke-width: 3; stroke-linecap: square"/>
   </g>
   <g id="line2d_60">
    <path d="M 34.16 73.656863 
L 44.136952 73.656863 
L 44.136952 73.405638 
L 44.584823 73.405638 
L 44.681917 72.90319 
L 44.884738 72.90319 
L 44.976995 72.400741 
L 45.008196 72.400741 
L 45.008196 72.149516 
L 45.168654 72.149516 
L 45.168654 71.898292 
L 45.328464 71.898292 
L 45.392238 71.144619 
L 45.491162 71.144619 
L 45.491162 70.893394 
L 45.984216 70.893394 
L 45.984216 70.64217 
L 47.043166 70.64217 
L 47.043166 70.390946 
L 47.398571 70.390946 
L 47.423487 69.888497 
L 47.914999 69.888497 
L 47.914999 69.637272 
L 48.362869 69.637272 
L 48.459964 69.134824 
L 48.662784 69.134824 
L 48.755042 68.632375 
L 48.786242 68.632375 
L 48.786242 68.38115 
L 48.9467 68.38115 
L 48.9467 68.129926 
L 49.10651 68.129926 
L 49.170285 67.376253 
L 49.269209 67.376253 
L 49.269209 67.125028 
L 49.762263 67.125028 
L 49.762263 66.873804 
L 50.821212 66.873804 
L 50.821212 66.62258 
L 51.176618 66.62258 
L 51.201534 66.120131 
L 63.112267 66.120131 
L 63.112267 65.868906 
L 63.560137 65.868906 
L 63.657232 65.366458 
L 63.860052 65.366458 
L 63.95231 64.864009 
L 63.98351 64.864009 
L 63.98351 64.612784 
L 64.143968 64.612784 
L 64.143968 64.36156 
L 64.303778 64.36156 
L 64.367553 63.607887 
L 64.466476 63.607887 
L 64.466476 63.356662 
L 64.959531 63.356662 
L 64.959531 63.105438 
L 66.01848 63.105438 
L 66.01848 62.854214 
L 66.373885 62.854214 
L 66.398802 62.351765 
L 77.067877 62.351765 
L 77.067877 62.10054 
L 77.515747 62.10054 
L 77.612842 61.598092 
L 77.815662 61.598092 
L 77.90792 61.095643 
L 77.93912 61.095643 
L 77.93912 60.844418 
L 78.099578 60.844418 
L 78.099578 60.593194 
L 78.213896 60.593194 
L 78.323163 59.588296 
L 78.422086 59.588296 
L 78.422086 59.337072 
L 78.661767 59.337072 
L 78.758861 58.834623 
L 78.915141 58.834623 
L 78.961682 58.332174 
L 79.053939 58.332174 
L 79.08514 57.829725 
L 79.245598 57.829725 
L 79.245598 57.578501 
L 79.405408 57.578501 
L 79.469182 56.824828 
L 79.568106 56.824828 
L 79.568106 56.573603 
L 79.97409 56.573603 
L 80.06116 56.071155 
L 80.329495 56.071155 
L 80.354412 55.568706 
L 81.12011 55.568706 
L 81.12011 55.317481 
L 81.475515 55.317481 
L 81.500431 54.815033 
L 91.062913 54.815033 
L 91.062913 54.563808 
L 91.510783 54.563808 
L 91.607878 54.061359 
L 91.810698 54.061359 
L 91.902956 53.558911 
L 91.934156 53.558911 
L 91.934156 53.307686 
L 92.094614 53.307686 
L 92.094614 53.056462 
L 92.254424 53.056462 
L 92.318198 52.302789 
L 92.417122 52.302789 
L 92.417122 52.051564 
L 92.910176 52.051564 
L 92.910176 51.80034 
L 93.969126 51.80034 
L 93.969126 51.549115 
L 94.324531 51.549115 
L 94.349447 51.046667 
L 98.84092 51.046667 
L 98.84092 50.795442 
L 99.288791 50.795442 
L 99.385885 50.292993 
L 99.588706 50.292993 
L 99.680963 49.790545 
L 99.712164 49.790545 
L 99.712164 49.53932 
L 99.872622 49.53932 
L 99.872622 49.288096 
L 100.032432 49.288096 
L 100.096206 48.534423 
L 100.19513 48.534423 
L 100.19513 48.283198 
L 100.688184 48.283198 
L 100.688184 48.031974 
L 101.747134 48.031974 
L 101.747134 47.780749 
L 102.102539 47.780749 
L 102.127455 47.278301 
L 103.85061 47.278301 
L 103.85061 47.027076 
L 104.298481 47.027076 
L 104.395575 46.524627 
L 104.598396 46.524627 
L 104.690653 46.022179 
L 104.721854 46.022179 
L 104.721854 45.770954 
L 104.882312 45.770954 
L 104.882312 45.51973 
L 105.042122 45.51973 
L 105.105896 44.766057 
L 105.20482 44.766057 
L 105.20482 44.514832 
L 105.697874 44.514832 
L 105.697874 44.263608 
L 106.756824 44.263608 
L 106.756824 44.012383 
L 107.112229 44.012383 
L 107.137145 43.509935 
L 107.861558 43.509935 
L 107.861558 43.25871 
L 108.309428 43.25871 
L 108.406523 42.756261 
L 108.609343 42.756261 
L 108.701601 42.253813 
L 108.732801 42.253813 
L 108.732801 42.002588 
L 108.893259 42.002588 
L 108.893259 41.751364 
L 109.053069 41.751364 
L 109.116844 40.997691 
L 109.215768 40.997691 
L 109.215768 40.746466 
L 109.708822 40.746466 
L 109.708822 40.495242 
L 110.767771 40.495242 
L 110.767771 40.244017 
L 111.123176 40.244017 
L 111.148093 39.741569 
L 115.286856 39.741569 
L 115.286856 39.490344 
L 115.734727 39.490344 
L 115.831821 38.987895 
L 116.034642 38.987895 
L 116.126899 38.485447 
L 116.1581 38.485447 
L 116.237165 37.731773 
L 116.318557 37.731773 
L 116.318557 37.480549 
L 116.478368 37.480549 
L 116.542142 36.726876 
L 116.624214 36.726876 
L 116.721309 35.721978 
L 116.78213 35.721978 
L 116.82941 35.219529 
L 116.924129 35.219529 
L 117.016386 34.465856 
L 117.047587 34.465856 
L 117.13412 33.460959 
L 117.208045 33.460959 
L 117.277281 32.707285 
L 117.367855 32.707285 
L 117.452691 31.199939 
L 117.49245 31.199939 
L 117.591374 30.195041 
L 117.669453 30.195041 
L 117.700654 29.692593 
L 117.861111 29.692593 
L 117.861111 29.441368 
L 118.020922 29.441368 
L 118.084696 28.185246 
L 118.18362 28.185246 
L 118.19307 27.682797 
L 118.548475 27.682797 
L 118.573391 27.180349 
L 118.676674 27.180349 
L 118.676674 26.929124 
L 119.082557 26.929124 
L 119.143378 26.426675 
L 119.437962 26.426675 
L 119.523699 25.421778 
L 119.735623 25.421778 
L 119.735623 25.170553 
L 120.091029 25.170553 
L 120.115945 24.668105 
L 142.70473 24.668105 
L 142.70473 24.41688 
L 143.1526 24.41688 
L 143.249695 23.914431 
L 143.452515 23.914431 
L 143.544773 23.411983 
L 143.575973 23.411983 
L 143.575973 23.160758 
L 143.736431 23.160758 
L 143.736431 22.909534 
L 143.896241 22.909534 
L 143.960016 22.155861 
L 144.058939 22.155861 
L 144.058939 21.904636 
L 144.551994 21.904636 
L 144.551994 21.653412 
L 145.610943 21.653412 
L 145.610943 21.402187 
L 145.966348 21.402187 
L 145.991265 20.899739 
L 147.886788 20.899739 
L 147.886788 20.648514 
L 148.334659 20.648514 
L 148.431753 20.146065 
L 148.634574 20.146065 
L 148.726831 19.643617 
L 148.758032 19.643617 
L 148.758032 19.392392 
L 148.91849 19.392392 
L 148.91849 19.141168 
L 149.0783 19.141168 
L 149.142074 18.387495 
L 149.240998 18.387495 
L 149.240998 18.13627 
L 149.734052 18.13627 
L 149.734052 17.885046 
L 150.793002 17.885046 
L 150.793002 17.633821 
L 151.148407 17.633821 
L 151.173323 17.131373 
L 153.639349 17.131373 
L 153.639349 16.880148 
L 158.011542 16.880148 
L 158.011542 16.628924 
L 158.737936 16.628924 
L 158.737936 16.377699 
L 158.931683 16.377699 
L 158.931683 16.126475 
L 160.772497 16.126475 
L 160.772497 15.875251 
L 160.889363 15.875251 
L 160.889363 15.624026 
L 161.962945 15.624026 
L 161.962945 15.372802 
L 163.112567 15.372802 
L 163.112567 15.121577 
L 163.303876 15.121577 
L 163.303876 14.870353 
L 163.453291 14.870353 
L 163.453291 14.619129 
L 163.636447 14.619129 
L 163.636447 14.367904 
L 163.980409 14.367904 
L 164.03027 13.614231 
L 164.487159 13.614231 
L 164.487159 13.363007 
L 164.778933 13.363007 
L 164.778933 13.111782 
L 165.144691 13.111782 
L 165.144691 12.860558 
L 165.871084 12.860558 
L 165.871084 12.609333 
L 166.181697 12.609333 
L 166.181697 12.358109 
L 166.458765 12.358109 
L 166.458765 12.106885 
L 167.255279 12.106885 
L 167.255279 11.85566 
L 167.548961 11.85566 
L 167.548961 11.604436 
L 168.022512 11.604436 
L 168.022512 11.353211 
L 168.404901 11.353211 
L 168.404901 11.101987 
L 168.745625 11.101987 
L 168.745625 10.850763 
L 168.899242 10.850763 
L 168.928781 10.348314 
L 169.096093 10.348314 
L 169.096093 10.097089 
L 169.272743 10.097089 
L 169.317002 9.594641 
L 169.779493 9.594641 
L 169.779493 9.343416 
L 170.071267 9.343416 
L 170.071267 9.092192 
L 170.245715 9.092192 
L 170.245715 8.840967 
L 170.586439 8.840967 
L 170.586439 8.589743 
L 170.769596 8.589743 
L 170.769596 8.338519 
L 171.113558 8.338519 
L 171.157816 7.83607 
L 171.620307 7.83607 
L 171.620307 7.584845 
L 171.751099 7.584845 
L 171.751099 7.333621 
L 171.912081 7.333621 
L 171.912081 7.082397 
L 172.841295 7.082397 
L 172.841295 6.831172 
L 173.591914 6.831172 
L 173.591914 6.579948 
L 174.191576 6.579948 
L 174.191576 6.328723 
L 174.68211 6.328723 
L 174.68211 6.077499 
L 176.032391 6.077499 
L 176.032391 5.826275 
L 453.192 5.826275 
L 453.192 5.826275 
" clip-path="url(#p3800b8ca5c)" style="fill: none; stroke: #bf00bf; stroke-width: 3; stroke-linecap: square"/>
   </g>
   <g id="line2d_61">
    <path clip-path="url(#p3800b8ca5c)" style="fill: none; stroke: #bf00bf; stroke-width: 3; stroke-linecap: square"/>
   </g>
   <g id="line2d_62">
    <path d="M 35.236289 5.826275 
L 34.16 5.826275 
L 453.192 5.826275 
L 461.8 5.826275 
" clip-path="url(#p3800b8ca5c)" style="fill: none; stroke: #ff0000; stroke-width: 3; stroke-linecap: square"/>
   </g>
   <g id="line2d_63">
    <path d="M 243.676 291.28 
L 243.676 3 
" clip-path="url(#p3800b8ca5c)" style="fill: none; stroke: #000000; stroke-width: 1.5; stroke-linecap: square"/>
   </g>
   <g id="line2d_64">
    <path d="M 34.16 147.14 
L 453.192 147.14 
" clip-path="url(#p3800b8ca5c)" style="fill: none; stroke-dasharray: 2,3.3; stroke-dashoffset: 0; stroke: #000000; stroke-width: 2"/>
   </g>
   <g id="patch_3">
    <path d="M 34.16 291.28 
L 34.16 3 
" style="fill: none; stroke: #000000; stroke-width: 0.8; stroke-linejoin: miter; stroke-linecap: square"/>
   </g>
   <g id="patch_4">
    <path d="M 453.192 291.28 
L 453.192 3 
" style="fill: none; stroke: #000000; stroke-width: 0.8; stroke-linejoin: miter; stroke-linecap: square"/>
   </g>
   <g id="patch_5">
    <path d="M 34.16 291.28 
L 453.192 291.28 
" style="fill: none; stroke: #000000; stroke-width: 0.8; stroke-linejoin: miter; stroke-linecap: square"/>
   </g>
   <g id="patch_6">
    <path d="M 34.16 3 
L 453.192 3 
" style="fill: none; stroke: #000000; stroke-width: 0.8; stroke-linejoin: miter; stroke-linecap: square"/>
   </g>
   <g id="text_5">
    <!-- f1-f5,20-D -->
    <g transform="translate(343.64261 285.5144)scale(0.2 -0.2)">
     <defs>
      <path id="DejaVuSans-35" d="M 691 4666 
L 3169 4666 
L 3169 4134 
L 1269 4134 
L 1269 2991 
Q 1406 3038 1543 3061 
Q 1681 3084 1819 3084 
Q 2600 3084 3056 2656 
Q 3513 2228 3513 1497 
Q 3513 744 3044 326 
Q 2575 -91 1722 -91 
Q 1428 -91 1123 -41 
Q 819 9 494 109 
L 494 744 
Q 775 591 1075 516 
Q 1375 441 1709 441 
Q 2250 441 2565 725 
Q 2881 1009 2881 1497 
Q 2881 1984 2565 2268 
Q 2250 2553 1709 2553 
Q 1456 2553 1204 2497 
Q 953 2441 691 2322 
L 691 4666 
z
" transform="scale(0.015625)"/>
      <path id="DejaVuSans-2c" d="M 750 794 
L 1409 794 
L 1409 256 
L 897 -744 
L 494 -744 
L 750 256 
L 750 794 
z
" transform="scale(0.015625)"/>
      <path id="DejaVuSans-32" d="M 1228 531 
L 3431 531 
L 3431 0 
L 469 0 
L 469 531 
Q 828 903 1448 1529 
Q 2069 2156 2228 2338 
Q 2531 2678 2651 2914 
Q 2772 3150 2772 3378 
Q 2772 3750 2511 3984 
Q 2250 4219 1831 4219 
Q 1534 4219 1204 4116 
Q 875 4013 500 3803 
L 500 4441 
Q 881 4594 1212 4672 
Q 1544 4750 1819 4750 
Q 2544 4750 2975 4387 
Q 3406 4025 3406 3419 
Q 3406 3131 3298 2873 
Q 3191 2616 2906 2266 
Q 2828 2175 2409 1742 
Q 1991 1309 1228 531 
z
" transform="scale(0.015625)"/>
      <path id="DejaVuSans-44" d="M 1259 4147 
L 1259 519 
L 2022 519 
Q 2988 519 3436 956 
Q 3884 1394 3884 2338 
Q 3884 3275 3436 3711 
Q 2988 4147 2022 4147 
L 1259 4147 
z
M 628 4666 
L 1925 4666 
Q 3281 4666 3915 4102 
Q 4550 3538 4550 2338 
Q 4550 1131 3912 565 
Q 3275 0 1925 0 
L 628 0 
L 628 4666 
z
" transform="scale(0.015625)"/>
     </defs>
     <use xlink:href="#DejaVuSans-66"/>
     <use xlink:href="#DejaVuSans-31" x="35.205078"/>
     <use xlink:href="#DejaVuSans-2d" x="98.828125"/>
     <use xlink:href="#DejaVuSans-66" x="134.912109"/>
     <use xlink:href="#DejaVuSans-35" x="170.117188"/>
     <use xlink:href="#DejaVuSans-2c" x="233.740234"/>
     <use xlink:href="#DejaVuSans-32" x="265.527344"/>
     <use xlink:href="#DejaVuSans-30" x="329.150391"/>
     <use xlink:href="#DejaVuSans-2d" x="392.773438"/>
     <use xlink:href="#DejaVuSans-44" x="428.857422"/>
    </g>
   </g>
   <g id="text_6">
    <!-- v2.6 -->
    <g style="fill: #808080" transform="translate(232.765062 286.317512)scale(0.1 -0.1)">
     <defs>
      <path id="DejaVuSans-2e" d="M 684 794 
L 1344 794 
L 1344 0 
L 684 0 
L 684 794 
z
" transform="scale(0.015625)"/>
      <path id="DejaVuSans-36" d="M 2113 2584 
Q 1688 2584 1439 2293 
Q 1191 2003 1191 1497 
Q 1191 994 1439 701 
Q 1688 409 2113 409 
Q 2538 409 2786 701 
Q 3034 994 3034 1497 
Q 3034 2003 2786 2293 
Q 2538 2584 2113 2584 
z
M 3366 4563 
L 3366 3988 
Q 3128 4100 2886 4159 
Q 2644 4219 2406 4219 
Q 1781 4219 1451 3797 
Q 1122 3375 1075 2522 
Q 1259 2794 1537 2939 
Q 1816 3084 2150 3084 
Q 2853 3084 3261 2657 
Q 3669 2231 3669 1497 
Q 3669 778 3244 343 
Q 2819 -91 2113 -91 
Q 1303 -91 875 529 
Q 447 1150 447 2328 
Q 447 3434 972 4092 
Q 1497 4750 2381 4750 
Q 2619 4750 2861 4703 
Q 3103 4656 3366 4563 
z
" transform="scale(0.015625)"/>
     </defs>
     <use xlink:href="#DejaVuSans-76"/>
     <use xlink:href="#DejaVuSans-32" x="59.179688"/>
     <use xlink:href="#DejaVuSans-2e" x="122.802734"/>
     <use xlink:href="#DejaVuSans-36" x="154.589844"/>
    </g>
   </g>
   <g id="legend_1">
    <g id="patch_7">
     <path d="M 309.970125 136.425 
L 439.192 136.425 
Q 443.192 136.425 443.192 132.425 
L 443.192 17 
Q 443.192 13 439.192 13 
L 309.970125 13 
Q 305.970125 13 305.970125 17 
L 305.970125 132.425 
Q 305.970125 136.425 309.970125 136.425 
z
" style="fill: #ffffff; opacity: 0.2; stroke: #cccccc; stroke-linejoin: miter"/>
    </g>
    <g id="line2d_65">
     <path d="M 313.970125 29.196875 
L 333.970125 29.196875 
L 353.970125 29.196875 
" style="fill: none; stroke: #000000; stroke-width: 3; stroke-linecap: square"/>
    </g>
    <g id="text_7">
     <!-- 1: 5/5 -->
     <g transform="translate(369.970125 36.196875)scale(0.2 -0.2)">
      <defs>
       <path id="DejaVuSans-3a" d="M 750 794 
L 1409 794 
L 1409 0 
L 750 0 
L 750 794 
z
M 750 3309 
L 1409 3309 
L 1409 2516 
L 750 2516 
L 750 3309 
z
" transform="scale(0.015625)"/>
       <path id="DejaVuSans-2f" d="M 1625 4666 
L 2156 4666 
L 531 -594 
L 0 -594 
L 1625 4666 
z
" transform="scale(0.015625)"/>
      </defs>
      <use xlink:href="#DejaVuSans-31"/>
      <use xlink:href="#DejaVuSans-3a" x="63.623047"/>
      <use xlink:href="#DejaVuSans-20" x="97.314453"/>
      <use xlink:href="#DejaVuSans-35" x="129.101562"/>
      <use xlink:href="#DejaVuSans-2f" x="192.724609"/>
      <use xlink:href="#DejaVuSans-35" x="226.416016"/>
     </g>
    </g>
    <g id="line2d_66">
     <path d="M 313.970125 58.553125 
L 333.970125 58.553125 
L 353.970125 58.553125 
" style="fill: none; stroke: #00bfbf; stroke-width: 3; stroke-linecap: square"/>
    </g>
    <g id="text_8">
     <!-- -1: 5/3 -->
     <g transform="translate(369.970125 65.553125)scale(0.2 -0.2)">
      <defs>
       <path id="DejaVuSans-33" d="M 2597 2516 
Q 3050 2419 3304 2112 
Q 3559 1806 3559 1356 
Q 3559 666 3084 287 
Q 2609 -91 1734 -91 
Q 1441 -91 1130 -33 
Q 819 25 488 141 
L 488 750 
Q 750 597 1062 519 
Q 1375 441 1716 441 
Q 2309 441 2620 675 
Q 2931 909 2931 1356 
Q 2931 1769 2642 2001 
Q 2353 2234 1838 2234 
L 1294 2234 
L 1294 2753 
L 1863 2753 
Q 2328 2753 2575 2939 
Q 2822 3125 2822 3475 
Q 2822 3834 2567 4026 
Q 2313 4219 1838 4219 
Q 1578 4219 1281 4162 
Q 984 4106 628 3988 
L 628 4550 
Q 988 4650 1302 4700 
Q 1616 4750 1894 4750 
Q 2613 4750 3031 4423 
Q 3450 4097 3450 3541 
Q 3450 3153 3228 2886 
Q 3006 2619 2597 2516 
z
" transform="scale(0.015625)"/>
      </defs>
      <use xlink:href="#DejaVuSans-2d"/>
      <use xlink:href="#DejaVuSans-31" x="36.083984"/>
      <use xlink:href="#DejaVuSans-3a" x="99.707031"/>
      <use xlink:href="#DejaVuSans-20" x="133.398438"/>
      <use xlink:href="#DejaVuSans-35" x="165.185547"/>
      <use xlink:href="#DejaVuSans-2f" x="228.808594"/>
      <use xlink:href="#DejaVuSans-33" x="262.5"/>
     </g>
    </g>
    <g id="line2d_67">
     <path d="M 313.970125 87.909375 
L 333.970125 87.909375 
L 353.970125 87.909375 
" style="fill: none; stroke: #bf00bf; stroke-width: 3; stroke-linecap: square"/>
    </g>
    <g id="text_9">
     <!-- -4: 5/2 -->
     <g transform="translate(369.970125 94.909375)scale(0.2 -0.2)">
      <defs>
       <path id="DejaVuSans-34" d="M 2419 4116 
L 825 1625 
L 2419 1625 
L 2419 4116 
z
M 2253 4666 
L 3047 4666 
L 3047 1625 
L 3713 1625 
L 3713 1100 
L 3047 1100 
L 3047 0 
L 2419 0 
L 2419 1100 
L 313 1100 
L 313 1709 
L 2253 4666 
z
" transform="scale(0.015625)"/>
      </defs>
      <use xlink:href="#DejaVuSans-2d"/>
      <use xlink:href="#DejaVuSans-34" x="36.083984"/>
      <use xlink:href="#DejaVuSans-3a" x="99.707031"/>
      <use xlink:href="#DejaVuSans-20" x="133.398438"/>
      <use xlink:href="#DejaVuSans-35" x="165.185547"/>
      <use xlink:href="#DejaVuSans-2f" x="228.808594"/>
      <use xlink:href="#DejaVuSans-32" x="262.5"/>
     </g>
    </g>
    <g id="line2d_68">
     <path d="M 313.970125 117.265625 
L 333.970125 117.265625 
L 353.970125 117.265625 
" style="fill: none; stroke: #ff0000; stroke-width: 3; stroke-linecap: square"/>
    </g>
    <g id="text_10">
     <!-- -8: 5/0 -->
     <g transform="translate(369.970125 124.265625)scale(0.2 -0.2)">
      <defs>
       <path id="DejaVuSans-38" d="M 2034 2216 
Q 1584 2216 1326 1975 
Q 1069 1734 1069 1313 
Q 1069 891 1326 650 
Q 1584 409 2034 409 
Q 2484 409 2743 651 
Q 3003 894 3003 1313 
Q 3003 1734 2745 1975 
Q 2488 2216 2034 2216 
z
M 1403 2484 
Q 997 2584 770 2862 
Q 544 3141 544 3541 
Q 544 4100 942 4425 
Q 1341 4750 2034 4750 
Q 2731 4750 3128 4425 
Q 3525 4100 3525 3541 
Q 3525 3141 3298 2862 
Q 3072 2584 2669 2484 
Q 3125 2378 3379 2068 
Q 3634 1759 3634 1313 
Q 3634 634 3220 271 
Q 2806 -91 2034 -91 
Q 1263 -91 848 271 
Q 434 634 434 1313 
Q 434 1759 690 2068 
Q 947 2378 1403 2484 
z
M 1172 3481 
Q 1172 3119 1398 2916 
Q 1625 2713 2034 2713 
Q 2441 2713 2670 2916 
Q 2900 3119 2900 3481 
Q 2900 3844 2670 4047 
Q 2441 4250 2034 4250 
Q 1625 4250 1398 4047 
Q 1172 3844 1172 3481 
z
" transform="scale(0.015625)"/>
      </defs>
      <use xlink:href="#DejaVuSans-2d"/>
      <use xlink:href="#DejaVuSans-38" x="36.083984"/>
      <use xlink:href="#DejaVuSans-3a" x="99.707031"/>
      <use xlink:href="#DejaVuSans-20" x="133.398438"/>
      <use xlink:href="#DejaVuSans-35" x="165.185547"/>
      <use xlink:href="#DejaVuSans-2f" x="228.808594"/>
      <use xlink:href="#DejaVuSans-30" x="262.5"/>
     </g>
    </g>
   </g>
  </g>
 </g>
 <defs>
  <clipPath id="p3800b8ca5c">
   <rect x="34.16" y="3" width="419.032" height="288.28"/>
  </clipPath>
 </defs>
</svg>
