<?xml version="1.0" encoding="utf-8" standalone="no"?>
<!DOCTYPE svg PUBLIC "-//W3C//DTD SVG 1.1//EN"
  "http://www.w3.org/Graphics/SVG/1.1/DTD/svg11.dtd">
<svg xmlns:xlink="http://www.w3.org/1999/xlink" width="460.8pt" height="345.6pt" viewBox="0 0 460.8 345.6" xmlns="http://www.w3.org/2000/svg" version="1.1">
 <metadata>
  <rdf:RDF xmlns:dc="http://purl.org/dc/elements/1.1/" xmlns:cc="http://creativecommons.org/ns#" xmlns:rdf="http://www.w3.org/1999/02/22-rdf-syntax-ns#">
   <cc:Work>
    <dc:type rdf:resource="http://purl.org/dc/dcmitype/StillImage"/>
    <dc:date>2024-05-29T07:58:54.054081</dc:date>
    <dc:format>image/svg+xml</dc:format>
    <dc:creator>
     <cc:Agent>
      <dc:title>Matplotlib v3.5.1, https://matplotlib.org/</dc:title>
     </cc:Agent>
    </dc:creator>
   </cc:Work>
  </rdf:RDF>
 </metadata>
 <defs>
  <style type="text/css">*{stroke-linejoin: round; stroke-linecap: butt}</style>
 </defs>
 <g id="figure_1">
  <g id="patch_1">
   <path d="M 0 345.6 
L 460.8 345.6 
L 460.8 0 
L 0 0 
z
" style="fill: #ffffff"/>
  </g>
  <g id="axes_1">
   <g id="patch_2">
    <path d="M 34.16 291.28 
L 453.192 291.28 
L 453.192 3 
L 34.16 3 
z
" style="fill: #ffffff"/>
   </g>
   <g id="matplotlib.axis_1">
    <g id="xtick_1">
     <g id="line2d_1">
      <path d="M 149.35199 291.28 
L 149.35199 3 
" clip-path="url(#p877642c175)" style="fill: none; stroke: #b0b0b0; stroke-width: 0.8; stroke-linecap: square"/>
     </g>
     <g id="line2d_2">
      <defs>
       <path id="m50a679608a" d="M 0 0 
L 0 3.5 
" style="stroke: #000000; stroke-width: 0.8"/>
      </defs>
      <g>
       <use xlink:href="#m50a679608a" x="149.35199" y="291.28" style="stroke: #000000; stroke-width: 0.8"/>
      </g>
     </g>
     <g id="text_1">
      <!-- -1 -->
      <g transform="translate(139.381677 313.476875)scale(0.2 -0.2)">
       <defs>
        <path id="DejaVuSans-2d" d="M 313 2009 
L 1997 2009 
L 1997 1497 
L 313 1497 
L 313 2009 
z
" transform="scale(0.015625)"/>
        <path id="DejaVuSans-31" d="M 794 531 
L 1825 531 
L 1825 4091 
L 703 3866 
L 703 4441 
L 1819 4666 
L 2450 4666 
L 2450 531 
L 3481 531 
L 3481 0 
L 794 0 
L 794 531 
z
" transform="scale(0.015625)"/>
       </defs>
       <use xlink:href="#DejaVuSans-2d"/>
       <use xlink:href="#DejaVuSans-31" x="36.083984"/>
      </g>
     </g>
    </g>
    <g id="xtick_2">
     <g id="line2d_3">
      <path d="M 338.00001 291.28 
L 338.00001 3 
" clip-path="url(#p877642c175)" style="fill: none; stroke: #b0b0b0; stroke-width: 0.8; stroke-linecap: square"/>
     </g>
     <g id="line2d_4">
      <g>
       <use xlink:href="#m50a679608a" x="338.00001" y="291.28" style="stroke: #000000; stroke-width: 0.8"/>
      </g>
     </g>
     <g id="text_2">
      <!-- 1 -->
      <g transform="translate(331.63751 313.476875)scale(0.2 -0.2)">
       <use xlink:href="#DejaVuSans-31"/>
      </g>
     </g>
    </g>
    <g id="xtick_3">
     <g id="line2d_5">
      <defs>
       <path id="md92447a8c9" d="M 0 0 
L 0 2 
" style="stroke: #000000; stroke-width: 0.6"/>
      </defs>
      <g>
       <use xlink:href="#md92447a8c9" x="40.417006" y="291.28" style="stroke: #000000; stroke-width: 0.6"/>
      </g>
     </g>
    </g>
    <g id="xtick_4">
     <g id="line2d_6">
      <g>
       <use xlink:href="#md92447a8c9" x="45.887039" y="291.28" style="stroke: #000000; stroke-width: 0.6"/>
      </g>
     </g>
    </g>
    <g id="xtick_5">
     <g id="line2d_7">
      <g>
       <use xlink:href="#md92447a8c9" x="50.71195" y="291.28" style="stroke: #000000; stroke-width: 0.6"/>
      </g>
     </g>
    </g>
    <g id="xtick_6">
     <g id="line2d_8">
      <g>
       <use xlink:href="#md92447a8c9" x="83.422336" y="291.28" style="stroke: #000000; stroke-width: 0.6"/>
      </g>
     </g>
    </g>
    <g id="xtick_7">
     <g id="line2d_9">
      <g>
       <use xlink:href="#md92447a8c9" x="100.03197" y="291.28" style="stroke: #000000; stroke-width: 0.6"/>
      </g>
     </g>
    </g>
    <g id="xtick_8">
     <g id="line2d_10">
      <g>
       <use xlink:href="#md92447a8c9" x="111.816693" y="291.28" style="stroke: #000000; stroke-width: 0.6"/>
      </g>
     </g>
    </g>
    <g id="xtick_9">
     <g id="line2d_11">
      <g>
       <use xlink:href="#md92447a8c9" x="120.957634" y="291.28" style="stroke: #000000; stroke-width: 0.6"/>
      </g>
     </g>
    </g>
    <g id="xtick_10">
     <g id="line2d_12">
      <g>
       <use xlink:href="#md92447a8c9" x="128.426326" y="291.28" style="stroke: #000000; stroke-width: 0.6"/>
      </g>
     </g>
    </g>
    <g id="xtick_11">
     <g id="line2d_13">
      <g>
       <use xlink:href="#md92447a8c9" x="134.741016" y="291.28" style="stroke: #000000; stroke-width: 0.6"/>
      </g>
     </g>
    </g>
    <g id="xtick_12">
     <g id="line2d_14">
      <g>
       <use xlink:href="#md92447a8c9" x="140.211049" y="291.28" style="stroke: #000000; stroke-width: 0.6"/>
      </g>
     </g>
    </g>
    <g id="xtick_13">
     <g id="line2d_15">
      <g>
       <use xlink:href="#md92447a8c9" x="145.03596" y="291.28" style="stroke: #000000; stroke-width: 0.6"/>
      </g>
     </g>
    </g>
    <g id="xtick_14">
     <g id="line2d_16">
      <g>
       <use xlink:href="#md92447a8c9" x="177.746346" y="291.28" style="stroke: #000000; stroke-width: 0.6"/>
      </g>
     </g>
    </g>
    <g id="xtick_15">
     <g id="line2d_17">
      <g>
       <use xlink:href="#md92447a8c9" x="194.35598" y="291.28" style="stroke: #000000; stroke-width: 0.6"/>
      </g>
     </g>
    </g>
    <g id="xtick_16">
     <g id="line2d_18">
      <g>
       <use xlink:href="#md92447a8c9" x="206.140703" y="291.28" style="stroke: #000000; stroke-width: 0.6"/>
      </g>
     </g>
    </g>
    <g id="xtick_17">
     <g id="line2d_19">
      <g>
       <use xlink:href="#md92447a8c9" x="215.281644" y="291.28" style="stroke: #000000; stroke-width: 0.6"/>
      </g>
     </g>
    </g>
    <g id="xtick_18">
     <g id="line2d_20">
      <g>
       <use xlink:href="#md92447a8c9" x="222.750336" y="291.28" style="stroke: #000000; stroke-width: 0.6"/>
      </g>
     </g>
    </g>
    <g id="xtick_19">
     <g id="line2d_21">
      <g>
       <use xlink:href="#md92447a8c9" x="229.065026" y="291.28" style="stroke: #000000; stroke-width: 0.6"/>
      </g>
     </g>
    </g>
    <g id="xtick_20">
     <g id="line2d_22">
      <g>
       <use xlink:href="#md92447a8c9" x="234.535059" y="291.28" style="stroke: #000000; stroke-width: 0.6"/>
      </g>
     </g>
    </g>
    <g id="xtick_21">
     <g id="line2d_23">
      <g>
       <use xlink:href="#md92447a8c9" x="239.35997" y="291.28" style="stroke: #000000; stroke-width: 0.6"/>
      </g>
     </g>
    </g>
    <g id="xtick_22">
     <g id="line2d_24">
      <g>
       <use xlink:href="#md92447a8c9" x="272.070356" y="291.28" style="stroke: #000000; stroke-width: 0.6"/>
      </g>
     </g>
    </g>
    <g id="xtick_23">
     <g id="line2d_25">
      <g>
       <use xlink:href="#md92447a8c9" x="288.67999" y="291.28" style="stroke: #000000; stroke-width: 0.6"/>
      </g>
     </g>
    </g>
    <g id="xtick_24">
     <g id="line2d_26">
      <g>
       <use xlink:href="#md92447a8c9" x="300.464713" y="291.28" style="stroke: #000000; stroke-width: 0.6"/>
      </g>
     </g>
    </g>
    <g id="xtick_25">
     <g id="line2d_27">
      <g>
       <use xlink:href="#md92447a8c9" x="309.605654" y="291.28" style="stroke: #000000; stroke-width: 0.6"/>
      </g>
     </g>
    </g>
    <g id="xtick_26">
     <g id="line2d_28">
      <g>
       <use xlink:href="#md92447a8c9" x="317.074346" y="291.28" style="stroke: #000000; stroke-width: 0.6"/>
      </g>
     </g>
    </g>
    <g id="xtick_27">
     <g id="line2d_29">
      <g>
       <use xlink:href="#md92447a8c9" x="323.389036" y="291.28" style="stroke: #000000; stroke-width: 0.6"/>
      </g>
     </g>
    </g>
    <g id="xtick_28">
     <g id="line2d_30">
      <g>
       <use xlink:href="#md92447a8c9" x="328.859069" y="291.28" style="stroke: #000000; stroke-width: 0.6"/>
      </g>
     </g>
    </g>
    <g id="xtick_29">
     <g id="line2d_31">
      <g>
       <use xlink:href="#md92447a8c9" x="333.68398" y="291.28" style="stroke: #000000; stroke-width: 0.6"/>
      </g>
     </g>
    </g>
    <g id="xtick_30">
     <g id="line2d_32">
      <g>
       <use xlink:href="#md92447a8c9" x="366.394366" y="291.28" style="stroke: #000000; stroke-width: 0.6"/>
      </g>
     </g>
    </g>
    <g id="xtick_31">
     <g id="line2d_33">
      <g>
       <use xlink:href="#md92447a8c9" x="383.004" y="291.28" style="stroke: #000000; stroke-width: 0.6"/>
      </g>
     </g>
    </g>
    <g id="xtick_32">
     <g id="line2d_34">
      <g>
       <use xlink:href="#md92447a8c9" x="394.788723" y="291.28" style="stroke: #000000; stroke-width: 0.6"/>
      </g>
     </g>
    </g>
    <g id="xtick_33">
     <g id="line2d_35">
      <g>
       <use xlink:href="#md92447a8c9" x="403.929664" y="291.28" style="stroke: #000000; stroke-width: 0.6"/>
      </g>
     </g>
    </g>
    <g id="xtick_34">
     <g id="line2d_36">
      <g>
       <use xlink:href="#md92447a8c9" x="411.398356" y="291.28" style="stroke: #000000; stroke-width: 0.6"/>
      </g>
     </g>
    </g>
    <g id="xtick_35">
     <g id="line2d_37">
      <g>
       <use xlink:href="#md92447a8c9" x="417.713046" y="291.28" style="stroke: #000000; stroke-width: 0.6"/>
      </g>
     </g>
    </g>
    <g id="xtick_36">
     <g id="line2d_38">
      <g>
       <use xlink:href="#md92447a8c9" x="423.183079" y="291.28" style="stroke: #000000; stroke-width: 0.6"/>
      </g>
     </g>
    </g>
    <g id="xtick_37">
     <g id="line2d_39">
      <g>
       <use xlink:href="#md92447a8c9" x="428.00799" y="291.28" style="stroke: #000000; stroke-width: 0.6"/>
      </g>
     </g>
    </g>
    <g id="text_3">
     <!-- log10 of FEvals ratio -->
     <g transform="translate(141.371312 336.833125)scale(0.2 -0.2)">
      <defs>
       <path id="DejaVuSans-6c" d="M 603 4863 
L 1178 4863 
L 1178 0 
L 603 0 
L 603 4863 
z
" transform="scale(0.015625)"/>
       <path id="DejaVuSans-6f" d="M 1959 3097 
Q 1497 3097 1228 2736 
Q 959 2375 959 1747 
Q 959 1119 1226 758 
Q 1494 397 1959 397 
Q 2419 397 2687 759 
Q 2956 1122 2956 1747 
Q 2956 2369 2687 2733 
Q 2419 3097 1959 3097 
z
M 1959 3584 
Q 2709 3584 3137 3096 
Q 3566 2609 3566 1747 
Q 3566 888 3137 398 
Q 2709 -91 1959 -91 
Q 1206 -91 779 398 
Q 353 888 353 1747 
Q 353 2609 779 3096 
Q 1206 3584 1959 3584 
z
" transform="scale(0.015625)"/>
       <path id="DejaVuSans-67" d="M 2906 1791 
Q 2906 2416 2648 2759 
Q 2391 3103 1925 3103 
Q 1463 3103 1205 2759 
Q 947 2416 947 1791 
Q 947 1169 1205 825 
Q 1463 481 1925 481 
Q 2391 481 2648 825 
Q 2906 1169 2906 1791 
z
M 3481 434 
Q 3481 -459 3084 -895 
Q 2688 -1331 1869 -1331 
Q 1566 -1331 1297 -1286 
Q 1028 -1241 775 -1147 
L 775 -588 
Q 1028 -725 1275 -790 
Q 1522 -856 1778 -856 
Q 2344 -856 2625 -561 
Q 2906 -266 2906 331 
L 2906 616 
Q 2728 306 2450 153 
Q 2172 0 1784 0 
Q 1141 0 747 490 
Q 353 981 353 1791 
Q 353 2603 747 3093 
Q 1141 3584 1784 3584 
Q 2172 3584 2450 3431 
Q 2728 3278 2906 2969 
L 2906 3500 
L 3481 3500 
L 3481 434 
z
" transform="scale(0.015625)"/>
       <path id="DejaVuSans-30" d="M 2034 4250 
Q 1547 4250 1301 3770 
Q 1056 3291 1056 2328 
Q 1056 1369 1301 889 
Q 1547 409 2034 409 
Q 2525 409 2770 889 
Q 3016 1369 3016 2328 
Q 3016 3291 2770 3770 
Q 2525 4250 2034 4250 
z
M 2034 4750 
Q 2819 4750 3233 4129 
Q 3647 3509 3647 2328 
Q 3647 1150 3233 529 
Q 2819 -91 2034 -91 
Q 1250 -91 836 529 
Q 422 1150 422 2328 
Q 422 3509 836 4129 
Q 1250 4750 2034 4750 
z
" transform="scale(0.015625)"/>
       <path id="DejaVuSans-20" transform="scale(0.015625)"/>
       <path id="DejaVuSans-66" d="M 2375 4863 
L 2375 4384 
L 1825 4384 
Q 1516 4384 1395 4259 
Q 1275 4134 1275 3809 
L 1275 3500 
L 2222 3500 
L 2222 3053 
L 1275 3053 
L 1275 0 
L 697 0 
L 697 3053 
L 147 3053 
L 147 3500 
L 697 3500 
L 697 3744 
Q 697 4328 969 4595 
Q 1241 4863 1831 4863 
L 2375 4863 
z
" transform="scale(0.015625)"/>
       <path id="DejaVuSans-46" d="M 628 4666 
L 3309 4666 
L 3309 4134 
L 1259 4134 
L 1259 2759 
L 3109 2759 
L 3109 2228 
L 1259 2228 
L 1259 0 
L 628 0 
L 628 4666 
z
" transform="scale(0.015625)"/>
       <path id="DejaVuSans-45" d="M 628 4666 
L 3578 4666 
L 3578 4134 
L 1259 4134 
L 1259 2753 
L 3481 2753 
L 3481 2222 
L 1259 2222 
L 1259 531 
L 3634 531 
L 3634 0 
L 628 0 
L 628 4666 
z
" transform="scale(0.015625)"/>
       <path id="DejaVuSans-76" d="M 191 3500 
L 800 3500 
L 1894 563 
L 2988 3500 
L 3597 3500 
L 2284 0 
L 1503 0 
L 191 3500 
z
" transform="scale(0.015625)"/>
       <path id="DejaVuSans-61" d="M 2194 1759 
Q 1497 1759 1228 1600 
Q 959 1441 959 1056 
Q 959 750 1161 570 
Q 1363 391 1709 391 
Q 2188 391 2477 730 
Q 2766 1069 2766 1631 
L 2766 1759 
L 2194 1759 
z
M 3341 1997 
L 3341 0 
L 2766 0 
L 2766 531 
Q 2569 213 2275 61 
Q 1981 -91 1556 -91 
Q 1019 -91 701 211 
Q 384 513 384 1019 
Q 384 1609 779 1909 
Q 1175 2209 1959 2209 
L 2766 2209 
L 2766 2266 
Q 2766 2663 2505 2880 
Q 2244 3097 1772 3097 
Q 1472 3097 1187 3025 
Q 903 2953 641 2809 
L 641 3341 
Q 956 3463 1253 3523 
Q 1550 3584 1831 3584 
Q 2591 3584 2966 3190 
Q 3341 2797 3341 1997 
z
" transform="scale(0.015625)"/>
       <path id="DejaVuSans-73" d="M 2834 3397 
L 2834 2853 
Q 2591 2978 2328 3040 
Q 2066 3103 1784 3103 
Q 1356 3103 1142 2972 
Q 928 2841 928 2578 
Q 928 2378 1081 2264 
Q 1234 2150 1697 2047 
L 1894 2003 
Q 2506 1872 2764 1633 
Q 3022 1394 3022 966 
Q 3022 478 2636 193 
Q 2250 -91 1575 -91 
Q 1294 -91 989 -36 
Q 684 19 347 128 
L 347 722 
Q 666 556 975 473 
Q 1284 391 1588 391 
Q 1994 391 2212 530 
Q 2431 669 2431 922 
Q 2431 1156 2273 1281 
Q 2116 1406 1581 1522 
L 1381 1569 
Q 847 1681 609 1914 
Q 372 2147 372 2553 
Q 372 3047 722 3315 
Q 1072 3584 1716 3584 
Q 2034 3584 2315 3537 
Q 2597 3491 2834 3397 
z
" transform="scale(0.015625)"/>
       <path id="DejaVuSans-72" d="M 2631 2963 
Q 2534 3019 2420 3045 
Q 2306 3072 2169 3072 
Q 1681 3072 1420 2755 
Q 1159 2438 1159 1844 
L 1159 0 
L 581 0 
L 581 3500 
L 1159 3500 
L 1159 2956 
Q 1341 3275 1631 3429 
Q 1922 3584 2338 3584 
Q 2397 3584 2469 3576 
Q 2541 3569 2628 3553 
L 2631 2963 
z
" transform="scale(0.015625)"/>
       <path id="DejaVuSans-74" d="M 1172 4494 
L 1172 3500 
L 2356 3500 
L 2356 3053 
L 1172 3053 
L 1172 1153 
Q 1172 725 1289 603 
Q 1406 481 1766 481 
L 2356 481 
L 2356 0 
L 1766 0 
Q 1100 0 847 248 
Q 594 497 594 1153 
L 594 3053 
L 172 3053 
L 172 3500 
L 594 3500 
L 594 4494 
L 1172 4494 
z
" transform="scale(0.015625)"/>
       <path id="DejaVuSans-69" d="M 603 3500 
L 1178 3500 
L 1178 0 
L 603 0 
L 603 3500 
z
M 603 4863 
L 1178 4863 
L 1178 4134 
L 603 4134 
L 603 4863 
z
" transform="scale(0.015625)"/>
      </defs>
      <use xlink:href="#DejaVuSans-6c"/>
      <use xlink:href="#DejaVuSans-6f" x="27.783203"/>
      <use xlink:href="#DejaVuSans-67" x="88.964844"/>
      <use xlink:href="#DejaVuSans-31" x="152.441406"/>
      <use xlink:href="#DejaVuSans-30" x="216.064453"/>
      <use xlink:href="#DejaVuSans-20" x="279.6875"/>
      <use xlink:href="#DejaVuSans-6f" x="311.474609"/>
      <use xlink:href="#DejaVuSans-66" x="372.65625"/>
      <use xlink:href="#DejaVuSans-20" x="407.861328"/>
      <use xlink:href="#DejaVuSans-46" x="439.648438"/>
      <use xlink:href="#DejaVuSans-45" x="497.167969"/>
      <use xlink:href="#DejaVuSans-76" x="560.351562"/>
      <use xlink:href="#DejaVuSans-61" x="619.53125"/>
      <use xlink:href="#DejaVuSans-6c" x="680.810547"/>
      <use xlink:href="#DejaVuSans-73" x="708.59375"/>
      <use xlink:href="#DejaVuSans-20" x="760.693359"/>
      <use xlink:href="#DejaVuSans-72" x="792.480469"/>
      <use xlink:href="#DejaVuSans-61" x="833.59375"/>
      <use xlink:href="#DejaVuSans-74" x="894.873047"/>
      <use xlink:href="#DejaVuSans-69" x="934.082031"/>
      <use xlink:href="#DejaVuSans-6f" x="961.865234"/>
     </g>
    </g>
   </g>
   <g id="matplotlib.axis_2">
    <g id="ytick_1">
     <g id="line2d_40">
      <path d="M 34.16 288.453725 
L 453.192 288.453725 
" clip-path="url(#p877642c175)" style="fill: none; stroke: #b0b0b0; stroke-width: 0.8; stroke-linecap: square"/>
     </g>
     <g id="line2d_41">
      <defs>
       <path id="m0bc3483659" d="M 0 0 
L -3.5 0 
" style="stroke: #000000; stroke-width: 0.8"/>
      </defs>
      <g>
       <use xlink:href="#m0bc3483659" x="34.16" y="288.453725" style="stroke: #000000; stroke-width: 0.8"/>
      </g>
     </g>
    </g>
    <g id="ytick_2">
     <g id="line2d_42">
      <path d="M 34.16 217.796863 
L 453.192 217.796863 
" clip-path="url(#p877642c175)" style="fill: none; stroke: #b0b0b0; stroke-width: 0.8; stroke-linecap: square"/>
     </g>
     <g id="line2d_43">
      <g>
       <use xlink:href="#m0bc3483659" x="34.16" y="217.796863" style="stroke: #000000; stroke-width: 0.8"/>
      </g>
     </g>
    </g>
    <g id="ytick_3">
     <g id="line2d_44">
      <path d="M 34.16 147.14 
L 453.192 147.14 
" clip-path="url(#p877642c175)" style="fill: none; stroke: #b0b0b0; stroke-width: 0.8; stroke-linecap: square"/>
     </g>
     <g id="line2d_45">
      <g>
       <use xlink:href="#m0bc3483659" x="34.16" y="147.14" style="stroke: #000000; stroke-width: 0.8"/>
      </g>
     </g>
    </g>
    <g id="ytick_4">
     <g id="line2d_46">
      <path d="M 34.16 76.483137 
L 453.192 76.483137 
" clip-path="url(#p877642c175)" style="fill: none; stroke: #b0b0b0; stroke-width: 0.8; stroke-linecap: square"/>
     </g>
     <g id="line2d_47">
      <g>
       <use xlink:href="#m0bc3483659" x="34.16" y="76.483137" style="stroke: #000000; stroke-width: 0.8"/>
      </g>
     </g>
    </g>
    <g id="ytick_5">
     <g id="line2d_48">
      <path d="M 34.16 5.826275 
L 453.192 5.826275 
" clip-path="url(#p877642c175)" style="fill: none; stroke: #b0b0b0; stroke-width: 0.8; stroke-linecap: square"/>
     </g>
     <g id="line2d_49">
      <g>
       <use xlink:href="#m0bc3483659" x="34.16" y="5.826275" style="stroke: #000000; stroke-width: 0.8"/>
      </g>
     </g>
    </g>
    <g id="text_4">
     <!-- proportion of trials -->
     <g transform="translate(19.000625 240.14625)rotate(-90)scale(0.2 -0.2)">
      <defs>
       <path id="DejaVuSans-70" d="M 1159 525 
L 1159 -1331 
L 581 -1331 
L 581 3500 
L 1159 3500 
L 1159 2969 
Q 1341 3281 1617 3432 
Q 1894 3584 2278 3584 
Q 2916 3584 3314 3078 
Q 3713 2572 3713 1747 
Q 3713 922 3314 415 
Q 2916 -91 2278 -91 
Q 1894 -91 1617 61 
Q 1341 213 1159 525 
z
M 3116 1747 
Q 3116 2381 2855 2742 
Q 2594 3103 2138 3103 
Q 1681 3103 1420 2742 
Q 1159 2381 1159 1747 
Q 1159 1113 1420 752 
Q 1681 391 2138 391 
Q 2594 391 2855 752 
Q 3116 1113 3116 1747 
z
" transform="scale(0.015625)"/>
       <path id="DejaVuSans-6e" d="M 3513 2113 
L 3513 0 
L 2938 0 
L 2938 2094 
Q 2938 2591 2744 2837 
Q 2550 3084 2163 3084 
Q 1697 3084 1428 2787 
Q 1159 2491 1159 1978 
L 1159 0 
L 581 0 
L 581 3500 
L 1159 3500 
L 1159 2956 
Q 1366 3272 1645 3428 
Q 1925 3584 2291 3584 
Q 2894 3584 3203 3211 
Q 3513 2838 3513 2113 
z
" transform="scale(0.015625)"/>
      </defs>
      <use xlink:href="#DejaVuSans-70"/>
      <use xlink:href="#DejaVuSans-72" x="63.476562"/>
      <use xlink:href="#DejaVuSans-6f" x="102.339844"/>
      <use xlink:href="#DejaVuSans-70" x="163.521484"/>
      <use xlink:href="#DejaVuSans-6f" x="226.998047"/>
      <use xlink:href="#DejaVuSans-72" x="288.179688"/>
      <use xlink:href="#DejaVuSans-74" x="329.292969"/>
      <use xlink:href="#DejaVuSans-69" x="368.501953"/>
      <use xlink:href="#DejaVuSans-6f" x="396.285156"/>
      <use xlink:href="#DejaVuSans-6e" x="457.466797"/>
      <use xlink:href="#DejaVuSans-20" x="520.845703"/>
      <use xlink:href="#DejaVuSans-6f" x="552.632812"/>
      <use xlink:href="#DejaVuSans-66" x="613.814453"/>
      <use xlink:href="#DejaVuSans-20" x="649.019531"/>
      <use xlink:href="#DejaVuSans-74" x="680.806641"/>
      <use xlink:href="#DejaVuSans-72" x="720.015625"/>
      <use xlink:href="#DejaVuSans-69" x="761.128906"/>
      <use xlink:href="#DejaVuSans-61" x="788.912109"/>
      <use xlink:href="#DejaVuSans-6c" x="850.191406"/>
      <use xlink:href="#DejaVuSans-73" x="877.974609"/>
     </g>
    </g>
   </g>
   <g id="line2d_50">
    <path d="M 34.16 249.164708 
L 80.28808 249.164708 
L 80.28808 248.91123 
L 82.152213 248.91123 
L 82.152213 248.657753 
L 84.318714 248.657753 
L 84.318714 248.404275 
L 86.041686 248.404275 
L 86.041686 248.150798 
L 86.88725 248.150798 
L 86.88725 247.89732 
L 87.348945 247.89732 
L 87.348945 247.643842 
L 87.723647 247.643842 
L 87.723647 247.390365 
L 88.674013 247.390365 
L 88.707917 246.88341 
L 89.013058 246.88341 
L 89.013058 246.629932 
L 89.363868 246.629932 
L 89.363868 246.376455 
L 90.564618 246.376455 
L 90.564618 246.122977 
L 92.683531 246.122977 
L 92.683531 245.8695 
L 92.869858 245.8695 
L 92.925103 245.362545 
L 93.298584 245.362545 
L 93.356238 244.85559 
L 94.363394 244.85559 
L 94.363394 244.602112 
L 97.341978 244.602112 
L 97.341978 244.348634 
L 99.506214 244.348634 
L 99.506214 244.095157 
L 99.963163 244.095157 
L 99.963163 243.841679 
L 100.703109 243.841679 
L 100.703109 243.588202 
L 100.911846 243.588202 
L 100.911846 243.334724 
L 101.414092 243.334724 
L 101.414092 243.081247 
L 102.019851 243.081247 
L 102.019851 242.827769 
L 102.782254 242.827769 
L 102.782254 242.574292 
L 106.39268 242.574292 
L 106.42522 242.067337 
L 107.077314 242.067337 
L 107.174251 241.560382 
L 109.386478 241.560382 
L 109.483598 241.053427 
L 109.801801 241.053427 
L 109.843427 240.546471 
L 110.010579 240.546471 
L 110.010579 240.292994 
L 110.284113 240.292994 
L 110.284113 240.039516 
L 110.438516 240.039516 
L 110.438516 239.786039 
L 111.111314 239.786039 
L 111.111314 239.532561 
L 111.294356 239.532561 
L 111.294356 239.279084 
L 111.816693 239.279084 
L 111.816693 239.025606 
L 114.469149 239.025606 
L 114.469149 238.772129 
L 115.233838 238.772129 
L 115.233838 238.518651 
L 116.192122 238.518651 
L 116.272944 238.011696 
L 116.305484 238.011696 
L 116.305484 237.758219 
L 116.925386 237.758219 
L 116.957578 237.251264 
L 117.037686 237.251264 
L 117.037686 236.997786 
L 117.52561 236.997786 
L 117.52561 236.744308 
L 117.874082 236.744308 
L 117.874082 236.490831 
L 118.824448 236.490831 
L 118.858352 235.983876 
L 119.163493 235.983876 
L 119.216451 235.476921 
L 119.363862 235.476921 
L 119.363862 235.223443 
L 119.514303 235.223443 
L 119.514303 234.969966 
L 119.682064 234.969966 
L 119.682064 234.716488 
L 119.888111 234.716488 
L 119.890843 234.209533 
L 120.164377 234.209533 
L 120.164377 233.956056 
L 122.381326 233.956056 
L 122.381326 233.702578 
L 122.833966 233.702578 
L 122.833966 233.449101 
L 123.059832 233.449101 
L 123.075539 232.942145 
L 123.449019 232.942145 
L 123.516782 232.181713 
L 123.827221 232.181713 
L 123.827221 231.928235 
L 124.513829 231.928235 
L 124.513829 231.674758 
L 124.967711 231.674758 
L 124.967711 231.42128 
L 125.107629 231.42128 
L 125.114102 230.914325 
L 125.985471 230.914325 
L 125.985471 230.660848 
L 126.805649 230.660848 
L 126.805649 230.40737 
L 127.492413 230.40737 
L 127.492413 230.153893 
L 128.426326 230.153893 
L 128.426326 229.900415 
L 128.979834 229.900415 
L 128.979834 229.646937 
L 129.138263 229.646937 
L 129.138263 229.39346 
L 129.768375 229.39346 
L 129.768375 229.139982 
L 129.946298 229.139982 
L 130.016105 228.37955 
L 130.471231 228.37955 
L 130.471231 228.126072 
L 130.630933 228.126072 
L 130.630933 227.872595 
L 130.861235 227.872595 
L 130.861235 227.619117 
L 131.706799 227.619117 
L 131.739077 227.112162 
L 132.26159 227.112162 
L 132.26159 226.858685 
L 132.543195 226.858685 
L 132.584641 226.35173 
L 133.037216 226.35173 
L 133.037216 226.098252 
L 133.355419 226.098252 
L 133.421037 225.337819 
L 133.493561 225.337819 
L 133.564198 224.577387 
L 133.832607 224.577387 
L 133.846536 223.816954 
L 134.131113 223.816954 
L 134.183416 223.309999 
L 134.371403 223.309999 
L 134.405308 222.803044 
L 134.501864 222.803044 
L 134.501864 222.549567 
L 134.710449 222.549567 
L 134.710449 222.296089 
L 135.061258 222.296089 
L 135.061258 222.042611 
L 135.297465 222.042611 
L 135.297465 221.789134 
L 135.568608 221.789134 
L 135.568608 221.282179 
L 136.224837 221.282179 
L 136.224837 221.028701 
L 136.753565 221.028701 
L 136.753565 220.775224 
L 137.070401 220.775224 
L 137.070401 220.521746 
L 137.210514 220.521746 
L 137.210514 220.268269 
L 137.50308 220.268269 
L 137.50308 220.014791 
L 137.744652 220.014791 
L 137.744652 219.761314 
L 137.906797 219.761314 
L 137.906797 219.507836 
L 138.118133 219.507836 
L 138.175786 219.000881 
L 138.380922 219.000881 
L 138.460949 218.493926 
L 138.622494 218.493926 
L 138.661443 217.986971 
L 138.787456 217.986971 
L 138.891067 217.226538 
L 138.995975 217.226538 
L 139.053628 216.719583 
L 139.182942 216.719583 
L 139.196209 216.212628 
L 139.547018 216.212628 
L 139.547018 215.959151 
L 139.994269 215.959151 
L 140.060784 215.452196 
L 140.276053 215.452196 
L 140.308594 214.94524 
L 140.451218 214.94524 
L 140.479004 214.438285 
L 140.960687 214.438285 
L 140.960687 214.184808 
L 141.883297 214.184808 
L 141.902147 213.424375 
L 142.161526 213.424375 
L 142.161526 213.170898 
L 142.491583 213.170898 
L 142.491583 212.91742 
L 142.866682 212.91742 
L 142.866682 212.663943 
L 143.039368 212.663943 
L 143.108254 212.156988 
L 143.366971 212.156988 
L 143.441729 211.650033 
L 143.481734 211.650033 
L 143.539388 211.143077 
L 143.626726 211.143077 
L 143.685174 210.129167 
L 143.893953 210.129167 
L 143.893953 209.87569 
L 144.167486 209.87569 
L 144.214555 209.368735 
L 144.324665 209.368735 
L 144.324665 209.115257 
L 144.546544 209.115257 
L 144.546544 208.86178 
L 145.060119 208.86178 
L 145.060119 208.608302 
L 145.570351 208.608302 
L 145.570351 208.354825 
L 145.896515 208.354825 
L 145.934945 207.84787 
L 146.450771 207.84787 
L 146.450771 207.594392 
L 146.730949 207.594392 
L 146.730949 207.340914 
L 146.846881 207.340914 
L 146.913276 206.327004 
L 147.049152 206.327004 
L 147.049152 206.073527 
L 147.185927 206.073527 
L 147.257931 205.566572 
L 147.525128 205.566572 
L 147.565369 204.552662 
L 149.117211 204.552662 
L 149.117211 204.299184 
L 149.35199 204.299184 
L 149.35199 204.045706 
L 149.971653 204.045706 
L 149.971653 203.792229 
L 150.289856 203.792229 
L 150.289856 203.538751 
L 150.498635 203.538751 
L 150.498635 203.285274 
L 150.701736 203.285274 
L 150.808759 202.271364 
L 150.8564 202.271364 
L 150.8564 202.017886 
L 151.097972 202.017886 
L 151.158685 201.510931 
L 151.427053 201.510931 
L 151.529106 200.750499 
L 151.647504 200.750499 
L 151.647504 200.497021 
L 152.481189 200.497021 
L 152.536262 199.990066 
L 152.609614 199.990066 
L 152.609614 199.736588 
L 153.771484 199.736588 
L 153.874458 199.229633 
L 154.172737 199.229633 
L 154.172737 198.976156 
L 154.331407 198.976156 
L 154.331407 198.722678 
L 155.514846 198.722678 
L 155.514846 198.469201 
L 155.721893 198.469201 
L 155.828115 197.708768 
L 156.2647 197.708768 
L 156.285064 197.201813 
L 156.623786 197.201813 
L 156.623786 196.948336 
L 156.820683 196.948336 
L 156.820683 196.44138 
L 157.135462 196.44138 
L 157.168417 195.934425 
L 157.413441 195.934425 
L 157.413441 195.680948 
L 157.588202 195.680948 
L 157.620742 195.173993 
L 157.735993 195.173993 
L 157.735993 194.920515 
L 158.272836 194.920515 
L 158.272836 194.667038 
L 158.492931 194.667038 
L 158.492931 194.160083 
L 158.640137 194.160083 
L 158.640137 193.906605 
L 159.097086 193.906605 
L 159.097086 193.653128 
L 159.628678 193.653128 
L 159.628678 193.39965 
L 160.23636 193.39965 
L 160.23636 193.146173 
L 160.376166 193.146173 
L 160.398595 192.639217 
L 160.548015 192.639217 
L 160.548015 192.38574 
L 160.67912 192.38574 
L 160.760924 191.878785 
L 160.793465 191.878785 
L 160.793465 191.625307 
L 160.997323 191.625307 
L 160.997323 191.37183 
L 161.206101 191.37183 
L 161.206101 191.118352 
L 161.445558 191.118352 
L 161.479635 190.611397 
L 162.144698 190.611397 
L 162.144698 190.35792 
L 162.714581 190.35792 
L 162.747122 189.850965 
L 162.869382 189.850965 
L 162.869382 189.597487 
L 163.399215 189.597487 
L 163.399215 189.344009 
L 163.585854 189.344009 
L 163.585854 189.090532 
L 163.851842 189.090532 
L 163.851842 188.837054 
L 163.962964 188.837054 
L 163.962964 188.583577 
L 164.170045 188.583577 
L 164.170045 188.330099 
L 164.378824 188.330099 
L 164.378824 188.076622 
L 164.652357 188.076622 
L 164.652357 187.823144 
L 165.001668 187.823144 
L 165.001668 187.569667 
L 165.210404 187.569667 
L 165.210404 187.316189 
L 165.526603 187.316189 
L 165.559144 186.809234 
L 165.805499 186.809234 
L 165.805499 186.555757 
L 165.961624 186.555757 
L 165.961624 186.302279 
L 166.123702 186.302279 
L 166.211237 185.795324 
L 166.31841 185.795324 
L 166.42936 185.034891 
L 166.606014 185.034891 
L 166.606014 184.781414 
L 166.998752 184.781414 
L 167.080812 184.274459 
L 167.616488 184.274459 
L 167.616488 184.020981 
L 167.749187 184.020981 
L 167.749187 183.767504 
L 168.120907 183.767504 
L 168.206136 183.260549 
L 168.617521 183.260549 
L 168.617521 183.007071 
L 168.745804 183.007071 
L 168.745804 182.753594 
L 168.935724 182.753594 
L 168.935724 182.500116 
L 169.144503 182.500116 
L 169.144503 182.246639 
L 169.33946 182.246639 
L 169.418036 181.739683 
L 169.596186 181.739683 
L 169.657065 180.979251 
L 169.97795 180.979251 
L 169.97795 180.725773 
L 170.185024 180.725773 
L 170.277654 179.458386 
L 171.021421 179.458386 
L 171.083633 178.951431 
L 171.29363 178.951431 
L 171.294691 178.444476 
L 171.555739 178.444476 
L 171.555739 178.190998 
L 171.971787 178.190998 
L 172.057094 177.430565 
L 172.310832 177.430565 
L 172.310832 177.177088 
L 172.661642 177.177088 
L 172.661642 176.92361 
L 172.776437 176.92361 
L 172.776437 176.670133 
L 173.247287 176.670133 
L 173.247287 176.416655 
L 173.576848 176.416655 
L 173.576848 176.163178 
L 174.256355 176.163178 
L 174.256355 175.9097 
L 174.367761 175.9097 
L 174.367761 175.656223 
L 174.49941 175.656223 
L 174.49941 175.402745 
L 174.635653 175.402745 
L 174.668193 174.89579 
L 174.792919 174.89579 
L 174.792919 174.642312 
L 175.320287 174.642312 
L 175.409872 173.88188 
L 175.981305 173.88188 
L 176.059309 173.374925 
L 176.18137 173.374925 
L 176.222877 172.614492 
L 176.596358 172.614492 
L 176.654012 172.107537 
L 176.749571 172.107537 
L 176.749571 171.85406 
L 177.131736 171.85406 
L 177.16564 171.347105 
L 177.470781 171.347105 
L 177.470781 171.093627 
L 177.661168 171.093627 
L 177.726571 170.586672 
L 177.821591 170.586672 
L 177.821591 170.333194 
L 178.044774 170.333194 
L 178.044774 170.079717 
L 178.231138 170.079717 
L 178.253552 169.572762 
L 178.527086 169.572762 
L 178.527086 169.319284 
L 178.703227 169.319284 
L 178.703227 169.065807 
L 179.022034 169.065807 
L 179.022034 168.812329 
L 179.135103 168.812329 
L 179.135103 168.305374 
L 179.893291 168.305374 
L 179.893291 168.051897 
L 180.313831 168.051897 
L 180.386154 167.544942 
L 180.639752 167.544942 
L 180.639752 167.291464 
L 181.141254 167.291464 
L 181.141254 167.037986 
L 181.382827 167.037986 
L 181.382827 166.784509 
L 181.51525 166.784509 
L 181.51525 166.531031 
L 181.65067 166.531031 
L 181.756307 166.024076 
L 181.813961 166.024076 
L 181.824168 165.517121 
L 182.062376 165.517121 
L 182.062376 165.263644 
L 182.821117 165.263644 
L 182.821117 165.010166 
L 183.476811 165.010166 
L 183.515009 164.503211 
L 183.608386 164.503211 
L 183.608386 164.249734 
L 183.923925 164.249734 
L 183.923925 163.996256 
L 185.168358 163.996256 
L 185.215039 163.489301 
L 185.646897 163.489301 
L 185.646897 163.235823 
L 185.799701 163.235823 
L 185.799701 162.982346 
L 186.492461 162.982346 
L 186.492461 162.728868 
L 186.80045 162.728868 
L 186.887287 160.447571 
L 187.324761 160.447571 
L 187.328858 159.940615 
L 188.12578 159.940615 
L 188.147083 159.180183 
L 188.279224 159.180183 
L 188.355819 158.41975 
L 188.491291 158.41975 
L 188.491291 158.166273 
L 188.618269 158.166273 
L 188.630716 157.40584 
L 188.969079 157.40584 
L 188.969079 157.152363 
L 189.463824 157.152363 
L 189.463824 156.898885 
L 190.226227 156.898885 
L 190.226227 156.645408 
L 190.624299 156.645408 
L 190.624299 156.39193 
L 191.355394 156.39193 
L 191.355394 156.138452 
L 191.529729 156.138452 
L 191.529729 155.884975 
L 192.288742 155.884975 
L 192.288742 155.631497 
L 192.530314 155.631497 
L 192.530314 155.37802 
L 192.903795 155.37802 
L 192.961449 154.871065 
L 193.078366 154.871065 
L 193.102061 154.36411 
L 193.278393 154.36411 
L 193.278393 154.110632 
L 193.92393 154.110632 
L 193.968605 153.603677 
L 194.35598 153.603677 
L 194.35598 153.096722 
L 194.760327 153.096722 
L 194.844255 152.589767 
L 195.636222 152.589767 
L 195.744597 151.829334 
L 195.806288 151.829334 
L 195.806288 151.575857 
L 196.049738 151.575857 
L 196.049738 151.322379 
L 196.400548 151.322379 
L 196.400548 151.068902 
L 196.947189 151.068902 
L 196.947189 150.815424 
L 197.182231 150.815424 
L 197.182231 150.561947 
L 198.254675 150.561947 
L 198.254675 150.308469 
L 198.555287 150.308469 
L 198.555287 150.054992 
L 198.67201 150.054992 
L 198.67201 149.801514 
L 199.483213 149.801514 
L 199.483213 149.548037 
L 199.720211 149.548037 
L 199.75606 149.041082 
L 199.836921 149.041082 
L 199.836921 148.787604 
L 199.961783 148.787604 
L 200.040988 148.280649 
L 200.335264 148.280649 
L 200.392918 147.773694 
L 201.400074 147.773694 
L 201.400074 147.520216 
L 201.559893 147.520216 
L 201.559893 147.266739 
L 202.405457 147.266739 
L 202.405457 147.013261 
L 203.241854 147.013261 
L 203.241854 146.759784 
L 203.496921 146.759784 
L 203.496921 146.506306 
L 203.786694 146.506306 
L 203.786694 146.252829 
L 203.965091 146.252829 
L 203.965091 145.999351 
L 204.19222 145.999351 
L 204.226124 145.492396 
L 204.378658 145.492396 
L 204.378658 145.238918 
L 204.531265 145.238918 
L 204.531265 144.985441 
L 204.882075 144.985441 
L 204.969583 144.478486 
L 205.509666 144.478486 
L 205.5619 143.971531 
L 205.675237 143.971531 
L 205.675237 143.718053 
L 206.35523 143.718053 
L 206.35523 143.464576 
L 206.660424 143.464576 
L 206.660424 143.211098 
L 207.103846 143.211098 
L 207.191626 142.704143 
L 207.529459 142.704143 
L 207.529459 142.450666 
L 207.643735 142.450666 
L 207.643735 142.197188 
L 208.100685 142.197188 
L 208.201738 140.9298 
L 208.44331 140.9298 
L 208.481038 140.422845 
L 208.816791 140.422845 
L 208.874445 139.662413 
L 209.551614 139.662413 
L 209.551614 139.408935 
L 209.705871 139.408935 
L 209.705871 139.155458 
L 209.868909 139.155458 
L 209.881601 138.648503 
L 211.271194 138.648503 
L 211.271194 138.395025 
L 211.428843 138.395025 
L 211.428843 138.141548 
L 211.717275 138.141548 
L 211.717275 137.634592 
L 212.002742 137.634592 
L 212.002742 137.127637 
L 212.151511 137.127637 
L 212.151511 136.87416 
L 212.274407 136.87416 
L 212.300578 136.367205 
L 212.393083 136.367205 
L 212.393083 136.113727 
L 212.766563 136.113727 
L 212.860185 135.353295 
L 213.110803 135.353295 
L 213.110803 135.099817 
L 213.395152 135.099817 
L 213.460704 134.592862 
L 213.603888 134.592862 
L 213.603888 134.339385 
L 213.831373 134.339385 
L 213.844149 133.832429 
L 214.061169 133.832429 
L 214.095073 133.325474 
L 214.400215 133.325474 
L 214.400215 133.071997 
L 214.530201 133.071997 
L 214.562742 132.565042 
L 214.711893 132.565042 
L 214.751024 132.058087 
L 214.845191 132.058087 
L 214.845191 131.804609 
L 215.214836 131.804609 
L 215.281644 130.030266 
L 215.474296 130.030266 
L 215.474296 129.776789 
L 216.423808 129.776789 
L 216.423808 129.523311 
L 216.809957 129.523311 
L 216.888297 129.016356 
L 217.025073 129.016356 
L 217.025073 128.762879 
L 217.621119 128.762879 
L 217.621119 128.509401 
L 217.821491 128.509401 
L 217.821491 128.255924 
L 217.939322 128.255924 
L 217.939322 128.002446 
L 218.070688 128.002446 
L 218.148101 127.495491 
L 218.31226 127.495491 
L 218.421635 126.988536 
L 218.434306 126.988536 
L 218.434306 126.735058 
L 218.685741 126.735058 
L 218.743394 126.228103 
L 219.185968 126.228103 
L 219.185968 125.974626 
L 219.537828 125.974626 
L 219.537828 125.721148 
L 219.75055 125.721148 
L 219.75055 125.467671 
L 221.596333 125.467671 
L 221.596333 124.960716 
L 221.797633 124.960716 
L 221.797633 124.707238 
L 222.729134 124.707238 
L 222.750336 124.200283 
L 223.339762 124.200283 
L 223.371359 123.693328 
L 223.803356 123.693328 
L 223.803356 123.439851 
L 225.062907 123.439851 
L 225.062907 123.186373 
L 225.576588 123.186373 
L 225.654742 122.679418 
L 225.863479 122.679418 
L 225.863479 122.42594 
L 226.050616 122.42594 
L 226.102484 121.918985 
L 226.971484 121.918985 
L 227.066366 121.158553 
L 227.595292 121.158553 
L 227.64716 120.651598 
L 227.733887 120.651598 
L 227.733887 120.39812 
L 228.025632 120.39812 
L 228.025632 120.144643 
L 229.065026 120.144643 
L 229.065026 119.891165 
L 229.549817 119.891165 
L 229.549817 119.38421 
L 230.217652 119.38421 
L 230.217652 119.130732 
L 230.397757 119.130732 
L 230.453783 118.623777 
L 230.518848 118.623777 
L 230.518848 118.3703 
L 231.293246 118.3703 
L 231.293246 118.116822 
L 231.891277 118.116822 
L 231.908493 117.102912 
L 233.014324 117.102912 
L 233.014324 116.849435 
L 235.594489 116.849435 
L 235.594489 116.595957 
L 236.062947 116.595957 
L 236.062947 116.34248 
L 236.207307 116.34248 
L 236.207307 116.089002 
L 236.519263 116.089002 
L 236.519263 115.835524 
L 236.83273 115.835524 
L 236.83273 115.582047 
L 237.01851 115.582047 
L 237.01851 115.328569 
L 238.205967 115.328569 
L 238.205967 114.821614 
L 239.045957 114.821614 
L 239.045957 114.568137 
L 239.202717 114.568137 
L 239.202717 114.314659 
L 239.949396 114.314659 
L 239.949396 114.061182 
L 240.111631 114.061182 
L 240.111631 113.554227 
L 240.397099 113.554227 
L 240.397099 113.300749 
L 240.590634 113.300749 
L 240.590634 113.047272 
L 240.748727 113.047272 
L 240.837519 112.286839 
L 241.115402 112.286839 
L 241.115402 112.033361 
L 241.671877 112.033361 
L 241.671877 111.779884 
L 242.101622 111.779884 
L 242.101622 111.526406 
L 242.477243 111.526406 
L 242.477243 111.272929 
L 243.077687 111.272929 
L 243.077687 111.019451 
L 243.646299 111.019451 
L 243.676 109.498586 
L 244.168084 109.498586 
L 244.235658 108.991631 
L 244.287526 108.991631 
L 244.287526 108.738154 
L 244.412587 108.738154 
L 244.464455 108.231198 
L 245.581664 108.231198 
L 245.67466 107.724243 
L 245.734257 107.724243 
L 245.734257 107.470766 
L 246.090745 107.470766 
L 246.090745 107.217288 
L 246.479072 107.217288 
L 246.479072 106.963811 
L 246.711788 106.963811 
L 246.711788 106.710333 
L 246.828663 106.710333 
L 246.828663 106.456856 
L 246.954901 106.456856 
L 246.954901 105.949901 
L 247.278933 105.949901 
L 247.278933 105.696423 
L 248.023749 105.696423 
L 248.023749 105.442946 
L 248.27442 105.442946 
L 248.27442 105.189468 
L 248.500911 105.189468 
L 248.587857 104.429035 
L 248.69833 104.429035 
L 248.778854 103.92208 
L 248.948654 103.92208 
L 249.044806 103.415125 
L 249.15739 103.415125 
L 249.15739 103.161648 
L 249.99069 103.161648 
L 249.99069 102.654693 
L 250.24434 102.654693 
L 250.265395 102.147738 
L 250.495735 102.147738 
L 250.495735 101.89426 
L 251.027798 101.89426 
L 251.027798 101.640783 
L 251.287477 101.640783 
L 251.287477 101.387305 
L 251.896354 101.387305 
L 251.896354 101.133827 
L 253.143352 101.133827 
L 253.143352 100.88035 
L 253.780993 100.88035 
L 253.795333 100.373395 
L 253.931467 100.373395 
L 253.931467 100.119917 
L 254.12523 100.119917 
L 254.177098 99.612962 
L 254.423594 99.612962 
L 254.423594 99.359485 
L 254.665272 99.359485 
L 254.665272 99.106007 
L 255.460723 99.106007 
L 255.506864 98.345575 
L 255.969604 98.345575 
L 255.969604 98.092097 
L 256.158957 98.092097 
L 256.158957 97.83862 
L 256.613463 97.83862 
L 256.721265 97.078187 
L 256.80839 97.078187 
L 256.836658 96.571232 
L 257.230999 96.571232 
L 257.230999 96.317754 
L 257.407928 96.317754 
L 257.459382 95.810799 
L 257.944174 95.810799 
L 257.944174 95.303844 
L 258.262393 95.303844 
L 258.262393 95.050367 
L 258.565241 95.050367 
L 258.565241 94.796889 
L 258.883444 94.796889 
L 258.883444 94.543412 
L 259.092223 94.543412 
L 259.092223 94.289934 
L 259.356858 94.289934 
L 259.365756 93.782979 
L 260.285634 93.782979 
L 260.286665 92.515591 
L 260.463594 92.515591 
L 260.469292 92.008636 
L 261.144009 92.008636 
L 261.214107 91.501681 
L 261.628584 91.501681 
L 261.628584 91.248204 
L 261.775412 91.248204 
L 261.83732 90.741249 
L 262.53563 90.741249 
L 262.587498 90.234294 
L 262.945326 90.234294 
L 262.945326 89.980816 
L 263.321422 89.980816 
L 263.321422 89.727338 
L 263.707728 89.727338 
L 263.707728 89.473861 
L 263.919299 89.473861 
L 263.919299 89.220383 
L 264.096228 89.220383 
L 264.096228 88.966906 
L 264.315481 88.966906 
L 264.315481 88.713428 
L 264.641642 88.713428 
L 264.664114 88.206473 
L 264.841043 88.206473 
L 264.850378 87.699518 
L 265.771154 87.699518 
L 265.771154 87.446041 
L 265.958383 87.446041 
L 266.007029 86.939086 
L 266.340742 86.939086 
L 266.340742 86.685608 
L 266.600323 86.685608 
L 266.600323 85.925175 
L 266.720786 85.925175 
L 266.720786 85.671698 
L 266.833739 85.671698 
L 266.833739 85.41822 
L 267.120571 85.41822 
L 267.120571 85.164743 
L 267.461995 85.164743 
L 267.461995 84.911265 
L 268.124817 84.911265 
L 268.124817 84.657788 
L 268.727435 84.657788 
L 268.727435 84.40431 
L 268.969754 84.40431 
L 268.969754 84.150833 
L 269.143083 84.150833 
L 269.143083 83.897355 
L 269.608804 83.897355 
L 269.608804 83.643878 
L 269.728896 83.643878 
L 269.728896 83.3904 
L 270.176236 83.3904 
L 270.176236 83.136923 
L 270.521984 83.136923 
L 270.521984 82.883445 
L 270.998646 82.883445 
L 271.050513 82.37649 
L 271.46297 82.37649 
L 271.46297 82.123012 
L 271.861655 82.123012 
L 271.861655 81.869535 
L 272.036788 81.869535 
L 272.072765 81.109102 
L 272.66447 81.109102 
L 272.758069 80.602147 
L 273.32155 80.602147 
L 273.32155 80.34867 
L 273.616366 80.34867 
L 273.616366 80.095192 
L 273.808871 80.095192 
L 273.808871 79.841715 
L 274.166856 79.841715 
L 274.166856 79.588237 
L 274.481041 79.588237 
L 274.553807 78.827804 
L 274.623805 78.827804 
L 274.623805 78.574327 
L 275.049846 78.574327 
L 275.049846 78.320849 
L 275.326605 78.320849 
L 275.349258 77.560417 
L 275.457773 77.560417 
L 275.530971 77.053462 
L 276.074734 77.053462 
L 276.163002 76.546507 
L 276.297104 76.546507 
L 276.336801 76.039552 
L 276.895267 76.039552 
L 276.895267 75.025641 
L 277.041919 75.025641 
L 277.147272 74.265209 
L 277.225379 74.265209 
L 277.225379 74.011731 
L 277.452413 74.011731 
L 277.452413 73.758254 
L 277.72677 73.758254 
L 277.803223 72.997821 
L 278.385046 72.997821 
L 278.451084 72.490866 
L 278.586637 72.490866 
L 278.638696 71.983911 
L 278.842463 71.983911 
L 278.858319 71.476956 
L 279.5103 71.476956 
L 279.562168 70.970001 
L 279.694906 70.970001 
L 279.773803 70.463046 
L 279.903642 70.463046 
L 279.903642 70.209568 
L 280.141925 70.209568 
L 280.141925 69.956091 
L 281.011648 69.956091 
L 281.085863 69.195658 
L 281.122886 69.195658 
L 281.122886 68.942181 
L 281.364458 68.942181 
L 281.464142 68.435226 
L 281.533534 68.435226 
L 281.637562 67.92827 
L 281.737939 67.92827 
L 281.795593 66.91436 
L 282.219271 66.91436 
L 282.219271 66.660883 
L 282.802749 66.660883 
L 282.802749 66.407405 
L 282.964086 66.407405 
L 282.964086 66.153928 
L 283.154983 66.153928 
L 283.209957 65.140018 
L 283.836387 65.140018 
L 283.836387 64.88654 
L 283.993987 64.88654 
L 284.055052 64.379585 
L 284.14424 64.379585 
L 284.14424 64.126107 
L 284.36396 64.126107 
L 284.462443 63.619152 
L 284.671222 63.619152 
L 284.752695 63.112197 
L 284.944755 63.112197 
L 284.953386 62.605242 
L 285.781333 62.605242 
L 285.781333 62.351765 
L 286.675714 62.351765 
L 286.743798 61.84481 
L 286.795666 61.84481 
L 286.88445 61.084377 
L 287.049652 61.084377 
L 287.13398 60.323944 
L 287.525987 60.323944 
L 287.525987 59.816989 
L 287.765753 59.816989 
L 287.765753 59.563512 
L 287.992456 59.563512 
L 287.992456 59.310034 
L 288.67999 59.310034 
L 288.754858 57.282214 
L 288.812668 57.282214 
L 288.812668 57.028736 
L 289.14816 57.028736 
L 289.14816 56.775259 
L 289.269416 56.775259 
L 289.269416 56.521781 
L 289.575965 56.521781 
L 289.575965 56.268304 
L 289.89448 56.268304 
L 289.905309 55.761349 
L 290.103111 55.761349 
L 290.103111 55.507871 
L 290.269302 55.507871 
L 290.32117 55.000916 
L 290.67865 55.000916 
L 290.722111 54.240484 
L 291.427102 54.240484 
L 291.427102 53.987006 
L 291.586028 53.987006 
L 291.586028 53.733529 
L 291.958891 53.733529 
L 291.958891 53.480051 
L 292.355208 53.480051 
L 292.355208 53.226573 
L 292.505641 53.226573 
L 292.505641 52.973096 
L 292.918367 52.973096 
L 292.918367 52.719618 
L 293.504901 52.719618 
L 293.504901 52.466141 
L 293.777777 52.466141 
L 293.815895 51.959186 
L 294.548753 51.959186 
L 294.548753 51.705708 
L 294.887698 51.705708 
L 294.99468 51.198753 
L 295.096434 51.198753 
L 295.096434 50.945276 
L 295.561307 50.945276 
L 295.561307 50.691798 
L 296.20444 50.691798 
L 296.20444 50.438321 
L 296.517407 50.438321 
L 296.517407 50.184843 
L 296.900344 50.184843 
L 296.966842 49.42441 
L 297.041969 49.42441 
L 297.083918 48.917455 
L 297.409216 48.917455 
L 297.410411 48.4105 
L 297.617952 48.4105 
L 297.617952 48.157023 
L 298.049055 48.157023 
L 298.155226 47.650068 
L 298.208247 47.650068 
L 298.208247 47.39659 
L 298.643773 47.39659 
L 298.725957 46.889635 
L 299.193941 46.889635 
L 299.193941 46.636158 
L 299.48836 46.636158 
L 299.48836 46.38268 
L 299.73914 46.38268 
L 299.73914 46.129202 
L 299.938756 46.129202 
L 299.938756 45.875725 
L 300.188459 45.875725 
L 300.188459 45.622247 
L 300.397195 45.622247 
L 300.397195 45.36877 
L 300.943469 45.36877 
L 300.995337 44.861815 
L 301.505201 44.861815 
L 301.505201 44.608337 
L 302.010722 44.608337 
L 302.010722 44.35486 
L 302.267603 44.35486 
L 302.267603 44.101382 
L 302.794805 44.101382 
L 302.819018 43.594427 
L 303.245788 43.594427 
L 303.264643 43.087472 
L 303.498214 43.087472 
L 303.498214 42.833995 
L 304.369037 42.833995 
L 304.369037 42.580517 
L 305.189055 42.580517 
L 305.295902 41.566607 
L 306.320309 41.566607 
L 306.427439 41.059652 
L 306.495825 41.059652 
L 306.495825 40.806174 
L 306.981801 40.806174 
L 306.981801 40.552697 
L 307.172255 40.552697 
L 307.172255 40.299219 
L 307.81742 40.299219 
L 307.81742 40.045742 
L 307.971631 40.045742 
L 307.971631 39.792264 
L 308.325412 39.792264 
L 308.325412 39.538787 
L 308.766701 39.538787 
L 308.766701 39.285309 
L 309.508883 39.285309 
L 309.508883 39.031832 
L 309.799825 39.031832 
L 309.799825 38.778354 
L 309.952943 38.778354 
L 309.952943 38.524876 
L 310.596664 38.524876 
L 310.697758 38.017921 
L 311.604313 38.017921 
L 311.710198 37.257489 
L 312.641442 37.257489 
L 312.641442 37.004011 
L 313.401039 37.004011 
L 313.509978 35.990101 
L 313.938811 35.990101 
L 313.938811 35.736624 
L 314.231716 35.736624 
L 314.231716 35.483146 
L 314.952439 35.483146 
L 314.952439 35.229669 
L 315.920343 35.229669 
L 315.922557 34.469236 
L 316.599952 34.469236 
L 316.599952 34.215758 
L 316.808688 34.215758 
L 316.808688 33.962281 
L 316.994476 33.962281 
L 317.074346 32.441416 
L 317.916694 32.441416 
L 318.011809 31.934461 
L 318.679096 31.934461 
L 318.7018 31.427505 
L 320.533327 31.427505 
L 320.62711 30.92055 
L 321.371926 30.92055 
L 321.371926 30.667073 
L 321.899257 30.667073 
L 321.899257 30.413595 
L 322.015799 30.413595 
L 322.015799 30.160118 
L 323.164423 30.160118 
L 323.164423 29.90664 
L 323.312571 29.90664 
L 323.389036 28.639253 
L 324.562147 28.639253 
L 324.562147 28.385775 
L 325.2947 28.385775 
L 325.2947 27.87882 
L 325.685941 27.87882 
L 325.685941 27.625342 
L 327.008156 27.625342 
L 327.008156 27.371865 
L 327.705066 27.371865 
L 327.705066 27.118387 
L 328.213947 27.118387 
L 328.213947 26.86491 
L 328.465184 26.86491 
L 328.465184 26.611432 
L 331.34252 26.611432 
L 331.34252 25.851 
L 331.542955 25.851 
L 331.542955 25.597522 
L 332.22987 25.597522 
L 332.22987 25.344045 
L 332.529977 25.344045 
L 332.529977 25.090567 
L 333.422452 25.090567 
L 333.422452 24.83709 
L 335.113293 24.83709 
L 335.113293 24.583612 
L 337.079423 24.583612 
L 337.079423 24.330135 
L 339.724063 24.330135 
L 339.754939 23.823179 
L 339.99867 23.823179 
L 339.99867 23.062747 
L 341.904334 23.062747 
L 341.904334 22.809269 
L 342.276457 22.809269 
L 342.276457 22.555792 
L 344.489461 22.555792 
L 344.489461 22.302314 
L 344.876677 22.302314 
L 344.876677 22.048837 
L 345.0557 22.048837 
L 345.0557 21.795359 
L 348.747604 21.795359 
L 348.747604 21.034927 
L 350.293614 21.034927 
L 350.293614 20.274494 
L 361.467193 20.274494 
L 361.467193 20.021016 
L 367.783372 20.021016 
L 367.783372 19.767539 
L 378.68797 19.767539 
L 378.68797 19.007106 
L 380.463302 19.007106 
L 380.463302 18.753629 
L 383.47636 18.753629 
L 383.47636 18.500151 
L 385.00266 18.500151 
L 385.00266 17.739719 
L 389.31869 17.739719 
L 389.31869 16.979286 
L 398.529625 16.979286 
L 398.529625 16.725808 
L 398.693047 16.725808 
L 398.693047 15.965376 
L 405.510433 15.965376 
L 405.510433 15.711898 
L 413.722416 15.711898 
L 413.722416 15.458421 
L 416.243934 15.458421 
L 416.243934 15.204943 
L 419.023178 15.204943 
L 419.023178 14.951466 
L 435.43467 14.951466 
L 435.43467 14.697988 
L 453.192 14.697988 
L 453.192 14.697988 
" clip-path="url(#p877642c175)" style="fill: none; stroke: #000000; stroke-width: 3; stroke-linecap: square"/>
   </g>
   <g id="line2d_51">
    <path clip-path="url(#p877642c175)" style="fill: none; stroke: #000000; stroke-width: 3; stroke-linecap: square"/>
   </g>
   <g id="line2d_52">
    <path d="M 34.16 132.720232 
L 104.259402 132.720232 
L 104.259402 132.335705 
L 104.984087 132.335705 
L 104.984087 131.951178 
L 105.896983 131.951178 
L 105.956394 131.182124 
L 106.621668 131.182124 
L 106.681079 130.413069 
L 107.2849 130.413069 
L 107.357023 129.644015 
L 108.081708 129.644015 
L 108.081708 129.259488 
L 108.217274 129.259488 
L 108.217274 128.874961 
L 108.806371 128.874961 
L 108.806371 128.490434 
L 108.922481 128.490434 
L 108.981893 127.721379 
L 109.854855 127.721379 
L 109.914267 126.952325 
L 110.382522 126.952325 
L 110.443952 126.183271 
L 110.503364 126.183271 
L 110.503364 125.798743 
L 111.314895 125.798743 
L 111.314895 125.414216 
L 111.903993 125.414216 
L 111.903993 125.029689 
L 114.838775 125.029689 
L 114.838775 124.645162 
L 115.192033 124.645162 
L 115.192033 124.260635 
L 116.476356 124.260635 
L 116.535767 123.491581 
L 116.829615 123.491581 
L 116.889026 122.337999 
L 117.290262 122.337999 
L 117.290262 121.953472 
L 117.483089 121.953472 
L 117.483089 121.568945 
L 117.936396 121.568945 
L 118.009455 120.799891 
L 118.289655 120.799891 
L 118.289655 120.415363 
L 118.480478 120.415363 
L 118.53989 119.646309 
L 118.927843 119.646309 
L 118.987255 118.877255 
L 119.12067 118.877255 
L 119.180082 118.108201 
L 119.37062 118.108201 
L 119.37062 117.723673 
L 119.647036 117.723673 
L 119.706447 116.954619 
L 119.940519 116.954619 
L 119.940519 116.570092 
L 120.387883 116.570092 
L 120.387883 116.185565 
L 120.580711 116.185565 
L 120.580711 115.801038 
L 121.008201 115.801038 
L 121.107076 114.647456 
L 122.40618 114.647456 
L 122.468242 113.878402 
L 122.763447 113.878402 
L 122.763447 113.493875 
L 123.488132 113.493875 
L 123.488132 113.109348 
L 124.043761 113.109348 
L 124.103173 112.340293 
L 125.503801 112.340293 
L 125.515017 111.571239 
L 125.788946 111.571239 
L 125.788946 111.186712 
L 126.558708 111.186712 
L 126.558708 110.802185 
L 126.72132 110.802185 
L 126.72132 110.417658 
L 127.152598 110.417658 
L 127.21201 109.648603 
L 127.310417 109.648603 
L 127.310417 109.264076 
L 128.196289 109.264076 
L 128.2557 108.495022 
L 128.351477 108.495022 
L 128.351477 108.110495 
L 128.612638 108.110495 
L 128.612638 107.725968 
L 129.076162 107.725968 
L 129.076162 107.341441 
L 129.656329 107.341441 
L 129.656329 106.956913 
L 131.376975 106.956913 
L 131.376975 106.572386 
L 132.309349 106.572386 
L 132.309349 106.187859 
L 132.560833 106.187859 
L 132.560833 105.803332 
L 132.898446 105.803332 
L 132.898446 105.418805 
L 133.285518 105.418805 
L 133.34282 104.649751 
L 133.696079 104.649751 
L 133.696079 104.265223 
L 134.022915 104.265223 
L 134.022915 103.880696 
L 134.7476 103.880696 
L 134.764238 103.111642 
L 135.346943 103.111642 
L 135.346943 102.727115 
L 135.488923 102.727115 
L 135.586332 101.958061 
L 135.794307 101.958061 
L 135.794307 101.573533 
L 135.987135 101.573533 
L 135.987135 101.189006 
L 136.5135 101.189006 
L 136.518705 100.419952 
L 136.771293 100.419952 
L 136.771293 100.035425 
L 137.048413 100.035425 
L 137.107803 99.266371 
L 137.495977 99.266371 
L 137.495977 98.881843 
L 137.739109 98.881843 
L 137.789736 98.112789 
L 137.874666 98.112789 
L 137.980787 97.343735 
L 138.463794 97.343735 
L 138.569884 96.574681 
L 138.72211 96.574681 
L 138.72211 96.190153 
L 138.93085 96.190153 
L 138.93085 95.805626 
L 139.284109 95.805626 
L 139.311207 95.036572 
L 139.796791 95.036572 
L 139.796791 94.652045 
L 140.076014 94.652045 
L 140.076014 94.267518 
L 140.729165 94.267518 
L 140.800699 93.113936 
L 140.910226 93.113936 
L 140.934972 92.344882 
L 141.318262 92.344882 
L 141.382337 91.575828 
L 141.575164 91.575828 
L 141.575164 91.191301 
L 141.696982 91.191301 
L 141.696982 90.806773 
L 142.10153 90.806773 
L 142.10153 90.422246 
L 142.286079 90.422246 
L 142.286079 90.037719 
L 142.627736 90.037719 
L 142.627736 89.653192 
L 143.101513 89.653192 
L 143.140206 88.884138 
L 143.352421 88.884138 
L 143.462696 88.115083 
L 143.493465 88.115083 
L 143.493465 87.730556 
L 144.019062 87.730556 
L 144.033887 86.961502 
L 144.151282 86.961502 
L 144.151282 86.576975 
L 144.602288 86.576975 
L 144.622984 85.807921 
L 144.875967 85.807921 
L 144.955546 85.038866 
L 145.062753 85.038866 
L 145.144329 84.269812 
L 145.343611 84.269812 
L 145.343611 83.885285 
L 145.591693 83.885285 
L 145.69687 82.731703 
L 145.78452 82.731703 
L 145.822596 81.962649 
L 146.310886 81.962649 
L 146.310886 81.578122 
L 146.498255 81.578122 
L 146.60641 80.040013 
L 147.053775 80.040013 
L 147.053775 79.655486 
L 147.174705 79.655486 
L 147.246602 78.501905 
L 147.347733 78.501905 
L 147.350666 77.73285 
L 147.672052 77.73285 
L 147.772968 76.579269 
L 147.795098 76.579269 
L 147.795098 76.194742 
L 147.987925 76.194742 
L 147.987925 75.810215 
L 148.109155 75.810215 
L 148.109155 75.425688 
L 148.318482 75.425688 
L 148.318482 75.04116 
L 148.514291 75.04116 
L 148.514291 74.656633 
L 148.671741 74.656633 
L 148.698252 73.887579 
L 148.848095 73.887579 
L 148.848095 73.503052 
L 149.134133 73.503052 
L 149.134133 73.118525 
L 149.354788 73.118525 
L 149.354788 72.733998 
L 149.607092 72.733998 
L 149.607092 72.34947 
L 149.780468 72.34947 
L 149.875457 71.195889 
L 149.99498 71.195889 
L 149.99498 70.811362 
L 150.322605 70.811362 
L 150.369566 70.042308 
L 150.521346 70.042308 
L 150.521346 69.65778 
L 150.650783 69.65778 
L 150.707611 68.504199 
L 150.76997 68.504199 
L 150.76997 68.119672 
L 150.962797 68.119672 
L 151.008646 67.350618 
L 151.489162 67.350618 
L 151.489162 66.96609 
L 151.882511 66.96609 
L 151.882511 66.581563 
L 152.169693 66.581563 
L 152.169693 66.197036 
L 152.65951 66.197036 
L 152.65951 65.812509 
L 152.850328 65.812509 
L 152.911016 65.043455 
L 153.106875 65.043455 
L 153.207109 64.2744 
L 153.299702 64.2744 
L 153.299702 63.889873 
L 153.560368 63.889873 
L 153.560368 63.505346 
L 153.816448 63.505346 
L 153.826067 62.736292 
L 154.730655 62.736292 
L 154.730655 62.351765 
L 154.860139 62.351765 
L 154.918071 61.58271 
L 155.083914 61.58271 
L 155.187233 60.813656 
L 155.211231 60.813656 
L 155.27853 60.044602 
L 155.658596 60.044602 
L 155.658596 59.660075 
L 155.851423 59.660075 
L 155.885888 58.89102 
L 156.019853 58.89102 
L 156.019853 58.506493 
L 156.322221 58.506493 
L 156.401969 57.352912 
L 156.734778 57.352912 
L 156.755228 56.583858 
L 157.063544 56.583858 
L 157.063544 56.19933 
L 157.182142 56.19933 
L 157.182142 55.814803 
L 157.37497 55.814803 
L 157.37497 55.430276 
L 157.738955 55.430276 
L 157.738955 55.045749 
L 157.901335 55.045749 
L 157.901335 54.661222 
L 158.026908 54.661222 
L 158.026908 54.276695 
L 158.222793 54.276695 
L 158.222793 53.892168 
L 158.406092 53.892168 
L 158.406092 53.50764 
L 158.853456 53.50764 
L 158.853456 53.123113 
L 158.994725 53.123113 
L 159.070598 51.969532 
L 159.262501 51.969532 
L 159.262501 51.585005 
L 159.572649 51.585005 
L 159.572649 51.200478 
L 160.038415 51.200478 
L 160.038415 50.81595 
L 160.774514 50.81595 
L 160.774514 50.431423 
L 160.933815 50.431423 
L 160.933815 50.046896 
L 161.33163 50.046896 
L 161.33163 49.662369 
L 161.79648 49.662369 
L 161.79648 49.277842 
L 162.298061 49.277842 
L 162.37532 48.508788 
L 162.968367 48.508788 
L 162.968367 48.12426 
L 163.168196 48.12426 
L 163.168196 47.739733 
L 163.723145 47.739733 
L 163.723145 47.355206 
L 163.883351 47.355206 
L 163.969374 46.586152 
L 164.895031 46.586152 
L 164.927042 45.817098 
L 165.094861 45.817098 
L 165.094861 45.43257 
L 165.406897 45.43257 
L 165.406897 45.048043 
L 166.450588 45.048043 
L 166.450588 44.663516 
L 167.078211 44.663516 
L 167.078211 44.278989 
L 168.121902 44.278989 
L 168.121902 43.894462 
L 170.332568 43.894462 
L 170.332568 43.509935 
L 172.259232 43.509935 
L 172.259232 43.125407 
L 176.046264 43.125407 
L 176.046264 42.74088 
L 177.377549 42.74088 
L 177.377549 42.356353 
L 177.972929 42.356353 
L 177.972929 41.971826 
L 194.35611 41.971826 
L 194.35611 41.587299 
L 195.527997 41.587299 
L 195.527997 41.202772 
L 195.727826 41.202772 
L 195.727826 40.818245 
L 202.892198 40.818245 
L 202.892198 40.433717 
L 208.100525 40.433717 
L 208.100525 40.04919 
L 208.605895 40.04919 
L 208.605895 39.664663 
L 209.272411 39.664663 
L 209.272411 39.280136 
L 209.472241 39.280136 
L 209.472241 38.895609 
L 211.629981 38.895609 
L 211.629981 38.511082 
L 212.801867 38.511082 
L 212.801867 38.126555 
L 213.001697 38.126555 
L 213.001697 37.742027 
L 216.636612 37.742027 
L 216.636612 37.3575 
L 220.166068 37.3575 
L 220.166068 36.972973 
L 222.350309 36.972973 
L 222.350309 36.588446 
L 225.879765 36.588446 
L 225.879765 36.203919 
L 231.318422 36.203919 
L 231.318422 35.819392 
L 231.802234 35.819392 
L 231.802234 35.434865 
L 234.976175 35.434865 
L 234.976175 35.050337 
L 238.128705 35.050337 
L 238.128705 34.66581 
L 245.446712 34.66581 
L 245.446712 34.281283 
L 245.632363 34.281283 
L 245.632363 33.896756 
L 246.389986 33.896756 
L 246.389986 33.512229 
L 247.03169 33.512229 
L 247.03169 33.127702 
L 251.891042 33.127702 
L 251.891042 32.743175 
L 254.641549 32.743175 
L 254.641549 32.358647 
L 255.590528 32.358647 
L 255.590528 31.97412 
L 255.914434 31.97412 
L 255.914434 31.589593 
L 257.801972 31.589593 
L 257.801972 31.205066 
L 261.030261 31.205066 
L 261.030261 30.820539 
L 264.267004 30.820539 
L 264.267004 30.436012 
L 272.151302 30.436012 
L 272.205215 29.666957 
L 274.550714 29.666957 
L 274.550714 29.28243 
L 287.690235 29.28243 
L 287.690235 28.897903 
L 453.192 28.897903 
L 453.192 28.897903 
" clip-path="url(#p877642c175)" style="fill: none; stroke: #00bfbf; stroke-width: 3; stroke-linecap: square"/>
   </g>
   <g id="line2d_53">
    <path clip-path="url(#p877642c175)" style="fill: none; stroke: #00bfbf; stroke-width: 3; stroke-linecap: square"/>
   </g>
   <g id="line2d_54">
    <path d="M 34.16 76.483137 
L 147.722781 76.483137 
L 147.722781 75.810215 
L 164.144052 75.810215 
L 164.144052 75.137292 
L 165.503599 75.137292 
L 165.503599 74.46437 
L 172.163075 74.46437 
L 172.163075 73.791447 
L 173.210695 73.791447 
L 173.210695 73.118525 
L 176.276108 73.118525 
L 176.276108 72.445602 
L 176.550601 72.445602 
L 176.550601 71.77268 
L 176.845711 71.77268 
L 176.902356 70.426835 
L 177.762401 70.426835 
L 177.762401 69.753912 
L 177.923178 69.753912 
L 177.923178 69.08099 
L 178.038617 69.08099 
L 178.038617 68.408067 
L 180.82099 68.408067 
L 180.82099 67.735145 
L 182.885252 67.735145 
L 182.885252 67.062222 
L 185.550587 67.062222 
L 185.550587 66.3893 
L 198.108506 66.3893 
L 198.108506 65.716377 
L 205.128862 65.716377 
L 205.128862 65.043455 
L 205.275958 65.043455 
L 205.275958 64.370532 
L 209.028824 64.370532 
L 209.028824 63.69761 
L 214.529777 63.69761 
L 214.529777 63.024687 
L 215.889325 63.024687 
L 215.889325 62.351765 
L 217.164703 62.351765 
L 217.164703 61.678842 
L 217.71081 61.678842 
L 217.71081 61.00592 
L 221.550133 61.00592 
L 221.550133 60.332997 
L 221.697229 60.332997 
L 221.697229 59.660075 
L 222.548801 59.660075 
L 222.548801 58.987152 
L 222.909681 58.987152 
L 222.909681 58.31423 
L 223.056777 58.31423 
L 223.056777 57.641307 
L 223.596421 57.641307 
L 223.596421 56.968385 
L 225.450095 56.968385 
L 225.450095 56.295462 
L 226.661834 56.295462 
L 226.661834 55.62254 
L 226.809642 55.62254 
L 226.809642 54.949617 
L 226.936327 54.949617 
L 226.936327 54.276695 
L 227.231437 54.276695 
L 227.288082 52.93085 
L 228.148127 52.93085 
L 228.148127 52.257927 
L 228.308904 52.257927 
L 228.308904 51.585005 
L 228.424343 51.585005 
L 228.424343 50.912082 
L 229.569157 50.912082 
L 229.569157 50.23916 
L 229.716253 50.23916 
L 229.716253 49.566237 
L 230.616776 49.566237 
L 230.616776 48.893315 
L 230.763873 48.893315 
L 230.763873 48.220392 
L 231.206716 48.220392 
L 231.206716 47.54747 
L 233.270978 47.54747 
L 233.270978 46.874547 
L 233.469118 46.874547 
L 233.469118 46.201625 
L 233.585974 46.201625 
L 233.68219 44.85578 
L 233.829286 44.85578 
L 233.829286 44.182857 
L 233.956683 44.182857 
L 233.956683 43.509935 
L 234.103779 43.509935 
L 234.132081 42.16409 
L 234.251793 42.16409 
L 234.308438 40.818245 
L 234.398889 40.818245 
L 234.455534 39.4724 
L 234.516738 39.4724 
L 234.516738 38.799477 
L 234.945522 38.799477 
L 234.945522 38.126555 
L 235.168483 38.126555 
L 235.168483 37.453632 
L 235.315579 37.453632 
L 235.32926 36.107787 
L 235.444699 36.107787 
L 235.491629 34.08902 
L 235.591795 34.08902 
L 235.591795 33.416097 
L 235.936313 33.416097 
L 235.936313 32.743175 
L 237.582151 32.743175 
L 237.582151 32.070252 
L 237.856644 32.070252 
L 237.856644 31.39733 
L 238.151754 31.39733 
L 238.227072 29.378562 
L 238.374168 29.378562 
L 238.374168 28.70564 
L 239.068444 28.70564 
L 239.068444 28.032717 
L 239.229221 28.032717 
L 239.229221 27.359795 
L 239.34466 27.359795 
L 239.34466 26.686872 
L 240.291334 26.686872 
L 240.291334 26.01395 
L 240.43843 26.01395 
L 240.43843 25.341027 
L 241.604998 25.341027 
L 241.604998 24.668105 
L 242.127033 24.668105 
L 242.151105 23.32226 
L 242.652617 23.32226 
L 242.652617 22.649337 
L 242.956669 22.649337 
L 242.956669 21.976415 
L 243.103765 21.976415 
L 243.198725 20.63057 
L 244.191295 20.63057 
L 244.191295 19.957647 
L 245.718031 19.957647 
L 245.718031 19.284725 
L 245.992524 19.284725 
L 245.992524 18.611802 
L 246.264138 18.611802 
L 246.344279 16.593035 
L 246.538631 16.593035 
L 246.538631 15.920112 
L 246.833741 15.920112 
L 246.890386 13.901345 
L 247.204324 13.901345 
L 247.204324 13.228422 
L 247.365101 13.228422 
L 247.365101 12.5555 
L 247.48054 12.5555 
L 247.48054 11.882577 
L 247.750431 11.882577 
L 247.750431 11.209655 
L 247.911208 11.209655 
L 247.911208 10.536732 
L 248.026647 10.536732 
L 248.026647 9.86381 
L 250.262913 9.86381 
L 250.262913 9.190887 
L 250.80902 9.190887 
L 250.80902 8.517965 
L 252.327175 8.517965 
L 252.327175 7.845042 
L 252.873282 7.845042 
L 252.873282 7.17212 
L 254.99251 7.17212 
L 254.99251 6.499197 
L 255.538617 6.499197 
L 255.538617 5.826275 
L 453.192 5.826275 
L 453.192 5.826275 
" clip-path="url(#p877642c175)" style="fill: none; stroke: #bf00bf; stroke-width: 3; stroke-linecap: square"/>
   </g>
   <g id="line2d_55">
    <path clip-path="url(#p877642c175)" style="fill: none; stroke: #bf00bf; stroke-width: 3; stroke-linecap: square"/>
   </g>
   <g id="line2d_56">
    <path d="M 36.677735 5.826275 
L 34.16 5.826275 
L 453.192 5.826275 
L 461.8 5.826275 
" clip-path="url(#p877642c175)" style="fill: none; stroke: #ff0000; stroke-width: 3; stroke-linecap: square"/>
   </g>
   <g id="line2d_57">
    <path d="M 243.676 291.28 
L 243.676 3 
" clip-path="url(#p877642c175)" style="fill: none; stroke: #000000; stroke-width: 1.5; stroke-linecap: square"/>
   </g>
   <g id="line2d_58">
    <path d="M 34.16 147.14 
L 453.192 147.14 
" clip-path="url(#p877642c175)" style="fill: none; stroke-dasharray: 2,3.3; stroke-dashoffset: 0; stroke: #000000; stroke-width: 2"/>
   </g>
   <g id="patch_3">
    <path d="M 34.16 291.28 
L 34.16 3 
" style="fill: none; stroke: #000000; stroke-width: 0.8; stroke-linejoin: miter; stroke-linecap: square"/>
   </g>
   <g id="patch_4">
    <path d="M 453.192 291.28 
L 453.192 3 
" style="fill: none; stroke: #000000; stroke-width: 0.8; stroke-linejoin: miter; stroke-linecap: square"/>
   </g>
   <g id="patch_5">
    <path d="M 34.16 291.28 
L 453.192 291.28 
" style="fill: none; stroke: #000000; stroke-width: 0.8; stroke-linejoin: miter; stroke-linecap: square"/>
   </g>
   <g id="patch_6">
    <path d="M 34.16 3 
L 453.192 3 
" style="fill: none; stroke: #000000; stroke-width: 0.8; stroke-linejoin: miter; stroke-linecap: square"/>
   </g>
   <g id="text_5">
    <!-- f10-f14,5-D -->
    <g transform="translate(330.91761 285.5144)scale(0.2 -0.2)">
     <defs>
      <path id="DejaVuSans-34" d="M 2419 4116 
L 825 1625 
L 2419 1625 
L 2419 4116 
z
M 2253 4666 
L 3047 4666 
L 3047 1625 
L 3713 1625 
L 3713 1100 
L 3047 1100 
L 3047 0 
L 2419 0 
L 2419 1100 
L 313 1100 
L 313 1709 
L 2253 4666 
z
" transform="scale(0.015625)"/>
      <path id="DejaVuSans-2c" d="M 750 794 
L 1409 794 
L 1409 256 
L 897 -744 
L 494 -744 
L 750 256 
L 750 794 
z
" transform="scale(0.015625)"/>
      <path id="DejaVuSans-35" d="M 691 4666 
L 3169 4666 
L 3169 4134 
L 1269 4134 
L 1269 2991 
Q 1406 3038 1543 3061 
Q 1681 3084 1819 3084 
Q 2600 3084 3056 2656 
Q 3513 2228 3513 1497 
Q 3513 744 3044 326 
Q 2575 -91 1722 -91 
Q 1428 -91 1123 -41 
Q 819 9 494 109 
L 494 744 
Q 775 591 1075 516 
Q 1375 441 1709 441 
Q 2250 441 2565 725 
Q 2881 1009 2881 1497 
Q 2881 1984 2565 2268 
Q 2250 2553 1709 2553 
Q 1456 2553 1204 2497 
Q 953 2441 691 2322 
L 691 4666 
z
" transform="scale(0.015625)"/>
      <path id="DejaVuSans-44" d="M 1259 4147 
L 1259 519 
L 2022 519 
Q 2988 519 3436 956 
Q 3884 1394 3884 2338 
Q 3884 3275 3436 3711 
Q 2988 4147 2022 4147 
L 1259 4147 
z
M 628 4666 
L 1925 4666 
Q 3281 4666 3915 4102 
Q 4550 3538 4550 2338 
Q 4550 1131 3912 565 
Q 3275 0 1925 0 
L 628 0 
L 628 4666 
z
" transform="scale(0.015625)"/>
     </defs>
     <use xlink:href="#DejaVuSans-66"/>
     <use xlink:href="#DejaVuSans-31" x="35.205078"/>
     <use xlink:href="#DejaVuSans-30" x="98.828125"/>
     <use xlink:href="#DejaVuSans-2d" x="162.451172"/>
     <use xlink:href="#DejaVuSans-66" x="198.535156"/>
     <use xlink:href="#DejaVuSans-31" x="233.740234"/>
     <use xlink:href="#DejaVuSans-34" x="297.363281"/>
     <use xlink:href="#DejaVuSans-2c" x="360.986328"/>
     <use xlink:href="#DejaVuSans-35" x="392.773438"/>
     <use xlink:href="#DejaVuSans-2d" x="456.396484"/>
     <use xlink:href="#DejaVuSans-44" x="492.480469"/>
    </g>
   </g>
   <g id="text_6">
    <!-- v2.6 -->
    <g style="fill: #808080" transform="translate(232.765062 286.317512)scale(0.1 -0.1)">
     <defs>
      <path id="DejaVuSans-32" d="M 1228 531 
L 3431 531 
L 3431 0 
L 469 0 
L 469 531 
Q 828 903 1448 1529 
Q 2069 2156 2228 2338 
Q 2531 2678 2651 2914 
Q 2772 3150 2772 3378 
Q 2772 3750 2511 3984 
Q 2250 4219 1831 4219 
Q 1534 4219 1204 4116 
Q 875 4013 500 3803 
L 500 4441 
Q 881 4594 1212 4672 
Q 1544 4750 1819 4750 
Q 2544 4750 2975 4387 
Q 3406 4025 3406 3419 
Q 3406 3131 3298 2873 
Q 3191 2616 2906 2266 
Q 2828 2175 2409 1742 
Q 1991 1309 1228 531 
z
" transform="scale(0.015625)"/>
      <path id="DejaVuSans-2e" d="M 684 794 
L 1344 794 
L 1344 0 
L 684 0 
L 684 794 
z
" transform="scale(0.015625)"/>
      <path id="DejaVuSans-36" d="M 2113 2584 
Q 1688 2584 1439 2293 
Q 1191 2003 1191 1497 
Q 1191 994 1439 701 
Q 1688 409 2113 409 
Q 2538 409 2786 701 
Q 3034 994 3034 1497 
Q 3034 2003 2786 2293 
Q 2538 2584 2113 2584 
z
M 3366 4563 
L 3366 3988 
Q 3128 4100 2886 4159 
Q 2644 4219 2406 4219 
Q 1781 4219 1451 3797 
Q 1122 3375 1075 2522 
Q 1259 2794 1537 2939 
Q 1816 3084 2150 3084 
Q 2853 3084 3261 2657 
Q 3669 2231 3669 1497 
Q 3669 778 3244 343 
Q 2819 -91 2113 -91 
Q 1303 -91 875 529 
Q 447 1150 447 2328 
Q 447 3434 972 4092 
Q 1497 4750 2381 4750 
Q 2619 4750 2861 4703 
Q 3103 4656 3366 4563 
z
" transform="scale(0.015625)"/>
     </defs>
     <use xlink:href="#DejaVuSans-76"/>
     <use xlink:href="#DejaVuSans-32" x="59.179688"/>
     <use xlink:href="#DejaVuSans-2e" x="122.802734"/>
     <use xlink:href="#DejaVuSans-36" x="154.589844"/>
    </g>
   </g>
   <g id="legend_1">
    <g id="patch_7">
     <path d="M 309.970125 281.28 
L 439.192 281.28 
Q 443.192 281.28 443.192 277.28 
L 443.192 161.855 
Q 443.192 157.855 439.192 157.855 
L 309.970125 157.855 
Q 305.970125 157.855 305.970125 161.855 
L 305.970125 277.28 
Q 305.970125 281.28 309.970125 281.28 
z
" style="fill: #ffffff; opacity: 0.2; stroke: #cccccc; stroke-linejoin: miter"/>
    </g>
    <g id="line2d_59">
     <path d="M 313.970125 174.051875 
L 333.970125 174.051875 
L 353.970125 174.051875 
" style="fill: none; stroke: #000000; stroke-width: 3; stroke-linecap: square"/>
    </g>
    <g id="text_7">
     <!-- 1: 5/5 -->
     <g transform="translate(369.970125 181.051875)scale(0.2 -0.2)">
      <defs>
       <path id="DejaVuSans-3a" d="M 750 794 
L 1409 794 
L 1409 0 
L 750 0 
L 750 794 
z
M 750 3309 
L 1409 3309 
L 1409 2516 
L 750 2516 
L 750 3309 
z
" transform="scale(0.015625)"/>
       <path id="DejaVuSans-2f" d="M 1625 4666 
L 2156 4666 
L 531 -594 
L 0 -594 
L 1625 4666 
z
" transform="scale(0.015625)"/>
      </defs>
      <use xlink:href="#DejaVuSans-31"/>
      <use xlink:href="#DejaVuSans-3a" x="63.623047"/>
      <use xlink:href="#DejaVuSans-20" x="97.314453"/>
      <use xlink:href="#DejaVuSans-35" x="129.101562"/>
      <use xlink:href="#DejaVuSans-2f" x="192.724609"/>
      <use xlink:href="#DejaVuSans-35" x="226.416016"/>
     </g>
    </g>
    <g id="line2d_60">
     <path d="M 313.970125 203.408125 
L 333.970125 203.408125 
L 353.970125 203.408125 
" style="fill: none; stroke: #00bfbf; stroke-width: 3; stroke-linecap: square"/>
    </g>
    <g id="text_8">
     <!-- -1: 5/4 -->
     <g transform="translate(369.970125 210.408125)scale(0.2 -0.2)">
      <use xlink:href="#DejaVuSans-2d"/>
      <use xlink:href="#DejaVuSans-31" x="36.083984"/>
      <use xlink:href="#DejaVuSans-3a" x="99.707031"/>
      <use xlink:href="#DejaVuSans-20" x="133.398438"/>
      <use xlink:href="#DejaVuSans-35" x="165.185547"/>
      <use xlink:href="#DejaVuSans-2f" x="228.808594"/>
      <use xlink:href="#DejaVuSans-34" x="262.5"/>
     </g>
    </g>
    <g id="line2d_61">
     <path d="M 313.970125 232.764375 
L 333.970125 232.764375 
L 353.970125 232.764375 
" style="fill: none; stroke: #bf00bf; stroke-width: 3; stroke-linecap: square"/>
    </g>
    <g id="text_9">
     <!-- -4: 3/1 -->
     <g transform="translate(369.970125 239.764375)scale(0.2 -0.2)">
      <defs>
       <path id="DejaVuSans-33" d="M 2597 2516 
Q 3050 2419 3304 2112 
Q 3559 1806 3559 1356 
Q 3559 666 3084 287 
Q 2609 -91 1734 -91 
Q 1441 -91 1130 -33 
Q 819 25 488 141 
L 488 750 
Q 750 597 1062 519 
Q 1375 441 1716 441 
Q 2309 441 2620 675 
Q 2931 909 2931 1356 
Q 2931 1769 2642 2001 
Q 2353 2234 1838 2234 
L 1294 2234 
L 1294 2753 
L 1863 2753 
Q 2328 2753 2575 2939 
Q 2822 3125 2822 3475 
Q 2822 3834 2567 4026 
Q 2313 4219 1838 4219 
Q 1578 4219 1281 4162 
Q 984 4106 628 3988 
L 628 4550 
Q 988 4650 1302 4700 
Q 1616 4750 1894 4750 
Q 2613 4750 3031 4423 
Q 3450 4097 3450 3541 
Q 3450 3153 3228 2886 
Q 3006 2619 2597 2516 
z
" transform="scale(0.015625)"/>
      </defs>
      <use xlink:href="#DejaVuSans-2d"/>
      <use xlink:href="#DejaVuSans-34" x="36.083984"/>
      <use xlink:href="#DejaVuSans-3a" x="99.707031"/>
      <use xlink:href="#DejaVuSans-20" x="133.398438"/>
      <use xlink:href="#DejaVuSans-33" x="165.185547"/>
      <use xlink:href="#DejaVuSans-2f" x="228.808594"/>
      <use xlink:href="#DejaVuSans-31" x="262.5"/>
     </g>
    </g>
    <g id="line2d_62">
     <path d="M 313.970125 262.120625 
L 333.970125 262.120625 
L 353.970125 262.120625 
" style="fill: none; stroke: #ff0000; stroke-width: 3; stroke-linecap: square"/>
    </g>
    <g id="text_10">
     <!-- -8: 1/0 -->
     <g transform="translate(369.970125 269.120625)scale(0.2 -0.2)">
      <defs>
       <path id="DejaVuSans-38" d="M 2034 2216 
Q 1584 2216 1326 1975 
Q 1069 1734 1069 1313 
Q 1069 891 1326 650 
Q 1584 409 2034 409 
Q 2484 409 2743 651 
Q 3003 894 3003 1313 
Q 3003 1734 2745 1975 
Q 2488 2216 2034 2216 
z
M 1403 2484 
Q 997 2584 770 2862 
Q 544 3141 544 3541 
Q 544 4100 942 4425 
Q 1341 4750 2034 4750 
Q 2731 4750 3128 4425 
Q 3525 4100 3525 3541 
Q 3525 3141 3298 2862 
Q 3072 2584 2669 2484 
Q 3125 2378 3379 2068 
Q 3634 1759 3634 1313 
Q 3634 634 3220 271 
Q 2806 -91 2034 -91 
Q 1263 -91 848 271 
Q 434 634 434 1313 
Q 434 1759 690 2068 
Q 947 2378 1403 2484 
z
M 1172 3481 
Q 1172 3119 1398 2916 
Q 1625 2713 2034 2713 
Q 2441 2713 2670 2916 
Q 2900 3119 2900 3481 
Q 2900 3844 2670 4047 
Q 2441 4250 2034 4250 
Q 1625 4250 1398 4047 
Q 1172 3844 1172 3481 
z
" transform="scale(0.015625)"/>
      </defs>
      <use xlink:href="#DejaVuSans-2d"/>
      <use xlink:href="#DejaVuSans-38" x="36.083984"/>
      <use xlink:href="#DejaVuSans-3a" x="99.707031"/>
      <use xlink:href="#DejaVuSans-20" x="133.398438"/>
      <use xlink:href="#DejaVuSans-31" x="165.185547"/>
      <use xlink:href="#DejaVuSans-2f" x="228.808594"/>
      <use xlink:href="#DejaVuSans-30" x="262.5"/>
     </g>
    </g>
   </g>
  </g>
 </g>
 <defs>
  <clipPath id="p877642c175">
   <rect x="34.16" y="3" width="419.032" height="288.28"/>
  </clipPath>
 </defs>
</svg>
