<?xml version="1.0" encoding="utf-8" standalone="no"?>
<!DOCTYPE svg PUBLIC "-//W3C//DTD SVG 1.1//EN"
  "http://www.w3.org/Graphics/SVG/1.1/DTD/svg11.dtd">
<svg xmlns:xlink="http://www.w3.org/1999/xlink" width="460.8pt" height="345.6pt" viewBox="0 0 460.8 345.6" xmlns="http://www.w3.org/2000/svg" version="1.1">
 <metadata>
  <rdf:RDF xmlns:dc="http://purl.org/dc/elements/1.1/" xmlns:cc="http://creativecommons.org/ns#" xmlns:rdf="http://www.w3.org/1999/02/22-rdf-syntax-ns#">
   <cc:Work>
    <dc:type rdf:resource="http://purl.org/dc/dcmitype/StillImage"/>
    <dc:date>2024-05-29T07:59:11.733361</dc:date>
    <dc:format>image/svg+xml</dc:format>
    <dc:creator>
     <cc:Agent>
      <dc:title>Matplotlib v3.5.1, https://matplotlib.org/</dc:title>
     </cc:Agent>
    </dc:creator>
   </cc:Work>
  </rdf:RDF>
 </metadata>
 <defs>
  <style type="text/css">*{stroke-linejoin: round; stroke-linecap: butt}</style>
 </defs>
 <g id="figure_1">
  <g id="patch_1">
   <path d="M 0 345.6 
L 460.8 345.6 
L 460.8 0 
L 0 0 
z
" style="fill: #ffffff"/>
  </g>
  <g id="axes_1">
   <g id="patch_2">
    <path d="M 57.6 298.944 
L 360.8064 298.944 
L 360.8064 6.912 
L 57.6 6.912 
z
" style="fill: #ffffff"/>
   </g>
   <g id="line2d_1">
    <path d="M 27.323974 298.944 
L 27.323974 294.363106 
L 53.402323 294.363106 
L 53.402323 293.217882 
L 57.6 293.217882 
L 57.6 292.072659 
L 66.441498 292.072659 
L 66.441498 290.927435 
L 70.639174 290.927435 
L 70.639174 234.811482 
L 72.432107 234.811482 
L 72.432107 233.666259 
L 74.068926 233.666259 
L 74.068926 182.1312 
L 78.266603 182.1312 
L 78.266603 180.985976 
L 82.713442 180.985976 
L 82.713442 179.840753 
L 86.307488 179.840753 
L 86.307488 178.695529 
L 92.519847 178.695529 
L 92.519847 177.550306 
L 94.735529 177.550306 
L 94.735529 176.405082 
L 105.850679 176.405082 
L 105.850679 175.259859 
L 108.034177 175.259859 
L 108.034177 174.114635 
L 108.542628 174.114635 
L 108.542628 172.969412 
L 109.037698 172.969412 
L 109.037698 171.824188 
L 109.280431 171.824188 
L 109.280431 170.678965 
L 109.520071 170.678965 
L 109.520071 169.533741 
L 110.221204 169.533741 
L 110.221204 168.388518 
L 110.449226 168.388518 
L 110.449226 164.952847 
L 110.897141 164.952847 
L 110.897141 163.807624 
L 111.334639 163.807624 
L 111.334639 159.226729 
L 111.54963 159.226729 
L 111.54963 152.355388 
L 111.762192 152.355388 
L 111.762192 145.484047 
L 111.97238 145.484047 
L 111.97238 139.757929 
L 112.180244 139.757929 
L 112.180244 132.886588 
L 112.385837 132.886588 
L 112.385837 129.450918 
L 112.589207 129.450918 
L 112.589207 121.434353 
L 112.790402 121.434353 
L 112.790402 116.853459 
L 112.989468 116.853459 
L 112.989468 113.417788 
L 141.56737 113.417788 
L 141.56737 112.272565 
L 150.985103 112.272565 
L 150.985103 111.127341 
L 153.282346 111.127341 
L 153.282346 109.982118 
L 156.8511 109.982118 
L 156.8511 108.836894 
L 157.438121 108.836894 
L 157.438121 107.691671 
L 159.535354 107.691671 
L 159.601943 105.401224 
L 162.05979 105.401224 
L 162.05979 104.256 
L 164.037409 104.256 
L 164.037409 103.110776 
L 166.274957 103.110776 
L 166.367969 100.820329 
L 166.448979 100.820329 
L 166.541136 92.803765 
L 166.564105 92.803765 
L 166.667119 76.770635 
L 166.678531 76.770635 
L 166.769573 52.720941 
L 166.939098 52.720941 
L 166.972821 50.430494 
L 167.051272 50.430494 
L 167.118257 46.994824 
L 167.48247 46.994824 
L 167.48247 45.8496 
L 167.602324 45.8496 
L 167.689013 42.413929 
L 167.882616 42.413929 
L 167.882616 41.268706 
L 168.021211 41.268706 
L 168.021211 40.123482 
L 168.1904 40.123482 
L 168.1904 38.978259 
L 168.410176 38.978259 
L 168.503585 35.542588 
L 168.555279 35.542588 
L 168.555279 34.397365 
L 168.699272 34.397365 
L 168.699272 32.106918 
L 168.852337 32.106918 
L 168.882801 27.526024 
L 169.104709 27.526024 
L 169.204718 22.945129 
L 169.274409 22.945129 
L 169.383404 10.347671 
L 169.393282 10.347671 
L 169.432739 8.057224 
L 203.153292 8.057224 
L 203.153292 6.912 
L 360.8064 6.912 
L 360.8064 6.912 
" style="fill: none; stroke: #f5deb3; stroke-width: 4; stroke-linecap: square"/>
   </g>
   <g id="line2d_2">
    <defs>
     <path id="m5eb25e22b0" d="M 0 7.778175 
L 7.778175 0 
L 0 -7.778175 
L -7.778175 0 
z
" style="stroke: #f5deb3; stroke-width: 1.5; stroke-linejoin: miter"/>
    </defs>
    <g>
     <use xlink:href="#m5eb25e22b0" x="72.432107" y="233.666259" style="fill: #f5deb3; stroke: #f5deb3; stroke-width: 1.5; stroke-linejoin: miter"/>
     <use xlink:href="#m5eb25e22b0" x="112.989468" y="116.853459" style="fill: #f5deb3; stroke: #f5deb3; stroke-width: 1.5; stroke-linejoin: miter"/>
     <use xlink:href="#m5eb25e22b0" x="166.701332" y="64.173176" style="fill: #f5deb3; stroke: #f5deb3; stroke-width: 1.5; stroke-linejoin: miter"/>
     <use xlink:href="#m5eb25e22b0" x="203.153292" y="8.057224" style="fill: #f5deb3; stroke: #f5deb3; stroke-width: 1.5; stroke-linejoin: miter"/>
     <use xlink:href="#m5eb25e22b0" x="203.153292" y="6.912" style="fill: #f5deb3; stroke: #f5deb3; stroke-width: 1.5; stroke-linejoin: miter"/>
     <use xlink:href="#m5eb25e22b0" x="360.8064" y="6.912" style="fill: #f5deb3; stroke: #f5deb3; stroke-width: 1.5; stroke-linejoin: miter"/>
    </g>
   </g>
   <g id="line2d_3">
    <path style="fill: none; stroke: #f5deb3; stroke-width: 4; stroke-linecap: square"/>
    <g/>
   </g>
   <g id="line2d_4">
    <path d="M 360.8064 6.912 
L 380.514816 12.75264 
" style="fill: none; stroke: #f5deb3; stroke-width: 4; stroke-linecap: square"/>
    <g>
     <use xlink:href="#m5eb25e22b0" x="360.8064" y="6.912" style="fill: #f5deb3; stroke: #f5deb3; stroke-width: 1.5; stroke-linejoin: miter"/>
     <use xlink:href="#m5eb25e22b0" x="380.514816" y="12.75264" style="fill: #f5deb3; stroke: #f5deb3; stroke-width: 1.5; stroke-linejoin: miter"/>
    </g>
   </g>
   <g id="matplotlib.axis_1">
    <g id="xtick_1">
     <g id="line2d_5">
      <path d="M 57.6 298.944 
L 57.6 6.912 
" clip-path="url(#p84e69e43e3)" style="fill: none; stroke: #b0b0b0; stroke-width: 0.8; stroke-linecap: square"/>
     </g>
     <g id="line2d_6">
      <defs>
       <path id="m44a2af34fd" d="M 0 0 
L 0 3.5 
" style="stroke: #000000; stroke-width: 0.8"/>
      </defs>
      <g>
       <use xlink:href="#m44a2af34fd" x="57.6" y="298.944" style="stroke: #000000; stroke-width: 0.8"/>
      </g>
     </g>
     <g id="text_1">
      <!-- 0 -->
      <g transform="translate(52.191875 318.861344)scale(0.17 -0.17)">
       <defs>
        <path id="DejaVuSans-30" d="M 2034 4250 
Q 1547 4250 1301 3770 
Q 1056 3291 1056 2328 
Q 1056 1369 1301 889 
Q 1547 409 2034 409 
Q 2525 409 2770 889 
Q 3016 1369 3016 2328 
Q 3016 3291 2770 3770 
Q 2525 4250 2034 4250 
z
M 2034 4750 
Q 2819 4750 3233 4129 
Q 3647 3509 3647 2328 
Q 3647 1150 3233 529 
Q 2819 -91 2034 -91 
Q 1250 -91 836 529 
Q 422 1150 422 2328 
Q 422 3509 836 4129 
Q 1250 4750 2034 4750 
z
" transform="scale(0.015625)"/>
       </defs>
       <use xlink:href="#DejaVuSans-30"/>
      </g>
     </g>
    </g>
    <g id="xtick_2">
     <g id="line2d_7">
      <path d="M 144.2304 298.944 
L 144.2304 6.912 
" clip-path="url(#p84e69e43e3)" style="fill: none; stroke: #b0b0b0; stroke-width: 0.8; stroke-linecap: square"/>
     </g>
     <g id="line2d_8">
      <g>
       <use xlink:href="#m44a2af34fd" x="144.2304" y="298.944" style="stroke: #000000; stroke-width: 0.8"/>
      </g>
     </g>
     <g id="text_2">
      <!-- 2 -->
      <g transform="translate(138.822275 318.861344)scale(0.17 -0.17)">
       <defs>
        <path id="DejaVuSans-32" d="M 1228 531 
L 3431 531 
L 3431 0 
L 469 0 
L 469 531 
Q 828 903 1448 1529 
Q 2069 2156 2228 2338 
Q 2531 2678 2651 2914 
Q 2772 3150 2772 3378 
Q 2772 3750 2511 3984 
Q 2250 4219 1831 4219 
Q 1534 4219 1204 4116 
Q 875 4013 500 3803 
L 500 4441 
Q 881 4594 1212 4672 
Q 1544 4750 1819 4750 
Q 2544 4750 2975 4387 
Q 3406 4025 3406 3419 
Q 3406 3131 3298 2873 
Q 3191 2616 2906 2266 
Q 2828 2175 2409 1742 
Q 1991 1309 1228 531 
z
" transform="scale(0.015625)"/>
       </defs>
       <use xlink:href="#DejaVuSans-32"/>
      </g>
     </g>
    </g>
    <g id="xtick_3">
     <g id="line2d_9">
      <path d="M 230.8608 298.944 
L 230.8608 6.912 
" clip-path="url(#p84e69e43e3)" style="fill: none; stroke: #b0b0b0; stroke-width: 0.8; stroke-linecap: square"/>
     </g>
     <g id="line2d_10">
      <g>
       <use xlink:href="#m44a2af34fd" x="230.8608" y="298.944" style="stroke: #000000; stroke-width: 0.8"/>
      </g>
     </g>
     <g id="text_3">
      <!-- 4 -->
      <g transform="translate(225.452675 318.861344)scale(0.17 -0.17)">
       <defs>
        <path id="DejaVuSans-34" d="M 2419 4116 
L 825 1625 
L 2419 1625 
L 2419 4116 
z
M 2253 4666 
L 3047 4666 
L 3047 1625 
L 3713 1625 
L 3713 1100 
L 3047 1100 
L 3047 0 
L 2419 0 
L 2419 1100 
L 313 1100 
L 313 1709 
L 2253 4666 
z
" transform="scale(0.015625)"/>
       </defs>
       <use xlink:href="#DejaVuSans-34"/>
      </g>
     </g>
    </g>
    <g id="xtick_4">
     <g id="line2d_11">
      <path d="M 317.4912 298.944 
L 317.4912 6.912 
" clip-path="url(#p84e69e43e3)" style="fill: none; stroke: #b0b0b0; stroke-width: 0.8; stroke-linecap: square"/>
     </g>
     <g id="line2d_12">
      <g>
       <use xlink:href="#m44a2af34fd" x="317.4912" y="298.944" style="stroke: #000000; stroke-width: 0.8"/>
      </g>
     </g>
     <g id="text_4">
      <!-- 6 -->
      <g transform="translate(312.083075 318.861344)scale(0.17 -0.17)">
       <defs>
        <path id="DejaVuSans-36" d="M 2113 2584 
Q 1688 2584 1439 2293 
Q 1191 2003 1191 1497 
Q 1191 994 1439 701 
Q 1688 409 2113 409 
Q 2538 409 2786 701 
Q 3034 994 3034 1497 
Q 3034 2003 2786 2293 
Q 2538 2584 2113 2584 
z
M 3366 4563 
L 3366 3988 
Q 3128 4100 2886 4159 
Q 2644 4219 2406 4219 
Q 1781 4219 1451 3797 
Q 1122 3375 1075 2522 
Q 1259 2794 1537 2939 
Q 1816 3084 2150 3084 
Q 2853 3084 3261 2657 
Q 3669 2231 3669 1497 
Q 3669 778 3244 343 
Q 2819 -91 2113 -91 
Q 1303 -91 875 529 
Q 447 1150 447 2328 
Q 447 3434 972 4092 
Q 1497 4750 2381 4750 
Q 2619 4750 2861 4703 
Q 3103 4656 3366 4563 
z
" transform="scale(0.015625)"/>
       </defs>
       <use xlink:href="#DejaVuSans-36"/>
      </g>
     </g>
    </g>
    <g id="xtick_5">
     <g id="line2d_13">
      <path d="M 100.9152 298.944 
L 100.9152 6.912 
" clip-path="url(#p84e69e43e3)" style="fill: none; stroke: #b0b0b0; stroke-width: 0.8; stroke-linecap: square"/>
     </g>
     <g id="line2d_14">
      <defs>
       <path id="ma1d41b3e4e" d="M 0 0 
L 0 2 
" style="stroke: #000000; stroke-width: 0.6"/>
      </defs>
      <g>
       <use xlink:href="#ma1d41b3e4e" x="100.9152" y="298.944" style="stroke: #000000; stroke-width: 0.6"/>
      </g>
     </g>
    </g>
    <g id="xtick_6">
     <g id="line2d_15">
      <path d="M 187.5456 298.944 
L 187.5456 6.912 
" clip-path="url(#p84e69e43e3)" style="fill: none; stroke: #b0b0b0; stroke-width: 0.8; stroke-linecap: square"/>
     </g>
     <g id="line2d_16">
      <g>
       <use xlink:href="#ma1d41b3e4e" x="187.5456" y="298.944" style="stroke: #000000; stroke-width: 0.6"/>
      </g>
     </g>
    </g>
    <g id="xtick_7">
     <g id="line2d_17">
      <path d="M 274.176 298.944 
L 274.176 6.912 
" clip-path="url(#p84e69e43e3)" style="fill: none; stroke: #b0b0b0; stroke-width: 0.8; stroke-linecap: square"/>
     </g>
     <g id="line2d_18">
      <g>
       <use xlink:href="#ma1d41b3e4e" x="274.176" y="298.944" style="stroke: #000000; stroke-width: 0.6"/>
      </g>
     </g>
    </g>
    <g id="xtick_8">
     <g id="line2d_19">
      <path d="M 360.8064 298.944 
L 360.8064 6.912 
" clip-path="url(#p84e69e43e3)" style="fill: none; stroke: #b0b0b0; stroke-width: 0.8; stroke-linecap: square"/>
     </g>
     <g id="line2d_20">
      <g>
       <use xlink:href="#ma1d41b3e4e" x="360.8064" y="298.944" style="stroke: #000000; stroke-width: 0.6"/>
      </g>
     </g>
    </g>
    <g id="text_5">
     <!-- log10(# f-evals / dimension) -->
     <g transform="translate(88.823278 339.314156)scale(0.17 -0.17)">
      <defs>
       <path id="DejaVuSans-6c" d="M 603 4863 
L 1178 4863 
L 1178 0 
L 603 0 
L 603 4863 
z
" transform="scale(0.015625)"/>
       <path id="DejaVuSans-6f" d="M 1959 3097 
Q 1497 3097 1228 2736 
Q 959 2375 959 1747 
Q 959 1119 1226 758 
Q 1494 397 1959 397 
Q 2419 397 2687 759 
Q 2956 1122 2956 1747 
Q 2956 2369 2687 2733 
Q 2419 3097 1959 3097 
z
M 1959 3584 
Q 2709 3584 3137 3096 
Q 3566 2609 3566 1747 
Q 3566 888 3137 398 
Q 2709 -91 1959 -91 
Q 1206 -91 779 398 
Q 353 888 353 1747 
Q 353 2609 779 3096 
Q 1206 3584 1959 3584 
z
" transform="scale(0.015625)"/>
       <path id="DejaVuSans-67" d="M 2906 1791 
Q 2906 2416 2648 2759 
Q 2391 3103 1925 3103 
Q 1463 3103 1205 2759 
Q 947 2416 947 1791 
Q 947 1169 1205 825 
Q 1463 481 1925 481 
Q 2391 481 2648 825 
Q 2906 1169 2906 1791 
z
M 3481 434 
Q 3481 -459 3084 -895 
Q 2688 -1331 1869 -1331 
Q 1566 -1331 1297 -1286 
Q 1028 -1241 775 -1147 
L 775 -588 
Q 1028 -725 1275 -790 
Q 1522 -856 1778 -856 
Q 2344 -856 2625 -561 
Q 2906 -266 2906 331 
L 2906 616 
Q 2728 306 2450 153 
Q 2172 0 1784 0 
Q 1141 0 747 490 
Q 353 981 353 1791 
Q 353 2603 747 3093 
Q 1141 3584 1784 3584 
Q 2172 3584 2450 3431 
Q 2728 3278 2906 2969 
L 2906 3500 
L 3481 3500 
L 3481 434 
z
" transform="scale(0.015625)"/>
       <path id="DejaVuSans-31" d="M 794 531 
L 1825 531 
L 1825 4091 
L 703 3866 
L 703 4441 
L 1819 4666 
L 2450 4666 
L 2450 531 
L 3481 531 
L 3481 0 
L 794 0 
L 794 531 
z
" transform="scale(0.015625)"/>
       <path id="DejaVuSans-28" d="M 1984 4856 
Q 1566 4138 1362 3434 
Q 1159 2731 1159 2009 
Q 1159 1288 1364 580 
Q 1569 -128 1984 -844 
L 1484 -844 
Q 1016 -109 783 600 
Q 550 1309 550 2009 
Q 550 2706 781 3412 
Q 1013 4119 1484 4856 
L 1984 4856 
z
" transform="scale(0.015625)"/>
       <path id="DejaVuSans-23" d="M 3272 2816 
L 2363 2816 
L 2100 1772 
L 3016 1772 
L 3272 2816 
z
M 2803 4594 
L 2478 3297 
L 3391 3297 
L 3719 4594 
L 4219 4594 
L 3897 3297 
L 4872 3297 
L 4872 2816 
L 3775 2816 
L 3519 1772 
L 4513 1772 
L 4513 1294 
L 3397 1294 
L 3072 0 
L 2572 0 
L 2894 1294 
L 1978 1294 
L 1656 0 
L 1153 0 
L 1478 1294 
L 494 1294 
L 494 1772 
L 1594 1772 
L 1856 2816 
L 850 2816 
L 850 3297 
L 1978 3297 
L 2297 4594 
L 2803 4594 
z
" transform="scale(0.015625)"/>
       <path id="DejaVuSans-20" transform="scale(0.015625)"/>
       <path id="DejaVuSans-66" d="M 2375 4863 
L 2375 4384 
L 1825 4384 
Q 1516 4384 1395 4259 
Q 1275 4134 1275 3809 
L 1275 3500 
L 2222 3500 
L 2222 3053 
L 1275 3053 
L 1275 0 
L 697 0 
L 697 3053 
L 147 3053 
L 147 3500 
L 697 3500 
L 697 3744 
Q 697 4328 969 4595 
Q 1241 4863 1831 4863 
L 2375 4863 
z
" transform="scale(0.015625)"/>
       <path id="DejaVuSans-2d" d="M 313 2009 
L 1997 2009 
L 1997 1497 
L 313 1497 
L 313 2009 
z
" transform="scale(0.015625)"/>
       <path id="DejaVuSans-65" d="M 3597 1894 
L 3597 1613 
L 953 1613 
Q 991 1019 1311 708 
Q 1631 397 2203 397 
Q 2534 397 2845 478 
Q 3156 559 3463 722 
L 3463 178 
Q 3153 47 2828 -22 
Q 2503 -91 2169 -91 
Q 1331 -91 842 396 
Q 353 884 353 1716 
Q 353 2575 817 3079 
Q 1281 3584 2069 3584 
Q 2775 3584 3186 3129 
Q 3597 2675 3597 1894 
z
M 3022 2063 
Q 3016 2534 2758 2815 
Q 2500 3097 2075 3097 
Q 1594 3097 1305 2825 
Q 1016 2553 972 2059 
L 3022 2063 
z
" transform="scale(0.015625)"/>
       <path id="DejaVuSans-76" d="M 191 3500 
L 800 3500 
L 1894 563 
L 2988 3500 
L 3597 3500 
L 2284 0 
L 1503 0 
L 191 3500 
z
" transform="scale(0.015625)"/>
       <path id="DejaVuSans-61" d="M 2194 1759 
Q 1497 1759 1228 1600 
Q 959 1441 959 1056 
Q 959 750 1161 570 
Q 1363 391 1709 391 
Q 2188 391 2477 730 
Q 2766 1069 2766 1631 
L 2766 1759 
L 2194 1759 
z
M 3341 1997 
L 3341 0 
L 2766 0 
L 2766 531 
Q 2569 213 2275 61 
Q 1981 -91 1556 -91 
Q 1019 -91 701 211 
Q 384 513 384 1019 
Q 384 1609 779 1909 
Q 1175 2209 1959 2209 
L 2766 2209 
L 2766 2266 
Q 2766 2663 2505 2880 
Q 2244 3097 1772 3097 
Q 1472 3097 1187 3025 
Q 903 2953 641 2809 
L 641 3341 
Q 956 3463 1253 3523 
Q 1550 3584 1831 3584 
Q 2591 3584 2966 3190 
Q 3341 2797 3341 1997 
z
" transform="scale(0.015625)"/>
       <path id="DejaVuSans-73" d="M 2834 3397 
L 2834 2853 
Q 2591 2978 2328 3040 
Q 2066 3103 1784 3103 
Q 1356 3103 1142 2972 
Q 928 2841 928 2578 
Q 928 2378 1081 2264 
Q 1234 2150 1697 2047 
L 1894 2003 
Q 2506 1872 2764 1633 
Q 3022 1394 3022 966 
Q 3022 478 2636 193 
Q 2250 -91 1575 -91 
Q 1294 -91 989 -36 
Q 684 19 347 128 
L 347 722 
Q 666 556 975 473 
Q 1284 391 1588 391 
Q 1994 391 2212 530 
Q 2431 669 2431 922 
Q 2431 1156 2273 1281 
Q 2116 1406 1581 1522 
L 1381 1569 
Q 847 1681 609 1914 
Q 372 2147 372 2553 
Q 372 3047 722 3315 
Q 1072 3584 1716 3584 
Q 2034 3584 2315 3537 
Q 2597 3491 2834 3397 
z
" transform="scale(0.015625)"/>
       <path id="DejaVuSans-2f" d="M 1625 4666 
L 2156 4666 
L 531 -594 
L 0 -594 
L 1625 4666 
z
" transform="scale(0.015625)"/>
       <path id="DejaVuSans-64" d="M 2906 2969 
L 2906 4863 
L 3481 4863 
L 3481 0 
L 2906 0 
L 2906 525 
Q 2725 213 2448 61 
Q 2172 -91 1784 -91 
Q 1150 -91 751 415 
Q 353 922 353 1747 
Q 353 2572 751 3078 
Q 1150 3584 1784 3584 
Q 2172 3584 2448 3432 
Q 2725 3281 2906 2969 
z
M 947 1747 
Q 947 1113 1208 752 
Q 1469 391 1925 391 
Q 2381 391 2643 752 
Q 2906 1113 2906 1747 
Q 2906 2381 2643 2742 
Q 2381 3103 1925 3103 
Q 1469 3103 1208 2742 
Q 947 2381 947 1747 
z
" transform="scale(0.015625)"/>
       <path id="DejaVuSans-69" d="M 603 3500 
L 1178 3500 
L 1178 0 
L 603 0 
L 603 3500 
z
M 603 4863 
L 1178 4863 
L 1178 4134 
L 603 4134 
L 603 4863 
z
" transform="scale(0.015625)"/>
       <path id="DejaVuSans-6d" d="M 3328 2828 
Q 3544 3216 3844 3400 
Q 4144 3584 4550 3584 
Q 5097 3584 5394 3201 
Q 5691 2819 5691 2113 
L 5691 0 
L 5113 0 
L 5113 2094 
Q 5113 2597 4934 2840 
Q 4756 3084 4391 3084 
Q 3944 3084 3684 2787 
Q 3425 2491 3425 1978 
L 3425 0 
L 2847 0 
L 2847 2094 
Q 2847 2600 2669 2842 
Q 2491 3084 2119 3084 
Q 1678 3084 1418 2786 
Q 1159 2488 1159 1978 
L 1159 0 
L 581 0 
L 581 3500 
L 1159 3500 
L 1159 2956 
Q 1356 3278 1631 3431 
Q 1906 3584 2284 3584 
Q 2666 3584 2933 3390 
Q 3200 3197 3328 2828 
z
" transform="scale(0.015625)"/>
       <path id="DejaVuSans-6e" d="M 3513 2113 
L 3513 0 
L 2938 0 
L 2938 2094 
Q 2938 2591 2744 2837 
Q 2550 3084 2163 3084 
Q 1697 3084 1428 2787 
Q 1159 2491 1159 1978 
L 1159 0 
L 581 0 
L 581 3500 
L 1159 3500 
L 1159 2956 
Q 1366 3272 1645 3428 
Q 1925 3584 2291 3584 
Q 2894 3584 3203 3211 
Q 3513 2838 3513 2113 
z
" transform="scale(0.015625)"/>
       <path id="DejaVuSans-29" d="M 513 4856 
L 1013 4856 
Q 1481 4119 1714 3412 
Q 1947 2706 1947 2009 
Q 1947 1309 1714 600 
Q 1481 -109 1013 -844 
L 513 -844 
Q 928 -128 1133 580 
Q 1338 1288 1338 2009 
Q 1338 2731 1133 3434 
Q 928 4138 513 4856 
z
" transform="scale(0.015625)"/>
      </defs>
      <use xlink:href="#DejaVuSans-6c"/>
      <use xlink:href="#DejaVuSans-6f" x="27.783203"/>
      <use xlink:href="#DejaVuSans-67" x="88.964844"/>
      <use xlink:href="#DejaVuSans-31" x="152.441406"/>
      <use xlink:href="#DejaVuSans-30" x="216.064453"/>
      <use xlink:href="#DejaVuSans-28" x="279.6875"/>
      <use xlink:href="#DejaVuSans-23" x="318.701172"/>
      <use xlink:href="#DejaVuSans-20" x="402.490234"/>
      <use xlink:href="#DejaVuSans-66" x="434.277344"/>
      <use xlink:href="#DejaVuSans-2d" x="463.982422"/>
      <use xlink:href="#DejaVuSans-65" x="500.066406"/>
      <use xlink:href="#DejaVuSans-76" x="561.589844"/>
      <use xlink:href="#DejaVuSans-61" x="620.769531"/>
      <use xlink:href="#DejaVuSans-6c" x="682.048828"/>
      <use xlink:href="#DejaVuSans-73" x="709.832031"/>
      <use xlink:href="#DejaVuSans-20" x="761.931641"/>
      <use xlink:href="#DejaVuSans-2f" x="793.71875"/>
      <use xlink:href="#DejaVuSans-20" x="827.410156"/>
      <use xlink:href="#DejaVuSans-64" x="859.197266"/>
      <use xlink:href="#DejaVuSans-69" x="922.673828"/>
      <use xlink:href="#DejaVuSans-6d" x="950.457031"/>
      <use xlink:href="#DejaVuSans-65" x="1047.869141"/>
      <use xlink:href="#DejaVuSans-6e" x="1109.392578"/>
      <use xlink:href="#DejaVuSans-73" x="1172.771484"/>
      <use xlink:href="#DejaVuSans-69" x="1224.871094"/>
      <use xlink:href="#DejaVuSans-6f" x="1252.654297"/>
      <use xlink:href="#DejaVuSans-6e" x="1313.835938"/>
      <use xlink:href="#DejaVuSans-29" x="1377.214844"/>
     </g>
    </g>
   </g>
   <g id="matplotlib.axis_2">
    <g id="ytick_1">
     <g id="line2d_21">
      <path d="M 57.6 298.944 
L 360.8064 298.944 
" clip-path="url(#p84e69e43e3)" style="fill: none; stroke: #b0b0b0; stroke-width: 0.8; stroke-linecap: square"/>
     </g>
     <g id="line2d_22">
      <defs>
       <path id="m3606f9fcd3" d="M 0 0 
L -3.5 0 
" style="stroke: #000000; stroke-width: 0.8"/>
      </defs>
      <g>
       <use xlink:href="#m3606f9fcd3" x="57.6" y="298.944" style="stroke: #000000; stroke-width: 0.8"/>
      </g>
     </g>
     <g id="text_6">
      <!-- 0.0 -->
      <g transform="translate(25.155 305.02275)scale(0.16 -0.16)">
       <defs>
        <path id="DejaVuSans-2e" d="M 684 794 
L 1344 794 
L 1344 0 
L 684 0 
L 684 794 
z
" transform="scale(0.015625)"/>
       </defs>
       <use xlink:href="#DejaVuSans-30"/>
       <use xlink:href="#DejaVuSans-2e" x="63.623047"/>
       <use xlink:href="#DejaVuSans-30" x="95.410156"/>
      </g>
     </g>
    </g>
    <g id="ytick_2">
     <g id="line2d_23">
      <path d="M 57.6 240.5376 
L 360.8064 240.5376 
" clip-path="url(#p84e69e43e3)" style="fill: none; stroke: #b0b0b0; stroke-width: 0.8; stroke-linecap: square"/>
     </g>
     <g id="line2d_24">
      <g>
       <use xlink:href="#m3606f9fcd3" x="57.6" y="240.5376" style="stroke: #000000; stroke-width: 0.8"/>
      </g>
     </g>
     <g id="text_7">
      <!-- 0.2 -->
      <g transform="translate(25.155 246.61635)scale(0.16 -0.16)">
       <use xlink:href="#DejaVuSans-30"/>
       <use xlink:href="#DejaVuSans-2e" x="63.623047"/>
       <use xlink:href="#DejaVuSans-32" x="95.410156"/>
      </g>
     </g>
    </g>
    <g id="ytick_3">
     <g id="line2d_25">
      <path d="M 57.6 182.1312 
L 360.8064 182.1312 
" clip-path="url(#p84e69e43e3)" style="fill: none; stroke: #b0b0b0; stroke-width: 0.8; stroke-linecap: square"/>
     </g>
     <g id="line2d_26">
      <g>
       <use xlink:href="#m3606f9fcd3" x="57.6" y="182.1312" style="stroke: #000000; stroke-width: 0.8"/>
      </g>
     </g>
     <g id="text_8">
      <!-- 0.4 -->
      <g transform="translate(25.155 188.20995)scale(0.16 -0.16)">
       <use xlink:href="#DejaVuSans-30"/>
       <use xlink:href="#DejaVuSans-2e" x="63.623047"/>
       <use xlink:href="#DejaVuSans-34" x="95.410156"/>
      </g>
     </g>
    </g>
    <g id="ytick_4">
     <g id="line2d_27">
      <path d="M 57.6 123.7248 
L 360.8064 123.7248 
" clip-path="url(#p84e69e43e3)" style="fill: none; stroke: #b0b0b0; stroke-width: 0.8; stroke-linecap: square"/>
     </g>
     <g id="line2d_28">
      <g>
       <use xlink:href="#m3606f9fcd3" x="57.6" y="123.7248" style="stroke: #000000; stroke-width: 0.8"/>
      </g>
     </g>
     <g id="text_9">
      <!-- 0.6 -->
      <g transform="translate(25.155 129.80355)scale(0.16 -0.16)">
       <use xlink:href="#DejaVuSans-30"/>
       <use xlink:href="#DejaVuSans-2e" x="63.623047"/>
       <use xlink:href="#DejaVuSans-36" x="95.410156"/>
      </g>
     </g>
    </g>
    <g id="ytick_5">
     <g id="line2d_29">
      <path d="M 57.6 65.3184 
L 360.8064 65.3184 
" clip-path="url(#p84e69e43e3)" style="fill: none; stroke: #b0b0b0; stroke-width: 0.8; stroke-linecap: square"/>
     </g>
     <g id="line2d_30">
      <g>
       <use xlink:href="#m3606f9fcd3" x="57.6" y="65.3184" style="stroke: #000000; stroke-width: 0.8"/>
      </g>
     </g>
     <g id="text_10">
      <!-- 0.8 -->
      <g transform="translate(25.155 71.39715)scale(0.16 -0.16)">
       <defs>
        <path id="DejaVuSans-38" d="M 2034 2216 
Q 1584 2216 1326 1975 
Q 1069 1734 1069 1313 
Q 1069 891 1326 650 
Q 1584 409 2034 409 
Q 2484 409 2743 651 
Q 3003 894 3003 1313 
Q 3003 1734 2745 1975 
Q 2488 2216 2034 2216 
z
M 1403 2484 
Q 997 2584 770 2862 
Q 544 3141 544 3541 
Q 544 4100 942 4425 
Q 1341 4750 2034 4750 
Q 2731 4750 3128 4425 
Q 3525 4100 3525 3541 
Q 3525 3141 3298 2862 
Q 3072 2584 2669 2484 
Q 3125 2378 3379 2068 
Q 3634 1759 3634 1313 
Q 3634 634 3220 271 
Q 2806 -91 2034 -91 
Q 1263 -91 848 271 
Q 434 634 434 1313 
Q 434 1759 690 2068 
Q 947 2378 1403 2484 
z
M 1172 3481 
Q 1172 3119 1398 2916 
Q 1625 2713 2034 2713 
Q 2441 2713 2670 2916 
Q 2900 3119 2900 3481 
Q 2900 3844 2670 4047 
Q 2441 4250 2034 4250 
Q 1625 4250 1398 4047 
Q 1172 3844 1172 3481 
z
" transform="scale(0.015625)"/>
       </defs>
       <use xlink:href="#DejaVuSans-30"/>
       <use xlink:href="#DejaVuSans-2e" x="63.623047"/>
       <use xlink:href="#DejaVuSans-38" x="95.410156"/>
      </g>
     </g>
    </g>
    <g id="ytick_6">
     <g id="line2d_31">
      <path d="M 57.6 6.912 
L 360.8064 6.912 
" clip-path="url(#p84e69e43e3)" style="fill: none; stroke: #b0b0b0; stroke-width: 0.8; stroke-linecap: square"/>
     </g>
     <g id="line2d_32">
      <g>
       <use xlink:href="#m3606f9fcd3" x="57.6" y="6.912" style="stroke: #000000; stroke-width: 0.8"/>
      </g>
     </g>
     <g id="text_11">
      <!-- 1.0 -->
      <g transform="translate(25.155 12.99075)scale(0.16 -0.16)">
       <use xlink:href="#DejaVuSans-31"/>
       <use xlink:href="#DejaVuSans-2e" x="63.623047"/>
       <use xlink:href="#DejaVuSans-30" x="95.410156"/>
      </g>
     </g>
    </g>
    <g id="text_12">
     <!-- Fraction of function,target pairs -->
     <g transform="translate(17.619531 287.313)rotate(-90)scale(0.17 -0.17)">
      <defs>
       <path id="DejaVuSans-46" d="M 628 4666 
L 3309 4666 
L 3309 4134 
L 1259 4134 
L 1259 2759 
L 3109 2759 
L 3109 2228 
L 1259 2228 
L 1259 0 
L 628 0 
L 628 4666 
z
" transform="scale(0.015625)"/>
       <path id="DejaVuSans-72" d="M 2631 2963 
Q 2534 3019 2420 3045 
Q 2306 3072 2169 3072 
Q 1681 3072 1420 2755 
Q 1159 2438 1159 1844 
L 1159 0 
L 581 0 
L 581 3500 
L 1159 3500 
L 1159 2956 
Q 1341 3275 1631 3429 
Q 1922 3584 2338 3584 
Q 2397 3584 2469 3576 
Q 2541 3569 2628 3553 
L 2631 2963 
z
" transform="scale(0.015625)"/>
       <path id="DejaVuSans-63" d="M 3122 3366 
L 3122 2828 
Q 2878 2963 2633 3030 
Q 2388 3097 2138 3097 
Q 1578 3097 1268 2742 
Q 959 2388 959 1747 
Q 959 1106 1268 751 
Q 1578 397 2138 397 
Q 2388 397 2633 464 
Q 2878 531 3122 666 
L 3122 134 
Q 2881 22 2623 -34 
Q 2366 -91 2075 -91 
Q 1284 -91 818 406 
Q 353 903 353 1747 
Q 353 2603 823 3093 
Q 1294 3584 2113 3584 
Q 2378 3584 2631 3529 
Q 2884 3475 3122 3366 
z
" transform="scale(0.015625)"/>
       <path id="DejaVuSans-74" d="M 1172 4494 
L 1172 3500 
L 2356 3500 
L 2356 3053 
L 1172 3053 
L 1172 1153 
Q 1172 725 1289 603 
Q 1406 481 1766 481 
L 2356 481 
L 2356 0 
L 1766 0 
Q 1100 0 847 248 
Q 594 497 594 1153 
L 594 3053 
L 172 3053 
L 172 3500 
L 594 3500 
L 594 4494 
L 1172 4494 
z
" transform="scale(0.015625)"/>
       <path id="DejaVuSans-75" d="M 544 1381 
L 544 3500 
L 1119 3500 
L 1119 1403 
Q 1119 906 1312 657 
Q 1506 409 1894 409 
Q 2359 409 2629 706 
Q 2900 1003 2900 1516 
L 2900 3500 
L 3475 3500 
L 3475 0 
L 2900 0 
L 2900 538 
Q 2691 219 2414 64 
Q 2138 -91 1772 -91 
Q 1169 -91 856 284 
Q 544 659 544 1381 
z
M 1991 3584 
L 1991 3584 
z
" transform="scale(0.015625)"/>
       <path id="DejaVuSans-2c" d="M 750 794 
L 1409 794 
L 1409 256 
L 897 -744 
L 494 -744 
L 750 256 
L 750 794 
z
" transform="scale(0.015625)"/>
       <path id="DejaVuSans-70" d="M 1159 525 
L 1159 -1331 
L 581 -1331 
L 581 3500 
L 1159 3500 
L 1159 2969 
Q 1341 3281 1617 3432 
Q 1894 3584 2278 3584 
Q 2916 3584 3314 3078 
Q 3713 2572 3713 1747 
Q 3713 922 3314 415 
Q 2916 -91 2278 -91 
Q 1894 -91 1617 61 
Q 1341 213 1159 525 
z
M 3116 1747 
Q 3116 2381 2855 2742 
Q 2594 3103 2138 3103 
Q 1681 3103 1420 2742 
Q 1159 2381 1159 1747 
Q 1159 1113 1420 752 
Q 1681 391 2138 391 
Q 2594 391 2855 752 
Q 3116 1113 3116 1747 
z
" transform="scale(0.015625)"/>
      </defs>
      <use xlink:href="#DejaVuSans-46"/>
      <use xlink:href="#DejaVuSans-72" x="50.269531"/>
      <use xlink:href="#DejaVuSans-61" x="91.382812"/>
      <use xlink:href="#DejaVuSans-63" x="152.662109"/>
      <use xlink:href="#DejaVuSans-74" x="207.642578"/>
      <use xlink:href="#DejaVuSans-69" x="246.851562"/>
      <use xlink:href="#DejaVuSans-6f" x="274.634766"/>
      <use xlink:href="#DejaVuSans-6e" x="335.816406"/>
      <use xlink:href="#DejaVuSans-20" x="399.195312"/>
      <use xlink:href="#DejaVuSans-6f" x="430.982422"/>
      <use xlink:href="#DejaVuSans-66" x="492.164062"/>
      <use xlink:href="#DejaVuSans-20" x="527.369141"/>
      <use xlink:href="#DejaVuSans-66" x="559.15625"/>
      <use xlink:href="#DejaVuSans-75" x="594.361328"/>
      <use xlink:href="#DejaVuSans-6e" x="657.740234"/>
      <use xlink:href="#DejaVuSans-63" x="721.119141"/>
      <use xlink:href="#DejaVuSans-74" x="776.099609"/>
      <use xlink:href="#DejaVuSans-69" x="815.308594"/>
      <use xlink:href="#DejaVuSans-6f" x="843.091797"/>
      <use xlink:href="#DejaVuSans-6e" x="904.273438"/>
      <use xlink:href="#DejaVuSans-2c" x="967.652344"/>
      <use xlink:href="#DejaVuSans-74" x="999.439453"/>
      <use xlink:href="#DejaVuSans-61" x="1038.648438"/>
      <use xlink:href="#DejaVuSans-72" x="1099.927734"/>
      <use xlink:href="#DejaVuSans-67" x="1139.291016"/>
      <use xlink:href="#DejaVuSans-65" x="1202.767578"/>
      <use xlink:href="#DejaVuSans-74" x="1264.291016"/>
      <use xlink:href="#DejaVuSans-20" x="1303.5"/>
      <use xlink:href="#DejaVuSans-70" x="1335.287109"/>
      <use xlink:href="#DejaVuSans-61" x="1398.763672"/>
      <use xlink:href="#DejaVuSans-69" x="1460.042969"/>
      <use xlink:href="#DejaVuSans-72" x="1487.826172"/>
      <use xlink:href="#DejaVuSans-73" x="1528.939453"/>
     </g>
    </g>
   </g>
   <g id="line2d_33">
    <defs>
     <path id="mf6c2fa8df1" d="M 0 1.5 
C 0.397805 1.5 0.77937 1.341951 1.06066 1.06066 
C 1.341951 0.77937 1.5 0.397805 1.5 0 
C 1.5 -0.397805 1.341951 -0.77937 1.06066 -1.06066 
C 0.77937 -1.341951 0.397805 -1.5 0 -1.5 
C -0.397805 -1.5 -0.77937 -1.341951 -1.06066 -1.06066 
C -1.341951 -0.77937 -1.5 -0.397805 -1.5 0 
C -1.5 0.397805 -1.341951 0.77937 -1.06066 1.06066 
C -0.77937 1.341951 -0.397805 1.5 0 1.5 
z
" style="stroke: #f5deb3"/>
    </defs>
    <g>
     <use xlink:href="#mf6c2fa8df1" x="203.153292" y="6.912" style="fill: #f5deb3; stroke: #f5deb3"/>
     <use xlink:href="#mf6c2fa8df1" x="203.153292" y="6.912" style="fill: #f5deb3; stroke: #f5deb3"/>
    </g>
   </g>
   <g id="line2d_34">
    <defs>
     <path id="mb8875fe19f" d="M 0 1.5 
C 0.397805 1.5 0.77937 1.341951 1.06066 1.06066 
C 1.341951 0.77937 1.5 0.397805 1.5 0 
C 1.5 -0.397805 1.341951 -0.77937 1.06066 -1.06066 
C 0.77937 -1.341951 0.397805 -1.5 0 -1.5 
C -0.397805 -1.5 -0.77937 -1.341951 -1.06066 -1.06066 
C -1.341951 -0.77937 -1.5 -0.397805 -1.5 0 
C -1.5 0.397805 -1.341951 0.77937 -1.06066 1.06066 
C -0.77937 1.341951 -0.397805 1.5 0 1.5 
z
" style="stroke: #000080"/>
    </defs>
    <g>
     <use xlink:href="#mb8875fe19f" x="269.868" y="6.912" style="fill: #000080; stroke: #000080"/>
     <use xlink:href="#mb8875fe19f" x="269.868" y="6.912" style="fill: #000080; stroke: #000080"/>
    </g>
   </g>
   <g id="line2d_35">
    <path d="M 27.323974 298.944 
L 27.323974 296.34816 
L 40.363149 296.34816 
L 40.363149 294.744847 
L 47.990577 294.744847 
L 47.990577 293.981365 
L 53.402323 293.981365 
L 53.402323 293.446927 
L 57.6 293.446927 
L 57.6 292.836141 
L 61.029752 292.836141 
L 61.029752 292.683445 
L 63.929565 292.683445 
L 63.929565 292.149007 
L 66.441498 292.149007 
L 66.441498 291.843614 
L 68.65718 291.843614 
L 68.65718 291.614569 
L 70.639174 291.614569 
L 70.639174 291.461873 
L 75.574654 291.461873 
L 75.574654 291.15648 
L 78.266603 291.080132 
L 78.266603 290.927435 
L 81.696354 290.927435 
L 81.696354 290.774739 
L 84.596168 290.698391 
L 84.596168 290.545694 
L 85.471281 290.545694 
L 85.471281 290.087605 
L 87.876026 290.011256 
L 87.876026 289.934908 
L 90.668036 289.85856 
L 90.668036 289.782212 
L 93.66029 289.782212 
L 93.66029 289.629515 
L 97.18203 289.553167 
L 97.18203 289.400471 
L 98.077987 289.400471 
L 98.077987 289.171426 
L 98.933205 289.171426 
L 98.933205 288.942381 
L 99.751228 288.866033 
L 99.751228 288.789685 
L 100.535156 288.713336 
L 100.535156 288.636988 
L 100.9152 288.636988 
L 100.9152 288.331595 
L 102.011329 288.255247 
L 102.011329 288.102551 
L 105.559021 288.026202 
L 105.559021 287.797158 
L 105.850679 287.797158 
L 105.850679 287.644461 
L 107.244765 287.568113 
L 107.244765 287.491765 
L 110.221204 287.415416 
L 110.221204 287.339068 
L 111.117162 287.339068 
L 111.117162 287.033675 
L 111.334639 287.033675 
L 111.334639 286.728282 
L 112.589207 286.651934 
L 112.589207 286.499238 
L 112.790402 286.499238 
L 112.790402 286.270193 
L 113.57433 286.193845 
L 113.57433 286.117496 
L 114.692177 286.041148 
L 114.692177 285.9648 
L 116.419219 285.888452 
L 116.419219 285.812104 
L 117.226706 285.735755 
L 117.226706 285.659407 
L 117.848632 285.583059 
L 117.848632 285.430362 
L 118.000953 285.430362 
L 118.000953 285.277666 
L 118.152051 285.277666 
L 118.152051 285.124969 
L 118.598196 285.048621 
L 118.598196 284.972273 
L 119.319033 284.972273 
L 119.319033 284.66688 
L 120.41783 284.590532 
L 120.41783 284.437835 
L 121.706797 284.437835 
L 121.706797 284.285139 
L 121.954321 284.285139 
L 121.954321 284.132442 
L 123.601383 284.056094 
L 123.601383 283.979746 
L 124.046648 283.979746 
L 124.046648 283.827049 
L 128.700779 283.750701 
L 128.786481 283.521656 
L 130.265881 283.445308 
L 130.265881 283.36896 
L 131.191226 283.292612 
L 131.266322 283.139915 
L 131.856536 283.063567 
L 131.856536 282.987219 
L 132.216233 282.987219 
L 132.216233 282.834522 
L 132.915628 282.758174 
L 132.915628 282.681826 
L 134.620977 282.605478 
L 134.620977 282.529129 
L 138.154948 282.452781 
L 138.154948 282.376433 
L 138.566146 282.376433 
L 138.566146 281.994692 
L 139.843661 281.918344 
L 139.843661 281.765647 
L 140.543056 281.765647 
L 140.58877 281.154861 
L 141.825656 281.078513 
L 141.825656 281.002165 
L 142.661862 281.002165 
L 142.661862 280.849468 
L 144.305496 280.849468 
L 144.380294 280.467727 
L 144.454795 280.467727 
L 144.529002 280.085986 
L 144.85936 280.009638 
L 144.968202 279.246155 
L 145.004344 279.246155 
L 145.076419 279.017111 
L 145.148219 279.017111 
L 145.255407 278.17728 
L 145.397382 278.100932 
L 145.503164 277.795539 
L 145.573357 277.719191 
L 145.678157 277.413798 
L 145.712961 277.413798 
L 145.712961 277.108405 
L 145.851536 277.108405 
L 145.851536 276.803012 
L 146.023332 276.803012 
L 146.023332 276.192226 
L 146.193574 276.115878 
L 146.227438 275.963181 
L 146.395851 275.963181 
L 146.496179 275.58144 
L 146.595975 275.505092 
L 146.662213 275.352395 
L 146.892226 275.276047 
L 146.957431 275.123351 
L 147.216013 275.123351 
L 147.312072 274.665261 
L 147.343984 274.665261 
L 147.439393 274.436216 
L 147.565858 274.359868 
L 147.565858 274.207172 
L 148.03267 274.207172 
L 148.124658 273.978127 
L 148.607806 273.901779 
L 148.607806 273.520038 
L 148.815343 273.443689 
L 148.815343 273.367341 
L 149.020615 273.290993 
L 149.107908 272.832904 
L 149.194798 272.832904 
L 149.281288 272.298466 
L 149.338728 272.222118 
L 149.395993 271.916725 
L 149.481565 271.840376 
L 149.538397 271.68768 
L 149.623325 271.68768 
L 149.707872 271.229591 
L 149.847944 271.153242 
L 149.931489 270.695153 
L 150.097474 270.618805 
L 150.207323 269.778974 
L 150.425115 269.702626 
L 150.533072 269.244536 
L 150.58682 269.168188 
L 150.693856 268.939144 
L 150.906118 268.862795 
L 150.985103 268.404706 
L 151.32359 268.328358 
L 151.32359 268.252009 
L 151.60532 268.175661 
L 151.630724 267.946616 
L 151.782431 267.870268 
L 151.857828 267.717572 
L 151.95789 267.641224 
L 151.95789 267.564875 
L 152.131727 267.488527 
L 152.230346 267.183134 
L 152.303973 267.106786 
L 152.401695 263.213026 
L 152.474656 263.136678 
L 152.571498 262.831285 
L 152.619733 262.831285 
L 152.643804 262.144151 
L 152.811444 262.067802 
L 152.882835 261.762409 
L 153.118868 261.762409 
L 153.212458 261.380668 
L 153.627945 261.30432 
L 153.627945 261.151624 
L 153.854866 261.075275 
L 153.854866 260.922579 
L 154.432362 260.846231 
L 154.476059 260.540838 
L 154.714595 260.464489 
L 154.714595 260.388141 
L 155.161749 260.311793 
L 155.266666 260.159096 
L 155.371001 260.082748 
L 155.371001 259.930052 
L 155.762279 259.853704 
L 155.782649 259.548311 
L 156.245169 259.548311 
L 156.34423 259.242918 
L 156.501649 259.166569 
L 156.579868 255.654551 
L 156.774003 255.578202 
L 156.774003 255.501854 
L 157.175281 255.425506 
L 157.250754 255.196461 
L 157.400797 255.196461 
L 157.400797 251.608094 
L 157.770751 251.531746 
L 157.807349 251.379049 
L 158.312387 251.302701 
L 158.401163 251.150005 
L 158.717331 251.073656 
L 158.804221 250.92096 
L 158.838864 250.92096 
L 158.856162 250.691915 
L 159.028273 250.691915 
L 159.045398 249.852085 
L 159.367841 249.775736 
L 159.401463 249.62304 
L 159.964032 249.546692 
L 160.012872 248.859558 
L 160.367209 248.783209 
L 160.4627 248.630513 
L 160.839886 248.554165 
L 160.839886 248.401468 
L 161.041081 248.32512 
L 161.041081 248.248772 
L 161.285788 248.172424 
L 161.391854 248.019727 
L 161.854518 247.943379 
L 161.854518 247.867031 
L 162.045202 247.790682 
L 162.045202 247.714334 
L 162.262846 247.637986 
L 162.349204 247.408941 
L 162.690724 247.332593 
L 162.775144 247.0272 
L 162.817213 246.950852 
L 162.859187 243.286136 
L 163.205379 243.209788 
L 163.232801 242.904395 
L 163.328465 242.904395 
L 163.423645 242.522654 
L 163.504846 242.522654 
L 163.558786 242.217261 
L 163.666204 242.140913 
L 163.773012 241.911868 
L 163.865975 241.83552 
L 163.879217 241.682824 
L 164.142137 241.606475 
L 164.233297 241.377431 
L 164.427166 241.377431 
L 164.427166 238.247153 
L 164.783793 238.170805 
L 164.783793 238.094456 
L 165.009535 238.094456 
L 165.059334 237.636367 
L 165.158538 237.560019 
L 165.158538 237.254626 
L 165.428682 237.178278 
L 165.489541 236.949233 
L 165.670946 236.872885 
L 165.670946 236.720188 
L 166.251633 236.64384 
L 166.251633 236.567492 
L 166.437427 236.567492 
L 166.448979 236.338447 
L 166.689935 236.262099 
L 166.758217 235.880358 
L 166.826251 235.804009 
L 166.826251 235.727661 
L 167.240447 235.651313 
L 167.240447 235.574965 
L 168.03183 235.498616 
L 168.137692 235.040527 
L 168.17987 234.964179 
L 168.23246 234.811482 
L 168.586228 234.735134 
L 168.689024 234.353393 
L 168.862497 234.277045 
L 168.862497 234.200696 
L 169.004166 234.124348 
L 169.064557 233.895304 
L 169.134768 233.895304 
L 169.134768 233.742607 
L 169.314117 233.666259 
L 169.373521 232.979125 
L 169.472115 232.902776 
L 169.472115 232.826428 
L 169.687218 232.75008 
L 169.793854 232.444687 
L 169.822832 232.444687 
L 169.899889 231.986598 
L 169.995769 231.910249 
L 170.053063 229.009016 
L 170.383845 228.932668 
L 170.430628 228.779972 
L 170.607351 228.703624 
L 170.607351 228.627275 
L 170.809925 228.550927 
L 170.828233 228.398231 
L 171.073664 228.321882 
L 171.073664 228.245534 
L 171.342661 228.169186 
L 171.422616 227.863793 
L 171.528696 227.787445 
L 171.555123 227.405704 
L 171.695443 227.329355 
L 171.695443 227.253007 
L 172.015979 227.176659 
L 172.084572 227.023962 
L 172.212513 226.947614 
L 172.322696 226.794918 
L 172.440637 226.794918 
L 172.449034 226.489525 
L 172.649425 226.413176 
L 172.740562 226.107784 
L 172.946065 226.031435 
L 172.946065 225.802391 
L 173.213936 225.726042 
L 173.310406 225.191605 
L 173.493935 225.115256 
L 173.541519 224.809864 
L 173.7385 224.733515 
L 173.840121 224.504471 
L 173.863495 224.504471 
L 173.863495 224.351774 
L 174.05715 224.275426 
L 174.111019 223.970033 
L 174.279322 223.893685 
L 174.279322 223.588292 
L 174.566526 223.511944 
L 174.648853 223.282899 
L 174.693607 223.282899 
L 174.753113 222.977506 
L 174.856799 222.901158 
L 174.967261 222.672113 
L 175.011265 222.595765 
L 175.084376 222.290372 
L 175.157205 222.290372 
L 175.251462 221.832282 
L 175.294806 221.832282 
L 175.381197 221.603238 
L 175.467193 221.526889 
L 175.517176 220.839755 
L 175.905348 220.763407 
L 175.926293 220.458014 
L 176.072254 220.381666 
L 176.182707 220.076273 
L 176.435674 219.999925 
L 176.462819 219.618184 
L 176.712072 219.618184 
L 176.745503 219.083746 
L 176.938239 219.007398 
L 177.043737 218.778353 
L 177.148646 218.702005 
L 177.161719 218.549308 
L 177.324365 218.47296 
L 177.434167 215.037289 
L 177.581709 214.960941 
L 177.613631 214.655548 
L 177.810347 214.655548 
L 177.810347 214.350155 
L 178.005027 214.273807 
L 178.005027 214.121111 
L 178.129566 214.121111 
L 178.148176 213.663021 
L 178.376197 213.586673 
L 178.480044 213.28128 
L 178.559072 213.28128 
L 178.60754 212.746842 
L 178.734177 212.670494 
L 178.830093 212.212405 
L 178.865936 212.136056 
L 178.925523 211.754315 
L 179.103159 211.754315 
L 179.103159 211.601619 
L 179.349065 211.525271 
L 179.453477 211.296226 
L 179.643407 211.219878 
L 179.643407 211.067181 
L 180.23528 210.990833 
L 180.285156 208.165948 
L 180.510711 208.0896 
L 180.510711 208.013252 
L 180.771383 207.936904 
L 180.771383 207.860555 
L 181.171587 207.784207 
L 181.234837 207.020725 
L 181.402471 206.944376 
L 181.402471 206.868028 
L 181.74869 206.79168 
L 181.815135 206.562635 
L 182.113777 206.486287 
L 182.113777 206.409939 
L 182.238904 206.409939 
L 182.303643 206.104546 
L 182.407753 206.028198 
L 182.462057 205.722805 
L 182.677721 205.646456 
L 182.677721 205.570108 
L 182.799165 205.570108 
L 182.90539 205.112019 
L 183.020593 205.035671 
L 183.092238 204.730278 
L 183.25363 204.730278 
L 183.281967 204.501233 
L 183.42302 204.424885 
L 183.52113 203.814099 
L 183.590898 203.737751 
L 183.68352 203.203313 
L 183.945019 203.126965 
L 184.049515 202.668875 
L 184.395185 202.592527 
L 184.488367 202.134438 
L 184.655817 202.134438 
L 184.730249 201.218259 
L 185.068034 201.141911 
L 185.093768 200.989214 
L 185.382986 200.912866 
L 185.382986 200.760169 
L 185.597018 200.683821 
L 185.597018 200.454776 
L 185.725936 200.454776 
L 185.725936 200.30208 
L 185.845742 200.30208 
L 185.903308 199.920339 
L 186.261169 199.843991 
L 186.329524 199.538598 
L 186.47346 199.462249 
L 186.580694 198.851464 
L 186.74237 198.775115 
L 186.74237 198.622419 
L 186.980371 198.546071 
L 187.077049 198.240678 
L 187.123278 198.164329 
L 187.123278 198.087981 
L 187.421032 198.011633 
L 187.526779 197.248151 
L 187.594447 197.171802 
L 187.620696 197.019106 
L 187.855308 196.942758 
L 187.947603 194.117873 
L 188.362822 194.041525 
L 188.362822 193.965176 
L 188.527805 193.965176 
L 188.638179 189.995068 
L 188.705509 189.995068 
L 188.797255 189.536979 
L 188.944523 189.460631 
L 188.982903 188.697148 
L 189.07331 188.697148 
L 189.166736 188.239059 
L 189.359043 188.162711 
L 189.359043 188.086362 
L 189.623664 188.010014 
L 189.707697 187.628273 
L 189.828049 187.628273 
L 189.914493 186.864791 
L 190.138717 186.788442 
L 190.161648 186.635746 
L 190.3019 186.559398 
L 190.3019 186.483049 
L 190.572899 186.406701 
L 190.668746 185.185129 
L 190.706949 185.185129 
L 190.802117 184.72704 
L 190.997286 184.72704 
L 191.100346 184.268951 
L 191.131465 184.192602 
L 191.171843 184.039906 
L 191.427619 183.963558 
L 191.507031 183.734513 
L 191.56789 183.658165 
L 191.664857 183.42912 
L 191.728221 183.352772 
L 191.83036 182.894682 
L 192.027061 182.818334 
L 192.118745 182.1312 
L 192.157061 182.1312 
L 192.227593 181.215021 
L 192.492652 181.138673 
L 192.590734 180.604235 
L 192.714051 180.527887 
L 192.748322 179.688056 
L 192.856434 179.688056 
L 192.932875 178.848226 
L 193.090436 178.771878 
L 193.09884 178.619181 
L 193.218882 178.542833 
L 193.316027 177.855699 
L 193.396141 177.779351 
L 193.497863 177.473958 
L 193.533473 177.397609 
L 193.569015 177.168565 
L 193.745727 177.092216 
L 193.850963 176.93952 
L 193.875165 176.93952 
L 193.955614 176.481431 
L 194.15789 176.405082 
L 194.255586 175.6416 
L 194.27138 175.6416 
L 194.365871 174.954466 
L 194.407716 174.954466 
L 194.509322 171.900536 
L 194.561216 171.900536 
L 194.64137 171.366099 
L 194.751989 171.289751 
L 194.769935 171.137054 
L 195.009284 171.060706 
L 195.097631 170.602616 
L 195.210614 170.526268 
L 195.288053 170.068179 
L 195.422191 169.991831 
L 195.516015 169.610089 
L 195.599567 169.533741 
L 195.690072 168.388518 
L 195.84318 168.312169 
L 195.84318 168.006776 
L 195.992651 167.930428 
L 196.090847 167.548687 
L 196.117105 167.548687 
L 196.226516 166.937901 
L 196.254954 166.937901 
L 196.347081 166.327115 
L 196.382394 166.327115 
L 196.445792 166.021722 
L 196.681071 165.945374 
L 196.791863 165.487285 
L 196.881404 165.410936 
L 196.952274 164.571106 
L 196.997856 164.571106 
L 197.10454 161.593525 
L 197.111329 161.517176 
L 197.201618 161.135435 
L 197.309395 161.059087 
L 197.407651 160.600998 
L 197.429911 160.600998 
L 197.529754 159.379426 
L 197.659862 159.379426 
L 197.732244 158.997685 
L 197.841385 158.921336 
L 197.841385 158.844988 
L 198.10077 158.76864 
L 198.143655 158.005158 
L 198.318469 158.005158 
L 198.403158 154.722184 
L 198.596508 154.645835 
L 198.700762 154.264094 
L 198.818911 154.187746 
L 198.909609 153.958701 
L 198.936323 153.958701 
L 198.944535 153.729656 
L 199.124297 153.653308 
L 199.22163 153.424264 
L 199.272125 153.424264 
L 199.276159 152.966174 
L 199.410793 152.889826 
L 199.444802 152.508085 
L 199.756005 152.431736 
L 199.779581 152.126344 
L 199.930161 152.049995 
L 199.986561 151.820951 
L 200.056341 151.820951 
L 200.137426 150.828424 
L 200.216244 150.752075 
L 200.327182 149.988593 
L 200.336715 149.988593 
L 200.353862 149.530504 
L 200.516931 149.530504 
L 200.57913 148.079887 
L 200.710392 148.003539 
L 200.818461 147.621798 
L 200.837031 147.545449 
L 200.837031 147.392753 
L 201.137168 147.316405 
L 201.208276 146.858315 
L 201.313531 146.781967 
L 201.34427 146.552922 
L 201.673803 146.476574 
L 201.711048 146.094833 
L 201.943488 146.018485 
L 202.049941 145.636744 
L 202.154064 145.636744 
L 202.233504 145.255002 
L 202.35375 145.178654 
L 202.44258 144.873261 
L 202.530993 144.873261 
L 202.561501 144.49152 
L 202.666207 144.415172 
L 202.745195 143.804386 
L 202.798784 143.728038 
L 202.895527 143.498993 
L 203.024851 143.422645 
L 203.105641 142.582814 
L 203.215549 142.506466 
L 203.32482 141.819332 
L 203.345948 141.742984 
L 203.345948 141.666635 
L 203.510906 141.590287 
L 203.555936 141.361242 
L 203.690385 141.284894 
L 203.768372 140.903153 
L 203.876066 140.826805 
L 203.937555 140.445064 
L 204.003549 140.368715 
L 204.081814 139.910626 
L 204.193945 139.834278 
L 204.303868 139.376188 
L 204.35936 139.29984 
L 204.453015 138.841751 
L 204.508068 138.765402 
L 204.611621 138.460009 
L 204.673783 138.383661 
L 204.747806 138.078268 
L 205.01428 138.078268 
L 205.086977 137.085741 
L 205.304863 137.009393 
L 205.356023 136.474955 
L 205.547727 136.398607 
L 205.5867 136.093214 
L 205.79748 136.016866 
L 205.906953 135.253384 
L 205.952262 135.253384 
L 206.049589 134.184508 
L 206.160406 134.10816 
L 206.253881 133.497374 
L 206.310855 133.421026 
L 206.395301 132.504847 
L 206.447717 132.504847 
L 206.476621 131.894061 
L 206.579487 131.894061 
L 206.688596 131.206927 
L 206.768659 131.130579 
L 206.878025 130.2144 
L 206.921057 130.138052 
L 207.020192 129.527266 
L 207.064233 129.527266 
L 207.11482 129.298221 
L 207.385399 129.221873 
L 207.496459 128.91648 
L 207.514689 128.840132 
L 207.62499 128.229346 
L 207.750079 128.152998 
L 207.857735 127.236819 
L 207.918977 127.236819 
L 208.018072 126.167944 
L 208.064897 126.167944 
L 208.168258 125.480809 
L 208.195892 125.480809 
L 208.29604 123.801148 
L 208.393174 123.7248 
L 208.497222 122.884969 
L 208.508336 122.884969 
L 208.617888 121.739746 
L 208.748758 121.663398 
L 208.858135 121.434353 
L 209.02342 121.358005 
L 209.128827 121.052612 
L 209.167011 120.976264 
L 209.270433 120.441826 
L 209.427448 120.365478 
L 209.480278 119.449299 
L 209.697081 119.372951 
L 209.805705 118.914861 
L 210.007415 118.838513 
L 210.106331 118.304075 
L 210.192316 118.227727 
L 210.283528 117.616941 
L 210.339612 117.540593 
L 210.363117 117.387896 
L 210.505756 117.311548 
L 210.531272 116.777111 
L 210.830433 116.700762 
L 210.904486 116.089976 
L 210.991235 116.013628 
L 211.078663 115.631887 
L 211.143164 115.631887 
L 211.251243 114.410315 
L 211.36931 114.333967 
L 211.471884 113.570485 
L 211.516124 113.494136 
L 211.573901 112.501609 
L 211.7711 112.425261 
L 211.827066 112.119868 
L 211.989866 112.119868 
L 212.079932 111.738127 
L 212.168553 111.661779 
L 212.276977 111.203689 
L 212.335489 111.127341 
L 212.444961 110.440207 
L 212.547825 110.440207 
L 212.636257 109.44768 
L 212.674877 109.44768 
L 212.739069 108.531501 
L 212.799111 108.455153 
L 212.889307 108.073412 
L 212.968361 107.997064 
L 212.979071 107.844367 
L 213.080032 107.844367 
L 213.1766 106.928188 
L 213.19393 106.928188 
L 213.237185 106.546447 
L 213.318618 106.546447 
L 213.415875 106.088358 
L 213.471903 106.012009 
L 213.57969 105.630268 
L 213.618305 105.630268 
L 213.681237 103.263473 
L 213.77944 103.187125 
L 213.871565 102.118249 
L 213.981707 102.041901 
L 214.089373 101.202071 
L 214.167207 101.125722 
L 214.263822 97.613704 
L 214.416839 97.537355 
L 214.452875 97.002918 
L 214.548933 96.926569 
L 214.626676 96.544828 
L 215.016758 96.46848 
L 215.119544 95.552301 
L 215.243359 95.475953 
L 215.33805 94.407078 
L 215.461293 94.330729 
L 215.53961 93.185506 
L 215.639586 93.185506 
L 215.739034 92.57472 
L 215.757517 92.57472 
L 215.757517 92.345675 
L 215.889728 92.345675 
L 215.969607 91.734889 
L 216.129179 91.658541 
L 216.236723 91.200452 
L 216.315145 91.200452 
L 216.39243 90.666014 
L 216.487987 90.589666 
L 216.529136 90.436969 
L 216.605549 90.436969 
L 216.681653 89.826184 
L 216.716796 89.826184 
L 216.808341 88.604612 
L 216.981451 88.528264 
L 217.055268 87.688433 
L 217.173243 87.612085 
L 217.257947 87.38304 
L 217.285839 87.38304 
L 217.370809 86.772254 
L 217.418533 86.772254 
L 217.500611 86.390513 
L 217.595283 86.314165 
L 217.685692 85.321638 
L 217.724307 85.321638 
L 217.829149 84.329111 
L 217.839676 84.329111 
L 217.889975 83.794673 
L 217.996137 83.794673 
L 218.09058 83.031191 
L 218.160918 82.954842 
L 218.233202 82.725798 
L 218.375481 82.649449 
L 218.465134 81.885967 
L 218.544228 81.885967 
L 218.612893 81.275181 
L 218.676994 81.198833 
L 218.769519 80.206306 
L 218.886494 80.129958 
L 218.996385 77.763162 
L 218.997799 77.763162 
L 219.066944 76.770635 
L 219.184889 76.694287 
L 219.29236 76.159849 
L 219.325732 76.083501 
L 219.368058 75.778108 
L 219.444833 75.778108 
L 219.51442 74.632885 
L 219.609085 74.556536 
L 219.713486 73.411313 
L 219.761737 73.334965 
L 219.83084 72.953224 
L 219.903058 72.876875 
L 219.975672 72.342438 
L 220.159976 72.266089 
L 220.204445 71.808 
L 220.289771 71.808 
L 220.376681 71.349911 
L 220.405563 71.349911 
L 220.490636 70.739125 
L 220.549308 70.739125 
L 220.627902 69.746598 
L 220.843158 69.746598 
L 220.946046 69.364856 
L 220.961336 69.288508 
L 221.017925 69.059464 
L 221.24636 68.983115 
L 221.29084 68.066936 
L 221.650311 67.990588 
L 221.650311 67.91424 
L 221.800117 67.91424 
L 221.844523 66.845365 
L 221.946927 66.769016 
L 222.055986 66.61632 
L 222.224057 66.539972 
L 222.291224 66.234579 
L 222.39005 66.158231 
L 222.487772 64.936659 
L 222.513003 64.936659 
L 222.60659 64.554918 
L 222.720604 64.478569 
L 222.826435 62.646212 
L 222.849488 62.646212 
L 222.884015 62.188122 
L 223.20551 62.111774 
L 223.310342 61.806381 
L 223.383266 61.806381 
L 223.466501 61.042899 
L 223.545486 60.966551 
L 223.630771 59.974024 
L 223.656723 59.974024 
L 223.693657 59.668631 
L 223.869062 59.592282 
L 223.869062 59.363238 
L 224.068777 59.363238 
L 224.171604 58.752452 
L 224.309614 58.676104 
L 224.420145 57.53088 
L 224.445031 57.454532 
L 224.547932 56.767398 
L 224.636136 56.767398 
L 224.734874 55.164085 
L 224.769752 55.164085 
L 224.86417 54.476951 
L 224.99207 54.400602 
L 225.042885 53.866165 
L 225.120638 53.866165 
L 225.130845 53.026334 
L 225.233624 53.026334 
L 225.331302 52.720941 
L 225.412901 52.644593 
L 225.464097 51.728414 
L 225.525649 51.728414 
L 225.612379 50.583191 
L 225.677909 50.506842 
L 225.787607 49.590664 
L 225.816653 49.514315 
L 225.865782 49.285271 
L 226.070735 49.208922 
L 226.150162 48.598136 
L 226.242244 48.521788 
L 226.346796 47.834654 
L 226.405531 47.758306 
L 226.515344 47.452913 
L 226.538082 47.452913 
L 226.636298 47.14752 
L 226.85915 47.071172 
L 226.890771 46.842127 
L 227.011189 46.765779 
L 227.110646 45.315162 
L 227.160178 45.238814 
L 227.247914 45.086118 
L 227.388713 45.009769 
L 227.408612 44.55168 
L 227.513638 44.475332 
L 227.590793 44.017242 
L 227.681449 43.940894 
L 227.788954 43.330108 
L 227.909058 43.25376 
L 227.988118 42.872019 
L 228.074703 42.872019 
L 228.164365 41.879492 
L 228.190833 41.803144 
L 228.30151 40.963313 
L 228.329939 40.886965 
L 228.393961 40.199831 
L 228.462895 40.199831 
L 228.516668 39.436348 
L 228.608918 39.436348 
L 228.715061 38.443821 
L 228.749608 38.367473 
L 228.849939 38.138428 
L 228.872115 38.138428 
L 228.956399 36.687812 
L 228.985934 36.611464 
L 229.043623 35.924329 
L 229.119716 35.847981 
L 229.195092 35.313544 
L 229.259109 35.237195 
L 229.354728 34.855454 
L 229.598511 34.779106 
L 229.641111 34.550061 
L 229.780692 34.550061 
L 229.812542 34.015624 
L 229.89629 34.015624 
L 230.001732 33.633882 
L 230.137499 33.557534 
L 230.208913 33.175793 
L 230.276175 33.099445 
L 230.374883 32.259614 
L 230.512593 32.183266 
L 230.571523 31.725176 
L 230.627983 31.725176 
L 230.649302 31.496132 
L 230.841226 31.496132 
L 230.884112 31.114391 
L 231.096716 31.038042 
L 231.205634 30.27456 
L 231.224833 30.198212 
L 231.330811 28.97664 
L 231.348417 28.97664 
L 231.454068 26.991586 
L 231.519936 26.915238 
L 231.598964 26.457148 
L 231.666491 26.3808 
L 231.768583 25.388273 
L 231.7865 25.311925 
L 231.866558 24.319398 
L 231.998764 24.243049 
L 232.098722 23.250522 
L 232.182726 23.174174 
L 232.182726 23.097826 
L 232.346142 23.021478 
L 232.346142 22.945129 
L 232.546372 22.868781 
L 232.560814 22.716085 
L 232.804305 22.639736 
L 232.804305 22.563388 
L 233.012497 22.48704 
L 233.083838 22.181647 
L 233.263497 22.181647 
L 233.263497 21.876254 
L 233.582623 21.799906 
L 233.636911 21.112772 
L 233.836459 21.036424 
L 233.841276 20.807379 
L 233.991912 20.731031 
L 234.066621 19.662155 
L 234.209173 19.585807 
L 234.263569 18.211539 
L 234.336583 18.135191 
L 234.411496 17.677101 
L 234.518664 17.600753 
L 234.585759 16.684574 
L 234.652001 16.684574 
L 234.72904 16.379181 
L 234.89372 16.302833 
L 234.929515 15.844744 
L 235.058176 15.844744 
L 235.112276 15.157609 
L 235.229559 15.081261 
L 235.299222 14.69952 
L 235.388455 14.69952 
L 235.489331 14.241431 
L 235.518137 14.165082 
L 235.59786 13.096207 
L 235.663552 13.019859 
L 235.716523 12.638118 
L 235.941866 12.561769 
L 236.000072 12.256376 
L 236.110542 12.180028 
L 236.18071 11.950984 
L 237.095531 11.874635 
L 237.095531 11.798287 
L 237.245108 11.721939 
L 237.298623 11.340198 
L 237.829199 11.263849 
L 237.829199 11.187501 
L 238.075908 11.187501 
L 238.156494 10.424019 
L 238.266201 10.347671 
L 238.358862 10.118626 
L 238.561076 10.042278 
L 238.561076 9.965929 
L 238.708409 9.889581 
L 238.708409 9.736885 
L 238.891705 9.660536 
L 238.907655 9.202447 
L 239.206727 9.202447 
L 239.206727 8.973402 
L 239.360845 8.897054 
L 239.360845 8.744358 
L 239.499217 8.744358 
L 239.499217 8.591661 
L 240.430828 8.515313 
L 240.431959 8.20992 
L 242.280659 8.20992 
L 242.280659 7.980875 
L 253.817514 7.904527 
L 253.872175 7.446438 
L 263.687348 7.370089 
L 263.687348 7.217393 
L 269.866344 7.141045 
L 269.868 6.912 
L 360.8064 6.912 
L 360.8064 6.912 
" style="fill: none; stroke: #000080; stroke-width: 1.5; stroke-linecap: square"/>
   </g>
   <g id="line2d_36">
    <defs>
     <path id="mcff9fc97f9" d="M 0 6 
C 1.591219 6 3.117479 5.367802 4.242641 4.242641 
C 5.367802 3.117479 6 1.591219 6 0 
C 6 -1.591219 5.367802 -3.117479 4.242641 -4.242641 
C 3.117479 -5.367802 1.591219 -6 0 -6 
C -1.591219 -6 -3.117479 -5.367802 -4.242641 -4.242641 
C -5.367802 -3.117479 -6 -1.591219 -6 0 
C -6 1.591219 -5.367802 3.117479 -4.242641 4.242641 
C -3.117479 5.367802 -1.591219 6 0 6 
z
" style="stroke: #000080; stroke-width: 1.5"/>
    </defs>
    <g>
     <use xlink:href="#mcff9fc97f9" x="156.560344" y="259.013873" style="fill-opacity: 0; stroke: #000080; stroke-width: 1.5"/>
     <use xlink:href="#mcff9fc97f9" x="204.235823" y="139.452536" style="fill-opacity: 0; stroke: #000080; stroke-width: 1.5"/>
     <use xlink:href="#mcff9fc97f9" x="232.182726" y="23.097826" style="fill-opacity: 0; stroke: #000080; stroke-width: 1.5"/>
     <use xlink:href="#mcff9fc97f9" x="269.868" y="6.912" style="fill-opacity: 0; stroke: #000080; stroke-width: 1.5"/>
     <use xlink:href="#mcff9fc97f9" x="269.868" y="6.912" style="fill-opacity: 0; stroke: #000080; stroke-width: 1.5"/>
     <use xlink:href="#mcff9fc97f9" x="360.8064" y="6.912" style="fill-opacity: 0; stroke: #000080; stroke-width: 1.5"/>
    </g>
   </g>
   <g id="line2d_37">
    <path style="fill: none; stroke: #000080; stroke-width: 1.5; stroke-linecap: square"/>
    <g/>
   </g>
   <g id="line2d_38">
    <defs>
     <path id="m1c0be246b3" d="M 0 1.5 
C 0.397805 1.5 0.77937 1.341951 1.06066 1.06066 
C 1.341951 0.77937 1.5 0.397805 1.5 0 
C 1.5 -0.397805 1.341951 -0.77937 1.06066 -1.06066 
C 0.77937 -1.341951 0.397805 -1.5 0 -1.5 
C -0.397805 -1.5 -0.77937 -1.341951 -1.06066 -1.06066 
C -1.341951 -0.77937 -1.5 -0.397805 -1.5 0 
C -1.5 0.397805 -1.341951 0.77937 -1.06066 1.06066 
C -0.77937 1.341951 -0.397805 1.5 0 1.5 
z
" style="stroke: #ff00ff"/>
    </defs>
    <g>
     <use xlink:href="#m1c0be246b3" x="320.707466" y="9.202447" style="fill: #ff00ff; stroke: #ff00ff"/>
     <use xlink:href="#m1c0be246b3" x="320.707466" y="9.202447" style="fill: #ff00ff; stroke: #ff00ff"/>
    </g>
   </g>
   <g id="line2d_39">
    <path d="M 27.323974 298.944 
L 27.323974 296.882598 
L 40.363149 296.882598 
L 40.363149 296.271812 
L 47.990577 296.271812 
L 47.990577 294.744847 
L 53.402323 294.744847 
L 53.402323 294.210409 
L 57.6 294.210409 
L 57.6 293.370579 
L 61.029752 293.370579 
L 61.029752 292.683445 
L 63.929565 292.683445 
L 63.929565 292.4544 
L 66.441498 292.4544 
L 66.441498 292.149007 
L 68.65718 292.149007 
L 68.65718 291.919962 
L 70.639174 291.919962 
L 70.639174 291.614569 
L 74.068926 291.614569 
L 74.068926 291.461873 
L 75.574654 291.461873 
L 75.574654 291.232828 
L 76.96874 291.232828 
L 76.96874 291.080132 
L 79.480672 291.003784 
L 79.480672 290.698391 
L 80.621116 290.698391 
L 80.621116 290.469346 
L 82.713442 290.392998 
L 82.713442 289.782212 
L 84.596168 289.705864 
L 84.596168 289.476819 
L 85.471281 289.476819 
L 85.471281 289.171426 
L 87.1081 289.171426 
L 87.1081 289.018729 
L 90.007914 289.018729 
L 90.007914 288.866033 
L 91.305777 288.866033 
L 91.305777 288.636988 
L 95.752617 288.56064 
L 95.752617 288.484292 
L 98.077987 288.407944 
L 98.077987 288.255247 
L 98.510456 288.255247 
L 98.510456 287.873506 
L 98.933205 287.873506 
L 98.933205 287.568113 
L 100.147275 287.491765 
L 100.147275 287.415416 
L 100.535156 287.415416 
L 100.535156 287.26272 
L 104.961779 287.186372 
L 104.961779 287.033675 
L 109.520071 286.957327 
L 109.520071 286.880979 
L 110.897141 286.804631 
L 110.897141 286.499238 
L 111.54963 286.422889 
L 111.54963 286.346541 
L 113.765312 286.270193 
L 113.765312 286.193845 
L 115.575511 286.117496 
L 115.575511 286.041148 
L 116.583514 285.9648 
L 116.583514 285.888452 
L 118.598196 285.812104 
L 118.598196 285.659407 
L 119.034004 285.659407 
L 119.034004 285.506711 
L 120.28394 285.430362 
L 120.28394 285.354014 
L 121.329295 285.277666 
L 121.329295 285.201318 
L 123.145323 285.124969 
L 123.145323 285.048621 
L 123.4884 284.972273 
L 123.4884 284.895925 
L 125.115773 284.819576 
L 125.115773 284.743228 
L 125.729248 284.743228 
L 125.729248 284.590532 
L 126.323346 284.514184 
L 126.323346 284.437835 
L 127.549596 284.361487 
L 127.549596 284.285139 
L 129.78556 284.208791 
L 129.78556 284.056094 
L 130.107132 283.979746 
L 130.107132 283.903398 
L 131.040128 283.827049 
L 131.040128 283.750701 
L 132.846847 283.674353 
L 132.846847 283.598005 
L 135.657857 283.521656 
L 135.657857 283.445308 
L 137.574461 283.36896 
L 137.627979 283.216264 
L 137.893309 283.139915 
L 137.893309 283.063567 
L 140.173284 282.987219 
L 140.219905 282.758174 
L 141.128852 282.681826 
L 141.128852 282.605478 
L 141.868361 282.605478 
L 141.868361 282.452781 
L 144.71325 282.376433 
L 144.71325 282.300085 
L 145.326529 282.223736 
L 145.326529 282.147388 
L 145.538293 282.147388 
L 145.538293 281.765647 
L 148.57797 281.689299 
L 148.57797 281.612951 
L 149.194798 281.536602 
L 149.194798 281.460254 
L 150.343738 281.383906 
L 150.343738 281.231209 
L 152.953957 281.154861 
L 152.953957 281.078513 
L 153.627945 281.002165 
L 153.627945 280.925816 
L 153.8097 280.849468 
L 153.8097 280.77312 
L 155.013876 280.77312 
L 155.013876 280.620424 
L 155.660098 280.544075 
L 155.660098 280.467727 
L 156.383708 280.391379 
L 156.403417 280.085986 
L 157.175281 280.009638 
L 157.175281 279.933289 
L 157.549652 279.933289 
L 157.549652 279.780593 
L 157.715719 279.780593 
L 157.715719 279.551548 
L 157.880333 279.4752 
L 157.880333 279.398852 
L 161.010268 279.322504 
L 161.010268 279.246155 
L 161.676769 279.246155 
L 161.676769 279.093459 
L 165.121398 279.017111 
L 165.158538 278.864414 
L 166.564105 278.788066 
L 166.564105 278.711718 
L 167.173896 278.711718 
L 167.173896 278.559021 
L 167.839765 278.482673 
L 167.936043 278.253628 
L 169.333939 278.17728 
L 169.333939 278.024584 
L 170.764077 277.948235 
L 170.764077 277.871887 
L 173.541519 277.795539 
L 173.588983 277.566494 
L 175.084376 277.490146 
L 175.084376 277.413798 
L 175.88438 277.337449 
L 175.88438 277.261101 
L 178.357812 277.184753 
L 178.357812 277.108405 
L 178.522639 277.032056 
L 178.522639 276.955708 
L 178.728166 276.955708 
L 178.728166 276.803012 
L 180.384513 276.726664 
L 180.384513 276.650315 
L 181.086922 276.573967 
L 181.086922 276.497619 
L 181.376377 276.421271 
L 181.376377 276.344922 
L 182.002973 276.344922 
L 182.043341 276.115878 
L 182.233915 276.039529 
L 182.233915 275.886833 
L 182.447262 275.810485 
L 182.447262 275.734136 
L 182.624036 275.657788 
L 182.638693 275.352395 
L 182.929449 275.276047 
L 183.039725 274.665261 
L 183.272526 274.588913 
L 183.37612 274.359868 
L 184.377384 274.28352 
L 184.444052 273.978127 
L 184.559054 273.901779 
L 184.563463 273.749082 
L 184.778254 273.672734 
L 184.830484 273.520038 
L 185.033667 273.443689 
L 185.033667 273.367341 
L 186.465492 273.290993 
L 186.465492 273.214645 
L 186.805088 273.138296 
L 186.855894 272.909252 
L 187.743953 272.832904 
L 187.743953 272.756555 
L 188.225432 272.680207 
L 188.225432 272.527511 
L 188.790214 272.451162 
L 188.814848 272.298466 
L 189.660685 272.222118 
L 189.660685 272.145769 
L 190.751421 272.069421 
L 190.751421 271.993073 
L 191.227609 271.916725 
L 191.227609 271.840376 
L 191.860296 271.840376 
L 191.955771 271.611332 
L 192.283245 271.534984 
L 192.35622 271.382287 
L 192.870614 271.305939 
L 192.870614 271.229591 
L 193.448445 271.153242 
L 193.448445 271.076894 
L 194.075645 271.000546 
L 194.163184 270.847849 
L 194.247683 270.771501 
L 194.305557 270.466108 
L 194.433821 270.38976 
L 194.504125 270.237064 
L 194.795543 270.160715 
L 194.902717 269.855322 
L 195.102667 269.778974 
L 195.125312 269.626278 
L 195.27309 269.549929 
L 195.27309 269.473581 
L 195.621622 269.473581 
L 195.648543 269.015492 
L 196.057374 268.939144 
L 196.159994 268.710099 
L 196.422337 268.633751 
L 196.422337 268.481054 
L 196.657907 268.404706 
L 196.715764 268.175661 
L 197.086424 268.099313 
L 197.086424 268.022965 
L 197.429911 267.946616 
L 197.46103 267.717572 
L 197.806529 267.641224 
L 197.819608 267.488527 
L 198.137228 267.412179 
L 198.139371 267.259482 
L 198.744377 267.183134 
L 198.781681 266.877741 
L 199.065247 266.801393 
L 199.065247 266.725045 
L 199.490715 266.648696 
L 199.508651 266.496 
L 200.267969 266.419652 
L 200.330996 266.190607 
L 200.641125 266.114259 
L 200.641125 266.037911 
L 201.620467 265.961562 
L 201.716363 265.808866 
L 201.799432 265.732518 
L 201.903194 265.19808 
L 201.927731 265.121732 
L 202.015105 264.892687 
L 202.150603 264.816339 
L 202.150603 264.739991 
L 202.340046 264.663642 
L 202.445988 264.205553 
L 202.581813 264.129205 
L 202.672943 263.823812 
L 202.74184 263.747464 
L 202.818841 263.518419 
L 202.985154 263.442071 
L 203.052919 263.213026 
L 203.133589 263.136678 
L 203.133589 262.831285 
L 203.358938 262.754936 
L 203.441541 262.60224 
L 203.473836 262.60224 
L 203.546296 262.220499 
L 203.615276 262.144151 
L 203.70314 261.609713 
L 203.975294 261.533365 
L 203.986287 261.227972 
L 204.217222 261.227972 
L 204.246665 260.998927 
L 204.469854 260.922579 
L 204.511122 260.693534 
L 204.657126 260.617186 
L 204.714607 260.388141 
L 205.348723 260.311793 
L 205.348723 260.159096 
L 205.979112 260.082748 
L 205.979112 260.0064 
L 206.324724 259.930052 
L 206.324724 259.853704 
L 207.116149 259.777355 
L 207.201035 259.242918 
L 207.31187 259.166569 
L 207.41159 258.555784 
L 207.457337 258.479435 
L 207.565378 258.097694 
L 207.668931 258.021346 
L 207.752649 257.563256 
L 207.825759 257.563256 
L 207.916429 256.952471 
L 208.021873 256.952471 
L 208.021873 256.799774 
L 208.179568 256.799774 
L 208.204676 256.418033 
L 208.311017 256.341685 
L 208.383235 256.188988 
L 208.477448 256.11264 
L 208.529311 255.654551 
L 208.597012 255.654551 
L 208.597012 255.501854 
L 208.933115 255.425506 
L 209.042629 255.196461 
L 209.128827 255.120113 
L 209.228895 254.891068 
L 209.588992 254.81472 
L 209.609961 254.509327 
L 209.745693 254.432979 
L 209.83794 253.974889 
L 209.972043 253.898541 
L 210.0302 253.745845 
L 210.091583 253.745845 
L 210.168596 253.287755 
L 210.326167 253.211407 
L 210.416733 252.906014 
L 210.535706 252.829666 
L 210.634095 252.600621 
L 211.32366 252.524273 
L 211.427539 251.455398 
L 211.459224 251.455398 
L 211.531899 251.073656 
L 211.601151 250.997308 
L 211.709762 250.462871 
L 211.758641 250.386522 
L 211.864284 249.852085 
L 211.873576 249.852085 
L 211.912763 249.393995 
L 212.024715 249.317647 
L 212.123786 248.783209 
L 212.177697 248.706861 
L 212.22335 248.477816 
L 212.335489 248.401468 
L 212.438952 247.790682 
L 212.462978 247.714334 
L 212.51493 247.485289 
L 212.655082 247.408941 
L 212.674877 247.179896 
L 212.776495 247.179896 
L 212.882459 246.798155 
L 213.071316 246.721807 
L 213.071316 246.569111 
L 213.307143 246.492762 
L 213.307143 246.416414 
L 213.602303 246.340066 
L 213.602303 246.263718 
L 213.735546 246.263718 
L 213.783171 245.958325 
L 213.934582 245.958325 
L 213.934582 245.72928 
L 214.112299 245.652932 
L 214.221955 245.194842 
L 214.680105 245.118494 
L 214.783858 244.736753 
L 214.836843 244.660405 
L 214.946752 243.820574 
L 214.960774 243.744226 
L 215.042944 243.362485 
L 215.094336 243.286136 
L 215.175059 242.369958 
L 215.277847 242.293609 
L 215.380077 241.83552 
L 215.471526 241.759172 
L 215.576952 240.842993 
L 215.619295 240.766645 
L 215.726421 240.079511 
L 215.772626 240.003162 
L 215.865531 239.621421 
L 215.956318 239.545073 
L 215.956318 239.468725 
L 216.157972 239.392376 
L 216.215427 239.163332 
L 216.5243 239.086984 
L 216.5243 239.010635 
L 216.899442 238.934287 
L 216.974368 238.705242 
L 217.027032 238.628894 
L 217.027032 238.552546 
L 217.212146 238.476198 
L 217.31137 238.323501 
L 217.640922 238.247153 
L 217.743962 237.025581 
L 217.783965 236.949233 
L 217.876475 236.491144 
L 217.910207 236.414795 
L 218.019234 235.880358 
L 218.057913 235.804009 
L 218.123931 235.574965 
L 218.245712 235.498616 
L 218.346233 234.735134 
L 218.407601 234.735134 
L 218.450586 234.506089 
L 218.536985 234.429741 
L 218.6165 234.200696 
L 218.673398 234.124348 
L 218.738728 233.971652 
L 218.797402 233.895304 
L 218.875825 233.284518 
L 218.926271 233.208169 
L 219.007692 232.826428 
L 219.263808 232.826428 
L 219.281223 232.597384 
L 219.392992 232.521035 
L 219.495154 232.062946 
L 219.675341 231.986598 
L 219.759701 231.833901 
L 220.032625 231.757553 
L 220.1387 231.528508 
L 220.152 231.45216 
L 220.248148 230.765026 
L 220.269301 230.688678 
L 220.347098 229.619802 
L 220.393753 229.543454 
L 220.483452 228.932668 
L 220.605202 228.85632 
L 220.708105 228.245534 
L 220.742926 228.169186 
L 220.848284 227.5584 
L 220.870693 227.482052 
L 220.953693 226.794918 
L 220.984882 226.794918 
L 221.087633 226.107784 
L 221.152671 226.031435 
L 221.241342 225.573346 
L 221.391937 225.573346 
L 221.483825 224.657167 
L 221.518477 224.580819 
L 221.618977 224.122729 
L 221.808033 224.046381 
L 221.812294 223.817336 
L 222.015088 223.817336 
L 222.0187 223.588292 
L 222.279947 223.588292 
L 222.379423 222.748461 
L 222.395951 222.748461 
L 222.500099 221.832282 
L 222.514762 221.755934 
L 222.614174 221.0688 
L 222.67822 220.992452 
L 222.76752 220.076273 
L 222.821821 219.999925 
L 222.920775 219.465487 
L 222.960898 219.465487 
L 223.066528 219.160094 
L 223.080188 219.083746 
L 223.135864 218.778353 
L 223.233184 218.778353 
L 223.337862 218.243915 
L 223.357494 218.243915 
L 223.384385 217.709478 
L 223.486 217.633129 
L 223.496577 217.480433 
L 223.651756 217.480433 
L 223.677679 217.098692 
L 223.920278 217.022344 
L 223.920278 216.945995 
L 224.309081 216.869647 
L 224.412726 215.571727 
L 224.425443 215.495379 
L 224.533718 213.510325 
L 224.554246 213.510325 
L 224.652367 212.594146 
L 224.683741 212.517798 
L 224.79418 211.907012 
L 224.838797 211.830664 
L 224.949877 211.219878 
L 224.996182 211.143529 
L 225.077709 210.761788 
L 225.167543 210.68544 
L 225.277718 209.845609 
L 225.298462 209.769261 
L 225.403852 209.616565 
L 225.513154 209.540216 
L 225.611385 209.234824 
L 225.627789 209.234824 
L 225.687323 208.853082 
L 225.877554 208.776734 
L 225.888829 208.624038 
L 226.142428 208.547689 
L 226.247534 207.020725 
L 226.260991 207.020725 
L 226.364006 205.799153 
L 226.377857 205.722805 
L 226.460755 204.653929 
L 226.501593 204.653929 
L 226.566939 203.814099 
L 226.661242 203.737751 
L 226.758819 203.356009 
L 226.799015 203.279661 
L 226.903312 202.668875 
L 227.137721 202.592527 
L 227.232407 202.210786 
L 227.299814 202.134438 
L 227.39188 201.676348 
L 227.427135 201.6 
L 227.510941 201.218259 
L 227.557637 201.141911 
L 227.656484 200.836518 
L 227.784524 200.760169 
L 227.853958 199.385901 
L 227.923137 199.309553 
L 228.010896 198.087981 
L 228.041952 198.011633 
L 228.109138 197.553544 
L 228.158285 197.553544 
L 228.263106 196.561016 
L 228.287711 196.484668 
L 228.396105 196.026579 
L 228.405968 195.950231 
L 228.505585 195.797534 
L 228.558811 195.721186 
L 228.65297 194.881355 
L 228.709578 194.805007 
L 228.743293 194.423266 
L 228.864587 194.346918 
L 228.901783 193.965176 
L 228.9984 193.965176 
L 229.104026 193.736132 
L 229.143638 193.659784 
L 229.242715 193.278042 
L 229.283264 193.278042 
L 229.376317 191.903774 
L 229.402762 191.827426 
L 229.507765 190.682202 
L 229.521102 190.605854 
L 229.60012 189.689675 
L 229.697228 189.613327 
L 229.765145 189.155238 
L 229.876081 189.078889 
L 229.979271 188.315407 
L 230.024166 188.239059 
L 230.127331 187.933666 
L 230.159381 187.857318 
L 230.236547 187.475576 
L 230.330432 187.399228 
L 230.438478 187.170184 
L 230.523704 187.093835 
L 230.602826 186.864791 
L 230.676297 186.864791 
L 230.786536 185.261478 
L 230.812203 185.261478 
L 230.91565 184.116254 
L 230.939268 184.039906 
L 231.002854 183.276424 
L 231.085567 183.200075 
L 231.163105 182.283896 
L 231.236269 182.207548 
L 231.334847 181.367718 
L 231.444587 181.291369 
L 231.553328 180.909628 
L 231.641242 180.83328 
L 231.746343 180.680584 
L 231.827287 180.604235 
L 231.937042 179.993449 
L 231.989554 179.917101 
L 232.072283 179.000922 
L 232.150083 178.924574 
L 232.251688 178.23744 
L 232.304376 178.23744 
L 232.392325 177.855699 
L 232.457413 177.779351 
L 232.559095 177.015868 
L 232.585545 176.93952 
L 232.685514 175.946993 
L 232.721332 175.870645 
L 232.754701 175.488904 
L 232.957047 175.412555 
L 232.988993 175.107162 
L 233.120574 175.030814 
L 233.23102 173.885591 
L 233.245277 173.809242 
L 233.346425 172.587671 
L 233.375084 172.511322 
L 233.479467 171.366099 
L 233.526219 171.366099 
L 233.633665 170.602616 
L 233.647296 170.526268 
L 233.750829 169.839134 
L 233.7821 169.762786 
L 233.849944 169.457393 
L 233.960987 169.381045 
L 234.01006 168.999304 
L 234.105922 168.922955 
L 234.188694 168.617562 
L 234.217043 168.617562 
L 234.320313 168.083125 
L 234.336896 168.083125 
L 234.447909 166.785205 
L 234.473386 166.708856 
L 234.573409 165.792678 
L 234.611051 165.716329 
L 234.714332 164.800151 
L 234.730265 164.723802 
L 234.834419 163.96032 
L 234.888254 163.883972 
L 234.987008 163.044141 
L 235.034081 162.967793 
L 235.114977 162.357007 
L 235.242677 162.280659 
L 235.31259 162.051614 
L 235.399394 161.975266 
L 235.488154 159.761167 
L 235.52313 159.684819 
L 235.62358 159.074033 
L 235.639054 158.997685 
L 235.741211 158.310551 
L 235.764417 158.234202 
L 235.852052 157.547068 
L 235.902193 157.47072 
L 236.009804 157.088979 
L 236.015812 157.088979 
L 236.091748 156.707238 
L 236.180143 156.630889 
L 236.216404 156.401845 
L 236.361596 156.325496 
L 236.469969 155.485666 
L 236.484762 155.409318 
L 236.586048 154.645835 
L 236.632335 154.569487 
L 236.739714 153.57696 
L 236.747419 153.57696 
L 236.830602 152.889826 
L 236.861257 152.889826 
L 236.945028 152.508085 
L 236.975497 152.508085 
L 237.052537 151.591906 
L 237.13681 151.591906 
L 237.178268 151.057468 
L 237.282851 150.98112 
L 237.390845 150.217638 
L 237.409183 150.141289 
L 237.513286 148.919718 
L 237.523058 148.843369 
L 237.597103 147.850842 
L 237.660376 147.850842 
L 237.758932 147.240056 
L 237.82764 147.240056 
L 237.919121 146.400226 
L 237.960698 146.400226 
L 238.065137 145.713092 
L 238.09359 145.636744 
L 238.196022 145.407699 
L 238.227584 145.331351 
L 238.328532 144.49152 
L 238.350021 144.415172 
L 238.455342 143.117252 
L 238.476436 143.040904 
L 238.546329 142.659162 
L 238.597768 142.582814 
L 238.699235 141.513939 
L 238.738629 141.437591 
L 238.803857 140.445064 
L 238.88532 140.368715 
L 238.981832 139.681581 
L 238.999171 139.681581 
L 239.097044 138.918099 
L 239.158865 138.841751 
L 239.253023 137.009393 
L 239.275406 137.009393 
L 239.379513 135.482428 
L 239.400074 135.40608 
L 239.505871 134.642598 
L 239.517985 134.642598 
L 239.58128 134.10816 
L 239.644835 134.031812 
L 239.719221 133.268329 
L 239.846592 133.268329 
L 239.846592 133.115633 
L 239.967311 133.115633 
L 240.075277 131.970409 
L 240.080348 131.894061 
L 240.176208 130.672489 
L 240.210342 130.596141 
L 240.318746 129.832659 
L 240.390292 129.756311 
L 240.487973 129.069176 
L 240.525823 128.992828 
L 240.612501 128.534739 
L 240.638248 128.534739 
L 240.731981 128.000301 
L 240.762899 128.000301 
L 240.869059 127.084122 
L 240.877013 127.084122 
L 240.980555 126.015247 
L 241.011726 125.938899 
L 241.094889 125.02272 
L 241.128269 124.946372 
L 241.206361 124.564631 
L 241.246261 124.488282 
L 241.33702 123.7248 
L 241.39449 123.648452 
L 241.49865 123.266711 
L 241.602874 123.190362 
L 241.711385 120.747219 
L 241.717935 120.670871 
L 241.828097 119.143906 
L 241.834396 119.143906 
L 241.914217 118.53312 
L 241.985371 118.456772 
L 242.095639 117.464245 
L 242.133078 117.387896 
L 242.237965 117.082504 
L 242.261172 117.006155 
L 242.362287 115.708235 
L 242.387176 115.631887 
L 242.495525 114.410315 
L 242.546131 114.333967 
L 242.655782 113.799529 
L 242.687109 113.723181 
L 242.796342 113.188744 
L 242.858677 113.112395 
L 242.929721 112.654306 
L 243.039528 112.577958 
L 243.146544 110.821948 
L 243.158876 110.7456 
L 243.240491 109.829421 
L 243.330286 109.753073 
L 243.421971 109.065939 
L 243.47746 108.989591 
L 243.572261 107.920715 
L 243.619292 107.844367 
L 243.720031 107.538974 
L 243.737306 107.462626 
L 243.824955 106.088358 
L 243.854961 106.012009 
L 243.943004 105.172179 
L 243.991926 105.095831 
L 244.09963 104.408696 
L 244.114143 104.332348 
L 244.183203 103.950607 
L 244.267881 103.874259 
L 244.37769 103.339821 
L 244.386858 103.263473 
L 244.489232 101.507464 
L 244.51219 101.431115 
L 244.621672 100.438588 
L 244.645372 100.36224 
L 244.748331 99.217016 
L 244.837669 99.140668 
L 244.944923 98.377186 
L 244.993441 98.300838 
L 245.103519 97.079266 
L 245.109341 97.002918 
L 245.212254 96.46848 
L 245.228738 96.46848 
L 245.323853 95.17056 
L 245.352085 95.094212 
L 245.439821 94.483426 
L 245.477223 94.407078 
L 245.516796 94.025336 
L 245.623518 93.948988 
L 245.731004 92.422024 
L 245.751473 92.422024 
L 245.857724 91.734889 
L 245.874161 91.658541 
L 245.929972 90.742362 
L 245.99538 90.666014 
L 246.102274 90.284273 
L 246.146732 90.207925 
L 246.253934 89.291746 
L 246.258415 89.291746 
L 246.338729 87.764781 
L 246.377521 87.764781 
L 246.464225 87.001299 
L 246.537781 86.924951 
L 246.6327 85.703379 
L 246.709977 85.627031 
L 246.819342 85.168941 
L 246.84767 85.092593 
L 246.948402 84.252762 
L 246.963593 84.252762 
L 247.068954 83.031191 
L 247.093576 82.954842 
L 247.187318 82.038664 
L 247.217936 82.038664 
L 247.316083 81.580574 
L 247.342419 81.504226 
L 247.450048 80.206306 
L 247.464684 80.129958 
L 247.534593 79.59552 
L 247.612893 79.59552 
L 247.705318 79.137431 
L 247.742774 79.061082 
L 247.832123 78.526645 
L 247.888817 78.450296 
L 247.995037 77.457769 
L 248.018476 77.381421 
L 248.128627 76.923332 
L 248.15085 76.846984 
L 248.258291 76.159849 
L 248.263065 76.083501 
L 248.32279 75.472715 
L 248.427038 75.396367 
L 248.50584 74.40384 
L 248.541297 74.327492 
L 248.642152 73.716706 
L 248.656328 73.640358 
L 248.755988 73.10592 
L 248.785464 73.029572 
L 248.881125 72.800527 
L 248.906225 72.724179 
L 249.002279 71.502607 
L 249.021489 71.502607 
L 249.126078 70.51008 
L 249.144877 70.433732 
L 249.215773 69.364856 
L 249.293606 69.364856 
L 249.390096 68.677722 
L 249.462734 68.601374 
L 249.568386 67.379802 
L 249.611897 67.303454 
L 249.71713 66.692668 
L 249.729001 66.61632 
L 249.812164 66.005534 
L 249.921887 65.929186 
L 249.986108 65.089355 
L 250.034504 65.013007 
L 250.145101 63.944132 
L 250.167898 63.867784 
L 250.261894 63.333346 
L 250.428159 63.256998 
L 250.532241 62.875256 
L 250.549422 62.798908 
L 250.651787 62.188122 
L 250.701648 62.111774 
L 250.80332 61.730033 
L 250.898611 61.653685 
L 251.004515 61.119247 
L 251.031574 61.042899 
L 251.090582 60.508461 
L 251.158616 60.432113 
L 251.215443 60.050372 
L 251.303218 59.974024 
L 251.408515 58.981496 
L 251.444071 58.905148 
L 251.54871 57.683576 
L 251.639935 57.607228 
L 251.736921 56.920094 
L 251.803526 56.843746 
L 251.909263 55.316781 
L 251.931124 55.316781 
L 252.041152 54.400602 
L 252.064202 54.324254 
L 252.145929 53.63712 
L 252.225611 53.560772 
L 252.334896 52.186504 
L 252.358189 52.110155 
L 252.398463 51.499369 
L 252.483045 51.499369 
L 252.583736 51.04128 
L 252.624004 50.964932 
L 252.719591 50.201449 
L 252.812938 50.125101 
L 252.881916 49.514315 
L 253.002544 49.437967 
L 253.113068 48.44544 
L 253.128509 48.369092 
L 253.225239 47.529261 
L 253.248257 47.452913 
L 253.289413 47.300216 
L 253.390093 47.223868 
L 253.490125 46.078645 
L 253.512144 46.002296 
L 253.618488 45.467859 
L 253.658731 45.391511 
L 253.745425 44.628028 
L 253.811406 44.55168 
L 253.909338 43.635501 
L 253.930873 43.559153 
L 254.018412 42.642974 
L 254.075231 42.566626 
L 254.137994 42.184885 
L 254.257254 42.108536 
L 254.35743 41.574099 
L 254.428076 41.497751 
L 254.532374 41.116009 
L 254.561854 41.039661 
L 254.672206 40.428875 
L 254.675601 40.428875 
L 254.784025 39.818089 
L 254.823431 39.818089 
L 254.846678 39.589045 
L 254.961438 39.512696 
L 255.037662 39.054607 
L 255.134192 38.978259 
L 255.240012 38.06208 
L 255.356804 37.985732 
L 255.464842 36.840508 
L 255.515535 36.76416 
L 255.571858 36.611464 
L 255.707011 36.535115 
L 255.808368 36.000678 
L 255.872982 36.000678 
L 255.977608 35.389892 
L 256.076339 35.313544 
L 256.137686 35.160847 
L 256.218194 35.084499 
L 256.248369 34.931802 
L 256.407717 34.855454 
L 256.517308 34.321016 
L 256.598223 34.244668 
L 256.698998 33.862927 
L 256.816096 33.786579 
L 256.899132 33.328489 
L 256.934257 33.328489 
L 257.009935 32.794052 
L 257.184537 32.717704 
L 257.265689 32.335962 
L 257.397047 32.259614 
L 257.503048 31.954221 
L 257.757722 31.877873 
L 257.808623 31.57248 
L 257.970835 31.496132 
L 258.066309 31.190739 
L 258.168262 31.114391 
L 258.227729 30.885346 
L 258.502035 30.808998 
L 258.574087 30.656301 
L 258.721989 30.579953 
L 258.82565 30.27456 
L 259.022771 30.198212 
L 259.022771 30.121864 
L 259.432602 30.045515 
L 259.432602 29.969167 
L 259.551432 29.892819 
L 259.573931 29.663774 
L 260.084112 29.587426 
L 260.084112 29.511078 
L 260.254824 29.511078 
L 260.254824 29.358381 
L 260.438999 29.282033 
L 260.485873 29.129336 
L 260.749178 29.052988 
L 260.749178 28.97664 
L 261.007031 28.900292 
L 261.007031 28.823944 
L 261.495691 28.747595 
L 261.582015 28.518551 
L 261.620702 28.442202 
L 261.620702 28.365854 
L 261.89343 28.289506 
L 261.89343 28.213158 
L 262.21527 28.136809 
L 262.31307 27.907765 
L 262.33984 27.907765 
L 262.383834 27.67872 
L 262.608047 27.602372 
L 262.688039 27.449675 
L 262.901828 27.373327 
L 262.924353 27.220631 
L 263.147325 27.220631 
L 263.147325 26.991586 
L 263.290872 26.915238 
L 263.380578 26.609845 
L 263.57406 26.533496 
L 263.580537 26.151755 
L 264.120769 26.075407 
L 264.213451 25.846362 
L 264.65391 25.770014 
L 264.65391 25.693666 
L 264.944873 25.617318 
L 264.944873 25.540969 
L 265.075262 25.464621 
L 265.075262 25.388273 
L 265.485829 25.311925 
L 265.485829 25.235576 
L 265.850004 25.159228 
L 265.850004 25.006532 
L 266.018339 24.930184 
L 266.018339 24.853835 
L 266.476121 24.777487 
L 266.502559 24.624791 
L 267.578869 24.548442 
L 267.686536 24.319398 
L 267.872813 24.243049 
L 267.872813 24.166701 
L 268.330026 24.090353 
L 268.427158 23.861308 
L 268.590842 23.861308 
L 268.613662 23.632264 
L 268.961564 23.555915 
L 268.961564 23.479567 
L 269.138739 23.403219 
L 269.138739 23.326871 
L 269.653385 23.250522 
L 269.653385 23.174174 
L 270.106463 23.097826 
L 270.194119 22.945129 
L 270.399697 22.868781 
L 270.446271 22.639736 
L 270.679643 22.563388 
L 270.679643 22.410692 
L 270.897083 22.334344 
L 270.897083 22.257995 
L 272.396866 22.181647 
L 272.396866 22.105299 
L 273.554041 22.028951 
L 273.560496 21.876254 
L 276.906839 21.799906 
L 276.906839 21.723558 
L 277.264825 21.647209 
L 277.280112 21.494513 
L 277.531676 21.418165 
L 277.625525 21.18912 
L 277.673508 21.112772 
L 277.766031 20.578334 
L 277.808758 20.501986 
L 277.860205 20.349289 
L 277.977563 20.272941 
L 278.036428 20.043896 
L 278.187289 19.967548 
L 278.295499 19.509459 
L 278.359585 19.433111 
L 278.470225 19.051369 
L 278.549828 18.975021 
L 278.658143 18.516932 
L 278.6962 18.440584 
L 278.791583 18.287887 
L 278.850864 18.211539 
L 278.913557 18.058842 
L 279.041747 17.982494 
L 279.133432 17.448056 
L 279.16428 17.371708 
L 279.253763 16.455529 
L 279.29654 16.379181 
L 279.371844 15.768395 
L 279.438232 15.692047 
L 279.548973 15.463002 
L 279.631104 15.386654 
L 279.733077 14.623172 
L 279.836421 14.546824 
L 279.944711 14.012386 
L 279.983405 14.012386 
L 280.075684 13.706993 
L 280.131032 13.630645 
L 280.182773 13.4016 
L 280.290262 13.325252 
L 280.355253 13.096207 
L 280.530541 13.019859 
L 280.560844 12.867162 
L 280.800649 12.790814 
L 280.800649 12.714466 
L 283.611951 12.638118 
L 283.611951 12.561769 
L 284.674648 12.485421 
L 284.674648 12.409073 
L 284.833204 12.409073 
L 284.833204 12.256376 
L 286.598134 12.180028 
L 286.598134 12.10368 
L 289.341503 12.027332 
L 289.358817 11.874635 
L 289.605881 11.874635 
L 289.607654 11.645591 
L 289.846146 11.569242 
L 289.929997 11.416546 
L 289.994824 11.416546 
L 290.05946 11.187501 
L 290.128066 11.111153 
L 290.23541 10.882108 
L 290.306043 10.80576 
L 290.353452 10.576715 
L 290.739311 10.500367 
L 290.739311 10.424019 
L 296.77502 10.347671 
L 296.855029 10.118626 
L 301.491091 10.042278 
L 301.491091 9.965929 
L 302.033099 9.889581 
L 302.033099 9.813233 
L 303.585095 9.736885 
L 303.585095 9.660536 
L 310.14884 9.584188 
L 310.14884 9.50784 
L 310.85916 9.431492 
L 310.85916 9.355144 
L 320.707466 9.278795 
L 320.707466 9.202447 
L 360.8064 9.202447 
L 360.8064 9.202447 
" style="fill: none; stroke: #ff00ff; stroke-width: 1.5; stroke-linecap: square"/>
   </g>
   <g id="line2d_40">
    <defs>
     <path id="m45a1aca480" d="M 0 8.485281 
L 5.091169 0 
L 0 -8.485281 
L -5.091169 0 
z
" style="stroke: #ff00ff; stroke-width: 1.5; stroke-linejoin: miter"/>
    </defs>
    <g>
     <use xlink:href="#m45a1aca480" x="142.865233" y="282.376433" style="fill-opacity: 0; stroke: #ff00ff; stroke-width: 1.5; stroke-linejoin: miter"/>
     <use xlink:href="#m45a1aca480" x="227.563466" y="201.065562" style="fill-opacity: 0; stroke: #ff00ff; stroke-width: 1.5; stroke-linejoin: miter"/>
     <use xlink:href="#m45a1aca480" x="249.105835" y="70.586428" style="fill-opacity: 0; stroke: #ff00ff; stroke-width: 1.5; stroke-linejoin: miter"/>
     <use xlink:href="#m45a1aca480" x="320.707466" y="9.202447" style="fill-opacity: 0; stroke: #ff00ff; stroke-width: 1.5; stroke-linejoin: miter"/>
     <use xlink:href="#m45a1aca480" x="320.707466" y="9.202447" style="fill-opacity: 0; stroke: #ff00ff; stroke-width: 1.5; stroke-linejoin: miter"/>
     <use xlink:href="#m45a1aca480" x="360.8064" y="9.202447" style="fill-opacity: 0; stroke: #ff00ff; stroke-width: 1.5; stroke-linejoin: miter"/>
    </g>
   </g>
   <g id="line2d_41">
    <path style="fill: none; stroke: #ff00ff; stroke-width: 1.5; stroke-linecap: square"/>
    <g/>
   </g>
   <g id="line2d_42">
    <path d="M 274.255293 21.799906 
" clip-path="url(#p84e69e43e3)" style="fill: none; stroke: #ff00ff; stroke-width: 1.5; stroke-linecap: square"/>
    <defs>
     <path id="m6f9c7771d0" d="M -12 12 
L 12 -12 
M -12 -12 
L 12 12 
" style="stroke: #ff00ff"/>
    </defs>
    <g clip-path="url(#p84e69e43e3)">
     <use xlink:href="#m6f9c7771d0" x="274.255293" y="21.799906" style="fill: #ff00ff; stroke: #ff00ff"/>
    </g>
   </g>
   <g id="line2d_43">
    <path d="M 360.8064 9.202447 
L 380.514816 293.10336 
" style="fill: none; stroke: #ff00ff; stroke-width: 1.5; stroke-linecap: square"/>
    <g>
     <use xlink:href="#m45a1aca480" x="360.8064" y="9.202447" style="fill-opacity: 0; stroke: #ff00ff; stroke-width: 1.5; stroke-linejoin: miter"/>
     <use xlink:href="#m45a1aca480" x="380.514816" y="293.10336" style="fill-opacity: 0; stroke: #ff00ff; stroke-width: 1.5; stroke-linejoin: miter"/>
    </g>
   </g>
   <g id="line2d_44">
    <path d="M 360.8064 6.912 
L 380.514816 152.928 
" style="fill: none; stroke: #000080; stroke-width: 1.5; stroke-linecap: square"/>
    <g>
     <use xlink:href="#mcff9fc97f9" x="360.8064" y="6.912" style="fill-opacity: 0; stroke: #000080; stroke-width: 1.5"/>
     <use xlink:href="#mcff9fc97f9" x="380.514816" y="152.928" style="fill-opacity: 0; stroke: #000080; stroke-width: 1.5"/>
    </g>
   </g>
   <g id="line2d_45">
    <path d="M 360.8064 298.944 
L 360.8064 6.912 
" style="fill: none; stroke: #000000; stroke-width: 1.5; stroke-linecap: square"/>
   </g>
   <g id="patch_3">
    <path d="M 57.6 298.944 
L 360.8064 298.944 
" style="fill: none; stroke: #000000; stroke-width: 0.8; stroke-linejoin: miter; stroke-linecap: square"/>
   </g>
   <g id="patch_4">
    <path d="M 57.6 6.912 
L 360.8064 6.912 
" style="fill: none; stroke: #000000; stroke-width: 0.8; stroke-linejoin: miter; stroke-linecap: square"/>
   </g>
   <g id="text_13">
    <!-- GA -->
    <g transform="translate(386.578944 296.966485)scale(0.14 -0.14)">
     <defs>
      <path id="DejaVuSans-47" d="M 3809 666 
L 3809 1919 
L 2778 1919 
L 2778 2438 
L 4434 2438 
L 4434 434 
Q 4069 175 3628 42 
Q 3188 -91 2688 -91 
Q 1594 -91 976 548 
Q 359 1188 359 2328 
Q 359 3472 976 4111 
Q 1594 4750 2688 4750 
Q 3144 4750 3555 4637 
Q 3966 4525 4313 4306 
L 4313 3634 
Q 3963 3931 3569 4081 
Q 3175 4231 2741 4231 
Q 1884 4231 1454 3753 
Q 1025 3275 1025 2328 
Q 1025 1384 1454 906 
Q 1884 428 2741 428 
Q 3075 428 3337 486 
Q 3600 544 3809 666 
z
" transform="scale(0.015625)"/>
      <path id="DejaVuSans-41" d="M 2188 4044 
L 1331 1722 
L 3047 1722 
L 2188 4044 
z
M 1831 4666 
L 2547 4666 
L 4325 0 
L 3669 0 
L 3244 1197 
L 1141 1197 
L 716 0 
L 50 0 
L 1831 4666 
z
" transform="scale(0.015625)"/>
     </defs>
     <use xlink:href="#DejaVuSans-47"/>
     <use xlink:href="#DejaVuSans-41" x="77.490234"/>
    </g>
   </g>
   <g id="text_14">
    <!-- LCGA -->
    <g transform="translate(386.578944 156.791125)scale(0.14 -0.14)">
     <defs>
      <path id="DejaVuSans-4c" d="M 628 4666 
L 1259 4666 
L 1259 531 
L 3531 531 
L 3531 0 
L 628 0 
L 628 4666 
z
" transform="scale(0.015625)"/>
      <path id="DejaVuSans-43" d="M 4122 4306 
L 4122 3641 
Q 3803 3938 3442 4084 
Q 3081 4231 2675 4231 
Q 1875 4231 1450 3742 
Q 1025 3253 1025 2328 
Q 1025 1406 1450 917 
Q 1875 428 2675 428 
Q 3081 428 3442 575 
Q 3803 722 4122 1019 
L 4122 359 
Q 3791 134 3420 21 
Q 3050 -91 2638 -91 
Q 1578 -91 968 557 
Q 359 1206 359 2328 
Q 359 3453 968 4101 
Q 1578 4750 2638 4750 
Q 3056 4750 3426 4639 
Q 3797 4528 4122 4306 
z
" transform="scale(0.015625)"/>
     </defs>
     <use xlink:href="#DejaVuSans-4c"/>
     <use xlink:href="#DejaVuSans-43" x="55.712891"/>
     <use xlink:href="#DejaVuSans-47" x="125.537109"/>
     <use xlink:href="#DejaVuSans-41" x="203.027344"/>
    </g>
   </g>
   <g id="text_15">
    <!-- best 2009 -->
    <g transform="translate(386.578944 16.615765)scale(0.14 -0.14)">
     <defs>
      <path id="DejaVuSans-62" d="M 3116 1747 
Q 3116 2381 2855 2742 
Q 2594 3103 2138 3103 
Q 1681 3103 1420 2742 
Q 1159 2381 1159 1747 
Q 1159 1113 1420 752 
Q 1681 391 2138 391 
Q 2594 391 2855 752 
Q 3116 1113 3116 1747 
z
M 1159 2969 
Q 1341 3281 1617 3432 
Q 1894 3584 2278 3584 
Q 2916 3584 3314 3078 
Q 3713 2572 3713 1747 
Q 3713 922 3314 415 
Q 2916 -91 2278 -91 
Q 1894 -91 1617 61 
Q 1341 213 1159 525 
L 1159 0 
L 581 0 
L 581 4863 
L 1159 4863 
L 1159 2969 
z
" transform="scale(0.015625)"/>
      <path id="DejaVuSans-39" d="M 703 97 
L 703 672 
Q 941 559 1184 500 
Q 1428 441 1663 441 
Q 2288 441 2617 861 
Q 2947 1281 2994 2138 
Q 2813 1869 2534 1725 
Q 2256 1581 1919 1581 
Q 1219 1581 811 2004 
Q 403 2428 403 3163 
Q 403 3881 828 4315 
Q 1253 4750 1959 4750 
Q 2769 4750 3195 4129 
Q 3622 3509 3622 2328 
Q 3622 1225 3098 567 
Q 2575 -91 1691 -91 
Q 1453 -91 1209 -44 
Q 966 3 703 97 
z
M 1959 2075 
Q 2384 2075 2632 2365 
Q 2881 2656 2881 3163 
Q 2881 3666 2632 3958 
Q 2384 4250 1959 4250 
Q 1534 4250 1286 3958 
Q 1038 3666 1038 3163 
Q 1038 2656 1286 2365 
Q 1534 2075 1959 2075 
z
" transform="scale(0.015625)"/>
     </defs>
     <use xlink:href="#DejaVuSans-62"/>
     <use xlink:href="#DejaVuSans-65" x="63.476562"/>
     <use xlink:href="#DejaVuSans-73" x="125"/>
     <use xlink:href="#DejaVuSans-74" x="177.099609"/>
     <use xlink:href="#DejaVuSans-20" x="216.308594"/>
     <use xlink:href="#DejaVuSans-32" x="248.095703"/>
     <use xlink:href="#DejaVuSans-30" x="311.71875"/>
     <use xlink:href="#DejaVuSans-30" x="375.341797"/>
     <use xlink:href="#DejaVuSans-39" x="438.964844"/>
    </g>
   </g>
   <g id="text_16">
    <!-- bbob f1-f5, 5-D -->
    <g transform="translate(60.632064 17.582726)scale(0.102 -0.102)">
     <defs>
      <path id="DejaVuSans-35" d="M 691 4666 
L 3169 4666 
L 3169 4134 
L 1269 4134 
L 1269 2991 
Q 1406 3038 1543 3061 
Q 1681 3084 1819 3084 
Q 2600 3084 3056 2656 
Q 3513 2228 3513 1497 
Q 3513 744 3044 326 
Q 2575 -91 1722 -91 
Q 1428 -91 1123 -41 
Q 819 9 494 109 
L 494 744 
Q 775 591 1075 516 
Q 1375 441 1709 441 
Q 2250 441 2565 725 
Q 2881 1009 2881 1497 
Q 2881 1984 2565 2268 
Q 2250 2553 1709 2553 
Q 1456 2553 1204 2497 
Q 953 2441 691 2322 
L 691 4666 
z
" transform="scale(0.015625)"/>
      <path id="DejaVuSans-44" d="M 1259 4147 
L 1259 519 
L 2022 519 
Q 2988 519 3436 956 
Q 3884 1394 3884 2338 
Q 3884 3275 3436 3711 
Q 2988 4147 2022 4147 
L 1259 4147 
z
M 628 4666 
L 1925 4666 
Q 3281 4666 3915 4102 
Q 4550 3538 4550 2338 
Q 4550 1131 3912 565 
Q 3275 0 1925 0 
L 628 0 
L 628 4666 
z
" transform="scale(0.015625)"/>
     </defs>
     <use xlink:href="#DejaVuSans-62"/>
     <use xlink:href="#DejaVuSans-62" x="63.476562"/>
     <use xlink:href="#DejaVuSans-6f" x="126.953125"/>
     <use xlink:href="#DejaVuSans-62" x="188.134766"/>
     <use xlink:href="#DejaVuSans-20" x="251.611328"/>
     <use xlink:href="#DejaVuSans-66" x="283.398438"/>
     <use xlink:href="#DejaVuSans-31" x="318.603516"/>
     <use xlink:href="#DejaVuSans-2d" x="382.226562"/>
     <use xlink:href="#DejaVuSans-66" x="418.310547"/>
     <use xlink:href="#DejaVuSans-35" x="453.515625"/>
     <use xlink:href="#DejaVuSans-2c" x="517.138672"/>
     <use xlink:href="#DejaVuSans-20" x="548.925781"/>
     <use xlink:href="#DejaVuSans-35" x="580.712891"/>
     <use xlink:href="#DejaVuSans-2d" x="644.335938"/>
     <use xlink:href="#DejaVuSans-44" x="680.419922"/>
    </g>
    <!-- 51 targets: 100..1e-08 -->
    <g transform="translate(60.632064 29.004495)scale(0.102 -0.102)">
     <defs>
      <path id="DejaVuSans-3a" d="M 750 794 
L 1409 794 
L 1409 0 
L 750 0 
L 750 794 
z
M 750 3309 
L 1409 3309 
L 1409 2516 
L 750 2516 
L 750 3309 
z
" transform="scale(0.015625)"/>
     </defs>
     <use xlink:href="#DejaVuSans-35"/>
     <use xlink:href="#DejaVuSans-31" x="63.623047"/>
     <use xlink:href="#DejaVuSans-20" x="127.246094"/>
     <use xlink:href="#DejaVuSans-74" x="159.033203"/>
     <use xlink:href="#DejaVuSans-61" x="198.242188"/>
     <use xlink:href="#DejaVuSans-72" x="259.521484"/>
     <use xlink:href="#DejaVuSans-67" x="298.884766"/>
     <use xlink:href="#DejaVuSans-65" x="362.361328"/>
     <use xlink:href="#DejaVuSans-74" x="423.884766"/>
     <use xlink:href="#DejaVuSans-73" x="463.09375"/>
     <use xlink:href="#DejaVuSans-3a" x="515.193359"/>
     <use xlink:href="#DejaVuSans-20" x="548.884766"/>
     <use xlink:href="#DejaVuSans-31" x="580.671875"/>
     <use xlink:href="#DejaVuSans-30" x="644.294922"/>
     <use xlink:href="#DejaVuSans-30" x="707.917969"/>
     <use xlink:href="#DejaVuSans-2e" x="771.541016"/>
     <use xlink:href="#DejaVuSans-2e" x="803.328125"/>
     <use xlink:href="#DejaVuSans-31" x="835.115234"/>
     <use xlink:href="#DejaVuSans-65" x="898.738281"/>
     <use xlink:href="#DejaVuSans-2d" x="960.261719"/>
     <use xlink:href="#DejaVuSans-30" x="996.345703"/>
     <use xlink:href="#DejaVuSans-38" x="1059.96875"/>
    </g>
    <!-- 15 instances -->
    <g transform="translate(60.632064 40.426264)scale(0.102 -0.102)">
     <use xlink:href="#DejaVuSans-31"/>
     <use xlink:href="#DejaVuSans-35" x="63.623047"/>
     <use xlink:href="#DejaVuSans-20" x="127.246094"/>
     <use xlink:href="#DejaVuSans-69" x="159.033203"/>
     <use xlink:href="#DejaVuSans-6e" x="186.816406"/>
     <use xlink:href="#DejaVuSans-73" x="250.195312"/>
     <use xlink:href="#DejaVuSans-74" x="302.294922"/>
     <use xlink:href="#DejaVuSans-61" x="341.503906"/>
     <use xlink:href="#DejaVuSans-6e" x="402.783203"/>
     <use xlink:href="#DejaVuSans-63" x="466.162109"/>
     <use xlink:href="#DejaVuSans-65" x="521.142578"/>
     <use xlink:href="#DejaVuSans-73" x="582.666016"/>
    </g>
   </g>
   <g id="text_17">
    <!-- v2.6 -->
    <g style="fill: #808080" transform="translate(198.292262 293.943992)scale(0.1 -0.1)">
     <use xlink:href="#DejaVuSans-76"/>
     <use xlink:href="#DejaVuSans-32" x="59.179688"/>
     <use xlink:href="#DejaVuSans-2e" x="122.802734"/>
     <use xlink:href="#DejaVuSans-36" x="154.589844"/>
    </g>
   </g>
  </g>
 </g>
 <defs>
  <clipPath id="p84e69e43e3">
   <rect x="57.6" y="6.912" width="303.2064" height="292.032"/>
  </clipPath>
 </defs>
</svg>
