<?xml version="1.0" encoding="utf-8" standalone="no"?>
<!DOCTYPE svg PUBLIC "-//W3C//DTD SVG 1.1//EN"
  "http://www.w3.org/Graphics/SVG/1.1/DTD/svg11.dtd">
<svg xmlns:xlink="http://www.w3.org/1999/xlink" width="460.8pt" height="345.6pt" viewBox="0 0 460.8 345.6" xmlns="http://www.w3.org/2000/svg" version="1.1">
 <metadata>
  <rdf:RDF xmlns:dc="http://purl.org/dc/elements/1.1/" xmlns:cc="http://creativecommons.org/ns#" xmlns:rdf="http://www.w3.org/1999/02/22-rdf-syntax-ns#">
   <cc:Work>
    <dc:type rdf:resource="http://purl.org/dc/dcmitype/StillImage"/>
    <dc:date>2024-05-29T07:59:14.616206</dc:date>
    <dc:format>image/svg+xml</dc:format>
    <dc:creator>
     <cc:Agent>
      <dc:title>Matplotlib v3.5.1, https://matplotlib.org/</dc:title>
     </cc:Agent>
    </dc:creator>
   </cc:Work>
  </rdf:RDF>
 </metadata>
 <defs>
  <style type="text/css">*{stroke-linejoin: round; stroke-linecap: butt}</style>
 </defs>
 <g id="figure_1">
  <g id="patch_1">
   <path d="M 0 345.6 
L 460.8 345.6 
L 460.8 0 
L 0 0 
z
" style="fill: #ffffff"/>
  </g>
  <g id="axes_1">
   <g id="patch_2">
    <path d="M 57.6 298.944 
L 360.8064 298.944 
L 360.8064 6.912 
L 57.6 6.912 
z
" style="fill: #ffffff"/>
   </g>
   <g id="line2d_1">
    <path d="M 1.245626 298.944 
L 1.245626 290.927435 
L 21.912228 290.927435 
L 21.912228 289.782212 
L 64.589687 289.782212 
L 64.589687 288.636988 
L 68.65718 288.636988 
L 68.65718 287.491765 
L 72.854856 287.491765 
L 72.854856 286.346541 
L 80.621116 286.346541 
L 80.621116 285.201318 
L 81.433251 285.201318 
L 81.433251 284.056094 
L 82.211771 284.056094 
L 82.211771 282.910871 
L 82.464279 282.910871 
L 82.464279 281.765647 
L 82.959349 281.765647 
L 82.959349 280.620424 
L 83.202082 280.620424 
L 83.202082 279.4752 
L 83.678349 279.4752 
L 83.678349 278.329976 
L 84.142855 278.329976 
L 84.142855 277.184753 
L 85.038813 277.184753 
L 85.038813 276.039529 
L 86.510858 276.039529 
L 86.510858 274.894306 
L 88.063207 274.894306 
L 88.063207 273.749082 
L 90.989609 273.749082 
L 90.989609 272.603859 
L 96.120281 272.603859 
L 96.120281 271.458635 
L 103.625951 271.458635 
L 103.625951 270.313412 
L 105.112877 270.313412 
L 105.112877 269.168188 
L 108.915146 269.168188 
L 108.915146 268.022965 
L 116.419219 268.022965 
L 116.419219 266.877741 
L 116.86762 266.877741 
L 116.86762 265.732518 
L 119.389621 265.732518 
L 119.389621 264.587294 
L 120.317502 264.587294 
L 120.317502 263.442071 
L 129.581749 263.442071 
L 129.581749 262.296847 
L 132.881269 262.296847 
L 132.881269 261.151624 
L 134.916493 261.151624 
L 134.916493 260.0064 
L 140.196609 260.0064 
L 140.196609 258.861176 
L 144.445498 258.861176 
L 144.445498 257.715953 
L 148.697031 257.715953 
L 148.697031 256.570729 
L 150.465671 256.570729 
L 150.553245 254.280282 
L 157.410135 254.280282 
L 157.410135 253.135059 
L 163.3965 253.135059 
L 163.3965 251.989835 
L 163.531835 251.989835 
L 163.531835 250.844612 
L 165.957604 250.844612 
L 165.957604 249.699388 
L 166.521015 249.699388 
L 166.521015 248.554165 
L 166.769573 248.554165 
L 166.769573 247.408941 
L 174.288839 247.408941 
L 174.288839 246.263718 
L 180.720078 246.263718 
L 180.825238 243.973271 
L 180.858819 243.973271 
L 180.904394 241.682824 
L 180.973883 241.682824 
L 181.052417 238.247153 
L 181.092225 238.247153 
L 181.141204 235.956706 
L 181.258501 235.956706 
L 181.343707 232.521035 
L 181.525928 232.521035 
L 181.602196 230.230588 
L 181.680725 230.230588 
L 181.680725 229.085365 
L 181.855908 229.085365 
L 181.902941 226.794918 
L 181.97011 226.794918 
L 181.97011 225.649694 
L 182.099962 225.649694 
L 182.099962 224.504471 
L 182.241399 224.504471 
L 182.241399 223.359247 
L 182.361966 223.359247 
L 182.416403 221.0688 
L 182.646017 221.0688 
L 182.646017 219.923576 
L 182.794322 219.923576 
L 182.83182 217.633129 
L 183.314974 217.633129 
L 183.314974 216.487906 
L 183.511809 216.487906 
L 183.511809 215.342682 
L 183.641896 215.342682 
L 183.641896 214.197459 
L 183.921085 214.197459 
L 183.921085 213.052235 
L 184.11961 213.052235 
L 184.11961 211.907012 
L 185.014308 211.907012 
L 185.10448 207.326118 
L 185.129095 207.326118 
L 185.235743 200.454776 
L 185.280355 200.454776 
L 185.280355 199.309553 
L 190.101805 199.309553 
L 190.101805 198.164329 
L 190.304337 198.164329 
L 190.406406 194.728659 
L 190.572098 194.728659 
L 190.642437 192.438212 
L 190.745867 192.438212 
L 190.812398 190.147765 
L 190.921976 190.147765 
L 190.921976 189.002541 
L 191.102681 189.002541 
L 191.18735 185.566871 
L 191.59673 185.566871 
L 191.704108 182.1312 
L 192.021872 182.1312 
L 192.089957 179.840753 
L 192.170306 179.840753 
L 192.170306 178.695529 
L 192.34602 178.695529 
L 192.34602 177.550306 
L 192.58282 177.550306 
L 192.622357 175.259859 
L 192.712622 175.259859 
L 192.784666 172.969412 
L 192.906722 172.969412 
L 192.906722 171.824188 
L 193.084131 171.824188 
L 193.084131 170.678965 
L 196.167727 170.678965 
L 196.167727 169.533741 
L 199.181136 169.533741 
L 199.276663 166.098071 
L 199.442803 166.098071 
L 199.442803 164.952847 
L 203.275156 164.952847 
L 203.275156 163.807624 
L 203.475045 163.807624 
L 203.475045 162.6624 
L 207.219884 162.6624 
L 207.219884 161.517176 
L 210.415897 161.517176 
L 210.415897 160.371953 
L 213.472377 160.371953 
L 213.472377 159.226729 
L 214.831331 159.226729 
L 214.865921 156.936282 
L 217.065846 156.936282 
L 217.065846 155.791059 
L 223.40998 155.791059 
L 223.486 145.484047 
L 227.370151 145.484047 
L 227.370151 144.338824 
L 227.779871 144.338824 
L 227.779871 143.1936 
L 235.170111 143.1936 
L 235.170111 142.048376 
L 237.583949 142.048376 
L 237.583949 140.903153 
L 242.20408 140.903153 
L 242.20408 139.757929 
L 245.620428 139.757929 
L 245.620428 138.612706 
L 246.507713 138.612706 
L 246.507713 137.467482 
L 246.63392 137.467482 
L 246.63392 136.322259 
L 247.533469 136.322259 
L 247.533469 135.177035 
L 247.673097 135.177035 
L 247.673097 134.031812 
L 247.847228 134.031812 
L 247.847228 132.886588 
L 248.021687 132.886588 
L 248.021687 131.741365 
L 248.165326 131.741365 
L 248.165326 130.596141 
L 248.361264 130.596141 
L 248.470649 128.305694 
L 248.603186 128.305694 
L 248.603186 127.160471 
L 248.730322 127.160471 
L 248.730322 126.015247 
L 250.964047 126.015247 
L 250.964047 124.870024 
L 257.056729 124.870024 
L 257.137153 122.579576 
L 257.196417 122.579576 
L 257.259124 120.289129 
L 257.318351 120.289129 
L 257.379873 117.998682 
L 257.443118 117.998682 
L 257.510577 115.708235 
L 257.571133 115.708235 
L 257.634328 113.417788 
L 257.688615 113.417788 
L 257.751214 111.127341 
L 257.810104 111.127341 
L 257.920863 107.691671 
L 257.975443 107.691671 
L 258.023805 105.401224 
L 258.094967 105.401224 
L 258.094967 104.256 
L 262.7012 104.256 
L 262.7012 103.110776 
L 266.602864 103.110776 
L 266.602864 101.965553 
L 266.968695 101.965553 
L 266.968695 100.820329 
L 275.334653 100.820329 
L 275.334653 99.675106 
L 278.898357 99.675106 
L 278.898357 98.529882 
L 282.413531 98.529882 
L 282.413531 97.384659 
L 282.528082 97.384659 
L 282.528082 96.239435 
L 284.490021 96.239435 
L 284.557171 93.948988 
L 293.164538 93.948988 
L 293.269283 88.222871 
L 293.287392 88.222871 
L 293.386018 80.206306 
L 293.401151 80.206306 
L 293.494217 72.189741 
L 293.51354 72.189741 
L 293.616265 63.027953 
L 293.635966 63.027953 
L 293.743189 53.866165 
L 298.990176 53.866165 
L 298.990176 52.720941 
L 306.192193 52.720941 
L 306.192193 51.575718 
L 314.786024 51.575718 
L 314.786024 50.430494 
L 325.59356 50.430494 
L 325.59356 49.285271 
L 335.441939 49.285271 
L 335.487261 6.912 
L 360.8064 6.912 
L 360.8064 6.912 
" style="fill: none; stroke: #f5deb3; stroke-width: 4; stroke-linecap: square"/>
   </g>
   <g id="line2d_2">
    <defs>
     <path id="mec7288efd5" d="M 0 7.778175 
L 7.778175 0 
L 0 -7.778175 
L -7.778175 0 
z
" style="stroke: #f5deb3; stroke-width: 1.5; stroke-linejoin: miter"/>
    </defs>
    <g>
     <use xlink:href="#mec7288efd5" x="180.825238" y="243.973271" style="fill: #f5deb3; stroke: #f5deb3; stroke-width: 1.5; stroke-linejoin: miter"/>
     <use xlink:href="#mec7288efd5" x="247.673097" y="134.031812" style="fill: #f5deb3; stroke: #f5deb3; stroke-width: 1.5; stroke-linejoin: miter"/>
     <use xlink:href="#mec7288efd5" x="293.54431" y="68.754071" style="fill: #f5deb3; stroke: #f5deb3; stroke-width: 1.5; stroke-linejoin: miter"/>
     <use xlink:href="#mec7288efd5" x="335.487261" y="6.912" style="fill: #f5deb3; stroke: #f5deb3; stroke-width: 1.5; stroke-linejoin: miter"/>
     <use xlink:href="#mec7288efd5" x="360.8064" y="6.912" style="fill: #f5deb3; stroke: #f5deb3; stroke-width: 1.5; stroke-linejoin: miter"/>
    </g>
   </g>
   <g id="line2d_3">
    <path style="fill: none; stroke: #f5deb3; stroke-width: 4; stroke-linecap: square"/>
    <g/>
   </g>
   <g id="line2d_4">
    <path d="M 360.8064 6.912 
L 380.514816 12.75264 
" style="fill: none; stroke: #f5deb3; stroke-width: 4; stroke-linecap: square"/>
    <g>
     <use xlink:href="#mec7288efd5" x="360.8064" y="6.912" style="fill: #f5deb3; stroke: #f5deb3; stroke-width: 1.5; stroke-linejoin: miter"/>
     <use xlink:href="#mec7288efd5" x="380.514816" y="12.75264" style="fill: #f5deb3; stroke: #f5deb3; stroke-width: 1.5; stroke-linejoin: miter"/>
    </g>
   </g>
   <g id="matplotlib.axis_1">
    <g id="xtick_1">
     <g id="line2d_5">
      <path d="M 57.6 298.944 
L 57.6 6.912 
" clip-path="url(#pa9570747b4)" style="fill: none; stroke: #b0b0b0; stroke-width: 0.8; stroke-linecap: square"/>
     </g>
     <g id="line2d_6">
      <defs>
       <path id="m0d9cf909cb" d="M 0 0 
L 0 3.5 
" style="stroke: #000000; stroke-width: 0.8"/>
      </defs>
      <g>
       <use xlink:href="#m0d9cf909cb" x="57.6" y="298.944" style="stroke: #000000; stroke-width: 0.8"/>
      </g>
     </g>
     <g id="text_1">
      <!-- 0 -->
      <g transform="translate(52.191875 318.861344)scale(0.17 -0.17)">
       <defs>
        <path id="DejaVuSans-30" d="M 2034 4250 
Q 1547 4250 1301 3770 
Q 1056 3291 1056 2328 
Q 1056 1369 1301 889 
Q 1547 409 2034 409 
Q 2525 409 2770 889 
Q 3016 1369 3016 2328 
Q 3016 3291 2770 3770 
Q 2525 4250 2034 4250 
z
M 2034 4750 
Q 2819 4750 3233 4129 
Q 3647 3509 3647 2328 
Q 3647 1150 3233 529 
Q 2819 -91 2034 -91 
Q 1250 -91 836 529 
Q 422 1150 422 2328 
Q 422 3509 836 4129 
Q 1250 4750 2034 4750 
z
" transform="scale(0.015625)"/>
       </defs>
       <use xlink:href="#DejaVuSans-30"/>
      </g>
     </g>
    </g>
    <g id="xtick_2">
     <g id="line2d_7">
      <path d="M 144.2304 298.944 
L 144.2304 6.912 
" clip-path="url(#pa9570747b4)" style="fill: none; stroke: #b0b0b0; stroke-width: 0.8; stroke-linecap: square"/>
     </g>
     <g id="line2d_8">
      <g>
       <use xlink:href="#m0d9cf909cb" x="144.2304" y="298.944" style="stroke: #000000; stroke-width: 0.8"/>
      </g>
     </g>
     <g id="text_2">
      <!-- 2 -->
      <g transform="translate(138.822275 318.861344)scale(0.17 -0.17)">
       <defs>
        <path id="DejaVuSans-32" d="M 1228 531 
L 3431 531 
L 3431 0 
L 469 0 
L 469 531 
Q 828 903 1448 1529 
Q 2069 2156 2228 2338 
Q 2531 2678 2651 2914 
Q 2772 3150 2772 3378 
Q 2772 3750 2511 3984 
Q 2250 4219 1831 4219 
Q 1534 4219 1204 4116 
Q 875 4013 500 3803 
L 500 4441 
Q 881 4594 1212 4672 
Q 1544 4750 1819 4750 
Q 2544 4750 2975 4387 
Q 3406 4025 3406 3419 
Q 3406 3131 3298 2873 
Q 3191 2616 2906 2266 
Q 2828 2175 2409 1742 
Q 1991 1309 1228 531 
z
" transform="scale(0.015625)"/>
       </defs>
       <use xlink:href="#DejaVuSans-32"/>
      </g>
     </g>
    </g>
    <g id="xtick_3">
     <g id="line2d_9">
      <path d="M 230.8608 298.944 
L 230.8608 6.912 
" clip-path="url(#pa9570747b4)" style="fill: none; stroke: #b0b0b0; stroke-width: 0.8; stroke-linecap: square"/>
     </g>
     <g id="line2d_10">
      <g>
       <use xlink:href="#m0d9cf909cb" x="230.8608" y="298.944" style="stroke: #000000; stroke-width: 0.8"/>
      </g>
     </g>
     <g id="text_3">
      <!-- 4 -->
      <g transform="translate(225.452675 318.861344)scale(0.17 -0.17)">
       <defs>
        <path id="DejaVuSans-34" d="M 2419 4116 
L 825 1625 
L 2419 1625 
L 2419 4116 
z
M 2253 4666 
L 3047 4666 
L 3047 1625 
L 3713 1625 
L 3713 1100 
L 3047 1100 
L 3047 0 
L 2419 0 
L 2419 1100 
L 313 1100 
L 313 1709 
L 2253 4666 
z
" transform="scale(0.015625)"/>
       </defs>
       <use xlink:href="#DejaVuSans-34"/>
      </g>
     </g>
    </g>
    <g id="xtick_4">
     <g id="line2d_11">
      <path d="M 317.4912 298.944 
L 317.4912 6.912 
" clip-path="url(#pa9570747b4)" style="fill: none; stroke: #b0b0b0; stroke-width: 0.8; stroke-linecap: square"/>
     </g>
     <g id="line2d_12">
      <g>
       <use xlink:href="#m0d9cf909cb" x="317.4912" y="298.944" style="stroke: #000000; stroke-width: 0.8"/>
      </g>
     </g>
     <g id="text_4">
      <!-- 6 -->
      <g transform="translate(312.083075 318.861344)scale(0.17 -0.17)">
       <defs>
        <path id="DejaVuSans-36" d="M 2113 2584 
Q 1688 2584 1439 2293 
Q 1191 2003 1191 1497 
Q 1191 994 1439 701 
Q 1688 409 2113 409 
Q 2538 409 2786 701 
Q 3034 994 3034 1497 
Q 3034 2003 2786 2293 
Q 2538 2584 2113 2584 
z
M 3366 4563 
L 3366 3988 
Q 3128 4100 2886 4159 
Q 2644 4219 2406 4219 
Q 1781 4219 1451 3797 
Q 1122 3375 1075 2522 
Q 1259 2794 1537 2939 
Q 1816 3084 2150 3084 
Q 2853 3084 3261 2657 
Q 3669 2231 3669 1497 
Q 3669 778 3244 343 
Q 2819 -91 2113 -91 
Q 1303 -91 875 529 
Q 447 1150 447 2328 
Q 447 3434 972 4092 
Q 1497 4750 2381 4750 
Q 2619 4750 2861 4703 
Q 3103 4656 3366 4563 
z
" transform="scale(0.015625)"/>
       </defs>
       <use xlink:href="#DejaVuSans-36"/>
      </g>
     </g>
    </g>
    <g id="xtick_5">
     <g id="line2d_13">
      <path d="M 100.9152 298.944 
L 100.9152 6.912 
" clip-path="url(#pa9570747b4)" style="fill: none; stroke: #b0b0b0; stroke-width: 0.8; stroke-linecap: square"/>
     </g>
     <g id="line2d_14">
      <defs>
       <path id="m33f0327627" d="M 0 0 
L 0 2 
" style="stroke: #000000; stroke-width: 0.6"/>
      </defs>
      <g>
       <use xlink:href="#m33f0327627" x="100.9152" y="298.944" style="stroke: #000000; stroke-width: 0.6"/>
      </g>
     </g>
    </g>
    <g id="xtick_6">
     <g id="line2d_15">
      <path d="M 187.5456 298.944 
L 187.5456 6.912 
" clip-path="url(#pa9570747b4)" style="fill: none; stroke: #b0b0b0; stroke-width: 0.8; stroke-linecap: square"/>
     </g>
     <g id="line2d_16">
      <g>
       <use xlink:href="#m33f0327627" x="187.5456" y="298.944" style="stroke: #000000; stroke-width: 0.6"/>
      </g>
     </g>
    </g>
    <g id="xtick_7">
     <g id="line2d_17">
      <path d="M 274.176 298.944 
L 274.176 6.912 
" clip-path="url(#pa9570747b4)" style="fill: none; stroke: #b0b0b0; stroke-width: 0.8; stroke-linecap: square"/>
     </g>
     <g id="line2d_18">
      <g>
       <use xlink:href="#m33f0327627" x="274.176" y="298.944" style="stroke: #000000; stroke-width: 0.6"/>
      </g>
     </g>
    </g>
    <g id="xtick_8">
     <g id="line2d_19">
      <path d="M 360.8064 298.944 
L 360.8064 6.912 
" clip-path="url(#pa9570747b4)" style="fill: none; stroke: #b0b0b0; stroke-width: 0.8; stroke-linecap: square"/>
     </g>
     <g id="line2d_20">
      <g>
       <use xlink:href="#m33f0327627" x="360.8064" y="298.944" style="stroke: #000000; stroke-width: 0.6"/>
      </g>
     </g>
    </g>
    <g id="text_5">
     <!-- log10(# f-evals / dimension) -->
     <g transform="translate(88.823278 339.314156)scale(0.17 -0.17)">
      <defs>
       <path id="DejaVuSans-6c" d="M 603 4863 
L 1178 4863 
L 1178 0 
L 603 0 
L 603 4863 
z
" transform="scale(0.015625)"/>
       <path id="DejaVuSans-6f" d="M 1959 3097 
Q 1497 3097 1228 2736 
Q 959 2375 959 1747 
Q 959 1119 1226 758 
Q 1494 397 1959 397 
Q 2419 397 2687 759 
Q 2956 1122 2956 1747 
Q 2956 2369 2687 2733 
Q 2419 3097 1959 3097 
z
M 1959 3584 
Q 2709 3584 3137 3096 
Q 3566 2609 3566 1747 
Q 3566 888 3137 398 
Q 2709 -91 1959 -91 
Q 1206 -91 779 398 
Q 353 888 353 1747 
Q 353 2609 779 3096 
Q 1206 3584 1959 3584 
z
" transform="scale(0.015625)"/>
       <path id="DejaVuSans-67" d="M 2906 1791 
Q 2906 2416 2648 2759 
Q 2391 3103 1925 3103 
Q 1463 3103 1205 2759 
Q 947 2416 947 1791 
Q 947 1169 1205 825 
Q 1463 481 1925 481 
Q 2391 481 2648 825 
Q 2906 1169 2906 1791 
z
M 3481 434 
Q 3481 -459 3084 -895 
Q 2688 -1331 1869 -1331 
Q 1566 -1331 1297 -1286 
Q 1028 -1241 775 -1147 
L 775 -588 
Q 1028 -725 1275 -790 
Q 1522 -856 1778 -856 
Q 2344 -856 2625 -561 
Q 2906 -266 2906 331 
L 2906 616 
Q 2728 306 2450 153 
Q 2172 0 1784 0 
Q 1141 0 747 490 
Q 353 981 353 1791 
Q 353 2603 747 3093 
Q 1141 3584 1784 3584 
Q 2172 3584 2450 3431 
Q 2728 3278 2906 2969 
L 2906 3500 
L 3481 3500 
L 3481 434 
z
" transform="scale(0.015625)"/>
       <path id="DejaVuSans-31" d="M 794 531 
L 1825 531 
L 1825 4091 
L 703 3866 
L 703 4441 
L 1819 4666 
L 2450 4666 
L 2450 531 
L 3481 531 
L 3481 0 
L 794 0 
L 794 531 
z
" transform="scale(0.015625)"/>
       <path id="DejaVuSans-28" d="M 1984 4856 
Q 1566 4138 1362 3434 
Q 1159 2731 1159 2009 
Q 1159 1288 1364 580 
Q 1569 -128 1984 -844 
L 1484 -844 
Q 1016 -109 783 600 
Q 550 1309 550 2009 
Q 550 2706 781 3412 
Q 1013 4119 1484 4856 
L 1984 4856 
z
" transform="scale(0.015625)"/>
       <path id="DejaVuSans-23" d="M 3272 2816 
L 2363 2816 
L 2100 1772 
L 3016 1772 
L 3272 2816 
z
M 2803 4594 
L 2478 3297 
L 3391 3297 
L 3719 4594 
L 4219 4594 
L 3897 3297 
L 4872 3297 
L 4872 2816 
L 3775 2816 
L 3519 1772 
L 4513 1772 
L 4513 1294 
L 3397 1294 
L 3072 0 
L 2572 0 
L 2894 1294 
L 1978 1294 
L 1656 0 
L 1153 0 
L 1478 1294 
L 494 1294 
L 494 1772 
L 1594 1772 
L 1856 2816 
L 850 2816 
L 850 3297 
L 1978 3297 
L 2297 4594 
L 2803 4594 
z
" transform="scale(0.015625)"/>
       <path id="DejaVuSans-20" transform="scale(0.015625)"/>
       <path id="DejaVuSans-66" d="M 2375 4863 
L 2375 4384 
L 1825 4384 
Q 1516 4384 1395 4259 
Q 1275 4134 1275 3809 
L 1275 3500 
L 2222 3500 
L 2222 3053 
L 1275 3053 
L 1275 0 
L 697 0 
L 697 3053 
L 147 3053 
L 147 3500 
L 697 3500 
L 697 3744 
Q 697 4328 969 4595 
Q 1241 4863 1831 4863 
L 2375 4863 
z
" transform="scale(0.015625)"/>
       <path id="DejaVuSans-2d" d="M 313 2009 
L 1997 2009 
L 1997 1497 
L 313 1497 
L 313 2009 
z
" transform="scale(0.015625)"/>
       <path id="DejaVuSans-65" d="M 3597 1894 
L 3597 1613 
L 953 1613 
Q 991 1019 1311 708 
Q 1631 397 2203 397 
Q 2534 397 2845 478 
Q 3156 559 3463 722 
L 3463 178 
Q 3153 47 2828 -22 
Q 2503 -91 2169 -91 
Q 1331 -91 842 396 
Q 353 884 353 1716 
Q 353 2575 817 3079 
Q 1281 3584 2069 3584 
Q 2775 3584 3186 3129 
Q 3597 2675 3597 1894 
z
M 3022 2063 
Q 3016 2534 2758 2815 
Q 2500 3097 2075 3097 
Q 1594 3097 1305 2825 
Q 1016 2553 972 2059 
L 3022 2063 
z
" transform="scale(0.015625)"/>
       <path id="DejaVuSans-76" d="M 191 3500 
L 800 3500 
L 1894 563 
L 2988 3500 
L 3597 3500 
L 2284 0 
L 1503 0 
L 191 3500 
z
" transform="scale(0.015625)"/>
       <path id="DejaVuSans-61" d="M 2194 1759 
Q 1497 1759 1228 1600 
Q 959 1441 959 1056 
Q 959 750 1161 570 
Q 1363 391 1709 391 
Q 2188 391 2477 730 
Q 2766 1069 2766 1631 
L 2766 1759 
L 2194 1759 
z
M 3341 1997 
L 3341 0 
L 2766 0 
L 2766 531 
Q 2569 213 2275 61 
Q 1981 -91 1556 -91 
Q 1019 -91 701 211 
Q 384 513 384 1019 
Q 384 1609 779 1909 
Q 1175 2209 1959 2209 
L 2766 2209 
L 2766 2266 
Q 2766 2663 2505 2880 
Q 2244 3097 1772 3097 
Q 1472 3097 1187 3025 
Q 903 2953 641 2809 
L 641 3341 
Q 956 3463 1253 3523 
Q 1550 3584 1831 3584 
Q 2591 3584 2966 3190 
Q 3341 2797 3341 1997 
z
" transform="scale(0.015625)"/>
       <path id="DejaVuSans-73" d="M 2834 3397 
L 2834 2853 
Q 2591 2978 2328 3040 
Q 2066 3103 1784 3103 
Q 1356 3103 1142 2972 
Q 928 2841 928 2578 
Q 928 2378 1081 2264 
Q 1234 2150 1697 2047 
L 1894 2003 
Q 2506 1872 2764 1633 
Q 3022 1394 3022 966 
Q 3022 478 2636 193 
Q 2250 -91 1575 -91 
Q 1294 -91 989 -36 
Q 684 19 347 128 
L 347 722 
Q 666 556 975 473 
Q 1284 391 1588 391 
Q 1994 391 2212 530 
Q 2431 669 2431 922 
Q 2431 1156 2273 1281 
Q 2116 1406 1581 1522 
L 1381 1569 
Q 847 1681 609 1914 
Q 372 2147 372 2553 
Q 372 3047 722 3315 
Q 1072 3584 1716 3584 
Q 2034 3584 2315 3537 
Q 2597 3491 2834 3397 
z
" transform="scale(0.015625)"/>
       <path id="DejaVuSans-2f" d="M 1625 4666 
L 2156 4666 
L 531 -594 
L 0 -594 
L 1625 4666 
z
" transform="scale(0.015625)"/>
       <path id="DejaVuSans-64" d="M 2906 2969 
L 2906 4863 
L 3481 4863 
L 3481 0 
L 2906 0 
L 2906 525 
Q 2725 213 2448 61 
Q 2172 -91 1784 -91 
Q 1150 -91 751 415 
Q 353 922 353 1747 
Q 353 2572 751 3078 
Q 1150 3584 1784 3584 
Q 2172 3584 2448 3432 
Q 2725 3281 2906 2969 
z
M 947 1747 
Q 947 1113 1208 752 
Q 1469 391 1925 391 
Q 2381 391 2643 752 
Q 2906 1113 2906 1747 
Q 2906 2381 2643 2742 
Q 2381 3103 1925 3103 
Q 1469 3103 1208 2742 
Q 947 2381 947 1747 
z
" transform="scale(0.015625)"/>
       <path id="DejaVuSans-69" d="M 603 3500 
L 1178 3500 
L 1178 0 
L 603 0 
L 603 3500 
z
M 603 4863 
L 1178 4863 
L 1178 4134 
L 603 4134 
L 603 4863 
z
" transform="scale(0.015625)"/>
       <path id="DejaVuSans-6d" d="M 3328 2828 
Q 3544 3216 3844 3400 
Q 4144 3584 4550 3584 
Q 5097 3584 5394 3201 
Q 5691 2819 5691 2113 
L 5691 0 
L 5113 0 
L 5113 2094 
Q 5113 2597 4934 2840 
Q 4756 3084 4391 3084 
Q 3944 3084 3684 2787 
Q 3425 2491 3425 1978 
L 3425 0 
L 2847 0 
L 2847 2094 
Q 2847 2600 2669 2842 
Q 2491 3084 2119 3084 
Q 1678 3084 1418 2786 
Q 1159 2488 1159 1978 
L 1159 0 
L 581 0 
L 581 3500 
L 1159 3500 
L 1159 2956 
Q 1356 3278 1631 3431 
Q 1906 3584 2284 3584 
Q 2666 3584 2933 3390 
Q 3200 3197 3328 2828 
z
" transform="scale(0.015625)"/>
       <path id="DejaVuSans-6e" d="M 3513 2113 
L 3513 0 
L 2938 0 
L 2938 2094 
Q 2938 2591 2744 2837 
Q 2550 3084 2163 3084 
Q 1697 3084 1428 2787 
Q 1159 2491 1159 1978 
L 1159 0 
L 581 0 
L 581 3500 
L 1159 3500 
L 1159 2956 
Q 1366 3272 1645 3428 
Q 1925 3584 2291 3584 
Q 2894 3584 3203 3211 
Q 3513 2838 3513 2113 
z
" transform="scale(0.015625)"/>
       <path id="DejaVuSans-29" d="M 513 4856 
L 1013 4856 
Q 1481 4119 1714 3412 
Q 1947 2706 1947 2009 
Q 1947 1309 1714 600 
Q 1481 -109 1013 -844 
L 513 -844 
Q 928 -128 1133 580 
Q 1338 1288 1338 2009 
Q 1338 2731 1133 3434 
Q 928 4138 513 4856 
z
" transform="scale(0.015625)"/>
      </defs>
      <use xlink:href="#DejaVuSans-6c"/>
      <use xlink:href="#DejaVuSans-6f" x="27.783203"/>
      <use xlink:href="#DejaVuSans-67" x="88.964844"/>
      <use xlink:href="#DejaVuSans-31" x="152.441406"/>
      <use xlink:href="#DejaVuSans-30" x="216.064453"/>
      <use xlink:href="#DejaVuSans-28" x="279.6875"/>
      <use xlink:href="#DejaVuSans-23" x="318.701172"/>
      <use xlink:href="#DejaVuSans-20" x="402.490234"/>
      <use xlink:href="#DejaVuSans-66" x="434.277344"/>
      <use xlink:href="#DejaVuSans-2d" x="463.982422"/>
      <use xlink:href="#DejaVuSans-65" x="500.066406"/>
      <use xlink:href="#DejaVuSans-76" x="561.589844"/>
      <use xlink:href="#DejaVuSans-61" x="620.769531"/>
      <use xlink:href="#DejaVuSans-6c" x="682.048828"/>
      <use xlink:href="#DejaVuSans-73" x="709.832031"/>
      <use xlink:href="#DejaVuSans-20" x="761.931641"/>
      <use xlink:href="#DejaVuSans-2f" x="793.71875"/>
      <use xlink:href="#DejaVuSans-20" x="827.410156"/>
      <use xlink:href="#DejaVuSans-64" x="859.197266"/>
      <use xlink:href="#DejaVuSans-69" x="922.673828"/>
      <use xlink:href="#DejaVuSans-6d" x="950.457031"/>
      <use xlink:href="#DejaVuSans-65" x="1047.869141"/>
      <use xlink:href="#DejaVuSans-6e" x="1109.392578"/>
      <use xlink:href="#DejaVuSans-73" x="1172.771484"/>
      <use xlink:href="#DejaVuSans-69" x="1224.871094"/>
      <use xlink:href="#DejaVuSans-6f" x="1252.654297"/>
      <use xlink:href="#DejaVuSans-6e" x="1313.835938"/>
      <use xlink:href="#DejaVuSans-29" x="1377.214844"/>
     </g>
    </g>
   </g>
   <g id="matplotlib.axis_2">
    <g id="ytick_1">
     <g id="line2d_21">
      <path d="M 57.6 298.944 
L 360.8064 298.944 
" clip-path="url(#pa9570747b4)" style="fill: none; stroke: #b0b0b0; stroke-width: 0.8; stroke-linecap: square"/>
     </g>
     <g id="line2d_22">
      <defs>
       <path id="mad52c54657" d="M 0 0 
L -3.5 0 
" style="stroke: #000000; stroke-width: 0.8"/>
      </defs>
      <g>
       <use xlink:href="#mad52c54657" x="57.6" y="298.944" style="stroke: #000000; stroke-width: 0.8"/>
      </g>
     </g>
     <g id="text_6">
      <!-- 0.0 -->
      <g transform="translate(25.155 305.02275)scale(0.16 -0.16)">
       <defs>
        <path id="DejaVuSans-2e" d="M 684 794 
L 1344 794 
L 1344 0 
L 684 0 
L 684 794 
z
" transform="scale(0.015625)"/>
       </defs>
       <use xlink:href="#DejaVuSans-30"/>
       <use xlink:href="#DejaVuSans-2e" x="63.623047"/>
       <use xlink:href="#DejaVuSans-30" x="95.410156"/>
      </g>
     </g>
    </g>
    <g id="ytick_2">
     <g id="line2d_23">
      <path d="M 57.6 240.5376 
L 360.8064 240.5376 
" clip-path="url(#pa9570747b4)" style="fill: none; stroke: #b0b0b0; stroke-width: 0.8; stroke-linecap: square"/>
     </g>
     <g id="line2d_24">
      <g>
       <use xlink:href="#mad52c54657" x="57.6" y="240.5376" style="stroke: #000000; stroke-width: 0.8"/>
      </g>
     </g>
     <g id="text_7">
      <!-- 0.2 -->
      <g transform="translate(25.155 246.61635)scale(0.16 -0.16)">
       <use xlink:href="#DejaVuSans-30"/>
       <use xlink:href="#DejaVuSans-2e" x="63.623047"/>
       <use xlink:href="#DejaVuSans-32" x="95.410156"/>
      </g>
     </g>
    </g>
    <g id="ytick_3">
     <g id="line2d_25">
      <path d="M 57.6 182.1312 
L 360.8064 182.1312 
" clip-path="url(#pa9570747b4)" style="fill: none; stroke: #b0b0b0; stroke-width: 0.8; stroke-linecap: square"/>
     </g>
     <g id="line2d_26">
      <g>
       <use xlink:href="#mad52c54657" x="57.6" y="182.1312" style="stroke: #000000; stroke-width: 0.8"/>
      </g>
     </g>
     <g id="text_8">
      <!-- 0.4 -->
      <g transform="translate(25.155 188.20995)scale(0.16 -0.16)">
       <use xlink:href="#DejaVuSans-30"/>
       <use xlink:href="#DejaVuSans-2e" x="63.623047"/>
       <use xlink:href="#DejaVuSans-34" x="95.410156"/>
      </g>
     </g>
    </g>
    <g id="ytick_4">
     <g id="line2d_27">
      <path d="M 57.6 123.7248 
L 360.8064 123.7248 
" clip-path="url(#pa9570747b4)" style="fill: none; stroke: #b0b0b0; stroke-width: 0.8; stroke-linecap: square"/>
     </g>
     <g id="line2d_28">
      <g>
       <use xlink:href="#mad52c54657" x="57.6" y="123.7248" style="stroke: #000000; stroke-width: 0.8"/>
      </g>
     </g>
     <g id="text_9">
      <!-- 0.6 -->
      <g transform="translate(25.155 129.80355)scale(0.16 -0.16)">
       <use xlink:href="#DejaVuSans-30"/>
       <use xlink:href="#DejaVuSans-2e" x="63.623047"/>
       <use xlink:href="#DejaVuSans-36" x="95.410156"/>
      </g>
     </g>
    </g>
    <g id="ytick_5">
     <g id="line2d_29">
      <path d="M 57.6 65.3184 
L 360.8064 65.3184 
" clip-path="url(#pa9570747b4)" style="fill: none; stroke: #b0b0b0; stroke-width: 0.8; stroke-linecap: square"/>
     </g>
     <g id="line2d_30">
      <g>
       <use xlink:href="#mad52c54657" x="57.6" y="65.3184" style="stroke: #000000; stroke-width: 0.8"/>
      </g>
     </g>
     <g id="text_10">
      <!-- 0.8 -->
      <g transform="translate(25.155 71.39715)scale(0.16 -0.16)">
       <defs>
        <path id="DejaVuSans-38" d="M 2034 2216 
Q 1584 2216 1326 1975 
Q 1069 1734 1069 1313 
Q 1069 891 1326 650 
Q 1584 409 2034 409 
Q 2484 409 2743 651 
Q 3003 894 3003 1313 
Q 3003 1734 2745 1975 
Q 2488 2216 2034 2216 
z
M 1403 2484 
Q 997 2584 770 2862 
Q 544 3141 544 3541 
Q 544 4100 942 4425 
Q 1341 4750 2034 4750 
Q 2731 4750 3128 4425 
Q 3525 4100 3525 3541 
Q 3525 3141 3298 2862 
Q 3072 2584 2669 2484 
Q 3125 2378 3379 2068 
Q 3634 1759 3634 1313 
Q 3634 634 3220 271 
Q 2806 -91 2034 -91 
Q 1263 -91 848 271 
Q 434 634 434 1313 
Q 434 1759 690 2068 
Q 947 2378 1403 2484 
z
M 1172 3481 
Q 1172 3119 1398 2916 
Q 1625 2713 2034 2713 
Q 2441 2713 2670 2916 
Q 2900 3119 2900 3481 
Q 2900 3844 2670 4047 
Q 2441 4250 2034 4250 
Q 1625 4250 1398 4047 
Q 1172 3844 1172 3481 
z
" transform="scale(0.015625)"/>
       </defs>
       <use xlink:href="#DejaVuSans-30"/>
       <use xlink:href="#DejaVuSans-2e" x="63.623047"/>
       <use xlink:href="#DejaVuSans-38" x="95.410156"/>
      </g>
     </g>
    </g>
    <g id="ytick_6">
     <g id="line2d_31">
      <path d="M 57.6 6.912 
L 360.8064 6.912 
" clip-path="url(#pa9570747b4)" style="fill: none; stroke: #b0b0b0; stroke-width: 0.8; stroke-linecap: square"/>
     </g>
     <g id="line2d_32">
      <g>
       <use xlink:href="#mad52c54657" x="57.6" y="6.912" style="stroke: #000000; stroke-width: 0.8"/>
      </g>
     </g>
     <g id="text_11">
      <!-- 1.0 -->
      <g transform="translate(25.155 12.99075)scale(0.16 -0.16)">
       <use xlink:href="#DejaVuSans-31"/>
       <use xlink:href="#DejaVuSans-2e" x="63.623047"/>
       <use xlink:href="#DejaVuSans-30" x="95.410156"/>
      </g>
     </g>
    </g>
    <g id="text_12">
     <!-- Fraction of function,target pairs -->
     <g transform="translate(17.619531 287.313)rotate(-90)scale(0.17 -0.17)">
      <defs>
       <path id="DejaVuSans-46" d="M 628 4666 
L 3309 4666 
L 3309 4134 
L 1259 4134 
L 1259 2759 
L 3109 2759 
L 3109 2228 
L 1259 2228 
L 1259 0 
L 628 0 
L 628 4666 
z
" transform="scale(0.015625)"/>
       <path id="DejaVuSans-72" d="M 2631 2963 
Q 2534 3019 2420 3045 
Q 2306 3072 2169 3072 
Q 1681 3072 1420 2755 
Q 1159 2438 1159 1844 
L 1159 0 
L 581 0 
L 581 3500 
L 1159 3500 
L 1159 2956 
Q 1341 3275 1631 3429 
Q 1922 3584 2338 3584 
Q 2397 3584 2469 3576 
Q 2541 3569 2628 3553 
L 2631 2963 
z
" transform="scale(0.015625)"/>
       <path id="DejaVuSans-63" d="M 3122 3366 
L 3122 2828 
Q 2878 2963 2633 3030 
Q 2388 3097 2138 3097 
Q 1578 3097 1268 2742 
Q 959 2388 959 1747 
Q 959 1106 1268 751 
Q 1578 397 2138 397 
Q 2388 397 2633 464 
Q 2878 531 3122 666 
L 3122 134 
Q 2881 22 2623 -34 
Q 2366 -91 2075 -91 
Q 1284 -91 818 406 
Q 353 903 353 1747 
Q 353 2603 823 3093 
Q 1294 3584 2113 3584 
Q 2378 3584 2631 3529 
Q 2884 3475 3122 3366 
z
" transform="scale(0.015625)"/>
       <path id="DejaVuSans-74" d="M 1172 4494 
L 1172 3500 
L 2356 3500 
L 2356 3053 
L 1172 3053 
L 1172 1153 
Q 1172 725 1289 603 
Q 1406 481 1766 481 
L 2356 481 
L 2356 0 
L 1766 0 
Q 1100 0 847 248 
Q 594 497 594 1153 
L 594 3053 
L 172 3053 
L 172 3500 
L 594 3500 
L 594 4494 
L 1172 4494 
z
" transform="scale(0.015625)"/>
       <path id="DejaVuSans-75" d="M 544 1381 
L 544 3500 
L 1119 3500 
L 1119 1403 
Q 1119 906 1312 657 
Q 1506 409 1894 409 
Q 2359 409 2629 706 
Q 2900 1003 2900 1516 
L 2900 3500 
L 3475 3500 
L 3475 0 
L 2900 0 
L 2900 538 
Q 2691 219 2414 64 
Q 2138 -91 1772 -91 
Q 1169 -91 856 284 
Q 544 659 544 1381 
z
M 1991 3584 
L 1991 3584 
z
" transform="scale(0.015625)"/>
       <path id="DejaVuSans-2c" d="M 750 794 
L 1409 794 
L 1409 256 
L 897 -744 
L 494 -744 
L 750 256 
L 750 794 
z
" transform="scale(0.015625)"/>
       <path id="DejaVuSans-70" d="M 1159 525 
L 1159 -1331 
L 581 -1331 
L 581 3500 
L 1159 3500 
L 1159 2969 
Q 1341 3281 1617 3432 
Q 1894 3584 2278 3584 
Q 2916 3584 3314 3078 
Q 3713 2572 3713 1747 
Q 3713 922 3314 415 
Q 2916 -91 2278 -91 
Q 1894 -91 1617 61 
Q 1341 213 1159 525 
z
M 3116 1747 
Q 3116 2381 2855 2742 
Q 2594 3103 2138 3103 
Q 1681 3103 1420 2742 
Q 1159 2381 1159 1747 
Q 1159 1113 1420 752 
Q 1681 391 2138 391 
Q 2594 391 2855 752 
Q 3116 1113 3116 1747 
z
" transform="scale(0.015625)"/>
      </defs>
      <use xlink:href="#DejaVuSans-46"/>
      <use xlink:href="#DejaVuSans-72" x="50.269531"/>
      <use xlink:href="#DejaVuSans-61" x="91.382812"/>
      <use xlink:href="#DejaVuSans-63" x="152.662109"/>
      <use xlink:href="#DejaVuSans-74" x="207.642578"/>
      <use xlink:href="#DejaVuSans-69" x="246.851562"/>
      <use xlink:href="#DejaVuSans-6f" x="274.634766"/>
      <use xlink:href="#DejaVuSans-6e" x="335.816406"/>
      <use xlink:href="#DejaVuSans-20" x="399.195312"/>
      <use xlink:href="#DejaVuSans-6f" x="430.982422"/>
      <use xlink:href="#DejaVuSans-66" x="492.164062"/>
      <use xlink:href="#DejaVuSans-20" x="527.369141"/>
      <use xlink:href="#DejaVuSans-66" x="559.15625"/>
      <use xlink:href="#DejaVuSans-75" x="594.361328"/>
      <use xlink:href="#DejaVuSans-6e" x="657.740234"/>
      <use xlink:href="#DejaVuSans-63" x="721.119141"/>
      <use xlink:href="#DejaVuSans-74" x="776.099609"/>
      <use xlink:href="#DejaVuSans-69" x="815.308594"/>
      <use xlink:href="#DejaVuSans-6f" x="843.091797"/>
      <use xlink:href="#DejaVuSans-6e" x="904.273438"/>
      <use xlink:href="#DejaVuSans-2c" x="967.652344"/>
      <use xlink:href="#DejaVuSans-74" x="999.439453"/>
      <use xlink:href="#DejaVuSans-61" x="1038.648438"/>
      <use xlink:href="#DejaVuSans-72" x="1099.927734"/>
      <use xlink:href="#DejaVuSans-67" x="1139.291016"/>
      <use xlink:href="#DejaVuSans-65" x="1202.767578"/>
      <use xlink:href="#DejaVuSans-74" x="1264.291016"/>
      <use xlink:href="#DejaVuSans-20" x="1303.5"/>
      <use xlink:href="#DejaVuSans-70" x="1335.287109"/>
      <use xlink:href="#DejaVuSans-61" x="1398.763672"/>
      <use xlink:href="#DejaVuSans-69" x="1460.042969"/>
      <use xlink:href="#DejaVuSans-72" x="1487.826172"/>
      <use xlink:href="#DejaVuSans-73" x="1528.939453"/>
     </g>
    </g>
   </g>
   <g id="line2d_33">
    <defs>
     <path id="mc315662e3f" d="M 0 1.5 
C 0.397805 1.5 0.77937 1.341951 1.06066 1.06066 
C 1.341951 0.77937 1.5 0.397805 1.5 0 
C 1.5 -0.397805 1.341951 -0.77937 1.06066 -1.06066 
C 0.77937 -1.341951 0.397805 -1.5 0 -1.5 
C -0.397805 -1.5 -0.77937 -1.341951 -1.06066 -1.06066 
C -1.341951 -0.77937 -1.5 -0.397805 -1.5 0 
C -1.5 0.397805 -1.341951 0.77937 -1.06066 1.06066 
C -0.77937 1.341951 -0.397805 1.5 0 1.5 
z
" style="stroke: #f5deb3"/>
    </defs>
    <g>
     <use xlink:href="#mc315662e3f" x="335.487261" y="6.912" style="fill: #f5deb3; stroke: #f5deb3"/>
     <use xlink:href="#mc315662e3f" x="335.487261" y="6.912" style="fill: #f5deb3; stroke: #f5deb3"/>
    </g>
   </g>
   <g id="line2d_34">
    <defs>
     <path id="m6894661641" d="M 0 1.5 
C 0.397805 1.5 0.77937 1.341951 1.06066 1.06066 
C 1.341951 0.77937 1.5 0.397805 1.5 0 
C 1.5 -0.397805 1.341951 -0.77937 1.06066 -1.06066 
C 0.77937 -1.341951 0.397805 -1.5 0 -1.5 
C -0.397805 -1.5 -0.77937 -1.341951 -1.06066 -1.06066 
C -1.341951 -0.77937 -1.5 -0.397805 -1.5 0 
C -1.5 0.397805 -1.341951 0.77937 -1.06066 1.06066 
C -0.77937 1.341951 -0.397805 1.5 0 1.5 
z
" style="stroke: #000080"/>
    </defs>
    <g>
     <use xlink:href="#m6894661641" x="359.530583" y="148.919718" style="fill: #000080; stroke: #000080"/>
     <use xlink:href="#m6894661641" x="359.530583" y="148.919718" style="fill: #000080; stroke: #000080"/>
    </g>
   </g>
   <g id="line2d_35">
    <path d="M 1.245626 298.944 
L 1.245626 291.15648 
L 14.2848 291.15648 
L 14.2848 290.851087 
L 21.912228 290.851087 
L 21.912228 290.545694 
L 27.323974 290.545694 
L 27.323974 290.240301 
L 31.521651 290.240301 
L 31.521651 289.85856 
L 49.496305 289.782212 
L 49.496305 289.705864 
L 52.188254 289.705864 
L 52.188254 289.476819 
L 70.639174 289.400471 
L 70.639174 289.324122 
L 74.456807 289.324122 
L 74.456807 289.171426 
L 77.628862 289.095078 
L 77.628862 289.018729 
L 81.955828 288.942381 
L 81.955828 288.866033 
L 89.14879 288.866033 
L 89.14879 288.713336 
L 90.989609 288.636988 
L 90.989609 288.56064 
L 99.550033 288.484292 
L 99.550033 288.407944 
L 117.305581 288.331595 
L 117.305581 288.255247 
L 118.925995 288.178899 
L 118.925995 288.102551 
L 119.319033 288.026202 
L 119.319033 287.949854 
L 119.979155 287.873506 
L 119.979155 287.797158 
L 120.550775 287.720809 
L 120.550775 287.644461 
L 121.706797 287.568113 
L 121.706797 287.339068 
L 122.015696 287.339068 
L 122.107385 287.110024 
L 122.319605 287.110024 
L 122.319605 286.880979 
L 122.499621 286.880979 
L 122.499621 286.728282 
L 122.766456 286.728282 
L 122.854567 286.193845 
L 122.883845 286.193845 
L 122.971409 285.583059 
L 123.000507 285.583059 
L 123.08753 285.201318 
L 123.116449 285.201318 
L 123.174153 284.437835 
L 123.231681 284.437835 
L 123.317644 283.674353 
L 123.431654 283.598005 
L 123.431654 283.521656 
L 123.573201 283.445308 
L 123.573201 283.216264 
L 123.797484 283.216264 
L 123.880906 282.910871 
L 123.963959 282.910871 
L 124.019125 281.765647 
L 124.238185 281.765647 
L 124.292554 281.307558 
L 124.427792 281.231209 
L 124.481616 281.002165 
L 124.615507 280.925816 
L 124.668797 280.467727 
L 124.906754 280.467727 
L 124.959227 280.085986 
L 125.501533 280.009638 
L 125.501533 279.933289 
L 126.298963 279.856941 
L 126.347698 279.704245 
L 126.828223 279.627896 
L 126.828223 279.551548 
L 127.319904 279.4752 
L 127.319904 279.398852 
L 127.708728 279.322504 
L 127.708728 279.246155 
L 127.978432 279.246155 
L 127.978432 279.017111 
L 128.528195 278.940762 
L 128.528195 278.635369 
L 128.999044 278.635369 
L 129.0834 277.642842 
L 129.437756 277.566494 
L 129.479009 277.413798 
L 130.676331 277.337449 
L 130.676331 277.261101 
L 132.358208 277.184753 
L 132.358208 277.108405 
L 132.984158 277.032056 
L 132.984158 276.955708 
L 133.423621 276.87936 
L 133.423621 276.803012 
L 133.738397 276.803012 
L 133.738397 276.650315 
L 134.192883 276.573967 
L 134.192883 276.497619 
L 134.384351 276.421271 
L 134.384351 276.344922 
L 134.761537 276.268574 
L 134.839175 276.115878 
L 135.403945 276.039529 
L 135.508912 275.734136 
L 135.702311 275.657788 
L 135.74666 275.505092 
L 135.966853 275.428744 
L 135.966853 275.352395 
L 136.328207 275.276047 
L 136.328207 275.199699 
L 136.499223 275.199699 
L 136.584151 274.970654 
L 137.113304 274.894306 
L 137.113304 274.665261 
L 137.814102 274.588913 
L 137.814102 274.512565 
L 138.412998 274.436216 
L 138.476961 274.130824 
L 138.881255 274.054475 
L 138.881255 273.978127 
L 139.435481 273.901779 
L 139.435481 273.825431 
L 140.793122 273.749082 
L 140.815692 273.596386 
L 141.062184 273.520038 
L 141.062184 273.443689 
L 141.371301 273.367341 
L 141.371301 273.290993 
L 142.331827 273.214645 
L 142.363015 273.061948 
L 142.487252 272.9856 
L 142.487252 272.909252 
L 142.834867 272.832904 
L 142.834867 272.680207 
L 143.036385 272.603859 
L 143.136341 272.451162 
L 143.491845 272.374814 
L 143.560197 272.222118 
L 143.763777 272.145769 
L 143.763777 272.069421 
L 144.164444 271.993073 
L 144.164444 271.916725 
L 144.71325 271.840376 
L 144.786447 271.68768 
L 145.076419 271.611332 
L 145.076419 271.458635 
L 145.264312 271.382287 
L 145.326529 271.229591 
L 145.739021 271.153242 
L 145.79969 271.000546 
L 146.546143 270.924198 
L 146.604268 270.618805 
L 147.070998 270.542456 
L 147.111393 270.38976 
L 147.707122 270.313412 
L 147.707122 270.237064 
L 147.994208 270.160715 
L 148.086384 270.008019 
L 149.049758 269.931671 
L 149.136916 269.702626 
L 149.545489 269.626278 
L 149.580909 269.473581 
L 149.910637 269.397233 
L 149.91759 269.244536 
L 150.506141 269.168188 
L 150.506141 269.09184 
L 151.194122 269.015492 
L 151.194122 268.939144 
L 151.477784 268.862795 
L 151.477784 268.710099 
L 151.907925 268.633751 
L 151.907925 268.557402 
L 152.316216 268.481054 
L 152.316216 268.404706 
L 152.817404 268.328358 
L 152.882835 268.175661 
L 153.299778 268.175661 
L 153.299778 268.022965 
L 153.690622 267.946616 
L 153.781417 267.79392 
L 153.944874 267.717572 
L 153.989717 267.564875 
L 154.079083 267.488527 
L 154.079083 267.412179 
L 154.574008 267.335831 
L 154.617377 267.183134 
L 154.784496 267.106786 
L 154.880856 266.954089 
L 155.156488 266.877741 
L 155.156488 266.801393 
L 155.598521 266.725045 
L 155.598521 266.648696 
L 155.934724 266.572348 
L 155.944819 266.343304 
L 156.521235 266.266955 
L 156.521235 266.190607 
L 156.970935 266.114259 
L 156.970935 266.037911 
L 157.278978 265.961562 
L 157.339986 265.732518 
L 157.775329 265.656169 
L 157.884885 265.503473 
L 157.948499 265.427125 
L 157.948499 265.350776 
L 158.379008 265.274428 
L 158.379008 265.19808 
L 158.912271 265.121732 
L 158.912271 265.045384 
L 159.351007 264.969035 
L 159.351007 264.892687 
L 160.000673 264.816339 
L 160.000673 264.739991 
L 160.585328 264.663642 
L 160.585328 264.587294 
L 161.137049 264.510946 
L 161.137049 264.434598 
L 161.34647 264.358249 
L 161.34647 264.281901 
L 161.617145 264.205553 
L 161.617145 264.129205 
L 161.887659 264.052856 
L 161.994053 263.90016 
L 162.991492 263.823812 
L 163.026155 263.671115 
L 163.511597 263.594767 
L 163.511597 263.518419 
L 164.089846 263.442071 
L 164.089846 263.365722 
L 164.440019 263.289374 
L 164.440019 263.213026 
L 164.912672 263.136678 
L 164.912672 263.060329 
L 165.081079 262.983981 
L 165.081079 262.907633 
L 165.722028 262.831285 
L 165.823777 262.678588 
L 166.184412 262.60224 
L 166.184412 262.525892 
L 166.512385 262.449544 
L 166.569843 262.296847 
L 167.361848 262.220499 
L 167.361848 262.144151 
L 168.015899 262.067802 
L 168.015899 261.991454 
L 168.219327 261.915106 
L 168.261323 261.762409 
L 168.62227 261.686061 
L 168.62227 261.609713 
L 168.847255 261.533365 
L 168.925874 261.30432 
L 169.122249 261.227972 
L 169.122249 261.151624 
L 171.055593 261.075275 
L 171.112007 260.846231 
L 172.748826 260.769882 
L 172.748826 260.693534 
L 173.250171 260.617186 
L 173.250171 260.540838 
L 174.243111 260.464489 
L 174.345844 260.311793 
L 174.645118 260.235445 
L 174.645118 260.159096 
L 174.867875 260.082748 
L 174.867875 260.0064 
L 175.278564 259.930052 
L 175.278564 259.853704 
L 175.98377 259.777355 
L 175.98377 259.701007 
L 176.295937 259.624659 
L 176.295937 259.548311 
L 177.096265 259.471962 
L 177.096265 259.395614 
L 178.044034 259.319266 
L 178.044034 259.242918 
L 178.587865 259.166569 
L 178.633237 259.013873 
L 178.819626 258.937525 
L 178.819626 258.861176 
L 179.763281 258.784828 
L 179.828604 258.632132 
L 180.226955 258.555784 
L 180.226955 258.479435 
L 180.610247 258.403087 
L 180.610247 258.326739 
L 180.802369 258.250391 
L 180.802369 258.174042 
L 181.514267 258.097694 
L 181.564747 257.944998 
L 181.978963 257.868649 
L 181.978963 257.792301 
L 183.086278 257.715953 
L 183.194455 257.563256 
L 183.899404 257.486908 
L 183.899404 257.41056 
L 184.713855 257.334212 
L 184.713855 257.257864 
L 185.285659 257.181515 
L 185.386151 257.028819 
L 185.92895 256.952471 
L 185.990349 256.799774 
L 186.629145 256.723426 
L 186.629145 256.647078 
L 186.860771 256.570729 
L 186.860771 256.494381 
L 187.380275 256.418033 
L 187.421979 256.265336 
L 187.89782 256.188988 
L 187.89782 256.11264 
L 189.509621 256.036292 
L 189.509621 255.959944 
L 189.935214 255.883595 
L 189.935214 255.807247 
L 190.704563 255.730899 
L 190.704563 255.654551 
L 191.855809 255.578202 
L 191.855809 255.501854 
L 192.419479 255.425506 
L 192.419479 255.349158 
L 192.94135 255.272809 
L 192.94135 255.196461 
L 193.64126 255.120113 
L 193.64126 255.043765 
L 194.605214 254.967416 
L 194.605214 254.891068 
L 196.092638 254.81472 
L 196.092638 254.738372 
L 196.484431 254.662024 
L 196.484431 254.585675 
L 197.821786 254.509327 
L 197.821786 254.432979 
L 198.464846 254.356631 
L 198.520561 254.203934 
L 198.99066 254.127586 
L 199.036673 253.974889 
L 199.79283 253.898541 
L 199.79283 253.822193 
L 200.271795 253.745845 
L 200.271795 253.669496 
L 200.706654 253.593148 
L 200.706654 253.5168 
L 201.389835 253.440452 
L 201.389835 253.364104 
L 202.865557 253.287755 
L 202.865557 253.211407 
L 203.099059 253.135059 
L 203.204915 252.906014 
L 204.43846 252.829666 
L 204.51761 252.600621 
L 204.911058 252.524273 
L 204.965534 252.295228 
L 205.283261 252.21888 
L 205.283261 252.142532 
L 205.621275 252.066184 
L 205.621275 251.989835 
L 206.050292 251.913487 
L 206.050292 251.837139 
L 206.273355 251.760791 
L 206.273355 251.684442 
L 206.674992 251.608094 
L 206.674992 251.531746 
L 207.472017 251.455398 
L 207.472017 251.379049 
L 207.655049 251.302701 
L 207.758431 251.073656 
L 208.208753 250.997308 
L 208.208753 250.92096 
L 208.738395 250.844612 
L 208.791065 250.615567 
L 208.959951 250.539219 
L 209.063916 250.386522 
L 209.407746 250.310174 
L 209.407746 250.233826 
L 209.928593 250.157478 
L 209.93403 250.004781 
L 210.390224 249.928433 
L 210.420079 249.775736 
L 210.592149 249.699388 
L 210.657786 249.546692 
L 210.809144 249.470344 
L 210.811328 249.317647 
L 211.512704 249.241299 
L 211.512704 249.164951 
L 211.943899 249.088602 
L 211.943899 249.012254 
L 212.138296 248.935906 
L 212.138296 248.859558 
L 212.424672 248.783209 
L 212.46798 248.630513 
L 212.790756 248.554165 
L 212.791985 248.401468 
L 213.094065 248.32512 
L 213.094065 248.248772 
L 213.241505 248.172424 
L 213.306187 248.019727 
L 213.478776 247.943379 
L 213.478776 247.867031 
L 213.70209 247.790682 
L 213.70209 247.714334 
L 214.186159 247.637986 
L 214.186159 247.561638 
L 214.539752 247.485289 
L 214.539752 247.408941 
L 214.782973 247.332593 
L 214.782973 247.256245 
L 215.050356 247.179896 
L 215.119544 246.950852 
L 215.426071 246.874504 
L 215.426071 246.798155 
L 215.599829 246.721807 
L 215.599829 246.645459 
L 215.907022 246.569111 
L 215.972098 246.416414 
L 216.155506 246.340066 
L 216.155506 246.263718 
L 216.63743 246.187369 
L 216.71101 245.805628 
L 217.154347 245.72928 
L 217.154347 245.652932 
L 217.466135 245.576584 
L 217.504629 245.423887 
L 217.751327 245.347539 
L 217.790561 245.194842 
L 218.356658 245.118494 
L 218.414164 244.965798 
L 218.620827 244.889449 
L 218.620827 244.813101 
L 218.753413 244.736753 
L 218.856784 244.584056 
L 219.213387 244.507708 
L 219.278612 244.278664 
L 219.736098 244.202315 
L 219.738476 244.049619 
L 219.933684 243.973271 
L 219.933684 243.896922 
L 220.192674 243.820574 
L 220.266163 243.667878 
L 220.959107 243.591529 
L 221.01221 243.438833 
L 221.313665 243.362485 
L 221.313665 243.286136 
L 221.509665 243.209788 
L 221.58528 243.057092 
L 221.968518 242.980744 
L 222.016593 242.751699 
L 222.166956 242.675351 
L 222.166956 242.599002 
L 222.529415 242.522654 
L 222.63443 242.217261 
L 223.182182 242.140913 
L 223.182182 242.064565 
L 223.440006 241.988216 
L 223.440006 241.911868 
L 223.996706 241.83552 
L 223.996706 241.759172 
L 224.281078 241.682824 
L 224.355393 241.530127 
L 224.748156 241.453779 
L 224.748156 241.377431 
L 225.413152 241.301082 
L 225.413152 241.224734 
L 225.880373 241.148386 
L 225.880373 241.072038 
L 226.284999 240.995689 
L 226.284999 240.919341 
L 226.827125 240.842993 
L 226.866129 240.690296 
L 227.477643 240.613948 
L 227.586876 240.461252 
L 227.922367 240.384904 
L 227.922367 240.308555 
L 228.657835 240.232207 
L 228.657835 240.155859 
L 229.517567 240.079511 
L 229.517567 240.003162 
L 230.110013 239.926814 
L 230.110013 239.850466 
L 236.823821 239.774118 
L 236.823821 239.697769 
L 244.329348 239.621421 
L 244.329348 239.545073 
L 246.466851 239.468725 
L 246.51107 239.316028 
L 246.927794 239.23968 
L 246.927794 239.163332 
L 247.273521 239.086984 
L 247.273521 239.010635 
L 247.90399 238.934287 
L 247.90399 238.857939 
L 248.397105 238.781591 
L 248.486023 238.628894 
L 248.890253 238.552546 
L 248.990586 238.399849 
L 249.394696 238.323501 
L 249.394696 238.247153 
L 249.902414 238.170805 
L 249.98131 238.018108 
L 250.910894 237.94176 
L 250.910894 237.865412 
L 251.347902 237.789064 
L 251.347902 237.712715 
L 252.819847 237.636367 
L 252.819847 237.560019 
L 253.433207 237.483671 
L 253.433207 237.407322 
L 255.146456 237.330974 
L 255.146456 237.254626 
L 257.427797 237.178278 
L 257.427797 237.101929 
L 258.692557 237.025581 
L 258.692557 236.949233 
L 259.645522 236.872885 
L 259.645522 236.796536 
L 260.317038 236.720188 
L 260.317038 236.64384 
L 261.46697 236.567492 
L 261.46697 236.491144 
L 262.245887 236.414795 
L 262.245887 236.338447 
L 263.635386 236.262099 
L 263.635386 236.185751 
L 264.743403 236.109402 
L 264.743403 236.033054 
L 265.245774 235.956706 
L 265.245774 235.880358 
L 265.802458 235.804009 
L 265.802458 235.727661 
L 266.3429 235.651313 
L 266.421443 235.422268 
L 267.604803 235.34592 
L 267.604803 235.269572 
L 268.034266 235.193224 
L 268.034266 235.116875 
L 268.273703 235.040527 
L 268.273703 234.964179 
L 270.895459 234.887831 
L 270.92625 234.735134 
L 272.833807 234.658786 
L 272.833807 234.582438 
L 274.182141 234.506089 
L 274.283632 231.45216 
L 274.300402 231.45216 
L 274.41108 230.230588 
L 274.420543 230.230588 
L 274.519356 229.238061 
L 274.560788 229.161713 
L 274.670059 227.940141 
L 274.677707 227.940141 
L 274.754252 227.100311 
L 274.800156 227.100311 
L 274.906665 226.031435 
L 274.923775 225.955087 
L 275.034253 224.657167 
L 275.040704 224.580819 
L 275.144425 223.740988 
L 275.189541 223.66464 
L 275.286844 223.206551 
L 275.316284 223.130202 
L 275.426177 222.595765 
L 275.457289 222.519416 
L 275.533961 222.214024 
L 275.596007 222.137675 
L 275.704135 221.450541 
L 275.778989 221.374193 
L 275.819903 221.145148 
L 275.897149 221.145148 
L 275.901904 220.763407 
L 277.013234 220.763407 
L 277.013234 220.610711 
L 278.211714 220.534362 
L 278.298778 220.381666 
L 278.335103 220.381666 
L 278.366211 220.152621 
L 278.555687 220.076273 
L 278.640339 219.923576 
L 279.04349 219.847228 
L 279.070208 219.694532 
L 279.489182 219.618184 
L 279.568728 219.389139 
L 280.01056 219.389139 
L 280.01056 219.236442 
L 280.807685 219.160094 
L 280.807685 219.007398 
L 281.071739 218.931049 
L 281.071739 218.854701 
L 281.534116 218.778353 
L 281.534116 218.702005 
L 282.432515 218.625656 
L 282.432515 218.549308 
L 283.084002 218.47296 
L 283.177158 218.243915 
L 283.370232 218.243915 
L 283.370232 218.014871 
L 283.490519 218.014871 
L 283.490519 217.785826 
L 283.721043 217.709478 
L 283.721043 217.556781 
L 284.393852 217.480433 
L 284.393852 217.327736 
L 287.223238 217.251388 
L 287.333082 214.808245 
L 287.340063 214.731896 
L 287.428971 213.815718 
L 287.467701 213.739369 
L 287.571207 212.288753 
L 287.588509 212.212405 
L 287.699583 210.456395 
L 287.702965 210.380047 
L 287.8097 209.234824 
L 287.838703 209.158475 
L 287.918787 208.853082 
L 287.971639 208.776734 
L 288.003001 208.547689 
L 288.123227 208.471341 
L 288.123227 208.394993 
L 289.426709 208.318645 
L 289.474407 208.0896 
L 289.579468 208.013252 
L 289.667912 207.707859 
L 289.765036 207.707859 
L 289.805915 207.402466 
L 290.058729 207.326118 
L 290.058729 207.249769 
L 290.948747 207.173421 
L 290.977261 207.020725 
L 291.20612 207.020725 
L 291.251727 206.79168 
L 291.639956 206.715332 
L 291.639956 206.638984 
L 291.939818 206.562635 
L 292.018506 206.333591 
L 292.309582 206.257242 
L 292.309582 206.180894 
L 292.595219 206.180894 
L 292.595219 206.028198 
L 292.955065 205.951849 
L 292.955065 205.875501 
L 293.073261 205.875501 
L 293.073261 205.646456 
L 294.40576 205.570108 
L 294.40576 205.49376 
L 294.85026 205.417412 
L 294.955499 203.050616 
L 294.973043 202.974268 
L 295.075726 201.905393 
L 295.089863 201.829045 
L 295.196291 200.607473 
L 295.23205 200.531125 
L 295.325612 200.073035 
L 295.387843 199.996687 
L 295.387843 199.920339 
L 296.410499 199.843991 
L 296.512763 199.233205 
L 296.619287 199.156856 
L 296.619287 199.080508 
L 296.785234 199.00416 
L 296.785234 198.927812 
L 297.255267 198.851464 
L 297.255267 198.546071 
L 297.432313 198.469722 
L 297.432313 198.317026 
L 297.904913 198.240678 
L 298.014605 198.087981 
L 298.301941 198.011633 
L 298.343481 197.858936 
L 298.588294 197.782588 
L 298.681277 197.629892 
L 298.943187 197.553544 
L 298.943187 197.477195 
L 300.263788 197.400847 
L 300.374707 196.255624 
L 300.408327 196.179275 
L 300.512932 194.881355 
L 300.530914 194.805007 
L 300.574768 194.194221 
L 300.643182 194.194221 
L 300.699623 193.965176 
L 301.392597 193.888828 
L 301.473615 193.583435 
L 301.520664 193.507087 
L 301.602345 193.125346 
L 302.092232 193.048998 
L 302.092232 192.819953 
L 302.21361 192.819953 
L 302.31005 192.51456 
L 302.355461 192.51456 
L 302.355461 192.361864 
L 302.596538 192.285515 
L 302.682073 192.056471 
L 302.80891 191.980122 
L 302.80891 191.903774 
L 303.131195 191.827426 
L 303.131195 191.751078 
L 304.458909 191.674729 
L 304.543857 191.21664 
L 304.578325 191.140292 
L 304.678619 190.147765 
L 304.714266 190.071416 
L 304.810107 189.613327 
L 305.388521 189.613327 
L 305.471806 188.849845 
L 305.5315 188.773496 
L 305.641503 188.544452 
L 305.724169 188.468104 
L 305.724169 188.391755 
L 305.835833 188.391755 
L 305.835833 188.239059 
L 306.151271 188.162711 
L 306.151271 188.086362 
L 306.348527 188.010014 
L 306.418624 187.780969 
L 306.685372 187.704621 
L 306.782458 187.399228 
L 306.961673 187.32288 
L 306.98754 187.017487 
L 307.142876 187.017487 
L 307.142876 186.788442 
L 307.897751 186.712094 
L 308.001373 186.177656 
L 308.023327 186.101308 
L 308.102342 185.566871 
L 308.385371 185.490522 
L 308.385371 185.414174 
L 308.682056 185.337826 
L 308.735387 184.879736 
L 308.988672 184.803388 
L 308.988672 184.650692 
L 309.162351 184.574344 
L 309.162351 184.497995 
L 309.325697 184.421647 
L 309.325697 184.345299 
L 309.475177 184.345299 
L 309.475177 184.116254 
L 309.622762 184.039906 
L 309.713539 183.734513 
L 309.843306 183.658165 
L 309.843306 183.581816 
L 310.784197 183.505468 
L 310.892852 182.971031 
L 311.007644 182.894682 
L 311.019123 182.741986 
L 311.440426 182.665638 
L 311.546061 181.902155 
L 311.653248 181.825807 
L 311.653248 181.749459 
L 312.010796 181.673111 
L 312.101644 181.444066 
L 312.15546 181.367718 
L 312.15546 181.291369 
L 312.342637 181.291369 
L 312.362342 180.985976 
L 312.607699 180.909628 
L 312.607699 180.83328 
L 312.742087 180.83328 
L 312.742087 180.680584 
L 313.310142 180.604235 
L 313.402971 180.146146 
L 313.43602 180.069798 
L 313.450147 179.917101 
L 313.929698 179.840753 
L 313.929698 179.764405 
L 314.098636 179.764405 
L 314.170257 179.306315 
L 314.306896 179.229967 
L 314.38672 178.924574 
L 314.590495 178.848226 
L 314.666378 178.619181 
L 314.786887 178.619181 
L 314.826247 178.313788 
L 315.601731 178.23744 
L 315.625602 178.008395 
L 316.035225 177.932047 
L 316.120269 177.244913 
L 316.169141 177.244913 
L 316.254324 176.93952 
L 316.372533 176.863172 
L 316.412639 176.634127 
L 316.565012 176.557779 
L 316.627032 176.328734 
L 316.782525 176.252386 
L 316.877664 175.946993 
L 316.944555 175.946993 
L 316.977649 175.488904 
L 317.576258 175.412555 
L 317.649722 174.954466 
L 317.975441 174.954466 
L 318.003966 174.572725 
L 318.138023 174.496376 
L 318.195825 174.34368 
L 318.269956 174.34368 
L 318.370781 174.038287 
L 318.611515 173.961939 
L 318.697349 173.351153 
L 319.316045 173.274805 
L 319.383192 173.04576 
L 319.742822 172.969412 
L 319.843477 172.358626 
L 319.973407 172.282278 
L 319.973407 172.205929 
L 320.203597 172.205929 
L 320.292398 171.900536 
L 320.383772 171.824188 
L 320.493972 171.595144 
L 320.994407 171.518795 
L 321.031123 171.366099 
L 321.329987 171.289751 
L 321.3811 170.526268 
L 321.482539 170.526268 
L 321.482539 170.373572 
L 321.71831 170.297224 
L 321.765487 170.144527 
L 321.929581 170.068179 
L 322.0076 169.915482 
L 322.800273 169.915482 
L 322.800273 169.686438 
L 323.011542 169.610089 
L 323.098521 169.304696 
L 323.250273 169.228348 
L 323.361271 168.922955 
L 323.431932 168.846607 
L 323.50764 168.617562 
L 323.899976 168.541214 
L 323.899976 168.464866 
L 324.171909 168.464866 
L 324.186923 168.235821 
L 324.38029 168.159473 
L 324.431384 167.85408 
L 324.617476 167.777732 
L 324.688574 167.395991 
L 324.826541 167.319642 
L 324.826541 167.166946 
L 325.428958 167.090598 
L 325.487643 166.55616 
L 325.569231 166.55616 
L 325.66137 166.174419 
L 325.702265 166.098071 
L 325.797263 165.639981 
L 325.951589 165.563633 
L 326.059 165.334588 
L 326.719027 165.25824 
L 326.809275 164.952847 
L 326.868064 164.876499 
L 326.933863 164.647454 
L 327.07134 164.571106 
L 327.162359 164.418409 
L 327.215654 164.418409 
L 327.215654 164.265713 
L 327.747226 164.189365 
L 327.836963 163.425882 
L 327.952838 163.425882 
L 328.03947 162.967793 
L 328.094633 162.891445 
L 328.19197 162.509704 
L 328.246651 162.433355 
L 328.264806 162.280659 
L 328.830016 162.204311 
L 328.892173 161.898918 
L 329.135877 161.822569 
L 329.227986 161.593525 
L 329.81647 161.517176 
L 329.880956 161.135435 
L 329.995243 161.059087 
L 330.103253 160.677346 
L 330.208759 160.600998 
L 330.259038 160.371953 
L 330.807812 160.295605 
L 330.885986 160.142908 
L 330.975305 160.06656 
L 331.012834 159.913864 
L 331.140602 159.837515 
L 331.205393 159.608471 
L 331.693089 159.532122 
L 331.75898 159.226729 
L 331.907957 159.150381 
L 331.952878 158.921336 
L 332.559977 158.844988 
L 332.646866 158.310551 
L 332.880161 158.234202 
L 332.930301 158.081506 
L 333.443478 158.005158 
L 333.547003 157.699765 
L 333.629445 157.623416 
L 333.629445 157.547068 
L 334.171748 157.47072 
L 334.232344 157.241675 
L 334.371307 157.165327 
L 334.371307 157.012631 
L 334.511296 156.936282 
L 334.511296 156.859934 
L 334.968303 156.783586 
L 334.999706 156.630889 
L 335.15289 156.554541 
L 335.15289 156.478193 
L 335.663901 156.401845 
L 335.760558 156.020104 
L 335.882157 155.943755 
L 335.904675 155.791059 
L 336.38044 155.714711 
L 336.481799 155.409318 
L 336.609895 155.332969 
L 336.678134 155.180273 
L 337.041475 155.103925 
L 337.077937 154.87488 
L 337.338502 154.798532 
L 337.338502 154.722184 
L 337.93117 154.645835 
L 337.944768 154.493139 
L 338.361345 154.416791 
L 338.455589 154.264094 
L 338.566813 154.187746 
L 338.578893 154.035049 
L 338.949988 153.958701 
L 339.029381 153.806005 
L 339.170584 153.729656 
L 339.235521 153.500612 
L 339.576404 153.424264 
L 339.576404 153.347915 
L 340.135865 153.271567 
L 340.135865 153.195219 
L 341.197247 153.118871 
L 341.304247 152.966174 
L 341.732539 152.889826 
L 341.732539 152.813478 
L 342.229398 152.737129 
L 342.229398 152.660781 
L 342.391073 152.584433 
L 342.436658 152.431736 
L 342.730562 152.355388 
L 342.730562 152.27904 
L 343.223792 152.202692 
L 343.236068 152.049995 
L 343.695094 151.973647 
L 343.761631 151.744602 
L 343.855945 151.668254 
L 343.878414 151.439209 
L 344.643403 151.362861 
L 344.693117 151.210165 
L 344.789105 151.133816 
L 344.789105 151.057468 
L 345.138267 150.98112 
L 345.138267 150.904772 
L 345.499365 150.828424 
L 345.499365 150.752075 
L 346.026884 150.752075 
L 346.026884 150.599379 
L 346.409975 150.523031 
L 346.409975 150.446682 
L 347.631574 150.370334 
L 347.631574 150.293986 
L 348.642598 150.217638 
L 348.743065 150.064941 
L 349.328333 149.988593 
L 349.328333 149.912245 
L 349.673365 149.835896 
L 349.673365 149.759548 
L 351.664191 149.6832 
L 351.664191 149.606852 
L 353.064944 149.530504 
L 353.064944 149.454155 
L 354.80333 149.377807 
L 354.80333 149.301459 
L 356.234117 149.225111 
L 356.234117 149.148762 
L 358.671519 149.072414 
L 358.671519 148.996066 
L 360.8064 148.919718 
L 360.8064 148.919718 
" style="fill: none; stroke: #000080; stroke-width: 1.5; stroke-linecap: square"/>
   </g>
   <g id="line2d_36">
    <defs>
     <path id="mbc341ebc00" d="M 0 6 
C 1.591219 6 3.117479 5.367802 4.242641 4.242641 
C 5.367802 3.117479 6 1.591219 6 0 
C 6 -1.591219 5.367802 -3.117479 4.242641 -4.242641 
C 3.117479 -5.367802 1.591219 -6 0 -6 
C -1.591219 -6 -3.117479 -5.367802 -4.242641 -4.242641 
C -5.367802 -3.117479 -6 -1.591219 -6 0 
C -6 1.591219 -5.367802 3.117479 -4.242641 4.242641 
C -3.117479 5.367802 -1.591219 6 0 6 
z
" style="stroke: #000080; stroke-width: 1.5"/>
    </defs>
    <g>
     <use xlink:href="#mbc341ebc00" x="168.62227" y="261.686061" style="fill-opacity: 0; stroke: #000080; stroke-width: 1.5"/>
     <use xlink:href="#mbc341ebc00" x="263.98711" y="236.185751" style="fill-opacity: 0; stroke: #000080; stroke-width: 1.5"/>
     <use xlink:href="#mbc341ebc00" x="317.600137" y="175.259859" style="fill-opacity: 0; stroke: #000080; stroke-width: 1.5"/>
     <use xlink:href="#mbc341ebc00" x="359.530583" y="148.919718" style="fill-opacity: 0; stroke: #000080; stroke-width: 1.5"/>
     <use xlink:href="#mbc341ebc00" x="360.8064" y="148.919718" style="fill-opacity: 0; stroke: #000080; stroke-width: 1.5"/>
    </g>
   </g>
   <g id="line2d_37">
    <path style="fill: none; stroke: #000080; stroke-width: 1.5; stroke-linecap: square"/>
    <g/>
   </g>
   <g id="line2d_38">
    <path d="M 274.176 234.506089 
" clip-path="url(#pa9570747b4)" style="fill: none; stroke: #000080; stroke-width: 1.5; stroke-linecap: square"/>
    <defs>
     <path id="mb968d4c715" d="M -12 12 
L 12 -12 
M -12 -12 
L 12 12 
" style="stroke: #000080"/>
    </defs>
    <g clip-path="url(#pa9570747b4)">
     <use xlink:href="#mb968d4c715" x="274.176" y="234.506089" style="fill: #000080; stroke: #000080"/>
    </g>
   </g>
   <g id="line2d_39">
    <defs>
     <path id="md8449cfabe" d="M 0 1.5 
C 0.397805 1.5 0.77937 1.341951 1.06066 1.06066 
C 1.341951 0.77937 1.5 0.397805 1.5 0 
C 1.5 -0.397805 1.341951 -0.77937 1.06066 -1.06066 
C 0.77937 -1.341951 0.397805 -1.5 0 -1.5 
C -0.397805 -1.5 -0.77937 -1.341951 -1.06066 -1.06066 
C -1.341951 -0.77937 -1.5 -0.397805 -1.5 0 
C -1.5 0.397805 -1.341951 0.77937 -1.06066 1.06066 
C -0.77937 1.341951 -0.397805 1.5 0 1.5 
z
" style="stroke: #ff00ff"/>
    </defs>
    <g>
     <use xlink:href="#md8449cfabe" x="355.439749" y="217.633129" style="fill: #ff00ff; stroke: #ff00ff"/>
     <use xlink:href="#md8449cfabe" x="355.439749" y="217.633129" style="fill: #ff00ff; stroke: #ff00ff"/>
    </g>
   </g>
   <g id="line2d_40">
    <path d="M 1.245626 298.944 
L 1.245626 290.927435 
L 14.2848 290.927435 
L 14.2848 290.392998 
L 27.323974 290.316649 
L 27.323974 290.011256 
L 34.951403 290.011256 
L 34.951403 289.85856 
L 53.402323 289.782212 
L 53.402323 289.629515 
L 55.618005 289.553167 
L 55.618005 289.476819 
L 60.229139 289.400471 
L 60.229139 289.324122 
L 69.172597 289.247774 
L 69.172597 289.095078 
L 70.639174 289.018729 
L 70.639174 288.942381 
L 78.266603 288.866033 
L 78.266603 288.789685 
L 93.521459 288.713336 
L 93.521459 288.56064 
L 104.809458 288.484292 
L 104.809458 288.407944 
L 120.616896 288.331595 
L 120.616896 288.255247 
L 123.825333 288.178899 
L 123.825333 288.102551 
L 126.347698 288.026202 
L 126.347698 287.949854 
L 134.589598 287.873506 
L 134.589598 287.797158 
L 137.520791 287.720809 
L 137.520791 287.644461 
L 142.753651 287.568113 
L 142.753651 287.491765 
L 148.246613 287.415416 
L 148.246613 287.339068 
L 154.311669 287.26272 
L 154.311669 287.186372 
L 167.215518 287.110024 
L 167.215518 287.033675 
L 168.200924 286.957327 
L 168.200924 286.880979 
L 169.229637 286.804631 
L 169.304197 286.651934 
L 169.410555 286.575586 
L 169.410555 286.499238 
L 171.231046 286.422889 
L 171.231046 286.346541 
L 173.244136 286.270193 
L 173.244136 286.193845 
L 174.269799 286.117496 
L 174.269799 286.041148 
L 174.777234 285.9648 
L 174.777234 285.888452 
L 178.554522 285.812104 
L 178.554522 285.735755 
L 180.841365 285.659407 
L 180.841365 285.583059 
L 181.146492 285.506711 
L 181.237468 285.201318 
L 182.352051 285.124969 
L 182.455894 284.972273 
L 182.845108 284.895925 
L 182.845108 284.819576 
L 183.6685 284.743228 
L 183.761892 284.590532 
L 185.090553 284.514184 
L 185.090553 284.437835 
L 185.79626 284.361487 
L 185.79626 284.285139 
L 187.203908 284.208791 
L 187.203908 284.132442 
L 188.038532 284.056094 
L 188.038532 283.979746 
L 188.731137 283.903398 
L 188.829788 283.750701 
L 188.910438 283.674353 
L 188.910438 283.598005 
L 189.251971 283.521656 
L 189.251971 283.445308 
L 189.522327 283.36896 
L 189.61861 283.139915 
L 190.321387 283.063567 
L 190.364349 282.910871 
L 190.883421 282.834522 
L 190.964375 282.681826 
L 191.249251 282.605478 
L 191.249251 282.529129 
L 191.396986 282.452781 
L 191.396986 282.376433 
L 192.325605 282.300085 
L 192.325605 282.223736 
L 192.736191 282.147388 
L 192.736191 282.07104 
L 193.338853 281.994692 
L 193.338853 281.918344 
L 194.121455 281.841995 
L 194.204161 281.689299 
L 194.241095 281.612951 
L 194.241095 281.536602 
L 194.446208 281.460254 
L 194.486574 281.307558 
L 194.671662 281.231209 
L 194.706405 281.078513 
L 195.001692 281.002165 
L 195.09889 280.849468 
L 195.372002 280.77312 
L 195.372002 280.696772 
L 196.6857 280.620424 
L 196.6857 280.544075 
L 197.76396 280.467727 
L 197.809254 280.085986 
L 198.283423 280.009638 
L 198.309448 279.704245 
L 198.427963 279.627896 
L 198.536299 278.711718 
L 198.586574 278.635369 
L 198.678917 277.490146 
L 198.790995 277.413798 
L 198.856583 276.726664 
L 198.920402 276.726664 
L 199.027991 276.497619 
L 199.114638 276.421271 
L 199.205949 276.039529 
L 199.350126 275.963181 
L 199.404785 275.734136 
L 199.48922 275.657788 
L 199.552422 275.199699 
L 199.618878 275.123351 
L 199.696443 274.817958 
L 200.019545 274.741609 
L 200.107542 274.436216 
L 200.213846 274.359868 
L 200.213846 274.207172 
L 200.484808 274.130824 
L 200.484808 274.054475 
L 200.88708 273.978127 
L 200.912054 273.443689 
L 201.016677 273.367341 
L 201.016677 273.214645 
L 201.4155 273.138296 
L 201.5205 272.603859 
L 201.639152 272.527511 
L 201.725218 270.618805 
L 201.776492 270.542456 
L 201.85666 270.084367 
L 201.908454 270.008019 
L 202.015977 269.626278 
L 202.039062 269.549929 
L 202.039062 269.473581 
L 202.310893 269.397233 
L 202.374286 268.939144 
L 202.561078 268.862795 
L 202.641772 268.557402 
L 202.918805 268.557402 
L 202.977701 268.175661 
L 203.23966 268.099313 
L 203.23966 268.022965 
L 203.36259 268.022965 
L 203.36259 267.870268 
L 203.53062 267.870268 
L 203.630082 267.564875 
L 204.622628 267.488527 
L 204.713474 267.106786 
L 204.774172 267.030438 
L 204.810647 266.801393 
L 204.911805 266.725045 
L 204.991225 266.419652 
L 205.032852 266.343304 
L 205.138363 266.114259 
L 205.308522 266.037911 
L 205.308522 265.961562 
L 205.654349 265.885214 
L 205.654349 265.808866 
L 205.947665 265.732518 
L 205.947665 265.656169 
L 206.310508 265.579821 
L 206.363851 265.427125 
L 206.737488 265.350776 
L 206.737488 265.274428 
L 207.200705 265.19808 
L 207.272361 264.816339 
L 207.488315 264.739991 
L 207.488315 264.663642 
L 207.846869 264.587294 
L 207.852622 264.434598 
L 208.248536 264.358249 
L 208.286362 264.205553 
L 208.538866 264.129205 
L 208.538866 264.052856 
L 209.333751 263.976508 
L 209.439201 263.518419 
L 209.475881 263.442071 
L 209.553991 263.213026 
L 209.868685 263.136678 
L 209.868685 263.060329 
L 210.429835 262.983981 
L 210.429835 262.907633 
L 211.006375 262.831285 
L 211.006375 262.754936 
L 211.30638 262.678588 
L 211.393947 262.220499 
L 211.506653 262.144151 
L 211.613192 261.533365 
L 211.683711 261.457016 
L 211.783292 261.227972 
L 211.849302 261.151624 
L 211.924349 260.998927 
L 212.749171 260.922579 
L 212.749171 260.846231 
L 213.110021 260.769882 
L 213.205955 260.311793 
L 213.242705 260.235445 
L 213.242705 260.159096 
L 213.383274 260.082748 
L 213.462419 259.701007 
L 213.640167 259.624659 
L 213.640167 259.548311 
L 214.103361 259.471962 
L 214.208055 259.319266 
L 214.746014 259.242918 
L 214.848964 258.632132 
L 214.92131 258.555784 
L 215.031601 258.403087 
L 215.664076 258.326739 
L 215.664076 258.250391 
L 216.086937 258.174042 
L 216.086937 258.097694 
L 216.27332 258.021346 
L 216.373342 257.639605 
L 216.395475 257.563256 
L 216.430752 257.334212 
L 216.898652 257.257864 
L 216.918202 257.105167 
L 217.300543 257.028819 
L 217.300543 256.952471 
L 217.781137 256.876122 
L 217.870847 256.494381 
L 218.135404 256.418033 
L 218.165166 256.188988 
L 218.946836 256.11264 
L 219.013873 255.807247 
L 219.456218 255.730899 
L 219.456218 255.654551 
L 220.174755 255.578202 
L 220.212896 255.425506 
L 220.339201 255.349158 
L 220.339201 255.272809 
L 220.53596 255.196461 
L 220.61315 255.043765 
L 221.023638 254.967416 
L 221.023638 254.891068 
L 221.301787 254.81472 
L 221.377461 254.509327 
L 222.304124 254.432979 
L 222.388574 254.203934 
L 222.456186 254.127586 
L 222.558539 253.898541 
L 223.401732 253.822193 
L 223.422555 253.593148 
L 223.979764 253.5168 
L 224.048928 253.364104 
L 224.41935 253.287755 
L 224.511322 253.135059 
L 225.263538 253.058711 
L 225.368997 252.906014 
L 225.809027 252.829666 
L 225.821326 252.676969 
L 226.270958 252.600621 
L 226.270958 252.524273 
L 226.956518 252.447925 
L 227.015805 252.295228 
L 227.192555 252.21888 
L 227.192555 252.142532 
L 227.87712 252.066184 
L 227.87712 251.989835 
L 228.282965 251.913487 
L 228.369173 251.760791 
L 228.546795 251.684442 
L 228.641755 251.455398 
L 228.831194 251.379049 
L 228.904705 251.226353 
L 229.083465 251.150005 
L 229.083465 251.073656 
L 229.47995 250.997308 
L 229.47995 250.92096 
L 230.002126 250.844612 
L 230.102376 250.539219 
L 230.783042 250.462871 
L 230.783042 250.386522 
L 231.387877 250.310174 
L 231.452519 250.081129 
L 231.669735 250.004781 
L 231.669735 249.928433 
L 232.229574 249.852085 
L 232.229574 249.775736 
L 232.466656 249.699388 
L 232.480297 249.546692 
L 232.77816 249.470344 
L 232.848108 249.317647 
L 233.23873 249.241299 
L 233.23873 249.164951 
L 233.780812 249.088602 
L 233.780812 249.012254 
L 234.39342 248.935906 
L 234.494953 248.783209 
L 235.143014 248.706861 
L 235.143014 248.630513 
L 236.029037 248.554165 
L 236.029037 248.477816 
L 236.51111 248.401468 
L 236.603315 248.248772 
L 237.463425 248.172424 
L 237.463425 248.096075 
L 238.414657 248.019727 
L 238.414657 247.943379 
L 239.275166 247.867031 
L 239.275166 247.790682 
L 239.711584 247.714334 
L 239.711584 247.637986 
L 240.270384 247.561638 
L 240.270384 247.485289 
L 241.335673 247.408941 
L 241.335673 247.332593 
L 241.546198 247.256245 
L 241.585544 247.103548 
L 242.088598 247.0272 
L 242.088598 246.950852 
L 242.527271 246.874504 
L 242.527271 246.798155 
L 243.406142 246.721807 
L 243.406142 246.645459 
L 244.184639 246.569111 
L 244.184639 246.492762 
L 246.38527 246.416414 
L 246.38527 246.340066 
L 247.359253 246.263718 
L 247.359253 246.187369 
L 248.25941 246.111021 
L 248.25941 246.034673 
L 254.756846 245.958325 
L 254.756846 245.881976 
L 259.22393 245.805628 
L 259.22393 245.72928 
L 265.426229 245.652932 
L 265.426229 245.576584 
L 269.613977 245.500235 
L 269.613977 245.423887 
L 271.331064 245.347539 
L 271.331064 245.271191 
L 273.395706 245.194842 
L 273.395706 245.118494 
L 273.917816 245.042146 
L 273.917816 244.965798 
L 274.043761 244.889449 
L 274.043761 244.813101 
L 274.656292 244.736753 
L 274.75001 244.355012 
L 274.790172 244.278664 
L 274.880754 243.667878 
L 274.911596 243.591529 
L 275.008886 243.057092 
L 275.023709 243.057092 
L 275.108486 242.599002 
L 275.181856 242.522654 
L 275.227096 242.217261 
L 275.414072 242.217261 
L 275.478505 241.83552 
L 275.542929 241.83552 
L 275.628119 241.453779 
L 275.675443 241.377431 
L 275.74413 241.072038 
L 275.904281 240.995689 
L 275.969061 240.842993 
L 276.099059 240.766645 
L 276.17017 240.5376 
L 276.460023 240.461252 
L 276.570136 240.308555 
L 277.076851 240.308555 
L 277.076851 240.155859 
L 277.250245 240.079511 
L 277.310719 239.774118 
L 277.647655 239.697769 
L 277.664251 239.316028 
L 278.27517 239.23968 
L 278.27517 239.163332 
L 279.91699 239.086984 
L 279.91699 239.010635 
L 286.835677 238.934287 
L 286.835677 238.781591 
L 287.155664 238.705242 
L 287.155664 238.476198 
L 287.561098 238.399849 
L 287.624229 237.407322 
L 287.700014 237.330974 
L 287.761005 236.720188 
L 287.861265 236.64384 
L 287.917287 236.491144 
L 287.986044 236.414795 
L 288.053535 235.804009 
L 288.105329 235.804009 
L 288.207407 235.422268 
L 288.2448 235.34592 
L 288.335131 235.040527 
L 288.82097 234.964179 
L 288.82097 234.887831 
L 289.131991 234.811482 
L 289.131991 234.735134 
L 289.381962 234.658786 
L 289.381962 234.582438 
L 294.594829 234.506089 
L 294.594829 234.353393 
L 295.068639 234.277045 
L 295.167078 233.360866 
L 295.230284 233.284518 
L 295.317784 232.979125 
L 295.381967 232.902776 
L 295.444763 232.368339 
L 295.493721 232.368339 
L 295.600743 231.833901 
L 295.683219 231.757553 
L 295.687198 231.604856 
L 295.868245 231.604856 
L 295.954711 231.375812 
L 296.318483 231.299464 
L 296.318483 231.223115 
L 300.072093 231.146767 
L 300.180213 230.994071 
L 300.231098 230.917722 
L 300.231098 230.841374 
L 300.450571 230.765026 
L 300.537904 229.925195 
L 300.68039 229.848847 
L 300.770299 229.238061 
L 301.121386 229.161713 
L 301.121386 229.085365 
L 304.30897 229.009016 
L 304.30897 228.932668 
L 304.598866 228.85632 
L 304.68491 228.092838 
L 304.723965 228.016489 
L 304.820774 227.482052 
L 304.850464 227.405704 
L 304.915618 227.176659 
L 305.079104 227.100311 
L 305.183525 226.871266 
L 305.33538 226.794918 
L 305.33538 226.718569 
L 308.016761 226.642221 
L 308.115735 225.802391 
L 308.173899 225.726042 
L 308.271006 225.191605 
L 308.440792 225.115256 
L 308.517152 224.809864 
L 310.773857 224.733515 
L 310.773857 224.657167 
L 310.908254 224.580819 
L 310.965537 224.199078 
L 311.083609 224.122729 
L 311.136244 223.740988 
L 313.390723 223.66464 
L 313.466758 223.206551 
L 313.589383 223.130202 
L 313.6058 222.977506 
L 313.738358 222.901158 
L 313.758768 222.748461 
L 315.225215 222.672113 
L 315.225215 222.595765 
L 315.623453 222.519416 
L 315.708726 222.290372 
L 315.76674 222.214024 
L 315.788456 221.908631 
L 315.939381 221.832282 
L 316.010671 221.679586 
L 317.584529 221.603238 
L 317.644008 221.0688 
L 317.840685 220.992452 
L 317.840685 220.916104 
L 319.437167 220.839755 
L 319.526436 220.381666 
L 319.612157 220.305318 
L 319.627096 220.076273 
L 321.214762 219.999925 
L 321.214762 219.923576 
L 322.489008 219.847228 
L 322.517884 219.618184 
L 322.693624 219.541835 
L 322.706571 219.389139 
L 325.261944 219.312791 
L 325.269027 219.083746 
L 326.470872 219.007398 
L 326.562824 218.702005 
L 328.613015 218.625656 
L 328.669196 218.47296 
L 329.694664 218.396612 
L 329.694664 218.320264 
L 333.253672 218.243915 
L 333.302836 218.014871 
L 337.611473 217.938522 
L 337.611473 217.862174 
L 341.131403 217.785826 
L 341.131403 217.709478 
L 360.8064 217.633129 
L 360.8064 217.633129 
" style="fill: none; stroke: #ff00ff; stroke-width: 1.5; stroke-linecap: square"/>
   </g>
   <g id="line2d_41">
    <defs>
     <path id="ma5647c3800" d="M 0 8.485281 
L 5.091169 0 
L 0 -8.485281 
L -5.091169 0 
z
" style="stroke: #ff00ff; stroke-width: 1.5; stroke-linejoin: miter"/>
    </defs>
    <g>
     <use xlink:href="#ma5647c3800" x="113.52628" y="288.331595" style="fill-opacity: 0; stroke: #ff00ff; stroke-width: 1.5; stroke-linejoin: miter"/>
     <use xlink:href="#ma5647c3800" x="205.458291" y="265.885214" style="fill-opacity: 0; stroke: #ff00ff; stroke-width: 1.5; stroke-linejoin: miter"/>
     <use xlink:href="#ma5647c3800" x="273.838196" y="245.118494" style="fill-opacity: 0; stroke: #ff00ff; stroke-width: 1.5; stroke-linejoin: miter"/>
     <use xlink:href="#ma5647c3800" x="341.131403" y="217.709478" style="fill-opacity: 0; stroke: #ff00ff; stroke-width: 1.5; stroke-linejoin: miter"/>
     <use xlink:href="#ma5647c3800" x="355.439749" y="217.633129" style="fill-opacity: 0; stroke: #ff00ff; stroke-width: 1.5; stroke-linejoin: miter"/>
     <use xlink:href="#ma5647c3800" x="360.8064" y="217.633129" style="fill-opacity: 0; stroke: #ff00ff; stroke-width: 1.5; stroke-linejoin: miter"/>
    </g>
   </g>
   <g id="line2d_42">
    <path style="fill: none; stroke: #ff00ff; stroke-width: 1.5; stroke-linecap: square"/>
    <g/>
   </g>
   <g id="line2d_43">
    <path d="M 274.188938 244.813101 
" clip-path="url(#pa9570747b4)" style="fill: none; stroke: #ff00ff; stroke-width: 1.5; stroke-linecap: square"/>
    <defs>
     <path id="m23a3130735" d="M -12 12 
L 12 -12 
M -12 -12 
L 12 12 
" style="stroke: #ff00ff"/>
    </defs>
    <g clip-path="url(#pa9570747b4)">
     <use xlink:href="#m23a3130735" x="274.188938" y="244.813101" style="fill: #ff00ff; stroke: #ff00ff"/>
    </g>
   </g>
   <g id="line2d_44">
    <path d="M 360.8064 217.633129 
L 380.514816 293.10336 
" style="fill: none; stroke: #ff00ff; stroke-width: 1.5; stroke-linecap: square"/>
    <g>
     <use xlink:href="#ma5647c3800" x="360.8064" y="217.633129" style="fill-opacity: 0; stroke: #ff00ff; stroke-width: 1.5; stroke-linejoin: miter"/>
     <use xlink:href="#ma5647c3800" x="380.514816" y="293.10336" style="fill-opacity: 0; stroke: #ff00ff; stroke-width: 1.5; stroke-linejoin: miter"/>
    </g>
   </g>
   <g id="line2d_45">
    <path d="M 360.8064 148.919718 
L 380.514816 152.928 
" style="fill: none; stroke: #000080; stroke-width: 1.5; stroke-linecap: square"/>
    <g>
     <use xlink:href="#mbc341ebc00" x="360.8064" y="148.919718" style="fill-opacity: 0; stroke: #000080; stroke-width: 1.5"/>
     <use xlink:href="#mbc341ebc00" x="380.514816" y="152.928" style="fill-opacity: 0; stroke: #000080; stroke-width: 1.5"/>
    </g>
   </g>
   <g id="line2d_46">
    <path d="M 360.8064 298.944 
L 360.8064 6.912 
" style="fill: none; stroke: #000000; stroke-width: 1.5; stroke-linecap: square"/>
   </g>
   <g id="patch_3">
    <path d="M 57.6 298.944 
L 360.8064 298.944 
" style="fill: none; stroke: #000000; stroke-width: 0.8; stroke-linejoin: miter; stroke-linecap: square"/>
   </g>
   <g id="patch_4">
    <path d="M 57.6 6.912 
L 360.8064 6.912 
" style="fill: none; stroke: #000000; stroke-width: 0.8; stroke-linejoin: miter; stroke-linecap: square"/>
   </g>
   <g id="text_13">
    <!-- GA -->
    <g transform="translate(386.578944 296.966485)scale(0.14 -0.14)">
     <defs>
      <path id="DejaVuSans-47" d="M 3809 666 
L 3809 1919 
L 2778 1919 
L 2778 2438 
L 4434 2438 
L 4434 434 
Q 4069 175 3628 42 
Q 3188 -91 2688 -91 
Q 1594 -91 976 548 
Q 359 1188 359 2328 
Q 359 3472 976 4111 
Q 1594 4750 2688 4750 
Q 3144 4750 3555 4637 
Q 3966 4525 4313 4306 
L 4313 3634 
Q 3963 3931 3569 4081 
Q 3175 4231 2741 4231 
Q 1884 4231 1454 3753 
Q 1025 3275 1025 2328 
Q 1025 1384 1454 906 
Q 1884 428 2741 428 
Q 3075 428 3337 486 
Q 3600 544 3809 666 
z
" transform="scale(0.015625)"/>
      <path id="DejaVuSans-41" d="M 2188 4044 
L 1331 1722 
L 3047 1722 
L 2188 4044 
z
M 1831 4666 
L 2547 4666 
L 4325 0 
L 3669 0 
L 3244 1197 
L 1141 1197 
L 716 0 
L 50 0 
L 1831 4666 
z
" transform="scale(0.015625)"/>
     </defs>
     <use xlink:href="#DejaVuSans-47"/>
     <use xlink:href="#DejaVuSans-41" x="77.490234"/>
    </g>
   </g>
   <g id="text_14">
    <!-- LCGA -->
    <g transform="translate(386.578944 156.791125)scale(0.14 -0.14)">
     <defs>
      <path id="DejaVuSans-4c" d="M 628 4666 
L 1259 4666 
L 1259 531 
L 3531 531 
L 3531 0 
L 628 0 
L 628 4666 
z
" transform="scale(0.015625)"/>
      <path id="DejaVuSans-43" d="M 4122 4306 
L 4122 3641 
Q 3803 3938 3442 4084 
Q 3081 4231 2675 4231 
Q 1875 4231 1450 3742 
Q 1025 3253 1025 2328 
Q 1025 1406 1450 917 
Q 1875 428 2675 428 
Q 3081 428 3442 575 
Q 3803 722 4122 1019 
L 4122 359 
Q 3791 134 3420 21 
Q 3050 -91 2638 -91 
Q 1578 -91 968 557 
Q 359 1206 359 2328 
Q 359 3453 968 4101 
Q 1578 4750 2638 4750 
Q 3056 4750 3426 4639 
Q 3797 4528 4122 4306 
z
" transform="scale(0.015625)"/>
     </defs>
     <use xlink:href="#DejaVuSans-4c"/>
     <use xlink:href="#DejaVuSans-43" x="55.712891"/>
     <use xlink:href="#DejaVuSans-47" x="125.537109"/>
     <use xlink:href="#DejaVuSans-41" x="203.027344"/>
    </g>
   </g>
   <g id="text_15">
    <!-- best 2009 -->
    <g transform="translate(386.578944 16.615765)scale(0.14 -0.14)">
     <defs>
      <path id="DejaVuSans-62" d="M 3116 1747 
Q 3116 2381 2855 2742 
Q 2594 3103 2138 3103 
Q 1681 3103 1420 2742 
Q 1159 2381 1159 1747 
Q 1159 1113 1420 752 
Q 1681 391 2138 391 
Q 2594 391 2855 752 
Q 3116 1113 3116 1747 
z
M 1159 2969 
Q 1341 3281 1617 3432 
Q 1894 3584 2278 3584 
Q 2916 3584 3314 3078 
Q 3713 2572 3713 1747 
Q 3713 922 3314 415 
Q 2916 -91 2278 -91 
Q 1894 -91 1617 61 
Q 1341 213 1159 525 
L 1159 0 
L 581 0 
L 581 4863 
L 1159 4863 
L 1159 2969 
z
" transform="scale(0.015625)"/>
      <path id="DejaVuSans-39" d="M 703 97 
L 703 672 
Q 941 559 1184 500 
Q 1428 441 1663 441 
Q 2288 441 2617 861 
Q 2947 1281 2994 2138 
Q 2813 1869 2534 1725 
Q 2256 1581 1919 1581 
Q 1219 1581 811 2004 
Q 403 2428 403 3163 
Q 403 3881 828 4315 
Q 1253 4750 1959 4750 
Q 2769 4750 3195 4129 
Q 3622 3509 3622 2328 
Q 3622 1225 3098 567 
Q 2575 -91 1691 -91 
Q 1453 -91 1209 -44 
Q 966 3 703 97 
z
M 1959 2075 
Q 2384 2075 2632 2365 
Q 2881 2656 2881 3163 
Q 2881 3666 2632 3958 
Q 2384 4250 1959 4250 
Q 1534 4250 1286 3958 
Q 1038 3666 1038 3163 
Q 1038 2656 1286 2365 
Q 1534 2075 1959 2075 
z
" transform="scale(0.015625)"/>
     </defs>
     <use xlink:href="#DejaVuSans-62"/>
     <use xlink:href="#DejaVuSans-65" x="63.476562"/>
     <use xlink:href="#DejaVuSans-73" x="125"/>
     <use xlink:href="#DejaVuSans-74" x="177.099609"/>
     <use xlink:href="#DejaVuSans-20" x="216.308594"/>
     <use xlink:href="#DejaVuSans-32" x="248.095703"/>
     <use xlink:href="#DejaVuSans-30" x="311.71875"/>
     <use xlink:href="#DejaVuSans-30" x="375.341797"/>
     <use xlink:href="#DejaVuSans-39" x="438.964844"/>
    </g>
   </g>
   <g id="text_16">
    <!-- bbob f20-f24, 20-D -->
    <g transform="translate(60.632064 17.582726)scale(0.102 -0.102)">
     <defs>
      <path id="DejaVuSans-44" d="M 1259 4147 
L 1259 519 
L 2022 519 
Q 2988 519 3436 956 
Q 3884 1394 3884 2338 
Q 3884 3275 3436 3711 
Q 2988 4147 2022 4147 
L 1259 4147 
z
M 628 4666 
L 1925 4666 
Q 3281 4666 3915 4102 
Q 4550 3538 4550 2338 
Q 4550 1131 3912 565 
Q 3275 0 1925 0 
L 628 0 
L 628 4666 
z
" transform="scale(0.015625)"/>
     </defs>
     <use xlink:href="#DejaVuSans-62"/>
     <use xlink:href="#DejaVuSans-62" x="63.476562"/>
     <use xlink:href="#DejaVuSans-6f" x="126.953125"/>
     <use xlink:href="#DejaVuSans-62" x="188.134766"/>
     <use xlink:href="#DejaVuSans-20" x="251.611328"/>
     <use xlink:href="#DejaVuSans-66" x="283.398438"/>
     <use xlink:href="#DejaVuSans-32" x="318.603516"/>
     <use xlink:href="#DejaVuSans-30" x="382.226562"/>
     <use xlink:href="#DejaVuSans-2d" x="445.849609"/>
     <use xlink:href="#DejaVuSans-66" x="481.933594"/>
     <use xlink:href="#DejaVuSans-32" x="517.138672"/>
     <use xlink:href="#DejaVuSans-34" x="580.761719"/>
     <use xlink:href="#DejaVuSans-2c" x="644.384766"/>
     <use xlink:href="#DejaVuSans-20" x="676.171875"/>
     <use xlink:href="#DejaVuSans-32" x="707.958984"/>
     <use xlink:href="#DejaVuSans-30" x="771.582031"/>
     <use xlink:href="#DejaVuSans-2d" x="835.205078"/>
     <use xlink:href="#DejaVuSans-44" x="871.289062"/>
    </g>
    <!-- 51 targets: 100..1e-08 -->
    <g transform="translate(60.632064 29.004495)scale(0.102 -0.102)">
     <defs>
      <path id="DejaVuSans-35" d="M 691 4666 
L 3169 4666 
L 3169 4134 
L 1269 4134 
L 1269 2991 
Q 1406 3038 1543 3061 
Q 1681 3084 1819 3084 
Q 2600 3084 3056 2656 
Q 3513 2228 3513 1497 
Q 3513 744 3044 326 
Q 2575 -91 1722 -91 
Q 1428 -91 1123 -41 
Q 819 9 494 109 
L 494 744 
Q 775 591 1075 516 
Q 1375 441 1709 441 
Q 2250 441 2565 725 
Q 2881 1009 2881 1497 
Q 2881 1984 2565 2268 
Q 2250 2553 1709 2553 
Q 1456 2553 1204 2497 
Q 953 2441 691 2322 
L 691 4666 
z
" transform="scale(0.015625)"/>
      <path id="DejaVuSans-3a" d="M 750 794 
L 1409 794 
L 1409 0 
L 750 0 
L 750 794 
z
M 750 3309 
L 1409 3309 
L 1409 2516 
L 750 2516 
L 750 3309 
z
" transform="scale(0.015625)"/>
     </defs>
     <use xlink:href="#DejaVuSans-35"/>
     <use xlink:href="#DejaVuSans-31" x="63.623047"/>
     <use xlink:href="#DejaVuSans-20" x="127.246094"/>
     <use xlink:href="#DejaVuSans-74" x="159.033203"/>
     <use xlink:href="#DejaVuSans-61" x="198.242188"/>
     <use xlink:href="#DejaVuSans-72" x="259.521484"/>
     <use xlink:href="#DejaVuSans-67" x="298.884766"/>
     <use xlink:href="#DejaVuSans-65" x="362.361328"/>
     <use xlink:href="#DejaVuSans-74" x="423.884766"/>
     <use xlink:href="#DejaVuSans-73" x="463.09375"/>
     <use xlink:href="#DejaVuSans-3a" x="515.193359"/>
     <use xlink:href="#DejaVuSans-20" x="548.884766"/>
     <use xlink:href="#DejaVuSans-31" x="580.671875"/>
     <use xlink:href="#DejaVuSans-30" x="644.294922"/>
     <use xlink:href="#DejaVuSans-30" x="707.917969"/>
     <use xlink:href="#DejaVuSans-2e" x="771.541016"/>
     <use xlink:href="#DejaVuSans-2e" x="803.328125"/>
     <use xlink:href="#DejaVuSans-31" x="835.115234"/>
     <use xlink:href="#DejaVuSans-65" x="898.738281"/>
     <use xlink:href="#DejaVuSans-2d" x="960.261719"/>
     <use xlink:href="#DejaVuSans-30" x="996.345703"/>
     <use xlink:href="#DejaVuSans-38" x="1059.96875"/>
    </g>
    <!-- 15 instances -->
    <g transform="translate(60.632064 40.426264)scale(0.102 -0.102)">
     <use xlink:href="#DejaVuSans-31"/>
     <use xlink:href="#DejaVuSans-35" x="63.623047"/>
     <use xlink:href="#DejaVuSans-20" x="127.246094"/>
     <use xlink:href="#DejaVuSans-69" x="159.033203"/>
     <use xlink:href="#DejaVuSans-6e" x="186.816406"/>
     <use xlink:href="#DejaVuSans-73" x="250.195312"/>
     <use xlink:href="#DejaVuSans-74" x="302.294922"/>
     <use xlink:href="#DejaVuSans-61" x="341.503906"/>
     <use xlink:href="#DejaVuSans-6e" x="402.783203"/>
     <use xlink:href="#DejaVuSans-63" x="466.162109"/>
     <use xlink:href="#DejaVuSans-65" x="521.142578"/>
     <use xlink:href="#DejaVuSans-73" x="582.666016"/>
    </g>
   </g>
   <g id="text_17">
    <!-- v2.6 -->
    <g style="fill: #808080" transform="translate(198.292262 293.943992)scale(0.1 -0.1)">
     <use xlink:href="#DejaVuSans-76"/>
     <use xlink:href="#DejaVuSans-32" x="59.179688"/>
     <use xlink:href="#DejaVuSans-2e" x="122.802734"/>
     <use xlink:href="#DejaVuSans-36" x="154.589844"/>
    </g>
   </g>
  </g>
 </g>
 <defs>
  <clipPath id="pa9570747b4">
   <rect x="57.6" y="6.912" width="303.2064" height="292.032"/>
  </clipPath>
 </defs>
</svg>
