<?xml version="1.0" encoding="utf-8" standalone="no"?>
<!DOCTYPE svg PUBLIC "-//W3C//DTD SVG 1.1//EN"
  "http://www.w3.org/Graphics/SVG/1.1/DTD/svg11.dtd">
<svg xmlns:xlink="http://www.w3.org/1999/xlink" width="460.8pt" height="345.6pt" viewBox="0 0 460.8 345.6" xmlns="http://www.w3.org/2000/svg" version="1.1">
 <metadata>
  <rdf:RDF xmlns:dc="http://purl.org/dc/elements/1.1/" xmlns:cc="http://creativecommons.org/ns#" xmlns:rdf="http://www.w3.org/1999/02/22-rdf-syntax-ns#">
   <cc:Work>
    <dc:type rdf:resource="http://purl.org/dc/dcmitype/StillImage"/>
    <dc:date>2024-05-29T07:59:14.253683</dc:date>
    <dc:format>image/svg+xml</dc:format>
    <dc:creator>
     <cc:Agent>
      <dc:title>Matplotlib v3.5.1, https://matplotlib.org/</dc:title>
     </cc:Agent>
    </dc:creator>
   </cc:Work>
  </rdf:RDF>
 </metadata>
 <defs>
  <style type="text/css">*{stroke-linejoin: round; stroke-linecap: butt}</style>
 </defs>
 <g id="figure_1">
  <g id="patch_1">
   <path d="M 0 345.6 
L 460.8 345.6 
L 460.8 0 
L 0 0 
z
" style="fill: #ffffff"/>
  </g>
  <g id="axes_1">
   <g id="patch_2">
    <path d="M 57.6 298.944 
L 360.8064 298.944 
L 360.8064 6.912 
L 57.6 6.912 
z
" style="fill: #ffffff"/>
   </g>
   <g id="line2d_1">
    <path d="M 14.2848 298.944 
L 14.2848 292.072659 
L 27.323974 292.072659 
L 27.323974 290.927435 
L 34.951403 290.927435 
L 34.951403 289.782212 
L 40.363149 289.782212 
L 40.363149 288.636988 
L 57.6 288.636988 
L 57.6 287.491765 
L 68.65718 287.491765 
L 68.65718 286.346541 
L 78.266603 286.346541 
L 78.266603 281.765647 
L 78.88343 281.765647 
L 78.88343 278.329976 
L 79.480672 278.329976 
L 79.480672 276.039529 
L 83.678349 276.039529 
L 83.678349 274.894306 
L 85.038813 274.894306 
L 85.038813 273.749082 
L 86.307488 273.749082 
L 86.307488 272.603859 
L 90.007914 272.603859 
L 90.007914 271.458635 
L 91.922605 271.458635 
L 91.922605 270.313412 
L 93.098709 270.313412 
L 93.098709 269.168188 
L 95.998523 269.168188 
L 95.998523 268.022965 
L 100.535156 268.022965 
L 100.535156 266.877741 
L 104.655893 266.877741 
L 104.655893 265.732518 
L 105.850679 265.732518 
L 105.850679 264.587294 
L 109.159456 264.587294 
L 109.159456 263.442071 
L 109.990385 263.442071 
L 109.990385 262.296847 
L 118.000953 262.296847 
L 118.000953 261.151624 
L 124.101572 261.151624 
L 124.101572 260.0064 
L 134.495147 260.0064 
L 134.495147 258.861176 
L 135.568632 258.861176 
L 135.568632 257.715953 
L 135.805631 257.715953 
L 135.805631 256.570729 
L 139.289277 256.570729 
L 139.289277 255.425506 
L 140.312801 255.425506 
L 140.312801 254.280282 
L 141.371301 254.280282 
L 141.371301 253.135059 
L 142.559347 253.135059 
L 142.559347 251.989835 
L 150.000827 251.989835 
L 150.000827 250.844612 
L 151.375128 250.844612 
L 151.375128 249.699388 
L 159.367841 249.699388 
L 159.367841 248.554165 
L 163.786321 248.554165 
L 163.85935 246.263718 
L 165.999046 246.263718 
L 165.999046 245.118494 
L 167.240447 245.118494 
L 167.240447 243.973271 
L 171.808687 243.973271 
L 171.916937 241.682824 
L 171.947136 241.682824 
L 171.977286 239.392376 
L 172.067447 239.392376 
L 172.118775 237.101929 
L 172.186995 237.101929 
L 172.229507 234.811482 
L 172.301557 234.811482 
L 172.301557 233.666259 
L 172.470008 233.666259 
L 172.524431 231.375812 
L 172.587032 231.375812 
L 172.587032 230.230588 
L 172.868238 230.230588 
L 172.958324 227.940141 
L 173.011355 227.940141 
L 173.011355 226.794918 
L 173.346455 226.794918 
L 173.442249 224.504471 
L 173.565266 224.504471 
L 173.565266 223.359247 
L 173.75417 223.359247 
L 173.75417 222.214024 
L 173.956698 222.214024 
L 173.956698 221.0688 
L 174.11486 221.0688 
L 174.20683 218.778353 
L 174.472534 218.778353 
L 174.472534 217.633129 
L 174.689881 217.633129 
L 174.782796 215.342682 
L 175.135386 215.342682 
L 175.135386 214.197459 
L 175.273147 214.197459 
L 175.273147 213.052235 
L 175.395557 213.052235 
L 175.395557 211.907012 
L 176.964669 211.907012 
L 176.964669 210.761788 
L 177.220434 210.761788 
L 177.308164 208.471341 
L 178.244035 208.471341 
L 178.244035 207.326118 
L 178.546935 207.326118 
L 178.546935 206.180894 
L 178.661917 206.180894 
L 178.71313 203.890447 
L 179.01159 203.890447 
L 179.111997 201.6 
L 179.311218 201.6 
L 179.311218 200.454776 
L 179.447692 200.454776 
L 179.447692 199.309553 
L 179.568815 199.309553 
L 179.568815 198.164329 
L 179.786028 198.164329 
L 179.871084 195.873882 
L 179.913468 195.873882 
L 179.913468 194.728659 
L 180.13513 194.728659 
L 180.13513 193.583435 
L 180.257464 193.583435 
L 180.285156 191.292988 
L 180.499771 191.292988 
L 180.59256 186.712094 
L 180.630634 186.712094 
L 180.630634 185.566871 
L 180.884301 185.566871 
L 180.916439 183.276424 
L 181.073658 183.276424 
L 181.073658 182.1312 
L 182.518663 182.1312 
L 182.604477 178.695529 
L 184.010964 178.695529 
L 184.031383 176.405082 
L 184.245576 176.405082 
L 184.326111 172.969412 
L 184.426297 172.969412 
L 184.426297 171.824188 
L 188.050439 171.824188 
L 188.147251 166.098071 
L 188.194562 166.098071 
L 188.207279 163.807624 
L 189.848033 163.807624 
L 189.934385 160.371953 
L 193.154769 160.371953 
L 193.235571 156.936282 
L 193.485521 156.936282 
L 193.521154 154.645835 
L 194.343604 154.645835 
L 194.343604 153.500612 
L 194.506724 153.500612 
L 194.600043 151.210165 
L 194.652977 151.210165 
L 194.652977 150.064941 
L 195.092594 150.064941 
L 195.092594 148.919718 
L 195.699831 148.919718 
L 195.699831 147.774494 
L 196.880259 147.774494 
L 196.880259 146.629271 
L 198.460108 146.629271 
L 198.460108 145.484047 
L 211.159254 145.484047 
L 211.159254 144.338824 
L 214.28699 144.338824 
L 214.28699 143.1936 
L 217.792633 143.1936 
L 217.792633 142.048376 
L 222.717414 142.048376 
L 222.717414 140.903153 
L 223.287002 140.903153 
L 223.287002 139.757929 
L 227.409742 139.757929 
L 227.409742 138.612706 
L 227.866315 138.612706 
L 227.866315 137.467482 
L 230.626269 137.467482 
L 230.626269 136.322259 
L 240.625603 136.322259 
L 240.625603 135.177035 
L 242.320904 135.177035 
L 242.40195 132.886588 
L 244.020452 132.886588 
L 244.073927 130.596141 
L 244.141556 130.596141 
L 244.226699 128.305694 
L 244.291203 128.305694 
L 244.397487 124.870024 
L 244.441953 124.870024 
L 244.544665 121.434353 
L 244.586881 121.434353 
L 244.672745 117.998682 
L 244.721699 117.998682 
L 244.817704 114.563012 
L 244.849656 114.563012 
L 244.940118 111.127341 
L 244.975328 111.127341 
L 245.054488 107.691671 
L 245.093546 107.691671 
L 245.177924 104.256 
L 245.235924 104.256 
L 245.33841 100.820329 
L 245.379232 100.820329 
L 245.379232 99.675106 
L 250.967407 99.675106 
L 250.967407 98.529882 
L 259.234423 98.529882 
L 259.234423 97.384659 
L 260.006044 97.384659 
L 260.006044 96.239435 
L 262.930032 96.239435 
L 262.930032 95.094212 
L 263.051535 95.094212 
L 263.051535 93.948988 
L 263.267303 93.948988 
L 263.369422 91.658541 
L 263.483181 91.658541 
L 263.577134 87.077647 
L 263.621033 87.077647 
L 263.712858 82.496753 
L 263.733319 82.496753 
L 263.813343 77.915859 
L 263.846502 77.915859 
L 263.924782 73.334965 
L 263.960076 73.334965 
L 264.063504 67.608847 
L 264.099826 67.608847 
L 264.194369 61.882729 
L 264.22664 61.882729 
L 264.325791 56.156612 
L 264.348832 56.156612 
L 264.348832 55.011388 
L 272.290574 55.011388 
L 272.290574 53.866165 
L 275.003306 53.866165 
L 275.003306 52.720941 
L 295.75262 52.720941 
L 295.75262 51.575718 
L 304.359925 51.575718 
L 304.359925 50.430494 
L 327.888075 50.430494 
L 327.888075 49.285271 
L 355.331455 49.285271 
L 355.339539 6.912 
L 360.8064 6.912 
L 360.8064 6.912 
" style="fill: none; stroke: #f5deb3; stroke-width: 4; stroke-linecap: square"/>
   </g>
   <g id="line2d_2">
    <defs>
     <path id="m065a3ff989" d="M 0 7.778175 
L 7.778175 0 
L 0 -7.778175 
L -7.778175 0 
z
" style="stroke: #f5deb3; stroke-width: 1.5; stroke-linejoin: miter"/>
    </defs>
    <g>
     <use xlink:href="#m065a3ff989" x="173.442249" y="224.504471" style="fill: #f5deb3; stroke: #f5deb3; stroke-width: 1.5; stroke-linejoin: miter"/>
     <use xlink:href="#m065a3ff989" x="211.159254" y="145.484047" style="fill: #f5deb3; stroke: #f5deb3; stroke-width: 1.5; stroke-linejoin: miter"/>
     <use xlink:href="#m065a3ff989" x="275.003306" y="52.720941" style="fill: #f5deb3; stroke: #f5deb3; stroke-width: 1.5; stroke-linejoin: miter"/>
     <use xlink:href="#m065a3ff989" x="355.339103" y="10.347671" style="fill: #f5deb3; stroke: #f5deb3; stroke-width: 1.5; stroke-linejoin: miter"/>
     <use xlink:href="#m065a3ff989" x="355.339539" y="6.912" style="fill: #f5deb3; stroke: #f5deb3; stroke-width: 1.5; stroke-linejoin: miter"/>
     <use xlink:href="#m065a3ff989" x="360.8064" y="6.912" style="fill: #f5deb3; stroke: #f5deb3; stroke-width: 1.5; stroke-linejoin: miter"/>
    </g>
   </g>
   <g id="line2d_3">
    <path style="fill: none; stroke: #f5deb3; stroke-width: 4; stroke-linecap: square"/>
    <g/>
   </g>
   <g id="line2d_4">
    <path d="M 360.8064 6.912 
L 380.514816 12.75264 
" style="fill: none; stroke: #f5deb3; stroke-width: 4; stroke-linecap: square"/>
    <g>
     <use xlink:href="#m065a3ff989" x="360.8064" y="6.912" style="fill: #f5deb3; stroke: #f5deb3; stroke-width: 1.5; stroke-linejoin: miter"/>
     <use xlink:href="#m065a3ff989" x="380.514816" y="12.75264" style="fill: #f5deb3; stroke: #f5deb3; stroke-width: 1.5; stroke-linejoin: miter"/>
    </g>
   </g>
   <g id="matplotlib.axis_1">
    <g id="xtick_1">
     <g id="line2d_5">
      <path d="M 57.6 298.944 
L 57.6 6.912 
" clip-path="url(#pee4cb35746)" style="fill: none; stroke: #b0b0b0; stroke-width: 0.8; stroke-linecap: square"/>
     </g>
     <g id="line2d_6">
      <defs>
       <path id="mef5ec63cc0" d="M 0 0 
L 0 3.5 
" style="stroke: #000000; stroke-width: 0.8"/>
      </defs>
      <g>
       <use xlink:href="#mef5ec63cc0" x="57.6" y="298.944" style="stroke: #000000; stroke-width: 0.8"/>
      </g>
     </g>
     <g id="text_1">
      <!-- 0 -->
      <g transform="translate(52.191875 318.861344)scale(0.17 -0.17)">
       <defs>
        <path id="DejaVuSans-30" d="M 2034 4250 
Q 1547 4250 1301 3770 
Q 1056 3291 1056 2328 
Q 1056 1369 1301 889 
Q 1547 409 2034 409 
Q 2525 409 2770 889 
Q 3016 1369 3016 2328 
Q 3016 3291 2770 3770 
Q 2525 4250 2034 4250 
z
M 2034 4750 
Q 2819 4750 3233 4129 
Q 3647 3509 3647 2328 
Q 3647 1150 3233 529 
Q 2819 -91 2034 -91 
Q 1250 -91 836 529 
Q 422 1150 422 2328 
Q 422 3509 836 4129 
Q 1250 4750 2034 4750 
z
" transform="scale(0.015625)"/>
       </defs>
       <use xlink:href="#DejaVuSans-30"/>
      </g>
     </g>
    </g>
    <g id="xtick_2">
     <g id="line2d_7">
      <path d="M 144.2304 298.944 
L 144.2304 6.912 
" clip-path="url(#pee4cb35746)" style="fill: none; stroke: #b0b0b0; stroke-width: 0.8; stroke-linecap: square"/>
     </g>
     <g id="line2d_8">
      <g>
       <use xlink:href="#mef5ec63cc0" x="144.2304" y="298.944" style="stroke: #000000; stroke-width: 0.8"/>
      </g>
     </g>
     <g id="text_2">
      <!-- 2 -->
      <g transform="translate(138.822275 318.861344)scale(0.17 -0.17)">
       <defs>
        <path id="DejaVuSans-32" d="M 1228 531 
L 3431 531 
L 3431 0 
L 469 0 
L 469 531 
Q 828 903 1448 1529 
Q 2069 2156 2228 2338 
Q 2531 2678 2651 2914 
Q 2772 3150 2772 3378 
Q 2772 3750 2511 3984 
Q 2250 4219 1831 4219 
Q 1534 4219 1204 4116 
Q 875 4013 500 3803 
L 500 4441 
Q 881 4594 1212 4672 
Q 1544 4750 1819 4750 
Q 2544 4750 2975 4387 
Q 3406 4025 3406 3419 
Q 3406 3131 3298 2873 
Q 3191 2616 2906 2266 
Q 2828 2175 2409 1742 
Q 1991 1309 1228 531 
z
" transform="scale(0.015625)"/>
       </defs>
       <use xlink:href="#DejaVuSans-32"/>
      </g>
     </g>
    </g>
    <g id="xtick_3">
     <g id="line2d_9">
      <path d="M 230.8608 298.944 
L 230.8608 6.912 
" clip-path="url(#pee4cb35746)" style="fill: none; stroke: #b0b0b0; stroke-width: 0.8; stroke-linecap: square"/>
     </g>
     <g id="line2d_10">
      <g>
       <use xlink:href="#mef5ec63cc0" x="230.8608" y="298.944" style="stroke: #000000; stroke-width: 0.8"/>
      </g>
     </g>
     <g id="text_3">
      <!-- 4 -->
      <g transform="translate(225.452675 318.861344)scale(0.17 -0.17)">
       <defs>
        <path id="DejaVuSans-34" d="M 2419 4116 
L 825 1625 
L 2419 1625 
L 2419 4116 
z
M 2253 4666 
L 3047 4666 
L 3047 1625 
L 3713 1625 
L 3713 1100 
L 3047 1100 
L 3047 0 
L 2419 0 
L 2419 1100 
L 313 1100 
L 313 1709 
L 2253 4666 
z
" transform="scale(0.015625)"/>
       </defs>
       <use xlink:href="#DejaVuSans-34"/>
      </g>
     </g>
    </g>
    <g id="xtick_4">
     <g id="line2d_11">
      <path d="M 317.4912 298.944 
L 317.4912 6.912 
" clip-path="url(#pee4cb35746)" style="fill: none; stroke: #b0b0b0; stroke-width: 0.8; stroke-linecap: square"/>
     </g>
     <g id="line2d_12">
      <g>
       <use xlink:href="#mef5ec63cc0" x="317.4912" y="298.944" style="stroke: #000000; stroke-width: 0.8"/>
      </g>
     </g>
     <g id="text_4">
      <!-- 6 -->
      <g transform="translate(312.083075 318.861344)scale(0.17 -0.17)">
       <defs>
        <path id="DejaVuSans-36" d="M 2113 2584 
Q 1688 2584 1439 2293 
Q 1191 2003 1191 1497 
Q 1191 994 1439 701 
Q 1688 409 2113 409 
Q 2538 409 2786 701 
Q 3034 994 3034 1497 
Q 3034 2003 2786 2293 
Q 2538 2584 2113 2584 
z
M 3366 4563 
L 3366 3988 
Q 3128 4100 2886 4159 
Q 2644 4219 2406 4219 
Q 1781 4219 1451 3797 
Q 1122 3375 1075 2522 
Q 1259 2794 1537 2939 
Q 1816 3084 2150 3084 
Q 2853 3084 3261 2657 
Q 3669 2231 3669 1497 
Q 3669 778 3244 343 
Q 2819 -91 2113 -91 
Q 1303 -91 875 529 
Q 447 1150 447 2328 
Q 447 3434 972 4092 
Q 1497 4750 2381 4750 
Q 2619 4750 2861 4703 
Q 3103 4656 3366 4563 
z
" transform="scale(0.015625)"/>
       </defs>
       <use xlink:href="#DejaVuSans-36"/>
      </g>
     </g>
    </g>
    <g id="xtick_5">
     <g id="line2d_13">
      <path d="M 100.9152 298.944 
L 100.9152 6.912 
" clip-path="url(#pee4cb35746)" style="fill: none; stroke: #b0b0b0; stroke-width: 0.8; stroke-linecap: square"/>
     </g>
     <g id="line2d_14">
      <defs>
       <path id="m186f55c4ce" d="M 0 0 
L 0 2 
" style="stroke: #000000; stroke-width: 0.6"/>
      </defs>
      <g>
       <use xlink:href="#m186f55c4ce" x="100.9152" y="298.944" style="stroke: #000000; stroke-width: 0.6"/>
      </g>
     </g>
    </g>
    <g id="xtick_6">
     <g id="line2d_15">
      <path d="M 187.5456 298.944 
L 187.5456 6.912 
" clip-path="url(#pee4cb35746)" style="fill: none; stroke: #b0b0b0; stroke-width: 0.8; stroke-linecap: square"/>
     </g>
     <g id="line2d_16">
      <g>
       <use xlink:href="#m186f55c4ce" x="187.5456" y="298.944" style="stroke: #000000; stroke-width: 0.6"/>
      </g>
     </g>
    </g>
    <g id="xtick_7">
     <g id="line2d_17">
      <path d="M 274.176 298.944 
L 274.176 6.912 
" clip-path="url(#pee4cb35746)" style="fill: none; stroke: #b0b0b0; stroke-width: 0.8; stroke-linecap: square"/>
     </g>
     <g id="line2d_18">
      <g>
       <use xlink:href="#m186f55c4ce" x="274.176" y="298.944" style="stroke: #000000; stroke-width: 0.6"/>
      </g>
     </g>
    </g>
    <g id="xtick_8">
     <g id="line2d_19">
      <path d="M 360.8064 298.944 
L 360.8064 6.912 
" clip-path="url(#pee4cb35746)" style="fill: none; stroke: #b0b0b0; stroke-width: 0.8; stroke-linecap: square"/>
     </g>
     <g id="line2d_20">
      <g>
       <use xlink:href="#m186f55c4ce" x="360.8064" y="298.944" style="stroke: #000000; stroke-width: 0.6"/>
      </g>
     </g>
    </g>
    <g id="text_5">
     <!-- log10(# f-evals / dimension) -->
     <g transform="translate(88.823278 339.314156)scale(0.17 -0.17)">
      <defs>
       <path id="DejaVuSans-6c" d="M 603 4863 
L 1178 4863 
L 1178 0 
L 603 0 
L 603 4863 
z
" transform="scale(0.015625)"/>
       <path id="DejaVuSans-6f" d="M 1959 3097 
Q 1497 3097 1228 2736 
Q 959 2375 959 1747 
Q 959 1119 1226 758 
Q 1494 397 1959 397 
Q 2419 397 2687 759 
Q 2956 1122 2956 1747 
Q 2956 2369 2687 2733 
Q 2419 3097 1959 3097 
z
M 1959 3584 
Q 2709 3584 3137 3096 
Q 3566 2609 3566 1747 
Q 3566 888 3137 398 
Q 2709 -91 1959 -91 
Q 1206 -91 779 398 
Q 353 888 353 1747 
Q 353 2609 779 3096 
Q 1206 3584 1959 3584 
z
" transform="scale(0.015625)"/>
       <path id="DejaVuSans-67" d="M 2906 1791 
Q 2906 2416 2648 2759 
Q 2391 3103 1925 3103 
Q 1463 3103 1205 2759 
Q 947 2416 947 1791 
Q 947 1169 1205 825 
Q 1463 481 1925 481 
Q 2391 481 2648 825 
Q 2906 1169 2906 1791 
z
M 3481 434 
Q 3481 -459 3084 -895 
Q 2688 -1331 1869 -1331 
Q 1566 -1331 1297 -1286 
Q 1028 -1241 775 -1147 
L 775 -588 
Q 1028 -725 1275 -790 
Q 1522 -856 1778 -856 
Q 2344 -856 2625 -561 
Q 2906 -266 2906 331 
L 2906 616 
Q 2728 306 2450 153 
Q 2172 0 1784 0 
Q 1141 0 747 490 
Q 353 981 353 1791 
Q 353 2603 747 3093 
Q 1141 3584 1784 3584 
Q 2172 3584 2450 3431 
Q 2728 3278 2906 2969 
L 2906 3500 
L 3481 3500 
L 3481 434 
z
" transform="scale(0.015625)"/>
       <path id="DejaVuSans-31" d="M 794 531 
L 1825 531 
L 1825 4091 
L 703 3866 
L 703 4441 
L 1819 4666 
L 2450 4666 
L 2450 531 
L 3481 531 
L 3481 0 
L 794 0 
L 794 531 
z
" transform="scale(0.015625)"/>
       <path id="DejaVuSans-28" d="M 1984 4856 
Q 1566 4138 1362 3434 
Q 1159 2731 1159 2009 
Q 1159 1288 1364 580 
Q 1569 -128 1984 -844 
L 1484 -844 
Q 1016 -109 783 600 
Q 550 1309 550 2009 
Q 550 2706 781 3412 
Q 1013 4119 1484 4856 
L 1984 4856 
z
" transform="scale(0.015625)"/>
       <path id="DejaVuSans-23" d="M 3272 2816 
L 2363 2816 
L 2100 1772 
L 3016 1772 
L 3272 2816 
z
M 2803 4594 
L 2478 3297 
L 3391 3297 
L 3719 4594 
L 4219 4594 
L 3897 3297 
L 4872 3297 
L 4872 2816 
L 3775 2816 
L 3519 1772 
L 4513 1772 
L 4513 1294 
L 3397 1294 
L 3072 0 
L 2572 0 
L 2894 1294 
L 1978 1294 
L 1656 0 
L 1153 0 
L 1478 1294 
L 494 1294 
L 494 1772 
L 1594 1772 
L 1856 2816 
L 850 2816 
L 850 3297 
L 1978 3297 
L 2297 4594 
L 2803 4594 
z
" transform="scale(0.015625)"/>
       <path id="DejaVuSans-20" transform="scale(0.015625)"/>
       <path id="DejaVuSans-66" d="M 2375 4863 
L 2375 4384 
L 1825 4384 
Q 1516 4384 1395 4259 
Q 1275 4134 1275 3809 
L 1275 3500 
L 2222 3500 
L 2222 3053 
L 1275 3053 
L 1275 0 
L 697 0 
L 697 3053 
L 147 3053 
L 147 3500 
L 697 3500 
L 697 3744 
Q 697 4328 969 4595 
Q 1241 4863 1831 4863 
L 2375 4863 
z
" transform="scale(0.015625)"/>
       <path id="DejaVuSans-2d" d="M 313 2009 
L 1997 2009 
L 1997 1497 
L 313 1497 
L 313 2009 
z
" transform="scale(0.015625)"/>
       <path id="DejaVuSans-65" d="M 3597 1894 
L 3597 1613 
L 953 1613 
Q 991 1019 1311 708 
Q 1631 397 2203 397 
Q 2534 397 2845 478 
Q 3156 559 3463 722 
L 3463 178 
Q 3153 47 2828 -22 
Q 2503 -91 2169 -91 
Q 1331 -91 842 396 
Q 353 884 353 1716 
Q 353 2575 817 3079 
Q 1281 3584 2069 3584 
Q 2775 3584 3186 3129 
Q 3597 2675 3597 1894 
z
M 3022 2063 
Q 3016 2534 2758 2815 
Q 2500 3097 2075 3097 
Q 1594 3097 1305 2825 
Q 1016 2553 972 2059 
L 3022 2063 
z
" transform="scale(0.015625)"/>
       <path id="DejaVuSans-76" d="M 191 3500 
L 800 3500 
L 1894 563 
L 2988 3500 
L 3597 3500 
L 2284 0 
L 1503 0 
L 191 3500 
z
" transform="scale(0.015625)"/>
       <path id="DejaVuSans-61" d="M 2194 1759 
Q 1497 1759 1228 1600 
Q 959 1441 959 1056 
Q 959 750 1161 570 
Q 1363 391 1709 391 
Q 2188 391 2477 730 
Q 2766 1069 2766 1631 
L 2766 1759 
L 2194 1759 
z
M 3341 1997 
L 3341 0 
L 2766 0 
L 2766 531 
Q 2569 213 2275 61 
Q 1981 -91 1556 -91 
Q 1019 -91 701 211 
Q 384 513 384 1019 
Q 384 1609 779 1909 
Q 1175 2209 1959 2209 
L 2766 2209 
L 2766 2266 
Q 2766 2663 2505 2880 
Q 2244 3097 1772 3097 
Q 1472 3097 1187 3025 
Q 903 2953 641 2809 
L 641 3341 
Q 956 3463 1253 3523 
Q 1550 3584 1831 3584 
Q 2591 3584 2966 3190 
Q 3341 2797 3341 1997 
z
" transform="scale(0.015625)"/>
       <path id="DejaVuSans-73" d="M 2834 3397 
L 2834 2853 
Q 2591 2978 2328 3040 
Q 2066 3103 1784 3103 
Q 1356 3103 1142 2972 
Q 928 2841 928 2578 
Q 928 2378 1081 2264 
Q 1234 2150 1697 2047 
L 1894 2003 
Q 2506 1872 2764 1633 
Q 3022 1394 3022 966 
Q 3022 478 2636 193 
Q 2250 -91 1575 -91 
Q 1294 -91 989 -36 
Q 684 19 347 128 
L 347 722 
Q 666 556 975 473 
Q 1284 391 1588 391 
Q 1994 391 2212 530 
Q 2431 669 2431 922 
Q 2431 1156 2273 1281 
Q 2116 1406 1581 1522 
L 1381 1569 
Q 847 1681 609 1914 
Q 372 2147 372 2553 
Q 372 3047 722 3315 
Q 1072 3584 1716 3584 
Q 2034 3584 2315 3537 
Q 2597 3491 2834 3397 
z
" transform="scale(0.015625)"/>
       <path id="DejaVuSans-2f" d="M 1625 4666 
L 2156 4666 
L 531 -594 
L 0 -594 
L 1625 4666 
z
" transform="scale(0.015625)"/>
       <path id="DejaVuSans-64" d="M 2906 2969 
L 2906 4863 
L 3481 4863 
L 3481 0 
L 2906 0 
L 2906 525 
Q 2725 213 2448 61 
Q 2172 -91 1784 -91 
Q 1150 -91 751 415 
Q 353 922 353 1747 
Q 353 2572 751 3078 
Q 1150 3584 1784 3584 
Q 2172 3584 2448 3432 
Q 2725 3281 2906 2969 
z
M 947 1747 
Q 947 1113 1208 752 
Q 1469 391 1925 391 
Q 2381 391 2643 752 
Q 2906 1113 2906 1747 
Q 2906 2381 2643 2742 
Q 2381 3103 1925 3103 
Q 1469 3103 1208 2742 
Q 947 2381 947 1747 
z
" transform="scale(0.015625)"/>
       <path id="DejaVuSans-69" d="M 603 3500 
L 1178 3500 
L 1178 0 
L 603 0 
L 603 3500 
z
M 603 4863 
L 1178 4863 
L 1178 4134 
L 603 4134 
L 603 4863 
z
" transform="scale(0.015625)"/>
       <path id="DejaVuSans-6d" d="M 3328 2828 
Q 3544 3216 3844 3400 
Q 4144 3584 4550 3584 
Q 5097 3584 5394 3201 
Q 5691 2819 5691 2113 
L 5691 0 
L 5113 0 
L 5113 2094 
Q 5113 2597 4934 2840 
Q 4756 3084 4391 3084 
Q 3944 3084 3684 2787 
Q 3425 2491 3425 1978 
L 3425 0 
L 2847 0 
L 2847 2094 
Q 2847 2600 2669 2842 
Q 2491 3084 2119 3084 
Q 1678 3084 1418 2786 
Q 1159 2488 1159 1978 
L 1159 0 
L 581 0 
L 581 3500 
L 1159 3500 
L 1159 2956 
Q 1356 3278 1631 3431 
Q 1906 3584 2284 3584 
Q 2666 3584 2933 3390 
Q 3200 3197 3328 2828 
z
" transform="scale(0.015625)"/>
       <path id="DejaVuSans-6e" d="M 3513 2113 
L 3513 0 
L 2938 0 
L 2938 2094 
Q 2938 2591 2744 2837 
Q 2550 3084 2163 3084 
Q 1697 3084 1428 2787 
Q 1159 2491 1159 1978 
L 1159 0 
L 581 0 
L 581 3500 
L 1159 3500 
L 1159 2956 
Q 1366 3272 1645 3428 
Q 1925 3584 2291 3584 
Q 2894 3584 3203 3211 
Q 3513 2838 3513 2113 
z
" transform="scale(0.015625)"/>
       <path id="DejaVuSans-29" d="M 513 4856 
L 1013 4856 
Q 1481 4119 1714 3412 
Q 1947 2706 1947 2009 
Q 1947 1309 1714 600 
Q 1481 -109 1013 -844 
L 513 -844 
Q 928 -128 1133 580 
Q 1338 1288 1338 2009 
Q 1338 2731 1133 3434 
Q 928 4138 513 4856 
z
" transform="scale(0.015625)"/>
      </defs>
      <use xlink:href="#DejaVuSans-6c"/>
      <use xlink:href="#DejaVuSans-6f" x="27.783203"/>
      <use xlink:href="#DejaVuSans-67" x="88.964844"/>
      <use xlink:href="#DejaVuSans-31" x="152.441406"/>
      <use xlink:href="#DejaVuSans-30" x="216.064453"/>
      <use xlink:href="#DejaVuSans-28" x="279.6875"/>
      <use xlink:href="#DejaVuSans-23" x="318.701172"/>
      <use xlink:href="#DejaVuSans-20" x="402.490234"/>
      <use xlink:href="#DejaVuSans-66" x="434.277344"/>
      <use xlink:href="#DejaVuSans-2d" x="463.982422"/>
      <use xlink:href="#DejaVuSans-65" x="500.066406"/>
      <use xlink:href="#DejaVuSans-76" x="561.589844"/>
      <use xlink:href="#DejaVuSans-61" x="620.769531"/>
      <use xlink:href="#DejaVuSans-6c" x="682.048828"/>
      <use xlink:href="#DejaVuSans-73" x="709.832031"/>
      <use xlink:href="#DejaVuSans-20" x="761.931641"/>
      <use xlink:href="#DejaVuSans-2f" x="793.71875"/>
      <use xlink:href="#DejaVuSans-20" x="827.410156"/>
      <use xlink:href="#DejaVuSans-64" x="859.197266"/>
      <use xlink:href="#DejaVuSans-69" x="922.673828"/>
      <use xlink:href="#DejaVuSans-6d" x="950.457031"/>
      <use xlink:href="#DejaVuSans-65" x="1047.869141"/>
      <use xlink:href="#DejaVuSans-6e" x="1109.392578"/>
      <use xlink:href="#DejaVuSans-73" x="1172.771484"/>
      <use xlink:href="#DejaVuSans-69" x="1224.871094"/>
      <use xlink:href="#DejaVuSans-6f" x="1252.654297"/>
      <use xlink:href="#DejaVuSans-6e" x="1313.835938"/>
      <use xlink:href="#DejaVuSans-29" x="1377.214844"/>
     </g>
    </g>
   </g>
   <g id="matplotlib.axis_2">
    <g id="ytick_1">
     <g id="line2d_21">
      <path d="M 57.6 298.944 
L 360.8064 298.944 
" clip-path="url(#pee4cb35746)" style="fill: none; stroke: #b0b0b0; stroke-width: 0.8; stroke-linecap: square"/>
     </g>
     <g id="line2d_22">
      <defs>
       <path id="m3af49d9607" d="M 0 0 
L -3.5 0 
" style="stroke: #000000; stroke-width: 0.8"/>
      </defs>
      <g>
       <use xlink:href="#m3af49d9607" x="57.6" y="298.944" style="stroke: #000000; stroke-width: 0.8"/>
      </g>
     </g>
     <g id="text_6">
      <!-- 0.0 -->
      <g transform="translate(25.155 305.02275)scale(0.16 -0.16)">
       <defs>
        <path id="DejaVuSans-2e" d="M 684 794 
L 1344 794 
L 1344 0 
L 684 0 
L 684 794 
z
" transform="scale(0.015625)"/>
       </defs>
       <use xlink:href="#DejaVuSans-30"/>
       <use xlink:href="#DejaVuSans-2e" x="63.623047"/>
       <use xlink:href="#DejaVuSans-30" x="95.410156"/>
      </g>
     </g>
    </g>
    <g id="ytick_2">
     <g id="line2d_23">
      <path d="M 57.6 240.5376 
L 360.8064 240.5376 
" clip-path="url(#pee4cb35746)" style="fill: none; stroke: #b0b0b0; stroke-width: 0.8; stroke-linecap: square"/>
     </g>
     <g id="line2d_24">
      <g>
       <use xlink:href="#m3af49d9607" x="57.6" y="240.5376" style="stroke: #000000; stroke-width: 0.8"/>
      </g>
     </g>
     <g id="text_7">
      <!-- 0.2 -->
      <g transform="translate(25.155 246.61635)scale(0.16 -0.16)">
       <use xlink:href="#DejaVuSans-30"/>
       <use xlink:href="#DejaVuSans-2e" x="63.623047"/>
       <use xlink:href="#DejaVuSans-32" x="95.410156"/>
      </g>
     </g>
    </g>
    <g id="ytick_3">
     <g id="line2d_25">
      <path d="M 57.6 182.1312 
L 360.8064 182.1312 
" clip-path="url(#pee4cb35746)" style="fill: none; stroke: #b0b0b0; stroke-width: 0.8; stroke-linecap: square"/>
     </g>
     <g id="line2d_26">
      <g>
       <use xlink:href="#m3af49d9607" x="57.6" y="182.1312" style="stroke: #000000; stroke-width: 0.8"/>
      </g>
     </g>
     <g id="text_8">
      <!-- 0.4 -->
      <g transform="translate(25.155 188.20995)scale(0.16 -0.16)">
       <use xlink:href="#DejaVuSans-30"/>
       <use xlink:href="#DejaVuSans-2e" x="63.623047"/>
       <use xlink:href="#DejaVuSans-34" x="95.410156"/>
      </g>
     </g>
    </g>
    <g id="ytick_4">
     <g id="line2d_27">
      <path d="M 57.6 123.7248 
L 360.8064 123.7248 
" clip-path="url(#pee4cb35746)" style="fill: none; stroke: #b0b0b0; stroke-width: 0.8; stroke-linecap: square"/>
     </g>
     <g id="line2d_28">
      <g>
       <use xlink:href="#m3af49d9607" x="57.6" y="123.7248" style="stroke: #000000; stroke-width: 0.8"/>
      </g>
     </g>
     <g id="text_9">
      <!-- 0.6 -->
      <g transform="translate(25.155 129.80355)scale(0.16 -0.16)">
       <use xlink:href="#DejaVuSans-30"/>
       <use xlink:href="#DejaVuSans-2e" x="63.623047"/>
       <use xlink:href="#DejaVuSans-36" x="95.410156"/>
      </g>
     </g>
    </g>
    <g id="ytick_5">
     <g id="line2d_29">
      <path d="M 57.6 65.3184 
L 360.8064 65.3184 
" clip-path="url(#pee4cb35746)" style="fill: none; stroke: #b0b0b0; stroke-width: 0.8; stroke-linecap: square"/>
     </g>
     <g id="line2d_30">
      <g>
       <use xlink:href="#m3af49d9607" x="57.6" y="65.3184" style="stroke: #000000; stroke-width: 0.8"/>
      </g>
     </g>
     <g id="text_10">
      <!-- 0.8 -->
      <g transform="translate(25.155 71.39715)scale(0.16 -0.16)">
       <defs>
        <path id="DejaVuSans-38" d="M 2034 2216 
Q 1584 2216 1326 1975 
Q 1069 1734 1069 1313 
Q 1069 891 1326 650 
Q 1584 409 2034 409 
Q 2484 409 2743 651 
Q 3003 894 3003 1313 
Q 3003 1734 2745 1975 
Q 2488 2216 2034 2216 
z
M 1403 2484 
Q 997 2584 770 2862 
Q 544 3141 544 3541 
Q 544 4100 942 4425 
Q 1341 4750 2034 4750 
Q 2731 4750 3128 4425 
Q 3525 4100 3525 3541 
Q 3525 3141 3298 2862 
Q 3072 2584 2669 2484 
Q 3125 2378 3379 2068 
Q 3634 1759 3634 1313 
Q 3634 634 3220 271 
Q 2806 -91 2034 -91 
Q 1263 -91 848 271 
Q 434 634 434 1313 
Q 434 1759 690 2068 
Q 947 2378 1403 2484 
z
M 1172 3481 
Q 1172 3119 1398 2916 
Q 1625 2713 2034 2713 
Q 2441 2713 2670 2916 
Q 2900 3119 2900 3481 
Q 2900 3844 2670 4047 
Q 2441 4250 2034 4250 
Q 1625 4250 1398 4047 
Q 1172 3844 1172 3481 
z
" transform="scale(0.015625)"/>
       </defs>
       <use xlink:href="#DejaVuSans-30"/>
       <use xlink:href="#DejaVuSans-2e" x="63.623047"/>
       <use xlink:href="#DejaVuSans-38" x="95.410156"/>
      </g>
     </g>
    </g>
    <g id="ytick_6">
     <g id="line2d_31">
      <path d="M 57.6 6.912 
L 360.8064 6.912 
" clip-path="url(#pee4cb35746)" style="fill: none; stroke: #b0b0b0; stroke-width: 0.8; stroke-linecap: square"/>
     </g>
     <g id="line2d_32">
      <g>
       <use xlink:href="#m3af49d9607" x="57.6" y="6.912" style="stroke: #000000; stroke-width: 0.8"/>
      </g>
     </g>
     <g id="text_11">
      <!-- 1.0 -->
      <g transform="translate(25.155 12.99075)scale(0.16 -0.16)">
       <use xlink:href="#DejaVuSans-31"/>
       <use xlink:href="#DejaVuSans-2e" x="63.623047"/>
       <use xlink:href="#DejaVuSans-30" x="95.410156"/>
      </g>
     </g>
    </g>
    <g id="text_12">
     <!-- Fraction of function,target pairs -->
     <g transform="translate(17.619531 287.313)rotate(-90)scale(0.17 -0.17)">
      <defs>
       <path id="DejaVuSans-46" d="M 628 4666 
L 3309 4666 
L 3309 4134 
L 1259 4134 
L 1259 2759 
L 3109 2759 
L 3109 2228 
L 1259 2228 
L 1259 0 
L 628 0 
L 628 4666 
z
" transform="scale(0.015625)"/>
       <path id="DejaVuSans-72" d="M 2631 2963 
Q 2534 3019 2420 3045 
Q 2306 3072 2169 3072 
Q 1681 3072 1420 2755 
Q 1159 2438 1159 1844 
L 1159 0 
L 581 0 
L 581 3500 
L 1159 3500 
L 1159 2956 
Q 1341 3275 1631 3429 
Q 1922 3584 2338 3584 
Q 2397 3584 2469 3576 
Q 2541 3569 2628 3553 
L 2631 2963 
z
" transform="scale(0.015625)"/>
       <path id="DejaVuSans-63" d="M 3122 3366 
L 3122 2828 
Q 2878 2963 2633 3030 
Q 2388 3097 2138 3097 
Q 1578 3097 1268 2742 
Q 959 2388 959 1747 
Q 959 1106 1268 751 
Q 1578 397 2138 397 
Q 2388 397 2633 464 
Q 2878 531 3122 666 
L 3122 134 
Q 2881 22 2623 -34 
Q 2366 -91 2075 -91 
Q 1284 -91 818 406 
Q 353 903 353 1747 
Q 353 2603 823 3093 
Q 1294 3584 2113 3584 
Q 2378 3584 2631 3529 
Q 2884 3475 3122 3366 
z
" transform="scale(0.015625)"/>
       <path id="DejaVuSans-74" d="M 1172 4494 
L 1172 3500 
L 2356 3500 
L 2356 3053 
L 1172 3053 
L 1172 1153 
Q 1172 725 1289 603 
Q 1406 481 1766 481 
L 2356 481 
L 2356 0 
L 1766 0 
Q 1100 0 847 248 
Q 594 497 594 1153 
L 594 3053 
L 172 3053 
L 172 3500 
L 594 3500 
L 594 4494 
L 1172 4494 
z
" transform="scale(0.015625)"/>
       <path id="DejaVuSans-75" d="M 544 1381 
L 544 3500 
L 1119 3500 
L 1119 1403 
Q 1119 906 1312 657 
Q 1506 409 1894 409 
Q 2359 409 2629 706 
Q 2900 1003 2900 1516 
L 2900 3500 
L 3475 3500 
L 3475 0 
L 2900 0 
L 2900 538 
Q 2691 219 2414 64 
Q 2138 -91 1772 -91 
Q 1169 -91 856 284 
Q 544 659 544 1381 
z
M 1991 3584 
L 1991 3584 
z
" transform="scale(0.015625)"/>
       <path id="DejaVuSans-2c" d="M 750 794 
L 1409 794 
L 1409 256 
L 897 -744 
L 494 -744 
L 750 256 
L 750 794 
z
" transform="scale(0.015625)"/>
       <path id="DejaVuSans-70" d="M 1159 525 
L 1159 -1331 
L 581 -1331 
L 581 3500 
L 1159 3500 
L 1159 2969 
Q 1341 3281 1617 3432 
Q 1894 3584 2278 3584 
Q 2916 3584 3314 3078 
Q 3713 2572 3713 1747 
Q 3713 922 3314 415 
Q 2916 -91 2278 -91 
Q 1894 -91 1617 61 
Q 1341 213 1159 525 
z
M 3116 1747 
Q 3116 2381 2855 2742 
Q 2594 3103 2138 3103 
Q 1681 3103 1420 2742 
Q 1159 2381 1159 1747 
Q 1159 1113 1420 752 
Q 1681 391 2138 391 
Q 2594 391 2855 752 
Q 3116 1113 3116 1747 
z
" transform="scale(0.015625)"/>
      </defs>
      <use xlink:href="#DejaVuSans-46"/>
      <use xlink:href="#DejaVuSans-72" x="50.269531"/>
      <use xlink:href="#DejaVuSans-61" x="91.382812"/>
      <use xlink:href="#DejaVuSans-63" x="152.662109"/>
      <use xlink:href="#DejaVuSans-74" x="207.642578"/>
      <use xlink:href="#DejaVuSans-69" x="246.851562"/>
      <use xlink:href="#DejaVuSans-6f" x="274.634766"/>
      <use xlink:href="#DejaVuSans-6e" x="335.816406"/>
      <use xlink:href="#DejaVuSans-20" x="399.195312"/>
      <use xlink:href="#DejaVuSans-6f" x="430.982422"/>
      <use xlink:href="#DejaVuSans-66" x="492.164062"/>
      <use xlink:href="#DejaVuSans-20" x="527.369141"/>
      <use xlink:href="#DejaVuSans-66" x="559.15625"/>
      <use xlink:href="#DejaVuSans-75" x="594.361328"/>
      <use xlink:href="#DejaVuSans-6e" x="657.740234"/>
      <use xlink:href="#DejaVuSans-63" x="721.119141"/>
      <use xlink:href="#DejaVuSans-74" x="776.099609"/>
      <use xlink:href="#DejaVuSans-69" x="815.308594"/>
      <use xlink:href="#DejaVuSans-6f" x="843.091797"/>
      <use xlink:href="#DejaVuSans-6e" x="904.273438"/>
      <use xlink:href="#DejaVuSans-2c" x="967.652344"/>
      <use xlink:href="#DejaVuSans-74" x="999.439453"/>
      <use xlink:href="#DejaVuSans-61" x="1038.648438"/>
      <use xlink:href="#DejaVuSans-72" x="1099.927734"/>
      <use xlink:href="#DejaVuSans-67" x="1139.291016"/>
      <use xlink:href="#DejaVuSans-65" x="1202.767578"/>
      <use xlink:href="#DejaVuSans-74" x="1264.291016"/>
      <use xlink:href="#DejaVuSans-20" x="1303.5"/>
      <use xlink:href="#DejaVuSans-70" x="1335.287109"/>
      <use xlink:href="#DejaVuSans-61" x="1398.763672"/>
      <use xlink:href="#DejaVuSans-69" x="1460.042969"/>
      <use xlink:href="#DejaVuSans-72" x="1487.826172"/>
      <use xlink:href="#DejaVuSans-73" x="1528.939453"/>
     </g>
    </g>
   </g>
   <g id="line2d_33">
    <defs>
     <path id="mfd0df74455" d="M 0 1.5 
C 0.397805 1.5 0.77937 1.341951 1.06066 1.06066 
C 1.341951 0.77937 1.5 0.397805 1.5 0 
C 1.5 -0.397805 1.341951 -0.77937 1.06066 -1.06066 
C 0.77937 -1.341951 0.397805 -1.5 0 -1.5 
C -0.397805 -1.5 -0.77937 -1.341951 -1.06066 -1.06066 
C -1.341951 -0.77937 -1.5 -0.397805 -1.5 0 
C -1.5 0.397805 -1.341951 0.77937 -1.06066 1.06066 
C -0.77937 1.341951 -0.397805 1.5 0 1.5 
z
" style="stroke: #f5deb3"/>
    </defs>
    <g>
     <use xlink:href="#mfd0df74455" x="355.339539" y="6.912" style="fill: #f5deb3; stroke: #f5deb3"/>
     <use xlink:href="#mfd0df74455" x="355.339539" y="6.912" style="fill: #f5deb3; stroke: #f5deb3"/>
    </g>
   </g>
   <g id="line2d_34">
    <defs>
     <path id="m062957f496" d="M 0 1.5 
C 0.397805 1.5 0.77937 1.341951 1.06066 1.06066 
C 1.341951 0.77937 1.5 0.397805 1.5 0 
C 1.5 -0.397805 1.341951 -0.77937 1.06066 -1.06066 
C 0.77937 -1.341951 0.397805 -1.5 0 -1.5 
C -0.397805 -1.5 -0.77937 -1.341951 -1.06066 -1.06066 
C -1.341951 -0.77937 -1.5 -0.397805 -1.5 0 
C -1.5 0.397805 -1.341951 0.77937 -1.06066 1.06066 
C -0.77937 1.341951 -0.397805 1.5 0 1.5 
z
" style="stroke: #000080"/>
    </defs>
    <g>
     <use xlink:href="#m062957f496" x="363.940034" y="100.820329" style="fill: #000080; stroke: #000080"/>
     <use xlink:href="#m062957f496" x="363.940034" y="100.820329" style="fill: #000080; stroke: #000080"/>
    </g>
   </g>
   <g id="line2d_35">
    <path d="M 14.2848 298.944 
L 14.2848 291.15648 
L 27.323974 291.15648 
L 27.323974 290.545694 
L 34.951403 290.545694 
L 34.951403 290.316649 
L 47.990577 290.240301 
L 47.990577 289.85856 
L 50.890391 289.85856 
L 50.890391 289.553167 
L 53.402323 289.553167 
L 53.402323 289.324122 
L 57.6 289.247774 
L 57.6 289.095078 
L 61.029752 289.018729 
L 61.029752 288.942381 
L 66.441498 288.866033 
L 66.441498 288.789685 
L 68.65718 288.789685 
L 68.65718 288.56064 
L 69.674268 288.56064 
L 69.674268 288.331595 
L 70.639174 288.331595 
L 70.639174 288.102551 
L 74.836851 288.026202 
L 74.836851 287.949854 
L 80.059535 287.873506 
L 80.059535 287.797158 
L 85.894031 287.720809 
L 85.894031 287.644461 
L 87.1081 287.568113 
L 87.1081 287.415416 
L 88.248544 287.415416 
L 88.248544 287.26272 
L 91.922605 287.186372 
L 91.922605 287.110024 
L 93.098709 287.110024 
L 93.098709 286.957327 
L 94.995002 286.957327 
L 94.995002 286.804631 
L 98.933205 286.728282 
L 98.933205 286.575586 
L 106.560633 286.499238 
L 106.560633 286.422889 
L 107.774703 286.346541 
L 107.774703 286.270193 
L 108.791791 286.193845 
L 108.791791 286.117496 
L 110.221204 286.117496 
L 110.221204 285.9648 
L 114.961559 285.888452 
L 114.961559 285.812104 
L 116.907859 285.812104 
L 116.907859 285.659407 
L 119.034004 285.583059 
L 119.034004 285.506711 
L 120.0813 285.430362 
L 120.0813 285.354014 
L 123.317644 285.277666 
L 123.317644 285.201318 
L 123.544976 285.201318 
L 123.544976 285.048621 
L 124.642171 285.048621 
L 124.642171 284.895925 
L 125.526971 284.819576 
L 125.526971 284.743228 
L 128.743679 284.66688 
L 128.743679 284.590532 
L 131.040128 284.514184 
L 131.040128 284.437835 
L 131.341119 284.361487 
L 131.341119 284.285139 
L 131.747272 284.208791 
L 131.856536 283.36896 
L 132.001241 283.292612 
L 132.037244 282.834522 
L 132.322814 282.758174 
L 132.358208 282.07104 
L 132.777813 281.994692 
L 132.846847 281.383906 
L 132.984158 281.307558 
L 133.086488 280.085986 
L 133.188264 280.009638 
L 133.25581 279.780593 
L 133.356676 279.780593 
L 133.457005 278.711718 
L 133.490329 278.711718 
L 133.589949 278.253628 
L 133.754819 278.253628 
L 133.853052 277.719191 
L 134.047992 277.719191 
L 134.112526 276.955708 
L 134.176839 276.955708 
L 134.240933 276.039529 
L 134.336666 275.963181 
L 134.431915 275.734136 
L 134.808158 275.657788 
L 134.901055 275.505092 
L 134.993495 275.505092 
L 135.085483 274.359868 
L 135.116046 274.359868 
L 135.14656 273.901779 
L 135.237805 273.901779 
L 135.268121 273.138296 
L 135.449003 273.061948 
L 135.508912 272.832904 
L 135.628162 272.756555 
L 135.717106 272.451162 
L 135.893741 272.374814 
L 135.92302 272.145769 
L 136.039681 272.145769 
L 136.126705 271.534984 
L 136.299553 271.458635 
L 136.299553 271.305939 
L 136.499223 271.229591 
L 136.584151 271.000546 
L 136.836659 270.924198 
L 136.892314 270.771501 
L 136.97549 270.695153 
L 136.97549 270.542456 
L 137.168148 270.466108 
L 137.168148 270.38976 
L 137.893309 270.313412 
L 137.998402 270.084367 
L 138.128947 270.008019 
L 138.128947 269.931671 
L 138.743257 269.855322 
L 138.743257 269.778974 
L 138.89375 269.702626 
L 138.89375 269.626278 
L 139.386872 269.549929 
L 139.411192 269.397233 
L 139.748412 269.320885 
L 139.748412 269.244536 
L 139.867398 269.244536 
L 139.867398 269.09184 
L 140.679868 269.015492 
L 140.679868 268.939144 
L 141.327451 268.862795 
L 141.436884 268.557402 
L 141.804267 268.481054 
L 141.84702 268.328358 
L 142.01707 268.328358 
L 142.01707 268.175661 
L 142.331827 268.099313 
L 142.331827 268.022965 
L 142.60042 267.946616 
L 142.620923 267.79392 
L 142.763822 267.717572 
L 142.763822 267.641224 
L 143.599145 267.564875 
L 143.599145 267.488527 
L 144.380294 267.412179 
L 144.454795 267.030438 
L 144.768174 267.030438 
L 144.768174 266.877741 
L 145.379694 266.801393 
L 145.450347 266.572348 
L 146.210514 266.496 
L 146.27812 266.266955 
L 146.662213 266.190607 
L 146.662213 266.114259 
L 147.359919 266.037911 
L 147.359919 265.961562 
L 147.800712 265.885214 
L 147.831805 265.732518 
L 148.048032 265.656169 
L 148.139946 265.427125 
L 148.68219 265.350776 
L 148.785835 265.19808 
L 148.903591 265.121732 
L 148.962194 264.969035 
L 149.107908 264.892687 
L 149.122418 264.739991 
L 149.438827 264.663642 
L 149.495789 264.434598 
L 149.847944 264.434598 
L 149.847944 264.281901 
L 150.138743 264.205553 
L 150.234685 263.976508 
L 150.38447 263.90016 
L 150.38447 263.823812 
L 150.813548 263.747464 
L 150.892922 263.594767 
L 150.998235 263.518419 
L 151.037576 263.365722 
L 151.233056 263.289374 
L 151.336488 263.060329 
L 151.995276 262.983981 
L 152.094611 262.754936 
L 152.303973 262.754936 
L 152.303973 262.60224 
L 153.224124 262.525892 
L 153.224124 262.449544 
L 153.593669 262.373195 
L 153.593669 262.296847 
L 153.775755 262.220499 
L 153.843585 262.067802 
L 154.399522 261.991454 
L 154.399522 261.915106 
L 154.896868 261.838758 
L 154.896868 261.762409 
L 155.235253 261.686061 
L 155.235253 261.609713 
L 155.914518 261.533365 
L 155.944819 261.380668 
L 156.265023 261.30432 
L 156.363979 260.922579 
L 156.570108 260.846231 
L 156.570108 260.769882 
L 156.918301 260.693534 
L 156.985263 260.540838 
L 157.118477 260.464489 
L 157.222487 260.235445 
L 157.475372 260.159096 
L 157.475372 260.082748 
L 157.934885 260.0064 
L 157.934885 259.930052 
L 158.330176 259.853704 
L 158.330176 259.777355 
L 158.951018 259.701007 
L 158.959618 259.471962 
L 159.367841 259.395614 
L 159.443406 259.242918 
L 159.890533 259.166569 
L 159.890533 259.090221 
L 160.863211 259.013873 
L 160.863211 258.937525 
L 161.55733 258.861176 
L 161.661881 258.632132 
L 162.168843 258.555784 
L 162.168843 258.479435 
L 162.55628 258.403087 
L 162.55628 258.326739 
L 163.109086 258.250391 
L 163.109086 258.174042 
L 164.272231 258.097694 
L 164.324018 257.868649 
L 164.859342 257.792301 
L 164.878182 257.563256 
L 165.343147 257.486908 
L 165.34927 257.334212 
L 165.604634 257.257864 
L 165.604634 257.181515 
L 165.96353 257.181515 
L 165.96353 257.028819 
L 166.338952 256.952471 
L 166.338952 256.876122 
L 166.552624 256.799774 
L 166.552624 256.723426 
L 166.961587 256.647078 
L 166.961587 256.570729 
L 167.558829 256.494381 
L 167.558829 256.418033 
L 167.989318 256.341685 
L 167.989318 256.265336 
L 168.503585 256.188988 
L 168.57076 256.036292 
L 169.413021 255.959944 
L 169.413021 255.883595 
L 170.024438 255.807247 
L 170.024438 255.730899 
L 170.648965 255.654551 
L 170.713514 255.501854 
L 171.621029 255.425506 
L 171.669213 255.272809 
L 172.511885 255.196461 
L 172.511885 255.120113 
L 172.79833 255.043765 
L 172.851813 254.891068 
L 173.003206 254.81472 
L 173.003206 254.738372 
L 173.362455 254.662024 
L 173.362455 254.585675 
L 174.187707 254.509327 
L 174.187707 254.432979 
L 175.616746 254.356631 
L 175.655719 254.203934 
L 176.199907 254.127586 
L 176.302778 253.974889 
L 177.158452 253.898541 
L 177.259475 253.745845 
L 177.686847 253.669496 
L 177.686847 253.593148 
L 178.664933 253.5168 
L 178.710121 253.364104 
L 179.147307 253.287755 
L 179.252842 253.058711 
L 179.56594 252.982362 
L 179.56594 252.906014 
L 180.201956 252.829666 
L 180.201956 252.753318 
L 180.568042 252.676969 
L 180.627917 252.524273 
L 180.892341 252.447925 
L 180.945851 252.295228 
L 181.896592 252.21888 
L 181.896592 252.142532 
L 182.373113 252.066184 
L 182.373113 251.989835 
L 183.218147 251.913487 
L 183.218147 251.837139 
L 183.551395 251.760791 
L 183.551395 251.684442 
L 183.775688 251.608094 
L 183.789475 251.455398 
L 183.992796 251.379049 
L 183.992796 251.226353 
L 184.81309 251.150005 
L 184.81309 251.073656 
L 185.659508 250.997308 
L 185.659508 250.92096 
L 185.884824 250.844612 
L 185.927925 250.691915 
L 186.4635 250.615567 
L 186.4635 250.539219 
L 186.885142 250.462871 
L 186.885142 250.386522 
L 187.234533 250.310174 
L 187.234533 250.233826 
L 187.907049 250.157478 
L 187.962329 249.928433 
L 188.181836 249.852085 
L 188.181836 249.775736 
L 189.964184 249.699388 
L 189.964184 249.62304 
L 190.989455 249.546692 
L 191.014501 249.393995 
L 192.018164 249.317647 
L 192.032989 249.164951 
L 192.645323 249.088602 
L 192.645323 249.012254 
L 193.118434 248.935906 
L 193.131019 248.783209 
L 193.396141 248.706861 
L 193.396141 248.630513 
L 193.86979 248.554165 
L 193.86979 248.477816 
L 194.791704 248.401468 
L 194.791704 248.32512 
L 195.696172 248.248772 
L 195.696172 248.172424 
L 196.674125 248.096075 
L 196.674125 248.019727 
L 197.454366 247.943379 
L 197.454366 247.867031 
L 198.789961 247.790682 
L 198.789961 247.714334 
L 199.011124 247.714334 
L 199.011124 247.561638 
L 200.122008 247.485289 
L 200.122008 247.408941 
L 201.405598 247.332593 
L 201.405598 247.256245 
L 201.918971 247.179896 
L 201.918971 247.103548 
L 202.492789 247.0272 
L 202.492789 246.950852 
L 203.049619 246.874504 
L 203.049619 246.798155 
L 203.77393 246.721807 
L 203.77393 246.645459 
L 204.283017 246.569111 
L 204.283017 246.492762 
L 204.553062 246.416414 
L 204.644244 246.187369 
L 205.046212 246.111021 
L 205.046212 246.034673 
L 205.416504 245.958325 
L 205.50795 245.72928 
L 206.231601 245.652932 
L 206.231601 245.576584 
L 207.610752 245.500235 
L 207.71148 245.347539 
L 208.875092 245.271191 
L 208.875092 245.194842 
L 209.531206 245.118494 
L 209.531206 245.042146 
L 209.829311 244.965798 
L 209.882174 244.813101 
L 210.55011 244.736753 
L 210.55011 244.660405 
L 210.924582 244.584056 
L 211.004213 244.355012 
L 211.485061 244.278664 
L 211.485061 244.202315 
L 213.03059 244.125967 
L 213.03059 244.049619 
L 213.474748 243.973271 
L 213.567901 243.744226 
L 214.42315 243.667878 
L 214.42315 243.591529 
L 214.625784 243.515181 
L 214.625784 243.438833 
L 215.026364 243.362485 
L 215.121282 243.057092 
L 215.519636 242.980744 
L 215.595171 242.828047 
L 215.768011 242.751699 
L 215.768011 242.675351 
L 216.117237 242.599002 
L 216.117237 242.522654 
L 216.278017 242.446306 
L 216.353828 242.293609 
L 216.537195 242.217261 
L 216.537195 242.140913 
L 216.921162 242.064565 
L 216.996002 241.759172 
L 217.31137 241.682824 
L 217.40392 241.453779 
L 217.627242 241.377431 
L 217.702738 241.148386 
L 217.777178 241.072038 
L 217.783965 240.919341 
L 217.927425 240.842993 
L 218.008807 240.384904 
L 218.280258 240.308555 
L 218.33745 240.079511 
L 218.447311 240.003162 
L 218.479672 239.774118 
L 218.573531 239.697769 
L 218.62263 239.468725 
L 218.784538 239.392376 
L 218.847345 238.857939 
L 219.027816 238.857939 
L 219.135835 238.552546 
L 219.22823 238.476198 
L 219.335108 238.247153 
L 219.380529 238.170805 
L 219.449319 237.94176 
L 219.579296 237.865412 
L 219.657945 237.712715 
L 219.772933 237.636367 
L 219.772933 237.560019 
L 219.927967 237.483671 
L 220.029279 237.254626 
L 220.167616 237.178278 
L 220.232599 237.025581 
L 220.331301 237.025581 
L 220.435382 236.796536 
L 220.548331 236.720188 
L 220.581499 236.567492 
L 220.833223 236.491144 
L 220.84476 236.338447 
L 221.051227 236.262099 
L 221.132805 235.956706 
L 221.225022 235.880358 
L 221.323662 235.498616 
L 221.405936 235.422268 
L 221.440731 235.269572 
L 221.633114 235.193224 
L 221.735449 234.658786 
L 221.845435 234.658786 
L 221.845435 234.506089 
L 222.042163 234.429741 
L 222.11058 234.277045 
L 222.309608 234.200696 
L 222.376765 233.895304 
L 222.664265 233.818955 
L 222.664265 233.742607 
L 222.846032 233.666259 
L 222.846032 233.589911 
L 223.278841 233.513562 
L 223.386065 233.284518 
L 223.573495 233.208169 
L 223.573495 233.131821 
L 223.771421 233.055473 
L 223.771421 232.979125 
L 223.975425 232.902776 
L 223.975425 232.826428 
L 224.486787 232.75008 
L 224.528714 232.597384 
L 225.17238 232.521035 
L 225.17238 232.444687 
L 225.637476 232.368339 
L 225.637476 232.291991 
L 226.256667 232.215642 
L 226.256667 232.062946 
L 227.045091 231.986598 
L 227.045091 231.910249 
L 229.013971 231.833901 
L 229.013971 231.757553 
L 229.624243 231.681205 
L 229.624243 231.528508 
L 230.721266 231.45216 
L 230.811072 231.299464 
L 231.484119 231.223115 
L 231.573443 231.070419 
L 232.121781 230.994071 
L 232.185532 230.765026 
L 233.37064 230.688678 
L 233.37064 230.612329 
L 234.162038 230.535981 
L 234.267336 230.383285 
L 235.184318 230.306936 
L 235.184318 230.230588 
L 235.605609 230.15424 
L 235.605609 230.077892 
L 236.338975 230.001544 
L 236.370862 229.848847 
L 236.527819 229.772499 
L 236.527819 229.696151 
L 236.697415 229.619802 
L 236.716992 229.390758 
L 237.303565 229.314409 
L 237.303565 229.238061 
L 237.659721 229.161713 
L 237.659721 229.085365 
L 238.266708 229.009016 
L 238.341302 228.85632 
L 239.041962 228.779972 
L 239.041962 228.703624 
L 239.823593 228.627275 
L 239.823593 228.550927 
L 240.733428 228.474579 
L 240.733428 228.398231 
L 242.122433 228.321882 
L 242.227379 228.092838 
L 242.625007 228.016489 
L 242.625007 227.940141 
L 242.865237 227.863793 
L 242.972555 226.947614 
L 243.018544 226.947614 
L 243.115778 225.344301 
L 243.192697 225.267953 
L 243.300984 224.96256 
L 243.85958 224.886212 
L 243.93465 224.351774 
L 244.015592 224.275426 
L 244.084362 224.046381 
L 244.221522 223.970033 
L 244.263454 223.740988 
L 244.486132 223.66464 
L 244.530845 223.359247 
L 244.668682 223.282899 
L 244.686732 223.130202 
L 244.783812 223.053854 
L 244.858686 222.824809 
L 245.132259 222.748461 
L 245.238289 222.519416 
L 245.310681 222.443068 
L 245.395309 222.290372 
L 245.796002 222.214024 
L 245.832194 221.984979 
L 246.0064 221.908631 
L 246.105788 221.679586 
L 246.551102 221.603238 
L 246.551102 221.526889 
L 246.918623 221.450541 
L 246.918623 221.374193 
L 247.777937 221.297845 
L 247.777937 221.221496 
L 248.426964 221.145148 
L 248.426964 221.0688 
L 249.217262 220.992452 
L 249.217262 220.916104 
L 250.792499 220.839755 
L 250.792499 220.763407 
L 251.517994 220.687059 
L 251.612926 217.862174 
L 257.389197 217.785826 
L 257.389197 217.709478 
L 259.264994 217.633129 
L 259.264994 217.556781 
L 262.977172 217.480433 
L 262.977172 217.404085 
L 265.306007 217.327736 
L 265.334021 217.17504 
L 273.824516 217.098692 
L 273.868279 216.945995 
L 274.206694 216.869647 
L 274.307988 214.121111 
L 274.349263 214.044762 
L 274.450498 212.670494 
L 274.479157 212.594146 
L 274.57885 211.754315 
L 274.59352 211.754315 
L 274.699821 211.067181 
L 274.751688 210.990833 
L 274.819509 210.227351 
L 274.891324 210.151002 
L 275.000947 209.38752 
L 275.0229 209.311172 
L 275.132745 207.249769 
L 275.140807 207.173421 
L 275.249346 204.348536 
L 275.256718 204.348536 
L 275.366093 202.210786 
L 275.411509 202.134438 
L 275.517293 201.676348 
L 275.57859 201.6 
L 275.685837 201.294607 
L 275.891904 201.294607 
L 275.95629 200.989214 
L 276.047656 200.912866 
L 276.093292 200.607473 
L 276.180277 200.607473 
L 276.247241 200.225732 
L 276.305403 200.225732 
L 276.405706 199.996687 
L 276.440028 199.996687 
L 276.53834 199.538598 
L 276.63497 199.462249 
L 276.673934 199.080508 
L 276.78604 199.00416 
L 276.878296 198.698767 
L 276.984788 198.622419 
L 276.984788 198.546071 
L 277.33711 198.469722 
L 277.4372 198.087981 
L 277.454306 198.087981 
L 277.507235 196.484668 
L 277.569222 196.484668 
L 277.666821 195.339445 
L 277.704722 195.263096 
L 277.768968 194.805007 
L 277.819161 194.728659 
L 277.873377 194.423266 
L 277.935511 194.346918 
L 278.003274 193.965176 
L 278.310167 193.888828 
L 278.372638 193.736132 
L 279.109308 193.659784 
L 279.13125 191.292988 
L 280.635253 191.292988 
L 280.635253 191.140292 
L 281.591385 191.063944 
L 281.591385 190.987595 
L 287.228112 190.911247 
L 287.32794 188.544452 
L 287.348535 188.468104 
L 287.458808 186.941139 
L 287.505221 186.864791 
L 287.61622 186.101308 
L 287.618227 186.02496 
L 287.723236 183.581816 
L 287.729763 183.581816 
L 287.836947 181.444066 
L 287.873766 181.367718 
L 287.967812 180.680584 
L 288.195201 180.604235 
L 288.304052 180.146146 
L 288.30999 180.146146 
L 288.405762 179.688056 
L 288.456082 179.611708 
L 288.565425 179.077271 
L 288.597491 179.077271 
L 288.671943 178.848226 
L 288.72107 178.848226 
L 288.826946 178.542833 
L 288.880664 178.466485 
L 288.952068 176.710475 
L 289.004772 176.634127 
L 289.104406 175.870645 
L 289.123529 175.870645 
L 289.211282 175.259859 
L 289.332596 175.183511 
L 289.430279 175.030814 
L 289.467732 175.030814 
L 289.53599 174.725421 
L 289.846121 174.649073 
L 289.855491 172.816715 
L 290.720686 172.740367 
L 290.720686 172.664019 
L 292.000927 172.664019 
L 292.000927 172.511322 
L 294.854287 172.434974 
L 294.962825 171.213402 
L 294.993983 171.137054 
L 295.102505 170.526268 
L 295.120444 170.44992 
L 295.23087 167.472339 
L 295.239308 167.395991 
L 295.347692 166.250767 
L 295.501593 166.174419 
L 295.579513 165.639981 
L 295.664819 165.563633 
L 295.753451 164.800151 
L 295.787162 164.800151 
L 295.873636 164.418409 
L 295.950364 164.342061 
L 296.05415 162.280659 
L 296.096728 162.204311 
L 296.195464 161.898918 
L 296.373868 161.822569 
L 296.421178 161.669873 
L 296.544701 161.669873 
L 296.643326 159.761167 
L 298.397629 159.684819 
L 298.397629 159.608471 
L 300.263113 159.532122 
L 300.351265 158.539595 
L 300.405078 158.463247 
L 300.515532 156.478193 
L 300.534038 156.401845 
L 300.60096 155.409318 
L 300.715464 155.332969 
L 300.820242 154.87488 
L 300.846409 154.798532 
L 300.91061 153.958701 
L 300.958201 153.958701 
L 301.022361 153.424264 
L 301.091225 153.424264 
L 301.194809 151.668254 
L 301.210388 151.591906 
L 301.232715 151.362861 
L 301.545142 151.286513 
L 301.620792 150.217638 
L 304.465693 150.141289 
L 304.549529 149.454155 
L 304.60074 149.377807 
L 304.710277 147.698146 
L 304.729824 147.621798 
L 304.821818 147.163708 
L 304.949655 147.08736 
L 305.017198 146.552922 
L 305.113396 146.476574 
L 305.213758 145.331351 
L 305.276055 145.255002 
L 305.282312 145.102306 
L 305.52648 145.025958 
L 305.553005 143.957082 
L 307.892199 143.880734 
L 307.957619 143.1936 
L 308.027627 143.117252 
L 308.131312 141.437591 
L 308.25384 141.361242 
L 308.359985 140.368715 
L 308.434521 140.292367 
L 308.545051 138.841751 
L 308.603933 138.765402 
L 308.649494 138.536358 
L 308.765244 138.536358 
L 308.803677 138.078268 
L 310.798476 138.00192 
L 310.907958 137.467482 
L 310.943464 137.391134 
L 311.036512 137.009393 
L 311.081325 136.933045 
L 311.175816 136.245911 
L 311.209448 136.245911 
L 311.312493 135.329732 
L 311.328814 135.253384 
L 311.411273 134.718946 
L 311.453165 134.718946 
L 311.54136 134.489901 
L 311.574525 134.413553 
L 311.613466 134.260856 
L 313.392465 134.184508 
L 313.460716 133.573722 
L 313.525494 133.497374 
L 313.63288 132.81024 
L 313.648741 132.733892 
L 313.737016 132.275802 
L 313.782004 132.199454 
L 313.872229 131.665016 
L 313.901117 131.665016 
L 313.989149 131.206927 
L 315.537568 131.130579 
L 315.619181 130.825186 
L 315.732146 130.825186 
L 315.84282 129.374569 
L 315.8795 129.298221 
L 315.973471 128.840132 
L 316.033599 128.840132 
L 316.128798 128.458391 
L 316.159372 128.458391 
L 316.159372 128.305694 
L 317.591794 128.229346 
L 317.701514 128.000301 
L 317.714076 127.923953 
L 317.824791 126.626033 
L 317.843398 126.626033 
L 317.934181 126.244292 
L 318.036097 126.167944 
L 318.049743 125.938899 
L 319.385695 125.862551 
L 319.478547 125.480809 
L 319.516166 125.404461 
L 319.626397 124.717327 
L 319.687271 124.640979 
L 319.792579 124.411934 
L 321.03233 124.335586 
L 321.133758 123.572104 
L 321.180455 123.495755 
L 321.217051 123.037666 
L 321.308726 123.037666 
L 321.385796 122.655925 
L 322.588668 122.579576 
L 322.688167 122.121487 
L 322.728781 122.121487 
L 322.833362 121.587049 
L 322.857792 121.510701 
L 322.879178 121.358005 
L 323.971229 121.358005 
L 324.073006 120.594522 
L 324.119222 120.518174 
L 324.22141 119.983736 
L 324.241301 119.983736 
L 324.241301 119.83104 
L 325.287367 119.754692 
L 325.380729 118.762165 
L 325.477009 118.685816 
L 325.483641 118.53312 
L 326.466574 118.456772 
L 326.511145 117.922334 
L 326.638948 117.845986 
L 326.682404 117.616941 
L 327.604564 117.540593 
L 327.686003 116.777111 
L 328.679435 116.700762 
L 328.721779 116.166325 
L 328.876272 116.089976 
L 328.876272 116.013628 
L 329.686026 115.93728 
L 329.756037 115.021101 
L 330.582807 114.944753 
L 330.688678 114.104922 
L 330.73979 114.104922 
L 330.799798 113.799529 
L 331.557303 113.723181 
L 331.620695 112.883351 
L 331.670757 112.883351 
L 331.700984 112.654306 
L 332.450141 112.577958 
L 332.539601 112.272565 
L 332.568396 112.196216 
L 332.568396 112.119868 
L 333.205116 112.119868 
L 333.308584 111.432734 
L 333.366456 111.356386 
L 333.41661 111.127341 
L 334.064713 111.050993 
L 334.145971 110.669252 
L 334.815431 110.592904 
L 334.868159 109.982118 
L 334.940623 109.982118 
L 334.943898 109.753073 
L 335.55403 109.676725 
L 335.649033 109.142287 
L 336.214661 109.065939 
L 336.32187 108.531501 
L 336.939842 108.455153 
L 337.04985 107.997064 
L 337.624232 107.920715 
L 337.638386 107.768019 
L 338.262034 107.691671 
L 338.337846 107.538974 
L 338.846815 107.538974 
L 338.933317 106.928188 
L 339.462467 106.85184 
L 339.462467 106.775492 
L 340.022333 106.699144 
L 340.077932 106.393751 
L 340.605597 106.317402 
L 340.61659 106.164706 
L 341.129396 106.088358 
L 341.158919 105.477572 
L 341.665165 105.401224 
L 341.752215 104.790438 
L 342.19526 104.714089 
L 342.19526 104.637741 
L 342.661127 104.561393 
L 342.760673 104.179652 
L 343.619941 104.103304 
L 343.688819 103.645214 
L 345.414635 103.568866 
L 345.425754 103.416169 
L 346.275816 103.339821 
L 346.275816 103.263473 
L 347.052673 103.187125 
L 347.052673 103.110776 
L 347.443006 103.034428 
L 347.451956 102.881732 
L 347.821151 102.805384 
L 347.829834 102.652687 
L 348.192614 102.576339 
L 348.208554 102.423642 
L 349.601106 102.347294 
L 349.601106 102.270946 
L 349.997582 102.194598 
L 349.997582 102.118249 
L 351.902766 102.041901 
L 351.902766 101.965553 
L 352.451132 101.889205 
L 352.451132 101.812856 
L 353.311087 101.736508 
L 353.311087 101.66016 
L 354.662327 101.583812 
L 354.685134 101.431115 
L 355.440239 101.354767 
L 355.440239 101.278419 
L 356.400615 101.202071 
L 356.400615 101.125722 
L 359.471195 101.049374 
L 359.471195 100.973026 
L 360.8064 100.973026 
L 360.8064 100.973026 
" style="fill: none; stroke: #000080; stroke-width: 1.5; stroke-linecap: square"/>
   </g>
   <g id="line2d_36">
    <defs>
     <path id="m89ddafd4dd" d="M 0 6 
C 1.591219 6 3.117479 5.367802 4.242641 4.242641 
C 5.367802 3.117479 6 1.591219 6 0 
C 6 -1.591219 5.367802 -3.117479 4.242641 -4.242641 
C 3.117479 -5.367802 1.591219 -6 0 -6 
C -1.591219 -6 -3.117479 -5.367802 -4.242641 -4.242641 
C -5.367802 -3.117479 -6 -1.591219 -6 0 
C -6 1.591219 -5.367802 3.117479 -4.242641 4.242641 
C -3.117479 5.367802 -1.591219 6 0 6 
z
" style="stroke: #000080; stroke-width: 1.5"/>
    </defs>
    <g>
     <use xlink:href="#m89ddafd4dd" x="110.221204" y="286.117496" style="fill-opacity: 0; stroke: #000080; stroke-width: 1.5"/>
     <use xlink:href="#m89ddafd4dd" x="189.964184" y="249.62304" style="fill-opacity: 0; stroke: #000080; stroke-width: 1.5"/>
     <use xlink:href="#m89ddafd4dd" x="265.334021" y="217.251388" style="fill-opacity: 0; stroke: #000080; stroke-width: 1.5"/>
     <use xlink:href="#m89ddafd4dd" x="317.934181" y="126.32064" style="fill-opacity: 0; stroke: #000080; stroke-width: 1.5"/>
     <use xlink:href="#m89ddafd4dd" x="359.471195" y="100.973026" style="fill-opacity: 0; stroke: #000080; stroke-width: 1.5"/>
     <use xlink:href="#m89ddafd4dd" x="360.8064" y="100.973026" style="fill-opacity: 0; stroke: #000080; stroke-width: 1.5"/>
    </g>
   </g>
   <g id="line2d_37">
    <path style="fill: none; stroke: #000080; stroke-width: 1.5; stroke-linecap: square"/>
    <g/>
   </g>
   <g id="line2d_38">
    <path d="M 274.176 216.945995 
" clip-path="url(#pee4cb35746)" style="fill: none; stroke: #000080; stroke-width: 1.5; stroke-linecap: square"/>
    <defs>
     <path id="mf429449d28" d="M -12 12 
L 12 -12 
M -12 -12 
L 12 12 
" style="stroke: #000080"/>
    </defs>
    <g clip-path="url(#pee4cb35746)">
     <use xlink:href="#mf429449d28" x="274.176" y="216.945995" style="fill: #000080; stroke: #000080"/>
    </g>
   </g>
   <g id="line2d_39">
    <defs>
     <path id="mb278873c4e" d="M 0 1.5 
C 0.397805 1.5 0.77937 1.341951 1.06066 1.06066 
C 1.341951 0.77937 1.5 0.397805 1.5 0 
C 1.5 -0.397805 1.341951 -0.77937 1.06066 -1.06066 
C 0.77937 -1.341951 0.397805 -1.5 0 -1.5 
C -0.397805 -1.5 -0.77937 -1.341951 -1.06066 -1.06066 
C -1.341951 -0.77937 -1.5 -0.397805 -1.5 0 
C -1.5 0.397805 -1.341951 0.77937 -1.06066 1.06066 
C -0.77937 1.341951 -0.397805 1.5 0 1.5 
z
" style="stroke: #ff00ff"/>
    </defs>
    <g>
     <use xlink:href="#mb278873c4e" x="360.469556" y="168.388518" style="fill: #ff00ff; stroke: #ff00ff"/>
     <use xlink:href="#mb278873c4e" x="360.469556" y="168.388518" style="fill: #ff00ff; stroke: #ff00ff"/>
    </g>
   </g>
   <g id="line2d_40">
    <path d="M 14.2848 298.944 
L 14.2848 291.309176 
L 27.323974 291.309176 
L 27.323974 290.622042 
L 34.951403 290.622042 
L 34.951403 290.240301 
L 40.363149 290.240301 
L 40.363149 289.705864 
L 44.560826 289.705864 
L 44.560826 289.400471 
L 50.890391 289.400471 
L 50.890391 289.247774 
L 57.6 289.171426 
L 57.6 289.018729 
L 62.535479 288.942381 
L 62.535479 288.713336 
L 65.227428 288.636988 
L 65.227428 288.484292 
L 73.268314 288.407944 
L 73.268314 288.255247 
L 74.068926 288.255247 
L 74.068926 288.102551 
L 76.284608 288.102551 
L 76.284608 287.949854 
L 78.266603 287.873506 
L 78.266603 287.797158 
L 83.202082 287.720809 
L 83.202082 287.644461 
L 85.038813 287.568113 
L 85.038813 287.491765 
L 88.613828 287.415416 
L 88.613828 287.339068 
L 93.381595 287.26272 
L 93.381595 287.186372 
L 93.66029 287.186372 
L 93.66029 287.033675 
L 94.995002 286.957327 
L 94.995002 286.804631 
L 95.998523 286.728282 
L 95.998523 286.651934 
L 98.077987 286.575586 
L 98.077987 286.499238 
L 98.510456 286.499238 
L 98.510456 286.346541 
L 99.950294 286.270193 
L 99.950294 286.193845 
L 101.833019 286.117496 
L 101.833019 286.041148 
L 102.708132 285.9648 
L 102.708132 285.812104 
L 103.214303 285.735755 
L 103.214303 285.659407 
L 106.42077 285.583059 
L 106.42077 285.506711 
L 109.280431 285.430362 
L 109.280431 285.354014 
L 114.048198 285.277666 
L 114.141556 285.048621 
L 116.086263 284.972273 
L 116.086263 284.895925 
L 117.462345 284.819576 
L 117.462345 284.743228 
L 119.807672 284.66688 
L 119.807672 284.514184 
L 124.101572 284.437835 
L 124.101572 284.361487 
L 126.176572 284.285139 
L 126.176572 284.208791 
L 127.911368 284.132442 
L 127.911368 284.056094 
L 128.956723 283.979746 
L 128.956723 283.903398 
L 129.663538 283.827049 
L 129.663538 283.750701 
L 132.037244 283.674353 
L 132.037244 283.598005 
L 133.457005 283.521656 
L 133.457005 283.445308 
L 134.745971 283.36896 
L 134.745971 283.292612 
L 135.805631 283.216264 
L 135.805631 283.139915 
L 138.180913 283.063567 
L 138.180913 282.987219 
L 143.146307 282.910871 
L 143.146307 282.834522 
L 146.091614 282.758174 
L 146.091614 282.605478 
L 148.124658 282.529129 
L 148.124658 282.452781 
L 148.918259 282.376433 
L 148.918259 282.300085 
L 149.637443 282.300085 
L 149.637443 282.147388 
L 152.057422 282.07104 
L 152.069827 281.918344 
L 152.965784 281.841995 
L 152.965784 281.765647 
L 155.003269 281.689299 
L 155.003269 281.612951 
L 155.277126 281.612951 
L 155.277126 281.460254 
L 157.269574 281.383906 
L 157.269574 281.307558 
L 159.734419 281.307558 
L 159.734419 281.154861 
L 164.187772 281.078513 
L 164.187772 281.002165 
L 166.05809 280.925816 
L 166.05809 280.849468 
L 167.661966 280.77312 
L 167.661966 280.696772 
L 168.801454 280.620424 
L 168.801454 280.544075 
L 169.114734 280.544075 
L 169.114734 280.238682 
L 169.662898 280.162334 
L 169.662898 280.085986 
L 170.621233 280.009638 
L 170.621233 279.933289 
L 171.916937 279.856941 
L 171.916937 279.704245 
L 174.404568 279.627896 
L 174.404568 279.551548 
L 174.596505 279.4752 
L 174.693607 279.322504 
L 174.871565 279.246155 
L 174.930512 279.093459 
L 175.124467 279.093459 
L 175.124467 278.940762 
L 175.595454 278.864414 
L 175.595454 278.788066 
L 176.041072 278.711718 
L 176.120657 278.482673 
L 176.832146 278.406325 
L 176.832146 278.17728 
L 177.076584 278.100932 
L 177.076584 278.024584 
L 177.337316 277.948235 
L 177.337316 277.871887 
L 177.655049 277.795539 
L 177.655049 277.719191 
L 177.936177 277.642842 
L 177.936177 277.566494 
L 178.120254 277.490146 
L 178.120254 277.413798 
L 179.363602 277.337449 
L 179.363602 277.261101 
L 179.890875 277.184753 
L 179.890875 277.032056 
L 180.70114 276.955708 
L 180.70114 276.87936 
L 181.653727 276.803012 
L 181.653727 276.726664 
L 182.738541 276.650315 
L 182.811266 276.344922 
L 183.357327 276.268574 
L 183.357327 276.192226 
L 184.261263 276.115878 
L 184.310478 275.886833 
L 184.856545 275.810485 
L 184.906394 275.657788 
L 185.338617 275.657788 
L 185.420934 275.123351 
L 187.034572 275.047002 
L 187.034572 274.970654 
L 187.553123 274.970654 
L 187.637552 273.749082 
L 187.688027 273.672734 
L 187.688027 273.596386 
L 187.814554 273.596386 
L 187.873804 273.061948 
L 188.059594 273.061948 
L 188.167281 272.145769 
L 188.196379 272.069421 
L 188.277975 271.840376 
L 188.373626 271.840376 
L 188.479536 271.611332 
L 188.552785 271.611332 
L 188.627526 271.076894 
L 188.793735 271.076894 
L 188.841205 270.847849 
L 189.015987 270.771501 
L 189.015987 270.542456 
L 189.190882 270.542456 
L 189.190882 270.008019 
L 189.574753 269.931671 
L 189.574753 269.855322 
L 189.809711 269.778974 
L 189.891258 269.168188 
L 190.452399 269.09184 
L 190.452399 269.015492 
L 191.086325 268.939144 
L 191.119023 268.557402 
L 191.406181 268.481054 
L 191.494836 267.717572 
L 192.024096 267.641224 
L 192.024096 267.183134 
L 192.185012 267.183134 
L 192.185012 266.877741 
L 192.343105 266.801393 
L 192.343105 266.725045 
L 192.847922 266.648696 
L 192.85076 266.266955 
L 193.267517 266.266955 
L 193.267517 266.114259 
L 193.416805 266.114259 
L 193.416805 265.808866 
L 194.15789 265.732518 
L 194.15789 265.656169 
L 194.513219 265.579821 
L 194.594871 265.350776 
L 195.274337 265.274428 
L 195.274337 265.19808 
L 195.464223 265.121732 
L 195.464223 265.045384 
L 195.792283 264.969035 
L 195.884283 264.739991 
L 196.174268 264.663642 
L 196.212281 264.510946 
L 196.325861 264.510946 
L 196.351793 264.205553 
L 196.555645 264.129205 
L 196.660224 263.823812 
L 196.775746 263.823812 
L 196.775746 263.671115 
L 197.152013 263.594767 
L 197.152013 263.518419 
L 197.355237 263.518419 
L 197.441031 263.136678 
L 197.525328 263.060329 
L 197.525328 262.983981 
L 197.692797 262.907633 
L 197.692797 262.831285 
L 197.976927 262.754936 
L 197.976927 262.678588 
L 198.751636 262.678588 
L 198.751636 262.525892 
L 199.297322 262.449544 
L 199.32852 262.296847 
L 199.74519 262.220499 
L 199.74519 262.144151 
L 200.075679 262.067802 
L 200.075679 261.991454 
L 200.692631 261.915106 
L 200.780335 261.762409 
L 200.998743 261.686061 
L 201.051116 261.533365 
L 201.427196 261.457016 
L 201.481979 260.846231 
L 201.595525 260.769882 
L 201.618687 260.540838 
L 201.848746 260.464489 
L 201.848746 260.388141 
L 202.260196 260.311793 
L 202.273958 260.0064 
L 202.641772 259.930052 
L 202.705742 259.701007 
L 203.291453 259.624659 
L 203.347572 259.395614 
L 203.468995 259.319266 
L 203.575202 259.013873 
L 203.751688 258.937525 
L 203.862638 258.784828 
L 204.421592 258.70848 
L 204.421592 258.632132 
L 204.647276 258.555784 
L 204.647276 258.479435 
L 204.8523 258.403087 
L 204.913673 258.021346 
L 205.001641 257.944998 
L 205.09808 257.41056 
L 205.126915 257.334212 
L 205.126915 257.257864 
L 205.420869 257.181515 
L 205.489116 257.028819 
L 205.751082 256.952471 
L 205.860114 256.723426 
L 205.937407 256.647078 
L 205.937407 256.570729 
L 206.159007 256.494381 
L 206.261534 256.188988 
L 206.569226 256.11264 
L 206.569226 256.036292 
L 206.775429 255.959944 
L 206.775429 255.883595 
L 207.129438 255.807247 
L 207.205005 255.654551 
L 207.552394 255.578202 
L 207.588079 255.425506 
L 207.830239 255.349158 
L 207.830239 255.272809 
L 208.225993 255.272809 
L 208.298537 254.891068 
L 208.43226 254.81472 
L 208.532394 254.509327 
L 208.688329 254.509327 
L 208.688329 254.356631 
L 208.828423 254.280282 
L 208.847226 253.974889 
L 209.413923 253.898541 
L 209.495512 253.593148 
L 210.161248 253.5168 
L 210.161248 253.440452 
L 211.136187 253.364104 
L 211.189253 253.211407 
L 211.3815 253.135059 
L 211.3815 253.058711 
L 211.582814 252.982362 
L 211.582814 252.829666 
L 211.765391 252.753318 
L 211.765391 252.676969 
L 212.029835 252.600621 
L 212.09065 252.447925 
L 212.412387 252.371576 
L 212.506448 251.989835 
L 212.60004 251.989835 
L 212.627829 251.684442 
L 212.711937 251.684442 
L 212.711937 251.531746 
L 212.880013 251.455398 
L 212.880013 251.302701 
L 213.296618 251.302701 
L 213.296618 251.150005 
L 213.588173 251.150005 
L 213.588173 250.997308 
L 213.712156 250.92096 
L 213.792029 250.615567 
L 213.924866 250.539219 
L 214.021348 250.310174 
L 214.266094 250.233826 
L 214.290168 250.081129 
L 214.651183 250.004781 
L 214.651183 249.928433 
L 214.800652 249.852085 
L 214.800652 249.393995 
L 215.12215 249.317647 
L 215.204052 249.012254 
L 215.390784 248.935906 
L 215.390784 248.859558 
L 215.842139 248.783209 
L 215.929294 248.248772 
L 215.992012 248.172424 
L 216.08343 248.019727 
L 216.113118 247.943379 
L 216.20559 247.408941 
L 216.770583 247.332593 
L 216.836114 247.103548 
L 217.028602 247.0272 
L 217.028602 246.950852 
L 217.497931 246.874504 
L 217.497931 246.798155 
L 217.724685 246.721807 
L 217.833285 246.569111 
L 217.842307 246.569111 
L 217.937523 245.958325 
L 218.030772 245.881976 
L 218.104669 245.576584 
L 218.163873 245.576584 
L 218.163873 245.423887 
L 218.389358 245.347539 
L 218.423276 245.118494 
L 218.637406 245.042146 
L 218.648571 244.889449 
L 218.801688 244.813101 
L 218.840575 244.660405 
L 219.172638 244.584056 
L 219.172638 244.507708 
L 219.324343 244.507708 
L 219.3878 244.202315 
L 219.615584 244.125967 
L 219.72505 243.667878 
L 219.902385 243.591529 
L 219.902385 243.515181 
L 220.222005 243.438833 
L 220.222005 243.362485 
L 220.681624 243.286136 
L 220.734549 243.13344 
L 220.87805 243.057092 
L 220.943178 242.904395 
L 221.035376 242.828047 
L 221.132489 242.369958 
L 221.25796 242.293609 
L 221.328347 241.759172 
L 221.402204 241.682824 
L 221.402204 241.606475 
L 221.518477 241.606475 
L 221.518477 241.453779 
L 221.989782 241.377431 
L 222.071601 240.766645 
L 222.359333 240.690296 
L 222.359333 240.613948 
L 222.616798 240.5376 
L 222.616798 240.461252 
L 222.860429 240.461252 
L 222.964906 239.926814 
L 223.073644 239.850466 
L 223.173267 239.697769 
L 223.476253 239.621421 
L 223.548816 239.392376 
L 223.723371 239.392376 
L 223.800739 239.086984 
L 223.887058 239.010635 
L 223.978951 238.552546 
L 224.138287 238.476198 
L 224.198161 238.170805 
L 224.268798 238.094456 
L 224.374523 237.483671 
L 224.464335 237.407322 
L 224.57081 237.025581 
L 224.648703 236.949233 
L 224.657861 236.796536 
L 224.995154 236.720188 
L 225.029297 236.567492 
L 225.456075 236.567492 
L 225.531143 235.956706 
L 225.626299 235.880358 
L 225.676918 235.651313 
L 225.857194 235.574965 
L 225.879515 235.040527 
L 226.036731 234.964179 
L 226.046696 234.811482 
L 226.377857 234.735134 
L 226.426259 234.582438 
L 226.676757 234.506089 
L 226.719239 234.200696 
L 226.813717 234.124348 
L 226.912132 233.589911 
L 227.147578 233.513562 
L 227.179634 233.284518 
L 227.28708 233.208169 
L 227.358371 233.055473 
L 227.583629 232.979125 
L 227.583629 232.902776 
L 227.827232 232.826428 
L 227.86102 232.673732 
L 227.963557 232.597384 
L 228.034302 232.368339 
L 228.20037 232.291991 
L 228.237388 232.139294 
L 228.594282 232.062946 
L 228.696287 231.910249 
L 228.884448 231.833901 
L 228.914513 231.299464 
L 229.021647 231.299464 
L 229.088737 230.917722 
L 229.322092 230.841374 
L 229.322092 230.765026 
L 229.689422 230.765026 
L 229.689422 230.535981 
L 229.89827 230.459633 
L 230.003504 229.772499 
L 230.108349 229.696151 
L 230.169923 229.390758 
L 230.428664 229.314409 
L 230.462127 229.161713 
L 230.79843 229.085365 
L 230.892752 228.474579 
L 230.912273 228.474579 
L 230.979128 228.169186 
L 231.101731 228.092838 
L 231.177169 227.482052 
L 231.276425 227.405704 
L 231.323838 227.176659 
L 231.41776 227.100311 
L 231.41776 226.871266 
L 231.804579 226.794918 
L 231.880997 226.26048 
L 231.943791 226.184132 
L 231.990263 226.031435 
L 232.446523 226.031435 
L 232.542932 225.802391 
L 232.673218 225.726042 
L 232.780708 225.496998 
L 232.815329 225.420649 
L 232.921675 225.191605 
L 233.046359 225.115256 
L 233.142416 224.96256 
L 233.261014 224.886212 
L 233.358289 224.657167 
L 233.489121 224.580819 
L 233.596617 223.970033 
L 233.624572 223.893685 
L 233.624572 223.817336 
L 233.887619 223.740988 
L 233.96673 223.511944 
L 234.201141 223.435595 
L 234.29353 223.206551 
L 234.398564 223.130202 
L 234.487198 222.595765 
L 234.627842 222.519416 
L 234.718163 222.36672 
L 234.807748 222.290372 
L 234.879596 222.061327 
L 235.085696 221.984979 
L 235.187756 221.297845 
L 235.273947 221.221496 
L 235.364632 220.839755 
L 235.4307 220.763407 
L 235.4307 220.687059 
L 235.799607 220.610711 
L 235.799607 220.534362 
L 235.917296 220.534362 
L 236.014095 220.228969 
L 236.145943 220.228969 
L 236.22956 219.847228 
L 236.507627 219.77088 
L 236.592707 219.312791 
L 236.626936 219.236442 
L 236.727461 218.931049 
L 236.989355 218.931049 
L 236.989355 218.778353 
L 237.206214 218.702005 
L 237.313579 218.320264 
L 237.512626 218.320264 
L 237.512626 218.167567 
L 237.698997 218.091219 
L 237.793447 217.938522 
L 237.857881 217.862174 
L 237.949215 217.251388 
L 238.202135 217.17504 
L 238.254014 217.022344 
L 238.502269 216.945995 
L 238.502269 216.869647 
L 238.684471 216.793299 
L 238.733926 216.640602 
L 238.858656 216.564254 
L 238.921877 216.258861 
L 239.021127 216.258861 
L 239.037577 216.029816 
L 239.223739 215.953468 
L 239.223739 215.87712 
L 239.476146 215.800772 
L 239.552741 215.648075 
L 239.702651 215.571727 
L 239.804776 215.037289 
L 239.919953 214.960941 
L 239.959658 214.731896 
L 240.282301 214.655548 
L 240.391426 214.121111 
L 240.870937 214.044762 
L 240.870937 213.968414 
L 241.126416 213.892066 
L 241.233259 213.663021 
L 241.296773 213.586673 
L 241.395887 213.433976 
L 241.492879 213.357628 
L 241.600643 213.204932 
L 241.674261 213.204932 
L 241.674261 213.052235 
L 242.141652 212.975887 
L 242.151047 212.823191 
L 242.364022 212.746842 
L 242.448135 212.441449 
L 242.687811 212.365101 
L 242.752805 211.98336 
L 242.985198 211.907012 
L 242.985198 211.830664 
L 243.436437 211.754315 
L 243.436437 211.677967 
L 243.760536 211.601619 
L 243.760536 211.525271 
L 244.192836 211.448922 
L 244.192836 211.372574 
L 244.371821 211.296226 
L 244.445882 211.143529 
L 244.72404 211.067181 
L 244.72404 210.990833 
L 244.870481 210.914485 
L 244.870481 210.838136 
L 245.305008 210.761788 
L 245.341372 210.456395 
L 245.905638 210.380047 
L 245.905638 210.303699 
L 246.272847 210.227351 
L 246.272847 210.151002 
L 246.552246 210.074654 
L 246.552246 209.998306 
L 247.004469 209.921958 
L 247.004469 209.845609 
L 247.159418 209.769261 
L 247.159418 209.692913 
L 247.721138 209.616565 
L 247.777555 209.463868 
L 248.104196 209.38752 
L 248.104196 209.311172 
L 248.500907 209.234824 
L 248.601318 209.082127 
L 249.564071 209.005779 
L 249.564071 208.929431 
L 250.915332 208.853082 
L 250.915332 208.776734 
L 251.571308 208.700386 
L 251.571308 208.624038 
L 253.29535 208.547689 
L 253.29535 208.471341 
L 253.746818 208.394993 
L 253.772324 208.242296 
L 254.515584 208.165948 
L 254.60013 208.013252 
L 255.475977 207.936904 
L 255.475977 207.860555 
L 257.376198 207.784207 
L 257.376198 207.707859 
L 260.90877 207.631511 
L 260.90877 207.555162 
L 263.123474 207.555162 
L 263.123474 207.402466 
L 266.239991 207.402466 
L 266.239991 207.173421 
L 266.676534 207.097073 
L 266.680485 206.868028 
L 266.964804 206.868028 
L 266.964804 206.715332 
L 267.663148 206.638984 
L 267.663148 206.562635 
L 270.370542 206.486287 
L 270.370542 206.409939 
L 270.699229 206.409939 
L 270.699229 206.180894 
L 271.016842 206.180894 
L 271.016842 206.028198 
L 271.277814 205.951849 
L 271.277814 205.875501 
L 272.138764 205.799153 
L 272.138764 205.722805 
L 274.6061 205.646456 
L 274.701376 205.49376 
L 274.746086 205.417412 
L 274.836208 205.188367 
L 274.872027 205.188367 
L 274.982141 204.19584 
L 275.010613 204.119492 
L 275.099211 203.508706 
L 275.181741 203.432358 
L 275.272501 203.203313 
L 275.315328 203.126965 
L 275.407597 202.439831 
L 275.431597 202.363482 
L 275.540453 201.676348 
L 275.577105 201.6 
L 275.687712 201.065562 
L 275.728011 200.989214 
L 275.814559 200.607473 
L 275.907163 200.531125 
L 275.994038 199.920339 
L 276.056289 199.843991 
L 276.149102 199.080508 
L 276.232137 199.00416 
L 276.322865 198.546071 
L 276.344317 198.546071 
L 276.425946 197.782588 
L 276.475486 197.70624 
L 276.584607 196.713713 
L 276.64822 196.637365 
L 276.733519 195.797534 
L 276.826392 195.721186 
L 276.934136 194.957704 
L 276.962415 194.881355 
L 277.060253 194.041525 
L 277.151258 194.041525 
L 277.25261 193.278042 
L 277.344583 193.278042 
L 277.419349 192.819953 
L 277.732116 192.743605 
L 277.77102 192.51456 
L 277.853785 192.438212 
L 277.853785 192.361864 
L 278.160063 192.285515 
L 278.160063 192.132819 
L 278.346734 192.056471 
L 278.374986 191.827426 
L 282.489222 191.751078 
L 282.489222 191.674729 
L 283.836712 191.674729 
L 283.838299 191.445685 
L 284.239208 191.369336 
L 284.239208 191.292988 
L 285.556997 191.21664 
L 285.556997 190.987595 
L 287.611487 190.987595 
L 287.705201 190.529506 
L 287.820086 190.453158 
L 287.872994 190.224113 
L 287.958122 190.147765 
L 288.052289 189.766024 
L 288.078837 189.766024 
L 288.181447 188.926193 
L 288.271322 188.849845 
L 288.358645 188.6208 
L 288.422733 188.544452 
L 288.494803 188.010014 
L 288.659926 187.933666 
L 288.752031 187.170184 
L 288.85294 187.093835 
L 288.926759 186.635746 
L 289.051452 186.559398 
L 289.140263 186.177656 
L 289.312482 186.101308 
L 289.312482 185.948612 
L 291.82732 185.872264 
L 291.82732 185.643219 
L 292.658993 185.566871 
L 292.731845 185.414174 
L 293.107591 185.337826 
L 293.107591 185.261478 
L 295.154235 185.185129 
L 295.220395 184.72704 
L 295.308504 184.650692 
L 295.402825 184.345299 
L 295.43031 184.268951 
L 295.43031 184.192602 
L 295.554183 184.116254 
L 295.600562 183.734513 
L 295.786143 183.658165 
L 295.855552 183.200075 
L 295.914924 183.123727 
L 296.000784 182.512941 
L 296.086483 182.436593 
L 296.157701 181.902155 
L 296.204892 181.902155 
L 296.266458 181.673111 
L 298.561799 181.596762 
L 298.641583 181.444066 
L 299.512893 181.367718 
L 299.570579 181.215021 
L 300.46808 181.138673 
L 300.51087 180.909628 
L 300.743904 180.83328 
L 300.744032 180.680584 
L 300.916718 180.604235 
L 300.99443 180.298842 
L 301.105515 180.222494 
L 301.208359 179.764405 
L 301.24128 179.688056 
L 301.319515 179.306315 
L 304.593284 179.229967 
L 304.639624 179.077271 
L 305.046402 179.000922 
L 305.090382 178.848226 
L 305.24567 178.771878 
L 305.319204 178.313788 
L 307.390734 178.23744 
L 307.390734 178.161092 
L 308.376856 178.084744 
L 308.487691 177.550306 
L 308.523128 177.473958 
L 308.545605 177.168565 
L 311.208053 177.092216 
L 311.302131 176.863172 
L 311.332648 176.786824 
L 311.43707 176.176038 
L 312.661497 176.099689 
L 312.661497 176.023341 
L 313.6922 175.946993 
L 313.79752 175.488904 
L 313.827374 175.412555 
L 313.887849 175.183511 
L 314.887372 175.107162 
L 314.887372 175.030814 
L 315.84173 174.954466 
L 315.944302 174.420028 
L 316.636253 174.34368 
L 316.636253 174.267332 
L 317.800853 174.190984 
L 317.892301 173.885591 
L 319.574915 173.809242 
L 319.649121 173.503849 
L 321.206365 173.427501 
L 321.24436 173.04576 
L 322.718355 172.969412 
L 322.718355 172.893064 
L 324.094322 172.816715 
L 324.121104 172.587671 
L 325.386988 172.511322 
L 325.437936 172.282278 
L 326.55264 172.205929 
L 326.619472 171.824188 
L 328.743695 171.74784 
L 328.814845 171.366099 
L 329.787234 171.289751 
L 329.806532 171.060706 
L 330.725086 170.984358 
L 330.733596 170.755313 
L 331.648951 170.678965 
L 331.676822 170.44992 
L 333.334957 170.373572 
L 333.351461 170.220875 
L 334.160328 170.144527 
L 334.160328 170.068179 
L 334.896831 169.991831 
L 334.920286 169.762786 
L 335.61581 169.686438 
L 335.650731 169.533741 
L 337.659341 169.457393 
L 337.685898 169.304696 
L 339.498138 169.228348 
L 339.498138 169.152 
L 342.217178 169.075652 
L 342.217178 168.999304 
L 344.60203 168.922955 
L 344.60203 168.846607 
L 347.473483 168.770259 
L 347.473483 168.693911 
L 348.343605 168.617562 
L 348.343605 168.541214 
L 360.469556 168.464866 
L 360.469556 168.388518 
L 360.8064 168.388518 
L 360.8064 168.388518 
" style="fill: none; stroke: #ff00ff; stroke-width: 1.5; stroke-linecap: square"/>
   </g>
   <g id="line2d_41">
    <defs>
     <path id="m6195ba06bd" d="M 0 8.485281 
L 5.091169 0 
L 0 -8.485281 
L -5.091169 0 
z
" style="stroke: #ff00ff; stroke-width: 1.5; stroke-linejoin: miter"/>
    </defs>
    <g>
     <use xlink:href="#m6195ba06bd" x="65.227428" y="288.636988" style="fill-opacity: 0; stroke: #ff00ff; stroke-width: 1.5; stroke-linejoin: miter"/>
     <use xlink:href="#m6195ba06bd" x="156.185481" y="281.383906" style="fill-opacity: 0; stroke: #ff00ff; stroke-width: 1.5; stroke-linejoin: miter"/>
     <use xlink:href="#m6195ba06bd" x="220.222005" y="243.362485" style="fill-opacity: 0; stroke: #ff00ff; stroke-width: 1.5; stroke-linejoin: miter"/>
     <use xlink:href="#m6195ba06bd" x="300.51087" y="180.985976" style="fill-opacity: 0; stroke: #ff00ff; stroke-width: 1.5; stroke-linejoin: miter"/>
     <use xlink:href="#m6195ba06bd" x="360.469556" y="168.388518" style="fill-opacity: 0; stroke: #ff00ff; stroke-width: 1.5; stroke-linejoin: miter"/>
     <use xlink:href="#m6195ba06bd" x="360.8064" y="168.388518" style="fill-opacity: 0; stroke: #ff00ff; stroke-width: 1.5; stroke-linejoin: miter"/>
    </g>
   </g>
   <g id="line2d_42">
    <path style="fill: none; stroke: #ff00ff; stroke-width: 1.5; stroke-linecap: square"/>
    <g/>
   </g>
   <g id="line2d_43">
    <path d="M 274.176 205.646456 
" clip-path="url(#pee4cb35746)" style="fill: none; stroke: #ff00ff; stroke-width: 1.5; stroke-linecap: square"/>
    <defs>
     <path id="m805db24aca" d="M -12 12 
L 12 -12 
M -12 -12 
L 12 12 
" style="stroke: #ff00ff"/>
    </defs>
    <g clip-path="url(#pee4cb35746)">
     <use xlink:href="#m805db24aca" x="274.176" y="205.646456" style="fill: #ff00ff; stroke: #ff00ff"/>
    </g>
   </g>
   <g id="line2d_44">
    <path d="M 360.8064 168.388518 
L 380.514816 293.10336 
" style="fill: none; stroke: #ff00ff; stroke-width: 1.5; stroke-linecap: square"/>
    <g>
     <use xlink:href="#m6195ba06bd" x="360.8064" y="168.388518" style="fill-opacity: 0; stroke: #ff00ff; stroke-width: 1.5; stroke-linejoin: miter"/>
     <use xlink:href="#m6195ba06bd" x="380.514816" y="293.10336" style="fill-opacity: 0; stroke: #ff00ff; stroke-width: 1.5; stroke-linejoin: miter"/>
    </g>
   </g>
   <g id="line2d_45">
    <path d="M 360.8064 100.973026 
L 380.514816 152.928 
" style="fill: none; stroke: #000080; stroke-width: 1.5; stroke-linecap: square"/>
    <g>
     <use xlink:href="#m89ddafd4dd" x="360.8064" y="100.973026" style="fill-opacity: 0; stroke: #000080; stroke-width: 1.5"/>
     <use xlink:href="#m89ddafd4dd" x="380.514816" y="152.928" style="fill-opacity: 0; stroke: #000080; stroke-width: 1.5"/>
    </g>
   </g>
   <g id="line2d_46">
    <path d="M 360.8064 298.944 
L 360.8064 6.912 
" style="fill: none; stroke: #000000; stroke-width: 1.5; stroke-linecap: square"/>
   </g>
   <g id="patch_3">
    <path d="M 57.6 298.944 
L 360.8064 298.944 
" style="fill: none; stroke: #000000; stroke-width: 0.8; stroke-linejoin: miter; stroke-linecap: square"/>
   </g>
   <g id="patch_4">
    <path d="M 57.6 6.912 
L 360.8064 6.912 
" style="fill: none; stroke: #000000; stroke-width: 0.8; stroke-linejoin: miter; stroke-linecap: square"/>
   </g>
   <g id="text_13">
    <!-- GA -->
    <g transform="translate(386.578944 296.966485)scale(0.14 -0.14)">
     <defs>
      <path id="DejaVuSans-47" d="M 3809 666 
L 3809 1919 
L 2778 1919 
L 2778 2438 
L 4434 2438 
L 4434 434 
Q 4069 175 3628 42 
Q 3188 -91 2688 -91 
Q 1594 -91 976 548 
Q 359 1188 359 2328 
Q 359 3472 976 4111 
Q 1594 4750 2688 4750 
Q 3144 4750 3555 4637 
Q 3966 4525 4313 4306 
L 4313 3634 
Q 3963 3931 3569 4081 
Q 3175 4231 2741 4231 
Q 1884 4231 1454 3753 
Q 1025 3275 1025 2328 
Q 1025 1384 1454 906 
Q 1884 428 2741 428 
Q 3075 428 3337 486 
Q 3600 544 3809 666 
z
" transform="scale(0.015625)"/>
      <path id="DejaVuSans-41" d="M 2188 4044 
L 1331 1722 
L 3047 1722 
L 2188 4044 
z
M 1831 4666 
L 2547 4666 
L 4325 0 
L 3669 0 
L 3244 1197 
L 1141 1197 
L 716 0 
L 50 0 
L 1831 4666 
z
" transform="scale(0.015625)"/>
     </defs>
     <use xlink:href="#DejaVuSans-47"/>
     <use xlink:href="#DejaVuSans-41" x="77.490234"/>
    </g>
   </g>
   <g id="text_14">
    <!-- LCGA -->
    <g transform="translate(386.578944 156.791125)scale(0.14 -0.14)">
     <defs>
      <path id="DejaVuSans-4c" d="M 628 4666 
L 1259 4666 
L 1259 531 
L 3531 531 
L 3531 0 
L 628 0 
L 628 4666 
z
" transform="scale(0.015625)"/>
      <path id="DejaVuSans-43" d="M 4122 4306 
L 4122 3641 
Q 3803 3938 3442 4084 
Q 3081 4231 2675 4231 
Q 1875 4231 1450 3742 
Q 1025 3253 1025 2328 
Q 1025 1406 1450 917 
Q 1875 428 2675 428 
Q 3081 428 3442 575 
Q 3803 722 4122 1019 
L 4122 359 
Q 3791 134 3420 21 
Q 3050 -91 2638 -91 
Q 1578 -91 968 557 
Q 359 1206 359 2328 
Q 359 3453 968 4101 
Q 1578 4750 2638 4750 
Q 3056 4750 3426 4639 
Q 3797 4528 4122 4306 
z
" transform="scale(0.015625)"/>
     </defs>
     <use xlink:href="#DejaVuSans-4c"/>
     <use xlink:href="#DejaVuSans-43" x="55.712891"/>
     <use xlink:href="#DejaVuSans-47" x="125.537109"/>
     <use xlink:href="#DejaVuSans-41" x="203.027344"/>
    </g>
   </g>
   <g id="text_15">
    <!-- best 2009 -->
    <g transform="translate(386.578944 16.615765)scale(0.14 -0.14)">
     <defs>
      <path id="DejaVuSans-62" d="M 3116 1747 
Q 3116 2381 2855 2742 
Q 2594 3103 2138 3103 
Q 1681 3103 1420 2742 
Q 1159 2381 1159 1747 
Q 1159 1113 1420 752 
Q 1681 391 2138 391 
Q 2594 391 2855 752 
Q 3116 1113 3116 1747 
z
M 1159 2969 
Q 1341 3281 1617 3432 
Q 1894 3584 2278 3584 
Q 2916 3584 3314 3078 
Q 3713 2572 3713 1747 
Q 3713 922 3314 415 
Q 2916 -91 2278 -91 
Q 1894 -91 1617 61 
Q 1341 213 1159 525 
L 1159 0 
L 581 0 
L 581 4863 
L 1159 4863 
L 1159 2969 
z
" transform="scale(0.015625)"/>
      <path id="DejaVuSans-39" d="M 703 97 
L 703 672 
Q 941 559 1184 500 
Q 1428 441 1663 441 
Q 2288 441 2617 861 
Q 2947 1281 2994 2138 
Q 2813 1869 2534 1725 
Q 2256 1581 1919 1581 
Q 1219 1581 811 2004 
Q 403 2428 403 3163 
Q 403 3881 828 4315 
Q 1253 4750 1959 4750 
Q 2769 4750 3195 4129 
Q 3622 3509 3622 2328 
Q 3622 1225 3098 567 
Q 2575 -91 1691 -91 
Q 1453 -91 1209 -44 
Q 966 3 703 97 
z
M 1959 2075 
Q 2384 2075 2632 2365 
Q 2881 2656 2881 3163 
Q 2881 3666 2632 3958 
Q 2384 4250 1959 4250 
Q 1534 4250 1286 3958 
Q 1038 3666 1038 3163 
Q 1038 2656 1286 2365 
Q 1534 2075 1959 2075 
z
" transform="scale(0.015625)"/>
     </defs>
     <use xlink:href="#DejaVuSans-62"/>
     <use xlink:href="#DejaVuSans-65" x="63.476562"/>
     <use xlink:href="#DejaVuSans-73" x="125"/>
     <use xlink:href="#DejaVuSans-74" x="177.099609"/>
     <use xlink:href="#DejaVuSans-20" x="216.308594"/>
     <use xlink:href="#DejaVuSans-32" x="248.095703"/>
     <use xlink:href="#DejaVuSans-30" x="311.71875"/>
     <use xlink:href="#DejaVuSans-30" x="375.341797"/>
     <use xlink:href="#DejaVuSans-39" x="438.964844"/>
    </g>
   </g>
   <g id="text_16">
    <!-- bbob f20-f24, 10-D -->
    <g transform="translate(60.632064 17.582726)scale(0.102 -0.102)">
     <defs>
      <path id="DejaVuSans-44" d="M 1259 4147 
L 1259 519 
L 2022 519 
Q 2988 519 3436 956 
Q 3884 1394 3884 2338 
Q 3884 3275 3436 3711 
Q 2988 4147 2022 4147 
L 1259 4147 
z
M 628 4666 
L 1925 4666 
Q 3281 4666 3915 4102 
Q 4550 3538 4550 2338 
Q 4550 1131 3912 565 
Q 3275 0 1925 0 
L 628 0 
L 628 4666 
z
" transform="scale(0.015625)"/>
     </defs>
     <use xlink:href="#DejaVuSans-62"/>
     <use xlink:href="#DejaVuSans-62" x="63.476562"/>
     <use xlink:href="#DejaVuSans-6f" x="126.953125"/>
     <use xlink:href="#DejaVuSans-62" x="188.134766"/>
     <use xlink:href="#DejaVuSans-20" x="251.611328"/>
     <use xlink:href="#DejaVuSans-66" x="283.398438"/>
     <use xlink:href="#DejaVuSans-32" x="318.603516"/>
     <use xlink:href="#DejaVuSans-30" x="382.226562"/>
     <use xlink:href="#DejaVuSans-2d" x="445.849609"/>
     <use xlink:href="#DejaVuSans-66" x="481.933594"/>
     <use xlink:href="#DejaVuSans-32" x="517.138672"/>
     <use xlink:href="#DejaVuSans-34" x="580.761719"/>
     <use xlink:href="#DejaVuSans-2c" x="644.384766"/>
     <use xlink:href="#DejaVuSans-20" x="676.171875"/>
     <use xlink:href="#DejaVuSans-31" x="707.958984"/>
     <use xlink:href="#DejaVuSans-30" x="771.582031"/>
     <use xlink:href="#DejaVuSans-2d" x="835.205078"/>
     <use xlink:href="#DejaVuSans-44" x="871.289062"/>
    </g>
    <!-- 51 targets: 100..1e-08 -->
    <g transform="translate(60.632064 29.004495)scale(0.102 -0.102)">
     <defs>
      <path id="DejaVuSans-35" d="M 691 4666 
L 3169 4666 
L 3169 4134 
L 1269 4134 
L 1269 2991 
Q 1406 3038 1543 3061 
Q 1681 3084 1819 3084 
Q 2600 3084 3056 2656 
Q 3513 2228 3513 1497 
Q 3513 744 3044 326 
Q 2575 -91 1722 -91 
Q 1428 -91 1123 -41 
Q 819 9 494 109 
L 494 744 
Q 775 591 1075 516 
Q 1375 441 1709 441 
Q 2250 441 2565 725 
Q 2881 1009 2881 1497 
Q 2881 1984 2565 2268 
Q 2250 2553 1709 2553 
Q 1456 2553 1204 2497 
Q 953 2441 691 2322 
L 691 4666 
z
" transform="scale(0.015625)"/>
      <path id="DejaVuSans-3a" d="M 750 794 
L 1409 794 
L 1409 0 
L 750 0 
L 750 794 
z
M 750 3309 
L 1409 3309 
L 1409 2516 
L 750 2516 
L 750 3309 
z
" transform="scale(0.015625)"/>
     </defs>
     <use xlink:href="#DejaVuSans-35"/>
     <use xlink:href="#DejaVuSans-31" x="63.623047"/>
     <use xlink:href="#DejaVuSans-20" x="127.246094"/>
     <use xlink:href="#DejaVuSans-74" x="159.033203"/>
     <use xlink:href="#DejaVuSans-61" x="198.242188"/>
     <use xlink:href="#DejaVuSans-72" x="259.521484"/>
     <use xlink:href="#DejaVuSans-67" x="298.884766"/>
     <use xlink:href="#DejaVuSans-65" x="362.361328"/>
     <use xlink:href="#DejaVuSans-74" x="423.884766"/>
     <use xlink:href="#DejaVuSans-73" x="463.09375"/>
     <use xlink:href="#DejaVuSans-3a" x="515.193359"/>
     <use xlink:href="#DejaVuSans-20" x="548.884766"/>
     <use xlink:href="#DejaVuSans-31" x="580.671875"/>
     <use xlink:href="#DejaVuSans-30" x="644.294922"/>
     <use xlink:href="#DejaVuSans-30" x="707.917969"/>
     <use xlink:href="#DejaVuSans-2e" x="771.541016"/>
     <use xlink:href="#DejaVuSans-2e" x="803.328125"/>
     <use xlink:href="#DejaVuSans-31" x="835.115234"/>
     <use xlink:href="#DejaVuSans-65" x="898.738281"/>
     <use xlink:href="#DejaVuSans-2d" x="960.261719"/>
     <use xlink:href="#DejaVuSans-30" x="996.345703"/>
     <use xlink:href="#DejaVuSans-38" x="1059.96875"/>
    </g>
    <!-- 15 instances -->
    <g transform="translate(60.632064 40.426264)scale(0.102 -0.102)">
     <use xlink:href="#DejaVuSans-31"/>
     <use xlink:href="#DejaVuSans-35" x="63.623047"/>
     <use xlink:href="#DejaVuSans-20" x="127.246094"/>
     <use xlink:href="#DejaVuSans-69" x="159.033203"/>
     <use xlink:href="#DejaVuSans-6e" x="186.816406"/>
     <use xlink:href="#DejaVuSans-73" x="250.195312"/>
     <use xlink:href="#DejaVuSans-74" x="302.294922"/>
     <use xlink:href="#DejaVuSans-61" x="341.503906"/>
     <use xlink:href="#DejaVuSans-6e" x="402.783203"/>
     <use xlink:href="#DejaVuSans-63" x="466.162109"/>
     <use xlink:href="#DejaVuSans-65" x="521.142578"/>
     <use xlink:href="#DejaVuSans-73" x="582.666016"/>
    </g>
   </g>
   <g id="text_17">
    <!-- v2.6 -->
    <g style="fill: #808080" transform="translate(198.292262 293.943992)scale(0.1 -0.1)">
     <use xlink:href="#DejaVuSans-76"/>
     <use xlink:href="#DejaVuSans-32" x="59.179688"/>
     <use xlink:href="#DejaVuSans-2e" x="122.802734"/>
     <use xlink:href="#DejaVuSans-36" x="154.589844"/>
    </g>
   </g>
  </g>
 </g>
 <defs>
  <clipPath id="pee4cb35746">
   <rect x="57.6" y="6.912" width="303.2064" height="292.032"/>
  </clipPath>
 </defs>
</svg>
