<?xml version="1.0" encoding="utf-8" standalone="no"?>
<!DOCTYPE svg PUBLIC "-//W3C//DTD SVG 1.1//EN"
  "http://www.w3.org/Graphics/SVG/1.1/DTD/svg11.dtd">
<svg xmlns:xlink="http://www.w3.org/1999/xlink" width="460.8pt" height="345.6pt" viewBox="0 0 460.8 345.6" xmlns="http://www.w3.org/2000/svg" version="1.1">
 <metadata>
  <rdf:RDF xmlns:dc="http://purl.org/dc/elements/1.1/" xmlns:cc="http://creativecommons.org/ns#" xmlns:rdf="http://www.w3.org/1999/02/22-rdf-syntax-ns#">
   <cc:Work>
    <dc:type rdf:resource="http://purl.org/dc/dcmitype/StillImage"/>
    <dc:date>2024-05-29T07:59:13.122666</dc:date>
    <dc:format>image/svg+xml</dc:format>
    <dc:creator>
     <cc:Agent>
      <dc:title>Matplotlib v3.5.1, https://matplotlib.org/</dc:title>
     </cc:Agent>
    </dc:creator>
   </cc:Work>
  </rdf:RDF>
 </metadata>
 <defs>
  <style type="text/css">*{stroke-linejoin: round; stroke-linecap: butt}</style>
 </defs>
 <g id="figure_1">
  <g id="patch_1">
   <path d="M 0 345.6 
L 460.8 345.6 
L 460.8 0 
L 0 0 
z
" style="fill: #ffffff"/>
  </g>
  <g id="axes_1">
   <g id="patch_2">
    <path d="M 57.6 298.944 
L 360.8064 298.944 
L 360.8064 6.912 
L 57.6 6.912 
z
" style="fill: #ffffff"/>
   </g>
   <g id="line2d_1">
    <path d="M 44.560826 298.944 
L 44.560826 284.056094 
L 57.6 284.056094 
L 57.6 280.620424 
L 65.227428 280.620424 
L 65.227428 274.894306 
L 70.639174 274.894306 
L 70.639174 266.877741 
L 74.836851 266.877741 
L 74.836851 264.587294 
L 78.266603 264.587294 
L 78.266603 263.442071 
L 83.678349 263.442071 
L 83.678349 260.0064 
L 85.894031 260.0064 
L 85.894031 258.861176 
L 92.811505 258.861176 
L 92.811505 257.715953 
L 96.717523 257.715953 
L 96.717523 256.570729 
L 98.933205 256.570729 
L 98.933205 254.280282 
L 101.833019 254.280282 
L 101.833019 253.135059 
L 105.112877 253.135059 
L 105.112877 251.989835 
L 106.560633 251.989835 
L 106.560633 250.844612 
L 108.542628 250.844612 
L 108.542628 249.699388 
L 110.335561 249.699388 
L 110.335561 248.554165 
L 113.954374 248.554165 
L 113.954374 246.263718 
L 115.747307 246.263718 
L 115.747307 245.118494 
L 118.524569 245.118494 
L 118.524569 243.973271 
L 119.944983 243.973271 
L 119.944983 242.828047 
L 121.892744 242.828047 
L 121.892744 241.682824 
L 124.481616 241.682824 
L 124.481616 240.5376 
L 125.526971 240.5376 
L 125.526971 237.101929 
L 131.747272 237.101929 
L 131.747272 235.956706 
L 132.109044 235.956706 
L 132.109044 234.811482 
L 133.490329 234.811482 
L 133.490329 233.666259 
L 137.38594 233.666259 
L 137.38594 231.375812 
L 140.950542 231.375812 
L 140.950542 230.230588 
L 141.610664 230.230588 
L 141.610664 229.085365 
L 142.865233 229.085365 
L 142.865233 227.940141 
L 143.066428 227.940141 
L 143.066428 225.649694 
L 143.364242 225.649694 
L 143.364242 224.504471 
L 143.560197 224.504471 
L 143.560197 223.359247 
L 143.946089 223.359247 
L 143.946089 222.214024 
L 144.602918 222.214024 
L 144.602918 221.0688 
L 144.968202 221.0688 
L 144.968202 219.923576 
L 145.326529 219.923576 
L 145.326529 218.778353 
L 145.851536 218.778353 
L 145.851536 216.487906 
L 146.023332 216.487906 
L 146.108646 214.197459 
L 146.27812 214.197459 
L 146.27812 213.052235 
L 146.529503 213.052235 
L 146.612557 210.761788 
L 146.777571 210.761788 
L 146.777571 209.616565 
L 147.183884 209.616565 
L 147.183884 208.471341 
L 147.660152 208.471341 
L 147.660152 207.326118 
L 147.971093 207.326118 
L 147.971093 206.180894 
L 148.352679 206.180894 
L 148.352679 203.890447 
L 148.503173 203.890447 
L 148.503173 202.745224 
L 148.652472 202.745224 
L 148.652472 201.6 
L 149.020615 201.6 
L 149.020615 200.454776 
L 149.381693 200.454776 
L 149.381693 198.164329 
L 149.595059 198.164329 
L 149.665646 195.873882 
L 149.945377 195.873882 
L 149.945377 194.728659 
L 150.221009 194.728659 
L 150.289291 191.292988 
L 150.492661 191.292988 
L 150.559965 186.712094 
L 150.760445 186.712094 
L 150.760445 184.421647 
L 150.892922 184.421647 
L 150.958812 182.1312 
L 151.024471 182.1312 
L 151.089903 179.840753 
L 151.155108 179.840753 
L 151.220087 174.114635 
L 151.284843 174.114635 
L 151.284843 172.969412 
L 151.41369 172.969412 
L 151.477784 169.533741 
L 151.60532 169.533741 
L 151.60532 168.388518 
L 151.731998 168.388518 
L 151.795018 163.807624 
L 151.857828 163.807624 
L 151.920429 161.517176 
L 152.045009 161.517176 
L 152.106991 159.226729 
L 152.16877 159.226729 
L 152.230346 154.645835 
L 152.291722 154.645835 
L 152.352898 152.355388 
L 152.53524 152.355388 
L 152.53524 151.210165 
L 152.655828 151.210165 
L 152.655828 150.064941 
L 152.953957 150.064941 
L 152.953957 148.919718 
L 153.071898 148.919718 
L 153.130592 146.629271 
L 153.189104 146.629271 
L 153.247435 139.757929 
L 153.305585 139.757929 
L 153.363556 135.177035 
L 153.421349 135.177035 
L 153.478964 131.741365 
L 153.536404 131.741365 
L 153.593669 128.305694 
L 153.650761 128.305694 
L 153.707679 124.870024 
L 153.764426 124.870024 
L 153.764426 121.434353 
L 153.933646 121.434353 
L 153.933646 120.289129 
L 154.267588 120.289129 
L 154.267588 119.143906 
L 154.432362 119.143906 
L 154.432362 117.998682 
L 154.649839 117.998682 
L 154.649839 116.853459 
L 154.811312 116.853459 
L 154.811312 115.708235 
L 155.024477 115.708235 
L 155.13016 112.272565 
L 155.18278 112.272565 
L 155.28758 108.836894 
L 155.495444 108.836894 
L 155.598521 90.513318 
L 155.649849 90.513318 
L 155.752086 83.641976 
L 155.802997 83.641976 
L 155.85377 74.480188 
L 155.954908 74.480188 
L 156.055505 63.027953 
L 156.105602 63.027953 
L 156.105602 61.882729 
L 156.255099 61.882729 
L 156.354107 59.592282 
L 156.550574 59.592282 
L 156.550574 58.447059 
L 156.696589 58.447059 
L 156.793307 56.156612 
L 160.933013 56.156612 
L 160.933013 55.011388 
L 170.681267 55.011388 
L 170.681267 53.866165 
L 171.603476 53.866165 
L 171.603476 52.720941 
L 186.816825 52.720941 
L 186.816825 51.575718 
L 203.160675 51.575718 
L 203.160675 50.430494 
L 204.752328 50.430494 
L 204.752328 49.285271 
L 210.76485 49.285271 
L 210.76485 48.140047 
L 214.79756 48.140047 
L 214.79756 46.994824 
L 226.509655 46.994824 
L 226.509655 45.8496 
L 230.006457 45.8496 
L 230.025149 43.559153 
L 233.67793 43.559153 
L 233.67793 42.413929 
L 233.81348 42.413929 
L 233.852833 40.123482 
L 233.949657 40.123482 
L 234.032482 37.833035 
L 234.202559 37.833035 
L 234.202559 36.687812 
L 234.378915 36.687812 
L 234.432668 34.397365 
L 234.845076 34.397365 
L 234.848881 6.912 
L 360.8064 6.912 
L 360.8064 6.912 
" style="fill: none; stroke: #f5deb3; stroke-width: 4; stroke-linecap: square"/>
   </g>
   <g id="line2d_2">
    <defs>
     <path id="mb30fcb7bd6" d="M 0 7.778175 
L 7.778175 0 
L 0 -7.778175 
L -7.778175 0 
z
" style="stroke: #f5deb3; stroke-width: 1.5; stroke-linejoin: miter"/>
    </defs>
    <g>
     <use xlink:href="#mb30fcb7bd6" x="125.526971" y="240.5376" style="fill: #f5deb3; stroke: #f5deb3; stroke-width: 1.5; stroke-linejoin: miter"/>
     <use xlink:href="#mb30fcb7bd6" x="153.650761" y="128.305694" style="fill: #f5deb3; stroke: #f5deb3; stroke-width: 1.5; stroke-linejoin: miter"/>
     <use xlink:href="#mb30fcb7bd6" x="204.752328" y="49.285271" style="fill: #f5deb3; stroke: #f5deb3; stroke-width: 1.5; stroke-linejoin: miter"/>
     <use xlink:href="#mb30fcb7bd6" x="234.848881" y="6.912" style="fill: #f5deb3; stroke: #f5deb3; stroke-width: 1.5; stroke-linejoin: miter"/>
     <use xlink:href="#mb30fcb7bd6" x="234.848881" y="6.912" style="fill: #f5deb3; stroke: #f5deb3; stroke-width: 1.5; stroke-linejoin: miter"/>
     <use xlink:href="#mb30fcb7bd6" x="360.8064" y="6.912" style="fill: #f5deb3; stroke: #f5deb3; stroke-width: 1.5; stroke-linejoin: miter"/>
    </g>
   </g>
   <g id="line2d_3">
    <path style="fill: none; stroke: #f5deb3; stroke-width: 4; stroke-linecap: square"/>
    <g/>
   </g>
   <g id="line2d_4">
    <path d="M 360.8064 6.912 
L 380.514816 12.75264 
" style="fill: none; stroke: #f5deb3; stroke-width: 4; stroke-linecap: square"/>
    <g>
     <use xlink:href="#mb30fcb7bd6" x="360.8064" y="6.912" style="fill: #f5deb3; stroke: #f5deb3; stroke-width: 1.5; stroke-linejoin: miter"/>
     <use xlink:href="#mb30fcb7bd6" x="380.514816" y="12.75264" style="fill: #f5deb3; stroke: #f5deb3; stroke-width: 1.5; stroke-linejoin: miter"/>
    </g>
   </g>
   <g id="matplotlib.axis_1">
    <g id="xtick_1">
     <g id="line2d_5">
      <path d="M 57.6 298.944 
L 57.6 6.912 
" clip-path="url(#p4515b4d705)" style="fill: none; stroke: #b0b0b0; stroke-width: 0.8; stroke-linecap: square"/>
     </g>
     <g id="line2d_6">
      <defs>
       <path id="mf3a1b70582" d="M 0 0 
L 0 3.5 
" style="stroke: #000000; stroke-width: 0.8"/>
      </defs>
      <g>
       <use xlink:href="#mf3a1b70582" x="57.6" y="298.944" style="stroke: #000000; stroke-width: 0.8"/>
      </g>
     </g>
     <g id="text_1">
      <!-- 0 -->
      <g transform="translate(52.191875 318.861344)scale(0.17 -0.17)">
       <defs>
        <path id="DejaVuSans-30" d="M 2034 4250 
Q 1547 4250 1301 3770 
Q 1056 3291 1056 2328 
Q 1056 1369 1301 889 
Q 1547 409 2034 409 
Q 2525 409 2770 889 
Q 3016 1369 3016 2328 
Q 3016 3291 2770 3770 
Q 2525 4250 2034 4250 
z
M 2034 4750 
Q 2819 4750 3233 4129 
Q 3647 3509 3647 2328 
Q 3647 1150 3233 529 
Q 2819 -91 2034 -91 
Q 1250 -91 836 529 
Q 422 1150 422 2328 
Q 422 3509 836 4129 
Q 1250 4750 2034 4750 
z
" transform="scale(0.015625)"/>
       </defs>
       <use xlink:href="#DejaVuSans-30"/>
      </g>
     </g>
    </g>
    <g id="xtick_2">
     <g id="line2d_7">
      <path d="M 144.2304 298.944 
L 144.2304 6.912 
" clip-path="url(#p4515b4d705)" style="fill: none; stroke: #b0b0b0; stroke-width: 0.8; stroke-linecap: square"/>
     </g>
     <g id="line2d_8">
      <g>
       <use xlink:href="#mf3a1b70582" x="144.2304" y="298.944" style="stroke: #000000; stroke-width: 0.8"/>
      </g>
     </g>
     <g id="text_2">
      <!-- 2 -->
      <g transform="translate(138.822275 318.861344)scale(0.17 -0.17)">
       <defs>
        <path id="DejaVuSans-32" d="M 1228 531 
L 3431 531 
L 3431 0 
L 469 0 
L 469 531 
Q 828 903 1448 1529 
Q 2069 2156 2228 2338 
Q 2531 2678 2651 2914 
Q 2772 3150 2772 3378 
Q 2772 3750 2511 3984 
Q 2250 4219 1831 4219 
Q 1534 4219 1204 4116 
Q 875 4013 500 3803 
L 500 4441 
Q 881 4594 1212 4672 
Q 1544 4750 1819 4750 
Q 2544 4750 2975 4387 
Q 3406 4025 3406 3419 
Q 3406 3131 3298 2873 
Q 3191 2616 2906 2266 
Q 2828 2175 2409 1742 
Q 1991 1309 1228 531 
z
" transform="scale(0.015625)"/>
       </defs>
       <use xlink:href="#DejaVuSans-32"/>
      </g>
     </g>
    </g>
    <g id="xtick_3">
     <g id="line2d_9">
      <path d="M 230.8608 298.944 
L 230.8608 6.912 
" clip-path="url(#p4515b4d705)" style="fill: none; stroke: #b0b0b0; stroke-width: 0.8; stroke-linecap: square"/>
     </g>
     <g id="line2d_10">
      <g>
       <use xlink:href="#mf3a1b70582" x="230.8608" y="298.944" style="stroke: #000000; stroke-width: 0.8"/>
      </g>
     </g>
     <g id="text_3">
      <!-- 4 -->
      <g transform="translate(225.452675 318.861344)scale(0.17 -0.17)">
       <defs>
        <path id="DejaVuSans-34" d="M 2419 4116 
L 825 1625 
L 2419 1625 
L 2419 4116 
z
M 2253 4666 
L 3047 4666 
L 3047 1625 
L 3713 1625 
L 3713 1100 
L 3047 1100 
L 3047 0 
L 2419 0 
L 2419 1100 
L 313 1100 
L 313 1709 
L 2253 4666 
z
" transform="scale(0.015625)"/>
       </defs>
       <use xlink:href="#DejaVuSans-34"/>
      </g>
     </g>
    </g>
    <g id="xtick_4">
     <g id="line2d_11">
      <path d="M 317.4912 298.944 
L 317.4912 6.912 
" clip-path="url(#p4515b4d705)" style="fill: none; stroke: #b0b0b0; stroke-width: 0.8; stroke-linecap: square"/>
     </g>
     <g id="line2d_12">
      <g>
       <use xlink:href="#mf3a1b70582" x="317.4912" y="298.944" style="stroke: #000000; stroke-width: 0.8"/>
      </g>
     </g>
     <g id="text_4">
      <!-- 6 -->
      <g transform="translate(312.083075 318.861344)scale(0.17 -0.17)">
       <defs>
        <path id="DejaVuSans-36" d="M 2113 2584 
Q 1688 2584 1439 2293 
Q 1191 2003 1191 1497 
Q 1191 994 1439 701 
Q 1688 409 2113 409 
Q 2538 409 2786 701 
Q 3034 994 3034 1497 
Q 3034 2003 2786 2293 
Q 2538 2584 2113 2584 
z
M 3366 4563 
L 3366 3988 
Q 3128 4100 2886 4159 
Q 2644 4219 2406 4219 
Q 1781 4219 1451 3797 
Q 1122 3375 1075 2522 
Q 1259 2794 1537 2939 
Q 1816 3084 2150 3084 
Q 2853 3084 3261 2657 
Q 3669 2231 3669 1497 
Q 3669 778 3244 343 
Q 2819 -91 2113 -91 
Q 1303 -91 875 529 
Q 447 1150 447 2328 
Q 447 3434 972 4092 
Q 1497 4750 2381 4750 
Q 2619 4750 2861 4703 
Q 3103 4656 3366 4563 
z
" transform="scale(0.015625)"/>
       </defs>
       <use xlink:href="#DejaVuSans-36"/>
      </g>
     </g>
    </g>
    <g id="xtick_5">
     <g id="line2d_13">
      <path d="M 100.9152 298.944 
L 100.9152 6.912 
" clip-path="url(#p4515b4d705)" style="fill: none; stroke: #b0b0b0; stroke-width: 0.8; stroke-linecap: square"/>
     </g>
     <g id="line2d_14">
      <defs>
       <path id="m89b47fb8c5" d="M 0 0 
L 0 2 
" style="stroke: #000000; stroke-width: 0.6"/>
      </defs>
      <g>
       <use xlink:href="#m89b47fb8c5" x="100.9152" y="298.944" style="stroke: #000000; stroke-width: 0.6"/>
      </g>
     </g>
    </g>
    <g id="xtick_6">
     <g id="line2d_15">
      <path d="M 187.5456 298.944 
L 187.5456 6.912 
" clip-path="url(#p4515b4d705)" style="fill: none; stroke: #b0b0b0; stroke-width: 0.8; stroke-linecap: square"/>
     </g>
     <g id="line2d_16">
      <g>
       <use xlink:href="#m89b47fb8c5" x="187.5456" y="298.944" style="stroke: #000000; stroke-width: 0.6"/>
      </g>
     </g>
    </g>
    <g id="xtick_7">
     <g id="line2d_17">
      <path d="M 274.176 298.944 
L 274.176 6.912 
" clip-path="url(#p4515b4d705)" style="fill: none; stroke: #b0b0b0; stroke-width: 0.8; stroke-linecap: square"/>
     </g>
     <g id="line2d_18">
      <g>
       <use xlink:href="#m89b47fb8c5" x="274.176" y="298.944" style="stroke: #000000; stroke-width: 0.6"/>
      </g>
     </g>
    </g>
    <g id="xtick_8">
     <g id="line2d_19">
      <path d="M 360.8064 298.944 
L 360.8064 6.912 
" clip-path="url(#p4515b4d705)" style="fill: none; stroke: #b0b0b0; stroke-width: 0.8; stroke-linecap: square"/>
     </g>
     <g id="line2d_20">
      <g>
       <use xlink:href="#m89b47fb8c5" x="360.8064" y="298.944" style="stroke: #000000; stroke-width: 0.6"/>
      </g>
     </g>
    </g>
    <g id="text_5">
     <!-- log10(# f-evals / dimension) -->
     <g transform="translate(88.823278 339.314156)scale(0.17 -0.17)">
      <defs>
       <path id="DejaVuSans-6c" d="M 603 4863 
L 1178 4863 
L 1178 0 
L 603 0 
L 603 4863 
z
" transform="scale(0.015625)"/>
       <path id="DejaVuSans-6f" d="M 1959 3097 
Q 1497 3097 1228 2736 
Q 959 2375 959 1747 
Q 959 1119 1226 758 
Q 1494 397 1959 397 
Q 2419 397 2687 759 
Q 2956 1122 2956 1747 
Q 2956 2369 2687 2733 
Q 2419 3097 1959 3097 
z
M 1959 3584 
Q 2709 3584 3137 3096 
Q 3566 2609 3566 1747 
Q 3566 888 3137 398 
Q 2709 -91 1959 -91 
Q 1206 -91 779 398 
Q 353 888 353 1747 
Q 353 2609 779 3096 
Q 1206 3584 1959 3584 
z
" transform="scale(0.015625)"/>
       <path id="DejaVuSans-67" d="M 2906 1791 
Q 2906 2416 2648 2759 
Q 2391 3103 1925 3103 
Q 1463 3103 1205 2759 
Q 947 2416 947 1791 
Q 947 1169 1205 825 
Q 1463 481 1925 481 
Q 2391 481 2648 825 
Q 2906 1169 2906 1791 
z
M 3481 434 
Q 3481 -459 3084 -895 
Q 2688 -1331 1869 -1331 
Q 1566 -1331 1297 -1286 
Q 1028 -1241 775 -1147 
L 775 -588 
Q 1028 -725 1275 -790 
Q 1522 -856 1778 -856 
Q 2344 -856 2625 -561 
Q 2906 -266 2906 331 
L 2906 616 
Q 2728 306 2450 153 
Q 2172 0 1784 0 
Q 1141 0 747 490 
Q 353 981 353 1791 
Q 353 2603 747 3093 
Q 1141 3584 1784 3584 
Q 2172 3584 2450 3431 
Q 2728 3278 2906 2969 
L 2906 3500 
L 3481 3500 
L 3481 434 
z
" transform="scale(0.015625)"/>
       <path id="DejaVuSans-31" d="M 794 531 
L 1825 531 
L 1825 4091 
L 703 3866 
L 703 4441 
L 1819 4666 
L 2450 4666 
L 2450 531 
L 3481 531 
L 3481 0 
L 794 0 
L 794 531 
z
" transform="scale(0.015625)"/>
       <path id="DejaVuSans-28" d="M 1984 4856 
Q 1566 4138 1362 3434 
Q 1159 2731 1159 2009 
Q 1159 1288 1364 580 
Q 1569 -128 1984 -844 
L 1484 -844 
Q 1016 -109 783 600 
Q 550 1309 550 2009 
Q 550 2706 781 3412 
Q 1013 4119 1484 4856 
L 1984 4856 
z
" transform="scale(0.015625)"/>
       <path id="DejaVuSans-23" d="M 3272 2816 
L 2363 2816 
L 2100 1772 
L 3016 1772 
L 3272 2816 
z
M 2803 4594 
L 2478 3297 
L 3391 3297 
L 3719 4594 
L 4219 4594 
L 3897 3297 
L 4872 3297 
L 4872 2816 
L 3775 2816 
L 3519 1772 
L 4513 1772 
L 4513 1294 
L 3397 1294 
L 3072 0 
L 2572 0 
L 2894 1294 
L 1978 1294 
L 1656 0 
L 1153 0 
L 1478 1294 
L 494 1294 
L 494 1772 
L 1594 1772 
L 1856 2816 
L 850 2816 
L 850 3297 
L 1978 3297 
L 2297 4594 
L 2803 4594 
z
" transform="scale(0.015625)"/>
       <path id="DejaVuSans-20" transform="scale(0.015625)"/>
       <path id="DejaVuSans-66" d="M 2375 4863 
L 2375 4384 
L 1825 4384 
Q 1516 4384 1395 4259 
Q 1275 4134 1275 3809 
L 1275 3500 
L 2222 3500 
L 2222 3053 
L 1275 3053 
L 1275 0 
L 697 0 
L 697 3053 
L 147 3053 
L 147 3500 
L 697 3500 
L 697 3744 
Q 697 4328 969 4595 
Q 1241 4863 1831 4863 
L 2375 4863 
z
" transform="scale(0.015625)"/>
       <path id="DejaVuSans-2d" d="M 313 2009 
L 1997 2009 
L 1997 1497 
L 313 1497 
L 313 2009 
z
" transform="scale(0.015625)"/>
       <path id="DejaVuSans-65" d="M 3597 1894 
L 3597 1613 
L 953 1613 
Q 991 1019 1311 708 
Q 1631 397 2203 397 
Q 2534 397 2845 478 
Q 3156 559 3463 722 
L 3463 178 
Q 3153 47 2828 -22 
Q 2503 -91 2169 -91 
Q 1331 -91 842 396 
Q 353 884 353 1716 
Q 353 2575 817 3079 
Q 1281 3584 2069 3584 
Q 2775 3584 3186 3129 
Q 3597 2675 3597 1894 
z
M 3022 2063 
Q 3016 2534 2758 2815 
Q 2500 3097 2075 3097 
Q 1594 3097 1305 2825 
Q 1016 2553 972 2059 
L 3022 2063 
z
" transform="scale(0.015625)"/>
       <path id="DejaVuSans-76" d="M 191 3500 
L 800 3500 
L 1894 563 
L 2988 3500 
L 3597 3500 
L 2284 0 
L 1503 0 
L 191 3500 
z
" transform="scale(0.015625)"/>
       <path id="DejaVuSans-61" d="M 2194 1759 
Q 1497 1759 1228 1600 
Q 959 1441 959 1056 
Q 959 750 1161 570 
Q 1363 391 1709 391 
Q 2188 391 2477 730 
Q 2766 1069 2766 1631 
L 2766 1759 
L 2194 1759 
z
M 3341 1997 
L 3341 0 
L 2766 0 
L 2766 531 
Q 2569 213 2275 61 
Q 1981 -91 1556 -91 
Q 1019 -91 701 211 
Q 384 513 384 1019 
Q 384 1609 779 1909 
Q 1175 2209 1959 2209 
L 2766 2209 
L 2766 2266 
Q 2766 2663 2505 2880 
Q 2244 3097 1772 3097 
Q 1472 3097 1187 3025 
Q 903 2953 641 2809 
L 641 3341 
Q 956 3463 1253 3523 
Q 1550 3584 1831 3584 
Q 2591 3584 2966 3190 
Q 3341 2797 3341 1997 
z
" transform="scale(0.015625)"/>
       <path id="DejaVuSans-73" d="M 2834 3397 
L 2834 2853 
Q 2591 2978 2328 3040 
Q 2066 3103 1784 3103 
Q 1356 3103 1142 2972 
Q 928 2841 928 2578 
Q 928 2378 1081 2264 
Q 1234 2150 1697 2047 
L 1894 2003 
Q 2506 1872 2764 1633 
Q 3022 1394 3022 966 
Q 3022 478 2636 193 
Q 2250 -91 1575 -91 
Q 1294 -91 989 -36 
Q 684 19 347 128 
L 347 722 
Q 666 556 975 473 
Q 1284 391 1588 391 
Q 1994 391 2212 530 
Q 2431 669 2431 922 
Q 2431 1156 2273 1281 
Q 2116 1406 1581 1522 
L 1381 1569 
Q 847 1681 609 1914 
Q 372 2147 372 2553 
Q 372 3047 722 3315 
Q 1072 3584 1716 3584 
Q 2034 3584 2315 3537 
Q 2597 3491 2834 3397 
z
" transform="scale(0.015625)"/>
       <path id="DejaVuSans-2f" d="M 1625 4666 
L 2156 4666 
L 531 -594 
L 0 -594 
L 1625 4666 
z
" transform="scale(0.015625)"/>
       <path id="DejaVuSans-64" d="M 2906 2969 
L 2906 4863 
L 3481 4863 
L 3481 0 
L 2906 0 
L 2906 525 
Q 2725 213 2448 61 
Q 2172 -91 1784 -91 
Q 1150 -91 751 415 
Q 353 922 353 1747 
Q 353 2572 751 3078 
Q 1150 3584 1784 3584 
Q 2172 3584 2448 3432 
Q 2725 3281 2906 2969 
z
M 947 1747 
Q 947 1113 1208 752 
Q 1469 391 1925 391 
Q 2381 391 2643 752 
Q 2906 1113 2906 1747 
Q 2906 2381 2643 2742 
Q 2381 3103 1925 3103 
Q 1469 3103 1208 2742 
Q 947 2381 947 1747 
z
" transform="scale(0.015625)"/>
       <path id="DejaVuSans-69" d="M 603 3500 
L 1178 3500 
L 1178 0 
L 603 0 
L 603 3500 
z
M 603 4863 
L 1178 4863 
L 1178 4134 
L 603 4134 
L 603 4863 
z
" transform="scale(0.015625)"/>
       <path id="DejaVuSans-6d" d="M 3328 2828 
Q 3544 3216 3844 3400 
Q 4144 3584 4550 3584 
Q 5097 3584 5394 3201 
Q 5691 2819 5691 2113 
L 5691 0 
L 5113 0 
L 5113 2094 
Q 5113 2597 4934 2840 
Q 4756 3084 4391 3084 
Q 3944 3084 3684 2787 
Q 3425 2491 3425 1978 
L 3425 0 
L 2847 0 
L 2847 2094 
Q 2847 2600 2669 2842 
Q 2491 3084 2119 3084 
Q 1678 3084 1418 2786 
Q 1159 2488 1159 1978 
L 1159 0 
L 581 0 
L 581 3500 
L 1159 3500 
L 1159 2956 
Q 1356 3278 1631 3431 
Q 1906 3584 2284 3584 
Q 2666 3584 2933 3390 
Q 3200 3197 3328 2828 
z
" transform="scale(0.015625)"/>
       <path id="DejaVuSans-6e" d="M 3513 2113 
L 3513 0 
L 2938 0 
L 2938 2094 
Q 2938 2591 2744 2837 
Q 2550 3084 2163 3084 
Q 1697 3084 1428 2787 
Q 1159 2491 1159 1978 
L 1159 0 
L 581 0 
L 581 3500 
L 1159 3500 
L 1159 2956 
Q 1366 3272 1645 3428 
Q 1925 3584 2291 3584 
Q 2894 3584 3203 3211 
Q 3513 2838 3513 2113 
z
" transform="scale(0.015625)"/>
       <path id="DejaVuSans-29" d="M 513 4856 
L 1013 4856 
Q 1481 4119 1714 3412 
Q 1947 2706 1947 2009 
Q 1947 1309 1714 600 
Q 1481 -109 1013 -844 
L 513 -844 
Q 928 -128 1133 580 
Q 1338 1288 1338 2009 
Q 1338 2731 1133 3434 
Q 928 4138 513 4856 
z
" transform="scale(0.015625)"/>
      </defs>
      <use xlink:href="#DejaVuSans-6c"/>
      <use xlink:href="#DejaVuSans-6f" x="27.783203"/>
      <use xlink:href="#DejaVuSans-67" x="88.964844"/>
      <use xlink:href="#DejaVuSans-31" x="152.441406"/>
      <use xlink:href="#DejaVuSans-30" x="216.064453"/>
      <use xlink:href="#DejaVuSans-28" x="279.6875"/>
      <use xlink:href="#DejaVuSans-23" x="318.701172"/>
      <use xlink:href="#DejaVuSans-20" x="402.490234"/>
      <use xlink:href="#DejaVuSans-66" x="434.277344"/>
      <use xlink:href="#DejaVuSans-2d" x="463.982422"/>
      <use xlink:href="#DejaVuSans-65" x="500.066406"/>
      <use xlink:href="#DejaVuSans-76" x="561.589844"/>
      <use xlink:href="#DejaVuSans-61" x="620.769531"/>
      <use xlink:href="#DejaVuSans-6c" x="682.048828"/>
      <use xlink:href="#DejaVuSans-73" x="709.832031"/>
      <use xlink:href="#DejaVuSans-20" x="761.931641"/>
      <use xlink:href="#DejaVuSans-2f" x="793.71875"/>
      <use xlink:href="#DejaVuSans-20" x="827.410156"/>
      <use xlink:href="#DejaVuSans-64" x="859.197266"/>
      <use xlink:href="#DejaVuSans-69" x="922.673828"/>
      <use xlink:href="#DejaVuSans-6d" x="950.457031"/>
      <use xlink:href="#DejaVuSans-65" x="1047.869141"/>
      <use xlink:href="#DejaVuSans-6e" x="1109.392578"/>
      <use xlink:href="#DejaVuSans-73" x="1172.771484"/>
      <use xlink:href="#DejaVuSans-69" x="1224.871094"/>
      <use xlink:href="#DejaVuSans-6f" x="1252.654297"/>
      <use xlink:href="#DejaVuSans-6e" x="1313.835938"/>
      <use xlink:href="#DejaVuSans-29" x="1377.214844"/>
     </g>
    </g>
   </g>
   <g id="matplotlib.axis_2">
    <g id="ytick_1">
     <g id="line2d_21">
      <path d="M 57.6 298.944 
L 360.8064 298.944 
" clip-path="url(#p4515b4d705)" style="fill: none; stroke: #b0b0b0; stroke-width: 0.8; stroke-linecap: square"/>
     </g>
     <g id="line2d_22">
      <defs>
       <path id="m12c79f2446" d="M 0 0 
L -3.5 0 
" style="stroke: #000000; stroke-width: 0.8"/>
      </defs>
      <g>
       <use xlink:href="#m12c79f2446" x="57.6" y="298.944" style="stroke: #000000; stroke-width: 0.8"/>
      </g>
     </g>
     <g id="text_6">
      <!-- 0.0 -->
      <g transform="translate(25.155 305.02275)scale(0.16 -0.16)">
       <defs>
        <path id="DejaVuSans-2e" d="M 684 794 
L 1344 794 
L 1344 0 
L 684 0 
L 684 794 
z
" transform="scale(0.015625)"/>
       </defs>
       <use xlink:href="#DejaVuSans-30"/>
       <use xlink:href="#DejaVuSans-2e" x="63.623047"/>
       <use xlink:href="#DejaVuSans-30" x="95.410156"/>
      </g>
     </g>
    </g>
    <g id="ytick_2">
     <g id="line2d_23">
      <path d="M 57.6 240.5376 
L 360.8064 240.5376 
" clip-path="url(#p4515b4d705)" style="fill: none; stroke: #b0b0b0; stroke-width: 0.8; stroke-linecap: square"/>
     </g>
     <g id="line2d_24">
      <g>
       <use xlink:href="#m12c79f2446" x="57.6" y="240.5376" style="stroke: #000000; stroke-width: 0.8"/>
      </g>
     </g>
     <g id="text_7">
      <!-- 0.2 -->
      <g transform="translate(25.155 246.61635)scale(0.16 -0.16)">
       <use xlink:href="#DejaVuSans-30"/>
       <use xlink:href="#DejaVuSans-2e" x="63.623047"/>
       <use xlink:href="#DejaVuSans-32" x="95.410156"/>
      </g>
     </g>
    </g>
    <g id="ytick_3">
     <g id="line2d_25">
      <path d="M 57.6 182.1312 
L 360.8064 182.1312 
" clip-path="url(#p4515b4d705)" style="fill: none; stroke: #b0b0b0; stroke-width: 0.8; stroke-linecap: square"/>
     </g>
     <g id="line2d_26">
      <g>
       <use xlink:href="#m12c79f2446" x="57.6" y="182.1312" style="stroke: #000000; stroke-width: 0.8"/>
      </g>
     </g>
     <g id="text_8">
      <!-- 0.4 -->
      <g transform="translate(25.155 188.20995)scale(0.16 -0.16)">
       <use xlink:href="#DejaVuSans-30"/>
       <use xlink:href="#DejaVuSans-2e" x="63.623047"/>
       <use xlink:href="#DejaVuSans-34" x="95.410156"/>
      </g>
     </g>
    </g>
    <g id="ytick_4">
     <g id="line2d_27">
      <path d="M 57.6 123.7248 
L 360.8064 123.7248 
" clip-path="url(#p4515b4d705)" style="fill: none; stroke: #b0b0b0; stroke-width: 0.8; stroke-linecap: square"/>
     </g>
     <g id="line2d_28">
      <g>
       <use xlink:href="#m12c79f2446" x="57.6" y="123.7248" style="stroke: #000000; stroke-width: 0.8"/>
      </g>
     </g>
     <g id="text_9">
      <!-- 0.6 -->
      <g transform="translate(25.155 129.80355)scale(0.16 -0.16)">
       <use xlink:href="#DejaVuSans-30"/>
       <use xlink:href="#DejaVuSans-2e" x="63.623047"/>
       <use xlink:href="#DejaVuSans-36" x="95.410156"/>
      </g>
     </g>
    </g>
    <g id="ytick_5">
     <g id="line2d_29">
      <path d="M 57.6 65.3184 
L 360.8064 65.3184 
" clip-path="url(#p4515b4d705)" style="fill: none; stroke: #b0b0b0; stroke-width: 0.8; stroke-linecap: square"/>
     </g>
     <g id="line2d_30">
      <g>
       <use xlink:href="#m12c79f2446" x="57.6" y="65.3184" style="stroke: #000000; stroke-width: 0.8"/>
      </g>
     </g>
     <g id="text_10">
      <!-- 0.8 -->
      <g transform="translate(25.155 71.39715)scale(0.16 -0.16)">
       <defs>
        <path id="DejaVuSans-38" d="M 2034 2216 
Q 1584 2216 1326 1975 
Q 1069 1734 1069 1313 
Q 1069 891 1326 650 
Q 1584 409 2034 409 
Q 2484 409 2743 651 
Q 3003 894 3003 1313 
Q 3003 1734 2745 1975 
Q 2488 2216 2034 2216 
z
M 1403 2484 
Q 997 2584 770 2862 
Q 544 3141 544 3541 
Q 544 4100 942 4425 
Q 1341 4750 2034 4750 
Q 2731 4750 3128 4425 
Q 3525 4100 3525 3541 
Q 3525 3141 3298 2862 
Q 3072 2584 2669 2484 
Q 3125 2378 3379 2068 
Q 3634 1759 3634 1313 
Q 3634 634 3220 271 
Q 2806 -91 2034 -91 
Q 1263 -91 848 271 
Q 434 634 434 1313 
Q 434 1759 690 2068 
Q 947 2378 1403 2484 
z
M 1172 3481 
Q 1172 3119 1398 2916 
Q 1625 2713 2034 2713 
Q 2441 2713 2670 2916 
Q 2900 3119 2900 3481 
Q 2900 3844 2670 4047 
Q 2441 4250 2034 4250 
Q 1625 4250 1398 4047 
Q 1172 3844 1172 3481 
z
" transform="scale(0.015625)"/>
       </defs>
       <use xlink:href="#DejaVuSans-30"/>
       <use xlink:href="#DejaVuSans-2e" x="63.623047"/>
       <use xlink:href="#DejaVuSans-38" x="95.410156"/>
      </g>
     </g>
    </g>
    <g id="ytick_6">
     <g id="line2d_31">
      <path d="M 57.6 6.912 
L 360.8064 6.912 
" clip-path="url(#p4515b4d705)" style="fill: none; stroke: #b0b0b0; stroke-width: 0.8; stroke-linecap: square"/>
     </g>
     <g id="line2d_32">
      <g>
       <use xlink:href="#m12c79f2446" x="57.6" y="6.912" style="stroke: #000000; stroke-width: 0.8"/>
      </g>
     </g>
     <g id="text_11">
      <!-- 1.0 -->
      <g transform="translate(25.155 12.99075)scale(0.16 -0.16)">
       <use xlink:href="#DejaVuSans-31"/>
       <use xlink:href="#DejaVuSans-2e" x="63.623047"/>
       <use xlink:href="#DejaVuSans-30" x="95.410156"/>
      </g>
     </g>
    </g>
    <g id="text_12">
     <!-- Fraction of function,target pairs -->
     <g transform="translate(17.619531 287.313)rotate(-90)scale(0.17 -0.17)">
      <defs>
       <path id="DejaVuSans-46" d="M 628 4666 
L 3309 4666 
L 3309 4134 
L 1259 4134 
L 1259 2759 
L 3109 2759 
L 3109 2228 
L 1259 2228 
L 1259 0 
L 628 0 
L 628 4666 
z
" transform="scale(0.015625)"/>
       <path id="DejaVuSans-72" d="M 2631 2963 
Q 2534 3019 2420 3045 
Q 2306 3072 2169 3072 
Q 1681 3072 1420 2755 
Q 1159 2438 1159 1844 
L 1159 0 
L 581 0 
L 581 3500 
L 1159 3500 
L 1159 2956 
Q 1341 3275 1631 3429 
Q 1922 3584 2338 3584 
Q 2397 3584 2469 3576 
Q 2541 3569 2628 3553 
L 2631 2963 
z
" transform="scale(0.015625)"/>
       <path id="DejaVuSans-63" d="M 3122 3366 
L 3122 2828 
Q 2878 2963 2633 3030 
Q 2388 3097 2138 3097 
Q 1578 3097 1268 2742 
Q 959 2388 959 1747 
Q 959 1106 1268 751 
Q 1578 397 2138 397 
Q 2388 397 2633 464 
Q 2878 531 3122 666 
L 3122 134 
Q 2881 22 2623 -34 
Q 2366 -91 2075 -91 
Q 1284 -91 818 406 
Q 353 903 353 1747 
Q 353 2603 823 3093 
Q 1294 3584 2113 3584 
Q 2378 3584 2631 3529 
Q 2884 3475 3122 3366 
z
" transform="scale(0.015625)"/>
       <path id="DejaVuSans-74" d="M 1172 4494 
L 1172 3500 
L 2356 3500 
L 2356 3053 
L 1172 3053 
L 1172 1153 
Q 1172 725 1289 603 
Q 1406 481 1766 481 
L 2356 481 
L 2356 0 
L 1766 0 
Q 1100 0 847 248 
Q 594 497 594 1153 
L 594 3053 
L 172 3053 
L 172 3500 
L 594 3500 
L 594 4494 
L 1172 4494 
z
" transform="scale(0.015625)"/>
       <path id="DejaVuSans-75" d="M 544 1381 
L 544 3500 
L 1119 3500 
L 1119 1403 
Q 1119 906 1312 657 
Q 1506 409 1894 409 
Q 2359 409 2629 706 
Q 2900 1003 2900 1516 
L 2900 3500 
L 3475 3500 
L 3475 0 
L 2900 0 
L 2900 538 
Q 2691 219 2414 64 
Q 2138 -91 1772 -91 
Q 1169 -91 856 284 
Q 544 659 544 1381 
z
M 1991 3584 
L 1991 3584 
z
" transform="scale(0.015625)"/>
       <path id="DejaVuSans-2c" d="M 750 794 
L 1409 794 
L 1409 256 
L 897 -744 
L 494 -744 
L 750 256 
L 750 794 
z
" transform="scale(0.015625)"/>
       <path id="DejaVuSans-70" d="M 1159 525 
L 1159 -1331 
L 581 -1331 
L 581 3500 
L 1159 3500 
L 1159 2969 
Q 1341 3281 1617 3432 
Q 1894 3584 2278 3584 
Q 2916 3584 3314 3078 
Q 3713 2572 3713 1747 
Q 3713 922 3314 415 
Q 2916 -91 2278 -91 
Q 1894 -91 1617 61 
Q 1341 213 1159 525 
z
M 3116 1747 
Q 3116 2381 2855 2742 
Q 2594 3103 2138 3103 
Q 1681 3103 1420 2742 
Q 1159 2381 1159 1747 
Q 1159 1113 1420 752 
Q 1681 391 2138 391 
Q 2594 391 2855 752 
Q 3116 1113 3116 1747 
z
" transform="scale(0.015625)"/>
      </defs>
      <use xlink:href="#DejaVuSans-46"/>
      <use xlink:href="#DejaVuSans-72" x="50.269531"/>
      <use xlink:href="#DejaVuSans-61" x="91.382812"/>
      <use xlink:href="#DejaVuSans-63" x="152.662109"/>
      <use xlink:href="#DejaVuSans-74" x="207.642578"/>
      <use xlink:href="#DejaVuSans-69" x="246.851562"/>
      <use xlink:href="#DejaVuSans-6f" x="274.634766"/>
      <use xlink:href="#DejaVuSans-6e" x="335.816406"/>
      <use xlink:href="#DejaVuSans-20" x="399.195312"/>
      <use xlink:href="#DejaVuSans-6f" x="430.982422"/>
      <use xlink:href="#DejaVuSans-66" x="492.164062"/>
      <use xlink:href="#DejaVuSans-20" x="527.369141"/>
      <use xlink:href="#DejaVuSans-66" x="559.15625"/>
      <use xlink:href="#DejaVuSans-75" x="594.361328"/>
      <use xlink:href="#DejaVuSans-6e" x="657.740234"/>
      <use xlink:href="#DejaVuSans-63" x="721.119141"/>
      <use xlink:href="#DejaVuSans-74" x="776.099609"/>
      <use xlink:href="#DejaVuSans-69" x="815.308594"/>
      <use xlink:href="#DejaVuSans-6f" x="843.091797"/>
      <use xlink:href="#DejaVuSans-6e" x="904.273438"/>
      <use xlink:href="#DejaVuSans-2c" x="967.652344"/>
      <use xlink:href="#DejaVuSans-74" x="999.439453"/>
      <use xlink:href="#DejaVuSans-61" x="1038.648438"/>
      <use xlink:href="#DejaVuSans-72" x="1099.927734"/>
      <use xlink:href="#DejaVuSans-67" x="1139.291016"/>
      <use xlink:href="#DejaVuSans-65" x="1202.767578"/>
      <use xlink:href="#DejaVuSans-74" x="1264.291016"/>
      <use xlink:href="#DejaVuSans-20" x="1303.5"/>
      <use xlink:href="#DejaVuSans-70" x="1335.287109"/>
      <use xlink:href="#DejaVuSans-61" x="1398.763672"/>
      <use xlink:href="#DejaVuSans-69" x="1460.042969"/>
      <use xlink:href="#DejaVuSans-72" x="1487.826172"/>
      <use xlink:href="#DejaVuSans-73" x="1528.939453"/>
     </g>
    </g>
   </g>
   <g id="line2d_33">
    <defs>
     <path id="meee935d67b" d="M 0 1.5 
C 0.397805 1.5 0.77937 1.341951 1.06066 1.06066 
C 1.341951 0.77937 1.5 0.397805 1.5 0 
C 1.5 -0.397805 1.341951 -0.77937 1.06066 -1.06066 
C 0.77937 -1.341951 0.397805 -1.5 0 -1.5 
C -0.397805 -1.5 -0.77937 -1.341951 -1.06066 -1.06066 
C -1.341951 -0.77937 -1.5 -0.397805 -1.5 0 
C -1.5 0.397805 -1.341951 0.77937 -1.06066 1.06066 
C -0.77937 1.341951 -0.397805 1.5 0 1.5 
z
" style="stroke: #f5deb3"/>
    </defs>
    <g>
     <use xlink:href="#meee935d67b" x="234.848881" y="6.912" style="fill: #f5deb3; stroke: #f5deb3"/>
     <use xlink:href="#meee935d67b" x="234.848881" y="6.912" style="fill: #f5deb3; stroke: #f5deb3"/>
    </g>
   </g>
   <g id="line2d_34">
    <defs>
     <path id="m5b27841930" d="M 0 1.5 
C 0.397805 1.5 0.77937 1.341951 1.06066 1.06066 
C 1.341951 0.77937 1.5 0.397805 1.5 0 
C 1.5 -0.397805 1.341951 -0.77937 1.06066 -1.06066 
C 0.77937 -1.341951 0.397805 -1.5 0 -1.5 
C -0.397805 -1.5 -0.77937 -1.341951 -1.06066 -1.06066 
C -1.341951 -0.77937 -1.5 -0.397805 -1.5 0 
C -1.5 0.397805 -1.341951 0.77937 -1.06066 1.06066 
C -0.77937 1.341951 -0.397805 1.5 0 1.5 
z
" style="stroke: #000080"/>
    </defs>
    <g>
     <use xlink:href="#m5b27841930" x="360.463597" y="6.912" style="fill: #000080; stroke: #000080"/>
     <use xlink:href="#m5b27841930" x="360.463597" y="6.912" style="fill: #000080; stroke: #000080"/>
    </g>
   </g>
   <g id="line2d_35">
    <path d="M 44.560826 298.944 
L 44.560826 282.758174 
L 57.6 282.758174 
L 57.6 277.490146 
L 65.227428 277.490146 
L 65.227428 273.061948 
L 70.639174 273.061948 
L 70.639174 271.000546 
L 74.836851 271.000546 
L 74.836851 267.259482 
L 78.266603 267.259482 
L 78.266603 266.190607 
L 81.166416 266.190607 
L 81.166416 264.969035 
L 83.678349 264.969035 
L 83.678349 263.213026 
L 85.894031 263.213026 
L 85.894031 261.915106 
L 87.876026 261.915106 
L 87.876026 259.853704 
L 89.668958 259.853704 
L 89.668958 257.792301 
L 91.305777 257.792301 
L 91.305777 257.563256 
L 92.811505 257.563256 
L 92.811505 257.105167 
L 94.205591 257.105167 
L 94.205591 255.807247 
L 96.717523 255.807247 
L 96.717523 255.654551 
L 97.857967 255.654551 
L 97.857967 255.272809 
L 98.933205 255.272809 
L 98.933205 252.600621 
L 99.950294 252.600621 
L 99.950294 252.371576 
L 100.9152 252.371576 
L 100.9152 251.837139 
L 101.833019 251.837139 
L 101.833019 249.699388 
L 104.344952 249.62304 
L 104.344952 248.706861 
L 105.112877 248.706861 
L 105.112877 248.248772 
L 105.850679 248.248772 
L 105.850679 248.096075 
L 106.560633 248.096075 
L 106.560633 247.867031 
L 107.904887 247.790682 
L 107.904887 247.103548 
L 109.159456 247.103548 
L 109.159456 246.721807 
L 110.335561 246.721807 
L 110.335561 246.340066 
L 111.97238 246.263718 
L 111.97238 246.187369 
L 112.487797 246.187369 
L 112.487797 245.652932 
L 112.989468 245.652932 
L 112.989468 245.423887 
L 113.478107 245.423887 
L 113.478107 245.194842 
L 113.954374 245.194842 
L 113.954374 243.973271 
L 114.418881 243.973271 
L 114.418881 243.744226 
L 115.314838 243.744226 
L 115.314838 243.591529 
L 116.583514 243.515181 
L 116.583514 243.13344 
L 117.384126 243.13344 
L 117.384126 242.675351 
L 117.772007 242.675351 
L 117.772007 242.217261 
L 118.889854 242.140913 
L 118.889854 242.064565 
L 119.24818 242.064565 
L 119.24818 240.919341 
L 121.892744 240.842993 
L 121.892744 240.613948 
L 122.499621 240.613948 
L 122.499621 240.384904 
L 123.08753 240.308555 
L 123.08753 240.155859 
L 123.374735 240.155859 
L 123.374735 240.003162 
L 124.481616 239.926814 
L 124.481616 239.850466 
L 124.748451 239.850466 
L 124.748451 238.247153 
L 125.011554 238.247153 
L 125.011554 237.94176 
L 125.526971 237.94176 
L 125.526971 237.636367 
L 127.458055 237.560019 
L 127.458055 237.330974 
L 128.133992 237.330974 
L 128.133992 236.64384 
L 128.999044 236.567492 
L 128.999044 236.414795 
L 129.826058 236.338447 
L 129.826058 236.262099 
L 130.4233 236.185751 
L 130.4233 235.956706 
L 131.002163 235.956706 
L 131.002163 235.269572 
L 131.747272 235.193224 
L 131.747272 235.116875 
L 133.656071 235.040527 
L 133.656071 234.658786 
L 134.304809 234.582438 
L 134.304809 234.506089 
L 134.463557 234.506089 
L 134.463557 234.200696 
L 134.931919 234.124348 
L 134.931919 234.048 
L 135.981441 233.971652 
L 135.981441 233.208169 
L 136.836659 233.131821 
L 136.836659 233.055473 
L 137.113304 233.055473 
L 137.113304 232.902776 
L 137.919637 232.902776 
L 137.919637 232.673732 
L 139.435481 232.597384 
L 139.435481 232.521035 
L 139.914782 232.521035 
L 139.914782 232.368339 
L 141.610664 232.291991 
L 141.610664 230.917722 
L 142.865233 230.917722 
L 142.865233 230.765026 
L 143.166224 230.688678 
L 143.166224 230.001544 
L 144.136106 230.001544 
L 144.2304 229.467106 
L 144.694906 229.467106 
L 144.786447 227.940141 
L 145.415054 227.940141 
L 145.415054 225.420649 
L 145.590864 225.420649 
L 145.590864 225.267953 
L 146.446082 225.267953 
L 146.529503 224.122729 
L 147.816265 224.046381 
L 147.893838 223.817336 
L 149.093387 223.740988 
L 149.093387 223.66464 
L 149.381693 223.66464 
L 149.381693 223.435595 
L 149.665646 223.359247 
L 149.665646 223.130202 
L 150.425115 223.130202 
L 150.425115 222.443068 
L 150.8268 222.443068 
L 150.892922 221.908631 
L 151.220087 221.908631 
L 151.220087 221.297845 
L 151.54166 221.297845 
L 151.54166 221.0688 
L 151.795018 221.0688 
L 151.795018 220.916104 
L 152.715833 220.839755 
L 152.715833 220.763407 
L 152.953957 220.763407 
L 152.953957 220.610711 
L 153.305585 220.610711 
L 153.305585 220.381666 
L 154.595705 220.381666 
L 154.595705 219.999925 
L 155.13016 219.923576 
L 155.13016 219.847228 
L 155.28758 219.847228 
L 155.339761 219.618184 
L 156.155566 219.541835 
L 156.155566 219.465487 
L 156.599372 219.389139 
L 156.599372 218.931049 
L 157.175281 218.854701 
L 157.175281 218.702005 
L 157.779907 218.625656 
L 157.779907 218.549308 
L 158.007377 218.549308 
L 158.007377 218.396612 
L 158.58624 218.396612 
L 158.58624 218.167567 
L 159.14782 218.167567 
L 159.14782 217.556781 
L 160.223059 217.480433 
L 160.223059 217.404085 
L 160.4627 217.327736 
L 160.4627 216.182513 
L 160.97168 216.106165 
L 160.97168 215.953468 
L 161.839769 215.87712 
L 161.839769 215.495379 
L 162.05979 215.495379 
L 162.05979 215.266334 
L 162.205054 215.266334 
L 162.205054 215.037289 
L 162.38507 215.037289 
L 162.456597 213.433976 
L 162.527853 213.433976 
L 162.527853 212.670494 
L 162.880139 212.670494 
L 162.984551 211.525271 
L 163.191653 211.448922 
L 163.191653 211.296226 
L 163.3965 211.219878 
L 163.430425 209.921958 
L 163.531835 209.921958 
L 163.531835 209.005779 
L 163.997986 208.929431 
L 164.063646 208.0896 
L 164.259262 208.0896 
L 164.259262 207.936904 
L 164.548924 207.936904 
L 164.644495 206.333591 
L 164.70794 206.257242 
L 164.802709 203.432358 
L 164.834193 203.432358 
L 164.865624 202.516179 
L 164.990826 202.516179 
L 165.021997 201.905393 
L 165.300233 201.905393 
L 165.300233 201.6 
L 165.483464 201.6 
L 165.574415 200.760169 
L 165.604634 200.760169 
L 165.604634 199.920339 
L 165.755007 199.920339 
L 165.814821 197.935285 
L 165.993131 197.858936 
L 165.993131 197.70624 
L 166.111072 197.70624 
L 166.140442 197.324499 
L 166.315707 197.324499 
L 166.315707 196.790061 
L 166.431649 196.790061 
L 166.489353 195.721186 
L 166.546881 195.721186 
L 166.575579 194.957704 
L 166.689935 194.957704 
L 166.689935 193.048998 
L 166.83191 193.048998 
L 166.916583 192.056471 
L 166.944723 192.056471 
L 167.028891 191.063944 
L 167.140533 191.063944 
L 167.251516 189.842372 
L 167.279159 189.842372 
L 167.38933 188.773496 
L 167.471536 188.697148 
L 167.553385 187.704621 
L 167.607754 187.704621 
L 167.607754 187.475576 
L 167.769923 187.475576 
L 167.769923 187.246532 
L 167.930707 187.170184 
L 168.037137 186.101308 
L 168.090128 186.101308 
L 168.169334 185.719567 
L 168.221954 185.719567 
L 168.221954 185.261478 
L 168.352863 185.261478 
L 168.456938 183.734513 
L 168.482867 183.734513 
L 168.586228 183.047379 
L 168.740211 182.971031 
L 168.765753 182.818334 
L 168.867575 182.818334 
L 168.91828 181.749459 
L 169.019282 181.749459 
L 169.044448 181.291369 
L 169.269439 181.215021 
L 169.319074 180.451539 
L 169.516314 180.451539 
L 169.516314 179.993449 
L 169.832482 179.917101 
L 169.832482 179.764405 
L 170.190808 179.764405 
L 170.261661 179.229967 
L 170.332249 179.153619 
L 170.37916 178.924574 
L 170.6582 178.848226 
L 170.681267 178.695529 
L 170.773255 178.695529 
L 170.796182 178.23744 
L 170.978599 178.23744 
L 171.001277 177.855699 
L 171.136775 177.855699 
L 171.20416 176.634127 
L 171.248949 176.634127 
L 171.338209 175.107162 
L 171.404878 175.107162 
L 171.427048 174.878118 
L 171.603476 174.801769 
L 171.603476 174.572725 
L 171.82171 174.496376 
L 171.865055 174.34368 
L 171.951446 174.34368 
L 171.972982 173.427501 
L 172.101681 173.427501 
L 172.208263 172.969412 
L 172.250727 172.969412 
L 172.356469 171.976885 
L 172.649425 171.900536 
L 172.690906 171.289751 
L 172.91743 171.213402 
L 172.91743 170.908009 
L 173.141258 170.908009 
L 173.242125 170.44992 
L 173.60083 170.373572 
L 173.659955 169.839134 
L 174.010854 169.762786 
L 174.107176 168.846607 
L 174.145567 168.846607 
L 174.241203 167.701384 
L 174.544011 167.701384 
L 174.600249 167.472339 
L 174.970932 167.395991 
L 174.970932 167.243294 
L 175.135386 167.243294 
L 175.15357 166.861553 
L 175.316441 166.785205 
L 175.40632 166.098071 
L 175.51361 166.098071 
L 175.584799 165.716329 
L 176.127562 165.639981 
L 176.127562 165.563633 
L 176.282249 165.563633 
L 176.316452 164.113016 
L 176.671876 164.036668 
L 176.772205 163.196838 
L 177.03716 163.120489 
L 177.086427 162.967793 
L 177.330842 162.891445 
L 177.379346 162.586052 
L 177.54013 162.586052 
L 177.54013 162.204311 
L 177.778757 162.127962 
L 177.778757 162.051614 
L 177.983147 161.975266 
L 178.03 161.746221 
L 178.431246 161.669873 
L 178.537828 161.440828 
L 178.553005 161.440828 
L 178.628705 161.135435 
L 178.719145 161.135435 
L 178.764203 160.371953 
L 179.354881 160.295605 
L 179.354881 159.684819 
L 179.60041 159.608471 
L 179.60041 159.455774 
L 179.899351 159.455774 
L 179.983897 159.226729 
L 180.524377 159.150381 
L 180.633351 158.539595 
L 180.835991 158.463247 
L 180.903055 158.157854 
L 181.247987 158.081506 
L 181.247987 158.005158 
L 181.405079 158.005158 
L 181.405079 157.47072 
L 181.625402 157.394372 
L 181.625402 157.318024 
L 182.045861 157.318024 
L 182.133854 156.783586 
L 182.420108 156.707238 
L 182.481765 156.478193 
L 182.555488 156.401845 
L 182.665533 156.096452 
L 182.762814 156.096452 
L 182.799165 155.714711 
L 183.218147 155.638362 
L 183.277247 155.485666 
L 183.52346 155.485666 
L 183.52346 155.103925 
L 183.708911 155.103925 
L 183.789475 154.87488 
L 183.892552 154.87488 
L 183.915382 154.340442 
L 184.142166 154.264094 
L 184.142166 154.187746 
L 184.91505 154.111398 
L 184.91505 153.958701 
L 185.033667 153.958701 
L 185.140856 153.653308 
L 185.448293 153.57696 
L 185.500795 153.118871 
L 185.73008 153.042522 
L 185.833384 152.202692 
L 185.895095 152.202692 
L 185.925875 151.439209 
L 186.139934 151.362861 
L 186.200649 150.828424 
L 186.34156 150.752075 
L 186.34156 150.599379 
L 186.461507 150.599379 
L 186.461507 150.446682 
L 186.846134 150.370334 
L 186.846134 149.759548 
L 187.165556 149.6832 
L 187.270836 149.377807 
L 187.366036 149.301459 
L 187.366036 149.148762 
L 187.611325 149.148762 
L 187.611325 148.767021 
L 188.265306 148.690673 
L 188.292444 148.308932 
L 188.534946 148.308932 
L 188.61509 148.079887 
L 188.967211 148.079887 
L 188.967211 147.850842 
L 189.744553 147.850842 
L 189.744553 147.240056 
L 190.667153 147.163708 
L 190.667153 147.08736 
L 190.802117 147.08736 
L 190.802117 146.781967 
L 190.975352 146.781967 
L 190.975352 146.629271 
L 191.1858 146.552922 
L 191.239978 145.78944 
L 191.508555 145.78944 
L 191.577002 145.484047 
L 191.660323 145.484047 
L 191.743277 145.255002 
L 191.840843 145.178654 
L 191.848327 144.873261 
L 192.14528 144.796913 
L 192.204112 144.415172 
L 192.350392 144.415172 
L 192.379512 143.269948 
L 192.51722 143.269948 
L 192.51722 143.117252 
L 192.696893 143.040904 
L 192.696893 142.659162 
L 192.924397 142.582814 
L 193.016041 142.048376 
L 193.05117 142.048376 
L 193.05117 141.819332 
L 193.177094 141.819332 
L 193.177094 141.513939 
L 193.378214 141.437591 
L 193.378214 141.361242 
L 193.570381 141.361242 
L 193.570381 141.132198 
L 193.740315 141.132198 
L 193.740315 140.903153 
L 194.326558 140.826805 
L 194.326558 140.750456 
L 195.028251 140.674108 
L 195.040884 140.521412 
L 195.808051 140.445064 
L 195.814113 140.292367 
L 196.504304 140.216019 
L 196.574279 139.605233 
L 196.845868 139.528885 
L 196.845868 139.376188 
L 197.282509 139.29984 
L 197.371981 138.612706 
L 197.566231 138.536358 
L 197.582788 138.154616 
L 197.681825 138.154616 
L 197.681825 137.772875 
L 198.392592 137.696527 
L 198.392592 137.543831 
L 198.893151 137.543831 
L 198.893151 137.391134 
L 199.113112 137.391134 
L 199.16897 136.627652 
L 200.074713 136.551304 
L 200.175915 136.016866 
L 201.072208 135.940518 
L 201.072208 135.864169 
L 201.9671 135.787821 
L 201.9671 135.711473 
L 202.356318 135.635125 
L 202.356318 135.558776 
L 202.729256 135.482428 
L 202.729256 135.40608 
L 203.053744 135.329732 
L 203.107286 135.100687 
L 203.77393 135.024339 
L 203.861058 134.718946 
L 205.19918 134.642598 
L 205.294614 134.413553 
L 205.541947 134.337205 
L 205.541947 134.260856 
L 205.653631 134.260856 
L 205.653631 134.031812 
L 206.020021 133.955464 
L 206.069275 133.421026 
L 206.341355 133.344678 
L 206.341355 133.268329 
L 206.50342 133.191981 
L 206.50342 133.115633 
L 206.623207 133.115633 
L 206.653886 132.504847 
L 207.296735 132.428499 
L 207.359172 132.275802 
L 207.574462 132.199454 
L 207.574462 132.123106 
L 207.755219 132.123106 
L 207.822558 131.894061 
L 207.934257 131.894061 
L 207.934257 131.741365 
L 209.186669 131.665016 
L 209.293536 131.130579 
L 210.007985 131.054231 
L 210.007985 130.977882 
L 210.646771 130.977882 
L 210.646771 130.672489 
L 210.857692 130.672489 
L 210.936521 130.138052 
L 211.958035 130.061704 
L 212.068187 129.603614 
L 212.728221 129.527266 
L 212.745476 129.374569 
L 213.396845 129.298221 
L 213.453878 129.145525 
L 213.628651 129.145525 
L 213.628651 128.992828 
L 214.086161 128.91648 
L 214.086161 128.840132 
L 214.345918 128.840132 
L 214.397893 128.534739 
L 215.559563 128.458391 
L 215.559563 128.382042 
L 216.460503 128.305694 
L 216.460503 128.229346 
L 216.799206 128.229346 
L 216.799206 128.076649 
L 217.174801 128.000301 
L 217.174801 127.923953 
L 217.672424 127.847605 
L 217.780195 127.694908 
L 218.230993 127.61856 
L 218.230993 127.542212 
L 218.719727 127.465864 
L 218.719727 127.389515 
L 219.029228 127.313167 
L 219.133028 127.160471 
L 219.465184 127.084122 
L 219.465184 127.007774 
L 219.919892 126.931426 
L 219.953514 126.626033 
L 220.094074 126.549685 
L 220.094074 126.473336 
L 220.787968 126.396988 
L 220.787968 126.32064 
L 220.925641 126.32064 
L 220.925641 126.167944 
L 221.331157 126.091595 
L 221.331157 126.015247 
L 221.450971 126.015247 
L 221.450971 125.862551 
L 221.930301 125.786202 
L 221.930301 125.709854 
L 222.329751 125.633506 
L 222.437503 125.328113 
L 222.614757 125.251765 
L 222.614757 125.175416 
L 222.780243 125.175416 
L 222.780243 125.02272 
L 222.962902 125.02272 
L 222.962902 124.717327 
L 223.433586 124.640979 
L 223.433586 124.488282 
L 223.610039 124.488282 
L 223.6887 124.182889 
L 223.742331 124.106541 
L 223.742331 123.7248 
L 224.456404 123.648452 
L 224.456404 123.419407 
L 224.79444 123.343059 
L 224.896744 123.114014 
L 224.934159 123.037666 
L 224.934159 122.961318 
L 225.06773 122.884969 
L 225.06773 122.808621 
L 225.246052 122.808621 
L 225.324486 122.350532 
L 225.664772 122.274184 
L 225.664772 122.197835 
L 225.922123 122.121487 
L 225.929459 121.968791 
L 227.359051 121.892442 
L 227.359051 121.739746 
L 227.610033 121.739746 
L 227.617857 121.510701 
L 228.031242 121.434353 
L 228.07383 121.281656 
L 228.383234 121.205308 
L 228.383234 121.12896 
L 228.764544 121.052612 
L 228.797111 120.899915 
L 229.252348 120.823567 
L 229.289195 120.518174 
L 229.740803 120.441826 
L 229.740803 120.289129 
L 230.218842 120.212781 
L 230.23538 120.060085 
L 230.526769 119.983736 
L 230.614646 119.601995 
L 231.335398 119.525647 
L 231.352815 119.067558 
L 231.583221 118.991209 
L 231.63023 118.762165 
L 231.826036 118.685816 
L 231.826036 118.53312 
L 232.027782 118.456772 
L 232.027782 118.380424 
L 232.204632 118.380424 
L 232.268452 118.075031 
L 232.333796 118.075031 
L 232.333796 117.922334 
L 232.661426 117.922334 
L 232.741599 117.693289 
L 233.058079 117.616941 
L 233.063937 117.2352 
L 233.304181 117.2352 
L 233.412078 117.006155 
L 233.715142 116.929807 
L 233.719183 116.624414 
L 233.872077 116.624414 
L 233.921701 116.242673 
L 234.020559 116.242673 
L 234.020559 116.089976 
L 234.250534 116.013628 
L 234.314051 115.784584 
L 234.389834 115.784584 
L 234.491696 115.250146 
L 234.886888 115.173798 
L 234.96872 115.021101 
L 235.134322 114.944753 
L 235.134322 114.868405 
L 235.457534 114.792056 
L 235.528855 114.63936 
L 235.577229 114.63936 
L 235.577229 114.486664 
L 235.73976 114.410315 
L 235.73976 114.333967 
L 235.887223 114.257619 
L 235.89802 114.028574 
L 236.057101 113.952226 
L 236.160993 113.646833 
L 236.62569 113.570485 
L 236.655436 113.417788 
L 237.001981 113.34144 
L 237.098097 113.188744 
L 237.193724 113.112395 
L 237.254752 112.959699 
L 237.492935 112.883351 
L 237.593158 112.04352 
L 237.760105 112.04352 
L 237.768576 111.661779 
L 237.952054 111.585431 
L 238.042806 111.127341 
L 238.14462 111.127341 
L 238.217281 110.592904 
L 238.698987 110.516555 
L 238.794852 110.058466 
L 239.704649 109.982118 
L 239.704649 109.905769 
L 240.579202 109.829421 
L 240.579202 109.753073 
L 240.928856 109.676725 
L 240.929406 109.524028 
L 241.115186 109.524028 
L 241.162026 109.218635 
L 241.516595 109.218635 
L 241.528869 108.760546 
L 242.089633 108.684198 
L 242.089633 108.607849 
L 242.426786 108.607849 
L 242.491775 108.226108 
L 242.682393 108.14976 
L 242.786465 107.615322 
L 242.999313 107.538974 
L 242.999807 107.386278 
L 243.250229 107.309929 
L 243.346857 106.622795 
L 243.399574 106.546447 
L 243.438654 106.241054 
L 243.55445 106.164706 
L 243.653821 105.859313 
L 244.289084 105.782965 
L 244.341526 105.095831 
L 244.753186 105.019482 
L 244.753186 104.943134 
L 245.295404 104.866786 
L 245.388185 104.561393 
L 245.54224 104.485045 
L 245.620944 103.263473 
L 245.699746 103.187125 
L 245.799063 102.729035 
L 245.836013 102.652687 
L 245.926172 101.889205 
L 245.955707 101.889205 
L 246.009595 100.514936 
L 246.146148 100.438588 
L 246.21447 99.598758 
L 246.352852 99.522409 
L 246.458643 99.217016 
L 246.472184 99.217016 
L 246.538108 98.987972 
L 246.639206 98.911624 
L 246.730056 98.148141 
L 246.757145 98.148141 
L 246.794278 97.7664 
L 246.907244 97.7664 
L 247.014355 96.850221 
L 247.037456 96.850221 
L 247.146601 94.712471 
L 247.179418 94.636122 
L 247.254722 94.330729 
L 247.31012 94.254381 
L 247.418089 93.185506 
L 247.52389 93.109158 
L 247.596285 92.345675 
L 247.721062 92.269327 
L 247.800349 91.734889 
L 247.916188 91.658541 
L 248.003735 91.353148 
L 248.1911 91.2768 
L 248.227752 90.971407 
L 248.381065 90.971407 
L 248.432139 90.513318 
L 248.53277 90.436969 
L 248.53277 90.360621 
L 248.67852 90.284273 
L 248.67852 90.055228 
L 249.029797 89.97888 
L 249.029797 89.902532 
L 249.151139 89.902532 
L 249.253668 89.673487 
L 249.391149 89.597139 
L 249.501463 88.910005 
L 249.510888 88.910005 
L 249.617034 88.604612 
L 249.928852 88.528264 
L 249.997335 88.375567 
L 250.046245 88.299219 
L 250.140984 87.230344 
L 250.228532 87.153995 
L 250.30062 86.695906 
L 250.369099 86.619558 
L 250.47583 85.932424 
L 250.628386 85.856075 
L 250.647122 85.627031 
L 250.874087 85.550682 
L 250.970895 85.016245 
L 251.001549 85.016245 
L 251.068492 84.481807 
L 251.140639 84.481807 
L 251.235132 84.023718 
L 251.310768 83.947369 
L 251.31711 83.794673 
L 251.43941 83.718325 
L 251.539313 82.954842 
L 251.614049 82.878494 
L 251.718929 81.656922 
L 251.740331 81.580574 
L 251.776566 81.198833 
L 252.132697 81.122485 
L 252.150601 80.969788 
L 252.315182 80.969788 
L 252.315182 80.817092 
L 252.490851 80.817092 
L 252.580594 79.977261 
L 252.701161 79.900913 
L 252.765559 79.137431 
L 253.059159 79.061082 
L 253.14595 78.679341 
L 253.176419 78.679341 
L 253.253521 78.373948 
L 253.849244 78.2976 
L 253.849244 78.221252 
L 254.548295 78.144904 
L 254.63195 77.839511 
L 254.664353 77.839511 
L 254.728199 77.305073 
L 254.867849 77.228725 
L 254.867849 77.076028 
L 255.188518 76.99968 
L 255.249069 76.617939 
L 255.40534 76.541591 
L 255.489342 75.778108 
L 255.540323 75.778108 
L 255.619943 75.472715 
L 255.669314 75.472715 
L 255.752649 74.40384 
L 255.962358 74.40384 
L 255.962358 74.174795 
L 256.168039 74.098447 
L 256.217461 73.945751 
L 256.573256 73.869402 
L 256.646003 73.487661 
L 256.754599 73.487661 
L 256.754599 73.334965 
L 256.913972 73.334965 
L 257.014948 72.953224 
L 257.254639 72.876875 
L 257.32918 72.724179 
L 257.456574 72.647831 
L 257.548769 72.189741 
L 257.601282 72.113393 
L 257.645724 71.349911 
L 257.740604 71.273562 
L 257.740604 70.891821 
L 257.997972 70.815473 
L 258.06498 70.662776 
L 258.185523 70.662776 
L 258.185523 70.357384 
L 258.346365 70.281035 
L 258.350292 69.670249 
L 258.537188 69.593901 
L 258.556402 69.059464 
L 258.772867 69.059464 
L 258.772867 68.906767 
L 259.306798 68.830419 
L 259.306798 68.754071 
L 259.549058 68.677722 
L 259.549058 68.525026 
L 259.710472 68.525026 
L 259.797936 67.91424 
L 259.897858 67.91424 
L 259.897858 67.761544 
L 265.640805 67.685195 
L 265.640805 67.608847 
L 268.40838 67.532499 
L 268.40838 67.456151 
L 270.587147 67.379802 
L 270.587147 67.227106 
L 271.036702 67.150758 
L 271.110244 64.402221 
L 274.20861 64.402221 
L 274.317214 62.72256 
L 274.336994 62.646212 
L 274.433361 61.806381 
L 274.490519 61.730033 
L 274.51677 61.42464 
L 274.650781 61.348292 
L 274.757781 60.890202 
L 274.831685 60.813854 
L 274.927093 60.661158 
L 275.062889 60.584809 
L 275.137572 60.355765 
L 275.325471 60.279416 
L 275.325471 60.203068 
L 275.551595 60.12672 
L 275.551595 60.050372 
L 275.787728 59.974024 
L 275.787728 59.897675 
L 276.012576 59.821327 
L 276.101343 59.515934 
L 276.180226 59.439586 
L 276.268713 59.134193 
L 276.329543 59.057845 
L 276.414994 58.905148 
L 276.641258 58.8288 
L 276.737624 58.599755 
L 276.770019 58.599755 
L 276.845418 58.065318 
L 277.368093 58.065318 
L 277.458604 57.225487 
L 277.500426 57.149139 
L 277.564949 56.309308 
L 277.889613 56.309308 
L 277.966432 54.93504 
L 278.085393 54.858692 
L 278.113109 54.553299 
L 278.271516 54.476951 
L 278.352445 53.942513 
L 278.430702 53.866165 
L 278.537823 53.63712 
L 278.656942 53.560772 
L 278.754455 53.408075 
L 278.787756 53.331727 
L 278.856307 52.720941 
L 278.991426 52.644593 
L 279.063158 52.033807 
L 279.13151 51.957459 
L 279.169272 51.423021 
L 279.339949 51.346673 
L 279.388919 50.888584 
L 279.609344 50.812235 
L 279.609344 50.735887 
L 279.883201 50.659539 
L 279.936666 50.354146 
L 280.089838 50.277798 
L 280.170029 49.514315 
L 280.302178 49.437967 
L 280.302178 49.361619 
L 280.418022 49.361619 
L 280.506774 48.979878 
L 280.548179 48.979878 
L 280.654859 48.674485 
L 280.704982 48.674485 
L 280.738058 48.216395 
L 280.907963 48.140047 
L 280.981997 47.681958 
L 284.551548 47.605609 
L 284.603059 47.376565 
L 285.710936 47.376565 
L 285.71715 47.071172 
L 287.239942 46.994824 
L 287.285586 46.307689 
L 287.454063 46.307689 
L 287.508314 46.002296 
L 287.676056 45.925948 
L 287.676056 45.8496 
L 288.121344 45.773252 
L 288.205814 45.467859 
L 288.296123 45.391511 
L 288.321061 45.238814 
L 288.648686 45.162466 
L 288.648686 45.086118 
L 288.878847 45.009769 
L 288.985862 43.635501 
L 289.168474 43.559153 
L 289.205698 43.101064 
L 289.287806 43.024715 
L 289.345635 42.795671 
L 289.462558 42.719322 
L 289.49629 42.413929 
L 289.697956 42.337581 
L 289.784923 42.184885 
L 289.834046 42.108536 
L 289.865444 41.879492 
L 290.279513 41.803144 
L 290.294012 41.650447 
L 290.449925 41.650447 
L 290.449925 41.497751 
L 290.758354 41.421402 
L 290.815958 41.268706 
L 291.1715 41.192358 
L 291.1715 41.116009 
L 293.142093 41.039661 
L 293.142093 40.963313 
L 294.853479 40.886965 
L 294.927002 40.505224 
L 295.533499 40.428875 
L 295.587036 40.123482 
L 295.775136 40.123482 
L 295.775136 39.970786 
L 295.967902 39.970786 
L 296.03432 38.749214 
L 296.192739 38.672866 
L 296.192739 38.367473 
L 296.53256 38.291125 
L 296.53256 38.214776 
L 296.725189 38.138428 
L 296.725189 38.06208 
L 298.928533 37.985732 
L 298.928533 37.756687 
L 300.775617 37.680339 
L 300.815418 37.451294 
L 301.104571 37.374946 
L 301.155857 36.306071 
L 301.270559 36.229722 
L 301.319195 35.46624 
L 301.613697 35.389892 
L 301.613697 35.313544 
L 304.870318 35.237195 
L 304.870318 35.160847 
L 305.135286 35.084499 
L 305.18042 34.16832 
L 305.257843 34.091972 
L 305.308131 33.481186 
L 308.339721 33.404838 
L 308.353822 33.099445 
L 308.460731 33.023096 
L 308.568955 31.419784 
L 310.80666 31.343435 
L 310.80666 31.267087 
L 311.186579 31.190739 
L 311.294015 30.27456 
L 311.298866 30.198212 
L 311.397044 29.511078 
L 313.638022 29.434729 
L 313.745982 28.518551 
L 313.74931 28.518551 
L 313.811246 27.755068 
L 315.742727 27.67872 
L 315.815737 27.449675 
L 315.897014 27.373327 
L 315.970102 26.151755 
L 317.775605 26.075407 
L 317.853028 25.464621 
L 317.904294 25.464621 
L 317.906512 25.08288 
L 319.490099 25.006532 
L 319.490099 24.930184 
L 319.602132 24.930184 
L 319.678107 24.166701 
L 321.158253 24.090353 
L 321.267678 22.868781 
L 322.696012 22.792433 
L 322.74696 21.952602 
L 324.024349 21.876254 
L 324.118349 20.654682 
L 325.30887 20.578334 
L 325.396519 19.509459 
L 326.551899 19.433111 
L 326.59334 19.051369 
L 327.676678 18.975021 
L 327.718551 18.058842 
L 328.748971 17.982494 
L 328.780239 17.677101 
L 329.750164 17.600753 
L 329.79471 17.066315 
L 330.673114 16.989967 
L 330.739176 16.379181 
L 331.620557 16.302833 
L 331.647105 15.692047 
L 332.453115 15.615699 
L 332.513222 15.004913 
L 333.280056 14.928565 
L 333.340236 14.241431 
L 334.106543 14.241431 
L 334.133352 13.554296 
L 334.872943 13.477948 
L 334.902417 13.096207 
L 335.606234 13.019859 
L 335.626676 12.714466 
L 336.327253 12.638118 
L 336.330698 12.332725 
L 336.98936 12.256376 
L 337.008517 11.721939 
L 338.253164 11.645591 
L 338.278623 11.492894 
L 338.891363 11.416546 
L 338.892439 11.111153 
L 339.461212 11.111153 
L 339.485111 10.80576 
L 340.057333 10.729412 
L 340.060604 10.576715 
L 340.618912 10.500367 
L 340.635421 10.194974 
L 341.156752 10.118626 
L 341.176572 9.889581 
L 341.688762 9.813233 
L 341.701559 9.660536 
L 342.216125 9.584188 
L 342.216125 9.431492 
L 343.186289 9.355144 
L 343.186289 9.278795 
L 343.67424 9.202447 
L 343.67424 9.126099 
L 344.13565 9.049751 
L 344.1362 8.897054 
L 345.457679 8.820706 
L 345.457679 8.744358 
L 345.86757 8.668009 
L 345.86757 8.591661 
L 346.690403 8.515313 
L 346.690403 8.438965 
L 348.210785 8.362616 
L 348.210785 8.286268 
L 348.584028 8.20992 
L 348.585611 8.057224 
L 348.932864 7.980875 
L 348.932864 7.904527 
L 349.282084 7.828179 
L 349.282084 7.751831 
L 351.872637 7.675482 
L 351.872637 7.599134 
L 352.767199 7.522786 
L 352.767199 7.446438 
L 353.315554 7.370089 
L 353.315554 7.293741 
L 354.684962 7.217393 
L 354.684962 7.141045 
L 356.894182 7.064696 
L 356.894182 6.988348 
L 360.8064 6.912 
L 360.8064 6.912 
" style="fill: none; stroke: #000080; stroke-width: 1.5; stroke-linecap: square"/>
   </g>
   <g id="line2d_36">
    <defs>
     <path id="m853096ec64" d="M 0 6 
C 1.591219 6 3.117479 5.367802 4.242641 4.242641 
C 5.367802 3.117479 6 1.591219 6 0 
C 6 -1.591219 5.367802 -3.117479 4.242641 -4.242641 
C 3.117479 -5.367802 1.591219 -6 0 -6 
C -1.591219 -6 -3.117479 -5.367802 -4.242641 -4.242641 
C -5.367802 -3.117479 -6 -1.591219 -6 0 
C -6 1.591219 -5.367802 3.117479 -4.242641 4.242641 
C -3.117479 5.367802 -1.591219 6 0 6 
z
" style="stroke: #000080; stroke-width: 1.5"/>
    </defs>
    <g>
     <use xlink:href="#m853096ec64" x="81.166416" y="264.969035" style="fill-opacity: 0; stroke: #000080; stroke-width: 1.5"/>
     <use xlink:href="#m853096ec64" x="159.14782" y="218.167567" style="fill-opacity: 0; stroke: #000080; stroke-width: 1.5"/>
     <use xlink:href="#m853096ec64" x="220.05235" y="126.549685" style="fill-opacity: 0; stroke: #000080; stroke-width: 1.5"/>
     <use xlink:href="#m853096ec64" x="280.548179" y="48.827181" style="fill-opacity: 0; stroke: #000080; stroke-width: 1.5"/>
     <use xlink:href="#m853096ec64" x="360.463597" y="6.912" style="fill-opacity: 0; stroke: #000080; stroke-width: 1.5"/>
     <use xlink:href="#m853096ec64" x="360.8064" y="6.912" style="fill-opacity: 0; stroke: #000080; stroke-width: 1.5"/>
    </g>
   </g>
   <g id="line2d_37">
    <path style="fill: none; stroke: #000080; stroke-width: 1.5; stroke-linecap: square"/>
    <g/>
   </g>
   <g id="line2d_38">
    <path d="M 274.176 64.402221 
" clip-path="url(#p4515b4d705)" style="fill: none; stroke: #000080; stroke-width: 1.5; stroke-linecap: square"/>
    <defs>
     <path id="mab3d198d78" d="M -12 12 
L 12 -12 
M -12 -12 
L 12 12 
" style="stroke: #000080"/>
    </defs>
    <g clip-path="url(#p4515b4d705)">
     <use xlink:href="#mab3d198d78" x="274.176" y="64.402221" style="fill: #000080; stroke: #000080"/>
    </g>
   </g>
   <g id="line2d_39">
    <defs>
     <path id="m2c333d1020" d="M 0 1.5 
C 0.397805 1.5 0.77937 1.341951 1.06066 1.06066 
C 1.341951 0.77937 1.5 0.397805 1.5 0 
C 1.5 -0.397805 1.341951 -0.77937 1.06066 -1.06066 
C 0.77937 -1.341951 0.397805 -1.5 0 -1.5 
C -0.397805 -1.5 -0.77937 -1.341951 -1.06066 -1.06066 
C -1.341951 -0.77937 -1.5 -0.397805 -1.5 0 
C -1.5 0.397805 -1.341951 0.77937 -1.06066 1.06066 
C -0.77937 1.341951 -0.397805 1.5 0 1.5 
z
" style="stroke: #ff00ff"/>
    </defs>
    <g>
     <use xlink:href="#m2c333d1020" x="353.963974" y="75.625412" style="fill: #ff00ff; stroke: #ff00ff"/>
     <use xlink:href="#m2c333d1020" x="353.963974" y="75.625412" style="fill: #ff00ff; stroke: #ff00ff"/>
    </g>
   </g>
   <g id="line2d_40">
    <path d="M 44.560826 298.944 
L 44.560826 279.093459 
L 57.6 279.093459 
L 57.6 275.123351 
L 65.227428 275.123351 
L 65.227428 272.832904 
L 70.639174 272.832904 
L 70.639174 270.542456 
L 74.836851 270.542456 
L 74.836851 268.633751 
L 78.266603 268.633751 
L 78.266603 266.496 
L 81.166416 266.496 
L 81.166416 265.961562 
L 83.678349 265.961562 
L 83.678349 263.823812 
L 85.894031 263.823812 
L 85.894031 262.296847 
L 87.876026 262.296847 
L 87.876026 261.762409 
L 89.668958 261.762409 
L 89.668958 260.998927 
L 91.305777 260.998927 
L 91.305777 260.540838 
L 92.811505 260.540838 
L 92.811505 258.70848 
L 94.205591 258.70848 
L 94.205591 257.563256 
L 95.503454 257.563256 
L 95.503454 256.647078 
L 97.857967 256.570729 
L 97.857967 256.11264 
L 98.933205 256.11264 
L 98.933205 255.730899 
L 100.9152 255.730899 
L 100.9152 255.425506 
L 101.833019 255.425506 
L 101.833019 254.356631 
L 102.708132 254.356631 
L 102.708132 252.906014 
L 103.544339 252.906014 
L 103.544339 250.92096 
L 105.850679 250.844612 
L 105.850679 249.393995 
L 107.244765 249.393995 
L 107.244765 248.783209 
L 109.159456 248.783209 
L 109.159456 248.630513 
L 109.756698 248.630513 
L 109.756698 248.401468 
L 110.335561 248.401468 
L 110.335561 248.172424 
L 110.897141 248.172424 
L 110.897141 247.485289 
L 111.442442 247.485289 
L 111.442442 247.179896 
L 111.97238 247.179896 
L 111.97238 247.0272 
L 112.989468 247.0272 
L 112.989468 246.416414 
L 113.954374 246.340066 
L 113.954374 245.652932 
L 114.418881 245.652932 
L 114.418881 245.500235 
L 114.872193 245.500235 
L 114.872193 245.194842 
L 116.170056 245.194842 
L 116.170056 244.889449 
L 116.583514 244.889449 
L 116.583514 243.13344 
L 118.524569 243.057092 
L 118.524569 242.980744 
L 120.616896 242.904395 
L 120.616896 241.759172 
L 121.265635 241.682824 
L 121.265635 241.606475 
L 121.581803 241.606475 
L 121.581803 241.377431 
L 122.499621 241.377431 
L 122.499621 241.072038 
L 122.795872 241.072038 
L 122.795872 240.155859 
L 123.374735 240.155859 
L 123.374735 239.774118 
L 123.936316 239.774118 
L 123.936316 239.621421 
L 124.210942 239.621421 
L 124.210942 239.468725 
L 124.481616 239.468725 
L 124.481616 239.23968 
L 125.526971 239.23968 
L 125.526971 239.086984 
L 125.779479 239.086984 
L 125.779479 238.857939 
L 126.028642 238.857939 
L 126.028642 238.705242 
L 127.458055 238.628894 
L 127.458055 238.247153 
L 127.911368 238.170805 
L 127.911368 238.018108 
L 128.786481 238.018108 
L 128.786481 237.865412 
L 128.999044 237.865412 
L 128.999044 237.560019 
L 129.209231 237.560019 
L 129.209231 237.407322 
L 129.417095 237.407322 
L 129.417095 237.178278 
L 129.622688 237.178278 
L 129.622688 236.796536 
L 131.191226 236.720188 
L 131.191226 236.414795 
L 131.563744 236.338447 
L 131.563744 236.262099 
L 131.747272 236.262099 
L 131.747272 235.880358 
L 131.929028 235.880358 
L 131.929028 235.651313 
L 132.287354 235.651313 
L 132.287354 235.040527 
L 132.812362 235.040527 
L 132.812362 233.818955 
L 132.984158 233.818955 
L 132.984158 233.589911 
L 133.490329 233.589911 
L 133.490329 233.360866 
L 133.656071 233.360866 
L 133.656071 232.979125 
L 134.304809 232.902776 
L 134.304809 232.826428 
L 134.77709 232.826428 
L 134.77709 230.765026 
L 135.981441 230.765026 
L 135.981441 229.925195 
L 136.413909 229.925195 
L 136.413909 229.543454 
L 136.836659 229.467106 
L 136.836659 229.390758 
L 137.250116 229.390758 
L 137.250116 229.238061 
L 138.180913 229.161713 
L 138.180913 229.009016 
L 138.818654 229.009016 
L 138.818654 228.627275 
L 138.943648 228.627275 
L 138.943648 228.092838 
L 139.191172 228.092838 
L 139.191172 227.940141 
L 139.556456 227.940141 
L 139.556456 227.787445 
L 141.062184 227.711096 
L 141.062184 227.634748 
L 142.763822 227.634748 
L 142.763822 226.871266 
L 143.066428 226.871266 
L 143.066428 226.718569 
L 144.602918 226.642221 
L 144.694906 226.489525 
L 145.765046 226.489525 
L 145.851536 226.031435 
L 146.612557 225.955087 
L 146.612557 225.649694 
L 146.941151 225.649694 
L 147.022411 225.191605 
L 147.343984 225.191605 
L 147.343984 224.96256 
L 147.816265 224.96256 
L 147.893838 224.351774 
L 150.958812 224.275426 
L 150.958812 224.199078 
L 151.349377 224.122729 
L 151.349377 224.046381 
L 152.16877 223.970033 
L 152.16877 223.740988 
L 152.715833 223.740988 
L 152.715833 223.588292 
L 152.894708 223.588292 
L 152.894708 221.374193 
L 153.247435 221.374193 
L 153.247435 221.145148 
L 153.877408 221.0688 
L 153.877408 220.992452 
L 154.156931 220.992452 
L 154.212341 220.305318 
L 154.595705 220.305318 
L 154.649839 220.076273 
L 155.18278 219.999925 
L 155.235253 219.618184 
L 158.187393 219.541835 
L 158.276759 219.312791 
L 158.365703 219.312791 
L 158.365703 219.083746 
L 159.568678 219.007398 
L 159.568678 218.854701 
L 159.775628 218.854701 
L 159.775628 218.167567 
L 160.777545 218.091219 
L 160.777545 217.480433 
L 161.163832 217.404085 
L 161.163832 217.17504 
L 161.876619 217.17504 
L 161.876619 216.716951 
L 162.168843 216.640602 
L 162.277267 216.411558 
L 162.492258 216.411558 
L 162.492258 215.266334 
L 163.932096 215.189986 
L 163.96507 214.731896 
L 164.612692 214.655548 
L 164.612692 214.5792 
L 165.146166 214.502852 
L 165.146166 213.586673 
L 165.904188 213.510325 
L 165.904188 213.433976 
L 166.022686 213.433976 
L 166.022686 213.204932 
L 166.661411 213.204932 
L 166.661411 213.052235 
L 167.689013 213.052235 
L 167.689013 211.677967 
L 168.248209 211.601619 
L 168.248209 211.525271 
L 168.714635 211.525271 
L 168.714635 211.067181 
L 170.214455 211.067181 
L 170.261661 210.380047 
L 170.61198 210.380047 
L 170.681267 209.005779 
L 170.887612 209.005779 
L 170.887612 208.700386 
L 171.315934 208.700386 
L 171.315934 208.547689 
L 171.493403 208.547689 
L 171.515469 207.936904 
L 173.060174 207.860555 
L 173.060174 207.784207 
L 173.914037 207.707859 
L 173.914037 207.478814 
L 174.222115 207.478814 
L 174.241203 206.409939 
L 174.544011 206.333591 
L 174.581522 205.951849 
L 174.842022 205.951849 
L 174.95257 205.417412 
L 175.0442 205.417412 
L 175.0442 205.188367 
L 175.901855 205.112019 
L 175.901855 204.653929 
L 176.075715 204.653929 
L 176.075715 204.501233 
L 176.822169 204.424885 
L 176.822169 204.119492 
L 177.168252 204.043144 
L 177.168252 203.814099 
L 177.920494 203.737751 
L 177.951847 203.432358 
L 178.568169 203.356009 
L 178.583321 202.974268 
L 179.223586 202.974268 
L 179.296641 202.592527 
L 179.714853 202.592527 
L 179.75759 201.905393 
L 179.842775 201.905393 
L 179.842775 201.294607 
L 180.755196 201.218259 
L 180.755196 201.141911 
L 181.023172 201.141911 
L 181.023172 200.989214 
L 181.804928 200.912866 
L 181.804928 200.683821 
L 182.121308 200.683821 
L 182.121308 200.531125 
L 183.569995 200.454776 
L 183.569995 199.385901 
L 183.800956 199.385901 
L 183.800956 198.927812 
L 184.784791 198.851464 
L 184.784791 198.698767 
L 185.416721 198.698767 
L 185.437775 198.393374 
L 185.977062 198.393374 
L 185.977062 198.087981 
L 186.8266 198.087981 
L 186.8266 197.858936 
L 187.676822 197.858936 
L 187.676822 197.171802 
L 189.183987 197.095454 
L 189.261418 196.866409 
L 189.449364 196.866409 
L 189.449364 196.40832 
L 189.794695 196.40832 
L 189.794695 196.102927 
L 190.394284 196.026579 
L 190.450788 195.263096 
L 190.659184 195.263096 
L 190.691041 194.805007 
L 191.652764 194.728659 
L 191.652764 194.652311 
L 192.466603 194.575962 
L 192.466603 194.499614 
L 192.938525 194.499614 
L 192.938525 194.041525 
L 193.184065 194.041525 
L 193.274455 193.507087 
L 193.488264 193.507087 
L 193.488264 193.354391 
L 194.03572 193.354391 
L 194.03572 193.201694 
L 194.287162 193.201694 
L 194.287162 191.980122 
L 194.405103 191.980122 
L 194.405103 190.911247 
L 194.716045 190.911247 
L 194.748141 190.224113 
L 195.453106 190.147765 
L 195.514783 189.91872 
L 195.594663 189.91872 
L 195.649766 189.384282 
L 195.820172 189.384282 
L 195.820172 189.155238 
L 196.439931 189.078889 
L 196.439931 189.002541 
L 197.366401 188.926193 
L 197.366401 188.544452 
L 198.424271 188.468104 
L 198.44536 187.475576 
L 199.016237 187.475576 
L 199.102938 187.093835 
L 199.510643 187.093835 
L 199.510643 185.795915 
L 199.654489 185.795915 
L 199.689046 185.185129 
L 199.821748 185.108781 
L 199.821748 185.032433 
L 200.19513 185.032433 
L 200.19513 184.803388 
L 201.958358 184.72704 
L 201.958358 184.116254 
L 203.136053 184.039906 
L 203.136053 183.887209 
L 203.250683 183.887209 
L 203.315873 183.505468 
L 203.506075 183.505468 
L 203.542278 183.276424 
L 204.07322 183.200075 
L 204.096647 182.971031 
L 205.505778 182.894682 
L 205.560005 182.207548 
L 205.903409 182.1312 
L 205.991817 181.902155 
L 206.030586 181.902155 
L 206.030586 181.749459 
L 206.337891 181.673111 
L 206.337891 180.909628 
L 206.551426 180.909628 
L 206.582223 180.222494 
L 206.957959 180.222494 
L 206.957959 179.459012 
L 207.684414 179.459012 
L 207.684414 179.306315 
L 207.886467 179.306315 
L 207.886467 179.153619 
L 208.299786 179.153619 
L 208.334082 178.695529 
L 208.792585 178.619181 
L 208.792585 178.542833 
L 209.192622 178.542833 
L 209.213443 177.244913 
L 209.590157 177.244913 
L 209.691865 177.015868 
L 209.781493 177.015868 
L 209.781493 176.710475 
L 210.076256 176.710475 
L 210.149938 175.870645 
L 210.555647 175.794296 
L 210.555647 175.717948 
L 211.036619 175.717948 
L 211.144237 175.030814 
L 211.21386 175.030814 
L 211.243238 174.572725 
L 211.407973 174.572725 
L 211.415908 173.427501 
L 211.916883 173.351153 
L 211.916883 173.198456 
L 212.646662 173.198456 
L 212.646662 172.358626 
L 212.797146 172.358626 
L 212.797146 171.671492 
L 213.527292 171.595144 
L 213.633352 171.442447 
L 213.703729 171.366099 
L 213.766843 170.678965 
L 213.968783 170.602616 
L 213.968783 169.915482 
L 214.102215 169.915482 
L 214.102215 168.312169 
L 214.458724 168.312169 
L 214.458724 167.930428 
L 215.582886 167.930428 
L 215.618872 166.937901 
L 215.791495 166.937901 
L 215.83545 166.479812 
L 216.04336 166.403464 
L 216.04336 166.021722 
L 216.179333 166.021722 
L 216.183438 165.334588 
L 216.306176 165.334588 
L 216.306176 165.105544 
L 216.675656 165.029195 
L 216.675656 164.723802 
L 217.045861 164.723802 
L 217.083071 163.96032 
L 217.194261 163.96032 
L 217.194261 163.807624 
L 217.360787 163.807624 
L 217.403151 162.815096 
L 217.900469 162.738748 
L 217.900469 162.127962 
L 218.096143 162.127962 
L 218.144282 161.669873 
L 218.45968 161.669873 
L 218.45968 161.517176 
L 218.869777 161.440828 
L 218.869777 161.288132 
L 220.228627 161.211784 
L 220.250132 160.600998 
L 220.375368 160.600998 
L 220.375368 160.448301 
L 220.626605 160.448301 
L 220.701004 159.303078 
L 220.982974 159.303078 
L 220.990923 158.692292 
L 221.381042 158.692292 
L 221.381042 158.386899 
L 221.520641 158.386899 
L 221.566944 158.081506 
L 222.137817 158.005158 
L 222.210953 156.401845 
L 222.337151 156.401845 
L 222.437503 156.020104 
L 222.914175 155.943755 
L 222.914175 155.562014 
L 223.518546 155.485666 
L 223.625245 155.180273 
L 223.786222 155.103925 
L 223.786222 154.798532 
L 223.975696 154.798532 
L 224.051494 153.500612 
L 224.192799 153.500612 
L 224.254371 152.889826 
L 224.724189 152.813478 
L 224.724189 152.737129 
L 225.111192 152.660781 
L 225.157102 151.515558 
L 225.300484 151.439209 
L 225.30554 150.98112 
L 225.588991 150.98112 
L 225.588991 150.599379 
L 226.033084 150.523031 
L 226.033084 150.446682 
L 226.27828 150.370334 
L 226.377619 150.141289 
L 226.476436 150.064941 
L 226.534531 149.606852 
L 226.595988 149.606852 
L 226.595988 148.996066 
L 226.94436 148.996066 
L 226.94436 148.614325 
L 227.221453 148.537976 
L 227.26819 147.698146 
L 227.34545 147.698146 
L 227.442708 146.629271 
L 228.183677 146.552922 
L 228.183677 145.713092 
L 228.296121 145.713092 
L 228.296121 145.407699 
L 228.443225 145.407699 
L 228.511553 145.102306 
L 229.423688 145.025958 
L 229.423688 144.949609 
L 229.64974 144.873261 
L 229.669792 144.49152 
L 229.899853 144.49152 
L 229.899853 144.262475 
L 230.252875 144.186127 
L 230.343972 143.804386 
L 230.647019 143.728038 
L 230.720129 143.346296 
L 231.01909 143.346296 
L 231.102846 142.888207 
L 231.392175 142.811859 
L 231.487031 141.972028 
L 231.552421 141.89568 
L 231.571451 140.826805 
L 231.740958 140.826805 
L 231.829609 140.368715 
L 231.993274 140.368715 
L 232.068402 138.994447 
L 232.693878 138.918099 
L 232.706672 138.689054 
L 233.025412 138.689054 
L 233.110729 138.383661 
L 233.198153 138.383661 
L 233.198153 138.078268 
L 233.393179 138.00192 
L 233.393179 137.696527 
L 233.918504 137.620179 
L 233.991115 137.085741 
L 234.080893 137.085741 
L 234.190743 136.704 
L 234.433446 136.704 
L 234.459875 136.245911 
L 234.902069 136.169562 
L 234.902069 136.016866 
L 235.118577 135.940518 
L 235.22404 135.40608 
L 235.475205 135.40608 
L 235.475205 135.253384 
L 235.618906 135.253384 
L 235.618906 134.947991 
L 235.936839 134.947991 
L 236.007801 134.413553 
L 236.179434 134.413553 
L 236.179434 134.10816 
L 236.41614 134.031812 
L 236.499962 133.268329 
L 236.5466 133.268329 
L 236.571612 133.039285 
L 236.699622 133.039285 
L 236.774638 132.504847 
L 237.008088 132.504847 
L 237.008088 132.352151 
L 237.242026 132.352151 
L 237.242026 132.199454 
L 237.368231 132.199454 
L 237.384862 131.665016 
L 237.942374 131.665016 
L 238.004242 131.130579 
L 238.393304 131.054231 
L 238.43108 130.367096 
L 238.762127 130.367096 
L 238.762127 130.138052 
L 238.911089 130.061704 
L 238.911089 129.679962 
L 239.357612 129.679962 
L 239.450187 129.221873 
L 239.831769 129.221873 
L 239.831769 129.069176 
L 240.55506 128.992828 
L 240.626834 127.923953 
L 241.067136 127.923953 
L 241.067136 127.160471 
L 241.324513 127.084122 
L 241.324513 126.931426 
L 241.43796 126.931426 
L 241.43796 126.549685 
L 241.801616 126.473336 
L 241.813705 126.091595 
L 241.926338 126.091595 
L 242.003482 125.862551 
L 242.105161 125.862551 
L 242.155279 125.633506 
L 242.831319 125.557158 
L 242.831319 125.251765 
L 243.024458 125.251765 
L 243.050552 124.946372 
L 243.213195 124.946372 
L 243.213195 124.793675 
L 243.402955 124.717327 
L 243.448773 124.182889 
L 243.708062 124.182889 
L 243.773986 122.884969 
L 244.0368 122.884969 
L 244.038667 121.663398 
L 244.320383 121.663398 
L 244.418086 121.205308 
L 244.574816 121.205308 
L 244.674821 120.976264 
L 245.172299 120.899915 
L 245.201725 120.441826 
L 245.345554 120.441826 
L 245.393398 120.136433 
L 245.605057 120.136433 
L 245.68692 119.754692 
L 245.958236 119.678344 
L 245.958236 119.525647 
L 246.194916 119.449299 
L 246.194916 118.838513 
L 246.39697 118.762165 
L 246.39697 118.53312 
L 246.548324 118.53312 
L 246.548324 118.227727 
L 246.697255 118.227727 
L 246.697255 117.616941 
L 246.898424 117.540593 
L 246.898424 117.464245 
L 247.870166 117.387896 
L 247.870166 117.006155 
L 248.247545 117.006155 
L 248.313865 116.700762 
L 248.399586 116.624414 
L 248.399586 116.548066 
L 248.701488 116.548066 
L 248.701488 116.395369 
L 248.871595 116.395369 
L 248.925677 116.013628 
L 249.213291 115.93728 
L 249.280892 115.250146 
L 249.465113 115.250146 
L 249.521355 114.868405 
L 249.614951 114.792056 
L 249.630217 114.563012 
L 249.898107 114.563012 
L 249.898107 114.410315 
L 250.404078 114.410315 
L 250.497368 114.028574 
L 251.070419 114.028574 
L 251.070419 113.875878 
L 251.363342 113.799529 
L 251.363342 113.646833 
L 251.751178 113.570485 
L 251.751178 113.265092 
L 252.091666 113.265092 
L 252.091666 113.112395 
L 252.475952 113.036047 
L 252.475952 112.959699 
L 253.205405 112.883351 
L 253.205405 112.730654 
L 253.443913 112.654306 
L 253.484361 112.501609 
L 254.071562 112.501609 
L 254.071562 112.272565 
L 254.207999 112.196216 
L 254.301566 111.890824 
L 254.526387 111.890824 
L 254.526387 111.585431 
L 254.9467 111.509082 
L 254.9467 111.432734 
L 255.327367 111.432734 
L 255.39794 111.127341 
L 255.706509 111.050993 
L 255.720313 110.7456 
L 256.421354 110.669252 
L 256.466981 110.440207 
L 256.940795 110.363859 
L 256.940795 110.287511 
L 257.918676 110.211162 
L 257.918676 110.134814 
L 258.109888 110.058466 
L 258.109888 109.982118 
L 258.655826 109.905769 
L 258.655826 109.829421 
L 259.038677 109.829421 
L 259.038677 109.524028 
L 260.434821 109.44768 
L 260.457264 109.218635 
L 260.704689 109.218635 
L 260.723928 108.913242 
L 261.452454 108.836894 
L 261.465584 108.684198 
L 261.739387 108.684198 
L 261.793237 108.073412 
L 262.13759 107.997064 
L 262.13759 107.920715 
L 262.912306 107.920715 
L 262.912306 107.768019 
L 263.19163 107.768019 
L 263.19163 107.615322 
L 263.385253 107.615322 
L 263.402938 107.157233 
L 264.462197 107.080885 
L 264.462197 107.004536 
L 265.225229 106.928188 
L 265.229013 106.699144 
L 265.559789 106.622795 
L 265.559789 106.470099 
L 265.780059 106.393751 
L 265.780059 106.317402 
L 266.54923 106.241054 
L 266.54923 106.164706 
L 266.845137 106.088358 
L 266.845137 105.935661 
L 267.779535 105.859313 
L 267.814258 105.706616 
L 268.222272 105.630268 
L 268.294417 105.401224 
L 268.536896 105.324875 
L 268.553771 105.095831 
L 268.839225 105.019482 
L 268.839225 104.866786 
L 268.976252 104.790438 
L 268.976252 104.561393 
L 269.524231 104.485045 
L 269.524231 104.408696 
L 270.315883 104.332348 
L 270.315883 104.179652 
L 270.87564 104.103304 
L 270.87564 104.026955 
L 271.273709 104.026955 
L 271.273709 103.874259 
L 271.763986 103.874259 
L 271.867419 103.263473 
L 272.168383 103.187125 
L 272.168383 103.034428 
L 272.639844 102.95808 
L 272.639844 102.881732 
L 273.162517 102.881732 
L 273.162517 102.729035 
L 273.425507 102.729035 
L 273.42952 102.347294 
L 273.608347 102.347294 
L 273.608347 102.194598 
L 274.321881 102.118249 
L 274.412009 101.736508 
L 274.574781 101.66016 
L 274.644819 100.36224 
L 274.690268 100.36224 
L 274.690268 100.133195 
L 274.874692 100.056847 
L 274.94552 99.675106 
L 274.989169 99.675106 
L 275.044126 98.529882 
L 275.129974 98.453534 
L 275.218546 97.919096 
L 275.333609 97.842748 
L 275.434342 97.079266 
L 275.516942 97.002918 
L 275.62454 95.857694 
L 275.654388 95.781346 
L 275.726504 95.475953 
L 275.782547 95.475953 
L 275.856669 94.712471 
L 276.014708 94.636122 
L 276.089028 94.483426 
L 276.140021 94.407078 
L 276.249179 94.025336 
L 276.513437 93.948988 
L 276.557825 93.338202 
L 279.097003 93.261854 
L 279.097003 93.185506 
L 283.551501 93.109158 
L 283.551501 93.032809 
L 284.355528 92.956461 
L 284.355528 92.880113 
L 284.570557 92.880113 
L 284.570557 92.727416 
L 284.860599 92.727416 
L 284.860599 92.498372 
L 285.448123 92.498372 
L 285.448123 92.269327 
L 286.109747 92.192979 
L 286.158064 91.887586 
L 286.256653 91.887586 
L 286.29946 91.582193 
L 286.775049 91.505845 
L 286.775049 91.429496 
L 286.905016 91.353148 
L 286.905016 91.047755 
L 287.473231 90.971407 
L 287.531497 90.436969 
L 287.638572 90.360621 
L 287.711129 89.673487 
L 287.75496 89.597139 
L 287.800284 89.062701 
L 287.910377 88.986353 
L 288.009372 88.833656 
L 288.062227 88.757308 
L 288.129902 87.917478 
L 288.273865 87.841129 
L 288.277998 87.535736 
L 288.646464 87.459388 
L 288.646464 87.38304 
L 291.975326 87.306692 
L 291.975326 87.230344 
L 293.436092 87.153995 
L 293.436092 87.077647 
L 293.724502 87.077647 
L 293.724502 86.924951 
L 294.005509 86.924951 
L 294.005509 86.695906 
L 294.675664 86.695906 
L 294.675664 86.466861 
L 295.076228 86.390513 
L 295.076228 86.314165 
L 295.207558 86.314165 
L 295.272727 85.168941 
L 295.449202 85.092593 
L 295.494926 84.558155 
L 295.744768 84.558155 
L 295.845686 84.252762 
L 299.040781 84.176414 
L 299.040781 84.023718 
L 299.660165 84.023718 
L 299.660165 83.871021 
L 299.861703 83.871021 
L 299.861703 83.718325 
L 300.158614 83.641976 
L 300.158614 83.565628 
L 300.56142 83.48928 
L 300.650896 83.183887 
L 300.73956 83.107539 
L 300.84985 82.649449 
L 302.867512 82.573101 
L 302.867512 82.496753 
L 303.512053 82.496753 
L 303.512053 82.344056 
L 304.24922 82.267708 
L 304.24922 82.115012 
L 304.625139 82.038664 
L 304.721091 81.809619 
L 304.738848 81.809619 
L 304.848725 81.427878 
L 304.864025 81.427878 
L 304.864025 81.198833 
L 307.660305 81.122485 
L 307.660305 81.046136 
L 308.056817 81.046136 
L 308.125463 80.740744 
L 310.260273 80.664395 
L 310.260273 80.588047 
L 310.60874 80.511699 
L 310.670504 80.282654 
L 310.777008 80.206306 
L 310.777008 80.129958 
L 311.007127 80.053609 
L 311.019842 79.824565 
L 313.453888 79.748216 
L 313.516571 79.442824 
L 315.391884 79.366475 
L 315.391884 79.290127 
L 315.720418 79.213779 
L 315.790344 78.832038 
L 317.522955 78.832038 
L 317.522955 78.602993 
L 317.692941 78.602993 
L 317.755917 78.373948 
L 319.323587 78.2976 
L 319.323587 78.221252 
L 319.535402 78.144904 
L 319.535402 78.068555 
L 320.966819 78.068555 
L 320.966819 77.915859 
L 322.60873 77.839511 
L 322.657243 77.686814 
L 323.991749 77.610466 
L 324.043188 77.457769 
L 325.285969 77.381421 
L 325.333993 76.99968 
L 327.634481 76.923332 
L 327.634481 76.770635 
L 329.760014 76.694287 
L 329.760014 76.617939 
L 331.578014 76.541591 
L 331.578014 76.465242 
L 333.188261 76.388894 
L 333.239086 76.236198 
L 334.874981 76.159849 
L 334.874981 76.083501 
L 337.665849 76.007153 
L 337.665849 75.930805 
L 340.041436 75.854456 
L 340.041436 75.778108 
L 353.963974 75.70176 
L 353.963974 75.625412 
L 360.8064 75.625412 
L 360.8064 75.625412 
" style="fill: none; stroke: #ff00ff; stroke-width: 1.5; stroke-linecap: square"/>
   </g>
   <g id="line2d_41">
    <defs>
     <path id="me62411ec43" d="M 0 8.485281 
L 5.091169 0 
L 0 -8.485281 
L -5.091169 0 
z
" style="stroke: #ff00ff; stroke-width: 1.5; stroke-linejoin: miter"/>
    </defs>
    <g>
     <use xlink:href="#me62411ec43" x="92.811505" y="260.540838" style="fill-opacity: 0; stroke: #ff00ff; stroke-width: 1.5; stroke-linejoin: miter"/>
     <use xlink:href="#me62411ec43" x="162.492258" y="216.411558" style="fill-opacity: 0; stroke: #ff00ff; stroke-width: 1.5; stroke-linejoin: miter"/>
     <use xlink:href="#me62411ec43" x="222.909869" y="156.020104" style="fill-opacity: 0; stroke: #ff00ff; stroke-width: 1.5; stroke-linejoin: miter"/>
     <use xlink:href="#me62411ec43" x="288.646464" y="87.459388" style="fill-opacity: 0; stroke: #ff00ff; stroke-width: 1.5; stroke-linejoin: miter"/>
     <use xlink:href="#me62411ec43" x="353.963974" y="75.625412" style="fill-opacity: 0; stroke: #ff00ff; stroke-width: 1.5; stroke-linejoin: miter"/>
     <use xlink:href="#me62411ec43" x="360.8064" y="75.625412" style="fill-opacity: 0; stroke: #ff00ff; stroke-width: 1.5; stroke-linejoin: miter"/>
    </g>
   </g>
   <g id="line2d_42">
    <path style="fill: none; stroke: #ff00ff; stroke-width: 1.5; stroke-linecap: square"/>
    <g/>
   </g>
   <g id="line2d_43">
    <path d="M 274.292272 102.194598 
" clip-path="url(#p4515b4d705)" style="fill: none; stroke: #ff00ff; stroke-width: 1.5; stroke-linecap: square"/>
    <defs>
     <path id="ma8840ab092" d="M -12 12 
L 12 -12 
M -12 -12 
L 12 12 
" style="stroke: #ff00ff"/>
    </defs>
    <g clip-path="url(#p4515b4d705)">
     <use xlink:href="#ma8840ab092" x="274.292272" y="102.194598" style="fill: #ff00ff; stroke: #ff00ff"/>
    </g>
   </g>
   <g id="line2d_44">
    <path d="M 360.8064 75.625412 
L 380.514816 293.10336 
" style="fill: none; stroke: #ff00ff; stroke-width: 1.5; stroke-linecap: square"/>
    <g>
     <use xlink:href="#me62411ec43" x="360.8064" y="75.625412" style="fill-opacity: 0; stroke: #ff00ff; stroke-width: 1.5; stroke-linejoin: miter"/>
     <use xlink:href="#me62411ec43" x="380.514816" y="293.10336" style="fill-opacity: 0; stroke: #ff00ff; stroke-width: 1.5; stroke-linejoin: miter"/>
    </g>
   </g>
   <g id="line2d_45">
    <path d="M 360.8064 6.912 
L 380.514816 152.928 
" style="fill: none; stroke: #000080; stroke-width: 1.5; stroke-linecap: square"/>
    <g>
     <use xlink:href="#m853096ec64" x="360.8064" y="6.912" style="fill-opacity: 0; stroke: #000080; stroke-width: 1.5"/>
     <use xlink:href="#m853096ec64" x="380.514816" y="152.928" style="fill-opacity: 0; stroke: #000080; stroke-width: 1.5"/>
    </g>
   </g>
   <g id="line2d_46">
    <path d="M 360.8064 298.944 
L 360.8064 6.912 
" style="fill: none; stroke: #000000; stroke-width: 1.5; stroke-linecap: square"/>
   </g>
   <g id="patch_3">
    <path d="M 57.6 298.944 
L 360.8064 298.944 
" style="fill: none; stroke: #000000; stroke-width: 0.8; stroke-linejoin: miter; stroke-linecap: square"/>
   </g>
   <g id="patch_4">
    <path d="M 57.6 6.912 
L 360.8064 6.912 
" style="fill: none; stroke: #000000; stroke-width: 0.8; stroke-linejoin: miter; stroke-linecap: square"/>
   </g>
   <g id="text_13">
    <!-- GA -->
    <g transform="translate(386.578944 296.966485)scale(0.14 -0.14)">
     <defs>
      <path id="DejaVuSans-47" d="M 3809 666 
L 3809 1919 
L 2778 1919 
L 2778 2438 
L 4434 2438 
L 4434 434 
Q 4069 175 3628 42 
Q 3188 -91 2688 -91 
Q 1594 -91 976 548 
Q 359 1188 359 2328 
Q 359 3472 976 4111 
Q 1594 4750 2688 4750 
Q 3144 4750 3555 4637 
Q 3966 4525 4313 4306 
L 4313 3634 
Q 3963 3931 3569 4081 
Q 3175 4231 2741 4231 
Q 1884 4231 1454 3753 
Q 1025 3275 1025 2328 
Q 1025 1384 1454 906 
Q 1884 428 2741 428 
Q 3075 428 3337 486 
Q 3600 544 3809 666 
z
" transform="scale(0.015625)"/>
      <path id="DejaVuSans-41" d="M 2188 4044 
L 1331 1722 
L 3047 1722 
L 2188 4044 
z
M 1831 4666 
L 2547 4666 
L 4325 0 
L 3669 0 
L 3244 1197 
L 1141 1197 
L 716 0 
L 50 0 
L 1831 4666 
z
" transform="scale(0.015625)"/>
     </defs>
     <use xlink:href="#DejaVuSans-47"/>
     <use xlink:href="#DejaVuSans-41" x="77.490234"/>
    </g>
   </g>
   <g id="text_14">
    <!-- LCGA -->
    <g transform="translate(386.578944 156.791125)scale(0.14 -0.14)">
     <defs>
      <path id="DejaVuSans-4c" d="M 628 4666 
L 1259 4666 
L 1259 531 
L 3531 531 
L 3531 0 
L 628 0 
L 628 4666 
z
" transform="scale(0.015625)"/>
      <path id="DejaVuSans-43" d="M 4122 4306 
L 4122 3641 
Q 3803 3938 3442 4084 
Q 3081 4231 2675 4231 
Q 1875 4231 1450 3742 
Q 1025 3253 1025 2328 
Q 1025 1406 1450 917 
Q 1875 428 2675 428 
Q 3081 428 3442 575 
Q 3803 722 4122 1019 
L 4122 359 
Q 3791 134 3420 21 
Q 3050 -91 2638 -91 
Q 1578 -91 968 557 
Q 359 1206 359 2328 
Q 359 3453 968 4101 
Q 1578 4750 2638 4750 
Q 3056 4750 3426 4639 
Q 3797 4528 4122 4306 
z
" transform="scale(0.015625)"/>
     </defs>
     <use xlink:href="#DejaVuSans-4c"/>
     <use xlink:href="#DejaVuSans-43" x="55.712891"/>
     <use xlink:href="#DejaVuSans-47" x="125.537109"/>
     <use xlink:href="#DejaVuSans-41" x="203.027344"/>
    </g>
   </g>
   <g id="text_15">
    <!-- best 2009 -->
    <g transform="translate(386.578944 16.615765)scale(0.14 -0.14)">
     <defs>
      <path id="DejaVuSans-62" d="M 3116 1747 
Q 3116 2381 2855 2742 
Q 2594 3103 2138 3103 
Q 1681 3103 1420 2742 
Q 1159 2381 1159 1747 
Q 1159 1113 1420 752 
Q 1681 391 2138 391 
Q 2594 391 2855 752 
Q 3116 1113 3116 1747 
z
M 1159 2969 
Q 1341 3281 1617 3432 
Q 1894 3584 2278 3584 
Q 2916 3584 3314 3078 
Q 3713 2572 3713 1747 
Q 3713 922 3314 415 
Q 2916 -91 2278 -91 
Q 1894 -91 1617 61 
Q 1341 213 1159 525 
L 1159 0 
L 581 0 
L 581 4863 
L 1159 4863 
L 1159 2969 
z
" transform="scale(0.015625)"/>
      <path id="DejaVuSans-39" d="M 703 97 
L 703 672 
Q 941 559 1184 500 
Q 1428 441 1663 441 
Q 2288 441 2617 861 
Q 2947 1281 2994 2138 
Q 2813 1869 2534 1725 
Q 2256 1581 1919 1581 
Q 1219 1581 811 2004 
Q 403 2428 403 3163 
Q 403 3881 828 4315 
Q 1253 4750 1959 4750 
Q 2769 4750 3195 4129 
Q 3622 3509 3622 2328 
Q 3622 1225 3098 567 
Q 2575 -91 1691 -91 
Q 1453 -91 1209 -44 
Q 966 3 703 97 
z
M 1959 2075 
Q 2384 2075 2632 2365 
Q 2881 2656 2881 3163 
Q 2881 3666 2632 3958 
Q 2384 4250 1959 4250 
Q 1534 4250 1286 3958 
Q 1038 3666 1038 3163 
Q 1038 2656 1286 2365 
Q 1534 2075 1959 2075 
z
" transform="scale(0.015625)"/>
     </defs>
     <use xlink:href="#DejaVuSans-62"/>
     <use xlink:href="#DejaVuSans-65" x="63.476562"/>
     <use xlink:href="#DejaVuSans-73" x="125"/>
     <use xlink:href="#DejaVuSans-74" x="177.099609"/>
     <use xlink:href="#DejaVuSans-20" x="216.308594"/>
     <use xlink:href="#DejaVuSans-32" x="248.095703"/>
     <use xlink:href="#DejaVuSans-30" x="311.71875"/>
     <use xlink:href="#DejaVuSans-30" x="375.341797"/>
     <use xlink:href="#DejaVuSans-39" x="438.964844"/>
    </g>
   </g>
   <g id="text_16">
    <!-- bbob f20-f24, 2-D -->
    <g transform="translate(60.632064 17.582726)scale(0.102 -0.102)">
     <defs>
      <path id="DejaVuSans-44" d="M 1259 4147 
L 1259 519 
L 2022 519 
Q 2988 519 3436 956 
Q 3884 1394 3884 2338 
Q 3884 3275 3436 3711 
Q 2988 4147 2022 4147 
L 1259 4147 
z
M 628 4666 
L 1925 4666 
Q 3281 4666 3915 4102 
Q 4550 3538 4550 2338 
Q 4550 1131 3912 565 
Q 3275 0 1925 0 
L 628 0 
L 628 4666 
z
" transform="scale(0.015625)"/>
     </defs>
     <use xlink:href="#DejaVuSans-62"/>
     <use xlink:href="#DejaVuSans-62" x="63.476562"/>
     <use xlink:href="#DejaVuSans-6f" x="126.953125"/>
     <use xlink:href="#DejaVuSans-62" x="188.134766"/>
     <use xlink:href="#DejaVuSans-20" x="251.611328"/>
     <use xlink:href="#DejaVuSans-66" x="283.398438"/>
     <use xlink:href="#DejaVuSans-32" x="318.603516"/>
     <use xlink:href="#DejaVuSans-30" x="382.226562"/>
     <use xlink:href="#DejaVuSans-2d" x="445.849609"/>
     <use xlink:href="#DejaVuSans-66" x="481.933594"/>
     <use xlink:href="#DejaVuSans-32" x="517.138672"/>
     <use xlink:href="#DejaVuSans-34" x="580.761719"/>
     <use xlink:href="#DejaVuSans-2c" x="644.384766"/>
     <use xlink:href="#DejaVuSans-20" x="676.171875"/>
     <use xlink:href="#DejaVuSans-32" x="707.958984"/>
     <use xlink:href="#DejaVuSans-2d" x="771.582031"/>
     <use xlink:href="#DejaVuSans-44" x="807.666016"/>
    </g>
    <!-- 51 targets: 100..1e-08 -->
    <g transform="translate(60.632064 29.004495)scale(0.102 -0.102)">
     <defs>
      <path id="DejaVuSans-35" d="M 691 4666 
L 3169 4666 
L 3169 4134 
L 1269 4134 
L 1269 2991 
Q 1406 3038 1543 3061 
Q 1681 3084 1819 3084 
Q 2600 3084 3056 2656 
Q 3513 2228 3513 1497 
Q 3513 744 3044 326 
Q 2575 -91 1722 -91 
Q 1428 -91 1123 -41 
Q 819 9 494 109 
L 494 744 
Q 775 591 1075 516 
Q 1375 441 1709 441 
Q 2250 441 2565 725 
Q 2881 1009 2881 1497 
Q 2881 1984 2565 2268 
Q 2250 2553 1709 2553 
Q 1456 2553 1204 2497 
Q 953 2441 691 2322 
L 691 4666 
z
" transform="scale(0.015625)"/>
      <path id="DejaVuSans-3a" d="M 750 794 
L 1409 794 
L 1409 0 
L 750 0 
L 750 794 
z
M 750 3309 
L 1409 3309 
L 1409 2516 
L 750 2516 
L 750 3309 
z
" transform="scale(0.015625)"/>
     </defs>
     <use xlink:href="#DejaVuSans-35"/>
     <use xlink:href="#DejaVuSans-31" x="63.623047"/>
     <use xlink:href="#DejaVuSans-20" x="127.246094"/>
     <use xlink:href="#DejaVuSans-74" x="159.033203"/>
     <use xlink:href="#DejaVuSans-61" x="198.242188"/>
     <use xlink:href="#DejaVuSans-72" x="259.521484"/>
     <use xlink:href="#DejaVuSans-67" x="298.884766"/>
     <use xlink:href="#DejaVuSans-65" x="362.361328"/>
     <use xlink:href="#DejaVuSans-74" x="423.884766"/>
     <use xlink:href="#DejaVuSans-73" x="463.09375"/>
     <use xlink:href="#DejaVuSans-3a" x="515.193359"/>
     <use xlink:href="#DejaVuSans-20" x="548.884766"/>
     <use xlink:href="#DejaVuSans-31" x="580.671875"/>
     <use xlink:href="#DejaVuSans-30" x="644.294922"/>
     <use xlink:href="#DejaVuSans-30" x="707.917969"/>
     <use xlink:href="#DejaVuSans-2e" x="771.541016"/>
     <use xlink:href="#DejaVuSans-2e" x="803.328125"/>
     <use xlink:href="#DejaVuSans-31" x="835.115234"/>
     <use xlink:href="#DejaVuSans-65" x="898.738281"/>
     <use xlink:href="#DejaVuSans-2d" x="960.261719"/>
     <use xlink:href="#DejaVuSans-30" x="996.345703"/>
     <use xlink:href="#DejaVuSans-38" x="1059.96875"/>
    </g>
    <!-- 15 instances -->
    <g transform="translate(60.632064 40.426264)scale(0.102 -0.102)">
     <use xlink:href="#DejaVuSans-31"/>
     <use xlink:href="#DejaVuSans-35" x="63.623047"/>
     <use xlink:href="#DejaVuSans-20" x="127.246094"/>
     <use xlink:href="#DejaVuSans-69" x="159.033203"/>
     <use xlink:href="#DejaVuSans-6e" x="186.816406"/>
     <use xlink:href="#DejaVuSans-73" x="250.195312"/>
     <use xlink:href="#DejaVuSans-74" x="302.294922"/>
     <use xlink:href="#DejaVuSans-61" x="341.503906"/>
     <use xlink:href="#DejaVuSans-6e" x="402.783203"/>
     <use xlink:href="#DejaVuSans-63" x="466.162109"/>
     <use xlink:href="#DejaVuSans-65" x="521.142578"/>
     <use xlink:href="#DejaVuSans-73" x="582.666016"/>
    </g>
   </g>
   <g id="text_17">
    <!-- v2.6 -->
    <g style="fill: #808080" transform="translate(198.292262 293.943992)scale(0.1 -0.1)">
     <use xlink:href="#DejaVuSans-76"/>
     <use xlink:href="#DejaVuSans-32" x="59.179688"/>
     <use xlink:href="#DejaVuSans-2e" x="122.802734"/>
     <use xlink:href="#DejaVuSans-36" x="154.589844"/>
    </g>
   </g>
  </g>
 </g>
 <defs>
  <clipPath id="p4515b4d705">
   <rect x="57.6" y="6.912" width="303.2064" height="292.032"/>
  </clipPath>
 </defs>
</svg>
