<?xml version="1.0" encoding="utf-8" standalone="no"?>
<!DOCTYPE svg PUBLIC "-//W3C//DTD SVG 1.1//EN"
  "http://www.w3.org/Graphics/SVG/1.1/DTD/svg11.dtd">
<svg xmlns:xlink="http://www.w3.org/1999/xlink" width="460.8pt" height="345.6pt" viewBox="0 0 460.8 345.6" xmlns="http://www.w3.org/2000/svg" version="1.1">
 <metadata>
  <rdf:RDF xmlns:dc="http://purl.org/dc/elements/1.1/" xmlns:cc="http://creativecommons.org/ns#" xmlns:rdf="http://www.w3.org/1999/02/22-rdf-syntax-ns#">
   <cc:Work>
    <dc:type rdf:resource="http://purl.org/dc/dcmitype/StillImage"/>
    <dc:date>2024-05-29T08:05:11.030581</dc:date>
    <dc:format>image/svg+xml</dc:format>
    <dc:creator>
     <cc:Agent>
      <dc:title>Matplotlib v3.5.1, https://matplotlib.org/</dc:title>
     </cc:Agent>
    </dc:creator>
   </cc:Work>
  </rdf:RDF>
 </metadata>
 <defs>
  <style type="text/css">*{stroke-linejoin: round; stroke-linecap: butt}</style>
 </defs>
 <g id="figure_1">
  <g id="patch_1">
   <path d="M 0 345.6 
L 460.8 345.6 
L 460.8 0 
L 0 0 
z
" style="fill: #ffffff"/>
  </g>
  <g id="axes_1">
   <g id="patch_2">
    <path d="M 34.16 291.28 
L 453.192 291.28 
L 453.192 3 
L 34.16 3 
z
" style="fill: #ffffff"/>
   </g>
   <g id="matplotlib.axis_1">
    <g id="xtick_1">
     <g id="line2d_1">
      <path d="M 171.973336 291.28 
L 171.973336 3 
" clip-path="url(#p26026ff270)" style="fill: none; stroke: #b0b0b0; stroke-width: 0.8; stroke-linecap: square"/>
     </g>
     <g id="line2d_2">
      <defs>
       <path id="mc050c41f63" d="M 0 0 
L 0 3.5 
" style="stroke: #000000; stroke-width: 0.8"/>
      </defs>
      <g>
       <use xlink:href="#mc050c41f63" x="171.973336" y="291.28" style="stroke: #000000; stroke-width: 0.8"/>
      </g>
     </g>
     <g id="text_1">
      <!-- -1 -->
      <g transform="translate(162.003023 313.476875)scale(0.2 -0.2)">
       <defs>
        <path id="DejaVuSans-2d" d="M 313 2009 
L 1997 2009 
L 1997 1497 
L 313 1497 
L 313 2009 
z
" transform="scale(0.015625)"/>
        <path id="DejaVuSans-31" d="M 794 531 
L 1825 531 
L 1825 4091 
L 703 3866 
L 703 4441 
L 1819 4666 
L 2450 4666 
L 2450 531 
L 3481 531 
L 3481 0 
L 794 0 
L 794 531 
z
" transform="scale(0.015625)"/>
       </defs>
       <use xlink:href="#DejaVuSans-2d"/>
       <use xlink:href="#DejaVuSans-31" x="36.083984"/>
      </g>
     </g>
    </g>
    <g id="xtick_2">
     <g id="line2d_3">
      <path d="M 315.378664 291.28 
L 315.378664 3 
" clip-path="url(#p26026ff270)" style="fill: none; stroke: #b0b0b0; stroke-width: 0.8; stroke-linecap: square"/>
     </g>
     <g id="line2d_4">
      <g>
       <use xlink:href="#mc050c41f63" x="315.378664" y="291.28" style="stroke: #000000; stroke-width: 0.8"/>
      </g>
     </g>
     <g id="text_2">
      <!-- 1 -->
      <g transform="translate(309.016164 313.476875)scale(0.2 -0.2)">
       <use xlink:href="#DejaVuSans-31"/>
      </g>
     </g>
    </g>
    <g id="xtick_3">
     <g id="line2d_5">
      <defs>
       <path id="m058d616b6b" d="M 0 0 
L 0 2 
" style="stroke: #000000; stroke-width: 0.6"/>
      </defs>
      <g>
       <use xlink:href="#m058d616b6b" x="50.152661" y="291.28" style="stroke: #000000; stroke-width: 0.6"/>
      </g>
     </g>
    </g>
    <g id="xtick_4">
     <g id="line2d_6">
      <g>
       <use xlink:href="#m058d616b6b" x="62.778873" y="291.28" style="stroke: #000000; stroke-width: 0.6"/>
      </g>
     </g>
    </g>
    <g id="xtick_5">
     <g id="line2d_7">
      <g>
       <use xlink:href="#m058d616b6b" x="71.737313" y="291.28" style="stroke: #000000; stroke-width: 0.6"/>
      </g>
     </g>
    </g>
    <g id="xtick_6">
     <g id="line2d_8">
      <g>
       <use xlink:href="#m058d616b6b" x="78.686019" y="291.28" style="stroke: #000000; stroke-width: 0.6"/>
      </g>
     </g>
    </g>
    <g id="xtick_7">
     <g id="line2d_9">
      <g>
       <use xlink:href="#m058d616b6b" x="84.363526" y="291.28" style="stroke: #000000; stroke-width: 0.6"/>
      </g>
     </g>
    </g>
    <g id="xtick_8">
     <g id="line2d_10">
      <g>
       <use xlink:href="#m058d616b6b" x="89.163789" y="291.28" style="stroke: #000000; stroke-width: 0.6"/>
      </g>
     </g>
    </g>
    <g id="xtick_9">
     <g id="line2d_11">
      <g>
       <use xlink:href="#m058d616b6b" x="93.321966" y="291.28" style="stroke: #000000; stroke-width: 0.6"/>
      </g>
     </g>
    </g>
    <g id="xtick_10">
     <g id="line2d_12">
      <g>
       <use xlink:href="#m058d616b6b" x="96.989738" y="291.28" style="stroke: #000000; stroke-width: 0.6"/>
      </g>
     </g>
    </g>
    <g id="xtick_11">
     <g id="line2d_13">
      <g>
       <use xlink:href="#m058d616b6b" x="121.855325" y="291.28" style="stroke: #000000; stroke-width: 0.6"/>
      </g>
     </g>
    </g>
    <g id="xtick_12">
     <g id="line2d_14">
      <g>
       <use xlink:href="#m058d616b6b" x="134.481537" y="291.28" style="stroke: #000000; stroke-width: 0.6"/>
      </g>
     </g>
    </g>
    <g id="xtick_13">
     <g id="line2d_15">
      <g>
       <use xlink:href="#m058d616b6b" x="143.439977" y="291.28" style="stroke: #000000; stroke-width: 0.6"/>
      </g>
     </g>
    </g>
    <g id="xtick_14">
     <g id="line2d_16">
      <g>
       <use xlink:href="#m058d616b6b" x="150.388683" y="291.28" style="stroke: #000000; stroke-width: 0.6"/>
      </g>
     </g>
    </g>
    <g id="xtick_15">
     <g id="line2d_17">
      <g>
       <use xlink:href="#m058d616b6b" x="156.06619" y="291.28" style="stroke: #000000; stroke-width: 0.6"/>
      </g>
     </g>
    </g>
    <g id="xtick_16">
     <g id="line2d_18">
      <g>
       <use xlink:href="#m058d616b6b" x="160.866453" y="291.28" style="stroke: #000000; stroke-width: 0.6"/>
      </g>
     </g>
    </g>
    <g id="xtick_17">
     <g id="line2d_19">
      <g>
       <use xlink:href="#m058d616b6b" x="165.02463" y="291.28" style="stroke: #000000; stroke-width: 0.6"/>
      </g>
     </g>
    </g>
    <g id="xtick_18">
     <g id="line2d_20">
      <g>
       <use xlink:href="#m058d616b6b" x="168.692402" y="291.28" style="stroke: #000000; stroke-width: 0.6"/>
      </g>
     </g>
    </g>
    <g id="xtick_19">
     <g id="line2d_21">
      <g>
       <use xlink:href="#m058d616b6b" x="193.557989" y="291.28" style="stroke: #000000; stroke-width: 0.6"/>
      </g>
     </g>
    </g>
    <g id="xtick_20">
     <g id="line2d_22">
      <g>
       <use xlink:href="#m058d616b6b" x="206.184201" y="291.28" style="stroke: #000000; stroke-width: 0.6"/>
      </g>
     </g>
    </g>
    <g id="xtick_21">
     <g id="line2d_23">
      <g>
       <use xlink:href="#m058d616b6b" x="215.142641" y="291.28" style="stroke: #000000; stroke-width: 0.6"/>
      </g>
     </g>
    </g>
    <g id="xtick_22">
     <g id="line2d_24">
      <g>
       <use xlink:href="#m058d616b6b" x="222.091347" y="291.28" style="stroke: #000000; stroke-width: 0.6"/>
      </g>
     </g>
    </g>
    <g id="xtick_23">
     <g id="line2d_25">
      <g>
       <use xlink:href="#m058d616b6b" x="227.768854" y="291.28" style="stroke: #000000; stroke-width: 0.6"/>
      </g>
     </g>
    </g>
    <g id="xtick_24">
     <g id="line2d_26">
      <g>
       <use xlink:href="#m058d616b6b" x="232.569117" y="291.28" style="stroke: #000000; stroke-width: 0.6"/>
      </g>
     </g>
    </g>
    <g id="xtick_25">
     <g id="line2d_27">
      <g>
       <use xlink:href="#m058d616b6b" x="236.727294" y="291.28" style="stroke: #000000; stroke-width: 0.6"/>
      </g>
     </g>
    </g>
    <g id="xtick_26">
     <g id="line2d_28">
      <g>
       <use xlink:href="#m058d616b6b" x="240.395066" y="291.28" style="stroke: #000000; stroke-width: 0.6"/>
      </g>
     </g>
    </g>
    <g id="xtick_27">
     <g id="line2d_29">
      <g>
       <use xlink:href="#m058d616b6b" x="265.260653" y="291.28" style="stroke: #000000; stroke-width: 0.6"/>
      </g>
     </g>
    </g>
    <g id="xtick_28">
     <g id="line2d_30">
      <g>
       <use xlink:href="#m058d616b6b" x="277.886865" y="291.28" style="stroke: #000000; stroke-width: 0.6"/>
      </g>
     </g>
    </g>
    <g id="xtick_29">
     <g id="line2d_31">
      <g>
       <use xlink:href="#m058d616b6b" x="286.845305" y="291.28" style="stroke: #000000; stroke-width: 0.6"/>
      </g>
     </g>
    </g>
    <g id="xtick_30">
     <g id="line2d_32">
      <g>
       <use xlink:href="#m058d616b6b" x="293.794011" y="291.28" style="stroke: #000000; stroke-width: 0.6"/>
      </g>
     </g>
    </g>
    <g id="xtick_31">
     <g id="line2d_33">
      <g>
       <use xlink:href="#m058d616b6b" x="299.471518" y="291.28" style="stroke: #000000; stroke-width: 0.6"/>
      </g>
     </g>
    </g>
    <g id="xtick_32">
     <g id="line2d_34">
      <g>
       <use xlink:href="#m058d616b6b" x="304.271781" y="291.28" style="stroke: #000000; stroke-width: 0.6"/>
      </g>
     </g>
    </g>
    <g id="xtick_33">
     <g id="line2d_35">
      <g>
       <use xlink:href="#m058d616b6b" x="308.429958" y="291.28" style="stroke: #000000; stroke-width: 0.6"/>
      </g>
     </g>
    </g>
    <g id="xtick_34">
     <g id="line2d_36">
      <g>
       <use xlink:href="#m058d616b6b" x="312.09773" y="291.28" style="stroke: #000000; stroke-width: 0.6"/>
      </g>
     </g>
    </g>
    <g id="xtick_35">
     <g id="line2d_37">
      <g>
       <use xlink:href="#m058d616b6b" x="336.963317" y="291.28" style="stroke: #000000; stroke-width: 0.6"/>
      </g>
     </g>
    </g>
    <g id="xtick_36">
     <g id="line2d_38">
      <g>
       <use xlink:href="#m058d616b6b" x="349.589529" y="291.28" style="stroke: #000000; stroke-width: 0.6"/>
      </g>
     </g>
    </g>
    <g id="xtick_37">
     <g id="line2d_39">
      <g>
       <use xlink:href="#m058d616b6b" x="358.547969" y="291.28" style="stroke: #000000; stroke-width: 0.6"/>
      </g>
     </g>
    </g>
    <g id="xtick_38">
     <g id="line2d_40">
      <g>
       <use xlink:href="#m058d616b6b" x="365.496675" y="291.28" style="stroke: #000000; stroke-width: 0.6"/>
      </g>
     </g>
    </g>
    <g id="xtick_39">
     <g id="line2d_41">
      <g>
       <use xlink:href="#m058d616b6b" x="371.174182" y="291.28" style="stroke: #000000; stroke-width: 0.6"/>
      </g>
     </g>
    </g>
    <g id="xtick_40">
     <g id="line2d_42">
      <g>
       <use xlink:href="#m058d616b6b" x="375.974445" y="291.28" style="stroke: #000000; stroke-width: 0.6"/>
      </g>
     </g>
    </g>
    <g id="xtick_41">
     <g id="line2d_43">
      <g>
       <use xlink:href="#m058d616b6b" x="380.132622" y="291.28" style="stroke: #000000; stroke-width: 0.6"/>
      </g>
     </g>
    </g>
    <g id="xtick_42">
     <g id="line2d_44">
      <g>
       <use xlink:href="#m058d616b6b" x="383.800394" y="291.28" style="stroke: #000000; stroke-width: 0.6"/>
      </g>
     </g>
    </g>
    <g id="xtick_43">
     <g id="line2d_45">
      <g>
       <use xlink:href="#m058d616b6b" x="408.665981" y="291.28" style="stroke: #000000; stroke-width: 0.6"/>
      </g>
     </g>
    </g>
    <g id="xtick_44">
     <g id="line2d_46">
      <g>
       <use xlink:href="#m058d616b6b" x="421.292193" y="291.28" style="stroke: #000000; stroke-width: 0.6"/>
      </g>
     </g>
    </g>
    <g id="xtick_45">
     <g id="line2d_47">
      <g>
       <use xlink:href="#m058d616b6b" x="430.250633" y="291.28" style="stroke: #000000; stroke-width: 0.6"/>
      </g>
     </g>
    </g>
    <g id="xtick_46">
     <g id="line2d_48">
      <g>
       <use xlink:href="#m058d616b6b" x="437.199339" y="291.28" style="stroke: #000000; stroke-width: 0.6"/>
      </g>
     </g>
    </g>
    <g id="xtick_47">
     <g id="line2d_49">
      <g>
       <use xlink:href="#m058d616b6b" x="442.876846" y="291.28" style="stroke: #000000; stroke-width: 0.6"/>
      </g>
     </g>
    </g>
    <g id="xtick_48">
     <g id="line2d_50">
      <g>
       <use xlink:href="#m058d616b6b" x="447.677109" y="291.28" style="stroke: #000000; stroke-width: 0.6"/>
      </g>
     </g>
    </g>
    <g id="xtick_49">
     <g id="line2d_51">
      <g>
       <use xlink:href="#m058d616b6b" x="451.835286" y="291.28" style="stroke: #000000; stroke-width: 0.6"/>
      </g>
     </g>
    </g>
    <g id="text_3">
     <!-- log10 of FEvals ratio -->
     <g transform="translate(141.371312 336.833125)scale(0.2 -0.2)">
      <defs>
       <path id="DejaVuSans-6c" d="M 603 4863 
L 1178 4863 
L 1178 0 
L 603 0 
L 603 4863 
z
" transform="scale(0.015625)"/>
       <path id="DejaVuSans-6f" d="M 1959 3097 
Q 1497 3097 1228 2736 
Q 959 2375 959 1747 
Q 959 1119 1226 758 
Q 1494 397 1959 397 
Q 2419 397 2687 759 
Q 2956 1122 2956 1747 
Q 2956 2369 2687 2733 
Q 2419 3097 1959 3097 
z
M 1959 3584 
Q 2709 3584 3137 3096 
Q 3566 2609 3566 1747 
Q 3566 888 3137 398 
Q 2709 -91 1959 -91 
Q 1206 -91 779 398 
Q 353 888 353 1747 
Q 353 2609 779 3096 
Q 1206 3584 1959 3584 
z
" transform="scale(0.015625)"/>
       <path id="DejaVuSans-67" d="M 2906 1791 
Q 2906 2416 2648 2759 
Q 2391 3103 1925 3103 
Q 1463 3103 1205 2759 
Q 947 2416 947 1791 
Q 947 1169 1205 825 
Q 1463 481 1925 481 
Q 2391 481 2648 825 
Q 2906 1169 2906 1791 
z
M 3481 434 
Q 3481 -459 3084 -895 
Q 2688 -1331 1869 -1331 
Q 1566 -1331 1297 -1286 
Q 1028 -1241 775 -1147 
L 775 -588 
Q 1028 -725 1275 -790 
Q 1522 -856 1778 -856 
Q 2344 -856 2625 -561 
Q 2906 -266 2906 331 
L 2906 616 
Q 2728 306 2450 153 
Q 2172 0 1784 0 
Q 1141 0 747 490 
Q 353 981 353 1791 
Q 353 2603 747 3093 
Q 1141 3584 1784 3584 
Q 2172 3584 2450 3431 
Q 2728 3278 2906 2969 
L 2906 3500 
L 3481 3500 
L 3481 434 
z
" transform="scale(0.015625)"/>
       <path id="DejaVuSans-30" d="M 2034 4250 
Q 1547 4250 1301 3770 
Q 1056 3291 1056 2328 
Q 1056 1369 1301 889 
Q 1547 409 2034 409 
Q 2525 409 2770 889 
Q 3016 1369 3016 2328 
Q 3016 3291 2770 3770 
Q 2525 4250 2034 4250 
z
M 2034 4750 
Q 2819 4750 3233 4129 
Q 3647 3509 3647 2328 
Q 3647 1150 3233 529 
Q 2819 -91 2034 -91 
Q 1250 -91 836 529 
Q 422 1150 422 2328 
Q 422 3509 836 4129 
Q 1250 4750 2034 4750 
z
" transform="scale(0.015625)"/>
       <path id="DejaVuSans-20" transform="scale(0.015625)"/>
       <path id="DejaVuSans-66" d="M 2375 4863 
L 2375 4384 
L 1825 4384 
Q 1516 4384 1395 4259 
Q 1275 4134 1275 3809 
L 1275 3500 
L 2222 3500 
L 2222 3053 
L 1275 3053 
L 1275 0 
L 697 0 
L 697 3053 
L 147 3053 
L 147 3500 
L 697 3500 
L 697 3744 
Q 697 4328 969 4595 
Q 1241 4863 1831 4863 
L 2375 4863 
z
" transform="scale(0.015625)"/>
       <path id="DejaVuSans-46" d="M 628 4666 
L 3309 4666 
L 3309 4134 
L 1259 4134 
L 1259 2759 
L 3109 2759 
L 3109 2228 
L 1259 2228 
L 1259 0 
L 628 0 
L 628 4666 
z
" transform="scale(0.015625)"/>
       <path id="DejaVuSans-45" d="M 628 4666 
L 3578 4666 
L 3578 4134 
L 1259 4134 
L 1259 2753 
L 3481 2753 
L 3481 2222 
L 1259 2222 
L 1259 531 
L 3634 531 
L 3634 0 
L 628 0 
L 628 4666 
z
" transform="scale(0.015625)"/>
       <path id="DejaVuSans-76" d="M 191 3500 
L 800 3500 
L 1894 563 
L 2988 3500 
L 3597 3500 
L 2284 0 
L 1503 0 
L 191 3500 
z
" transform="scale(0.015625)"/>
       <path id="DejaVuSans-61" d="M 2194 1759 
Q 1497 1759 1228 1600 
Q 959 1441 959 1056 
Q 959 750 1161 570 
Q 1363 391 1709 391 
Q 2188 391 2477 730 
Q 2766 1069 2766 1631 
L 2766 1759 
L 2194 1759 
z
M 3341 1997 
L 3341 0 
L 2766 0 
L 2766 531 
Q 2569 213 2275 61 
Q 1981 -91 1556 -91 
Q 1019 -91 701 211 
Q 384 513 384 1019 
Q 384 1609 779 1909 
Q 1175 2209 1959 2209 
L 2766 2209 
L 2766 2266 
Q 2766 2663 2505 2880 
Q 2244 3097 1772 3097 
Q 1472 3097 1187 3025 
Q 903 2953 641 2809 
L 641 3341 
Q 956 3463 1253 3523 
Q 1550 3584 1831 3584 
Q 2591 3584 2966 3190 
Q 3341 2797 3341 1997 
z
" transform="scale(0.015625)"/>
       <path id="DejaVuSans-73" d="M 2834 3397 
L 2834 2853 
Q 2591 2978 2328 3040 
Q 2066 3103 1784 3103 
Q 1356 3103 1142 2972 
Q 928 2841 928 2578 
Q 928 2378 1081 2264 
Q 1234 2150 1697 2047 
L 1894 2003 
Q 2506 1872 2764 1633 
Q 3022 1394 3022 966 
Q 3022 478 2636 193 
Q 2250 -91 1575 -91 
Q 1294 -91 989 -36 
Q 684 19 347 128 
L 347 722 
Q 666 556 975 473 
Q 1284 391 1588 391 
Q 1994 391 2212 530 
Q 2431 669 2431 922 
Q 2431 1156 2273 1281 
Q 2116 1406 1581 1522 
L 1381 1569 
Q 847 1681 609 1914 
Q 372 2147 372 2553 
Q 372 3047 722 3315 
Q 1072 3584 1716 3584 
Q 2034 3584 2315 3537 
Q 2597 3491 2834 3397 
z
" transform="scale(0.015625)"/>
       <path id="DejaVuSans-72" d="M 2631 2963 
Q 2534 3019 2420 3045 
Q 2306 3072 2169 3072 
Q 1681 3072 1420 2755 
Q 1159 2438 1159 1844 
L 1159 0 
L 581 0 
L 581 3500 
L 1159 3500 
L 1159 2956 
Q 1341 3275 1631 3429 
Q 1922 3584 2338 3584 
Q 2397 3584 2469 3576 
Q 2541 3569 2628 3553 
L 2631 2963 
z
" transform="scale(0.015625)"/>
       <path id="DejaVuSans-74" d="M 1172 4494 
L 1172 3500 
L 2356 3500 
L 2356 3053 
L 1172 3053 
L 1172 1153 
Q 1172 725 1289 603 
Q 1406 481 1766 481 
L 2356 481 
L 2356 0 
L 1766 0 
Q 1100 0 847 248 
Q 594 497 594 1153 
L 594 3053 
L 172 3053 
L 172 3500 
L 594 3500 
L 594 4494 
L 1172 4494 
z
" transform="scale(0.015625)"/>
       <path id="DejaVuSans-69" d="M 603 3500 
L 1178 3500 
L 1178 0 
L 603 0 
L 603 3500 
z
M 603 4863 
L 1178 4863 
L 1178 4134 
L 603 4134 
L 603 4863 
z
" transform="scale(0.015625)"/>
      </defs>
      <use xlink:href="#DejaVuSans-6c"/>
      <use xlink:href="#DejaVuSans-6f" x="27.783203"/>
      <use xlink:href="#DejaVuSans-67" x="88.964844"/>
      <use xlink:href="#DejaVuSans-31" x="152.441406"/>
      <use xlink:href="#DejaVuSans-30" x="216.064453"/>
      <use xlink:href="#DejaVuSans-20" x="279.6875"/>
      <use xlink:href="#DejaVuSans-6f" x="311.474609"/>
      <use xlink:href="#DejaVuSans-66" x="372.65625"/>
      <use xlink:href="#DejaVuSans-20" x="407.861328"/>
      <use xlink:href="#DejaVuSans-46" x="439.648438"/>
      <use xlink:href="#DejaVuSans-45" x="497.167969"/>
      <use xlink:href="#DejaVuSans-76" x="560.351562"/>
      <use xlink:href="#DejaVuSans-61" x="619.53125"/>
      <use xlink:href="#DejaVuSans-6c" x="680.810547"/>
      <use xlink:href="#DejaVuSans-73" x="708.59375"/>
      <use xlink:href="#DejaVuSans-20" x="760.693359"/>
      <use xlink:href="#DejaVuSans-72" x="792.480469"/>
      <use xlink:href="#DejaVuSans-61" x="833.59375"/>
      <use xlink:href="#DejaVuSans-74" x="894.873047"/>
      <use xlink:href="#DejaVuSans-69" x="934.082031"/>
      <use xlink:href="#DejaVuSans-6f" x="961.865234"/>
     </g>
    </g>
   </g>
   <g id="matplotlib.axis_2">
    <g id="ytick_1">
     <g id="line2d_52">
      <path d="M 34.16 288.453725 
L 453.192 288.453725 
" clip-path="url(#p26026ff270)" style="fill: none; stroke: #b0b0b0; stroke-width: 0.8; stroke-linecap: square"/>
     </g>
     <g id="line2d_53">
      <defs>
       <path id="m80f3224409" d="M 0 0 
L -3.5 0 
" style="stroke: #000000; stroke-width: 0.8"/>
      </defs>
      <g>
       <use xlink:href="#m80f3224409" x="34.16" y="288.453725" style="stroke: #000000; stroke-width: 0.8"/>
      </g>
     </g>
    </g>
    <g id="ytick_2">
     <g id="line2d_54">
      <path d="M 34.16 217.796863 
L 453.192 217.796863 
" clip-path="url(#p26026ff270)" style="fill: none; stroke: #b0b0b0; stroke-width: 0.8; stroke-linecap: square"/>
     </g>
     <g id="line2d_55">
      <g>
       <use xlink:href="#m80f3224409" x="34.16" y="217.796863" style="stroke: #000000; stroke-width: 0.8"/>
      </g>
     </g>
    </g>
    <g id="ytick_3">
     <g id="line2d_56">
      <path d="M 34.16 147.14 
L 453.192 147.14 
" clip-path="url(#p26026ff270)" style="fill: none; stroke: #b0b0b0; stroke-width: 0.8; stroke-linecap: square"/>
     </g>
     <g id="line2d_57">
      <g>
       <use xlink:href="#m80f3224409" x="34.16" y="147.14" style="stroke: #000000; stroke-width: 0.8"/>
      </g>
     </g>
    </g>
    <g id="ytick_4">
     <g id="line2d_58">
      <path d="M 34.16 76.483137 
L 453.192 76.483137 
" clip-path="url(#p26026ff270)" style="fill: none; stroke: #b0b0b0; stroke-width: 0.8; stroke-linecap: square"/>
     </g>
     <g id="line2d_59">
      <g>
       <use xlink:href="#m80f3224409" x="34.16" y="76.483137" style="stroke: #000000; stroke-width: 0.8"/>
      </g>
     </g>
    </g>
    <g id="ytick_5">
     <g id="line2d_60">
      <path d="M 34.16 5.826275 
L 453.192 5.826275 
" clip-path="url(#p26026ff270)" style="fill: none; stroke: #b0b0b0; stroke-width: 0.8; stroke-linecap: square"/>
     </g>
     <g id="line2d_61">
      <g>
       <use xlink:href="#m80f3224409" x="34.16" y="5.826275" style="stroke: #000000; stroke-width: 0.8"/>
      </g>
     </g>
    </g>
    <g id="text_4">
     <!-- proportion of trials -->
     <g transform="translate(19.000625 240.14625)rotate(-90)scale(0.2 -0.2)">
      <defs>
       <path id="DejaVuSans-70" d="M 1159 525 
L 1159 -1331 
L 581 -1331 
L 581 3500 
L 1159 3500 
L 1159 2969 
Q 1341 3281 1617 3432 
Q 1894 3584 2278 3584 
Q 2916 3584 3314 3078 
Q 3713 2572 3713 1747 
Q 3713 922 3314 415 
Q 2916 -91 2278 -91 
Q 1894 -91 1617 61 
Q 1341 213 1159 525 
z
M 3116 1747 
Q 3116 2381 2855 2742 
Q 2594 3103 2138 3103 
Q 1681 3103 1420 2742 
Q 1159 2381 1159 1747 
Q 1159 1113 1420 752 
Q 1681 391 2138 391 
Q 2594 391 2855 752 
Q 3116 1113 3116 1747 
z
" transform="scale(0.015625)"/>
       <path id="DejaVuSans-6e" d="M 3513 2113 
L 3513 0 
L 2938 0 
L 2938 2094 
Q 2938 2591 2744 2837 
Q 2550 3084 2163 3084 
Q 1697 3084 1428 2787 
Q 1159 2491 1159 1978 
L 1159 0 
L 581 0 
L 581 3500 
L 1159 3500 
L 1159 2956 
Q 1366 3272 1645 3428 
Q 1925 3584 2291 3584 
Q 2894 3584 3203 3211 
Q 3513 2838 3513 2113 
z
" transform="scale(0.015625)"/>
      </defs>
      <use xlink:href="#DejaVuSans-70"/>
      <use xlink:href="#DejaVuSans-72" x="63.476562"/>
      <use xlink:href="#DejaVuSans-6f" x="102.339844"/>
      <use xlink:href="#DejaVuSans-70" x="163.521484"/>
      <use xlink:href="#DejaVuSans-6f" x="226.998047"/>
      <use xlink:href="#DejaVuSans-72" x="288.179688"/>
      <use xlink:href="#DejaVuSans-74" x="329.292969"/>
      <use xlink:href="#DejaVuSans-69" x="368.501953"/>
      <use xlink:href="#DejaVuSans-6f" x="396.285156"/>
      <use xlink:href="#DejaVuSans-6e" x="457.466797"/>
      <use xlink:href="#DejaVuSans-20" x="520.845703"/>
      <use xlink:href="#DejaVuSans-6f" x="552.632812"/>
      <use xlink:href="#DejaVuSans-66" x="613.814453"/>
      <use xlink:href="#DejaVuSans-20" x="649.019531"/>
      <use xlink:href="#DejaVuSans-74" x="680.806641"/>
      <use xlink:href="#DejaVuSans-72" x="720.015625"/>
      <use xlink:href="#DejaVuSans-69" x="761.128906"/>
      <use xlink:href="#DejaVuSans-61" x="788.912109"/>
      <use xlink:href="#DejaVuSans-6c" x="850.191406"/>
      <use xlink:href="#DejaVuSans-73" x="877.974609"/>
     </g>
    </g>
   </g>
   <g id="line2d_62">
    <path d="M 34.16 285.181992 
L 100.270672 285.181992 
L 100.270672 284.93032 
L 100.58364 284.93032 
L 100.58364 284.678648 
L 100.899786 284.678648 
L 100.899786 284.175305 
L 101.05907 284.175305 
L 101.05907 283.923633 
L 101.380105 283.923633 
L 101.380105 283.671961 
L 101.704484 283.671961 
L 101.704484 283.420289 
L 102.197476 283.420289 
L 102.197476 283.168617 
L 102.6984 283.168617 
L 102.6984 282.665274 
L 112.896884 282.665274 
L 112.896884 282.413602 
L 113.209853 282.413602 
L 113.209853 282.16193 
L 113.525998 282.16193 
L 113.525998 281.658586 
L 113.685283 281.658586 
L 113.685283 281.406915 
L 114.006317 281.406915 
L 114.006317 281.155243 
L 114.330696 281.155243 
L 114.330696 280.903571 
L 114.823689 280.903571 
L 114.823689 280.651899 
L 115.324612 280.651899 
L 115.324612 280.148556 
L 121.855325 280.148556 
L 121.855325 279.39354 
L 122.011416 279.39354 
L 122.011416 278.890196 
L 122.168293 278.890196 
L 122.168293 277.380166 
L 122.484438 277.380166 
L 122.484438 276.876822 
L 122.643723 276.876822 
L 122.643723 276.373478 
L 122.964757 276.373478 
L 122.964757 275.870135 
L 123.126524 275.870135 
L 123.126524 275.618463 
L 123.289136 275.618463 
L 123.289136 275.366791 
L 123.452601 275.366791 
L 123.452601 275.115119 
L 123.782129 275.115119 
L 123.782129 274.611776 
L 123.94821 274.611776 
L 123.94821 274.108432 
L 124.283053 274.108432 
L 124.283053 273.605088 
L 124.621535 273.605088 
L 124.621535 273.353416 
L 125.484196 273.353416 
L 125.484196 273.101745 
L 128.417193 273.101745 
L 128.417193 272.850073 
L 128.804031 272.850073 
L 128.804031 272.346729 
L 128.960122 272.346729 
L 128.960122 271.843386 
L 129.116999 271.843386 
L 129.137821 270.585026 
L 129.592429 270.585026 
L 129.592429 270.333355 
L 129.913464 270.333355 
L 129.913464 270.081683 
L 130.730835 270.081683 
L 130.730835 269.830011 
L 130.896916 269.830011 
L 130.896916 269.326667 
L 131.570241 269.326667 
L 131.570241 269.074996 
L 134.794505 269.074996 
L 134.794505 268.823324 
L 134.929603 268.823324 
L 134.929603 268.571652 
L 135.752737 268.571652 
L 135.752737 268.31998 
L 136.078814 268.31998 
L 136.078814 268.068308 
L 138.110408 268.068308 
L 138.110408 267.816636 
L 141.043405 267.816636 
L 141.043405 267.564965 
L 141.310835 267.564965 
L 141.406782 267.061621 
L 142.814642 267.061621 
L 142.814642 266.809949 
L 143.752945 266.809949 
L 143.752945 266.558277 
L 143.973476 266.558277 
L 143.973476 266.306606 
L 144.711177 266.306606 
L 144.711177 266.054934 
L 145.037254 266.054934 
L 145.037254 265.803262 
L 147.068849 265.803262 
L 147.102617 265.299918 
L 147.198564 265.299918 
L 147.198564 265.048246 
L 149.774273 265.048246 
L 149.774273 264.796575 
L 150.001845 264.796575 
L 150.001845 264.544903 
L 150.388683 264.544903 
L 150.388683 264.041559 
L 150.544774 264.041559 
L 150.544774 263.538216 
L 150.701652 263.538216 
L 150.701652 262.531528 
L 151.177082 262.531528 
L 151.177082 262.279856 
L 151.498116 262.279856 
L 151.498116 262.028185 
L 152.315488 262.028185 
L 152.315488 261.776513 
L 152.481569 261.776513 
L 152.481569 261.273169 
L 153.154894 261.273169 
L 153.154894 261.021497 
L 154.987655 261.021497 
L 155.083603 260.518154 
L 155.566055 260.518154 
L 155.566055 260.266482 
L 156.146489 260.266482 
L 156.242437 259.763138 
L 158.558725 259.763138 
L 158.558725 259.259795 
L 158.714816 259.259795 
L 158.714816 258.756451 
L 158.871693 258.756451 
L 158.871693 257.749764 
L 159.347124 257.749764 
L 159.347124 257.498092 
L 159.668158 257.498092 
L 159.668158 257.24642 
L 160.232742 257.24642 
L 160.232742 256.994748 
L 160.48553 256.994748 
L 160.48553 256.743076 
L 160.651611 256.743076 
L 160.651611 256.239733 
L 161.324936 256.239733 
L 161.324936 255.988061 
L 163.451093 255.988061 
L 163.451093 255.736389 
L 164.087817 255.736389 
L 164.087817 255.484717 
L 164.609928 255.484717 
L 164.671279 254.981374 
L 166.024524 254.981374 
L 166.024524 254.729702 
L 168.692402 254.729702 
L 168.692402 253.974687 
L 168.848493 253.974687 
L 168.848493 253.471343 
L 169.00537 253.471343 
L 169.00537 252.212984 
L 169.321516 252.212984 
L 169.321516 251.70964 
L 169.4808 251.70964 
L 169.4808 251.206297 
L 169.801835 251.206297 
L 169.801835 250.702953 
L 170.126214 250.702953 
L 170.126214 250.451281 
L 170.376059 250.451281 
L 170.463061 248.689578 
L 170.53215 248.689578 
L 170.619206 246.676204 
L 170.689027 246.676204 
L 170.785287 243.152798 
L 171.12013 243.152798 
L 171.164457 241.894439 
L 171.458612 241.894439 
L 171.485492 240.63608 
L 171.973336 240.63608 
L 171.973336 240.132737 
L 172.129427 240.132737 
L 172.129427 239.629393 
L 172.286304 239.629393 
L 172.302864 237.86769 
L 172.468944 237.86769 
L 172.468944 236.357659 
L 172.761734 236.357659 
L 172.761734 236.105987 
L 173.082769 236.105987 
L 173.142269 235.0993 
L 173.90014 235.0993 
L 173.909562 234.595957 
L 174.066221 234.595957 
L 174.105428 233.840941 
L 174.739546 233.840941 
L 174.739546 233.589269 
L 175.068396 233.589269 
L 175.068396 233.337597 
L 176.260831 233.337597 
L 176.356778 232.33091 
L 176.481624 232.33091 
L 176.481624 231.827567 
L 176.638501 231.827567 
L 176.638501 230.820879 
L 177.113931 230.820879 
L 177.113931 230.569207 
L 177.434966 230.569207 
L 177.434966 230.317536 
L 178.252337 230.317536 
L 178.3481 229.814192 
L 178.418418 229.814192 
L 178.418418 229.310848 
L 179.091743 229.310848 
L 179.191655 228.807505 
L 179.506934 228.807505 
L 179.506934 228.555833 
L 179.89721 228.555833 
L 179.89721 228.304161 
L 183.632976 228.304161 
L 183.728923 227.800817 
L 184.009843 227.800817 
L 184.009843 227.549146 
L 184.599548 227.549146 
L 184.599548 227.045802 
L 184.724269 227.045802 
L 184.755639 226.290787 
L 184.912517 226.290787 
L 184.912517 225.284099 
L 185.387947 225.284099 
L 185.387947 225.032427 
L 185.620626 225.032427 
L 185.708981 224.277412 
L 185.776717 224.277412 
L 185.776717 223.774068 
L 185.933594 223.774068 
L 185.933594 222.767381 
L 186.409024 222.767381 
L 186.409024 222.515709 
L 186.526353 222.515709 
L 186.609283 222.012366 
L 186.692434 222.012366 
L 186.730059 221.25735 
L 186.922251 221.25735 
L 186.922251 221.005678 
L 187.238396 221.005678 
L 187.238396 220.502335 
L 187.365759 220.502335 
L 187.397681 219.998991 
L 187.54743 219.998991 
L 187.54743 219.747319 
L 187.713511 219.747319 
L 187.782249 218.740632 
L 188.043094 218.740632 
L 188.043094 218.48896 
L 188.386836 218.48896 
L 188.386836 218.237288 
L 188.536087 218.237288 
L 188.536087 217.985617 
L 188.941083 217.985617 
L 189.03701 217.230601 
L 189.801624 217.230601 
L 189.801624 216.978929 
L 190.590023 216.978929 
L 190.590023 216.727258 
L 191.364668 216.727258 
L 191.460616 216.223914 
L 191.548254 216.223914 
L 191.548254 215.972242 
L 191.874331 215.972242 
L 191.874331 215.72057 
L 192.096414 215.72057 
L 192.096414 215.468898 
L 192.565625 215.468898 
L 192.565625 214.965555 
L 192.76959 214.965555 
L 192.76959 214.713883 
L 193.082558 214.713883 
L 193.082558 214.462211 
L 193.398704 214.462211 
L 193.493943 213.707196 
L 193.557989 213.707196 
L 193.557989 212.95218 
L 193.71408 212.95218 
L 193.71408 212.448837 
L 193.870957 212.448837 
L 193.905926 210.687134 
L 194.203402 210.687134 
L 194.203402 210.435462 
L 194.346387 210.435462 
L 194.346387 210.18379 
L 194.667421 210.18379 
L 194.696395 209.680447 
L 195.077318 209.680447 
L 195.182737 209.177103 
L 195.197318 209.177103 
L 195.25917 208.422088 
L 195.390286 208.422088 
L 195.484793 207.918744 
L 195.650874 207.918744 
L 195.706432 206.912057 
L 195.810059 206.912057 
L 195.865716 206.157041 
L 195.96615 206.157041 
L 195.96615 205.653698 
L 196.123027 205.653698 
L 196.186751 204.395338 
L 196.324199 204.395338 
L 196.324199 204.143667 
L 196.511129 204.143667 
L 196.598458 203.640323 
L 196.838923 203.640323 
L 196.919492 203.136979 
L 197.004122 203.136979 
L 197.004122 202.381964 
L 197.505046 202.381964 
L 197.505046 201.87862 
L 197.686663 201.87862 
L 197.736864 201.375277 
L 197.902944 201.375277 
L 197.910185 200.620261 
L 198.223154 200.620261 
L 198.223154 200.368589 
L 198.539299 200.368589 
L 198.61884 199.361902 
L 198.698584 199.361902 
L 198.698584 199.11023 
L 198.845497 199.11023 
L 198.845497 198.858558 
L 199.019618 198.858558 
L 199.019618 198.606887 
L 199.235495 198.606887 
L 199.343997 197.851871 
L 199.548463 197.851871 
L 199.621275 197.348528 
L 199.707316 197.348528 
L 199.707316 197.096856 
L 199.828106 197.096856 
L 199.877581 195.838497 
L 200.003071 195.838497 
L 200.023893 195.335153 
L 200.190549 195.335153 
L 200.190549 195.083481 
L 200.337913 195.083481 
L 200.344928 194.328466 
L 200.506695 194.328466 
L 200.506695 193.825122 
L 200.665979 193.825122 
L 200.678898 193.070107 
L 200.987014 193.070107 
L 200.987014 192.818435 
L 201.162299 192.818435 
L 201.162299 192.566763 
L 201.311393 192.566763 
L 201.311393 192.315091 
L 201.663223 192.315091 
L 201.663223 191.811748 
L 201.804385 191.811748 
L 201.804385 191.560076 
L 202.305309 191.560076 
L 202.33302 190.553389 
L 202.554883 190.553389 
L 202.554883 190.301717 
L 202.814422 190.301717 
L 202.903267 189.546701 
L 203.216235 189.546701 
L 203.322244 189.043358 
L 203.532381 189.043358 
L 203.532381 188.540014 
L 203.691665 188.540014 
L 203.722002 187.533327 
L 203.941299 187.533327 
L 204.0127 187.029983 
L 204.162151 187.029983 
L 204.162151 186.778311 
L 204.337079 186.778311 
L 204.337079 186.526639 
L 204.706475 186.526639 
L 204.706475 186.274968 
L 204.830072 186.274968 
L 204.830072 186.023296 
L 205.128504 186.023296 
L 205.128504 185.771624 
L 205.330995 185.771624 
L 205.441472 184.513265 
L 205.682242 184.513265 
L 205.757618 183.506578 
L 205.916903 183.506578 
L 205.916903 183.254906 
L 206.237937 183.254906 
L 206.2733 182.49989 
L 206.47068 182.49989 
L 206.562316 181.996547 
L 206.99342 181.996547 
L 207.076921 180.989859 
L 207.170763 180.989859 
L 207.205278 180.486516 
L 207.518247 180.486516 
L 207.556232 179.7315 
L 207.834392 179.7315 
L 207.834392 179.228157 
L 207.993677 179.228157 
L 207.993677 178.976485 
L 208.314711 178.976485 
L 208.329597 178.473141 
L 208.465903 178.473141 
L 208.506903 177.969798 
L 208.63909 177.969798 
L 208.6852 177.466454 
L 208.906052 177.466454 
L 208.906052 177.214782 
L 209.055424 177.214782 
L 209.152167 176.459767 
L 209.465135 176.459767 
L 209.522536 175.704751 
L 209.633006 175.704751 
L 209.725723 174.949736 
L 209.781281 174.949736 
L 209.791212 174.19472 
L 209.940565 174.19472 
L 209.940565 173.943049 
L 210.12074 173.943049 
L 210.131442 173.439705 
L 210.2616 173.439705 
L 210.286575 172.936361 
L 210.585978 172.936361 
L 210.585978 172.684689 
L 211.078971 172.684689 
L 211.088438 171.929674 
L 211.401684 171.929674 
L 211.426175 170.671315 
L 211.579895 170.671315 
L 211.582266 169.664628 
L 211.739143 169.664628 
L 211.822807 167.902925 
L 211.880329 167.902925 
L 211.976277 167.399581 
L 212.214573 167.399581 
L 212.255664 166.644566 
L 212.535608 166.644566 
L 212.535608 166.392894 
L 212.911269 166.392894 
L 212.911269 165.88955 
L 213.169307 165.88955 
L 213.169307 165.637879 
L 213.352979 165.637879 
L 213.388604 165.134535 
L 213.51906 165.134535 
L 213.609457 164.379519 
L 213.961033 164.379519 
L 213.961033 164.127848 
L 214.192385 164.127848 
L 214.254019 163.624504 
L 214.355719 163.624504 
L 214.355719 163.372832 
L 214.667211 163.372832 
L 214.755803 162.617817 
L 215.221577 162.617817 
L 215.221577 162.366145 
L 215.514553 162.366145 
L 215.625443 161.359458 
L 215.63825 161.359458 
L 215.63825 161.107786 
L 215.911571 161.107786 
L 216.022137 159.849427 
L 216.224539 159.849427 
L 216.224539 159.597755 
L 216.427569 159.597755 
L 216.427569 159.346083 
L 216.540685 159.346083 
L 216.540685 158.84274 
L 216.699969 158.84274 
L 216.699969 158.591068 
L 216.821974 158.591068 
L 216.821974 158.339396 
L 216.974939 158.339396 
L 217.021004 157.836052 
L 217.193466 157.836052 
L 217.193466 157.58438 
L 217.345383 157.58438 
L 217.345383 157.332709 
L 217.838375 157.332709 
L 217.93317 156.577693 
L 217.975061 156.577693 
L 217.983114 156.07435 
L 218.259247 156.07435 
L 218.339299 155.319334 
L 218.510196 155.319334 
L 218.510196 155.067662 
L 218.959838 155.067662 
L 218.959838 154.81599 
L 219.389917 154.81599 
L 219.389917 154.564319 
L 219.771333 154.564319 
L 219.807806 154.060975 
L 219.965478 154.060975 
L 220.037412 153.557631 
L 220.290842 153.557631 
L 220.343768 153.054288 
L 220.45918 153.054288 
L 220.45918 152.802616 
L 220.662267 152.802616 
L 220.766038 152.0476 
L 220.916111 152.0476 
L 220.916111 151.795929 
L 221.092115 151.795929 
L 221.133116 151.292585 
L 221.775202 151.292585 
L 221.8515 150.789241 
L 222.091347 150.789241 
L 222.091347 150.53757 
L 222.275065 150.53757 
L 222.35049 149.782554 
L 222.400403 149.782554 
L 222.417424 149.27921 
L 222.7121 149.27921 
L 222.733433 148.524195 
L 223.05951 148.524195 
L 223.123709 148.020851 
L 223.223838 148.020851 
L 223.235731 147.265836 
L 223.402543 147.265836 
L 223.402543 147.014164 
L 223.610677 147.014164 
L 223.610677 146.007477 
L 224.101082 146.007477 
L 224.205055 145.252461 
L 224.320379 145.252461 
L 224.320379 145.00079 
L 224.449019 145.00079 
L 224.541231 144.245774 
L 224.561377 144.245774 
L 224.668882 143.74243 
L 224.720109 143.74243 
L 224.800888 142.484071 
L 225.078505 142.484071 
L 225.091105 141.980728 
L 225.372281 141.980728 
L 225.469442 141.477384 
L 225.759119 141.477384 
L 225.847712 140.97404 
L 226.027886 140.97404 
L 226.085197 140.219025 
L 226.189735 140.219025 
L 226.26948 139.46401 
L 226.331984 139.46401 
L 226.342552 138.960666 
L 226.738646 138.960666 
L 226.738646 138.708994 
L 227.026125 138.708994 
L 227.026125 138.457322 
L 227.160414 138.457322 
L 227.160414 138.20565 
L 227.382015 138.20565 
L 227.382015 137.953979 
L 227.573967 137.953979 
L 227.573967 137.702307 
L 227.984357 137.702307 
L 228.066847 136.443948 
L 228.116791 136.443948 
L 228.116791 136.192276 
L 228.310434 136.192276 
L 228.359369 135.688932 
L 228.426868 135.688932 
L 228.443938 135.185589 
L 228.848636 135.185589 
L 228.848636 134.933917 
L 229.102899 134.933917 
L 229.212575 134.430573 
L 229.306589 134.430573 
L 229.306589 134.178901 
L 229.728357 134.178901 
L 229.728357 133.92723 
L 229.86818 133.92723 
L 229.86818 133.675558 
L 230.061131 133.675558 
L 230.061131 133.423886 
L 230.309581 133.423886 
L 230.387208 132.417199 
L 230.767893 132.417199 
L 230.802236 131.913855 
L 231.049788 131.913855 
L 231.049788 131.410511 
L 231.698563 131.410511 
L 231.698563 131.15884 
L 231.91786 131.15884 
L 232.008019 130.655496 
L 232.138712 130.655496 
L 232.138712 130.403824 
L 232.334096 130.403824 
L 232.418802 129.900481 
L 232.474322 129.900481 
L 232.474322 129.648809 
L 233.275025 129.648809 
L 233.275025 129.397137 
L 234.063676 129.397137 
L 234.137653 128.642121 
L 234.365691 128.642121 
L 234.435747 128.138778 
L 234.543495 128.138778 
L 234.647817 127.383762 
L 234.857515 127.383762 
L 234.857515 127.132091 
L 235.240774 127.132091 
L 235.351799 126.377075 
L 235.600657 126.377075 
L 235.710721 125.62206 
L 235.816084 125.62206 
L 235.816084 125.370388 
L 235.944558 125.370388 
L 236.036798 124.615372 
L 236.256096 124.615372 
L 236.366326 123.860357 
L 236.401217 123.860357 
L 236.476948 123.357013 
L 236.727294 123.357013 
L 236.801021 122.601998 
L 237.11072 122.601998 
L 237.11072 122.350326 
L 237.284092 122.350326 
L 237.298687 121.846982 
L 237.60679 121.846982 
L 237.60679 121.343639 
L 237.809192 121.343639 
L 237.836727 120.588623 
L 237.932867 120.588623 
L 237.932867 120.336951 
L 238.284622 120.336951 
L 238.284622 120.08528 
L 238.576151 120.08528 
L 238.576151 119.833608 
L 238.767423 119.833608 
L 238.767423 119.581936 
L 239.0935 119.581936 
L 239.175556 119.078592 
L 240.567588 119.078592 
L 240.583391 118.323577 
L 240.863778 118.323577 
L 240.863778 118.071905 
L 241.079491 118.071905 
L 241.125095 117.568561 
L 241.226362 117.568561 
L 241.276242 116.813546 
L 241.658604 116.813546 
L 241.7435 115.806859 
L 241.963603 115.806859 
L 242.027993 115.303515 
L 242.350691 115.303515 
L 242.350691 114.800171 
L 242.624265 114.800171 
L 242.676768 114.045156 
L 243.001039 114.045156 
L 243.001039 113.793484 
L 243.198138 113.793484 
L 243.284296 113.290141 
L 243.547776 113.290141 
L 243.547776 113.038469 
L 243.998698 113.038469 
L 244.075603 112.283453 
L 244.386451 112.283453 
L 244.386451 112.031781 
L 244.674923 112.031781 
L 244.675718 111.528438 
L 245.277385 111.528438 
L 245.277385 111.276766 
L 245.6649 111.276766 
L 245.6649 111.025094 
L 245.782895 111.025094 
L 245.893312 110.521751 
L 246.097102 110.521751 
L 246.143831 109.766735 
L 246.35168 109.766735 
L 246.4021 109.01172 
L 246.558637 109.01172 
L 246.643966 108.256704 
L 246.731397 108.256704 
L 246.731397 108.005032 
L 246.872658 108.005032 
L 246.965607 107.501689 
L 247.054095 107.501689 
L 247.065734 106.24333 
L 247.380172 106.24333 
L 247.380172 105.991658 
L 247.536374 105.991658 
L 247.536374 105.739986 
L 247.725864 105.739986 
L 247.753399 104.984971 
L 247.845328 104.984971 
L 247.845328 104.733299 
L 248.028197 104.733299 
L 248.028197 104.481627 
L 248.175167 104.481627 
L 248.175167 103.978283 
L 248.336934 103.978283 
L 248.381468 103.47494 
L 248.5141 103.47494 
L 248.601164 102.971596 
L 249.477742 102.971596 
L 249.477742 102.719924 
L 249.734323 102.719924 
L 249.736083 101.964909 
L 249.985395 101.964909 
L 249.985395 101.713237 
L 250.331809 101.713237 
L 250.331809 101.461565 
L 250.673707 101.461565 
L 250.732732 100.958222 
L 251.120315 100.958222 
L 251.123305 100.454878 
L 251.342602 100.454878 
L 251.342602 100.203206 
L 251.563454 100.203206 
L 251.563454 99.951534 
L 251.907402 99.951534 
L 251.907402 99.699862 
L 252.047864 99.699862 
L 252.047864 99.448191 
L 252.2124 99.448191 
L 252.2124 99.196519 
L 252.47604 99.196519 
L 252.47604 98.944847 
L 252.660466 98.944847 
L 252.731601 98.441503 
L 252.798336 98.441503 
L 252.873063 97.93816 
L 252.974486 97.93816 
L 252.974486 97.686488 
L 253.103334 97.686488 
L 253.103334 97.434816 
L 253.723825 97.434816 
L 253.827692 96.679801 
L 253.916239 96.679801 
L 253.916239 96.428129 
L 254.260211 96.428129 
L 254.3244 95.924785 
L 254.483297 95.924785 
L 254.579337 95.16977 
L 254.791556 95.16977 
L 254.791556 94.918098 
L 255.099049 94.918098 
L 255.146197 94.414754 
L 255.215334 94.414754 
L 255.249262 93.911411 
L 255.366279 93.911411 
L 255.452219 93.156395 
L 255.671278 93.156395 
L 255.671278 92.904723 
L 256.142109 92.904723 
L 256.142109 92.653052 
L 256.33194 92.653052 
L 256.33194 92.40138 
L 256.633493 92.40138 
L 256.71467 91.898036 
L 256.903557 91.898036 
L 256.914537 91.394692 
L 257.033043 91.394692 
L 257.059246 90.639677 
L 257.225061 90.639677 
L 257.225061 90.388005 
L 257.663172 90.388005 
L 257.663172 90.136333 
L 257.783278 90.136333 
L 257.783278 89.884662 
L 257.98587 89.884662 
L 258.082129 89.129646 
L 258.194165 89.129646 
L 258.194165 88.626302 
L 258.311947 88.626302 
L 258.311947 88.374631 
L 258.448227 88.374631 
L 258.448227 88.122959 
L 258.667524 88.122959 
L 258.721265 87.619615 
L 258.888377 87.619615 
L 258.888377 87.367943 
L 259.080876 87.367943 
L 259.080876 86.8646 
L 259.260448 86.8646 
L 259.260448 86.612928 
L 259.466361 86.612928 
L 259.466361 86.361256 
L 259.583146 86.361256 
L 259.600987 85.857912 
L 259.726539 85.857912 
L 259.802444 85.102897 
L 260.023296 85.102897 
L 260.023296 84.851225 
L 260.181417 84.851225 
L 260.190309 84.09621 
L 260.486415 84.09621 
L 260.578121 83.341194 
L 260.617473 83.341194 
L 260.617473 83.089522 
L 260.800436 83.089522 
L 260.800436 82.837851 
L 261.147078 82.837851 
L 261.147078 82.586179 
L 261.272671 82.586179 
L 261.348643 82.082835 
L 261.455518 82.082835 
L 261.461098 81.579492 
L 261.653642 81.579492 
L 261.653642 81.32782 
L 262.004248 81.32782 
L 262.004248 81.076148 
L 262.305695 81.076148 
L 262.314304 80.321132 
L 262.598416 80.321132 
L 262.656902 79.566117 
L 262.724837 79.566117 
L 262.724837 79.314445 
L 262.912436 79.314445 
L 262.969909 78.811102 
L 263.100742 78.811102 
L 263.185417 78.307758 
L 263.42344 78.307758 
L 263.42344 78.056086 
L 263.615771 78.056086 
L 263.707343 77.049399 
L 263.765642 77.049399 
L 263.765642 76.797727 
L 264.063437 76.797727 
L 264.063437 76.546055 
L 264.312151 76.546055 
L 264.421247 75.79104 
L 264.597206 75.79104 
L 264.597206 75.539368 
L 264.730145 75.539368 
L 264.730145 75.287696 
L 265.003463 75.287696 
L 265.096325 74.784352 
L 265.182705 74.784352 
L 265.260653 74.029337 
L 265.303993 74.029337 
L 265.315622 73.525993 
L 265.536474 73.525993 
L 265.583351 72.519306 
L 265.909428 72.519306 
L 265.909428 72.267634 
L 266.183715 72.267634 
L 266.292138 71.260947 
L 266.471266 71.260947 
L 266.547777 70.25426 
L 267.319211 70.25426 
L 267.415158 69.750916 
L 267.855497 69.750916 
L 267.932008 68.995901 
L 268.000555 68.995901 
L 268.000555 68.744229 
L 268.14849 68.744229 
L 268.14849 68.492557 
L 268.314575 68.492557 
L 268.369342 67.989213 
L 268.650387 67.989213 
L 268.650387 67.737542 
L 269.167781 67.737542 
L 269.17712 67.234198 
L 269.598888 67.234198 
L 269.598888 66.730854 
L 269.730753 66.730854 
L 269.823386 65.975839 
L 269.921586 65.975839 
L 269.947802 65.220823 
L 270.062221 65.220823 
L 270.062221 64.969152 
L 270.247663 64.969152 
L 270.247663 64.71748 
L 270.748363 64.71748 
L 270.748363 64.465808 
L 270.998852 64.465808 
L 271.082722 63.962464 
L 271.119734 63.962464 
L 271.119734 63.710793 
L 271.248393 63.710793 
L 271.339031 62.704105 
L 271.559884 62.704105 
L 271.559884 62.452433 
L 271.883282 62.452433 
L 271.883282 62.200762 
L 272.166079 62.200762 
L 272.166079 61.94909 
L 272.328899 61.94909 
L 272.328899 61.697418 
L 272.703656 61.697418 
L 272.703656 61.194074 
L 272.821683 61.194074 
L 272.821683 60.942403 
L 273.008654 60.942403 
L 273.008654 60.439059 
L 273.669317 60.439059 
L 273.669317 59.935715 
L 273.813089 59.935715 
L 273.813089 59.432372 
L 274.118087 59.432372 
L 274.118087 58.929028 
L 274.487563 58.929028 
L 274.487563 58.677356 
L 274.77875 58.677356 
L 274.77875 58.174013 
L 274.929347 58.174013 
L 275.005858 57.167325 
L 275.120655 57.167325 
L 275.120655 56.663982 
L 275.533386 56.663982 
L 275.599093 56.160638 
L 275.782649 56.160638 
L 275.782649 55.908966 
L 276.230088 55.908966 
L 276.318328 55.153951 
L 276.39484 55.153951 
L 276.39484 54.902279 
L 276.537626 54.902279 
L 276.614137 54.147263 
L 276.758478 54.147263 
L 276.834989 53.64392 
L 276.938363 53.64392 
L 276.938363 53.140576 
L 277.247177 53.140576 
L 277.247177 52.888904 
L 277.39646 52.888904 
L 277.39646 52.637233 
L 278.047796 52.637233 
L 278.047796 52.133889 
L 279.428768 52.133889 
L 279.428768 51.882217 
L 280.229328 51.882217 
L 280.295217 51.378873 
L 280.522793 51.378873 
L 280.522793 50.87553 
L 280.968054 50.87553 
L 280.968054 50.623858 
L 281.614031 50.623858 
L 281.672519 49.617171 
L 281.971179 49.617171 
L 281.971179 49.365499 
L 282.352285 49.365499 
L 282.352285 49.113827 
L 282.619309 49.113827 
L 282.619309 48.862155 
L 282.905532 48.862155 
L 282.905532 48.610483 
L 283.41987 48.610483 
L 283.521091 47.855468 
L 283.736893 47.855468 
L 283.745778 47.352124 
L 284.630524 47.352124 
L 284.685395 46.597109 
L 285.008093 46.597109 
L 285.008093 46.093765 
L 285.33417 46.093765 
L 285.33417 45.842093 
L 286.241117 45.842093 
L 286.294002 45.33875 
L 286.845305 45.33875 
L 286.845305 45.087078 
L 287.71586 45.087078 
L 287.817904 44.583734 
L 287.894415 44.583734 
L 287.969963 44.080391 
L 288.618464 44.080391 
L 288.694975 43.577047 
L 289.426136 43.577047 
L 289.426136 43.073703 
L 290.637224 43.073703 
L 290.719343 42.067016 
L 290.815117 42.067016 
L 290.815117 41.815344 
L 291.034415 41.815344 
L 291.061815 41.312001 
L 291.255267 41.312001 
L 291.255267 41.060329 
L 292.010317 41.060329 
L 292.010317 40.808657 
L 292.196735 40.808657 
L 292.196735 40.556985 
L 292.333015 40.556985 
L 292.395305 39.80197 
L 292.659092 39.80197 
L 292.659092 39.550298 
L 292.84456 39.550298 
L 292.84456 39.298626 
L 293.145236 39.298626 
L 293.145236 39.046954 
L 293.467934 39.046954 
L 293.467934 38.543611 
L 293.794011 38.543611 
L 293.794011 38.040267 
L 295.23681 38.040267 
L 295.23681 37.788595 
L 295.541809 37.788595 
L 295.541809 37.536924 
L 295.918792 37.536924 
L 296.014739 37.03358 
L 296.202471 37.03358 
L 296.202471 36.781908 
L 297.653809 36.781908 
L 297.709913 36.278564 
L 298.010521 36.278564 
L 298.010521 36.026893 
L 298.658415 36.026893 
L 298.658415 35.775221 
L 298.843344 35.775221 
L 298.843344 35.523549 
L 298.981113 35.523549 
L 298.981113 35.020205 
L 299.145441 35.020205 
L 299.145441 34.768534 
L 299.30719 34.768534 
L 299.30719 34.516862 
L 299.471518 34.516862 
L 299.471518 34.26519 
L 300.113804 34.26519 
L 300.113804 34.013518 
L 300.542781 34.013518 
L 300.542781 33.761846 
L 301.491282 33.761846 
L 301.491282 33.510174 
L 301.81398 33.510174 
L 301.81398 33.006831 
L 302.140057 33.006831 
L 302.140057 32.755159 
L 302.314693 32.755159 
L 302.314693 32.503487 
L 303.055948 32.503487 
L 303.115253 32.000144 
L 303.268686 32.000144 
L 303.268686 31.748472 
L 303.733322 31.748472 
L 303.733322 31.4968 
L 304.38223 31.4968 
L 304.38223 31.245128 
L 304.658619 31.245128 
L 304.681824 30.741784 
L 305.004522 30.741784 
L 305.004522 30.238441 
L 305.330599 30.238441 
L 305.330599 29.986769 
L 306.054246 29.986769 
L 306.054246 29.735097 
L 307.491487 29.735097 
L 307.491487 29.483425 
L 308.931917 29.483425 
L 309.008428 28.980082 
L 309.880419 28.980082 
L 309.95693 28.476738 
L 310.018218 28.476738 
L 310.018218 28.225066 
L 310.203116 28.225066 
L 310.279628 27.218379 
L 310.529193 27.218379 
L 310.605705 26.715035 
L 310.682028 26.715035 
L 310.682028 26.463364 
L 311.152885 26.463364 
L 311.152885 26.211692 
L 314.840699 26.211692 
L 314.840699 25.96002 
L 315.378664 25.96002 
L 315.378664 25.708348 
L 315.880623 25.708348 
L 315.957134 25.205004 
L 317.15167 25.205004 
L 317.15167 24.953333 
L 319.279236 24.953333 
L 319.279236 24.701661 
L 319.502318 24.701661 
L 319.502318 24.449989 
L 321.577011 24.449989 
L 321.577011 24.198317 
L 323.428705 24.198317 
L 323.428705 23.946645 
L 323.548706 23.946645 
L 323.548706 23.694974 
L 324.377207 23.694974 
L 324.377207 23.443302 
L 324.699905 23.443302 
L 324.699905 22.939958 
L 324.940653 22.939958 
L 325.025982 22.436614 
L 326.687274 22.436614 
L 326.687274 22.184943 
L 328.713385 22.184943 
L 328.713385 21.933271 
L 330.377412 21.933271 
L 330.377412 21.681599 
L 333.682383 21.681599 
L 333.682383 21.429927 
L 335.36604 21.429927 
L 335.36604 20.674912 
L 335.734099 20.674912 
L 335.734099 20.42324 
L 336.963317 20.42324 
L 336.963317 20.171568 
L 337.113667 20.171568 
L 337.209614 19.668224 
L 337.41006 19.668224 
L 337.41006 19.416553 
L 338.6178 19.416553 
L 338.6178 19.164881 
L 341.315514 19.164881 
L 341.315514 18.913209 
L 345.577105 18.913209 
L 345.577105 18.661537 
L 348.1019 18.661537 
L 348.1019 18.409865 
L 348.283441 18.409865 
L 348.283441 18.158194 
L 349.589529 18.158194 
L 349.589529 17.906522 
L 350.610606 17.906522 
L 350.610606 17.65485 
L 355.286855 17.65485 
L 355.286855 17.403178 
L 356.035573 17.403178 
L 356.035573 17.151506 
L 358.547969 17.151506 
L 358.547969 16.899834 
L 360.474111 16.899834 
L 360.474111 16.648163 
L 360.80004 16.648163 
L 360.80004 16.396491 
L 364.33368 16.396491 
L 364.33368 16.144819 
L 366.009641 16.144819 
L 366.009641 15.893147 
L 366.591766 15.893147 
L 366.591766 15.641475 
L 369.90826 15.641475 
L 369.90826 15.389804 
L 376.416155 15.389804 
L 376.416155 15.138132 
L 376.883022 15.138132 
L 376.883022 14.88646 
L 379.812674 14.88646 
L 379.812674 14.634788 
L 389.296774 14.634788 
L 389.296774 14.383116 
L 395.191348 14.383116 
L 395.191348 14.131444 
L 396.48173 14.131444 
L 396.48173 13.879773 
L 405.528555 13.879773 
L 405.528555 13.628101 
L 407.204516 13.628101 
L 407.204516 13.376429 
L 418.077897 13.376429 
L 418.077897 13.124757 
L 436.386222 13.124757 
L 436.386222 12.873085 
L 453.192 12.873085 
L 453.192 12.873085 
" clip-path="url(#p26026ff270)" style="fill: none; stroke: #000000; stroke-width: 3; stroke-linecap: square"/>
   </g>
   <g id="line2d_63">
    <path clip-path="url(#p26026ff270)" style="fill: none; stroke: #000000; stroke-width: 3; stroke-linecap: square"/>
   </g>
   <g id="line2d_64">
    <path d="M 34.16 231.045025 
L 113.368208 231.045025 
L 113.368208 230.603419 
L 137.249817 230.603419 
L 137.249817 230.161814 
L 141.490121 230.161814 
L 141.490121 229.720208 
L 148.148016 229.720208 
L 148.148016 229.278603 
L 156.292401 229.278603 
L 156.292401 228.836998 
L 156.465062 228.836998 
L 156.549555 227.953787 
L 161.797114 227.953787 
L 161.797114 227.512181 
L 162.287128 227.512181 
L 162.287128 227.070576 
L 164.811151 227.070576 
L 164.811151 226.628971 
L 168.137326 226.628971 
L 168.137326 226.187365 
L 169.773726 226.187365 
L 169.773726 225.74576 
L 170.394758 225.74576 
L 170.394758 225.304154 
L 171.297975 225.304154 
L 171.297975 224.862549 
L 176.269928 224.862549 
L 176.269928 224.420944 
L 177.851999 224.420944 
L 177.945784 223.537733 
L 178.231052 223.537733 
L 178.231052 223.096127 
L 178.901763 223.096127 
L 178.901763 222.654522 
L 179.580332 222.654522 
L 179.580332 222.212917 
L 181.329712 222.212917 
L 181.329712 221.771311 
L 181.502373 221.771311 
L 181.586866 220.8881 
L 185.988136 220.8881 
L 185.988136 220.446495 
L 186.834426 220.446495 
L 186.834426 220.00489 
L 189.338947 220.00489 
L 189.338947 219.563284 
L 189.848463 219.563284 
L 189.848463 219.121679 
L 190.34056 219.121679 
L 190.34056 218.680074 
L 190.457529 218.680074 
L 190.51322 217.796863 
L 190.597713 217.796863 
L 190.597713 217.355257 
L 193.174637 217.355257 
L 193.174637 216.913652 
L 194.053456 216.913652 
L 194.053456 216.472047 
L 194.811037 216.472047 
L 194.811037 216.030441 
L 195.845273 216.030441 
L 195.845273 215.588836 
L 196.739141 215.588836 
L 196.739141 215.14723 
L 198.51667 215.14723 
L 198.51667 214.705625 
L 198.85931 214.705625 
L 198.85931 214.26402 
L 202.185485 214.26402 
L 202.185485 213.822414 
L 202.88931 213.822414 
L 202.983096 212.939203 
L 203.268364 212.939203 
L 203.268364 212.497598 
L 203.821885 212.497598 
L 203.821885 212.055993 
L 203.939075 212.055993 
L 203.939075 211.614387 
L 204.617644 211.614387 
L 204.617644 211.172782 
L 211.900158 211.172782 
L 211.993943 210.289571 
L 212.279211 210.289571 
L 212.279211 209.847966 
L 212.949922 209.847966 
L 212.949922 209.40636 
L 213.628491 209.40636 
L 213.628491 208.964755 
L 214.110048 208.964755 
L 214.110048 208.52315 
L 215.49484 208.52315 
L 215.49484 208.081544 
L 215.781725 208.081544 
L 215.781725 207.639939 
L 215.954386 207.639939 
L 216.038879 206.756728 
L 217.460859 206.756728 
L 217.560137 205.873517 
L 219.832146 205.873517 
L 219.832146 205.431912 
L 221.286439 205.431912 
L 221.286439 204.990306 
L 222.175368 204.990306 
L 222.175368 204.548701 
L 224.300475 204.548701 
L 224.300475 204.107096 
L 224.505688 204.107096 
L 224.505688 203.66549 
L 224.822124 203.66549 
L 224.822124 203.223885 
L 227.62665 203.223885 
L 227.62665 202.782279 
L 229.26305 202.782279 
L 229.26305 202.340674 
L 232.018295 202.340674 
L 232.018295 201.899069 
L 233.021562 201.899069 
L 233.021562 201.457463 
L 237.028283 201.457463 
L 237.028283 201.015858 
L 237.341323 201.015858 
L 237.435108 200.132647 
L 237.720376 200.132647 
L 237.720376 199.691042 
L 238.391088 199.691042 
L 238.391088 199.249436 
L 238.675944 199.249436 
L 238.675944 198.807831 
L 239.069657 198.807831 
L 239.069657 198.366225 
L 239.261226 198.366225 
L 239.261226 197.92462 
L 239.712992 197.92462 
L 239.712992 197.483015 
L 240.268625 197.483015 
L 240.268625 197.041409 
L 241.372453 197.041409 
L 241.372453 196.599804 
L 241.598671 196.599804 
L 241.598671 196.158199 
L 242.018261 196.158199 
L 242.018261 195.716593 
L 242.597448 195.716593 
L 242.597448 195.274988 
L 243.665922 195.274988 
L 243.665922 194.833382 
L 244.208099 194.833382 
L 244.208099 194.391777 
L 245.258603 194.391777 
L 245.258603 193.950172 
L 245.38479 193.950172 
L 245.38479 193.508566 
L 245.954403 193.508566 
L 245.954403 193.066961 
L 249.914823 193.066961 
L 249.946853 192.18375 
L 251.241404 192.18375 
L 251.241404 191.742145 
L 251.608296 191.742145 
L 251.608296 191.300539 
L 251.742506 191.300539 
L 251.742506 190.858934 
L 252.604547 190.858934 
L 252.604547 190.417328 
L 254.9048 190.417328 
L 254.9048 189.975723 
L 257.594524 189.975723 
L 257.594524 189.534118 
L 258.030282 189.534118 
L 258.030282 189.092512 
L 258.755576 189.092512 
L 258.755576 188.650907 
L 258.928236 188.650907 
L 259.01273 187.767696 
L 259.901842 187.767696 
L 259.901842 187.326091 
L 260.905109 187.326091 
L 260.905109 186.884485 
L 262.752445 186.884485 
L 262.752445 186.44288 
L 263.921432 186.44288 
L 263.921432 186.001275 
L 264.260289 186.001275 
L 264.260289 185.559669 
L 264.427374 185.559669 
L 264.427374 185.118064 
L 264.600035 185.118064 
L 264.684528 184.234853 
L 267.144773 184.234853 
L 267.144773 183.793248 
L 267.274326 183.793248 
L 267.274326 183.351642 
L 269.256 183.351642 
L 269.256 182.910037 
L 269.482218 182.910037 
L 269.482218 182.468431 
L 269.932088 182.468431 
L 269.932088 182.026826 
L 270.600501 182.026826 
L 270.600501 181.585221 
L 272.091647 181.585221 
L 272.091647 181.143615 
L 272.236901 181.143615 
L 272.236901 180.70201 
L 272.381534 180.70201 
L 272.381534 180.260404 
L 272.559453 180.260404 
L 272.559453 179.818799 
L 272.946125 179.818799 
L 272.946125 179.377194 
L 274.076315 179.377194 
L 274.076315 178.935588 
L 276.272299 178.935588 
L 276.272299 178.493983 
L 277.049461 178.493983 
L 277.049461 178.052377 
L 277.908699 178.052377 
L 277.908699 177.610772 
L 279.124952 177.610772 
L 279.124952 177.169167 
L 279.626053 177.169167 
L 279.626053 176.727561 
L 280.315174 176.727561 
L 280.408959 175.84435 
L 280.694227 175.84435 
L 280.694227 175.402745 
L 281.364938 175.402745 
L 281.364938 174.96114 
L 281.79503 174.96114 
L 281.79503 174.519534 
L 281.96769 174.519534 
L 282.052184 173.194718 
L 285.986972 173.194718 
L 286.080758 172.311507 
L 286.152194 172.311507 
L 286.152194 171.869902 
L 286.366026 171.869902 
L 286.366026 171.428297 
L 287.036737 171.428297 
L 287.036737 170.986691 
L 287.299743 170.986691 
L 287.299743 170.545086 
L 287.715306 170.545086 
L 287.715306 170.10348 
L 290.31378 170.10348 
L 290.31378 169.661875 
L 291.372323 169.661875 
L 291.372323 169.22027 
L 291.80498 169.22027 
L 291.80498 168.778664 
L 292.920704 168.778664 
L 292.920704 168.337059 
L 293.639955 168.337059 
L 293.639955 167.895453 
L 295.276355 167.895453 
L 295.276355 167.453848 
L 298.592502 167.453848 
L 298.592502 167.012243 
L 300.265081 167.012243 
L 300.265081 166.570637 
L 300.443 166.570637 
L 300.443 166.129032 
L 303.354628 166.129032 
L 303.448413 165.245821 
L 303.733681 165.245821 
L 303.733681 164.804216 
L 304.404392 164.804216 
L 304.404392 164.36261 
L 305.082961 164.36261 
L 305.082961 163.921005 
L 310.414907 163.921005 
L 310.414907 163.4794 
L 310.587568 163.4794 
L 310.672061 162.596189 
L 315.919621 162.596189 
L 315.960158 161.712978 
L 318.933658 161.712978 
L 318.933658 161.271373 
L 320.023312 161.271373 
L 320.023312 160.829767 
L 322.259833 160.829767 
L 322.259833 160.388162 
L 323.896233 160.388162 
L 323.896233 159.946556 
L 325.69511 159.946556 
L 325.69511 159.504951 
L 331.974505 159.504951 
L 332.068291 158.62174 
L 332.353559 158.62174 
L 332.353559 158.180135 
L 333.02427 158.180135 
L 333.02427 157.738529 
L 333.702839 157.738529 
L 333.702839 157.296924 
L 343.062766 157.296924 
L 343.062766 156.855319 
L 344.580035 156.855319 
L 344.580035 156.413713 
L 371.682643 156.413713 
L 371.682643 155.972108 
L 453.192 155.972108 
L 453.192 155.972108 
" clip-path="url(#p26026ff270)" style="fill: none; stroke: #00bfbf; stroke-width: 3; stroke-linecap: square"/>
   </g>
   <g id="line2d_65">
    <path clip-path="url(#p26026ff270)" style="fill: none; stroke: #00bfbf; stroke-width: 3; stroke-linecap: square"/>
   </g>
   <g id="line2d_66">
    <path d="M 34.661459 288.453725 
L 34.16 288.453725 
L 453.192 288.453725 
L 461.8 288.453725 
" clip-path="url(#p26026ff270)" style="fill: none; stroke: #bf00bf; stroke-width: 3; stroke-linecap: square"/>
   </g>
   <g id="line2d_67">
    <path d="M 34.661459 288.453725 
L 34.16 288.453725 
L 453.192 288.453725 
L 461.8 288.453725 
" clip-path="url(#p26026ff270)" style="fill: none; stroke: #ff0000; stroke-width: 3; stroke-linecap: square"/>
   </g>
   <g id="line2d_68">
    <path d="M 243.676 291.28 
L 243.676 3 
" clip-path="url(#p26026ff270)" style="fill: none; stroke: #000000; stroke-width: 1.5; stroke-linecap: square"/>
   </g>
   <g id="line2d_69">
    <path d="M 34.16 147.14 
L 453.192 147.14 
" clip-path="url(#p26026ff270)" style="fill: none; stroke-dasharray: 2,3.3; stroke-dashoffset: 0; stroke: #000000; stroke-width: 2"/>
   </g>
   <g id="patch_3">
    <path d="M 34.16 291.28 
L 34.16 3 
" style="fill: none; stroke: #000000; stroke-width: 0.8; stroke-linejoin: miter; stroke-linecap: square"/>
   </g>
   <g id="patch_4">
    <path d="M 453.192 291.28 
L 453.192 3 
" style="fill: none; stroke: #000000; stroke-width: 0.8; stroke-linejoin: miter; stroke-linecap: square"/>
   </g>
   <g id="patch_5">
    <path d="M 34.16 291.28 
L 453.192 291.28 
" style="fill: none; stroke: #000000; stroke-width: 0.8; stroke-linejoin: miter; stroke-linecap: square"/>
   </g>
   <g id="patch_6">
    <path d="M 34.16 3 
L 453.192 3 
" style="fill: none; stroke: #000000; stroke-width: 0.8; stroke-linejoin: miter; stroke-linecap: square"/>
   </g>
   <g id="text_5">
    <!-- f15-f19,5-D -->
    <g transform="translate(330.91761 285.5144)scale(0.2 -0.2)">
     <defs>
      <path id="DejaVuSans-35" d="M 691 4666 
L 3169 4666 
L 3169 4134 
L 1269 4134 
L 1269 2991 
Q 1406 3038 1543 3061 
Q 1681 3084 1819 3084 
Q 2600 3084 3056 2656 
Q 3513 2228 3513 1497 
Q 3513 744 3044 326 
Q 2575 -91 1722 -91 
Q 1428 -91 1123 -41 
Q 819 9 494 109 
L 494 744 
Q 775 591 1075 516 
Q 1375 441 1709 441 
Q 2250 441 2565 725 
Q 2881 1009 2881 1497 
Q 2881 1984 2565 2268 
Q 2250 2553 1709 2553 
Q 1456 2553 1204 2497 
Q 953 2441 691 2322 
L 691 4666 
z
" transform="scale(0.015625)"/>
      <path id="DejaVuSans-39" d="M 703 97 
L 703 672 
Q 941 559 1184 500 
Q 1428 441 1663 441 
Q 2288 441 2617 861 
Q 2947 1281 2994 2138 
Q 2813 1869 2534 1725 
Q 2256 1581 1919 1581 
Q 1219 1581 811 2004 
Q 403 2428 403 3163 
Q 403 3881 828 4315 
Q 1253 4750 1959 4750 
Q 2769 4750 3195 4129 
Q 3622 3509 3622 2328 
Q 3622 1225 3098 567 
Q 2575 -91 1691 -91 
Q 1453 -91 1209 -44 
Q 966 3 703 97 
z
M 1959 2075 
Q 2384 2075 2632 2365 
Q 2881 2656 2881 3163 
Q 2881 3666 2632 3958 
Q 2384 4250 1959 4250 
Q 1534 4250 1286 3958 
Q 1038 3666 1038 3163 
Q 1038 2656 1286 2365 
Q 1534 2075 1959 2075 
z
" transform="scale(0.015625)"/>
      <path id="DejaVuSans-2c" d="M 750 794 
L 1409 794 
L 1409 256 
L 897 -744 
L 494 -744 
L 750 256 
L 750 794 
z
" transform="scale(0.015625)"/>
      <path id="DejaVuSans-44" d="M 1259 4147 
L 1259 519 
L 2022 519 
Q 2988 519 3436 956 
Q 3884 1394 3884 2338 
Q 3884 3275 3436 3711 
Q 2988 4147 2022 4147 
L 1259 4147 
z
M 628 4666 
L 1925 4666 
Q 3281 4666 3915 4102 
Q 4550 3538 4550 2338 
Q 4550 1131 3912 565 
Q 3275 0 1925 0 
L 628 0 
L 628 4666 
z
" transform="scale(0.015625)"/>
     </defs>
     <use xlink:href="#DejaVuSans-66"/>
     <use xlink:href="#DejaVuSans-31" x="35.205078"/>
     <use xlink:href="#DejaVuSans-35" x="98.828125"/>
     <use xlink:href="#DejaVuSans-2d" x="162.451172"/>
     <use xlink:href="#DejaVuSans-66" x="198.535156"/>
     <use xlink:href="#DejaVuSans-31" x="233.740234"/>
     <use xlink:href="#DejaVuSans-39" x="297.363281"/>
     <use xlink:href="#DejaVuSans-2c" x="360.986328"/>
     <use xlink:href="#DejaVuSans-35" x="392.773438"/>
     <use xlink:href="#DejaVuSans-2d" x="456.396484"/>
     <use xlink:href="#DejaVuSans-44" x="492.480469"/>
    </g>
   </g>
   <g id="text_6">
    <!-- v2.6 -->
    <g style="fill: #808080" transform="translate(232.765062 286.317512)scale(0.1 -0.1)">
     <defs>
      <path id="DejaVuSans-32" d="M 1228 531 
L 3431 531 
L 3431 0 
L 469 0 
L 469 531 
Q 828 903 1448 1529 
Q 2069 2156 2228 2338 
Q 2531 2678 2651 2914 
Q 2772 3150 2772 3378 
Q 2772 3750 2511 3984 
Q 2250 4219 1831 4219 
Q 1534 4219 1204 4116 
Q 875 4013 500 3803 
L 500 4441 
Q 881 4594 1212 4672 
Q 1544 4750 1819 4750 
Q 2544 4750 2975 4387 
Q 3406 4025 3406 3419 
Q 3406 3131 3298 2873 
Q 3191 2616 2906 2266 
Q 2828 2175 2409 1742 
Q 1991 1309 1228 531 
z
" transform="scale(0.015625)"/>
      <path id="DejaVuSans-2e" d="M 684 794 
L 1344 794 
L 1344 0 
L 684 0 
L 684 794 
z
" transform="scale(0.015625)"/>
      <path id="DejaVuSans-36" d="M 2113 2584 
Q 1688 2584 1439 2293 
Q 1191 2003 1191 1497 
Q 1191 994 1439 701 
Q 1688 409 2113 409 
Q 2538 409 2786 701 
Q 3034 994 3034 1497 
Q 3034 2003 2786 2293 
Q 2538 2584 2113 2584 
z
M 3366 4563 
L 3366 3988 
Q 3128 4100 2886 4159 
Q 2644 4219 2406 4219 
Q 1781 4219 1451 3797 
Q 1122 3375 1075 2522 
Q 1259 2794 1537 2939 
Q 1816 3084 2150 3084 
Q 2853 3084 3261 2657 
Q 3669 2231 3669 1497 
Q 3669 778 3244 343 
Q 2819 -91 2113 -91 
Q 1303 -91 875 529 
Q 447 1150 447 2328 
Q 447 3434 972 4092 
Q 1497 4750 2381 4750 
Q 2619 4750 2861 4703 
Q 3103 4656 3366 4563 
z
" transform="scale(0.015625)"/>
     </defs>
     <use xlink:href="#DejaVuSans-76"/>
     <use xlink:href="#DejaVuSans-32" x="59.179688"/>
     <use xlink:href="#DejaVuSans-2e" x="122.802734"/>
     <use xlink:href="#DejaVuSans-36" x="154.589844"/>
    </g>
   </g>
   <g id="legend_1">
    <g id="patch_7">
     <path d="M 48.16 136.425 
L 177.381875 136.425 
Q 181.381875 136.425 181.381875 132.425 
L 181.381875 17 
Q 181.381875 13 177.381875 13 
L 48.16 13 
Q 44.16 13 44.16 17 
L 44.16 132.425 
Q 44.16 136.425 48.16 136.425 
z
" style="fill: #ffffff; opacity: 0.2; stroke: #cccccc; stroke-linejoin: miter"/>
    </g>
    <g id="line2d_70">
     <path d="M 52.16 29.196875 
L 72.16 29.196875 
L 92.16 29.196875 
" style="fill: none; stroke: #000000; stroke-width: 3; stroke-linecap: square"/>
    </g>
    <g id="text_7">
     <!-- 1: 5/5 -->
     <g transform="translate(108.16 36.196875)scale(0.2 -0.2)">
      <defs>
       <path id="DejaVuSans-3a" d="M 750 794 
L 1409 794 
L 1409 0 
L 750 0 
L 750 794 
z
M 750 3309 
L 1409 3309 
L 1409 2516 
L 750 2516 
L 750 3309 
z
" transform="scale(0.015625)"/>
       <path id="DejaVuSans-2f" d="M 1625 4666 
L 2156 4666 
L 531 -594 
L 0 -594 
L 1625 4666 
z
" transform="scale(0.015625)"/>
      </defs>
      <use xlink:href="#DejaVuSans-31"/>
      <use xlink:href="#DejaVuSans-3a" x="63.623047"/>
      <use xlink:href="#DejaVuSans-20" x="97.314453"/>
      <use xlink:href="#DejaVuSans-35" x="129.101562"/>
      <use xlink:href="#DejaVuSans-2f" x="192.724609"/>
      <use xlink:href="#DejaVuSans-35" x="226.416016"/>
     </g>
    </g>
    <g id="line2d_71">
     <path d="M 52.16 58.553125 
L 72.16 58.553125 
L 92.16 58.553125 
" style="fill: none; stroke: #00bfbf; stroke-width: 3; stroke-linecap: square"/>
    </g>
    <g id="text_8">
     <!-- -1: 4/4 -->
     <g transform="translate(108.16 65.553125)scale(0.2 -0.2)">
      <defs>
       <path id="DejaVuSans-34" d="M 2419 4116 
L 825 1625 
L 2419 1625 
L 2419 4116 
z
M 2253 4666 
L 3047 4666 
L 3047 1625 
L 3713 1625 
L 3713 1100 
L 3047 1100 
L 3047 0 
L 2419 0 
L 2419 1100 
L 313 1100 
L 313 1709 
L 2253 4666 
z
" transform="scale(0.015625)"/>
      </defs>
      <use xlink:href="#DejaVuSans-2d"/>
      <use xlink:href="#DejaVuSans-31" x="36.083984"/>
      <use xlink:href="#DejaVuSans-3a" x="99.707031"/>
      <use xlink:href="#DejaVuSans-20" x="133.398438"/>
      <use xlink:href="#DejaVuSans-34" x="165.185547"/>
      <use xlink:href="#DejaVuSans-2f" x="228.808594"/>
      <use xlink:href="#DejaVuSans-34" x="262.5"/>
     </g>
    </g>
    <g id="line2d_72">
     <path d="M 52.16 87.909375 
L 72.16 87.909375 
L 92.16 87.909375 
" style="fill: none; stroke: #bf00bf; stroke-width: 3; stroke-linecap: square"/>
    </g>
    <g id="text_9">
     <!-- -4: 0/2 -->
     <g transform="translate(108.16 94.909375)scale(0.2 -0.2)">
      <use xlink:href="#DejaVuSans-2d"/>
      <use xlink:href="#DejaVuSans-34" x="36.083984"/>
      <use xlink:href="#DejaVuSans-3a" x="99.707031"/>
      <use xlink:href="#DejaVuSans-20" x="133.398438"/>
      <use xlink:href="#DejaVuSans-30" x="165.185547"/>
      <use xlink:href="#DejaVuSans-2f" x="228.808594"/>
      <use xlink:href="#DejaVuSans-32" x="262.5"/>
     </g>
    </g>
    <g id="line2d_73">
     <path d="M 52.16 117.265625 
L 72.16 117.265625 
L 92.16 117.265625 
" style="fill: none; stroke: #ff0000; stroke-width: 3; stroke-linecap: square"/>
    </g>
    <g id="text_10">
     <!-- -8: 0/1 -->
     <g transform="translate(108.16 124.265625)scale(0.2 -0.2)">
      <defs>
       <path id="DejaVuSans-38" d="M 2034 2216 
Q 1584 2216 1326 1975 
Q 1069 1734 1069 1313 
Q 1069 891 1326 650 
Q 1584 409 2034 409 
Q 2484 409 2743 651 
Q 3003 894 3003 1313 
Q 3003 1734 2745 1975 
Q 2488 2216 2034 2216 
z
M 1403 2484 
Q 997 2584 770 2862 
Q 544 3141 544 3541 
Q 544 4100 942 4425 
Q 1341 4750 2034 4750 
Q 2731 4750 3128 4425 
Q 3525 4100 3525 3541 
Q 3525 3141 3298 2862 
Q 3072 2584 2669 2484 
Q 3125 2378 3379 2068 
Q 3634 1759 3634 1313 
Q 3634 634 3220 271 
Q 2806 -91 2034 -91 
Q 1263 -91 848 271 
Q 434 634 434 1313 
Q 434 1759 690 2068 
Q 947 2378 1403 2484 
z
M 1172 3481 
Q 1172 3119 1398 2916 
Q 1625 2713 2034 2713 
Q 2441 2713 2670 2916 
Q 2900 3119 2900 3481 
Q 2900 3844 2670 4047 
Q 2441 4250 2034 4250 
Q 1625 4250 1398 4047 
Q 1172 3844 1172 3481 
z
" transform="scale(0.015625)"/>
      </defs>
      <use xlink:href="#DejaVuSans-2d"/>
      <use xlink:href="#DejaVuSans-38" x="36.083984"/>
      <use xlink:href="#DejaVuSans-3a" x="99.707031"/>
      <use xlink:href="#DejaVuSans-20" x="133.398438"/>
      <use xlink:href="#DejaVuSans-30" x="165.185547"/>
      <use xlink:href="#DejaVuSans-2f" x="228.808594"/>
      <use xlink:href="#DejaVuSans-31" x="262.5"/>
     </g>
    </g>
   </g>
  </g>
 </g>
 <defs>
  <clipPath id="p26026ff270">
   <rect x="34.16" y="3" width="419.032" height="288.28"/>
  </clipPath>
 </defs>
</svg>
