<?xml version="1.0" encoding="utf-8" standalone="no"?>
<!DOCTYPE svg PUBLIC "-//W3C//DTD SVG 1.1//EN"
  "http://www.w3.org/Graphics/SVG/1.1/DTD/svg11.dtd">
<svg xmlns:xlink="http://www.w3.org/1999/xlink" width="460.8pt" height="345.6pt" viewBox="0 0 460.8 345.6" xmlns="http://www.w3.org/2000/svg" version="1.1">
 <metadata>
  <rdf:RDF xmlns:dc="http://purl.org/dc/elements/1.1/" xmlns:cc="http://creativecommons.org/ns#" xmlns:rdf="http://www.w3.org/1999/02/22-rdf-syntax-ns#">
   <cc:Work>
    <dc:type rdf:resource="http://purl.org/dc/dcmitype/StillImage"/>
    <dc:date>2024-05-29T08:05:25.841658</dc:date>
    <dc:format>image/svg+xml</dc:format>
    <dc:creator>
     <cc:Agent>
      <dc:title>Matplotlib v3.5.1, https://matplotlib.org/</dc:title>
     </cc:Agent>
    </dc:creator>
   </cc:Work>
  </rdf:RDF>
 </metadata>
 <defs>
  <style type="text/css">*{stroke-linejoin: round; stroke-linecap: butt}</style>
 </defs>
 <g id="figure_1">
  <g id="patch_1">
   <path d="M 0 345.6 
L 460.8 345.6 
L 460.8 0 
L 0 0 
z
" style="fill: #ffffff"/>
  </g>
  <g id="axes_1">
   <g id="patch_2">
    <path d="M 57.6 298.944 
L 360.8064 298.944 
L 360.8064 6.912 
L 57.6 6.912 
z
" style="fill: #ffffff"/>
   </g>
   <g id="line2d_1">
    <path d="M 95.752617 298.944 
L 95.752617 297.512471 
L 109.69782 297.512471 
L 109.69782 296.080941 
L 111.81496 296.080941 
L 111.81496 294.649412 
L 112.076599 294.649412 
L 112.076599 293.217882 
L 114.692177 293.217882 
L 114.692177 291.786353 
L 114.82735 291.786353 
L 114.82735 290.354824 
L 118.634901 290.354824 
L 118.634901 288.923294 
L 118.889854 288.923294 
L 118.889854 287.491765 
L 120.28394 287.491765 
L 120.28394 286.060235 
L 121.329295 286.060235 
L 121.329295 284.628706 
L 122.766456 284.628706 
L 122.766456 283.197176 
L 124.046648 283.197176 
L 124.046648 281.765647 
L 124.265389 281.765647 
L 124.265389 280.334118 
L 125.929373 280.334118 
L 125.929373 278.902588 
L 126.661432 278.902588 
L 126.661432 277.471059 
L 129.334225 277.471059 
L 129.334225 276.039529 
L 129.846275 276.039529 
L 129.846275 274.608 
L 130.384069 274.608 
L 130.384069 273.176471 
L 132.604114 273.176471 
L 132.604114 271.744941 
L 136.068734 271.744941 
L 136.068734 270.313412 
L 136.850588 270.313412 
L 136.850588 268.881882 
L 138.438609 268.881882 
L 138.540708 266.018824 
L 140.565927 266.018824 
L 140.565927 264.587294 
L 141.349389 264.587294 
L 141.349389 263.155765 
L 143.006295 263.155765 
L 143.006295 261.724235 
L 144.575234 261.724235 
L 144.593695 258.861176 
L 144.71325 258.861176 
L 144.71325 257.429647 
L 147.207986 257.429647 
L 147.248088 254.566588 
L 148.261802 254.566588 
L 148.261802 253.135059 
L 149.274095 253.135059 
L 149.274095 251.703529 
L 150.593527 251.703529 
L 150.593527 250.272 
L 151.08337 250.272 
L 151.08337 248.840471 
L 151.725684 248.840471 
L 151.725684 247.408941 
L 152.007722 247.408941 
L 152.007722 245.977412 
L 152.162601 245.977412 
L 152.162601 244.545882 
L 152.285593 244.545882 
L 152.285593 243.114353 
L 152.486788 243.114353 
L 152.486788 241.682824 
L 152.745764 241.682824 
L 152.745764 240.251294 
L 153.01302 240.251294 
L 153.02481 237.388235 
L 153.218292 237.388235 
L 153.218292 235.956706 
L 153.375128 235.956706 
L 153.375128 234.525176 
L 153.519191 234.525176 
L 153.519191 233.093647 
L 153.639356 233.093647 
L 153.74742 230.230588 
L 153.860504 230.230588 
L 153.967309 227.367529 
L 154.095792 227.367529 
L 154.206807 224.504471 
L 154.278618 224.504471 
L 154.350155 220.209882 
L 154.432362 220.209882 
L 154.514211 215.915294 
L 154.590283 215.915294 
L 154.660647 213.052235 
L 154.730749 213.052235 
L 154.816671 210.189176 
L 154.912867 210.189176 
L 154.987347 207.326118 
L 155.061533 207.326118 
L 155.151225 204.463059 
L 155.193286 204.463059 
L 155.256201 201.6 
L 155.318906 201.6 
L 155.407382 197.305412 
L 155.443693 197.305412 
L 155.521266 193.010824 
L 155.608798 193.010824 
L 155.67546 190.147765 
L 155.767374 190.147765 
L 155.823323 187.284706 
L 155.879106 187.284706 
L 155.939772 184.421647 
L 156.000243 184.421647 
L 156.110604 178.695529 
L 156.160556 178.695529 
L 156.225294 175.832471 
L 156.393565 175.832471 
L 156.40834 172.969412 
L 156.652904 172.969412 
L 156.652904 171.537882 
L 156.875128 171.537882 
L 156.956595 167.243294 
L 157.061501 167.243294 
L 157.061501 165.811765 
L 157.217771 165.811765 
L 157.217771 164.380235 
L 157.354037 164.380235 
L 157.456756 161.517176 
L 157.563547 161.517176 
L 157.67434 157.222588 
L 157.775329 157.222588 
L 157.871225 154.359529 
L 157.953034 154.359529 
L 158.016419 151.496471 
L 158.088598 151.496471 
L 158.14255 148.633412 
L 158.214248 148.633412 
L 158.272301 145.770353 
L 158.343507 145.770353 
L 158.445394 140.044235 
L 158.515949 140.044235 
L 158.590624 135.749647 
L 158.66937 135.749647 
L 158.752135 132.886588 
L 158.81722 132.886588 
L 158.886396 130.023529 
L 158.938111 130.023529 
L 159.023989 125.728941 
L 159.088142 125.728941 
L 159.194578 121.434353 
L 159.236985 121.434353 
L 159.329944 117.139765 
L 159.376252 117.139765 
L 159.468527 112.845176 
L 159.510322 112.845176 
L 159.61025 107.119059 
L 159.651731 107.119059 
L 159.651731 105.687529 
L 160.769737 105.687529 
L 160.769737 104.256 
L 161.274388 104.256 
L 161.274388 102.824471 
L 161.765853 102.824471 
L 161.765853 101.392941 
L 162.277267 101.392941 
L 162.277267 99.961412 
L 162.711865 99.961412 
L 162.711865 98.529882 
L 163.308007 98.529882 
L 163.308007 97.098353 
L 163.872597 97.098353 
L 163.872597 95.666824 
L 164.171486 95.666824 
L 164.171486 94.235294 
L 164.758543 94.235294 
L 164.758543 92.803765 
L 165.507761 92.803765 
L 165.507761 91.372235 
L 165.993131 91.372235 
L 165.993131 89.940706 
L 166.385358 89.940706 
L 166.385358 88.509176 
L 166.678531 88.509176 
L 166.678531 87.077647 
L 167.051272 87.077647 
L 167.051272 85.646118 
L 167.468802 85.646118 
L 167.468802 84.214588 
L 167.775305 84.214588 
L 167.818303 81.351529 
L 168.258701 81.351529 
L 168.258701 79.92 
L 168.606832 79.92 
L 168.606832 78.488471 
L 168.89548 78.488471 
L 168.89548 77.056941 
L 169.388343 77.056941 
L 169.388343 75.625412 
L 169.856584 75.625412 
L 169.856584 74.193882 
L 170.197905 74.193882 
L 170.197905 72.762353 
L 170.477296 72.762353 
L 170.477296 71.330824 
L 170.846523 71.330824 
L 170.846523 69.899294 
L 171.246712 69.899294 
L 171.246712 68.467765 
L 171.418183 68.467765 
L 171.418183 67.036235 
L 171.895337 67.036235 
L 171.895337 65.604706 
L 172.250727 65.604706 
L 172.343812 62.741647 
L 172.880548 62.741647 
L 172.984858 59.878588 
L 173.298374 59.878588 
L 173.298374 58.447059 
L 173.547459 58.447059 
L 173.547459 57.015529 
L 174.397001 57.015529 
L 174.397001 55.584 
L 175.522524 55.584 
L 175.522524 54.152471 
L 180.454575 54.152471 
L 180.454575 52.720941 
L 183.68121 52.720941 
L 183.68121 51.289412 
L 183.95299 51.289412 
L 184.029116 18.364235 
L 184.110581 18.364235 
L 184.110581 16.932706 
L 184.265742 16.932706 
L 184.265742 15.501176 
L 184.454032 15.501176 
L 184.5138 12.638118 
L 184.585493 12.638118 
L 184.585493 11.206588 
L 184.803299 11.206588 
L 184.803299 9.775059 
L 185.118397 9.775059 
L 185.118397 8.343529 
L 185.377709 8.343529 
L 185.377709 6.912 
L 360.8064 6.912 
L 360.8064 6.912 
" style="fill: none; stroke: #f5deb3; stroke-width: 4; stroke-linecap: square"/>
   </g>
   <g id="line2d_2">
    <defs>
     <path id="m5357ec9299" d="M 0 7.778175 
L 7.778175 0 
L 0 -7.778175 
L -7.778175 0 
z
" style="stroke: #f5deb3; stroke-width: 1.5; stroke-linejoin: miter"/>
    </defs>
    <g>
     <use xlink:href="#m5357ec9299" x="136.068734" y="271.744941" style="fill: #f5deb3; stroke: #f5deb3; stroke-width: 1.5; stroke-linejoin: miter"/>
     <use xlink:href="#m5357ec9299" x="159.376252" y="115.708235" style="fill: #f5deb3; stroke: #f5deb3; stroke-width: 1.5; stroke-linejoin: miter"/>
     <use xlink:href="#m5357ec9299" x="185.377709" y="8.343529" style="fill: #f5deb3; stroke: #f5deb3; stroke-width: 1.5; stroke-linejoin: miter"/>
     <use xlink:href="#m5357ec9299" x="185.377709" y="6.912" style="fill: #f5deb3; stroke: #f5deb3; stroke-width: 1.5; stroke-linejoin: miter"/>
     <use xlink:href="#m5357ec9299" x="360.8064" y="6.912" style="fill: #f5deb3; stroke: #f5deb3; stroke-width: 1.5; stroke-linejoin: miter"/>
    </g>
   </g>
   <g id="line2d_3">
    <path style="fill: none; stroke: #f5deb3; stroke-width: 4; stroke-linecap: square"/>
    <g/>
   </g>
   <g id="line2d_4">
    <path d="M 360.8064 6.912 
L 380.514816 12.75264 
" style="fill: none; stroke: #f5deb3; stroke-width: 4; stroke-linecap: square"/>
    <g>
     <use xlink:href="#m5357ec9299" x="360.8064" y="6.912" style="fill: #f5deb3; stroke: #f5deb3; stroke-width: 1.5; stroke-linejoin: miter"/>
     <use xlink:href="#m5357ec9299" x="380.514816" y="12.75264" style="fill: #f5deb3; stroke: #f5deb3; stroke-width: 1.5; stroke-linejoin: miter"/>
    </g>
   </g>
   <g id="matplotlib.axis_1">
    <g id="xtick_1">
     <g id="line2d_5">
      <path d="M 57.6 298.944 
L 57.6 6.912 
" clip-path="url(#pfff5125d06)" style="fill: none; stroke: #b0b0b0; stroke-width: 0.8; stroke-linecap: square"/>
     </g>
     <g id="line2d_6">
      <defs>
       <path id="m2c235211fe" d="M 0 0 
L 0 3.5 
" style="stroke: #000000; stroke-width: 0.8"/>
      </defs>
      <g>
       <use xlink:href="#m2c235211fe" x="57.6" y="298.944" style="stroke: #000000; stroke-width: 0.8"/>
      </g>
     </g>
     <g id="text_1">
      <!-- 0 -->
      <g transform="translate(52.191875 318.861344)scale(0.17 -0.17)">
       <defs>
        <path id="DejaVuSans-30" d="M 2034 4250 
Q 1547 4250 1301 3770 
Q 1056 3291 1056 2328 
Q 1056 1369 1301 889 
Q 1547 409 2034 409 
Q 2525 409 2770 889 
Q 3016 1369 3016 2328 
Q 3016 3291 2770 3770 
Q 2525 4250 2034 4250 
z
M 2034 4750 
Q 2819 4750 3233 4129 
Q 3647 3509 3647 2328 
Q 3647 1150 3233 529 
Q 2819 -91 2034 -91 
Q 1250 -91 836 529 
Q 422 1150 422 2328 
Q 422 3509 836 4129 
Q 1250 4750 2034 4750 
z
" transform="scale(0.015625)"/>
       </defs>
       <use xlink:href="#DejaVuSans-30"/>
      </g>
     </g>
    </g>
    <g id="xtick_2">
     <g id="line2d_7">
      <path d="M 144.2304 298.944 
L 144.2304 6.912 
" clip-path="url(#pfff5125d06)" style="fill: none; stroke: #b0b0b0; stroke-width: 0.8; stroke-linecap: square"/>
     </g>
     <g id="line2d_8">
      <g>
       <use xlink:href="#m2c235211fe" x="144.2304" y="298.944" style="stroke: #000000; stroke-width: 0.8"/>
      </g>
     </g>
     <g id="text_2">
      <!-- 2 -->
      <g transform="translate(138.822275 318.861344)scale(0.17 -0.17)">
       <defs>
        <path id="DejaVuSans-32" d="M 1228 531 
L 3431 531 
L 3431 0 
L 469 0 
L 469 531 
Q 828 903 1448 1529 
Q 2069 2156 2228 2338 
Q 2531 2678 2651 2914 
Q 2772 3150 2772 3378 
Q 2772 3750 2511 3984 
Q 2250 4219 1831 4219 
Q 1534 4219 1204 4116 
Q 875 4013 500 3803 
L 500 4441 
Q 881 4594 1212 4672 
Q 1544 4750 1819 4750 
Q 2544 4750 2975 4387 
Q 3406 4025 3406 3419 
Q 3406 3131 3298 2873 
Q 3191 2616 2906 2266 
Q 2828 2175 2409 1742 
Q 1991 1309 1228 531 
z
" transform="scale(0.015625)"/>
       </defs>
       <use xlink:href="#DejaVuSans-32"/>
      </g>
     </g>
    </g>
    <g id="xtick_3">
     <g id="line2d_9">
      <path d="M 230.8608 298.944 
L 230.8608 6.912 
" clip-path="url(#pfff5125d06)" style="fill: none; stroke: #b0b0b0; stroke-width: 0.8; stroke-linecap: square"/>
     </g>
     <g id="line2d_10">
      <g>
       <use xlink:href="#m2c235211fe" x="230.8608" y="298.944" style="stroke: #000000; stroke-width: 0.8"/>
      </g>
     </g>
     <g id="text_3">
      <!-- 4 -->
      <g transform="translate(225.452675 318.861344)scale(0.17 -0.17)">
       <defs>
        <path id="DejaVuSans-34" d="M 2419 4116 
L 825 1625 
L 2419 1625 
L 2419 4116 
z
M 2253 4666 
L 3047 4666 
L 3047 1625 
L 3713 1625 
L 3713 1100 
L 3047 1100 
L 3047 0 
L 2419 0 
L 2419 1100 
L 313 1100 
L 313 1709 
L 2253 4666 
z
" transform="scale(0.015625)"/>
       </defs>
       <use xlink:href="#DejaVuSans-34"/>
      </g>
     </g>
    </g>
    <g id="xtick_4">
     <g id="line2d_11">
      <path d="M 317.4912 298.944 
L 317.4912 6.912 
" clip-path="url(#pfff5125d06)" style="fill: none; stroke: #b0b0b0; stroke-width: 0.8; stroke-linecap: square"/>
     </g>
     <g id="line2d_12">
      <g>
       <use xlink:href="#m2c235211fe" x="317.4912" y="298.944" style="stroke: #000000; stroke-width: 0.8"/>
      </g>
     </g>
     <g id="text_4">
      <!-- 6 -->
      <g transform="translate(312.083075 318.861344)scale(0.17 -0.17)">
       <defs>
        <path id="DejaVuSans-36" d="M 2113 2584 
Q 1688 2584 1439 2293 
Q 1191 2003 1191 1497 
Q 1191 994 1439 701 
Q 1688 409 2113 409 
Q 2538 409 2786 701 
Q 3034 994 3034 1497 
Q 3034 2003 2786 2293 
Q 2538 2584 2113 2584 
z
M 3366 4563 
L 3366 3988 
Q 3128 4100 2886 4159 
Q 2644 4219 2406 4219 
Q 1781 4219 1451 3797 
Q 1122 3375 1075 2522 
Q 1259 2794 1537 2939 
Q 1816 3084 2150 3084 
Q 2853 3084 3261 2657 
Q 3669 2231 3669 1497 
Q 3669 778 3244 343 
Q 2819 -91 2113 -91 
Q 1303 -91 875 529 
Q 447 1150 447 2328 
Q 447 3434 972 4092 
Q 1497 4750 2381 4750 
Q 2619 4750 2861 4703 
Q 3103 4656 3366 4563 
z
" transform="scale(0.015625)"/>
       </defs>
       <use xlink:href="#DejaVuSans-36"/>
      </g>
     </g>
    </g>
    <g id="xtick_5">
     <g id="line2d_13">
      <path d="M 100.9152 298.944 
L 100.9152 6.912 
" clip-path="url(#pfff5125d06)" style="fill: none; stroke: #b0b0b0; stroke-width: 0.8; stroke-linecap: square"/>
     </g>
     <g id="line2d_14">
      <defs>
       <path id="m44e1834bf0" d="M 0 0 
L 0 2 
" style="stroke: #000000; stroke-width: 0.6"/>
      </defs>
      <g>
       <use xlink:href="#m44e1834bf0" x="100.9152" y="298.944" style="stroke: #000000; stroke-width: 0.6"/>
      </g>
     </g>
    </g>
    <g id="xtick_6">
     <g id="line2d_15">
      <path d="M 187.5456 298.944 
L 187.5456 6.912 
" clip-path="url(#pfff5125d06)" style="fill: none; stroke: #b0b0b0; stroke-width: 0.8; stroke-linecap: square"/>
     </g>
     <g id="line2d_16">
      <g>
       <use xlink:href="#m44e1834bf0" x="187.5456" y="298.944" style="stroke: #000000; stroke-width: 0.6"/>
      </g>
     </g>
    </g>
    <g id="xtick_7">
     <g id="line2d_17">
      <path d="M 274.176 298.944 
L 274.176 6.912 
" clip-path="url(#pfff5125d06)" style="fill: none; stroke: #b0b0b0; stroke-width: 0.8; stroke-linecap: square"/>
     </g>
     <g id="line2d_18">
      <g>
       <use xlink:href="#m44e1834bf0" x="274.176" y="298.944" style="stroke: #000000; stroke-width: 0.6"/>
      </g>
     </g>
    </g>
    <g id="xtick_8">
     <g id="line2d_19">
      <path d="M 360.8064 298.944 
L 360.8064 6.912 
" clip-path="url(#pfff5125d06)" style="fill: none; stroke: #b0b0b0; stroke-width: 0.8; stroke-linecap: square"/>
     </g>
     <g id="line2d_20">
      <g>
       <use xlink:href="#m44e1834bf0" x="360.8064" y="298.944" style="stroke: #000000; stroke-width: 0.6"/>
      </g>
     </g>
    </g>
    <g id="text_5">
     <!-- log10(# f-evals / dimension) -->
     <g transform="translate(88.823278 339.314156)scale(0.17 -0.17)">
      <defs>
       <path id="DejaVuSans-6c" d="M 603 4863 
L 1178 4863 
L 1178 0 
L 603 0 
L 603 4863 
z
" transform="scale(0.015625)"/>
       <path id="DejaVuSans-6f" d="M 1959 3097 
Q 1497 3097 1228 2736 
Q 959 2375 959 1747 
Q 959 1119 1226 758 
Q 1494 397 1959 397 
Q 2419 397 2687 759 
Q 2956 1122 2956 1747 
Q 2956 2369 2687 2733 
Q 2419 3097 1959 3097 
z
M 1959 3584 
Q 2709 3584 3137 3096 
Q 3566 2609 3566 1747 
Q 3566 888 3137 398 
Q 2709 -91 1959 -91 
Q 1206 -91 779 398 
Q 353 888 353 1747 
Q 353 2609 779 3096 
Q 1206 3584 1959 3584 
z
" transform="scale(0.015625)"/>
       <path id="DejaVuSans-67" d="M 2906 1791 
Q 2906 2416 2648 2759 
Q 2391 3103 1925 3103 
Q 1463 3103 1205 2759 
Q 947 2416 947 1791 
Q 947 1169 1205 825 
Q 1463 481 1925 481 
Q 2391 481 2648 825 
Q 2906 1169 2906 1791 
z
M 3481 434 
Q 3481 -459 3084 -895 
Q 2688 -1331 1869 -1331 
Q 1566 -1331 1297 -1286 
Q 1028 -1241 775 -1147 
L 775 -588 
Q 1028 -725 1275 -790 
Q 1522 -856 1778 -856 
Q 2344 -856 2625 -561 
Q 2906 -266 2906 331 
L 2906 616 
Q 2728 306 2450 153 
Q 2172 0 1784 0 
Q 1141 0 747 490 
Q 353 981 353 1791 
Q 353 2603 747 3093 
Q 1141 3584 1784 3584 
Q 2172 3584 2450 3431 
Q 2728 3278 2906 2969 
L 2906 3500 
L 3481 3500 
L 3481 434 
z
" transform="scale(0.015625)"/>
       <path id="DejaVuSans-31" d="M 794 531 
L 1825 531 
L 1825 4091 
L 703 3866 
L 703 4441 
L 1819 4666 
L 2450 4666 
L 2450 531 
L 3481 531 
L 3481 0 
L 794 0 
L 794 531 
z
" transform="scale(0.015625)"/>
       <path id="DejaVuSans-28" d="M 1984 4856 
Q 1566 4138 1362 3434 
Q 1159 2731 1159 2009 
Q 1159 1288 1364 580 
Q 1569 -128 1984 -844 
L 1484 -844 
Q 1016 -109 783 600 
Q 550 1309 550 2009 
Q 550 2706 781 3412 
Q 1013 4119 1484 4856 
L 1984 4856 
z
" transform="scale(0.015625)"/>
       <path id="DejaVuSans-23" d="M 3272 2816 
L 2363 2816 
L 2100 1772 
L 3016 1772 
L 3272 2816 
z
M 2803 4594 
L 2478 3297 
L 3391 3297 
L 3719 4594 
L 4219 4594 
L 3897 3297 
L 4872 3297 
L 4872 2816 
L 3775 2816 
L 3519 1772 
L 4513 1772 
L 4513 1294 
L 3397 1294 
L 3072 0 
L 2572 0 
L 2894 1294 
L 1978 1294 
L 1656 0 
L 1153 0 
L 1478 1294 
L 494 1294 
L 494 1772 
L 1594 1772 
L 1856 2816 
L 850 2816 
L 850 3297 
L 1978 3297 
L 2297 4594 
L 2803 4594 
z
" transform="scale(0.015625)"/>
       <path id="DejaVuSans-20" transform="scale(0.015625)"/>
       <path id="DejaVuSans-66" d="M 2375 4863 
L 2375 4384 
L 1825 4384 
Q 1516 4384 1395 4259 
Q 1275 4134 1275 3809 
L 1275 3500 
L 2222 3500 
L 2222 3053 
L 1275 3053 
L 1275 0 
L 697 0 
L 697 3053 
L 147 3053 
L 147 3500 
L 697 3500 
L 697 3744 
Q 697 4328 969 4595 
Q 1241 4863 1831 4863 
L 2375 4863 
z
" transform="scale(0.015625)"/>
       <path id="DejaVuSans-2d" d="M 313 2009 
L 1997 2009 
L 1997 1497 
L 313 1497 
L 313 2009 
z
" transform="scale(0.015625)"/>
       <path id="DejaVuSans-65" d="M 3597 1894 
L 3597 1613 
L 953 1613 
Q 991 1019 1311 708 
Q 1631 397 2203 397 
Q 2534 397 2845 478 
Q 3156 559 3463 722 
L 3463 178 
Q 3153 47 2828 -22 
Q 2503 -91 2169 -91 
Q 1331 -91 842 396 
Q 353 884 353 1716 
Q 353 2575 817 3079 
Q 1281 3584 2069 3584 
Q 2775 3584 3186 3129 
Q 3597 2675 3597 1894 
z
M 3022 2063 
Q 3016 2534 2758 2815 
Q 2500 3097 2075 3097 
Q 1594 3097 1305 2825 
Q 1016 2553 972 2059 
L 3022 2063 
z
" transform="scale(0.015625)"/>
       <path id="DejaVuSans-76" d="M 191 3500 
L 800 3500 
L 1894 563 
L 2988 3500 
L 3597 3500 
L 2284 0 
L 1503 0 
L 191 3500 
z
" transform="scale(0.015625)"/>
       <path id="DejaVuSans-61" d="M 2194 1759 
Q 1497 1759 1228 1600 
Q 959 1441 959 1056 
Q 959 750 1161 570 
Q 1363 391 1709 391 
Q 2188 391 2477 730 
Q 2766 1069 2766 1631 
L 2766 1759 
L 2194 1759 
z
M 3341 1997 
L 3341 0 
L 2766 0 
L 2766 531 
Q 2569 213 2275 61 
Q 1981 -91 1556 -91 
Q 1019 -91 701 211 
Q 384 513 384 1019 
Q 384 1609 779 1909 
Q 1175 2209 1959 2209 
L 2766 2209 
L 2766 2266 
Q 2766 2663 2505 2880 
Q 2244 3097 1772 3097 
Q 1472 3097 1187 3025 
Q 903 2953 641 2809 
L 641 3341 
Q 956 3463 1253 3523 
Q 1550 3584 1831 3584 
Q 2591 3584 2966 3190 
Q 3341 2797 3341 1997 
z
" transform="scale(0.015625)"/>
       <path id="DejaVuSans-73" d="M 2834 3397 
L 2834 2853 
Q 2591 2978 2328 3040 
Q 2066 3103 1784 3103 
Q 1356 3103 1142 2972 
Q 928 2841 928 2578 
Q 928 2378 1081 2264 
Q 1234 2150 1697 2047 
L 1894 2003 
Q 2506 1872 2764 1633 
Q 3022 1394 3022 966 
Q 3022 478 2636 193 
Q 2250 -91 1575 -91 
Q 1294 -91 989 -36 
Q 684 19 347 128 
L 347 722 
Q 666 556 975 473 
Q 1284 391 1588 391 
Q 1994 391 2212 530 
Q 2431 669 2431 922 
Q 2431 1156 2273 1281 
Q 2116 1406 1581 1522 
L 1381 1569 
Q 847 1681 609 1914 
Q 372 2147 372 2553 
Q 372 3047 722 3315 
Q 1072 3584 1716 3584 
Q 2034 3584 2315 3537 
Q 2597 3491 2834 3397 
z
" transform="scale(0.015625)"/>
       <path id="DejaVuSans-2f" d="M 1625 4666 
L 2156 4666 
L 531 -594 
L 0 -594 
L 1625 4666 
z
" transform="scale(0.015625)"/>
       <path id="DejaVuSans-64" d="M 2906 2969 
L 2906 4863 
L 3481 4863 
L 3481 0 
L 2906 0 
L 2906 525 
Q 2725 213 2448 61 
Q 2172 -91 1784 -91 
Q 1150 -91 751 415 
Q 353 922 353 1747 
Q 353 2572 751 3078 
Q 1150 3584 1784 3584 
Q 2172 3584 2448 3432 
Q 2725 3281 2906 2969 
z
M 947 1747 
Q 947 1113 1208 752 
Q 1469 391 1925 391 
Q 2381 391 2643 752 
Q 2906 1113 2906 1747 
Q 2906 2381 2643 2742 
Q 2381 3103 1925 3103 
Q 1469 3103 1208 2742 
Q 947 2381 947 1747 
z
" transform="scale(0.015625)"/>
       <path id="DejaVuSans-69" d="M 603 3500 
L 1178 3500 
L 1178 0 
L 603 0 
L 603 3500 
z
M 603 4863 
L 1178 4863 
L 1178 4134 
L 603 4134 
L 603 4863 
z
" transform="scale(0.015625)"/>
       <path id="DejaVuSans-6d" d="M 3328 2828 
Q 3544 3216 3844 3400 
Q 4144 3584 4550 3584 
Q 5097 3584 5394 3201 
Q 5691 2819 5691 2113 
L 5691 0 
L 5113 0 
L 5113 2094 
Q 5113 2597 4934 2840 
Q 4756 3084 4391 3084 
Q 3944 3084 3684 2787 
Q 3425 2491 3425 1978 
L 3425 0 
L 2847 0 
L 2847 2094 
Q 2847 2600 2669 2842 
Q 2491 3084 2119 3084 
Q 1678 3084 1418 2786 
Q 1159 2488 1159 1978 
L 1159 0 
L 581 0 
L 581 3500 
L 1159 3500 
L 1159 2956 
Q 1356 3278 1631 3431 
Q 1906 3584 2284 3584 
Q 2666 3584 2933 3390 
Q 3200 3197 3328 2828 
z
" transform="scale(0.015625)"/>
       <path id="DejaVuSans-6e" d="M 3513 2113 
L 3513 0 
L 2938 0 
L 2938 2094 
Q 2938 2591 2744 2837 
Q 2550 3084 2163 3084 
Q 1697 3084 1428 2787 
Q 1159 2491 1159 1978 
L 1159 0 
L 581 0 
L 581 3500 
L 1159 3500 
L 1159 2956 
Q 1366 3272 1645 3428 
Q 1925 3584 2291 3584 
Q 2894 3584 3203 3211 
Q 3513 2838 3513 2113 
z
" transform="scale(0.015625)"/>
       <path id="DejaVuSans-29" d="M 513 4856 
L 1013 4856 
Q 1481 4119 1714 3412 
Q 1947 2706 1947 2009 
Q 1947 1309 1714 600 
Q 1481 -109 1013 -844 
L 513 -844 
Q 928 -128 1133 580 
Q 1338 1288 1338 2009 
Q 1338 2731 1133 3434 
Q 928 4138 513 4856 
z
" transform="scale(0.015625)"/>
      </defs>
      <use xlink:href="#DejaVuSans-6c"/>
      <use xlink:href="#DejaVuSans-6f" x="27.783203"/>
      <use xlink:href="#DejaVuSans-67" x="88.964844"/>
      <use xlink:href="#DejaVuSans-31" x="152.441406"/>
      <use xlink:href="#DejaVuSans-30" x="216.064453"/>
      <use xlink:href="#DejaVuSans-28" x="279.6875"/>
      <use xlink:href="#DejaVuSans-23" x="318.701172"/>
      <use xlink:href="#DejaVuSans-20" x="402.490234"/>
      <use xlink:href="#DejaVuSans-66" x="434.277344"/>
      <use xlink:href="#DejaVuSans-2d" x="463.982422"/>
      <use xlink:href="#DejaVuSans-65" x="500.066406"/>
      <use xlink:href="#DejaVuSans-76" x="561.589844"/>
      <use xlink:href="#DejaVuSans-61" x="620.769531"/>
      <use xlink:href="#DejaVuSans-6c" x="682.048828"/>
      <use xlink:href="#DejaVuSans-73" x="709.832031"/>
      <use xlink:href="#DejaVuSans-20" x="761.931641"/>
      <use xlink:href="#DejaVuSans-2f" x="793.71875"/>
      <use xlink:href="#DejaVuSans-20" x="827.410156"/>
      <use xlink:href="#DejaVuSans-64" x="859.197266"/>
      <use xlink:href="#DejaVuSans-69" x="922.673828"/>
      <use xlink:href="#DejaVuSans-6d" x="950.457031"/>
      <use xlink:href="#DejaVuSans-65" x="1047.869141"/>
      <use xlink:href="#DejaVuSans-6e" x="1109.392578"/>
      <use xlink:href="#DejaVuSans-73" x="1172.771484"/>
      <use xlink:href="#DejaVuSans-69" x="1224.871094"/>
      <use xlink:href="#DejaVuSans-6f" x="1252.654297"/>
      <use xlink:href="#DejaVuSans-6e" x="1313.835938"/>
      <use xlink:href="#DejaVuSans-29" x="1377.214844"/>
     </g>
    </g>
   </g>
   <g id="matplotlib.axis_2">
    <g id="ytick_1">
     <g id="line2d_21">
      <path d="M 57.6 298.944 
L 360.8064 298.944 
" clip-path="url(#pfff5125d06)" style="fill: none; stroke: #b0b0b0; stroke-width: 0.8; stroke-linecap: square"/>
     </g>
     <g id="line2d_22">
      <defs>
       <path id="m2a297e2756" d="M 0 0 
L -3.5 0 
" style="stroke: #000000; stroke-width: 0.8"/>
      </defs>
      <g>
       <use xlink:href="#m2a297e2756" x="57.6" y="298.944" style="stroke: #000000; stroke-width: 0.8"/>
      </g>
     </g>
     <g id="text_6">
      <!-- 0.0 -->
      <g transform="translate(25.155 305.02275)scale(0.16 -0.16)">
       <defs>
        <path id="DejaVuSans-2e" d="M 684 794 
L 1344 794 
L 1344 0 
L 684 0 
L 684 794 
z
" transform="scale(0.015625)"/>
       </defs>
       <use xlink:href="#DejaVuSans-30"/>
       <use xlink:href="#DejaVuSans-2e" x="63.623047"/>
       <use xlink:href="#DejaVuSans-30" x="95.410156"/>
      </g>
     </g>
    </g>
    <g id="ytick_2">
     <g id="line2d_23">
      <path d="M 57.6 240.5376 
L 360.8064 240.5376 
" clip-path="url(#pfff5125d06)" style="fill: none; stroke: #b0b0b0; stroke-width: 0.8; stroke-linecap: square"/>
     </g>
     <g id="line2d_24">
      <g>
       <use xlink:href="#m2a297e2756" x="57.6" y="240.5376" style="stroke: #000000; stroke-width: 0.8"/>
      </g>
     </g>
     <g id="text_7">
      <!-- 0.2 -->
      <g transform="translate(25.155 246.61635)scale(0.16 -0.16)">
       <use xlink:href="#DejaVuSans-30"/>
       <use xlink:href="#DejaVuSans-2e" x="63.623047"/>
       <use xlink:href="#DejaVuSans-32" x="95.410156"/>
      </g>
     </g>
    </g>
    <g id="ytick_3">
     <g id="line2d_25">
      <path d="M 57.6 182.1312 
L 360.8064 182.1312 
" clip-path="url(#pfff5125d06)" style="fill: none; stroke: #b0b0b0; stroke-width: 0.8; stroke-linecap: square"/>
     </g>
     <g id="line2d_26">
      <g>
       <use xlink:href="#m2a297e2756" x="57.6" y="182.1312" style="stroke: #000000; stroke-width: 0.8"/>
      </g>
     </g>
     <g id="text_8">
      <!-- 0.4 -->
      <g transform="translate(25.155 188.20995)scale(0.16 -0.16)">
       <use xlink:href="#DejaVuSans-30"/>
       <use xlink:href="#DejaVuSans-2e" x="63.623047"/>
       <use xlink:href="#DejaVuSans-34" x="95.410156"/>
      </g>
     </g>
    </g>
    <g id="ytick_4">
     <g id="line2d_27">
      <path d="M 57.6 123.7248 
L 360.8064 123.7248 
" clip-path="url(#pfff5125d06)" style="fill: none; stroke: #b0b0b0; stroke-width: 0.8; stroke-linecap: square"/>
     </g>
     <g id="line2d_28">
      <g>
       <use xlink:href="#m2a297e2756" x="57.6" y="123.7248" style="stroke: #000000; stroke-width: 0.8"/>
      </g>
     </g>
     <g id="text_9">
      <!-- 0.6 -->
      <g transform="translate(25.155 129.80355)scale(0.16 -0.16)">
       <use xlink:href="#DejaVuSans-30"/>
       <use xlink:href="#DejaVuSans-2e" x="63.623047"/>
       <use xlink:href="#DejaVuSans-36" x="95.410156"/>
      </g>
     </g>
    </g>
    <g id="ytick_5">
     <g id="line2d_29">
      <path d="M 57.6 65.3184 
L 360.8064 65.3184 
" clip-path="url(#pfff5125d06)" style="fill: none; stroke: #b0b0b0; stroke-width: 0.8; stroke-linecap: square"/>
     </g>
     <g id="line2d_30">
      <g>
       <use xlink:href="#m2a297e2756" x="57.6" y="65.3184" style="stroke: #000000; stroke-width: 0.8"/>
      </g>
     </g>
     <g id="text_10">
      <!-- 0.8 -->
      <g transform="translate(25.155 71.39715)scale(0.16 -0.16)">
       <defs>
        <path id="DejaVuSans-38" d="M 2034 2216 
Q 1584 2216 1326 1975 
Q 1069 1734 1069 1313 
Q 1069 891 1326 650 
Q 1584 409 2034 409 
Q 2484 409 2743 651 
Q 3003 894 3003 1313 
Q 3003 1734 2745 1975 
Q 2488 2216 2034 2216 
z
M 1403 2484 
Q 997 2584 770 2862 
Q 544 3141 544 3541 
Q 544 4100 942 4425 
Q 1341 4750 2034 4750 
Q 2731 4750 3128 4425 
Q 3525 4100 3525 3541 
Q 3525 3141 3298 2862 
Q 3072 2584 2669 2484 
Q 3125 2378 3379 2068 
Q 3634 1759 3634 1313 
Q 3634 634 3220 271 
Q 2806 -91 2034 -91 
Q 1263 -91 848 271 
Q 434 634 434 1313 
Q 434 1759 690 2068 
Q 947 2378 1403 2484 
z
M 1172 3481 
Q 1172 3119 1398 2916 
Q 1625 2713 2034 2713 
Q 2441 2713 2670 2916 
Q 2900 3119 2900 3481 
Q 2900 3844 2670 4047 
Q 2441 4250 2034 4250 
Q 1625 4250 1398 4047 
Q 1172 3844 1172 3481 
z
" transform="scale(0.015625)"/>
       </defs>
       <use xlink:href="#DejaVuSans-30"/>
       <use xlink:href="#DejaVuSans-2e" x="63.623047"/>
       <use xlink:href="#DejaVuSans-38" x="95.410156"/>
      </g>
     </g>
    </g>
    <g id="ytick_6">
     <g id="line2d_31">
      <path d="M 57.6 6.912 
L 360.8064 6.912 
" clip-path="url(#pfff5125d06)" style="fill: none; stroke: #b0b0b0; stroke-width: 0.8; stroke-linecap: square"/>
     </g>
     <g id="line2d_32">
      <g>
       <use xlink:href="#m2a297e2756" x="57.6" y="6.912" style="stroke: #000000; stroke-width: 0.8"/>
      </g>
     </g>
     <g id="text_11">
      <!-- 1.0 -->
      <g transform="translate(25.155 12.99075)scale(0.16 -0.16)">
       <use xlink:href="#DejaVuSans-31"/>
       <use xlink:href="#DejaVuSans-2e" x="63.623047"/>
       <use xlink:href="#DejaVuSans-30" x="95.410156"/>
      </g>
     </g>
    </g>
    <g id="text_12">
     <!-- Fraction of function,target pairs -->
     <g transform="translate(17.619531 287.313)rotate(-90)scale(0.17 -0.17)">
      <defs>
       <path id="DejaVuSans-46" d="M 628 4666 
L 3309 4666 
L 3309 4134 
L 1259 4134 
L 1259 2759 
L 3109 2759 
L 3109 2228 
L 1259 2228 
L 1259 0 
L 628 0 
L 628 4666 
z
" transform="scale(0.015625)"/>
       <path id="DejaVuSans-72" d="M 2631 2963 
Q 2534 3019 2420 3045 
Q 2306 3072 2169 3072 
Q 1681 3072 1420 2755 
Q 1159 2438 1159 1844 
L 1159 0 
L 581 0 
L 581 3500 
L 1159 3500 
L 1159 2956 
Q 1341 3275 1631 3429 
Q 1922 3584 2338 3584 
Q 2397 3584 2469 3576 
Q 2541 3569 2628 3553 
L 2631 2963 
z
" transform="scale(0.015625)"/>
       <path id="DejaVuSans-63" d="M 3122 3366 
L 3122 2828 
Q 2878 2963 2633 3030 
Q 2388 3097 2138 3097 
Q 1578 3097 1268 2742 
Q 959 2388 959 1747 
Q 959 1106 1268 751 
Q 1578 397 2138 397 
Q 2388 397 2633 464 
Q 2878 531 3122 666 
L 3122 134 
Q 2881 22 2623 -34 
Q 2366 -91 2075 -91 
Q 1284 -91 818 406 
Q 353 903 353 1747 
Q 353 2603 823 3093 
Q 1294 3584 2113 3584 
Q 2378 3584 2631 3529 
Q 2884 3475 3122 3366 
z
" transform="scale(0.015625)"/>
       <path id="DejaVuSans-74" d="M 1172 4494 
L 1172 3500 
L 2356 3500 
L 2356 3053 
L 1172 3053 
L 1172 1153 
Q 1172 725 1289 603 
Q 1406 481 1766 481 
L 2356 481 
L 2356 0 
L 1766 0 
Q 1100 0 847 248 
Q 594 497 594 1153 
L 594 3053 
L 172 3053 
L 172 3500 
L 594 3500 
L 594 4494 
L 1172 4494 
z
" transform="scale(0.015625)"/>
       <path id="DejaVuSans-75" d="M 544 1381 
L 544 3500 
L 1119 3500 
L 1119 1403 
Q 1119 906 1312 657 
Q 1506 409 1894 409 
Q 2359 409 2629 706 
Q 2900 1003 2900 1516 
L 2900 3500 
L 3475 3500 
L 3475 0 
L 2900 0 
L 2900 538 
Q 2691 219 2414 64 
Q 2138 -91 1772 -91 
Q 1169 -91 856 284 
Q 544 659 544 1381 
z
M 1991 3584 
L 1991 3584 
z
" transform="scale(0.015625)"/>
       <path id="DejaVuSans-2c" d="M 750 794 
L 1409 794 
L 1409 256 
L 897 -744 
L 494 -744 
L 750 256 
L 750 794 
z
" transform="scale(0.015625)"/>
       <path id="DejaVuSans-70" d="M 1159 525 
L 1159 -1331 
L 581 -1331 
L 581 3500 
L 1159 3500 
L 1159 2969 
Q 1341 3281 1617 3432 
Q 1894 3584 2278 3584 
Q 2916 3584 3314 3078 
Q 3713 2572 3713 1747 
Q 3713 922 3314 415 
Q 2916 -91 2278 -91 
Q 1894 -91 1617 61 
Q 1341 213 1159 525 
z
M 3116 1747 
Q 3116 2381 2855 2742 
Q 2594 3103 2138 3103 
Q 1681 3103 1420 2742 
Q 1159 2381 1159 1747 
Q 1159 1113 1420 752 
Q 1681 391 2138 391 
Q 2594 391 2855 752 
Q 3116 1113 3116 1747 
z
" transform="scale(0.015625)"/>
      </defs>
      <use xlink:href="#DejaVuSans-46"/>
      <use xlink:href="#DejaVuSans-72" x="50.269531"/>
      <use xlink:href="#DejaVuSans-61" x="91.382812"/>
      <use xlink:href="#DejaVuSans-63" x="152.662109"/>
      <use xlink:href="#DejaVuSans-74" x="207.642578"/>
      <use xlink:href="#DejaVuSans-69" x="246.851562"/>
      <use xlink:href="#DejaVuSans-6f" x="274.634766"/>
      <use xlink:href="#DejaVuSans-6e" x="335.816406"/>
      <use xlink:href="#DejaVuSans-20" x="399.195312"/>
      <use xlink:href="#DejaVuSans-6f" x="430.982422"/>
      <use xlink:href="#DejaVuSans-66" x="492.164062"/>
      <use xlink:href="#DejaVuSans-20" x="527.369141"/>
      <use xlink:href="#DejaVuSans-66" x="559.15625"/>
      <use xlink:href="#DejaVuSans-75" x="594.361328"/>
      <use xlink:href="#DejaVuSans-6e" x="657.740234"/>
      <use xlink:href="#DejaVuSans-63" x="721.119141"/>
      <use xlink:href="#DejaVuSans-74" x="776.099609"/>
      <use xlink:href="#DejaVuSans-69" x="815.308594"/>
      <use xlink:href="#DejaVuSans-6f" x="843.091797"/>
      <use xlink:href="#DejaVuSans-6e" x="904.273438"/>
      <use xlink:href="#DejaVuSans-2c" x="967.652344"/>
      <use xlink:href="#DejaVuSans-74" x="999.439453"/>
      <use xlink:href="#DejaVuSans-61" x="1038.648438"/>
      <use xlink:href="#DejaVuSans-72" x="1099.927734"/>
      <use xlink:href="#DejaVuSans-67" x="1139.291016"/>
      <use xlink:href="#DejaVuSans-65" x="1202.767578"/>
      <use xlink:href="#DejaVuSans-74" x="1264.291016"/>
      <use xlink:href="#DejaVuSans-20" x="1303.5"/>
      <use xlink:href="#DejaVuSans-70" x="1335.287109"/>
      <use xlink:href="#DejaVuSans-61" x="1398.763672"/>
      <use xlink:href="#DejaVuSans-69" x="1460.042969"/>
      <use xlink:href="#DejaVuSans-72" x="1487.826172"/>
      <use xlink:href="#DejaVuSans-73" x="1528.939453"/>
     </g>
    </g>
   </g>
   <g id="line2d_33">
    <defs>
     <path id="ma7d4f4497b" d="M 0 1.5 
C 0.397805 1.5 0.77937 1.341951 1.06066 1.06066 
C 1.341951 0.77937 1.5 0.397805 1.5 0 
C 1.5 -0.397805 1.341951 -0.77937 1.06066 -1.06066 
C 0.77937 -1.341951 0.397805 -1.5 0 -1.5 
C -0.397805 -1.5 -0.77937 -1.341951 -1.06066 -1.06066 
C -1.341951 -0.77937 -1.5 -0.397805 -1.5 0 
C -1.5 0.397805 -1.341951 0.77937 -1.06066 1.06066 
C -0.77937 1.341951 -0.397805 1.5 0 1.5 
z
" style="stroke: #f5deb3"/>
    </defs>
    <g>
     <use xlink:href="#ma7d4f4497b" x="185.377709" y="6.912" style="fill: #f5deb3; stroke: #f5deb3"/>
     <use xlink:href="#ma7d4f4497b" x="185.377709" y="6.912" style="fill: #f5deb3; stroke: #f5deb3"/>
    </g>
   </g>
   <g id="line2d_34">
    <defs>
     <path id="mbfb44da053" d="M 0 1.5 
C 0.397805 1.5 0.77937 1.341951 1.06066 1.06066 
C 1.341951 0.77937 1.5 0.397805 1.5 0 
C 1.5 -0.397805 1.341951 -0.77937 1.06066 -1.06066 
C 0.77937 -1.341951 0.397805 -1.5 0 -1.5 
C -0.397805 -1.5 -0.77937 -1.341951 -1.06066 -1.06066 
C -1.341951 -0.77937 -1.5 -0.397805 -1.5 0 
C -1.5 0.397805 -1.341951 0.77937 -1.06066 1.06066 
C -0.77937 1.341951 -0.397805 1.5 0 1.5 
z
" style="stroke: #000080"/>
    </defs>
    <g>
     <use xlink:href="#mbfb44da053" x="356.757996" y="145.770353" style="fill: #000080; stroke: #000080"/>
     <use xlink:href="#mbfb44da053" x="356.757996" y="145.770353" style="fill: #000080; stroke: #000080"/>
    </g>
   </g>
   <g id="line2d_35">
    <path d="M 123.317644 298.944 
L 123.317644 298.848565 
L 123.908631 298.753129 
L 123.908631 298.562259 
L 124.400822 298.466824 
L 124.400822 298.371388 
L 126.323346 298.275953 
L 126.372018 298.085082 
L 129.271832 297.989647 
L 129.271832 297.894212 
L 131.674076 297.798776 
L 131.674076 297.703341 
L 136.242113 297.607906 
L 136.242113 297.512471 
L 140.28962 297.417035 
L 140.28962 297.3216 
L 143.599145 297.226165 
L 143.608869 297.035294 
L 145.954802 296.939859 
L 145.954802 296.844424 
L 146.941151 296.748988 
L 146.941151 296.653553 
L 151.181127 296.558118 
L 151.181127 296.462682 
L 152.20574 296.367247 
L 152.20574 296.271812 
L 154.584859 296.176376 
L 154.584859 296.080941 
L 157.660526 295.985506 
L 157.660526 295.890071 
L 158.899338 295.794635 
L 158.899338 295.6992 
L 159.882349 295.603765 
L 159.964032 295.317459 
L 161.110227 295.222024 
L 161.110227 295.126588 
L 164.774328 295.031153 
L 164.774328 294.935718 
L 165.52293 294.840282 
L 165.547176 294.553976 
L 166.002002 294.458541 
L 166.105193 294.172235 
L 167.312278 294.0768 
L 167.312278 293.981365 
L 167.610468 293.885929 
L 167.610468 293.790494 
L 168.537202 293.695059 
L 168.550116 293.504188 
L 169.518766 293.408753 
L 169.518766 293.313318 
L 170.807635 293.217882 
L 170.807635 293.122447 
L 171.451405 293.027012 
L 171.451405 292.931576 
L 172.45323 292.836141 
L 172.45323 292.740706 
L 172.740562 292.645271 
L 172.740562 292.549835 
L 173.242125 292.4544 
L 173.242125 292.358965 
L 173.691413 292.263529 
L 173.783516 292.072659 
L 174.821684 291.977224 
L 174.878944 291.690918 
L 176.342063 291.595482 
L 176.342063 291.500047 
L 176.908461 291.404612 
L 176.908461 291.309176 
L 177.287081 291.213741 
L 177.385804 291.022871 
L 177.997215 290.927435 
L 178.067399 290.736565 
L 178.225519 290.641129 
L 178.225519 290.545694 
L 178.710121 290.450259 
L 178.710121 290.354824 
L 179.452031 290.259388 
L 179.548682 289.973082 
L 179.893701 289.877647 
L 179.990926 289.591341 
L 180.197786 289.495906 
L 180.197786 289.400471 
L 180.891001 289.305035 
L 180.891001 289.2096 
L 181.088248 289.114165 
L 181.088248 289.018729 
L 181.454552 288.923294 
L 181.454552 288.827859 
L 182.087394 288.732424 
L 182.192704 288.446118 
L 182.532174 288.350682 
L 182.532174 288.255247 
L 184.181574 288.159812 
L 184.265742 287.968941 
L 184.476191 287.873506 
L 184.564565 287.5872 
L 185.301562 287.491765 
L 185.301562 287.396329 
L 185.679254 287.300894 
L 185.679254 287.205459 
L 186.001583 287.110024 
L 186.001583 287.014588 
L 186.679442 286.919153 
L 186.679442 286.823718 
L 187.015232 286.728282 
L 187.047132 286.537412 
L 187.44847 286.441976 
L 187.44847 286.346541 
L 187.863633 286.251106 
L 187.967848 286.060235 
L 188.302385 285.9648 
L 188.302385 285.869365 
L 188.719653 285.773929 
L 188.719653 285.678494 
L 189.368436 285.583059 
L 189.368436 285.487624 
L 189.507079 285.392188 
L 189.507079 285.296753 
L 189.995588 285.201318 
L 189.995588 285.105882 
L 190.652008 285.010447 
L 190.652008 284.915012 
L 190.813189 284.819576 
L 190.813189 284.724141 
L 191.209813 284.628706 
L 191.209813 284.533271 
L 191.370909 284.437835 
L 191.370909 284.3424 
L 191.986251 284.246965 
L 192.051504 283.960659 
L 192.584979 283.865224 
L 192.584979 283.769788 
L 192.90743 283.674353 
L 192.971685 283.483482 
L 193.044851 283.388047 
L 193.044851 283.292612 
L 193.268905 283.197176 
L 193.268905 283.101741 
L 193.972999 283.006306 
L 193.972999 282.910871 
L 194.833251 282.815435 
L 194.833251 282.72 
L 195.652822 282.624565 
L 195.652822 282.529129 
L 196.250809 282.433694 
L 196.250809 282.338259 
L 196.487939 282.242824 
L 196.487939 282.147388 
L 196.827501 282.051953 
L 196.827501 281.956518 
L 197.434916 281.861082 
L 197.487108 281.574776 
L 197.686215 281.479341 
L 197.694443 281.288471 
L 197.822331 281.193035 
L 197.929869 281.002165 
L 198.165595 280.906729 
L 198.180565 280.715859 
L 198.746451 280.620424 
L 198.746451 280.524988 
L 199.056067 280.429553 
L 199.075441 280.238682 
L 199.225674 280.143247 
L 199.225674 280.047812 
L 199.683127 279.952376 
L 199.683127 279.856941 
L 200.231105 279.761506 
L 200.300463 279.570635 
L 200.46068 279.4752 
L 200.481971 279.284329 
L 200.830998 279.188894 
L 200.830998 279.093459 
L 201.014838 278.998024 
L 201.014838 278.902588 
L 201.322577 278.807153 
L 201.322577 278.711718 
L 201.691548 278.616282 
L 201.691548 278.520847 
L 201.939113 278.425412 
L 201.939113 278.329976 
L 202.212381 278.234541 
L 202.281265 278.043671 
L 202.584773 277.948235 
L 202.694395 277.757365 
L 202.818841 277.661929 
L 202.880132 277.471059 
L 203.043018 277.375624 
L 203.150009 277.089318 
L 203.26537 276.993882 
L 203.335387 276.707576 
L 203.597254 276.612141 
L 203.597254 276.516706 
L 204.255179 276.421271 
L 204.255179 276.325835 
L 204.505778 276.2304 
L 204.594909 276.039529 
L 204.652201 275.944094 
L 204.652201 275.848659 
L 205.498535 275.753224 
L 205.498535 275.657788 
L 205.841275 275.562353 
L 205.891353 275.371482 
L 206.375262 275.276047 
L 206.478683 274.894306 
L 206.638553 274.798871 
L 206.638553 274.703435 
L 206.884755 274.608 
L 206.884755 274.512565 
L 207.12977 274.417129 
L 207.12977 274.321694 
L 207.544599 274.226259 
L 207.544599 274.130824 
L 207.69054 274.035388 
L 207.783467 273.749082 
L 208.114442 273.653647 
L 208.114442 273.558212 
L 208.356497 273.462776 
L 208.356497 273.367341 
L 208.673344 273.271906 
L 208.673344 273.176471 
L 208.824782 273.081035 
L 208.824782 272.9856 
L 209.16105 272.890165 
L 209.209578 272.699294 
L 209.795909 272.603859 
L 209.795909 272.508424 
L 210.221361 272.412988 
L 210.305701 272.126682 
L 210.626099 272.031247 
L 210.68942 271.840376 
L 210.823339 271.744941 
L 210.919425 271.458635 
L 211.217601 271.3632 
L 211.223212 271.172329 
L 211.417759 271.076894 
L 211.417759 270.981459 
L 211.580717 270.886024 
L 211.690488 270.599718 
L 212.240821 270.504282 
L 212.284806 270.217976 
L 212.478729 270.122541 
L 212.559524 269.645365 
L 212.667704 269.549929 
L 212.719341 269.359059 
L 212.886617 269.263624 
L 212.978585 269.072753 
L 213.128378 268.977318 
L 213.19008 268.786447 
L 213.337728 268.691012 
L 213.425383 268.500141 
L 213.734611 268.404706 
L 213.734611 268.309271 
L 214.210335 268.213835 
L 214.281541 268.022965 
L 214.496251 267.927529 
L 214.569069 267.545788 
L 214.681661 267.450353 
L 214.681661 267.354918 
L 214.914505 267.259482 
L 214.951573 267.068612 
L 215.38072 266.973176 
L 215.435043 266.782306 
L 215.602158 266.686871 
L 215.659645 266.496 
L 215.966701 266.400565 
L 216.072285 266.018824 
L 216.269643 265.923388 
L 216.349963 265.637082 
L 216.677055 265.541647 
L 216.78649 265.255341 
L 216.824415 265.159906 
L 216.824415 265.064471 
L 217.338604 264.969035 
L 217.338604 264.8736 
L 217.591475 264.778165 
L 217.672235 264.587294 
L 218.007875 264.491859 
L 218.007875 264.396424 
L 218.342574 264.300988 
L 218.342574 264.205553 
L 218.656131 264.110118 
L 218.656131 264.014682 
L 218.886316 263.919247 
L 218.919351 263.728376 
L 219.20028 263.632941 
L 219.20028 263.537506 
L 219.657434 263.442071 
L 219.657434 263.346635 
L 220.079398 263.2512 
L 220.163796 262.964894 
L 220.836749 262.869459 
L 220.92931 262.583153 
L 221.232713 262.487718 
L 221.269709 262.296847 
L 221.553528 262.201412 
L 221.609597 262.010541 
L 222.135275 261.915106 
L 222.135275 261.819671 
L 222.583968 261.724235 
L 222.593312 261.533365 
L 223.212574 261.437929 
L 223.212574 261.342494 
L 223.578206 261.247059 
L 223.578206 261.151624 
L 224.006729 261.056188 
L 224.006729 260.960753 
L 224.256375 260.865318 
L 224.256375 260.769882 
L 224.538984 260.674447 
L 224.538984 260.579012 
L 224.782749 260.483576 
L 224.843848 260.292706 
L 225.264931 260.197271 
L 225.356272 260.0064 
L 225.442531 259.910965 
L 225.442531 259.815529 
L 225.948154 259.720094 
L 226.043415 259.338353 
L 226.359944 259.242918 
L 226.40565 259.052047 
L 226.585011 258.956612 
L 226.585011 258.861176 
L 227.02538 258.765741 
L 227.135199 258.479435 
L 227.456577 258.384 
L 227.472914 258.193129 
L 227.993377 258.097694 
L 227.993377 258.002259 
L 228.309268 257.906824 
L 228.309268 257.811388 
L 228.511021 257.715953 
L 228.525509 257.525082 
L 228.936093 257.429647 
L 229.025484 257.047906 
L 229.183887 256.952471 
L 229.183887 256.857035 
L 229.375503 256.7616 
L 229.375503 256.666165 
L 229.637197 256.570729 
L 229.722026 256.379859 
L 229.994445 256.284424 
L 229.999172 256.093553 
L 230.193716 255.998118 
L 230.193716 255.902682 
L 230.767168 255.807247 
L 230.820029 255.616376 
L 231.030931 255.520941 
L 231.057571 255.330071 
L 231.332279 255.234635 
L 231.335214 254.948329 
L 231.672618 254.852894 
L 231.765446 254.375718 
L 231.846933 254.280282 
L 231.906104 254.089412 
L 232.015756 253.993976 
L 232.015756 253.898541 
L 232.401513 253.803106 
L 232.466052 253.5168 
L 232.619241 253.421365 
L 232.619241 253.325929 
L 233.156407 253.230494 
L 233.156407 253.135059 
L 233.413146 253.039624 
L 233.446541 252.848753 
L 233.748893 252.753318 
L 233.754459 252.562447 
L 233.941434 252.467012 
L 234.012049 252.276141 
L 234.339711 252.180706 
L 234.438346 251.8944 
L 234.558424 251.798965 
L 234.651001 251.321788 
L 234.77913 251.226353 
L 234.830763 251.035482 
L 235.109875 250.940047 
L 235.132523 250.749176 
L 235.256532 250.653741 
L 235.273203 250.462871 
L 235.478958 250.367435 
L 235.496463 250.176565 
L 235.862942 250.081129 
L 235.862942 249.985694 
L 236.08669 249.890259 
L 236.08669 249.794824 
L 236.216475 249.699388 
L 236.216475 249.603953 
L 236.341786 249.508518 
L 236.341786 249.413082 
L 236.582787 249.317647 
L 236.68051 248.840471 
L 236.93931 248.745035 
L 237.00707 248.554165 
L 237.275228 248.458729 
L 237.321654 248.172424 
L 237.71658 248.076988 
L 237.76017 247.790682 
L 237.910071 247.695247 
L 238.018391 247.504376 
L 238.212318 247.408941 
L 238.28586 247.218071 
L 238.58804 247.122635 
L 238.650932 246.931765 
L 238.72724 246.836329 
L 238.833739 246.645459 
L 239.041109 246.550024 
L 239.077121 246.359153 
L 239.253444 246.263718 
L 239.349827 246.072847 
L 239.502247 245.977412 
L 239.502247 245.881976 
L 239.840291 245.786541 
L 239.924718 245.500235 
L 240.150796 245.4048 
L 240.241329 245.023059 
L 240.299849 244.927624 
L 240.347908 244.736753 
L 240.510174 244.641318 
L 240.62062 244.450447 
L 240.76151 244.355012 
L 240.765011 244.164141 
L 241.061121 244.068706 
L 241.165779 243.7824 
L 241.433457 243.686965 
L 241.512751 243.496094 
L 241.63945 243.400659 
L 241.696534 243.209788 
L 241.829777 243.114353 
L 241.9384 242.923482 
L 242.019704 242.828047 
L 242.121244 242.541741 
L 242.201249 242.446306 
L 242.29142 242.255435 
L 242.374276 242.16 
L 242.406686 241.969129 
L 242.526208 241.873694 
L 242.562448 241.587388 
L 242.824996 241.491953 
L 242.824996 241.396518 
L 243.012186 241.301082 
L 243.079853 241.110212 
L 243.237568 241.014776 
L 243.237568 240.919341 
L 243.373379 240.823906 
L 243.465577 240.633035 
L 243.522809 240.5376 
L 243.596604 240.346729 
L 243.882425 240.251294 
L 243.897576 240.060424 
L 244.234093 239.964988 
L 244.343593 239.583247 
L 244.376269 239.487812 
L 244.460222 239.296941 
L 244.779773 239.201506 
L 244.779773 239.106071 
L 245.037142 239.010635 
L 245.142035 238.724329 
L 245.219358 238.628894 
L 245.219358 238.533459 
L 245.452427 238.438024 
L 245.556328 237.960847 
L 245.668136 237.865412 
L 245.728146 237.579106 
L 245.870053 237.483671 
L 245.977618 237.006494 
L 245.999755 236.911059 
L 246.078205 236.624753 
L 246.183173 236.529318 
L 246.183173 236.433882 
L 246.33939 236.338447 
L 246.402611 236.147576 
L 246.738227 236.052141 
L 246.782379 235.765835 
L 246.96695 235.6704 
L 247.077298 235.288659 
L 247.377204 235.193224 
L 247.410598 235.002353 
L 247.665938 234.906918 
L 247.74565 234.620612 
L 247.804094 234.525176 
L 247.804094 234.429741 
L 248.120287 234.334306 
L 248.220278 234.048 
L 248.288147 233.952565 
L 248.399068 233.666259 
L 248.478909 233.570824 
L 248.567919 233.093647 
L 248.691284 232.998212 
L 248.752645 232.711906 
L 249.068676 232.616471 
L 249.129605 232.139294 
L 249.309381 232.043859 
L 249.320454 231.852988 
L 249.444531 231.757553 
L 249.508305 231.566682 
L 249.590849 231.471247 
L 249.639162 231.184941 
L 249.840924 231.089506 
L 249.876213 230.8032 
L 250.00162 230.707765 
L 250.100237 230.421459 
L 250.251496 230.326024 
L 250.351619 230.039718 
L 250.486734 229.944282 
L 250.486734 229.848847 
L 250.662131 229.753412 
L 250.698994 229.562541 
L 250.915105 229.467106 
L 250.99926 229.085365 
L 251.052068 228.989929 
L 251.141215 228.703624 
L 251.223124 228.608188 
L 251.313368 228.321882 
L 251.574936 228.226447 
L 251.648534 227.940141 
L 251.8194 227.844706 
L 251.88233 227.272094 
L 251.970975 227.176659 
L 252.044752 226.699482 
L 252.156059 226.604047 
L 252.156059 226.508612 
L 252.399959 226.413176 
L 252.497552 225.745129 
L 252.552618 225.649694 
L 252.628115 225.077082 
L 252.716118 224.981647 
L 252.796768 224.599906 
L 252.917504 224.504471 
L 253.001558 224.027294 
L 253.127673 223.931859 
L 253.209936 223.550118 
L 253.326747 223.454682 
L 253.38998 223.168376 
L 253.48066 223.072941 
L 253.583557 222.6912 
L 253.676136 222.595765 
L 253.779474 222.404894 
L 253.95354 222.309459 
L 254.04517 221.927718 
L 254.116258 221.832282 
L 254.140886 221.641412 
L 254.330843 221.545976 
L 254.405436 221.0688 
L 254.668811 220.973365 
L 254.763605 220.496188 
L 254.80682 220.400753 
L 254.901709 220.114447 
L 254.965095 220.019012 
L 254.993462 219.637271 
L 255.112931 219.541835 
L 255.176979 219.350965 
L 255.237309 219.255529 
L 255.298576 218.778353 
L 255.45833 218.682918 
L 255.45833 218.587482 
L 255.712986 218.492047 
L 255.807993 218.014871 
L 255.93105 217.919435 
L 256.037156 217.633129 
L 256.105563 217.537694 
L 256.148063 217.346824 
L 256.426163 217.251388 
L 256.527574 216.774212 
L 256.581454 216.678776 
L 256.673592 216.297035 
L 256.732858 216.2016 
L 256.787008 215.915294 
L 256.872367 215.819859 
L 256.966852 215.628988 
L 257.100773 215.533553 
L 257.165472 215.247247 
L 257.270818 215.151812 
L 257.377324 214.865506 
L 257.563424 214.770071 
L 257.669918 214.483765 
L 257.795124 214.388329 
L 257.859588 214.006588 
L 258.036586 213.911153 
L 258.036586 213.815718 
L 258.258664 213.720282 
L 258.364619 213.529412 
L 258.555215 213.433976 
L 258.650459 212.765929 
L 258.745416 212.670494 
L 258.817565 212.384188 
L 258.872196 212.288753 
L 258.901793 212.002447 
L 258.998949 211.907012 
L 259.103028 211.525271 
L 259.233486 211.429835 
L 259.297299 211.143529 
L 259.461578 211.048094 
L 259.497571 210.666353 
L 259.676409 210.570918 
L 259.697297 210.380047 
L 259.917237 210.284612 
L 259.992195 209.902871 
L 260.077048 209.807435 
L 260.173226 209.521129 
L 260.195251 209.425694 
L 260.272263 209.234824 
L 260.38083 209.139388 
L 260.477926 208.948518 
L 260.560951 208.853082 
L 260.657278 208.280471 
L 260.729658 208.185035 
L 260.816365 207.707859 
L 260.975864 207.612424 
L 261.036084 207.135247 
L 261.133646 207.039812 
L 261.133646 206.944376 
L 261.339385 206.848941 
L 261.426761 206.276329 
L 261.530062 206.180894 
L 261.624607 205.990024 
L 261.828302 205.894588 
L 261.898056 205.608282 
L 262.04572 205.512847 
L 262.132613 205.226541 
L 262.247341 205.131106 
L 262.354728 204.749365 
L 262.432677 204.653929 
L 262.488065 204.272188 
L 262.620325 204.176753 
L 262.687121 203.699576 
L 262.790242 203.604141 
L 262.790242 203.508706 
L 262.961625 203.413271 
L 263.066651 203.126965 
L 263.187734 203.031529 
L 263.275498 202.363482 
L 263.39328 202.268047 
L 263.438626 201.981741 
L 263.580702 201.886306 
L 263.689467 201.122824 
L 263.736628 201.027388 
L 263.836531 200.263906 
L 263.903115 200.168471 
L 263.991071 199.882165 
L 264.104839 199.786729 
L 264.201275 199.404988 
L 264.242229 199.309553 
L 264.302881 199.118682 
L 264.381774 199.023247 
L 264.46951 198.832376 
L 264.638269 198.736941 
L 264.65558 198.546071 
L 264.859408 198.450635 
L 264.95954 197.973459 
L 265.029401 197.878024 
L 265.105266 197.496282 
L 265.299978 197.400847 
L 265.334171 197.209976 
L 265.471761 197.114541 
L 265.550716 196.351059 
L 265.682557 196.255624 
L 265.761164 195.969318 
L 265.833421 195.873882 
L 265.896553 195.396706 
L 265.961046 195.301271 
L 266.041254 195.014965 
L 266.131713 194.919529 
L 266.131713 194.824094 
L 266.395957 194.728659 
L 266.497424 194.442353 
L 266.53866 194.346918 
L 266.581623 193.774306 
L 266.725586 193.678871 
L 266.819816 193.297129 
L 266.886118 193.201694 
L 266.94231 192.915388 
L 267.04143 192.819953 
L 267.127339 192.438212 
L 267.462709 192.342776 
L 267.557807 191.8656 
L 267.659624 191.770165 
L 267.659624 191.674729 
L 267.798251 191.579294 
L 267.873602 191.102118 
L 268.028268 191.006682 
L 268.111847 190.720376 
L 268.223176 190.624941 
L 268.309429 190.2432 
L 268.404635 190.147765 
L 268.404635 190.052329 
L 268.556294 189.956894 
L 268.658941 189.575153 
L 268.759136 189.479718 
L 268.86182 188.907106 
L 268.942157 188.811671 
L 269.034865 188.525365 
L 269.259897 188.429929 
L 269.352223 187.761882 
L 269.435108 187.666447 
L 269.492648 187.189271 
L 269.786256 187.093835 
L 269.892453 186.521224 
L 269.962633 186.425788 
L 270.06275 185.853176 
L 270.260753 185.757741 
L 270.340926 185.566871 
L 270.423469 185.471435 
L 270.425846 185.280565 
L 270.617503 185.185129 
L 270.715007 184.803388 
L 270.78763 184.707953 
L 270.859143 184.326212 
L 270.901113 184.230776 
L 270.988094 183.849035 
L 271.096523 183.7536 
L 271.1961 183.371859 
L 271.287807 183.276424 
L 271.366372 182.990118 
L 271.51401 182.894682 
L 271.62213 182.226635 
L 271.729118 182.1312 
L 271.802675 181.654024 
L 272.007772 181.558588 
L 272.029534 181.367718 
L 272.196294 181.272282 
L 272.196294 181.176847 
L 272.410695 181.081412 
L 272.513025 180.890541 
L 272.638517 180.795106 
L 272.731901 180.413365 
L 272.788164 180.317929 
L 272.871609 179.649882 
L 272.953952 179.554447 
L 273.026771 179.172706 
L 273.189319 179.077271 
L 273.189319 178.981835 
L 273.488655 178.8864 
L 273.595547 178.409224 
L 273.634367 178.313788 
L 273.717561 177.741176 
L 273.823289 177.645741 
L 273.864397 177.454871 
L 273.942612 177.359435 
L 274.023215 177.073129 
L 274.173046 176.977694 
L 274.235754 176.786824 
L 274.425352 176.786824 
L 274.492433 176.405082 
L 274.785629 176.309647 
L 274.885972 176.118776 
L 277.949546 176.023341 
L 278.03252 175.737035 
L 279.207268 175.6416 
L 279.207268 175.546165 
L 279.44151 175.450729 
L 279.496024 175.259859 
L 280.182138 175.164424 
L 280.236226 174.973553 
L 280.627825 174.878118 
L 280.627825 174.782682 
L 280.982475 174.687247 
L 280.982475 174.591812 
L 281.759716 174.496376 
L 281.79035 174.305506 
L 282.217145 174.305506 
L 282.217145 174.114635 
L 282.370868 174.0192 
L 282.411873 173.637459 
L 282.672686 173.542024 
L 282.672686 173.446588 
L 282.946285 173.446588 
L 283.050923 173.160282 
L 283.272632 173.160282 
L 283.380815 172.683106 
L 283.724526 172.587671 
L 283.724526 172.492235 
L 284.019071 172.3968 
L 284.019071 172.301365 
L 284.288641 172.205929 
L 284.288641 172.110494 
L 284.599022 172.015059 
L 284.599022 171.919624 
L 284.796771 171.824188 
L 284.819695 171.633318 
L 284.993743 171.537882 
L 285.015916 171.251576 
L 285.648002 171.156141 
L 285.648906 170.965271 
L 285.820219 170.965271 
L 285.862766 170.678965 
L 286.162282 170.583529 
L 286.251352 170.392659 
L 286.506979 170.392659 
L 286.588865 169.820047 
L 286.726883 169.724612 
L 286.728302 169.533741 
L 286.897125 169.438306 
L 286.952914 169.056565 
L 287.060018 168.961129 
L 287.138937 168.483953 
L 287.208086 168.483953 
L 287.208086 168.293082 
L 287.609014 168.197647 
L 287.700252 168.006776 
L 289.19641 167.911341 
L 289.19641 167.815906 
L 290.190982 167.720471 
L 290.190982 167.5296 
L 291.173664 167.434165 
L 291.173664 167.243294 
L 291.681227 167.147859 
L 291.792247 166.766118 
L 291.891311 166.670682 
L 291.98009 166.479812 
L 292.369328 166.384376 
L 292.382375 166.098071 
L 292.768863 166.002635 
L 292.768863 165.9072 
L 293.067104 165.811765 
L 293.067104 165.716329 
L 293.202654 165.716329 
L 293.279973 165.239153 
L 293.543308 165.143718 
L 293.5474 164.952847 
L 293.924219 164.857412 
L 294.028595 164.475671 
L 294.343371 164.380235 
L 294.427388 163.712188 
L 294.631168 163.616753 
L 294.725766 163.139576 
L 294.791812 163.044141 
L 294.837877 162.853271 
L 295.167374 162.853271 
L 295.167374 162.6624 
L 297.301234 162.566965 
L 297.394957 162.376094 
L 297.934503 162.280659 
L 297.934503 162.185224 
L 298.43054 162.089788 
L 298.466454 161.898918 
L 298.675027 161.803482 
L 298.720866 161.612612 
L 298.847936 161.517176 
L 298.847936 161.421741 
L 298.991715 161.421741 
L 299.037984 160.944565 
L 299.257282 160.849129 
L 299.257282 160.753694 
L 299.852183 160.658259 
L 299.914091 160.467388 
L 300.091704 160.371953 
L 300.140782 160.181082 
L 300.250805 160.085647 
L 300.250805 159.990212 
L 300.498451 159.894776 
L 300.498451 159.799341 
L 301.369568 159.703906 
L 301.369568 159.513035 
L 302.465672 159.4176 
L 302.465672 159.322165 
L 302.859486 159.226729 
L 302.859486 159.131294 
L 303.081204 159.035859 
L 303.081204 158.940424 
L 303.521631 158.844988 
L 303.60292 158.463247 
L 303.854721 158.367812 
L 303.958907 157.986071 
L 304.348643 157.890635 
L 304.421568 157.699765 
L 304.627911 157.604329 
L 304.627911 157.508894 
L 306.136614 157.413459 
L 306.136614 157.222588 
L 306.563595 157.127153 
L 306.657163 156.936282 
L 307.049507 156.840847 
L 307.049507 156.745412 
L 307.170054 156.745412 
L 307.176878 156.459106 
L 307.537319 156.363671 
L 307.537319 156.268235 
L 309.591697 156.268235 
L 309.657984 155.981929 
L 310.051306 155.886494 
L 310.070494 155.600188 
L 310.173206 155.504753 
L 310.173206 155.409318 
L 310.595723 155.313882 
L 310.595723 155.123012 
L 310.893852 155.027576 
L 310.893852 154.932141 
L 312.382618 154.836706 
L 312.382618 154.645835 
L 312.762271 154.5504 
L 312.762271 154.454965 
L 313.129963 154.359529 
L 313.208966 154.073224 
L 314.84304 153.977788 
L 314.84304 153.882353 
L 315.037728 153.786918 
L 315.037728 153.691482 
L 315.438991 153.596047 
L 315.438991 153.500612 
L 316.818273 153.405176 
L 316.892723 153.214306 
L 316.996269 153.118871 
L 317.067405 152.737129 
L 317.589221 152.641694 
L 317.589221 152.546259 
L 318.641202 152.450824 
L 318.641202 152.355388 
L 318.834737 152.355388 
L 318.834737 152.164518 
L 319.038078 152.164518 
L 319.038078 151.973647 
L 319.166066 151.973647 
L 319.166066 151.687341 
L 320.318608 151.591906 
L 320.423552 151.3056 
L 320.695525 151.210165 
L 320.749511 151.019294 
L 320.864622 150.923859 
L 320.864622 150.828424 
L 321.742859 150.732988 
L 321.742859 150.637553 
L 322.096307 150.542118 
L 322.10462 150.255812 
L 322.378097 150.160376 
L 322.378097 150.064941 
L 323.395233 149.969506 
L 323.481183 149.778635 
L 323.646132 149.6832 
L 323.728061 149.492329 
L 324.658223 149.492329 
L 324.721766 149.206024 
L 325.032118 149.110588 
L 325.032118 149.015153 
L 325.882758 148.919718 
L 325.901401 148.728847 
L 327.06749 148.633412 
L 327.06749 148.537976 
L 327.299423 148.442541 
L 327.36228 148.0608 
L 328.314118 147.965365 
L 328.314118 147.869929 
L 329.252855 147.774494 
L 329.252855 147.679059 
L 330.293312 147.583624 
L 330.293312 147.488188 
L 335.201612 147.392753 
L 335.303984 147.106447 
L 337.283329 147.011012 
L 337.283329 146.915576 
L 337.475365 146.820141 
L 337.475365 146.724706 
L 346.049791 146.629271 
L 346.140141 146.4384 
L 346.477502 146.342965 
L 346.477502 146.152094 
L 349.088218 146.056659 
L 349.190992 145.865788 
L 360.8064 145.770353 
L 360.8064 145.770353 
" style="fill: none; stroke: #000080; stroke-width: 1.5; stroke-linecap: square"/>
   </g>
   <g id="line2d_36">
    <defs>
     <path id="m4f257caa9b" d="M 0 6 
C 1.591219 6 3.117479 5.367802 4.242641 4.242641 
C 5.367802 3.117479 6 1.591219 6 0 
C 6 -1.591219 5.367802 -3.117479 4.242641 -4.242641 
C 3.117479 -5.367802 1.591219 -6 0 -6 
C -1.591219 -6 -3.117479 -5.367802 -4.242641 -4.242641 
C -5.367802 -3.117479 -6 -1.591219 -6 0 
C -6 1.591219 -5.367802 3.117479 -4.242641 4.242641 
C -3.117479 5.367802 -1.591219 6 0 6 
z
" style="stroke: #000080; stroke-width: 1.5"/>
    </defs>
    <g>
     <use xlink:href="#m4f257caa9b" x="169.844536" y="293.217882" style="fill-opacity: 0; stroke: #000080; stroke-width: 1.5"/>
     <use xlink:href="#m4f257caa9b" x="238.55714" y="247.218071" style="fill-opacity: 0; stroke: #000080; stroke-width: 1.5"/>
     <use xlink:href="#m4f257caa9b" x="289.898515" y="167.815906" style="fill-opacity: 0; stroke: #000080; stroke-width: 1.5"/>
     <use xlink:href="#m4f257caa9b" x="356.757996" y="145.770353" style="fill-opacity: 0; stroke: #000080; stroke-width: 1.5"/>
     <use xlink:href="#m4f257caa9b" x="360.8064" y="145.770353" style="fill-opacity: 0; stroke: #000080; stroke-width: 1.5"/>
    </g>
   </g>
   <g id="line2d_37">
    <path style="fill: none; stroke: #000080; stroke-width: 1.5; stroke-linecap: square"/>
    <g/>
   </g>
   <g id="line2d_38">
    <path d="M 274.176 176.882259 
" clip-path="url(#pfff5125d06)" style="fill: none; stroke: #000080; stroke-width: 1.5; stroke-linecap: square"/>
    <defs>
     <path id="m8ec8029408" d="M -12 12 
L 12 -12 
M -12 -12 
L 12 12 
" style="stroke: #000080"/>
    </defs>
    <g clip-path="url(#pfff5125d06)">
     <use xlink:href="#m8ec8029408" x="274.176" y="176.882259" style="fill: #000080; stroke: #000080"/>
    </g>
   </g>
   <g id="line2d_39">
    <defs>
     <path id="m3de27f8f6b" d="M 0 1.5 
C 0.397805 1.5 0.77937 1.341951 1.06066 1.06066 
C 1.341951 0.77937 1.5 0.397805 1.5 0 
C 1.5 -0.397805 1.341951 -0.77937 1.06066 -1.06066 
C 0.77937 -1.341951 0.397805 -1.5 0 -1.5 
C -0.397805 -1.5 -0.77937 -1.341951 -1.06066 -1.06066 
C -1.341951 -0.77937 -1.5 -0.397805 -1.5 0 
C -1.5 0.397805 -1.341951 0.77937 -1.06066 1.06066 
C -0.77937 1.341951 -0.397805 1.5 0 1.5 
z
" style="stroke: #ff00ff"/>
    </defs>
    <g>
     <use xlink:href="#m3de27f8f6b" x="348.203129" y="185.853176" style="fill: #ff00ff; stroke: #ff00ff"/>
     <use xlink:href="#m3de27f8f6b" x="348.203129" y="185.853176" style="fill: #ff00ff; stroke: #ff00ff"/>
    </g>
   </g>
   <g id="line2d_40">
    <path d="M 126.372018 298.944 
L 126.372018 298.848565 
L 136.083243 298.753129 
L 136.083243 298.657694 
L 137.044523 298.562259 
L 137.044523 298.466824 
L 139.386872 298.371388 
L 139.386872 298.275953 
L 139.962047 298.180518 
L 139.962047 298.085082 
L 141.294496 297.989647 
L 141.294496 297.894212 
L 142.59016 297.798776 
L 142.59016 297.703341 
L 145.90324 297.607906 
L 145.90324 297.512471 
L 147.447322 297.417035 
L 147.447322 297.3216 
L 149.875833 297.226165 
L 149.875833 297.130729 
L 151.738309 297.035294 
L 151.738309 296.939859 
L 154.023279 296.844424 
L 154.023279 296.748988 
L 155.479934 296.653553 
L 155.577951 296.462682 
L 156.115606 296.367247 
L 156.115606 296.271812 
L 156.827041 296.176376 
L 156.827041 296.080941 
L 158.929502 295.985506 
L 158.929502 295.890071 
L 159.676576 295.794635 
L 159.676576 295.6992 
L 159.865969 295.603765 
L 159.865969 295.508329 
L 160.510264 295.412894 
L 160.510264 295.317459 
L 161.335107 295.222024 
L 161.335107 295.126588 
L 162.244805 295.031153 
L 162.244805 294.935718 
L 163.782994 294.840282 
L 163.796296 294.649412 
L 164.915805 294.553976 
L 164.968976 294.363106 
L 165.260297 294.267671 
L 165.260297 294.172235 
L 165.856578 294.0768 
L 165.939815 293.790494 
L 166.306982 293.695059 
L 166.370868 293.504188 
L 166.532515 293.408753 
L 166.587046 293.217882 
L 167.517961 293.122447 
L 167.558829 292.931576 
L 167.850487 292.836141 
L 167.912019 292.645271 
L 168.166699 292.549835 
L 168.166699 292.4544 
L 168.658244 292.358965 
L 168.719753 292.168094 
L 169.122249 292.072659 
L 169.187255 291.881788 
L 169.398218 291.786353 
L 169.398218 291.690918 
L 169.667764 291.595482 
L 169.667764 291.500047 
L 170.183708 291.404612 
L 170.289928 291.022871 
L 170.812214 290.927435 
L 170.812214 290.832 
L 171.81954 290.736565 
L 171.875876 290.545694 
L 172.112367 290.450259 
L 172.165703 290.259388 
L 172.438538 290.163953 
L 172.438538 290.068518 
L 172.666028 289.973082 
L 172.742628 289.782212 
L 172.853867 289.686776 
L 172.874394 289.495906 
L 173.104813 289.400471 
L 173.104813 289.305035 
L 173.587008 289.2096 
L 173.587008 289.114165 
L 173.902386 289.018729 
L 173.902386 288.923294 
L 178.059614 288.827859 
L 178.059614 288.732424 
L 179.354881 288.636988 
L 179.407144 288.350682 
L 181.110772 288.255247 
L 181.110772 288.159812 
L 181.422018 288.064376 
L 181.422018 287.968941 
L 181.765323 287.873506 
L 181.822786 287.682635 
L 182.167684 287.5872 
L 182.251372 287.300894 
L 182.412696 287.205459 
L 182.412696 287.110024 
L 182.681376 287.014588 
L 182.682594 286.823718 
L 183.201566 286.728282 
L 183.277247 286.537412 
L 183.528119 286.441976 
L 183.556046 286.251106 
L 183.706604 286.155671 
L 183.817017 285.9648 
L 184.022311 285.869365 
L 184.048382 285.678494 
L 184.368477 285.583059 
L 184.368477 285.487624 
L 184.989543 285.392188 
L 185.068034 285.010447 
L 185.401969 284.915012 
L 185.436723 284.724141 
L 185.680292 284.628706 
L 185.680292 284.437835 
L 185.879686 284.3424 
L 185.879686 284.246965 
L 186.20368 284.151529 
L 186.20368 284.056094 
L 187.059683 283.960659 
L 187.144429 283.769788 
L 189.630401 283.674353 
L 189.630401 283.578918 
L 190.272631 283.483482 
L 190.272631 283.388047 
L 191.482632 283.292612 
L 191.516934 283.101741 
L 192.19383 283.006306 
L 192.219525 282.815435 
L 192.514332 282.72 
L 192.514332 282.624565 
L 193.230009 282.529129 
L 193.230009 282.433694 
L 193.453256 282.338259 
L 193.514306 282.147388 
L 193.688138 282.051953 
L 193.688138 281.956518 
L 193.984358 281.861082 
L 194.047041 281.574776 
L 194.926239 281.479341 
L 194.926239 281.383906 
L 195.817749 281.288471 
L 195.817749 281.193035 
L 196.470389 281.0976 
L 196.524157 280.906729 
L 196.910585 280.811294 
L 196.910585 280.715859 
L 197.365285 280.620424 
L 197.365285 280.524988 
L 197.605392 280.429553 
L 197.605392 280.334118 
L 198.077678 280.238682 
L 198.105599 279.952376 
L 198.283954 279.856941 
L 198.369328 279.570635 
L 198.701282 279.4752 
L 198.771326 279.284329 
L 198.859676 279.188894 
L 198.958897 278.998024 
L 198.99066 278.902588 
L 199.068306 278.711718 
L 199.527067 278.616282 
L 199.527067 278.520847 
L 199.838881 278.425412 
L 199.938923 278.139106 
L 200.043761 278.043671 
L 200.043761 277.948235 
L 200.841671 277.8528 
L 200.841671 277.757365 
L 201.138082 277.661929 
L 201.138082 277.566494 
L 201.546883 277.471059 
L 201.546883 277.375624 
L 201.817059 277.280188 
L 201.817059 277.184753 
L 202.311322 277.089318 
L 202.311322 276.993882 
L 202.782891 276.898447 
L 202.850554 276.707576 
L 202.9955 276.612141 
L 202.9955 276.516706 
L 203.233533 276.421271 
L 203.238026 276.2304 
L 203.382866 276.134965 
L 203.484319 275.944094 
L 203.697162 275.848659 
L 203.794561 275.562353 
L 205.416868 275.466918 
L 205.416868 275.371482 
L 206.502733 275.276047 
L 206.502733 275.180612 
L 207.340791 275.085176 
L 207.344403 274.894306 
L 207.823198 274.798871 
L 207.843992 274.608 
L 208.039917 274.512565 
L 208.115703 274.321694 
L 208.350896 274.226259 
L 208.350896 274.130824 
L 208.718873 274.035388 
L 208.718873 273.939953 
L 208.995171 273.844518 
L 209.062717 273.653647 
L 209.591906 273.558212 
L 209.608506 273.367341 
L 209.891639 273.271906 
L 209.968045 272.9856 
L 210.190058 272.890165 
L 210.190058 272.794729 
L 212.195211 272.699294 
L 212.279503 272.412988 
L 212.536617 272.317553 
L 212.625845 272.031247 
L 212.837399 271.935812 
L 212.880502 271.744941 
L 213.838117 271.649506 
L 213.924171 271.3632 
L 214.292664 271.267765 
L 214.292664 271.172329 
L 215.202106 271.076894 
L 215.202106 270.981459 
L 215.436965 270.886024 
L 215.509429 270.695153 
L 216.420419 270.599718 
L 216.420419 270.504282 
L 217.024088 270.408847 
L 217.024088 270.313412 
L 217.902154 270.217976 
L 217.902154 270.122541 
L 218.381325 270.027106 
L 218.381325 269.931671 
L 218.897334 269.836235 
L 218.903907 269.645365 
L 219.061661 269.549929 
L 219.062541 269.359059 
L 219.893625 269.263624 
L 219.893625 269.168188 
L 220.279869 269.072753 
L 220.279869 268.977318 
L 221.872603 268.881882 
L 221.872603 268.786447 
L 222.131685 268.691012 
L 222.185761 268.500141 
L 222.344252 268.500141 
L 222.399196 268.213835 
L 222.697392 268.1184 
L 222.697392 268.022965 
L 222.93067 267.927529 
L 222.962902 267.736659 
L 223.233607 267.641224 
L 223.247005 267.450353 
L 223.564764 267.354918 
L 223.564764 267.259482 
L 224.552405 267.164047 
L 224.552799 266.973176 
L 224.753882 266.877741 
L 224.859383 266.591435 
L 225.063378 266.496 
L 225.063378 266.400565 
L 225.667871 266.305129 
L 225.677909 266.114259 
L 225.841725 266.018824 
L 225.881967 265.827953 
L 226.212885 265.732518 
L 226.212885 265.637082 
L 226.898436 265.541647 
L 226.898436 265.446212 
L 227.365734 265.350776 
L 227.373321 265.159906 
L 228.28221 265.064471 
L 228.36724 264.8736 
L 228.812639 264.778165 
L 228.812639 264.682729 
L 229.214504 264.587294 
L 229.228256 264.396424 
L 229.5809 264.300988 
L 229.5809 264.205553 
L 229.699829 264.110118 
L 229.699829 264.014682 
L 229.900843 263.919247 
L 229.900843 263.823812 
L 230.380963 263.728376 
L 230.428953 263.537506 
L 230.959957 263.442071 
L 230.959957 263.346635 
L 231.199353 263.2512 
L 231.200646 263.060329 
L 232.237618 262.964894 
L 232.237618 262.869459 
L 232.749938 262.774024 
L 232.826177 262.583153 
L 232.933558 262.487718 
L 232.933558 262.392282 
L 233.490512 262.296847 
L 233.573668 261.915106 
L 233.78999 261.819671 
L 233.884575 261.6288 
L 234.449463 261.533365 
L 234.449463 261.437929 
L 235.034759 261.342494 
L 235.131549 261.056188 
L 235.645109 260.960753 
L 235.752963 260.769882 
L 236.33103 260.674447 
L 236.387696 260.483576 
L 236.646586 260.388141 
L 236.646586 260.197271 
L 236.873764 260.101835 
L 236.975837 259.910965 
L 237.546607 259.815529 
L 237.646545 259.624659 
L 237.930235 259.529224 
L 237.930235 259.433788 
L 238.447237 259.338353 
L 238.447237 259.242918 
L 238.775594 259.147482 
L 238.775594 259.052047 
L 239.052492 258.956612 
L 239.138765 258.765741 
L 239.180454 258.670306 
L 239.180454 258.574871 
L 239.674942 258.479435 
L 239.739825 258.288565 
L 240.062997 258.193129 
L 240.143045 258.002259 
L 240.693986 257.906824 
L 240.794267 257.620518 
L 241.192192 257.525082 
L 241.260769 257.334212 
L 241.7516 257.238776 
L 241.827887 257.047906 
L 241.94868 256.952471 
L 242.035965 256.7616 
L 242.345081 256.666165 
L 242.345081 256.570729 
L 242.730998 256.475294 
L 242.824697 256.284424 
L 243.028891 256.188988 
L 243.053553 255.998118 
L 243.342207 255.902682 
L 243.342207 255.807247 
L 243.843691 255.711812 
L 243.847983 255.520941 
L 244.009608 255.425506 
L 244.009608 255.330071 
L 244.232707 255.234635 
L 244.232707 255.1392 
L 245.039532 255.043765 
L 245.129528 254.662024 
L 245.301778 254.566588 
L 245.391617 254.375718 
L 245.487211 254.280282 
L 245.594144 253.898541 
L 245.83945 253.803106 
L 245.83945 253.707671 
L 246.714027 253.612235 
L 246.714027 253.5168 
L 247.177917 253.421365 
L 247.234566 253.230494 
L 247.574789 253.135059 
L 247.679215 252.944188 
L 247.867919 252.848753 
L 247.923898 252.657882 
L 248.013866 252.562447 
L 248.071409 252.371576 
L 248.36642 252.276141 
L 248.36642 252.180706 
L 248.669909 252.085271 
L 248.760674 251.798965 
L 249.211163 251.703529 
L 249.269512 251.512659 
L 249.468227 251.417224 
L 249.468227 251.321788 
L 249.755098 251.226353 
L 249.842536 251.035482 
L 250.081896 250.940047 
L 250.081896 250.844612 
L 250.28676 250.749176 
L 250.354322 250.558306 
L 250.831548 250.462871 
L 250.831548 250.367435 
L 250.992293 250.272 
L 250.992293 250.176565 
L 251.269111 250.081129 
L 251.303345 249.890259 
L 251.710983 249.794824 
L 251.784145 249.508518 
L 252.133638 249.413082 
L 252.158333 249.222212 
L 252.319992 249.126776 
L 252.319992 249.031341 
L 252.737151 248.935906 
L 252.761772 248.745035 
L 253.037587 248.6496 
L 253.104017 248.458729 
L 253.469861 248.363294 
L 253.552586 248.172424 
L 254.038285 248.076988 
L 254.09767 247.886118 
L 254.190699 247.790682 
L 254.278177 247.599812 
L 254.399893 247.504376 
L 254.443414 247.218071 
L 254.924257 247.122635 
L 255.00011 246.836329 
L 255.193266 246.740894 
L 255.193266 246.645459 
L 255.622087 246.550024 
L 255.622087 246.454588 
L 255.889399 246.359153 
L 255.968499 246.168282 
L 256.100302 246.072847 
L 256.199127 245.4048 
L 256.273088 245.309365 
L 256.273088 245.213929 
L 256.510983 245.118494 
L 256.553801 244.927624 
L 256.671541 244.832188 
L 256.671541 244.736753 
L 257.063832 244.641318 
L 257.135431 244.355012 
L 257.274353 244.259576 
L 257.31978 243.877835 
L 257.541119 243.7824 
L 257.541119 243.686965 
L 257.747926 243.591529 
L 257.747926 243.496094 
L 258.008572 243.400659 
L 258.008572 243.305224 
L 258.332504 243.209788 
L 258.332504 243.114353 
L 258.582945 243.018918 
L 258.657843 242.637176 
L 258.922331 242.541741 
L 259.027675 242.16 
L 259.049715 242.064565 
L 259.049715 241.969129 
L 259.63438 241.873694 
L 259.685372 241.587388 
L 259.818628 241.491953 
L 259.874557 241.301082 
L 260.153078 241.205647 
L 260.253266 240.823906 
L 260.430818 240.728471 
L 260.523381 240.251294 
L 260.708866 240.155859 
L 260.755937 239.964988 
L 261.037332 239.869553 
L 261.071455 239.678682 
L 261.331362 239.583247 
L 261.426372 239.296941 
L 261.472293 239.201506 
L 261.473254 239.010635 
L 261.673704 238.9152 
L 261.673704 238.819765 
L 261.942949 238.724329 
L 262.032326 238.533459 
L 262.126171 238.438024 
L 262.235243 238.247153 
L 262.293462 238.151718 
L 262.293462 238.056282 
L 262.576795 237.960847 
L 262.643329 237.483671 
L 262.98737 237.388235 
L 263.036135 237.101929 
L 263.167481 237.006494 
L 263.207511 236.815624 
L 263.338807 236.720188 
L 263.365562 236.529318 
L 263.505818 236.433882 
L 263.609557 236.243012 
L 263.779128 236.147576 
L 263.867843 235.765835 
L 263.911184 235.6704 
L 263.981516 235.384094 
L 264.106381 235.288659 
L 264.197743 234.906918 
L 264.338315 234.811482 
L 264.361642 234.620612 
L 264.662584 234.525176 
L 264.772684 234.238871 
L 264.86862 234.143435 
L 264.941723 233.952565 
L 264.986111 233.857129 
L 265.035916 233.666259 
L 265.125485 233.570824 
L 265.232841 233.189082 
L 265.33384 233.093647 
L 265.42572 232.711906 
L 265.51614 232.616471 
L 265.626364 232.330165 
L 265.652839 232.234729 
L 265.736712 232.043859 
L 265.851336 231.948424 
L 265.851336 231.852988 
L 265.982024 231.757553 
L 265.982024 231.662118 
L 266.131021 231.566682 
L 266.137381 231.375812 
L 266.388076 231.280376 
L 266.483145 230.8032 
L 266.537051 230.707765 
L 266.60057 230.516894 
L 266.762712 230.421459 
L 266.83294 230.230588 
L 266.897686 230.135153 
L 266.966101 229.753412 
L 267.080011 229.657976 
L 267.09427 229.467106 
L 267.229043 229.371671 
L 267.325747 229.085365 
L 267.390467 228.989929 
L 267.498169 228.512753 
L 267.539265 228.417318 
L 267.539265 228.321882 
L 267.685607 228.226447 
L 267.723592 228.035576 
L 267.828591 227.940141 
L 267.937162 227.5584 
L 268.017193 227.462965 
L 268.120881 227.272094 
L 268.15046 227.176659 
L 268.242385 226.890353 
L 268.310778 226.794918 
L 268.344638 226.604047 
L 268.472175 226.508612 
L 268.50872 226.126871 
L 268.667061 226.031435 
L 268.762698 225.745129 
L 268.828192 225.649694 
L 268.907042 225.458824 
L 269.093825 225.363388 
L 269.193097 224.886212 
L 269.240355 224.790776 
L 269.280871 224.504471 
L 269.435205 224.409035 
L 269.545766 224.027294 
L 269.654151 223.931859 
L 269.736934 223.550118 
L 269.847825 223.454682 
L 269.886806 223.072941 
L 270.064506 222.977506 
L 270.160359 222.595765 
L 270.245864 222.500329 
L 270.294935 222.118588 
L 270.438448 222.023153 
L 270.487981 221.450541 
L 270.62106 221.355106 
L 270.689257 221.0688 
L 270.838309 220.973365 
L 270.941359 220.496188 
L 271.030533 220.400753 
L 271.100256 220.019012 
L 271.197808 219.923576 
L 271.299263 219.541835 
L 271.389346 219.4464 
L 271.475179 218.969224 
L 271.801181 218.873788 
L 271.819239 218.587482 
L 272.031558 218.492047 
L 272.127609 218.110306 
L 272.182527 218.014871 
L 272.283627 217.824 
L 272.379003 217.728565 
L 272.388925 217.537694 
L 272.681999 217.442259 
L 272.681999 217.346824 
L 273.890658 217.251388 
L 273.890658 217.155953 
L 275.061911 217.060518 
L 275.061911 216.965082 
L 276.735662 216.869647 
L 276.735662 216.774212 
L 277.045546 216.678776 
L 277.114316 216.487906 
L 277.278197 216.392471 
L 277.278197 216.297035 
L 277.803275 216.2016 
L 277.804112 216.010729 
L 279.599773 215.915294 
L 279.678987 215.724424 
L 279.891761 215.628988 
L 279.891761 215.533553 
L 280.151609 215.438118 
L 280.228687 215.247247 
L 280.52281 215.151812 
L 280.52936 214.960941 
L 280.694788 214.865506 
L 280.707687 214.674635 
L 280.949964 214.5792 
L 281.002214 214.102024 
L 281.497403 214.006588 
L 281.534898 213.815718 
L 281.73885 213.720282 
L 281.73885 213.624847 
L 282.684143 213.529412 
L 282.684143 213.433976 
L 282.943889 213.338541 
L 282.943889 213.243106 
L 283.204609 213.147671 
L 283.226859 212.9568 
L 283.5673 212.861365 
L 283.632012 212.575059 
L 283.77705 212.479624 
L 283.881273 212.193318 
L 283.941653 212.097882 
L 284.003636 211.907012 
L 284.090086 211.811576 
L 284.192484 211.525271 
L 284.32006 211.429835 
L 284.397671 211.048094 
L 284.447518 210.952659 
L 284.521247 210.570918 
L 284.67806 210.475482 
L 284.758992 210.093741 
L 284.860508 209.998306 
L 284.860508 209.902871 
L 285.051373 209.807435 
L 285.126919 209.521129 
L 285.544224 209.425694 
L 285.544224 209.330259 
L 286.609051 209.234824 
L 286.609712 209.043953 
L 286.87614 208.948518 
L 286.87614 208.853082 
L 288.116965 208.757647 
L 288.116965 208.662212 
L 288.427539 208.566776 
L 288.469461 208.375906 
L 289.137868 208.280471 
L 289.182885 207.994165 
L 289.386878 207.898729 
L 289.387322 207.707859 
L 289.680626 207.612424 
L 289.78427 207.230682 
L 290.118802 207.135247 
L 290.14855 206.944376 
L 290.7402 206.848941 
L 290.83109 206.4672 
L 290.930694 206.371765 
L 290.930694 206.276329 
L 291.215084 206.180894 
L 291.215084 206.085459 
L 291.688595 205.990024 
L 291.727695 205.799153 
L 292.098934 205.703718 
L 292.20428 205.512847 
L 292.268281 205.417412 
L 292.318698 205.226541 
L 292.588335 205.131106 
L 292.604774 204.940235 
L 292.824947 204.8448 
L 292.866766 204.558494 
L 293.16911 204.463059 
L 293.169912 204.272188 
L 294.4417 204.176753 
L 294.4417 204.081318 
L 294.621054 203.985882 
L 294.686618 203.795012 
L 295.279428 203.699576 
L 295.375952 203.317835 
L 295.972576 203.2224 
L 295.972576 203.126965 
L 296.45012 203.031529 
L 296.45012 202.936094 
L 297.603354 202.840659 
L 297.603354 202.745224 
L 297.823657 202.649788 
L 297.823657 202.554353 
L 298.071137 202.458918 
L 298.071137 202.363482 
L 298.668549 202.268047 
L 298.668549 202.172612 
L 298.940219 202.077176 
L 298.940219 201.981741 
L 299.070734 201.886306 
L 299.070734 201.790871 
L 299.316882 201.695435 
L 299.316882 201.6 
L 299.746814 201.504565 
L 299.747379 201.313694 
L 300.464674 201.218259 
L 300.503562 201.027388 
L 301.13794 200.931953 
L 301.13794 200.836518 
L 301.846169 200.741082 
L 301.846169 200.645647 
L 302.053039 200.550212 
L 302.053039 200.454776 
L 302.276004 200.359341 
L 302.276004 200.263906 
L 302.645611 200.168471 
L 302.666111 199.9776 
L 302.92613 199.882165 
L 302.92613 199.786729 
L 303.3801 199.691294 
L 303.3868 199.500424 
L 303.813186 199.404988 
L 303.88016 199.214118 
L 304.201425 199.118682 
L 304.213424 198.832376 
L 304.4678 198.736941 
L 304.4678 198.641506 
L 304.95228 198.546071 
L 304.95228 198.450635 
L 305.362607 198.3552 
L 305.418457 198.164329 
L 305.516448 198.068894 
L 305.584944 197.782588 
L 305.856885 197.687153 
L 305.856885 197.591718 
L 306.435781 197.496282 
L 306.506357 197.305412 
L 306.787638 197.209976 
L 306.787638 197.114541 
L 307.309765 197.019106 
L 307.309765 196.923671 
L 308.047707 196.828235 
L 308.047707 196.7328 
L 308.302095 196.637365 
L 308.380169 196.255624 
L 308.63484 196.160188 
L 308.63484 196.064753 
L 308.934451 195.969318 
L 308.934451 195.873882 
L 309.527716 195.778447 
L 309.527716 195.683012 
L 310.620588 195.587576 
L 310.677007 195.396706 
L 311.557782 195.301271 
L 311.635285 195.1104 
L 312.243137 195.014965 
L 312.243137 194.919529 
L 313.080882 194.824094 
L 313.130807 194.633224 
L 313.345721 194.537788 
L 313.354623 194.346918 
L 314.970856 194.251482 
L 314.970856 194.156047 
L 315.310785 194.060612 
L 315.377827 193.774306 
L 315.839302 193.678871 
L 315.839302 193.583435 
L 316.662163 193.488 
L 316.696743 193.297129 
L 317.198259 193.201694 
L 317.19982 193.010824 
L 318.707898 192.915388 
L 318.707898 192.819953 
L 319.580811 192.724518 
L 319.580811 192.629082 
L 320.123458 192.533647 
L 320.131685 192.342776 
L 320.807631 192.247341 
L 320.822806 192.056471 
L 321.106114 191.961035 
L 321.189757 191.770165 
L 321.471111 191.674729 
L 321.544802 191.483859 
L 322.408521 191.388424 
L 322.463565 191.197553 
L 323.883087 191.102118 
L 323.993972 190.911247 
L 324.191872 190.815812 
L 324.191872 190.720376 
L 326.003966 190.624941 
L 326.003966 190.529506 
L 326.247449 190.434071 
L 326.247449 190.338635 
L 326.486691 190.2432 
L 326.486691 190.147765 
L 327.078373 190.052329 
L 327.078373 189.956894 
L 328.098436 189.861459 
L 328.098436 189.766024 
L 328.261843 189.670588 
L 328.352767 189.479718 
L 328.716514 189.384282 
L 328.716514 189.288847 
L 329.424975 189.193412 
L 329.424975 189.097976 
L 330.036147 189.002541 
L 330.036147 188.907106 
L 330.829046 188.811671 
L 330.911781 188.6208 
L 331.109137 188.525365 
L 331.109137 188.429929 
L 331.701091 188.334494 
L 331.701091 188.239059 
L 332.432415 188.143624 
L 332.432415 188.048188 
L 333.948385 187.952753 
L 333.972532 187.761882 
L 335.288164 187.666447 
L 335.288164 187.571012 
L 335.926379 187.475576 
L 335.926379 187.380141 
L 336.517294 187.284706 
L 336.517294 187.189271 
L 336.819018 187.093835 
L 336.819018 186.9984 
L 337.06332 186.902965 
L 337.06332 186.807529 
L 338.848146 186.712094 
L 338.848146 186.616659 
L 339.875371 186.521224 
L 339.875371 186.425788 
L 341.790163 186.330353 
L 341.790163 186.234918 
L 342.67696 186.139482 
L 342.67696 186.044047 
L 348.203129 185.948612 
L 348.203129 185.853176 
L 360.8064 185.853176 
L 360.8064 185.853176 
" style="fill: none; stroke: #ff00ff; stroke-width: 1.5; stroke-linecap: square"/>
   </g>
   <g id="line2d_41">
    <defs>
     <path id="ma41292ab97" d="M 0 8.485281 
L 5.091169 0 
L 0 -8.485281 
L -5.091169 0 
z
" style="stroke: #ff00ff; stroke-width: 1.5; stroke-linejoin: miter"/>
    </defs>
    <g>
     <use xlink:href="#ma41292ab97" x="191.516934" y="283.101741" style="fill-opacity: 0; stroke: #ff00ff; stroke-width: 1.5; stroke-linejoin: miter"/>
     <use xlink:href="#ma41292ab97" x="254.399893" y="247.408941" style="fill-opacity: 0; stroke: #ff00ff; stroke-width: 1.5; stroke-linejoin: miter"/>
     <use xlink:href="#ma41292ab97" x="302.242857" y="200.359341" style="fill-opacity: 0; stroke: #ff00ff; stroke-width: 1.5; stroke-linejoin: miter"/>
     <use xlink:href="#ma41292ab97" x="348.203129" y="185.853176" style="fill-opacity: 0; stroke: #ff00ff; stroke-width: 1.5; stroke-linejoin: miter"/>
     <use xlink:href="#ma41292ab97" x="360.8064" y="185.853176" style="fill-opacity: 0; stroke: #ff00ff; stroke-width: 1.5; stroke-linejoin: miter"/>
    </g>
   </g>
   <g id="line2d_42">
    <path style="fill: none; stroke: #ff00ff; stroke-width: 1.5; stroke-linecap: square"/>
    <g/>
   </g>
   <g id="line2d_43">
    <path d="M 261.140155 239.678682 
" clip-path="url(#pfff5125d06)" style="fill: none; stroke: #ff00ff; stroke-width: 1.5; stroke-linecap: square"/>
    <defs>
     <path id="m3035c5b13f" d="M -12 12 
L 12 -12 
M -12 -12 
L 12 12 
" style="stroke: #ff00ff"/>
    </defs>
    <g clip-path="url(#pfff5125d06)">
     <use xlink:href="#m3035c5b13f" x="261.140155" y="239.678682" style="fill: #ff00ff; stroke: #ff00ff"/>
    </g>
   </g>
   <g id="line2d_44">
    <path d="M 360.8064 185.853176 
L 380.514816 293.10336 
" style="fill: none; stroke: #ff00ff; stroke-width: 1.5; stroke-linecap: square"/>
    <g>
     <use xlink:href="#ma41292ab97" x="360.8064" y="185.853176" style="fill-opacity: 0; stroke: #ff00ff; stroke-width: 1.5; stroke-linejoin: miter"/>
     <use xlink:href="#ma41292ab97" x="380.514816" y="293.10336" style="fill-opacity: 0; stroke: #ff00ff; stroke-width: 1.5; stroke-linejoin: miter"/>
    </g>
   </g>
   <g id="line2d_45">
    <path d="M 360.8064 145.770353 
L 380.514816 152.928 
" style="fill: none; stroke: #000080; stroke-width: 1.5; stroke-linecap: square"/>
    <g>
     <use xlink:href="#m4f257caa9b" x="360.8064" y="145.770353" style="fill-opacity: 0; stroke: #000080; stroke-width: 1.5"/>
     <use xlink:href="#m4f257caa9b" x="380.514816" y="152.928" style="fill-opacity: 0; stroke: #000080; stroke-width: 1.5"/>
    </g>
   </g>
   <g id="line2d_46">
    <path d="M 360.8064 298.944 
L 360.8064 6.912 
" style="fill: none; stroke: #000000; stroke-width: 1.5; stroke-linecap: square"/>
   </g>
   <g id="patch_3">
    <path d="M 57.6 298.944 
L 360.8064 298.944 
" style="fill: none; stroke: #000000; stroke-width: 0.8; stroke-linejoin: miter; stroke-linecap: square"/>
   </g>
   <g id="patch_4">
    <path d="M 57.6 6.912 
L 360.8064 6.912 
" style="fill: none; stroke: #000000; stroke-width: 0.8; stroke-linejoin: miter; stroke-linecap: square"/>
   </g>
   <g id="text_13">
    <!-- EvoSpace- -->
    <g transform="translate(386.578944 296.966485)scale(0.14 -0.14)">
     <defs>
      <path id="DejaVuSans-45" d="M 628 4666 
L 3578 4666 
L 3578 4134 
L 1259 4134 
L 1259 2753 
L 3481 2753 
L 3481 2222 
L 1259 2222 
L 1259 531 
L 3634 531 
L 3634 0 
L 628 0 
L 628 4666 
z
" transform="scale(0.015625)"/>
      <path id="DejaVuSans-53" d="M 3425 4513 
L 3425 3897 
Q 3066 4069 2747 4153 
Q 2428 4238 2131 4238 
Q 1616 4238 1336 4038 
Q 1056 3838 1056 3469 
Q 1056 3159 1242 3001 
Q 1428 2844 1947 2747 
L 2328 2669 
Q 3034 2534 3370 2195 
Q 3706 1856 3706 1288 
Q 3706 609 3251 259 
Q 2797 -91 1919 -91 
Q 1588 -91 1214 -16 
Q 841 59 441 206 
L 441 856 
Q 825 641 1194 531 
Q 1563 422 1919 422 
Q 2459 422 2753 634 
Q 3047 847 3047 1241 
Q 3047 1584 2836 1778 
Q 2625 1972 2144 2069 
L 1759 2144 
Q 1053 2284 737 2584 
Q 422 2884 422 3419 
Q 422 4038 858 4394 
Q 1294 4750 2059 4750 
Q 2388 4750 2728 4690 
Q 3069 4631 3425 4513 
z
" transform="scale(0.015625)"/>
     </defs>
     <use xlink:href="#DejaVuSans-45"/>
     <use xlink:href="#DejaVuSans-76" x="63.183594"/>
     <use xlink:href="#DejaVuSans-6f" x="122.363281"/>
     <use xlink:href="#DejaVuSans-53" x="183.544922"/>
     <use xlink:href="#DejaVuSans-70" x="247.021484"/>
     <use xlink:href="#DejaVuSans-61" x="310.498047"/>
     <use xlink:href="#DejaVuSans-63" x="371.777344"/>
     <use xlink:href="#DejaVuSans-65" x="426.757812"/>
     <use xlink:href="#DejaVuSans-2d" x="488.28125"/>
    </g>
   </g>
   <g id="text_14">
    <!-- LCGA -->
    <g transform="translate(386.578944 156.791125)scale(0.14 -0.14)">
     <defs>
      <path id="DejaVuSans-4c" d="M 628 4666 
L 1259 4666 
L 1259 531 
L 3531 531 
L 3531 0 
L 628 0 
L 628 4666 
z
" transform="scale(0.015625)"/>
      <path id="DejaVuSans-43" d="M 4122 4306 
L 4122 3641 
Q 3803 3938 3442 4084 
Q 3081 4231 2675 4231 
Q 1875 4231 1450 3742 
Q 1025 3253 1025 2328 
Q 1025 1406 1450 917 
Q 1875 428 2675 428 
Q 3081 428 3442 575 
Q 3803 722 4122 1019 
L 4122 359 
Q 3791 134 3420 21 
Q 3050 -91 2638 -91 
Q 1578 -91 968 557 
Q 359 1206 359 2328 
Q 359 3453 968 4101 
Q 1578 4750 2638 4750 
Q 3056 4750 3426 4639 
Q 3797 4528 4122 4306 
z
" transform="scale(0.015625)"/>
      <path id="DejaVuSans-47" d="M 3809 666 
L 3809 1919 
L 2778 1919 
L 2778 2438 
L 4434 2438 
L 4434 434 
Q 4069 175 3628 42 
Q 3188 -91 2688 -91 
Q 1594 -91 976 548 
Q 359 1188 359 2328 
Q 359 3472 976 4111 
Q 1594 4750 2688 4750 
Q 3144 4750 3555 4637 
Q 3966 4525 4313 4306 
L 4313 3634 
Q 3963 3931 3569 4081 
Q 3175 4231 2741 4231 
Q 1884 4231 1454 3753 
Q 1025 3275 1025 2328 
Q 1025 1384 1454 906 
Q 1884 428 2741 428 
Q 3075 428 3337 486 
Q 3600 544 3809 666 
z
" transform="scale(0.015625)"/>
      <path id="DejaVuSans-41" d="M 2188 4044 
L 1331 1722 
L 3047 1722 
L 2188 4044 
z
M 1831 4666 
L 2547 4666 
L 4325 0 
L 3669 0 
L 3244 1197 
L 1141 1197 
L 716 0 
L 50 0 
L 1831 4666 
z
" transform="scale(0.015625)"/>
     </defs>
     <use xlink:href="#DejaVuSans-4c"/>
     <use xlink:href="#DejaVuSans-43" x="55.712891"/>
     <use xlink:href="#DejaVuSans-47" x="125.537109"/>
     <use xlink:href="#DejaVuSans-41" x="203.027344"/>
    </g>
   </g>
   <g id="text_15">
    <!-- best 2009 -->
    <g transform="translate(386.578944 16.615765)scale(0.14 -0.14)">
     <defs>
      <path id="DejaVuSans-62" d="M 3116 1747 
Q 3116 2381 2855 2742 
Q 2594 3103 2138 3103 
Q 1681 3103 1420 2742 
Q 1159 2381 1159 1747 
Q 1159 1113 1420 752 
Q 1681 391 2138 391 
Q 2594 391 2855 752 
Q 3116 1113 3116 1747 
z
M 1159 2969 
Q 1341 3281 1617 3432 
Q 1894 3584 2278 3584 
Q 2916 3584 3314 3078 
Q 3713 2572 3713 1747 
Q 3713 922 3314 415 
Q 2916 -91 2278 -91 
Q 1894 -91 1617 61 
Q 1341 213 1159 525 
L 1159 0 
L 581 0 
L 581 4863 
L 1159 4863 
L 1159 2969 
z
" transform="scale(0.015625)"/>
      <path id="DejaVuSans-39" d="M 703 97 
L 703 672 
Q 941 559 1184 500 
Q 1428 441 1663 441 
Q 2288 441 2617 861 
Q 2947 1281 2994 2138 
Q 2813 1869 2534 1725 
Q 2256 1581 1919 1581 
Q 1219 1581 811 2004 
Q 403 2428 403 3163 
Q 403 3881 828 4315 
Q 1253 4750 1959 4750 
Q 2769 4750 3195 4129 
Q 3622 3509 3622 2328 
Q 3622 1225 3098 567 
Q 2575 -91 1691 -91 
Q 1453 -91 1209 -44 
Q 966 3 703 97 
z
M 1959 2075 
Q 2384 2075 2632 2365 
Q 2881 2656 2881 3163 
Q 2881 3666 2632 3958 
Q 2384 4250 1959 4250 
Q 1534 4250 1286 3958 
Q 1038 3666 1038 3163 
Q 1038 2656 1286 2365 
Q 1534 2075 1959 2075 
z
" transform="scale(0.015625)"/>
     </defs>
     <use xlink:href="#DejaVuSans-62"/>
     <use xlink:href="#DejaVuSans-65" x="63.476562"/>
     <use xlink:href="#DejaVuSans-73" x="125"/>
     <use xlink:href="#DejaVuSans-74" x="177.099609"/>
     <use xlink:href="#DejaVuSans-20" x="216.308594"/>
     <use xlink:href="#DejaVuSans-32" x="248.095703"/>
     <use xlink:href="#DejaVuSans-30" x="311.71875"/>
     <use xlink:href="#DejaVuSans-30" x="375.341797"/>
     <use xlink:href="#DejaVuSans-39" x="438.964844"/>
    </g>
   </g>
   <g id="text_16">
    <!-- bbob f6-f9, 20-D -->
    <g transform="translate(60.632064 17.582726)scale(0.102 -0.102)">
     <defs>
      <path id="DejaVuSans-44" d="M 1259 4147 
L 1259 519 
L 2022 519 
Q 2988 519 3436 956 
Q 3884 1394 3884 2338 
Q 3884 3275 3436 3711 
Q 2988 4147 2022 4147 
L 1259 4147 
z
M 628 4666 
L 1925 4666 
Q 3281 4666 3915 4102 
Q 4550 3538 4550 2338 
Q 4550 1131 3912 565 
Q 3275 0 1925 0 
L 628 0 
L 628 4666 
z
" transform="scale(0.015625)"/>
     </defs>
     <use xlink:href="#DejaVuSans-62"/>
     <use xlink:href="#DejaVuSans-62" x="63.476562"/>
     <use xlink:href="#DejaVuSans-6f" x="126.953125"/>
     <use xlink:href="#DejaVuSans-62" x="188.134766"/>
     <use xlink:href="#DejaVuSans-20" x="251.611328"/>
     <use xlink:href="#DejaVuSans-66" x="283.398438"/>
     <use xlink:href="#DejaVuSans-36" x="318.603516"/>
     <use xlink:href="#DejaVuSans-2d" x="382.226562"/>
     <use xlink:href="#DejaVuSans-66" x="418.310547"/>
     <use xlink:href="#DejaVuSans-39" x="453.515625"/>
     <use xlink:href="#DejaVuSans-2c" x="517.138672"/>
     <use xlink:href="#DejaVuSans-20" x="548.925781"/>
     <use xlink:href="#DejaVuSans-32" x="580.712891"/>
     <use xlink:href="#DejaVuSans-30" x="644.335938"/>
     <use xlink:href="#DejaVuSans-2d" x="707.958984"/>
     <use xlink:href="#DejaVuSans-44" x="744.042969"/>
    </g>
    <!-- 51 targets: 100..1e-08 -->
    <g transform="translate(60.632064 29.004495)scale(0.102 -0.102)">
     <defs>
      <path id="DejaVuSans-35" d="M 691 4666 
L 3169 4666 
L 3169 4134 
L 1269 4134 
L 1269 2991 
Q 1406 3038 1543 3061 
Q 1681 3084 1819 3084 
Q 2600 3084 3056 2656 
Q 3513 2228 3513 1497 
Q 3513 744 3044 326 
Q 2575 -91 1722 -91 
Q 1428 -91 1123 -41 
Q 819 9 494 109 
L 494 744 
Q 775 591 1075 516 
Q 1375 441 1709 441 
Q 2250 441 2565 725 
Q 2881 1009 2881 1497 
Q 2881 1984 2565 2268 
Q 2250 2553 1709 2553 
Q 1456 2553 1204 2497 
Q 953 2441 691 2322 
L 691 4666 
z
" transform="scale(0.015625)"/>
      <path id="DejaVuSans-3a" d="M 750 794 
L 1409 794 
L 1409 0 
L 750 0 
L 750 794 
z
M 750 3309 
L 1409 3309 
L 1409 2516 
L 750 2516 
L 750 3309 
z
" transform="scale(0.015625)"/>
     </defs>
     <use xlink:href="#DejaVuSans-35"/>
     <use xlink:href="#DejaVuSans-31" x="63.623047"/>
     <use xlink:href="#DejaVuSans-20" x="127.246094"/>
     <use xlink:href="#DejaVuSans-74" x="159.033203"/>
     <use xlink:href="#DejaVuSans-61" x="198.242188"/>
     <use xlink:href="#DejaVuSans-72" x="259.521484"/>
     <use xlink:href="#DejaVuSans-67" x="298.884766"/>
     <use xlink:href="#DejaVuSans-65" x="362.361328"/>
     <use xlink:href="#DejaVuSans-74" x="423.884766"/>
     <use xlink:href="#DejaVuSans-73" x="463.09375"/>
     <use xlink:href="#DejaVuSans-3a" x="515.193359"/>
     <use xlink:href="#DejaVuSans-20" x="548.884766"/>
     <use xlink:href="#DejaVuSans-31" x="580.671875"/>
     <use xlink:href="#DejaVuSans-30" x="644.294922"/>
     <use xlink:href="#DejaVuSans-30" x="707.917969"/>
     <use xlink:href="#DejaVuSans-2e" x="771.541016"/>
     <use xlink:href="#DejaVuSans-2e" x="803.328125"/>
     <use xlink:href="#DejaVuSans-31" x="835.115234"/>
     <use xlink:href="#DejaVuSans-65" x="898.738281"/>
     <use xlink:href="#DejaVuSans-2d" x="960.261719"/>
     <use xlink:href="#DejaVuSans-30" x="996.345703"/>
     <use xlink:href="#DejaVuSans-38" x="1059.96875"/>
    </g>
    <!-- 15 instances -->
    <g transform="translate(60.632064 40.426264)scale(0.102 -0.102)">
     <use xlink:href="#DejaVuSans-31"/>
     <use xlink:href="#DejaVuSans-35" x="63.623047"/>
     <use xlink:href="#DejaVuSans-20" x="127.246094"/>
     <use xlink:href="#DejaVuSans-69" x="159.033203"/>
     <use xlink:href="#DejaVuSans-6e" x="186.816406"/>
     <use xlink:href="#DejaVuSans-73" x="250.195312"/>
     <use xlink:href="#DejaVuSans-74" x="302.294922"/>
     <use xlink:href="#DejaVuSans-61" x="341.503906"/>
     <use xlink:href="#DejaVuSans-6e" x="402.783203"/>
     <use xlink:href="#DejaVuSans-63" x="466.162109"/>
     <use xlink:href="#DejaVuSans-65" x="521.142578"/>
     <use xlink:href="#DejaVuSans-73" x="582.666016"/>
    </g>
   </g>
   <g id="text_17">
    <!-- v2.6 -->
    <g style="fill: #808080" transform="translate(198.292262 293.943992)scale(0.1 -0.1)">
     <use xlink:href="#DejaVuSans-76"/>
     <use xlink:href="#DejaVuSans-32" x="59.179688"/>
     <use xlink:href="#DejaVuSans-2e" x="122.802734"/>
     <use xlink:href="#DejaVuSans-36" x="154.589844"/>
    </g>
   </g>
  </g>
 </g>
 <defs>
  <clipPath id="pfff5125d06">
   <rect x="57.6" y="6.912" width="303.2064" height="292.032"/>
  </clipPath>
 </defs>
</svg>
