<?xml version="1.0" encoding="utf-8" standalone="no"?>
<!DOCTYPE svg PUBLIC "-//W3C//DTD SVG 1.1//EN"
  "http://www.w3.org/Graphics/SVG/1.1/DTD/svg11.dtd">
<svg xmlns:xlink="http://www.w3.org/1999/xlink" width="460.8pt" height="345.6pt" viewBox="0 0 460.8 345.6" xmlns="http://www.w3.org/2000/svg" version="1.1">
 <metadata>
  <rdf:RDF xmlns:dc="http://purl.org/dc/elements/1.1/" xmlns:cc="http://creativecommons.org/ns#" xmlns:rdf="http://www.w3.org/1999/02/22-rdf-syntax-ns#">
   <cc:Work>
    <dc:type rdf:resource="http://purl.org/dc/dcmitype/StillImage"/>
    <dc:date>2024-05-29T08:01:55.449125</dc:date>
    <dc:format>image/svg+xml</dc:format>
    <dc:creator>
     <cc:Agent>
      <dc:title>Matplotlib v3.5.1, https://matplotlib.org/</dc:title>
     </cc:Agent>
    </dc:creator>
   </cc:Work>
  </rdf:RDF>
 </metadata>
 <defs>
  <style type="text/css">*{stroke-linejoin: round; stroke-linecap: butt}</style>
 </defs>
 <g id="figure_1">
  <g id="patch_1">
   <path d="M 0 345.6 
L 460.8 345.6 
L 460.8 0 
L 0 0 
z
" style="fill: #ffffff"/>
  </g>
  <g id="axes_1">
   <g id="patch_2">
    <path d="M 57.6 298.944 
L 360.8064 298.944 
L 360.8064 6.912 
L 57.6 6.912 
z
" style="fill: #ffffff"/>
   </g>
   <g id="line2d_1">
    <path d="M -1 292.979294 
L 1.245626 292.979294 
L 1.245626 292.502118 
L 8.873054 292.502118 
L 8.873054 292.263529 
L 21.912228 292.263529 
L 21.912228 292.024941 
L 24.812042 292.024941 
L 24.812042 291.786353 
L 54.542767 291.786353 
L 54.542767 291.547765 
L 63.245433 291.547765 
L 63.245433 291.309176 
L 63.590609 291.309176 
L 63.590609 291.070588 
L 67.581941 291.070588 
L 67.581941 290.832 
L 71.331702 290.832 
L 71.331702 278.664 
L 71.779618 278.664 
L 71.779618 278.425412 
L 71.999638 278.425412 
L 71.999638 278.186824 
L 72.432107 278.186824 
L 72.432107 277.948235 
L 72.644669 277.948235 
L 72.644669 277.709647 
L 73.268314 277.709647 
L 73.268314 277.471059 
L 74.456807 277.471059 
L 74.456807 277.232471 
L 74.836851 277.232471 
L 74.836851 276.993882 
L 75.574654 276.993882 
L 75.574654 276.755294 
L 76.629783 276.755294 
L 76.629783 276.516706 
L 76.800025 276.516706 
L 76.800025 276.278118 
L 77.628862 276.278118 
L 77.628862 276.039529 
L 77.790335 276.039529 
L 77.790335 275.323765 
L 77.950435 275.323765 
L 77.950435 275.085176 
L 78.109183 275.085176 
L 78.109183 274.846588 
L 78.266603 274.846588 
L 78.266603 273.892235 
L 78.422716 273.892235 
L 78.422716 266.257412 
L 80.75893 266.257412 
L 80.75893 266.018824 
L 83.678349 266.018824 
L 83.678349 265.541647 
L 85.147866 265.541647 
L 85.147866 265.303059 
L 85.471281 265.303059 
L 85.471281 265.064471 
L 86.307488 265.064471 
L 86.307488 264.825882 
L 87.495981 264.825882 
L 87.495981 264.587294 
L 88.248544 264.587294 
L 88.248544 264.348706 
L 88.88321 264.348706 
L 88.88321 264.110118 
L 89.839199 264.110118 
L 89.839199 263.871529 
L 90.586777 263.871529 
L 90.586777 263.394353 
L 91.069151 263.394353 
L 91.069151 263.155765 
L 93.591002 263.155765 
L 93.591002 262.917176 
L 94.995002 262.917176 
L 94.995002 262.678588 
L 95.314391 262.678588 
L 95.314391 262.44 
L 95.752617 262.44 
L 95.814395 261.962824 
L 97.239295 261.962824 
L 97.239295 261.724235 
L 99.499396 261.724235 
L 99.499396 261.485647 
L 99.950294 261.485647 
L 99.950294 261.247059 
L 100.438933 261.247059 
L 100.438933 261.008471 
L 100.868112 261.008471 
L 100.868112 260.769882 
L 102.231865 260.769882 
L 102.231865 260.531294 
L 102.62243 260.531294 
L 102.62243 260.292706 
L 104.961779 260.292706 
L 104.961779 260.054118 
L 105.26277 260.054118 
L 105.26277 259.815529 
L 105.668924 259.815529 
L 105.668924 259.576941 
L 107.742016 259.576941 
L 107.742016 259.338353 
L 107.872426 259.338353 
L 107.872426 259.099765 
L 108.636452 259.099765 
L 108.636452 258.861176 
L 109.037698 258.861176 
L 109.037698 258.622588 
L 110.134978 258.622588 
L 110.134978 258.384 
L 111.0898 258.384 
L 111.117162 257.668235 
L 111.86758 257.668235 
L 111.86758 257.429647 
L 112.283321 257.429647 
L 112.283321 257.191059 
L 112.614474 257.191059 
L 112.614474 256.952471 
L 113.405616 256.952471 
L 113.405616 256.713882 
L 113.57433 256.713882 
L 113.57433 256.475294 
L 113.789049 256.475294 
L 113.883699 253.850824 
L 113.907287 253.850824 
L 114.001345 246.454588 
L 114.024786 246.454588 
L 114.048198 245.500235 
L 114.211271 245.500235 
L 114.211271 245.261647 
L 114.395926 245.261647 
L 114.395926 245.023059 
L 114.624224 245.023059 
L 114.646902 244.545882 
L 115.725918 244.545882 
L 115.725918 244.307294 
L 116.086263 244.307294 
L 116.086263 244.068706 
L 116.232657 244.068706 
L 116.232657 243.830118 
L 116.542574 243.830118 
L 116.542574 243.591529 
L 116.968056 243.591529 
L 116.968056 243.352941 
L 117.226706 243.352941 
L 117.226706 243.114353 
L 118.264583 243.114353 
L 118.264583 242.875765 
L 118.543003 242.875765 
L 118.543003 242.637176 
L 118.835511 242.637176 
L 118.835511 242.398588 
L 118.962067 242.398588 
L 118.962067 242.16 
L 120.030297 242.16 
L 120.030297 241.921412 
L 120.199771 241.921412 
L 120.199771 241.682824 
L 121.39274 241.682824 
L 121.39274 241.444235 
L 121.722363 241.444235 
L 121.722363 241.205647 
L 121.892744 241.205647 
L 121.938946 240.489882 
L 122.64833 240.489882 
L 122.64833 240.251294 
L 124.373813 240.251294 
L 124.441262 239.774118 
L 124.708666 239.774118 
L 124.708666 239.535529 
L 125.037663 239.535529 
L 125.037663 239.296941 
L 125.653649 239.296941 
L 125.653649 239.058353 
L 126.213373 239.058353 
L 126.213373 238.819765 
L 126.408439 238.819765 
L 126.408439 238.581176 
L 127.18073 238.581176 
L 127.18073 238.342588 
L 127.866525 238.342588 
L 127.866525 238.104 
L 129.622688 238.104 
L 129.632909 237.626824 
L 130.186674 237.626824 
L 130.186674 237.388235 
L 130.393884 237.388235 
L 130.393884 237.149647 
L 131.115828 237.149647 
L 131.115828 236.911059 
L 131.247576 236.911059 
L 131.247576 236.672471 
L 131.462034 236.672471 
L 131.462034 236.433882 
L 132.162715 236.433882 
L 132.162715 236.195294 
L 132.296225 236.195294 
L 132.296225 235.956706 
L 132.812362 235.956706 
L 132.812362 235.718118 
L 133.01833 235.718118 
L 133.043918 235.240941 
L 134.368469 235.240941 
L 134.368469 235.002353 
L 134.605294 235.002353 
L 134.605294 234.763765 
L 135.093129 234.763765 
L 135.123679 234.286588 
L 135.230218 234.286588 
L 135.290827 233.809412 
L 135.463998 233.809412 
L 135.463998 233.570824 
L 136.032411 233.570824 
L 136.032411 233.332235 
L 136.520491 233.332235 
L 136.520491 233.093647 
L 137.13389 233.093647 
L 137.13389 232.855059 
L 137.284164 232.855059 
L 137.324941 232.377882 
L 138.36167 232.377882 
L 138.36167 232.139294 
L 138.73696 232.139294 
L 138.83119 231.662118 
L 138.937418 231.662118 
L 138.937418 231.423529 
L 139.15425 231.423529 
L 139.15425 231.184941 
L 139.374701 231.184941 
L 139.374701 230.946353 
L 140.056223 230.946353 
L 140.056223 230.707765 
L 141.156561 230.707765 
L 141.156561 230.469176 
L 141.299993 230.469176 
L 141.316472 229.992 
L 141.756053 229.992 
L 141.756053 229.753412 
L 142.368208 229.753412 
L 142.368208 229.514824 
L 143.046405 229.514824 
L 143.046405 229.276235 
L 143.48206 229.276235 
L 143.48206 229.037647 
L 143.859951 229.037647 
L 143.859951 228.799059 
L 144.27737 228.799059 
L 144.27737 228.560471 
L 144.547509 228.560471 
L 144.612137 227.844706 
L 145.008857 227.844706 
L 145.008857 227.606118 
L 145.237585 227.606118 
L 145.237585 227.367529 
L 145.665089 227.367529 
L 145.665089 227.128941 
L 145.851536 227.128941 
L 145.851536 226.890353 
L 145.984815 226.890353 
L 145.984815 226.651765 
L 146.682865 226.651765 
L 146.682865 226.413176 
L 147.248088 226.413176 
L 147.248088 226.174588 
L 147.757874 226.174588 
L 147.781252 225.697412 
L 147.874475 225.697412 
L 147.874475 225.458824 
L 148.785835 225.458824 
L 148.785835 225.220235 
L 148.958537 225.220235 
L 149.057037 224.743059 
L 149.133292 224.743059 
L 149.133292 224.504471 
L 149.324384 224.504471 
L 149.324384 224.265882 
L 149.609197 224.265882 
L 149.609197 224.027294 
L 149.76753 224.027294 
L 149.795539 223.550118 
L 149.882799 223.550118 
L 149.882799 223.311529 
L 150.24152 223.311529 
L 150.299511 222.834353 
L 150.499402 222.834353 
L 150.499402 222.595765 
L 151.33004 222.595765 
L 151.33004 222.357176 
L 151.973476 222.357176 
L 152.023267 221.88 
L 152.236493 221.88 
L 152.236493 221.641412 
L 152.541288 221.641412 
L 152.541288 221.402824 
L 152.655828 221.402824 
L 152.655828 221.164235 
L 152.870956 221.164235 
L 152.870956 220.925647 
L 153.01302 220.925647 
L 153.036593 220.448471 
L 153.279439 220.448471 
L 153.279439 220.209882 
L 153.74742 220.209882 
L 153.823826 219.732706 
L 154.020484 219.732706 
L 154.020484 219.494118 
L 154.292396 219.494118 
L 154.292396 219.255529 
L 154.530538 219.255529 
L 154.530538 219.016941 
L 154.971412 219.016941 
L 155.000616 218.539765 
L 155.13016 218.539765 
L 155.203786 218.062588 
L 155.396995 218.062588 
L 155.396995 217.824 
L 155.934724 217.824 
L 155.934724 217.585412 
L 156.245169 217.585412 
L 156.312092 216.869647 
L 156.665049 216.869647 
L 156.665049 216.631059 
L 157.118477 216.631059 
L 157.196538 216.153882 
L 157.349354 216.153882 
L 157.349354 215.915294 
L 157.540383 215.915294 
L 157.642093 215.438118 
L 157.811919 215.438118 
L 157.859835 214.960941 
L 157.998331 214.960941 
L 158.10435 214.483765 
L 158.212011 214.483765 
L 158.212011 214.245176 
L 158.702084 214.245176 
L 158.702084 214.006588 
L 158.864805 214.006588 
L 158.920889 213.290824 
L 159.476894 213.290824 
L 159.476894 213.052235 
L 159.657945 213.052235 
L 159.657945 212.813647 
L 159.792086 212.813647 
L 159.900758 211.859294 
L 160.442846 211.859294 
L 160.442846 211.620706 
L 160.800947 211.620706 
L 160.800947 211.382118 
L 161.00834 211.382118 
L 161.00834 211.143529 
L 161.198212 211.143529 
L 161.198212 210.904941 
L 161.342683 210.904941 
L 161.342683 210.666353 
L 161.712082 210.666353 
L 161.786209 210.189176 
L 161.867413 210.189176 
L 161.896855 209.712 
L 162.123481 209.712 
L 162.157966 209.234824 
L 162.261043 209.234824 
L 162.261043 208.996235 
L 162.483349 208.996235 
L 162.579345 208.280471 
L 162.660734 208.280471 
L 162.736499 207.803294 
L 162.790931 207.803294 
L 162.829465 207.087529 
L 162.979345 207.087529 
L 163.090113 206.610353 
L 163.131484 206.610353 
L 163.195086 206.133176 
L 163.280694 206.133176 
L 163.372716 205.417412 
L 163.394802 205.417412 
L 163.498092 204.701647 
L 163.525091 204.701647 
L 163.582336 204.224471 
L 163.647785 204.224471 
L 163.707998 203.747294 
L 163.769684 203.747294 
L 163.879217 203.031529 
L 163.930446 203.031529 
L 164.030845 202.077176 
L 164.043972 202.077176 
L 164.124178 201.361412 
L 164.158448 201.361412 
L 164.221926 200.645647 
L 164.275472 200.645647 
L 164.353085 199.929882 
L 164.388551 199.929882 
L 164.465701 198.975529 
L 164.500955 198.975529 
L 164.580835 198.259765 
L 164.623829 198.259765 
L 164.709524 197.305412 
L 164.755384 197.305412 
L 164.848343 195.873882 
L 164.889163 195.873882 
L 164.976782 195.158118 
L 165.021997 195.158118 
L 165.122946 194.442353 
L 165.287954 194.442353 
L 165.287954 194.203765 
L 165.460658 194.203765 
L 165.460658 193.965176 
L 165.58802 193.965176 
L 165.58802 193.726588 
L 165.737026 193.726588 
L 165.737026 193.488 
L 166.041872 193.488 
L 166.052194 192.772235 
L 166.229739 192.772235 
L 166.229739 192.533647 
L 166.370868 192.533647 
L 166.376665 192.056471 
L 166.495114 192.056471 
L 166.591344 191.579294 
L 166.612821 191.579294 
L 166.682808 191.102118 
L 166.758217 191.102118 
L 166.83191 190.386353 
L 166.89686 190.386353 
L 166.957372 189.909176 
L 167.012088 189.909176 
L 167.10711 188.954824 
L 167.141924 188.954824 
L 167.22106 188.239059 
L 167.259813 188.239059 
L 167.357722 187.284706 
L 167.398939 187.284706 
L 167.493397 186.091765 
L 167.519325 186.091765 
L 167.617252 185.137412 
L 167.649782 185.137412 
L 167.733557 184.183059 
L 167.765886 184.183059 
L 167.855845 183.228706 
L 167.886628 183.228706 
L 167.986658 182.274353 
L 168.007929 182.274353 
L 168.112603 181.081412 
L 168.12053 181.081412 
L 168.146926 180.604235 
L 168.637696 180.604235 
L 168.637696 180.365647 
L 168.978946 180.365647 
L 168.978946 180.127059 
L 169.103456 180.127059 
L 169.103456 179.888471 
L 169.284344 179.888471 
L 169.284344 179.649882 
L 169.614163 179.649882 
L 169.614163 179.411294 
L 169.743035 179.411294 
L 169.849356 174.878118 
L 169.854175 174.878118 
L 169.956278 162.948706 
L 169.979025 162.948706 
L 170.012498 159.369882 
L 170.247512 159.369882 
L 170.247512 159.131294 
L 170.373303 159.131294 
L 170.421281 158.654118 
L 170.857946 158.654118 
L 170.857946 158.415529 
L 171.149147 158.415529 
L 171.149147 158.176941 
L 171.446979 158.176941 
L 171.446979 157.938353 
L 171.763036 157.938353 
L 171.763036 157.699765 
L 172.355415 157.699765 
L 172.395444 157.222588 
L 172.672251 157.222588 
L 172.672251 156.984 
L 172.867212 156.984 
L 172.914359 156.506824 
L 173.215951 156.506824 
L 173.215951 156.268235 
L 173.41735 156.268235 
L 173.41735 156.029647 
L 173.760043 156.029647 
L 173.760043 155.791059 
L 173.901414 155.791059 
L 173.90627 155.313882 
L 174.021474 155.313882 
L 174.021474 155.075294 
L 174.318313 155.075294 
L 174.350587 154.598118 
L 174.572151 154.598118 
L 174.579648 154.120941 
L 174.723384 154.120941 
L 174.723384 153.882353 
L 174.896456 153.882353 
L 174.896456 153.643765 
L 175.108987 153.643765 
L 175.108987 153.405176 
L 175.254174 153.405176 
L 175.297512 152.928 
L 175.466299 152.928 
L 175.552798 152.450824 
L 175.803787 152.450824 
L 175.803787 152.212235 
L 175.965501 152.212235 
L 175.965501 151.973647 
L 176.101656 151.973647 
L 176.134464 151.496471 
L 176.399987 151.496471 
L 176.463667 151.019294 
L 176.613944 151.019294 
L 176.665168 150.542118 
L 176.936586 150.542118 
L 176.936586 150.303529 
L 177.151915 150.303529 
L 177.151915 150.064941 
L 177.365616 150.064941 
L 177.365616 149.826353 
L 177.513695 149.826353 
L 177.592888 149.349176 
L 177.815081 149.349176 
L 177.815081 149.110588 
L 178.00034 149.110588 
L 178.02376 148.633412 
L 178.20235 148.633412 
L 178.247119 148.156235 
L 178.31945 148.156235 
L 178.3739 147.679059 
L 178.536309 147.679059 
L 178.536309 147.440471 
L 178.707864 147.440471 
L 178.707864 147.201882 
L 178.848023 147.201882 
L 178.939647 146.724706 
L 178.983439 146.724706 
L 178.983439 146.486118 
L 179.103159 146.486118 
L 179.116414 146.008941 
L 179.26161 146.008941 
L 179.26161 145.770353 
L 179.449138 145.770353 
L 179.542206 145.293176 
L 179.611885 145.293176 
L 179.611885 145.054588 
L 180.107914 145.054588 
L 180.16161 144.338824 
L 180.423011 144.338824 
L 180.505925 143.861647 
L 180.766663 143.861647 
L 180.766663 143.623059 
L 181.11011 143.623059 
L 181.11011 143.384471 
L 181.229574 143.384471 
L 181.316221 142.907294 
L 181.363316 142.907294 
L 181.363316 142.668706 
L 181.59639 142.668706 
L 181.59639 142.430118 
L 181.975802 142.430118 
L 181.98402 141.952941 
L 182.604477 141.952941 
L 182.695379 141.237176 
L 183.024181 141.237176 
L 183.024181 140.998588 
L 183.142822 140.998588 
L 183.251266 140.521412 
L 183.578126 140.521412 
L 183.578126 140.282824 
L 183.752113 140.282824 
L 183.842802 139.567059 
L 184.212479 139.567059 
L 184.303216 139.089882 
L 184.493346 139.089882 
L 184.493346 138.851294 
L 184.673904 138.851294 
L 184.673904 138.612706 
L 185.005698 138.612706 
L 185.005698 138.374118 
L 185.12963 138.374118 
L 185.12963 138.135529 
L 185.247437 138.135529 
L 185.269743 137.658353 
L 185.393535 137.658353 
L 185.393535 137.419765 
L 185.578753 137.419765 
L 185.578753 137.181176 
L 185.897148 137.181176 
L 186.004136 136.465412 
L 186.099856 136.465412 
L 186.16728 135.988235 
L 186.54948 135.988235 
L 186.582674 135.511059 
L 186.912886 135.511059 
L 186.912886 135.272471 
L 187.044717 135.272471 
L 187.07078 134.795294 
L 187.229273 134.795294 
L 187.285146 134.318118 
L 187.450361 134.318118 
L 187.481532 133.840941 
L 187.892281 133.840941 
L 187.964628 133.363765 
L 188.027075 133.363765 
L 188.027075 133.125176 
L 188.399261 133.125176 
L 188.399261 132.886588 
L 188.555014 132.886588 
L 188.555014 132.648 
L 188.765988 132.648 
L 188.765988 132.409412 
L 188.923992 132.409412 
L 188.923992 132.170824 
L 189.062033 132.170824 
L 189.062033 131.932235 
L 189.196053 131.932235 
L 189.196053 131.693647 
L 189.518093 131.693647 
L 189.548981 131.216471 
L 189.940183 131.216471 
L 189.940183 130.977882 
L 190.316923 130.977882 
L 190.316923 130.739294 
L 190.557278 130.739294 
L 190.606501 130.262118 
L 190.728404 130.262118 
L 190.796974 129.784941 
L 191.057863 129.784941 
L 191.057863 129.546353 
L 191.426088 129.546353 
L 191.426088 129.307765 
L 191.625146 129.307765 
L 191.705239 128.592 
L 191.779736 128.592 
L 191.86553 127.876235 
L 192.046692 127.876235 
L 192.054465 127.399059 
L 192.328158 127.399059 
L 192.328158 127.160471 
L 192.459361 127.160471 
L 192.465879 126.683294 
L 192.681508 126.683294 
L 192.681508 126.444706 
L 193.032208 126.444706 
L 193.10759 125.967529 
L 193.314297 125.967529 
L 193.314297 125.728941 
L 193.630713 125.728941 
L 193.630713 125.490353 
L 193.81022 125.490353 
L 193.905709 124.774588 
L 194.189961 124.774588 
L 194.189961 124.536 
L 194.38092 124.536 
L 194.480394 123.820235 
L 194.802259 123.820235 
L 194.802259 123.581647 
L 194.985549 123.581647 
L 195.059819 123.104471 
L 195.378515 123.104471 
L 195.470396 122.627294 
L 195.638758 122.627294 
L 195.638758 122.388706 
L 195.830166 122.388706 
L 195.902388 121.911529 
L 195.986647 121.911529 
L 195.996553 121.434353 
L 196.183779 121.434353 
L 196.183779 121.195765 
L 196.39562 121.195765 
L 196.489401 120.48 
L 196.715764 120.48 
L 196.756446 120.002824 
L 196.949992 120.002824 
L 197.049571 113.799529 
L 197.23986 113.799529 
L 197.330653 113.322353 
L 197.494315 113.322353 
L 197.567611 112.606588 
L 197.646397 112.606588 
L 197.745101 112.129412 
L 197.851177 112.129412 
L 197.851177 111.890824 
L 197.983139 111.890824 
L 198.004998 111.175059 
L 198.113645 111.175059 
L 198.220869 110.459294 
L 198.247247 110.459294 
L 198.340736 108.789176 
L 198.364301 108.789176 
L 198.414245 108.073412 
L 198.586051 108.073412 
L 198.634628 107.596235 
L 199.019559 107.596235 
L 199.082064 106.880471 
L 199.483985 106.880471 
L 199.483985 106.641882 
L 199.627787 106.641882 
L 199.627787 106.403294 
L 200.181441 106.403294 
L 200.19681 105.926118 
L 200.858596 105.926118 
L 200.858596 105.687529 
L 201.480634 105.687529 
L 201.480634 105.448941 
L 202.292005 105.448941 
L 202.292005 105.210353 
L 202.516357 105.210353 
L 202.516357 104.971765 
L 202.92109 104.971765 
L 202.92109 104.733176 
L 203.446793 104.733176 
L 203.446793 104.494588 
L 203.609271 104.494588 
L 203.609271 104.256 
L 204.046831 104.256 
L 204.0482 103.778824 
L 204.467367 103.778824 
L 204.491837 103.301647 
L 204.876274 103.301647 
L 204.977081 100.438588 
L 204.988434 100.438588 
L 205.092714 98.291294 
L 205.104553 98.291294 
L 205.209481 94.951059 
L 205.222165 94.951059 
L 205.30102 93.042353 
L 205.677324 93.042353 
L 205.677324 92.803765 
L 205.84323 92.803765 
L 205.84323 92.565176 
L 206.012269 92.565176 
L 206.012269 92.326588 
L 206.36852 92.326588 
L 206.36852 92.088 
L 206.573502 92.088 
L 206.669717 91.610824 
L 207.000474 91.610824 
L 207.000474 91.372235 
L 207.344896 91.372235 
L 207.348999 90.895059 
L 207.531926 90.895059 
L 207.532413 90.417882 
L 207.706489 90.417882 
L 207.706489 90.179294 
L 208.118697 90.179294 
L 208.160714 89.702118 
L 208.457034 89.702118 
L 208.457034 89.463529 
L 208.77814 89.463529 
L 208.825996 88.986353 
L 209.252791 88.986353 
L 209.304042 88.509176 
L 209.579956 88.509176 
L 209.579956 88.270588 
L 209.913419 88.270588 
L 209.925302 87.554824 
L 210.17933 87.554824 
L 210.17933 87.316235 
L 210.629546 87.316235 
L 210.629546 87.077647 
L 210.967284 87.077647 
L 210.967284 86.839059 
L 212.064738 86.839059 
L 212.064738 86.600471 
L 213.344651 86.600471 
L 213.344651 86.361882 
L 214.646395 86.361882 
L 214.646395 86.123294 
L 215.177441 86.123294 
L 215.177441 85.884706 
L 215.478026 85.884706 
L 215.478026 85.646118 
L 215.695906 85.646118 
L 215.695906 85.407529 
L 216.598022 85.407529 
L 216.651949 84.930353 
L 216.895293 84.930353 
L 216.971121 84.453176 
L 218.568289 84.453176 
L 218.568289 84.214588 
L 218.979323 84.214588 
L 218.979323 83.976 
L 219.557524 83.976 
L 219.557524 83.737412 
L 219.759276 83.737412 
L 219.759276 83.498824 
L 220.479206 83.498824 
L 220.479206 83.260235 
L 220.898427 83.260235 
L 220.925003 82.783059 
L 221.106047 82.783059 
L 221.106047 82.544471 
L 221.342705 82.544471 
L 221.342705 82.305882 
L 222.186059 82.305882 
L 222.209836 81.828706 
L 222.528682 81.828706 
L 222.528682 81.590118 
L 223.024133 81.590118 
L 223.024133 81.351529 
L 223.148765 81.351529 
L 223.148765 81.112941 
L 223.348031 81.112941 
L 223.348031 80.874353 
L 223.858966 80.874353 
L 223.957241 80.397176 
L 224.036224 80.397176 
L 224.139699 79.681412 
L 224.226621 79.681412 
L 224.312478 78.727059 
L 226.749224 78.727059 
L 226.749224 78.488471 
L 227.139211 78.488471 
L 227.139211 78.249882 
L 228.228898 78.249882 
L 228.228898 78.011294 
L 231.167316 78.011294 
L 231.167316 77.772706 
L 232.115535 77.772706 
L 232.115535 77.534118 
L 233.848058 77.534118 
L 233.848058 77.295529 
L 236.144061 77.295529 
L 236.234756 76.818353 
L 238.082444 76.818353 
L 238.082444 76.579765 
L 238.9756 76.579765 
L 238.977403 75.625412 
L 239.938655 75.625412 
L 240.048575 69.899294 
L 240.062161 69.899294 
L 240.1342 66.320471 
L 240.306027 66.320471 
L 240.306027 66.081882 
L 240.593336 66.081882 
L 240.652533 65.604706 
L 240.75448 65.604706 
L 240.75448 65.366118 
L 240.878394 65.366118 
L 240.965747 64.888941 
L 241.305223 64.888941 
L 241.305223 64.650353 
L 241.587884 64.650353 
L 241.677437 64.173176 
L 243.352886 64.173176 
L 243.352886 63.934588 
L 243.58831 63.934588 
L 243.58831 63.696 
L 243.743116 63.696 
L 243.775691 63.218824 
L 245.179506 63.218824 
L 245.179506 62.980235 
L 245.400912 62.980235 
L 245.400912 62.741647 
L 246.129739 62.741647 
L 246.173923 62.264471 
L 246.675802 62.264471 
L 246.727487 61.787294 
L 246.793492 61.787294 
L 246.899908 61.310118 
L 246.97993 61.310118 
L 247.043107 60.832941 
L 247.121969 60.832941 
L 247.121969 60.594353 
L 247.804801 60.594353 
L 247.804801 60.355765 
L 248.773073 60.355765 
L 248.876035 59.64 
L 248.935431 59.64 
L 249.042235 58.924235 
L 249.096971 58.924235 
L 249.200682 58.208471 
L 249.226972 58.208471 
L 249.300242 57.254118 
L 249.359107 57.254118 
L 249.460407 56.061176 
L 249.479522 56.061176 
L 249.56327 55.345412 
L 249.618023 55.345412 
L 249.726414 54.629647 
L 249.774139 54.629647 
L 249.876658 53.913882 
L 249.93206 53.913882 
L 250.02313 53.198118 
L 250.070144 53.198118 
L 250.17297 52.482353 
L 250.226785 52.482353 
L 250.32734 51.766588 
L 250.362513 51.766588 
L 250.427809 51.050824 
L 250.475283 51.050824 
L 250.571438 50.096471 
L 250.596195 50.096471 
L 250.664659 49.380706 
L 250.712864 49.380706 
L 250.758743 48.903529 
L 252.721945 48.903529 
L 252.794848 48.426353 
L 253.358902 48.426353 
L 253.358902 48.187765 
L 253.867109 48.187765 
L 253.867109 47.949176 
L 254.322886 47.949176 
L 254.322886 47.710588 
L 254.519475 47.710588 
L 254.519475 47.472 
L 254.706566 47.472 
L 254.706566 47.233412 
L 259.18239 47.233412 
L 259.271902 46.756235 
L 259.400714 46.756235 
L 259.400714 46.517647 
L 260.627073 46.517647 
L 260.627073 46.279059 
L 260.853918 46.279059 
L 260.96273 45.324706 
L 260.995548 45.324706 
L 261.092142 44.370353 
L 261.126966 44.370353 
L 261.221728 43.416 
L 261.246272 43.416 
L 261.33905 42.461647 
L 261.366675 42.461647 
L 261.464465 41.268706 
L 263.56606 41.268706 
L 263.56606 41.030118 
L 269.414524 41.030118 
L 269.414524 40.791529 
L 269.612826 40.791529 
L 269.612826 40.552941 
L 269.740447 40.552941 
L 269.740447 40.314353 
L 269.889783 40.314353 
L 269.951239 39.837176 
L 270.064799 39.837176 
L 270.156877 39.36 
L 270.224518 39.36 
L 270.314191 38.882824 
L 270.383624 38.882824 
L 270.459065 38.405647 
L 270.514001 38.405647 
L 270.593235 37.928471 
L 270.679575 37.928471 
L 270.78933 37.212706 
L 270.845619 37.212706 
L 270.898549 36.735529 
L 270.981468 36.735529 
L 271.058523 36.258353 
L 271.126743 36.258353 
L 271.190286 35.781176 
L 271.270537 35.781176 
L 271.270537 35.542588 
L 278.462397 35.542588 
L 278.462397 35.304 
L 279.149823 35.304 
L 279.149823 35.065412 
L 281.310509 35.065412 
L 281.310509 34.826824 
L 288.874415 34.826824 
L 288.874415 34.588235 
L 289.928169 34.588235 
L 289.928169 34.349647 
L 298.187389 34.349647 
L 298.187389 34.111059 
L 298.758952 34.111059 
L 298.758952 33.872471 
L 301.20816 33.872471 
L 301.20816 33.633882 
L 305.565616 33.633882 
L 305.565616 33.395294 
L 308.76479 33.395294 
L 308.843565 32.918118 
L 308.925264 32.918118 
L 308.925264 32.679529 
L 309.040045 32.679529 
L 309.040045 32.440941 
L 310.897421 32.440941 
L 310.897421 32.202353 
L 318.184022 32.202353 
L 318.184022 31.963765 
L 318.82327 31.963765 
L 318.82327 31.725176 
L 319.799114 31.725176 
L 319.90954 26.237647 
L 319.914054 26.237647 
L 319.914054 25.999059 
L 322.450012 25.999059 
L 322.450012 25.760471 
L 326.888427 25.760471 
L 326.888427 25.521882 
L 334.380208 25.521882 
L 334.386404 24.806118 
L 342.323187 24.806118 
L 342.327831 24.090353 
L 343.704805 24.090353 
L 343.704805 23.851765 
L 355.404622 23.851765 
L 355.424599 15.262588 
L 360.8064 15.262588 
L 360.8064 15.262588 
" style="fill: none; stroke: #f5deb3; stroke-width: 4; stroke-linecap: square"/>
   </g>
   <g id="line2d_2">
    <defs>
     <path id="m991ef1dba0" d="M 0 7.778175 
L 7.778175 0 
L 0 -7.778175 
L -7.778175 0 
z
" style="stroke: #f5deb3; stroke-width: 1.5; stroke-linejoin: miter"/>
    </defs>
    <g>
     <use xlink:href="#m991ef1dba0" x="78.266603" y="273.892235" style="fill: #f5deb3; stroke: #f5deb3; stroke-width: 1.5; stroke-linejoin: miter"/>
     <use xlink:href="#m991ef1dba0" x="161.198212" y="211.143529" style="fill: #f5deb3; stroke: #f5deb3; stroke-width: 1.5; stroke-linejoin: miter"/>
     <use xlink:href="#m991ef1dba0" x="208.77814" y="89.224941" style="fill: #f5deb3; stroke: #f5deb3; stroke-width: 1.5; stroke-linejoin: miter"/>
     <use xlink:href="#m991ef1dba0" x="319.822075" y="30.532235" style="fill: #f5deb3; stroke: #f5deb3; stroke-width: 1.5; stroke-linejoin: miter"/>
     <use xlink:href="#m991ef1dba0" x="355.424599" y="15.262588" style="fill: #f5deb3; stroke: #f5deb3; stroke-width: 1.5; stroke-linejoin: miter"/>
     <use xlink:href="#m991ef1dba0" x="360.8064" y="15.262588" style="fill: #f5deb3; stroke: #f5deb3; stroke-width: 1.5; stroke-linejoin: miter"/>
    </g>
   </g>
   <g id="line2d_3">
    <path style="fill: none; stroke: #f5deb3; stroke-width: 4; stroke-linecap: square"/>
    <g/>
   </g>
   <g id="line2d_4">
    <path d="M 360.8064 15.262588 
L 380.514816 12.75264 
" style="fill: none; stroke: #f5deb3; stroke-width: 4; stroke-linecap: square"/>
    <g>
     <use xlink:href="#m991ef1dba0" x="360.8064" y="15.262588" style="fill: #f5deb3; stroke: #f5deb3; stroke-width: 1.5; stroke-linejoin: miter"/>
     <use xlink:href="#m991ef1dba0" x="380.514816" y="12.75264" style="fill: #f5deb3; stroke: #f5deb3; stroke-width: 1.5; stroke-linejoin: miter"/>
    </g>
   </g>
   <g id="matplotlib.axis_1">
    <g id="xtick_1">
     <g id="line2d_5">
      <path d="M 57.6 298.944 
L 57.6 6.912 
" clip-path="url(#p3124ee804d)" style="fill: none; stroke: #b0b0b0; stroke-width: 0.8; stroke-linecap: square"/>
     </g>
     <g id="line2d_6">
      <defs>
       <path id="m1fc44ae68b" d="M 0 0 
L 0 3.5 
" style="stroke: #000000; stroke-width: 0.8"/>
      </defs>
      <g>
       <use xlink:href="#m1fc44ae68b" x="57.6" y="298.944" style="stroke: #000000; stroke-width: 0.8"/>
      </g>
     </g>
     <g id="text_1">
      <!-- 0 -->
      <g transform="translate(52.191875 318.861344)scale(0.17 -0.17)">
       <defs>
        <path id="DejaVuSans-30" d="M 2034 4250 
Q 1547 4250 1301 3770 
Q 1056 3291 1056 2328 
Q 1056 1369 1301 889 
Q 1547 409 2034 409 
Q 2525 409 2770 889 
Q 3016 1369 3016 2328 
Q 3016 3291 2770 3770 
Q 2525 4250 2034 4250 
z
M 2034 4750 
Q 2819 4750 3233 4129 
Q 3647 3509 3647 2328 
Q 3647 1150 3233 529 
Q 2819 -91 2034 -91 
Q 1250 -91 836 529 
Q 422 1150 422 2328 
Q 422 3509 836 4129 
Q 1250 4750 2034 4750 
z
" transform="scale(0.015625)"/>
       </defs>
       <use xlink:href="#DejaVuSans-30"/>
      </g>
     </g>
    </g>
    <g id="xtick_2">
     <g id="line2d_7">
      <path d="M 144.2304 298.944 
L 144.2304 6.912 
" clip-path="url(#p3124ee804d)" style="fill: none; stroke: #b0b0b0; stroke-width: 0.8; stroke-linecap: square"/>
     </g>
     <g id="line2d_8">
      <g>
       <use xlink:href="#m1fc44ae68b" x="144.2304" y="298.944" style="stroke: #000000; stroke-width: 0.8"/>
      </g>
     </g>
     <g id="text_2">
      <!-- 2 -->
      <g transform="translate(138.822275 318.861344)scale(0.17 -0.17)">
       <defs>
        <path id="DejaVuSans-32" d="M 1228 531 
L 3431 531 
L 3431 0 
L 469 0 
L 469 531 
Q 828 903 1448 1529 
Q 2069 2156 2228 2338 
Q 2531 2678 2651 2914 
Q 2772 3150 2772 3378 
Q 2772 3750 2511 3984 
Q 2250 4219 1831 4219 
Q 1534 4219 1204 4116 
Q 875 4013 500 3803 
L 500 4441 
Q 881 4594 1212 4672 
Q 1544 4750 1819 4750 
Q 2544 4750 2975 4387 
Q 3406 4025 3406 3419 
Q 3406 3131 3298 2873 
Q 3191 2616 2906 2266 
Q 2828 2175 2409 1742 
Q 1991 1309 1228 531 
z
" transform="scale(0.015625)"/>
       </defs>
       <use xlink:href="#DejaVuSans-32"/>
      </g>
     </g>
    </g>
    <g id="xtick_3">
     <g id="line2d_9">
      <path d="M 230.8608 298.944 
L 230.8608 6.912 
" clip-path="url(#p3124ee804d)" style="fill: none; stroke: #b0b0b0; stroke-width: 0.8; stroke-linecap: square"/>
     </g>
     <g id="line2d_10">
      <g>
       <use xlink:href="#m1fc44ae68b" x="230.8608" y="298.944" style="stroke: #000000; stroke-width: 0.8"/>
      </g>
     </g>
     <g id="text_3">
      <!-- 4 -->
      <g transform="translate(225.452675 318.861344)scale(0.17 -0.17)">
       <defs>
        <path id="DejaVuSans-34" d="M 2419 4116 
L 825 1625 
L 2419 1625 
L 2419 4116 
z
M 2253 4666 
L 3047 4666 
L 3047 1625 
L 3713 1625 
L 3713 1100 
L 3047 1100 
L 3047 0 
L 2419 0 
L 2419 1100 
L 313 1100 
L 313 1709 
L 2253 4666 
z
" transform="scale(0.015625)"/>
       </defs>
       <use xlink:href="#DejaVuSans-34"/>
      </g>
     </g>
    </g>
    <g id="xtick_4">
     <g id="line2d_11">
      <path d="M 317.4912 298.944 
L 317.4912 6.912 
" clip-path="url(#p3124ee804d)" style="fill: none; stroke: #b0b0b0; stroke-width: 0.8; stroke-linecap: square"/>
     </g>
     <g id="line2d_12">
      <g>
       <use xlink:href="#m1fc44ae68b" x="317.4912" y="298.944" style="stroke: #000000; stroke-width: 0.8"/>
      </g>
     </g>
     <g id="text_4">
      <!-- 6 -->
      <g transform="translate(312.083075 318.861344)scale(0.17 -0.17)">
       <defs>
        <path id="DejaVuSans-36" d="M 2113 2584 
Q 1688 2584 1439 2293 
Q 1191 2003 1191 1497 
Q 1191 994 1439 701 
Q 1688 409 2113 409 
Q 2538 409 2786 701 
Q 3034 994 3034 1497 
Q 3034 2003 2786 2293 
Q 2538 2584 2113 2584 
z
M 3366 4563 
L 3366 3988 
Q 3128 4100 2886 4159 
Q 2644 4219 2406 4219 
Q 1781 4219 1451 3797 
Q 1122 3375 1075 2522 
Q 1259 2794 1537 2939 
Q 1816 3084 2150 3084 
Q 2853 3084 3261 2657 
Q 3669 2231 3669 1497 
Q 3669 778 3244 343 
Q 2819 -91 2113 -91 
Q 1303 -91 875 529 
Q 447 1150 447 2328 
Q 447 3434 972 4092 
Q 1497 4750 2381 4750 
Q 2619 4750 2861 4703 
Q 3103 4656 3366 4563 
z
" transform="scale(0.015625)"/>
       </defs>
       <use xlink:href="#DejaVuSans-36"/>
      </g>
     </g>
    </g>
    <g id="xtick_5">
     <g id="line2d_13">
      <path d="M 100.9152 298.944 
L 100.9152 6.912 
" clip-path="url(#p3124ee804d)" style="fill: none; stroke: #b0b0b0; stroke-width: 0.8; stroke-linecap: square"/>
     </g>
     <g id="line2d_14">
      <defs>
       <path id="m07ff3d0b62" d="M 0 0 
L 0 2 
" style="stroke: #000000; stroke-width: 0.6"/>
      </defs>
      <g>
       <use xlink:href="#m07ff3d0b62" x="100.9152" y="298.944" style="stroke: #000000; stroke-width: 0.6"/>
      </g>
     </g>
    </g>
    <g id="xtick_6">
     <g id="line2d_15">
      <path d="M 187.5456 298.944 
L 187.5456 6.912 
" clip-path="url(#p3124ee804d)" style="fill: none; stroke: #b0b0b0; stroke-width: 0.8; stroke-linecap: square"/>
     </g>
     <g id="line2d_16">
      <g>
       <use xlink:href="#m07ff3d0b62" x="187.5456" y="298.944" style="stroke: #000000; stroke-width: 0.6"/>
      </g>
     </g>
    </g>
    <g id="xtick_7">
     <g id="line2d_17">
      <path d="M 274.176 298.944 
L 274.176 6.912 
" clip-path="url(#p3124ee804d)" style="fill: none; stroke: #b0b0b0; stroke-width: 0.8; stroke-linecap: square"/>
     </g>
     <g id="line2d_18">
      <g>
       <use xlink:href="#m07ff3d0b62" x="274.176" y="298.944" style="stroke: #000000; stroke-width: 0.6"/>
      </g>
     </g>
    </g>
    <g id="xtick_8">
     <g id="line2d_19">
      <path d="M 360.8064 298.944 
L 360.8064 6.912 
" clip-path="url(#p3124ee804d)" style="fill: none; stroke: #b0b0b0; stroke-width: 0.8; stroke-linecap: square"/>
     </g>
     <g id="line2d_20">
      <g>
       <use xlink:href="#m07ff3d0b62" x="360.8064" y="298.944" style="stroke: #000000; stroke-width: 0.6"/>
      </g>
     </g>
    </g>
    <g id="text_5">
     <!-- log10(# f-evals / dimension) -->
     <g transform="translate(88.823278 339.314156)scale(0.17 -0.17)">
      <defs>
       <path id="DejaVuSans-6c" d="M 603 4863 
L 1178 4863 
L 1178 0 
L 603 0 
L 603 4863 
z
" transform="scale(0.015625)"/>
       <path id="DejaVuSans-6f" d="M 1959 3097 
Q 1497 3097 1228 2736 
Q 959 2375 959 1747 
Q 959 1119 1226 758 
Q 1494 397 1959 397 
Q 2419 397 2687 759 
Q 2956 1122 2956 1747 
Q 2956 2369 2687 2733 
Q 2419 3097 1959 3097 
z
M 1959 3584 
Q 2709 3584 3137 3096 
Q 3566 2609 3566 1747 
Q 3566 888 3137 398 
Q 2709 -91 1959 -91 
Q 1206 -91 779 398 
Q 353 888 353 1747 
Q 353 2609 779 3096 
Q 1206 3584 1959 3584 
z
" transform="scale(0.015625)"/>
       <path id="DejaVuSans-67" d="M 2906 1791 
Q 2906 2416 2648 2759 
Q 2391 3103 1925 3103 
Q 1463 3103 1205 2759 
Q 947 2416 947 1791 
Q 947 1169 1205 825 
Q 1463 481 1925 481 
Q 2391 481 2648 825 
Q 2906 1169 2906 1791 
z
M 3481 434 
Q 3481 -459 3084 -895 
Q 2688 -1331 1869 -1331 
Q 1566 -1331 1297 -1286 
Q 1028 -1241 775 -1147 
L 775 -588 
Q 1028 -725 1275 -790 
Q 1522 -856 1778 -856 
Q 2344 -856 2625 -561 
Q 2906 -266 2906 331 
L 2906 616 
Q 2728 306 2450 153 
Q 2172 0 1784 0 
Q 1141 0 747 490 
Q 353 981 353 1791 
Q 353 2603 747 3093 
Q 1141 3584 1784 3584 
Q 2172 3584 2450 3431 
Q 2728 3278 2906 2969 
L 2906 3500 
L 3481 3500 
L 3481 434 
z
" transform="scale(0.015625)"/>
       <path id="DejaVuSans-31" d="M 794 531 
L 1825 531 
L 1825 4091 
L 703 3866 
L 703 4441 
L 1819 4666 
L 2450 4666 
L 2450 531 
L 3481 531 
L 3481 0 
L 794 0 
L 794 531 
z
" transform="scale(0.015625)"/>
       <path id="DejaVuSans-28" d="M 1984 4856 
Q 1566 4138 1362 3434 
Q 1159 2731 1159 2009 
Q 1159 1288 1364 580 
Q 1569 -128 1984 -844 
L 1484 -844 
Q 1016 -109 783 600 
Q 550 1309 550 2009 
Q 550 2706 781 3412 
Q 1013 4119 1484 4856 
L 1984 4856 
z
" transform="scale(0.015625)"/>
       <path id="DejaVuSans-23" d="M 3272 2816 
L 2363 2816 
L 2100 1772 
L 3016 1772 
L 3272 2816 
z
M 2803 4594 
L 2478 3297 
L 3391 3297 
L 3719 4594 
L 4219 4594 
L 3897 3297 
L 4872 3297 
L 4872 2816 
L 3775 2816 
L 3519 1772 
L 4513 1772 
L 4513 1294 
L 3397 1294 
L 3072 0 
L 2572 0 
L 2894 1294 
L 1978 1294 
L 1656 0 
L 1153 0 
L 1478 1294 
L 494 1294 
L 494 1772 
L 1594 1772 
L 1856 2816 
L 850 2816 
L 850 3297 
L 1978 3297 
L 2297 4594 
L 2803 4594 
z
" transform="scale(0.015625)"/>
       <path id="DejaVuSans-20" transform="scale(0.015625)"/>
       <path id="DejaVuSans-66" d="M 2375 4863 
L 2375 4384 
L 1825 4384 
Q 1516 4384 1395 4259 
Q 1275 4134 1275 3809 
L 1275 3500 
L 2222 3500 
L 2222 3053 
L 1275 3053 
L 1275 0 
L 697 0 
L 697 3053 
L 147 3053 
L 147 3500 
L 697 3500 
L 697 3744 
Q 697 4328 969 4595 
Q 1241 4863 1831 4863 
L 2375 4863 
z
" transform="scale(0.015625)"/>
       <path id="DejaVuSans-2d" d="M 313 2009 
L 1997 2009 
L 1997 1497 
L 313 1497 
L 313 2009 
z
" transform="scale(0.015625)"/>
       <path id="DejaVuSans-65" d="M 3597 1894 
L 3597 1613 
L 953 1613 
Q 991 1019 1311 708 
Q 1631 397 2203 397 
Q 2534 397 2845 478 
Q 3156 559 3463 722 
L 3463 178 
Q 3153 47 2828 -22 
Q 2503 -91 2169 -91 
Q 1331 -91 842 396 
Q 353 884 353 1716 
Q 353 2575 817 3079 
Q 1281 3584 2069 3584 
Q 2775 3584 3186 3129 
Q 3597 2675 3597 1894 
z
M 3022 2063 
Q 3016 2534 2758 2815 
Q 2500 3097 2075 3097 
Q 1594 3097 1305 2825 
Q 1016 2553 972 2059 
L 3022 2063 
z
" transform="scale(0.015625)"/>
       <path id="DejaVuSans-76" d="M 191 3500 
L 800 3500 
L 1894 563 
L 2988 3500 
L 3597 3500 
L 2284 0 
L 1503 0 
L 191 3500 
z
" transform="scale(0.015625)"/>
       <path id="DejaVuSans-61" d="M 2194 1759 
Q 1497 1759 1228 1600 
Q 959 1441 959 1056 
Q 959 750 1161 570 
Q 1363 391 1709 391 
Q 2188 391 2477 730 
Q 2766 1069 2766 1631 
L 2766 1759 
L 2194 1759 
z
M 3341 1997 
L 3341 0 
L 2766 0 
L 2766 531 
Q 2569 213 2275 61 
Q 1981 -91 1556 -91 
Q 1019 -91 701 211 
Q 384 513 384 1019 
Q 384 1609 779 1909 
Q 1175 2209 1959 2209 
L 2766 2209 
L 2766 2266 
Q 2766 2663 2505 2880 
Q 2244 3097 1772 3097 
Q 1472 3097 1187 3025 
Q 903 2953 641 2809 
L 641 3341 
Q 956 3463 1253 3523 
Q 1550 3584 1831 3584 
Q 2591 3584 2966 3190 
Q 3341 2797 3341 1997 
z
" transform="scale(0.015625)"/>
       <path id="DejaVuSans-73" d="M 2834 3397 
L 2834 2853 
Q 2591 2978 2328 3040 
Q 2066 3103 1784 3103 
Q 1356 3103 1142 2972 
Q 928 2841 928 2578 
Q 928 2378 1081 2264 
Q 1234 2150 1697 2047 
L 1894 2003 
Q 2506 1872 2764 1633 
Q 3022 1394 3022 966 
Q 3022 478 2636 193 
Q 2250 -91 1575 -91 
Q 1294 -91 989 -36 
Q 684 19 347 128 
L 347 722 
Q 666 556 975 473 
Q 1284 391 1588 391 
Q 1994 391 2212 530 
Q 2431 669 2431 922 
Q 2431 1156 2273 1281 
Q 2116 1406 1581 1522 
L 1381 1569 
Q 847 1681 609 1914 
Q 372 2147 372 2553 
Q 372 3047 722 3315 
Q 1072 3584 1716 3584 
Q 2034 3584 2315 3537 
Q 2597 3491 2834 3397 
z
" transform="scale(0.015625)"/>
       <path id="DejaVuSans-2f" d="M 1625 4666 
L 2156 4666 
L 531 -594 
L 0 -594 
L 1625 4666 
z
" transform="scale(0.015625)"/>
       <path id="DejaVuSans-64" d="M 2906 2969 
L 2906 4863 
L 3481 4863 
L 3481 0 
L 2906 0 
L 2906 525 
Q 2725 213 2448 61 
Q 2172 -91 1784 -91 
Q 1150 -91 751 415 
Q 353 922 353 1747 
Q 353 2572 751 3078 
Q 1150 3584 1784 3584 
Q 2172 3584 2448 3432 
Q 2725 3281 2906 2969 
z
M 947 1747 
Q 947 1113 1208 752 
Q 1469 391 1925 391 
Q 2381 391 2643 752 
Q 2906 1113 2906 1747 
Q 2906 2381 2643 2742 
Q 2381 3103 1925 3103 
Q 1469 3103 1208 2742 
Q 947 2381 947 1747 
z
" transform="scale(0.015625)"/>
       <path id="DejaVuSans-69" d="M 603 3500 
L 1178 3500 
L 1178 0 
L 603 0 
L 603 3500 
z
M 603 4863 
L 1178 4863 
L 1178 4134 
L 603 4134 
L 603 4863 
z
" transform="scale(0.015625)"/>
       <path id="DejaVuSans-6d" d="M 3328 2828 
Q 3544 3216 3844 3400 
Q 4144 3584 4550 3584 
Q 5097 3584 5394 3201 
Q 5691 2819 5691 2113 
L 5691 0 
L 5113 0 
L 5113 2094 
Q 5113 2597 4934 2840 
Q 4756 3084 4391 3084 
Q 3944 3084 3684 2787 
Q 3425 2491 3425 1978 
L 3425 0 
L 2847 0 
L 2847 2094 
Q 2847 2600 2669 2842 
Q 2491 3084 2119 3084 
Q 1678 3084 1418 2786 
Q 1159 2488 1159 1978 
L 1159 0 
L 581 0 
L 581 3500 
L 1159 3500 
L 1159 2956 
Q 1356 3278 1631 3431 
Q 1906 3584 2284 3584 
Q 2666 3584 2933 3390 
Q 3200 3197 3328 2828 
z
" transform="scale(0.015625)"/>
       <path id="DejaVuSans-6e" d="M 3513 2113 
L 3513 0 
L 2938 0 
L 2938 2094 
Q 2938 2591 2744 2837 
Q 2550 3084 2163 3084 
Q 1697 3084 1428 2787 
Q 1159 2491 1159 1978 
L 1159 0 
L 581 0 
L 581 3500 
L 1159 3500 
L 1159 2956 
Q 1366 3272 1645 3428 
Q 1925 3584 2291 3584 
Q 2894 3584 3203 3211 
Q 3513 2838 3513 2113 
z
" transform="scale(0.015625)"/>
       <path id="DejaVuSans-29" d="M 513 4856 
L 1013 4856 
Q 1481 4119 1714 3412 
Q 1947 2706 1947 2009 
Q 1947 1309 1714 600 
Q 1481 -109 1013 -844 
L 513 -844 
Q 928 -128 1133 580 
Q 1338 1288 1338 2009 
Q 1338 2731 1133 3434 
Q 928 4138 513 4856 
z
" transform="scale(0.015625)"/>
      </defs>
      <use xlink:href="#DejaVuSans-6c"/>
      <use xlink:href="#DejaVuSans-6f" x="27.783203"/>
      <use xlink:href="#DejaVuSans-67" x="88.964844"/>
      <use xlink:href="#DejaVuSans-31" x="152.441406"/>
      <use xlink:href="#DejaVuSans-30" x="216.064453"/>
      <use xlink:href="#DejaVuSans-28" x="279.6875"/>
      <use xlink:href="#DejaVuSans-23" x="318.701172"/>
      <use xlink:href="#DejaVuSans-20" x="402.490234"/>
      <use xlink:href="#DejaVuSans-66" x="434.277344"/>
      <use xlink:href="#DejaVuSans-2d" x="463.982422"/>
      <use xlink:href="#DejaVuSans-65" x="500.066406"/>
      <use xlink:href="#DejaVuSans-76" x="561.589844"/>
      <use xlink:href="#DejaVuSans-61" x="620.769531"/>
      <use xlink:href="#DejaVuSans-6c" x="682.048828"/>
      <use xlink:href="#DejaVuSans-73" x="709.832031"/>
      <use xlink:href="#DejaVuSans-20" x="761.931641"/>
      <use xlink:href="#DejaVuSans-2f" x="793.71875"/>
      <use xlink:href="#DejaVuSans-20" x="827.410156"/>
      <use xlink:href="#DejaVuSans-64" x="859.197266"/>
      <use xlink:href="#DejaVuSans-69" x="922.673828"/>
      <use xlink:href="#DejaVuSans-6d" x="950.457031"/>
      <use xlink:href="#DejaVuSans-65" x="1047.869141"/>
      <use xlink:href="#DejaVuSans-6e" x="1109.392578"/>
      <use xlink:href="#DejaVuSans-73" x="1172.771484"/>
      <use xlink:href="#DejaVuSans-69" x="1224.871094"/>
      <use xlink:href="#DejaVuSans-6f" x="1252.654297"/>
      <use xlink:href="#DejaVuSans-6e" x="1313.835938"/>
      <use xlink:href="#DejaVuSans-29" x="1377.214844"/>
     </g>
    </g>
   </g>
   <g id="matplotlib.axis_2">
    <g id="ytick_1">
     <g id="line2d_21">
      <path d="M 57.6 298.944 
L 360.8064 298.944 
" clip-path="url(#p3124ee804d)" style="fill: none; stroke: #b0b0b0; stroke-width: 0.8; stroke-linecap: square"/>
     </g>
     <g id="line2d_22">
      <defs>
       <path id="m122762e9ac" d="M 0 0 
L -3.5 0 
" style="stroke: #000000; stroke-width: 0.8"/>
      </defs>
      <g>
       <use xlink:href="#m122762e9ac" x="57.6" y="298.944" style="stroke: #000000; stroke-width: 0.8"/>
      </g>
     </g>
     <g id="text_6">
      <!-- 0.0 -->
      <g transform="translate(25.155 305.02275)scale(0.16 -0.16)">
       <defs>
        <path id="DejaVuSans-2e" d="M 684 794 
L 1344 794 
L 1344 0 
L 684 0 
L 684 794 
z
" transform="scale(0.015625)"/>
       </defs>
       <use xlink:href="#DejaVuSans-30"/>
       <use xlink:href="#DejaVuSans-2e" x="63.623047"/>
       <use xlink:href="#DejaVuSans-30" x="95.410156"/>
      </g>
     </g>
    </g>
    <g id="ytick_2">
     <g id="line2d_23">
      <path d="M 57.6 240.5376 
L 360.8064 240.5376 
" clip-path="url(#p3124ee804d)" style="fill: none; stroke: #b0b0b0; stroke-width: 0.8; stroke-linecap: square"/>
     </g>
     <g id="line2d_24">
      <g>
       <use xlink:href="#m122762e9ac" x="57.6" y="240.5376" style="stroke: #000000; stroke-width: 0.8"/>
      </g>
     </g>
     <g id="text_7">
      <!-- 0.2 -->
      <g transform="translate(25.155 246.61635)scale(0.16 -0.16)">
       <use xlink:href="#DejaVuSans-30"/>
       <use xlink:href="#DejaVuSans-2e" x="63.623047"/>
       <use xlink:href="#DejaVuSans-32" x="95.410156"/>
      </g>
     </g>
    </g>
    <g id="ytick_3">
     <g id="line2d_25">
      <path d="M 57.6 182.1312 
L 360.8064 182.1312 
" clip-path="url(#p3124ee804d)" style="fill: none; stroke: #b0b0b0; stroke-width: 0.8; stroke-linecap: square"/>
     </g>
     <g id="line2d_26">
      <g>
       <use xlink:href="#m122762e9ac" x="57.6" y="182.1312" style="stroke: #000000; stroke-width: 0.8"/>
      </g>
     </g>
     <g id="text_8">
      <!-- 0.4 -->
      <g transform="translate(25.155 188.20995)scale(0.16 -0.16)">
       <use xlink:href="#DejaVuSans-30"/>
       <use xlink:href="#DejaVuSans-2e" x="63.623047"/>
       <use xlink:href="#DejaVuSans-34" x="95.410156"/>
      </g>
     </g>
    </g>
    <g id="ytick_4">
     <g id="line2d_27">
      <path d="M 57.6 123.7248 
L 360.8064 123.7248 
" clip-path="url(#p3124ee804d)" style="fill: none; stroke: #b0b0b0; stroke-width: 0.8; stroke-linecap: square"/>
     </g>
     <g id="line2d_28">
      <g>
       <use xlink:href="#m122762e9ac" x="57.6" y="123.7248" style="stroke: #000000; stroke-width: 0.8"/>
      </g>
     </g>
     <g id="text_9">
      <!-- 0.6 -->
      <g transform="translate(25.155 129.80355)scale(0.16 -0.16)">
       <use xlink:href="#DejaVuSans-30"/>
       <use xlink:href="#DejaVuSans-2e" x="63.623047"/>
       <use xlink:href="#DejaVuSans-36" x="95.410156"/>
      </g>
     </g>
    </g>
    <g id="ytick_5">
     <g id="line2d_29">
      <path d="M 57.6 65.3184 
L 360.8064 65.3184 
" clip-path="url(#p3124ee804d)" style="fill: none; stroke: #b0b0b0; stroke-width: 0.8; stroke-linecap: square"/>
     </g>
     <g id="line2d_30">
      <g>
       <use xlink:href="#m122762e9ac" x="57.6" y="65.3184" style="stroke: #000000; stroke-width: 0.8"/>
      </g>
     </g>
     <g id="text_10">
      <!-- 0.8 -->
      <g transform="translate(25.155 71.39715)scale(0.16 -0.16)">
       <defs>
        <path id="DejaVuSans-38" d="M 2034 2216 
Q 1584 2216 1326 1975 
Q 1069 1734 1069 1313 
Q 1069 891 1326 650 
Q 1584 409 2034 409 
Q 2484 409 2743 651 
Q 3003 894 3003 1313 
Q 3003 1734 2745 1975 
Q 2488 2216 2034 2216 
z
M 1403 2484 
Q 997 2584 770 2862 
Q 544 3141 544 3541 
Q 544 4100 942 4425 
Q 1341 4750 2034 4750 
Q 2731 4750 3128 4425 
Q 3525 4100 3525 3541 
Q 3525 3141 3298 2862 
Q 3072 2584 2669 2484 
Q 3125 2378 3379 2068 
Q 3634 1759 3634 1313 
Q 3634 634 3220 271 
Q 2806 -91 2034 -91 
Q 1263 -91 848 271 
Q 434 634 434 1313 
Q 434 1759 690 2068 
Q 947 2378 1403 2484 
z
M 1172 3481 
Q 1172 3119 1398 2916 
Q 1625 2713 2034 2713 
Q 2441 2713 2670 2916 
Q 2900 3119 2900 3481 
Q 2900 3844 2670 4047 
Q 2441 4250 2034 4250 
Q 1625 4250 1398 4047 
Q 1172 3844 1172 3481 
z
" transform="scale(0.015625)"/>
       </defs>
       <use xlink:href="#DejaVuSans-30"/>
       <use xlink:href="#DejaVuSans-2e" x="63.623047"/>
       <use xlink:href="#DejaVuSans-38" x="95.410156"/>
      </g>
     </g>
    </g>
    <g id="ytick_6">
     <g id="line2d_31">
      <path d="M 57.6 6.912 
L 360.8064 6.912 
" clip-path="url(#p3124ee804d)" style="fill: none; stroke: #b0b0b0; stroke-width: 0.8; stroke-linecap: square"/>
     </g>
     <g id="line2d_32">
      <g>
       <use xlink:href="#m122762e9ac" x="57.6" y="6.912" style="stroke: #000000; stroke-width: 0.8"/>
      </g>
     </g>
     <g id="text_11">
      <!-- 1.0 -->
      <g transform="translate(25.155 12.99075)scale(0.16 -0.16)">
       <use xlink:href="#DejaVuSans-31"/>
       <use xlink:href="#DejaVuSans-2e" x="63.623047"/>
       <use xlink:href="#DejaVuSans-30" x="95.410156"/>
      </g>
     </g>
    </g>
    <g id="text_12">
     <!-- Fraction of function,target pairs -->
     <g transform="translate(17.619531 287.313)rotate(-90)scale(0.17 -0.17)">
      <defs>
       <path id="DejaVuSans-46" d="M 628 4666 
L 3309 4666 
L 3309 4134 
L 1259 4134 
L 1259 2759 
L 3109 2759 
L 3109 2228 
L 1259 2228 
L 1259 0 
L 628 0 
L 628 4666 
z
" transform="scale(0.015625)"/>
       <path id="DejaVuSans-72" d="M 2631 2963 
Q 2534 3019 2420 3045 
Q 2306 3072 2169 3072 
Q 1681 3072 1420 2755 
Q 1159 2438 1159 1844 
L 1159 0 
L 581 0 
L 581 3500 
L 1159 3500 
L 1159 2956 
Q 1341 3275 1631 3429 
Q 1922 3584 2338 3584 
Q 2397 3584 2469 3576 
Q 2541 3569 2628 3553 
L 2631 2963 
z
" transform="scale(0.015625)"/>
       <path id="DejaVuSans-63" d="M 3122 3366 
L 3122 2828 
Q 2878 2963 2633 3030 
Q 2388 3097 2138 3097 
Q 1578 3097 1268 2742 
Q 959 2388 959 1747 
Q 959 1106 1268 751 
Q 1578 397 2138 397 
Q 2388 397 2633 464 
Q 2878 531 3122 666 
L 3122 134 
Q 2881 22 2623 -34 
Q 2366 -91 2075 -91 
Q 1284 -91 818 406 
Q 353 903 353 1747 
Q 353 2603 823 3093 
Q 1294 3584 2113 3584 
Q 2378 3584 2631 3529 
Q 2884 3475 3122 3366 
z
" transform="scale(0.015625)"/>
       <path id="DejaVuSans-74" d="M 1172 4494 
L 1172 3500 
L 2356 3500 
L 2356 3053 
L 1172 3053 
L 1172 1153 
Q 1172 725 1289 603 
Q 1406 481 1766 481 
L 2356 481 
L 2356 0 
L 1766 0 
Q 1100 0 847 248 
Q 594 497 594 1153 
L 594 3053 
L 172 3053 
L 172 3500 
L 594 3500 
L 594 4494 
L 1172 4494 
z
" transform="scale(0.015625)"/>
       <path id="DejaVuSans-75" d="M 544 1381 
L 544 3500 
L 1119 3500 
L 1119 1403 
Q 1119 906 1312 657 
Q 1506 409 1894 409 
Q 2359 409 2629 706 
Q 2900 1003 2900 1516 
L 2900 3500 
L 3475 3500 
L 3475 0 
L 2900 0 
L 2900 538 
Q 2691 219 2414 64 
Q 2138 -91 1772 -91 
Q 1169 -91 856 284 
Q 544 659 544 1381 
z
M 1991 3584 
L 1991 3584 
z
" transform="scale(0.015625)"/>
       <path id="DejaVuSans-2c" d="M 750 794 
L 1409 794 
L 1409 256 
L 897 -744 
L 494 -744 
L 750 256 
L 750 794 
z
" transform="scale(0.015625)"/>
       <path id="DejaVuSans-70" d="M 1159 525 
L 1159 -1331 
L 581 -1331 
L 581 3500 
L 1159 3500 
L 1159 2969 
Q 1341 3281 1617 3432 
Q 1894 3584 2278 3584 
Q 2916 3584 3314 3078 
Q 3713 2572 3713 1747 
Q 3713 922 3314 415 
Q 2916 -91 2278 -91 
Q 1894 -91 1617 61 
Q 1341 213 1159 525 
z
M 3116 1747 
Q 3116 2381 2855 2742 
Q 2594 3103 2138 3103 
Q 1681 3103 1420 2742 
Q 1159 2381 1159 1747 
Q 1159 1113 1420 752 
Q 1681 391 2138 391 
Q 2594 391 2855 752 
Q 3116 1113 3116 1747 
z
" transform="scale(0.015625)"/>
      </defs>
      <use xlink:href="#DejaVuSans-46"/>
      <use xlink:href="#DejaVuSans-72" x="50.269531"/>
      <use xlink:href="#DejaVuSans-61" x="91.382812"/>
      <use xlink:href="#DejaVuSans-63" x="152.662109"/>
      <use xlink:href="#DejaVuSans-74" x="207.642578"/>
      <use xlink:href="#DejaVuSans-69" x="246.851562"/>
      <use xlink:href="#DejaVuSans-6f" x="274.634766"/>
      <use xlink:href="#DejaVuSans-6e" x="335.816406"/>
      <use xlink:href="#DejaVuSans-20" x="399.195312"/>
      <use xlink:href="#DejaVuSans-6f" x="430.982422"/>
      <use xlink:href="#DejaVuSans-66" x="492.164062"/>
      <use xlink:href="#DejaVuSans-20" x="527.369141"/>
      <use xlink:href="#DejaVuSans-66" x="559.15625"/>
      <use xlink:href="#DejaVuSans-75" x="594.361328"/>
      <use xlink:href="#DejaVuSans-6e" x="657.740234"/>
      <use xlink:href="#DejaVuSans-63" x="721.119141"/>
      <use xlink:href="#DejaVuSans-74" x="776.099609"/>
      <use xlink:href="#DejaVuSans-69" x="815.308594"/>
      <use xlink:href="#DejaVuSans-6f" x="843.091797"/>
      <use xlink:href="#DejaVuSans-6e" x="904.273438"/>
      <use xlink:href="#DejaVuSans-2c" x="967.652344"/>
      <use xlink:href="#DejaVuSans-74" x="999.439453"/>
      <use xlink:href="#DejaVuSans-61" x="1038.648438"/>
      <use xlink:href="#DejaVuSans-72" x="1099.927734"/>
      <use xlink:href="#DejaVuSans-67" x="1139.291016"/>
      <use xlink:href="#DejaVuSans-65" x="1202.767578"/>
      <use xlink:href="#DejaVuSans-74" x="1264.291016"/>
      <use xlink:href="#DejaVuSans-20" x="1303.5"/>
      <use xlink:href="#DejaVuSans-70" x="1335.287109"/>
      <use xlink:href="#DejaVuSans-61" x="1398.763672"/>
      <use xlink:href="#DejaVuSans-69" x="1460.042969"/>
      <use xlink:href="#DejaVuSans-72" x="1487.826172"/>
      <use xlink:href="#DejaVuSans-73" x="1528.939453"/>
     </g>
    </g>
   </g>
   <g id="line2d_33">
    <defs>
     <path id="mda9ff56ddf" d="M 0 1.5 
C 0.397805 1.5 0.77937 1.341951 1.06066 1.06066 
C 1.341951 0.77937 1.5 0.397805 1.5 0 
C 1.5 -0.397805 1.341951 -0.77937 1.06066 -1.06066 
C 0.77937 -1.341951 0.397805 -1.5 0 -1.5 
C -0.397805 -1.5 -0.77937 -1.341951 -1.06066 -1.06066 
C -1.341951 -0.77937 -1.5 -0.397805 -1.5 0 
C -1.5 0.397805 -1.341951 0.77937 -1.06066 1.06066 
C -0.77937 1.341951 -0.397805 1.5 0 1.5 
z
" style="stroke: #f5deb3"/>
    </defs>
    <g>
     <use xlink:href="#mda9ff56ddf" x="355.424599" y="15.262588" style="fill: #f5deb3; stroke: #f5deb3"/>
     <use xlink:href="#mda9ff56ddf" x="355.424599" y="15.262588" style="fill: #f5deb3; stroke: #f5deb3"/>
    </g>
   </g>
   <g id="line2d_34">
    <defs>
     <path id="mb44030cf79" d="M 0 1.5 
C 0.397805 1.5 0.77937 1.341951 1.06066 1.06066 
C 1.341951 0.77937 1.5 0.397805 1.5 0 
C 1.5 -0.397805 1.341951 -0.77937 1.06066 -1.06066 
C 0.77937 -1.341951 0.397805 -1.5 0 -1.5 
C -0.397805 -1.5 -0.77937 -1.341951 -1.06066 -1.06066 
C -1.341951 -0.77937 -1.5 -0.397805 -1.5 0 
C -1.5 0.397805 -1.341951 0.77937 -1.06066 1.06066 
C -0.77937 1.341951 -0.397805 1.5 0 1.5 
z
" style="stroke: #000080"/>
    </defs>
    <g>
     <use xlink:href="#mb44030cf79" x="362.729193" y="165.573176" style="fill: #000080; stroke: #000080"/>
     <use xlink:href="#mb44030cf79" x="362.729193" y="165.573176" style="fill: #000080; stroke: #000080"/>
    </g>
   </g>
   <g id="line2d_35">
    <path d="M -1 296.24 
L 1.245626 296.24 
L 1.245626 295.905976 
L 8.873054 295.905976 
L 8.873054 295.683294 
L 14.2848 295.683294 
L 14.2848 295.540141 
L 21.912228 295.460612 
L 21.912228 295.396988 
L 27.323974 295.333365 
L 27.323974 295.253835 
L 33.314583 295.190212 
L 33.314583 295.126588 
L 40.363149 295.031153 
L 40.363149 295.015247 
L 43.595919 294.919812 
L 43.595919 294.872094 
L 52.805081 294.776659 
L 52.805081 294.760753 
L 61.417632 294.681224 
L 61.417632 294.649412 
L 67.856567 294.553976 
L 67.856567 294.506259 
L 73.062721 294.410824 
L 73.062721 294.394918 
L 77.950435 294.315388 
L 77.950435 294.283576 
L 83.912036 294.188141 
L 83.912036 294.156329 
L 93.729323 294.060894 
L 93.798104 294.029082 
L 101.241555 293.933647 
L 101.241555 293.917741 
L 105.150462 293.870024 
L 105.225409 293.663247 
L 105.411479 293.583718 
L 105.522244 293.408753 
L 105.741837 293.313318 
L 105.850679 293.217882 
L 106.030695 293.122447 
L 106.102222 293.042918 
L 106.664853 292.947482 
L 106.768498 292.883859 
L 107.345272 292.788424 
L 107.41198 292.7248 
L 107.969643 292.629365 
L 108.066361 292.597553 
L 108.258317 292.502118 
L 108.29012 292.470306 
L 108.915146 292.374871 
L 109.007134 292.327153 
L 109.370654 292.231718 
L 109.460447 292.184 
L 109.903092 292.088565 
L 109.961332 292.009035 
L 110.307037 291.9136 
L 110.307037 291.897694 
L 110.75831 291.802259 
L 110.813965 291.738635 
L 111.280505 291.659106 
L 111.361647 291.595482 
L 112.309003 291.500047 
L 112.309003 291.484141 
L 113.741545 291.388706 
L 113.741545 291.3728 
L 115.811328 291.277365 
L 115.811328 291.261459 
L 117.206936 291.166024 
L 117.206936 291.150118 
L 119.686697 291.054682 
L 119.686697 291.038776 
L 121.550424 290.943341 
L 121.550424 290.927435 
L 123.159743 290.832 
L 123.159743 290.816094 
L 123.950143 290.720659 
L 123.977766 290.625224 
L 125.180619 290.529788 
L 125.180619 290.513882 
L 126.102752 290.418447 
L 126.102752 290.402541 
L 127.331455 290.307106 
L 127.4351 290.243482 
L 129.653334 290.148047 
L 129.744974 290.100329 
L 130.236217 290.004894 
L 130.275758 289.973082 
L 130.753507 289.877647 
L 130.753507 289.861741 
L 131.536059 289.766306 
L 131.536059 289.7504 
L 132.349365 289.654965 
L 132.349365 289.639059 
L 133.162871 289.543624 
L 133.25581 289.464094 
L 133.861215 289.400471 
L 133.861215 289.352753 
L 134.160781 289.257318 
L 134.160781 289.241412 
L 135.336156 289.145976 
L 135.418977 289.098259 
L 136.032411 289.002824 
L 136.104986 288.955106 
L 137.106437 288.859671 
L 137.188674 288.811953 
L 137.446743 288.716518 
L 137.527508 288.684706 
L 138.271509 288.589271 
L 138.316644 288.509741 
L 138.755844 288.430212 
L 138.755844 288.382494 
L 138.924952 288.366588 
L 139.012042 288.207529 
L 139.295391 288.143906 
L 139.295391 288.096188 
L 139.75438 288.000753 
L 139.849598 287.937129 
L 140.260603 287.841694 
L 140.28962 287.809882 
L 141.305488 287.714447 
L 141.305488 287.698541 
L 141.958788 287.603106 
L 142.027647 287.555388 
L 142.595291 287.459953 
L 142.692509 287.428141 
L 143.25559 287.332706 
L 143.329739 287.205459 
L 143.840756 287.110024 
L 143.840756 287.094118 
L 144.639767 286.998682 
L 144.708666 286.935059 
L 144.99983 286.839624 
L 145.089902 286.791906 
L 145.752038 286.696471 
L 145.842905 286.664659 
L 146.492009 286.569224 
L 146.492009 286.553318 
L 146.863628 286.457882 
L 146.957431 286.394259 
L 147.1517 286.298824 
L 147.212 286.251106 
L 147.379819 286.187482 
L 147.435427 286.107953 
L 148.22761 286.012518 
L 148.337564 285.948894 
L 148.785835 285.853459 
L 148.785835 285.837553 
L 149.2669 285.758024 
L 149.331557 285.662588 
L 149.584448 285.567153 
L 149.584448 285.551247 
L 150.035401 285.455812 
L 150.131871 285.408094 
L 150.556606 285.312659 
L 150.663813 285.233129 
L 150.958812 285.169506 
L 150.99167 285.089976 
L 151.304226 284.994541 
L 151.304226 284.978635 
L 151.923554 284.8832 
L 151.95789 284.851388 
L 152.371212 284.755953 
L 152.462515 284.708235 
L 152.811444 284.6128 
L 152.876897 284.580988 
L 153.267808 284.485553 
L 153.34908 284.421929 
L 153.74742 284.326494 
L 153.818177 284.294682 
L 154.03166 284.199247 
L 154.081869 284.167435 
L 154.644432 284.072 
L 154.714595 284.040188 
L 154.875516 283.944753 
L 154.976725 283.881129 
L 155.277126 283.785694 
L 155.350181 283.753882 
L 155.672901 283.658447 
L 155.731683 283.594824 
L 156.140591 283.499388 
L 156.20291 283.451671 
L 156.447685 283.356235 
L 156.486947 283.324424 
L 157.051988 283.228988 
L 157.127956 283.197176 
L 157.493969 283.101741 
L 157.528791 283.054024 
L 157.889436 282.958588 
L 157.946231 282.926776 
L 158.553324 282.831341 
L 158.566497 282.799529 
L 158.828045 282.704094 
L 158.933807 282.656376 
L 159.310967 282.560941 
L 159.310967 282.545035 
L 159.68485 282.4496 
L 159.794142 282.417788 
L 159.923234 282.322353 
L 160.002707 282.258729 
L 160.452775 282.163294 
L 160.551784 282.115576 
L 160.703245 282.020141 
L 160.722826 281.988329 
L 161.131305 281.892894 
L 161.219191 281.813365 
L 161.637662 281.717929 
L 161.73806 281.622494 
L 162.28087 281.527059 
L 162.32226 281.479341 
L 162.613005 281.383906 
L 162.706582 281.336188 
L 162.908039 281.240753 
L 162.998429 281.193035 
L 163.193369 281.0976 
L 163.193369 281.081694 
L 163.508222 280.986259 
L 163.514971 280.938541 
L 164.314318 280.843106 
L 164.380497 280.795388 
L 164.739583 280.699953 
L 164.760122 280.668141 
L 165.153899 280.572706 
L 165.241836 280.493176 
L 165.492579 280.397741 
L 165.492579 280.381835 
L 165.972415 280.2864 
L 166.049245 280.190965 
L 166.522453 280.095529 
L 166.529641 280.047812 
L 166.867237 279.952376 
L 166.926437 279.888753 
L 167.158612 279.793318 
L 167.227986 279.729694 
L 167.531594 279.634259 
L 167.598251 279.586541 
L 167.877265 279.491106 
L 167.901332 279.443388 
L 168.124491 279.347953 
L 168.212756 279.300235 
L 168.588805 279.2048 
L 168.668509 279.157082 
L 168.917014 279.061647 
L 168.937259 279.029835 
L 169.495455 278.9344 
L 169.501592 278.886682 
L 169.774511 278.791247 
L 169.880655 278.695812 
L 170.259304 278.600376 
L 170.369787 278.536753 
L 170.708911 278.441318 
L 170.816793 278.377694 
L 171.102992 278.282259 
L 171.176112 278.202729 
L 171.427048 278.107294 
L 171.427048 278.091388 
L 171.811944 277.995953 
L 171.875876 277.916424 
L 172.222074 277.820988 
L 172.250727 277.741459 
L 172.587032 277.646024 
L 172.667065 277.614212 
L 172.90412 277.534682 
L 172.966493 277.455153 
L 173.117982 277.407435 
L 173.228036 277.296094 
L 173.485 277.200659 
L 173.583057 277.089318 
L 173.7385 277.0416 
L 173.7385 276.373553 
L 173.8985 276.357647 
L 174.001195 275.705506 
L 174.163775 275.673694 
L 174.264083 274.926118 
L 174.428195 274.846588 
L 174.481955 274.194447 
L 174.743828 274.099012 
L 174.829082 274.0672 
L 175.045114 274.019482 
L 175.130837 273.924047 
L 175.299316 273.828612 
L 175.368623 273.764988 
L 175.593679 273.669553 
L 175.667219 273.637741 
L 176.076581 273.558212 
L 176.159463 273.494588 
L 176.393181 273.399153 
L 176.499234 273.303718 
L 176.695334 273.208282 
L 176.753016 273.160565 
L 177.182127 273.065129 
L 177.22776 272.9856 
L 177.526516 272.890165 
L 177.632758 272.826541 
L 177.880444 272.731106 
L 177.968286 272.699294 
L 178.081405 272.667482 
L 178.119478 272.508424 
L 178.532513 272.412988 
L 178.640034 272.365271 
L 178.723656 272.269835 
L 178.764953 272.190306 
L 178.895008 272.142588 
L 178.996038 271.522259 
L 179.274754 271.474541 
L 179.295183 270.901929 
L 179.594669 270.806494 
L 179.690592 270.726965 
L 179.752609 270.631529 
L 179.844899 270.552 
L 180.396209 270.456565 
L 180.465542 270.377035 
L 180.827927 270.2816 
L 180.891001 269.677176 
L 181.159704 269.581741 
L 181.194013 269.534024 
L 181.406382 269.438588 
L 181.460402 269.406776 
L 181.741648 269.311341 
L 181.783219 269.263624 
L 181.995394 269.168188 
L 182.065381 269.136376 
L 182.240775 269.040941 
L 182.286857 268.404706 
L 182.622814 268.309271 
L 182.727 268.197929 
L 182.872259 268.102494 
L 182.887928 268.054776 
L 183.321451 267.959341 
L 183.361439 267.911624 
L 183.704297 267.816188 
L 183.799234 267.768471 
L 183.954698 267.673035 
L 184.062536 267.593506 
L 184.348978 267.498071 
L 184.451815 267.418541 
L 184.587695 267.323106 
L 184.610246 267.291294 
L 185.026141 267.195859 
L 185.026141 267.179953 
L 185.461432 267.084518 
L 185.546353 267.020894 
L 185.856549 266.925459 
L 185.886878 266.877741 
L 186.311454 266.782306 
L 186.361104 266.734588 
L 186.569304 266.639153 
L 186.675995 266.543718 
L 186.929415 266.448282 
L 187.04037 266.368753 
L 187.165556 266.273318 
L 187.243615 265.541647 
L 187.382172 265.446212 
L 187.452252 265.398494 
L 187.743953 265.303059 
L 187.841425 265.255341 
L 188.100277 265.159906 
L 188.162276 265.128094 
L 188.451322 265.032659 
L 188.520215 264.444141 
L 188.720978 264.396424 
L 188.825395 263.744282 
L 189.004675 263.648847 
L 189.08848 263.601129 
L 189.387208 263.505694 
L 189.494787 263.410259 
L 189.518516 263.378447 
L 189.627454 262.678588 
L 189.901634 262.583153 
L 190.000542 262.455906 
L 190.19109 262.360471 
L 190.271004 262.296847 
L 190.540841 262.201412 
L 190.626474 262.153694 
L 190.902315 262.058259 
L 191.00433 261.994635 
L 191.263536 261.8992 
L 191.346717 261.867388 
L 191.57928 261.771953 
L 191.686757 261.676518 
L 191.796626 261.581082 
L 191.892424 261.533365 
L 192.091804 261.437929 
L 192.15338 261.342494 
L 192.294209 261.247059 
L 192.382422 261.183435 
L 192.59505 261.088 
L 192.702614 260.913035 
L 192.817386 260.8176 
L 192.920864 260.738071 
L 193.043447 260.642635 
L 193.137658 260.5472 
L 193.319142 260.451765 
L 193.323985 260.419953 
L 193.578232 260.324518 
L 193.673544 260.229082 
L 193.798419 260.133647 
L 193.906044 259.974588 
L 194.028058 259.879153 
L 194.137032 259.767812 
L 194.231209 259.672376 
L 194.328853 258.368094 
L 194.545663 258.272659 
L 194.61006 258.193129 
L 194.826227 258.097694 
L 194.924015 258.002259 
L 195.073062 257.906824 
L 195.183998 257.827294 
L 195.305496 257.747765 
L 195.384717 257.636424 
L 195.484587 257.540988 
L 195.58853 257.477365 
L 195.661683 257.381929 
L 195.74368 257.3024 
L 195.883075 257.206965 
L 195.923187 256.602541 
L 196.09025 256.507106 
L 196.173674 256.363953 
L 196.34443 256.268518 
L 196.451066 256.188988 
L 196.595512 256.093553 
L 196.668913 256.029929 
L 196.847876 255.934494 
L 196.946284 255.886776 
L 197.075659 255.791341 
L 197.163298 255.695906 
L 197.338199 255.600471 
L 197.421845 255.520941 
L 197.708148 255.425506 
L 197.784165 255.298259 
L 197.962336 255.202824 
L 198.052138 255.107388 
L 198.161851 255.011953 
L 198.244584 254.900612 
L 198.492987 254.805176 
L 198.600951 254.677929 
L 198.759152 254.582494 
L 198.86921 254.455247 
L 199.01547 254.359812 
L 199.097849 254.280282 
L 199.276159 254.184847 
L 199.362175 254.137129 
L 199.50093 254.041694 
L 199.604515 253.898541 
L 199.761657 253.803106 
L 199.840349 253.707671 
L 199.998209 253.612235 
L 200.096203 253.500894 
L 200.175194 253.405459 
L 200.284701 253.2464 
L 200.356718 253.150965 
L 200.423007 253.071435 
L 200.553239 252.976 
L 200.630337 252.896471 
L 200.872264 252.801035 
L 200.974575 252.689694 
L 201.153602 252.594259 
L 201.233055 252.514729 
L 201.398619 252.419294 
L 201.496098 252.323859 
L 201.650709 252.228424 
L 201.74004 252.148894 
L 201.816839 252.053459 
L 201.921162 251.942118 
L 202.020117 251.846682 
L 202.130037 251.767153 
L 202.248577 251.671718 
L 202.348398 251.544471 
L 202.468978 251.449035 
L 202.55642 251.3536 
L 202.704062 251.258165 
L 202.808606 251.130918 
L 202.912157 251.035482 
L 203.018654 250.876424 
L 203.133589 250.780988 
L 203.219842 250.574212 
L 203.373339 250.478776 
L 203.477264 250.335624 
L 203.611273 250.240188 
L 203.700351 250.128847 
L 203.799715 250.033412 
L 203.846828 249.922071 
L 204.015114 249.826635 
L 204.124526 249.699388 
L 204.184626 249.603953 
L 204.284369 249.492612 
L 204.339725 249.397176 
L 204.407397 249.301741 
L 204.526575 249.206306 
L 204.636094 248.999529 
L 204.773231 248.904094 
L 204.864853 248.808659 
L 205.003686 248.713224 
L 205.107142 248.570071 
L 205.19918 248.474635 
L 205.307241 248.283765 
L 205.403586 248.188329 
L 205.500889 248.045176 
L 205.613717 247.949741 
L 205.682883 247.902024 
L 205.77608 247.806588 
L 205.84163 247.711153 
L 206.076125 247.615718 
L 206.174038 247.552094 
L 206.251098 247.456659 
L 206.350183 247.377129 
L 206.564949 247.281694 
L 206.653375 247.170353 
L 206.808733 247.074918 
L 206.907116 246.979482 
L 207.115651 246.884047 
L 207.179684 246.820424 
L 207.32042 246.724988 
L 207.423201 246.502306 
L 207.473485 246.406871 
L 207.584189 246.247812 
L 207.6878 246.152376 
L 207.764854 246.072847 
L 207.885191 245.977412 
L 207.992079 245.881976 
L 208.139796 245.786541 
L 208.249945 245.643388 
L 208.396124 245.547953 
L 208.499692 245.500235 
L 208.64533 245.4048 
L 208.727111 245.277553 
L 208.868432 245.182118 
L 208.970795 245.007153 
L 209.164329 244.911718 
L 209.267025 244.784471 
L 209.365478 244.689035 
L 209.438173 244.577694 
L 209.653862 244.482259 
L 209.761147 244.291388 
L 209.901672 244.195953 
L 209.999291 244.020988 
L 210.146968 243.925553 
L 210.251767 243.766494 
L 210.330509 243.671059 
L 210.412969 243.575624 
L 210.553155 243.480188 
L 210.644291 243.321129 
L 210.908833 243.225694 
L 211.011239 243.114353 
L 211.129744 243.018918 
L 211.239635 242.891671 
L 211.298 242.796235 
L 211.404798 242.605365 
L 211.522961 242.509929 
L 211.633853 242.414494 
L 211.729927 242.319059 
L 211.837023 242.144094 
L 211.965099 242.048659 
L 212.074188 241.8896 
L 212.185948 241.794165 
L 212.296796 241.698729 
L 212.38051 241.603294 
L 212.480853 241.491953 
L 212.64691 241.396518 
L 212.745106 241.237459 
L 212.953015 241.142024 
L 213.060779 240.887529 
L 213.252301 240.792094 
L 213.362422 240.458071 
L 213.531073 240.362635 
L 213.641342 240.187671 
L 213.699279 240.092235 
L 213.787484 239.964988 
L 213.913754 239.869553 
L 213.983553 239.774118 
L 214.220247 239.678682 
L 214.28086 239.583247 
L 214.429009 239.503718 
L 214.505229 239.392376 
L 214.648511 239.296941 
L 214.713754 239.217412 
L 214.982772 239.121976 
L 215.069202 238.962918 
L 215.243144 238.867482 
L 215.353499 238.6448 
L 215.445504 238.549365 
L 215.528776 238.422118 
L 215.718745 238.326682 
L 215.805111 238.215341 
L 216.017083 238.119906 
L 216.115178 238.008565 
L 216.287816 237.913129 
L 216.378929 237.801788 
L 216.589689 237.706353 
L 216.664556 237.642729 
L 216.859095 237.547294 
L 216.937632 237.467765 
L 217.173243 237.372329 
L 217.278773 237.229176 
L 217.505872 237.149647 
L 217.612696 236.926965 
L 217.7382 236.831529 
L 217.810147 236.449788 
L 217.999958 236.354353 
L 218.100128 236.163482 
L 218.231821 236.068047 
L 218.341659 235.893082 
L 218.486028 235.797647 
L 218.582476 235.574965 
L 218.635785 235.495435 
L 218.746788 235.272753 
L 218.816592 235.193224 
L 218.904084 235.065976 
L 219.02914 234.986447 
L 219.130308 234.875106 
L 219.26041 234.779671 
L 219.347948 234.366118 
L 219.427568 234.270682 
L 219.531261 234.207059 
L 219.717738 234.111624 
L 219.814349 234.063906 
L 219.999646 233.968471 
L 220.063208 233.745788 
L 220.310794 233.650353 
L 220.415235 233.554918 
L 220.467769 233.459482 
L 220.560532 233.348141 
L 220.680089 233.300424 
L 220.762082 233.141365 
L 220.949312 233.045929 
L 221.058356 232.870965 
L 221.182511 232.775529 
L 221.291231 232.393788 
L 221.343563 232.298353 
L 221.439257 232.1552 
L 221.631117 232.059765 
L 221.72758 231.900706 
L 221.816325 231.805271 
L 221.923647 231.630306 
L 222.069124 231.534871 
L 222.178375 231.375812 
L 222.259008 231.280376 
L 222.367312 231.184941 
L 222.456039 231.089506 
L 222.561683 230.946353 
L 222.668627 230.850918 
L 222.776485 230.644141 
L 223.022493 230.548706 
L 223.130474 230.246494 
L 223.174895 230.230588 
L 223.257224 229.896565 
L 223.338844 229.801129 
L 223.338844 229.785224 
L 223.791976 229.689788 
L 223.866402 229.626165 
L 224.247287 229.530729 
L 224.277208 229.483012 
L 224.602452 229.387576 
L 224.70639 229.005835 
L 224.715715 229.005835 
L 224.826226 228.735435 
L 225.042116 228.64 
L 225.149649 228.560471 
L 225.308446 228.465035 
L 225.41667 228.337788 
L 225.577536 228.242353 
L 225.645421 228.178729 
L 225.718564 228.0992 
L 225.813394 227.701553 
L 225.94852 227.606118 
L 226.014169 227.574306 
L 226.289976 227.478871 
L 226.39796 227.383435 
L 226.586487 227.288 
L 226.687386 227.128941 
L 226.837379 227.033506 
L 226.938915 226.890353 
L 227.195756 226.794918 
L 227.29396 226.683576 
L 227.474941 226.588141 
L 227.563074 226.524518 
L 227.805337 226.429082 
L 227.908783 226.397271 
L 228.019978 226.301835 
L 228.129051 226.2064 
L 228.274118 226.110965 
L 228.306251 226.047341 
L 228.513312 225.951906 
L 228.614059 225.490635 
L 228.687737 225.3952 
L 228.785982 225.252047 
L 228.896772 225.156612 
L 229.002761 224.806682 
L 229.121212 224.711247 
L 229.211219 224.599906 
L 229.403321 224.504471 
L 229.468002 224.424941 
L 229.694676 224.345412 
L 229.779048 224.265882 
L 230.061938 224.170447 
L 230.172069 224.090918 
L 230.289948 223.995482 
L 230.322787 223.900047 
L 230.561157 223.804612 
L 230.634362 223.693271 
L 230.755396 223.645553 
L 230.784789 223.534212 
L 230.973566 223.438776 
L 231.079432 222.9616 
L 231.24392 222.866165 
L 231.352128 222.818447 
L 231.613158 222.723012 
L 231.652428 222.325365 
L 232.130619 222.229929 
L 232.236744 222.054965 
L 232.395316 221.959529 
L 232.475463 221.88 
L 232.648473 221.800471 
L 232.745471 221.673224 
L 232.774337 221.641412 
L 232.879606 221.371012 
L 232.98265 221.275576 
L 233.076649 221.180141 
L 233.186063 221.084706 
L 233.257329 220.893835 
L 233.327955 220.877929 
L 233.429728 220.209882 
L 233.807369 220.114447 
L 233.916585 219.939482 
L 233.991712 219.844047 
L 234.099708 219.605459 
L 234.150394 219.510024 
L 234.233835 219.398682 
L 234.464496 219.303247 
L 234.567115 219.239624 
L 234.734936 219.144188 
L 234.787377 219.080565 
L 234.995012 218.985129 
L 235.073069 218.698824 
L 235.239175 218.603388 
L 235.307392 218.555671 
L 235.574227 218.460235 
L 235.63037 218.396612 
L 235.746689 218.380706 
L 235.855551 217.967153 
L 235.893666 217.871718 
L 236.004009 217.712659 
L 236.090679 217.649035 
L 236.182837 217.330918 
L 236.294073 217.267294 
L 236.396739 216.631059 
L 236.451845 216.583341 
L 236.556748 216.074353 
L 236.575534 215.978918 
L 236.655194 215.517647 
L 236.744496 215.422212 
L 236.849117 215.183624 
L 236.895206 215.088188 
L 237.004729 214.483765 
L 237.105826 214.388329 
L 237.11888 214.3088 
L 237.366834 214.213365 
L 237.470939 213.561224 
L 237.544728 213.465788 
L 237.642315 213.370353 
L 237.793285 213.274918 
L 237.897231 213.036329 
L 238.048648 212.940894 
L 238.144237 212.622776 
L 238.240772 212.527341 
L 238.337225 212.447812 
L 238.462753 212.352376 
L 238.553516 212.097882 
L 238.734266 212.002447 
L 238.830876 211.954729 
L 239.015457 211.859294 
L 239.094858 211.795671 
L 239.40106 211.700235 
L 239.469064 211.557082 
L 239.59648 211.461647 
L 239.698329 211.238965 
L 239.963195 211.143529 
L 239.972266 211.111718 
L 240.103294 211.095812 
L 240.185435 210.857224 
L 240.296204 210.761788 
L 240.400406 210.602729 
L 240.495639 210.507294 
L 240.597905 210.316424 
L 240.644176 210.300518 
L 240.752729 209.998306 
L 240.906289 209.902871 
L 241.010493 209.552941 
L 241.09074 209.489318 
L 241.199251 209.234824 
L 241.327802 209.139388 
L 241.404052 209.012141 
L 241.603884 208.916706 
L 241.658506 208.884894 
L 241.898557 208.789459 
L 242.005459 208.6304 
L 242.143846 208.550871 
L 242.143846 208.519059 
L 242.348043 208.423624 
L 242.458725 208.169129 
L 242.460324 208.153224 
L 242.560403 207.326118 
L 242.686707 207.230682 
L 242.792876 207.103435 
L 242.936207 207.008 
L 242.972876 206.928471 
L 243.182586 206.833035 
L 243.259598 206.753506 
L 243.443232 206.658071 
L 243.532979 206.578541 
L 243.814305 206.483106 
L 243.922253 206.419482 
L 244.155085 206.324047 
L 244.175511 206.276329 
L 244.553365 206.180894 
L 244.657776 206.101365 
L 244.83438 206.005929 
L 244.932618 205.894588 
L 245.09465 205.799153 
L 245.195448 205.767341 
L 245.416733 205.671906 
L 245.51058 205.608282 
L 245.752411 205.512847 
L 245.778305 205.481035 
L 246.235957 205.3856 
L 246.28354 205.337882 
L 246.80359 205.242447 
L 246.910049 205.067482 
L 247.188147 204.972047 
L 247.297287 204.733459 
L 247.354772 204.638024 
L 247.45182 204.049506 
L 247.581886 203.954071 
L 247.664726 203.858635 
L 247.720639 203.842729 
L 247.720639 203.715482 
L 247.844711 203.635953 
L 247.953834 203.126965 
L 247.986296 203.031529 
L 248.082859 202.999718 
L 248.264688 202.904282 
L 248.336484 202.761129 
L 248.576852 202.665694 
L 248.664397 202.602071 
L 248.844405 202.506635 
L 248.944317 202.4112 
L 249.177037 202.363482 
L 249.239068 202.252141 
L 249.564175 202.156706 
L 249.652121 202.029459 
L 249.898927 201.934024 
L 249.999562 201.711341 
L 250.15475 201.615906 
L 250.171538 201.552282 
L 250.371083 201.456847 
L 250.445551 201.377318 
L 250.752471 201.281882 
L 250.82548 201.170541 
L 251.177487 201.075106 
L 251.286442 201.043294 
L 251.429138 200.947859 
L 251.532904 200.900141 
L 251.771274 200.804706 
L 251.878469 200.629741 
L 252.101583 200.534306 
L 252.181255 200.486588 
L 252.524079 200.391153 
L 252.569326 200.359341 
L 252.852003 200.263906 
L 252.962992 200.184376 
L 253.368414 200.088941 
L 253.470865 200.025318 
L 253.804852 199.929882 
L 253.858871 199.675388 
L 254.250365 199.579953 
L 254.358846 199.516329 
L 254.783194 199.420894 
L 254.807689 199.357271 
L 255.14471 199.261835 
L 255.238493 199.182306 
L 255.401079 199.086871 
L 255.45076 199.023247 
L 255.843631 198.959624 
L 255.928011 198.832376 
L 256.372938 198.736941 
L 256.453787 198.705129 
L 256.686991 198.609694 
L 256.772163 198.546071 
L 256.97143 198.450635 
L 257.06264 198.339294 
L 257.287099 198.243859 
L 257.3304 198.164329 
L 257.569235 198.068894 
L 257.640525 198.005271 
L 257.799011 197.909835 
L 257.887735 197.862118 
L 258.073483 197.766682 
L 258.176245 197.687153 
L 258.321998 197.591718 
L 258.405251 197.512188 
L 258.606222 197.416753 
L 258.606222 197.400847 
L 258.966233 197.305412 
L 259.037762 197.257694 
L 259.249788 197.162259 
L 259.338504 197.114541 
L 259.51792 197.019106 
L 259.625882 196.939576 
L 259.80564 196.844141 
L 259.88606 196.700988 
L 260.491646 196.605553 
L 260.592114 196.526024 
L 260.891282 196.430588 
L 260.965151 196.366965 
L 261.144123 196.271529 
L 261.215266 196.207906 
L 261.497454 196.112471 
L 261.584605 196.064753 
L 261.791275 195.969318 
L 261.86902 195.9216 
L 262.050783 195.826165 
L 262.152879 195.730729 
L 262.378754 195.635294 
L 262.479397 195.555765 
L 262.804278 195.476235 
L 262.883802 195.253553 
L 263.062288 195.158118 
L 263.170681 195.014965 
L 263.304556 194.919529 
L 263.397601 194.871812 
L 263.632849 194.776376 
L 263.714604 194.696847 
L 263.891119 194.601412 
L 263.995515 194.474165 
L 264.26002 194.394635 
L 264.351718 194.283294 
L 264.675868 194.187859 
L 264.697823 194.140141 
L 265.216379 194.044706 
L 265.294775 193.949271 
L 265.435714 193.853835 
L 265.502243 193.822024 
L 265.682704 193.726588 
L 265.761443 193.678871 
L 265.998811 193.583435 
L 266.098875 193.535718 
L 266.358091 193.440282 
L 266.414147 193.392565 
L 266.564581 193.297129 
L 266.66682 193.2176 
L 266.94727 193.122165 
L 267.04861 193.042635 
L 267.211154 192.9472 
L 267.298632 192.835859 
L 267.472483 192.740424 
L 267.57583 192.692706 
L 267.745727 192.597271 
L 267.837453 192.454118 
L 268.031417 192.358682 
L 268.141336 192.310965 
L 268.355996 192.215529 
L 268.460057 192.088282 
L 268.625194 191.992847 
L 268.724299 191.913318 
L 268.945076 191.817882 
L 269.009964 191.770165 
L 269.172731 191.674729 
L 269.172731 191.658824 
L 269.477513 191.563388 
L 269.564645 191.452047 
L 269.745328 191.356612 
L 269.851489 191.292988 
L 270.225829 191.197553 
L 270.30488 191.133929 
L 270.483815 191.038494 
L 270.590521 190.927153 
L 270.947937 190.831718 
L 270.948104 190.799906 
L 271.278499 190.704471 
L 271.347229 190.609035 
L 271.59453 190.5136 
L 271.696851 190.418165 
L 271.908962 190.322729 
L 272.002652 190.259106 
L 272.3798 190.163671 
L 272.480646 190.020518 
L 272.6857 189.925082 
L 272.728885 189.877365 
L 273.130865 189.781929 
L 273.238642 189.718306 
L 273.310093 189.622871 
L 273.310093 189.606965 
L 273.563323 189.511529 
L 273.665073 189.432 
L 273.986795 189.336565 
L 274.089612 189.257035 
L 274.205117 189.1616 
L 274.306877 188.159529 
L 274.41174 188.064094 
L 274.517426 187.777788 
L 274.616936 187.682353 
L 274.716978 187.332424 
L 274.744804 187.236988 
L 274.855314 186.902965 
L 274.892302 186.807529 
L 274.990745 186.441694 
L 275.060991 186.346259 
L 275.171234 186.012235 
L 275.226504 185.948612 
L 275.335984 185.725929 
L 275.390375 185.630494 
L 275.490915 185.391906 
L 275.584464 185.296471 
L 275.672364 185.169224 
L 275.84594 185.073788 
L 275.931135 185.041976 
L 276.260211 184.946541 
L 276.260211 184.930635 
L 277.317123 184.8352 
L 277.317123 184.819294 
L 277.896391 184.739765 
L 277.896391 184.692047 
L 279.185509 184.596612 
L 279.193078 184.5648 
L 279.59574 184.469365 
L 279.644714 184.437553 
L 280.59191 184.342118 
L 280.687753 184.262588 
L 281.612073 184.167153 
L 281.663465 184.119435 
L 282.13856 184.024 
L 282.185666 183.960376 
L 282.695457 183.864941 
L 282.747678 183.833129 
L 283.148554 183.7536 
L 283.148554 183.721788 
L 283.665111 183.626353 
L 283.71852 183.562729 
L 284.116446 183.467294 
L 284.168818 183.419576 
L 284.438799 183.324141 
L 284.532211 183.292329 
L 284.808939 183.196894 
L 284.879391 183.101459 
L 285.09178 183.021929 
L 285.202835 182.878776 
L 285.459521 182.783341 
L 285.460943 182.735624 
L 285.976237 182.640188 
L 286.074265 182.608376 
L 286.332857 182.512941 
L 286.338505 182.481129 
L 286.602571 182.385694 
L 286.695148 182.353882 
L 286.940315 182.258447 
L 287.013781 182.163012 
L 287.235473 182.067576 
L 287.340668 181.399529 
L 287.411598 181.304094 
L 287.52185 180.985976 
L 287.539685 180.906447 
L 287.650781 180.445176 
L 287.691123 180.349741 
L 287.798631 179.872565 
L 287.863225 179.793035 
L 287.932585 179.665788 
L 288.125866 179.570353 
L 288.137266 179.522635 
L 288.776257 179.459012 
L 288.870567 179.347671 
L 289.647008 179.252235 
L 289.647008 179.236329 
L 291.084649 179.140894 
L 291.140503 179.093176 
L 291.643125 178.997741 
L 291.714349 178.902306 
L 292.409966 178.806871 
L 292.412167 178.775059 
L 293.123308 178.679624 
L 293.16796 178.616 
L 293.537266 178.520565 
L 293.615788 178.488753 
L 293.982015 178.393318 
L 294.020854 178.329694 
L 294.259013 178.234259 
L 294.33448 178.170635 
L 294.696498 178.0752 
L 294.785593 177.995671 
L 294.871228 177.900235 
L 294.965596 177.566212 
L 295.001422 177.486682 
L 295.110967 177.009506 
L 295.146128 176.914071 
L 295.256527 176.580047 
L 295.305873 176.484612 
L 295.415974 176.309647 
L 295.538001 176.214212 
L 295.609456 176.166494 
L 296.498238 176.086965 
L 296.510881 176.039247 
L 297.912104 175.943812 
L 297.912104 175.912 
L 298.831248 175.816565 
L 298.867897 175.737035 
L 299.24063 175.6416 
L 299.34182 175.593882 
L 299.711183 175.514353 
L 299.803025 175.387106 
L 300.127912 175.291671 
L 300.232789 175.148518 
L 300.276515 175.053082 
L 300.386633 174.766776 
L 300.420857 174.671341 
L 300.517403 174.432753 
L 300.548339 174.337318 
L 300.64943 174.162353 
L 301.056638 174.066918 
L 301.144013 174.0192 
L 303.263162 173.923765 
L 303.263162 173.907859 
L 303.601552 173.812424 
L 303.6312 173.7488 
L 304.268253 173.653365 
L 304.366126 173.557929 
L 304.468704 173.462494 
L 304.578727 173.144376 
L 304.602069 173.048941 
L 304.7088 172.762635 
L 305.034387 172.683106 
L 305.131761 172.603576 
L 306.353118 172.508141 
L 306.434858 172.460424 
L 307.240428 172.364988 
L 307.240428 172.349082 
L 307.679784 172.253647 
L 307.708637 172.205929 
L 307.921703 172.110494 
L 308.027575 171.824188 
L 308.073612 171.728753 
L 308.114838 171.601506 
L 308.711015 171.506071 
L 308.711015 171.490165 
L 310.396512 171.394729 
L 310.496062 171.347012 
L 310.791159 171.251576 
L 310.893646 171.012988 
L 310.947961 170.933459 
L 311.008366 170.742588 
L 312.101277 170.647153 
L 312.158832 170.615341 
L 312.78472 170.519906 
L 312.78472 170.504 
L 313.31224 170.408565 
L 313.419568 170.201788 
L 313.743614 170.122259 
L 313.800844 170.074541 
L 314.589097 169.995012 
L 314.589097 169.9632 
L 315.523012 169.867765 
L 315.631789 169.708706 
L 315.960828 169.613271 
L 316.066072 169.549647 
L 317.337313 169.454212 
L 317.440727 169.406494 
L 317.562728 169.311059 
L 317.649689 169.120188 
L 318.534699 169.024753 
L 318.534699 169.008847 
L 319.293556 168.913412 
L 319.384488 168.802071 
L 319.894634 168.706635 
L 319.974863 168.658918 
L 320.93387 168.563482 
L 321.024249 168.452141 
L 322.28896 168.356706 
L 322.36125 168.293082 
L 322.499966 168.197647 
L 322.60644 168.086306 
L 323.629211 167.990871 
L 323.734462 167.895435 
L 323.915218 167.8 
L 323.963193 167.736376 
L 325.07215 167.640941 
L 325.170941 167.561412 
L 326.165195 167.465976 
L 326.275462 167.418259 
L 326.975074 167.322824 
L 326.975074 167.306918 
L 328.03746 167.211482 
L 328.03746 167.179671 
L 328.857273 167.100141 
L 328.857273 167.068329 
L 329.85823 166.972894 
L 329.96845 166.909271 
L 330.711705 166.813835 
L 330.711705 166.797929 
L 332.284672 166.702494 
L 332.315543 166.670682 
L 333.401686 166.575247 
L 333.401686 166.559341 
L 334.720484 166.463906 
L 334.807944 166.416188 
L 336.327556 166.320753 
L 336.327556 166.304847 
L 338.129478 166.209412 
L 338.129478 166.193506 
L 340.10425 166.098071 
L 340.10425 166.082165 
L 342.580564 165.986729 
L 342.582284 165.954918 
L 344.910256 165.859482 
L 344.925614 165.811765 
L 349.27517 165.716329 
L 349.27517 165.700424 
L 351.880039 165.604988 
L 351.880039 165.589082 
L 360.8064 165.589082 
L 360.8064 165.589082 
" style="fill: none; stroke: #000080; stroke-width: 1.5; stroke-linecap: square"/>
   </g>
   <g id="line2d_36">
    <defs>
     <path id="m159597405f" d="M 0 6 
C 1.591219 6 3.117479 5.367802 4.242641 4.242641 
C 5.367802 3.117479 6 1.591219 6 0 
C 6 -1.591219 5.367802 -3.117479 4.242641 -4.242641 
C 3.117479 -5.367802 1.591219 -6 0 -6 
C -1.591219 -6 -3.117479 -5.367802 -4.242641 -4.242641 
C -5.367802 -3.117479 -6 -1.591219 -6 0 
C -6 1.591219 -5.367802 3.117479 -4.242641 4.242641 
C -3.117479 5.367802 -1.591219 6 0 6 
z
" style="stroke: #000080; stroke-width: 1.5"/>
    </defs>
    <g>
     <use xlink:href="#m159597405f" x="139.049244" y="288.207529" style="fill-opacity: 0; stroke: #000080; stroke-width: 1.5"/>
     <use xlink:href="#m159597405f" x="208.571345" y="245.436612" style="fill-opacity: 0; stroke: #000080; stroke-width: 1.5"/>
     <use xlink:href="#m159597405f" x="271.908962" y="190.306824" style="fill-opacity: 0; stroke: #000080; stroke-width: 1.5"/>
     <use xlink:href="#m159597405f" x="351.880039" y="165.589082" style="fill-opacity: 0; stroke: #000080; stroke-width: 1.5"/>
     <use xlink:href="#m159597405f" x="351.880039" y="165.589082" style="fill-opacity: 0; stroke: #000080; stroke-width: 1.5"/>
     <use xlink:href="#m159597405f" x="360.8064" y="165.589082" style="fill-opacity: 0; stroke: #000080; stroke-width: 1.5"/>
    </g>
   </g>
   <g id="line2d_37">
    <path style="fill: none; stroke: #000080; stroke-width: 1.5; stroke-linecap: square"/>
    <g/>
   </g>
   <g id="line2d_38">
    <path d="M 274.176 189.257035 
" clip-path="url(#p3124ee804d)" style="fill: none; stroke: #000080; stroke-width: 1.5; stroke-linecap: square"/>
    <defs>
     <path id="mdbce8bd59d" d="M -12 12 
L 12 -12 
M -12 -12 
L 12 12 
" style="stroke: #000080"/>
    </defs>
    <g clip-path="url(#p3124ee804d)">
     <use xlink:href="#mdbce8bd59d" x="274.176" y="189.257035" style="fill: #000080; stroke: #000080"/>
    </g>
   </g>
   <g id="line2d_39">
    <path d="M 360.8064 165.589082 
L 380.514816 293.10336 
" style="fill: none; stroke: #000080; stroke-width: 1.5; stroke-linecap: square"/>
    <g>
     <use xlink:href="#m159597405f" x="360.8064" y="165.589082" style="fill-opacity: 0; stroke: #000080; stroke-width: 1.5"/>
     <use xlink:href="#m159597405f" x="380.514816" y="293.10336" style="fill-opacity: 0; stroke: #000080; stroke-width: 1.5"/>
    </g>
   </g>
   <g id="line2d_40">
    <path d="M 360.8064 298.944 
L 360.8064 6.912 
" style="fill: none; stroke: #000000; stroke-width: 1.5; stroke-linecap: square"/>
   </g>
   <g id="patch_3">
    <path d="M 57.6 298.944 
L 360.8064 298.944 
" style="fill: none; stroke: #000000; stroke-width: 0.8; stroke-linejoin: miter; stroke-linecap: square"/>
   </g>
   <g id="patch_4">
    <path d="M 57.6 6.912 
L 360.8064 6.912 
" style="fill: none; stroke: #000000; stroke-width: 0.8; stroke-linejoin: miter; stroke-linecap: square"/>
   </g>
   <g id="text_13">
    <!-- LCGA -->
    <g transform="translate(386.578944 296.966485)scale(0.14 -0.14)">
     <defs>
      <path id="DejaVuSans-4c" d="M 628 4666 
L 1259 4666 
L 1259 531 
L 3531 531 
L 3531 0 
L 628 0 
L 628 4666 
z
" transform="scale(0.015625)"/>
      <path id="DejaVuSans-43" d="M 4122 4306 
L 4122 3641 
Q 3803 3938 3442 4084 
Q 3081 4231 2675 4231 
Q 1875 4231 1450 3742 
Q 1025 3253 1025 2328 
Q 1025 1406 1450 917 
Q 1875 428 2675 428 
Q 3081 428 3442 575 
Q 3803 722 4122 1019 
L 4122 359 
Q 3791 134 3420 21 
Q 3050 -91 2638 -91 
Q 1578 -91 968 557 
Q 359 1206 359 2328 
Q 359 3453 968 4101 
Q 1578 4750 2638 4750 
Q 3056 4750 3426 4639 
Q 3797 4528 4122 4306 
z
" transform="scale(0.015625)"/>
      <path id="DejaVuSans-47" d="M 3809 666 
L 3809 1919 
L 2778 1919 
L 2778 2438 
L 4434 2438 
L 4434 434 
Q 4069 175 3628 42 
Q 3188 -91 2688 -91 
Q 1594 -91 976 548 
Q 359 1188 359 2328 
Q 359 3472 976 4111 
Q 1594 4750 2688 4750 
Q 3144 4750 3555 4637 
Q 3966 4525 4313 4306 
L 4313 3634 
Q 3963 3931 3569 4081 
Q 3175 4231 2741 4231 
Q 1884 4231 1454 3753 
Q 1025 3275 1025 2328 
Q 1025 1384 1454 906 
Q 1884 428 2741 428 
Q 3075 428 3337 486 
Q 3600 544 3809 666 
z
" transform="scale(0.015625)"/>
      <path id="DejaVuSans-41" d="M 2188 4044 
L 1331 1722 
L 3047 1722 
L 2188 4044 
z
M 1831 4666 
L 2547 4666 
L 4325 0 
L 3669 0 
L 3244 1197 
L 1141 1197 
L 716 0 
L 50 0 
L 1831 4666 
z
" transform="scale(0.015625)"/>
     </defs>
     <use xlink:href="#DejaVuSans-4c"/>
     <use xlink:href="#DejaVuSans-43" x="55.712891"/>
     <use xlink:href="#DejaVuSans-47" x="125.537109"/>
     <use xlink:href="#DejaVuSans-41" x="203.027344"/>
    </g>
   </g>
   <g id="text_14">
    <!-- best 2009 -->
    <g transform="translate(386.578944 16.615765)scale(0.14 -0.14)">
     <defs>
      <path id="DejaVuSans-62" d="M 3116 1747 
Q 3116 2381 2855 2742 
Q 2594 3103 2138 3103 
Q 1681 3103 1420 2742 
Q 1159 2381 1159 1747 
Q 1159 1113 1420 752 
Q 1681 391 2138 391 
Q 2594 391 2855 752 
Q 3116 1113 3116 1747 
z
M 1159 2969 
Q 1341 3281 1617 3432 
Q 1894 3584 2278 3584 
Q 2916 3584 3314 3078 
Q 3713 2572 3713 1747 
Q 3713 922 3314 415 
Q 2916 -91 2278 -91 
Q 1894 -91 1617 61 
Q 1341 213 1159 525 
L 1159 0 
L 581 0 
L 581 4863 
L 1159 4863 
L 1159 2969 
z
" transform="scale(0.015625)"/>
      <path id="DejaVuSans-39" d="M 703 97 
L 703 672 
Q 941 559 1184 500 
Q 1428 441 1663 441 
Q 2288 441 2617 861 
Q 2947 1281 2994 2138 
Q 2813 1869 2534 1725 
Q 2256 1581 1919 1581 
Q 1219 1581 811 2004 
Q 403 2428 403 3163 
Q 403 3881 828 4315 
Q 1253 4750 1959 4750 
Q 2769 4750 3195 4129 
Q 3622 3509 3622 2328 
Q 3622 1225 3098 567 
Q 2575 -91 1691 -91 
Q 1453 -91 1209 -44 
Q 966 3 703 97 
z
M 1959 2075 
Q 2384 2075 2632 2365 
Q 2881 2656 2881 3163 
Q 2881 3666 2632 3958 
Q 2384 4250 1959 4250 
Q 1534 4250 1286 3958 
Q 1038 3666 1038 3163 
Q 1038 2656 1286 2365 
Q 1534 2075 1959 2075 
z
" transform="scale(0.015625)"/>
     </defs>
     <use xlink:href="#DejaVuSans-62"/>
     <use xlink:href="#DejaVuSans-65" x="63.476562"/>
     <use xlink:href="#DejaVuSans-73" x="125"/>
     <use xlink:href="#DejaVuSans-74" x="177.099609"/>
     <use xlink:href="#DejaVuSans-20" x="216.308594"/>
     <use xlink:href="#DejaVuSans-32" x="248.095703"/>
     <use xlink:href="#DejaVuSans-30" x="311.71875"/>
     <use xlink:href="#DejaVuSans-30" x="375.341797"/>
     <use xlink:href="#DejaVuSans-39" x="438.964844"/>
    </g>
   </g>
   <g id="text_15">
    <!-- bbob f1-f24, 40-D -->
    <g transform="translate(60.632064 17.582726)scale(0.102 -0.102)">
     <defs>
      <path id="DejaVuSans-44" d="M 1259 4147 
L 1259 519 
L 2022 519 
Q 2988 519 3436 956 
Q 3884 1394 3884 2338 
Q 3884 3275 3436 3711 
Q 2988 4147 2022 4147 
L 1259 4147 
z
M 628 4666 
L 1925 4666 
Q 3281 4666 3915 4102 
Q 4550 3538 4550 2338 
Q 4550 1131 3912 565 
Q 3275 0 1925 0 
L 628 0 
L 628 4666 
z
" transform="scale(0.015625)"/>
     </defs>
     <use xlink:href="#DejaVuSans-62"/>
     <use xlink:href="#DejaVuSans-62" x="63.476562"/>
     <use xlink:href="#DejaVuSans-6f" x="126.953125"/>
     <use xlink:href="#DejaVuSans-62" x="188.134766"/>
     <use xlink:href="#DejaVuSans-20" x="251.611328"/>
     <use xlink:href="#DejaVuSans-66" x="283.398438"/>
     <use xlink:href="#DejaVuSans-31" x="318.603516"/>
     <use xlink:href="#DejaVuSans-2d" x="382.226562"/>
     <use xlink:href="#DejaVuSans-66" x="418.310547"/>
     <use xlink:href="#DejaVuSans-32" x="453.515625"/>
     <use xlink:href="#DejaVuSans-34" x="517.138672"/>
     <use xlink:href="#DejaVuSans-2c" x="580.761719"/>
     <use xlink:href="#DejaVuSans-20" x="612.548828"/>
     <use xlink:href="#DejaVuSans-34" x="644.335938"/>
     <use xlink:href="#DejaVuSans-30" x="707.958984"/>
     <use xlink:href="#DejaVuSans-2d" x="771.582031"/>
     <use xlink:href="#DejaVuSans-44" x="807.666016"/>
    </g>
    <!-- 51 targets: 100..1e-08 -->
    <g transform="translate(60.632064 29.004495)scale(0.102 -0.102)">
     <defs>
      <path id="DejaVuSans-35" d="M 691 4666 
L 3169 4666 
L 3169 4134 
L 1269 4134 
L 1269 2991 
Q 1406 3038 1543 3061 
Q 1681 3084 1819 3084 
Q 2600 3084 3056 2656 
Q 3513 2228 3513 1497 
Q 3513 744 3044 326 
Q 2575 -91 1722 -91 
Q 1428 -91 1123 -41 
Q 819 9 494 109 
L 494 744 
Q 775 591 1075 516 
Q 1375 441 1709 441 
Q 2250 441 2565 725 
Q 2881 1009 2881 1497 
Q 2881 1984 2565 2268 
Q 2250 2553 1709 2553 
Q 1456 2553 1204 2497 
Q 953 2441 691 2322 
L 691 4666 
z
" transform="scale(0.015625)"/>
      <path id="DejaVuSans-3a" d="M 750 794 
L 1409 794 
L 1409 0 
L 750 0 
L 750 794 
z
M 750 3309 
L 1409 3309 
L 1409 2516 
L 750 2516 
L 750 3309 
z
" transform="scale(0.015625)"/>
     </defs>
     <use xlink:href="#DejaVuSans-35"/>
     <use xlink:href="#DejaVuSans-31" x="63.623047"/>
     <use xlink:href="#DejaVuSans-20" x="127.246094"/>
     <use xlink:href="#DejaVuSans-74" x="159.033203"/>
     <use xlink:href="#DejaVuSans-61" x="198.242188"/>
     <use xlink:href="#DejaVuSans-72" x="259.521484"/>
     <use xlink:href="#DejaVuSans-67" x="298.884766"/>
     <use xlink:href="#DejaVuSans-65" x="362.361328"/>
     <use xlink:href="#DejaVuSans-74" x="423.884766"/>
     <use xlink:href="#DejaVuSans-73" x="463.09375"/>
     <use xlink:href="#DejaVuSans-3a" x="515.193359"/>
     <use xlink:href="#DejaVuSans-20" x="548.884766"/>
     <use xlink:href="#DejaVuSans-31" x="580.671875"/>
     <use xlink:href="#DejaVuSans-30" x="644.294922"/>
     <use xlink:href="#DejaVuSans-30" x="707.917969"/>
     <use xlink:href="#DejaVuSans-2e" x="771.541016"/>
     <use xlink:href="#DejaVuSans-2e" x="803.328125"/>
     <use xlink:href="#DejaVuSans-31" x="835.115234"/>
     <use xlink:href="#DejaVuSans-65" x="898.738281"/>
     <use xlink:href="#DejaVuSans-2d" x="960.261719"/>
     <use xlink:href="#DejaVuSans-30" x="996.345703"/>
     <use xlink:href="#DejaVuSans-38" x="1059.96875"/>
    </g>
    <!-- 15 instances -->
    <g transform="translate(60.632064 40.426264)scale(0.102 -0.102)">
     <use xlink:href="#DejaVuSans-31"/>
     <use xlink:href="#DejaVuSans-35" x="63.623047"/>
     <use xlink:href="#DejaVuSans-20" x="127.246094"/>
     <use xlink:href="#DejaVuSans-69" x="159.033203"/>
     <use xlink:href="#DejaVuSans-6e" x="186.816406"/>
     <use xlink:href="#DejaVuSans-73" x="250.195312"/>
     <use xlink:href="#DejaVuSans-74" x="302.294922"/>
     <use xlink:href="#DejaVuSans-61" x="341.503906"/>
     <use xlink:href="#DejaVuSans-6e" x="402.783203"/>
     <use xlink:href="#DejaVuSans-63" x="466.162109"/>
     <use xlink:href="#DejaVuSans-65" x="521.142578"/>
     <use xlink:href="#DejaVuSans-73" x="582.666016"/>
    </g>
   </g>
   <g id="text_16">
    <!-- v2.6 -->
    <g style="fill: #808080" transform="translate(198.292262 293.943992)scale(0.1 -0.1)">
     <use xlink:href="#DejaVuSans-76"/>
     <use xlink:href="#DejaVuSans-32" x="59.179688"/>
     <use xlink:href="#DejaVuSans-2e" x="122.802734"/>
     <use xlink:href="#DejaVuSans-36" x="154.589844"/>
    </g>
   </g>
  </g>
 </g>
 <defs>
  <clipPath id="p3124ee804d">
   <rect x="57.6" y="6.912" width="303.2064" height="292.032"/>
  </clipPath>
 </defs>
</svg>
