<?xml version="1.0" encoding="utf-8" standalone="no"?>
<!DOCTYPE svg PUBLIC "-//W3C//DTD SVG 1.1//EN"
  "http://www.w3.org/Graphics/SVG/1.1/DTD/svg11.dtd">
<svg xmlns:xlink="http://www.w3.org/1999/xlink" width="460.8pt" height="345.6pt" viewBox="0 0 460.8 345.6" xmlns="http://www.w3.org/2000/svg" version="1.1">
 <metadata>
  <rdf:RDF xmlns:dc="http://purl.org/dc/elements/1.1/" xmlns:cc="http://creativecommons.org/ns#" xmlns:rdf="http://www.w3.org/1999/02/22-rdf-syntax-ns#">
   <cc:Work>
    <dc:type rdf:resource="http://purl.org/dc/dcmitype/StillImage"/>
    <dc:date>2024-05-29T08:01:46.093344</dc:date>
    <dc:format>image/svg+xml</dc:format>
    <dc:creator>
     <cc:Agent>
      <dc:title>Matplotlib v3.5.1, https://matplotlib.org/</dc:title>
     </cc:Agent>
    </dc:creator>
   </cc:Work>
  </rdf:RDF>
 </metadata>
 <defs>
  <style type="text/css">*{stroke-linejoin: round; stroke-linecap: butt}</style>
 </defs>
 <g id="figure_1">
  <g id="patch_1">
   <path d="M 0 345.6 
L 460.8 345.6 
L 460.8 0 
L 0 0 
z
" style="fill: #ffffff"/>
  </g>
  <g id="axes_1">
   <g id="patch_2">
    <path d="M 62.208 293.76 
L 460.8 293.76 
L 460.8 3.456 
L 62.208 3.456 
z
" style="fill: #ffffff"/>
   </g>
   <g id="line2d_1">
    <path d="M 230.121857 293.76 
L 230.121857 289.927604 
L 232.617431 289.927604 
L 232.617431 286.095208 
L 233.506635 286.095208 
L 233.506635 282.262812 
L 233.833999 282.262812 
L 233.833999 278.430416 
L 234.122287 278.430416 
L 234.122287 274.59802 
L 234.691408 274.59802 
L 234.691408 270.765624 
L 234.726654 270.765624 
L 234.726654 266.933228 
L 234.937342 266.933228 
L 234.937342 263.100832 
L 236.342103 263.100832 
L 236.342103 259.268436 
L 237.202883 259.268436 
L 237.202883 255.43604 
L 237.560401 255.43604 
L 237.560401 251.603644 
L 237.785911 251.603644 
L 237.785911 247.771248 
L 248.861935 247.771248 
L 248.861935 243.938851 
L 253.279153 243.938851 
L 253.279153 240.106455 
L 253.519101 240.106455 
L 253.519101 236.274059 
L 257.120376 236.274059 
L 257.120376 232.441663 
L 257.387218 232.441663 
L 257.387218 228.609267 
L 261.838787 228.609267 
L 261.838787 224.776871 
L 269.925157 224.776871 
L 269.925157 220.944475 
L 270.310524 220.944475 
L 270.310524 217.112079 
L 272.899973 217.112079 
L 272.899973 213.279683 
L 280.934629 213.279683 
L 280.934629 209.447287 
L 287.560731 209.447287 
L 287.560731 205.614891 
L 304.246098 205.614891 
L 304.246098 201.782495 
L 306.98651 201.782495 
L 306.98651 197.950099 
L 311.159286 197.950099 
L 311.159286 194.117703 
L 328.049689 194.117703 
L 328.049689 190.285307 
L 336.020877 190.285307 
L 336.020877 186.452911 
L 340.072874 186.452911 
L 340.072874 182.620515 
L 340.072874 182.620515 
L 340.072874 182.620515 
L 460.8 182.620515 
" clip-path="url(#p587f5e0340)" style="fill: none; stroke: #f5deb3; stroke-width: 1.5; stroke-linecap: square"/>
   </g>
   <g id="line2d_2"/>
   <g id="line2d_3">
    <path d="M 149.22466 293.76 
L 149.22466 289.927604 
L 150.153528 289.927604 
L 150.153528 286.095208 
L 158.592324 286.095208 
L 158.592324 282.262812 
L 213.251577 282.262812 
L 213.251577 278.430416 
L 227.068225 278.430416 
L 227.068225 274.59802 
L 256.761193 274.59802 
L 256.761193 270.765624 
L 264.840385 270.765624 
L 264.840385 266.933228 
L 268.94156 266.933228 
L 268.94156 263.100832 
L 277.615432 263.100832 
L 277.615432 259.268436 
L 279.143214 259.268436 
L 279.143214 255.43604 
L 283.294408 255.43604 
L 283.294408 251.603644 
L 288.380622 251.603644 
L 288.380622 247.771248 
L 292.402373 247.771248 
L 292.402373 243.938851 
L 294.237306 243.938851 
L 294.237306 240.106455 
L 297.918125 240.106455 
L 297.918125 236.274059 
L 314.763462 236.274059 
L 314.763462 232.441663 
L 316.601796 232.441663 
L 316.601796 228.609267 
L 317.678029 228.609267 
L 317.678029 224.776871 
L 317.969912 224.776871 
L 317.969912 220.944475 
L 318.496097 220.944475 
L 318.496097 217.112079 
L 318.695412 217.112079 
L 318.695412 213.279683 
L 319.874632 213.279683 
L 319.874632 209.447287 
L 319.962392 209.447287 
L 319.962392 205.614891 
L 321.233633 205.614891 
L 321.233633 201.782495 
L 321.350974 201.782495 
L 321.350974 197.950099 
L 323.373135 197.950099 
L 323.373135 194.117703 
L 323.789597 194.117703 
L 323.789597 190.285307 
L 324.163475 190.285307 
L 324.163475 186.452911 
L 324.196193 186.452911 
L 324.196193 182.620515 
L 324.985525 182.620515 
L 324.985525 178.788119 
L 325.167468 178.788119 
L 325.167468 174.955723 
L 326.234145 174.955723 
L 326.234145 171.123327 
L 332.506041 171.123327 
L 332.506041 167.290931 
L 333.885582 167.290931 
L 333.885582 163.458535 
L 337.507776 163.458535 
L 337.507776 159.626139 
L 340.696178 159.626139 
L 340.696178 155.793743 
L 349.116467 155.793743 
L 349.116467 151.961347 
L 356.199805 151.961347 
L 356.199805 148.12895 
L 359.804177 148.12895 
L 359.804177 144.296554 
L 362.269633 144.296554 
L 362.269633 140.464158 
L 362.269633 140.464158 
L 362.269633 140.464158 
L 460.8 140.464158 
" clip-path="url(#p587f5e0340)" style="fill: none; stroke: #f5deb3; stroke-width: 1.5; stroke-linecap: square"/>
   </g>
   <g id="line2d_4">
    <path d="M 239.506069 293.76 
L 239.506069 289.927604 
L 244.132931 289.927604 
L 244.132931 286.095208 
L 245.021313 286.095208 
L 245.098562 278.430416 
L 245.201281 278.430416 
L 245.201281 274.59802 
L 246.532928 274.59802 
L 246.532928 270.765624 
L 247.094489 270.765624 
L 247.094489 266.933228 
L 248.259889 266.933228 
L 248.259889 263.100832 
L 248.446308 263.100832 
L 248.446308 259.268436 
L 249.632994 259.268436 
L 249.632994 255.43604 
L 250.430222 255.43604 
L 250.430222 251.603644 
L 250.908095 251.603644 
L 250.908095 247.771248 
L 251.421631 247.771248 
L 251.421631 243.938851 
L 251.569918 243.938851 
L 251.569918 240.106455 
L 251.864506 240.106455 
L 251.864506 236.274059 
L 252.073326 236.274059 
L 252.156486 224.776871 
L 252.384098 224.776871 
L 252.466478 217.112079 
L 252.630624 217.112079 
L 252.630624 213.279683 
L 253.419335 213.279683 
L 253.419335 209.447287 
L 254.052682 209.447287 
L 254.052682 205.614891 
L 254.306544 205.614891 
L 254.306544 201.782495 
L 254.423056 201.782495 
L 254.423056 197.950099 
L 254.961396 197.950099 
L 255.037589 190.285307 
L 256.324945 190.285307 
L 256.324945 186.452911 
L 256.652671 186.452911 
L 256.652671 182.620515 
L 256.905336 182.620515 
L 256.905336 178.788119 
L 257.227372 178.788119 
L 257.227372 174.955723 
L 257.722147 174.955723 
L 257.792227 167.290931 
L 257.984183 167.290931 
L 257.984183 163.458535 
L 258.570532 163.458535 
L 258.570532 159.626139 
L 259.079379 159.626139 
L 259.079379 155.793743 
L 259.347587 155.793743 
L 259.430956 148.12895 
L 259.464245 148.12895 
L 259.464245 144.296554 
L 259.729353 144.296554 
L 259.745852 136.631762 
L 260.220757 136.631762 
L 260.269497 128.96697 
L 260.544338 128.96697 
L 260.576522 121.302178 
L 261.039696 121.302178 
L 261.055552 113.637386 
L 261.245232 113.637386 
L 261.27674 105.972594 
L 261.823303 105.972594 
L 261.823303 102.140198 
L 262.039417 102.140198 
L 262.039417 98.307802 
L 263.777586 98.307802 
L 263.777586 94.475406 
L 265.815153 94.475406 
L 265.815153 90.64301 
L 266.987817 90.64301 
L 266.987817 86.810614 
L 268.094603 86.810614 
L 268.094603 82.978218 
L 271.301193 82.978218 
L 271.301193 79.145822 
L 277.806745 79.145822 
L 277.806745 75.313426 
L 278.082191 75.313426 
L 278.082191 71.48103 
L 279.134054 71.48103 
L 279.134054 67.648634 
L 279.507556 67.648634 
L 279.507556 63.816238 
L 279.715244 63.816238 
L 279.715244 59.983842 
L 282.185773 59.983842 
L 282.185773 56.151446 
L 284.855814 56.151446 
L 284.855814 52.31905 
L 291.533315 52.31905 
L 291.533315 48.486653 
L 295.174221 48.486653 
L 295.174221 44.654257 
L 299.728129 44.654257 
L 299.728129 40.821861 
L 299.879863 40.821861 
L 299.879863 36.989465 
L 303.326518 36.989465 
L 303.326518 33.157069 
L 308.184804 33.157069 
L 308.184804 29.324673 
L 310.645416 29.324673 
L 310.645416 25.492277 
L 321.141509 25.492277 
L 321.141509 21.659881 
L 325.956303 21.659881 
L 325.956303 17.827485 
L 328.542674 17.827485 
L 328.542674 13.995089 
L 330.068929 13.995089 
L 330.068929 10.162693 
L 336.914368 10.162693 
L 336.914368 6.330297 
L 336.914368 6.330297 
L 460.8 6.330297 
L 460.8 6.330297 
" clip-path="url(#p587f5e0340)" style="fill: none; stroke: #f5deb3; stroke-width: 1.5; stroke-linecap: square"/>
   </g>
   <g id="line2d_5"/>
   <g id="line2d_6"/>
   <g id="line2d_7">
    <path d="M 262.223536 293.76 
L 262.223536 289.927604 
L 262.754752 289.927604 
L 262.754752 286.095208 
L 263.218215 286.095208 
L 263.218215 282.262812 
L 263.704524 282.262812 
L 263.806765 274.59802 
L 265.387021 274.59802 
L 265.387021 270.765624 
L 265.511891 270.765624 
L 265.511891 266.933228 
L 266.006696 266.933228 
L 266.006696 263.100832 
L 266.305462 263.100832 
L 266.332488 255.43604 
L 266.507624 255.43604 
L 266.561326 243.938851 
L 266.62833 243.938851 
L 266.708555 236.274059 
L 266.987817 236.274059 
L 267.093583 224.776871 
L 267.133158 224.776871 
L 267.133158 220.944475 
L 267.264733 220.944475 
L 267.304103 205.614891 
L 267.734102 205.614891 
L 267.734102 201.782495 
L 267.863306 201.782495 
L 267.863306 197.950099 
L 268.107406 197.950099 
L 268.107406 194.117703 
L 268.678429 194.117703 
L 268.678429 190.285307 
L 268.8791 190.285307 
L 268.8791 186.452911 
L 269.090983 186.452911 
L 269.115822 178.788119 
L 269.214987 178.788119 
L 269.214987 174.955723 
L 269.326194 174.955723 
L 269.326194 171.123327 
L 269.608695 171.123327 
L 269.66979 163.458535 
L 270.082256 163.458535 
L 270.09431 155.793743 
L 270.28657 155.793743 
L 270.28657 151.961347 
L 271.032884 151.961347 
L 271.032884 148.12895 
L 271.532743 148.12895 
L 271.532743 144.296554 
L 271.934084 144.296554 
L 272.036502 132.799366 
L 272.195188 132.799366 
L 272.195188 128.96697 
L 272.353114 128.96697 
L 272.353114 125.134574 
L 273.131593 125.134574 
L 273.186502 117.469782 
L 273.881374 117.469782 
L 273.881374 113.637386 
L 276.433701 113.637386 
L 276.433701 109.80499 
L 276.651736 109.80499 
L 276.651736 105.972594 
L 279.930577 105.972594 
L 279.930577 102.140198 
L 280.055541 102.140198 
L 280.055541 98.307802 
L 281.510772 98.307802 
L 281.510772 94.475406 
L 282.476795 94.475406 
L 282.476795 90.64301 
L 282.600737 90.64301 
L 282.600737 86.810614 
L 283.567841 86.810614 
L 283.63185 79.145822 
L 284.163103 79.145822 
L 284.163103 75.313426 
L 284.296548 75.313426 
L 284.327868 67.648634 
L 284.955789 67.648634 
L 284.955789 63.816238 
L 285.931763 63.816238 
L 285.931763 59.983842 
L 286.243388 59.983842 
L 286.243388 56.151446 
L 287.340035 56.151446 
L 287.340035 52.31905 
L 289.301991 52.31905 
L 289.301991 48.486653 
L 289.776425 48.486653 
L 289.776425 44.654257 
L 291.545893 44.654257 
L 291.545893 40.821861 
L 293.40994 40.821861 
L 293.40994 36.989465 
L 298.365968 36.989465 
L 298.365968 33.157069 
L 304.607714 33.157069 
L 304.607714 29.324673 
L 312.364864 29.324673 
L 312.364864 25.492277 
L 314.347289 25.492277 
L 314.347289 21.659881 
L 317.083498 21.659881 
L 317.083498 17.827485 
L 317.615349 17.827485 
L 317.615349 13.995089 
L 325.119805 13.995089 
L 325.119805 10.162693 
L 359.956929 10.162693 
L 359.956929 6.330297 
L 359.956929 6.330297 
L 460.8 6.330297 
L 460.8 6.330297 
" clip-path="url(#p587f5e0340)" style="fill: none; stroke: #f5deb3; stroke-width: 1.5; stroke-linecap: square"/>
   </g>
   <g id="line2d_8">
    <path d="M 435.537833 293.76 
L 435.537833 289.927604 
L 436.096906 289.927604 
L 436.096906 286.095208 
L 436.096906 286.095208 
L 436.096906 286.095208 
L 460.8 286.095208 
" clip-path="url(#p587f5e0340)" style="fill: none; stroke: #f5deb3; stroke-width: 1.5; stroke-linecap: square"/>
   </g>
   <g id="line2d_9">
    <path d="M 257.984183 293.76 
L 257.984183 289.927604 
L 258.808971 289.927604 
L 258.808971 286.095208 
L 259.447605 286.095208 
L 259.447605 282.262812 
L 260.496003 282.262812 
L 260.496003 278.430416 
L 260.76897 278.430416 
L 260.864775 270.765624 
L 261.38678 270.765624 
L 261.38678 266.933228 
L 261.94697 266.933228 
L 261.94697 263.100832 
L 262.315212 263.100832 
L 262.315212 259.268436 
L 262.497802 259.268436 
L 262.603847 243.938851 
L 263.084331 243.938851 
L 263.084331 240.106455 
L 263.277545 240.106455 
L 263.277545 236.274059 
L 263.425405 236.274059 
L 263.440155 228.609267 
L 263.557914 228.609267 
L 263.66061 220.944475 
L 263.865047 220.944475 
L 263.937754 213.279683 
L 264.370661 213.279683 
L 264.370661 209.447287 
L 264.727125 209.447287 
L 264.727125 205.614891 
L 264.896869 205.614891 
L 264.896869 201.782495 
L 265.037657 201.782495 
L 265.037657 197.950099 
L 265.261676 197.950099 
L 265.331371 186.452911 
L 265.525737 186.452911 
L 265.63629 163.458535 
L 265.856292 163.458535 
L 265.856292 159.626139 
L 266.061219 159.626139 
L 266.074835 151.961347 
L 266.574737 151.961347 
L 266.61494 144.296554 
L 267.001056 144.296554 
L 267.001056 140.464158 
L 267.290985 140.464158 
L 267.356524 132.799366 
L 267.721154 132.799366 
L 267.798767 125.134574 
L 268.017684 125.134574 
L 268.017684 121.302178 
L 268.841567 121.302178 
L 268.916591 109.80499 
L 269.742954 109.80499 
L 269.742954 105.972594 
L 270.310524 105.972594 
L 270.310524 102.140198 
L 274.593461 102.140198 
L 274.593461 98.307802 
L 275.135718 98.307802 
L 275.135718 94.475406 
L 275.730205 94.475406 
L 275.730205 90.64301 
L 276.720809 90.64301 
L 276.720809 86.810614 
L 276.917368 86.810614 
L 276.917368 82.978218 
L 278.082191 82.978218 
L 278.082191 79.145822 
L 279.325888 79.145822 
L 279.325888 75.313426 
L 279.498497 75.313426 
L 279.498497 71.48103 
L 279.796159 71.48103 
L 279.796159 67.648634 
L 281.33984 67.648634 
L 281.33984 63.816238 
L 282.152349 63.816238 
L 282.152349 59.983842 
L 282.691333 59.983842 
L 282.691333 56.151446 
L 284.639447 56.151446 
L 284.639447 52.31905 
L 290.84689 52.31905 
L 290.84689 48.486653 
L 290.987881 48.486653 
L 290.987881 44.654257 
L 291.783963 44.654257 
L 291.783963 40.821861 
L 296.134522 40.821861 
L 296.134522 36.989465 
L 300.704523 36.989465 
L 300.704523 33.157069 
L 301.782156 33.157069 
L 301.782156 29.324673 
L 302.502549 29.324673 
L 302.502549 25.492277 
L 302.794404 25.492277 
L 302.794404 21.659881 
L 303.915058 21.659881 
L 303.915058 17.827485 
L 305.344096 17.827485 
L 305.344096 13.995089 
L 308.19619 13.995089 
L 308.19619 10.162693 
L 310.34103 10.162693 
L 310.34103 6.330297 
L 310.34103 6.330297 
L 460.8 6.330297 
L 460.8 6.330297 
" clip-path="url(#p587f5e0340)" style="fill: none; stroke: #f5deb3; stroke-width: 1.5; stroke-linecap: square"/>
   </g>
   <g id="line2d_10">
    <path d="M 426.279518 293.76 
L 426.279518 289.927604 
L 428.610004 289.927604 
L 428.610004 286.095208 
L 433.07154 286.095208 
L 433.07154 282.262812 
L 433.07154 282.262812 
L 433.07154 282.262812 
L 460.8 282.262812 
" clip-path="url(#p587f5e0340)" style="fill: none; stroke: #f5deb3; stroke-width: 1.5; stroke-linecap: square"/>
   </g>
   <g id="line2d_11">
    <path clip-path="url(#p587f5e0340)" style="fill: none; stroke: #f5deb3; stroke-width: 1.5; stroke-linecap: square"/>
   </g>
   <g id="line2d_12">
    <path d="M 230.961715 293.76 
L 230.961715 289.927604 
L 270.60849 289.927604 
L 270.60849 286.095208 
L 272.610933 286.095208 
L 272.610933 282.262812 
L 319.172173 282.262812 
L 319.172173 278.430416 
L 326.319672 278.430416 
L 326.319672 274.59802 
L 345.945415 274.59802 
L 345.945415 270.765624 
L 356.940952 270.765624 
L 356.940952 266.933228 
L 360.183562 266.933228 
L 360.183562 263.100832 
L 362.485352 263.100832 
L 362.485352 259.268436 
L 377.012707 259.268436 
L 377.012707 255.43604 
L 377.012707 255.43604 
L 377.012707 255.43604 
L 460.8 255.43604 
" clip-path="url(#p587f5e0340)" style="fill: none; stroke: #f5deb3; stroke-width: 1.5; stroke-linecap: square"/>
   </g>
   <g id="line2d_13"/>
   <g id="line2d_14">
    <path d="M 252.976743 293.76 
L 252.976743 289.927604 
L 257.422634 289.927604 
L 257.422634 286.095208 
L 266.681835 286.095208 
L 266.681835 282.262812 
L 267.798767 282.262812 
L 267.798767 278.430416 
L 271.705345 278.430416 
L 271.705345 274.59802 
L 271.979642 274.59802 
L 271.979642 270.765624 
L 274.14888 270.765624 
L 274.14888 266.933228 
L 276.7799 266.933228 
L 276.7799 263.100832 
L 277.48085 263.100832 
L 277.48085 259.268436 
L 281.219659 259.268436 
L 281.219659 255.43604 
L 282.043487 255.43604 
L 282.043487 251.603644 
L 283.205456 251.603644 
L 283.205456 247.771248 
L 284.005414 247.771248 
L 284.005414 243.938851 
L 287.574919 243.938851 
L 287.574919 240.106455 
L 290.413756 240.106455 
L 290.413756 236.274059 
L 290.801902 236.274059 
L 290.801902 232.441663 
L 291.833865 232.441663 
L 291.833865 228.609267 
L 292.273465 228.609267 
L 292.273465 224.776871 
L 298.993941 224.776871 
L 298.993941 220.944475 
L 299.830993 220.944475 
L 299.830993 217.112079 
L 303.172203 217.112079 
L 303.172203 213.279683 
L 305.657064 213.279683 
L 305.657064 209.447287 
L 306.137178 209.447287 
L 306.137178 205.614891 
L 307.837539 205.614891 
L 307.837539 201.782495 
L 309.694698 201.782495 
L 309.694698 197.950099 
L 311.0655 197.950099 
L 311.0655 194.117703 
L 311.866188 194.117703 
L 311.866188 190.285307 
L 314.195792 190.285307 
L 314.195792 186.452911 
L 314.819384 186.452911 
L 314.819384 182.620515 
L 321.205512 182.620515 
L 321.205512 178.788119 
L 322.425651 178.788119 
L 322.425651 174.955723 
L 324.140085 174.955723 
L 324.140085 171.123327 
L 335.179596 171.123327 
L 335.179596 167.290931 
L 346.790776 167.290931 
L 346.790776 163.458535 
L 348.725823 163.458535 
L 348.725823 159.626139 
L 352.563154 159.626139 
L 352.563154 155.793743 
L 356.498441 155.793743 
L 356.498441 151.961347 
L 362.965261 151.961347 
L 362.965261 148.12895 
L 363.402029 148.12895 
L 363.402029 144.296554 
L 363.402029 144.296554 
L 363.402029 144.296554 
L 460.8 144.296554 
" clip-path="url(#p587f5e0340)" style="fill: none; stroke: #f5deb3; stroke-width: 1.5; stroke-linecap: square"/>
   </g>
   <g id="line2d_15"/>
   <g id="line2d_16"/>
   <g id="line2d_17">
    <path d="M 307.104396 293.76 
L 307.104396 289.927604 
L 308.173414 289.927604 
L 308.173414 286.095208 
L 309.138864 286.095208 
L 309.138864 282.262812 
L 309.51289 282.262812 
L 309.51289 278.430416 
L 311.11069 278.430416 
L 311.11069 274.59802 
L 311.483734 274.59802 
L 311.483734 270.765624 
L 311.610572 270.765624 
L 311.610572 266.933228 
L 311.825422 266.933228 
L 311.825422 263.100832 
L 312.401628 263.100832 
L 312.441688 255.43604 
L 313.125169 255.43604 
L 313.17415 240.106455 
L 314.224251 240.106455 
L 314.259001 232.441663 
L 314.438483 232.441663 
L 314.45418 224.776871 
L 314.732353 224.776871 
L 314.732353 220.944475 
L 314.924758 220.944475 
L 314.924758 217.112079 
L 315.266446 217.112079 
L 315.266446 213.279683 
L 315.492287 213.279683 
L 315.492287 209.447287 
L 315.87631 209.447287 
L 315.87631 205.614891 
L 316.12489 205.614891 
L 316.12489 201.782495 
L 316.877082 201.782495 
L 316.877082 197.950099 
L 317.051603 197.950099 
L 317.051603 194.117703 
L 317.213659 194.117703 
L 317.213659 190.285307 
L 317.328928 190.285307 
L 317.37205 182.620515 
L 317.535402 182.620515 
L 317.58111 174.955723 
L 317.712169 174.955723 
L 317.712169 171.123327 
L 318.085384 171.123327 
L 318.085384 167.290931 
L 318.264827 167.290931 
L 318.264827 163.458535 
L 318.761583 163.458535 
L 318.761583 159.626139 
L 319.166732 159.626139 
L 319.166732 155.793743 
L 319.286227 155.793743 
L 319.343107 148.12895 
L 320.142499 148.12895 
L 320.142499 144.296554 
L 320.767827 144.296554 
L 320.767827 140.464158 
L 320.915228 140.464158 
L 320.915228 136.631762 
L 321.210626 136.631762 
L 321.210626 132.799366 
L 322.103674 132.799366 
L 322.103674 128.96697 
L 324.088569 128.96697 
L 324.088569 125.134574 
L 324.475308 125.134574 
L 324.475308 121.302178 
L 327.430851 121.302178 
L 327.443554 113.637386 
L 329.121067 113.637386 
L 329.121067 109.80499 
L 330.403443 109.80499 
L 330.403443 105.972594 
L 330.692425 105.972594 
L 330.721184 98.307802 
L 331.581841 98.307802 
L 331.581841 94.475406 
L 332.05086 94.475406 
L 332.05086 90.64301 
L 332.565897 90.64301 
L 332.576768 82.978218 
L 332.890487 82.978218 
L 332.997977 75.313426 
L 333.468579 75.313426 
L 333.468579 71.48103 
L 335.479561 71.48103 
L 335.479561 67.648634 
L 335.607051 67.648634 
L 335.607051 63.816238 
L 335.839236 63.816238 
L 335.839236 59.983842 
L 335.988223 59.983842 
L 335.988223 56.151446 
L 337.104412 56.151446 
L 337.104412 52.31905 
L 338.15806 52.31905 
L 338.15806 48.486653 
L 339.865849 48.486653 
L 339.960112 40.821861 
L 341.768983 40.821861 
L 341.768983 36.989465 
L 344.080851 36.989465 
L 344.080851 33.157069 
L 345.828056 33.157069 
L 345.828056 29.324673 
L 347.137391 29.324673 
L 347.137391 25.492277 
L 349.204111 25.492277 
L 349.204111 21.659881 
L 352.922837 21.659881 
L 353.026279 13.995089 
L 355.216279 13.995089 
L 355.216279 10.162693 
L 357.407474 10.162693 
L 357.407474 6.330297 
L 357.407474 6.330297 
L 460.8 6.330297 
L 460.8 6.330297 
" clip-path="url(#p587f5e0340)" style="fill: none; stroke: #f5deb3; stroke-width: 1.5; stroke-linecap: square"/>
   </g>
   <g id="line2d_18">
    <path d="M 198.183939 293.76 
L 198.183939 289.927604 
L 221.198498 289.927604 
L 221.198498 286.095208 
L 222.243677 286.095208 
L 222.243677 282.262812 
L 227.771668 282.262812 
L 227.771668 278.430416 
L 228.417788 278.430416 
L 228.417788 274.59802 
L 238.547584 274.59802 
L 238.547584 270.765624 
L 241.343294 270.765624 
L 241.343294 266.933228 
L 252.487041 266.933228 
L 252.487041 263.100832 
L 255.208383 263.100832 
L 255.208383 259.268436 
L 266.102052 259.268436 
L 266.102052 255.43604 
L 266.521058 255.43604 
L 266.521058 251.603644 
L 271.405592 251.603644 
L 271.405592 247.771248 
L 274.424803 247.771248 
L 274.424803 243.938851 
L 275.720045 243.938851 
L 275.720045 240.106455 
L 275.851875 240.106455 
L 275.851875 236.274059 
L 275.93274 236.274059 
L 275.93274 232.441663 
L 279.561862 232.441663 
L 279.561862 228.609267 
L 280.162277 228.609267 
L 280.162277 224.776871 
L 280.612091 224.776871 
L 280.612091 220.944475 
L 280.699575 220.944475 
L 280.699575 217.112079 
L 281.142167 217.112079 
L 281.142167 213.279683 
L 281.638392 213.279683 
L 281.638392 209.447287 
L 285.170097 209.447287 
L 285.170097 205.614891 
L 288.608234 205.614891 
L 288.608234 201.782495 
L 288.74542 201.782495 
L 288.74542 197.950099 
L 291.514439 197.950099 
L 291.514439 194.117703 
L 292.652606 194.117703 
L 292.652606 190.285307 
L 293.587722 190.285307 
L 293.587722 186.452911 
L 303.624281 186.452911 
L 303.624281 182.620515 
L 306.891897 182.620515 
L 306.891897 178.788119 
L 317.820043 178.788119 
L 317.820043 174.955723 
L 321.000266 174.955723 
L 321.000266 171.123327 
L 323.17135 171.123327 
L 323.17135 167.290931 
L 327.606142 167.290931 
L 327.606142 163.458535 
L 331.136347 163.458535 
L 331.136347 159.626139 
L 332.225266 159.626139 
L 332.225266 155.793743 
L 333.840283 155.793743 
L 333.840283 151.961347 
L 337.629228 151.961347 
L 337.629228 148.12895 
L 345.533427 148.12895 
L 345.533427 144.296554 
L 356.371917 144.296554 
L 356.371917 140.464158 
L 359.15688 140.464158 
L 359.15688 136.631762 
L 363.98578 136.631762 
L 363.98578 132.799366 
L 364.679341 132.799366 
L 364.679341 128.96697 
L 365.017678 128.96697 
L 365.017678 125.134574 
L 379.099791 125.134574 
L 379.099791 121.302178 
L 379.099791 121.302178 
L 379.099791 121.302178 
L 460.8 121.302178 
" clip-path="url(#p587f5e0340)" style="fill: none; stroke: #f5deb3; stroke-width: 1.5; stroke-linecap: square"/>
   </g>
   <g id="line2d_19">
    <path clip-path="url(#p587f5e0340)" style="fill: none; stroke: #f5deb3; stroke-width: 1.5; stroke-linecap: square"/>
   </g>
   <g id="line2d_20">
    <path d="M 210.284158 293.76 
L 210.284158 289.927604 
L 213.920416 289.927604 
L 213.920416 286.095208 
L 216.772854 286.095208 
L 216.772854 282.262812 
L 217.434132 282.262812 
L 217.434132 278.430416 
L 218.775379 278.430416 
L 218.775379 270.765624 
L 219.00317 270.765624 
L 219.00317 266.933228 
L 219.565856 266.933228 
L 219.565856 263.100832 
L 219.843639 263.100832 
L 219.843639 259.268436 
L 220.985427 259.268436 
L 221.038824 251.603644 
L 221.881621 251.603644 
L 221.881621 247.771248 
L 222.550878 247.771248 
L 222.550878 243.938851 
L 224.672511 243.938851 
L 224.672511 240.106455 
L 225.381628 240.106455 
L 225.381628 232.441663 
L 227.023758 232.441663 
L 227.023758 228.609267 
L 228.545507 228.609267 
L 228.545507 224.776871 
L 230.922203 224.776871 
L 230.922203 217.112079 
L 231.197797 217.112079 
L 231.197797 213.279683 
L 231.664949 213.279683 
L 231.664949 209.447287 
L 232.011021 209.447287 
L 232.011021 205.614891 
L 232.579856 205.614891 
L 232.579856 201.782495 
L 234.26549 201.782495 
L 234.26549 197.950099 
L 234.797033 197.950099 
L 234.797033 194.117703 
L 235.423775 194.117703 
L 235.423775 190.285307 
L 236.072662 190.285307 
L 236.072662 186.452911 
L 238.168947 186.452911 
L 238.264015 178.788119 
L 238.295643 178.788119 
L 238.295643 174.955723 
L 238.61027 174.955723 
L 238.61027 171.123327 
L 239.322717 171.123327 
L 239.353347 163.458535 
L 240.761751 163.458535 
L 240.761751 159.626139 
L 243.08353 159.626139 
L 243.08353 155.793743 
L 243.437055 155.793743 
L 243.437055 151.961347 
L 244.89216 151.961347 
L 244.969712 144.296554 
L 248.747007 144.296554 
L 248.747007 140.464158 
L 249.249718 140.464158 
L 249.249718 136.631762 
L 249.36291 136.631762 
L 249.36291 132.799366 
L 249.92311 132.799366 
L 249.92311 128.96697 
L 250.210696 128.96697 
L 250.276708 121.302178 
L 255.227306 121.302178 
L 255.227306 117.469782 
L 259.297463 117.469782 
L 259.297463 113.637386 
L 259.811764 113.637386 
L 259.811764 109.80499 
L 261.605764 109.80499 
L 261.605764 105.972594 
L 264.882757 105.972594 
L 264.882757 102.140198 
L 265.331371 102.140198 
L 265.331371 98.307802 
L 267.027519 98.307802 
L 267.027519 94.475406 
L 270.418102 94.475406 
L 270.418102 90.64301 
L 272.251677 90.64301 
L 272.251677 86.810614 
L 274.031444 86.810614 
L 274.031444 82.978218 
L 274.329552 82.978218 
L 274.329552 79.145822 
L 277.297319 79.145822 
L 277.297319 75.313426 
L 277.442297 75.313426 
L 277.442297 71.48103 
L 278.654175 71.48103 
L 278.654175 67.648634 
L 279.814113 67.648634 
L 279.814113 63.816238 
L 281.08177 63.816238 
L 281.08177 59.983842 
L 282.509892 59.983842 
L 282.509892 56.151446 
L 290.705293 56.151446 
L 290.705293 52.31905 
L 293.564073 52.31905 
L 293.564073 48.486653 
L 293.940437 48.486653 
L 293.940437 44.654257 
L 298.518997 44.654257 
L 298.518997 40.821861 
L 302.619601 40.821861 
L 302.619601 36.989465 
L 307.529202 36.989465 
L 307.529202 33.157069 
L 316.232127 33.157069 
L 316.232127 29.324673 
L 320.426543 29.324673 
L 320.426543 25.492277 
L 321.378972 25.492277 
L 321.378972 21.659881 
L 322.961047 21.659881 
L 322.961047 17.827485 
L 324.795691 17.827485 
L 324.795691 13.995089 
L 341.17838 13.995089 
L 341.17838 10.162693 
L 364.166972 10.162693 
L 364.166972 6.330297 
L 364.166972 6.330297 
L 460.8 6.330297 
L 460.8 6.330297 
" clip-path="url(#p587f5e0340)" style="fill: none; stroke: #f5deb3; stroke-width: 1.5; stroke-linecap: square"/>
   </g>
   <g id="line2d_21"/>
   <g id="line2d_22">
    <path d="M 209.156136 293.76 
L 209.156136 289.927604 
L 210.797646 289.927604 
L 210.797646 286.095208 
L 214.249816 286.095208 
L 214.249816 282.262812 
L 214.6408 282.262812 
L 214.6408 278.430416 
L 215.155004 278.430416 
L 215.155004 274.59802 
L 215.282312 274.59802 
L 215.282312 270.765624 
L 215.598447 270.765624 
L 215.598447 266.933228 
L 215.973851 266.933228 
L 216.036004 259.268436 
L 216.772854 259.268436 
L 216.772854 255.43604 
L 217.493596 255.43604 
L 217.493596 251.603644 
L 218.775379 251.603644 
L 218.775379 247.771248 
L 219.67725 247.771248 
L 219.67725 243.938851 
L 220.717137 243.938851 
L 220.717137 240.106455 
L 221.198498 240.106455 
L 221.30452 232.441663 
L 221.515545 232.441663 
L 221.515545 228.609267 
L 223.306586 228.609267 
L 223.306586 224.776871 
L 224.142626 224.776871 
L 224.142626 220.944475 
L 224.767946 220.944475 
L 224.767946 217.112079 
L 225.521639 217.112079 
L 225.521639 213.279683 
L 230.763681 213.279683 
L 230.763681 209.447287 
L 231.197797 209.447287 
L 231.197797 205.614891 
L 231.626272 205.614891 
L 231.626272 201.782495 
L 233.286572 201.782495 
L 233.286572 197.950099 
L 234.656124 197.950099 
L 234.656124 194.117703 
L 236.375629 194.117703 
L 236.375629 190.285307 
L 237.170188 190.285307 
L 237.170188 186.452911 
L 238.547584 186.452911 
L 238.547584 182.620515 
L 241.372104 182.620515 
L 241.372104 178.788119 
L 242.559926 178.788119 
L 242.559926 174.955723 
L 242.946544 174.955723 
L 242.946544 171.123327 
L 243.572023 171.123327 
L 243.572023 167.290931 
L 243.786829 167.290931 
L 243.786829 163.458535 
L 244.943882 163.458535 
L 244.943882 159.626139 
L 245.659595 159.626139 
L 245.659595 155.793743 
L 248.072411 155.793743 
L 248.072411 151.961347 
L 251.101609 151.961347 
L 251.101609 148.12895 
L 251.654355 148.12895 
L 251.654355 144.296554 
L 252.135716 144.296554 
L 252.135716 140.464158 
L 253.757315 140.464158 
L 253.757315 136.631762 
L 255.378297 136.631762 
L 255.378297 132.799366 
L 257.138233 132.799366 
L 257.138233 128.96697 
L 257.931942 128.96697 
L 257.931942 125.134574 
L 258.791997 125.134574 
L 258.791997 121.302178 
L 259.745852 121.302178 
L 259.811764 113.637386 
L 259.861112 113.637386 
L 259.861112 109.80499 
L 260.608675 109.80499 
L 260.608675 105.972594 
L 261.134718 105.972594 
L 261.134718 102.140198 
L 261.761295 102.140198 
L 261.761295 98.307802 
L 264.542245 98.307802 
L 264.556503 90.64301 
L 266.561326 90.64301 
L 266.561326 86.810614 
L 267.539343 86.810614 
L 267.539343 82.978218 
L 267.914845 82.978218 
L 267.914845 79.145822 
L 269.876668 79.145822 
L 269.876668 75.313426 
L 270.35838 75.313426 
L 270.35838 71.48103 
L 270.715102 71.48103 
L 270.715102 67.648634 
L 270.974266 67.648634 
L 270.974266 63.816238 
L 271.173144 63.816238 
L 271.173144 59.983842 
L 271.498114 59.983842 
L 271.544278 52.31905 
L 273.730617 52.31905 
L 273.730617 48.486653 
L 278.904214 48.486653 
L 278.904214 44.654257 
L 279.814113 44.654257 
L 279.814113 40.821861 
L 283.53579 40.821861 
L 283.53579 36.989465 
L 283.854908 36.989465 
L 283.854908 33.157069 
L 286.058252 33.157069 
L 286.058252 29.324673 
L 286.625172 29.324673 
L 286.625172 25.492277 
L 287.603276 25.492277 
L 287.603276 21.659881 
L 293.475238 21.659881 
L 293.475238 17.827485 
L 293.981342 17.827485 
L 293.981342 13.995089 
L 304.169009 13.995089 
L 304.169009 10.162693 
L 311.504335 10.162693 
L 311.504335 6.330297 
L 311.504335 6.330297 
L 460.8 6.330297 
L 460.8 6.330297 
" clip-path="url(#p587f5e0340)" style="fill: none; stroke: #f5deb3; stroke-width: 1.5; stroke-linecap: square"/>
   </g>
   <g id="line2d_23">
    <path d="M 432.21479 293.76 
L 432.21479 289.927604 
L 435.837891 289.927604 
L 435.837891 286.095208 
L 435.867368 286.095208 
L 435.867368 282.262812 
L 437.611544 282.262812 
L 437.611544 278.430416 
L 438.192213 278.430416 
L 438.192213 274.59802 
L 440.108086 274.59802 
L 440.108086 270.765624 
L 440.70663 270.765624 
L 440.70663 266.933228 
L 440.995521 266.933228 
L 440.995521 263.100832 
L 440.995521 263.100832 
L 440.995521 263.100832 
L 460.8 263.100832 
" clip-path="url(#p587f5e0340)" style="fill: none; stroke: #f5deb3; stroke-width: 1.5; stroke-linecap: square"/>
   </g>
   <g id="line2d_24">
    <path d="M 247.239424 293.76 
L 247.239424 289.927604 
L 248.770025 289.927604 
L 248.770025 286.095208 
L 252.651084 286.095208 
L 252.651084 282.262812 
L 253.118213 282.262812 
L 253.198781 274.59802 
L 253.299216 274.59802 
L 253.299216 270.765624 
L 253.697922 270.765624 
L 253.697922 266.933228 
L 254.013452 266.933228 
L 254.013452 263.100832 
L 256.251672 263.100832 
L 256.270006 255.43604 
L 256.54379 255.43604 
L 256.54379 251.603644 
L 256.815321 251.603644 
L 256.815321 247.771248 
L 257.191745 247.771248 
L 257.191745 243.938851 
L 257.774721 243.938851 
L 257.774721 240.106455 
L 258.105757 240.106455 
L 258.105757 236.274059 
L 258.859842 236.274059 
L 258.859842 232.441663 
L 259.163428 232.441663 
L 259.163428 228.609267 
L 260.10675 228.609267 
L 260.10675 224.776871 
L 260.720964 224.776871 
L 260.76897 217.112079 
L 261.776808 217.112079 
L 261.776808 213.279683 
L 262.739693 213.279683 
L 262.739693 209.447287 
L 263.30717 209.447287 
L 263.30717 205.614891 
L 264.427955 205.614891 
L 264.427955 201.782495 
L 264.570755 201.782495 
L 264.641925 194.117703 
L 264.854515 194.117703 
L 264.854515 190.285307 
L 265.275627 190.285307 
L 265.359208 182.620515 
L 265.58106 182.620515 
L 265.63629 174.955723 
L 266.061219 174.955723 
L 266.061219 171.123327 
L 266.588144 171.123327 
L 266.588144 167.290931 
L 266.775261 167.290931 
L 266.775261 163.458535 
L 267.565378 163.458535 
L 267.565378 159.626139 
L 268.209646 159.626139 
L 268.209646 155.793743 
L 268.451205 155.793743 
L 268.501835 148.12895 
L 269.498439 148.12895 
L 269.498439 144.296554 
L 270.430034 144.296554 
L 270.430034 140.464158 
L 270.844939 140.464158 
L 270.844939 136.631762 
L 271.578859 136.631762 
L 271.578859 132.799366 
L 271.979642 132.799366 
L 272.081918 125.134574 
L 273.806081 125.134574 
L 273.806081 121.302178 
L 274.382503 121.302178 
L 274.382503 117.469782 
L 275.740361 117.469782 
L 275.740361 113.637386 
L 276.184172 113.637386 
L 276.184172 109.80499 
L 276.641856 109.80499 
L 276.641856 105.972594 
L 277.171155 105.972594 
L 277.171155 102.140198 
L 277.442297 102.140198 
L 277.442297 98.307802 
L 277.720792 98.307802 
L 277.720792 94.475406 
L 278.904214 94.475406 
L 278.904214 90.64301 
L 279.876875 90.64301 
L 279.984191 79.145822 
L 280.418806 79.145822 
L 280.418806 75.313426 
L 280.856463 75.313426 
L 280.856463 71.48103 
L 281.553367 71.48103 
L 281.553367 67.648634 
L 281.773977 67.648634 
L 281.773977 63.816238 
L 282.443665 63.816238 
L 282.526428 56.151446 
L 285.894468 56.151446 
L 285.894468 52.31905 
L 286.98093 52.31905 
L 286.98093 48.486653 
L 287.878491 48.486653 
L 287.878491 44.654257 
L 288.207136 44.654257 
L 288.207136 40.821861 
L 294.851596 40.821861 
L 294.851596 36.989465 
L 297.8299 36.989465 
L 297.8299 33.157069 
L 301.99352 33.157069 
L 301.99352 29.324673 
L 311.998329 29.324673 
L 311.998329 25.492277 
L 312.109729 25.492277 
L 312.109729 21.659881 
L 314.893801 21.659881 
L 314.893801 17.827485 
L 317.463856 17.827485 
L 317.463856 13.995089 
L 332.652767 13.995089 
L 332.652767 10.162693 
L 334.273296 10.162693 
L 334.273296 6.330297 
L 334.273296 6.330297 
L 460.8 6.330297 
L 460.8 6.330297 
" clip-path="url(#p587f5e0340)" style="fill: none; stroke: #f5deb3; stroke-width: 1.5; stroke-linecap: square"/>
   </g>
   <g id="line2d_25"/>
   <g id="line2d_26">
    <path d="M 287.624528 293.76 
L 287.624528 289.927604 
L 288.800135 289.927604 
L 288.800135 286.095208 
L 289.530037 286.095208 
L 289.623482 274.59802 
L 289.729952 274.59802 
L 289.822833 266.933228 
L 293.195328 266.933228 
L 293.219243 259.268436 
L 293.380216 259.268436 
L 293.380216 255.43604 
L 293.711602 255.43604 
L 293.793931 247.771248 
L 293.975502 247.771248 
L 294.03969 240.106455 
L 294.115389 240.106455 
L 294.115389 236.274059 
L 294.231511 236.274059 
L 294.277845 228.609267 
L 294.451021 228.609267 
L 294.525782 220.944475 
L 294.766167 220.944475 
L 294.766167 217.112079 
L 294.885705 217.112079 
L 294.885705 213.279683 
L 294.99915 213.279683 
L 294.99915 209.447287 
L 295.252982 209.447287 
L 295.286679 197.950099 
L 295.493721 197.950099 
L 295.493721 194.117703 
L 295.727176 194.117703 
L 295.799102 178.788119 
L 298.544433 178.788119 
L 298.580011 167.290931 
L 298.807811 167.290931 
L 298.85822 159.626139 
L 299.179026 159.626139 
L 299.179026 155.793743 
L 299.348194 155.793743 
L 299.397784 148.12895 
L 299.835883 148.12895 
L 299.835883 144.296554 
L 300.123133 144.296554 
L 300.123133 140.464158 
L 300.556546 140.464158 
L 300.556546 136.631762 
L 303.418761 136.631762 
L 303.418761 132.799366 
L 303.850181 132.799366 
L 303.858839 125.134574 
L 304.147564 125.134574 
L 304.147564 121.302178 
L 304.386962 121.302178 
L 304.386962 117.469782 
L 307.706848 117.469782 
L 307.706848 113.637386 
L 308.659672 113.637386 
L 308.663414 105.972594 
L 308.786648 105.972594 
L 308.81273 94.475406 
L 309.065025 94.475406 
L 309.065025 90.64301 
L 311.2182 90.64301 
L 311.2182 86.810614 
L 311.651604 86.810614 
L 311.651604 82.978218 
L 311.900121 82.978218 
L 311.971267 71.48103 
L 312.528318 71.48103 
L 312.528318 67.648634 
L 314.598248 67.648634 
L 314.676282 59.983842 
L 315.017456 59.983842 
L 315.017456 56.151446 
L 315.53484 56.151446 
L 315.546988 48.486653 
L 318.462761 48.486653 
L 318.462761 44.654257 
L 320.55983 44.654257 
L 320.55983 40.821861 
L 326.903619 40.821861 
L 326.903619 36.989465 
L 327.49009 36.989465 
L 327.580857 25.492277 
L 328.495551 25.492277 
L 328.495551 21.659881 
L 329.323631 21.659881 
L 329.323631 17.827485 
L 333.151438 17.827485 
L 333.151438 13.995089 
L 335.522665 13.995089 
L 335.522665 10.162693 
L 348.955915 10.162693 
L 348.955915 6.330297 
L 348.955915 6.330297 
L 460.8 6.330297 
L 460.8 6.330297 
" clip-path="url(#p587f5e0340)" style="fill: none; stroke: #f5deb3; stroke-width: 1.5; stroke-linecap: square"/>
   </g>
   <g id="line2d_27">
    <path d="M 277.577036 293.76 
L 277.577036 289.927604 
L 278.533106 289.927604 
L 278.533106 286.095208 
L 287.39713 286.095208 
L 287.39713 282.262812 
L 287.94869 282.262812 
L 287.94869 278.430416 
L 288.179293 278.430416 
L 288.179293 274.59802 
L 294.525782 274.59802 
L 294.525782 270.765624 
L 300.152205 270.765624 
L 300.152205 266.933228 
L 307.253116 266.933228 
L 307.253116 263.100832 
L 307.556297 263.100832 
L 307.556297 259.268436 
L 308.887135 259.268436 
L 308.887135 255.43604 
L 313.521456 255.43604 
L 313.521456 251.603644 
L 314.22109 251.603644 
L 314.22109 247.771248 
L 317.369177 247.771248 
L 317.369177 243.938851 
L 318.68161 243.938851 
L 318.68161 240.106455 
L 325.566485 240.106455 
L 325.566485 236.274059 
L 362.042859 236.274059 
L 362.042859 232.441663 
L 365.563758 232.441663 
L 365.563758 228.609267 
L 365.563758 228.609267 
L 365.563758 224.776871 
L 366.191916 224.776871 
L 366.191916 220.944475 
L 369.016981 220.944475 
L 369.016981 217.112079 
L 372.489975 217.112079 
L 372.489975 213.279683 
L 373.538955 213.279683 
L 373.538955 209.447287 
L 374.010999 209.447287 
L 374.010999 205.614891 
L 377.637534 205.614891 
L 377.637534 201.782495 
L 377.986265 201.782495 
L 377.986265 197.950099 
L 378.74618 197.950099 
L 378.74618 194.117703 
L 380.039802 194.117703 
L 380.039802 190.285307 
L 383.286113 190.285307 
L 383.286113 186.452911 
L 383.850619 186.452911 
L 383.850619 182.620515 
L 384.404118 182.620515 
L 384.404118 178.788119 
L 384.892185 178.788119 
L 384.892185 174.955723 
L 386.175727 174.955723 
L 386.175727 171.123327 
L 387.030891 171.123327 
L 387.030891 167.290931 
L 387.797639 167.290931 
L 387.797639 163.458535 
L 389.294556 163.458535 
L 389.294556 159.626139 
L 390.105738 159.626139 
L 390.105738 155.793743 
L 390.438241 155.793743 
L 390.438241 151.961347 
L 390.45171 151.961347 
L 390.45171 148.12895 
L 390.888172 148.12895 
L 390.888172 144.296554 
L 393.782266 144.296554 
L 393.782266 140.464158 
L 394.041108 140.464158 
L 394.041108 136.631762 
L 401.897406 136.631762 
L 401.897406 132.799366 
L 402.604398 132.799366 
L 402.604398 128.96697 
L 402.631465 128.96697 
L 402.631465 125.134574 
L 409.476623 125.134574 
L 409.476623 121.302178 
L 412.286516 121.302178 
L 412.286516 117.469782 
L 416.799095 117.469782 
L 416.799095 113.637386 
L 416.799095 113.637386 
L 416.799095 113.637386 
L 460.8 113.637386 
" clip-path="url(#p587f5e0340)" style="fill: none; stroke: #f5deb3; stroke-width: 1.5; stroke-linecap: square"/>
   </g>
   <g id="line2d_28">
    <path d="M 241.971363 293.76 
L 241.971363 289.927604 
L 242.30897 289.927604 
L 242.30897 286.095208 
L 243.16545 286.095208 
L 243.16545 282.262812 
L 244.580114 282.262812 
L 244.580114 278.430416 
L 244.814425 278.430416 
L 244.814425 274.59802 
L 245.149962 274.59802 
L 245.149962 270.765624 
L 246.285756 270.765624 
L 246.285756 266.933228 
L 247.598999 266.933228 
L 247.598999 263.100832 
L 247.71799 263.100832 
L 247.71799 259.268436 
L 248.747007 259.268436 
L 248.747007 255.43604 
L 249.158884 255.43604 
L 249.158884 251.603644 
L 249.340302 251.603644 
L 249.340302 247.771248 
L 250.166615 247.771248 
L 250.166615 243.938851 
L 250.908095 243.938851 
L 250.908095 240.106455 
L 251.03723 240.106455 
L 251.03723 236.274059 
L 251.293995 236.274059 
L 251.293995 232.441663 
L 251.421631 232.441663 
L 251.421631 228.609267 
L 251.738576 228.609267 
L 251.738576 224.776871 
L 251.989957 224.776871 
L 251.989957 220.944475 
L 252.218718 220.944475 
L 252.218718 217.112079 
L 252.363471 217.112079 
L 252.363471 213.279683 
L 252.895629 213.279683 
L 252.895629 209.447287 
L 253.057657 209.447287 
L 253.057657 205.614891 
L 253.178658 205.614891 
L 253.178658 201.782495 
L 253.99382 201.782495 
L 253.99382 197.950099 
L 254.442434 197.950099 
L 254.442434 194.117703 
L 254.597054 194.117703 
L 254.597054 190.285307 
L 255.415937 190.285307 
L 255.415937 186.452911 
L 255.993928 186.452911 
L 255.993928 182.620515 
L 256.706977 182.620515 
L 256.706977 178.788119 
L 257.048852 178.788119 
L 257.048852 174.955723 
L 257.757206 174.955723 
L 257.757206 171.123327 
L 258.706994 171.123327 
L 258.706994 167.290931 
L 259.129834 167.290931 
L 259.129834 163.458535 
L 259.330887 163.458535 
L 259.330887 159.626139 
L 259.480877 159.626139 
L 259.480877 155.793743 
L 260.496003 155.793743 
L 260.496003 151.961347 
L 260.62474 151.961347 
L 260.62474 148.12895 
L 261.007961 148.12895 
L 261.007961 144.296554 
L 261.134718 144.296554 
L 261.134718 140.464158 
L 261.449495 140.464158 
L 261.449495 136.631762 
L 261.605764 136.631762 
L 261.605764 132.799366 
L 261.730248 132.799366 
L 261.730248 128.96697 
L 262.116258 128.96697 
L 262.116258 125.134574 
L 262.694473 125.134574 
L 262.694473 121.302178 
L 263.054505 121.302178 
L 263.054505 117.469782 
L 263.351558 117.469782 
L 263.440155 109.80499 
L 263.484364 109.80499 
L 263.499087 102.140198 
L 264.082688 102.140198 
L 264.082688 98.307802 
L 264.882757 98.307802 
L 264.882757 94.475406 
L 265.718963 94.475406 
L 265.718963 90.64301 
L 265.965745 90.64301 
L 265.965745 86.810614 
L 266.547909 86.810614 
L 266.547909 82.978218 
L 266.735254 82.978218 
L 266.735254 79.145822 
L 267.759984 79.145822 
L 267.759984 75.313426 
L 268.298848 75.313426 
L 268.298848 71.48103 
L 268.615469 71.48103 
L 268.615469 67.648634 
L 268.866594 67.648634 
L 268.866594 63.816238 
L 269.8038 63.816238 
L 269.8038 59.983842 
L 270.082256 59.983842 
L 270.082256 56.151446 
L 270.394227 56.151446 
L 270.394227 52.31905 
L 270.785985 52.31905 
L 270.785985 48.486653 
L 271.044595 48.486653 
L 271.044595 44.654257 
L 271.774134 44.654257 
L 271.774134 40.821861 
L 273.186502 40.821861 
L 273.186502 36.989465 
L 273.459682 36.989465 
L 273.459682 33.157069 
L 273.816848 33.157069 
L 273.816848 29.324673 
L 285.345099 29.324673 
L 285.345099 25.492277 
L 285.924307 25.492277 
L 285.924307 21.659881 
L 288.130512 21.659881 
L 288.130512 17.827485 
L 290.080201 17.827485 
L 290.080201 13.995089 
L 291.995526 13.995089 
L 291.995526 10.162693 
L 302.713841 10.162693 
L 302.713841 6.330297 
L 302.713841 6.330297 
L 460.8 6.330297 
L 460.8 6.330297 
" clip-path="url(#p587f5e0340)" style="fill: none; stroke: #f5deb3; stroke-width: 1.5; stroke-linecap: square"/>
   </g>
   <g id="line2d_29">
    <path d="M 296.211025 293.76 
L 296.211025 289.927604 
L 296.211025 289.927604 
L 296.211025 286.095208 
L 296.211025 286.095208 
L 296.211025 282.262812 
L 318.031923 282.262812 
L 318.031923 278.430416 
L 318.031923 278.430416 
L 318.031923 274.59802 
L 318.031923 274.59802 
L 318.031923 270.765624 
L 318.031923 270.765624 
L 318.031923 270.765624 
L 460.8 270.765624 
" clip-path="url(#p587f5e0340)" style="fill: none; stroke: #f5deb3; stroke-width: 1.5; stroke-linecap: square"/>
   </g>
   <g id="line2d_30"/>
   <g id="matplotlib.axis_1">
    <g id="xtick_1">
     <g id="line2d_31">
      <path d="M 138.130286 293.76 
L 138.130286 3.456 
" clip-path="url(#p587f5e0340)" style="fill: none; stroke: #b0b0b0; stroke-width: 0.8; stroke-linecap: square"/>
     </g>
     <g id="line2d_32">
      <defs>
       <path id="m23986a50a8" d="M 0 0 
L 0 3.5 
" style="stroke: #000000; stroke-width: 0.8"/>
      </defs>
      <g>
       <use xlink:href="#m23986a50a8" x="138.130286" y="293.76" style="stroke: #000000; stroke-width: 0.8"/>
      </g>
     </g>
     <g id="text_1">
      <!-- 1 -->
      <g transform="translate(131.767786 315.956875)scale(0.2 -0.2)">
       <defs>
        <path id="DejaVuSans-31" d="M 794 531 
L 1825 531 
L 1825 4091 
L 703 3866 
L 703 4441 
L 1819 4666 
L 2450 4666 
L 2450 531 
L 3481 531 
L 3481 0 
L 794 0 
L 794 531 
z
" transform="scale(0.015625)"/>
       </defs>
       <use xlink:href="#DejaVuSans-31"/>
      </g>
     </g>
    </g>
    <g id="xtick_2">
     <g id="line2d_33">
      <path d="M 289.974857 293.76 
L 289.974857 3.456 
" clip-path="url(#p587f5e0340)" style="fill: none; stroke: #b0b0b0; stroke-width: 0.8; stroke-linecap: square"/>
     </g>
     <g id="line2d_34">
      <g>
       <use xlink:href="#m23986a50a8" x="289.974857" y="293.76" style="stroke: #000000; stroke-width: 0.8"/>
      </g>
     </g>
     <g id="text_2">
      <!-- 3 -->
      <g transform="translate(283.612357 315.956875)scale(0.2 -0.2)">
       <defs>
        <path id="DejaVuSans-33" d="M 2597 2516 
Q 3050 2419 3304 2112 
Q 3559 1806 3559 1356 
Q 3559 666 3084 287 
Q 2609 -91 1734 -91 
Q 1441 -91 1130 -33 
Q 819 25 488 141 
L 488 750 
Q 750 597 1062 519 
Q 1375 441 1716 441 
Q 2309 441 2620 675 
Q 2931 909 2931 1356 
Q 2931 1769 2642 2001 
Q 2353 2234 1838 2234 
L 1294 2234 
L 1294 2753 
L 1863 2753 
Q 2328 2753 2575 2939 
Q 2822 3125 2822 3475 
Q 2822 3834 2567 4026 
Q 2313 4219 1838 4219 
Q 1578 4219 1281 4162 
Q 984 4106 628 3988 
L 628 4550 
Q 988 4650 1302 4700 
Q 1616 4750 1894 4750 
Q 2613 4750 3031 4423 
Q 3450 4097 3450 3541 
Q 3450 3153 3228 2886 
Q 3006 2619 2597 2516 
z
" transform="scale(0.015625)"/>
       </defs>
       <use xlink:href="#DejaVuSans-33"/>
      </g>
     </g>
    </g>
    <g id="xtick_3">
     <g id="line2d_35">
      <path d="M 441.819429 293.76 
L 441.819429 3.456 
" clip-path="url(#p587f5e0340)" style="fill: none; stroke: #b0b0b0; stroke-width: 0.8; stroke-linecap: square"/>
     </g>
     <g id="line2d_36">
      <g>
       <use xlink:href="#m23986a50a8" x="441.819429" y="293.76" style="stroke: #000000; stroke-width: 0.8"/>
      </g>
     </g>
     <g id="text_3">
      <!-- 5 -->
      <g transform="translate(435.456929 315.956875)scale(0.2 -0.2)">
       <defs>
        <path id="DejaVuSans-35" d="M 691 4666 
L 3169 4666 
L 3169 4134 
L 1269 4134 
L 1269 2991 
Q 1406 3038 1543 3061 
Q 1681 3084 1819 3084 
Q 2600 3084 3056 2656 
Q 3513 2228 3513 1497 
Q 3513 744 3044 326 
Q 2575 -91 1722 -91 
Q 1428 -91 1123 -41 
Q 819 9 494 109 
L 494 744 
Q 775 591 1075 516 
Q 1375 441 1709 441 
Q 2250 441 2565 725 
Q 2881 1009 2881 1497 
Q 2881 1984 2565 2268 
Q 2250 2553 1709 2553 
Q 1456 2553 1204 2497 
Q 953 2441 691 2322 
L 691 4666 
z
" transform="scale(0.015625)"/>
       </defs>
       <use xlink:href="#DejaVuSans-35"/>
      </g>
     </g>
    </g>
    <g id="text_4">
     <!-- log10 of FEvals / DIM -->
     <g transform="translate(156.430563 339.313125)scale(0.2 -0.2)">
      <defs>
       <path id="DejaVuSans-6c" d="M 603 4863 
L 1178 4863 
L 1178 0 
L 603 0 
L 603 4863 
z
" transform="scale(0.015625)"/>
       <path id="DejaVuSans-6f" d="M 1959 3097 
Q 1497 3097 1228 2736 
Q 959 2375 959 1747 
Q 959 1119 1226 758 
Q 1494 397 1959 397 
Q 2419 397 2687 759 
Q 2956 1122 2956 1747 
Q 2956 2369 2687 2733 
Q 2419 3097 1959 3097 
z
M 1959 3584 
Q 2709 3584 3137 3096 
Q 3566 2609 3566 1747 
Q 3566 888 3137 398 
Q 2709 -91 1959 -91 
Q 1206 -91 779 398 
Q 353 888 353 1747 
Q 353 2609 779 3096 
Q 1206 3584 1959 3584 
z
" transform="scale(0.015625)"/>
       <path id="DejaVuSans-67" d="M 2906 1791 
Q 2906 2416 2648 2759 
Q 2391 3103 1925 3103 
Q 1463 3103 1205 2759 
Q 947 2416 947 1791 
Q 947 1169 1205 825 
Q 1463 481 1925 481 
Q 2391 481 2648 825 
Q 2906 1169 2906 1791 
z
M 3481 434 
Q 3481 -459 3084 -895 
Q 2688 -1331 1869 -1331 
Q 1566 -1331 1297 -1286 
Q 1028 -1241 775 -1147 
L 775 -588 
Q 1028 -725 1275 -790 
Q 1522 -856 1778 -856 
Q 2344 -856 2625 -561 
Q 2906 -266 2906 331 
L 2906 616 
Q 2728 306 2450 153 
Q 2172 0 1784 0 
Q 1141 0 747 490 
Q 353 981 353 1791 
Q 353 2603 747 3093 
Q 1141 3584 1784 3584 
Q 2172 3584 2450 3431 
Q 2728 3278 2906 2969 
L 2906 3500 
L 3481 3500 
L 3481 434 
z
" transform="scale(0.015625)"/>
       <path id="DejaVuSans-30" d="M 2034 4250 
Q 1547 4250 1301 3770 
Q 1056 3291 1056 2328 
Q 1056 1369 1301 889 
Q 1547 409 2034 409 
Q 2525 409 2770 889 
Q 3016 1369 3016 2328 
Q 3016 3291 2770 3770 
Q 2525 4250 2034 4250 
z
M 2034 4750 
Q 2819 4750 3233 4129 
Q 3647 3509 3647 2328 
Q 3647 1150 3233 529 
Q 2819 -91 2034 -91 
Q 1250 -91 836 529 
Q 422 1150 422 2328 
Q 422 3509 836 4129 
Q 1250 4750 2034 4750 
z
" transform="scale(0.015625)"/>
       <path id="DejaVuSans-20" transform="scale(0.015625)"/>
       <path id="DejaVuSans-66" d="M 2375 4863 
L 2375 4384 
L 1825 4384 
Q 1516 4384 1395 4259 
Q 1275 4134 1275 3809 
L 1275 3500 
L 2222 3500 
L 2222 3053 
L 1275 3053 
L 1275 0 
L 697 0 
L 697 3053 
L 147 3053 
L 147 3500 
L 697 3500 
L 697 3744 
Q 697 4328 969 4595 
Q 1241 4863 1831 4863 
L 2375 4863 
z
" transform="scale(0.015625)"/>
       <path id="DejaVuSans-46" d="M 628 4666 
L 3309 4666 
L 3309 4134 
L 1259 4134 
L 1259 2759 
L 3109 2759 
L 3109 2228 
L 1259 2228 
L 1259 0 
L 628 0 
L 628 4666 
z
" transform="scale(0.015625)"/>
       <path id="DejaVuSans-45" d="M 628 4666 
L 3578 4666 
L 3578 4134 
L 1259 4134 
L 1259 2753 
L 3481 2753 
L 3481 2222 
L 1259 2222 
L 1259 531 
L 3634 531 
L 3634 0 
L 628 0 
L 628 4666 
z
" transform="scale(0.015625)"/>
       <path id="DejaVuSans-76" d="M 191 3500 
L 800 3500 
L 1894 563 
L 2988 3500 
L 3597 3500 
L 2284 0 
L 1503 0 
L 191 3500 
z
" transform="scale(0.015625)"/>
       <path id="DejaVuSans-61" d="M 2194 1759 
Q 1497 1759 1228 1600 
Q 959 1441 959 1056 
Q 959 750 1161 570 
Q 1363 391 1709 391 
Q 2188 391 2477 730 
Q 2766 1069 2766 1631 
L 2766 1759 
L 2194 1759 
z
M 3341 1997 
L 3341 0 
L 2766 0 
L 2766 531 
Q 2569 213 2275 61 
Q 1981 -91 1556 -91 
Q 1019 -91 701 211 
Q 384 513 384 1019 
Q 384 1609 779 1909 
Q 1175 2209 1959 2209 
L 2766 2209 
L 2766 2266 
Q 2766 2663 2505 2880 
Q 2244 3097 1772 3097 
Q 1472 3097 1187 3025 
Q 903 2953 641 2809 
L 641 3341 
Q 956 3463 1253 3523 
Q 1550 3584 1831 3584 
Q 2591 3584 2966 3190 
Q 3341 2797 3341 1997 
z
" transform="scale(0.015625)"/>
       <path id="DejaVuSans-73" d="M 2834 3397 
L 2834 2853 
Q 2591 2978 2328 3040 
Q 2066 3103 1784 3103 
Q 1356 3103 1142 2972 
Q 928 2841 928 2578 
Q 928 2378 1081 2264 
Q 1234 2150 1697 2047 
L 1894 2003 
Q 2506 1872 2764 1633 
Q 3022 1394 3022 966 
Q 3022 478 2636 193 
Q 2250 -91 1575 -91 
Q 1294 -91 989 -36 
Q 684 19 347 128 
L 347 722 
Q 666 556 975 473 
Q 1284 391 1588 391 
Q 1994 391 2212 530 
Q 2431 669 2431 922 
Q 2431 1156 2273 1281 
Q 2116 1406 1581 1522 
L 1381 1569 
Q 847 1681 609 1914 
Q 372 2147 372 2553 
Q 372 3047 722 3315 
Q 1072 3584 1716 3584 
Q 2034 3584 2315 3537 
Q 2597 3491 2834 3397 
z
" transform="scale(0.015625)"/>
       <path id="DejaVuSans-2f" d="M 1625 4666 
L 2156 4666 
L 531 -594 
L 0 -594 
L 1625 4666 
z
" transform="scale(0.015625)"/>
       <path id="DejaVuSans-44" d="M 1259 4147 
L 1259 519 
L 2022 519 
Q 2988 519 3436 956 
Q 3884 1394 3884 2338 
Q 3884 3275 3436 3711 
Q 2988 4147 2022 4147 
L 1259 4147 
z
M 628 4666 
L 1925 4666 
Q 3281 4666 3915 4102 
Q 4550 3538 4550 2338 
Q 4550 1131 3912 565 
Q 3275 0 1925 0 
L 628 0 
L 628 4666 
z
" transform="scale(0.015625)"/>
       <path id="DejaVuSans-49" d="M 628 4666 
L 1259 4666 
L 1259 0 
L 628 0 
L 628 4666 
z
" transform="scale(0.015625)"/>
       <path id="DejaVuSans-4d" d="M 628 4666 
L 1569 4666 
L 2759 1491 
L 3956 4666 
L 4897 4666 
L 4897 0 
L 4281 0 
L 4281 4097 
L 3078 897 
L 2444 897 
L 1241 4097 
L 1241 0 
L 628 0 
L 628 4666 
z
" transform="scale(0.015625)"/>
      </defs>
      <use xlink:href="#DejaVuSans-6c"/>
      <use xlink:href="#DejaVuSans-6f" x="27.783203"/>
      <use xlink:href="#DejaVuSans-67" x="88.964844"/>
      <use xlink:href="#DejaVuSans-31" x="152.441406"/>
      <use xlink:href="#DejaVuSans-30" x="216.064453"/>
      <use xlink:href="#DejaVuSans-20" x="279.6875"/>
      <use xlink:href="#DejaVuSans-6f" x="311.474609"/>
      <use xlink:href="#DejaVuSans-66" x="372.65625"/>
      <use xlink:href="#DejaVuSans-20" x="407.861328"/>
      <use xlink:href="#DejaVuSans-46" x="439.648438"/>
      <use xlink:href="#DejaVuSans-45" x="497.167969"/>
      <use xlink:href="#DejaVuSans-76" x="560.351562"/>
      <use xlink:href="#DejaVuSans-61" x="619.53125"/>
      <use xlink:href="#DejaVuSans-6c" x="680.810547"/>
      <use xlink:href="#DejaVuSans-73" x="708.59375"/>
      <use xlink:href="#DejaVuSans-20" x="760.693359"/>
      <use xlink:href="#DejaVuSans-2f" x="792.480469"/>
      <use xlink:href="#DejaVuSans-20" x="826.171875"/>
      <use xlink:href="#DejaVuSans-44" x="857.958984"/>
      <use xlink:href="#DejaVuSans-49" x="934.960938"/>
      <use xlink:href="#DejaVuSans-4d" x="964.453125"/>
     </g>
    </g>
   </g>
   <g id="matplotlib.axis_2">
    <g id="ytick_1">
     <g id="line2d_37">
      <path d="M 62.208 293.76 
L 460.8 293.76 
" clip-path="url(#p587f5e0340)" style="fill: none; stroke: #b0b0b0; stroke-width: 0.8; stroke-linecap: square"/>
     </g>
     <g id="line2d_38">
      <defs>
       <path id="m5365baec45" d="M 0 0 
L -3.5 0 
" style="stroke: #000000; stroke-width: 0.8"/>
      </defs>
      <g>
       <use xlink:href="#m5365baec45" x="62.208" y="293.76" style="stroke: #000000; stroke-width: 0.8"/>
      </g>
     </g>
     <g id="text_5">
      <!-- 0.0 -->
      <g transform="translate(29.763 299.83875)scale(0.16 -0.16)">
       <defs>
        <path id="DejaVuSans-2e" d="M 684 794 
L 1344 794 
L 1344 0 
L 684 0 
L 684 794 
z
" transform="scale(0.015625)"/>
       </defs>
       <use xlink:href="#DejaVuSans-30"/>
       <use xlink:href="#DejaVuSans-2e" x="63.623047"/>
       <use xlink:href="#DejaVuSans-30" x="95.410156"/>
      </g>
     </g>
    </g>
    <g id="ytick_2">
     <g id="line2d_39">
      <path d="M 62.208 236.274059 
L 460.8 236.274059 
" clip-path="url(#p587f5e0340)" style="fill: none; stroke: #b0b0b0; stroke-width: 0.8; stroke-linecap: square"/>
     </g>
     <g id="line2d_40">
      <g>
       <use xlink:href="#m5365baec45" x="62.208" y="236.274059" style="stroke: #000000; stroke-width: 0.8"/>
      </g>
     </g>
     <g id="text_6">
      <!-- 0.2 -->
      <g transform="translate(29.763 242.352809)scale(0.16 -0.16)">
       <defs>
        <path id="DejaVuSans-32" d="M 1228 531 
L 3431 531 
L 3431 0 
L 469 0 
L 469 531 
Q 828 903 1448 1529 
Q 2069 2156 2228 2338 
Q 2531 2678 2651 2914 
Q 2772 3150 2772 3378 
Q 2772 3750 2511 3984 
Q 2250 4219 1831 4219 
Q 1534 4219 1204 4116 
Q 875 4013 500 3803 
L 500 4441 
Q 881 4594 1212 4672 
Q 1544 4750 1819 4750 
Q 2544 4750 2975 4387 
Q 3406 4025 3406 3419 
Q 3406 3131 3298 2873 
Q 3191 2616 2906 2266 
Q 2828 2175 2409 1742 
Q 1991 1309 1228 531 
z
" transform="scale(0.015625)"/>
       </defs>
       <use xlink:href="#DejaVuSans-30"/>
       <use xlink:href="#DejaVuSans-2e" x="63.623047"/>
       <use xlink:href="#DejaVuSans-32" x="95.410156"/>
      </g>
     </g>
    </g>
    <g id="ytick_3">
     <g id="line2d_41">
      <path d="M 62.208 178.788119 
L 460.8 178.788119 
" clip-path="url(#p587f5e0340)" style="fill: none; stroke: #b0b0b0; stroke-width: 0.8; stroke-linecap: square"/>
     </g>
     <g id="line2d_42">
      <g>
       <use xlink:href="#m5365baec45" x="62.208" y="178.788119" style="stroke: #000000; stroke-width: 0.8"/>
      </g>
     </g>
     <g id="text_7">
      <!-- 0.4 -->
      <g transform="translate(29.763 184.866869)scale(0.16 -0.16)">
       <defs>
        <path id="DejaVuSans-34" d="M 2419 4116 
L 825 1625 
L 2419 1625 
L 2419 4116 
z
M 2253 4666 
L 3047 4666 
L 3047 1625 
L 3713 1625 
L 3713 1100 
L 3047 1100 
L 3047 0 
L 2419 0 
L 2419 1100 
L 313 1100 
L 313 1709 
L 2253 4666 
z
" transform="scale(0.015625)"/>
       </defs>
       <use xlink:href="#DejaVuSans-30"/>
       <use xlink:href="#DejaVuSans-2e" x="63.623047"/>
       <use xlink:href="#DejaVuSans-34" x="95.410156"/>
      </g>
     </g>
    </g>
    <g id="ytick_4">
     <g id="line2d_43">
      <path d="M 62.208 121.302178 
L 460.8 121.302178 
" clip-path="url(#p587f5e0340)" style="fill: none; stroke: #b0b0b0; stroke-width: 0.8; stroke-linecap: square"/>
     </g>
     <g id="line2d_44">
      <g>
       <use xlink:href="#m5365baec45" x="62.208" y="121.302178" style="stroke: #000000; stroke-width: 0.8"/>
      </g>
     </g>
     <g id="text_8">
      <!-- 0.6 -->
      <g transform="translate(29.763 127.380928)scale(0.16 -0.16)">
       <defs>
        <path id="DejaVuSans-36" d="M 2113 2584 
Q 1688 2584 1439 2293 
Q 1191 2003 1191 1497 
Q 1191 994 1439 701 
Q 1688 409 2113 409 
Q 2538 409 2786 701 
Q 3034 994 3034 1497 
Q 3034 2003 2786 2293 
Q 2538 2584 2113 2584 
z
M 3366 4563 
L 3366 3988 
Q 3128 4100 2886 4159 
Q 2644 4219 2406 4219 
Q 1781 4219 1451 3797 
Q 1122 3375 1075 2522 
Q 1259 2794 1537 2939 
Q 1816 3084 2150 3084 
Q 2853 3084 3261 2657 
Q 3669 2231 3669 1497 
Q 3669 778 3244 343 
Q 2819 -91 2113 -91 
Q 1303 -91 875 529 
Q 447 1150 447 2328 
Q 447 3434 972 4092 
Q 1497 4750 2381 4750 
Q 2619 4750 2861 4703 
Q 3103 4656 3366 4563 
z
" transform="scale(0.015625)"/>
       </defs>
       <use xlink:href="#DejaVuSans-30"/>
       <use xlink:href="#DejaVuSans-2e" x="63.623047"/>
       <use xlink:href="#DejaVuSans-36" x="95.410156"/>
      </g>
     </g>
    </g>
    <g id="ytick_5">
     <g id="line2d_45">
      <path d="M 62.208 63.816238 
L 460.8 63.816238 
" clip-path="url(#p587f5e0340)" style="fill: none; stroke: #b0b0b0; stroke-width: 0.8; stroke-linecap: square"/>
     </g>
     <g id="line2d_46">
      <g>
       <use xlink:href="#m5365baec45" x="62.208" y="63.816238" style="stroke: #000000; stroke-width: 0.8"/>
      </g>
     </g>
     <g id="text_9">
      <!-- 0.8 -->
      <g transform="translate(29.763 69.894988)scale(0.16 -0.16)">
       <defs>
        <path id="DejaVuSans-38" d="M 2034 2216 
Q 1584 2216 1326 1975 
Q 1069 1734 1069 1313 
Q 1069 891 1326 650 
Q 1584 409 2034 409 
Q 2484 409 2743 651 
Q 3003 894 3003 1313 
Q 3003 1734 2745 1975 
Q 2488 2216 2034 2216 
z
M 1403 2484 
Q 997 2584 770 2862 
Q 544 3141 544 3541 
Q 544 4100 942 4425 
Q 1341 4750 2034 4750 
Q 2731 4750 3128 4425 
Q 3525 4100 3525 3541 
Q 3525 3141 3298 2862 
Q 3072 2584 2669 2484 
Q 3125 2378 3379 2068 
Q 3634 1759 3634 1313 
Q 3634 634 3220 271 
Q 2806 -91 2034 -91 
Q 1263 -91 848 271 
Q 434 634 434 1313 
Q 434 1759 690 2068 
Q 947 2378 1403 2484 
z
M 1172 3481 
Q 1172 3119 1398 2916 
Q 1625 2713 2034 2713 
Q 2441 2713 2670 2916 
Q 2900 3119 2900 3481 
Q 2900 3844 2670 4047 
Q 2441 4250 2034 4250 
Q 1625 4250 1398 4047 
Q 1172 3844 1172 3481 
z
" transform="scale(0.015625)"/>
       </defs>
       <use xlink:href="#DejaVuSans-30"/>
       <use xlink:href="#DejaVuSans-2e" x="63.623047"/>
       <use xlink:href="#DejaVuSans-38" x="95.410156"/>
      </g>
     </g>
    </g>
    <g id="ytick_6">
     <g id="line2d_47">
      <path d="M 62.208 6.330297 
L 460.8 6.330297 
" clip-path="url(#p587f5e0340)" style="fill: none; stroke: #b0b0b0; stroke-width: 0.8; stroke-linecap: square"/>
     </g>
     <g id="line2d_48">
      <g>
       <use xlink:href="#m5365baec45" x="62.208" y="6.330297" style="stroke: #000000; stroke-width: 0.8"/>
      </g>
     </g>
     <g id="text_10">
      <!-- 1.0 -->
      <g transform="translate(29.763 12.409047)scale(0.16 -0.16)">
       <use xlink:href="#DejaVuSans-31"/>
       <use xlink:href="#DejaVuSans-2e" x="63.623047"/>
       <use xlink:href="#DejaVuSans-30" x="95.410156"/>
      </g>
     </g>
    </g>
    <g id="text_11">
     <!-- proportion of trials -->
     <g transform="translate(21.603625 241.61425)rotate(-90)scale(0.2 -0.2)">
      <defs>
       <path id="DejaVuSans-70" d="M 1159 525 
L 1159 -1331 
L 581 -1331 
L 581 3500 
L 1159 3500 
L 1159 2969 
Q 1341 3281 1617 3432 
Q 1894 3584 2278 3584 
Q 2916 3584 3314 3078 
Q 3713 2572 3713 1747 
Q 3713 922 3314 415 
Q 2916 -91 2278 -91 
Q 1894 -91 1617 61 
Q 1341 213 1159 525 
z
M 3116 1747 
Q 3116 2381 2855 2742 
Q 2594 3103 2138 3103 
Q 1681 3103 1420 2742 
Q 1159 2381 1159 1747 
Q 1159 1113 1420 752 
Q 1681 391 2138 391 
Q 2594 391 2855 752 
Q 3116 1113 3116 1747 
z
" transform="scale(0.015625)"/>
       <path id="DejaVuSans-72" d="M 2631 2963 
Q 2534 3019 2420 3045 
Q 2306 3072 2169 3072 
Q 1681 3072 1420 2755 
Q 1159 2438 1159 1844 
L 1159 0 
L 581 0 
L 581 3500 
L 1159 3500 
L 1159 2956 
Q 1341 3275 1631 3429 
Q 1922 3584 2338 3584 
Q 2397 3584 2469 3576 
Q 2541 3569 2628 3553 
L 2631 2963 
z
" transform="scale(0.015625)"/>
       <path id="DejaVuSans-74" d="M 1172 4494 
L 1172 3500 
L 2356 3500 
L 2356 3053 
L 1172 3053 
L 1172 1153 
Q 1172 725 1289 603 
Q 1406 481 1766 481 
L 2356 481 
L 2356 0 
L 1766 0 
Q 1100 0 847 248 
Q 594 497 594 1153 
L 594 3053 
L 172 3053 
L 172 3500 
L 594 3500 
L 594 4494 
L 1172 4494 
z
" transform="scale(0.015625)"/>
       <path id="DejaVuSans-69" d="M 603 3500 
L 1178 3500 
L 1178 0 
L 603 0 
L 603 3500 
z
M 603 4863 
L 1178 4863 
L 1178 4134 
L 603 4134 
L 603 4863 
z
" transform="scale(0.015625)"/>
       <path id="DejaVuSans-6e" d="M 3513 2113 
L 3513 0 
L 2938 0 
L 2938 2094 
Q 2938 2591 2744 2837 
Q 2550 3084 2163 3084 
Q 1697 3084 1428 2787 
Q 1159 2491 1159 1978 
L 1159 0 
L 581 0 
L 581 3500 
L 1159 3500 
L 1159 2956 
Q 1366 3272 1645 3428 
Q 1925 3584 2291 3584 
Q 2894 3584 3203 3211 
Q 3513 2838 3513 2113 
z
" transform="scale(0.015625)"/>
      </defs>
      <use xlink:href="#DejaVuSans-70"/>
      <use xlink:href="#DejaVuSans-72" x="63.476562"/>
      <use xlink:href="#DejaVuSans-6f" x="102.339844"/>
      <use xlink:href="#DejaVuSans-70" x="163.521484"/>
      <use xlink:href="#DejaVuSans-6f" x="226.998047"/>
      <use xlink:href="#DejaVuSans-72" x="288.179688"/>
      <use xlink:href="#DejaVuSans-74" x="329.292969"/>
      <use xlink:href="#DejaVuSans-69" x="368.501953"/>
      <use xlink:href="#DejaVuSans-6f" x="396.285156"/>
      <use xlink:href="#DejaVuSans-6e" x="457.466797"/>
      <use xlink:href="#DejaVuSans-20" x="520.845703"/>
      <use xlink:href="#DejaVuSans-6f" x="552.632812"/>
      <use xlink:href="#DejaVuSans-66" x="613.814453"/>
      <use xlink:href="#DejaVuSans-20" x="649.019531"/>
      <use xlink:href="#DejaVuSans-74" x="680.806641"/>
      <use xlink:href="#DejaVuSans-72" x="720.015625"/>
      <use xlink:href="#DejaVuSans-69" x="761.128906"/>
      <use xlink:href="#DejaVuSans-61" x="788.912109"/>
      <use xlink:href="#DejaVuSans-6c" x="850.191406"/>
      <use xlink:href="#DejaVuSans-73" x="877.974609"/>
     </g>
    </g>
   </g>
   <g id="line2d_49">
    <path d="M 54.85037 293.76 
L 54.85037 289.927604 
L 62.208 289.927604 
L 62.208 286.095208 
L 68.219621 286.095208 
L 68.219621 282.262812 
L 73.302374 282.262812 
L 73.302374 278.430416 
L 73.302374 278.430416 
L 73.302374 274.59802 
L 73.302374 274.59802 
L 73.302374 270.765624 
L 77.705256 270.765624 
L 77.705256 266.933228 
L 88.205513 266.933228 
L 88.205513 263.100832 
L 88.205513 263.100832 
L 88.205513 259.268436 
L 91.074507 259.268436 
L 91.074507 255.43604 
L 117.813008 255.43604 
L 117.813008 251.603644 
L 124.429649 251.603644 
L 124.429649 247.771248 
L 128.202059 247.771248 
L 128.202059 243.938851 
L 136.090091 243.938851 
L 136.090091 240.106455 
L 140.051565 240.106455 
L 140.051565 236.274059 
L 239.014847 236.274059 
L 239.014847 232.441663 
L 248.001831 232.441663 
L 248.001831 228.609267 
L 250.056154 228.609267 
L 250.056154 224.776871 
L 250.691738 224.776871 
L 250.691738 220.944475 
L 254.423056 220.944475 
L 254.423056 217.112079 
L 263.923225 217.112079 
L 263.923225 213.279683 
L 266.047597 213.279683 
L 266.047597 209.447287 
L 266.588144 209.447287 
L 266.588144 205.614891 
L 270.070198 205.614891 
L 270.070198 201.782495 
L 273.394324 201.782495 
L 273.394324 197.950099 
L 273.568323 197.950099 
L 273.568323 194.117703 
L 274.010048 194.117703 
L 274.010048 190.285307 
L 275.413796 190.285307 
L 275.413796 186.452911 
L 277.653784 186.452911 
L 277.653784 182.620515 
L 278.987141 182.620515 
L 278.987141 178.788119 
L 279.371399 178.788119 
L 279.371399 174.955723 
L 279.561862 174.955723 
L 279.561862 171.123327 
L 280.550714 171.123327 
L 280.550714 167.290931 
L 280.977974 167.290931 
L 280.977974 163.458535 
L 280.986636 163.458535 
L 280.986636 159.626139 
L 281.858436 159.626139 
L 281.858436 155.793743 
L 284.74008 155.793743 
L 284.74008 151.961347 
L 285.797302 151.961347 
L 285.797302 148.12895 
L 287.081874 148.12895 
L 287.081874 144.296554 
L 287.927646 144.296554 
L 287.927646 140.464158 
L 289.716662 140.464158 
L 289.716662 136.631762 
L 291.242694 136.631762 
L 291.242694 132.799366 
L 295.398755 132.799366 
L 295.398755 128.96697 
L 302.280815 128.96697 
L 302.280815 125.134574 
L 303.105846 125.134574 
L 303.105846 121.302178 
L 318.395986 121.302178 
L 318.395986 117.469782 
L 322.136013 117.469782 
L 322.136013 113.637386 
L 325.774219 113.637386 
L 325.774219 109.80499 
L 328.595862 109.80499 
L 328.595862 105.972594 
L 331.441512 105.972594 
L 331.441512 102.140198 
L 332.674449 102.140198 
L 332.674449 98.307802 
L 334.639492 98.307802 
L 334.639492 94.475406 
L 336.532568 94.475406 
L 336.532568 90.64301 
L 348.416889 90.64301 
L 348.416889 86.810614 
L 360.085388 86.810614 
L 360.085388 82.978218 
L 364.114807 82.978218 
L 364.114807 79.145822 
L 379.730011 79.145822 
L 379.730011 75.313426 
L 384.328792 75.313426 
L 384.328792 71.48103 
L 422.100935 71.48103 
L 422.100935 67.648634 
L 423.850495 67.648634 
L 423.850495 63.816238 
L 427.021634 63.816238 
L 427.021634 59.983842 
L 441.570803 59.983842 
L 441.570803 56.151446 
L 441.570803 56.151446 
L 441.570803 56.151446 
L 460.8 56.151446 
" clip-path="url(#p587f5e0340)" style="fill: none; stroke: #000000; stroke-width: 1.5; stroke-linecap: square"/>
   </g>
   <g id="line2d_50">
    <defs>
     <path id="mdfd04f2484" d="M 0 14.142136 
L 8.485281 0 
L 0 -14.142136 
L -8.485281 0 
z
" style="stroke: #000000; stroke-width: 1.5; stroke-linejoin: miter"/>
    </defs>
    <g clip-path="url(#p587f5e0340)">
     <use xlink:href="#mdfd04f2484" x="128.202059" y="247.771248" style="fill-opacity: 0; stroke: #000000; stroke-width: 1.5; stroke-linejoin: miter"/>
     <use xlink:href="#mdfd04f2484" x="140.051565" y="240.106455" style="fill-opacity: 0; stroke: #000000; stroke-width: 1.5; stroke-linejoin: miter"/>
     <use xlink:href="#mdfd04f2484" x="274.010048" y="194.117703" style="fill-opacity: 0; stroke: #000000; stroke-width: 1.5; stroke-linejoin: miter"/>
     <use xlink:href="#mdfd04f2484" x="291.242694" y="136.631762" style="fill-opacity: 0; stroke: #000000; stroke-width: 1.5; stroke-linejoin: miter"/>
     <use xlink:href="#mdfd04f2484" x="334.639492" y="98.307802" style="fill-opacity: 0; stroke: #000000; stroke-width: 1.5; stroke-linejoin: miter"/>
     <use xlink:href="#mdfd04f2484" x="379.730011" y="79.145822" style="fill-opacity: 0; stroke: #000000; stroke-width: 1.5; stroke-linejoin: miter"/>
     <use xlink:href="#mdfd04f2484" x="441.570803" y="59.983842" style="fill-opacity: 0; stroke: #000000; stroke-width: 1.5; stroke-linejoin: miter"/>
     <use xlink:href="#mdfd04f2484" x="441.570803" y="56.151446" style="fill-opacity: 0; stroke: #000000; stroke-width: 1.5; stroke-linejoin: miter"/>
    </g>
   </g>
   <g id="line2d_51">
    <path clip-path="url(#p587f5e0340)" style="fill: none; stroke: #000000; stroke-width: 1.5; stroke-linecap: square"/>
    <g clip-path="url(#p587f5e0340)">
     <use xlink:href="#mdfd04f2484" x="-1" y="581.189703" style="fill-opacity: 0; stroke: #000000; stroke-width: 1.5; stroke-linejoin: miter"/>
     <use xlink:href="#mdfd04f2484" x="460.8" y="581.189703" style="fill-opacity: 0; stroke: #000000; stroke-width: 1.5; stroke-linejoin: miter"/>
    </g>
   </g>
   <g id="line2d_52">
    <path d="M 31.995485 293.76 
L 31.995485 289.927604 
L 45.364736 289.927604 
L 45.364736 286.095208 
L 68.219621 286.095208 
L 68.219621 278.430416 
L 88.205513 278.430416 
L 88.205513 274.59802 
L 91.074507 274.59802 
L 91.074507 270.765624 
L 96.15726 270.765624 
L 96.15726 266.933228 
L 102.559094 266.933228 
L 102.559094 263.100832 
L 109.526511 263.100832 
L 109.526511 259.268436 
L 116.56861 259.268436 
L 116.56861 255.43604 
L 117.813008 255.43604 
L 117.813008 251.603644 
L 140.667894 251.603644 
L 140.667894 247.771248 
L 145.750647 247.771248 
L 145.750647 243.938851 
L 149.22466 243.938851 
L 149.22466 240.106455 
L 156.770169 240.106455 
L 156.770169 236.274059 
L 211.015288 236.274059 
L 211.015288 232.441663 
L 227.068225 232.441663 
L 227.068225 228.609267 
L 251.336595 228.609267 
L 251.336595 224.776871 
L 262.769805 224.776871 
L 262.769805 220.944475 
L 263.143903 220.944475 
L 263.143903 217.112079 
L 263.850486 217.112079 
L 263.850486 213.279683 
L 266.142834 213.279683 
L 266.142834 209.447287 
L 266.775261 209.447287 
L 266.775261 205.614891 
L 267.461116 205.614891 
L 267.461116 201.782495 
L 273.892116 201.782495 
L 273.892116 197.950099 
L 274.095552 197.950099 
L 274.095552 194.117703 
L 281.399767 194.117703 
L 281.399767 190.285307 
L 285.101364 190.285307 
L 285.101364 186.452911 
L 293.415881 186.452911 
L 293.415881 182.620515 
L 294.115389 182.620515 
L 294.115389 178.788119 
L 296.123579 178.788119 
L 296.123579 174.955723 
L 298.268681 174.955723 
L 298.268681 171.123327 
L 298.732052 171.123327 
L 298.732052 167.290931 
L 301.722176 167.290931 
L 301.722176 163.458535 
L 307.241399 163.458535 
L 307.350593 155.793743 
L 309.904347 155.793743 
L 309.904347 151.961347 
L 311.476864 151.961347 
L 311.476864 148.12895 
L 311.590037 148.12895 
L 311.590037 144.296554 
L 313.223059 144.296554 
L 313.223059 140.464158 
L 313.740287 140.464158 
L 313.740287 136.631762 
L 320.04992 136.631762 
L 320.04992 132.799366 
L 321.072247 132.799366 
L 321.072247 128.96697 
L 323.229129 128.96697 
L 323.229129 125.134574 
L 327.99353 125.134574 
L 327.99353 121.302178 
L 330.339526 121.302178 
L 330.339526 117.469782 
L 340.545721 117.469782 
L 340.545721 113.637386 
L 342.97096 113.637386 
L 342.97096 109.80499 
L 353.183746 109.80499 
L 353.183746 105.972594 
L 355.087474 105.972594 
L 355.087474 102.140198 
L 360.706392 102.140198 
L 360.706392 98.307802 
L 367.316296 98.307802 
L 367.316296 94.475406 
L 369.345889 94.475406 
L 369.345889 90.64301 
L 371.582929 90.64301 
L 371.582929 86.810614 
L 373.897371 86.810614 
L 373.897371 82.978218 
L 375.140696 82.978218 
L 375.140696 79.145822 
L 378.74484 79.145822 
L 378.74484 75.313426 
L 384.792694 75.313426 
L 384.792694 71.48103 
L 385.75774 71.48103 
L 385.75774 67.648634 
L 386.140056 67.648634 
L 386.140056 63.816238 
L 388.534683 63.816238 
L 388.534683 59.983842 
L 388.677095 59.983842 
L 388.677095 56.151446 
L 396.494893 56.151446 
L 396.494893 52.31905 
L 398.497695 52.31905 
L 398.497695 48.486653 
L 403.264504 48.486653 
L 403.264504 44.654257 
L 406.728833 44.654257 
L 406.728833 40.821861 
L 410.076465 40.821861 
L 410.076465 36.989465 
L 415.491995 36.989465 
L 415.491995 33.157069 
L 416.927575 33.157069 
L 416.927575 29.324673 
L 422.749887 29.324673 
L 422.749887 25.492277 
L 425.587598 25.492277 
L 425.587598 21.659881 
L 434.179336 21.659881 
L 434.179336 17.827485 
L 434.179336 17.827485 
L 460.8 17.827485 
L 460.8 17.827485 
" clip-path="url(#p587f5e0340)" style="fill: none; stroke: #000000; stroke-width: 1.5; stroke-linecap: square"/>
   </g>
   <g id="line2d_53">
    <defs>
     <path id="m539ece253d" d="M 0 7.5 
C 1.989023 7.5 3.896849 6.709753 5.303301 5.303301 
C 6.709753 3.896849 7.5 1.989023 7.5 0 
C 7.5 -1.989023 6.709753 -3.896849 5.303301 -5.303301 
C 3.896849 -6.709753 1.989023 -7.5 0 -7.5 
C -1.989023 -7.5 -3.896849 -6.709753 -5.303301 -5.303301 
C -6.709753 -3.896849 -7.5 -1.989023 -7.5 0 
C -7.5 1.989023 -6.709753 3.896849 -5.303301 5.303301 
C -3.896849 6.709753 -1.989023 7.5 0 7.5 
z
" style="stroke: #000000; stroke-width: 1.5"/>
    </defs>
    <g clip-path="url(#p587f5e0340)">
     <use xlink:href="#m539ece253d" x="96.15726" y="270.765624" style="fill-opacity: 0; stroke: #000000; stroke-width: 1.5"/>
     <use xlink:href="#m539ece253d" x="145.750647" y="247.771248" style="fill-opacity: 0; stroke: #000000; stroke-width: 1.5"/>
     <use xlink:href="#m539ece253d" x="211.015288" y="236.274059" style="fill-opacity: 0; stroke: #000000; stroke-width: 1.5"/>
     <use xlink:href="#m539ece253d" x="281.399767" y="194.117703" style="fill-opacity: 0; stroke: #000000; stroke-width: 1.5"/>
     <use xlink:href="#m539ece253d" x="330.339526" y="121.302178" style="fill-opacity: 0; stroke: #000000; stroke-width: 1.5"/>
     <use xlink:href="#m539ece253d" x="385.75774" y="71.48103" style="fill-opacity: 0; stroke: #000000; stroke-width: 1.5"/>
     <use xlink:href="#m539ece253d" x="434.179336" y="21.659881" style="fill-opacity: 0; stroke: #000000; stroke-width: 1.5"/>
     <use xlink:href="#m539ece253d" x="434.179336" y="17.827485" style="fill-opacity: 0; stroke: #000000; stroke-width: 1.5"/>
    </g>
   </g>
   <g id="line2d_54">
    <path clip-path="url(#p587f5e0340)" style="fill: none; stroke: #000000; stroke-width: 1.5; stroke-linecap: square"/>
   </g>
   <g id="line2d_55">
    <path d="M 216.529062 293.76 
L 216.529062 289.927604 
L 223.505217 289.927604 
L 223.505217 286.095208 
L 226.710795 286.095208 
L 226.710795 282.262812 
L 227.64091 282.262812 
L 227.64091 278.430416 
L 227.901909 278.430416 
L 227.901909 274.59802 
L 231.197797 274.59802 
L 231.197797 270.765624 
L 231.896067 270.765624 
L 231.896067 266.933228 
L 232.163672 266.933228 
L 232.163672 263.100832 
L 232.617431 263.100832 
L 232.617431 259.268436 
L 232.617431 259.268436 
L 232.617431 255.43604 
L 232.692454 255.43604 
L 232.692454 251.603644 
L 234.33686 251.603644 
L 234.33686 247.771248 
L 238.983902 247.771248 
L 238.983902 243.938851 
L 240.318762 243.938851 
L 240.318762 240.106455 
L 242.140599 240.106455 
L 242.140599 236.274059 
L 293.386163 236.274059 
L 293.386163 232.441663 
L 293.469307 232.441663 
L 293.469307 228.609267 
L 293.522647 228.609267 
L 293.522647 224.776871 
L 294.868655 224.776871 
L 294.868655 220.944475 
L 354.587614 220.944475 
L 354.587614 217.112079 
L 364.586149 217.112079 
L 364.586149 213.279683 
L 364.688235 213.279683 
L 364.688235 209.447287 
L 373.014917 209.447287 
L 373.014917 205.614891 
L 376.49079 205.614891 
L 376.49079 201.782495 
L 381.078829 201.782495 
L 381.078829 197.950099 
L 381.173983 197.950099 
L 381.173983 194.117703 
L 385.334752 194.117703 
L 385.334752 190.285307 
L 385.842843 190.285307 
L 385.842843 186.452911 
L 390.501778 186.452911 
L 390.501778 182.620515 
L 395.419018 182.620515 
L 395.419018 178.788119 
L 395.57917 178.788119 
L 395.57917 174.955723 
L 397.711363 174.955723 
L 397.711363 171.123327 
L 402.417577 171.123327 
L 402.417577 167.290931 
L 406.820458 167.290931 
L 406.820458 163.458535 
L 406.820458 163.458535 
L 406.820458 163.458535 
L 460.8 163.458535 
" clip-path="url(#p587f5e0340)" style="fill: none; stroke: #00bfbf; stroke-width: 1.5; stroke-linecap: square"/>
   </g>
   <g id="line2d_56">
    <defs>
     <path id="mdfdfc085f4" d="M 0 14.142136 
L 8.485281 0 
L 0 -14.142136 
L -8.485281 0 
z
" style="stroke: #00bfbf; stroke-width: 1.5; stroke-linejoin: miter"/>
    </defs>
    <g clip-path="url(#p587f5e0340)">
     <use xlink:href="#mdfdfc085f4" x="240.318762" y="243.938851" style="fill-opacity: 0; stroke: #00bfbf; stroke-width: 1.5; stroke-linejoin: miter"/>
     <use xlink:href="#mdfdfc085f4" x="293.522647" y="228.609267" style="fill-opacity: 0; stroke: #00bfbf; stroke-width: 1.5; stroke-linejoin: miter"/>
     <use xlink:href="#mdfdfc085f4" x="376.49079" y="205.614891" style="fill-opacity: 0; stroke: #00bfbf; stroke-width: 1.5; stroke-linejoin: miter"/>
     <use xlink:href="#mdfdfc085f4" x="406.820458" y="167.290931" style="fill-opacity: 0; stroke: #00bfbf; stroke-width: 1.5; stroke-linejoin: miter"/>
     <use xlink:href="#mdfdfc085f4" x="406.820458" y="163.458535" style="fill-opacity: 0; stroke: #00bfbf; stroke-width: 1.5; stroke-linejoin: miter"/>
    </g>
   </g>
   <g id="line2d_57">
    <path clip-path="url(#p587f5e0340)" style="fill: none; stroke: #00bfbf; stroke-width: 1.5; stroke-linecap: square"/>
    <g clip-path="url(#p587f5e0340)">
     <use xlink:href="#mdfdfc085f4" x="-1" y="581.189703" style="fill-opacity: 0; stroke: #00bfbf; stroke-width: 1.5; stroke-linejoin: miter"/>
     <use xlink:href="#mdfdfc085f4" x="460.8" y="581.189703" style="fill-opacity: 0; stroke: #00bfbf; stroke-width: 1.5; stroke-linejoin: miter"/>
    </g>
   </g>
   <g id="line2d_58">
    <path d="M 223.306586 293.76 
L 223.306586 289.927604 
L 224.62469 289.927604 
L 224.62469 286.095208 
L 224.672511 286.095208 
L 224.672511 282.262812 
L 225.799891 282.262812 
L 225.799891 278.430416 
L 238.200667 278.430416 
L 238.200667 274.59802 
L 242.698524 274.59802 
L 242.698524 270.765624 
L 246.086675 270.765624 
L 246.086675 266.933228 
L 247.263518 266.933228 
L 247.263518 263.100832 
L 247.860216 263.100832 
L 247.860216 259.268436 
L 249.475714 259.268436 
L 249.475714 255.43604 
L 250.254719 255.43604 
L 250.254719 251.603644 
L 252.135716 251.603644 
L 252.135716 247.771248 
L 254.18962 247.771248 
L 254.18962 243.938851 
L 255.415937 243.938851 
L 255.415937 240.106455 
L 256.761193 240.106455 
L 256.761193 236.274059 
L 324.352324 236.274059 
L 324.352324 232.441663 
L 325.903114 232.441663 
L 325.903114 228.609267 
L 337.446882 228.609267 
L 337.446882 224.776871 
L 350.559877 224.776871 
L 350.559877 220.944475 
L 361.622886 220.944475 
L 361.622886 217.112079 
L 364.463779 217.112079 
L 364.463779 213.279683 
L 380.463929 213.279683 
L 380.463929 209.447287 
L 380.853354 209.447287 
L 380.853354 205.614891 
L 383.408089 205.614891 
L 383.408089 201.782495 
L 386.346061 201.782495 
L 386.346061 197.950099 
L 387.419069 197.950099 
L 387.419069 194.117703 
L 391.985355 194.117703 
L 391.985355 190.285307 
L 392.236393 190.285307 
L 392.236393 186.452911 
L 392.595173 186.452911 
L 392.595173 182.620515 
L 393.111687 182.620515 
L 393.111687 178.788119 
L 397.023025 178.788119 
L 397.023025 174.955723 
L 399.236934 174.955723 
L 399.236934 171.123327 
L 400.000777 171.123327 
L 400.000777 167.290931 
L 400.661962 167.290931 
L 400.661962 163.458535 
L 401.780788 163.458535 
L 401.780788 159.626139 
L 404.379269 159.626139 
L 404.379269 155.793743 
L 406.984554 155.793743 
L 406.984554 151.961347 
L 411.737392 151.961347 
L 411.737392 148.12895 
L 413.3307 148.12895 
L 413.3307 144.296554 
L 413.774565 144.296554 
L 413.774565 140.464158 
L 415.262009 140.464158 
L 415.262009 136.631762 
L 425.838134 136.631762 
L 425.838134 132.799366 
L 428.584991 132.799366 
L 428.584991 128.96697 
L 438.545428 128.96697 
L 438.545428 125.134574 
L 441.030257 125.134574 
L 441.030257 121.302178 
L 441.030257 121.302178 
L 441.030257 121.302178 
L 460.8 121.302178 
" clip-path="url(#p587f5e0340)" style="fill: none; stroke: #00bfbf; stroke-width: 1.5; stroke-linecap: square"/>
   </g>
   <g id="line2d_59">
    <defs>
     <path id="med0cd78530" d="M 0 7.5 
C 1.989023 7.5 3.896849 6.709753 5.303301 5.303301 
C 6.709753 3.896849 7.5 1.989023 7.5 0 
C 7.5 -1.989023 6.709753 -3.896849 5.303301 -5.303301 
C 3.896849 -6.709753 1.989023 -7.5 0 -7.5 
C -1.989023 -7.5 -3.896849 -6.709753 -5.303301 -5.303301 
C -6.709753 -3.896849 -7.5 -1.989023 -7.5 0 
C -7.5 1.989023 -6.709753 3.896849 -5.303301 5.303301 
C -3.896849 6.709753 -1.989023 7.5 0 7.5 
z
" style="stroke: #00bfbf; stroke-width: 1.5"/>
    </defs>
    <g clip-path="url(#p587f5e0340)">
     <use xlink:href="#med0cd78530" x="255.415937" y="243.938851" style="fill-opacity: 0; stroke: #00bfbf; stroke-width: 1.5"/>
     <use xlink:href="#med0cd78530" x="361.622886" y="220.944475" style="fill-opacity: 0; stroke: #00bfbf; stroke-width: 1.5"/>
     <use xlink:href="#med0cd78530" x="399.236934" y="174.955723" style="fill-opacity: 0; stroke: #00bfbf; stroke-width: 1.5"/>
     <use xlink:href="#med0cd78530" x="441.030257" y="125.134574" style="fill-opacity: 0; stroke: #00bfbf; stroke-width: 1.5"/>
     <use xlink:href="#med0cd78530" x="441.030257" y="121.302178" style="fill-opacity: 0; stroke: #00bfbf; stroke-width: 1.5"/>
    </g>
   </g>
   <g id="line2d_60">
    <path clip-path="url(#p587f5e0340)" style="fill: none; stroke: #00bfbf; stroke-width: 1.5; stroke-linecap: square"/>
   </g>
   <g id="line2d_61">
    <path d="M 286.988151 293.76 
L 286.988151 289.927604 
L 291.883691 289.927604 
L 291.883691 286.095208 
L 293.746911 286.095208 
L 293.746911 282.262812 
L 295.638435 282.262812 
L 295.638435 278.430416 
L 295.920467 278.430416 
L 295.920467 274.59802 
L 308.723221 274.59802 
L 308.723221 270.765624 
L 310.574879 270.765624 
L 310.574879 266.933228 
L 312.96137 266.933228 
L 312.96137 263.100832 
L 314.132462 263.100832 
L 314.132462 259.268436 
L 314.782113 259.268436 
L 314.782113 255.43604 
L 323.464015 255.43604 
L 323.464015 251.603644 
L 324.065126 251.603644 
L 324.065126 247.771248 
L 328.045533 247.771248 
L 328.045533 243.938851 
L 330.8417 243.938851 
L 330.8417 240.106455 
L 336.548632 240.106455 
L 336.548632 236.274059 
L 405.787686 236.274059 
L 405.787686 232.441663 
L 408.726527 232.441663 
L 408.726527 228.609267 
L 411.112259 228.609267 
L 411.112259 224.776871 
L 412.804237 224.776871 
L 412.804237 220.944475 
L 412.831571 220.944475 
L 412.831571 217.112079 
L 414.195315 217.112079 
L 414.195315 213.279683 
L 414.749241 213.279683 
L 414.749241 209.447287 
L 415.371026 209.447287 
L 415.371026 205.614891 
L 417.42494 205.614891 
L 417.42494 201.782495 
L 420.939903 201.782495 
L 420.939903 197.950099 
L 423.029493 197.950099 
L 423.029493 194.117703 
L 423.294028 194.117703 
L 423.294028 190.285307 
L 430.272733 190.285307 
L 430.272733 186.452911 
L 430.463496 186.452911 
L 430.463496 182.620515 
L 437.168567 182.620515 
L 437.168567 178.788119 
L 437.168567 178.788119 
L 437.168567 178.788119 
L 460.8 178.788119 
" clip-path="url(#p587f5e0340)" style="fill: none; stroke: #bf00bf; stroke-width: 1.5; stroke-linecap: square"/>
   </g>
   <g id="line2d_62">
    <defs>
     <path id="mcfb538b327" d="M 0 14.142136 
L 8.485281 0 
L 0 -14.142136 
L -8.485281 0 
z
" style="stroke: #bf00bf; stroke-width: 1.5; stroke-linejoin: miter"/>
    </defs>
    <g clip-path="url(#p587f5e0340)">
     <use xlink:href="#mcfb538b327" x="330.8417" y="243.938851" style="fill-opacity: 0; stroke: #bf00bf; stroke-width: 1.5; stroke-linejoin: miter"/>
     <use xlink:href="#mcfb538b327" x="411.112259" y="228.609267" style="fill-opacity: 0; stroke: #bf00bf; stroke-width: 1.5; stroke-linejoin: miter"/>
     <use xlink:href="#mcfb538b327" x="437.168567" y="182.620515" style="fill-opacity: 0; stroke: #bf00bf; stroke-width: 1.5; stroke-linejoin: miter"/>
     <use xlink:href="#mcfb538b327" x="437.168567" y="178.788119" style="fill-opacity: 0; stroke: #bf00bf; stroke-width: 1.5; stroke-linejoin: miter"/>
    </g>
   </g>
   <g id="line2d_63">
    <path clip-path="url(#p587f5e0340)" style="fill: none; stroke: #bf00bf; stroke-width: 1.5; stroke-linecap: square"/>
    <g clip-path="url(#p587f5e0340)">
     <use xlink:href="#mcfb538b327" x="-1" y="581.189703" style="fill-opacity: 0; stroke: #bf00bf; stroke-width: 1.5; stroke-linejoin: miter"/>
     <use xlink:href="#mcfb538b327" x="460.8" y="581.189703" style="fill-opacity: 0; stroke: #bf00bf; stroke-width: 1.5; stroke-linejoin: miter"/>
    </g>
   </g>
   <g id="line2d_64">
    <path d="M 353.255426 293.76 
L 353.255426 289.927604 
L 366.473062 289.927604 
L 366.473062 286.095208 
L 367.567374 286.095208 
L 367.567374 282.262812 
L 372.927649 282.262812 
L 372.927649 278.430416 
L 373.770888 278.430416 
L 373.770888 274.59802 
L 376.238268 274.59802 
L 376.238268 270.765624 
L 376.45921 270.765624 
L 376.45921 266.933228 
L 376.696747 266.933228 
L 376.696747 263.100832 
L 376.742341 263.100832 
L 376.742341 259.268436 
L 377.434599 259.268436 
L 377.434599 255.43604 
L 377.56401 255.43604 
L 377.56401 251.603644 
L 377.656928 251.603644 
L 377.656928 247.771248 
L 379.896487 247.771248 
L 379.896487 243.938851 
L 381.558031 243.938851 
L 381.558031 240.106455 
L 383.703384 240.106455 
L 383.703384 236.274059 
L 419.887787 236.274059 
L 419.887787 232.441663 
L 420.202795 232.441663 
L 420.202795 228.609267 
L 422.423148 228.609267 
L 422.423148 224.776871 
L 424.819392 224.776871 
L 424.819392 220.944475 
L 425.1533 220.944475 
L 425.1533 217.112079 
L 425.70316 217.112079 
L 425.70316 213.279683 
L 431.104996 213.279683 
L 431.104996 209.447287 
L 432.733279 209.447287 
L 432.733279 205.614891 
L 434.218306 205.614891 
L 434.218306 201.782495 
L 435.349322 201.782495 
L 435.349322 197.950099 
L 440.133776 197.950099 
L 440.133776 194.117703 
L 441.420763 194.117703 
L 441.420763 190.285307 
L 441.803664 190.285307 
L 441.803664 186.452911 
L 441.803664 186.452911 
L 441.803664 186.452911 
L 460.8 186.452911 
" clip-path="url(#p587f5e0340)" style="fill: none; stroke: #bf00bf; stroke-width: 1.5; stroke-linecap: square"/>
   </g>
   <g id="line2d_65">
    <defs>
     <path id="mfac6e2ad95" d="M 0 7.5 
C 1.989023 7.5 3.896849 6.709753 5.303301 5.303301 
C 6.709753 3.896849 7.5 1.989023 7.5 0 
C 7.5 -1.989023 6.709753 -3.896849 5.303301 -5.303301 
C 3.896849 -6.709753 1.989023 -7.5 0 -7.5 
C -1.989023 -7.5 -3.896849 -6.709753 -5.303301 -5.303301 
C -6.709753 -3.896849 -7.5 -1.989023 -7.5 0 
C -7.5 1.989023 -6.709753 3.896849 -5.303301 5.303301 
C -3.896849 6.709753 -1.989023 7.5 0 7.5 
z
" style="stroke: #bf00bf; stroke-width: 1.5"/>
    </defs>
    <g clip-path="url(#p587f5e0340)">
     <use xlink:href="#mfac6e2ad95" x="377.434599" y="259.268436" style="fill-opacity: 0; stroke: #bf00bf; stroke-width: 1.5"/>
     <use xlink:href="#mfac6e2ad95" x="383.703384" y="240.106455" style="fill-opacity: 0; stroke: #bf00bf; stroke-width: 1.5"/>
     <use xlink:href="#mfac6e2ad95" x="441.803664" y="190.285307" style="fill-opacity: 0; stroke: #bf00bf; stroke-width: 1.5"/>
     <use xlink:href="#mfac6e2ad95" x="441.803664" y="186.452911" style="fill-opacity: 0; stroke: #bf00bf; stroke-width: 1.5"/>
    </g>
   </g>
   <g id="line2d_66">
    <path clip-path="url(#p587f5e0340)" style="fill: none; stroke: #bf00bf; stroke-width: 1.5; stroke-linecap: square"/>
   </g>
   <g id="line2d_67">
    <path d="M 432.21479 293.76 
L 432.21479 289.927604 
L 435.837891 289.927604 
L 435.837891 286.095208 
L 435.867368 286.095208 
L 435.867368 282.262812 
L 437.611544 282.262812 
L 437.611544 278.430416 
L 438.192213 278.430416 
L 438.192213 274.59802 
L 440.108086 274.59802 
L 440.108086 270.765624 
L 440.70663 270.765624 
L 440.70663 266.933228 
L 440.995521 266.933228 
L 440.995521 263.100832 
L 440.995521 263.100832 
L 440.995521 263.100832 
L 460.8 263.100832 
" clip-path="url(#p587f5e0340)" style="fill: none; stroke: #ff0000; stroke-width: 3; stroke-linecap: square"/>
   </g>
   <g id="line2d_68">
    <defs>
     <path id="m826125ab49" d="M 0 14.142136 
L 8.485281 0 
L 0 -14.142136 
L -8.485281 0 
z
" style="stroke: #ff0000; stroke-width: 3; stroke-linejoin: miter"/>
    </defs>
    <g clip-path="url(#p587f5e0340)">
     <use xlink:href="#m826125ab49" x="435.867368" y="286.095208" style="fill-opacity: 0; stroke: #ff0000; stroke-width: 3; stroke-linejoin: miter"/>
     <use xlink:href="#m826125ab49" x="440.995521" y="266.933228" style="fill-opacity: 0; stroke: #ff0000; stroke-width: 3; stroke-linejoin: miter"/>
     <use xlink:href="#m826125ab49" x="440.995521" y="263.100832" style="fill-opacity: 0; stroke: #ff0000; stroke-width: 3; stroke-linejoin: miter"/>
    </g>
   </g>
   <g id="line2d_69">
    <path clip-path="url(#p587f5e0340)" style="fill: none; stroke: #ff0000; stroke-width: 3; stroke-linecap: square"/>
    <g clip-path="url(#p587f5e0340)">
     <use xlink:href="#m826125ab49" x="-1" y="581.189703" style="fill-opacity: 0; stroke: #ff0000; stroke-width: 3; stroke-linejoin: miter"/>
     <use xlink:href="#m826125ab49" x="460.8" y="581.189703" style="fill-opacity: 0; stroke: #ff0000; stroke-width: 3; stroke-linejoin: miter"/>
    </g>
   </g>
   <g id="line2d_70">
    <path d="M 440.012582 293.76 
L 440.012582 289.927604 
L 440.012582 289.927604 
L 440.012582 289.927604 
L 460.8 289.927604 
" clip-path="url(#p587f5e0340)" style="fill: none; stroke: #ff0000; stroke-width: 3; stroke-linecap: square"/>
   </g>
   <g id="line2d_71">
    <defs>
     <path id="m003ce0ef2a" d="M 0 7.5 
C 1.989023 7.5 3.896849 6.709753 5.303301 5.303301 
C 6.709753 3.896849 7.5 1.989023 7.5 0 
C 7.5 -1.989023 6.709753 -3.896849 5.303301 -5.303301 
C 3.896849 -6.709753 1.989023 -7.5 0 -7.5 
C -1.989023 -7.5 -3.896849 -6.709753 -5.303301 -5.303301 
C -6.709753 -3.896849 -7.5 -1.989023 -7.5 0 
C -7.5 1.989023 -6.709753 3.896849 -5.303301 5.303301 
C -3.896849 6.709753 -1.989023 7.5 0 7.5 
z
" style="stroke: #ff0000; stroke-width: 3"/>
    </defs>
    <g clip-path="url(#p587f5e0340)">
     <use xlink:href="#m003ce0ef2a" x="440.012582" y="293.76" style="fill-opacity: 0; stroke: #ff0000; stroke-width: 3"/>
     <use xlink:href="#m003ce0ef2a" x="440.012582" y="293.76" style="fill-opacity: 0; stroke: #ff0000; stroke-width: 3"/>
     <use xlink:href="#m003ce0ef2a" x="440.012582" y="289.927604" style="fill-opacity: 0; stroke: #ff0000; stroke-width: 3"/>
    </g>
   </g>
   <g id="line2d_72">
    <path clip-path="url(#p587f5e0340)" style="fill: none; stroke: #ff0000; stroke-width: 3; stroke-linecap: square"/>
   </g>
   <g id="line2d_73">
    <path d="M 441.819429 293.76 
L 441.819429 3.456 
" clip-path="url(#p587f5e0340)" style="fill: none; stroke: #000000; stroke-width: 1.5; stroke-linecap: square"/>
    <defs>
     <path id="m4ca043bc5e" d="M -10 0 
L 10 0 
M 0 10 
L 0 -10 
" style="stroke: #000000; stroke-width: 3"/>
    </defs>
    <g clip-path="url(#p587f5e0340)">
     <use xlink:href="#m4ca043bc5e" x="441.819429" y="293.76" style="stroke: #000000; stroke-width: 3"/>
     <use xlink:href="#m4ca043bc5e" x="441.819429" y="3.456" style="stroke: #000000; stroke-width: 3"/>
    </g>
   </g>
   <g id="line2d_74">
    <path d="M 441.819429 293.76 
L 441.819429 3.456 
" clip-path="url(#p587f5e0340)" style="fill: none; stroke: #000000; stroke-width: 1.5; stroke-linecap: square"/>
    <defs>
     <path id="m57c8180fda" d="M 0 7.5 
C 1.989023 7.5 3.896849 6.709753 5.303301 5.303301 
C 6.709753 3.896849 7.5 1.989023 7.5 0 
C 7.5 -1.989023 6.709753 -3.896849 5.303301 -5.303301 
C 3.896849 -6.709753 1.989023 -7.5 0 -7.5 
C -1.989023 -7.5 -3.896849 -6.709753 -5.303301 -5.303301 
C -6.709753 -3.896849 -7.5 -1.989023 -7.5 0 
C -7.5 1.989023 -6.709753 3.896849 -5.303301 5.303301 
C -3.896849 6.709753 -1.989023 7.5 0 7.5 
z
" style="stroke: #000000; stroke-width: 3"/>
    </defs>
    <g clip-path="url(#p587f5e0340)">
     <use xlink:href="#m57c8180fda" x="441.819429" y="293.76" style="fill-opacity: 0; stroke: #000000; stroke-width: 3"/>
     <use xlink:href="#m57c8180fda" x="441.819429" y="3.456" style="fill-opacity: 0; stroke: #000000; stroke-width: 3"/>
    </g>
   </g>
   <g id="patch_3">
    <path d="M 62.208 293.76 
L 62.208 3.456 
" style="fill: none; stroke: #000000; stroke-width: 0.8; stroke-linejoin: miter; stroke-linecap: square"/>
   </g>
   <g id="patch_4">
    <path d="M 460.8 293.76 
L 460.8 3.456 
" style="fill: none; stroke: #000000; stroke-width: 0.8; stroke-linejoin: miter; stroke-linecap: square"/>
   </g>
   <g id="patch_5">
    <path d="M 62.208 293.76 
L 460.8 293.76 
" style="fill: none; stroke: #000000; stroke-width: 0.8; stroke-linejoin: miter; stroke-linecap: square"/>
   </g>
   <g id="patch_6">
    <path d="M 62.208 3.456 
L 460.8 3.456 
" style="fill: none; stroke: #000000; stroke-width: 0.8; stroke-linejoin: miter; stroke-linecap: square"/>
   </g>
   <g id="text_12">
    <!-- f10-f14 -->
    <g transform="translate(225.405563 24.458955)scale(0.2 -0.2)">
     <defs>
      <path id="DejaVuSans-2d" d="M 313 2009 
L 1997 2009 
L 1997 1497 
L 313 1497 
L 313 2009 
z
" transform="scale(0.015625)"/>
     </defs>
     <use xlink:href="#DejaVuSans-66"/>
     <use xlink:href="#DejaVuSans-31" x="35.205078"/>
     <use xlink:href="#DejaVuSans-30" x="98.828125"/>
     <use xlink:href="#DejaVuSans-2d" x="162.451172"/>
     <use xlink:href="#DejaVuSans-66" x="198.535156"/>
     <use xlink:href="#DejaVuSans-31" x="233.740234"/>
     <use xlink:href="#DejaVuSans-34" x="297.363281"/>
    </g>
   </g>
   <g id="text_13">
    <!-- absolute targets -->
    <g transform="translate(62.208 609.932673)scale(0.14 -0.14)">
     <defs>
      <path id="DejaVuSans-62" d="M 3116 1747 
Q 3116 2381 2855 2742 
Q 2594 3103 2138 3103 
Q 1681 3103 1420 2742 
Q 1159 2381 1159 1747 
Q 1159 1113 1420 752 
Q 1681 391 2138 391 
Q 2594 391 2855 752 
Q 3116 1113 3116 1747 
z
M 1159 2969 
Q 1341 3281 1617 3432 
Q 1894 3584 2278 3584 
Q 2916 3584 3314 3078 
Q 3713 2572 3713 1747 
Q 3713 922 3314 415 
Q 2916 -91 2278 -91 
Q 1894 -91 1617 61 
Q 1341 213 1159 525 
L 1159 0 
L 581 0 
L 581 4863 
L 1159 4863 
L 1159 2969 
z
" transform="scale(0.015625)"/>
      <path id="DejaVuSans-75" d="M 544 1381 
L 544 3500 
L 1119 3500 
L 1119 1403 
Q 1119 906 1312 657 
Q 1506 409 1894 409 
Q 2359 409 2629 706 
Q 2900 1003 2900 1516 
L 2900 3500 
L 3475 3500 
L 3475 0 
L 2900 0 
L 2900 538 
Q 2691 219 2414 64 
Q 2138 -91 1772 -91 
Q 1169 -91 856 284 
Q 544 659 544 1381 
z
M 1991 3584 
L 1991 3584 
z
" transform="scale(0.015625)"/>
      <path id="DejaVuSans-65" d="M 3597 1894 
L 3597 1613 
L 953 1613 
Q 991 1019 1311 708 
Q 1631 397 2203 397 
Q 2534 397 2845 478 
Q 3156 559 3463 722 
L 3463 178 
Q 3153 47 2828 -22 
Q 2503 -91 2169 -91 
Q 1331 -91 842 396 
Q 353 884 353 1716 
Q 353 2575 817 3079 
Q 1281 3584 2069 3584 
Q 2775 3584 3186 3129 
Q 3597 2675 3597 1894 
z
M 3022 2063 
Q 3016 2534 2758 2815 
Q 2500 3097 2075 3097 
Q 1594 3097 1305 2825 
Q 1016 2553 972 2059 
L 3022 2063 
z
" transform="scale(0.015625)"/>
     </defs>
     <use xlink:href="#DejaVuSans-61"/>
     <use xlink:href="#DejaVuSans-62" x="61.279297"/>
     <use xlink:href="#DejaVuSans-73" x="124.755859"/>
     <use xlink:href="#DejaVuSans-6f" x="176.855469"/>
     <use xlink:href="#DejaVuSans-6c" x="238.037109"/>
     <use xlink:href="#DejaVuSans-75" x="265.820312"/>
     <use xlink:href="#DejaVuSans-74" x="329.199219"/>
     <use xlink:href="#DejaVuSans-65" x="368.408203"/>
     <use xlink:href="#DejaVuSans-20" x="429.931641"/>
     <use xlink:href="#DejaVuSans-74" x="461.71875"/>
     <use xlink:href="#DejaVuSans-61" x="500.927734"/>
     <use xlink:href="#DejaVuSans-72" x="562.207031"/>
     <use xlink:href="#DejaVuSans-67" x="601.570312"/>
     <use xlink:href="#DejaVuSans-65" x="665.046875"/>
     <use xlink:href="#DejaVuSans-74" x="726.570312"/>
     <use xlink:href="#DejaVuSans-73" x="765.779297"/>
    </g>
   </g>
   <g id="text_14">
    <!-- v2.6 -->
    <g style="fill: #808080" transform="translate(250.593063 288.777272)scale(0.1 -0.1)">
     <use xlink:href="#DejaVuSans-76"/>
     <use xlink:href="#DejaVuSans-32" x="59.179688"/>
     <use xlink:href="#DejaVuSans-2e" x="122.802734"/>
     <use xlink:href="#DejaVuSans-36" x="154.589844"/>
    </g>
   </g>
   <g id="legend_1">
    <g id="patch_7">
     <path d="M 76.208 136.881 
L 160.148625 136.881 
Q 164.148625 136.881 164.148625 132.881 
L 164.148625 17.456 
Q 164.148625 13.456 160.148625 13.456 
L 76.208 13.456 
Q 72.208 13.456 72.208 17.456 
L 72.208 132.881 
Q 72.208 136.881 76.208 136.881 
z
" style="fill: #ffffff; opacity: 0.2; stroke: #cccccc; stroke-linejoin: miter"/>
    </g>
    <g id="line2d_75">
     <path d="M 80.208 29.652875 
L 80.208 29.652875 
L 100.208 29.652875 
L 100.208 29.652875 
L 120.208 29.652875 
" style="fill: none; stroke: #000000; stroke-width: 1.5; stroke-linecap: square"/>
    </g>
    <g id="text_15">
     <!-- 1 -->
     <g transform="translate(136.208 36.652875)scale(0.2 -0.2)">
      <use xlink:href="#DejaVuSans-31"/>
     </g>
    </g>
    <g id="line2d_76">
     <path d="M 80.208 59.009125 
L 80.208 59.009125 
L 100.208 59.009125 
L 100.208 59.009125 
L 120.208 59.009125 
" style="fill: none; stroke: #00bfbf; stroke-width: 1.5; stroke-linecap: square"/>
    </g>
    <g id="text_16">
     <!-- -1 -->
     <g transform="translate(136.208 66.009125)scale(0.2 -0.2)">
      <use xlink:href="#DejaVuSans-2d"/>
      <use xlink:href="#DejaVuSans-31" x="36.083984"/>
     </g>
    </g>
    <g id="line2d_77">
     <path d="M 80.208 88.365375 
L 80.208 88.365375 
L 100.208 88.365375 
L 100.208 88.365375 
L 120.208 88.365375 
" style="fill: none; stroke: #bf00bf; stroke-width: 1.5; stroke-linecap: square"/>
    </g>
    <g id="text_17">
     <!-- -4 -->
     <g transform="translate(136.208 95.365375)scale(0.2 -0.2)">
      <use xlink:href="#DejaVuSans-2d"/>
      <use xlink:href="#DejaVuSans-34" x="36.083984"/>
     </g>
    </g>
    <g id="line2d_78">
     <path d="M 80.208 117.721625 
L 80.208 117.721625 
L 100.208 117.721625 
L 100.208 117.721625 
L 120.208 117.721625 
" style="fill: none; stroke: #ff0000; stroke-width: 3; stroke-linecap: square"/>
    </g>
    <g id="text_18">
     <!-- -8 -->
     <g transform="translate(136.208 124.721625)scale(0.2 -0.2)">
      <use xlink:href="#DejaVuSans-2d"/>
      <use xlink:href="#DejaVuSans-38" x="36.083984"/>
     </g>
    </g>
   </g>
  </g>
 </g>
 <defs>
  <clipPath id="p587f5e0340">
   <rect x="62.208" y="3.456" width="398.592" height="290.304"/>
  </clipPath>
 </defs>
</svg>
