<?xml version="1.0" encoding="utf-8" standalone="no"?>
<!DOCTYPE svg PUBLIC "-//W3C//DTD SVG 1.1//EN"
  "http://www.w3.org/Graphics/SVG/1.1/DTD/svg11.dtd">
<svg xmlns:xlink="http://www.w3.org/1999/xlink" width="460.8pt" height="345.6pt" viewBox="0 0 460.8 345.6" xmlns="http://www.w3.org/2000/svg" version="1.1">
 <metadata>
  <rdf:RDF xmlns:dc="http://purl.org/dc/elements/1.1/" xmlns:cc="http://creativecommons.org/ns#" xmlns:rdf="http://www.w3.org/1999/02/22-rdf-syntax-ns#">
   <cc:Work>
    <dc:type rdf:resource="http://purl.org/dc/dcmitype/StillImage"/>
    <dc:date>2024-05-29T08:02:05.632734</dc:date>
    <dc:format>image/svg+xml</dc:format>
    <dc:creator>
     <cc:Agent>
      <dc:title>Matplotlib v3.5.1, https://matplotlib.org/</dc:title>
     </cc:Agent>
    </dc:creator>
   </cc:Work>
  </rdf:RDF>
 </metadata>
 <defs>
  <style type="text/css">*{stroke-linejoin: round; stroke-linecap: butt}</style>
 </defs>
 <g id="figure_1">
  <g id="patch_1">
   <path d="M 0 345.6 
L 460.8 345.6 
L 460.8 0 
L 0 0 
z
" style="fill: #ffffff"/>
  </g>
  <g id="axes_1">
   <g id="patch_2">
    <path d="M 57.6 298.944 
L 360.8064 298.944 
L 360.8064 6.912 
L 57.6 6.912 
z
" style="fill: #ffffff"/>
   </g>
   <g id="line2d_1">
    <path d="M 14.2848 298.944 
L 14.2848 292.072659 
L 27.323974 292.072659 
L 27.323974 290.927435 
L 34.951403 290.927435 
L 34.951403 289.782212 
L 40.363149 289.782212 
L 40.363149 288.636988 
L 57.6 288.636988 
L 57.6 287.491765 
L 68.65718 287.491765 
L 68.65718 286.346541 
L 78.266603 286.346541 
L 78.266603 281.765647 
L 78.88343 281.765647 
L 78.88343 278.329976 
L 79.480672 278.329976 
L 79.480672 276.039529 
L 83.678349 276.039529 
L 83.678349 274.894306 
L 85.038813 274.894306 
L 85.038813 273.749082 
L 86.307488 273.749082 
L 86.307488 272.603859 
L 90.007914 272.603859 
L 90.007914 271.458635 
L 91.922605 271.458635 
L 91.922605 270.313412 
L 93.098709 270.313412 
L 93.098709 269.168188 
L 95.998523 269.168188 
L 95.998523 268.022965 
L 100.535156 268.022965 
L 100.535156 266.877741 
L 104.655893 266.877741 
L 104.655893 265.732518 
L 105.850679 265.732518 
L 105.850679 264.587294 
L 109.159456 264.587294 
L 109.159456 263.442071 
L 109.990385 263.442071 
L 109.990385 262.296847 
L 118.000953 262.296847 
L 118.000953 261.151624 
L 124.101572 261.151624 
L 124.101572 260.0064 
L 134.495147 260.0064 
L 134.495147 258.861176 
L 135.568632 258.861176 
L 135.568632 257.715953 
L 135.805631 257.715953 
L 135.805631 256.570729 
L 139.289277 256.570729 
L 139.289277 255.425506 
L 140.312801 255.425506 
L 140.312801 254.280282 
L 141.371301 254.280282 
L 141.371301 253.135059 
L 142.559347 253.135059 
L 142.559347 251.989835 
L 150.000827 251.989835 
L 150.000827 250.844612 
L 151.375128 250.844612 
L 151.375128 249.699388 
L 159.367841 249.699388 
L 159.367841 248.554165 
L 163.786321 248.554165 
L 163.85935 246.263718 
L 165.999046 246.263718 
L 165.999046 245.118494 
L 167.240447 245.118494 
L 167.240447 243.973271 
L 171.808687 243.973271 
L 171.916937 241.682824 
L 171.947136 241.682824 
L 171.977286 239.392376 
L 172.067447 239.392376 
L 172.118775 237.101929 
L 172.186995 237.101929 
L 172.229507 234.811482 
L 172.301557 234.811482 
L 172.301557 233.666259 
L 172.470008 233.666259 
L 172.524431 231.375812 
L 172.587032 231.375812 
L 172.587032 230.230588 
L 172.868238 230.230588 
L 172.958324 227.940141 
L 173.011355 227.940141 
L 173.011355 226.794918 
L 173.346455 226.794918 
L 173.442249 224.504471 
L 173.565266 224.504471 
L 173.565266 223.359247 
L 173.75417 223.359247 
L 173.75417 222.214024 
L 173.956698 222.214024 
L 173.956698 221.0688 
L 174.11486 221.0688 
L 174.20683 218.778353 
L 174.472534 218.778353 
L 174.472534 217.633129 
L 174.689881 217.633129 
L 174.782796 215.342682 
L 175.135386 215.342682 
L 175.135386 214.197459 
L 175.273147 214.197459 
L 175.273147 213.052235 
L 175.395557 213.052235 
L 175.395557 211.907012 
L 176.964669 211.907012 
L 176.964669 210.761788 
L 177.220434 210.761788 
L 177.308164 208.471341 
L 178.244035 208.471341 
L 178.244035 207.326118 
L 178.546935 207.326118 
L 178.546935 206.180894 
L 178.661917 206.180894 
L 178.71313 203.890447 
L 179.01159 203.890447 
L 179.111997 201.6 
L 179.311218 201.6 
L 179.311218 200.454776 
L 179.447692 200.454776 
L 179.447692 199.309553 
L 179.568815 199.309553 
L 179.568815 198.164329 
L 179.786028 198.164329 
L 179.871084 195.873882 
L 179.913468 195.873882 
L 179.913468 194.728659 
L 180.13513 194.728659 
L 180.13513 193.583435 
L 180.257464 193.583435 
L 180.285156 191.292988 
L 180.499771 191.292988 
L 180.59256 186.712094 
L 180.630634 186.712094 
L 180.630634 185.566871 
L 180.884301 185.566871 
L 180.916439 183.276424 
L 181.073658 183.276424 
L 181.073658 182.1312 
L 182.518663 182.1312 
L 182.604477 178.695529 
L 184.010964 178.695529 
L 184.031383 176.405082 
L 184.245576 176.405082 
L 184.326111 172.969412 
L 184.426297 172.969412 
L 184.426297 171.824188 
L 188.050439 171.824188 
L 188.147251 166.098071 
L 188.194562 166.098071 
L 188.207279 163.807624 
L 189.848033 163.807624 
L 189.934385 160.371953 
L 193.154769 160.371953 
L 193.235571 156.936282 
L 193.485521 156.936282 
L 193.521154 154.645835 
L 194.343604 154.645835 
L 194.343604 153.500612 
L 194.506724 153.500612 
L 194.600043 151.210165 
L 194.652977 151.210165 
L 194.652977 150.064941 
L 195.092594 150.064941 
L 195.092594 148.919718 
L 195.699831 148.919718 
L 195.699831 147.774494 
L 196.880259 147.774494 
L 196.880259 146.629271 
L 198.460108 146.629271 
L 198.460108 145.484047 
L 211.159254 145.484047 
L 211.159254 144.338824 
L 214.28699 144.338824 
L 214.28699 143.1936 
L 217.792633 143.1936 
L 217.792633 142.048376 
L 222.717414 142.048376 
L 222.717414 140.903153 
L 223.287002 140.903153 
L 223.287002 139.757929 
L 227.409742 139.757929 
L 227.409742 138.612706 
L 227.866315 138.612706 
L 227.866315 137.467482 
L 230.626269 137.467482 
L 230.626269 136.322259 
L 240.625603 136.322259 
L 240.625603 135.177035 
L 242.320904 135.177035 
L 242.40195 132.886588 
L 244.020452 132.886588 
L 244.073927 130.596141 
L 244.141556 130.596141 
L 244.226699 128.305694 
L 244.291203 128.305694 
L 244.397487 124.870024 
L 244.441953 124.870024 
L 244.544665 121.434353 
L 244.586881 121.434353 
L 244.672745 117.998682 
L 244.721699 117.998682 
L 244.817704 114.563012 
L 244.849656 114.563012 
L 244.940118 111.127341 
L 244.975328 111.127341 
L 245.054488 107.691671 
L 245.093546 107.691671 
L 245.177924 104.256 
L 245.235924 104.256 
L 245.33841 100.820329 
L 245.379232 100.820329 
L 245.379232 99.675106 
L 250.967407 99.675106 
L 250.967407 98.529882 
L 259.234423 98.529882 
L 259.234423 97.384659 
L 260.006044 97.384659 
L 260.006044 96.239435 
L 262.930032 96.239435 
L 262.930032 95.094212 
L 263.051535 95.094212 
L 263.051535 93.948988 
L 263.267303 93.948988 
L 263.369422 91.658541 
L 263.483181 91.658541 
L 263.577134 87.077647 
L 263.621033 87.077647 
L 263.712858 82.496753 
L 263.733319 82.496753 
L 263.813343 77.915859 
L 263.846502 77.915859 
L 263.924782 73.334965 
L 263.960076 73.334965 
L 264.063504 67.608847 
L 264.099826 67.608847 
L 264.194369 61.882729 
L 264.22664 61.882729 
L 264.325791 56.156612 
L 264.348832 56.156612 
L 264.348832 55.011388 
L 272.290574 55.011388 
L 272.290574 53.866165 
L 275.003306 53.866165 
L 275.003306 52.720941 
L 295.75262 52.720941 
L 295.75262 51.575718 
L 304.359925 51.575718 
L 304.359925 50.430494 
L 327.888075 50.430494 
L 327.888075 49.285271 
L 355.331455 49.285271 
L 355.339539 6.912 
L 360.8064 6.912 
L 360.8064 6.912 
" style="fill: none; stroke: #f5deb3; stroke-width: 4; stroke-linecap: square"/>
   </g>
   <g id="line2d_2">
    <defs>
     <path id="m9af3c93e3a" d="M 0 7.778175 
L 7.778175 0 
L 0 -7.778175 
L -7.778175 0 
z
" style="stroke: #f5deb3; stroke-width: 1.5; stroke-linejoin: miter"/>
    </defs>
    <g>
     <use xlink:href="#m9af3c93e3a" x="135.568632" y="257.715953" style="fill: #f5deb3; stroke: #f5deb3; stroke-width: 1.5; stroke-linejoin: miter"/>
     <use xlink:href="#m9af3c93e3a" x="189.934385" y="160.371953" style="fill: #f5deb3; stroke: #f5deb3; stroke-width: 1.5; stroke-linejoin: miter"/>
     <use xlink:href="#m9af3c93e3a" x="263.733319" y="81.351529" style="fill: #f5deb3; stroke: #f5deb3; stroke-width: 1.5; stroke-linejoin: miter"/>
     <use xlink:href="#m9af3c93e3a" x="355.338757" y="11.492894" style="fill: #f5deb3; stroke: #f5deb3; stroke-width: 1.5; stroke-linejoin: miter"/>
     <use xlink:href="#m9af3c93e3a" x="355.339539" y="6.912" style="fill: #f5deb3; stroke: #f5deb3; stroke-width: 1.5; stroke-linejoin: miter"/>
     <use xlink:href="#m9af3c93e3a" x="360.8064" y="6.912" style="fill: #f5deb3; stroke: #f5deb3; stroke-width: 1.5; stroke-linejoin: miter"/>
    </g>
   </g>
   <g id="line2d_3">
    <path style="fill: none; stroke: #f5deb3; stroke-width: 4; stroke-linecap: square"/>
    <g/>
   </g>
   <g id="line2d_4">
    <path d="M 360.8064 6.912 
L 380.514816 12.75264 
" style="fill: none; stroke: #f5deb3; stroke-width: 4; stroke-linecap: square"/>
    <g>
     <use xlink:href="#m9af3c93e3a" x="360.8064" y="6.912" style="fill: #f5deb3; stroke: #f5deb3; stroke-width: 1.5; stroke-linejoin: miter"/>
     <use xlink:href="#m9af3c93e3a" x="380.514816" y="12.75264" style="fill: #f5deb3; stroke: #f5deb3; stroke-width: 1.5; stroke-linejoin: miter"/>
    </g>
   </g>
   <g id="matplotlib.axis_1">
    <g id="xtick_1">
     <g id="line2d_5">
      <path d="M 57.6 298.944 
L 57.6 6.912 
" clip-path="url(#p2dce203c00)" style="fill: none; stroke: #b0b0b0; stroke-width: 0.8; stroke-linecap: square"/>
     </g>
     <g id="line2d_6">
      <defs>
       <path id="m34917b7f7c" d="M 0 0 
L 0 3.5 
" style="stroke: #000000; stroke-width: 0.8"/>
      </defs>
      <g>
       <use xlink:href="#m34917b7f7c" x="57.6" y="298.944" style="stroke: #000000; stroke-width: 0.8"/>
      </g>
     </g>
     <g id="text_1">
      <!-- 0 -->
      <g transform="translate(52.191875 318.861344)scale(0.17 -0.17)">
       <defs>
        <path id="DejaVuSans-30" d="M 2034 4250 
Q 1547 4250 1301 3770 
Q 1056 3291 1056 2328 
Q 1056 1369 1301 889 
Q 1547 409 2034 409 
Q 2525 409 2770 889 
Q 3016 1369 3016 2328 
Q 3016 3291 2770 3770 
Q 2525 4250 2034 4250 
z
M 2034 4750 
Q 2819 4750 3233 4129 
Q 3647 3509 3647 2328 
Q 3647 1150 3233 529 
Q 2819 -91 2034 -91 
Q 1250 -91 836 529 
Q 422 1150 422 2328 
Q 422 3509 836 4129 
Q 1250 4750 2034 4750 
z
" transform="scale(0.015625)"/>
       </defs>
       <use xlink:href="#DejaVuSans-30"/>
      </g>
     </g>
    </g>
    <g id="xtick_2">
     <g id="line2d_7">
      <path d="M 144.2304 298.944 
L 144.2304 6.912 
" clip-path="url(#p2dce203c00)" style="fill: none; stroke: #b0b0b0; stroke-width: 0.8; stroke-linecap: square"/>
     </g>
     <g id="line2d_8">
      <g>
       <use xlink:href="#m34917b7f7c" x="144.2304" y="298.944" style="stroke: #000000; stroke-width: 0.8"/>
      </g>
     </g>
     <g id="text_2">
      <!-- 2 -->
      <g transform="translate(138.822275 318.861344)scale(0.17 -0.17)">
       <defs>
        <path id="DejaVuSans-32" d="M 1228 531 
L 3431 531 
L 3431 0 
L 469 0 
L 469 531 
Q 828 903 1448 1529 
Q 2069 2156 2228 2338 
Q 2531 2678 2651 2914 
Q 2772 3150 2772 3378 
Q 2772 3750 2511 3984 
Q 2250 4219 1831 4219 
Q 1534 4219 1204 4116 
Q 875 4013 500 3803 
L 500 4441 
Q 881 4594 1212 4672 
Q 1544 4750 1819 4750 
Q 2544 4750 2975 4387 
Q 3406 4025 3406 3419 
Q 3406 3131 3298 2873 
Q 3191 2616 2906 2266 
Q 2828 2175 2409 1742 
Q 1991 1309 1228 531 
z
" transform="scale(0.015625)"/>
       </defs>
       <use xlink:href="#DejaVuSans-32"/>
      </g>
     </g>
    </g>
    <g id="xtick_3">
     <g id="line2d_9">
      <path d="M 230.8608 298.944 
L 230.8608 6.912 
" clip-path="url(#p2dce203c00)" style="fill: none; stroke: #b0b0b0; stroke-width: 0.8; stroke-linecap: square"/>
     </g>
     <g id="line2d_10">
      <g>
       <use xlink:href="#m34917b7f7c" x="230.8608" y="298.944" style="stroke: #000000; stroke-width: 0.8"/>
      </g>
     </g>
     <g id="text_3">
      <!-- 4 -->
      <g transform="translate(225.452675 318.861344)scale(0.17 -0.17)">
       <defs>
        <path id="DejaVuSans-34" d="M 2419 4116 
L 825 1625 
L 2419 1625 
L 2419 4116 
z
M 2253 4666 
L 3047 4666 
L 3047 1625 
L 3713 1625 
L 3713 1100 
L 3047 1100 
L 3047 0 
L 2419 0 
L 2419 1100 
L 313 1100 
L 313 1709 
L 2253 4666 
z
" transform="scale(0.015625)"/>
       </defs>
       <use xlink:href="#DejaVuSans-34"/>
      </g>
     </g>
    </g>
    <g id="xtick_4">
     <g id="line2d_11">
      <path d="M 317.4912 298.944 
L 317.4912 6.912 
" clip-path="url(#p2dce203c00)" style="fill: none; stroke: #b0b0b0; stroke-width: 0.8; stroke-linecap: square"/>
     </g>
     <g id="line2d_12">
      <g>
       <use xlink:href="#m34917b7f7c" x="317.4912" y="298.944" style="stroke: #000000; stroke-width: 0.8"/>
      </g>
     </g>
     <g id="text_4">
      <!-- 6 -->
      <g transform="translate(312.083075 318.861344)scale(0.17 -0.17)">
       <defs>
        <path id="DejaVuSans-36" d="M 2113 2584 
Q 1688 2584 1439 2293 
Q 1191 2003 1191 1497 
Q 1191 994 1439 701 
Q 1688 409 2113 409 
Q 2538 409 2786 701 
Q 3034 994 3034 1497 
Q 3034 2003 2786 2293 
Q 2538 2584 2113 2584 
z
M 3366 4563 
L 3366 3988 
Q 3128 4100 2886 4159 
Q 2644 4219 2406 4219 
Q 1781 4219 1451 3797 
Q 1122 3375 1075 2522 
Q 1259 2794 1537 2939 
Q 1816 3084 2150 3084 
Q 2853 3084 3261 2657 
Q 3669 2231 3669 1497 
Q 3669 778 3244 343 
Q 2819 -91 2113 -91 
Q 1303 -91 875 529 
Q 447 1150 447 2328 
Q 447 3434 972 4092 
Q 1497 4750 2381 4750 
Q 2619 4750 2861 4703 
Q 3103 4656 3366 4563 
z
" transform="scale(0.015625)"/>
       </defs>
       <use xlink:href="#DejaVuSans-36"/>
      </g>
     </g>
    </g>
    <g id="xtick_5">
     <g id="line2d_13">
      <path d="M 100.9152 298.944 
L 100.9152 6.912 
" clip-path="url(#p2dce203c00)" style="fill: none; stroke: #b0b0b0; stroke-width: 0.8; stroke-linecap: square"/>
     </g>
     <g id="line2d_14">
      <defs>
       <path id="m273080e5f1" d="M 0 0 
L 0 2 
" style="stroke: #000000; stroke-width: 0.6"/>
      </defs>
      <g>
       <use xlink:href="#m273080e5f1" x="100.9152" y="298.944" style="stroke: #000000; stroke-width: 0.6"/>
      </g>
     </g>
    </g>
    <g id="xtick_6">
     <g id="line2d_15">
      <path d="M 187.5456 298.944 
L 187.5456 6.912 
" clip-path="url(#p2dce203c00)" style="fill: none; stroke: #b0b0b0; stroke-width: 0.8; stroke-linecap: square"/>
     </g>
     <g id="line2d_16">
      <g>
       <use xlink:href="#m273080e5f1" x="187.5456" y="298.944" style="stroke: #000000; stroke-width: 0.6"/>
      </g>
     </g>
    </g>
    <g id="xtick_7">
     <g id="line2d_17">
      <path d="M 274.176 298.944 
L 274.176 6.912 
" clip-path="url(#p2dce203c00)" style="fill: none; stroke: #b0b0b0; stroke-width: 0.8; stroke-linecap: square"/>
     </g>
     <g id="line2d_18">
      <g>
       <use xlink:href="#m273080e5f1" x="274.176" y="298.944" style="stroke: #000000; stroke-width: 0.6"/>
      </g>
     </g>
    </g>
    <g id="xtick_8">
     <g id="line2d_19">
      <path d="M 360.8064 298.944 
L 360.8064 6.912 
" clip-path="url(#p2dce203c00)" style="fill: none; stroke: #b0b0b0; stroke-width: 0.8; stroke-linecap: square"/>
     </g>
     <g id="line2d_20">
      <g>
       <use xlink:href="#m273080e5f1" x="360.8064" y="298.944" style="stroke: #000000; stroke-width: 0.6"/>
      </g>
     </g>
    </g>
    <g id="text_5">
     <!-- log10(# f-evals / dimension) -->
     <g transform="translate(88.823278 339.314156)scale(0.17 -0.17)">
      <defs>
       <path id="DejaVuSans-6c" d="M 603 4863 
L 1178 4863 
L 1178 0 
L 603 0 
L 603 4863 
z
" transform="scale(0.015625)"/>
       <path id="DejaVuSans-6f" d="M 1959 3097 
Q 1497 3097 1228 2736 
Q 959 2375 959 1747 
Q 959 1119 1226 758 
Q 1494 397 1959 397 
Q 2419 397 2687 759 
Q 2956 1122 2956 1747 
Q 2956 2369 2687 2733 
Q 2419 3097 1959 3097 
z
M 1959 3584 
Q 2709 3584 3137 3096 
Q 3566 2609 3566 1747 
Q 3566 888 3137 398 
Q 2709 -91 1959 -91 
Q 1206 -91 779 398 
Q 353 888 353 1747 
Q 353 2609 779 3096 
Q 1206 3584 1959 3584 
z
" transform="scale(0.015625)"/>
       <path id="DejaVuSans-67" d="M 2906 1791 
Q 2906 2416 2648 2759 
Q 2391 3103 1925 3103 
Q 1463 3103 1205 2759 
Q 947 2416 947 1791 
Q 947 1169 1205 825 
Q 1463 481 1925 481 
Q 2391 481 2648 825 
Q 2906 1169 2906 1791 
z
M 3481 434 
Q 3481 -459 3084 -895 
Q 2688 -1331 1869 -1331 
Q 1566 -1331 1297 -1286 
Q 1028 -1241 775 -1147 
L 775 -588 
Q 1028 -725 1275 -790 
Q 1522 -856 1778 -856 
Q 2344 -856 2625 -561 
Q 2906 -266 2906 331 
L 2906 616 
Q 2728 306 2450 153 
Q 2172 0 1784 0 
Q 1141 0 747 490 
Q 353 981 353 1791 
Q 353 2603 747 3093 
Q 1141 3584 1784 3584 
Q 2172 3584 2450 3431 
Q 2728 3278 2906 2969 
L 2906 3500 
L 3481 3500 
L 3481 434 
z
" transform="scale(0.015625)"/>
       <path id="DejaVuSans-31" d="M 794 531 
L 1825 531 
L 1825 4091 
L 703 3866 
L 703 4441 
L 1819 4666 
L 2450 4666 
L 2450 531 
L 3481 531 
L 3481 0 
L 794 0 
L 794 531 
z
" transform="scale(0.015625)"/>
       <path id="DejaVuSans-28" d="M 1984 4856 
Q 1566 4138 1362 3434 
Q 1159 2731 1159 2009 
Q 1159 1288 1364 580 
Q 1569 -128 1984 -844 
L 1484 -844 
Q 1016 -109 783 600 
Q 550 1309 550 2009 
Q 550 2706 781 3412 
Q 1013 4119 1484 4856 
L 1984 4856 
z
" transform="scale(0.015625)"/>
       <path id="DejaVuSans-23" d="M 3272 2816 
L 2363 2816 
L 2100 1772 
L 3016 1772 
L 3272 2816 
z
M 2803 4594 
L 2478 3297 
L 3391 3297 
L 3719 4594 
L 4219 4594 
L 3897 3297 
L 4872 3297 
L 4872 2816 
L 3775 2816 
L 3519 1772 
L 4513 1772 
L 4513 1294 
L 3397 1294 
L 3072 0 
L 2572 0 
L 2894 1294 
L 1978 1294 
L 1656 0 
L 1153 0 
L 1478 1294 
L 494 1294 
L 494 1772 
L 1594 1772 
L 1856 2816 
L 850 2816 
L 850 3297 
L 1978 3297 
L 2297 4594 
L 2803 4594 
z
" transform="scale(0.015625)"/>
       <path id="DejaVuSans-20" transform="scale(0.015625)"/>
       <path id="DejaVuSans-66" d="M 2375 4863 
L 2375 4384 
L 1825 4384 
Q 1516 4384 1395 4259 
Q 1275 4134 1275 3809 
L 1275 3500 
L 2222 3500 
L 2222 3053 
L 1275 3053 
L 1275 0 
L 697 0 
L 697 3053 
L 147 3053 
L 147 3500 
L 697 3500 
L 697 3744 
Q 697 4328 969 4595 
Q 1241 4863 1831 4863 
L 2375 4863 
z
" transform="scale(0.015625)"/>
       <path id="DejaVuSans-2d" d="M 313 2009 
L 1997 2009 
L 1997 1497 
L 313 1497 
L 313 2009 
z
" transform="scale(0.015625)"/>
       <path id="DejaVuSans-65" d="M 3597 1894 
L 3597 1613 
L 953 1613 
Q 991 1019 1311 708 
Q 1631 397 2203 397 
Q 2534 397 2845 478 
Q 3156 559 3463 722 
L 3463 178 
Q 3153 47 2828 -22 
Q 2503 -91 2169 -91 
Q 1331 -91 842 396 
Q 353 884 353 1716 
Q 353 2575 817 3079 
Q 1281 3584 2069 3584 
Q 2775 3584 3186 3129 
Q 3597 2675 3597 1894 
z
M 3022 2063 
Q 3016 2534 2758 2815 
Q 2500 3097 2075 3097 
Q 1594 3097 1305 2825 
Q 1016 2553 972 2059 
L 3022 2063 
z
" transform="scale(0.015625)"/>
       <path id="DejaVuSans-76" d="M 191 3500 
L 800 3500 
L 1894 563 
L 2988 3500 
L 3597 3500 
L 2284 0 
L 1503 0 
L 191 3500 
z
" transform="scale(0.015625)"/>
       <path id="DejaVuSans-61" d="M 2194 1759 
Q 1497 1759 1228 1600 
Q 959 1441 959 1056 
Q 959 750 1161 570 
Q 1363 391 1709 391 
Q 2188 391 2477 730 
Q 2766 1069 2766 1631 
L 2766 1759 
L 2194 1759 
z
M 3341 1997 
L 3341 0 
L 2766 0 
L 2766 531 
Q 2569 213 2275 61 
Q 1981 -91 1556 -91 
Q 1019 -91 701 211 
Q 384 513 384 1019 
Q 384 1609 779 1909 
Q 1175 2209 1959 2209 
L 2766 2209 
L 2766 2266 
Q 2766 2663 2505 2880 
Q 2244 3097 1772 3097 
Q 1472 3097 1187 3025 
Q 903 2953 641 2809 
L 641 3341 
Q 956 3463 1253 3523 
Q 1550 3584 1831 3584 
Q 2591 3584 2966 3190 
Q 3341 2797 3341 1997 
z
" transform="scale(0.015625)"/>
       <path id="DejaVuSans-73" d="M 2834 3397 
L 2834 2853 
Q 2591 2978 2328 3040 
Q 2066 3103 1784 3103 
Q 1356 3103 1142 2972 
Q 928 2841 928 2578 
Q 928 2378 1081 2264 
Q 1234 2150 1697 2047 
L 1894 2003 
Q 2506 1872 2764 1633 
Q 3022 1394 3022 966 
Q 3022 478 2636 193 
Q 2250 -91 1575 -91 
Q 1294 -91 989 -36 
Q 684 19 347 128 
L 347 722 
Q 666 556 975 473 
Q 1284 391 1588 391 
Q 1994 391 2212 530 
Q 2431 669 2431 922 
Q 2431 1156 2273 1281 
Q 2116 1406 1581 1522 
L 1381 1569 
Q 847 1681 609 1914 
Q 372 2147 372 2553 
Q 372 3047 722 3315 
Q 1072 3584 1716 3584 
Q 2034 3584 2315 3537 
Q 2597 3491 2834 3397 
z
" transform="scale(0.015625)"/>
       <path id="DejaVuSans-2f" d="M 1625 4666 
L 2156 4666 
L 531 -594 
L 0 -594 
L 1625 4666 
z
" transform="scale(0.015625)"/>
       <path id="DejaVuSans-64" d="M 2906 2969 
L 2906 4863 
L 3481 4863 
L 3481 0 
L 2906 0 
L 2906 525 
Q 2725 213 2448 61 
Q 2172 -91 1784 -91 
Q 1150 -91 751 415 
Q 353 922 353 1747 
Q 353 2572 751 3078 
Q 1150 3584 1784 3584 
Q 2172 3584 2448 3432 
Q 2725 3281 2906 2969 
z
M 947 1747 
Q 947 1113 1208 752 
Q 1469 391 1925 391 
Q 2381 391 2643 752 
Q 2906 1113 2906 1747 
Q 2906 2381 2643 2742 
Q 2381 3103 1925 3103 
Q 1469 3103 1208 2742 
Q 947 2381 947 1747 
z
" transform="scale(0.015625)"/>
       <path id="DejaVuSans-69" d="M 603 3500 
L 1178 3500 
L 1178 0 
L 603 0 
L 603 3500 
z
M 603 4863 
L 1178 4863 
L 1178 4134 
L 603 4134 
L 603 4863 
z
" transform="scale(0.015625)"/>
       <path id="DejaVuSans-6d" d="M 3328 2828 
Q 3544 3216 3844 3400 
Q 4144 3584 4550 3584 
Q 5097 3584 5394 3201 
Q 5691 2819 5691 2113 
L 5691 0 
L 5113 0 
L 5113 2094 
Q 5113 2597 4934 2840 
Q 4756 3084 4391 3084 
Q 3944 3084 3684 2787 
Q 3425 2491 3425 1978 
L 3425 0 
L 2847 0 
L 2847 2094 
Q 2847 2600 2669 2842 
Q 2491 3084 2119 3084 
Q 1678 3084 1418 2786 
Q 1159 2488 1159 1978 
L 1159 0 
L 581 0 
L 581 3500 
L 1159 3500 
L 1159 2956 
Q 1356 3278 1631 3431 
Q 1906 3584 2284 3584 
Q 2666 3584 2933 3390 
Q 3200 3197 3328 2828 
z
" transform="scale(0.015625)"/>
       <path id="DejaVuSans-6e" d="M 3513 2113 
L 3513 0 
L 2938 0 
L 2938 2094 
Q 2938 2591 2744 2837 
Q 2550 3084 2163 3084 
Q 1697 3084 1428 2787 
Q 1159 2491 1159 1978 
L 1159 0 
L 581 0 
L 581 3500 
L 1159 3500 
L 1159 2956 
Q 1366 3272 1645 3428 
Q 1925 3584 2291 3584 
Q 2894 3584 3203 3211 
Q 3513 2838 3513 2113 
z
" transform="scale(0.015625)"/>
       <path id="DejaVuSans-29" d="M 513 4856 
L 1013 4856 
Q 1481 4119 1714 3412 
Q 1947 2706 1947 2009 
Q 1947 1309 1714 600 
Q 1481 -109 1013 -844 
L 513 -844 
Q 928 -128 1133 580 
Q 1338 1288 1338 2009 
Q 1338 2731 1133 3434 
Q 928 4138 513 4856 
z
" transform="scale(0.015625)"/>
      </defs>
      <use xlink:href="#DejaVuSans-6c"/>
      <use xlink:href="#DejaVuSans-6f" x="27.783203"/>
      <use xlink:href="#DejaVuSans-67" x="88.964844"/>
      <use xlink:href="#DejaVuSans-31" x="152.441406"/>
      <use xlink:href="#DejaVuSans-30" x="216.064453"/>
      <use xlink:href="#DejaVuSans-28" x="279.6875"/>
      <use xlink:href="#DejaVuSans-23" x="318.701172"/>
      <use xlink:href="#DejaVuSans-20" x="402.490234"/>
      <use xlink:href="#DejaVuSans-66" x="434.277344"/>
      <use xlink:href="#DejaVuSans-2d" x="463.982422"/>
      <use xlink:href="#DejaVuSans-65" x="500.066406"/>
      <use xlink:href="#DejaVuSans-76" x="561.589844"/>
      <use xlink:href="#DejaVuSans-61" x="620.769531"/>
      <use xlink:href="#DejaVuSans-6c" x="682.048828"/>
      <use xlink:href="#DejaVuSans-73" x="709.832031"/>
      <use xlink:href="#DejaVuSans-20" x="761.931641"/>
      <use xlink:href="#DejaVuSans-2f" x="793.71875"/>
      <use xlink:href="#DejaVuSans-20" x="827.410156"/>
      <use xlink:href="#DejaVuSans-64" x="859.197266"/>
      <use xlink:href="#DejaVuSans-69" x="922.673828"/>
      <use xlink:href="#DejaVuSans-6d" x="950.457031"/>
      <use xlink:href="#DejaVuSans-65" x="1047.869141"/>
      <use xlink:href="#DejaVuSans-6e" x="1109.392578"/>
      <use xlink:href="#DejaVuSans-73" x="1172.771484"/>
      <use xlink:href="#DejaVuSans-69" x="1224.871094"/>
      <use xlink:href="#DejaVuSans-6f" x="1252.654297"/>
      <use xlink:href="#DejaVuSans-6e" x="1313.835938"/>
      <use xlink:href="#DejaVuSans-29" x="1377.214844"/>
     </g>
    </g>
   </g>
   <g id="matplotlib.axis_2">
    <g id="ytick_1">
     <g id="line2d_21">
      <path d="M 57.6 298.944 
L 360.8064 298.944 
" clip-path="url(#p2dce203c00)" style="fill: none; stroke: #b0b0b0; stroke-width: 0.8; stroke-linecap: square"/>
     </g>
     <g id="line2d_22">
      <defs>
       <path id="m9ea8a1fa4f" d="M 0 0 
L -3.5 0 
" style="stroke: #000000; stroke-width: 0.8"/>
      </defs>
      <g>
       <use xlink:href="#m9ea8a1fa4f" x="57.6" y="298.944" style="stroke: #000000; stroke-width: 0.8"/>
      </g>
     </g>
     <g id="text_6">
      <!-- 0.0 -->
      <g transform="translate(25.155 305.02275)scale(0.16 -0.16)">
       <defs>
        <path id="DejaVuSans-2e" d="M 684 794 
L 1344 794 
L 1344 0 
L 684 0 
L 684 794 
z
" transform="scale(0.015625)"/>
       </defs>
       <use xlink:href="#DejaVuSans-30"/>
       <use xlink:href="#DejaVuSans-2e" x="63.623047"/>
       <use xlink:href="#DejaVuSans-30" x="95.410156"/>
      </g>
     </g>
    </g>
    <g id="ytick_2">
     <g id="line2d_23">
      <path d="M 57.6 240.5376 
L 360.8064 240.5376 
" clip-path="url(#p2dce203c00)" style="fill: none; stroke: #b0b0b0; stroke-width: 0.8; stroke-linecap: square"/>
     </g>
     <g id="line2d_24">
      <g>
       <use xlink:href="#m9ea8a1fa4f" x="57.6" y="240.5376" style="stroke: #000000; stroke-width: 0.8"/>
      </g>
     </g>
     <g id="text_7">
      <!-- 0.2 -->
      <g transform="translate(25.155 246.61635)scale(0.16 -0.16)">
       <use xlink:href="#DejaVuSans-30"/>
       <use xlink:href="#DejaVuSans-2e" x="63.623047"/>
       <use xlink:href="#DejaVuSans-32" x="95.410156"/>
      </g>
     </g>
    </g>
    <g id="ytick_3">
     <g id="line2d_25">
      <path d="M 57.6 182.1312 
L 360.8064 182.1312 
" clip-path="url(#p2dce203c00)" style="fill: none; stroke: #b0b0b0; stroke-width: 0.8; stroke-linecap: square"/>
     </g>
     <g id="line2d_26">
      <g>
       <use xlink:href="#m9ea8a1fa4f" x="57.6" y="182.1312" style="stroke: #000000; stroke-width: 0.8"/>
      </g>
     </g>
     <g id="text_8">
      <!-- 0.4 -->
      <g transform="translate(25.155 188.20995)scale(0.16 -0.16)">
       <use xlink:href="#DejaVuSans-30"/>
       <use xlink:href="#DejaVuSans-2e" x="63.623047"/>
       <use xlink:href="#DejaVuSans-34" x="95.410156"/>
      </g>
     </g>
    </g>
    <g id="ytick_4">
     <g id="line2d_27">
      <path d="M 57.6 123.7248 
L 360.8064 123.7248 
" clip-path="url(#p2dce203c00)" style="fill: none; stroke: #b0b0b0; stroke-width: 0.8; stroke-linecap: square"/>
     </g>
     <g id="line2d_28">
      <g>
       <use xlink:href="#m9ea8a1fa4f" x="57.6" y="123.7248" style="stroke: #000000; stroke-width: 0.8"/>
      </g>
     </g>
     <g id="text_9">
      <!-- 0.6 -->
      <g transform="translate(25.155 129.80355)scale(0.16 -0.16)">
       <use xlink:href="#DejaVuSans-30"/>
       <use xlink:href="#DejaVuSans-2e" x="63.623047"/>
       <use xlink:href="#DejaVuSans-36" x="95.410156"/>
      </g>
     </g>
    </g>
    <g id="ytick_5">
     <g id="line2d_29">
      <path d="M 57.6 65.3184 
L 360.8064 65.3184 
" clip-path="url(#p2dce203c00)" style="fill: none; stroke: #b0b0b0; stroke-width: 0.8; stroke-linecap: square"/>
     </g>
     <g id="line2d_30">
      <g>
       <use xlink:href="#m9ea8a1fa4f" x="57.6" y="65.3184" style="stroke: #000000; stroke-width: 0.8"/>
      </g>
     </g>
     <g id="text_10">
      <!-- 0.8 -->
      <g transform="translate(25.155 71.39715)scale(0.16 -0.16)">
       <defs>
        <path id="DejaVuSans-38" d="M 2034 2216 
Q 1584 2216 1326 1975 
Q 1069 1734 1069 1313 
Q 1069 891 1326 650 
Q 1584 409 2034 409 
Q 2484 409 2743 651 
Q 3003 894 3003 1313 
Q 3003 1734 2745 1975 
Q 2488 2216 2034 2216 
z
M 1403 2484 
Q 997 2584 770 2862 
Q 544 3141 544 3541 
Q 544 4100 942 4425 
Q 1341 4750 2034 4750 
Q 2731 4750 3128 4425 
Q 3525 4100 3525 3541 
Q 3525 3141 3298 2862 
Q 3072 2584 2669 2484 
Q 3125 2378 3379 2068 
Q 3634 1759 3634 1313 
Q 3634 634 3220 271 
Q 2806 -91 2034 -91 
Q 1263 -91 848 271 
Q 434 634 434 1313 
Q 434 1759 690 2068 
Q 947 2378 1403 2484 
z
M 1172 3481 
Q 1172 3119 1398 2916 
Q 1625 2713 2034 2713 
Q 2441 2713 2670 2916 
Q 2900 3119 2900 3481 
Q 2900 3844 2670 4047 
Q 2441 4250 2034 4250 
Q 1625 4250 1398 4047 
Q 1172 3844 1172 3481 
z
" transform="scale(0.015625)"/>
       </defs>
       <use xlink:href="#DejaVuSans-30"/>
       <use xlink:href="#DejaVuSans-2e" x="63.623047"/>
       <use xlink:href="#DejaVuSans-38" x="95.410156"/>
      </g>
     </g>
    </g>
    <g id="ytick_6">
     <g id="line2d_31">
      <path d="M 57.6 6.912 
L 360.8064 6.912 
" clip-path="url(#p2dce203c00)" style="fill: none; stroke: #b0b0b0; stroke-width: 0.8; stroke-linecap: square"/>
     </g>
     <g id="line2d_32">
      <g>
       <use xlink:href="#m9ea8a1fa4f" x="57.6" y="6.912" style="stroke: #000000; stroke-width: 0.8"/>
      </g>
     </g>
     <g id="text_11">
      <!-- 1.0 -->
      <g transform="translate(25.155 12.99075)scale(0.16 -0.16)">
       <use xlink:href="#DejaVuSans-31"/>
       <use xlink:href="#DejaVuSans-2e" x="63.623047"/>
       <use xlink:href="#DejaVuSans-30" x="95.410156"/>
      </g>
     </g>
    </g>
    <g id="text_12">
     <!-- Fraction of function,target pairs -->
     <g transform="translate(17.619531 287.313)rotate(-90)scale(0.17 -0.17)">
      <defs>
       <path id="DejaVuSans-46" d="M 628 4666 
L 3309 4666 
L 3309 4134 
L 1259 4134 
L 1259 2759 
L 3109 2759 
L 3109 2228 
L 1259 2228 
L 1259 0 
L 628 0 
L 628 4666 
z
" transform="scale(0.015625)"/>
       <path id="DejaVuSans-72" d="M 2631 2963 
Q 2534 3019 2420 3045 
Q 2306 3072 2169 3072 
Q 1681 3072 1420 2755 
Q 1159 2438 1159 1844 
L 1159 0 
L 581 0 
L 581 3500 
L 1159 3500 
L 1159 2956 
Q 1341 3275 1631 3429 
Q 1922 3584 2338 3584 
Q 2397 3584 2469 3576 
Q 2541 3569 2628 3553 
L 2631 2963 
z
" transform="scale(0.015625)"/>
       <path id="DejaVuSans-63" d="M 3122 3366 
L 3122 2828 
Q 2878 2963 2633 3030 
Q 2388 3097 2138 3097 
Q 1578 3097 1268 2742 
Q 959 2388 959 1747 
Q 959 1106 1268 751 
Q 1578 397 2138 397 
Q 2388 397 2633 464 
Q 2878 531 3122 666 
L 3122 134 
Q 2881 22 2623 -34 
Q 2366 -91 2075 -91 
Q 1284 -91 818 406 
Q 353 903 353 1747 
Q 353 2603 823 3093 
Q 1294 3584 2113 3584 
Q 2378 3584 2631 3529 
Q 2884 3475 3122 3366 
z
" transform="scale(0.015625)"/>
       <path id="DejaVuSans-74" d="M 1172 4494 
L 1172 3500 
L 2356 3500 
L 2356 3053 
L 1172 3053 
L 1172 1153 
Q 1172 725 1289 603 
Q 1406 481 1766 481 
L 2356 481 
L 2356 0 
L 1766 0 
Q 1100 0 847 248 
Q 594 497 594 1153 
L 594 3053 
L 172 3053 
L 172 3500 
L 594 3500 
L 594 4494 
L 1172 4494 
z
" transform="scale(0.015625)"/>
       <path id="DejaVuSans-75" d="M 544 1381 
L 544 3500 
L 1119 3500 
L 1119 1403 
Q 1119 906 1312 657 
Q 1506 409 1894 409 
Q 2359 409 2629 706 
Q 2900 1003 2900 1516 
L 2900 3500 
L 3475 3500 
L 3475 0 
L 2900 0 
L 2900 538 
Q 2691 219 2414 64 
Q 2138 -91 1772 -91 
Q 1169 -91 856 284 
Q 544 659 544 1381 
z
M 1991 3584 
L 1991 3584 
z
" transform="scale(0.015625)"/>
       <path id="DejaVuSans-2c" d="M 750 794 
L 1409 794 
L 1409 256 
L 897 -744 
L 494 -744 
L 750 256 
L 750 794 
z
" transform="scale(0.015625)"/>
       <path id="DejaVuSans-70" d="M 1159 525 
L 1159 -1331 
L 581 -1331 
L 581 3500 
L 1159 3500 
L 1159 2969 
Q 1341 3281 1617 3432 
Q 1894 3584 2278 3584 
Q 2916 3584 3314 3078 
Q 3713 2572 3713 1747 
Q 3713 922 3314 415 
Q 2916 -91 2278 -91 
Q 1894 -91 1617 61 
Q 1341 213 1159 525 
z
M 3116 1747 
Q 3116 2381 2855 2742 
Q 2594 3103 2138 3103 
Q 1681 3103 1420 2742 
Q 1159 2381 1159 1747 
Q 1159 1113 1420 752 
Q 1681 391 2138 391 
Q 2594 391 2855 752 
Q 3116 1113 3116 1747 
z
" transform="scale(0.015625)"/>
      </defs>
      <use xlink:href="#DejaVuSans-46"/>
      <use xlink:href="#DejaVuSans-72" x="50.269531"/>
      <use xlink:href="#DejaVuSans-61" x="91.382812"/>
      <use xlink:href="#DejaVuSans-63" x="152.662109"/>
      <use xlink:href="#DejaVuSans-74" x="207.642578"/>
      <use xlink:href="#DejaVuSans-69" x="246.851562"/>
      <use xlink:href="#DejaVuSans-6f" x="274.634766"/>
      <use xlink:href="#DejaVuSans-6e" x="335.816406"/>
      <use xlink:href="#DejaVuSans-20" x="399.195312"/>
      <use xlink:href="#DejaVuSans-6f" x="430.982422"/>
      <use xlink:href="#DejaVuSans-66" x="492.164062"/>
      <use xlink:href="#DejaVuSans-20" x="527.369141"/>
      <use xlink:href="#DejaVuSans-66" x="559.15625"/>
      <use xlink:href="#DejaVuSans-75" x="594.361328"/>
      <use xlink:href="#DejaVuSans-6e" x="657.740234"/>
      <use xlink:href="#DejaVuSans-63" x="721.119141"/>
      <use xlink:href="#DejaVuSans-74" x="776.099609"/>
      <use xlink:href="#DejaVuSans-69" x="815.308594"/>
      <use xlink:href="#DejaVuSans-6f" x="843.091797"/>
      <use xlink:href="#DejaVuSans-6e" x="904.273438"/>
      <use xlink:href="#DejaVuSans-2c" x="967.652344"/>
      <use xlink:href="#DejaVuSans-74" x="999.439453"/>
      <use xlink:href="#DejaVuSans-61" x="1038.648438"/>
      <use xlink:href="#DejaVuSans-72" x="1099.927734"/>
      <use xlink:href="#DejaVuSans-67" x="1139.291016"/>
      <use xlink:href="#DejaVuSans-65" x="1202.767578"/>
      <use xlink:href="#DejaVuSans-74" x="1264.291016"/>
      <use xlink:href="#DejaVuSans-20" x="1303.5"/>
      <use xlink:href="#DejaVuSans-70" x="1335.287109"/>
      <use xlink:href="#DejaVuSans-61" x="1398.763672"/>
      <use xlink:href="#DejaVuSans-69" x="1460.042969"/>
      <use xlink:href="#DejaVuSans-72" x="1487.826172"/>
      <use xlink:href="#DejaVuSans-73" x="1528.939453"/>
     </g>
    </g>
   </g>
   <g id="line2d_33">
    <defs>
     <path id="m02a0c92964" d="M 0 1.5 
C 0.397805 1.5 0.77937 1.341951 1.06066 1.06066 
C 1.341951 0.77937 1.5 0.397805 1.5 0 
C 1.5 -0.397805 1.341951 -0.77937 1.06066 -1.06066 
C 0.77937 -1.341951 0.397805 -1.5 0 -1.5 
C -0.397805 -1.5 -0.77937 -1.341951 -1.06066 -1.06066 
C -1.341951 -0.77937 -1.5 -0.397805 -1.5 0 
C -1.5 0.397805 -1.341951 0.77937 -1.06066 1.06066 
C -0.77937 1.341951 -0.397805 1.5 0 1.5 
z
" style="stroke: #f5deb3"/>
    </defs>
    <g>
     <use xlink:href="#m02a0c92964" x="355.339539" y="6.912" style="fill: #f5deb3; stroke: #f5deb3"/>
     <use xlink:href="#m02a0c92964" x="355.339539" y="6.912" style="fill: #f5deb3; stroke: #f5deb3"/>
    </g>
   </g>
   <g id="line2d_34">
    <defs>
     <path id="mffe017096d" d="M 0 1.5 
C 0.397805 1.5 0.77937 1.341951 1.06066 1.06066 
C 1.341951 0.77937 1.5 0.397805 1.5 0 
C 1.5 -0.397805 1.341951 -0.77937 1.06066 -1.06066 
C 0.77937 -1.341951 0.397805 -1.5 0 -1.5 
C -0.397805 -1.5 -0.77937 -1.341951 -1.06066 -1.06066 
C -1.341951 -0.77937 -1.5 -0.397805 -1.5 0 
C -1.5 0.397805 -1.341951 0.77937 -1.06066 1.06066 
C -0.77937 1.341951 -0.397805 1.5 0 1.5 
z
" style="stroke: #000080"/>
    </defs>
    <g>
     <use xlink:href="#mffe017096d" x="359.664914" y="100.820329" style="fill: #000080; stroke: #000080"/>
     <use xlink:href="#mffe017096d" x="359.664914" y="100.820329" style="fill: #000080; stroke: #000080"/>
    </g>
   </g>
   <g id="line2d_35">
    <path d="M 14.2848 298.944 
L 14.2848 291.15648 
L 27.323974 291.15648 
L 27.323974 290.545694 
L 34.951403 290.545694 
L 34.951403 290.316649 
L 47.990577 290.240301 
L 47.990577 289.85856 
L 50.890391 289.85856 
L 50.890391 289.553167 
L 53.402323 289.553167 
L 53.402323 289.324122 
L 57.6 289.247774 
L 57.6 289.095078 
L 61.029752 289.018729 
L 61.029752 288.942381 
L 66.441498 288.866033 
L 66.441498 288.789685 
L 68.65718 288.789685 
L 68.65718 288.56064 
L 69.674268 288.56064 
L 69.674268 288.331595 
L 70.639174 288.331595 
L 70.639174 288.102551 
L 74.836851 288.026202 
L 74.836851 287.949854 
L 80.059535 287.873506 
L 80.059535 287.797158 
L 85.894031 287.720809 
L 85.894031 287.644461 
L 87.1081 287.568113 
L 87.1081 287.415416 
L 88.248544 287.415416 
L 88.248544 287.26272 
L 91.922605 287.186372 
L 91.922605 287.110024 
L 93.098709 287.110024 
L 93.098709 286.957327 
L 94.995002 286.957327 
L 94.995002 286.804631 
L 98.933205 286.728282 
L 98.933205 286.575586 
L 106.560633 286.499238 
L 106.560633 286.422889 
L 107.774703 286.346541 
L 107.774703 286.270193 
L 108.791791 286.193845 
L 108.791791 286.117496 
L 110.221204 286.117496 
L 110.221204 285.9648 
L 114.961559 285.888452 
L 114.961559 285.812104 
L 116.907859 285.812104 
L 116.907859 285.659407 
L 119.034004 285.583059 
L 119.034004 285.506711 
L 120.0813 285.430362 
L 120.0813 285.354014 
L 123.317644 285.277666 
L 123.317644 285.201318 
L 123.544976 285.201318 
L 123.544976 285.048621 
L 124.642171 285.048621 
L 124.642171 284.895925 
L 125.526971 284.819576 
L 125.526971 284.743228 
L 128.743679 284.66688 
L 128.743679 284.590532 
L 131.040128 284.514184 
L 131.040128 284.437835 
L 131.341119 284.361487 
L 131.341119 284.285139 
L 131.747272 284.208791 
L 131.856536 283.36896 
L 132.001241 283.292612 
L 132.037244 282.834522 
L 132.322814 282.758174 
L 132.358208 282.07104 
L 132.777813 281.994692 
L 132.846847 281.383906 
L 132.984158 281.307558 
L 133.086488 280.085986 
L 133.188264 280.009638 
L 133.25581 279.780593 
L 133.356676 279.780593 
L 133.457005 278.711718 
L 133.490329 278.711718 
L 133.589949 278.253628 
L 133.754819 278.253628 
L 133.853052 277.719191 
L 134.047992 277.719191 
L 134.112526 276.955708 
L 134.176839 276.955708 
L 134.240933 276.039529 
L 134.336666 275.963181 
L 134.431915 275.734136 
L 134.808158 275.657788 
L 134.901055 275.505092 
L 134.993495 275.505092 
L 135.085483 274.359868 
L 135.116046 274.359868 
L 135.14656 273.901779 
L 135.237805 273.901779 
L 135.268121 273.138296 
L 135.449003 273.061948 
L 135.508912 272.832904 
L 135.628162 272.756555 
L 135.717106 272.451162 
L 135.893741 272.374814 
L 135.92302 272.145769 
L 136.039681 272.145769 
L 136.126705 271.534984 
L 136.299553 271.458635 
L 136.299553 271.305939 
L 136.499223 271.229591 
L 136.584151 271.000546 
L 136.836659 270.924198 
L 136.892314 270.771501 
L 136.97549 270.695153 
L 136.97549 270.542456 
L 137.168148 270.466108 
L 137.168148 270.38976 
L 137.893309 270.313412 
L 137.998402 270.084367 
L 138.128947 270.008019 
L 138.128947 269.931671 
L 138.743257 269.855322 
L 138.743257 269.778974 
L 138.89375 269.702626 
L 138.89375 269.626278 
L 139.386872 269.549929 
L 139.411192 269.397233 
L 139.748412 269.320885 
L 139.748412 269.244536 
L 139.867398 269.244536 
L 139.867398 269.09184 
L 140.679868 269.015492 
L 140.679868 268.939144 
L 141.327451 268.862795 
L 141.436884 268.557402 
L 141.804267 268.481054 
L 141.84702 268.328358 
L 142.01707 268.328358 
L 142.01707 268.175661 
L 142.331827 268.099313 
L 142.331827 268.022965 
L 142.60042 267.946616 
L 142.620923 267.79392 
L 142.763822 267.717572 
L 142.763822 267.641224 
L 143.599145 267.564875 
L 143.599145 267.488527 
L 144.380294 267.412179 
L 144.454795 267.030438 
L 144.768174 267.030438 
L 144.768174 266.877741 
L 145.379694 266.801393 
L 145.450347 266.572348 
L 146.210514 266.496 
L 146.27812 266.266955 
L 146.662213 266.190607 
L 146.662213 266.114259 
L 147.359919 266.037911 
L 147.359919 265.961562 
L 147.800712 265.885214 
L 147.831805 265.732518 
L 148.048032 265.656169 
L 148.139946 265.427125 
L 148.68219 265.350776 
L 148.785835 265.19808 
L 148.903591 265.121732 
L 148.962194 264.969035 
L 149.107908 264.892687 
L 149.122418 264.739991 
L 149.438827 264.663642 
L 149.495789 264.434598 
L 149.847944 264.434598 
L 149.847944 264.281901 
L 150.138743 264.205553 
L 150.234685 263.976508 
L 150.38447 263.90016 
L 150.38447 263.823812 
L 150.813548 263.747464 
L 150.892922 263.594767 
L 150.998235 263.518419 
L 151.037576 263.365722 
L 151.233056 263.289374 
L 151.336488 263.060329 
L 151.995276 262.983981 
L 152.094611 262.754936 
L 152.303973 262.754936 
L 152.303973 262.60224 
L 153.224124 262.525892 
L 153.224124 262.449544 
L 153.593669 262.373195 
L 153.593669 262.296847 
L 153.775755 262.220499 
L 153.843585 262.067802 
L 154.399522 261.991454 
L 154.399522 261.915106 
L 154.896868 261.838758 
L 154.896868 261.762409 
L 155.235253 261.686061 
L 155.235253 261.609713 
L 155.914518 261.533365 
L 155.944819 261.380668 
L 156.265023 261.30432 
L 156.363979 260.922579 
L 156.570108 260.846231 
L 156.570108 260.769882 
L 156.918301 260.693534 
L 156.985263 260.540838 
L 157.118477 260.464489 
L 157.222487 260.235445 
L 157.475372 260.159096 
L 157.475372 260.082748 
L 157.934885 260.0064 
L 157.934885 259.930052 
L 158.330176 259.853704 
L 158.330176 259.777355 
L 158.951018 259.701007 
L 158.959618 259.471962 
L 159.367841 259.395614 
L 159.443406 259.242918 
L 159.890533 259.166569 
L 159.890533 259.090221 
L 160.863211 259.013873 
L 160.863211 258.937525 
L 161.55733 258.861176 
L 161.661881 258.632132 
L 162.168843 258.555784 
L 162.168843 258.479435 
L 162.55628 258.403087 
L 162.55628 258.326739 
L 163.109086 258.250391 
L 163.109086 258.174042 
L 164.272231 258.097694 
L 164.324018 257.868649 
L 164.859342 257.792301 
L 164.878182 257.563256 
L 165.343147 257.486908 
L 165.34927 257.334212 
L 165.604634 257.257864 
L 165.604634 257.181515 
L 165.96353 257.181515 
L 165.96353 257.028819 
L 166.338952 256.952471 
L 166.338952 256.876122 
L 166.552624 256.799774 
L 166.552624 256.723426 
L 166.961587 256.647078 
L 166.961587 256.570729 
L 167.558829 256.494381 
L 167.558829 256.418033 
L 167.989318 256.341685 
L 167.989318 256.265336 
L 168.503585 256.188988 
L 168.57076 256.036292 
L 169.413021 255.959944 
L 169.413021 255.883595 
L 170.024438 255.807247 
L 170.024438 255.730899 
L 170.648965 255.654551 
L 170.713514 255.501854 
L 171.621029 255.425506 
L 171.669213 255.272809 
L 172.511885 255.196461 
L 172.511885 255.120113 
L 172.79833 255.043765 
L 172.851813 254.891068 
L 173.003206 254.81472 
L 173.003206 254.738372 
L 173.362455 254.662024 
L 173.362455 254.585675 
L 174.187707 254.509327 
L 174.187707 254.432979 
L 175.616746 254.356631 
L 175.655719 254.203934 
L 176.199907 254.127586 
L 176.302778 253.974889 
L 177.158452 253.898541 
L 177.259475 253.745845 
L 177.686847 253.669496 
L 177.686847 253.593148 
L 178.664933 253.5168 
L 178.710121 253.364104 
L 179.147307 253.287755 
L 179.252842 253.058711 
L 179.56594 252.982362 
L 179.56594 252.906014 
L 180.201956 252.829666 
L 180.201956 252.753318 
L 180.568042 252.676969 
L 180.627917 252.524273 
L 180.892341 252.447925 
L 180.945851 252.295228 
L 181.896592 252.21888 
L 181.896592 252.142532 
L 182.373113 252.066184 
L 182.373113 251.989835 
L 183.218147 251.913487 
L 183.218147 251.837139 
L 183.551395 251.760791 
L 183.551395 251.684442 
L 183.775688 251.608094 
L 183.789475 251.455398 
L 183.992796 251.379049 
L 183.992796 251.226353 
L 184.81309 251.150005 
L 184.81309 251.073656 
L 185.659508 250.997308 
L 185.659508 250.92096 
L 185.884824 250.844612 
L 185.927925 250.691915 
L 186.4635 250.615567 
L 186.4635 250.539219 
L 186.885142 250.462871 
L 186.885142 250.386522 
L 187.234533 250.310174 
L 187.234533 250.233826 
L 187.907049 250.157478 
L 187.962329 249.928433 
L 188.181836 249.852085 
L 188.181836 249.775736 
L 189.964184 249.699388 
L 189.964184 249.62304 
L 190.989455 249.546692 
L 191.014501 249.393995 
L 192.018164 249.317647 
L 192.032989 249.164951 
L 192.645323 249.088602 
L 192.645323 249.012254 
L 193.118434 248.935906 
L 193.131019 248.783209 
L 193.396141 248.706861 
L 193.396141 248.630513 
L 193.86979 248.554165 
L 193.86979 248.477816 
L 194.791704 248.401468 
L 194.791704 248.32512 
L 195.696172 248.248772 
L 195.696172 248.172424 
L 196.674125 248.096075 
L 196.674125 248.019727 
L 197.454366 247.943379 
L 197.454366 247.867031 
L 198.789961 247.790682 
L 198.789961 247.714334 
L 199.011124 247.714334 
L 199.011124 247.561638 
L 200.122008 247.485289 
L 200.122008 247.408941 
L 201.405598 247.332593 
L 201.405598 247.256245 
L 201.918971 247.179896 
L 201.918971 247.103548 
L 202.492789 247.0272 
L 202.492789 246.950852 
L 203.049619 246.874504 
L 203.049619 246.798155 
L 203.77393 246.721807 
L 203.77393 246.645459 
L 204.283017 246.569111 
L 204.283017 246.492762 
L 204.553062 246.416414 
L 204.644244 246.187369 
L 205.046212 246.111021 
L 205.046212 246.034673 
L 205.416504 245.958325 
L 205.50795 245.72928 
L 206.231601 245.652932 
L 206.231601 245.576584 
L 207.610752 245.500235 
L 207.71148 245.347539 
L 208.875092 245.271191 
L 208.875092 245.194842 
L 209.531206 245.118494 
L 209.531206 245.042146 
L 209.829311 244.965798 
L 209.882174 244.813101 
L 210.55011 244.736753 
L 210.55011 244.660405 
L 210.924582 244.584056 
L 211.004213 244.355012 
L 211.485061 244.278664 
L 211.485061 244.202315 
L 213.03059 244.125967 
L 213.03059 244.049619 
L 213.474748 243.973271 
L 213.567901 243.744226 
L 214.42315 243.667878 
L 214.42315 243.591529 
L 214.625784 243.515181 
L 214.625784 243.438833 
L 215.026364 243.362485 
L 215.121282 243.057092 
L 215.519636 242.980744 
L 215.595171 242.828047 
L 215.768011 242.751699 
L 215.768011 242.675351 
L 216.117237 242.599002 
L 216.117237 242.522654 
L 216.278017 242.446306 
L 216.353828 242.293609 
L 216.537195 242.217261 
L 216.537195 242.140913 
L 216.921162 242.064565 
L 216.996002 241.759172 
L 217.31137 241.682824 
L 217.40392 241.453779 
L 217.627242 241.377431 
L 217.702738 241.148386 
L 217.777178 241.072038 
L 217.783965 240.919341 
L 217.927425 240.842993 
L 218.008807 240.384904 
L 218.280258 240.308555 
L 218.33745 240.079511 
L 218.447311 240.003162 
L 218.479672 239.774118 
L 218.573531 239.697769 
L 218.62263 239.468725 
L 218.784538 239.392376 
L 218.847345 238.857939 
L 219.027816 238.857939 
L 219.135835 238.552546 
L 219.22823 238.476198 
L 219.335108 238.247153 
L 219.380529 238.170805 
L 219.449319 237.94176 
L 219.579296 237.865412 
L 219.657945 237.712715 
L 219.772933 237.636367 
L 219.772933 237.560019 
L 219.927967 237.483671 
L 220.029279 237.254626 
L 220.167616 237.178278 
L 220.232599 237.025581 
L 220.331301 237.025581 
L 220.435382 236.796536 
L 220.548331 236.720188 
L 220.581499 236.567492 
L 220.833223 236.491144 
L 220.84476 236.338447 
L 221.051227 236.262099 
L 221.132805 235.956706 
L 221.225022 235.880358 
L 221.323662 235.498616 
L 221.405936 235.422268 
L 221.440731 235.269572 
L 221.633114 235.193224 
L 221.735449 234.658786 
L 221.845435 234.658786 
L 221.845435 234.506089 
L 222.042163 234.429741 
L 222.11058 234.277045 
L 222.309608 234.200696 
L 222.376765 233.895304 
L 222.664265 233.818955 
L 222.664265 233.742607 
L 222.846032 233.666259 
L 222.846032 233.589911 
L 223.278841 233.513562 
L 223.386065 233.284518 
L 223.573495 233.208169 
L 223.573495 233.131821 
L 223.771421 233.055473 
L 223.771421 232.979125 
L 223.975425 232.902776 
L 223.975425 232.826428 
L 224.486787 232.75008 
L 224.528714 232.597384 
L 225.17238 232.521035 
L 225.17238 232.444687 
L 225.637476 232.368339 
L 225.637476 232.291991 
L 226.256667 232.215642 
L 226.256667 232.062946 
L 227.045091 231.986598 
L 227.045091 231.910249 
L 229.013971 231.833901 
L 229.013971 231.757553 
L 229.624243 231.681205 
L 229.624243 231.528508 
L 230.721266 231.45216 
L 230.811072 231.299464 
L 231.484119 231.223115 
L 231.573443 231.070419 
L 232.121781 230.994071 
L 232.185532 230.765026 
L 233.37064 230.688678 
L 233.37064 230.612329 
L 234.162038 230.535981 
L 234.267336 230.383285 
L 235.184318 230.306936 
L 235.184318 230.230588 
L 235.605609 230.15424 
L 235.605609 230.077892 
L 236.338975 230.001544 
L 236.370862 229.848847 
L 236.527819 229.772499 
L 236.527819 229.696151 
L 236.697415 229.619802 
L 236.716992 229.390758 
L 237.303565 229.314409 
L 237.303565 229.238061 
L 237.659721 229.161713 
L 237.659721 229.085365 
L 238.266708 229.009016 
L 238.341302 228.85632 
L 239.041962 228.779972 
L 239.041962 228.703624 
L 239.823593 228.627275 
L 239.823593 228.550927 
L 240.733428 228.474579 
L 240.733428 228.398231 
L 242.122433 228.321882 
L 242.227379 228.092838 
L 242.625007 228.016489 
L 242.625007 227.940141 
L 242.865237 227.863793 
L 242.972555 226.947614 
L 243.018544 226.947614 
L 243.115778 225.344301 
L 243.192697 225.267953 
L 243.300984 224.96256 
L 243.85958 224.886212 
L 243.93465 224.351774 
L 244.015592 224.275426 
L 244.084362 224.046381 
L 244.221522 223.970033 
L 244.263454 223.740988 
L 244.486132 223.66464 
L 244.530845 223.359247 
L 244.668682 223.282899 
L 244.686732 223.130202 
L 244.783812 223.053854 
L 244.858686 222.824809 
L 245.132259 222.748461 
L 245.238289 222.519416 
L 245.310681 222.443068 
L 245.395309 222.290372 
L 245.796002 222.214024 
L 245.832194 221.984979 
L 246.0064 221.908631 
L 246.105788 221.679586 
L 246.551102 221.603238 
L 246.551102 221.526889 
L 246.918623 221.450541 
L 246.918623 221.374193 
L 247.777937 221.297845 
L 247.777937 221.221496 
L 248.426964 221.145148 
L 248.426964 221.0688 
L 249.217262 220.992452 
L 249.217262 220.916104 
L 250.792499 220.839755 
L 250.792499 220.763407 
L 251.517994 220.687059 
L 251.612926 217.862174 
L 257.389197 217.785826 
L 257.389197 217.709478 
L 259.264994 217.633129 
L 259.264994 217.556781 
L 262.977172 217.480433 
L 262.977172 217.404085 
L 265.306007 217.327736 
L 265.334021 217.17504 
L 273.824516 217.098692 
L 273.868279 216.945995 
L 274.200364 216.869647 
L 274.306251 214.044762 
L 274.329327 213.968414 
L 274.431004 212.899539 
L 274.454892 212.899539 
L 274.564962 212.288753 
L 274.59352 212.212405 
L 274.656797 211.525271 
L 274.738292 211.525271 
L 274.80194 210.990833 
L 274.891324 210.914485 
L 274.993564 209.616565 
L 275.016065 209.540216 
L 275.12502 207.936904 
L 275.140932 207.860555 
L 275.243588 205.799153 
L 275.260856 205.799153 
L 275.366093 203.432358 
L 275.408672 203.356009 
L 275.517293 202.821572 
L 275.625847 202.745224 
L 275.685837 202.516179 
L 275.858235 202.439831 
L 275.95629 201.905393 
L 276.087124 201.829045 
L 276.180277 201.523652 
L 276.247241 201.447304 
L 276.305403 201.065562 
L 276.440028 200.989214 
L 276.542106 200.683821 
L 276.560726 200.683821 
L 276.654784 200.149384 
L 276.733486 200.149384 
L 276.78604 199.614946 
L 277.076125 199.538598 
L 277.11364 199.385901 
L 277.272279 199.385901 
L 277.33711 199.080508 
L 277.4372 199.080508 
L 277.502885 196.484668 
L 277.599025 196.40832 
L 277.704722 195.339445 
L 277.726603 195.339445 
L 277.835521 194.575962 
L 277.873377 194.499614 
L 277.976579 194.041525 
L 278.143709 194.041525 
L 278.143709 193.888828 
L 278.562497 193.888828 
L 278.562497 193.736132 
L 278.880039 193.736132 
L 278.944416 193.507087 
L 279.022958 193.507087 
L 279.13125 190.758551 
L 279.348696 190.758551 
L 279.348696 190.605854 
L 282.773584 190.529506 
L 282.773584 190.376809 
L 287.228112 190.300461 
L 287.327791 187.933666 
L 287.342473 187.857318 
L 287.447161 186.712094 
L 287.456821 186.635746 
L 287.548008 185.948612 
L 287.618227 185.872264 
L 287.723236 183.505468 
L 287.733963 183.42912 
L 287.841606 180.985976 
L 287.873766 180.909628 
L 287.954062 180.680584 
L 288.163148 180.604235 
L 288.243994 179.993449 
L 288.30999 179.917101 
L 288.405762 179.688056 
L 288.435404 179.611708 
L 288.537346 179.077271 
L 288.614804 179.000922 
L 288.671943 178.848226 
L 288.826946 178.848226 
L 288.937397 176.786824 
L 288.951347 176.710475 
L 289.051307 175.565252 
L 289.074122 175.488904 
L 289.138709 174.572725 
L 289.203947 174.496376 
L 289.303225 174.038287 
L 289.332596 174.038287 
L 289.332596 173.885591 
L 289.71385 173.809242 
L 289.794331 173.503849 
L 289.846121 173.427501 
L 289.855491 171.74784 
L 290.720686 171.671492 
L 290.720686 171.518795 
L 292.323889 171.518795 
L 292.330555 171.289751 
L 294.848947 171.213402 
L 294.957597 169.228348 
L 295.046496 169.152 
L 295.155284 167.930428 
L 295.16452 167.85408 
L 295.266034 165.716329 
L 295.311727 165.639981 
L 295.420784 165.334588 
L 295.454945 165.25824 
L 295.558657 164.647454 
L 295.575478 164.647454 
L 295.671559 163.731275 
L 295.734294 163.654927 
L 295.775339 163.425882 
L 295.873636 163.349534 
L 295.956381 163.120489 
L 295.993642 163.044141 
L 296.095543 161.593525 
L 296.157479 161.517176 
L 296.260213 161.211784 
L 296.347931 161.135435 
L 296.43686 160.906391 
L 296.636795 160.830042 
L 296.643326 159.684819 
L 300.261472 159.608471 
L 300.351265 157.852461 
L 300.416546 157.776113 
L 300.517711 155.867407 
L 300.543344 155.791059 
L 300.618981 154.951228 
L 300.750744 154.87488 
L 300.837037 154.493139 
L 300.885033 154.416791 
L 300.967178 153.57696 
L 301.113375 153.500612 
L 301.218946 151.668254 
L 301.266922 151.591906 
L 301.342836 151.286513 
L 301.394487 151.286513 
L 301.450525 150.828424 
L 301.564462 150.752075 
L 301.620792 149.301459 
L 301.686845 149.301459 
L 301.686845 149.148762 
L 302.399615 149.148762 
L 302.399615 148.996066 
L 304.476115 148.919718 
L 304.584906 148.003539 
L 304.610084 147.927191 
L 304.720364 146.323878 
L 304.850099 146.247529 
L 304.919611 145.713092 
L 304.98445 145.636744 
L 305.068923 145.178654 
L 305.15668 145.102306 
L 305.249594 143.880734 
L 305.279627 143.880734 
L 305.385657 143.346296 
L 305.491649 143.269948 
L 305.553005 142.277421 
L 305.606617 142.277421 
L 305.606617 142.124725 
L 307.902202 142.048376 
L 308.002903 141.437591 
L 308.041727 141.361242 
L 308.131312 140.216019 
L 308.236683 140.139671 
L 308.340911 139.070795 
L 308.359985 139.070795 
L 308.470807 138.307313 
L 308.473544 138.230965 
L 308.564133 137.620179 
L 308.687618 137.543831 
L 308.687618 137.467482 
L 308.803677 137.467482 
L 308.803677 137.314786 
L 309.745785 137.238438 
L 309.745785 137.162089 
L 310.795458 137.085741 
L 310.8997 136.704 
L 310.91646 136.627652 
L 310.990817 135.711473 
L 311.067747 135.635125 
L 311.177366 134.184508 
L 311.224287 134.10816 
L 311.321721 133.268329 
L 311.351531 133.191981 
L 311.453165 132.886588 
L 311.574525 132.886588 
L 311.574525 132.657544 
L 313.298665 132.657544 
L 313.396909 132.275802 
L 313.414889 132.199454 
L 313.450904 131.970409 
L 313.560329 131.970409 
L 313.653314 131.130579 
L 313.709597 131.054231 
L 313.812756 130.443445 
L 313.845639 130.367096 
L 313.88245 130.138052 
L 313.986552 130.061704 
L 313.989149 129.832659 
L 315.539904 129.756311 
L 315.649164 129.374569 
L 315.703723 129.298221 
L 315.811156 128.305694 
L 315.816536 128.305694 
L 315.92669 127.313167 
L 316.000768 127.236819 
L 316.102769 126.855078 
L 316.128798 126.778729 
L 316.128798 126.702381 
L 317.551637 126.626033 
L 317.637902 126.396988 
L 317.701514 126.32064 
L 317.791719 125.175416 
L 317.845966 125.099068 
L 317.882994 124.793675 
L 317.978835 124.717327 
L 318.036097 124.411934 
L 319.307458 124.335586 
L 319.417545 123.801148 
L 319.511961 123.7248 
L 319.622684 122.42688 
L 319.714263 122.350532 
L 319.817747 122.045139 
L 320.983059 121.968791 
L 321.017777 121.816094 
L 321.106865 121.739746 
L 321.215381 120.136433 
L 321.246709 120.060085 
L 321.328187 119.83104 
L 321.376122 119.754692 
L 321.410671 119.525647 
L 322.515073 119.449299 
L 322.623201 118.914861 
L 322.636237 118.914861 
L 322.704556 118.380424 
L 322.8029 118.304075 
L 322.879178 118.151379 
L 323.976516 118.075031 
L 324.07023 117.2352 
L 324.159549 117.158852 
L 324.159549 117.082504 
L 325.267505 117.006155 
L 325.359691 116.013628 
L 326.412821 115.93728 
L 326.511145 115.250146 
L 326.53037 115.250146 
L 326.610781 114.63936 
L 326.892382 114.563012 
L 326.892382 114.486664 
L 327.534812 114.410315 
L 327.641138 113.799529 
L 327.656691 113.723181 
L 327.719272 113.036047 
L 327.795577 112.959699 
L 327.795577 112.883351 
L 328.665511 112.807002 
L 328.767049 112.196216 
L 328.780921 112.196216 
L 328.876272 111.814475 
L 329.6831 111.738127 
L 329.765919 111.127341 
L 329.848966 111.127341 
L 329.848966 110.974645 
L 330.657071 110.898296 
L 330.753169 110.440207 
L 331.548636 110.363859 
L 331.607784 109.753073 
L 331.704874 109.676725 
L 331.704874 109.600376 
L 332.453254 109.524028 
L 332.546527 108.989591 
L 333.254472 108.913242 
L 333.28544 108.455153 
L 333.366456 108.455153 
L 333.394013 108.226108 
L 334.066719 108.226108 
L 334.158491 107.691671 
L 334.83971 107.615322 
L 334.943898 107.309929 
L 335.564371 107.233581 
L 335.64582 106.85184 
L 336.283132 106.775492 
L 336.35789 106.546447 
L 336.945669 106.470099 
L 336.954328 106.164706 
L 337.618725 106.088358 
L 337.703456 105.706616 
L 338.229322 105.630268 
L 338.24166 105.477572 
L 338.848612 105.401224 
L 338.872097 105.172179 
L 339.446907 105.095831 
L 339.461308 104.943134 
L 340.0118 104.866786 
L 340.060692 104.637741 
L 340.590081 104.561393 
L 340.650092 104.332348 
L 341.13744 104.256 
L 341.198235 104.026955 
L 341.651278 103.950607 
L 341.6824 103.645214 
L 342.195775 103.568866 
L 342.195775 103.492518 
L 342.670765 103.416169 
L 342.700168 103.187125 
L 344.539428 103.110776 
L 344.540972 102.95808 
L 345.053893 102.881732 
L 345.053893 102.805384 
L 345.440118 102.729035 
L 345.440118 102.652687 
L 346.25342 102.576339 
L 346.260949 102.423642 
L 347.818466 102.347294 
L 347.885926 102.194598 
L 348.19591 102.118249 
L 348.208554 101.965553 
L 348.570742 101.889205 
L 348.570742 101.812856 
L 348.953439 101.736508 
L 348.953439 101.66016 
L 349.636579 101.583812 
L 349.636579 101.507464 
L 352.446918 101.431115 
L 352.464755 101.278419 
L 353.631134 101.202071 
L 353.631134 101.125722 
L 354.663491 101.049374 
L 354.674211 100.896678 
L 360.8064 100.820329 
L 360.8064 100.820329 
" style="fill: none; stroke: #000080; stroke-width: 1.5; stroke-linecap: square"/>
   </g>
   <g id="line2d_36">
    <defs>
     <path id="m7b5f043b24" d="M 0 6 
C 1.591219 6 3.117479 5.367802 4.242641 4.242641 
C 5.367802 3.117479 6 1.591219 6 0 
C 6 -1.591219 5.367802 -3.117479 4.242641 -4.242641 
C 3.117479 -5.367802 1.591219 -6 0 -6 
C -1.591219 -6 -3.117479 -5.367802 -4.242641 -4.242641 
C -5.367802 -3.117479 -6 -1.591219 -6 0 
C -6 1.591219 -5.367802 3.117479 -4.242641 4.242641 
C -3.117479 5.367802 -1.591219 6 0 6 
z
" style="stroke: #000080; stroke-width: 1.5"/>
    </defs>
    <g>
     <use xlink:href="#m7b5f043b24" x="143.599145" y="267.564875" style="fill-opacity: 0; stroke: #000080; stroke-width: 1.5"/>
     <use xlink:href="#m7b5f043b24" x="230.811072" y="231.299464" style="fill-opacity: 0; stroke: #000080; stroke-width: 1.5"/>
     <use xlink:href="#m7b5f043b24" x="280.635253" y="190.605854" style="fill-opacity: 0; stroke: #000080; stroke-width: 1.5"/>
     <use xlink:href="#m7b5f043b24" x="359.664914" y="100.820329" style="fill-opacity: 0; stroke: #000080; stroke-width: 1.5"/>
     <use xlink:href="#m7b5f043b24" x="359.664914" y="100.820329" style="fill-opacity: 0; stroke: #000080; stroke-width: 1.5"/>
     <use xlink:href="#m7b5f043b24" x="360.8064" y="100.820329" style="fill-opacity: 0; stroke: #000080; stroke-width: 1.5"/>
    </g>
   </g>
   <g id="line2d_37">
    <path style="fill: none; stroke: #000080; stroke-width: 1.5; stroke-linecap: square"/>
    <g/>
   </g>
   <g id="line2d_38">
    <path d="M 274.176 216.945995 
" clip-path="url(#p2dce203c00)" style="fill: none; stroke: #000080; stroke-width: 1.5; stroke-linecap: square"/>
    <defs>
     <path id="m77012b08a2" d="M -12 12 
L 12 -12 
M -12 -12 
L 12 12 
" style="stroke: #000080"/>
    </defs>
    <g clip-path="url(#p2dce203c00)">
     <use xlink:href="#m77012b08a2" x="274.176" y="216.945995" style="fill: #000080; stroke: #000080"/>
    </g>
   </g>
   <g id="line2d_39">
    <defs>
     <path id="m5a5f14dd57" d="M 0 1.5 
C 0.397805 1.5 0.77937 1.341951 1.06066 1.06066 
C 1.341951 0.77937 1.5 0.397805 1.5 0 
C 1.5 -0.397805 1.341951 -0.77937 1.06066 -1.06066 
C 0.77937 -1.341951 0.397805 -1.5 0 -1.5 
C -0.397805 -1.5 -0.77937 -1.341951 -1.06066 -1.06066 
C -1.341951 -0.77937 -1.5 -0.397805 -1.5 0 
C -1.5 0.397805 -1.341951 0.77937 -1.06066 1.06066 
C -0.77937 1.341951 -0.397805 1.5 0 1.5 
z
" style="stroke: #ff00ff"/>
    </defs>
    <g>
     <use xlink:href="#m5a5f14dd57" x="355.910337" y="143.1936" style="fill: #ff00ff; stroke: #ff00ff"/>
     <use xlink:href="#m5a5f14dd57" x="355.910337" y="143.1936" style="fill: #ff00ff; stroke: #ff00ff"/>
    </g>
   </g>
   <g id="line2d_40">
    <path d="M 14.2848 298.944 
L 14.2848 291.15648 
L 27.323974 291.15648 
L 27.323974 290.469346 
L 34.951403 290.469346 
L 34.951403 290.316649 
L 40.363149 290.316649 
L 40.363149 290.011256 
L 44.560826 290.011256 
L 44.560826 289.85856 
L 47.990577 289.85856 
L 47.990577 289.705864 
L 50.890391 289.705864 
L 50.890391 289.476819 
L 59.392932 289.400471 
L 59.392932 289.247774 
L 63.929565 289.171426 
L 63.929565 289.018729 
L 75.574654 288.942381 
L 75.574654 288.713336 
L 78.88343 288.636988 
L 78.88343 288.56064 
L 80.621116 288.484292 
L 80.621116 288.407944 
L 82.211771 288.407944 
L 82.211771 288.255247 
L 83.678349 288.178899 
L 83.678349 288.102551 
L 85.471281 288.026202 
L 85.471281 287.949854 
L 85.894031 287.949854 
L 85.894031 287.720809 
L 87.1081 287.644461 
L 87.1081 287.568113 
L 88.613828 287.491765 
L 88.613828 287.415416 
L 88.972154 287.415416 
L 88.972154 287.26272 
L 90.340871 287.186372 
L 90.340871 287.110024 
L 92.519847 287.033675 
L 92.519847 286.957327 
L 96.480897 286.880979 
L 96.480897 286.804631 
L 97.410051 286.804631 
L 97.410051 286.651934 
L 97.857967 286.575586 
L 97.857967 286.499238 
L 98.933205 286.422889 
L 98.933205 286.270193 
L 99.950294 286.193845 
L 99.950294 286.117496 
L 100.342215 286.117496 
L 100.342215 285.735755 
L 101.287718 285.659407 
L 101.287718 285.506711 
L 102.362957 285.430362 
L 102.362957 285.354014 
L 103.047088 285.277666 
L 103.047088 285.201318 
L 103.544339 285.124969 
L 103.544339 284.895925 
L 104.501065 284.819576 
L 104.501065 284.056094 
L 105.559021 283.979746 
L 105.559021 283.903398 
L 106.699465 283.827049 
L 106.699465 283.674353 
L 108.416798 283.598005 
L 108.416798 283.521656 
L 108.791791 283.445308 
L 108.791791 282.987219 
L 109.756698 282.987219 
L 109.756698 282.834522 
L 110.335561 282.834522 
L 110.335561 282.681826 
L 110.449226 282.681826 
L 110.449226 282.147388 
L 110.897141 282.07104 
L 111.007473 281.841995 
L 113.284172 281.765647 
L 113.284172 281.689299 
L 114.141556 281.612951 
L 114.234452 281.383906 
L 114.872193 281.307558 
L 114.872193 281.154861 
L 115.227139 281.078513 
L 115.227139 280.925816 
L 115.747307 280.849468 
L 115.747307 280.696772 
L 116.086263 280.620424 
L 116.086263 280.544075 
L 116.583514 280.467727 
L 116.583514 280.315031 
L 117.067958 280.315031 
L 117.067958 280.085986 
L 117.462345 280.085986 
L 117.540239 279.169807 
L 117.924947 279.169807 
L 118.000953 278.635369 
L 118.301945 278.635369 
L 118.376446 278.406325 
L 119.034004 278.329976 
L 119.034004 278.17728 
L 119.669351 278.100932 
L 119.738639 277.719191 
L 119.807672 277.719191 
L 119.807672 277.184753 
L 121.008818 277.108405 
L 121.008818 277.032056 
L 121.137664 277.032056 
L 121.137664 276.803012 
L 121.329295 276.803012 
L 121.39274 276.344922 
L 121.768984 276.344922 
L 121.768984 275.963181 
L 122.19863 275.963181 
L 122.19863 275.810485 
L 122.736994 275.734136 
L 122.795872 274.741609 
L 122.854567 274.741609 
L 122.854567 274.207172 
L 123.317644 274.130824 
L 123.374735 273.596386 
L 123.769595 273.520038 
L 123.769595 273.290993 
L 124.046648 273.214645 
L 124.046648 273.061948 
L 124.319679 272.9856 
L 124.373813 272.832904 
L 124.481616 272.832904 
L 124.481616 272.680207 
L 124.959227 272.680207 
L 124.959227 272.527511 
L 125.322496 272.451162 
L 125.425011 272.145769 
L 126.127391 272.069421 
L 126.127391 271.840376 
L 126.899255 271.764028 
L 126.899255 271.68768 
L 127.273627 271.611332 
L 127.319904 271.382287 
L 128.354013 271.305939 
L 128.354013 271.229591 
L 128.700779 271.153242 
L 128.700779 270.695153 
L 128.999044 270.695153 
L 128.999044 270.542456 
L 129.458394 270.542456 
L 129.499602 270.313412 
L 130.027253 270.237064 
L 130.107132 269.931671 
L 130.344755 269.855322 
L 130.344755 269.778974 
L 130.46245 269.778974 
L 130.46245 269.473581 
L 130.734242 269.473581 
L 130.734242 269.244536 
L 131.040128 269.168188 
L 131.115828 268.862795 
L 131.526822 268.786447 
L 131.600593 268.557402 
L 132.109044 268.481054 
L 132.216233 268.252009 
L 132.322814 268.252009 
L 132.322814 268.099313 
L 133.01833 268.022965 
L 133.01833 267.946616 
L 133.356676 267.870268 
L 133.423621 267.641224 
L 133.589949 267.641224 
L 133.589949 267.488527 
L 133.918257 267.488527 
L 133.918257 267.259482 
L 135.116046 267.183134 
L 135.116046 267.030438 
L 135.478982 266.954089 
L 135.478982 266.877741 
L 135.628162 266.877741 
L 135.628162 266.419652 
L 136.010584 266.343304 
L 136.010584 266.266955 
L 136.242113 266.266955 
L 136.242113 266.114259 
L 136.612375 266.037911 
L 136.612375 265.961562 
L 136.836659 265.885214 
L 136.892314 265.732518 
L 137.574461 265.656169 
L 137.574461 265.579821 
L 137.840541 265.503473 
L 137.840541 265.427125 
L 138.154948 265.350776 
L 138.154948 265.274428 
L 138.489728 265.19808 
L 138.489728 265.121732 
L 139.117256 265.045384 
L 139.117256 264.969035 
L 139.962047 264.892687 
L 139.985636 264.739991 
L 142.038218 264.663642 
L 142.101521 264.510946 
L 142.41488 264.434598 
L 142.41488 264.358249 
L 142.865233 264.281901 
L 142.865233 264.205553 
L 143.344534 264.129205 
L 143.344534 264.052856 
L 143.754133 263.976508 
L 143.754133 263.747464 
L 145.004344 263.671115 
L 145.022388 263.442071 
L 145.643288 263.365722 
L 145.643288 263.213026 
L 145.886021 263.136678 
L 145.920443 262.754936 
L 146.744684 262.678588 
L 146.843174 262.220499 
L 147.391749 262.144151 
L 147.486917 261.991454 
L 147.831805 261.915106 
L 147.831805 261.838758 
L 148.533127 261.762409 
L 148.533127 261.609713 
L 149.107908 261.533365 
L 149.194798 261.227972 
L 149.889763 261.151624 
L 149.889763 261.075275 
L 150.152479 260.998927 
L 150.193627 260.846231 
L 150.680509 260.769882 
L 150.680509 260.693534 
L 151.076835 260.617186 
L 151.076835 260.540838 
L 151.60532 260.464489 
L 151.60532 260.388141 
L 151.895414 260.311793 
L 151.895414 260.159096 
L 152.20574 260.082748 
L 152.20574 260.0064 
L 152.498913 259.930052 
L 152.498913 259.777355 
L 153.095398 259.701007 
L 153.095398 259.624659 
L 153.351976 259.548311 
L 153.363556 259.319266 
L 154.023279 259.242918 
L 154.023279 259.166569 
L 154.377597 259.090221 
L 154.377597 259.013873 
L 154.584859 258.937525 
L 154.693034 258.784828 
L 154.896868 258.70848 
L 154.896868 258.632132 
L 155.639595 258.555784 
L 155.639595 258.479435 
L 155.995211 258.403087 
L 156.025382 258.097694 
L 156.560344 258.021346 
L 156.599372 257.792301 
L 157.194177 257.715953 
L 157.194177 257.639605 
L 157.475372 257.563256 
L 157.475372 257.486908 
L 157.862113 257.41056 
L 157.862113 257.334212 
L 158.187393 257.257864 
L 158.276759 257.028819 
L 158.454228 256.952471 
L 158.454228 256.876122 
L 158.778196 256.799774 
L 158.778196 256.723426 
L 158.993977 256.647078 
L 159.088142 256.418033 
L 159.334159 256.418033 
L 159.435025 256.188988 
L 159.996606 256.11264 
L 160.053475 255.959944 
L 160.271232 255.883595 
L 160.375185 255.654551 
L 160.494422 255.578202 
L 160.557708 255.425506 
L 160.785349 255.349158 
L 160.886507 255.120113 
L 161.293384 255.043765 
L 161.293384 254.967416 
L 161.869254 254.891068 
L 161.869254 254.81472 
L 162.277267 254.738372 
L 162.277267 254.662024 
L 162.79619 254.585675 
L 162.79619 254.356631 
L 162.928937 254.356631 
L 163.012297 254.127586 
L 163.477818 254.051238 
L 163.545315 253.898541 
L 163.839461 253.898541 
L 163.839461 253.745845 
L 164.174745 253.669496 
L 164.174745 253.5168 
L 164.452864 253.440452 
L 164.452864 253.364104 
L 165.009535 253.287755 
L 165.009535 253.211407 
L 165.550204 253.135059 
L 165.580463 252.906014 
L 166.004959 252.829666 
L 166.004959 252.753318 
L 166.425869 252.676969 
L 166.425869 252.600621 
L 167.073627 252.524273 
L 167.095955 252.295228 
L 167.580589 252.21888 
L 167.580589 252.142532 
L 167.893313 252.142532 
L 167.94671 251.837139 
L 168.415377 251.760791 
L 168.415377 251.684442 
L 168.765753 251.608094 
L 168.852337 251.455398 
L 169.224656 251.379049 
L 169.224656 251.226353 
L 169.575085 251.150005 
L 169.609283 250.844612 
L 169.981418 250.768264 
L 169.981418 250.691915 
L 170.205 250.615567 
L 170.205 250.539219 
L 170.4353 250.462871 
L 170.53779 250.310174 
L 170.787015 250.233826 
L 170.791599 250.081129 
L 171.141275 250.004781 
L 171.222088 249.852085 
L 171.422616 249.775736 
L 171.453618 249.62304 
L 171.660461 249.546692 
L 171.73036 249.241299 
L 172.237998 249.164951 
L 172.237998 249.088602 
L 172.541145 249.012254 
L 172.624492 248.783209 
L 172.732295 248.706861 
L 172.823033 248.32512 
L 173.031711 248.248772 
L 173.031711 248.172424 
L 173.298374 248.096075 
L 173.398404 247.867031 
L 173.620559 247.790682 
L 173.620559 247.714334 
L 173.805007 247.637986 
L 173.805007 247.561638 
L 174.487605 247.485289 
L 174.510187 247.332593 
L 174.786503 247.256245 
L 174.834629 247.103548 
L 174.989276 247.0272 
L 175.055166 246.645459 
L 175.146298 246.569111 
L 175.200767 246.416414 
L 175.305627 246.340066 
L 175.305627 246.263718 
L 175.705205 246.187369 
L 175.803787 246.034673 
L 176.054937 245.958325 
L 176.14826 245.805628 
L 176.435674 245.72928 
L 176.435674 245.652932 
L 176.564266 245.576584 
L 176.564266 245.423887 
L 176.795538 245.347539 
L 176.865364 245.118494 
L 177.317886 245.042146 
L 177.421282 244.736753 
L 177.565728 244.660405 
L 177.610441 244.507708 
L 177.822968 244.43136 
L 177.822968 244.355012 
L 178.101616 244.355012 
L 178.101616 244.202315 
L 178.440406 244.125967 
L 178.48309 243.973271 
L 178.604514 243.896922 
L 178.604514 243.820574 
L 178.803166 243.744226 
L 178.856981 243.286136 
L 179.094317 243.209788 
L 179.094317 243.13344 
L 179.305388 243.057092 
L 179.392641 242.828047 
L 179.528527 242.751699 
L 179.545804 242.599002 
L 179.924755 242.599002 
L 179.936034 242.369958 
L 180.190835 242.293609 
L 180.287923 241.988216 
L 180.345937 241.911868 
L 180.425758 241.606475 
L 180.584391 241.530127 
L 180.584391 241.453779 
L 181.176866 241.377431 
L 181.176866 241.301082 
L 181.498707 241.224734 
L 181.506489 241.072038 
L 181.694851 240.995689 
L 181.717944 240.690296 
L 181.835532 240.613948 
L 181.927048 240.232207 
L 182.111266 240.155859 
L 182.111266 240.079511 
L 182.516205 240.003162 
L 182.619148 239.697769 
L 182.740969 239.621421 
L 182.740969 239.468725 
L 183.082701 239.392376 
L 183.187342 239.086984 
L 183.300836 239.010635 
L 183.300836 238.934287 
L 183.467466 238.857939 
L 183.467466 238.781591 
L 184.112838 238.705242 
L 184.205179 238.399849 
L 184.245576 238.323501 
L 184.332807 238.170805 
L 184.572278 238.094456 
L 184.666781 237.865412 
L 184.736802 237.789064 
L 184.752084 237.483671 
L 184.984155 237.407322 
L 184.984155 237.330974 
L 185.164356 237.254626 
L 185.164356 237.178278 
L 185.408293 237.101929 
L 185.490306 236.796536 
L 185.636619 236.720188 
L 185.636619 236.567492 
L 185.999541 236.567492 
L 185.999541 236.414795 
L 186.305427 236.338447 
L 186.305427 236.262099 
L 186.728623 236.185751 
L 186.728623 236.109402 
L 186.902669 236.033054 
L 186.991998 235.880358 
L 187.428605 235.804009 
L 187.451306 235.651313 
L 187.743953 235.574965 
L 187.788574 235.422268 
L 188.243567 235.34592 
L 188.258062 235.193224 
L 188.793735 235.116875 
L 188.793735 235.040527 
L 188.99684 234.964179 
L 188.99684 234.887831 
L 189.353917 234.811482 
L 189.353917 234.735134 
L 190.585707 234.658786 
L 190.585707 234.582438 
L 192.52444 234.506089 
L 192.569142 234.353393 
L 192.738333 234.277045 
L 192.738333 234.200696 
L 193.537577 234.124348 
L 193.537577 234.048 
L 194.883624 233.971652 
L 194.883624 233.818955 
L 195.063603 233.742607 
L 195.063603 233.666259 
L 196.355327 233.589911 
L 196.355327 233.513562 
L 197.947733 233.437214 
L 198.013627 233.284518 
L 199.834477 233.208169 
L 199.834477 233.131821 
L 200.658934 233.055473 
L 200.658934 232.979125 
L 203.107286 232.902776 
L 203.107286 232.826428 
L 204.476738 232.75008 
L 204.476738 232.673732 
L 205.401948 232.597384 
L 205.401948 232.521035 
L 206.880044 232.444687 
L 206.880044 232.368339 
L 207.656018 232.291991 
L 207.656018 232.215642 
L 209.459164 232.139294 
L 209.459164 232.062946 
L 210.984743 231.986598 
L 210.984743 231.910249 
L 212.714899 231.833901 
L 212.714899 231.757553 
L 213.738351 231.681205 
L 213.738351 231.604856 
L 215.990768 231.528508 
L 215.990768 231.45216 
L 217.675079 231.375812 
L 217.675079 231.299464 
L 218.198938 231.223115 
L 218.198938 231.146767 
L 219.453459 231.070419 
L 219.453459 230.994071 
L 221.008082 230.917722 
L 221.008082 230.841374 
L 223.480988 230.765026 
L 223.480988 230.688678 
L 224.427032 230.612329 
L 224.440533 230.459633 
L 224.796777 230.383285 
L 224.796777 230.306936 
L 225.56707 230.230588 
L 225.56707 230.15424 
L 226.692259 230.077892 
L 226.692259 230.001544 
L 229.252348 229.925195 
L 229.252348 229.848847 
L 230.569804 229.772499 
L 230.569804 229.696151 
L 231.261146 229.619802 
L 231.261146 229.543454 
L 232.389377 229.467106 
L 232.389377 229.390758 
L 232.995208 229.314409 
L 232.995208 229.238061 
L 234.82665 229.161713 
L 234.82665 229.085365 
L 235.580596 229.009016 
L 235.580596 228.932668 
L 236.103994 228.85632 
L 236.103994 228.779972 
L 236.800995 228.703624 
L 236.882303 228.474579 
L 237.929718 228.398231 
L 237.964051 228.245534 
L 239.167818 228.169186 
L 239.167818 228.092838 
L 240.885737 228.016489 
L 240.971985 227.863793 
L 243.460715 227.787445 
L 243.460715 227.711096 
L 245.776177 227.634748 
L 245.776177 227.5584 
L 250.149757 227.482052 
L 250.149757 227.405704 
L 254.082842 227.329355 
L 254.082842 227.253007 
L 258.24713 227.176659 
L 258.24713 227.100311 
L 261.89455 227.023962 
L 261.89455 226.947614 
L 263.76482 226.871266 
L 263.76482 226.794918 
L 266.769714 226.718569 
L 266.769714 226.642221 
L 269.295592 226.565873 
L 269.295592 226.489525 
L 274.183617 226.413176 
L 274.29416 215.724424 
L 274.295618 215.724424 
L 274.381165 211.98336 
L 274.451833 211.907012 
L 274.528276 211.067181 
L 274.694551 211.067181 
L 274.76956 210.68544 
L 274.926189 210.609092 
L 275.010559 210.456395 
L 275.139681 210.380047 
L 275.139681 210.227351 
L 275.276813 210.151002 
L 275.276813 210.074654 
L 275.4241 210.074654 
L 275.491683 209.845609 
L 275.865338 209.769261 
L 275.942663 209.616565 
L 276.031505 209.540216 
L 276.113142 209.38752 
L 276.366064 209.311172 
L 276.450416 209.158475 
L 276.510762 209.158475 
L 276.510762 209.005779 
L 276.733223 208.929431 
L 276.831114 208.624038 
L 277.135738 208.624038 
L 277.135738 208.471341 
L 277.53325 208.394993 
L 277.53325 208.242296 
L 278.802398 208.165948 
L 278.802398 208.0896 
L 282.720829 208.0896 
L 282.720829 207.860555 
L 284.932798 207.784207 
L 284.932798 207.707859 
L 287.218635 207.631511 
L 287.318036 198.698767 
L 287.353597 198.622419 
L 287.445117 197.858936 
L 287.487151 197.858936 
L 287.553349 197.553544 
L 287.679763 197.477195 
L 287.773632 196.713713 
L 287.92059 196.637365 
L 287.992945 196.40832 
L 288.165795 196.331972 
L 288.256119 196.026579 
L 288.503869 195.950231 
L 288.503869 195.873882 
L 288.623857 195.873882 
L 288.623857 195.721186 
L 288.848293 195.644838 
L 288.848293 195.415793 
L 289.076295 195.339445 
L 289.186617 195.1104 
L 293.352189 195.1104 
L 293.352189 194.957704 
L 294.847606 194.881355 
L 294.942496 189.078889 
L 294.99621 189.002541 
L 295.042544 188.391755 
L 295.18147 188.315407 
L 295.267903 188.010014 
L 295.601309 187.933666 
L 295.653483 187.704621 
L 295.735789 187.704621 
L 295.793346 187.475576 
L 295.88179 187.475576 
L 295.88179 187.170184 
L 296.103578 187.170184 
L 296.103578 187.017487 
L 300.259479 186.941139 
L 300.369672 182.971031 
L 300.434568 182.894682 
L 300.53565 182.436593 
L 300.585482 182.360245 
L 300.647254 182.054852 
L 300.711811 182.054852 
L 300.78202 181.673111 
L 300.849248 181.596762 
L 300.865763 181.291369 
L 301.151482 181.215021 
L 301.207916 181.062325 
L 303.572019 180.985976 
L 303.572019 180.909628 
L 304.458135 180.83328 
L 304.556886 178.466485 
L 304.596338 178.466485 
L 304.677402 177.779351 
L 304.767003 177.703002 
L 304.767003 177.626654 
L 304.940097 177.550306 
L 305.028217 176.93952 
L 305.082401 176.93952 
L 305.082401 176.786824 
L 305.455715 176.710475 
L 305.47281 176.557779 
L 307.88474 176.481431 
L 307.982013 174.114635 
L 308.037918 174.038287 
L 308.144623 173.274805 
L 308.187985 173.198456 
L 308.291586 172.740367 
L 308.442052 172.664019 
L 308.522829 172.511322 
L 310.791042 172.434974 
L 310.884784 171.137054 
L 310.940091 171.060706 
L 310.940091 170.984358 
L 311.084927 170.908009 
L 311.123833 170.602616 
L 311.33239 170.526268 
L 311.33239 170.44992 
L 313.296371 170.373572 
L 313.399891 168.999304 
L 313.421315 168.999304 
L 313.491002 168.693911 
L 313.559209 168.617562 
L 313.655706 168.312169 
L 313.776348 168.235821 
L 313.776348 168.159473 
L 315.515295 168.083125 
L 315.613443 167.166946 
L 315.668266 167.090598 
L 315.73456 166.785205 
L 315.783401 166.708856 
L 315.831488 166.327115 
L 317.498163 166.250767 
L 317.58982 165.563633 
L 317.649348 165.487285 
L 317.694141 165.25824 
L 317.781502 165.181892 
L 317.878446 164.952847 
L 319.289293 164.876499 
L 319.331869 164.113016 
L 319.451772 164.113016 
L 319.548228 163.120489 
L 319.591803 163.044141 
L 319.591803 162.891445 
L 320.99193 162.815096 
L 321.067671 162.357007 
L 321.16318 162.280659 
L 321.16318 162.204311 
L 322.44092 162.127962 
L 322.548449 161.36448 
L 322.582981 161.36448 
L 322.650385 160.982739 
L 322.725266 160.906391 
L 322.725266 160.830042 
L 323.825414 160.753694 
L 323.933863 160.142908 
L 324.023358 160.06656 
L 324.023358 159.990212 
L 325.127153 159.913864 
L 325.194054 158.692292 
L 325.260794 158.615944 
L 325.307782 158.386899 
L 326.345394 158.310551 
L 326.431696 157.623416 
L 326.503433 157.547068 
L 326.575659 157.165327 
L 327.477237 157.088979 
L 327.528398 156.554541 
L 327.644449 156.478193 
L 327.644449 156.401845 
L 328.559665 156.325496 
L 328.666926 155.562014 
L 328.68523 155.562014 
L 328.751472 155.180273 
L 329.570564 155.180273 
L 329.662705 154.951228 
L 330.533856 154.87488 
L 330.637099 153.958701 
L 330.68996 153.882353 
L 330.68996 153.806005 
L 331.465119 153.729656 
L 331.566195 153.424264 
L 332.368198 153.347915 
L 332.447631 152.966174 
L 333.174968 152.889826 
L 333.278449 152.431736 
L 333.318642 152.355388 
L 333.318642 152.27904 
L 334.013817 152.202692 
L 334.122448 151.897299 
L 334.752157 151.897299 
L 334.855827 151.286513 
L 335.473667 151.210165 
L 335.521065 150.752075 
L 336.179394 150.675727 
L 336.267152 150.293986 
L 336.861967 150.293986 
L 336.961509 149.835896 
L 337.522019 149.759548 
L 337.540844 149.606852 
L 338.163975 149.530504 
L 338.238218 148.996066 
L 338.804952 148.919718 
L 338.868766 148.614325 
L 339.412155 148.537976 
L 339.412155 148.461628 
L 339.994249 148.38528 
L 340.039179 148.156235 
L 340.527773 148.079887 
L 340.592854 147.927191 
L 341.063421 147.850842 
L 341.154856 147.545449 
L 341.597429 147.469101 
L 341.644147 147.240056 
L 342.106483 147.163708 
L 342.117176 146.934664 
L 342.606778 146.858315 
L 342.694224 146.552922 
L 343.582688 146.476574 
L 343.609211 145.942136 
L 344.504606 145.865788 
L 344.521566 145.636744 
L 344.98395 145.560395 
L 344.98395 145.484047 
L 345.367099 145.407699 
L 345.381866 145.178654 
L 346.604735 145.102306 
L 346.627358 144.644216 
L 347.409906 144.567868 
L 347.409906 144.49152 
L 348.524745 144.415172 
L 348.575578 144.262475 
L 348.927626 144.186127 
L 348.927626 144.109779 
L 349.604063 144.033431 
L 349.605055 143.880734 
L 350.889045 143.804386 
L 350.889045 143.728038 
L 351.814854 143.651689 
L 351.814854 143.575341 
L 353.275828 143.498993 
L 353.320575 143.346296 
L 355.910337 143.269948 
L 355.910337 143.1936 
L 360.8064 143.1936 
L 360.8064 143.1936 
" style="fill: none; stroke: #ff00ff; stroke-width: 1.5; stroke-linecap: square"/>
   </g>
   <g id="line2d_41">
    <defs>
     <path id="mefb3276b9d" d="M 0 8.485281 
L 5.091169 0 
L 0 -8.485281 
L -5.091169 0 
z
" style="stroke: #ff00ff; stroke-width: 1.5; stroke-linejoin: miter"/>
    </defs>
    <g>
     <use xlink:href="#mefb3276b9d" x="75.574654" y="288.713336" style="fill-opacity: 0; stroke: #ff00ff; stroke-width: 1.5; stroke-linejoin: miter"/>
     <use xlink:href="#mefb3276b9d" x="158.2053" y="257.181515" style="fill-opacity: 0; stroke: #ff00ff; stroke-width: 1.5; stroke-linejoin: miter"/>
     <use xlink:href="#mefb3276b9d" x="240.971985" y="227.940141" style="fill-opacity: 0; stroke: #ff00ff; stroke-width: 1.5; stroke-linejoin: miter"/>
     <use xlink:href="#mefb3276b9d" x="324.023358" y="159.990212" style="fill-opacity: 0; stroke: #ff00ff; stroke-width: 1.5; stroke-linejoin: miter"/>
     <use xlink:href="#mefb3276b9d" x="355.910337" y="143.1936" style="fill-opacity: 0; stroke: #ff00ff; stroke-width: 1.5; stroke-linejoin: miter"/>
     <use xlink:href="#mefb3276b9d" x="360.8064" y="143.1936" style="fill-opacity: 0; stroke: #ff00ff; stroke-width: 1.5; stroke-linejoin: miter"/>
    </g>
   </g>
   <g id="line2d_42">
    <path style="fill: none; stroke: #ff00ff; stroke-width: 1.5; stroke-linecap: square"/>
    <g/>
   </g>
   <g id="line2d_43">
    <path d="M 274.176 226.489525 
" clip-path="url(#p2dce203c00)" style="fill: none; stroke: #ff00ff; stroke-width: 1.5; stroke-linecap: square"/>
    <defs>
     <path id="m5844b3bba3" d="M -12 12 
L 12 -12 
M -12 -12 
L 12 12 
" style="stroke: #ff00ff"/>
    </defs>
    <g clip-path="url(#p2dce203c00)">
     <use xlink:href="#m5844b3bba3" x="274.176" y="226.489525" style="fill: #ff00ff; stroke: #ff00ff"/>
    </g>
   </g>
   <g id="line2d_44">
    <path d="M 360.8064 143.1936 
L 380.514816 293.10336 
" style="fill: none; stroke: #ff00ff; stroke-width: 1.5; stroke-linecap: square"/>
    <g>
     <use xlink:href="#mefb3276b9d" x="360.8064" y="143.1936" style="fill-opacity: 0; stroke: #ff00ff; stroke-width: 1.5; stroke-linejoin: miter"/>
     <use xlink:href="#mefb3276b9d" x="380.514816" y="293.10336" style="fill-opacity: 0; stroke: #ff00ff; stroke-width: 1.5; stroke-linejoin: miter"/>
    </g>
   </g>
   <g id="line2d_45">
    <path d="M 360.8064 100.820329 
L 380.514816 152.928 
" style="fill: none; stroke: #000080; stroke-width: 1.5; stroke-linecap: square"/>
    <g>
     <use xlink:href="#m7b5f043b24" x="360.8064" y="100.820329" style="fill-opacity: 0; stroke: #000080; stroke-width: 1.5"/>
     <use xlink:href="#m7b5f043b24" x="380.514816" y="152.928" style="fill-opacity: 0; stroke: #000080; stroke-width: 1.5"/>
    </g>
   </g>
   <g id="line2d_46">
    <path d="M 360.8064 298.944 
L 360.8064 6.912 
" style="fill: none; stroke: #000000; stroke-width: 1.5; stroke-linecap: square"/>
   </g>
   <g id="patch_3">
    <path d="M 57.6 298.944 
L 360.8064 298.944 
" style="fill: none; stroke: #000000; stroke-width: 0.8; stroke-linejoin: miter; stroke-linecap: square"/>
   </g>
   <g id="patch_4">
    <path d="M 57.6 6.912 
L 360.8064 6.912 
" style="fill: none; stroke: #000000; stroke-width: 0.8; stroke-linejoin: miter; stroke-linecap: square"/>
   </g>
   <g id="text_13">
    <!-- PSO -->
    <g transform="translate(386.578944 296.966485)scale(0.14 -0.14)">
     <defs>
      <path id="DejaVuSans-50" d="M 1259 4147 
L 1259 2394 
L 2053 2394 
Q 2494 2394 2734 2622 
Q 2975 2850 2975 3272 
Q 2975 3691 2734 3919 
Q 2494 4147 2053 4147 
L 1259 4147 
z
M 628 4666 
L 2053 4666 
Q 2838 4666 3239 4311 
Q 3641 3956 3641 3272 
Q 3641 2581 3239 2228 
Q 2838 1875 2053 1875 
L 1259 1875 
L 1259 0 
L 628 0 
L 628 4666 
z
" transform="scale(0.015625)"/>
      <path id="DejaVuSans-53" d="M 3425 4513 
L 3425 3897 
Q 3066 4069 2747 4153 
Q 2428 4238 2131 4238 
Q 1616 4238 1336 4038 
Q 1056 3838 1056 3469 
Q 1056 3159 1242 3001 
Q 1428 2844 1947 2747 
L 2328 2669 
Q 3034 2534 3370 2195 
Q 3706 1856 3706 1288 
Q 3706 609 3251 259 
Q 2797 -91 1919 -91 
Q 1588 -91 1214 -16 
Q 841 59 441 206 
L 441 856 
Q 825 641 1194 531 
Q 1563 422 1919 422 
Q 2459 422 2753 634 
Q 3047 847 3047 1241 
Q 3047 1584 2836 1778 
Q 2625 1972 2144 2069 
L 1759 2144 
Q 1053 2284 737 2584 
Q 422 2884 422 3419 
Q 422 4038 858 4394 
Q 1294 4750 2059 4750 
Q 2388 4750 2728 4690 
Q 3069 4631 3425 4513 
z
" transform="scale(0.015625)"/>
      <path id="DejaVuSans-4f" d="M 2522 4238 
Q 1834 4238 1429 3725 
Q 1025 3213 1025 2328 
Q 1025 1447 1429 934 
Q 1834 422 2522 422 
Q 3209 422 3611 934 
Q 4013 1447 4013 2328 
Q 4013 3213 3611 3725 
Q 3209 4238 2522 4238 
z
M 2522 4750 
Q 3503 4750 4090 4092 
Q 4678 3434 4678 2328 
Q 4678 1225 4090 567 
Q 3503 -91 2522 -91 
Q 1538 -91 948 565 
Q 359 1222 359 2328 
Q 359 3434 948 4092 
Q 1538 4750 2522 4750 
z
" transform="scale(0.015625)"/>
     </defs>
     <use xlink:href="#DejaVuSans-50"/>
     <use xlink:href="#DejaVuSans-53" x="60.302734"/>
     <use xlink:href="#DejaVuSans-4f" x="123.779297"/>
    </g>
   </g>
   <g id="text_14">
    <!-- LCGA -->
    <g transform="translate(386.578944 156.791125)scale(0.14 -0.14)">
     <defs>
      <path id="DejaVuSans-4c" d="M 628 4666 
L 1259 4666 
L 1259 531 
L 3531 531 
L 3531 0 
L 628 0 
L 628 4666 
z
" transform="scale(0.015625)"/>
      <path id="DejaVuSans-43" d="M 4122 4306 
L 4122 3641 
Q 3803 3938 3442 4084 
Q 3081 4231 2675 4231 
Q 1875 4231 1450 3742 
Q 1025 3253 1025 2328 
Q 1025 1406 1450 917 
Q 1875 428 2675 428 
Q 3081 428 3442 575 
Q 3803 722 4122 1019 
L 4122 359 
Q 3791 134 3420 21 
Q 3050 -91 2638 -91 
Q 1578 -91 968 557 
Q 359 1206 359 2328 
Q 359 3453 968 4101 
Q 1578 4750 2638 4750 
Q 3056 4750 3426 4639 
Q 3797 4528 4122 4306 
z
" transform="scale(0.015625)"/>
      <path id="DejaVuSans-47" d="M 3809 666 
L 3809 1919 
L 2778 1919 
L 2778 2438 
L 4434 2438 
L 4434 434 
Q 4069 175 3628 42 
Q 3188 -91 2688 -91 
Q 1594 -91 976 548 
Q 359 1188 359 2328 
Q 359 3472 976 4111 
Q 1594 4750 2688 4750 
Q 3144 4750 3555 4637 
Q 3966 4525 4313 4306 
L 4313 3634 
Q 3963 3931 3569 4081 
Q 3175 4231 2741 4231 
Q 1884 4231 1454 3753 
Q 1025 3275 1025 2328 
Q 1025 1384 1454 906 
Q 1884 428 2741 428 
Q 3075 428 3337 486 
Q 3600 544 3809 666 
z
" transform="scale(0.015625)"/>
      <path id="DejaVuSans-41" d="M 2188 4044 
L 1331 1722 
L 3047 1722 
L 2188 4044 
z
M 1831 4666 
L 2547 4666 
L 4325 0 
L 3669 0 
L 3244 1197 
L 1141 1197 
L 716 0 
L 50 0 
L 1831 4666 
z
" transform="scale(0.015625)"/>
     </defs>
     <use xlink:href="#DejaVuSans-4c"/>
     <use xlink:href="#DejaVuSans-43" x="55.712891"/>
     <use xlink:href="#DejaVuSans-47" x="125.537109"/>
     <use xlink:href="#DejaVuSans-41" x="203.027344"/>
    </g>
   </g>
   <g id="text_15">
    <!-- best 2009 -->
    <g transform="translate(386.578944 16.615765)scale(0.14 -0.14)">
     <defs>
      <path id="DejaVuSans-62" d="M 3116 1747 
Q 3116 2381 2855 2742 
Q 2594 3103 2138 3103 
Q 1681 3103 1420 2742 
Q 1159 2381 1159 1747 
Q 1159 1113 1420 752 
Q 1681 391 2138 391 
Q 2594 391 2855 752 
Q 3116 1113 3116 1747 
z
M 1159 2969 
Q 1341 3281 1617 3432 
Q 1894 3584 2278 3584 
Q 2916 3584 3314 3078 
Q 3713 2572 3713 1747 
Q 3713 922 3314 415 
Q 2916 -91 2278 -91 
Q 1894 -91 1617 61 
Q 1341 213 1159 525 
L 1159 0 
L 581 0 
L 581 4863 
L 1159 4863 
L 1159 2969 
z
" transform="scale(0.015625)"/>
      <path id="DejaVuSans-39" d="M 703 97 
L 703 672 
Q 941 559 1184 500 
Q 1428 441 1663 441 
Q 2288 441 2617 861 
Q 2947 1281 2994 2138 
Q 2813 1869 2534 1725 
Q 2256 1581 1919 1581 
Q 1219 1581 811 2004 
Q 403 2428 403 3163 
Q 403 3881 828 4315 
Q 1253 4750 1959 4750 
Q 2769 4750 3195 4129 
Q 3622 3509 3622 2328 
Q 3622 1225 3098 567 
Q 2575 -91 1691 -91 
Q 1453 -91 1209 -44 
Q 966 3 703 97 
z
M 1959 2075 
Q 2384 2075 2632 2365 
Q 2881 2656 2881 3163 
Q 2881 3666 2632 3958 
Q 2384 4250 1959 4250 
Q 1534 4250 1286 3958 
Q 1038 3666 1038 3163 
Q 1038 2656 1286 2365 
Q 1534 2075 1959 2075 
z
" transform="scale(0.015625)"/>
     </defs>
     <use xlink:href="#DejaVuSans-62"/>
     <use xlink:href="#DejaVuSans-65" x="63.476562"/>
     <use xlink:href="#DejaVuSans-73" x="125"/>
     <use xlink:href="#DejaVuSans-74" x="177.099609"/>
     <use xlink:href="#DejaVuSans-20" x="216.308594"/>
     <use xlink:href="#DejaVuSans-32" x="248.095703"/>
     <use xlink:href="#DejaVuSans-30" x="311.71875"/>
     <use xlink:href="#DejaVuSans-30" x="375.341797"/>
     <use xlink:href="#DejaVuSans-39" x="438.964844"/>
    </g>
   </g>
   <g id="text_16">
    <!-- bbob f20-f24, 10-D -->
    <g transform="translate(60.632064 17.582726)scale(0.102 -0.102)">
     <defs>
      <path id="DejaVuSans-44" d="M 1259 4147 
L 1259 519 
L 2022 519 
Q 2988 519 3436 956 
Q 3884 1394 3884 2338 
Q 3884 3275 3436 3711 
Q 2988 4147 2022 4147 
L 1259 4147 
z
M 628 4666 
L 1925 4666 
Q 3281 4666 3915 4102 
Q 4550 3538 4550 2338 
Q 4550 1131 3912 565 
Q 3275 0 1925 0 
L 628 0 
L 628 4666 
z
" transform="scale(0.015625)"/>
     </defs>
     <use xlink:href="#DejaVuSans-62"/>
     <use xlink:href="#DejaVuSans-62" x="63.476562"/>
     <use xlink:href="#DejaVuSans-6f" x="126.953125"/>
     <use xlink:href="#DejaVuSans-62" x="188.134766"/>
     <use xlink:href="#DejaVuSans-20" x="251.611328"/>
     <use xlink:href="#DejaVuSans-66" x="283.398438"/>
     <use xlink:href="#DejaVuSans-32" x="318.603516"/>
     <use xlink:href="#DejaVuSans-30" x="382.226562"/>
     <use xlink:href="#DejaVuSans-2d" x="445.849609"/>
     <use xlink:href="#DejaVuSans-66" x="481.933594"/>
     <use xlink:href="#DejaVuSans-32" x="517.138672"/>
     <use xlink:href="#DejaVuSans-34" x="580.761719"/>
     <use xlink:href="#DejaVuSans-2c" x="644.384766"/>
     <use xlink:href="#DejaVuSans-20" x="676.171875"/>
     <use xlink:href="#DejaVuSans-31" x="707.958984"/>
     <use xlink:href="#DejaVuSans-30" x="771.582031"/>
     <use xlink:href="#DejaVuSans-2d" x="835.205078"/>
     <use xlink:href="#DejaVuSans-44" x="871.289062"/>
    </g>
    <!-- 51 targets: 100..1e-08 -->
    <g transform="translate(60.632064 29.004495)scale(0.102 -0.102)">
     <defs>
      <path id="DejaVuSans-35" d="M 691 4666 
L 3169 4666 
L 3169 4134 
L 1269 4134 
L 1269 2991 
Q 1406 3038 1543 3061 
Q 1681 3084 1819 3084 
Q 2600 3084 3056 2656 
Q 3513 2228 3513 1497 
Q 3513 744 3044 326 
Q 2575 -91 1722 -91 
Q 1428 -91 1123 -41 
Q 819 9 494 109 
L 494 744 
Q 775 591 1075 516 
Q 1375 441 1709 441 
Q 2250 441 2565 725 
Q 2881 1009 2881 1497 
Q 2881 1984 2565 2268 
Q 2250 2553 1709 2553 
Q 1456 2553 1204 2497 
Q 953 2441 691 2322 
L 691 4666 
z
" transform="scale(0.015625)"/>
      <path id="DejaVuSans-3a" d="M 750 794 
L 1409 794 
L 1409 0 
L 750 0 
L 750 794 
z
M 750 3309 
L 1409 3309 
L 1409 2516 
L 750 2516 
L 750 3309 
z
" transform="scale(0.015625)"/>
     </defs>
     <use xlink:href="#DejaVuSans-35"/>
     <use xlink:href="#DejaVuSans-31" x="63.623047"/>
     <use xlink:href="#DejaVuSans-20" x="127.246094"/>
     <use xlink:href="#DejaVuSans-74" x="159.033203"/>
     <use xlink:href="#DejaVuSans-61" x="198.242188"/>
     <use xlink:href="#DejaVuSans-72" x="259.521484"/>
     <use xlink:href="#DejaVuSans-67" x="298.884766"/>
     <use xlink:href="#DejaVuSans-65" x="362.361328"/>
     <use xlink:href="#DejaVuSans-74" x="423.884766"/>
     <use xlink:href="#DejaVuSans-73" x="463.09375"/>
     <use xlink:href="#DejaVuSans-3a" x="515.193359"/>
     <use xlink:href="#DejaVuSans-20" x="548.884766"/>
     <use xlink:href="#DejaVuSans-31" x="580.671875"/>
     <use xlink:href="#DejaVuSans-30" x="644.294922"/>
     <use xlink:href="#DejaVuSans-30" x="707.917969"/>
     <use xlink:href="#DejaVuSans-2e" x="771.541016"/>
     <use xlink:href="#DejaVuSans-2e" x="803.328125"/>
     <use xlink:href="#DejaVuSans-31" x="835.115234"/>
     <use xlink:href="#DejaVuSans-65" x="898.738281"/>
     <use xlink:href="#DejaVuSans-2d" x="960.261719"/>
     <use xlink:href="#DejaVuSans-30" x="996.345703"/>
     <use xlink:href="#DejaVuSans-38" x="1059.96875"/>
    </g>
    <!-- 15 instances -->
    <g transform="translate(60.632064 40.426264)scale(0.102 -0.102)">
     <use xlink:href="#DejaVuSans-31"/>
     <use xlink:href="#DejaVuSans-35" x="63.623047"/>
     <use xlink:href="#DejaVuSans-20" x="127.246094"/>
     <use xlink:href="#DejaVuSans-69" x="159.033203"/>
     <use xlink:href="#DejaVuSans-6e" x="186.816406"/>
     <use xlink:href="#DejaVuSans-73" x="250.195312"/>
     <use xlink:href="#DejaVuSans-74" x="302.294922"/>
     <use xlink:href="#DejaVuSans-61" x="341.503906"/>
     <use xlink:href="#DejaVuSans-6e" x="402.783203"/>
     <use xlink:href="#DejaVuSans-63" x="466.162109"/>
     <use xlink:href="#DejaVuSans-65" x="521.142578"/>
     <use xlink:href="#DejaVuSans-73" x="582.666016"/>
    </g>
   </g>
   <g id="text_17">
    <!-- v2.6 -->
    <g style="fill: #808080" transform="translate(198.292262 293.943992)scale(0.1 -0.1)">
     <use xlink:href="#DejaVuSans-76"/>
     <use xlink:href="#DejaVuSans-32" x="59.179688"/>
     <use xlink:href="#DejaVuSans-2e" x="122.802734"/>
     <use xlink:href="#DejaVuSans-36" x="154.589844"/>
    </g>
   </g>
  </g>
 </g>
 <defs>
  <clipPath id="p2dce203c00">
   <rect x="57.6" y="6.912" width="303.2064" height="292.032"/>
  </clipPath>
 </defs>
</svg>
