<?xml version="1.0" encoding="utf-8" standalone="no"?>
<!DOCTYPE svg PUBLIC "-//W3C//DTD SVG 1.1//EN"
  "http://www.w3.org/Graphics/SVG/1.1/DTD/svg11.dtd">
<svg xmlns:xlink="http://www.w3.org/1999/xlink" width="460.8pt" height="345.6pt" viewBox="0 0 460.8 345.6" xmlns="http://www.w3.org/2000/svg" version="1.1">
 <metadata>
  <rdf:RDF xmlns:dc="http://purl.org/dc/elements/1.1/" xmlns:cc="http://creativecommons.org/ns#" xmlns:rdf="http://www.w3.org/1999/02/22-rdf-syntax-ns#">
   <cc:Work>
    <dc:type rdf:resource="http://purl.org/dc/dcmitype/StillImage"/>
    <dc:date>2024-05-29T08:08:41.468050</dc:date>
    <dc:format>image/svg+xml</dc:format>
    <dc:creator>
     <cc:Agent>
      <dc:title>Matplotlib v3.5.1, https://matplotlib.org/</dc:title>
     </cc:Agent>
    </dc:creator>
   </cc:Work>
  </rdf:RDF>
 </metadata>
 <defs>
  <style type="text/css">*{stroke-linejoin: round; stroke-linecap: butt}</style>
 </defs>
 <g id="figure_1">
  <g id="patch_1">
   <path d="M 0 345.6 
L 460.8 345.6 
L 460.8 0 
L 0 0 
z
" style="fill: #ffffff"/>
  </g>
  <g id="axes_1">
   <g id="patch_2">
    <path d="M 57.6 298.944 
L 360.8064 298.944 
L 360.8064 27.648 
L 57.6 27.648 
z
" style="fill: #ffffff"/>
   </g>
   <g id="line2d_1">
    <path d="M 67.209423 298.944 
L 67.209423 293.624471 
L 80.248597 293.624471 
L 80.248597 288.304941 
L 94.205591 288.304941 
L 94.205591 282.985412 
L 104.344952 282.985412 
L 104.344952 277.665882 
L 105.850679 277.665882 
L 105.850679 272.346353 
L 106.326946 272.346353 
L 106.326946 267.026824 
L 107.244765 267.026824 
L 107.244765 261.707294 
L 157.795157 261.707294 
L 157.795157 256.387765 
L 162.634233 256.387765 
L 162.634233 251.068235 
L 162.751732 251.068235 
L 162.751732 245.748706 
L 162.868502 245.748706 
L 162.868502 240.429176 
L 163.865975 240.429176 
L 163.865975 235.109647 
L 163.932096 235.109647 
L 163.932096 224.470588 
L 164.107292 224.470588 
L 164.107292 219.151059 
L 164.172572 219.151059 
L 164.172572 213.831529 
L 164.686815 213.831529 
L 164.686815 208.512 
L 165.166781 208.512 
L 165.166781 203.192471 
L 165.187374 203.192471 
L 165.187374 192.553412 
L 165.330896 192.553412 
L 165.330896 187.233882 
L 165.695002 187.233882 
L 165.695002 181.914353 
L 165.715025 181.914353 
L 165.715025 171.275294 
L 165.814821 171.275294 
L 165.814821 165.955765 
L 165.953653 165.955765 
L 165.953653 160.636235 
L 166.189291 160.636235 
L 166.189291 155.316706 
L 166.651893 155.316706 
L 166.651893 139.358118 
L 166.670924 139.358118 
L 166.670924 128.719059 
L 167.121972 128.719059 
L 167.121972 123.399529 
L 167.140533 123.399529 
L 167.140533 112.760471 
L 167.159075 112.760471 
L 167.159075 107.440941 
L 167.1776 107.440941 
L 167.1776 102.121412 
L 167.453299 102.121412 
L 167.453299 86.162824 
L 167.580589 86.162824 
L 167.580589 75.523765 
L 167.598703 75.523765 
L 167.598703 70.204235 
L 167.652941 70.204235 
L 167.652941 59.565176 
L 167.689013 59.565176 
L 167.689013 48.926118 
L 167.796816 48.926118 
L 167.796816 32.967529 
L 183.842993 32.967529 
L 183.842993 27.648 
L 360.8064 27.648 
" style="fill: none; stroke: #f5deb3; stroke-width: 4; stroke-linecap: square"/>
   </g>
   <g id="line2d_2">
    <defs>
     <path id="mb8e1cc2e5b" d="M 0 7.778175 
L 7.778175 0 
L 0 -7.778175 
L -7.778175 0 
z
" style="stroke: #f5deb3; stroke-width: 1.5; stroke-linejoin: miter"/>
    </defs>
    <g>
     <use xlink:href="#mb8e1cc2e5b" x="165.953653" y="165.955765" style="fill: #f5deb3; stroke: #f5deb3; stroke-width: 1.5; stroke-linejoin: miter"/>
     <use xlink:href="#mb8e1cc2e5b" x="167.796816" y="32.967529" style="fill: #f5deb3; stroke: #f5deb3; stroke-width: 1.5; stroke-linejoin: miter"/>
     <use xlink:href="#mb8e1cc2e5b" x="183.842993" y="27.648" style="fill: #f5deb3; stroke: #f5deb3; stroke-width: 1.5; stroke-linejoin: miter"/>
     <use xlink:href="#mb8e1cc2e5b" x="183.842993" y="27.648" style="fill: #f5deb3; stroke: #f5deb3; stroke-width: 1.5; stroke-linejoin: miter"/>
     <use xlink:href="#mb8e1cc2e5b" x="360.8064" y="27.648" style="fill: #f5deb3; stroke: #f5deb3; stroke-width: 1.5; stroke-linejoin: miter"/>
    </g>
   </g>
   <g id="line2d_3">
    <path style="fill: none; stroke: #f5deb3; stroke-width: 4; stroke-linecap: square"/>
    <g/>
   </g>
   <g id="line2d_4">
    <path d="M 360.8064 27.648 
L 380.514816 33.07392 
" style="fill: none; stroke: #f5deb3; stroke-width: 4; stroke-linecap: square"/>
    <g>
     <use xlink:href="#mb8e1cc2e5b" x="360.8064" y="27.648" style="fill: #f5deb3; stroke: #f5deb3; stroke-width: 1.5; stroke-linejoin: miter"/>
     <use xlink:href="#mb8e1cc2e5b" x="380.514816" y="33.07392" style="fill: #f5deb3; stroke: #f5deb3; stroke-width: 1.5; stroke-linejoin: miter"/>
    </g>
   </g>
   <g id="matplotlib.axis_1">
    <g id="xtick_1">
     <g id="line2d_5">
      <path d="M 57.6 298.944 
L 57.6 27.648 
" clip-path="url(#p153690ae5c)" style="fill: none; stroke: #b0b0b0; stroke-width: 0.8; stroke-linecap: square"/>
     </g>
     <g id="line2d_6">
      <defs>
       <path id="m4727df8325" d="M 0 0 
L 0 3.5 
" style="stroke: #000000; stroke-width: 0.8"/>
      </defs>
      <g>
       <use xlink:href="#m4727df8325" x="57.6" y="298.944" style="stroke: #000000; stroke-width: 0.8"/>
      </g>
     </g>
     <g id="text_1">
      <!-- 0 -->
      <g transform="translate(52.191875 318.861344)scale(0.17 -0.17)">
       <defs>
        <path id="DejaVuSans-30" d="M 2034 4250 
Q 1547 4250 1301 3770 
Q 1056 3291 1056 2328 
Q 1056 1369 1301 889 
Q 1547 409 2034 409 
Q 2525 409 2770 889 
Q 3016 1369 3016 2328 
Q 3016 3291 2770 3770 
Q 2525 4250 2034 4250 
z
M 2034 4750 
Q 2819 4750 3233 4129 
Q 3647 3509 3647 2328 
Q 3647 1150 3233 529 
Q 2819 -91 2034 -91 
Q 1250 -91 836 529 
Q 422 1150 422 2328 
Q 422 3509 836 4129 
Q 1250 4750 2034 4750 
z
" transform="scale(0.015625)"/>
       </defs>
       <use xlink:href="#DejaVuSans-30"/>
      </g>
     </g>
    </g>
    <g id="xtick_2">
     <g id="line2d_7">
      <path d="M 144.2304 298.944 
L 144.2304 27.648 
" clip-path="url(#p153690ae5c)" style="fill: none; stroke: #b0b0b0; stroke-width: 0.8; stroke-linecap: square"/>
     </g>
     <g id="line2d_8">
      <g>
       <use xlink:href="#m4727df8325" x="144.2304" y="298.944" style="stroke: #000000; stroke-width: 0.8"/>
      </g>
     </g>
     <g id="text_2">
      <!-- 2 -->
      <g transform="translate(138.822275 318.861344)scale(0.17 -0.17)">
       <defs>
        <path id="DejaVuSans-32" d="M 1228 531 
L 3431 531 
L 3431 0 
L 469 0 
L 469 531 
Q 828 903 1448 1529 
Q 2069 2156 2228 2338 
Q 2531 2678 2651 2914 
Q 2772 3150 2772 3378 
Q 2772 3750 2511 3984 
Q 2250 4219 1831 4219 
Q 1534 4219 1204 4116 
Q 875 4013 500 3803 
L 500 4441 
Q 881 4594 1212 4672 
Q 1544 4750 1819 4750 
Q 2544 4750 2975 4387 
Q 3406 4025 3406 3419 
Q 3406 3131 3298 2873 
Q 3191 2616 2906 2266 
Q 2828 2175 2409 1742 
Q 1991 1309 1228 531 
z
" transform="scale(0.015625)"/>
       </defs>
       <use xlink:href="#DejaVuSans-32"/>
      </g>
     </g>
    </g>
    <g id="xtick_3">
     <g id="line2d_9">
      <path d="M 230.8608 298.944 
L 230.8608 27.648 
" clip-path="url(#p153690ae5c)" style="fill: none; stroke: #b0b0b0; stroke-width: 0.8; stroke-linecap: square"/>
     </g>
     <g id="line2d_10">
      <g>
       <use xlink:href="#m4727df8325" x="230.8608" y="298.944" style="stroke: #000000; stroke-width: 0.8"/>
      </g>
     </g>
     <g id="text_3">
      <!-- 4 -->
      <g transform="translate(225.452675 318.861344)scale(0.17 -0.17)">
       <defs>
        <path id="DejaVuSans-34" d="M 2419 4116 
L 825 1625 
L 2419 1625 
L 2419 4116 
z
M 2253 4666 
L 3047 4666 
L 3047 1625 
L 3713 1625 
L 3713 1100 
L 3047 1100 
L 3047 0 
L 2419 0 
L 2419 1100 
L 313 1100 
L 313 1709 
L 2253 4666 
z
" transform="scale(0.015625)"/>
       </defs>
       <use xlink:href="#DejaVuSans-34"/>
      </g>
     </g>
    </g>
    <g id="xtick_4">
     <g id="line2d_11">
      <path d="M 317.4912 298.944 
L 317.4912 27.648 
" clip-path="url(#p153690ae5c)" style="fill: none; stroke: #b0b0b0; stroke-width: 0.8; stroke-linecap: square"/>
     </g>
     <g id="line2d_12">
      <g>
       <use xlink:href="#m4727df8325" x="317.4912" y="298.944" style="stroke: #000000; stroke-width: 0.8"/>
      </g>
     </g>
     <g id="text_4">
      <!-- 6 -->
      <g transform="translate(312.083075 318.861344)scale(0.17 -0.17)">
       <defs>
        <path id="DejaVuSans-36" d="M 2113 2584 
Q 1688 2584 1439 2293 
Q 1191 2003 1191 1497 
Q 1191 994 1439 701 
Q 1688 409 2113 409 
Q 2538 409 2786 701 
Q 3034 994 3034 1497 
Q 3034 2003 2786 2293 
Q 2538 2584 2113 2584 
z
M 3366 4563 
L 3366 3988 
Q 3128 4100 2886 4159 
Q 2644 4219 2406 4219 
Q 1781 4219 1451 3797 
Q 1122 3375 1075 2522 
Q 1259 2794 1537 2939 
Q 1816 3084 2150 3084 
Q 2853 3084 3261 2657 
Q 3669 2231 3669 1497 
Q 3669 778 3244 343 
Q 2819 -91 2113 -91 
Q 1303 -91 875 529 
Q 447 1150 447 2328 
Q 447 3434 972 4092 
Q 1497 4750 2381 4750 
Q 2619 4750 2861 4703 
Q 3103 4656 3366 4563 
z
" transform="scale(0.015625)"/>
       </defs>
       <use xlink:href="#DejaVuSans-36"/>
      </g>
     </g>
    </g>
    <g id="xtick_5">
     <g id="line2d_13">
      <path d="M 100.9152 298.944 
L 100.9152 27.648 
" clip-path="url(#p153690ae5c)" style="fill: none; stroke: #b0b0b0; stroke-width: 0.8; stroke-linecap: square"/>
     </g>
     <g id="line2d_14">
      <defs>
       <path id="mc4dab8043f" d="M 0 0 
L 0 2 
" style="stroke: #000000; stroke-width: 0.6"/>
      </defs>
      <g>
       <use xlink:href="#mc4dab8043f" x="100.9152" y="298.944" style="stroke: #000000; stroke-width: 0.6"/>
      </g>
     </g>
    </g>
    <g id="xtick_6">
     <g id="line2d_15">
      <path d="M 187.5456 298.944 
L 187.5456 27.648 
" clip-path="url(#p153690ae5c)" style="fill: none; stroke: #b0b0b0; stroke-width: 0.8; stroke-linecap: square"/>
     </g>
     <g id="line2d_16">
      <g>
       <use xlink:href="#mc4dab8043f" x="187.5456" y="298.944" style="stroke: #000000; stroke-width: 0.6"/>
      </g>
     </g>
    </g>
    <g id="xtick_7">
     <g id="line2d_17">
      <path d="M 274.176 298.944 
L 274.176 27.648 
" clip-path="url(#p153690ae5c)" style="fill: none; stroke: #b0b0b0; stroke-width: 0.8; stroke-linecap: square"/>
     </g>
     <g id="line2d_18">
      <g>
       <use xlink:href="#mc4dab8043f" x="274.176" y="298.944" style="stroke: #000000; stroke-width: 0.6"/>
      </g>
     </g>
    </g>
    <g id="xtick_8">
     <g id="line2d_19">
      <path d="M 360.8064 298.944 
L 360.8064 27.648 
" clip-path="url(#p153690ae5c)" style="fill: none; stroke: #b0b0b0; stroke-width: 0.8; stroke-linecap: square"/>
     </g>
     <g id="line2d_20">
      <g>
       <use xlink:href="#mc4dab8043f" x="360.8064" y="298.944" style="stroke: #000000; stroke-width: 0.6"/>
      </g>
     </g>
    </g>
    <g id="text_5">
     <!-- log10(# f-evals / dimension) -->
     <g transform="translate(88.823278 339.314156)scale(0.17 -0.17)">
      <defs>
       <path id="DejaVuSans-6c" d="M 603 4863 
L 1178 4863 
L 1178 0 
L 603 0 
L 603 4863 
z
" transform="scale(0.015625)"/>
       <path id="DejaVuSans-6f" d="M 1959 3097 
Q 1497 3097 1228 2736 
Q 959 2375 959 1747 
Q 959 1119 1226 758 
Q 1494 397 1959 397 
Q 2419 397 2687 759 
Q 2956 1122 2956 1747 
Q 2956 2369 2687 2733 
Q 2419 3097 1959 3097 
z
M 1959 3584 
Q 2709 3584 3137 3096 
Q 3566 2609 3566 1747 
Q 3566 888 3137 398 
Q 2709 -91 1959 -91 
Q 1206 -91 779 398 
Q 353 888 353 1747 
Q 353 2609 779 3096 
Q 1206 3584 1959 3584 
z
" transform="scale(0.015625)"/>
       <path id="DejaVuSans-67" d="M 2906 1791 
Q 2906 2416 2648 2759 
Q 2391 3103 1925 3103 
Q 1463 3103 1205 2759 
Q 947 2416 947 1791 
Q 947 1169 1205 825 
Q 1463 481 1925 481 
Q 2391 481 2648 825 
Q 2906 1169 2906 1791 
z
M 3481 434 
Q 3481 -459 3084 -895 
Q 2688 -1331 1869 -1331 
Q 1566 -1331 1297 -1286 
Q 1028 -1241 775 -1147 
L 775 -588 
Q 1028 -725 1275 -790 
Q 1522 -856 1778 -856 
Q 2344 -856 2625 -561 
Q 2906 -266 2906 331 
L 2906 616 
Q 2728 306 2450 153 
Q 2172 0 1784 0 
Q 1141 0 747 490 
Q 353 981 353 1791 
Q 353 2603 747 3093 
Q 1141 3584 1784 3584 
Q 2172 3584 2450 3431 
Q 2728 3278 2906 2969 
L 2906 3500 
L 3481 3500 
L 3481 434 
z
" transform="scale(0.015625)"/>
       <path id="DejaVuSans-31" d="M 794 531 
L 1825 531 
L 1825 4091 
L 703 3866 
L 703 4441 
L 1819 4666 
L 2450 4666 
L 2450 531 
L 3481 531 
L 3481 0 
L 794 0 
L 794 531 
z
" transform="scale(0.015625)"/>
       <path id="DejaVuSans-28" d="M 1984 4856 
Q 1566 4138 1362 3434 
Q 1159 2731 1159 2009 
Q 1159 1288 1364 580 
Q 1569 -128 1984 -844 
L 1484 -844 
Q 1016 -109 783 600 
Q 550 1309 550 2009 
Q 550 2706 781 3412 
Q 1013 4119 1484 4856 
L 1984 4856 
z
" transform="scale(0.015625)"/>
       <path id="DejaVuSans-23" d="M 3272 2816 
L 2363 2816 
L 2100 1772 
L 3016 1772 
L 3272 2816 
z
M 2803 4594 
L 2478 3297 
L 3391 3297 
L 3719 4594 
L 4219 4594 
L 3897 3297 
L 4872 3297 
L 4872 2816 
L 3775 2816 
L 3519 1772 
L 4513 1772 
L 4513 1294 
L 3397 1294 
L 3072 0 
L 2572 0 
L 2894 1294 
L 1978 1294 
L 1656 0 
L 1153 0 
L 1478 1294 
L 494 1294 
L 494 1772 
L 1594 1772 
L 1856 2816 
L 850 2816 
L 850 3297 
L 1978 3297 
L 2297 4594 
L 2803 4594 
z
" transform="scale(0.015625)"/>
       <path id="DejaVuSans-20" transform="scale(0.015625)"/>
       <path id="DejaVuSans-66" d="M 2375 4863 
L 2375 4384 
L 1825 4384 
Q 1516 4384 1395 4259 
Q 1275 4134 1275 3809 
L 1275 3500 
L 2222 3500 
L 2222 3053 
L 1275 3053 
L 1275 0 
L 697 0 
L 697 3053 
L 147 3053 
L 147 3500 
L 697 3500 
L 697 3744 
Q 697 4328 969 4595 
Q 1241 4863 1831 4863 
L 2375 4863 
z
" transform="scale(0.015625)"/>
       <path id="DejaVuSans-2d" d="M 313 2009 
L 1997 2009 
L 1997 1497 
L 313 1497 
L 313 2009 
z
" transform="scale(0.015625)"/>
       <path id="DejaVuSans-65" d="M 3597 1894 
L 3597 1613 
L 953 1613 
Q 991 1019 1311 708 
Q 1631 397 2203 397 
Q 2534 397 2845 478 
Q 3156 559 3463 722 
L 3463 178 
Q 3153 47 2828 -22 
Q 2503 -91 2169 -91 
Q 1331 -91 842 396 
Q 353 884 353 1716 
Q 353 2575 817 3079 
Q 1281 3584 2069 3584 
Q 2775 3584 3186 3129 
Q 3597 2675 3597 1894 
z
M 3022 2063 
Q 3016 2534 2758 2815 
Q 2500 3097 2075 3097 
Q 1594 3097 1305 2825 
Q 1016 2553 972 2059 
L 3022 2063 
z
" transform="scale(0.015625)"/>
       <path id="DejaVuSans-76" d="M 191 3500 
L 800 3500 
L 1894 563 
L 2988 3500 
L 3597 3500 
L 2284 0 
L 1503 0 
L 191 3500 
z
" transform="scale(0.015625)"/>
       <path id="DejaVuSans-61" d="M 2194 1759 
Q 1497 1759 1228 1600 
Q 959 1441 959 1056 
Q 959 750 1161 570 
Q 1363 391 1709 391 
Q 2188 391 2477 730 
Q 2766 1069 2766 1631 
L 2766 1759 
L 2194 1759 
z
M 3341 1997 
L 3341 0 
L 2766 0 
L 2766 531 
Q 2569 213 2275 61 
Q 1981 -91 1556 -91 
Q 1019 -91 701 211 
Q 384 513 384 1019 
Q 384 1609 779 1909 
Q 1175 2209 1959 2209 
L 2766 2209 
L 2766 2266 
Q 2766 2663 2505 2880 
Q 2244 3097 1772 3097 
Q 1472 3097 1187 3025 
Q 903 2953 641 2809 
L 641 3341 
Q 956 3463 1253 3523 
Q 1550 3584 1831 3584 
Q 2591 3584 2966 3190 
Q 3341 2797 3341 1997 
z
" transform="scale(0.015625)"/>
       <path id="DejaVuSans-73" d="M 2834 3397 
L 2834 2853 
Q 2591 2978 2328 3040 
Q 2066 3103 1784 3103 
Q 1356 3103 1142 2972 
Q 928 2841 928 2578 
Q 928 2378 1081 2264 
Q 1234 2150 1697 2047 
L 1894 2003 
Q 2506 1872 2764 1633 
Q 3022 1394 3022 966 
Q 3022 478 2636 193 
Q 2250 -91 1575 -91 
Q 1294 -91 989 -36 
Q 684 19 347 128 
L 347 722 
Q 666 556 975 473 
Q 1284 391 1588 391 
Q 1994 391 2212 530 
Q 2431 669 2431 922 
Q 2431 1156 2273 1281 
Q 2116 1406 1581 1522 
L 1381 1569 
Q 847 1681 609 1914 
Q 372 2147 372 2553 
Q 372 3047 722 3315 
Q 1072 3584 1716 3584 
Q 2034 3584 2315 3537 
Q 2597 3491 2834 3397 
z
" transform="scale(0.015625)"/>
       <path id="DejaVuSans-2f" d="M 1625 4666 
L 2156 4666 
L 531 -594 
L 0 -594 
L 1625 4666 
z
" transform="scale(0.015625)"/>
       <path id="DejaVuSans-64" d="M 2906 2969 
L 2906 4863 
L 3481 4863 
L 3481 0 
L 2906 0 
L 2906 525 
Q 2725 213 2448 61 
Q 2172 -91 1784 -91 
Q 1150 -91 751 415 
Q 353 922 353 1747 
Q 353 2572 751 3078 
Q 1150 3584 1784 3584 
Q 2172 3584 2448 3432 
Q 2725 3281 2906 2969 
z
M 947 1747 
Q 947 1113 1208 752 
Q 1469 391 1925 391 
Q 2381 391 2643 752 
Q 2906 1113 2906 1747 
Q 2906 2381 2643 2742 
Q 2381 3103 1925 3103 
Q 1469 3103 1208 2742 
Q 947 2381 947 1747 
z
" transform="scale(0.015625)"/>
       <path id="DejaVuSans-69" d="M 603 3500 
L 1178 3500 
L 1178 0 
L 603 0 
L 603 3500 
z
M 603 4863 
L 1178 4863 
L 1178 4134 
L 603 4134 
L 603 4863 
z
" transform="scale(0.015625)"/>
       <path id="DejaVuSans-6d" d="M 3328 2828 
Q 3544 3216 3844 3400 
Q 4144 3584 4550 3584 
Q 5097 3584 5394 3201 
Q 5691 2819 5691 2113 
L 5691 0 
L 5113 0 
L 5113 2094 
Q 5113 2597 4934 2840 
Q 4756 3084 4391 3084 
Q 3944 3084 3684 2787 
Q 3425 2491 3425 1978 
L 3425 0 
L 2847 0 
L 2847 2094 
Q 2847 2600 2669 2842 
Q 2491 3084 2119 3084 
Q 1678 3084 1418 2786 
Q 1159 2488 1159 1978 
L 1159 0 
L 581 0 
L 581 3500 
L 1159 3500 
L 1159 2956 
Q 1356 3278 1631 3431 
Q 1906 3584 2284 3584 
Q 2666 3584 2933 3390 
Q 3200 3197 3328 2828 
z
" transform="scale(0.015625)"/>
       <path id="DejaVuSans-6e" d="M 3513 2113 
L 3513 0 
L 2938 0 
L 2938 2094 
Q 2938 2591 2744 2837 
Q 2550 3084 2163 3084 
Q 1697 3084 1428 2787 
Q 1159 2491 1159 1978 
L 1159 0 
L 581 0 
L 581 3500 
L 1159 3500 
L 1159 2956 
Q 1366 3272 1645 3428 
Q 1925 3584 2291 3584 
Q 2894 3584 3203 3211 
Q 3513 2838 3513 2113 
z
" transform="scale(0.015625)"/>
       <path id="DejaVuSans-29" d="M 513 4856 
L 1013 4856 
Q 1481 4119 1714 3412 
Q 1947 2706 1947 2009 
Q 1947 1309 1714 600 
Q 1481 -109 1013 -844 
L 513 -844 
Q 928 -128 1133 580 
Q 1338 1288 1338 2009 
Q 1338 2731 1133 3434 
Q 928 4138 513 4856 
z
" transform="scale(0.015625)"/>
      </defs>
      <use xlink:href="#DejaVuSans-6c"/>
      <use xlink:href="#DejaVuSans-6f" x="27.783203"/>
      <use xlink:href="#DejaVuSans-67" x="88.964844"/>
      <use xlink:href="#DejaVuSans-31" x="152.441406"/>
      <use xlink:href="#DejaVuSans-30" x="216.064453"/>
      <use xlink:href="#DejaVuSans-28" x="279.6875"/>
      <use xlink:href="#DejaVuSans-23" x="318.701172"/>
      <use xlink:href="#DejaVuSans-20" x="402.490234"/>
      <use xlink:href="#DejaVuSans-66" x="434.277344"/>
      <use xlink:href="#DejaVuSans-2d" x="463.982422"/>
      <use xlink:href="#DejaVuSans-65" x="500.066406"/>
      <use xlink:href="#DejaVuSans-76" x="561.589844"/>
      <use xlink:href="#DejaVuSans-61" x="620.769531"/>
      <use xlink:href="#DejaVuSans-6c" x="682.048828"/>
      <use xlink:href="#DejaVuSans-73" x="709.832031"/>
      <use xlink:href="#DejaVuSans-20" x="761.931641"/>
      <use xlink:href="#DejaVuSans-2f" x="793.71875"/>
      <use xlink:href="#DejaVuSans-20" x="827.410156"/>
      <use xlink:href="#DejaVuSans-64" x="859.197266"/>
      <use xlink:href="#DejaVuSans-69" x="922.673828"/>
      <use xlink:href="#DejaVuSans-6d" x="950.457031"/>
      <use xlink:href="#DejaVuSans-65" x="1047.869141"/>
      <use xlink:href="#DejaVuSans-6e" x="1109.392578"/>
      <use xlink:href="#DejaVuSans-73" x="1172.771484"/>
      <use xlink:href="#DejaVuSans-69" x="1224.871094"/>
      <use xlink:href="#DejaVuSans-6f" x="1252.654297"/>
      <use xlink:href="#DejaVuSans-6e" x="1313.835938"/>
      <use xlink:href="#DejaVuSans-29" x="1377.214844"/>
     </g>
    </g>
   </g>
   <g id="matplotlib.axis_2">
    <g id="ytick_1">
     <g id="line2d_21">
      <path d="M 57.6 298.944 
L 360.8064 298.944 
" clip-path="url(#p153690ae5c)" style="fill: none; stroke: #b0b0b0; stroke-width: 0.8; stroke-linecap: square"/>
     </g>
     <g id="line2d_22">
      <defs>
       <path id="m32462440b7" d="M 0 0 
L -3.5 0 
" style="stroke: #000000; stroke-width: 0.8"/>
      </defs>
      <g>
       <use xlink:href="#m32462440b7" x="57.6" y="298.944" style="stroke: #000000; stroke-width: 0.8"/>
      </g>
     </g>
     <g id="text_6">
      <!-- 0.0 -->
      <g transform="translate(25.155 305.02275)scale(0.16 -0.16)">
       <defs>
        <path id="DejaVuSans-2e" d="M 684 794 
L 1344 794 
L 1344 0 
L 684 0 
L 684 794 
z
" transform="scale(0.015625)"/>
       </defs>
       <use xlink:href="#DejaVuSans-30"/>
       <use xlink:href="#DejaVuSans-2e" x="63.623047"/>
       <use xlink:href="#DejaVuSans-30" x="95.410156"/>
      </g>
     </g>
    </g>
    <g id="ytick_2">
     <g id="line2d_23">
      <path d="M 57.6 244.6848 
L 360.8064 244.6848 
" clip-path="url(#p153690ae5c)" style="fill: none; stroke: #b0b0b0; stroke-width: 0.8; stroke-linecap: square"/>
     </g>
     <g id="line2d_24">
      <g>
       <use xlink:href="#m32462440b7" x="57.6" y="244.6848" style="stroke: #000000; stroke-width: 0.8"/>
      </g>
     </g>
     <g id="text_7">
      <!-- 0.2 -->
      <g transform="translate(25.155 250.76355)scale(0.16 -0.16)">
       <use xlink:href="#DejaVuSans-30"/>
       <use xlink:href="#DejaVuSans-2e" x="63.623047"/>
       <use xlink:href="#DejaVuSans-32" x="95.410156"/>
      </g>
     </g>
    </g>
    <g id="ytick_3">
     <g id="line2d_25">
      <path d="M 57.6 190.4256 
L 360.8064 190.4256 
" clip-path="url(#p153690ae5c)" style="fill: none; stroke: #b0b0b0; stroke-width: 0.8; stroke-linecap: square"/>
     </g>
     <g id="line2d_26">
      <g>
       <use xlink:href="#m32462440b7" x="57.6" y="190.4256" style="stroke: #000000; stroke-width: 0.8"/>
      </g>
     </g>
     <g id="text_8">
      <!-- 0.4 -->
      <g transform="translate(25.155 196.50435)scale(0.16 -0.16)">
       <use xlink:href="#DejaVuSans-30"/>
       <use xlink:href="#DejaVuSans-2e" x="63.623047"/>
       <use xlink:href="#DejaVuSans-34" x="95.410156"/>
      </g>
     </g>
    </g>
    <g id="ytick_4">
     <g id="line2d_27">
      <path d="M 57.6 136.1664 
L 360.8064 136.1664 
" clip-path="url(#p153690ae5c)" style="fill: none; stroke: #b0b0b0; stroke-width: 0.8; stroke-linecap: square"/>
     </g>
     <g id="line2d_28">
      <g>
       <use xlink:href="#m32462440b7" x="57.6" y="136.1664" style="stroke: #000000; stroke-width: 0.8"/>
      </g>
     </g>
     <g id="text_9">
      <!-- 0.6 -->
      <g transform="translate(25.155 142.24515)scale(0.16 -0.16)">
       <use xlink:href="#DejaVuSans-30"/>
       <use xlink:href="#DejaVuSans-2e" x="63.623047"/>
       <use xlink:href="#DejaVuSans-36" x="95.410156"/>
      </g>
     </g>
    </g>
    <g id="ytick_5">
     <g id="line2d_29">
      <path d="M 57.6 81.9072 
L 360.8064 81.9072 
" clip-path="url(#p153690ae5c)" style="fill: none; stroke: #b0b0b0; stroke-width: 0.8; stroke-linecap: square"/>
     </g>
     <g id="line2d_30">
      <g>
       <use xlink:href="#m32462440b7" x="57.6" y="81.9072" style="stroke: #000000; stroke-width: 0.8"/>
      </g>
     </g>
     <g id="text_10">
      <!-- 0.8 -->
      <g transform="translate(25.155 87.98595)scale(0.16 -0.16)">
       <defs>
        <path id="DejaVuSans-38" d="M 2034 2216 
Q 1584 2216 1326 1975 
Q 1069 1734 1069 1313 
Q 1069 891 1326 650 
Q 1584 409 2034 409 
Q 2484 409 2743 651 
Q 3003 894 3003 1313 
Q 3003 1734 2745 1975 
Q 2488 2216 2034 2216 
z
M 1403 2484 
Q 997 2584 770 2862 
Q 544 3141 544 3541 
Q 544 4100 942 4425 
Q 1341 4750 2034 4750 
Q 2731 4750 3128 4425 
Q 3525 4100 3525 3541 
Q 3525 3141 3298 2862 
Q 3072 2584 2669 2484 
Q 3125 2378 3379 2068 
Q 3634 1759 3634 1313 
Q 3634 634 3220 271 
Q 2806 -91 2034 -91 
Q 1263 -91 848 271 
Q 434 634 434 1313 
Q 434 1759 690 2068 
Q 947 2378 1403 2484 
z
M 1172 3481 
Q 1172 3119 1398 2916 
Q 1625 2713 2034 2713 
Q 2441 2713 2670 2916 
Q 2900 3119 2900 3481 
Q 2900 3844 2670 4047 
Q 2441 4250 2034 4250 
Q 1625 4250 1398 4047 
Q 1172 3844 1172 3481 
z
" transform="scale(0.015625)"/>
       </defs>
       <use xlink:href="#DejaVuSans-30"/>
       <use xlink:href="#DejaVuSans-2e" x="63.623047"/>
       <use xlink:href="#DejaVuSans-38" x="95.410156"/>
      </g>
     </g>
    </g>
    <g id="ytick_6">
     <g id="line2d_31">
      <path d="M 57.6 27.648 
L 360.8064 27.648 
" clip-path="url(#p153690ae5c)" style="fill: none; stroke: #b0b0b0; stroke-width: 0.8; stroke-linecap: square"/>
     </g>
     <g id="line2d_32">
      <g>
       <use xlink:href="#m32462440b7" x="57.6" y="27.648" style="stroke: #000000; stroke-width: 0.8"/>
      </g>
     </g>
     <g id="text_11">
      <!-- 1.0 -->
      <g transform="translate(25.155 33.72675)scale(0.16 -0.16)">
       <use xlink:href="#DejaVuSans-31"/>
       <use xlink:href="#DejaVuSans-2e" x="63.623047"/>
       <use xlink:href="#DejaVuSans-30" x="95.410156"/>
      </g>
     </g>
    </g>
    <g id="text_12">
     <!-- Fraction of function,target pairs -->
     <g transform="translate(17.619531 297.681)rotate(-90)scale(0.17 -0.17)">
      <defs>
       <path id="DejaVuSans-46" d="M 628 4666 
L 3309 4666 
L 3309 4134 
L 1259 4134 
L 1259 2759 
L 3109 2759 
L 3109 2228 
L 1259 2228 
L 1259 0 
L 628 0 
L 628 4666 
z
" transform="scale(0.015625)"/>
       <path id="DejaVuSans-72" d="M 2631 2963 
Q 2534 3019 2420 3045 
Q 2306 3072 2169 3072 
Q 1681 3072 1420 2755 
Q 1159 2438 1159 1844 
L 1159 0 
L 581 0 
L 581 3500 
L 1159 3500 
L 1159 2956 
Q 1341 3275 1631 3429 
Q 1922 3584 2338 3584 
Q 2397 3584 2469 3576 
Q 2541 3569 2628 3553 
L 2631 2963 
z
" transform="scale(0.015625)"/>
       <path id="DejaVuSans-63" d="M 3122 3366 
L 3122 2828 
Q 2878 2963 2633 3030 
Q 2388 3097 2138 3097 
Q 1578 3097 1268 2742 
Q 959 2388 959 1747 
Q 959 1106 1268 751 
Q 1578 397 2138 397 
Q 2388 397 2633 464 
Q 2878 531 3122 666 
L 3122 134 
Q 2881 22 2623 -34 
Q 2366 -91 2075 -91 
Q 1284 -91 818 406 
Q 353 903 353 1747 
Q 353 2603 823 3093 
Q 1294 3584 2113 3584 
Q 2378 3584 2631 3529 
Q 2884 3475 3122 3366 
z
" transform="scale(0.015625)"/>
       <path id="DejaVuSans-74" d="M 1172 4494 
L 1172 3500 
L 2356 3500 
L 2356 3053 
L 1172 3053 
L 1172 1153 
Q 1172 725 1289 603 
Q 1406 481 1766 481 
L 2356 481 
L 2356 0 
L 1766 0 
Q 1100 0 847 248 
Q 594 497 594 1153 
L 594 3053 
L 172 3053 
L 172 3500 
L 594 3500 
L 594 4494 
L 1172 4494 
z
" transform="scale(0.015625)"/>
       <path id="DejaVuSans-75" d="M 544 1381 
L 544 3500 
L 1119 3500 
L 1119 1403 
Q 1119 906 1312 657 
Q 1506 409 1894 409 
Q 2359 409 2629 706 
Q 2900 1003 2900 1516 
L 2900 3500 
L 3475 3500 
L 3475 0 
L 2900 0 
L 2900 538 
Q 2691 219 2414 64 
Q 2138 -91 1772 -91 
Q 1169 -91 856 284 
Q 544 659 544 1381 
z
M 1991 3584 
L 1991 3584 
z
" transform="scale(0.015625)"/>
       <path id="DejaVuSans-2c" d="M 750 794 
L 1409 794 
L 1409 256 
L 897 -744 
L 494 -744 
L 750 256 
L 750 794 
z
" transform="scale(0.015625)"/>
       <path id="DejaVuSans-70" d="M 1159 525 
L 1159 -1331 
L 581 -1331 
L 581 3500 
L 1159 3500 
L 1159 2969 
Q 1341 3281 1617 3432 
Q 1894 3584 2278 3584 
Q 2916 3584 3314 3078 
Q 3713 2572 3713 1747 
Q 3713 922 3314 415 
Q 2916 -91 2278 -91 
Q 1894 -91 1617 61 
Q 1341 213 1159 525 
z
M 3116 1747 
Q 3116 2381 2855 2742 
Q 2594 3103 2138 3103 
Q 1681 3103 1420 2742 
Q 1159 2381 1159 1747 
Q 1159 1113 1420 752 
Q 1681 391 2138 391 
Q 2594 391 2855 752 
Q 3116 1113 3116 1747 
z
" transform="scale(0.015625)"/>
      </defs>
      <use xlink:href="#DejaVuSans-46"/>
      <use xlink:href="#DejaVuSans-72" x="50.269531"/>
      <use xlink:href="#DejaVuSans-61" x="91.382812"/>
      <use xlink:href="#DejaVuSans-63" x="152.662109"/>
      <use xlink:href="#DejaVuSans-74" x="207.642578"/>
      <use xlink:href="#DejaVuSans-69" x="246.851562"/>
      <use xlink:href="#DejaVuSans-6f" x="274.634766"/>
      <use xlink:href="#DejaVuSans-6e" x="335.816406"/>
      <use xlink:href="#DejaVuSans-20" x="399.195312"/>
      <use xlink:href="#DejaVuSans-6f" x="430.982422"/>
      <use xlink:href="#DejaVuSans-66" x="492.164062"/>
      <use xlink:href="#DejaVuSans-20" x="527.369141"/>
      <use xlink:href="#DejaVuSans-66" x="559.15625"/>
      <use xlink:href="#DejaVuSans-75" x="594.361328"/>
      <use xlink:href="#DejaVuSans-6e" x="657.740234"/>
      <use xlink:href="#DejaVuSans-63" x="721.119141"/>
      <use xlink:href="#DejaVuSans-74" x="776.099609"/>
      <use xlink:href="#DejaVuSans-69" x="815.308594"/>
      <use xlink:href="#DejaVuSans-6f" x="843.091797"/>
      <use xlink:href="#DejaVuSans-6e" x="904.273438"/>
      <use xlink:href="#DejaVuSans-2c" x="967.652344"/>
      <use xlink:href="#DejaVuSans-74" x="999.439453"/>
      <use xlink:href="#DejaVuSans-61" x="1038.648438"/>
      <use xlink:href="#DejaVuSans-72" x="1099.927734"/>
      <use xlink:href="#DejaVuSans-67" x="1139.291016"/>
      <use xlink:href="#DejaVuSans-65" x="1202.767578"/>
      <use xlink:href="#DejaVuSans-74" x="1264.291016"/>
      <use xlink:href="#DejaVuSans-20" x="1303.5"/>
      <use xlink:href="#DejaVuSans-70" x="1335.287109"/>
      <use xlink:href="#DejaVuSans-61" x="1398.763672"/>
      <use xlink:href="#DejaVuSans-69" x="1460.042969"/>
      <use xlink:href="#DejaVuSans-72" x="1487.826172"/>
      <use xlink:href="#DejaVuSans-73" x="1528.939453"/>
     </g>
    </g>
   </g>
   <g id="line2d_33">
    <defs>
     <path id="m4a7fe3d071" d="M 0 1.5 
C 0.397805 1.5 0.77937 1.341951 1.06066 1.06066 
C 1.341951 0.77937 1.5 0.397805 1.5 0 
C 1.5 -0.397805 1.341951 -0.77937 1.06066 -1.06066 
C 0.77937 -1.341951 0.397805 -1.5 0 -1.5 
C -0.397805 -1.5 -0.77937 -1.341951 -1.06066 -1.06066 
C -1.341951 -0.77937 -1.5 -0.397805 -1.5 0 
C -1.5 0.397805 -1.341951 0.77937 -1.06066 1.06066 
C -0.77937 1.341951 -0.397805 1.5 0 1.5 
z
" style="stroke: #f5deb3"/>
    </defs>
    <g>
     <use xlink:href="#m4a7fe3d071" x="183.842993" y="27.648" style="fill: #f5deb3; stroke: #f5deb3"/>
     <use xlink:href="#m4a7fe3d071" x="183.842993" y="27.648" style="fill: #f5deb3; stroke: #f5deb3"/>
    </g>
   </g>
   <g id="line2d_34">
    <defs>
     <path id="m45cbc00f3a" d="M 0 1.5 
C 0.397805 1.5 0.77937 1.341951 1.06066 1.06066 
C 1.341951 0.77937 1.5 0.397805 1.5 0 
C 1.5 -0.397805 1.341951 -0.77937 1.06066 -1.06066 
C 0.77937 -1.341951 0.397805 -1.5 0 -1.5 
C -0.397805 -1.5 -0.77937 -1.341951 -1.06066 -1.06066 
C -1.341951 -0.77937 -1.5 -0.397805 -1.5 0 
C -1.5 0.397805 -1.341951 0.77937 -1.06066 1.06066 
C -0.77937 1.341951 -0.397805 1.5 0 1.5 
z
" style="stroke: #000080"/>
    </defs>
    <g>
     <use xlink:href="#m45cbc00f3a" x="245.180063" y="27.648" style="fill: #000080; stroke: #000080"/>
     <use xlink:href="#m45cbc00f3a" x="245.180063" y="27.648" style="fill: #000080; stroke: #000080"/>
    </g>
   </g>
   <g id="line2d_35">
    <path d="M 36.933397 298.944 
L 36.933397 298.234729 
L 49.972572 298.234729 
L 49.972572 297.880094 
L 57.6 297.880094 
L 57.6 297.170824 
L 63.011746 297.170824 
L 63.011746 296.461553 
L 67.209423 296.461553 
L 67.209423 294.333741 
L 70.639174 294.333741 
L 70.639174 293.979106 
L 73.538988 293.979106 
L 73.538988 293.269835 
L 78.266603 293.269835 
L 78.266603 292.9152 
L 80.248597 292.9152 
L 80.248597 292.560565 
L 82.04153 292.560565 
L 82.04153 291.496659 
L 86.578163 291.496659 
L 86.578163 291.142024 
L 87.876026 291.142024 
L 87.876026 290.787388 
L 89.090095 290.787388 
L 89.090095 290.078118 
L 91.305777 290.078118 
L 91.305777 289.723482 
L 92.322865 289.723482 
L 92.322865 289.368847 
L 93.287772 289.368847 
L 93.287772 289.014212 
L 95.080704 289.014212 
L 95.080704 288.304941 
L 95.916911 288.304941 
L 95.916911 287.950306 
L 97.485448 287.950306 
L 97.485448 287.595671 
L 98.223251 287.595671 
L 98.223251 286.8864 
L 100.9152 286.8864 
L 100.9152 286.531765 
L 104.860369 286.531765 
L 104.860369 286.177129 
L 105.850679 286.177129 
L 105.850679 285.822494 
L 110.144579 285.822494 
L 110.144579 285.467859 
L 110.524623 285.467859 
L 110.524623 285.113224 
L 113.316634 285.113224 
L 113.316634 284.758588 
L 115.460102 284.758588 
L 115.460102 284.049318 
L 119.129494 284.049318 
L 119.129494 283.694682 
L 120.726585 283.694682 
L 120.726585 283.340047 
L 121.159053 283.340047 
L 121.159053 282.630776 
L 127.761474 282.630776 
L 127.761474 282.276141 
L 133.545739 282.276141 
L 133.545739 281.566871 
L 140.188837 281.566871 
L 140.188837 280.8576 
L 148.022421 280.8576 
L 148.022421 280.502965 
L 150.515122 280.502965 
L 150.515122 280.148329 
L 152.024303 280.148329 
L 152.024303 279.793694 
L 152.515067 279.793694 
L 152.515067 279.439059 
L 153.914919 279.439059 
L 153.952355 278.729788 
L 154.285968 278.729788 
L 154.285968 278.375153 
L 154.900425 278.375153 
L 154.935952 276.956612 
L 155.391799 276.956612 
L 155.391799 276.601976 
L 155.529866 276.601976 
L 155.632755 275.892706 
L 155.769072 275.892706 
L 155.769072 275.538071 
L 155.904407 275.538071 
L 155.904407 275.183435 
L 156.205398 275.183435 
L 156.205398 274.8288 
L 156.436218 274.8288 
L 156.436218 274.474165 
L 156.664239 274.474165 
L 156.664239 274.119529 
L 157.048816 274.119529 
L 157.048816 273.764894 
L 157.456756 273.764894 
L 157.487772 273.055624 
L 157.642093 273.055624 
L 157.642093 272.346353 
L 158.0375 272.346353 
L 158.0375 271.991718 
L 158.187393 271.991718 
L 158.247018 271.282447 
L 158.483644 271.282447 
L 158.483644 270.927812 
L 158.659181 270.927812 
L 158.659181 270.573176 
L 159.033983 270.573176 
L 159.033983 270.218541 
L 159.176172 270.218541 
L 159.176172 269.863906 
L 159.761902 269.863906 
L 159.844108 268.8 
L 160.196243 268.8 
L 160.196243 268.445365 
L 160.673181 268.445365 
L 160.751508 267.736094 
L 160.984551 267.736094 
L 161.087207 267.026824 
L 161.138325 267.026824 
L 161.138325 266.672188 
L 161.341421 266.672188 
L 161.391854 265.962918 
L 161.617145 265.962918 
L 161.666845 265.253647 
L 161.864343 265.253647 
L 161.864343 264.899012 
L 162.634233 264.899012 
L 162.634233 264.544376 
L 162.961399 264.544376 
L 162.961399 264.189741 
L 163.821764 264.189741 
L 163.821764 263.835106 
L 164.019898 263.835106 
L 164.019898 263.480471 
L 165.534047 263.480471 
L 165.534047 262.7712 
L 167.416772 262.7712 
L 167.416772 262.416565 
L 169.622295 262.416565 
L 169.703414 261.707294 
L 170.864796 261.707294 
L 170.864796 261.352659 
L 171.419661 261.352659 
L 171.419661 260.998024 
L 172.842224 260.998024 
L 172.842224 260.643388 
L 173.462145 260.643388 
L 173.462145 259.579482 
L 174.73082 259.579482 
L 174.817367 258.870212 
L 177.200883 258.870212 
L 177.200883 258.515576 
L 177.577449 258.515576 
L 177.577449 258.160941 
L 177.747115 258.160941 
L 177.747115 257.806306 
L 179.403277 257.806306 
L 179.403277 257.451671 
L 179.776554 257.451671 
L 179.776554 257.097035 
L 179.908764 257.097035 
L 179.927575 256.033129 
L 180.253768 256.033129 
L 180.253768 255.678494 
L 180.628823 255.678494 
L 180.628823 254.614588 
L 181.556559 254.614588 
L 181.556559 254.259953 
L 182.033257 254.259953 
L 182.033257 253.905318 
L 184.525216 253.905318 
L 184.525216 253.550682 
L 184.839175 253.550682 
L 184.839175 253.196047 
L 185.040832 253.196047 
L 185.040832 252.841412 
L 185.353418 252.841412 
L 185.353418 252.486776 
L 186.59389 252.486776 
L 186.59389 252.132141 
L 186.959682 252.132141 
L 186.959682 251.777506 
L 187.14635 251.777506 
L 187.203908 250.358965 
L 187.979494 250.358965 
L 187.979494 250.004329 
L 188.349609 250.004329 
L 188.349609 248.940424 
L 188.694894 248.940424 
L 188.694894 248.585788 
L 189.080246 248.585788 
L 189.080246 246.457976 
L 189.275723 246.457976 
L 189.275723 246.103341 
L 189.452198 246.103341 
L 189.452198 245.748706 
L 189.750131 245.748706 
L 189.750131 245.394071 
L 191.813376 245.394071 
L 191.813376 244.6848 
L 192.179621 244.6848 
L 192.287144 242.202353 
L 192.360104 242.202353 
L 192.360104 241.493082 
L 192.88667 241.493082 
L 192.88667 240.783812 
L 193.009007 240.783812 
L 193.032442 237.237459 
L 193.398898 237.237459 
L 193.398898 235.818918 
L 194.084506 235.818918 
L 194.084506 235.464282 
L 194.221318 235.464282 
L 194.221318 235.109647 
L 194.716045 235.109647 
L 194.716045 234.755012 
L 194.852608 234.755012 
L 194.852608 234.400376 
L 195.298022 234.400376 
L 195.405683 233.336471 
L 195.789856 233.336471 
L 195.82623 232.6272 
L 195.999054 232.6272 
L 195.999054 231.563294 
L 196.332151 231.563294 
L 196.332151 231.208659 
L 196.582038 231.208659 
L 196.609169 230.499388 
L 196.805666 230.499388 
L 196.805666 229.790118 
L 197.722025 229.790118 
L 197.722025 229.435482 
L 197.979448 229.435482 
L 197.979448 229.080847 
L 198.304317 229.080847 
L 198.382021 228.016941 
L 198.599296 228.016941 
L 198.648012 225.179859 
L 199.033269 225.179859 
L 199.033269 224.825224 
L 199.510643 224.825224 
L 199.51728 223.052047 
L 200.053762 223.052047 
L 200.053762 220.924235 
L 200.188727 220.924235 
L 200.188727 220.5696 
L 201.125596 220.5696 
L 201.125596 218.796424 
L 201.313531 218.796424 
L 201.313531 218.441788 
L 201.795905 218.441788 
L 201.795905 218.087153 
L 202.939287 218.087153 
L 202.939287 215.250071 
L 203.126469 215.250071 
L 203.126469 214.895435 
L 203.479213 214.895435 
L 203.479213 213.476894 
L 204.433094 213.476894 
L 204.433094 213.122259 
L 204.588321 213.122259 
L 204.593389 212.412988 
L 204.85255 212.412988 
L 204.897476 210.994447 
L 205.135287 210.994447 
L 205.221246 208.512 
L 205.693102 208.512 
L 205.724142 206.384188 
L 205.807458 206.384188 
L 205.845423 204.256376 
L 206.765951 204.256376 
L 206.765951 203.547106 
L 206.896415 203.547106 
L 206.896415 202.128565 
L 207.052677 202.128565 
L 207.052677 201.773929 
L 207.223079 201.773929 
L 207.223079 201.419294 
L 207.420312 201.419294 
L 207.466038 197.518306 
L 207.632752 197.518306 
L 207.727358 191.844141 
L 208.782449 191.844141 
L 208.782449 191.489506 
L 208.92386 191.489506 
L 208.92386 191.134871 
L 209.215425 191.134871 
L 209.23721 190.4256 
L 209.543479 190.4256 
L 209.543479 190.070965 
L 209.671568 190.070965 
L 209.671568 189.716329 
L 209.829503 189.716329 
L 209.863995 188.652424 
L 210.008935 188.652424 
L 210.065842 187.233882 
L 210.344091 187.233882 
L 210.344091 185.460706 
L 210.533489 185.460706 
L 210.533489 184.3968 
L 210.94285 184.3968 
L 210.94285 184.042165 
L 211.904863 184.042165 
L 211.946042 178.368 
L 212.499959 178.368 
L 212.541516 176.594824 
L 212.675537 176.594824 
L 212.675537 175.530918 
L 213.344412 175.530918 
L 213.344412 175.176282 
L 213.457042 175.176282 
L 213.466529 173.757741 
L 213.634919 173.757741 
L 213.713092 172.3392 
L 213.931807 172.3392 
L 213.931807 171.984565 
L 214.137332 171.984565 
L 214.137332 170.920659 
L 214.258972 170.920659 
L 214.272608 169.502118 
L 214.568622 169.502118 
L 214.568622 168.083576 
L 214.702322 168.083576 
L 214.702322 166.665035 
L 214.906966 166.665035 
L 214.961066 165.601129 
L 215.200448 165.601129 
L 215.236454 162.409412 
L 215.356931 162.409412 
L 215.41118 158.863059 
L 215.505032 158.863059 
L 215.505032 158.508424 
L 215.878607 158.508424 
L 215.972928 155.671341 
L 216.374019 155.671341 
L 216.463199 151.415718 
L 216.66699 151.415718 
L 216.689646 150.706447 
L 216.838228 150.706447 
L 216.838228 150.351812 
L 217.068065 150.351812 
L 217.173503 149.642541 
L 217.317039 149.642541 
L 217.390324 148.578635 
L 217.669264 148.578635 
L 217.669264 148.224 
L 218.260421 148.224 
L 218.331348 146.450824 
L 218.616019 146.450824 
L 218.682026 144.323012 
L 219.018051 144.323012 
L 219.018051 142.1952 
L 219.270543 142.1952 
L 219.270543 137.939576 
L 219.588318 137.939576 
L 219.629373 133.683953 
L 219.908671 133.683953 
L 219.908671 133.329318 
L 220.134042 133.329318 
L 220.228075 127.655153 
L 220.587671 127.655153 
L 220.587671 127.300518 
L 220.975552 127.300518 
L 221.061259 125.881976 
L 221.123442 125.881976 
L 221.146577 124.1088 
L 221.698542 124.1088 
L 221.726077 122.690259 
L 221.949948 122.690259 
L 222.030335 120.207812 
L 222.280343 120.207812 
L 222.358348 119.498541 
L 222.863882 119.498541 
L 222.928041 117.016094 
L 223.323451 117.016094 
L 223.335616 115.597553 
L 223.681354 115.597553 
L 223.681354 114.888282 
L 223.826822 114.888282 
L 223.826822 114.533647 
L 224.975787 114.533647 
L 225.085212 112.405835 
L 225.088621 112.405835 
L 225.088621 112.0512 
L 225.266746 112.0512 
L 225.266746 111.696565 
L 225.712238 111.696565 
L 225.741072 110.987294 
L 225.949009 110.987294 
L 226.033489 108.859482 
L 226.424116 108.859482 
L 226.424116 108.504847 
L 226.92775 108.504847 
L 226.97869 107.795576 
L 227.108503 107.795576 
L 227.108503 105.313129 
L 227.932225 105.313129 
L 227.932225 104.249224 
L 228.238181 104.249224 
L 228.238181 102.830682 
L 228.66439 102.830682 
L 228.66439 102.476047 
L 228.855102 102.476047 
L 228.959452 101.766776 
L 229.057016 101.766776 
L 229.057016 99.284329 
L 229.178779 99.284329 
L 229.210295 98.575059 
L 229.375232 98.575059 
L 229.375232 98.220424 
L 229.598511 98.220424 
L 229.617278 97.156518 
L 229.925573 97.156518 
L 229.925573 96.801882 
L 231.084575 96.801882 
L 231.084575 96.447247 
L 231.732579 96.447247 
L 231.812628 92.900894 
L 232.50206 92.900894 
L 232.50206 92.546259 
L 232.708946 92.546259 
L 232.711788 89.709176 
L 232.965235 89.709176 
L 233.005002 88.290635 
L 233.264491 88.290635 
L 233.265594 86.162824 
L 233.767599 86.162824 
L 233.767599 85.808188 
L 235.268987 85.808188 
L 235.338307 79.424753 
L 235.526653 79.424753 
L 235.526653 79.070118 
L 236.121449 79.070118 
L 236.227816 76.233035 
L 236.24525 76.233035 
L 236.24525 75.8784 
L 236.37713 75.8784 
L 236.37713 75.169129 
L 236.501123 75.169129 
L 236.524803 71.622776 
L 236.621074 71.622776 
L 236.621074 71.268141 
L 236.781963 71.268141 
L 236.892408 65.593976 
L 236.962354 65.593976 
L 237.001303 63.8208 
L 237.117666 63.8208 
L 237.117666 63.466165 
L 237.276165 63.466165 
L 237.276165 62.756894 
L 237.436876 62.756894 
L 237.436876 62.047624 
L 237.732492 62.047624 
L 237.830584 57.437365 
L 237.850055 57.437365 
L 237.942805 56.018824 
L 238.038097 56.018824 
L 238.140575 53.181741 
L 238.309719 53.181741 
L 238.391834 46.089035 
L 238.593279 46.089035 
L 238.638536 45.379765 
L 238.732028 45.379765 
L 238.829162 42.188047 
L 238.89555 42.188047 
L 238.995916 41.124141 
L 239.086032 41.124141 
L 239.130121 39.7056 
L 239.232059 39.7056 
L 239.338243 38.641694 
L 239.385333 38.641694 
L 239.481539 35.804612 
L 240.18744 35.804612 
L 240.198131 35.095341 
L 243.159463 35.095341 
L 243.159463 34.386071 
L 243.347987 34.386071 
L 243.347987 33.6768 
L 243.736863 33.6768 
L 243.736863 33.322165 
L 244.14202 33.322165 
L 244.14202 32.967529 
L 244.589178 32.967529 
L 244.589178 31.903624 
L 244.700979 31.903624 
L 244.748391 29.421176 
L 245.180063 29.421176 
L 245.180063 27.648 
L 360.8064 27.648 
L 360.8064 27.648 
" style="fill: none; stroke: #000080; stroke-width: 1.5; stroke-linecap: square"/>
   </g>
   <g id="line2d_36">
    <defs>
     <path id="meace96a5ac" d="M 0 6 
C 1.591219 6 3.117479 5.367802 4.242641 4.242641 
C 5.367802 3.117479 6 1.591219 6 0 
C 6 -1.591219 5.367802 -3.117479 4.242641 -4.242641 
C 3.117479 -5.367802 1.591219 -6 0 -6 
C -1.591219 -6 -3.117479 -5.367802 -4.242641 -4.242641 
C -5.367802 -3.117479 -6 -1.591219 -6 0 
C -6 1.591219 -5.367802 3.117479 -4.242641 4.242641 
C -3.117479 5.367802 -1.591219 6 0 6 
z
" style="stroke: #000080; stroke-width: 1.5"/>
    </defs>
    <g>
     <use xlink:href="#meace96a5ac" x="152.515067" y="279.439059" style="fill-opacity: 0; stroke: #000080; stroke-width: 1.5"/>
     <use xlink:href="#meace96a5ac" x="212.541516" y="176.594824" style="fill-opacity: 0; stroke: #000080; stroke-width: 1.5"/>
     <use xlink:href="#meace96a5ac" x="238.325327" y="52.827106" style="fill-opacity: 0; stroke: #000080; stroke-width: 1.5"/>
     <use xlink:href="#meace96a5ac" x="245.180063" y="27.648" style="fill-opacity: 0; stroke: #000080; stroke-width: 1.5"/>
     <use xlink:href="#meace96a5ac" x="245.180063" y="27.648" style="fill-opacity: 0; stroke: #000080; stroke-width: 1.5"/>
     <use xlink:href="#meace96a5ac" x="360.8064" y="27.648" style="fill-opacity: 0; stroke: #000080; stroke-width: 1.5"/>
    </g>
   </g>
   <g id="line2d_37">
    <path style="fill: none; stroke: #000080; stroke-width: 1.5; stroke-linecap: square"/>
    <g/>
   </g>
   <g id="line2d_38">
    <defs>
     <path id="m1e13c2b7bb" d="M 0 1.5 
C 0.397805 1.5 0.77937 1.341951 1.06066 1.06066 
C 1.341951 0.77937 1.5 0.397805 1.5 0 
C 1.5 -0.397805 1.341951 -0.77937 1.06066 -1.06066 
C 0.77937 -1.341951 0.397805 -1.5 0 -1.5 
C -0.397805 -1.5 -0.77937 -1.341951 -1.06066 -1.06066 
C -1.341951 -0.77937 -1.5 -0.397805 -1.5 0 
C -1.5 0.397805 -1.341951 0.77937 -1.06066 1.06066 
C -0.77937 1.341951 -0.397805 1.5 0 1.5 
z
" style="stroke: #ff00ff"/>
    </defs>
    <g>
     <use xlink:href="#m1e13c2b7bb" x="280.596358" y="27.648" style="fill: #ff00ff; stroke: #ff00ff"/>
     <use xlink:href="#m1e13c2b7bb" x="280.596358" y="27.648" style="fill: #ff00ff; stroke: #ff00ff"/>
    </g>
   </g>
   <g id="line2d_39">
    <path d="M 36.933397 298.944 
L 36.933397 298.589365 
L 49.972572 298.589365 
L 49.972572 297.170824 
L 57.6 297.170824 
L 57.6 295.752282 
L 63.011746 295.752282 
L 63.011746 294.333741 
L 67.209423 294.333741 
L 67.209423 293.979106 
L 70.639174 293.979106 
L 70.639174 293.624471 
L 73.538988 293.624471 
L 73.538988 292.560565 
L 76.050921 292.560565 
L 76.050921 292.205929 
L 78.266603 292.205929 
L 78.266603 291.496659 
L 80.248597 291.496659 
L 80.248597 290.787388 
L 82.04153 290.787388 
L 82.04153 289.723482 
L 83.678349 289.723482 
L 83.678349 289.014212 
L 85.184077 289.014212 
L 85.184077 288.659576 
L 87.876026 288.659576 
L 87.876026 288.304941 
L 89.090095 288.304941 
L 89.090095 287.595671 
L 91.305777 287.595671 
L 91.305777 287.241035 
L 93.287772 287.241035 
L 93.287772 286.8864 
L 95.916911 286.8864 
L 95.916911 286.531765 
L 96.717523 286.531765 
L 96.717523 286.177129 
L 98.933205 286.177129 
L 98.933205 285.822494 
L 99.617337 285.822494 
L 99.617337 285.467859 
L 108.956085 285.467859 
L 108.956085 285.113224 
L 110.897141 285.113224 
L 110.897141 284.758588 
L 113.954374 284.758588 
L 113.954374 284.049318 
L 120.944062 284.049318 
L 120.944062 283.694682 
L 123.563797 283.694682 
L 123.563797 283.340047 
L 123.750979 283.340047 
L 123.750979 282.276141 
L 125.35673 282.276141 
L 125.35673 281.921506 
L 137.159019 281.921506 
L 137.159019 281.566871 
L 137.699101 281.566871 
L 137.699101 281.212235 
L 139.556456 281.212235 
L 139.556456 280.8576 
L 148.57797 280.8576 
L 148.57797 280.502965 
L 154.757642 280.502965 
L 154.757642 280.148329 
L 156.005274 280.148329 
L 156.005274 279.793694 
L 157.175281 279.793694 
L 157.175281 279.439059 
L 158.833095 279.439059 
L 158.833095 278.375153 
L 160.409709 278.375153 
L 160.409709 278.020518 
L 160.673181 278.020518 
L 160.673181 277.665882 
L 162.492258 277.665882 
L 162.492258 277.311247 
L 168.67193 277.311247 
L 168.67193 276.956612 
L 169.944694 276.956612 
L 169.944694 276.601976 
L 170.135514 276.601976 
L 170.135514 276.247341 
L 173.959281 276.247341 
L 173.959281 275.892706 
L 174.203007 275.892706 
L 174.215747 274.8288 
L 176.36764 274.8288 
L 176.36764 274.474165 
L 177.556133 274.474165 
L 177.556133 274.119529 
L 180.556226 274.119529 
L 180.556226 273.764894 
L 182.831418 273.764894 
L 182.831418 273.410259 
L 183.964751 273.410259 
L 183.964751 273.055624 
L 184.904229 273.055624 
L 184.904229 272.700988 
L 185.888248 272.700988 
L 185.888248 272.346353 
L 186.468148 272.346353 
L 186.527815 271.282447 
L 186.633424 271.282447 
L 186.633424 270.927812 
L 186.855894 270.927812 
L 186.855894 270.218541 
L 190.267206 270.218541 
L 190.267206 269.863906 
L 190.515156 269.863906 
L 190.515156 268.445365 
L 192.140369 268.445365 
L 192.140369 268.090729 
L 192.758781 268.090729 
L 192.758781 267.736094 
L 193.843786 267.736094 
L 193.843786 267.026824 
L 195.114412 267.026824 
L 195.114412 266.672188 
L 196.488719 266.672188 
L 196.488719 266.317553 
L 198.087169 266.317553 
L 198.087169 265.608282 
L 198.889721 265.608282 
L 198.889721 265.253647 
L 199.377392 265.253647 
L 199.377392 264.899012 
L 199.921069 264.899012 
L 199.921069 264.544376 
L 200.35767 264.544376 
L 200.395712 263.835106 
L 200.625489 263.835106 
L 200.637999 262.7712 
L 201.346679 262.7712 
L 201.346679 262.416565 
L 202.041238 262.416565 
L 202.041238 262.061929 
L 202.730654 262.061929 
L 202.730654 261.352659 
L 202.872776 261.352659 
L 202.872776 260.998024 
L 203.093572 260.998024 
L 203.093572 260.288753 
L 204.196533 260.288753 
L 204.196533 259.934118 
L 204.445866 259.934118 
L 204.458629 259.224847 
L 204.875027 259.224847 
L 204.875027 258.160941 
L 205.721756 258.160941 
L 205.721756 257.806306 
L 206.520579 257.806306 
L 206.582223 256.7424 
L 206.950137 256.7424 
L 206.950137 256.387765 
L 207.370105 256.387765 
L 207.370105 256.033129 
L 207.509482 256.033129 
L 207.529 255.323859 
L 208.094787 255.323859 
L 208.094787 254.259953 
L 208.264384 254.259953 
L 208.264384 253.905318 
L 208.705236 253.905318 
L 208.705236 253.550682 
L 209.062217 253.550682 
L 209.062217 253.196047 
L 210.162191 253.196047 
L 210.241168 251.068235 
L 211.889398 251.068235 
L 211.889398 250.7136 
L 212.057115 250.7136 
L 212.057115 250.358965 
L 212.391477 250.358965 
L 212.391477 250.004329 
L 212.554796 250.004329 
L 212.554796 249.295059 
L 212.703543 249.295059 
L 212.780758 247.521882 
L 212.864187 247.521882 
L 212.91309 246.457976 
L 214.115964 246.457976 
L 214.115964 245.039435 
L 214.984413 245.039435 
L 214.984413 244.6848 
L 215.335474 244.6848 
L 215.335474 244.330165 
L 215.732028 244.330165 
L 215.732028 243.975529 
L 216.125885 243.975529 
L 216.236723 242.911624 
L 216.447016 242.911624 
L 216.447016 242.556988 
L 217.014469 242.556988 
L 217.014469 242.202353 
L 217.345358 242.202353 
L 217.40828 240.783812 
L 218.194144 240.783812 
L 218.194144 240.074541 
L 218.884598 240.074541 
L 218.884598 239.365271 
L 219.389762 239.365271 
L 219.389762 238.301365 
L 219.613418 238.301365 
L 219.708949 235.464282 
L 219.802868 235.464282 
L 219.863721 233.691106 
L 220.161748 233.691106 
L 220.161748 233.336471 
L 220.362224 233.336471 
L 220.468205 231.563294 
L 220.76546 231.563294 
L 220.76546 230.854024 
L 221.446834 230.854024 
L 221.534544 228.726212 
L 221.618772 228.726212 
L 221.618772 228.371576 
L 221.84189 228.371576 
L 221.84189 227.307671 
L 222.461527 227.307671 
L 222.55927 224.470588 
L 222.631274 224.470588 
L 222.71461 222.697412 
L 222.799503 222.697412 
L 222.88689 220.214965 
L 222.919436 220.214965 
L 223.003412 217.023247 
L 223.174966 217.023247 
L 223.174966 216.668612 
L 223.322515 216.668612 
L 223.322515 215.959341 
L 223.482845 215.959341 
L 223.482845 215.604706 
L 224.507015 215.604706 
L 224.507015 215.250071 
L 224.823418 215.250071 
L 224.824282 214.5408 
L 225.07498 214.5408 
L 225.182983 212.767624 
L 225.275186 212.767624 
L 225.275186 212.058353 
L 225.42228 212.058353 
L 225.42228 210.994447 
L 225.686662 210.994447 
L 225.787935 210.285176 
L 226.065881 210.285176 
L 226.065881 209.575906 
L 227.223736 209.575906 
L 227.260978 207.448094 
L 227.369245 207.448094 
L 227.379811 206.738824 
L 227.489649 206.738824 
L 227.489649 206.029553 
L 227.661391 206.029553 
L 227.748157 204.256376 
L 228.291449 204.256376 
L 228.335963 202.4832 
L 228.877412 202.4832 
L 228.877412 201.773929 
L 229.016253 201.773929 
L 229.016253 201.419294 
L 229.228085 201.419294 
L 229.288173 200.000753 
L 229.389477 200.000753 
L 229.484167 197.518306 
L 229.544789 197.518306 
L 229.552857 196.809035 
L 229.787332 196.809035 
L 229.845662 195.390494 
L 229.980191 195.390494 
L 229.980191 194.326588 
L 230.12681 194.326588 
L 230.186698 191.844141 
L 230.420514 191.844141 
L 230.420514 191.489506 
L 230.873963 191.489506 
L 230.955247 190.780235 
L 231.085815 190.780235 
L 231.196397 187.233882 
L 231.489154 187.233882 
L 231.52369 186.169976 
L 231.696625 186.169976 
L 231.752922 185.106071 
L 231.972303 185.106071 
L 231.972303 183.687529 
L 232.123599 183.687529 
L 232.123599 183.332894 
L 232.328867 183.332894 
L 232.328867 181.559718 
L 232.487688 181.559718 
L 232.487688 181.205082 
L 232.635482 181.205082 
L 232.674243 180.495812 
L 232.759463 180.495812 
L 232.759463 180.141176 
L 233.116014 180.141176 
L 233.116014 179.786541 
L 233.491575 179.786541 
L 233.518816 175.885553 
L 233.639292 175.885553 
L 233.645241 174.467012 
L 233.75255 174.467012 
L 233.75255 173.757741 
L 234.272254 173.757741 
L 234.272254 173.403106 
L 234.451328 173.403106 
L 234.555694 171.984565 
L 234.638976 171.984565 
L 234.648207 170.920659 
L 234.804443 170.920659 
L 234.804443 170.566024 
L 234.933151 170.566024 
L 234.933151 170.211388 
L 235.126576 170.211388 
L 235.126576 169.856753 
L 235.401463 169.856753 
L 235.445252 167.728941 
L 235.579425 167.728941 
L 235.67676 165.955765 
L 235.789042 165.955765 
L 235.888183 164.891859 
L 236.125715 164.891859 
L 236.235828 163.473318 
L 236.418241 163.473318 
L 236.418241 162.409412 
L 236.554478 162.409412 
L 236.554478 161.700141 
L 236.771891 161.700141 
L 236.771891 161.345506 
L 236.911055 161.345506 
L 237.020747 159.572329 
L 237.142828 159.572329 
L 237.142828 158.863059 
L 237.320253 158.863059 
L 237.409891 158.153788 
L 237.439528 158.153788 
L 237.439528 157.444518 
L 237.575613 157.444518 
L 237.643944 153.543529 
L 237.970326 153.543529 
L 238.031673 152.479624 
L 238.095809 152.479624 
L 238.169084 148.933271 
L 238.231907 148.933271 
L 238.231907 148.578635 
L 238.401075 148.578635 
L 238.401075 147.869365 
L 238.565406 147.869365 
L 238.565406 147.160094 
L 238.828341 147.160094 
L 238.852548 146.450824 
L 238.994288 146.450824 
L 238.994288 145.741553 
L 239.222815 145.741553 
L 239.278613 145.032282 
L 239.373771 145.032282 
L 239.373771 144.323012 
L 239.511256 144.323012 
L 239.511256 143.259106 
L 239.677199 143.259106 
L 239.710918 142.1952 
L 239.877835 142.1952 
L 239.877835 141.485929 
L 240.029038 141.485929 
L 240.029038 141.131294 
L 240.357771 141.131294 
L 240.357771 140.776659 
L 240.592102 140.776659 
L 240.592102 140.422024 
L 240.925918 140.422024 
L 241.00946 139.712753 
L 241.148603 139.712753 
L 241.237666 136.875671 
L 241.288886 136.875671 
L 241.303649 135.102494 
L 241.556766 135.102494 
L 241.556766 134.747859 
L 241.884856 134.747859 
L 241.915541 133.683953 
L 242.041936 133.683953 
L 242.041936 133.329318 
L 242.220353 133.329318 
L 242.312684 130.492235 
L 242.369907 130.492235 
L 242.370587 128.719059 
L 242.497687 128.719059 
L 242.497687 128.364424 
L 242.613194 128.364424 
L 242.613194 127.300518 
L 242.760668 127.300518 
L 242.760668 124.463435 
L 243.114078 124.463435 
L 243.121596 122.690259 
L 243.273258 122.690259 
L 243.38089 120.562447 
L 243.497202 120.562447 
L 243.497202 118.08 
L 243.814187 118.08 
L 243.817651 115.952188 
L 244.033376 115.952188 
L 244.033376 115.597553 
L 244.213383 115.597553 
L 244.311796 113.824376 
L 244.35316 113.824376 
L 244.434397 112.405835 
L 244.651338 112.405835 
L 244.651338 112.0512 
L 244.843753 112.0512 
L 244.850014 111.341929 
L 245.023886 111.341929 
L 245.023886 109.923388 
L 245.312572 109.923388 
L 245.423637 107.440941 
L 245.47186 107.440941 
L 245.47186 106.377035 
L 245.612072 106.377035 
L 245.639532 104.603859 
L 245.771409 104.603859 
L 245.836013 103.539953 
L 245.962311 103.539953 
L 246.054244 102.830682 
L 246.080788 102.830682 
L 246.080788 102.121412 
L 246.224587 102.121412 
L 246.224587 101.766776 
L 246.43208 101.766776 
L 246.538926 97.511153 
L 246.661148 97.511153 
L 246.661148 97.156518 
L 246.883448 97.156518 
L 246.883448 96.801882 
L 247.003725 96.801882 
L 247.003725 96.447247 
L 247.16361 96.447247 
L 247.16361 96.092612 
L 247.367572 96.092612 
L 247.367572 95.383341 
L 247.50138 95.383341 
L 247.593838 91.836988 
L 247.877146 91.836988 
L 247.942002 88.290635 
L 248.020239 88.290635 
L 248.020239 87.936 
L 248.131481 87.936 
L 248.183736 87.226729 
L 248.286819 87.226729 
L 248.286819 86.872094 
L 248.451225 86.872094 
L 248.559955 85.453553 
L 248.748915 85.453553 
L 248.748915 85.098918 
L 248.967634 85.098918 
L 248.967634 84.744282 
L 249.096751 84.744282 
L 249.168681 83.325741 
L 249.272646 83.325741 
L 249.379555 81.9072 
L 249.504722 81.9072 
L 249.504722 81.552565 
L 249.621198 81.552565 
L 249.621198 80.488659 
L 249.742014 80.488659 
L 249.777604 79.424753 
L 249.856806 79.424753 
L 249.93636 78.006212 
L 250.086793 78.006212 
L 250.086793 77.651576 
L 250.240062 77.651576 
L 250.240062 76.587671 
L 250.375434 76.587671 
L 250.375434 76.233035 
L 250.527921 76.233035 
L 250.542904 75.523765 
L 250.73028 75.523765 
L 250.763832 74.459859 
L 250.861098 74.459859 
L 250.924226 71.977412 
L 251.068492 71.977412 
L 251.109997 69.494965 
L 251.525939 69.494965 
L 251.549128 67.721788 
L 251.673149 67.721788 
L 251.71003 66.657882 
L 251.813657 66.657882 
L 251.813657 65.948612 
L 251.971506 65.948612 
L 252.077767 61.692988 
L 252.121764 61.692988 
L 252.153128 60.629082 
L 252.238858 60.629082 
L 252.238858 60.274447 
L 252.373821 60.274447 
L 252.373821 59.565176 
L 252.547857 59.565176 
L 252.547857 59.210541 
L 252.66214 59.210541 
L 252.723828 58.146635 
L 252.810322 58.146635 
L 252.882227 55.664188 
L 252.949208 55.664188 
L 252.949208 55.309553 
L 253.287434 55.309553 
L 253.287434 54.600282 
L 253.429467 54.600282 
L 253.51598 53.891012 
L 253.548673 53.891012 
L 253.588053 53.181741 
L 253.757014 53.181741 
L 253.794108 51.053929 
L 254.054848 51.053929 
L 254.054848 49.990024 
L 254.230914 49.990024 
L 254.230914 49.635388 
L 254.343183 49.635388 
L 254.420407 48.216847 
L 254.513373 48.216847 
L 254.55132 46.443671 
L 254.71153 46.443671 
L 254.742387 45.025129 
L 255.08976 45.025129 
L 255.08976 44.670494 
L 255.302159 44.670494 
L 255.302159 43.606588 
L 255.571959 43.606588 
L 255.630029 42.897318 
L 255.915571 42.897318 
L 255.915571 42.542682 
L 256.128556 42.542682 
L 256.136246 41.478776 
L 256.35792 41.478776 
L 256.466901 40.769506 
L 256.635252 40.769506 
L 256.717756 38.287059 
L 256.837764 38.287059 
L 256.939306 37.223153 
L 256.98002 37.223153 
L 257.072239 36.159247 
L 257.142775 36.159247 
L 257.192179 35.449976 
L 257.383763 35.449976 
L 257.383763 35.095341 
L 257.685692 35.095341 
L 257.791461 33.322165 
L 257.856221 33.322165 
L 257.919569 32.258259 
L 258.377468 32.258259 
L 258.377468 31.903624 
L 258.770378 31.903624 
L 258.770378 31.548988 
L 258.941402 31.548988 
L 258.941402 31.194353 
L 259.708172 31.194353 
L 259.708172 30.485082 
L 260.503884 30.485082 
L 260.503884 29.775812 
L 279.488773 29.775812 
L 279.488773 29.421176 
L 279.780607 29.421176 
L 279.780607 29.066541 
L 280.194543 29.066541 
L 280.194543 28.711906 
L 280.47782 28.711906 
L 280.558387 28.002635 
L 280.596358 28.002635 
L 280.596358 27.648 
L 360.8064 27.648 
L 360.8064 27.648 
" style="fill: none; stroke: #ff00ff; stroke-width: 1.5; stroke-linecap: square"/>
   </g>
   <g id="line2d_40">
    <defs>
     <path id="m073db36401" d="M 0 8.485281 
L 5.091169 0 
L 0 -8.485281 
L -5.091169 0 
z
" style="stroke: #ff00ff; stroke-width: 1.5; stroke-linejoin: miter"/>
    </defs>
    <g>
     <use xlink:href="#m073db36401" x="160.673181" y="277.665882" style="fill-opacity: 0; stroke: #ff00ff; stroke-width: 1.5; stroke-linejoin: miter"/>
     <use xlink:href="#m073db36401" x="229.288173" y="200.000753" style="fill-opacity: 0; stroke: #ff00ff; stroke-width: 1.5; stroke-linejoin: miter"/>
     <use xlink:href="#m073db36401" x="252.882227" y="57.437365" style="fill-opacity: 0; stroke: #ff00ff; stroke-width: 1.5; stroke-linejoin: miter"/>
     <use xlink:href="#m073db36401" x="280.596358" y="27.648" style="fill-opacity: 0; stroke: #ff00ff; stroke-width: 1.5; stroke-linejoin: miter"/>
     <use xlink:href="#m073db36401" x="280.596358" y="27.648" style="fill-opacity: 0; stroke: #ff00ff; stroke-width: 1.5; stroke-linejoin: miter"/>
     <use xlink:href="#m073db36401" x="360.8064" y="27.648" style="fill-opacity: 0; stroke: #ff00ff; stroke-width: 1.5; stroke-linejoin: miter"/>
    </g>
   </g>
   <g id="line2d_41">
    <path style="fill: none; stroke: #ff00ff; stroke-width: 1.5; stroke-linecap: square"/>
    <g/>
   </g>
   <g id="line2d_42">
    <path d="M 274.249847 29.775812 
" clip-path="url(#p153690ae5c)" style="fill: none; stroke: #ff00ff; stroke-width: 1.5; stroke-linecap: square"/>
    <defs>
     <path id="m6ff5f29128" d="M -12 12 
L 12 -12 
M -12 -12 
L 12 12 
" style="stroke: #ff00ff"/>
    </defs>
    <g clip-path="url(#p153690ae5c)">
     <use xlink:href="#m6ff5f29128" x="274.249847" y="29.775812" style="fill: #ff00ff; stroke: #ff00ff"/>
    </g>
   </g>
   <g id="line2d_43">
    <defs>
     <path id="me217422c1b" d="M 0 1.5 
C 0.397805 1.5 0.77937 1.341951 1.06066 1.06066 
C 1.341951 0.77937 1.5 0.397805 1.5 0 
C 1.5 -0.397805 1.341951 -0.77937 1.06066 -1.06066 
C 0.77937 -1.341951 0.397805 -1.5 0 -1.5 
C -0.397805 -1.5 -0.77937 -1.341951 -1.06066 -1.06066 
C -1.341951 -0.77937 -1.5 -0.397805 -1.5 0 
C -1.5 0.397805 -1.341951 0.77937 -1.06066 1.06066 
C -0.77937 1.341951 -0.397805 1.5 0 1.5 
z
" style="stroke: #ff7500"/>
    </defs>
    <g>
     <use xlink:href="#me217422c1b" x="300.405673" y="27.648" style="fill: #ff7500; stroke: #ff7500"/>
     <use xlink:href="#me217422c1b" x="300.405673" y="27.648" style="fill: #ff7500; stroke: #ff7500"/>
    </g>
   </g>
   <g id="line2d_44">
    <path d="M 36.933397 298.944 
L 36.933397 297.525459 
L 49.972572 297.525459 
L 49.972572 297.170824 
L 57.6 297.170824 
L 57.6 296.461553 
L 63.011746 296.461553 
L 63.011746 295.043012 
L 67.209423 295.043012 
L 67.209423 294.688376 
L 70.639174 294.688376 
L 70.639174 294.333741 
L 76.050921 294.333741 
L 76.050921 293.624471 
L 82.04153 293.624471 
L 82.04153 293.269835 
L 85.184077 293.269835 
L 85.184077 292.9152 
L 86.578163 292.9152 
L 86.578163 291.496659 
L 87.876026 291.496659 
L 87.876026 290.787388 
L 91.305777 290.787388 
L 91.305777 290.078118 
L 93.287772 290.078118 
L 93.287772 289.723482 
L 95.916911 289.723482 
L 95.916911 289.368847 
L 96.717523 289.368847 
L 96.717523 289.014212 
L 98.933205 289.014212 
L 98.933205 288.659576 
L 99.617337 288.659576 
L 99.617337 288.304941 
L 100.277459 288.304941 
L 100.277459 287.595671 
L 106.791453 287.595671 
L 106.791453 287.241035 
L 108.956085 287.241035 
L 108.956085 286.8864 
L 112.317555 286.8864 
L 112.317555 286.177129 
L 112.656511 286.177129 
L 112.656511 285.467859 
L 115.168444 285.467859 
L 115.168444 285.113224 
L 120.058649 285.113224 
L 120.058649 284.758588 
L 120.506564 284.758588 
L 120.506564 284.403953 
L 121.99526 284.403953 
L 121.99526 284.049318 
L 122.399825 284.049318 
L 122.399825 282.985412 
L 122.598891 282.985412 
L 122.598891 282.630776 
L 123.183753 282.630776 
L 123.183753 282.276141 
L 124.3016 282.276141 
L 124.3016 281.921506 
L 124.481616 281.921506 
L 124.481616 281.566871 
L 128.643427 281.566871 
L 128.643427 281.212235 
L 129.348062 281.212235 
L 129.348062 280.8576 
L 130.938718 280.8576 
L 130.938718 279.793694 
L 131.929028 279.793694 
L 131.929028 279.439059 
L 132.405295 279.439059 
L 132.405295 277.665882 
L 132.522502 277.665882 
L 132.522502 277.311247 
L 132.869802 277.311247 
L 132.869802 276.601976 
L 133.097823 276.601976 
L 133.097823 276.247341 
L 133.210806 276.247341 
L 133.210806 275.892706 
L 133.874812 275.892706 
L 133.874812 275.183435 
L 135.538796 275.183435 
L 135.638065 274.474165 
L 137.159019 274.474165 
L 137.159019 274.119529 
L 137.963436 274.119529 
L 137.963436 273.764894 
L 139.875304 273.764894 
L 139.875304 273.410259 
L 142.387236 273.410259 
L 142.387236 273.055624 
L 142.525051 273.055624 
L 142.525051 272.346353 
L 143.786262 272.346353 
L 143.786262 271.991718 
L 146.859539 271.991718 
L 146.859539 271.637082 
L 148.478174 271.637082 
L 148.478174 271.282447 
L 150.693856 271.282447 
L 150.693856 270.927812 
L 151.60532 270.927812 
L 151.60532 270.573176 
L 152.189318 270.573176 
L 152.189318 270.218541 
L 156.664239 270.218541 
L 156.664239 269.154635 
L 157.487772 269.154635 
L 157.487772 268.445365 
L 159.204482 268.445365 
L 159.204482 268.090729 
L 159.568678 268.090729 
L 159.568678 267.736094 
L 161.592245 267.736094 
L 161.592245 267.381459 
L 161.864343 267.381459 
L 161.96232 266.672188 
L 163.237368 266.672188 
L 163.237368 265.608282 
L 164.280872 265.608282 
L 164.280872 264.899012 
L 166.012839 264.899012 
L 166.111072 262.7712 
L 166.613775 262.7712 
L 166.632844 261.707294 
L 167.103392 261.707294 
L 167.121972 260.998024 
L 167.233064 260.998024 
L 167.306762 260.288753 
L 168.534619 260.288753 
L 168.534619 259.934118 
L 168.892945 259.934118 
L 168.892945 259.579482 
L 170.635104 259.579482 
L 170.635104 259.224847 
L 171.196684 259.224847 
L 171.196684 258.870212 
L 172.718509 258.870212 
L 172.718509 258.515576 
L 173.208563 258.515576 
L 173.208563 258.160941 
L 173.972187 258.160941 
L 174.075124 257.451671 
L 174.304691 257.451671 
L 174.304691 257.097035 
L 174.73082 257.097035 
L 174.73082 256.7424 
L 175.244228 256.7424 
L 175.244228 256.387765 
L 175.626202 256.387765 
L 175.626202 256.033129 
L 176.905149 256.033129 
L 176.905149 255.678494 
L 177.810347 255.678494 
L 177.810347 255.323859 
L 178.512506 255.323859 
L 178.512506 254.969224 
L 179.091369 254.969224 
L 179.091369 254.614588 
L 180.058732 254.614588 
L 180.058732 254.259953 
L 180.327539 254.259953 
L 180.327539 253.905318 
L 180.862845 253.905318 
L 180.862845 253.550682 
L 181.383339 253.550682 
L 181.478807 252.841412 
L 181.889818 252.841412 
L 181.999605 252.132141 
L 182.108755 252.132141 
L 182.108755 251.777506 
L 182.612629 251.777506 
L 182.693959 250.7136 
L 184.918655 250.7136 
L 184.947474 250.004329 
L 186.207383 250.004329 
L 186.261169 248.940424 
L 186.521195 248.940424 
L 186.521195 248.585788 
L 186.784206 248.585788 
L 186.784206 248.231153 
L 187.04359 248.231153 
L 187.04359 247.521882 
L 187.526779 247.521882 
L 187.526779 247.167247 
L 187.714147 247.167247 
L 187.714147 246.812612 
L 188.313525 246.812612 
L 188.313525 246.457976 
L 189.235643 246.457976 
L 189.235643 246.103341 
L 189.378393 246.103341 
L 189.41817 245.394071 
L 189.982923 245.394071 
L 189.982923 244.330165 
L 190.174739 244.330165 
L 190.174739 243.975529 
L 190.391589 243.975529 
L 190.391589 243.620894 
L 190.675119 243.620894 
L 190.675119 243.266259 
L 191.363232 243.266259 
L 191.388809 242.556988 
L 191.60229 242.556988 
L 191.622496 241.493082 
L 191.923006 241.493082 
L 191.923006 241.138447 
L 192.403745 241.138447 
L 192.403745 240.783812 
L 192.777782 240.783812 
L 192.777782 240.429176 
L 193.618117 240.429176 
L 193.713228 239.719906 
L 194.062346 239.719906 
L 194.062346 238.301365 
L 194.924757 238.301365 
L 195.02193 236.882824 
L 195.235629 236.882824 
L 195.235629 236.528188 
L 195.397423 236.528188 
L 195.397423 236.173553 
L 195.582396 236.173553 
L 195.590574 235.464282 
L 195.757464 235.464282 
L 195.757464 235.109647 
L 195.950983 235.109647 
L 195.950983 234.755012 
L 196.098808 234.755012 
L 196.12267 233.691106 
L 196.229678 233.691106 
L 196.280984 232.981835 
L 196.367492 232.981835 
L 196.367492 232.6272 
L 196.547098 232.6272 
L 196.547098 231.917929 
L 196.678756 231.917929 
L 196.778817 230.144753 
L 197.15126 230.144753 
L 197.215124 228.726212 
L 197.342204 228.726212 
L 197.342204 228.371576 
L 197.762139 228.371576 
L 197.762139 225.889129 
L 197.928967 225.889129 
L 197.975847 224.825224 
L 198.097907 224.825224 
L 198.097907 224.115953 
L 198.378496 224.115953 
L 198.466425 222.342776 
L 198.613228 222.342776 
L 198.62367 221.633506 
L 199.323826 221.633506 
L 199.323826 220.924235 
L 199.550434 220.924235 
L 199.550434 220.5696 
L 200.085984 220.5696 
L 200.124579 219.151059 
L 200.354497 219.151059 
L 200.40521 218.087153 
L 200.509377 218.087153 
L 200.509377 217.377882 
L 200.960366 217.377882 
L 200.988005 216.313976 
L 201.152993 216.313976 
L 201.241004 215.604706 
L 201.547329 215.604706 
L 201.547329 215.250071 
L 201.795905 215.250071 
L 201.90144 210.994447 
L 201.924812 210.994447 
L 202.026724 209.221271 
L 202.047041 209.221271 
L 202.099182 208.157365 
L 202.177125 208.157365 
L 202.266218 206.029553 
L 202.497037 206.029553 
L 202.497037 204.965647 
L 202.621244 204.965647 
L 202.722261 203.901741 
L 202.842213 203.901741 
L 202.842213 202.837835 
L 203.471146 202.837835 
L 203.562361 200.000753 
L 203.698358 200.000753 
L 203.698358 198.227576 
L 203.833379 198.227576 
L 203.922858 196.099765 
L 204.588321 196.099765 
L 204.588321 195.745129 
L 204.729705 195.745129 
L 204.734735 193.262682 
L 204.944782 193.262682 
L 205.036564 192.553412 
L 205.231045 192.553412 
L 205.231045 192.198776 
L 205.38228 192.198776 
L 205.38228 191.134871 
L 205.525076 191.134871 
L 205.618876 189.361694 
L 205.716984 189.361694 
L 205.716984 189.007059 
L 205.862009 189.007059 
L 205.918763 188.297788 
L 205.975346 188.297788 
L 205.975346 186.879247 
L 206.188358 186.879247 
L 206.288179 184.3968 
L 206.34828 184.3968 
L 206.34828 184.042165 
L 206.53201 184.042165 
L 206.591338 182.268988 
L 206.806537 182.268988 
L 206.9121 179.786541 
L 206.945666 179.786541 
L 206.945666 179.077271 
L 207.088212 179.077271 
L 207.167922 177.658729 
L 207.216468 177.658729 
L 207.28027 174.112376 
L 207.448632 174.112376 
L 207.535501 171.629929 
L 207.667209 171.629929 
L 207.770204 168.792847 
L 207.859865 168.792847 
L 207.963931 167.019671 
L 208.048459 167.019671 
L 208.048459 166.3104 
L 208.222651 166.3104 
L 208.297705 163.827953 
L 208.341349 163.827953 
L 208.411797 163.118682 
L 208.471676 163.118682 
L 208.560114 161.700141 
L 208.7032 161.700141 
L 208.804741 158.863059 
L 208.98414 158.863059 
L 208.98414 157.799153 
L 209.108112 157.799153 
L 209.217406 156.380612 
L 209.229291 156.380612 
L 209.298469 153.188894 
L 209.531791 153.188894 
L 209.605691 151.061082 
L 209.64447 151.061082 
L 209.692831 148.224 
L 209.817992 148.224 
L 209.842924 146.805459 
L 210.141451 146.805459 
L 210.252423 142.549835 
L 210.271167 142.549835 
L 210.329155 141.131294 
L 210.461297 141.131294 
L 210.529794 139.003482 
L 210.792204 139.003482 
L 210.868585 136.875671 
L 210.960919 136.875671 
L 210.987989 135.811765 
L 211.11739 135.811765 
L 211.217423 134.038588 
L 211.245907 134.038588 
L 211.245907 133.329318 
L 211.440572 133.329318 
L 211.523137 132.620047 
L 211.580892 132.620047 
L 211.645437 131.556141 
L 211.695873 131.556141 
L 211.784243 127.655153 
L 211.810155 127.655153 
L 211.903146 126.945882 
L 211.947755 126.945882 
L 212.04007 126.236612 
L 212.148896 126.236612 
L 212.148896 125.527341 
L 212.418238 125.527341 
L 212.511604 124.818071 
L 212.634274 124.818071 
L 212.710127 123.044894 
L 212.798784 123.044894 
L 212.811883 121.980988 
L 212.924483 121.980988 
L 212.971607 120.917082 
L 213.247104 120.917082 
L 213.333271 118.789271 
L 213.45546 118.789271 
L 213.5202 116.306824 
L 213.625517 116.306824 
L 213.625517 115.952188 
L 213.744271 115.952188 
L 213.744271 115.597553 
L 213.866923 115.597553 
L 213.866923 113.824376 
L 214.001077 113.824376 
L 214.111382 113.115106 
L 214.140383 113.115106 
L 214.24836 110.632659 
L 214.281693 110.632659 
L 214.330071 109.568753 
L 214.415937 109.568753 
L 214.442972 108.150212 
L 214.647472 108.150212 
L 214.700842 104.603859 
L 214.762917 104.603859 
L 214.78651 103.539953 
L 214.904037 103.539953 
L 214.994618 102.830682 
L 215.020834 102.830682 
L 215.089116 100.348235 
L 215.138357 100.348235 
L 215.138357 99.638965 
L 215.301091 99.638965 
L 215.398346 97.865788 
L 215.459586 97.865788 
L 215.534796 96.801882 
L 215.581473 96.801882 
L 215.581473 96.447247 
L 215.716606 96.447247 
L 215.815927 93.9648 
L 215.986759 93.9648 
L 216.028191 92.546259 
L 216.130002 92.546259 
L 216.151943 91.127718 
L 216.378082 91.127718 
L 216.378082 90.773082 
L 216.533166 90.773082 
L 216.533166 90.063812 
L 216.798544 90.063812 
L 216.838228 89.354541 
L 217.005303 89.354541 
L 217.113697 88.645271 
L 217.317039 88.645271 
L 217.317039 87.936 
L 217.699582 87.936 
L 217.724811 86.162824 
L 217.972763 86.162824 
L 218.024942 85.453553 
L 218.123931 85.453553 
L 218.222401 84.389647 
L 240.715425 84.389647 
L 240.785482 81.197929 
L 241.157673 81.197929 
L 241.157673 80.488659 
L 241.316961 80.488659 
L 241.316961 80.134024 
L 241.583381 80.134024 
L 241.583381 79.424753 
L 241.729621 79.424753 
L 241.780924 78.006212 
L 242.029126 78.006212 
L 242.029126 76.942306 
L 242.243307 76.942306 
L 242.322233 75.169129 
L 242.376707 75.169129 
L 242.376707 74.814494 
L 242.4987 74.814494 
L 242.567816 73.041318 
L 242.635003 73.041318 
L 242.635003 72.686682 
L 242.820199 72.686682 
L 242.901375 71.622776 
L 242.97891 71.622776 
L 243.070878 70.558871 
L 243.227498 70.558871 
L 243.227498 70.204235 
L 274.355792 70.204235 
L 274.453854 67.367153 
L 274.470096 67.367153 
L 274.581072 62.047624 
L 274.587944 62.047624 
L 274.695423 57.082729 
L 274.702437 57.082729 
L 274.803747 51.7632 
L 274.814964 51.7632 
L 274.923206 45.379765 
L 274.93393 45.379765 
L 275.027533 41.124141 
L 275.113098 41.124141 
L 275.113098 40.769506 
L 277.121175 40.769506 
L 277.175572 40.060235 
L 277.260972 40.060235 
L 277.360286 38.641694 
L 277.379335 38.641694 
L 277.470082 37.932424 
L 287.371257 37.932424 
L 287.481811 33.6768 
L 287.487312 33.6768 
L 287.569702 30.839718 
L 287.598571 30.839718 
L 287.608552 30.130447 
L 288.745341 30.130447 
L 288.745341 29.775812 
L 294.931059 29.775812 
L 295.029991 28.357271 
L 295.142151 28.357271 
L 295.142151 28.002635 
L 300.405673 28.002635 
L 300.405673 27.648 
L 360.8064 27.648 
L 360.8064 27.648 
" style="fill: none; stroke: #ff7500; stroke-width: 1.5; stroke-linecap: square"/>
   </g>
   <g id="line2d_45">
    <defs>
     <path id="ma11dad0a87" d="M 0 -6 
L -1.347084 -1.854102 
L -5.706339 -1.854102 
L -2.179628 0.708204 
L -3.526712 4.854102 
L -0 2.291796 
L 3.526712 4.854102 
L 2.179628 0.708204 
L 5.706339 -1.854102 
L 1.347084 -1.854102 
z
" style="stroke: #ff7500; stroke-width: 1.5; stroke-linejoin: bevel"/>
    </defs>
    <g>
     <use xlink:href="#ma11dad0a87" x="120.506564" y="284.758588" style="fill-opacity: 0; stroke: #ff7500; stroke-width: 1.5; stroke-linejoin: bevel"/>
     <use xlink:href="#ma11dad0a87" x="194.062346" y="238.301365" style="fill-opacity: 0; stroke: #ff7500; stroke-width: 1.5; stroke-linejoin: bevel"/>
     <use xlink:href="#ma11dad0a87" x="218.222401" y="85.098918" style="fill-opacity: 0; stroke: #ff7500; stroke-width: 1.5; stroke-linejoin: bevel"/>
     <use xlink:href="#ma11dad0a87" x="295.142151" y="28.002635" style="fill-opacity: 0; stroke: #ff7500; stroke-width: 1.5; stroke-linejoin: bevel"/>
     <use xlink:href="#ma11dad0a87" x="300.405673" y="27.648" style="fill-opacity: 0; stroke: #ff7500; stroke-width: 1.5; stroke-linejoin: bevel"/>
     <use xlink:href="#ma11dad0a87" x="360.8064" y="27.648" style="fill-opacity: 0; stroke: #ff7500; stroke-width: 1.5; stroke-linejoin: bevel"/>
    </g>
   </g>
   <g id="line2d_46">
    <path style="fill: none; stroke: #ff7500; stroke-width: 1.5; stroke-linecap: square"/>
    <g/>
   </g>
   <g id="line2d_47">
    <path d="M 274.176 70.204235 
" clip-path="url(#p153690ae5c)" style="fill: none; stroke: #ff7500; stroke-width: 1.5; stroke-linecap: square"/>
    <defs>
     <path id="m9065d8b1a1" d="M -12 12 
L 12 -12 
M -12 -12 
L 12 12 
" style="stroke: #ff7500"/>
    </defs>
    <g clip-path="url(#p153690ae5c)">
     <use xlink:href="#m9065d8b1a1" x="274.176" y="70.204235" style="fill: #ff7500; stroke: #ff7500"/>
    </g>
   </g>
   <g id="line2d_48">
    <path d="M 360.8064 27.648 
L 380.514816 293.51808 
" style="fill: none; stroke: #ff7500; stroke-width: 1.5; stroke-linecap: square"/>
    <g>
     <use xlink:href="#ma11dad0a87" x="360.8064" y="27.648" style="fill-opacity: 0; stroke: #ff7500; stroke-width: 1.5; stroke-linejoin: bevel"/>
     <use xlink:href="#ma11dad0a87" x="380.514816" y="293.51808" style="fill-opacity: 0; stroke: #ff7500; stroke-width: 1.5; stroke-linejoin: bevel"/>
    </g>
   </g>
   <g id="line2d_49">
    <path d="M 360.8064 27.648 
L 380.514816 206.70336 
" style="fill: none; stroke: #ff00ff; stroke-width: 1.5; stroke-linecap: square"/>
    <g>
     <use xlink:href="#m073db36401" x="360.8064" y="27.648" style="fill-opacity: 0; stroke: #ff00ff; stroke-width: 1.5; stroke-linejoin: miter"/>
     <use xlink:href="#m073db36401" x="380.514816" y="206.70336" style="fill-opacity: 0; stroke: #ff00ff; stroke-width: 1.5; stroke-linejoin: miter"/>
    </g>
   </g>
   <g id="line2d_50">
    <path d="M 360.8064 27.648 
L 380.514816 119.88864 
" style="fill: none; stroke: #000080; stroke-width: 1.5; stroke-linecap: square"/>
    <g>
     <use xlink:href="#meace96a5ac" x="360.8064" y="27.648" style="fill-opacity: 0; stroke: #000080; stroke-width: 1.5"/>
     <use xlink:href="#meace96a5ac" x="380.514816" y="119.88864" style="fill-opacity: 0; stroke: #000080; stroke-width: 1.5"/>
    </g>
   </g>
   <g id="line2d_51">
    <path d="M 360.8064 298.944 
L 360.8064 27.648 
" style="fill: none; stroke: #000000; stroke-width: 1.5; stroke-linecap: square"/>
   </g>
   <g id="patch_3">
    <path d="M 57.6 298.944 
L 360.8064 298.944 
" style="fill: none; stroke: #000000; stroke-width: 0.8; stroke-linejoin: miter; stroke-linecap: square"/>
   </g>
   <g id="patch_4">
    <path d="M 57.6 27.648 
L 360.8064 27.648 
" style="fill: none; stroke: #000000; stroke-width: 0.8; stroke-linejoin: miter; stroke-linecap: square"/>
   </g>
   <g id="text_13">
    <!-- PSO -->
    <g transform="translate(386.578944 297.381205)scale(0.14 -0.14)">
     <defs>
      <path id="DejaVuSans-50" d="M 1259 4147 
L 1259 2394 
L 2053 2394 
Q 2494 2394 2734 2622 
Q 2975 2850 2975 3272 
Q 2975 3691 2734 3919 
Q 2494 4147 2053 4147 
L 1259 4147 
z
M 628 4666 
L 2053 4666 
Q 2838 4666 3239 4311 
Q 3641 3956 3641 3272 
Q 3641 2581 3239 2228 
Q 2838 1875 2053 1875 
L 1259 1875 
L 1259 0 
L 628 0 
L 628 4666 
z
" transform="scale(0.015625)"/>
      <path id="DejaVuSans-53" d="M 3425 4513 
L 3425 3897 
Q 3066 4069 2747 4153 
Q 2428 4238 2131 4238 
Q 1616 4238 1336 4038 
Q 1056 3838 1056 3469 
Q 1056 3159 1242 3001 
Q 1428 2844 1947 2747 
L 2328 2669 
Q 3034 2534 3370 2195 
Q 3706 1856 3706 1288 
Q 3706 609 3251 259 
Q 2797 -91 1919 -91 
Q 1588 -91 1214 -16 
Q 841 59 441 206 
L 441 856 
Q 825 641 1194 531 
Q 1563 422 1919 422 
Q 2459 422 2753 634 
Q 3047 847 3047 1241 
Q 3047 1584 2836 1778 
Q 2625 1972 2144 2069 
L 1759 2144 
Q 1053 2284 737 2584 
Q 422 2884 422 3419 
Q 422 4038 858 4394 
Q 1294 4750 2059 4750 
Q 2388 4750 2728 4690 
Q 3069 4631 3425 4513 
z
" transform="scale(0.015625)"/>
      <path id="DejaVuSans-4f" d="M 2522 4238 
Q 1834 4238 1429 3725 
Q 1025 3213 1025 2328 
Q 1025 1447 1429 934 
Q 1834 422 2522 422 
Q 3209 422 3611 934 
Q 4013 1447 4013 2328 
Q 4013 3213 3611 3725 
Q 3209 4238 2522 4238 
z
M 2522 4750 
Q 3503 4750 4090 4092 
Q 4678 3434 4678 2328 
Q 4678 1225 4090 567 
Q 3503 -91 2522 -91 
Q 1538 -91 948 565 
Q 359 1222 359 2328 
Q 359 3434 948 4092 
Q 1538 4750 2522 4750 
z
" transform="scale(0.015625)"/>
     </defs>
     <use xlink:href="#DejaVuSans-50"/>
     <use xlink:href="#DejaVuSans-53" x="60.302734"/>
     <use xlink:href="#DejaVuSans-4f" x="123.779297"/>
    </g>
   </g>
   <g id="text_14">
    <!-- GA -->
    <g transform="translate(386.578944 210.566485)scale(0.14 -0.14)">
     <defs>
      <path id="DejaVuSans-47" d="M 3809 666 
L 3809 1919 
L 2778 1919 
L 2778 2438 
L 4434 2438 
L 4434 434 
Q 4069 175 3628 42 
Q 3188 -91 2688 -91 
Q 1594 -91 976 548 
Q 359 1188 359 2328 
Q 359 3472 976 4111 
Q 1594 4750 2688 4750 
Q 3144 4750 3555 4637 
Q 3966 4525 4313 4306 
L 4313 3634 
Q 3963 3931 3569 4081 
Q 3175 4231 2741 4231 
Q 1884 4231 1454 3753 
Q 1025 3275 1025 2328 
Q 1025 1384 1454 906 
Q 1884 428 2741 428 
Q 3075 428 3337 486 
Q 3600 544 3809 666 
z
" transform="scale(0.015625)"/>
      <path id="DejaVuSans-41" d="M 2188 4044 
L 1331 1722 
L 3047 1722 
L 2188 4044 
z
M 1831 4666 
L 2547 4666 
L 4325 0 
L 3669 0 
L 3244 1197 
L 1141 1197 
L 716 0 
L 50 0 
L 1831 4666 
z
" transform="scale(0.015625)"/>
     </defs>
     <use xlink:href="#DejaVuSans-47"/>
     <use xlink:href="#DejaVuSans-41" x="77.490234"/>
    </g>
   </g>
   <g id="text_15">
    <!-- LCGA -->
    <g transform="translate(386.578944 123.751765)scale(0.14 -0.14)">
     <defs>
      <path id="DejaVuSans-4c" d="M 628 4666 
L 1259 4666 
L 1259 531 
L 3531 531 
L 3531 0 
L 628 0 
L 628 4666 
z
" transform="scale(0.015625)"/>
      <path id="DejaVuSans-43" d="M 4122 4306 
L 4122 3641 
Q 3803 3938 3442 4084 
Q 3081 4231 2675 4231 
Q 1875 4231 1450 3742 
Q 1025 3253 1025 2328 
Q 1025 1406 1450 917 
Q 1875 428 2675 428 
Q 3081 428 3442 575 
Q 3803 722 4122 1019 
L 4122 359 
Q 3791 134 3420 21 
Q 3050 -91 2638 -91 
Q 1578 -91 968 557 
Q 359 1206 359 2328 
Q 359 3453 968 4101 
Q 1578 4750 2638 4750 
Q 3056 4750 3426 4639 
Q 3797 4528 4122 4306 
z
" transform="scale(0.015625)"/>
     </defs>
     <use xlink:href="#DejaVuSans-4c"/>
     <use xlink:href="#DejaVuSans-43" x="55.712891"/>
     <use xlink:href="#DejaVuSans-47" x="125.537109"/>
     <use xlink:href="#DejaVuSans-41" x="203.027344"/>
    </g>
   </g>
   <g id="text_16">
    <!-- best 2009 -->
    <g transform="translate(386.578944 36.937045)scale(0.14 -0.14)">
     <defs>
      <path id="DejaVuSans-62" d="M 3116 1747 
Q 3116 2381 2855 2742 
Q 2594 3103 2138 3103 
Q 1681 3103 1420 2742 
Q 1159 2381 1159 1747 
Q 1159 1113 1420 752 
Q 1681 391 2138 391 
Q 2594 391 2855 752 
Q 3116 1113 3116 1747 
z
M 1159 2969 
Q 1341 3281 1617 3432 
Q 1894 3584 2278 3584 
Q 2916 3584 3314 3078 
Q 3713 2572 3713 1747 
Q 3713 922 3314 415 
Q 2916 -91 2278 -91 
Q 1894 -91 1617 61 
Q 1341 213 1159 525 
L 1159 0 
L 581 0 
L 581 4863 
L 1159 4863 
L 1159 2969 
z
" transform="scale(0.015625)"/>
      <path id="DejaVuSans-39" d="M 703 97 
L 703 672 
Q 941 559 1184 500 
Q 1428 441 1663 441 
Q 2288 441 2617 861 
Q 2947 1281 2994 2138 
Q 2813 1869 2534 1725 
Q 2256 1581 1919 1581 
Q 1219 1581 811 2004 
Q 403 2428 403 3163 
Q 403 3881 828 4315 
Q 1253 4750 1959 4750 
Q 2769 4750 3195 4129 
Q 3622 3509 3622 2328 
Q 3622 1225 3098 567 
Q 2575 -91 1691 -91 
Q 1453 -91 1209 -44 
Q 966 3 703 97 
z
M 1959 2075 
Q 2384 2075 2632 2365 
Q 2881 2656 2881 3163 
Q 2881 3666 2632 3958 
Q 2384 4250 1959 4250 
Q 1534 4250 1286 3958 
Q 1038 3666 1038 3163 
Q 1038 2656 1286 2365 
Q 1534 2075 1959 2075 
z
" transform="scale(0.015625)"/>
     </defs>
     <use xlink:href="#DejaVuSans-62"/>
     <use xlink:href="#DejaVuSans-65" x="63.476562"/>
     <use xlink:href="#DejaVuSans-73" x="125"/>
     <use xlink:href="#DejaVuSans-74" x="177.099609"/>
     <use xlink:href="#DejaVuSans-20" x="216.308594"/>
     <use xlink:href="#DejaVuSans-32" x="248.095703"/>
     <use xlink:href="#DejaVuSans-30" x="311.71875"/>
     <use xlink:href="#DejaVuSans-30" x="375.341797"/>
     <use xlink:href="#DejaVuSans-39" x="438.964844"/>
    </g>
   </g>
   <g id="text_17">
    <!-- bbob f4, 3-D -->
    <g transform="translate(60.632064 38.111366)scale(0.102 -0.102)">
     <defs>
      <path id="DejaVuSans-33" d="M 2597 2516 
Q 3050 2419 3304 2112 
Q 3559 1806 3559 1356 
Q 3559 666 3084 287 
Q 2609 -91 1734 -91 
Q 1441 -91 1130 -33 
Q 819 25 488 141 
L 488 750 
Q 750 597 1062 519 
Q 1375 441 1716 441 
Q 2309 441 2620 675 
Q 2931 909 2931 1356 
Q 2931 1769 2642 2001 
Q 2353 2234 1838 2234 
L 1294 2234 
L 1294 2753 
L 1863 2753 
Q 2328 2753 2575 2939 
Q 2822 3125 2822 3475 
Q 2822 3834 2567 4026 
Q 2313 4219 1838 4219 
Q 1578 4219 1281 4162 
Q 984 4106 628 3988 
L 628 4550 
Q 988 4650 1302 4700 
Q 1616 4750 1894 4750 
Q 2613 4750 3031 4423 
Q 3450 4097 3450 3541 
Q 3450 3153 3228 2886 
Q 3006 2619 2597 2516 
z
" transform="scale(0.015625)"/>
      <path id="DejaVuSans-44" d="M 1259 4147 
L 1259 519 
L 2022 519 
Q 2988 519 3436 956 
Q 3884 1394 3884 2338 
Q 3884 3275 3436 3711 
Q 2988 4147 2022 4147 
L 1259 4147 
z
M 628 4666 
L 1925 4666 
Q 3281 4666 3915 4102 
Q 4550 3538 4550 2338 
Q 4550 1131 3912 565 
Q 3275 0 1925 0 
L 628 0 
L 628 4666 
z
" transform="scale(0.015625)"/>
     </defs>
     <use xlink:href="#DejaVuSans-62"/>
     <use xlink:href="#DejaVuSans-62" x="63.476562"/>
     <use xlink:href="#DejaVuSans-6f" x="126.953125"/>
     <use xlink:href="#DejaVuSans-62" x="188.134766"/>
     <use xlink:href="#DejaVuSans-20" x="251.611328"/>
     <use xlink:href="#DejaVuSans-66" x="283.398438"/>
     <use xlink:href="#DejaVuSans-34" x="318.603516"/>
     <use xlink:href="#DejaVuSans-2c" x="382.226562"/>
     <use xlink:href="#DejaVuSans-20" x="414.013672"/>
     <use xlink:href="#DejaVuSans-33" x="445.800781"/>
     <use xlink:href="#DejaVuSans-2d" x="509.423828"/>
     <use xlink:href="#DejaVuSans-44" x="545.507812"/>
    </g>
    <!-- 51 targets: 100..1e-08 -->
    <g transform="translate(60.632064 49.533135)scale(0.102 -0.102)">
     <defs>
      <path id="DejaVuSans-35" d="M 691 4666 
L 3169 4666 
L 3169 4134 
L 1269 4134 
L 1269 2991 
Q 1406 3038 1543 3061 
Q 1681 3084 1819 3084 
Q 2600 3084 3056 2656 
Q 3513 2228 3513 1497 
Q 3513 744 3044 326 
Q 2575 -91 1722 -91 
Q 1428 -91 1123 -41 
Q 819 9 494 109 
L 494 744 
Q 775 591 1075 516 
Q 1375 441 1709 441 
Q 2250 441 2565 725 
Q 2881 1009 2881 1497 
Q 2881 1984 2565 2268 
Q 2250 2553 1709 2553 
Q 1456 2553 1204 2497 
Q 953 2441 691 2322 
L 691 4666 
z
" transform="scale(0.015625)"/>
      <path id="DejaVuSans-3a" d="M 750 794 
L 1409 794 
L 1409 0 
L 750 0 
L 750 794 
z
M 750 3309 
L 1409 3309 
L 1409 2516 
L 750 2516 
L 750 3309 
z
" transform="scale(0.015625)"/>
     </defs>
     <use xlink:href="#DejaVuSans-35"/>
     <use xlink:href="#DejaVuSans-31" x="63.623047"/>
     <use xlink:href="#DejaVuSans-20" x="127.246094"/>
     <use xlink:href="#DejaVuSans-74" x="159.033203"/>
     <use xlink:href="#DejaVuSans-61" x="198.242188"/>
     <use xlink:href="#DejaVuSans-72" x="259.521484"/>
     <use xlink:href="#DejaVuSans-67" x="298.884766"/>
     <use xlink:href="#DejaVuSans-65" x="362.361328"/>
     <use xlink:href="#DejaVuSans-74" x="423.884766"/>
     <use xlink:href="#DejaVuSans-73" x="463.09375"/>
     <use xlink:href="#DejaVuSans-3a" x="515.193359"/>
     <use xlink:href="#DejaVuSans-20" x="548.884766"/>
     <use xlink:href="#DejaVuSans-31" x="580.671875"/>
     <use xlink:href="#DejaVuSans-30" x="644.294922"/>
     <use xlink:href="#DejaVuSans-30" x="707.917969"/>
     <use xlink:href="#DejaVuSans-2e" x="771.541016"/>
     <use xlink:href="#DejaVuSans-2e" x="803.328125"/>
     <use xlink:href="#DejaVuSans-31" x="835.115234"/>
     <use xlink:href="#DejaVuSans-65" x="898.738281"/>
     <use xlink:href="#DejaVuSans-2d" x="960.261719"/>
     <use xlink:href="#DejaVuSans-30" x="996.345703"/>
     <use xlink:href="#DejaVuSans-38" x="1059.96875"/>
    </g>
    <!-- 15 instances -->
    <g transform="translate(60.632064 60.954904)scale(0.102 -0.102)">
     <use xlink:href="#DejaVuSans-31"/>
     <use xlink:href="#DejaVuSans-35" x="63.623047"/>
     <use xlink:href="#DejaVuSans-20" x="127.246094"/>
     <use xlink:href="#DejaVuSans-69" x="159.033203"/>
     <use xlink:href="#DejaVuSans-6e" x="186.816406"/>
     <use xlink:href="#DejaVuSans-73" x="250.195312"/>
     <use xlink:href="#DejaVuSans-74" x="302.294922"/>
     <use xlink:href="#DejaVuSans-61" x="341.503906"/>
     <use xlink:href="#DejaVuSans-6e" x="402.783203"/>
     <use xlink:href="#DejaVuSans-63" x="466.162109"/>
     <use xlink:href="#DejaVuSans-65" x="521.142578"/>
     <use xlink:href="#DejaVuSans-73" x="582.666016"/>
    </g>
   </g>
   <g id="text_18">
    <!-- v2.6 -->
    <g style="fill: #808080" transform="translate(198.292262 294.151352)scale(0.1 -0.1)">
     <use xlink:href="#DejaVuSans-76"/>
     <use xlink:href="#DejaVuSans-32" x="59.179688"/>
     <use xlink:href="#DejaVuSans-2e" x="122.802734"/>
     <use xlink:href="#DejaVuSans-36" x="154.589844"/>
    </g>
   </g>
   <g id="text_19">
    <!-- 4 Skew Rastrigin-Bueche separ -->
    <g transform="translate(54.3282 21.648)scale(0.2 -0.2)">
     <defs>
      <path id="DejaVuSans-6b" d="M 581 4863 
L 1159 4863 
L 1159 1991 
L 2875 3500 
L 3609 3500 
L 1753 1863 
L 3688 0 
L 2938 0 
L 1159 1709 
L 1159 0 
L 581 0 
L 581 4863 
z
" transform="scale(0.015625)"/>
      <path id="DejaVuSans-77" d="M 269 3500 
L 844 3500 
L 1563 769 
L 2278 3500 
L 2956 3500 
L 3675 769 
L 4391 3500 
L 4966 3500 
L 4050 0 
L 3372 0 
L 2619 2869 
L 1863 0 
L 1184 0 
L 269 3500 
z
" transform="scale(0.015625)"/>
      <path id="DejaVuSans-52" d="M 2841 2188 
Q 3044 2119 3236 1894 
Q 3428 1669 3622 1275 
L 4263 0 
L 3584 0 
L 2988 1197 
Q 2756 1666 2539 1819 
Q 2322 1972 1947 1972 
L 1259 1972 
L 1259 0 
L 628 0 
L 628 4666 
L 2053 4666 
Q 2853 4666 3247 4331 
Q 3641 3997 3641 3322 
Q 3641 2881 3436 2590 
Q 3231 2300 2841 2188 
z
M 1259 4147 
L 1259 2491 
L 2053 2491 
Q 2509 2491 2742 2702 
Q 2975 2913 2975 3322 
Q 2975 3731 2742 3939 
Q 2509 4147 2053 4147 
L 1259 4147 
z
" transform="scale(0.015625)"/>
      <path id="DejaVuSans-42" d="M 1259 2228 
L 1259 519 
L 2272 519 
Q 2781 519 3026 730 
Q 3272 941 3272 1375 
Q 3272 1813 3026 2020 
Q 2781 2228 2272 2228 
L 1259 2228 
z
M 1259 4147 
L 1259 2741 
L 2194 2741 
Q 2656 2741 2882 2914 
Q 3109 3088 3109 3444 
Q 3109 3797 2882 3972 
Q 2656 4147 2194 4147 
L 1259 4147 
z
M 628 4666 
L 2241 4666 
Q 2963 4666 3353 4366 
Q 3744 4066 3744 3513 
Q 3744 3084 3544 2831 
Q 3344 2578 2956 2516 
Q 3422 2416 3680 2098 
Q 3938 1781 3938 1306 
Q 3938 681 3513 340 
Q 3088 0 2303 0 
L 628 0 
L 628 4666 
z
" transform="scale(0.015625)"/>
      <path id="DejaVuSans-68" d="M 3513 2113 
L 3513 0 
L 2938 0 
L 2938 2094 
Q 2938 2591 2744 2837 
Q 2550 3084 2163 3084 
Q 1697 3084 1428 2787 
Q 1159 2491 1159 1978 
L 1159 0 
L 581 0 
L 581 4863 
L 1159 4863 
L 1159 2956 
Q 1366 3272 1645 3428 
Q 1925 3584 2291 3584 
Q 2894 3584 3203 3211 
Q 3513 2838 3513 2113 
z
" transform="scale(0.015625)"/>
     </defs>
     <use xlink:href="#DejaVuSans-34"/>
     <use xlink:href="#DejaVuSans-20" x="63.623047"/>
     <use xlink:href="#DejaVuSans-53" x="95.410156"/>
     <use xlink:href="#DejaVuSans-6b" x="158.886719"/>
     <use xlink:href="#DejaVuSans-65" x="213.171875"/>
     <use xlink:href="#DejaVuSans-77" x="274.695312"/>
     <use xlink:href="#DejaVuSans-20" x="356.482422"/>
     <use xlink:href="#DejaVuSans-52" x="388.269531"/>
     <use xlink:href="#DejaVuSans-61" x="455.501953"/>
     <use xlink:href="#DejaVuSans-73" x="516.78125"/>
     <use xlink:href="#DejaVuSans-74" x="568.880859"/>
     <use xlink:href="#DejaVuSans-72" x="608.089844"/>
     <use xlink:href="#DejaVuSans-69" x="649.203125"/>
     <use xlink:href="#DejaVuSans-67" x="676.986328"/>
     <use xlink:href="#DejaVuSans-69" x="740.462891"/>
     <use xlink:href="#DejaVuSans-6e" x="768.246094"/>
     <use xlink:href="#DejaVuSans-2d" x="831.625"/>
     <use xlink:href="#DejaVuSans-42" x="864.083984"/>
     <use xlink:href="#DejaVuSans-75" x="932.6875"/>
     <use xlink:href="#DejaVuSans-65" x="996.066406"/>
     <use xlink:href="#DejaVuSans-63" x="1057.589844"/>
     <use xlink:href="#DejaVuSans-68" x="1112.570312"/>
     <use xlink:href="#DejaVuSans-65" x="1175.949219"/>
     <use xlink:href="#DejaVuSans-20" x="1237.472656"/>
     <use xlink:href="#DejaVuSans-73" x="1269.259766"/>
     <use xlink:href="#DejaVuSans-65" x="1321.359375"/>
     <use xlink:href="#DejaVuSans-70" x="1382.882812"/>
     <use xlink:href="#DejaVuSans-61" x="1446.359375"/>
     <use xlink:href="#DejaVuSans-72" x="1507.638672"/>
    </g>
   </g>
  </g>
 </g>
 <defs>
  <clipPath id="p153690ae5c">
   <rect x="57.6" y="27.648" width="303.2064" height="271.296"/>
  </clipPath>
 </defs>
</svg>
