<?xml version="1.0" encoding="utf-8" standalone="no"?>
<!DOCTYPE svg PUBLIC "-//W3C//DTD SVG 1.1//EN"
  "http://www.w3.org/Graphics/SVG/1.1/DTD/svg11.dtd">
<svg xmlns:xlink="http://www.w3.org/1999/xlink" width="460.8pt" height="345.6pt" viewBox="0 0 460.8 345.6" xmlns="http://www.w3.org/2000/svg" version="1.1">
 <metadata>
  <rdf:RDF xmlns:dc="http://purl.org/dc/elements/1.1/" xmlns:cc="http://creativecommons.org/ns#" xmlns:rdf="http://www.w3.org/1999/02/22-rdf-syntax-ns#">
   <cc:Work>
    <dc:type rdf:resource="http://purl.org/dc/dcmitype/StillImage"/>
    <dc:date>2024-05-29T08:09:06.714016</dc:date>
    <dc:format>image/svg+xml</dc:format>
    <dc:creator>
     <cc:Agent>
      <dc:title>Matplotlib v3.5.1, https://matplotlib.org/</dc:title>
     </cc:Agent>
    </dc:creator>
   </cc:Work>
  </rdf:RDF>
 </metadata>
 <defs>
  <style type="text/css">*{stroke-linejoin: round; stroke-linecap: butt}</style>
 </defs>
 <g id="figure_1">
  <g id="patch_1">
   <path d="M 0 345.6 
L 460.8 345.6 
L 460.8 0 
L 0 0 
z
" style="fill: #ffffff"/>
  </g>
  <g id="axes_1">
   <g id="patch_2">
    <path d="M 57.6 298.944 
L 360.8064 298.944 
L 360.8064 27.648 
L 57.6 27.648 
z
" style="fill: #ffffff"/>
   </g>
   <g id="line2d_1">
    <path d="M 44.560826 298.944 
L 44.560826 224.470588 
L 103.544339 224.470588 
L 103.544339 219.151059 
L 105.850679 219.151059 
L 105.850679 213.831529 
L 112.989468 213.831529 
L 112.989468 208.512 
L 113.954374 208.512 
L 113.954374 203.192471 
L 120.616896 203.192471 
L 120.616896 197.872941 
L 120.944062 197.872941 
L 120.944062 192.553412 
L 145.678157 192.553412 
L 145.678157 187.233882 
L 145.851536 187.233882 
L 145.851536 181.914353 
L 145.93763 181.914353 
L 145.93763 176.594824 
L 146.27812 176.594824 
L 146.27812 171.275294 
L 146.362288 171.275294 
L 146.362288 165.955765 
L 146.612557 165.955765 
L 146.612557 160.636235 
L 147.022411 160.636235 
L 147.022411 155.316706 
L 147.103321 155.316706 
L 147.103321 149.997176 
L 147.264104 149.997176 
L 147.264104 144.677647 
L 147.502732 144.677647 
L 147.502732 139.358118 
L 147.660152 139.358118 
L 147.660152 134.038588 
L 147.816265 134.038588 
L 147.816265 123.399529 
L 148.124658 123.399529 
L 148.124658 118.08 
L 148.352679 118.08 
L 148.352679 112.760471 
L 148.57797 112.760471 
L 148.57797 107.440941 
L 148.652472 107.440941 
L 148.652472 102.121412 
L 149.093387 102.121412 
L 149.093387 91.482353 
L 149.381693 91.482353 
L 149.381693 86.162824 
L 149.453084 86.162824 
L 149.453084 80.843294 
L 149.665646 80.843294 
L 149.665646 75.523765 
L 149.73597 75.523765 
L 149.73597 70.204235 
L 149.875833 70.204235 
L 149.875833 64.884706 
L 150.221009 64.884706 
L 150.221009 59.565176 
L 150.289291 59.565176 
L 150.289291 54.245647 
L 150.357325 54.245647 
L 150.357325 43.606588 
L 150.425115 43.606588 
L 150.425115 38.287059 
L 150.62703 38.287059 
L 150.62703 32.967529 
L 150.693856 32.967529 
L 150.693856 27.648 
L 360.8064 27.648 
" style="fill: none; stroke: #f5deb3; stroke-width: 4; stroke-linecap: square"/>
   </g>
   <g id="line2d_2">
    <defs>
     <path id="m1079558d61" d="M 0 7.778175 
L 7.778175 0 
L 0 -7.778175 
L -7.778175 0 
z
" style="stroke: #f5deb3; stroke-width: 1.5; stroke-linejoin: miter"/>
    </defs>
    <g>
     <use xlink:href="#m1079558d61" x="145.93763" y="181.914353" style="fill: #f5deb3; stroke: #f5deb3; stroke-width: 1.5; stroke-linejoin: miter"/>
     <use xlink:href="#m1079558d61" x="149.453084" y="80.843294" style="fill: #f5deb3; stroke: #f5deb3; stroke-width: 1.5; stroke-linejoin: miter"/>
     <use xlink:href="#m1079558d61" x="150.693856" y="32.967529" style="fill: #f5deb3; stroke: #f5deb3; stroke-width: 1.5; stroke-linejoin: miter"/>
     <use xlink:href="#m1079558d61" x="150.693856" y="27.648" style="fill: #f5deb3; stroke: #f5deb3; stroke-width: 1.5; stroke-linejoin: miter"/>
     <use xlink:href="#m1079558d61" x="360.8064" y="27.648" style="fill: #f5deb3; stroke: #f5deb3; stroke-width: 1.5; stroke-linejoin: miter"/>
    </g>
   </g>
   <g id="line2d_3">
    <path style="fill: none; stroke: #f5deb3; stroke-width: 4; stroke-linecap: square"/>
    <g/>
   </g>
   <g id="line2d_4">
    <path d="M 360.8064 27.648 
L 380.514816 33.07392 
" style="fill: none; stroke: #f5deb3; stroke-width: 4; stroke-linecap: square"/>
    <g>
     <use xlink:href="#m1079558d61" x="360.8064" y="27.648" style="fill: #f5deb3; stroke: #f5deb3; stroke-width: 1.5; stroke-linejoin: miter"/>
     <use xlink:href="#m1079558d61" x="380.514816" y="33.07392" style="fill: #f5deb3; stroke: #f5deb3; stroke-width: 1.5; stroke-linejoin: miter"/>
    </g>
   </g>
   <g id="matplotlib.axis_1">
    <g id="xtick_1">
     <g id="line2d_5">
      <path d="M 57.6 298.944 
L 57.6 27.648 
" clip-path="url(#p3440c42a77)" style="fill: none; stroke: #b0b0b0; stroke-width: 0.8; stroke-linecap: square"/>
     </g>
     <g id="line2d_6">
      <defs>
       <path id="mb8c47c360a" d="M 0 0 
L 0 3.5 
" style="stroke: #000000; stroke-width: 0.8"/>
      </defs>
      <g>
       <use xlink:href="#mb8c47c360a" x="57.6" y="298.944" style="stroke: #000000; stroke-width: 0.8"/>
      </g>
     </g>
     <g id="text_1">
      <!-- 0 -->
      <g transform="translate(52.191875 318.861344)scale(0.17 -0.17)">
       <defs>
        <path id="DejaVuSans-30" d="M 2034 4250 
Q 1547 4250 1301 3770 
Q 1056 3291 1056 2328 
Q 1056 1369 1301 889 
Q 1547 409 2034 409 
Q 2525 409 2770 889 
Q 3016 1369 3016 2328 
Q 3016 3291 2770 3770 
Q 2525 4250 2034 4250 
z
M 2034 4750 
Q 2819 4750 3233 4129 
Q 3647 3509 3647 2328 
Q 3647 1150 3233 529 
Q 2819 -91 2034 -91 
Q 1250 -91 836 529 
Q 422 1150 422 2328 
Q 422 3509 836 4129 
Q 1250 4750 2034 4750 
z
" transform="scale(0.015625)"/>
       </defs>
       <use xlink:href="#DejaVuSans-30"/>
      </g>
     </g>
    </g>
    <g id="xtick_2">
     <g id="line2d_7">
      <path d="M 144.2304 298.944 
L 144.2304 27.648 
" clip-path="url(#p3440c42a77)" style="fill: none; stroke: #b0b0b0; stroke-width: 0.8; stroke-linecap: square"/>
     </g>
     <g id="line2d_8">
      <g>
       <use xlink:href="#mb8c47c360a" x="144.2304" y="298.944" style="stroke: #000000; stroke-width: 0.8"/>
      </g>
     </g>
     <g id="text_2">
      <!-- 2 -->
      <g transform="translate(138.822275 318.861344)scale(0.17 -0.17)">
       <defs>
        <path id="DejaVuSans-32" d="M 1228 531 
L 3431 531 
L 3431 0 
L 469 0 
L 469 531 
Q 828 903 1448 1529 
Q 2069 2156 2228 2338 
Q 2531 2678 2651 2914 
Q 2772 3150 2772 3378 
Q 2772 3750 2511 3984 
Q 2250 4219 1831 4219 
Q 1534 4219 1204 4116 
Q 875 4013 500 3803 
L 500 4441 
Q 881 4594 1212 4672 
Q 1544 4750 1819 4750 
Q 2544 4750 2975 4387 
Q 3406 4025 3406 3419 
Q 3406 3131 3298 2873 
Q 3191 2616 2906 2266 
Q 2828 2175 2409 1742 
Q 1991 1309 1228 531 
z
" transform="scale(0.015625)"/>
       </defs>
       <use xlink:href="#DejaVuSans-32"/>
      </g>
     </g>
    </g>
    <g id="xtick_3">
     <g id="line2d_9">
      <path d="M 230.8608 298.944 
L 230.8608 27.648 
" clip-path="url(#p3440c42a77)" style="fill: none; stroke: #b0b0b0; stroke-width: 0.8; stroke-linecap: square"/>
     </g>
     <g id="line2d_10">
      <g>
       <use xlink:href="#mb8c47c360a" x="230.8608" y="298.944" style="stroke: #000000; stroke-width: 0.8"/>
      </g>
     </g>
     <g id="text_3">
      <!-- 4 -->
      <g transform="translate(225.452675 318.861344)scale(0.17 -0.17)">
       <defs>
        <path id="DejaVuSans-34" d="M 2419 4116 
L 825 1625 
L 2419 1625 
L 2419 4116 
z
M 2253 4666 
L 3047 4666 
L 3047 1625 
L 3713 1625 
L 3713 1100 
L 3047 1100 
L 3047 0 
L 2419 0 
L 2419 1100 
L 313 1100 
L 313 1709 
L 2253 4666 
z
" transform="scale(0.015625)"/>
       </defs>
       <use xlink:href="#DejaVuSans-34"/>
      </g>
     </g>
    </g>
    <g id="xtick_4">
     <g id="line2d_11">
      <path d="M 317.4912 298.944 
L 317.4912 27.648 
" clip-path="url(#p3440c42a77)" style="fill: none; stroke: #b0b0b0; stroke-width: 0.8; stroke-linecap: square"/>
     </g>
     <g id="line2d_12">
      <g>
       <use xlink:href="#mb8c47c360a" x="317.4912" y="298.944" style="stroke: #000000; stroke-width: 0.8"/>
      </g>
     </g>
     <g id="text_4">
      <!-- 6 -->
      <g transform="translate(312.083075 318.861344)scale(0.17 -0.17)">
       <defs>
        <path id="DejaVuSans-36" d="M 2113 2584 
Q 1688 2584 1439 2293 
Q 1191 2003 1191 1497 
Q 1191 994 1439 701 
Q 1688 409 2113 409 
Q 2538 409 2786 701 
Q 3034 994 3034 1497 
Q 3034 2003 2786 2293 
Q 2538 2584 2113 2584 
z
M 3366 4563 
L 3366 3988 
Q 3128 4100 2886 4159 
Q 2644 4219 2406 4219 
Q 1781 4219 1451 3797 
Q 1122 3375 1075 2522 
Q 1259 2794 1537 2939 
Q 1816 3084 2150 3084 
Q 2853 3084 3261 2657 
Q 3669 2231 3669 1497 
Q 3669 778 3244 343 
Q 2819 -91 2113 -91 
Q 1303 -91 875 529 
Q 447 1150 447 2328 
Q 447 3434 972 4092 
Q 1497 4750 2381 4750 
Q 2619 4750 2861 4703 
Q 3103 4656 3366 4563 
z
" transform="scale(0.015625)"/>
       </defs>
       <use xlink:href="#DejaVuSans-36"/>
      </g>
     </g>
    </g>
    <g id="xtick_5">
     <g id="line2d_13">
      <path d="M 100.9152 298.944 
L 100.9152 27.648 
" clip-path="url(#p3440c42a77)" style="fill: none; stroke: #b0b0b0; stroke-width: 0.8; stroke-linecap: square"/>
     </g>
     <g id="line2d_14">
      <defs>
       <path id="m4368a7e9ff" d="M 0 0 
L 0 2 
" style="stroke: #000000; stroke-width: 0.6"/>
      </defs>
      <g>
       <use xlink:href="#m4368a7e9ff" x="100.9152" y="298.944" style="stroke: #000000; stroke-width: 0.6"/>
      </g>
     </g>
    </g>
    <g id="xtick_6">
     <g id="line2d_15">
      <path d="M 187.5456 298.944 
L 187.5456 27.648 
" clip-path="url(#p3440c42a77)" style="fill: none; stroke: #b0b0b0; stroke-width: 0.8; stroke-linecap: square"/>
     </g>
     <g id="line2d_16">
      <g>
       <use xlink:href="#m4368a7e9ff" x="187.5456" y="298.944" style="stroke: #000000; stroke-width: 0.6"/>
      </g>
     </g>
    </g>
    <g id="xtick_7">
     <g id="line2d_17">
      <path d="M 274.176 298.944 
L 274.176 27.648 
" clip-path="url(#p3440c42a77)" style="fill: none; stroke: #b0b0b0; stroke-width: 0.8; stroke-linecap: square"/>
     </g>
     <g id="line2d_18">
      <g>
       <use xlink:href="#m4368a7e9ff" x="274.176" y="298.944" style="stroke: #000000; stroke-width: 0.6"/>
      </g>
     </g>
    </g>
    <g id="xtick_8">
     <g id="line2d_19">
      <path d="M 360.8064 298.944 
L 360.8064 27.648 
" clip-path="url(#p3440c42a77)" style="fill: none; stroke: #b0b0b0; stroke-width: 0.8; stroke-linecap: square"/>
     </g>
     <g id="line2d_20">
      <g>
       <use xlink:href="#m4368a7e9ff" x="360.8064" y="298.944" style="stroke: #000000; stroke-width: 0.6"/>
      </g>
     </g>
    </g>
    <g id="text_5">
     <!-- log10(# f-evals / dimension) -->
     <g transform="translate(88.823278 339.314156)scale(0.17 -0.17)">
      <defs>
       <path id="DejaVuSans-6c" d="M 603 4863 
L 1178 4863 
L 1178 0 
L 603 0 
L 603 4863 
z
" transform="scale(0.015625)"/>
       <path id="DejaVuSans-6f" d="M 1959 3097 
Q 1497 3097 1228 2736 
Q 959 2375 959 1747 
Q 959 1119 1226 758 
Q 1494 397 1959 397 
Q 2419 397 2687 759 
Q 2956 1122 2956 1747 
Q 2956 2369 2687 2733 
Q 2419 3097 1959 3097 
z
M 1959 3584 
Q 2709 3584 3137 3096 
Q 3566 2609 3566 1747 
Q 3566 888 3137 398 
Q 2709 -91 1959 -91 
Q 1206 -91 779 398 
Q 353 888 353 1747 
Q 353 2609 779 3096 
Q 1206 3584 1959 3584 
z
" transform="scale(0.015625)"/>
       <path id="DejaVuSans-67" d="M 2906 1791 
Q 2906 2416 2648 2759 
Q 2391 3103 1925 3103 
Q 1463 3103 1205 2759 
Q 947 2416 947 1791 
Q 947 1169 1205 825 
Q 1463 481 1925 481 
Q 2391 481 2648 825 
Q 2906 1169 2906 1791 
z
M 3481 434 
Q 3481 -459 3084 -895 
Q 2688 -1331 1869 -1331 
Q 1566 -1331 1297 -1286 
Q 1028 -1241 775 -1147 
L 775 -588 
Q 1028 -725 1275 -790 
Q 1522 -856 1778 -856 
Q 2344 -856 2625 -561 
Q 2906 -266 2906 331 
L 2906 616 
Q 2728 306 2450 153 
Q 2172 0 1784 0 
Q 1141 0 747 490 
Q 353 981 353 1791 
Q 353 2603 747 3093 
Q 1141 3584 1784 3584 
Q 2172 3584 2450 3431 
Q 2728 3278 2906 2969 
L 2906 3500 
L 3481 3500 
L 3481 434 
z
" transform="scale(0.015625)"/>
       <path id="DejaVuSans-31" d="M 794 531 
L 1825 531 
L 1825 4091 
L 703 3866 
L 703 4441 
L 1819 4666 
L 2450 4666 
L 2450 531 
L 3481 531 
L 3481 0 
L 794 0 
L 794 531 
z
" transform="scale(0.015625)"/>
       <path id="DejaVuSans-28" d="M 1984 4856 
Q 1566 4138 1362 3434 
Q 1159 2731 1159 2009 
Q 1159 1288 1364 580 
Q 1569 -128 1984 -844 
L 1484 -844 
Q 1016 -109 783 600 
Q 550 1309 550 2009 
Q 550 2706 781 3412 
Q 1013 4119 1484 4856 
L 1984 4856 
z
" transform="scale(0.015625)"/>
       <path id="DejaVuSans-23" d="M 3272 2816 
L 2363 2816 
L 2100 1772 
L 3016 1772 
L 3272 2816 
z
M 2803 4594 
L 2478 3297 
L 3391 3297 
L 3719 4594 
L 4219 4594 
L 3897 3297 
L 4872 3297 
L 4872 2816 
L 3775 2816 
L 3519 1772 
L 4513 1772 
L 4513 1294 
L 3397 1294 
L 3072 0 
L 2572 0 
L 2894 1294 
L 1978 1294 
L 1656 0 
L 1153 0 
L 1478 1294 
L 494 1294 
L 494 1772 
L 1594 1772 
L 1856 2816 
L 850 2816 
L 850 3297 
L 1978 3297 
L 2297 4594 
L 2803 4594 
z
" transform="scale(0.015625)"/>
       <path id="DejaVuSans-20" transform="scale(0.015625)"/>
       <path id="DejaVuSans-66" d="M 2375 4863 
L 2375 4384 
L 1825 4384 
Q 1516 4384 1395 4259 
Q 1275 4134 1275 3809 
L 1275 3500 
L 2222 3500 
L 2222 3053 
L 1275 3053 
L 1275 0 
L 697 0 
L 697 3053 
L 147 3053 
L 147 3500 
L 697 3500 
L 697 3744 
Q 697 4328 969 4595 
Q 1241 4863 1831 4863 
L 2375 4863 
z
" transform="scale(0.015625)"/>
       <path id="DejaVuSans-2d" d="M 313 2009 
L 1997 2009 
L 1997 1497 
L 313 1497 
L 313 2009 
z
" transform="scale(0.015625)"/>
       <path id="DejaVuSans-65" d="M 3597 1894 
L 3597 1613 
L 953 1613 
Q 991 1019 1311 708 
Q 1631 397 2203 397 
Q 2534 397 2845 478 
Q 3156 559 3463 722 
L 3463 178 
Q 3153 47 2828 -22 
Q 2503 -91 2169 -91 
Q 1331 -91 842 396 
Q 353 884 353 1716 
Q 353 2575 817 3079 
Q 1281 3584 2069 3584 
Q 2775 3584 3186 3129 
Q 3597 2675 3597 1894 
z
M 3022 2063 
Q 3016 2534 2758 2815 
Q 2500 3097 2075 3097 
Q 1594 3097 1305 2825 
Q 1016 2553 972 2059 
L 3022 2063 
z
" transform="scale(0.015625)"/>
       <path id="DejaVuSans-76" d="M 191 3500 
L 800 3500 
L 1894 563 
L 2988 3500 
L 3597 3500 
L 2284 0 
L 1503 0 
L 191 3500 
z
" transform="scale(0.015625)"/>
       <path id="DejaVuSans-61" d="M 2194 1759 
Q 1497 1759 1228 1600 
Q 959 1441 959 1056 
Q 959 750 1161 570 
Q 1363 391 1709 391 
Q 2188 391 2477 730 
Q 2766 1069 2766 1631 
L 2766 1759 
L 2194 1759 
z
M 3341 1997 
L 3341 0 
L 2766 0 
L 2766 531 
Q 2569 213 2275 61 
Q 1981 -91 1556 -91 
Q 1019 -91 701 211 
Q 384 513 384 1019 
Q 384 1609 779 1909 
Q 1175 2209 1959 2209 
L 2766 2209 
L 2766 2266 
Q 2766 2663 2505 2880 
Q 2244 3097 1772 3097 
Q 1472 3097 1187 3025 
Q 903 2953 641 2809 
L 641 3341 
Q 956 3463 1253 3523 
Q 1550 3584 1831 3584 
Q 2591 3584 2966 3190 
Q 3341 2797 3341 1997 
z
" transform="scale(0.015625)"/>
       <path id="DejaVuSans-73" d="M 2834 3397 
L 2834 2853 
Q 2591 2978 2328 3040 
Q 2066 3103 1784 3103 
Q 1356 3103 1142 2972 
Q 928 2841 928 2578 
Q 928 2378 1081 2264 
Q 1234 2150 1697 2047 
L 1894 2003 
Q 2506 1872 2764 1633 
Q 3022 1394 3022 966 
Q 3022 478 2636 193 
Q 2250 -91 1575 -91 
Q 1294 -91 989 -36 
Q 684 19 347 128 
L 347 722 
Q 666 556 975 473 
Q 1284 391 1588 391 
Q 1994 391 2212 530 
Q 2431 669 2431 922 
Q 2431 1156 2273 1281 
Q 2116 1406 1581 1522 
L 1381 1569 
Q 847 1681 609 1914 
Q 372 2147 372 2553 
Q 372 3047 722 3315 
Q 1072 3584 1716 3584 
Q 2034 3584 2315 3537 
Q 2597 3491 2834 3397 
z
" transform="scale(0.015625)"/>
       <path id="DejaVuSans-2f" d="M 1625 4666 
L 2156 4666 
L 531 -594 
L 0 -594 
L 1625 4666 
z
" transform="scale(0.015625)"/>
       <path id="DejaVuSans-64" d="M 2906 2969 
L 2906 4863 
L 3481 4863 
L 3481 0 
L 2906 0 
L 2906 525 
Q 2725 213 2448 61 
Q 2172 -91 1784 -91 
Q 1150 -91 751 415 
Q 353 922 353 1747 
Q 353 2572 751 3078 
Q 1150 3584 1784 3584 
Q 2172 3584 2448 3432 
Q 2725 3281 2906 2969 
z
M 947 1747 
Q 947 1113 1208 752 
Q 1469 391 1925 391 
Q 2381 391 2643 752 
Q 2906 1113 2906 1747 
Q 2906 2381 2643 2742 
Q 2381 3103 1925 3103 
Q 1469 3103 1208 2742 
Q 947 2381 947 1747 
z
" transform="scale(0.015625)"/>
       <path id="DejaVuSans-69" d="M 603 3500 
L 1178 3500 
L 1178 0 
L 603 0 
L 603 3500 
z
M 603 4863 
L 1178 4863 
L 1178 4134 
L 603 4134 
L 603 4863 
z
" transform="scale(0.015625)"/>
       <path id="DejaVuSans-6d" d="M 3328 2828 
Q 3544 3216 3844 3400 
Q 4144 3584 4550 3584 
Q 5097 3584 5394 3201 
Q 5691 2819 5691 2113 
L 5691 0 
L 5113 0 
L 5113 2094 
Q 5113 2597 4934 2840 
Q 4756 3084 4391 3084 
Q 3944 3084 3684 2787 
Q 3425 2491 3425 1978 
L 3425 0 
L 2847 0 
L 2847 2094 
Q 2847 2600 2669 2842 
Q 2491 3084 2119 3084 
Q 1678 3084 1418 2786 
Q 1159 2488 1159 1978 
L 1159 0 
L 581 0 
L 581 3500 
L 1159 3500 
L 1159 2956 
Q 1356 3278 1631 3431 
Q 1906 3584 2284 3584 
Q 2666 3584 2933 3390 
Q 3200 3197 3328 2828 
z
" transform="scale(0.015625)"/>
       <path id="DejaVuSans-6e" d="M 3513 2113 
L 3513 0 
L 2938 0 
L 2938 2094 
Q 2938 2591 2744 2837 
Q 2550 3084 2163 3084 
Q 1697 3084 1428 2787 
Q 1159 2491 1159 1978 
L 1159 0 
L 581 0 
L 581 3500 
L 1159 3500 
L 1159 2956 
Q 1366 3272 1645 3428 
Q 1925 3584 2291 3584 
Q 2894 3584 3203 3211 
Q 3513 2838 3513 2113 
z
" transform="scale(0.015625)"/>
       <path id="DejaVuSans-29" d="M 513 4856 
L 1013 4856 
Q 1481 4119 1714 3412 
Q 1947 2706 1947 2009 
Q 1947 1309 1714 600 
Q 1481 -109 1013 -844 
L 513 -844 
Q 928 -128 1133 580 
Q 1338 1288 1338 2009 
Q 1338 2731 1133 3434 
Q 928 4138 513 4856 
z
" transform="scale(0.015625)"/>
      </defs>
      <use xlink:href="#DejaVuSans-6c"/>
      <use xlink:href="#DejaVuSans-6f" x="27.783203"/>
      <use xlink:href="#DejaVuSans-67" x="88.964844"/>
      <use xlink:href="#DejaVuSans-31" x="152.441406"/>
      <use xlink:href="#DejaVuSans-30" x="216.064453"/>
      <use xlink:href="#DejaVuSans-28" x="279.6875"/>
      <use xlink:href="#DejaVuSans-23" x="318.701172"/>
      <use xlink:href="#DejaVuSans-20" x="402.490234"/>
      <use xlink:href="#DejaVuSans-66" x="434.277344"/>
      <use xlink:href="#DejaVuSans-2d" x="463.982422"/>
      <use xlink:href="#DejaVuSans-65" x="500.066406"/>
      <use xlink:href="#DejaVuSans-76" x="561.589844"/>
      <use xlink:href="#DejaVuSans-61" x="620.769531"/>
      <use xlink:href="#DejaVuSans-6c" x="682.048828"/>
      <use xlink:href="#DejaVuSans-73" x="709.832031"/>
      <use xlink:href="#DejaVuSans-20" x="761.931641"/>
      <use xlink:href="#DejaVuSans-2f" x="793.71875"/>
      <use xlink:href="#DejaVuSans-20" x="827.410156"/>
      <use xlink:href="#DejaVuSans-64" x="859.197266"/>
      <use xlink:href="#DejaVuSans-69" x="922.673828"/>
      <use xlink:href="#DejaVuSans-6d" x="950.457031"/>
      <use xlink:href="#DejaVuSans-65" x="1047.869141"/>
      <use xlink:href="#DejaVuSans-6e" x="1109.392578"/>
      <use xlink:href="#DejaVuSans-73" x="1172.771484"/>
      <use xlink:href="#DejaVuSans-69" x="1224.871094"/>
      <use xlink:href="#DejaVuSans-6f" x="1252.654297"/>
      <use xlink:href="#DejaVuSans-6e" x="1313.835938"/>
      <use xlink:href="#DejaVuSans-29" x="1377.214844"/>
     </g>
    </g>
   </g>
   <g id="matplotlib.axis_2">
    <g id="ytick_1">
     <g id="line2d_21">
      <path d="M 57.6 298.944 
L 360.8064 298.944 
" clip-path="url(#p3440c42a77)" style="fill: none; stroke: #b0b0b0; stroke-width: 0.8; stroke-linecap: square"/>
     </g>
     <g id="line2d_22">
      <defs>
       <path id="m305cf4a756" d="M 0 0 
L -3.5 0 
" style="stroke: #000000; stroke-width: 0.8"/>
      </defs>
      <g>
       <use xlink:href="#m305cf4a756" x="57.6" y="298.944" style="stroke: #000000; stroke-width: 0.8"/>
      </g>
     </g>
     <g id="text_6">
      <!-- 0.0 -->
      <g transform="translate(25.155 305.02275)scale(0.16 -0.16)">
       <defs>
        <path id="DejaVuSans-2e" d="M 684 794 
L 1344 794 
L 1344 0 
L 684 0 
L 684 794 
z
" transform="scale(0.015625)"/>
       </defs>
       <use xlink:href="#DejaVuSans-30"/>
       <use xlink:href="#DejaVuSans-2e" x="63.623047"/>
       <use xlink:href="#DejaVuSans-30" x="95.410156"/>
      </g>
     </g>
    </g>
    <g id="ytick_2">
     <g id="line2d_23">
      <path d="M 57.6 244.6848 
L 360.8064 244.6848 
" clip-path="url(#p3440c42a77)" style="fill: none; stroke: #b0b0b0; stroke-width: 0.8; stroke-linecap: square"/>
     </g>
     <g id="line2d_24">
      <g>
       <use xlink:href="#m305cf4a756" x="57.6" y="244.6848" style="stroke: #000000; stroke-width: 0.8"/>
      </g>
     </g>
     <g id="text_7">
      <!-- 0.2 -->
      <g transform="translate(25.155 250.76355)scale(0.16 -0.16)">
       <use xlink:href="#DejaVuSans-30"/>
       <use xlink:href="#DejaVuSans-2e" x="63.623047"/>
       <use xlink:href="#DejaVuSans-32" x="95.410156"/>
      </g>
     </g>
    </g>
    <g id="ytick_3">
     <g id="line2d_25">
      <path d="M 57.6 190.4256 
L 360.8064 190.4256 
" clip-path="url(#p3440c42a77)" style="fill: none; stroke: #b0b0b0; stroke-width: 0.8; stroke-linecap: square"/>
     </g>
     <g id="line2d_26">
      <g>
       <use xlink:href="#m305cf4a756" x="57.6" y="190.4256" style="stroke: #000000; stroke-width: 0.8"/>
      </g>
     </g>
     <g id="text_8">
      <!-- 0.4 -->
      <g transform="translate(25.155 196.50435)scale(0.16 -0.16)">
       <use xlink:href="#DejaVuSans-30"/>
       <use xlink:href="#DejaVuSans-2e" x="63.623047"/>
       <use xlink:href="#DejaVuSans-34" x="95.410156"/>
      </g>
     </g>
    </g>
    <g id="ytick_4">
     <g id="line2d_27">
      <path d="M 57.6 136.1664 
L 360.8064 136.1664 
" clip-path="url(#p3440c42a77)" style="fill: none; stroke: #b0b0b0; stroke-width: 0.8; stroke-linecap: square"/>
     </g>
     <g id="line2d_28">
      <g>
       <use xlink:href="#m305cf4a756" x="57.6" y="136.1664" style="stroke: #000000; stroke-width: 0.8"/>
      </g>
     </g>
     <g id="text_9">
      <!-- 0.6 -->
      <g transform="translate(25.155 142.24515)scale(0.16 -0.16)">
       <use xlink:href="#DejaVuSans-30"/>
       <use xlink:href="#DejaVuSans-2e" x="63.623047"/>
       <use xlink:href="#DejaVuSans-36" x="95.410156"/>
      </g>
     </g>
    </g>
    <g id="ytick_5">
     <g id="line2d_29">
      <path d="M 57.6 81.9072 
L 360.8064 81.9072 
" clip-path="url(#p3440c42a77)" style="fill: none; stroke: #b0b0b0; stroke-width: 0.8; stroke-linecap: square"/>
     </g>
     <g id="line2d_30">
      <g>
       <use xlink:href="#m305cf4a756" x="57.6" y="81.9072" style="stroke: #000000; stroke-width: 0.8"/>
      </g>
     </g>
     <g id="text_10">
      <!-- 0.8 -->
      <g transform="translate(25.155 87.98595)scale(0.16 -0.16)">
       <defs>
        <path id="DejaVuSans-38" d="M 2034 2216 
Q 1584 2216 1326 1975 
Q 1069 1734 1069 1313 
Q 1069 891 1326 650 
Q 1584 409 2034 409 
Q 2484 409 2743 651 
Q 3003 894 3003 1313 
Q 3003 1734 2745 1975 
Q 2488 2216 2034 2216 
z
M 1403 2484 
Q 997 2584 770 2862 
Q 544 3141 544 3541 
Q 544 4100 942 4425 
Q 1341 4750 2034 4750 
Q 2731 4750 3128 4425 
Q 3525 4100 3525 3541 
Q 3525 3141 3298 2862 
Q 3072 2584 2669 2484 
Q 3125 2378 3379 2068 
Q 3634 1759 3634 1313 
Q 3634 634 3220 271 
Q 2806 -91 2034 -91 
Q 1263 -91 848 271 
Q 434 634 434 1313 
Q 434 1759 690 2068 
Q 947 2378 1403 2484 
z
M 1172 3481 
Q 1172 3119 1398 2916 
Q 1625 2713 2034 2713 
Q 2441 2713 2670 2916 
Q 2900 3119 2900 3481 
Q 2900 3844 2670 4047 
Q 2441 4250 2034 4250 
Q 1625 4250 1398 4047 
Q 1172 3844 1172 3481 
z
" transform="scale(0.015625)"/>
       </defs>
       <use xlink:href="#DejaVuSans-30"/>
       <use xlink:href="#DejaVuSans-2e" x="63.623047"/>
       <use xlink:href="#DejaVuSans-38" x="95.410156"/>
      </g>
     </g>
    </g>
    <g id="ytick_6">
     <g id="line2d_31">
      <path d="M 57.6 27.648 
L 360.8064 27.648 
" clip-path="url(#p3440c42a77)" style="fill: none; stroke: #b0b0b0; stroke-width: 0.8; stroke-linecap: square"/>
     </g>
     <g id="line2d_32">
      <g>
       <use xlink:href="#m305cf4a756" x="57.6" y="27.648" style="stroke: #000000; stroke-width: 0.8"/>
      </g>
     </g>
     <g id="text_11">
      <!-- 1.0 -->
      <g transform="translate(25.155 33.72675)scale(0.16 -0.16)">
       <use xlink:href="#DejaVuSans-31"/>
       <use xlink:href="#DejaVuSans-2e" x="63.623047"/>
       <use xlink:href="#DejaVuSans-30" x="95.410156"/>
      </g>
     </g>
    </g>
    <g id="text_12">
     <!-- Fraction of function,target pairs -->
     <g transform="translate(17.619531 297.681)rotate(-90)scale(0.17 -0.17)">
      <defs>
       <path id="DejaVuSans-46" d="M 628 4666 
L 3309 4666 
L 3309 4134 
L 1259 4134 
L 1259 2759 
L 3109 2759 
L 3109 2228 
L 1259 2228 
L 1259 0 
L 628 0 
L 628 4666 
z
" transform="scale(0.015625)"/>
       <path id="DejaVuSans-72" d="M 2631 2963 
Q 2534 3019 2420 3045 
Q 2306 3072 2169 3072 
Q 1681 3072 1420 2755 
Q 1159 2438 1159 1844 
L 1159 0 
L 581 0 
L 581 3500 
L 1159 3500 
L 1159 2956 
Q 1341 3275 1631 3429 
Q 1922 3584 2338 3584 
Q 2397 3584 2469 3576 
Q 2541 3569 2628 3553 
L 2631 2963 
z
" transform="scale(0.015625)"/>
       <path id="DejaVuSans-63" d="M 3122 3366 
L 3122 2828 
Q 2878 2963 2633 3030 
Q 2388 3097 2138 3097 
Q 1578 3097 1268 2742 
Q 959 2388 959 1747 
Q 959 1106 1268 751 
Q 1578 397 2138 397 
Q 2388 397 2633 464 
Q 2878 531 3122 666 
L 3122 134 
Q 2881 22 2623 -34 
Q 2366 -91 2075 -91 
Q 1284 -91 818 406 
Q 353 903 353 1747 
Q 353 2603 823 3093 
Q 1294 3584 2113 3584 
Q 2378 3584 2631 3529 
Q 2884 3475 3122 3366 
z
" transform="scale(0.015625)"/>
       <path id="DejaVuSans-74" d="M 1172 4494 
L 1172 3500 
L 2356 3500 
L 2356 3053 
L 1172 3053 
L 1172 1153 
Q 1172 725 1289 603 
Q 1406 481 1766 481 
L 2356 481 
L 2356 0 
L 1766 0 
Q 1100 0 847 248 
Q 594 497 594 1153 
L 594 3053 
L 172 3053 
L 172 3500 
L 594 3500 
L 594 4494 
L 1172 4494 
z
" transform="scale(0.015625)"/>
       <path id="DejaVuSans-75" d="M 544 1381 
L 544 3500 
L 1119 3500 
L 1119 1403 
Q 1119 906 1312 657 
Q 1506 409 1894 409 
Q 2359 409 2629 706 
Q 2900 1003 2900 1516 
L 2900 3500 
L 3475 3500 
L 3475 0 
L 2900 0 
L 2900 538 
Q 2691 219 2414 64 
Q 2138 -91 1772 -91 
Q 1169 -91 856 284 
Q 544 659 544 1381 
z
M 1991 3584 
L 1991 3584 
z
" transform="scale(0.015625)"/>
       <path id="DejaVuSans-2c" d="M 750 794 
L 1409 794 
L 1409 256 
L 897 -744 
L 494 -744 
L 750 256 
L 750 794 
z
" transform="scale(0.015625)"/>
       <path id="DejaVuSans-70" d="M 1159 525 
L 1159 -1331 
L 581 -1331 
L 581 3500 
L 1159 3500 
L 1159 2969 
Q 1341 3281 1617 3432 
Q 1894 3584 2278 3584 
Q 2916 3584 3314 3078 
Q 3713 2572 3713 1747 
Q 3713 922 3314 415 
Q 2916 -91 2278 -91 
Q 1894 -91 1617 61 
Q 1341 213 1159 525 
z
M 3116 1747 
Q 3116 2381 2855 2742 
Q 2594 3103 2138 3103 
Q 1681 3103 1420 2742 
Q 1159 2381 1159 1747 
Q 1159 1113 1420 752 
Q 1681 391 2138 391 
Q 2594 391 2855 752 
Q 3116 1113 3116 1747 
z
" transform="scale(0.015625)"/>
      </defs>
      <use xlink:href="#DejaVuSans-46"/>
      <use xlink:href="#DejaVuSans-72" x="50.269531"/>
      <use xlink:href="#DejaVuSans-61" x="91.382812"/>
      <use xlink:href="#DejaVuSans-63" x="152.662109"/>
      <use xlink:href="#DejaVuSans-74" x="207.642578"/>
      <use xlink:href="#DejaVuSans-69" x="246.851562"/>
      <use xlink:href="#DejaVuSans-6f" x="274.634766"/>
      <use xlink:href="#DejaVuSans-6e" x="335.816406"/>
      <use xlink:href="#DejaVuSans-20" x="399.195312"/>
      <use xlink:href="#DejaVuSans-6f" x="430.982422"/>
      <use xlink:href="#DejaVuSans-66" x="492.164062"/>
      <use xlink:href="#DejaVuSans-20" x="527.369141"/>
      <use xlink:href="#DejaVuSans-66" x="559.15625"/>
      <use xlink:href="#DejaVuSans-75" x="594.361328"/>
      <use xlink:href="#DejaVuSans-6e" x="657.740234"/>
      <use xlink:href="#DejaVuSans-63" x="721.119141"/>
      <use xlink:href="#DejaVuSans-74" x="776.099609"/>
      <use xlink:href="#DejaVuSans-69" x="815.308594"/>
      <use xlink:href="#DejaVuSans-6f" x="843.091797"/>
      <use xlink:href="#DejaVuSans-6e" x="904.273438"/>
      <use xlink:href="#DejaVuSans-2c" x="967.652344"/>
      <use xlink:href="#DejaVuSans-74" x="999.439453"/>
      <use xlink:href="#DejaVuSans-61" x="1038.648438"/>
      <use xlink:href="#DejaVuSans-72" x="1099.927734"/>
      <use xlink:href="#DejaVuSans-67" x="1139.291016"/>
      <use xlink:href="#DejaVuSans-65" x="1202.767578"/>
      <use xlink:href="#DejaVuSans-74" x="1264.291016"/>
      <use xlink:href="#DejaVuSans-20" x="1303.5"/>
      <use xlink:href="#DejaVuSans-70" x="1335.287109"/>
      <use xlink:href="#DejaVuSans-61" x="1398.763672"/>
      <use xlink:href="#DejaVuSans-69" x="1460.042969"/>
      <use xlink:href="#DejaVuSans-72" x="1487.826172"/>
      <use xlink:href="#DejaVuSans-73" x="1528.939453"/>
     </g>
    </g>
   </g>
   <g id="line2d_33">
    <defs>
     <path id="m0506cc9306" d="M 0 1.5 
C 0.397805 1.5 0.77937 1.341951 1.06066 1.06066 
C 1.341951 0.77937 1.5 0.397805 1.5 0 
C 1.5 -0.397805 1.341951 -0.77937 1.06066 -1.06066 
C 0.77937 -1.341951 0.397805 -1.5 0 -1.5 
C -0.397805 -1.5 -0.77937 -1.341951 -1.06066 -1.06066 
C -1.341951 -0.77937 -1.5 -0.397805 -1.5 0 
C -1.5 0.397805 -1.341951 0.77937 -1.06066 1.06066 
C -0.77937 1.341951 -0.397805 1.5 0 1.5 
z
" style="stroke: #f5deb3"/>
    </defs>
    <g>
     <use xlink:href="#m0506cc9306" x="150.693856" y="27.648" style="fill: #f5deb3; stroke: #f5deb3"/>
     <use xlink:href="#m0506cc9306" x="150.693856" y="27.648" style="fill: #f5deb3; stroke: #f5deb3"/>
    </g>
   </g>
   <g id="line2d_34">
    <defs>
     <path id="m34b84032c7" d="M 0 1.5 
C 0.397805 1.5 0.77937 1.341951 1.06066 1.06066 
C 1.341951 0.77937 1.5 0.397805 1.5 0 
C 1.5 -0.397805 1.341951 -0.77937 1.06066 -1.06066 
C 0.77937 -1.341951 0.397805 -1.5 0 -1.5 
C -0.397805 -1.5 -0.77937 -1.341951 -1.06066 -1.06066 
C -1.341951 -0.77937 -1.5 -0.397805 -1.5 0 
C -1.5 0.397805 -1.341951 0.77937 -1.06066 1.06066 
C -0.77937 1.341951 -0.397805 1.5 0 1.5 
z
" style="stroke: #000080"/>
    </defs>
    <g>
     <use xlink:href="#m34b84032c7" x="289.355669" y="27.648" style="fill: #000080; stroke: #000080"/>
     <use xlink:href="#m34b84032c7" x="289.355669" y="27.648" style="fill: #000080; stroke: #000080"/>
    </g>
   </g>
   <g id="line2d_35">
    <path d="M 44.560826 298.944 
L 44.560826 281.212235 
L 57.6 281.212235 
L 57.6 271.282447 
L 65.227428 271.282447 
L 65.227428 269.863906 
L 70.639174 269.863906 
L 70.639174 264.899012 
L 74.836851 264.899012 
L 74.836851 259.579482 
L 78.266603 259.579482 
L 78.266603 255.323859 
L 85.894031 255.323859 
L 85.894031 254.614588 
L 87.876026 254.614588 
L 87.876026 251.422871 
L 89.668958 251.422871 
L 89.668958 249.649694 
L 91.305777 249.649694 
L 91.305777 248.231153 
L 97.857967 248.231153 
L 97.857967 247.521882 
L 98.933205 247.521882 
L 98.933205 246.812612 
L 101.833019 246.812612 
L 101.833019 244.6848 
L 103.544339 244.6848 
L 103.544339 243.266259 
L 104.344952 243.266259 
L 104.344952 241.138447 
L 112.989468 241.138447 
L 112.989468 240.074541 
L 113.478107 240.074541 
L 113.478107 237.592094 
L 117.772007 237.592094 
L 117.772007 237.237459 
L 118.524569 237.237459 
L 118.524569 236.173553 
L 119.24818 236.173553 
L 119.24818 235.464282 
L 119.599808 235.464282 
L 119.599808 235.109647 
L 120.944062 235.109647 
L 120.944062 234.755012 
L 127.911368 234.755012 
L 127.911368 234.045741 
L 129.417095 234.045741 
L 129.417095 231.563294 
L 130.027253 231.563294 
L 130.027253 231.208659 
L 131.378407 231.208659 
L 131.378407 230.499388 
L 133.490329 230.499388 
L 133.490329 230.144753 
L 134.14471 230.144753 
L 134.14471 229.435482 
L 134.463557 229.435482 
L 134.463557 227.662306 
L 136.270855 227.662306 
L 136.270855 227.307671 
L 136.836659 227.307671 
L 136.836659 226.953035 
L 137.654681 226.953035 
L 137.654681 225.889129 
L 140.611586 225.889129 
L 140.611586 225.534494 
L 141.610664 225.534494 
L 141.610664 222.697412 
L 143.560197 222.697412 
L 143.560197 214.5408 
L 146.27812 214.5408 
L 146.362288 211.349082 
L 147.816265 211.349082 
L 147.816265 210.994447 
L 149.73597 210.994447 
L 149.73597 210.639812 
L 152.230346 210.639812 
L 152.230346 209.221271 
L 152.474656 209.221271 
L 152.474656 207.093459 
L 154.86483 207.093459 
L 154.86483 206.029553 
L 157.779907 206.029553 
L 157.779907 204.965647 
L 159.857774 204.965647 
L 159.857774 204.611012 
L 160.777545 204.611012 
L 160.777545 204.256376 
L 162.740015 204.256376 
L 162.740015 203.901741 
L 163.531835 203.901741 
L 163.531835 202.4832 
L 164.452864 202.4832 
L 164.452864 201.773929 
L 164.676244 201.773929 
L 164.676244 199.646118 
L 165.422585 199.646118 
L 165.422585 199.291482 
L 165.96353 199.291482 
L 165.96353 197.163671 
L 166.286609 197.163671 
L 166.286609 196.809035 
L 167.056864 196.809035 
L 167.056864 196.4544 
L 167.223831 196.4544 
L 167.223831 196.099765 
L 167.983997 196.099765 
L 167.983997 195.745129 
L 168.508761 195.745129 
L 168.560441 193.617318 
L 168.663377 193.617318 
L 168.663377 193.262682 
L 169.194741 193.262682 
L 169.194741 192.553412 
L 169.856584 192.553412 
L 169.904695 191.134871 
L 170.681267 191.134871 
L 170.681267 190.780235 
L 170.978599 190.780235 
L 170.978599 190.4256 
L 171.493403 190.4256 
L 171.493403 189.361694 
L 171.88669 189.361694 
L 171.88669 187.943153 
L 172.670177 187.943153 
L 172.670177 187.588518 
L 172.91743 187.588518 
L 172.91743 187.233882 
L 173.48202 187.233882 
L 173.48202 186.879247 
L 174.989276 186.879247 
L 174.989276 186.169976 
L 175.37042 186.169976 
L 175.37042 184.3968 
L 177.492039 184.3968 
L 177.492039 183.687529 
L 177.889089 183.687529 
L 177.904798 180.495812 
L 178.107831 180.495812 
L 178.107831 178.722635 
L 178.324058 178.722635 
L 178.324058 178.368 
L 178.749196 178.368 
L 178.779198 177.304094 
L 179.282053 177.304094 
L 179.296641 175.530918 
L 179.542926 175.530918 
L 179.542926 175.176282 
L 179.842775 175.176282 
L 179.842775 174.821647 
L 179.969833 174.821647 
L 180.011995 173.757741 
L 180.096038 173.757741 
L 180.096038 172.693835 
L 180.538033 172.693835 
L 180.646928 166.665035 
L 180.728188 166.665035 
L 180.822549 164.891859 
L 181.102826 164.891859 
L 181.102826 163.827953 
L 182.530946 163.827953 
L 182.530946 162.764047 
L 182.750681 162.764047 
L 182.750681 162.409412 
L 183.075545 162.409412 
L 183.075545 162.054776 
L 183.289045 162.054776 
L 183.289045 160.990871 
L 184.142166 160.990871 
L 184.153434 160.2816 
L 185.521755 160.2816 
L 185.521755 159.926965 
L 187.14635 159.926965 
L 187.14635 159.572329 
L 187.280377 159.572329 
L 187.280377 159.217694 
L 188.183654 159.217694 
L 188.183654 158.153788 
L 189.601754 158.153788 
L 189.694277 156.025976 
L 190.410445 156.025976 
L 190.410445 154.962071 
L 191.432209 154.962071 
L 191.432209 154.607435 
L 192.078873 154.607435 
L 192.115795 153.543529 
L 193.322947 153.543529 
L 193.322947 152.834259 
L 195.886698 152.834259 
L 195.886698 152.479624 
L 196.428203 152.479624 
L 196.428203 151.415718 
L 197.544132 151.415718 
L 197.549659 149.642541 
L 198.302547 149.642541 
L 198.360861 146.096188 
L 198.779611 146.096188 
L 198.779611 145.741553 
L 199.051986 145.741553 
L 199.051986 145.386918 
L 199.325503 145.386918 
L 199.325503 144.323012 
L 200.074713 144.323012 
L 200.074713 143.259106 
L 200.329089 143.259106 
L 200.329089 142.549835 
L 200.827749 142.549835 
L 200.827749 142.1952 
L 201.800314 142.1952 
L 201.848746 141.485929 
L 202.062988 141.485929 
L 202.062988 140.422024 
L 203.242518 140.422024 
L 203.242518 140.067388 
L 203.4819 140.067388 
L 203.4819 139.712753 
L 204.244342 139.712753 
L 204.244342 138.648847 
L 205.995345 138.648847 
L 205.995345 138.294212 
L 206.209294 138.294212 
L 206.285863 137.230306 
L 206.355202 137.230306 
L 206.369039 136.1664 
L 206.506853 136.1664 
L 206.551426 134.747859 
L 206.806537 134.747859 
L 206.806537 134.393224 
L 207.880086 134.393224 
L 207.880086 134.038588 
L 211.187112 134.038588 
L 211.187112 133.683953 
L 212.241074 133.683953 
L 212.241074 133.329318 
L 214.539528 133.329318 
L 214.539528 132.974682 
L 215.999889 132.974682 
L 216.033019 131.910776 
L 219.818664 131.910776 
L 219.818664 131.556141 
L 220.773502 131.556141 
L 220.773502 131.201506 
L 221.662278 131.201506 
L 221.662278 130.846871 
L 222.216911 130.846871 
L 222.258562 130.1376 
L 222.378537 130.1376 
L 222.378537 129.428329 
L 222.680255 129.428329 
L 222.680255 129.073694 
L 222.98007 129.073694 
L 222.98007 128.719059 
L 223.855963 128.719059 
L 223.909121 127.655153 
L 224.341032 127.655153 
L 224.341032 127.300518 
L 224.488107 127.300518 
L 224.588148 125.172706 
L 225.232102 125.172706 
L 225.232102 124.463435 
L 225.502903 124.463435 
L 225.602679 122.335624 
L 225.83632 122.335624 
L 225.83632 121.980988 
L 226.595988 121.980988 
L 226.595988 120.207812 
L 227.370378 120.207812 
L 227.373774 118.789271 
L 227.573102 118.789271 
L 227.597731 117.016094 
L 227.757034 117.016094 
L 227.757034 114.888282 
L 228.041078 114.888282 
L 228.134815 113.115106 
L 228.154375 113.115106 
L 228.154375 112.0512 
L 228.583881 112.0512 
L 228.583881 111.696565 
L 228.921605 111.696565 
L 228.999646 110.278024 
L 229.435867 110.278024 
L 229.436881 109.214118 
L 229.623641 109.214118 
L 229.623641 107.795576 
L 229.82149 107.795576 
L 229.870134 104.958494 
L 229.955205 104.958494 
L 229.955205 104.603859 
L 230.788236 104.603859 
L 230.826909 100.702871 
L 231.51067 100.702871 
L 231.51067 100.348235 
L 232.654587 100.348235 
L 232.654587 99.9936 
L 234.001465 99.9936 
L 234.001465 99.638965 
L 236.367072 99.638965 
L 236.367072 99.284329 
L 238.099864 99.284329 
L 238.099864 98.929694 
L 239.685242 98.929694 
L 239.685242 98.575059 
L 240.761232 98.575059 
L 240.761232 98.220424 
L 244.350252 98.220424 
L 244.350252 97.865788 
L 244.797179 97.865788 
L 244.797179 97.511153 
L 245.12521 97.511153 
L 245.12521 96.801882 
L 245.32333 96.801882 
L 245.383839 95.383341 
L 245.518953 95.383341 
L 245.575396 94.319435 
L 245.685637 94.319435 
L 245.795237 89.709176 
L 245.825403 89.709176 
L 245.877548 84.744282 
L 245.97467 84.744282 
L 246.074225 82.616471 
L 246.184506 82.616471 
L 246.23359 74.814494 
L 246.333028 74.814494 
L 246.34542 71.622776 
L 246.543421 71.622776 
L 246.58057 70.558871 
L 246.655868 70.558871 
L 246.655868 70.204235 
L 246.827313 70.204235 
L 246.861496 69.494965 
L 247.104209 69.494965 
L 247.1371 68.431059 
L 247.218094 68.431059 
L 247.312474 66.657882 
L 247.336387 66.657882 
L 247.420039 57.792 
L 247.465618 57.792 
L 247.569218 56.018824 
L 247.592807 56.018824 
L 247.592807 54.954918 
L 247.724132 54.954918 
L 247.784289 52.472471 
L 247.97119 52.472471 
L 248.044905 49.635388 
L 248.217661 49.635388 
L 248.242692 45.025129 
L 248.530197 45.025129 
L 248.617501 44.315859 
L 248.840518 44.315859 
L 248.852087 41.833412 
L 248.97745 41.833412 
L 248.983553 39.350965 
L 249.256145 39.350965 
L 249.33205 38.641694 
L 274.194144 38.641694 
L 274.305167 35.804612 
L 274.319547 35.804612 
L 274.43002 34.740706 
L 274.52462 34.740706 
L 274.52462 34.031435 
L 274.680473 34.031435 
L 274.680473 33.6768 
L 275.374338 33.6768 
L 275.433023 32.967529 
L 275.729362 32.967529 
L 275.729362 32.612894 
L 275.859766 32.612894 
L 275.962347 31.548988 
L 276.965659 31.548988 
L 276.965659 31.194353 
L 277.858318 31.194353 
L 277.967816 30.130447 
L 278.219241 30.130447 
L 278.240093 29.421176 
L 278.354253 29.421176 
L 278.39774 28.711906 
L 278.527004 28.711906 
L 278.527004 28.357271 
L 287.324387 28.357271 
L 287.324387 28.002635 
L 289.355669 28.002635 
L 289.355669 27.648 
L 360.8064 27.648 
L 360.8064 27.648 
" style="fill: none; stroke: #000080; stroke-width: 1.5; stroke-linecap: square"/>
   </g>
   <g id="line2d_36">
    <defs>
     <path id="mbbb09f7497" d="M 0 6 
C 1.591219 6 3.117479 5.367802 4.242641 4.242641 
C 5.367802 3.117479 6 1.591219 6 0 
C 6 -1.591219 5.367802 -3.117479 4.242641 -4.242641 
C 3.117479 -5.367802 1.591219 -6 0 -6 
C -1.591219 -6 -3.117479 -5.367802 -4.242641 -4.242641 
C -5.367802 -3.117479 -6 -1.591219 -6 0 
C -6 1.591219 -5.367802 3.117479 -4.242641 4.242641 
C -3.117479 5.367802 -1.591219 6 0 6 
z
" style="stroke: #000080; stroke-width: 1.5"/>
    </defs>
    <g>
     <use xlink:href="#mbbb09f7497" x="112.989468" y="241.138447" style="fill-opacity: 0; stroke: #000080; stroke-width: 1.5"/>
     <use xlink:href="#mbbb09f7497" x="181.102826" y="164.891859" style="fill-opacity: 0; stroke: #000080; stroke-width: 1.5"/>
     <use xlink:href="#mbbb09f7497" x="245.832194" y="88.290635" style="fill-opacity: 0; stroke: #000080; stroke-width: 1.5"/>
     <use xlink:href="#mbbb09f7497" x="289.355669" y="28.002635" style="fill-opacity: 0; stroke: #000080; stroke-width: 1.5"/>
     <use xlink:href="#mbbb09f7497" x="289.355669" y="27.648" style="fill-opacity: 0; stroke: #000080; stroke-width: 1.5"/>
     <use xlink:href="#mbbb09f7497" x="360.8064" y="27.648" style="fill-opacity: 0; stroke: #000080; stroke-width: 1.5"/>
    </g>
   </g>
   <g id="line2d_37">
    <path style="fill: none; stroke: #000080; stroke-width: 1.5; stroke-linecap: square"/>
    <g/>
   </g>
   <g id="line2d_38">
    <path d="M 274.176 38.641694 
" clip-path="url(#p3440c42a77)" style="fill: none; stroke: #000080; stroke-width: 1.5; stroke-linecap: square"/>
    <defs>
     <path id="mb2b0a7e155" d="M -12 12 
L 12 -12 
M -12 -12 
L 12 12 
" style="stroke: #000080"/>
    </defs>
    <g clip-path="url(#p3440c42a77)">
     <use xlink:href="#mb2b0a7e155" x="274.176" y="38.641694" style="fill: #000080; stroke: #000080"/>
    </g>
   </g>
   <g id="line2d_39">
    <defs>
     <path id="m1a8a92ba95" d="M 0 1.5 
C 0.397805 1.5 0.77937 1.341951 1.06066 1.06066 
C 1.341951 0.77937 1.5 0.397805 1.5 0 
C 1.5 -0.397805 1.341951 -0.77937 1.06066 -1.06066 
C 0.77937 -1.341951 0.397805 -1.5 0 -1.5 
C -0.397805 -1.5 -0.77937 -1.341951 -1.06066 -1.06066 
C -1.341951 -0.77937 -1.5 -0.397805 -1.5 0 
C -1.5 0.397805 -1.341951 0.77937 -1.06066 1.06066 
C -0.77937 1.341951 -0.397805 1.5 0 1.5 
z
" style="stroke: #ff00ff"/>
    </defs>
    <g>
     <use xlink:href="#m1a8a92ba95" x="350.787696" y="27.648" style="fill: #ff00ff; stroke: #ff00ff"/>
     <use xlink:href="#m1a8a92ba95" x="350.787696" y="27.648" style="fill: #ff00ff; stroke: #ff00ff"/>
    </g>
   </g>
   <g id="line2d_40">
    <path d="M 44.560826 298.944 
L 44.560826 281.212235 
L 57.6 281.212235 
L 57.6 273.055624 
L 65.227428 273.055624 
L 65.227428 270.927812 
L 70.639174 270.927812 
L 70.639174 269.154635 
L 74.836851 269.154635 
L 74.836851 268.090729 
L 78.266603 268.090729 
L 78.266603 266.317553 
L 81.166416 266.317553 
L 81.166416 261.707294 
L 83.678349 261.707294 
L 83.678349 257.806306 
L 85.894031 257.806306 
L 85.894031 257.097035 
L 87.876026 257.097035 
L 87.876026 255.323859 
L 91.305777 255.323859 
L 91.305777 254.259953 
L 92.811505 254.259953 
L 92.811505 252.486776 
L 95.503454 252.486776 
L 95.503454 249.649694 
L 97.857967 249.649694 
L 97.857967 249.295059 
L 98.933205 249.295059 
L 98.933205 248.940424 
L 99.950294 248.940424 
L 99.950294 248.231153 
L 100.9152 248.231153 
L 100.9152 247.876518 
L 102.708132 247.876518 
L 102.708132 247.521882 
L 105.850679 247.521882 
L 105.850679 247.167247 
L 106.560633 247.167247 
L 106.560633 243.975529 
L 107.244765 243.975529 
L 107.244765 242.556988 
L 111.442442 242.556988 
L 111.442442 240.783812 
L 112.989468 240.783812 
L 112.989468 240.074541 
L 114.418881 240.074541 
L 114.418881 238.301365 
L 114.872193 238.301365 
L 114.872193 236.882824 
L 116.170056 236.882824 
L 116.170056 234.400376 
L 118.889854 234.400376 
L 118.889854 233.336471 
L 127.227236 233.336471 
L 127.227236 232.981835 
L 128.354013 232.981835 
L 128.354013 232.6272 
L 128.786481 232.6272 
L 128.786481 231.917929 
L 129.622688 231.917929 
L 129.622688 231.563294 
L 132.812362 231.563294 
L 132.812362 231.208659 
L 133.983236 231.208659 
L 133.983236 229.435482 
L 135.237805 229.435482 
L 135.237805 229.080847 
L 137.38594 229.080847 
L 137.38594 228.371576 
L 138.438609 228.371576 
L 138.438609 228.016941 
L 138.566146 228.016941 
L 138.566146 227.662306 
L 139.676658 227.662306 
L 139.676658 227.307671 
L 141.173167 227.307671 
L 141.173167 226.953035 
L 148.947561 226.953035 
L 148.947561 226.5984 
L 149.945377 226.5984 
L 149.945377 225.179859 
L 150.083698 225.179859 
L 150.083698 224.470588 
L 150.693856 224.470588 
L 150.693856 224.115953 
L 151.41369 224.115953 
L 151.41369 222.342776 
L 152.953957 222.342776 
L 152.953957 221.633506 
L 153.130592 221.633506 
L 153.130592 220.214965 
L 153.421349 220.214965 
L 153.421349 219.151059 
L 154.212341 219.151059 
L 154.212341 217.732518 
L 155.024477 217.732518 
L 155.024477 216.313976 
L 156.550574 216.313976 
L 156.550574 215.604706 
L 159.980326 215.604706 
L 159.980326 215.250071 
L 160.343261 215.250071 
L 160.343261 213.831529 
L 160.502345 213.831529 
L 160.502345 211.349082 
L 162.168843 211.349082 
L 162.168843 210.639812 
L 163.260183 210.639812 
L 163.260183 209.930541 
L 165.207944 209.930541 
L 165.207944 209.221271 
L 169.808349 209.221271 
L 169.808349 206.384188 
L 170.119687 206.384188 
L 170.119687 206.029553 
L 176.213656 206.029553 
L 176.213656 205.320282 
L 177.967504 205.320282 
L 177.967504 204.965647 
L 178.415971 204.965647 
L 178.415971 204.611012 
L 178.734177 204.611012 
L 178.734177 203.901741 
L 180.578943 203.901741 
L 180.59256 201.419294 
L 185.500795 201.419294 
L 185.542692 200.000753 
L 188.827153 200.000753 
L 188.827153 199.646118 
L 190.076335 199.646118 
L 190.174739 196.809035 
L 191.022322 196.809035 
L 191.022322 192.553412 
L 191.416903 192.553412 
L 191.416903 191.489506 
L 192.350392 191.489506 
L 192.350392 191.134871 
L 194.18831 191.134871 
L 194.18831 190.780235 
L 194.378958 190.780235 
L 194.378958 190.4256 
L 196.562635 190.4256 
L 196.562635 188.297788 
L 198.355567 188.297788 
L 198.397876 186.524612 
L 199.718617 186.524612 
L 199.718617 185.460706 
L 200.161491 185.460706 
L 200.161491 184.3968 
L 202.304885 184.3968 
L 202.304885 183.332894 
L 202.683041 183.332894 
L 202.712463 178.013365 
L 204.28688 178.013365 
L 204.363977 170.566024 
L 204.793735 170.566024 
L 204.793735 169.856753 
L 206.020021 169.856753 
L 206.020021 167.728941 
L 206.153412 167.728941 
L 206.153412 167.374306 
L 209.648344 167.374306 
L 209.648344 164.891859 
L 209.824708 164.891859 
L 209.824708 162.054776 
L 210.127298 162.054776 
L 210.127298 160.990871 
L 210.737455 160.990871 
L 210.737455 160.2816 
L 211.764353 160.2816 
L 211.764353 159.572329 
L 211.950326 159.572329 
L 211.950326 159.217694 
L 212.083506 159.217694 
L 212.083506 158.153788 
L 214.001077 158.153788 
L 214.001077 153.543529 
L 214.170862 153.543529 
L 214.170862 152.479624 
L 216.409877 152.479624 
L 216.409877 151.415718 
L 216.955468 151.415718 
L 216.955468 148.933271 
L 219.874407 148.933271 
L 219.874407 142.549835 
L 222.406569 142.549835 
L 222.406569 137.584941 
L 222.535858 137.584941 
L 222.535858 136.1664 
L 222.73104 136.1664 
L 222.73104 135.811765 
L 223.201836 135.811765 
L 223.201836 134.393224 
L 224.445825 134.393224 
L 224.445825 134.038588 
L 225.214332 134.038588 
L 225.214332 133.683953 
L 225.87927 133.683953 
L 225.87927 130.846871 
L 226.97792 130.846871 
L 226.97792 125.881976 
L 228.656989 125.881976 
L 228.656989 125.172706 
L 228.87776 125.172706 
L 228.87776 121.980988 
L 229.526959 121.980988 
L 229.526959 121.626353 
L 230.427894 121.626353 
L 230.427894 121.271718 
L 233.972789 121.271718 
L 233.972789 120.207812 
L 235.35856 120.207812 
L 235.35856 118.434635 
L 238.856442 118.434635 
L 238.856442 118.08 
L 240.337511 118.08 
L 240.337511 117.016094 
L 244.942342 117.016094 
L 244.942342 116.306824 
L 246.525842 116.306824 
L 246.525842 115.597553 
L 246.830533 115.597553 
L 246.830533 113.469741 
L 246.991226 113.469741 
L 246.991226 109.923388 
L 249.645123 109.923388 
L 249.645123 108.859482 
L 250.000055 108.859482 
L 250.000055 108.150212 
L 250.330047 108.150212 
L 250.330047 107.440941 
L 251.847594 107.440941 
L 251.847594 106.731671 
L 253.554585 106.731671 
L 253.554585 106.377035 
L 254.377973 106.377035 
L 254.377973 106.0224 
L 264.495901 106.0224 
L 264.495901 104.958494 
L 274.515846 104.958494 
L 274.515846 103.894588 
L 274.705729 103.894588 
L 274.784937 101.057506 
L 274.8881 101.057506 
L 274.8881 100.702871 
L 275.040174 100.702871 
L 275.140074 99.9936 
L 275.306969 99.9936 
L 275.306969 98.929694 
L 275.448764 98.929694 
L 275.497137 96.801882 
L 275.576756 96.801882 
L 275.674809 96.092612 
L 275.754806 96.092612 
L 275.754806 91.127718 
L 275.903749 91.127718 
L 275.903749 88.645271 
L 276.035936 88.645271 
L 276.035936 88.290635 
L 276.528466 88.290635 
L 276.528466 87.936 
L 277.156717 87.936 
L 277.156717 87.581365 
L 277.879573 87.581365 
L 277.879573 86.162824 
L 278.164233 86.162824 
L 278.251684 85.453553 
L 278.785032 85.453553 
L 278.861 84.035012 
L 278.932646 84.035012 
L 278.932646 82.616471 
L 279.275006 82.616471 
L 279.275006 81.9072 
L 279.894933 81.9072 
L 279.894933 81.197929 
L 283.063882 81.197929 
L 283.063882 80.843294 
L 287.760123 80.843294 
L 287.845635 80.134024 
L 287.918578 80.134024 
L 287.943524 78.360847 
L 288.076923 78.360847 
L 288.182689 74.105224 
L 288.709597 74.105224 
L 288.709597 73.750588 
L 289.210478 73.750588 
L 289.210478 73.041318 
L 289.366872 73.041318 
L 289.415132 70.204235 
L 289.754171 70.204235 
L 289.794356 68.431059 
L 289.987309 68.431059 
L 289.987309 68.076424 
L 290.340591 68.076424 
L 290.340591 67.721788 
L 295.352325 67.721788 
L 295.459127 65.593976 
L 295.511514 65.593976 
L 295.511514 63.111529 
L 296.23218 63.111529 
L 296.339993 62.402259 
L 296.608181 62.402259 
L 296.636105 61.692988 
L 296.770436 61.692988 
L 296.770436 61.338353 
L 300.666477 61.338353 
L 300.747051 60.629082 
L 300.786615 60.629082 
L 300.786615 60.274447 
L 301.415849 60.274447 
L 301.441299 59.565176 
L 301.745383 59.565176 
L 301.745383 59.210541 
L 304.805354 59.210541 
L 304.901826 57.792 
L 305.004383 57.792 
L 305.004383 57.437365 
L 305.409075 57.437365 
L 305.409075 56.728094 
L 308.195802 56.728094 
L 308.249838 55.664188 
L 308.70128 55.664188 
L 308.70128 55.309553 
L 308.925628 55.309553 
L 308.925628 54.245647 
L 309.055491 54.245647 
L 309.055491 53.891012 
L 311.067492 53.891012 
L 311.136699 51.408565 
L 311.45415 51.408565 
L 311.45415 51.053929 
L 311.635059 51.053929 
L 311.695698 50.344659 
L 311.807832 50.344659 
L 311.807832 49.635388 
L 313.558305 49.635388 
L 313.618942 48.216847 
L 313.939668 48.216847 
L 313.939668 47.862212 
L 314.109732 47.862212 
L 314.208397 46.798306 
L 315.8115 46.798306 
L 315.8115 45.7344 
L 316.059559 45.7344 
L 316.059559 45.379765 
L 316.248917 45.379765 
L 316.248917 45.025129 
L 317.726373 45.025129 
L 317.774975 43.251953 
L 318.032557 43.251953 
L 318.126527 41.833412 
L 318.169489 41.833412 
L 318.169489 41.124141 
L 319.538161 41.124141 
L 319.552741 40.414871 
L 319.756304 40.414871 
L 319.756304 40.060235 
L 321.176913 40.060235 
L 321.176913 39.7056 
L 321.36372 39.7056 
L 321.36372 39.350965 
L 321.506729 39.350965 
L 321.506729 38.996329 
L 322.671932 38.996329 
L 322.671932 38.287059 
L 324.309246 38.287059 
L 324.309246 37.932424 
L 325.346734 37.932424 
L 325.346734 37.577788 
L 325.582523 37.577788 
L 325.665035 36.513882 
L 326.543786 36.513882 
L 326.543786 36.159247 
L 326.715772 36.159247 
L 326.802193 35.095341 
L 326.852508 35.095341 
L 326.852508 34.740706 
L 327.688125 34.740706 
L 327.688125 34.386071 
L 327.922041 34.386071 
L 327.922041 34.031435 
L 328.757893 34.031435 
L 328.757893 33.6768 
L 328.954781 33.6768 
L 329.023777 32.612894 
L 329.97963 32.612894 
L 329.97963 32.258259 
L 330.970166 32.258259 
L 330.970166 31.903624 
L 334.346383 31.903624 
L 334.346383 31.548988 
L 335.103583 31.548988 
L 335.103583 31.194353 
L 335.800277 31.194353 
L 335.800277 30.839718 
L 336.502197 30.839718 
L 336.502197 30.485082 
L 337.832035 30.485082 
L 337.832035 30.130447 
L 339.074039 30.130447 
L 339.074039 29.775812 
L 339.665585 29.775812 
L 339.665585 29.421176 
L 340.795637 29.421176 
L 340.795637 29.066541 
L 342.325756 29.066541 
L 342.325756 28.711906 
L 342.765139 28.711906 
L 342.765139 28.357271 
L 348.367546 28.357271 
L 348.367546 28.002635 
L 350.787696 28.002635 
L 350.787696 27.648 
L 360.8064 27.648 
L 360.8064 27.648 
" style="fill: none; stroke: #ff00ff; stroke-width: 1.5; stroke-linecap: square"/>
   </g>
   <g id="line2d_41">
    <defs>
     <path id="m8e536818c6" d="M 0 8.485281 
L 5.091169 0 
L 0 -8.485281 
L -5.091169 0 
z
" style="stroke: #ff00ff; stroke-width: 1.5; stroke-linejoin: miter"/>
    </defs>
    <g>
     <use xlink:href="#m8e536818c6" x="114.872193" y="236.882824" style="fill-opacity: 0; stroke: #ff00ff; stroke-width: 1.5; stroke-linejoin: miter"/>
     <use xlink:href="#m8e536818c6" x="185.542692" y="200.000753" style="fill-opacity: 0; stroke: #ff00ff; stroke-width: 1.5; stroke-linejoin: miter"/>
     <use xlink:href="#m8e536818c6" x="254.377973" y="106.377035" style="fill-opacity: 0; stroke: #ff00ff; stroke-width: 1.5; stroke-linejoin: miter"/>
     <use xlink:href="#m8e536818c6" x="329.97963" y="32.258259" style="fill-opacity: 0; stroke: #ff00ff; stroke-width: 1.5; stroke-linejoin: miter"/>
     <use xlink:href="#m8e536818c6" x="350.787696" y="27.648" style="fill-opacity: 0; stroke: #ff00ff; stroke-width: 1.5; stroke-linejoin: miter"/>
     <use xlink:href="#m8e536818c6" x="360.8064" y="27.648" style="fill-opacity: 0; stroke: #ff00ff; stroke-width: 1.5; stroke-linejoin: miter"/>
    </g>
   </g>
   <g id="line2d_42">
    <path style="fill: none; stroke: #ff00ff; stroke-width: 1.5; stroke-linecap: square"/>
    <g/>
   </g>
   <g id="line2d_43">
    <path d="M 274.292272 104.958494 
" clip-path="url(#p3440c42a77)" style="fill: none; stroke: #ff00ff; stroke-width: 1.5; stroke-linecap: square"/>
    <defs>
     <path id="m374ae231d3" d="M -12 12 
L 12 -12 
M -12 -12 
L 12 12 
" style="stroke: #ff00ff"/>
    </defs>
    <g clip-path="url(#p3440c42a77)">
     <use xlink:href="#m374ae231d3" x="274.292272" y="104.958494" style="fill: #ff00ff; stroke: #ff00ff"/>
    </g>
   </g>
   <g id="line2d_44">
    <defs>
     <path id="mdb06067030" d="M 0 1.5 
C 0.397805 1.5 0.77937 1.341951 1.06066 1.06066 
C 1.341951 0.77937 1.5 0.397805 1.5 0 
C 1.5 -0.397805 1.341951 -0.77937 1.06066 -1.06066 
C 0.77937 -1.341951 0.397805 -1.5 0 -1.5 
C -0.397805 -1.5 -0.77937 -1.341951 -1.06066 -1.06066 
C -1.341951 -0.77937 -1.5 -0.397805 -1.5 0 
C -1.5 0.397805 -1.341951 0.77937 -1.06066 1.06066 
C -0.77937 1.341951 -0.397805 1.5 0 1.5 
z
" style="stroke: #ff7500"/>
    </defs>
    <g>
     <use xlink:href="#mdb06067030" x="219.791577" y="27.648" style="fill: #ff7500; stroke: #ff7500"/>
     <use xlink:href="#mdb06067030" x="219.791577" y="27.648" style="fill: #ff7500; stroke: #ff7500"/>
    </g>
   </g>
   <g id="line2d_45">
    <path d="M 44.560826 298.944 
L 44.560826 280.148329 
L 57.6 280.148329 
L 57.6 274.474165 
L 65.227428 274.474165 
L 65.227428 266.317553 
L 70.639174 266.317553 
L 70.639174 265.253647 
L 74.836851 265.253647 
L 74.836851 263.835106 
L 78.266603 263.835106 
L 78.266603 263.125835 
L 81.166416 263.125835 
L 81.166416 260.998024 
L 83.678349 260.998024 
L 83.678349 260.288753 
L 85.894031 260.288753 
L 85.894031 259.224847 
L 87.876026 259.224847 
L 87.876026 258.870212 
L 89.668958 258.870212 
L 89.668958 255.323859 
L 91.305777 255.323859 
L 91.305777 251.777506 
L 94.205591 251.777506 
L 94.205591 251.422871 
L 95.503454 251.422871 
L 95.503454 251.068235 
L 97.857967 251.068235 
L 97.857967 248.940424 
L 99.950294 248.940424 
L 99.950294 248.585788 
L 101.833019 248.585788 
L 101.833019 248.231153 
L 104.344952 248.231153 
L 104.344952 247.167247 
L 105.112877 247.167247 
L 105.112877 246.812612 
L 105.850679 246.812612 
L 105.850679 246.457976 
L 106.560633 246.457976 
L 106.560633 246.103341 
L 107.244765 246.103341 
L 107.244765 244.6848 
L 109.159456 244.6848 
L 109.159456 242.911624 
L 109.756698 242.911624 
L 109.756698 240.783812 
L 110.897141 240.783812 
L 110.897141 239.719906 
L 111.442442 239.719906 
L 111.442442 239.365271 
L 113.478107 239.365271 
L 113.478107 237.592094 
L 114.872193 237.592094 
L 114.872193 237.237459 
L 116.988079 237.237459 
L 116.988079 235.818918 
L 118.152051 235.818918 
L 118.152051 234.400376 
L 119.599808 234.400376 
L 119.599808 233.336471 
L 119.944983 233.336471 
L 119.944983 232.6272 
L 120.28394 232.6272 
L 120.28394 231.208659 
L 123.374735 231.208659 
L 123.374735 230.854024 
L 125.271028 230.854024 
L 125.271028 228.726212 
L 126.993549 228.726212 
L 126.993549 228.371576 
L 127.458055 228.371576 
L 127.458055 226.953035 
L 128.999044 226.953035 
L 128.999044 225.889129 
L 132.638982 225.889129 
L 132.638982 225.179859 
L 133.154399 225.179859 
L 133.154399 224.825224 
L 135.835047 224.825224 
L 135.835047 223.761318 
L 137.787626 223.761318 
L 137.787626 223.406682 
L 138.438609 223.406682 
L 138.438609 223.052047 
L 138.943648 223.052047 
L 138.943648 222.697412 
L 140.382174 222.697412 
L 140.382174 219.505694 
L 141.173167 219.505694 
L 141.173167 218.441788 
L 145.148219 218.441788 
L 145.148219 217.377882 
L 145.503164 217.377882 
L 145.503164 217.023247 
L 145.851536 217.023247 
L 145.851536 215.604706 
L 148.652472 215.604706 
L 148.652472 214.895435 
L 149.093387 214.895435 
L 149.165879 212.412988 
L 149.238092 212.412988 
L 149.238092 212.058353 
L 149.875833 212.058353 
L 149.875833 211.703718 
L 151.024471 211.703718 
L 151.024471 210.285176 
L 153.764426 210.285176 
L 153.764426 207.448094 
L 154.267588 207.448094 
L 154.267588 206.029553 
L 154.541415 206.029553 
L 154.541415 204.611012 
L 155.235253 204.611012 
L 155.235253 204.256376 
L 155.547053 204.256376 
L 155.598521 203.547106 
L 156.452597 203.547106 
L 156.452597 203.192471 
L 157.410135 203.192471 
L 157.503261 199.646118 
L 160.581385 199.646118 
L 160.581385 195.745129 
L 160.816532 195.745129 
L 160.816532 193.617318 
L 161.240147 193.617318 
L 161.240147 192.198776 
L 162.349204 192.198776 
L 162.349204 191.844141 
L 163.22595 191.844141 
L 163.22595 190.070965 
L 163.997986 190.070965 
L 164.09639 188.652424 
L 164.771172 188.652424 
L 164.771172 188.297788 
L 166.257466 188.297788 
L 166.257466 186.524612 
L 166.718416 186.524612 
L 166.718416 183.332894 
L 166.972821 183.332894 
L 166.972821 182.623624 
L 167.444174 182.623624 
L 167.444174 182.268988 
L 168.300609 182.268988 
L 168.300609 180.495812 
L 168.714635 180.495812 
L 168.714635 180.141176 
L 169.244573 180.141176 
L 169.244573 179.431906 
L 169.662898 179.431906 
L 169.662898 178.368 
L 169.856584 178.368 
L 169.856584 178.013365 
L 170.09592 178.013365 
L 170.09592 173.757741 
L 170.7503 173.757741 
L 170.7503 173.403106 
L 171.136775 173.403106 
L 171.136775 173.048471 
L 171.691074 173.048471 
L 171.691074 172.3392 
L 171.88669 172.3392 
L 171.88669 170.211388 
L 173.18167 170.211388 
L 173.18167 169.856753 
L 173.758086 169.856753 
L 173.758086 169.147482 
L 174.860492 169.147482 
L 174.915793 165.246494 
L 175.77919 165.246494 
L 175.77919 164.891859 
L 176.418689 164.891859 
L 176.418689 161.345506 
L 178.734177 161.345506 
L 178.734177 160.2816 
L 179.700586 160.2816 
L 179.700586 159.926965 
L 179.913468 159.926965 
L 179.913468 153.543529 
L 180.23528 153.543529 
L 180.23528 151.415718 
L 180.510711 151.415718 
L 180.606166 147.869365 
L 180.741697 147.869365 
L 180.741697 147.514729 
L 181.195331 147.514729 
L 181.195331 147.160094 
L 181.868631 147.160094 
L 181.868631 146.450824 
L 182.121308 146.450824 
L 182.121308 146.096188 
L 182.823359 146.096188 
L 182.895758 145.386918 
L 183.099387 145.386918 
L 183.099387 144.677647 
L 183.229982 144.677647 
L 183.229982 143.259106 
L 183.66272 143.259106 
L 183.66272 142.904471 
L 184.321646 142.904471 
L 184.321646 137.584941 
L 185.437775 137.584941 
L 185.521755 136.521035 
L 185.864265 136.521035 
L 185.864265 135.811765 
L 186.079022 135.811765 
L 186.079022 134.393224 
L 186.451541 134.393224 
L 186.451541 134.038588 
L 186.649872 134.038588 
L 186.649872 132.265412 
L 187.098251 132.265412 
L 187.127126 129.428329 
L 187.261289 129.428329 
L 187.318496 127.655153 
L 187.620696 127.655153 
L 187.630062 124.463435 
L 188.400609 124.463435 
L 188.400609 123.754165 
L 188.552785 123.754165 
L 188.552785 121.980988 
L 189.132188 121.980988 
L 189.132188 120.917082 
L 189.685885 120.917082 
L 189.685885 116.306824 
L 190.426593 116.306824 
L 190.426593 115.952188 
L 190.762522 115.952188 
L 190.833733 114.533647 
L 191.26315 114.533647 
L 191.26315 114.179012 
L 191.713154 114.179012 
L 191.713154 112.760471 
L 191.885704 112.760471 
L 191.989965 105.313129 
L 193.142199 105.313129 
L 193.142199 104.958494 
L 193.794371 104.958494 
L 193.794371 104.603859 
L 194.075645 104.603859 
L 194.181701 102.121412 
L 194.221318 102.121412 
L 194.319998 99.638965 
L 194.39857 99.638965 
L 194.45077 96.801882 
L 194.554737 96.801882 
L 194.600043 92.546259 
L 194.760964 92.546259 
L 194.760964 90.063812 
L 195.053509 90.063812 
L 195.053509 89.709176 
L 195.223125 89.709176 
L 195.322922 88.290635 
L 195.360209 88.290635 
L 195.360209 86.872094 
L 195.808051 86.872094 
L 195.808051 85.808188 
L 196.375337 85.808188 
L 196.434068 84.389647 
L 196.585916 84.389647 
L 196.678756 82.971106 
L 196.874531 82.971106 
L 196.903151 80.843294 
L 197.282509 80.843294 
L 197.299317 78.715482 
L 197.483226 78.715482 
L 197.505397 74.459859 
L 197.785802 74.459859 
L 197.785802 73.750588 
L 198.717389 73.750588 
L 198.717389 73.395953 
L 199.000895 73.395953 
L 199.000895 72.332047 
L 199.16897 72.332047 
L 199.17404 70.204235 
L 199.65943 70.204235 
L 199.65943 68.076424 
L 199.968104 68.076424 
L 199.968104 67.012518 
L 200.118152 67.012518 
L 200.185525 65.948612 
L 200.433677 65.948612 
L 200.537687 62.756894 
L 200.627053 62.756894 
L 200.645813 61.338353 
L 200.934225 61.338353 
L 200.934225 59.210541 
L 201.57412 59.210541 
L 201.587501 58.501271 
L 201.698641 58.501271 
L 201.756176 57.792 
L 201.813535 57.792 
L 201.813535 56.018824 
L 201.927731 56.018824 
L 201.927731 54.600282 
L 202.661997 54.600282 
L 202.661997 54.245647 
L 202.787911 54.245647 
L 202.808815 52.472471 
L 203.066114 52.472471 
L 203.066114 52.117835 
L 203.51815 52.117835 
L 203.51815 49.990024 
L 203.670439 49.990024 
L 203.77393 48.926118 
L 204.517228 48.926118 
L 204.62756 47.862212 
L 204.725932 47.862212 
L 204.725932 47.152941 
L 205.15128 47.152941 
L 205.15128 46.798306 
L 205.721756 46.798306 
L 205.725335 45.7344 
L 205.903409 45.7344 
L 205.924665 43.606588 
L 206.023543 43.606588 
L 206.023543 43.251953 
L 206.850406 43.251953 
L 206.850406 42.897318 
L 207.014847 42.897318 
L 207.014847 41.478776 
L 207.151344 41.478776 
L 207.151344 41.124141 
L 207.276975 41.124141 
L 207.276975 40.060235 
L 207.499716 40.060235 
L 207.551744 37.577788 
L 207.931074 37.577788 
L 207.931074 37.223153 
L 209.43215 37.223153 
L 209.435088 36.159247 
L 209.743959 36.159247 
L 209.824708 34.031435 
L 210.721 34.031435 
L 210.721 33.322165 
L 210.939234 33.322165 
L 210.939234 32.967529 
L 212.045185 32.967529 
L 212.045185 32.258259 
L 212.836418 32.258259 
L 212.836418 31.903624 
L 213.195855 31.903624 
L 213.267884 31.194353 
L 213.998772 31.194353 
L 213.998772 30.839718 
L 214.46772 30.839718 
L 214.46772 29.066541 
L 215.94385 29.066541 
L 215.94385 28.711906 
L 216.158794 28.711906 
L 216.158794 28.357271 
L 218.027423 28.357271 
L 218.027423 28.002635 
L 219.791577 28.002635 
L 219.791577 27.648 
L 360.8064 27.648 
L 360.8064 27.648 
" style="fill: none; stroke: #ff7500; stroke-width: 1.5; stroke-linecap: square"/>
   </g>
   <g id="line2d_46">
    <defs>
     <path id="m1d458c687b" d="M 0 -6 
L -1.347084 -1.854102 
L -5.706339 -1.854102 
L -2.179628 0.708204 
L -3.526712 4.854102 
L -0 2.291796 
L 3.526712 4.854102 
L 2.179628 0.708204 
L 5.706339 -1.854102 
L 1.347084 -1.854102 
z
" style="stroke: #ff7500; stroke-width: 1.5; stroke-linejoin: bevel"/>
    </defs>
    <g>
     <use xlink:href="#m1d458c687b" x="128.999044" y="226.953035" style="fill-opacity: 0; stroke: #ff7500; stroke-width: 1.5; stroke-linejoin: bevel"/>
     <use xlink:href="#m1d458c687b" x="179.700586" y="160.2816" style="fill-opacity: 0; stroke: #ff7500; stroke-width: 1.5; stroke-linejoin: bevel"/>
     <use xlink:href="#m1d458c687b" x="219.791577" y="28.002635" style="fill-opacity: 0; stroke: #ff7500; stroke-width: 1.5; stroke-linejoin: bevel"/>
     <use xlink:href="#m1d458c687b" x="219.791577" y="27.648" style="fill-opacity: 0; stroke: #ff7500; stroke-width: 1.5; stroke-linejoin: bevel"/>
     <use xlink:href="#m1d458c687b" x="219.791577" y="27.648" style="fill-opacity: 0; stroke: #ff7500; stroke-width: 1.5; stroke-linejoin: bevel"/>
     <use xlink:href="#m1d458c687b" x="360.8064" y="27.648" style="fill-opacity: 0; stroke: #ff7500; stroke-width: 1.5; stroke-linejoin: bevel"/>
    </g>
   </g>
   <g id="line2d_47">
    <path style="fill: none; stroke: #ff7500; stroke-width: 1.5; stroke-linecap: square"/>
    <g/>
   </g>
   <g id="line2d_48">
    <path d="M 360.8064 27.648 
L 380.514816 293.51808 
" style="fill: none; stroke: #ff00ff; stroke-width: 1.5; stroke-linecap: square"/>
    <g>
     <use xlink:href="#m8e536818c6" x="360.8064" y="27.648" style="fill-opacity: 0; stroke: #ff00ff; stroke-width: 1.5; stroke-linejoin: miter"/>
     <use xlink:href="#m8e536818c6" x="380.514816" y="293.51808" style="fill-opacity: 0; stroke: #ff00ff; stroke-width: 1.5; stroke-linejoin: miter"/>
    </g>
   </g>
   <g id="line2d_49">
    <path d="M 360.8064 27.648 
L 380.514816 206.70336 
" style="fill: none; stroke: #000080; stroke-width: 1.5; stroke-linecap: square"/>
    <g>
     <use xlink:href="#mbbb09f7497" x="360.8064" y="27.648" style="fill-opacity: 0; stroke: #000080; stroke-width: 1.5"/>
     <use xlink:href="#mbbb09f7497" x="380.514816" y="206.70336" style="fill-opacity: 0; stroke: #000080; stroke-width: 1.5"/>
    </g>
   </g>
   <g id="line2d_50">
    <path d="M 360.8064 27.648 
L 380.514816 119.88864 
" style="fill: none; stroke: #ff7500; stroke-width: 1.5; stroke-linecap: square"/>
    <g>
     <use xlink:href="#m1d458c687b" x="360.8064" y="27.648" style="fill-opacity: 0; stroke: #ff7500; stroke-width: 1.5; stroke-linejoin: bevel"/>
     <use xlink:href="#m1d458c687b" x="380.514816" y="119.88864" style="fill-opacity: 0; stroke: #ff7500; stroke-width: 1.5; stroke-linejoin: bevel"/>
    </g>
   </g>
   <g id="line2d_51">
    <path d="M 360.8064 298.944 
L 360.8064 27.648 
" style="fill: none; stroke: #000000; stroke-width: 1.5; stroke-linecap: square"/>
   </g>
   <g id="patch_3">
    <path d="M 57.6 298.944 
L 360.8064 298.944 
" style="fill: none; stroke: #000000; stroke-width: 0.8; stroke-linejoin: miter; stroke-linecap: square"/>
   </g>
   <g id="patch_4">
    <path d="M 57.6 27.648 
L 360.8064 27.648 
" style="fill: none; stroke: #000000; stroke-width: 0.8; stroke-linejoin: miter; stroke-linecap: square"/>
   </g>
   <g id="text_13">
    <!-- GA -->
    <g transform="translate(386.578944 297.381205)scale(0.14 -0.14)">
     <defs>
      <path id="DejaVuSans-47" d="M 3809 666 
L 3809 1919 
L 2778 1919 
L 2778 2438 
L 4434 2438 
L 4434 434 
Q 4069 175 3628 42 
Q 3188 -91 2688 -91 
Q 1594 -91 976 548 
Q 359 1188 359 2328 
Q 359 3472 976 4111 
Q 1594 4750 2688 4750 
Q 3144 4750 3555 4637 
Q 3966 4525 4313 4306 
L 4313 3634 
Q 3963 3931 3569 4081 
Q 3175 4231 2741 4231 
Q 1884 4231 1454 3753 
Q 1025 3275 1025 2328 
Q 1025 1384 1454 906 
Q 1884 428 2741 428 
Q 3075 428 3337 486 
Q 3600 544 3809 666 
z
" transform="scale(0.015625)"/>
      <path id="DejaVuSans-41" d="M 2188 4044 
L 1331 1722 
L 3047 1722 
L 2188 4044 
z
M 1831 4666 
L 2547 4666 
L 4325 0 
L 3669 0 
L 3244 1197 
L 1141 1197 
L 716 0 
L 50 0 
L 1831 4666 
z
" transform="scale(0.015625)"/>
     </defs>
     <use xlink:href="#DejaVuSans-47"/>
     <use xlink:href="#DejaVuSans-41" x="77.490234"/>
    </g>
   </g>
   <g id="text_14">
    <!-- LCGA -->
    <g transform="translate(386.578944 210.566485)scale(0.14 -0.14)">
     <defs>
      <path id="DejaVuSans-4c" d="M 628 4666 
L 1259 4666 
L 1259 531 
L 3531 531 
L 3531 0 
L 628 0 
L 628 4666 
z
" transform="scale(0.015625)"/>
      <path id="DejaVuSans-43" d="M 4122 4306 
L 4122 3641 
Q 3803 3938 3442 4084 
Q 3081 4231 2675 4231 
Q 1875 4231 1450 3742 
Q 1025 3253 1025 2328 
Q 1025 1406 1450 917 
Q 1875 428 2675 428 
Q 3081 428 3442 575 
Q 3803 722 4122 1019 
L 4122 359 
Q 3791 134 3420 21 
Q 3050 -91 2638 -91 
Q 1578 -91 968 557 
Q 359 1206 359 2328 
Q 359 3453 968 4101 
Q 1578 4750 2638 4750 
Q 3056 4750 3426 4639 
Q 3797 4528 4122 4306 
z
" transform="scale(0.015625)"/>
     </defs>
     <use xlink:href="#DejaVuSans-4c"/>
     <use xlink:href="#DejaVuSans-43" x="55.712891"/>
     <use xlink:href="#DejaVuSans-47" x="125.537109"/>
     <use xlink:href="#DejaVuSans-41" x="203.027344"/>
    </g>
   </g>
   <g id="text_15">
    <!-- PSO -->
    <g transform="translate(386.578944 123.751765)scale(0.14 -0.14)">
     <defs>
      <path id="DejaVuSans-50" d="M 1259 4147 
L 1259 2394 
L 2053 2394 
Q 2494 2394 2734 2622 
Q 2975 2850 2975 3272 
Q 2975 3691 2734 3919 
Q 2494 4147 2053 4147 
L 1259 4147 
z
M 628 4666 
L 2053 4666 
Q 2838 4666 3239 4311 
Q 3641 3956 3641 3272 
Q 3641 2581 3239 2228 
Q 2838 1875 2053 1875 
L 1259 1875 
L 1259 0 
L 628 0 
L 628 4666 
z
" transform="scale(0.015625)"/>
      <path id="DejaVuSans-53" d="M 3425 4513 
L 3425 3897 
Q 3066 4069 2747 4153 
Q 2428 4238 2131 4238 
Q 1616 4238 1336 4038 
Q 1056 3838 1056 3469 
Q 1056 3159 1242 3001 
Q 1428 2844 1947 2747 
L 2328 2669 
Q 3034 2534 3370 2195 
Q 3706 1856 3706 1288 
Q 3706 609 3251 259 
Q 2797 -91 1919 -91 
Q 1588 -91 1214 -16 
Q 841 59 441 206 
L 441 856 
Q 825 641 1194 531 
Q 1563 422 1919 422 
Q 2459 422 2753 634 
Q 3047 847 3047 1241 
Q 3047 1584 2836 1778 
Q 2625 1972 2144 2069 
L 1759 2144 
Q 1053 2284 737 2584 
Q 422 2884 422 3419 
Q 422 4038 858 4394 
Q 1294 4750 2059 4750 
Q 2388 4750 2728 4690 
Q 3069 4631 3425 4513 
z
" transform="scale(0.015625)"/>
      <path id="DejaVuSans-4f" d="M 2522 4238 
Q 1834 4238 1429 3725 
Q 1025 3213 1025 2328 
Q 1025 1447 1429 934 
Q 1834 422 2522 422 
Q 3209 422 3611 934 
Q 4013 1447 4013 2328 
Q 4013 3213 3611 3725 
Q 3209 4238 2522 4238 
z
M 2522 4750 
Q 3503 4750 4090 4092 
Q 4678 3434 4678 2328 
Q 4678 1225 4090 567 
Q 3503 -91 2522 -91 
Q 1538 -91 948 565 
Q 359 1222 359 2328 
Q 359 3434 948 4092 
Q 1538 4750 2522 4750 
z
" transform="scale(0.015625)"/>
     </defs>
     <use xlink:href="#DejaVuSans-50"/>
     <use xlink:href="#DejaVuSans-53" x="60.302734"/>
     <use xlink:href="#DejaVuSans-4f" x="123.779297"/>
    </g>
   </g>
   <g id="text_16">
    <!-- best 2009 -->
    <g transform="translate(386.578944 36.937045)scale(0.14 -0.14)">
     <defs>
      <path id="DejaVuSans-62" d="M 3116 1747 
Q 3116 2381 2855 2742 
Q 2594 3103 2138 3103 
Q 1681 3103 1420 2742 
Q 1159 2381 1159 1747 
Q 1159 1113 1420 752 
Q 1681 391 2138 391 
Q 2594 391 2855 752 
Q 3116 1113 3116 1747 
z
M 1159 2969 
Q 1341 3281 1617 3432 
Q 1894 3584 2278 3584 
Q 2916 3584 3314 3078 
Q 3713 2572 3713 1747 
Q 3713 922 3314 415 
Q 2916 -91 2278 -91 
Q 1894 -91 1617 61 
Q 1341 213 1159 525 
L 1159 0 
L 581 0 
L 581 4863 
L 1159 4863 
L 1159 2969 
z
" transform="scale(0.015625)"/>
      <path id="DejaVuSans-39" d="M 703 97 
L 703 672 
Q 941 559 1184 500 
Q 1428 441 1663 441 
Q 2288 441 2617 861 
Q 2947 1281 2994 2138 
Q 2813 1869 2534 1725 
Q 2256 1581 1919 1581 
Q 1219 1581 811 2004 
Q 403 2428 403 3163 
Q 403 3881 828 4315 
Q 1253 4750 1959 4750 
Q 2769 4750 3195 4129 
Q 3622 3509 3622 2328 
Q 3622 1225 3098 567 
Q 2575 -91 1691 -91 
Q 1453 -91 1209 -44 
Q 966 3 703 97 
z
M 1959 2075 
Q 2384 2075 2632 2365 
Q 2881 2656 2881 3163 
Q 2881 3666 2632 3958 
Q 2384 4250 1959 4250 
Q 1534 4250 1286 3958 
Q 1038 3666 1038 3163 
Q 1038 2656 1286 2365 
Q 1534 2075 1959 2075 
z
" transform="scale(0.015625)"/>
     </defs>
     <use xlink:href="#DejaVuSans-62"/>
     <use xlink:href="#DejaVuSans-65" x="63.476562"/>
     <use xlink:href="#DejaVuSans-73" x="125"/>
     <use xlink:href="#DejaVuSans-74" x="177.099609"/>
     <use xlink:href="#DejaVuSans-20" x="216.308594"/>
     <use xlink:href="#DejaVuSans-32" x="248.095703"/>
     <use xlink:href="#DejaVuSans-30" x="311.71875"/>
     <use xlink:href="#DejaVuSans-30" x="375.341797"/>
     <use xlink:href="#DejaVuSans-39" x="438.964844"/>
    </g>
   </g>
   <g id="text_17">
    <!-- bbob f19, 2-D -->
    <g transform="translate(60.632064 38.111366)scale(0.102 -0.102)">
     <defs>
      <path id="DejaVuSans-44" d="M 1259 4147 
L 1259 519 
L 2022 519 
Q 2988 519 3436 956 
Q 3884 1394 3884 2338 
Q 3884 3275 3436 3711 
Q 2988 4147 2022 4147 
L 1259 4147 
z
M 628 4666 
L 1925 4666 
Q 3281 4666 3915 4102 
Q 4550 3538 4550 2338 
Q 4550 1131 3912 565 
Q 3275 0 1925 0 
L 628 0 
L 628 4666 
z
" transform="scale(0.015625)"/>
     </defs>
     <use xlink:href="#DejaVuSans-62"/>
     <use xlink:href="#DejaVuSans-62" x="63.476562"/>
     <use xlink:href="#DejaVuSans-6f" x="126.953125"/>
     <use xlink:href="#DejaVuSans-62" x="188.134766"/>
     <use xlink:href="#DejaVuSans-20" x="251.611328"/>
     <use xlink:href="#DejaVuSans-66" x="283.398438"/>
     <use xlink:href="#DejaVuSans-31" x="318.603516"/>
     <use xlink:href="#DejaVuSans-39" x="382.226562"/>
     <use xlink:href="#DejaVuSans-2c" x="445.849609"/>
     <use xlink:href="#DejaVuSans-20" x="477.636719"/>
     <use xlink:href="#DejaVuSans-32" x="509.423828"/>
     <use xlink:href="#DejaVuSans-2d" x="573.046875"/>
     <use xlink:href="#DejaVuSans-44" x="609.130859"/>
    </g>
    <!-- 51 targets: 100..1e-08 -->
    <g transform="translate(60.632064 49.533135)scale(0.102 -0.102)">
     <defs>
      <path id="DejaVuSans-35" d="M 691 4666 
L 3169 4666 
L 3169 4134 
L 1269 4134 
L 1269 2991 
Q 1406 3038 1543 3061 
Q 1681 3084 1819 3084 
Q 2600 3084 3056 2656 
Q 3513 2228 3513 1497 
Q 3513 744 3044 326 
Q 2575 -91 1722 -91 
Q 1428 -91 1123 -41 
Q 819 9 494 109 
L 494 744 
Q 775 591 1075 516 
Q 1375 441 1709 441 
Q 2250 441 2565 725 
Q 2881 1009 2881 1497 
Q 2881 1984 2565 2268 
Q 2250 2553 1709 2553 
Q 1456 2553 1204 2497 
Q 953 2441 691 2322 
L 691 4666 
z
" transform="scale(0.015625)"/>
      <path id="DejaVuSans-3a" d="M 750 794 
L 1409 794 
L 1409 0 
L 750 0 
L 750 794 
z
M 750 3309 
L 1409 3309 
L 1409 2516 
L 750 2516 
L 750 3309 
z
" transform="scale(0.015625)"/>
     </defs>
     <use xlink:href="#DejaVuSans-35"/>
     <use xlink:href="#DejaVuSans-31" x="63.623047"/>
     <use xlink:href="#DejaVuSans-20" x="127.246094"/>
     <use xlink:href="#DejaVuSans-74" x="159.033203"/>
     <use xlink:href="#DejaVuSans-61" x="198.242188"/>
     <use xlink:href="#DejaVuSans-72" x="259.521484"/>
     <use xlink:href="#DejaVuSans-67" x="298.884766"/>
     <use xlink:href="#DejaVuSans-65" x="362.361328"/>
     <use xlink:href="#DejaVuSans-74" x="423.884766"/>
     <use xlink:href="#DejaVuSans-73" x="463.09375"/>
     <use xlink:href="#DejaVuSans-3a" x="515.193359"/>
     <use xlink:href="#DejaVuSans-20" x="548.884766"/>
     <use xlink:href="#DejaVuSans-31" x="580.671875"/>
     <use xlink:href="#DejaVuSans-30" x="644.294922"/>
     <use xlink:href="#DejaVuSans-30" x="707.917969"/>
     <use xlink:href="#DejaVuSans-2e" x="771.541016"/>
     <use xlink:href="#DejaVuSans-2e" x="803.328125"/>
     <use xlink:href="#DejaVuSans-31" x="835.115234"/>
     <use xlink:href="#DejaVuSans-65" x="898.738281"/>
     <use xlink:href="#DejaVuSans-2d" x="960.261719"/>
     <use xlink:href="#DejaVuSans-30" x="996.345703"/>
     <use xlink:href="#DejaVuSans-38" x="1059.96875"/>
    </g>
    <!-- 15 instances -->
    <g transform="translate(60.632064 60.954904)scale(0.102 -0.102)">
     <use xlink:href="#DejaVuSans-31"/>
     <use xlink:href="#DejaVuSans-35" x="63.623047"/>
     <use xlink:href="#DejaVuSans-20" x="127.246094"/>
     <use xlink:href="#DejaVuSans-69" x="159.033203"/>
     <use xlink:href="#DejaVuSans-6e" x="186.816406"/>
     <use xlink:href="#DejaVuSans-73" x="250.195312"/>
     <use xlink:href="#DejaVuSans-74" x="302.294922"/>
     <use xlink:href="#DejaVuSans-61" x="341.503906"/>
     <use xlink:href="#DejaVuSans-6e" x="402.783203"/>
     <use xlink:href="#DejaVuSans-63" x="466.162109"/>
     <use xlink:href="#DejaVuSans-65" x="521.142578"/>
     <use xlink:href="#DejaVuSans-73" x="582.666016"/>
    </g>
   </g>
   <g id="text_18">
    <!-- v2.6 -->
    <g style="fill: #808080" transform="translate(198.292262 294.151352)scale(0.1 -0.1)">
     <use xlink:href="#DejaVuSans-76"/>
     <use xlink:href="#DejaVuSans-32" x="59.179688"/>
     <use xlink:href="#DejaVuSans-2e" x="122.802734"/>
     <use xlink:href="#DejaVuSans-36" x="154.589844"/>
    </g>
   </g>
   <g id="text_19">
    <!-- 19 Griewank-Rosenbrock F8F2 -->
    <g transform="translate(57.101637 21.648)scale(0.2 -0.2)">
     <defs>
      <path id="DejaVuSans-77" d="M 269 3500 
L 844 3500 
L 1563 769 
L 2278 3500 
L 2956 3500 
L 3675 769 
L 4391 3500 
L 4966 3500 
L 4050 0 
L 3372 0 
L 2619 2869 
L 1863 0 
L 1184 0 
L 269 3500 
z
" transform="scale(0.015625)"/>
      <path id="DejaVuSans-6b" d="M 581 4863 
L 1159 4863 
L 1159 1991 
L 2875 3500 
L 3609 3500 
L 1753 1863 
L 3688 0 
L 2938 0 
L 1159 1709 
L 1159 0 
L 581 0 
L 581 4863 
z
" transform="scale(0.015625)"/>
      <path id="DejaVuSans-52" d="M 2841 2188 
Q 3044 2119 3236 1894 
Q 3428 1669 3622 1275 
L 4263 0 
L 3584 0 
L 2988 1197 
Q 2756 1666 2539 1819 
Q 2322 1972 1947 1972 
L 1259 1972 
L 1259 0 
L 628 0 
L 628 4666 
L 2053 4666 
Q 2853 4666 3247 4331 
Q 3641 3997 3641 3322 
Q 3641 2881 3436 2590 
Q 3231 2300 2841 2188 
z
M 1259 4147 
L 1259 2491 
L 2053 2491 
Q 2509 2491 2742 2702 
Q 2975 2913 2975 3322 
Q 2975 3731 2742 3939 
Q 2509 4147 2053 4147 
L 1259 4147 
z
" transform="scale(0.015625)"/>
     </defs>
     <use xlink:href="#DejaVuSans-31"/>
     <use xlink:href="#DejaVuSans-39" x="63.623047"/>
     <use xlink:href="#DejaVuSans-20" x="127.246094"/>
     <use xlink:href="#DejaVuSans-47" x="159.033203"/>
     <use xlink:href="#DejaVuSans-72" x="236.523438"/>
     <use xlink:href="#DejaVuSans-69" x="277.636719"/>
     <use xlink:href="#DejaVuSans-65" x="305.419922"/>
     <use xlink:href="#DejaVuSans-77" x="366.943359"/>
     <use xlink:href="#DejaVuSans-61" x="448.730469"/>
     <use xlink:href="#DejaVuSans-6e" x="510.009766"/>
     <use xlink:href="#DejaVuSans-6b" x="573.388672"/>
     <use xlink:href="#DejaVuSans-2d" x="631.298828"/>
     <use xlink:href="#DejaVuSans-52" x="667.382812"/>
     <use xlink:href="#DejaVuSans-6f" x="732.365234"/>
     <use xlink:href="#DejaVuSans-73" x="793.546875"/>
     <use xlink:href="#DejaVuSans-65" x="845.646484"/>
     <use xlink:href="#DejaVuSans-6e" x="907.169922"/>
     <use xlink:href="#DejaVuSans-62" x="970.548828"/>
     <use xlink:href="#DejaVuSans-72" x="1034.025391"/>
     <use xlink:href="#DejaVuSans-6f" x="1072.888672"/>
     <use xlink:href="#DejaVuSans-63" x="1134.070312"/>
     <use xlink:href="#DejaVuSans-6b" x="1189.050781"/>
     <use xlink:href="#DejaVuSans-20" x="1246.960938"/>
     <use xlink:href="#DejaVuSans-46" x="1278.748047"/>
     <use xlink:href="#DejaVuSans-38" x="1336.267578"/>
     <use xlink:href="#DejaVuSans-46" x="1399.890625"/>
     <use xlink:href="#DejaVuSans-32" x="1457.410156"/>
    </g>
   </g>
  </g>
 </g>
 <defs>
  <clipPath id="p3440c42a77">
   <rect x="57.6" y="27.648" width="303.2064" height="271.296"/>
  </clipPath>
 </defs>
</svg>
