<?xml version="1.0" encoding="utf-8" standalone="no"?>
<!DOCTYPE svg PUBLIC "-//W3C//DTD SVG 1.1//EN"
  "http://www.w3.org/Graphics/SVG/1.1/DTD/svg11.dtd">
<svg xmlns:xlink="http://www.w3.org/1999/xlink" width="460.8pt" height="345.6pt" viewBox="0 0 460.8 345.6" xmlns="http://www.w3.org/2000/svg" version="1.1">
 <metadata>
  <rdf:RDF xmlns:dc="http://purl.org/dc/elements/1.1/" xmlns:cc="http://creativecommons.org/ns#" xmlns:rdf="http://www.w3.org/1999/02/22-rdf-syntax-ns#">
   <cc:Work>
    <dc:type rdf:resource="http://purl.org/dc/dcmitype/StillImage"/>
    <dc:date>2024-05-29T08:09:12.749146</dc:date>
    <dc:format>image/svg+xml</dc:format>
    <dc:creator>
     <cc:Agent>
      <dc:title>Matplotlib v3.5.1, https://matplotlib.org/</dc:title>
     </cc:Agent>
    </dc:creator>
   </cc:Work>
  </rdf:RDF>
 </metadata>
 <defs>
  <style type="text/css">*{stroke-linejoin: round; stroke-linecap: butt}</style>
 </defs>
 <g id="figure_1">
  <g id="patch_1">
   <path d="M 0 345.6 
L 460.8 345.6 
L 460.8 0 
L 0 0 
z
" style="fill: #ffffff"/>
  </g>
  <g id="axes_1">
   <g id="patch_2">
    <path d="M 57.6 298.944 
L 360.8064 298.944 
L 360.8064 27.648 
L 57.6 27.648 
z
" style="fill: #ffffff"/>
   </g>
   <g id="line2d_1">
    <path d="M 14.2848 298.944 
L 14.2848 293.624471 
L 68.65718 293.624471 
L 68.65718 288.304941 
L 78.266603 288.304941 
L 78.266603 282.985412 
L 85.038813 282.985412 
L 85.038813 277.665882 
L 95.998523 277.665882 
L 95.998523 272.346353 
L 100.535156 272.346353 
L 100.535156 267.026824 
L 109.159456 267.026824 
L 109.159456 261.707294 
L 135.568632 261.707294 
L 135.568632 256.387765 
L 140.312801 256.387765 
L 140.312801 251.068235 
L 163.786321 251.068235 
L 163.786321 245.748706 
L 163.85935 245.748706 
L 163.85935 240.429176 
L 178.244035 240.429176 
L 178.244035 235.109647 
L 178.546935 235.109647 
L 178.546935 229.790118 
L 178.661917 229.790118 
L 178.661917 224.470588 
L 178.71313 224.470588 
L 178.71313 219.151059 
L 179.01159 219.151059 
L 179.01159 213.831529 
L 179.111997 213.831529 
L 179.111997 208.512 
L 179.311218 208.512 
L 179.311218 203.192471 
L 179.447692 203.192471 
L 179.447692 197.872941 
L 179.568815 197.872941 
L 179.568815 192.553412 
L 179.786028 192.553412 
L 179.786028 187.233882 
L 179.871084 187.233882 
L 179.871084 181.914353 
L 179.913468 181.914353 
L 179.913468 176.594824 
L 180.13513 176.594824 
L 180.13513 171.275294 
L 180.257464 171.275294 
L 180.257464 165.955765 
L 180.285156 165.955765 
L 180.285156 160.636235 
L 180.499771 160.636235 
L 180.499771 155.316706 
L 180.527109 155.316706 
L 180.527109 149.997176 
L 180.546222 149.997176 
L 180.546222 144.677647 
L 180.59256 144.677647 
L 180.59256 139.358118 
L 180.630634 139.358118 
L 180.630634 134.038588 
L 180.884301 134.038588 
L 180.884301 128.719059 
L 180.916439 128.719059 
L 180.916439 123.399529 
L 181.073658 123.399529 
L 181.073658 118.08 
L 184.010964 118.08 
L 184.010964 112.760471 
L 184.031383 112.760471 
L 184.031383 107.440941 
L 184.245576 107.440941 
L 184.245576 102.121412 
L 184.30154 102.121412 
L 184.30154 96.801882 
L 184.326111 96.801882 
L 184.326111 91.482353 
L 184.426297 91.482353 
L 184.426297 86.162824 
L 188.050439 86.162824 
L 188.050439 80.843294 
L 188.065084 80.843294 
L 188.065084 75.523765 
L 188.097994 75.523765 
L 188.097994 70.204235 
L 188.118077 70.204235 
L 188.118077 64.884706 
L 188.147251 64.884706 
L 188.147251 59.565176 
L 188.194562 59.565176 
L 188.194562 54.245647 
L 188.207279 54.245647 
L 188.207279 48.926118 
L 193.154769 48.926118 
L 193.154769 43.606588 
L 193.202178 43.606588 
L 193.202178 38.287059 
L 193.235571 38.287059 
L 193.235571 32.967529 
L 193.485521 32.967529 
L 193.485521 27.648 
L 360.8064 27.648 
" style="fill: none; stroke: #f5deb3; stroke-width: 4; stroke-linecap: square"/>
   </g>
   <g id="line2d_2">
    <defs>
     <path id="m9a8df8902e" d="M 0 7.778175 
L 7.778175 0 
L 0 -7.778175 
L -7.778175 0 
z
" style="stroke: #f5deb3; stroke-width: 1.5; stroke-linejoin: miter"/>
    </defs>
    <g>
     <use xlink:href="#m9a8df8902e" x="85.038813" y="277.665882" style="fill: #f5deb3; stroke: #f5deb3; stroke-width: 1.5; stroke-linejoin: miter"/>
     <use xlink:href="#m9a8df8902e" x="179.111997" y="213.831529" style="fill: #f5deb3; stroke: #f5deb3; stroke-width: 1.5; stroke-linejoin: miter"/>
     <use xlink:href="#m9a8df8902e" x="184.010964" y="112.760471" style="fill: #f5deb3; stroke: #f5deb3; stroke-width: 1.5; stroke-linejoin: miter"/>
     <use xlink:href="#m9a8df8902e" x="193.485521" y="32.967529" style="fill: #f5deb3; stroke: #f5deb3; stroke-width: 1.5; stroke-linejoin: miter"/>
     <use xlink:href="#m9a8df8902e" x="193.485521" y="27.648" style="fill: #f5deb3; stroke: #f5deb3; stroke-width: 1.5; stroke-linejoin: miter"/>
     <use xlink:href="#m9a8df8902e" x="360.8064" y="27.648" style="fill: #f5deb3; stroke: #f5deb3; stroke-width: 1.5; stroke-linejoin: miter"/>
    </g>
   </g>
   <g id="line2d_3">
    <path style="fill: none; stroke: #f5deb3; stroke-width: 4; stroke-linecap: square"/>
    <g/>
   </g>
   <g id="line2d_4">
    <path d="M 360.8064 27.648 
L 380.514816 33.07392 
" style="fill: none; stroke: #f5deb3; stroke-width: 4; stroke-linecap: square"/>
    <g>
     <use xlink:href="#m9a8df8902e" x="360.8064" y="27.648" style="fill: #f5deb3; stroke: #f5deb3; stroke-width: 1.5; stroke-linejoin: miter"/>
     <use xlink:href="#m9a8df8902e" x="380.514816" y="33.07392" style="fill: #f5deb3; stroke: #f5deb3; stroke-width: 1.5; stroke-linejoin: miter"/>
    </g>
   </g>
   <g id="matplotlib.axis_1">
    <g id="xtick_1">
     <g id="line2d_5">
      <path d="M 57.6 298.944 
L 57.6 27.648 
" clip-path="url(#p9eceb73998)" style="fill: none; stroke: #b0b0b0; stroke-width: 0.8; stroke-linecap: square"/>
     </g>
     <g id="line2d_6">
      <defs>
       <path id="m43be2f37f8" d="M 0 0 
L 0 3.5 
" style="stroke: #000000; stroke-width: 0.8"/>
      </defs>
      <g>
       <use xlink:href="#m43be2f37f8" x="57.6" y="298.944" style="stroke: #000000; stroke-width: 0.8"/>
      </g>
     </g>
     <g id="text_1">
      <!-- 0 -->
      <g transform="translate(52.191875 318.861344)scale(0.17 -0.17)">
       <defs>
        <path id="DejaVuSans-30" d="M 2034 4250 
Q 1547 4250 1301 3770 
Q 1056 3291 1056 2328 
Q 1056 1369 1301 889 
Q 1547 409 2034 409 
Q 2525 409 2770 889 
Q 3016 1369 3016 2328 
Q 3016 3291 2770 3770 
Q 2525 4250 2034 4250 
z
M 2034 4750 
Q 2819 4750 3233 4129 
Q 3647 3509 3647 2328 
Q 3647 1150 3233 529 
Q 2819 -91 2034 -91 
Q 1250 -91 836 529 
Q 422 1150 422 2328 
Q 422 3509 836 4129 
Q 1250 4750 2034 4750 
z
" transform="scale(0.015625)"/>
       </defs>
       <use xlink:href="#DejaVuSans-30"/>
      </g>
     </g>
    </g>
    <g id="xtick_2">
     <g id="line2d_7">
      <path d="M 144.2304 298.944 
L 144.2304 27.648 
" clip-path="url(#p9eceb73998)" style="fill: none; stroke: #b0b0b0; stroke-width: 0.8; stroke-linecap: square"/>
     </g>
     <g id="line2d_8">
      <g>
       <use xlink:href="#m43be2f37f8" x="144.2304" y="298.944" style="stroke: #000000; stroke-width: 0.8"/>
      </g>
     </g>
     <g id="text_2">
      <!-- 2 -->
      <g transform="translate(138.822275 318.861344)scale(0.17 -0.17)">
       <defs>
        <path id="DejaVuSans-32" d="M 1228 531 
L 3431 531 
L 3431 0 
L 469 0 
L 469 531 
Q 828 903 1448 1529 
Q 2069 2156 2228 2338 
Q 2531 2678 2651 2914 
Q 2772 3150 2772 3378 
Q 2772 3750 2511 3984 
Q 2250 4219 1831 4219 
Q 1534 4219 1204 4116 
Q 875 4013 500 3803 
L 500 4441 
Q 881 4594 1212 4672 
Q 1544 4750 1819 4750 
Q 2544 4750 2975 4387 
Q 3406 4025 3406 3419 
Q 3406 3131 3298 2873 
Q 3191 2616 2906 2266 
Q 2828 2175 2409 1742 
Q 1991 1309 1228 531 
z
" transform="scale(0.015625)"/>
       </defs>
       <use xlink:href="#DejaVuSans-32"/>
      </g>
     </g>
    </g>
    <g id="xtick_3">
     <g id="line2d_9">
      <path d="M 230.8608 298.944 
L 230.8608 27.648 
" clip-path="url(#p9eceb73998)" style="fill: none; stroke: #b0b0b0; stroke-width: 0.8; stroke-linecap: square"/>
     </g>
     <g id="line2d_10">
      <g>
       <use xlink:href="#m43be2f37f8" x="230.8608" y="298.944" style="stroke: #000000; stroke-width: 0.8"/>
      </g>
     </g>
     <g id="text_3">
      <!-- 4 -->
      <g transform="translate(225.452675 318.861344)scale(0.17 -0.17)">
       <defs>
        <path id="DejaVuSans-34" d="M 2419 4116 
L 825 1625 
L 2419 1625 
L 2419 4116 
z
M 2253 4666 
L 3047 4666 
L 3047 1625 
L 3713 1625 
L 3713 1100 
L 3047 1100 
L 3047 0 
L 2419 0 
L 2419 1100 
L 313 1100 
L 313 1709 
L 2253 4666 
z
" transform="scale(0.015625)"/>
       </defs>
       <use xlink:href="#DejaVuSans-34"/>
      </g>
     </g>
    </g>
    <g id="xtick_4">
     <g id="line2d_11">
      <path d="M 317.4912 298.944 
L 317.4912 27.648 
" clip-path="url(#p9eceb73998)" style="fill: none; stroke: #b0b0b0; stroke-width: 0.8; stroke-linecap: square"/>
     </g>
     <g id="line2d_12">
      <g>
       <use xlink:href="#m43be2f37f8" x="317.4912" y="298.944" style="stroke: #000000; stroke-width: 0.8"/>
      </g>
     </g>
     <g id="text_4">
      <!-- 6 -->
      <g transform="translate(312.083075 318.861344)scale(0.17 -0.17)">
       <defs>
        <path id="DejaVuSans-36" d="M 2113 2584 
Q 1688 2584 1439 2293 
Q 1191 2003 1191 1497 
Q 1191 994 1439 701 
Q 1688 409 2113 409 
Q 2538 409 2786 701 
Q 3034 994 3034 1497 
Q 3034 2003 2786 2293 
Q 2538 2584 2113 2584 
z
M 3366 4563 
L 3366 3988 
Q 3128 4100 2886 4159 
Q 2644 4219 2406 4219 
Q 1781 4219 1451 3797 
Q 1122 3375 1075 2522 
Q 1259 2794 1537 2939 
Q 1816 3084 2150 3084 
Q 2853 3084 3261 2657 
Q 3669 2231 3669 1497 
Q 3669 778 3244 343 
Q 2819 -91 2113 -91 
Q 1303 -91 875 529 
Q 447 1150 447 2328 
Q 447 3434 972 4092 
Q 1497 4750 2381 4750 
Q 2619 4750 2861 4703 
Q 3103 4656 3366 4563 
z
" transform="scale(0.015625)"/>
       </defs>
       <use xlink:href="#DejaVuSans-36"/>
      </g>
     </g>
    </g>
    <g id="xtick_5">
     <g id="line2d_13">
      <path d="M 100.9152 298.944 
L 100.9152 27.648 
" clip-path="url(#p9eceb73998)" style="fill: none; stroke: #b0b0b0; stroke-width: 0.8; stroke-linecap: square"/>
     </g>
     <g id="line2d_14">
      <defs>
       <path id="m3b2befd53e" d="M 0 0 
L 0 2 
" style="stroke: #000000; stroke-width: 0.6"/>
      </defs>
      <g>
       <use xlink:href="#m3b2befd53e" x="100.9152" y="298.944" style="stroke: #000000; stroke-width: 0.6"/>
      </g>
     </g>
    </g>
    <g id="xtick_6">
     <g id="line2d_15">
      <path d="M 187.5456 298.944 
L 187.5456 27.648 
" clip-path="url(#p9eceb73998)" style="fill: none; stroke: #b0b0b0; stroke-width: 0.8; stroke-linecap: square"/>
     </g>
     <g id="line2d_16">
      <g>
       <use xlink:href="#m3b2befd53e" x="187.5456" y="298.944" style="stroke: #000000; stroke-width: 0.6"/>
      </g>
     </g>
    </g>
    <g id="xtick_7">
     <g id="line2d_17">
      <path d="M 274.176 298.944 
L 274.176 27.648 
" clip-path="url(#p9eceb73998)" style="fill: none; stroke: #b0b0b0; stroke-width: 0.8; stroke-linecap: square"/>
     </g>
     <g id="line2d_18">
      <g>
       <use xlink:href="#m3b2befd53e" x="274.176" y="298.944" style="stroke: #000000; stroke-width: 0.6"/>
      </g>
     </g>
    </g>
    <g id="xtick_8">
     <g id="line2d_19">
      <path d="M 360.8064 298.944 
L 360.8064 27.648 
" clip-path="url(#p9eceb73998)" style="fill: none; stroke: #b0b0b0; stroke-width: 0.8; stroke-linecap: square"/>
     </g>
     <g id="line2d_20">
      <g>
       <use xlink:href="#m3b2befd53e" x="360.8064" y="298.944" style="stroke: #000000; stroke-width: 0.6"/>
      </g>
     </g>
    </g>
    <g id="text_5">
     <!-- log10(# f-evals / dimension) -->
     <g transform="translate(88.823278 339.314156)scale(0.17 -0.17)">
      <defs>
       <path id="DejaVuSans-6c" d="M 603 4863 
L 1178 4863 
L 1178 0 
L 603 0 
L 603 4863 
z
" transform="scale(0.015625)"/>
       <path id="DejaVuSans-6f" d="M 1959 3097 
Q 1497 3097 1228 2736 
Q 959 2375 959 1747 
Q 959 1119 1226 758 
Q 1494 397 1959 397 
Q 2419 397 2687 759 
Q 2956 1122 2956 1747 
Q 2956 2369 2687 2733 
Q 2419 3097 1959 3097 
z
M 1959 3584 
Q 2709 3584 3137 3096 
Q 3566 2609 3566 1747 
Q 3566 888 3137 398 
Q 2709 -91 1959 -91 
Q 1206 -91 779 398 
Q 353 888 353 1747 
Q 353 2609 779 3096 
Q 1206 3584 1959 3584 
z
" transform="scale(0.015625)"/>
       <path id="DejaVuSans-67" d="M 2906 1791 
Q 2906 2416 2648 2759 
Q 2391 3103 1925 3103 
Q 1463 3103 1205 2759 
Q 947 2416 947 1791 
Q 947 1169 1205 825 
Q 1463 481 1925 481 
Q 2391 481 2648 825 
Q 2906 1169 2906 1791 
z
M 3481 434 
Q 3481 -459 3084 -895 
Q 2688 -1331 1869 -1331 
Q 1566 -1331 1297 -1286 
Q 1028 -1241 775 -1147 
L 775 -588 
Q 1028 -725 1275 -790 
Q 1522 -856 1778 -856 
Q 2344 -856 2625 -561 
Q 2906 -266 2906 331 
L 2906 616 
Q 2728 306 2450 153 
Q 2172 0 1784 0 
Q 1141 0 747 490 
Q 353 981 353 1791 
Q 353 2603 747 3093 
Q 1141 3584 1784 3584 
Q 2172 3584 2450 3431 
Q 2728 3278 2906 2969 
L 2906 3500 
L 3481 3500 
L 3481 434 
z
" transform="scale(0.015625)"/>
       <path id="DejaVuSans-31" d="M 794 531 
L 1825 531 
L 1825 4091 
L 703 3866 
L 703 4441 
L 1819 4666 
L 2450 4666 
L 2450 531 
L 3481 531 
L 3481 0 
L 794 0 
L 794 531 
z
" transform="scale(0.015625)"/>
       <path id="DejaVuSans-28" d="M 1984 4856 
Q 1566 4138 1362 3434 
Q 1159 2731 1159 2009 
Q 1159 1288 1364 580 
Q 1569 -128 1984 -844 
L 1484 -844 
Q 1016 -109 783 600 
Q 550 1309 550 2009 
Q 550 2706 781 3412 
Q 1013 4119 1484 4856 
L 1984 4856 
z
" transform="scale(0.015625)"/>
       <path id="DejaVuSans-23" d="M 3272 2816 
L 2363 2816 
L 2100 1772 
L 3016 1772 
L 3272 2816 
z
M 2803 4594 
L 2478 3297 
L 3391 3297 
L 3719 4594 
L 4219 4594 
L 3897 3297 
L 4872 3297 
L 4872 2816 
L 3775 2816 
L 3519 1772 
L 4513 1772 
L 4513 1294 
L 3397 1294 
L 3072 0 
L 2572 0 
L 2894 1294 
L 1978 1294 
L 1656 0 
L 1153 0 
L 1478 1294 
L 494 1294 
L 494 1772 
L 1594 1772 
L 1856 2816 
L 850 2816 
L 850 3297 
L 1978 3297 
L 2297 4594 
L 2803 4594 
z
" transform="scale(0.015625)"/>
       <path id="DejaVuSans-20" transform="scale(0.015625)"/>
       <path id="DejaVuSans-66" d="M 2375 4863 
L 2375 4384 
L 1825 4384 
Q 1516 4384 1395 4259 
Q 1275 4134 1275 3809 
L 1275 3500 
L 2222 3500 
L 2222 3053 
L 1275 3053 
L 1275 0 
L 697 0 
L 697 3053 
L 147 3053 
L 147 3500 
L 697 3500 
L 697 3744 
Q 697 4328 969 4595 
Q 1241 4863 1831 4863 
L 2375 4863 
z
" transform="scale(0.015625)"/>
       <path id="DejaVuSans-2d" d="M 313 2009 
L 1997 2009 
L 1997 1497 
L 313 1497 
L 313 2009 
z
" transform="scale(0.015625)"/>
       <path id="DejaVuSans-65" d="M 3597 1894 
L 3597 1613 
L 953 1613 
Q 991 1019 1311 708 
Q 1631 397 2203 397 
Q 2534 397 2845 478 
Q 3156 559 3463 722 
L 3463 178 
Q 3153 47 2828 -22 
Q 2503 -91 2169 -91 
Q 1331 -91 842 396 
Q 353 884 353 1716 
Q 353 2575 817 3079 
Q 1281 3584 2069 3584 
Q 2775 3584 3186 3129 
Q 3597 2675 3597 1894 
z
M 3022 2063 
Q 3016 2534 2758 2815 
Q 2500 3097 2075 3097 
Q 1594 3097 1305 2825 
Q 1016 2553 972 2059 
L 3022 2063 
z
" transform="scale(0.015625)"/>
       <path id="DejaVuSans-76" d="M 191 3500 
L 800 3500 
L 1894 563 
L 2988 3500 
L 3597 3500 
L 2284 0 
L 1503 0 
L 191 3500 
z
" transform="scale(0.015625)"/>
       <path id="DejaVuSans-61" d="M 2194 1759 
Q 1497 1759 1228 1600 
Q 959 1441 959 1056 
Q 959 750 1161 570 
Q 1363 391 1709 391 
Q 2188 391 2477 730 
Q 2766 1069 2766 1631 
L 2766 1759 
L 2194 1759 
z
M 3341 1997 
L 3341 0 
L 2766 0 
L 2766 531 
Q 2569 213 2275 61 
Q 1981 -91 1556 -91 
Q 1019 -91 701 211 
Q 384 513 384 1019 
Q 384 1609 779 1909 
Q 1175 2209 1959 2209 
L 2766 2209 
L 2766 2266 
Q 2766 2663 2505 2880 
Q 2244 3097 1772 3097 
Q 1472 3097 1187 3025 
Q 903 2953 641 2809 
L 641 3341 
Q 956 3463 1253 3523 
Q 1550 3584 1831 3584 
Q 2591 3584 2966 3190 
Q 3341 2797 3341 1997 
z
" transform="scale(0.015625)"/>
       <path id="DejaVuSans-73" d="M 2834 3397 
L 2834 2853 
Q 2591 2978 2328 3040 
Q 2066 3103 1784 3103 
Q 1356 3103 1142 2972 
Q 928 2841 928 2578 
Q 928 2378 1081 2264 
Q 1234 2150 1697 2047 
L 1894 2003 
Q 2506 1872 2764 1633 
Q 3022 1394 3022 966 
Q 3022 478 2636 193 
Q 2250 -91 1575 -91 
Q 1294 -91 989 -36 
Q 684 19 347 128 
L 347 722 
Q 666 556 975 473 
Q 1284 391 1588 391 
Q 1994 391 2212 530 
Q 2431 669 2431 922 
Q 2431 1156 2273 1281 
Q 2116 1406 1581 1522 
L 1381 1569 
Q 847 1681 609 1914 
Q 372 2147 372 2553 
Q 372 3047 722 3315 
Q 1072 3584 1716 3584 
Q 2034 3584 2315 3537 
Q 2597 3491 2834 3397 
z
" transform="scale(0.015625)"/>
       <path id="DejaVuSans-2f" d="M 1625 4666 
L 2156 4666 
L 531 -594 
L 0 -594 
L 1625 4666 
z
" transform="scale(0.015625)"/>
       <path id="DejaVuSans-64" d="M 2906 2969 
L 2906 4863 
L 3481 4863 
L 3481 0 
L 2906 0 
L 2906 525 
Q 2725 213 2448 61 
Q 2172 -91 1784 -91 
Q 1150 -91 751 415 
Q 353 922 353 1747 
Q 353 2572 751 3078 
Q 1150 3584 1784 3584 
Q 2172 3584 2448 3432 
Q 2725 3281 2906 2969 
z
M 947 1747 
Q 947 1113 1208 752 
Q 1469 391 1925 391 
Q 2381 391 2643 752 
Q 2906 1113 2906 1747 
Q 2906 2381 2643 2742 
Q 2381 3103 1925 3103 
Q 1469 3103 1208 2742 
Q 947 2381 947 1747 
z
" transform="scale(0.015625)"/>
       <path id="DejaVuSans-69" d="M 603 3500 
L 1178 3500 
L 1178 0 
L 603 0 
L 603 3500 
z
M 603 4863 
L 1178 4863 
L 1178 4134 
L 603 4134 
L 603 4863 
z
" transform="scale(0.015625)"/>
       <path id="DejaVuSans-6d" d="M 3328 2828 
Q 3544 3216 3844 3400 
Q 4144 3584 4550 3584 
Q 5097 3584 5394 3201 
Q 5691 2819 5691 2113 
L 5691 0 
L 5113 0 
L 5113 2094 
Q 5113 2597 4934 2840 
Q 4756 3084 4391 3084 
Q 3944 3084 3684 2787 
Q 3425 2491 3425 1978 
L 3425 0 
L 2847 0 
L 2847 2094 
Q 2847 2600 2669 2842 
Q 2491 3084 2119 3084 
Q 1678 3084 1418 2786 
Q 1159 2488 1159 1978 
L 1159 0 
L 581 0 
L 581 3500 
L 1159 3500 
L 1159 2956 
Q 1356 3278 1631 3431 
Q 1906 3584 2284 3584 
Q 2666 3584 2933 3390 
Q 3200 3197 3328 2828 
z
" transform="scale(0.015625)"/>
       <path id="DejaVuSans-6e" d="M 3513 2113 
L 3513 0 
L 2938 0 
L 2938 2094 
Q 2938 2591 2744 2837 
Q 2550 3084 2163 3084 
Q 1697 3084 1428 2787 
Q 1159 2491 1159 1978 
L 1159 0 
L 581 0 
L 581 3500 
L 1159 3500 
L 1159 2956 
Q 1366 3272 1645 3428 
Q 1925 3584 2291 3584 
Q 2894 3584 3203 3211 
Q 3513 2838 3513 2113 
z
" transform="scale(0.015625)"/>
       <path id="DejaVuSans-29" d="M 513 4856 
L 1013 4856 
Q 1481 4119 1714 3412 
Q 1947 2706 1947 2009 
Q 1947 1309 1714 600 
Q 1481 -109 1013 -844 
L 513 -844 
Q 928 -128 1133 580 
Q 1338 1288 1338 2009 
Q 1338 2731 1133 3434 
Q 928 4138 513 4856 
z
" transform="scale(0.015625)"/>
      </defs>
      <use xlink:href="#DejaVuSans-6c"/>
      <use xlink:href="#DejaVuSans-6f" x="27.783203"/>
      <use xlink:href="#DejaVuSans-67" x="88.964844"/>
      <use xlink:href="#DejaVuSans-31" x="152.441406"/>
      <use xlink:href="#DejaVuSans-30" x="216.064453"/>
      <use xlink:href="#DejaVuSans-28" x="279.6875"/>
      <use xlink:href="#DejaVuSans-23" x="318.701172"/>
      <use xlink:href="#DejaVuSans-20" x="402.490234"/>
      <use xlink:href="#DejaVuSans-66" x="434.277344"/>
      <use xlink:href="#DejaVuSans-2d" x="463.982422"/>
      <use xlink:href="#DejaVuSans-65" x="500.066406"/>
      <use xlink:href="#DejaVuSans-76" x="561.589844"/>
      <use xlink:href="#DejaVuSans-61" x="620.769531"/>
      <use xlink:href="#DejaVuSans-6c" x="682.048828"/>
      <use xlink:href="#DejaVuSans-73" x="709.832031"/>
      <use xlink:href="#DejaVuSans-20" x="761.931641"/>
      <use xlink:href="#DejaVuSans-2f" x="793.71875"/>
      <use xlink:href="#DejaVuSans-20" x="827.410156"/>
      <use xlink:href="#DejaVuSans-64" x="859.197266"/>
      <use xlink:href="#DejaVuSans-69" x="922.673828"/>
      <use xlink:href="#DejaVuSans-6d" x="950.457031"/>
      <use xlink:href="#DejaVuSans-65" x="1047.869141"/>
      <use xlink:href="#DejaVuSans-6e" x="1109.392578"/>
      <use xlink:href="#DejaVuSans-73" x="1172.771484"/>
      <use xlink:href="#DejaVuSans-69" x="1224.871094"/>
      <use xlink:href="#DejaVuSans-6f" x="1252.654297"/>
      <use xlink:href="#DejaVuSans-6e" x="1313.835938"/>
      <use xlink:href="#DejaVuSans-29" x="1377.214844"/>
     </g>
    </g>
   </g>
   <g id="matplotlib.axis_2">
    <g id="ytick_1">
     <g id="line2d_21">
      <path d="M 57.6 298.944 
L 360.8064 298.944 
" clip-path="url(#p9eceb73998)" style="fill: none; stroke: #b0b0b0; stroke-width: 0.8; stroke-linecap: square"/>
     </g>
     <g id="line2d_22">
      <defs>
       <path id="m5e86249e36" d="M 0 0 
L -3.5 0 
" style="stroke: #000000; stroke-width: 0.8"/>
      </defs>
      <g>
       <use xlink:href="#m5e86249e36" x="57.6" y="298.944" style="stroke: #000000; stroke-width: 0.8"/>
      </g>
     </g>
     <g id="text_6">
      <!-- 0.0 -->
      <g transform="translate(25.155 305.02275)scale(0.16 -0.16)">
       <defs>
        <path id="DejaVuSans-2e" d="M 684 794 
L 1344 794 
L 1344 0 
L 684 0 
L 684 794 
z
" transform="scale(0.015625)"/>
       </defs>
       <use xlink:href="#DejaVuSans-30"/>
       <use xlink:href="#DejaVuSans-2e" x="63.623047"/>
       <use xlink:href="#DejaVuSans-30" x="95.410156"/>
      </g>
     </g>
    </g>
    <g id="ytick_2">
     <g id="line2d_23">
      <path d="M 57.6 244.6848 
L 360.8064 244.6848 
" clip-path="url(#p9eceb73998)" style="fill: none; stroke: #b0b0b0; stroke-width: 0.8; stroke-linecap: square"/>
     </g>
     <g id="line2d_24">
      <g>
       <use xlink:href="#m5e86249e36" x="57.6" y="244.6848" style="stroke: #000000; stroke-width: 0.8"/>
      </g>
     </g>
     <g id="text_7">
      <!-- 0.2 -->
      <g transform="translate(25.155 250.76355)scale(0.16 -0.16)">
       <use xlink:href="#DejaVuSans-30"/>
       <use xlink:href="#DejaVuSans-2e" x="63.623047"/>
       <use xlink:href="#DejaVuSans-32" x="95.410156"/>
      </g>
     </g>
    </g>
    <g id="ytick_3">
     <g id="line2d_25">
      <path d="M 57.6 190.4256 
L 360.8064 190.4256 
" clip-path="url(#p9eceb73998)" style="fill: none; stroke: #b0b0b0; stroke-width: 0.8; stroke-linecap: square"/>
     </g>
     <g id="line2d_26">
      <g>
       <use xlink:href="#m5e86249e36" x="57.6" y="190.4256" style="stroke: #000000; stroke-width: 0.8"/>
      </g>
     </g>
     <g id="text_8">
      <!-- 0.4 -->
      <g transform="translate(25.155 196.50435)scale(0.16 -0.16)">
       <use xlink:href="#DejaVuSans-30"/>
       <use xlink:href="#DejaVuSans-2e" x="63.623047"/>
       <use xlink:href="#DejaVuSans-34" x="95.410156"/>
      </g>
     </g>
    </g>
    <g id="ytick_4">
     <g id="line2d_27">
      <path d="M 57.6 136.1664 
L 360.8064 136.1664 
" clip-path="url(#p9eceb73998)" style="fill: none; stroke: #b0b0b0; stroke-width: 0.8; stroke-linecap: square"/>
     </g>
     <g id="line2d_28">
      <g>
       <use xlink:href="#m5e86249e36" x="57.6" y="136.1664" style="stroke: #000000; stroke-width: 0.8"/>
      </g>
     </g>
     <g id="text_9">
      <!-- 0.6 -->
      <g transform="translate(25.155 142.24515)scale(0.16 -0.16)">
       <use xlink:href="#DejaVuSans-30"/>
       <use xlink:href="#DejaVuSans-2e" x="63.623047"/>
       <use xlink:href="#DejaVuSans-36" x="95.410156"/>
      </g>
     </g>
    </g>
    <g id="ytick_5">
     <g id="line2d_29">
      <path d="M 57.6 81.9072 
L 360.8064 81.9072 
" clip-path="url(#p9eceb73998)" style="fill: none; stroke: #b0b0b0; stroke-width: 0.8; stroke-linecap: square"/>
     </g>
     <g id="line2d_30">
      <g>
       <use xlink:href="#m5e86249e36" x="57.6" y="81.9072" style="stroke: #000000; stroke-width: 0.8"/>
      </g>
     </g>
     <g id="text_10">
      <!-- 0.8 -->
      <g transform="translate(25.155 87.98595)scale(0.16 -0.16)">
       <defs>
        <path id="DejaVuSans-38" d="M 2034 2216 
Q 1584 2216 1326 1975 
Q 1069 1734 1069 1313 
Q 1069 891 1326 650 
Q 1584 409 2034 409 
Q 2484 409 2743 651 
Q 3003 894 3003 1313 
Q 3003 1734 2745 1975 
Q 2488 2216 2034 2216 
z
M 1403 2484 
Q 997 2584 770 2862 
Q 544 3141 544 3541 
Q 544 4100 942 4425 
Q 1341 4750 2034 4750 
Q 2731 4750 3128 4425 
Q 3525 4100 3525 3541 
Q 3525 3141 3298 2862 
Q 3072 2584 2669 2484 
Q 3125 2378 3379 2068 
Q 3634 1759 3634 1313 
Q 3634 634 3220 271 
Q 2806 -91 2034 -91 
Q 1263 -91 848 271 
Q 434 634 434 1313 
Q 434 1759 690 2068 
Q 947 2378 1403 2484 
z
M 1172 3481 
Q 1172 3119 1398 2916 
Q 1625 2713 2034 2713 
Q 2441 2713 2670 2916 
Q 2900 3119 2900 3481 
Q 2900 3844 2670 4047 
Q 2441 4250 2034 4250 
Q 1625 4250 1398 4047 
Q 1172 3844 1172 3481 
z
" transform="scale(0.015625)"/>
       </defs>
       <use xlink:href="#DejaVuSans-30"/>
       <use xlink:href="#DejaVuSans-2e" x="63.623047"/>
       <use xlink:href="#DejaVuSans-38" x="95.410156"/>
      </g>
     </g>
    </g>
    <g id="ytick_6">
     <g id="line2d_31">
      <path d="M 57.6 27.648 
L 360.8064 27.648 
" clip-path="url(#p9eceb73998)" style="fill: none; stroke: #b0b0b0; stroke-width: 0.8; stroke-linecap: square"/>
     </g>
     <g id="line2d_32">
      <g>
       <use xlink:href="#m5e86249e36" x="57.6" y="27.648" style="stroke: #000000; stroke-width: 0.8"/>
      </g>
     </g>
     <g id="text_11">
      <!-- 1.0 -->
      <g transform="translate(25.155 33.72675)scale(0.16 -0.16)">
       <use xlink:href="#DejaVuSans-31"/>
       <use xlink:href="#DejaVuSans-2e" x="63.623047"/>
       <use xlink:href="#DejaVuSans-30" x="95.410156"/>
      </g>
     </g>
    </g>
    <g id="text_12">
     <!-- Fraction of function,target pairs -->
     <g transform="translate(17.619531 297.681)rotate(-90)scale(0.17 -0.17)">
      <defs>
       <path id="DejaVuSans-46" d="M 628 4666 
L 3309 4666 
L 3309 4134 
L 1259 4134 
L 1259 2759 
L 3109 2759 
L 3109 2228 
L 1259 2228 
L 1259 0 
L 628 0 
L 628 4666 
z
" transform="scale(0.015625)"/>
       <path id="DejaVuSans-72" d="M 2631 2963 
Q 2534 3019 2420 3045 
Q 2306 3072 2169 3072 
Q 1681 3072 1420 2755 
Q 1159 2438 1159 1844 
L 1159 0 
L 581 0 
L 581 3500 
L 1159 3500 
L 1159 2956 
Q 1341 3275 1631 3429 
Q 1922 3584 2338 3584 
Q 2397 3584 2469 3576 
Q 2541 3569 2628 3553 
L 2631 2963 
z
" transform="scale(0.015625)"/>
       <path id="DejaVuSans-63" d="M 3122 3366 
L 3122 2828 
Q 2878 2963 2633 3030 
Q 2388 3097 2138 3097 
Q 1578 3097 1268 2742 
Q 959 2388 959 1747 
Q 959 1106 1268 751 
Q 1578 397 2138 397 
Q 2388 397 2633 464 
Q 2878 531 3122 666 
L 3122 134 
Q 2881 22 2623 -34 
Q 2366 -91 2075 -91 
Q 1284 -91 818 406 
Q 353 903 353 1747 
Q 353 2603 823 3093 
Q 1294 3584 2113 3584 
Q 2378 3584 2631 3529 
Q 2884 3475 3122 3366 
z
" transform="scale(0.015625)"/>
       <path id="DejaVuSans-74" d="M 1172 4494 
L 1172 3500 
L 2356 3500 
L 2356 3053 
L 1172 3053 
L 1172 1153 
Q 1172 725 1289 603 
Q 1406 481 1766 481 
L 2356 481 
L 2356 0 
L 1766 0 
Q 1100 0 847 248 
Q 594 497 594 1153 
L 594 3053 
L 172 3053 
L 172 3500 
L 594 3500 
L 594 4494 
L 1172 4494 
z
" transform="scale(0.015625)"/>
       <path id="DejaVuSans-75" d="M 544 1381 
L 544 3500 
L 1119 3500 
L 1119 1403 
Q 1119 906 1312 657 
Q 1506 409 1894 409 
Q 2359 409 2629 706 
Q 2900 1003 2900 1516 
L 2900 3500 
L 3475 3500 
L 3475 0 
L 2900 0 
L 2900 538 
Q 2691 219 2414 64 
Q 2138 -91 1772 -91 
Q 1169 -91 856 284 
Q 544 659 544 1381 
z
M 1991 3584 
L 1991 3584 
z
" transform="scale(0.015625)"/>
       <path id="DejaVuSans-2c" d="M 750 794 
L 1409 794 
L 1409 256 
L 897 -744 
L 494 -744 
L 750 256 
L 750 794 
z
" transform="scale(0.015625)"/>
       <path id="DejaVuSans-70" d="M 1159 525 
L 1159 -1331 
L 581 -1331 
L 581 3500 
L 1159 3500 
L 1159 2969 
Q 1341 3281 1617 3432 
Q 1894 3584 2278 3584 
Q 2916 3584 3314 3078 
Q 3713 2572 3713 1747 
Q 3713 922 3314 415 
Q 2916 -91 2278 -91 
Q 1894 -91 1617 61 
Q 1341 213 1159 525 
z
M 3116 1747 
Q 3116 2381 2855 2742 
Q 2594 3103 2138 3103 
Q 1681 3103 1420 2742 
Q 1159 2381 1159 1747 
Q 1159 1113 1420 752 
Q 1681 391 2138 391 
Q 2594 391 2855 752 
Q 3116 1113 3116 1747 
z
" transform="scale(0.015625)"/>
      </defs>
      <use xlink:href="#DejaVuSans-46"/>
      <use xlink:href="#DejaVuSans-72" x="50.269531"/>
      <use xlink:href="#DejaVuSans-61" x="91.382812"/>
      <use xlink:href="#DejaVuSans-63" x="152.662109"/>
      <use xlink:href="#DejaVuSans-74" x="207.642578"/>
      <use xlink:href="#DejaVuSans-69" x="246.851562"/>
      <use xlink:href="#DejaVuSans-6f" x="274.634766"/>
      <use xlink:href="#DejaVuSans-6e" x="335.816406"/>
      <use xlink:href="#DejaVuSans-20" x="399.195312"/>
      <use xlink:href="#DejaVuSans-6f" x="430.982422"/>
      <use xlink:href="#DejaVuSans-66" x="492.164062"/>
      <use xlink:href="#DejaVuSans-20" x="527.369141"/>
      <use xlink:href="#DejaVuSans-66" x="559.15625"/>
      <use xlink:href="#DejaVuSans-75" x="594.361328"/>
      <use xlink:href="#DejaVuSans-6e" x="657.740234"/>
      <use xlink:href="#DejaVuSans-63" x="721.119141"/>
      <use xlink:href="#DejaVuSans-74" x="776.099609"/>
      <use xlink:href="#DejaVuSans-69" x="815.308594"/>
      <use xlink:href="#DejaVuSans-6f" x="843.091797"/>
      <use xlink:href="#DejaVuSans-6e" x="904.273438"/>
      <use xlink:href="#DejaVuSans-2c" x="967.652344"/>
      <use xlink:href="#DejaVuSans-74" x="999.439453"/>
      <use xlink:href="#DejaVuSans-61" x="1038.648438"/>
      <use xlink:href="#DejaVuSans-72" x="1099.927734"/>
      <use xlink:href="#DejaVuSans-67" x="1139.291016"/>
      <use xlink:href="#DejaVuSans-65" x="1202.767578"/>
      <use xlink:href="#DejaVuSans-74" x="1264.291016"/>
      <use xlink:href="#DejaVuSans-20" x="1303.5"/>
      <use xlink:href="#DejaVuSans-70" x="1335.287109"/>
      <use xlink:href="#DejaVuSans-61" x="1398.763672"/>
      <use xlink:href="#DejaVuSans-69" x="1460.042969"/>
      <use xlink:href="#DejaVuSans-72" x="1487.826172"/>
      <use xlink:href="#DejaVuSans-73" x="1528.939453"/>
     </g>
    </g>
   </g>
   <g id="line2d_33">
    <defs>
     <path id="m701c070e3f" d="M 0 1.5 
C 0.397805 1.5 0.77937 1.341951 1.06066 1.06066 
C 1.341951 0.77937 1.5 0.397805 1.5 0 
C 1.5 -0.397805 1.341951 -0.77937 1.06066 -1.06066 
C 0.77937 -1.341951 0.397805 -1.5 0 -1.5 
C -0.397805 -1.5 -0.77937 -1.341951 -1.06066 -1.06066 
C -1.341951 -0.77937 -1.5 -0.397805 -1.5 0 
C -1.5 0.397805 -1.341951 0.77937 -1.06066 1.06066 
C -0.77937 1.341951 -0.397805 1.5 0 1.5 
z
" style="stroke: #f5deb3"/>
    </defs>
    <g>
     <use xlink:href="#m701c070e3f" x="193.485521" y="27.648" style="fill: #f5deb3; stroke: #f5deb3"/>
     <use xlink:href="#m701c070e3f" x="193.485521" y="27.648" style="fill: #f5deb3; stroke: #f5deb3"/>
    </g>
   </g>
   <g id="line2d_34">
    <defs>
     <path id="mc4ba22f471" d="M 0 1.5 
C 0.397805 1.5 0.77937 1.341951 1.06066 1.06066 
C 1.341951 0.77937 1.5 0.397805 1.5 0 
C 1.5 -0.397805 1.341951 -0.77937 1.06066 -1.06066 
C 0.77937 -1.341951 0.397805 -1.5 0 -1.5 
C -0.397805 -1.5 -0.77937 -1.341951 -1.06066 -1.06066 
C -1.341951 -0.77937 -1.5 -0.397805 -1.5 0 
C -1.5 0.397805 -1.341951 0.77937 -1.06066 1.06066 
C -0.77937 1.341951 -0.397805 1.5 0 1.5 
z
" style="stroke: #000080"/>
    </defs>
    <g>
     <use xlink:href="#mc4ba22f471" x="364.565462" y="27.648" style="fill: #000080; stroke: #000080"/>
     <use xlink:href="#mc4ba22f471" x="364.565462" y="27.648" style="fill: #000080; stroke: #000080"/>
    </g>
   </g>
   <g id="line2d_35">
    <path d="M 14.2848 298.944 
L 14.2848 293.624471 
L 57.6 293.624471 
L 57.6 293.269835 
L 87.1081 293.269835 
L 87.1081 292.9152 
L 90.668036 292.9152 
L 90.668036 292.560565 
L 91.922605 292.560565 
L 91.922605 292.205929 
L 93.098709 292.205929 
L 93.098709 291.851294 
L 94.995002 291.851294 
L 94.995002 291.496659 
L 107.109915 291.496659 
L 107.109915 291.142024 
L 119.807672 291.142024 
L 119.807672 290.787388 
L 121.768984 290.787388 
L 121.768984 290.432753 
L 123.317644 290.432753 
L 123.317644 290.078118 
L 129.417095 290.078118 
L 129.417095 289.723482 
L 131.040128 289.723482 
L 131.040128 289.368847 
L 131.341119 289.368847 
L 131.341119 289.014212 
L 131.600593 289.014212 
L 131.600593 288.659576 
L 131.747272 288.659576 
L 131.747272 288.304941 
L 132.287354 288.304941 
L 132.287354 287.950306 
L 132.949924 287.950306 
L 132.984158 287.241035 
L 133.390178 287.241035 
L 133.457005 286.177129 
L 133.523594 286.177129 
L 133.523594 285.822494 
L 134.240933 285.822494 
L 134.240933 285.467859 
L 134.808158 285.467859 
L 134.808158 285.113224 
L 134.993495 285.113224 
L 135.085483 283.694682 
L 135.116046 283.694682 
L 135.116046 282.276141 
L 135.717106 282.276141 
L 135.717106 281.921506 
L 135.864417 281.921506 
L 135.864417 281.566871 
L 136.299553 281.566871 
L 136.299553 281.212235 
L 136.499223 281.212235 
L 136.584151 280.502965 
L 136.892314 280.502965 
L 136.947806 279.793694 
L 137.168148 279.793694 
L 137.168148 279.439059 
L 137.493898 279.439059 
L 137.493898 279.084424 
L 137.972183 279.084424 
L 137.972183 278.729788 
L 138.258593 278.729788 
L 138.258593 278.375153 
L 138.868751 278.375153 
L 138.89375 277.665882 
L 139.264798 277.665882 
L 139.264798 277.311247 
L 139.386872 277.311247 
L 139.386872 276.956612 
L 139.724525 276.956612 
L 139.748412 276.247341 
L 139.867398 276.247341 
L 139.867398 275.538071 
L 142.559347 275.538071 
L 142.620923 274.8288 
L 144.380294 274.8288 
L 144.454795 273.055624 
L 147.565858 273.055624 
L 147.565858 272.700988 
L 148.063382 272.700988 
L 148.063382 272.346353 
L 148.68219 272.346353 
L 148.68219 271.991718 
L 148.888912 271.991718 
L 148.903591 271.282447 
L 149.064312 271.282447 
L 149.064312 270.927812 
L 149.847944 270.927812 
L 149.847944 270.218541 
L 150.234685 270.218541 
L 150.234685 269.509271 
L 150.38447 269.509271 
L 150.38447 269.154635 
L 150.747146 269.154635 
L 150.747146 268.8 
L 150.932483 268.8 
L 150.932483 268.445365 
L 152.303973 268.445365 
L 152.303973 267.736094 
L 153.224124 267.736094 
L 153.224124 267.381459 
L 153.593669 267.381459 
L 153.593669 267.026824 
L 153.775755 267.026824 
L 153.843585 266.317553 
L 154.399522 266.317553 
L 154.399522 265.962918 
L 156.570108 265.962918 
L 156.570108 265.608282 
L 156.8511 265.608282 
L 156.8511 265.253647 
L 157.222487 265.253647 
L 157.222487 264.899012 
L 157.475372 264.899012 
L 157.475372 264.544376 
L 157.880333 264.544376 
L 157.934885 263.835106 
L 161.55733 263.835106 
L 161.661881 262.7712 
L 161.839769 262.7712 
L 161.839769 262.416565 
L 162.499383 262.416565 
L 162.499383 262.061929 
L 165.519897 262.061929 
L 165.519897 261.707294 
L 166.512385 261.707294 
L 166.512385 261.352659 
L 166.961587 261.352659 
L 166.961587 260.998024 
L 167.558829 260.998024 
L 167.558829 260.643388 
L 168.503585 260.643388 
L 168.57076 259.934118 
L 168.647973 259.934118 
L 168.647973 259.579482 
L 172.511885 259.579482 
L 172.511885 259.224847 
L 172.958324 259.224847 
L 172.958324 258.870212 
L 177.917356 258.870212 
L 177.917356 258.515576 
L 179.170811 258.515576 
L 179.170811 258.160941 
L 179.493926 258.160941 
L 179.493926 257.806306 
L 180.892341 257.806306 
L 180.892341 257.451671 
L 186.734516 257.451671 
L 186.734516 257.097035 
L 195.696172 257.097035 
L 195.696172 256.7424 
L 230.811072 256.7424 
L 230.811072 256.387765 
L 231.469009 256.387765 
L 231.573443 255.678494 
L 231.709157 255.678494 
L 231.709157 255.323859 
L 232.121781 255.323859 
L 232.185532 254.259953 
L 233.064438 254.259953 
L 233.064438 253.905318 
L 233.37064 253.905318 
L 233.37064 253.550682 
L 233.716758 253.550682 
L 233.716758 253.196047 
L 234.162038 253.196047 
L 234.267336 252.486776 
L 234.625686 252.486776 
L 234.625686 252.132141 
L 235.184318 252.132141 
L 235.184318 251.777506 
L 235.489184 251.777506 
L 235.489184 251.422871 
L 236.338975 251.422871 
L 236.370862 250.7136 
L 236.527819 250.7136 
L 236.527819 250.358965 
L 236.697415 250.358965 
L 236.716992 249.295059 
L 237.303565 249.295059 
L 237.303565 248.940424 
L 237.659721 248.940424 
L 237.659721 248.585788 
L 237.931785 248.585788 
L 237.931785 248.231153 
L 238.266708 248.231153 
L 238.341302 247.521882 
L 238.799047 247.521882 
L 238.799047 247.167247 
L 239.041962 247.167247 
L 239.041962 246.812612 
L 239.823593 246.812612 
L 239.823593 246.457976 
L 240.472405 246.457976 
L 240.472405 246.103341 
L 240.733428 246.103341 
L 240.733428 245.748706 
L 241.804245 245.748706 
L 241.804245 245.394071 
L 242.122433 245.394071 
L 242.227379 244.6848 
L 242.625007 244.6848 
L 242.625007 244.330165 
L 242.834604 244.330165 
L 242.834604 243.975529 
L 243.274165 243.975529 
L 243.274165 243.620894 
L 244.858686 243.620894 
L 244.858686 243.266259 
L 246.022623 243.266259 
L 246.022623 242.911624 
L 247.194267 242.911624 
L 247.194267 242.556988 
L 248.092458 242.556988 
L 248.092458 242.202353 
L 249.023351 242.202353 
L 249.023351 241.847718 
L 250.503262 241.847718 
L 250.503262 241.493082 
L 250.792499 241.493082 
L 250.792499 241.138447 
L 251.140767 241.138447 
L 251.140767 240.783812 
L 252.534409 240.783812 
L 252.534409 240.429176 
L 274.195028 240.429176 
L 274.298216 234.755012 
L 276.034845 234.755012 
L 276.093292 233.691106 
L 276.211451 233.691106 
L 276.305403 231.917929 
L 276.344083 231.917929 
L 276.405706 230.499388 
L 276.560726 230.499388 
L 276.583349 228.726212 
L 276.69912 228.726212 
L 276.78604 226.5984 
L 276.845973 226.5984 
L 276.878296 225.534494 
L 277.076125 225.534494 
L 277.11364 224.825224 
L 277.320915 224.825224 
L 277.320915 224.470588 
L 277.432327 224.470588 
L 277.502885 223.406682 
L 277.768968 223.406682 
L 277.768968 222.697412 
L 277.976579 222.697412 
L 277.976579 221.633506 
L 278.196437 221.633506 
L 278.196437 221.278871 
L 278.562497 221.278871 
L 278.562497 220.5696 
L 278.880039 220.5696 
L 278.944416 218.087153 
L 279.022958 218.087153 
L 279.022958 217.732518 
L 287.224691 217.732518 
L 287.276382 214.5408 
L 288.167548 214.5408 
L 288.243994 213.122259 
L 288.304052 213.122259 
L 288.381228 211.349082 
L 288.445301 211.349082 
L 288.495365 209.930541 
L 288.597491 209.930541 
L 288.671943 208.512 
L 288.72107 208.512 
L 288.74128 207.802729 
L 288.862051 207.802729 
L 288.862051 207.093459 
L 289.09731 207.093459 
L 289.09731 206.738824 
L 289.750069 206.738824 
L 289.750069 206.029553 
L 294.852915 206.029553 
L 294.865551 203.901741 
L 295.501454 203.901741 
L 295.579513 201.419294 
L 295.615578 201.419294 
L 295.721785 198.936847 
L 295.749932 198.936847 
L 295.826206 197.163671 
L 295.873636 197.163671 
L 295.979469 195.390494 
L 296.018163 195.390494 
L 296.118045 194.681224 
L 296.421178 194.681224 
L 296.421178 193.971953 
L 296.569899 193.971953 
L 296.600713 192.908047 
L 300.752301 192.908047 
L 300.820242 190.070965 
L 300.873323 190.070965 
L 300.958201 186.524612 
L 301.077491 186.524612 
L 301.142835 183.687529 
L 301.218946 183.687529 
L 301.218946 182.978259 
L 301.450525 182.978259 
L 301.545142 182.268988 
L 301.564462 182.268988 
L 301.588095 181.559718 
L 304.465693 181.559718 
L 304.465693 181.205082 
L 304.850099 181.205082 
L 304.958773 178.368 
L 305.003809 178.368 
L 305.077401 175.530918 
L 305.124478 175.530918 
L 305.142356 174.821647 
L 305.276055 174.821647 
L 305.276055 174.112376 
L 305.414974 174.112376 
L 305.507314 173.048471 
L 305.52648 173.048471 
L 305.606617 172.3392 
L 308.215205 172.3392 
L 308.318259 168.083576 
L 308.326504 168.083576 
L 308.434521 162.764047 
L 308.458797 162.764047 
L 308.530306 161.345506 
L 308.57095 161.345506 
L 308.649494 160.2816 
L 308.752071 160.2816 
L 308.848791 159.217694 
L 311.081325 159.217694 
L 311.175816 155.316706 
L 311.282735 155.316706 
L 311.373843 154.607435 
L 311.411273 154.607435 
L 311.441534 153.188894 
L 311.529995 153.188894 
L 311.529995 152.834259 
L 313.543358 152.834259 
L 313.648741 149.642541 
L 313.668427 149.642541 
L 313.73275 147.514729 
L 313.845639 147.514729 
L 313.949989 146.096188 
L 314.023404 146.096188 
L 314.023404 145.741553 
L 315.731444 145.741553 
L 315.817748 142.549835 
L 315.84282 142.549835 
L 315.944032 141.131294 
L 315.971448 141.131294 
L 315.971448 140.776659 
L 316.093852 140.776659 
L 316.159372 139.003482 
L 317.701514 139.003482 
L 317.802178 135.102494 
L 317.824791 135.102494 
L 317.843398 133.683953 
L 317.978835 133.683953 
L 318.077352 132.974682 
L 319.466735 132.974682 
L 319.567051 129.073694 
L 319.594488 129.073694 
L 319.687271 127.655153 
L 319.727956 127.655153 
L 319.817747 125.881976 
L 321.088404 125.881976 
L 321.184056 119.498541 
L 321.211674 119.498541 
L 321.24801 117.370729 
L 322.60262 117.370729 
L 322.68962 113.115106 
L 322.728781 113.115106 
L 322.768356 112.0512 
L 322.847225 112.0512 
L 322.847225 111.696565 
L 323.964387 111.696565 
L 324.073006 106.731671 
L 324.138241 106.731671 
L 324.153631 106.0224 
L 325.122517 106.0224 
L 325.122517 105.667765 
L 325.261395 105.667765 
L 325.351564 99.284329 
L 325.483641 99.284329 
L 325.483641 98.929694 
L 326.46442 98.929694 
L 326.558784 94.319435 
L 326.578524 94.319435 
L 326.663794 92.191624 
L 327.591498 92.191624 
L 327.686003 89.354541 
L 327.820144 89.354541 
L 327.820144 88.645271 
L 328.681568 88.645271 
L 328.734438 85.098918 
L 328.807782 85.098918 
L 328.876272 84.389647 
L 329.680357 84.389647 
L 329.785841 82.261835 
L 329.811307 82.261835 
L 329.876245 81.552565 
L 330.635826 81.552565 
L 330.727291 78.360847 
L 330.775772 78.360847 
L 330.804796 77.651576 
L 331.554654 77.651576 
L 331.620695 75.8784 
L 331.704874 75.8784 
L 331.704874 75.523765 
L 332.420765 75.523765 
L 332.525956 70.913506 
L 332.546527 70.913506 
L 332.592006 69.494965 
L 333.262156 69.494965 
L 333.280851 67.721788 
L 333.398367 67.721788 
L 333.398367 67.367153 
L 334.060106 67.367153 
L 334.155013 64.530071 
L 334.189088 64.530071 
L 334.189088 64.175435 
L 334.808614 64.175435 
L 334.915181 62.047624 
L 335.556681 62.047624 
L 335.597052 60.629082 
L 335.677301 60.629082 
L 335.677301 60.274447 
L 336.26896 60.274447 
L 336.34914 58.501271 
L 336.944294 58.501271 
L 336.989464 57.082729 
L 337.056363 57.082729 
L 337.056363 56.728094 
L 337.60753 56.728094 
L 337.673995 55.309553 
L 338.228169 55.309553 
L 338.27872 53.536376 
L 338.847219 53.536376 
L 338.925686 51.7632 
L 339.441805 51.7632 
L 339.511428 49.990024 
L 340.018933 49.990024 
L 340.05418 47.507576 
L 340.615437 47.507576 
L 340.650092 46.798306 
L 341.126231 46.798306 
L 341.22696 45.025129 
L 341.647172 45.025129 
L 341.704184 42.542682 
L 342.157444 42.542682 
L 342.201072 41.833412 
L 342.662175 41.833412 
L 342.749574 40.769506 
L 343.149341 40.769506 
L 343.170797 39.350965 
L 343.632371 39.350965 
L 343.639138 38.641694 
L 344.091704 38.641694 
L 344.10195 37.577788 
L 344.567332 37.577788 
L 344.570891 36.868518 
L 344.988459 36.868518 
L 345.01251 35.804612 
L 345.442216 35.804612 
L 345.442216 35.449976 
L 345.878592 35.449976 
L 345.878592 35.095341 
L 346.261757 35.095341 
L 346.261757 34.740706 
L 346.716622 34.740706 
L 346.716622 34.386071 
L 347.04331 34.386071 
L 347.092452 32.967529 
L 348.256124 32.967529 
L 348.256124 32.612894 
L 348.549168 32.612894 
L 348.549168 32.258259 
L 348.907966 32.258259 
L 348.907966 31.903624 
L 349.268721 31.903624 
L 349.268721 31.548988 
L 349.953131 31.548988 
L 349.953131 31.194353 
L 350.278496 31.194353 
L 350.278496 30.839718 
L 351.549553 30.839718 
L 351.549553 30.485082 
L 352.15035 30.485082 
L 352.15035 30.130447 
L 353.023849 30.130447 
L 353.023849 29.775812 
L 353.314537 29.775812 
L 353.331793 29.066541 
L 354.918602 29.066541 
L 354.918602 28.711906 
L 357.597288 28.711906 
L 357.597288 28.357271 
L 360.265713 28.357271 
L 360.265713 28.002635 
L 360.8064 28.002635 
L 360.8064 28.002635 
" style="fill: none; stroke: #000080; stroke-width: 1.5; stroke-linecap: square"/>
   </g>
   <g id="line2d_36">
    <defs>
     <path id="m6a09e8f2c4" d="M 0 6 
C 1.591219 6 3.117479 5.367802 4.242641 4.242641 
C 5.367802 3.117479 6 1.591219 6 0 
C 6 -1.591219 5.367802 -3.117479 4.242641 -4.242641 
C 3.117479 -5.367802 1.591219 -6 0 -6 
C -1.591219 -6 -3.117479 -5.367802 -4.242641 -4.242641 
C -5.367802 -3.117479 -6 -1.591219 -6 0 
C -6 1.591219 -5.367802 3.117479 -4.242641 4.242641 
C -3.117479 5.367802 -1.591219 6 0 6 
z
" style="stroke: #000080; stroke-width: 1.5"/>
    </defs>
    <g>
     <use xlink:href="#m6a09e8f2c4" x="94.995002" y="291.851294" style="fill-opacity: 0; stroke: #000080; stroke-width: 1.5"/>
     <use xlink:href="#m6a09e8f2c4" x="186.734516" y="257.097035" style="fill-opacity: 0; stroke: #000080; stroke-width: 1.5"/>
     <use xlink:href="#m6a09e8f2c4" x="276.580998" y="229.435482" style="fill-opacity: 0; stroke: #000080; stroke-width: 1.5"/>
     <use xlink:href="#m6a09e8f2c4" x="318.077352" y="132.974682" style="fill-opacity: 0; stroke: #000080; stroke-width: 1.5"/>
     <use xlink:href="#m6a09e8f2c4" x="360.265713" y="28.002635" style="fill-opacity: 0; stroke: #000080; stroke-width: 1.5"/>
     <use xlink:href="#m6a09e8f2c4" x="360.8064" y="28.002635" style="fill-opacity: 0; stroke: #000080; stroke-width: 1.5"/>
    </g>
   </g>
   <g id="line2d_37">
    <path style="fill: none; stroke: #000080; stroke-width: 1.5; stroke-linecap: square"/>
    <g/>
   </g>
   <g id="line2d_38">
    <path d="M 274.176 240.429176 
" clip-path="url(#p9eceb73998)" style="fill: none; stroke: #000080; stroke-width: 1.5; stroke-linecap: square"/>
    <defs>
     <path id="m89b939e3d8" d="M -12 12 
L 12 -12 
M -12 -12 
L 12 12 
" style="stroke: #000080"/>
    </defs>
    <g clip-path="url(#p9eceb73998)">
     <use xlink:href="#m89b939e3d8" x="274.176" y="240.429176" style="fill: #000080; stroke: #000080"/>
    </g>
   </g>
   <g id="line2d_39">
    <defs>
     <path id="m263221bd69" d="M 0 1.5 
C 0.397805 1.5 0.77937 1.341951 1.06066 1.06066 
C 1.341951 0.77937 1.5 0.397805 1.5 0 
C 1.5 -0.397805 1.341951 -0.77937 1.06066 -1.06066 
C 0.77937 -1.341951 0.397805 -1.5 0 -1.5 
C -0.397805 -1.5 -0.77937 -1.341951 -1.06066 -1.06066 
C -1.341951 -0.77937 -1.5 -0.397805 -1.5 0 
C -1.5 0.397805 -1.341951 0.77937 -1.06066 1.06066 
C -0.77937 1.341951 -0.397805 1.5 0 1.5 
z
" style="stroke: #ff00ff"/>
    </defs>
    <g>
     <use xlink:href="#m263221bd69" x="308.044071" y="240.429176" style="fill: #ff00ff; stroke: #ff00ff"/>
     <use xlink:href="#m263221bd69" x="308.044071" y="240.429176" style="fill: #ff00ff; stroke: #ff00ff"/>
    </g>
   </g>
   <g id="line2d_40">
    <path d="M 14.2848 298.944 
L 14.2848 293.624471 
L 44.560826 293.624471 
L 44.560826 293.269835 
L 85.894031 293.269835 
L 85.894031 292.9152 
L 93.66029 292.9152 
L 93.66029 292.205929 
L 99.950294 292.205929 
L 99.950294 291.851294 
L 102.708132 291.851294 
L 102.708132 291.496659 
L 105.112877 291.496659 
L 105.112877 291.142024 
L 109.280431 291.142024 
L 109.280431 290.787388 
L 109.520071 290.787388 
L 109.520071 290.432753 
L 114.234452 290.432753 
L 114.234452 290.078118 
L 118.74459 290.078118 
L 118.74459 289.723482 
L 119.807672 289.723482 
L 119.807672 289.014212 
L 124.101572 289.014212 
L 124.101572 288.659576 
L 125.47606 288.659576 
L 125.47606 288.304941 
L 127.273627 288.304941 
L 127.273627 287.950306 
L 128.39771 287.950306 
L 128.39771 287.595671 
L 129.663538 287.595671 
L 129.663538 287.241035 
L 132.037244 287.241035 
L 132.037244 286.8864 
L 134.745971 286.8864 
L 134.745971 286.531765 
L 143.146307 286.531765 
L 143.146307 286.177129 
L 147.103321 286.177129 
L 147.103321 285.822494 
L 148.918259 285.822494 
L 148.918259 285.467859 
L 149.637443 285.467859 
L 149.637443 284.758588 
L 152.965784 284.758588 
L 152.965784 284.403953 
L 155.277126 284.403953 
L 155.277126 283.694682 
L 160.422971 283.694682 
L 160.422971 283.340047 
L 164.187772 283.340047 
L 164.187772 282.985412 
L 168.709515 282.985412 
L 168.709515 282.630776 
L 169.114734 282.630776 
L 169.114734 281.212235 
L 170.458643 281.212235 
L 170.458643 280.8576 
L 170.621233 280.8576 
L 170.621233 280.502965 
L 174.145567 280.502965 
L 174.145567 280.148329 
L 174.404568 280.148329 
L 174.404568 279.793694 
L 174.693607 279.793694 
L 174.779089 279.084424 
L 175.954182 279.084424 
L 175.954182 278.729788 
L 176.120657 278.729788 
L 176.120657 278.375153 
L 176.641673 278.375153 
L 176.641673 278.020518 
L 176.832146 278.020518 
L 176.832146 276.956612 
L 176.981169 276.956612 
L 177.076584 276.247341 
L 177.655049 276.247341 
L 177.655049 275.892706 
L 177.936177 275.892706 
L 177.936177 275.538071 
L 179.890875 275.538071 
L 179.890875 274.8288 
L 180.43125 274.8288 
L 180.43125 274.474165 
L 180.70114 274.474165 
L 180.70114 274.119529 
L 184.310478 274.119529 
L 184.310478 273.764894 
L 184.906394 273.764894 
L 184.906394 273.410259 
L 185.420934 273.410259 
L 185.420934 273.055624 
L 187.553123 273.055624 
L 187.553123 272.346353 
L 188.196379 272.346353 
L 188.196379 271.991718 
L 190.452399 271.991718 
L 190.452399 271.637082 
L 190.773617 271.637082 
L 190.773617 271.282447 
L 191.278582 271.282447 
L 191.278582 270.927812 
L 192.546084 270.927812 
L 192.546084 270.573176 
L 194.15789 270.573176 
L 194.15789 270.218541 
L 194.513219 270.218541 
L 194.513219 269.863906 
L 195.464223 269.863906 
L 195.464223 269.509271 
L 196.212281 269.509271 
L 196.212281 269.154635 
L 196.329399 269.154635 
L 196.329399 268.8 
L 197.355237 268.8 
L 197.355237 268.090729 
L 197.525328 268.090729 
L 197.525328 267.736094 
L 198.751636 267.736094 
L 198.751636 267.026824 
L 200.400462 267.026824 
L 200.400462 266.672188 
L 200.834247 266.672188 
L 200.834247 266.317553 
L 201.051116 266.317553 
L 201.051116 265.962918 
L 201.402897 265.962918 
L 201.402897 265.608282 
L 201.542861 265.608282 
L 201.542861 265.253647 
L 201.848746 265.253647 
L 201.848746 264.899012 
L 202.260196 264.899012 
L 202.273958 263.480471 
L 202.641772 263.480471 
L 202.641772 262.7712 
L 203.291453 262.7712 
L 203.3175 262.061929 
L 204.8523 262.061929 
L 204.8523 261.707294 
L 204.999409 261.707294 
L 205.09808 260.643388 
L 205.126915 260.643388 
L 205.126915 260.288753 
L 205.489116 260.288753 
L 205.489116 259.934118 
L 205.600393 259.934118 
L 205.600393 259.579482 
L 205.751082 259.579482 
L 205.751082 259.224847 
L 205.935991 259.224847 
L 205.935991 258.870212 
L 206.159007 258.870212 
L 206.159007 258.160941 
L 207.129438 258.160941 
L 207.129438 257.806306 
L 207.365076 257.806306 
L 207.365076 257.451671 
L 207.552394 257.451671 
L 207.588079 256.7424 
L 208.298537 256.7424 
L 208.298537 256.387765 
L 208.43226 256.387765 
L 208.532394 255.323859 
L 208.688329 255.323859 
L 208.688329 254.969224 
L 208.822961 254.969224 
L 208.847226 253.905318 
L 209.413923 253.905318 
L 209.495512 253.196047 
L 210.038738 253.196047 
L 210.038738 252.841412 
L 212.028299 252.841412 
L 212.028299 252.486776 
L 212.503453 252.486776 
L 212.503453 252.132141 
L 213.924866 252.132141 
L 213.924866 251.777506 
L 215.118241 251.777506 
L 215.204052 251.068235 
L 215.921388 251.068235 
L 215.921388 250.7136 
L 216.132472 250.7136 
L 216.132472 250.358965 
L 217.863716 250.358965 
L 217.863716 250.004329 
L 218.555086 250.004329 
L 218.555086 249.649694 
L 218.840575 249.649694 
L 218.840575 249.295059 
L 219.006633 249.295059 
L 219.006633 248.940424 
L 219.586833 248.940424 
L 219.586833 248.585788 
L 274.645828 248.585788 
L 274.739278 247.521882 
L 274.973525 247.521882 
L 275.007554 246.103341 
L 275.143612 246.103341 
L 275.143612 245.748706 
L 287.504795 245.748706 
L 287.593639 245.039435 
L 287.618163 245.039435 
L 287.70949 243.975529 
L 295.112218 243.975529 
L 295.165802 242.911624 
L 300.465709 242.911624 
L 300.488556 242.202353 
L 304.621303 242.202353 
L 304.621303 241.493082 
L 308.038239 241.493082 
L 308.044071 240.429176 
L 360.8064 240.429176 
L 360.8064 240.429176 
" style="fill: none; stroke: #ff00ff; stroke-width: 1.5; stroke-linecap: square"/>
   </g>
   <g id="line2d_41">
    <defs>
     <path id="m45aa930d05" d="M 0 8.485281 
L 5.091169 0 
L 0 -8.485281 
L -5.091169 0 
z
" style="stroke: #ff00ff; stroke-width: 1.5; stroke-linejoin: miter"/>
    </defs>
    <g>
     <use xlink:href="#m45aa930d05" x="109.520071" y="290.432753" style="fill-opacity: 0; stroke: #ff00ff; stroke-width: 1.5; stroke-linejoin: miter"/>
     <use xlink:href="#m45aa930d05" x="191.278582" y="270.927812" style="fill-opacity: 0; stroke: #ff00ff; stroke-width: 1.5; stroke-linejoin: miter"/>
     <use xlink:href="#m45aa930d05" x="275.143612" y="246.103341" style="fill-opacity: 0; stroke: #ff00ff; stroke-width: 1.5; stroke-linejoin: miter"/>
     <use xlink:href="#m45aa930d05" x="308.044071" y="240.429176" style="fill-opacity: 0; stroke: #ff00ff; stroke-width: 1.5; stroke-linejoin: miter"/>
     <use xlink:href="#m45aa930d05" x="308.044071" y="240.429176" style="fill-opacity: 0; stroke: #ff00ff; stroke-width: 1.5; stroke-linejoin: miter"/>
     <use xlink:href="#m45aa930d05" x="360.8064" y="240.429176" style="fill-opacity: 0; stroke: #ff00ff; stroke-width: 1.5; stroke-linejoin: miter"/>
    </g>
   </g>
   <g id="line2d_42">
    <path style="fill: none; stroke: #ff00ff; stroke-width: 1.5; stroke-linecap: square"/>
    <g/>
   </g>
   <g id="line2d_43">
    <path d="M 274.176 248.585788 
" clip-path="url(#p9eceb73998)" style="fill: none; stroke: #ff00ff; stroke-width: 1.5; stroke-linecap: square"/>
    <defs>
     <path id="m9f9591b005" d="M -12 12 
L 12 -12 
M -12 -12 
L 12 12 
" style="stroke: #ff00ff"/>
    </defs>
    <g clip-path="url(#p9eceb73998)">
     <use xlink:href="#m9f9591b005" x="274.176" y="248.585788" style="fill: #ff00ff; stroke: #ff00ff"/>
    </g>
   </g>
   <g id="line2d_44">
    <defs>
     <path id="m798df708c9" d="M 0 1.5 
C 0.397805 1.5 0.77937 1.341951 1.06066 1.06066 
C 1.341951 0.77937 1.5 0.397805 1.5 0 
C 1.5 -0.397805 1.341951 -0.77937 1.06066 -1.06066 
C 0.77937 -1.341951 0.397805 -1.5 0 -1.5 
C -0.397805 -1.5 -0.77937 -1.341951 -1.06066 -1.06066 
C -1.341951 -0.77937 -1.5 -0.397805 -1.5 0 
C -1.5 0.397805 -1.341951 0.77937 -1.06066 1.06066 
C -0.77937 1.341951 -0.397805 1.5 0 1.5 
z
" style="stroke: #ff7500"/>
    </defs>
    <g>
     <use xlink:href="#m798df708c9" x="360.81126" y="27.648" style="fill: #ff7500; stroke: #ff7500"/>
     <use xlink:href="#m798df708c9" x="360.81126" y="27.648" style="fill: #ff7500; stroke: #ff7500"/>
    </g>
   </g>
   <g id="line2d_45">
    <path d="M 14.2848 298.944 
L 14.2848 293.624471 
L 74.068926 293.624471 
L 74.068926 293.269835 
L 85.471281 293.269835 
L 85.471281 292.9152 
L 88.248544 292.9152 
L 88.248544 292.560565 
L 94.735529 292.560565 
L 94.735529 292.205929 
L 96.480897 292.205929 
L 96.480897 291.851294 
L 97.410051 291.851294 
L 97.410051 291.142024 
L 97.635342 291.142024 
L 97.635342 290.787388 
L 99.14107 290.787388 
L 99.14107 290.432753 
L 100.342215 290.432753 
L 100.342215 288.659576 
L 100.535156 288.659576 
L 100.535156 288.304941 
L 102.362957 288.304941 
L 102.362957 287.950306 
L 104.501065 287.950306 
L 104.501065 287.595671 
L 105.26277 287.595671 
L 105.26277 287.241035 
L 105.559021 287.241035 
L 105.559021 286.8864 
L 107.378656 286.8864 
L 107.378656 286.531765 
L 110.335561 286.531765 
L 110.335561 286.177129 
L 110.449226 286.177129 
L 110.449226 285.467859 
L 110.674517 285.467859 
L 110.674517 285.113224 
L 110.897141 285.113224 
L 110.897141 284.758588 
L 114.048198 284.758588 
L 114.141556 284.049318 
L 114.872193 284.049318 
L 114.872193 283.694682 
L 115.139028 283.694682 
L 115.227139 282.630776 
L 115.747307 282.630776 
L 115.747307 281.921506 
L 116.583514 281.921506 
L 116.583514 281.566871 
L 118.301945 281.566871 
L 118.301945 281.212235 
L 119.034004 281.212235 
L 119.034004 280.8576 
L 119.738639 280.8576 
L 119.738639 280.148329 
L 120.41783 280.148329 
L 120.41783 279.793694 
L 121.137664 279.793694 
L 121.137664 279.439059 
L 123.769595 279.439059 
L 123.769595 279.084424 
L 123.991562 279.084424 
L 123.991562 278.729788 
L 124.481616 278.729788 
L 124.481616 278.375153 
L 124.959227 278.375153 
L 124.959227 277.665882 
L 125.167667 277.665882 
L 125.167667 277.311247 
L 125.373824 277.311247 
L 125.425011 276.601976 
L 126.127391 276.601976 
L 126.127391 275.892706 
L 126.804487 275.892706 
L 126.804487 275.538071 
L 127.227236 275.538071 
L 127.319904 274.8288 
L 129.622688 274.8288 
L 129.622688 274.474165 
L 130.067235 274.474165 
L 130.067235 273.764894 
L 131.526822 273.764894 
L 131.526822 273.410259 
L 132.109044 273.410259 
L 132.216233 272.346353 
L 132.322814 272.346353 
L 132.322814 271.991718 
L 135.478982 271.991718 
L 135.478982 271.637082 
L 136.242113 271.637082 
L 136.242113 270.927812 
L 136.612375 270.927812 
L 136.612375 270.573176 
L 136.892314 270.573176 
L 136.892314 270.218541 
L 137.840541 270.218541 
L 137.840541 269.863906 
L 138.154948 269.863906 
L 138.154948 269.509271 
L 139.962047 269.509271 
L 139.985636 268.8 
L 142.41488 268.8 
L 142.41488 268.445365 
L 145.868787 268.445365 
L 145.868787 268.090729 
L 146.744684 268.090729 
L 146.744684 267.736094 
L 147.1517 267.736094 
L 147.1517 267.381459 
L 147.391749 267.381459 
L 147.391749 267.026824 
L 147.831805 267.026824 
L 147.831805 266.672188 
L 149.006027 266.672188 
L 149.006027 266.317553 
L 149.194798 266.317553 
L 149.194798 265.962918 
L 150.193627 265.962918 
L 150.193627 265.608282 
L 151.050671 265.608282 
L 151.050671 265.253647 
L 151.50336 265.253647 
L 151.50336 264.899012 
L 151.895414 264.899012 
L 151.895414 264.189741 
L 153.340389 264.189741 
L 153.340389 263.835106 
L 154.584859 263.835106 
L 154.584859 263.480471 
L 155.813163 263.480471 
L 155.813163 263.125835 
L 157.194177 263.125835 
L 157.194177 262.7712 
L 158.187393 262.7712 
L 158.187393 262.416565 
L 160.053475 262.416565 
L 160.053475 262.061929 
L 160.494422 262.061929 
L 160.494422 261.707294 
L 163.22595 261.707294 
L 163.22595 261.352659 
L 163.477818 261.352659 
L 163.477818 260.998024 
L 165.009535 260.998024 
L 165.009535 260.643388 
L 167.580589 260.643388 
L 167.580589 260.288753 
L 168.852337 260.288753 
L 168.852337 259.934118 
L 171.73036 259.934118 
L 171.73036 259.579482 
L 175.055166 259.579482 
L 175.055166 259.224847 
L 177.778757 259.224847 
L 177.778757 258.870212 
L 178.308695 258.870212 
L 178.308695 258.515576 
L 180.584391 258.515576 
L 180.584391 258.160941 
L 187.251738 258.160941 
L 187.251738 257.806306 
L 188.99684 257.806306 
L 188.99684 257.451671 
L 192.738333 257.451671 
L 192.738333 257.097035 
L 196.355327 257.097035 
L 196.355327 256.7424 
L 198.013627 256.7424 
L 198.013627 256.387765 
L 199.523584 256.387765 
L 199.523584 256.033129 
L 204.476738 256.033129 
L 204.476738 255.678494 
L 205.401948 255.678494 
L 205.401948 255.323859 
L 206.880044 255.323859 
L 206.880044 254.969224 
L 209.459164 254.969224 
L 209.459164 254.614588 
L 212.907391 254.614588 
L 212.907391 254.259953 
L 215.990768 254.259953 
L 215.990768 253.905318 
L 218.762005 253.905318 
L 218.762005 253.550682 
L 219.453459 253.550682 
L 219.453459 253.196047 
L 221.008082 253.196047 
L 221.008082 252.841412 
L 221.333966 252.841412 
L 221.333966 252.486776 
L 223.770598 252.486776 
L 223.770598 252.132141 
L 225.802382 252.132141 
L 225.802382 251.777506 
L 227.675657 251.777506 
L 227.675657 251.422871 
L 230.569804 251.422871 
L 230.569804 251.068235 
L 231.53791 251.068235 
L 231.53791 250.7136 
L 232.389377 250.7136 
L 232.389377 250.358965 
L 233.29096 250.358965 
L 233.29096 250.004329 
L 234.82665 250.004329 
L 234.82665 249.649694 
L 235.580596 249.649694 
L 235.580596 249.295059 
L 236.001218 249.295059 
L 236.103994 248.585788 
L 237.964051 248.585788 
L 237.964051 248.231153 
L 238.686457 248.231153 
L 238.686457 247.876518 
L 239.167818 247.876518 
L 239.167818 247.521882 
L 240.885737 247.521882 
L 240.885737 247.167247 
L 242.062585 247.167247 
L 242.062585 246.812612 
L 243.460715 246.812612 
L 243.460715 246.457976 
L 244.636782 246.457976 
L 244.636782 246.103341 
L 274.182414 246.103341 
L 274.287597 238.656 
L 274.305485 238.656 
L 274.378113 237.237459 
L 274.422298 237.237459 
L 274.528276 236.173553 
L 274.633109 236.173553 
L 274.694551 234.400376 
L 274.886741 234.400376 
L 274.886741 234.045741 
L 275.010559 234.045741 
L 275.010559 233.336471 
L 275.139681 233.336471 
L 275.139681 232.6272 
L 275.276813 232.6272 
L 275.276813 232.272565 
L 275.4241 232.272565 
L 275.4241 231.563294 
L 275.561331 231.563294 
L 275.561331 230.854024 
L 275.700657 230.854024 
L 275.700657 230.499388 
L 275.942663 230.499388 
L 276.031505 229.790118 
L 276.203295 229.790118 
L 276.203295 228.726212 
L 276.498794 228.726212 
L 276.498794 228.371576 
L 276.737591 228.371576 
L 276.831114 227.307671 
L 276.895186 227.307671 
L 276.895186 226.953035 
L 277.135738 226.953035 
L 277.135738 225.889129 
L 277.311714 225.889129 
L 277.311714 225.534494 
L 277.53325 225.534494 
L 277.53325 225.179859 
L 277.730574 225.179859 
L 277.730574 224.825224 
L 287.218382 224.825224 
L 287.316502 215.250071 
L 287.338727 215.250071 
L 287.445117 212.767624 
L 287.456635 212.767624 
L 287.514295 210.994447 
L 287.637082 210.994447 
L 287.637082 210.639812 
L 287.764179 210.639812 
L 287.849573 209.575906 
L 287.992945 209.575906 
L 287.992945 208.866635 
L 288.119238 208.866635 
L 288.165795 208.157365 
L 288.256119 208.157365 
L 288.34206 207.448094 
L 288.386735 207.448094 
L 288.386735 206.738824 
L 288.539538 206.738824 
L 288.589536 204.611012 
L 288.848293 204.611012 
L 288.848293 204.256376 
L 288.968595 204.256376 
L 288.968595 203.547106 
L 294.846703 203.547106 
L 294.925061 196.4544 
L 295.042544 196.4544 
L 295.124923 195.035859 
L 295.169346 195.035859 
L 295.267903 193.971953 
L 295.315806 193.971953 
L 295.315806 193.262682 
L 295.450113 193.262682 
L 295.510728 191.134871 
L 295.601309 191.134871 
L 295.653483 189.361694 
L 295.769908 189.361694 
L 295.793346 188.297788 
L 295.946946 188.297788 
L 295.946946 187.943153 
L 296.103578 187.943153 
L 296.103578 187.588518 
L 300.261416 187.588518 
L 300.336212 182.268988 
L 300.375467 182.268988 
L 300.404504 181.205082 
L 300.499937 181.205082 
L 300.610363 179.077271 
L 300.735663 179.077271 
L 300.826228 178.013365 
L 300.849248 178.013365 
L 300.928183 176.240188 
L 301.088625 176.240188 
L 301.151482 175.530918 
L 304.457563 175.530918 
L 304.54434 170.211388 
L 304.596338 170.211388 
L 304.677402 167.019671 
L 304.818881 167.019671 
L 304.92944 164.537224 
L 304.940097 164.537224 
L 305.013876 162.764047 
L 307.885439 162.764047 
L 307.982013 159.572329 
L 308.045858 159.572329 
L 308.119867 157.444518 
L 308.204018 157.444518 
L 308.291586 154.2528 
L 308.363154 154.2528 
L 308.363154 153.543529 
L 308.484594 153.543529 
L 308.484594 153.188894 
L 310.783735 153.188894 
L 310.85655 148.578635 
L 311.007111 148.578635 
L 311.07084 147.160094 
L 311.123833 147.160094 
L 311.234004 145.032282 
L 311.33239 145.032282 
L 311.33239 144.323012 
L 313.300619 144.323012 
L 313.383849 138.294212 
L 313.416718 138.294212 
L 313.523645 135.811765 
L 313.581636 135.811765 
L 313.581636 135.457129 
L 313.715286 135.457129 
L 313.715286 135.102494 
L 315.514942 135.102494 
L 315.62284 131.910776 
L 315.634747 131.910776 
L 315.713896 130.492235 
L 315.823414 130.492235 
L 315.823414 130.1376 
L 315.938991 130.1376 
L 315.938991 129.782965 
L 317.494947 129.782965 
L 317.604226 126.591247 
L 317.619803 126.591247 
L 317.704048 124.818071 
L 317.738155 124.818071 
L 317.809028 123.044894 
L 317.878446 123.044894 
L 317.878446 122.690259 
L 319.289293 122.690259 
L 319.385151 118.08 
L 319.414373 118.08 
L 319.507554 116.661459 
L 319.548228 116.661459 
L 319.548228 116.306824 
L 320.937877 116.306824 
L 321.013572 115.242918 
L 321.052834 115.242918 
L 321.157098 112.760471 
L 321.18618 112.760471 
L 321.244208 110.987294 
L 322.429188 110.987294 
L 322.536941 106.731671 
L 322.582981 106.731671 
L 322.671637 105.667765 
L 323.838465 105.667765 
L 323.912714 103.539953 
L 323.965946 103.539953 
L 324.062929 101.412141 
L 324.081484 101.412141 
L 324.081484 101.057506 
L 325.124038 101.057506 
L 325.204461 96.801882 
L 325.254165 96.801882 
L 325.28273 95.737976 
L 325.377676 95.737976 
L 325.377676 95.383341 
L 326.334071 95.383341 
L 326.403418 92.191624 
L 326.448111 92.191624 
L 326.544761 90.773082 
L 326.575659 90.773082 
L 326.575659 90.418447 
L 327.494047 90.418447 
L 327.598637 88.290635 
L 327.614819 88.290635 
L 327.644449 87.226729 
L 328.552888 87.226729 
L 328.595728 85.808188 
L 328.676975 85.808188 
L 328.725613 84.389647 
L 329.568456 84.389647 
L 329.667826 81.9072 
L 329.695141 81.9072 
L 329.718817 80.843294 
L 330.539632 80.843294 
L 330.637099 77.296941 
L 330.672418 77.296941 
L 330.713256 76.587671 
L 331.463814 76.587671 
L 331.562967 74.814494 
L 331.609982 74.814494 
L 331.622407 74.105224 
L 332.326472 74.105224 
L 332.432879 71.622776 
L 332.447631 71.622776 
L 332.477771 70.204235 
L 333.162343 70.204235 
L 333.266698 67.367153 
L 333.979396 67.367153 
L 334.006493 65.239341 
L 334.730322 65.239341 
L 334.730836 64.530071 
L 334.874499 64.530071 
L 334.874499 64.175435 
L 335.473667 64.175435 
L 335.578039 62.402259 
L 335.60669 62.402259 
L 335.60669 62.047624 
L 336.180619 62.047624 
L 336.251227 60.629082 
L 336.863398 60.629082 
L 336.929457 58.146635 
L 337.53042 58.146635 
L 337.637358 56.728094 
L 338.163975 56.728094 
L 338.238218 55.309553 
L 338.777754 55.309553 
L 338.854213 53.181741 
L 339.375932 53.181741 
L 339.444315 51.053929 
L 339.952845 51.053929 
L 339.981795 49.635388 
L 340.513985 49.635388 
L 340.620108 48.926118 
L 341.086902 48.926118 
L 341.123861 47.152941 
L 341.589362 47.152941 
L 341.695925 45.025129 
L 342.117176 45.025129 
L 342.208421 43.251953 
L 342.608061 43.251953 
L 342.660889 41.478776 
L 343.156567 41.478776 
L 343.193338 40.769506 
L 343.572797 40.769506 
L 343.572797 40.414871 
L 344.059059 40.414871 
L 344.059059 40.060235 
L 344.4893 40.060235 
L 344.574676 39.350965 
L 344.94077 39.350965 
L 344.94077 38.996329 
L 345.364326 38.996329 
L 345.439872 37.577788 
L 345.789746 37.577788 
L 345.84039 36.868518 
L 346.205219 36.868518 
L 346.214428 36.159247 
L 346.614436 36.159247 
L 346.614436 35.804612 
L 347.396622 35.804612 
L 347.396622 35.449976 
L 347.807989 35.449976 
L 347.807989 35.095341 
L 348.559787 35.095341 
L 348.559787 34.740706 
L 349.216187 34.740706 
L 349.282924 33.6768 
L 349.589011 33.6768 
L 349.622096 32.612894 
L 349.900128 32.612894 
L 349.900128 32.258259 
L 350.562429 32.258259 
L 350.562429 31.903624 
L 351.555817 31.903624 
L 351.555817 31.548988 
L 351.876805 31.548988 
L 351.876805 31.194353 
L 352.746525 31.194353 
L 352.746525 30.839718 
L 354.364769 30.839718 
L 354.403747 30.130447 
L 354.631667 30.130447 
L 354.640457 29.421176 
L 354.888739 29.421176 
L 354.888739 29.066541 
L 355.927679 29.066541 
L 355.927679 28.711906 
L 356.133349 28.711906 
L 356.133349 28.357271 
L 356.408159 28.357271 
L 356.408159 28.002635 
L 360.8064 28.002635 
L 360.8064 28.002635 
" style="fill: none; stroke: #ff7500; stroke-width: 1.5; stroke-linecap: square"/>
   </g>
   <g id="line2d_46">
    <defs>
     <path id="m5c0481fd2c" d="M 0 -6 
L -1.347084 -1.854102 
L -5.706339 -1.854102 
L -2.179628 0.708204 
L -3.526712 4.854102 
L -0 2.291796 
L 3.526712 4.854102 
L 2.179628 0.708204 
L 5.706339 -1.854102 
L 1.347084 -1.854102 
z
" style="stroke: #ff7500; stroke-width: 1.5; stroke-linejoin: bevel"/>
    </defs>
    <g>
     <use xlink:href="#m5c0481fd2c" x="102.362957" y="288.304941" style="fill-opacity: 0; stroke: #ff7500; stroke-width: 1.5; stroke-linejoin: bevel"/>
     <use xlink:href="#m5c0481fd2c" x="180.584391" y="258.515576" style="fill-opacity: 0; stroke: #ff7500; stroke-width: 1.5; stroke-linejoin: bevel"/>
     <use xlink:href="#m5c0481fd2c" x="277.730574" y="225.179859" style="fill-opacity: 0; stroke: #ff7500; stroke-width: 1.5; stroke-linejoin: bevel"/>
     <use xlink:href="#m5c0481fd2c" x="315.713896" y="130.492235" style="fill-opacity: 0; stroke: #ff7500; stroke-width: 1.5; stroke-linejoin: bevel"/>
     <use xlink:href="#m5c0481fd2c" x="356.408159" y="28.002635" style="fill-opacity: 0; stroke: #ff7500; stroke-width: 1.5; stroke-linejoin: bevel"/>
     <use xlink:href="#m5c0481fd2c" x="360.8064" y="28.002635" style="fill-opacity: 0; stroke: #ff7500; stroke-width: 1.5; stroke-linejoin: bevel"/>
    </g>
   </g>
   <g id="line2d_47">
    <path style="fill: none; stroke: #ff7500; stroke-width: 1.5; stroke-linecap: square"/>
    <g/>
   </g>
   <g id="line2d_48">
    <path d="M 274.176 246.103341 
" clip-path="url(#p9eceb73998)" style="fill: none; stroke: #ff7500; stroke-width: 1.5; stroke-linecap: square"/>
    <defs>
     <path id="m6275fe0fd6" d="M -12 12 
L 12 -12 
M -12 -12 
L 12 12 
" style="stroke: #ff7500"/>
    </defs>
    <g clip-path="url(#p9eceb73998)">
     <use xlink:href="#m6275fe0fd6" x="274.176" y="246.103341" style="fill: #ff7500; stroke: #ff7500"/>
    </g>
   </g>
   <g id="line2d_49">
    <path d="M 360.8064 240.429176 
L 380.514816 293.51808 
" style="fill: none; stroke: #ff00ff; stroke-width: 1.5; stroke-linecap: square"/>
    <g>
     <use xlink:href="#m45aa930d05" x="360.8064" y="240.429176" style="fill-opacity: 0; stroke: #ff00ff; stroke-width: 1.5; stroke-linejoin: miter"/>
     <use xlink:href="#m45aa930d05" x="380.514816" y="293.51808" style="fill-opacity: 0; stroke: #ff00ff; stroke-width: 1.5; stroke-linejoin: miter"/>
    </g>
   </g>
   <g id="line2d_50">
    <path d="M 360.8064 28.002635 
L 380.514816 206.70336 
" style="fill: none; stroke: #000080; stroke-width: 1.5; stroke-linecap: square"/>
    <g>
     <use xlink:href="#m6a09e8f2c4" x="360.8064" y="28.002635" style="fill-opacity: 0; stroke: #000080; stroke-width: 1.5"/>
     <use xlink:href="#m6a09e8f2c4" x="380.514816" y="206.70336" style="fill-opacity: 0; stroke: #000080; stroke-width: 1.5"/>
    </g>
   </g>
   <g id="line2d_51">
    <path d="M 360.8064 28.002635 
L 380.514816 119.88864 
" style="fill: none; stroke: #ff7500; stroke-width: 1.5; stroke-linecap: square"/>
    <g>
     <use xlink:href="#m5c0481fd2c" x="360.8064" y="28.002635" style="fill-opacity: 0; stroke: #ff7500; stroke-width: 1.5; stroke-linejoin: bevel"/>
     <use xlink:href="#m5c0481fd2c" x="380.514816" y="119.88864" style="fill-opacity: 0; stroke: #ff7500; stroke-width: 1.5; stroke-linejoin: bevel"/>
    </g>
   </g>
   <g id="line2d_52">
    <path d="M 360.8064 298.944 
L 360.8064 27.648 
" style="fill: none; stroke: #000000; stroke-width: 1.5; stroke-linecap: square"/>
   </g>
   <g id="patch_3">
    <path d="M 57.6 298.944 
L 360.8064 298.944 
" style="fill: none; stroke: #000000; stroke-width: 0.8; stroke-linejoin: miter; stroke-linecap: square"/>
   </g>
   <g id="patch_4">
    <path d="M 57.6 27.648 
L 360.8064 27.648 
" style="fill: none; stroke: #000000; stroke-width: 0.8; stroke-linejoin: miter; stroke-linecap: square"/>
   </g>
   <g id="text_13">
    <!-- GA -->
    <g transform="translate(386.578944 297.381205)scale(0.14 -0.14)">
     <defs>
      <path id="DejaVuSans-47" d="M 3809 666 
L 3809 1919 
L 2778 1919 
L 2778 2438 
L 4434 2438 
L 4434 434 
Q 4069 175 3628 42 
Q 3188 -91 2688 -91 
Q 1594 -91 976 548 
Q 359 1188 359 2328 
Q 359 3472 976 4111 
Q 1594 4750 2688 4750 
Q 3144 4750 3555 4637 
Q 3966 4525 4313 4306 
L 4313 3634 
Q 3963 3931 3569 4081 
Q 3175 4231 2741 4231 
Q 1884 4231 1454 3753 
Q 1025 3275 1025 2328 
Q 1025 1384 1454 906 
Q 1884 428 2741 428 
Q 3075 428 3337 486 
Q 3600 544 3809 666 
z
" transform="scale(0.015625)"/>
      <path id="DejaVuSans-41" d="M 2188 4044 
L 1331 1722 
L 3047 1722 
L 2188 4044 
z
M 1831 4666 
L 2547 4666 
L 4325 0 
L 3669 0 
L 3244 1197 
L 1141 1197 
L 716 0 
L 50 0 
L 1831 4666 
z
" transform="scale(0.015625)"/>
     </defs>
     <use xlink:href="#DejaVuSans-47"/>
     <use xlink:href="#DejaVuSans-41" x="77.490234"/>
    </g>
   </g>
   <g id="text_14">
    <!-- LCGA -->
    <g transform="translate(386.578944 210.566485)scale(0.14 -0.14)">
     <defs>
      <path id="DejaVuSans-4c" d="M 628 4666 
L 1259 4666 
L 1259 531 
L 3531 531 
L 3531 0 
L 628 0 
L 628 4666 
z
" transform="scale(0.015625)"/>
      <path id="DejaVuSans-43" d="M 4122 4306 
L 4122 3641 
Q 3803 3938 3442 4084 
Q 3081 4231 2675 4231 
Q 1875 4231 1450 3742 
Q 1025 3253 1025 2328 
Q 1025 1406 1450 917 
Q 1875 428 2675 428 
Q 3081 428 3442 575 
Q 3803 722 4122 1019 
L 4122 359 
Q 3791 134 3420 21 
Q 3050 -91 2638 -91 
Q 1578 -91 968 557 
Q 359 1206 359 2328 
Q 359 3453 968 4101 
Q 1578 4750 2638 4750 
Q 3056 4750 3426 4639 
Q 3797 4528 4122 4306 
z
" transform="scale(0.015625)"/>
     </defs>
     <use xlink:href="#DejaVuSans-4c"/>
     <use xlink:href="#DejaVuSans-43" x="55.712891"/>
     <use xlink:href="#DejaVuSans-47" x="125.537109"/>
     <use xlink:href="#DejaVuSans-41" x="203.027344"/>
    </g>
   </g>
   <g id="text_15">
    <!-- PSO -->
    <g transform="translate(386.578944 123.751765)scale(0.14 -0.14)">
     <defs>
      <path id="DejaVuSans-50" d="M 1259 4147 
L 1259 2394 
L 2053 2394 
Q 2494 2394 2734 2622 
Q 2975 2850 2975 3272 
Q 2975 3691 2734 3919 
Q 2494 4147 2053 4147 
L 1259 4147 
z
M 628 4666 
L 2053 4666 
Q 2838 4666 3239 4311 
Q 3641 3956 3641 3272 
Q 3641 2581 3239 2228 
Q 2838 1875 2053 1875 
L 1259 1875 
L 1259 0 
L 628 0 
L 628 4666 
z
" transform="scale(0.015625)"/>
      <path id="DejaVuSans-53" d="M 3425 4513 
L 3425 3897 
Q 3066 4069 2747 4153 
Q 2428 4238 2131 4238 
Q 1616 4238 1336 4038 
Q 1056 3838 1056 3469 
Q 1056 3159 1242 3001 
Q 1428 2844 1947 2747 
L 2328 2669 
Q 3034 2534 3370 2195 
Q 3706 1856 3706 1288 
Q 3706 609 3251 259 
Q 2797 -91 1919 -91 
Q 1588 -91 1214 -16 
Q 841 59 441 206 
L 441 856 
Q 825 641 1194 531 
Q 1563 422 1919 422 
Q 2459 422 2753 634 
Q 3047 847 3047 1241 
Q 3047 1584 2836 1778 
Q 2625 1972 2144 2069 
L 1759 2144 
Q 1053 2284 737 2584 
Q 422 2884 422 3419 
Q 422 4038 858 4394 
Q 1294 4750 2059 4750 
Q 2388 4750 2728 4690 
Q 3069 4631 3425 4513 
z
" transform="scale(0.015625)"/>
      <path id="DejaVuSans-4f" d="M 2522 4238 
Q 1834 4238 1429 3725 
Q 1025 3213 1025 2328 
Q 1025 1447 1429 934 
Q 1834 422 2522 422 
Q 3209 422 3611 934 
Q 4013 1447 4013 2328 
Q 4013 3213 3611 3725 
Q 3209 4238 2522 4238 
z
M 2522 4750 
Q 3503 4750 4090 4092 
Q 4678 3434 4678 2328 
Q 4678 1225 4090 567 
Q 3503 -91 2522 -91 
Q 1538 -91 948 565 
Q 359 1222 359 2328 
Q 359 3434 948 4092 
Q 1538 4750 2522 4750 
z
" transform="scale(0.015625)"/>
     </defs>
     <use xlink:href="#DejaVuSans-50"/>
     <use xlink:href="#DejaVuSans-53" x="60.302734"/>
     <use xlink:href="#DejaVuSans-4f" x="123.779297"/>
    </g>
   </g>
   <g id="text_16">
    <!-- best 2009 -->
    <g transform="translate(386.578944 36.937045)scale(0.14 -0.14)">
     <defs>
      <path id="DejaVuSans-62" d="M 3116 1747 
Q 3116 2381 2855 2742 
Q 2594 3103 2138 3103 
Q 1681 3103 1420 2742 
Q 1159 2381 1159 1747 
Q 1159 1113 1420 752 
Q 1681 391 2138 391 
Q 2594 391 2855 752 
Q 3116 1113 3116 1747 
z
M 1159 2969 
Q 1341 3281 1617 3432 
Q 1894 3584 2278 3584 
Q 2916 3584 3314 3078 
Q 3713 2572 3713 1747 
Q 3713 922 3314 415 
Q 2916 -91 2278 -91 
Q 1894 -91 1617 61 
Q 1341 213 1159 525 
L 1159 0 
L 581 0 
L 581 4863 
L 1159 4863 
L 1159 2969 
z
" transform="scale(0.015625)"/>
      <path id="DejaVuSans-39" d="M 703 97 
L 703 672 
Q 941 559 1184 500 
Q 1428 441 1663 441 
Q 2288 441 2617 861 
Q 2947 1281 2994 2138 
Q 2813 1869 2534 1725 
Q 2256 1581 1919 1581 
Q 1219 1581 811 2004 
Q 403 2428 403 3163 
Q 403 3881 828 4315 
Q 1253 4750 1959 4750 
Q 2769 4750 3195 4129 
Q 3622 3509 3622 2328 
Q 3622 1225 3098 567 
Q 2575 -91 1691 -91 
Q 1453 -91 1209 -44 
Q 966 3 703 97 
z
M 1959 2075 
Q 2384 2075 2632 2365 
Q 2881 2656 2881 3163 
Q 2881 3666 2632 3958 
Q 2384 4250 1959 4250 
Q 1534 4250 1286 3958 
Q 1038 3666 1038 3163 
Q 1038 2656 1286 2365 
Q 1534 2075 1959 2075 
z
" transform="scale(0.015625)"/>
     </defs>
     <use xlink:href="#DejaVuSans-62"/>
     <use xlink:href="#DejaVuSans-65" x="63.476562"/>
     <use xlink:href="#DejaVuSans-73" x="125"/>
     <use xlink:href="#DejaVuSans-74" x="177.099609"/>
     <use xlink:href="#DejaVuSans-20" x="216.308594"/>
     <use xlink:href="#DejaVuSans-32" x="248.095703"/>
     <use xlink:href="#DejaVuSans-30" x="311.71875"/>
     <use xlink:href="#DejaVuSans-30" x="375.341797"/>
     <use xlink:href="#DejaVuSans-39" x="438.964844"/>
    </g>
   </g>
   <g id="text_17">
    <!-- bbob f22, 10-D -->
    <g transform="translate(60.632064 38.111366)scale(0.102 -0.102)">
     <defs>
      <path id="DejaVuSans-44" d="M 1259 4147 
L 1259 519 
L 2022 519 
Q 2988 519 3436 956 
Q 3884 1394 3884 2338 
Q 3884 3275 3436 3711 
Q 2988 4147 2022 4147 
L 1259 4147 
z
M 628 4666 
L 1925 4666 
Q 3281 4666 3915 4102 
Q 4550 3538 4550 2338 
Q 4550 1131 3912 565 
Q 3275 0 1925 0 
L 628 0 
L 628 4666 
z
" transform="scale(0.015625)"/>
     </defs>
     <use xlink:href="#DejaVuSans-62"/>
     <use xlink:href="#DejaVuSans-62" x="63.476562"/>
     <use xlink:href="#DejaVuSans-6f" x="126.953125"/>
     <use xlink:href="#DejaVuSans-62" x="188.134766"/>
     <use xlink:href="#DejaVuSans-20" x="251.611328"/>
     <use xlink:href="#DejaVuSans-66" x="283.398438"/>
     <use xlink:href="#DejaVuSans-32" x="318.603516"/>
     <use xlink:href="#DejaVuSans-32" x="382.226562"/>
     <use xlink:href="#DejaVuSans-2c" x="445.849609"/>
     <use xlink:href="#DejaVuSans-20" x="477.636719"/>
     <use xlink:href="#DejaVuSans-31" x="509.423828"/>
     <use xlink:href="#DejaVuSans-30" x="573.046875"/>
     <use xlink:href="#DejaVuSans-2d" x="636.669922"/>
     <use xlink:href="#DejaVuSans-44" x="672.753906"/>
    </g>
    <!-- 51 targets: 100..1e-08 -->
    <g transform="translate(60.632064 49.533135)scale(0.102 -0.102)">
     <defs>
      <path id="DejaVuSans-35" d="M 691 4666 
L 3169 4666 
L 3169 4134 
L 1269 4134 
L 1269 2991 
Q 1406 3038 1543 3061 
Q 1681 3084 1819 3084 
Q 2600 3084 3056 2656 
Q 3513 2228 3513 1497 
Q 3513 744 3044 326 
Q 2575 -91 1722 -91 
Q 1428 -91 1123 -41 
Q 819 9 494 109 
L 494 744 
Q 775 591 1075 516 
Q 1375 441 1709 441 
Q 2250 441 2565 725 
Q 2881 1009 2881 1497 
Q 2881 1984 2565 2268 
Q 2250 2553 1709 2553 
Q 1456 2553 1204 2497 
Q 953 2441 691 2322 
L 691 4666 
z
" transform="scale(0.015625)"/>
      <path id="DejaVuSans-3a" d="M 750 794 
L 1409 794 
L 1409 0 
L 750 0 
L 750 794 
z
M 750 3309 
L 1409 3309 
L 1409 2516 
L 750 2516 
L 750 3309 
z
" transform="scale(0.015625)"/>
     </defs>
     <use xlink:href="#DejaVuSans-35"/>
     <use xlink:href="#DejaVuSans-31" x="63.623047"/>
     <use xlink:href="#DejaVuSans-20" x="127.246094"/>
     <use xlink:href="#DejaVuSans-74" x="159.033203"/>
     <use xlink:href="#DejaVuSans-61" x="198.242188"/>
     <use xlink:href="#DejaVuSans-72" x="259.521484"/>
     <use xlink:href="#DejaVuSans-67" x="298.884766"/>
     <use xlink:href="#DejaVuSans-65" x="362.361328"/>
     <use xlink:href="#DejaVuSans-74" x="423.884766"/>
     <use xlink:href="#DejaVuSans-73" x="463.09375"/>
     <use xlink:href="#DejaVuSans-3a" x="515.193359"/>
     <use xlink:href="#DejaVuSans-20" x="548.884766"/>
     <use xlink:href="#DejaVuSans-31" x="580.671875"/>
     <use xlink:href="#DejaVuSans-30" x="644.294922"/>
     <use xlink:href="#DejaVuSans-30" x="707.917969"/>
     <use xlink:href="#DejaVuSans-2e" x="771.541016"/>
     <use xlink:href="#DejaVuSans-2e" x="803.328125"/>
     <use xlink:href="#DejaVuSans-31" x="835.115234"/>
     <use xlink:href="#DejaVuSans-65" x="898.738281"/>
     <use xlink:href="#DejaVuSans-2d" x="960.261719"/>
     <use xlink:href="#DejaVuSans-30" x="996.345703"/>
     <use xlink:href="#DejaVuSans-38" x="1059.96875"/>
    </g>
    <!-- 15 instances -->
    <g transform="translate(60.632064 60.954904)scale(0.102 -0.102)">
     <use xlink:href="#DejaVuSans-31"/>
     <use xlink:href="#DejaVuSans-35" x="63.623047"/>
     <use xlink:href="#DejaVuSans-20" x="127.246094"/>
     <use xlink:href="#DejaVuSans-69" x="159.033203"/>
     <use xlink:href="#DejaVuSans-6e" x="186.816406"/>
     <use xlink:href="#DejaVuSans-73" x="250.195312"/>
     <use xlink:href="#DejaVuSans-74" x="302.294922"/>
     <use xlink:href="#DejaVuSans-61" x="341.503906"/>
     <use xlink:href="#DejaVuSans-6e" x="402.783203"/>
     <use xlink:href="#DejaVuSans-63" x="466.162109"/>
     <use xlink:href="#DejaVuSans-65" x="521.142578"/>
     <use xlink:href="#DejaVuSans-73" x="582.666016"/>
    </g>
   </g>
   <g id="text_18">
    <!-- v2.6 -->
    <g style="fill: #808080" transform="translate(198.292262 294.151352)scale(0.1 -0.1)">
     <use xlink:href="#DejaVuSans-76"/>
     <use xlink:href="#DejaVuSans-32" x="59.179688"/>
     <use xlink:href="#DejaVuSans-2e" x="122.802734"/>
     <use xlink:href="#DejaVuSans-36" x="154.589844"/>
    </g>
   </g>
   <g id="text_19">
    <!-- 22 Gallagher 21 peaks -->
    <g transform="translate(96.0782 21.648)scale(0.2 -0.2)">
     <defs>
      <path id="DejaVuSans-68" d="M 3513 2113 
L 3513 0 
L 2938 0 
L 2938 2094 
Q 2938 2591 2744 2837 
Q 2550 3084 2163 3084 
Q 1697 3084 1428 2787 
Q 1159 2491 1159 1978 
L 1159 0 
L 581 0 
L 581 4863 
L 1159 4863 
L 1159 2956 
Q 1366 3272 1645 3428 
Q 1925 3584 2291 3584 
Q 2894 3584 3203 3211 
Q 3513 2838 3513 2113 
z
" transform="scale(0.015625)"/>
      <path id="DejaVuSans-6b" d="M 581 4863 
L 1159 4863 
L 1159 1991 
L 2875 3500 
L 3609 3500 
L 1753 1863 
L 3688 0 
L 2938 0 
L 1159 1709 
L 1159 0 
L 581 0 
L 581 4863 
z
" transform="scale(0.015625)"/>
     </defs>
     <use xlink:href="#DejaVuSans-32"/>
     <use xlink:href="#DejaVuSans-32" x="63.623047"/>
     <use xlink:href="#DejaVuSans-20" x="127.246094"/>
     <use xlink:href="#DejaVuSans-47" x="159.033203"/>
     <use xlink:href="#DejaVuSans-61" x="236.523438"/>
     <use xlink:href="#DejaVuSans-6c" x="297.802734"/>
     <use xlink:href="#DejaVuSans-6c" x="325.585938"/>
     <use xlink:href="#DejaVuSans-61" x="353.369141"/>
     <use xlink:href="#DejaVuSans-67" x="414.648438"/>
     <use xlink:href="#DejaVuSans-68" x="478.125"/>
     <use xlink:href="#DejaVuSans-65" x="541.503906"/>
     <use xlink:href="#DejaVuSans-72" x="603.027344"/>
     <use xlink:href="#DejaVuSans-20" x="644.140625"/>
     <use xlink:href="#DejaVuSans-32" x="675.927734"/>
     <use xlink:href="#DejaVuSans-31" x="739.550781"/>
     <use xlink:href="#DejaVuSans-20" x="803.173828"/>
     <use xlink:href="#DejaVuSans-70" x="834.960938"/>
     <use xlink:href="#DejaVuSans-65" x="898.4375"/>
     <use xlink:href="#DejaVuSans-61" x="959.960938"/>
     <use xlink:href="#DejaVuSans-6b" x="1021.240234"/>
     <use xlink:href="#DejaVuSans-73" x="1079.150391"/>
    </g>
   </g>
  </g>
 </g>
 <defs>
  <clipPath id="p9eceb73998">
   <rect x="57.6" y="27.648" width="303.2064" height="271.296"/>
  </clipPath>
 </defs>
</svg>
