<?xml version="1.0" encoding="utf-8" standalone="no"?>
<!DOCTYPE svg PUBLIC "-//W3C//DTD SVG 1.1//EN"
  "http://www.w3.org/Graphics/SVG/1.1/DTD/svg11.dtd">
<svg xmlns:xlink="http://www.w3.org/1999/xlink" width="460.8pt" height="345.6pt" viewBox="0 0 460.8 345.6" xmlns="http://www.w3.org/2000/svg" version="1.1">
 <metadata>
  <rdf:RDF xmlns:dc="http://purl.org/dc/elements/1.1/" xmlns:cc="http://creativecommons.org/ns#" xmlns:rdf="http://www.w3.org/1999/02/22-rdf-syntax-ns#">
   <cc:Work>
    <dc:type rdf:resource="http://purl.org/dc/dcmitype/StillImage"/>
    <dc:date>2024-05-29T08:09:10.133061</dc:date>
    <dc:format>image/svg+xml</dc:format>
    <dc:creator>
     <cc:Agent>
      <dc:title>Matplotlib v3.5.1, https://matplotlib.org/</dc:title>
     </cc:Agent>
    </dc:creator>
   </cc:Work>
  </rdf:RDF>
 </metadata>
 <defs>
  <style type="text/css">*{stroke-linejoin: round; stroke-linecap: butt}</style>
 </defs>
 <g id="figure_1">
  <g id="patch_1">
   <path d="M 0 345.6 
L 460.8 345.6 
L 460.8 0 
L 0 0 
z
" style="fill: #ffffff"/>
  </g>
  <g id="axes_1">
   <g id="patch_2">
    <path d="M 57.6 298.944 
L 360.8064 298.944 
L 360.8064 27.648 
L 57.6 27.648 
z
" style="fill: #ffffff"/>
   </g>
   <g id="line2d_1">
    <path d="M 44.560826 298.944 
L 44.560826 272.346353 
L 57.6 272.346353 
L 57.6 267.026824 
L 65.227428 267.026824 
L 65.227428 261.707294 
L 74.836851 261.707294 
L 74.836851 256.387765 
L 83.678349 256.387765 
L 83.678349 251.068235 
L 108.542628 251.068235 
L 108.542628 245.748706 
L 118.524569 245.748706 
L 118.524569 240.429176 
L 124.481616 240.429176 
L 124.481616 235.109647 
L 132.109044 235.109647 
L 132.109044 229.790118 
L 133.490329 229.790118 
L 133.490329 224.470588 
L 137.38594 224.470588 
L 137.38594 219.151059 
L 141.610664 219.151059 
L 141.610664 213.831529 
L 143.066428 213.831529 
L 143.066428 203.192471 
L 143.946089 203.192471 
L 143.946089 197.872941 
L 146.612557 197.872941 
L 146.612557 192.553412 
L 150.289291 192.553412 
L 150.289291 187.233882 
L 150.559965 187.233882 
L 150.559965 176.594824 
L 151.220087 176.594824 
L 151.220087 160.636235 
L 151.41369 160.636235 
L 151.41369 155.316706 
L 151.795018 155.316706 
L 151.795018 144.677647 
L 152.230346 144.677647 
L 152.230346 139.358118 
L 152.291722 139.358118 
L 152.291722 134.038588 
L 153.071898 134.038588 
L 153.071898 128.719059 
L 153.130592 128.719059 
L 153.130592 123.399529 
L 153.189104 123.399529 
L 153.189104 118.08 
L 153.247435 118.08 
L 153.247435 112.760471 
L 153.305585 112.760471 
L 153.305585 102.121412 
L 153.363556 102.121412 
L 153.363556 91.482353 
L 153.421349 91.482353 
L 153.421349 80.843294 
L 153.478964 80.843294 
L 153.478964 75.523765 
L 153.536404 75.523765 
L 153.536404 70.204235 
L 153.593669 70.204235 
L 153.593669 59.565176 
L 153.650761 59.565176 
L 153.650761 54.245647 
L 153.707679 54.245647 
L 153.707679 48.926118 
L 153.764426 48.926118 
L 153.764426 32.967529 
L 153.933646 32.967529 
L 153.933646 27.648 
L 360.8064 27.648 
" style="fill: none; stroke: #f5deb3; stroke-width: 4; stroke-linecap: square"/>
   </g>
   <g id="line2d_2">
    <defs>
     <path id="me9babed4b6" d="M 0 7.778175 
L 7.778175 0 
L 0 -7.778175 
L -7.778175 0 
z
" style="stroke: #f5deb3; stroke-width: 1.5; stroke-linejoin: miter"/>
    </defs>
    <g>
     <use xlink:href="#me9babed4b6" x="65.227428" y="261.707294" style="fill: #f5deb3; stroke: #f5deb3; stroke-width: 1.5; stroke-linejoin: miter"/>
     <use xlink:href="#me9babed4b6" x="146.612557" y="197.872941" style="fill: #f5deb3; stroke: #f5deb3; stroke-width: 1.5; stroke-linejoin: miter"/>
     <use xlink:href="#me9babed4b6" x="153.593669" y="70.204235" style="fill: #f5deb3; stroke: #f5deb3; stroke-width: 1.5; stroke-linejoin: miter"/>
     <use xlink:href="#me9babed4b6" x="153.933646" y="32.967529" style="fill: #f5deb3; stroke: #f5deb3; stroke-width: 1.5; stroke-linejoin: miter"/>
     <use xlink:href="#me9babed4b6" x="153.933646" y="27.648" style="fill: #f5deb3; stroke: #f5deb3; stroke-width: 1.5; stroke-linejoin: miter"/>
     <use xlink:href="#me9babed4b6" x="360.8064" y="27.648" style="fill: #f5deb3; stroke: #f5deb3; stroke-width: 1.5; stroke-linejoin: miter"/>
    </g>
   </g>
   <g id="line2d_3">
    <path style="fill: none; stroke: #f5deb3; stroke-width: 4; stroke-linecap: square"/>
    <g/>
   </g>
   <g id="line2d_4">
    <path d="M 360.8064 27.648 
L 380.514816 33.07392 
" style="fill: none; stroke: #f5deb3; stroke-width: 4; stroke-linecap: square"/>
    <g>
     <use xlink:href="#me9babed4b6" x="360.8064" y="27.648" style="fill: #f5deb3; stroke: #f5deb3; stroke-width: 1.5; stroke-linejoin: miter"/>
     <use xlink:href="#me9babed4b6" x="380.514816" y="33.07392" style="fill: #f5deb3; stroke: #f5deb3; stroke-width: 1.5; stroke-linejoin: miter"/>
    </g>
   </g>
   <g id="matplotlib.axis_1">
    <g id="xtick_1">
     <g id="line2d_5">
      <path d="M 57.6 298.944 
L 57.6 27.648 
" clip-path="url(#paf824d1292)" style="fill: none; stroke: #b0b0b0; stroke-width: 0.8; stroke-linecap: square"/>
     </g>
     <g id="line2d_6">
      <defs>
       <path id="maa281abcac" d="M 0 0 
L 0 3.5 
" style="stroke: #000000; stroke-width: 0.8"/>
      </defs>
      <g>
       <use xlink:href="#maa281abcac" x="57.6" y="298.944" style="stroke: #000000; stroke-width: 0.8"/>
      </g>
     </g>
     <g id="text_1">
      <!-- 0 -->
      <g transform="translate(52.191875 318.861344)scale(0.17 -0.17)">
       <defs>
        <path id="DejaVuSans-30" d="M 2034 4250 
Q 1547 4250 1301 3770 
Q 1056 3291 1056 2328 
Q 1056 1369 1301 889 
Q 1547 409 2034 409 
Q 2525 409 2770 889 
Q 3016 1369 3016 2328 
Q 3016 3291 2770 3770 
Q 2525 4250 2034 4250 
z
M 2034 4750 
Q 2819 4750 3233 4129 
Q 3647 3509 3647 2328 
Q 3647 1150 3233 529 
Q 2819 -91 2034 -91 
Q 1250 -91 836 529 
Q 422 1150 422 2328 
Q 422 3509 836 4129 
Q 1250 4750 2034 4750 
z
" transform="scale(0.015625)"/>
       </defs>
       <use xlink:href="#DejaVuSans-30"/>
      </g>
     </g>
    </g>
    <g id="xtick_2">
     <g id="line2d_7">
      <path d="M 144.2304 298.944 
L 144.2304 27.648 
" clip-path="url(#paf824d1292)" style="fill: none; stroke: #b0b0b0; stroke-width: 0.8; stroke-linecap: square"/>
     </g>
     <g id="line2d_8">
      <g>
       <use xlink:href="#maa281abcac" x="144.2304" y="298.944" style="stroke: #000000; stroke-width: 0.8"/>
      </g>
     </g>
     <g id="text_2">
      <!-- 2 -->
      <g transform="translate(138.822275 318.861344)scale(0.17 -0.17)">
       <defs>
        <path id="DejaVuSans-32" d="M 1228 531 
L 3431 531 
L 3431 0 
L 469 0 
L 469 531 
Q 828 903 1448 1529 
Q 2069 2156 2228 2338 
Q 2531 2678 2651 2914 
Q 2772 3150 2772 3378 
Q 2772 3750 2511 3984 
Q 2250 4219 1831 4219 
Q 1534 4219 1204 4116 
Q 875 4013 500 3803 
L 500 4441 
Q 881 4594 1212 4672 
Q 1544 4750 1819 4750 
Q 2544 4750 2975 4387 
Q 3406 4025 3406 3419 
Q 3406 3131 3298 2873 
Q 3191 2616 2906 2266 
Q 2828 2175 2409 1742 
Q 1991 1309 1228 531 
z
" transform="scale(0.015625)"/>
       </defs>
       <use xlink:href="#DejaVuSans-32"/>
      </g>
     </g>
    </g>
    <g id="xtick_3">
     <g id="line2d_9">
      <path d="M 230.8608 298.944 
L 230.8608 27.648 
" clip-path="url(#paf824d1292)" style="fill: none; stroke: #b0b0b0; stroke-width: 0.8; stroke-linecap: square"/>
     </g>
     <g id="line2d_10">
      <g>
       <use xlink:href="#maa281abcac" x="230.8608" y="298.944" style="stroke: #000000; stroke-width: 0.8"/>
      </g>
     </g>
     <g id="text_3">
      <!-- 4 -->
      <g transform="translate(225.452675 318.861344)scale(0.17 -0.17)">
       <defs>
        <path id="DejaVuSans-34" d="M 2419 4116 
L 825 1625 
L 2419 1625 
L 2419 4116 
z
M 2253 4666 
L 3047 4666 
L 3047 1625 
L 3713 1625 
L 3713 1100 
L 3047 1100 
L 3047 0 
L 2419 0 
L 2419 1100 
L 313 1100 
L 313 1709 
L 2253 4666 
z
" transform="scale(0.015625)"/>
       </defs>
       <use xlink:href="#DejaVuSans-34"/>
      </g>
     </g>
    </g>
    <g id="xtick_4">
     <g id="line2d_11">
      <path d="M 317.4912 298.944 
L 317.4912 27.648 
" clip-path="url(#paf824d1292)" style="fill: none; stroke: #b0b0b0; stroke-width: 0.8; stroke-linecap: square"/>
     </g>
     <g id="line2d_12">
      <g>
       <use xlink:href="#maa281abcac" x="317.4912" y="298.944" style="stroke: #000000; stroke-width: 0.8"/>
      </g>
     </g>
     <g id="text_4">
      <!-- 6 -->
      <g transform="translate(312.083075 318.861344)scale(0.17 -0.17)">
       <defs>
        <path id="DejaVuSans-36" d="M 2113 2584 
Q 1688 2584 1439 2293 
Q 1191 2003 1191 1497 
Q 1191 994 1439 701 
Q 1688 409 2113 409 
Q 2538 409 2786 701 
Q 3034 994 3034 1497 
Q 3034 2003 2786 2293 
Q 2538 2584 2113 2584 
z
M 3366 4563 
L 3366 3988 
Q 3128 4100 2886 4159 
Q 2644 4219 2406 4219 
Q 1781 4219 1451 3797 
Q 1122 3375 1075 2522 
Q 1259 2794 1537 2939 
Q 1816 3084 2150 3084 
Q 2853 3084 3261 2657 
Q 3669 2231 3669 1497 
Q 3669 778 3244 343 
Q 2819 -91 2113 -91 
Q 1303 -91 875 529 
Q 447 1150 447 2328 
Q 447 3434 972 4092 
Q 1497 4750 2381 4750 
Q 2619 4750 2861 4703 
Q 3103 4656 3366 4563 
z
" transform="scale(0.015625)"/>
       </defs>
       <use xlink:href="#DejaVuSans-36"/>
      </g>
     </g>
    </g>
    <g id="xtick_5">
     <g id="line2d_13">
      <path d="M 100.9152 298.944 
L 100.9152 27.648 
" clip-path="url(#paf824d1292)" style="fill: none; stroke: #b0b0b0; stroke-width: 0.8; stroke-linecap: square"/>
     </g>
     <g id="line2d_14">
      <defs>
       <path id="m470f745e81" d="M 0 0 
L 0 2 
" style="stroke: #000000; stroke-width: 0.6"/>
      </defs>
      <g>
       <use xlink:href="#m470f745e81" x="100.9152" y="298.944" style="stroke: #000000; stroke-width: 0.6"/>
      </g>
     </g>
    </g>
    <g id="xtick_6">
     <g id="line2d_15">
      <path d="M 187.5456 298.944 
L 187.5456 27.648 
" clip-path="url(#paf824d1292)" style="fill: none; stroke: #b0b0b0; stroke-width: 0.8; stroke-linecap: square"/>
     </g>
     <g id="line2d_16">
      <g>
       <use xlink:href="#m470f745e81" x="187.5456" y="298.944" style="stroke: #000000; stroke-width: 0.6"/>
      </g>
     </g>
    </g>
    <g id="xtick_7">
     <g id="line2d_17">
      <path d="M 274.176 298.944 
L 274.176 27.648 
" clip-path="url(#paf824d1292)" style="fill: none; stroke: #b0b0b0; stroke-width: 0.8; stroke-linecap: square"/>
     </g>
     <g id="line2d_18">
      <g>
       <use xlink:href="#m470f745e81" x="274.176" y="298.944" style="stroke: #000000; stroke-width: 0.6"/>
      </g>
     </g>
    </g>
    <g id="xtick_8">
     <g id="line2d_19">
      <path d="M 360.8064 298.944 
L 360.8064 27.648 
" clip-path="url(#paf824d1292)" style="fill: none; stroke: #b0b0b0; stroke-width: 0.8; stroke-linecap: square"/>
     </g>
     <g id="line2d_20">
      <g>
       <use xlink:href="#m470f745e81" x="360.8064" y="298.944" style="stroke: #000000; stroke-width: 0.6"/>
      </g>
     </g>
    </g>
    <g id="text_5">
     <!-- log10(# f-evals / dimension) -->
     <g transform="translate(88.823278 339.314156)scale(0.17 -0.17)">
      <defs>
       <path id="DejaVuSans-6c" d="M 603 4863 
L 1178 4863 
L 1178 0 
L 603 0 
L 603 4863 
z
" transform="scale(0.015625)"/>
       <path id="DejaVuSans-6f" d="M 1959 3097 
Q 1497 3097 1228 2736 
Q 959 2375 959 1747 
Q 959 1119 1226 758 
Q 1494 397 1959 397 
Q 2419 397 2687 759 
Q 2956 1122 2956 1747 
Q 2956 2369 2687 2733 
Q 2419 3097 1959 3097 
z
M 1959 3584 
Q 2709 3584 3137 3096 
Q 3566 2609 3566 1747 
Q 3566 888 3137 398 
Q 2709 -91 1959 -91 
Q 1206 -91 779 398 
Q 353 888 353 1747 
Q 353 2609 779 3096 
Q 1206 3584 1959 3584 
z
" transform="scale(0.015625)"/>
       <path id="DejaVuSans-67" d="M 2906 1791 
Q 2906 2416 2648 2759 
Q 2391 3103 1925 3103 
Q 1463 3103 1205 2759 
Q 947 2416 947 1791 
Q 947 1169 1205 825 
Q 1463 481 1925 481 
Q 2391 481 2648 825 
Q 2906 1169 2906 1791 
z
M 3481 434 
Q 3481 -459 3084 -895 
Q 2688 -1331 1869 -1331 
Q 1566 -1331 1297 -1286 
Q 1028 -1241 775 -1147 
L 775 -588 
Q 1028 -725 1275 -790 
Q 1522 -856 1778 -856 
Q 2344 -856 2625 -561 
Q 2906 -266 2906 331 
L 2906 616 
Q 2728 306 2450 153 
Q 2172 0 1784 0 
Q 1141 0 747 490 
Q 353 981 353 1791 
Q 353 2603 747 3093 
Q 1141 3584 1784 3584 
Q 2172 3584 2450 3431 
Q 2728 3278 2906 2969 
L 2906 3500 
L 3481 3500 
L 3481 434 
z
" transform="scale(0.015625)"/>
       <path id="DejaVuSans-31" d="M 794 531 
L 1825 531 
L 1825 4091 
L 703 3866 
L 703 4441 
L 1819 4666 
L 2450 4666 
L 2450 531 
L 3481 531 
L 3481 0 
L 794 0 
L 794 531 
z
" transform="scale(0.015625)"/>
       <path id="DejaVuSans-28" d="M 1984 4856 
Q 1566 4138 1362 3434 
Q 1159 2731 1159 2009 
Q 1159 1288 1364 580 
Q 1569 -128 1984 -844 
L 1484 -844 
Q 1016 -109 783 600 
Q 550 1309 550 2009 
Q 550 2706 781 3412 
Q 1013 4119 1484 4856 
L 1984 4856 
z
" transform="scale(0.015625)"/>
       <path id="DejaVuSans-23" d="M 3272 2816 
L 2363 2816 
L 2100 1772 
L 3016 1772 
L 3272 2816 
z
M 2803 4594 
L 2478 3297 
L 3391 3297 
L 3719 4594 
L 4219 4594 
L 3897 3297 
L 4872 3297 
L 4872 2816 
L 3775 2816 
L 3519 1772 
L 4513 1772 
L 4513 1294 
L 3397 1294 
L 3072 0 
L 2572 0 
L 2894 1294 
L 1978 1294 
L 1656 0 
L 1153 0 
L 1478 1294 
L 494 1294 
L 494 1772 
L 1594 1772 
L 1856 2816 
L 850 2816 
L 850 3297 
L 1978 3297 
L 2297 4594 
L 2803 4594 
z
" transform="scale(0.015625)"/>
       <path id="DejaVuSans-20" transform="scale(0.015625)"/>
       <path id="DejaVuSans-66" d="M 2375 4863 
L 2375 4384 
L 1825 4384 
Q 1516 4384 1395 4259 
Q 1275 4134 1275 3809 
L 1275 3500 
L 2222 3500 
L 2222 3053 
L 1275 3053 
L 1275 0 
L 697 0 
L 697 3053 
L 147 3053 
L 147 3500 
L 697 3500 
L 697 3744 
Q 697 4328 969 4595 
Q 1241 4863 1831 4863 
L 2375 4863 
z
" transform="scale(0.015625)"/>
       <path id="DejaVuSans-2d" d="M 313 2009 
L 1997 2009 
L 1997 1497 
L 313 1497 
L 313 2009 
z
" transform="scale(0.015625)"/>
       <path id="DejaVuSans-65" d="M 3597 1894 
L 3597 1613 
L 953 1613 
Q 991 1019 1311 708 
Q 1631 397 2203 397 
Q 2534 397 2845 478 
Q 3156 559 3463 722 
L 3463 178 
Q 3153 47 2828 -22 
Q 2503 -91 2169 -91 
Q 1331 -91 842 396 
Q 353 884 353 1716 
Q 353 2575 817 3079 
Q 1281 3584 2069 3584 
Q 2775 3584 3186 3129 
Q 3597 2675 3597 1894 
z
M 3022 2063 
Q 3016 2534 2758 2815 
Q 2500 3097 2075 3097 
Q 1594 3097 1305 2825 
Q 1016 2553 972 2059 
L 3022 2063 
z
" transform="scale(0.015625)"/>
       <path id="DejaVuSans-76" d="M 191 3500 
L 800 3500 
L 1894 563 
L 2988 3500 
L 3597 3500 
L 2284 0 
L 1503 0 
L 191 3500 
z
" transform="scale(0.015625)"/>
       <path id="DejaVuSans-61" d="M 2194 1759 
Q 1497 1759 1228 1600 
Q 959 1441 959 1056 
Q 959 750 1161 570 
Q 1363 391 1709 391 
Q 2188 391 2477 730 
Q 2766 1069 2766 1631 
L 2766 1759 
L 2194 1759 
z
M 3341 1997 
L 3341 0 
L 2766 0 
L 2766 531 
Q 2569 213 2275 61 
Q 1981 -91 1556 -91 
Q 1019 -91 701 211 
Q 384 513 384 1019 
Q 384 1609 779 1909 
Q 1175 2209 1959 2209 
L 2766 2209 
L 2766 2266 
Q 2766 2663 2505 2880 
Q 2244 3097 1772 3097 
Q 1472 3097 1187 3025 
Q 903 2953 641 2809 
L 641 3341 
Q 956 3463 1253 3523 
Q 1550 3584 1831 3584 
Q 2591 3584 2966 3190 
Q 3341 2797 3341 1997 
z
" transform="scale(0.015625)"/>
       <path id="DejaVuSans-73" d="M 2834 3397 
L 2834 2853 
Q 2591 2978 2328 3040 
Q 2066 3103 1784 3103 
Q 1356 3103 1142 2972 
Q 928 2841 928 2578 
Q 928 2378 1081 2264 
Q 1234 2150 1697 2047 
L 1894 2003 
Q 2506 1872 2764 1633 
Q 3022 1394 3022 966 
Q 3022 478 2636 193 
Q 2250 -91 1575 -91 
Q 1294 -91 989 -36 
Q 684 19 347 128 
L 347 722 
Q 666 556 975 473 
Q 1284 391 1588 391 
Q 1994 391 2212 530 
Q 2431 669 2431 922 
Q 2431 1156 2273 1281 
Q 2116 1406 1581 1522 
L 1381 1569 
Q 847 1681 609 1914 
Q 372 2147 372 2553 
Q 372 3047 722 3315 
Q 1072 3584 1716 3584 
Q 2034 3584 2315 3537 
Q 2597 3491 2834 3397 
z
" transform="scale(0.015625)"/>
       <path id="DejaVuSans-2f" d="M 1625 4666 
L 2156 4666 
L 531 -594 
L 0 -594 
L 1625 4666 
z
" transform="scale(0.015625)"/>
       <path id="DejaVuSans-64" d="M 2906 2969 
L 2906 4863 
L 3481 4863 
L 3481 0 
L 2906 0 
L 2906 525 
Q 2725 213 2448 61 
Q 2172 -91 1784 -91 
Q 1150 -91 751 415 
Q 353 922 353 1747 
Q 353 2572 751 3078 
Q 1150 3584 1784 3584 
Q 2172 3584 2448 3432 
Q 2725 3281 2906 2969 
z
M 947 1747 
Q 947 1113 1208 752 
Q 1469 391 1925 391 
Q 2381 391 2643 752 
Q 2906 1113 2906 1747 
Q 2906 2381 2643 2742 
Q 2381 3103 1925 3103 
Q 1469 3103 1208 2742 
Q 947 2381 947 1747 
z
" transform="scale(0.015625)"/>
       <path id="DejaVuSans-69" d="M 603 3500 
L 1178 3500 
L 1178 0 
L 603 0 
L 603 3500 
z
M 603 4863 
L 1178 4863 
L 1178 4134 
L 603 4134 
L 603 4863 
z
" transform="scale(0.015625)"/>
       <path id="DejaVuSans-6d" d="M 3328 2828 
Q 3544 3216 3844 3400 
Q 4144 3584 4550 3584 
Q 5097 3584 5394 3201 
Q 5691 2819 5691 2113 
L 5691 0 
L 5113 0 
L 5113 2094 
Q 5113 2597 4934 2840 
Q 4756 3084 4391 3084 
Q 3944 3084 3684 2787 
Q 3425 2491 3425 1978 
L 3425 0 
L 2847 0 
L 2847 2094 
Q 2847 2600 2669 2842 
Q 2491 3084 2119 3084 
Q 1678 3084 1418 2786 
Q 1159 2488 1159 1978 
L 1159 0 
L 581 0 
L 581 3500 
L 1159 3500 
L 1159 2956 
Q 1356 3278 1631 3431 
Q 1906 3584 2284 3584 
Q 2666 3584 2933 3390 
Q 3200 3197 3328 2828 
z
" transform="scale(0.015625)"/>
       <path id="DejaVuSans-6e" d="M 3513 2113 
L 3513 0 
L 2938 0 
L 2938 2094 
Q 2938 2591 2744 2837 
Q 2550 3084 2163 3084 
Q 1697 3084 1428 2787 
Q 1159 2491 1159 1978 
L 1159 0 
L 581 0 
L 581 3500 
L 1159 3500 
L 1159 2956 
Q 1366 3272 1645 3428 
Q 1925 3584 2291 3584 
Q 2894 3584 3203 3211 
Q 3513 2838 3513 2113 
z
" transform="scale(0.015625)"/>
       <path id="DejaVuSans-29" d="M 513 4856 
L 1013 4856 
Q 1481 4119 1714 3412 
Q 1947 2706 1947 2009 
Q 1947 1309 1714 600 
Q 1481 -109 1013 -844 
L 513 -844 
Q 928 -128 1133 580 
Q 1338 1288 1338 2009 
Q 1338 2731 1133 3434 
Q 928 4138 513 4856 
z
" transform="scale(0.015625)"/>
      </defs>
      <use xlink:href="#DejaVuSans-6c"/>
      <use xlink:href="#DejaVuSans-6f" x="27.783203"/>
      <use xlink:href="#DejaVuSans-67" x="88.964844"/>
      <use xlink:href="#DejaVuSans-31" x="152.441406"/>
      <use xlink:href="#DejaVuSans-30" x="216.064453"/>
      <use xlink:href="#DejaVuSans-28" x="279.6875"/>
      <use xlink:href="#DejaVuSans-23" x="318.701172"/>
      <use xlink:href="#DejaVuSans-20" x="402.490234"/>
      <use xlink:href="#DejaVuSans-66" x="434.277344"/>
      <use xlink:href="#DejaVuSans-2d" x="463.982422"/>
      <use xlink:href="#DejaVuSans-65" x="500.066406"/>
      <use xlink:href="#DejaVuSans-76" x="561.589844"/>
      <use xlink:href="#DejaVuSans-61" x="620.769531"/>
      <use xlink:href="#DejaVuSans-6c" x="682.048828"/>
      <use xlink:href="#DejaVuSans-73" x="709.832031"/>
      <use xlink:href="#DejaVuSans-20" x="761.931641"/>
      <use xlink:href="#DejaVuSans-2f" x="793.71875"/>
      <use xlink:href="#DejaVuSans-20" x="827.410156"/>
      <use xlink:href="#DejaVuSans-64" x="859.197266"/>
      <use xlink:href="#DejaVuSans-69" x="922.673828"/>
      <use xlink:href="#DejaVuSans-6d" x="950.457031"/>
      <use xlink:href="#DejaVuSans-65" x="1047.869141"/>
      <use xlink:href="#DejaVuSans-6e" x="1109.392578"/>
      <use xlink:href="#DejaVuSans-73" x="1172.771484"/>
      <use xlink:href="#DejaVuSans-69" x="1224.871094"/>
      <use xlink:href="#DejaVuSans-6f" x="1252.654297"/>
      <use xlink:href="#DejaVuSans-6e" x="1313.835938"/>
      <use xlink:href="#DejaVuSans-29" x="1377.214844"/>
     </g>
    </g>
   </g>
   <g id="matplotlib.axis_2">
    <g id="ytick_1">
     <g id="line2d_21">
      <path d="M 57.6 298.944 
L 360.8064 298.944 
" clip-path="url(#paf824d1292)" style="fill: none; stroke: #b0b0b0; stroke-width: 0.8; stroke-linecap: square"/>
     </g>
     <g id="line2d_22">
      <defs>
       <path id="md07d849315" d="M 0 0 
L -3.5 0 
" style="stroke: #000000; stroke-width: 0.8"/>
      </defs>
      <g>
       <use xlink:href="#md07d849315" x="57.6" y="298.944" style="stroke: #000000; stroke-width: 0.8"/>
      </g>
     </g>
     <g id="text_6">
      <!-- 0.0 -->
      <g transform="translate(25.155 305.02275)scale(0.16 -0.16)">
       <defs>
        <path id="DejaVuSans-2e" d="M 684 794 
L 1344 794 
L 1344 0 
L 684 0 
L 684 794 
z
" transform="scale(0.015625)"/>
       </defs>
       <use xlink:href="#DejaVuSans-30"/>
       <use xlink:href="#DejaVuSans-2e" x="63.623047"/>
       <use xlink:href="#DejaVuSans-30" x="95.410156"/>
      </g>
     </g>
    </g>
    <g id="ytick_2">
     <g id="line2d_23">
      <path d="M 57.6 244.6848 
L 360.8064 244.6848 
" clip-path="url(#paf824d1292)" style="fill: none; stroke: #b0b0b0; stroke-width: 0.8; stroke-linecap: square"/>
     </g>
     <g id="line2d_24">
      <g>
       <use xlink:href="#md07d849315" x="57.6" y="244.6848" style="stroke: #000000; stroke-width: 0.8"/>
      </g>
     </g>
     <g id="text_7">
      <!-- 0.2 -->
      <g transform="translate(25.155 250.76355)scale(0.16 -0.16)">
       <use xlink:href="#DejaVuSans-30"/>
       <use xlink:href="#DejaVuSans-2e" x="63.623047"/>
       <use xlink:href="#DejaVuSans-32" x="95.410156"/>
      </g>
     </g>
    </g>
    <g id="ytick_3">
     <g id="line2d_25">
      <path d="M 57.6 190.4256 
L 360.8064 190.4256 
" clip-path="url(#paf824d1292)" style="fill: none; stroke: #b0b0b0; stroke-width: 0.8; stroke-linecap: square"/>
     </g>
     <g id="line2d_26">
      <g>
       <use xlink:href="#md07d849315" x="57.6" y="190.4256" style="stroke: #000000; stroke-width: 0.8"/>
      </g>
     </g>
     <g id="text_8">
      <!-- 0.4 -->
      <g transform="translate(25.155 196.50435)scale(0.16 -0.16)">
       <use xlink:href="#DejaVuSans-30"/>
       <use xlink:href="#DejaVuSans-2e" x="63.623047"/>
       <use xlink:href="#DejaVuSans-34" x="95.410156"/>
      </g>
     </g>
    </g>
    <g id="ytick_4">
     <g id="line2d_27">
      <path d="M 57.6 136.1664 
L 360.8064 136.1664 
" clip-path="url(#paf824d1292)" style="fill: none; stroke: #b0b0b0; stroke-width: 0.8; stroke-linecap: square"/>
     </g>
     <g id="line2d_28">
      <g>
       <use xlink:href="#md07d849315" x="57.6" y="136.1664" style="stroke: #000000; stroke-width: 0.8"/>
      </g>
     </g>
     <g id="text_9">
      <!-- 0.6 -->
      <g transform="translate(25.155 142.24515)scale(0.16 -0.16)">
       <use xlink:href="#DejaVuSans-30"/>
       <use xlink:href="#DejaVuSans-2e" x="63.623047"/>
       <use xlink:href="#DejaVuSans-36" x="95.410156"/>
      </g>
     </g>
    </g>
    <g id="ytick_5">
     <g id="line2d_29">
      <path d="M 57.6 81.9072 
L 360.8064 81.9072 
" clip-path="url(#paf824d1292)" style="fill: none; stroke: #b0b0b0; stroke-width: 0.8; stroke-linecap: square"/>
     </g>
     <g id="line2d_30">
      <g>
       <use xlink:href="#md07d849315" x="57.6" y="81.9072" style="stroke: #000000; stroke-width: 0.8"/>
      </g>
     </g>
     <g id="text_10">
      <!-- 0.8 -->
      <g transform="translate(25.155 87.98595)scale(0.16 -0.16)">
       <defs>
        <path id="DejaVuSans-38" d="M 2034 2216 
Q 1584 2216 1326 1975 
Q 1069 1734 1069 1313 
Q 1069 891 1326 650 
Q 1584 409 2034 409 
Q 2484 409 2743 651 
Q 3003 894 3003 1313 
Q 3003 1734 2745 1975 
Q 2488 2216 2034 2216 
z
M 1403 2484 
Q 997 2584 770 2862 
Q 544 3141 544 3541 
Q 544 4100 942 4425 
Q 1341 4750 2034 4750 
Q 2731 4750 3128 4425 
Q 3525 4100 3525 3541 
Q 3525 3141 3298 2862 
Q 3072 2584 2669 2484 
Q 3125 2378 3379 2068 
Q 3634 1759 3634 1313 
Q 3634 634 3220 271 
Q 2806 -91 2034 -91 
Q 1263 -91 848 271 
Q 434 634 434 1313 
Q 434 1759 690 2068 
Q 947 2378 1403 2484 
z
M 1172 3481 
Q 1172 3119 1398 2916 
Q 1625 2713 2034 2713 
Q 2441 2713 2670 2916 
Q 2900 3119 2900 3481 
Q 2900 3844 2670 4047 
Q 2441 4250 2034 4250 
Q 1625 4250 1398 4047 
Q 1172 3844 1172 3481 
z
" transform="scale(0.015625)"/>
       </defs>
       <use xlink:href="#DejaVuSans-30"/>
       <use xlink:href="#DejaVuSans-2e" x="63.623047"/>
       <use xlink:href="#DejaVuSans-38" x="95.410156"/>
      </g>
     </g>
    </g>
    <g id="ytick_6">
     <g id="line2d_31">
      <path d="M 57.6 27.648 
L 360.8064 27.648 
" clip-path="url(#paf824d1292)" style="fill: none; stroke: #b0b0b0; stroke-width: 0.8; stroke-linecap: square"/>
     </g>
     <g id="line2d_32">
      <g>
       <use xlink:href="#md07d849315" x="57.6" y="27.648" style="stroke: #000000; stroke-width: 0.8"/>
      </g>
     </g>
     <g id="text_11">
      <!-- 1.0 -->
      <g transform="translate(25.155 33.72675)scale(0.16 -0.16)">
       <use xlink:href="#DejaVuSans-31"/>
       <use xlink:href="#DejaVuSans-2e" x="63.623047"/>
       <use xlink:href="#DejaVuSans-30" x="95.410156"/>
      </g>
     </g>
    </g>
    <g id="text_12">
     <!-- Fraction of function,target pairs -->
     <g transform="translate(17.619531 297.681)rotate(-90)scale(0.17 -0.17)">
      <defs>
       <path id="DejaVuSans-46" d="M 628 4666 
L 3309 4666 
L 3309 4134 
L 1259 4134 
L 1259 2759 
L 3109 2759 
L 3109 2228 
L 1259 2228 
L 1259 0 
L 628 0 
L 628 4666 
z
" transform="scale(0.015625)"/>
       <path id="DejaVuSans-72" d="M 2631 2963 
Q 2534 3019 2420 3045 
Q 2306 3072 2169 3072 
Q 1681 3072 1420 2755 
Q 1159 2438 1159 1844 
L 1159 0 
L 581 0 
L 581 3500 
L 1159 3500 
L 1159 2956 
Q 1341 3275 1631 3429 
Q 1922 3584 2338 3584 
Q 2397 3584 2469 3576 
Q 2541 3569 2628 3553 
L 2631 2963 
z
" transform="scale(0.015625)"/>
       <path id="DejaVuSans-63" d="M 3122 3366 
L 3122 2828 
Q 2878 2963 2633 3030 
Q 2388 3097 2138 3097 
Q 1578 3097 1268 2742 
Q 959 2388 959 1747 
Q 959 1106 1268 751 
Q 1578 397 2138 397 
Q 2388 397 2633 464 
Q 2878 531 3122 666 
L 3122 134 
Q 2881 22 2623 -34 
Q 2366 -91 2075 -91 
Q 1284 -91 818 406 
Q 353 903 353 1747 
Q 353 2603 823 3093 
Q 1294 3584 2113 3584 
Q 2378 3584 2631 3529 
Q 2884 3475 3122 3366 
z
" transform="scale(0.015625)"/>
       <path id="DejaVuSans-74" d="M 1172 4494 
L 1172 3500 
L 2356 3500 
L 2356 3053 
L 1172 3053 
L 1172 1153 
Q 1172 725 1289 603 
Q 1406 481 1766 481 
L 2356 481 
L 2356 0 
L 1766 0 
Q 1100 0 847 248 
Q 594 497 594 1153 
L 594 3053 
L 172 3053 
L 172 3500 
L 594 3500 
L 594 4494 
L 1172 4494 
z
" transform="scale(0.015625)"/>
       <path id="DejaVuSans-75" d="M 544 1381 
L 544 3500 
L 1119 3500 
L 1119 1403 
Q 1119 906 1312 657 
Q 1506 409 1894 409 
Q 2359 409 2629 706 
Q 2900 1003 2900 1516 
L 2900 3500 
L 3475 3500 
L 3475 0 
L 2900 0 
L 2900 538 
Q 2691 219 2414 64 
Q 2138 -91 1772 -91 
Q 1169 -91 856 284 
Q 544 659 544 1381 
z
M 1991 3584 
L 1991 3584 
z
" transform="scale(0.015625)"/>
       <path id="DejaVuSans-2c" d="M 750 794 
L 1409 794 
L 1409 256 
L 897 -744 
L 494 -744 
L 750 256 
L 750 794 
z
" transform="scale(0.015625)"/>
       <path id="DejaVuSans-70" d="M 1159 525 
L 1159 -1331 
L 581 -1331 
L 581 3500 
L 1159 3500 
L 1159 2969 
Q 1341 3281 1617 3432 
Q 1894 3584 2278 3584 
Q 2916 3584 3314 3078 
Q 3713 2572 3713 1747 
Q 3713 922 3314 415 
Q 2916 -91 2278 -91 
Q 1894 -91 1617 61 
Q 1341 213 1159 525 
z
M 3116 1747 
Q 3116 2381 2855 2742 
Q 2594 3103 2138 3103 
Q 1681 3103 1420 2742 
Q 1159 2381 1159 1747 
Q 1159 1113 1420 752 
Q 1681 391 2138 391 
Q 2594 391 2855 752 
Q 3116 1113 3116 1747 
z
" transform="scale(0.015625)"/>
      </defs>
      <use xlink:href="#DejaVuSans-46"/>
      <use xlink:href="#DejaVuSans-72" x="50.269531"/>
      <use xlink:href="#DejaVuSans-61" x="91.382812"/>
      <use xlink:href="#DejaVuSans-63" x="152.662109"/>
      <use xlink:href="#DejaVuSans-74" x="207.642578"/>
      <use xlink:href="#DejaVuSans-69" x="246.851562"/>
      <use xlink:href="#DejaVuSans-6f" x="274.634766"/>
      <use xlink:href="#DejaVuSans-6e" x="335.816406"/>
      <use xlink:href="#DejaVuSans-20" x="399.195312"/>
      <use xlink:href="#DejaVuSans-6f" x="430.982422"/>
      <use xlink:href="#DejaVuSans-66" x="492.164062"/>
      <use xlink:href="#DejaVuSans-20" x="527.369141"/>
      <use xlink:href="#DejaVuSans-66" x="559.15625"/>
      <use xlink:href="#DejaVuSans-75" x="594.361328"/>
      <use xlink:href="#DejaVuSans-6e" x="657.740234"/>
      <use xlink:href="#DejaVuSans-63" x="721.119141"/>
      <use xlink:href="#DejaVuSans-74" x="776.099609"/>
      <use xlink:href="#DejaVuSans-69" x="815.308594"/>
      <use xlink:href="#DejaVuSans-6f" x="843.091797"/>
      <use xlink:href="#DejaVuSans-6e" x="904.273438"/>
      <use xlink:href="#DejaVuSans-2c" x="967.652344"/>
      <use xlink:href="#DejaVuSans-74" x="999.439453"/>
      <use xlink:href="#DejaVuSans-61" x="1038.648438"/>
      <use xlink:href="#DejaVuSans-72" x="1099.927734"/>
      <use xlink:href="#DejaVuSans-67" x="1139.291016"/>
      <use xlink:href="#DejaVuSans-65" x="1202.767578"/>
      <use xlink:href="#DejaVuSans-74" x="1264.291016"/>
      <use xlink:href="#DejaVuSans-20" x="1303.5"/>
      <use xlink:href="#DejaVuSans-70" x="1335.287109"/>
      <use xlink:href="#DejaVuSans-61" x="1398.763672"/>
      <use xlink:href="#DejaVuSans-69" x="1460.042969"/>
      <use xlink:href="#DejaVuSans-72" x="1487.826172"/>
      <use xlink:href="#DejaVuSans-73" x="1528.939453"/>
     </g>
    </g>
   </g>
   <g id="line2d_33">
    <defs>
     <path id="m56de87d462" d="M 0 1.5 
C 0.397805 1.5 0.77937 1.341951 1.06066 1.06066 
C 1.341951 0.77937 1.5 0.397805 1.5 0 
C 1.5 -0.397805 1.341951 -0.77937 1.06066 -1.06066 
C 0.77937 -1.341951 0.397805 -1.5 0 -1.5 
C -0.397805 -1.5 -0.77937 -1.341951 -1.06066 -1.06066 
C -1.341951 -0.77937 -1.5 -0.397805 -1.5 0 
C -1.5 0.397805 -1.341951 0.77937 -1.06066 1.06066 
C -0.77937 1.341951 -0.397805 1.5 0 1.5 
z
" style="stroke: #f5deb3"/>
    </defs>
    <g>
     <use xlink:href="#m56de87d462" x="153.933646" y="27.648" style="fill: #f5deb3; stroke: #f5deb3"/>
     <use xlink:href="#m56de87d462" x="153.933646" y="27.648" style="fill: #f5deb3; stroke: #f5deb3"/>
    </g>
   </g>
   <g id="line2d_34">
    <defs>
     <path id="m2a75622270" d="M 0 1.5 
C 0.397805 1.5 0.77937 1.341951 1.06066 1.06066 
C 1.341951 0.77937 1.5 0.397805 1.5 0 
C 1.5 -0.397805 1.341951 -0.77937 1.06066 -1.06066 
C 0.77937 -1.341951 0.397805 -1.5 0 -1.5 
C -0.397805 -1.5 -0.77937 -1.341951 -1.06066 -1.06066 
C -1.341951 -0.77937 -1.5 -0.397805 -1.5 0 
C -1.5 0.397805 -1.341951 0.77937 -1.06066 1.06066 
C -0.77937 1.341951 -0.397805 1.5 0 1.5 
z
" style="stroke: #000080"/>
    </defs>
    <g>
     <use xlink:href="#m2a75622270" x="246.128193" y="27.648" style="fill: #000080; stroke: #000080"/>
     <use xlink:href="#m2a75622270" x="246.128193" y="27.648" style="fill: #000080; stroke: #000080"/>
    </g>
   </g>
   <g id="line2d_35">
    <path d="M 44.560826 298.944 
L 44.560826 272.346353 
L 57.6 272.346353 
L 57.6 268.445365 
L 65.227428 268.445365 
L 65.227428 263.480471 
L 70.639174 263.480471 
L 70.639174 262.061929 
L 74.836851 262.061929 
L 74.836851 259.934118 
L 78.266603 259.934118 
L 78.266603 258.160941 
L 83.678349 258.160941 
L 83.678349 256.7424 
L 85.894031 256.7424 
L 85.894031 255.678494 
L 87.876026 255.678494 
L 87.876026 249.649694 
L 92.811505 249.649694 
L 92.811505 248.585788 
L 97.857967 248.585788 
L 97.857967 247.876518 
L 99.950294 247.876518 
L 99.950294 246.812612 
L 100.9152 246.812612 
L 100.9152 245.039435 
L 101.833019 245.039435 
L 101.833019 236.882824 
L 102.708132 236.882824 
L 102.708132 236.528188 
L 104.344952 236.528188 
L 104.344952 233.336471 
L 105.850679 233.336471 
L 105.850679 232.981835 
L 107.904887 232.981835 
L 107.904887 230.854024 
L 112.487797 230.854024 
L 112.487797 229.790118 
L 112.989468 229.790118 
L 112.989468 228.726212 
L 113.954374 228.726212 
L 113.954374 227.662306 
L 116.583514 227.662306 
L 116.583514 226.243765 
L 117.384126 226.243765 
L 117.384126 224.115953 
L 121.892744 224.115953 
L 121.892744 223.406682 
L 124.748451 223.406682 
L 124.748451 215.959341 
L 128.133992 215.959341 
L 128.133992 213.122259 
L 128.57149 213.122259 
L 128.57149 212.767624 
L 132.46399 212.767624 
L 132.46399 212.412988 
L 133.656071 212.412988 
L 133.656071 210.639812 
L 134.304809 210.639812 
L 134.304809 210.285176 
L 134.620977 210.285176 
L 134.620977 209.930541 
L 135.981441 209.930541 
L 135.981441 207.093459 
L 136.555884 207.093459 
L 136.555884 206.738824 
L 137.113304 206.738824 
L 137.113304 206.029553 
L 141.610664 206.029553 
L 141.610664 199.646118 
L 144.136106 199.646118 
L 144.136106 199.291482 
L 144.694906 199.291482 
L 144.694906 193.262682 
L 146.529503 193.262682 
L 146.529503 191.134871 
L 149.381693 191.134871 
L 149.381693 190.070965 
L 151.220087 190.070965 
L 151.220087 188.297788 
L 154.971412 188.297788 
L 154.971412 187.943153 
L 158.58624 187.943153 
L 158.58624 186.879247 
L 159.14782 186.879247 
L 159.14782 184.042165 
L 160.699326 184.042165 
L 160.699326 183.687529 
L 162.05979 183.687529 
L 162.05979 182.623624 
L 162.38507 182.623624 
L 162.420867 177.658729 
L 162.527853 177.658729 
L 162.527853 174.112376 
L 162.949812 174.112376 
L 163.019227 169.502118 
L 163.3965 169.502118 
L 163.430425 163.473318 
L 163.531835 163.473318 
L 163.531835 159.217694 
L 164.548924 159.217694 
L 164.644495 152.124988 
L 164.676244 152.124988 
L 164.771172 147.514729 
L 164.802709 147.514729 
L 164.865624 142.549835 
L 165.300233 142.549835 
L 165.300233 141.131294 
L 165.483464 141.131294 
L 165.574415 137.230306 
L 165.604634 137.230306 
L 165.604634 133.683953 
L 165.784938 133.683953 
L 165.814821 130.492235 
L 166.111072 130.492235 
L 166.111072 129.073694 
L 166.315707 129.073694 
L 166.315707 128.364424 
L 166.460523 128.364424 
L 166.489353 125.527341 
L 166.83191 125.527341 
L 166.860176 121.626353 
L 166.972821 121.626353 
L 167.028891 118.08 
L 167.140533 118.08 
L 167.251516 113.115106 
L 167.279159 113.115106 
L 167.38933 109.568753 
L 167.416772 109.568753 
L 167.416772 109.214118 
L 167.553385 109.214118 
L 167.607754 108.150212 
L 167.904005 108.150212 
L 167.983997 106.0224 
L 168.037137 106.0224 
L 168.116567 104.603859 
L 168.169334 104.603859 
L 168.169334 104.249224 
L 168.352863 104.249224 
L 168.456938 102.830682 
L 168.508761 102.830682 
L 168.508761 102.476047 
L 169.019282 102.476047 
L 169.044448 100.702871 
L 169.194741 100.702871 
L 169.194741 100.348235 
L 169.516314 100.348235 
L 169.516314 98.220424 
L 169.711507 98.220424 
L 169.711507 97.865788 
L 170.214455 97.865788 
L 170.308749 96.092612 
L 170.332249 96.092612 
L 170.332249 95.383341 
L 170.472634 95.383341 
L 170.472634 95.028706 
L 170.681267 95.028706 
L 170.773255 93.9648 
L 170.978599 93.9648 
L 170.978599 92.900894 
L 171.181725 92.900894 
L 171.20416 90.418447 
L 171.293632 90.418447 
L 171.293632 89.709176 
L 171.427048 89.709176 
L 171.427048 89.354541 
L 171.581513 89.354541 
L 171.581513 88.999906 
L 171.865055 88.999906 
L 171.972982 85.808188 
L 172.101681 85.808188 
L 172.101681 84.035012 
L 172.250727 84.035012 
L 172.250727 80.134024 
L 172.545321 80.134024 
L 172.649425 78.360847 
L 172.690906 78.360847 
L 172.690906 76.942306 
L 172.91743 76.942306 
L 172.91743 75.523765 
L 173.141258 75.523765 
L 173.242125 73.395953 
L 173.60083 73.395953 
L 173.60083 71.268141 
L 173.718895 71.268141 
L 173.718895 70.913506 
L 174.030158 70.913506 
L 174.030158 70.558871 
L 174.544011 70.558871 
L 174.544011 69.8496 
L 174.970932 69.8496 
L 174.970932 69.140329 
L 175.135386 69.140329 
L 175.135386 68.076424 
L 175.40632 68.076424 
L 175.51361 66.303247 
L 176.127562 66.303247 
L 176.127562 65.948612 
L 176.316452 65.948612 
L 176.316452 63.111529 
L 176.855405 63.111529 
L 176.855405 62.756894 
L 177.03716 62.756894 
L 177.03716 62.402259 
L 177.683669 62.402259 
L 177.683669 62.047624 
L 177.951847 62.047624 
L 177.983147 61.338353 
L 178.308695 61.338353 
L 178.308695 60.983718 
L 178.431246 60.983718 
L 178.431246 60.274447 
L 178.628705 60.274447 
L 178.628705 59.919812 
L 179.983897 59.919812 
L 179.983897 59.565176 
L 180.606166 59.565176 
L 180.606166 59.210541 
L 181.234837 59.210541 
L 181.247987 58.501271 
L 181.405079 58.501271 
L 181.405079 56.018824 
L 181.612513 56.018824 
L 181.612513 55.664188 
L 182.604477 55.664188 
L 182.604477 54.954918 
L 183.708911 54.954918 
L 183.708911 54.245647 
L 185.033667 54.245647 
L 185.033667 53.181741 
L 185.363983 53.181741 
L 185.363983 52.827106 
L 185.605362 52.827106 
L 185.605362 52.472471 
L 186.200649 52.472471 
L 186.200649 50.699294 
L 186.34156 50.699294 
L 186.34156 49.990024 
L 187.127126 49.990024 
L 187.127126 49.635388 
L 187.366036 49.635388 
L 187.366036 48.926118 
L 187.927337 48.926118 
L 187.927337 48.571482 
L 189.744553 48.571482 
L 189.744553 45.7344 
L 190.802117 45.7344 
L 190.802117 44.315859 
L 191.508555 44.315859 
L 191.508555 43.606588 
L 191.743277 43.606588 
L 191.848327 42.542682 
L 192.379512 42.542682 
L 192.379512 42.188047 
L 193.016041 42.188047 
L 193.016041 40.060235 
L 196.504304 40.060235 
L 196.545154 39.350965 
L 196.782655 39.350965 
L 196.782655 38.996329 
L 198.392592 38.996329 
L 198.392592 38.287059 
L 202.497037 38.287059 
L 202.497037 37.932424 
L 207.822558 37.932424 
L 207.822558 37.577788 
L 213.453878 37.577788 
L 213.453878 37.223153 
L 216.460503 37.223153 
L 216.460503 36.868518 
L 219.029228 36.868518 
L 219.133028 36.159247 
L 220.534005 36.159247 
L 220.534005 35.804612 
L 221.331157 35.804612 
L 221.331157 35.449976 
L 223.6887 35.449976 
L 223.6887 34.740706 
L 225.324486 34.740706 
L 225.324486 34.386071 
L 228.031242 34.386071 
L 228.031242 34.031435 
L 230.218842 34.031435 
L 230.23538 33.322165 
L 234.609972 33.322165 
L 234.609972 32.967529 
L 235.117827 32.967529 
L 235.134322 32.258259 
L 236.026393 32.258259 
L 236.057101 31.548988 
L 236.141113 31.548988 
L 236.141113 31.194353 
L 236.655436 31.194353 
L 236.655436 30.839718 
L 239.887151 30.839718 
L 239.887151 30.485082 
L 241.528869 30.485082 
L 241.528869 30.130447 
L 242.999807 30.130447 
L 242.999807 29.775812 
L 243.428048 29.775812 
L 243.428048 29.066541 
L 243.930988 29.066541 
L 243.930988 28.711906 
L 244.289084 28.711906 
L 244.289084 28.357271 
L 244.753186 28.357271 
L 244.753186 28.002635 
L 246.128193 28.002635 
L 246.128193 27.648 
L 360.8064 27.648 
L 360.8064 27.648 
" style="fill: none; stroke: #000080; stroke-width: 1.5; stroke-linecap: square"/>
   </g>
   <g id="line2d_36">
    <defs>
     <path id="ma7fdcd4865" d="M 0 6 
C 1.591219 6 3.117479 5.367802 4.242641 4.242641 
C 5.367802 3.117479 6 1.591219 6 0 
C 6 -1.591219 5.367802 -3.117479 4.242641 -4.242641 
C 3.117479 -5.367802 1.591219 -6 0 -6 
C -1.591219 -6 -3.117479 -5.367802 -4.242641 -4.242641 
C -5.367802 -3.117479 -6 -1.591219 -6 0 
C -6 1.591219 -5.367802 3.117479 -4.242641 4.242641 
C -3.117479 5.367802 -1.591219 6 0 6 
z
" style="stroke: #000080; stroke-width: 1.5"/>
    </defs>
    <g>
     <use xlink:href="#ma7fdcd4865" x="87.876026" y="255.678494" style="fill-opacity: 0; stroke: #000080; stroke-width: 1.5"/>
     <use xlink:href="#ma7fdcd4865" x="163.531835" y="159.217694" style="fill-opacity: 0; stroke: #000080; stroke-width: 1.5"/>
     <use xlink:href="#ma7fdcd4865" x="202.497037" y="37.932424" style="fill-opacity: 0; stroke: #000080; stroke-width: 1.5"/>
     <use xlink:href="#ma7fdcd4865" x="246.128193" y="28.002635" style="fill-opacity: 0; stroke: #000080; stroke-width: 1.5"/>
     <use xlink:href="#ma7fdcd4865" x="246.128193" y="27.648" style="fill-opacity: 0; stroke: #000080; stroke-width: 1.5"/>
     <use xlink:href="#ma7fdcd4865" x="360.8064" y="27.648" style="fill-opacity: 0; stroke: #000080; stroke-width: 1.5"/>
    </g>
   </g>
   <g id="line2d_37">
    <path style="fill: none; stroke: #000080; stroke-width: 1.5; stroke-linecap: square"/>
    <g/>
   </g>
   <g id="line2d_38">
    <defs>
     <path id="me849f339dd" d="M 0 1.5 
C 0.397805 1.5 0.77937 1.341951 1.06066 1.06066 
C 1.341951 0.77937 1.5 0.397805 1.5 0 
C 1.5 -0.397805 1.341951 -0.77937 1.06066 -1.06066 
C 0.77937 -1.341951 0.397805 -1.5 0 -1.5 
C -0.397805 -1.5 -0.77937 -1.341951 -1.06066 -1.06066 
C -1.341951 -0.77937 -1.5 -0.397805 -1.5 0 
C -1.5 0.397805 -1.341951 0.77937 -1.06066 1.06066 
C -0.77937 1.341951 -0.397805 1.5 0 1.5 
z
" style="stroke: #ff00ff"/>
    </defs>
    <g>
     <use xlink:href="#me849f339dd" x="300.763377" y="27.648" style="fill: #ff00ff; stroke: #ff00ff"/>
     <use xlink:href="#me849f339dd" x="300.763377" y="27.648" style="fill: #ff00ff; stroke: #ff00ff"/>
    </g>
   </g>
   <g id="line2d_39">
    <path d="M 44.560826 298.944 
L 44.560826 269.863906 
L 57.6 269.863906 
L 57.6 264.899012 
L 65.227428 264.899012 
L 65.227428 262.416565 
L 70.639174 262.416565 
L 70.639174 259.579482 
L 74.836851 259.579482 
L 74.836851 254.969224 
L 78.266603 254.969224 
L 78.266603 253.905318 
L 81.166416 253.905318 
L 81.166416 252.841412 
L 83.678349 252.841412 
L 83.678349 251.777506 
L 85.894031 251.777506 
L 85.894031 250.358965 
L 89.668958 250.358965 
L 89.668958 249.649694 
L 91.305777 249.649694 
L 91.305777 248.940424 
L 98.933205 248.940424 
L 98.933205 248.585788 
L 100.9152 248.585788 
L 100.9152 247.521882 
L 105.850679 247.521882 
L 105.850679 242.911624 
L 107.244765 242.911624 
L 107.244765 240.429176 
L 109.756698 240.429176 
L 109.756698 240.074541 
L 110.897141 240.074541 
L 110.897141 237.237459 
L 111.442442 237.237459 
L 111.442442 235.818918 
L 113.478107 235.818918 
L 113.478107 235.464282 
L 113.954374 235.464282 
L 113.954374 233.336471 
L 114.418881 233.336471 
L 114.418881 232.981835 
L 114.872193 232.981835 
L 114.872193 232.6272 
L 116.170056 232.6272 
L 116.170056 231.917929 
L 116.583514 231.917929 
L 116.583514 223.761318 
L 121.265635 223.761318 
L 121.265635 223.406682 
L 122.795872 223.406682 
L 122.795872 219.860329 
L 123.374735 219.860329 
L 123.374735 218.087153 
L 124.481616 218.087153 
L 124.481616 217.377882 
L 129.209231 217.377882 
L 129.209231 217.023247 
L 129.417095 217.023247 
L 129.417095 215.959341 
L 131.191226 215.959341 
L 131.191226 214.5408 
L 131.563744 214.5408 
L 131.563744 214.186165 
L 131.747272 214.186165 
L 131.747272 212.412988 
L 132.287354 212.412988 
L 132.287354 210.639812 
L 134.77709 210.639812 
L 134.77709 202.128565 
L 135.981441 202.128565 
L 135.981441 198.227576 
L 138.180913 198.227576 
L 138.180913 197.518306 
L 138.818654 197.518306 
L 138.818654 196.4544 
L 139.191172 196.4544 
L 139.191172 195.745129 
L 139.556456 195.745129 
L 139.556456 195.035859 
L 145.765046 195.035859 
L 145.765046 194.681224 
L 147.893838 194.681224 
L 147.893838 193.262682 
L 150.958812 193.262682 
L 150.958812 192.908047 
L 154.212341 192.908047 
L 154.212341 190.4256 
L 155.18278 190.4256 
L 155.18278 190.070965 
L 158.365703 190.070965 
L 158.365703 189.007059 
L 159.775628 189.007059 
L 159.775628 186.169976 
L 162.277267 186.169976 
L 162.277267 185.460706 
L 162.492258 185.460706 
L 162.492258 182.978259 
L 163.362513 182.978259 
L 163.362513 182.623624 
L 163.932096 182.623624 
L 163.932096 181.205082 
L 164.484939 181.205082 
L 164.484939 180.850447 
L 165.146166 180.850447 
L 165.146166 176.594824 
L 166.022686 176.594824 
L 166.022686 175.530918 
L 170.214455 175.530918 
L 170.214455 174.467012 
L 174.581522 174.467012 
L 174.581522 173.403106 
L 175.901855 173.403106 
L 175.901855 171.275294 
L 177.168252 171.275294 
L 177.168252 170.211388 
L 177.920494 170.211388 
L 177.920494 169.147482 
L 178.568169 169.147482 
L 178.568169 168.083576 
L 179.842775 168.083576 
L 179.842775 165.246494 
L 181.586709 165.246494 
L 181.586709 164.891859 
L 183.569995 164.891859 
L 183.569995 159.926965 
L 183.800956 159.926965 
L 183.800956 157.799153 
L 187.676822 157.799153 
L 187.676822 154.607435 
L 189.449364 154.607435 
L 189.449364 152.479624 
L 190.691041 152.479624 
L 190.691041 151.770353 
L 191.652764 151.770353 
L 191.652764 151.415718 
L 192.938525 151.415718 
L 192.938525 149.287906 
L 194.287162 149.287906 
L 194.287162 143.613741 
L 194.716045 143.613741 
L 194.716045 142.1952 
L 195.514783 142.1952 
L 195.514783 141.840565 
L 195.820172 141.840565 
L 195.820172 140.776659 
L 196.180213 140.776659 
L 196.180213 140.422024 
L 199.016237 140.422024 
L 199.102938 138.648847 
L 200.19513 138.648847 
L 200.19513 137.584941 
L 205.505778 137.584941 
L 205.505778 135.811765 
L 206.337891 135.811765 
L 206.337891 132.265412 
L 206.551426 132.265412 
L 206.551426 131.556141 
L 207.886467 131.556141 
L 207.886467 130.846871 
L 208.792585 130.846871 
L 208.792585 130.492235 
L 209.192622 130.492235 
L 209.213443 124.463435 
L 211.036619 124.463435 
L 211.036619 123.399529 
L 211.243238 123.399529 
L 211.243238 121.980988 
L 211.415908 121.980988 
L 211.415908 120.562447 
L 212.646662 120.562447 
L 212.646662 116.661459 
L 212.797146 116.661459 
L 212.797146 113.469741 
L 213.640402 113.469741 
L 213.640402 113.115106 
L 213.968783 113.115106 
L 213.968783 109.923388 
L 214.458724 109.923388 
L 214.458724 108.150212 
L 215.791495 108.150212 
L 215.791495 107.440941 
L 216.04336 107.440941 
L 216.04336 105.667765 
L 216.183438 105.667765 
L 216.183438 103.539953 
L 216.603542 103.539953 
L 216.603542 103.185318 
L 217.083071 103.185318 
L 217.083071 101.057506 
L 217.360787 101.057506 
L 217.360787 97.511153 
L 218.096143 97.511153 
L 218.096143 96.801882 
L 218.869777 96.801882 
L 218.869777 96.092612 
L 220.250132 96.092612 
L 220.250132 94.319435 
L 220.626605 94.319435 
L 220.626605 93.610165 
L 220.982974 93.610165 
L 220.982974 91.482353 
L 222.137817 91.482353 
L 222.163223 84.389647 
L 222.437503 84.389647 
L 222.437503 83.680376 
L 222.909869 83.680376 
L 222.909869 83.325741 
L 223.428002 83.325741 
L 223.518546 81.9072 
L 223.975696 81.9072 
L 224.051494 78.360847 
L 224.192799 78.360847 
L 224.192799 75.8784 
L 225.111192 75.8784 
L 225.157102 70.558871 
L 225.238444 70.558871 
L 225.238444 70.204235 
L 226.260271 70.204235 
L 226.260271 69.8496 
L 226.476436 69.8496 
L 226.476436 69.494965 
L 227.34545 69.494965 
L 227.34545 66.303247 
L 227.784746 66.303247 
L 227.784746 65.948612 
L 228.183677 65.948612 
L 228.183677 62.047624 
L 228.511553 62.047624 
L 228.511553 61.338353 
L 229.184607 61.338353 
L 229.184607 60.983718 
L 230.186698 60.983718 
L 230.186698 60.629082 
L 231.01909 60.629082 
L 231.102846 58.855906 
L 231.487031 58.855906 
L 231.487031 58.146635 
L 232.706672 58.146635 
L 232.706672 57.437365 
L 234.632307 57.437365 
L 234.632307 57.082729 
L 235.118577 57.082729 
L 235.22404 55.664188 
L 236.002076 55.664188 
L 236.002076 55.309553 
L 236.699622 55.309553 
L 236.760209 53.891012 
L 238.906797 53.891012 
L 238.911089 51.7632 
L 248.313865 51.7632 
L 248.313865 51.408565 
L 274.392679 51.408565 
L 274.392679 51.053929 
L 274.557922 51.053929 
L 274.557922 49.635388 
L 274.793222 49.635388 
L 274.874692 47.507576 
L 274.989169 47.507576 
L 275.038916 45.7344 
L 275.124072 45.7344 
L 275.217656 42.897318 
L 275.326886 42.897318 
L 275.432847 42.188047 
L 275.479155 42.188047 
L 275.56016 40.414871 
L 275.621405 40.414871 
L 275.630113 38.641694 
L 275.782547 38.641694 
L 275.847721 37.577788 
L 275.92913 37.577788 
L 276.014708 36.868518 
L 276.089028 36.868518 
L 276.089028 36.159247 
L 276.50172 36.159247 
L 276.513437 35.449976 
L 276.69086 35.449976 
L 276.69086 35.095341 
L 276.961685 35.095341 
L 276.961685 34.740706 
L 287.62491 34.740706 
L 287.708473 34.031435 
L 287.755051 34.031435 
L 287.755051 33.6768 
L 287.91953 33.6768 
L 288.007749 31.548988 
L 288.091338 31.548988 
L 288.125243 30.130447 
L 288.474792 30.130447 
L 288.521576 29.421176 
L 288.713463 29.421176 
L 288.713463 29.066541 
L 289.558259 29.066541 
L 289.558259 28.711906 
L 295.34732 28.711906 
L 295.376019 28.002635 
L 300.763377 28.002635 
L 300.763377 27.648 
L 360.8064 27.648 
L 360.8064 27.648 
" style="fill: none; stroke: #ff00ff; stroke-width: 1.5; stroke-linecap: square"/>
   </g>
   <g id="line2d_40">
    <defs>
     <path id="mda3ef1fce8" d="M 0 8.485281 
L 5.091169 0 
L 0 -8.485281 
L -5.091169 0 
z
" style="stroke: #ff00ff; stroke-width: 1.5; stroke-linejoin: miter"/>
    </defs>
    <g>
     <use xlink:href="#mda3ef1fce8" x="131.191226" y="215.959341" style="fill-opacity: 0; stroke: #ff00ff; stroke-width: 1.5; stroke-linejoin: miter"/>
     <use xlink:href="#mda3ef1fce8" x="194.287162" y="143.613741" style="fill-opacity: 0; stroke: #ff00ff; stroke-width: 1.5; stroke-linejoin: miter"/>
     <use xlink:href="#mda3ef1fce8" x="248.313865" y="51.7632" style="fill-opacity: 0; stroke: #ff00ff; stroke-width: 1.5; stroke-linejoin: miter"/>
     <use xlink:href="#mda3ef1fce8" x="300.763377" y="28.002635" style="fill-opacity: 0; stroke: #ff00ff; stroke-width: 1.5; stroke-linejoin: miter"/>
     <use xlink:href="#mda3ef1fce8" x="300.763377" y="27.648" style="fill-opacity: 0; stroke: #ff00ff; stroke-width: 1.5; stroke-linejoin: miter"/>
     <use xlink:href="#mda3ef1fce8" x="360.8064" y="27.648" style="fill-opacity: 0; stroke: #ff00ff; stroke-width: 1.5; stroke-linejoin: miter"/>
    </g>
   </g>
   <g id="line2d_41">
    <path style="fill: none; stroke: #ff00ff; stroke-width: 1.5; stroke-linecap: square"/>
    <g/>
   </g>
   <g id="line2d_42">
    <path d="M 274.292272 51.408565 
" clip-path="url(#paf824d1292)" style="fill: none; stroke: #ff00ff; stroke-width: 1.5; stroke-linecap: square"/>
    <defs>
     <path id="m5fd6477e8c" d="M -12 12 
L 12 -12 
M -12 -12 
L 12 12 
" style="stroke: #ff00ff"/>
    </defs>
    <g clip-path="url(#paf824d1292)">
     <use xlink:href="#m5fd6477e8c" x="274.292272" y="51.408565" style="fill: #ff00ff; stroke: #ff00ff"/>
    </g>
   </g>
   <g id="line2d_43">
    <defs>
     <path id="m24c7c88a9e" d="M 0 1.5 
C 0.397805 1.5 0.77937 1.341951 1.06066 1.06066 
C 1.341951 0.77937 1.5 0.397805 1.5 0 
C 1.5 -0.397805 1.341951 -0.77937 1.06066 -1.06066 
C 0.77937 -1.341951 0.397805 -1.5 0 -1.5 
C -0.397805 -1.5 -0.77937 -1.341951 -1.06066 -1.06066 
C -1.341951 -0.77937 -1.5 -0.397805 -1.5 0 
C -1.5 0.397805 -1.341951 0.77937 -1.06066 1.06066 
C -0.77937 1.341951 -0.397805 1.5 0 1.5 
z
" style="stroke: #ff7500"/>
    </defs>
    <g>
     <use xlink:href="#m24c7c88a9e" x="287.305113" y="27.648" style="fill: #ff7500; stroke: #ff7500"/>
     <use xlink:href="#m24c7c88a9e" x="287.305113" y="27.648" style="fill: #ff7500; stroke: #ff7500"/>
    </g>
   </g>
   <g id="line2d_44">
    <path d="M 44.560826 298.944 
L 44.560826 268.090729 
L 57.6 268.090729 
L 57.6 264.899012 
L 65.227428 264.899012 
L 65.227428 263.125835 
L 70.639174 263.125835 
L 70.639174 262.061929 
L 74.836851 262.061929 
L 74.836851 261.707294 
L 78.266603 261.707294 
L 78.266603 259.579482 
L 81.166416 259.579482 
L 81.166416 254.614588 
L 83.678349 254.614588 
L 83.678349 253.196047 
L 85.894031 253.196047 
L 85.894031 252.486776 
L 87.876026 252.486776 
L 87.876026 251.422871 
L 89.668958 251.422871 
L 89.668958 251.068235 
L 91.305777 251.068235 
L 91.305777 250.7136 
L 92.811505 250.7136 
L 92.811505 250.358965 
L 96.717523 250.358965 
L 96.717523 247.876518 
L 97.857967 247.876518 
L 97.857967 247.521882 
L 99.950294 247.521882 
L 99.950294 245.748706 
L 104.344952 245.748706 
L 104.344952 245.394071 
L 106.560633 245.394071 
L 106.560633 243.620894 
L 107.904887 243.620894 
L 107.904887 242.911624 
L 108.542628 242.911624 
L 108.542628 230.499388 
L 109.159456 230.499388 
L 109.159456 229.790118 
L 112.487797 229.790118 
L 112.487797 229.435482 
L 113.954374 229.435482 
L 113.954374 228.016941 
L 114.872193 228.016941 
L 114.872193 226.5984 
L 116.988079 226.5984 
L 116.988079 223.406682 
L 120.944062 223.406682 
L 120.944062 218.087153 
L 122.19863 218.087153 
L 122.19863 216.313976 
L 122.795872 216.313976 
L 122.795872 215.959341 
L 125.011554 215.959341 
L 125.011554 215.250071 
L 126.028642 215.250071 
L 126.028642 213.831529 
L 126.274549 213.831529 
L 126.274549 210.639812 
L 127.227236 210.639812 
L 127.227236 209.930541 
L 128.57149 209.930541 
L 128.57149 209.221271 
L 128.999044 209.221271 
L 128.999044 208.157365 
L 132.812362 208.157365 
L 132.812362 207.448094 
L 133.656071 207.448094 
L 133.656071 206.029553 
L 134.14471 206.029553 
L 134.14471 201.419294 
L 134.620977 201.419294 
L 134.620977 193.971953 
L 135.687504 193.971953 
L 135.687504 193.262682 
L 135.981441 193.262682 
L 135.981441 191.134871 
L 136.126705 191.134871 
L 136.126705 190.780235 
L 137.250116 190.780235 
L 137.250116 187.943153 
L 138.050729 187.943153 
L 138.050729 186.524612 
L 138.692823 186.524612 
L 138.692823 184.042165 
L 141.062184 184.042165 
L 141.062184 181.559718 
L 142.559347 181.559718 
L 142.559347 179.431906 
L 143.166224 179.431906 
L 143.166224 179.077271 
L 143.754133 179.077271 
L 143.754133 178.368 
L 144.041338 178.368 
L 144.041338 178.013365 
L 147.423525 178.013365 
L 147.423525 177.304094 
L 149.31003 177.304094 
L 149.31003 175.530918 
L 150.083698 175.530918 
L 150.083698 171.629929 
L 151.477784 171.629929 
L 151.477784 167.728941 
L 152.230346 167.728941 
L 152.230346 167.374306 
L 153.650761 167.374306 
L 153.650761 167.019671 
L 153.933646 167.019671 
L 153.933646 165.246494 
L 154.156931 165.246494 
L 154.156931 158.508424 
L 154.918196 158.508424 
L 154.918196 158.153788 
L 156.985263 158.153788 
L 156.985263 157.799153 
L 157.549652 157.799153 
L 157.549652 157.089882 
L 158.760826 157.089882 
L 158.760826 154.607435 
L 159.527013 154.607435 
L 159.527013 152.834259 
L 161.579783 152.834259 
L 161.654432 151.770353 
L 162.59884 151.770353 
L 162.66956 145.741553 
L 163.053839 145.741553 
L 163.053839 142.549835 
L 163.3965 142.549835 
L 163.3965 141.485929 
L 163.666204 141.485929 
L 163.666204 140.776659 
L 164.194282 140.776659 
L 164.194282 136.521035 
L 165.330896 136.521035 
L 165.330896 131.910776 
L 166.022686 131.910776 
L 166.022686 130.846871 
L 166.489353 130.846871 
L 166.489353 129.428329 
L 166.8036 129.428329 
L 166.8036 129.073694 
L 167.306762 129.073694 
L 167.306762 125.172706 
L 167.769923 125.172706 
L 167.769923 124.818071 
L 168.248209 124.818071 
L 168.248209 124.1088 
L 168.79126 124.1088 
L 168.79126 120.562447 
L 169.467197 120.562447 
L 169.565302 114.179012 
L 170.635104 114.179012 
L 170.635104 113.469741 
L 170.955893 113.469741 
L 170.955893 112.760471 
L 171.226568 112.760471 
L 171.226568 108.859482 
L 171.9083 108.859482 
L 171.9083 107.795576 
L 172.208263 107.795576 
L 172.208263 106.0224 
L 172.482581 106.0224 
L 172.587032 101.057506 
L 173.0195 101.057506 
L 173.0195 99.638965 
L 173.242125 99.638965 
L 173.242125 97.511153 
L 173.77765 97.511153 
L 173.77765 94.674071 
L 174.126381 94.674071 
L 174.126381 93.9648 
L 174.355328 93.9648 
L 174.449906 91.127718 
L 174.544011 91.127718 
L 174.544011 88.290635 
L 174.7494 88.290635 
L 174.7494 85.808188 
L 175.655719 85.808188 
L 175.655719 84.389647 
L 175.936756 84.389647 
L 175.936756 82.261835 
L 176.350592 82.261835 
L 176.350592 78.006212 
L 176.738821 78.006212 
L 176.805529 76.233035 
L 177.810347 76.233035 
L 177.810347 75.8784 
L 178.231693 75.8784 
L 178.231693 74.105224 
L 178.628705 74.105224 
L 178.628705 72.686682 
L 178.824112 72.686682 
L 178.928497 71.622776 
L 180.179707 71.622776 
L 180.179707 68.076424 
L 181.195331 68.076424 
L 181.195331 66.303247 
L 181.496113 66.303247 
L 181.496113 64.884706 
L 181.944791 64.884706 
L 181.957455 62.402259 
L 182.481765 62.402259 
L 182.481765 62.047624 
L 182.665533 62.047624 
L 182.665533 60.274447 
L 182.955878 60.274447 
L 182.955878 59.210541 
L 183.158861 59.210541 
L 183.158861 58.855906 
L 183.418335 58.855906 
L 183.418335 57.437365 
L 183.535105 57.437365 
L 183.558372 56.018824 
L 183.708911 56.018824 
L 183.708911 54.245647 
L 184.521534 54.245647 
L 184.521534 53.891012 
L 184.96906 53.891012 
L 184.96906 52.472471 
L 185.33227 52.472471 
L 185.33227 52.117835 
L 186.748259 52.117835 
L 186.836369 50.344659 
L 187.871955 50.344659 
L 187.918118 44.670494 
L 188.092513 44.670494 
L 188.092513 44.315859 
L 188.606202 44.315859 
L 188.606202 42.188047 
L 189.304298 42.188047 
L 189.304298 41.833412 
L 274.177787 41.833412 
L 274.281986 30.485082 
L 274.315253 30.485082 
L 274.368675 29.066541 
L 287.21715 29.066541 
L 287.305113 27.648 
L 360.8064 27.648 
L 360.8064 27.648 
" style="fill: none; stroke: #ff7500; stroke-width: 1.5; stroke-linecap: square"/>
   </g>
   <g id="line2d_45">
    <defs>
     <path id="mef2a734b86" d="M 0 -6 
L -1.347084 -1.854102 
L -5.706339 -1.854102 
L -2.179628 0.708204 
L -3.526712 4.854102 
L -0 2.291796 
L 3.526712 4.854102 
L 2.179628 0.708204 
L 5.706339 -1.854102 
L 1.347084 -1.854102 
z
" style="stroke: #ff7500; stroke-width: 1.5; stroke-linejoin: bevel"/>
    </defs>
    <g>
     <use xlink:href="#mef2a734b86" x="96.717523" y="247.876518" style="fill-opacity: 0; stroke: #ff7500; stroke-width: 1.5; stroke-linejoin: bevel"/>
     <use xlink:href="#mef2a734b86" x="159.527013" y="152.834259" style="fill-opacity: 0; stroke: #ff7500; stroke-width: 1.5; stroke-linejoin: bevel"/>
     <use xlink:href="#mef2a734b86" x="189.304298" y="42.188047" style="fill-opacity: 0; stroke: #ff7500; stroke-width: 1.5; stroke-linejoin: bevel"/>
     <use xlink:href="#mef2a734b86" x="287.305113" y="28.002635" style="fill-opacity: 0; stroke: #ff7500; stroke-width: 1.5; stroke-linejoin: bevel"/>
     <use xlink:href="#mef2a734b86" x="287.305113" y="27.648" style="fill-opacity: 0; stroke: #ff7500; stroke-width: 1.5; stroke-linejoin: bevel"/>
     <use xlink:href="#mef2a734b86" x="360.8064" y="27.648" style="fill-opacity: 0; stroke: #ff7500; stroke-width: 1.5; stroke-linejoin: bevel"/>
    </g>
   </g>
   <g id="line2d_46">
    <path style="fill: none; stroke: #ff7500; stroke-width: 1.5; stroke-linecap: square"/>
    <g/>
   </g>
   <g id="line2d_47">
    <path d="M 274.176 41.833412 
" clip-path="url(#paf824d1292)" style="fill: none; stroke: #ff7500; stroke-width: 1.5; stroke-linecap: square"/>
    <defs>
     <path id="m788eb9063b" d="M -12 12 
L 12 -12 
M -12 -12 
L 12 12 
" style="stroke: #ff7500"/>
    </defs>
    <g clip-path="url(#paf824d1292)">
     <use xlink:href="#m788eb9063b" x="274.176" y="41.833412" style="fill: #ff7500; stroke: #ff7500"/>
    </g>
   </g>
   <g id="line2d_48">
    <path d="M 360.8064 27.648 
L 380.514816 293.51808 
" style="fill: none; stroke: #ff00ff; stroke-width: 1.5; stroke-linecap: square"/>
    <g>
     <use xlink:href="#mda3ef1fce8" x="360.8064" y="27.648" style="fill-opacity: 0; stroke: #ff00ff; stroke-width: 1.5; stroke-linejoin: miter"/>
     <use xlink:href="#mda3ef1fce8" x="380.514816" y="293.51808" style="fill-opacity: 0; stroke: #ff00ff; stroke-width: 1.5; stroke-linejoin: miter"/>
    </g>
   </g>
   <g id="line2d_49">
    <path d="M 360.8064 27.648 
L 380.514816 206.70336 
" style="fill: none; stroke: #ff7500; stroke-width: 1.5; stroke-linecap: square"/>
    <g>
     <use xlink:href="#mef2a734b86" x="360.8064" y="27.648" style="fill-opacity: 0; stroke: #ff7500; stroke-width: 1.5; stroke-linejoin: bevel"/>
     <use xlink:href="#mef2a734b86" x="380.514816" y="206.70336" style="fill-opacity: 0; stroke: #ff7500; stroke-width: 1.5; stroke-linejoin: bevel"/>
    </g>
   </g>
   <g id="line2d_50">
    <path d="M 360.8064 27.648 
L 380.514816 119.88864 
" style="fill: none; stroke: #000080; stroke-width: 1.5; stroke-linecap: square"/>
    <g>
     <use xlink:href="#ma7fdcd4865" x="360.8064" y="27.648" style="fill-opacity: 0; stroke: #000080; stroke-width: 1.5"/>
     <use xlink:href="#ma7fdcd4865" x="380.514816" y="119.88864" style="fill-opacity: 0; stroke: #000080; stroke-width: 1.5"/>
    </g>
   </g>
   <g id="line2d_51">
    <path d="M 360.8064 298.944 
L 360.8064 27.648 
" style="fill: none; stroke: #000000; stroke-width: 1.5; stroke-linecap: square"/>
   </g>
   <g id="patch_3">
    <path d="M 57.6 298.944 
L 360.8064 298.944 
" style="fill: none; stroke: #000000; stroke-width: 0.8; stroke-linejoin: miter; stroke-linecap: square"/>
   </g>
   <g id="patch_4">
    <path d="M 57.6 27.648 
L 360.8064 27.648 
" style="fill: none; stroke: #000000; stroke-width: 0.8; stroke-linejoin: miter; stroke-linecap: square"/>
   </g>
   <g id="text_13">
    <!-- GA -->
    <g transform="translate(386.578944 297.381205)scale(0.14 -0.14)">
     <defs>
      <path id="DejaVuSans-47" d="M 3809 666 
L 3809 1919 
L 2778 1919 
L 2778 2438 
L 4434 2438 
L 4434 434 
Q 4069 175 3628 42 
Q 3188 -91 2688 -91 
Q 1594 -91 976 548 
Q 359 1188 359 2328 
Q 359 3472 976 4111 
Q 1594 4750 2688 4750 
Q 3144 4750 3555 4637 
Q 3966 4525 4313 4306 
L 4313 3634 
Q 3963 3931 3569 4081 
Q 3175 4231 2741 4231 
Q 1884 4231 1454 3753 
Q 1025 3275 1025 2328 
Q 1025 1384 1454 906 
Q 1884 428 2741 428 
Q 3075 428 3337 486 
Q 3600 544 3809 666 
z
" transform="scale(0.015625)"/>
      <path id="DejaVuSans-41" d="M 2188 4044 
L 1331 1722 
L 3047 1722 
L 2188 4044 
z
M 1831 4666 
L 2547 4666 
L 4325 0 
L 3669 0 
L 3244 1197 
L 1141 1197 
L 716 0 
L 50 0 
L 1831 4666 
z
" transform="scale(0.015625)"/>
     </defs>
     <use xlink:href="#DejaVuSans-47"/>
     <use xlink:href="#DejaVuSans-41" x="77.490234"/>
    </g>
   </g>
   <g id="text_14">
    <!-- PSO -->
    <g transform="translate(386.578944 210.566485)scale(0.14 -0.14)">
     <defs>
      <path id="DejaVuSans-50" d="M 1259 4147 
L 1259 2394 
L 2053 2394 
Q 2494 2394 2734 2622 
Q 2975 2850 2975 3272 
Q 2975 3691 2734 3919 
Q 2494 4147 2053 4147 
L 1259 4147 
z
M 628 4666 
L 2053 4666 
Q 2838 4666 3239 4311 
Q 3641 3956 3641 3272 
Q 3641 2581 3239 2228 
Q 2838 1875 2053 1875 
L 1259 1875 
L 1259 0 
L 628 0 
L 628 4666 
z
" transform="scale(0.015625)"/>
      <path id="DejaVuSans-53" d="M 3425 4513 
L 3425 3897 
Q 3066 4069 2747 4153 
Q 2428 4238 2131 4238 
Q 1616 4238 1336 4038 
Q 1056 3838 1056 3469 
Q 1056 3159 1242 3001 
Q 1428 2844 1947 2747 
L 2328 2669 
Q 3034 2534 3370 2195 
Q 3706 1856 3706 1288 
Q 3706 609 3251 259 
Q 2797 -91 1919 -91 
Q 1588 -91 1214 -16 
Q 841 59 441 206 
L 441 856 
Q 825 641 1194 531 
Q 1563 422 1919 422 
Q 2459 422 2753 634 
Q 3047 847 3047 1241 
Q 3047 1584 2836 1778 
Q 2625 1972 2144 2069 
L 1759 2144 
Q 1053 2284 737 2584 
Q 422 2884 422 3419 
Q 422 4038 858 4394 
Q 1294 4750 2059 4750 
Q 2388 4750 2728 4690 
Q 3069 4631 3425 4513 
z
" transform="scale(0.015625)"/>
      <path id="DejaVuSans-4f" d="M 2522 4238 
Q 1834 4238 1429 3725 
Q 1025 3213 1025 2328 
Q 1025 1447 1429 934 
Q 1834 422 2522 422 
Q 3209 422 3611 934 
Q 4013 1447 4013 2328 
Q 4013 3213 3611 3725 
Q 3209 4238 2522 4238 
z
M 2522 4750 
Q 3503 4750 4090 4092 
Q 4678 3434 4678 2328 
Q 4678 1225 4090 567 
Q 3503 -91 2522 -91 
Q 1538 -91 948 565 
Q 359 1222 359 2328 
Q 359 3434 948 4092 
Q 1538 4750 2522 4750 
z
" transform="scale(0.015625)"/>
     </defs>
     <use xlink:href="#DejaVuSans-50"/>
     <use xlink:href="#DejaVuSans-53" x="60.302734"/>
     <use xlink:href="#DejaVuSans-4f" x="123.779297"/>
    </g>
   </g>
   <g id="text_15">
    <!-- LCGA -->
    <g transform="translate(386.578944 123.751765)scale(0.14 -0.14)">
     <defs>
      <path id="DejaVuSans-4c" d="M 628 4666 
L 1259 4666 
L 1259 531 
L 3531 531 
L 3531 0 
L 628 0 
L 628 4666 
z
" transform="scale(0.015625)"/>
      <path id="DejaVuSans-43" d="M 4122 4306 
L 4122 3641 
Q 3803 3938 3442 4084 
Q 3081 4231 2675 4231 
Q 1875 4231 1450 3742 
Q 1025 3253 1025 2328 
Q 1025 1406 1450 917 
Q 1875 428 2675 428 
Q 3081 428 3442 575 
Q 3803 722 4122 1019 
L 4122 359 
Q 3791 134 3420 21 
Q 3050 -91 2638 -91 
Q 1578 -91 968 557 
Q 359 1206 359 2328 
Q 359 3453 968 4101 
Q 1578 4750 2638 4750 
Q 3056 4750 3426 4639 
Q 3797 4528 4122 4306 
z
" transform="scale(0.015625)"/>
     </defs>
     <use xlink:href="#DejaVuSans-4c"/>
     <use xlink:href="#DejaVuSans-43" x="55.712891"/>
     <use xlink:href="#DejaVuSans-47" x="125.537109"/>
     <use xlink:href="#DejaVuSans-41" x="203.027344"/>
    </g>
   </g>
   <g id="text_16">
    <!-- best 2009 -->
    <g transform="translate(386.578944 36.937045)scale(0.14 -0.14)">
     <defs>
      <path id="DejaVuSans-62" d="M 3116 1747 
Q 3116 2381 2855 2742 
Q 2594 3103 2138 3103 
Q 1681 3103 1420 2742 
Q 1159 2381 1159 1747 
Q 1159 1113 1420 752 
Q 1681 391 2138 391 
Q 2594 391 2855 752 
Q 3116 1113 3116 1747 
z
M 1159 2969 
Q 1341 3281 1617 3432 
Q 1894 3584 2278 3584 
Q 2916 3584 3314 3078 
Q 3713 2572 3713 1747 
Q 3713 922 3314 415 
Q 2916 -91 2278 -91 
Q 1894 -91 1617 61 
Q 1341 213 1159 525 
L 1159 0 
L 581 0 
L 581 4863 
L 1159 4863 
L 1159 2969 
z
" transform="scale(0.015625)"/>
      <path id="DejaVuSans-39" d="M 703 97 
L 703 672 
Q 941 559 1184 500 
Q 1428 441 1663 441 
Q 2288 441 2617 861 
Q 2947 1281 2994 2138 
Q 2813 1869 2534 1725 
Q 2256 1581 1919 1581 
Q 1219 1581 811 2004 
Q 403 2428 403 3163 
Q 403 3881 828 4315 
Q 1253 4750 1959 4750 
Q 2769 4750 3195 4129 
Q 3622 3509 3622 2328 
Q 3622 1225 3098 567 
Q 2575 -91 1691 -91 
Q 1453 -91 1209 -44 
Q 966 3 703 97 
z
M 1959 2075 
Q 2384 2075 2632 2365 
Q 2881 2656 2881 3163 
Q 2881 3666 2632 3958 
Q 2384 4250 1959 4250 
Q 1534 4250 1286 3958 
Q 1038 3666 1038 3163 
Q 1038 2656 1286 2365 
Q 1534 2075 1959 2075 
z
" transform="scale(0.015625)"/>
     </defs>
     <use xlink:href="#DejaVuSans-62"/>
     <use xlink:href="#DejaVuSans-65" x="63.476562"/>
     <use xlink:href="#DejaVuSans-73" x="125"/>
     <use xlink:href="#DejaVuSans-74" x="177.099609"/>
     <use xlink:href="#DejaVuSans-20" x="216.308594"/>
     <use xlink:href="#DejaVuSans-32" x="248.095703"/>
     <use xlink:href="#DejaVuSans-30" x="311.71875"/>
     <use xlink:href="#DejaVuSans-30" x="375.341797"/>
     <use xlink:href="#DejaVuSans-39" x="438.964844"/>
    </g>
   </g>
   <g id="text_17">
    <!-- bbob f21, 2-D -->
    <g transform="translate(60.632064 38.111366)scale(0.102 -0.102)">
     <defs>
      <path id="DejaVuSans-44" d="M 1259 4147 
L 1259 519 
L 2022 519 
Q 2988 519 3436 956 
Q 3884 1394 3884 2338 
Q 3884 3275 3436 3711 
Q 2988 4147 2022 4147 
L 1259 4147 
z
M 628 4666 
L 1925 4666 
Q 3281 4666 3915 4102 
Q 4550 3538 4550 2338 
Q 4550 1131 3912 565 
Q 3275 0 1925 0 
L 628 0 
L 628 4666 
z
" transform="scale(0.015625)"/>
     </defs>
     <use xlink:href="#DejaVuSans-62"/>
     <use xlink:href="#DejaVuSans-62" x="63.476562"/>
     <use xlink:href="#DejaVuSans-6f" x="126.953125"/>
     <use xlink:href="#DejaVuSans-62" x="188.134766"/>
     <use xlink:href="#DejaVuSans-20" x="251.611328"/>
     <use xlink:href="#DejaVuSans-66" x="283.398438"/>
     <use xlink:href="#DejaVuSans-32" x="318.603516"/>
     <use xlink:href="#DejaVuSans-31" x="382.226562"/>
     <use xlink:href="#DejaVuSans-2c" x="445.849609"/>
     <use xlink:href="#DejaVuSans-20" x="477.636719"/>
     <use xlink:href="#DejaVuSans-32" x="509.423828"/>
     <use xlink:href="#DejaVuSans-2d" x="573.046875"/>
     <use xlink:href="#DejaVuSans-44" x="609.130859"/>
    </g>
    <!-- 51 targets: 100..1e-08 -->
    <g transform="translate(60.632064 49.533135)scale(0.102 -0.102)">
     <defs>
      <path id="DejaVuSans-35" d="M 691 4666 
L 3169 4666 
L 3169 4134 
L 1269 4134 
L 1269 2991 
Q 1406 3038 1543 3061 
Q 1681 3084 1819 3084 
Q 2600 3084 3056 2656 
Q 3513 2228 3513 1497 
Q 3513 744 3044 326 
Q 2575 -91 1722 -91 
Q 1428 -91 1123 -41 
Q 819 9 494 109 
L 494 744 
Q 775 591 1075 516 
Q 1375 441 1709 441 
Q 2250 441 2565 725 
Q 2881 1009 2881 1497 
Q 2881 1984 2565 2268 
Q 2250 2553 1709 2553 
Q 1456 2553 1204 2497 
Q 953 2441 691 2322 
L 691 4666 
z
" transform="scale(0.015625)"/>
      <path id="DejaVuSans-3a" d="M 750 794 
L 1409 794 
L 1409 0 
L 750 0 
L 750 794 
z
M 750 3309 
L 1409 3309 
L 1409 2516 
L 750 2516 
L 750 3309 
z
" transform="scale(0.015625)"/>
     </defs>
     <use xlink:href="#DejaVuSans-35"/>
     <use xlink:href="#DejaVuSans-31" x="63.623047"/>
     <use xlink:href="#DejaVuSans-20" x="127.246094"/>
     <use xlink:href="#DejaVuSans-74" x="159.033203"/>
     <use xlink:href="#DejaVuSans-61" x="198.242188"/>
     <use xlink:href="#DejaVuSans-72" x="259.521484"/>
     <use xlink:href="#DejaVuSans-67" x="298.884766"/>
     <use xlink:href="#DejaVuSans-65" x="362.361328"/>
     <use xlink:href="#DejaVuSans-74" x="423.884766"/>
     <use xlink:href="#DejaVuSans-73" x="463.09375"/>
     <use xlink:href="#DejaVuSans-3a" x="515.193359"/>
     <use xlink:href="#DejaVuSans-20" x="548.884766"/>
     <use xlink:href="#DejaVuSans-31" x="580.671875"/>
     <use xlink:href="#DejaVuSans-30" x="644.294922"/>
     <use xlink:href="#DejaVuSans-30" x="707.917969"/>
     <use xlink:href="#DejaVuSans-2e" x="771.541016"/>
     <use xlink:href="#DejaVuSans-2e" x="803.328125"/>
     <use xlink:href="#DejaVuSans-31" x="835.115234"/>
     <use xlink:href="#DejaVuSans-65" x="898.738281"/>
     <use xlink:href="#DejaVuSans-2d" x="960.261719"/>
     <use xlink:href="#DejaVuSans-30" x="996.345703"/>
     <use xlink:href="#DejaVuSans-38" x="1059.96875"/>
    </g>
    <!-- 15 instances -->
    <g transform="translate(60.632064 60.954904)scale(0.102 -0.102)">
     <use xlink:href="#DejaVuSans-31"/>
     <use xlink:href="#DejaVuSans-35" x="63.623047"/>
     <use xlink:href="#DejaVuSans-20" x="127.246094"/>
     <use xlink:href="#DejaVuSans-69" x="159.033203"/>
     <use xlink:href="#DejaVuSans-6e" x="186.816406"/>
     <use xlink:href="#DejaVuSans-73" x="250.195312"/>
     <use xlink:href="#DejaVuSans-74" x="302.294922"/>
     <use xlink:href="#DejaVuSans-61" x="341.503906"/>
     <use xlink:href="#DejaVuSans-6e" x="402.783203"/>
     <use xlink:href="#DejaVuSans-63" x="466.162109"/>
     <use xlink:href="#DejaVuSans-65" x="521.142578"/>
     <use xlink:href="#DejaVuSans-73" x="582.666016"/>
    </g>
   </g>
   <g id="text_18">
    <!-- v2.6 -->
    <g style="fill: #808080" transform="translate(198.292262 294.151352)scale(0.1 -0.1)">
     <use xlink:href="#DejaVuSans-76"/>
     <use xlink:href="#DejaVuSans-32" x="59.179688"/>
     <use xlink:href="#DejaVuSans-2e" x="122.802734"/>
     <use xlink:href="#DejaVuSans-36" x="154.589844"/>
    </g>
   </g>
   <g id="text_19">
    <!-- 21 Gallagher 101 peaks -->
    <g transform="translate(89.7157 21.648)scale(0.2 -0.2)">
     <defs>
      <path id="DejaVuSans-68" d="M 3513 2113 
L 3513 0 
L 2938 0 
L 2938 2094 
Q 2938 2591 2744 2837 
Q 2550 3084 2163 3084 
Q 1697 3084 1428 2787 
Q 1159 2491 1159 1978 
L 1159 0 
L 581 0 
L 581 4863 
L 1159 4863 
L 1159 2956 
Q 1366 3272 1645 3428 
Q 1925 3584 2291 3584 
Q 2894 3584 3203 3211 
Q 3513 2838 3513 2113 
z
" transform="scale(0.015625)"/>
      <path id="DejaVuSans-6b" d="M 581 4863 
L 1159 4863 
L 1159 1991 
L 2875 3500 
L 3609 3500 
L 1753 1863 
L 3688 0 
L 2938 0 
L 1159 1709 
L 1159 0 
L 581 0 
L 581 4863 
z
" transform="scale(0.015625)"/>
     </defs>
     <use xlink:href="#DejaVuSans-32"/>
     <use xlink:href="#DejaVuSans-31" x="63.623047"/>
     <use xlink:href="#DejaVuSans-20" x="127.246094"/>
     <use xlink:href="#DejaVuSans-47" x="159.033203"/>
     <use xlink:href="#DejaVuSans-61" x="236.523438"/>
     <use xlink:href="#DejaVuSans-6c" x="297.802734"/>
     <use xlink:href="#DejaVuSans-6c" x="325.585938"/>
     <use xlink:href="#DejaVuSans-61" x="353.369141"/>
     <use xlink:href="#DejaVuSans-67" x="414.648438"/>
     <use xlink:href="#DejaVuSans-68" x="478.125"/>
     <use xlink:href="#DejaVuSans-65" x="541.503906"/>
     <use xlink:href="#DejaVuSans-72" x="603.027344"/>
     <use xlink:href="#DejaVuSans-20" x="644.140625"/>
     <use xlink:href="#DejaVuSans-31" x="675.927734"/>
     <use xlink:href="#DejaVuSans-30" x="739.550781"/>
     <use xlink:href="#DejaVuSans-31" x="803.173828"/>
     <use xlink:href="#DejaVuSans-20" x="866.796875"/>
     <use xlink:href="#DejaVuSans-70" x="898.583984"/>
     <use xlink:href="#DejaVuSans-65" x="962.060547"/>
     <use xlink:href="#DejaVuSans-61" x="1023.583984"/>
     <use xlink:href="#DejaVuSans-6b" x="1084.863281"/>
     <use xlink:href="#DejaVuSans-73" x="1142.773438"/>
    </g>
   </g>
  </g>
 </g>
 <defs>
  <clipPath id="paf824d1292">
   <rect x="57.6" y="27.648" width="303.2064" height="271.296"/>
  </clipPath>
 </defs>
</svg>
