<?xml version="1.0" encoding="utf-8" standalone="no"?>
<!DOCTYPE svg PUBLIC "-//W3C//DTD SVG 1.1//EN"
  "http://www.w3.org/Graphics/SVG/1.1/DTD/svg11.dtd">
<svg xmlns:xlink="http://www.w3.org/1999/xlink" width="460.8pt" height="345.6pt" viewBox="0 0 460.8 345.6" xmlns="http://www.w3.org/2000/svg" version="1.1">
 <metadata>
  <rdf:RDF xmlns:dc="http://purl.org/dc/elements/1.1/" xmlns:cc="http://creativecommons.org/ns#" xmlns:rdf="http://www.w3.org/1999/02/22-rdf-syntax-ns#">
   <cc:Work>
    <dc:type rdf:resource="http://purl.org/dc/dcmitype/StillImage"/>
    <dc:date>2024-05-29T08:09:13.064820</dc:date>
    <dc:format>image/svg+xml</dc:format>
    <dc:creator>
     <cc:Agent>
      <dc:title>Matplotlib v3.5.1, https://matplotlib.org/</dc:title>
     </cc:Agent>
    </dc:creator>
   </cc:Work>
  </rdf:RDF>
 </metadata>
 <defs>
  <style type="text/css">*{stroke-linejoin: round; stroke-linecap: butt}</style>
 </defs>
 <g id="figure_1">
  <g id="patch_1">
   <path d="M 0 345.6 
L 460.8 345.6 
L 460.8 0 
L 0 0 
z
" style="fill: #ffffff"/>
  </g>
  <g id="axes_1">
   <g id="patch_2">
    <path d="M 57.6 298.944 
L 360.8064 298.944 
L 360.8064 27.648 
L 57.6 27.648 
z
" style="fill: #ffffff"/>
   </g>
   <g id="line2d_1">
    <path d="M 1.245626 298.944 
L 1.245626 293.624471 
L 72.854856 293.624471 
L 72.854856 288.304941 
L 80.621116 288.304941 
L 80.621116 282.985412 
L 96.120281 282.985412 
L 96.120281 277.665882 
L 103.625951 277.665882 
L 103.625951 272.346353 
L 116.86762 272.346353 
L 116.86762 267.026824 
L 134.916493 267.026824 
L 134.916493 261.707294 
L 150.465671 261.707294 
L 150.465671 256.387765 
L 150.553245 256.387765 
L 150.553245 251.068235 
L 163.3965 251.068235 
L 163.3965 245.748706 
L 163.531835 245.748706 
L 163.531835 240.429176 
L 190.101805 240.429176 
L 190.101805 235.109647 
L 190.304337 235.109647 
L 190.304337 229.790118 
L 190.36273 229.790118 
L 190.36273 224.470588 
L 190.406406 224.470588 
L 190.406406 219.151059 
L 190.572098 219.151059 
L 190.572098 213.831529 
L 190.642437 213.831529 
L 190.642437 208.512 
L 190.745867 208.512 
L 190.745867 203.192471 
L 190.812398 203.192471 
L 190.812398 197.872941 
L 190.921976 197.872941 
L 190.921976 192.553412 
L 191.102681 192.553412 
L 191.102681 187.233882 
L 191.141568 187.233882 
L 191.141568 181.914353 
L 191.18735 181.914353 
L 191.18735 176.594824 
L 191.59673 176.594824 
L 191.59673 171.275294 
L 191.644445 171.275294 
L 191.644445 165.955765 
L 191.704108 165.955765 
L 191.704108 160.636235 
L 192.021872 160.636235 
L 192.021872 155.316706 
L 192.089957 155.316706 
L 192.089957 149.997176 
L 192.170306 149.997176 
L 192.170306 144.677647 
L 192.34602 144.677647 
L 192.34602 139.358118 
L 192.58282 139.358118 
L 192.58282 134.038588 
L 192.622357 134.038588 
L 192.622357 128.719059 
L 192.712622 128.719059 
L 192.712622 123.399529 
L 192.784666 123.399529 
L 192.784666 118.08 
L 192.906722 118.08 
L 192.906722 112.760471 
L 193.084131 112.760471 
L 193.084131 107.440941 
L 199.181136 107.440941 
L 199.181136 102.121412 
L 199.249924 102.121412 
L 199.249924 96.801882 
L 199.276663 96.801882 
L 199.276663 91.482353 
L 199.442803 91.482353 
L 199.442803 86.162824 
L 214.831331 86.162824 
L 214.831331 80.843294 
L 214.865921 80.843294 
L 214.865921 75.523765 
L 223.40998 75.523765 
L 223.40998 70.204235 
L 223.418923 70.204235 
L 223.418923 64.884706 
L 223.430794 64.884706 
L 223.430794 59.565176 
L 223.43875 59.565176 
L 223.43875 54.245647 
L 223.445448 54.245647 
L 223.445448 48.926118 
L 223.461066 48.926118 
L 223.461066 43.606588 
L 223.467059 43.606588 
L 223.467059 38.287059 
L 223.472353 38.287059 
L 223.472353 32.967529 
L 223.486 32.967529 
L 223.486 27.648 
L 360.8064 27.648 
" style="fill: none; stroke: #f5deb3; stroke-width: 4; stroke-linecap: square"/>
   </g>
   <g id="line2d_2">
    <defs>
     <path id="m9709d87af1" d="M 0 7.778175 
L 7.778175 0 
L 0 -7.778175 
L -7.778175 0 
z
" style="stroke: #f5deb3; stroke-width: 1.5; stroke-linejoin: miter"/>
    </defs>
    <g>
     <use xlink:href="#m9709d87af1" x="134.916493" y="261.707294" style="fill: #f5deb3; stroke: #f5deb3; stroke-width: 1.5; stroke-linejoin: miter"/>
     <use xlink:href="#m9709d87af1" x="192.170306" y="149.997176" style="fill: #f5deb3; stroke: #f5deb3; stroke-width: 1.5; stroke-linejoin: miter"/>
     <use xlink:href="#m9709d87af1" x="223.467059" y="43.606588" style="fill: #f5deb3; stroke: #f5deb3; stroke-width: 1.5; stroke-linejoin: miter"/>
     <use xlink:href="#m9709d87af1" x="223.486" y="27.648" style="fill: #f5deb3; stroke: #f5deb3; stroke-width: 1.5; stroke-linejoin: miter"/>
     <use xlink:href="#m9709d87af1" x="223.486" y="27.648" style="fill: #f5deb3; stroke: #f5deb3; stroke-width: 1.5; stroke-linejoin: miter"/>
     <use xlink:href="#m9709d87af1" x="360.8064" y="27.648" style="fill: #f5deb3; stroke: #f5deb3; stroke-width: 1.5; stroke-linejoin: miter"/>
    </g>
   </g>
   <g id="line2d_3">
    <path style="fill: none; stroke: #f5deb3; stroke-width: 4; stroke-linecap: square"/>
    <g/>
   </g>
   <g id="line2d_4">
    <path d="M 360.8064 27.648 
L 380.514816 33.07392 
" style="fill: none; stroke: #f5deb3; stroke-width: 4; stroke-linecap: square"/>
    <g>
     <use xlink:href="#m9709d87af1" x="360.8064" y="27.648" style="fill: #f5deb3; stroke: #f5deb3; stroke-width: 1.5; stroke-linejoin: miter"/>
     <use xlink:href="#m9709d87af1" x="380.514816" y="33.07392" style="fill: #f5deb3; stroke: #f5deb3; stroke-width: 1.5; stroke-linejoin: miter"/>
    </g>
   </g>
   <g id="matplotlib.axis_1">
    <g id="xtick_1">
     <g id="line2d_5">
      <path d="M 57.6 298.944 
L 57.6 27.648 
" clip-path="url(#p6904e223cd)" style="fill: none; stroke: #b0b0b0; stroke-width: 0.8; stroke-linecap: square"/>
     </g>
     <g id="line2d_6">
      <defs>
       <path id="m64864b730b" d="M 0 0 
L 0 3.5 
" style="stroke: #000000; stroke-width: 0.8"/>
      </defs>
      <g>
       <use xlink:href="#m64864b730b" x="57.6" y="298.944" style="stroke: #000000; stroke-width: 0.8"/>
      </g>
     </g>
     <g id="text_1">
      <!-- 0 -->
      <g transform="translate(52.191875 318.861344)scale(0.17 -0.17)">
       <defs>
        <path id="DejaVuSans-30" d="M 2034 4250 
Q 1547 4250 1301 3770 
Q 1056 3291 1056 2328 
Q 1056 1369 1301 889 
Q 1547 409 2034 409 
Q 2525 409 2770 889 
Q 3016 1369 3016 2328 
Q 3016 3291 2770 3770 
Q 2525 4250 2034 4250 
z
M 2034 4750 
Q 2819 4750 3233 4129 
Q 3647 3509 3647 2328 
Q 3647 1150 3233 529 
Q 2819 -91 2034 -91 
Q 1250 -91 836 529 
Q 422 1150 422 2328 
Q 422 3509 836 4129 
Q 1250 4750 2034 4750 
z
" transform="scale(0.015625)"/>
       </defs>
       <use xlink:href="#DejaVuSans-30"/>
      </g>
     </g>
    </g>
    <g id="xtick_2">
     <g id="line2d_7">
      <path d="M 144.2304 298.944 
L 144.2304 27.648 
" clip-path="url(#p6904e223cd)" style="fill: none; stroke: #b0b0b0; stroke-width: 0.8; stroke-linecap: square"/>
     </g>
     <g id="line2d_8">
      <g>
       <use xlink:href="#m64864b730b" x="144.2304" y="298.944" style="stroke: #000000; stroke-width: 0.8"/>
      </g>
     </g>
     <g id="text_2">
      <!-- 2 -->
      <g transform="translate(138.822275 318.861344)scale(0.17 -0.17)">
       <defs>
        <path id="DejaVuSans-32" d="M 1228 531 
L 3431 531 
L 3431 0 
L 469 0 
L 469 531 
Q 828 903 1448 1529 
Q 2069 2156 2228 2338 
Q 2531 2678 2651 2914 
Q 2772 3150 2772 3378 
Q 2772 3750 2511 3984 
Q 2250 4219 1831 4219 
Q 1534 4219 1204 4116 
Q 875 4013 500 3803 
L 500 4441 
Q 881 4594 1212 4672 
Q 1544 4750 1819 4750 
Q 2544 4750 2975 4387 
Q 3406 4025 3406 3419 
Q 3406 3131 3298 2873 
Q 3191 2616 2906 2266 
Q 2828 2175 2409 1742 
Q 1991 1309 1228 531 
z
" transform="scale(0.015625)"/>
       </defs>
       <use xlink:href="#DejaVuSans-32"/>
      </g>
     </g>
    </g>
    <g id="xtick_3">
     <g id="line2d_9">
      <path d="M 230.8608 298.944 
L 230.8608 27.648 
" clip-path="url(#p6904e223cd)" style="fill: none; stroke: #b0b0b0; stroke-width: 0.8; stroke-linecap: square"/>
     </g>
     <g id="line2d_10">
      <g>
       <use xlink:href="#m64864b730b" x="230.8608" y="298.944" style="stroke: #000000; stroke-width: 0.8"/>
      </g>
     </g>
     <g id="text_3">
      <!-- 4 -->
      <g transform="translate(225.452675 318.861344)scale(0.17 -0.17)">
       <defs>
        <path id="DejaVuSans-34" d="M 2419 4116 
L 825 1625 
L 2419 1625 
L 2419 4116 
z
M 2253 4666 
L 3047 4666 
L 3047 1625 
L 3713 1625 
L 3713 1100 
L 3047 1100 
L 3047 0 
L 2419 0 
L 2419 1100 
L 313 1100 
L 313 1709 
L 2253 4666 
z
" transform="scale(0.015625)"/>
       </defs>
       <use xlink:href="#DejaVuSans-34"/>
      </g>
     </g>
    </g>
    <g id="xtick_4">
     <g id="line2d_11">
      <path d="M 317.4912 298.944 
L 317.4912 27.648 
" clip-path="url(#p6904e223cd)" style="fill: none; stroke: #b0b0b0; stroke-width: 0.8; stroke-linecap: square"/>
     </g>
     <g id="line2d_12">
      <g>
       <use xlink:href="#m64864b730b" x="317.4912" y="298.944" style="stroke: #000000; stroke-width: 0.8"/>
      </g>
     </g>
     <g id="text_4">
      <!-- 6 -->
      <g transform="translate(312.083075 318.861344)scale(0.17 -0.17)">
       <defs>
        <path id="DejaVuSans-36" d="M 2113 2584 
Q 1688 2584 1439 2293 
Q 1191 2003 1191 1497 
Q 1191 994 1439 701 
Q 1688 409 2113 409 
Q 2538 409 2786 701 
Q 3034 994 3034 1497 
Q 3034 2003 2786 2293 
Q 2538 2584 2113 2584 
z
M 3366 4563 
L 3366 3988 
Q 3128 4100 2886 4159 
Q 2644 4219 2406 4219 
Q 1781 4219 1451 3797 
Q 1122 3375 1075 2522 
Q 1259 2794 1537 2939 
Q 1816 3084 2150 3084 
Q 2853 3084 3261 2657 
Q 3669 2231 3669 1497 
Q 3669 778 3244 343 
Q 2819 -91 2113 -91 
Q 1303 -91 875 529 
Q 447 1150 447 2328 
Q 447 3434 972 4092 
Q 1497 4750 2381 4750 
Q 2619 4750 2861 4703 
Q 3103 4656 3366 4563 
z
" transform="scale(0.015625)"/>
       </defs>
       <use xlink:href="#DejaVuSans-36"/>
      </g>
     </g>
    </g>
    <g id="xtick_5">
     <g id="line2d_13">
      <path d="M 100.9152 298.944 
L 100.9152 27.648 
" clip-path="url(#p6904e223cd)" style="fill: none; stroke: #b0b0b0; stroke-width: 0.8; stroke-linecap: square"/>
     </g>
     <g id="line2d_14">
      <defs>
       <path id="m399c7fb029" d="M 0 0 
L 0 2 
" style="stroke: #000000; stroke-width: 0.6"/>
      </defs>
      <g>
       <use xlink:href="#m399c7fb029" x="100.9152" y="298.944" style="stroke: #000000; stroke-width: 0.6"/>
      </g>
     </g>
    </g>
    <g id="xtick_6">
     <g id="line2d_15">
      <path d="M 187.5456 298.944 
L 187.5456 27.648 
" clip-path="url(#p6904e223cd)" style="fill: none; stroke: #b0b0b0; stroke-width: 0.8; stroke-linecap: square"/>
     </g>
     <g id="line2d_16">
      <g>
       <use xlink:href="#m399c7fb029" x="187.5456" y="298.944" style="stroke: #000000; stroke-width: 0.6"/>
      </g>
     </g>
    </g>
    <g id="xtick_7">
     <g id="line2d_17">
      <path d="M 274.176 298.944 
L 274.176 27.648 
" clip-path="url(#p6904e223cd)" style="fill: none; stroke: #b0b0b0; stroke-width: 0.8; stroke-linecap: square"/>
     </g>
     <g id="line2d_18">
      <g>
       <use xlink:href="#m399c7fb029" x="274.176" y="298.944" style="stroke: #000000; stroke-width: 0.6"/>
      </g>
     </g>
    </g>
    <g id="xtick_8">
     <g id="line2d_19">
      <path d="M 360.8064 298.944 
L 360.8064 27.648 
" clip-path="url(#p6904e223cd)" style="fill: none; stroke: #b0b0b0; stroke-width: 0.8; stroke-linecap: square"/>
     </g>
     <g id="line2d_20">
      <g>
       <use xlink:href="#m399c7fb029" x="360.8064" y="298.944" style="stroke: #000000; stroke-width: 0.6"/>
      </g>
     </g>
    </g>
    <g id="text_5">
     <!-- log10(# f-evals / dimension) -->
     <g transform="translate(88.823278 339.314156)scale(0.17 -0.17)">
      <defs>
       <path id="DejaVuSans-6c" d="M 603 4863 
L 1178 4863 
L 1178 0 
L 603 0 
L 603 4863 
z
" transform="scale(0.015625)"/>
       <path id="DejaVuSans-6f" d="M 1959 3097 
Q 1497 3097 1228 2736 
Q 959 2375 959 1747 
Q 959 1119 1226 758 
Q 1494 397 1959 397 
Q 2419 397 2687 759 
Q 2956 1122 2956 1747 
Q 2956 2369 2687 2733 
Q 2419 3097 1959 3097 
z
M 1959 3584 
Q 2709 3584 3137 3096 
Q 3566 2609 3566 1747 
Q 3566 888 3137 398 
Q 2709 -91 1959 -91 
Q 1206 -91 779 398 
Q 353 888 353 1747 
Q 353 2609 779 3096 
Q 1206 3584 1959 3584 
z
" transform="scale(0.015625)"/>
       <path id="DejaVuSans-67" d="M 2906 1791 
Q 2906 2416 2648 2759 
Q 2391 3103 1925 3103 
Q 1463 3103 1205 2759 
Q 947 2416 947 1791 
Q 947 1169 1205 825 
Q 1463 481 1925 481 
Q 2391 481 2648 825 
Q 2906 1169 2906 1791 
z
M 3481 434 
Q 3481 -459 3084 -895 
Q 2688 -1331 1869 -1331 
Q 1566 -1331 1297 -1286 
Q 1028 -1241 775 -1147 
L 775 -588 
Q 1028 -725 1275 -790 
Q 1522 -856 1778 -856 
Q 2344 -856 2625 -561 
Q 2906 -266 2906 331 
L 2906 616 
Q 2728 306 2450 153 
Q 2172 0 1784 0 
Q 1141 0 747 490 
Q 353 981 353 1791 
Q 353 2603 747 3093 
Q 1141 3584 1784 3584 
Q 2172 3584 2450 3431 
Q 2728 3278 2906 2969 
L 2906 3500 
L 3481 3500 
L 3481 434 
z
" transform="scale(0.015625)"/>
       <path id="DejaVuSans-31" d="M 794 531 
L 1825 531 
L 1825 4091 
L 703 3866 
L 703 4441 
L 1819 4666 
L 2450 4666 
L 2450 531 
L 3481 531 
L 3481 0 
L 794 0 
L 794 531 
z
" transform="scale(0.015625)"/>
       <path id="DejaVuSans-28" d="M 1984 4856 
Q 1566 4138 1362 3434 
Q 1159 2731 1159 2009 
Q 1159 1288 1364 580 
Q 1569 -128 1984 -844 
L 1484 -844 
Q 1016 -109 783 600 
Q 550 1309 550 2009 
Q 550 2706 781 3412 
Q 1013 4119 1484 4856 
L 1984 4856 
z
" transform="scale(0.015625)"/>
       <path id="DejaVuSans-23" d="M 3272 2816 
L 2363 2816 
L 2100 1772 
L 3016 1772 
L 3272 2816 
z
M 2803 4594 
L 2478 3297 
L 3391 3297 
L 3719 4594 
L 4219 4594 
L 3897 3297 
L 4872 3297 
L 4872 2816 
L 3775 2816 
L 3519 1772 
L 4513 1772 
L 4513 1294 
L 3397 1294 
L 3072 0 
L 2572 0 
L 2894 1294 
L 1978 1294 
L 1656 0 
L 1153 0 
L 1478 1294 
L 494 1294 
L 494 1772 
L 1594 1772 
L 1856 2816 
L 850 2816 
L 850 3297 
L 1978 3297 
L 2297 4594 
L 2803 4594 
z
" transform="scale(0.015625)"/>
       <path id="DejaVuSans-20" transform="scale(0.015625)"/>
       <path id="DejaVuSans-66" d="M 2375 4863 
L 2375 4384 
L 1825 4384 
Q 1516 4384 1395 4259 
Q 1275 4134 1275 3809 
L 1275 3500 
L 2222 3500 
L 2222 3053 
L 1275 3053 
L 1275 0 
L 697 0 
L 697 3053 
L 147 3053 
L 147 3500 
L 697 3500 
L 697 3744 
Q 697 4328 969 4595 
Q 1241 4863 1831 4863 
L 2375 4863 
z
" transform="scale(0.015625)"/>
       <path id="DejaVuSans-2d" d="M 313 2009 
L 1997 2009 
L 1997 1497 
L 313 1497 
L 313 2009 
z
" transform="scale(0.015625)"/>
       <path id="DejaVuSans-65" d="M 3597 1894 
L 3597 1613 
L 953 1613 
Q 991 1019 1311 708 
Q 1631 397 2203 397 
Q 2534 397 2845 478 
Q 3156 559 3463 722 
L 3463 178 
Q 3153 47 2828 -22 
Q 2503 -91 2169 -91 
Q 1331 -91 842 396 
Q 353 884 353 1716 
Q 353 2575 817 3079 
Q 1281 3584 2069 3584 
Q 2775 3584 3186 3129 
Q 3597 2675 3597 1894 
z
M 3022 2063 
Q 3016 2534 2758 2815 
Q 2500 3097 2075 3097 
Q 1594 3097 1305 2825 
Q 1016 2553 972 2059 
L 3022 2063 
z
" transform="scale(0.015625)"/>
       <path id="DejaVuSans-76" d="M 191 3500 
L 800 3500 
L 1894 563 
L 2988 3500 
L 3597 3500 
L 2284 0 
L 1503 0 
L 191 3500 
z
" transform="scale(0.015625)"/>
       <path id="DejaVuSans-61" d="M 2194 1759 
Q 1497 1759 1228 1600 
Q 959 1441 959 1056 
Q 959 750 1161 570 
Q 1363 391 1709 391 
Q 2188 391 2477 730 
Q 2766 1069 2766 1631 
L 2766 1759 
L 2194 1759 
z
M 3341 1997 
L 3341 0 
L 2766 0 
L 2766 531 
Q 2569 213 2275 61 
Q 1981 -91 1556 -91 
Q 1019 -91 701 211 
Q 384 513 384 1019 
Q 384 1609 779 1909 
Q 1175 2209 1959 2209 
L 2766 2209 
L 2766 2266 
Q 2766 2663 2505 2880 
Q 2244 3097 1772 3097 
Q 1472 3097 1187 3025 
Q 903 2953 641 2809 
L 641 3341 
Q 956 3463 1253 3523 
Q 1550 3584 1831 3584 
Q 2591 3584 2966 3190 
Q 3341 2797 3341 1997 
z
" transform="scale(0.015625)"/>
       <path id="DejaVuSans-73" d="M 2834 3397 
L 2834 2853 
Q 2591 2978 2328 3040 
Q 2066 3103 1784 3103 
Q 1356 3103 1142 2972 
Q 928 2841 928 2578 
Q 928 2378 1081 2264 
Q 1234 2150 1697 2047 
L 1894 2003 
Q 2506 1872 2764 1633 
Q 3022 1394 3022 966 
Q 3022 478 2636 193 
Q 2250 -91 1575 -91 
Q 1294 -91 989 -36 
Q 684 19 347 128 
L 347 722 
Q 666 556 975 473 
Q 1284 391 1588 391 
Q 1994 391 2212 530 
Q 2431 669 2431 922 
Q 2431 1156 2273 1281 
Q 2116 1406 1581 1522 
L 1381 1569 
Q 847 1681 609 1914 
Q 372 2147 372 2553 
Q 372 3047 722 3315 
Q 1072 3584 1716 3584 
Q 2034 3584 2315 3537 
Q 2597 3491 2834 3397 
z
" transform="scale(0.015625)"/>
       <path id="DejaVuSans-2f" d="M 1625 4666 
L 2156 4666 
L 531 -594 
L 0 -594 
L 1625 4666 
z
" transform="scale(0.015625)"/>
       <path id="DejaVuSans-64" d="M 2906 2969 
L 2906 4863 
L 3481 4863 
L 3481 0 
L 2906 0 
L 2906 525 
Q 2725 213 2448 61 
Q 2172 -91 1784 -91 
Q 1150 -91 751 415 
Q 353 922 353 1747 
Q 353 2572 751 3078 
Q 1150 3584 1784 3584 
Q 2172 3584 2448 3432 
Q 2725 3281 2906 2969 
z
M 947 1747 
Q 947 1113 1208 752 
Q 1469 391 1925 391 
Q 2381 391 2643 752 
Q 2906 1113 2906 1747 
Q 2906 2381 2643 2742 
Q 2381 3103 1925 3103 
Q 1469 3103 1208 2742 
Q 947 2381 947 1747 
z
" transform="scale(0.015625)"/>
       <path id="DejaVuSans-69" d="M 603 3500 
L 1178 3500 
L 1178 0 
L 603 0 
L 603 3500 
z
M 603 4863 
L 1178 4863 
L 1178 4134 
L 603 4134 
L 603 4863 
z
" transform="scale(0.015625)"/>
       <path id="DejaVuSans-6d" d="M 3328 2828 
Q 3544 3216 3844 3400 
Q 4144 3584 4550 3584 
Q 5097 3584 5394 3201 
Q 5691 2819 5691 2113 
L 5691 0 
L 5113 0 
L 5113 2094 
Q 5113 2597 4934 2840 
Q 4756 3084 4391 3084 
Q 3944 3084 3684 2787 
Q 3425 2491 3425 1978 
L 3425 0 
L 2847 0 
L 2847 2094 
Q 2847 2600 2669 2842 
Q 2491 3084 2119 3084 
Q 1678 3084 1418 2786 
Q 1159 2488 1159 1978 
L 1159 0 
L 581 0 
L 581 3500 
L 1159 3500 
L 1159 2956 
Q 1356 3278 1631 3431 
Q 1906 3584 2284 3584 
Q 2666 3584 2933 3390 
Q 3200 3197 3328 2828 
z
" transform="scale(0.015625)"/>
       <path id="DejaVuSans-6e" d="M 3513 2113 
L 3513 0 
L 2938 0 
L 2938 2094 
Q 2938 2591 2744 2837 
Q 2550 3084 2163 3084 
Q 1697 3084 1428 2787 
Q 1159 2491 1159 1978 
L 1159 0 
L 581 0 
L 581 3500 
L 1159 3500 
L 1159 2956 
Q 1366 3272 1645 3428 
Q 1925 3584 2291 3584 
Q 2894 3584 3203 3211 
Q 3513 2838 3513 2113 
z
" transform="scale(0.015625)"/>
       <path id="DejaVuSans-29" d="M 513 4856 
L 1013 4856 
Q 1481 4119 1714 3412 
Q 1947 2706 1947 2009 
Q 1947 1309 1714 600 
Q 1481 -109 1013 -844 
L 513 -844 
Q 928 -128 1133 580 
Q 1338 1288 1338 2009 
Q 1338 2731 1133 3434 
Q 928 4138 513 4856 
z
" transform="scale(0.015625)"/>
      </defs>
      <use xlink:href="#DejaVuSans-6c"/>
      <use xlink:href="#DejaVuSans-6f" x="27.783203"/>
      <use xlink:href="#DejaVuSans-67" x="88.964844"/>
      <use xlink:href="#DejaVuSans-31" x="152.441406"/>
      <use xlink:href="#DejaVuSans-30" x="216.064453"/>
      <use xlink:href="#DejaVuSans-28" x="279.6875"/>
      <use xlink:href="#DejaVuSans-23" x="318.701172"/>
      <use xlink:href="#DejaVuSans-20" x="402.490234"/>
      <use xlink:href="#DejaVuSans-66" x="434.277344"/>
      <use xlink:href="#DejaVuSans-2d" x="463.982422"/>
      <use xlink:href="#DejaVuSans-65" x="500.066406"/>
      <use xlink:href="#DejaVuSans-76" x="561.589844"/>
      <use xlink:href="#DejaVuSans-61" x="620.769531"/>
      <use xlink:href="#DejaVuSans-6c" x="682.048828"/>
      <use xlink:href="#DejaVuSans-73" x="709.832031"/>
      <use xlink:href="#DejaVuSans-20" x="761.931641"/>
      <use xlink:href="#DejaVuSans-2f" x="793.71875"/>
      <use xlink:href="#DejaVuSans-20" x="827.410156"/>
      <use xlink:href="#DejaVuSans-64" x="859.197266"/>
      <use xlink:href="#DejaVuSans-69" x="922.673828"/>
      <use xlink:href="#DejaVuSans-6d" x="950.457031"/>
      <use xlink:href="#DejaVuSans-65" x="1047.869141"/>
      <use xlink:href="#DejaVuSans-6e" x="1109.392578"/>
      <use xlink:href="#DejaVuSans-73" x="1172.771484"/>
      <use xlink:href="#DejaVuSans-69" x="1224.871094"/>
      <use xlink:href="#DejaVuSans-6f" x="1252.654297"/>
      <use xlink:href="#DejaVuSans-6e" x="1313.835938"/>
      <use xlink:href="#DejaVuSans-29" x="1377.214844"/>
     </g>
    </g>
   </g>
   <g id="matplotlib.axis_2">
    <g id="ytick_1">
     <g id="line2d_21">
      <path d="M 57.6 298.944 
L 360.8064 298.944 
" clip-path="url(#p6904e223cd)" style="fill: none; stroke: #b0b0b0; stroke-width: 0.8; stroke-linecap: square"/>
     </g>
     <g id="line2d_22">
      <defs>
       <path id="m5f8d7149a1" d="M 0 0 
L -3.5 0 
" style="stroke: #000000; stroke-width: 0.8"/>
      </defs>
      <g>
       <use xlink:href="#m5f8d7149a1" x="57.6" y="298.944" style="stroke: #000000; stroke-width: 0.8"/>
      </g>
     </g>
     <g id="text_6">
      <!-- 0.0 -->
      <g transform="translate(25.155 305.02275)scale(0.16 -0.16)">
       <defs>
        <path id="DejaVuSans-2e" d="M 684 794 
L 1344 794 
L 1344 0 
L 684 0 
L 684 794 
z
" transform="scale(0.015625)"/>
       </defs>
       <use xlink:href="#DejaVuSans-30"/>
       <use xlink:href="#DejaVuSans-2e" x="63.623047"/>
       <use xlink:href="#DejaVuSans-30" x="95.410156"/>
      </g>
     </g>
    </g>
    <g id="ytick_2">
     <g id="line2d_23">
      <path d="M 57.6 244.6848 
L 360.8064 244.6848 
" clip-path="url(#p6904e223cd)" style="fill: none; stroke: #b0b0b0; stroke-width: 0.8; stroke-linecap: square"/>
     </g>
     <g id="line2d_24">
      <g>
       <use xlink:href="#m5f8d7149a1" x="57.6" y="244.6848" style="stroke: #000000; stroke-width: 0.8"/>
      </g>
     </g>
     <g id="text_7">
      <!-- 0.2 -->
      <g transform="translate(25.155 250.76355)scale(0.16 -0.16)">
       <use xlink:href="#DejaVuSans-30"/>
       <use xlink:href="#DejaVuSans-2e" x="63.623047"/>
       <use xlink:href="#DejaVuSans-32" x="95.410156"/>
      </g>
     </g>
    </g>
    <g id="ytick_3">
     <g id="line2d_25">
      <path d="M 57.6 190.4256 
L 360.8064 190.4256 
" clip-path="url(#p6904e223cd)" style="fill: none; stroke: #b0b0b0; stroke-width: 0.8; stroke-linecap: square"/>
     </g>
     <g id="line2d_26">
      <g>
       <use xlink:href="#m5f8d7149a1" x="57.6" y="190.4256" style="stroke: #000000; stroke-width: 0.8"/>
      </g>
     </g>
     <g id="text_8">
      <!-- 0.4 -->
      <g transform="translate(25.155 196.50435)scale(0.16 -0.16)">
       <use xlink:href="#DejaVuSans-30"/>
       <use xlink:href="#DejaVuSans-2e" x="63.623047"/>
       <use xlink:href="#DejaVuSans-34" x="95.410156"/>
      </g>
     </g>
    </g>
    <g id="ytick_4">
     <g id="line2d_27">
      <path d="M 57.6 136.1664 
L 360.8064 136.1664 
" clip-path="url(#p6904e223cd)" style="fill: none; stroke: #b0b0b0; stroke-width: 0.8; stroke-linecap: square"/>
     </g>
     <g id="line2d_28">
      <g>
       <use xlink:href="#m5f8d7149a1" x="57.6" y="136.1664" style="stroke: #000000; stroke-width: 0.8"/>
      </g>
     </g>
     <g id="text_9">
      <!-- 0.6 -->
      <g transform="translate(25.155 142.24515)scale(0.16 -0.16)">
       <use xlink:href="#DejaVuSans-30"/>
       <use xlink:href="#DejaVuSans-2e" x="63.623047"/>
       <use xlink:href="#DejaVuSans-36" x="95.410156"/>
      </g>
     </g>
    </g>
    <g id="ytick_5">
     <g id="line2d_29">
      <path d="M 57.6 81.9072 
L 360.8064 81.9072 
" clip-path="url(#p6904e223cd)" style="fill: none; stroke: #b0b0b0; stroke-width: 0.8; stroke-linecap: square"/>
     </g>
     <g id="line2d_30">
      <g>
       <use xlink:href="#m5f8d7149a1" x="57.6" y="81.9072" style="stroke: #000000; stroke-width: 0.8"/>
      </g>
     </g>
     <g id="text_10">
      <!-- 0.8 -->
      <g transform="translate(25.155 87.98595)scale(0.16 -0.16)">
       <defs>
        <path id="DejaVuSans-38" d="M 2034 2216 
Q 1584 2216 1326 1975 
Q 1069 1734 1069 1313 
Q 1069 891 1326 650 
Q 1584 409 2034 409 
Q 2484 409 2743 651 
Q 3003 894 3003 1313 
Q 3003 1734 2745 1975 
Q 2488 2216 2034 2216 
z
M 1403 2484 
Q 997 2584 770 2862 
Q 544 3141 544 3541 
Q 544 4100 942 4425 
Q 1341 4750 2034 4750 
Q 2731 4750 3128 4425 
Q 3525 4100 3525 3541 
Q 3525 3141 3298 2862 
Q 3072 2584 2669 2484 
Q 3125 2378 3379 2068 
Q 3634 1759 3634 1313 
Q 3634 634 3220 271 
Q 2806 -91 2034 -91 
Q 1263 -91 848 271 
Q 434 634 434 1313 
Q 434 1759 690 2068 
Q 947 2378 1403 2484 
z
M 1172 3481 
Q 1172 3119 1398 2916 
Q 1625 2713 2034 2713 
Q 2441 2713 2670 2916 
Q 2900 3119 2900 3481 
Q 2900 3844 2670 4047 
Q 2441 4250 2034 4250 
Q 1625 4250 1398 4047 
Q 1172 3844 1172 3481 
z
" transform="scale(0.015625)"/>
       </defs>
       <use xlink:href="#DejaVuSans-30"/>
       <use xlink:href="#DejaVuSans-2e" x="63.623047"/>
       <use xlink:href="#DejaVuSans-38" x="95.410156"/>
      </g>
     </g>
    </g>
    <g id="ytick_6">
     <g id="line2d_31">
      <path d="M 57.6 27.648 
L 360.8064 27.648 
" clip-path="url(#p6904e223cd)" style="fill: none; stroke: #b0b0b0; stroke-width: 0.8; stroke-linecap: square"/>
     </g>
     <g id="line2d_32">
      <g>
       <use xlink:href="#m5f8d7149a1" x="57.6" y="27.648" style="stroke: #000000; stroke-width: 0.8"/>
      </g>
     </g>
     <g id="text_11">
      <!-- 1.0 -->
      <g transform="translate(25.155 33.72675)scale(0.16 -0.16)">
       <use xlink:href="#DejaVuSans-31"/>
       <use xlink:href="#DejaVuSans-2e" x="63.623047"/>
       <use xlink:href="#DejaVuSans-30" x="95.410156"/>
      </g>
     </g>
    </g>
    <g id="text_12">
     <!-- Fraction of function,target pairs -->
     <g transform="translate(17.619531 297.681)rotate(-90)scale(0.17 -0.17)">
      <defs>
       <path id="DejaVuSans-46" d="M 628 4666 
L 3309 4666 
L 3309 4134 
L 1259 4134 
L 1259 2759 
L 3109 2759 
L 3109 2228 
L 1259 2228 
L 1259 0 
L 628 0 
L 628 4666 
z
" transform="scale(0.015625)"/>
       <path id="DejaVuSans-72" d="M 2631 2963 
Q 2534 3019 2420 3045 
Q 2306 3072 2169 3072 
Q 1681 3072 1420 2755 
Q 1159 2438 1159 1844 
L 1159 0 
L 581 0 
L 581 3500 
L 1159 3500 
L 1159 2956 
Q 1341 3275 1631 3429 
Q 1922 3584 2338 3584 
Q 2397 3584 2469 3576 
Q 2541 3569 2628 3553 
L 2631 2963 
z
" transform="scale(0.015625)"/>
       <path id="DejaVuSans-63" d="M 3122 3366 
L 3122 2828 
Q 2878 2963 2633 3030 
Q 2388 3097 2138 3097 
Q 1578 3097 1268 2742 
Q 959 2388 959 1747 
Q 959 1106 1268 751 
Q 1578 397 2138 397 
Q 2388 397 2633 464 
Q 2878 531 3122 666 
L 3122 134 
Q 2881 22 2623 -34 
Q 2366 -91 2075 -91 
Q 1284 -91 818 406 
Q 353 903 353 1747 
Q 353 2603 823 3093 
Q 1294 3584 2113 3584 
Q 2378 3584 2631 3529 
Q 2884 3475 3122 3366 
z
" transform="scale(0.015625)"/>
       <path id="DejaVuSans-74" d="M 1172 4494 
L 1172 3500 
L 2356 3500 
L 2356 3053 
L 1172 3053 
L 1172 1153 
Q 1172 725 1289 603 
Q 1406 481 1766 481 
L 2356 481 
L 2356 0 
L 1766 0 
Q 1100 0 847 248 
Q 594 497 594 1153 
L 594 3053 
L 172 3053 
L 172 3500 
L 594 3500 
L 594 4494 
L 1172 4494 
z
" transform="scale(0.015625)"/>
       <path id="DejaVuSans-75" d="M 544 1381 
L 544 3500 
L 1119 3500 
L 1119 1403 
Q 1119 906 1312 657 
Q 1506 409 1894 409 
Q 2359 409 2629 706 
Q 2900 1003 2900 1516 
L 2900 3500 
L 3475 3500 
L 3475 0 
L 2900 0 
L 2900 538 
Q 2691 219 2414 64 
Q 2138 -91 1772 -91 
Q 1169 -91 856 284 
Q 544 659 544 1381 
z
M 1991 3584 
L 1991 3584 
z
" transform="scale(0.015625)"/>
       <path id="DejaVuSans-2c" d="M 750 794 
L 1409 794 
L 1409 256 
L 897 -744 
L 494 -744 
L 750 256 
L 750 794 
z
" transform="scale(0.015625)"/>
       <path id="DejaVuSans-70" d="M 1159 525 
L 1159 -1331 
L 581 -1331 
L 581 3500 
L 1159 3500 
L 1159 2969 
Q 1341 3281 1617 3432 
Q 1894 3584 2278 3584 
Q 2916 3584 3314 3078 
Q 3713 2572 3713 1747 
Q 3713 922 3314 415 
Q 2916 -91 2278 -91 
Q 1894 -91 1617 61 
Q 1341 213 1159 525 
z
M 3116 1747 
Q 3116 2381 2855 2742 
Q 2594 3103 2138 3103 
Q 1681 3103 1420 2742 
Q 1159 2381 1159 1747 
Q 1159 1113 1420 752 
Q 1681 391 2138 391 
Q 2594 391 2855 752 
Q 3116 1113 3116 1747 
z
" transform="scale(0.015625)"/>
      </defs>
      <use xlink:href="#DejaVuSans-46"/>
      <use xlink:href="#DejaVuSans-72" x="50.269531"/>
      <use xlink:href="#DejaVuSans-61" x="91.382812"/>
      <use xlink:href="#DejaVuSans-63" x="152.662109"/>
      <use xlink:href="#DejaVuSans-74" x="207.642578"/>
      <use xlink:href="#DejaVuSans-69" x="246.851562"/>
      <use xlink:href="#DejaVuSans-6f" x="274.634766"/>
      <use xlink:href="#DejaVuSans-6e" x="335.816406"/>
      <use xlink:href="#DejaVuSans-20" x="399.195312"/>
      <use xlink:href="#DejaVuSans-6f" x="430.982422"/>
      <use xlink:href="#DejaVuSans-66" x="492.164062"/>
      <use xlink:href="#DejaVuSans-20" x="527.369141"/>
      <use xlink:href="#DejaVuSans-66" x="559.15625"/>
      <use xlink:href="#DejaVuSans-75" x="594.361328"/>
      <use xlink:href="#DejaVuSans-6e" x="657.740234"/>
      <use xlink:href="#DejaVuSans-63" x="721.119141"/>
      <use xlink:href="#DejaVuSans-74" x="776.099609"/>
      <use xlink:href="#DejaVuSans-69" x="815.308594"/>
      <use xlink:href="#DejaVuSans-6f" x="843.091797"/>
      <use xlink:href="#DejaVuSans-6e" x="904.273438"/>
      <use xlink:href="#DejaVuSans-2c" x="967.652344"/>
      <use xlink:href="#DejaVuSans-74" x="999.439453"/>
      <use xlink:href="#DejaVuSans-61" x="1038.648438"/>
      <use xlink:href="#DejaVuSans-72" x="1099.927734"/>
      <use xlink:href="#DejaVuSans-67" x="1139.291016"/>
      <use xlink:href="#DejaVuSans-65" x="1202.767578"/>
      <use xlink:href="#DejaVuSans-74" x="1264.291016"/>
      <use xlink:href="#DejaVuSans-20" x="1303.5"/>
      <use xlink:href="#DejaVuSans-70" x="1335.287109"/>
      <use xlink:href="#DejaVuSans-61" x="1398.763672"/>
      <use xlink:href="#DejaVuSans-69" x="1460.042969"/>
      <use xlink:href="#DejaVuSans-72" x="1487.826172"/>
      <use xlink:href="#DejaVuSans-73" x="1528.939453"/>
     </g>
    </g>
   </g>
   <g id="line2d_33">
    <defs>
     <path id="mbcc1ef888b" d="M 0 1.5 
C 0.397805 1.5 0.77937 1.341951 1.06066 1.06066 
C 1.341951 0.77937 1.5 0.397805 1.5 0 
C 1.5 -0.397805 1.341951 -0.77937 1.06066 -1.06066 
C 0.77937 -1.341951 0.397805 -1.5 0 -1.5 
C -0.397805 -1.5 -0.77937 -1.341951 -1.06066 -1.06066 
C -1.341951 -0.77937 -1.5 -0.397805 -1.5 0 
C -1.5 0.397805 -1.341951 0.77937 -1.06066 1.06066 
C -0.77937 1.341951 -0.397805 1.5 0 1.5 
z
" style="stroke: #f5deb3"/>
    </defs>
    <g>
     <use xlink:href="#mbcc1ef888b" x="223.486" y="27.648" style="fill: #f5deb3; stroke: #f5deb3"/>
     <use xlink:href="#mbcc1ef888b" x="223.486" y="27.648" style="fill: #f5deb3; stroke: #f5deb3"/>
    </g>
   </g>
   <g id="line2d_34">
    <defs>
     <path id="m6183b399b9" d="M 0 1.5 
C 0.397805 1.5 0.77937 1.341951 1.06066 1.06066 
C 1.341951 0.77937 1.5 0.397805 1.5 0 
C 1.5 -0.397805 1.341951 -0.77937 1.06066 -1.06066 
C 0.77937 -1.341951 0.397805 -1.5 0 -1.5 
C -0.397805 -1.5 -0.77937 -1.341951 -1.06066 -1.06066 
C -1.341951 -0.77937 -1.5 -0.397805 -1.5 0 
C -1.5 0.397805 -1.341951 0.77937 -1.06066 1.06066 
C -0.77937 1.341951 -0.397805 1.5 0 1.5 
z
" style="stroke: #000080"/>
    </defs>
    <g>
     <use xlink:href="#m6183b399b9" x="353.072478" y="27.648" style="fill: #000080; stroke: #000080"/>
     <use xlink:href="#m6183b399b9" x="353.072478" y="27.648" style="fill: #000080; stroke: #000080"/>
    </g>
   </g>
   <g id="line2d_35">
    <path d="M 1.245626 298.944 
L 1.245626 293.624471 
L 120.550775 293.624471 
L 120.550775 293.269835 
L 122.015696 293.269835 
L 122.015696 292.560565 
L 123.174153 292.560565 
L 123.174153 292.205929 
L 123.289033 292.205929 
L 123.289033 291.851294 
L 123.797484 291.851294 
L 123.797484 291.496659 
L 124.427792 291.496659 
L 124.481616 290.787388 
L 124.615507 290.787388 
L 124.615507 290.432753 
L 126.127391 290.432753 
L 126.127391 290.078118 
L 127.017049 290.078118 
L 127.017049 289.723482 
L 129.437756 289.723482 
L 129.437756 289.368847 
L 133.356676 289.368847 
L 133.356676 289.014212 
L 133.738397 289.014212 
L 133.738397 288.659576 
L 134.97812 288.659576 
L 134.97812 288.304941 
L 135.478982 288.304941 
L 135.508912 287.595671 
L 135.702311 287.595671 
L 135.74666 286.8864 
L 135.849738 286.8864 
L 135.849738 286.531765 
L 135.966853 286.531765 
L 135.966853 286.177129 
L 136.328207 286.177129 
L 136.328207 285.822494 
L 136.584151 285.822494 
L 136.584151 285.467859 
L 138.464186 285.467859 
L 138.464186 285.113224 
L 139.030652 285.113224 
L 139.030652 284.758588 
L 139.712569 284.758588 
L 139.712569 284.403953 
L 140.815692 284.403953 
L 140.815692 284.049318 
L 141.062184 284.049318 
L 141.062184 283.694682 
L 141.338423 283.694682 
L 141.338423 283.340047 
L 143.036385 283.340047 
L 143.136341 282.630776 
L 143.47227 282.630776 
L 143.47227 282.276141 
L 143.657415 282.276141 
L 143.763777 281.566871 
L 146.587679 281.566871 
L 146.587679 281.212235 
L 146.826795 281.212235 
L 146.826795 280.8576 
L 147.070998 280.8576 
L 147.070998 280.502965 
L 147.707122 280.502965 
L 147.707122 280.148329 
L 147.994208 280.148329 
L 147.994208 279.793694 
L 148.223807 279.793694 
L 148.223807 279.439059 
L 149.064312 279.439059 
L 149.064312 279.084424 
L 149.388844 279.084424 
L 149.388844 278.729788 
L 149.580909 278.729788 
L 149.580909 278.375153 
L 149.806031 278.375153 
L 149.806031 278.020518 
L 150.357325 278.020518 
L 150.357325 277.665882 
L 151.355818 277.665882 
L 151.355818 277.311247 
L 152.817404 277.311247 
L 152.882835 276.601976 
L 153.299778 276.601976 
L 153.299778 276.247341 
L 153.559331 276.247341 
L 153.559331 275.892706 
L 153.944874 275.892706 
L 153.944874 275.538071 
L 154.079083 275.538071 
L 154.079083 275.183435 
L 154.880856 275.183435 
L 154.880856 274.8288 
L 155.082676 274.8288 
L 155.082676 274.474165 
L 155.598521 274.474165 
L 155.598521 274.119529 
L 155.782649 274.119529 
L 155.782649 273.764894 
L 156.190463 273.764894 
L 156.190463 273.410259 
L 157.339986 273.410259 
L 157.414802 272.700988 
L 157.943962 272.700988 
L 157.948499 271.991718 
L 158.347948 271.991718 
L 158.379008 271.282447 
L 158.734741 271.282447 
L 158.734741 270.927812 
L 158.912271 270.927812 
L 158.912271 270.573176 
L 159.614403 270.573176 
L 159.614403 270.218541 
L 160.000673 270.218541 
L 160.000673 269.863906 
L 161.327528 269.863906 
L 161.327528 269.509271 
L 164.909539 269.509271 
L 164.909539 269.154635 
L 165.071763 269.154635 
L 165.081079 268.445365 
L 168.187768 268.445365 
L 168.187768 268.090729 
L 168.62227 268.090729 
L 168.62227 267.736094 
L 168.834543 267.736094 
L 168.834543 267.381459 
L 169.107216 267.381459 
L 169.107216 267.026824 
L 172.864133 267.026824 
L 172.864133 266.672188 
L 174.867875 266.672188 
L 174.867875 266.317553 
L 176.488232 266.317553 
L 176.488232 265.962918 
L 177.096265 265.962918 
L 177.096265 265.608282 
L 246.372037 265.608282 
L 246.466851 264.899012 
L 246.51107 264.899012 
L 246.51107 264.544376 
L 246.631643 264.544376 
L 246.631643 264.189741 
L 246.927794 264.189741 
L 246.927794 263.835106 
L 247.082818 263.835106 
L 247.082818 263.480471 
L 247.273521 263.480471 
L 247.273521 263.125835 
L 247.72014 263.125835 
L 247.72014 262.7712 
L 247.90399 262.7712 
L 247.90399 262.416565 
L 248.060292 262.416565 
L 248.060292 262.061929 
L 248.486023 262.061929 
L 248.486023 261.707294 
L 248.890253 261.707294 
L 248.890253 261.352659 
L 249.107225 261.352659 
L 249.107225 260.998024 
L 249.394696 260.998024 
L 249.394696 260.643388 
L 249.650597 260.643388 
L 249.650597 260.288753 
L 249.902414 260.288753 
L 249.98131 259.579482 
L 250.130721 259.579482 
L 250.130721 259.224847 
L 250.910894 259.224847 
L 250.910894 258.870212 
L 251.230992 258.870212 
L 251.230992 258.515576 
L 251.347902 258.515576 
L 251.347902 258.160941 
L 252.819847 258.160941 
L 252.819847 257.806306 
L 253.112002 257.806306 
L 253.112002 257.451671 
L 253.433207 257.451671 
L 253.433207 257.097035 
L 254.417727 257.097035 
L 254.417727 256.7424 
L 255.146456 256.7424 
L 255.146456 256.387765 
L 256.05693 256.387765 
L 256.05693 256.033129 
L 257.427797 256.033129 
L 257.427797 255.678494 
L 257.975999 255.678494 
L 257.975999 255.323859 
L 258.692557 255.323859 
L 258.692557 254.969224 
L 258.850414 254.969224 
L 258.850414 254.614588 
L 259.645522 254.614588 
L 259.645522 254.259953 
L 260.079675 254.259953 
L 260.079675 253.905318 
L 260.317038 253.905318 
L 260.317038 253.550682 
L 261.46697 253.550682 
L 261.46697 253.196047 
L 261.859193 253.196047 
L 261.859193 252.841412 
L 262.245887 252.841412 
L 262.245887 252.486776 
L 262.964288 252.486776 
L 262.964288 252.132141 
L 263.635386 252.132141 
L 263.635386 251.777506 
L 263.98711 251.777506 
L 263.98711 251.422871 
L 264.989361 251.422871 
L 264.989361 251.068235 
L 265.492889 251.068235 
L 265.492889 250.7136 
L 265.802458 250.7136 
L 265.802458 250.358965 
L 266.3429 250.358965 
L 266.3429 250.004329 
L 266.896536 250.004329 
L 266.896536 249.649694 
L 267.828143 249.649694 
L 267.828143 249.295059 
L 268.034266 249.295059 
L 268.034266 248.940424 
L 268.273703 248.940424 
L 268.273703 248.585788 
L 269.232283 248.585788 
L 269.232283 248.231153 
L 274.18655 248.231153 
L 274.283632 240.429176 
L 278.040985 240.429176 
L 278.145453 239.010635 
L 278.175043 239.010635 
L 278.211714 237.946729 
L 278.366211 237.946729 
L 278.451995 236.528188 
L 278.534891 236.528188 
L 278.579973 235.464282 
L 278.694691 235.464282 
L 278.7658 232.6272 
L 278.970991 232.6272 
L 279.070208 231.208659 
L 279.568728 231.208659 
L 279.568728 230.854024 
L 279.818974 230.854024 
L 279.818974 230.499388 
L 280.01056 230.499388 
L 280.01056 230.144753 
L 280.646479 230.144753 
L 280.646479 229.790118 
L 281.023435 229.790118 
L 281.071739 228.371576 
L 281.319345 228.371576 
L 281.319345 228.016941 
L 281.457604 228.016941 
L 281.457604 227.307671 
L 282.047312 227.307671 
L 282.047312 226.5984 
L 282.180427 226.5984 
L 282.180427 226.243765 
L 282.432515 226.243765 
L 282.432515 225.889129 
L 282.802284 225.889129 
L 282.802284 225.534494 
L 283.177158 225.534494 
L 283.177158 225.179859 
L 283.370232 225.179859 
L 283.370232 224.825224 
L 283.490519 224.825224 
L 283.490519 224.115953 
L 283.703424 224.115953 
L 283.703424 223.761318 
L 284.307741 223.761318 
L 284.393852 222.342776 
L 284.49457 222.342776 
L 284.49457 221.988141 
L 287.224 221.988141 
L 287.263055 217.732518 
L 289.426709 217.732518 
L 289.52059 217.023247 
L 289.667912 217.023247 
L 289.667912 216.313976 
L 289.805915 216.313976 
L 289.805915 215.959341 
L 290.058729 215.959341 
L 290.104123 214.5408 
L 290.247466 214.5408 
L 290.247466 213.831529 
L 290.727254 213.831529 
L 290.821752 212.412988 
L 291.123899 212.412988 
L 291.123899 212.058353 
L 291.251727 212.058353 
L 291.251727 211.703718 
L 291.479345 211.703718 
L 291.479345 211.349082 
L 291.639956 211.349082 
L 291.639956 210.994447 
L 291.792822 210.994447 
L 291.792822 210.639812 
L 291.939818 210.639812 
L 292.018506 209.575906 
L 292.249066 209.575906 
L 292.249066 209.221271 
L 292.368502 209.221271 
L 292.368502 208.866635 
L 292.575713 208.866635 
L 292.575713 208.157365 
L 293.009489 208.157365 
L 293.009489 207.802729 
L 293.334587 207.802729 
L 293.334587 207.093459 
L 294.853645 207.093459 
L 294.874536 205.320282 
L 296.239528 205.320282 
L 296.345459 203.901741 
L 296.472446 203.901741 
L 296.512763 201.064659 
L 296.785234 201.064659 
L 296.785234 200.710024 
L 296.91743 200.710024 
L 296.994865 200.000753 
L 297.095447 200.000753 
L 297.095447 199.646118 
L 297.412085 199.646118 
L 297.412085 199.291482 
L 297.536475 199.291482 
L 297.627468 197.872941 
L 297.789936 197.872941 
L 297.847325 197.163671 
L 298.484056 197.163671 
L 298.484056 196.4544 
L 298.681277 196.4544 
L 298.681277 196.099765 
L 298.89653 196.099765 
L 298.943187 195.035859 
L 300.265 195.035859 
L 300.278304 193.617318 
L 301.347301 193.617318 
L 301.417861 192.908047 
L 301.489778 192.908047 
L 301.594284 191.844141 
L 301.602345 191.844141 
L 301.707922 191.134871 
L 301.729804 191.134871 
L 301.754227 190.4256 
L 301.891188 190.4256 
L 301.968768 189.716329 
L 302.092232 189.716329 
L 302.143938 189.007059 
L 302.21361 189.007059 
L 302.21361 188.652424 
L 302.551677 188.652424 
L 302.551677 187.943153 
L 302.939176 187.943153 
L 303.04937 185.815341 
L 303.124918 185.815341 
L 303.204267 185.106071 
L 303.342374 185.106071 
L 303.410509 183.687529 
L 303.561797 183.687529 
L 303.561797 183.332894 
L 304.458375 183.332894 
L 304.461359 182.623624 
L 305.352038 182.623624 
L 305.446775 178.013365 
L 305.623731 178.013365 
L 305.724169 175.885553 
L 305.772693 175.885553 
L 305.835833 174.821647 
L 305.978577 174.821647 
L 305.978577 174.467012 
L 306.114166 174.467012 
L 306.171891 173.048471 
L 306.275212 173.048471 
L 306.311786 171.984565 
L 306.48632 171.984565 
L 306.48632 171.629929 
L 306.62967 171.629929 
L 306.62967 171.275294 
L 306.847811 171.275294 
L 306.847811 170.211388 
L 306.961673 170.211388 
L 307.017901 168.792847 
L 307.142876 168.792847 
L 307.142876 168.438212 
L 307.893239 168.438212 
L 307.899759 167.374306 
L 308.634746 167.374306 
L 308.735387 163.827953 
L 308.878158 163.827953 
L 308.988672 162.054776 
L 309.041904 162.054776 
L 309.126762 161.345506 
L 309.162351 161.345506 
L 309.221162 160.636235 
L 309.413107 160.636235 
L 309.475177 159.926965 
L 309.534557 159.926965 
L 309.534557 159.217694 
L 309.76083 159.217694 
L 309.843306 158.508424 
L 309.898859 158.508424 
L 309.995717 157.799153 
L 310.017734 157.799153 
L 310.043581 157.089882 
L 310.795283 157.089882 
L 310.795283 156.735247 
L 311.455239 156.735247 
L 311.558913 154.2528 
L 311.625903 154.2528 
L 311.638822 153.543529 
L 311.780301 153.543529 
L 311.853686 152.834259 
L 312.025899 152.834259 
L 312.025899 152.124988 
L 312.206965 152.124988 
L 312.283513 150.706447 
L 312.429194 150.706447 
L 312.475115 149.642541 
L 312.626862 149.642541 
L 312.626862 149.287906 
L 313.884273 149.287906 
L 313.937334 147.160094 
L 314.034346 147.160094 
L 314.045713 146.096188 
L 314.170257 146.096188 
L 314.170257 145.386918 
L 314.29865 145.386918 
L 314.38672 143.968376 
L 314.453548 143.968376 
L 314.501047 142.904471 
L 314.614134 142.904471 
L 314.720115 141.485929 
L 314.78351 141.485929 
L 314.78351 140.776659 
L 314.917795 140.776659 
L 315.019843 139.712753 
L 316.035225 139.712753 
L 316.120269 137.939576 
L 316.169141 137.939576 
L 316.190621 136.521035 
L 316.405267 136.521035 
L 316.472111 134.393224 
L 316.543815 134.393224 
L 316.586324 133.683953 
L 316.687577 133.683953 
L 316.687577 132.974682 
L 316.877664 132.974682 
L 316.977649 131.910776 
L 317.051351 131.910776 
L 317.051351 131.201506 
L 317.988429 131.201506 
L 318.095338 129.428329 
L 318.163121 129.428329 
L 318.269956 127.655153 
L 318.370781 127.655153 
L 318.370781 127.300518 
L 318.535833 127.300518 
L 318.611515 126.591247 
L 318.659495 126.591247 
L 318.659495 125.881976 
L 318.787844 125.881976 
L 318.787844 125.527341 
L 319.698574 125.527341 
L 319.782494 122.335624 
L 319.873064 122.335624 
L 319.973407 120.562447 
L 320.0265 120.562447 
L 320.134814 119.498541 
L 320.169943 119.498541 
L 320.23616 118.08 
L 320.332259 118.08 
L 320.411072 117.370729 
L 320.493972 117.370729 
L 320.555129 116.306824 
L 321.308071 116.306824 
L 321.418061 114.888282 
L 321.482539 114.888282 
L 321.482539 114.533647 
L 321.596967 114.533647 
L 321.647712 113.469741 
L 321.734517 113.469741 
L 321.811578 111.696565 
L 321.88393 111.696565 
L 321.88393 111.341929 
L 322.792408 111.341929 
L 322.851829 107.440941 
L 322.926197 107.440941 
L 323.028562 106.731671 
L 323.056726 106.731671 
L 323.083457 106.0224 
L 323.23534 106.0224 
L 323.331735 104.249224 
L 323.431932 104.249224 
L 323.431932 103.894588 
L 324.167919 103.894588 
L 324.247658 101.412141 
L 324.406502 101.412141 
L 324.506264 100.702871 
L 324.520239 100.702871 
L 324.62774 99.638965 
L 324.711836 99.638965 
L 324.777823 98.929694 
L 324.826541 98.929694 
L 324.826541 98.575059 
L 325.428958 98.575059 
L 325.487643 95.383341 
L 325.591298 95.383341 
L 325.702265 92.546259 
L 325.772271 92.546259 
L 325.83447 91.127718 
L 326.013375 91.127718 
L 326.013375 90.773082 
L 326.623781 90.773082 
L 326.719027 88.999906 
L 326.868064 88.999906 
L 326.969628 86.872094 
L 327.114666 86.872094 
L 327.172753 85.453553 
L 327.759496 85.453553 
L 327.776458 84.035012 
L 327.890816 84.035012 
L 327.922016 83.325741 
L 328.264806 83.325741 
L 328.264806 82.971106 
L 328.81894 82.971106 
L 328.834974 82.261835 
L 328.984996 82.261835 
L 329.005519 81.197929 
L 329.178995 81.197929 
L 329.287643 79.779388 
L 329.335251 79.779388 
L 329.335251 79.424753 
L 329.857395 79.424753 
L 329.891323 78.360847 
L 329.979355 78.360847 
L 330.062645 76.942306 
L 330.132854 76.942306 
L 330.207271 76.233035 
L 330.763601 76.233035 
L 330.830214 75.523765 
L 330.885986 75.523765 
L 330.885986 75.169129 
L 331.003002 75.169129 
L 331.069794 74.459859 
L 331.140602 74.459859 
L 331.140602 74.105224 
L 331.670379 74.105224 
L 331.77115 72.686682 
L 331.872174 72.686682 
L 331.872174 72.332047 
L 331.990004 72.332047 
L 331.990004 71.977412 
L 332.55714 71.977412 
L 332.620077 70.558871 
L 332.681288 70.558871 
L 332.681288 70.204235 
L 333.374033 70.204235 
L 333.443478 68.076424 
L 333.492319 68.076424 
L 333.579741 66.303247 
L 333.629445 66.303247 
L 333.706913 64.884706 
L 334.159111 64.884706 
L 334.218558 63.8208 
L 334.40246 63.8208 
L 334.470014 62.756894 
L 334.52431 62.756894 
L 334.52431 62.402259 
L 334.914863 62.402259 
L 334.914863 62.047624 
L 335.043433 62.047624 
L 335.122956 60.983718 
L 335.204111 60.983718 
L 335.297896 60.274447 
L 335.674748 60.274447 
L 335.783515 57.437365 
L 335.809038 57.437365 
L 335.809038 57.082729 
L 335.937006 57.082729 
L 335.98073 55.664188 
L 336.398368 55.664188 
L 336.479262 54.245647 
L 336.527038 54.245647 
L 336.617014 53.181741 
L 337.039034 53.181741 
L 337.046145 52.472471 
L 337.167726 52.472471 
L 337.278695 51.408565 
L 337.333352 51.408565 
L 337.333352 51.053929 
L 337.75448 51.053929 
L 337.847279 50.344659 
L 337.91396 50.344659 
L 337.982324 49.635388 
L 338.317159 49.635388 
L 338.317159 49.280753 
L 338.932203 49.280753 
L 339.022112 48.571482 
L 339.05285 48.571482 
L 339.124408 47.507576 
L 339.207409 47.507576 
L 339.207409 47.152941 
L 339.534903 47.152941 
L 339.618715 46.089035 
L 339.647708 46.089035 
L 339.744818 45.379765 
L 340.1076 45.379765 
L 340.1076 45.025129 
L 340.244609 45.025129 
L 340.279498 44.315859 
L 340.652994 44.315859 
L 340.664585 43.606588 
L 340.848802 43.606588 
L 340.932991 42.542682 
L 341.215671 42.542682 
L 341.283427 41.478776 
L 341.717481 41.478776 
L 341.717481 41.124141 
L 341.862671 41.124141 
L 341.96555 40.414871 
L 342.238659 40.414871 
L 342.296028 39.7056 
L 342.359919 39.7056 
L 342.391073 38.641694 
L 342.74782 38.641694 
L 342.74782 38.287059 
L 343.220089 38.287059 
L 343.220089 37.932424 
L 343.337138 37.932424 
L 343.408691 36.868518 
L 343.705594 36.868518 
L 343.79054 35.804612 
L 344.200165 35.804612 
L 344.200165 35.449976 
L 345.050514 35.449976 
L 345.122727 34.740706 
L 345.169536 34.740706 
L 345.178178 34.031435 
L 345.473636 34.031435 
L 345.558927 33.322165 
L 346.331683 33.322165 
L 346.331683 32.967529 
L 346.766851 32.967529 
L 346.766851 32.612894 
L 347.115397 32.612894 
L 347.115397 32.258259 
L 347.87614 32.258259 
L 347.87614 31.903624 
L 348.021009 31.903624 
L 348.021009 31.548988 
L 348.236791 31.548988 
L 348.238281 30.839718 
L 348.961956 30.839718 
L 348.961956 30.485082 
L 349.709738 30.485082 
L 349.709738 30.130447 
L 349.992447 30.130447 
L 349.992447 29.775812 
L 350.329884 29.775812 
L 350.329884 29.421176 
L 351.289912 29.421176 
L 351.289912 29.066541 
L 351.649824 29.066541 
L 351.649824 28.711906 
L 351.958484 28.711906 
L 351.958484 28.357271 
L 352.788507 28.357271 
L 352.788507 28.002635 
L 353.072478 28.002635 
L 353.072478 27.648 
L 360.8064 27.648 
L 360.8064 27.648 
" style="fill: none; stroke: #000080; stroke-width: 1.5; stroke-linecap: square"/>
   </g>
   <g id="line2d_36">
    <defs>
     <path id="m44101e812d" d="M 0 6 
C 1.591219 6 3.117479 5.367802 4.242641 4.242641 
C 5.367802 3.117479 6 1.591219 6 0 
C 6 -1.591219 5.367802 -3.117479 4.242641 -4.242641 
C 3.117479 -5.367802 1.591219 -6 0 -6 
C -1.591219 -6 -3.117479 -5.367802 -4.242641 -4.242641 
C -5.367802 -3.117479 -6 -1.591219 -6 0 
C -6 1.591219 -5.367802 3.117479 -4.242641 4.242641 
C -3.117479 5.367802 -1.591219 6 0 6 
z
" style="stroke: #000080; stroke-width: 1.5"/>
    </defs>
    <g>
     <use xlink:href="#m44101e812d" x="177.096265" y="265.962918" style="fill-opacity: 0; stroke: #000080; stroke-width: 1.5"/>
     <use xlink:href="#m44101e812d" x="292.575713" y="208.866635" style="fill-opacity: 0; stroke: #000080; stroke-width: 1.5"/>
     <use xlink:href="#m44101e812d" x="328.81894" y="82.616471" style="fill-opacity: 0; stroke: #000080; stroke-width: 1.5"/>
     <use xlink:href="#m44101e812d" x="353.072478" y="27.648" style="fill-opacity: 0; stroke: #000080; stroke-width: 1.5"/>
     <use xlink:href="#m44101e812d" x="360.8064" y="27.648" style="fill-opacity: 0; stroke: #000080; stroke-width: 1.5"/>
    </g>
   </g>
   <g id="line2d_37">
    <path style="fill: none; stroke: #000080; stroke-width: 1.5; stroke-linecap: square"/>
    <g/>
   </g>
   <g id="line2d_38">
    <path d="M 274.176 248.231153 
" clip-path="url(#p6904e223cd)" style="fill: none; stroke: #000080; stroke-width: 1.5; stroke-linecap: square"/>
    <defs>
     <path id="ma0ede84dee" d="M -12 12 
L 12 -12 
M -12 -12 
L 12 12 
" style="stroke: #000080"/>
    </defs>
    <g clip-path="url(#p6904e223cd)">
     <use xlink:href="#ma0ede84dee" x="274.176" y="248.231153" style="fill: #000080; stroke: #000080"/>
    </g>
   </g>
   <g id="line2d_39">
    <defs>
     <path id="m7490df758f" d="M 0 1.5 
C 0.397805 1.5 0.77937 1.341951 1.06066 1.06066 
C 1.341951 0.77937 1.5 0.397805 1.5 0 
C 1.5 -0.397805 1.341951 -0.77937 1.06066 -1.06066 
C 0.77937 -1.341951 0.397805 -1.5 0 -1.5 
C -0.397805 -1.5 -0.77937 -1.341951 -1.06066 -1.06066 
C -1.341951 -0.77937 -1.5 -0.397805 -1.5 0 
C -1.5 0.397805 -1.341951 0.77937 -1.06066 1.06066 
C -0.77937 1.341951 -0.397805 1.5 0 1.5 
z
" style="stroke: #ff00ff"/>
    </defs>
    <g>
     <use xlink:href="#m7490df758f" x="330.593317" y="240.429176" style="fill: #ff00ff; stroke: #ff00ff"/>
     <use xlink:href="#m7490df758f" x="330.593317" y="240.429176" style="fill: #ff00ff; stroke: #ff00ff"/>
    </g>
   </g>
   <g id="line2d_40">
    <path d="M 1.245626 298.944 
L 1.245626 293.624471 
L 168.200924 293.624471 
L 168.200924 293.269835 
L 169.304197 293.269835 
L 169.375993 292.560565 
L 169.94789 292.560565 
L 169.94789 292.205929 
L 180.702494 292.205929 
L 180.702494 291.851294 
L 181.045775 291.851294 
L 181.146492 291.142024 
L 181.162345 291.142024 
L 181.174227 290.432753 
L 181.46625 290.432753 
L 181.46625 290.078118 
L 182.352051 290.078118 
L 182.455894 289.368847 
L 182.572649 289.368847 
L 182.572649 289.014212 
L 182.845108 289.014212 
L 182.845108 288.659576 
L 183.6685 288.659576 
L 183.761892 287.950306 
L 185.090553 287.950306 
L 185.090553 287.595671 
L 185.567785 287.595671 
L 185.567785 287.241035 
L 187.203908 287.241035 
L 187.203908 286.8864 
L 188.038532 286.8864 
L 188.038532 286.531765 
L 188.600867 286.531765 
L 188.600867 286.177129 
L 189.240801 286.177129 
L 189.251971 285.467859 
L 189.61861 285.467859 
L 189.61861 285.113224 
L 190.321387 285.113224 
L 190.364349 284.403953 
L 190.74428 284.403953 
L 190.74428 284.049318 
L 190.883421 284.049318 
L 190.883421 283.694682 
L 191.059814 283.694682 
L 191.059814 283.340047 
L 191.249251 283.340047 
L 191.249251 282.985412 
L 191.367071 282.985412 
L 191.367071 282.630776 
L 192.325605 282.630776 
L 192.325605 282.276141 
L 192.736191 282.276141 
L 192.736191 281.921506 
L 194.121455 281.921506 
L 194.121455 281.566871 
L 194.233187 281.566871 
L 194.241095 280.8576 
L 194.486574 280.8576 
L 194.486574 280.502965 
L 194.706405 280.502965 
L 194.706405 280.148329 
L 195.001692 280.148329 
L 195.001692 279.793694 
L 195.961409 279.793694 
L 195.961409 279.439059 
L 197.334007 279.439059 
L 197.334007 279.084424 
L 198.309448 279.084424 
L 198.309448 278.729788 
L 198.494301 278.729788 
L 198.578727 277.665882 
L 198.616883 277.665882 
L 198.71635 275.892706 
L 199.114638 275.892706 
L 199.202406 274.474165 
L 199.404785 274.474165 
L 199.404785 274.119529 
L 199.618878 274.119529 
L 199.696443 273.410259 
L 200.484808 273.410259 
L 200.484808 273.055624 
L 201.755734 273.055624 
L 201.85666 270.927812 
L 202.039062 270.927812 
L 202.039062 270.573176 
L 202.374286 270.573176 
L 202.374286 270.218541 
L 202.977701 270.218541 
L 202.977701 269.863906 
L 204.62149 269.863906 
L 204.696096 268.8 
L 204.774172 268.8 
L 204.778312 268.090729 
L 204.911805 268.090729 
L 204.962926 267.381459 
L 205.031738 267.381459 
L 205.031738 267.026824 
L 205.654349 267.026824 
L 205.654349 266.672188 
L 206.288294 266.672188 
L 206.288294 266.317553 
L 206.737488 266.317553 
L 206.737488 265.962918 
L 207.200705 265.962918 
L 207.259833 265.253647 
L 207.367372 265.253647 
L 207.367372 264.899012 
L 207.488315 264.899012 
L 207.488315 264.544376 
L 207.711802 264.544376 
L 207.711802 264.189741 
L 208.248536 264.189741 
L 208.286362 263.480471 
L 208.538866 263.480471 
L 208.538866 263.125835 
L 209.328729 263.125835 
L 209.439201 261.707294 
L 209.475881 261.707294 
L 209.483502 260.998024 
L 211.339863 260.998024 
L 211.339863 260.643388 
L 211.772398 260.643388 
L 211.849302 259.579482 
L 212.403106 259.579482 
L 212.403106 259.224847 
L 213.110021 259.224847 
L 213.205955 258.515576 
L 213.239105 258.515576 
L 213.239105 258.160941 
L 213.374936 258.160941 
L 213.438924 257.451671 
L 213.549024 257.451671 
L 213.549024 257.097035 
L 214.208055 257.097035 
L 214.208055 256.7424 
L 214.548261 256.7424 
L 214.548261 256.387765 
L 214.844778 256.387765 
L 214.844778 256.033129 
L 215.031601 256.033129 
L 215.031601 255.678494 
L 216.373342 255.678494 
L 216.385528 254.969224 
L 217.300543 254.969224 
L 217.300543 254.614588 
L 218.964547 254.614588 
L 219.013873 253.905318 
L 220.3028 253.905318 
L 220.3028 253.550682 
L 274.84339 253.550682 
L 274.906747 252.132141 
L 274.962622 252.132141 
L 275.040228 251.068235 
L 275.162133 251.068235 
L 275.162133 250.7136 
L 287.461537 250.7136 
L 287.565793 249.649694 
L 287.592275 249.649694 
L 287.658297 247.876518 
L 295.099524 247.876518 
L 295.102112 246.103341 
L 300.450571 246.103341 
L 300.515993 244.330165 
L 304.646931 244.330165 
L 304.646931 243.975529 
L 315.608131 243.975529 
L 315.608131 243.620894 
L 317.578449 243.620894 
L 317.578449 243.266259 
L 319.363926 243.266259 
L 319.376021 242.556988 
L 322.496202 242.556988 
L 322.516493 241.847718 
L 323.889026 241.847718 
L 323.889026 241.493082 
L 325.189496 241.493082 
L 325.189496 241.138447 
L 328.609604 241.138447 
L 328.609604 240.783812 
L 330.593317 240.783812 
L 330.593317 240.429176 
L 360.8064 240.429176 
L 360.8064 240.429176 
" style="fill: none; stroke: #ff00ff; stroke-width: 1.5; stroke-linecap: square"/>
   </g>
   <g id="line2d_41">
    <defs>
     <path id="m6f721899c4" d="M 0 8.485281 
L 5.091169 0 
L 0 -8.485281 
L -5.091169 0 
z
" style="stroke: #ff00ff; stroke-width: 1.5; stroke-linejoin: miter"/>
    </defs>
    <g>
     <use xlink:href="#m6f721899c4" x="169.94789" y="292.205929" style="fill-opacity: 0; stroke: #ff00ff; stroke-width: 1.5; stroke-linejoin: miter"/>
     <use xlink:href="#m6f721899c4" x="220.3028" y="253.905318" style="fill-opacity: 0; stroke: #ff00ff; stroke-width: 1.5; stroke-linejoin: miter"/>
     <use xlink:href="#m6f721899c4" x="330.593317" y="240.429176" style="fill-opacity: 0; stroke: #ff00ff; stroke-width: 1.5; stroke-linejoin: miter"/>
     <use xlink:href="#m6f721899c4" x="330.593317" y="240.429176" style="fill-opacity: 0; stroke: #ff00ff; stroke-width: 1.5; stroke-linejoin: miter"/>
     <use xlink:href="#m6f721899c4" x="360.8064" y="240.429176" style="fill-opacity: 0; stroke: #ff00ff; stroke-width: 1.5; stroke-linejoin: miter"/>
    </g>
   </g>
   <g id="line2d_42">
    <path style="fill: none; stroke: #ff00ff; stroke-width: 1.5; stroke-linecap: square"/>
    <g/>
   </g>
   <g id="line2d_43">
    <path d="M 274.188938 253.550682 
" clip-path="url(#p6904e223cd)" style="fill: none; stroke: #ff00ff; stroke-width: 1.5; stroke-linecap: square"/>
    <defs>
     <path id="m5758d69c83" d="M -12 12 
L 12 -12 
M -12 -12 
L 12 12 
" style="stroke: #ff00ff"/>
    </defs>
    <g clip-path="url(#p6904e223cd)">
     <use xlink:href="#m5758d69c83" x="274.188938" y="253.550682" style="fill: #ff00ff; stroke: #ff00ff"/>
    </g>
   </g>
   <g id="line2d_44">
    <defs>
     <path id="m327702bea4" d="M 0 1.5 
C 0.397805 1.5 0.77937 1.341951 1.06066 1.06066 
C 1.341951 0.77937 1.5 0.397805 1.5 0 
C 1.5 -0.397805 1.341951 -0.77937 1.06066 -1.06066 
C 0.77937 -1.341951 0.397805 -1.5 0 -1.5 
C -0.397805 -1.5 -0.77937 -1.341951 -1.06066 -1.06066 
C -1.341951 -0.77937 -1.5 -0.397805 -1.5 0 
C -1.5 0.397805 -1.341951 0.77937 -1.06066 1.06066 
C -0.77937 1.341951 -0.397805 1.5 0 1.5 
z
" style="stroke: #ff7500"/>
    </defs>
    <g>
     <use xlink:href="#m327702bea4" x="313.299566" y="240.429176" style="fill: #ff7500; stroke: #ff7500"/>
     <use xlink:href="#m327702bea4" x="313.299566" y="240.429176" style="fill: #ff7500; stroke: #ff7500"/>
    </g>
   </g>
   <g id="line2d_45">
    <path d="M 1.245626 298.944 
L 1.245626 293.624471 
L 91.616719 293.624471 
L 91.616719 293.269835 
L 94.995002 293.269835 
L 94.995002 292.9152 
L 95.377623 292.9152 
L 95.377623 292.560565 
L 101.471247 292.560565 
L 101.471247 292.205929 
L 102.362957 292.205929 
L 102.362957 291.851294 
L 102.62243 291.851294 
L 102.62243 291.496659 
L 103.462371 291.496659 
L 103.462371 291.142024 
L 105.485395 291.142024 
L 105.485395 290.787388 
L 106.560633 290.787388 
L 106.560633 290.432753 
L 107.31183 290.432753 
L 107.31183 290.078118 
L 107.709271 290.078118 
L 107.774703 289.368847 
L 108.162584 289.368847 
L 108.162584 288.659576 
L 108.29012 288.659576 
L 108.29012 288.304941 
L 109.815392 288.304941 
L 109.815392 287.950306 
L 109.990385 287.950306 
L 109.990385 287.595671 
L 110.106149 287.595671 
L 110.106149 287.241035 
L 110.897141 287.241035 
L 110.897141 286.8864 
L 111.496112 286.8864 
L 111.496112 286.531765 
L 112.283321 286.531765 
L 112.283321 286.177129 
L 112.790402 286.177129 
L 112.790402 285.822494 
L 112.989468 285.822494 
L 112.989468 285.467859 
L 114.7824 285.467859 
L 114.7824 285.113224 
L 114.961559 285.113224 
L 114.961559 284.758588 
L 115.094818 284.758588 
L 115.094818 284.403953 
L 115.227139 284.403953 
L 115.227139 284.049318 
L 115.575511 284.049318 
L 115.575511 283.694682 
L 116.044226 283.694682 
L 116.044226 283.340047 
L 117.028061 283.340047 
L 117.028061 282.985412 
L 117.226706 282.985412 
L 117.226706 282.630776 
L 118.227147 282.630776 
L 118.227147 282.276141 
L 118.413586 282.276141 
L 118.413586 281.921506 
L 118.925995 281.921506 
L 119.034004 281.212235 
L 119.141397 281.212235 
L 119.141397 280.502965 
L 119.389621 280.502965 
L 119.459944 279.793694 
L 119.530006 279.793694 
L 119.530006 279.439059 
L 122.469738 279.439059 
L 122.469738 279.084424 
L 122.913079 279.084424 
L 122.913079 278.729788 
L 123.116449 278.729788 
L 123.116449 278.375153 
L 124.427792 278.375153 
L 124.427792 278.020518 
L 125.501533 278.020518 
L 125.577745 277.311247 
L 125.678882 277.311247 
L 125.678882 276.956612 
L 126.225624 276.956612 
L 126.225624 276.601976 
L 126.396307 276.601976 
L 126.396307 276.247341 
L 127.389106 276.247341 
L 127.480982 275.538071 
L 127.526752 275.538071 
L 127.5952 274.8288 
L 127.79906 274.8288 
L 127.79906 274.474165 
L 128.000734 274.474165 
L 128.000734 274.119529 
L 129.499602 274.119529 
L 129.60223 273.410259 
L 129.78556 273.410259 
L 129.78556 272.700988 
L 130.501519 272.700988 
L 130.501519 272.346353 
L 131.153565 272.346353 
L 131.153565 271.991718 
L 131.4342 271.991718 
L 131.4342 271.637082 
L 131.910931 271.637082 
L 131.910931 271.282447 
L 132.829612 271.282447 
L 132.829612 270.927812 
L 133.457005 270.927812 
L 133.457005 270.573176 
L 133.999446 270.573176 
L 133.999446 270.218541 
L 134.336666 270.218541 
L 134.336666 269.509271 
L 134.854664 269.509271 
L 134.885604 268.8 
L 135.008858 268.8 
L 135.008858 268.445365 
L 135.298389 268.445365 
L 135.298389 267.736094 
L 135.418977 267.736094 
L 135.449003 266.672188 
L 135.996018 266.672188 
L 135.996018 266.317553 
L 136.313886 266.317553 
L 136.313886 265.962918 
L 136.513404 265.962918 
L 136.513404 265.608282 
L 137.919637 265.608282 
L 137.919637 265.253647 
L 138.050729 265.253647 
L 138.050729 264.899012 
L 139.080189 264.899012 
L 139.080189 264.544376 
L 139.240288 264.544376 
L 139.277041 263.835106 
L 140.231542 263.835106 
L 140.231542 263.480471 
L 140.781828 263.480471 
L 140.781828 263.125835 
L 142.425236 263.125835 
L 142.425236 262.7712 
L 144.192739 262.7712 
L 144.192739 262.416565 
L 144.314862 262.416565 
L 144.314862 262.061929 
L 144.704081 262.061929 
L 144.704081 261.707294 
L 145.201889 261.707294 
L 145.201889 261.352659 
L 145.739021 261.352659 
L 145.739021 260.998024 
L 145.911844 260.998024 
L 145.911844 260.643388 
L 146.269683 260.643388 
L 146.269683 260.288753 
L 146.728219 260.288753 
L 146.728219 259.934118 
L 147.038621 259.934118 
L 147.038621 259.579482 
L 147.167799 259.579482 
L 147.167799 259.224847 
L 148.071053 259.224847 
L 148.071053 258.870212 
L 148.367783 258.870212 
L 148.367783 258.515576 
L 148.741485 258.515576 
L 148.741485 258.160941 
L 149.481565 258.160941 
L 149.481565 257.806306 
L 149.833983 257.806306 
L 149.833983 257.451671 
L 150.546523 257.451671 
L 150.546523 257.097035 
L 151.675098 257.097035 
L 151.675098 256.7424 
L 152.894708 256.7424 
L 152.894708 256.387765 
L 154.880856 256.387765 
L 154.880856 256.033129 
L 155.376203 256.033129 
L 155.376203 255.678494 
L 156.574989 255.678494 
L 156.574989 255.323859 
L 156.706284 255.323859 
L 156.706284 254.969224 
L 156.947029 254.969224 
L 156.947029 254.614588 
L 157.175281 254.614588 
L 157.175281 254.259953 
L 157.293074 254.259953 
L 157.293074 253.905318 
L 161.243955 253.905318 
L 161.243955 253.550682 
L 161.590999 253.550682 
L 161.590999 253.196047 
L 161.986735 253.196047 
L 161.986735 252.841412 
L 163.399895 252.841412 
L 163.399895 252.486776 
L 167.416772 252.486776 
L 167.416772 252.132141 
L 182.334688 252.132141 
L 182.334688 251.777506 
L 182.681376 251.777506 
L 182.77615 251.068235 
L 182.840277 251.068235 
L 182.923437 250.358965 
L 185.134442 250.358965 
L 185.134442 250.004329 
L 187.380275 250.004329 
L 187.380275 249.649694 
L 274.187697 249.649694 
L 274.224284 245.394071 
L 274.361551 245.394071 
L 274.361551 245.039435 
L 287.220732 245.039435 
L 287.233295 243.975529 
L 294.847822 243.975529 
L 294.904657 241.847718 
L 300.261802 241.847718 
L 300.261802 241.493082 
L 307.885622 241.493082 
L 307.889521 240.783812 
L 313.299566 240.783812 
L 313.299566 240.429176 
L 360.8064 240.429176 
L 360.8064 240.429176 
" style="fill: none; stroke: #ff7500; stroke-width: 1.5; stroke-linecap: square"/>
   </g>
   <g id="line2d_46">
    <defs>
     <path id="m089a010a97" d="M 0 -6 
L -1.347084 -1.854102 
L -5.706339 -1.854102 
L -2.179628 0.708204 
L -3.526712 4.854102 
L -0 2.291796 
L 3.526712 4.854102 
L 2.179628 0.708204 
L 5.706339 -1.854102 
L 1.347084 -1.854102 
z
" style="stroke: #ff7500; stroke-width: 1.5; stroke-linejoin: bevel"/>
    </defs>
    <g>
     <use xlink:href="#m089a010a97" x="133.999446" y="270.218541" style="fill-opacity: 0; stroke: #ff7500; stroke-width: 1.5; stroke-linejoin: bevel"/>
     <use xlink:href="#m089a010a97" x="187.380275" y="250.004329" style="fill-opacity: 0; stroke: #ff7500; stroke-width: 1.5; stroke-linejoin: bevel"/>
     <use xlink:href="#m089a010a97" x="274.361551" y="245.039435" style="fill-opacity: 0; stroke: #ff7500; stroke-width: 1.5; stroke-linejoin: bevel"/>
     <use xlink:href="#m089a010a97" x="313.299566" y="240.429176" style="fill-opacity: 0; stroke: #ff7500; stroke-width: 1.5; stroke-linejoin: bevel"/>
     <use xlink:href="#m089a010a97" x="360.8064" y="240.429176" style="fill-opacity: 0; stroke: #ff7500; stroke-width: 1.5; stroke-linejoin: bevel"/>
    </g>
   </g>
   <g id="line2d_47">
    <path style="fill: none; stroke: #ff7500; stroke-width: 1.5; stroke-linecap: square"/>
    <g/>
   </g>
   <g id="line2d_48">
    <path d="M 274.176 249.649694 
" clip-path="url(#p6904e223cd)" style="fill: none; stroke: #ff7500; stroke-width: 1.5; stroke-linecap: square"/>
    <defs>
     <path id="m6732d9321c" d="M -12 12 
L 12 -12 
M -12 -12 
L 12 12 
" style="stroke: #ff7500"/>
    </defs>
    <g clip-path="url(#p6904e223cd)">
     <use xlink:href="#m6732d9321c" x="274.176" y="249.649694" style="fill: #ff7500; stroke: #ff7500"/>
    </g>
   </g>
   <g id="line2d_49">
    <path d="M 360.8064 240.429176 
L 380.514816 293.51808 
" style="fill: none; stroke: #ff00ff; stroke-width: 1.5; stroke-linecap: square"/>
    <g>
     <use xlink:href="#m6f721899c4" x="360.8064" y="240.429176" style="fill-opacity: 0; stroke: #ff00ff; stroke-width: 1.5; stroke-linejoin: miter"/>
     <use xlink:href="#m6f721899c4" x="380.514816" y="293.51808" style="fill-opacity: 0; stroke: #ff00ff; stroke-width: 1.5; stroke-linejoin: miter"/>
    </g>
   </g>
   <g id="line2d_50">
    <path d="M 360.8064 240.429176 
L 380.514816 206.70336 
" style="fill: none; stroke: #ff7500; stroke-width: 1.5; stroke-linecap: square"/>
    <g>
     <use xlink:href="#m089a010a97" x="360.8064" y="240.429176" style="fill-opacity: 0; stroke: #ff7500; stroke-width: 1.5; stroke-linejoin: bevel"/>
     <use xlink:href="#m089a010a97" x="380.514816" y="206.70336" style="fill-opacity: 0; stroke: #ff7500; stroke-width: 1.5; stroke-linejoin: bevel"/>
    </g>
   </g>
   <g id="line2d_51">
    <path d="M 360.8064 27.648 
L 380.514816 119.88864 
" style="fill: none; stroke: #000080; stroke-width: 1.5; stroke-linecap: square"/>
    <g>
     <use xlink:href="#m44101e812d" x="360.8064" y="27.648" style="fill-opacity: 0; stroke: #000080; stroke-width: 1.5"/>
     <use xlink:href="#m44101e812d" x="380.514816" y="119.88864" style="fill-opacity: 0; stroke: #000080; stroke-width: 1.5"/>
    </g>
   </g>
   <g id="line2d_52">
    <path d="M 360.8064 298.944 
L 360.8064 27.648 
" style="fill: none; stroke: #000000; stroke-width: 1.5; stroke-linecap: square"/>
   </g>
   <g id="patch_3">
    <path d="M 57.6 298.944 
L 360.8064 298.944 
" style="fill: none; stroke: #000000; stroke-width: 0.8; stroke-linejoin: miter; stroke-linecap: square"/>
   </g>
   <g id="patch_4">
    <path d="M 57.6 27.648 
L 360.8064 27.648 
" style="fill: none; stroke: #000000; stroke-width: 0.8; stroke-linejoin: miter; stroke-linecap: square"/>
   </g>
   <g id="text_13">
    <!-- GA -->
    <g transform="translate(386.578944 297.381205)scale(0.14 -0.14)">
     <defs>
      <path id="DejaVuSans-47" d="M 3809 666 
L 3809 1919 
L 2778 1919 
L 2778 2438 
L 4434 2438 
L 4434 434 
Q 4069 175 3628 42 
Q 3188 -91 2688 -91 
Q 1594 -91 976 548 
Q 359 1188 359 2328 
Q 359 3472 976 4111 
Q 1594 4750 2688 4750 
Q 3144 4750 3555 4637 
Q 3966 4525 4313 4306 
L 4313 3634 
Q 3963 3931 3569 4081 
Q 3175 4231 2741 4231 
Q 1884 4231 1454 3753 
Q 1025 3275 1025 2328 
Q 1025 1384 1454 906 
Q 1884 428 2741 428 
Q 3075 428 3337 486 
Q 3600 544 3809 666 
z
" transform="scale(0.015625)"/>
      <path id="DejaVuSans-41" d="M 2188 4044 
L 1331 1722 
L 3047 1722 
L 2188 4044 
z
M 1831 4666 
L 2547 4666 
L 4325 0 
L 3669 0 
L 3244 1197 
L 1141 1197 
L 716 0 
L 50 0 
L 1831 4666 
z
" transform="scale(0.015625)"/>
     </defs>
     <use xlink:href="#DejaVuSans-47"/>
     <use xlink:href="#DejaVuSans-41" x="77.490234"/>
    </g>
   </g>
   <g id="text_14">
    <!-- PSO -->
    <g transform="translate(386.578944 210.566485)scale(0.14 -0.14)">
     <defs>
      <path id="DejaVuSans-50" d="M 1259 4147 
L 1259 2394 
L 2053 2394 
Q 2494 2394 2734 2622 
Q 2975 2850 2975 3272 
Q 2975 3691 2734 3919 
Q 2494 4147 2053 4147 
L 1259 4147 
z
M 628 4666 
L 2053 4666 
Q 2838 4666 3239 4311 
Q 3641 3956 3641 3272 
Q 3641 2581 3239 2228 
Q 2838 1875 2053 1875 
L 1259 1875 
L 1259 0 
L 628 0 
L 628 4666 
z
" transform="scale(0.015625)"/>
      <path id="DejaVuSans-53" d="M 3425 4513 
L 3425 3897 
Q 3066 4069 2747 4153 
Q 2428 4238 2131 4238 
Q 1616 4238 1336 4038 
Q 1056 3838 1056 3469 
Q 1056 3159 1242 3001 
Q 1428 2844 1947 2747 
L 2328 2669 
Q 3034 2534 3370 2195 
Q 3706 1856 3706 1288 
Q 3706 609 3251 259 
Q 2797 -91 1919 -91 
Q 1588 -91 1214 -16 
Q 841 59 441 206 
L 441 856 
Q 825 641 1194 531 
Q 1563 422 1919 422 
Q 2459 422 2753 634 
Q 3047 847 3047 1241 
Q 3047 1584 2836 1778 
Q 2625 1972 2144 2069 
L 1759 2144 
Q 1053 2284 737 2584 
Q 422 2884 422 3419 
Q 422 4038 858 4394 
Q 1294 4750 2059 4750 
Q 2388 4750 2728 4690 
Q 3069 4631 3425 4513 
z
" transform="scale(0.015625)"/>
      <path id="DejaVuSans-4f" d="M 2522 4238 
Q 1834 4238 1429 3725 
Q 1025 3213 1025 2328 
Q 1025 1447 1429 934 
Q 1834 422 2522 422 
Q 3209 422 3611 934 
Q 4013 1447 4013 2328 
Q 4013 3213 3611 3725 
Q 3209 4238 2522 4238 
z
M 2522 4750 
Q 3503 4750 4090 4092 
Q 4678 3434 4678 2328 
Q 4678 1225 4090 567 
Q 3503 -91 2522 -91 
Q 1538 -91 948 565 
Q 359 1222 359 2328 
Q 359 3434 948 4092 
Q 1538 4750 2522 4750 
z
" transform="scale(0.015625)"/>
     </defs>
     <use xlink:href="#DejaVuSans-50"/>
     <use xlink:href="#DejaVuSans-53" x="60.302734"/>
     <use xlink:href="#DejaVuSans-4f" x="123.779297"/>
    </g>
   </g>
   <g id="text_15">
    <!-- LCGA -->
    <g transform="translate(386.578944 123.751765)scale(0.14 -0.14)">
     <defs>
      <path id="DejaVuSans-4c" d="M 628 4666 
L 1259 4666 
L 1259 531 
L 3531 531 
L 3531 0 
L 628 0 
L 628 4666 
z
" transform="scale(0.015625)"/>
      <path id="DejaVuSans-43" d="M 4122 4306 
L 4122 3641 
Q 3803 3938 3442 4084 
Q 3081 4231 2675 4231 
Q 1875 4231 1450 3742 
Q 1025 3253 1025 2328 
Q 1025 1406 1450 917 
Q 1875 428 2675 428 
Q 3081 428 3442 575 
Q 3803 722 4122 1019 
L 4122 359 
Q 3791 134 3420 21 
Q 3050 -91 2638 -91 
Q 1578 -91 968 557 
Q 359 1206 359 2328 
Q 359 3453 968 4101 
Q 1578 4750 2638 4750 
Q 3056 4750 3426 4639 
Q 3797 4528 4122 4306 
z
" transform="scale(0.015625)"/>
     </defs>
     <use xlink:href="#DejaVuSans-4c"/>
     <use xlink:href="#DejaVuSans-43" x="55.712891"/>
     <use xlink:href="#DejaVuSans-47" x="125.537109"/>
     <use xlink:href="#DejaVuSans-41" x="203.027344"/>
    </g>
   </g>
   <g id="text_16">
    <!-- best 2009 -->
    <g transform="translate(386.578944 36.937045)scale(0.14 -0.14)">
     <defs>
      <path id="DejaVuSans-62" d="M 3116 1747 
Q 3116 2381 2855 2742 
Q 2594 3103 2138 3103 
Q 1681 3103 1420 2742 
Q 1159 2381 1159 1747 
Q 1159 1113 1420 752 
Q 1681 391 2138 391 
Q 2594 391 2855 752 
Q 3116 1113 3116 1747 
z
M 1159 2969 
Q 1341 3281 1617 3432 
Q 1894 3584 2278 3584 
Q 2916 3584 3314 3078 
Q 3713 2572 3713 1747 
Q 3713 922 3314 415 
Q 2916 -91 2278 -91 
Q 1894 -91 1617 61 
Q 1341 213 1159 525 
L 1159 0 
L 581 0 
L 581 4863 
L 1159 4863 
L 1159 2969 
z
" transform="scale(0.015625)"/>
      <path id="DejaVuSans-39" d="M 703 97 
L 703 672 
Q 941 559 1184 500 
Q 1428 441 1663 441 
Q 2288 441 2617 861 
Q 2947 1281 2994 2138 
Q 2813 1869 2534 1725 
Q 2256 1581 1919 1581 
Q 1219 1581 811 2004 
Q 403 2428 403 3163 
Q 403 3881 828 4315 
Q 1253 4750 1959 4750 
Q 2769 4750 3195 4129 
Q 3622 3509 3622 2328 
Q 3622 1225 3098 567 
Q 2575 -91 1691 -91 
Q 1453 -91 1209 -44 
Q 966 3 703 97 
z
M 1959 2075 
Q 2384 2075 2632 2365 
Q 2881 2656 2881 3163 
Q 2881 3666 2632 3958 
Q 2384 4250 1959 4250 
Q 1534 4250 1286 3958 
Q 1038 3666 1038 3163 
Q 1038 2656 1286 2365 
Q 1534 2075 1959 2075 
z
" transform="scale(0.015625)"/>
     </defs>
     <use xlink:href="#DejaVuSans-62"/>
     <use xlink:href="#DejaVuSans-65" x="63.476562"/>
     <use xlink:href="#DejaVuSans-73" x="125"/>
     <use xlink:href="#DejaVuSans-74" x="177.099609"/>
     <use xlink:href="#DejaVuSans-20" x="216.308594"/>
     <use xlink:href="#DejaVuSans-32" x="248.095703"/>
     <use xlink:href="#DejaVuSans-30" x="311.71875"/>
     <use xlink:href="#DejaVuSans-30" x="375.341797"/>
     <use xlink:href="#DejaVuSans-39" x="438.964844"/>
    </g>
   </g>
   <g id="text_17">
    <!-- bbob f22, 20-D -->
    <g transform="translate(60.632064 38.111366)scale(0.102 -0.102)">
     <defs>
      <path id="DejaVuSans-44" d="M 1259 4147 
L 1259 519 
L 2022 519 
Q 2988 519 3436 956 
Q 3884 1394 3884 2338 
Q 3884 3275 3436 3711 
Q 2988 4147 2022 4147 
L 1259 4147 
z
M 628 4666 
L 1925 4666 
Q 3281 4666 3915 4102 
Q 4550 3538 4550 2338 
Q 4550 1131 3912 565 
Q 3275 0 1925 0 
L 628 0 
L 628 4666 
z
" transform="scale(0.015625)"/>
     </defs>
     <use xlink:href="#DejaVuSans-62"/>
     <use xlink:href="#DejaVuSans-62" x="63.476562"/>
     <use xlink:href="#DejaVuSans-6f" x="126.953125"/>
     <use xlink:href="#DejaVuSans-62" x="188.134766"/>
     <use xlink:href="#DejaVuSans-20" x="251.611328"/>
     <use xlink:href="#DejaVuSans-66" x="283.398438"/>
     <use xlink:href="#DejaVuSans-32" x="318.603516"/>
     <use xlink:href="#DejaVuSans-32" x="382.226562"/>
     <use xlink:href="#DejaVuSans-2c" x="445.849609"/>
     <use xlink:href="#DejaVuSans-20" x="477.636719"/>
     <use xlink:href="#DejaVuSans-32" x="509.423828"/>
     <use xlink:href="#DejaVuSans-30" x="573.046875"/>
     <use xlink:href="#DejaVuSans-2d" x="636.669922"/>
     <use xlink:href="#DejaVuSans-44" x="672.753906"/>
    </g>
    <!-- 51 targets: 100..1e-08 -->
    <g transform="translate(60.632064 49.533135)scale(0.102 -0.102)">
     <defs>
      <path id="DejaVuSans-35" d="M 691 4666 
L 3169 4666 
L 3169 4134 
L 1269 4134 
L 1269 2991 
Q 1406 3038 1543 3061 
Q 1681 3084 1819 3084 
Q 2600 3084 3056 2656 
Q 3513 2228 3513 1497 
Q 3513 744 3044 326 
Q 2575 -91 1722 -91 
Q 1428 -91 1123 -41 
Q 819 9 494 109 
L 494 744 
Q 775 591 1075 516 
Q 1375 441 1709 441 
Q 2250 441 2565 725 
Q 2881 1009 2881 1497 
Q 2881 1984 2565 2268 
Q 2250 2553 1709 2553 
Q 1456 2553 1204 2497 
Q 953 2441 691 2322 
L 691 4666 
z
" transform="scale(0.015625)"/>
      <path id="DejaVuSans-3a" d="M 750 794 
L 1409 794 
L 1409 0 
L 750 0 
L 750 794 
z
M 750 3309 
L 1409 3309 
L 1409 2516 
L 750 2516 
L 750 3309 
z
" transform="scale(0.015625)"/>
     </defs>
     <use xlink:href="#DejaVuSans-35"/>
     <use xlink:href="#DejaVuSans-31" x="63.623047"/>
     <use xlink:href="#DejaVuSans-20" x="127.246094"/>
     <use xlink:href="#DejaVuSans-74" x="159.033203"/>
     <use xlink:href="#DejaVuSans-61" x="198.242188"/>
     <use xlink:href="#DejaVuSans-72" x="259.521484"/>
     <use xlink:href="#DejaVuSans-67" x="298.884766"/>
     <use xlink:href="#DejaVuSans-65" x="362.361328"/>
     <use xlink:href="#DejaVuSans-74" x="423.884766"/>
     <use xlink:href="#DejaVuSans-73" x="463.09375"/>
     <use xlink:href="#DejaVuSans-3a" x="515.193359"/>
     <use xlink:href="#DejaVuSans-20" x="548.884766"/>
     <use xlink:href="#DejaVuSans-31" x="580.671875"/>
     <use xlink:href="#DejaVuSans-30" x="644.294922"/>
     <use xlink:href="#DejaVuSans-30" x="707.917969"/>
     <use xlink:href="#DejaVuSans-2e" x="771.541016"/>
     <use xlink:href="#DejaVuSans-2e" x="803.328125"/>
     <use xlink:href="#DejaVuSans-31" x="835.115234"/>
     <use xlink:href="#DejaVuSans-65" x="898.738281"/>
     <use xlink:href="#DejaVuSans-2d" x="960.261719"/>
     <use xlink:href="#DejaVuSans-30" x="996.345703"/>
     <use xlink:href="#DejaVuSans-38" x="1059.96875"/>
    </g>
    <!-- 15 instances -->
    <g transform="translate(60.632064 60.954904)scale(0.102 -0.102)">
     <use xlink:href="#DejaVuSans-31"/>
     <use xlink:href="#DejaVuSans-35" x="63.623047"/>
     <use xlink:href="#DejaVuSans-20" x="127.246094"/>
     <use xlink:href="#DejaVuSans-69" x="159.033203"/>
     <use xlink:href="#DejaVuSans-6e" x="186.816406"/>
     <use xlink:href="#DejaVuSans-73" x="250.195312"/>
     <use xlink:href="#DejaVuSans-74" x="302.294922"/>
     <use xlink:href="#DejaVuSans-61" x="341.503906"/>
     <use xlink:href="#DejaVuSans-6e" x="402.783203"/>
     <use xlink:href="#DejaVuSans-63" x="466.162109"/>
     <use xlink:href="#DejaVuSans-65" x="521.142578"/>
     <use xlink:href="#DejaVuSans-73" x="582.666016"/>
    </g>
   </g>
   <g id="text_18">
    <!-- v2.6 -->
    <g style="fill: #808080" transform="translate(198.292262 294.151352)scale(0.1 -0.1)">
     <use xlink:href="#DejaVuSans-76"/>
     <use xlink:href="#DejaVuSans-32" x="59.179688"/>
     <use xlink:href="#DejaVuSans-2e" x="122.802734"/>
     <use xlink:href="#DejaVuSans-36" x="154.589844"/>
    </g>
   </g>
   <g id="text_19">
    <!-- 22 Gallagher 21 peaks -->
    <g transform="translate(96.0782 21.648)scale(0.2 -0.2)">
     <defs>
      <path id="DejaVuSans-68" d="M 3513 2113 
L 3513 0 
L 2938 0 
L 2938 2094 
Q 2938 2591 2744 2837 
Q 2550 3084 2163 3084 
Q 1697 3084 1428 2787 
Q 1159 2491 1159 1978 
L 1159 0 
L 581 0 
L 581 4863 
L 1159 4863 
L 1159 2956 
Q 1366 3272 1645 3428 
Q 1925 3584 2291 3584 
Q 2894 3584 3203 3211 
Q 3513 2838 3513 2113 
z
" transform="scale(0.015625)"/>
      <path id="DejaVuSans-6b" d="M 581 4863 
L 1159 4863 
L 1159 1991 
L 2875 3500 
L 3609 3500 
L 1753 1863 
L 3688 0 
L 2938 0 
L 1159 1709 
L 1159 0 
L 581 0 
L 581 4863 
z
" transform="scale(0.015625)"/>
     </defs>
     <use xlink:href="#DejaVuSans-32"/>
     <use xlink:href="#DejaVuSans-32" x="63.623047"/>
     <use xlink:href="#DejaVuSans-20" x="127.246094"/>
     <use xlink:href="#DejaVuSans-47" x="159.033203"/>
     <use xlink:href="#DejaVuSans-61" x="236.523438"/>
     <use xlink:href="#DejaVuSans-6c" x="297.802734"/>
     <use xlink:href="#DejaVuSans-6c" x="325.585938"/>
     <use xlink:href="#DejaVuSans-61" x="353.369141"/>
     <use xlink:href="#DejaVuSans-67" x="414.648438"/>
     <use xlink:href="#DejaVuSans-68" x="478.125"/>
     <use xlink:href="#DejaVuSans-65" x="541.503906"/>
     <use xlink:href="#DejaVuSans-72" x="603.027344"/>
     <use xlink:href="#DejaVuSans-20" x="644.140625"/>
     <use xlink:href="#DejaVuSans-32" x="675.927734"/>
     <use xlink:href="#DejaVuSans-31" x="739.550781"/>
     <use xlink:href="#DejaVuSans-20" x="803.173828"/>
     <use xlink:href="#DejaVuSans-70" x="834.960938"/>
     <use xlink:href="#DejaVuSans-65" x="898.4375"/>
     <use xlink:href="#DejaVuSans-61" x="959.960938"/>
     <use xlink:href="#DejaVuSans-6b" x="1021.240234"/>
     <use xlink:href="#DejaVuSans-73" x="1079.150391"/>
    </g>
   </g>
  </g>
 </g>
 <defs>
  <clipPath id="p6904e223cd">
   <rect x="57.6" y="27.648" width="303.2064" height="271.296"/>
  </clipPath>
 </defs>
</svg>
