<?xml version="1.0" encoding="utf-8" standalone="no"?>
<!DOCTYPE svg PUBLIC "-//W3C//DTD SVG 1.1//EN"
  "http://www.w3.org/Graphics/SVG/1.1/DTD/svg11.dtd">
<svg xmlns:xlink="http://www.w3.org/1999/xlink" width="460.8pt" height="345.6pt" viewBox="0 0 460.8 345.6" xmlns="http://www.w3.org/2000/svg" version="1.1">
 <metadata>
  <rdf:RDF xmlns:dc="http://purl.org/dc/elements/1.1/" xmlns:cc="http://creativecommons.org/ns#" xmlns:rdf="http://www.w3.org/1999/02/22-rdf-syntax-ns#">
   <cc:Work>
    <dc:type rdf:resource="http://purl.org/dc/dcmitype/StillImage"/>
    <dc:date>2024-05-29T08:11:51.296393</dc:date>
    <dc:format>image/svg+xml</dc:format>
    <dc:creator>
     <cc:Agent>
      <dc:title>Matplotlib v3.5.1, https://matplotlib.org/</dc:title>
     </cc:Agent>
    </dc:creator>
   </cc:Work>
  </rdf:RDF>
 </metadata>
 <defs>
  <style type="text/css">*{stroke-linejoin: round; stroke-linecap: butt}</style>
 </defs>
 <g id="figure_1">
  <g id="patch_1">
   <path d="M 0 345.6 
L 460.8 345.6 
L 460.8 0 
L 0 0 
z
" style="fill: #ffffff"/>
  </g>
  <g id="axes_1">
   <g id="patch_2">
    <path d="M 57.6 298.944 
L 360.8064 298.944 
L 360.8064 27.648 
L 57.6 27.648 
z
" style="fill: #ffffff"/>
   </g>
   <g id="line2d_1">
    <path d="M 66.441498 298.944 
L 66.441498 293.624471 
L 69.674268 293.624471 
L 69.674268 288.304941 
L 70.639174 288.304941 
L 70.639174 27.648 
L 360.8064 27.648 
" style="fill: none; stroke: #f5deb3; stroke-width: 4; stroke-linecap: square"/>
   </g>
   <g id="line2d_2">
    <defs>
     <path id="mbfec7ea526" d="M 0 7.778175 
L 7.778175 0 
L 0 -7.778175 
L -7.778175 0 
z
" style="stroke: #f5deb3; stroke-width: 1.5; stroke-linejoin: miter"/>
    </defs>
    <g>
     <use xlink:href="#mbfec7ea526" x="69.674268" y="288.304941" style="fill: #f5deb3; stroke: #f5deb3; stroke-width: 1.5; stroke-linejoin: miter"/>
     <use xlink:href="#mbfec7ea526" x="70.639174" y="288.304941" style="fill: #f5deb3; stroke: #f5deb3; stroke-width: 1.5; stroke-linejoin: miter"/>
     <use xlink:href="#mbfec7ea526" x="70.639174" y="27.648" style="fill: #f5deb3; stroke: #f5deb3; stroke-width: 1.5; stroke-linejoin: miter"/>
     <use xlink:href="#mbfec7ea526" x="70.639174" y="27.648" style="fill: #f5deb3; stroke: #f5deb3; stroke-width: 1.5; stroke-linejoin: miter"/>
     <use xlink:href="#mbfec7ea526" x="360.8064" y="27.648" style="fill: #f5deb3; stroke: #f5deb3; stroke-width: 1.5; stroke-linejoin: miter"/>
    </g>
   </g>
   <g id="line2d_3">
    <path style="fill: none; stroke: #f5deb3; stroke-width: 4; stroke-linecap: square"/>
    <g/>
   </g>
   <g id="line2d_4">
    <path d="M 360.8064 27.648 
L 380.514816 33.07392 
" style="fill: none; stroke: #f5deb3; stroke-width: 4; stroke-linecap: square"/>
    <g>
     <use xlink:href="#mbfec7ea526" x="360.8064" y="27.648" style="fill: #f5deb3; stroke: #f5deb3; stroke-width: 1.5; stroke-linejoin: miter"/>
     <use xlink:href="#mbfec7ea526" x="380.514816" y="33.07392" style="fill: #f5deb3; stroke: #f5deb3; stroke-width: 1.5; stroke-linejoin: miter"/>
    </g>
   </g>
   <g id="matplotlib.axis_1">
    <g id="xtick_1">
     <g id="line2d_5">
      <path d="M 57.6 298.944 
L 57.6 27.648 
" clip-path="url(#p7cf13040b4)" style="fill: none; stroke: #b0b0b0; stroke-width: 0.8; stroke-linecap: square"/>
     </g>
     <g id="line2d_6">
      <defs>
       <path id="m4ca693e6a5" d="M 0 0 
L 0 3.5 
" style="stroke: #000000; stroke-width: 0.8"/>
      </defs>
      <g>
       <use xlink:href="#m4ca693e6a5" x="57.6" y="298.944" style="stroke: #000000; stroke-width: 0.8"/>
      </g>
     </g>
     <g id="text_1">
      <!-- 0 -->
      <g transform="translate(52.191875 318.861344)scale(0.17 -0.17)">
       <defs>
        <path id="DejaVuSans-30" d="M 2034 4250 
Q 1547 4250 1301 3770 
Q 1056 3291 1056 2328 
Q 1056 1369 1301 889 
Q 1547 409 2034 409 
Q 2525 409 2770 889 
Q 3016 1369 3016 2328 
Q 3016 3291 2770 3770 
Q 2525 4250 2034 4250 
z
M 2034 4750 
Q 2819 4750 3233 4129 
Q 3647 3509 3647 2328 
Q 3647 1150 3233 529 
Q 2819 -91 2034 -91 
Q 1250 -91 836 529 
Q 422 1150 422 2328 
Q 422 3509 836 4129 
Q 1250 4750 2034 4750 
z
" transform="scale(0.015625)"/>
       </defs>
       <use xlink:href="#DejaVuSans-30"/>
      </g>
     </g>
    </g>
    <g id="xtick_2">
     <g id="line2d_7">
      <path d="M 144.2304 298.944 
L 144.2304 27.648 
" clip-path="url(#p7cf13040b4)" style="fill: none; stroke: #b0b0b0; stroke-width: 0.8; stroke-linecap: square"/>
     </g>
     <g id="line2d_8">
      <g>
       <use xlink:href="#m4ca693e6a5" x="144.2304" y="298.944" style="stroke: #000000; stroke-width: 0.8"/>
      </g>
     </g>
     <g id="text_2">
      <!-- 2 -->
      <g transform="translate(138.822275 318.861344)scale(0.17 -0.17)">
       <defs>
        <path id="DejaVuSans-32" d="M 1228 531 
L 3431 531 
L 3431 0 
L 469 0 
L 469 531 
Q 828 903 1448 1529 
Q 2069 2156 2228 2338 
Q 2531 2678 2651 2914 
Q 2772 3150 2772 3378 
Q 2772 3750 2511 3984 
Q 2250 4219 1831 4219 
Q 1534 4219 1204 4116 
Q 875 4013 500 3803 
L 500 4441 
Q 881 4594 1212 4672 
Q 1544 4750 1819 4750 
Q 2544 4750 2975 4387 
Q 3406 4025 3406 3419 
Q 3406 3131 3298 2873 
Q 3191 2616 2906 2266 
Q 2828 2175 2409 1742 
Q 1991 1309 1228 531 
z
" transform="scale(0.015625)"/>
       </defs>
       <use xlink:href="#DejaVuSans-32"/>
      </g>
     </g>
    </g>
    <g id="xtick_3">
     <g id="line2d_9">
      <path d="M 230.8608 298.944 
L 230.8608 27.648 
" clip-path="url(#p7cf13040b4)" style="fill: none; stroke: #b0b0b0; stroke-width: 0.8; stroke-linecap: square"/>
     </g>
     <g id="line2d_10">
      <g>
       <use xlink:href="#m4ca693e6a5" x="230.8608" y="298.944" style="stroke: #000000; stroke-width: 0.8"/>
      </g>
     </g>
     <g id="text_3">
      <!-- 4 -->
      <g transform="translate(225.452675 318.861344)scale(0.17 -0.17)">
       <defs>
        <path id="DejaVuSans-34" d="M 2419 4116 
L 825 1625 
L 2419 1625 
L 2419 4116 
z
M 2253 4666 
L 3047 4666 
L 3047 1625 
L 3713 1625 
L 3713 1100 
L 3047 1100 
L 3047 0 
L 2419 0 
L 2419 1100 
L 313 1100 
L 313 1709 
L 2253 4666 
z
" transform="scale(0.015625)"/>
       </defs>
       <use xlink:href="#DejaVuSans-34"/>
      </g>
     </g>
    </g>
    <g id="xtick_4">
     <g id="line2d_11">
      <path d="M 317.4912 298.944 
L 317.4912 27.648 
" clip-path="url(#p7cf13040b4)" style="fill: none; stroke: #b0b0b0; stroke-width: 0.8; stroke-linecap: square"/>
     </g>
     <g id="line2d_12">
      <g>
       <use xlink:href="#m4ca693e6a5" x="317.4912" y="298.944" style="stroke: #000000; stroke-width: 0.8"/>
      </g>
     </g>
     <g id="text_4">
      <!-- 6 -->
      <g transform="translate(312.083075 318.861344)scale(0.17 -0.17)">
       <defs>
        <path id="DejaVuSans-36" d="M 2113 2584 
Q 1688 2584 1439 2293 
Q 1191 2003 1191 1497 
Q 1191 994 1439 701 
Q 1688 409 2113 409 
Q 2538 409 2786 701 
Q 3034 994 3034 1497 
Q 3034 2003 2786 2293 
Q 2538 2584 2113 2584 
z
M 3366 4563 
L 3366 3988 
Q 3128 4100 2886 4159 
Q 2644 4219 2406 4219 
Q 1781 4219 1451 3797 
Q 1122 3375 1075 2522 
Q 1259 2794 1537 2939 
Q 1816 3084 2150 3084 
Q 2853 3084 3261 2657 
Q 3669 2231 3669 1497 
Q 3669 778 3244 343 
Q 2819 -91 2113 -91 
Q 1303 -91 875 529 
Q 447 1150 447 2328 
Q 447 3434 972 4092 
Q 1497 4750 2381 4750 
Q 2619 4750 2861 4703 
Q 3103 4656 3366 4563 
z
" transform="scale(0.015625)"/>
       </defs>
       <use xlink:href="#DejaVuSans-36"/>
      </g>
     </g>
    </g>
    <g id="xtick_5">
     <g id="line2d_13">
      <path d="M 100.9152 298.944 
L 100.9152 27.648 
" clip-path="url(#p7cf13040b4)" style="fill: none; stroke: #b0b0b0; stroke-width: 0.8; stroke-linecap: square"/>
     </g>
     <g id="line2d_14">
      <defs>
       <path id="mdb1e6ff539" d="M 0 0 
L 0 2 
" style="stroke: #000000; stroke-width: 0.6"/>
      </defs>
      <g>
       <use xlink:href="#mdb1e6ff539" x="100.9152" y="298.944" style="stroke: #000000; stroke-width: 0.6"/>
      </g>
     </g>
    </g>
    <g id="xtick_6">
     <g id="line2d_15">
      <path d="M 187.5456 298.944 
L 187.5456 27.648 
" clip-path="url(#p7cf13040b4)" style="fill: none; stroke: #b0b0b0; stroke-width: 0.8; stroke-linecap: square"/>
     </g>
     <g id="line2d_16">
      <g>
       <use xlink:href="#mdb1e6ff539" x="187.5456" y="298.944" style="stroke: #000000; stroke-width: 0.6"/>
      </g>
     </g>
    </g>
    <g id="xtick_7">
     <g id="line2d_17">
      <path d="M 274.176 298.944 
L 274.176 27.648 
" clip-path="url(#p7cf13040b4)" style="fill: none; stroke: #b0b0b0; stroke-width: 0.8; stroke-linecap: square"/>
     </g>
     <g id="line2d_18">
      <g>
       <use xlink:href="#mdb1e6ff539" x="274.176" y="298.944" style="stroke: #000000; stroke-width: 0.6"/>
      </g>
     </g>
    </g>
    <g id="xtick_8">
     <g id="line2d_19">
      <path d="M 360.8064 298.944 
L 360.8064 27.648 
" clip-path="url(#p7cf13040b4)" style="fill: none; stroke: #b0b0b0; stroke-width: 0.8; stroke-linecap: square"/>
     </g>
     <g id="line2d_20">
      <g>
       <use xlink:href="#mdb1e6ff539" x="360.8064" y="298.944" style="stroke: #000000; stroke-width: 0.6"/>
      </g>
     </g>
    </g>
    <g id="text_5">
     <!-- log10(# f-evals / dimension) -->
     <g transform="translate(88.823278 339.314156)scale(0.17 -0.17)">
      <defs>
       <path id="DejaVuSans-6c" d="M 603 4863 
L 1178 4863 
L 1178 0 
L 603 0 
L 603 4863 
z
" transform="scale(0.015625)"/>
       <path id="DejaVuSans-6f" d="M 1959 3097 
Q 1497 3097 1228 2736 
Q 959 2375 959 1747 
Q 959 1119 1226 758 
Q 1494 397 1959 397 
Q 2419 397 2687 759 
Q 2956 1122 2956 1747 
Q 2956 2369 2687 2733 
Q 2419 3097 1959 3097 
z
M 1959 3584 
Q 2709 3584 3137 3096 
Q 3566 2609 3566 1747 
Q 3566 888 3137 398 
Q 2709 -91 1959 -91 
Q 1206 -91 779 398 
Q 353 888 353 1747 
Q 353 2609 779 3096 
Q 1206 3584 1959 3584 
z
" transform="scale(0.015625)"/>
       <path id="DejaVuSans-67" d="M 2906 1791 
Q 2906 2416 2648 2759 
Q 2391 3103 1925 3103 
Q 1463 3103 1205 2759 
Q 947 2416 947 1791 
Q 947 1169 1205 825 
Q 1463 481 1925 481 
Q 2391 481 2648 825 
Q 2906 1169 2906 1791 
z
M 3481 434 
Q 3481 -459 3084 -895 
Q 2688 -1331 1869 -1331 
Q 1566 -1331 1297 -1286 
Q 1028 -1241 775 -1147 
L 775 -588 
Q 1028 -725 1275 -790 
Q 1522 -856 1778 -856 
Q 2344 -856 2625 -561 
Q 2906 -266 2906 331 
L 2906 616 
Q 2728 306 2450 153 
Q 2172 0 1784 0 
Q 1141 0 747 490 
Q 353 981 353 1791 
Q 353 2603 747 3093 
Q 1141 3584 1784 3584 
Q 2172 3584 2450 3431 
Q 2728 3278 2906 2969 
L 2906 3500 
L 3481 3500 
L 3481 434 
z
" transform="scale(0.015625)"/>
       <path id="DejaVuSans-31" d="M 794 531 
L 1825 531 
L 1825 4091 
L 703 3866 
L 703 4441 
L 1819 4666 
L 2450 4666 
L 2450 531 
L 3481 531 
L 3481 0 
L 794 0 
L 794 531 
z
" transform="scale(0.015625)"/>
       <path id="DejaVuSans-28" d="M 1984 4856 
Q 1566 4138 1362 3434 
Q 1159 2731 1159 2009 
Q 1159 1288 1364 580 
Q 1569 -128 1984 -844 
L 1484 -844 
Q 1016 -109 783 600 
Q 550 1309 550 2009 
Q 550 2706 781 3412 
Q 1013 4119 1484 4856 
L 1984 4856 
z
" transform="scale(0.015625)"/>
       <path id="DejaVuSans-23" d="M 3272 2816 
L 2363 2816 
L 2100 1772 
L 3016 1772 
L 3272 2816 
z
M 2803 4594 
L 2478 3297 
L 3391 3297 
L 3719 4594 
L 4219 4594 
L 3897 3297 
L 4872 3297 
L 4872 2816 
L 3775 2816 
L 3519 1772 
L 4513 1772 
L 4513 1294 
L 3397 1294 
L 3072 0 
L 2572 0 
L 2894 1294 
L 1978 1294 
L 1656 0 
L 1153 0 
L 1478 1294 
L 494 1294 
L 494 1772 
L 1594 1772 
L 1856 2816 
L 850 2816 
L 850 3297 
L 1978 3297 
L 2297 4594 
L 2803 4594 
z
" transform="scale(0.015625)"/>
       <path id="DejaVuSans-20" transform="scale(0.015625)"/>
       <path id="DejaVuSans-66" d="M 2375 4863 
L 2375 4384 
L 1825 4384 
Q 1516 4384 1395 4259 
Q 1275 4134 1275 3809 
L 1275 3500 
L 2222 3500 
L 2222 3053 
L 1275 3053 
L 1275 0 
L 697 0 
L 697 3053 
L 147 3053 
L 147 3500 
L 697 3500 
L 697 3744 
Q 697 4328 969 4595 
Q 1241 4863 1831 4863 
L 2375 4863 
z
" transform="scale(0.015625)"/>
       <path id="DejaVuSans-2d" d="M 313 2009 
L 1997 2009 
L 1997 1497 
L 313 1497 
L 313 2009 
z
" transform="scale(0.015625)"/>
       <path id="DejaVuSans-65" d="M 3597 1894 
L 3597 1613 
L 953 1613 
Q 991 1019 1311 708 
Q 1631 397 2203 397 
Q 2534 397 2845 478 
Q 3156 559 3463 722 
L 3463 178 
Q 3153 47 2828 -22 
Q 2503 -91 2169 -91 
Q 1331 -91 842 396 
Q 353 884 353 1716 
Q 353 2575 817 3079 
Q 1281 3584 2069 3584 
Q 2775 3584 3186 3129 
Q 3597 2675 3597 1894 
z
M 3022 2063 
Q 3016 2534 2758 2815 
Q 2500 3097 2075 3097 
Q 1594 3097 1305 2825 
Q 1016 2553 972 2059 
L 3022 2063 
z
" transform="scale(0.015625)"/>
       <path id="DejaVuSans-76" d="M 191 3500 
L 800 3500 
L 1894 563 
L 2988 3500 
L 3597 3500 
L 2284 0 
L 1503 0 
L 191 3500 
z
" transform="scale(0.015625)"/>
       <path id="DejaVuSans-61" d="M 2194 1759 
Q 1497 1759 1228 1600 
Q 959 1441 959 1056 
Q 959 750 1161 570 
Q 1363 391 1709 391 
Q 2188 391 2477 730 
Q 2766 1069 2766 1631 
L 2766 1759 
L 2194 1759 
z
M 3341 1997 
L 3341 0 
L 2766 0 
L 2766 531 
Q 2569 213 2275 61 
Q 1981 -91 1556 -91 
Q 1019 -91 701 211 
Q 384 513 384 1019 
Q 384 1609 779 1909 
Q 1175 2209 1959 2209 
L 2766 2209 
L 2766 2266 
Q 2766 2663 2505 2880 
Q 2244 3097 1772 3097 
Q 1472 3097 1187 3025 
Q 903 2953 641 2809 
L 641 3341 
Q 956 3463 1253 3523 
Q 1550 3584 1831 3584 
Q 2591 3584 2966 3190 
Q 3341 2797 3341 1997 
z
" transform="scale(0.015625)"/>
       <path id="DejaVuSans-73" d="M 2834 3397 
L 2834 2853 
Q 2591 2978 2328 3040 
Q 2066 3103 1784 3103 
Q 1356 3103 1142 2972 
Q 928 2841 928 2578 
Q 928 2378 1081 2264 
Q 1234 2150 1697 2047 
L 1894 2003 
Q 2506 1872 2764 1633 
Q 3022 1394 3022 966 
Q 3022 478 2636 193 
Q 2250 -91 1575 -91 
Q 1294 -91 989 -36 
Q 684 19 347 128 
L 347 722 
Q 666 556 975 473 
Q 1284 391 1588 391 
Q 1994 391 2212 530 
Q 2431 669 2431 922 
Q 2431 1156 2273 1281 
Q 2116 1406 1581 1522 
L 1381 1569 
Q 847 1681 609 1914 
Q 372 2147 372 2553 
Q 372 3047 722 3315 
Q 1072 3584 1716 3584 
Q 2034 3584 2315 3537 
Q 2597 3491 2834 3397 
z
" transform="scale(0.015625)"/>
       <path id="DejaVuSans-2f" d="M 1625 4666 
L 2156 4666 
L 531 -594 
L 0 -594 
L 1625 4666 
z
" transform="scale(0.015625)"/>
       <path id="DejaVuSans-64" d="M 2906 2969 
L 2906 4863 
L 3481 4863 
L 3481 0 
L 2906 0 
L 2906 525 
Q 2725 213 2448 61 
Q 2172 -91 1784 -91 
Q 1150 -91 751 415 
Q 353 922 353 1747 
Q 353 2572 751 3078 
Q 1150 3584 1784 3584 
Q 2172 3584 2448 3432 
Q 2725 3281 2906 2969 
z
M 947 1747 
Q 947 1113 1208 752 
Q 1469 391 1925 391 
Q 2381 391 2643 752 
Q 2906 1113 2906 1747 
Q 2906 2381 2643 2742 
Q 2381 3103 1925 3103 
Q 1469 3103 1208 2742 
Q 947 2381 947 1747 
z
" transform="scale(0.015625)"/>
       <path id="DejaVuSans-69" d="M 603 3500 
L 1178 3500 
L 1178 0 
L 603 0 
L 603 3500 
z
M 603 4863 
L 1178 4863 
L 1178 4134 
L 603 4134 
L 603 4863 
z
" transform="scale(0.015625)"/>
       <path id="DejaVuSans-6d" d="M 3328 2828 
Q 3544 3216 3844 3400 
Q 4144 3584 4550 3584 
Q 5097 3584 5394 3201 
Q 5691 2819 5691 2113 
L 5691 0 
L 5113 0 
L 5113 2094 
Q 5113 2597 4934 2840 
Q 4756 3084 4391 3084 
Q 3944 3084 3684 2787 
Q 3425 2491 3425 1978 
L 3425 0 
L 2847 0 
L 2847 2094 
Q 2847 2600 2669 2842 
Q 2491 3084 2119 3084 
Q 1678 3084 1418 2786 
Q 1159 2488 1159 1978 
L 1159 0 
L 581 0 
L 581 3500 
L 1159 3500 
L 1159 2956 
Q 1356 3278 1631 3431 
Q 1906 3584 2284 3584 
Q 2666 3584 2933 3390 
Q 3200 3197 3328 2828 
z
" transform="scale(0.015625)"/>
       <path id="DejaVuSans-6e" d="M 3513 2113 
L 3513 0 
L 2938 0 
L 2938 2094 
Q 2938 2591 2744 2837 
Q 2550 3084 2163 3084 
Q 1697 3084 1428 2787 
Q 1159 2491 1159 1978 
L 1159 0 
L 581 0 
L 581 3500 
L 1159 3500 
L 1159 2956 
Q 1366 3272 1645 3428 
Q 1925 3584 2291 3584 
Q 2894 3584 3203 3211 
Q 3513 2838 3513 2113 
z
" transform="scale(0.015625)"/>
       <path id="DejaVuSans-29" d="M 513 4856 
L 1013 4856 
Q 1481 4119 1714 3412 
Q 1947 2706 1947 2009 
Q 1947 1309 1714 600 
Q 1481 -109 1013 -844 
L 513 -844 
Q 928 -128 1133 580 
Q 1338 1288 1338 2009 
Q 1338 2731 1133 3434 
Q 928 4138 513 4856 
z
" transform="scale(0.015625)"/>
      </defs>
      <use xlink:href="#DejaVuSans-6c"/>
      <use xlink:href="#DejaVuSans-6f" x="27.783203"/>
      <use xlink:href="#DejaVuSans-67" x="88.964844"/>
      <use xlink:href="#DejaVuSans-31" x="152.441406"/>
      <use xlink:href="#DejaVuSans-30" x="216.064453"/>
      <use xlink:href="#DejaVuSans-28" x="279.6875"/>
      <use xlink:href="#DejaVuSans-23" x="318.701172"/>
      <use xlink:href="#DejaVuSans-20" x="402.490234"/>
      <use xlink:href="#DejaVuSans-66" x="434.277344"/>
      <use xlink:href="#DejaVuSans-2d" x="463.982422"/>
      <use xlink:href="#DejaVuSans-65" x="500.066406"/>
      <use xlink:href="#DejaVuSans-76" x="561.589844"/>
      <use xlink:href="#DejaVuSans-61" x="620.769531"/>
      <use xlink:href="#DejaVuSans-6c" x="682.048828"/>
      <use xlink:href="#DejaVuSans-73" x="709.832031"/>
      <use xlink:href="#DejaVuSans-20" x="761.931641"/>
      <use xlink:href="#DejaVuSans-2f" x="793.71875"/>
      <use xlink:href="#DejaVuSans-20" x="827.410156"/>
      <use xlink:href="#DejaVuSans-64" x="859.197266"/>
      <use xlink:href="#DejaVuSans-69" x="922.673828"/>
      <use xlink:href="#DejaVuSans-6d" x="950.457031"/>
      <use xlink:href="#DejaVuSans-65" x="1047.869141"/>
      <use xlink:href="#DejaVuSans-6e" x="1109.392578"/>
      <use xlink:href="#DejaVuSans-73" x="1172.771484"/>
      <use xlink:href="#DejaVuSans-69" x="1224.871094"/>
      <use xlink:href="#DejaVuSans-6f" x="1252.654297"/>
      <use xlink:href="#DejaVuSans-6e" x="1313.835938"/>
      <use xlink:href="#DejaVuSans-29" x="1377.214844"/>
     </g>
    </g>
   </g>
   <g id="matplotlib.axis_2">
    <g id="ytick_1">
     <g id="line2d_21">
      <path d="M 57.6 298.944 
L 360.8064 298.944 
" clip-path="url(#p7cf13040b4)" style="fill: none; stroke: #b0b0b0; stroke-width: 0.8; stroke-linecap: square"/>
     </g>
     <g id="line2d_22">
      <defs>
       <path id="m4768bde67d" d="M 0 0 
L -3.5 0 
" style="stroke: #000000; stroke-width: 0.8"/>
      </defs>
      <g>
       <use xlink:href="#m4768bde67d" x="57.6" y="298.944" style="stroke: #000000; stroke-width: 0.8"/>
      </g>
     </g>
     <g id="text_6">
      <!-- 0.0 -->
      <g transform="translate(25.155 305.02275)scale(0.16 -0.16)">
       <defs>
        <path id="DejaVuSans-2e" d="M 684 794 
L 1344 794 
L 1344 0 
L 684 0 
L 684 794 
z
" transform="scale(0.015625)"/>
       </defs>
       <use xlink:href="#DejaVuSans-30"/>
       <use xlink:href="#DejaVuSans-2e" x="63.623047"/>
       <use xlink:href="#DejaVuSans-30" x="95.410156"/>
      </g>
     </g>
    </g>
    <g id="ytick_2">
     <g id="line2d_23">
      <path d="M 57.6 244.6848 
L 360.8064 244.6848 
" clip-path="url(#p7cf13040b4)" style="fill: none; stroke: #b0b0b0; stroke-width: 0.8; stroke-linecap: square"/>
     </g>
     <g id="line2d_24">
      <g>
       <use xlink:href="#m4768bde67d" x="57.6" y="244.6848" style="stroke: #000000; stroke-width: 0.8"/>
      </g>
     </g>
     <g id="text_7">
      <!-- 0.2 -->
      <g transform="translate(25.155 250.76355)scale(0.16 -0.16)">
       <use xlink:href="#DejaVuSans-30"/>
       <use xlink:href="#DejaVuSans-2e" x="63.623047"/>
       <use xlink:href="#DejaVuSans-32" x="95.410156"/>
      </g>
     </g>
    </g>
    <g id="ytick_3">
     <g id="line2d_25">
      <path d="M 57.6 190.4256 
L 360.8064 190.4256 
" clip-path="url(#p7cf13040b4)" style="fill: none; stroke: #b0b0b0; stroke-width: 0.8; stroke-linecap: square"/>
     </g>
     <g id="line2d_26">
      <g>
       <use xlink:href="#m4768bde67d" x="57.6" y="190.4256" style="stroke: #000000; stroke-width: 0.8"/>
      </g>
     </g>
     <g id="text_8">
      <!-- 0.4 -->
      <g transform="translate(25.155 196.50435)scale(0.16 -0.16)">
       <use xlink:href="#DejaVuSans-30"/>
       <use xlink:href="#DejaVuSans-2e" x="63.623047"/>
       <use xlink:href="#DejaVuSans-34" x="95.410156"/>
      </g>
     </g>
    </g>
    <g id="ytick_4">
     <g id="line2d_27">
      <path d="M 57.6 136.1664 
L 360.8064 136.1664 
" clip-path="url(#p7cf13040b4)" style="fill: none; stroke: #b0b0b0; stroke-width: 0.8; stroke-linecap: square"/>
     </g>
     <g id="line2d_28">
      <g>
       <use xlink:href="#m4768bde67d" x="57.6" y="136.1664" style="stroke: #000000; stroke-width: 0.8"/>
      </g>
     </g>
     <g id="text_9">
      <!-- 0.6 -->
      <g transform="translate(25.155 142.24515)scale(0.16 -0.16)">
       <use xlink:href="#DejaVuSans-30"/>
       <use xlink:href="#DejaVuSans-2e" x="63.623047"/>
       <use xlink:href="#DejaVuSans-36" x="95.410156"/>
      </g>
     </g>
    </g>
    <g id="ytick_5">
     <g id="line2d_29">
      <path d="M 57.6 81.9072 
L 360.8064 81.9072 
" clip-path="url(#p7cf13040b4)" style="fill: none; stroke: #b0b0b0; stroke-width: 0.8; stroke-linecap: square"/>
     </g>
     <g id="line2d_30">
      <g>
       <use xlink:href="#m4768bde67d" x="57.6" y="81.9072" style="stroke: #000000; stroke-width: 0.8"/>
      </g>
     </g>
     <g id="text_10">
      <!-- 0.8 -->
      <g transform="translate(25.155 87.98595)scale(0.16 -0.16)">
       <defs>
        <path id="DejaVuSans-38" d="M 2034 2216 
Q 1584 2216 1326 1975 
Q 1069 1734 1069 1313 
Q 1069 891 1326 650 
Q 1584 409 2034 409 
Q 2484 409 2743 651 
Q 3003 894 3003 1313 
Q 3003 1734 2745 1975 
Q 2488 2216 2034 2216 
z
M 1403 2484 
Q 997 2584 770 2862 
Q 544 3141 544 3541 
Q 544 4100 942 4425 
Q 1341 4750 2034 4750 
Q 2731 4750 3128 4425 
Q 3525 4100 3525 3541 
Q 3525 3141 3298 2862 
Q 3072 2584 2669 2484 
Q 3125 2378 3379 2068 
Q 3634 1759 3634 1313 
Q 3634 634 3220 271 
Q 2806 -91 2034 -91 
Q 1263 -91 848 271 
Q 434 634 434 1313 
Q 434 1759 690 2068 
Q 947 2378 1403 2484 
z
M 1172 3481 
Q 1172 3119 1398 2916 
Q 1625 2713 2034 2713 
Q 2441 2713 2670 2916 
Q 2900 3119 2900 3481 
Q 2900 3844 2670 4047 
Q 2441 4250 2034 4250 
Q 1625 4250 1398 4047 
Q 1172 3844 1172 3481 
z
" transform="scale(0.015625)"/>
       </defs>
       <use xlink:href="#DejaVuSans-30"/>
       <use xlink:href="#DejaVuSans-2e" x="63.623047"/>
       <use xlink:href="#DejaVuSans-38" x="95.410156"/>
      </g>
     </g>
    </g>
    <g id="ytick_6">
     <g id="line2d_31">
      <path d="M 57.6 27.648 
L 360.8064 27.648 
" clip-path="url(#p7cf13040b4)" style="fill: none; stroke: #b0b0b0; stroke-width: 0.8; stroke-linecap: square"/>
     </g>
     <g id="line2d_32">
      <g>
       <use xlink:href="#m4768bde67d" x="57.6" y="27.648" style="stroke: #000000; stroke-width: 0.8"/>
      </g>
     </g>
     <g id="text_11">
      <!-- 1.0 -->
      <g transform="translate(25.155 33.72675)scale(0.16 -0.16)">
       <use xlink:href="#DejaVuSans-31"/>
       <use xlink:href="#DejaVuSans-2e" x="63.623047"/>
       <use xlink:href="#DejaVuSans-30" x="95.410156"/>
      </g>
     </g>
    </g>
    <g id="text_12">
     <!-- Fraction of function,target pairs -->
     <g transform="translate(17.619531 297.681)rotate(-90)scale(0.17 -0.17)">
      <defs>
       <path id="DejaVuSans-46" d="M 628 4666 
L 3309 4666 
L 3309 4134 
L 1259 4134 
L 1259 2759 
L 3109 2759 
L 3109 2228 
L 1259 2228 
L 1259 0 
L 628 0 
L 628 4666 
z
" transform="scale(0.015625)"/>
       <path id="DejaVuSans-72" d="M 2631 2963 
Q 2534 3019 2420 3045 
Q 2306 3072 2169 3072 
Q 1681 3072 1420 2755 
Q 1159 2438 1159 1844 
L 1159 0 
L 581 0 
L 581 3500 
L 1159 3500 
L 1159 2956 
Q 1341 3275 1631 3429 
Q 1922 3584 2338 3584 
Q 2397 3584 2469 3576 
Q 2541 3569 2628 3553 
L 2631 2963 
z
" transform="scale(0.015625)"/>
       <path id="DejaVuSans-63" d="M 3122 3366 
L 3122 2828 
Q 2878 2963 2633 3030 
Q 2388 3097 2138 3097 
Q 1578 3097 1268 2742 
Q 959 2388 959 1747 
Q 959 1106 1268 751 
Q 1578 397 2138 397 
Q 2388 397 2633 464 
Q 2878 531 3122 666 
L 3122 134 
Q 2881 22 2623 -34 
Q 2366 -91 2075 -91 
Q 1284 -91 818 406 
Q 353 903 353 1747 
Q 353 2603 823 3093 
Q 1294 3584 2113 3584 
Q 2378 3584 2631 3529 
Q 2884 3475 3122 3366 
z
" transform="scale(0.015625)"/>
       <path id="DejaVuSans-74" d="M 1172 4494 
L 1172 3500 
L 2356 3500 
L 2356 3053 
L 1172 3053 
L 1172 1153 
Q 1172 725 1289 603 
Q 1406 481 1766 481 
L 2356 481 
L 2356 0 
L 1766 0 
Q 1100 0 847 248 
Q 594 497 594 1153 
L 594 3053 
L 172 3053 
L 172 3500 
L 594 3500 
L 594 4494 
L 1172 4494 
z
" transform="scale(0.015625)"/>
       <path id="DejaVuSans-75" d="M 544 1381 
L 544 3500 
L 1119 3500 
L 1119 1403 
Q 1119 906 1312 657 
Q 1506 409 1894 409 
Q 2359 409 2629 706 
Q 2900 1003 2900 1516 
L 2900 3500 
L 3475 3500 
L 3475 0 
L 2900 0 
L 2900 538 
Q 2691 219 2414 64 
Q 2138 -91 1772 -91 
Q 1169 -91 856 284 
Q 544 659 544 1381 
z
M 1991 3584 
L 1991 3584 
z
" transform="scale(0.015625)"/>
       <path id="DejaVuSans-2c" d="M 750 794 
L 1409 794 
L 1409 256 
L 897 -744 
L 494 -744 
L 750 256 
L 750 794 
z
" transform="scale(0.015625)"/>
       <path id="DejaVuSans-70" d="M 1159 525 
L 1159 -1331 
L 581 -1331 
L 581 3500 
L 1159 3500 
L 1159 2969 
Q 1341 3281 1617 3432 
Q 1894 3584 2278 3584 
Q 2916 3584 3314 3078 
Q 3713 2572 3713 1747 
Q 3713 922 3314 415 
Q 2916 -91 2278 -91 
Q 1894 -91 1617 61 
Q 1341 213 1159 525 
z
M 3116 1747 
Q 3116 2381 2855 2742 
Q 2594 3103 2138 3103 
Q 1681 3103 1420 2742 
Q 1159 2381 1159 1747 
Q 1159 1113 1420 752 
Q 1681 391 2138 391 
Q 2594 391 2855 752 
Q 3116 1113 3116 1747 
z
" transform="scale(0.015625)"/>
      </defs>
      <use xlink:href="#DejaVuSans-46"/>
      <use xlink:href="#DejaVuSans-72" x="50.269531"/>
      <use xlink:href="#DejaVuSans-61" x="91.382812"/>
      <use xlink:href="#DejaVuSans-63" x="152.662109"/>
      <use xlink:href="#DejaVuSans-74" x="207.642578"/>
      <use xlink:href="#DejaVuSans-69" x="246.851562"/>
      <use xlink:href="#DejaVuSans-6f" x="274.634766"/>
      <use xlink:href="#DejaVuSans-6e" x="335.816406"/>
      <use xlink:href="#DejaVuSans-20" x="399.195312"/>
      <use xlink:href="#DejaVuSans-6f" x="430.982422"/>
      <use xlink:href="#DejaVuSans-66" x="492.164062"/>
      <use xlink:href="#DejaVuSans-20" x="527.369141"/>
      <use xlink:href="#DejaVuSans-66" x="559.15625"/>
      <use xlink:href="#DejaVuSans-75" x="594.361328"/>
      <use xlink:href="#DejaVuSans-6e" x="657.740234"/>
      <use xlink:href="#DejaVuSans-63" x="721.119141"/>
      <use xlink:href="#DejaVuSans-74" x="776.099609"/>
      <use xlink:href="#DejaVuSans-69" x="815.308594"/>
      <use xlink:href="#DejaVuSans-6f" x="843.091797"/>
      <use xlink:href="#DejaVuSans-6e" x="904.273438"/>
      <use xlink:href="#DejaVuSans-2c" x="967.652344"/>
      <use xlink:href="#DejaVuSans-74" x="999.439453"/>
      <use xlink:href="#DejaVuSans-61" x="1038.648438"/>
      <use xlink:href="#DejaVuSans-72" x="1099.927734"/>
      <use xlink:href="#DejaVuSans-67" x="1139.291016"/>
      <use xlink:href="#DejaVuSans-65" x="1202.767578"/>
      <use xlink:href="#DejaVuSans-74" x="1264.291016"/>
      <use xlink:href="#DejaVuSans-20" x="1303.5"/>
      <use xlink:href="#DejaVuSans-70" x="1335.287109"/>
      <use xlink:href="#DejaVuSans-61" x="1398.763672"/>
      <use xlink:href="#DejaVuSans-69" x="1460.042969"/>
      <use xlink:href="#DejaVuSans-72" x="1487.826172"/>
      <use xlink:href="#DejaVuSans-73" x="1528.939453"/>
     </g>
    </g>
   </g>
   <g id="line2d_33">
    <defs>
     <path id="mae6db7f56e" d="M 0 1.5 
C 0.397805 1.5 0.77937 1.341951 1.06066 1.06066 
C 1.341951 0.77937 1.5 0.397805 1.5 0 
C 1.5 -0.397805 1.341951 -0.77937 1.06066 -1.06066 
C 0.77937 -1.341951 0.397805 -1.5 0 -1.5 
C -0.397805 -1.5 -0.77937 -1.341951 -1.06066 -1.06066 
C -1.341951 -0.77937 -1.5 -0.397805 -1.5 0 
C -1.5 0.397805 -1.341951 0.77937 -1.06066 1.06066 
C -0.77937 1.341951 -0.397805 1.5 0 1.5 
z
" style="stroke: #f5deb3"/>
    </defs>
    <g>
     <use xlink:href="#mae6db7f56e" x="70.639174" y="27.648" style="fill: #f5deb3; stroke: #f5deb3"/>
     <use xlink:href="#mae6db7f56e" x="70.639174" y="27.648" style="fill: #f5deb3; stroke: #f5deb3"/>
    </g>
   </g>
   <g id="line2d_34">
    <defs>
     <path id="m28b327bc32" d="M 0 1.5 
C 0.397805 1.5 0.77937 1.341951 1.06066 1.06066 
C 1.341951 0.77937 1.5 0.397805 1.5 0 
C 1.5 -0.397805 1.341951 -0.77937 1.06066 -1.06066 
C 0.77937 -1.341951 0.397805 -1.5 0 -1.5 
C -0.397805 -1.5 -0.77937 -1.341951 -1.06066 -1.06066 
C -1.341951 -0.77937 -1.5 -0.397805 -1.5 0 
C -1.5 0.397805 -1.341951 0.77937 -1.06066 1.06066 
C -0.77937 1.341951 -0.397805 1.5 0 1.5 
z
" style="stroke: #000080"/>
    </defs>
    <g>
     <use xlink:href="#m28b327bc32" x="207.005489" y="27.648" style="fill: #000080; stroke: #000080"/>
     <use xlink:href="#m28b327bc32" x="207.005489" y="27.648" style="fill: #000080; stroke: #000080"/>
    </g>
   </g>
   <g id="line2d_35">
    <path d="M 53.402323 298.944 
L 53.402323 298.589365 
L 70.639174 298.589365 
L 70.639174 298.234729 
L 71.556993 298.234729 
L 71.556993 297.880094 
L 83.202082 297.880094 
L 83.202082 297.525459 
L 87.495981 297.525459 
L 87.495981 297.170824 
L 90.668036 297.170824 
L 90.668036 296.816188 
L 93.934916 296.816188 
L 93.934916 296.461553 
L 99.14107 296.461553 
L 99.14107 296.106918 
L 103.214303 296.106918 
L 103.214303 295.752282 
L 108.416798 295.752282 
L 108.416798 295.397647 
L 110.897141 295.397647 
L 110.897141 295.043012 
L 113.186449 295.043012 
L 113.186449 294.688376 
L 114.326893 294.688376 
L 114.326893 294.333741 
L 118.376446 294.333741 
L 118.376446 293.979106 
L 119.105667 293.979106 
L 119.105667 293.624471 
L 136.242113 293.624471 
L 136.270855 292.9152 
L 137.195511 292.9152 
L 137.195511 292.560565 
L 137.866944 292.560565 
L 137.866944 292.205929 
L 138.438609 292.205929 
L 138.540708 290.787388 
L 140.335954 290.787388 
L 140.405242 290.078118 
L 140.928134 290.078118 
L 140.972924 289.368847 
L 142.059343 289.368847 
L 142.059343 289.014212 
L 142.763822 289.014212 
L 142.844994 286.177129 
L 142.966099 286.177129 
L 142.986208 282.985412 
L 143.10641 282.985412 
L 143.10641 282.630776 
L 143.225848 282.630776 
L 143.225848 282.276141 
L 143.501625 282.276141 
L 143.501625 280.8576 
L 143.811926 280.8576 
L 143.811926 280.502965 
L 145.184016 280.502965 
L 145.184016 280.148329 
L 146.412609 280.148329 
L 146.412609 279.793694 
L 146.612557 279.793694 
L 146.612557 279.439059 
L 146.859539 279.439059 
L 146.859539 279.084424 
L 147.054816 279.084424 
L 147.1517 278.375153 
L 147.296097 278.375153 
L 147.296097 277.665882 
L 147.486917 277.665882 
L 147.486917 277.311247 
L 147.660152 277.311247 
L 147.73837 275.892706 
L 147.847333 275.892706 
L 147.847333 275.538071 
L 148.563035 275.538071 
L 148.563035 275.183435 
L 149.136916 275.183435 
L 149.136916 260.643388 
L 151.233056 260.643388 
L 151.284843 245.039435 
L 152.082223 245.039435 
L 152.082223 243.975529 
L 152.328451 243.975529 
L 152.352898 243.266259 
L 152.55942 243.266259 
L 152.55942 228.371576 
L 153.107137 228.371576 
L 153.107137 227.662306 
L 153.662158 227.662306 
L 153.662158 227.307671 
L 154.366625 227.307671 
L 154.366625 226.5984 
L 154.639024 226.5984 
L 154.639024 226.243765 
L 154.875516 226.243765 
L 154.875516 225.889129 
L 155.454055 225.889129 
L 155.454055 225.179859 
L 156.135597 225.179859 
L 156.135597 224.825224 
L 156.764344 224.825224 
L 156.764344 224.470588 
L 156.899125 224.470588 
L 156.899125 223.406682 
L 157.061501 223.406682 
L 157.061501 222.697412 
L 157.391454 222.697412 
L 157.391454 221.633506 
L 157.549652 221.633506 
L 157.651312 207.093459 
L 157.76159 207.093459 
L 157.76159 206.738824 
L 158.151527 206.738824 
L 158.151527 206.384188 
L 158.427714 206.384188 
L 158.427714 205.320282 
L 158.58624 205.320282 
L 158.58624 204.965647 
L 159.164837 204.965647 
L 159.164837 204.611012 
L 159.334159 204.611012 
L 159.435025 203.547106 
L 160.085895 203.547106 
L 160.085895 203.192471 
L 160.399093 203.192471 
L 160.407056 202.4832 
L 160.87098 202.4832 
L 160.87098 202.128565 
L 160.987125 202.128565 
L 161.071844 200.355388 
L 161.209658 200.355388 
L 161.209658 187.588518 
L 162.690724 187.588518 
L 162.690724 187.233882 
L 163.239651 187.233882 
L 163.239651 186.524612 
L 163.423645 186.524612 
L 163.423645 186.169976 
L 164.109472 186.169976 
L 164.155187 170.920659 
L 165.251069 170.920659 
L 165.251069 170.566024 
L 165.826761 170.566024 
L 165.826761 170.211388 
L 167.040085 170.211388 
L 167.040085 169.502118 
L 167.44965 169.502118 
L 167.44965 169.147482 
L 167.580589 169.147482 
L 167.586025 167.728941 
L 167.694418 167.728941 
L 167.694418 167.374306 
L 169.089662 167.374306 
L 169.089662 166.665035 
L 169.521218 166.665035 
L 169.589749 165.955765 
L 169.875843 165.955765 
L 169.986203 164.891859 
L 170.299341 164.891859 
L 170.299341 164.537224 
L 170.964979 164.537224 
L 171.064631 151.061082 
L 171.506646 151.061082 
L 171.506646 150.706447 
L 172.22526 150.706447 
L 172.242242 149.997176 
L 172.465815 149.997176 
L 172.465815 149.642541 
L 172.954239 149.642541 
L 172.954239 149.287906 
L 174.087951 149.287906 
L 174.187707 148.578635 
L 174.630174 148.578635 
L 174.630174 148.224 
L 175.120826 148.224 
L 175.211641 147.514729 
L 175.244228 147.514729 
L 175.287589 132.265412 
L 175.427827 132.265412 
L 175.427827 131.910776 
L 176.158601 131.910776 
L 176.206783 129.428329 
L 176.456037 129.428329 
L 176.456037 117.725365 
L 176.604692 117.725365 
L 176.604692 117.016094 
L 177.311405 117.016094 
L 177.311405 116.661459 
L 177.699551 116.661459 
L 177.699551 116.306824 
L 177.904798 116.306824 
L 177.904798 115.597553 
L 178.277932 115.597553 
L 178.308695 102.121412 
L 178.476998 102.121412 
L 178.476998 100.702871 
L 179.287889 100.702871 
L 179.287889 100.348235 
L 180.401022 100.348235 
L 180.401022 99.9936 
L 180.860161 99.9936 
L 180.860161 99.638965 
L 181.004537 99.638965 
L 181.004537 99.284329 
L 182.977474 99.284329 
L 183.008625 97.865788 
L 183.232348 97.865788 
L 183.232348 97.511153 
L 183.867408 97.511153 
L 183.899404 71.977412 
L 184.184948 71.977412 
L 184.184948 71.622776 
L 184.858715 71.622776 
L 184.858715 69.8496 
L 185.228297 69.8496 
L 185.228297 69.494965 
L 186.109503 69.494965 
L 186.109503 69.140329 
L 186.556917 69.140329 
L 186.556917 68.785694 
L 186.982309 68.785694 
L 186.982309 68.431059 
L 187.312783 68.431059 
L 187.354637 67.721788 
L 187.445634 67.721788 
L 187.513593 52.827106 
L 187.849756 52.827106 
L 187.849756 52.472471 
L 187.969687 52.472471 
L 187.969687 51.408565 
L 189.158105 51.408565 
L 189.158105 51.053929 
L 202.122888 51.053929 
L 202.122888 38.287059 
L 205.071423 38.287059 
L 205.071423 37.932424 
L 207.005489 37.932424 
L 207.005489 27.648 
L 360.8064 27.648 
L 360.8064 27.648 
" style="fill: none; stroke: #000080; stroke-width: 1.5; stroke-linecap: square"/>
   </g>
   <g id="line2d_36">
    <defs>
     <path id="mbd07c0bb85" d="M 0 6 
C 1.591219 6 3.117479 5.367802 4.242641 4.242641 
C 5.367802 3.117479 6 1.591219 6 0 
C 6 -1.591219 5.367802 -3.117479 4.242641 -4.242641 
C 3.117479 -5.367802 1.591219 -6 0 -6 
C -1.591219 -6 -3.117479 -5.367802 -4.242641 -4.242641 
C -5.367802 -3.117479 -6 -1.591219 -6 0 
C -6 1.591219 -5.367802 3.117479 -4.242641 4.242641 
C -3.117479 5.367802 -1.591219 6 0 6 
z
" style="stroke: #000080; stroke-width: 1.5"/>
    </defs>
    <g>
     <use xlink:href="#mbd07c0bb85" x="142.844994" y="286.177129" style="fill-opacity: 0; stroke: #000080; stroke-width: 1.5"/>
     <use xlink:href="#mbd07c0bb85" x="178.308695" y="102.121412" style="fill-opacity: 0; stroke: #000080; stroke-width: 1.5"/>
     <use xlink:href="#mbd07c0bb85" x="207.005489" y="37.932424" style="fill-opacity: 0; stroke: #000080; stroke-width: 1.5"/>
     <use xlink:href="#mbd07c0bb85" x="207.005489" y="27.648" style="fill-opacity: 0; stroke: #000080; stroke-width: 1.5"/>
     <use xlink:href="#mbd07c0bb85" x="207.005489" y="27.648" style="fill-opacity: 0; stroke: #000080; stroke-width: 1.5"/>
     <use xlink:href="#mbd07c0bb85" x="360.8064" y="27.648" style="fill-opacity: 0; stroke: #000080; stroke-width: 1.5"/>
    </g>
   </g>
   <g id="line2d_37">
    <path style="fill: none; stroke: #000080; stroke-width: 1.5; stroke-linecap: square"/>
    <g/>
   </g>
   <g id="line2d_38">
    <defs>
     <path id="mb6c4760ce9" d="M 0 1.5 
C 0.397805 1.5 0.77937 1.341951 1.06066 1.06066 
C 1.341951 0.77937 1.5 0.397805 1.5 0 
C 1.5 -0.397805 1.341951 -0.77937 1.06066 -1.06066 
C 0.77937 -1.341951 0.397805 -1.5 0 -1.5 
C -0.397805 -1.5 -0.77937 -1.341951 -1.06066 -1.06066 
C -1.341951 -0.77937 -1.5 -0.397805 -1.5 0 
C -1.5 0.397805 -1.341951 0.77937 -1.06066 1.06066 
C -0.77937 1.341951 -0.397805 1.5 0 1.5 
z
" style="stroke: #ff00ff"/>
    </defs>
    <g>
     <use xlink:href="#mb6c4760ce9" x="312.584178" y="38.287059" style="fill: #ff00ff; stroke: #ff00ff"/>
     <use xlink:href="#mb6c4760ce9" x="312.584178" y="38.287059" style="fill: #ff00ff; stroke: #ff00ff"/>
    </g>
   </g>
   <g id="line2d_39">
    <path d="M 14.2848 298.944 
L 14.2848 298.589365 
L 59.392932 298.589365 
L 59.392932 298.234729 
L 65.227428 298.234729 
L 65.227428 297.880094 
L 74.836851 297.880094 
L 74.836851 297.525459 
L 87.876026 297.525459 
L 87.876026 297.170824 
L 88.613828 297.170824 
L 88.613828 296.816188 
L 88.972154 296.816188 
L 88.972154 296.461553 
L 89.668958 296.461553 
L 89.668958 296.106918 
L 93.66029 296.106918 
L 93.66029 295.752282 
L 94.735529 295.752282 
L 94.735529 295.397647 
L 104.028784 295.397647 
L 104.028784 295.043012 
L 104.961779 295.043012 
L 104.961779 294.688376 
L 107.643612 294.688376 
L 107.643612 294.333741 
L 109.159456 294.333741 
L 109.159456 293.979106 
L 114.234452 293.979106 
L 114.234452 293.624471 
L 120.0813 293.624471 
L 120.0813 293.269835 
L 124.101572 293.269835 
L 124.101572 292.9152 
L 143.245681 292.9152 
L 143.245681 292.560565 
L 145.485575 292.560565 
L 145.485575 292.205929 
L 149.078856 292.205929 
L 149.078856 291.851294 
L 149.847944 291.851294 
L 149.847944 291.496659 
L 157.825621 291.496659 
L 157.825621 291.142024 
L 174.018578 291.142024 
L 174.018578 290.787388 
L 174.600249 290.787388 
L 174.600249 290.432753 
L 174.937868 290.432753 
L 174.937868 290.078118 
L 175.091672 290.078118 
L 175.106254 289.368847 
L 175.226131 289.368847 
L 175.226131 289.014212 
L 175.599004 289.014212 
L 175.705205 287.950306 
L 177.914217 287.950306 
L 177.914217 287.595671 
L 180.603446 287.595671 
L 180.603446 287.241035 
L 181.121363 287.241035 
L 181.121363 286.8864 
L 185.868378 286.8864 
L 185.868378 286.531765 
L 187.66561 286.531765 
L 187.756978 285.822494 
L 187.999092 285.822494 
L 188.097994 285.113224 
L 188.276166 285.113224 
L 188.352012 284.403953 
L 188.406001 284.403953 
L 188.406001 284.049318 
L 189.166736 284.049318 
L 189.166736 283.694682 
L 189.522327 283.694682 
L 189.522327 283.340047 
L 189.80137 283.340047 
L 189.80137 282.985412 
L 194.964955 282.985412 
L 194.964955 282.630776 
L 195.326654 282.630776 
L 195.326654 282.276141 
L 196.019047 282.276141 
L 196.086069 281.212235 
L 196.249033 281.212235 
L 196.280984 280.148329 
L 196.661383 280.148329 
L 196.745779 279.084424 
L 197.370865 279.084424 
L 197.370865 278.729788 
L 197.819608 278.729788 
L 197.868572 278.020518 
L 198.658088 278.020518 
L 198.658088 277.665882 
L 200.623299 277.665882 
L 200.623299 277.311247 
L 200.771956 277.311247 
L 200.771956 276.956612 
L 201.056621 276.956612 
L 201.112491 276.247341 
L 201.196443 276.247341 
L 201.227374 275.538071 
L 202.141946 275.538071 
L 202.141946 275.183435 
L 202.276537 275.183435 
L 202.276537 274.8288 
L 202.466425 274.8288 
L 202.466425 274.474165 
L 202.766984 274.474165 
L 202.766984 274.119529 
L 203.133589 274.119529 
L 203.133589 273.764894 
L 203.511711 273.764894 
L 203.511711 273.410259 
L 204.434628 273.410259 
L 204.434628 273.055624 
L 204.825293 273.055624 
L 204.89947 271.991718 
L 204.947269 271.991718 
L 205.00982 271.282447 
L 205.068459 271.282447 
L 205.092899 270.573176 
L 206.079812 270.573176 
L 206.079812 270.218541 
L 207.124124 270.218541 
L 207.124124 269.509271 
L 207.627578 269.509271 
L 207.627578 269.154635 
L 208.139953 269.154635 
L 208.217218 268.445365 
L 208.262925 268.445365 
L 208.269178 267.736094 
L 208.447747 267.736094 
L 208.527461 267.026824 
L 208.821747 267.026824 
L 208.821747 266.672188 
L 208.942165 266.672188 
L 208.968687 265.962918 
L 209.414511 265.962918 
L 209.414511 265.608282 
L 209.82701 265.608282 
L 209.82701 265.253647 
L 210.15616 265.253647 
L 210.210368 264.544376 
L 210.268919 264.544376 
L 210.268919 264.189741 
L 210.450723 264.189741 
L 210.450723 263.835106 
L 210.665493 263.835106 
L 210.665493 263.480471 
L 211.139944 263.480471 
L 211.188718 262.7712 
L 211.270972 262.7712 
L 211.340659 261.707294 
L 212.039558 261.707294 
L 212.118692 260.998024 
L 212.172618 260.998024 
L 212.191912 260.288753 
L 212.57221 260.288753 
L 212.57221 259.934118 
L 212.947897 259.934118 
L 213.014566 259.224847 
L 213.267884 259.224847 
L 213.267884 258.870212 
L 213.6451 258.870212 
L 213.651676 258.160941 
L 213.895221 258.160941 
L 214.005225 256.7424 
L 214.312397 256.7424 
L 214.312397 256.387765 
L 215.469821 256.387765 
L 215.469821 256.033129 
L 215.855927 256.033129 
L 215.855927 255.678494 
L 216.092506 255.678494 
L 216.158794 254.969224 
L 216.332257 254.969224 
L 216.3404 254.259953 
L 216.852758 254.259953 
L 216.948375 253.550682 
L 217.209036 253.550682 
L 217.209036 253.196047 
L 217.864842 253.196047 
L 217.959945 252.132141 
L 218.042302 252.132141 
L 218.120968 251.422871 
L 218.333789 251.422871 
L 218.333789 251.068235 
L 218.651812 251.068235 
L 218.651812 250.7136 
L 218.81454 250.7136 
L 218.81454 250.358965 
L 219.021817 250.358965 
L 219.021817 250.004329 
L 219.386069 250.004329 
L 219.386069 249.649694 
L 219.667839 249.649694 
L 219.711104 248.585788 
L 219.783783 248.585788 
L 219.881827 247.521882 
L 219.902048 247.521882 
L 219.909794 246.812612 
L 220.043326 246.812612 
L 220.131713 246.103341 
L 220.466135 246.103341 
L 220.466135 245.748706 
L 220.741637 245.748706 
L 220.741637 245.394071 
L 221.261094 245.394071 
L 221.274564 244.6848 
L 221.37824 244.6848 
L 221.37824 244.330165 
L 221.509202 244.330165 
L 221.590977 243.266259 
L 221.693235 243.266259 
L 221.693235 242.911624 
L 222.423073 242.911624 
L 222.451627 242.202353 
L 222.539079 242.202353 
L 222.539079 241.847718 
L 222.758552 241.847718 
L 222.827011 241.138447 
L 222.870787 241.138447 
L 222.94228 240.429176 
L 223.016356 240.429176 
L 223.061118 239.365271 
L 223.128772 239.365271 
L 223.128772 239.010635 
L 223.433865 239.010635 
L 223.433865 238.656 
L 223.632153 238.656 
L 223.632153 238.301365 
L 223.764838 238.301365 
L 223.764838 237.946729 
L 223.999009 237.946729 
L 223.999009 237.592094 
L 224.169724 237.592094 
L 224.169724 237.237459 
L 224.4 237.237459 
L 224.4 236.882824 
L 224.722104 236.882824 
L 224.722104 236.528188 
L 224.951165 236.528188 
L 225.007997 235.818918 
L 225.291381 235.818918 
L 225.291381 235.464282 
L 225.449806 235.464282 
L 225.532642 234.400376 
L 225.620583 234.400376 
L 225.624808 233.336471 
L 226.048396 233.336471 
L 226.048396 232.981835 
L 226.501593 232.981835 
L 226.509418 232.272565 
L 226.677227 232.272565 
L 226.677227 231.917929 
L 226.881476 231.917929 
L 226.889609 231.208659 
L 227.517458 231.208659 
L 227.517458 230.854024 
L 227.808656 230.854024 
L 227.900473 228.726212 
L 227.922477 228.726212 
L 228.011772 228.016941 
L 228.105218 228.016941 
L 228.152854 227.307671 
L 228.404038 227.307671 
L 228.404038 226.953035 
L 228.879641 226.953035 
L 228.919728 225.534494 
L 229.14982 225.534494 
L 229.223639 224.825224 
L 229.473977 224.825224 
L 229.473977 224.470588 
L 229.911332 224.470588 
L 229.926759 223.761318 
L 230.049519 223.761318 
L 230.049519 223.406682 
L 230.24996 223.406682 
L 230.2851 222.697412 
L 230.872648 222.697412 
L 230.960425 221.278871 
L 231.008454 221.278871 
L 231.109901 220.5696 
L 231.179758 220.5696 
L 231.182532 219.860329 
L 231.467005 219.860329 
L 231.479205 219.151059 
L 231.734853 219.151059 
L 231.812986 217.732518 
L 231.91749 217.732518 
L 231.925135 217.023247 
L 232.353789 217.023247 
L 232.353789 216.668612 
L 232.686026 216.668612 
L 232.686026 216.313976 
L 232.810581 216.313976 
L 232.88725 215.250071 
L 233.011826 215.250071 
L 233.08952 214.5408 
L 233.504002 214.5408 
L 233.594827 212.412988 
L 233.730975 212.412988 
L 233.750506 211.703718 
L 234.297134 211.703718 
L 234.336114 210.285176 
L 234.415078 210.285176 
L 234.416636 209.575906 
L 234.633076 209.575906 
L 234.714792 208.866635 
L 235.143463 208.866635 
L 235.224786 207.802729 
L 235.329805 207.802729 
L 235.329805 207.448094 
L 235.50227 207.448094 
L 235.50227 207.093459 
L 235.803368 207.093459 
L 235.880453 206.029553 
L 236.072793 206.029553 
L 236.072793 205.674918 
L 236.363983 205.674918 
L 236.393585 204.965647 
L 236.523086 204.965647 
L 236.629428 203.192471 
L 236.670498 203.192471 
L 236.670498 202.837835 
L 236.854145 202.837835 
L 236.854145 202.4832 
L 237.20232 202.4832 
L 237.278305 201.773929 
L 237.32132 201.773929 
L 237.32132 201.419294 
L 237.463823 201.419294 
L 237.498487 200.710024 
L 237.786679 200.710024 
L 237.866049 199.291482 
L 237.926359 199.291482 
L 238.004756 198.582212 
L 238.139383 198.582212 
L 238.1843 197.872941 
L 238.265439 197.872941 
L 238.280408 197.163671 
L 238.426047 197.163671 
L 238.426047 196.809035 
L 238.687326 196.809035 
L 238.687326 196.4544 
L 238.934128 196.4544 
L 238.934128 196.099765 
L 239.109182 196.099765 
L 239.204433 195.035859 
L 239.262533 195.035859 
L 239.308572 194.326588 
L 239.400671 194.326588 
L 239.400671 193.971953 
L 239.714521 193.971953 
L 239.784536 192.198776 
L 239.855224 192.198776 
L 239.931572 191.134871 
L 240.325913 191.134871 
L 240.425511 189.716329 
L 240.471954 189.716329 
L 240.565955 188.652424 
L 240.668092 188.652424 
L 240.668092 188.297788 
L 240.861985 188.297788 
L 240.912215 187.233882 
L 241.25265 187.233882 
L 241.312537 186.169976 
L 241.392663 186.169976 
L 241.403407 185.460706 
L 241.555736 185.460706 
L 241.618065 184.751435 
L 241.748542 184.751435 
L 241.748542 184.3968 
L 241.948576 184.3968 
L 242.059162 182.623624 
L 242.068288 182.623624 
L 242.143924 181.914353 
L 242.372389 181.914353 
L 242.475548 180.850447 
L 242.538448 180.850447 
L 242.588838 179.431906 
L 242.660906 179.431906 
L 242.660906 179.077271 
L 242.783072 179.077271 
L 242.853805 178.368 
L 242.905045 178.368 
L 242.946846 177.658729 
L 243.021501 177.658729 
L 243.113817 176.949459 
L 243.214561 176.949459 
L 243.294089 176.240188 
L 243.445978 176.240188 
L 243.546018 175.530918 
L 243.580586 175.530918 
L 243.610602 174.821647 
L 243.72886 174.821647 
L 243.78421 174.112376 
L 243.849869 174.112376 
L 243.935213 173.403106 
L 243.965419 173.403106 
L 244.031477 172.3392 
L 244.300505 172.3392 
L 244.300505 171.984565 
L 244.417812 171.984565 
L 244.498528 171.275294 
L 244.559474 171.275294 
L 244.559474 170.920659 
L 244.78785 170.920659 
L 244.890569 169.502118 
L 244.95035 169.502118 
L 244.95035 169.147482 
L 245.268049 169.147482 
L 245.359224 167.728941 
L 245.440428 167.728941 
L 245.493823 166.665035 
L 245.698379 166.665035 
L 245.794216 165.246494 
L 245.859674 165.246494 
L 245.859674 164.891859 
L 245.979134 164.891859 
L 245.984523 164.182588 
L 246.126438 164.182588 
L 246.231762 163.118682 
L 246.399111 163.118682 
L 246.400017 162.409412 
L 246.536637 162.409412 
L 246.647417 161.345506 
L 246.691985 161.345506 
L 246.800487 160.2816 
L 246.940722 160.2816 
L 247.036341 159.217694 
L 247.196951 159.217694 
L 247.196951 158.863059 
L 247.329726 158.863059 
L 247.424875 156.735247 
L 247.449191 156.735247 
L 247.489337 155.671341 
L 247.808527 155.671341 
L 247.808527 155.316706 
L 248.099683 155.316706 
L 248.168475 153.543529 
L 248.326507 153.543529 
L 248.384548 151.770353 
L 248.485065 151.770353 
L 248.551436 151.061082 
L 248.605054 151.061082 
L 248.692742 149.997176 
L 248.850208 149.997176 
L 248.93266 148.933271 
L 249.025643 148.933271 
L 249.025643 148.578635 
L 249.217616 148.578635 
L 249.266401 147.160094 
L 249.508096 147.160094 
L 249.555299 146.096188 
L 249.666456 146.096188 
L 249.705528 145.032282 
L 249.915467 145.032282 
L 250.014332 143.968376 
L 250.053774 143.968376 
L 250.110111 143.259106 
L 250.216501 143.259106 
L 250.235182 142.549835 
L 250.39469 142.549835 
L 250.459643 141.485929 
L 250.552725 141.485929 
L 250.634239 140.067388 
L 250.729342 140.067388 
L 250.737191 139.358118 
L 250.941872 139.358118 
L 250.941872 139.003482 
L 251.158552 139.003482 
L 251.252575 136.875671 
L 251.301885 136.875671 
L 251.308547 136.1664 
L 251.5131 136.1664 
L 251.601 135.457129 
L 251.661427 135.457129 
L 251.764805 134.393224 
L 251.876115 134.393224 
L 251.944315 132.265412 
L 252.131847 132.265412 
L 252.242763 130.846871 
L 252.303753 130.846871 
L 252.369464 130.1376 
L 252.527097 130.1376 
L 252.570631 129.428329 
L 252.762682 129.428329 
L 252.812879 128.364424 
L 252.876664 128.364424 
L 252.896381 126.945882 
L 253.006138 126.945882 
L 253.050313 125.881976 
L 253.174179 125.881976 
L 253.282332 125.172706 
L 253.369978 125.172706 
L 253.476222 123.399529 
L 253.486961 123.399529 
L 253.486961 123.044894 
L 253.650723 123.044894 
L 253.754897 121.980988 
L 253.792403 121.980988 
L 253.903039 120.207812 
L 253.917955 120.207812 
L 253.918673 119.498541 
L 254.120028 119.498541 
L 254.174309 118.789271 
L 254.237339 118.789271 
L 254.237339 118.434635 
L 254.394886 118.434635 
L 254.459491 117.725365 
L 254.563188 117.725365 
L 254.577483 116.661459 
L 254.813324 116.661459 
L 254.813324 116.306824 
L 254.970579 116.306824 
L 255.032615 114.888282 
L 255.134399 114.888282 
L 255.134399 114.533647 
L 255.24696 114.533647 
L 255.329057 113.469741 
L 255.398399 113.469741 
L 255.485836 111.696565 
L 255.530087 111.696565 
L 255.559716 110.987294 
L 255.736513 110.987294 
L 255.813711 110.278024 
L 255.871738 110.278024 
L 255.982062 109.214118 
L 256.063139 109.214118 
L 256.063139 108.859482 
L 256.207978 108.859482 
L 256.308137 106.731671 
L 256.457334 106.731671 
L 256.509708 106.0224 
L 256.610765 106.0224 
L 256.712473 105.313129 
L 256.767892 105.313129 
L 256.767892 104.958494 
L 256.900074 104.958494 
L 256.980536 103.539953 
L 257.057804 103.539953 
L 257.156339 102.830682 
L 257.17813 102.830682 
L 257.272851 101.412141 
L 257.310607 101.412141 
L 257.310607 101.057506 
L 257.45177 101.057506 
L 257.52517 99.284329 
L 257.57343 99.284329 
L 257.660665 97.865788 
L 257.717651 97.865788 
L 257.806063 96.801882 
L 257.874606 96.801882 
L 257.874606 96.447247 
L 257.991525 96.447247 
L 258.026757 95.383341 
L 258.134707 95.383341 
L 258.23032 94.319435 
L 258.319682 94.319435 
L 258.416363 93.255529 
L 258.498052 93.255529 
L 258.563737 91.482353 
L 258.614398 91.482353 
L 258.614398 91.127718 
L 258.757887 91.127718 
L 258.866954 90.063812 
L 259.008031 90.063812 
L 259.008031 89.709176 
L 259.158216 89.709176 
L 259.25984 87.226729 
L 259.404365 87.226729 
L 259.442279 86.517459 
L 259.543244 86.517459 
L 259.570823 85.453553 
L 259.772508 85.453553 
L 259.79539 84.035012 
L 259.984537 84.035012 
L 260.077625 82.261835 
L 260.244017 82.261835 
L 260.34953 80.843294 
L 260.427751 80.843294 
L 260.471145 79.779388 
L 260.575047 79.779388 
L 260.585781 79.070118 
L 260.741611 79.070118 
L 260.741611 78.715482 
L 260.881025 78.715482 
L 260.989406 78.006212 
L 261.042192 78.006212 
L 261.042192 77.651576 
L 261.154951 77.651576 
L 261.207987 76.942306 
L 261.316257 76.942306 
L 261.378463 75.169129 
L 261.486239 75.169129 
L 261.560912 74.105224 
L 261.701053 74.105224 
L 261.801555 73.395953 
L 261.875749 73.395953 
L 261.936063 72.332047 
L 262.062167 72.332047 
L 262.153815 71.268141 
L 262.176755 71.268141 
L 262.235935 70.558871 
L 262.303277 70.558871 
L 262.348838 69.494965 
L 262.468218 69.494965 
L 262.525652 68.076424 
L 262.592558 68.076424 
L 262.697599 67.012518 
L 262.714801 67.012518 
L 262.714801 66.657882 
L 262.968845 66.657882 
L 263.053982 65.239341 
L 263.090133 65.239341 
L 263.168309 64.175435 
L 263.248178 64.175435 
L 263.26643 63.466165 
L 263.443219 63.466165 
L 263.443219 63.111529 
L 263.587144 63.111529 
L 263.657231 61.692988 
L 263.805966 61.692988 
L 263.874659 60.629082 
L 263.953211 60.629082 
L 264.014299 59.919812 
L 264.109433 59.919812 
L 264.205623 58.855906 
L 264.317977 58.855906 
L 264.317977 58.501271 
L 264.649915 58.501271 
L 264.649915 58.146635 
L 264.778576 58.146635 
L 264.874959 56.373459 
L 264.90242 56.373459 
L 264.922213 55.664188 
L 265.018905 55.664188 
L 265.061891 54.954918 
L 265.225259 54.954918 
L 265.231373 54.245647 
L 265.376773 54.245647 
L 265.413045 53.536376 
L 265.567936 53.536376 
L 265.567936 53.181741 
L 265.707906 53.181741 
L 265.707906 52.827106 
L 265.831252 52.827106 
L 265.849272 52.117835 
L 266.05835 52.117835 
L 266.153424 50.699294 
L 266.291094 50.699294 
L 266.291094 50.344659 
L 266.637734 50.344659 
L 266.695806 49.635388 
L 266.868677 49.635388 
L 266.941799 48.571482 
L 267.099367 48.571482 
L 267.099367 48.216847 
L 267.572323 48.216847 
L 267.572323 47.862212 
L 267.788836 47.862212 
L 267.788836 47.507576 
L 268.035035 47.507576 
L 268.035035 47.152941 
L 268.234582 47.152941 
L 268.234582 46.798306 
L 282.681623 46.798306 
L 282.681623 46.443671 
L 283.111333 46.443671 
L 283.111333 46.089035 
L 283.453651 46.089035 
L 283.501769 45.379765 
L 283.604545 45.379765 
L 283.682854 44.670494 
L 283.821139 44.670494 
L 283.844455 43.961224 
L 292.514076 43.961224 
L 292.514076 43.606588 
L 292.707459 43.606588 
L 292.766139 42.897318 
L 292.888129 42.897318 
L 292.888129 42.188047 
L 293.009693 42.188047 
L 293.009693 41.833412 
L 298.633773 41.833412 
L 298.633773 41.478776 
L 298.896679 41.478776 
L 298.896679 40.414871 
L 303.036343 40.414871 
L 303.036343 40.060235 
L 303.166926 40.060235 
L 303.166926 39.7056 
L 309.872707 39.7056 
L 309.872707 39.350965 
L 309.991543 39.350965 
L 309.991543 38.996329 
L 312.500681 38.996329 
L 312.584178 38.287059 
L 360.8064 38.287059 
L 360.8064 38.287059 
" style="fill: none; stroke: #ff00ff; stroke-width: 1.5; stroke-linecap: square"/>
   </g>
   <g id="line2d_40">
    <defs>
     <path id="m7d0ae027d1" d="M 0 8.485281 
L 5.091169 0 
L 0 -8.485281 
L -5.091169 0 
z
" style="stroke: #ff00ff; stroke-width: 1.5; stroke-linejoin: miter"/>
    </defs>
    <g>
     <use xlink:href="#m7d0ae027d1" x="107.643612" y="294.688376" style="fill-opacity: 0; stroke: #ff00ff; stroke-width: 1.5; stroke-linejoin: miter"/>
     <use xlink:href="#m7d0ae027d1" x="208.527461" y="267.381459" style="fill-opacity: 0; stroke: #ff00ff; stroke-width: 1.5; stroke-linejoin: miter"/>
     <use xlink:href="#m7d0ae027d1" x="243.72886" y="174.821647" style="fill-opacity: 0; stroke: #ff00ff; stroke-width: 1.5; stroke-linejoin: miter"/>
     <use xlink:href="#m7d0ae027d1" x="292.888129" y="42.897318" style="fill-opacity: 0; stroke: #ff00ff; stroke-width: 1.5; stroke-linejoin: miter"/>
     <use xlink:href="#m7d0ae027d1" x="312.584178" y="38.287059" style="fill-opacity: 0; stroke: #ff00ff; stroke-width: 1.5; stroke-linejoin: miter"/>
     <use xlink:href="#m7d0ae027d1" x="360.8064" y="38.287059" style="fill-opacity: 0; stroke: #ff00ff; stroke-width: 1.5; stroke-linejoin: miter"/>
    </g>
   </g>
   <g id="line2d_41">
    <path style="fill: none; stroke: #ff00ff; stroke-width: 1.5; stroke-linecap: square"/>
    <g/>
   </g>
   <g id="line2d_42">
    <path d="M 274.176 46.798306 
" clip-path="url(#p7cf13040b4)" style="fill: none; stroke: #ff00ff; stroke-width: 1.5; stroke-linecap: square"/>
    <defs>
     <path id="mbb16cdd2d6" d="M -12 12 
L 12 -12 
M -12 -12 
L 12 12 
" style="stroke: #ff00ff"/>
    </defs>
    <g clip-path="url(#p7cf13040b4)">
     <use xlink:href="#mbb16cdd2d6" x="274.176" y="46.798306" style="fill: #ff00ff; stroke: #ff00ff"/>
    </g>
   </g>
   <g id="line2d_43">
    <defs>
     <path id="mca187f2ced" d="M 0 1.5 
C 0.397805 1.5 0.77937 1.341951 1.06066 1.06066 
C 1.341951 0.77937 1.5 0.397805 1.5 0 
C 1.5 -0.397805 1.341951 -0.77937 1.06066 -1.06066 
C 0.77937 -1.341951 0.397805 -1.5 0 -1.5 
C -0.397805 -1.5 -0.77937 -1.341951 -1.06066 -1.06066 
C -1.341951 -0.77937 -1.5 -0.397805 -1.5 0 
C -1.5 0.397805 -1.341951 0.77937 -1.06066 1.06066 
C -0.77937 1.341951 -0.397805 1.5 0 1.5 
z
" style="stroke: #ff7500"/>
    </defs>
    <g>
     <use xlink:href="#mca187f2ced" x="141.84702" y="27.648" style="fill: #ff7500; stroke: #ff7500"/>
     <use xlink:href="#mca187f2ced" x="141.84702" y="27.648" style="fill: #ff7500; stroke: #ff7500"/>
    </g>
   </g>
   <g id="line2d_44">
    <path d="M 55.618005 298.944 
L 55.618005 298.589365 
L 65.227428 298.589365 
L 65.227428 298.234729 
L 70.639174 298.234729 
L 70.639174 297.880094 
L 73.268314 297.880094 
L 73.268314 297.525459 
L 84.142855 297.525459 
L 84.142855 297.170824 
L 85.471281 297.170824 
L 85.471281 296.816188 
L 85.894031 296.816188 
L 85.894031 296.461553 
L 86.307488 296.461553 
L 86.307488 296.106918 
L 86.712053 296.106918 
L 86.712053 295.752282 
L 87.1081 295.752282 
L 87.1081 295.397647 
L 89.668958 295.397647 
L 89.668958 295.043012 
L 90.007914 295.043012 
L 90.007914 294.688376 
L 92.811505 294.688376 
L 92.811505 294.333741 
L 93.098709 294.333741 
L 93.098709 293.624471 
L 96.95121 293.624471 
L 96.95121 292.9152 
L 97.18203 292.9152 
L 97.18203 292.205929 
L 97.410051 292.205929 
L 97.410051 291.496659 
L 97.635342 291.496659 
L 97.635342 291.142024 
L 97.857967 291.142024 
L 97.857967 290.432753 
L 98.295464 290.432753 
L 98.295464 288.304941 
L 98.510456 288.304941 
L 98.510456 287.595671 
L 98.933205 287.595671 
L 98.933205 287.241035 
L 99.346662 287.241035 
L 99.346662 286.8864 
L 99.751228 286.8864 
L 99.751228 286.531765 
L 101.287718 286.531765 
L 101.287718 286.177129 
L 102.187964 286.177129 
L 102.187964 285.822494 
L 104.028784 285.822494 
L 104.028784 285.467859 
L 104.655893 285.467859 
L 104.655893 285.113224 
L 104.809458 285.113224 
L 104.809458 284.758588 
L 104.961779 284.758588 
L 104.961779 284.403953 
L 105.112877 284.403953 
L 105.112877 283.340047 
L 105.26277 283.340047 
L 105.26277 282.985412 
L 105.411479 282.985412 
L 105.411479 282.630776 
L 105.559021 282.630776 
L 105.559021 281.921506 
L 105.705415 281.921506 
L 105.705415 281.566871 
L 106.699465 281.566871 
L 106.699465 281.212235 
L 106.974091 281.212235 
L 106.974091 280.502965 
L 107.5116 280.502965 
L 107.5116 280.148329 
L 107.904887 280.148329 
L 107.904887 279.793694 
L 108.29012 279.793694 
L 108.29012 279.439059 
L 108.791791 279.439059 
L 108.791791 279.084424 
L 109.159456 279.084424 
L 109.159456 278.729788 
L 109.990385 278.729788 
L 109.990385 278.375153 
L 110.106149 278.375153 
L 110.106149 278.020518 
L 110.449226 278.020518 
L 110.449226 277.311247 
L 110.562208 277.311247 
L 110.562208 276.601976 
L 110.674517 276.601976 
L 110.674517 275.892706 
L 110.786158 275.892706 
L 110.786158 274.8288 
L 111.226215 274.8288 
L 111.226215 274.474165 
L 112.180244 274.474165 
L 112.180244 273.764894 
L 112.989468 273.764894 
L 112.989468 273.410259 
L 113.860081 273.410259 
L 113.954374 272.700988 
L 114.141556 272.700988 
L 114.234452 271.991718 
L 114.418881 271.991718 
L 114.418881 271.637082 
L 114.601519 271.637082 
L 114.692177 254.614588 
L 114.7824 254.614588 
L 114.872193 253.905318 
L 115.575511 253.905318 
L 115.575511 253.550682 
L 115.83262 253.550682 
L 115.917548 237.946729 
L 116.336531 237.946729 
L 116.336531 237.592094 
L 117.462345 237.592094 
L 117.540239 235.818918 
L 117.617813 235.818918 
L 117.695068 233.691106 
L 117.772007 233.691106 
L 117.772007 231.917929 
L 118.000953 231.917929 
L 118.000953 231.563294 
L 118.376446 231.563294 
L 118.450653 230.854024 
L 118.524569 230.854024 
L 118.524569 230.499388 
L 118.671535 230.499388 
L 118.74459 229.080847 
L 118.889854 229.080847 
L 118.889854 228.371576 
L 119.034004 228.371576 
L 119.105667 226.953035 
L 119.319033 226.953035 
L 119.319033 226.243765 
L 119.738639 226.243765 
L 119.738639 225.889129 
L 120.28394 225.889129 
L 120.351004 224.115953 
L 120.41783 224.115953 
L 120.48442 207.448094 
L 120.550775 207.448094 
L 120.616896 204.965647 
L 120.944062 204.965647 
L 121.008818 190.4256 
L 121.518993 190.4256 
L 121.581803 175.885553 
L 121.706797 175.885553 
L 121.768984 162.764047 
L 122.854567 162.764047 
L 122.913079 146.805459 
L 122.971409 146.805459 
L 123.029559 143.613741 
L 123.145323 143.613741 
L 123.145323 142.904471 
L 123.260379 142.904471 
L 123.260379 130.492235 
L 124.535287 130.492235 
L 124.535287 129.428329 
L 124.748451 129.428329 
L 124.748451 128.719059 
L 125.063736 128.719059 
L 125.167667 116.661459 
L 125.271028 116.661459 
L 125.322496 115.597553 
L 125.628382 115.597553 
L 125.628382 113.824376 
L 125.829577 113.824376 
L 125.879541 104.603859 
L 126.028642 104.603859 
L 126.028642 103.894588 
L 127.040519 103.894588 
L 127.040519 102.121412 
L 127.18073 102.121412 
L 127.18073 101.412141 
L 127.319904 101.412141 
L 127.319904 100.702871 
L 127.458055 100.702871 
L 127.549596 99.638965 
L 127.5952 99.638965 
L 127.5952 99.284329 
L 128.266313 99.284329 
L 128.266313 97.511153 
L 128.657782 97.511153 
L 128.657782 97.156518 
L 128.999044 97.156518 
L 128.999044 85.453553 
L 129.167381 85.453553 
L 129.167381 85.098918 
L 129.86647 85.098918 
L 129.86647 84.744282 
L 130.46245 84.744282 
L 130.540507 72.686682 
L 130.579414 72.686682 
L 130.579414 70.913506 
L 131.820186 70.913506 
L 131.820186 59.919812 
L 131.965169 59.919812 
L 131.965169 59.565176 
L 133.356676 59.565176 
L 133.423621 58.501271 
L 133.754819 58.501271 
L 133.820365 56.018824 
L 134.652304 56.018824 
L 134.652304 54.245647 
L 135.085483 54.245647 
L 135.085483 53.891012 
L 135.864417 53.891012 
L 135.864417 43.961224 
L 137.113304 43.961224 
L 137.113304 43.606588 
L 140.079694 43.606588 
L 140.079694 43.251953 
L 140.972924 43.251953 
L 140.972924 42.897318 
L 141.415049 42.897318 
L 141.415049 42.542682 
L 141.84702 42.542682 
L 141.84702 27.648 
L 360.8064 27.648 
L 360.8064 27.648 
" style="fill: none; stroke: #ff7500; stroke-width: 1.5; stroke-linecap: square"/>
   </g>
   <g id="line2d_45">
    <defs>
     <path id="m90f304a5f5" d="M 0 -6 
L -1.347084 -1.854102 
L -5.706339 -1.854102 
L -2.179628 0.708204 
L -3.526712 4.854102 
L -0 2.291796 
L 3.526712 4.854102 
L 2.179628 0.708204 
L 5.706339 -1.854102 
L 1.347084 -1.854102 
z
" style="stroke: #ff7500; stroke-width: 1.5; stroke-linejoin: bevel"/>
    </defs>
    <g>
     <use xlink:href="#m90f304a5f5" x="120.616896" y="204.965647" style="fill-opacity: 0; stroke: #ff7500; stroke-width: 1.5; stroke-linejoin: bevel"/>
     <use xlink:href="#m90f304a5f5" x="141.84702" y="42.542682" style="fill-opacity: 0; stroke: #ff7500; stroke-width: 1.5; stroke-linejoin: bevel"/>
     <use xlink:href="#m90f304a5f5" x="141.84702" y="42.542682" style="fill-opacity: 0; stroke: #ff7500; stroke-width: 1.5; stroke-linejoin: bevel"/>
     <use xlink:href="#m90f304a5f5" x="141.84702" y="27.648" style="fill-opacity: 0; stroke: #ff7500; stroke-width: 1.5; stroke-linejoin: bevel"/>
     <use xlink:href="#m90f304a5f5" x="141.84702" y="27.648" style="fill-opacity: 0; stroke: #ff7500; stroke-width: 1.5; stroke-linejoin: bevel"/>
     <use xlink:href="#m90f304a5f5" x="360.8064" y="27.648" style="fill-opacity: 0; stroke: #ff7500; stroke-width: 1.5; stroke-linejoin: bevel"/>
    </g>
   </g>
   <g id="line2d_46">
    <path style="fill: none; stroke: #ff7500; stroke-width: 1.5; stroke-linecap: square"/>
    <g/>
   </g>
   <g id="line2d_47">
    <defs>
     <path id="m963f9e1960" d="M 0 1.5 
C 0.397805 1.5 0.77937 1.341951 1.06066 1.06066 
C 1.341951 0.77937 1.5 0.397805 1.5 0 
C 1.5 -0.397805 1.341951 -0.77937 1.06066 -1.06066 
C 0.77937 -1.341951 0.397805 -1.5 0 -1.5 
C -0.397805 -1.5 -0.77937 -1.341951 -1.06066 -1.06066 
C -1.341951 -0.77937 -1.5 -0.397805 -1.5 0 
C -1.5 0.397805 -1.341951 0.77937 -1.06066 1.06066 
C -0.77937 1.341951 -0.397805 1.5 0 1.5 
z
" style="stroke: #6495ed"/>
    </defs>
    <g>
     <use xlink:href="#m963f9e1960" x="182.028213" y="27.648" style="fill: #6495ed; stroke: #6495ed"/>
     <use xlink:href="#m963f9e1960" x="182.028213" y="27.648" style="fill: #6495ed; stroke: #6495ed"/>
    </g>
   </g>
   <g id="line2d_48">
    <path d="M 125.167667 298.944 
L 125.167667 298.589365 
L 125.526971 298.589365 
L 125.526971 297.880094 
L 125.779479 297.880094 
L 125.779479 297.525459 
L 125.979073 297.525459 
L 125.979073 297.170824 
L 126.176572 297.170824 
L 126.176572 296.816188 
L 126.323346 296.816188 
L 126.420564 295.043012 
L 126.468985 295.043012 
L 126.468985 294.688376 
L 126.661432 294.688376 
L 126.709238 293.269835 
L 126.804487 293.269835 
L 126.899255 292.205929 
L 126.993549 292.205929 
L 126.993549 291.496659 
L 132.638982 291.496659 
L 132.638982 291.142024 
L 133.01833 291.142024 
L 133.01833 290.787388 
L 133.289492 290.787388 
L 133.289492 290.078118 
L 133.423621 290.078118 
L 133.457005 289.368847 
L 133.656071 289.368847 
L 133.689044 287.950306 
L 133.983236 287.950306 
L 133.983236 287.595671 
L 134.400219 287.595671 
L 134.400219 287.241035 
L 134.558167 287.241035 
L 134.589598 286.531765 
L 138.566146 286.531765 
L 138.566146 286.177129 
L 138.718057 286.177129 
L 138.718057 285.822494 
L 139.043049 285.822494 
L 139.117256 285.113224 
L 139.532323 285.113224 
L 139.532323 284.758588 
L 139.819894 284.758588 
L 139.867398 283.694682 
L 139.962047 283.694682 
L 139.962047 283.340047 
L 141.283499 283.340047 
L 141.283499 282.985412 
L 142.185595 282.985412 
L 142.185595 282.630776 
L 142.373399 282.630776 
L 142.373399 282.276141 
L 142.723105 282.276141 
L 142.824734 281.212235 
L 143.126369 281.212235 
L 143.126369 280.8576 
L 143.245681 280.8576 
L 143.245681 280.502965 
L 144.003296 280.502965 
L 144.003296 280.148329 
L 144.621352 280.148329 
L 144.621352 279.793694 
L 145.450347 279.793694 
L 145.450347 279.439059 
L 146.159649 279.439059 
L 146.193574 278.729788 
L 146.612557 278.729788 
L 146.612557 278.375153 
L 147.455248 278.375153 
L 147.534321 277.665882 
L 147.597342 277.665882 
L 147.597342 277.311247 
L 148.276979 277.311247 
L 148.276979 276.956612 
L 148.652472 276.956612 
L 148.652472 276.601976 
L 149.136916 276.601976 
L 149.136916 276.247341 
L 149.510002 276.247341 
L 149.510002 275.892706 
L 149.65155 275.892706 
L 149.65155 275.538071 
L 150.262008 275.538071 
L 150.262008 275.183435 
L 150.985103 275.183435 
L 150.985103 274.8288 
L 151.194122 274.8288 
L 151.194122 274.474165 
L 151.579882 274.474165 
L 151.579882 274.119529 
L 152.25492 274.119529 
L 152.25492 273.764894 
L 152.401695 273.764894 
L 152.401695 273.410259 
L 153.01302 273.410259 
L 153.01302 273.055624 
L 153.627945 273.055624 
L 153.627945 272.700988 
L 153.764426 272.700988 
L 153.764426 272.346353 
L 154.179115 272.346353 
L 154.179115 271.991718 
L 154.344662 271.991718 
L 154.344662 271.637082 
L 154.86483 271.637082 
L 154.86483 271.282447 
L 154.992656 271.282447 
L 154.992656 270.927812 
L 155.588239 270.927812 
L 155.629335 270.218541 
L 155.792826 270.218541 
L 155.792826 269.863906 
L 156.125604 269.863906 
L 156.125604 269.509271 
L 156.589623 269.509271 
L 156.589623 269.154635 
L 156.966156 269.154635 
L 157.071009 268.090729 
L 157.222487 268.090729 
L 157.222487 267.736094 
L 157.400797 267.736094 
L 157.400797 267.381459 
L 158.303487 267.381459 
L 158.303487 267.026824 
L 158.418868 267.026824 
L 158.418868 266.672188 
L 158.726038 266.672188 
L 158.769513 265.962918 
L 159.002557 265.962918 
L 159.096679 264.899012 
L 159.164837 264.899012 
L 159.164837 264.544376 
L 159.660016 264.544376 
L 159.660016 264.189741 
L 160.486497 264.189741 
L 160.549809 263.125835 
L 160.62865 263.125835 
L 160.644379 262.416565 
L 160.940753 262.416565 
L 160.940753 262.061929 
L 161.13322 262.061929 
L 161.17912 261.352659 
L 161.293384 261.352659 
L 161.338896 260.643388 
L 161.579783 260.643388 
L 161.579783 260.288753 
L 161.957434 260.288753 
L 162.008681 259.224847 
L 162.648372 259.224847 
L 162.676617 258.515576 
L 163.246497 258.515576 
L 163.342092 256.7424 
L 163.362513 256.7424 
L 163.376115 256.033129 
L 163.545315 256.033129 
L 163.545315 255.678494 
L 163.679588 255.678494 
L 163.679588 255.323859 
L 164.161708 255.323859 
L 164.161708 254.969224 
L 164.497753 254.969224 
L 164.542535 253.550682 
L 164.663551 253.550682 
L 164.720604 252.841412 
L 164.80901 252.841412 
L 164.80901 252.132141 
L 164.965852 252.132141 
L 164.965852 251.422871 
L 165.586508 251.422871 
L 165.652884 250.7136 
L 165.760997 250.7136 
L 165.838694 250.004329 
L 165.886348 250.004329 
L 165.939815 248.940424 
L 166.034495 248.940424 
L 166.05809 247.876518 
L 166.228279 247.876518 
L 166.228279 247.521882 
L 166.707029 247.521882 
L 166.797933 243.975529 
L 166.972821 243.975529 
L 167.028891 243.266259 
L 167.084795 243.266259 
L 167.190556 242.202353 
L 167.339833 242.202353 
L 167.339833 241.847718 
L 167.466067 241.847718 
L 167.466067 241.493082 
L 167.775305 241.493082 
L 167.818303 216.668612 
L 168.058351 216.668612 
L 168.169334 202.128565 
L 168.269186 202.128565 
L 168.269186 200.710024 
L 168.67364 200.710024 
L 168.740211 187.943153 
L 168.847255 187.943153 
L 168.847255 187.588518 
L 169.039418 187.588518 
L 169.119745 186.879247 
L 169.174771 186.879247 
L 169.209704 185.815341 
L 169.289309 185.815341 
L 169.363634 173.048471 
L 169.662898 173.048471 
L 169.662898 172.3392 
L 169.856584 172.3392 
L 169.9383 171.275294 
L 170.09592 171.275294 
L 170.138678 170.211388 
L 170.369787 170.211388 
L 170.369787 169.856753 
L 170.841952 169.856753 
L 170.841952 169.502118 
L 171.195189 169.502118 
L 171.298095 143.968376 
L 171.638564 143.968376 
L 171.638564 143.613741 
L 171.804344 143.613741 
L 171.804344 142.549835 
L 171.934199 142.549835 
L 171.934199 140.776659 
L 172.084572 140.776659 
L 172.084572 140.422024 
L 172.436438 140.422024 
L 172.461621 125.881976 
L 172.777719 125.881976 
L 172.777719 113.469741 
L 173.326436 113.469741 
L 173.326436 99.9936 
L 173.537558 99.9936 
L 173.620559 82.261835 
L 173.956698 82.261835 
L 173.956698 81.197929 
L 174.271704 81.197929 
L 174.271704 70.558871 
L 175.309232 70.558871 
L 175.309232 70.204235 
L 175.77919 70.204235 
L 175.77919 69.8496 
L 175.929781 69.8496 
L 175.929781 57.082729 
L 176.951458 57.082729 
L 176.951458 56.728094 
L 177.076584 56.728094 
L 177.076584 56.373459 
L 178.16367 56.373459 
L 178.16367 55.664188 
L 178.284089 55.664188 
L 178.284089 55.309553 
L 179.279134 55.309553 
L 179.279134 41.833412 
L 180.505241 41.833412 
L 180.505241 41.124141 
L 182.028213 41.124141 
L 182.028213 27.648 
L 360.8064 27.648 
L 360.8064 27.648 
" style="fill: none; stroke: #6495ed; stroke-width: 1.5; stroke-linecap: square"/>
   </g>
   <g id="line2d_49">
    <defs>
     <path id="mb4b68b7733" d="M -0 6 
L 6 -6 
L -6 -6 
z
" style="stroke: #6495ed; stroke-width: 1.5; stroke-linejoin: miter"/>
    </defs>
    <g>
     <use xlink:href="#mb4b68b7733" x="172.084572" y="140.422024" style="fill-opacity: 0; stroke: #6495ed; stroke-width: 1.5; stroke-linejoin: miter"/>
     <use xlink:href="#mb4b68b7733" x="182.028213" y="41.124141" style="fill-opacity: 0; stroke: #6495ed; stroke-width: 1.5; stroke-linejoin: miter"/>
     <use xlink:href="#mb4b68b7733" x="182.028213" y="27.648" style="fill-opacity: 0; stroke: #6495ed; stroke-width: 1.5; stroke-linejoin: miter"/>
     <use xlink:href="#mb4b68b7733" x="182.028213" y="27.648" style="fill-opacity: 0; stroke: #6495ed; stroke-width: 1.5; stroke-linejoin: miter"/>
     <use xlink:href="#mb4b68b7733" x="360.8064" y="27.648" style="fill-opacity: 0; stroke: #6495ed; stroke-width: 1.5; stroke-linejoin: miter"/>
    </g>
   </g>
   <g id="line2d_50">
    <path style="fill: none; stroke: #6495ed; stroke-width: 1.5; stroke-linecap: square"/>
    <g/>
   </g>
   <g id="line2d_51">
    <path d="M 360.8064 38.287059 
L 380.514816 293.51808 
" style="fill: none; stroke: #ff00ff; stroke-width: 1.5; stroke-linecap: square"/>
    <g>
     <use xlink:href="#m7d0ae027d1" x="360.8064" y="38.287059" style="fill-opacity: 0; stroke: #ff00ff; stroke-width: 1.5; stroke-linejoin: miter"/>
     <use xlink:href="#m7d0ae027d1" x="380.514816" y="293.51808" style="fill-opacity: 0; stroke: #ff00ff; stroke-width: 1.5; stroke-linejoin: miter"/>
    </g>
   </g>
   <g id="line2d_52">
    <path d="M 360.8064 27.648 
L 380.514816 228.40704 
" style="fill: none; stroke: #000080; stroke-width: 1.5; stroke-linecap: square"/>
    <g>
     <use xlink:href="#mbd07c0bb85" x="360.8064" y="27.648" style="fill-opacity: 0; stroke: #000080; stroke-width: 1.5"/>
     <use xlink:href="#mbd07c0bb85" x="380.514816" y="228.40704" style="fill-opacity: 0; stroke: #000080; stroke-width: 1.5"/>
    </g>
   </g>
   <g id="line2d_53">
    <path d="M 360.8064 27.648 
L 380.514816 163.296 
" style="fill: none; stroke: #6495ed; stroke-width: 1.5; stroke-linecap: square"/>
    <g>
     <use xlink:href="#mb4b68b7733" x="360.8064" y="27.648" style="fill-opacity: 0; stroke: #6495ed; stroke-width: 1.5; stroke-linejoin: miter"/>
     <use xlink:href="#mb4b68b7733" x="380.514816" y="163.296" style="fill-opacity: 0; stroke: #6495ed; stroke-width: 1.5; stroke-linejoin: miter"/>
    </g>
   </g>
   <g id="line2d_54">
    <path d="M 360.8064 27.648 
L 380.514816 98.18496 
" style="fill: none; stroke: #ff7500; stroke-width: 1.5; stroke-linecap: square"/>
    <g>
     <use xlink:href="#m90f304a5f5" x="360.8064" y="27.648" style="fill-opacity: 0; stroke: #ff7500; stroke-width: 1.5; stroke-linejoin: bevel"/>
     <use xlink:href="#m90f304a5f5" x="380.514816" y="98.18496" style="fill-opacity: 0; stroke: #ff7500; stroke-width: 1.5; stroke-linejoin: bevel"/>
    </g>
   </g>
   <g id="line2d_55">
    <path d="M 360.8064 298.944 
L 360.8064 27.648 
" style="fill: none; stroke: #000000; stroke-width: 1.5; stroke-linecap: square"/>
   </g>
   <g id="patch_3">
    <path d="M 57.6 298.944 
L 360.8064 298.944 
" style="fill: none; stroke: #000000; stroke-width: 0.8; stroke-linejoin: miter; stroke-linecap: square"/>
   </g>
   <g id="patch_4">
    <path d="M 57.6 27.648 
L 360.8064 27.648 
" style="fill: none; stroke: #000000; stroke-width: 0.8; stroke-linejoin: miter; stroke-linecap: square"/>
   </g>
   <g id="text_13">
    <!-- GA -->
    <g transform="translate(386.578944 297.381205)scale(0.14 -0.14)">
     <defs>
      <path id="DejaVuSans-47" d="M 3809 666 
L 3809 1919 
L 2778 1919 
L 2778 2438 
L 4434 2438 
L 4434 434 
Q 4069 175 3628 42 
Q 3188 -91 2688 -91 
Q 1594 -91 976 548 
Q 359 1188 359 2328 
Q 359 3472 976 4111 
Q 1594 4750 2688 4750 
Q 3144 4750 3555 4637 
Q 3966 4525 4313 4306 
L 4313 3634 
Q 3963 3931 3569 4081 
Q 3175 4231 2741 4231 
Q 1884 4231 1454 3753 
Q 1025 3275 1025 2328 
Q 1025 1384 1454 906 
Q 1884 428 2741 428 
Q 3075 428 3337 486 
Q 3600 544 3809 666 
z
" transform="scale(0.015625)"/>
      <path id="DejaVuSans-41" d="M 2188 4044 
L 1331 1722 
L 3047 1722 
L 2188 4044 
z
M 1831 4666 
L 2547 4666 
L 4325 0 
L 3669 0 
L 3244 1197 
L 1141 1197 
L 716 0 
L 50 0 
L 1831 4666 
z
" transform="scale(0.015625)"/>
     </defs>
     <use xlink:href="#DejaVuSans-47"/>
     <use xlink:href="#DejaVuSans-41" x="77.490234"/>
    </g>
   </g>
   <g id="text_14">
    <!-- LCGA -->
    <g transform="translate(386.578944 232.270165)scale(0.14 -0.14)">
     <defs>
      <path id="DejaVuSans-4c" d="M 628 4666 
L 1259 4666 
L 1259 531 
L 3531 531 
L 3531 0 
L 628 0 
L 628 4666 
z
" transform="scale(0.015625)"/>
      <path id="DejaVuSans-43" d="M 4122 4306 
L 4122 3641 
Q 3803 3938 3442 4084 
Q 3081 4231 2675 4231 
Q 1875 4231 1450 3742 
Q 1025 3253 1025 2328 
Q 1025 1406 1450 917 
Q 1875 428 2675 428 
Q 3081 428 3442 575 
Q 3803 722 4122 1019 
L 4122 359 
Q 3791 134 3420 21 
Q 3050 -91 2638 -91 
Q 1578 -91 968 557 
Q 359 1206 359 2328 
Q 359 3453 968 4101 
Q 1578 4750 2638 4750 
Q 3056 4750 3426 4639 
Q 3797 4528 4122 4306 
z
" transform="scale(0.015625)"/>
     </defs>
     <use xlink:href="#DejaVuSans-4c"/>
     <use xlink:href="#DejaVuSans-43" x="55.712891"/>
     <use xlink:href="#DejaVuSans-47" x="125.537109"/>
     <use xlink:href="#DejaVuSans-41" x="203.027344"/>
    </g>
   </g>
   <g id="text_15">
    <!-- EvoSpace- -->
    <g transform="translate(386.578944 167.159125)scale(0.14 -0.14)">
     <defs>
      <path id="DejaVuSans-45" d="M 628 4666 
L 3578 4666 
L 3578 4134 
L 1259 4134 
L 1259 2753 
L 3481 2753 
L 3481 2222 
L 1259 2222 
L 1259 531 
L 3634 531 
L 3634 0 
L 628 0 
L 628 4666 
z
" transform="scale(0.015625)"/>
      <path id="DejaVuSans-53" d="M 3425 4513 
L 3425 3897 
Q 3066 4069 2747 4153 
Q 2428 4238 2131 4238 
Q 1616 4238 1336 4038 
Q 1056 3838 1056 3469 
Q 1056 3159 1242 3001 
Q 1428 2844 1947 2747 
L 2328 2669 
Q 3034 2534 3370 2195 
Q 3706 1856 3706 1288 
Q 3706 609 3251 259 
Q 2797 -91 1919 -91 
Q 1588 -91 1214 -16 
Q 841 59 441 206 
L 441 856 
Q 825 641 1194 531 
Q 1563 422 1919 422 
Q 2459 422 2753 634 
Q 3047 847 3047 1241 
Q 3047 1584 2836 1778 
Q 2625 1972 2144 2069 
L 1759 2144 
Q 1053 2284 737 2584 
Q 422 2884 422 3419 
Q 422 4038 858 4394 
Q 1294 4750 2059 4750 
Q 2388 4750 2728 4690 
Q 3069 4631 3425 4513 
z
" transform="scale(0.015625)"/>
     </defs>
     <use xlink:href="#DejaVuSans-45"/>
     <use xlink:href="#DejaVuSans-76" x="63.183594"/>
     <use xlink:href="#DejaVuSans-6f" x="122.363281"/>
     <use xlink:href="#DejaVuSans-53" x="183.544922"/>
     <use xlink:href="#DejaVuSans-70" x="247.021484"/>
     <use xlink:href="#DejaVuSans-61" x="310.498047"/>
     <use xlink:href="#DejaVuSans-63" x="371.777344"/>
     <use xlink:href="#DejaVuSans-65" x="426.757812"/>
     <use xlink:href="#DejaVuSans-2d" x="488.28125"/>
    </g>
   </g>
   <g id="text_16">
    <!-- PSO -->
    <g transform="translate(386.578944 102.048085)scale(0.14 -0.14)">
     <defs>
      <path id="DejaVuSans-50" d="M 1259 4147 
L 1259 2394 
L 2053 2394 
Q 2494 2394 2734 2622 
Q 2975 2850 2975 3272 
Q 2975 3691 2734 3919 
Q 2494 4147 2053 4147 
L 1259 4147 
z
M 628 4666 
L 2053 4666 
Q 2838 4666 3239 4311 
Q 3641 3956 3641 3272 
Q 3641 2581 3239 2228 
Q 2838 1875 2053 1875 
L 1259 1875 
L 1259 0 
L 628 0 
L 628 4666 
z
" transform="scale(0.015625)"/>
      <path id="DejaVuSans-4f" d="M 2522 4238 
Q 1834 4238 1429 3725 
Q 1025 3213 1025 2328 
Q 1025 1447 1429 934 
Q 1834 422 2522 422 
Q 3209 422 3611 934 
Q 4013 1447 4013 2328 
Q 4013 3213 3611 3725 
Q 3209 4238 2522 4238 
z
M 2522 4750 
Q 3503 4750 4090 4092 
Q 4678 3434 4678 2328 
Q 4678 1225 4090 567 
Q 3503 -91 2522 -91 
Q 1538 -91 948 565 
Q 359 1222 359 2328 
Q 359 3434 948 4092 
Q 1538 4750 2522 4750 
z
" transform="scale(0.015625)"/>
     </defs>
     <use xlink:href="#DejaVuSans-50"/>
     <use xlink:href="#DejaVuSans-53" x="60.302734"/>
     <use xlink:href="#DejaVuSans-4f" x="123.779297"/>
    </g>
   </g>
   <g id="text_17">
    <!-- best 2009 -->
    <g transform="translate(386.578944 36.937045)scale(0.14 -0.14)">
     <defs>
      <path id="DejaVuSans-62" d="M 3116 1747 
Q 3116 2381 2855 2742 
Q 2594 3103 2138 3103 
Q 1681 3103 1420 2742 
Q 1159 2381 1159 1747 
Q 1159 1113 1420 752 
Q 1681 391 2138 391 
Q 2594 391 2855 752 
Q 3116 1113 3116 1747 
z
M 1159 2969 
Q 1341 3281 1617 3432 
Q 1894 3584 2278 3584 
Q 2916 3584 3314 3078 
Q 3713 2572 3713 1747 
Q 3713 922 3314 415 
Q 2916 -91 2278 -91 
Q 1894 -91 1617 61 
Q 1341 213 1159 525 
L 1159 0 
L 581 0 
L 581 4863 
L 1159 4863 
L 1159 2969 
z
" transform="scale(0.015625)"/>
      <path id="DejaVuSans-39" d="M 703 97 
L 703 672 
Q 941 559 1184 500 
Q 1428 441 1663 441 
Q 2288 441 2617 861 
Q 2947 1281 2994 2138 
Q 2813 1869 2534 1725 
Q 2256 1581 1919 1581 
Q 1219 1581 811 2004 
Q 403 2428 403 3163 
Q 403 3881 828 4315 
Q 1253 4750 1959 4750 
Q 2769 4750 3195 4129 
Q 3622 3509 3622 2328 
Q 3622 1225 3098 567 
Q 2575 -91 1691 -91 
Q 1453 -91 1209 -44 
Q 966 3 703 97 
z
M 1959 2075 
Q 2384 2075 2632 2365 
Q 2881 2656 2881 3163 
Q 2881 3666 2632 3958 
Q 2384 4250 1959 4250 
Q 1534 4250 1286 3958 
Q 1038 3666 1038 3163 
Q 1038 2656 1286 2365 
Q 1534 2075 1959 2075 
z
" transform="scale(0.015625)"/>
     </defs>
     <use xlink:href="#DejaVuSans-62"/>
     <use xlink:href="#DejaVuSans-65" x="63.476562"/>
     <use xlink:href="#DejaVuSans-73" x="125"/>
     <use xlink:href="#DejaVuSans-74" x="177.099609"/>
     <use xlink:href="#DejaVuSans-20" x="216.308594"/>
     <use xlink:href="#DejaVuSans-32" x="248.095703"/>
     <use xlink:href="#DejaVuSans-30" x="311.71875"/>
     <use xlink:href="#DejaVuSans-30" x="375.341797"/>
     <use xlink:href="#DejaVuSans-39" x="438.964844"/>
    </g>
   </g>
   <g id="text_18">
    <!-- bbob f5, 10-D -->
    <g transform="translate(60.632064 38.111366)scale(0.102 -0.102)">
     <defs>
      <path id="DejaVuSans-35" d="M 691 4666 
L 3169 4666 
L 3169 4134 
L 1269 4134 
L 1269 2991 
Q 1406 3038 1543 3061 
Q 1681 3084 1819 3084 
Q 2600 3084 3056 2656 
Q 3513 2228 3513 1497 
Q 3513 744 3044 326 
Q 2575 -91 1722 -91 
Q 1428 -91 1123 -41 
Q 819 9 494 109 
L 494 744 
Q 775 591 1075 516 
Q 1375 441 1709 441 
Q 2250 441 2565 725 
Q 2881 1009 2881 1497 
Q 2881 1984 2565 2268 
Q 2250 2553 1709 2553 
Q 1456 2553 1204 2497 
Q 953 2441 691 2322 
L 691 4666 
z
" transform="scale(0.015625)"/>
      <path id="DejaVuSans-44" d="M 1259 4147 
L 1259 519 
L 2022 519 
Q 2988 519 3436 956 
Q 3884 1394 3884 2338 
Q 3884 3275 3436 3711 
Q 2988 4147 2022 4147 
L 1259 4147 
z
M 628 4666 
L 1925 4666 
Q 3281 4666 3915 4102 
Q 4550 3538 4550 2338 
Q 4550 1131 3912 565 
Q 3275 0 1925 0 
L 628 0 
L 628 4666 
z
" transform="scale(0.015625)"/>
     </defs>
     <use xlink:href="#DejaVuSans-62"/>
     <use xlink:href="#DejaVuSans-62" x="63.476562"/>
     <use xlink:href="#DejaVuSans-6f" x="126.953125"/>
     <use xlink:href="#DejaVuSans-62" x="188.134766"/>
     <use xlink:href="#DejaVuSans-20" x="251.611328"/>
     <use xlink:href="#DejaVuSans-66" x="283.398438"/>
     <use xlink:href="#DejaVuSans-35" x="318.603516"/>
     <use xlink:href="#DejaVuSans-2c" x="382.226562"/>
     <use xlink:href="#DejaVuSans-20" x="414.013672"/>
     <use xlink:href="#DejaVuSans-31" x="445.800781"/>
     <use xlink:href="#DejaVuSans-30" x="509.423828"/>
     <use xlink:href="#DejaVuSans-2d" x="573.046875"/>
     <use xlink:href="#DejaVuSans-44" x="609.130859"/>
    </g>
    <!-- 51 targets: 100..1e-08 -->
    <g transform="translate(60.632064 49.533135)scale(0.102 -0.102)">
     <defs>
      <path id="DejaVuSans-3a" d="M 750 794 
L 1409 794 
L 1409 0 
L 750 0 
L 750 794 
z
M 750 3309 
L 1409 3309 
L 1409 2516 
L 750 2516 
L 750 3309 
z
" transform="scale(0.015625)"/>
     </defs>
     <use xlink:href="#DejaVuSans-35"/>
     <use xlink:href="#DejaVuSans-31" x="63.623047"/>
     <use xlink:href="#DejaVuSans-20" x="127.246094"/>
     <use xlink:href="#DejaVuSans-74" x="159.033203"/>
     <use xlink:href="#DejaVuSans-61" x="198.242188"/>
     <use xlink:href="#DejaVuSans-72" x="259.521484"/>
     <use xlink:href="#DejaVuSans-67" x="298.884766"/>
     <use xlink:href="#DejaVuSans-65" x="362.361328"/>
     <use xlink:href="#DejaVuSans-74" x="423.884766"/>
     <use xlink:href="#DejaVuSans-73" x="463.09375"/>
     <use xlink:href="#DejaVuSans-3a" x="515.193359"/>
     <use xlink:href="#DejaVuSans-20" x="548.884766"/>
     <use xlink:href="#DejaVuSans-31" x="580.671875"/>
     <use xlink:href="#DejaVuSans-30" x="644.294922"/>
     <use xlink:href="#DejaVuSans-30" x="707.917969"/>
     <use xlink:href="#DejaVuSans-2e" x="771.541016"/>
     <use xlink:href="#DejaVuSans-2e" x="803.328125"/>
     <use xlink:href="#DejaVuSans-31" x="835.115234"/>
     <use xlink:href="#DejaVuSans-65" x="898.738281"/>
     <use xlink:href="#DejaVuSans-2d" x="960.261719"/>
     <use xlink:href="#DejaVuSans-30" x="996.345703"/>
     <use xlink:href="#DejaVuSans-38" x="1059.96875"/>
    </g>
    <!-- 15 instances -->
    <g transform="translate(60.632064 60.954904)scale(0.102 -0.102)">
     <use xlink:href="#DejaVuSans-31"/>
     <use xlink:href="#DejaVuSans-35" x="63.623047"/>
     <use xlink:href="#DejaVuSans-20" x="127.246094"/>
     <use xlink:href="#DejaVuSans-69" x="159.033203"/>
     <use xlink:href="#DejaVuSans-6e" x="186.816406"/>
     <use xlink:href="#DejaVuSans-73" x="250.195312"/>
     <use xlink:href="#DejaVuSans-74" x="302.294922"/>
     <use xlink:href="#DejaVuSans-61" x="341.503906"/>
     <use xlink:href="#DejaVuSans-6e" x="402.783203"/>
     <use xlink:href="#DejaVuSans-63" x="466.162109"/>
     <use xlink:href="#DejaVuSans-65" x="521.142578"/>
     <use xlink:href="#DejaVuSans-73" x="582.666016"/>
    </g>
   </g>
   <g id="text_19">
    <!-- v2.6 -->
    <g style="fill: #808080" transform="translate(198.292262 294.151352)scale(0.1 -0.1)">
     <use xlink:href="#DejaVuSans-76"/>
     <use xlink:href="#DejaVuSans-32" x="59.179688"/>
     <use xlink:href="#DejaVuSans-2e" x="122.802734"/>
     <use xlink:href="#DejaVuSans-36" x="154.589844"/>
    </g>
   </g>
   <g id="text_20">
    <!-- 5 Linear slope -->
    <g transform="translate(138.79695 21.648)scale(0.2 -0.2)">
     <use xlink:href="#DejaVuSans-35"/>
     <use xlink:href="#DejaVuSans-20" x="63.623047"/>
     <use xlink:href="#DejaVuSans-4c" x="95.410156"/>
     <use xlink:href="#DejaVuSans-69" x="151.123047"/>
     <use xlink:href="#DejaVuSans-6e" x="178.90625"/>
     <use xlink:href="#DejaVuSans-65" x="242.285156"/>
     <use xlink:href="#DejaVuSans-61" x="303.808594"/>
     <use xlink:href="#DejaVuSans-72" x="365.087891"/>
     <use xlink:href="#DejaVuSans-20" x="406.201172"/>
     <use xlink:href="#DejaVuSans-73" x="437.988281"/>
     <use xlink:href="#DejaVuSans-6c" x="490.087891"/>
     <use xlink:href="#DejaVuSans-6f" x="517.871094"/>
     <use xlink:href="#DejaVuSans-70" x="579.052734"/>
     <use xlink:href="#DejaVuSans-65" x="642.529297"/>
    </g>
   </g>
  </g>
 </g>
 <defs>
  <clipPath id="p7cf13040b4">
   <rect x="57.6" y="27.648" width="303.2064" height="271.296"/>
  </clipPath>
 </defs>
</svg>
