<?xml version="1.0" encoding="utf-8" standalone="no"?>
<!DOCTYPE svg PUBLIC "-//W3C//DTD SVG 1.1//EN"
  "http://www.w3.org/Graphics/SVG/1.1/DTD/svg11.dtd">
<svg xmlns:xlink="http://www.w3.org/1999/xlink" width="460.8pt" height="345.6pt" viewBox="0 0 460.8 345.6" xmlns="http://www.w3.org/2000/svg" version="1.1">
 <metadata>
  <rdf:RDF xmlns:dc="http://purl.org/dc/elements/1.1/" xmlns:cc="http://creativecommons.org/ns#" xmlns:rdf="http://www.w3.org/1999/02/22-rdf-syntax-ns#">
   <cc:Work>
    <dc:type rdf:resource="http://purl.org/dc/dcmitype/StillImage"/>
    <dc:date>2024-05-29T08:12:04.999343</dc:date>
    <dc:format>image/svg+xml</dc:format>
    <dc:creator>
     <cc:Agent>
      <dc:title>Matplotlib v3.5.1, https://matplotlib.org/</dc:title>
     </cc:Agent>
    </dc:creator>
   </cc:Work>
  </rdf:RDF>
 </metadata>
 <defs>
  <style type="text/css">*{stroke-linejoin: round; stroke-linecap: butt}</style>
 </defs>
 <g id="figure_1">
  <g id="patch_1">
   <path d="M 0 345.6 
L 460.8 345.6 
L 460.8 0 
L 0 0 
z
" style="fill: #ffffff"/>
  </g>
  <g id="axes_1">
   <g id="patch_2">
    <path d="M 57.6 298.944 
L 360.8064 298.944 
L 360.8064 27.648 
L 57.6 27.648 
z
" style="fill: #ffffff"/>
   </g>
   <g id="line2d_1">
    <path d="M 90.230539 298.944 
L 90.230539 293.624471 
L 94.205591 293.624471 
L 94.205591 288.304941 
L 100.9152 288.304941 
L 100.9152 282.985412 
L 104.860369 282.985412 
L 104.860369 277.665882 
L 107.244765 277.665882 
L 107.244765 272.346353 
L 110.144579 272.346353 
L 110.144579 267.026824 
L 112.317555 267.026824 
L 112.317555 261.707294 
L 113.954374 261.707294 
L 113.954374 256.387765 
L 116.854188 256.387765 
L 116.854188 251.068235 
L 118.889854 251.068235 
L 118.889854 245.748706 
L 120.506564 245.748706 
L 120.506564 240.429176 
L 121.371615 240.429176 
L 121.371615 235.109647 
L 122.598891 235.109647 
L 122.598891 229.790118 
L 123.563797 229.790118 
L 123.563797 224.470588 
L 124.3016 224.470588 
L 124.3016 219.151059 
L 125.011554 219.151059 
L 125.011554 213.831529 
L 126.517282 213.831529 
L 126.517282 208.512 
L 127.149662 208.512 
L 127.149662 203.192471 
L 127.610376 203.192471 
L 127.610376 197.872941 
L 128.643427 197.872941 
L 128.643427 192.553412 
L 129.348062 192.553412 
L 129.348062 187.233882 
L 129.758512 187.233882 
L 129.758512 181.914353 
L 130.4233 181.914353 
L 130.4233 176.594824 
L 134.828842 176.594824 
L 134.828842 171.275294 
L 136.88305 171.275294 
L 136.88305 165.955765 
L 137.963436 165.955765 
L 137.963436 160.636235 
L 138.481218 160.636235 
L 138.481218 155.316706 
L 138.902075 155.316706 
L 138.902075 149.997176 
L 139.716555 149.997176 
L 139.716555 144.677647 
L 140.343665 144.677647 
L 140.343665 139.358118 
L 141.173167 139.358118 
L 141.173167 134.038588 
L 141.465959 134.038588 
L 141.465959 128.719059 
L 141.896777 128.719059 
L 141.896777 123.399529 
L 142.387236 123.399529 
L 142.387236 118.08 
L 142.661862 118.08 
L 142.661862 112.760471 
L 142.999601 112.760471 
L 142.999601 107.440941 
L 143.397043 107.440941 
L 143.397043 102.121412 
L 143.721949 102.121412 
L 143.721949 96.801882 
L 144.041338 96.801882 
L 144.041338 91.482353 
L 144.417581 91.482353 
L 144.417581 86.162824 
L 144.664294 86.162824 
L 144.664294 80.843294 
L 145.385592 80.843294 
L 145.385592 75.523765 
L 146.24998 75.523765 
L 146.24998 70.204235 
L 146.529503 70.204235 
L 146.529503 64.884706 
L 146.968277 64.884706 
L 146.968277 59.565176 
L 147.919625 59.565176 
L 147.919625 54.245647 
L 149.829328 54.245647 
L 149.829328 48.926118 
L 150.060715 48.926118 
L 150.060715 43.606588 
L 150.604701 43.606588 
L 150.604701 38.287059 
L 151.133398 38.287059 
L 151.133398 32.967529 
L 151.435079 32.967529 
L 151.435079 27.648 
L 360.8064 27.648 
" style="fill: none; stroke: #f5deb3; stroke-width: 4; stroke-linecap: square"/>
   </g>
   <g id="line2d_2">
    <defs>
     <path id="mbab3d6dfbe" d="M 0 7.778175 
L 7.778175 0 
L 0 -7.778175 
L -7.778175 0 
z
" style="stroke: #f5deb3; stroke-width: 1.5; stroke-linejoin: miter"/>
    </defs>
    <g>
     <use xlink:href="#mbab3d6dfbe" x="116.854188" y="251.068235" style="fill: #f5deb3; stroke: #f5deb3; stroke-width: 1.5; stroke-linejoin: miter"/>
     <use xlink:href="#mbab3d6dfbe" x="143.721949" y="96.801882" style="fill: #f5deb3; stroke: #f5deb3; stroke-width: 1.5; stroke-linejoin: miter"/>
     <use xlink:href="#mbab3d6dfbe" x="151.435079" y="32.967529" style="fill: #f5deb3; stroke: #f5deb3; stroke-width: 1.5; stroke-linejoin: miter"/>
     <use xlink:href="#mbab3d6dfbe" x="151.435079" y="27.648" style="fill: #f5deb3; stroke: #f5deb3; stroke-width: 1.5; stroke-linejoin: miter"/>
     <use xlink:href="#mbab3d6dfbe" x="360.8064" y="27.648" style="fill: #f5deb3; stroke: #f5deb3; stroke-width: 1.5; stroke-linejoin: miter"/>
    </g>
   </g>
   <g id="line2d_3">
    <path style="fill: none; stroke: #f5deb3; stroke-width: 4; stroke-linecap: square"/>
    <g/>
   </g>
   <g id="line2d_4">
    <path d="M 360.8064 27.648 
L 380.514816 33.07392 
" style="fill: none; stroke: #f5deb3; stroke-width: 4; stroke-linecap: square"/>
    <g>
     <use xlink:href="#mbab3d6dfbe" x="360.8064" y="27.648" style="fill: #f5deb3; stroke: #f5deb3; stroke-width: 1.5; stroke-linejoin: miter"/>
     <use xlink:href="#mbab3d6dfbe" x="380.514816" y="33.07392" style="fill: #f5deb3; stroke: #f5deb3; stroke-width: 1.5; stroke-linejoin: miter"/>
    </g>
   </g>
   <g id="matplotlib.axis_1">
    <g id="xtick_1">
     <g id="line2d_5">
      <path d="M 57.6 298.944 
L 57.6 27.648 
" clip-path="url(#p12f191053d)" style="fill: none; stroke: #b0b0b0; stroke-width: 0.8; stroke-linecap: square"/>
     </g>
     <g id="line2d_6">
      <defs>
       <path id="m5d874afcee" d="M 0 0 
L 0 3.5 
" style="stroke: #000000; stroke-width: 0.8"/>
      </defs>
      <g>
       <use xlink:href="#m5d874afcee" x="57.6" y="298.944" style="stroke: #000000; stroke-width: 0.8"/>
      </g>
     </g>
     <g id="text_1">
      <!-- 0 -->
      <g transform="translate(52.191875 318.861344)scale(0.17 -0.17)">
       <defs>
        <path id="DejaVuSans-30" d="M 2034 4250 
Q 1547 4250 1301 3770 
Q 1056 3291 1056 2328 
Q 1056 1369 1301 889 
Q 1547 409 2034 409 
Q 2525 409 2770 889 
Q 3016 1369 3016 2328 
Q 3016 3291 2770 3770 
Q 2525 4250 2034 4250 
z
M 2034 4750 
Q 2819 4750 3233 4129 
Q 3647 3509 3647 2328 
Q 3647 1150 3233 529 
Q 2819 -91 2034 -91 
Q 1250 -91 836 529 
Q 422 1150 422 2328 
Q 422 3509 836 4129 
Q 1250 4750 2034 4750 
z
" transform="scale(0.015625)"/>
       </defs>
       <use xlink:href="#DejaVuSans-30"/>
      </g>
     </g>
    </g>
    <g id="xtick_2">
     <g id="line2d_7">
      <path d="M 144.2304 298.944 
L 144.2304 27.648 
" clip-path="url(#p12f191053d)" style="fill: none; stroke: #b0b0b0; stroke-width: 0.8; stroke-linecap: square"/>
     </g>
     <g id="line2d_8">
      <g>
       <use xlink:href="#m5d874afcee" x="144.2304" y="298.944" style="stroke: #000000; stroke-width: 0.8"/>
      </g>
     </g>
     <g id="text_2">
      <!-- 2 -->
      <g transform="translate(138.822275 318.861344)scale(0.17 -0.17)">
       <defs>
        <path id="DejaVuSans-32" d="M 1228 531 
L 3431 531 
L 3431 0 
L 469 0 
L 469 531 
Q 828 903 1448 1529 
Q 2069 2156 2228 2338 
Q 2531 2678 2651 2914 
Q 2772 3150 2772 3378 
Q 2772 3750 2511 3984 
Q 2250 4219 1831 4219 
Q 1534 4219 1204 4116 
Q 875 4013 500 3803 
L 500 4441 
Q 881 4594 1212 4672 
Q 1544 4750 1819 4750 
Q 2544 4750 2975 4387 
Q 3406 4025 3406 3419 
Q 3406 3131 3298 2873 
Q 3191 2616 2906 2266 
Q 2828 2175 2409 1742 
Q 1991 1309 1228 531 
z
" transform="scale(0.015625)"/>
       </defs>
       <use xlink:href="#DejaVuSans-32"/>
      </g>
     </g>
    </g>
    <g id="xtick_3">
     <g id="line2d_9">
      <path d="M 230.8608 298.944 
L 230.8608 27.648 
" clip-path="url(#p12f191053d)" style="fill: none; stroke: #b0b0b0; stroke-width: 0.8; stroke-linecap: square"/>
     </g>
     <g id="line2d_10">
      <g>
       <use xlink:href="#m5d874afcee" x="230.8608" y="298.944" style="stroke: #000000; stroke-width: 0.8"/>
      </g>
     </g>
     <g id="text_3">
      <!-- 4 -->
      <g transform="translate(225.452675 318.861344)scale(0.17 -0.17)">
       <defs>
        <path id="DejaVuSans-34" d="M 2419 4116 
L 825 1625 
L 2419 1625 
L 2419 4116 
z
M 2253 4666 
L 3047 4666 
L 3047 1625 
L 3713 1625 
L 3713 1100 
L 3047 1100 
L 3047 0 
L 2419 0 
L 2419 1100 
L 313 1100 
L 313 1709 
L 2253 4666 
z
" transform="scale(0.015625)"/>
       </defs>
       <use xlink:href="#DejaVuSans-34"/>
      </g>
     </g>
    </g>
    <g id="xtick_4">
     <g id="line2d_11">
      <path d="M 317.4912 298.944 
L 317.4912 27.648 
" clip-path="url(#p12f191053d)" style="fill: none; stroke: #b0b0b0; stroke-width: 0.8; stroke-linecap: square"/>
     </g>
     <g id="line2d_12">
      <g>
       <use xlink:href="#m5d874afcee" x="317.4912" y="298.944" style="stroke: #000000; stroke-width: 0.8"/>
      </g>
     </g>
     <g id="text_4">
      <!-- 6 -->
      <g transform="translate(312.083075 318.861344)scale(0.17 -0.17)">
       <defs>
        <path id="DejaVuSans-36" d="M 2113 2584 
Q 1688 2584 1439 2293 
Q 1191 2003 1191 1497 
Q 1191 994 1439 701 
Q 1688 409 2113 409 
Q 2538 409 2786 701 
Q 3034 994 3034 1497 
Q 3034 2003 2786 2293 
Q 2538 2584 2113 2584 
z
M 3366 4563 
L 3366 3988 
Q 3128 4100 2886 4159 
Q 2644 4219 2406 4219 
Q 1781 4219 1451 3797 
Q 1122 3375 1075 2522 
Q 1259 2794 1537 2939 
Q 1816 3084 2150 3084 
Q 2853 3084 3261 2657 
Q 3669 2231 3669 1497 
Q 3669 778 3244 343 
Q 2819 -91 2113 -91 
Q 1303 -91 875 529 
Q 447 1150 447 2328 
Q 447 3434 972 4092 
Q 1497 4750 2381 4750 
Q 2619 4750 2861 4703 
Q 3103 4656 3366 4563 
z
" transform="scale(0.015625)"/>
       </defs>
       <use xlink:href="#DejaVuSans-36"/>
      </g>
     </g>
    </g>
    <g id="xtick_5">
     <g id="line2d_13">
      <path d="M 100.9152 298.944 
L 100.9152 27.648 
" clip-path="url(#p12f191053d)" style="fill: none; stroke: #b0b0b0; stroke-width: 0.8; stroke-linecap: square"/>
     </g>
     <g id="line2d_14">
      <defs>
       <path id="mc44f1b30e1" d="M 0 0 
L 0 2 
" style="stroke: #000000; stroke-width: 0.6"/>
      </defs>
      <g>
       <use xlink:href="#mc44f1b30e1" x="100.9152" y="298.944" style="stroke: #000000; stroke-width: 0.6"/>
      </g>
     </g>
    </g>
    <g id="xtick_6">
     <g id="line2d_15">
      <path d="M 187.5456 298.944 
L 187.5456 27.648 
" clip-path="url(#p12f191053d)" style="fill: none; stroke: #b0b0b0; stroke-width: 0.8; stroke-linecap: square"/>
     </g>
     <g id="line2d_16">
      <g>
       <use xlink:href="#mc44f1b30e1" x="187.5456" y="298.944" style="stroke: #000000; stroke-width: 0.6"/>
      </g>
     </g>
    </g>
    <g id="xtick_7">
     <g id="line2d_17">
      <path d="M 274.176 298.944 
L 274.176 27.648 
" clip-path="url(#p12f191053d)" style="fill: none; stroke: #b0b0b0; stroke-width: 0.8; stroke-linecap: square"/>
     </g>
     <g id="line2d_18">
      <g>
       <use xlink:href="#mc44f1b30e1" x="274.176" y="298.944" style="stroke: #000000; stroke-width: 0.6"/>
      </g>
     </g>
    </g>
    <g id="xtick_8">
     <g id="line2d_19">
      <path d="M 360.8064 298.944 
L 360.8064 27.648 
" clip-path="url(#p12f191053d)" style="fill: none; stroke: #b0b0b0; stroke-width: 0.8; stroke-linecap: square"/>
     </g>
     <g id="line2d_20">
      <g>
       <use xlink:href="#mc44f1b30e1" x="360.8064" y="298.944" style="stroke: #000000; stroke-width: 0.6"/>
      </g>
     </g>
    </g>
    <g id="text_5">
     <!-- log10(# f-evals / dimension) -->
     <g transform="translate(88.823278 339.314156)scale(0.17 -0.17)">
      <defs>
       <path id="DejaVuSans-6c" d="M 603 4863 
L 1178 4863 
L 1178 0 
L 603 0 
L 603 4863 
z
" transform="scale(0.015625)"/>
       <path id="DejaVuSans-6f" d="M 1959 3097 
Q 1497 3097 1228 2736 
Q 959 2375 959 1747 
Q 959 1119 1226 758 
Q 1494 397 1959 397 
Q 2419 397 2687 759 
Q 2956 1122 2956 1747 
Q 2956 2369 2687 2733 
Q 2419 3097 1959 3097 
z
M 1959 3584 
Q 2709 3584 3137 3096 
Q 3566 2609 3566 1747 
Q 3566 888 3137 398 
Q 2709 -91 1959 -91 
Q 1206 -91 779 398 
Q 353 888 353 1747 
Q 353 2609 779 3096 
Q 1206 3584 1959 3584 
z
" transform="scale(0.015625)"/>
       <path id="DejaVuSans-67" d="M 2906 1791 
Q 2906 2416 2648 2759 
Q 2391 3103 1925 3103 
Q 1463 3103 1205 2759 
Q 947 2416 947 1791 
Q 947 1169 1205 825 
Q 1463 481 1925 481 
Q 2391 481 2648 825 
Q 2906 1169 2906 1791 
z
M 3481 434 
Q 3481 -459 3084 -895 
Q 2688 -1331 1869 -1331 
Q 1566 -1331 1297 -1286 
Q 1028 -1241 775 -1147 
L 775 -588 
Q 1028 -725 1275 -790 
Q 1522 -856 1778 -856 
Q 2344 -856 2625 -561 
Q 2906 -266 2906 331 
L 2906 616 
Q 2728 306 2450 153 
Q 2172 0 1784 0 
Q 1141 0 747 490 
Q 353 981 353 1791 
Q 353 2603 747 3093 
Q 1141 3584 1784 3584 
Q 2172 3584 2450 3431 
Q 2728 3278 2906 2969 
L 2906 3500 
L 3481 3500 
L 3481 434 
z
" transform="scale(0.015625)"/>
       <path id="DejaVuSans-31" d="M 794 531 
L 1825 531 
L 1825 4091 
L 703 3866 
L 703 4441 
L 1819 4666 
L 2450 4666 
L 2450 531 
L 3481 531 
L 3481 0 
L 794 0 
L 794 531 
z
" transform="scale(0.015625)"/>
       <path id="DejaVuSans-28" d="M 1984 4856 
Q 1566 4138 1362 3434 
Q 1159 2731 1159 2009 
Q 1159 1288 1364 580 
Q 1569 -128 1984 -844 
L 1484 -844 
Q 1016 -109 783 600 
Q 550 1309 550 2009 
Q 550 2706 781 3412 
Q 1013 4119 1484 4856 
L 1984 4856 
z
" transform="scale(0.015625)"/>
       <path id="DejaVuSans-23" d="M 3272 2816 
L 2363 2816 
L 2100 1772 
L 3016 1772 
L 3272 2816 
z
M 2803 4594 
L 2478 3297 
L 3391 3297 
L 3719 4594 
L 4219 4594 
L 3897 3297 
L 4872 3297 
L 4872 2816 
L 3775 2816 
L 3519 1772 
L 4513 1772 
L 4513 1294 
L 3397 1294 
L 3072 0 
L 2572 0 
L 2894 1294 
L 1978 1294 
L 1656 0 
L 1153 0 
L 1478 1294 
L 494 1294 
L 494 1772 
L 1594 1772 
L 1856 2816 
L 850 2816 
L 850 3297 
L 1978 3297 
L 2297 4594 
L 2803 4594 
z
" transform="scale(0.015625)"/>
       <path id="DejaVuSans-20" transform="scale(0.015625)"/>
       <path id="DejaVuSans-66" d="M 2375 4863 
L 2375 4384 
L 1825 4384 
Q 1516 4384 1395 4259 
Q 1275 4134 1275 3809 
L 1275 3500 
L 2222 3500 
L 2222 3053 
L 1275 3053 
L 1275 0 
L 697 0 
L 697 3053 
L 147 3053 
L 147 3500 
L 697 3500 
L 697 3744 
Q 697 4328 969 4595 
Q 1241 4863 1831 4863 
L 2375 4863 
z
" transform="scale(0.015625)"/>
       <path id="DejaVuSans-2d" d="M 313 2009 
L 1997 2009 
L 1997 1497 
L 313 1497 
L 313 2009 
z
" transform="scale(0.015625)"/>
       <path id="DejaVuSans-65" d="M 3597 1894 
L 3597 1613 
L 953 1613 
Q 991 1019 1311 708 
Q 1631 397 2203 397 
Q 2534 397 2845 478 
Q 3156 559 3463 722 
L 3463 178 
Q 3153 47 2828 -22 
Q 2503 -91 2169 -91 
Q 1331 -91 842 396 
Q 353 884 353 1716 
Q 353 2575 817 3079 
Q 1281 3584 2069 3584 
Q 2775 3584 3186 3129 
Q 3597 2675 3597 1894 
z
M 3022 2063 
Q 3016 2534 2758 2815 
Q 2500 3097 2075 3097 
Q 1594 3097 1305 2825 
Q 1016 2553 972 2059 
L 3022 2063 
z
" transform="scale(0.015625)"/>
       <path id="DejaVuSans-76" d="M 191 3500 
L 800 3500 
L 1894 563 
L 2988 3500 
L 3597 3500 
L 2284 0 
L 1503 0 
L 191 3500 
z
" transform="scale(0.015625)"/>
       <path id="DejaVuSans-61" d="M 2194 1759 
Q 1497 1759 1228 1600 
Q 959 1441 959 1056 
Q 959 750 1161 570 
Q 1363 391 1709 391 
Q 2188 391 2477 730 
Q 2766 1069 2766 1631 
L 2766 1759 
L 2194 1759 
z
M 3341 1997 
L 3341 0 
L 2766 0 
L 2766 531 
Q 2569 213 2275 61 
Q 1981 -91 1556 -91 
Q 1019 -91 701 211 
Q 384 513 384 1019 
Q 384 1609 779 1909 
Q 1175 2209 1959 2209 
L 2766 2209 
L 2766 2266 
Q 2766 2663 2505 2880 
Q 2244 3097 1772 3097 
Q 1472 3097 1187 3025 
Q 903 2953 641 2809 
L 641 3341 
Q 956 3463 1253 3523 
Q 1550 3584 1831 3584 
Q 2591 3584 2966 3190 
Q 3341 2797 3341 1997 
z
" transform="scale(0.015625)"/>
       <path id="DejaVuSans-73" d="M 2834 3397 
L 2834 2853 
Q 2591 2978 2328 3040 
Q 2066 3103 1784 3103 
Q 1356 3103 1142 2972 
Q 928 2841 928 2578 
Q 928 2378 1081 2264 
Q 1234 2150 1697 2047 
L 1894 2003 
Q 2506 1872 2764 1633 
Q 3022 1394 3022 966 
Q 3022 478 2636 193 
Q 2250 -91 1575 -91 
Q 1294 -91 989 -36 
Q 684 19 347 128 
L 347 722 
Q 666 556 975 473 
Q 1284 391 1588 391 
Q 1994 391 2212 530 
Q 2431 669 2431 922 
Q 2431 1156 2273 1281 
Q 2116 1406 1581 1522 
L 1381 1569 
Q 847 1681 609 1914 
Q 372 2147 372 2553 
Q 372 3047 722 3315 
Q 1072 3584 1716 3584 
Q 2034 3584 2315 3537 
Q 2597 3491 2834 3397 
z
" transform="scale(0.015625)"/>
       <path id="DejaVuSans-2f" d="M 1625 4666 
L 2156 4666 
L 531 -594 
L 0 -594 
L 1625 4666 
z
" transform="scale(0.015625)"/>
       <path id="DejaVuSans-64" d="M 2906 2969 
L 2906 4863 
L 3481 4863 
L 3481 0 
L 2906 0 
L 2906 525 
Q 2725 213 2448 61 
Q 2172 -91 1784 -91 
Q 1150 -91 751 415 
Q 353 922 353 1747 
Q 353 2572 751 3078 
Q 1150 3584 1784 3584 
Q 2172 3584 2448 3432 
Q 2725 3281 2906 2969 
z
M 947 1747 
Q 947 1113 1208 752 
Q 1469 391 1925 391 
Q 2381 391 2643 752 
Q 2906 1113 2906 1747 
Q 2906 2381 2643 2742 
Q 2381 3103 1925 3103 
Q 1469 3103 1208 2742 
Q 947 2381 947 1747 
z
" transform="scale(0.015625)"/>
       <path id="DejaVuSans-69" d="M 603 3500 
L 1178 3500 
L 1178 0 
L 603 0 
L 603 3500 
z
M 603 4863 
L 1178 4863 
L 1178 4134 
L 603 4134 
L 603 4863 
z
" transform="scale(0.015625)"/>
       <path id="DejaVuSans-6d" d="M 3328 2828 
Q 3544 3216 3844 3400 
Q 4144 3584 4550 3584 
Q 5097 3584 5394 3201 
Q 5691 2819 5691 2113 
L 5691 0 
L 5113 0 
L 5113 2094 
Q 5113 2597 4934 2840 
Q 4756 3084 4391 3084 
Q 3944 3084 3684 2787 
Q 3425 2491 3425 1978 
L 3425 0 
L 2847 0 
L 2847 2094 
Q 2847 2600 2669 2842 
Q 2491 3084 2119 3084 
Q 1678 3084 1418 2786 
Q 1159 2488 1159 1978 
L 1159 0 
L 581 0 
L 581 3500 
L 1159 3500 
L 1159 2956 
Q 1356 3278 1631 3431 
Q 1906 3584 2284 3584 
Q 2666 3584 2933 3390 
Q 3200 3197 3328 2828 
z
" transform="scale(0.015625)"/>
       <path id="DejaVuSans-6e" d="M 3513 2113 
L 3513 0 
L 2938 0 
L 2938 2094 
Q 2938 2591 2744 2837 
Q 2550 3084 2163 3084 
Q 1697 3084 1428 2787 
Q 1159 2491 1159 1978 
L 1159 0 
L 581 0 
L 581 3500 
L 1159 3500 
L 1159 2956 
Q 1366 3272 1645 3428 
Q 1925 3584 2291 3584 
Q 2894 3584 3203 3211 
Q 3513 2838 3513 2113 
z
" transform="scale(0.015625)"/>
       <path id="DejaVuSans-29" d="M 513 4856 
L 1013 4856 
Q 1481 4119 1714 3412 
Q 1947 2706 1947 2009 
Q 1947 1309 1714 600 
Q 1481 -109 1013 -844 
L 513 -844 
Q 928 -128 1133 580 
Q 1338 1288 1338 2009 
Q 1338 2731 1133 3434 
Q 928 4138 513 4856 
z
" transform="scale(0.015625)"/>
      </defs>
      <use xlink:href="#DejaVuSans-6c"/>
      <use xlink:href="#DejaVuSans-6f" x="27.783203"/>
      <use xlink:href="#DejaVuSans-67" x="88.964844"/>
      <use xlink:href="#DejaVuSans-31" x="152.441406"/>
      <use xlink:href="#DejaVuSans-30" x="216.064453"/>
      <use xlink:href="#DejaVuSans-28" x="279.6875"/>
      <use xlink:href="#DejaVuSans-23" x="318.701172"/>
      <use xlink:href="#DejaVuSans-20" x="402.490234"/>
      <use xlink:href="#DejaVuSans-66" x="434.277344"/>
      <use xlink:href="#DejaVuSans-2d" x="463.982422"/>
      <use xlink:href="#DejaVuSans-65" x="500.066406"/>
      <use xlink:href="#DejaVuSans-76" x="561.589844"/>
      <use xlink:href="#DejaVuSans-61" x="620.769531"/>
      <use xlink:href="#DejaVuSans-6c" x="682.048828"/>
      <use xlink:href="#DejaVuSans-73" x="709.832031"/>
      <use xlink:href="#DejaVuSans-20" x="761.931641"/>
      <use xlink:href="#DejaVuSans-2f" x="793.71875"/>
      <use xlink:href="#DejaVuSans-20" x="827.410156"/>
      <use xlink:href="#DejaVuSans-64" x="859.197266"/>
      <use xlink:href="#DejaVuSans-69" x="922.673828"/>
      <use xlink:href="#DejaVuSans-6d" x="950.457031"/>
      <use xlink:href="#DejaVuSans-65" x="1047.869141"/>
      <use xlink:href="#DejaVuSans-6e" x="1109.392578"/>
      <use xlink:href="#DejaVuSans-73" x="1172.771484"/>
      <use xlink:href="#DejaVuSans-69" x="1224.871094"/>
      <use xlink:href="#DejaVuSans-6f" x="1252.654297"/>
      <use xlink:href="#DejaVuSans-6e" x="1313.835938"/>
      <use xlink:href="#DejaVuSans-29" x="1377.214844"/>
     </g>
    </g>
   </g>
   <g id="matplotlib.axis_2">
    <g id="ytick_1">
     <g id="line2d_21">
      <path d="M 57.6 298.944 
L 360.8064 298.944 
" clip-path="url(#p12f191053d)" style="fill: none; stroke: #b0b0b0; stroke-width: 0.8; stroke-linecap: square"/>
     </g>
     <g id="line2d_22">
      <defs>
       <path id="mb26f77a6c2" d="M 0 0 
L -3.5 0 
" style="stroke: #000000; stroke-width: 0.8"/>
      </defs>
      <g>
       <use xlink:href="#mb26f77a6c2" x="57.6" y="298.944" style="stroke: #000000; stroke-width: 0.8"/>
      </g>
     </g>
     <g id="text_6">
      <!-- 0.0 -->
      <g transform="translate(25.155 305.02275)scale(0.16 -0.16)">
       <defs>
        <path id="DejaVuSans-2e" d="M 684 794 
L 1344 794 
L 1344 0 
L 684 0 
L 684 794 
z
" transform="scale(0.015625)"/>
       </defs>
       <use xlink:href="#DejaVuSans-30"/>
       <use xlink:href="#DejaVuSans-2e" x="63.623047"/>
       <use xlink:href="#DejaVuSans-30" x="95.410156"/>
      </g>
     </g>
    </g>
    <g id="ytick_2">
     <g id="line2d_23">
      <path d="M 57.6 244.6848 
L 360.8064 244.6848 
" clip-path="url(#p12f191053d)" style="fill: none; stroke: #b0b0b0; stroke-width: 0.8; stroke-linecap: square"/>
     </g>
     <g id="line2d_24">
      <g>
       <use xlink:href="#mb26f77a6c2" x="57.6" y="244.6848" style="stroke: #000000; stroke-width: 0.8"/>
      </g>
     </g>
     <g id="text_7">
      <!-- 0.2 -->
      <g transform="translate(25.155 250.76355)scale(0.16 -0.16)">
       <use xlink:href="#DejaVuSans-30"/>
       <use xlink:href="#DejaVuSans-2e" x="63.623047"/>
       <use xlink:href="#DejaVuSans-32" x="95.410156"/>
      </g>
     </g>
    </g>
    <g id="ytick_3">
     <g id="line2d_25">
      <path d="M 57.6 190.4256 
L 360.8064 190.4256 
" clip-path="url(#p12f191053d)" style="fill: none; stroke: #b0b0b0; stroke-width: 0.8; stroke-linecap: square"/>
     </g>
     <g id="line2d_26">
      <g>
       <use xlink:href="#mb26f77a6c2" x="57.6" y="190.4256" style="stroke: #000000; stroke-width: 0.8"/>
      </g>
     </g>
     <g id="text_8">
      <!-- 0.4 -->
      <g transform="translate(25.155 196.50435)scale(0.16 -0.16)">
       <use xlink:href="#DejaVuSans-30"/>
       <use xlink:href="#DejaVuSans-2e" x="63.623047"/>
       <use xlink:href="#DejaVuSans-34" x="95.410156"/>
      </g>
     </g>
    </g>
    <g id="ytick_4">
     <g id="line2d_27">
      <path d="M 57.6 136.1664 
L 360.8064 136.1664 
" clip-path="url(#p12f191053d)" style="fill: none; stroke: #b0b0b0; stroke-width: 0.8; stroke-linecap: square"/>
     </g>
     <g id="line2d_28">
      <g>
       <use xlink:href="#mb26f77a6c2" x="57.6" y="136.1664" style="stroke: #000000; stroke-width: 0.8"/>
      </g>
     </g>
     <g id="text_9">
      <!-- 0.6 -->
      <g transform="translate(25.155 142.24515)scale(0.16 -0.16)">
       <use xlink:href="#DejaVuSans-30"/>
       <use xlink:href="#DejaVuSans-2e" x="63.623047"/>
       <use xlink:href="#DejaVuSans-36" x="95.410156"/>
      </g>
     </g>
    </g>
    <g id="ytick_5">
     <g id="line2d_29">
      <path d="M 57.6 81.9072 
L 360.8064 81.9072 
" clip-path="url(#p12f191053d)" style="fill: none; stroke: #b0b0b0; stroke-width: 0.8; stroke-linecap: square"/>
     </g>
     <g id="line2d_30">
      <g>
       <use xlink:href="#mb26f77a6c2" x="57.6" y="81.9072" style="stroke: #000000; stroke-width: 0.8"/>
      </g>
     </g>
     <g id="text_10">
      <!-- 0.8 -->
      <g transform="translate(25.155 87.98595)scale(0.16 -0.16)">
       <defs>
        <path id="DejaVuSans-38" d="M 2034 2216 
Q 1584 2216 1326 1975 
Q 1069 1734 1069 1313 
Q 1069 891 1326 650 
Q 1584 409 2034 409 
Q 2484 409 2743 651 
Q 3003 894 3003 1313 
Q 3003 1734 2745 1975 
Q 2488 2216 2034 2216 
z
M 1403 2484 
Q 997 2584 770 2862 
Q 544 3141 544 3541 
Q 544 4100 942 4425 
Q 1341 4750 2034 4750 
Q 2731 4750 3128 4425 
Q 3525 4100 3525 3541 
Q 3525 3141 3298 2862 
Q 3072 2584 2669 2484 
Q 3125 2378 3379 2068 
Q 3634 1759 3634 1313 
Q 3634 634 3220 271 
Q 2806 -91 2034 -91 
Q 1263 -91 848 271 
Q 434 634 434 1313 
Q 434 1759 690 2068 
Q 947 2378 1403 2484 
z
M 1172 3481 
Q 1172 3119 1398 2916 
Q 1625 2713 2034 2713 
Q 2441 2713 2670 2916 
Q 2900 3119 2900 3481 
Q 2900 3844 2670 4047 
Q 2441 4250 2034 4250 
Q 1625 4250 1398 4047 
Q 1172 3844 1172 3481 
z
" transform="scale(0.015625)"/>
       </defs>
       <use xlink:href="#DejaVuSans-30"/>
       <use xlink:href="#DejaVuSans-2e" x="63.623047"/>
       <use xlink:href="#DejaVuSans-38" x="95.410156"/>
      </g>
     </g>
    </g>
    <g id="ytick_6">
     <g id="line2d_31">
      <path d="M 57.6 27.648 
L 360.8064 27.648 
" clip-path="url(#p12f191053d)" style="fill: none; stroke: #b0b0b0; stroke-width: 0.8; stroke-linecap: square"/>
     </g>
     <g id="line2d_32">
      <g>
       <use xlink:href="#mb26f77a6c2" x="57.6" y="27.648" style="stroke: #000000; stroke-width: 0.8"/>
      </g>
     </g>
     <g id="text_11">
      <!-- 1.0 -->
      <g transform="translate(25.155 33.72675)scale(0.16 -0.16)">
       <use xlink:href="#DejaVuSans-31"/>
       <use xlink:href="#DejaVuSans-2e" x="63.623047"/>
       <use xlink:href="#DejaVuSans-30" x="95.410156"/>
      </g>
     </g>
    </g>
    <g id="text_12">
     <!-- Fraction of function,target pairs -->
     <g transform="translate(17.619531 297.681)rotate(-90)scale(0.17 -0.17)">
      <defs>
       <path id="DejaVuSans-46" d="M 628 4666 
L 3309 4666 
L 3309 4134 
L 1259 4134 
L 1259 2759 
L 3109 2759 
L 3109 2228 
L 1259 2228 
L 1259 0 
L 628 0 
L 628 4666 
z
" transform="scale(0.015625)"/>
       <path id="DejaVuSans-72" d="M 2631 2963 
Q 2534 3019 2420 3045 
Q 2306 3072 2169 3072 
Q 1681 3072 1420 2755 
Q 1159 2438 1159 1844 
L 1159 0 
L 581 0 
L 581 3500 
L 1159 3500 
L 1159 2956 
Q 1341 3275 1631 3429 
Q 1922 3584 2338 3584 
Q 2397 3584 2469 3576 
Q 2541 3569 2628 3553 
L 2631 2963 
z
" transform="scale(0.015625)"/>
       <path id="DejaVuSans-63" d="M 3122 3366 
L 3122 2828 
Q 2878 2963 2633 3030 
Q 2388 3097 2138 3097 
Q 1578 3097 1268 2742 
Q 959 2388 959 1747 
Q 959 1106 1268 751 
Q 1578 397 2138 397 
Q 2388 397 2633 464 
Q 2878 531 3122 666 
L 3122 134 
Q 2881 22 2623 -34 
Q 2366 -91 2075 -91 
Q 1284 -91 818 406 
Q 353 903 353 1747 
Q 353 2603 823 3093 
Q 1294 3584 2113 3584 
Q 2378 3584 2631 3529 
Q 2884 3475 3122 3366 
z
" transform="scale(0.015625)"/>
       <path id="DejaVuSans-74" d="M 1172 4494 
L 1172 3500 
L 2356 3500 
L 2356 3053 
L 1172 3053 
L 1172 1153 
Q 1172 725 1289 603 
Q 1406 481 1766 481 
L 2356 481 
L 2356 0 
L 1766 0 
Q 1100 0 847 248 
Q 594 497 594 1153 
L 594 3053 
L 172 3053 
L 172 3500 
L 594 3500 
L 594 4494 
L 1172 4494 
z
" transform="scale(0.015625)"/>
       <path id="DejaVuSans-75" d="M 544 1381 
L 544 3500 
L 1119 3500 
L 1119 1403 
Q 1119 906 1312 657 
Q 1506 409 1894 409 
Q 2359 409 2629 706 
Q 2900 1003 2900 1516 
L 2900 3500 
L 3475 3500 
L 3475 0 
L 2900 0 
L 2900 538 
Q 2691 219 2414 64 
Q 2138 -91 1772 -91 
Q 1169 -91 856 284 
Q 544 659 544 1381 
z
M 1991 3584 
L 1991 3584 
z
" transform="scale(0.015625)"/>
       <path id="DejaVuSans-2c" d="M 750 794 
L 1409 794 
L 1409 256 
L 897 -744 
L 494 -744 
L 750 256 
L 750 794 
z
" transform="scale(0.015625)"/>
       <path id="DejaVuSans-70" d="M 1159 525 
L 1159 -1331 
L 581 -1331 
L 581 3500 
L 1159 3500 
L 1159 2969 
Q 1341 3281 1617 3432 
Q 1894 3584 2278 3584 
Q 2916 3584 3314 3078 
Q 3713 2572 3713 1747 
Q 3713 922 3314 415 
Q 2916 -91 2278 -91 
Q 1894 -91 1617 61 
Q 1341 213 1159 525 
z
M 3116 1747 
Q 3116 2381 2855 2742 
Q 2594 3103 2138 3103 
Q 1681 3103 1420 2742 
Q 1159 2381 1159 1747 
Q 1159 1113 1420 752 
Q 1681 391 2138 391 
Q 2594 391 2855 752 
Q 3116 1113 3116 1747 
z
" transform="scale(0.015625)"/>
      </defs>
      <use xlink:href="#DejaVuSans-46"/>
      <use xlink:href="#DejaVuSans-72" x="50.269531"/>
      <use xlink:href="#DejaVuSans-61" x="91.382812"/>
      <use xlink:href="#DejaVuSans-63" x="152.662109"/>
      <use xlink:href="#DejaVuSans-74" x="207.642578"/>
      <use xlink:href="#DejaVuSans-69" x="246.851562"/>
      <use xlink:href="#DejaVuSans-6f" x="274.634766"/>
      <use xlink:href="#DejaVuSans-6e" x="335.816406"/>
      <use xlink:href="#DejaVuSans-20" x="399.195312"/>
      <use xlink:href="#DejaVuSans-6f" x="430.982422"/>
      <use xlink:href="#DejaVuSans-66" x="492.164062"/>
      <use xlink:href="#DejaVuSans-20" x="527.369141"/>
      <use xlink:href="#DejaVuSans-66" x="559.15625"/>
      <use xlink:href="#DejaVuSans-75" x="594.361328"/>
      <use xlink:href="#DejaVuSans-6e" x="657.740234"/>
      <use xlink:href="#DejaVuSans-63" x="721.119141"/>
      <use xlink:href="#DejaVuSans-74" x="776.099609"/>
      <use xlink:href="#DejaVuSans-69" x="815.308594"/>
      <use xlink:href="#DejaVuSans-6f" x="843.091797"/>
      <use xlink:href="#DejaVuSans-6e" x="904.273438"/>
      <use xlink:href="#DejaVuSans-2c" x="967.652344"/>
      <use xlink:href="#DejaVuSans-74" x="999.439453"/>
      <use xlink:href="#DejaVuSans-61" x="1038.648438"/>
      <use xlink:href="#DejaVuSans-72" x="1099.927734"/>
      <use xlink:href="#DejaVuSans-67" x="1139.291016"/>
      <use xlink:href="#DejaVuSans-65" x="1202.767578"/>
      <use xlink:href="#DejaVuSans-74" x="1264.291016"/>
      <use xlink:href="#DejaVuSans-20" x="1303.5"/>
      <use xlink:href="#DejaVuSans-70" x="1335.287109"/>
      <use xlink:href="#DejaVuSans-61" x="1398.763672"/>
      <use xlink:href="#DejaVuSans-69" x="1460.042969"/>
      <use xlink:href="#DejaVuSans-72" x="1487.826172"/>
      <use xlink:href="#DejaVuSans-73" x="1528.939453"/>
     </g>
    </g>
   </g>
   <g id="line2d_33">
    <defs>
     <path id="md89413e823" d="M 0 1.5 
C 0.397805 1.5 0.77937 1.341951 1.06066 1.06066 
C 1.341951 0.77937 1.5 0.397805 1.5 0 
C 1.5 -0.397805 1.341951 -0.77937 1.06066 -1.06066 
C 0.77937 -1.341951 0.397805 -1.5 0 -1.5 
C -0.397805 -1.5 -0.77937 -1.341951 -1.06066 -1.06066 
C -1.341951 -0.77937 -1.5 -0.397805 -1.5 0 
C -1.5 0.397805 -1.341951 0.77937 -1.06066 1.06066 
C -0.77937 1.341951 -0.397805 1.5 0 1.5 
z
" style="stroke: #f5deb3"/>
    </defs>
    <g>
     <use xlink:href="#md89413e823" x="151.435079" y="27.648" style="fill: #f5deb3; stroke: #f5deb3"/>
     <use xlink:href="#md89413e823" x="151.435079" y="27.648" style="fill: #f5deb3; stroke: #f5deb3"/>
    </g>
   </g>
   <g id="line2d_34">
    <defs>
     <path id="md608d40faa" d="M 0 1.5 
C 0.397805 1.5 0.77937 1.341951 1.06066 1.06066 
C 1.341951 0.77937 1.5 0.397805 1.5 0 
C 1.5 -0.397805 1.341951 -0.77937 1.06066 -1.06066 
C 0.77937 -1.341951 0.397805 -1.5 0 -1.5 
C -0.397805 -1.5 -0.77937 -1.341951 -1.06066 -1.06066 
C -1.341951 -0.77937 -1.5 -0.397805 -1.5 0 
C -1.5 0.397805 -1.341951 0.77937 -1.06066 1.06066 
C -0.77937 1.341951 -0.397805 1.5 0 1.5 
z
" style="stroke: #000080"/>
    </defs>
    <g>
     <use xlink:href="#md608d40faa" x="350.980444" y="149.997176" style="fill: #000080; stroke: #000080"/>
     <use xlink:href="#md608d40faa" x="350.980444" y="149.997176" style="fill: #000080; stroke: #000080"/>
    </g>
   </g>
   <g id="line2d_35">
    <path d="M 49.972572 298.944 
L 49.972572 298.589365 
L 67.209423 298.589365 
L 67.209423 298.234729 
L 86.578163 298.234729 
L 86.578163 297.525459 
L 99.617337 297.525459 
L 99.617337 297.170824 
L 103.815014 297.170824 
L 103.815014 296.816188 
L 122.598891 296.816188 
L 122.598891 296.106918 
L 122.795872 296.106918 
L 122.795872 295.397647 
L 133.874812 295.397647 
L 133.874812 295.043012 
L 140.49723 295.043012 
L 140.49723 294.333741 
L 144.293001 294.333741 
L 144.293001 293.979106 
L 144.541342 293.979106 
L 144.541342 293.624471 
L 145.26728 293.624471 
L 145.26728 293.269835 
L 145.561676 293.269835 
L 145.561676 292.560565 
L 146.023332 292.560565 
L 146.023332 292.205929 
L 147.868016 292.205929 
L 147.868016 291.496659 
L 149.922224 291.496659 
L 149.922224 291.142024 
L 151.176793 291.142024 
L 151.176793 290.787388 
L 152.874916 290.787388 
L 152.874916 290.432753 
L 153.989717 290.432753 
L 154.064218 289.723482 
L 154.322673 289.723482 
L 154.322673 288.304941 
L 154.613767 288.304941 
L 154.721776 287.241035 
L 154.793439 287.241035 
L 154.900425 286.177129 
L 155.147716 286.177129 
L 155.147716 285.822494 
L 155.322384 285.822494 
L 155.322384 284.403953 
L 155.769072 284.403953 
L 155.802997 283.694682 
L 156.205398 283.694682 
L 156.205398 283.340047 
L 156.337642 283.340047 
L 156.337642 281.921506 
L 156.53428 281.921506 
L 156.53428 281.212235 
L 156.825436 281.212235 
L 156.825436 280.8576 
L 157.080512 280.8576 
L 157.143744 280.148329 
L 157.238196 280.148329 
L 157.238196 279.793694 
L 157.549652 279.793694 
L 157.61133 278.375153 
L 157.672805 278.375153 
L 157.734081 277.665882 
L 157.795157 277.665882 
L 157.886402 276.601976 
L 157.946987 276.601976 
L 157.946987 276.247341 
L 158.067574 276.247341 
L 158.15751 274.8288 
L 158.336102 274.8288 
L 158.336102 274.474165 
L 158.513014 274.474165 
L 158.513014 274.119529 
L 158.919453 274.119529 
L 158.976805 272.346353 
L 159.033983 272.346353 
L 159.119425 270.573176 
L 159.260973 270.573176 
L 159.289155 269.154635 
L 159.513105 269.154635 
L 159.513105 268.8 
L 159.871431 268.8 
L 159.898714 267.736094 
L 160.061585 267.736094 
L 160.061585 267.381459 
L 160.196243 267.381459 
L 160.276577 266.672188 
L 160.329943 266.672188 
L 160.356569 265.962918 
L 160.725435 265.962918 
L 160.803545 265.253647 
L 160.907191 265.253647 
L 160.907191 264.899012 
L 161.214743 264.899012 
L 161.214743 264.544376 
L 161.442152 264.544376 
L 161.542347 262.7712 
L 162.03547 262.7712 
L 162.108336 262.061929 
L 162.539702 262.061929 
L 162.539702 261.707294 
L 164.474253 261.707294 
L 164.474253 260.998024 
L 164.686815 260.998024 
L 164.686815 260.288753 
L 165.674958 260.288753 
L 165.674958 259.579482 
L 168.517384 259.579482 
L 168.517384 259.224847 
L 168.892945 259.224847 
L 168.892945 258.870212 
L 169.96067 258.870212 
L 169.96067 258.515576 
L 171.15177 258.515576 
L 171.15177 257.806306 
L 171.508116 257.806306 
L 171.508116 257.451671 
L 172.144386 257.451671 
L 172.144386 257.097035 
L 173.087241 257.097035 
L 173.18167 256.387765 
L 173.829724 256.387765 
L 173.829724 256.033129 
L 174.036588 256.033129 
L 174.036588 255.678494 
L 174.456194 255.678494 
L 174.456194 255.323859 
L 174.594009 255.323859 
L 174.594009 254.969224 
L 176.230828 254.969224 
L 176.230828 254.614588 
L 176.514738 254.614588 
L 176.514738 254.259953 
L 177.287622 254.259953 
L 177.287622 253.905318 
L 177.545466 253.905318 
L 177.545466 253.550682 
L 178.583321 253.550682 
L 178.583321 253.196047 
L 179.325784 253.196047 
L 179.325784 252.486776 
L 179.643407 252.486776 
L 179.643407 252.132141 
L 180.737195 252.132141 
L 180.737195 251.422871 
L 181.530677 251.422871 
L 181.530677 251.068235 
L 181.67687 251.068235 
L 181.67687 250.358965 
L 181.949013 250.358965 
L 182.041661 249.649694 
L 183.743481 249.649694 
L 183.827718 248.585788 
L 183.888744 248.585788 
L 183.888744 248.231153 
L 184.561993 248.231153 
L 184.561993 247.876518 
L 185.416721 247.876518 
L 185.416721 247.521882 
L 185.674752 247.521882 
L 185.674752 247.167247 
L 185.812768 247.167247 
L 185.812768 246.812612 
L 186.388297 246.812612 
L 186.388297 246.457976 
L 190.147456 246.457976 
L 190.147456 246.103341 
L 190.749305 246.103341 
L 190.749305 245.748706 
L 191.048366 245.748706 
L 191.048366 245.394071 
L 193.776369 245.394071 
L 193.776369 245.039435 
L 196.30068 245.039435 
L 196.30068 244.6848 
L 196.767299 244.6848 
L 196.767299 244.330165 
L 202.306316 244.330165 
L 202.306316 243.620894 
L 202.542298 243.620894 
L 202.542298 243.266259 
L 203.249322 243.266259 
L 203.249322 242.911624 
L 205.01428 242.911624 
L 205.01428 241.847718 
L 207.455161 241.847718 
L 207.554991 241.138447 
L 210.677048 241.138447 
L 210.677048 240.783812 
L 210.821338 240.783812 
L 210.821338 240.429176 
L 211.325786 240.429176 
L 211.325786 240.074541 
L 211.708027 240.074541 
L 211.708027 239.719906 
L 213.235905 239.719906 
L 213.235905 239.365271 
L 214.216488 239.365271 
L 214.216488 239.010635 
L 216.677655 239.010635 
L 216.677655 238.656 
L 219.466908 238.656 
L 219.466908 238.301365 
L 221.827706 238.301365 
L 221.827706 237.946729 
L 224.011829 237.946729 
L 224.011829 237.592094 
L 225.335003 237.592094 
L 225.335003 237.237459 
L 225.508321 237.237459 
L 225.508321 236.882824 
L 227.416746 236.882824 
L 227.416746 236.528188 
L 229.145149 236.528188 
L 229.145149 236.173553 
L 229.480118 236.173553 
L 229.566296 235.464282 
L 230.278116 235.464282 
L 230.278116 235.109647 
L 230.692628 235.109647 
L 230.692628 234.400376 
L 231.524295 234.400376 
L 231.524295 234.045741 
L 246.958744 234.045741 
L 246.958744 233.691106 
L 247.261148 233.691106 
L 247.261148 233.336471 
L 247.572958 233.336471 
L 247.597702 232.272565 
L 247.731678 232.272565 
L 247.735003 231.563294 
L 249.912688 231.563294 
L 249.912688 231.208659 
L 250.04681 231.208659 
L 250.04681 230.854024 
L 250.227076 230.854024 
L 250.227076 230.499388 
L 250.455041 230.499388 
L 250.485774 229.435482 
L 250.568436 229.435482 
L 250.606448 228.726212 
L 250.894634 228.726212 
L 250.894634 228.371576 
L 251.410408 228.371576 
L 251.449907 227.307671 
L 251.548084 227.307671 
L 251.646998 226.243765 
L 251.699678 226.243765 
L 251.699678 225.534494 
L 251.922448 225.534494 
L 251.972118 224.470588 
L 252.176162 224.470588 
L 252.19937 223.761318 
L 252.328607 223.761318 
L 252.391796 222.342776 
L 274.223033 222.342776 
L 274.315191 220.5696 
L 274.343242 220.5696 
L 274.343242 220.214965 
L 274.583833 220.214965 
L 274.646195 219.505694 
L 274.830413 219.505694 
L 274.936941 217.377882 
L 275.040893 217.377882 
L 275.040893 217.023247 
L 275.175516 217.023247 
L 275.175516 216.668612 
L 275.305227 216.668612 
L 275.305227 215.604706 
L 275.439679 215.604706 
L 275.540605 214.895435 
L 275.680628 214.895435 
L 275.680628 214.5408 
L 275.84752 214.5408 
L 275.854863 213.831529 
L 278.869381 213.831529 
L 278.894478 212.412988 
L 279.084545 212.412988 
L 279.151375 208.866635 
L 279.203383 208.866635 
L 279.303244 205.320282 
L 279.314509 205.320282 
L 279.314509 204.965647 
L 287.262364 204.965647 
L 287.345712 204.256376 
L 287.420196 204.256376 
L 287.484284 203.547106 
L 287.534133 203.547106 
L 287.545227 202.837835 
L 288.069494 202.837835 
L 288.165125 200.355388 
L 289.721969 200.355388 
L 289.726715 199.291482 
L 289.834224 199.291482 
L 289.933335 196.4544 
L 289.959339 196.4544 
L 289.959339 195.745129 
L 295.18171 195.745129 
L 295.18171 195.390494 
L 295.440913 195.390494 
L 295.454029 194.681224 
L 296.32043 194.681224 
L 296.32043 194.326588 
L 296.676401 194.326588 
L 296.715778 192.908047 
L 300.641938 192.908047 
L 300.73532 191.844141 
L 301.373652 191.844141 
L 301.373652 191.489506 
L 301.541948 191.489506 
L 301.646183 190.4256 
L 301.660808 190.4256 
L 301.672995 188.652424 
L 304.598871 188.652424 
L 304.606696 187.943153 
L 304.798423 187.943153 
L 304.81329 186.879247 
L 305.549325 186.879247 
L 305.598157 184.042165 
L 308.189974 184.042165 
L 308.189974 183.687529 
L 308.818597 183.687529 
L 308.841671 180.850447 
L 310.858873 180.850447 
L 310.858873 180.495812 
L 311.046067 180.495812 
L 311.046067 180.141176 
L 311.578113 180.141176 
L 311.605296 178.368 
L 313.385436 178.368 
L 313.385436 178.013365 
L 314.009894 178.013365 
L 314.015832 176.949459 
L 315.65388 176.949459 
L 315.71523 174.821647 
L 316.131615 174.821647 
L 316.152418 172.693835 
L 317.676723 172.693835 
L 317.676723 172.3392 
L 318.058871 172.3392 
L 318.071248 171.275294 
L 319.426 171.275294 
L 319.452866 170.566024 
L 319.793488 170.566024 
L 319.813773 169.147482 
L 321.075681 169.147482 
L 321.075681 168.792847 
L 321.40155 168.792847 
L 321.405559 166.665035 
L 322.859762 166.665035 
L 322.874689 165.601129 
L 323.950586 165.601129 
L 323.950586 165.246494 
L 325.504555 165.246494 
L 325.508483 163.827953 
L 326.454098 163.827953 
L 326.454098 163.118682 
L 326.694735 163.118682 
L 326.694735 162.764047 
L 327.582494 162.764047 
L 327.582494 162.409412 
L 327.814074 162.409412 
L 327.816508 161.700141 
L 328.866697 161.700141 
L 328.873009 160.990871 
L 329.870803 160.990871 
L 329.87315 159.926965 
L 330.617973 159.926965 
L 330.617973 159.572329 
L 330.82056 159.572329 
L 330.822792 157.799153 
L 331.726553 157.799153 
L 331.726553 157.444518 
L 332.584148 157.444518 
L 332.589103 156.380612 
L 333.411792 156.380612 
L 333.413909 155.316706 
L 334.20196 155.316706 
L 334.202257 154.607435 
L 338.351756 154.607435 
L 338.351756 154.2528 
L 340.1285 154.2528 
L 340.1285 153.898165 
L 340.684729 153.898165 
L 340.684782 153.188894 
L 342.260191 153.188894 
L 342.260191 152.834259 
L 343.243679 152.834259 
L 343.243726 152.124988 
L 343.716201 152.124988 
L 343.716201 151.770353 
L 345.063918 151.770353 
L 345.063918 151.415718 
L 346.326316 151.415718 
L 346.326316 151.061082 
L 349.323757 151.061082 
L 349.323757 150.706447 
L 350.660838 150.706447 
L 350.660838 150.351812 
L 350.980444 150.351812 
L 350.980444 149.997176 
L 360.8064 149.997176 
L 360.8064 149.997176 
" style="fill: none; stroke: #000080; stroke-width: 1.5; stroke-linecap: square"/>
   </g>
   <g id="line2d_36">
    <defs>
     <path id="m7b1cd22466" d="M 0 6 
C 1.591219 6 3.117479 5.367802 4.242641 4.242641 
C 5.367802 3.117479 6 1.591219 6 0 
C 6 -1.591219 5.367802 -3.117479 4.242641 -4.242641 
C 3.117479 -5.367802 1.591219 -6 0 -6 
C -1.591219 -6 -3.117479 -5.367802 -4.242641 -4.242641 
C -5.367802 -3.117479 -6 -1.591219 -6 0 
C -6 1.591219 -5.367802 3.117479 -4.242641 4.242641 
C -3.117479 5.367802 -1.591219 6 0 6 
z
" style="stroke: #000080; stroke-width: 1.5"/>
    </defs>
    <g>
     <use xlink:href="#m7b1cd22466" x="158.15751" y="275.183435" style="fill-opacity: 0; stroke: #000080; stroke-width: 1.5"/>
     <use xlink:href="#m7b1cd22466" x="207.554991" y="241.493082" style="fill-opacity: 0; stroke: #000080; stroke-width: 1.5"/>
     <use xlink:href="#m7b1cd22466" x="296.32043" y="194.681224" style="fill-opacity: 0; stroke: #000080; stroke-width: 1.5"/>
     <use xlink:href="#m7b1cd22466" x="334.202257" y="154.607435" style="fill-opacity: 0; stroke: #000080; stroke-width: 1.5"/>
     <use xlink:href="#m7b1cd22466" x="350.980444" y="149.997176" style="fill-opacity: 0; stroke: #000080; stroke-width: 1.5"/>
     <use xlink:href="#m7b1cd22466" x="360.8064" y="149.997176" style="fill-opacity: 0; stroke: #000080; stroke-width: 1.5"/>
    </g>
   </g>
   <g id="line2d_37">
    <path style="fill: none; stroke: #000080; stroke-width: 1.5; stroke-linecap: square"/>
    <g/>
   </g>
   <g id="line2d_38">
    <path d="M 274.176 222.342776 
" clip-path="url(#p12f191053d)" style="fill: none; stroke: #000080; stroke-width: 1.5; stroke-linecap: square"/>
    <defs>
     <path id="mf3d70ab4f7" d="M -12 12 
L 12 -12 
M -12 -12 
L 12 12 
" style="stroke: #000080"/>
    </defs>
    <g clip-path="url(#p12f191053d)">
     <use xlink:href="#mf3d70ab4f7" x="274.176" y="222.342776" style="fill: #000080; stroke: #000080"/>
    </g>
   </g>
   <g id="line2d_39">
    <defs>
     <path id="m09f861e618" d="M 0 1.5 
C 0.397805 1.5 0.77937 1.341951 1.06066 1.06066 
C 1.341951 0.77937 1.5 0.397805 1.5 0 
C 1.5 -0.397805 1.341951 -0.77937 1.06066 -1.06066 
C 0.77937 -1.341951 0.397805 -1.5 0 -1.5 
C -0.397805 -1.5 -0.77937 -1.341951 -1.06066 -1.06066 
C -1.341951 -0.77937 -1.5 -0.397805 -1.5 0 
C -1.5 0.397805 -1.341951 0.77937 -1.06066 1.06066 
C -0.77937 1.341951 -0.397805 1.5 0 1.5 
z
" style="stroke: #ff00ff"/>
    </defs>
    <g>
     <use xlink:href="#m09f861e618" x="360.395743" y="155.316706" style="fill: #ff00ff; stroke: #ff00ff"/>
     <use xlink:href="#m09f861e618" x="360.395743" y="155.316706" style="fill: #ff00ff; stroke: #ff00ff"/>
    </g>
   </g>
   <g id="line2d_40">
    <path d="M 97.485448 298.944 
L 97.485448 298.589365 
L 104.344952 298.589365 
L 104.344952 298.234729 
L 108.542628 298.234729 
L 108.542628 297.880094 
L 116.308887 297.880094 
L 116.308887 297.525459 
L 118.401214 297.525459 
L 118.401214 296.816188 
L 119.599808 296.816188 
L 119.599808 296.461553 
L 123.374735 296.461553 
L 123.374735 296.106918 
L 123.563797 296.106918 
L 123.563797 295.752282 
L 125.695686 295.752282 
L 125.695686 295.397647 
L 129.893363 295.397647 
L 129.893363 295.043012 
L 132.287354 295.043012 
L 132.287354 294.333741 
L 133.097823 294.333741 
L 133.097823 293.979106 
L 139.716555 293.979106 
L 139.716555 293.624471 
L 140.343665 293.624471 
L 140.343665 292.9152 
L 144.16759 292.9152 
L 144.16759 292.560565 
L 145.207843 292.560565 
L 145.207843 292.205929 
L 145.561676 292.205929 
L 145.561676 291.496659 
L 146.584913 291.496659 
L 146.584913 290.787388 
L 148.67724 290.787388 
L 148.67724 290.432753 
L 150.425115 290.432753 
L 150.425115 290.078118 
L 151.306379 290.078118 
L 151.306379 289.723482 
L 151.982822 289.723482 
L 151.982822 289.368847 
L 154.971412 289.368847 
L 154.971412 289.014212 
L 157.363398 289.014212 
L 157.363398 288.659576 
L 157.856036 288.659576 
L 157.856036 288.304941 
L 160.751508 288.304941 
L 160.751508 287.241035 
L 161.41702 287.241035 
L 161.41702 286.8864 
L 163.932096 286.8864 
L 163.932096 286.531765 
L 164.107292 286.531765 
L 164.107292 286.177129 
L 167.325142 286.177129 
L 167.325142 285.467859 
L 169.491772 285.467859 
L 169.491772 284.758588 
L 170.151329 284.758588 
L 170.151329 284.403953 
L 173.208563 284.403953 
L 173.208563 283.694682 
L 177.757668 283.694682 
L 177.757668 283.340047 
L 178.257396 283.340047 
L 178.257396 282.985412 
L 180.410187 282.985412 
L 180.410187 282.276141 
L 181.357217 282.276141 
L 181.357217 281.921506 
L 183.774156 281.921506 
L 183.774156 280.8576 
L 185.901939 280.8576 
L 185.901939 280.502965 
L 186.75153 280.502965 
L 186.75153 280.148329 
L 187.017812 280.148329 
L 187.017812 279.793694 
L 189.097576 279.793694 
L 189.097576 279.439059 
L 189.287158 279.439059 
L 189.287158 279.084424 
L 192.189421 279.084424 
L 192.189421 278.729788 
L 192.687353 278.729788 
L 192.687353 278.020518 
L 193.214243 278.020518 
L 193.214243 277.665882 
L 193.771866 277.665882 
L 193.771866 276.601976 
L 194.848356 276.601976 
L 194.848356 275.892706 
L 194.983966 275.892706 
L 194.983966 275.183435 
L 197.512781 275.183435 
L 197.512781 274.474165 
L 199.34728 274.474165 
L 199.34728 274.119529 
L 199.995621 274.119529 
L 200.018253 272.346353 
L 200.920371 272.346353 
L 200.923451 270.573176 
L 201.654264 270.573176 
L 201.654264 270.218541 
L 202.975216 270.218541 
L 202.975216 269.863906 
L 203.276514 269.863906 
L 203.276514 268.8 
L 204.44842 268.8 
L 204.44842 268.090729 
L 205.204086 268.090729 
L 205.204086 267.736094 
L 205.404132 267.736094 
L 205.404132 267.381459 
L 205.630868 267.381459 
L 205.630868 266.317553 
L 206.575383 266.317553 
L 206.632302 265.608282 
L 207.505142 265.608282 
L 207.505142 264.899012 
L 207.725213 264.899012 
L 207.725213 264.189741 
L 208.15149 264.189741 
L 208.15149 262.7712 
L 209.151906 262.7712 
L 209.151906 262.416565 
L 209.387041 262.416565 
L 209.387041 262.061929 
L 209.65028 262.061929 
L 209.65028 260.643388 
L 210.158421 260.643388 
L 210.158421 260.288753 
L 211.438811 260.288753 
L 211.438811 259.579482 
L 212.359648 259.579482 
L 212.359648 259.224847 
L 212.491636 259.224847 
L 212.491636 258.870212 
L 213.756728 258.870212 
L 213.756728 258.515576 
L 214.280179 258.515576 
L 214.280179 258.160941 
L 214.947921 258.160941 
L 214.947921 257.097035 
L 215.270955 257.097035 
L 215.270955 256.033129 
L 215.461008 256.033129 
L 215.461008 255.678494 
L 216.292578 255.678494 
L 216.365891 253.905318 
L 217.192964 253.905318 
L 217.302864 253.196047 
L 218.262871 253.196047 
L 218.34111 252.132141 
L 218.626836 252.132141 
L 218.626836 251.422871 
L 218.935493 251.422871 
L 218.935493 250.7136 
L 219.42204 250.7136 
L 219.42204 250.358965 
L 220.705308 250.358965 
L 220.75044 249.649694 
L 221.021099 249.649694 
L 221.021099 249.295059 
L 221.470608 249.295059 
L 221.470608 248.940424 
L 222.082403 248.940424 
L 222.19108 247.521882 
L 222.202013 247.521882 
L 222.202013 247.167247 
L 222.602117 247.167247 
L 222.602117 246.812612 
L 223.177796 246.812612 
L 223.177796 246.457976 
L 223.476346 246.457976 
L 223.476346 245.394071 
L 223.594821 245.394071 
L 223.594821 244.6848 
L 224.362303 244.6848 
L 224.453319 241.847718 
L 224.807853 241.847718 
L 224.807853 241.138447 
L 225.535804 241.138447 
L 225.535804 240.783812 
L 225.796145 240.783812 
L 225.796145 240.074541 
L 226.088522 240.074541 
L 226.088522 239.719906 
L 228.629828 239.719906 
L 228.629828 239.365271 
L 229.207556 239.365271 
L 229.207556 239.010635 
L 229.409807 239.010635 
L 229.409807 238.656 
L 229.557561 238.656 
L 229.557561 238.301365 
L 229.704164 238.301365 
L 229.704164 237.946729 
L 229.827785 237.946729 
L 229.827785 237.237459 
L 230.180848 237.237459 
L 230.180848 236.882824 
L 230.413451 236.882824 
L 230.413451 236.528188 
L 230.922151 236.528188 
L 230.922151 235.818918 
L 231.466701 235.818918 
L 231.466701 235.464282 
L 232.113629 235.464282 
L 232.194997 234.045741 
L 232.4687 234.045741 
L 232.4687 233.691106 
L 232.900645 233.691106 
L 232.920327 232.6272 
L 233.067562 232.6272 
L 233.067562 231.917929 
L 233.366304 231.917929 
L 233.421658 230.854024 
L 233.505745 230.854024 
L 233.505745 230.499388 
L 233.863526 230.499388 
L 233.863526 230.144753 
L 235.627182 230.144753 
L 235.627182 229.435482 
L 235.800137 229.435482 
L 235.800137 229.080847 
L 236.830876 229.080847 
L 236.830876 228.726212 
L 237.390402 228.726212 
L 237.390402 227.662306 
L 237.779432 227.662306 
L 237.779432 226.953035 
L 238.038097 226.953035 
L 238.125239 225.534494 
L 239.038186 225.534494 
L 239.038186 224.825224 
L 239.222815 224.825224 
L 239.222815 224.470588 
L 239.919333 224.470588 
L 239.919333 223.761318 
L 241.067501 223.761318 
L 241.067501 223.406682 
L 241.527979 223.406682 
L 241.527979 223.052047 
L 242.329733 223.052047 
L 242.329733 222.342776 
L 242.452368 222.342776 
L 242.452368 221.988141 
L 242.989773 221.988141 
L 242.989773 221.633506 
L 243.263855 221.633506 
L 243.263855 221.278871 
L 243.413414 221.278871 
L 243.413414 220.5696 
L 243.603246 220.5696 
L 243.603246 220.214965 
L 244.087776 220.214965 
L 244.087776 219.151059 
L 245.974108 219.151059 
L 245.974108 218.796424 
L 246.142391 218.796424 
L 246.142391 218.441788 
L 246.695228 218.441788 
L 246.774241 217.377882 
L 247.043293 217.377882 
L 247.043293 217.023247 
L 248.158502 217.023247 
L 248.158502 216.668612 
L 249.131207 216.668612 
L 249.131207 216.313976 
L 252.797432 216.313976 
L 252.797432 215.959341 
L 252.949983 215.959341 
L 252.949983 215.604706 
L 253.574186 215.604706 
L 253.574186 215.250071 
L 256.475579 215.250071 
L 256.475579 214.895435 
L 259.53213 214.895435 
L 259.53213 214.5408 
L 265.895321 214.5408 
L 265.895321 214.186165 
L 276.041644 214.186165 
L 276.041644 213.831529 
L 276.281724 213.831529 
L 276.281724 213.476894 
L 276.52116 213.476894 
L 276.540912 212.412988 
L 276.730235 212.412988 
L 276.822579 210.994447 
L 276.941775 210.994447 
L 276.966497 209.221271 
L 277.061673 209.221271 
L 277.061673 208.866635 
L 277.519124 208.866635 
L 277.587349 207.802729 
L 277.698639 207.802729 
L 277.698639 207.093459 
L 278.058835 207.093459 
L 278.161393 205.674918 
L 278.444925 205.674918 
L 278.444925 204.965647 
L 278.643422 204.965647 
L 278.643422 203.901741 
L 279.505265 203.901741 
L 279.505265 203.547106 
L 279.659329 203.547106 
L 279.659329 203.192471 
L 280.427425 203.192471 
L 280.427425 202.4832 
L 281.334234 202.4832 
L 281.334234 201.773929 
L 283.571794 201.773929 
L 283.571794 201.419294 
L 287.943931 201.419294 
L 287.943931 201.064659 
L 288.570067 201.064659 
L 288.619335 200.000753 
L 288.683096 200.000753 
L 288.696344 198.936847 
L 288.938289 198.936847 
L 289.031692 196.809035 
L 289.092342 196.809035 
L 289.092342 196.4544 
L 289.346279 196.4544 
L 289.382637 195.745129 
L 290.099664 195.745129 
L 290.187541 195.035859 
L 295.574495 195.035859 
L 295.618853 194.326588 
L 295.780098 194.326588 
L 295.813695 193.262682 
L 296.031868 193.262682 
L 296.095979 191.844141 
L 296.497764 191.844141 
L 296.497764 191.489506 
L 296.821324 191.489506 
L 296.836069 190.070965 
L 297.208528 190.070965 
L 297.208528 189.716329 
L 297.585448 189.716329 
L 297.585448 189.361694 
L 300.979621 189.361694 
L 301.038144 188.652424 
L 301.170899 188.652424 
L 301.170899 187.943153 
L 301.384934 187.943153 
L 301.404115 187.233882 
L 301.526468 187.233882 
L 301.526468 186.879247 
L 301.785961 186.879247 
L 301.833227 186.169976 
L 305.203028 186.169976 
L 305.242427 185.460706 
L 305.351872 185.460706 
L 305.351872 185.106071 
L 305.490519 185.106071 
L 305.490519 184.3968 
L 305.739376 184.3968 
L 305.739376 184.042165 
L 305.934343 184.042165 
L 305.934343 183.687529 
L 306.172251 183.687529 
L 306.172251 182.978259 
L 308.576138 182.978259 
L 308.66667 182.268988 
L 308.762892 182.268988 
L 308.762892 181.914353 
L 311.238195 181.914353 
L 311.341594 180.850447 
L 311.466536 180.850447 
L 311.515112 179.431906 
L 311.702224 179.431906 
L 311.73014 178.722635 
L 313.834664 178.722635 
L 313.903159 178.013365 
L 313.945839 178.013365 
L 313.945839 177.658729 
L 314.11037 177.658729 
L 314.11037 177.304094 
L 314.413115 177.304094 
L 314.413115 176.949459 
L 314.818154 176.949459 
L 314.818154 176.594824 
L 316.06885 176.594824 
L 316.125062 175.885553 
L 316.244931 175.885553 
L 316.266861 175.176282 
L 316.378516 175.176282 
L 316.378516 174.821647 
L 316.878054 174.821647 
L 316.878054 174.467012 
L 317.994891 174.467012 
L 317.994891 174.112376 
L 318.181582 174.112376 
L 318.282461 173.048471 
L 319.901236 173.048471 
L 319.901236 172.693835 
L 321.509971 172.693835 
L 321.594527 171.984565 
L 322.763863 171.984565 
L 322.763863 171.629929 
L 322.877421 171.629929 
L 322.976567 170.920659 
L 323.406476 170.920659 
L 323.406476 170.566024 
L 324.227341 170.566024 
L 324.337047 169.856753 
L 324.409827 169.856753 
L 324.409827 169.502118 
L 325.59239 169.502118 
L 325.59239 168.792847 
L 326.676346 168.792847 
L 326.698003 168.083576 
L 326.858125 168.083576 
L 326.936683 167.374306 
L 327.835878 167.374306 
L 327.912098 166.665035 
L 328.046352 166.665035 
L 328.046352 166.3104 
L 328.243665 166.3104 
L 328.243665 165.955765 
L 328.895183 165.955765 
L 328.895183 165.601129 
L 329.280869 165.601129 
L 329.280869 164.891859 
L 330.966348 164.891859 
L 331.02952 164.182588 
L 331.81815 164.182588 
L 331.86708 163.118682 
L 332.620776 163.118682 
L 332.620776 162.409412 
L 332.784184 162.409412 
L 332.784184 162.054776 
L 334.217621 162.054776 
L 334.284914 161.345506 
L 335.042866 161.345506 
L 335.042866 160.990871 
L 335.278433 160.990871 
L 335.278433 160.636235 
L 335.779227 160.636235 
L 335.779227 160.2816 
L 336.691302 160.2816 
L 336.691302 159.926965 
L 337.359838 159.926965 
L 337.359838 159.572329 
L 338.516248 159.572329 
L 338.516248 159.217694 
L 338.999471 159.217694 
L 338.999471 158.863059 
L 341.375667 158.863059 
L 341.375667 158.508424 
L 341.898864 158.508424 
L 341.898864 158.153788 
L 343.473985 158.153788 
L 343.473985 157.799153 
L 345.57362 157.799153 
L 345.57362 157.444518 
L 345.708566 157.444518 
L 345.708566 157.089882 
L 346.020884 157.089882 
L 346.125308 156.380612 
L 356.832788 156.380612 
L 356.832788 156.025976 
L 357.450459 156.025976 
L 357.450459 155.671341 
L 360.395743 155.671341 
L 360.395743 155.316706 
L 360.8064 155.316706 
L 360.8064 155.316706 
" style="fill: none; stroke: #ff00ff; stroke-width: 1.5; stroke-linecap: square"/>
   </g>
   <g id="line2d_41">
    <defs>
     <path id="md193ef3494" d="M 0 8.485281 
L 5.091169 0 
L 0 -8.485281 
L -5.091169 0 
z
" style="stroke: #ff00ff; stroke-width: 1.5; stroke-linejoin: miter"/>
    </defs>
    <g>
     <use xlink:href="#md193ef3494" x="202.975216" y="270.218541" style="fill-opacity: 0; stroke: #ff00ff; stroke-width: 1.5; stroke-linejoin: miter"/>
     <use xlink:href="#md193ef3494" x="265.895321" y="214.5408" style="fill-opacity: 0; stroke: #ff00ff; stroke-width: 1.5; stroke-linejoin: miter"/>
     <use xlink:href="#md193ef3494" x="326.936683" y="167.728941" style="fill-opacity: 0; stroke: #ff00ff; stroke-width: 1.5; stroke-linejoin: miter"/>
     <use xlink:href="#md193ef3494" x="360.395743" y="155.316706" style="fill-opacity: 0; stroke: #ff00ff; stroke-width: 1.5; stroke-linejoin: miter"/>
     <use xlink:href="#md193ef3494" x="360.8064" y="155.316706" style="fill-opacity: 0; stroke: #ff00ff; stroke-width: 1.5; stroke-linejoin: miter"/>
    </g>
   </g>
   <g id="line2d_42">
    <path style="fill: none; stroke: #ff00ff; stroke-width: 1.5; stroke-linecap: square"/>
    <g/>
   </g>
   <g id="line2d_43">
    <path d="M 274.249847 214.186165 
" clip-path="url(#p12f191053d)" style="fill: none; stroke: #ff00ff; stroke-width: 1.5; stroke-linecap: square"/>
    <defs>
     <path id="m5f9b1beafc" d="M -12 12 
L 12 -12 
M -12 -12 
L 12 12 
" style="stroke: #ff00ff"/>
    </defs>
    <g clip-path="url(#p12f191053d)">
     <use xlink:href="#m5f9b1beafc" x="274.249847" y="214.186165" style="fill: #ff00ff; stroke: #ff00ff"/>
    </g>
   </g>
   <g id="line2d_44">
    <defs>
     <path id="m31f2a1c100" d="M 0 1.5 
C 0.397805 1.5 0.77937 1.341951 1.06066 1.06066 
C 1.341951 0.77937 1.5 0.397805 1.5 0 
C 1.5 -0.397805 1.341951 -0.77937 1.06066 -1.06066 
C 0.77937 -1.341951 0.397805 -1.5 0 -1.5 
C -0.397805 -1.5 -0.77937 -1.341951 -1.06066 -1.06066 
C -1.341951 -0.77937 -1.5 -0.397805 -1.5 0 
C -1.5 0.397805 -1.341951 0.77937 -1.06066 1.06066 
C -0.77937 1.341951 -0.397805 1.5 0 1.5 
z
" style="stroke: #ff7500"/>
    </defs>
    <g>
     <use xlink:href="#m31f2a1c100" x="362.43478" y="102.121412" style="fill: #ff7500; stroke: #ff7500"/>
     <use xlink:href="#m31f2a1c100" x="362.43478" y="102.121412" style="fill: #ff7500; stroke: #ff7500"/>
    </g>
   </g>
   <g id="line2d_45">
    <path d="M 107.244765 298.944 
L 107.244765 298.234729 
L 108.542628 298.234729 
L 108.542628 297.525459 
L 114.571202 297.525459 
L 114.571202 297.170824 
L 116.583514 297.170824 
L 116.583514 296.461553 
L 117.899543 296.461553 
L 117.899543 296.106918 
L 118.64712 296.106918 
L 118.64712 295.752282 
L 120.058649 295.752282 
L 120.058649 295.397647 
L 121.159053 295.397647 
L 121.159053 294.688376 
L 122.795872 294.688376 
L 122.795872 294.333741 
L 124.119844 294.333741 
L 124.119844 293.979106 
L 124.659926 293.979106 
L 124.659926 293.269835 
L 127.610376 293.269835 
L 127.610376 292.560565 
L 128.643427 292.560565 
L 128.643427 292.205929 
L 129.209231 292.205929 
L 129.209231 291.851294 
L 129.348062 291.851294 
L 129.348062 291.496659 
L 129.758512 291.496659 
L 129.758512 290.787388 
L 130.811181 290.787388 
L 130.811181 290.078118 
L 133.097823 290.078118 
L 133.097823 289.368847 
L 133.323114 289.368847 
L 133.323114 289.014212 
L 133.765759 289.014212 
L 133.765759 288.659576 
L 134.516177 288.659576 
L 134.516177 287.950306 
L 136.508678 287.950306 
L 136.602972 286.531765 
L 137.250116 286.531765 
L 137.250116 285.467859 
L 138.050729 285.467859 
L 138.050729 285.113224 
L 139.150143 285.113224 
L 139.150143 284.403953 
L 140.800648 284.403953 
L 140.800648 284.049318 
L 141.099251 284.049318 
L 141.099251 283.340047 
L 141.610664 283.340047 
L 141.610664 282.985412 
L 144.2304 282.985412 
L 144.2304 282.630776 
L 145.966241 282.630776 
L 145.966241 282.276141 
L 147.237402 282.276141 
L 147.237402 281.921506 
L 148.428077 281.921506 
L 148.428077 281.566871 
L 150.604701 281.566871 
L 150.604701 281.212235 
L 152.024303 281.212235 
L 152.024303 280.8576 
L 152.434157 280.8576 
L 152.515067 278.729788 
L 153.802162 278.729788 
L 153.802162 278.375153 
L 155.701037 278.375153 
L 155.769072 275.892706 
L 156.005274 275.892706 
L 156.038776 275.183435 
L 156.138926 275.183435 
L 156.138926 274.8288 
L 156.857511 274.8288 
L 156.857511 274.119529 
L 157.764644 274.119529 
L 157.856036 273.410259 
L 158.513014 273.410259 
L 158.513014 273.055624 
L 159.062507 273.055624 
L 159.062507 271.991718 
L 159.953161 271.991718 
L 159.953161 271.637082 
L 160.276577 271.637082 
L 160.276577 271.282447 
L 161.391854 271.282447 
L 161.391854 269.863906 
L 161.888886 269.863906 
L 161.888886 269.509271 
L 163.191653 269.509271 
L 163.191653 269.154635 
L 163.305732 269.154635 
L 163.305732 268.8 
L 163.44172 268.8 
L 163.509347 267.736094 
L 164.771172 267.736094 
L 164.771172 267.381459 
L 164.980424 267.381459 
L 165.063478 266.317553 
L 165.473332 266.317553 
L 165.473332 265.962918 
L 165.654892 265.962918 
L 165.654892 265.608282 
L 166.130658 265.608282 
L 166.130658 264.899012 
L 166.8978 264.899012 
L 166.8978 264.544376 
L 167.214594 264.544376 
L 167.325142 263.480471 
L 167.435044 263.480471 
L 167.435044 263.125835 
L 167.868343 263.125835 
L 167.868343 262.7712 
L 168.098945 262.7712 
L 168.098945 261.707294 
L 169.671008 261.707294 
L 169.768058 260.288753 
L 169.96067 260.288753 
L 169.96067 259.934118 
L 170.293066 259.934118 
L 170.293066 259.224847 
L 170.834332 259.224847 
L 170.834332 258.870212 
L 171.15177 258.870212 
L 171.15177 256.7424 
L 172.144386 256.7424 
L 172.144386 256.387765 
L 173.24883 256.387765 
L 173.24883 255.678494 
L 173.646832 255.678494 
L 173.646832 255.323859 
L 174.544011 255.323859 
L 174.544011 254.969224 
L 175.208017 254.969224 
L 175.208017 254.614588 
L 175.708734 254.614588 
L 175.708734 254.259953 
L 176.150559 254.259953 
L 176.150559 253.905318 
L 178.288192 253.905318 
L 178.298446 253.196047 
L 178.643809 253.196047 
L 178.694067 252.486776 
L 178.824112 252.486776 
L 178.824112 252.132141 
L 179.624309 252.132141 
L 179.700586 251.422871 
L 179.889933 251.422871 
L 179.889933 250.004329 
L 180.382678 250.004329 
L 180.382678 248.231153 
L 181.728198 248.231153 
L 181.728198 247.876518 
L 183.277247 247.876518 
L 183.277247 247.521882 
L 183.496262 247.521882 
L 183.527342 246.457976 
L 183.658865 246.457976 
L 183.658865 246.103341 
L 183.919184 246.103341 
L 183.919184 245.748706 
L 185.047994 245.748706 
L 185.062311 244.6848 
L 185.367504 244.6848 
L 185.444788 243.975529 
L 186.507947 243.975529 
L 186.507947 243.266259 
L 187.36287 243.266259 
L 187.36287 242.911624 
L 187.583186 242.911624 
L 187.583186 242.556988 
L 187.757599 242.556988 
L 187.757599 242.202353 
L 188.022338 242.202353 
L 188.107734 241.493082 
L 188.445494 241.493082 
L 188.445494 240.783812 
L 189.401133 240.783812 
L 189.401133 240.429176 
L 190.180191 240.429176 
L 190.180191 240.074541 
L 190.701648 240.074541 
L 190.701648 239.719906 
L 191.157358 239.719906 
L 191.178047 239.010635 
L 191.813376 239.010635 
L 191.848327 238.301365 
L 192.199216 238.301365 
L 192.199216 237.946729 
L 192.509998 237.946729 
L 192.586897 236.528188 
L 192.938525 236.528188 
L 192.938525 236.173553 
L 193.375915 236.173553 
L 193.375915 235.818918 
L 194.062346 235.818918 
L 194.062346 235.464282 
L 194.278396 235.464282 
L 194.278396 234.755012 
L 194.780182 234.755012 
L 194.780182 234.400376 
L 196.893616 234.400376 
L 196.893616 234.045741 
L 197.494315 234.045741 
L 197.494315 233.691106 
L 197.802167 233.691106 
L 197.802167 233.336471 
L 198.076424 233.336471 
L 198.076424 232.981835 
L 198.585353 232.981835 
L 198.585353 231.917929 
L 198.865689 231.917929 
L 198.865689 231.563294 
L 199.023052 231.563294 
L 199.023052 231.208659 
L 199.283552 231.208659 
L 199.283552 230.854024 
L 199.982677 230.854024 
L 199.982677 230.499388 
L 200.578503 230.499388 
L 200.581639 229.790118 
L 201.508564 229.790118 
L 201.508564 229.435482 
L 201.666108 229.435482 
L 201.666108 228.016941 
L 202.087608 228.016941 
L 202.087608 227.662306 
L 204.353715 227.662306 
L 204.353715 227.307671 
L 204.535027 227.307671 
L 204.618707 225.889129 
L 206.632302 225.889129 
L 206.632302 225.179859 
L 207.426851 225.179859 
L 207.426851 224.825224 
L 208.040023 224.825224 
L 208.040023 224.470588 
L 211.56166 224.470588 
L 211.633243 223.761318 
L 211.841203 223.761318 
L 211.910016 223.052047 
L 212.50495 223.052047 
L 212.50495 222.697412 
L 212.663992 222.697412 
L 212.663992 222.342776 
L 212.929363 222.342776 
L 212.929363 221.988141 
L 213.235905 221.988141 
L 213.235905 221.633506 
L 213.728688 221.633506 
L 213.790942 220.924235 
L 214.534301 220.924235 
L 214.534301 220.5696 
L 214.759965 220.5696 
L 214.759965 220.214965 
L 216.289857 220.214965 
L 216.322481 219.505694 
L 217.038018 219.505694 
L 217.038018 219.151059 
L 218.667644 219.151059 
L 218.667644 218.796424 
L 218.953214 218.796424 
L 218.981534 218.087153 
L 219.64873 218.087153 
L 219.64873 217.732518 
L 223.9404 217.732518 
L 223.9404 217.377882 
L 225.910705 217.377882 
L 225.96203 216.668612 
L 226.033489 216.668612 
L 226.033489 215.959341 
L 226.733535 215.959341 
L 226.733535 215.604706 
L 228.21149 215.604706 
L 228.21149 215.250071 
L 228.576802 215.250071 
L 228.576802 214.895435 
L 229.411839 214.895435 
L 229.411839 214.5408 
L 231.340594 214.5408 
L 231.340594 214.186165 
L 231.507944 214.186165 
L 231.507944 213.831529 
L 234.494281 213.831529 
L 234.494281 213.476894 
L 239.163221 213.476894 
L 239.163221 213.122259 
L 241.48133 213.122259 
L 241.48133 212.767624 
L 247.75085 212.767624 
L 247.75085 212.412988 
L 249.020247 212.412988 
L 249.020247 212.058353 
L 249.253079 212.058353 
L 249.253079 211.703718 
L 251.526357 211.703718 
L 251.628504 210.994447 
L 252.324 210.994447 
L 252.324 210.639812 
L 252.913709 210.639812 
L 252.913709 210.285176 
L 254.049914 210.285176 
L 254.147815 209.575906 
L 260.179838 209.575906 
L 260.179838 209.221271 
L 261.522618 209.221271 
L 261.522618 208.866635 
L 261.658383 208.866635 
L 261.658383 208.512 
L 270.082673 208.512 
L 270.082673 208.157365 
L 270.92568 208.157365 
L 270.961421 207.448094 
L 271.568729 207.448094 
L 271.612399 204.965647 
L 271.771897 204.965647 
L 271.771897 204.611012 
L 272.545542 204.611012 
L 272.586526 203.901741 
L 274.304108 203.901741 
L 274.353183 202.128565 
L 274.419346 202.128565 
L 274.52385 198.582212 
L 274.548457 198.582212 
L 274.63653 195.745129 
L 274.687858 195.745129 
L 274.70963 195.035859 
L 274.841008 195.035859 
L 274.949643 192.908047 
L 275.023637 192.908047 
L 275.057235 192.198776 
L 275.742925 192.198776 
L 275.772383 191.489506 
L 278.610509 191.489506 
L 278.610509 191.134871 
L 279.111238 191.134871 
L 279.111238 190.780235 
L 279.724338 190.780235 
L 279.724338 190.4256 
L 281.978892 190.4256 
L 281.978892 190.070965 
L 285.279629 190.070965 
L 285.279629 189.007059 
L 285.956674 189.007059 
L 285.956674 187.943153 
L 286.43722 187.943153 
L 286.43722 187.588518 
L 287.279338 187.588518 
L 287.389904 185.460706 
L 287.413372 185.460706 
L 287.483882 181.205082 
L 287.549354 181.205082 
L 287.643767 177.304094 
L 288.014947 177.304094 
L 288.030295 176.594824 
L 288.16432 176.594824 
L 288.16432 176.240188 
L 289.392637 176.240188 
L 289.392637 175.885553 
L 294.013025 175.885553 
L 294.013025 175.176282 
L 294.314664 175.176282 
L 294.314664 174.821647 
L 294.885402 174.821647 
L 294.974966 171.984565 
L 294.997369 171.984565 
L 295.086712 168.792847 
L 295.140958 168.792847 
L 295.140958 168.438212 
L 299.311459 168.438212 
L 299.311459 168.083576 
L 299.492889 168.083576 
L 299.492889 167.728941 
L 299.85979 167.728941 
L 299.869393 167.019671 
L 300.353709 167.019671 
L 300.437727 164.537224 
L 300.684811 164.537224 
L 300.684811 164.182588 
L 303.958682 164.182588 
L 303.958682 163.827953 
L 304.502073 163.827953 
L 304.60932 159.572329 
L 307.258464 159.572329 
L 307.258464 159.217694 
L 307.924473 159.217694 
L 308.012947 153.898165 
L 310.557143 153.898165 
L 310.557143 153.543529 
L 310.838432 153.543529 
L 310.894078 150.706447 
L 311.681613 150.706447 
L 311.681613 150.351812 
L 312.986703 150.351812 
L 312.986703 149.997176 
L 313.343269 149.997176 
L 313.391987 146.096188 
L 313.986014 146.096188 
L 313.986014 145.741553 
L 315.55343 145.741553 
L 315.596754 142.1952 
L 317.531007 142.1952 
L 317.570012 138.648847 
L 319.326468 138.648847 
L 319.351022 135.811765 
L 320.95413 135.811765 
L 320.980443 133.329318 
L 322.457307 133.329318 
L 322.478677 131.910776 
L 323.849207 131.910776 
L 323.869768 130.492235 
L 324.871776 130.492235 
L 324.871776 130.1376 
L 325.145175 130.1376 
L 325.164368 129.073694 
L 326.357587 129.073694 
L 326.37871 127.300518 
L 327.496567 127.300518 
L 327.519541 123.754165 
L 328.577185 123.754165 
L 328.585948 122.690259 
L 329.603063 122.690259 
L 329.603063 122.335624 
L 330.550288 122.335624 
L 330.550288 121.271718 
L 331.470381 121.271718 
L 331.48326 119.498541 
L 332.15535 119.498541 
L 332.15535 119.143906 
L 332.344486 119.143906 
L 332.354392 118.434635 
L 333.179773 118.434635 
L 333.189248 116.306824 
L 333.990813 116.306824 
L 333.990813 115.952188 
L 334.743984 115.952188 
L 334.759615 114.533647 
L 335.323834 114.533647 
L 335.323834 114.179012 
L 335.481174 114.179012 
L 335.492159 112.405835 
L 336.193067 112.405835 
L 336.193067 112.0512 
L 336.876583 112.0512 
L 336.884368 111.341929 
L 338.173337 111.341929 
L 338.173337 110.987294 
L 338.79637 110.987294 
L 338.79637 110.632659 
L 339.388081 110.632659 
L 339.388081 110.278024 
L 341.068998 110.278024 
L 341.072436 109.568753 
L 341.59862 109.568753 
L 341.6005 108.859482 
L 342.115567 108.859482 
L 342.121528 108.150212 
L 342.62238 108.150212 
L 342.62238 107.795576 
L 343.106582 107.795576 
L 343.106582 107.440941 
L 344.043772 107.440941 
L 344.051487 105.667765 
L 344.499718 105.667765 
L 344.499718 105.313129 
L 345.796758 105.313129 
L 345.796758 104.958494 
L 347.395312 104.958494 
L 347.395312 104.603859 
L 348.518234 104.603859 
L 348.518234 104.249224 
L 350.889602 104.249224 
L 350.889602 103.894588 
L 351.51445 103.894588 
L 351.51445 103.539953 
L 353.283794 103.539953 
L 353.283794 103.185318 
L 353.83189 103.185318 
L 353.83189 102.830682 
L 354.104202 102.830682 
L 354.104202 102.476047 
L 360.8064 102.476047 
L 360.8064 102.476047 
" style="fill: none; stroke: #ff7500; stroke-width: 1.5; stroke-linecap: square"/>
   </g>
   <g id="line2d_46">
    <defs>
     <path id="mc620e29a56" d="M 0 -6 
L -1.347084 -1.854102 
L -5.706339 -1.854102 
L -2.179628 0.708204 
L -3.526712 4.854102 
L -0 2.291796 
L 3.526712 4.854102 
L 2.179628 0.708204 
L 5.706339 -1.854102 
L 1.347084 -1.854102 
z
" style="stroke: #ff7500; stroke-width: 1.5; stroke-linejoin: bevel"/>
    </defs>
    <g>
     <use xlink:href="#mc620e29a56" x="160.276577" y="271.282447" style="fill-opacity: 0; stroke: #ff7500; stroke-width: 1.5; stroke-linejoin: bevel"/>
     <use xlink:href="#mc620e29a56" x="239.163221" y="213.476894" style="fill-opacity: 0; stroke: #ff7500; stroke-width: 1.5; stroke-linejoin: bevel"/>
     <use xlink:href="#mc620e29a56" x="294.997369" y="170.920659" style="fill-opacity: 0; stroke: #ff7500; stroke-width: 1.5; stroke-linejoin: bevel"/>
     <use xlink:href="#mc620e29a56" x="354.104202" y="102.476047" style="fill-opacity: 0; stroke: #ff7500; stroke-width: 1.5; stroke-linejoin: bevel"/>
     <use xlink:href="#mc620e29a56" x="360.8064" y="102.476047" style="fill-opacity: 0; stroke: #ff7500; stroke-width: 1.5; stroke-linejoin: bevel"/>
    </g>
   </g>
   <g id="line2d_47">
    <path style="fill: none; stroke: #ff7500; stroke-width: 1.5; stroke-linecap: square"/>
    <g/>
   </g>
   <g id="line2d_48">
    <path d="M 274.176 203.901741 
" clip-path="url(#p12f191053d)" style="fill: none; stroke: #ff7500; stroke-width: 1.5; stroke-linecap: square"/>
    <defs>
     <path id="mb17f38ca16" d="M -12 12 
L 12 -12 
M -12 -12 
L 12 12 
" style="stroke: #ff7500"/>
    </defs>
    <g clip-path="url(#p12f191053d)">
     <use xlink:href="#mb17f38ca16" x="274.176" y="203.901741" style="fill: #ff7500; stroke: #ff7500"/>
    </g>
   </g>
   <g id="line2d_49">
    <defs>
     <path id="mdbb2c4c4a0" d="M 0 1.5 
C 0.397805 1.5 0.77937 1.341951 1.06066 1.06066 
C 1.341951 0.77937 1.5 0.397805 1.5 0 
C 1.5 -0.397805 1.341951 -0.77937 1.06066 -1.06066 
C 0.77937 -1.341951 0.397805 -1.5 0 -1.5 
C -0.397805 -1.5 -0.77937 -1.341951 -1.06066 -1.06066 
C -1.341951 -0.77937 -1.5 -0.397805 -1.5 0 
C -1.5 0.397805 -1.341951 0.77937 -1.06066 1.06066 
C -0.77937 1.341951 -0.397805 1.5 0 1.5 
z
" style="stroke: #6495ed"/>
    </defs>
    <g>
     <use xlink:href="#mdbb2c4c4a0" x="315.011717" y="187.233882" style="fill: #6495ed; stroke: #6495ed"/>
     <use xlink:href="#mdbb2c4c4a0" x="315.011717" y="187.233882" style="fill: #6495ed; stroke: #6495ed"/>
    </g>
   </g>
   <g id="line2d_50">
    <path d="M 121.789667 298.944 
L 121.789667 297.880094 
L 134.304809 297.880094 
L 134.304809 297.170824 
L 135.136394 297.170824 
L 135.136394 296.816188 
L 135.538796 296.816188 
L 135.538796 296.106918 
L 135.835047 296.106918 
L 135.932769 294.688376 
L 136.029987 294.688376 
L 136.126705 292.9152 
L 136.222928 292.9152 
L 136.318661 291.851294 
L 136.413909 291.851294 
L 136.508678 291.142024 
L 136.602972 291.142024 
L 136.602972 290.787388 
L 142.45627 290.787388 
L 142.45627 290.432753 
L 142.932537 290.432753 
L 142.932537 289.723482 
L 143.265494 289.723482 
L 143.265494 288.304941 
L 143.397043 288.304941 
L 143.397043 287.950306 
L 143.592659 287.950306 
L 143.657415 286.531765 
L 143.721949 286.531765 
L 143.721949 285.822494 
L 143.977892 285.822494 
L 143.977892 285.467859 
L 144.16759 285.467859 
L 144.16759 285.113224 
L 146.804934 285.113224 
L 146.804934 284.758588 
L 148.226342 284.758588 
L 148.226342 284.049318 
L 148.726679 284.049318 
L 148.726679 283.340047 
L 148.971944 283.340047 
L 148.971944 282.985412 
L 153.536404 282.985412 
L 153.536404 282.276141 
L 153.688725 282.276141 
L 153.688725 281.921506 
L 153.802162 281.921506 
L 153.802162 281.566871 
L 156.205398 281.566871 
L 156.205398 281.212235 
L 156.53428 281.212235 
L 156.53428 280.8576 
L 156.664239 280.8576 
L 156.664239 280.502965 
L 159.513105 280.502965 
L 159.624087 279.439059 
L 159.844108 279.439059 
L 159.844108 279.084424 
L 161.642011 279.084424 
L 161.716414 278.375153 
L 161.986735 278.375153 
L 161.986735 277.665882 
L 164.063646 277.665882 
L 164.063646 277.311247 
L 164.750119 277.311247 
L 164.750119 276.956612 
L 165.993131 276.956612 
L 165.993131 276.601976 
L 166.784704 276.601976 
L 166.784704 276.247341 
L 167.343504 276.247341 
L 167.343504 275.892706 
L 168.517384 275.892706 
L 168.517384 275.183435 
L 169.111393 275.183435 
L 169.111393 274.8288 
L 172.087425 274.8288 
L 172.087425 274.474165 
L 174.531491 274.474165 
L 174.531491 273.764894 
L 174.706019 273.764894 
L 174.706019 273.055624 
L 174.854337 273.055624 
L 174.854337 272.700988 
L 176.794427 272.700988 
L 176.794427 272.346353 
L 177.862878 272.346353 
L 177.88385 271.282447 
L 178.009191 271.282447 
L 178.102652 270.573176 
L 179.814423 270.573176 
L 179.871084 269.509271 
L 180.6107 269.509271 
L 180.6107 269.154635 
L 180.800125 269.154635 
L 180.800125 268.8 
L 181.651154 268.8 
L 181.651154 268.445365 
L 183.64344 268.445365 
L 183.64344 268.090729 
L 183.781817 268.090729 
L 183.81243 267.026824 
L 184.369962 267.026824 
L 184.369962 266.672188 
L 184.773895 266.672188 
L 184.773895 266.317553 
L 190.865296 266.317553 
L 190.865296 265.962918 
L 191.480598 265.962918 
L 191.480598 265.608282 
L 192.519627 265.608282 
L 192.519627 265.253647 
L 193.204963 265.253647 
L 193.204963 264.899012 
L 193.458522 264.899012 
L 193.458522 264.544376 
L 193.762857 264.544376 
L 193.762857 264.189741 
L 196.441885 264.189741 
L 196.441885 263.480471 
L 197.420268 263.480471 
L 197.420268 263.125835 
L 200.147055 263.125835 
L 200.147055 262.7712 
L 202.55642 262.7712 
L 202.55642 262.416565 
L 202.803243 262.416565 
L 202.803243 262.061929 
L 203.38219 262.061929 
L 203.38219 261.707294 
L 203.666447 261.707294 
L 203.666447 261.352659 
L 204.917409 261.352659 
L 204.952241 260.288753 
L 205.408985 260.288753 
L 205.442919 258.870212 
L 205.769417 258.870212 
L 205.769417 258.515576 
L 205.909316 258.515576 
L 206.005924 257.451671 
L 206.211619 257.451671 
L 206.211619 256.7424 
L 206.849283 256.7424 
L 206.849283 256.033129 
L 207.052677 256.033129 
L 207.052677 255.678494 
L 207.339477 255.678494 
L 207.339477 254.614588 
L 207.505142 254.614588 
L 207.505142 254.259953 
L 207.710192 254.259953 
L 207.710192 253.905318 
L 207.89816 253.905318 
L 207.934257 251.777506 
L 208.132608 251.777506 
L 208.132608 251.422871 
L 208.3185 251.422871 
L 208.3185 250.358965 
L 208.547799 250.358965 
L 208.633837 249.649694 
L 209.137982 249.649694 
L 209.171778 248.940424 
L 209.280705 248.940424 
L 209.280705 247.876518 
L 209.605691 247.876518 
L 209.628968 246.812612 
L 209.758404 246.812612 
L 209.758404 246.457976 
L 210.008935 246.457976 
L 210.012734 245.748706 
L 210.179142 245.748706 
L 210.201721 245.039435 
L 210.429742 245.039435 
L 210.513156 243.620894 
L 210.757548 243.620894 
L 210.84861 242.911624 
L 210.893977 242.911624 
L 210.917524 241.847718 
L 211.007817 241.847718 
L 211.045611 241.138447 
L 211.364715 241.138447 
L 211.364715 240.783812 
L 211.714968 240.783812 
L 211.714968 240.429176 
L 213.730247 240.429176 
L 213.730247 240.074541 
L 213.941057 240.074541 
L 213.941057 239.719906 
L 214.208891 239.719906 
L 214.208891 239.365271 
L 214.484949 239.365271 
L 214.484949 239.010635 
L 214.622216 239.010635 
L 214.728949 238.301365 
L 215.419731 238.301365 
L 215.517794 236.882824 
L 215.578647 236.882824 
L 215.626625 236.173553 
L 215.906398 236.173553 
L 215.906398 235.818918 
L 216.201217 235.818918 
L 216.272163 234.755012 
L 216.394325 234.755012 
L 216.394325 234.400376 
L 216.52645 234.400376 
L 216.614912 232.981835 
L 216.660321 232.981835 
L 216.660321 232.272565 
L 216.795896 232.272565 
L 216.858039 231.208659 
L 216.977779 231.208659 
L 216.977779 229.435482 
L 217.189073 229.435482 
L 217.253811 228.726212 
L 217.331204 228.726212 
L 217.400586 228.016941 
L 217.532221 228.016941 
L 217.532221 227.662306 
L 217.700845 227.662306 
L 217.700845 227.307671 
L 217.874224 227.307671 
L 217.874224 226.953035 
L 218.075739 226.953035 
L 218.075739 226.5984 
L 219.232187 226.5984 
L 219.232187 226.243765 
L 220.830765 226.243765 
L 220.873465 225.179859 
L 220.979794 225.179859 
L 220.979794 224.825224 
L 221.707725 224.825224 
L 221.707725 224.115953 
L 222.868678 224.115953 
L 222.950971 223.406682 
L 223.084171 223.406682 
L 223.178739 222.697412 
L 223.272835 222.697412 
L 223.272835 222.342776 
L 226.197304 222.342776 
L 226.197304 221.988141 
L 226.357315 221.988141 
L 226.357315 221.633506 
L 226.829339 221.633506 
L 226.829339 220.924235 
L 227.440828 220.924235 
L 227.440828 220.5696 
L 229.746792 220.5696 
L 229.746792 220.214965 
L 243.823318 220.214965 
L 243.823318 219.860329 
L 244.774746 219.860329 
L 244.774746 219.505694 
L 245.334954 219.505694 
L 245.334954 219.151059 
L 245.878959 219.151059 
L 245.878959 218.796424 
L 254.400144 218.796424 
L 254.400144 218.441788 
L 255.339403 218.441788 
L 255.378448 217.732518 
L 255.746637 217.732518 
L 255.853561 217.023247 
L 255.859373 217.023247 
L 255.969456 215.959341 
L 256.015451 215.959341 
L 256.095138 214.5408 
L 256.130356 214.5408 
L 256.187383 212.767624 
L 256.570139 212.767624 
L 256.587397 212.058353 
L 256.919857 212.058353 
L 256.959204 209.575906 
L 257.5025 209.575906 
L 257.5025 209.221271 
L 262.328896 209.221271 
L 262.328896 208.866635 
L 267.509161 208.866635 
L 267.509161 208.512 
L 267.759349 208.512 
L 267.790632 207.802729 
L 267.871726 207.802729 
L 267.914022 206.738824 
L 268.159782 206.738824 
L 268.220982 206.029553 
L 268.348258 206.029553 
L 268.348258 205.674918 
L 269.04013 205.674918 
L 269.04013 205.320282 
L 271.963516 205.320282 
L 271.963516 204.965647 
L 274.999705 204.965647 
L 275.100267 203.192471 
L 275.174267 203.192471 
L 275.266685 202.4832 
L 275.387248 202.4832 
L 275.40711 200.710024 
L 280.228755 200.710024 
L 280.27429 200.000753 
L 280.445496 200.000753 
L 280.51931 198.582212 
L 284.247874 198.582212 
L 284.357827 197.163671 
L 284.473454 197.163671 
L 284.534256 195.745129 
L 287.666279 195.745129 
L 287.688152 194.681224 
L 287.793885 194.681224 
L 287.841254 193.971953 
L 289.205755 193.971953 
L 289.205755 193.617318 
L 290.509361 193.617318 
L 290.530981 192.553412 
L 292.972493 192.553412 
L 292.982349 191.844141 
L 293.102596 191.844141 
L 293.102596 191.489506 
L 295.160122 191.489506 
L 295.264973 190.4256 
L 297.105806 190.4256 
L 297.105806 190.070965 
L 298.871626 190.070965 
L 298.871626 189.716329 
L 302.056542 189.716329 
L 302.056542 189.361694 
L 304.711495 189.361694 
L 304.711495 189.007059 
L 308.043549 189.007059 
L 308.100378 187.943153 
L 312.654234 187.943153 
L 312.654234 187.588518 
L 315.011717 187.588518 
L 315.011717 187.233882 
L 360.8064 187.233882 
L 360.8064 187.233882 
" style="fill: none; stroke: #6495ed; stroke-width: 1.5; stroke-linecap: square"/>
   </g>
   <g id="line2d_51">
    <defs>
     <path id="mf134999e0e" d="M -0 6 
L 6 -6 
L -6 -6 
z
" style="stroke: #6495ed; stroke-width: 1.5; stroke-linejoin: miter"/>
    </defs>
    <g>
     <use xlink:href="#mf134999e0e" x="210.513156" y="243.620894" style="fill-opacity: 0; stroke: #6495ed; stroke-width: 1.5; stroke-linejoin: miter"/>
     <use xlink:href="#mf134999e0e" x="271.963516" y="204.965647" style="fill-opacity: 0; stroke: #6495ed; stroke-width: 1.5; stroke-linejoin: miter"/>
     <use xlink:href="#mf134999e0e" x="315.011717" y="187.233882" style="fill-opacity: 0; stroke: #6495ed; stroke-width: 1.5; stroke-linejoin: miter"/>
     <use xlink:href="#mf134999e0e" x="315.011717" y="187.233882" style="fill-opacity: 0; stroke: #6495ed; stroke-width: 1.5; stroke-linejoin: miter"/>
     <use xlink:href="#mf134999e0e" x="360.8064" y="187.233882" style="fill-opacity: 0; stroke: #6495ed; stroke-width: 1.5; stroke-linejoin: miter"/>
    </g>
   </g>
   <g id="line2d_52">
    <path style="fill: none; stroke: #6495ed; stroke-width: 1.5; stroke-linecap: square"/>
    <g/>
   </g>
   <g id="line2d_53">
    <path d="M 253.518049 218.796424 
" clip-path="url(#p12f191053d)" style="fill: none; stroke: #6495ed; stroke-width: 1.5; stroke-linecap: square"/>
    <defs>
     <path id="mdc1a4894c2" d="M -12 12 
L 12 -12 
M -12 -12 
L 12 12 
" style="stroke: #6495ed"/>
    </defs>
    <g clip-path="url(#p12f191053d)">
     <use xlink:href="#mdc1a4894c2" x="253.518049" y="218.796424" style="fill: #6495ed; stroke: #6495ed"/>
    </g>
   </g>
   <g id="line2d_54">
    <path d="M 360.8064 187.233882 
L 380.514816 293.51808 
" style="fill: none; stroke: #6495ed; stroke-width: 1.5; stroke-linecap: square"/>
    <g>
     <use xlink:href="#mf134999e0e" x="360.8064" y="187.233882" style="fill-opacity: 0; stroke: #6495ed; stroke-width: 1.5; stroke-linejoin: miter"/>
     <use xlink:href="#mf134999e0e" x="380.514816" y="293.51808" style="fill-opacity: 0; stroke: #6495ed; stroke-width: 1.5; stroke-linejoin: miter"/>
    </g>
   </g>
   <g id="line2d_55">
    <path d="M 360.8064 155.316706 
L 380.514816 228.40704 
" style="fill: none; stroke: #ff00ff; stroke-width: 1.5; stroke-linecap: square"/>
    <g>
     <use xlink:href="#md193ef3494" x="360.8064" y="155.316706" style="fill-opacity: 0; stroke: #ff00ff; stroke-width: 1.5; stroke-linejoin: miter"/>
     <use xlink:href="#md193ef3494" x="380.514816" y="228.40704" style="fill-opacity: 0; stroke: #ff00ff; stroke-width: 1.5; stroke-linejoin: miter"/>
    </g>
   </g>
   <g id="line2d_56">
    <path d="M 360.8064 149.997176 
L 380.514816 163.296 
" style="fill: none; stroke: #000080; stroke-width: 1.5; stroke-linecap: square"/>
    <g>
     <use xlink:href="#m7b1cd22466" x="360.8064" y="149.997176" style="fill-opacity: 0; stroke: #000080; stroke-width: 1.5"/>
     <use xlink:href="#m7b1cd22466" x="380.514816" y="163.296" style="fill-opacity: 0; stroke: #000080; stroke-width: 1.5"/>
    </g>
   </g>
   <g id="line2d_57">
    <path d="M 360.8064 102.476047 
L 380.514816 98.18496 
" style="fill: none; stroke: #ff7500; stroke-width: 1.5; stroke-linecap: square"/>
    <g>
     <use xlink:href="#mc620e29a56" x="360.8064" y="102.476047" style="fill-opacity: 0; stroke: #ff7500; stroke-width: 1.5; stroke-linejoin: bevel"/>
     <use xlink:href="#mc620e29a56" x="380.514816" y="98.18496" style="fill-opacity: 0; stroke: #ff7500; stroke-width: 1.5; stroke-linejoin: bevel"/>
    </g>
   </g>
   <g id="line2d_58">
    <path d="M 360.8064 298.944 
L 360.8064 27.648 
" style="fill: none; stroke: #000000; stroke-width: 1.5; stroke-linecap: square"/>
   </g>
   <g id="patch_3">
    <path d="M 57.6 298.944 
L 360.8064 298.944 
" style="fill: none; stroke: #000000; stroke-width: 0.8; stroke-linejoin: miter; stroke-linecap: square"/>
   </g>
   <g id="patch_4">
    <path d="M 57.6 27.648 
L 360.8064 27.648 
" style="fill: none; stroke: #000000; stroke-width: 0.8; stroke-linejoin: miter; stroke-linecap: square"/>
   </g>
   <g id="text_13">
    <!-- EvoSpace- -->
    <g transform="translate(386.578944 297.381205)scale(0.14 -0.14)">
     <defs>
      <path id="DejaVuSans-45" d="M 628 4666 
L 3578 4666 
L 3578 4134 
L 1259 4134 
L 1259 2753 
L 3481 2753 
L 3481 2222 
L 1259 2222 
L 1259 531 
L 3634 531 
L 3634 0 
L 628 0 
L 628 4666 
z
" transform="scale(0.015625)"/>
      <path id="DejaVuSans-53" d="M 3425 4513 
L 3425 3897 
Q 3066 4069 2747 4153 
Q 2428 4238 2131 4238 
Q 1616 4238 1336 4038 
Q 1056 3838 1056 3469 
Q 1056 3159 1242 3001 
Q 1428 2844 1947 2747 
L 2328 2669 
Q 3034 2534 3370 2195 
Q 3706 1856 3706 1288 
Q 3706 609 3251 259 
Q 2797 -91 1919 -91 
Q 1588 -91 1214 -16 
Q 841 59 441 206 
L 441 856 
Q 825 641 1194 531 
Q 1563 422 1919 422 
Q 2459 422 2753 634 
Q 3047 847 3047 1241 
Q 3047 1584 2836 1778 
Q 2625 1972 2144 2069 
L 1759 2144 
Q 1053 2284 737 2584 
Q 422 2884 422 3419 
Q 422 4038 858 4394 
Q 1294 4750 2059 4750 
Q 2388 4750 2728 4690 
Q 3069 4631 3425 4513 
z
" transform="scale(0.015625)"/>
     </defs>
     <use xlink:href="#DejaVuSans-45"/>
     <use xlink:href="#DejaVuSans-76" x="63.183594"/>
     <use xlink:href="#DejaVuSans-6f" x="122.363281"/>
     <use xlink:href="#DejaVuSans-53" x="183.544922"/>
     <use xlink:href="#DejaVuSans-70" x="247.021484"/>
     <use xlink:href="#DejaVuSans-61" x="310.498047"/>
     <use xlink:href="#DejaVuSans-63" x="371.777344"/>
     <use xlink:href="#DejaVuSans-65" x="426.757812"/>
     <use xlink:href="#DejaVuSans-2d" x="488.28125"/>
    </g>
   </g>
   <g id="text_14">
    <!-- GA -->
    <g transform="translate(386.578944 232.270165)scale(0.14 -0.14)">
     <defs>
      <path id="DejaVuSans-47" d="M 3809 666 
L 3809 1919 
L 2778 1919 
L 2778 2438 
L 4434 2438 
L 4434 434 
Q 4069 175 3628 42 
Q 3188 -91 2688 -91 
Q 1594 -91 976 548 
Q 359 1188 359 2328 
Q 359 3472 976 4111 
Q 1594 4750 2688 4750 
Q 3144 4750 3555 4637 
Q 3966 4525 4313 4306 
L 4313 3634 
Q 3963 3931 3569 4081 
Q 3175 4231 2741 4231 
Q 1884 4231 1454 3753 
Q 1025 3275 1025 2328 
Q 1025 1384 1454 906 
Q 1884 428 2741 428 
Q 3075 428 3337 486 
Q 3600 544 3809 666 
z
" transform="scale(0.015625)"/>
      <path id="DejaVuSans-41" d="M 2188 4044 
L 1331 1722 
L 3047 1722 
L 2188 4044 
z
M 1831 4666 
L 2547 4666 
L 4325 0 
L 3669 0 
L 3244 1197 
L 1141 1197 
L 716 0 
L 50 0 
L 1831 4666 
z
" transform="scale(0.015625)"/>
     </defs>
     <use xlink:href="#DejaVuSans-47"/>
     <use xlink:href="#DejaVuSans-41" x="77.490234"/>
    </g>
   </g>
   <g id="text_15">
    <!-- LCGA -->
    <g transform="translate(386.578944 167.159125)scale(0.14 -0.14)">
     <defs>
      <path id="DejaVuSans-4c" d="M 628 4666 
L 1259 4666 
L 1259 531 
L 3531 531 
L 3531 0 
L 628 0 
L 628 4666 
z
" transform="scale(0.015625)"/>
      <path id="DejaVuSans-43" d="M 4122 4306 
L 4122 3641 
Q 3803 3938 3442 4084 
Q 3081 4231 2675 4231 
Q 1875 4231 1450 3742 
Q 1025 3253 1025 2328 
Q 1025 1406 1450 917 
Q 1875 428 2675 428 
Q 3081 428 3442 575 
Q 3803 722 4122 1019 
L 4122 359 
Q 3791 134 3420 21 
Q 3050 -91 2638 -91 
Q 1578 -91 968 557 
Q 359 1206 359 2328 
Q 359 3453 968 4101 
Q 1578 4750 2638 4750 
Q 3056 4750 3426 4639 
Q 3797 4528 4122 4306 
z
" transform="scale(0.015625)"/>
     </defs>
     <use xlink:href="#DejaVuSans-4c"/>
     <use xlink:href="#DejaVuSans-43" x="55.712891"/>
     <use xlink:href="#DejaVuSans-47" x="125.537109"/>
     <use xlink:href="#DejaVuSans-41" x="203.027344"/>
    </g>
   </g>
   <g id="text_16">
    <!-- PSO -->
    <g transform="translate(386.578944 102.048085)scale(0.14 -0.14)">
     <defs>
      <path id="DejaVuSans-50" d="M 1259 4147 
L 1259 2394 
L 2053 2394 
Q 2494 2394 2734 2622 
Q 2975 2850 2975 3272 
Q 2975 3691 2734 3919 
Q 2494 4147 2053 4147 
L 1259 4147 
z
M 628 4666 
L 2053 4666 
Q 2838 4666 3239 4311 
Q 3641 3956 3641 3272 
Q 3641 2581 3239 2228 
Q 2838 1875 2053 1875 
L 1259 1875 
L 1259 0 
L 628 0 
L 628 4666 
z
" transform="scale(0.015625)"/>
      <path id="DejaVuSans-4f" d="M 2522 4238 
Q 1834 4238 1429 3725 
Q 1025 3213 1025 2328 
Q 1025 1447 1429 934 
Q 1834 422 2522 422 
Q 3209 422 3611 934 
Q 4013 1447 4013 2328 
Q 4013 3213 3611 3725 
Q 3209 4238 2522 4238 
z
M 2522 4750 
Q 3503 4750 4090 4092 
Q 4678 3434 4678 2328 
Q 4678 1225 4090 567 
Q 3503 -91 2522 -91 
Q 1538 -91 948 565 
Q 359 1222 359 2328 
Q 359 3434 948 4092 
Q 1538 4750 2522 4750 
z
" transform="scale(0.015625)"/>
     </defs>
     <use xlink:href="#DejaVuSans-50"/>
     <use xlink:href="#DejaVuSans-53" x="60.302734"/>
     <use xlink:href="#DejaVuSans-4f" x="123.779297"/>
    </g>
   </g>
   <g id="text_17">
    <!-- best 2009 -->
    <g transform="translate(386.578944 36.937045)scale(0.14 -0.14)">
     <defs>
      <path id="DejaVuSans-62" d="M 3116 1747 
Q 3116 2381 2855 2742 
Q 2594 3103 2138 3103 
Q 1681 3103 1420 2742 
Q 1159 2381 1159 1747 
Q 1159 1113 1420 752 
Q 1681 391 2138 391 
Q 2594 391 2855 752 
Q 3116 1113 3116 1747 
z
M 1159 2969 
Q 1341 3281 1617 3432 
Q 1894 3584 2278 3584 
Q 2916 3584 3314 3078 
Q 3713 2572 3713 1747 
Q 3713 922 3314 415 
Q 2916 -91 2278 -91 
Q 1894 -91 1617 61 
Q 1341 213 1159 525 
L 1159 0 
L 581 0 
L 581 4863 
L 1159 4863 
L 1159 2969 
z
" transform="scale(0.015625)"/>
      <path id="DejaVuSans-39" d="M 703 97 
L 703 672 
Q 941 559 1184 500 
Q 1428 441 1663 441 
Q 2288 441 2617 861 
Q 2947 1281 2994 2138 
Q 2813 1869 2534 1725 
Q 2256 1581 1919 1581 
Q 1219 1581 811 2004 
Q 403 2428 403 3163 
Q 403 3881 828 4315 
Q 1253 4750 1959 4750 
Q 2769 4750 3195 4129 
Q 3622 3509 3622 2328 
Q 3622 1225 3098 567 
Q 2575 -91 1691 -91 
Q 1453 -91 1209 -44 
Q 966 3 703 97 
z
M 1959 2075 
Q 2384 2075 2632 2365 
Q 2881 2656 2881 3163 
Q 2881 3666 2632 3958 
Q 2384 4250 1959 4250 
Q 1534 4250 1286 3958 
Q 1038 3666 1038 3163 
Q 1038 2656 1286 2365 
Q 1534 2075 1959 2075 
z
" transform="scale(0.015625)"/>
     </defs>
     <use xlink:href="#DejaVuSans-62"/>
     <use xlink:href="#DejaVuSans-65" x="63.476562"/>
     <use xlink:href="#DejaVuSans-73" x="125"/>
     <use xlink:href="#DejaVuSans-74" x="177.099609"/>
     <use xlink:href="#DejaVuSans-20" x="216.308594"/>
     <use xlink:href="#DejaVuSans-32" x="248.095703"/>
     <use xlink:href="#DejaVuSans-30" x="311.71875"/>
     <use xlink:href="#DejaVuSans-30" x="375.341797"/>
     <use xlink:href="#DejaVuSans-39" x="438.964844"/>
    </g>
   </g>
   <g id="text_18">
    <!-- bbob f13, 3-D -->
    <g transform="translate(60.632064 38.111366)scale(0.102 -0.102)">
     <defs>
      <path id="DejaVuSans-33" d="M 2597 2516 
Q 3050 2419 3304 2112 
Q 3559 1806 3559 1356 
Q 3559 666 3084 287 
Q 2609 -91 1734 -91 
Q 1441 -91 1130 -33 
Q 819 25 488 141 
L 488 750 
Q 750 597 1062 519 
Q 1375 441 1716 441 
Q 2309 441 2620 675 
Q 2931 909 2931 1356 
Q 2931 1769 2642 2001 
Q 2353 2234 1838 2234 
L 1294 2234 
L 1294 2753 
L 1863 2753 
Q 2328 2753 2575 2939 
Q 2822 3125 2822 3475 
Q 2822 3834 2567 4026 
Q 2313 4219 1838 4219 
Q 1578 4219 1281 4162 
Q 984 4106 628 3988 
L 628 4550 
Q 988 4650 1302 4700 
Q 1616 4750 1894 4750 
Q 2613 4750 3031 4423 
Q 3450 4097 3450 3541 
Q 3450 3153 3228 2886 
Q 3006 2619 2597 2516 
z
" transform="scale(0.015625)"/>
      <path id="DejaVuSans-44" d="M 1259 4147 
L 1259 519 
L 2022 519 
Q 2988 519 3436 956 
Q 3884 1394 3884 2338 
Q 3884 3275 3436 3711 
Q 2988 4147 2022 4147 
L 1259 4147 
z
M 628 4666 
L 1925 4666 
Q 3281 4666 3915 4102 
Q 4550 3538 4550 2338 
Q 4550 1131 3912 565 
Q 3275 0 1925 0 
L 628 0 
L 628 4666 
z
" transform="scale(0.015625)"/>
     </defs>
     <use xlink:href="#DejaVuSans-62"/>
     <use xlink:href="#DejaVuSans-62" x="63.476562"/>
     <use xlink:href="#DejaVuSans-6f" x="126.953125"/>
     <use xlink:href="#DejaVuSans-62" x="188.134766"/>
     <use xlink:href="#DejaVuSans-20" x="251.611328"/>
     <use xlink:href="#DejaVuSans-66" x="283.398438"/>
     <use xlink:href="#DejaVuSans-31" x="318.603516"/>
     <use xlink:href="#DejaVuSans-33" x="382.226562"/>
     <use xlink:href="#DejaVuSans-2c" x="445.849609"/>
     <use xlink:href="#DejaVuSans-20" x="477.636719"/>
     <use xlink:href="#DejaVuSans-33" x="509.423828"/>
     <use xlink:href="#DejaVuSans-2d" x="573.046875"/>
     <use xlink:href="#DejaVuSans-44" x="609.130859"/>
    </g>
    <!-- 51 targets: 100..1e-08 -->
    <g transform="translate(60.632064 49.533135)scale(0.102 -0.102)">
     <defs>
      <path id="DejaVuSans-35" d="M 691 4666 
L 3169 4666 
L 3169 4134 
L 1269 4134 
L 1269 2991 
Q 1406 3038 1543 3061 
Q 1681 3084 1819 3084 
Q 2600 3084 3056 2656 
Q 3513 2228 3513 1497 
Q 3513 744 3044 326 
Q 2575 -91 1722 -91 
Q 1428 -91 1123 -41 
Q 819 9 494 109 
L 494 744 
Q 775 591 1075 516 
Q 1375 441 1709 441 
Q 2250 441 2565 725 
Q 2881 1009 2881 1497 
Q 2881 1984 2565 2268 
Q 2250 2553 1709 2553 
Q 1456 2553 1204 2497 
Q 953 2441 691 2322 
L 691 4666 
z
" transform="scale(0.015625)"/>
      <path id="DejaVuSans-3a" d="M 750 794 
L 1409 794 
L 1409 0 
L 750 0 
L 750 794 
z
M 750 3309 
L 1409 3309 
L 1409 2516 
L 750 2516 
L 750 3309 
z
" transform="scale(0.015625)"/>
     </defs>
     <use xlink:href="#DejaVuSans-35"/>
     <use xlink:href="#DejaVuSans-31" x="63.623047"/>
     <use xlink:href="#DejaVuSans-20" x="127.246094"/>
     <use xlink:href="#DejaVuSans-74" x="159.033203"/>
     <use xlink:href="#DejaVuSans-61" x="198.242188"/>
     <use xlink:href="#DejaVuSans-72" x="259.521484"/>
     <use xlink:href="#DejaVuSans-67" x="298.884766"/>
     <use xlink:href="#DejaVuSans-65" x="362.361328"/>
     <use xlink:href="#DejaVuSans-74" x="423.884766"/>
     <use xlink:href="#DejaVuSans-73" x="463.09375"/>
     <use xlink:href="#DejaVuSans-3a" x="515.193359"/>
     <use xlink:href="#DejaVuSans-20" x="548.884766"/>
     <use xlink:href="#DejaVuSans-31" x="580.671875"/>
     <use xlink:href="#DejaVuSans-30" x="644.294922"/>
     <use xlink:href="#DejaVuSans-30" x="707.917969"/>
     <use xlink:href="#DejaVuSans-2e" x="771.541016"/>
     <use xlink:href="#DejaVuSans-2e" x="803.328125"/>
     <use xlink:href="#DejaVuSans-31" x="835.115234"/>
     <use xlink:href="#DejaVuSans-65" x="898.738281"/>
     <use xlink:href="#DejaVuSans-2d" x="960.261719"/>
     <use xlink:href="#DejaVuSans-30" x="996.345703"/>
     <use xlink:href="#DejaVuSans-38" x="1059.96875"/>
    </g>
    <!-- 15 instances -->
    <g transform="translate(60.632064 60.954904)scale(0.102 -0.102)">
     <use xlink:href="#DejaVuSans-31"/>
     <use xlink:href="#DejaVuSans-35" x="63.623047"/>
     <use xlink:href="#DejaVuSans-20" x="127.246094"/>
     <use xlink:href="#DejaVuSans-69" x="159.033203"/>
     <use xlink:href="#DejaVuSans-6e" x="186.816406"/>
     <use xlink:href="#DejaVuSans-73" x="250.195312"/>
     <use xlink:href="#DejaVuSans-74" x="302.294922"/>
     <use xlink:href="#DejaVuSans-61" x="341.503906"/>
     <use xlink:href="#DejaVuSans-6e" x="402.783203"/>
     <use xlink:href="#DejaVuSans-63" x="466.162109"/>
     <use xlink:href="#DejaVuSans-65" x="521.142578"/>
     <use xlink:href="#DejaVuSans-73" x="582.666016"/>
    </g>
   </g>
   <g id="text_19">
    <!-- v2.6 -->
    <g style="fill: #808080" transform="translate(198.292262 294.151352)scale(0.1 -0.1)">
     <use xlink:href="#DejaVuSans-76"/>
     <use xlink:href="#DejaVuSans-32" x="59.179688"/>
     <use xlink:href="#DejaVuSans-2e" x="122.802734"/>
     <use xlink:href="#DejaVuSans-36" x="154.589844"/>
    </g>
   </g>
   <g id="text_20">
    <!-- 13 Sharp ridge -->
    <g transform="translate(135.10945 21.648)scale(0.2 -0.2)">
     <defs>
      <path id="DejaVuSans-68" d="M 3513 2113 
L 3513 0 
L 2938 0 
L 2938 2094 
Q 2938 2591 2744 2837 
Q 2550 3084 2163 3084 
Q 1697 3084 1428 2787 
Q 1159 2491 1159 1978 
L 1159 0 
L 581 0 
L 581 4863 
L 1159 4863 
L 1159 2956 
Q 1366 3272 1645 3428 
Q 1925 3584 2291 3584 
Q 2894 3584 3203 3211 
Q 3513 2838 3513 2113 
z
" transform="scale(0.015625)"/>
     </defs>
     <use xlink:href="#DejaVuSans-31"/>
     <use xlink:href="#DejaVuSans-33" x="63.623047"/>
     <use xlink:href="#DejaVuSans-20" x="127.246094"/>
     <use xlink:href="#DejaVuSans-53" x="159.033203"/>
     <use xlink:href="#DejaVuSans-68" x="222.509766"/>
     <use xlink:href="#DejaVuSans-61" x="285.888672"/>
     <use xlink:href="#DejaVuSans-72" x="347.167969"/>
     <use xlink:href="#DejaVuSans-70" x="388.28125"/>
     <use xlink:href="#DejaVuSans-20" x="451.757812"/>
     <use xlink:href="#DejaVuSans-72" x="483.544922"/>
     <use xlink:href="#DejaVuSans-69" x="524.658203"/>
     <use xlink:href="#DejaVuSans-64" x="552.441406"/>
     <use xlink:href="#DejaVuSans-67" x="615.917969"/>
     <use xlink:href="#DejaVuSans-65" x="679.394531"/>
    </g>
   </g>
  </g>
 </g>
 <defs>
  <clipPath id="p12f191053d">
   <rect x="57.6" y="27.648" width="303.2064" height="271.296"/>
  </clipPath>
 </defs>
</svg>
