<?xml version="1.0" encoding="utf-8" standalone="no"?>
<!DOCTYPE svg PUBLIC "-//W3C//DTD SVG 1.1//EN"
  "http://www.w3.org/Graphics/SVG/1.1/DTD/svg11.dtd">
<svg xmlns:xlink="http://www.w3.org/1999/xlink" width="460.8pt" height="345.6pt" viewBox="0 0 460.8 345.6" xmlns="http://www.w3.org/2000/svg" version="1.1">
 <metadata>
  <rdf:RDF xmlns:dc="http://purl.org/dc/elements/1.1/" xmlns:cc="http://creativecommons.org/ns#" xmlns:rdf="http://www.w3.org/1999/02/22-rdf-syntax-ns#">
   <cc:Work>
    <dc:type rdf:resource="http://purl.org/dc/dcmitype/StillImage"/>
    <dc:date>2024-05-29T08:11:46.990550</dc:date>
    <dc:format>image/svg+xml</dc:format>
    <dc:creator>
     <cc:Agent>
      <dc:title>Matplotlib v3.5.1, https://matplotlib.org/</dc:title>
     </cc:Agent>
    </dc:creator>
   </cc:Work>
  </rdf:RDF>
 </metadata>
 <defs>
  <style type="text/css">*{stroke-linejoin: round; stroke-linecap: butt}</style>
 </defs>
 <g id="figure_1">
  <g id="patch_1">
   <path d="M 0 345.6 
L 460.8 345.6 
L 460.8 0 
L 0 0 
z
" style="fill: #ffffff"/>
  </g>
  <g id="axes_1">
   <g id="patch_2">
    <path d="M 57.6 298.944 
L 360.8064 298.944 
L 360.8064 27.648 
L 57.6 27.648 
z
" style="fill: #ffffff"/>
   </g>
   <g id="line2d_1">
    <path d="M 49.972572 298.944 
L 49.972572 293.624471 
L 70.639174 293.624471 
L 70.639174 288.304941 
L 80.248597 288.304941 
L 80.248597 282.985412 
L 93.287772 282.985412 
L 93.287772 277.665882 
L 102.12927 277.665882 
L 102.12927 272.346353 
L 105.36204 272.346353 
L 105.36204 267.026824 
L 106.326946 267.026824 
L 106.326946 261.707294 
L 145.385592 261.707294 
L 145.385592 256.387765 
L 146.023332 256.387765 
L 146.023332 251.068235 
L 163.076878 251.068235 
L 163.076878 245.748706 
L 163.191653 245.748706 
L 163.191653 240.429176 
L 163.282972 240.429176 
L 163.282972 224.470588 
L 163.373849 224.470588 
L 163.373849 208.512 
L 163.419123 208.512 
L 163.419123 203.192471 
L 163.486831 203.192471 
L 163.486831 187.233882 
L 163.531835 187.233882 
L 163.531835 176.594824 
L 163.59914 176.594824 
L 163.59914 171.275294 
L 163.643876 171.275294 
L 163.643876 155.316706 
L 163.666204 155.316706 
L 163.666204 149.997176 
L 163.688506 149.997176 
L 163.688506 144.677647 
L 163.710781 144.677647 
L 163.710781 128.719059 
L 163.73303 128.719059 
L 163.73303 118.08 
L 163.755253 118.08 
L 163.755253 91.482353 
L 163.777449 91.482353 
L 163.777449 70.204235 
L 163.821764 70.204235 
L 163.821764 64.884706 
L 163.865975 64.884706 
L 163.865975 59.565176 
L 163.888041 59.565176 
L 163.888041 32.967529 
L 163.932096 32.967529 
L 163.932096 27.648 
L 360.8064 27.648 
" style="fill: none; stroke: #f5deb3; stroke-width: 4; stroke-linecap: square"/>
   </g>
   <g id="line2d_2">
    <defs>
     <path id="m0ab1485fa1" d="M 0 7.778175 
L 7.778175 0 
L 0 -7.778175 
L -7.778175 0 
z
" style="stroke: #f5deb3; stroke-width: 1.5; stroke-linejoin: miter"/>
    </defs>
    <g>
     <use xlink:href="#m0ab1485fa1" x="146.023332" y="251.068235" style="fill: #f5deb3; stroke: #f5deb3; stroke-width: 1.5; stroke-linejoin: miter"/>
     <use xlink:href="#m0ab1485fa1" x="163.59914" y="171.275294" style="fill: #f5deb3; stroke: #f5deb3; stroke-width: 1.5; stroke-linejoin: miter"/>
     <use xlink:href="#m0ab1485fa1" x="163.932096" y="32.967529" style="fill: #f5deb3; stroke: #f5deb3; stroke-width: 1.5; stroke-linejoin: miter"/>
     <use xlink:href="#m0ab1485fa1" x="163.932096" y="27.648" style="fill: #f5deb3; stroke: #f5deb3; stroke-width: 1.5; stroke-linejoin: miter"/>
     <use xlink:href="#m0ab1485fa1" x="163.932096" y="27.648" style="fill: #f5deb3; stroke: #f5deb3; stroke-width: 1.5; stroke-linejoin: miter"/>
     <use xlink:href="#m0ab1485fa1" x="360.8064" y="27.648" style="fill: #f5deb3; stroke: #f5deb3; stroke-width: 1.5; stroke-linejoin: miter"/>
    </g>
   </g>
   <g id="line2d_3">
    <path style="fill: none; stroke: #f5deb3; stroke-width: 4; stroke-linecap: square"/>
    <g/>
   </g>
   <g id="line2d_4">
    <path d="M 360.8064 27.648 
L 380.514816 33.07392 
" style="fill: none; stroke: #f5deb3; stroke-width: 4; stroke-linecap: square"/>
    <g>
     <use xlink:href="#m0ab1485fa1" x="360.8064" y="27.648" style="fill: #f5deb3; stroke: #f5deb3; stroke-width: 1.5; stroke-linejoin: miter"/>
     <use xlink:href="#m0ab1485fa1" x="380.514816" y="33.07392" style="fill: #f5deb3; stroke: #f5deb3; stroke-width: 1.5; stroke-linejoin: miter"/>
    </g>
   </g>
   <g id="matplotlib.axis_1">
    <g id="xtick_1">
     <g id="line2d_5">
      <path d="M 57.6 298.944 
L 57.6 27.648 
" clip-path="url(#pdb3ae47d57)" style="fill: none; stroke: #b0b0b0; stroke-width: 0.8; stroke-linecap: square"/>
     </g>
     <g id="line2d_6">
      <defs>
       <path id="md79ad3f42b" d="M 0 0 
L 0 3.5 
" style="stroke: #000000; stroke-width: 0.8"/>
      </defs>
      <g>
       <use xlink:href="#md79ad3f42b" x="57.6" y="298.944" style="stroke: #000000; stroke-width: 0.8"/>
      </g>
     </g>
     <g id="text_1">
      <!-- 0 -->
      <g transform="translate(52.191875 318.861344)scale(0.17 -0.17)">
       <defs>
        <path id="DejaVuSans-30" d="M 2034 4250 
Q 1547 4250 1301 3770 
Q 1056 3291 1056 2328 
Q 1056 1369 1301 889 
Q 1547 409 2034 409 
Q 2525 409 2770 889 
Q 3016 1369 3016 2328 
Q 3016 3291 2770 3770 
Q 2525 4250 2034 4250 
z
M 2034 4750 
Q 2819 4750 3233 4129 
Q 3647 3509 3647 2328 
Q 3647 1150 3233 529 
Q 2819 -91 2034 -91 
Q 1250 -91 836 529 
Q 422 1150 422 2328 
Q 422 3509 836 4129 
Q 1250 4750 2034 4750 
z
" transform="scale(0.015625)"/>
       </defs>
       <use xlink:href="#DejaVuSans-30"/>
      </g>
     </g>
    </g>
    <g id="xtick_2">
     <g id="line2d_7">
      <path d="M 144.2304 298.944 
L 144.2304 27.648 
" clip-path="url(#pdb3ae47d57)" style="fill: none; stroke: #b0b0b0; stroke-width: 0.8; stroke-linecap: square"/>
     </g>
     <g id="line2d_8">
      <g>
       <use xlink:href="#md79ad3f42b" x="144.2304" y="298.944" style="stroke: #000000; stroke-width: 0.8"/>
      </g>
     </g>
     <g id="text_2">
      <!-- 2 -->
      <g transform="translate(138.822275 318.861344)scale(0.17 -0.17)">
       <defs>
        <path id="DejaVuSans-32" d="M 1228 531 
L 3431 531 
L 3431 0 
L 469 0 
L 469 531 
Q 828 903 1448 1529 
Q 2069 2156 2228 2338 
Q 2531 2678 2651 2914 
Q 2772 3150 2772 3378 
Q 2772 3750 2511 3984 
Q 2250 4219 1831 4219 
Q 1534 4219 1204 4116 
Q 875 4013 500 3803 
L 500 4441 
Q 881 4594 1212 4672 
Q 1544 4750 1819 4750 
Q 2544 4750 2975 4387 
Q 3406 4025 3406 3419 
Q 3406 3131 3298 2873 
Q 3191 2616 2906 2266 
Q 2828 2175 2409 1742 
Q 1991 1309 1228 531 
z
" transform="scale(0.015625)"/>
       </defs>
       <use xlink:href="#DejaVuSans-32"/>
      </g>
     </g>
    </g>
    <g id="xtick_3">
     <g id="line2d_9">
      <path d="M 230.8608 298.944 
L 230.8608 27.648 
" clip-path="url(#pdb3ae47d57)" style="fill: none; stroke: #b0b0b0; stroke-width: 0.8; stroke-linecap: square"/>
     </g>
     <g id="line2d_10">
      <g>
       <use xlink:href="#md79ad3f42b" x="230.8608" y="298.944" style="stroke: #000000; stroke-width: 0.8"/>
      </g>
     </g>
     <g id="text_3">
      <!-- 4 -->
      <g transform="translate(225.452675 318.861344)scale(0.17 -0.17)">
       <defs>
        <path id="DejaVuSans-34" d="M 2419 4116 
L 825 1625 
L 2419 1625 
L 2419 4116 
z
M 2253 4666 
L 3047 4666 
L 3047 1625 
L 3713 1625 
L 3713 1100 
L 3047 1100 
L 3047 0 
L 2419 0 
L 2419 1100 
L 313 1100 
L 313 1709 
L 2253 4666 
z
" transform="scale(0.015625)"/>
       </defs>
       <use xlink:href="#DejaVuSans-34"/>
      </g>
     </g>
    </g>
    <g id="xtick_4">
     <g id="line2d_11">
      <path d="M 317.4912 298.944 
L 317.4912 27.648 
" clip-path="url(#pdb3ae47d57)" style="fill: none; stroke: #b0b0b0; stroke-width: 0.8; stroke-linecap: square"/>
     </g>
     <g id="line2d_12">
      <g>
       <use xlink:href="#md79ad3f42b" x="317.4912" y="298.944" style="stroke: #000000; stroke-width: 0.8"/>
      </g>
     </g>
     <g id="text_4">
      <!-- 6 -->
      <g transform="translate(312.083075 318.861344)scale(0.17 -0.17)">
       <defs>
        <path id="DejaVuSans-36" d="M 2113 2584 
Q 1688 2584 1439 2293 
Q 1191 2003 1191 1497 
Q 1191 994 1439 701 
Q 1688 409 2113 409 
Q 2538 409 2786 701 
Q 3034 994 3034 1497 
Q 3034 2003 2786 2293 
Q 2538 2584 2113 2584 
z
M 3366 4563 
L 3366 3988 
Q 3128 4100 2886 4159 
Q 2644 4219 2406 4219 
Q 1781 4219 1451 3797 
Q 1122 3375 1075 2522 
Q 1259 2794 1537 2939 
Q 1816 3084 2150 3084 
Q 2853 3084 3261 2657 
Q 3669 2231 3669 1497 
Q 3669 778 3244 343 
Q 2819 -91 2113 -91 
Q 1303 -91 875 529 
Q 447 1150 447 2328 
Q 447 3434 972 4092 
Q 1497 4750 2381 4750 
Q 2619 4750 2861 4703 
Q 3103 4656 3366 4563 
z
" transform="scale(0.015625)"/>
       </defs>
       <use xlink:href="#DejaVuSans-36"/>
      </g>
     </g>
    </g>
    <g id="xtick_5">
     <g id="line2d_13">
      <path d="M 100.9152 298.944 
L 100.9152 27.648 
" clip-path="url(#pdb3ae47d57)" style="fill: none; stroke: #b0b0b0; stroke-width: 0.8; stroke-linecap: square"/>
     </g>
     <g id="line2d_14">
      <defs>
       <path id="m80223a02e8" d="M 0 0 
L 0 2 
" style="stroke: #000000; stroke-width: 0.6"/>
      </defs>
      <g>
       <use xlink:href="#m80223a02e8" x="100.9152" y="298.944" style="stroke: #000000; stroke-width: 0.6"/>
      </g>
     </g>
    </g>
    <g id="xtick_6">
     <g id="line2d_15">
      <path d="M 187.5456 298.944 
L 187.5456 27.648 
" clip-path="url(#pdb3ae47d57)" style="fill: none; stroke: #b0b0b0; stroke-width: 0.8; stroke-linecap: square"/>
     </g>
     <g id="line2d_16">
      <g>
       <use xlink:href="#m80223a02e8" x="187.5456" y="298.944" style="stroke: #000000; stroke-width: 0.6"/>
      </g>
     </g>
    </g>
    <g id="xtick_7">
     <g id="line2d_17">
      <path d="M 274.176 298.944 
L 274.176 27.648 
" clip-path="url(#pdb3ae47d57)" style="fill: none; stroke: #b0b0b0; stroke-width: 0.8; stroke-linecap: square"/>
     </g>
     <g id="line2d_18">
      <g>
       <use xlink:href="#m80223a02e8" x="274.176" y="298.944" style="stroke: #000000; stroke-width: 0.6"/>
      </g>
     </g>
    </g>
    <g id="xtick_8">
     <g id="line2d_19">
      <path d="M 360.8064 298.944 
L 360.8064 27.648 
" clip-path="url(#pdb3ae47d57)" style="fill: none; stroke: #b0b0b0; stroke-width: 0.8; stroke-linecap: square"/>
     </g>
     <g id="line2d_20">
      <g>
       <use xlink:href="#m80223a02e8" x="360.8064" y="298.944" style="stroke: #000000; stroke-width: 0.6"/>
      </g>
     </g>
    </g>
    <g id="text_5">
     <!-- log10(# f-evals / dimension) -->
     <g transform="translate(88.823278 339.314156)scale(0.17 -0.17)">
      <defs>
       <path id="DejaVuSans-6c" d="M 603 4863 
L 1178 4863 
L 1178 0 
L 603 0 
L 603 4863 
z
" transform="scale(0.015625)"/>
       <path id="DejaVuSans-6f" d="M 1959 3097 
Q 1497 3097 1228 2736 
Q 959 2375 959 1747 
Q 959 1119 1226 758 
Q 1494 397 1959 397 
Q 2419 397 2687 759 
Q 2956 1122 2956 1747 
Q 2956 2369 2687 2733 
Q 2419 3097 1959 3097 
z
M 1959 3584 
Q 2709 3584 3137 3096 
Q 3566 2609 3566 1747 
Q 3566 888 3137 398 
Q 2709 -91 1959 -91 
Q 1206 -91 779 398 
Q 353 888 353 1747 
Q 353 2609 779 3096 
Q 1206 3584 1959 3584 
z
" transform="scale(0.015625)"/>
       <path id="DejaVuSans-67" d="M 2906 1791 
Q 2906 2416 2648 2759 
Q 2391 3103 1925 3103 
Q 1463 3103 1205 2759 
Q 947 2416 947 1791 
Q 947 1169 1205 825 
Q 1463 481 1925 481 
Q 2391 481 2648 825 
Q 2906 1169 2906 1791 
z
M 3481 434 
Q 3481 -459 3084 -895 
Q 2688 -1331 1869 -1331 
Q 1566 -1331 1297 -1286 
Q 1028 -1241 775 -1147 
L 775 -588 
Q 1028 -725 1275 -790 
Q 1522 -856 1778 -856 
Q 2344 -856 2625 -561 
Q 2906 -266 2906 331 
L 2906 616 
Q 2728 306 2450 153 
Q 2172 0 1784 0 
Q 1141 0 747 490 
Q 353 981 353 1791 
Q 353 2603 747 3093 
Q 1141 3584 1784 3584 
Q 2172 3584 2450 3431 
Q 2728 3278 2906 2969 
L 2906 3500 
L 3481 3500 
L 3481 434 
z
" transform="scale(0.015625)"/>
       <path id="DejaVuSans-31" d="M 794 531 
L 1825 531 
L 1825 4091 
L 703 3866 
L 703 4441 
L 1819 4666 
L 2450 4666 
L 2450 531 
L 3481 531 
L 3481 0 
L 794 0 
L 794 531 
z
" transform="scale(0.015625)"/>
       <path id="DejaVuSans-28" d="M 1984 4856 
Q 1566 4138 1362 3434 
Q 1159 2731 1159 2009 
Q 1159 1288 1364 580 
Q 1569 -128 1984 -844 
L 1484 -844 
Q 1016 -109 783 600 
Q 550 1309 550 2009 
Q 550 2706 781 3412 
Q 1013 4119 1484 4856 
L 1984 4856 
z
" transform="scale(0.015625)"/>
       <path id="DejaVuSans-23" d="M 3272 2816 
L 2363 2816 
L 2100 1772 
L 3016 1772 
L 3272 2816 
z
M 2803 4594 
L 2478 3297 
L 3391 3297 
L 3719 4594 
L 4219 4594 
L 3897 3297 
L 4872 3297 
L 4872 2816 
L 3775 2816 
L 3519 1772 
L 4513 1772 
L 4513 1294 
L 3397 1294 
L 3072 0 
L 2572 0 
L 2894 1294 
L 1978 1294 
L 1656 0 
L 1153 0 
L 1478 1294 
L 494 1294 
L 494 1772 
L 1594 1772 
L 1856 2816 
L 850 2816 
L 850 3297 
L 1978 3297 
L 2297 4594 
L 2803 4594 
z
" transform="scale(0.015625)"/>
       <path id="DejaVuSans-20" transform="scale(0.015625)"/>
       <path id="DejaVuSans-66" d="M 2375 4863 
L 2375 4384 
L 1825 4384 
Q 1516 4384 1395 4259 
Q 1275 4134 1275 3809 
L 1275 3500 
L 2222 3500 
L 2222 3053 
L 1275 3053 
L 1275 0 
L 697 0 
L 697 3053 
L 147 3053 
L 147 3500 
L 697 3500 
L 697 3744 
Q 697 4328 969 4595 
Q 1241 4863 1831 4863 
L 2375 4863 
z
" transform="scale(0.015625)"/>
       <path id="DejaVuSans-2d" d="M 313 2009 
L 1997 2009 
L 1997 1497 
L 313 1497 
L 313 2009 
z
" transform="scale(0.015625)"/>
       <path id="DejaVuSans-65" d="M 3597 1894 
L 3597 1613 
L 953 1613 
Q 991 1019 1311 708 
Q 1631 397 2203 397 
Q 2534 397 2845 478 
Q 3156 559 3463 722 
L 3463 178 
Q 3153 47 2828 -22 
Q 2503 -91 2169 -91 
Q 1331 -91 842 396 
Q 353 884 353 1716 
Q 353 2575 817 3079 
Q 1281 3584 2069 3584 
Q 2775 3584 3186 3129 
Q 3597 2675 3597 1894 
z
M 3022 2063 
Q 3016 2534 2758 2815 
Q 2500 3097 2075 3097 
Q 1594 3097 1305 2825 
Q 1016 2553 972 2059 
L 3022 2063 
z
" transform="scale(0.015625)"/>
       <path id="DejaVuSans-76" d="M 191 3500 
L 800 3500 
L 1894 563 
L 2988 3500 
L 3597 3500 
L 2284 0 
L 1503 0 
L 191 3500 
z
" transform="scale(0.015625)"/>
       <path id="DejaVuSans-61" d="M 2194 1759 
Q 1497 1759 1228 1600 
Q 959 1441 959 1056 
Q 959 750 1161 570 
Q 1363 391 1709 391 
Q 2188 391 2477 730 
Q 2766 1069 2766 1631 
L 2766 1759 
L 2194 1759 
z
M 3341 1997 
L 3341 0 
L 2766 0 
L 2766 531 
Q 2569 213 2275 61 
Q 1981 -91 1556 -91 
Q 1019 -91 701 211 
Q 384 513 384 1019 
Q 384 1609 779 1909 
Q 1175 2209 1959 2209 
L 2766 2209 
L 2766 2266 
Q 2766 2663 2505 2880 
Q 2244 3097 1772 3097 
Q 1472 3097 1187 3025 
Q 903 2953 641 2809 
L 641 3341 
Q 956 3463 1253 3523 
Q 1550 3584 1831 3584 
Q 2591 3584 2966 3190 
Q 3341 2797 3341 1997 
z
" transform="scale(0.015625)"/>
       <path id="DejaVuSans-73" d="M 2834 3397 
L 2834 2853 
Q 2591 2978 2328 3040 
Q 2066 3103 1784 3103 
Q 1356 3103 1142 2972 
Q 928 2841 928 2578 
Q 928 2378 1081 2264 
Q 1234 2150 1697 2047 
L 1894 2003 
Q 2506 1872 2764 1633 
Q 3022 1394 3022 966 
Q 3022 478 2636 193 
Q 2250 -91 1575 -91 
Q 1294 -91 989 -36 
Q 684 19 347 128 
L 347 722 
Q 666 556 975 473 
Q 1284 391 1588 391 
Q 1994 391 2212 530 
Q 2431 669 2431 922 
Q 2431 1156 2273 1281 
Q 2116 1406 1581 1522 
L 1381 1569 
Q 847 1681 609 1914 
Q 372 2147 372 2553 
Q 372 3047 722 3315 
Q 1072 3584 1716 3584 
Q 2034 3584 2315 3537 
Q 2597 3491 2834 3397 
z
" transform="scale(0.015625)"/>
       <path id="DejaVuSans-2f" d="M 1625 4666 
L 2156 4666 
L 531 -594 
L 0 -594 
L 1625 4666 
z
" transform="scale(0.015625)"/>
       <path id="DejaVuSans-64" d="M 2906 2969 
L 2906 4863 
L 3481 4863 
L 3481 0 
L 2906 0 
L 2906 525 
Q 2725 213 2448 61 
Q 2172 -91 1784 -91 
Q 1150 -91 751 415 
Q 353 922 353 1747 
Q 353 2572 751 3078 
Q 1150 3584 1784 3584 
Q 2172 3584 2448 3432 
Q 2725 3281 2906 2969 
z
M 947 1747 
Q 947 1113 1208 752 
Q 1469 391 1925 391 
Q 2381 391 2643 752 
Q 2906 1113 2906 1747 
Q 2906 2381 2643 2742 
Q 2381 3103 1925 3103 
Q 1469 3103 1208 2742 
Q 947 2381 947 1747 
z
" transform="scale(0.015625)"/>
       <path id="DejaVuSans-69" d="M 603 3500 
L 1178 3500 
L 1178 0 
L 603 0 
L 603 3500 
z
M 603 4863 
L 1178 4863 
L 1178 4134 
L 603 4134 
L 603 4863 
z
" transform="scale(0.015625)"/>
       <path id="DejaVuSans-6d" d="M 3328 2828 
Q 3544 3216 3844 3400 
Q 4144 3584 4550 3584 
Q 5097 3584 5394 3201 
Q 5691 2819 5691 2113 
L 5691 0 
L 5113 0 
L 5113 2094 
Q 5113 2597 4934 2840 
Q 4756 3084 4391 3084 
Q 3944 3084 3684 2787 
Q 3425 2491 3425 1978 
L 3425 0 
L 2847 0 
L 2847 2094 
Q 2847 2600 2669 2842 
Q 2491 3084 2119 3084 
Q 1678 3084 1418 2786 
Q 1159 2488 1159 1978 
L 1159 0 
L 581 0 
L 581 3500 
L 1159 3500 
L 1159 2956 
Q 1356 3278 1631 3431 
Q 1906 3584 2284 3584 
Q 2666 3584 2933 3390 
Q 3200 3197 3328 2828 
z
" transform="scale(0.015625)"/>
       <path id="DejaVuSans-6e" d="M 3513 2113 
L 3513 0 
L 2938 0 
L 2938 2094 
Q 2938 2591 2744 2837 
Q 2550 3084 2163 3084 
Q 1697 3084 1428 2787 
Q 1159 2491 1159 1978 
L 1159 0 
L 581 0 
L 581 3500 
L 1159 3500 
L 1159 2956 
Q 1366 3272 1645 3428 
Q 1925 3584 2291 3584 
Q 2894 3584 3203 3211 
Q 3513 2838 3513 2113 
z
" transform="scale(0.015625)"/>
       <path id="DejaVuSans-29" d="M 513 4856 
L 1013 4856 
Q 1481 4119 1714 3412 
Q 1947 2706 1947 2009 
Q 1947 1309 1714 600 
Q 1481 -109 1013 -844 
L 513 -844 
Q 928 -128 1133 580 
Q 1338 1288 1338 2009 
Q 1338 2731 1133 3434 
Q 928 4138 513 4856 
z
" transform="scale(0.015625)"/>
      </defs>
      <use xlink:href="#DejaVuSans-6c"/>
      <use xlink:href="#DejaVuSans-6f" x="27.783203"/>
      <use xlink:href="#DejaVuSans-67" x="88.964844"/>
      <use xlink:href="#DejaVuSans-31" x="152.441406"/>
      <use xlink:href="#DejaVuSans-30" x="216.064453"/>
      <use xlink:href="#DejaVuSans-28" x="279.6875"/>
      <use xlink:href="#DejaVuSans-23" x="318.701172"/>
      <use xlink:href="#DejaVuSans-20" x="402.490234"/>
      <use xlink:href="#DejaVuSans-66" x="434.277344"/>
      <use xlink:href="#DejaVuSans-2d" x="463.982422"/>
      <use xlink:href="#DejaVuSans-65" x="500.066406"/>
      <use xlink:href="#DejaVuSans-76" x="561.589844"/>
      <use xlink:href="#DejaVuSans-61" x="620.769531"/>
      <use xlink:href="#DejaVuSans-6c" x="682.048828"/>
      <use xlink:href="#DejaVuSans-73" x="709.832031"/>
      <use xlink:href="#DejaVuSans-20" x="761.931641"/>
      <use xlink:href="#DejaVuSans-2f" x="793.71875"/>
      <use xlink:href="#DejaVuSans-20" x="827.410156"/>
      <use xlink:href="#DejaVuSans-64" x="859.197266"/>
      <use xlink:href="#DejaVuSans-69" x="922.673828"/>
      <use xlink:href="#DejaVuSans-6d" x="950.457031"/>
      <use xlink:href="#DejaVuSans-65" x="1047.869141"/>
      <use xlink:href="#DejaVuSans-6e" x="1109.392578"/>
      <use xlink:href="#DejaVuSans-73" x="1172.771484"/>
      <use xlink:href="#DejaVuSans-69" x="1224.871094"/>
      <use xlink:href="#DejaVuSans-6f" x="1252.654297"/>
      <use xlink:href="#DejaVuSans-6e" x="1313.835938"/>
      <use xlink:href="#DejaVuSans-29" x="1377.214844"/>
     </g>
    </g>
   </g>
   <g id="matplotlib.axis_2">
    <g id="ytick_1">
     <g id="line2d_21">
      <path d="M 57.6 298.944 
L 360.8064 298.944 
" clip-path="url(#pdb3ae47d57)" style="fill: none; stroke: #b0b0b0; stroke-width: 0.8; stroke-linecap: square"/>
     </g>
     <g id="line2d_22">
      <defs>
       <path id="m04bfe5cbad" d="M 0 0 
L -3.5 0 
" style="stroke: #000000; stroke-width: 0.8"/>
      </defs>
      <g>
       <use xlink:href="#m04bfe5cbad" x="57.6" y="298.944" style="stroke: #000000; stroke-width: 0.8"/>
      </g>
     </g>
     <g id="text_6">
      <!-- 0.0 -->
      <g transform="translate(25.155 305.02275)scale(0.16 -0.16)">
       <defs>
        <path id="DejaVuSans-2e" d="M 684 794 
L 1344 794 
L 1344 0 
L 684 0 
L 684 794 
z
" transform="scale(0.015625)"/>
       </defs>
       <use xlink:href="#DejaVuSans-30"/>
       <use xlink:href="#DejaVuSans-2e" x="63.623047"/>
       <use xlink:href="#DejaVuSans-30" x="95.410156"/>
      </g>
     </g>
    </g>
    <g id="ytick_2">
     <g id="line2d_23">
      <path d="M 57.6 244.6848 
L 360.8064 244.6848 
" clip-path="url(#pdb3ae47d57)" style="fill: none; stroke: #b0b0b0; stroke-width: 0.8; stroke-linecap: square"/>
     </g>
     <g id="line2d_24">
      <g>
       <use xlink:href="#m04bfe5cbad" x="57.6" y="244.6848" style="stroke: #000000; stroke-width: 0.8"/>
      </g>
     </g>
     <g id="text_7">
      <!-- 0.2 -->
      <g transform="translate(25.155 250.76355)scale(0.16 -0.16)">
       <use xlink:href="#DejaVuSans-30"/>
       <use xlink:href="#DejaVuSans-2e" x="63.623047"/>
       <use xlink:href="#DejaVuSans-32" x="95.410156"/>
      </g>
     </g>
    </g>
    <g id="ytick_3">
     <g id="line2d_25">
      <path d="M 57.6 190.4256 
L 360.8064 190.4256 
" clip-path="url(#pdb3ae47d57)" style="fill: none; stroke: #b0b0b0; stroke-width: 0.8; stroke-linecap: square"/>
     </g>
     <g id="line2d_26">
      <g>
       <use xlink:href="#m04bfe5cbad" x="57.6" y="190.4256" style="stroke: #000000; stroke-width: 0.8"/>
      </g>
     </g>
     <g id="text_8">
      <!-- 0.4 -->
      <g transform="translate(25.155 196.50435)scale(0.16 -0.16)">
       <use xlink:href="#DejaVuSans-30"/>
       <use xlink:href="#DejaVuSans-2e" x="63.623047"/>
       <use xlink:href="#DejaVuSans-34" x="95.410156"/>
      </g>
     </g>
    </g>
    <g id="ytick_4">
     <g id="line2d_27">
      <path d="M 57.6 136.1664 
L 360.8064 136.1664 
" clip-path="url(#pdb3ae47d57)" style="fill: none; stroke: #b0b0b0; stroke-width: 0.8; stroke-linecap: square"/>
     </g>
     <g id="line2d_28">
      <g>
       <use xlink:href="#m04bfe5cbad" x="57.6" y="136.1664" style="stroke: #000000; stroke-width: 0.8"/>
      </g>
     </g>
     <g id="text_9">
      <!-- 0.6 -->
      <g transform="translate(25.155 142.24515)scale(0.16 -0.16)">
       <use xlink:href="#DejaVuSans-30"/>
       <use xlink:href="#DejaVuSans-2e" x="63.623047"/>
       <use xlink:href="#DejaVuSans-36" x="95.410156"/>
      </g>
     </g>
    </g>
    <g id="ytick_5">
     <g id="line2d_29">
      <path d="M 57.6 81.9072 
L 360.8064 81.9072 
" clip-path="url(#pdb3ae47d57)" style="fill: none; stroke: #b0b0b0; stroke-width: 0.8; stroke-linecap: square"/>
     </g>
     <g id="line2d_30">
      <g>
       <use xlink:href="#m04bfe5cbad" x="57.6" y="81.9072" style="stroke: #000000; stroke-width: 0.8"/>
      </g>
     </g>
     <g id="text_10">
      <!-- 0.8 -->
      <g transform="translate(25.155 87.98595)scale(0.16 -0.16)">
       <defs>
        <path id="DejaVuSans-38" d="M 2034 2216 
Q 1584 2216 1326 1975 
Q 1069 1734 1069 1313 
Q 1069 891 1326 650 
Q 1584 409 2034 409 
Q 2484 409 2743 651 
Q 3003 894 3003 1313 
Q 3003 1734 2745 1975 
Q 2488 2216 2034 2216 
z
M 1403 2484 
Q 997 2584 770 2862 
Q 544 3141 544 3541 
Q 544 4100 942 4425 
Q 1341 4750 2034 4750 
Q 2731 4750 3128 4425 
Q 3525 4100 3525 3541 
Q 3525 3141 3298 2862 
Q 3072 2584 2669 2484 
Q 3125 2378 3379 2068 
Q 3634 1759 3634 1313 
Q 3634 634 3220 271 
Q 2806 -91 2034 -91 
Q 1263 -91 848 271 
Q 434 634 434 1313 
Q 434 1759 690 2068 
Q 947 2378 1403 2484 
z
M 1172 3481 
Q 1172 3119 1398 2916 
Q 1625 2713 2034 2713 
Q 2441 2713 2670 2916 
Q 2900 3119 2900 3481 
Q 2900 3844 2670 4047 
Q 2441 4250 2034 4250 
Q 1625 4250 1398 4047 
Q 1172 3844 1172 3481 
z
" transform="scale(0.015625)"/>
       </defs>
       <use xlink:href="#DejaVuSans-30"/>
       <use xlink:href="#DejaVuSans-2e" x="63.623047"/>
       <use xlink:href="#DejaVuSans-38" x="95.410156"/>
      </g>
     </g>
    </g>
    <g id="ytick_6">
     <g id="line2d_31">
      <path d="M 57.6 27.648 
L 360.8064 27.648 
" clip-path="url(#pdb3ae47d57)" style="fill: none; stroke: #b0b0b0; stroke-width: 0.8; stroke-linecap: square"/>
     </g>
     <g id="line2d_32">
      <g>
       <use xlink:href="#m04bfe5cbad" x="57.6" y="27.648" style="stroke: #000000; stroke-width: 0.8"/>
      </g>
     </g>
     <g id="text_11">
      <!-- 1.0 -->
      <g transform="translate(25.155 33.72675)scale(0.16 -0.16)">
       <use xlink:href="#DejaVuSans-31"/>
       <use xlink:href="#DejaVuSans-2e" x="63.623047"/>
       <use xlink:href="#DejaVuSans-30" x="95.410156"/>
      </g>
     </g>
    </g>
    <g id="text_12">
     <!-- Fraction of function,target pairs -->
     <g transform="translate(17.619531 297.681)rotate(-90)scale(0.17 -0.17)">
      <defs>
       <path id="DejaVuSans-46" d="M 628 4666 
L 3309 4666 
L 3309 4134 
L 1259 4134 
L 1259 2759 
L 3109 2759 
L 3109 2228 
L 1259 2228 
L 1259 0 
L 628 0 
L 628 4666 
z
" transform="scale(0.015625)"/>
       <path id="DejaVuSans-72" d="M 2631 2963 
Q 2534 3019 2420 3045 
Q 2306 3072 2169 3072 
Q 1681 3072 1420 2755 
Q 1159 2438 1159 1844 
L 1159 0 
L 581 0 
L 581 3500 
L 1159 3500 
L 1159 2956 
Q 1341 3275 1631 3429 
Q 1922 3584 2338 3584 
Q 2397 3584 2469 3576 
Q 2541 3569 2628 3553 
L 2631 2963 
z
" transform="scale(0.015625)"/>
       <path id="DejaVuSans-63" d="M 3122 3366 
L 3122 2828 
Q 2878 2963 2633 3030 
Q 2388 3097 2138 3097 
Q 1578 3097 1268 2742 
Q 959 2388 959 1747 
Q 959 1106 1268 751 
Q 1578 397 2138 397 
Q 2388 397 2633 464 
Q 2878 531 3122 666 
L 3122 134 
Q 2881 22 2623 -34 
Q 2366 -91 2075 -91 
Q 1284 -91 818 406 
Q 353 903 353 1747 
Q 353 2603 823 3093 
Q 1294 3584 2113 3584 
Q 2378 3584 2631 3529 
Q 2884 3475 3122 3366 
z
" transform="scale(0.015625)"/>
       <path id="DejaVuSans-74" d="M 1172 4494 
L 1172 3500 
L 2356 3500 
L 2356 3053 
L 1172 3053 
L 1172 1153 
Q 1172 725 1289 603 
Q 1406 481 1766 481 
L 2356 481 
L 2356 0 
L 1766 0 
Q 1100 0 847 248 
Q 594 497 594 1153 
L 594 3053 
L 172 3053 
L 172 3500 
L 594 3500 
L 594 4494 
L 1172 4494 
z
" transform="scale(0.015625)"/>
       <path id="DejaVuSans-75" d="M 544 1381 
L 544 3500 
L 1119 3500 
L 1119 1403 
Q 1119 906 1312 657 
Q 1506 409 1894 409 
Q 2359 409 2629 706 
Q 2900 1003 2900 1516 
L 2900 3500 
L 3475 3500 
L 3475 0 
L 2900 0 
L 2900 538 
Q 2691 219 2414 64 
Q 2138 -91 1772 -91 
Q 1169 -91 856 284 
Q 544 659 544 1381 
z
M 1991 3584 
L 1991 3584 
z
" transform="scale(0.015625)"/>
       <path id="DejaVuSans-2c" d="M 750 794 
L 1409 794 
L 1409 256 
L 897 -744 
L 494 -744 
L 750 256 
L 750 794 
z
" transform="scale(0.015625)"/>
       <path id="DejaVuSans-70" d="M 1159 525 
L 1159 -1331 
L 581 -1331 
L 581 3500 
L 1159 3500 
L 1159 2969 
Q 1341 3281 1617 3432 
Q 1894 3584 2278 3584 
Q 2916 3584 3314 3078 
Q 3713 2572 3713 1747 
Q 3713 922 3314 415 
Q 2916 -91 2278 -91 
Q 1894 -91 1617 61 
Q 1341 213 1159 525 
z
M 3116 1747 
Q 3116 2381 2855 2742 
Q 2594 3103 2138 3103 
Q 1681 3103 1420 2742 
Q 1159 2381 1159 1747 
Q 1159 1113 1420 752 
Q 1681 391 2138 391 
Q 2594 391 2855 752 
Q 3116 1113 3116 1747 
z
" transform="scale(0.015625)"/>
      </defs>
      <use xlink:href="#DejaVuSans-46"/>
      <use xlink:href="#DejaVuSans-72" x="50.269531"/>
      <use xlink:href="#DejaVuSans-61" x="91.382812"/>
      <use xlink:href="#DejaVuSans-63" x="152.662109"/>
      <use xlink:href="#DejaVuSans-74" x="207.642578"/>
      <use xlink:href="#DejaVuSans-69" x="246.851562"/>
      <use xlink:href="#DejaVuSans-6f" x="274.634766"/>
      <use xlink:href="#DejaVuSans-6e" x="335.816406"/>
      <use xlink:href="#DejaVuSans-20" x="399.195312"/>
      <use xlink:href="#DejaVuSans-6f" x="430.982422"/>
      <use xlink:href="#DejaVuSans-66" x="492.164062"/>
      <use xlink:href="#DejaVuSans-20" x="527.369141"/>
      <use xlink:href="#DejaVuSans-66" x="559.15625"/>
      <use xlink:href="#DejaVuSans-75" x="594.361328"/>
      <use xlink:href="#DejaVuSans-6e" x="657.740234"/>
      <use xlink:href="#DejaVuSans-63" x="721.119141"/>
      <use xlink:href="#DejaVuSans-74" x="776.099609"/>
      <use xlink:href="#DejaVuSans-69" x="815.308594"/>
      <use xlink:href="#DejaVuSans-6f" x="843.091797"/>
      <use xlink:href="#DejaVuSans-6e" x="904.273438"/>
      <use xlink:href="#DejaVuSans-2c" x="967.652344"/>
      <use xlink:href="#DejaVuSans-74" x="999.439453"/>
      <use xlink:href="#DejaVuSans-61" x="1038.648438"/>
      <use xlink:href="#DejaVuSans-72" x="1099.927734"/>
      <use xlink:href="#DejaVuSans-67" x="1139.291016"/>
      <use xlink:href="#DejaVuSans-65" x="1202.767578"/>
      <use xlink:href="#DejaVuSans-74" x="1264.291016"/>
      <use xlink:href="#DejaVuSans-20" x="1303.5"/>
      <use xlink:href="#DejaVuSans-70" x="1335.287109"/>
      <use xlink:href="#DejaVuSans-61" x="1398.763672"/>
      <use xlink:href="#DejaVuSans-69" x="1460.042969"/>
      <use xlink:href="#DejaVuSans-72" x="1487.826172"/>
      <use xlink:href="#DejaVuSans-73" x="1528.939453"/>
     </g>
    </g>
   </g>
   <g id="line2d_33">
    <defs>
     <path id="m81f4c2f14d" d="M 0 1.5 
C 0.397805 1.5 0.77937 1.341951 1.06066 1.06066 
C 1.341951 0.77937 1.5 0.397805 1.5 0 
C 1.5 -0.397805 1.341951 -0.77937 1.06066 -1.06066 
C 0.77937 -1.341951 0.397805 -1.5 0 -1.5 
C -0.397805 -1.5 -0.77937 -1.341951 -1.06066 -1.06066 
C -1.341951 -0.77937 -1.5 -0.397805 -1.5 0 
C -1.5 0.397805 -1.341951 0.77937 -1.06066 1.06066 
C -0.77937 1.341951 -0.397805 1.5 0 1.5 
z
" style="stroke: #f5deb3"/>
    </defs>
    <g>
     <use xlink:href="#m81f4c2f14d" x="163.932096" y="27.648" style="fill: #f5deb3; stroke: #f5deb3"/>
     <use xlink:href="#m81f4c2f14d" x="163.932096" y="27.648" style="fill: #f5deb3; stroke: #f5deb3"/>
    </g>
   </g>
   <g id="line2d_34">
    <defs>
     <path id="mbf753430ee" d="M 0 1.5 
C 0.397805 1.5 0.77937 1.341951 1.06066 1.06066 
C 1.341951 0.77937 1.5 0.397805 1.5 0 
C 1.5 -0.397805 1.341951 -0.77937 1.06066 -1.06066 
C 0.77937 -1.341951 0.397805 -1.5 0 -1.5 
C -0.397805 -1.5 -0.77937 -1.341951 -1.06066 -1.06066 
C -1.341951 -0.77937 -1.5 -0.397805 -1.5 0 
C -1.5 0.397805 -1.341951 0.77937 -1.06066 1.06066 
C -0.77937 1.341951 -0.397805 1.5 0 1.5 
z
" style="stroke: #000080"/>
    </defs>
    <g>
     <use xlink:href="#mbf753430ee" x="234.359401" y="27.648" style="fill: #000080; stroke: #000080"/>
     <use xlink:href="#mbf753430ee" x="234.359401" y="27.648" style="fill: #000080; stroke: #000080"/>
    </g>
   </g>
   <g id="line2d_35">
    <path d="M 36.933397 298.944 
L 36.933397 296.816188 
L 49.972572 296.816188 
L 49.972572 292.560565 
L 57.6 292.560565 
L 57.6 291.851294 
L 70.639174 291.851294 
L 70.639174 289.723482 
L 76.050921 289.723482 
L 76.050921 288.304941 
L 80.248597 288.304941 
L 80.248597 287.950306 
L 83.678349 287.950306 
L 83.678349 287.595671 
L 89.090095 287.595671 
L 89.090095 286.8864 
L 90.230539 286.8864 
L 90.230539 285.467859 
L 93.287772 285.467859 
L 93.287772 285.113224 
L 95.916911 285.113224 
L 95.916911 284.758588 
L 100.277459 284.758588 
L 100.277459 284.403953 
L 101.532027 284.403953 
L 101.532027 284.049318 
L 102.708132 284.049318 
L 102.708132 283.694682 
L 107.68741 283.694682 
L 107.68741 283.340047 
L 108.956085 283.340047 
L 108.956085 282.985412 
L 115.168444 282.985412 
L 115.168444 282.276141 
L 116.854188 282.276141 
L 116.854188 281.921506 
L 119.129494 281.921506 
L 119.129494 280.8576 
L 120.28394 280.8576 
L 120.28394 280.502965 
L 121.159053 280.502965 
L 121.159053 280.148329 
L 123.936316 280.148329 
L 123.936316 279.793694 
L 131.929028 279.793694 
L 131.929028 279.084424 
L 133.323114 279.084424 
L 133.323114 278.729788 
L 134.620977 278.729788 
L 134.620977 278.375153 
L 139.556456 278.375153 
L 139.556456 278.020518 
L 140.649551 278.020518 
L 140.649551 277.665882 
L 142.932537 277.665882 
L 142.932537 276.956612 
L 144.968202 276.956612 
L 144.968202 276.601976 
L 148.428077 276.601976 
L 148.428077 275.892706 
L 151.220087 275.892706 
L 151.220087 275.538071 
L 152.230346 275.538071 
L 152.230346 275.183435 
L 153.914919 275.183435 
L 153.914919 274.8288 
L 154.285968 274.8288 
L 154.285968 274.474165 
L 154.432362 274.474165 
L 154.505134 273.410259 
L 154.613767 273.410259 
L 154.649839 272.700988 
L 154.793439 272.700988 
L 154.793439 272.346353 
L 155.391799 272.346353 
L 155.495444 271.282447 
L 155.666927 271.282447 
L 155.666927 270.927812 
L 155.836861 270.927812 
L 155.904407 270.218541 
L 155.971711 270.218541 
L 155.971711 269.154635 
L 156.921495 269.154635 
L 156.921495 268.8 
L 157.080512 268.8 
L 157.112155 268.090729 
L 157.238196 268.090729 
L 157.238196 267.736094 
L 157.456756 267.736094 
L 157.456756 267.026824 
L 157.580516 267.026824 
L 157.580516 266.672188 
L 157.916719 266.672188 
L 157.916719 265.962918 
L 158.0976 265.962918 
L 158.15751 265.253647 
L 158.306454 265.253647 
L 158.306454 263.835106 
L 158.571617 263.835106 
L 158.571617 263.480471 
L 159.14782 263.480471 
L 159.14782 261.707294 
L 159.513105 261.707294 
L 159.596403 260.643388 
L 159.871431 260.643388 
L 159.871431 260.288753 
L 160.034538 260.288753 
L 160.034538 259.579482 
L 160.169388 259.579482 
L 160.249837 258.870212 
L 160.699326 258.870212 
L 160.699326 258.515576 
L 161.061595 258.515576 
L 161.087207 257.806306 
L 161.391854 257.806306 
L 161.391854 257.097035 
L 161.691646 257.097035 
L 161.691646 256.7424 
L 162.420867 256.7424 
L 162.420867 256.387765 
L 163.053839 256.387765 
L 163.053839 256.033129 
L 163.821764 256.033129 
L 163.821764 255.678494 
L 165.634805 255.678494 
L 165.634805 254.969224 
L 165.794904 254.969224 
L 165.814821 253.550682 
L 166.364103 253.550682 
L 166.364103 253.196047 
L 166.954094 253.196047 
L 166.954094 252.841412 
L 167.562457 252.841412 
L 167.562457 252.486776 
L 168.569041 252.486776 
L 168.569041 252.132141 
L 170.040346 252.132141 
L 170.040346 251.422871 
L 170.864796 251.422871 
L 170.864796 251.068235 
L 171.031472 251.068235 
L 171.061619 250.358965 
L 171.256404 250.358965 
L 171.256404 250.004329 
L 171.493403 250.004329 
L 171.493403 249.649694 
L 171.625414 249.649694 
L 171.625414 249.295059 
L 171.771015 249.295059 
L 171.785513 248.585788 
L 171.944262 248.585788 
L 171.944262 248.231153 
L 172.243656 248.231153 
L 172.243656 247.876518 
L 172.440637 247.876518 
L 172.440637 247.521882 
L 172.663262 247.521882 
L 172.663262 246.812612 
L 172.924252 246.812612 
L 172.924252 246.457976 
L 175.159627 246.457976 
L 175.159627 246.103341 
L 175.977392 246.103341 
L 175.977392 245.748706 
L 176.150559 245.748706 
L 176.150559 245.394071 
L 176.604692 245.394071 
L 176.604692 245.039435 
L 177.449188 245.039435 
L 177.513428 242.556988 
L 177.72599 242.556988 
L 177.72599 240.783812 
L 178.903696 240.783812 
L 178.903696 240.429176 
L 179.042162 240.429176 
L 179.042162 240.074541 
L 179.461189 240.074541 
L 179.461189 239.719906 
L 180.428504 239.719906 
L 180.501594 238.656 
L 181.252369 238.656 
L 181.252369 237.592094 
L 181.83893 237.592094 
L 181.83893 237.237459 
L 182.142212 237.237459 
L 182.142212 236.528188 
L 182.604477 236.528188 
L 182.604477 236.173553 
L 182.999844 236.173553 
L 183.023783 234.045741 
L 183.198406 234.045741 
L 183.198406 233.691106 
L 183.324394 233.691106 
L 183.324394 232.6272 
L 183.573867 232.6272 
L 183.666573 231.208659 
L 185.14798 231.208659 
L 185.211977 228.726212 
L 185.723173 228.726212 
L 185.723173 228.371576 
L 185.908781 228.371576 
L 186.004306 225.889129 
L 186.328186 225.889129 
L 186.368281 224.825224 
L 187.695494 224.825224 
L 187.695494 220.5696 
L 188.07728 220.5696 
L 188.07728 220.214965 
L 188.694894 220.214965 
L 188.75967 215.959341 
L 189.080246 215.959341 
L 189.080246 215.250071 
L 189.412493 215.250071 
L 189.412493 214.895435 
L 189.683086 214.895435 
L 189.750131 213.122259 
L 190.092771 213.122259 
L 190.092771 212.767624 
L 190.552602 212.767624 
L 190.627272 208.157365 
L 190.80739 208.157365 
L 190.875805 207.093459 
L 191.069175 207.093459 
L 191.084767 203.901741 
L 191.276011 203.901741 
L 191.281153 203.192471 
L 191.444955 203.192471 
L 191.444955 202.837835 
L 191.597235 202.837835 
L 191.682983 201.419294 
L 191.783365 201.419294 
L 191.783365 201.064659 
L 192.091188 201.064659 
L 192.174719 197.872941 
L 192.330954 197.872941 
L 192.330954 197.518306 
L 193.05117 197.518306 
L 193.05117 196.099765 
L 193.167795 196.099765 
L 193.255949 192.908047 
L 193.49055 192.908047 
L 193.49055 192.198776 
L 193.857241 192.198776 
L 193.857241 191.844141 
L 194.137584 191.844141 
L 194.137584 191.134871 
L 195.43044 191.134871 
L 195.496301 187.943153 
L 196.558752 187.943153 
L 196.558752 187.588518 
L 196.97356 187.588518 
L 196.97356 187.233882 
L 198.49798 187.233882 
L 198.522485 185.815341 
L 198.862253 185.815341 
L 198.862253 185.106071 
L 199.656136 185.106071 
L 199.656136 184.751435 
L 200.211128 184.751435 
L 200.211128 184.3968 
L 200.581639 184.3968 
L 200.581639 184.042165 
L 200.700423 184.042165 
L 200.700423 183.687529 
L 200.908048 183.687529 
L 200.988005 182.978259 
L 201.156035 182.978259 
L 201.156035 182.623624 
L 201.379769 182.623624 
L 201.442779 179.786541 
L 201.586015 179.786541 
L 201.633519 178.722635 
L 201.942322 178.722635 
L 202.032531 174.467012 
L 202.203034 174.467012 
L 202.203034 171.629929 
L 202.67182 171.629929 
L 202.67182 171.275294 
L 202.800456 171.275294 
L 202.819954 169.856753 
L 203.016588 169.856753 
L 203.12099 167.374306 
L 203.145632 167.374306 
L 203.148368 165.955765 
L 203.336199 165.955765 
L 203.441541 164.182588 
L 203.479213 164.182588 
L 203.479213 163.827953 
L 203.602462 163.827953 
L 203.602462 163.473318 
L 204.407525 163.473318 
L 204.407525 162.764047 
L 204.65157 162.764047 
L 204.65157 162.409412 
L 204.767396 162.409412 
L 204.767396 161.700141 
L 204.942295 161.700141 
L 204.942295 161.345506 
L 205.058822 161.345506 
L 205.103259 159.572329 
L 205.365266 159.572329 
L 205.418687 157.089882 
L 205.657223 157.089882 
L 205.697881 156.025976 
L 205.850163 156.025976 
L 205.850163 155.671341 
L 206.255737 155.671341 
L 206.255737 155.316706 
L 206.605003 155.316706 
L 206.700378 153.188894 
L 206.835794 153.188894 
L 206.835794 152.124988 
L 206.96131 152.124988 
L 206.992558 149.997176 
L 207.632752 149.997176 
L 207.714485 149.287906 
L 207.772344 149.287906 
L 207.844951 148.578635 
L 207.917279 148.578635 
L 208.014693 145.386918 
L 208.297705 145.386918 
L 208.391104 144.677647 
L 208.4304 144.677647 
L 208.4304 144.323012 
L 208.656306 144.323012 
L 208.731687 140.067388 
L 208.792585 140.067388 
L 208.875496 136.521035 
L 209.245126 136.521035 
L 209.245126 136.1664 
L 209.385077 136.1664 
L 209.385077 133.683953 
L 209.522045 133.683953 
L 209.601809 132.620047 
L 209.659959 132.620047 
L 209.752627 130.846871 
L 209.925159 130.846871 
L 209.925159 130.1376 
L 210.190435 130.1376 
L 210.280532 126.236612 
L 210.347823 126.236612 
L 210.347823 125.527341 
L 211.454651 125.527341 
L 211.565158 122.690259 
L 211.683711 122.690259 
L 211.683711 120.562447 
L 211.84465 120.562447 
L 211.84465 119.853176 
L 212.388129 119.853176 
L 212.388129 114.533647 
L 212.69531 114.533647 
L 212.696957 113.824376 
L 213.213487 113.824376 
L 213.213487 113.469741 
L 213.589429 113.469741 
L 213.689674 112.405835 
L 214.469968 112.405835 
L 214.469968 111.341929 
L 214.617756 111.341929 
L 214.700842 108.150212 
L 214.879124 108.150212 
L 214.879124 107.086306 
L 215.083314 107.086306 
L 215.083314 106.0224 
L 215.334042 106.0224 
L 215.334042 102.121412 
L 215.493681 102.121412 
L 215.572995 101.412141 
L 215.765633 101.412141 
L 215.765633 101.057506 
L 215.891118 101.057506 
L 215.891118 100.702871 
L 216.066779 100.702871 
L 216.066779 100.348235 
L 216.471286 100.348235 
L 216.471286 99.638965 
L 216.756122 99.638965 
L 216.81972 97.156518 
L 216.900232 97.156518 
L 216.944959 95.383341 
L 217.074591 95.383341 
L 217.163116 94.319435 
L 217.266732 94.319435 
L 217.266732 93.9648 
L 217.515658 93.9648 
L 217.515658 93.610165 
L 217.645227 93.610165 
L 217.645227 93.255529 
L 218.529257 93.255529 
L 218.623231 91.127718 
L 218.649651 91.127718 
L 218.652052 88.290635 
L 219.499055 88.290635 
L 219.499055 87.226729 
L 219.736154 87.226729 
L 219.736154 82.971106 
L 220.076283 82.971106 
L 220.084069 80.134024 
L 220.242415 80.134024 
L 220.242415 79.779388 
L 220.667615 79.779388 
L 220.67516 76.233035 
L 220.886257 76.233035 
L 220.887322 73.750588 
L 221.973094 73.750588 
L 221.973094 72.686682 
L 222.548543 72.686682 
L 222.617673 71.622776 
L 222.662326 71.622776 
L 222.662326 69.494965 
L 222.910826 69.494965 
L 223.015786 68.785694 
L 223.028151 68.785694 
L 223.119216 67.721788 
L 224.010024 67.721788 
L 224.010024 67.367153 
L 224.315298 67.367153 
L 224.379126 61.338353 
L 224.454201 61.338353 
L 224.557052 58.855906 
L 224.644515 58.855906 
L 224.75501 57.792 
L 224.811313 57.792 
L 224.839833 53.536376 
L 224.978359 53.536376 
L 225.020318 52.827106 
L 225.893565 52.827106 
L 225.961217 52.117835 
L 226.222997 52.117835 
L 226.3334 50.699294 
L 226.91538 50.699294 
L 226.91538 49.635388 
L 227.366225 49.635388 
L 227.474641 45.379765 
L 227.512889 45.379765 
L 227.512889 44.670494 
L 227.883805 44.670494 
L 227.883805 44.315859 
L 228.068012 44.315859 
L 228.068012 43.961224 
L 228.194157 43.961224 
L 228.194157 43.606588 
L 228.420394 43.606588 
L 228.497339 40.769506 
L 228.736836 40.769506 
L 228.736836 40.414871 
L 229.387442 40.414871 
L 229.486865 37.577788 
L 229.508439 37.577788 
L 229.508439 36.868518 
L 230.872084 36.868518 
L 230.872084 35.804612 
L 231.176059 35.804612 
L 231.176059 35.449976 
L 234.013666 35.449976 
L 234.013666 35.095341 
L 234.149986 35.095341 
L 234.195207 30.839718 
L 234.279575 30.839718 
L 234.359401 27.648 
L 360.8064 27.648 
L 360.8064 27.648 
" style="fill: none; stroke: #000080; stroke-width: 1.5; stroke-linecap: square"/>
   </g>
   <g id="line2d_36">
    <defs>
     <path id="mc9cca0318e" d="M 0 6 
C 1.591219 6 3.117479 5.367802 4.242641 4.242641 
C 5.367802 3.117479 6 1.591219 6 0 
C 6 -1.591219 5.367802 -3.117479 4.242641 -4.242641 
C 3.117479 -5.367802 1.591219 -6 0 -6 
C -1.591219 -6 -3.117479 -5.367802 -4.242641 -4.242641 
C -5.367802 -3.117479 -6 -1.591219 -6 0 
C -6 1.591219 -5.367802 3.117479 -4.242641 4.242641 
C -3.117479 5.367802 -1.591219 6 0 6 
z
" style="stroke: #000080; stroke-width: 1.5"/>
    </defs>
    <g>
     <use xlink:href="#mc9cca0318e" x="108.956085" y="283.340047" style="fill-opacity: 0; stroke: #000080; stroke-width: 1.5"/>
     <use xlink:href="#mc9cca0318e" x="163.053839" y="256.387765" style="fill-opacity: 0; stroke: #000080; stroke-width: 1.5"/>
     <use xlink:href="#mc9cca0318e" x="209.659959" y="131.201506" style="fill-opacity: 0; stroke: #000080; stroke-width: 1.5"/>
     <use xlink:href="#mc9cca0318e" x="234.359401" y="28.357271" style="fill-opacity: 0; stroke: #000080; stroke-width: 1.5"/>
     <use xlink:href="#mc9cca0318e" x="234.359401" y="27.648" style="fill-opacity: 0; stroke: #000080; stroke-width: 1.5"/>
     <use xlink:href="#mc9cca0318e" x="360.8064" y="27.648" style="fill-opacity: 0; stroke: #000080; stroke-width: 1.5"/>
    </g>
   </g>
   <g id="line2d_37">
    <path style="fill: none; stroke: #000080; stroke-width: 1.5; stroke-linecap: square"/>
    <g/>
   </g>
   <g id="line2d_38">
    <defs>
     <path id="m3d651015dc" d="M 0 1.5 
C 0.397805 1.5 0.77937 1.341951 1.06066 1.06066 
C 1.341951 0.77937 1.5 0.397805 1.5 0 
C 1.5 -0.397805 1.341951 -0.77937 1.06066 -1.06066 
C 0.77937 -1.341951 0.397805 -1.5 0 -1.5 
C -0.397805 -1.5 -0.77937 -1.341951 -1.06066 -1.06066 
C -1.341951 -0.77937 -1.5 -0.397805 -1.5 0 
C -1.5 0.397805 -1.341951 0.77937 -1.06066 1.06066 
C -0.77937 1.341951 -0.397805 1.5 0 1.5 
z
" style="stroke: #ff00ff"/>
    </defs>
    <g>
     <use xlink:href="#m3d651015dc" x="258.611128" y="27.648" style="fill: #ff00ff; stroke: #ff00ff"/>
     <use xlink:href="#m3d651015dc" x="258.611128" y="27.648" style="fill: #ff00ff; stroke: #ff00ff"/>
    </g>
   </g>
   <g id="line2d_39">
    <path d="M 36.933397 298.944 
L 36.933397 298.234729 
L 49.972572 298.234729 
L 49.972572 295.752282 
L 57.6 295.752282 
L 57.6 293.979106 
L 63.011746 293.979106 
L 63.011746 292.560565 
L 70.639174 292.560565 
L 70.639174 290.787388 
L 73.538988 290.787388 
L 73.538988 290.078118 
L 78.266603 290.078118 
L 78.266603 289.723482 
L 82.04153 289.723482 
L 82.04153 289.368847 
L 83.678349 289.368847 
L 83.678349 289.014212 
L 89.090095 289.014212 
L 89.090095 288.659576 
L 91.305777 288.659576 
L 91.305777 287.595671 
L 93.287772 287.595671 
L 93.287772 286.8864 
L 94.205591 286.8864 
L 94.205591 286.531765 
L 99.617337 286.531765 
L 99.617337 286.177129 
L 101.532027 286.177129 
L 101.532027 285.822494 
L 102.708132 285.822494 
L 102.708132 285.113224 
L 103.815014 285.113224 
L 103.815014 284.758588 
L 106.791453 284.758588 
L 106.791453 284.403953 
L 109.756698 284.403953 
L 109.756698 284.049318 
L 114.571202 284.049318 
L 114.571202 282.985412 
L 116.308887 282.985412 
L 116.308887 282.630776 
L 117.121023 282.630776 
L 117.121023 282.276141 
L 117.6436 282.276141 
L 117.6436 281.921506 
L 118.401214 281.921506 
L 118.401214 281.566871 
L 119.366121 281.566871 
L 119.366121 281.212235 
L 119.830627 281.212235 
L 119.830627 280.502965 
L 120.944062 280.502965 
L 120.944062 280.148329 
L 121.159053 280.148329 
L 121.159053 279.793694 
L 124.836562 279.793694 
L 124.836562 279.439059 
L 130.811181 279.439059 
L 130.811181 279.084424 
L 132.405295 279.084424 
L 132.405295 278.729788 
L 135.237805 278.729788 
L 135.237805 278.375153 
L 136.029987 278.375153 
L 136.029987 278.020518 
L 137.430998 278.020518 
L 137.430998 277.665882 
L 142.797687 277.665882 
L 142.797687 277.311247 
L 146.136998 277.311247 
L 146.136998 276.247341 
L 149.642146 276.247341 
L 149.642146 275.892706 
L 150.870907 275.892706 
L 150.870907 275.538071 
L 151.349377 275.538071 
L 151.349377 275.183435 
L 151.60532 275.183435 
L 151.60532 274.8288 
L 152.953957 274.8288 
L 152.953957 274.119529 
L 158.717331 274.119529 
L 158.717331 273.764894 
L 162.205054 273.764894 
L 162.205054 273.410259 
L 162.984551 273.410259 
L 162.984551 272.700988 
L 164.107292 272.700988 
L 164.107292 272.346353 
L 172.773594 272.346353 
L 172.773594 271.991718 
L 173.235417 271.991718 
L 173.235417 271.637082 
L 173.751559 271.637082 
L 173.751559 271.282447 
L 176.559769 271.282447 
L 176.57101 270.573176 
L 178.953265 270.573176 
L 178.953265 270.218541 
L 181.040902 270.218541 
L 181.049761 269.509271 
L 181.591012 269.509271 
L 181.591012 269.154635 
L 183.919184 269.154635 
L 183.919184 268.8 
L 187.539328 268.8 
L 187.576926 268.090729 
L 187.887355 268.090729 
L 187.887355 267.736094 
L 188.594344 267.736094 
L 188.623973 267.026824 
L 188.847643 267.026824 
L 188.847643 266.672188 
L 189.178238 266.672188 
L 189.178238 266.317553 
L 190.923024 266.317553 
L 190.923024 265.962918 
L 191.672915 265.962918 
L 191.672915 265.608282 
L 192.223682 265.608282 
L 192.223682 265.253647 
L 192.768284 265.253647 
L 192.768284 263.835106 
L 196.05897 263.835106 
L 196.05897 262.416565 
L 196.820991 262.416565 
L 196.820991 261.707294 
L 197.0153 261.707294 
L 197.0153 261.352659 
L 197.233866 261.352659 
L 197.233866 260.998024 
L 198.353802 260.998024 
L 198.353802 260.643388 
L 198.930846 260.643388 
L 198.930846 260.288753 
L 199.182487 260.288753 
L 199.283552 259.579482 
L 199.307056 259.579482 
L 199.307056 259.224847 
L 200.294096 259.224847 
L 200.294096 258.870212 
L 201.01254 258.870212 
L 201.107308 257.451671 
L 201.674987 257.451671 
L 201.674987 257.097035 
L 202.266218 257.097035 
L 202.266218 256.7424 
L 202.719462 256.7424 
L 202.828305 256.033129 
L 203.016588 256.033129 
L 203.016588 255.678494 
L 203.938604 255.678494 
L 203.938604 255.323859 
L 204.438204 255.323859 
L 204.438204 254.969224 
L 205.353103 254.969224 
L 205.353103 254.259953 
L 206.209294 254.259953 
L 206.209294 253.905318 
L 206.65048 253.905318 
L 206.670908 252.132141 
L 206.983635 252.132141 
L 206.983635 251.777506 
L 207.203241 251.777506 
L 207.289053 251.068235 
L 207.699456 251.068235 
L 207.699456 249.649694 
L 208.12211 249.649694 
L 208.12211 249.295059 
L 208.264384 249.295059 
L 208.355874 248.585788 
L 209.333948 248.585788 
L 209.333948 248.231153 
L 209.457599 248.231153 
L 209.457599 247.521882 
L 210.759374 247.521882 
L 210.86677 246.812612 
L 211.129923 246.812612 
L 211.129923 246.103341 
L 212.04348 246.103341 
L 212.04348 245.748706 
L 212.373056 245.748706 
L 212.373056 245.394071 
L 212.529889 245.394071 
L 212.529889 245.039435 
L 212.645837 245.039435 
L 212.645837 244.6848 
L 212.90332 244.6848 
L 212.90332 244.330165 
L 213.029943 244.330165 
L 213.086485 242.911624 
L 213.288641 242.911624 
L 213.288641 242.556988 
L 213.485489 242.556988 
L 213.532806 241.493082 
L 213.797156 241.493082 
L 213.797156 241.138447 
L 213.945681 241.138447 
L 213.945681 240.429176 
L 214.740771 240.429176 
L 214.773243 239.719906 
L 214.939152 239.719906 
L 214.939152 238.656 
L 216.162904 238.656 
L 216.162904 238.301365 
L 216.500906 238.301365 
L 216.500906 237.592094 
L 216.721584 237.592094 
L 216.737532 236.528188 
L 216.938388 236.528188 
L 217.031479 235.464282 
L 217.182587 235.464282 
L 217.182587 235.109647 
L 217.398021 235.109647 
L 217.45821 233.336471 
L 217.544952 233.336471 
L 217.544952 232.6272 
L 217.821626 232.6272 
L 217.832909 229.790118 
L 218.154758 229.790118 
L 218.154758 229.080847 
L 218.315473 229.080847 
L 218.315473 228.726212 
L 218.676035 228.726212 
L 218.688015 227.307671 
L 219.591742 227.307671 
L 219.591742 226.953035 
L 219.715754 226.953035 
L 219.715754 226.5984 
L 219.982605 226.5984 
L 220.074058 223.406682 
L 220.289771 223.406682 
L 220.289771 222.697412 
L 220.471473 222.697412 
L 220.533462 221.278871 
L 220.928831 221.278871 
L 220.956453 220.214965 
L 221.264958 220.214965 
L 221.264958 219.860329 
L 221.525276 219.860329 
L 221.59108 218.796424 
L 222.18213 218.796424 
L 222.18213 218.441788 
L 222.50753 218.441788 
L 222.588494 214.5408 
L 222.619617 214.5408 
L 222.619617 214.186165 
L 222.935688 214.186165 
L 223.034806 213.122259 
L 223.213609 213.122259 
L 223.213609 212.412988 
L 223.685027 212.412988 
L 223.761089 210.639812 
L 223.915018 210.639812 
L 223.930432 209.575906 
L 224.370274 209.575906 
L 224.370274 209.221271 
L 224.496464 209.221271 
L 224.496464 208.866635 
L 224.902769 208.866635 
L 224.996353 208.157365 
L 225.089473 208.157365 
L 225.089473 207.448094 
L 225.214332 207.448094 
L 225.270967 205.320282 
L 225.348457 205.320282 
L 225.351819 203.192471 
L 225.460755 203.192471 
L 225.566572 201.419294 
L 225.732838 201.419294 
L 225.796145 197.518306 
L 225.984797 197.518306 
L 226.049692 195.745129 
L 226.214972 195.745129 
L 226.214972 193.971953 
L 226.909966 193.971953 
L 226.909966 193.262682 
L 227.236665 193.262682 
L 227.236665 192.553412 
L 227.476142 192.553412 
L 227.521128 191.489506 
L 227.587659 191.489506 
L 227.587659 191.134871 
L 227.883805 191.134871 
L 227.883805 190.4256 
L 228.033792 190.4256 
L 228.13554 189.007059 
L 228.151478 189.007059 
L 228.16668 187.943153 
L 228.304384 187.943153 
L 228.408254 186.524612 
L 228.957371 186.524612 
L 228.974708 185.815341 
L 229.11146 185.815341 
L 229.193858 179.077271 
L 229.511134 179.077271 
L 229.511134 178.013365 
L 229.671462 178.013365 
L 229.741469 175.530918 
L 229.923595 175.530918 
L 230.033342 173.048471 
L 230.043823 173.048471 
L 230.043823 171.984565 
L 230.197744 171.984565 
L 230.199692 171.275294 
L 230.471796 171.275294 
L 230.471796 170.920659 
L 230.940892 170.920659 
L 230.940892 170.566024 
L 231.165573 170.566024 
L 231.165573 170.211388 
L 231.287339 170.211388 
L 231.287339 169.502118 
L 231.480661 169.502118 
L 231.480661 169.147482 
L 231.619091 169.147482 
L 231.635947 168.438212 
L 231.768464 168.438212 
L 231.772048 167.019671 
L 232.685628 167.019671 
L 232.74869 166.3104 
L 233.109895 166.3104 
L 233.109895 165.601129 
L 233.437521 165.601129 
L 233.437521 165.246494 
L 233.753087 165.246494 
L 233.753087 164.182588 
L 234.188904 164.182588 
L 234.210432 163.473318 
L 234.446665 163.473318 
L 234.491179 160.990871 
L 234.683039 160.990871 
L 234.788675 158.863059 
L 234.990129 158.863059 
L 234.990129 158.508424 
L 235.125077 158.508424 
L 235.139567 157.799153 
L 235.485996 157.799153 
L 235.552569 156.380612 
L 235.635454 156.380612 
L 235.688892 154.607435 
L 235.845414 154.607435 
L 235.845414 154.2528 
L 236.099628 154.2528 
L 236.099628 153.898165 
L 236.354199 153.898165 
L 236.354199 153.188894 
L 236.475552 153.188894 
L 236.475552 152.479624 
L 236.621535 152.479624 
L 236.621535 152.124988 
L 236.825854 152.124988 
L 236.900597 150.706447 
L 236.970513 150.706447 
L 236.970513 150.351812 
L 237.144175 150.351812 
L 237.165715 149.642541 
L 237.287308 149.642541 
L 237.287308 149.287906 
L 237.587019 149.287906 
L 237.678889 147.160094 
L 237.95571 147.160094 
L 237.99094 146.096188 
L 238.077446 146.096188 
L 238.16228 144.323012 
L 238.195003 144.323012 
L 238.300432 142.549835 
L 238.579972 142.549835 
L 238.579972 142.1952 
L 238.729552 142.1952 
L 238.729552 141.131294 
L 238.933556 141.131294 
L 238.972708 140.422024 
L 239.079957 140.422024 
L 239.079957 140.067388 
L 239.2417 140.067388 
L 239.304249 138.294212 
L 239.399676 138.294212 
L 239.429919 137.230306 
L 239.664244 137.230306 
L 239.757867 136.1664 
L 239.853358 136.1664 
L 239.932888 135.457129 
L 240.058287 135.457129 
L 240.058287 135.102494 
L 240.169863 135.102494 
L 240.273178 132.974682 
L 240.309262 132.974682 
L 240.388403 130.1376 
L 240.437462 130.1376 
L 240.437462 129.782965 
L 240.55843 129.782965 
L 240.627207 127.655153 
L 240.712454 127.655153 
L 240.712454 127.300518 
L 240.891735 127.300518 
L 240.924816 125.527341 
L 241.046349 125.527341 
L 241.046349 124.818071 
L 241.25283 124.818071 
L 241.311925 122.335624 
L 241.567416 122.335624 
L 241.567416 121.626353 
L 241.713076 121.626353 
L 241.744745 120.562447 
L 241.95626 120.562447 
L 241.95626 120.207812 
L 242.078238 120.207812 
L 242.126878 119.143906 
L 242.243992 119.143906 
L 242.243992 118.789271 
L 242.432041 118.789271 
L 242.541548 118.08 
L 242.561084 118.08 
L 242.561084 117.725365 
L 242.734668 117.725365 
L 242.80525 115.242918 
L 242.858345 115.242918 
L 242.894431 114.179012 
L 243.011808 114.179012 
L 243.107539 113.115106 
L 243.158811 113.115106 
L 243.231721 111.696565 
L 243.359607 111.696565 
L 243.425636 109.214118 
L 243.608978 109.214118 
L 243.625846 107.086306 
L 243.995982 107.086306 
L 244.045513 104.249224 
L 244.383436 104.249224 
L 244.471843 102.476047 
L 244.615757 102.476047 
L 244.673016 99.284329 
L 244.775045 99.284329 
L 244.880096 97.156518 
L 244.916964 97.156518 
L 244.961465 95.028706 
L 245.046023 95.028706 
L 245.052807 91.836988 
L 245.490308 91.836988 
L 245.490308 91.482353 
L 245.696327 91.482353 
L 245.785879 90.418447 
L 246.121508 90.418447 
L 246.155467 87.581365 
L 246.272184 87.581365 
L 246.272184 86.872094 
L 246.499646 86.872094 
L 246.546281 84.744282 
L 246.630802 84.744282 
L 246.660606 84.035012 
L 246.840324 84.035012 
L 246.840324 81.9072 
L 247.184158 81.9072 
L 247.189161 81.197929 
L 247.304366 81.197929 
L 247.304366 80.488659 
L 247.5598 80.488659 
L 247.597702 79.424753 
L 247.830393 79.424753 
L 247.936437 78.006212 
L 247.971063 78.006212 
L 248.070543 75.8784 
L 248.192223 75.8784 
L 248.195966 74.814494 
L 248.468202 74.814494 
L 248.468202 74.459859 
L 248.629575 74.459859 
L 248.737281 71.622776 
L 248.823632 71.622776 
L 248.823632 70.913506 
L 249.164889 70.913506 
L 249.260389 69.8496 
L 249.29996 69.8496 
L 249.399694 68.431059 
L 249.488422 68.431059 
L 249.488422 68.076424 
L 249.615183 68.076424 
L 249.615183 67.721788 
L 249.752124 67.721788 
L 249.857035 65.239341 
L 249.913599 65.239341 
L 249.913599 64.175435 
L 250.082505 64.175435 
L 250.183125 60.983718 
L 250.217218 60.983718 
L 250.217218 59.919812 
L 250.480471 59.919812 
L 250.57877 58.146635 
L 250.758171 58.146635 
L 250.836395 56.728094 
L 251.033763 56.728094 
L 251.139252 55.309553 
L 251.155674 55.309553 
L 251.259424 53.536376 
L 251.297971 53.536376 
L 251.328626 52.827106 
L 251.479477 52.827106 
L 251.479477 52.117835 
L 251.609159 52.117835 
L 251.711065 50.699294 
L 251.723894 50.699294 
L 251.723894 50.344659 
L 251.841222 50.344659 
L 251.914669 48.216847 
L 252.072082 48.216847 
L 252.072082 47.507576 
L 252.348427 47.507576 
L 252.406563 46.798306 
L 252.537559 46.798306 
L 252.619193 45.7344 
L 252.679449 45.7344 
L 252.710094 42.897318 
L 252.957152 42.897318 
L 252.966448 42.188047 
L 253.093039 42.188047 
L 253.093039 41.833412 
L 253.457217 41.833412 
L 253.540974 40.414871 
L 253.600975 40.414871 
L 253.600975 39.7056 
L 253.727285 39.7056 
L 253.810036 37.223153 
L 253.852754 37.223153 
L 253.92815 35.449976 
L 253.971334 35.449976 
L 253.980326 34.386071 
L 254.097926 34.386071 
L 254.146906 33.6768 
L 254.647893 33.6768 
L 254.647893 32.967529 
L 254.986915 32.967529 
L 254.986915 32.612894 
L 255.515568 32.612894 
L 255.553912 31.194353 
L 255.759661 31.194353 
L 255.759661 30.839718 
L 256.157175 30.839718 
L 256.157175 30.130447 
L 256.449693 30.130447 
L 256.559425 29.421176 
L 256.654042 29.421176 
L 256.722038 28.711906 
L 257.464274 28.711906 
L 257.464274 28.357271 
L 258.069557 28.357271 
L 258.069557 28.002635 
L 258.611128 28.002635 
L 258.611128 27.648 
L 360.8064 27.648 
L 360.8064 27.648 
" style="fill: none; stroke: #ff00ff; stroke-width: 1.5; stroke-linecap: square"/>
   </g>
   <g id="line2d_40">
    <defs>
     <path id="m9f016406cb" d="M 0 8.485281 
L 5.091169 0 
L 0 -8.485281 
L -5.091169 0 
z
" style="stroke: #ff00ff; stroke-width: 1.5; stroke-linejoin: miter"/>
    </defs>
    <g>
     <use xlink:href="#m9f016406cb" x="109.756698" y="284.403953" style="fill-opacity: 0; stroke: #ff00ff; stroke-width: 1.5; stroke-linejoin: miter"/>
     <use xlink:href="#m9f016406cb" x="214.939152" y="239.719906" style="fill-opacity: 0; stroke: #ff00ff; stroke-width: 1.5; stroke-linejoin: miter"/>
     <use xlink:href="#m9f016406cb" x="245.046023" y="95.028706" style="fill-opacity: 0; stroke: #ff00ff; stroke-width: 1.5; stroke-linejoin: miter"/>
     <use xlink:href="#m9f016406cb" x="258.611128" y="28.002635" style="fill-opacity: 0; stroke: #ff00ff; stroke-width: 1.5; stroke-linejoin: miter"/>
     <use xlink:href="#m9f016406cb" x="258.611128" y="27.648" style="fill-opacity: 0; stroke: #ff00ff; stroke-width: 1.5; stroke-linejoin: miter"/>
     <use xlink:href="#m9f016406cb" x="360.8064" y="27.648" style="fill-opacity: 0; stroke: #ff00ff; stroke-width: 1.5; stroke-linejoin: miter"/>
    </g>
   </g>
   <g id="line2d_41">
    <path style="fill: none; stroke: #ff00ff; stroke-width: 1.5; stroke-linecap: square"/>
    <g/>
   </g>
   <g id="line2d_42">
    <defs>
     <path id="m342601d88f" d="M 0 1.5 
C 0.397805 1.5 0.77937 1.341951 1.06066 1.06066 
C 1.341951 0.77937 1.5 0.397805 1.5 0 
C 1.5 -0.397805 1.341951 -0.77937 1.06066 -1.06066 
C 0.77937 -1.341951 0.397805 -1.5 0 -1.5 
C -0.397805 -1.5 -0.77937 -1.341951 -1.06066 -1.06066 
C -1.341951 -0.77937 -1.5 -0.397805 -1.5 0 
C -1.5 0.397805 -1.341951 0.77937 -1.06066 1.06066 
C -0.77937 1.341951 -0.397805 1.5 0 1.5 
z
" style="stroke: #ff7500"/>
    </defs>
    <g>
     <use xlink:href="#m342601d88f" x="227.748897" y="27.648" style="fill: #ff7500; stroke: #ff7500"/>
     <use xlink:href="#m342601d88f" x="227.748897" y="27.648" style="fill: #ff7500; stroke: #ff7500"/>
    </g>
   </g>
   <g id="line2d_43">
    <path d="M 36.933397 298.944 
L 36.933397 296.106918 
L 49.972572 296.106918 
L 49.972572 293.979106 
L 57.6 293.979106 
L 57.6 293.624471 
L 63.011746 293.624471 
L 63.011746 291.851294 
L 67.209423 291.851294 
L 67.209423 290.787388 
L 70.639174 290.787388 
L 70.639174 290.078118 
L 76.050921 290.078118 
L 76.050921 288.304941 
L 80.248597 288.304941 
L 80.248597 287.950306 
L 86.578163 287.950306 
L 86.578163 287.595671 
L 87.876026 287.595671 
L 87.876026 287.241035 
L 90.230539 287.241035 
L 90.230539 286.8864 
L 91.305777 286.8864 
L 91.305777 286.177129 
L 94.205591 286.177129 
L 94.205591 284.403953 
L 96.717523 284.403953 
L 96.717523 284.049318 
L 97.485448 284.049318 
L 97.485448 283.694682 
L 102.708132 283.694682 
L 102.708132 283.340047 
L 106.326946 283.340047 
L 106.326946 282.630776 
L 107.244765 282.630776 
L 107.244765 282.276141 
L 108.542628 282.276141 
L 108.542628 281.921506 
L 108.956085 281.921506 
L 108.956085 280.8576 
L 109.360651 280.8576 
L 109.360651 280.502965 
L 110.144579 280.502965 
L 110.144579 280.148329 
L 110.524623 280.148329 
L 110.524623 279.793694 
L 111.262425 279.793694 
L 111.262425 279.439059 
L 112.317555 279.439059 
L 112.317555 279.084424 
L 114.571202 279.084424 
L 114.571202 278.375153 
L 116.583514 278.375153 
L 116.583514 278.020518 
L 122.795872 278.020518 
L 122.795872 277.665882 
L 123.183753 277.665882 
L 123.183753 276.956612 
L 125.184934 276.956612 
L 125.184934 274.8288 
L 127.458055 274.8288 
L 127.458055 273.764894 
L 128.354013 273.764894 
L 128.354013 273.410259 
L 132.754746 273.410259 
L 132.754746 273.055624 
L 133.983236 273.055624 
L 133.983236 272.346353 
L 134.41079 272.346353 
L 134.41079 271.991718 
L 135.538796 271.991718 
L 135.638065 270.573176 
L 135.835047 270.573176 
L 135.835047 270.218541 
L 136.790153 270.218541 
L 136.790153 269.509271 
L 138.566146 269.509271 
L 138.566146 268.8 
L 140.188837 268.8 
L 140.188837 268.445365 
L 141.538451 268.445365 
L 141.538451 268.090729 
L 142.038218 268.090729 
L 142.038218 267.381459 
L 142.387236 267.381459 
L 142.387236 267.026824 
L 146.418192 267.026824 
L 146.418192 266.317553 
L 146.64016 266.317553 
L 146.64016 265.962918 
L 147.502732 265.962918 
L 147.502732 265.253647 
L 149.968501 265.253647 
L 149.968501 264.899012 
L 150.470172 264.899012 
L 150.470172 264.544376 
L 150.693856 264.544376 
L 150.693856 264.189741 
L 151.647641 264.189741 
L 151.689867 263.125835 
L 153.764426 263.125835 
L 153.764426 262.7712 
L 153.877408 262.7712 
L 153.877408 262.416565 
L 155.391799 262.416565 
L 155.391799 262.061929 
L 157.825621 262.061929 
L 157.825621 261.707294 
L 159.176172 261.707294 
L 159.260973 260.643388 
L 159.457367 260.643388 
L 159.457367 259.224847 
L 161.290852 259.224847 
L 161.290852 258.870212 
L 164.172572 258.870212 
L 164.215967 258.160941 
L 164.559567 258.160941 
L 164.559567 257.806306 
L 164.813209 257.806306 
L 164.813209 257.451671 
L 165.084184 257.451671 
L 165.084184 257.097035 
L 165.31046 257.097035 
L 165.31046 256.7424 
L 165.874446 256.7424 
L 165.933882 256.033129 
L 168.413644 256.033129 
L 168.413644 255.678494 
L 168.6034 255.678494 
L 168.6034 255.323859 
L 169.944694 255.323859 
L 169.944694 254.969224 
L 170.464862 254.969224 
L 170.526947 253.905318 
L 170.925576 253.905318 
L 170.925576 253.550682 
L 171.286192 253.550682 
L 171.286192 252.132141 
L 171.71291 252.132141 
L 171.71291 251.777506 
L 173.18167 251.777506 
L 173.18167 251.068235 
L 173.554715 251.068235 
L 173.554715 249.295059 
L 175.074644 249.295059 
L 175.074644 248.940424 
L 176.514738 248.940424 
L 176.514738 248.585788 
L 176.772205 248.585788 
L 176.772205 248.231153 
L 177.026195 248.231153 
L 177.026195 247.876518 
L 177.45991 247.876518 
L 177.45991 247.521882 
L 177.683669 247.521882 
L 177.736555 246.457976 
L 178.123358 246.457976 
L 178.175024 244.330165 
L 178.512506 244.330165 
L 178.512506 243.266259 
L 179.518922 243.266259 
L 179.518922 242.911624 
L 179.918172 242.911624 
L 179.936974 241.847718 
L 180.401022 241.847718 
L 180.401022 241.493082 
L 182.075238 241.493082 
L 182.075238 241.138447 
L 182.20895 241.138447 
L 182.275451 237.946729 
L 182.333448 237.946729 
L 182.383017 236.528188 
L 182.774938 236.528188 
L 182.774938 236.173553 
L 182.959879 236.173553 
L 182.967879 234.400376 
L 183.426142 234.400376 
L 183.426142 234.045741 
L 183.58935 234.045741 
L 183.666573 233.336471 
L 184.040451 233.336471 
L 184.040451 231.917929 
L 184.228381 231.917929 
L 184.265742 231.208659 
L 184.510485 231.208659 
L 184.510485 230.854024 
L 184.635333 230.854024 
L 184.635333 230.144753 
L 185.083765 230.144753 
L 185.083765 229.790118 
L 185.423742 229.790118 
L 185.423742 228.726212 
L 186.314801 228.726212 
L 186.401629 228.016941 
L 186.738443 228.016941 
L 186.738443 227.662306 
L 187.101462 227.662306 
L 187.101462 226.243765 
L 187.438698 226.243765 
L 187.438698 225.534494 
L 187.899666 225.534494 
L 187.899666 224.470588 
L 188.421569 224.470588 
L 188.421569 223.761318 
L 188.534946 223.761318 
L 188.588413 221.988141 
L 188.659467 221.988141 
L 188.659467 221.633506 
L 189.057115 221.633506 
L 189.11489 220.5696 
L 189.457863 220.5696 
L 189.457863 219.151059 
L 189.733392 219.151059 
L 189.733392 218.796424 
L 189.916704 218.796424 
L 189.916704 218.441788 
L 190.081815 218.441788 
L 190.081815 218.087153 
L 190.78101 218.087153 
L 190.886309 215.604706 
L 191.131465 215.604706 
L 191.183216 214.186165 
L 191.301706 214.186165 
L 191.306841 212.058353 
L 191.546612 212.058353 
L 191.546612 210.285176 
L 191.657804 210.285176 
L 191.73826 208.866635 
L 191.833356 208.866635 
L 191.833356 208.157365 
L 192.26764 208.157365 
L 192.335815 207.093459 
L 192.413429 207.093459 
L 192.461775 205.674918 
L 192.54368 205.674918 
L 192.54368 205.320282 
L 193.037126 205.320282 
L 193.116569 202.837835 
L 193.195678 202.837835 
L 193.209603 200.000753 
L 193.403491 200.000753 
L 193.403491 199.291482 
L 193.740315 199.291482 
L 193.834811 197.518306 
L 194.128748 197.518306 
L 194.128748 197.163671 
L 194.300303 197.163671 
L 194.300303 196.809035 
L 194.461627 196.809035 
L 194.461627 193.971953 
L 194.647389 193.971953 
L 194.647389 193.262682 
L 194.792984 193.262682 
L 194.81856 192.553412 
L 194.92052 192.553412 
L 194.962841 191.134871 
L 195.106023 191.134871 
L 195.106023 189.716329 
L 195.331214 189.716329 
L 195.368485 188.297788 
L 195.479858 188.297788 
L 195.545546 186.879247 
L 195.602836 186.879247 
L 195.651803 186.169976 
L 195.842374 186.169976 
L 195.922885 185.460706 
L 195.975034 185.460706 
L 195.975034 184.042165 
L 196.118695 184.042165 
L 196.221772 182.623624 
L 196.24153 182.623624 
L 196.261268 181.205082 
L 196.582038 181.205082 
L 196.582038 180.495812 
L 196.732701 180.495812 
L 196.81333 178.368 
L 196.866892 178.368 
L 196.866892 177.658729 
L 196.981156 177.658729 
L 196.981156 177.304094 
L 197.117362 177.304094 
L 197.200117 174.467012 
L 197.405424 174.467012 
L 197.405424 173.757741 
L 197.71107 173.757741 
L 197.809436 171.275294 
L 197.827596 171.275294 
L 197.827596 170.566024 
L 198.022611 170.566024 
L 198.097907 169.147482 
L 198.194276 169.147482 
L 198.194276 168.792847 
L 198.382021 168.792847 
L 198.382021 168.438212 
L 198.511987 168.438212 
L 198.606263 167.019671 
L 198.85538 167.019671 
L 198.934269 165.246494 
L 199.046883 165.246494 
L 199.074082 164.182588 
L 199.182487 164.182588 
L 199.229718 161.345506 
L 199.31712 161.345506 
L 199.333882 160.636235 
L 199.440804 160.636235 
L 199.533865 158.863059 
L 199.600056 158.863059 
L 199.626467 157.089882 
L 199.735024 157.089882 
L 199.735024 156.735247 
L 199.976201 156.735247 
L 200.085984 151.061082 
L 200.098858 151.061082 
L 200.098858 150.706447 
L 200.290912 150.706447 
L 200.319552 148.224 
L 200.465256 148.224 
L 200.509377 146.450824 
L 200.587909 146.450824 
L 200.62236 144.677647 
L 200.753321 144.677647 
L 200.753321 143.259106 
L 200.991074 143.259106 
L 201.095107 140.067388 
L 201.116454 140.067388 
L 201.225859 137.939576 
L 201.250085 137.939576 
L 201.340656 132.974682 
L 201.466727 132.974682 
L 201.57412 131.910776 
L 202.052841 131.910776 
L 202.061539 131.201506 
L 202.234653 131.201506 
L 202.343473 130.1376 
L 202.530993 130.1376 
L 202.640929 128.009788 
L 202.702661 128.009788 
L 202.702661 127.300518 
L 202.839432 127.300518 
L 202.889426 125.881976 
L 202.966931 125.881976 
L 203.074355 123.754165 
L 203.219365 123.754165 
L 203.303667 121.271718 
L 203.330781 121.271718 
L 203.390294 118.789271 
L 203.4819 118.789271 
L 203.548974 115.952188 
L 203.653135 115.952188 
L 203.75937 113.824376 
L 203.791124 113.824376 
L 203.87554 110.987294 
L 203.907098 110.987294 
L 203.962199 108.150212 
L 204.048461 108.150212 
L 204.048461 107.795576 
L 204.181001 107.795576 
L 204.219806 106.0224 
L 204.299751 106.0224 
L 204.38192 103.539953 
L 204.628825 103.539953 
L 204.729705 100.702871 
L 204.754841 100.702871 
L 204.862543 98.929694 
L 204.894983 98.929694 
L 204.894983 98.575059 
L 205.016757 98.575059 
L 205.063765 96.801882 
L 205.391995 96.801882 
L 205.445341 95.028706 
L 205.568427 95.028706 
L 205.633265 92.900894 
L 205.762275 92.900894 
L 205.783691 91.127718 
L 205.87858 91.127718 
L 205.95179 87.936 
L 206.160406 87.936 
L 206.227885 84.389647 
L 206.285863 84.389647 
L 206.366734 83.680376 
L 206.470201 83.680376 
L 206.470201 83.325741 
L 206.641393 83.325741 
L 206.700378 80.488659 
L 206.840291 80.488659 
L 206.84254 79.779388 
L 207.240694 79.779388 
L 207.30222 78.360847 
L 207.361359 78.360847 
L 207.452985 76.942306 
L 207.735935 76.942306 
L 207.798002 75.169129 
L 207.893909 75.169129 
L 207.974518 74.459859 
L 208.052675 74.459859 
L 208.071637 70.913506 
L 208.224739 70.913506 
L 208.247702 69.140329 
L 208.355874 69.140329 
L 208.355874 68.431059 
L 208.562166 68.431059 
L 208.660388 66.657882 
L 208.796638 66.657882 
L 208.903723 65.593976 
L 209.028224 65.593976 
L 209.135992 61.338353 
L 209.351662 61.338353 
L 209.459555 58.501271 
L 209.590157 58.501271 
L 209.66383 57.437365 
L 209.839091 57.437365 
L 209.858251 55.309553 
L 210.046892 55.309553 
L 210.046892 54.954918 
L 210.746591 54.954918 
L 210.746591 54.245647 
L 210.86314 54.245647 
L 210.86677 53.536376 
L 211.027623 53.536376 
L 211.106641 52.117835 
L 211.233451 52.117835 
L 211.293875 50.699294 
L 211.426482 50.699294 
L 211.5056 49.635388 
L 211.589627 49.635388 
L 211.673281 48.216847 
L 211.810155 48.216847 
L 211.810155 47.862212 
L 211.997388 47.862212 
L 211.997388 47.152941 
L 212.18616 47.152941 
L 212.18616 46.443671 
L 213.540681 46.443671 
L 213.540681 46.089035 
L 213.744271 46.089035 
L 213.744271 45.7344 
L 214.28926 45.7344 
L 214.28926 45.379765 
L 214.607344 45.379765 
L 214.607344 44.315859 
L 215.019379 44.315859 
L 215.019379 42.897318 
L 215.305392 42.897318 
L 215.305392 42.542682 
L 215.63367 42.542682 
L 215.63367 41.833412 
L 223.852323 41.833412 
L 223.852323 41.478776 
L 223.9766 41.478776 
L 224.049693 39.7056 
L 224.269065 39.7056 
L 224.269065 38.996329 
L 224.438328 38.996329 
L 224.438328 38.641694 
L 224.962922 38.641694 
L 224.962922 38.287059 
L 225.229564 38.287059 
L 225.229564 37.932424 
L 225.349297 37.932424 
L 225.349297 36.868518 
L 225.649475 36.868518 
L 225.666012 36.159247 
L 225.819932 36.159247 
L 225.879679 35.095341 
L 225.996982 35.095341 
L 226.042403 33.322165 
L 226.470894 33.322165 
L 226.470894 32.967529 
L 226.583791 32.967529 
L 226.597167 31.903624 
L 226.797459 31.903624 
L 226.797459 31.548988 
L 226.952466 31.548988 
L 226.952466 30.485082 
L 227.075558 30.485082 
L 227.075558 29.421176 
L 227.61972 29.421176 
L 227.61972 28.357271 
L 227.748897 28.357271 
L 227.748897 27.648 
L 360.8064 27.648 
L 360.8064 27.648 
" style="fill: none; stroke: #ff7500; stroke-width: 1.5; stroke-linecap: square"/>
   </g>
   <g id="line2d_44">
    <defs>
     <path id="mdf353e11a4" d="M 0 -6 
L -1.347084 -1.854102 
L -5.706339 -1.854102 
L -2.179628 0.708204 
L -3.526712 4.854102 
L -0 2.291796 
L 3.526712 4.854102 
L 2.179628 0.708204 
L 5.706339 -1.854102 
L 1.347084 -1.854102 
z
" style="stroke: #ff7500; stroke-width: 1.5; stroke-linejoin: bevel"/>
    </defs>
    <g>
     <use xlink:href="#mdf353e11a4" x="140.188837" y="268.445365" style="fill-opacity: 0; stroke: #ff7500; stroke-width: 1.5; stroke-linejoin: bevel"/>
     <use xlink:href="#mdf353e11a4" x="196.261268" y="182.268988" style="fill-opacity: 0; stroke: #ff7500; stroke-width: 1.5; stroke-linejoin: bevel"/>
     <use xlink:href="#mdf353e11a4" x="227.748897" y="28.357271" style="fill-opacity: 0; stroke: #ff7500; stroke-width: 1.5; stroke-linejoin: bevel"/>
     <use xlink:href="#mdf353e11a4" x="227.748897" y="27.648" style="fill-opacity: 0; stroke: #ff7500; stroke-width: 1.5; stroke-linejoin: bevel"/>
     <use xlink:href="#mdf353e11a4" x="227.748897" y="27.648" style="fill-opacity: 0; stroke: #ff7500; stroke-width: 1.5; stroke-linejoin: bevel"/>
     <use xlink:href="#mdf353e11a4" x="360.8064" y="27.648" style="fill-opacity: 0; stroke: #ff7500; stroke-width: 1.5; stroke-linejoin: bevel"/>
    </g>
   </g>
   <g id="line2d_45">
    <path style="fill: none; stroke: #ff7500; stroke-width: 1.5; stroke-linecap: square"/>
    <g/>
   </g>
   <g id="line2d_46">
    <defs>
     <path id="mf2629e8ef1" d="M 0 1.5 
C 0.397805 1.5 0.77937 1.341951 1.06066 1.06066 
C 1.341951 0.77937 1.5 0.397805 1.5 0 
C 1.5 -0.397805 1.341951 -0.77937 1.06066 -1.06066 
C 0.77937 -1.341951 0.397805 -1.5 0 -1.5 
C -0.397805 -1.5 -0.77937 -1.341951 -1.06066 -1.06066 
C -1.341951 -0.77937 -1.5 -0.397805 -1.5 0 
C -1.5 0.397805 -1.341951 0.77937 -1.06066 1.06066 
C -0.77937 1.341951 -0.397805 1.5 0 1.5 
z
" style="stroke: #6495ed"/>
    </defs>
    <g>
     <use xlink:href="#mf2629e8ef1" x="229.007952" y="27.648" style="fill: #6495ed; stroke: #6495ed"/>
     <use xlink:href="#mf2629e8ef1" x="229.007952" y="27.648" style="fill: #6495ed; stroke: #6495ed"/>
    </g>
   </g>
   <g id="line2d_47">
    <path d="M 36.933397 298.944 
L 36.933397 297.170824 
L 135.638065 297.170824 
L 135.736814 290.432753 
L 135.835047 290.432753 
L 135.835047 289.368847 
L 136.029987 289.368847 
L 136.126705 282.630776 
L 136.222928 282.630776 
L 136.222928 278.375153 
L 136.508678 278.375153 
L 136.602972 272.346353 
L 142.797687 272.346353 
L 142.797687 271.637082 
L 142.932537 271.637082 
L 142.932537 271.282447 
L 143.133017 271.282447 
L 143.133017 269.509271 
L 143.331383 269.509271 
L 143.397043 268.8 
L 143.592659 268.8 
L 143.592659 268.445365 
L 143.850356 268.445365 
L 143.850356 268.090729 
L 143.977892 268.090729 
L 143.977892 264.899012 
L 144.10457 264.899012 
L 144.10457 264.189741 
L 148.226342 264.189741 
L 148.226342 263.835106 
L 148.428077 263.835106 
L 148.428077 263.480471 
L 149.31003 263.480471 
L 149.357835 262.416565 
L 152.835271 262.416565 
L 152.835271 262.061929 
L 153.189104 262.061929 
L 153.189104 261.707294 
L 153.536404 261.707294 
L 153.536404 260.998024 
L 155.598521 260.998024 
L 155.598521 260.288753 
L 156.304668 260.288753 
L 156.304668 259.934118 
L 156.566854 259.934118 
L 156.631834 259.224847 
L 156.88953 259.224847 
L 156.921495 258.515576 
L 157.017067 258.515576 
L 157.017067 258.160941 
L 158.365703 258.160941 
L 158.365703 257.806306 
L 159.898714 257.806306 
L 159.898714 257.451671 
L 161.986735 257.451671 
L 161.986735 257.097035 
L 163.305732 257.097035 
L 163.305732 256.7424 
L 164.538274 256.7424 
L 164.538274 256.033129 
L 164.750119 256.033129 
L 164.750119 255.678494 
L 166.189291 255.678494 
L 166.189291 255.323859 
L 166.594686 255.323859 
L 166.594686 254.969224 
L 166.746854 254.969224 
L 166.746854 254.259953 
L 167.269949 254.259953 
L 167.269949 253.905318 
L 167.507957 253.905318 
L 167.507957 253.550682 
L 170.072123 253.550682 
L 170.072123 253.196047 
L 171.330787 253.196047 
L 171.330787 251.777506 
L 172.342405 251.777506 
L 172.342405 251.422871 
L 172.924252 251.422871 
L 172.978738 250.7136 
L 174.062287 250.7136 
L 174.062287 250.004329 
L 175.086808 250.004329 
L 175.086808 249.649694 
L 178.633741 249.649694 
L 178.633741 249.295059 
L 178.973057 249.295059 
L 178.973057 248.585788 
L 180.086719 248.585788 
L 180.086719 247.876518 
L 180.253768 247.876518 
L 180.253768 247.521882 
L 180.419348 247.521882 
L 180.510711 246.812612 
L 181.304866 246.812612 
L 181.304866 246.457976 
L 182.349985 246.457976 
L 182.424225 245.394071 
L 183.135094 245.394071 
L 183.135094 245.039435 
L 183.402711 245.039435 
L 183.402711 244.6848 
L 184.429257 244.6848 
L 184.429257 243.975529 
L 184.547291 243.975529 
L 184.628012 242.556988 
L 186.42161 242.556988 
L 186.474787 241.847718 
L 187.00491 241.847718 
L 187.00491 241.493082 
L 187.299446 241.493082 
L 187.299446 241.138447 
L 187.701713 241.138447 
L 187.701713 240.783812 
L 188.223012 240.783812 
L 188.223012 239.719906 
L 188.415583 239.719906 
L 188.505176 238.656 
L 188.871033 238.656 
L 188.906064 235.464282 
L 188.993357 235.464282 
L 189.080246 232.981835 
L 189.944323 232.981835 
L 189.944323 232.6272 
L 190.84426 232.6272 
L 190.84426 231.917929 
L 191.229671 231.917929 
L 191.229671 231.563294 
L 192.529252 231.563294 
L 192.529252 229.435482 
L 192.796765 229.435482 
L 192.796765 228.726212 
L 192.929108 228.726212 
L 192.929108 227.662306 
L 194.203721 227.662306 
L 194.203721 226.5984 
L 194.724609 226.5984 
L 194.801513 225.179859 
L 195.393292 225.179859 
L 195.393292 224.115953 
L 196.007054 224.115953 
L 196.007054 223.761318 
L 196.748086 223.761318 
L 196.748086 221.988141 
L 206.461027 221.988141 
L 206.461027 221.633506 
L 207.356985 221.633506 
L 207.356985 220.5696 
L 207.574462 220.5696 
L 207.656448 219.151059 
L 207.87051 219.151059 
L 207.951219 217.732518 
L 208.082163 217.732518 
L 208.082163 217.377882 
L 208.212203 217.377882 
L 208.291462 215.959341 
L 208.62566 215.959341 
L 208.62566 215.250071 
L 209.106118 215.250071 
L 209.106118 214.5408 
L 209.229291 214.5408 
L 209.304387 213.831529 
L 209.379185 213.831529 
L 209.426272 211.349082 
L 209.500588 211.349082 
L 209.574611 209.930541 
L 209.621212 209.930541 
L 209.694763 208.512 
L 209.768028 208.512 
L 209.768028 208.157365 
L 209.959476 208.157365 
L 209.959476 207.448094 
L 210.071523 207.448094 
L 210.071523 207.093459 
L 210.265546 207.093459 
L 210.338492 202.837835 
L 210.522401 202.837835 
L 210.553801 201.419294 
L 210.708191 201.419294 
L 210.708191 201.064659 
L 211.070765 201.064659 
L 211.070765 200.710024 
L 211.217423 200.710024 
L 211.217423 200.000753 
L 211.98713 200.000753 
L 212.052003 197.872941 
L 212.314325 197.872941 
L 212.314325 197.518306 
L 212.619397 197.518306 
L 212.622704 195.390494 
L 212.785676 195.390494 
L 212.785676 195.035859 
L 212.927737 195.035859 
L 212.974853 192.553412 
L 213.089711 192.553412 
L 213.089711 191.844141 
L 213.231103 191.844141 
L 213.231103 190.780235 
L 213.352366 190.780235 
L 213.409534 189.361694 
L 213.548552 189.361694 
L 213.587859 188.652424 
L 213.823543 188.652424 
L 213.823543 188.297788 
L 213.978015 188.297788 
L 214.051714 186.169976 
L 214.141908 186.169976 
L 214.175429 184.3968 
L 214.310432 184.3968 
L 214.355721 181.205082 
L 214.433965 181.205082 
L 214.531314 178.368 
L 214.61032 178.368 
L 214.61032 178.013365 
L 214.75849 178.013365 
L 214.805659 171.984565 
L 214.889386 171.984565 
L 214.914286 169.147482 
L 215.039745 169.147482 
L 215.070254 167.728941 
L 215.180255 167.728941 
L 215.184584 166.665035 
L 215.313992 166.665035 
L 215.422581 164.182588 
L 215.623806 164.182588 
L 215.666045 163.118682 
L 215.739034 163.118682 
L 215.839631 159.572329 
L 215.968777 159.572329 
L 216.066779 156.735247 
L 216.116276 156.735247 
L 216.223075 152.479624 
L 216.253088 152.479624 
L 216.359115 149.287906 
L 216.379436 149.287906 
L 216.43622 148.224 
L 216.491486 148.224 
L 216.600197 145.032282 
L 216.626943 145.032282 
L 216.736204 140.067388 
L 216.742846 140.067388 
L 216.836907 134.747859 
L 216.865958 134.747859 
L 216.972531 127.300518 
L 216.983025 127.300518 
L 217.058925 120.207812 
L 217.113697 120.207812 
L 217.220175 117.370729 
L 217.229237 117.370729 
L 217.284807 113.115106 
L 217.37235 113.115106 
L 217.446699 108.150212 
L 217.500355 108.150212 
L 217.560218 102.830682 
L 217.643961 102.830682 
L 217.731113 98.220424 
L 217.794015 98.220424 
L 217.856708 93.610165 
L 222.534882 93.610165 
L 222.640984 92.546259 
L 222.672019 92.546259 
L 222.760963 86.162824 
L 222.812012 86.162824 
L 222.921348 77.651576 
L 222.929953 77.651576 
L 223.001507 74.105224 
L 223.125839 74.105224 
L 223.220199 73.041318 
L 223.28128 73.041318 
L 223.35712 70.913506 
L 223.45033 70.913506 
L 223.45033 70.204235 
L 223.6105 70.204235 
L 223.635375 68.431059 
L 223.72722 68.431059 
L 223.835934 64.884706 
L 223.885059 64.884706 
L 223.885059 64.530071 
L 224.035278 64.530071 
L 224.059598 63.466165 
L 224.238774 63.466165 
L 224.327726 62.756894 
L 224.370274 62.756894 
L 224.421558 60.629082 
L 224.516682 60.629082 
L 224.58596 59.919812 
L 224.679387 59.919812 
L 224.778418 58.855906 
L 224.807853 58.855906 
L 224.829467 57.437365 
L 224.984359 57.437365 
L 225.065597 54.954918 
L 225.188918 54.954918 
L 225.273499 50.699294 
L 225.319856 50.699294 
L 225.369459 49.635388 
L 225.515821 49.635388 
L 225.62547 47.507576 
L 225.65361 47.507576 
L 225.708115 43.251953 
L 225.773149 43.251953 
L 225.8666 41.833412 
L 225.900097 41.833412 
L 226.009159 40.060235 
L 226.018084 40.060235 
L 226.110329 36.868518 
L 226.175598 36.868518 
L 226.27668 34.740706 
L 226.335793 34.740706 
L 226.419352 33.6768 
L 226.494635 33.6768 
L 226.573556 31.903624 
L 226.699144 31.903624 
L 226.777214 30.839718 
L 226.963269 30.839718 
L 226.963269 29.421176 
L 227.193279 29.421176 
L 227.193279 28.357271 
L 229.007952 28.357271 
L 229.007952 27.648 
L 360.8064 27.648 
L 360.8064 27.648 
" style="fill: none; stroke: #6495ed; stroke-width: 1.5; stroke-linecap: square"/>
   </g>
   <g id="line2d_48">
    <defs>
     <path id="m6197778cbb" d="M -0 6 
L 6 -6 
L -6 -6 
z
" style="stroke: #6495ed; stroke-width: 1.5; stroke-linejoin: miter"/>
    </defs>
    <g>
     <use xlink:href="#m6197778cbb" x="164.750119" y="255.678494" style="fill-opacity: 0; stroke: #6495ed; stroke-width: 1.5; stroke-linejoin: miter"/>
     <use xlink:href="#m6197778cbb" x="210.280532" y="205.674918" style="fill-opacity: 0; stroke: #6495ed; stroke-width: 1.5; stroke-linejoin: miter"/>
     <use xlink:href="#m6197778cbb" x="229.007952" y="28.357271" style="fill-opacity: 0; stroke: #6495ed; stroke-width: 1.5; stroke-linejoin: miter"/>
     <use xlink:href="#m6197778cbb" x="229.007952" y="27.648" style="fill-opacity: 0; stroke: #6495ed; stroke-width: 1.5; stroke-linejoin: miter"/>
     <use xlink:href="#m6197778cbb" x="229.007952" y="27.648" style="fill-opacity: 0; stroke: #6495ed; stroke-width: 1.5; stroke-linejoin: miter"/>
     <use xlink:href="#m6197778cbb" x="360.8064" y="27.648" style="fill-opacity: 0; stroke: #6495ed; stroke-width: 1.5; stroke-linejoin: miter"/>
    </g>
   </g>
   <g id="line2d_49">
    <path style="fill: none; stroke: #6495ed; stroke-width: 1.5; stroke-linecap: square"/>
    <g/>
   </g>
   <g id="line2d_50">
    <path d="M 360.8064 27.648 
L 380.514816 293.51808 
" style="fill: none; stroke: #ff00ff; stroke-width: 1.5; stroke-linecap: square"/>
    <g>
     <use xlink:href="#m9f016406cb" x="360.8064" y="27.648" style="fill-opacity: 0; stroke: #ff00ff; stroke-width: 1.5; stroke-linejoin: miter"/>
     <use xlink:href="#m9f016406cb" x="380.514816" y="293.51808" style="fill-opacity: 0; stroke: #ff00ff; stroke-width: 1.5; stroke-linejoin: miter"/>
    </g>
   </g>
   <g id="line2d_51">
    <path d="M 360.8064 27.648 
L 380.514816 228.40704 
" style="fill: none; stroke: #000080; stroke-width: 1.5; stroke-linecap: square"/>
    <g>
     <use xlink:href="#mc9cca0318e" x="360.8064" y="27.648" style="fill-opacity: 0; stroke: #000080; stroke-width: 1.5"/>
     <use xlink:href="#mc9cca0318e" x="380.514816" y="228.40704" style="fill-opacity: 0; stroke: #000080; stroke-width: 1.5"/>
    </g>
   </g>
   <g id="line2d_52">
    <path d="M 360.8064 27.648 
L 380.514816 163.296 
" style="fill: none; stroke: #6495ed; stroke-width: 1.5; stroke-linecap: square"/>
    <g>
     <use xlink:href="#m6197778cbb" x="360.8064" y="27.648" style="fill-opacity: 0; stroke: #6495ed; stroke-width: 1.5; stroke-linejoin: miter"/>
     <use xlink:href="#m6197778cbb" x="380.514816" y="163.296" style="fill-opacity: 0; stroke: #6495ed; stroke-width: 1.5; stroke-linejoin: miter"/>
    </g>
   </g>
   <g id="line2d_53">
    <path d="M 360.8064 27.648 
L 380.514816 98.18496 
" style="fill: none; stroke: #ff7500; stroke-width: 1.5; stroke-linecap: square"/>
    <g>
     <use xlink:href="#mdf353e11a4" x="360.8064" y="27.648" style="fill-opacity: 0; stroke: #ff7500; stroke-width: 1.5; stroke-linejoin: bevel"/>
     <use xlink:href="#mdf353e11a4" x="380.514816" y="98.18496" style="fill-opacity: 0; stroke: #ff7500; stroke-width: 1.5; stroke-linejoin: bevel"/>
    </g>
   </g>
   <g id="line2d_54">
    <path d="M 360.8064 298.944 
L 360.8064 27.648 
" style="fill: none; stroke: #000000; stroke-width: 1.5; stroke-linecap: square"/>
   </g>
   <g id="patch_3">
    <path d="M 57.6 298.944 
L 360.8064 298.944 
" style="fill: none; stroke: #000000; stroke-width: 0.8; stroke-linejoin: miter; stroke-linecap: square"/>
   </g>
   <g id="patch_4">
    <path d="M 57.6 27.648 
L 360.8064 27.648 
" style="fill: none; stroke: #000000; stroke-width: 0.8; stroke-linejoin: miter; stroke-linecap: square"/>
   </g>
   <g id="text_13">
    <!-- GA -->
    <g transform="translate(386.578944 297.381205)scale(0.14 -0.14)">
     <defs>
      <path id="DejaVuSans-47" d="M 3809 666 
L 3809 1919 
L 2778 1919 
L 2778 2438 
L 4434 2438 
L 4434 434 
Q 4069 175 3628 42 
Q 3188 -91 2688 -91 
Q 1594 -91 976 548 
Q 359 1188 359 2328 
Q 359 3472 976 4111 
Q 1594 4750 2688 4750 
Q 3144 4750 3555 4637 
Q 3966 4525 4313 4306 
L 4313 3634 
Q 3963 3931 3569 4081 
Q 3175 4231 2741 4231 
Q 1884 4231 1454 3753 
Q 1025 3275 1025 2328 
Q 1025 1384 1454 906 
Q 1884 428 2741 428 
Q 3075 428 3337 486 
Q 3600 544 3809 666 
z
" transform="scale(0.015625)"/>
      <path id="DejaVuSans-41" d="M 2188 4044 
L 1331 1722 
L 3047 1722 
L 2188 4044 
z
M 1831 4666 
L 2547 4666 
L 4325 0 
L 3669 0 
L 3244 1197 
L 1141 1197 
L 716 0 
L 50 0 
L 1831 4666 
z
" transform="scale(0.015625)"/>
     </defs>
     <use xlink:href="#DejaVuSans-47"/>
     <use xlink:href="#DejaVuSans-41" x="77.490234"/>
    </g>
   </g>
   <g id="text_14">
    <!-- LCGA -->
    <g transform="translate(386.578944 232.270165)scale(0.14 -0.14)">
     <defs>
      <path id="DejaVuSans-4c" d="M 628 4666 
L 1259 4666 
L 1259 531 
L 3531 531 
L 3531 0 
L 628 0 
L 628 4666 
z
" transform="scale(0.015625)"/>
      <path id="DejaVuSans-43" d="M 4122 4306 
L 4122 3641 
Q 3803 3938 3442 4084 
Q 3081 4231 2675 4231 
Q 1875 4231 1450 3742 
Q 1025 3253 1025 2328 
Q 1025 1406 1450 917 
Q 1875 428 2675 428 
Q 3081 428 3442 575 
Q 3803 722 4122 1019 
L 4122 359 
Q 3791 134 3420 21 
Q 3050 -91 2638 -91 
Q 1578 -91 968 557 
Q 359 1206 359 2328 
Q 359 3453 968 4101 
Q 1578 4750 2638 4750 
Q 3056 4750 3426 4639 
Q 3797 4528 4122 4306 
z
" transform="scale(0.015625)"/>
     </defs>
     <use xlink:href="#DejaVuSans-4c"/>
     <use xlink:href="#DejaVuSans-43" x="55.712891"/>
     <use xlink:href="#DejaVuSans-47" x="125.537109"/>
     <use xlink:href="#DejaVuSans-41" x="203.027344"/>
    </g>
   </g>
   <g id="text_15">
    <!-- EvoSpace- -->
    <g transform="translate(386.578944 167.159125)scale(0.14 -0.14)">
     <defs>
      <path id="DejaVuSans-45" d="M 628 4666 
L 3578 4666 
L 3578 4134 
L 1259 4134 
L 1259 2753 
L 3481 2753 
L 3481 2222 
L 1259 2222 
L 1259 531 
L 3634 531 
L 3634 0 
L 628 0 
L 628 4666 
z
" transform="scale(0.015625)"/>
      <path id="DejaVuSans-53" d="M 3425 4513 
L 3425 3897 
Q 3066 4069 2747 4153 
Q 2428 4238 2131 4238 
Q 1616 4238 1336 4038 
Q 1056 3838 1056 3469 
Q 1056 3159 1242 3001 
Q 1428 2844 1947 2747 
L 2328 2669 
Q 3034 2534 3370 2195 
Q 3706 1856 3706 1288 
Q 3706 609 3251 259 
Q 2797 -91 1919 -91 
Q 1588 -91 1214 -16 
Q 841 59 441 206 
L 441 856 
Q 825 641 1194 531 
Q 1563 422 1919 422 
Q 2459 422 2753 634 
Q 3047 847 3047 1241 
Q 3047 1584 2836 1778 
Q 2625 1972 2144 2069 
L 1759 2144 
Q 1053 2284 737 2584 
Q 422 2884 422 3419 
Q 422 4038 858 4394 
Q 1294 4750 2059 4750 
Q 2388 4750 2728 4690 
Q 3069 4631 3425 4513 
z
" transform="scale(0.015625)"/>
     </defs>
     <use xlink:href="#DejaVuSans-45"/>
     <use xlink:href="#DejaVuSans-76" x="63.183594"/>
     <use xlink:href="#DejaVuSans-6f" x="122.363281"/>
     <use xlink:href="#DejaVuSans-53" x="183.544922"/>
     <use xlink:href="#DejaVuSans-70" x="247.021484"/>
     <use xlink:href="#DejaVuSans-61" x="310.498047"/>
     <use xlink:href="#DejaVuSans-63" x="371.777344"/>
     <use xlink:href="#DejaVuSans-65" x="426.757812"/>
     <use xlink:href="#DejaVuSans-2d" x="488.28125"/>
    </g>
   </g>
   <g id="text_16">
    <!-- PSO -->
    <g transform="translate(386.578944 102.048085)scale(0.14 -0.14)">
     <defs>
      <path id="DejaVuSans-50" d="M 1259 4147 
L 1259 2394 
L 2053 2394 
Q 2494 2394 2734 2622 
Q 2975 2850 2975 3272 
Q 2975 3691 2734 3919 
Q 2494 4147 2053 4147 
L 1259 4147 
z
M 628 4666 
L 2053 4666 
Q 2838 4666 3239 4311 
Q 3641 3956 3641 3272 
Q 3641 2581 3239 2228 
Q 2838 1875 2053 1875 
L 1259 1875 
L 1259 0 
L 628 0 
L 628 4666 
z
" transform="scale(0.015625)"/>
      <path id="DejaVuSans-4f" d="M 2522 4238 
Q 1834 4238 1429 3725 
Q 1025 3213 1025 2328 
Q 1025 1447 1429 934 
Q 1834 422 2522 422 
Q 3209 422 3611 934 
Q 4013 1447 4013 2328 
Q 4013 3213 3611 3725 
Q 3209 4238 2522 4238 
z
M 2522 4750 
Q 3503 4750 4090 4092 
Q 4678 3434 4678 2328 
Q 4678 1225 4090 567 
Q 3503 -91 2522 -91 
Q 1538 -91 948 565 
Q 359 1222 359 2328 
Q 359 3434 948 4092 
Q 1538 4750 2522 4750 
z
" transform="scale(0.015625)"/>
     </defs>
     <use xlink:href="#DejaVuSans-50"/>
     <use xlink:href="#DejaVuSans-53" x="60.302734"/>
     <use xlink:href="#DejaVuSans-4f" x="123.779297"/>
    </g>
   </g>
   <g id="text_17">
    <!-- best 2009 -->
    <g transform="translate(386.578944 36.937045)scale(0.14 -0.14)">
     <defs>
      <path id="DejaVuSans-62" d="M 3116 1747 
Q 3116 2381 2855 2742 
Q 2594 3103 2138 3103 
Q 1681 3103 1420 2742 
Q 1159 2381 1159 1747 
Q 1159 1113 1420 752 
Q 1681 391 2138 391 
Q 2594 391 2855 752 
Q 3116 1113 3116 1747 
z
M 1159 2969 
Q 1341 3281 1617 3432 
Q 1894 3584 2278 3584 
Q 2916 3584 3314 3078 
Q 3713 2572 3713 1747 
Q 3713 922 3314 415 
Q 2916 -91 2278 -91 
Q 1894 -91 1617 61 
Q 1341 213 1159 525 
L 1159 0 
L 581 0 
L 581 4863 
L 1159 4863 
L 1159 2969 
z
" transform="scale(0.015625)"/>
      <path id="DejaVuSans-39" d="M 703 97 
L 703 672 
Q 941 559 1184 500 
Q 1428 441 1663 441 
Q 2288 441 2617 861 
Q 2947 1281 2994 2138 
Q 2813 1869 2534 1725 
Q 2256 1581 1919 1581 
Q 1219 1581 811 2004 
Q 403 2428 403 3163 
Q 403 3881 828 4315 
Q 1253 4750 1959 4750 
Q 2769 4750 3195 4129 
Q 3622 3509 3622 2328 
Q 3622 1225 3098 567 
Q 2575 -91 1691 -91 
Q 1453 -91 1209 -44 
Q 966 3 703 97 
z
M 1959 2075 
Q 2384 2075 2632 2365 
Q 2881 2656 2881 3163 
Q 2881 3666 2632 3958 
Q 2384 4250 1959 4250 
Q 1534 4250 1286 3958 
Q 1038 3666 1038 3163 
Q 1038 2656 1286 2365 
Q 1534 2075 1959 2075 
z
" transform="scale(0.015625)"/>
     </defs>
     <use xlink:href="#DejaVuSans-62"/>
     <use xlink:href="#DejaVuSans-65" x="63.476562"/>
     <use xlink:href="#DejaVuSans-73" x="125"/>
     <use xlink:href="#DejaVuSans-74" x="177.099609"/>
     <use xlink:href="#DejaVuSans-20" x="216.308594"/>
     <use xlink:href="#DejaVuSans-32" x="248.095703"/>
     <use xlink:href="#DejaVuSans-30" x="311.71875"/>
     <use xlink:href="#DejaVuSans-30" x="375.341797"/>
     <use xlink:href="#DejaVuSans-39" x="438.964844"/>
    </g>
   </g>
   <g id="text_18">
    <!-- bbob f3, 3-D -->
    <g transform="translate(60.632064 38.111366)scale(0.102 -0.102)">
     <defs>
      <path id="DejaVuSans-33" d="M 2597 2516 
Q 3050 2419 3304 2112 
Q 3559 1806 3559 1356 
Q 3559 666 3084 287 
Q 2609 -91 1734 -91 
Q 1441 -91 1130 -33 
Q 819 25 488 141 
L 488 750 
Q 750 597 1062 519 
Q 1375 441 1716 441 
Q 2309 441 2620 675 
Q 2931 909 2931 1356 
Q 2931 1769 2642 2001 
Q 2353 2234 1838 2234 
L 1294 2234 
L 1294 2753 
L 1863 2753 
Q 2328 2753 2575 2939 
Q 2822 3125 2822 3475 
Q 2822 3834 2567 4026 
Q 2313 4219 1838 4219 
Q 1578 4219 1281 4162 
Q 984 4106 628 3988 
L 628 4550 
Q 988 4650 1302 4700 
Q 1616 4750 1894 4750 
Q 2613 4750 3031 4423 
Q 3450 4097 3450 3541 
Q 3450 3153 3228 2886 
Q 3006 2619 2597 2516 
z
" transform="scale(0.015625)"/>
      <path id="DejaVuSans-44" d="M 1259 4147 
L 1259 519 
L 2022 519 
Q 2988 519 3436 956 
Q 3884 1394 3884 2338 
Q 3884 3275 3436 3711 
Q 2988 4147 2022 4147 
L 1259 4147 
z
M 628 4666 
L 1925 4666 
Q 3281 4666 3915 4102 
Q 4550 3538 4550 2338 
Q 4550 1131 3912 565 
Q 3275 0 1925 0 
L 628 0 
L 628 4666 
z
" transform="scale(0.015625)"/>
     </defs>
     <use xlink:href="#DejaVuSans-62"/>
     <use xlink:href="#DejaVuSans-62" x="63.476562"/>
     <use xlink:href="#DejaVuSans-6f" x="126.953125"/>
     <use xlink:href="#DejaVuSans-62" x="188.134766"/>
     <use xlink:href="#DejaVuSans-20" x="251.611328"/>
     <use xlink:href="#DejaVuSans-66" x="283.398438"/>
     <use xlink:href="#DejaVuSans-33" x="318.603516"/>
     <use xlink:href="#DejaVuSans-2c" x="382.226562"/>
     <use xlink:href="#DejaVuSans-20" x="414.013672"/>
     <use xlink:href="#DejaVuSans-33" x="445.800781"/>
     <use xlink:href="#DejaVuSans-2d" x="509.423828"/>
     <use xlink:href="#DejaVuSans-44" x="545.507812"/>
    </g>
    <!-- 51 targets: 100..1e-08 -->
    <g transform="translate(60.632064 49.533135)scale(0.102 -0.102)">
     <defs>
      <path id="DejaVuSans-35" d="M 691 4666 
L 3169 4666 
L 3169 4134 
L 1269 4134 
L 1269 2991 
Q 1406 3038 1543 3061 
Q 1681 3084 1819 3084 
Q 2600 3084 3056 2656 
Q 3513 2228 3513 1497 
Q 3513 744 3044 326 
Q 2575 -91 1722 -91 
Q 1428 -91 1123 -41 
Q 819 9 494 109 
L 494 744 
Q 775 591 1075 516 
Q 1375 441 1709 441 
Q 2250 441 2565 725 
Q 2881 1009 2881 1497 
Q 2881 1984 2565 2268 
Q 2250 2553 1709 2553 
Q 1456 2553 1204 2497 
Q 953 2441 691 2322 
L 691 4666 
z
" transform="scale(0.015625)"/>
      <path id="DejaVuSans-3a" d="M 750 794 
L 1409 794 
L 1409 0 
L 750 0 
L 750 794 
z
M 750 3309 
L 1409 3309 
L 1409 2516 
L 750 2516 
L 750 3309 
z
" transform="scale(0.015625)"/>
     </defs>
     <use xlink:href="#DejaVuSans-35"/>
     <use xlink:href="#DejaVuSans-31" x="63.623047"/>
     <use xlink:href="#DejaVuSans-20" x="127.246094"/>
     <use xlink:href="#DejaVuSans-74" x="159.033203"/>
     <use xlink:href="#DejaVuSans-61" x="198.242188"/>
     <use xlink:href="#DejaVuSans-72" x="259.521484"/>
     <use xlink:href="#DejaVuSans-67" x="298.884766"/>
     <use xlink:href="#DejaVuSans-65" x="362.361328"/>
     <use xlink:href="#DejaVuSans-74" x="423.884766"/>
     <use xlink:href="#DejaVuSans-73" x="463.09375"/>
     <use xlink:href="#DejaVuSans-3a" x="515.193359"/>
     <use xlink:href="#DejaVuSans-20" x="548.884766"/>
     <use xlink:href="#DejaVuSans-31" x="580.671875"/>
     <use xlink:href="#DejaVuSans-30" x="644.294922"/>
     <use xlink:href="#DejaVuSans-30" x="707.917969"/>
     <use xlink:href="#DejaVuSans-2e" x="771.541016"/>
     <use xlink:href="#DejaVuSans-2e" x="803.328125"/>
     <use xlink:href="#DejaVuSans-31" x="835.115234"/>
     <use xlink:href="#DejaVuSans-65" x="898.738281"/>
     <use xlink:href="#DejaVuSans-2d" x="960.261719"/>
     <use xlink:href="#DejaVuSans-30" x="996.345703"/>
     <use xlink:href="#DejaVuSans-38" x="1059.96875"/>
    </g>
    <!-- 15 instances -->
    <g transform="translate(60.632064 60.954904)scale(0.102 -0.102)">
     <use xlink:href="#DejaVuSans-31"/>
     <use xlink:href="#DejaVuSans-35" x="63.623047"/>
     <use xlink:href="#DejaVuSans-20" x="127.246094"/>
     <use xlink:href="#DejaVuSans-69" x="159.033203"/>
     <use xlink:href="#DejaVuSans-6e" x="186.816406"/>
     <use xlink:href="#DejaVuSans-73" x="250.195312"/>
     <use xlink:href="#DejaVuSans-74" x="302.294922"/>
     <use xlink:href="#DejaVuSans-61" x="341.503906"/>
     <use xlink:href="#DejaVuSans-6e" x="402.783203"/>
     <use xlink:href="#DejaVuSans-63" x="466.162109"/>
     <use xlink:href="#DejaVuSans-65" x="521.142578"/>
     <use xlink:href="#DejaVuSans-73" x="582.666016"/>
    </g>
   </g>
   <g id="text_19">
    <!-- v2.6 -->
    <g style="fill: #808080" transform="translate(198.292262 294.151352)scale(0.1 -0.1)">
     <use xlink:href="#DejaVuSans-76"/>
     <use xlink:href="#DejaVuSans-32" x="59.179688"/>
     <use xlink:href="#DejaVuSans-2e" x="122.802734"/>
     <use xlink:href="#DejaVuSans-36" x="154.589844"/>
    </g>
   </g>
   <g id="text_20">
    <!-- 3 Rastrigin separable -->
    <g transform="translate(102.792262 21.648)scale(0.2 -0.2)">
     <defs>
      <path id="DejaVuSans-52" d="M 2841 2188 
Q 3044 2119 3236 1894 
Q 3428 1669 3622 1275 
L 4263 0 
L 3584 0 
L 2988 1197 
Q 2756 1666 2539 1819 
Q 2322 1972 1947 1972 
L 1259 1972 
L 1259 0 
L 628 0 
L 628 4666 
L 2053 4666 
Q 2853 4666 3247 4331 
Q 3641 3997 3641 3322 
Q 3641 2881 3436 2590 
Q 3231 2300 2841 2188 
z
M 1259 4147 
L 1259 2491 
L 2053 2491 
Q 2509 2491 2742 2702 
Q 2975 2913 2975 3322 
Q 2975 3731 2742 3939 
Q 2509 4147 2053 4147 
L 1259 4147 
z
" transform="scale(0.015625)"/>
     </defs>
     <use xlink:href="#DejaVuSans-33"/>
     <use xlink:href="#DejaVuSans-20" x="63.623047"/>
     <use xlink:href="#DejaVuSans-52" x="95.410156"/>
     <use xlink:href="#DejaVuSans-61" x="162.642578"/>
     <use xlink:href="#DejaVuSans-73" x="223.921875"/>
     <use xlink:href="#DejaVuSans-74" x="276.021484"/>
     <use xlink:href="#DejaVuSans-72" x="315.230469"/>
     <use xlink:href="#DejaVuSans-69" x="356.34375"/>
     <use xlink:href="#DejaVuSans-67" x="384.126953"/>
     <use xlink:href="#DejaVuSans-69" x="447.603516"/>
     <use xlink:href="#DejaVuSans-6e" x="475.386719"/>
     <use xlink:href="#DejaVuSans-20" x="538.765625"/>
     <use xlink:href="#DejaVuSans-73" x="570.552734"/>
     <use xlink:href="#DejaVuSans-65" x="622.652344"/>
     <use xlink:href="#DejaVuSans-70" x="684.175781"/>
     <use xlink:href="#DejaVuSans-61" x="747.652344"/>
     <use xlink:href="#DejaVuSans-72" x="808.931641"/>
     <use xlink:href="#DejaVuSans-61" x="850.044922"/>
     <use xlink:href="#DejaVuSans-62" x="911.324219"/>
     <use xlink:href="#DejaVuSans-6c" x="974.800781"/>
     <use xlink:href="#DejaVuSans-65" x="1002.583984"/>
    </g>
   </g>
  </g>
 </g>
 <defs>
  <clipPath id="pdb3ae47d57">
   <rect x="57.6" y="27.648" width="303.2064" height="271.296"/>
  </clipPath>
 </defs>
</svg>
