<?xml version="1.0" encoding="utf-8" standalone="no"?>
<!DOCTYPE svg PUBLIC "-//W3C//DTD SVG 1.1//EN"
  "http://www.w3.org/Graphics/SVG/1.1/DTD/svg11.dtd">
<svg xmlns:xlink="http://www.w3.org/1999/xlink" width="460.8pt" height="345.6pt" viewBox="0 0 460.8 345.6" xmlns="http://www.w3.org/2000/svg" version="1.1">
 <metadata>
  <rdf:RDF xmlns:dc="http://purl.org/dc/elements/1.1/" xmlns:cc="http://creativecommons.org/ns#" xmlns:rdf="http://www.w3.org/1999/02/22-rdf-syntax-ns#">
   <cc:Work>
    <dc:type rdf:resource="http://purl.org/dc/dcmitype/StillImage"/>
    <dc:date>2024-05-29T08:12:01.120034</dc:date>
    <dc:format>image/svg+xml</dc:format>
    <dc:creator>
     <cc:Agent>
      <dc:title>Matplotlib v3.5.1, https://matplotlib.org/</dc:title>
     </cc:Agent>
    </dc:creator>
   </cc:Work>
  </rdf:RDF>
 </metadata>
 <defs>
  <style type="text/css">*{stroke-linejoin: round; stroke-linecap: butt}</style>
 </defs>
 <g id="figure_1">
  <g id="patch_1">
   <path d="M 0 345.6 
L 460.8 345.6 
L 460.8 0 
L 0 0 
z
" style="fill: #ffffff"/>
  </g>
  <g id="axes_1">
   <g id="patch_2">
    <path d="M 57.6 298.944 
L 360.8064 298.944 
L 360.8064 27.648 
L 57.6 27.648 
z
" style="fill: #ffffff"/>
   </g>
   <g id="line2d_1">
    <path d="M 89.668958 298.944 
L 89.668958 293.624471 
L 99.950294 293.624471 
L 99.950294 288.304941 
L 103.544339 288.304941 
L 103.544339 282.985412 
L 109.159456 282.985412 
L 109.159456 277.665882 
L 110.335561 277.665882 
L 110.335561 272.346353 
L 111.442442 272.346353 
L 111.442442 267.026824 
L 112.989468 267.026824 
L 112.989468 261.707294 
L 113.954374 261.707294 
L 113.954374 256.387765 
L 114.872193 256.387765 
L 114.872193 251.068235 
L 115.747307 251.068235 
L 115.747307 245.748706 
L 116.170056 245.748706 
L 116.170056 240.429176 
L 116.583514 240.429176 
L 116.583514 235.109647 
L 117.384126 235.109647 
L 117.384126 229.790118 
L 117.772007 229.790118 
L 117.772007 224.470588 
L 118.152051 224.470588 
L 118.152051 213.831529 
L 118.524569 213.831529 
L 118.524569 208.512 
L 119.599808 208.512 
L 119.599808 203.192471 
L 120.28394 203.192471 
L 120.28394 197.872941 
L 121.581803 197.872941 
L 121.581803 192.553412 
L 122.19863 192.553412 
L 122.19863 181.914353 
L 122.795872 181.914353 
L 122.795872 176.594824 
L 123.08753 176.594824 
L 123.08753 165.955765 
L 123.657621 165.955765 
L 123.657621 160.636235 
L 123.936316 160.636235 
L 123.936316 155.316706 
L 124.481616 155.316706 
L 124.481616 149.997176 
L 125.271028 149.997176 
L 125.271028 144.677647 
L 125.526971 144.677647 
L 125.526971 139.358118 
L 125.779479 139.358118 
L 125.779479 134.038588 
L 126.028642 134.038588 
L 126.028642 128.719059 
L 126.517282 128.719059 
L 126.517282 123.399529 
L 126.993549 123.399529 
L 126.993549 118.08 
L 127.227236 118.08 
L 127.227236 107.440941 
L 127.686077 107.440941 
L 127.686077 102.121412 
L 127.911368 102.121412 
L 127.911368 96.801882 
L 128.57149 96.801882 
L 128.57149 91.482353 
L 128.786481 91.482353 
L 128.786481 86.162824 
L 129.209231 86.162824 
L 129.209231 80.843294 
L 129.417095 80.843294 
L 129.417095 75.523765 
L 129.622688 75.523765 
L 129.622688 70.204235 
L 130.027253 70.204235 
L 130.027253 64.884706 
L 130.4233 64.884706 
L 130.4233 59.565176 
L 130.618241 59.565176 
L 130.618241 54.245647 
L 131.002163 54.245647 
L 131.002163 48.926118 
L 131.191226 48.926118 
L 131.191226 43.606588 
L 131.378407 43.606588 
L 131.378407 38.287059 
L 131.563744 38.287059 
L 131.563744 32.967529 
L 132.109044 32.967529 
L 132.109044 27.648 
L 360.8064 27.648 
" style="fill: none; stroke: #f5deb3; stroke-width: 4; stroke-linecap: square"/>
   </g>
   <g id="line2d_2">
    <defs>
     <path id="m470c52a817" d="M 0 7.778175 
L 7.778175 0 
L 0 -7.778175 
L -7.778175 0 
z
" style="stroke: #f5deb3; stroke-width: 1.5; stroke-linejoin: miter"/>
    </defs>
    <g>
     <use xlink:href="#m470c52a817" x="126.517282" y="123.399529" style="fill: #f5deb3; stroke: #f5deb3; stroke-width: 1.5; stroke-linejoin: miter"/>
     <use xlink:href="#m470c52a817" x="132.109044" y="32.967529" style="fill: #f5deb3; stroke: #f5deb3; stroke-width: 1.5; stroke-linejoin: miter"/>
     <use xlink:href="#m470c52a817" x="132.109044" y="27.648" style="fill: #f5deb3; stroke: #f5deb3; stroke-width: 1.5; stroke-linejoin: miter"/>
     <use xlink:href="#m470c52a817" x="132.109044" y="27.648" style="fill: #f5deb3; stroke: #f5deb3; stroke-width: 1.5; stroke-linejoin: miter"/>
     <use xlink:href="#m470c52a817" x="360.8064" y="27.648" style="fill: #f5deb3; stroke: #f5deb3; stroke-width: 1.5; stroke-linejoin: miter"/>
    </g>
   </g>
   <g id="line2d_3">
    <path style="fill: none; stroke: #f5deb3; stroke-width: 4; stroke-linecap: square"/>
    <g/>
   </g>
   <g id="line2d_4">
    <path d="M 360.8064 27.648 
L 380.514816 33.07392 
" style="fill: none; stroke: #f5deb3; stroke-width: 4; stroke-linecap: square"/>
    <g>
     <use xlink:href="#m470c52a817" x="360.8064" y="27.648" style="fill: #f5deb3; stroke: #f5deb3; stroke-width: 1.5; stroke-linejoin: miter"/>
     <use xlink:href="#m470c52a817" x="380.514816" y="33.07392" style="fill: #f5deb3; stroke: #f5deb3; stroke-width: 1.5; stroke-linejoin: miter"/>
    </g>
   </g>
   <g id="matplotlib.axis_1">
    <g id="xtick_1">
     <g id="line2d_5">
      <path d="M 57.6 298.944 
L 57.6 27.648 
" clip-path="url(#pf6b56673a6)" style="fill: none; stroke: #b0b0b0; stroke-width: 0.8; stroke-linecap: square"/>
     </g>
     <g id="line2d_6">
      <defs>
       <path id="m4ac6c9030e" d="M 0 0 
L 0 3.5 
" style="stroke: #000000; stroke-width: 0.8"/>
      </defs>
      <g>
       <use xlink:href="#m4ac6c9030e" x="57.6" y="298.944" style="stroke: #000000; stroke-width: 0.8"/>
      </g>
     </g>
     <g id="text_1">
      <!-- 0 -->
      <g transform="translate(52.191875 318.861344)scale(0.17 -0.17)">
       <defs>
        <path id="DejaVuSans-30" d="M 2034 4250 
Q 1547 4250 1301 3770 
Q 1056 3291 1056 2328 
Q 1056 1369 1301 889 
Q 1547 409 2034 409 
Q 2525 409 2770 889 
Q 3016 1369 3016 2328 
Q 3016 3291 2770 3770 
Q 2525 4250 2034 4250 
z
M 2034 4750 
Q 2819 4750 3233 4129 
Q 3647 3509 3647 2328 
Q 3647 1150 3233 529 
Q 2819 -91 2034 -91 
Q 1250 -91 836 529 
Q 422 1150 422 2328 
Q 422 3509 836 4129 
Q 1250 4750 2034 4750 
z
" transform="scale(0.015625)"/>
       </defs>
       <use xlink:href="#DejaVuSans-30"/>
      </g>
     </g>
    </g>
    <g id="xtick_2">
     <g id="line2d_7">
      <path d="M 144.2304 298.944 
L 144.2304 27.648 
" clip-path="url(#pf6b56673a6)" style="fill: none; stroke: #b0b0b0; stroke-width: 0.8; stroke-linecap: square"/>
     </g>
     <g id="line2d_8">
      <g>
       <use xlink:href="#m4ac6c9030e" x="144.2304" y="298.944" style="stroke: #000000; stroke-width: 0.8"/>
      </g>
     </g>
     <g id="text_2">
      <!-- 2 -->
      <g transform="translate(138.822275 318.861344)scale(0.17 -0.17)">
       <defs>
        <path id="DejaVuSans-32" d="M 1228 531 
L 3431 531 
L 3431 0 
L 469 0 
L 469 531 
Q 828 903 1448 1529 
Q 2069 2156 2228 2338 
Q 2531 2678 2651 2914 
Q 2772 3150 2772 3378 
Q 2772 3750 2511 3984 
Q 2250 4219 1831 4219 
Q 1534 4219 1204 4116 
Q 875 4013 500 3803 
L 500 4441 
Q 881 4594 1212 4672 
Q 1544 4750 1819 4750 
Q 2544 4750 2975 4387 
Q 3406 4025 3406 3419 
Q 3406 3131 3298 2873 
Q 3191 2616 2906 2266 
Q 2828 2175 2409 1742 
Q 1991 1309 1228 531 
z
" transform="scale(0.015625)"/>
       </defs>
       <use xlink:href="#DejaVuSans-32"/>
      </g>
     </g>
    </g>
    <g id="xtick_3">
     <g id="line2d_9">
      <path d="M 230.8608 298.944 
L 230.8608 27.648 
" clip-path="url(#pf6b56673a6)" style="fill: none; stroke: #b0b0b0; stroke-width: 0.8; stroke-linecap: square"/>
     </g>
     <g id="line2d_10">
      <g>
       <use xlink:href="#m4ac6c9030e" x="230.8608" y="298.944" style="stroke: #000000; stroke-width: 0.8"/>
      </g>
     </g>
     <g id="text_3">
      <!-- 4 -->
      <g transform="translate(225.452675 318.861344)scale(0.17 -0.17)">
       <defs>
        <path id="DejaVuSans-34" d="M 2419 4116 
L 825 1625 
L 2419 1625 
L 2419 4116 
z
M 2253 4666 
L 3047 4666 
L 3047 1625 
L 3713 1625 
L 3713 1100 
L 3047 1100 
L 3047 0 
L 2419 0 
L 2419 1100 
L 313 1100 
L 313 1709 
L 2253 4666 
z
" transform="scale(0.015625)"/>
       </defs>
       <use xlink:href="#DejaVuSans-34"/>
      </g>
     </g>
    </g>
    <g id="xtick_4">
     <g id="line2d_11">
      <path d="M 317.4912 298.944 
L 317.4912 27.648 
" clip-path="url(#pf6b56673a6)" style="fill: none; stroke: #b0b0b0; stroke-width: 0.8; stroke-linecap: square"/>
     </g>
     <g id="line2d_12">
      <g>
       <use xlink:href="#m4ac6c9030e" x="317.4912" y="298.944" style="stroke: #000000; stroke-width: 0.8"/>
      </g>
     </g>
     <g id="text_4">
      <!-- 6 -->
      <g transform="translate(312.083075 318.861344)scale(0.17 -0.17)">
       <defs>
        <path id="DejaVuSans-36" d="M 2113 2584 
Q 1688 2584 1439 2293 
Q 1191 2003 1191 1497 
Q 1191 994 1439 701 
Q 1688 409 2113 409 
Q 2538 409 2786 701 
Q 3034 994 3034 1497 
Q 3034 2003 2786 2293 
Q 2538 2584 2113 2584 
z
M 3366 4563 
L 3366 3988 
Q 3128 4100 2886 4159 
Q 2644 4219 2406 4219 
Q 1781 4219 1451 3797 
Q 1122 3375 1075 2522 
Q 1259 2794 1537 2939 
Q 1816 3084 2150 3084 
Q 2853 3084 3261 2657 
Q 3669 2231 3669 1497 
Q 3669 778 3244 343 
Q 2819 -91 2113 -91 
Q 1303 -91 875 529 
Q 447 1150 447 2328 
Q 447 3434 972 4092 
Q 1497 4750 2381 4750 
Q 2619 4750 2861 4703 
Q 3103 4656 3366 4563 
z
" transform="scale(0.015625)"/>
       </defs>
       <use xlink:href="#DejaVuSans-36"/>
      </g>
     </g>
    </g>
    <g id="xtick_5">
     <g id="line2d_13">
      <path d="M 100.9152 298.944 
L 100.9152 27.648 
" clip-path="url(#pf6b56673a6)" style="fill: none; stroke: #b0b0b0; stroke-width: 0.8; stroke-linecap: square"/>
     </g>
     <g id="line2d_14">
      <defs>
       <path id="m2160d4e76a" d="M 0 0 
L 0 2 
" style="stroke: #000000; stroke-width: 0.6"/>
      </defs>
      <g>
       <use xlink:href="#m2160d4e76a" x="100.9152" y="298.944" style="stroke: #000000; stroke-width: 0.6"/>
      </g>
     </g>
    </g>
    <g id="xtick_6">
     <g id="line2d_15">
      <path d="M 187.5456 298.944 
L 187.5456 27.648 
" clip-path="url(#pf6b56673a6)" style="fill: none; stroke: #b0b0b0; stroke-width: 0.8; stroke-linecap: square"/>
     </g>
     <g id="line2d_16">
      <g>
       <use xlink:href="#m2160d4e76a" x="187.5456" y="298.944" style="stroke: #000000; stroke-width: 0.6"/>
      </g>
     </g>
    </g>
    <g id="xtick_7">
     <g id="line2d_17">
      <path d="M 274.176 298.944 
L 274.176 27.648 
" clip-path="url(#pf6b56673a6)" style="fill: none; stroke: #b0b0b0; stroke-width: 0.8; stroke-linecap: square"/>
     </g>
     <g id="line2d_18">
      <g>
       <use xlink:href="#m2160d4e76a" x="274.176" y="298.944" style="stroke: #000000; stroke-width: 0.6"/>
      </g>
     </g>
    </g>
    <g id="xtick_8">
     <g id="line2d_19">
      <path d="M 360.8064 298.944 
L 360.8064 27.648 
" clip-path="url(#pf6b56673a6)" style="fill: none; stroke: #b0b0b0; stroke-width: 0.8; stroke-linecap: square"/>
     </g>
     <g id="line2d_20">
      <g>
       <use xlink:href="#m2160d4e76a" x="360.8064" y="298.944" style="stroke: #000000; stroke-width: 0.6"/>
      </g>
     </g>
    </g>
    <g id="text_5">
     <!-- log10(# f-evals / dimension) -->
     <g transform="translate(88.823278 339.314156)scale(0.17 -0.17)">
      <defs>
       <path id="DejaVuSans-6c" d="M 603 4863 
L 1178 4863 
L 1178 0 
L 603 0 
L 603 4863 
z
" transform="scale(0.015625)"/>
       <path id="DejaVuSans-6f" d="M 1959 3097 
Q 1497 3097 1228 2736 
Q 959 2375 959 1747 
Q 959 1119 1226 758 
Q 1494 397 1959 397 
Q 2419 397 2687 759 
Q 2956 1122 2956 1747 
Q 2956 2369 2687 2733 
Q 2419 3097 1959 3097 
z
M 1959 3584 
Q 2709 3584 3137 3096 
Q 3566 2609 3566 1747 
Q 3566 888 3137 398 
Q 2709 -91 1959 -91 
Q 1206 -91 779 398 
Q 353 888 353 1747 
Q 353 2609 779 3096 
Q 1206 3584 1959 3584 
z
" transform="scale(0.015625)"/>
       <path id="DejaVuSans-67" d="M 2906 1791 
Q 2906 2416 2648 2759 
Q 2391 3103 1925 3103 
Q 1463 3103 1205 2759 
Q 947 2416 947 1791 
Q 947 1169 1205 825 
Q 1463 481 1925 481 
Q 2391 481 2648 825 
Q 2906 1169 2906 1791 
z
M 3481 434 
Q 3481 -459 3084 -895 
Q 2688 -1331 1869 -1331 
Q 1566 -1331 1297 -1286 
Q 1028 -1241 775 -1147 
L 775 -588 
Q 1028 -725 1275 -790 
Q 1522 -856 1778 -856 
Q 2344 -856 2625 -561 
Q 2906 -266 2906 331 
L 2906 616 
Q 2728 306 2450 153 
Q 2172 0 1784 0 
Q 1141 0 747 490 
Q 353 981 353 1791 
Q 353 2603 747 3093 
Q 1141 3584 1784 3584 
Q 2172 3584 2450 3431 
Q 2728 3278 2906 2969 
L 2906 3500 
L 3481 3500 
L 3481 434 
z
" transform="scale(0.015625)"/>
       <path id="DejaVuSans-31" d="M 794 531 
L 1825 531 
L 1825 4091 
L 703 3866 
L 703 4441 
L 1819 4666 
L 2450 4666 
L 2450 531 
L 3481 531 
L 3481 0 
L 794 0 
L 794 531 
z
" transform="scale(0.015625)"/>
       <path id="DejaVuSans-28" d="M 1984 4856 
Q 1566 4138 1362 3434 
Q 1159 2731 1159 2009 
Q 1159 1288 1364 580 
Q 1569 -128 1984 -844 
L 1484 -844 
Q 1016 -109 783 600 
Q 550 1309 550 2009 
Q 550 2706 781 3412 
Q 1013 4119 1484 4856 
L 1984 4856 
z
" transform="scale(0.015625)"/>
       <path id="DejaVuSans-23" d="M 3272 2816 
L 2363 2816 
L 2100 1772 
L 3016 1772 
L 3272 2816 
z
M 2803 4594 
L 2478 3297 
L 3391 3297 
L 3719 4594 
L 4219 4594 
L 3897 3297 
L 4872 3297 
L 4872 2816 
L 3775 2816 
L 3519 1772 
L 4513 1772 
L 4513 1294 
L 3397 1294 
L 3072 0 
L 2572 0 
L 2894 1294 
L 1978 1294 
L 1656 0 
L 1153 0 
L 1478 1294 
L 494 1294 
L 494 1772 
L 1594 1772 
L 1856 2816 
L 850 2816 
L 850 3297 
L 1978 3297 
L 2297 4594 
L 2803 4594 
z
" transform="scale(0.015625)"/>
       <path id="DejaVuSans-20" transform="scale(0.015625)"/>
       <path id="DejaVuSans-66" d="M 2375 4863 
L 2375 4384 
L 1825 4384 
Q 1516 4384 1395 4259 
Q 1275 4134 1275 3809 
L 1275 3500 
L 2222 3500 
L 2222 3053 
L 1275 3053 
L 1275 0 
L 697 0 
L 697 3053 
L 147 3053 
L 147 3500 
L 697 3500 
L 697 3744 
Q 697 4328 969 4595 
Q 1241 4863 1831 4863 
L 2375 4863 
z
" transform="scale(0.015625)"/>
       <path id="DejaVuSans-2d" d="M 313 2009 
L 1997 2009 
L 1997 1497 
L 313 1497 
L 313 2009 
z
" transform="scale(0.015625)"/>
       <path id="DejaVuSans-65" d="M 3597 1894 
L 3597 1613 
L 953 1613 
Q 991 1019 1311 708 
Q 1631 397 2203 397 
Q 2534 397 2845 478 
Q 3156 559 3463 722 
L 3463 178 
Q 3153 47 2828 -22 
Q 2503 -91 2169 -91 
Q 1331 -91 842 396 
Q 353 884 353 1716 
Q 353 2575 817 3079 
Q 1281 3584 2069 3584 
Q 2775 3584 3186 3129 
Q 3597 2675 3597 1894 
z
M 3022 2063 
Q 3016 2534 2758 2815 
Q 2500 3097 2075 3097 
Q 1594 3097 1305 2825 
Q 1016 2553 972 2059 
L 3022 2063 
z
" transform="scale(0.015625)"/>
       <path id="DejaVuSans-76" d="M 191 3500 
L 800 3500 
L 1894 563 
L 2988 3500 
L 3597 3500 
L 2284 0 
L 1503 0 
L 191 3500 
z
" transform="scale(0.015625)"/>
       <path id="DejaVuSans-61" d="M 2194 1759 
Q 1497 1759 1228 1600 
Q 959 1441 959 1056 
Q 959 750 1161 570 
Q 1363 391 1709 391 
Q 2188 391 2477 730 
Q 2766 1069 2766 1631 
L 2766 1759 
L 2194 1759 
z
M 3341 1997 
L 3341 0 
L 2766 0 
L 2766 531 
Q 2569 213 2275 61 
Q 1981 -91 1556 -91 
Q 1019 -91 701 211 
Q 384 513 384 1019 
Q 384 1609 779 1909 
Q 1175 2209 1959 2209 
L 2766 2209 
L 2766 2266 
Q 2766 2663 2505 2880 
Q 2244 3097 1772 3097 
Q 1472 3097 1187 3025 
Q 903 2953 641 2809 
L 641 3341 
Q 956 3463 1253 3523 
Q 1550 3584 1831 3584 
Q 2591 3584 2966 3190 
Q 3341 2797 3341 1997 
z
" transform="scale(0.015625)"/>
       <path id="DejaVuSans-73" d="M 2834 3397 
L 2834 2853 
Q 2591 2978 2328 3040 
Q 2066 3103 1784 3103 
Q 1356 3103 1142 2972 
Q 928 2841 928 2578 
Q 928 2378 1081 2264 
Q 1234 2150 1697 2047 
L 1894 2003 
Q 2506 1872 2764 1633 
Q 3022 1394 3022 966 
Q 3022 478 2636 193 
Q 2250 -91 1575 -91 
Q 1294 -91 989 -36 
Q 684 19 347 128 
L 347 722 
Q 666 556 975 473 
Q 1284 391 1588 391 
Q 1994 391 2212 530 
Q 2431 669 2431 922 
Q 2431 1156 2273 1281 
Q 2116 1406 1581 1522 
L 1381 1569 
Q 847 1681 609 1914 
Q 372 2147 372 2553 
Q 372 3047 722 3315 
Q 1072 3584 1716 3584 
Q 2034 3584 2315 3537 
Q 2597 3491 2834 3397 
z
" transform="scale(0.015625)"/>
       <path id="DejaVuSans-2f" d="M 1625 4666 
L 2156 4666 
L 531 -594 
L 0 -594 
L 1625 4666 
z
" transform="scale(0.015625)"/>
       <path id="DejaVuSans-64" d="M 2906 2969 
L 2906 4863 
L 3481 4863 
L 3481 0 
L 2906 0 
L 2906 525 
Q 2725 213 2448 61 
Q 2172 -91 1784 -91 
Q 1150 -91 751 415 
Q 353 922 353 1747 
Q 353 2572 751 3078 
Q 1150 3584 1784 3584 
Q 2172 3584 2448 3432 
Q 2725 3281 2906 2969 
z
M 947 1747 
Q 947 1113 1208 752 
Q 1469 391 1925 391 
Q 2381 391 2643 752 
Q 2906 1113 2906 1747 
Q 2906 2381 2643 2742 
Q 2381 3103 1925 3103 
Q 1469 3103 1208 2742 
Q 947 2381 947 1747 
z
" transform="scale(0.015625)"/>
       <path id="DejaVuSans-69" d="M 603 3500 
L 1178 3500 
L 1178 0 
L 603 0 
L 603 3500 
z
M 603 4863 
L 1178 4863 
L 1178 4134 
L 603 4134 
L 603 4863 
z
" transform="scale(0.015625)"/>
       <path id="DejaVuSans-6d" d="M 3328 2828 
Q 3544 3216 3844 3400 
Q 4144 3584 4550 3584 
Q 5097 3584 5394 3201 
Q 5691 2819 5691 2113 
L 5691 0 
L 5113 0 
L 5113 2094 
Q 5113 2597 4934 2840 
Q 4756 3084 4391 3084 
Q 3944 3084 3684 2787 
Q 3425 2491 3425 1978 
L 3425 0 
L 2847 0 
L 2847 2094 
Q 2847 2600 2669 2842 
Q 2491 3084 2119 3084 
Q 1678 3084 1418 2786 
Q 1159 2488 1159 1978 
L 1159 0 
L 581 0 
L 581 3500 
L 1159 3500 
L 1159 2956 
Q 1356 3278 1631 3431 
Q 1906 3584 2284 3584 
Q 2666 3584 2933 3390 
Q 3200 3197 3328 2828 
z
" transform="scale(0.015625)"/>
       <path id="DejaVuSans-6e" d="M 3513 2113 
L 3513 0 
L 2938 0 
L 2938 2094 
Q 2938 2591 2744 2837 
Q 2550 3084 2163 3084 
Q 1697 3084 1428 2787 
Q 1159 2491 1159 1978 
L 1159 0 
L 581 0 
L 581 3500 
L 1159 3500 
L 1159 2956 
Q 1366 3272 1645 3428 
Q 1925 3584 2291 3584 
Q 2894 3584 3203 3211 
Q 3513 2838 3513 2113 
z
" transform="scale(0.015625)"/>
       <path id="DejaVuSans-29" d="M 513 4856 
L 1013 4856 
Q 1481 4119 1714 3412 
Q 1947 2706 1947 2009 
Q 1947 1309 1714 600 
Q 1481 -109 1013 -844 
L 513 -844 
Q 928 -128 1133 580 
Q 1338 1288 1338 2009 
Q 1338 2731 1133 3434 
Q 928 4138 513 4856 
z
" transform="scale(0.015625)"/>
      </defs>
      <use xlink:href="#DejaVuSans-6c"/>
      <use xlink:href="#DejaVuSans-6f" x="27.783203"/>
      <use xlink:href="#DejaVuSans-67" x="88.964844"/>
      <use xlink:href="#DejaVuSans-31" x="152.441406"/>
      <use xlink:href="#DejaVuSans-30" x="216.064453"/>
      <use xlink:href="#DejaVuSans-28" x="279.6875"/>
      <use xlink:href="#DejaVuSans-23" x="318.701172"/>
      <use xlink:href="#DejaVuSans-20" x="402.490234"/>
      <use xlink:href="#DejaVuSans-66" x="434.277344"/>
      <use xlink:href="#DejaVuSans-2d" x="463.982422"/>
      <use xlink:href="#DejaVuSans-65" x="500.066406"/>
      <use xlink:href="#DejaVuSans-76" x="561.589844"/>
      <use xlink:href="#DejaVuSans-61" x="620.769531"/>
      <use xlink:href="#DejaVuSans-6c" x="682.048828"/>
      <use xlink:href="#DejaVuSans-73" x="709.832031"/>
      <use xlink:href="#DejaVuSans-20" x="761.931641"/>
      <use xlink:href="#DejaVuSans-2f" x="793.71875"/>
      <use xlink:href="#DejaVuSans-20" x="827.410156"/>
      <use xlink:href="#DejaVuSans-64" x="859.197266"/>
      <use xlink:href="#DejaVuSans-69" x="922.673828"/>
      <use xlink:href="#DejaVuSans-6d" x="950.457031"/>
      <use xlink:href="#DejaVuSans-65" x="1047.869141"/>
      <use xlink:href="#DejaVuSans-6e" x="1109.392578"/>
      <use xlink:href="#DejaVuSans-73" x="1172.771484"/>
      <use xlink:href="#DejaVuSans-69" x="1224.871094"/>
      <use xlink:href="#DejaVuSans-6f" x="1252.654297"/>
      <use xlink:href="#DejaVuSans-6e" x="1313.835938"/>
      <use xlink:href="#DejaVuSans-29" x="1377.214844"/>
     </g>
    </g>
   </g>
   <g id="matplotlib.axis_2">
    <g id="ytick_1">
     <g id="line2d_21">
      <path d="M 57.6 298.944 
L 360.8064 298.944 
" clip-path="url(#pf6b56673a6)" style="fill: none; stroke: #b0b0b0; stroke-width: 0.8; stroke-linecap: square"/>
     </g>
     <g id="line2d_22">
      <defs>
       <path id="m361c7f42ba" d="M 0 0 
L -3.5 0 
" style="stroke: #000000; stroke-width: 0.8"/>
      </defs>
      <g>
       <use xlink:href="#m361c7f42ba" x="57.6" y="298.944" style="stroke: #000000; stroke-width: 0.8"/>
      </g>
     </g>
     <g id="text_6">
      <!-- 0.0 -->
      <g transform="translate(25.155 305.02275)scale(0.16 -0.16)">
       <defs>
        <path id="DejaVuSans-2e" d="M 684 794 
L 1344 794 
L 1344 0 
L 684 0 
L 684 794 
z
" transform="scale(0.015625)"/>
       </defs>
       <use xlink:href="#DejaVuSans-30"/>
       <use xlink:href="#DejaVuSans-2e" x="63.623047"/>
       <use xlink:href="#DejaVuSans-30" x="95.410156"/>
      </g>
     </g>
    </g>
    <g id="ytick_2">
     <g id="line2d_23">
      <path d="M 57.6 244.6848 
L 360.8064 244.6848 
" clip-path="url(#pf6b56673a6)" style="fill: none; stroke: #b0b0b0; stroke-width: 0.8; stroke-linecap: square"/>
     </g>
     <g id="line2d_24">
      <g>
       <use xlink:href="#m361c7f42ba" x="57.6" y="244.6848" style="stroke: #000000; stroke-width: 0.8"/>
      </g>
     </g>
     <g id="text_7">
      <!-- 0.2 -->
      <g transform="translate(25.155 250.76355)scale(0.16 -0.16)">
       <use xlink:href="#DejaVuSans-30"/>
       <use xlink:href="#DejaVuSans-2e" x="63.623047"/>
       <use xlink:href="#DejaVuSans-32" x="95.410156"/>
      </g>
     </g>
    </g>
    <g id="ytick_3">
     <g id="line2d_25">
      <path d="M 57.6 190.4256 
L 360.8064 190.4256 
" clip-path="url(#pf6b56673a6)" style="fill: none; stroke: #b0b0b0; stroke-width: 0.8; stroke-linecap: square"/>
     </g>
     <g id="line2d_26">
      <g>
       <use xlink:href="#m361c7f42ba" x="57.6" y="190.4256" style="stroke: #000000; stroke-width: 0.8"/>
      </g>
     </g>
     <g id="text_8">
      <!-- 0.4 -->
      <g transform="translate(25.155 196.50435)scale(0.16 -0.16)">
       <use xlink:href="#DejaVuSans-30"/>
       <use xlink:href="#DejaVuSans-2e" x="63.623047"/>
       <use xlink:href="#DejaVuSans-34" x="95.410156"/>
      </g>
     </g>
    </g>
    <g id="ytick_4">
     <g id="line2d_27">
      <path d="M 57.6 136.1664 
L 360.8064 136.1664 
" clip-path="url(#pf6b56673a6)" style="fill: none; stroke: #b0b0b0; stroke-width: 0.8; stroke-linecap: square"/>
     </g>
     <g id="line2d_28">
      <g>
       <use xlink:href="#m361c7f42ba" x="57.6" y="136.1664" style="stroke: #000000; stroke-width: 0.8"/>
      </g>
     </g>
     <g id="text_9">
      <!-- 0.6 -->
      <g transform="translate(25.155 142.24515)scale(0.16 -0.16)">
       <use xlink:href="#DejaVuSans-30"/>
       <use xlink:href="#DejaVuSans-2e" x="63.623047"/>
       <use xlink:href="#DejaVuSans-36" x="95.410156"/>
      </g>
     </g>
    </g>
    <g id="ytick_5">
     <g id="line2d_29">
      <path d="M 57.6 81.9072 
L 360.8064 81.9072 
" clip-path="url(#pf6b56673a6)" style="fill: none; stroke: #b0b0b0; stroke-width: 0.8; stroke-linecap: square"/>
     </g>
     <g id="line2d_30">
      <g>
       <use xlink:href="#m361c7f42ba" x="57.6" y="81.9072" style="stroke: #000000; stroke-width: 0.8"/>
      </g>
     </g>
     <g id="text_10">
      <!-- 0.8 -->
      <g transform="translate(25.155 87.98595)scale(0.16 -0.16)">
       <defs>
        <path id="DejaVuSans-38" d="M 2034 2216 
Q 1584 2216 1326 1975 
Q 1069 1734 1069 1313 
Q 1069 891 1326 650 
Q 1584 409 2034 409 
Q 2484 409 2743 651 
Q 3003 894 3003 1313 
Q 3003 1734 2745 1975 
Q 2488 2216 2034 2216 
z
M 1403 2484 
Q 997 2584 770 2862 
Q 544 3141 544 3541 
Q 544 4100 942 4425 
Q 1341 4750 2034 4750 
Q 2731 4750 3128 4425 
Q 3525 4100 3525 3541 
Q 3525 3141 3298 2862 
Q 3072 2584 2669 2484 
Q 3125 2378 3379 2068 
Q 3634 1759 3634 1313 
Q 3634 634 3220 271 
Q 2806 -91 2034 -91 
Q 1263 -91 848 271 
Q 434 634 434 1313 
Q 434 1759 690 2068 
Q 947 2378 1403 2484 
z
M 1172 3481 
Q 1172 3119 1398 2916 
Q 1625 2713 2034 2713 
Q 2441 2713 2670 2916 
Q 2900 3119 2900 3481 
Q 2900 3844 2670 4047 
Q 2441 4250 2034 4250 
Q 1625 4250 1398 4047 
Q 1172 3844 1172 3481 
z
" transform="scale(0.015625)"/>
       </defs>
       <use xlink:href="#DejaVuSans-30"/>
       <use xlink:href="#DejaVuSans-2e" x="63.623047"/>
       <use xlink:href="#DejaVuSans-38" x="95.410156"/>
      </g>
     </g>
    </g>
    <g id="ytick_6">
     <g id="line2d_31">
      <path d="M 57.6 27.648 
L 360.8064 27.648 
" clip-path="url(#pf6b56673a6)" style="fill: none; stroke: #b0b0b0; stroke-width: 0.8; stroke-linecap: square"/>
     </g>
     <g id="line2d_32">
      <g>
       <use xlink:href="#m361c7f42ba" x="57.6" y="27.648" style="stroke: #000000; stroke-width: 0.8"/>
      </g>
     </g>
     <g id="text_11">
      <!-- 1.0 -->
      <g transform="translate(25.155 33.72675)scale(0.16 -0.16)">
       <use xlink:href="#DejaVuSans-31"/>
       <use xlink:href="#DejaVuSans-2e" x="63.623047"/>
       <use xlink:href="#DejaVuSans-30" x="95.410156"/>
      </g>
     </g>
    </g>
    <g id="text_12">
     <!-- Fraction of function,target pairs -->
     <g transform="translate(17.619531 297.681)rotate(-90)scale(0.17 -0.17)">
      <defs>
       <path id="DejaVuSans-46" d="M 628 4666 
L 3309 4666 
L 3309 4134 
L 1259 4134 
L 1259 2759 
L 3109 2759 
L 3109 2228 
L 1259 2228 
L 1259 0 
L 628 0 
L 628 4666 
z
" transform="scale(0.015625)"/>
       <path id="DejaVuSans-72" d="M 2631 2963 
Q 2534 3019 2420 3045 
Q 2306 3072 2169 3072 
Q 1681 3072 1420 2755 
Q 1159 2438 1159 1844 
L 1159 0 
L 581 0 
L 581 3500 
L 1159 3500 
L 1159 2956 
Q 1341 3275 1631 3429 
Q 1922 3584 2338 3584 
Q 2397 3584 2469 3576 
Q 2541 3569 2628 3553 
L 2631 2963 
z
" transform="scale(0.015625)"/>
       <path id="DejaVuSans-63" d="M 3122 3366 
L 3122 2828 
Q 2878 2963 2633 3030 
Q 2388 3097 2138 3097 
Q 1578 3097 1268 2742 
Q 959 2388 959 1747 
Q 959 1106 1268 751 
Q 1578 397 2138 397 
Q 2388 397 2633 464 
Q 2878 531 3122 666 
L 3122 134 
Q 2881 22 2623 -34 
Q 2366 -91 2075 -91 
Q 1284 -91 818 406 
Q 353 903 353 1747 
Q 353 2603 823 3093 
Q 1294 3584 2113 3584 
Q 2378 3584 2631 3529 
Q 2884 3475 3122 3366 
z
" transform="scale(0.015625)"/>
       <path id="DejaVuSans-74" d="M 1172 4494 
L 1172 3500 
L 2356 3500 
L 2356 3053 
L 1172 3053 
L 1172 1153 
Q 1172 725 1289 603 
Q 1406 481 1766 481 
L 2356 481 
L 2356 0 
L 1766 0 
Q 1100 0 847 248 
Q 594 497 594 1153 
L 594 3053 
L 172 3053 
L 172 3500 
L 594 3500 
L 594 4494 
L 1172 4494 
z
" transform="scale(0.015625)"/>
       <path id="DejaVuSans-75" d="M 544 1381 
L 544 3500 
L 1119 3500 
L 1119 1403 
Q 1119 906 1312 657 
Q 1506 409 1894 409 
Q 2359 409 2629 706 
Q 2900 1003 2900 1516 
L 2900 3500 
L 3475 3500 
L 3475 0 
L 2900 0 
L 2900 538 
Q 2691 219 2414 64 
Q 2138 -91 1772 -91 
Q 1169 -91 856 284 
Q 544 659 544 1381 
z
M 1991 3584 
L 1991 3584 
z
" transform="scale(0.015625)"/>
       <path id="DejaVuSans-2c" d="M 750 794 
L 1409 794 
L 1409 256 
L 897 -744 
L 494 -744 
L 750 256 
L 750 794 
z
" transform="scale(0.015625)"/>
       <path id="DejaVuSans-70" d="M 1159 525 
L 1159 -1331 
L 581 -1331 
L 581 3500 
L 1159 3500 
L 1159 2969 
Q 1341 3281 1617 3432 
Q 1894 3584 2278 3584 
Q 2916 3584 3314 3078 
Q 3713 2572 3713 1747 
Q 3713 922 3314 415 
Q 2916 -91 2278 -91 
Q 1894 -91 1617 61 
Q 1341 213 1159 525 
z
M 3116 1747 
Q 3116 2381 2855 2742 
Q 2594 3103 2138 3103 
Q 1681 3103 1420 2742 
Q 1159 2381 1159 1747 
Q 1159 1113 1420 752 
Q 1681 391 2138 391 
Q 2594 391 2855 752 
Q 3116 1113 3116 1747 
z
" transform="scale(0.015625)"/>
      </defs>
      <use xlink:href="#DejaVuSans-46"/>
      <use xlink:href="#DejaVuSans-72" x="50.269531"/>
      <use xlink:href="#DejaVuSans-61" x="91.382812"/>
      <use xlink:href="#DejaVuSans-63" x="152.662109"/>
      <use xlink:href="#DejaVuSans-74" x="207.642578"/>
      <use xlink:href="#DejaVuSans-69" x="246.851562"/>
      <use xlink:href="#DejaVuSans-6f" x="274.634766"/>
      <use xlink:href="#DejaVuSans-6e" x="335.816406"/>
      <use xlink:href="#DejaVuSans-20" x="399.195312"/>
      <use xlink:href="#DejaVuSans-6f" x="430.982422"/>
      <use xlink:href="#DejaVuSans-66" x="492.164062"/>
      <use xlink:href="#DejaVuSans-20" x="527.369141"/>
      <use xlink:href="#DejaVuSans-66" x="559.15625"/>
      <use xlink:href="#DejaVuSans-75" x="594.361328"/>
      <use xlink:href="#DejaVuSans-6e" x="657.740234"/>
      <use xlink:href="#DejaVuSans-63" x="721.119141"/>
      <use xlink:href="#DejaVuSans-74" x="776.099609"/>
      <use xlink:href="#DejaVuSans-69" x="815.308594"/>
      <use xlink:href="#DejaVuSans-6f" x="843.091797"/>
      <use xlink:href="#DejaVuSans-6e" x="904.273438"/>
      <use xlink:href="#DejaVuSans-2c" x="967.652344"/>
      <use xlink:href="#DejaVuSans-74" x="999.439453"/>
      <use xlink:href="#DejaVuSans-61" x="1038.648438"/>
      <use xlink:href="#DejaVuSans-72" x="1099.927734"/>
      <use xlink:href="#DejaVuSans-67" x="1139.291016"/>
      <use xlink:href="#DejaVuSans-65" x="1202.767578"/>
      <use xlink:href="#DejaVuSans-74" x="1264.291016"/>
      <use xlink:href="#DejaVuSans-20" x="1303.5"/>
      <use xlink:href="#DejaVuSans-70" x="1335.287109"/>
      <use xlink:href="#DejaVuSans-61" x="1398.763672"/>
      <use xlink:href="#DejaVuSans-69" x="1460.042969"/>
      <use xlink:href="#DejaVuSans-72" x="1487.826172"/>
      <use xlink:href="#DejaVuSans-73" x="1528.939453"/>
     </g>
    </g>
   </g>
   <g id="line2d_33">
    <defs>
     <path id="m3bc1c9260b" d="M 0 1.5 
C 0.397805 1.5 0.77937 1.341951 1.06066 1.06066 
C 1.341951 0.77937 1.5 0.397805 1.5 0 
C 1.5 -0.397805 1.341951 -0.77937 1.06066 -1.06066 
C 0.77937 -1.341951 0.397805 -1.5 0 -1.5 
C -0.397805 -1.5 -0.77937 -1.341951 -1.06066 -1.06066 
C -1.341951 -0.77937 -1.5 -0.397805 -1.5 0 
C -1.5 0.397805 -1.341951 0.77937 -1.06066 1.06066 
C -0.77937 1.341951 -0.397805 1.5 0 1.5 
z
" style="stroke: #f5deb3"/>
    </defs>
    <g>
     <use xlink:href="#m3bc1c9260b" x="132.109044" y="27.648" style="fill: #f5deb3; stroke: #f5deb3"/>
     <use xlink:href="#m3bc1c9260b" x="132.109044" y="27.648" style="fill: #f5deb3; stroke: #f5deb3"/>
    </g>
   </g>
   <g id="line2d_34">
    <defs>
     <path id="m50cb25cd86" d="M 0 1.5 
C 0.397805 1.5 0.77937 1.341951 1.06066 1.06066 
C 1.341951 0.77937 1.5 0.397805 1.5 0 
C 1.5 -0.397805 1.341951 -0.77937 1.06066 -1.06066 
C 0.77937 -1.341951 0.397805 -1.5 0 -1.5 
C -0.397805 -1.5 -0.77937 -1.341951 -1.06066 -1.06066 
C -1.341951 -0.77937 -1.5 -0.397805 -1.5 0 
C -1.5 0.397805 -1.341951 0.77937 -1.06066 1.06066 
C -0.77937 1.341951 -0.397805 1.5 0 1.5 
z
" style="stroke: #000080"/>
    </defs>
    <g>
     <use xlink:href="#m50cb25cd86" x="289.900908" y="27.648" style="fill: #000080; stroke: #000080"/>
     <use xlink:href="#m50cb25cd86" x="289.900908" y="27.648" style="fill: #000080; stroke: #000080"/>
    </g>
   </g>
   <g id="line2d_35">
    <path d="M 127.227236 298.944 
L 127.227236 297.880094 
L 129.826058 297.880094 
L 129.826058 297.525459 
L 141.50224 297.525459 
L 141.50224 297.170824 
L 142.038218 297.170824 
L 142.038218 296.816188 
L 148.352679 296.816188 
L 148.352679 295.397647 
L 155.495444 295.397647 
L 155.495444 293.269835 
L 157.410135 293.269835 
L 157.456756 292.205929 
L 159.61025 292.205929 
L 159.61025 291.496659 
L 161.542347 291.496659 
L 161.579783 282.985412 
L 161.691646 282.985412 
L 161.691646 281.921506 
L 161.876619 281.921506 
L 161.876619 280.8576 
L 162.023298 280.8576 
L 162.023298 279.793694 
L 162.527853 279.793694 
L 162.527853 278.729788 
L 162.880139 278.729788 
L 162.984551 274.474165 
L 163.191653 274.474165 
L 163.191653 273.764894 
L 164.452864 273.764894 
L 164.452864 272.700988 
L 164.676244 272.700988 
L 164.676244 271.637082 
L 164.834193 271.637082 
L 164.834193 270.573176 
L 165.146166 270.573176 
L 165.146166 269.863906 
L 165.45305 269.863906 
L 165.45305 267.736094 
L 165.604634 267.736094 
L 165.604634 266.317553 
L 165.933882 266.317553 
L 165.96353 264.899012 
L 166.286609 264.899012 
L 166.286609 263.835106 
L 166.431649 263.835106 
L 166.431649 263.480471 
L 166.575579 263.480471 
L 166.575579 263.125835 
L 167.140533 263.125835 
L 167.196106 262.416565 
L 167.306762 262.416565 
L 167.306762 262.061929 
L 168.010586 262.061929 
L 168.116567 260.643388 
L 168.404973 260.643388 
L 168.456938 257.806306 
L 169.368578 257.806306 
L 169.368578 255.678494 
L 172.250727 255.678494 
L 172.250727 255.323859 
L 175.0442 255.323859 
L 175.0442 254.969224 
L 175.171736 254.969224 
L 175.171736 254.259953 
L 177.889089 254.259953 
L 177.889089 253.905318 
L 182.008023 253.905318 
L 182.008023 251.068235 
L 184.05178 251.068235 
L 184.05178 249.649694 
L 185.098054 249.649694 
L 185.098054 248.585788 
L 191.743277 248.585788 
L 191.743277 245.394071 
L 192.248116 245.394071 
L 192.248116 244.6848 
L 195.210614 244.6848 
L 195.210614 243.975529 
L 199.092759 243.975529 
L 199.092759 243.266259 
L 199.968104 243.266259 
L 199.968104 242.556988 
L 202.167039 242.556988 
L 202.171362 241.493082 
L 208.259173 241.493082 
L 208.315383 240.783812 
L 209.633814 240.783812 
L 209.633814 239.365271 
L 210.439029 239.365271 
L 210.439029 236.882824 
L 211.613192 236.882824 
L 211.613192 236.528188 
L 211.978577 236.528188 
L 211.978577 236.173553 
L 212.23348 236.173553 
L 212.23348 235.818918 
L 214.361751 235.818918 
L 214.361751 235.464282 
L 217.638263 235.464282 
L 217.638263 235.109647 
L 219.449664 235.109647 
L 219.449664 233.691106 
L 221.523731 233.691106 
L 221.523731 233.336471 
L 222.18412 233.336471 
L 222.197541 232.272565 
L 222.310497 232.272565 
L 222.369676 230.854024 
L 223.842309 230.854024 
L 223.842309 230.499388 
L 231.041461 230.499388 
L 231.041461 230.144753 
L 231.589556 230.144753 
L 231.589556 229.790118 
L 232.081629 229.790118 
L 232.089561 227.307671 
L 245.337713 227.307671 
L 245.337713 226.953035 
L 245.457579 226.953035 
L 245.457579 226.5984 
L 245.60205 226.5984 
L 245.60205 226.243765 
L 245.855521 226.243765 
L 245.927861 219.151059 
L 246.201991 219.151059 
L 246.201991 218.796424 
L 246.345007 218.796424 
L 246.443449 214.895435 
L 246.46603 214.895435 
L 246.565883 210.639812 
L 246.996014 210.639812 
L 247.023519 209.930541 
L 247.398576 209.930541 
L 247.48273 208.157365 
L 247.536299 208.157365 
L 247.536299 207.448094 
L 247.668402 207.448094 
L 247.741011 206.384188 
L 247.986713 206.384188 
L 248.055089 205.674918 
L 248.105174 205.674918 
L 248.113446 204.965647 
L 248.335053 204.965647 
L 248.358073 203.901741 
L 248.611645 203.901741 
L 248.674507 201.419294 
L 248.77095 201.419294 
L 248.879898 200.355388 
L 248.995035 200.355388 
L 249.066997 196.4544 
L 249.123371 196.4544 
L 249.233845 192.198776 
L 249.252961 192.198776 
L 249.252961 191.489506 
L 249.439557 191.489506 
L 249.464763 190.780235 
L 249.603147 190.780235 
L 249.692882 183.332894 
L 249.763261 183.332894 
L 249.813469 181.559718 
L 249.88032 181.559718 
L 249.973854 179.786541 
L 250.035047 179.786541 
L 250.117682 178.722635 
L 250.235585 178.722635 
L 250.30062 176.594824 
L 250.347414 176.594824 
L 250.347414 176.240188 
L 250.468534 176.240188 
L 250.468534 175.176282 
L 250.593493 175.176282 
L 250.593493 174.467012 
L 250.759151 174.467012 
L 250.8455 170.211388 
L 250.898417 170.211388 
L 251.001871 169.502118 
L 251.054672 169.502118 
L 251.054672 169.147482 
L 251.171337 169.147482 
L 251.269492 167.019671 
L 251.302202 167.019671 
L 251.370299 161.345506 
L 251.468996 161.345506 
L 251.513602 159.926965 
L 251.604684 159.926965 
L 251.670763 158.508424 
L 251.773162 158.508424 
L 251.778732 156.380612 
L 251.93769 156.380612 
L 252.000777 154.2528 
L 252.076752 154.2528 
L 252.15424 150.706447 
L 252.262492 150.706447 
L 252.325402 145.386918 
L 252.465813 145.386918 
L 252.515261 143.259106 
L 252.6114 143.259106 
L 252.646588 142.1952 
L 252.809541 142.1952 
L 252.87999 140.422024 
L 252.953955 140.422024 
L 253.01315 138.294212 
L 253.130409 138.294212 
L 253.230338 135.457129 
L 253.415576 135.457129 
L 253.511749 134.038588 
L 253.601255 134.038588 
L 253.640526 132.265412 
L 253.845086 132.265412 
L 253.889107 130.846871 
L 254.005719 130.846871 
L 254.050736 128.719059 
L 254.152997 128.719059 
L 254.237882 122.690259 
L 254.287222 122.690259 
L 254.311573 121.980988 
L 254.398439 121.980988 
L 254.46051 115.597553 
L 254.522377 115.597553 
L 254.625303 112.0512 
L 254.634077 112.0512 
L 254.73005 108.150212 
L 254.762549 108.150212 
L 254.831587 104.958494 
L 254.887527 104.958494 
L 254.918708 103.894588 
L 255.058775 103.894588 
L 255.162434 101.412141 
L 255.240321 101.412141 
L 255.3084 100.348235 
L 255.392069 100.348235 
L 255.4624 94.319435 
L 255.533736 94.319435 
L 255.565383 92.900894 
L 255.667805 92.900894 
L 255.765919 87.581365 
L 255.830878 87.581365 
L 255.89462 84.744282 
L 255.980182 84.744282 
L 256.073483 78.715482 
L 256.185915 78.715482 
L 256.185915 78.006212 
L 256.364952 78.006212 
L 256.447682 75.523765 
L 256.496856 75.523765 
L 256.544703 73.395953 
L 256.642898 73.395953 
L 256.720611 70.913506 
L 256.846037 70.913506 
L 256.906435 69.140329 
L 257.011669 69.140329 
L 257.122605 67.721788 
L 257.270125 67.721788 
L 257.355188 64.884706 
L 257.417644 64.884706 
L 257.465265 62.402259 
L 257.565152 62.402259 
L 257.66881 60.983718 
L 257.688931 60.983718 
L 257.777298 58.146635 
L 257.903714 58.146635 
L 257.960593 56.018824 
L 258.090433 56.018824 
L 258.090433 55.664188 
L 258.382986 55.664188 
L 258.382986 54.600282 
L 258.508223 54.600282 
L 258.540428 53.536376 
L 258.679635 53.536376 
L 258.694206 52.827106 
L 258.796742 52.827106 
L 258.897026 49.990024 
L 259.096005 49.990024 
L 259.102294 48.571482 
L 259.264662 48.571482 
L 259.264662 48.216847 
L 259.448495 48.216847 
L 259.537592 45.7344 
L 259.56563 45.7344 
L 259.638496 44.670494 
L 259.704383 44.670494 
L 259.782173 41.833412 
L 259.850783 41.833412 
L 259.930179 40.769506 
L 260.475588 40.769506 
L 260.475588 40.414871 
L 260.614969 40.414871 
L 260.660365 37.932424 
L 260.857479 37.932424 
L 260.85977 37.223153 
L 260.976244 37.223153 
L 260.976244 36.513882 
L 261.1545 36.513882 
L 261.1545 36.159247 
L 261.279439 36.159247 
L 261.279439 35.804612 
L 268.037173 35.804612 
L 268.037173 35.449976 
L 268.334748 35.449976 
L 268.354497 34.386071 
L 268.477778 34.386071 
L 268.477778 34.031435 
L 268.708489 34.031435 
L 268.708489 31.194353 
L 269.209786 31.194353 
L 269.209786 30.485082 
L 274.027083 30.485082 
L 274.027083 30.130447 
L 280.095332 30.130447 
L 280.095332 29.775812 
L 281.348565 29.775812 
L 281.348565 29.421176 
L 281.645945 29.421176 
L 281.750053 28.002635 
L 289.900908 28.002635 
L 289.900908 27.648 
L 360.8064 27.648 
L 360.8064 27.648 
" style="fill: none; stroke: #000080; stroke-width: 1.5; stroke-linecap: square"/>
   </g>
   <g id="line2d_36">
    <defs>
     <path id="m59da208326" d="M 0 6 
C 1.591219 6 3.117479 5.367802 4.242641 4.242641 
C 5.367802 3.117479 6 1.591219 6 0 
C 6 -1.591219 5.367802 -3.117479 4.242641 -4.242641 
C 3.117479 -5.367802 1.591219 -6 0 -6 
C -1.591219 -6 -3.117479 -5.367802 -4.242641 -4.242641 
C -5.367802 -3.117479 -6 -1.591219 -6 0 
C -6 1.591219 -5.367802 3.117479 -4.242641 4.242641 
C -3.117479 5.367802 -1.591219 6 0 6 
z
" style="stroke: #000080; stroke-width: 1.5"/>
    </defs>
    <g>
     <use xlink:href="#m59da208326" x="232.089561" y="227.307671" style="fill-opacity: 0; stroke: #000080; stroke-width: 1.5"/>
     <use xlink:href="#m59da208326" x="255.458076" y="96.801882" style="fill-opacity: 0; stroke: #000080; stroke-width: 1.5"/>
     <use xlink:href="#m59da208326" x="289.900908" y="27.648" style="fill-opacity: 0; stroke: #000080; stroke-width: 1.5"/>
     <use xlink:href="#m59da208326" x="289.900908" y="27.648" style="fill-opacity: 0; stroke: #000080; stroke-width: 1.5"/>
     <use xlink:href="#m59da208326" x="360.8064" y="27.648" style="fill-opacity: 0; stroke: #000080; stroke-width: 1.5"/>
    </g>
   </g>
   <g id="line2d_37">
    <path style="fill: none; stroke: #000080; stroke-width: 1.5; stroke-linecap: square"/>
    <g/>
   </g>
   <g id="line2d_38">
    <path d="M 274.176 30.130447 
" clip-path="url(#pf6b56673a6)" style="fill: none; stroke: #000080; stroke-width: 1.5; stroke-linecap: square"/>
    <defs>
     <path id="m653827b3d4" d="M -12 12 
L 12 -12 
M -12 -12 
L 12 12 
" style="stroke: #000080"/>
    </defs>
    <g clip-path="url(#pf6b56673a6)">
     <use xlink:href="#m653827b3d4" x="274.176" y="30.130447" style="fill: #000080; stroke: #000080"/>
    </g>
   </g>
   <g id="line2d_39">
    <defs>
     <path id="mdb482f702c" d="M 0 1.5 
C 0.397805 1.5 0.77937 1.341951 1.06066 1.06066 
C 1.341951 0.77937 1.5 0.397805 1.5 0 
C 1.5 -0.397805 1.341951 -0.77937 1.06066 -1.06066 
C 0.77937 -1.341951 0.397805 -1.5 0 -1.5 
C -0.397805 -1.5 -0.77937 -1.341951 -1.06066 -1.06066 
C -1.341951 -0.77937 -1.5 -0.397805 -1.5 0 
C -1.5 0.397805 -1.341951 0.77937 -1.06066 1.06066 
C -0.77937 1.341951 -0.397805 1.5 0 1.5 
z
" style="stroke: #ff00ff"/>
    </defs>
    <g>
     <use xlink:href="#mdb482f702c" x="341.742359" y="176.594824" style="fill: #ff00ff; stroke: #ff00ff"/>
     <use xlink:href="#mdb482f702c" x="341.742359" y="176.594824" style="fill: #ff00ff; stroke: #ff00ff"/>
    </g>
   </g>
   <g id="line2d_40">
    <path d="M 113.954374 298.944 
L 113.954374 295.752282 
L 128.786481 295.752282 
L 128.786481 293.624471 
L 141.173167 293.624471 
L 141.173167 293.269835 
L 145.590864 293.269835 
L 145.590864 292.9152 
L 148.124658 292.9152 
L 148.124658 292.560565 
L 149.020615 292.560565 
L 149.020615 290.787388 
L 156.452597 290.787388 
L 156.452597 289.723482 
L 158.187393 289.723482 
L 158.187393 289.368847 
L 158.542339 289.368847 
L 158.542339 288.304941 
L 158.976805 288.304941 
L 158.976805 287.241035 
L 160.777545 287.241035 
L 160.777545 285.113224 
L 169.393282 285.113224 
L 169.442591 282.985412 
L 171.069148 282.985412 
L 171.069148 281.566871 
L 173.991531 281.566871 
L 173.991531 280.148329 
L 174.525228 280.148329 
L 174.525228 279.793694 
L 175.814319 279.793694 
L 175.814319 279.084424 
L 176.655103 279.084424 
L 176.655103 278.729788 
L 179.542926 278.729788 
L 179.542926 275.183435 
L 182.518663 275.183435 
L 182.518663 274.8288 
L 182.677721 274.8288 
L 182.677721 273.764894 
L 188.274356 273.764894 
L 188.274356 272.346353 
L 188.534946 272.346353 
L 188.561698 269.509271 
L 190.706949 269.509271 
L 190.706949 268.8 
L 192.313929 268.8 
L 192.408587 264.544376 
L 192.718339 264.544376 
L 192.718339 264.189741 
L 194.300303 264.189741 
L 194.300303 263.480471 
L 195.204355 263.480471 
L 195.204355 262.061929 
L 196.114719 262.061929 
L 196.114719 261.707294 
L 196.492616 261.707294 
L 196.492616 260.643388 
L 197.321705 260.643388 
L 197.321705 259.224847 
L 198.815811 259.224847 
L 198.815811 258.870212 
L 200.127791 258.870212 
L 200.127791 258.160941 
L 201.200085 258.160941 
L 201.200085 256.387765 
L 203.888696 256.387765 
L 203.998843 255.323859 
L 204.861294 255.323859 
L 204.861294 254.259953 
L 206.132413 254.259953 
L 206.132413 251.068235 
L 207.405046 251.068235 
L 207.405046 250.358965 
L 208.901708 250.358965 
L 208.901708 249.649694 
L 210.019381 249.649694 
L 210.019381 247.521882 
L 210.338492 247.521882 
L 210.338492 246.812612 
L 214.202812 246.812612 
L 214.207371 245.039435 
L 214.693439 245.039435 
L 214.693439 244.6848 
L 214.960336 244.6848 
L 215.04992 243.266259 
L 215.309693 243.266259 
L 215.309693 240.074541 
L 215.966701 240.074541 
L 215.966701 239.010635 
L 216.667657 239.010635 
L 216.667657 237.237459 
L 217.088939 237.237459 
L 217.088939 236.528188 
L 217.619257 236.528188 
L 217.619257 235.818918 
L 218.992143 235.818918 
L 218.992143 233.691106 
L 219.229278 233.691106 
L 219.229278 232.6272 
L 219.621397 232.6272 
L 219.621397 232.272565 
L 220.893714 232.272565 
L 220.893714 231.917929 
L 224.912235 231.917929 
L 224.912235 231.208659 
L 225.266324 231.208659 
L 225.266324 229.435482 
L 225.520402 229.435482 
L 225.520402 229.080847 
L 225.95023 229.080847 
L 225.95023 228.726212 
L 227.380566 228.726212 
L 227.380566 228.371576 
L 227.914999 228.371576 
L 227.914999 227.307671 
L 228.968469 227.307671 
L 228.968469 226.243765 
L 229.57234 226.243765 
L 229.57234 225.534494 
L 230.803337 225.534494 
L 230.803337 224.470588 
L 231.372048 224.470588 
L 231.372048 224.115953 
L 233.689263 224.115953 
L 233.777268 221.988141 
L 236.025678 221.988141 
L 236.025678 221.633506 
L 236.44552 221.633506 
L 236.44552 221.278871 
L 237.106872 221.278871 
L 237.106872 219.505694 
L 237.711156 219.505694 
L 237.711156 218.796424 
L 239.92495 218.796424 
L 239.92495 218.087153 
L 240.940968 218.087153 
L 240.940968 217.023247 
L 241.784783 217.023247 
L 241.784783 216.668612 
L 244.24804 216.668612 
L 244.24804 216.313976 
L 246.79831 216.313976 
L 246.79831 215.604706 
L 275.092923 215.604706 
L 275.120763 212.058353 
L 275.632028 212.058353 
L 275.632028 211.349082 
L 276.069476 211.349082 
L 276.069476 210.994447 
L 276.357707 210.994447 
L 276.357707 210.285176 
L 276.732698 210.285176 
L 276.807265 208.866635 
L 277.098991 208.866635 
L 277.098991 208.157365 
L 277.243135 208.157365 
L 277.243135 207.448094 
L 277.368014 207.448094 
L 277.368014 207.093459 
L 278.21522 207.093459 
L 278.21522 206.384188 
L 287.736031 206.384188 
L 287.76597 204.965647 
L 288.013249 204.965647 
L 288.013249 202.837835 
L 288.184699 202.837835 
L 288.184699 202.4832 
L 288.591206 202.4832 
L 288.591206 202.128565 
L 288.864679 202.128565 
L 288.864679 201.419294 
L 289.145569 201.419294 
L 289.145569 201.064659 
L 289.394996 201.064659 
L 289.394996 200.355388 
L 295.416144 200.355388 
L 295.416144 198.582212 
L 295.761586 198.582212 
L 295.808017 197.872941 
L 295.941718 197.872941 
L 295.994786 197.163671 
L 296.359411 197.163671 
L 296.359411 196.809035 
L 300.714611 196.809035 
L 300.714611 195.745129 
L 301.011044 195.745129 
L 301.011044 195.390494 
L 301.152854 195.390494 
L 301.152854 195.035859 
L 301.430677 195.035859 
L 301.430677 194.681224 
L 304.843991 194.681224 
L 304.843991 193.971953 
L 305.164144 193.971953 
L 305.164144 193.617318 
L 308.228073 193.617318 
L 308.228073 193.262682 
L 308.523135 193.262682 
L 308.523135 192.908047 
L 311.095198 192.908047 
L 311.095198 191.134871 
L 313.582576 191.134871 
L 313.582576 190.780235 
L 313.947289 190.780235 
L 313.947289 190.4256 
L 315.779138 190.4256 
L 315.779138 189.361694 
L 315.977157 189.361694 
L 315.977157 189.007059 
L 316.104002 189.007059 
L 316.104002 188.297788 
L 317.745823 188.297788 
L 317.745823 186.879247 
L 319.52622 186.879247 
L 319.52622 186.169976 
L 319.792825 186.169976 
L 319.792825 185.815341 
L 321.105261 185.815341 
L 321.152587 184.3968 
L 322.649465 184.3968 
L 322.649465 184.042165 
L 322.87553 184.042165 
L 322.87553 183.687529 
L 324.035963 183.687529 
L 324.035963 182.978259 
L 326.535559 182.978259 
L 326.535559 182.268988 
L 327.766629 182.268988 
L 327.766629 181.914353 
L 328.741639 181.914353 
L 328.741639 180.850447 
L 329.754683 180.850447 
L 329.754683 180.495812 
L 333.336063 180.495812 
L 333.336063 179.786541 
L 334.134168 179.786541 
L 334.134168 179.431906 
L 335.635458 179.431906 
L 335.635458 179.077271 
L 335.74915 179.077271 
L 335.74915 178.722635 
L 336.343439 178.722635 
L 336.343439 178.368 
L 337.025739 178.368 
L 337.025739 177.658729 
L 337.684156 177.658729 
L 337.684156 177.304094 
L 338.935642 177.304094 
L 338.935642 176.949459 
L 341.742359 176.949459 
L 341.742359 176.594824 
L 360.8064 176.594824 
L 360.8064 176.594824 
" style="fill: none; stroke: #ff00ff; stroke-width: 1.5; stroke-linecap: square"/>
   </g>
   <g id="line2d_41">
    <defs>
     <path id="m41987152d1" d="M 0 8.485281 
L 5.091169 0 
L 0 -8.485281 
L -5.091169 0 
z
" style="stroke: #ff00ff; stroke-width: 1.5; stroke-linejoin: miter"/>
    </defs>
    <g>
     <use xlink:href="#m41987152d1" x="192.718339" y="264.544376" style="fill-opacity: 0; stroke: #ff00ff; stroke-width: 1.5; stroke-linejoin: miter"/>
     <use xlink:href="#m41987152d1" x="278.21522" y="207.093459" style="fill-opacity: 0; stroke: #ff00ff; stroke-width: 1.5; stroke-linejoin: miter"/>
     <use xlink:href="#m41987152d1" x="336.343439" y="178.368" style="fill-opacity: 0; stroke: #ff00ff; stroke-width: 1.5; stroke-linejoin: miter"/>
     <use xlink:href="#m41987152d1" x="341.742359" y="176.594824" style="fill-opacity: 0; stroke: #ff00ff; stroke-width: 1.5; stroke-linejoin: miter"/>
     <use xlink:href="#m41987152d1" x="360.8064" y="176.594824" style="fill-opacity: 0; stroke: #ff00ff; stroke-width: 1.5; stroke-linejoin: miter"/>
    </g>
   </g>
   <g id="line2d_42">
    <path style="fill: none; stroke: #ff00ff; stroke-width: 1.5; stroke-linecap: square"/>
    <g/>
   </g>
   <g id="line2d_43">
    <path d="M 274.292272 215.604706 
" clip-path="url(#pf6b56673a6)" style="fill: none; stroke: #ff00ff; stroke-width: 1.5; stroke-linecap: square"/>
    <defs>
     <path id="m16d122ae33" d="M -12 12 
L 12 -12 
M -12 -12 
L 12 12 
" style="stroke: #ff00ff"/>
    </defs>
    <g clip-path="url(#pf6b56673a6)">
     <use xlink:href="#m16d122ae33" x="274.292272" y="215.604706" style="fill: #ff00ff; stroke: #ff00ff"/>
    </g>
   </g>
   <g id="line2d_44">
    <defs>
     <path id="m7bad08c492" d="M 0 1.5 
C 0.397805 1.5 0.77937 1.341951 1.06066 1.06066 
C 1.341951 0.77937 1.5 0.397805 1.5 0 
C 1.5 -0.397805 1.341951 -0.77937 1.06066 -1.06066 
C 0.77937 -1.341951 0.397805 -1.5 0 -1.5 
C -0.397805 -1.5 -0.77937 -1.341951 -1.06066 -1.06066 
C -1.341951 -0.77937 -1.5 -0.397805 -1.5 0 
C -1.5 0.397805 -1.341951 0.77937 -1.06066 1.06066 
C -0.77937 1.341951 -0.397805 1.5 0 1.5 
z
" style="stroke: #ff7500"/>
    </defs>
    <g>
     <use xlink:href="#m7bad08c492" x="307.345345" y="27.648" style="fill: #ff7500; stroke: #ff7500"/>
     <use xlink:href="#m7bad08c492" x="307.345345" y="27.648" style="fill: #ff7500; stroke: #ff7500"/>
    </g>
   </g>
   <g id="line2d_45">
    <path d="M 104.344952 298.944 
L 104.344952 298.234729 
L 135.981441 298.234729 
L 135.981441 297.880094 
L 137.520791 297.880094 
L 137.520791 297.170824 
L 138.050729 297.170824 
L 138.050729 296.816188 
L 138.438609 296.816188 
L 138.438609 294.688376 
L 139.067817 294.688376 
L 139.067817 294.333741 
L 140.838234 294.333741 
L 140.838234 293.979106 
L 141.283499 293.979106 
L 141.283499 291.142024 
L 141.610664 291.142024 
L 141.610664 290.787388 
L 142.865233 290.787388 
L 142.865233 290.078118 
L 143.166224 290.078118 
L 143.166224 289.723482 
L 144.136106 289.723482 
L 144.136106 289.368847 
L 144.694906 289.368847 
L 144.694906 289.014212 
L 144.968202 289.014212 
L 144.968202 287.950306 
L 149.31003 287.950306 
L 149.31003 287.241035 
L 149.524205 287.241035 
L 149.524205 286.531765 
L 150.958812 286.531765 
L 150.958812 284.403953 
L 152.474656 284.403953 
L 152.474656 282.985412 
L 161.125559 282.985412 
L 161.125559 282.276141 
L 161.950101 282.276141 
L 161.950101 281.566871 
L 162.59884 281.566871 
L 162.59884 280.8576 
L 165.300233 280.8576 
L 165.300233 280.148329 
L 166.081656 280.148329 
L 166.081656 278.729788 
L 166.431649 278.729788 
L 166.431649 277.665882 
L 166.916583 277.665882 
L 166.916583 277.311247 
L 167.796816 277.311247 
L 167.796816 276.956612 
L 172.314244 276.956612 
L 172.314244 275.538071 
L 173.28232 275.538071 
L 173.28232 275.183435 
L 173.56131 275.183435 
L 173.56131 272.700988 
L 175.117184 272.700988 
L 175.189886 271.637082 
L 176.041072 271.637082 
L 176.041072 269.863906 
L 178.247119 269.863906 
L 178.247119 269.154635 
L 178.853996 269.154635 
L 178.853996 267.026824 
L 179.75759 267.026824 
L 179.75759 265.253647 
L 180.040051 265.253647 
L 180.040051 264.899012 
L 180.929814 264.899012 
L 180.929814 263.125835 
L 182.133854 263.125835 
L 182.133854 262.7712 
L 183.66272 262.7712 
L 183.66272 262.416565 
L 184.488367 262.416565 
L 184.488367 262.061929 
L 184.87173 262.061929 
L 184.87173 261.707294 
L 186.129796 261.707294 
L 186.129796 260.288753 
L 187.050029 260.288753 
L 187.050029 258.870212 
L 187.918118 258.870212 
L 187.918118 258.515576 
L 188.364623 258.515576 
L 188.364623 257.097035 
L 189.166736 257.097035 
L 189.166736 256.7424 
L 189.61861 256.7424 
L 189.61861 256.033129 
L 191.100346 256.033129 
L 191.100346 255.678494 
L 193.364413 255.678494 
L 193.364413 255.323859 
L 193.618117 255.323859 
L 193.618117 252.841412 
L 194.214721 252.841412 
L 194.214721 252.486776 
L 195.416002 252.486776 
L 195.416002 251.422871 
L 195.637534 251.422871 
L 195.637534 251.068235 
L 198.302547 251.068235 
L 198.302547 250.358965 
L 199.890189 250.358965 
L 199.890189 249.295059 
L 200.151868 249.295059 
L 200.151868 248.585788 
L 200.594178 248.585788 
L 200.594178 248.231153 
L 201.204636 248.231153 
L 201.204636 247.876518 
L 201.390285 247.876518 
L 201.390285 247.521882 
L 201.975837 247.521882 
L 202.05864 246.812612 
L 202.270518 246.812612 
L 202.270518 246.103341 
L 202.475784 246.103341 
L 202.475784 245.748706 
L 202.946202 245.748706 
L 202.946202 245.394071 
L 204.178411 245.394071 
L 204.244342 243.975529 
L 205.173403 243.975529 
L 205.173403 243.620894 
L 206.375954 243.620894 
L 206.375954 243.266259 
L 207.635985 243.266259 
L 207.639218 242.202353 
L 207.748794 242.202353 
L 207.748794 241.847718 
L 208.149393 241.847718 
L 208.149393 240.429176 
L 209.21047 240.429176 
L 209.21047 240.074541 
L 210.076256 240.074541 
L 210.076256 239.365271 
L 210.399995 239.365271 
L 210.42231 238.301365 
L 210.552878 238.301365 
L 210.552878 237.946729 
L 210.987989 237.946729 
L 210.987989 237.592094 
L 211.545034 237.592094 
L 211.545034 236.173553 
L 212.195464 236.173553 
L 212.195464 235.818918 
L 212.532382 235.818918 
L 212.59706 235.109647 
L 212.999987 235.109647 
L 212.999987 234.755012 
L 215.307543 234.755012 
L 215.307543 234.400376 
L 215.69064 234.400376 
L 215.69064 234.045741 
L 215.958395 234.045741 
L 215.958395 233.691106 
L 216.49687 233.691106 
L 216.49687 233.336471 
L 217.487594 233.336471 
L 217.487594 232.981835 
L 217.984578 232.981835 
L 217.984578 232.6272 
L 218.421454 232.6272 
L 218.421454 231.563294 
L 218.564854 231.563294 
L 218.564854 230.854024 
L 219.134782 230.854024 
L 219.134782 229.080847 
L 219.530574 229.080847 
L 219.530574 228.371576 
L 219.664087 228.371576 
L 219.664087 227.307671 
L 220.792788 227.307671 
L 220.813658 225.534494 
L 221.048058 225.534494 
L 221.048058 225.179859 
L 222.215421 225.179859 
L 222.215421 224.825224 
L 223.166472 224.825224 
L 223.166472 224.470588 
L 223.533826 224.470588 
L 223.533826 224.115953 
L 223.830012 224.115953 
L 223.888693 223.406682 
L 223.982476 223.406682 
L 223.982476 223.052047 
L 224.415376 223.052047 
L 224.415376 222.697412 
L 224.631421 222.697412 
L 224.631421 222.342776 
L 225.232102 222.342776 
L 225.232102 221.988141 
L 226.281879 221.988141 
L 226.281879 219.505694 
L 226.638417 219.505694 
L 226.638417 218.796424 
L 226.92118 218.796424 
L 226.92118 218.087153 
L 227.103526 218.087153 
L 227.11386 217.377882 
L 227.767015 217.377882 
L 227.82679 212.767624 
L 227.889681 212.767624 
L 227.889681 212.412988 
L 228.786612 212.412988 
L 228.786612 212.058353 
L 229.372857 212.058353 
L 229.454121 210.285176 
L 229.500689 210.285176 
L 229.500689 209.930541 
L 229.637699 209.930541 
L 229.637699 209.575906 
L 229.894903 209.575906 
L 229.894903 209.221271 
L 230.147662 209.221271 
L 230.147662 207.802729 
L 232.366817 207.802729 
L 232.366817 207.448094 
L 232.814651 207.448094 
L 232.84176 206.384188 
L 233.511192 206.384188 
L 233.54058 205.320282 
L 233.88009 205.320282 
L 233.979962 203.901741 
L 234.103072 203.901741 
L 234.103072 203.547106 
L 234.342212 203.547106 
L 234.342212 202.837835 
L 234.4723 202.837835 
L 234.4723 202.128565 
L 234.816134 202.128565 
L 234.899033 201.064659 
L 235.084043 201.064659 
L 235.084043 200.710024 
L 235.302936 200.710024 
L 235.302936 200.355388 
L 235.55892 200.355388 
L 235.55892 200.000753 
L 235.846136 200.000753 
L 235.846136 199.646118 
L 236.17518 199.646118 
L 236.17518 198.582212 
L 236.698243 198.582212 
L 236.698243 196.4544 
L 237.016227 196.4544 
L 237.047393 194.326588 
L 237.397491 194.326588 
L 237.467795 193.617318 
L 237.59513 193.617318 
L 237.59513 193.262682 
L 237.952054 193.262682 
L 237.952054 192.553412 
L 238.143343 192.553412 
L 238.143343 191.489506 
L 238.278886 191.489506 
L 238.308031 189.007059 
L 238.897596 189.007059 
L 238.897596 186.879247 
L 239.014421 186.879247 
L 239.014421 186.524612 
L 239.213968 186.524612 
L 239.213968 185.106071 
L 239.794366 185.106071 
L 239.794366 184.751435 
L 239.926112 184.751435 
L 239.927274 182.623624 
L 240.066169 182.623624 
L 240.163363 181.559718 
L 240.233787 181.559718 
L 240.272608 180.495812 
L 240.368744 180.495812 
L 240.406155 179.431906 
L 240.491468 179.431906 
L 240.545506 176.949459 
L 240.626274 176.949459 
L 240.730088 173.048471 
L 240.949773 173.048471 
L 241.024991 172.3392 
L 241.463673 172.3392 
L 241.497368 171.275294 
L 241.715717 171.275294 
L 241.723638 170.211388 
L 241.84573 170.211388 
L 241.84573 169.147482 
L 242.117057 169.147482 
L 242.182607 168.438212 
L 242.647239 168.438212 
L 242.647239 168.083576 
L 242.797439 168.083576 
L 242.859174 167.019671 
L 243.030369 167.019671 
L 243.030369 166.3104 
L 243.374443 166.3104 
L 243.458886 164.891859 
L 243.575993 164.891859 
L 243.662396 163.827953 
L 244.138306 163.827953 
L 244.138306 162.764047 
L 244.73205 162.764047 
L 244.73205 162.409412 
L 245.381231 162.409412 
L 245.419878 161.700141 
L 245.592597 161.700141 
L 245.670234 160.990871 
L 245.942633 160.990871 
L 245.967087 159.572329 
L 246.058717 159.572329 
L 246.058717 158.863059 
L 246.726819 158.863059 
L 246.826911 157.089882 
L 246.999205 157.089882 
L 246.999205 156.735247 
L 247.135913 156.735247 
L 247.135913 156.380612 
L 247.573087 156.380612 
L 247.573087 155.316706 
L 248.024898 155.316706 
L 248.07544 154.2528 
L 248.736796 154.2528 
L 248.736796 152.834259 
L 248.945468 152.834259 
L 248.945468 151.770353 
L 249.150428 151.770353 
L 249.150428 151.415718 
L 249.30984 151.415718 
L 249.350362 149.287906 
L 249.854294 149.287906 
L 249.914169 148.578635 
L 250.504321 148.578635 
L 250.504321 147.869365 
L 250.84485 147.869365 
L 250.935014 147.160094 
L 251.107966 147.160094 
L 251.107966 146.805459 
L 251.740331 146.805459 
L 251.740331 146.450824 
L 252.075229 146.450824 
L 252.075229 146.096188 
L 252.325102 146.096188 
L 252.325102 145.741553 
L 252.827983 145.741553 
L 252.827983 145.386918 
L 253.159466 145.386918 
L 253.217732 142.549835 
L 253.519365 142.549835 
L 253.519365 142.1952 
L 253.892149 142.1952 
L 253.946814 141.131294 
L 254.036474 141.131294 
L 254.067727 139.358118 
L 254.263924 139.358118 
L 254.301025 138.648847 
L 254.415119 138.648847 
L 254.416733 137.584941 
L 254.590169 137.584941 
L 254.625569 135.102494 
L 254.723438 135.102494 
L 254.723438 132.620047 
L 255.165277 132.620047 
L 255.251127 128.009788 
L 255.395643 128.009788 
L 255.498483 125.881976 
L 255.559311 125.881976 
L 255.559311 125.527341 
L 255.755905 125.527341 
L 255.755905 125.172706 
L 255.930132 125.172706 
L 256.029852 123.754165 
L 256.127819 123.754165 
L 256.127819 121.626353 
L 256.400798 121.626353 
L 256.400798 121.271718 
L 256.697283 121.271718 
L 256.697283 120.917082 
L 256.888525 120.917082 
L 256.888525 120.562447 
L 257.055888 120.562447 
L 257.145179 119.853176 
L 257.46275 119.853176 
L 257.566517 117.370729 
L 257.622155 117.370729 
L 257.622155 117.016094 
L 257.771 117.016094 
L 257.771 116.661459 
L 257.938977 116.661459 
L 257.938977 116.306824 
L 258.239802 116.306824 
L 258.239802 115.597553 
L 258.414537 115.597553 
L 258.414537 115.242918 
L 258.733578 115.242918 
L 258.733578 114.888282 
L 259.044986 114.888282 
L 259.133499 113.824376 
L 259.4277 113.824376 
L 259.4277 113.469741 
L 259.553356 113.469741 
L 259.553356 113.115106 
L 259.789854 113.115106 
L 259.789854 112.760471 
L 259.969251 112.760471 
L 260.076829 110.632659 
L 260.211678 110.632659 
L 260.219581 109.923388 
L 260.633141 109.923388 
L 260.633141 109.568753 
L 260.80356 109.568753 
L 260.810452 108.150212 
L 260.950233 108.150212 
L 260.950233 107.795576 
L 261.185109 107.795576 
L 261.265058 107.086306 
L 261.356015 107.086306 
L 261.356015 106.731671 
L 261.526856 106.731671 
L 261.546193 106.0224 
L 261.831167 106.0224 
L 261.938371 104.603859 
L 262.056973 104.603859 
L 262.158448 103.185318 
L 262.266466 103.185318 
L 262.269123 102.476047 
L 262.676672 102.476047 
L 262.676672 99.284329 
L 262.805534 99.284329 
L 262.876669 98.575059 
L 262.941383 98.575059 
L 262.941383 98.220424 
L 263.16564 98.220424 
L 263.16564 97.865788 
L 263.327074 97.865788 
L 263.327074 97.511153 
L 263.460717 97.511153 
L 263.462213 96.801882 
L 263.698449 96.801882 
L 263.705015 95.737976 
L 263.854579 95.737976 
L 263.854579 94.319435 
L 264.27956 94.319435 
L 264.295153 93.255529 
L 264.797322 93.255529 
L 264.797322 92.900894 
L 265.139358 92.900894 
L 265.154406 92.191624 
L 265.544318 92.191624 
L 265.544318 91.127718 
L 265.913766 91.127718 
L 265.913766 90.418447 
L 266.08995 90.418447 
L 266.08995 90.063812 
L 266.308135 90.063812 
L 266.387136 89.354541 
L 266.440992 89.354541 
L 266.541469 87.936 
L 266.558398 87.936 
L 266.565166 85.453553 
L 266.716513 85.453553 
L 266.732447 84.389647 
L 266.850831 84.389647 
L 266.900746 82.261835 
L 267.048328 82.261835 
L 267.048328 81.9072 
L 267.3356 81.9072 
L 267.3356 81.552565 
L 267.477943 81.552565 
L 267.516175 76.942306 
L 267.64439 76.942306 
L 267.692246 75.169129 
L 268.043429 75.169129 
L 268.152571 74.459859 
L 268.537657 74.459859 
L 268.648016 71.977412 
L 268.889746 71.977412 
L 268.889746 71.622776 
L 269.171903 71.622776 
L 269.171903 69.140329 
L 269.465604 69.140329 
L 269.465604 68.076424 
L 269.853045 68.076424 
L 269.853045 67.721788 
L 270.279703 67.721788 
L 270.279703 67.367153 
L 270.700745 67.367153 
L 270.755201 64.884706 
L 270.887406 64.884706 
L 270.887406 64.530071 
L 271.089752 64.530071 
L 271.089752 64.175435 
L 271.341631 64.175435 
L 271.341631 63.8208 
L 271.607548 63.8208 
L 271.607548 63.466165 
L 271.774996 63.466165 
L 271.809161 61.338353 
L 271.907041 61.338353 
L 272.013703 60.274447 
L 272.101602 60.274447 
L 272.101602 59.919812 
L 272.631983 59.919812 
L 272.631983 59.565176 
L 272.960325 59.565176 
L 273.020131 58.855906 
L 273.427758 58.855906 
L 273.488147 57.792 
L 273.807949 57.792 
L 273.807949 57.437365 
L 273.919456 57.437365 
L 273.919456 56.018824 
L 274.052474 56.018824 
L 274.052474 55.309553 
L 274.189821 55.309553 
L 274.294141 54.245647 
L 274.349673 54.245647 
L 274.384867 53.536376 
L 274.506329 53.536376 
L 274.506329 53.181741 
L 274.730221 53.181741 
L 274.730221 52.827106 
L 274.87297 52.827106 
L 274.87297 52.472471 
L 275.905207 52.472471 
L 275.905207 52.117835 
L 276.264336 52.117835 
L 276.31343 51.053929 
L 276.519084 51.053929 
L 276.519084 50.699294 
L 276.691025 50.699294 
L 276.781733 49.280753 
L 277.042218 49.280753 
L 277.07885 48.571482 
L 277.220988 48.571482 
L 277.27858 47.152941 
L 278.503255 47.152941 
L 278.503255 46.798306 
L 278.630982 46.798306 
L 278.630982 46.089035 
L 279.684167 46.089035 
L 279.684167 45.7344 
L 280.038529 45.7344 
L 280.121544 45.025129 
L 280.277305 45.025129 
L 280.277305 44.670494 
L 280.656658 44.670494 
L 280.703253 43.606588 
L 281.03596 43.606588 
L 281.03596 43.251953 
L 281.422232 43.251953 
L 281.422232 42.897318 
L 281.692994 42.897318 
L 281.695265 42.188047 
L 281.84627 42.188047 
L 281.84627 41.833412 
L 282.129783 41.833412 
L 282.129783 41.478776 
L 282.696626 41.478776 
L 282.753646 40.414871 
L 283.689617 40.414871 
L 283.792062 38.996329 
L 283.859189 38.996329 
L 283.859189 38.641694 
L 284.162699 38.641694 
L 284.178457 37.577788 
L 284.757127 37.577788 
L 284.757127 37.223153 
L 284.879031 37.223153 
L 284.879031 36.513882 
L 285.007028 36.513882 
L 285.007028 36.159247 
L 285.557686 36.159247 
L 285.557686 35.804612 
L 286.052953 35.804612 
L 286.118274 35.095341 
L 286.844773 35.095341 
L 286.874392 34.386071 
L 287.08734 34.386071 
L 287.153513 33.6768 
L 287.313162 33.6768 
L 287.313162 33.322165 
L 290.636498 33.322165 
L 290.636498 32.967529 
L 291.185062 32.967529 
L 291.185062 32.258259 
L 291.731069 32.258259 
L 291.773931 31.194353 
L 293.144255 31.194353 
L 293.144255 30.839718 
L 293.631342 30.839718 
L 293.631342 30.485082 
L 293.769998 30.485082 
L 293.769998 30.130447 
L 294.465149 30.130447 
L 294.465149 29.775812 
L 294.596481 29.775812 
L 294.616102 29.066541 
L 298.131473 29.066541 
L 298.131473 28.711906 
L 300.084729 28.711906 
L 300.084729 28.357271 
L 306.492794 28.357271 
L 306.492794 28.002635 
L 307.345345 28.002635 
L 307.345345 27.648 
L 360.8064 27.648 
L 360.8064 27.648 
" style="fill: none; stroke: #ff7500; stroke-width: 1.5; stroke-linecap: square"/>
   </g>
   <g id="line2d_46">
    <defs>
     <path id="m8d6fca4588" d="M 0 -6 
L -1.347084 -1.854102 
L -5.706339 -1.854102 
L -2.179628 0.708204 
L -3.526712 4.854102 
L -0 2.291796 
L 3.526712 4.854102 
L 2.179628 0.708204 
L 5.706339 -1.854102 
L 1.347084 -1.854102 
z
" style="stroke: #ff7500; stroke-width: 1.5; stroke-linejoin: bevel"/>
    </defs>
    <g>
     <use xlink:href="#m8d6fca4588" x="152.474656" y="282.985412" style="fill-opacity: 0; stroke: #ff7500; stroke-width: 1.5; stroke-linejoin: bevel"/>
     <use xlink:href="#m8d6fca4588" x="246.726819" y="158.508424" style="fill-opacity: 0; stroke: #ff7500; stroke-width: 1.5; stroke-linejoin: bevel"/>
     <use xlink:href="#m8d6fca4588" x="291.773931" y="31.194353" style="fill-opacity: 0; stroke: #ff7500; stroke-width: 1.5; stroke-linejoin: bevel"/>
     <use xlink:href="#m8d6fca4588" x="307.345345" y="27.648" style="fill-opacity: 0; stroke: #ff7500; stroke-width: 1.5; stroke-linejoin: bevel"/>
     <use xlink:href="#m8d6fca4588" x="360.8064" y="27.648" style="fill-opacity: 0; stroke: #ff7500; stroke-width: 1.5; stroke-linejoin: bevel"/>
    </g>
   </g>
   <g id="line2d_47">
    <path style="fill: none; stroke: #ff7500; stroke-width: 1.5; stroke-linecap: square"/>
    <g/>
   </g>
   <g id="line2d_48">
    <path d="M 274.176 55.309553 
" clip-path="url(#pf6b56673a6)" style="fill: none; stroke: #ff7500; stroke-width: 1.5; stroke-linecap: square"/>
    <defs>
     <path id="m0ca53726b9" d="M -12 12 
L 12 -12 
M -12 -12 
L 12 12 
" style="stroke: #ff7500"/>
    </defs>
    <g clip-path="url(#pf6b56673a6)">
     <use xlink:href="#m0ca53726b9" x="274.176" y="55.309553" style="fill: #ff7500; stroke: #ff7500"/>
    </g>
   </g>
   <g id="line2d_49">
    <defs>
     <path id="mde513a4880" d="M 0 1.5 
C 0.397805 1.5 0.77937 1.341951 1.06066 1.06066 
C 1.341951 0.77937 1.5 0.397805 1.5 0 
C 1.5 -0.397805 1.341951 -0.77937 1.06066 -1.06066 
C 0.77937 -1.341951 0.397805 -1.5 0 -1.5 
C -0.397805 -1.5 -0.77937 -1.341951 -1.06066 -1.06066 
C -1.341951 -0.77937 -1.5 -0.397805 -1.5 0 
C -1.5 0.397805 -1.341951 0.77937 -1.06066 1.06066 
C -0.77937 1.341951 -0.397805 1.5 0 1.5 
z
" style="stroke: #6495ed"/>
    </defs>
    <g>
     <use xlink:href="#mde513a4880" x="298.513342" y="27.648" style="fill: #6495ed; stroke: #6495ed"/>
     <use xlink:href="#mde513a4880" x="298.513342" y="27.648" style="fill: #6495ed; stroke: #6495ed"/>
    </g>
   </g>
   <g id="line2d_50">
    <path d="M 129.417095 298.944 
L 129.417095 296.106918 
L 130.027253 296.106918 
L 130.027253 292.9152 
L 156.88953 292.9152 
L 156.88953 291.851294 
L 165.17708 291.851294 
L 165.17708 291.496659 
L 166.111072 291.496659 
L 166.111072 289.723482 
L 169.442591 289.723482 
L 169.442591 288.659576 
L 171.800001 288.659576 
L 171.800001 288.304941 
L 172.080292 288.304941 
L 172.080292 287.950306 
L 173.12102 287.950306 
L 173.12102 287.241035 
L 176.75552 287.241035 
L 176.75552 286.8864 
L 183.027769 286.8864 
L 183.027769 286.531765 
L 184.79568 286.531765 
L 184.79568 285.113224 
L 185.956604 285.113224 
L 185.956604 284.758588 
L 186.391631 284.758588 
L 186.391631 284.049318 
L 187.479644 284.049318 
L 187.479644 280.502965 
L 189.088913 280.502965 
L 189.088913 278.729788 
L 190.507122 278.729788 
L 190.507122 276.956612 
L 192.357677 276.956612 
L 192.357677 275.538071 
L 193.009007 275.538071 
L 193.009007 275.183435 
L 194.567693 275.183435 
L 194.567693 274.8288 
L 196.994441 274.8288 
L 196.994441 274.474165 
L 202.699859 274.474165 
L 202.699859 273.410259 
L 203.614476 273.410259 
L 203.614476 273.055624 
L 203.896585 273.055624 
L 203.896585 272.700988 
L 204.28688 272.700988 
L 204.28688 272.346353 
L 204.947269 272.346353 
L 204.947269 271.282447 
L 205.066235 271.282447 
L 205.066235 270.573176 
L 205.885677 270.573176 
L 205.885677 270.218541 
L 206.472494 270.218541 
L 206.472494 268.8 
L 207.240694 268.8 
L 207.240694 267.026824 
L 208.136805 267.026824 
L 208.136805 266.672188 
L 210.775796 266.672188 
L 210.846794 265.962918 
L 211.83948 265.962918 
L 211.83948 265.608282 
L 211.976011 265.608282 
L 212.080953 264.544376 
L 212.167537 264.544376 
L 212.167537 263.835106 
L 212.334482 263.835106 
L 212.334482 263.125835 
L 212.584639 263.125835 
L 212.584639 262.7712 
L 212.831514 262.7712 
L 212.831514 262.416565 
L 213.361111 262.416565 
L 213.37303 259.224847 
L 213.692018 259.224847 
L 213.692018 258.870212 
L 214.640047 258.870212 
L 214.640047 258.160941 
L 215.578647 258.160941 
L 215.578647 257.451671 
L 215.816625 257.451671 
L 215.816625 256.7424 
L 216.024742 256.7424 
L 216.024742 255.678494 
L 216.271482 255.678494 
L 216.271482 254.969224 
L 216.515027 254.969224 
L 216.59752 253.196047 
L 216.645642 253.196047 
L 216.645642 252.841412 
L 217.304797 252.841412 
L 217.362715 252.132141 
L 217.825387 252.132141 
L 217.825387 251.777506 
L 218.086871 251.777506 
L 218.086871 249.295059 
L 218.271444 249.295059 
L 218.271444 247.521882 
L 218.563045 247.521882 
L 218.563045 246.812612 
L 218.696397 246.812612 
L 218.703579 244.6848 
L 218.844851 244.6848 
L 218.844851 244.330165 
L 219.106692 244.330165 
L 219.106692 243.975529 
L 219.518545 243.975529 
L 219.626525 242.911624 
L 219.943434 242.911624 
L 219.968624 240.074541 
L 220.153994 240.074541 
L 220.153994 239.719906 
L 220.289771 239.719906 
L 220.29307 238.656 
L 221.090795 238.656 
L 221.139745 237.946729 
L 221.553065 237.946729 
L 221.553065 237.237459 
L 222.152766 237.237459 
L 222.152766 235.818918 
L 222.320867 235.818918 
L 222.320867 235.109647 
L 222.608924 235.109647 
L 222.608924 234.755012 
L 222.728141 234.755012 
L 222.728141 234.045741 
L 223.177796 234.045741 
L 223.177796 233.691106 
L 223.494907 233.691106 
L 223.572664 232.6272 
L 223.771146 232.6272 
L 223.771146 232.272565 
L 223.9404 232.272565 
L 224.043388 230.854024 
L 224.148503 230.854024 
L 224.207541 230.144753 
L 224.282413 230.144753 
L 224.378241 229.435482 
L 224.686353 229.435482 
L 224.686353 229.080847 
L 224.803527 229.080847 
L 224.803527 228.726212 
L 224.914815 228.726212 
L 224.914815 228.016941 
L 225.695742 228.016941 
L 225.695742 227.307671 
L 230.50761 227.307671 
L 230.50761 226.5984 
L 230.964915 226.5984 
L 230.964915 225.889129 
L 231.170508 225.889129 
L 231.170508 225.534494 
L 231.306945 225.534494 
L 231.369301 224.470588 
L 231.56511 224.470588 
L 231.56511 222.697412 
L 232.095727 222.697412 
L 232.095727 222.342776 
L 232.681075 222.342776 
L 232.681075 221.988141 
L 233.262835 221.988141 
L 233.348733 218.796424 
L 233.427676 218.796424 
L 233.494846 217.732518 
L 233.542212 217.732518 
L 233.580507 216.668612 
L 233.671451 216.668612 
L 233.7426 215.604706 
L 233.864863 215.604706 
L 233.864863 213.476894 
L 233.996689 213.476894 
L 234.104656 211.349082 
L 234.152092 211.349082 
L 234.230887 210.639812 
L 234.309354 210.639812 
L 234.4062 209.930541 
L 235.141815 209.930541 
L 235.141815 207.093459 
L 235.25683 207.093459 
L 235.25683 204.965647 
L 235.538393 204.965647 
L 235.613062 203.901741 
L 236.177307 203.901741 
L 236.177307 203.192471 
L 236.62015 203.192471 
L 236.62015 201.773929 
L 236.894455 201.773929 
L 236.894455 201.419294 
L 237.139236 201.419294 
L 237.228621 200.000753 
L 237.272821 200.000753 
L 237.339592 198.582212 
L 237.604991 198.582212 
L 237.684998 194.681224 
L 238.878566 194.681224 
L 238.878566 194.326588 
L 239.01564 194.326588 
L 239.01564 193.262682 
L 239.601504 193.262682 
L 239.601504 192.908047 
L 240.018828 192.908047 
L 240.018828 191.489506 
L 240.537635 191.489506 
L 240.593784 190.780235 
L 240.649766 190.780235 
L 240.649766 190.4256 
L 240.761232 190.4256 
L 240.872042 189.007059 
L 241.386429 189.007059 
L 241.386429 188.652424 
L 241.601812 188.652424 
L 241.706207 186.879247 
L 241.791097 186.879247 
L 241.843632 185.815341 
L 241.931039 185.815341 
L 241.985267 184.3968 
L 242.049721 184.3968 
L 242.049721 184.042165 
L 242.257169 184.042165 
L 242.346255 182.623624 
L 242.524691 182.623624 
L 242.524691 181.914353 
L 242.6844 181.914353 
L 242.785966 180.850447 
L 242.854203 180.850447 
L 242.911787 179.786541 
L 243.010657 179.786541 
L 243.081524 173.757741 
L 243.339106 173.757741 
L 243.365736 173.048471 
L 243.47188 173.048471 
L 243.499764 171.984565 
L 243.889155 171.984565 
L 243.889155 171.629929 
L 245.436788 171.629929 
L 245.502549 170.211388 
L 245.616222 170.211388 
L 245.616222 169.147482 
L 245.859335 169.147482 
L 245.859335 168.792847 
L 245.980144 168.792847 
L 245.980144 168.438212 
L 246.236913 168.438212 
L 246.303665 166.665035 
L 246.525024 166.665035 
L 246.554043 165.246494 
L 246.700092 165.246494 
L 246.700092 164.537224 
L 246.849841 164.537224 
L 246.849841 163.827953 
L 247.0279 163.827953 
L 247.115707 162.409412 
L 247.376696 162.409412 
L 247.473009 159.217694 
L 247.571153 159.217694 
L 247.678792 158.508424 
L 247.717223 158.508424 
L 247.717223 157.444518 
L 247.86712 157.444518 
L 247.86712 157.089882 
L 248.056597 157.089882 
L 248.137114 156.380612 
L 248.172372 156.380612 
L 248.217288 155.671341 
L 248.616769 155.671341 
L 248.616769 154.962071 
L 248.751701 154.962071 
L 248.770587 154.2528 
L 248.868345 154.2528 
L 248.965598 152.124988 
L 248.986783 152.124988 
L 249.058419 148.933271 
L 249.12444 148.933271 
L 249.200522 147.514729 
L 249.264279 147.514729 
L 249.341913 146.450824 
L 249.51019 146.450824 
L 249.545059 144.323012 
L 250.90652 144.323012 
L 250.941161 142.904471 
L 251.289506 142.904471 
L 251.352902 142.1952 
L 251.454209 142.1952 
L 251.454209 140.422024 
L 251.569994 140.422024 
L 251.569994 140.067388 
L 251.821684 140.067388 
L 251.821684 139.358118 
L 251.995885 139.358118 
L 252.072793 137.939576 
L 252.131786 137.939576 
L 252.222348 134.747859 
L 252.255254 134.747859 
L 252.342823 134.038588 
L 252.458952 134.038588 
L 252.553894 131.910776 
L 252.637132 131.910776 
L 252.70175 130.846871 
L 252.815397 130.846871 
L 252.815397 130.492235 
L 253.027631 130.492235 
L 253.027631 130.1376 
L 253.459198 130.1376 
L 253.565841 129.073694 
L 253.809851 129.073694 
L 253.899889 128.009788 
L 254.001871 128.009788 
L 254.085524 126.236612 
L 254.88438 126.236612 
L 254.98248 124.818071 
L 255.353735 124.818071 
L 255.353735 124.463435 
L 255.513708 124.463435 
L 255.513708 124.1088 
L 255.769923 124.1088 
L 255.858543 121.626353 
L 255.929388 121.626353 
L 255.979687 120.562447 
L 256.078407 120.562447 
L 256.092679 119.853176 
L 256.263829 119.853176 
L 256.307164 118.789271 
L 256.453715 118.789271 
L 256.554065 117.725365 
L 257.797528 117.725365 
L 257.829851 116.661459 
L 257.976399 116.661459 
L 257.976399 115.952188 
L 258.251867 115.952188 
L 258.273784 114.179012 
L 258.372748 114.179012 
L 258.378195 109.214118 
L 258.621023 109.214118 
L 258.725881 103.539953 
L 258.747253 103.539953 
L 258.77436 102.476047 
L 258.893635 102.476047 
L 258.893635 102.121412 
L 259.151068 102.121412 
L 259.151068 101.766776 
L 259.336009 101.766776 
L 259.424197 98.575059 
L 259.45837 98.575059 
L 259.526939 96.447247 
L 259.616278 96.447247 
L 259.709863 93.9648 
L 259.733389 93.9648 
L 259.743318 92.900894 
L 259.955034 92.900894 
L 260.031797 91.127718 
L 260.577799 91.127718 
L 260.577799 90.773082 
L 261.08672 90.773082 
L 261.135885 88.645271 
L 261.236825 88.645271 
L 261.308914 87.936 
L 261.360291 87.936 
L 261.380728 87.226729 
L 261.490523 87.226729 
L 261.551898 84.389647 
L 261.661982 84.389647 
L 261.66253 83.325741 
L 261.934945 83.325741 
L 261.934945 82.971106 
L 262.470672 82.971106 
L 262.470672 82.261835 
L 262.62547 82.261835 
L 262.698672 81.552565 
L 262.990711 81.552565 
L 263.089659 74.814494 
L 263.24098 74.814494 
L 263.324227 72.332047 
L 263.460551 72.332047 
L 263.562852 64.884706 
L 263.587144 64.884706 
L 263.636786 64.175435 
L 263.806488 64.175435 
L 263.885812 61.692988 
L 264.923874 61.692988 
L 264.923874 61.338353 
L 265.092312 61.338353 
L 265.092312 60.983718 
L 265.264695 60.983718 
L 265.264695 60.629082 
L 265.529281 60.629082 
L 265.551609 59.919812 
L 265.699789 59.919812 
L 265.699789 59.565176 
L 265.817499 59.565176 
L 265.817499 59.210541 
L 266.238126 59.210541 
L 266.238126 58.855906 
L 266.426087 58.855906 
L 266.426087 58.501271 
L 266.660496 58.501271 
L 266.660496 58.146635 
L 266.944314 58.146635 
L 266.944314 57.437365 
L 267.172392 57.437365 
L 267.205392 53.181741 
L 267.308384 53.181741 
L 267.308384 52.827106 
L 267.4434 52.827106 
L 267.550585 51.7632 
L 267.703793 51.7632 
L 267.703793 51.408565 
L 268.174583 51.408565 
L 268.174583 50.699294 
L 268.777166 50.699294 
L 268.839225 49.280753 
L 269.080622 49.280753 
L 269.089622 48.571482 
L 269.344515 48.571482 
L 269.344515 48.216847 
L 269.665822 48.216847 
L 269.665822 47.862212 
L 272.792923 47.862212 
L 272.851345 46.443671 
L 272.964238 46.443671 
L 272.964238 46.089035 
L 273.881564 46.089035 
L 273.881564 45.7344 
L 274.430391 45.7344 
L 274.484043 45.025129 
L 274.982682 45.025129 
L 275.092385 43.961224 
L 275.206618 43.961224 
L 275.304134 42.897318 
L 275.426687 42.897318 
L 275.426687 42.542682 
L 275.567587 42.542682 
L 275.582169 41.833412 
L 275.936583 41.833412 
L 275.936583 41.478776 
L 276.46861 41.478776 
L 276.46861 41.124141 
L 277.453785 41.124141 
L 277.457182 40.414871 
L 277.61351 40.414871 
L 277.691852 39.7056 
L 277.744289 39.7056 
L 277.821935 38.641694 
L 277.90528 38.641694 
L 277.985876 37.223153 
L 278.172906 37.223153 
L 278.172906 36.868518 
L 278.300093 36.868518 
L 278.37631 35.449976 
L 278.710382 35.449976 
L 278.710382 35.095341 
L 279.430864 35.095341 
L 279.499454 34.386071 
L 279.702826 34.386071 
L 279.702826 33.6768 
L 279.899929 33.6768 
L 280.002543 32.967529 
L 280.750197 32.967529 
L 280.750197 32.612894 
L 281.20748 32.612894 
L 281.213046 31.548988 
L 281.514979 31.548988 
L 281.514979 30.839718 
L 281.67684 30.839718 
L 281.67684 30.485082 
L 282.499219 30.485082 
L 282.499219 30.130447 
L 285.907567 30.130447 
L 285.907567 29.775812 
L 286.380802 29.775812 
L 286.380802 29.421176 
L 286.666512 29.421176 
L 286.666512 29.066541 
L 287.427483 29.066541 
L 287.427483 28.711906 
L 288.088105 28.711906 
L 288.088105 28.357271 
L 297.012132 28.357271 
L 297.012132 28.002635 
L 298.513342 28.002635 
L 298.513342 27.648 
L 360.8064 27.648 
L 360.8064 27.648 
" style="fill: none; stroke: #6495ed; stroke-width: 1.5; stroke-linecap: square"/>
   </g>
   <g id="line2d_51">
    <defs>
     <path id="m85b0eeedf7" d="M -0 6 
L 6 -6 
L -6 -6 
z
" style="stroke: #6495ed; stroke-width: 1.5; stroke-linejoin: miter"/>
    </defs>
    <g>
     <use xlink:href="#m85b0eeedf7" x="218.563045" y="246.812612" style="fill-opacity: 0; stroke: #6495ed; stroke-width: 1.5; stroke-linejoin: miter"/>
     <use xlink:href="#m85b0eeedf7" x="247.86712" y="157.089882" style="fill-opacity: 0; stroke: #6495ed; stroke-width: 1.5; stroke-linejoin: miter"/>
     <use xlink:href="#m85b0eeedf7" x="288.088105" y="28.711906" style="fill-opacity: 0; stroke: #6495ed; stroke-width: 1.5; stroke-linejoin: miter"/>
     <use xlink:href="#m85b0eeedf7" x="298.513342" y="27.648" style="fill-opacity: 0; stroke: #6495ed; stroke-width: 1.5; stroke-linejoin: miter"/>
     <use xlink:href="#m85b0eeedf7" x="360.8064" y="27.648" style="fill-opacity: 0; stroke: #6495ed; stroke-width: 1.5; stroke-linejoin: miter"/>
    </g>
   </g>
   <g id="line2d_52">
    <path style="fill: none; stroke: #6495ed; stroke-width: 1.5; stroke-linecap: square"/>
    <g/>
   </g>
   <g id="line2d_53">
    <path d="M 269.089622 48.571482 
" clip-path="url(#pf6b56673a6)" style="fill: none; stroke: #6495ed; stroke-width: 1.5; stroke-linecap: square"/>
    <defs>
     <path id="mc73de3cc60" d="M -12 12 
L 12 -12 
M -12 -12 
L 12 12 
" style="stroke: #6495ed"/>
    </defs>
    <g clip-path="url(#pf6b56673a6)">
     <use xlink:href="#mc73de3cc60" x="269.089622" y="48.571482" style="fill: #6495ed; stroke: #6495ed"/>
    </g>
   </g>
   <g id="line2d_54">
    <path d="M 360.8064 176.594824 
L 380.514816 293.51808 
" style="fill: none; stroke: #ff00ff; stroke-width: 1.5; stroke-linecap: square"/>
    <g>
     <use xlink:href="#m41987152d1" x="360.8064" y="176.594824" style="fill-opacity: 0; stroke: #ff00ff; stroke-width: 1.5; stroke-linejoin: miter"/>
     <use xlink:href="#m41987152d1" x="380.514816" y="293.51808" style="fill-opacity: 0; stroke: #ff00ff; stroke-width: 1.5; stroke-linejoin: miter"/>
    </g>
   </g>
   <g id="line2d_55">
    <path d="M 360.8064 27.648 
L 380.514816 228.40704 
" style="fill: none; stroke: #ff7500; stroke-width: 1.5; stroke-linecap: square"/>
    <g>
     <use xlink:href="#m8d6fca4588" x="360.8064" y="27.648" style="fill-opacity: 0; stroke: #ff7500; stroke-width: 1.5; stroke-linejoin: bevel"/>
     <use xlink:href="#m8d6fca4588" x="380.514816" y="228.40704" style="fill-opacity: 0; stroke: #ff7500; stroke-width: 1.5; stroke-linejoin: bevel"/>
    </g>
   </g>
   <g id="line2d_56">
    <path d="M 360.8064 27.648 
L 380.514816 163.296 
" style="fill: none; stroke: #6495ed; stroke-width: 1.5; stroke-linecap: square"/>
    <g>
     <use xlink:href="#m85b0eeedf7" x="360.8064" y="27.648" style="fill-opacity: 0; stroke: #6495ed; stroke-width: 1.5; stroke-linejoin: miter"/>
     <use xlink:href="#m85b0eeedf7" x="380.514816" y="163.296" style="fill-opacity: 0; stroke: #6495ed; stroke-width: 1.5; stroke-linejoin: miter"/>
    </g>
   </g>
   <g id="line2d_57">
    <path d="M 360.8064 27.648 
L 380.514816 98.18496 
" style="fill: none; stroke: #000080; stroke-width: 1.5; stroke-linecap: square"/>
    <g>
     <use xlink:href="#m59da208326" x="360.8064" y="27.648" style="fill-opacity: 0; stroke: #000080; stroke-width: 1.5"/>
     <use xlink:href="#m59da208326" x="380.514816" y="98.18496" style="fill-opacity: 0; stroke: #000080; stroke-width: 1.5"/>
    </g>
   </g>
   <g id="line2d_58">
    <path d="M 360.8064 298.944 
L 360.8064 27.648 
" style="fill: none; stroke: #000000; stroke-width: 1.5; stroke-linecap: square"/>
   </g>
   <g id="patch_3">
    <path d="M 57.6 298.944 
L 360.8064 298.944 
" style="fill: none; stroke: #000000; stroke-width: 0.8; stroke-linejoin: miter; stroke-linecap: square"/>
   </g>
   <g id="patch_4">
    <path d="M 57.6 27.648 
L 360.8064 27.648 
" style="fill: none; stroke: #000000; stroke-width: 0.8; stroke-linejoin: miter; stroke-linecap: square"/>
   </g>
   <g id="text_13">
    <!-- GA -->
    <g transform="translate(386.578944 297.381205)scale(0.14 -0.14)">
     <defs>
      <path id="DejaVuSans-47" d="M 3809 666 
L 3809 1919 
L 2778 1919 
L 2778 2438 
L 4434 2438 
L 4434 434 
Q 4069 175 3628 42 
Q 3188 -91 2688 -91 
Q 1594 -91 976 548 
Q 359 1188 359 2328 
Q 359 3472 976 4111 
Q 1594 4750 2688 4750 
Q 3144 4750 3555 4637 
Q 3966 4525 4313 4306 
L 4313 3634 
Q 3963 3931 3569 4081 
Q 3175 4231 2741 4231 
Q 1884 4231 1454 3753 
Q 1025 3275 1025 2328 
Q 1025 1384 1454 906 
Q 1884 428 2741 428 
Q 3075 428 3337 486 
Q 3600 544 3809 666 
z
" transform="scale(0.015625)"/>
      <path id="DejaVuSans-41" d="M 2188 4044 
L 1331 1722 
L 3047 1722 
L 2188 4044 
z
M 1831 4666 
L 2547 4666 
L 4325 0 
L 3669 0 
L 3244 1197 
L 1141 1197 
L 716 0 
L 50 0 
L 1831 4666 
z
" transform="scale(0.015625)"/>
     </defs>
     <use xlink:href="#DejaVuSans-47"/>
     <use xlink:href="#DejaVuSans-41" x="77.490234"/>
    </g>
   </g>
   <g id="text_14">
    <!-- PSO -->
    <g transform="translate(386.578944 232.270165)scale(0.14 -0.14)">
     <defs>
      <path id="DejaVuSans-50" d="M 1259 4147 
L 1259 2394 
L 2053 2394 
Q 2494 2394 2734 2622 
Q 2975 2850 2975 3272 
Q 2975 3691 2734 3919 
Q 2494 4147 2053 4147 
L 1259 4147 
z
M 628 4666 
L 2053 4666 
Q 2838 4666 3239 4311 
Q 3641 3956 3641 3272 
Q 3641 2581 3239 2228 
Q 2838 1875 2053 1875 
L 1259 1875 
L 1259 0 
L 628 0 
L 628 4666 
z
" transform="scale(0.015625)"/>
      <path id="DejaVuSans-53" d="M 3425 4513 
L 3425 3897 
Q 3066 4069 2747 4153 
Q 2428 4238 2131 4238 
Q 1616 4238 1336 4038 
Q 1056 3838 1056 3469 
Q 1056 3159 1242 3001 
Q 1428 2844 1947 2747 
L 2328 2669 
Q 3034 2534 3370 2195 
Q 3706 1856 3706 1288 
Q 3706 609 3251 259 
Q 2797 -91 1919 -91 
Q 1588 -91 1214 -16 
Q 841 59 441 206 
L 441 856 
Q 825 641 1194 531 
Q 1563 422 1919 422 
Q 2459 422 2753 634 
Q 3047 847 3047 1241 
Q 3047 1584 2836 1778 
Q 2625 1972 2144 2069 
L 1759 2144 
Q 1053 2284 737 2584 
Q 422 2884 422 3419 
Q 422 4038 858 4394 
Q 1294 4750 2059 4750 
Q 2388 4750 2728 4690 
Q 3069 4631 3425 4513 
z
" transform="scale(0.015625)"/>
      <path id="DejaVuSans-4f" d="M 2522 4238 
Q 1834 4238 1429 3725 
Q 1025 3213 1025 2328 
Q 1025 1447 1429 934 
Q 1834 422 2522 422 
Q 3209 422 3611 934 
Q 4013 1447 4013 2328 
Q 4013 3213 3611 3725 
Q 3209 4238 2522 4238 
z
M 2522 4750 
Q 3503 4750 4090 4092 
Q 4678 3434 4678 2328 
Q 4678 1225 4090 567 
Q 3503 -91 2522 -91 
Q 1538 -91 948 565 
Q 359 1222 359 2328 
Q 359 3434 948 4092 
Q 1538 4750 2522 4750 
z
" transform="scale(0.015625)"/>
     </defs>
     <use xlink:href="#DejaVuSans-50"/>
     <use xlink:href="#DejaVuSans-53" x="60.302734"/>
     <use xlink:href="#DejaVuSans-4f" x="123.779297"/>
    </g>
   </g>
   <g id="text_15">
    <!-- EvoSpace- -->
    <g transform="translate(386.578944 167.159125)scale(0.14 -0.14)">
     <defs>
      <path id="DejaVuSans-45" d="M 628 4666 
L 3578 4666 
L 3578 4134 
L 1259 4134 
L 1259 2753 
L 3481 2753 
L 3481 2222 
L 1259 2222 
L 1259 531 
L 3634 531 
L 3634 0 
L 628 0 
L 628 4666 
z
" transform="scale(0.015625)"/>
     </defs>
     <use xlink:href="#DejaVuSans-45"/>
     <use xlink:href="#DejaVuSans-76" x="63.183594"/>
     <use xlink:href="#DejaVuSans-6f" x="122.363281"/>
     <use xlink:href="#DejaVuSans-53" x="183.544922"/>
     <use xlink:href="#DejaVuSans-70" x="247.021484"/>
     <use xlink:href="#DejaVuSans-61" x="310.498047"/>
     <use xlink:href="#DejaVuSans-63" x="371.777344"/>
     <use xlink:href="#DejaVuSans-65" x="426.757812"/>
     <use xlink:href="#DejaVuSans-2d" x="488.28125"/>
    </g>
   </g>
   <g id="text_16">
    <!-- LCGA -->
    <g transform="translate(386.578944 102.048085)scale(0.14 -0.14)">
     <defs>
      <path id="DejaVuSans-4c" d="M 628 4666 
L 1259 4666 
L 1259 531 
L 3531 531 
L 3531 0 
L 628 0 
L 628 4666 
z
" transform="scale(0.015625)"/>
      <path id="DejaVuSans-43" d="M 4122 4306 
L 4122 3641 
Q 3803 3938 3442 4084 
Q 3081 4231 2675 4231 
Q 1875 4231 1450 3742 
Q 1025 3253 1025 2328 
Q 1025 1406 1450 917 
Q 1875 428 2675 428 
Q 3081 428 3442 575 
Q 3803 722 4122 1019 
L 4122 359 
Q 3791 134 3420 21 
Q 3050 -91 2638 -91 
Q 1578 -91 968 557 
Q 359 1206 359 2328 
Q 359 3453 968 4101 
Q 1578 4750 2638 4750 
Q 3056 4750 3426 4639 
Q 3797 4528 4122 4306 
z
" transform="scale(0.015625)"/>
     </defs>
     <use xlink:href="#DejaVuSans-4c"/>
     <use xlink:href="#DejaVuSans-43" x="55.712891"/>
     <use xlink:href="#DejaVuSans-47" x="125.537109"/>
     <use xlink:href="#DejaVuSans-41" x="203.027344"/>
    </g>
   </g>
   <g id="text_17">
    <!-- best 2009 -->
    <g transform="translate(386.578944 36.937045)scale(0.14 -0.14)">
     <defs>
      <path id="DejaVuSans-62" d="M 3116 1747 
Q 3116 2381 2855 2742 
Q 2594 3103 2138 3103 
Q 1681 3103 1420 2742 
Q 1159 2381 1159 1747 
Q 1159 1113 1420 752 
Q 1681 391 2138 391 
Q 2594 391 2855 752 
Q 3116 1113 3116 1747 
z
M 1159 2969 
Q 1341 3281 1617 3432 
Q 1894 3584 2278 3584 
Q 2916 3584 3314 3078 
Q 3713 2572 3713 1747 
Q 3713 922 3314 415 
Q 2916 -91 2278 -91 
Q 1894 -91 1617 61 
Q 1341 213 1159 525 
L 1159 0 
L 581 0 
L 581 4863 
L 1159 4863 
L 1159 2969 
z
" transform="scale(0.015625)"/>
      <path id="DejaVuSans-39" d="M 703 97 
L 703 672 
Q 941 559 1184 500 
Q 1428 441 1663 441 
Q 2288 441 2617 861 
Q 2947 1281 2994 2138 
Q 2813 1869 2534 1725 
Q 2256 1581 1919 1581 
Q 1219 1581 811 2004 
Q 403 2428 403 3163 
Q 403 3881 828 4315 
Q 1253 4750 1959 4750 
Q 2769 4750 3195 4129 
Q 3622 3509 3622 2328 
Q 3622 1225 3098 567 
Q 2575 -91 1691 -91 
Q 1453 -91 1209 -44 
Q 966 3 703 97 
z
M 1959 2075 
Q 2384 2075 2632 2365 
Q 2881 2656 2881 3163 
Q 2881 3666 2632 3958 
Q 2384 4250 1959 4250 
Q 1534 4250 1286 3958 
Q 1038 3666 1038 3163 
Q 1038 2656 1286 2365 
Q 1534 2075 1959 2075 
z
" transform="scale(0.015625)"/>
     </defs>
     <use xlink:href="#DejaVuSans-62"/>
     <use xlink:href="#DejaVuSans-65" x="63.476562"/>
     <use xlink:href="#DejaVuSans-73" x="125"/>
     <use xlink:href="#DejaVuSans-74" x="177.099609"/>
     <use xlink:href="#DejaVuSans-20" x="216.308594"/>
     <use xlink:href="#DejaVuSans-32" x="248.095703"/>
     <use xlink:href="#DejaVuSans-30" x="311.71875"/>
     <use xlink:href="#DejaVuSans-30" x="375.341797"/>
     <use xlink:href="#DejaVuSans-39" x="438.964844"/>
    </g>
   </g>
   <g id="text_18">
    <!-- bbob f11, 2-D -->
    <g transform="translate(60.632064 38.111366)scale(0.102 -0.102)">
     <defs>
      <path id="DejaVuSans-44" d="M 1259 4147 
L 1259 519 
L 2022 519 
Q 2988 519 3436 956 
Q 3884 1394 3884 2338 
Q 3884 3275 3436 3711 
Q 2988 4147 2022 4147 
L 1259 4147 
z
M 628 4666 
L 1925 4666 
Q 3281 4666 3915 4102 
Q 4550 3538 4550 2338 
Q 4550 1131 3912 565 
Q 3275 0 1925 0 
L 628 0 
L 628 4666 
z
" transform="scale(0.015625)"/>
     </defs>
     <use xlink:href="#DejaVuSans-62"/>
     <use xlink:href="#DejaVuSans-62" x="63.476562"/>
     <use xlink:href="#DejaVuSans-6f" x="126.953125"/>
     <use xlink:href="#DejaVuSans-62" x="188.134766"/>
     <use xlink:href="#DejaVuSans-20" x="251.611328"/>
     <use xlink:href="#DejaVuSans-66" x="283.398438"/>
     <use xlink:href="#DejaVuSans-31" x="318.603516"/>
     <use xlink:href="#DejaVuSans-31" x="382.226562"/>
     <use xlink:href="#DejaVuSans-2c" x="445.849609"/>
     <use xlink:href="#DejaVuSans-20" x="477.636719"/>
     <use xlink:href="#DejaVuSans-32" x="509.423828"/>
     <use xlink:href="#DejaVuSans-2d" x="573.046875"/>
     <use xlink:href="#DejaVuSans-44" x="609.130859"/>
    </g>
    <!-- 51 targets: 100..1e-08 -->
    <g transform="translate(60.632064 49.533135)scale(0.102 -0.102)">
     <defs>
      <path id="DejaVuSans-35" d="M 691 4666 
L 3169 4666 
L 3169 4134 
L 1269 4134 
L 1269 2991 
Q 1406 3038 1543 3061 
Q 1681 3084 1819 3084 
Q 2600 3084 3056 2656 
Q 3513 2228 3513 1497 
Q 3513 744 3044 326 
Q 2575 -91 1722 -91 
Q 1428 -91 1123 -41 
Q 819 9 494 109 
L 494 744 
Q 775 591 1075 516 
Q 1375 441 1709 441 
Q 2250 441 2565 725 
Q 2881 1009 2881 1497 
Q 2881 1984 2565 2268 
Q 2250 2553 1709 2553 
Q 1456 2553 1204 2497 
Q 953 2441 691 2322 
L 691 4666 
z
" transform="scale(0.015625)"/>
      <path id="DejaVuSans-3a" d="M 750 794 
L 1409 794 
L 1409 0 
L 750 0 
L 750 794 
z
M 750 3309 
L 1409 3309 
L 1409 2516 
L 750 2516 
L 750 3309 
z
" transform="scale(0.015625)"/>
     </defs>
     <use xlink:href="#DejaVuSans-35"/>
     <use xlink:href="#DejaVuSans-31" x="63.623047"/>
     <use xlink:href="#DejaVuSans-20" x="127.246094"/>
     <use xlink:href="#DejaVuSans-74" x="159.033203"/>
     <use xlink:href="#DejaVuSans-61" x="198.242188"/>
     <use xlink:href="#DejaVuSans-72" x="259.521484"/>
     <use xlink:href="#DejaVuSans-67" x="298.884766"/>
     <use xlink:href="#DejaVuSans-65" x="362.361328"/>
     <use xlink:href="#DejaVuSans-74" x="423.884766"/>
     <use xlink:href="#DejaVuSans-73" x="463.09375"/>
     <use xlink:href="#DejaVuSans-3a" x="515.193359"/>
     <use xlink:href="#DejaVuSans-20" x="548.884766"/>
     <use xlink:href="#DejaVuSans-31" x="580.671875"/>
     <use xlink:href="#DejaVuSans-30" x="644.294922"/>
     <use xlink:href="#DejaVuSans-30" x="707.917969"/>
     <use xlink:href="#DejaVuSans-2e" x="771.541016"/>
     <use xlink:href="#DejaVuSans-2e" x="803.328125"/>
     <use xlink:href="#DejaVuSans-31" x="835.115234"/>
     <use xlink:href="#DejaVuSans-65" x="898.738281"/>
     <use xlink:href="#DejaVuSans-2d" x="960.261719"/>
     <use xlink:href="#DejaVuSans-30" x="996.345703"/>
     <use xlink:href="#DejaVuSans-38" x="1059.96875"/>
    </g>
    <!-- 15 instances -->
    <g transform="translate(60.632064 60.954904)scale(0.102 -0.102)">
     <use xlink:href="#DejaVuSans-31"/>
     <use xlink:href="#DejaVuSans-35" x="63.623047"/>
     <use xlink:href="#DejaVuSans-20" x="127.246094"/>
     <use xlink:href="#DejaVuSans-69" x="159.033203"/>
     <use xlink:href="#DejaVuSans-6e" x="186.816406"/>
     <use xlink:href="#DejaVuSans-73" x="250.195312"/>
     <use xlink:href="#DejaVuSans-74" x="302.294922"/>
     <use xlink:href="#DejaVuSans-61" x="341.503906"/>
     <use xlink:href="#DejaVuSans-6e" x="402.783203"/>
     <use xlink:href="#DejaVuSans-63" x="466.162109"/>
     <use xlink:href="#DejaVuSans-65" x="521.142578"/>
     <use xlink:href="#DejaVuSans-73" x="582.666016"/>
    </g>
   </g>
   <g id="text_19">
    <!-- v2.6 -->
    <g style="fill: #808080" transform="translate(198.292262 294.151352)scale(0.1 -0.1)">
     <use xlink:href="#DejaVuSans-76"/>
     <use xlink:href="#DejaVuSans-32" x="59.179688"/>
     <use xlink:href="#DejaVuSans-2e" x="122.802734"/>
     <use xlink:href="#DejaVuSans-36" x="154.589844"/>
    </g>
   </g>
   <g id="text_20">
    <!-- 11 Discus -->
    <g transform="translate(160.567262 21.648)scale(0.2 -0.2)">
     <use xlink:href="#DejaVuSans-31"/>
     <use xlink:href="#DejaVuSans-31" x="63.623047"/>
     <use xlink:href="#DejaVuSans-20" x="127.246094"/>
     <use xlink:href="#DejaVuSans-44" x="159.033203"/>
     <use xlink:href="#DejaVuSans-69" x="236.035156"/>
     <use xlink:href="#DejaVuSans-73" x="263.818359"/>
     <use xlink:href="#DejaVuSans-63" x="315.917969"/>
     <use xlink:href="#DejaVuSans-75" x="370.898438"/>
     <use xlink:href="#DejaVuSans-73" x="434.277344"/>
    </g>
   </g>
  </g>
 </g>
 <defs>
  <clipPath id="pf6b56673a6">
   <rect x="57.6" y="27.648" width="303.2064" height="271.296"/>
  </clipPath>
 </defs>
</svg>
