<?xml version="1.0" encoding="utf-8" standalone="no"?>
<!DOCTYPE svg PUBLIC "-//W3C//DTD SVG 1.1//EN"
  "http://www.w3.org/Graphics/SVG/1.1/DTD/svg11.dtd">
<svg xmlns:xlink="http://www.w3.org/1999/xlink" width="460.8pt" height="345.6pt" viewBox="0 0 460.8 345.6" xmlns="http://www.w3.org/2000/svg" version="1.1">
 <metadata>
  <rdf:RDF xmlns:dc="http://purl.org/dc/elements/1.1/" xmlns:cc="http://creativecommons.org/ns#" xmlns:rdf="http://www.w3.org/1999/02/22-rdf-syntax-ns#">
   <cc:Work>
    <dc:type rdf:resource="http://purl.org/dc/dcmitype/StillImage"/>
    <dc:date>2024-05-29T08:05:42.574721</dc:date>
    <dc:format>image/svg+xml</dc:format>
    <dc:creator>
     <cc:Agent>
      <dc:title>Matplotlib v3.5.1, https://matplotlib.org/</dc:title>
     </cc:Agent>
    </dc:creator>
   </cc:Work>
  </rdf:RDF>
 </metadata>
 <defs>
  <style type="text/css">*{stroke-linejoin: round; stroke-linecap: butt}</style>
 </defs>
 <g id="figure_1">
  <g id="patch_1">
   <path d="M 0 345.6 
L 460.8 345.6 
L 460.8 0 
L 0 0 
z
" style="fill: #ffffff"/>
  </g>
  <g id="axes_1">
   <g id="patch_2">
    <path d="M 57.6 298.944 
L 360.8064 298.944 
L 360.8064 27.648 
L 57.6 27.648 
z
" style="fill: #ffffff"/>
   </g>
   <g id="line2d_1">
    <path d="M 76.050921 298.944 
L 76.050921 288.304941 
L 85.184077 288.304941 
L 85.184077 282.985412 
L 90.230539 282.985412 
L 90.230539 277.665882 
L 97.485448 277.665882 
L 97.485448 272.346353 
L 103.269713 272.346353 
L 103.269713 267.026824 
L 106.326946 267.026824 
L 106.326946 261.707294 
L 108.956085 261.707294 
L 108.956085 256.387765 
L 110.144579 256.387765 
L 110.144579 251.068235 
L 111.262425 251.068235 
L 111.262425 245.748706 
L 112.656511 245.748706 
L 112.656511 240.429176 
L 114.265316 240.429176 
L 114.265316 235.109647 
L 115.747307 235.109647 
L 115.747307 229.790118 
L 117.121023 229.790118 
L 117.121023 224.470588 
L 118.889854 224.470588 
L 118.889854 219.151059 
L 121.581803 219.151059 
L 121.581803 213.831529 
L 123.374735 213.831529 
L 123.374735 208.512 
L 124.119844 208.512 
L 124.119844 203.192471 
L 124.836562 203.192471 
L 124.836562 197.872941 
L 125.695686 197.872941 
L 125.695686 192.553412 
L 126.517282 192.553412 
L 126.517282 187.233882 
L 127.761474 187.233882 
L 127.761474 181.914353 
L 128.786481 181.914353 
L 128.786481 176.594824 
L 129.758512 176.594824 
L 129.758512 171.275294 
L 130.292209 171.275294 
L 130.292209 165.955765 
L 131.065395 165.955765 
L 131.065395 160.636235 
L 132.287354 160.636235 
L 132.287354 155.316706 
L 133.097823 155.316706 
L 133.097823 149.997176 
L 133.983236 149.997176 
L 133.983236 144.677647 
L 134.304809 144.677647 
L 134.304809 139.358118 
L 135.034434 139.358118 
L 135.034434 134.038588 
L 135.638065 134.038588 
L 135.638065 128.719059 
L 136.222928 128.719059 
L 136.222928 123.399529 
L 136.790153 123.399529 
L 136.790153 118.08 
L 137.159019 118.08 
L 137.159019 112.760471 
L 137.963436 112.760471 
L 137.963436 107.440941 
L 138.481218 107.440941 
L 138.481218 102.121412 
L 138.902075 102.121412 
L 138.902075 96.801882 
L 139.313723 96.801882 
L 139.313723 91.482353 
L 139.716555 91.482353 
L 139.716555 86.162824 
L 140.032723 86.162824 
L 140.032723 80.843294 
L 140.26641 80.843294 
L 140.26641 75.523765 
L 140.725251 75.523765 
L 140.725251 70.204235 
L 141.025043 70.204235 
L 141.025043 64.884706 
L 141.538451 64.884706 
L 141.538451 59.565176 
L 141.896777 59.565176 
L 141.896777 54.245647 
L 142.317949 54.245647 
L 142.317949 48.926118 
L 142.729897 48.926118 
L 142.729897 43.606588 
L 143.199372 43.606588 
L 143.199372 38.287059 
L 143.657415 38.287059 
L 143.657415 32.967529 
L 143.850356 32.967529 
L 143.850356 27.648 
L 360.8064 27.648 
" style="fill: none; stroke: #f5deb3; stroke-width: 4; stroke-linecap: square"/>
   </g>
   <g id="line2d_2">
    <defs>
     <path id="md3fa13acee" d="M 0 7.778175 
L 7.778175 0 
L 0 -7.778175 
L -7.778175 0 
z
" style="stroke: #f5deb3; stroke-width: 1.5; stroke-linejoin: miter"/>
    </defs>
    <g>
     <use xlink:href="#md3fa13acee" x="131.065395" y="165.955765" style="fill: #f5deb3; stroke: #f5deb3; stroke-width: 1.5; stroke-linejoin: miter"/>
     <use xlink:href="#md3fa13acee" x="143.850356" y="32.967529" style="fill: #f5deb3; stroke: #f5deb3; stroke-width: 1.5; stroke-linejoin: miter"/>
     <use xlink:href="#md3fa13acee" x="143.850356" y="27.648" style="fill: #f5deb3; stroke: #f5deb3; stroke-width: 1.5; stroke-linejoin: miter"/>
     <use xlink:href="#md3fa13acee" x="143.850356" y="27.648" style="fill: #f5deb3; stroke: #f5deb3; stroke-width: 1.5; stroke-linejoin: miter"/>
     <use xlink:href="#md3fa13acee" x="360.8064" y="27.648" style="fill: #f5deb3; stroke: #f5deb3; stroke-width: 1.5; stroke-linejoin: miter"/>
    </g>
   </g>
   <g id="line2d_3">
    <path style="fill: none; stroke: #f5deb3; stroke-width: 4; stroke-linecap: square"/>
    <g/>
   </g>
   <g id="line2d_4">
    <path d="M 360.8064 27.648 
L 380.514816 33.07392 
" style="fill: none; stroke: #f5deb3; stroke-width: 4; stroke-linecap: square"/>
    <g>
     <use xlink:href="#md3fa13acee" x="360.8064" y="27.648" style="fill: #f5deb3; stroke: #f5deb3; stroke-width: 1.5; stroke-linejoin: miter"/>
     <use xlink:href="#md3fa13acee" x="380.514816" y="33.07392" style="fill: #f5deb3; stroke: #f5deb3; stroke-width: 1.5; stroke-linejoin: miter"/>
    </g>
   </g>
   <g id="matplotlib.axis_1">
    <g id="xtick_1">
     <g id="line2d_5">
      <path d="M 57.6 298.944 
L 57.6 27.648 
" clip-path="url(#pb518db1e43)" style="fill: none; stroke: #b0b0b0; stroke-width: 0.8; stroke-linecap: square"/>
     </g>
     <g id="line2d_6">
      <defs>
       <path id="m0984d3de43" d="M 0 0 
L 0 3.5 
" style="stroke: #000000; stroke-width: 0.8"/>
      </defs>
      <g>
       <use xlink:href="#m0984d3de43" x="57.6" y="298.944" style="stroke: #000000; stroke-width: 0.8"/>
      </g>
     </g>
     <g id="text_1">
      <!-- 0 -->
      <g transform="translate(52.191875 318.861344)scale(0.17 -0.17)">
       <defs>
        <path id="DejaVuSans-30" d="M 2034 4250 
Q 1547 4250 1301 3770 
Q 1056 3291 1056 2328 
Q 1056 1369 1301 889 
Q 1547 409 2034 409 
Q 2525 409 2770 889 
Q 3016 1369 3016 2328 
Q 3016 3291 2770 3770 
Q 2525 4250 2034 4250 
z
M 2034 4750 
Q 2819 4750 3233 4129 
Q 3647 3509 3647 2328 
Q 3647 1150 3233 529 
Q 2819 -91 2034 -91 
Q 1250 -91 836 529 
Q 422 1150 422 2328 
Q 422 3509 836 4129 
Q 1250 4750 2034 4750 
z
" transform="scale(0.015625)"/>
       </defs>
       <use xlink:href="#DejaVuSans-30"/>
      </g>
     </g>
    </g>
    <g id="xtick_2">
     <g id="line2d_7">
      <path d="M 144.2304 298.944 
L 144.2304 27.648 
" clip-path="url(#pb518db1e43)" style="fill: none; stroke: #b0b0b0; stroke-width: 0.8; stroke-linecap: square"/>
     </g>
     <g id="line2d_8">
      <g>
       <use xlink:href="#m0984d3de43" x="144.2304" y="298.944" style="stroke: #000000; stroke-width: 0.8"/>
      </g>
     </g>
     <g id="text_2">
      <!-- 2 -->
      <g transform="translate(138.822275 318.861344)scale(0.17 -0.17)">
       <defs>
        <path id="DejaVuSans-32" d="M 1228 531 
L 3431 531 
L 3431 0 
L 469 0 
L 469 531 
Q 828 903 1448 1529 
Q 2069 2156 2228 2338 
Q 2531 2678 2651 2914 
Q 2772 3150 2772 3378 
Q 2772 3750 2511 3984 
Q 2250 4219 1831 4219 
Q 1534 4219 1204 4116 
Q 875 4013 500 3803 
L 500 4441 
Q 881 4594 1212 4672 
Q 1544 4750 1819 4750 
Q 2544 4750 2975 4387 
Q 3406 4025 3406 3419 
Q 3406 3131 3298 2873 
Q 3191 2616 2906 2266 
Q 2828 2175 2409 1742 
Q 1991 1309 1228 531 
z
" transform="scale(0.015625)"/>
       </defs>
       <use xlink:href="#DejaVuSans-32"/>
      </g>
     </g>
    </g>
    <g id="xtick_3">
     <g id="line2d_9">
      <path d="M 230.8608 298.944 
L 230.8608 27.648 
" clip-path="url(#pb518db1e43)" style="fill: none; stroke: #b0b0b0; stroke-width: 0.8; stroke-linecap: square"/>
     </g>
     <g id="line2d_10">
      <g>
       <use xlink:href="#m0984d3de43" x="230.8608" y="298.944" style="stroke: #000000; stroke-width: 0.8"/>
      </g>
     </g>
     <g id="text_3">
      <!-- 4 -->
      <g transform="translate(225.452675 318.861344)scale(0.17 -0.17)">
       <defs>
        <path id="DejaVuSans-34" d="M 2419 4116 
L 825 1625 
L 2419 1625 
L 2419 4116 
z
M 2253 4666 
L 3047 4666 
L 3047 1625 
L 3713 1625 
L 3713 1100 
L 3047 1100 
L 3047 0 
L 2419 0 
L 2419 1100 
L 313 1100 
L 313 1709 
L 2253 4666 
z
" transform="scale(0.015625)"/>
       </defs>
       <use xlink:href="#DejaVuSans-34"/>
      </g>
     </g>
    </g>
    <g id="xtick_4">
     <g id="line2d_11">
      <path d="M 317.4912 298.944 
L 317.4912 27.648 
" clip-path="url(#pb518db1e43)" style="fill: none; stroke: #b0b0b0; stroke-width: 0.8; stroke-linecap: square"/>
     </g>
     <g id="line2d_12">
      <g>
       <use xlink:href="#m0984d3de43" x="317.4912" y="298.944" style="stroke: #000000; stroke-width: 0.8"/>
      </g>
     </g>
     <g id="text_4">
      <!-- 6 -->
      <g transform="translate(312.083075 318.861344)scale(0.17 -0.17)">
       <defs>
        <path id="DejaVuSans-36" d="M 2113 2584 
Q 1688 2584 1439 2293 
Q 1191 2003 1191 1497 
Q 1191 994 1439 701 
Q 1688 409 2113 409 
Q 2538 409 2786 701 
Q 3034 994 3034 1497 
Q 3034 2003 2786 2293 
Q 2538 2584 2113 2584 
z
M 3366 4563 
L 3366 3988 
Q 3128 4100 2886 4159 
Q 2644 4219 2406 4219 
Q 1781 4219 1451 3797 
Q 1122 3375 1075 2522 
Q 1259 2794 1537 2939 
Q 1816 3084 2150 3084 
Q 2853 3084 3261 2657 
Q 3669 2231 3669 1497 
Q 3669 778 3244 343 
Q 2819 -91 2113 -91 
Q 1303 -91 875 529 
Q 447 1150 447 2328 
Q 447 3434 972 4092 
Q 1497 4750 2381 4750 
Q 2619 4750 2861 4703 
Q 3103 4656 3366 4563 
z
" transform="scale(0.015625)"/>
       </defs>
       <use xlink:href="#DejaVuSans-36"/>
      </g>
     </g>
    </g>
    <g id="xtick_5">
     <g id="line2d_13">
      <path d="M 100.9152 298.944 
L 100.9152 27.648 
" clip-path="url(#pb518db1e43)" style="fill: none; stroke: #b0b0b0; stroke-width: 0.8; stroke-linecap: square"/>
     </g>
     <g id="line2d_14">
      <defs>
       <path id="m2f86ae0cbe" d="M 0 0 
L 0 2 
" style="stroke: #000000; stroke-width: 0.6"/>
      </defs>
      <g>
       <use xlink:href="#m2f86ae0cbe" x="100.9152" y="298.944" style="stroke: #000000; stroke-width: 0.6"/>
      </g>
     </g>
    </g>
    <g id="xtick_6">
     <g id="line2d_15">
      <path d="M 187.5456 298.944 
L 187.5456 27.648 
" clip-path="url(#pb518db1e43)" style="fill: none; stroke: #b0b0b0; stroke-width: 0.8; stroke-linecap: square"/>
     </g>
     <g id="line2d_16">
      <g>
       <use xlink:href="#m2f86ae0cbe" x="187.5456" y="298.944" style="stroke: #000000; stroke-width: 0.6"/>
      </g>
     </g>
    </g>
    <g id="xtick_7">
     <g id="line2d_17">
      <path d="M 274.176 298.944 
L 274.176 27.648 
" clip-path="url(#pb518db1e43)" style="fill: none; stroke: #b0b0b0; stroke-width: 0.8; stroke-linecap: square"/>
     </g>
     <g id="line2d_18">
      <g>
       <use xlink:href="#m2f86ae0cbe" x="274.176" y="298.944" style="stroke: #000000; stroke-width: 0.6"/>
      </g>
     </g>
    </g>
    <g id="xtick_8">
     <g id="line2d_19">
      <path d="M 360.8064 298.944 
L 360.8064 27.648 
" clip-path="url(#pb518db1e43)" style="fill: none; stroke: #b0b0b0; stroke-width: 0.8; stroke-linecap: square"/>
     </g>
     <g id="line2d_20">
      <g>
       <use xlink:href="#m2f86ae0cbe" x="360.8064" y="298.944" style="stroke: #000000; stroke-width: 0.6"/>
      </g>
     </g>
    </g>
    <g id="text_5">
     <!-- log10(# f-evals / dimension) -->
     <g transform="translate(88.823278 339.314156)scale(0.17 -0.17)">
      <defs>
       <path id="DejaVuSans-6c" d="M 603 4863 
L 1178 4863 
L 1178 0 
L 603 0 
L 603 4863 
z
" transform="scale(0.015625)"/>
       <path id="DejaVuSans-6f" d="M 1959 3097 
Q 1497 3097 1228 2736 
Q 959 2375 959 1747 
Q 959 1119 1226 758 
Q 1494 397 1959 397 
Q 2419 397 2687 759 
Q 2956 1122 2956 1747 
Q 2956 2369 2687 2733 
Q 2419 3097 1959 3097 
z
M 1959 3584 
Q 2709 3584 3137 3096 
Q 3566 2609 3566 1747 
Q 3566 888 3137 398 
Q 2709 -91 1959 -91 
Q 1206 -91 779 398 
Q 353 888 353 1747 
Q 353 2609 779 3096 
Q 1206 3584 1959 3584 
z
" transform="scale(0.015625)"/>
       <path id="DejaVuSans-67" d="M 2906 1791 
Q 2906 2416 2648 2759 
Q 2391 3103 1925 3103 
Q 1463 3103 1205 2759 
Q 947 2416 947 1791 
Q 947 1169 1205 825 
Q 1463 481 1925 481 
Q 2391 481 2648 825 
Q 2906 1169 2906 1791 
z
M 3481 434 
Q 3481 -459 3084 -895 
Q 2688 -1331 1869 -1331 
Q 1566 -1331 1297 -1286 
Q 1028 -1241 775 -1147 
L 775 -588 
Q 1028 -725 1275 -790 
Q 1522 -856 1778 -856 
Q 2344 -856 2625 -561 
Q 2906 -266 2906 331 
L 2906 616 
Q 2728 306 2450 153 
Q 2172 0 1784 0 
Q 1141 0 747 490 
Q 353 981 353 1791 
Q 353 2603 747 3093 
Q 1141 3584 1784 3584 
Q 2172 3584 2450 3431 
Q 2728 3278 2906 2969 
L 2906 3500 
L 3481 3500 
L 3481 434 
z
" transform="scale(0.015625)"/>
       <path id="DejaVuSans-31" d="M 794 531 
L 1825 531 
L 1825 4091 
L 703 3866 
L 703 4441 
L 1819 4666 
L 2450 4666 
L 2450 531 
L 3481 531 
L 3481 0 
L 794 0 
L 794 531 
z
" transform="scale(0.015625)"/>
       <path id="DejaVuSans-28" d="M 1984 4856 
Q 1566 4138 1362 3434 
Q 1159 2731 1159 2009 
Q 1159 1288 1364 580 
Q 1569 -128 1984 -844 
L 1484 -844 
Q 1016 -109 783 600 
Q 550 1309 550 2009 
Q 550 2706 781 3412 
Q 1013 4119 1484 4856 
L 1984 4856 
z
" transform="scale(0.015625)"/>
       <path id="DejaVuSans-23" d="M 3272 2816 
L 2363 2816 
L 2100 1772 
L 3016 1772 
L 3272 2816 
z
M 2803 4594 
L 2478 3297 
L 3391 3297 
L 3719 4594 
L 4219 4594 
L 3897 3297 
L 4872 3297 
L 4872 2816 
L 3775 2816 
L 3519 1772 
L 4513 1772 
L 4513 1294 
L 3397 1294 
L 3072 0 
L 2572 0 
L 2894 1294 
L 1978 1294 
L 1656 0 
L 1153 0 
L 1478 1294 
L 494 1294 
L 494 1772 
L 1594 1772 
L 1856 2816 
L 850 2816 
L 850 3297 
L 1978 3297 
L 2297 4594 
L 2803 4594 
z
" transform="scale(0.015625)"/>
       <path id="DejaVuSans-20" transform="scale(0.015625)"/>
       <path id="DejaVuSans-66" d="M 2375 4863 
L 2375 4384 
L 1825 4384 
Q 1516 4384 1395 4259 
Q 1275 4134 1275 3809 
L 1275 3500 
L 2222 3500 
L 2222 3053 
L 1275 3053 
L 1275 0 
L 697 0 
L 697 3053 
L 147 3053 
L 147 3500 
L 697 3500 
L 697 3744 
Q 697 4328 969 4595 
Q 1241 4863 1831 4863 
L 2375 4863 
z
" transform="scale(0.015625)"/>
       <path id="DejaVuSans-2d" d="M 313 2009 
L 1997 2009 
L 1997 1497 
L 313 1497 
L 313 2009 
z
" transform="scale(0.015625)"/>
       <path id="DejaVuSans-65" d="M 3597 1894 
L 3597 1613 
L 953 1613 
Q 991 1019 1311 708 
Q 1631 397 2203 397 
Q 2534 397 2845 478 
Q 3156 559 3463 722 
L 3463 178 
Q 3153 47 2828 -22 
Q 2503 -91 2169 -91 
Q 1331 -91 842 396 
Q 353 884 353 1716 
Q 353 2575 817 3079 
Q 1281 3584 2069 3584 
Q 2775 3584 3186 3129 
Q 3597 2675 3597 1894 
z
M 3022 2063 
Q 3016 2534 2758 2815 
Q 2500 3097 2075 3097 
Q 1594 3097 1305 2825 
Q 1016 2553 972 2059 
L 3022 2063 
z
" transform="scale(0.015625)"/>
       <path id="DejaVuSans-76" d="M 191 3500 
L 800 3500 
L 1894 563 
L 2988 3500 
L 3597 3500 
L 2284 0 
L 1503 0 
L 191 3500 
z
" transform="scale(0.015625)"/>
       <path id="DejaVuSans-61" d="M 2194 1759 
Q 1497 1759 1228 1600 
Q 959 1441 959 1056 
Q 959 750 1161 570 
Q 1363 391 1709 391 
Q 2188 391 2477 730 
Q 2766 1069 2766 1631 
L 2766 1759 
L 2194 1759 
z
M 3341 1997 
L 3341 0 
L 2766 0 
L 2766 531 
Q 2569 213 2275 61 
Q 1981 -91 1556 -91 
Q 1019 -91 701 211 
Q 384 513 384 1019 
Q 384 1609 779 1909 
Q 1175 2209 1959 2209 
L 2766 2209 
L 2766 2266 
Q 2766 2663 2505 2880 
Q 2244 3097 1772 3097 
Q 1472 3097 1187 3025 
Q 903 2953 641 2809 
L 641 3341 
Q 956 3463 1253 3523 
Q 1550 3584 1831 3584 
Q 2591 3584 2966 3190 
Q 3341 2797 3341 1997 
z
" transform="scale(0.015625)"/>
       <path id="DejaVuSans-73" d="M 2834 3397 
L 2834 2853 
Q 2591 2978 2328 3040 
Q 2066 3103 1784 3103 
Q 1356 3103 1142 2972 
Q 928 2841 928 2578 
Q 928 2378 1081 2264 
Q 1234 2150 1697 2047 
L 1894 2003 
Q 2506 1872 2764 1633 
Q 3022 1394 3022 966 
Q 3022 478 2636 193 
Q 2250 -91 1575 -91 
Q 1294 -91 989 -36 
Q 684 19 347 128 
L 347 722 
Q 666 556 975 473 
Q 1284 391 1588 391 
Q 1994 391 2212 530 
Q 2431 669 2431 922 
Q 2431 1156 2273 1281 
Q 2116 1406 1581 1522 
L 1381 1569 
Q 847 1681 609 1914 
Q 372 2147 372 2553 
Q 372 3047 722 3315 
Q 1072 3584 1716 3584 
Q 2034 3584 2315 3537 
Q 2597 3491 2834 3397 
z
" transform="scale(0.015625)"/>
       <path id="DejaVuSans-2f" d="M 1625 4666 
L 2156 4666 
L 531 -594 
L 0 -594 
L 1625 4666 
z
" transform="scale(0.015625)"/>
       <path id="DejaVuSans-64" d="M 2906 2969 
L 2906 4863 
L 3481 4863 
L 3481 0 
L 2906 0 
L 2906 525 
Q 2725 213 2448 61 
Q 2172 -91 1784 -91 
Q 1150 -91 751 415 
Q 353 922 353 1747 
Q 353 2572 751 3078 
Q 1150 3584 1784 3584 
Q 2172 3584 2448 3432 
Q 2725 3281 2906 2969 
z
M 947 1747 
Q 947 1113 1208 752 
Q 1469 391 1925 391 
Q 2381 391 2643 752 
Q 2906 1113 2906 1747 
Q 2906 2381 2643 2742 
Q 2381 3103 1925 3103 
Q 1469 3103 1208 2742 
Q 947 2381 947 1747 
z
" transform="scale(0.015625)"/>
       <path id="DejaVuSans-69" d="M 603 3500 
L 1178 3500 
L 1178 0 
L 603 0 
L 603 3500 
z
M 603 4863 
L 1178 4863 
L 1178 4134 
L 603 4134 
L 603 4863 
z
" transform="scale(0.015625)"/>
       <path id="DejaVuSans-6d" d="M 3328 2828 
Q 3544 3216 3844 3400 
Q 4144 3584 4550 3584 
Q 5097 3584 5394 3201 
Q 5691 2819 5691 2113 
L 5691 0 
L 5113 0 
L 5113 2094 
Q 5113 2597 4934 2840 
Q 4756 3084 4391 3084 
Q 3944 3084 3684 2787 
Q 3425 2491 3425 1978 
L 3425 0 
L 2847 0 
L 2847 2094 
Q 2847 2600 2669 2842 
Q 2491 3084 2119 3084 
Q 1678 3084 1418 2786 
Q 1159 2488 1159 1978 
L 1159 0 
L 581 0 
L 581 3500 
L 1159 3500 
L 1159 2956 
Q 1356 3278 1631 3431 
Q 1906 3584 2284 3584 
Q 2666 3584 2933 3390 
Q 3200 3197 3328 2828 
z
" transform="scale(0.015625)"/>
       <path id="DejaVuSans-6e" d="M 3513 2113 
L 3513 0 
L 2938 0 
L 2938 2094 
Q 2938 2591 2744 2837 
Q 2550 3084 2163 3084 
Q 1697 3084 1428 2787 
Q 1159 2491 1159 1978 
L 1159 0 
L 581 0 
L 581 3500 
L 1159 3500 
L 1159 2956 
Q 1366 3272 1645 3428 
Q 1925 3584 2291 3584 
Q 2894 3584 3203 3211 
Q 3513 2838 3513 2113 
z
" transform="scale(0.015625)"/>
       <path id="DejaVuSans-29" d="M 513 4856 
L 1013 4856 
Q 1481 4119 1714 3412 
Q 1947 2706 1947 2009 
Q 1947 1309 1714 600 
Q 1481 -109 1013 -844 
L 513 -844 
Q 928 -128 1133 580 
Q 1338 1288 1338 2009 
Q 1338 2731 1133 3434 
Q 928 4138 513 4856 
z
" transform="scale(0.015625)"/>
      </defs>
      <use xlink:href="#DejaVuSans-6c"/>
      <use xlink:href="#DejaVuSans-6f" x="27.783203"/>
      <use xlink:href="#DejaVuSans-67" x="88.964844"/>
      <use xlink:href="#DejaVuSans-31" x="152.441406"/>
      <use xlink:href="#DejaVuSans-30" x="216.064453"/>
      <use xlink:href="#DejaVuSans-28" x="279.6875"/>
      <use xlink:href="#DejaVuSans-23" x="318.701172"/>
      <use xlink:href="#DejaVuSans-20" x="402.490234"/>
      <use xlink:href="#DejaVuSans-66" x="434.277344"/>
      <use xlink:href="#DejaVuSans-2d" x="463.982422"/>
      <use xlink:href="#DejaVuSans-65" x="500.066406"/>
      <use xlink:href="#DejaVuSans-76" x="561.589844"/>
      <use xlink:href="#DejaVuSans-61" x="620.769531"/>
      <use xlink:href="#DejaVuSans-6c" x="682.048828"/>
      <use xlink:href="#DejaVuSans-73" x="709.832031"/>
      <use xlink:href="#DejaVuSans-20" x="761.931641"/>
      <use xlink:href="#DejaVuSans-2f" x="793.71875"/>
      <use xlink:href="#DejaVuSans-20" x="827.410156"/>
      <use xlink:href="#DejaVuSans-64" x="859.197266"/>
      <use xlink:href="#DejaVuSans-69" x="922.673828"/>
      <use xlink:href="#DejaVuSans-6d" x="950.457031"/>
      <use xlink:href="#DejaVuSans-65" x="1047.869141"/>
      <use xlink:href="#DejaVuSans-6e" x="1109.392578"/>
      <use xlink:href="#DejaVuSans-73" x="1172.771484"/>
      <use xlink:href="#DejaVuSans-69" x="1224.871094"/>
      <use xlink:href="#DejaVuSans-6f" x="1252.654297"/>
      <use xlink:href="#DejaVuSans-6e" x="1313.835938"/>
      <use xlink:href="#DejaVuSans-29" x="1377.214844"/>
     </g>
    </g>
   </g>
   <g id="matplotlib.axis_2">
    <g id="ytick_1">
     <g id="line2d_21">
      <path d="M 57.6 298.944 
L 360.8064 298.944 
" clip-path="url(#pb518db1e43)" style="fill: none; stroke: #b0b0b0; stroke-width: 0.8; stroke-linecap: square"/>
     </g>
     <g id="line2d_22">
      <defs>
       <path id="m2aa44a98d0" d="M 0 0 
L -3.5 0 
" style="stroke: #000000; stroke-width: 0.8"/>
      </defs>
      <g>
       <use xlink:href="#m2aa44a98d0" x="57.6" y="298.944" style="stroke: #000000; stroke-width: 0.8"/>
      </g>
     </g>
     <g id="text_6">
      <!-- 0.0 -->
      <g transform="translate(25.155 305.02275)scale(0.16 -0.16)">
       <defs>
        <path id="DejaVuSans-2e" d="M 684 794 
L 1344 794 
L 1344 0 
L 684 0 
L 684 794 
z
" transform="scale(0.015625)"/>
       </defs>
       <use xlink:href="#DejaVuSans-30"/>
       <use xlink:href="#DejaVuSans-2e" x="63.623047"/>
       <use xlink:href="#DejaVuSans-30" x="95.410156"/>
      </g>
     </g>
    </g>
    <g id="ytick_2">
     <g id="line2d_23">
      <path d="M 57.6 244.6848 
L 360.8064 244.6848 
" clip-path="url(#pb518db1e43)" style="fill: none; stroke: #b0b0b0; stroke-width: 0.8; stroke-linecap: square"/>
     </g>
     <g id="line2d_24">
      <g>
       <use xlink:href="#m2aa44a98d0" x="57.6" y="244.6848" style="stroke: #000000; stroke-width: 0.8"/>
      </g>
     </g>
     <g id="text_7">
      <!-- 0.2 -->
      <g transform="translate(25.155 250.76355)scale(0.16 -0.16)">
       <use xlink:href="#DejaVuSans-30"/>
       <use xlink:href="#DejaVuSans-2e" x="63.623047"/>
       <use xlink:href="#DejaVuSans-32" x="95.410156"/>
      </g>
     </g>
    </g>
    <g id="ytick_3">
     <g id="line2d_25">
      <path d="M 57.6 190.4256 
L 360.8064 190.4256 
" clip-path="url(#pb518db1e43)" style="fill: none; stroke: #b0b0b0; stroke-width: 0.8; stroke-linecap: square"/>
     </g>
     <g id="line2d_26">
      <g>
       <use xlink:href="#m2aa44a98d0" x="57.6" y="190.4256" style="stroke: #000000; stroke-width: 0.8"/>
      </g>
     </g>
     <g id="text_8">
      <!-- 0.4 -->
      <g transform="translate(25.155 196.50435)scale(0.16 -0.16)">
       <use xlink:href="#DejaVuSans-30"/>
       <use xlink:href="#DejaVuSans-2e" x="63.623047"/>
       <use xlink:href="#DejaVuSans-34" x="95.410156"/>
      </g>
     </g>
    </g>
    <g id="ytick_4">
     <g id="line2d_27">
      <path d="M 57.6 136.1664 
L 360.8064 136.1664 
" clip-path="url(#pb518db1e43)" style="fill: none; stroke: #b0b0b0; stroke-width: 0.8; stroke-linecap: square"/>
     </g>
     <g id="line2d_28">
      <g>
       <use xlink:href="#m2aa44a98d0" x="57.6" y="136.1664" style="stroke: #000000; stroke-width: 0.8"/>
      </g>
     </g>
     <g id="text_9">
      <!-- 0.6 -->
      <g transform="translate(25.155 142.24515)scale(0.16 -0.16)">
       <use xlink:href="#DejaVuSans-30"/>
       <use xlink:href="#DejaVuSans-2e" x="63.623047"/>
       <use xlink:href="#DejaVuSans-36" x="95.410156"/>
      </g>
     </g>
    </g>
    <g id="ytick_5">
     <g id="line2d_29">
      <path d="M 57.6 81.9072 
L 360.8064 81.9072 
" clip-path="url(#pb518db1e43)" style="fill: none; stroke: #b0b0b0; stroke-width: 0.8; stroke-linecap: square"/>
     </g>
     <g id="line2d_30">
      <g>
       <use xlink:href="#m2aa44a98d0" x="57.6" y="81.9072" style="stroke: #000000; stroke-width: 0.8"/>
      </g>
     </g>
     <g id="text_10">
      <!-- 0.8 -->
      <g transform="translate(25.155 87.98595)scale(0.16 -0.16)">
       <defs>
        <path id="DejaVuSans-38" d="M 2034 2216 
Q 1584 2216 1326 1975 
Q 1069 1734 1069 1313 
Q 1069 891 1326 650 
Q 1584 409 2034 409 
Q 2484 409 2743 651 
Q 3003 894 3003 1313 
Q 3003 1734 2745 1975 
Q 2488 2216 2034 2216 
z
M 1403 2484 
Q 997 2584 770 2862 
Q 544 3141 544 3541 
Q 544 4100 942 4425 
Q 1341 4750 2034 4750 
Q 2731 4750 3128 4425 
Q 3525 4100 3525 3541 
Q 3525 3141 3298 2862 
Q 3072 2584 2669 2484 
Q 3125 2378 3379 2068 
Q 3634 1759 3634 1313 
Q 3634 634 3220 271 
Q 2806 -91 2034 -91 
Q 1263 -91 848 271 
Q 434 634 434 1313 
Q 434 1759 690 2068 
Q 947 2378 1403 2484 
z
M 1172 3481 
Q 1172 3119 1398 2916 
Q 1625 2713 2034 2713 
Q 2441 2713 2670 2916 
Q 2900 3119 2900 3481 
Q 2900 3844 2670 4047 
Q 2441 4250 2034 4250 
Q 1625 4250 1398 4047 
Q 1172 3844 1172 3481 
z
" transform="scale(0.015625)"/>
       </defs>
       <use xlink:href="#DejaVuSans-30"/>
       <use xlink:href="#DejaVuSans-2e" x="63.623047"/>
       <use xlink:href="#DejaVuSans-38" x="95.410156"/>
      </g>
     </g>
    </g>
    <g id="ytick_6">
     <g id="line2d_31">
      <path d="M 57.6 27.648 
L 360.8064 27.648 
" clip-path="url(#pb518db1e43)" style="fill: none; stroke: #b0b0b0; stroke-width: 0.8; stroke-linecap: square"/>
     </g>
     <g id="line2d_32">
      <g>
       <use xlink:href="#m2aa44a98d0" x="57.6" y="27.648" style="stroke: #000000; stroke-width: 0.8"/>
      </g>
     </g>
     <g id="text_11">
      <!-- 1.0 -->
      <g transform="translate(25.155 33.72675)scale(0.16 -0.16)">
       <use xlink:href="#DejaVuSans-31"/>
       <use xlink:href="#DejaVuSans-2e" x="63.623047"/>
       <use xlink:href="#DejaVuSans-30" x="95.410156"/>
      </g>
     </g>
    </g>
    <g id="text_12">
     <!-- Fraction of function,target pairs -->
     <g transform="translate(17.619531 297.681)rotate(-90)scale(0.17 -0.17)">
      <defs>
       <path id="DejaVuSans-46" d="M 628 4666 
L 3309 4666 
L 3309 4134 
L 1259 4134 
L 1259 2759 
L 3109 2759 
L 3109 2228 
L 1259 2228 
L 1259 0 
L 628 0 
L 628 4666 
z
" transform="scale(0.015625)"/>
       <path id="DejaVuSans-72" d="M 2631 2963 
Q 2534 3019 2420 3045 
Q 2306 3072 2169 3072 
Q 1681 3072 1420 2755 
Q 1159 2438 1159 1844 
L 1159 0 
L 581 0 
L 581 3500 
L 1159 3500 
L 1159 2956 
Q 1341 3275 1631 3429 
Q 1922 3584 2338 3584 
Q 2397 3584 2469 3576 
Q 2541 3569 2628 3553 
L 2631 2963 
z
" transform="scale(0.015625)"/>
       <path id="DejaVuSans-63" d="M 3122 3366 
L 3122 2828 
Q 2878 2963 2633 3030 
Q 2388 3097 2138 3097 
Q 1578 3097 1268 2742 
Q 959 2388 959 1747 
Q 959 1106 1268 751 
Q 1578 397 2138 397 
Q 2388 397 2633 464 
Q 2878 531 3122 666 
L 3122 134 
Q 2881 22 2623 -34 
Q 2366 -91 2075 -91 
Q 1284 -91 818 406 
Q 353 903 353 1747 
Q 353 2603 823 3093 
Q 1294 3584 2113 3584 
Q 2378 3584 2631 3529 
Q 2884 3475 3122 3366 
z
" transform="scale(0.015625)"/>
       <path id="DejaVuSans-74" d="M 1172 4494 
L 1172 3500 
L 2356 3500 
L 2356 3053 
L 1172 3053 
L 1172 1153 
Q 1172 725 1289 603 
Q 1406 481 1766 481 
L 2356 481 
L 2356 0 
L 1766 0 
Q 1100 0 847 248 
Q 594 497 594 1153 
L 594 3053 
L 172 3053 
L 172 3500 
L 594 3500 
L 594 4494 
L 1172 4494 
z
" transform="scale(0.015625)"/>
       <path id="DejaVuSans-75" d="M 544 1381 
L 544 3500 
L 1119 3500 
L 1119 1403 
Q 1119 906 1312 657 
Q 1506 409 1894 409 
Q 2359 409 2629 706 
Q 2900 1003 2900 1516 
L 2900 3500 
L 3475 3500 
L 3475 0 
L 2900 0 
L 2900 538 
Q 2691 219 2414 64 
Q 2138 -91 1772 -91 
Q 1169 -91 856 284 
Q 544 659 544 1381 
z
M 1991 3584 
L 1991 3584 
z
" transform="scale(0.015625)"/>
       <path id="DejaVuSans-2c" d="M 750 794 
L 1409 794 
L 1409 256 
L 897 -744 
L 494 -744 
L 750 256 
L 750 794 
z
" transform="scale(0.015625)"/>
       <path id="DejaVuSans-70" d="M 1159 525 
L 1159 -1331 
L 581 -1331 
L 581 3500 
L 1159 3500 
L 1159 2969 
Q 1341 3281 1617 3432 
Q 1894 3584 2278 3584 
Q 2916 3584 3314 3078 
Q 3713 2572 3713 1747 
Q 3713 922 3314 415 
Q 2916 -91 2278 -91 
Q 1894 -91 1617 61 
Q 1341 213 1159 525 
z
M 3116 1747 
Q 3116 2381 2855 2742 
Q 2594 3103 2138 3103 
Q 1681 3103 1420 2742 
Q 1159 2381 1159 1747 
Q 1159 1113 1420 752 
Q 1681 391 2138 391 
Q 2594 391 2855 752 
Q 3116 1113 3116 1747 
z
" transform="scale(0.015625)"/>
      </defs>
      <use xlink:href="#DejaVuSans-46"/>
      <use xlink:href="#DejaVuSans-72" x="50.269531"/>
      <use xlink:href="#DejaVuSans-61" x="91.382812"/>
      <use xlink:href="#DejaVuSans-63" x="152.662109"/>
      <use xlink:href="#DejaVuSans-74" x="207.642578"/>
      <use xlink:href="#DejaVuSans-69" x="246.851562"/>
      <use xlink:href="#DejaVuSans-6f" x="274.634766"/>
      <use xlink:href="#DejaVuSans-6e" x="335.816406"/>
      <use xlink:href="#DejaVuSans-20" x="399.195312"/>
      <use xlink:href="#DejaVuSans-6f" x="430.982422"/>
      <use xlink:href="#DejaVuSans-66" x="492.164062"/>
      <use xlink:href="#DejaVuSans-20" x="527.369141"/>
      <use xlink:href="#DejaVuSans-66" x="559.15625"/>
      <use xlink:href="#DejaVuSans-75" x="594.361328"/>
      <use xlink:href="#DejaVuSans-6e" x="657.740234"/>
      <use xlink:href="#DejaVuSans-63" x="721.119141"/>
      <use xlink:href="#DejaVuSans-74" x="776.099609"/>
      <use xlink:href="#DejaVuSans-69" x="815.308594"/>
      <use xlink:href="#DejaVuSans-6f" x="843.091797"/>
      <use xlink:href="#DejaVuSans-6e" x="904.273438"/>
      <use xlink:href="#DejaVuSans-2c" x="967.652344"/>
      <use xlink:href="#DejaVuSans-74" x="999.439453"/>
      <use xlink:href="#DejaVuSans-61" x="1038.648438"/>
      <use xlink:href="#DejaVuSans-72" x="1099.927734"/>
      <use xlink:href="#DejaVuSans-67" x="1139.291016"/>
      <use xlink:href="#DejaVuSans-65" x="1202.767578"/>
      <use xlink:href="#DejaVuSans-74" x="1264.291016"/>
      <use xlink:href="#DejaVuSans-20" x="1303.5"/>
      <use xlink:href="#DejaVuSans-70" x="1335.287109"/>
      <use xlink:href="#DejaVuSans-61" x="1398.763672"/>
      <use xlink:href="#DejaVuSans-69" x="1460.042969"/>
      <use xlink:href="#DejaVuSans-72" x="1487.826172"/>
      <use xlink:href="#DejaVuSans-73" x="1528.939453"/>
     </g>
    </g>
   </g>
   <g id="line2d_33">
    <defs>
     <path id="m11cf69126f" d="M 0 1.5 
C 0.397805 1.5 0.77937 1.341951 1.06066 1.06066 
C 1.341951 0.77937 1.5 0.397805 1.5 0 
C 1.5 -0.397805 1.341951 -0.77937 1.06066 -1.06066 
C 0.77937 -1.341951 0.397805 -1.5 0 -1.5 
C -0.397805 -1.5 -0.77937 -1.341951 -1.06066 -1.06066 
C -1.341951 -0.77937 -1.5 -0.397805 -1.5 0 
C -1.5 0.397805 -1.341951 0.77937 -1.06066 1.06066 
C -0.77937 1.341951 -0.397805 1.5 0 1.5 
z
" style="stroke: #f5deb3"/>
    </defs>
    <g>
     <use xlink:href="#m11cf69126f" x="143.850356" y="27.648" style="fill: #f5deb3; stroke: #f5deb3"/>
     <use xlink:href="#m11cf69126f" x="143.850356" y="27.648" style="fill: #f5deb3; stroke: #f5deb3"/>
    </g>
   </g>
   <g id="line2d_34">
    <defs>
     <path id="m75b0fbeb4f" d="M 0 1.5 
C 0.397805 1.5 0.77937 1.341951 1.06066 1.06066 
C 1.341951 0.77937 1.5 0.397805 1.5 0 
C 1.5 -0.397805 1.341951 -0.77937 1.06066 -1.06066 
C 0.77937 -1.341951 0.397805 -1.5 0 -1.5 
C -0.397805 -1.5 -0.77937 -1.341951 -1.06066 -1.06066 
C -1.341951 -0.77937 -1.5 -0.397805 -1.5 0 
C -1.5 0.397805 -1.341951 0.77937 -1.06066 1.06066 
C -0.77937 1.341951 -0.397805 1.5 0 1.5 
z
" style="stroke: #000080"/>
    </defs>
    <g>
     <use xlink:href="#m75b0fbeb4f" x="250.601838" y="27.648" style="fill: #000080; stroke: #000080"/>
     <use xlink:href="#m75b0fbeb4f" x="250.601838" y="27.648" style="fill: #000080; stroke: #000080"/>
    </g>
   </g>
   <g id="line2d_35">
    <path d="M 36.933397 298.944 
L 36.933397 298.589365 
L 67.209423 298.589365 
L 67.209423 297.880094 
L 70.639174 297.880094 
L 70.639174 296.816188 
L 73.538988 296.816188 
L 73.538988 296.461553 
L 76.050921 296.461553 
L 76.050921 295.752282 
L 82.04153 295.752282 
L 82.04153 291.851294 
L 91.305777 291.851294 
L 91.305777 290.432753 
L 93.287772 290.432753 
L 93.287772 289.368847 
L 96.717523 289.368847 
L 96.717523 288.659576 
L 97.485448 288.659576 
L 97.485448 287.241035 
L 99.617337 287.241035 
L 99.617337 286.8864 
L 100.9152 286.8864 
L 100.9152 285.467859 
L 105.850679 285.467859 
L 105.850679 284.758588 
L 108.119879 284.758588 
L 108.119879 283.694682 
L 108.542628 283.694682 
L 108.542628 282.276141 
L 108.956085 282.276141 
L 108.956085 281.921506 
L 110.144579 281.921506 
L 110.144579 280.148329 
L 111.262425 280.148329 
L 111.262425 279.793694 
L 112.317555 279.793694 
L 112.317555 279.439059 
L 112.989468 279.439059 
L 112.989468 278.729788 
L 116.308887 278.729788 
L 116.308887 278.375153 
L 116.854188 278.375153 
L 116.854188 278.020518 
L 117.121023 278.020518 
L 117.121023 277.311247 
L 120.506564 277.311247 
L 120.506564 274.474165 
L 125.35673 274.474165 
L 125.35673 273.764894 
L 130.027253 273.764894 
L 130.027253 273.410259 
L 132.984158 273.410259 
L 132.984158 272.700988 
L 133.874812 272.700988 
L 133.874812 272.346353 
L 135.932769 272.346353 
L 135.932769 271.282447 
L 137.067478 271.282447 
L 137.067478 270.573176 
L 137.430998 270.573176 
L 137.430998 270.218541 
L 137.787626 270.218541 
L 137.787626 269.509271 
L 138.310202 269.509271 
L 138.310202 268.445365 
L 138.481218 268.445365 
L 138.481218 268.090729 
L 139.313723 268.090729 
L 139.313723 267.736094 
L 140.26641 267.736094 
L 140.26641 267.026824 
L 145.503164 267.026824 
L 145.503164 266.672188 
L 146.24998 266.672188 
L 146.24998 265.962918 
L 148.073609 265.962918 
L 148.073609 265.608282 
L 150.78259 265.608282 
L 150.78259 264.899012 
L 150.958812 264.899012 
L 150.958812 264.189741 
L 152.352898 264.189741 
L 152.352898 263.835106 
L 152.515067 263.835106 
L 152.515067 263.125835 
L 153.150116 263.125835 
L 153.150116 262.416565 
L 153.877408 262.416565 
L 153.914919 261.352659 
L 154.027004 261.352659 
L 154.027004 260.643388 
L 154.86483 260.643388 
L 154.900425 259.224847 
L 155.006805 259.224847 
L 155.006805 257.806306 
L 155.735085 257.806306 
L 155.735085 257.451671 
L 156.696589 257.451671 
L 156.761123 255.678494 
L 156.88953 255.678494 
L 156.88953 255.323859 
L 157.734081 255.323859 
L 157.734081 254.969224 
L 158.483644 254.969224 
L 158.483644 253.905318 
L 158.600851 253.905318 
L 158.600851 253.550682 
L 158.746339 253.550682 
L 158.746339 253.196047 
L 159.005416 253.196047 
L 159.005416 252.841412 
L 159.789344 252.841412 
L 159.844108 252.132141 
L 160.169388 252.132141 
L 160.169388 251.777506 
L 160.303279 251.777506 
L 160.303279 251.068235 
L 161.061595 251.068235 
L 161.061595 250.358965 
L 161.666845 250.358965 
L 161.666845 250.004329 
L 161.913396 250.004329 
L 161.913396 249.649694 
L 162.084079 249.649694 
L 162.132562 248.940424 
L 162.277267 248.940424 
L 162.277267 248.585788 
L 162.39701 248.585788 
L 162.39701 248.231153 
L 162.657792 248.231153 
L 162.657792 247.876518 
L 163.053839 247.876518 
L 163.053839 247.521882 
L 163.191653 247.521882 
L 163.237368 246.457976 
L 163.486831 246.457976 
L 163.486831 246.103341 
L 164.280872 246.103341 
L 164.388551 245.039435 
L 165.021997 245.039435 
L 165.021997 244.6848 
L 165.187374 244.6848 
L 165.187374 243.975529 
L 166.8036 243.975529 
L 166.8036 243.620894 
L 168.221954 243.620894 
L 168.221954 243.266259 
L 168.909839 243.266259 
L 168.909839 242.911624 
L 169.294273 242.911624 
L 169.294273 242.556988 
L 170.511445 242.556988 
L 170.511445 241.847718 
L 171.345629 241.847718 
L 171.345629 241.138447 
L 171.800001 241.138447 
L 171.800001 240.783812 
L 172.04459 240.783812 
L 172.04459 240.429176 
L 172.566188 240.429176 
L 172.566188 240.074541 
L 172.746072 240.074541 
L 172.746072 239.719906 
L 173.289011 239.719906 
L 173.289011 239.365271 
L 173.907565 239.365271 
L 173.907565 238.656 
L 176.84987 238.656 
L 176.84987 238.301365 
L 177.10282 238.301365 
L 177.10282 237.946729 
L 179.169832 237.946729 
L 179.169832 237.592094 
L 180.040051 237.592094 
L 180.040051 237.237459 
L 180.253768 237.237459 
L 180.253768 236.882824 
L 180.465085 236.882824 
L 180.556226 235.818918 
L 181.383339 235.818918 
L 181.383339 235.464282 
L 183.103358 235.464282 
L 183.103358 235.109647 
L 184.153434 235.109647 
L 184.153434 234.755012 
L 184.407043 234.755012 
L 184.407043 234.400376 
L 185.325215 234.400376 
L 185.325215 233.691106 
L 187.683048 233.691106 
L 187.683048 233.336471 
L 187.813318 233.336471 
L 187.813318 232.981835 
L 188.493255 232.981835 
L 188.505176 232.272565 
L 188.677189 232.272565 
L 188.677189 231.563294 
L 189.091801 231.563294 
L 189.091801 231.208659 
L 189.866887 231.208659 
L 189.866887 230.854024 
L 190.125601 230.854024 
L 190.125601 230.499388 
L 190.579304 230.499388 
L 190.579304 230.144753 
L 191.617446 230.144753 
L 191.617446 229.790118 
L 191.99244 229.790118 
L 191.99244 229.435482 
L 192.218791 229.435482 
L 192.238346 226.953035 
L 192.452116 226.953035 
L 192.452116 226.5984 
L 192.658706 226.5984 
L 192.711193 225.889129 
L 193.111905 225.889129 
L 193.111905 225.534494 
L 194.199319 225.534494 
L 194.247683 224.825224 
L 195.405683 224.825224 
L 195.405683 224.470588 
L 195.789856 224.470588 
L 195.789856 224.115953 
L 196.465316 224.115953 
L 196.469219 223.406682 
L 196.893616 223.406682 
L 196.893616 223.052047 
L 197.136202 223.052047 
L 197.136202 222.697412 
L 197.486923 222.697412 
L 197.568071 221.988141 
L 197.615858 221.988141 
L 197.615858 221.633506 
L 197.805802 221.633506 
L 197.900059 220.924235 
L 198.076424 220.924235 
L 198.097907 220.214965 
L 198.314932 220.214965 
L 198.314932 219.860329 
L 199.474093 219.860329 
L 199.474093 219.505694 
L 199.807049 219.505694 
L 199.911323 218.441788 
L 200.00209 218.441788 
L 200.082764 217.732518 
L 201.122549 217.732518 
L 201.122549 217.377882 
L 201.618687 217.377882 
L 201.618687 217.023247 
L 202.850554 217.023247 
L 202.942054 215.959341 
L 204.201707 215.959341 
L 204.258532 215.250071 
L 205.01428 215.250071 
L 205.01428 214.895435 
L 205.430807 214.895435 
L 205.430807 214.5408 
L 206.104377 214.5408 
L 206.104377 214.186165 
L 206.244137 214.186165 
L 206.244137 213.831529 
L 206.380562 213.831529 
L 206.380562 213.122259 
L 206.538865 213.122259 
L 206.538865 212.767624 
L 206.927772 212.767624 
L 206.927772 212.412988 
L 207.282466 212.412988 
L 207.282466 212.058353 
L 207.574462 212.058353 
L 207.574462 211.703718 
L 207.763784 211.703718 
L 207.763784 211.349082 
L 208.283135 211.349082 
L 208.283135 210.994447 
L 210.636668 210.994447 
L 210.636668 210.639812 
L 210.768499 210.639812 
L 210.830433 209.930541 
L 210.917524 209.930541 
L 211.022223 208.866635 
L 211.196032 208.866635 
L 211.196032 208.512 
L 211.88596 208.512 
L 211.88596 207.802729 
L 212.164149 207.802729 
L 212.164149 207.448094 
L 212.823337 207.448094 
L 212.823337 207.093459 
L 213.900938 207.093459 
L 213.900938 206.738824 
L 214.051714 206.738824 
L 214.051714 206.384188 
L 214.553708 206.384188 
L 214.553708 206.029553 
L 214.830669 206.029553 
L 214.830669 205.674918 
L 215.035383 205.674918 
L 215.035383 205.320282 
L 216.608225 205.320282 
L 216.608225 204.965647 
L 216.869915 204.965647 
L 216.877829 204.256376 
L 217.449258 204.256376 
L 217.449258 203.901741 
L 217.566575 203.901741 
L 217.566575 203.547106 
L 218.050977 203.547106 
L 218.050977 203.192471 
L 218.216262 203.192471 
L 218.216262 202.837835 
L 218.63044 202.837835 
L 218.63044 202.4832 
L 218.744221 202.4832 
L 218.744221 202.128565 
L 219.012166 202.128565 
L 219.030992 201.419294 
L 219.665792 201.419294 
L 219.665792 201.064659 
L 219.952394 201.064659 
L 219.952394 200.710024 
L 220.09963 200.710024 
L 220.09963 200.355388 
L 220.360033 200.355388 
L 220.360033 200.000753 
L 220.724664 200.000753 
L 220.724664 199.646118 
L 221.290006 199.646118 
L 221.290006 199.291482 
L 221.53969 199.291482 
L 221.53969 198.582212 
L 222.021309 198.582212 
L 222.021309 198.227576 
L 222.155256 198.227576 
L 222.155256 197.872941 
L 222.450745 197.872941 
L 222.456627 197.163671 
L 222.59628 197.163671 
L 222.59628 196.809035 
L 222.764821 196.809035 
L 222.764821 196.4544 
L 223.00722 196.4544 
L 223.00722 196.099765 
L 224.35876 196.099765 
L 224.407425 195.390494 
L 224.613949 195.390494 
L 224.672417 194.326588 
L 224.946614 194.326588 
L 224.946614 193.971953 
L 225.458248 193.971953 
L 225.458248 192.908047 
L 225.67097 192.908047 
L 225.69079 192.198776 
L 226.536504 192.198776 
L 226.536504 191.844141 
L 227.020266 191.844141 
L 227.020266 191.489506 
L 227.360939 191.489506 
L 227.360939 191.134871 
L 227.586167 191.134871 
L 227.603324 190.4256 
L 227.921231 190.4256 
L 227.921231 190.070965 
L 228.139163 190.070965 
L 228.139163 189.716329 
L 228.447503 189.716329 
L 228.447503 189.361694 
L 228.654522 189.361694 
L 228.654522 189.007059 
L 229.805911 189.007059 
L 229.805911 188.652424 
L 229.990702 188.652424 
L 230.100059 187.943153 
L 230.462191 187.943153 
L 230.462191 187.588518 
L 230.645751 187.588518 
L 230.645751 187.233882 
L 231.235162 187.233882 
L 231.272008 186.169976 
L 231.376014 186.169976 
L 231.426585 185.106071 
L 231.488547 185.106071 
L 231.511579 184.3968 
L 231.923772 184.3968 
L 231.923772 184.042165 
L 232.124772 184.042165 
L 232.158161 182.978259 
L 232.556574 182.978259 
L 232.556574 182.268988 
L 232.69985 182.268988 
L 232.750392 181.559718 
L 232.87024 181.559718 
L 232.873621 180.850447 
L 233.065889 180.850447 
L 233.065889 180.495812 
L 233.4129 180.495812 
L 233.4129 180.141176 
L 233.701938 180.141176 
L 233.701938 179.786541 
L 234.367729 179.786541 
L 234.417103 178.722635 
L 234.583496 178.722635 
L 234.583496 178.368 
L 235.135571 178.368 
L 235.135571 178.013365 
L 235.28535 178.013365 
L 235.28535 177.658729 
L 235.667535 177.658729 
L 235.667535 176.949459 
L 235.938515 176.949459 
L 236.01543 176.240188 
L 236.164541 176.240188 
L 236.164541 175.885553 
L 236.501588 175.885553 
L 236.552624 175.176282 
L 236.730169 175.176282 
L 236.730169 174.821647 
L 236.947841 174.821647 
L 237.026621 173.757741 
L 237.218114 173.757741 
L 237.328258 173.048471 
L 237.362463 173.048471 
L 237.362463 172.693835 
L 237.618568 172.693835 
L 237.707235 171.275294 
L 237.803725 171.275294 
L 237.803725 170.920659 
L 237.947968 170.920659 
L 237.947968 170.566024 
L 238.195852 170.566024 
L 238.293676 169.147482 
L 238.307187 169.147482 
L 238.400235 168.438212 
L 238.5016 168.438212 
L 238.608654 167.019671 
L 238.736979 167.019671 
L 238.816021 165.246494 
L 238.991032 165.246494 
L 239.018689 164.182588 
L 239.139815 164.182588 
L 239.150714 163.473318 
L 239.264579 163.473318 
L 239.317054 160.636235 
L 239.4331 160.636235 
L 239.51284 155.671341 
L 239.554361 155.671341 
L 239.662281 153.898165 
L 239.678376 153.898165 
L 239.782468 151.061082 
L 239.80119 151.061082 
L 239.880164 148.578635 
L 239.925144 148.578635 
L 240.026727 144.323012 
L 240.120866 144.323012 
L 240.228262 141.131294 
L 240.251875 141.131294 
L 240.357771 137.939576 
L 240.464955 137.939576 
L 240.551688 136.1664 
L 240.576396 136.1664 
L 240.683833 133.683953 
L 240.689041 133.683953 
L 240.784002 131.556141 
L 240.812101 131.556141 
L 240.922613 126.236612 
L 240.936565 126.236612 
L 241.03978 125.172706 
L 241.09518 125.172706 
L 241.193912 123.754165 
L 241.223575 123.754165 
L 241.305448 120.917082 
L 241.364019 120.917082 
L 241.44207 119.498541 
L 241.477765 119.498541 
L 241.586572 117.725365 
L 241.630485 117.725365 
L 241.734898 115.242918 
L 241.766882 115.242918 
L 241.873336 112.405835 
L 241.887648 112.405835 
L 241.986829 109.214118 
L 242.019427 109.214118 
L 242.119297 104.958494 
L 242.133078 104.958494 
L 242.237486 101.766776 
L 242.247073 101.766776 
L 242.337229 95.028706 
L 242.386564 95.028706 
L 242.486874 91.482353 
L 242.508155 91.482353 
L 242.59808 86.872094 
L 242.651762 86.872094 
L 242.740004 84.389647 
L 242.788627 84.389647 
L 242.892777 81.9072 
L 242.905342 81.9072 
L 242.980557 77.296941 
L 243.023636 77.296941 
L 243.13107 75.523765 
L 243.166636 75.523765 
L 243.210593 73.395953 
L 243.281036 73.395953 
L 243.38798 70.558871 
L 243.466106 70.558871 
L 243.562751 68.785694 
L 243.593688 68.785694 
L 243.689048 67.367153 
L 243.771935 67.367153 
L 243.796541 65.948612 
L 244.001284 65.948612 
L 244.043024 63.111529 
L 244.125918 63.111529 
L 244.125918 62.047624 
L 244.339688 62.047624 
L 244.43074 59.210541 
L 244.453891 59.210541 
L 244.527115 57.437365 
L 244.622396 57.437365 
L 244.7301 56.373459 
L 244.757979 56.373459 
L 244.818092 55.309553 
L 244.91637 55.309553 
L 245.010886 54.245647 
L 245.056935 54.245647 
L 245.157496 53.536376 
L 245.210207 53.536376 
L 245.28696 51.053929 
L 245.396439 51.053929 
L 245.396439 50.344659 
L 245.518522 50.344659 
L 245.560189 48.926118 
L 245.654961 48.926118 
L 245.741867 47.152941 
L 245.788715 47.152941 
L 245.88291 45.025129 
L 246.030183 45.025129 
L 246.069616 43.251953 
L 246.173535 43.251953 
L 246.20629 41.833412 
L 246.380214 41.833412 
L 246.418921 40.414871 
L 246.748389 40.414871 
L 246.841664 39.7056 
L 246.981913 39.7056 
L 246.981913 39.350965 
L 247.113461 39.350965 
L 247.113461 38.996329 
L 247.273206 38.996329 
L 247.322148 37.223153 
L 247.422769 37.223153 
L 247.429268 36.513882 
L 247.767704 36.513882 
L 247.853022 35.449976 
L 247.929858 35.449976 
L 248.009406 34.386071 
L 248.329232 34.386071 
L 248.403411 33.322165 
L 248.580501 33.322165 
L 248.580501 32.967529 
L 248.711808 32.967529 
L 248.711808 32.258259 
L 249.006629 32.258259 
L 249.006629 31.903624 
L 249.40063 31.903624 
L 249.40063 31.548988 
L 249.680089 31.548988 
L 249.718097 30.839718 
L 249.835779 30.839718 
L 249.914738 28.357271 
L 250.378322 28.357271 
L 250.378322 28.002635 
L 250.601838 28.002635 
L 250.601838 27.648 
L 360.8064 27.648 
L 360.8064 27.648 
" style="fill: none; stroke: #000080; stroke-width: 1.5; stroke-linecap: square"/>
   </g>
   <g id="line2d_36">
    <defs>
     <path id="m9fd4c70d35" d="M 0 6 
C 1.591219 6 3.117479 5.367802 4.242641 4.242641 
C 5.367802 3.117479 6 1.591219 6 0 
C 6 -1.591219 5.367802 -3.117479 4.242641 -4.242641 
C 3.117479 -5.367802 1.591219 -6 0 -6 
C -1.591219 -6 -3.117479 -5.367802 -4.242641 -4.242641 
C -5.367802 -3.117479 -6 -1.591219 -6 0 
C -6 1.591219 -5.367802 3.117479 -4.242641 4.242641 
C -3.117479 5.367802 -1.591219 6 0 6 
z
" style="stroke: #000080; stroke-width: 1.5"/>
    </defs>
    <g>
     <use xlink:href="#m9fd4c70d35" x="120.506564" y="277.311247" style="fill-opacity: 0; stroke: #000080; stroke-width: 1.5"/>
     <use xlink:href="#m9fd4c70d35" x="189.091801" y="231.208659" style="fill-opacity: 0; stroke: #000080; stroke-width: 1.5"/>
     <use xlink:href="#m9fd4c70d35" x="241.686291" y="116.661459" style="fill-opacity: 0; stroke: #000080; stroke-width: 1.5"/>
     <use xlink:href="#m9fd4c70d35" x="250.601838" y="28.002635" style="fill-opacity: 0; stroke: #000080; stroke-width: 1.5"/>
     <use xlink:href="#m9fd4c70d35" x="250.601838" y="27.648" style="fill-opacity: 0; stroke: #000080; stroke-width: 1.5"/>
     <use xlink:href="#m9fd4c70d35" x="360.8064" y="27.648" style="fill-opacity: 0; stroke: #000080; stroke-width: 1.5"/>
    </g>
   </g>
   <g id="line2d_37">
    <path style="fill: none; stroke: #000080; stroke-width: 1.5; stroke-linecap: square"/>
    <g/>
   </g>
   <g id="line2d_38">
    <defs>
     <path id="m7448d9feab" d="M 0 1.5 
C 0.397805 1.5 0.77937 1.341951 1.06066 1.06066 
C 1.341951 0.77937 1.5 0.397805 1.5 0 
C 1.5 -0.397805 1.341951 -0.77937 1.06066 -1.06066 
C 0.77937 -1.341951 0.397805 -1.5 0 -1.5 
C -0.397805 -1.5 -0.77937 -1.341951 -1.06066 -1.06066 
C -1.341951 -0.77937 -1.5 -0.397805 -1.5 0 
C -1.5 0.397805 -1.341951 0.77937 -1.06066 1.06066 
C -0.77937 1.341951 -0.397805 1.5 0 1.5 
z
" style="stroke: #ff00ff"/>
    </defs>
    <g>
     <use xlink:href="#m7448d9feab" x="232.52044" y="27.648" style="fill: #ff00ff; stroke: #ff00ff"/>
     <use xlink:href="#m7448d9feab" x="232.52044" y="27.648" style="fill: #ff00ff; stroke: #ff00ff"/>
    </g>
   </g>
   <g id="line2d_39">
    <path d="M 36.933397 298.944 
L 36.933397 297.525459 
L 120.944062 297.525459 
L 120.944062 295.043012 
L 123.183753 295.043012 
L 123.183753 292.560565 
L 123.374735 292.560565 
L 123.374735 290.078118 
L 134.620977 290.078118 
L 134.620977 287.950306 
L 134.931919 287.950306 
L 134.931919 286.177129 
L 135.438999 286.177129 
L 135.438999 279.793694 
L 135.736814 279.793694 
L 135.736814 277.665882 
L 135.932769 277.665882 
L 136.029987 274.119529 
L 136.222928 274.119529 
L 136.318661 269.154635 
L 136.413909 269.154635 
L 136.413909 266.672188 
L 136.602972 266.672188 
L 136.602972 264.189741 
L 142.248405 264.189741 
L 142.248405 263.125835 
L 142.865233 263.125835 
L 142.865233 262.7712 
L 143.066428 262.7712 
L 143.066428 262.416565 
L 143.397043 262.416565 
L 143.397043 261.707294 
L 143.592659 261.707294 
L 143.592659 260.998024 
L 143.914232 260.998024 
L 143.914232 259.579482 
L 144.2304 259.579482 
L 144.2304 258.160941 
L 148.073609 258.160941 
L 148.073609 257.806306 
L 148.32748 257.806306 
L 148.428077 257.097035 
L 149.165879 257.097035 
L 149.165879 256.033129 
L 149.40552 256.033129 
L 149.40552 255.323859 
L 152.352898 255.323859 
L 152.352898 254.969224 
L 152.795543 254.969224 
L 152.795543 253.905318 
L 153.266838 253.905318 
L 153.344252 253.196047 
L 153.38284 253.196047 
L 153.38284 252.841412 
L 153.5746 252.841412 
L 153.5746 252.486776 
L 155.632755 252.486776 
L 155.632755 251.777506 
L 156.172192 251.777506 
L 156.172192 251.422871 
L 156.566854 251.422871 
L 156.566854 251.068235 
L 158.542339 251.068235 
L 158.542339 250.7136 
L 159.062507 250.7136 
L 159.062507 250.358965 
L 159.624087 250.358965 
L 159.624087 250.004329 
L 163.755253 250.004329 
L 163.755253 249.649694 
L 163.888041 249.649694 
L 163.888041 249.295059 
L 164.107292 249.295059 
L 164.150838 247.876518 
L 165.084184 247.876518 
L 165.084184 247.521882 
L 166.286609 247.521882 
L 166.286609 247.167247 
L 166.708927 247.167247 
L 166.708927 245.748706 
L 167.361848 245.748706 
L 167.361848 245.039435 
L 167.92181 245.039435 
L 167.992864 243.975529 
L 168.204431 243.975529 
L 168.204431 243.620894 
L 170.788543 243.620894 
L 170.788543 242.911624 
L 170.955893 242.911624 
L 170.955893 242.556988 
L 171.091717 242.556988 
L 171.091717 242.202353 
L 171.552189 242.202353 
L 171.552189 241.847718 
L 172.426636 241.847718 
L 172.426636 241.493082 
L 172.53836 241.493082 
L 172.53836 241.138447 
L 173.699269 241.138447 
L 173.699269 240.783812 
L 175.412297 240.783812 
L 175.412297 240.074541 
L 175.626202 240.074541 
L 175.626202 239.365271 
L 175.861055 239.365271 
L 175.907676 238.656 
L 176.927215 238.656 
L 176.927215 238.301365 
L 177.168252 238.301365 
L 177.168252 237.946729 
L 177.946625 237.946729 
L 177.946625 237.592094 
L 179.071702 237.592094 
L 179.071702 237.237459 
L 179.374254 237.237459 
L 179.374254 236.528188 
L 180.272238 236.528188 
L 180.272238 235.818918 
L 180.519823 235.818918 
L 180.519823 235.464282 
L 180.665016 235.464282 
L 180.665016 235.109647 
L 182.628923 235.109647 
L 182.628923 234.755012 
L 182.999844 234.755012 
L 182.999844 234.400376 
L 183.496262 234.400376 
L 183.496262 232.981835 
L 184.145923 232.981835 
L 184.145923 232.6272 
L 185.24035 232.6272 
L 185.24035 232.272565 
L 186.567488 232.272565 
L 186.567488 231.563294 
L 187.09504 231.563294 
L 187.09504 231.208659 
L 187.343866 231.208659 
L 187.343866 230.144753 
L 187.819499 230.144753 
L 187.831855 229.435482 
L 188.742026 229.435482 
L 188.742026 228.726212 
L 189.794695 228.726212 
L 189.794695 228.371576 
L 190.103721 228.371576 
L 190.103721 228.016941 
L 191.105536 228.016941 
L 191.178047 227.307671 
L 191.378582 227.307671 
L 191.378582 226.953035 
L 192.360104 226.953035 
L 192.360104 226.5984 
L 192.620442 226.5984 
L 192.620442 226.243765 
L 193.320641 226.243765 
L 193.325253 225.179859 
L 193.558997 225.179859 
L 193.558997 224.825224 
L 194.256463 224.825224 
L 194.256463 224.470588 
L 195.773667 224.470588 
L 195.773667 224.115953 
L 196.198035 224.115953 
L 196.198035 223.761318 
L 196.457509 223.761318 
L 196.457509 223.406682 
L 197.371981 223.406682 
L 197.423977 222.697412 
L 197.740269 222.697412 
L 197.740269 222.342776 
L 198.029795 222.342776 
L 198.101485 220.924235 
L 198.151506 220.924235 
L 198.155074 220.214965 
L 198.455896 220.214965 
L 198.508486 217.732518 
L 199.077479 217.732518 
L 199.145293 216.668612 
L 199.420802 216.668612 
L 199.480743 214.186165 
L 199.566989 214.186165 
L 199.606662 213.476894 
L 199.807049 213.476894 
L 199.807049 213.122259 
L 199.98915 213.122259 
L 200.06988 210.285176 
L 200.131003 210.285176 
L 200.131003 207.802729 
L 200.452631 207.802729 
L 200.452631 207.448094 
L 200.572229 207.448094 
L 200.572229 207.093459 
L 200.709769 207.093459 
L 200.765746 204.965647 
L 201.055397 204.965647 
L 201.055397 204.611012 
L 201.358718 204.611012 
L 201.391787 203.901741 
L 201.490646 203.901741 
L 201.490646 203.547106 
L 201.689774 203.547106 
L 201.787083 200.710024 
L 201.983115 200.710024 
L 202.009293 200.000753 
L 202.271951 200.000753 
L 202.297731 199.291482 
L 202.55642 199.291482 
L 202.55642 198.936847 
L 203.099059 198.936847 
L 203.170242 197.872941 
L 203.371379 197.872941 
L 203.371379 197.518306 
L 203.586432 197.518306 
L 203.586432 196.4544 
L 203.843928 196.4544 
L 203.843928 196.099765 
L 204.105749 196.099765 
L 204.105749 195.745129 
L 204.363977 195.745129 
L 204.407525 193.971953 
L 204.618707 193.971953 
L 204.618707 193.262682 
L 204.870034 193.262682 
L 204.962181 191.489506 
L 204.991969 191.489506 
L 204.991969 190.780235 
L 205.186909 190.780235 
L 205.186909 190.4256 
L 205.671583 190.4256 
L 205.693102 189.007059 
L 205.883312 189.007059 
L 205.883312 188.297788 
L 206.322876 188.297788 
L 206.396683 186.169976 
L 206.490827 186.169976 
L 206.591338 184.3968 
L 206.625481 184.3968 
L 206.71849 182.978259 
L 206.808789 182.978259 
L 206.85153 181.914353 
L 206.938958 181.914353 
L 207.043782 179.786541 
L 207.0549 179.786541 
L 207.161293 178.722635 
L 207.214264 178.722635 
L 207.321954 175.885553 
L 207.348233 175.885553 
L 207.444277 174.112376 
L 207.481255 174.112376 
L 207.51599 172.693835 
L 207.688713 172.693835 
L 207.755219 171.275294 
L 207.874767 171.275294 
L 207.90241 170.211388 
L 208.029473 170.211388 
L 208.113707 168.083576 
L 208.295624 168.083576 
L 208.330967 166.665035 
L 208.502574 166.665035 
L 208.53753 164.182588 
L 208.648139 164.182588 
L 208.754039 162.764047 
L 208.796638 162.764047 
L 208.899693 161.345506 
L 208.943975 161.345506 
L 209.052226 157.799153 
L 209.106118 157.799153 
L 209.173764 156.380612 
L 209.255015 156.380612 
L 209.333948 153.188894 
L 209.394894 153.188894 
L 209.494731 152.124988 
L 209.568777 152.124988 
L 209.642533 151.415718 
L 209.762254 151.415718 
L 209.835256 149.997176 
L 209.881218 149.997176 
L 209.974708 146.096188 
L 211.528394 146.096188 
L 211.528394 145.741553 
L 211.702819 145.741553 
L 211.702819 145.386918 
L 211.875641 145.386918 
L 211.875641 144.677647 
L 212.04689 144.677647 
L 212.04689 143.968376 
L 212.216594 143.968376 
L 212.216594 142.549835 
L 215.888338 142.549835 
L 215.888338 142.1952 
L 216.430819 142.1952 
L 216.430819 141.485929 
L 216.704291 141.485929 
L 216.756122 139.712753 
L 216.83162 139.712753 
L 216.83162 139.358118 
L 217.030171 139.358118 
L 217.058925 138.294212 
L 217.160518 138.294212 
L 217.229237 137.584941 
L 217.506733 137.584941 
L 217.613552 136.1664 
L 217.662941 136.1664 
L 217.760074 135.102494 
L 217.810335 135.102494 
L 217.817863 134.393224 
L 218.003839 134.393224 
L 218.094289 133.683953 
L 218.127633 133.683953 
L 218.21749 132.265412 
L 218.250616 132.265412 
L 218.33989 130.846871 
L 218.37889 130.846871 
L 218.416595 129.782965 
L 218.55581 129.782965 
L 218.564251 128.364424 
L 218.777626 128.364424 
L 218.777626 127.655153 
L 219.095562 127.655153 
L 219.095562 126.591247 
L 219.328511 126.591247 
L 219.407061 124.818071 
L 219.584892 124.818071 
L 219.640762 124.1088 
L 219.707814 124.1088 
L 219.763321 123.399529 
L 219.845711 123.399529 
L 219.876093 122.335624 
L 219.988194 122.335624 
L 220.064042 120.917082 
L 220.147346 120.917082 
L 220.172819 119.143906 
L 220.311756 119.143906 
L 220.311756 118.434635 
L 220.610393 118.434635 
L 220.610393 117.725365 
L 220.725738 117.725365 
L 220.725738 117.370729 
L 220.88306 117.370729 
L 220.968127 115.952188 
L 221.031676 115.952188 
L 221.078143 113.824376 
L 221.178078 113.824376 
L 221.224185 112.405835 
L 221.328555 112.405835 
L 221.432349 109.923388 
L 221.440628 109.923388 
L 221.511882 106.377035 
L 221.553065 106.377035 
L 221.646423 103.894588 
L 221.67199 103.894588 
L 221.748482 98.929694 
L 221.790167 98.929694 
L 221.891452 97.156518 
L 221.950955 97.156518 
L 222.004247 95.028706 
L 222.100393 95.028706 
L 222.204 91.482353 
L 222.265495 91.482353 
L 222.313954 89.709176 
L 222.397721 89.709176 
L 222.464467 87.581365 
L 222.581679 87.581365 
L 222.682676 84.035012 
L 222.739732 84.035012 
L 222.844688 81.552565 
L 222.852368 81.552565 
L 222.955744 79.424753 
L 223.062352 79.424753 
L 223.167416 78.360847 
L 223.182512 78.360847 
L 223.251234 76.233035 
L 223.31877 76.233035 
L 223.41217 74.459859 
L 223.44847 74.459859 
L 223.467988 73.395953 
L 223.772974 73.395953 
L 223.864151 71.977412 
L 223.884151 71.977412 
L 223.884151 71.268141 
L 223.99919 71.268141 
L 224.058697 69.140329 
L 224.215577 69.140329 
L 224.215577 68.785694 
L 224.448911 68.785694 
L 224.546529 66.657882 
L 224.58596 66.657882 
L 224.624434 65.239341 
L 224.743729 65.239341 
L 224.794007 64.530071 
L 224.884686 64.530071 
L 224.980074 63.8208 
L 225.051939 63.8208 
L 225.137136 61.692988 
L 225.284466 61.692988 
L 225.341731 60.629082 
L 225.446545 60.629082 
L 225.474119 59.565176 
L 225.644511 59.565176 
L 225.736132 56.728094 
L 225.796145 56.728094 
L 225.904177 54.245647 
L 225.969351 54.245647 
L 226.044023 52.827106 
L 226.083673 52.827106 
L 226.190072 50.699294 
L 226.210958 50.699294 
L 226.291875 46.443671 
L 226.33978 46.443671 
L 226.444744 44.315859 
L 226.466934 44.315859 
L 226.523874 41.478776 
L 226.587726 41.478776 
L 226.687406 40.414871 
L 226.777214 40.414871 
L 226.843319 39.350965 
L 226.967125 39.350965 
L 227.068656 37.932424 
L 227.120746 37.932424 
L 227.130688 37.223153 
L 227.297389 37.223153 
L 227.348851 35.804612 
L 227.424275 35.804612 
L 227.424275 35.449976 
L 227.894087 35.449976 
L 227.894087 34.740706 
L 228.04035 34.740706 
L 228.118862 33.6768 
L 228.263394 33.6768 
L 228.263394 33.322165 
L 228.732623 33.322165 
L 228.732623 32.967529 
L 228.9421 32.967529 
L 228.9421 32.612894 
L 229.516523 32.612894 
L 229.516523 32.258259 
L 230.005801 32.258259 
L 230.091569 31.548988 
L 230.156778 31.548988 
L 230.156778 30.485082 
L 230.447454 30.485082 
L 230.447454 30.130447 
L 231.807262 30.130447 
L 231.807262 29.775812 
L 232.231177 29.775812 
L 232.231177 29.421176 
L 232.347417 29.421176 
L 232.405268 28.711906 
L 232.462943 28.711906 
L 232.52044 27.648 
L 360.8064 27.648 
L 360.8064 27.648 
" style="fill: none; stroke: #ff00ff; stroke-width: 1.5; stroke-linecap: square"/>
   </g>
   <g id="line2d_40">
    <defs>
     <path id="ma256f3e325" d="M 0 8.485281 
L 5.091169 0 
L 0 -8.485281 
L -5.091169 0 
z
" style="stroke: #ff00ff; stroke-width: 1.5; stroke-linejoin: miter"/>
    </defs>
    <g>
     <use xlink:href="#ma256f3e325" x="142.248405" y="264.189741" style="fill-opacity: 0; stroke: #ff00ff; stroke-width: 1.5; stroke-linejoin: miter"/>
     <use xlink:href="#ma256f3e325" x="208.943975" y="161.345506" style="fill-opacity: 0; stroke: #ff00ff; stroke-width: 1.5; stroke-linejoin: miter"/>
     <use xlink:href="#ma256f3e325" x="224.624434" y="65.948612" style="fill-opacity: 0; stroke: #ff00ff; stroke-width: 1.5; stroke-linejoin: miter"/>
     <use xlink:href="#ma256f3e325" x="232.52044" y="27.648" style="fill-opacity: 0; stroke: #ff00ff; stroke-width: 1.5; stroke-linejoin: miter"/>
     <use xlink:href="#ma256f3e325" x="232.52044" y="27.648" style="fill-opacity: 0; stroke: #ff00ff; stroke-width: 1.5; stroke-linejoin: miter"/>
     <use xlink:href="#ma256f3e325" x="360.8064" y="27.648" style="fill-opacity: 0; stroke: #ff00ff; stroke-width: 1.5; stroke-linejoin: miter"/>
    </g>
   </g>
   <g id="line2d_41">
    <path style="fill: none; stroke: #ff00ff; stroke-width: 1.5; stroke-linecap: square"/>
    <g/>
   </g>
   <g id="line2d_42">
    <path d="M 360.8064 27.648 
L 380.514816 293.51808 
" style="fill: none; stroke: #000080; stroke-width: 1.5; stroke-linecap: square"/>
    <g>
     <use xlink:href="#m9fd4c70d35" x="360.8064" y="27.648" style="fill-opacity: 0; stroke: #000080; stroke-width: 1.5"/>
     <use xlink:href="#m9fd4c70d35" x="380.514816" y="293.51808" style="fill-opacity: 0; stroke: #000080; stroke-width: 1.5"/>
    </g>
   </g>
   <g id="line2d_43">
    <path d="M 360.8064 27.648 
L 380.514816 163.296 
" style="fill: none; stroke: #ff00ff; stroke-width: 1.5; stroke-linecap: square"/>
    <g>
     <use xlink:href="#ma256f3e325" x="360.8064" y="27.648" style="fill-opacity: 0; stroke: #ff00ff; stroke-width: 1.5; stroke-linejoin: miter"/>
     <use xlink:href="#ma256f3e325" x="380.514816" y="163.296" style="fill-opacity: 0; stroke: #ff00ff; stroke-width: 1.5; stroke-linejoin: miter"/>
    </g>
   </g>
   <g id="line2d_44">
    <path d="M 360.8064 298.944 
L 360.8064 27.648 
" style="fill: none; stroke: #000000; stroke-width: 1.5; stroke-linecap: square"/>
   </g>
   <g id="patch_3">
    <path d="M 57.6 298.944 
L 360.8064 298.944 
" style="fill: none; stroke: #000000; stroke-width: 0.8; stroke-linejoin: miter; stroke-linecap: square"/>
   </g>
   <g id="patch_4">
    <path d="M 57.6 27.648 
L 360.8064 27.648 
" style="fill: none; stroke: #000000; stroke-width: 0.8; stroke-linejoin: miter; stroke-linecap: square"/>
   </g>
   <g id="text_13">
    <!-- LCGA -->
    <g transform="translate(386.578944 297.381205)scale(0.14 -0.14)">
     <defs>
      <path id="DejaVuSans-4c" d="M 628 4666 
L 1259 4666 
L 1259 531 
L 3531 531 
L 3531 0 
L 628 0 
L 628 4666 
z
" transform="scale(0.015625)"/>
      <path id="DejaVuSans-43" d="M 4122 4306 
L 4122 3641 
Q 3803 3938 3442 4084 
Q 3081 4231 2675 4231 
Q 1875 4231 1450 3742 
Q 1025 3253 1025 2328 
Q 1025 1406 1450 917 
Q 1875 428 2675 428 
Q 3081 428 3442 575 
Q 3803 722 4122 1019 
L 4122 359 
Q 3791 134 3420 21 
Q 3050 -91 2638 -91 
Q 1578 -91 968 557 
Q 359 1206 359 2328 
Q 359 3453 968 4101 
Q 1578 4750 2638 4750 
Q 3056 4750 3426 4639 
Q 3797 4528 4122 4306 
z
" transform="scale(0.015625)"/>
      <path id="DejaVuSans-47" d="M 3809 666 
L 3809 1919 
L 2778 1919 
L 2778 2438 
L 4434 2438 
L 4434 434 
Q 4069 175 3628 42 
Q 3188 -91 2688 -91 
Q 1594 -91 976 548 
Q 359 1188 359 2328 
Q 359 3472 976 4111 
Q 1594 4750 2688 4750 
Q 3144 4750 3555 4637 
Q 3966 4525 4313 4306 
L 4313 3634 
Q 3963 3931 3569 4081 
Q 3175 4231 2741 4231 
Q 1884 4231 1454 3753 
Q 1025 3275 1025 2328 
Q 1025 1384 1454 906 
Q 1884 428 2741 428 
Q 3075 428 3337 486 
Q 3600 544 3809 666 
z
" transform="scale(0.015625)"/>
      <path id="DejaVuSans-41" d="M 2188 4044 
L 1331 1722 
L 3047 1722 
L 2188 4044 
z
M 1831 4666 
L 2547 4666 
L 4325 0 
L 3669 0 
L 3244 1197 
L 1141 1197 
L 716 0 
L 50 0 
L 1831 4666 
z
" transform="scale(0.015625)"/>
     </defs>
     <use xlink:href="#DejaVuSans-4c"/>
     <use xlink:href="#DejaVuSans-43" x="55.712891"/>
     <use xlink:href="#DejaVuSans-47" x="125.537109"/>
     <use xlink:href="#DejaVuSans-41" x="203.027344"/>
    </g>
   </g>
   <g id="text_14">
    <!-- EvoSpace- -->
    <g transform="translate(386.578944 167.159125)scale(0.14 -0.14)">
     <defs>
      <path id="DejaVuSans-45" d="M 628 4666 
L 3578 4666 
L 3578 4134 
L 1259 4134 
L 1259 2753 
L 3481 2753 
L 3481 2222 
L 1259 2222 
L 1259 531 
L 3634 531 
L 3634 0 
L 628 0 
L 628 4666 
z
" transform="scale(0.015625)"/>
      <path id="DejaVuSans-53" d="M 3425 4513 
L 3425 3897 
Q 3066 4069 2747 4153 
Q 2428 4238 2131 4238 
Q 1616 4238 1336 4038 
Q 1056 3838 1056 3469 
Q 1056 3159 1242 3001 
Q 1428 2844 1947 2747 
L 2328 2669 
Q 3034 2534 3370 2195 
Q 3706 1856 3706 1288 
Q 3706 609 3251 259 
Q 2797 -91 1919 -91 
Q 1588 -91 1214 -16 
Q 841 59 441 206 
L 441 856 
Q 825 641 1194 531 
Q 1563 422 1919 422 
Q 2459 422 2753 634 
Q 3047 847 3047 1241 
Q 3047 1584 2836 1778 
Q 2625 1972 2144 2069 
L 1759 2144 
Q 1053 2284 737 2584 
Q 422 2884 422 3419 
Q 422 4038 858 4394 
Q 1294 4750 2059 4750 
Q 2388 4750 2728 4690 
Q 3069 4631 3425 4513 
z
" transform="scale(0.015625)"/>
     </defs>
     <use xlink:href="#DejaVuSans-45"/>
     <use xlink:href="#DejaVuSans-76" x="63.183594"/>
     <use xlink:href="#DejaVuSans-6f" x="122.363281"/>
     <use xlink:href="#DejaVuSans-53" x="183.544922"/>
     <use xlink:href="#DejaVuSans-70" x="247.021484"/>
     <use xlink:href="#DejaVuSans-61" x="310.498047"/>
     <use xlink:href="#DejaVuSans-63" x="371.777344"/>
     <use xlink:href="#DejaVuSans-65" x="426.757812"/>
     <use xlink:href="#DejaVuSans-2d" x="488.28125"/>
    </g>
   </g>
   <g id="text_15">
    <!-- best 2009 -->
    <g transform="translate(386.578944 36.937045)scale(0.14 -0.14)">
     <defs>
      <path id="DejaVuSans-62" d="M 3116 1747 
Q 3116 2381 2855 2742 
Q 2594 3103 2138 3103 
Q 1681 3103 1420 2742 
Q 1159 2381 1159 1747 
Q 1159 1113 1420 752 
Q 1681 391 2138 391 
Q 2594 391 2855 752 
Q 3116 1113 3116 1747 
z
M 1159 2969 
Q 1341 3281 1617 3432 
Q 1894 3584 2278 3584 
Q 2916 3584 3314 3078 
Q 3713 2572 3713 1747 
Q 3713 922 3314 415 
Q 2916 -91 2278 -91 
Q 1894 -91 1617 61 
Q 1341 213 1159 525 
L 1159 0 
L 581 0 
L 581 4863 
L 1159 4863 
L 1159 2969 
z
" transform="scale(0.015625)"/>
      <path id="DejaVuSans-39" d="M 703 97 
L 703 672 
Q 941 559 1184 500 
Q 1428 441 1663 441 
Q 2288 441 2617 861 
Q 2947 1281 2994 2138 
Q 2813 1869 2534 1725 
Q 2256 1581 1919 1581 
Q 1219 1581 811 2004 
Q 403 2428 403 3163 
Q 403 3881 828 4315 
Q 1253 4750 1959 4750 
Q 2769 4750 3195 4129 
Q 3622 3509 3622 2328 
Q 3622 1225 3098 567 
Q 2575 -91 1691 -91 
Q 1453 -91 1209 -44 
Q 966 3 703 97 
z
M 1959 2075 
Q 2384 2075 2632 2365 
Q 2881 2656 2881 3163 
Q 2881 3666 2632 3958 
Q 2384 4250 1959 4250 
Q 1534 4250 1286 3958 
Q 1038 3666 1038 3163 
Q 1038 2656 1286 2365 
Q 1534 2075 1959 2075 
z
" transform="scale(0.015625)"/>
     </defs>
     <use xlink:href="#DejaVuSans-62"/>
     <use xlink:href="#DejaVuSans-65" x="63.476562"/>
     <use xlink:href="#DejaVuSans-73" x="125"/>
     <use xlink:href="#DejaVuSans-74" x="177.099609"/>
     <use xlink:href="#DejaVuSans-20" x="216.308594"/>
     <use xlink:href="#DejaVuSans-32" x="248.095703"/>
     <use xlink:href="#DejaVuSans-30" x="311.71875"/>
     <use xlink:href="#DejaVuSans-30" x="375.341797"/>
     <use xlink:href="#DejaVuSans-39" x="438.964844"/>
    </g>
   </g>
   <g id="text_16">
    <!-- bbob f6, 3-D -->
    <g transform="translate(60.632064 38.111366)scale(0.102 -0.102)">
     <defs>
      <path id="DejaVuSans-33" d="M 2597 2516 
Q 3050 2419 3304 2112 
Q 3559 1806 3559 1356 
Q 3559 666 3084 287 
Q 2609 -91 1734 -91 
Q 1441 -91 1130 -33 
Q 819 25 488 141 
L 488 750 
Q 750 597 1062 519 
Q 1375 441 1716 441 
Q 2309 441 2620 675 
Q 2931 909 2931 1356 
Q 2931 1769 2642 2001 
Q 2353 2234 1838 2234 
L 1294 2234 
L 1294 2753 
L 1863 2753 
Q 2328 2753 2575 2939 
Q 2822 3125 2822 3475 
Q 2822 3834 2567 4026 
Q 2313 4219 1838 4219 
Q 1578 4219 1281 4162 
Q 984 4106 628 3988 
L 628 4550 
Q 988 4650 1302 4700 
Q 1616 4750 1894 4750 
Q 2613 4750 3031 4423 
Q 3450 4097 3450 3541 
Q 3450 3153 3228 2886 
Q 3006 2619 2597 2516 
z
" transform="scale(0.015625)"/>
      <path id="DejaVuSans-44" d="M 1259 4147 
L 1259 519 
L 2022 519 
Q 2988 519 3436 956 
Q 3884 1394 3884 2338 
Q 3884 3275 3436 3711 
Q 2988 4147 2022 4147 
L 1259 4147 
z
M 628 4666 
L 1925 4666 
Q 3281 4666 3915 4102 
Q 4550 3538 4550 2338 
Q 4550 1131 3912 565 
Q 3275 0 1925 0 
L 628 0 
L 628 4666 
z
" transform="scale(0.015625)"/>
     </defs>
     <use xlink:href="#DejaVuSans-62"/>
     <use xlink:href="#DejaVuSans-62" x="63.476562"/>
     <use xlink:href="#DejaVuSans-6f" x="126.953125"/>
     <use xlink:href="#DejaVuSans-62" x="188.134766"/>
     <use xlink:href="#DejaVuSans-20" x="251.611328"/>
     <use xlink:href="#DejaVuSans-66" x="283.398438"/>
     <use xlink:href="#DejaVuSans-36" x="318.603516"/>
     <use xlink:href="#DejaVuSans-2c" x="382.226562"/>
     <use xlink:href="#DejaVuSans-20" x="414.013672"/>
     <use xlink:href="#DejaVuSans-33" x="445.800781"/>
     <use xlink:href="#DejaVuSans-2d" x="509.423828"/>
     <use xlink:href="#DejaVuSans-44" x="545.507812"/>
    </g>
    <!-- 51 targets: 100..1e-08 -->
    <g transform="translate(60.632064 49.533135)scale(0.102 -0.102)">
     <defs>
      <path id="DejaVuSans-35" d="M 691 4666 
L 3169 4666 
L 3169 4134 
L 1269 4134 
L 1269 2991 
Q 1406 3038 1543 3061 
Q 1681 3084 1819 3084 
Q 2600 3084 3056 2656 
Q 3513 2228 3513 1497 
Q 3513 744 3044 326 
Q 2575 -91 1722 -91 
Q 1428 -91 1123 -41 
Q 819 9 494 109 
L 494 744 
Q 775 591 1075 516 
Q 1375 441 1709 441 
Q 2250 441 2565 725 
Q 2881 1009 2881 1497 
Q 2881 1984 2565 2268 
Q 2250 2553 1709 2553 
Q 1456 2553 1204 2497 
Q 953 2441 691 2322 
L 691 4666 
z
" transform="scale(0.015625)"/>
      <path id="DejaVuSans-3a" d="M 750 794 
L 1409 794 
L 1409 0 
L 750 0 
L 750 794 
z
M 750 3309 
L 1409 3309 
L 1409 2516 
L 750 2516 
L 750 3309 
z
" transform="scale(0.015625)"/>
     </defs>
     <use xlink:href="#DejaVuSans-35"/>
     <use xlink:href="#DejaVuSans-31" x="63.623047"/>
     <use xlink:href="#DejaVuSans-20" x="127.246094"/>
     <use xlink:href="#DejaVuSans-74" x="159.033203"/>
     <use xlink:href="#DejaVuSans-61" x="198.242188"/>
     <use xlink:href="#DejaVuSans-72" x="259.521484"/>
     <use xlink:href="#DejaVuSans-67" x="298.884766"/>
     <use xlink:href="#DejaVuSans-65" x="362.361328"/>
     <use xlink:href="#DejaVuSans-74" x="423.884766"/>
     <use xlink:href="#DejaVuSans-73" x="463.09375"/>
     <use xlink:href="#DejaVuSans-3a" x="515.193359"/>
     <use xlink:href="#DejaVuSans-20" x="548.884766"/>
     <use xlink:href="#DejaVuSans-31" x="580.671875"/>
     <use xlink:href="#DejaVuSans-30" x="644.294922"/>
     <use xlink:href="#DejaVuSans-30" x="707.917969"/>
     <use xlink:href="#DejaVuSans-2e" x="771.541016"/>
     <use xlink:href="#DejaVuSans-2e" x="803.328125"/>
     <use xlink:href="#DejaVuSans-31" x="835.115234"/>
     <use xlink:href="#DejaVuSans-65" x="898.738281"/>
     <use xlink:href="#DejaVuSans-2d" x="960.261719"/>
     <use xlink:href="#DejaVuSans-30" x="996.345703"/>
     <use xlink:href="#DejaVuSans-38" x="1059.96875"/>
    </g>
    <!-- 15 instances -->
    <g transform="translate(60.632064 60.954904)scale(0.102 -0.102)">
     <use xlink:href="#DejaVuSans-31"/>
     <use xlink:href="#DejaVuSans-35" x="63.623047"/>
     <use xlink:href="#DejaVuSans-20" x="127.246094"/>
     <use xlink:href="#DejaVuSans-69" x="159.033203"/>
     <use xlink:href="#DejaVuSans-6e" x="186.816406"/>
     <use xlink:href="#DejaVuSans-73" x="250.195312"/>
     <use xlink:href="#DejaVuSans-74" x="302.294922"/>
     <use xlink:href="#DejaVuSans-61" x="341.503906"/>
     <use xlink:href="#DejaVuSans-6e" x="402.783203"/>
     <use xlink:href="#DejaVuSans-63" x="466.162109"/>
     <use xlink:href="#DejaVuSans-65" x="521.142578"/>
     <use xlink:href="#DejaVuSans-73" x="582.666016"/>
    </g>
   </g>
   <g id="text_17">
    <!-- v2.6 -->
    <g style="fill: #808080" transform="translate(198.292262 294.151352)scale(0.1 -0.1)">
     <use xlink:href="#DejaVuSans-76"/>
     <use xlink:href="#DejaVuSans-32" x="59.179688"/>
     <use xlink:href="#DejaVuSans-2e" x="122.802734"/>
     <use xlink:href="#DejaVuSans-36" x="154.589844"/>
    </g>
   </g>
   <g id="text_18">
    <!-- 6 Attractive sector -->
    <g transform="translate(116.45945 21.648)scale(0.2 -0.2)">
     <use xlink:href="#DejaVuSans-36"/>
     <use xlink:href="#DejaVuSans-20" x="63.623047"/>
     <use xlink:href="#DejaVuSans-41" x="95.410156"/>
     <use xlink:href="#DejaVuSans-74" x="162.068359"/>
     <use xlink:href="#DejaVuSans-74" x="201.277344"/>
     <use xlink:href="#DejaVuSans-72" x="240.486328"/>
     <use xlink:href="#DejaVuSans-61" x="281.599609"/>
     <use xlink:href="#DejaVuSans-63" x="342.878906"/>
     <use xlink:href="#DejaVuSans-74" x="397.859375"/>
     <use xlink:href="#DejaVuSans-69" x="437.068359"/>
     <use xlink:href="#DejaVuSans-76" x="464.851562"/>
     <use xlink:href="#DejaVuSans-65" x="524.03125"/>
     <use xlink:href="#DejaVuSans-20" x="585.554688"/>
     <use xlink:href="#DejaVuSans-73" x="617.341797"/>
     <use xlink:href="#DejaVuSans-65" x="669.441406"/>
     <use xlink:href="#DejaVuSans-63" x="730.964844"/>
     <use xlink:href="#DejaVuSans-74" x="785.945312"/>
     <use xlink:href="#DejaVuSans-6f" x="825.154297"/>
     <use xlink:href="#DejaVuSans-72" x="886.335938"/>
    </g>
   </g>
  </g>
 </g>
 <defs>
  <clipPath id="pb518db1e43">
   <rect x="57.6" y="27.648" width="303.2064" height="271.296"/>
  </clipPath>
 </defs>
</svg>
