<?xml version="1.0" encoding="utf-8" standalone="no"?>
<!DOCTYPE svg PUBLIC "-//W3C//DTD SVG 1.1//EN"
  "http://www.w3.org/Graphics/SVG/1.1/DTD/svg11.dtd">
<svg xmlns:xlink="http://www.w3.org/1999/xlink" width="460.8pt" height="345.6pt" viewBox="0 0 460.8 345.6" xmlns="http://www.w3.org/2000/svg" version="1.1">
 <metadata>
  <rdf:RDF xmlns:dc="http://purl.org/dc/elements/1.1/" xmlns:cc="http://creativecommons.org/ns#" xmlns:rdf="http://www.w3.org/1999/02/22-rdf-syntax-ns#">
   <cc:Work>
    <dc:type rdf:resource="http://purl.org/dc/dcmitype/StillImage"/>
    <dc:date>2024-05-29T08:06:11.527408</dc:date>
    <dc:format>image/svg+xml</dc:format>
    <dc:creator>
     <cc:Agent>
      <dc:title>Matplotlib v3.5.1, https://matplotlib.org/</dc:title>
     </cc:Agent>
    </dc:creator>
   </cc:Work>
  </rdf:RDF>
 </metadata>
 <defs>
  <style type="text/css">*{stroke-linejoin: round; stroke-linecap: butt}</style>
 </defs>
 <g id="figure_1">
  <g id="patch_1">
   <path d="M 0 345.6 
L 460.8 345.6 
L 460.8 0 
L 0 0 
z
" style="fill: #ffffff"/>
  </g>
  <g id="axes_1">
   <g id="patch_2">
    <path d="M 57.6 298.944 
L 360.8064 298.944 
L 360.8064 27.648 
L 57.6 27.648 
z
" style="fill: #ffffff"/>
   </g>
   <g id="line2d_1">
    <path d="M 44.560826 298.944 
L 44.560826 282.985412 
L 65.227428 282.985412 
L 65.227428 277.665882 
L 83.678349 277.665882 
L 83.678349 272.346353 
L 98.933205 272.346353 
L 98.933205 267.026824 
L 115.747307 267.026824 
L 115.747307 261.707294 
L 125.526971 261.707294 
L 125.526971 256.387765 
L 150.221009 256.387765 
L 150.221009 251.068235 
L 170.681267 251.068235 
L 170.681267 245.748706 
L 171.603476 245.748706 
L 171.603476 240.429176 
L 186.816825 240.429176 
L 186.816825 235.109647 
L 203.160675 235.109647 
L 203.160675 229.790118 
L 204.752328 229.790118 
L 204.752328 224.470588 
L 210.76485 224.470588 
L 210.76485 219.151059 
L 214.79756 219.151059 
L 214.79756 213.831529 
L 226.509655 213.831529 
L 226.509655 208.512 
L 230.006457 208.512 
L 230.006457 203.192471 
L 230.025149 203.192471 
L 230.025149 197.872941 
L 233.67793 197.872941 
L 233.67793 192.553412 
L 233.81348 192.553412 
L 233.81348 187.233882 
L 233.852833 187.233882 
L 233.852833 181.914353 
L 233.949657 181.914353 
L 233.949657 176.594824 
L 234.032482 176.594824 
L 234.032482 171.275294 
L 234.202559 171.275294 
L 234.202559 165.955765 
L 234.378915 165.955765 
L 234.378915 160.636235 
L 234.432668 160.636235 
L 234.432668 155.316706 
L 234.845076 155.316706 
L 234.845076 144.677647 
L 234.845837 144.677647 
L 234.845837 139.358118 
L 234.846598 139.358118 
L 234.846598 128.719059 
L 234.847359 128.719059 
L 234.847359 54.245647 
L 234.84812 54.245647 
L 234.84812 48.926118 
L 234.848881 48.926118 
L 234.848881 27.648 
L 360.8064 27.648 
" style="fill: none; stroke: #f5deb3; stroke-width: 4; stroke-linecap: square"/>
   </g>
   <g id="line2d_2">
    <defs>
     <path id="m3c20b74c68" d="M 0 7.778175 
L 7.778175 0 
L 0 -7.778175 
L -7.778175 0 
z
" style="stroke: #f5deb3; stroke-width: 1.5; stroke-linejoin: miter"/>
    </defs>
    <g>
     <use xlink:href="#m3c20b74c68" x="150.221009" y="251.068235" style="fill: #f5deb3; stroke: #f5deb3; stroke-width: 1.5; stroke-linejoin: miter"/>
     <use xlink:href="#m3c20b74c68" x="234.032482" y="176.594824" style="fill: #f5deb3; stroke: #f5deb3; stroke-width: 1.5; stroke-linejoin: miter"/>
     <use xlink:href="#m3c20b74c68" x="234.84812" y="54.245647" style="fill: #f5deb3; stroke: #f5deb3; stroke-width: 1.5; stroke-linejoin: miter"/>
     <use xlink:href="#m3c20b74c68" x="234.848881" y="27.648" style="fill: #f5deb3; stroke: #f5deb3; stroke-width: 1.5; stroke-linejoin: miter"/>
     <use xlink:href="#m3c20b74c68" x="234.848881" y="27.648" style="fill: #f5deb3; stroke: #f5deb3; stroke-width: 1.5; stroke-linejoin: miter"/>
     <use xlink:href="#m3c20b74c68" x="360.8064" y="27.648" style="fill: #f5deb3; stroke: #f5deb3; stroke-width: 1.5; stroke-linejoin: miter"/>
    </g>
   </g>
   <g id="line2d_3">
    <path style="fill: none; stroke: #f5deb3; stroke-width: 4; stroke-linecap: square"/>
    <g/>
   </g>
   <g id="line2d_4">
    <path d="M 360.8064 27.648 
L 380.514816 33.07392 
" style="fill: none; stroke: #f5deb3; stroke-width: 4; stroke-linecap: square"/>
    <g>
     <use xlink:href="#m3c20b74c68" x="360.8064" y="27.648" style="fill: #f5deb3; stroke: #f5deb3; stroke-width: 1.5; stroke-linejoin: miter"/>
     <use xlink:href="#m3c20b74c68" x="380.514816" y="33.07392" style="fill: #f5deb3; stroke: #f5deb3; stroke-width: 1.5; stroke-linejoin: miter"/>
    </g>
   </g>
   <g id="matplotlib.axis_1">
    <g id="xtick_1">
     <g id="line2d_5">
      <path d="M 57.6 298.944 
L 57.6 27.648 
" clip-path="url(#p5518c22ebe)" style="fill: none; stroke: #b0b0b0; stroke-width: 0.8; stroke-linecap: square"/>
     </g>
     <g id="line2d_6">
      <defs>
       <path id="m005de39254" d="M 0 0 
L 0 3.5 
" style="stroke: #000000; stroke-width: 0.8"/>
      </defs>
      <g>
       <use xlink:href="#m005de39254" x="57.6" y="298.944" style="stroke: #000000; stroke-width: 0.8"/>
      </g>
     </g>
     <g id="text_1">
      <!-- 0 -->
      <g transform="translate(52.191875 318.861344)scale(0.17 -0.17)">
       <defs>
        <path id="DejaVuSans-30" d="M 2034 4250 
Q 1547 4250 1301 3770 
Q 1056 3291 1056 2328 
Q 1056 1369 1301 889 
Q 1547 409 2034 409 
Q 2525 409 2770 889 
Q 3016 1369 3016 2328 
Q 3016 3291 2770 3770 
Q 2525 4250 2034 4250 
z
M 2034 4750 
Q 2819 4750 3233 4129 
Q 3647 3509 3647 2328 
Q 3647 1150 3233 529 
Q 2819 -91 2034 -91 
Q 1250 -91 836 529 
Q 422 1150 422 2328 
Q 422 3509 836 4129 
Q 1250 4750 2034 4750 
z
" transform="scale(0.015625)"/>
       </defs>
       <use xlink:href="#DejaVuSans-30"/>
      </g>
     </g>
    </g>
    <g id="xtick_2">
     <g id="line2d_7">
      <path d="M 144.2304 298.944 
L 144.2304 27.648 
" clip-path="url(#p5518c22ebe)" style="fill: none; stroke: #b0b0b0; stroke-width: 0.8; stroke-linecap: square"/>
     </g>
     <g id="line2d_8">
      <g>
       <use xlink:href="#m005de39254" x="144.2304" y="298.944" style="stroke: #000000; stroke-width: 0.8"/>
      </g>
     </g>
     <g id="text_2">
      <!-- 2 -->
      <g transform="translate(138.822275 318.861344)scale(0.17 -0.17)">
       <defs>
        <path id="DejaVuSans-32" d="M 1228 531 
L 3431 531 
L 3431 0 
L 469 0 
L 469 531 
Q 828 903 1448 1529 
Q 2069 2156 2228 2338 
Q 2531 2678 2651 2914 
Q 2772 3150 2772 3378 
Q 2772 3750 2511 3984 
Q 2250 4219 1831 4219 
Q 1534 4219 1204 4116 
Q 875 4013 500 3803 
L 500 4441 
Q 881 4594 1212 4672 
Q 1544 4750 1819 4750 
Q 2544 4750 2975 4387 
Q 3406 4025 3406 3419 
Q 3406 3131 3298 2873 
Q 3191 2616 2906 2266 
Q 2828 2175 2409 1742 
Q 1991 1309 1228 531 
z
" transform="scale(0.015625)"/>
       </defs>
       <use xlink:href="#DejaVuSans-32"/>
      </g>
     </g>
    </g>
    <g id="xtick_3">
     <g id="line2d_9">
      <path d="M 230.8608 298.944 
L 230.8608 27.648 
" clip-path="url(#p5518c22ebe)" style="fill: none; stroke: #b0b0b0; stroke-width: 0.8; stroke-linecap: square"/>
     </g>
     <g id="line2d_10">
      <g>
       <use xlink:href="#m005de39254" x="230.8608" y="298.944" style="stroke: #000000; stroke-width: 0.8"/>
      </g>
     </g>
     <g id="text_3">
      <!-- 4 -->
      <g transform="translate(225.452675 318.861344)scale(0.17 -0.17)">
       <defs>
        <path id="DejaVuSans-34" d="M 2419 4116 
L 825 1625 
L 2419 1625 
L 2419 4116 
z
M 2253 4666 
L 3047 4666 
L 3047 1625 
L 3713 1625 
L 3713 1100 
L 3047 1100 
L 3047 0 
L 2419 0 
L 2419 1100 
L 313 1100 
L 313 1709 
L 2253 4666 
z
" transform="scale(0.015625)"/>
       </defs>
       <use xlink:href="#DejaVuSans-34"/>
      </g>
     </g>
    </g>
    <g id="xtick_4">
     <g id="line2d_11">
      <path d="M 317.4912 298.944 
L 317.4912 27.648 
" clip-path="url(#p5518c22ebe)" style="fill: none; stroke: #b0b0b0; stroke-width: 0.8; stroke-linecap: square"/>
     </g>
     <g id="line2d_12">
      <g>
       <use xlink:href="#m005de39254" x="317.4912" y="298.944" style="stroke: #000000; stroke-width: 0.8"/>
      </g>
     </g>
     <g id="text_4">
      <!-- 6 -->
      <g transform="translate(312.083075 318.861344)scale(0.17 -0.17)">
       <defs>
        <path id="DejaVuSans-36" d="M 2113 2584 
Q 1688 2584 1439 2293 
Q 1191 2003 1191 1497 
Q 1191 994 1439 701 
Q 1688 409 2113 409 
Q 2538 409 2786 701 
Q 3034 994 3034 1497 
Q 3034 2003 2786 2293 
Q 2538 2584 2113 2584 
z
M 3366 4563 
L 3366 3988 
Q 3128 4100 2886 4159 
Q 2644 4219 2406 4219 
Q 1781 4219 1451 3797 
Q 1122 3375 1075 2522 
Q 1259 2794 1537 2939 
Q 1816 3084 2150 3084 
Q 2853 3084 3261 2657 
Q 3669 2231 3669 1497 
Q 3669 778 3244 343 
Q 2819 -91 2113 -91 
Q 1303 -91 875 529 
Q 447 1150 447 2328 
Q 447 3434 972 4092 
Q 1497 4750 2381 4750 
Q 2619 4750 2861 4703 
Q 3103 4656 3366 4563 
z
" transform="scale(0.015625)"/>
       </defs>
       <use xlink:href="#DejaVuSans-36"/>
      </g>
     </g>
    </g>
    <g id="xtick_5">
     <g id="line2d_13">
      <path d="M 100.9152 298.944 
L 100.9152 27.648 
" clip-path="url(#p5518c22ebe)" style="fill: none; stroke: #b0b0b0; stroke-width: 0.8; stroke-linecap: square"/>
     </g>
     <g id="line2d_14">
      <defs>
       <path id="m4c37e55ac2" d="M 0 0 
L 0 2 
" style="stroke: #000000; stroke-width: 0.6"/>
      </defs>
      <g>
       <use xlink:href="#m4c37e55ac2" x="100.9152" y="298.944" style="stroke: #000000; stroke-width: 0.6"/>
      </g>
     </g>
    </g>
    <g id="xtick_6">
     <g id="line2d_15">
      <path d="M 187.5456 298.944 
L 187.5456 27.648 
" clip-path="url(#p5518c22ebe)" style="fill: none; stroke: #b0b0b0; stroke-width: 0.8; stroke-linecap: square"/>
     </g>
     <g id="line2d_16">
      <g>
       <use xlink:href="#m4c37e55ac2" x="187.5456" y="298.944" style="stroke: #000000; stroke-width: 0.6"/>
      </g>
     </g>
    </g>
    <g id="xtick_7">
     <g id="line2d_17">
      <path d="M 274.176 298.944 
L 274.176 27.648 
" clip-path="url(#p5518c22ebe)" style="fill: none; stroke: #b0b0b0; stroke-width: 0.8; stroke-linecap: square"/>
     </g>
     <g id="line2d_18">
      <g>
       <use xlink:href="#m4c37e55ac2" x="274.176" y="298.944" style="stroke: #000000; stroke-width: 0.6"/>
      </g>
     </g>
    </g>
    <g id="xtick_8">
     <g id="line2d_19">
      <path d="M 360.8064 298.944 
L 360.8064 27.648 
" clip-path="url(#p5518c22ebe)" style="fill: none; stroke: #b0b0b0; stroke-width: 0.8; stroke-linecap: square"/>
     </g>
     <g id="line2d_20">
      <g>
       <use xlink:href="#m4c37e55ac2" x="360.8064" y="298.944" style="stroke: #000000; stroke-width: 0.6"/>
      </g>
     </g>
    </g>
    <g id="text_5">
     <!-- log10(# f-evals / dimension) -->
     <g transform="translate(88.823278 339.314156)scale(0.17 -0.17)">
      <defs>
       <path id="DejaVuSans-6c" d="M 603 4863 
L 1178 4863 
L 1178 0 
L 603 0 
L 603 4863 
z
" transform="scale(0.015625)"/>
       <path id="DejaVuSans-6f" d="M 1959 3097 
Q 1497 3097 1228 2736 
Q 959 2375 959 1747 
Q 959 1119 1226 758 
Q 1494 397 1959 397 
Q 2419 397 2687 759 
Q 2956 1122 2956 1747 
Q 2956 2369 2687 2733 
Q 2419 3097 1959 3097 
z
M 1959 3584 
Q 2709 3584 3137 3096 
Q 3566 2609 3566 1747 
Q 3566 888 3137 398 
Q 2709 -91 1959 -91 
Q 1206 -91 779 398 
Q 353 888 353 1747 
Q 353 2609 779 3096 
Q 1206 3584 1959 3584 
z
" transform="scale(0.015625)"/>
       <path id="DejaVuSans-67" d="M 2906 1791 
Q 2906 2416 2648 2759 
Q 2391 3103 1925 3103 
Q 1463 3103 1205 2759 
Q 947 2416 947 1791 
Q 947 1169 1205 825 
Q 1463 481 1925 481 
Q 2391 481 2648 825 
Q 2906 1169 2906 1791 
z
M 3481 434 
Q 3481 -459 3084 -895 
Q 2688 -1331 1869 -1331 
Q 1566 -1331 1297 -1286 
Q 1028 -1241 775 -1147 
L 775 -588 
Q 1028 -725 1275 -790 
Q 1522 -856 1778 -856 
Q 2344 -856 2625 -561 
Q 2906 -266 2906 331 
L 2906 616 
Q 2728 306 2450 153 
Q 2172 0 1784 0 
Q 1141 0 747 490 
Q 353 981 353 1791 
Q 353 2603 747 3093 
Q 1141 3584 1784 3584 
Q 2172 3584 2450 3431 
Q 2728 3278 2906 2969 
L 2906 3500 
L 3481 3500 
L 3481 434 
z
" transform="scale(0.015625)"/>
       <path id="DejaVuSans-31" d="M 794 531 
L 1825 531 
L 1825 4091 
L 703 3866 
L 703 4441 
L 1819 4666 
L 2450 4666 
L 2450 531 
L 3481 531 
L 3481 0 
L 794 0 
L 794 531 
z
" transform="scale(0.015625)"/>
       <path id="DejaVuSans-28" d="M 1984 4856 
Q 1566 4138 1362 3434 
Q 1159 2731 1159 2009 
Q 1159 1288 1364 580 
Q 1569 -128 1984 -844 
L 1484 -844 
Q 1016 -109 783 600 
Q 550 1309 550 2009 
Q 550 2706 781 3412 
Q 1013 4119 1484 4856 
L 1984 4856 
z
" transform="scale(0.015625)"/>
       <path id="DejaVuSans-23" d="M 3272 2816 
L 2363 2816 
L 2100 1772 
L 3016 1772 
L 3272 2816 
z
M 2803 4594 
L 2478 3297 
L 3391 3297 
L 3719 4594 
L 4219 4594 
L 3897 3297 
L 4872 3297 
L 4872 2816 
L 3775 2816 
L 3519 1772 
L 4513 1772 
L 4513 1294 
L 3397 1294 
L 3072 0 
L 2572 0 
L 2894 1294 
L 1978 1294 
L 1656 0 
L 1153 0 
L 1478 1294 
L 494 1294 
L 494 1772 
L 1594 1772 
L 1856 2816 
L 850 2816 
L 850 3297 
L 1978 3297 
L 2297 4594 
L 2803 4594 
z
" transform="scale(0.015625)"/>
       <path id="DejaVuSans-20" transform="scale(0.015625)"/>
       <path id="DejaVuSans-66" d="M 2375 4863 
L 2375 4384 
L 1825 4384 
Q 1516 4384 1395 4259 
Q 1275 4134 1275 3809 
L 1275 3500 
L 2222 3500 
L 2222 3053 
L 1275 3053 
L 1275 0 
L 697 0 
L 697 3053 
L 147 3053 
L 147 3500 
L 697 3500 
L 697 3744 
Q 697 4328 969 4595 
Q 1241 4863 1831 4863 
L 2375 4863 
z
" transform="scale(0.015625)"/>
       <path id="DejaVuSans-2d" d="M 313 2009 
L 1997 2009 
L 1997 1497 
L 313 1497 
L 313 2009 
z
" transform="scale(0.015625)"/>
       <path id="DejaVuSans-65" d="M 3597 1894 
L 3597 1613 
L 953 1613 
Q 991 1019 1311 708 
Q 1631 397 2203 397 
Q 2534 397 2845 478 
Q 3156 559 3463 722 
L 3463 178 
Q 3153 47 2828 -22 
Q 2503 -91 2169 -91 
Q 1331 -91 842 396 
Q 353 884 353 1716 
Q 353 2575 817 3079 
Q 1281 3584 2069 3584 
Q 2775 3584 3186 3129 
Q 3597 2675 3597 1894 
z
M 3022 2063 
Q 3016 2534 2758 2815 
Q 2500 3097 2075 3097 
Q 1594 3097 1305 2825 
Q 1016 2553 972 2059 
L 3022 2063 
z
" transform="scale(0.015625)"/>
       <path id="DejaVuSans-76" d="M 191 3500 
L 800 3500 
L 1894 563 
L 2988 3500 
L 3597 3500 
L 2284 0 
L 1503 0 
L 191 3500 
z
" transform="scale(0.015625)"/>
       <path id="DejaVuSans-61" d="M 2194 1759 
Q 1497 1759 1228 1600 
Q 959 1441 959 1056 
Q 959 750 1161 570 
Q 1363 391 1709 391 
Q 2188 391 2477 730 
Q 2766 1069 2766 1631 
L 2766 1759 
L 2194 1759 
z
M 3341 1997 
L 3341 0 
L 2766 0 
L 2766 531 
Q 2569 213 2275 61 
Q 1981 -91 1556 -91 
Q 1019 -91 701 211 
Q 384 513 384 1019 
Q 384 1609 779 1909 
Q 1175 2209 1959 2209 
L 2766 2209 
L 2766 2266 
Q 2766 2663 2505 2880 
Q 2244 3097 1772 3097 
Q 1472 3097 1187 3025 
Q 903 2953 641 2809 
L 641 3341 
Q 956 3463 1253 3523 
Q 1550 3584 1831 3584 
Q 2591 3584 2966 3190 
Q 3341 2797 3341 1997 
z
" transform="scale(0.015625)"/>
       <path id="DejaVuSans-73" d="M 2834 3397 
L 2834 2853 
Q 2591 2978 2328 3040 
Q 2066 3103 1784 3103 
Q 1356 3103 1142 2972 
Q 928 2841 928 2578 
Q 928 2378 1081 2264 
Q 1234 2150 1697 2047 
L 1894 2003 
Q 2506 1872 2764 1633 
Q 3022 1394 3022 966 
Q 3022 478 2636 193 
Q 2250 -91 1575 -91 
Q 1294 -91 989 -36 
Q 684 19 347 128 
L 347 722 
Q 666 556 975 473 
Q 1284 391 1588 391 
Q 1994 391 2212 530 
Q 2431 669 2431 922 
Q 2431 1156 2273 1281 
Q 2116 1406 1581 1522 
L 1381 1569 
Q 847 1681 609 1914 
Q 372 2147 372 2553 
Q 372 3047 722 3315 
Q 1072 3584 1716 3584 
Q 2034 3584 2315 3537 
Q 2597 3491 2834 3397 
z
" transform="scale(0.015625)"/>
       <path id="DejaVuSans-2f" d="M 1625 4666 
L 2156 4666 
L 531 -594 
L 0 -594 
L 1625 4666 
z
" transform="scale(0.015625)"/>
       <path id="DejaVuSans-64" d="M 2906 2969 
L 2906 4863 
L 3481 4863 
L 3481 0 
L 2906 0 
L 2906 525 
Q 2725 213 2448 61 
Q 2172 -91 1784 -91 
Q 1150 -91 751 415 
Q 353 922 353 1747 
Q 353 2572 751 3078 
Q 1150 3584 1784 3584 
Q 2172 3584 2448 3432 
Q 2725 3281 2906 2969 
z
M 947 1747 
Q 947 1113 1208 752 
Q 1469 391 1925 391 
Q 2381 391 2643 752 
Q 2906 1113 2906 1747 
Q 2906 2381 2643 2742 
Q 2381 3103 1925 3103 
Q 1469 3103 1208 2742 
Q 947 2381 947 1747 
z
" transform="scale(0.015625)"/>
       <path id="DejaVuSans-69" d="M 603 3500 
L 1178 3500 
L 1178 0 
L 603 0 
L 603 3500 
z
M 603 4863 
L 1178 4863 
L 1178 4134 
L 603 4134 
L 603 4863 
z
" transform="scale(0.015625)"/>
       <path id="DejaVuSans-6d" d="M 3328 2828 
Q 3544 3216 3844 3400 
Q 4144 3584 4550 3584 
Q 5097 3584 5394 3201 
Q 5691 2819 5691 2113 
L 5691 0 
L 5113 0 
L 5113 2094 
Q 5113 2597 4934 2840 
Q 4756 3084 4391 3084 
Q 3944 3084 3684 2787 
Q 3425 2491 3425 1978 
L 3425 0 
L 2847 0 
L 2847 2094 
Q 2847 2600 2669 2842 
Q 2491 3084 2119 3084 
Q 1678 3084 1418 2786 
Q 1159 2488 1159 1978 
L 1159 0 
L 581 0 
L 581 3500 
L 1159 3500 
L 1159 2956 
Q 1356 3278 1631 3431 
Q 1906 3584 2284 3584 
Q 2666 3584 2933 3390 
Q 3200 3197 3328 2828 
z
" transform="scale(0.015625)"/>
       <path id="DejaVuSans-6e" d="M 3513 2113 
L 3513 0 
L 2938 0 
L 2938 2094 
Q 2938 2591 2744 2837 
Q 2550 3084 2163 3084 
Q 1697 3084 1428 2787 
Q 1159 2491 1159 1978 
L 1159 0 
L 581 0 
L 581 3500 
L 1159 3500 
L 1159 2956 
Q 1366 3272 1645 3428 
Q 1925 3584 2291 3584 
Q 2894 3584 3203 3211 
Q 3513 2838 3513 2113 
z
" transform="scale(0.015625)"/>
       <path id="DejaVuSans-29" d="M 513 4856 
L 1013 4856 
Q 1481 4119 1714 3412 
Q 1947 2706 1947 2009 
Q 1947 1309 1714 600 
Q 1481 -109 1013 -844 
L 513 -844 
Q 928 -128 1133 580 
Q 1338 1288 1338 2009 
Q 1338 2731 1133 3434 
Q 928 4138 513 4856 
z
" transform="scale(0.015625)"/>
      </defs>
      <use xlink:href="#DejaVuSans-6c"/>
      <use xlink:href="#DejaVuSans-6f" x="27.783203"/>
      <use xlink:href="#DejaVuSans-67" x="88.964844"/>
      <use xlink:href="#DejaVuSans-31" x="152.441406"/>
      <use xlink:href="#DejaVuSans-30" x="216.064453"/>
      <use xlink:href="#DejaVuSans-28" x="279.6875"/>
      <use xlink:href="#DejaVuSans-23" x="318.701172"/>
      <use xlink:href="#DejaVuSans-20" x="402.490234"/>
      <use xlink:href="#DejaVuSans-66" x="434.277344"/>
      <use xlink:href="#DejaVuSans-2d" x="463.982422"/>
      <use xlink:href="#DejaVuSans-65" x="500.066406"/>
      <use xlink:href="#DejaVuSans-76" x="561.589844"/>
      <use xlink:href="#DejaVuSans-61" x="620.769531"/>
      <use xlink:href="#DejaVuSans-6c" x="682.048828"/>
      <use xlink:href="#DejaVuSans-73" x="709.832031"/>
      <use xlink:href="#DejaVuSans-20" x="761.931641"/>
      <use xlink:href="#DejaVuSans-2f" x="793.71875"/>
      <use xlink:href="#DejaVuSans-20" x="827.410156"/>
      <use xlink:href="#DejaVuSans-64" x="859.197266"/>
      <use xlink:href="#DejaVuSans-69" x="922.673828"/>
      <use xlink:href="#DejaVuSans-6d" x="950.457031"/>
      <use xlink:href="#DejaVuSans-65" x="1047.869141"/>
      <use xlink:href="#DejaVuSans-6e" x="1109.392578"/>
      <use xlink:href="#DejaVuSans-73" x="1172.771484"/>
      <use xlink:href="#DejaVuSans-69" x="1224.871094"/>
      <use xlink:href="#DejaVuSans-6f" x="1252.654297"/>
      <use xlink:href="#DejaVuSans-6e" x="1313.835938"/>
      <use xlink:href="#DejaVuSans-29" x="1377.214844"/>
     </g>
    </g>
   </g>
   <g id="matplotlib.axis_2">
    <g id="ytick_1">
     <g id="line2d_21">
      <path d="M 57.6 298.944 
L 360.8064 298.944 
" clip-path="url(#p5518c22ebe)" style="fill: none; stroke: #b0b0b0; stroke-width: 0.8; stroke-linecap: square"/>
     </g>
     <g id="line2d_22">
      <defs>
       <path id="me33597e62b" d="M 0 0 
L -3.5 0 
" style="stroke: #000000; stroke-width: 0.8"/>
      </defs>
      <g>
       <use xlink:href="#me33597e62b" x="57.6" y="298.944" style="stroke: #000000; stroke-width: 0.8"/>
      </g>
     </g>
     <g id="text_6">
      <!-- 0.0 -->
      <g transform="translate(25.155 305.02275)scale(0.16 -0.16)">
       <defs>
        <path id="DejaVuSans-2e" d="M 684 794 
L 1344 794 
L 1344 0 
L 684 0 
L 684 794 
z
" transform="scale(0.015625)"/>
       </defs>
       <use xlink:href="#DejaVuSans-30"/>
       <use xlink:href="#DejaVuSans-2e" x="63.623047"/>
       <use xlink:href="#DejaVuSans-30" x="95.410156"/>
      </g>
     </g>
    </g>
    <g id="ytick_2">
     <g id="line2d_23">
      <path d="M 57.6 244.6848 
L 360.8064 244.6848 
" clip-path="url(#p5518c22ebe)" style="fill: none; stroke: #b0b0b0; stroke-width: 0.8; stroke-linecap: square"/>
     </g>
     <g id="line2d_24">
      <g>
       <use xlink:href="#me33597e62b" x="57.6" y="244.6848" style="stroke: #000000; stroke-width: 0.8"/>
      </g>
     </g>
     <g id="text_7">
      <!-- 0.2 -->
      <g transform="translate(25.155 250.76355)scale(0.16 -0.16)">
       <use xlink:href="#DejaVuSans-30"/>
       <use xlink:href="#DejaVuSans-2e" x="63.623047"/>
       <use xlink:href="#DejaVuSans-32" x="95.410156"/>
      </g>
     </g>
    </g>
    <g id="ytick_3">
     <g id="line2d_25">
      <path d="M 57.6 190.4256 
L 360.8064 190.4256 
" clip-path="url(#p5518c22ebe)" style="fill: none; stroke: #b0b0b0; stroke-width: 0.8; stroke-linecap: square"/>
     </g>
     <g id="line2d_26">
      <g>
       <use xlink:href="#me33597e62b" x="57.6" y="190.4256" style="stroke: #000000; stroke-width: 0.8"/>
      </g>
     </g>
     <g id="text_8">
      <!-- 0.4 -->
      <g transform="translate(25.155 196.50435)scale(0.16 -0.16)">
       <use xlink:href="#DejaVuSans-30"/>
       <use xlink:href="#DejaVuSans-2e" x="63.623047"/>
       <use xlink:href="#DejaVuSans-34" x="95.410156"/>
      </g>
     </g>
    </g>
    <g id="ytick_4">
     <g id="line2d_27">
      <path d="M 57.6 136.1664 
L 360.8064 136.1664 
" clip-path="url(#p5518c22ebe)" style="fill: none; stroke: #b0b0b0; stroke-width: 0.8; stroke-linecap: square"/>
     </g>
     <g id="line2d_28">
      <g>
       <use xlink:href="#me33597e62b" x="57.6" y="136.1664" style="stroke: #000000; stroke-width: 0.8"/>
      </g>
     </g>
     <g id="text_9">
      <!-- 0.6 -->
      <g transform="translate(25.155 142.24515)scale(0.16 -0.16)">
       <use xlink:href="#DejaVuSans-30"/>
       <use xlink:href="#DejaVuSans-2e" x="63.623047"/>
       <use xlink:href="#DejaVuSans-36" x="95.410156"/>
      </g>
     </g>
    </g>
    <g id="ytick_5">
     <g id="line2d_29">
      <path d="M 57.6 81.9072 
L 360.8064 81.9072 
" clip-path="url(#p5518c22ebe)" style="fill: none; stroke: #b0b0b0; stroke-width: 0.8; stroke-linecap: square"/>
     </g>
     <g id="line2d_30">
      <g>
       <use xlink:href="#me33597e62b" x="57.6" y="81.9072" style="stroke: #000000; stroke-width: 0.8"/>
      </g>
     </g>
     <g id="text_10">
      <!-- 0.8 -->
      <g transform="translate(25.155 87.98595)scale(0.16 -0.16)">
       <defs>
        <path id="DejaVuSans-38" d="M 2034 2216 
Q 1584 2216 1326 1975 
Q 1069 1734 1069 1313 
Q 1069 891 1326 650 
Q 1584 409 2034 409 
Q 2484 409 2743 651 
Q 3003 894 3003 1313 
Q 3003 1734 2745 1975 
Q 2488 2216 2034 2216 
z
M 1403 2484 
Q 997 2584 770 2862 
Q 544 3141 544 3541 
Q 544 4100 942 4425 
Q 1341 4750 2034 4750 
Q 2731 4750 3128 4425 
Q 3525 4100 3525 3541 
Q 3525 3141 3298 2862 
Q 3072 2584 2669 2484 
Q 3125 2378 3379 2068 
Q 3634 1759 3634 1313 
Q 3634 634 3220 271 
Q 2806 -91 2034 -91 
Q 1263 -91 848 271 
Q 434 634 434 1313 
Q 434 1759 690 2068 
Q 947 2378 1403 2484 
z
M 1172 3481 
Q 1172 3119 1398 2916 
Q 1625 2713 2034 2713 
Q 2441 2713 2670 2916 
Q 2900 3119 2900 3481 
Q 2900 3844 2670 4047 
Q 2441 4250 2034 4250 
Q 1625 4250 1398 4047 
Q 1172 3844 1172 3481 
z
" transform="scale(0.015625)"/>
       </defs>
       <use xlink:href="#DejaVuSans-30"/>
       <use xlink:href="#DejaVuSans-2e" x="63.623047"/>
       <use xlink:href="#DejaVuSans-38" x="95.410156"/>
      </g>
     </g>
    </g>
    <g id="ytick_6">
     <g id="line2d_31">
      <path d="M 57.6 27.648 
L 360.8064 27.648 
" clip-path="url(#p5518c22ebe)" style="fill: none; stroke: #b0b0b0; stroke-width: 0.8; stroke-linecap: square"/>
     </g>
     <g id="line2d_32">
      <g>
       <use xlink:href="#me33597e62b" x="57.6" y="27.648" style="stroke: #000000; stroke-width: 0.8"/>
      </g>
     </g>
     <g id="text_11">
      <!-- 1.0 -->
      <g transform="translate(25.155 33.72675)scale(0.16 -0.16)">
       <use xlink:href="#DejaVuSans-31"/>
       <use xlink:href="#DejaVuSans-2e" x="63.623047"/>
       <use xlink:href="#DejaVuSans-30" x="95.410156"/>
      </g>
     </g>
    </g>
    <g id="text_12">
     <!-- Fraction of function,target pairs -->
     <g transform="translate(17.619531 297.681)rotate(-90)scale(0.17 -0.17)">
      <defs>
       <path id="DejaVuSans-46" d="M 628 4666 
L 3309 4666 
L 3309 4134 
L 1259 4134 
L 1259 2759 
L 3109 2759 
L 3109 2228 
L 1259 2228 
L 1259 0 
L 628 0 
L 628 4666 
z
" transform="scale(0.015625)"/>
       <path id="DejaVuSans-72" d="M 2631 2963 
Q 2534 3019 2420 3045 
Q 2306 3072 2169 3072 
Q 1681 3072 1420 2755 
Q 1159 2438 1159 1844 
L 1159 0 
L 581 0 
L 581 3500 
L 1159 3500 
L 1159 2956 
Q 1341 3275 1631 3429 
Q 1922 3584 2338 3584 
Q 2397 3584 2469 3576 
Q 2541 3569 2628 3553 
L 2631 2963 
z
" transform="scale(0.015625)"/>
       <path id="DejaVuSans-63" d="M 3122 3366 
L 3122 2828 
Q 2878 2963 2633 3030 
Q 2388 3097 2138 3097 
Q 1578 3097 1268 2742 
Q 959 2388 959 1747 
Q 959 1106 1268 751 
Q 1578 397 2138 397 
Q 2388 397 2633 464 
Q 2878 531 3122 666 
L 3122 134 
Q 2881 22 2623 -34 
Q 2366 -91 2075 -91 
Q 1284 -91 818 406 
Q 353 903 353 1747 
Q 353 2603 823 3093 
Q 1294 3584 2113 3584 
Q 2378 3584 2631 3529 
Q 2884 3475 3122 3366 
z
" transform="scale(0.015625)"/>
       <path id="DejaVuSans-74" d="M 1172 4494 
L 1172 3500 
L 2356 3500 
L 2356 3053 
L 1172 3053 
L 1172 1153 
Q 1172 725 1289 603 
Q 1406 481 1766 481 
L 2356 481 
L 2356 0 
L 1766 0 
Q 1100 0 847 248 
Q 594 497 594 1153 
L 594 3053 
L 172 3053 
L 172 3500 
L 594 3500 
L 594 4494 
L 1172 4494 
z
" transform="scale(0.015625)"/>
       <path id="DejaVuSans-75" d="M 544 1381 
L 544 3500 
L 1119 3500 
L 1119 1403 
Q 1119 906 1312 657 
Q 1506 409 1894 409 
Q 2359 409 2629 706 
Q 2900 1003 2900 1516 
L 2900 3500 
L 3475 3500 
L 3475 0 
L 2900 0 
L 2900 538 
Q 2691 219 2414 64 
Q 2138 -91 1772 -91 
Q 1169 -91 856 284 
Q 544 659 544 1381 
z
M 1991 3584 
L 1991 3584 
z
" transform="scale(0.015625)"/>
       <path id="DejaVuSans-2c" d="M 750 794 
L 1409 794 
L 1409 256 
L 897 -744 
L 494 -744 
L 750 256 
L 750 794 
z
" transform="scale(0.015625)"/>
       <path id="DejaVuSans-70" d="M 1159 525 
L 1159 -1331 
L 581 -1331 
L 581 3500 
L 1159 3500 
L 1159 2969 
Q 1341 3281 1617 3432 
Q 1894 3584 2278 3584 
Q 2916 3584 3314 3078 
Q 3713 2572 3713 1747 
Q 3713 922 3314 415 
Q 2916 -91 2278 -91 
Q 1894 -91 1617 61 
Q 1341 213 1159 525 
z
M 3116 1747 
Q 3116 2381 2855 2742 
Q 2594 3103 2138 3103 
Q 1681 3103 1420 2742 
Q 1159 2381 1159 1747 
Q 1159 1113 1420 752 
Q 1681 391 2138 391 
Q 2594 391 2855 752 
Q 3116 1113 3116 1747 
z
" transform="scale(0.015625)"/>
      </defs>
      <use xlink:href="#DejaVuSans-46"/>
      <use xlink:href="#DejaVuSans-72" x="50.269531"/>
      <use xlink:href="#DejaVuSans-61" x="91.382812"/>
      <use xlink:href="#DejaVuSans-63" x="152.662109"/>
      <use xlink:href="#DejaVuSans-74" x="207.642578"/>
      <use xlink:href="#DejaVuSans-69" x="246.851562"/>
      <use xlink:href="#DejaVuSans-6f" x="274.634766"/>
      <use xlink:href="#DejaVuSans-6e" x="335.816406"/>
      <use xlink:href="#DejaVuSans-20" x="399.195312"/>
      <use xlink:href="#DejaVuSans-6f" x="430.982422"/>
      <use xlink:href="#DejaVuSans-66" x="492.164062"/>
      <use xlink:href="#DejaVuSans-20" x="527.369141"/>
      <use xlink:href="#DejaVuSans-66" x="559.15625"/>
      <use xlink:href="#DejaVuSans-75" x="594.361328"/>
      <use xlink:href="#DejaVuSans-6e" x="657.740234"/>
      <use xlink:href="#DejaVuSans-63" x="721.119141"/>
      <use xlink:href="#DejaVuSans-74" x="776.099609"/>
      <use xlink:href="#DejaVuSans-69" x="815.308594"/>
      <use xlink:href="#DejaVuSans-6f" x="843.091797"/>
      <use xlink:href="#DejaVuSans-6e" x="904.273438"/>
      <use xlink:href="#DejaVuSans-2c" x="967.652344"/>
      <use xlink:href="#DejaVuSans-74" x="999.439453"/>
      <use xlink:href="#DejaVuSans-61" x="1038.648438"/>
      <use xlink:href="#DejaVuSans-72" x="1099.927734"/>
      <use xlink:href="#DejaVuSans-67" x="1139.291016"/>
      <use xlink:href="#DejaVuSans-65" x="1202.767578"/>
      <use xlink:href="#DejaVuSans-74" x="1264.291016"/>
      <use xlink:href="#DejaVuSans-20" x="1303.5"/>
      <use xlink:href="#DejaVuSans-70" x="1335.287109"/>
      <use xlink:href="#DejaVuSans-61" x="1398.763672"/>
      <use xlink:href="#DejaVuSans-69" x="1460.042969"/>
      <use xlink:href="#DejaVuSans-72" x="1487.826172"/>
      <use xlink:href="#DejaVuSans-73" x="1528.939453"/>
     </g>
    </g>
   </g>
   <g id="line2d_33">
    <defs>
     <path id="m67579991fb" d="M 0 1.5 
C 0.397805 1.5 0.77937 1.341951 1.06066 1.06066 
C 1.341951 0.77937 1.5 0.397805 1.5 0 
C 1.5 -0.397805 1.341951 -0.77937 1.06066 -1.06066 
C 0.77937 -1.341951 0.397805 -1.5 0 -1.5 
C -0.397805 -1.5 -0.77937 -1.341951 -1.06066 -1.06066 
C -1.341951 -0.77937 -1.5 -0.397805 -1.5 0 
C -1.5 0.397805 -1.341951 0.77937 -1.06066 1.06066 
C -0.77937 1.341951 -0.397805 1.5 0 1.5 
z
" style="stroke: #f5deb3"/>
    </defs>
    <g>
     <use xlink:href="#m67579991fb" x="234.848881" y="27.648" style="fill: #f5deb3; stroke: #f5deb3"/>
     <use xlink:href="#m67579991fb" x="234.848881" y="27.648" style="fill: #f5deb3; stroke: #f5deb3"/>
    </g>
   </g>
   <g id="line2d_34">
    <defs>
     <path id="m58153b0ccd" d="M 0 1.5 
C 0.397805 1.5 0.77937 1.341951 1.06066 1.06066 
C 1.341951 0.77937 1.5 0.397805 1.5 0 
C 1.5 -0.397805 1.341951 -0.77937 1.06066 -1.06066 
C 0.77937 -1.341951 0.397805 -1.5 0 -1.5 
C -0.397805 -1.5 -0.77937 -1.341951 -1.06066 -1.06066 
C -1.341951 -0.77937 -1.5 -0.397805 -1.5 0 
C -1.5 0.397805 -1.341951 0.77937 -1.06066 1.06066 
C -0.77937 1.341951 -0.397805 1.5 0 1.5 
z
" style="stroke: #000080"/>
    </defs>
    <g>
     <use xlink:href="#m58153b0ccd" x="362.975745" y="27.648" style="fill: #000080; stroke: #000080"/>
     <use xlink:href="#m58153b0ccd" x="362.975745" y="27.648" style="fill: #000080; stroke: #000080"/>
    </g>
   </g>
   <g id="line2d_35">
    <path d="M 44.560826 298.944 
L 44.560826 285.113224 
L 57.6 285.113224 
L 57.6 281.921506 
L 65.227428 281.921506 
L 65.227428 279.084424 
L 70.639174 279.084424 
L 70.639174 277.311247 
L 74.836851 277.311247 
L 74.836851 276.956612 
L 78.266603 276.956612 
L 78.266603 275.892706 
L 81.166416 275.892706 
L 81.166416 275.538071 
L 83.678349 275.538071 
L 83.678349 274.8288 
L 85.894031 274.8288 
L 85.894031 273.764894 
L 87.876026 273.764894 
L 87.876026 273.055624 
L 89.668958 273.055624 
L 89.668958 272.700988 
L 100.9152 272.700988 
L 100.9152 272.346353 
L 101.833019 272.346353 
L 101.833019 270.927812 
L 104.344952 270.927812 
L 104.344952 269.863906 
L 105.112877 269.863906 
L 105.112877 268.8 
L 106.560633 268.8 
L 106.560633 268.090729 
L 107.904887 268.090729 
L 107.904887 267.736094 
L 110.335561 267.736094 
L 110.335561 267.381459 
L 113.478107 267.381459 
L 113.478107 267.026824 
L 113.954374 267.026824 
L 113.954374 266.317553 
L 118.524569 266.317553 
L 118.524569 265.962918 
L 119.24818 265.962918 
L 119.24818 264.899012 
L 120.28394 264.899012 
L 120.28394 264.544376 
L 125.526971 264.544376 
L 125.526971 263.835106 
L 126.756923 263.835106 
L 126.756923 263.480471 
L 127.458055 263.480471 
L 127.458055 262.416565 
L 128.133992 262.416565 
L 128.133992 262.061929 
L 128.999044 262.061929 
L 128.999044 261.352659 
L 131.378407 261.352659 
L 131.378407 260.998024 
L 134.463557 260.998024 
L 134.463557 260.643388 
L 135.981441 260.643388 
L 135.981441 259.934118 
L 136.836659 259.934118 
L 136.836659 259.579482 
L 140.26641 259.579482 
L 140.26641 259.224847 
L 145.590864 259.224847 
L 145.590864 258.870212 
L 147.893838 258.870212 
L 147.893838 258.515576 
L 149.595059 258.515576 
L 149.595059 258.160941 
L 154.595705 258.160941 
L 154.595705 256.387765 
L 155.13016 256.387765 
L 155.13016 256.033129 
L 159.816746 256.033129 
L 159.816746 255.678494 
L 160.223059 255.678494 
L 160.223059 255.323859 
L 165.604634 255.323859 
L 165.604634 254.969224 
L 165.993131 254.969224 
L 165.993131 254.614588 
L 167.361848 254.614588 
L 167.361848 254.259953 
L 168.765753 254.259953 
L 168.765753 253.905318 
L 170.37916 253.905318 
L 170.37916 253.550682 
L 170.978599 253.550682 
L 170.978599 253.196047 
L 171.338209 253.196047 
L 171.404878 252.132141 
L 171.756506 252.132141 
L 171.756506 251.777506 
L 172.208263 251.777506 
L 172.293095 251.068235 
L 174.600249 251.068235 
L 174.600249 250.7136 
L 177.086427 250.7136 
L 177.086427 250.358965 
L 180.674054 250.358965 
L 180.674054 250.004329 
L 182.133854 250.004329 
L 182.133854 249.295059 
L 183.158861 249.295059 
L 183.158861 248.940424 
L 185.73008 248.940424 
L 185.73008 248.585788 
L 186.139934 248.585788 
L 186.139934 247.876518 
L 186.251096 247.876518 
L 186.251096 247.521882 
L 188.265306 247.521882 
L 188.265306 246.812612 
L 190.667153 246.812612 
L 190.667153 246.457976 
L 192.14528 246.457976 
L 192.14528 246.103341 
L 205.19918 246.103341 
L 205.19918 245.394071 
L 209.076197 245.394071 
L 209.076197 245.039435 
L 215.331179 245.039435 
L 215.331179 244.6848 
L 215.559563 244.6848 
L 215.559563 244.330165 
L 217.161167 244.330165 
L 217.174801 243.620894 
L 217.672424 243.620894 
L 217.672424 243.266259 
L 226.939726 243.266259 
L 226.939726 242.911624 
L 228.764544 242.911624 
L 228.764544 242.556988 
L 229.274874 242.556988 
L 229.289195 241.493082 
L 230.614646 241.493082 
L 230.614646 240.783812 
L 231.458807 240.783812 
L 231.458807 240.429176 
L 233.03128 240.429176 
L 233.063937 238.656 
L 234.462205 238.656 
L 234.462205 238.301365 
L 235.267251 238.301365 
L 235.267251 237.946729 
L 237.098097 237.946729 
L 237.098097 237.592094 
L 238.217281 237.592094 
L 238.217281 237.237459 
L 238.778805 237.237459 
L 238.794852 236.528188 
L 239.509078 236.528188 
L 239.509078 236.173553 
L 242.426786 236.173553 
L 242.427803 235.109647 
L 242.682393 235.109647 
L 242.688914 233.691106 
L 242.957332 233.691106 
L 242.957332 233.336471 
L 243.22636 233.336471 
L 243.25899 231.563294 
L 243.346857 231.563294 
L 243.438654 229.790118 
L 243.539116 229.790118 
L 243.55445 229.080847 
L 243.653821 229.080847 
L 243.653821 228.726212 
L 245.54224 228.726212 
L 245.593026 228.016941 
L 245.865267 228.016941 
L 245.967087 224.825224 
L 246.757145 224.825224 
L 246.769262 223.761318 
L 268.198766 223.761318 
L 268.198766 223.406682 
L 268.40838 223.406682 
L 268.40838 223.052047 
L 268.529659 223.052047 
L 268.529659 222.697412 
L 274.20861 222.697412 
L 274.31656 219.151059 
L 274.346038 219.151059 
L 274.349766 217.377882 
L 274.650781 217.377882 
L 274.650781 217.023247 
L 275.787728 217.023247 
L 275.830157 216.313976 
L 276.179635 216.313976 
L 276.180226 214.895435 
L 276.326355 214.895435 
L 276.326355 214.5408 
L 276.770019 214.5408 
L 276.845418 213.831529 
L 276.941477 213.831529 
L 276.941477 213.476894 
L 277.368093 213.476894 
L 277.451888 211.703718 
L 277.499007 211.703718 
L 277.564949 207.448094 
L 277.898721 207.448094 
L 277.966432 201.773929 
L 278.113109 201.773929 
L 278.115397 200.355388 
L 287.231486 200.355388 
L 287.302773 198.936847 
L 287.454063 198.936847 
L 287.454063 198.227576 
L 287.622701 198.227576 
L 287.622701 197.872941 
L 288.060429 197.872941 
L 288.161905 197.163671 
L 288.243655 197.163671 
L 288.321061 195.390494 
L 288.556861 195.390494 
L 288.596058 194.681224 
L 288.878847 194.681224 
L 288.976957 187.943153 
L 289.168474 187.943153 
L 289.205698 184.751435 
L 289.286542 184.751435 
L 289.286542 182.978259 
L 294.853479 182.978259 
L 294.900703 181.914353 
L 295.143118 181.914353 
L 295.143118 181.559718 
L 295.344908 181.559718 
L 295.344908 181.205082 
L 295.534647 181.205082 
L 295.534647 180.850447 
L 295.696503 180.850447 
L 295.775136 179.786541 
L 295.982839 179.786541 
L 296.041382 176.240188 
L 296.163623 176.240188 
L 296.249411 170.211388 
L 298.928533 170.211388 
L 298.993594 169.502118 
L 300.274654 169.502118 
L 300.374172 167.728941 
L 300.40149 167.728941 
L 300.40149 167.374306 
L 300.682045 167.374306 
L 300.682045 166.665035 
L 300.937151 166.665035 
L 300.958047 165.955765 
L 301.104571 165.955765 
L 301.160519 159.217694 
L 301.270559 159.217694 
L 301.319195 156.380612 
L 303.431374 156.380612 
L 303.450272 155.316706 
L 304.458552 155.316706 
L 304.486907 154.2528 
L 304.902211 154.2528 
L 305.000236 153.543529 
L 305.0166 153.543529 
L 305.0166 153.188894 
L 305.13525 153.188894 
L 305.176655 148.578635 
L 305.255716 148.578635 
L 305.30867 145.386918 
L 307.008362 145.386918 
L 307.008362 145.032282 
L 307.887216 145.032282 
L 307.911022 143.968376 
L 308.188709 143.968376 
L 308.257676 143.259106 
L 308.353822 143.259106 
L 308.460731 141.131294 
L 308.477247 141.131294 
L 308.568955 134.038588 
L 310.071537 134.038588 
L 310.071537 133.683953 
L 310.914427 133.683953 
L 310.914427 133.329318 
L 311.044981 133.329318 
L 311.044981 132.974682 
L 311.174793 132.974682 
L 311.27892 131.201506 
L 311.29378 131.201506 
L 311.397434 126.236612 
L 313.556033 126.236612 
L 313.648663 125.172706 
L 313.723438 125.172706 
L 313.811246 119.498541 
L 315.742737 119.498541 
L 315.824947 118.08 
L 315.897014 118.08 
L 315.970102 113.824376 
L 317.835914 113.824376 
L 317.924122 110.278024 
L 319.597768 110.278024 
L 319.662065 105.667765 
L 320.502389 105.667765 
L 320.502389 105.313129 
L 320.93558 105.313129 
L 320.93558 104.958494 
L 321.096364 104.958494 
L 321.096364 104.603859 
L 321.20865 104.603859 
L 321.282639 99.284329 
L 322.645833 99.284329 
L 322.74696 95.383341 
L 323.971225 95.383341 
L 324.080644 93.610165 
L 324.084155 93.610165 
L 324.118349 91.127718 
L 325.349138 91.127718 
L 325.396519 88.999906 
L 326.464416 88.999906 
L 326.559654 85.453553 
L 326.587559 85.453553 
L 326.60444 84.389647 
L 327.640958 84.389647 
L 327.729006 80.134024 
L 328.743351 80.134024 
L 328.780239 77.651576 
L 329.715818 77.651576 
L 329.784016 74.105224 
L 330.705879 74.105224 
L 330.748081 71.268141 
L 331.584161 71.268141 
L 331.647105 69.8496 
L 332.100274 69.8496 
L 332.100274 69.494965 
L 332.453115 69.494965 
L 332.489099 67.367153 
L 333.31668 67.367153 
L 333.341212 65.239341 
L 334.104525 65.239341 
L 334.134288 63.111529 
L 334.868634 63.111529 
L 334.895278 59.919812 
L 335.599184 59.919812 
L 335.605843 58.855906 
L 336.310005 58.855906 
L 336.327661 57.792 
L 336.962094 57.792 
L 336.991402 54.954918 
L 337.641316 54.954918 
L 337.664311 52.472471 
L 338.278567 52.472471 
L 338.297261 51.408565 
L 338.866923 51.408565 
L 338.90888 48.926118 
L 339.481792 48.926118 
L 339.501941 47.862212 
L 340.060414 47.862212 
L 340.077558 45.7344 
L 341.158139 45.7344 
L 341.177215 43.961224 
L 341.688117 43.961224 
L 341.701559 42.897318 
L 342.200993 42.897318 
L 342.201727 41.833412 
L 342.695971 41.833412 
L 342.712374 40.769506 
L 343.187758 40.769506 
L 343.200649 39.7056 
L 343.657536 39.7056 
L 343.67424 38.996329 
L 344.103879 38.996329 
L 344.119872 38.287059 
L 344.571174 38.287059 
L 344.587086 37.223153 
L 344.996538 37.223153 
L 344.996538 36.868518 
L 345.446245 36.868518 
L 345.457166 36.159247 
L 345.863435 36.159247 
L 345.878318 34.740706 
L 346.274165 34.740706 
L 346.289756 33.322165 
L 346.691908 33.322165 
L 346.691908 32.967529 
L 347.84015 32.967529 
L 347.851025 32.258259 
L 348.212033 32.258259 
L 348.221903 31.548988 
L 348.571812 31.548988 
L 348.575153 30.839718 
L 349.282514 30.839718 
L 349.282704 30.130447 
L 350.297105 30.130447 
L 350.297105 29.775812 
L 351.565662 29.775812 
L 351.565662 29.421176 
L 351.881414 29.421176 
L 351.881414 29.066541 
L 352.468043 29.066541 
L 352.468043 28.711906 
L 353.045794 28.711906 
L 353.045794 28.357271 
L 355.450561 28.357271 
L 355.450561 28.002635 
L 360.8064 28.002635 
L 360.8064 28.002635 
" style="fill: none; stroke: #000080; stroke-width: 1.5; stroke-linecap: square"/>
   </g>
   <g id="line2d_36">
    <defs>
     <path id="mb6cf027027" d="M 0 6 
C 1.591219 6 3.117479 5.367802 4.242641 4.242641 
C 5.367802 3.117479 6 1.591219 6 0 
C 6 -1.591219 5.367802 -3.117479 4.242641 -4.242641 
C 3.117479 -5.367802 1.591219 -6 0 -6 
C -1.591219 -6 -3.117479 -5.367802 -4.242641 -4.242641 
C -5.367802 -3.117479 -6 -1.591219 -6 0 
C -6 1.591219 -5.367802 3.117479 -4.242641 4.242641 
C -3.117479 5.367802 -1.591219 6 0 6 
z
" style="stroke: #000080; stroke-width: 1.5"/>
    </defs>
    <g>
     <use xlink:href="#mb6cf027027" x="113.954374" y="266.317553" style="fill-opacity: 0; stroke: #000080; stroke-width: 1.5"/>
     <use xlink:href="#mb6cf027027" x="229.289195" y="241.493082" style="fill-opacity: 0; stroke: #000080; stroke-width: 1.5"/>
     <use xlink:href="#mb6cf027027" x="278.115397" y="200.355388" style="fill-opacity: 0; stroke: #000080; stroke-width: 1.5"/>
     <use xlink:href="#mb6cf027027" x="329.784016" y="74.105224" style="fill-opacity: 0; stroke: #000080; stroke-width: 1.5"/>
     <use xlink:href="#mb6cf027027" x="355.450561" y="28.002635" style="fill-opacity: 0; stroke: #000080; stroke-width: 1.5"/>
     <use xlink:href="#mb6cf027027" x="360.8064" y="28.002635" style="fill-opacity: 0; stroke: #000080; stroke-width: 1.5"/>
    </g>
   </g>
   <g id="line2d_37">
    <path style="fill: none; stroke: #000080; stroke-width: 1.5; stroke-linecap: square"/>
    <g/>
   </g>
   <g id="line2d_38">
    <path d="M 274.176 222.697412 
" clip-path="url(#p5518c22ebe)" style="fill: none; stroke: #000080; stroke-width: 1.5; stroke-linecap: square"/>
    <defs>
     <path id="m34d408f545" d="M -12 12 
L 12 -12 
M -12 -12 
L 12 12 
" style="stroke: #000080"/>
    </defs>
    <g clip-path="url(#p5518c22ebe)">
     <use xlink:href="#m34d408f545" x="274.176" y="222.697412" style="fill: #000080; stroke: #000080"/>
    </g>
   </g>
   <g id="line2d_39">
    <defs>
     <path id="mc8e996399f" d="M 0 1.5 
C 0.397805 1.5 0.77937 1.341951 1.06066 1.06066 
C 1.341951 0.77937 1.5 0.397805 1.5 0 
C 1.5 -0.397805 1.341951 -0.77937 1.06066 -1.06066 
C 0.77937 -1.341951 0.397805 -1.5 0 -1.5 
C -0.397805 -1.5 -0.77937 -1.341951 -1.06066 -1.06066 
C -1.341951 -0.77937 -1.5 -0.397805 -1.5 0 
C -1.5 0.397805 -1.341951 0.77937 -1.06066 1.06066 
C -0.77937 1.341951 -0.397805 1.5 0 1.5 
z
" style="stroke: #ff00ff"/>
    </defs>
    <g>
     <use xlink:href="#mc8e996399f" x="319.041626" y="27.648" style="fill: #ff00ff; stroke: #ff00ff"/>
     <use xlink:href="#mc8e996399f" x="319.041626" y="27.648" style="fill: #ff00ff; stroke: #ff00ff"/>
    </g>
   </g>
   <g id="line2d_40">
    <path d="M 44.560826 298.944 
L 44.560826 287.595671 
L 127.686077 287.595671 
L 127.686077 285.467859 
L 128.786481 285.467859 
L 128.786481 283.694682 
L 129.209231 283.694682 
L 129.209231 281.921506 
L 129.417095 281.921506 
L 129.417095 280.502965 
L 129.622688 280.502965 
L 129.622688 278.729788 
L 130.027253 278.729788 
L 130.027253 274.119529 
L 130.618241 274.119529 
L 130.618241 272.346353 
L 131.191226 272.346353 
L 131.191226 262.7712 
L 142.966099 262.7712 
L 142.966099 260.643388 
L 143.462475 260.643388 
L 143.462475 258.870212 
L 144.041338 258.870212 
L 144.041338 256.7424 
L 144.2304 256.7424 
L 144.2304 256.033129 
L 151.220087 256.033129 
L 151.220087 255.678494 
L 155.752086 255.678494 
L 155.752086 255.323859 
L 168.637696 255.323859 
L 168.637696 254.969224 
L 182.133854 254.969224 
L 182.133854 253.905318 
L 188.463419 253.905318 
L 188.463419 253.550682 
L 189.244239 253.550682 
L 189.244239 253.196047 
L 190.426593 253.196047 
L 190.426593 252.841412 
L 193.875165 252.841412 
L 193.875165 251.422871 
L 198.072842 251.422871 
L 198.072842 248.940424 
L 199.118197 248.940424 
L 199.118197 248.585788 
L 201.049281 248.585788 
L 201.049281 247.521882 
L 201.945238 247.521882 
L 201.945238 247.167247 
L 203.618479 247.167247 
L 203.618479 246.457976 
L 203.849201 246.457976 
L 203.849201 245.394071 
L 204.014526 245.394071 
L 204.014526 244.6848 
L 204.209466 244.6848 
L 204.209466 244.330165 
L 204.402407 244.330165 
L 204.402407 243.975529 
L 205.693102 243.975529 
L 205.693102 243.620894 
L 206.715095 243.620894 
L 206.745625 242.911624 
L 207.051565 242.911624 
L 207.051565 242.556988 
L 207.319762 242.556988 
L 207.319762 242.202353 
L 209.079191 242.202353 
L 209.079191 241.847718 
L 210.402786 241.847718 
L 210.402786 241.138447 
L 210.87675 241.138447 
L 210.87675 240.783812 
L 211.197816 240.783812 
L 211.197816 240.429176 
L 212.449968 240.429176 
L 212.449968 240.074541 
L 212.616917 240.074541 
L 212.616917 239.719906 
L 217.847943 239.719906 
L 217.847943 239.365271 
L 219.4134 239.365271 
L 219.4134 238.656 
L 219.808511 238.656 
L 219.808511 236.882824 
L 220.309558 236.882824 
L 220.309558 235.109647 
L 220.440947 235.109647 
L 220.440947 234.755012 
L 220.680008 234.755012 
L 220.680008 234.400376 
L 221.930301 234.400376 
L 221.993701 233.691106 
L 222.190086 233.691106 
L 222.190086 232.981835 
L 223.206075 232.981835 
L 223.206075 231.917929 
L 223.384665 231.917929 
L 223.384665 231.563294 
L 223.597589 231.563294 
L 223.597589 230.144753 
L 224.30375 230.144753 
L 224.30375 227.307671 
L 224.52766 227.307671 
L 224.542142 226.5984 
L 224.829467 226.5984 
L 224.829467 225.889129 
L 224.958632 225.889129 
L 224.958632 225.179859 
L 225.566572 225.179859 
L 225.566572 224.825224 
L 226.17962 224.825224 
L 226.17962 224.470588 
L 226.758117 224.470588 
L 226.758117 224.115953 
L 228.449642 224.115953 
L 228.556259 223.052047 
L 229.286127 223.052047 
L 229.286127 222.697412 
L 229.889952 222.697412 
L 229.889952 221.278871 
L 230.184748 221.278871 
L 230.184748 220.5696 
L 230.378744 220.5696 
L 230.415378 219.505694 
L 230.760834 219.505694 
L 230.760834 218.441788 
L 232.161673 218.441788 
L 232.161673 218.087153 
L 234.315617 218.087153 
L 234.315617 217.732518 
L 236.011377 217.732518 
L 236.011377 216.668612 
L 236.575083 216.668612 
L 236.575083 213.476894 
L 244.936112 213.476894 
L 244.936112 213.122259 
L 245.646676 213.122259 
L 245.646676 212.767624 
L 248.235597 212.767624 
L 248.235597 212.058353 
L 248.968113 212.058353 
L 248.968113 211.703718 
L 249.707739 211.703718 
L 249.742244 210.994447 
L 249.913827 210.994447 
L 249.913827 210.639812 
L 250.082844 210.639812 
L 250.151444 209.930541 
L 250.385098 209.930541 
L 250.385098 208.866635 
L 250.617859 208.866635 
L 250.715336 207.093459 
L 250.780694 207.093459 
L 250.781672 206.029553 
L 250.911704 206.029553 
L 250.911704 205.320282 
L 251.26377 205.320282 
L 251.26377 204.965647 
L 251.422077 204.965647 
L 251.422077 204.611012 
L 252.072793 204.611012 
L 252.133608 203.901741 
L 252.194227 203.901741 
L 252.194227 203.192471 
L 252.344925 203.192471 
L 252.344925 201.773929 
L 252.553894 201.773929 
L 252.648951 200.355388 
L 252.731182 200.355388 
L 252.737357 198.227576 
L 253.344831 198.227576 
L 253.401676 197.163671 
L 253.458349 197.163671 
L 253.458349 196.4544 
L 253.59929 196.4544 
L 253.59929 196.099765 
L 253.822621 196.099765 
L 253.9333 193.971953 
L 253.988397 193.971953 
L 253.988397 193.617318 
L 254.130897 193.617318 
L 254.158177 192.553412 
L 254.663822 192.553412 
L 254.663822 190.4256 
L 254.796045 190.4256 
L 254.801315 189.716329 
L 255.010899 189.716329 
L 255.036934 188.652424 
L 255.166569 188.652424 
L 255.166569 187.943153 
L 261.156004 187.943153 
L 261.170844 186.879247 
L 261.431354 186.879247 
L 261.434132 185.460706 
L 261.664908 185.460706 
L 261.666006 184.751435 
L 261.784333 184.751435 
L 261.89343 182.978259 
L 261.938371 182.978259 
L 262.035465 181.559718 
L 263.093389 181.559718 
L 263.185727 178.368 
L 263.212363 178.368 
L 263.212363 178.013365 
L 263.345985 178.013365 
L 263.387089 176.949459 
L 263.488793 176.949459 
L 263.54995 174.112376 
L 263.623769 174.112376 
L 263.706656 172.3392 
L 263.794569 172.3392 
L 263.794569 171.984565 
L 263.950554 171.984565 
L 263.950554 171.629929 
L 264.20476 171.629929 
L 264.214505 170.566024 
L 264.420536 170.566024 
L 264.468344 169.502118 
L 264.558267 169.502118 
L 264.558267 169.147482 
L 264.797012 169.147482 
L 264.797012 168.792847 
L 265.196295 168.792847 
L 265.202358 168.083576 
L 265.529281 168.083576 
L 265.540597 167.019671 
L 265.648355 167.019671 
L 265.654718 164.891859 
L 267.770943 164.891859 
L 267.770943 164.537224 
L 268.81335 164.537224 
L 268.816977 163.827953 
L 269.316648 163.827953 
L 269.316891 163.118682 
L 269.450011 163.118682 
L 269.56033 162.054776 
L 269.564417 162.054776 
L 269.648719 160.636235 
L 269.680281 160.636235 
L 269.760856 157.444518 
L 269.88273 157.444518 
L 269.944432 156.735247 
L 270.208178 156.735247 
L 270.294507 154.962071 
L 270.406663 154.962071 
L 270.447761 151.415718 
L 270.731833 151.415718 
L 270.731833 151.061082 
L 270.880908 151.061082 
L 270.945234 148.578635 
L 271.006003 148.578635 
L 271.006003 148.224 
L 271.216994 148.224 
L 271.281719 146.096188 
L 271.37801 146.096188 
L 271.435549 145.386918 
L 274.192641 145.386918 
L 274.192641 144.677647 
L 274.318614 144.677647 
L 274.38496 143.613741 
L 274.451073 143.613741 
L 274.561424 141.840565 
L 274.625818 141.840565 
L 274.632888 140.776659 
L 274.804778 140.776659 
L 274.806597 140.067388 
L 275.103849 140.067388 
L 275.199849 139.358118 
L 275.226464 139.358118 
L 275.334847 136.1664 
L 275.393215 136.1664 
L 275.470552 133.683953 
L 275.506078 133.683953 
L 275.593337 131.556141 
L 275.835841 131.556141 
L 275.916872 129.782965 
L 275.97107 129.782965 
L 275.97107 129.428329 
L 276.098201 129.428329 
L 276.098201 129.073694 
L 276.508784 129.073694 
L 276.577207 127.300518 
L 277.913532 127.300518 
L 277.913532 126.945882 
L 278.407732 126.945882 
L 278.410962 125.881976 
L 278.553108 125.881976 
L 278.557207 125.172706 
L 278.714077 125.172706 
L 278.793717 123.754165 
L 278.85814 123.754165 
L 278.948854 122.690259 
L 278.975327 122.690259 
L 279.059096 121.626353 
L 279.090775 121.626353 
L 279.090775 121.271718 
L 279.309403 121.271718 
L 279.402246 119.498541 
L 279.57902 119.498541 
L 279.677709 115.597553 
L 279.698619 115.597553 
L 279.752331 113.469741 
L 279.886048 113.469741 
L 279.991085 112.405835 
L 280.016201 112.405835 
L 280.021234 111.696565 
L 281.903615 111.696565 
L 281.988498 110.987294 
L 282.027265 110.987294 
L 282.113568 109.214118 
L 282.483139 109.214118 
L 282.51752 106.731671 
L 282.638653 106.731671 
L 282.705355 105.667765 
L 282.759428 105.667765 
L 282.759667 104.958494 
L 282.931946 104.958494 
L 283.018262 102.476047 
L 283.257048 102.476047 
L 283.257048 102.121412 
L 283.438826 102.121412 
L 283.445435 100.702871 
L 284.977759 100.702871 
L 285.058416 98.929694 
L 285.093825 98.929694 
L 285.118814 98.220424 
L 285.345504 98.220424 
L 285.444455 95.028706 
L 285.558148 95.028706 
L 285.6612 92.900894 
L 285.67417 92.900894 
L 285.704006 92.191624 
L 285.797139 92.191624 
L 285.874466 89.354541 
L 287.385818 89.354541 
L 287.417669 87.581365 
L 287.741794 87.581365 
L 287.842179 85.453553 
L 287.853502 85.453553 
L 287.943524 82.616471 
L 288.035323 82.616471 
L 288.10628 81.197929 
L 288.203985 81.197929 
L 288.203985 80.843294 
L 288.449529 80.843294 
L 288.460228 79.779388 
L 289.631029 79.779388 
L 289.735218 77.651576 
L 289.754992 77.651576 
L 289.759101 76.233035 
L 289.919491 76.233035 
L 290.010996 74.814494 
L 290.109478 74.814494 
L 290.213263 73.750588 
L 290.29501 73.750588 
L 290.29501 73.395953 
L 291.418795 73.395953 
L 291.475802 72.686682 
L 291.553561 72.686682 
L 291.601187 71.268141 
L 291.827151 71.268141 
L 291.849551 69.8496 
L 291.94269 69.8496 
L 291.956292 68.785694 
L 292.072423 68.785694 
L 292.148483 67.012518 
L 292.29886 67.012518 
L 292.382411 66.303247 
L 292.417504 66.303247 
L 292.417504 65.948612 
L 293.387952 65.948612 
L 293.473221 64.530071 
L 293.610699 64.530071 
L 293.672759 62.402259 
L 293.786586 62.402259 
L 293.82816 60.983718 
L 293.914886 60.983718 
L 293.978381 58.855906 
L 294.938266 58.855906 
L 295.00226 57.792 
L 295.195838 57.792 
L 295.283051 54.954918 
L 295.33248 54.954918 
L 295.43827 54.245647 
L 295.447533 54.245647 
L 295.447533 53.891012 
L 295.657093 53.891012 
L 295.681516 52.827106 
L 296.367682 52.827106 
L 296.367682 52.472471 
L 296.543991 52.472471 
L 296.618483 51.053929 
L 296.864971 51.053929 
L 296.963711 49.280753 
L 296.987252 49.280753 
L 296.995782 47.862212 
L 297.790244 47.862212 
L 297.843645 46.798306 
L 298.044166 46.798306 
L 298.053367 46.089035 
L 298.157094 46.089035 
L 298.265873 45.025129 
L 298.444163 45.025129 
L 298.46807 42.897318 
L 299.16156 42.897318 
L 299.226939 41.833412 
L 299.364859 41.833412 
L 299.453254 41.124141 
L 299.56774 41.124141 
L 299.601683 40.414871 
L 300.376088 40.414871 
L 300.377723 39.7056 
L 300.690387 39.7056 
L 300.70279 38.996329 
L 300.889175 38.996329 
L 300.889494 38.287059 
L 301.544137 38.287059 
L 301.544137 37.932424 
L 301.753354 37.932424 
L 301.859558 37.223153 
L 302.771883 37.223153 
L 302.88128 35.449976 
L 303.8197 35.449976 
L 303.906365 34.031435 
L 304.813549 34.031435 
L 304.813549 33.6768 
L 305.493059 33.6768 
L 305.493059 33.322165 
L 306.424213 33.322165 
L 306.424213 32.967529 
L 306.591504 32.967529 
L 306.591504 32.612894 
L 307.305689 32.612894 
L 307.305689 32.258259 
L 307.965443 32.258259 
L 307.965443 31.903624 
L 308.110168 31.903624 
L 308.193983 30.839718 
L 310.174206 30.839718 
L 310.174206 30.485082 
L 310.849204 30.485082 
L 310.849204 30.130447 
L 311.112144 30.130447 
L 311.112144 29.775812 
L 311.541486 29.775812 
L 311.541486 29.421176 
L 312.129864 29.421176 
L 312.129864 29.066541 
L 312.314515 29.066541 
L 312.314515 28.711906 
L 315.162169 28.711906 
L 315.162169 28.357271 
L 317.153396 28.357271 
L 317.153396 28.002635 
L 319.041626 28.002635 
L 319.041626 27.648 
L 360.8064 27.648 
L 360.8064 27.648 
" style="fill: none; stroke: #ff00ff; stroke-width: 1.5; stroke-linecap: square"/>
   </g>
   <g id="line2d_41">
    <defs>
     <path id="m6c31efd366" d="M 0 8.485281 
L 5.091169 0 
L 0 -8.485281 
L -5.091169 0 
z
" style="stroke: #ff00ff; stroke-width: 1.5; stroke-linejoin: miter"/>
    </defs>
    <g>
     <use xlink:href="#m6c31efd366" x="155.752086" y="255.678494" style="fill-opacity: 0; stroke: #ff00ff; stroke-width: 1.5; stroke-linejoin: miter"/>
     <use xlink:href="#m6c31efd366" x="252.133608" y="203.901741" style="fill-opacity: 0; stroke: #ff00ff; stroke-width: 1.5; stroke-linejoin: miter"/>
     <use xlink:href="#m6c31efd366" x="285.866738" y="89.709176" style="fill-opacity: 0; stroke: #ff00ff; stroke-width: 1.5; stroke-linejoin: miter"/>
     <use xlink:href="#m6c31efd366" x="319.041626" y="27.648" style="fill-opacity: 0; stroke: #ff00ff; stroke-width: 1.5; stroke-linejoin: miter"/>
     <use xlink:href="#m6c31efd366" x="360.8064" y="27.648" style="fill-opacity: 0; stroke: #ff00ff; stroke-width: 1.5; stroke-linejoin: miter"/>
    </g>
   </g>
   <g id="line2d_42">
    <path style="fill: none; stroke: #ff00ff; stroke-width: 1.5; stroke-linecap: square"/>
    <g/>
   </g>
   <g id="line2d_43">
    <path d="M 261.145665 187.943153 
" clip-path="url(#p5518c22ebe)" style="fill: none; stroke: #ff00ff; stroke-width: 1.5; stroke-linecap: square"/>
    <defs>
     <path id="m7fe4109364" d="M -12 12 
L 12 -12 
M -12 -12 
L 12 12 
" style="stroke: #ff00ff"/>
    </defs>
    <g clip-path="url(#p5518c22ebe)">
     <use xlink:href="#m7fe4109364" x="261.145665" y="187.943153" style="fill: #ff00ff; stroke: #ff00ff"/>
    </g>
   </g>
   <g id="line2d_44">
    <path d="M 360.8064 28.002635 
L 380.514816 293.51808 
" style="fill: none; stroke: #000080; stroke-width: 1.5; stroke-linecap: square"/>
    <g>
     <use xlink:href="#mb6cf027027" x="360.8064" y="28.002635" style="fill-opacity: 0; stroke: #000080; stroke-width: 1.5"/>
     <use xlink:href="#mb6cf027027" x="380.514816" y="293.51808" style="fill-opacity: 0; stroke: #000080; stroke-width: 1.5"/>
    </g>
   </g>
   <g id="line2d_45">
    <path d="M 360.8064 27.648 
L 380.514816 163.296 
" style="fill: none; stroke: #ff00ff; stroke-width: 1.5; stroke-linecap: square"/>
    <g>
     <use xlink:href="#m6c31efd366" x="360.8064" y="27.648" style="fill-opacity: 0; stroke: #ff00ff; stroke-width: 1.5; stroke-linejoin: miter"/>
     <use xlink:href="#m6c31efd366" x="380.514816" y="163.296" style="fill-opacity: 0; stroke: #ff00ff; stroke-width: 1.5; stroke-linejoin: miter"/>
    </g>
   </g>
   <g id="line2d_46">
    <path d="M 360.8064 298.944 
L 360.8064 27.648 
" style="fill: none; stroke: #000000; stroke-width: 1.5; stroke-linecap: square"/>
   </g>
   <g id="patch_3">
    <path d="M 57.6 298.944 
L 360.8064 298.944 
" style="fill: none; stroke: #000000; stroke-width: 0.8; stroke-linejoin: miter; stroke-linecap: square"/>
   </g>
   <g id="patch_4">
    <path d="M 57.6 27.648 
L 360.8064 27.648 
" style="fill: none; stroke: #000000; stroke-width: 0.8; stroke-linejoin: miter; stroke-linecap: square"/>
   </g>
   <g id="text_13">
    <!-- LCGA -->
    <g transform="translate(386.578944 297.381205)scale(0.14 -0.14)">
     <defs>
      <path id="DejaVuSans-4c" d="M 628 4666 
L 1259 4666 
L 1259 531 
L 3531 531 
L 3531 0 
L 628 0 
L 628 4666 
z
" transform="scale(0.015625)"/>
      <path id="DejaVuSans-43" d="M 4122 4306 
L 4122 3641 
Q 3803 3938 3442 4084 
Q 3081 4231 2675 4231 
Q 1875 4231 1450 3742 
Q 1025 3253 1025 2328 
Q 1025 1406 1450 917 
Q 1875 428 2675 428 
Q 3081 428 3442 575 
Q 3803 722 4122 1019 
L 4122 359 
Q 3791 134 3420 21 
Q 3050 -91 2638 -91 
Q 1578 -91 968 557 
Q 359 1206 359 2328 
Q 359 3453 968 4101 
Q 1578 4750 2638 4750 
Q 3056 4750 3426 4639 
Q 3797 4528 4122 4306 
z
" transform="scale(0.015625)"/>
      <path id="DejaVuSans-47" d="M 3809 666 
L 3809 1919 
L 2778 1919 
L 2778 2438 
L 4434 2438 
L 4434 434 
Q 4069 175 3628 42 
Q 3188 -91 2688 -91 
Q 1594 -91 976 548 
Q 359 1188 359 2328 
Q 359 3472 976 4111 
Q 1594 4750 2688 4750 
Q 3144 4750 3555 4637 
Q 3966 4525 4313 4306 
L 4313 3634 
Q 3963 3931 3569 4081 
Q 3175 4231 2741 4231 
Q 1884 4231 1454 3753 
Q 1025 3275 1025 2328 
Q 1025 1384 1454 906 
Q 1884 428 2741 428 
Q 3075 428 3337 486 
Q 3600 544 3809 666 
z
" transform="scale(0.015625)"/>
      <path id="DejaVuSans-41" d="M 2188 4044 
L 1331 1722 
L 3047 1722 
L 2188 4044 
z
M 1831 4666 
L 2547 4666 
L 4325 0 
L 3669 0 
L 3244 1197 
L 1141 1197 
L 716 0 
L 50 0 
L 1831 4666 
z
" transform="scale(0.015625)"/>
     </defs>
     <use xlink:href="#DejaVuSans-4c"/>
     <use xlink:href="#DejaVuSans-43" x="55.712891"/>
     <use xlink:href="#DejaVuSans-47" x="125.537109"/>
     <use xlink:href="#DejaVuSans-41" x="203.027344"/>
    </g>
   </g>
   <g id="text_14">
    <!-- EvoSpace- -->
    <g transform="translate(386.578944 167.159125)scale(0.14 -0.14)">
     <defs>
      <path id="DejaVuSans-45" d="M 628 4666 
L 3578 4666 
L 3578 4134 
L 1259 4134 
L 1259 2753 
L 3481 2753 
L 3481 2222 
L 1259 2222 
L 1259 531 
L 3634 531 
L 3634 0 
L 628 0 
L 628 4666 
z
" transform="scale(0.015625)"/>
      <path id="DejaVuSans-53" d="M 3425 4513 
L 3425 3897 
Q 3066 4069 2747 4153 
Q 2428 4238 2131 4238 
Q 1616 4238 1336 4038 
Q 1056 3838 1056 3469 
Q 1056 3159 1242 3001 
Q 1428 2844 1947 2747 
L 2328 2669 
Q 3034 2534 3370 2195 
Q 3706 1856 3706 1288 
Q 3706 609 3251 259 
Q 2797 -91 1919 -91 
Q 1588 -91 1214 -16 
Q 841 59 441 206 
L 441 856 
Q 825 641 1194 531 
Q 1563 422 1919 422 
Q 2459 422 2753 634 
Q 3047 847 3047 1241 
Q 3047 1584 2836 1778 
Q 2625 1972 2144 2069 
L 1759 2144 
Q 1053 2284 737 2584 
Q 422 2884 422 3419 
Q 422 4038 858 4394 
Q 1294 4750 2059 4750 
Q 2388 4750 2728 4690 
Q 3069 4631 3425 4513 
z
" transform="scale(0.015625)"/>
     </defs>
     <use xlink:href="#DejaVuSans-45"/>
     <use xlink:href="#DejaVuSans-76" x="63.183594"/>
     <use xlink:href="#DejaVuSans-6f" x="122.363281"/>
     <use xlink:href="#DejaVuSans-53" x="183.544922"/>
     <use xlink:href="#DejaVuSans-70" x="247.021484"/>
     <use xlink:href="#DejaVuSans-61" x="310.498047"/>
     <use xlink:href="#DejaVuSans-63" x="371.777344"/>
     <use xlink:href="#DejaVuSans-65" x="426.757812"/>
     <use xlink:href="#DejaVuSans-2d" x="488.28125"/>
    </g>
   </g>
   <g id="text_15">
    <!-- best 2009 -->
    <g transform="translate(386.578944 36.937045)scale(0.14 -0.14)">
     <defs>
      <path id="DejaVuSans-62" d="M 3116 1747 
Q 3116 2381 2855 2742 
Q 2594 3103 2138 3103 
Q 1681 3103 1420 2742 
Q 1159 2381 1159 1747 
Q 1159 1113 1420 752 
Q 1681 391 2138 391 
Q 2594 391 2855 752 
Q 3116 1113 3116 1747 
z
M 1159 2969 
Q 1341 3281 1617 3432 
Q 1894 3584 2278 3584 
Q 2916 3584 3314 3078 
Q 3713 2572 3713 1747 
Q 3713 922 3314 415 
Q 2916 -91 2278 -91 
Q 1894 -91 1617 61 
Q 1341 213 1159 525 
L 1159 0 
L 581 0 
L 581 4863 
L 1159 4863 
L 1159 2969 
z
" transform="scale(0.015625)"/>
      <path id="DejaVuSans-39" d="M 703 97 
L 703 672 
Q 941 559 1184 500 
Q 1428 441 1663 441 
Q 2288 441 2617 861 
Q 2947 1281 2994 2138 
Q 2813 1869 2534 1725 
Q 2256 1581 1919 1581 
Q 1219 1581 811 2004 
Q 403 2428 403 3163 
Q 403 3881 828 4315 
Q 1253 4750 1959 4750 
Q 2769 4750 3195 4129 
Q 3622 3509 3622 2328 
Q 3622 1225 3098 567 
Q 2575 -91 1691 -91 
Q 1453 -91 1209 -44 
Q 966 3 703 97 
z
M 1959 2075 
Q 2384 2075 2632 2365 
Q 2881 2656 2881 3163 
Q 2881 3666 2632 3958 
Q 2384 4250 1959 4250 
Q 1534 4250 1286 3958 
Q 1038 3666 1038 3163 
Q 1038 2656 1286 2365 
Q 1534 2075 1959 2075 
z
" transform="scale(0.015625)"/>
     </defs>
     <use xlink:href="#DejaVuSans-62"/>
     <use xlink:href="#DejaVuSans-65" x="63.476562"/>
     <use xlink:href="#DejaVuSans-73" x="125"/>
     <use xlink:href="#DejaVuSans-74" x="177.099609"/>
     <use xlink:href="#DejaVuSans-20" x="216.308594"/>
     <use xlink:href="#DejaVuSans-32" x="248.095703"/>
     <use xlink:href="#DejaVuSans-30" x="311.71875"/>
     <use xlink:href="#DejaVuSans-30" x="375.341797"/>
     <use xlink:href="#DejaVuSans-39" x="438.964844"/>
    </g>
   </g>
   <g id="text_16">
    <!-- bbob f24, 2-D -->
    <g transform="translate(60.632064 38.111366)scale(0.102 -0.102)">
     <defs>
      <path id="DejaVuSans-44" d="M 1259 4147 
L 1259 519 
L 2022 519 
Q 2988 519 3436 956 
Q 3884 1394 3884 2338 
Q 3884 3275 3436 3711 
Q 2988 4147 2022 4147 
L 1259 4147 
z
M 628 4666 
L 1925 4666 
Q 3281 4666 3915 4102 
Q 4550 3538 4550 2338 
Q 4550 1131 3912 565 
Q 3275 0 1925 0 
L 628 0 
L 628 4666 
z
" transform="scale(0.015625)"/>
     </defs>
     <use xlink:href="#DejaVuSans-62"/>
     <use xlink:href="#DejaVuSans-62" x="63.476562"/>
     <use xlink:href="#DejaVuSans-6f" x="126.953125"/>
     <use xlink:href="#DejaVuSans-62" x="188.134766"/>
     <use xlink:href="#DejaVuSans-20" x="251.611328"/>
     <use xlink:href="#DejaVuSans-66" x="283.398438"/>
     <use xlink:href="#DejaVuSans-32" x="318.603516"/>
     <use xlink:href="#DejaVuSans-34" x="382.226562"/>
     <use xlink:href="#DejaVuSans-2c" x="445.849609"/>
     <use xlink:href="#DejaVuSans-20" x="477.636719"/>
     <use xlink:href="#DejaVuSans-32" x="509.423828"/>
     <use xlink:href="#DejaVuSans-2d" x="573.046875"/>
     <use xlink:href="#DejaVuSans-44" x="609.130859"/>
    </g>
    <!-- 51 targets: 100..1e-08 -->
    <g transform="translate(60.632064 49.533135)scale(0.102 -0.102)">
     <defs>
      <path id="DejaVuSans-35" d="M 691 4666 
L 3169 4666 
L 3169 4134 
L 1269 4134 
L 1269 2991 
Q 1406 3038 1543 3061 
Q 1681 3084 1819 3084 
Q 2600 3084 3056 2656 
Q 3513 2228 3513 1497 
Q 3513 744 3044 326 
Q 2575 -91 1722 -91 
Q 1428 -91 1123 -41 
Q 819 9 494 109 
L 494 744 
Q 775 591 1075 516 
Q 1375 441 1709 441 
Q 2250 441 2565 725 
Q 2881 1009 2881 1497 
Q 2881 1984 2565 2268 
Q 2250 2553 1709 2553 
Q 1456 2553 1204 2497 
Q 953 2441 691 2322 
L 691 4666 
z
" transform="scale(0.015625)"/>
      <path id="DejaVuSans-3a" d="M 750 794 
L 1409 794 
L 1409 0 
L 750 0 
L 750 794 
z
M 750 3309 
L 1409 3309 
L 1409 2516 
L 750 2516 
L 750 3309 
z
" transform="scale(0.015625)"/>
     </defs>
     <use xlink:href="#DejaVuSans-35"/>
     <use xlink:href="#DejaVuSans-31" x="63.623047"/>
     <use xlink:href="#DejaVuSans-20" x="127.246094"/>
     <use xlink:href="#DejaVuSans-74" x="159.033203"/>
     <use xlink:href="#DejaVuSans-61" x="198.242188"/>
     <use xlink:href="#DejaVuSans-72" x="259.521484"/>
     <use xlink:href="#DejaVuSans-67" x="298.884766"/>
     <use xlink:href="#DejaVuSans-65" x="362.361328"/>
     <use xlink:href="#DejaVuSans-74" x="423.884766"/>
     <use xlink:href="#DejaVuSans-73" x="463.09375"/>
     <use xlink:href="#DejaVuSans-3a" x="515.193359"/>
     <use xlink:href="#DejaVuSans-20" x="548.884766"/>
     <use xlink:href="#DejaVuSans-31" x="580.671875"/>
     <use xlink:href="#DejaVuSans-30" x="644.294922"/>
     <use xlink:href="#DejaVuSans-30" x="707.917969"/>
     <use xlink:href="#DejaVuSans-2e" x="771.541016"/>
     <use xlink:href="#DejaVuSans-2e" x="803.328125"/>
     <use xlink:href="#DejaVuSans-31" x="835.115234"/>
     <use xlink:href="#DejaVuSans-65" x="898.738281"/>
     <use xlink:href="#DejaVuSans-2d" x="960.261719"/>
     <use xlink:href="#DejaVuSans-30" x="996.345703"/>
     <use xlink:href="#DejaVuSans-38" x="1059.96875"/>
    </g>
    <!-- 15 instances -->
    <g transform="translate(60.632064 60.954904)scale(0.102 -0.102)">
     <use xlink:href="#DejaVuSans-31"/>
     <use xlink:href="#DejaVuSans-35" x="63.623047"/>
     <use xlink:href="#DejaVuSans-20" x="127.246094"/>
     <use xlink:href="#DejaVuSans-69" x="159.033203"/>
     <use xlink:href="#DejaVuSans-6e" x="186.816406"/>
     <use xlink:href="#DejaVuSans-73" x="250.195312"/>
     <use xlink:href="#DejaVuSans-74" x="302.294922"/>
     <use xlink:href="#DejaVuSans-61" x="341.503906"/>
     <use xlink:href="#DejaVuSans-6e" x="402.783203"/>
     <use xlink:href="#DejaVuSans-63" x="466.162109"/>
     <use xlink:href="#DejaVuSans-65" x="521.142578"/>
     <use xlink:href="#DejaVuSans-73" x="582.666016"/>
    </g>
   </g>
   <g id="text_17">
    <!-- v2.6 -->
    <g style="fill: #808080" transform="translate(198.292262 294.151352)scale(0.1 -0.1)">
     <use xlink:href="#DejaVuSans-76"/>
     <use xlink:href="#DejaVuSans-32" x="59.179688"/>
     <use xlink:href="#DejaVuSans-2e" x="122.802734"/>
     <use xlink:href="#DejaVuSans-36" x="154.589844"/>
    </g>
   </g>
   <g id="text_18">
    <!-- 24 Lunacek bi-Rastrigin -->
    <g transform="translate(91.411012 21.648)scale(0.2 -0.2)">
     <defs>
      <path id="DejaVuSans-6b" d="M 581 4863 
L 1159 4863 
L 1159 1991 
L 2875 3500 
L 3609 3500 
L 1753 1863 
L 3688 0 
L 2938 0 
L 1159 1709 
L 1159 0 
L 581 0 
L 581 4863 
z
" transform="scale(0.015625)"/>
      <path id="DejaVuSans-52" d="M 2841 2188 
Q 3044 2119 3236 1894 
Q 3428 1669 3622 1275 
L 4263 0 
L 3584 0 
L 2988 1197 
Q 2756 1666 2539 1819 
Q 2322 1972 1947 1972 
L 1259 1972 
L 1259 0 
L 628 0 
L 628 4666 
L 2053 4666 
Q 2853 4666 3247 4331 
Q 3641 3997 3641 3322 
Q 3641 2881 3436 2590 
Q 3231 2300 2841 2188 
z
M 1259 4147 
L 1259 2491 
L 2053 2491 
Q 2509 2491 2742 2702 
Q 2975 2913 2975 3322 
Q 2975 3731 2742 3939 
Q 2509 4147 2053 4147 
L 1259 4147 
z
" transform="scale(0.015625)"/>
     </defs>
     <use xlink:href="#DejaVuSans-32"/>
     <use xlink:href="#DejaVuSans-34" x="63.623047"/>
     <use xlink:href="#DejaVuSans-20" x="127.246094"/>
     <use xlink:href="#DejaVuSans-4c" x="159.033203"/>
     <use xlink:href="#DejaVuSans-75" x="212.996094"/>
     <use xlink:href="#DejaVuSans-6e" x="276.375"/>
     <use xlink:href="#DejaVuSans-61" x="339.753906"/>
     <use xlink:href="#DejaVuSans-63" x="401.033203"/>
     <use xlink:href="#DejaVuSans-65" x="456.013672"/>
     <use xlink:href="#DejaVuSans-6b" x="517.537109"/>
     <use xlink:href="#DejaVuSans-20" x="575.447266"/>
     <use xlink:href="#DejaVuSans-62" x="607.234375"/>
     <use xlink:href="#DejaVuSans-69" x="670.710938"/>
     <use xlink:href="#DejaVuSans-2d" x="698.494141"/>
     <use xlink:href="#DejaVuSans-52" x="734.578125"/>
     <use xlink:href="#DejaVuSans-61" x="801.810547"/>
     <use xlink:href="#DejaVuSans-73" x="863.089844"/>
     <use xlink:href="#DejaVuSans-74" x="915.189453"/>
     <use xlink:href="#DejaVuSans-72" x="954.398438"/>
     <use xlink:href="#DejaVuSans-69" x="995.511719"/>
     <use xlink:href="#DejaVuSans-67" x="1023.294922"/>
     <use xlink:href="#DejaVuSans-69" x="1086.771484"/>
     <use xlink:href="#DejaVuSans-6e" x="1114.554688"/>
    </g>
   </g>
  </g>
 </g>
 <defs>
  <clipPath id="p5518c22ebe">
   <rect x="57.6" y="27.648" width="303.2064" height="271.296"/>
  </clipPath>
 </defs>
</svg>
