<?xml version="1.0" encoding="utf-8" standalone="no"?>
<!DOCTYPE svg PUBLIC "-//W3C//DTD SVG 1.1//EN"
  "http://www.w3.org/Graphics/SVG/1.1/DTD/svg11.dtd">
<svg xmlns:xlink="http://www.w3.org/1999/xlink" width="460.8pt" height="345.6pt" viewBox="0 0 460.8 345.6" xmlns="http://www.w3.org/2000/svg" version="1.1">
 <metadata>
  <rdf:RDF xmlns:dc="http://purl.org/dc/elements/1.1/" xmlns:cc="http://creativecommons.org/ns#" xmlns:rdf="http://www.w3.org/1999/02/22-rdf-syntax-ns#">
   <cc:Work>
    <dc:type rdf:resource="http://purl.org/dc/dcmitype/StillImage"/>
    <dc:date>2024-05-29T08:06:02.250638</dc:date>
    <dc:format>image/svg+xml</dc:format>
    <dc:creator>
     <cc:Agent>
      <dc:title>Matplotlib v3.5.1, https://matplotlib.org/</dc:title>
     </cc:Agent>
    </dc:creator>
   </cc:Work>
  </rdf:RDF>
 </metadata>
 <defs>
  <style type="text/css">*{stroke-linejoin: round; stroke-linecap: butt}</style>
 </defs>
 <g id="figure_1">
  <g id="patch_1">
   <path d="M 0 345.6 
L 460.8 345.6 
L 460.8 0 
L 0 0 
z
" style="fill: #ffffff"/>
  </g>
  <g id="axes_1">
   <g id="patch_2">
    <path d="M 57.6 298.944 
L 360.8064 298.944 
L 360.8064 27.648 
L 57.6 27.648 
z
" style="fill: #ffffff"/>
   </g>
   <g id="line2d_1">
    <path d="M 27.323974 298.944 
L 27.323974 293.624471 
L 47.990577 293.624471 
L 47.990577 288.304941 
L 63.929565 288.304941 
L 63.929565 282.985412 
L 83.678349 282.985412 
L 83.678349 277.665882 
L 103.707211 277.665882 
L 103.707211 272.346353 
L 114.510421 272.346353 
L 114.510421 267.026824 
L 121.073351 267.026824 
L 121.073351 261.707294 
L 126.420564 261.707294 
L 126.420564 256.387765 
L 130.579414 256.387765 
L 130.579414 251.068235 
L 135.717106 251.068235 
L 135.717106 245.748706 
L 138.968547 245.748706 
L 138.968547 240.429176 
L 142.373399 240.429176 
L 142.373399 235.109647 
L 145.219746 235.109647 
L 145.219746 229.790118 
L 168.821824 229.790118 
L 168.821824 224.470588 
L 182.526034 224.470588 
L 182.526034 219.151059 
L 183.196826 219.151059 
L 183.196826 213.831529 
L 189.997239 213.831529 
L 189.997239 208.512 
L 193.324331 208.512 
L 193.324331 203.192471 
L 195.73151 203.192471 
L 195.73151 197.872941 
L 196.506641 197.872941 
L 196.506641 192.553412 
L 197.418784 192.553412 
L 197.418784 187.233882 
L 197.626869 187.233882 
L 197.626869 181.914353 
L 197.900059 181.914353 
L 197.900059 176.594824 
L 198.05133 176.594824 
L 198.05133 171.275294 
L 198.839563 171.275294 
L 198.839563 165.955765 
L 199.179109 165.955765 
L 199.179109 160.636235 
L 199.93795 160.636235 
L 199.93795 155.316706 
L 200.096927 155.316706 
L 200.096927 149.997176 
L 200.918523 149.997176 
L 200.918523 144.677647 
L 201.07679 144.677647 
L 201.07679 139.358118 
L 201.282741 139.358118 
L 201.282741 134.038588 
L 201.428995 134.038588 
L 201.428995 128.719059 
L 201.59909 128.719059 
L 201.59909 123.399529 
L 201.808248 123.399529 
L 201.808248 118.08 
L 201.988935 118.08 
L 201.988935 112.760471 
L 202.214538 112.760471 
L 202.214538 107.440941 
L 202.375997 107.440941 
L 202.375997 102.121412 
L 202.554726 102.121412 
L 202.554726 96.801882 
L 202.671259 96.801882 
L 202.671259 91.482353 
L 203.776312 91.482353 
L 203.776312 86.162824 
L 203.866589 86.162824 
L 203.866589 80.843294 
L 204.012958 80.843294 
L 204.012958 75.523765 
L 204.271423 75.523765 
L 204.271423 70.204235 
L 204.437693 70.204235 
L 204.437693 64.884706 
L 204.602507 64.884706 
L 204.602507 59.565176 
L 204.73574 59.565176 
L 204.73574 54.245647 
L 204.838051 54.245647 
L 204.838051 48.926118 
L 204.93533 48.926118 
L 204.93533 43.606588 
L 205.043986 43.606588 
L 205.043986 38.287059 
L 205.135779 38.287059 
L 205.135779 32.967529 
L 205.233004 32.967529 
L 205.233004 27.648 
L 360.8064 27.648 
" style="fill: none; stroke: #f5deb3; stroke-width: 4; stroke-linecap: square"/>
   </g>
   <g id="line2d_2">
    <defs>
     <path id="mdf7a6bf488" d="M 0 7.778175 
L 7.778175 0 
L 0 -7.778175 
L -7.778175 0 
z
" style="stroke: #f5deb3; stroke-width: 1.5; stroke-linejoin: miter"/>
    </defs>
    <g>
     <use xlink:href="#mdf7a6bf488" x="142.373399" y="240.429176" style="fill: #f5deb3; stroke: #f5deb3; stroke-width: 1.5; stroke-linejoin: miter"/>
     <use xlink:href="#mdf7a6bf488" x="201.07679" y="139.358118" style="fill: #f5deb3; stroke: #f5deb3; stroke-width: 1.5; stroke-linejoin: miter"/>
     <use xlink:href="#mdf7a6bf488" x="204.93533" y="43.606588" style="fill: #f5deb3; stroke: #f5deb3; stroke-width: 1.5; stroke-linejoin: miter"/>
     <use xlink:href="#mdf7a6bf488" x="205.233004" y="27.648" style="fill: #f5deb3; stroke: #f5deb3; stroke-width: 1.5; stroke-linejoin: miter"/>
     <use xlink:href="#mdf7a6bf488" x="205.233004" y="27.648" style="fill: #f5deb3; stroke: #f5deb3; stroke-width: 1.5; stroke-linejoin: miter"/>
     <use xlink:href="#mdf7a6bf488" x="360.8064" y="27.648" style="fill: #f5deb3; stroke: #f5deb3; stroke-width: 1.5; stroke-linejoin: miter"/>
    </g>
   </g>
   <g id="line2d_3">
    <path style="fill: none; stroke: #f5deb3; stroke-width: 4; stroke-linecap: square"/>
    <g/>
   </g>
   <g id="line2d_4">
    <path d="M 360.8064 27.648 
L 380.514816 33.07392 
" style="fill: none; stroke: #f5deb3; stroke-width: 4; stroke-linecap: square"/>
    <g>
     <use xlink:href="#mdf7a6bf488" x="360.8064" y="27.648" style="fill: #f5deb3; stroke: #f5deb3; stroke-width: 1.5; stroke-linejoin: miter"/>
     <use xlink:href="#mdf7a6bf488" x="380.514816" y="33.07392" style="fill: #f5deb3; stroke: #f5deb3; stroke-width: 1.5; stroke-linejoin: miter"/>
    </g>
   </g>
   <g id="matplotlib.axis_1">
    <g id="xtick_1">
     <g id="line2d_5">
      <path d="M 57.6 298.944 
L 57.6 27.648 
" clip-path="url(#pc55abb83f1)" style="fill: none; stroke: #b0b0b0; stroke-width: 0.8; stroke-linecap: square"/>
     </g>
     <g id="line2d_6">
      <defs>
       <path id="m948e07f0d9" d="M 0 0 
L 0 3.5 
" style="stroke: #000000; stroke-width: 0.8"/>
      </defs>
      <g>
       <use xlink:href="#m948e07f0d9" x="57.6" y="298.944" style="stroke: #000000; stroke-width: 0.8"/>
      </g>
     </g>
     <g id="text_1">
      <!-- 0 -->
      <g transform="translate(52.191875 318.861344)scale(0.17 -0.17)">
       <defs>
        <path id="DejaVuSans-30" d="M 2034 4250 
Q 1547 4250 1301 3770 
Q 1056 3291 1056 2328 
Q 1056 1369 1301 889 
Q 1547 409 2034 409 
Q 2525 409 2770 889 
Q 3016 1369 3016 2328 
Q 3016 3291 2770 3770 
Q 2525 4250 2034 4250 
z
M 2034 4750 
Q 2819 4750 3233 4129 
Q 3647 3509 3647 2328 
Q 3647 1150 3233 529 
Q 2819 -91 2034 -91 
Q 1250 -91 836 529 
Q 422 1150 422 2328 
Q 422 3509 836 4129 
Q 1250 4750 2034 4750 
z
" transform="scale(0.015625)"/>
       </defs>
       <use xlink:href="#DejaVuSans-30"/>
      </g>
     </g>
    </g>
    <g id="xtick_2">
     <g id="line2d_7">
      <path d="M 144.2304 298.944 
L 144.2304 27.648 
" clip-path="url(#pc55abb83f1)" style="fill: none; stroke: #b0b0b0; stroke-width: 0.8; stroke-linecap: square"/>
     </g>
     <g id="line2d_8">
      <g>
       <use xlink:href="#m948e07f0d9" x="144.2304" y="298.944" style="stroke: #000000; stroke-width: 0.8"/>
      </g>
     </g>
     <g id="text_2">
      <!-- 2 -->
      <g transform="translate(138.822275 318.861344)scale(0.17 -0.17)">
       <defs>
        <path id="DejaVuSans-32" d="M 1228 531 
L 3431 531 
L 3431 0 
L 469 0 
L 469 531 
Q 828 903 1448 1529 
Q 2069 2156 2228 2338 
Q 2531 2678 2651 2914 
Q 2772 3150 2772 3378 
Q 2772 3750 2511 3984 
Q 2250 4219 1831 4219 
Q 1534 4219 1204 4116 
Q 875 4013 500 3803 
L 500 4441 
Q 881 4594 1212 4672 
Q 1544 4750 1819 4750 
Q 2544 4750 2975 4387 
Q 3406 4025 3406 3419 
Q 3406 3131 3298 2873 
Q 3191 2616 2906 2266 
Q 2828 2175 2409 1742 
Q 1991 1309 1228 531 
z
" transform="scale(0.015625)"/>
       </defs>
       <use xlink:href="#DejaVuSans-32"/>
      </g>
     </g>
    </g>
    <g id="xtick_3">
     <g id="line2d_9">
      <path d="M 230.8608 298.944 
L 230.8608 27.648 
" clip-path="url(#pc55abb83f1)" style="fill: none; stroke: #b0b0b0; stroke-width: 0.8; stroke-linecap: square"/>
     </g>
     <g id="line2d_10">
      <g>
       <use xlink:href="#m948e07f0d9" x="230.8608" y="298.944" style="stroke: #000000; stroke-width: 0.8"/>
      </g>
     </g>
     <g id="text_3">
      <!-- 4 -->
      <g transform="translate(225.452675 318.861344)scale(0.17 -0.17)">
       <defs>
        <path id="DejaVuSans-34" d="M 2419 4116 
L 825 1625 
L 2419 1625 
L 2419 4116 
z
M 2253 4666 
L 3047 4666 
L 3047 1625 
L 3713 1625 
L 3713 1100 
L 3047 1100 
L 3047 0 
L 2419 0 
L 2419 1100 
L 313 1100 
L 313 1709 
L 2253 4666 
z
" transform="scale(0.015625)"/>
       </defs>
       <use xlink:href="#DejaVuSans-34"/>
      </g>
     </g>
    </g>
    <g id="xtick_4">
     <g id="line2d_11">
      <path d="M 317.4912 298.944 
L 317.4912 27.648 
" clip-path="url(#pc55abb83f1)" style="fill: none; stroke: #b0b0b0; stroke-width: 0.8; stroke-linecap: square"/>
     </g>
     <g id="line2d_12">
      <g>
       <use xlink:href="#m948e07f0d9" x="317.4912" y="298.944" style="stroke: #000000; stroke-width: 0.8"/>
      </g>
     </g>
     <g id="text_4">
      <!-- 6 -->
      <g transform="translate(312.083075 318.861344)scale(0.17 -0.17)">
       <defs>
        <path id="DejaVuSans-36" d="M 2113 2584 
Q 1688 2584 1439 2293 
Q 1191 2003 1191 1497 
Q 1191 994 1439 701 
Q 1688 409 2113 409 
Q 2538 409 2786 701 
Q 3034 994 3034 1497 
Q 3034 2003 2786 2293 
Q 2538 2584 2113 2584 
z
M 3366 4563 
L 3366 3988 
Q 3128 4100 2886 4159 
Q 2644 4219 2406 4219 
Q 1781 4219 1451 3797 
Q 1122 3375 1075 2522 
Q 1259 2794 1537 2939 
Q 1816 3084 2150 3084 
Q 2853 3084 3261 2657 
Q 3669 2231 3669 1497 
Q 3669 778 3244 343 
Q 2819 -91 2113 -91 
Q 1303 -91 875 529 
Q 447 1150 447 2328 
Q 447 3434 972 4092 
Q 1497 4750 2381 4750 
Q 2619 4750 2861 4703 
Q 3103 4656 3366 4563 
z
" transform="scale(0.015625)"/>
       </defs>
       <use xlink:href="#DejaVuSans-36"/>
      </g>
     </g>
    </g>
    <g id="xtick_5">
     <g id="line2d_13">
      <path d="M 100.9152 298.944 
L 100.9152 27.648 
" clip-path="url(#pc55abb83f1)" style="fill: none; stroke: #b0b0b0; stroke-width: 0.8; stroke-linecap: square"/>
     </g>
     <g id="line2d_14">
      <defs>
       <path id="mb55f93f281" d="M 0 0 
L 0 2 
" style="stroke: #000000; stroke-width: 0.6"/>
      </defs>
      <g>
       <use xlink:href="#mb55f93f281" x="100.9152" y="298.944" style="stroke: #000000; stroke-width: 0.6"/>
      </g>
     </g>
    </g>
    <g id="xtick_6">
     <g id="line2d_15">
      <path d="M 187.5456 298.944 
L 187.5456 27.648 
" clip-path="url(#pc55abb83f1)" style="fill: none; stroke: #b0b0b0; stroke-width: 0.8; stroke-linecap: square"/>
     </g>
     <g id="line2d_16">
      <g>
       <use xlink:href="#mb55f93f281" x="187.5456" y="298.944" style="stroke: #000000; stroke-width: 0.6"/>
      </g>
     </g>
    </g>
    <g id="xtick_7">
     <g id="line2d_17">
      <path d="M 274.176 298.944 
L 274.176 27.648 
" clip-path="url(#pc55abb83f1)" style="fill: none; stroke: #b0b0b0; stroke-width: 0.8; stroke-linecap: square"/>
     </g>
     <g id="line2d_18">
      <g>
       <use xlink:href="#mb55f93f281" x="274.176" y="298.944" style="stroke: #000000; stroke-width: 0.6"/>
      </g>
     </g>
    </g>
    <g id="xtick_8">
     <g id="line2d_19">
      <path d="M 360.8064 298.944 
L 360.8064 27.648 
" clip-path="url(#pc55abb83f1)" style="fill: none; stroke: #b0b0b0; stroke-width: 0.8; stroke-linecap: square"/>
     </g>
     <g id="line2d_20">
      <g>
       <use xlink:href="#mb55f93f281" x="360.8064" y="298.944" style="stroke: #000000; stroke-width: 0.6"/>
      </g>
     </g>
    </g>
    <g id="text_5">
     <!-- log10(# f-evals / dimension) -->
     <g transform="translate(88.823278 339.314156)scale(0.17 -0.17)">
      <defs>
       <path id="DejaVuSans-6c" d="M 603 4863 
L 1178 4863 
L 1178 0 
L 603 0 
L 603 4863 
z
" transform="scale(0.015625)"/>
       <path id="DejaVuSans-6f" d="M 1959 3097 
Q 1497 3097 1228 2736 
Q 959 2375 959 1747 
Q 959 1119 1226 758 
Q 1494 397 1959 397 
Q 2419 397 2687 759 
Q 2956 1122 2956 1747 
Q 2956 2369 2687 2733 
Q 2419 3097 1959 3097 
z
M 1959 3584 
Q 2709 3584 3137 3096 
Q 3566 2609 3566 1747 
Q 3566 888 3137 398 
Q 2709 -91 1959 -91 
Q 1206 -91 779 398 
Q 353 888 353 1747 
Q 353 2609 779 3096 
Q 1206 3584 1959 3584 
z
" transform="scale(0.015625)"/>
       <path id="DejaVuSans-67" d="M 2906 1791 
Q 2906 2416 2648 2759 
Q 2391 3103 1925 3103 
Q 1463 3103 1205 2759 
Q 947 2416 947 1791 
Q 947 1169 1205 825 
Q 1463 481 1925 481 
Q 2391 481 2648 825 
Q 2906 1169 2906 1791 
z
M 3481 434 
Q 3481 -459 3084 -895 
Q 2688 -1331 1869 -1331 
Q 1566 -1331 1297 -1286 
Q 1028 -1241 775 -1147 
L 775 -588 
Q 1028 -725 1275 -790 
Q 1522 -856 1778 -856 
Q 2344 -856 2625 -561 
Q 2906 -266 2906 331 
L 2906 616 
Q 2728 306 2450 153 
Q 2172 0 1784 0 
Q 1141 0 747 490 
Q 353 981 353 1791 
Q 353 2603 747 3093 
Q 1141 3584 1784 3584 
Q 2172 3584 2450 3431 
Q 2728 3278 2906 2969 
L 2906 3500 
L 3481 3500 
L 3481 434 
z
" transform="scale(0.015625)"/>
       <path id="DejaVuSans-31" d="M 794 531 
L 1825 531 
L 1825 4091 
L 703 3866 
L 703 4441 
L 1819 4666 
L 2450 4666 
L 2450 531 
L 3481 531 
L 3481 0 
L 794 0 
L 794 531 
z
" transform="scale(0.015625)"/>
       <path id="DejaVuSans-28" d="M 1984 4856 
Q 1566 4138 1362 3434 
Q 1159 2731 1159 2009 
Q 1159 1288 1364 580 
Q 1569 -128 1984 -844 
L 1484 -844 
Q 1016 -109 783 600 
Q 550 1309 550 2009 
Q 550 2706 781 3412 
Q 1013 4119 1484 4856 
L 1984 4856 
z
" transform="scale(0.015625)"/>
       <path id="DejaVuSans-23" d="M 3272 2816 
L 2363 2816 
L 2100 1772 
L 3016 1772 
L 3272 2816 
z
M 2803 4594 
L 2478 3297 
L 3391 3297 
L 3719 4594 
L 4219 4594 
L 3897 3297 
L 4872 3297 
L 4872 2816 
L 3775 2816 
L 3519 1772 
L 4513 1772 
L 4513 1294 
L 3397 1294 
L 3072 0 
L 2572 0 
L 2894 1294 
L 1978 1294 
L 1656 0 
L 1153 0 
L 1478 1294 
L 494 1294 
L 494 1772 
L 1594 1772 
L 1856 2816 
L 850 2816 
L 850 3297 
L 1978 3297 
L 2297 4594 
L 2803 4594 
z
" transform="scale(0.015625)"/>
       <path id="DejaVuSans-20" transform="scale(0.015625)"/>
       <path id="DejaVuSans-66" d="M 2375 4863 
L 2375 4384 
L 1825 4384 
Q 1516 4384 1395 4259 
Q 1275 4134 1275 3809 
L 1275 3500 
L 2222 3500 
L 2222 3053 
L 1275 3053 
L 1275 0 
L 697 0 
L 697 3053 
L 147 3053 
L 147 3500 
L 697 3500 
L 697 3744 
Q 697 4328 969 4595 
Q 1241 4863 1831 4863 
L 2375 4863 
z
" transform="scale(0.015625)"/>
       <path id="DejaVuSans-2d" d="M 313 2009 
L 1997 2009 
L 1997 1497 
L 313 1497 
L 313 2009 
z
" transform="scale(0.015625)"/>
       <path id="DejaVuSans-65" d="M 3597 1894 
L 3597 1613 
L 953 1613 
Q 991 1019 1311 708 
Q 1631 397 2203 397 
Q 2534 397 2845 478 
Q 3156 559 3463 722 
L 3463 178 
Q 3153 47 2828 -22 
Q 2503 -91 2169 -91 
Q 1331 -91 842 396 
Q 353 884 353 1716 
Q 353 2575 817 3079 
Q 1281 3584 2069 3584 
Q 2775 3584 3186 3129 
Q 3597 2675 3597 1894 
z
M 3022 2063 
Q 3016 2534 2758 2815 
Q 2500 3097 2075 3097 
Q 1594 3097 1305 2825 
Q 1016 2553 972 2059 
L 3022 2063 
z
" transform="scale(0.015625)"/>
       <path id="DejaVuSans-76" d="M 191 3500 
L 800 3500 
L 1894 563 
L 2988 3500 
L 3597 3500 
L 2284 0 
L 1503 0 
L 191 3500 
z
" transform="scale(0.015625)"/>
       <path id="DejaVuSans-61" d="M 2194 1759 
Q 1497 1759 1228 1600 
Q 959 1441 959 1056 
Q 959 750 1161 570 
Q 1363 391 1709 391 
Q 2188 391 2477 730 
Q 2766 1069 2766 1631 
L 2766 1759 
L 2194 1759 
z
M 3341 1997 
L 3341 0 
L 2766 0 
L 2766 531 
Q 2569 213 2275 61 
Q 1981 -91 1556 -91 
Q 1019 -91 701 211 
Q 384 513 384 1019 
Q 384 1609 779 1909 
Q 1175 2209 1959 2209 
L 2766 2209 
L 2766 2266 
Q 2766 2663 2505 2880 
Q 2244 3097 1772 3097 
Q 1472 3097 1187 3025 
Q 903 2953 641 2809 
L 641 3341 
Q 956 3463 1253 3523 
Q 1550 3584 1831 3584 
Q 2591 3584 2966 3190 
Q 3341 2797 3341 1997 
z
" transform="scale(0.015625)"/>
       <path id="DejaVuSans-73" d="M 2834 3397 
L 2834 2853 
Q 2591 2978 2328 3040 
Q 2066 3103 1784 3103 
Q 1356 3103 1142 2972 
Q 928 2841 928 2578 
Q 928 2378 1081 2264 
Q 1234 2150 1697 2047 
L 1894 2003 
Q 2506 1872 2764 1633 
Q 3022 1394 3022 966 
Q 3022 478 2636 193 
Q 2250 -91 1575 -91 
Q 1294 -91 989 -36 
Q 684 19 347 128 
L 347 722 
Q 666 556 975 473 
Q 1284 391 1588 391 
Q 1994 391 2212 530 
Q 2431 669 2431 922 
Q 2431 1156 2273 1281 
Q 2116 1406 1581 1522 
L 1381 1569 
Q 847 1681 609 1914 
Q 372 2147 372 2553 
Q 372 3047 722 3315 
Q 1072 3584 1716 3584 
Q 2034 3584 2315 3537 
Q 2597 3491 2834 3397 
z
" transform="scale(0.015625)"/>
       <path id="DejaVuSans-2f" d="M 1625 4666 
L 2156 4666 
L 531 -594 
L 0 -594 
L 1625 4666 
z
" transform="scale(0.015625)"/>
       <path id="DejaVuSans-64" d="M 2906 2969 
L 2906 4863 
L 3481 4863 
L 3481 0 
L 2906 0 
L 2906 525 
Q 2725 213 2448 61 
Q 2172 -91 1784 -91 
Q 1150 -91 751 415 
Q 353 922 353 1747 
Q 353 2572 751 3078 
Q 1150 3584 1784 3584 
Q 2172 3584 2448 3432 
Q 2725 3281 2906 2969 
z
M 947 1747 
Q 947 1113 1208 752 
Q 1469 391 1925 391 
Q 2381 391 2643 752 
Q 2906 1113 2906 1747 
Q 2906 2381 2643 2742 
Q 2381 3103 1925 3103 
Q 1469 3103 1208 2742 
Q 947 2381 947 1747 
z
" transform="scale(0.015625)"/>
       <path id="DejaVuSans-69" d="M 603 3500 
L 1178 3500 
L 1178 0 
L 603 0 
L 603 3500 
z
M 603 4863 
L 1178 4863 
L 1178 4134 
L 603 4134 
L 603 4863 
z
" transform="scale(0.015625)"/>
       <path id="DejaVuSans-6d" d="M 3328 2828 
Q 3544 3216 3844 3400 
Q 4144 3584 4550 3584 
Q 5097 3584 5394 3201 
Q 5691 2819 5691 2113 
L 5691 0 
L 5113 0 
L 5113 2094 
Q 5113 2597 4934 2840 
Q 4756 3084 4391 3084 
Q 3944 3084 3684 2787 
Q 3425 2491 3425 1978 
L 3425 0 
L 2847 0 
L 2847 2094 
Q 2847 2600 2669 2842 
Q 2491 3084 2119 3084 
Q 1678 3084 1418 2786 
Q 1159 2488 1159 1978 
L 1159 0 
L 581 0 
L 581 3500 
L 1159 3500 
L 1159 2956 
Q 1356 3278 1631 3431 
Q 1906 3584 2284 3584 
Q 2666 3584 2933 3390 
Q 3200 3197 3328 2828 
z
" transform="scale(0.015625)"/>
       <path id="DejaVuSans-6e" d="M 3513 2113 
L 3513 0 
L 2938 0 
L 2938 2094 
Q 2938 2591 2744 2837 
Q 2550 3084 2163 3084 
Q 1697 3084 1428 2787 
Q 1159 2491 1159 1978 
L 1159 0 
L 581 0 
L 581 3500 
L 1159 3500 
L 1159 2956 
Q 1366 3272 1645 3428 
Q 1925 3584 2291 3584 
Q 2894 3584 3203 3211 
Q 3513 2838 3513 2113 
z
" transform="scale(0.015625)"/>
       <path id="DejaVuSans-29" d="M 513 4856 
L 1013 4856 
Q 1481 4119 1714 3412 
Q 1947 2706 1947 2009 
Q 1947 1309 1714 600 
Q 1481 -109 1013 -844 
L 513 -844 
Q 928 -128 1133 580 
Q 1338 1288 1338 2009 
Q 1338 2731 1133 3434 
Q 928 4138 513 4856 
z
" transform="scale(0.015625)"/>
      </defs>
      <use xlink:href="#DejaVuSans-6c"/>
      <use xlink:href="#DejaVuSans-6f" x="27.783203"/>
      <use xlink:href="#DejaVuSans-67" x="88.964844"/>
      <use xlink:href="#DejaVuSans-31" x="152.441406"/>
      <use xlink:href="#DejaVuSans-30" x="216.064453"/>
      <use xlink:href="#DejaVuSans-28" x="279.6875"/>
      <use xlink:href="#DejaVuSans-23" x="318.701172"/>
      <use xlink:href="#DejaVuSans-20" x="402.490234"/>
      <use xlink:href="#DejaVuSans-66" x="434.277344"/>
      <use xlink:href="#DejaVuSans-2d" x="463.982422"/>
      <use xlink:href="#DejaVuSans-65" x="500.066406"/>
      <use xlink:href="#DejaVuSans-76" x="561.589844"/>
      <use xlink:href="#DejaVuSans-61" x="620.769531"/>
      <use xlink:href="#DejaVuSans-6c" x="682.048828"/>
      <use xlink:href="#DejaVuSans-73" x="709.832031"/>
      <use xlink:href="#DejaVuSans-20" x="761.931641"/>
      <use xlink:href="#DejaVuSans-2f" x="793.71875"/>
      <use xlink:href="#DejaVuSans-20" x="827.410156"/>
      <use xlink:href="#DejaVuSans-64" x="859.197266"/>
      <use xlink:href="#DejaVuSans-69" x="922.673828"/>
      <use xlink:href="#DejaVuSans-6d" x="950.457031"/>
      <use xlink:href="#DejaVuSans-65" x="1047.869141"/>
      <use xlink:href="#DejaVuSans-6e" x="1109.392578"/>
      <use xlink:href="#DejaVuSans-73" x="1172.771484"/>
      <use xlink:href="#DejaVuSans-69" x="1224.871094"/>
      <use xlink:href="#DejaVuSans-6f" x="1252.654297"/>
      <use xlink:href="#DejaVuSans-6e" x="1313.835938"/>
      <use xlink:href="#DejaVuSans-29" x="1377.214844"/>
     </g>
    </g>
   </g>
   <g id="matplotlib.axis_2">
    <g id="ytick_1">
     <g id="line2d_21">
      <path d="M 57.6 298.944 
L 360.8064 298.944 
" clip-path="url(#pc55abb83f1)" style="fill: none; stroke: #b0b0b0; stroke-width: 0.8; stroke-linecap: square"/>
     </g>
     <g id="line2d_22">
      <defs>
       <path id="m4e1eb3ee10" d="M 0 0 
L -3.5 0 
" style="stroke: #000000; stroke-width: 0.8"/>
      </defs>
      <g>
       <use xlink:href="#m4e1eb3ee10" x="57.6" y="298.944" style="stroke: #000000; stroke-width: 0.8"/>
      </g>
     </g>
     <g id="text_6">
      <!-- 0.0 -->
      <g transform="translate(25.155 305.02275)scale(0.16 -0.16)">
       <defs>
        <path id="DejaVuSans-2e" d="M 684 794 
L 1344 794 
L 1344 0 
L 684 0 
L 684 794 
z
" transform="scale(0.015625)"/>
       </defs>
       <use xlink:href="#DejaVuSans-30"/>
       <use xlink:href="#DejaVuSans-2e" x="63.623047"/>
       <use xlink:href="#DejaVuSans-30" x="95.410156"/>
      </g>
     </g>
    </g>
    <g id="ytick_2">
     <g id="line2d_23">
      <path d="M 57.6 244.6848 
L 360.8064 244.6848 
" clip-path="url(#pc55abb83f1)" style="fill: none; stroke: #b0b0b0; stroke-width: 0.8; stroke-linecap: square"/>
     </g>
     <g id="line2d_24">
      <g>
       <use xlink:href="#m4e1eb3ee10" x="57.6" y="244.6848" style="stroke: #000000; stroke-width: 0.8"/>
      </g>
     </g>
     <g id="text_7">
      <!-- 0.2 -->
      <g transform="translate(25.155 250.76355)scale(0.16 -0.16)">
       <use xlink:href="#DejaVuSans-30"/>
       <use xlink:href="#DejaVuSans-2e" x="63.623047"/>
       <use xlink:href="#DejaVuSans-32" x="95.410156"/>
      </g>
     </g>
    </g>
    <g id="ytick_3">
     <g id="line2d_25">
      <path d="M 57.6 190.4256 
L 360.8064 190.4256 
" clip-path="url(#pc55abb83f1)" style="fill: none; stroke: #b0b0b0; stroke-width: 0.8; stroke-linecap: square"/>
     </g>
     <g id="line2d_26">
      <g>
       <use xlink:href="#m4e1eb3ee10" x="57.6" y="190.4256" style="stroke: #000000; stroke-width: 0.8"/>
      </g>
     </g>
     <g id="text_8">
      <!-- 0.4 -->
      <g transform="translate(25.155 196.50435)scale(0.16 -0.16)">
       <use xlink:href="#DejaVuSans-30"/>
       <use xlink:href="#DejaVuSans-2e" x="63.623047"/>
       <use xlink:href="#DejaVuSans-34" x="95.410156"/>
      </g>
     </g>
    </g>
    <g id="ytick_4">
     <g id="line2d_27">
      <path d="M 57.6 136.1664 
L 360.8064 136.1664 
" clip-path="url(#pc55abb83f1)" style="fill: none; stroke: #b0b0b0; stroke-width: 0.8; stroke-linecap: square"/>
     </g>
     <g id="line2d_28">
      <g>
       <use xlink:href="#m4e1eb3ee10" x="57.6" y="136.1664" style="stroke: #000000; stroke-width: 0.8"/>
      </g>
     </g>
     <g id="text_9">
      <!-- 0.6 -->
      <g transform="translate(25.155 142.24515)scale(0.16 -0.16)">
       <use xlink:href="#DejaVuSans-30"/>
       <use xlink:href="#DejaVuSans-2e" x="63.623047"/>
       <use xlink:href="#DejaVuSans-36" x="95.410156"/>
      </g>
     </g>
    </g>
    <g id="ytick_5">
     <g id="line2d_29">
      <path d="M 57.6 81.9072 
L 360.8064 81.9072 
" clip-path="url(#pc55abb83f1)" style="fill: none; stroke: #b0b0b0; stroke-width: 0.8; stroke-linecap: square"/>
     </g>
     <g id="line2d_30">
      <g>
       <use xlink:href="#m4e1eb3ee10" x="57.6" y="81.9072" style="stroke: #000000; stroke-width: 0.8"/>
      </g>
     </g>
     <g id="text_10">
      <!-- 0.8 -->
      <g transform="translate(25.155 87.98595)scale(0.16 -0.16)">
       <defs>
        <path id="DejaVuSans-38" d="M 2034 2216 
Q 1584 2216 1326 1975 
Q 1069 1734 1069 1313 
Q 1069 891 1326 650 
Q 1584 409 2034 409 
Q 2484 409 2743 651 
Q 3003 894 3003 1313 
Q 3003 1734 2745 1975 
Q 2488 2216 2034 2216 
z
M 1403 2484 
Q 997 2584 770 2862 
Q 544 3141 544 3541 
Q 544 4100 942 4425 
Q 1341 4750 2034 4750 
Q 2731 4750 3128 4425 
Q 3525 4100 3525 3541 
Q 3525 3141 3298 2862 
Q 3072 2584 2669 2484 
Q 3125 2378 3379 2068 
Q 3634 1759 3634 1313 
Q 3634 634 3220 271 
Q 2806 -91 2034 -91 
Q 1263 -91 848 271 
Q 434 634 434 1313 
Q 434 1759 690 2068 
Q 947 2378 1403 2484 
z
M 1172 3481 
Q 1172 3119 1398 2916 
Q 1625 2713 2034 2713 
Q 2441 2713 2670 2916 
Q 2900 3119 2900 3481 
Q 2900 3844 2670 4047 
Q 2441 4250 2034 4250 
Q 1625 4250 1398 4047 
Q 1172 3844 1172 3481 
z
" transform="scale(0.015625)"/>
       </defs>
       <use xlink:href="#DejaVuSans-30"/>
       <use xlink:href="#DejaVuSans-2e" x="63.623047"/>
       <use xlink:href="#DejaVuSans-38" x="95.410156"/>
      </g>
     </g>
    </g>
    <g id="ytick_6">
     <g id="line2d_31">
      <path d="M 57.6 27.648 
L 360.8064 27.648 
" clip-path="url(#pc55abb83f1)" style="fill: none; stroke: #b0b0b0; stroke-width: 0.8; stroke-linecap: square"/>
     </g>
     <g id="line2d_32">
      <g>
       <use xlink:href="#m4e1eb3ee10" x="57.6" y="27.648" style="stroke: #000000; stroke-width: 0.8"/>
      </g>
     </g>
     <g id="text_11">
      <!-- 1.0 -->
      <g transform="translate(25.155 33.72675)scale(0.16 -0.16)">
       <use xlink:href="#DejaVuSans-31"/>
       <use xlink:href="#DejaVuSans-2e" x="63.623047"/>
       <use xlink:href="#DejaVuSans-30" x="95.410156"/>
      </g>
     </g>
    </g>
    <g id="text_12">
     <!-- Fraction of function,target pairs -->
     <g transform="translate(17.619531 297.681)rotate(-90)scale(0.17 -0.17)">
      <defs>
       <path id="DejaVuSans-46" d="M 628 4666 
L 3309 4666 
L 3309 4134 
L 1259 4134 
L 1259 2759 
L 3109 2759 
L 3109 2228 
L 1259 2228 
L 1259 0 
L 628 0 
L 628 4666 
z
" transform="scale(0.015625)"/>
       <path id="DejaVuSans-72" d="M 2631 2963 
Q 2534 3019 2420 3045 
Q 2306 3072 2169 3072 
Q 1681 3072 1420 2755 
Q 1159 2438 1159 1844 
L 1159 0 
L 581 0 
L 581 3500 
L 1159 3500 
L 1159 2956 
Q 1341 3275 1631 3429 
Q 1922 3584 2338 3584 
Q 2397 3584 2469 3576 
Q 2541 3569 2628 3553 
L 2631 2963 
z
" transform="scale(0.015625)"/>
       <path id="DejaVuSans-63" d="M 3122 3366 
L 3122 2828 
Q 2878 2963 2633 3030 
Q 2388 3097 2138 3097 
Q 1578 3097 1268 2742 
Q 959 2388 959 1747 
Q 959 1106 1268 751 
Q 1578 397 2138 397 
Q 2388 397 2633 464 
Q 2878 531 3122 666 
L 3122 134 
Q 2881 22 2623 -34 
Q 2366 -91 2075 -91 
Q 1284 -91 818 406 
Q 353 903 353 1747 
Q 353 2603 823 3093 
Q 1294 3584 2113 3584 
Q 2378 3584 2631 3529 
Q 2884 3475 3122 3366 
z
" transform="scale(0.015625)"/>
       <path id="DejaVuSans-74" d="M 1172 4494 
L 1172 3500 
L 2356 3500 
L 2356 3053 
L 1172 3053 
L 1172 1153 
Q 1172 725 1289 603 
Q 1406 481 1766 481 
L 2356 481 
L 2356 0 
L 1766 0 
Q 1100 0 847 248 
Q 594 497 594 1153 
L 594 3053 
L 172 3053 
L 172 3500 
L 594 3500 
L 594 4494 
L 1172 4494 
z
" transform="scale(0.015625)"/>
       <path id="DejaVuSans-75" d="M 544 1381 
L 544 3500 
L 1119 3500 
L 1119 1403 
Q 1119 906 1312 657 
Q 1506 409 1894 409 
Q 2359 409 2629 706 
Q 2900 1003 2900 1516 
L 2900 3500 
L 3475 3500 
L 3475 0 
L 2900 0 
L 2900 538 
Q 2691 219 2414 64 
Q 2138 -91 1772 -91 
Q 1169 -91 856 284 
Q 544 659 544 1381 
z
M 1991 3584 
L 1991 3584 
z
" transform="scale(0.015625)"/>
       <path id="DejaVuSans-2c" d="M 750 794 
L 1409 794 
L 1409 256 
L 897 -744 
L 494 -744 
L 750 256 
L 750 794 
z
" transform="scale(0.015625)"/>
       <path id="DejaVuSans-70" d="M 1159 525 
L 1159 -1331 
L 581 -1331 
L 581 3500 
L 1159 3500 
L 1159 2969 
Q 1341 3281 1617 3432 
Q 1894 3584 2278 3584 
Q 2916 3584 3314 3078 
Q 3713 2572 3713 1747 
Q 3713 922 3314 415 
Q 2916 -91 2278 -91 
Q 1894 -91 1617 61 
Q 1341 213 1159 525 
z
M 3116 1747 
Q 3116 2381 2855 2742 
Q 2594 3103 2138 3103 
Q 1681 3103 1420 2742 
Q 1159 2381 1159 1747 
Q 1159 1113 1420 752 
Q 1681 391 2138 391 
Q 2594 391 2855 752 
Q 3116 1113 3116 1747 
z
" transform="scale(0.015625)"/>
      </defs>
      <use xlink:href="#DejaVuSans-46"/>
      <use xlink:href="#DejaVuSans-72" x="50.269531"/>
      <use xlink:href="#DejaVuSans-61" x="91.382812"/>
      <use xlink:href="#DejaVuSans-63" x="152.662109"/>
      <use xlink:href="#DejaVuSans-74" x="207.642578"/>
      <use xlink:href="#DejaVuSans-69" x="246.851562"/>
      <use xlink:href="#DejaVuSans-6f" x="274.634766"/>
      <use xlink:href="#DejaVuSans-6e" x="335.816406"/>
      <use xlink:href="#DejaVuSans-20" x="399.195312"/>
      <use xlink:href="#DejaVuSans-6f" x="430.982422"/>
      <use xlink:href="#DejaVuSans-66" x="492.164062"/>
      <use xlink:href="#DejaVuSans-20" x="527.369141"/>
      <use xlink:href="#DejaVuSans-66" x="559.15625"/>
      <use xlink:href="#DejaVuSans-75" x="594.361328"/>
      <use xlink:href="#DejaVuSans-6e" x="657.740234"/>
      <use xlink:href="#DejaVuSans-63" x="721.119141"/>
      <use xlink:href="#DejaVuSans-74" x="776.099609"/>
      <use xlink:href="#DejaVuSans-69" x="815.308594"/>
      <use xlink:href="#DejaVuSans-6f" x="843.091797"/>
      <use xlink:href="#DejaVuSans-6e" x="904.273438"/>
      <use xlink:href="#DejaVuSans-2c" x="967.652344"/>
      <use xlink:href="#DejaVuSans-74" x="999.439453"/>
      <use xlink:href="#DejaVuSans-61" x="1038.648438"/>
      <use xlink:href="#DejaVuSans-72" x="1099.927734"/>
      <use xlink:href="#DejaVuSans-67" x="1139.291016"/>
      <use xlink:href="#DejaVuSans-65" x="1202.767578"/>
      <use xlink:href="#DejaVuSans-74" x="1264.291016"/>
      <use xlink:href="#DejaVuSans-20" x="1303.5"/>
      <use xlink:href="#DejaVuSans-70" x="1335.287109"/>
      <use xlink:href="#DejaVuSans-61" x="1398.763672"/>
      <use xlink:href="#DejaVuSans-69" x="1460.042969"/>
      <use xlink:href="#DejaVuSans-72" x="1487.826172"/>
      <use xlink:href="#DejaVuSans-73" x="1528.939453"/>
     </g>
    </g>
   </g>
   <g id="line2d_33">
    <defs>
     <path id="mc3d2672ddf" d="M 0 1.5 
C 0.397805 1.5 0.77937 1.341951 1.06066 1.06066 
C 1.341951 0.77937 1.5 0.397805 1.5 0 
C 1.5 -0.397805 1.341951 -0.77937 1.06066 -1.06066 
C 0.77937 -1.341951 0.397805 -1.5 0 -1.5 
C -0.397805 -1.5 -0.77937 -1.341951 -1.06066 -1.06066 
C -1.341951 -0.77937 -1.5 -0.397805 -1.5 0 
C -1.5 0.397805 -1.341951 0.77937 -1.06066 1.06066 
C -0.77937 1.341951 -0.397805 1.5 0 1.5 
z
" style="stroke: #f5deb3"/>
    </defs>
    <g>
     <use xlink:href="#mc3d2672ddf" x="205.233004" y="27.648" style="fill: #f5deb3; stroke: #f5deb3"/>
     <use xlink:href="#mc3d2672ddf" x="205.233004" y="27.648" style="fill: #f5deb3; stroke: #f5deb3"/>
    </g>
   </g>
   <g id="line2d_34">
    <defs>
     <path id="m8dadf8f4a1" d="M 0 1.5 
C 0.397805 1.5 0.77937 1.341951 1.06066 1.06066 
C 1.341951 0.77937 1.5 0.397805 1.5 0 
C 1.5 -0.397805 1.341951 -0.77937 1.06066 -1.06066 
C 0.77937 -1.341951 0.397805 -1.5 0 -1.5 
C -0.397805 -1.5 -0.77937 -1.341951 -1.06066 -1.06066 
C -1.341951 -0.77937 -1.5 -0.397805 -1.5 0 
C -1.5 0.397805 -1.341951 0.77937 -1.06066 1.06066 
C -0.77937 1.341951 -0.397805 1.5 0 1.5 
z
" style="stroke: #000080"/>
    </defs>
    <g>
     <use xlink:href="#m8dadf8f4a1" x="341.620532" y="213.831529" style="fill: #000080; stroke: #000080"/>
     <use xlink:href="#m8dadf8f4a1" x="341.620532" y="213.831529" style="fill: #000080; stroke: #000080"/>
    </g>
   </g>
   <g id="line2d_35">
    <path d="M 27.323974 298.944 
L 27.323974 294.688376 
L 40.363149 294.688376 
L 40.363149 291.496659 
L 47.990577 291.496659 
L 47.990577 290.432753 
L 53.402323 290.432753 
L 53.402323 289.368847 
L 57.6 289.368847 
L 57.6 288.304941 
L 61.029752 288.304941 
L 61.029752 287.950306 
L 66.441498 287.950306 
L 66.441498 286.8864 
L 68.65718 286.8864 
L 68.65718 286.531765 
L 72.432107 286.531765 
L 72.432107 286.177129 
L 76.96874 286.177129 
L 76.96874 285.822494 
L 78.266603 285.822494 
L 78.266603 285.113224 
L 79.480672 285.113224 
L 79.480672 284.758588 
L 81.696354 284.758588 
L 81.696354 284.403953 
L 86.307488 284.403953 
L 86.307488 282.630776 
L 96.717523 282.630776 
L 96.717523 281.921506 
L 98.510456 281.921506 
L 98.510456 281.566871 
L 99.346662 281.566871 
L 99.346662 280.502965 
L 100.147275 280.502965 
L 100.147275 280.148329 
L 102.362957 280.148329 
L 102.362957 279.793694 
L 105.850679 279.793694 
L 105.850679 279.439059 
L 110.674517 279.439059 
L 110.674517 279.084424 
L 112.385837 279.084424 
L 112.385837 278.375153 
L 114.326893 278.375153 
L 114.326893 277.665882 
L 114.872193 277.665882 
L 114.872193 275.538071 
L 117.540239 275.538071 
L 117.540239 275.183435 
L 118.301945 275.183435 
L 118.301945 274.8288 
L 120.813877 274.8288 
L 120.813877 274.474165 
L 122.677931 274.474165 
L 122.677931 274.119529 
L 122.795872 274.119529 
L 122.795872 273.055624 
L 125.115773 273.055624 
L 125.115773 272.700988 
L 128.786481 272.700988 
L 128.786481 271.991718 
L 129.041269 271.991718 
L 129.041269 271.637082 
L 135.054871 271.637082 
L 135.054871 271.282447 
L 136.184497 271.282447 
L 136.184497 270.927812 
L 136.299553 270.927812 
L 136.299553 270.573176 
L 139.985636 270.573176 
L 139.985636 269.863906 
L 140.405242 269.863906 
L 140.405242 269.509271 
L 144.454795 269.509271 
L 144.529002 268.8 
L 144.71325 268.8 
L 144.71325 268.445365 
L 145.112353 268.445365 
L 145.112353 268.090729 
L 145.503164 268.090729 
L 145.503164 267.736094 
L 145.954802 267.736094 
L 145.989098 267.026824 
L 147.087167 267.026824 
L 147.087167 265.962918 
L 147.628773 265.962918 
L 147.628773 265.608282 
L 148.001907 265.608282 
L 148.001907 265.253647 
L 148.488177 265.253647 
L 148.488177 264.899012 
L 148.75628 264.899012 
L 148.815343 264.189741 
L 149.252502 264.189741 
L 149.338728 263.125835 
L 149.510002 263.125835 
L 149.510002 262.061929 
L 149.847944 262.061929 
L 149.875833 261.352659 
L 150.533072 261.352659 
L 150.613636 260.288753 
L 150.72052 260.288753 
L 150.72052 259.934118 
L 150.932483 259.934118 
L 150.932483 259.579482 
L 151.063758 259.579482 
L 151.063758 259.224847 
L 151.782431 259.224847 
L 151.782431 258.870212 
L 152.007722 258.870212 
L 152.007722 258.515576 
L 152.571498 258.515576 
L 152.571498 258.160941 
L 152.715833 258.160941 
L 152.715833 257.806306 
L 153.650761 257.806306 
L 153.650761 257.451671 
L 154.056781 257.451671 
L 154.056781 257.097035 
L 154.344662 257.097035 
L 154.344662 256.7424 
L 154.476059 256.7424 
L 154.476059 256.387765 
L 155.371001 256.387765 
L 155.371001 256.033129 
L 155.924624 256.033129 
L 155.924624 255.678494 
L 156.462418 255.678494 
L 156.462418 255.323859 
L 156.579868 255.323859 
L 156.579868 254.969224 
L 157.250754 254.969224 
L 157.250754 254.614588 
L 158.418868 254.614588 
L 158.418868 254.259953 
L 158.682463 254.259953 
L 158.682463 253.905318 
L 158.925196 253.905318 
L 158.925196 253.550682 
L 160.110173 253.550682 
L 160.110173 253.196047 
L 160.271232 253.196047 
L 160.271232 252.841412 
L 163.984826 252.841412 
L 163.984826 252.486776 
L 167.196106 252.486776 
L 167.196106 252.132141 
L 168.627414 252.132141 
L 168.627414 251.777506 
L 172.015979 251.777506 
L 172.015979 251.422871 
L 173.533597 251.422871 
L 173.533597 251.068235 
L 174.286936 251.068235 
L 174.286936 250.7136 
L 175.474342 250.7136 
L 175.474342 250.358965 
L 176.872001 250.358965 
L 176.872001 249.649694 
L 177.948714 249.649694 
L 178.036239 248.940424 
L 178.363942 248.940424 
L 178.467857 247.876518 
L 179.746203 247.876518 
L 179.746203 247.521882 
L 184.81744 247.521882 
L 184.81744 247.167247 
L 195.646097 247.167247 
L 195.648543 246.457976 
L 197.313872 246.457976 
L 197.313872 246.103341 
L 199.865774 246.103341 
L 199.865774 245.748706 
L 200.173992 245.748706 
L 200.173992 245.394071 
L 200.855583 245.394071 
L 200.874117 244.6848 
L 202.468127 244.6848 
L 202.468127 244.330165 
L 202.765308 244.330165 
L 202.765308 243.975529 
L 203.560755 243.975529 
L 203.560755 243.620894 
L 203.96901 243.620894 
L 203.96901 243.266259 
L 204.276061 243.266259 
L 204.276061 242.911624 
L 205.515912 242.911624 
L 205.515912 242.556988 
L 206.687236 242.556988 
L 206.687236 242.202353 
L 207.121466 242.202353 
L 207.121466 241.847718 
L 207.883277 241.847718 
L 207.883277 241.493082 
L 216.645642 241.493082 
L 216.645642 241.138447 
L 217.888476 241.138447 
L 217.888476 240.783812 
L 221.952969 240.783812 
L 221.952969 240.429176 
L 222.218698 240.429176 
L 222.218698 240.074541 
L 224.002802 240.074541 
L 224.002802 239.719906 
L 224.511058 239.719906 
L 224.511058 239.365271 
L 225.159904 239.365271 
L 225.233116 238.656 
L 230.171484 238.656 
L 230.171484 238.301365 
L 230.294408 238.301365 
L 230.36716 237.592094 
L 231.611983 237.592094 
L 231.611983 237.237459 
L 235.510205 237.237459 
L 235.510205 236.882824 
L 245.912063 236.882824 
L 245.912063 236.528188 
L 248.44315 236.528188 
L 248.44315 236.173553 
L 267.969241 236.173553 
L 267.998471 235.464282 
L 270.737458 235.464282 
L 270.737458 235.109647 
L 271.341674 235.109647 
L 271.341674 234.755012 
L 274.209981 234.755012 
L 274.29986 232.981835 
L 274.540549 232.981835 
L 274.621079 230.499388 
L 274.689335 230.499388 
L 274.722547 229.435482 
L 275.312548 229.435482 
L 275.312548 229.080847 
L 275.516434 229.080847 
L 275.516434 228.726212 
L 275.918141 228.726212 
L 275.918141 228.371576 
L 284.366628 228.371576 
L 284.378859 227.662306 
L 287.277207 227.662306 
L 287.296359 226.953035 
L 287.458093 226.953035 
L 287.473593 226.243765 
L 287.79203 226.243765 
L 287.897328 224.470588 
L 288.106405 224.470588 
L 288.106405 224.115953 
L 293.764779 224.115953 
L 293.764779 223.761318 
L 295.004896 223.761318 
L 295.026555 223.052047 
L 295.134847 223.052047 
L 295.234574 221.988141 
L 295.273126 221.988141 
L 295.273126 221.278871 
L 300.283353 221.278871 
L 300.358025 220.214965 
L 304.684895 220.214965 
L 304.688187 219.505694 
L 308.104164 219.505694 
L 308.112813 218.441788 
L 310.840904 218.441788 
L 310.840904 218.087153 
L 310.979795 218.087153 
L 310.979795 217.732518 
L 313.467066 217.732518 
L 313.467066 217.377882 
L 315.663544 217.377882 
L 315.710937 216.313976 
L 317.609651 216.313976 
L 317.609651 215.604706 
L 319.410504 215.604706 
L 319.410504 215.250071 
L 322.529646 215.250071 
L 322.529646 214.895435 
L 325.211024 214.895435 
L 325.211024 214.5408 
L 328.614278 214.5408 
L 328.614278 214.186165 
L 341.620532 214.186165 
L 341.620532 213.831529 
L 360.8064 213.831529 
L 360.8064 213.831529 
" style="fill: none; stroke: #000080; stroke-width: 1.5; stroke-linecap: square"/>
   </g>
   <g id="line2d_36">
    <defs>
     <path id="maca61d96bb" d="M 0 6 
C 1.591219 6 3.117479 5.367802 4.242641 4.242641 
C 5.367802 3.117479 6 1.591219 6 0 
C 6 -1.591219 5.367802 -3.117479 4.242641 -4.242641 
C 3.117479 -5.367802 1.591219 -6 0 -6 
C -1.591219 -6 -3.117479 -5.367802 -4.242641 -4.242641 
C -5.367802 -3.117479 -6 -1.591219 -6 0 
C -6 1.591219 -5.367802 3.117479 -4.242641 4.242641 
C -3.117479 5.367802 -1.591219 6 0 6 
z
" style="stroke: #000080; stroke-width: 1.5"/>
    </defs>
    <g>
     <use xlink:href="#maca61d96bb" x="96.717523" y="282.630776" style="fill-opacity: 0; stroke: #000080; stroke-width: 1.5"/>
     <use xlink:href="#maca61d96bb" x="160.271232" y="253.196047" style="fill-opacity: 0; stroke: #000080; stroke-width: 1.5"/>
     <use xlink:href="#maca61d96bb" x="248.44315" y="236.173553" style="fill-opacity: 0; stroke: #000080; stroke-width: 1.5"/>
     <use xlink:href="#maca61d96bb" x="310.979795" y="217.732518" style="fill-opacity: 0; stroke: #000080; stroke-width: 1.5"/>
     <use xlink:href="#maca61d96bb" x="341.620532" y="213.831529" style="fill-opacity: 0; stroke: #000080; stroke-width: 1.5"/>
     <use xlink:href="#maca61d96bb" x="360.8064" y="213.831529" style="fill-opacity: 0; stroke: #000080; stroke-width: 1.5"/>
    </g>
   </g>
   <g id="line2d_37">
    <path style="fill: none; stroke: #000080; stroke-width: 1.5; stroke-linecap: square"/>
    <g/>
   </g>
   <g id="line2d_38">
    <path d="M 274.176 234.755012 
" clip-path="url(#pc55abb83f1)" style="fill: none; stroke: #000080; stroke-width: 1.5; stroke-linecap: square"/>
    <defs>
     <path id="md73bb43d13" d="M -12 12 
L 12 -12 
M -12 -12 
L 12 12 
" style="stroke: #000080"/>
    </defs>
    <g clip-path="url(#pc55abb83f1)">
     <use xlink:href="#md73bb43d13" x="274.176" y="234.755012" style="fill: #000080; stroke: #000080"/>
    </g>
   </g>
   <g id="line2d_39">
    <defs>
     <path id="m98d957989d" d="M 0 1.5 
C 0.397805 1.5 0.77937 1.341951 1.06066 1.06066 
C 1.341951 0.77937 1.5 0.397805 1.5 0 
C 1.5 -0.397805 1.341951 -0.77937 1.06066 -1.06066 
C 0.77937 -1.341951 0.397805 -1.5 0 -1.5 
C -0.397805 -1.5 -0.77937 -1.341951 -1.06066 -1.06066 
C -1.341951 -0.77937 -1.5 -0.397805 -1.5 0 
C -1.5 0.397805 -1.341951 0.77937 -1.06066 1.06066 
C -0.77937 1.341951 -0.397805 1.5 0 1.5 
z
" style="stroke: #ff00ff"/>
    </defs>
    <g>
     <use xlink:href="#m98d957989d" x="337.923355" y="171.275294" style="fill: #ff00ff; stroke: #ff00ff"/>
     <use xlink:href="#m98d957989d" x="337.923355" y="171.275294" style="fill: #ff00ff; stroke: #ff00ff"/>
    </g>
   </g>
   <g id="line2d_40">
    <path d="M 27.323974 298.944 
L 27.323974 293.979106 
L 113.381389 293.979106 
L 113.381389 291.851294 
L 125.011554 291.851294 
L 125.011554 290.432753 
L 125.628382 290.432753 
L 125.628382 288.659576 
L 125.829577 288.659576 
L 125.829577 285.113224 
L 126.225624 285.113224 
L 126.323346 279.793694 
L 126.420564 279.793694 
L 126.420564 279.439059 
L 126.613505 279.439059 
L 126.613505 278.375153 
L 126.993549 278.375153 
L 126.993549 272.700988 
L 132.428795 272.700988 
L 132.428795 272.346353 
L 133.05244 272.346353 
L 133.120474 271.637082 
L 133.25581 271.637082 
L 133.323114 270.927812 
L 133.457005 270.927812 
L 133.457005 270.218541 
L 133.72196 270.218541 
L 133.72196 269.863906 
L 133.853052 269.863906 
L 133.853052 269.154635 
L 134.368469 269.154635 
L 134.368469 268.445365 
L 134.558167 268.445365 
L 134.558167 267.736094 
L 137.466966 267.736094 
L 137.466966 267.381459 
L 137.998402 267.381459 
L 137.998402 266.672188 
L 138.310202 266.672188 
L 138.310202 266.317553 
L 139.018248 266.317553 
L 139.018248 265.608282 
L 139.264798 265.608282 
L 139.264798 265.253647 
L 139.556456 265.253647 
L 139.556456 264.899012 
L 139.843661 264.899012 
L 139.843661 264.544376 
L 139.985636 264.544376 
L 139.985636 264.189741 
L 141.953481 264.189741 
L 141.953481 263.835106 
L 143.066428 263.835106 
L 143.066428 263.480471 
L 143.540694 263.480471 
L 143.540694 263.125835 
L 143.926981 263.125835 
L 143.926981 262.7712 
L 144.041338 262.7712 
L 144.041338 262.061929 
L 145.7477 262.061929 
L 145.7477 261.707294 
L 146.261241 261.707294 
L 146.261241 261.352659 
L 146.462796 261.352659 
L 146.462796 260.998024 
L 147.248088 260.998024 
L 147.280107 260.288753 
L 150.452162 260.288753 
L 150.452162 259.934118 
L 151.757231 259.934118 
L 151.757231 259.579482 
L 153.02481 259.579482 
L 153.071898 258.870212 
L 153.967309 258.870212 
L 153.967309 258.515576 
L 154.649839 258.515576 
L 154.649839 257.806306 
L 154.843441 257.806306 
L 154.950144 257.097035 
L 156.284856 257.097035 
L 156.284856 256.7424 
L 157.061501 256.7424 
L 157.099504 255.678494 
L 158.752135 255.678494 
L 158.752135 255.323859 
L 159.300416 255.323859 
L 159.300416 254.969224 
L 160.699326 254.969224 
L 160.699326 254.614588 
L 161.270586 254.614588 
L 161.270586 254.259953 
L 162.103487 254.259953 
L 162.132562 253.550682 
L 163.423645 253.550682 
L 163.423645 253.196047 
L 164.821605 253.196047 
L 164.821605 252.841412 
L 167.118257 252.841412 
L 167.118257 252.486776 
L 168.781062 252.486776 
L 168.781062 252.132141 
L 169.124754 252.132141 
L 169.124754 251.777506 
L 172.305787 251.777506 
L 172.305787 251.422871 
L 173.691413 251.422871 
L 173.691413 251.068235 
L 175.545679 251.068235 
L 175.545679 250.7136 
L 180.614326 250.7136 
L 180.614326 250.358965 
L 185.79213 250.358965 
L 185.79213 250.004329 
L 189.324846 250.004329 
L 189.324846 249.295059 
L 189.798033 249.295059 
L 189.814714 248.585788 
L 191.872257 248.585788 
L 191.872257 248.231153 
L 192.095128 248.231153 
L 192.095128 247.876518 
L 194.517116 247.876518 
L 194.517116 247.521882 
L 195.223125 247.521882 
L 195.223125 247.167247 
L 195.589757 247.167247 
L 195.589757 246.812612 
L 195.867369 246.812612 
L 195.867369 246.457976 
L 197.456588 246.457976 
L 197.456588 246.103341 
L 199.556396 246.103341 
L 199.556396 245.748706 
L 202.481737 245.748706 
L 202.481737 245.394071 
L 203.70314 245.394071 
L 203.70314 245.039435 
L 205.171192 245.039435 
L 205.171192 244.6848 
L 205.463734 244.6848 
L 205.463734 244.330165 
L 205.651476 244.330165 
L 205.651476 243.975529 
L 206.34274 243.975529 
L 206.34274 242.556988 
L 206.825447 242.556988 
L 206.894174 241.493082 
L 207.227484 241.493082 
L 207.227484 241.138447 
L 207.359172 241.138447 
L 207.359172 240.783812 
L 207.492551 240.783812 
L 207.554991 240.074541 
L 207.751364 240.074541 
L 207.751364 239.719906 
L 210.221642 239.719906 
L 210.221642 239.365271 
L 211.260843 239.365271 
L 211.360826 238.301365 
L 211.422253 238.301365 
L 211.422253 237.946729 
L 211.951868 237.946729 
L 211.951868 237.592094 
L 212.177697 237.592094 
L 212.177697 237.237459 
L 212.310291 237.237459 
L 212.350592 236.528188 
L 212.444961 236.528188 
L 212.444961 236.173553 
L 212.59259 236.173553 
L 212.65112 235.464282 
L 212.894196 235.464282 
L 212.894196 235.109647 
L 213.042235 235.109647 
L 213.042235 234.755012 
L 213.82044 234.755012 
L 213.82044 234.400376 
L 215.931374 234.400376 
L 215.931374 234.045741 
L 216.656853 234.045741 
L 216.720786 233.336471 
L 216.82501 233.336471 
L 216.82501 232.981835 
L 217.402382 232.981835 
L 217.479167 232.272565 
L 217.535023 232.272565 
L 217.535023 231.917929 
L 218.449858 231.917929 
L 218.449858 231.563294 
L 219.4924 231.563294 
L 219.4924 231.208659 
L 219.72573 231.208659 
L 219.72573 230.854024 
L 220.102075 230.854024 
L 220.168612 230.144753 
L 220.219687 230.144753 
L 220.219687 229.790118 
L 220.467115 229.790118 
L 220.524557 229.080847 
L 220.645394 229.080847 
L 220.645394 228.726212 
L 220.838672 228.726212 
L 220.838672 228.371576 
L 221.562936 228.371576 
L 221.562936 228.016941 
L 223.646236 228.016941 
L 223.646236 227.662306 
L 223.846679 227.662306 
L 223.846679 227.307671 
L 224.277075 227.307671 
L 224.277075 226.953035 
L 224.883307 226.953035 
L 224.883307 226.5984 
L 225.010051 226.5984 
L 225.010051 226.243765 
L 225.239205 226.243765 
L 225.289863 225.179859 
L 225.468106 225.179859 
L 225.468106 224.825224 
L 225.912336 224.825224 
L 225.97488 223.761318 
L 226.234548 223.761318 
L 226.234548 223.406682 
L 226.517714 223.406682 
L 226.517714 223.052047 
L 228.094761 223.052047 
L 228.169574 222.342776 
L 228.444509 222.342776 
L 228.444509 221.988141 
L 228.598313 221.988141 
L 228.598313 221.633506 
L 230.27734 221.633506 
L 230.27734 221.278871 
L 231.202678 221.278871 
L 231.202678 220.924235 
L 231.678382 220.924235 
L 231.678382 220.5696 
L 231.866558 220.5696 
L 231.866558 220.214965 
L 232.113159 220.214965 
L 232.113159 219.860329 
L 235.392299 219.860329 
L 235.392299 219.505694 
L 236.088899 219.505694 
L 236.088899 219.151059 
L 236.395827 219.151059 
L 236.395827 218.796424 
L 236.563278 218.796424 
L 236.622643 218.087153 
L 238.008359 218.087153 
L 238.008359 217.732518 
L 239.440414 217.732518 
L 239.440414 217.377882 
L 239.653796 217.377882 
L 239.653796 217.023247 
L 239.818102 217.023247 
L 239.818102 216.668612 
L 242.416917 216.668612 
L 242.416917 216.313976 
L 246.300685 216.313976 
L 246.300685 215.959341 
L 246.431038 215.959341 
L 246.431038 215.604706 
L 247.743848 215.604706 
L 247.747375 214.895435 
L 248.0526 214.895435 
L 248.0526 214.5408 
L 248.231563 214.5408 
L 248.231563 214.186165 
L 248.604688 214.186165 
L 248.703747 213.122259 
L 248.746249 213.122259 
L 248.754244 212.412988 
L 248.912279 212.412988 
L 248.912279 212.058353 
L 249.586609 212.058353 
L 249.586609 211.703718 
L 249.750791 211.703718 
L 249.750791 211.349082 
L 250.112274 211.349082 
L 250.112274 210.994447 
L 251.340494 210.994447 
L 251.340494 210.639812 
L 251.809334 210.639812 
L 251.874083 209.930541 
L 252.237933 209.930541 
L 252.237933 209.575906 
L 253.560946 209.575906 
L 253.654252 207.093459 
L 254.229683 207.093459 
L 254.229683 206.738824 
L 255.010691 206.738824 
L 255.017776 206.029553 
L 256.221321 206.029553 
L 256.221321 205.674918 
L 258.626269 205.674918 
L 258.626269 205.320282 
L 258.765741 205.320282 
L 258.765741 204.965647 
L 258.976659 204.965647 
L 258.976659 204.611012 
L 259.237087 204.611012 
L 259.237087 204.256376 
L 259.362199 204.256376 
L 259.362199 203.901741 
L 260.018266 203.901741 
L 260.018266 203.547106 
L 260.1594 203.547106 
L 260.1594 203.192471 
L 261.31007 203.192471 
L 261.31007 202.837835 
L 262.147648 202.837835 
L 262.147648 202.4832 
L 262.802918 202.4832 
L 262.8118 201.773929 
L 265.098135 201.773929 
L 265.098927 201.064659 
L 265.459237 201.064659 
L 265.459237 200.710024 
L 265.951699 200.710024 
L 265.951699 200.355388 
L 266.278159 200.355388 
L 266.297615 199.646118 
L 266.669666 199.646118 
L 266.768208 198.582212 
L 267.110298 198.582212 
L 267.115775 197.872941 
L 267.62007 197.872941 
L 267.62007 197.518306 
L 267.778161 197.518306 
L 267.778161 197.163671 
L 268.371306 197.163671 
L 268.418985 196.4544 
L 268.674396 196.4544 
L 268.674396 196.099765 
L 269.010644 196.099765 
L 269.013516 195.390494 
L 269.627673 195.390494 
L 269.627673 195.035859 
L 270.381247 195.035859 
L 270.381247 194.681224 
L 271.662734 194.681224 
L 271.662734 194.326588 
L 272.125448 194.326588 
L 272.125448 193.971953 
L 272.322072 193.971953 
L 272.370795 193.262682 
L 272.928029 193.262682 
L 272.928029 192.908047 
L 273.475167 192.908047 
L 273.475167 192.553412 
L 273.705674 192.553412 
L 273.705674 192.198776 
L 275.466161 192.198776 
L 275.466161 191.844141 
L 275.579358 191.844141 
L 275.579358 191.489506 
L 276.006791 191.489506 
L 276.006791 191.134871 
L 276.497963 191.134871 
L 276.497963 190.780235 
L 278.171628 190.780235 
L 278.171628 190.4256 
L 279.627444 190.4256 
L 279.627444 190.070965 
L 279.983377 190.070965 
L 279.984068 189.361694 
L 280.900675 189.361694 
L 280.900675 189.007059 
L 281.46263 189.007059 
L 281.46263 188.652424 
L 282.386826 188.652424 
L 282.386826 188.297788 
L 282.866708 188.297788 
L 282.866708 187.943153 
L 284.540806 187.943153 
L 284.541955 187.233882 
L 284.795974 187.233882 
L 284.795974 186.879247 
L 285.985186 186.879247 
L 285.985186 186.524612 
L 287.040548 186.524612 
L 287.101397 185.106071 
L 287.482942 185.106071 
L 287.482942 184.751435 
L 288.227726 184.751435 
L 288.227726 184.3968 
L 288.364946 184.3968 
L 288.364946 184.042165 
L 288.650351 184.042165 
L 288.650351 183.687529 
L 289.864129 183.687529 
L 289.864129 183.332894 
L 290.071488 183.332894 
L 290.071488 182.978259 
L 290.372547 182.978259 
L 290.372547 182.623624 
L 292.088981 182.623624 
L 292.088981 182.268988 
L 293.280294 182.268988 
L 293.280294 181.914353 
L 293.652436 181.914353 
L 293.652436 181.559718 
L 293.847573 181.559718 
L 293.847573 181.205082 
L 295.279756 181.205082 
L 295.279756 180.850447 
L 295.455376 180.850447 
L 295.455376 180.495812 
L 296.81496 180.495812 
L 296.81496 180.141176 
L 297.22435 180.141176 
L 297.22435 179.786541 
L 298.671871 179.786541 
L 298.671871 179.431906 
L 300.215086 179.431906 
L 300.215086 179.077271 
L 300.848346 179.077271 
L 300.848346 178.722635 
L 301.129094 178.722635 
L 301.129094 178.368 
L 301.902484 178.368 
L 301.902484 178.013365 
L 302.391477 178.013365 
L 302.391477 177.658729 
L 303.853059 177.658729 
L 303.853059 177.304094 
L 305.468887 177.304094 
L 305.468887 176.949459 
L 305.739046 176.949459 
L 305.759645 176.240188 
L 306.253808 176.240188 
L 306.253808 175.885553 
L 308.290144 175.885553 
L 308.290144 175.530918 
L 309.565078 175.530918 
L 309.565078 175.176282 
L 310.351308 175.176282 
L 310.351308 174.821647 
L 313.34312 174.821647 
L 313.34312 174.467012 
L 314.279072 174.467012 
L 314.279072 174.112376 
L 315.18913 174.112376 
L 315.18913 173.757741 
L 315.946963 173.757741 
L 315.946963 173.403106 
L 317.52334 173.403106 
L 317.52334 173.048471 
L 317.894577 173.048471 
L 317.894577 172.693835 
L 320.808805 172.693835 
L 320.808805 172.3392 
L 321.513481 172.3392 
L 321.513481 171.984565 
L 328.823037 171.984565 
L 328.823037 171.629929 
L 337.923355 171.629929 
L 337.923355 171.275294 
L 360.8064 171.275294 
L 360.8064 171.275294 
" style="fill: none; stroke: #ff00ff; stroke-width: 1.5; stroke-linecap: square"/>
   </g>
   <g id="line2d_41">
    <defs>
     <path id="m75aae7f2b1" d="M 0 8.485281 
L 5.091169 0 
L 0 -8.485281 
L -5.091169 0 
z
" style="stroke: #ff00ff; stroke-width: 1.5; stroke-linejoin: miter"/>
    </defs>
    <g>
     <use xlink:href="#m75aae7f2b1" x="154.950144" y="257.451671" style="fill-opacity: 0; stroke: #ff00ff; stroke-width: 1.5; stroke-linejoin: miter"/>
     <use xlink:href="#m75aae7f2b1" x="236.622643" y="218.087153" style="fill-opacity: 0; stroke: #ff00ff; stroke-width: 1.5; stroke-linejoin: miter"/>
     <use xlink:href="#m75aae7f2b1" x="301.129094" y="178.722635" style="fill-opacity: 0; stroke: #ff00ff; stroke-width: 1.5; stroke-linejoin: miter"/>
     <use xlink:href="#m75aae7f2b1" x="337.923355" y="171.275294" style="fill-opacity: 0; stroke: #ff00ff; stroke-width: 1.5; stroke-linejoin: miter"/>
     <use xlink:href="#m75aae7f2b1" x="360.8064" y="171.275294" style="fill-opacity: 0; stroke: #ff00ff; stroke-width: 1.5; stroke-linejoin: miter"/>
    </g>
   </g>
   <g id="line2d_42">
    <path style="fill: none; stroke: #ff00ff; stroke-width: 1.5; stroke-linecap: square"/>
    <g/>
   </g>
   <g id="line2d_43">
    <path d="M 243.91389 216.313976 
" clip-path="url(#pc55abb83f1)" style="fill: none; stroke: #ff00ff; stroke-width: 1.5; stroke-linecap: square"/>
    <defs>
     <path id="md24c3f0e85" d="M -12 12 
L 12 -12 
M -12 -12 
L 12 12 
" style="stroke: #ff00ff"/>
    </defs>
    <g clip-path="url(#pc55abb83f1)">
     <use xlink:href="#md24c3f0e85" x="243.91389" y="216.313976" style="fill: #ff00ff; stroke: #ff00ff"/>
    </g>
   </g>
   <g id="line2d_44">
    <path d="M 360.8064 213.831529 
L 380.514816 293.51808 
" style="fill: none; stroke: #000080; stroke-width: 1.5; stroke-linecap: square"/>
    <g>
     <use xlink:href="#maca61d96bb" x="360.8064" y="213.831529" style="fill-opacity: 0; stroke: #000080; stroke-width: 1.5"/>
     <use xlink:href="#maca61d96bb" x="380.514816" y="293.51808" style="fill-opacity: 0; stroke: #000080; stroke-width: 1.5"/>
    </g>
   </g>
   <g id="line2d_45">
    <path d="M 360.8064 171.275294 
L 380.514816 163.296 
" style="fill: none; stroke: #ff00ff; stroke-width: 1.5; stroke-linecap: square"/>
    <g>
     <use xlink:href="#m75aae7f2b1" x="360.8064" y="171.275294" style="fill-opacity: 0; stroke: #ff00ff; stroke-width: 1.5; stroke-linejoin: miter"/>
     <use xlink:href="#m75aae7f2b1" x="380.514816" y="163.296" style="fill-opacity: 0; stroke: #ff00ff; stroke-width: 1.5; stroke-linejoin: miter"/>
    </g>
   </g>
   <g id="line2d_46">
    <path d="M 360.8064 298.944 
L 360.8064 27.648 
" style="fill: none; stroke: #000000; stroke-width: 1.5; stroke-linecap: square"/>
   </g>
   <g id="patch_3">
    <path d="M 57.6 298.944 
L 360.8064 298.944 
" style="fill: none; stroke: #000000; stroke-width: 0.8; stroke-linejoin: miter; stroke-linecap: square"/>
   </g>
   <g id="patch_4">
    <path d="M 57.6 27.648 
L 360.8064 27.648 
" style="fill: none; stroke: #000000; stroke-width: 0.8; stroke-linejoin: miter; stroke-linecap: square"/>
   </g>
   <g id="text_13">
    <!-- LCGA -->
    <g transform="translate(386.578944 297.381205)scale(0.14 -0.14)">
     <defs>
      <path id="DejaVuSans-4c" d="M 628 4666 
L 1259 4666 
L 1259 531 
L 3531 531 
L 3531 0 
L 628 0 
L 628 4666 
z
" transform="scale(0.015625)"/>
      <path id="DejaVuSans-43" d="M 4122 4306 
L 4122 3641 
Q 3803 3938 3442 4084 
Q 3081 4231 2675 4231 
Q 1875 4231 1450 3742 
Q 1025 3253 1025 2328 
Q 1025 1406 1450 917 
Q 1875 428 2675 428 
Q 3081 428 3442 575 
Q 3803 722 4122 1019 
L 4122 359 
Q 3791 134 3420 21 
Q 3050 -91 2638 -91 
Q 1578 -91 968 557 
Q 359 1206 359 2328 
Q 359 3453 968 4101 
Q 1578 4750 2638 4750 
Q 3056 4750 3426 4639 
Q 3797 4528 4122 4306 
z
" transform="scale(0.015625)"/>
      <path id="DejaVuSans-47" d="M 3809 666 
L 3809 1919 
L 2778 1919 
L 2778 2438 
L 4434 2438 
L 4434 434 
Q 4069 175 3628 42 
Q 3188 -91 2688 -91 
Q 1594 -91 976 548 
Q 359 1188 359 2328 
Q 359 3472 976 4111 
Q 1594 4750 2688 4750 
Q 3144 4750 3555 4637 
Q 3966 4525 4313 4306 
L 4313 3634 
Q 3963 3931 3569 4081 
Q 3175 4231 2741 4231 
Q 1884 4231 1454 3753 
Q 1025 3275 1025 2328 
Q 1025 1384 1454 906 
Q 1884 428 2741 428 
Q 3075 428 3337 486 
Q 3600 544 3809 666 
z
" transform="scale(0.015625)"/>
      <path id="DejaVuSans-41" d="M 2188 4044 
L 1331 1722 
L 3047 1722 
L 2188 4044 
z
M 1831 4666 
L 2547 4666 
L 4325 0 
L 3669 0 
L 3244 1197 
L 1141 1197 
L 716 0 
L 50 0 
L 1831 4666 
z
" transform="scale(0.015625)"/>
     </defs>
     <use xlink:href="#DejaVuSans-4c"/>
     <use xlink:href="#DejaVuSans-43" x="55.712891"/>
     <use xlink:href="#DejaVuSans-47" x="125.537109"/>
     <use xlink:href="#DejaVuSans-41" x="203.027344"/>
    </g>
   </g>
   <g id="text_14">
    <!-- EvoSpace- -->
    <g transform="translate(386.578944 167.159125)scale(0.14 -0.14)">
     <defs>
      <path id="DejaVuSans-45" d="M 628 4666 
L 3578 4666 
L 3578 4134 
L 1259 4134 
L 1259 2753 
L 3481 2753 
L 3481 2222 
L 1259 2222 
L 1259 531 
L 3634 531 
L 3634 0 
L 628 0 
L 628 4666 
z
" transform="scale(0.015625)"/>
      <path id="DejaVuSans-53" d="M 3425 4513 
L 3425 3897 
Q 3066 4069 2747 4153 
Q 2428 4238 2131 4238 
Q 1616 4238 1336 4038 
Q 1056 3838 1056 3469 
Q 1056 3159 1242 3001 
Q 1428 2844 1947 2747 
L 2328 2669 
Q 3034 2534 3370 2195 
Q 3706 1856 3706 1288 
Q 3706 609 3251 259 
Q 2797 -91 1919 -91 
Q 1588 -91 1214 -16 
Q 841 59 441 206 
L 441 856 
Q 825 641 1194 531 
Q 1563 422 1919 422 
Q 2459 422 2753 634 
Q 3047 847 3047 1241 
Q 3047 1584 2836 1778 
Q 2625 1972 2144 2069 
L 1759 2144 
Q 1053 2284 737 2584 
Q 422 2884 422 3419 
Q 422 4038 858 4394 
Q 1294 4750 2059 4750 
Q 2388 4750 2728 4690 
Q 3069 4631 3425 4513 
z
" transform="scale(0.015625)"/>
     </defs>
     <use xlink:href="#DejaVuSans-45"/>
     <use xlink:href="#DejaVuSans-76" x="63.183594"/>
     <use xlink:href="#DejaVuSans-6f" x="122.363281"/>
     <use xlink:href="#DejaVuSans-53" x="183.544922"/>
     <use xlink:href="#DejaVuSans-70" x="247.021484"/>
     <use xlink:href="#DejaVuSans-61" x="310.498047"/>
     <use xlink:href="#DejaVuSans-63" x="371.777344"/>
     <use xlink:href="#DejaVuSans-65" x="426.757812"/>
     <use xlink:href="#DejaVuSans-2d" x="488.28125"/>
    </g>
   </g>
   <g id="text_15">
    <!-- best 2009 -->
    <g transform="translate(386.578944 36.937045)scale(0.14 -0.14)">
     <defs>
      <path id="DejaVuSans-62" d="M 3116 1747 
Q 3116 2381 2855 2742 
Q 2594 3103 2138 3103 
Q 1681 3103 1420 2742 
Q 1159 2381 1159 1747 
Q 1159 1113 1420 752 
Q 1681 391 2138 391 
Q 2594 391 2855 752 
Q 3116 1113 3116 1747 
z
M 1159 2969 
Q 1341 3281 1617 3432 
Q 1894 3584 2278 3584 
Q 2916 3584 3314 3078 
Q 3713 2572 3713 1747 
Q 3713 922 3314 415 
Q 2916 -91 2278 -91 
Q 1894 -91 1617 61 
Q 1341 213 1159 525 
L 1159 0 
L 581 0 
L 581 4863 
L 1159 4863 
L 1159 2969 
z
" transform="scale(0.015625)"/>
      <path id="DejaVuSans-39" d="M 703 97 
L 703 672 
Q 941 559 1184 500 
Q 1428 441 1663 441 
Q 2288 441 2617 861 
Q 2947 1281 2994 2138 
Q 2813 1869 2534 1725 
Q 2256 1581 1919 1581 
Q 1219 1581 811 2004 
Q 403 2428 403 3163 
Q 403 3881 828 4315 
Q 1253 4750 1959 4750 
Q 2769 4750 3195 4129 
Q 3622 3509 3622 2328 
Q 3622 1225 3098 567 
Q 2575 -91 1691 -91 
Q 1453 -91 1209 -44 
Q 966 3 703 97 
z
M 1959 2075 
Q 2384 2075 2632 2365 
Q 2881 2656 2881 3163 
Q 2881 3666 2632 3958 
Q 2384 4250 1959 4250 
Q 1534 4250 1286 3958 
Q 1038 3666 1038 3163 
Q 1038 2656 1286 2365 
Q 1534 2075 1959 2075 
z
" transform="scale(0.015625)"/>
     </defs>
     <use xlink:href="#DejaVuSans-62"/>
     <use xlink:href="#DejaVuSans-65" x="63.476562"/>
     <use xlink:href="#DejaVuSans-73" x="125"/>
     <use xlink:href="#DejaVuSans-74" x="177.099609"/>
     <use xlink:href="#DejaVuSans-20" x="216.308594"/>
     <use xlink:href="#DejaVuSans-32" x="248.095703"/>
     <use xlink:href="#DejaVuSans-30" x="311.71875"/>
     <use xlink:href="#DejaVuSans-30" x="375.341797"/>
     <use xlink:href="#DejaVuSans-39" x="438.964844"/>
    </g>
   </g>
   <g id="text_16">
    <!-- bbob f18, 5-D -->
    <g transform="translate(60.632064 38.111366)scale(0.102 -0.102)">
     <defs>
      <path id="DejaVuSans-35" d="M 691 4666 
L 3169 4666 
L 3169 4134 
L 1269 4134 
L 1269 2991 
Q 1406 3038 1543 3061 
Q 1681 3084 1819 3084 
Q 2600 3084 3056 2656 
Q 3513 2228 3513 1497 
Q 3513 744 3044 326 
Q 2575 -91 1722 -91 
Q 1428 -91 1123 -41 
Q 819 9 494 109 
L 494 744 
Q 775 591 1075 516 
Q 1375 441 1709 441 
Q 2250 441 2565 725 
Q 2881 1009 2881 1497 
Q 2881 1984 2565 2268 
Q 2250 2553 1709 2553 
Q 1456 2553 1204 2497 
Q 953 2441 691 2322 
L 691 4666 
z
" transform="scale(0.015625)"/>
      <path id="DejaVuSans-44" d="M 1259 4147 
L 1259 519 
L 2022 519 
Q 2988 519 3436 956 
Q 3884 1394 3884 2338 
Q 3884 3275 3436 3711 
Q 2988 4147 2022 4147 
L 1259 4147 
z
M 628 4666 
L 1925 4666 
Q 3281 4666 3915 4102 
Q 4550 3538 4550 2338 
Q 4550 1131 3912 565 
Q 3275 0 1925 0 
L 628 0 
L 628 4666 
z
" transform="scale(0.015625)"/>
     </defs>
     <use xlink:href="#DejaVuSans-62"/>
     <use xlink:href="#DejaVuSans-62" x="63.476562"/>
     <use xlink:href="#DejaVuSans-6f" x="126.953125"/>
     <use xlink:href="#DejaVuSans-62" x="188.134766"/>
     <use xlink:href="#DejaVuSans-20" x="251.611328"/>
     <use xlink:href="#DejaVuSans-66" x="283.398438"/>
     <use xlink:href="#DejaVuSans-31" x="318.603516"/>
     <use xlink:href="#DejaVuSans-38" x="382.226562"/>
     <use xlink:href="#DejaVuSans-2c" x="445.849609"/>
     <use xlink:href="#DejaVuSans-20" x="477.636719"/>
     <use xlink:href="#DejaVuSans-35" x="509.423828"/>
     <use xlink:href="#DejaVuSans-2d" x="573.046875"/>
     <use xlink:href="#DejaVuSans-44" x="609.130859"/>
    </g>
    <!-- 51 targets: 100..1e-08 -->
    <g transform="translate(60.632064 49.533135)scale(0.102 -0.102)">
     <defs>
      <path id="DejaVuSans-3a" d="M 750 794 
L 1409 794 
L 1409 0 
L 750 0 
L 750 794 
z
M 750 3309 
L 1409 3309 
L 1409 2516 
L 750 2516 
L 750 3309 
z
" transform="scale(0.015625)"/>
     </defs>
     <use xlink:href="#DejaVuSans-35"/>
     <use xlink:href="#DejaVuSans-31" x="63.623047"/>
     <use xlink:href="#DejaVuSans-20" x="127.246094"/>
     <use xlink:href="#DejaVuSans-74" x="159.033203"/>
     <use xlink:href="#DejaVuSans-61" x="198.242188"/>
     <use xlink:href="#DejaVuSans-72" x="259.521484"/>
     <use xlink:href="#DejaVuSans-67" x="298.884766"/>
     <use xlink:href="#DejaVuSans-65" x="362.361328"/>
     <use xlink:href="#DejaVuSans-74" x="423.884766"/>
     <use xlink:href="#DejaVuSans-73" x="463.09375"/>
     <use xlink:href="#DejaVuSans-3a" x="515.193359"/>
     <use xlink:href="#DejaVuSans-20" x="548.884766"/>
     <use xlink:href="#DejaVuSans-31" x="580.671875"/>
     <use xlink:href="#DejaVuSans-30" x="644.294922"/>
     <use xlink:href="#DejaVuSans-30" x="707.917969"/>
     <use xlink:href="#DejaVuSans-2e" x="771.541016"/>
     <use xlink:href="#DejaVuSans-2e" x="803.328125"/>
     <use xlink:href="#DejaVuSans-31" x="835.115234"/>
     <use xlink:href="#DejaVuSans-65" x="898.738281"/>
     <use xlink:href="#DejaVuSans-2d" x="960.261719"/>
     <use xlink:href="#DejaVuSans-30" x="996.345703"/>
     <use xlink:href="#DejaVuSans-38" x="1059.96875"/>
    </g>
    <!-- 15 instances -->
    <g transform="translate(60.632064 60.954904)scale(0.102 -0.102)">
     <use xlink:href="#DejaVuSans-31"/>
     <use xlink:href="#DejaVuSans-35" x="63.623047"/>
     <use xlink:href="#DejaVuSans-20" x="127.246094"/>
     <use xlink:href="#DejaVuSans-69" x="159.033203"/>
     <use xlink:href="#DejaVuSans-6e" x="186.816406"/>
     <use xlink:href="#DejaVuSans-73" x="250.195312"/>
     <use xlink:href="#DejaVuSans-74" x="302.294922"/>
     <use xlink:href="#DejaVuSans-61" x="341.503906"/>
     <use xlink:href="#DejaVuSans-6e" x="402.783203"/>
     <use xlink:href="#DejaVuSans-63" x="466.162109"/>
     <use xlink:href="#DejaVuSans-65" x="521.142578"/>
     <use xlink:href="#DejaVuSans-73" x="582.666016"/>
    </g>
   </g>
   <g id="text_17">
    <!-- v2.6 -->
    <g style="fill: #808080" transform="translate(198.292262 294.151352)scale(0.1 -0.1)">
     <use xlink:href="#DejaVuSans-76"/>
     <use xlink:href="#DejaVuSans-32" x="59.179688"/>
     <use xlink:href="#DejaVuSans-2e" x="122.802734"/>
     <use xlink:href="#DejaVuSans-36" x="154.589844"/>
    </g>
   </g>
   <g id="text_18">
    <!-- 18 Schaffer F7, condition 1000 -->
    <g transform="translate(55.170387 21.648)scale(0.2 -0.2)">
     <defs>
      <path id="DejaVuSans-68" d="M 3513 2113 
L 3513 0 
L 2938 0 
L 2938 2094 
Q 2938 2591 2744 2837 
Q 2550 3084 2163 3084 
Q 1697 3084 1428 2787 
Q 1159 2491 1159 1978 
L 1159 0 
L 581 0 
L 581 4863 
L 1159 4863 
L 1159 2956 
Q 1366 3272 1645 3428 
Q 1925 3584 2291 3584 
Q 2894 3584 3203 3211 
Q 3513 2838 3513 2113 
z
" transform="scale(0.015625)"/>
      <path id="DejaVuSans-37" d="M 525 4666 
L 3525 4666 
L 3525 4397 
L 1831 0 
L 1172 0 
L 2766 4134 
L 525 4134 
L 525 4666 
z
" transform="scale(0.015625)"/>
     </defs>
     <use xlink:href="#DejaVuSans-31"/>
     <use xlink:href="#DejaVuSans-38" x="63.623047"/>
     <use xlink:href="#DejaVuSans-20" x="127.246094"/>
     <use xlink:href="#DejaVuSans-53" x="159.033203"/>
     <use xlink:href="#DejaVuSans-63" x="222.509766"/>
     <use xlink:href="#DejaVuSans-68" x="277.490234"/>
     <use xlink:href="#DejaVuSans-61" x="340.869141"/>
     <use xlink:href="#DejaVuSans-66" x="402.148438"/>
     <use xlink:href="#DejaVuSans-66" x="437.353516"/>
     <use xlink:href="#DejaVuSans-65" x="472.558594"/>
     <use xlink:href="#DejaVuSans-72" x="534.082031"/>
     <use xlink:href="#DejaVuSans-20" x="575.195312"/>
     <use xlink:href="#DejaVuSans-46" x="606.982422"/>
     <use xlink:href="#DejaVuSans-37" x="664.501953"/>
     <use xlink:href="#DejaVuSans-2c" x="728.125"/>
     <use xlink:href="#DejaVuSans-20" x="759.912109"/>
     <use xlink:href="#DejaVuSans-63" x="791.699219"/>
     <use xlink:href="#DejaVuSans-6f" x="846.679688"/>
     <use xlink:href="#DejaVuSans-6e" x="907.861328"/>
     <use xlink:href="#DejaVuSans-64" x="971.240234"/>
     <use xlink:href="#DejaVuSans-69" x="1034.716797"/>
     <use xlink:href="#DejaVuSans-74" x="1062.5"/>
     <use xlink:href="#DejaVuSans-69" x="1101.708984"/>
     <use xlink:href="#DejaVuSans-6f" x="1129.492188"/>
     <use xlink:href="#DejaVuSans-6e" x="1190.673828"/>
     <use xlink:href="#DejaVuSans-20" x="1254.052734"/>
     <use xlink:href="#DejaVuSans-31" x="1285.839844"/>
     <use xlink:href="#DejaVuSans-30" x="1349.462891"/>
     <use xlink:href="#DejaVuSans-30" x="1413.085938"/>
     <use xlink:href="#DejaVuSans-30" x="1476.708984"/>
    </g>
   </g>
  </g>
 </g>
 <defs>
  <clipPath id="pc55abb83f1">
   <rect x="57.6" y="27.648" width="303.2064" height="271.296"/>
  </clipPath>
 </defs>
</svg>
