<?xml version="1.0" encoding="utf-8" standalone="no"?>
<!DOCTYPE svg PUBLIC "-//W3C//DTD SVG 1.1//EN"
  "http://www.w3.org/Graphics/SVG/1.1/DTD/svg11.dtd">
<svg xmlns:xlink="http://www.w3.org/1999/xlink" width="460.8pt" height="345.6pt" viewBox="0 0 460.8 345.6" xmlns="http://www.w3.org/2000/svg" version="1.1">
 <metadata>
  <rdf:RDF xmlns:dc="http://purl.org/dc/elements/1.1/" xmlns:cc="http://creativecommons.org/ns#" xmlns:rdf="http://www.w3.org/1999/02/22-rdf-syntax-ns#">
   <cc:Work>
    <dc:type rdf:resource="http://purl.org/dc/dcmitype/StillImage"/>
    <dc:date>2024-05-29T08:06:09.078236</dc:date>
    <dc:format>image/svg+xml</dc:format>
    <dc:creator>
     <cc:Agent>
      <dc:title>Matplotlib v3.5.1, https://matplotlib.org/</dc:title>
     </cc:Agent>
    </dc:creator>
   </cc:Work>
  </rdf:RDF>
 </metadata>
 <defs>
  <style type="text/css">*{stroke-linejoin: round; stroke-linecap: butt}</style>
 </defs>
 <g id="figure_1">
  <g id="patch_1">
   <path d="M 0 345.6 
L 460.8 345.6 
L 460.8 0 
L 0 0 
z
" style="fill: #ffffff"/>
  </g>
  <g id="axes_1">
   <g id="patch_2">
    <path d="M 57.6 298.944 
L 360.8064 298.944 
L 360.8064 27.648 
L 57.6 27.648 
z
" style="fill: #ffffff"/>
   </g>
   <g id="line2d_1">
    <path d="M 14.2848 298.944 
L 14.2848 293.624471 
L 68.65718 293.624471 
L 68.65718 288.304941 
L 78.266603 288.304941 
L 78.266603 282.985412 
L 85.038813 282.985412 
L 85.038813 277.665882 
L 95.998523 277.665882 
L 95.998523 272.346353 
L 100.535156 272.346353 
L 100.535156 267.026824 
L 109.159456 267.026824 
L 109.159456 261.707294 
L 135.568632 261.707294 
L 135.568632 256.387765 
L 140.312801 256.387765 
L 140.312801 251.068235 
L 163.786321 251.068235 
L 163.786321 245.748706 
L 163.85935 245.748706 
L 163.85935 240.429176 
L 178.244035 240.429176 
L 178.244035 235.109647 
L 178.546935 235.109647 
L 178.546935 229.790118 
L 178.661917 229.790118 
L 178.661917 224.470588 
L 178.71313 224.470588 
L 178.71313 219.151059 
L 179.01159 219.151059 
L 179.01159 213.831529 
L 179.111997 213.831529 
L 179.111997 208.512 
L 179.311218 208.512 
L 179.311218 203.192471 
L 179.447692 203.192471 
L 179.447692 197.872941 
L 179.568815 197.872941 
L 179.568815 192.553412 
L 179.786028 192.553412 
L 179.786028 187.233882 
L 179.871084 187.233882 
L 179.871084 181.914353 
L 179.913468 181.914353 
L 179.913468 176.594824 
L 180.13513 176.594824 
L 180.13513 171.275294 
L 180.257464 171.275294 
L 180.257464 165.955765 
L 180.285156 165.955765 
L 180.285156 160.636235 
L 180.499771 160.636235 
L 180.499771 155.316706 
L 180.527109 155.316706 
L 180.527109 149.997176 
L 180.546222 149.997176 
L 180.546222 144.677647 
L 180.59256 144.677647 
L 180.59256 139.358118 
L 180.630634 139.358118 
L 180.630634 134.038588 
L 180.884301 134.038588 
L 180.884301 128.719059 
L 180.916439 128.719059 
L 180.916439 123.399529 
L 181.073658 123.399529 
L 181.073658 118.08 
L 184.010964 118.08 
L 184.010964 112.760471 
L 184.031383 112.760471 
L 184.031383 107.440941 
L 184.245576 107.440941 
L 184.245576 102.121412 
L 184.30154 102.121412 
L 184.30154 96.801882 
L 184.326111 96.801882 
L 184.326111 91.482353 
L 184.426297 91.482353 
L 184.426297 86.162824 
L 188.050439 86.162824 
L 188.050439 80.843294 
L 188.065084 80.843294 
L 188.065084 75.523765 
L 188.097994 75.523765 
L 188.097994 70.204235 
L 188.118077 70.204235 
L 188.118077 64.884706 
L 188.147251 64.884706 
L 188.147251 59.565176 
L 188.194562 59.565176 
L 188.194562 54.245647 
L 188.207279 54.245647 
L 188.207279 48.926118 
L 193.154769 48.926118 
L 193.154769 43.606588 
L 193.202178 43.606588 
L 193.202178 38.287059 
L 193.235571 38.287059 
L 193.235571 32.967529 
L 193.485521 32.967529 
L 193.485521 27.648 
L 360.8064 27.648 
" style="fill: none; stroke: #f5deb3; stroke-width: 4; stroke-linecap: square"/>
   </g>
   <g id="line2d_2">
    <defs>
     <path id="m9ce6ee191c" d="M 0 7.778175 
L 7.778175 0 
L 0 -7.778175 
L -7.778175 0 
z
" style="stroke: #f5deb3; stroke-width: 1.5; stroke-linejoin: miter"/>
    </defs>
    <g>
     <use xlink:href="#m9ce6ee191c" x="140.312801" y="251.068235" style="fill: #f5deb3; stroke: #f5deb3; stroke-width: 1.5; stroke-linejoin: miter"/>
     <use xlink:href="#m9ce6ee191c" x="180.499771" y="160.636235" style="fill: #f5deb3; stroke: #f5deb3; stroke-width: 1.5; stroke-linejoin: miter"/>
     <use xlink:href="#m9ce6ee191c" x="193.235571" y="38.287059" style="fill: #f5deb3; stroke: #f5deb3; stroke-width: 1.5; stroke-linejoin: miter"/>
     <use xlink:href="#m9ce6ee191c" x="193.485521" y="27.648" style="fill: #f5deb3; stroke: #f5deb3; stroke-width: 1.5; stroke-linejoin: miter"/>
     <use xlink:href="#m9ce6ee191c" x="193.485521" y="27.648" style="fill: #f5deb3; stroke: #f5deb3; stroke-width: 1.5; stroke-linejoin: miter"/>
     <use xlink:href="#m9ce6ee191c" x="360.8064" y="27.648" style="fill: #f5deb3; stroke: #f5deb3; stroke-width: 1.5; stroke-linejoin: miter"/>
    </g>
   </g>
   <g id="line2d_3">
    <path style="fill: none; stroke: #f5deb3; stroke-width: 4; stroke-linecap: square"/>
    <g/>
   </g>
   <g id="line2d_4">
    <path d="M 360.8064 27.648 
L 380.514816 33.07392 
" style="fill: none; stroke: #f5deb3; stroke-width: 4; stroke-linecap: square"/>
    <g>
     <use xlink:href="#m9ce6ee191c" x="360.8064" y="27.648" style="fill: #f5deb3; stroke: #f5deb3; stroke-width: 1.5; stroke-linejoin: miter"/>
     <use xlink:href="#m9ce6ee191c" x="380.514816" y="33.07392" style="fill: #f5deb3; stroke: #f5deb3; stroke-width: 1.5; stroke-linejoin: miter"/>
    </g>
   </g>
   <g id="matplotlib.axis_1">
    <g id="xtick_1">
     <g id="line2d_5">
      <path d="M 57.6 298.944 
L 57.6 27.648 
" clip-path="url(#p5e716755bf)" style="fill: none; stroke: #b0b0b0; stroke-width: 0.8; stroke-linecap: square"/>
     </g>
     <g id="line2d_6">
      <defs>
       <path id="m6cf27bf639" d="M 0 0 
L 0 3.5 
" style="stroke: #000000; stroke-width: 0.8"/>
      </defs>
      <g>
       <use xlink:href="#m6cf27bf639" x="57.6" y="298.944" style="stroke: #000000; stroke-width: 0.8"/>
      </g>
     </g>
     <g id="text_1">
      <!-- 0 -->
      <g transform="translate(52.191875 318.861344)scale(0.17 -0.17)">
       <defs>
        <path id="DejaVuSans-30" d="M 2034 4250 
Q 1547 4250 1301 3770 
Q 1056 3291 1056 2328 
Q 1056 1369 1301 889 
Q 1547 409 2034 409 
Q 2525 409 2770 889 
Q 3016 1369 3016 2328 
Q 3016 3291 2770 3770 
Q 2525 4250 2034 4250 
z
M 2034 4750 
Q 2819 4750 3233 4129 
Q 3647 3509 3647 2328 
Q 3647 1150 3233 529 
Q 2819 -91 2034 -91 
Q 1250 -91 836 529 
Q 422 1150 422 2328 
Q 422 3509 836 4129 
Q 1250 4750 2034 4750 
z
" transform="scale(0.015625)"/>
       </defs>
       <use xlink:href="#DejaVuSans-30"/>
      </g>
     </g>
    </g>
    <g id="xtick_2">
     <g id="line2d_7">
      <path d="M 144.2304 298.944 
L 144.2304 27.648 
" clip-path="url(#p5e716755bf)" style="fill: none; stroke: #b0b0b0; stroke-width: 0.8; stroke-linecap: square"/>
     </g>
     <g id="line2d_8">
      <g>
       <use xlink:href="#m6cf27bf639" x="144.2304" y="298.944" style="stroke: #000000; stroke-width: 0.8"/>
      </g>
     </g>
     <g id="text_2">
      <!-- 2 -->
      <g transform="translate(138.822275 318.861344)scale(0.17 -0.17)">
       <defs>
        <path id="DejaVuSans-32" d="M 1228 531 
L 3431 531 
L 3431 0 
L 469 0 
L 469 531 
Q 828 903 1448 1529 
Q 2069 2156 2228 2338 
Q 2531 2678 2651 2914 
Q 2772 3150 2772 3378 
Q 2772 3750 2511 3984 
Q 2250 4219 1831 4219 
Q 1534 4219 1204 4116 
Q 875 4013 500 3803 
L 500 4441 
Q 881 4594 1212 4672 
Q 1544 4750 1819 4750 
Q 2544 4750 2975 4387 
Q 3406 4025 3406 3419 
Q 3406 3131 3298 2873 
Q 3191 2616 2906 2266 
Q 2828 2175 2409 1742 
Q 1991 1309 1228 531 
z
" transform="scale(0.015625)"/>
       </defs>
       <use xlink:href="#DejaVuSans-32"/>
      </g>
     </g>
    </g>
    <g id="xtick_3">
     <g id="line2d_9">
      <path d="M 230.8608 298.944 
L 230.8608 27.648 
" clip-path="url(#p5e716755bf)" style="fill: none; stroke: #b0b0b0; stroke-width: 0.8; stroke-linecap: square"/>
     </g>
     <g id="line2d_10">
      <g>
       <use xlink:href="#m6cf27bf639" x="230.8608" y="298.944" style="stroke: #000000; stroke-width: 0.8"/>
      </g>
     </g>
     <g id="text_3">
      <!-- 4 -->
      <g transform="translate(225.452675 318.861344)scale(0.17 -0.17)">
       <defs>
        <path id="DejaVuSans-34" d="M 2419 4116 
L 825 1625 
L 2419 1625 
L 2419 4116 
z
M 2253 4666 
L 3047 4666 
L 3047 1625 
L 3713 1625 
L 3713 1100 
L 3047 1100 
L 3047 0 
L 2419 0 
L 2419 1100 
L 313 1100 
L 313 1709 
L 2253 4666 
z
" transform="scale(0.015625)"/>
       </defs>
       <use xlink:href="#DejaVuSans-34"/>
      </g>
     </g>
    </g>
    <g id="xtick_4">
     <g id="line2d_11">
      <path d="M 317.4912 298.944 
L 317.4912 27.648 
" clip-path="url(#p5e716755bf)" style="fill: none; stroke: #b0b0b0; stroke-width: 0.8; stroke-linecap: square"/>
     </g>
     <g id="line2d_12">
      <g>
       <use xlink:href="#m6cf27bf639" x="317.4912" y="298.944" style="stroke: #000000; stroke-width: 0.8"/>
      </g>
     </g>
     <g id="text_4">
      <!-- 6 -->
      <g transform="translate(312.083075 318.861344)scale(0.17 -0.17)">
       <defs>
        <path id="DejaVuSans-36" d="M 2113 2584 
Q 1688 2584 1439 2293 
Q 1191 2003 1191 1497 
Q 1191 994 1439 701 
Q 1688 409 2113 409 
Q 2538 409 2786 701 
Q 3034 994 3034 1497 
Q 3034 2003 2786 2293 
Q 2538 2584 2113 2584 
z
M 3366 4563 
L 3366 3988 
Q 3128 4100 2886 4159 
Q 2644 4219 2406 4219 
Q 1781 4219 1451 3797 
Q 1122 3375 1075 2522 
Q 1259 2794 1537 2939 
Q 1816 3084 2150 3084 
Q 2853 3084 3261 2657 
Q 3669 2231 3669 1497 
Q 3669 778 3244 343 
Q 2819 -91 2113 -91 
Q 1303 -91 875 529 
Q 447 1150 447 2328 
Q 447 3434 972 4092 
Q 1497 4750 2381 4750 
Q 2619 4750 2861 4703 
Q 3103 4656 3366 4563 
z
" transform="scale(0.015625)"/>
       </defs>
       <use xlink:href="#DejaVuSans-36"/>
      </g>
     </g>
    </g>
    <g id="xtick_5">
     <g id="line2d_13">
      <path d="M 100.9152 298.944 
L 100.9152 27.648 
" clip-path="url(#p5e716755bf)" style="fill: none; stroke: #b0b0b0; stroke-width: 0.8; stroke-linecap: square"/>
     </g>
     <g id="line2d_14">
      <defs>
       <path id="mde52a44bd8" d="M 0 0 
L 0 2 
" style="stroke: #000000; stroke-width: 0.6"/>
      </defs>
      <g>
       <use xlink:href="#mde52a44bd8" x="100.9152" y="298.944" style="stroke: #000000; stroke-width: 0.6"/>
      </g>
     </g>
    </g>
    <g id="xtick_6">
     <g id="line2d_15">
      <path d="M 187.5456 298.944 
L 187.5456 27.648 
" clip-path="url(#p5e716755bf)" style="fill: none; stroke: #b0b0b0; stroke-width: 0.8; stroke-linecap: square"/>
     </g>
     <g id="line2d_16">
      <g>
       <use xlink:href="#mde52a44bd8" x="187.5456" y="298.944" style="stroke: #000000; stroke-width: 0.6"/>
      </g>
     </g>
    </g>
    <g id="xtick_7">
     <g id="line2d_17">
      <path d="M 274.176 298.944 
L 274.176 27.648 
" clip-path="url(#p5e716755bf)" style="fill: none; stroke: #b0b0b0; stroke-width: 0.8; stroke-linecap: square"/>
     </g>
     <g id="line2d_18">
      <g>
       <use xlink:href="#mde52a44bd8" x="274.176" y="298.944" style="stroke: #000000; stroke-width: 0.6"/>
      </g>
     </g>
    </g>
    <g id="xtick_8">
     <g id="line2d_19">
      <path d="M 360.8064 298.944 
L 360.8064 27.648 
" clip-path="url(#p5e716755bf)" style="fill: none; stroke: #b0b0b0; stroke-width: 0.8; stroke-linecap: square"/>
     </g>
     <g id="line2d_20">
      <g>
       <use xlink:href="#mde52a44bd8" x="360.8064" y="298.944" style="stroke: #000000; stroke-width: 0.6"/>
      </g>
     </g>
    </g>
    <g id="text_5">
     <!-- log10(# f-evals / dimension) -->
     <g transform="translate(88.823278 339.314156)scale(0.17 -0.17)">
      <defs>
       <path id="DejaVuSans-6c" d="M 603 4863 
L 1178 4863 
L 1178 0 
L 603 0 
L 603 4863 
z
" transform="scale(0.015625)"/>
       <path id="DejaVuSans-6f" d="M 1959 3097 
Q 1497 3097 1228 2736 
Q 959 2375 959 1747 
Q 959 1119 1226 758 
Q 1494 397 1959 397 
Q 2419 397 2687 759 
Q 2956 1122 2956 1747 
Q 2956 2369 2687 2733 
Q 2419 3097 1959 3097 
z
M 1959 3584 
Q 2709 3584 3137 3096 
Q 3566 2609 3566 1747 
Q 3566 888 3137 398 
Q 2709 -91 1959 -91 
Q 1206 -91 779 398 
Q 353 888 353 1747 
Q 353 2609 779 3096 
Q 1206 3584 1959 3584 
z
" transform="scale(0.015625)"/>
       <path id="DejaVuSans-67" d="M 2906 1791 
Q 2906 2416 2648 2759 
Q 2391 3103 1925 3103 
Q 1463 3103 1205 2759 
Q 947 2416 947 1791 
Q 947 1169 1205 825 
Q 1463 481 1925 481 
Q 2391 481 2648 825 
Q 2906 1169 2906 1791 
z
M 3481 434 
Q 3481 -459 3084 -895 
Q 2688 -1331 1869 -1331 
Q 1566 -1331 1297 -1286 
Q 1028 -1241 775 -1147 
L 775 -588 
Q 1028 -725 1275 -790 
Q 1522 -856 1778 -856 
Q 2344 -856 2625 -561 
Q 2906 -266 2906 331 
L 2906 616 
Q 2728 306 2450 153 
Q 2172 0 1784 0 
Q 1141 0 747 490 
Q 353 981 353 1791 
Q 353 2603 747 3093 
Q 1141 3584 1784 3584 
Q 2172 3584 2450 3431 
Q 2728 3278 2906 2969 
L 2906 3500 
L 3481 3500 
L 3481 434 
z
" transform="scale(0.015625)"/>
       <path id="DejaVuSans-31" d="M 794 531 
L 1825 531 
L 1825 4091 
L 703 3866 
L 703 4441 
L 1819 4666 
L 2450 4666 
L 2450 531 
L 3481 531 
L 3481 0 
L 794 0 
L 794 531 
z
" transform="scale(0.015625)"/>
       <path id="DejaVuSans-28" d="M 1984 4856 
Q 1566 4138 1362 3434 
Q 1159 2731 1159 2009 
Q 1159 1288 1364 580 
Q 1569 -128 1984 -844 
L 1484 -844 
Q 1016 -109 783 600 
Q 550 1309 550 2009 
Q 550 2706 781 3412 
Q 1013 4119 1484 4856 
L 1984 4856 
z
" transform="scale(0.015625)"/>
       <path id="DejaVuSans-23" d="M 3272 2816 
L 2363 2816 
L 2100 1772 
L 3016 1772 
L 3272 2816 
z
M 2803 4594 
L 2478 3297 
L 3391 3297 
L 3719 4594 
L 4219 4594 
L 3897 3297 
L 4872 3297 
L 4872 2816 
L 3775 2816 
L 3519 1772 
L 4513 1772 
L 4513 1294 
L 3397 1294 
L 3072 0 
L 2572 0 
L 2894 1294 
L 1978 1294 
L 1656 0 
L 1153 0 
L 1478 1294 
L 494 1294 
L 494 1772 
L 1594 1772 
L 1856 2816 
L 850 2816 
L 850 3297 
L 1978 3297 
L 2297 4594 
L 2803 4594 
z
" transform="scale(0.015625)"/>
       <path id="DejaVuSans-20" transform="scale(0.015625)"/>
       <path id="DejaVuSans-66" d="M 2375 4863 
L 2375 4384 
L 1825 4384 
Q 1516 4384 1395 4259 
Q 1275 4134 1275 3809 
L 1275 3500 
L 2222 3500 
L 2222 3053 
L 1275 3053 
L 1275 0 
L 697 0 
L 697 3053 
L 147 3053 
L 147 3500 
L 697 3500 
L 697 3744 
Q 697 4328 969 4595 
Q 1241 4863 1831 4863 
L 2375 4863 
z
" transform="scale(0.015625)"/>
       <path id="DejaVuSans-2d" d="M 313 2009 
L 1997 2009 
L 1997 1497 
L 313 1497 
L 313 2009 
z
" transform="scale(0.015625)"/>
       <path id="DejaVuSans-65" d="M 3597 1894 
L 3597 1613 
L 953 1613 
Q 991 1019 1311 708 
Q 1631 397 2203 397 
Q 2534 397 2845 478 
Q 3156 559 3463 722 
L 3463 178 
Q 3153 47 2828 -22 
Q 2503 -91 2169 -91 
Q 1331 -91 842 396 
Q 353 884 353 1716 
Q 353 2575 817 3079 
Q 1281 3584 2069 3584 
Q 2775 3584 3186 3129 
Q 3597 2675 3597 1894 
z
M 3022 2063 
Q 3016 2534 2758 2815 
Q 2500 3097 2075 3097 
Q 1594 3097 1305 2825 
Q 1016 2553 972 2059 
L 3022 2063 
z
" transform="scale(0.015625)"/>
       <path id="DejaVuSans-76" d="M 191 3500 
L 800 3500 
L 1894 563 
L 2988 3500 
L 3597 3500 
L 2284 0 
L 1503 0 
L 191 3500 
z
" transform="scale(0.015625)"/>
       <path id="DejaVuSans-61" d="M 2194 1759 
Q 1497 1759 1228 1600 
Q 959 1441 959 1056 
Q 959 750 1161 570 
Q 1363 391 1709 391 
Q 2188 391 2477 730 
Q 2766 1069 2766 1631 
L 2766 1759 
L 2194 1759 
z
M 3341 1997 
L 3341 0 
L 2766 0 
L 2766 531 
Q 2569 213 2275 61 
Q 1981 -91 1556 -91 
Q 1019 -91 701 211 
Q 384 513 384 1019 
Q 384 1609 779 1909 
Q 1175 2209 1959 2209 
L 2766 2209 
L 2766 2266 
Q 2766 2663 2505 2880 
Q 2244 3097 1772 3097 
Q 1472 3097 1187 3025 
Q 903 2953 641 2809 
L 641 3341 
Q 956 3463 1253 3523 
Q 1550 3584 1831 3584 
Q 2591 3584 2966 3190 
Q 3341 2797 3341 1997 
z
" transform="scale(0.015625)"/>
       <path id="DejaVuSans-73" d="M 2834 3397 
L 2834 2853 
Q 2591 2978 2328 3040 
Q 2066 3103 1784 3103 
Q 1356 3103 1142 2972 
Q 928 2841 928 2578 
Q 928 2378 1081 2264 
Q 1234 2150 1697 2047 
L 1894 2003 
Q 2506 1872 2764 1633 
Q 3022 1394 3022 966 
Q 3022 478 2636 193 
Q 2250 -91 1575 -91 
Q 1294 -91 989 -36 
Q 684 19 347 128 
L 347 722 
Q 666 556 975 473 
Q 1284 391 1588 391 
Q 1994 391 2212 530 
Q 2431 669 2431 922 
Q 2431 1156 2273 1281 
Q 2116 1406 1581 1522 
L 1381 1569 
Q 847 1681 609 1914 
Q 372 2147 372 2553 
Q 372 3047 722 3315 
Q 1072 3584 1716 3584 
Q 2034 3584 2315 3537 
Q 2597 3491 2834 3397 
z
" transform="scale(0.015625)"/>
       <path id="DejaVuSans-2f" d="M 1625 4666 
L 2156 4666 
L 531 -594 
L 0 -594 
L 1625 4666 
z
" transform="scale(0.015625)"/>
       <path id="DejaVuSans-64" d="M 2906 2969 
L 2906 4863 
L 3481 4863 
L 3481 0 
L 2906 0 
L 2906 525 
Q 2725 213 2448 61 
Q 2172 -91 1784 -91 
Q 1150 -91 751 415 
Q 353 922 353 1747 
Q 353 2572 751 3078 
Q 1150 3584 1784 3584 
Q 2172 3584 2448 3432 
Q 2725 3281 2906 2969 
z
M 947 1747 
Q 947 1113 1208 752 
Q 1469 391 1925 391 
Q 2381 391 2643 752 
Q 2906 1113 2906 1747 
Q 2906 2381 2643 2742 
Q 2381 3103 1925 3103 
Q 1469 3103 1208 2742 
Q 947 2381 947 1747 
z
" transform="scale(0.015625)"/>
       <path id="DejaVuSans-69" d="M 603 3500 
L 1178 3500 
L 1178 0 
L 603 0 
L 603 3500 
z
M 603 4863 
L 1178 4863 
L 1178 4134 
L 603 4134 
L 603 4863 
z
" transform="scale(0.015625)"/>
       <path id="DejaVuSans-6d" d="M 3328 2828 
Q 3544 3216 3844 3400 
Q 4144 3584 4550 3584 
Q 5097 3584 5394 3201 
Q 5691 2819 5691 2113 
L 5691 0 
L 5113 0 
L 5113 2094 
Q 5113 2597 4934 2840 
Q 4756 3084 4391 3084 
Q 3944 3084 3684 2787 
Q 3425 2491 3425 1978 
L 3425 0 
L 2847 0 
L 2847 2094 
Q 2847 2600 2669 2842 
Q 2491 3084 2119 3084 
Q 1678 3084 1418 2786 
Q 1159 2488 1159 1978 
L 1159 0 
L 581 0 
L 581 3500 
L 1159 3500 
L 1159 2956 
Q 1356 3278 1631 3431 
Q 1906 3584 2284 3584 
Q 2666 3584 2933 3390 
Q 3200 3197 3328 2828 
z
" transform="scale(0.015625)"/>
       <path id="DejaVuSans-6e" d="M 3513 2113 
L 3513 0 
L 2938 0 
L 2938 2094 
Q 2938 2591 2744 2837 
Q 2550 3084 2163 3084 
Q 1697 3084 1428 2787 
Q 1159 2491 1159 1978 
L 1159 0 
L 581 0 
L 581 3500 
L 1159 3500 
L 1159 2956 
Q 1366 3272 1645 3428 
Q 1925 3584 2291 3584 
Q 2894 3584 3203 3211 
Q 3513 2838 3513 2113 
z
" transform="scale(0.015625)"/>
       <path id="DejaVuSans-29" d="M 513 4856 
L 1013 4856 
Q 1481 4119 1714 3412 
Q 1947 2706 1947 2009 
Q 1947 1309 1714 600 
Q 1481 -109 1013 -844 
L 513 -844 
Q 928 -128 1133 580 
Q 1338 1288 1338 2009 
Q 1338 2731 1133 3434 
Q 928 4138 513 4856 
z
" transform="scale(0.015625)"/>
      </defs>
      <use xlink:href="#DejaVuSans-6c"/>
      <use xlink:href="#DejaVuSans-6f" x="27.783203"/>
      <use xlink:href="#DejaVuSans-67" x="88.964844"/>
      <use xlink:href="#DejaVuSans-31" x="152.441406"/>
      <use xlink:href="#DejaVuSans-30" x="216.064453"/>
      <use xlink:href="#DejaVuSans-28" x="279.6875"/>
      <use xlink:href="#DejaVuSans-23" x="318.701172"/>
      <use xlink:href="#DejaVuSans-20" x="402.490234"/>
      <use xlink:href="#DejaVuSans-66" x="434.277344"/>
      <use xlink:href="#DejaVuSans-2d" x="463.982422"/>
      <use xlink:href="#DejaVuSans-65" x="500.066406"/>
      <use xlink:href="#DejaVuSans-76" x="561.589844"/>
      <use xlink:href="#DejaVuSans-61" x="620.769531"/>
      <use xlink:href="#DejaVuSans-6c" x="682.048828"/>
      <use xlink:href="#DejaVuSans-73" x="709.832031"/>
      <use xlink:href="#DejaVuSans-20" x="761.931641"/>
      <use xlink:href="#DejaVuSans-2f" x="793.71875"/>
      <use xlink:href="#DejaVuSans-20" x="827.410156"/>
      <use xlink:href="#DejaVuSans-64" x="859.197266"/>
      <use xlink:href="#DejaVuSans-69" x="922.673828"/>
      <use xlink:href="#DejaVuSans-6d" x="950.457031"/>
      <use xlink:href="#DejaVuSans-65" x="1047.869141"/>
      <use xlink:href="#DejaVuSans-6e" x="1109.392578"/>
      <use xlink:href="#DejaVuSans-73" x="1172.771484"/>
      <use xlink:href="#DejaVuSans-69" x="1224.871094"/>
      <use xlink:href="#DejaVuSans-6f" x="1252.654297"/>
      <use xlink:href="#DejaVuSans-6e" x="1313.835938"/>
      <use xlink:href="#DejaVuSans-29" x="1377.214844"/>
     </g>
    </g>
   </g>
   <g id="matplotlib.axis_2">
    <g id="ytick_1">
     <g id="line2d_21">
      <path d="M 57.6 298.944 
L 360.8064 298.944 
" clip-path="url(#p5e716755bf)" style="fill: none; stroke: #b0b0b0; stroke-width: 0.8; stroke-linecap: square"/>
     </g>
     <g id="line2d_22">
      <defs>
       <path id="m1091adfede" d="M 0 0 
L -3.5 0 
" style="stroke: #000000; stroke-width: 0.8"/>
      </defs>
      <g>
       <use xlink:href="#m1091adfede" x="57.6" y="298.944" style="stroke: #000000; stroke-width: 0.8"/>
      </g>
     </g>
     <g id="text_6">
      <!-- 0.0 -->
      <g transform="translate(25.155 305.02275)scale(0.16 -0.16)">
       <defs>
        <path id="DejaVuSans-2e" d="M 684 794 
L 1344 794 
L 1344 0 
L 684 0 
L 684 794 
z
" transform="scale(0.015625)"/>
       </defs>
       <use xlink:href="#DejaVuSans-30"/>
       <use xlink:href="#DejaVuSans-2e" x="63.623047"/>
       <use xlink:href="#DejaVuSans-30" x="95.410156"/>
      </g>
     </g>
    </g>
    <g id="ytick_2">
     <g id="line2d_23">
      <path d="M 57.6 244.6848 
L 360.8064 244.6848 
" clip-path="url(#p5e716755bf)" style="fill: none; stroke: #b0b0b0; stroke-width: 0.8; stroke-linecap: square"/>
     </g>
     <g id="line2d_24">
      <g>
       <use xlink:href="#m1091adfede" x="57.6" y="244.6848" style="stroke: #000000; stroke-width: 0.8"/>
      </g>
     </g>
     <g id="text_7">
      <!-- 0.2 -->
      <g transform="translate(25.155 250.76355)scale(0.16 -0.16)">
       <use xlink:href="#DejaVuSans-30"/>
       <use xlink:href="#DejaVuSans-2e" x="63.623047"/>
       <use xlink:href="#DejaVuSans-32" x="95.410156"/>
      </g>
     </g>
    </g>
    <g id="ytick_3">
     <g id="line2d_25">
      <path d="M 57.6 190.4256 
L 360.8064 190.4256 
" clip-path="url(#p5e716755bf)" style="fill: none; stroke: #b0b0b0; stroke-width: 0.8; stroke-linecap: square"/>
     </g>
     <g id="line2d_26">
      <g>
       <use xlink:href="#m1091adfede" x="57.6" y="190.4256" style="stroke: #000000; stroke-width: 0.8"/>
      </g>
     </g>
     <g id="text_8">
      <!-- 0.4 -->
      <g transform="translate(25.155 196.50435)scale(0.16 -0.16)">
       <use xlink:href="#DejaVuSans-30"/>
       <use xlink:href="#DejaVuSans-2e" x="63.623047"/>
       <use xlink:href="#DejaVuSans-34" x="95.410156"/>
      </g>
     </g>
    </g>
    <g id="ytick_4">
     <g id="line2d_27">
      <path d="M 57.6 136.1664 
L 360.8064 136.1664 
" clip-path="url(#p5e716755bf)" style="fill: none; stroke: #b0b0b0; stroke-width: 0.8; stroke-linecap: square"/>
     </g>
     <g id="line2d_28">
      <g>
       <use xlink:href="#m1091adfede" x="57.6" y="136.1664" style="stroke: #000000; stroke-width: 0.8"/>
      </g>
     </g>
     <g id="text_9">
      <!-- 0.6 -->
      <g transform="translate(25.155 142.24515)scale(0.16 -0.16)">
       <use xlink:href="#DejaVuSans-30"/>
       <use xlink:href="#DejaVuSans-2e" x="63.623047"/>
       <use xlink:href="#DejaVuSans-36" x="95.410156"/>
      </g>
     </g>
    </g>
    <g id="ytick_5">
     <g id="line2d_29">
      <path d="M 57.6 81.9072 
L 360.8064 81.9072 
" clip-path="url(#p5e716755bf)" style="fill: none; stroke: #b0b0b0; stroke-width: 0.8; stroke-linecap: square"/>
     </g>
     <g id="line2d_30">
      <g>
       <use xlink:href="#m1091adfede" x="57.6" y="81.9072" style="stroke: #000000; stroke-width: 0.8"/>
      </g>
     </g>
     <g id="text_10">
      <!-- 0.8 -->
      <g transform="translate(25.155 87.98595)scale(0.16 -0.16)">
       <defs>
        <path id="DejaVuSans-38" d="M 2034 2216 
Q 1584 2216 1326 1975 
Q 1069 1734 1069 1313 
Q 1069 891 1326 650 
Q 1584 409 2034 409 
Q 2484 409 2743 651 
Q 3003 894 3003 1313 
Q 3003 1734 2745 1975 
Q 2488 2216 2034 2216 
z
M 1403 2484 
Q 997 2584 770 2862 
Q 544 3141 544 3541 
Q 544 4100 942 4425 
Q 1341 4750 2034 4750 
Q 2731 4750 3128 4425 
Q 3525 4100 3525 3541 
Q 3525 3141 3298 2862 
Q 3072 2584 2669 2484 
Q 3125 2378 3379 2068 
Q 3634 1759 3634 1313 
Q 3634 634 3220 271 
Q 2806 -91 2034 -91 
Q 1263 -91 848 271 
Q 434 634 434 1313 
Q 434 1759 690 2068 
Q 947 2378 1403 2484 
z
M 1172 3481 
Q 1172 3119 1398 2916 
Q 1625 2713 2034 2713 
Q 2441 2713 2670 2916 
Q 2900 3119 2900 3481 
Q 2900 3844 2670 4047 
Q 2441 4250 2034 4250 
Q 1625 4250 1398 4047 
Q 1172 3844 1172 3481 
z
" transform="scale(0.015625)"/>
       </defs>
       <use xlink:href="#DejaVuSans-30"/>
       <use xlink:href="#DejaVuSans-2e" x="63.623047"/>
       <use xlink:href="#DejaVuSans-38" x="95.410156"/>
      </g>
     </g>
    </g>
    <g id="ytick_6">
     <g id="line2d_31">
      <path d="M 57.6 27.648 
L 360.8064 27.648 
" clip-path="url(#p5e716755bf)" style="fill: none; stroke: #b0b0b0; stroke-width: 0.8; stroke-linecap: square"/>
     </g>
     <g id="line2d_32">
      <g>
       <use xlink:href="#m1091adfede" x="57.6" y="27.648" style="stroke: #000000; stroke-width: 0.8"/>
      </g>
     </g>
     <g id="text_11">
      <!-- 1.0 -->
      <g transform="translate(25.155 33.72675)scale(0.16 -0.16)">
       <use xlink:href="#DejaVuSans-31"/>
       <use xlink:href="#DejaVuSans-2e" x="63.623047"/>
       <use xlink:href="#DejaVuSans-30" x="95.410156"/>
      </g>
     </g>
    </g>
    <g id="text_12">
     <!-- Fraction of function,target pairs -->
     <g transform="translate(17.619531 297.681)rotate(-90)scale(0.17 -0.17)">
      <defs>
       <path id="DejaVuSans-46" d="M 628 4666 
L 3309 4666 
L 3309 4134 
L 1259 4134 
L 1259 2759 
L 3109 2759 
L 3109 2228 
L 1259 2228 
L 1259 0 
L 628 0 
L 628 4666 
z
" transform="scale(0.015625)"/>
       <path id="DejaVuSans-72" d="M 2631 2963 
Q 2534 3019 2420 3045 
Q 2306 3072 2169 3072 
Q 1681 3072 1420 2755 
Q 1159 2438 1159 1844 
L 1159 0 
L 581 0 
L 581 3500 
L 1159 3500 
L 1159 2956 
Q 1341 3275 1631 3429 
Q 1922 3584 2338 3584 
Q 2397 3584 2469 3576 
Q 2541 3569 2628 3553 
L 2631 2963 
z
" transform="scale(0.015625)"/>
       <path id="DejaVuSans-63" d="M 3122 3366 
L 3122 2828 
Q 2878 2963 2633 3030 
Q 2388 3097 2138 3097 
Q 1578 3097 1268 2742 
Q 959 2388 959 1747 
Q 959 1106 1268 751 
Q 1578 397 2138 397 
Q 2388 397 2633 464 
Q 2878 531 3122 666 
L 3122 134 
Q 2881 22 2623 -34 
Q 2366 -91 2075 -91 
Q 1284 -91 818 406 
Q 353 903 353 1747 
Q 353 2603 823 3093 
Q 1294 3584 2113 3584 
Q 2378 3584 2631 3529 
Q 2884 3475 3122 3366 
z
" transform="scale(0.015625)"/>
       <path id="DejaVuSans-74" d="M 1172 4494 
L 1172 3500 
L 2356 3500 
L 2356 3053 
L 1172 3053 
L 1172 1153 
Q 1172 725 1289 603 
Q 1406 481 1766 481 
L 2356 481 
L 2356 0 
L 1766 0 
Q 1100 0 847 248 
Q 594 497 594 1153 
L 594 3053 
L 172 3053 
L 172 3500 
L 594 3500 
L 594 4494 
L 1172 4494 
z
" transform="scale(0.015625)"/>
       <path id="DejaVuSans-75" d="M 544 1381 
L 544 3500 
L 1119 3500 
L 1119 1403 
Q 1119 906 1312 657 
Q 1506 409 1894 409 
Q 2359 409 2629 706 
Q 2900 1003 2900 1516 
L 2900 3500 
L 3475 3500 
L 3475 0 
L 2900 0 
L 2900 538 
Q 2691 219 2414 64 
Q 2138 -91 1772 -91 
Q 1169 -91 856 284 
Q 544 659 544 1381 
z
M 1991 3584 
L 1991 3584 
z
" transform="scale(0.015625)"/>
       <path id="DejaVuSans-2c" d="M 750 794 
L 1409 794 
L 1409 256 
L 897 -744 
L 494 -744 
L 750 256 
L 750 794 
z
" transform="scale(0.015625)"/>
       <path id="DejaVuSans-70" d="M 1159 525 
L 1159 -1331 
L 581 -1331 
L 581 3500 
L 1159 3500 
L 1159 2969 
Q 1341 3281 1617 3432 
Q 1894 3584 2278 3584 
Q 2916 3584 3314 3078 
Q 3713 2572 3713 1747 
Q 3713 922 3314 415 
Q 2916 -91 2278 -91 
Q 1894 -91 1617 61 
Q 1341 213 1159 525 
z
M 3116 1747 
Q 3116 2381 2855 2742 
Q 2594 3103 2138 3103 
Q 1681 3103 1420 2742 
Q 1159 2381 1159 1747 
Q 1159 1113 1420 752 
Q 1681 391 2138 391 
Q 2594 391 2855 752 
Q 3116 1113 3116 1747 
z
" transform="scale(0.015625)"/>
      </defs>
      <use xlink:href="#DejaVuSans-46"/>
      <use xlink:href="#DejaVuSans-72" x="50.269531"/>
      <use xlink:href="#DejaVuSans-61" x="91.382812"/>
      <use xlink:href="#DejaVuSans-63" x="152.662109"/>
      <use xlink:href="#DejaVuSans-74" x="207.642578"/>
      <use xlink:href="#DejaVuSans-69" x="246.851562"/>
      <use xlink:href="#DejaVuSans-6f" x="274.634766"/>
      <use xlink:href="#DejaVuSans-6e" x="335.816406"/>
      <use xlink:href="#DejaVuSans-20" x="399.195312"/>
      <use xlink:href="#DejaVuSans-6f" x="430.982422"/>
      <use xlink:href="#DejaVuSans-66" x="492.164062"/>
      <use xlink:href="#DejaVuSans-20" x="527.369141"/>
      <use xlink:href="#DejaVuSans-66" x="559.15625"/>
      <use xlink:href="#DejaVuSans-75" x="594.361328"/>
      <use xlink:href="#DejaVuSans-6e" x="657.740234"/>
      <use xlink:href="#DejaVuSans-63" x="721.119141"/>
      <use xlink:href="#DejaVuSans-74" x="776.099609"/>
      <use xlink:href="#DejaVuSans-69" x="815.308594"/>
      <use xlink:href="#DejaVuSans-6f" x="843.091797"/>
      <use xlink:href="#DejaVuSans-6e" x="904.273438"/>
      <use xlink:href="#DejaVuSans-2c" x="967.652344"/>
      <use xlink:href="#DejaVuSans-74" x="999.439453"/>
      <use xlink:href="#DejaVuSans-61" x="1038.648438"/>
      <use xlink:href="#DejaVuSans-72" x="1099.927734"/>
      <use xlink:href="#DejaVuSans-67" x="1139.291016"/>
      <use xlink:href="#DejaVuSans-65" x="1202.767578"/>
      <use xlink:href="#DejaVuSans-74" x="1264.291016"/>
      <use xlink:href="#DejaVuSans-20" x="1303.5"/>
      <use xlink:href="#DejaVuSans-70" x="1335.287109"/>
      <use xlink:href="#DejaVuSans-61" x="1398.763672"/>
      <use xlink:href="#DejaVuSans-69" x="1460.042969"/>
      <use xlink:href="#DejaVuSans-72" x="1487.826172"/>
      <use xlink:href="#DejaVuSans-73" x="1528.939453"/>
     </g>
    </g>
   </g>
   <g id="line2d_33">
    <defs>
     <path id="m4ec7c6a3f3" d="M 0 1.5 
C 0.397805 1.5 0.77937 1.341951 1.06066 1.06066 
C 1.341951 0.77937 1.5 0.397805 1.5 0 
C 1.5 -0.397805 1.341951 -0.77937 1.06066 -1.06066 
C 0.77937 -1.341951 0.397805 -1.5 0 -1.5 
C -0.397805 -1.5 -0.77937 -1.341951 -1.06066 -1.06066 
C -1.341951 -0.77937 -1.5 -0.397805 -1.5 0 
C -1.5 0.397805 -1.341951 0.77937 -1.06066 1.06066 
C -0.77937 1.341951 -0.397805 1.5 0 1.5 
z
" style="stroke: #f5deb3"/>
    </defs>
    <g>
     <use xlink:href="#m4ec7c6a3f3" x="193.485521" y="27.648" style="fill: #f5deb3; stroke: #f5deb3"/>
     <use xlink:href="#m4ec7c6a3f3" x="193.485521" y="27.648" style="fill: #f5deb3; stroke: #f5deb3"/>
    </g>
   </g>
   <g id="line2d_34">
    <defs>
     <path id="m0bc2355acb" d="M 0 1.5 
C 0.397805 1.5 0.77937 1.341951 1.06066 1.06066 
C 1.341951 0.77937 1.5 0.397805 1.5 0 
C 1.5 -0.397805 1.341951 -0.77937 1.06066 -1.06066 
C 0.77937 -1.341951 0.397805 -1.5 0 -1.5 
C -0.397805 -1.5 -0.77937 -1.341951 -1.06066 -1.06066 
C -1.341951 -0.77937 -1.5 -0.397805 -1.5 0 
C -1.5 0.397805 -1.341951 0.77937 -1.06066 1.06066 
C -0.77937 1.341951 -0.397805 1.5 0 1.5 
z
" style="stroke: #000080"/>
    </defs>
    <g>
     <use xlink:href="#m0bc2355acb" x="357.553214" y="27.648" style="fill: #000080; stroke: #000080"/>
     <use xlink:href="#m0bc2355acb" x="357.553214" y="27.648" style="fill: #000080; stroke: #000080"/>
    </g>
   </g>
   <g id="line2d_35">
    <path d="M 14.2848 298.944 
L 14.2848 293.624471 
L 57.6 293.624471 
L 57.6 293.269835 
L 87.1081 293.269835 
L 87.1081 292.9152 
L 90.668036 292.9152 
L 90.668036 292.560565 
L 91.922605 292.560565 
L 91.922605 292.205929 
L 93.098709 292.205929 
L 93.098709 291.851294 
L 94.995002 291.851294 
L 94.995002 291.496659 
L 107.109915 291.496659 
L 107.109915 291.142024 
L 119.807672 291.142024 
L 119.807672 290.787388 
L 121.768984 290.787388 
L 121.768984 290.432753 
L 123.317644 290.432753 
L 123.317644 290.078118 
L 129.417095 290.078118 
L 129.417095 289.723482 
L 131.040128 289.723482 
L 131.040128 289.368847 
L 131.341119 289.368847 
L 131.341119 289.014212 
L 131.600593 289.014212 
L 131.600593 288.659576 
L 131.747272 288.659576 
L 131.747272 288.304941 
L 132.287354 288.304941 
L 132.287354 287.950306 
L 132.949924 287.950306 
L 132.984158 287.241035 
L 133.390178 287.241035 
L 133.457005 286.177129 
L 133.523594 286.177129 
L 133.523594 285.822494 
L 134.240933 285.822494 
L 134.240933 285.467859 
L 134.808158 285.467859 
L 134.808158 285.113224 
L 134.993495 285.113224 
L 135.085483 283.694682 
L 135.116046 283.694682 
L 135.116046 282.276141 
L 135.717106 282.276141 
L 135.717106 281.921506 
L 135.864417 281.921506 
L 135.864417 281.566871 
L 136.299553 281.566871 
L 136.299553 281.212235 
L 136.499223 281.212235 
L 136.584151 280.502965 
L 136.892314 280.502965 
L 136.947806 279.793694 
L 137.168148 279.793694 
L 137.168148 279.439059 
L 137.493898 279.439059 
L 137.493898 279.084424 
L 137.972183 279.084424 
L 137.972183 278.729788 
L 138.258593 278.729788 
L 138.258593 278.375153 
L 138.868751 278.375153 
L 138.89375 277.665882 
L 139.264798 277.665882 
L 139.264798 277.311247 
L 139.386872 277.311247 
L 139.386872 276.956612 
L 139.724525 276.956612 
L 139.748412 276.247341 
L 139.867398 276.247341 
L 139.867398 275.538071 
L 142.559347 275.538071 
L 142.620923 274.8288 
L 144.380294 274.8288 
L 144.454795 273.055624 
L 147.565858 273.055624 
L 147.565858 272.700988 
L 148.063382 272.700988 
L 148.063382 272.346353 
L 148.68219 272.346353 
L 148.68219 271.991718 
L 148.888912 271.991718 
L 148.903591 271.282447 
L 149.064312 271.282447 
L 149.064312 270.927812 
L 149.847944 270.927812 
L 149.847944 270.218541 
L 150.234685 270.218541 
L 150.234685 269.509271 
L 150.38447 269.509271 
L 150.38447 269.154635 
L 150.747146 269.154635 
L 150.747146 268.8 
L 150.932483 268.8 
L 150.932483 268.445365 
L 152.303973 268.445365 
L 152.303973 267.736094 
L 153.224124 267.736094 
L 153.224124 267.381459 
L 153.593669 267.381459 
L 153.593669 267.026824 
L 153.775755 267.026824 
L 153.843585 266.317553 
L 154.399522 266.317553 
L 154.399522 265.962918 
L 156.570108 265.962918 
L 156.570108 265.608282 
L 156.8511 265.608282 
L 156.8511 265.253647 
L 157.222487 265.253647 
L 157.222487 264.899012 
L 157.475372 264.899012 
L 157.475372 264.544376 
L 157.880333 264.544376 
L 157.934885 263.835106 
L 161.55733 263.835106 
L 161.661881 262.7712 
L 161.839769 262.7712 
L 161.839769 262.416565 
L 162.499383 262.416565 
L 162.499383 262.061929 
L 165.519897 262.061929 
L 165.519897 261.707294 
L 166.512385 261.707294 
L 166.512385 261.352659 
L 166.961587 261.352659 
L 166.961587 260.998024 
L 167.558829 260.998024 
L 167.558829 260.643388 
L 168.503585 260.643388 
L 168.57076 259.934118 
L 168.647973 259.934118 
L 168.647973 259.579482 
L 172.511885 259.579482 
L 172.511885 259.224847 
L 172.958324 259.224847 
L 172.958324 258.870212 
L 177.917356 258.870212 
L 177.917356 258.515576 
L 179.170811 258.515576 
L 179.170811 258.160941 
L 179.493926 258.160941 
L 179.493926 257.806306 
L 180.892341 257.806306 
L 180.892341 257.451671 
L 186.734516 257.451671 
L 186.734516 257.097035 
L 195.696172 257.097035 
L 195.696172 256.7424 
L 230.811072 256.7424 
L 230.811072 256.387765 
L 231.469009 256.387765 
L 231.573443 255.678494 
L 231.709157 255.678494 
L 231.709157 255.323859 
L 232.121781 255.323859 
L 232.185532 254.259953 
L 233.064438 254.259953 
L 233.064438 253.905318 
L 233.37064 253.905318 
L 233.37064 253.550682 
L 233.716758 253.550682 
L 233.716758 253.196047 
L 234.162038 253.196047 
L 234.267336 252.486776 
L 234.625686 252.486776 
L 234.625686 252.132141 
L 235.184318 252.132141 
L 235.184318 251.777506 
L 235.489184 251.777506 
L 235.489184 251.422871 
L 236.338975 251.422871 
L 236.370862 250.7136 
L 236.527819 250.7136 
L 236.527819 250.358965 
L 236.697415 250.358965 
L 236.716992 249.295059 
L 237.303565 249.295059 
L 237.303565 248.940424 
L 237.659721 248.940424 
L 237.659721 248.585788 
L 237.931785 248.585788 
L 237.931785 248.231153 
L 238.266708 248.231153 
L 238.341302 247.521882 
L 238.799047 247.521882 
L 238.799047 247.167247 
L 239.041962 247.167247 
L 239.041962 246.812612 
L 239.823593 246.812612 
L 239.823593 246.457976 
L 240.472405 246.457976 
L 240.472405 246.103341 
L 240.733428 246.103341 
L 240.733428 245.748706 
L 241.804245 245.748706 
L 241.804245 245.394071 
L 242.122433 245.394071 
L 242.227379 244.6848 
L 242.625007 244.6848 
L 242.625007 244.330165 
L 242.834604 244.330165 
L 242.834604 243.975529 
L 243.274165 243.975529 
L 243.274165 243.620894 
L 244.858686 243.620894 
L 244.858686 243.266259 
L 246.022623 243.266259 
L 246.022623 242.911624 
L 247.194267 242.911624 
L 247.194267 242.556988 
L 248.092458 242.556988 
L 248.092458 242.202353 
L 249.023351 242.202353 
L 249.023351 241.847718 
L 250.503262 241.847718 
L 250.503262 241.493082 
L 250.792499 241.493082 
L 250.792499 241.138447 
L 251.140767 241.138447 
L 251.140767 240.783812 
L 252.534409 240.783812 
L 252.534409 240.429176 
L 274.202581 240.429176 
L 274.298216 235.109647 
L 274.463916 235.109647 
L 274.463916 234.755012 
L 276.211451 234.755012 
L 276.294161 232.981835 
L 276.405706 232.981835 
L 276.440028 231.917929 
L 276.560726 231.917929 
L 276.654784 228.726212 
L 276.733486 228.726212 
L 276.733486 227.662306 
L 276.845973 227.662306 
L 276.878296 226.5984 
L 277.076125 226.5984 
L 277.11364 225.534494 
L 277.272279 225.534494 
L 277.33711 223.761318 
L 277.399168 223.761318 
L 277.502885 221.988141 
L 278.196437 221.988141 
L 278.196437 221.278871 
L 278.372638 221.278871 
L 278.372638 220.924235 
L 278.880039 220.924235 
L 278.944416 220.214965 
L 279.022958 220.214965 
L 279.022958 219.505694 
L 279.348696 219.505694 
L 279.348696 219.151059 
L 287.224691 219.151059 
L 287.276382 215.250071 
L 288.167548 215.250071 
L 288.243994 213.476894 
L 288.279287 213.476894 
L 288.363043 211.349082 
L 288.435404 211.349082 
L 288.537346 208.866635 
L 288.614804 208.866635 
L 288.72107 208.157365 
L 288.862051 208.157365 
L 288.862051 207.802729 
L 289.09731 207.802729 
L 289.09731 207.448094 
L 289.211282 207.448094 
L 289.211282 207.093459 
L 289.71385 207.093459 
L 289.750069 205.320282 
L 294.871456 205.320282 
L 294.882735 204.611012 
L 295.501454 204.611012 
L 295.593406 201.419294 
L 295.615578 201.419294 
L 295.721785 197.518306 
L 295.734294 197.518306 
L 295.826206 196.4544 
L 295.873636 196.4544 
L 295.979469 193.971953 
L 296.018163 193.971953 
L 296.018163 193.262682 
L 296.280359 193.262682 
L 296.280359 192.553412 
L 296.421178 192.553412 
L 296.421178 191.489506 
L 296.544701 191.489506 
L 296.544701 191.134871 
L 300.271431 191.134871 
L 300.275993 190.4256 
L 300.740009 190.4256 
L 300.837037 187.943153 
L 300.874356 187.943153 
L 300.958201 185.106071 
L 300.996831 185.106071 
L 301.095804 182.623624 
L 301.122781 182.623624 
L 301.218946 181.914353 
L 301.342836 181.914353 
L 301.342836 181.205082 
L 301.545142 181.205082 
L 301.545142 180.495812 
L 301.686845 180.495812 
L 301.686845 180.141176 
L 304.464321 180.141176 
L 304.464321 179.786541 
L 304.851436 179.786541 
L 304.958773 176.594824 
L 304.98445 176.594824 
L 305.068923 174.821647 
L 305.113396 174.821647 
L 305.16614 173.403106 
L 305.276055 173.403106 
L 305.369597 171.275294 
L 305.414974 171.275294 
L 305.507314 170.566024 
L 305.606617 170.566024 
L 305.606617 169.502118 
L 307.893167 169.502118 
L 307.893167 169.147482 
L 308.231006 169.147482 
L 308.318259 164.182588 
L 308.342713 164.182588 
L 308.44381 161.345506 
L 308.465163 161.345506 
L 308.57095 158.508424 
L 308.649494 158.508424 
L 308.687618 157.444518 
L 308.848791 157.444518 
L 308.848791 157.089882 
L 311.067747 157.089882 
L 311.177366 152.479624 
L 311.192223 152.479624 
L 311.294423 151.415718 
L 311.54136 151.415718 
L 311.613466 150.351812 
L 313.300814 150.351812 
L 313.308583 149.642541 
L 313.560329 149.642541 
L 313.668427 144.677647 
L 313.681449 144.677647 
L 313.782004 141.131294 
L 313.812756 141.131294 
L 313.901117 140.067388 
L 313.959983 140.067388 
L 313.972214 139.358118 
L 315.746552 139.358118 
L 315.84282 134.393224 
L 315.859199 134.393224 
L 315.900132 133.329318 
L 316.024482 133.329318 
L 316.102769 132.265412 
L 316.159372 132.265412 
L 316.159372 131.910776 
L 317.691965 131.910776 
L 317.791719 127.300518 
L 317.830431 127.300518 
L 317.934181 124.463435 
L 317.95558 124.463435 
L 318.026243 122.690259 
L 319.487988 122.690259 
L 319.594488 120.562447 
L 319.640644 120.562447 
L 319.663171 119.853176 
L 319.763822 119.853176 
L 319.763822 119.498541 
L 321.088404 119.498541 
L 321.152831 115.242918 
L 321.211674 115.242918 
L 321.308726 113.824376 
L 321.376122 113.824376 
L 321.410671 112.760471 
L 322.581304 112.760471 
L 322.669675 109.923388 
L 322.704556 109.923388 
L 322.704556 109.568753 
L 323.973688 109.568753 
L 324.03591 104.958494 
L 324.211581 104.958494 
L 324.211581 104.603859 
L 325.268338 104.603859 
L 325.354158 98.575059 
L 325.397334 98.575059 
L 325.483641 97.511153 
L 326.469051 97.511153 
L 326.558784 93.255529 
L 326.610781 93.255529 
L 326.663794 92.546259 
L 327.605299 92.546259 
L 327.704595 89.709176 
L 327.73498 89.709176 
L 327.784922 88.645271 
L 328.669631 88.645271 
L 328.749479 85.098918 
L 329.69167 85.098918 
L 329.744773 83.680376 
L 329.823693 83.680376 
L 329.823693 83.325741 
L 330.642768 83.325741 
L 330.73979 81.197929 
L 330.775772 81.197929 
L 330.775772 80.488659 
L 331.573939 80.488659 
L 331.61487 77.651576 
L 331.704874 77.651576 
L 331.704874 77.296941 
L 332.424942 77.296941 
L 332.535811 74.459859 
L 332.572946 74.459859 
L 332.572946 74.105224 
L 333.247066 74.105224 
L 333.330862 70.558871 
L 333.390457 70.558871 
L 333.41661 69.140329 
L 334.044039 69.140329 
L 334.102216 66.303247 
L 334.189088 66.303247 
L 334.189088 65.948612 
L 334.817519 65.948612 
L 334.89577 63.466165 
L 334.947908 63.466165 
L 334.947908 63.111529 
L 335.547022 63.111529 
L 335.64582 60.629082 
L 336.270686 60.629082 
L 336.341093 58.501271 
L 336.935322 58.501271 
L 337.027109 55.664188 
L 337.594042 55.664188 
L 337.664736 54.245647 
L 338.224963 54.245647 
L 338.262034 53.536376 
L 338.848612 53.536376 
L 338.91867 50.699294 
L 339.451157 50.699294 
L 339.540714 49.990024 
L 340.060692 49.990024 
L 340.117528 49.280753 
L 340.578142 49.280753 
L 340.686617 48.216847 
L 341.13744 48.216847 
L 341.157799 47.152941 
L 341.648277 47.152941 
L 341.740504 46.443671 
L 342.170878 46.443671 
L 342.181349 45.379765 
L 342.727963 45.379765 
L 342.727963 45.025129 
L 343.144965 45.025129 
L 343.200966 41.833412 
L 343.704743 41.833412 
L 343.704743 41.478776 
L 344.09659 41.478776 
L 344.100754 40.769506 
L 344.548352 40.769506 
L 344.628593 38.996329 
L 345.408298 38.996329 
L 345.427567 38.287059 
L 345.917074 38.287059 
L 345.917074 37.932424 
L 346.257296 37.932424 
L 346.314514 36.513882 
L 346.667597 36.513882 
L 346.667597 36.159247 
L 347.064513 36.159247 
L 347.0816 35.095341 
L 347.432881 35.095341 
L 347.451065 33.6768 
L 347.809477 33.6768 
L 347.817585 32.967529 
L 348.207118 32.967529 
L 348.207118 32.612894 
L 348.572518 32.612894 
L 348.60911 31.903624 
L 349.955024 31.903624 
L 349.955024 31.548988 
L 350.281125 31.548988 
L 350.281125 31.194353 
L 350.918771 31.194353 
L 350.918771 30.839718 
L 351.547319 30.839718 
L 351.547319 30.485082 
L 352.193047 30.485082 
L 352.193047 30.130447 
L 352.778553 30.130447 
L 352.778553 29.775812 
L 353.315564 29.775812 
L 353.315564 29.421176 
L 353.862622 29.421176 
L 353.862622 29.066541 
L 354.688881 29.066541 
L 354.688881 28.711906 
L 355.176472 28.711906 
L 355.176472 28.357271 
L 355.675447 28.357271 
L 355.675447 28.002635 
L 357.553214 28.002635 
L 357.553214 27.648 
L 360.8064 27.648 
L 360.8064 27.648 
" style="fill: none; stroke: #000080; stroke-width: 1.5; stroke-linecap: square"/>
   </g>
   <g id="line2d_36">
    <defs>
     <path id="m646d443b88" d="M 0 6 
C 1.591219 6 3.117479 5.367802 4.242641 4.242641 
C 5.367802 3.117479 6 1.591219 6 0 
C 6 -1.591219 5.367802 -3.117479 4.242641 -4.242641 
C 3.117479 -5.367802 1.591219 -6 0 -6 
C -1.591219 -6 -3.117479 -5.367802 -4.242641 -4.242641 
C -5.367802 -3.117479 -6 -1.591219 -6 0 
C -6 1.591219 -5.367802 3.117479 -4.242641 4.242641 
C -3.117479 5.367802 -1.591219 6 0 6 
z
" style="stroke: #000080; stroke-width: 1.5"/>
    </defs>
    <g>
     <use xlink:href="#m646d443b88" x="121.768984" y="290.432753" style="fill-opacity: 0; stroke: #000080; stroke-width: 1.5"/>
     <use xlink:href="#m646d443b88" x="195.696172" y="256.7424" style="fill-opacity: 0; stroke: #000080; stroke-width: 1.5"/>
     <use xlink:href="#m646d443b88" x="296.544701" y="191.134871" style="fill-opacity: 0; stroke: #000080; stroke-width: 1.5"/>
     <use xlink:href="#m646d443b88" x="350.281125" y="31.194353" style="fill-opacity: 0; stroke: #000080; stroke-width: 1.5"/>
     <use xlink:href="#m646d443b88" x="357.553214" y="27.648" style="fill-opacity: 0; stroke: #000080; stroke-width: 1.5"/>
     <use xlink:href="#m646d443b88" x="360.8064" y="27.648" style="fill-opacity: 0; stroke: #000080; stroke-width: 1.5"/>
    </g>
   </g>
   <g id="line2d_37">
    <path style="fill: none; stroke: #000080; stroke-width: 1.5; stroke-linecap: square"/>
    <g/>
   </g>
   <g id="line2d_38">
    <path d="M 274.176 240.429176 
" clip-path="url(#p5e716755bf)" style="fill: none; stroke: #000080; stroke-width: 1.5; stroke-linecap: square"/>
    <defs>
     <path id="m7c48be0a4d" d="M -12 12 
L 12 -12 
M -12 -12 
L 12 12 
" style="stroke: #000080"/>
    </defs>
    <g clip-path="url(#p5e716755bf)">
     <use xlink:href="#m7c48be0a4d" x="274.176" y="240.429176" style="fill: #000080; stroke: #000080"/>
    </g>
   </g>
   <g id="line2d_39">
    <defs>
     <path id="m69838a956d" d="M 0 1.5 
C 0.397805 1.5 0.77937 1.341951 1.06066 1.06066 
C 1.341951 0.77937 1.5 0.397805 1.5 0 
C 1.5 -0.397805 1.341951 -0.77937 1.06066 -1.06066 
C 0.77937 -1.341951 0.397805 -1.5 0 -1.5 
C -0.397805 -1.5 -0.77937 -1.341951 -1.06066 -1.06066 
C -1.341951 -0.77937 -1.5 -0.397805 -1.5 0 
C -1.5 0.397805 -1.341951 0.77937 -1.06066 1.06066 
C -0.77937 1.341951 -0.397805 1.5 0 1.5 
z
" style="stroke: #ff00ff"/>
    </defs>
    <g>
     <use xlink:href="#m69838a956d" x="288.646786" y="27.648" style="fill: #ff00ff; stroke: #ff00ff"/>
     <use xlink:href="#m69838a956d" x="288.646786" y="27.648" style="fill: #ff00ff; stroke: #ff00ff"/>
    </g>
   </g>
   <g id="line2d_40">
    <path d="M 14.2848 298.944 
L 14.2848 293.624471 
L 125.167667 293.624471 
L 125.167667 293.269835 
L 125.929373 293.269835 
L 125.929373 292.9152 
L 126.078082 292.9152 
L 126.176572 291.496659 
L 126.323346 291.496659 
L 126.420564 290.432753 
L 126.468985 290.432753 
L 126.517282 289.723482 
L 126.709238 289.723482 
L 126.709238 289.014212 
L 126.946461 289.014212 
L 126.993549 287.595671 
L 132.144842 287.595671 
L 132.144842 287.241035 
L 133.390178 287.241035 
L 133.390178 286.8864 
L 133.556801 286.8864 
L 133.556801 285.822494 
L 133.820365 285.822494 
L 133.885683 284.403953 
L 134.208913 284.403953 
L 134.208913 284.049318 
L 134.558167 284.049318 
L 134.558167 283.694682 
L 137.222833 283.694682 
L 137.222833 282.985412 
L 138.464186 282.985412 
L 138.464186 282.630776 
L 138.818654 282.630776 
L 138.89375 281.921506 
L 139.067817 281.921506 
L 139.166565 280.502965 
L 139.191172 280.502965 
L 139.191172 280.148329 
L 139.985636 280.148329 
L 139.985636 279.439059 
L 141.283499 279.439059 
L 141.283499 279.084424 
L 142.47693 279.084424 
L 142.47693 278.729788 
L 142.743475 278.729788 
L 142.743475 278.375153 
L 143.442869 278.375153 
L 143.442869 278.020518 
L 143.792681 278.020518 
L 143.792681 277.665882 
L 143.946089 277.665882 
L 143.946089 277.311247 
L 144.098256 277.311247 
L 144.192739 276.601976 
L 146.294984 276.601976 
L 146.294984 276.247341 
L 146.462796 276.247341 
L 146.562769 275.183435 
L 146.678736 275.183435 
L 146.678736 273.410259 
L 146.908549 273.410259 
L 146.989949 271.991718 
L 147.135588 271.991718 
L 147.135588 271.637082 
L 147.534321 271.637082 
L 147.550096 270.927812 
L 148.68219 270.927812 
L 148.68219 270.573176 
L 149.2669 270.573176 
L 149.2669 270.218541 
L 149.693807 270.218541 
L 149.750003 269.509271 
L 149.889763 269.509271 
L 149.889763 269.154635 
L 150.056115 269.154635 
L 150.056115 268.8 
L 150.465671 268.8 
L 150.465671 268.445365 
L 151.297768 268.445365 
L 151.297768 268.090729 
L 151.95789 268.090729 
L 151.95789 267.736094 
L 152.267196 267.736094 
L 152.267196 267.381459 
L 152.51103 267.381459 
L 152.51103 267.026824 
L 152.715833 267.026824 
L 152.715833 266.672188 
L 152.942122 266.672188 
L 153.036593 265.962918 
L 153.854866 265.962918 
L 153.956095 264.899012 
L 154.14583 264.899012 
L 154.179115 264.189741 
L 154.454223 264.189741 
L 154.454223 263.835106 
L 155.024477 263.835106 
L 155.024477 263.480471 
L 155.526427 263.480471 
L 155.526427 263.125835 
L 156.145584 263.125835 
L 156.145584 262.7712 
L 156.706284 262.7712 
L 156.706284 262.061929 
L 156.87993 262.061929 
L 156.87993 261.707294 
L 157.118477 261.707294 
L 157.118477 261.352659 
L 157.934885 261.352659 
L 157.943962 260.643388 
L 158.339064 260.643388 
L 158.339064 260.288753 
L 158.985393 260.288753 
L 158.993977 259.579482 
L 160.126341 259.579482 
L 160.126341 259.224847 
L 160.430923 259.224847 
L 160.430923 258.870212 
L 160.660094 258.870212 
L 160.660094 258.515576 
L 161.391854 258.515576 
L 161.391854 258.160941 
L 161.964763 258.160941 
L 162.037903 257.451671 
L 164.349858 257.451671 
L 164.349858 257.097035 
L 165.495616 257.097035 
L 165.495616 256.7424 
L 165.713024 256.7424 
L 165.713024 256.387765 
L 165.91013 256.387765 
L 165.91013 256.033129 
L 167.466067 256.033129 
L 167.466067 255.678494 
L 167.769923 255.678494 
L 167.769923 255.323859 
L 168.100708 255.323859 
L 168.100708 254.969224 
L 168.29014 254.969224 
L 168.29014 254.614588 
L 168.513935 254.614588 
L 168.513935 254.259953 
L 168.978946 254.259953 
L 168.978946 253.905318 
L 169.249549 253.905318 
L 169.249549 253.550682 
L 171.869384 253.550682 
L 171.869384 253.196047 
L 172.050307 253.196047 
L 172.050307 252.841412 
L 173.624503 252.841412 
L 173.624503 252.486776 
L 174.446132 252.486776 
L 174.446132 252.132141 
L 175.485059 252.132141 
L 175.485059 251.777506 
L 176.196469 251.777506 
L 176.196469 251.422871 
L 181.802375 251.422871 
L 181.802375 251.068235 
L 182.943869 251.068235 
L 182.943869 250.7136 
L 186.311454 250.7136 
L 186.311454 250.358965 
L 187.050029 250.358965 
L 187.050029 250.004329 
L 195.838339 250.004329 
L 195.838339 249.649694 
L 197.46103 249.649694 
L 197.46103 249.295059 
L 197.7727 249.295059 
L 197.7727 248.940424 
L 197.989888 248.940424 
L 197.989888 248.585788 
L 198.834402 248.585788 
L 198.834402 248.231153 
L 201.567872 248.231153 
L 201.567872 247.876518 
L 201.744683 247.876518 
L 201.744683 247.521882 
L 201.920724 247.521882 
L 201.920724 247.167247 
L 202.745195 247.167247 
L 202.745195 246.457976 
L 203.054569 246.457976 
L 203.054569 246.103341 
L 205.354563 246.103341 
L 205.354563 245.748706 
L 206.268489 245.748706 
L 206.268489 245.394071 
L 209.409805 245.394071 
L 209.409805 245.039435 
L 211.416966 245.039435 
L 211.522435 244.330165 
L 211.835343 244.330165 
L 211.835343 243.975529 
L 212.445963 243.975529 
L 212.464979 243.266259 
L 213.460521 243.266259 
L 213.464316 242.556988 
L 215.945513 242.556988 
L 216.031778 241.493082 
L 216.679254 241.493082 
L 216.741518 240.429176 
L 216.996395 240.429176 
L 216.999539 239.719906 
L 217.2137 239.719906 
L 217.308277 238.301365 
L 220.233592 238.301365 
L 220.233592 237.946729 
L 225.982684 237.946729 
L 226.035029 237.237459 
L 226.119206 237.237459 
L 226.119206 236.882824 
L 226.286198 236.882824 
L 226.286198 236.528188 
L 227.39482 236.528188 
L 227.469535 235.818918 
L 227.514537 235.818918 
L 227.604218 234.755012 
L 227.664289 234.755012 
L 227.664289 234.400376 
L 227.982639 234.400376 
L 228.01768 233.691106 
L 228.105001 233.691106 
L 228.200587 232.6272 
L 228.235225 232.6272 
L 228.235225 232.272565 
L 228.349727 232.272565 
L 228.392674 231.563294 
L 230.25268 231.563294 
L 230.330239 230.854024 
L 230.53902 230.854024 
L 230.53902 230.499388 
L 230.863245 230.499388 
L 230.863245 230.144753 
L 231.237191 230.144753 
L 231.271824 229.080847 
L 231.453339 229.080847 
L 231.558948 228.371576 
L 231.745086 228.371576 
L 231.852466 227.307671 
L 231.975376 227.307671 
L 232.079866 226.243765 
L 232.13585 226.243765 
L 232.13585 225.534494 
L 232.55686 225.534494 
L 232.635767 224.825224 
L 233.175712 224.825224 
L 233.242128 224.115953 
L 233.374261 224.115953 
L 233.374261 223.761318 
L 234.732562 223.761318 
L 234.732562 223.406682 
L 235.48477 223.406682 
L 235.48477 222.697412 
L 235.921034 222.697412 
L 236.007085 221.988141 
L 236.206354 221.988141 
L 236.206354 221.633506 
L 236.48532 221.633506 
L 236.541037 220.5696 
L 236.609205 220.5696 
L 236.701966 219.860329 
L 236.736823 219.860329 
L 236.747282 219.151059 
L 236.862624 219.151059 
L 236.866726 218.087153 
L 237.146779 218.087153 
L 237.153243 217.023247 
L 237.581449 217.023247 
L 237.581449 216.668612 
L 237.714293 216.668612 
L 237.792536 215.250071 
L 237.915502 215.250071 
L 237.999609 214.5408 
L 238.178946 214.5408 
L 238.23661 213.122259 
L 238.296632 213.122259 
L 238.318664 211.703718 
L 239.233867 211.703718 
L 239.343477 210.639812 
L 239.716284 210.639812 
L 239.716284 210.285176 
L 239.949798 210.285176 
L 239.949798 209.930541 
L 240.104531 209.930541 
L 240.180449 209.221271 
L 241.449535 209.221271 
L 241.449535 208.866635 
L 241.648835 208.866635 
L 241.754763 208.157365 
L 242.097192 208.157365 
L 242.184977 207.448094 
L 242.287731 207.448094 
L 242.360144 204.965647 
L 242.504847 204.965647 
L 242.587123 203.192471 
L 242.632957 203.192471 
L 242.720086 201.773929 
L 243.095567 201.773929 
L 243.11519 201.064659 
L 243.239906 201.064659 
L 243.239906 200.710024 
L 243.459656 200.710024 
L 243.459656 200.355388 
L 244.061342 200.355388 
L 244.144341 198.936847 
L 244.197466 198.936847 
L 244.288439 197.872941 
L 244.356588 197.872941 
L 244.402341 196.4544 
L 244.532573 196.4544 
L 244.560745 195.390494 
L 244.811253 195.390494 
L 244.812597 194.681224 
L 245.102107 194.681224 
L 245.200584 193.262682 
L 245.890075 193.262682 
L 245.943392 192.198776 
L 246.125519 192.198776 
L 246.192251 191.134871 
L 246.362179 191.134871 
L 246.403064 190.4256 
L 246.571678 190.4256 
L 246.614146 189.716329 
L 246.765789 189.716329 
L 246.794198 189.007059 
L 246.92423 189.007059 
L 246.996652 187.233882 
L 247.050507 187.233882 
L 247.074676 186.524612 
L 247.308865 186.524612 
L 247.409272 185.460706 
L 247.549241 185.460706 
L 247.580204 184.3968 
L 247.686946 184.3968 
L 247.746071 183.332894 
L 247.809596 183.332894 
L 247.809596 182.978259 
L 247.923708 182.978259 
L 247.985426 181.914353 
L 248.251426 181.914353 
L 248.267242 181.205082 
L 248.430586 181.205082 
L 248.444479 180.141176 
L 248.55151 180.141176 
L 248.611791 178.722635 
L 248.858303 178.722635 
L 248.858303 178.368 
L 249.929739 178.368 
L 250.039799 177.658729 
L 250.225844 177.658729 
L 250.304368 176.594824 
L 250.346412 176.594824 
L 250.450482 175.530918 
L 250.471187 175.530918 
L 250.536935 174.112376 
L 250.614766 174.112376 
L 250.665184 173.403106 
L 250.731566 173.403106 
L 250.738368 172.693835 
L 250.84524 172.693835 
L 250.892775 171.984565 
L 251.010897 171.984565 
L 251.060651 170.920659 
L 251.156634 170.920659 
L 251.236406 169.856753 
L 251.339987 169.856753 
L 251.427247 168.438212 
L 251.467612 168.438212 
L 251.467612 168.083576 
L 251.605496 168.083576 
L 251.705145 165.955765 
L 251.729974 165.955765 
L 251.827856 164.537224 
L 251.873344 164.537224 
L 251.975384 163.118682 
L 252.140892 163.118682 
L 252.140892 162.764047 
L 252.335256 162.764047 
L 252.419823 161.345506 
L 252.447013 161.345506 
L 252.447013 160.990871 
L 252.897547 160.990871 
L 252.897547 160.636235 
L 253.040538 160.636235 
L 253.122461 158.863059 
L 253.210108 158.863059 
L 253.240874 157.799153 
L 253.355872 157.799153 
L 253.355872 157.444518 
L 253.488712 157.444518 
L 253.513667 156.380612 
L 253.627632 156.380612 
L 253.711454 154.607435 
L 253.79585 154.607435 
L 253.873504 153.898165 
L 253.917734 153.898165 
L 254.005884 152.124988 
L 254.040973 152.124988 
L 254.142796 150.351812 
L 254.18177 150.351812 
L 254.277798 148.933271 
L 254.318224 148.933271 
L 254.36428 147.514729 
L 254.599864 147.514729 
L 254.681064 146.450824 
L 254.754099 146.450824 
L 254.841526 145.386918 
L 254.977313 145.386918 
L 255.082096 144.677647 
L 255.664333 144.677647 
L 255.684453 143.968376 
L 255.839007 143.968376 
L 255.929239 142.1952 
L 255.972015 142.1952 
L 256.060922 140.422024 
L 256.087365 140.422024 
L 256.193011 138.294212 
L 256.257003 138.294212 
L 256.300938 136.521035 
L 256.430343 136.521035 
L 256.491367 134.393224 
L 256.542301 134.393224 
L 256.59123 133.683953 
L 256.952876 133.683953 
L 257.055748 131.910776 
L 257.139503 131.910776 
L 257.238029 129.428329 
L 257.274053 129.428329 
L 257.274053 129.073694 
L 257.412004 129.073694 
L 257.412004 128.719059 
L 257.554186 128.719059 
L 257.635167 127.655153 
L 257.971548 127.655153 
L 257.971548 127.300518 
L 258.093087 127.300518 
L 258.126055 126.236612 
L 258.238442 126.236612 
L 258.326411 125.527341 
L 258.44369 125.527341 
L 258.458662 124.463435 
L 258.670029 124.463435 
L 258.780843 123.044894 
L 258.787195 123.044894 
L 258.862624 121.980988 
L 258.944559 121.980988 
L 259.003733 120.207812 
L 259.05768 120.207812 
L 259.114154 118.08 
L 259.347516 118.08 
L 259.366085 117.016094 
L 259.479789 117.016094 
L 259.577651 116.306824 
L 259.659629 116.306824 
L 259.659629 115.952188 
L 260.145287 115.952188 
L 260.18348 115.242918 
L 260.28079 115.242918 
L 260.369488 113.469741 
L 260.403005 113.469741 
L 260.502963 110.632659 
L 260.517705 110.632659 
L 260.608895 109.214118 
L 260.638937 109.214118 
L 260.74914 108.150212 
L 260.863512 108.150212 
L 260.863512 107.795576 
L 261.041511 107.795576 
L 261.084947 107.086306 
L 261.152959 107.086306 
L 261.244495 105.667765 
L 261.359399 105.667765 
L 261.40934 104.249224 
L 261.632029 104.249224 
L 261.632029 103.894588 
L 261.962295 103.894588 
L 262.069473 102.830682 
L 262.08318 102.830682 
L 262.1691 101.057506 
L 262.261044 101.057506 
L 262.363507 100.348235 
L 262.435627 100.348235 
L 262.470882 99.638965 
L 262.58075 99.638965 
L 262.670189 98.575059 
L 262.706289 98.575059 
L 262.787726 97.865788 
L 262.851682 97.865788 
L 262.894839 96.447247 
L 263.00608 96.447247 
L 263.098847 95.383341 
L 263.392229 95.383341 
L 263.392229 95.028706 
L 263.778883 95.028706 
L 263.8662 94.319435 
L 263.890363 94.319435 
L 264.001315 92.191624 
L 264.008745 92.191624 
L 264.119357 90.418447 
L 264.120192 90.418447 
L 264.123562 89.709176 
L 264.249389 89.709176 
L 264.344867 88.290635 
L 264.390115 88.290635 
L 264.492848 87.581365 
L 264.540945 87.581365 
L 264.643765 85.808188 
L 264.67169 85.808188 
L 264.738448 85.098918 
L 264.783225 85.098918 
L 264.798623 84.389647 
L 265.037292 84.389647 
L 265.042825 83.680376 
L 265.266538 83.680376 
L 265.266538 83.325741 
L 265.38476 83.325741 
L 265.427008 82.616471 
L 265.531783 82.616471 
L 265.594345 81.9072 
L 265.642937 81.9072 
L 265.74113 79.424753 
L 265.817294 79.424753 
L 265.911956 78.360847 
L 266.007104 78.360847 
L 266.035021 77.651576 
L 266.172577 77.651576 
L 266.211256 76.942306 
L 266.754592 76.942306 
L 266.754592 76.587671 
L 266.961105 76.587671 
L 267.059042 75.523765 
L 267.106409 75.523765 
L 267.21637 74.814494 
L 267.250136 74.814494 
L 267.31727 74.105224 
L 267.387782 74.105224 
L 267.451981 73.041318 
L 267.508106 73.041318 
L 267.61887 71.977412 
L 268.148788 71.977412 
L 268.176239 71.268141 
L 268.339007 71.268141 
L 268.404367 69.8496 
L 268.477982 69.8496 
L 268.577775 68.431059 
L 268.600636 68.431059 
L 268.600636 68.076424 
L 268.717266 68.076424 
L 268.717266 67.721788 
L 268.898365 67.721788 
L 268.898365 67.367153 
L 269.024824 67.367153 
L 269.109211 66.657882 
L 269.355529 66.657882 
L 269.463622 65.593976 
L 269.475508 65.593976 
L 269.48869 64.530071 
L 269.607227 64.530071 
L 269.693821 62.756894 
L 269.737458 62.756894 
L 269.737458 62.402259 
L 269.859578 62.402259 
L 269.859578 62.047624 
L 270.045759 62.047624 
L 270.155072 60.274447 
L 270.590652 60.274447 
L 270.590652 59.919812 
L 270.763728 59.919812 
L 270.869115 59.210541 
L 270.90127 59.210541 
L 270.969878 58.146635 
L 271.069704 58.146635 
L 271.069704 57.792 
L 271.263083 57.792 
L 271.353634 56.728094 
L 271.393785 56.728094 
L 271.393785 56.373459 
L 271.657573 56.373459 
L 271.676017 55.664188 
L 271.900164 55.664188 
L 271.946814 54.245647 
L 272.028701 54.245647 
L 272.028933 53.536376 
L 272.211137 53.536376 
L 272.238119 52.472471 
L 272.340062 52.472471 
L 272.340062 52.117835 
L 272.509284 52.117835 
L 272.509284 51.7632 
L 272.751067 51.7632 
L 272.751067 51.408565 
L 272.92829 51.408565 
L 272.950168 50.344659 
L 273.195642 50.344659 
L 273.278457 49.280753 
L 273.31959 49.280753 
L 273.31959 48.926118 
L 273.49558 48.926118 
L 273.49558 48.571482 
L 273.723469 48.571482 
L 273.825474 47.862212 
L 273.840532 47.862212 
L 273.93684 46.443671 
L 273.982301 46.443671 
L 274.075882 45.7344 
L 274.316037 45.7344 
L 274.316037 45.379765 
L 274.654853 45.379765 
L 274.762796 43.961224 
L 274.849153 43.961224 
L 274.849153 43.606588 
L 274.978428 43.606588 
L 275.057684 42.897318 
L 275.144631 42.897318 
L 275.187999 42.188047 
L 275.64322 42.188047 
L 275.741153 41.124141 
L 276.404001 41.124141 
L 276.51018 38.996329 
L 276.683206 38.996329 
L 276.683206 38.641694 
L 276.984739 38.641694 
L 277.037049 37.932424 
L 277.288101 37.932424 
L 277.359645 36.513882 
L 277.64451 36.513882 
L 277.726696 35.804612 
L 278.026574 35.804612 
L 278.026574 35.449976 
L 278.490187 35.449976 
L 278.490187 35.095341 
L 278.743849 35.095341 
L 278.743849 34.740706 
L 279.644908 34.740706 
L 279.644908 34.386071 
L 280.162887 34.386071 
L 280.162887 34.031435 
L 280.290045 34.031435 
L 280.290045 33.6768 
L 280.415403 33.6768 
L 280.415403 33.322165 
L 281.203622 33.322165 
L 281.203622 32.967529 
L 281.56957 32.967529 
L 281.56957 32.612894 
L 281.723069 32.612894 
L 281.723069 32.258259 
L 281.997648 32.258259 
L 281.997648 31.903624 
L 282.129253 31.903624 
L 282.129253 31.548988 
L 282.364759 31.548988 
L 282.455237 30.839718 
L 282.903851 30.839718 
L 282.914423 30.130447 
L 283.030579 30.130447 
L 283.046739 29.421176 
L 283.594183 29.421176 
L 283.594183 29.066541 
L 284.183872 29.066541 
L 284.20511 28.357271 
L 284.618755 28.357271 
L 284.618755 28.002635 
L 288.646786 28.002635 
L 288.646786 27.648 
L 360.8064 27.648 
L 360.8064 27.648 
" style="fill: none; stroke: #ff00ff; stroke-width: 1.5; stroke-linecap: square"/>
   </g>
   <g id="line2d_41">
    <defs>
     <path id="m341964c28f" d="M 0 8.485281 
L 5.091169 0 
L 0 -8.485281 
L -5.091169 0 
z
" style="stroke: #ff00ff; stroke-width: 1.5; stroke-linejoin: miter"/>
    </defs>
    <g>
     <use xlink:href="#m341964c28f" x="146.678736" y="273.410259" style="fill-opacity: 0; stroke: #ff00ff; stroke-width: 1.5; stroke-linejoin: miter"/>
     <use xlink:href="#m341964c28f" x="236.609205" y="220.214965" style="fill-opacity: 0; stroke: #ff00ff; stroke-width: 1.5; stroke-linejoin: miter"/>
     <use xlink:href="#m341964c28f" x="263.00608" y="96.447247" style="fill-opacity: 0; stroke: #ff00ff; stroke-width: 1.5; stroke-linejoin: miter"/>
     <use xlink:href="#m341964c28f" x="288.646786" y="27.648" style="fill-opacity: 0; stroke: #ff00ff; stroke-width: 1.5; stroke-linejoin: miter"/>
     <use xlink:href="#m341964c28f" x="288.646786" y="27.648" style="fill-opacity: 0; stroke: #ff00ff; stroke-width: 1.5; stroke-linejoin: miter"/>
     <use xlink:href="#m341964c28f" x="360.8064" y="27.648" style="fill-opacity: 0; stroke: #ff00ff; stroke-width: 1.5; stroke-linejoin: miter"/>
    </g>
   </g>
   <g id="line2d_42">
    <path style="fill: none; stroke: #ff00ff; stroke-width: 1.5; stroke-linecap: square"/>
    <g/>
   </g>
   <g id="line2d_43">
    <path d="M 230.869639 230.144753 
" clip-path="url(#p5e716755bf)" style="fill: none; stroke: #ff00ff; stroke-width: 1.5; stroke-linecap: square"/>
    <defs>
     <path id="mec43cf9efb" d="M -12 12 
L 12 -12 
M -12 -12 
L 12 12 
" style="stroke: #ff00ff"/>
    </defs>
    <g clip-path="url(#p5e716755bf)">
     <use xlink:href="#mec43cf9efb" x="230.869639" y="230.144753" style="fill: #ff00ff; stroke: #ff00ff"/>
    </g>
   </g>
   <g id="line2d_44">
    <path d="M 360.8064 27.648 
L 380.514816 293.51808 
" style="fill: none; stroke: #000080; stroke-width: 1.5; stroke-linecap: square"/>
    <g>
     <use xlink:href="#m646d443b88" x="360.8064" y="27.648" style="fill-opacity: 0; stroke: #000080; stroke-width: 1.5"/>
     <use xlink:href="#m646d443b88" x="380.514816" y="293.51808" style="fill-opacity: 0; stroke: #000080; stroke-width: 1.5"/>
    </g>
   </g>
   <g id="line2d_45">
    <path d="M 360.8064 27.648 
L 380.514816 163.296 
" style="fill: none; stroke: #ff00ff; stroke-width: 1.5; stroke-linecap: square"/>
    <g>
     <use xlink:href="#m341964c28f" x="360.8064" y="27.648" style="fill-opacity: 0; stroke: #ff00ff; stroke-width: 1.5; stroke-linejoin: miter"/>
     <use xlink:href="#m341964c28f" x="380.514816" y="163.296" style="fill-opacity: 0; stroke: #ff00ff; stroke-width: 1.5; stroke-linejoin: miter"/>
    </g>
   </g>
   <g id="line2d_46">
    <path d="M 360.8064 298.944 
L 360.8064 27.648 
" style="fill: none; stroke: #000000; stroke-width: 1.5; stroke-linecap: square"/>
   </g>
   <g id="patch_3">
    <path d="M 57.6 298.944 
L 360.8064 298.944 
" style="fill: none; stroke: #000000; stroke-width: 0.8; stroke-linejoin: miter; stroke-linecap: square"/>
   </g>
   <g id="patch_4">
    <path d="M 57.6 27.648 
L 360.8064 27.648 
" style="fill: none; stroke: #000000; stroke-width: 0.8; stroke-linejoin: miter; stroke-linecap: square"/>
   </g>
   <g id="text_13">
    <!-- LCGA -->
    <g transform="translate(386.578944 297.381205)scale(0.14 -0.14)">
     <defs>
      <path id="DejaVuSans-4c" d="M 628 4666 
L 1259 4666 
L 1259 531 
L 3531 531 
L 3531 0 
L 628 0 
L 628 4666 
z
" transform="scale(0.015625)"/>
      <path id="DejaVuSans-43" d="M 4122 4306 
L 4122 3641 
Q 3803 3938 3442 4084 
Q 3081 4231 2675 4231 
Q 1875 4231 1450 3742 
Q 1025 3253 1025 2328 
Q 1025 1406 1450 917 
Q 1875 428 2675 428 
Q 3081 428 3442 575 
Q 3803 722 4122 1019 
L 4122 359 
Q 3791 134 3420 21 
Q 3050 -91 2638 -91 
Q 1578 -91 968 557 
Q 359 1206 359 2328 
Q 359 3453 968 4101 
Q 1578 4750 2638 4750 
Q 3056 4750 3426 4639 
Q 3797 4528 4122 4306 
z
" transform="scale(0.015625)"/>
      <path id="DejaVuSans-47" d="M 3809 666 
L 3809 1919 
L 2778 1919 
L 2778 2438 
L 4434 2438 
L 4434 434 
Q 4069 175 3628 42 
Q 3188 -91 2688 -91 
Q 1594 -91 976 548 
Q 359 1188 359 2328 
Q 359 3472 976 4111 
Q 1594 4750 2688 4750 
Q 3144 4750 3555 4637 
Q 3966 4525 4313 4306 
L 4313 3634 
Q 3963 3931 3569 4081 
Q 3175 4231 2741 4231 
Q 1884 4231 1454 3753 
Q 1025 3275 1025 2328 
Q 1025 1384 1454 906 
Q 1884 428 2741 428 
Q 3075 428 3337 486 
Q 3600 544 3809 666 
z
" transform="scale(0.015625)"/>
      <path id="DejaVuSans-41" d="M 2188 4044 
L 1331 1722 
L 3047 1722 
L 2188 4044 
z
M 1831 4666 
L 2547 4666 
L 4325 0 
L 3669 0 
L 3244 1197 
L 1141 1197 
L 716 0 
L 50 0 
L 1831 4666 
z
" transform="scale(0.015625)"/>
     </defs>
     <use xlink:href="#DejaVuSans-4c"/>
     <use xlink:href="#DejaVuSans-43" x="55.712891"/>
     <use xlink:href="#DejaVuSans-47" x="125.537109"/>
     <use xlink:href="#DejaVuSans-41" x="203.027344"/>
    </g>
   </g>
   <g id="text_14">
    <!-- EvoSpace- -->
    <g transform="translate(386.578944 167.159125)scale(0.14 -0.14)">
     <defs>
      <path id="DejaVuSans-45" d="M 628 4666 
L 3578 4666 
L 3578 4134 
L 1259 4134 
L 1259 2753 
L 3481 2753 
L 3481 2222 
L 1259 2222 
L 1259 531 
L 3634 531 
L 3634 0 
L 628 0 
L 628 4666 
z
" transform="scale(0.015625)"/>
      <path id="DejaVuSans-53" d="M 3425 4513 
L 3425 3897 
Q 3066 4069 2747 4153 
Q 2428 4238 2131 4238 
Q 1616 4238 1336 4038 
Q 1056 3838 1056 3469 
Q 1056 3159 1242 3001 
Q 1428 2844 1947 2747 
L 2328 2669 
Q 3034 2534 3370 2195 
Q 3706 1856 3706 1288 
Q 3706 609 3251 259 
Q 2797 -91 1919 -91 
Q 1588 -91 1214 -16 
Q 841 59 441 206 
L 441 856 
Q 825 641 1194 531 
Q 1563 422 1919 422 
Q 2459 422 2753 634 
Q 3047 847 3047 1241 
Q 3047 1584 2836 1778 
Q 2625 1972 2144 2069 
L 1759 2144 
Q 1053 2284 737 2584 
Q 422 2884 422 3419 
Q 422 4038 858 4394 
Q 1294 4750 2059 4750 
Q 2388 4750 2728 4690 
Q 3069 4631 3425 4513 
z
" transform="scale(0.015625)"/>
     </defs>
     <use xlink:href="#DejaVuSans-45"/>
     <use xlink:href="#DejaVuSans-76" x="63.183594"/>
     <use xlink:href="#DejaVuSans-6f" x="122.363281"/>
     <use xlink:href="#DejaVuSans-53" x="183.544922"/>
     <use xlink:href="#DejaVuSans-70" x="247.021484"/>
     <use xlink:href="#DejaVuSans-61" x="310.498047"/>
     <use xlink:href="#DejaVuSans-63" x="371.777344"/>
     <use xlink:href="#DejaVuSans-65" x="426.757812"/>
     <use xlink:href="#DejaVuSans-2d" x="488.28125"/>
    </g>
   </g>
   <g id="text_15">
    <!-- best 2009 -->
    <g transform="translate(386.578944 36.937045)scale(0.14 -0.14)">
     <defs>
      <path id="DejaVuSans-62" d="M 3116 1747 
Q 3116 2381 2855 2742 
Q 2594 3103 2138 3103 
Q 1681 3103 1420 2742 
Q 1159 2381 1159 1747 
Q 1159 1113 1420 752 
Q 1681 391 2138 391 
Q 2594 391 2855 752 
Q 3116 1113 3116 1747 
z
M 1159 2969 
Q 1341 3281 1617 3432 
Q 1894 3584 2278 3584 
Q 2916 3584 3314 3078 
Q 3713 2572 3713 1747 
Q 3713 922 3314 415 
Q 2916 -91 2278 -91 
Q 1894 -91 1617 61 
Q 1341 213 1159 525 
L 1159 0 
L 581 0 
L 581 4863 
L 1159 4863 
L 1159 2969 
z
" transform="scale(0.015625)"/>
      <path id="DejaVuSans-39" d="M 703 97 
L 703 672 
Q 941 559 1184 500 
Q 1428 441 1663 441 
Q 2288 441 2617 861 
Q 2947 1281 2994 2138 
Q 2813 1869 2534 1725 
Q 2256 1581 1919 1581 
Q 1219 1581 811 2004 
Q 403 2428 403 3163 
Q 403 3881 828 4315 
Q 1253 4750 1959 4750 
Q 2769 4750 3195 4129 
Q 3622 3509 3622 2328 
Q 3622 1225 3098 567 
Q 2575 -91 1691 -91 
Q 1453 -91 1209 -44 
Q 966 3 703 97 
z
M 1959 2075 
Q 2384 2075 2632 2365 
Q 2881 2656 2881 3163 
Q 2881 3666 2632 3958 
Q 2384 4250 1959 4250 
Q 1534 4250 1286 3958 
Q 1038 3666 1038 3163 
Q 1038 2656 1286 2365 
Q 1534 2075 1959 2075 
z
" transform="scale(0.015625)"/>
     </defs>
     <use xlink:href="#DejaVuSans-62"/>
     <use xlink:href="#DejaVuSans-65" x="63.476562"/>
     <use xlink:href="#DejaVuSans-73" x="125"/>
     <use xlink:href="#DejaVuSans-74" x="177.099609"/>
     <use xlink:href="#DejaVuSans-20" x="216.308594"/>
     <use xlink:href="#DejaVuSans-32" x="248.095703"/>
     <use xlink:href="#DejaVuSans-30" x="311.71875"/>
     <use xlink:href="#DejaVuSans-30" x="375.341797"/>
     <use xlink:href="#DejaVuSans-39" x="438.964844"/>
    </g>
   </g>
   <g id="text_16">
    <!-- bbob f22, 10-D -->
    <g transform="translate(60.632064 38.111366)scale(0.102 -0.102)">
     <defs>
      <path id="DejaVuSans-44" d="M 1259 4147 
L 1259 519 
L 2022 519 
Q 2988 519 3436 956 
Q 3884 1394 3884 2338 
Q 3884 3275 3436 3711 
Q 2988 4147 2022 4147 
L 1259 4147 
z
M 628 4666 
L 1925 4666 
Q 3281 4666 3915 4102 
Q 4550 3538 4550 2338 
Q 4550 1131 3912 565 
Q 3275 0 1925 0 
L 628 0 
L 628 4666 
z
" transform="scale(0.015625)"/>
     </defs>
     <use xlink:href="#DejaVuSans-62"/>
     <use xlink:href="#DejaVuSans-62" x="63.476562"/>
     <use xlink:href="#DejaVuSans-6f" x="126.953125"/>
     <use xlink:href="#DejaVuSans-62" x="188.134766"/>
     <use xlink:href="#DejaVuSans-20" x="251.611328"/>
     <use xlink:href="#DejaVuSans-66" x="283.398438"/>
     <use xlink:href="#DejaVuSans-32" x="318.603516"/>
     <use xlink:href="#DejaVuSans-32" x="382.226562"/>
     <use xlink:href="#DejaVuSans-2c" x="445.849609"/>
     <use xlink:href="#DejaVuSans-20" x="477.636719"/>
     <use xlink:href="#DejaVuSans-31" x="509.423828"/>
     <use xlink:href="#DejaVuSans-30" x="573.046875"/>
     <use xlink:href="#DejaVuSans-2d" x="636.669922"/>
     <use xlink:href="#DejaVuSans-44" x="672.753906"/>
    </g>
    <!-- 51 targets: 100..1e-08 -->
    <g transform="translate(60.632064 49.533135)scale(0.102 -0.102)">
     <defs>
      <path id="DejaVuSans-35" d="M 691 4666 
L 3169 4666 
L 3169 4134 
L 1269 4134 
L 1269 2991 
Q 1406 3038 1543 3061 
Q 1681 3084 1819 3084 
Q 2600 3084 3056 2656 
Q 3513 2228 3513 1497 
Q 3513 744 3044 326 
Q 2575 -91 1722 -91 
Q 1428 -91 1123 -41 
Q 819 9 494 109 
L 494 744 
Q 775 591 1075 516 
Q 1375 441 1709 441 
Q 2250 441 2565 725 
Q 2881 1009 2881 1497 
Q 2881 1984 2565 2268 
Q 2250 2553 1709 2553 
Q 1456 2553 1204 2497 
Q 953 2441 691 2322 
L 691 4666 
z
" transform="scale(0.015625)"/>
      <path id="DejaVuSans-3a" d="M 750 794 
L 1409 794 
L 1409 0 
L 750 0 
L 750 794 
z
M 750 3309 
L 1409 3309 
L 1409 2516 
L 750 2516 
L 750 3309 
z
" transform="scale(0.015625)"/>
     </defs>
     <use xlink:href="#DejaVuSans-35"/>
     <use xlink:href="#DejaVuSans-31" x="63.623047"/>
     <use xlink:href="#DejaVuSans-20" x="127.246094"/>
     <use xlink:href="#DejaVuSans-74" x="159.033203"/>
     <use xlink:href="#DejaVuSans-61" x="198.242188"/>
     <use xlink:href="#DejaVuSans-72" x="259.521484"/>
     <use xlink:href="#DejaVuSans-67" x="298.884766"/>
     <use xlink:href="#DejaVuSans-65" x="362.361328"/>
     <use xlink:href="#DejaVuSans-74" x="423.884766"/>
     <use xlink:href="#DejaVuSans-73" x="463.09375"/>
     <use xlink:href="#DejaVuSans-3a" x="515.193359"/>
     <use xlink:href="#DejaVuSans-20" x="548.884766"/>
     <use xlink:href="#DejaVuSans-31" x="580.671875"/>
     <use xlink:href="#DejaVuSans-30" x="644.294922"/>
     <use xlink:href="#DejaVuSans-30" x="707.917969"/>
     <use xlink:href="#DejaVuSans-2e" x="771.541016"/>
     <use xlink:href="#DejaVuSans-2e" x="803.328125"/>
     <use xlink:href="#DejaVuSans-31" x="835.115234"/>
     <use xlink:href="#DejaVuSans-65" x="898.738281"/>
     <use xlink:href="#DejaVuSans-2d" x="960.261719"/>
     <use xlink:href="#DejaVuSans-30" x="996.345703"/>
     <use xlink:href="#DejaVuSans-38" x="1059.96875"/>
    </g>
    <!-- 15 instances -->
    <g transform="translate(60.632064 60.954904)scale(0.102 -0.102)">
     <use xlink:href="#DejaVuSans-31"/>
     <use xlink:href="#DejaVuSans-35" x="63.623047"/>
     <use xlink:href="#DejaVuSans-20" x="127.246094"/>
     <use xlink:href="#DejaVuSans-69" x="159.033203"/>
     <use xlink:href="#DejaVuSans-6e" x="186.816406"/>
     <use xlink:href="#DejaVuSans-73" x="250.195312"/>
     <use xlink:href="#DejaVuSans-74" x="302.294922"/>
     <use xlink:href="#DejaVuSans-61" x="341.503906"/>
     <use xlink:href="#DejaVuSans-6e" x="402.783203"/>
     <use xlink:href="#DejaVuSans-63" x="466.162109"/>
     <use xlink:href="#DejaVuSans-65" x="521.142578"/>
     <use xlink:href="#DejaVuSans-73" x="582.666016"/>
    </g>
   </g>
   <g id="text_17">
    <!-- v2.6 -->
    <g style="fill: #808080" transform="translate(198.292262 294.151352)scale(0.1 -0.1)">
     <use xlink:href="#DejaVuSans-76"/>
     <use xlink:href="#DejaVuSans-32" x="59.179688"/>
     <use xlink:href="#DejaVuSans-2e" x="122.802734"/>
     <use xlink:href="#DejaVuSans-36" x="154.589844"/>
    </g>
   </g>
   <g id="text_18">
    <!-- 22 Gallagher 21 peaks -->
    <g transform="translate(96.0782 21.648)scale(0.2 -0.2)">
     <defs>
      <path id="DejaVuSans-68" d="M 3513 2113 
L 3513 0 
L 2938 0 
L 2938 2094 
Q 2938 2591 2744 2837 
Q 2550 3084 2163 3084 
Q 1697 3084 1428 2787 
Q 1159 2491 1159 1978 
L 1159 0 
L 581 0 
L 581 4863 
L 1159 4863 
L 1159 2956 
Q 1366 3272 1645 3428 
Q 1925 3584 2291 3584 
Q 2894 3584 3203 3211 
Q 3513 2838 3513 2113 
z
" transform="scale(0.015625)"/>
      <path id="DejaVuSans-6b" d="M 581 4863 
L 1159 4863 
L 1159 1991 
L 2875 3500 
L 3609 3500 
L 1753 1863 
L 3688 0 
L 2938 0 
L 1159 1709 
L 1159 0 
L 581 0 
L 581 4863 
z
" transform="scale(0.015625)"/>
     </defs>
     <use xlink:href="#DejaVuSans-32"/>
     <use xlink:href="#DejaVuSans-32" x="63.623047"/>
     <use xlink:href="#DejaVuSans-20" x="127.246094"/>
     <use xlink:href="#DejaVuSans-47" x="159.033203"/>
     <use xlink:href="#DejaVuSans-61" x="236.523438"/>
     <use xlink:href="#DejaVuSans-6c" x="297.802734"/>
     <use xlink:href="#DejaVuSans-6c" x="325.585938"/>
     <use xlink:href="#DejaVuSans-61" x="353.369141"/>
     <use xlink:href="#DejaVuSans-67" x="414.648438"/>
     <use xlink:href="#DejaVuSans-68" x="478.125"/>
     <use xlink:href="#DejaVuSans-65" x="541.503906"/>
     <use xlink:href="#DejaVuSans-72" x="603.027344"/>
     <use xlink:href="#DejaVuSans-20" x="644.140625"/>
     <use xlink:href="#DejaVuSans-32" x="675.927734"/>
     <use xlink:href="#DejaVuSans-31" x="739.550781"/>
     <use xlink:href="#DejaVuSans-20" x="803.173828"/>
     <use xlink:href="#DejaVuSans-70" x="834.960938"/>
     <use xlink:href="#DejaVuSans-65" x="898.4375"/>
     <use xlink:href="#DejaVuSans-61" x="959.960938"/>
     <use xlink:href="#DejaVuSans-6b" x="1021.240234"/>
     <use xlink:href="#DejaVuSans-73" x="1079.150391"/>
    </g>
   </g>
  </g>
 </g>
 <defs>
  <clipPath id="p5e716755bf">
   <rect x="57.6" y="27.648" width="303.2064" height="271.296"/>
  </clipPath>
 </defs>
</svg>
