<?xml version="1.0" encoding="utf-8" standalone="no"?>
<!DOCTYPE svg PUBLIC "-//W3C//DTD SVG 1.1//EN"
  "http://www.w3.org/Graphics/SVG/1.1/DTD/svg11.dtd">
<svg xmlns:xlink="http://www.w3.org/1999/xlink" width="460.8pt" height="345.6pt" viewBox="0 0 460.8 345.6" xmlns="http://www.w3.org/2000/svg" version="1.1">
 <metadata>
  <rdf:RDF xmlns:dc="http://purl.org/dc/elements/1.1/" xmlns:cc="http://creativecommons.org/ns#" xmlns:rdf="http://www.w3.org/1999/02/22-rdf-syntax-ns#">
   <cc:Work>
    <dc:type rdf:resource="http://purl.org/dc/dcmitype/StillImage"/>
    <dc:date>2024-05-29T08:06:03.633806</dc:date>
    <dc:format>image/svg+xml</dc:format>
    <dc:creator>
     <cc:Agent>
      <dc:title>Matplotlib v3.5.1, https://matplotlib.org/</dc:title>
     </cc:Agent>
    </dc:creator>
   </cc:Work>
  </rdf:RDF>
 </metadata>
 <defs>
  <style type="text/css">*{stroke-linejoin: round; stroke-linecap: butt}</style>
 </defs>
 <g id="figure_1">
  <g id="patch_1">
   <path d="M 0 345.6 
L 460.8 345.6 
L 460.8 0 
L 0 0 
z
" style="fill: #ffffff"/>
  </g>
  <g id="axes_1">
   <g id="patch_2">
    <path d="M 57.6 298.944 
L 360.8064 298.944 
L 360.8064 27.648 
L 57.6 27.648 
z
" style="fill: #ffffff"/>
   </g>
   <g id="line2d_1">
    <path d="M 36.933397 298.944 
L 36.933397 224.470588 
L 119.599808 224.470588 
L 119.599808 219.151059 
L 125.184934 219.151059 
L 125.184934 208.512 
L 126.836129 208.512 
L 126.836129 203.192471 
L 130.553485 203.192471 
L 130.553485 197.872941 
L 170.773255 197.872941 
L 170.773255 192.553412 
L 202.839432 192.553412 
L 202.839432 187.233882 
L 204.392166 187.233882 
L 204.392166 181.914353 
L 204.404966 181.914353 
L 204.404966 176.594824 
L 204.410083 176.594824 
L 204.410083 171.275294 
L 204.430539 171.275294 
L 204.430539 165.955765 
L 204.445866 165.955765 
L 204.445866 160.636235 
L 204.458629 160.636235 
L 204.458629 149.997176 
L 204.463732 149.997176 
L 204.463732 144.677647 
L 204.476483 144.677647 
L 204.476483 134.038588 
L 204.481581 134.038588 
L 204.481581 128.719059 
L 204.50705 128.719059 
L 204.50705 123.399529 
L 204.519772 123.399529 
L 204.519772 112.760471 
L 204.527401 112.760471 
L 204.527401 107.440941 
L 204.532485 107.440941 
L 204.532485 102.121412 
L 204.54519 102.121412 
L 204.54519 96.801882 
L 204.565499 96.801882 
L 204.565499 91.482353 
L 204.590855 91.482353 
L 204.590855 86.162824 
L 204.595922 86.162824 
L 204.595922 80.843294 
L 204.60352 80.843294 
L 204.60352 75.523765 
L 204.616177 75.523765 
L 204.616177 64.884706 
L 204.633882 64.884706 
L 204.633882 54.245647 
L 204.646518 54.245647 
L 204.646518 48.926118 
L 204.691938 48.926118 
L 204.691938 43.606588 
L 204.699498 43.606588 
L 204.699498 38.287059 
L 204.709572 38.287059 
L 204.709572 32.967529 
L 204.737249 32.967529 
L 204.737249 27.648 
L 360.8064 27.648 
" style="fill: none; stroke: #f5deb3; stroke-width: 4; stroke-linecap: square"/>
   </g>
   <g id="line2d_2">
    <defs>
     <path id="m5dd487996a" d="M 0 7.778175 
L 7.778175 0 
L 0 -7.778175 
L -7.778175 0 
z
" style="stroke: #f5deb3; stroke-width: 1.5; stroke-linejoin: miter"/>
    </defs>
    <g>
     <use xlink:href="#m5dd487996a" x="204.404966" y="181.914353" style="fill: #f5deb3; stroke: #f5deb3; stroke-width: 1.5; stroke-linejoin: miter"/>
     <use xlink:href="#m5dd487996a" x="204.616177" y="75.523765" style="fill: #f5deb3; stroke: #f5deb3; stroke-width: 1.5; stroke-linejoin: miter"/>
     <use xlink:href="#m5dd487996a" x="204.737249" y="27.648" style="fill: #f5deb3; stroke: #f5deb3; stroke-width: 1.5; stroke-linejoin: miter"/>
     <use xlink:href="#m5dd487996a" x="204.737249" y="27.648" style="fill: #f5deb3; stroke: #f5deb3; stroke-width: 1.5; stroke-linejoin: miter"/>
     <use xlink:href="#m5dd487996a" x="360.8064" y="27.648" style="fill: #f5deb3; stroke: #f5deb3; stroke-width: 1.5; stroke-linejoin: miter"/>
    </g>
   </g>
   <g id="line2d_3">
    <path style="fill: none; stroke: #f5deb3; stroke-width: 4; stroke-linecap: square"/>
    <g/>
   </g>
   <g id="line2d_4">
    <path d="M 360.8064 27.648 
L 380.514816 33.07392 
" style="fill: none; stroke: #f5deb3; stroke-width: 4; stroke-linecap: square"/>
    <g>
     <use xlink:href="#m5dd487996a" x="360.8064" y="27.648" style="fill: #f5deb3; stroke: #f5deb3; stroke-width: 1.5; stroke-linejoin: miter"/>
     <use xlink:href="#m5dd487996a" x="380.514816" y="33.07392" style="fill: #f5deb3; stroke: #f5deb3; stroke-width: 1.5; stroke-linejoin: miter"/>
    </g>
   </g>
   <g id="matplotlib.axis_1">
    <g id="xtick_1">
     <g id="line2d_5">
      <path d="M 57.6 298.944 
L 57.6 27.648 
" clip-path="url(#pec14ddf898)" style="fill: none; stroke: #b0b0b0; stroke-width: 0.8; stroke-linecap: square"/>
     </g>
     <g id="line2d_6">
      <defs>
       <path id="m95b6908a5b" d="M 0 0 
L 0 3.5 
" style="stroke: #000000; stroke-width: 0.8"/>
      </defs>
      <g>
       <use xlink:href="#m95b6908a5b" x="57.6" y="298.944" style="stroke: #000000; stroke-width: 0.8"/>
      </g>
     </g>
     <g id="text_1">
      <!-- 0 -->
      <g transform="translate(52.191875 318.861344)scale(0.17 -0.17)">
       <defs>
        <path id="DejaVuSans-30" d="M 2034 4250 
Q 1547 4250 1301 3770 
Q 1056 3291 1056 2328 
Q 1056 1369 1301 889 
Q 1547 409 2034 409 
Q 2525 409 2770 889 
Q 3016 1369 3016 2328 
Q 3016 3291 2770 3770 
Q 2525 4250 2034 4250 
z
M 2034 4750 
Q 2819 4750 3233 4129 
Q 3647 3509 3647 2328 
Q 3647 1150 3233 529 
Q 2819 -91 2034 -91 
Q 1250 -91 836 529 
Q 422 1150 422 2328 
Q 422 3509 836 4129 
Q 1250 4750 2034 4750 
z
" transform="scale(0.015625)"/>
       </defs>
       <use xlink:href="#DejaVuSans-30"/>
      </g>
     </g>
    </g>
    <g id="xtick_2">
     <g id="line2d_7">
      <path d="M 144.2304 298.944 
L 144.2304 27.648 
" clip-path="url(#pec14ddf898)" style="fill: none; stroke: #b0b0b0; stroke-width: 0.8; stroke-linecap: square"/>
     </g>
     <g id="line2d_8">
      <g>
       <use xlink:href="#m95b6908a5b" x="144.2304" y="298.944" style="stroke: #000000; stroke-width: 0.8"/>
      </g>
     </g>
     <g id="text_2">
      <!-- 2 -->
      <g transform="translate(138.822275 318.861344)scale(0.17 -0.17)">
       <defs>
        <path id="DejaVuSans-32" d="M 1228 531 
L 3431 531 
L 3431 0 
L 469 0 
L 469 531 
Q 828 903 1448 1529 
Q 2069 2156 2228 2338 
Q 2531 2678 2651 2914 
Q 2772 3150 2772 3378 
Q 2772 3750 2511 3984 
Q 2250 4219 1831 4219 
Q 1534 4219 1204 4116 
Q 875 4013 500 3803 
L 500 4441 
Q 881 4594 1212 4672 
Q 1544 4750 1819 4750 
Q 2544 4750 2975 4387 
Q 3406 4025 3406 3419 
Q 3406 3131 3298 2873 
Q 3191 2616 2906 2266 
Q 2828 2175 2409 1742 
Q 1991 1309 1228 531 
z
" transform="scale(0.015625)"/>
       </defs>
       <use xlink:href="#DejaVuSans-32"/>
      </g>
     </g>
    </g>
    <g id="xtick_3">
     <g id="line2d_9">
      <path d="M 230.8608 298.944 
L 230.8608 27.648 
" clip-path="url(#pec14ddf898)" style="fill: none; stroke: #b0b0b0; stroke-width: 0.8; stroke-linecap: square"/>
     </g>
     <g id="line2d_10">
      <g>
       <use xlink:href="#m95b6908a5b" x="230.8608" y="298.944" style="stroke: #000000; stroke-width: 0.8"/>
      </g>
     </g>
     <g id="text_3">
      <!-- 4 -->
      <g transform="translate(225.452675 318.861344)scale(0.17 -0.17)">
       <defs>
        <path id="DejaVuSans-34" d="M 2419 4116 
L 825 1625 
L 2419 1625 
L 2419 4116 
z
M 2253 4666 
L 3047 4666 
L 3047 1625 
L 3713 1625 
L 3713 1100 
L 3047 1100 
L 3047 0 
L 2419 0 
L 2419 1100 
L 313 1100 
L 313 1709 
L 2253 4666 
z
" transform="scale(0.015625)"/>
       </defs>
       <use xlink:href="#DejaVuSans-34"/>
      </g>
     </g>
    </g>
    <g id="xtick_4">
     <g id="line2d_11">
      <path d="M 317.4912 298.944 
L 317.4912 27.648 
" clip-path="url(#pec14ddf898)" style="fill: none; stroke: #b0b0b0; stroke-width: 0.8; stroke-linecap: square"/>
     </g>
     <g id="line2d_12">
      <g>
       <use xlink:href="#m95b6908a5b" x="317.4912" y="298.944" style="stroke: #000000; stroke-width: 0.8"/>
      </g>
     </g>
     <g id="text_4">
      <!-- 6 -->
      <g transform="translate(312.083075 318.861344)scale(0.17 -0.17)">
       <defs>
        <path id="DejaVuSans-36" d="M 2113 2584 
Q 1688 2584 1439 2293 
Q 1191 2003 1191 1497 
Q 1191 994 1439 701 
Q 1688 409 2113 409 
Q 2538 409 2786 701 
Q 3034 994 3034 1497 
Q 3034 2003 2786 2293 
Q 2538 2584 2113 2584 
z
M 3366 4563 
L 3366 3988 
Q 3128 4100 2886 4159 
Q 2644 4219 2406 4219 
Q 1781 4219 1451 3797 
Q 1122 3375 1075 2522 
Q 1259 2794 1537 2939 
Q 1816 3084 2150 3084 
Q 2853 3084 3261 2657 
Q 3669 2231 3669 1497 
Q 3669 778 3244 343 
Q 2819 -91 2113 -91 
Q 1303 -91 875 529 
Q 447 1150 447 2328 
Q 447 3434 972 4092 
Q 1497 4750 2381 4750 
Q 2619 4750 2861 4703 
Q 3103 4656 3366 4563 
z
" transform="scale(0.015625)"/>
       </defs>
       <use xlink:href="#DejaVuSans-36"/>
      </g>
     </g>
    </g>
    <g id="xtick_5">
     <g id="line2d_13">
      <path d="M 100.9152 298.944 
L 100.9152 27.648 
" clip-path="url(#pec14ddf898)" style="fill: none; stroke: #b0b0b0; stroke-width: 0.8; stroke-linecap: square"/>
     </g>
     <g id="line2d_14">
      <defs>
       <path id="m24fc360043" d="M 0 0 
L 0 2 
" style="stroke: #000000; stroke-width: 0.6"/>
      </defs>
      <g>
       <use xlink:href="#m24fc360043" x="100.9152" y="298.944" style="stroke: #000000; stroke-width: 0.6"/>
      </g>
     </g>
    </g>
    <g id="xtick_6">
     <g id="line2d_15">
      <path d="M 187.5456 298.944 
L 187.5456 27.648 
" clip-path="url(#pec14ddf898)" style="fill: none; stroke: #b0b0b0; stroke-width: 0.8; stroke-linecap: square"/>
     </g>
     <g id="line2d_16">
      <g>
       <use xlink:href="#m24fc360043" x="187.5456" y="298.944" style="stroke: #000000; stroke-width: 0.6"/>
      </g>
     </g>
    </g>
    <g id="xtick_7">
     <g id="line2d_17">
      <path d="M 274.176 298.944 
L 274.176 27.648 
" clip-path="url(#pec14ddf898)" style="fill: none; stroke: #b0b0b0; stroke-width: 0.8; stroke-linecap: square"/>
     </g>
     <g id="line2d_18">
      <g>
       <use xlink:href="#m24fc360043" x="274.176" y="298.944" style="stroke: #000000; stroke-width: 0.6"/>
      </g>
     </g>
    </g>
    <g id="xtick_8">
     <g id="line2d_19">
      <path d="M 360.8064 298.944 
L 360.8064 27.648 
" clip-path="url(#pec14ddf898)" style="fill: none; stroke: #b0b0b0; stroke-width: 0.8; stroke-linecap: square"/>
     </g>
     <g id="line2d_20">
      <g>
       <use xlink:href="#m24fc360043" x="360.8064" y="298.944" style="stroke: #000000; stroke-width: 0.6"/>
      </g>
     </g>
    </g>
    <g id="text_5">
     <!-- log10(# f-evals / dimension) -->
     <g transform="translate(88.823278 339.314156)scale(0.17 -0.17)">
      <defs>
       <path id="DejaVuSans-6c" d="M 603 4863 
L 1178 4863 
L 1178 0 
L 603 0 
L 603 4863 
z
" transform="scale(0.015625)"/>
       <path id="DejaVuSans-6f" d="M 1959 3097 
Q 1497 3097 1228 2736 
Q 959 2375 959 1747 
Q 959 1119 1226 758 
Q 1494 397 1959 397 
Q 2419 397 2687 759 
Q 2956 1122 2956 1747 
Q 2956 2369 2687 2733 
Q 2419 3097 1959 3097 
z
M 1959 3584 
Q 2709 3584 3137 3096 
Q 3566 2609 3566 1747 
Q 3566 888 3137 398 
Q 2709 -91 1959 -91 
Q 1206 -91 779 398 
Q 353 888 353 1747 
Q 353 2609 779 3096 
Q 1206 3584 1959 3584 
z
" transform="scale(0.015625)"/>
       <path id="DejaVuSans-67" d="M 2906 1791 
Q 2906 2416 2648 2759 
Q 2391 3103 1925 3103 
Q 1463 3103 1205 2759 
Q 947 2416 947 1791 
Q 947 1169 1205 825 
Q 1463 481 1925 481 
Q 2391 481 2648 825 
Q 2906 1169 2906 1791 
z
M 3481 434 
Q 3481 -459 3084 -895 
Q 2688 -1331 1869 -1331 
Q 1566 -1331 1297 -1286 
Q 1028 -1241 775 -1147 
L 775 -588 
Q 1028 -725 1275 -790 
Q 1522 -856 1778 -856 
Q 2344 -856 2625 -561 
Q 2906 -266 2906 331 
L 2906 616 
Q 2728 306 2450 153 
Q 2172 0 1784 0 
Q 1141 0 747 490 
Q 353 981 353 1791 
Q 353 2603 747 3093 
Q 1141 3584 1784 3584 
Q 2172 3584 2450 3431 
Q 2728 3278 2906 2969 
L 2906 3500 
L 3481 3500 
L 3481 434 
z
" transform="scale(0.015625)"/>
       <path id="DejaVuSans-31" d="M 794 531 
L 1825 531 
L 1825 4091 
L 703 3866 
L 703 4441 
L 1819 4666 
L 2450 4666 
L 2450 531 
L 3481 531 
L 3481 0 
L 794 0 
L 794 531 
z
" transform="scale(0.015625)"/>
       <path id="DejaVuSans-28" d="M 1984 4856 
Q 1566 4138 1362 3434 
Q 1159 2731 1159 2009 
Q 1159 1288 1364 580 
Q 1569 -128 1984 -844 
L 1484 -844 
Q 1016 -109 783 600 
Q 550 1309 550 2009 
Q 550 2706 781 3412 
Q 1013 4119 1484 4856 
L 1984 4856 
z
" transform="scale(0.015625)"/>
       <path id="DejaVuSans-23" d="M 3272 2816 
L 2363 2816 
L 2100 1772 
L 3016 1772 
L 3272 2816 
z
M 2803 4594 
L 2478 3297 
L 3391 3297 
L 3719 4594 
L 4219 4594 
L 3897 3297 
L 4872 3297 
L 4872 2816 
L 3775 2816 
L 3519 1772 
L 4513 1772 
L 4513 1294 
L 3397 1294 
L 3072 0 
L 2572 0 
L 2894 1294 
L 1978 1294 
L 1656 0 
L 1153 0 
L 1478 1294 
L 494 1294 
L 494 1772 
L 1594 1772 
L 1856 2816 
L 850 2816 
L 850 3297 
L 1978 3297 
L 2297 4594 
L 2803 4594 
z
" transform="scale(0.015625)"/>
       <path id="DejaVuSans-20" transform="scale(0.015625)"/>
       <path id="DejaVuSans-66" d="M 2375 4863 
L 2375 4384 
L 1825 4384 
Q 1516 4384 1395 4259 
Q 1275 4134 1275 3809 
L 1275 3500 
L 2222 3500 
L 2222 3053 
L 1275 3053 
L 1275 0 
L 697 0 
L 697 3053 
L 147 3053 
L 147 3500 
L 697 3500 
L 697 3744 
Q 697 4328 969 4595 
Q 1241 4863 1831 4863 
L 2375 4863 
z
" transform="scale(0.015625)"/>
       <path id="DejaVuSans-2d" d="M 313 2009 
L 1997 2009 
L 1997 1497 
L 313 1497 
L 313 2009 
z
" transform="scale(0.015625)"/>
       <path id="DejaVuSans-65" d="M 3597 1894 
L 3597 1613 
L 953 1613 
Q 991 1019 1311 708 
Q 1631 397 2203 397 
Q 2534 397 2845 478 
Q 3156 559 3463 722 
L 3463 178 
Q 3153 47 2828 -22 
Q 2503 -91 2169 -91 
Q 1331 -91 842 396 
Q 353 884 353 1716 
Q 353 2575 817 3079 
Q 1281 3584 2069 3584 
Q 2775 3584 3186 3129 
Q 3597 2675 3597 1894 
z
M 3022 2063 
Q 3016 2534 2758 2815 
Q 2500 3097 2075 3097 
Q 1594 3097 1305 2825 
Q 1016 2553 972 2059 
L 3022 2063 
z
" transform="scale(0.015625)"/>
       <path id="DejaVuSans-76" d="M 191 3500 
L 800 3500 
L 1894 563 
L 2988 3500 
L 3597 3500 
L 2284 0 
L 1503 0 
L 191 3500 
z
" transform="scale(0.015625)"/>
       <path id="DejaVuSans-61" d="M 2194 1759 
Q 1497 1759 1228 1600 
Q 959 1441 959 1056 
Q 959 750 1161 570 
Q 1363 391 1709 391 
Q 2188 391 2477 730 
Q 2766 1069 2766 1631 
L 2766 1759 
L 2194 1759 
z
M 3341 1997 
L 3341 0 
L 2766 0 
L 2766 531 
Q 2569 213 2275 61 
Q 1981 -91 1556 -91 
Q 1019 -91 701 211 
Q 384 513 384 1019 
Q 384 1609 779 1909 
Q 1175 2209 1959 2209 
L 2766 2209 
L 2766 2266 
Q 2766 2663 2505 2880 
Q 2244 3097 1772 3097 
Q 1472 3097 1187 3025 
Q 903 2953 641 2809 
L 641 3341 
Q 956 3463 1253 3523 
Q 1550 3584 1831 3584 
Q 2591 3584 2966 3190 
Q 3341 2797 3341 1997 
z
" transform="scale(0.015625)"/>
       <path id="DejaVuSans-73" d="M 2834 3397 
L 2834 2853 
Q 2591 2978 2328 3040 
Q 2066 3103 1784 3103 
Q 1356 3103 1142 2972 
Q 928 2841 928 2578 
Q 928 2378 1081 2264 
Q 1234 2150 1697 2047 
L 1894 2003 
Q 2506 1872 2764 1633 
Q 3022 1394 3022 966 
Q 3022 478 2636 193 
Q 2250 -91 1575 -91 
Q 1294 -91 989 -36 
Q 684 19 347 128 
L 347 722 
Q 666 556 975 473 
Q 1284 391 1588 391 
Q 1994 391 2212 530 
Q 2431 669 2431 922 
Q 2431 1156 2273 1281 
Q 2116 1406 1581 1522 
L 1381 1569 
Q 847 1681 609 1914 
Q 372 2147 372 2553 
Q 372 3047 722 3315 
Q 1072 3584 1716 3584 
Q 2034 3584 2315 3537 
Q 2597 3491 2834 3397 
z
" transform="scale(0.015625)"/>
       <path id="DejaVuSans-2f" d="M 1625 4666 
L 2156 4666 
L 531 -594 
L 0 -594 
L 1625 4666 
z
" transform="scale(0.015625)"/>
       <path id="DejaVuSans-64" d="M 2906 2969 
L 2906 4863 
L 3481 4863 
L 3481 0 
L 2906 0 
L 2906 525 
Q 2725 213 2448 61 
Q 2172 -91 1784 -91 
Q 1150 -91 751 415 
Q 353 922 353 1747 
Q 353 2572 751 3078 
Q 1150 3584 1784 3584 
Q 2172 3584 2448 3432 
Q 2725 3281 2906 2969 
z
M 947 1747 
Q 947 1113 1208 752 
Q 1469 391 1925 391 
Q 2381 391 2643 752 
Q 2906 1113 2906 1747 
Q 2906 2381 2643 2742 
Q 2381 3103 1925 3103 
Q 1469 3103 1208 2742 
Q 947 2381 947 1747 
z
" transform="scale(0.015625)"/>
       <path id="DejaVuSans-69" d="M 603 3500 
L 1178 3500 
L 1178 0 
L 603 0 
L 603 3500 
z
M 603 4863 
L 1178 4863 
L 1178 4134 
L 603 4134 
L 603 4863 
z
" transform="scale(0.015625)"/>
       <path id="DejaVuSans-6d" d="M 3328 2828 
Q 3544 3216 3844 3400 
Q 4144 3584 4550 3584 
Q 5097 3584 5394 3201 
Q 5691 2819 5691 2113 
L 5691 0 
L 5113 0 
L 5113 2094 
Q 5113 2597 4934 2840 
Q 4756 3084 4391 3084 
Q 3944 3084 3684 2787 
Q 3425 2491 3425 1978 
L 3425 0 
L 2847 0 
L 2847 2094 
Q 2847 2600 2669 2842 
Q 2491 3084 2119 3084 
Q 1678 3084 1418 2786 
Q 1159 2488 1159 1978 
L 1159 0 
L 581 0 
L 581 3500 
L 1159 3500 
L 1159 2956 
Q 1356 3278 1631 3431 
Q 1906 3584 2284 3584 
Q 2666 3584 2933 3390 
Q 3200 3197 3328 2828 
z
" transform="scale(0.015625)"/>
       <path id="DejaVuSans-6e" d="M 3513 2113 
L 3513 0 
L 2938 0 
L 2938 2094 
Q 2938 2591 2744 2837 
Q 2550 3084 2163 3084 
Q 1697 3084 1428 2787 
Q 1159 2491 1159 1978 
L 1159 0 
L 581 0 
L 581 3500 
L 1159 3500 
L 1159 2956 
Q 1366 3272 1645 3428 
Q 1925 3584 2291 3584 
Q 2894 3584 3203 3211 
Q 3513 2838 3513 2113 
z
" transform="scale(0.015625)"/>
       <path id="DejaVuSans-29" d="M 513 4856 
L 1013 4856 
Q 1481 4119 1714 3412 
Q 1947 2706 1947 2009 
Q 1947 1309 1714 600 
Q 1481 -109 1013 -844 
L 513 -844 
Q 928 -128 1133 580 
Q 1338 1288 1338 2009 
Q 1338 2731 1133 3434 
Q 928 4138 513 4856 
z
" transform="scale(0.015625)"/>
      </defs>
      <use xlink:href="#DejaVuSans-6c"/>
      <use xlink:href="#DejaVuSans-6f" x="27.783203"/>
      <use xlink:href="#DejaVuSans-67" x="88.964844"/>
      <use xlink:href="#DejaVuSans-31" x="152.441406"/>
      <use xlink:href="#DejaVuSans-30" x="216.064453"/>
      <use xlink:href="#DejaVuSans-28" x="279.6875"/>
      <use xlink:href="#DejaVuSans-23" x="318.701172"/>
      <use xlink:href="#DejaVuSans-20" x="402.490234"/>
      <use xlink:href="#DejaVuSans-66" x="434.277344"/>
      <use xlink:href="#DejaVuSans-2d" x="463.982422"/>
      <use xlink:href="#DejaVuSans-65" x="500.066406"/>
      <use xlink:href="#DejaVuSans-76" x="561.589844"/>
      <use xlink:href="#DejaVuSans-61" x="620.769531"/>
      <use xlink:href="#DejaVuSans-6c" x="682.048828"/>
      <use xlink:href="#DejaVuSans-73" x="709.832031"/>
      <use xlink:href="#DejaVuSans-20" x="761.931641"/>
      <use xlink:href="#DejaVuSans-2f" x="793.71875"/>
      <use xlink:href="#DejaVuSans-20" x="827.410156"/>
      <use xlink:href="#DejaVuSans-64" x="859.197266"/>
      <use xlink:href="#DejaVuSans-69" x="922.673828"/>
      <use xlink:href="#DejaVuSans-6d" x="950.457031"/>
      <use xlink:href="#DejaVuSans-65" x="1047.869141"/>
      <use xlink:href="#DejaVuSans-6e" x="1109.392578"/>
      <use xlink:href="#DejaVuSans-73" x="1172.771484"/>
      <use xlink:href="#DejaVuSans-69" x="1224.871094"/>
      <use xlink:href="#DejaVuSans-6f" x="1252.654297"/>
      <use xlink:href="#DejaVuSans-6e" x="1313.835938"/>
      <use xlink:href="#DejaVuSans-29" x="1377.214844"/>
     </g>
    </g>
   </g>
   <g id="matplotlib.axis_2">
    <g id="ytick_1">
     <g id="line2d_21">
      <path d="M 57.6 298.944 
L 360.8064 298.944 
" clip-path="url(#pec14ddf898)" style="fill: none; stroke: #b0b0b0; stroke-width: 0.8; stroke-linecap: square"/>
     </g>
     <g id="line2d_22">
      <defs>
       <path id="md6f08f1e39" d="M 0 0 
L -3.5 0 
" style="stroke: #000000; stroke-width: 0.8"/>
      </defs>
      <g>
       <use xlink:href="#md6f08f1e39" x="57.6" y="298.944" style="stroke: #000000; stroke-width: 0.8"/>
      </g>
     </g>
     <g id="text_6">
      <!-- 0.0 -->
      <g transform="translate(25.155 305.02275)scale(0.16 -0.16)">
       <defs>
        <path id="DejaVuSans-2e" d="M 684 794 
L 1344 794 
L 1344 0 
L 684 0 
L 684 794 
z
" transform="scale(0.015625)"/>
       </defs>
       <use xlink:href="#DejaVuSans-30"/>
       <use xlink:href="#DejaVuSans-2e" x="63.623047"/>
       <use xlink:href="#DejaVuSans-30" x="95.410156"/>
      </g>
     </g>
    </g>
    <g id="ytick_2">
     <g id="line2d_23">
      <path d="M 57.6 244.6848 
L 360.8064 244.6848 
" clip-path="url(#pec14ddf898)" style="fill: none; stroke: #b0b0b0; stroke-width: 0.8; stroke-linecap: square"/>
     </g>
     <g id="line2d_24">
      <g>
       <use xlink:href="#md6f08f1e39" x="57.6" y="244.6848" style="stroke: #000000; stroke-width: 0.8"/>
      </g>
     </g>
     <g id="text_7">
      <!-- 0.2 -->
      <g transform="translate(25.155 250.76355)scale(0.16 -0.16)">
       <use xlink:href="#DejaVuSans-30"/>
       <use xlink:href="#DejaVuSans-2e" x="63.623047"/>
       <use xlink:href="#DejaVuSans-32" x="95.410156"/>
      </g>
     </g>
    </g>
    <g id="ytick_3">
     <g id="line2d_25">
      <path d="M 57.6 190.4256 
L 360.8064 190.4256 
" clip-path="url(#pec14ddf898)" style="fill: none; stroke: #b0b0b0; stroke-width: 0.8; stroke-linecap: square"/>
     </g>
     <g id="line2d_26">
      <g>
       <use xlink:href="#md6f08f1e39" x="57.6" y="190.4256" style="stroke: #000000; stroke-width: 0.8"/>
      </g>
     </g>
     <g id="text_8">
      <!-- 0.4 -->
      <g transform="translate(25.155 196.50435)scale(0.16 -0.16)">
       <use xlink:href="#DejaVuSans-30"/>
       <use xlink:href="#DejaVuSans-2e" x="63.623047"/>
       <use xlink:href="#DejaVuSans-34" x="95.410156"/>
      </g>
     </g>
    </g>
    <g id="ytick_4">
     <g id="line2d_27">
      <path d="M 57.6 136.1664 
L 360.8064 136.1664 
" clip-path="url(#pec14ddf898)" style="fill: none; stroke: #b0b0b0; stroke-width: 0.8; stroke-linecap: square"/>
     </g>
     <g id="line2d_28">
      <g>
       <use xlink:href="#md6f08f1e39" x="57.6" y="136.1664" style="stroke: #000000; stroke-width: 0.8"/>
      </g>
     </g>
     <g id="text_9">
      <!-- 0.6 -->
      <g transform="translate(25.155 142.24515)scale(0.16 -0.16)">
       <use xlink:href="#DejaVuSans-30"/>
       <use xlink:href="#DejaVuSans-2e" x="63.623047"/>
       <use xlink:href="#DejaVuSans-36" x="95.410156"/>
      </g>
     </g>
    </g>
    <g id="ytick_5">
     <g id="line2d_29">
      <path d="M 57.6 81.9072 
L 360.8064 81.9072 
" clip-path="url(#pec14ddf898)" style="fill: none; stroke: #b0b0b0; stroke-width: 0.8; stroke-linecap: square"/>
     </g>
     <g id="line2d_30">
      <g>
       <use xlink:href="#md6f08f1e39" x="57.6" y="81.9072" style="stroke: #000000; stroke-width: 0.8"/>
      </g>
     </g>
     <g id="text_10">
      <!-- 0.8 -->
      <g transform="translate(25.155 87.98595)scale(0.16 -0.16)">
       <defs>
        <path id="DejaVuSans-38" d="M 2034 2216 
Q 1584 2216 1326 1975 
Q 1069 1734 1069 1313 
Q 1069 891 1326 650 
Q 1584 409 2034 409 
Q 2484 409 2743 651 
Q 3003 894 3003 1313 
Q 3003 1734 2745 1975 
Q 2488 2216 2034 2216 
z
M 1403 2484 
Q 997 2584 770 2862 
Q 544 3141 544 3541 
Q 544 4100 942 4425 
Q 1341 4750 2034 4750 
Q 2731 4750 3128 4425 
Q 3525 4100 3525 3541 
Q 3525 3141 3298 2862 
Q 3072 2584 2669 2484 
Q 3125 2378 3379 2068 
Q 3634 1759 3634 1313 
Q 3634 634 3220 271 
Q 2806 -91 2034 -91 
Q 1263 -91 848 271 
Q 434 634 434 1313 
Q 434 1759 690 2068 
Q 947 2378 1403 2484 
z
M 1172 3481 
Q 1172 3119 1398 2916 
Q 1625 2713 2034 2713 
Q 2441 2713 2670 2916 
Q 2900 3119 2900 3481 
Q 2900 3844 2670 4047 
Q 2441 4250 2034 4250 
Q 1625 4250 1398 4047 
Q 1172 3844 1172 3481 
z
" transform="scale(0.015625)"/>
       </defs>
       <use xlink:href="#DejaVuSans-30"/>
       <use xlink:href="#DejaVuSans-2e" x="63.623047"/>
       <use xlink:href="#DejaVuSans-38" x="95.410156"/>
      </g>
     </g>
    </g>
    <g id="ytick_6">
     <g id="line2d_31">
      <path d="M 57.6 27.648 
L 360.8064 27.648 
" clip-path="url(#pec14ddf898)" style="fill: none; stroke: #b0b0b0; stroke-width: 0.8; stroke-linecap: square"/>
     </g>
     <g id="line2d_32">
      <g>
       <use xlink:href="#md6f08f1e39" x="57.6" y="27.648" style="stroke: #000000; stroke-width: 0.8"/>
      </g>
     </g>
     <g id="text_11">
      <!-- 1.0 -->
      <g transform="translate(25.155 33.72675)scale(0.16 -0.16)">
       <use xlink:href="#DejaVuSans-31"/>
       <use xlink:href="#DejaVuSans-2e" x="63.623047"/>
       <use xlink:href="#DejaVuSans-30" x="95.410156"/>
      </g>
     </g>
    </g>
    <g id="text_12">
     <!-- Fraction of function,target pairs -->
     <g transform="translate(17.619531 297.681)rotate(-90)scale(0.17 -0.17)">
      <defs>
       <path id="DejaVuSans-46" d="M 628 4666 
L 3309 4666 
L 3309 4134 
L 1259 4134 
L 1259 2759 
L 3109 2759 
L 3109 2228 
L 1259 2228 
L 1259 0 
L 628 0 
L 628 4666 
z
" transform="scale(0.015625)"/>
       <path id="DejaVuSans-72" d="M 2631 2963 
Q 2534 3019 2420 3045 
Q 2306 3072 2169 3072 
Q 1681 3072 1420 2755 
Q 1159 2438 1159 1844 
L 1159 0 
L 581 0 
L 581 3500 
L 1159 3500 
L 1159 2956 
Q 1341 3275 1631 3429 
Q 1922 3584 2338 3584 
Q 2397 3584 2469 3576 
Q 2541 3569 2628 3553 
L 2631 2963 
z
" transform="scale(0.015625)"/>
       <path id="DejaVuSans-63" d="M 3122 3366 
L 3122 2828 
Q 2878 2963 2633 3030 
Q 2388 3097 2138 3097 
Q 1578 3097 1268 2742 
Q 959 2388 959 1747 
Q 959 1106 1268 751 
Q 1578 397 2138 397 
Q 2388 397 2633 464 
Q 2878 531 3122 666 
L 3122 134 
Q 2881 22 2623 -34 
Q 2366 -91 2075 -91 
Q 1284 -91 818 406 
Q 353 903 353 1747 
Q 353 2603 823 3093 
Q 1294 3584 2113 3584 
Q 2378 3584 2631 3529 
Q 2884 3475 3122 3366 
z
" transform="scale(0.015625)"/>
       <path id="DejaVuSans-74" d="M 1172 4494 
L 1172 3500 
L 2356 3500 
L 2356 3053 
L 1172 3053 
L 1172 1153 
Q 1172 725 1289 603 
Q 1406 481 1766 481 
L 2356 481 
L 2356 0 
L 1766 0 
Q 1100 0 847 248 
Q 594 497 594 1153 
L 594 3053 
L 172 3053 
L 172 3500 
L 594 3500 
L 594 4494 
L 1172 4494 
z
" transform="scale(0.015625)"/>
       <path id="DejaVuSans-75" d="M 544 1381 
L 544 3500 
L 1119 3500 
L 1119 1403 
Q 1119 906 1312 657 
Q 1506 409 1894 409 
Q 2359 409 2629 706 
Q 2900 1003 2900 1516 
L 2900 3500 
L 3475 3500 
L 3475 0 
L 2900 0 
L 2900 538 
Q 2691 219 2414 64 
Q 2138 -91 1772 -91 
Q 1169 -91 856 284 
Q 544 659 544 1381 
z
M 1991 3584 
L 1991 3584 
z
" transform="scale(0.015625)"/>
       <path id="DejaVuSans-2c" d="M 750 794 
L 1409 794 
L 1409 256 
L 897 -744 
L 494 -744 
L 750 256 
L 750 794 
z
" transform="scale(0.015625)"/>
       <path id="DejaVuSans-70" d="M 1159 525 
L 1159 -1331 
L 581 -1331 
L 581 3500 
L 1159 3500 
L 1159 2969 
Q 1341 3281 1617 3432 
Q 1894 3584 2278 3584 
Q 2916 3584 3314 3078 
Q 3713 2572 3713 1747 
Q 3713 922 3314 415 
Q 2916 -91 2278 -91 
Q 1894 -91 1617 61 
Q 1341 213 1159 525 
z
M 3116 1747 
Q 3116 2381 2855 2742 
Q 2594 3103 2138 3103 
Q 1681 3103 1420 2742 
Q 1159 2381 1159 1747 
Q 1159 1113 1420 752 
Q 1681 391 2138 391 
Q 2594 391 2855 752 
Q 3116 1113 3116 1747 
z
" transform="scale(0.015625)"/>
      </defs>
      <use xlink:href="#DejaVuSans-46"/>
      <use xlink:href="#DejaVuSans-72" x="50.269531"/>
      <use xlink:href="#DejaVuSans-61" x="91.382812"/>
      <use xlink:href="#DejaVuSans-63" x="152.662109"/>
      <use xlink:href="#DejaVuSans-74" x="207.642578"/>
      <use xlink:href="#DejaVuSans-69" x="246.851562"/>
      <use xlink:href="#DejaVuSans-6f" x="274.634766"/>
      <use xlink:href="#DejaVuSans-6e" x="335.816406"/>
      <use xlink:href="#DejaVuSans-20" x="399.195312"/>
      <use xlink:href="#DejaVuSans-6f" x="430.982422"/>
      <use xlink:href="#DejaVuSans-66" x="492.164062"/>
      <use xlink:href="#DejaVuSans-20" x="527.369141"/>
      <use xlink:href="#DejaVuSans-66" x="559.15625"/>
      <use xlink:href="#DejaVuSans-75" x="594.361328"/>
      <use xlink:href="#DejaVuSans-6e" x="657.740234"/>
      <use xlink:href="#DejaVuSans-63" x="721.119141"/>
      <use xlink:href="#DejaVuSans-74" x="776.099609"/>
      <use xlink:href="#DejaVuSans-69" x="815.308594"/>
      <use xlink:href="#DejaVuSans-6f" x="843.091797"/>
      <use xlink:href="#DejaVuSans-6e" x="904.273438"/>
      <use xlink:href="#DejaVuSans-2c" x="967.652344"/>
      <use xlink:href="#DejaVuSans-74" x="999.439453"/>
      <use xlink:href="#DejaVuSans-61" x="1038.648438"/>
      <use xlink:href="#DejaVuSans-72" x="1099.927734"/>
      <use xlink:href="#DejaVuSans-67" x="1139.291016"/>
      <use xlink:href="#DejaVuSans-65" x="1202.767578"/>
      <use xlink:href="#DejaVuSans-74" x="1264.291016"/>
      <use xlink:href="#DejaVuSans-20" x="1303.5"/>
      <use xlink:href="#DejaVuSans-70" x="1335.287109"/>
      <use xlink:href="#DejaVuSans-61" x="1398.763672"/>
      <use xlink:href="#DejaVuSans-69" x="1460.042969"/>
      <use xlink:href="#DejaVuSans-72" x="1487.826172"/>
      <use xlink:href="#DejaVuSans-73" x="1528.939453"/>
     </g>
    </g>
   </g>
   <g id="line2d_33">
    <defs>
     <path id="m0f50c20994" d="M 0 1.5 
C 0.397805 1.5 0.77937 1.341951 1.06066 1.06066 
C 1.341951 0.77937 1.5 0.397805 1.5 0 
C 1.5 -0.397805 1.341951 -0.77937 1.06066 -1.06066 
C 0.77937 -1.341951 0.397805 -1.5 0 -1.5 
C -0.397805 -1.5 -0.77937 -1.341951 -1.06066 -1.06066 
C -1.341951 -0.77937 -1.5 -0.397805 -1.5 0 
C -1.5 0.397805 -1.341951 0.77937 -1.06066 1.06066 
C -0.77937 1.341951 -0.397805 1.5 0 1.5 
z
" style="stroke: #f5deb3"/>
    </defs>
    <g>
     <use xlink:href="#m0f50c20994" x="204.737249" y="27.648" style="fill: #f5deb3; stroke: #f5deb3"/>
     <use xlink:href="#m0f50c20994" x="204.737249" y="27.648" style="fill: #f5deb3; stroke: #f5deb3"/>
    </g>
   </g>
   <g id="line2d_34">
    <defs>
     <path id="m3bc44f9210" d="M 0 1.5 
C 0.397805 1.5 0.77937 1.341951 1.06066 1.06066 
C 1.341951 0.77937 1.5 0.397805 1.5 0 
C 1.5 -0.397805 1.341951 -0.77937 1.06066 -1.06066 
C 0.77937 -1.341951 0.397805 -1.5 0 -1.5 
C -0.397805 -1.5 -0.77937 -1.341951 -1.06066 -1.06066 
C -1.341951 -0.77937 -1.5 -0.397805 -1.5 0 
C -1.5 0.397805 -1.341951 0.77937 -1.06066 1.06066 
C -0.77937 1.341951 -0.397805 1.5 0 1.5 
z
" style="stroke: #000080"/>
    </defs>
    <g>
     <use xlink:href="#m3bc44f9210" x="325.6093" y="27.648" style="fill: #000080; stroke: #000080"/>
     <use xlink:href="#m3bc44f9210" x="325.6093" y="27.648" style="fill: #000080; stroke: #000080"/>
    </g>
   </g>
   <g id="line2d_35">
    <path d="M 36.933397 298.944 
L 36.933397 284.758588 
L 49.972572 284.758588 
L 49.972572 280.502965 
L 57.6 280.502965 
L 57.6 275.538071 
L 63.011746 275.538071 
L 63.011746 273.764894 
L 67.209423 273.764894 
L 67.209423 272.700988 
L 70.639174 272.700988 
L 70.639174 271.637082 
L 73.538988 271.637082 
L 73.538988 270.927812 
L 76.050921 270.927812 
L 76.050921 269.863906 
L 78.266603 269.863906 
L 78.266603 268.8 
L 80.248597 268.8 
L 80.248597 267.381459 
L 82.04153 267.381459 
L 82.04153 266.672188 
L 83.678349 266.672188 
L 83.678349 265.962918 
L 90.230539 265.962918 
L 90.230539 265.253647 
L 93.287772 265.253647 
L 93.287772 264.899012 
L 94.205591 264.899012 
L 94.205591 264.544376 
L 95.916911 264.544376 
L 95.916911 263.480471 
L 96.717523 263.480471 
L 96.717523 262.7712 
L 98.933205 262.7712 
L 98.933205 262.061929 
L 100.9152 262.061929 
L 100.9152 260.643388 
L 102.12927 260.643388 
L 102.12927 260.288753 
L 103.815014 260.288753 
L 103.815014 259.579482 
L 104.344952 259.579482 
L 104.344952 258.870212 
L 107.244765 258.870212 
L 107.244765 258.515576 
L 113.954374 258.515576 
L 113.954374 257.097035 
L 114.872193 257.097035 
L 114.872193 256.387765 
L 119.129494 256.387765 
L 119.129494 255.678494 
L 120.944062 255.678494 
L 120.944062 254.614588 
L 121.581803 254.614588 
L 121.581803 253.550682 
L 123.183753 253.550682 
L 123.183753 252.486776 
L 123.563797 252.486776 
L 123.563797 252.132141 
L 123.936316 252.132141 
L 123.936316 251.777506 
L 130.811181 251.777506 
L 130.811181 251.068235 
L 133.323114 251.068235 
L 133.323114 248.940424 
L 133.545739 248.940424 
L 133.545739 248.585788 
L 134.091039 248.585788 
L 134.091039 247.876518 
L 136.508678 247.876518 
L 136.508678 247.521882 
L 138.137618 247.521882 
L 138.137618 247.167247 
L 143.592659 247.167247 
L 143.592659 246.457976 
L 143.914232 246.457976 
L 143.914232 246.103341 
L 144.968202 246.103341 
L 144.968202 245.748706 
L 147.868016 245.748706 
L 147.868016 245.039435 
L 148.874221 245.039435 
L 148.874221 244.6848 
L 151.176793 244.6848 
L 151.176793 243.620894 
L 153.952355 243.620894 
L 154.027004 242.202353 
L 154.212341 242.202353 
L 154.212341 241.493082 
L 154.685842 241.493082 
L 154.685842 240.783812 
L 155.666927 240.783812 
L 155.666927 240.429176 
L 156.825436 240.429176 
L 156.825436 239.719906 
L 157.332175 239.719906 
L 157.332175 239.365271 
L 158.276759 239.365271 
L 158.276759 239.010635 
L 158.948151 239.010635 
L 158.948151 238.301365 
L 159.090988 238.301365 
L 159.090988 237.946729 
L 159.624087 237.946729 
L 159.734419 237.237459 
L 159.925957 237.237459 
L 159.925957 235.818918 
L 160.115564 235.818918 
L 160.115564 235.464282 
L 160.594526 235.464282 
L 160.673181 233.691106 
L 160.82951 233.691106 
L 160.82951 233.336471 
L 161.366654 233.336471 
L 161.366654 232.6272 
L 161.592245 232.6272 
L 161.666845 231.917929 
L 161.790524 231.917929 
L 161.790524 231.563294 
L 162.205054 231.563294 
L 162.205054 231.208659 
L 162.56338 231.208659 
L 162.56338 230.854024 
L 162.845206 230.854024 
L 162.845206 230.499388 
L 163.076878 230.499388 
L 163.099889 229.435482 
L 163.214524 229.435482 
L 163.260183 223.052047 
L 166.208795 223.052047 
L 166.208795 221.988141 
L 166.765788 221.988141 
L 166.765788 221.633506 
L 167.361848 221.633506 
L 167.361848 221.278871 
L 168.378936 221.278871 
L 168.378936 220.924235 
L 168.994082 220.924235 
L 168.994082 220.5696 
L 169.161446 220.5696 
L 169.161446 219.860329 
L 169.409732 219.860329 
L 169.409732 219.505694 
L 170.542436 219.505694 
L 170.542436 219.151059 
L 170.84957 219.151059 
L 170.84957 218.796424 
L 171.166753 218.796424 
L 171.166753 218.441788 
L 174.304691 218.441788 
L 174.304691 218.087153 
L 174.643874 218.087153 
L 174.643874 217.732518 
L 174.805028 217.732518 
L 174.805028 217.377882 
L 175.195931 217.377882 
L 175.195931 217.023247 
L 175.849382 217.023247 
L 175.849382 216.668612 
L 176.559769 216.668612 
L 176.559769 216.313976 
L 176.816624 216.313976 
L 176.816624 215.250071 
L 177.113741 215.250071 
L 177.113741 214.895435 
L 177.233457 214.895435 
L 177.233457 213.831529 
L 180.925357 213.831529 
L 180.925357 212.767624 
L 181.813434 212.767624 
L 181.813434 212.412988 
L 182.522758 212.412988 
L 182.522758 212.058353 
L 185.667825 212.058353 
L 185.736985 211.349082 
L 189.143711 211.349082 
L 189.143711 210.994447 
L 191.713154 210.994447 
L 191.713154 210.639812 
L 192.796765 210.639812 
L 192.796765 210.285176 
L 193.771866 210.285176 
L 193.771866 209.930541 
L 198.700069 209.930541 
L 198.700069 209.575906 
L 200.855583 209.575906 
L 200.855583 209.221271 
L 201.580068 209.221271 
L 201.580068 208.512 
L 202.389104 208.512 
L 202.389104 208.157365 
L 207.128109 208.157365 
L 207.128109 207.802729 
L 207.987214 207.802729 
L 207.987214 206.738824 
L 208.12421 206.738824 
L 208.12421 206.384188 
L 209.092161 206.384188 
L 209.092161 206.029553 
L 214.108327 206.029553 
L 214.108327 205.674918 
L 217.787734 205.674918 
L 217.800294 204.965647 
L 219.123668 204.965647 
L 219.179756 204.256376 
L 219.581466 204.256376 
L 219.581466 203.547106 
L 220.226972 203.547106 
L 220.226972 203.192471 
L 221.4458 203.192471 
L 221.4458 202.837835 
L 224.879516 202.837835 
L 224.879516 202.4832 
L 226.104678 202.4832 
L 226.104678 202.128565 
L 227.202421 202.128565 
L 227.202421 201.773929 
L 227.348095 201.773929 
L 227.348095 201.419294 
L 228.634063 201.419294 
L 228.634063 201.064659 
L 230.371022 201.064659 
L 230.371022 200.710024 
L 234.737206 200.710024 
L 234.737206 200.000753 
L 236.675931 200.000753 
L 236.675931 199.291482 
L 237.160332 199.291482 
L 237.160332 198.936847 
L 237.415203 198.936847 
L 237.415203 198.582212 
L 238.218765 198.582212 
L 238.218765 198.227576 
L 238.577475 198.227576 
L 238.577475 197.872941 
L 238.714275 197.872941 
L 238.714275 197.518306 
L 238.929882 197.518306 
L 238.929882 197.163671 
L 239.172494 197.163671 
L 239.172494 196.809035 
L 239.406047 196.809035 
L 239.458526 195.390494 
L 240.189349 195.390494 
L 240.248069 193.971953 
L 240.977626 193.971953 
L 241.01677 193.262682 
L 241.436352 193.262682 
L 241.503067 191.844141 
L 241.679589 191.844141 
L 241.679589 191.489506 
L 243.075464 191.489506 
L 243.075464 191.134871 
L 243.849743 191.134871 
L 243.849743 190.780235 
L 247.05125 190.780235 
L 247.05125 190.4256 
L 247.508886 190.4256 
L 247.508886 190.070965 
L 247.767194 190.070965 
L 247.835735 189.361694 
L 247.88628 189.361694 
L 247.88628 188.652424 
L 248.022254 188.652424 
L 248.022254 187.943153 
L 248.213923 187.943153 
L 248.213923 187.588518 
L 248.827734 187.588518 
L 248.827734 187.233882 
L 249.514494 187.233882 
L 249.514494 185.460706 
L 249.658632 185.460706 
L 249.661633 184.042165 
L 249.940453 184.042165 
L 249.940453 183.687529 
L 250.692516 183.687529 
L 250.692516 183.332894 
L 250.8559 183.332894 
L 250.8559 182.978259 
L 251.262604 182.978259 
L 251.262604 182.623624 
L 251.390627 182.623624 
L 251.390627 182.268988 
L 251.717481 182.268988 
L 251.717481 181.914353 
L 251.901765 181.914353 
L 251.901765 181.559718 
L 252.032445 181.559718 
L 252.032445 180.850447 
L 252.169699 180.850447 
L 252.275452 179.077271 
L 252.552014 179.077271 
L 252.580693 176.240188 
L 253.98051 176.240188 
L 253.98051 175.885553 
L 255.072456 175.885553 
L 255.100826 172.3392 
L 255.225559 172.3392 
L 255.246668 171.275294 
L 255.79118 171.275294 
L 255.79118 170.920659 
L 256.769078 170.920659 
L 256.863594 170.211388 
L 256.956698 170.211388 
L 257.065856 164.891859 
L 257.090909 164.891859 
L 257.194035 162.054776 
L 257.227565 162.054776 
L 257.282751 160.990871 
L 257.385141 160.990871 
L 257.4955 157.799153 
L 257.500978 157.799153 
L 257.569019 156.380612 
L 257.746612 156.380612 
L 257.746612 156.025976 
L 258.033799 156.025976 
L 258.089917 155.316706 
L 258.205905 155.316706 
L 258.241777 153.898165 
L 258.399529 153.898165 
L 258.399529 153.543529 
L 258.664695 153.543529 
L 258.677706 152.834259 
L 259.091182 152.834259 
L 259.091182 152.479624 
L 259.425571 152.479624 
L 259.425571 152.124988 
L 259.671468 152.124988 
L 259.671468 151.770353 
L 260.200939 151.770353 
L 260.23623 150.706447 
L 260.487535 150.706447 
L 260.487535 150.351812 
L 261.102934 150.351812 
L 261.102934 149.997176 
L 261.334558 149.997176 
L 261.375838 147.869365 
L 261.585787 147.869365 
L 261.585787 147.514729 
L 261.884634 147.514729 
L 261.884634 147.160094 
L 262.035524 147.160094 
L 262.099976 145.741553 
L 262.279393 145.741553 
L 262.279393 145.386918 
L 262.395402 145.386918 
L 262.395402 145.032282 
L 262.6093 145.032282 
L 262.6093 144.677647 
L 262.848751 144.677647 
L 262.920065 143.968376 
L 262.977126 143.968376 
L 263.062225 142.1952 
L 263.145476 142.1952 
L 263.145476 141.485929 
L 263.452791 141.485929 
L 263.465095 140.776659 
L 266.619171 140.776659 
L 266.619171 140.422024 
L 266.744133 140.422024 
L 266.792103 136.1664 
L 267.21824 136.1664 
L 267.290172 135.457129 
L 267.387755 135.457129 
L 267.455907 134.038588 
L 267.498969 134.038588 
L 267.508177 132.620047 
L 267.610685 132.620047 
L 267.661464 129.782965 
L 274.227536 129.782965 
L 274.227536 128.009788 
L 276.578421 128.009788 
L 276.578421 127.300518 
L 276.816804 127.300518 
L 276.927858 126.236612 
L 277.037937 126.236612 
L 277.039768 124.818071 
L 277.22688 124.818071 
L 277.22688 123.754165 
L 278.169001 123.754165 
L 278.169001 123.044894 
L 278.331592 123.044894 
L 278.358621 122.335624 
L 278.521978 122.335624 
L 278.521978 121.980988 
L 278.665711 121.980988 
L 278.697048 119.853176 
L 278.958631 119.853176 
L 278.958631 119.498541 
L 279.080004 119.498541 
L 279.080004 119.143906 
L 279.229237 119.143906 
L 279.284662 117.725365 
L 279.35293 117.725365 
L 279.354549 116.306824 
L 279.998402 116.306824 
L 280.037335 114.179012 
L 280.184659 114.179012 
L 280.184659 113.824376 
L 280.45713 113.824376 
L 280.54905 107.086306 
L 280.573433 107.086306 
L 280.667807 103.539953 
L 280.68769 103.539953 
L 280.68769 103.185318 
L 280.824876 103.185318 
L 280.887039 101.412141 
L 281.250128 101.412141 
L 281.250128 101.057506 
L 281.500137 101.057506 
L 281.589478 100.348235 
L 281.873069 100.348235 
L 281.954276 98.929694 
L 282.10779 98.929694 
L 282.129988 97.865788 
L 282.391551 97.865788 
L 282.497084 96.447247 
L 282.607517 96.447247 
L 282.607517 95.737976 
L 283.863891 95.737976 
L 283.883214 92.546259 
L 284.125602 92.546259 
L 284.236711 89.354541 
L 284.23851 89.354541 
L 284.23851 88.999906 
L 287.24096 88.999906 
L 287.33911 87.226729 
L 288.50273 87.226729 
L 288.591498 86.517459 
L 288.641378 86.517459 
L 288.701502 85.808188 
L 288.763513 85.808188 
L 288.797584 84.035012 
L 289.401934 84.035012 
L 289.401934 83.680376 
L 289.51339 83.680376 
L 289.610834 81.9072 
L 289.644756 81.9072 
L 289.644756 81.552565 
L 289.82653 81.552565 
L 289.929346 80.488659 
L 289.943589 80.488659 
L 289.98509 77.296941 
L 290.346392 77.296941 
L 290.37321 76.233035 
L 290.647852 76.233035 
L 290.75138 67.367153 
L 290.862065 67.367153 
L 290.868391 66.657882 
L 291.406078 66.657882 
L 291.503505 64.884706 
L 291.56481 64.884706 
L 291.671393 64.175435 
L 291.783279 64.175435 
L 291.832106 62.047624 
L 291.90213 62.047624 
L 291.90213 61.338353 
L 292.676002 61.338353 
L 292.681466 58.855906 
L 292.796586 58.855906 
L 292.900951 57.437365 
L 294.859797 57.437365 
L 294.899474 54.245647 
L 295.710689 54.245647 
L 295.805316 53.181741 
L 295.845012 53.181741 
L 295.915488 52.472471 
L 296.57547 52.472471 
L 296.682012 51.408565 
L 296.986879 51.408565 
L 296.989937 50.699294 
L 297.208012 50.699294 
L 297.272322 48.571482 
L 297.35065 48.571482 
L 297.353412 47.507576 
L 297.507277 47.507576 
L 297.611535 46.798306 
L 297.87346 46.798306 
L 297.959959 45.7344 
L 298.653238 45.7344 
L 298.662026 45.025129 
L 298.77292 45.025129 
L 298.815155 43.606588 
L 300.267246 43.606588 
L 300.267246 42.542682 
L 301.481156 42.542682 
L 301.508336 41.478776 
L 301.628137 41.478776 
L 301.688137 40.769506 
L 301.885032 40.769506 
L 301.885032 39.7056 
L 302.048877 39.7056 
L 302.093228 37.932424 
L 302.169501 37.932424 
L 302.169501 37.577788 
L 302.2874 37.577788 
L 302.2874 37.223153 
L 302.572033 37.223153 
L 302.676724 36.513882 
L 302.693957 36.513882 
L 302.693957 36.159247 
L 303.276362 36.159247 
L 303.276362 35.804612 
L 305.035448 35.804612 
L 305.06072 35.095341 
L 305.439789 35.095341 
L 305.439789 34.740706 
L 305.608066 34.740706 
L 305.608066 34.386071 
L 305.901164 34.386071 
L 305.996598 32.967529 
L 306.414239 32.967529 
L 306.414239 32.612894 
L 308.389658 32.612894 
L 308.389658 32.258259 
L 309.103203 32.258259 
L 309.103203 31.903624 
L 309.446096 31.903624 
L 309.446096 31.548988 
L 311.247452 31.548988 
L 311.247452 31.194353 
L 311.592027 31.194353 
L 311.592027 30.839718 
L 312.10972 30.839718 
L 312.140721 30.130447 
L 312.578326 30.130447 
L 312.578326 29.775812 
L 314.024331 29.775812 
L 314.126529 28.711906 
L 314.814367 28.711906 
L 314.814367 28.357271 
L 318.23353 28.357271 
L 318.23353 28.002635 
L 325.6093 28.002635 
L 325.6093 27.648 
L 360.8064 27.648 
L 360.8064 27.648 
" style="fill: none; stroke: #000080; stroke-width: 1.5; stroke-linecap: square"/>
   </g>
   <g id="line2d_36">
    <defs>
     <path id="m63c7fc81a2" d="M 0 6 
C 1.591219 6 3.117479 5.367802 4.242641 4.242641 
C 5.367802 3.117479 6 1.591219 6 0 
C 6 -1.591219 5.367802 -3.117479 4.242641 -4.242641 
C 3.117479 -5.367802 1.591219 -6 0 -6 
C -1.591219 -6 -3.117479 -5.367802 -4.242641 -4.242641 
C -5.367802 -3.117479 -6 -1.591219 -6 0 
C -6 1.591219 -5.367802 3.117479 -4.242641 4.242641 
C -3.117479 5.367802 -1.591219 6 0 6 
z
" style="stroke: #000080; stroke-width: 1.5"/>
    </defs>
    <g>
     <use xlink:href="#m63c7fc81a2" x="114.872193" y="257.097035" style="fill-opacity: 0; stroke: #000080; stroke-width: 1.5"/>
     <use xlink:href="#m63c7fc81a2" x="177.233457" y="213.831529" style="fill-opacity: 0; stroke: #000080; stroke-width: 1.5"/>
     <use xlink:href="#m63c7fc81a2" x="257.090909" y="164.891859" style="fill-opacity: 0; stroke: #000080; stroke-width: 1.5"/>
     <use xlink:href="#m63c7fc81a2" x="302.068333" y="38.641694" style="fill-opacity: 0; stroke: #000080; stroke-width: 1.5"/>
     <use xlink:href="#m63c7fc81a2" x="325.6093" y="27.648" style="fill-opacity: 0; stroke: #000080; stroke-width: 1.5"/>
     <use xlink:href="#m63c7fc81a2" x="360.8064" y="27.648" style="fill-opacity: 0; stroke: #000080; stroke-width: 1.5"/>
    </g>
   </g>
   <g id="line2d_37">
    <path style="fill: none; stroke: #000080; stroke-width: 1.5; stroke-linecap: square"/>
    <g/>
   </g>
   <g id="line2d_38">
    <path d="M 274.176 129.782965 
" clip-path="url(#pec14ddf898)" style="fill: none; stroke: #000080; stroke-width: 1.5; stroke-linecap: square"/>
    <defs>
     <path id="m7ad0358404" d="M -12 12 
L 12 -12 
M -12 -12 
L 12 12 
" style="stroke: #000080"/>
    </defs>
    <g clip-path="url(#pec14ddf898)">
     <use xlink:href="#m7ad0358404" x="274.176" y="129.782965" style="fill: #000080; stroke: #000080"/>
    </g>
   </g>
   <g id="line2d_39">
    <defs>
     <path id="mc242317c96" d="M 0 1.5 
C 0.397805 1.5 0.77937 1.341951 1.06066 1.06066 
C 1.341951 0.77937 1.5 0.397805 1.5 0 
C 1.5 -0.397805 1.341951 -0.77937 1.06066 -1.06066 
C 0.77937 -1.341951 0.397805 -1.5 0 -1.5 
C -0.397805 -1.5 -0.77937 -1.341951 -1.06066 -1.06066 
C -1.341951 -0.77937 -1.5 -0.397805 -1.5 0 
C -1.5 0.397805 -1.341951 0.77937 -1.06066 1.06066 
C -0.77937 1.341951 -0.397805 1.5 0 1.5 
z
" style="stroke: #ff00ff"/>
    </defs>
    <g>
     <use xlink:href="#mc242317c96" x="304.985656" y="27.648" style="fill: #ff00ff; stroke: #ff00ff"/>
     <use xlink:href="#mc242317c96" x="304.985656" y="27.648" style="fill: #ff00ff; stroke: #ff00ff"/>
    </g>
   </g>
   <g id="line2d_40">
    <path d="M 36.933397 298.944 
L 36.933397 282.276141 
L 120.28394 282.276141 
L 120.28394 280.148329 
L 121.99526 280.148329 
L 121.99526 277.665882 
L 122.399825 277.665882 
L 122.399825 274.8288 
L 122.990812 274.8288 
L 122.990812 265.962918 
L 123.374735 265.962918 
L 123.374735 262.416565 
L 123.563797 262.416565 
L 123.563797 257.806306 
L 135.237805 257.806306 
L 135.237805 257.451671 
L 135.638065 257.451671 
L 135.638065 254.259953 
L 135.932769 254.259953 
L 136.029987 252.132141 
L 136.508678 252.132141 
L 136.602972 246.103341 
L 142.387236 246.103341 
L 142.387236 245.039435 
L 142.999601 245.039435 
L 143.066428 242.911624 
L 143.133017 242.911624 
L 143.133017 241.138447 
L 144.10457 241.138447 
L 144.10457 240.429176 
L 144.2304 240.429176 
L 144.2304 239.719906 
L 148.124658 239.719906 
L 148.124658 239.010635 
L 148.627671 239.010635 
L 148.627671 236.528188 
L 162.539702 236.528188 
L 162.539702 236.173553 
L 165.674958 236.173553 
L 165.674958 235.818918 
L 167.066179 235.818918 
L 167.066179 235.464282 
L 179.36457 235.464282 
L 179.36457 234.755012 
L 181.762339 234.755012 
L 181.762339 234.400376 
L 182.415991 234.400376 
L 182.415991 234.045741 
L 184.488367 234.045741 
L 184.488367 233.691106 
L 186.84288 233.691106 
L 186.84288 232.981835 
L 187.127126 232.981835 
L 187.127126 232.6272 
L 187.48279 232.6272 
L 187.48279 232.272565 
L 188.929382 232.272565 
L 188.929382 231.563294 
L 189.553913 231.563294 
L 189.553913 231.208659 
L 191.079571 231.208659 
L 191.079571 230.854024 
L 192.735002 230.854024 
L 192.825202 230.144753 
L 193.274455 230.144753 
L 193.274455 229.435482 
L 196.686472 229.435482 
L 196.75193 227.662306 
L 197.166307 227.662306 
L 197.166307 226.5984 
L 197.357098 226.5984 
L 197.357098 226.243765 
L 199.790704 226.243765 
L 199.790704 225.889129 
L 200.901883 225.889129 
L 200.901883 225.179859 
L 202.383407 225.179859 
L 202.383407 224.825224 
L 202.947585 224.825224 
L 202.947585 224.470588 
L 203.463077 224.470588 
L 203.463077 224.115953 
L 204.312614 224.115953 
L 204.312614 223.761318 
L 205.49129 223.761318 
L 205.49129 223.406682 
L 206.123072 223.406682 
L 206.123072 223.052047 
L 206.85153 223.052047 
L 206.85153 222.697412 
L 207.295638 222.697412 
L 207.295638 221.988141 
L 208.320579 221.988141 
L 208.403522 219.860329 
L 208.629749 219.860329 
L 208.656306 218.796424 
L 208.81689 218.796424 
L 208.81689 218.441788 
L 208.937943 218.441788 
L 208.937943 217.732518 
L 209.215425 217.732518 
L 209.215425 217.377882 
L 209.576555 217.377882 
L 209.576555 217.023247 
L 209.800712 217.023247 
L 209.800712 216.313976 
L 209.991829 216.313976 
L 209.991829 215.250071 
L 210.141451 215.250071 
L 210.181025 213.831529 
L 210.368336 213.831529 
L 210.386965 213.122259 
L 210.544571 213.122259 
L 210.553801 211.703718 
L 210.737455 211.703718 
L 210.737455 210.639812 
L 211.277899 210.639812 
L 211.277899 210.285176 
L 211.493315 210.285176 
L 211.493315 209.930541 
L 211.803249 209.930541 
L 211.803249 209.575906 
L 212.145504 209.575906 
L 212.145504 209.221271 
L 212.314325 209.221271 
L 212.314325 208.866635 
L 214.796823 208.866635 
L 214.796823 208.157365 
L 215.119544 208.157365 
L 215.15137 206.738824 
L 215.346921 206.738824 
L 215.406903 206.029553 
L 215.602651 206.029553 
L 215.602651 205.674918 
L 216.099792 205.674918 
L 216.099792 204.965647 
L 216.648312 204.965647 
L 216.648312 204.611012 
L 216.781322 204.611012 
L 216.858039 203.901741 
L 217.02363 203.901741 
L 217.038018 203.192471 
L 217.154022 203.192471 
L 217.154022 202.4832 
L 217.635096 202.4832 
L 217.635096 202.128565 
L 219.189088 202.128565 
L 219.189088 201.773929 
L 222.711709 201.773929 
L 222.711709 201.419294 
L 223.041459 201.419294 
L 223.041459 200.710024 
L 223.5625 200.710024 
L 223.5625 197.872941 
L 223.845951 197.872941 
L 223.845951 197.518306 
L 224.064998 197.518306 
L 224.064998 197.163671 
L 224.256598 197.163671 
L 224.256598 196.4544 
L 224.99207 196.4544 
L 224.99207 194.326588 
L 225.749302 194.326588 
L 225.858421 191.844141 
L 225.861693 191.844141 
L 225.905809 191.134871 
L 226.096602 191.134871 
L 226.096602 190.780235 
L 226.41697 190.780235 
L 226.527822 189.007059 
L 226.81535 189.007059 
L 226.892939 188.297788 
L 226.97021 188.297788 
L 227.047165 184.042165 
L 227.123806 184.042165 
L 227.215365 182.623624 
L 227.268569 182.623624 
L 227.268569 182.268988 
L 227.497149 182.268988 
L 227.497149 181.914353 
L 228.232413 181.914353 
L 228.28426 180.850447 
L 228.498761 180.850447 
L 228.516526 179.431906 
L 228.870443 179.431906 
L 228.870443 179.077271 
L 229.402355 179.077271 
L 229.49361 178.013365 
L 229.559577 178.013365 
L 229.559577 177.658729 
L 230.025477 177.658729 
L 230.083075 176.949459 
L 230.344616 176.949459 
L 230.344616 176.594824 
L 230.750745 176.594824 
L 230.857664 175.885553 
L 232.317264 175.885553 
L 232.317264 175.530918 
L 232.989889 175.530918 
L 232.989889 175.176282 
L 233.157129 175.176282 
L 233.157129 174.467012 
L 233.319043 174.467012 
L 233.319043 174.112376 
L 233.536229 174.112376 
L 233.536229 173.757741 
L 233.966411 173.757741 
L 233.966411 173.048471 
L 234.127335 173.048471 
L 234.127335 172.693835 
L 234.581952 172.693835 
L 234.581952 172.3392 
L 234.735676 172.3392 
L 234.735676 171.984565 
L 234.917995 171.984565 
L 234.917995 171.629929 
L 235.069008 171.629929 
L 235.169014 169.502118 
L 235.693742 169.502118 
L 235.693742 169.147482 
L 236.065424 169.147482 
L 236.156025 168.083576 
L 236.188176 168.083576 
L 236.235357 167.374306 
L 236.623382 167.374306 
L 236.623382 166.3104 
L 237.004922 166.3104 
L 237.095171 165.601129 
L 237.154948 165.601129 
L 237.219903 162.054776 
L 237.307349 162.054776 
L 237.307349 161.700141 
L 237.510556 161.700141 
L 237.510556 161.345506 
L 237.670159 161.345506 
L 237.729445 159.926965 
L 237.816293 159.926965 
L 237.816293 159.217694 
L 238.016248 159.217694 
L 238.016248 158.863059 
L 238.299166 158.863059 
L 238.379224 157.799153 
L 238.766247 157.799153 
L 238.766247 157.444518 
L 239.774661 157.444518 
L 239.774661 157.089882 
L 239.96422 157.089882 
L 239.96422 156.735247 
L 240.13351 156.735247 
L 240.13351 155.316706 
L 240.276219 155.316706 
L 240.352093 154.2528 
L 240.512689 154.2528 
L 240.512689 153.898165 
L 241.275553 153.898165 
L 241.356842 152.124988 
L 241.641801 152.124988 
L 241.709906 147.869365 
L 241.878573 147.869365 
L 241.878573 147.514729 
L 242.233375 147.514729 
L 242.233375 147.160094 
L 242.593039 147.160094 
L 242.593039 146.805459 
L 242.797938 146.805459 
L 242.831153 145.741553 
L 242.992076 145.741553 
L 243.035786 145.032282 
L 243.328929 145.032282 
L 243.419205 141.485929 
L 243.451341 141.485929 
L 243.451341 140.776659 
L 244.140782 140.776659 
L 244.140782 140.422024 
L 244.9327 140.422024 
L 244.991962 139.003482 
L 245.051038 139.003482 
L 245.051038 138.648847 
L 246.096696 138.648847 
L 246.096696 138.294212 
L 246.227634 138.294212 
L 246.263338 137.230306 
L 246.406028 137.230306 
L 246.488174 136.1664 
L 246.638664 136.1664 
L 246.692796 135.102494 
L 247.251968 135.102494 
L 247.316658 134.393224 
L 247.382689 134.393224 
L 247.382689 134.038588 
L 247.512509 134.038588 
L 247.512509 133.683953 
L 248.808181 133.683953 
L 248.808181 133.329318 
L 249.214355 133.329318 
L 249.214355 132.974682 
L 250.046584 132.974682 
L 250.046584 132.620047 
L 250.422928 132.620047 
L 250.422928 132.265412 
L 250.930052 132.265412 
L 250.930052 131.910776 
L 252.710486 131.910776 
L 252.710486 131.556141 
L 253.290289 131.556141 
L 253.290289 131.201506 
L 253.852754 131.201506 
L 253.852754 130.846871 
L 254.071653 130.846871 
L 254.071653 130.492235 
L 255.024442 130.492235 
L 255.024442 130.1376 
L 255.274434 130.1376 
L 255.361067 126.945882 
L 255.403639 126.945882 
L 255.419791 126.236612 
L 255.672668 126.236612 
L 255.672668 125.881976 
L 255.809167 125.881976 
L 255.905968 125.172706 
L 256.007875 125.172706 
L 256.015451 124.463435 
L 256.994561 124.463435 
L 257.001594 121.980988 
L 257.250708 121.980988 
L 257.250708 121.626353 
L 257.403044 121.626353 
L 257.45543 119.498541 
L 257.516339 119.498541 
L 257.617468 117.016094 
L 257.637418 117.016094 
L 257.681322 113.115106 
L 257.876516 113.115106 
L 257.932064 111.696565 
L 258.124539 111.696565 
L 258.159243 110.987294 
L 258.450808 110.987294 
L 258.450808 110.632659 
L 258.798375 110.632659 
L 258.798375 110.278024 
L 259.418565 110.278024 
L 259.523523 108.859482 
L 259.538821 108.859482 
L 259.538821 108.504847 
L 259.682311 108.504847 
L 259.682311 108.150212 
L 259.81503 108.150212 
L 259.81503 107.795576 
L 260.083528 107.795576 
L 260.146556 104.603859 
L 260.201203 104.603859 
L 260.29888 103.185318 
L 260.359492 103.185318 
L 260.359492 102.830682 
L 261.025383 102.830682 
L 261.078168 102.121412 
L 261.410477 102.121412 
L 261.448878 100.348235 
L 261.564468 100.348235 
L 261.570964 97.156518 
L 261.754745 97.156518 
L 261.754745 96.801882 
L 261.957289 96.801882 
L 262.037557 95.383341 
L 262.138898 95.383341 
L 262.189009 92.900894 
L 262.447526 92.900894 
L 262.447526 92.546259 
L 262.750712 92.546259 
L 262.772913 91.836988 
L 263.215788 91.836988 
L 263.264235 91.127718 
L 263.33589 91.127718 
L 263.426382 90.063812 
L 263.685092 90.063812 
L 263.707093 89.354541 
L 264.524518 89.354541 
L 264.529335 88.645271 
L 265.072942 88.645271 
L 265.072942 88.290635 
L 266.725786 88.290635 
L 266.726345 87.581365 
L 267.501294 87.581365 
L 267.501294 87.226729 
L 267.661375 87.226729 
L 267.669795 86.162824 
L 268.307784 86.162824 
L 268.380882 85.453553 
L 268.714609 85.453553 
L 268.750453 83.680376 
L 268.935369 83.680376 
L 268.935369 83.325741 
L 269.524392 83.325741 
L 269.617704 82.261835 
L 269.711431 82.261835 
L 269.810072 80.488659 
L 269.959895 80.488659 
L 269.959895 80.134024 
L 270.131949 80.134024 
L 270.225475 77.296941 
L 270.424315 77.296941 
L 270.424315 76.942306 
L 270.650215 76.942306 
L 270.68988 75.8784 
L 270.990485 75.8784 
L 271.007413 74.459859 
L 271.117365 74.459859 
L 271.117365 74.105224 
L 271.360357 74.105224 
L 271.381684 72.332047 
L 271.54004 72.332047 
L 271.54004 71.977412 
L 271.73231 71.977412 
L 271.748511 71.268141 
L 271.997552 71.268141 
L 272.102512 69.494965 
L 272.322875 69.494965 
L 272.322875 69.140329 
L 272.701828 69.140329 
L 272.745993 68.431059 
L 273.55058 68.431059 
L 273.641117 66.657882 
L 274.787729 66.657882 
L 274.873604 64.884706 
L 274.965884 64.884706 
L 275.012665 63.466165 
L 275.367011 63.466165 
L 275.416916 62.402259 
L 275.511248 62.402259 
L 275.571954 61.692988 
L 275.647778 61.692988 
L 275.726879 60.629082 
L 275.977253 60.629082 
L 275.977253 60.274447 
L 276.483148 60.274447 
L 276.483148 59.919812 
L 276.644365 59.919812 
L 276.644365 59.565176 
L 277.035783 59.565176 
L 277.096334 58.855906 
L 277.212052 58.855906 
L 277.271241 57.792 
L 277.34551 57.792 
L 277.34551 57.437365 
L 277.516551 57.437365 
L 277.533869 56.728094 
L 277.650689 56.728094 
L 277.650689 56.373459 
L 277.795106 56.373459 
L 277.795106 56.018824 
L 278.024013 56.018824 
L 278.024013 55.664188 
L 278.222478 55.664188 
L 278.237895 54.954918 
L 278.402849 54.954918 
L 278.402849 54.600282 
L 279.1231 54.600282 
L 279.1231 54.245647 
L 279.542592 54.245647 
L 279.640955 53.181741 
L 279.905641 53.181741 
L 280.013764 52.472471 
L 280.083106 52.472471 
L 280.083106 52.117835 
L 280.362818 52.117835 
L 280.362818 51.7632 
L 280.602374 51.7632 
L 280.703032 50.699294 
L 280.747965 50.699294 
L 280.788732 49.635388 
L 281.337148 49.635388 
L 281.378798 48.571482 
L 281.472205 48.571482 
L 281.472205 48.216847 
L 281.790088 48.216847 
L 281.814628 47.507576 
L 281.91168 47.507576 
L 281.91168 47.152941 
L 282.151299 47.152941 
L 282.157905 46.443671 
L 282.548706 46.443671 
L 282.581584 45.7344 
L 282.739075 45.7344 
L 282.739075 45.379765 
L 283.314904 45.379765 
L 283.314904 45.025129 
L 283.470033 45.025129 
L 283.470033 44.670494 
L 283.830442 44.670494 
L 283.861606 43.961224 
L 284.129075 43.961224 
L 284.130441 43.251953 
L 284.391082 43.251953 
L 284.391082 42.897318 
L 284.547412 42.897318 
L 284.641151 41.124141 
L 284.734568 41.124141 
L 284.734568 40.769506 
L 285.232831 40.769506 
L 285.308172 40.060235 
L 285.53881 40.060235 
L 285.53881 39.7056 
L 285.702919 39.7056 
L 285.739884 38.996329 
L 286.952686 38.996329 
L 287.019967 37.932424 
L 287.089439 37.932424 
L 287.089439 37.577788 
L 287.430459 37.577788 
L 287.430459 37.223153 
L 287.854865 37.223153 
L 287.854865 36.868518 
L 288.009718 36.868518 
L 288.009718 36.513882 
L 288.50194 36.513882 
L 288.528214 35.804612 
L 288.939434 35.804612 
L 288.980611 35.095341 
L 289.376209 35.095341 
L 289.376209 34.740706 
L 289.556626 34.740706 
L 289.556626 34.386071 
L 289.781203 34.386071 
L 289.781203 34.031435 
L 290.811479 34.031435 
L 290.811479 33.6768 
L 291.078692 33.6768 
L 291.078692 33.322165 
L 291.251055 33.322165 
L 291.254799 32.612894 
L 291.427293 32.612894 
L 291.427293 32.258259 
L 292.483691 32.258259 
L 292.483691 31.903624 
L 292.691404 31.903624 
L 292.691404 31.548988 
L 293.780616 31.548988 
L 293.780616 31.194353 
L 295.598504 31.194353 
L 295.642605 30.485082 
L 297.402256 30.485082 
L 297.402256 30.130447 
L 297.830552 30.130447 
L 297.830552 29.775812 
L 298.454861 29.775812 
L 298.454861 29.421176 
L 299.217574 29.421176 
L 299.217574 29.066541 
L 299.541292 29.066541 
L 299.541292 28.711906 
L 301.418649 28.711906 
L 301.418649 28.357271 
L 303.585907 28.357271 
L 303.585907 28.002635 
L 304.985656 28.002635 
L 304.985656 27.648 
L 360.8064 27.648 
L 360.8064 27.648 
" style="fill: none; stroke: #ff00ff; stroke-width: 1.5; stroke-linecap: square"/>
   </g>
   <g id="line2d_41">
    <defs>
     <path id="m188f329f67" d="M 0 8.485281 
L 5.091169 0 
L 0 -8.485281 
L -5.091169 0 
z
" style="stroke: #ff00ff; stroke-width: 1.5; stroke-linejoin: miter"/>
    </defs>
    <g>
     <use xlink:href="#m188f329f67" x="209.800712" y="216.313976" style="fill-opacity: 0; stroke: #ff00ff; stroke-width: 1.5; stroke-linejoin: miter"/>
     <use xlink:href="#m188f329f67" x="242.992076" y="145.741553" style="fill-opacity: 0; stroke: #ff00ff; stroke-width: 1.5; stroke-linejoin: miter"/>
     <use xlink:href="#m188f329f67" x="288.009718" y="36.868518" style="fill-opacity: 0; stroke: #ff00ff; stroke-width: 1.5; stroke-linejoin: miter"/>
     <use xlink:href="#m188f329f67" x="304.985656" y="27.648" style="fill-opacity: 0; stroke: #ff00ff; stroke-width: 1.5; stroke-linejoin: miter"/>
     <use xlink:href="#m188f329f67" x="360.8064" y="27.648" style="fill-opacity: 0; stroke: #ff00ff; stroke-width: 1.5; stroke-linejoin: miter"/>
    </g>
   </g>
   <g id="line2d_42">
    <path style="fill: none; stroke: #ff00ff; stroke-width: 1.5; stroke-linecap: square"/>
    <g/>
   </g>
   <g id="line2d_43">
    <path d="M 253.518049 131.201506 
" clip-path="url(#pec14ddf898)" style="fill: none; stroke: #ff00ff; stroke-width: 1.5; stroke-linecap: square"/>
    <defs>
     <path id="m1eff15d792" d="M -12 12 
L 12 -12 
M -12 -12 
L 12 12 
" style="stroke: #ff00ff"/>
    </defs>
    <g clip-path="url(#pec14ddf898)">
     <use xlink:href="#m1eff15d792" x="253.518049" y="131.201506" style="fill: #ff00ff; stroke: #ff00ff"/>
    </g>
   </g>
   <g id="line2d_44">
    <path d="M 360.8064 27.648 
L 380.514816 293.51808 
" style="fill: none; stroke: #000080; stroke-width: 1.5; stroke-linecap: square"/>
    <g>
     <use xlink:href="#m63c7fc81a2" x="360.8064" y="27.648" style="fill-opacity: 0; stroke: #000080; stroke-width: 1.5"/>
     <use xlink:href="#m63c7fc81a2" x="380.514816" y="293.51808" style="fill-opacity: 0; stroke: #000080; stroke-width: 1.5"/>
    </g>
   </g>
   <g id="line2d_45">
    <path d="M 360.8064 27.648 
L 380.514816 163.296 
" style="fill: none; stroke: #ff00ff; stroke-width: 1.5; stroke-linecap: square"/>
    <g>
     <use xlink:href="#m188f329f67" x="360.8064" y="27.648" style="fill-opacity: 0; stroke: #ff00ff; stroke-width: 1.5; stroke-linejoin: miter"/>
     <use xlink:href="#m188f329f67" x="380.514816" y="163.296" style="fill-opacity: 0; stroke: #ff00ff; stroke-width: 1.5; stroke-linejoin: miter"/>
    </g>
   </g>
   <g id="line2d_46">
    <path d="M 360.8064 298.944 
L 360.8064 27.648 
" style="fill: none; stroke: #000000; stroke-width: 1.5; stroke-linecap: square"/>
   </g>
   <g id="patch_3">
    <path d="M 57.6 298.944 
L 360.8064 298.944 
" style="fill: none; stroke: #000000; stroke-width: 0.8; stroke-linejoin: miter; stroke-linecap: square"/>
   </g>
   <g id="patch_4">
    <path d="M 57.6 27.648 
L 360.8064 27.648 
" style="fill: none; stroke: #000000; stroke-width: 0.8; stroke-linejoin: miter; stroke-linecap: square"/>
   </g>
   <g id="text_13">
    <!-- LCGA -->
    <g transform="translate(386.578944 297.381205)scale(0.14 -0.14)">
     <defs>
      <path id="DejaVuSans-4c" d="M 628 4666 
L 1259 4666 
L 1259 531 
L 3531 531 
L 3531 0 
L 628 0 
L 628 4666 
z
" transform="scale(0.015625)"/>
      <path id="DejaVuSans-43" d="M 4122 4306 
L 4122 3641 
Q 3803 3938 3442 4084 
Q 3081 4231 2675 4231 
Q 1875 4231 1450 3742 
Q 1025 3253 1025 2328 
Q 1025 1406 1450 917 
Q 1875 428 2675 428 
Q 3081 428 3442 575 
Q 3803 722 4122 1019 
L 4122 359 
Q 3791 134 3420 21 
Q 3050 -91 2638 -91 
Q 1578 -91 968 557 
Q 359 1206 359 2328 
Q 359 3453 968 4101 
Q 1578 4750 2638 4750 
Q 3056 4750 3426 4639 
Q 3797 4528 4122 4306 
z
" transform="scale(0.015625)"/>
      <path id="DejaVuSans-47" d="M 3809 666 
L 3809 1919 
L 2778 1919 
L 2778 2438 
L 4434 2438 
L 4434 434 
Q 4069 175 3628 42 
Q 3188 -91 2688 -91 
Q 1594 -91 976 548 
Q 359 1188 359 2328 
Q 359 3472 976 4111 
Q 1594 4750 2688 4750 
Q 3144 4750 3555 4637 
Q 3966 4525 4313 4306 
L 4313 3634 
Q 3963 3931 3569 4081 
Q 3175 4231 2741 4231 
Q 1884 4231 1454 3753 
Q 1025 3275 1025 2328 
Q 1025 1384 1454 906 
Q 1884 428 2741 428 
Q 3075 428 3337 486 
Q 3600 544 3809 666 
z
" transform="scale(0.015625)"/>
      <path id="DejaVuSans-41" d="M 2188 4044 
L 1331 1722 
L 3047 1722 
L 2188 4044 
z
M 1831 4666 
L 2547 4666 
L 4325 0 
L 3669 0 
L 3244 1197 
L 1141 1197 
L 716 0 
L 50 0 
L 1831 4666 
z
" transform="scale(0.015625)"/>
     </defs>
     <use xlink:href="#DejaVuSans-4c"/>
     <use xlink:href="#DejaVuSans-43" x="55.712891"/>
     <use xlink:href="#DejaVuSans-47" x="125.537109"/>
     <use xlink:href="#DejaVuSans-41" x="203.027344"/>
    </g>
   </g>
   <g id="text_14">
    <!-- EvoSpace- -->
    <g transform="translate(386.578944 167.159125)scale(0.14 -0.14)">
     <defs>
      <path id="DejaVuSans-45" d="M 628 4666 
L 3578 4666 
L 3578 4134 
L 1259 4134 
L 1259 2753 
L 3481 2753 
L 3481 2222 
L 1259 2222 
L 1259 531 
L 3634 531 
L 3634 0 
L 628 0 
L 628 4666 
z
" transform="scale(0.015625)"/>
      <path id="DejaVuSans-53" d="M 3425 4513 
L 3425 3897 
Q 3066 4069 2747 4153 
Q 2428 4238 2131 4238 
Q 1616 4238 1336 4038 
Q 1056 3838 1056 3469 
Q 1056 3159 1242 3001 
Q 1428 2844 1947 2747 
L 2328 2669 
Q 3034 2534 3370 2195 
Q 3706 1856 3706 1288 
Q 3706 609 3251 259 
Q 2797 -91 1919 -91 
Q 1588 -91 1214 -16 
Q 841 59 441 206 
L 441 856 
Q 825 641 1194 531 
Q 1563 422 1919 422 
Q 2459 422 2753 634 
Q 3047 847 3047 1241 
Q 3047 1584 2836 1778 
Q 2625 1972 2144 2069 
L 1759 2144 
Q 1053 2284 737 2584 
Q 422 2884 422 3419 
Q 422 4038 858 4394 
Q 1294 4750 2059 4750 
Q 2388 4750 2728 4690 
Q 3069 4631 3425 4513 
z
" transform="scale(0.015625)"/>
     </defs>
     <use xlink:href="#DejaVuSans-45"/>
     <use xlink:href="#DejaVuSans-76" x="63.183594"/>
     <use xlink:href="#DejaVuSans-6f" x="122.363281"/>
     <use xlink:href="#DejaVuSans-53" x="183.544922"/>
     <use xlink:href="#DejaVuSans-70" x="247.021484"/>
     <use xlink:href="#DejaVuSans-61" x="310.498047"/>
     <use xlink:href="#DejaVuSans-63" x="371.777344"/>
     <use xlink:href="#DejaVuSans-65" x="426.757812"/>
     <use xlink:href="#DejaVuSans-2d" x="488.28125"/>
    </g>
   </g>
   <g id="text_15">
    <!-- best 2009 -->
    <g transform="translate(386.578944 36.937045)scale(0.14 -0.14)">
     <defs>
      <path id="DejaVuSans-62" d="M 3116 1747 
Q 3116 2381 2855 2742 
Q 2594 3103 2138 3103 
Q 1681 3103 1420 2742 
Q 1159 2381 1159 1747 
Q 1159 1113 1420 752 
Q 1681 391 2138 391 
Q 2594 391 2855 752 
Q 3116 1113 3116 1747 
z
M 1159 2969 
Q 1341 3281 1617 3432 
Q 1894 3584 2278 3584 
Q 2916 3584 3314 3078 
Q 3713 2572 3713 1747 
Q 3713 922 3314 415 
Q 2916 -91 2278 -91 
Q 1894 -91 1617 61 
Q 1341 213 1159 525 
L 1159 0 
L 581 0 
L 581 4863 
L 1159 4863 
L 1159 2969 
z
" transform="scale(0.015625)"/>
      <path id="DejaVuSans-39" d="M 703 97 
L 703 672 
Q 941 559 1184 500 
Q 1428 441 1663 441 
Q 2288 441 2617 861 
Q 2947 1281 2994 2138 
Q 2813 1869 2534 1725 
Q 2256 1581 1919 1581 
Q 1219 1581 811 2004 
Q 403 2428 403 3163 
Q 403 3881 828 4315 
Q 1253 4750 1959 4750 
Q 2769 4750 3195 4129 
Q 3622 3509 3622 2328 
Q 3622 1225 3098 567 
Q 2575 -91 1691 -91 
Q 1453 -91 1209 -44 
Q 966 3 703 97 
z
M 1959 2075 
Q 2384 2075 2632 2365 
Q 2881 2656 2881 3163 
Q 2881 3666 2632 3958 
Q 2384 4250 1959 4250 
Q 1534 4250 1286 3958 
Q 1038 3666 1038 3163 
Q 1038 2656 1286 2365 
Q 1534 2075 1959 2075 
z
" transform="scale(0.015625)"/>
     </defs>
     <use xlink:href="#DejaVuSans-62"/>
     <use xlink:href="#DejaVuSans-65" x="63.476562"/>
     <use xlink:href="#DejaVuSans-73" x="125"/>
     <use xlink:href="#DejaVuSans-74" x="177.099609"/>
     <use xlink:href="#DejaVuSans-20" x="216.308594"/>
     <use xlink:href="#DejaVuSans-32" x="248.095703"/>
     <use xlink:href="#DejaVuSans-30" x="311.71875"/>
     <use xlink:href="#DejaVuSans-30" x="375.341797"/>
     <use xlink:href="#DejaVuSans-39" x="438.964844"/>
    </g>
   </g>
   <g id="text_16">
    <!-- bbob f19, 3-D -->
    <g transform="translate(60.632064 38.111366)scale(0.102 -0.102)">
     <defs>
      <path id="DejaVuSans-33" d="M 2597 2516 
Q 3050 2419 3304 2112 
Q 3559 1806 3559 1356 
Q 3559 666 3084 287 
Q 2609 -91 1734 -91 
Q 1441 -91 1130 -33 
Q 819 25 488 141 
L 488 750 
Q 750 597 1062 519 
Q 1375 441 1716 441 
Q 2309 441 2620 675 
Q 2931 909 2931 1356 
Q 2931 1769 2642 2001 
Q 2353 2234 1838 2234 
L 1294 2234 
L 1294 2753 
L 1863 2753 
Q 2328 2753 2575 2939 
Q 2822 3125 2822 3475 
Q 2822 3834 2567 4026 
Q 2313 4219 1838 4219 
Q 1578 4219 1281 4162 
Q 984 4106 628 3988 
L 628 4550 
Q 988 4650 1302 4700 
Q 1616 4750 1894 4750 
Q 2613 4750 3031 4423 
Q 3450 4097 3450 3541 
Q 3450 3153 3228 2886 
Q 3006 2619 2597 2516 
z
" transform="scale(0.015625)"/>
      <path id="DejaVuSans-44" d="M 1259 4147 
L 1259 519 
L 2022 519 
Q 2988 519 3436 956 
Q 3884 1394 3884 2338 
Q 3884 3275 3436 3711 
Q 2988 4147 2022 4147 
L 1259 4147 
z
M 628 4666 
L 1925 4666 
Q 3281 4666 3915 4102 
Q 4550 3538 4550 2338 
Q 4550 1131 3912 565 
Q 3275 0 1925 0 
L 628 0 
L 628 4666 
z
" transform="scale(0.015625)"/>
     </defs>
     <use xlink:href="#DejaVuSans-62"/>
     <use xlink:href="#DejaVuSans-62" x="63.476562"/>
     <use xlink:href="#DejaVuSans-6f" x="126.953125"/>
     <use xlink:href="#DejaVuSans-62" x="188.134766"/>
     <use xlink:href="#DejaVuSans-20" x="251.611328"/>
     <use xlink:href="#DejaVuSans-66" x="283.398438"/>
     <use xlink:href="#DejaVuSans-31" x="318.603516"/>
     <use xlink:href="#DejaVuSans-39" x="382.226562"/>
     <use xlink:href="#DejaVuSans-2c" x="445.849609"/>
     <use xlink:href="#DejaVuSans-20" x="477.636719"/>
     <use xlink:href="#DejaVuSans-33" x="509.423828"/>
     <use xlink:href="#DejaVuSans-2d" x="573.046875"/>
     <use xlink:href="#DejaVuSans-44" x="609.130859"/>
    </g>
    <!-- 51 targets: 100..1e-08 -->
    <g transform="translate(60.632064 49.533135)scale(0.102 -0.102)">
     <defs>
      <path id="DejaVuSans-35" d="M 691 4666 
L 3169 4666 
L 3169 4134 
L 1269 4134 
L 1269 2991 
Q 1406 3038 1543 3061 
Q 1681 3084 1819 3084 
Q 2600 3084 3056 2656 
Q 3513 2228 3513 1497 
Q 3513 744 3044 326 
Q 2575 -91 1722 -91 
Q 1428 -91 1123 -41 
Q 819 9 494 109 
L 494 744 
Q 775 591 1075 516 
Q 1375 441 1709 441 
Q 2250 441 2565 725 
Q 2881 1009 2881 1497 
Q 2881 1984 2565 2268 
Q 2250 2553 1709 2553 
Q 1456 2553 1204 2497 
Q 953 2441 691 2322 
L 691 4666 
z
" transform="scale(0.015625)"/>
      <path id="DejaVuSans-3a" d="M 750 794 
L 1409 794 
L 1409 0 
L 750 0 
L 750 794 
z
M 750 3309 
L 1409 3309 
L 1409 2516 
L 750 2516 
L 750 3309 
z
" transform="scale(0.015625)"/>
     </defs>
     <use xlink:href="#DejaVuSans-35"/>
     <use xlink:href="#DejaVuSans-31" x="63.623047"/>
     <use xlink:href="#DejaVuSans-20" x="127.246094"/>
     <use xlink:href="#DejaVuSans-74" x="159.033203"/>
     <use xlink:href="#DejaVuSans-61" x="198.242188"/>
     <use xlink:href="#DejaVuSans-72" x="259.521484"/>
     <use xlink:href="#DejaVuSans-67" x="298.884766"/>
     <use xlink:href="#DejaVuSans-65" x="362.361328"/>
     <use xlink:href="#DejaVuSans-74" x="423.884766"/>
     <use xlink:href="#DejaVuSans-73" x="463.09375"/>
     <use xlink:href="#DejaVuSans-3a" x="515.193359"/>
     <use xlink:href="#DejaVuSans-20" x="548.884766"/>
     <use xlink:href="#DejaVuSans-31" x="580.671875"/>
     <use xlink:href="#DejaVuSans-30" x="644.294922"/>
     <use xlink:href="#DejaVuSans-30" x="707.917969"/>
     <use xlink:href="#DejaVuSans-2e" x="771.541016"/>
     <use xlink:href="#DejaVuSans-2e" x="803.328125"/>
     <use xlink:href="#DejaVuSans-31" x="835.115234"/>
     <use xlink:href="#DejaVuSans-65" x="898.738281"/>
     <use xlink:href="#DejaVuSans-2d" x="960.261719"/>
     <use xlink:href="#DejaVuSans-30" x="996.345703"/>
     <use xlink:href="#DejaVuSans-38" x="1059.96875"/>
    </g>
    <!-- 15 instances -->
    <g transform="translate(60.632064 60.954904)scale(0.102 -0.102)">
     <use xlink:href="#DejaVuSans-31"/>
     <use xlink:href="#DejaVuSans-35" x="63.623047"/>
     <use xlink:href="#DejaVuSans-20" x="127.246094"/>
     <use xlink:href="#DejaVuSans-69" x="159.033203"/>
     <use xlink:href="#DejaVuSans-6e" x="186.816406"/>
     <use xlink:href="#DejaVuSans-73" x="250.195312"/>
     <use xlink:href="#DejaVuSans-74" x="302.294922"/>
     <use xlink:href="#DejaVuSans-61" x="341.503906"/>
     <use xlink:href="#DejaVuSans-6e" x="402.783203"/>
     <use xlink:href="#DejaVuSans-63" x="466.162109"/>
     <use xlink:href="#DejaVuSans-65" x="521.142578"/>
     <use xlink:href="#DejaVuSans-73" x="582.666016"/>
    </g>
   </g>
   <g id="text_17">
    <!-- v2.6 -->
    <g style="fill: #808080" transform="translate(198.292262 294.151352)scale(0.1 -0.1)">
     <use xlink:href="#DejaVuSans-76"/>
     <use xlink:href="#DejaVuSans-32" x="59.179688"/>
     <use xlink:href="#DejaVuSans-2e" x="122.802734"/>
     <use xlink:href="#DejaVuSans-36" x="154.589844"/>
    </g>
   </g>
   <g id="text_18">
    <!-- 19 Griewank-Rosenbrock F8F2 -->
    <g transform="translate(57.101637 21.648)scale(0.2 -0.2)">
     <defs>
      <path id="DejaVuSans-77" d="M 269 3500 
L 844 3500 
L 1563 769 
L 2278 3500 
L 2956 3500 
L 3675 769 
L 4391 3500 
L 4966 3500 
L 4050 0 
L 3372 0 
L 2619 2869 
L 1863 0 
L 1184 0 
L 269 3500 
z
" transform="scale(0.015625)"/>
      <path id="DejaVuSans-6b" d="M 581 4863 
L 1159 4863 
L 1159 1991 
L 2875 3500 
L 3609 3500 
L 1753 1863 
L 3688 0 
L 2938 0 
L 1159 1709 
L 1159 0 
L 581 0 
L 581 4863 
z
" transform="scale(0.015625)"/>
      <path id="DejaVuSans-52" d="M 2841 2188 
Q 3044 2119 3236 1894 
Q 3428 1669 3622 1275 
L 4263 0 
L 3584 0 
L 2988 1197 
Q 2756 1666 2539 1819 
Q 2322 1972 1947 1972 
L 1259 1972 
L 1259 0 
L 628 0 
L 628 4666 
L 2053 4666 
Q 2853 4666 3247 4331 
Q 3641 3997 3641 3322 
Q 3641 2881 3436 2590 
Q 3231 2300 2841 2188 
z
M 1259 4147 
L 1259 2491 
L 2053 2491 
Q 2509 2491 2742 2702 
Q 2975 2913 2975 3322 
Q 2975 3731 2742 3939 
Q 2509 4147 2053 4147 
L 1259 4147 
z
" transform="scale(0.015625)"/>
     </defs>
     <use xlink:href="#DejaVuSans-31"/>
     <use xlink:href="#DejaVuSans-39" x="63.623047"/>
     <use xlink:href="#DejaVuSans-20" x="127.246094"/>
     <use xlink:href="#DejaVuSans-47" x="159.033203"/>
     <use xlink:href="#DejaVuSans-72" x="236.523438"/>
     <use xlink:href="#DejaVuSans-69" x="277.636719"/>
     <use xlink:href="#DejaVuSans-65" x="305.419922"/>
     <use xlink:href="#DejaVuSans-77" x="366.943359"/>
     <use xlink:href="#DejaVuSans-61" x="448.730469"/>
     <use xlink:href="#DejaVuSans-6e" x="510.009766"/>
     <use xlink:href="#DejaVuSans-6b" x="573.388672"/>
     <use xlink:href="#DejaVuSans-2d" x="631.298828"/>
     <use xlink:href="#DejaVuSans-52" x="667.382812"/>
     <use xlink:href="#DejaVuSans-6f" x="732.365234"/>
     <use xlink:href="#DejaVuSans-73" x="793.546875"/>
     <use xlink:href="#DejaVuSans-65" x="845.646484"/>
     <use xlink:href="#DejaVuSans-6e" x="907.169922"/>
     <use xlink:href="#DejaVuSans-62" x="970.548828"/>
     <use xlink:href="#DejaVuSans-72" x="1034.025391"/>
     <use xlink:href="#DejaVuSans-6f" x="1072.888672"/>
     <use xlink:href="#DejaVuSans-63" x="1134.070312"/>
     <use xlink:href="#DejaVuSans-6b" x="1189.050781"/>
     <use xlink:href="#DejaVuSans-20" x="1246.960938"/>
     <use xlink:href="#DejaVuSans-46" x="1278.748047"/>
     <use xlink:href="#DejaVuSans-38" x="1336.267578"/>
     <use xlink:href="#DejaVuSans-46" x="1399.890625"/>
     <use xlink:href="#DejaVuSans-32" x="1457.410156"/>
    </g>
   </g>
  </g>
 </g>
 <defs>
  <clipPath id="pec14ddf898">
   <rect x="57.6" y="27.648" width="303.2064" height="271.296"/>
  </clipPath>
 </defs>
</svg>
