<?xml version="1.0" encoding="utf-8" standalone="no"?>
<!DOCTYPE svg PUBLIC "-//W3C//DTD SVG 1.1//EN"
  "http://www.w3.org/Graphics/SVG/1.1/DTD/svg11.dtd">
<svg xmlns:xlink="http://www.w3.org/1999/xlink" width="460.8pt" height="345.6pt" viewBox="0 0 460.8 345.6" xmlns="http://www.w3.org/2000/svg" version="1.1">
 <metadata>
  <rdf:RDF xmlns:dc="http://purl.org/dc/elements/1.1/" xmlns:cc="http://creativecommons.org/ns#" xmlns:rdf="http://www.w3.org/1999/02/22-rdf-syntax-ns#">
   <cc:Work>
    <dc:type rdf:resource="http://purl.org/dc/dcmitype/StillImage"/>
    <dc:date>2024-05-29T08:05:59.973760</dc:date>
    <dc:format>image/svg+xml</dc:format>
    <dc:creator>
     <cc:Agent>
      <dc:title>Matplotlib v3.5.1, https://matplotlib.org/</dc:title>
     </cc:Agent>
    </dc:creator>
   </cc:Work>
  </rdf:RDF>
 </metadata>
 <defs>
  <style type="text/css">*{stroke-linejoin: round; stroke-linecap: butt}</style>
 </defs>
 <g id="figure_1">
  <g id="patch_1">
   <path d="M 0 345.6 
L 460.8 345.6 
L 460.8 0 
L 0 0 
z
" style="fill: #ffffff"/>
  </g>
  <g id="axes_1">
   <g id="patch_2">
    <path d="M 57.6 298.944 
L 360.8064 298.944 
L 360.8064 27.648 
L 57.6 27.648 
z
" style="fill: #ffffff"/>
   </g>
   <g id="line2d_1">
    <path d="M 44.560826 298.944 
L 44.560826 277.665882 
L 57.6 277.665882 
L 57.6 272.346353 
L 65.227428 272.346353 
L 65.227428 267.026824 
L 78.266603 267.026824 
L 78.266603 261.707294 
L 87.876026 261.707294 
L 87.876026 256.387765 
L 107.244765 256.387765 
L 107.244765 251.068235 
L 114.418881 251.068235 
L 114.418881 245.748706 
L 121.892744 245.748706 
L 121.892744 235.109647 
L 127.227236 235.109647 
L 127.227236 229.790118 
L 129.622688 229.790118 
L 129.622688 224.470588 
L 134.463557 224.470588 
L 134.463557 219.151059 
L 136.555884 219.151059 
L 136.555884 208.512 
L 140.725251 208.512 
L 140.725251 203.192471 
L 144.602918 203.192471 
L 144.602918 197.872941 
L 148.800595 197.872941 
L 148.800595 192.553412 
L 150.221009 192.553412 
L 150.221009 187.233882 
L 153.071898 187.233882 
L 153.071898 181.914353 
L 153.536404 181.914353 
L 153.536404 176.594824 
L 155.13016 176.594824 
L 155.13016 171.275294 
L 155.701037 171.275294 
L 155.701037 165.955765 
L 157.080512 165.955765 
L 157.080512 160.636235 
L 160.142495 160.636235 
L 160.142495 155.316706 
L 162.704821 155.316706 
L 162.704821 149.997176 
L 165.422585 149.997176 
L 165.422585 144.677647 
L 168.816733 144.677647 
L 168.816733 139.358118 
L 168.943582 139.358118 
L 168.943582 134.038588 
L 171.136775 134.038588 
L 171.136775 128.719059 
L 171.248949 128.719059 
L 171.248949 123.399529 
L 175.620293 123.399529 
L 175.620293 118.08 
L 175.761601 118.08 
L 175.761601 112.760471 
L 176.058402 112.760471 
L 176.058402 107.440941 
L 176.520373 107.440941 
L 176.520373 102.121412 
L 177.233457 102.121412 
L 177.233457 96.801882 
L 181.457152 96.801882 
L 181.457152 91.482353 
L 181.522042 91.482353 
L 181.522042 86.162824 
L 181.855908 86.162824 
L 181.855908 80.843294 
L 182.345852 80.843294 
L 182.345852 75.523765 
L 183.063612 75.523765 
L 183.063612 70.204235 
L 183.546742 70.204235 
L 183.546742 64.884706 
L 183.743481 64.884706 
L 183.743481 59.565176 
L 184.006424 59.565176 
L 184.006424 54.245647 
L 184.288124 54.245647 
L 184.288124 48.926118 
L 185.279294 48.926118 
L 185.279294 43.606588 
L 185.553151 43.606588 
L 185.553151 38.287059 
L 185.73008 38.287059 
L 185.73008 32.967529 
L 185.884824 32.967529 
L 185.884824 27.648 
L 360.8064 27.648 
" style="fill: none; stroke: #f5deb3; stroke-width: 4; stroke-linecap: square"/>
   </g>
   <g id="line2d_2">
    <defs>
     <path id="m6a838e1a2e" d="M 0 7.778175 
L 7.778175 0 
L 0 -7.778175 
L -7.778175 0 
z
" style="stroke: #f5deb3; stroke-width: 1.5; stroke-linejoin: miter"/>
    </defs>
    <g>
     <use xlink:href="#m6a838e1a2e" x="87.876026" y="256.387765" style="fill: #f5deb3; stroke: #f5deb3; stroke-width: 1.5; stroke-linejoin: miter"/>
     <use xlink:href="#m6a838e1a2e" x="155.13016" y="176.594824" style="fill: #f5deb3; stroke: #f5deb3; stroke-width: 1.5; stroke-linejoin: miter"/>
     <use xlink:href="#m6a838e1a2e" x="182.345852" y="75.523765" style="fill: #f5deb3; stroke: #f5deb3; stroke-width: 1.5; stroke-linejoin: miter"/>
     <use xlink:href="#m6a838e1a2e" x="185.884824" y="27.648" style="fill: #f5deb3; stroke: #f5deb3; stroke-width: 1.5; stroke-linejoin: miter"/>
     <use xlink:href="#m6a838e1a2e" x="185.884824" y="27.648" style="fill: #f5deb3; stroke: #f5deb3; stroke-width: 1.5; stroke-linejoin: miter"/>
     <use xlink:href="#m6a838e1a2e" x="360.8064" y="27.648" style="fill: #f5deb3; stroke: #f5deb3; stroke-width: 1.5; stroke-linejoin: miter"/>
    </g>
   </g>
   <g id="line2d_3">
    <path style="fill: none; stroke: #f5deb3; stroke-width: 4; stroke-linecap: square"/>
    <g/>
   </g>
   <g id="line2d_4">
    <path d="M 360.8064 27.648 
L 380.514816 33.07392 
" style="fill: none; stroke: #f5deb3; stroke-width: 4; stroke-linecap: square"/>
    <g>
     <use xlink:href="#m6a838e1a2e" x="360.8064" y="27.648" style="fill: #f5deb3; stroke: #f5deb3; stroke-width: 1.5; stroke-linejoin: miter"/>
     <use xlink:href="#m6a838e1a2e" x="380.514816" y="33.07392" style="fill: #f5deb3; stroke: #f5deb3; stroke-width: 1.5; stroke-linejoin: miter"/>
    </g>
   </g>
   <g id="matplotlib.axis_1">
    <g id="xtick_1">
     <g id="line2d_5">
      <path d="M 57.6 298.944 
L 57.6 27.648 
" clip-path="url(#p0cab62825f)" style="fill: none; stroke: #b0b0b0; stroke-width: 0.8; stroke-linecap: square"/>
     </g>
     <g id="line2d_6">
      <defs>
       <path id="mf0e10f34b8" d="M 0 0 
L 0 3.5 
" style="stroke: #000000; stroke-width: 0.8"/>
      </defs>
      <g>
       <use xlink:href="#mf0e10f34b8" x="57.6" y="298.944" style="stroke: #000000; stroke-width: 0.8"/>
      </g>
     </g>
     <g id="text_1">
      <!-- 0 -->
      <g transform="translate(52.191875 318.861344)scale(0.17 -0.17)">
       <defs>
        <path id="DejaVuSans-30" d="M 2034 4250 
Q 1547 4250 1301 3770 
Q 1056 3291 1056 2328 
Q 1056 1369 1301 889 
Q 1547 409 2034 409 
Q 2525 409 2770 889 
Q 3016 1369 3016 2328 
Q 3016 3291 2770 3770 
Q 2525 4250 2034 4250 
z
M 2034 4750 
Q 2819 4750 3233 4129 
Q 3647 3509 3647 2328 
Q 3647 1150 3233 529 
Q 2819 -91 2034 -91 
Q 1250 -91 836 529 
Q 422 1150 422 2328 
Q 422 3509 836 4129 
Q 1250 4750 2034 4750 
z
" transform="scale(0.015625)"/>
       </defs>
       <use xlink:href="#DejaVuSans-30"/>
      </g>
     </g>
    </g>
    <g id="xtick_2">
     <g id="line2d_7">
      <path d="M 144.2304 298.944 
L 144.2304 27.648 
" clip-path="url(#p0cab62825f)" style="fill: none; stroke: #b0b0b0; stroke-width: 0.8; stroke-linecap: square"/>
     </g>
     <g id="line2d_8">
      <g>
       <use xlink:href="#mf0e10f34b8" x="144.2304" y="298.944" style="stroke: #000000; stroke-width: 0.8"/>
      </g>
     </g>
     <g id="text_2">
      <!-- 2 -->
      <g transform="translate(138.822275 318.861344)scale(0.17 -0.17)">
       <defs>
        <path id="DejaVuSans-32" d="M 1228 531 
L 3431 531 
L 3431 0 
L 469 0 
L 469 531 
Q 828 903 1448 1529 
Q 2069 2156 2228 2338 
Q 2531 2678 2651 2914 
Q 2772 3150 2772 3378 
Q 2772 3750 2511 3984 
Q 2250 4219 1831 4219 
Q 1534 4219 1204 4116 
Q 875 4013 500 3803 
L 500 4441 
Q 881 4594 1212 4672 
Q 1544 4750 1819 4750 
Q 2544 4750 2975 4387 
Q 3406 4025 3406 3419 
Q 3406 3131 3298 2873 
Q 3191 2616 2906 2266 
Q 2828 2175 2409 1742 
Q 1991 1309 1228 531 
z
" transform="scale(0.015625)"/>
       </defs>
       <use xlink:href="#DejaVuSans-32"/>
      </g>
     </g>
    </g>
    <g id="xtick_3">
     <g id="line2d_9">
      <path d="M 230.8608 298.944 
L 230.8608 27.648 
" clip-path="url(#p0cab62825f)" style="fill: none; stroke: #b0b0b0; stroke-width: 0.8; stroke-linecap: square"/>
     </g>
     <g id="line2d_10">
      <g>
       <use xlink:href="#mf0e10f34b8" x="230.8608" y="298.944" style="stroke: #000000; stroke-width: 0.8"/>
      </g>
     </g>
     <g id="text_3">
      <!-- 4 -->
      <g transform="translate(225.452675 318.861344)scale(0.17 -0.17)">
       <defs>
        <path id="DejaVuSans-34" d="M 2419 4116 
L 825 1625 
L 2419 1625 
L 2419 4116 
z
M 2253 4666 
L 3047 4666 
L 3047 1625 
L 3713 1625 
L 3713 1100 
L 3047 1100 
L 3047 0 
L 2419 0 
L 2419 1100 
L 313 1100 
L 313 1709 
L 2253 4666 
z
" transform="scale(0.015625)"/>
       </defs>
       <use xlink:href="#DejaVuSans-34"/>
      </g>
     </g>
    </g>
    <g id="xtick_4">
     <g id="line2d_11">
      <path d="M 317.4912 298.944 
L 317.4912 27.648 
" clip-path="url(#p0cab62825f)" style="fill: none; stroke: #b0b0b0; stroke-width: 0.8; stroke-linecap: square"/>
     </g>
     <g id="line2d_12">
      <g>
       <use xlink:href="#mf0e10f34b8" x="317.4912" y="298.944" style="stroke: #000000; stroke-width: 0.8"/>
      </g>
     </g>
     <g id="text_4">
      <!-- 6 -->
      <g transform="translate(312.083075 318.861344)scale(0.17 -0.17)">
       <defs>
        <path id="DejaVuSans-36" d="M 2113 2584 
Q 1688 2584 1439 2293 
Q 1191 2003 1191 1497 
Q 1191 994 1439 701 
Q 1688 409 2113 409 
Q 2538 409 2786 701 
Q 3034 994 3034 1497 
Q 3034 2003 2786 2293 
Q 2538 2584 2113 2584 
z
M 3366 4563 
L 3366 3988 
Q 3128 4100 2886 4159 
Q 2644 4219 2406 4219 
Q 1781 4219 1451 3797 
Q 1122 3375 1075 2522 
Q 1259 2794 1537 2939 
Q 1816 3084 2150 3084 
Q 2853 3084 3261 2657 
Q 3669 2231 3669 1497 
Q 3669 778 3244 343 
Q 2819 -91 2113 -91 
Q 1303 -91 875 529 
Q 447 1150 447 2328 
Q 447 3434 972 4092 
Q 1497 4750 2381 4750 
Q 2619 4750 2861 4703 
Q 3103 4656 3366 4563 
z
" transform="scale(0.015625)"/>
       </defs>
       <use xlink:href="#DejaVuSans-36"/>
      </g>
     </g>
    </g>
    <g id="xtick_5">
     <g id="line2d_13">
      <path d="M 100.9152 298.944 
L 100.9152 27.648 
" clip-path="url(#p0cab62825f)" style="fill: none; stroke: #b0b0b0; stroke-width: 0.8; stroke-linecap: square"/>
     </g>
     <g id="line2d_14">
      <defs>
       <path id="mb0b9dbfb5c" d="M 0 0 
L 0 2 
" style="stroke: #000000; stroke-width: 0.6"/>
      </defs>
      <g>
       <use xlink:href="#mb0b9dbfb5c" x="100.9152" y="298.944" style="stroke: #000000; stroke-width: 0.6"/>
      </g>
     </g>
    </g>
    <g id="xtick_6">
     <g id="line2d_15">
      <path d="M 187.5456 298.944 
L 187.5456 27.648 
" clip-path="url(#p0cab62825f)" style="fill: none; stroke: #b0b0b0; stroke-width: 0.8; stroke-linecap: square"/>
     </g>
     <g id="line2d_16">
      <g>
       <use xlink:href="#mb0b9dbfb5c" x="187.5456" y="298.944" style="stroke: #000000; stroke-width: 0.6"/>
      </g>
     </g>
    </g>
    <g id="xtick_7">
     <g id="line2d_17">
      <path d="M 274.176 298.944 
L 274.176 27.648 
" clip-path="url(#p0cab62825f)" style="fill: none; stroke: #b0b0b0; stroke-width: 0.8; stroke-linecap: square"/>
     </g>
     <g id="line2d_18">
      <g>
       <use xlink:href="#mb0b9dbfb5c" x="274.176" y="298.944" style="stroke: #000000; stroke-width: 0.6"/>
      </g>
     </g>
    </g>
    <g id="xtick_8">
     <g id="line2d_19">
      <path d="M 360.8064 298.944 
L 360.8064 27.648 
" clip-path="url(#p0cab62825f)" style="fill: none; stroke: #b0b0b0; stroke-width: 0.8; stroke-linecap: square"/>
     </g>
     <g id="line2d_20">
      <g>
       <use xlink:href="#mb0b9dbfb5c" x="360.8064" y="298.944" style="stroke: #000000; stroke-width: 0.6"/>
      </g>
     </g>
    </g>
    <g id="text_5">
     <!-- log10(# f-evals / dimension) -->
     <g transform="translate(88.823278 339.314156)scale(0.17 -0.17)">
      <defs>
       <path id="DejaVuSans-6c" d="M 603 4863 
L 1178 4863 
L 1178 0 
L 603 0 
L 603 4863 
z
" transform="scale(0.015625)"/>
       <path id="DejaVuSans-6f" d="M 1959 3097 
Q 1497 3097 1228 2736 
Q 959 2375 959 1747 
Q 959 1119 1226 758 
Q 1494 397 1959 397 
Q 2419 397 2687 759 
Q 2956 1122 2956 1747 
Q 2956 2369 2687 2733 
Q 2419 3097 1959 3097 
z
M 1959 3584 
Q 2709 3584 3137 3096 
Q 3566 2609 3566 1747 
Q 3566 888 3137 398 
Q 2709 -91 1959 -91 
Q 1206 -91 779 398 
Q 353 888 353 1747 
Q 353 2609 779 3096 
Q 1206 3584 1959 3584 
z
" transform="scale(0.015625)"/>
       <path id="DejaVuSans-67" d="M 2906 1791 
Q 2906 2416 2648 2759 
Q 2391 3103 1925 3103 
Q 1463 3103 1205 2759 
Q 947 2416 947 1791 
Q 947 1169 1205 825 
Q 1463 481 1925 481 
Q 2391 481 2648 825 
Q 2906 1169 2906 1791 
z
M 3481 434 
Q 3481 -459 3084 -895 
Q 2688 -1331 1869 -1331 
Q 1566 -1331 1297 -1286 
Q 1028 -1241 775 -1147 
L 775 -588 
Q 1028 -725 1275 -790 
Q 1522 -856 1778 -856 
Q 2344 -856 2625 -561 
Q 2906 -266 2906 331 
L 2906 616 
Q 2728 306 2450 153 
Q 2172 0 1784 0 
Q 1141 0 747 490 
Q 353 981 353 1791 
Q 353 2603 747 3093 
Q 1141 3584 1784 3584 
Q 2172 3584 2450 3431 
Q 2728 3278 2906 2969 
L 2906 3500 
L 3481 3500 
L 3481 434 
z
" transform="scale(0.015625)"/>
       <path id="DejaVuSans-31" d="M 794 531 
L 1825 531 
L 1825 4091 
L 703 3866 
L 703 4441 
L 1819 4666 
L 2450 4666 
L 2450 531 
L 3481 531 
L 3481 0 
L 794 0 
L 794 531 
z
" transform="scale(0.015625)"/>
       <path id="DejaVuSans-28" d="M 1984 4856 
Q 1566 4138 1362 3434 
Q 1159 2731 1159 2009 
Q 1159 1288 1364 580 
Q 1569 -128 1984 -844 
L 1484 -844 
Q 1016 -109 783 600 
Q 550 1309 550 2009 
Q 550 2706 781 3412 
Q 1013 4119 1484 4856 
L 1984 4856 
z
" transform="scale(0.015625)"/>
       <path id="DejaVuSans-23" d="M 3272 2816 
L 2363 2816 
L 2100 1772 
L 3016 1772 
L 3272 2816 
z
M 2803 4594 
L 2478 3297 
L 3391 3297 
L 3719 4594 
L 4219 4594 
L 3897 3297 
L 4872 3297 
L 4872 2816 
L 3775 2816 
L 3519 1772 
L 4513 1772 
L 4513 1294 
L 3397 1294 
L 3072 0 
L 2572 0 
L 2894 1294 
L 1978 1294 
L 1656 0 
L 1153 0 
L 1478 1294 
L 494 1294 
L 494 1772 
L 1594 1772 
L 1856 2816 
L 850 2816 
L 850 3297 
L 1978 3297 
L 2297 4594 
L 2803 4594 
z
" transform="scale(0.015625)"/>
       <path id="DejaVuSans-20" transform="scale(0.015625)"/>
       <path id="DejaVuSans-66" d="M 2375 4863 
L 2375 4384 
L 1825 4384 
Q 1516 4384 1395 4259 
Q 1275 4134 1275 3809 
L 1275 3500 
L 2222 3500 
L 2222 3053 
L 1275 3053 
L 1275 0 
L 697 0 
L 697 3053 
L 147 3053 
L 147 3500 
L 697 3500 
L 697 3744 
Q 697 4328 969 4595 
Q 1241 4863 1831 4863 
L 2375 4863 
z
" transform="scale(0.015625)"/>
       <path id="DejaVuSans-2d" d="M 313 2009 
L 1997 2009 
L 1997 1497 
L 313 1497 
L 313 2009 
z
" transform="scale(0.015625)"/>
       <path id="DejaVuSans-65" d="M 3597 1894 
L 3597 1613 
L 953 1613 
Q 991 1019 1311 708 
Q 1631 397 2203 397 
Q 2534 397 2845 478 
Q 3156 559 3463 722 
L 3463 178 
Q 3153 47 2828 -22 
Q 2503 -91 2169 -91 
Q 1331 -91 842 396 
Q 353 884 353 1716 
Q 353 2575 817 3079 
Q 1281 3584 2069 3584 
Q 2775 3584 3186 3129 
Q 3597 2675 3597 1894 
z
M 3022 2063 
Q 3016 2534 2758 2815 
Q 2500 3097 2075 3097 
Q 1594 3097 1305 2825 
Q 1016 2553 972 2059 
L 3022 2063 
z
" transform="scale(0.015625)"/>
       <path id="DejaVuSans-76" d="M 191 3500 
L 800 3500 
L 1894 563 
L 2988 3500 
L 3597 3500 
L 2284 0 
L 1503 0 
L 191 3500 
z
" transform="scale(0.015625)"/>
       <path id="DejaVuSans-61" d="M 2194 1759 
Q 1497 1759 1228 1600 
Q 959 1441 959 1056 
Q 959 750 1161 570 
Q 1363 391 1709 391 
Q 2188 391 2477 730 
Q 2766 1069 2766 1631 
L 2766 1759 
L 2194 1759 
z
M 3341 1997 
L 3341 0 
L 2766 0 
L 2766 531 
Q 2569 213 2275 61 
Q 1981 -91 1556 -91 
Q 1019 -91 701 211 
Q 384 513 384 1019 
Q 384 1609 779 1909 
Q 1175 2209 1959 2209 
L 2766 2209 
L 2766 2266 
Q 2766 2663 2505 2880 
Q 2244 3097 1772 3097 
Q 1472 3097 1187 3025 
Q 903 2953 641 2809 
L 641 3341 
Q 956 3463 1253 3523 
Q 1550 3584 1831 3584 
Q 2591 3584 2966 3190 
Q 3341 2797 3341 1997 
z
" transform="scale(0.015625)"/>
       <path id="DejaVuSans-73" d="M 2834 3397 
L 2834 2853 
Q 2591 2978 2328 3040 
Q 2066 3103 1784 3103 
Q 1356 3103 1142 2972 
Q 928 2841 928 2578 
Q 928 2378 1081 2264 
Q 1234 2150 1697 2047 
L 1894 2003 
Q 2506 1872 2764 1633 
Q 3022 1394 3022 966 
Q 3022 478 2636 193 
Q 2250 -91 1575 -91 
Q 1294 -91 989 -36 
Q 684 19 347 128 
L 347 722 
Q 666 556 975 473 
Q 1284 391 1588 391 
Q 1994 391 2212 530 
Q 2431 669 2431 922 
Q 2431 1156 2273 1281 
Q 2116 1406 1581 1522 
L 1381 1569 
Q 847 1681 609 1914 
Q 372 2147 372 2553 
Q 372 3047 722 3315 
Q 1072 3584 1716 3584 
Q 2034 3584 2315 3537 
Q 2597 3491 2834 3397 
z
" transform="scale(0.015625)"/>
       <path id="DejaVuSans-2f" d="M 1625 4666 
L 2156 4666 
L 531 -594 
L 0 -594 
L 1625 4666 
z
" transform="scale(0.015625)"/>
       <path id="DejaVuSans-64" d="M 2906 2969 
L 2906 4863 
L 3481 4863 
L 3481 0 
L 2906 0 
L 2906 525 
Q 2725 213 2448 61 
Q 2172 -91 1784 -91 
Q 1150 -91 751 415 
Q 353 922 353 1747 
Q 353 2572 751 3078 
Q 1150 3584 1784 3584 
Q 2172 3584 2448 3432 
Q 2725 3281 2906 2969 
z
M 947 1747 
Q 947 1113 1208 752 
Q 1469 391 1925 391 
Q 2381 391 2643 752 
Q 2906 1113 2906 1747 
Q 2906 2381 2643 2742 
Q 2381 3103 1925 3103 
Q 1469 3103 1208 2742 
Q 947 2381 947 1747 
z
" transform="scale(0.015625)"/>
       <path id="DejaVuSans-69" d="M 603 3500 
L 1178 3500 
L 1178 0 
L 603 0 
L 603 3500 
z
M 603 4863 
L 1178 4863 
L 1178 4134 
L 603 4134 
L 603 4863 
z
" transform="scale(0.015625)"/>
       <path id="DejaVuSans-6d" d="M 3328 2828 
Q 3544 3216 3844 3400 
Q 4144 3584 4550 3584 
Q 5097 3584 5394 3201 
Q 5691 2819 5691 2113 
L 5691 0 
L 5113 0 
L 5113 2094 
Q 5113 2597 4934 2840 
Q 4756 3084 4391 3084 
Q 3944 3084 3684 2787 
Q 3425 2491 3425 1978 
L 3425 0 
L 2847 0 
L 2847 2094 
Q 2847 2600 2669 2842 
Q 2491 3084 2119 3084 
Q 1678 3084 1418 2786 
Q 1159 2488 1159 1978 
L 1159 0 
L 581 0 
L 581 3500 
L 1159 3500 
L 1159 2956 
Q 1356 3278 1631 3431 
Q 1906 3584 2284 3584 
Q 2666 3584 2933 3390 
Q 3200 3197 3328 2828 
z
" transform="scale(0.015625)"/>
       <path id="DejaVuSans-6e" d="M 3513 2113 
L 3513 0 
L 2938 0 
L 2938 2094 
Q 2938 2591 2744 2837 
Q 2550 3084 2163 3084 
Q 1697 3084 1428 2787 
Q 1159 2491 1159 1978 
L 1159 0 
L 581 0 
L 581 3500 
L 1159 3500 
L 1159 2956 
Q 1366 3272 1645 3428 
Q 1925 3584 2291 3584 
Q 2894 3584 3203 3211 
Q 3513 2838 3513 2113 
z
" transform="scale(0.015625)"/>
       <path id="DejaVuSans-29" d="M 513 4856 
L 1013 4856 
Q 1481 4119 1714 3412 
Q 1947 2706 1947 2009 
Q 1947 1309 1714 600 
Q 1481 -109 1013 -844 
L 513 -844 
Q 928 -128 1133 580 
Q 1338 1288 1338 2009 
Q 1338 2731 1133 3434 
Q 928 4138 513 4856 
z
" transform="scale(0.015625)"/>
      </defs>
      <use xlink:href="#DejaVuSans-6c"/>
      <use xlink:href="#DejaVuSans-6f" x="27.783203"/>
      <use xlink:href="#DejaVuSans-67" x="88.964844"/>
      <use xlink:href="#DejaVuSans-31" x="152.441406"/>
      <use xlink:href="#DejaVuSans-30" x="216.064453"/>
      <use xlink:href="#DejaVuSans-28" x="279.6875"/>
      <use xlink:href="#DejaVuSans-23" x="318.701172"/>
      <use xlink:href="#DejaVuSans-20" x="402.490234"/>
      <use xlink:href="#DejaVuSans-66" x="434.277344"/>
      <use xlink:href="#DejaVuSans-2d" x="463.982422"/>
      <use xlink:href="#DejaVuSans-65" x="500.066406"/>
      <use xlink:href="#DejaVuSans-76" x="561.589844"/>
      <use xlink:href="#DejaVuSans-61" x="620.769531"/>
      <use xlink:href="#DejaVuSans-6c" x="682.048828"/>
      <use xlink:href="#DejaVuSans-73" x="709.832031"/>
      <use xlink:href="#DejaVuSans-20" x="761.931641"/>
      <use xlink:href="#DejaVuSans-2f" x="793.71875"/>
      <use xlink:href="#DejaVuSans-20" x="827.410156"/>
      <use xlink:href="#DejaVuSans-64" x="859.197266"/>
      <use xlink:href="#DejaVuSans-69" x="922.673828"/>
      <use xlink:href="#DejaVuSans-6d" x="950.457031"/>
      <use xlink:href="#DejaVuSans-65" x="1047.869141"/>
      <use xlink:href="#DejaVuSans-6e" x="1109.392578"/>
      <use xlink:href="#DejaVuSans-73" x="1172.771484"/>
      <use xlink:href="#DejaVuSans-69" x="1224.871094"/>
      <use xlink:href="#DejaVuSans-6f" x="1252.654297"/>
      <use xlink:href="#DejaVuSans-6e" x="1313.835938"/>
      <use xlink:href="#DejaVuSans-29" x="1377.214844"/>
     </g>
    </g>
   </g>
   <g id="matplotlib.axis_2">
    <g id="ytick_1">
     <g id="line2d_21">
      <path d="M 57.6 298.944 
L 360.8064 298.944 
" clip-path="url(#p0cab62825f)" style="fill: none; stroke: #b0b0b0; stroke-width: 0.8; stroke-linecap: square"/>
     </g>
     <g id="line2d_22">
      <defs>
       <path id="m4cbffdd29d" d="M 0 0 
L -3.5 0 
" style="stroke: #000000; stroke-width: 0.8"/>
      </defs>
      <g>
       <use xlink:href="#m4cbffdd29d" x="57.6" y="298.944" style="stroke: #000000; stroke-width: 0.8"/>
      </g>
     </g>
     <g id="text_6">
      <!-- 0.0 -->
      <g transform="translate(25.155 305.02275)scale(0.16 -0.16)">
       <defs>
        <path id="DejaVuSans-2e" d="M 684 794 
L 1344 794 
L 1344 0 
L 684 0 
L 684 794 
z
" transform="scale(0.015625)"/>
       </defs>
       <use xlink:href="#DejaVuSans-30"/>
       <use xlink:href="#DejaVuSans-2e" x="63.623047"/>
       <use xlink:href="#DejaVuSans-30" x="95.410156"/>
      </g>
     </g>
    </g>
    <g id="ytick_2">
     <g id="line2d_23">
      <path d="M 57.6 244.6848 
L 360.8064 244.6848 
" clip-path="url(#p0cab62825f)" style="fill: none; stroke: #b0b0b0; stroke-width: 0.8; stroke-linecap: square"/>
     </g>
     <g id="line2d_24">
      <g>
       <use xlink:href="#m4cbffdd29d" x="57.6" y="244.6848" style="stroke: #000000; stroke-width: 0.8"/>
      </g>
     </g>
     <g id="text_7">
      <!-- 0.2 -->
      <g transform="translate(25.155 250.76355)scale(0.16 -0.16)">
       <use xlink:href="#DejaVuSans-30"/>
       <use xlink:href="#DejaVuSans-2e" x="63.623047"/>
       <use xlink:href="#DejaVuSans-32" x="95.410156"/>
      </g>
     </g>
    </g>
    <g id="ytick_3">
     <g id="line2d_25">
      <path d="M 57.6 190.4256 
L 360.8064 190.4256 
" clip-path="url(#p0cab62825f)" style="fill: none; stroke: #b0b0b0; stroke-width: 0.8; stroke-linecap: square"/>
     </g>
     <g id="line2d_26">
      <g>
       <use xlink:href="#m4cbffdd29d" x="57.6" y="190.4256" style="stroke: #000000; stroke-width: 0.8"/>
      </g>
     </g>
     <g id="text_8">
      <!-- 0.4 -->
      <g transform="translate(25.155 196.50435)scale(0.16 -0.16)">
       <use xlink:href="#DejaVuSans-30"/>
       <use xlink:href="#DejaVuSans-2e" x="63.623047"/>
       <use xlink:href="#DejaVuSans-34" x="95.410156"/>
      </g>
     </g>
    </g>
    <g id="ytick_4">
     <g id="line2d_27">
      <path d="M 57.6 136.1664 
L 360.8064 136.1664 
" clip-path="url(#p0cab62825f)" style="fill: none; stroke: #b0b0b0; stroke-width: 0.8; stroke-linecap: square"/>
     </g>
     <g id="line2d_28">
      <g>
       <use xlink:href="#m4cbffdd29d" x="57.6" y="136.1664" style="stroke: #000000; stroke-width: 0.8"/>
      </g>
     </g>
     <g id="text_9">
      <!-- 0.6 -->
      <g transform="translate(25.155 142.24515)scale(0.16 -0.16)">
       <use xlink:href="#DejaVuSans-30"/>
       <use xlink:href="#DejaVuSans-2e" x="63.623047"/>
       <use xlink:href="#DejaVuSans-36" x="95.410156"/>
      </g>
     </g>
    </g>
    <g id="ytick_5">
     <g id="line2d_29">
      <path d="M 57.6 81.9072 
L 360.8064 81.9072 
" clip-path="url(#p0cab62825f)" style="fill: none; stroke: #b0b0b0; stroke-width: 0.8; stroke-linecap: square"/>
     </g>
     <g id="line2d_30">
      <g>
       <use xlink:href="#m4cbffdd29d" x="57.6" y="81.9072" style="stroke: #000000; stroke-width: 0.8"/>
      </g>
     </g>
     <g id="text_10">
      <!-- 0.8 -->
      <g transform="translate(25.155 87.98595)scale(0.16 -0.16)">
       <defs>
        <path id="DejaVuSans-38" d="M 2034 2216 
Q 1584 2216 1326 1975 
Q 1069 1734 1069 1313 
Q 1069 891 1326 650 
Q 1584 409 2034 409 
Q 2484 409 2743 651 
Q 3003 894 3003 1313 
Q 3003 1734 2745 1975 
Q 2488 2216 2034 2216 
z
M 1403 2484 
Q 997 2584 770 2862 
Q 544 3141 544 3541 
Q 544 4100 942 4425 
Q 1341 4750 2034 4750 
Q 2731 4750 3128 4425 
Q 3525 4100 3525 3541 
Q 3525 3141 3298 2862 
Q 3072 2584 2669 2484 
Q 3125 2378 3379 2068 
Q 3634 1759 3634 1313 
Q 3634 634 3220 271 
Q 2806 -91 2034 -91 
Q 1263 -91 848 271 
Q 434 634 434 1313 
Q 434 1759 690 2068 
Q 947 2378 1403 2484 
z
M 1172 3481 
Q 1172 3119 1398 2916 
Q 1625 2713 2034 2713 
Q 2441 2713 2670 2916 
Q 2900 3119 2900 3481 
Q 2900 3844 2670 4047 
Q 2441 4250 2034 4250 
Q 1625 4250 1398 4047 
Q 1172 3844 1172 3481 
z
" transform="scale(0.015625)"/>
       </defs>
       <use xlink:href="#DejaVuSans-30"/>
       <use xlink:href="#DejaVuSans-2e" x="63.623047"/>
       <use xlink:href="#DejaVuSans-38" x="95.410156"/>
      </g>
     </g>
    </g>
    <g id="ytick_6">
     <g id="line2d_31">
      <path d="M 57.6 27.648 
L 360.8064 27.648 
" clip-path="url(#p0cab62825f)" style="fill: none; stroke: #b0b0b0; stroke-width: 0.8; stroke-linecap: square"/>
     </g>
     <g id="line2d_32">
      <g>
       <use xlink:href="#m4cbffdd29d" x="57.6" y="27.648" style="stroke: #000000; stroke-width: 0.8"/>
      </g>
     </g>
     <g id="text_11">
      <!-- 1.0 -->
      <g transform="translate(25.155 33.72675)scale(0.16 -0.16)">
       <use xlink:href="#DejaVuSans-31"/>
       <use xlink:href="#DejaVuSans-2e" x="63.623047"/>
       <use xlink:href="#DejaVuSans-30" x="95.410156"/>
      </g>
     </g>
    </g>
    <g id="text_12">
     <!-- Fraction of function,target pairs -->
     <g transform="translate(17.619531 297.681)rotate(-90)scale(0.17 -0.17)">
      <defs>
       <path id="DejaVuSans-46" d="M 628 4666 
L 3309 4666 
L 3309 4134 
L 1259 4134 
L 1259 2759 
L 3109 2759 
L 3109 2228 
L 1259 2228 
L 1259 0 
L 628 0 
L 628 4666 
z
" transform="scale(0.015625)"/>
       <path id="DejaVuSans-72" d="M 2631 2963 
Q 2534 3019 2420 3045 
Q 2306 3072 2169 3072 
Q 1681 3072 1420 2755 
Q 1159 2438 1159 1844 
L 1159 0 
L 581 0 
L 581 3500 
L 1159 3500 
L 1159 2956 
Q 1341 3275 1631 3429 
Q 1922 3584 2338 3584 
Q 2397 3584 2469 3576 
Q 2541 3569 2628 3553 
L 2631 2963 
z
" transform="scale(0.015625)"/>
       <path id="DejaVuSans-63" d="M 3122 3366 
L 3122 2828 
Q 2878 2963 2633 3030 
Q 2388 3097 2138 3097 
Q 1578 3097 1268 2742 
Q 959 2388 959 1747 
Q 959 1106 1268 751 
Q 1578 397 2138 397 
Q 2388 397 2633 464 
Q 2878 531 3122 666 
L 3122 134 
Q 2881 22 2623 -34 
Q 2366 -91 2075 -91 
Q 1284 -91 818 406 
Q 353 903 353 1747 
Q 353 2603 823 3093 
Q 1294 3584 2113 3584 
Q 2378 3584 2631 3529 
Q 2884 3475 3122 3366 
z
" transform="scale(0.015625)"/>
       <path id="DejaVuSans-74" d="M 1172 4494 
L 1172 3500 
L 2356 3500 
L 2356 3053 
L 1172 3053 
L 1172 1153 
Q 1172 725 1289 603 
Q 1406 481 1766 481 
L 2356 481 
L 2356 0 
L 1766 0 
Q 1100 0 847 248 
Q 594 497 594 1153 
L 594 3053 
L 172 3053 
L 172 3500 
L 594 3500 
L 594 4494 
L 1172 4494 
z
" transform="scale(0.015625)"/>
       <path id="DejaVuSans-75" d="M 544 1381 
L 544 3500 
L 1119 3500 
L 1119 1403 
Q 1119 906 1312 657 
Q 1506 409 1894 409 
Q 2359 409 2629 706 
Q 2900 1003 2900 1516 
L 2900 3500 
L 3475 3500 
L 3475 0 
L 2900 0 
L 2900 538 
Q 2691 219 2414 64 
Q 2138 -91 1772 -91 
Q 1169 -91 856 284 
Q 544 659 544 1381 
z
M 1991 3584 
L 1991 3584 
z
" transform="scale(0.015625)"/>
       <path id="DejaVuSans-2c" d="M 750 794 
L 1409 794 
L 1409 256 
L 897 -744 
L 494 -744 
L 750 256 
L 750 794 
z
" transform="scale(0.015625)"/>
       <path id="DejaVuSans-70" d="M 1159 525 
L 1159 -1331 
L 581 -1331 
L 581 3500 
L 1159 3500 
L 1159 2969 
Q 1341 3281 1617 3432 
Q 1894 3584 2278 3584 
Q 2916 3584 3314 3078 
Q 3713 2572 3713 1747 
Q 3713 922 3314 415 
Q 2916 -91 2278 -91 
Q 1894 -91 1617 61 
Q 1341 213 1159 525 
z
M 3116 1747 
Q 3116 2381 2855 2742 
Q 2594 3103 2138 3103 
Q 1681 3103 1420 2742 
Q 1159 2381 1159 1747 
Q 1159 1113 1420 752 
Q 1681 391 2138 391 
Q 2594 391 2855 752 
Q 3116 1113 3116 1747 
z
" transform="scale(0.015625)"/>
      </defs>
      <use xlink:href="#DejaVuSans-46"/>
      <use xlink:href="#DejaVuSans-72" x="50.269531"/>
      <use xlink:href="#DejaVuSans-61" x="91.382812"/>
      <use xlink:href="#DejaVuSans-63" x="152.662109"/>
      <use xlink:href="#DejaVuSans-74" x="207.642578"/>
      <use xlink:href="#DejaVuSans-69" x="246.851562"/>
      <use xlink:href="#DejaVuSans-6f" x="274.634766"/>
      <use xlink:href="#DejaVuSans-6e" x="335.816406"/>
      <use xlink:href="#DejaVuSans-20" x="399.195312"/>
      <use xlink:href="#DejaVuSans-6f" x="430.982422"/>
      <use xlink:href="#DejaVuSans-66" x="492.164062"/>
      <use xlink:href="#DejaVuSans-20" x="527.369141"/>
      <use xlink:href="#DejaVuSans-66" x="559.15625"/>
      <use xlink:href="#DejaVuSans-75" x="594.361328"/>
      <use xlink:href="#DejaVuSans-6e" x="657.740234"/>
      <use xlink:href="#DejaVuSans-63" x="721.119141"/>
      <use xlink:href="#DejaVuSans-74" x="776.099609"/>
      <use xlink:href="#DejaVuSans-69" x="815.308594"/>
      <use xlink:href="#DejaVuSans-6f" x="843.091797"/>
      <use xlink:href="#DejaVuSans-6e" x="904.273438"/>
      <use xlink:href="#DejaVuSans-2c" x="967.652344"/>
      <use xlink:href="#DejaVuSans-74" x="999.439453"/>
      <use xlink:href="#DejaVuSans-61" x="1038.648438"/>
      <use xlink:href="#DejaVuSans-72" x="1099.927734"/>
      <use xlink:href="#DejaVuSans-67" x="1139.291016"/>
      <use xlink:href="#DejaVuSans-65" x="1202.767578"/>
      <use xlink:href="#DejaVuSans-74" x="1264.291016"/>
      <use xlink:href="#DejaVuSans-20" x="1303.5"/>
      <use xlink:href="#DejaVuSans-70" x="1335.287109"/>
      <use xlink:href="#DejaVuSans-61" x="1398.763672"/>
      <use xlink:href="#DejaVuSans-69" x="1460.042969"/>
      <use xlink:href="#DejaVuSans-72" x="1487.826172"/>
      <use xlink:href="#DejaVuSans-73" x="1528.939453"/>
     </g>
    </g>
   </g>
   <g id="line2d_33">
    <defs>
     <path id="m3e4d36a805" d="M 0 1.5 
C 0.397805 1.5 0.77937 1.341951 1.06066 1.06066 
C 1.341951 0.77937 1.5 0.397805 1.5 0 
C 1.5 -0.397805 1.341951 -0.77937 1.06066 -1.06066 
C 0.77937 -1.341951 0.397805 -1.5 0 -1.5 
C -0.397805 -1.5 -0.77937 -1.341951 -1.06066 -1.06066 
C -1.341951 -0.77937 -1.5 -0.397805 -1.5 0 
C -1.5 0.397805 -1.341951 0.77937 -1.06066 1.06066 
C -0.77937 1.341951 -0.397805 1.5 0 1.5 
z
" style="stroke: #f5deb3"/>
    </defs>
    <g>
     <use xlink:href="#m3e4d36a805" x="185.884824" y="27.648" style="fill: #f5deb3; stroke: #f5deb3"/>
     <use xlink:href="#m3e4d36a805" x="185.884824" y="27.648" style="fill: #f5deb3; stroke: #f5deb3"/>
    </g>
   </g>
   <g id="line2d_34">
    <defs>
     <path id="m434103aded" d="M 0 1.5 
C 0.397805 1.5 0.77937 1.341951 1.06066 1.06066 
C 1.341951 0.77937 1.5 0.397805 1.5 0 
C 1.5 -0.397805 1.341951 -0.77937 1.06066 -1.06066 
C 0.77937 -1.341951 0.397805 -1.5 0 -1.5 
C -0.397805 -1.5 -0.77937 -1.341951 -1.06066 -1.06066 
C -1.341951 -0.77937 -1.5 -0.397805 -1.5 0 
C -1.5 0.397805 -1.341951 0.77937 -1.06066 1.06066 
C -0.77937 1.341951 -0.397805 1.5 0 1.5 
z
" style="stroke: #000080"/>
    </defs>
    <g>
     <use xlink:href="#m434103aded" x="307.121411" y="27.648" style="fill: #000080; stroke: #000080"/>
     <use xlink:href="#m434103aded" x="307.121411" y="27.648" style="fill: #000080; stroke: #000080"/>
    </g>
   </g>
   <g id="line2d_35">
    <path d="M 44.560826 298.944 
L 44.560826 284.758588 
L 57.6 284.758588 
L 57.6 273.764894 
L 65.227428 273.764894 
L 65.227428 269.154635 
L 70.639174 269.154635 
L 70.639174 267.381459 
L 74.836851 267.381459 
L 74.836851 266.672188 
L 78.266603 266.672188 
L 78.266603 265.962918 
L 81.166416 265.962918 
L 81.166416 264.899012 
L 85.894031 264.899012 
L 85.894031 264.544376 
L 87.876026 264.544376 
L 87.876026 260.998024 
L 89.668958 260.998024 
L 89.668958 259.579482 
L 91.305777 259.579482 
L 91.305777 256.387765 
L 92.811505 256.387765 
L 92.811505 256.033129 
L 94.205591 256.033129 
L 94.205591 254.969224 
L 97.857967 254.969224 
L 97.857967 254.614588 
L 99.950294 254.614588 
L 99.950294 254.259953 
L 101.833019 254.259953 
L 101.833019 252.486776 
L 102.708132 252.486776 
L 102.708132 252.132141 
L 104.344952 252.132141 
L 104.344952 251.068235 
L 109.159456 251.068235 
L 109.159456 250.004329 
L 111.442442 250.004329 
L 111.442442 249.649694 
L 113.954374 249.649694 
L 113.954374 249.295059 
L 115.314838 249.295059 
L 115.314838 248.585788 
L 116.170056 248.585788 
L 116.170056 247.876518 
L 118.152051 247.876518 
L 118.152051 247.167247 
L 119.599808 247.167247 
L 119.599808 246.457976 
L 120.944062 246.457976 
L 120.944062 245.039435 
L 126.028642 245.039435 
L 126.028642 243.975529 
L 126.274549 243.975529 
L 126.274549 243.266259 
L 126.756923 243.266259 
L 126.756923 242.911624 
L 127.227236 242.911624 
L 127.227236 242.202353 
L 130.027253 242.202353 
L 130.027253 241.493082 
L 134.931919 241.493082 
L 134.931919 241.138447 
L 137.520791 241.138447 
L 137.520791 240.783812 
L 137.919637 240.783812 
L 137.919637 240.429176 
L 142.661862 240.429176 
L 142.661862 240.074541 
L 144.694906 240.074541 
L 144.694906 237.946729 
L 152.045009 237.946729 
L 152.045009 237.592094 
L 153.933646 237.592094 
L 153.933646 237.237459 
L 154.101358 237.237459 
L 154.101358 236.528188 
L 156.452597 236.528188 
L 156.452597 236.173553 
L 157.175281 236.173553 
L 157.175281 235.464282 
L 160.303279 235.464282 
L 160.303279 234.400376 
L 160.660094 234.400376 
L 160.660094 234.045741 
L 161.579783 234.045741 
L 161.579783 233.691106 
L 162.023298 233.691106 
L 162.05979 232.6272 
L 162.349204 232.6272 
L 162.349204 232.272565 
L 162.492258 232.272565 
L 162.527853 231.563294 
L 162.704821 231.563294 
L 162.704821 230.499388 
L 162.845206 230.499388 
L 162.845206 230.144753 
L 163.191653 230.144753 
L 163.191653 229.790118 
L 163.328465 229.790118 
L 163.328465 229.435482 
L 163.531835 229.435482 
L 163.632702 227.307671 
L 164.09639 227.307671 
L 164.09639 226.5984 
L 164.259262 226.5984 
L 164.259262 226.243765 
L 164.771172 226.243765 
L 164.865624 225.534494 
L 165.021997 225.534494 
L 165.021997 225.179859 
L 165.238758 225.179859 
L 165.238758 224.825224 
L 165.361509 224.825224 
L 165.361509 224.115953 
L 165.664928 224.115953 
L 165.725029 223.052047 
L 166.081656 223.052047 
L 166.140442 221.633506 
L 166.431649 221.633506 
L 166.431649 221.278871 
L 166.632844 221.278871 
L 166.632844 219.505694 
L 166.775248 219.505694 
L 166.860176 217.732518 
L 166.944723 217.732518 
L 166.972821 216.668612 
L 167.084795 216.668612 
L 167.112684 215.604706 
L 167.196106 215.604706 
L 167.196106 214.895435 
L 167.38933 214.895435 
L 167.471536 214.186165 
L 167.769923 214.186165 
L 167.769923 213.831529 
L 168.195663 213.831529 
L 168.195663 213.476894 
L 168.586228 213.476894 
L 168.663377 212.767624 
L 169.540824 212.767624 
L 169.540824 212.412988 
L 169.784185 212.412988 
L 169.784185 212.058353 
L 170.00055 212.058353 
L 170.00055 211.349082 
L 170.542436 211.349082 
L 170.542436 210.994447 
L 170.681267 210.994447 
L 170.681267 210.285176 
L 171.136775 210.285176 
L 171.226568 209.221271 
L 171.493403 209.221271 
L 171.603476 207.093459 
L 171.647326 207.093459 
L 171.647326 206.384188 
L 172.058879 206.384188 
L 172.058879 206.029553 
L 172.62865 206.029553 
L 172.62865 205.674918 
L 173.422332 205.674918 
L 173.422332 205.320282 
L 174.581522 205.320282 
L 174.581522 204.965647 
L 175.189886 204.965647 
L 175.189886 204.611012 
L 175.477915 204.611012 
L 175.477915 204.256376 
L 176.162047 204.256376 
L 176.162047 203.547106 
L 176.282249 203.547106 
L 176.384671 202.4832 
L 176.604692 202.4832 
L 176.604692 202.128565 
L 177.03716 202.128565 
L 177.086427 201.064659 
L 177.492039 201.064659 
L 177.492039 200.710024 
L 177.904798 200.710024 
L 177.998778 199.291482 
L 178.09229 199.291482 
L 178.09229 198.936847 
L 178.476998 198.936847 
L 178.507438 198.227576 
L 178.91362 198.227576 
L 178.973057 197.163671 
L 179.208941 197.163671 
L 179.267453 196.099765 
L 179.983897 196.099765 
L 179.983897 195.035859 
L 180.276853 195.035859 
L 180.276853 194.681224 
L 180.835991 194.681224 
L 180.876258 192.908047 
L 182.083622 192.908047 
L 182.083622 192.553412 
L 183.051672 192.553412 
L 183.051672 191.844141 
L 183.800956 191.844141 
L 183.823897 190.780235 
L 184.576684 190.780235 
L 184.576684 190.070965 
L 187.695494 190.070965 
L 187.695494 189.007059 
L 188.561698 189.007059 
L 188.561698 188.652424 
L 188.809572 188.652424 
L 188.809572 188.297788 
L 189.010767 188.297788 
L 189.010767 187.943153 
L 189.132188 187.943153 
L 189.132188 187.588518 
L 189.584883 187.588518 
L 189.584883 187.233882 
L 191.301706 187.233882 
L 191.301706 186.879247 
L 194.168477 186.879247 
L 194.168477 186.169976 
L 194.72889 186.169976 
L 194.831336 183.687529 
L 195.248124 183.687529 
L 195.248124 183.332894 
L 198.60278 183.332894 
L 198.60278 182.978259 
L 204.555347 182.978259 
L 204.555347 182.623624 
L 204.962181 182.623624 
L 204.962181 182.268988 
L 206.258056 182.268988 
L 206.258056 181.559718 
L 218.944355 181.559718 
L 218.944355 180.850447 
L 219.975336 180.850447 
L 219.975336 180.495812 
L 221.613134 180.495812 
L 221.654608 179.077271 
L 226.346557 179.077271 
L 226.346557 178.368 
L 226.947834 178.368 
L 226.947834 178.013365 
L 228.8118 178.013365 
L 228.8118 176.949459 
L 230.784459 176.949459 
L 230.784459 175.885553 
L 231.170508 175.885553 
L 231.170508 175.530918 
L 231.403144 175.530918 
L 231.456073 173.048471 
L 231.562392 173.048471 
L 231.639257 172.3392 
L 231.696025 172.3392 
L 231.776827 169.856753 
L 233.206458 169.856753 
L 233.229693 168.083576 
L 238.770777 168.083576 
L 238.770777 167.019671 
L 239.767438 167.019671 
L 239.767438 166.665035 
L 240.109364 166.665035 
L 240.131212 165.955765 
L 240.306795 165.955765 
L 240.306795 165.601129 
L 240.815057 165.601129 
L 240.815057 165.246494 
L 242.587829 165.246494 
L 242.590855 164.537224 
L 243.499284 164.537224 
L 243.499284 164.182588 
L 244.111818 164.182588 
L 244.111818 163.827953 
L 244.473364 163.827953 
L 244.484309 162.764047 
L 244.63235 162.764047 
L 244.657212 161.700141 
L 244.914736 161.700141 
L 244.975239 160.2816 
L 245.035991 160.2816 
L 245.113309 158.153788 
L 245.202164 158.153788 
L 245.202164 157.799153 
L 245.434187 157.799153 
L 245.539654 155.671341 
L 245.835164 155.671341 
L 245.835164 155.316706 
L 246.087627 155.316706 
L 246.087627 154.962071 
L 246.27094 154.962071 
L 246.364819 152.834259 
L 246.498827 152.834259 
L 246.498827 152.124988 
L 248.228873 152.124988 
L 248.228873 151.770353 
L 248.579401 151.770353 
L 248.673777 149.997176 
L 248.714964 149.997176 
L 248.72843 149.287906 
L 248.932156 149.287906 
L 248.998621 147.514729 
L 249.34649 147.514729 
L 249.449714 145.741553 
L 249.508096 145.741553 
L 249.5962 145.032282 
L 249.627095 145.032282 
L 249.627095 144.677647 
L 249.771868 144.677647 
L 249.771868 144.323012 
L 250.113964 144.323012 
L 250.206683 142.904471 
L 250.234914 142.904471 
L 250.278855 140.422024 
L 250.364764 140.422024 
L 250.462231 136.521035 
L 250.496043 136.521035 
L 250.496043 136.1664 
L 250.64055 136.1664 
L 250.706168 134.038588 
L 250.837046 134.038588 
L 250.904251 130.846871 
L 250.978321 130.846871 
L 251.087437 129.782965 
L 251.227488 129.782965 
L 251.292046 128.009788 
L 251.485657 128.009788 
L 251.575936 125.172706 
L 251.61717 125.172706 
L 251.68476 124.1088 
L 251.775019 124.1088 
L 251.784609 122.690259 
L 252.442534 122.690259 
L 252.442534 122.335624 
L 252.828568 122.335624 
L 252.828568 121.980988 
L 252.950177 121.980988 
L 252.991989 121.271718 
L 253.133864 121.271718 
L 253.20225 119.143906 
L 253.860325 119.143906 
L 253.860325 118.789271 
L 254.139358 118.789271 
L 254.139358 118.434635 
L 254.263653 118.434635 
L 254.263653 118.08 
L 254.615728 118.08 
L 254.619186 117.016094 
L 258.641869 117.016094 
L 258.65325 114.888282 
L 258.7686 114.888282 
L 258.7686 114.533647 
L 258.884944 114.533647 
L 258.956054 113.469741 
L 259.017634 113.469741 
L 259.085938 111.696565 
L 259.166532 111.696565 
L 259.20326 110.632659 
L 267.876547 110.632659 
L 267.964819 108.859482 
L 268.064657 108.859482 
L 268.148814 107.086306 
L 268.231306 107.086306 
L 268.327947 103.539953 
L 268.393677 103.539953 
L 268.393677 103.185318 
L 268.565435 103.185318 
L 268.650792 102.476047 
L 268.780299 102.476047 
L 268.86918 101.057506 
L 268.965709 101.057506 
L 269.070631 99.9936 
L 269.137632 99.9936 
L 269.137632 99.638965 
L 269.461858 99.638965 
L 269.557565 98.575059 
L 269.604996 98.575059 
L 269.626691 97.156518 
L 269.717035 97.156518 
L 269.739077 94.319435 
L 271.98033 94.319435 
L 272.081427 90.773082 
L 272.106327 90.773082 
L 272.194946 87.936 
L 273.394157 87.936 
L 273.403371 86.872094 
L 274.233382 86.872094 
L 274.335969 78.006212 
L 274.364671 78.006212 
L 274.45719 75.8784 
L 274.511597 75.8784 
L 274.511597 75.523765 
L 275.292792 75.523765 
L 275.292792 75.169129 
L 275.600489 75.169129 
L 275.600489 74.814494 
L 275.962005 74.814494 
L 276.046413 73.395953 
L 276.842235 73.395953 
L 276.842235 72.686682 
L 276.977009 72.686682 
L 277.027756 71.622776 
L 277.702616 71.622776 
L 277.807905 70.558871 
L 277.885057 70.558871 
L 277.88915 69.8496 
L 278.039645 69.8496 
L 278.064598 68.431059 
L 278.490322 68.431059 
L 278.490322 67.721788 
L 278.630165 67.721788 
L 278.683089 66.657882 
L 278.83062 66.657882 
L 278.9105 62.047624 
L 278.967236 62.047624 
L 279.042691 59.919812 
L 279.101854 59.919812 
L 279.171147 57.792 
L 279.494563 57.792 
L 279.511428 56.373459 
L 279.747225 56.373459 
L 279.747225 56.018824 
L 281.007984 56.018824 
L 281.104222 54.245647 
L 281.124256 54.245647 
L 281.16932 52.827106 
L 284.501036 52.827106 
L 284.545316 50.699294 
L 284.748282 50.699294 
L 284.748282 50.344659 
L 284.864169 50.344659 
L 284.864169 49.990024 
L 285.06817 49.990024 
L 285.127224 47.507576 
L 286.154283 47.507576 
L 286.250714 45.379765 
L 286.828315 45.379765 
L 286.828315 45.025129 
L 287.309747 45.025129 
L 287.352467 43.961224 
L 287.451091 43.961224 
L 287.451091 43.606588 
L 287.707877 43.606588 
L 287.735253 42.188047 
L 288.04032 42.188047 
L 288.04032 41.833412 
L 288.159177 41.833412 
L 288.251579 40.769506 
L 289.061985 40.769506 
L 289.16309 39.7056 
L 289.707268 39.7056 
L 289.813781 38.641694 
L 289.843905 38.641694 
L 289.85061 37.932424 
L 291.008297 37.932424 
L 291.008297 36.868518 
L 292.96791 36.868518 
L 293.039923 35.804612 
L 293.087791 35.804612 
L 293.105439 35.095341 
L 293.473423 35.095341 
L 293.476693 34.031435 
L 294.152473 34.031435 
L 294.205154 32.612894 
L 294.934242 32.612894 
L 294.934242 32.258259 
L 295.487596 32.258259 
L 295.54069 31.548988 
L 296.522698 31.548988 
L 296.631744 30.485082 
L 297.445933 30.485082 
L 297.478066 29.775812 
L 298.947901 29.775812 
L 298.947901 29.421176 
L 300.274537 29.421176 
L 300.274537 29.066541 
L 302.232727 29.066541 
L 302.232727 28.711906 
L 305.236672 28.711906 
L 305.236672 28.357271 
L 306.067138 28.357271 
L 306.067138 28.002635 
L 307.121411 28.002635 
L 307.121411 27.648 
L 360.8064 27.648 
L 360.8064 27.648 
" style="fill: none; stroke: #000080; stroke-width: 1.5; stroke-linecap: square"/>
   </g>
   <g id="line2d_36">
    <defs>
     <path id="mf5413efa02" d="M 0 6 
C 1.591219 6 3.117479 5.367802 4.242641 4.242641 
C 5.367802 3.117479 6 1.591219 6 0 
C 6 -1.591219 5.367802 -3.117479 4.242641 -4.242641 
C 3.117479 -5.367802 1.591219 -6 0 -6 
C -1.591219 -6 -3.117479 -5.367802 -4.242641 -4.242641 
C -5.367802 -3.117479 -6 -1.591219 -6 0 
C -6 1.591219 -5.367802 3.117479 -4.242641 4.242641 
C -3.117479 5.367802 -1.591219 6 0 6 
z
" style="stroke: #000080; stroke-width: 1.5"/>
    </defs>
    <g>
     <use xlink:href="#mf5413efa02" x="126.028642" y="243.975529" style="fill-opacity: 0; stroke: #000080; stroke-width: 1.5"/>
     <use xlink:href="#mf5413efa02" x="198.60278" y="183.332894" style="fill-opacity: 0; stroke: #000080; stroke-width: 1.5"/>
     <use xlink:href="#mf5413efa02" x="268.780299" y="101.766776" style="fill-opacity: 0; stroke: #000080; stroke-width: 1.5"/>
     <use xlink:href="#mf5413efa02" x="307.121411" y="28.002635" style="fill-opacity: 0; stroke: #000080; stroke-width: 1.5"/>
     <use xlink:href="#mf5413efa02" x="307.121411" y="27.648" style="fill-opacity: 0; stroke: #000080; stroke-width: 1.5"/>
     <use xlink:href="#mf5413efa02" x="360.8064" y="27.648" style="fill-opacity: 0; stroke: #000080; stroke-width: 1.5"/>
    </g>
   </g>
   <g id="line2d_37">
    <path style="fill: none; stroke: #000080; stroke-width: 1.5; stroke-linecap: square"/>
    <g/>
   </g>
   <g id="line2d_38">
    <path d="M 274.176 86.872094 
" clip-path="url(#p0cab62825f)" style="fill: none; stroke: #000080; stroke-width: 1.5; stroke-linecap: square"/>
    <defs>
     <path id="mc0b13246a2" d="M -12 12 
L 12 -12 
M -12 -12 
L 12 12 
" style="stroke: #000080"/>
    </defs>
    <g clip-path="url(#p0cab62825f)">
     <use xlink:href="#mc0b13246a2" x="274.176" y="86.872094" style="fill: #000080; stroke: #000080"/>
    </g>
   </g>
   <g id="line2d_39">
    <defs>
     <path id="m8ab559f7a0" d="M 0 1.5 
C 0.397805 1.5 0.77937 1.341951 1.06066 1.06066 
C 1.341951 0.77937 1.5 0.397805 1.5 0 
C 1.5 -0.397805 1.341951 -0.77937 1.06066 -1.06066 
C 0.77937 -1.341951 0.397805 -1.5 0 -1.5 
C -0.397805 -1.5 -0.77937 -1.341951 -1.06066 -1.06066 
C -1.341951 -0.77937 -1.5 -0.397805 -1.5 0 
C -1.5 0.397805 -1.341951 0.77937 -1.06066 1.06066 
C -0.77937 1.341951 -0.397805 1.5 0 1.5 
z
" style="stroke: #ff00ff"/>
    </defs>
    <g>
     <use xlink:href="#m8ab559f7a0" x="237.910717" y="27.648" style="fill: #ff00ff; stroke: #ff00ff"/>
     <use xlink:href="#m8ab559f7a0" x="237.910717" y="27.648" style="fill: #ff00ff; stroke: #ff00ff"/>
    </g>
   </g>
   <g id="line2d_40">
    <path d="M 44.560826 298.944 
L 44.560826 277.665882 
L 128.133992 277.665882 
L 128.133992 274.8288 
L 129.417095 274.8288 
L 129.417095 270.927812 
L 129.622688 270.927812 
L 129.622688 268.445365 
L 130.4233 268.445365 
L 130.4233 264.189741 
L 130.618241 264.189741 
L 130.618241 257.806306 
L 131.191226 257.806306 
L 131.191226 250.7136 
L 143.462475 250.7136 
L 143.560197 243.620894 
L 143.754133 243.620894 
L 143.754133 241.138447 
L 143.946089 241.138447 
L 143.946089 240.074541 
L 144.2304 240.074541 
L 144.2304 234.755012 
L 150.693856 234.755012 
L 150.693856 234.045741 
L 150.958812 234.045741 
L 150.958812 233.336471 
L 151.220087 233.336471 
L 151.220087 232.272565 
L 151.857828 232.272565 
L 151.857828 229.080847 
L 159.898714 229.080847 
L 159.898714 228.726212 
L 160.660094 228.726212 
L 160.660094 228.371576 
L 161.467251 228.371576 
L 161.467251 228.016941 
L 163.997986 228.016941 
L 163.997986 226.953035 
L 164.194282 226.953035 
L 164.194282 226.5984 
L 168.611979 226.5984 
L 168.611979 226.243765 
L 171.248949 226.243765 
L 171.248949 225.889129 
L 177.904798 225.889129 
L 177.904798 225.534494 
L 184.108322 225.534494 
L 184.108322 225.179859 
L 186.321495 225.179859 
L 186.321495 223.761318 
L 186.580694 223.761318 
L 186.580694 223.406682 
L 187.676822 223.406682 
L 187.676822 222.697412 
L 189.338532 222.697412 
L 189.338532 222.342776 
L 190.802117 222.342776 
L 190.802117 221.988141 
L 190.975352 221.988141 
L 190.975352 221.633506 
L 191.224515 221.633506 
L 191.224515 221.278871 
L 193.191033 221.278871 
L 193.191033 220.924235 
L 193.875165 220.924235 
L 193.875165 220.5696 
L 194.535287 220.5696 
L 194.535287 219.860329 
L 195.173028 219.860329 
L 195.185565 218.796424 
L 195.789856 218.796424 
L 195.789856 218.441788 
L 196.387098 218.441788 
L 196.387098 217.377882 
L 196.965961 217.377882 
L 197.051274 215.959341 
L 197.527541 215.959341 
L 197.527541 214.895435 
L 198.088959 214.895435 
L 198.088959 214.5408 
L 198.476949 214.5408 
L 198.476949 214.186165 
L 198.60278 214.186165 
L 198.60278 213.831529 
L 198.758893 213.831529 
L 198.758893 213.476894 
L 199.619868 213.476894 
L 199.679179 210.639812 
L 200.608274 210.639812 
L 200.608274 209.930541 
L 201.049281 209.930541 
L 201.049281 209.221271 
L 201.945238 209.221271 
L 201.945238 208.866635 
L 202.377707 208.866635 
L 202.377707 208.512 
L 202.518267 208.512 
L 202.518267 207.802729 
L 202.800456 207.802729 
L 202.800456 207.093459 
L 202.966931 207.093459 
L 202.966931 206.384188 
L 203.213914 206.384188 
L 203.213914 204.965647 
L 203.618479 204.965647 
L 203.618479 203.192471 
L 204.402407 203.192471 
L 204.402407 202.128565 
L 204.86504 202.128565 
L 204.86504 201.419294 
L 205.235943 201.419294 
L 205.235943 201.064659 
L 205.956504 201.064659 
L 205.956504 200.710024 
L 206.407039 200.710024 
L 206.407039 200.000753 
L 206.664101 200.000753 
L 206.664101 199.646118 
L 207.421402 199.646118 
L 207.421402 199.291482 
L 210.335691 199.291482 
L 210.335691 198.582212 
L 210.950079 198.582212 
L 210.950079 197.872941 
L 211.219205 197.872941 
L 211.219205 197.518306 
L 211.447613 197.518306 
L 211.447613 197.163671 
L 212.119201 197.163671 
L 212.119201 196.4544 
L 212.47498 196.4544 
L 212.509941 194.326588 
L 212.614436 194.326588 
L 212.713418 193.262682 
L 212.860922 193.262682 
L 212.946435 191.489506 
L 213.002418 191.489506 
L 213.002418 190.4256 
L 213.415875 190.4256 
L 213.444385 189.716329 
L 213.67561 189.716329 
L 213.748164 189.007059 
L 214.143433 189.007059 
L 214.209651 188.297788 
L 214.366273 188.297788 
L 214.366273 187.943153 
L 214.655635 187.943153 
L 214.655635 187.588518 
L 214.801978 187.588518 
L 214.813018 186.169976 
L 215.010643 186.169976 
L 215.036837 183.332894 
L 215.316141 183.332894 
L 215.316141 180.850447 
L 215.591359 180.850447 
L 215.597712 179.431906 
L 215.80197 179.431906 
L 215.893897 178.013365 
L 215.923052 178.013365 
L 215.945929 175.885553 
L 216.097043 175.885553 
L 216.097043 175.530918 
L 216.222392 175.530918 
L 216.298018 174.467012 
L 216.3347 174.467012 
L 216.426092 173.757741 
L 216.480715 173.757741 
L 216.504942 172.693835 
L 216.627611 172.693835 
L 216.705621 170.211388 
L 216.900232 170.211388 
L 216.900232 169.856753 
L 217.018396 169.856753 
L 217.018396 168.792847 
L 217.153372 168.792847 
L 217.153372 168.438212 
L 217.271898 168.438212 
L 217.347288 166.3104 
L 217.474185 166.3104 
L 217.543043 161.345506 
L 217.678112 161.345506 
L 217.787734 159.572329 
L 217.821626 159.572329 
L 217.921063 157.799153 
L 218.049738 157.799153 
L 218.083161 156.380612 
L 218.22547 156.380612 
L 218.234674 155.316706 
L 218.470587 155.316706 
L 218.581121 153.898165 
L 218.631641 153.898165 
L 218.739444 153.188894 
L 219.09439 153.188894 
L 219.09439 152.834259 
L 219.311139 152.834259 
L 219.416856 151.061082 
L 219.643608 151.061082 
L 219.643608 150.706447 
L 219.813588 150.706447 
L 219.813588 149.997176 
L 219.928303 149.997176 
L 219.982046 148.933271 
L 220.314502 148.933271 
L 220.314502 148.224 
L 220.641185 148.224 
L 220.696161 146.450824 
L 221.840878 146.450824 
L 221.895492 145.032282 
L 222.216911 145.032282 
L 222.248158 142.549835 
L 222.350463 142.549835 
L 222.438974 140.067388 
L 222.500685 140.067388 
L 222.524141 138.648847 
L 222.735386 138.648847 
L 222.791802 136.1664 
L 222.938554 136.1664 
L 223.044309 133.683953 
L 223.078481 133.683953 
L 223.078481 133.329318 
L 223.210314 133.329318 
L 223.242775 132.265412 
L 223.351046 132.265412 
L 223.360857 129.428329 
L 223.500472 129.428329 
L 223.503254 128.009788 
L 223.62939 128.009788 
L 223.718972 126.591247 
L 223.767033 126.591247 
L 223.855963 124.818071 
L 223.896867 124.818071 
L 223.991964 123.399529 
L 224.039333 123.399529 
L 224.131025 115.952188 
L 224.261051 115.952188 
L 224.355659 114.888282 
L 224.394165 114.888282 
L 224.485467 113.824376 
L 224.526343 113.824376 
L 224.573701 112.760471 
L 224.681129 112.760471 
L 224.750238 108.150212 
L 224.833355 108.150212 
L 224.833355 107.440941 
L 224.962493 107.440941 
L 225.049804 104.603859 
L 225.084359 104.603859 
L 225.099697 102.476047 
L 225.263791 102.476047 
L 225.323223 101.412141 
L 230.20716 101.412141 
L 230.20716 99.638965 
L 230.332367 99.638965 
L 230.428856 95.737976 
L 230.531555 95.737976 
L 230.569804 93.610165 
L 230.654628 93.610165 
L 230.743805 88.290635 
L 230.854215 88.290635 
L 230.964915 84.389647 
L 230.997626 84.389647 
L 230.997626 84.035012 
L 231.221327 84.035012 
L 231.226862 83.325741 
L 231.36747 83.325741 
L 231.464273 81.9072 
L 231.541539 81.9072 
L 231.555141 80.843294 
L 231.698724 80.843294 
L 231.758004 79.779388 
L 232.209886 79.779388 
L 232.264088 78.360847 
L 232.40498 78.360847 
L 232.435281 76.587671 
L 232.939706 76.587671 
L 233.023736 74.814494 
L 233.056405 74.814494 
L 233.154076 73.395953 
L 233.169057 73.395953 
L 233.228034 72.686682 
L 233.339666 72.686682 
L 233.369323 70.558871 
L 233.498934 70.558871 
L 233.580507 67.721788 
L 233.632529 67.721788 
L 233.723222 65.948612 
L 233.808656 65.948612 
L 233.8889 64.175435 
L 233.924099 64.175435 
L 234.034866 59.210541 
L 234.118899 59.210541 
L 234.206496 56.373459 
L 234.271731 56.373459 
L 234.35862 53.891012 
L 234.397629 53.891012 
L 234.50565 50.344659 
L 234.535847 50.344659 
L 234.613054 47.152941 
L 234.659996 47.152941 
L 234.749704 44.315859 
L 234.78333 44.315859 
L 234.868654 42.188047 
L 234.94451 42.188047 
L 235.039656 37.577788 
L 235.190446 37.577788 
L 235.190446 36.868518 
L 235.486242 36.868518 
L 235.486242 36.513882 
L 235.734679 36.513882 
L 235.807129 35.449976 
L 235.994918 35.449976 
L 236.049964 34.031435 
L 236.216263 34.031435 
L 236.216263 32.967529 
L 236.400733 32.967529 
L 236.488807 30.839718 
L 236.628459 30.839718 
L 236.628459 30.485082 
L 236.887629 30.485082 
L 236.887629 30.130447 
L 237.223257 30.130447 
L 237.223257 29.775812 
L 237.358912 29.775812 
L 237.425379 28.357271 
L 237.506813 28.357271 
L 237.506813 28.002635 
L 237.910717 28.002635 
L 237.910717 27.648 
L 360.8064 27.648 
L 360.8064 27.648 
" style="fill: none; stroke: #ff00ff; stroke-width: 1.5; stroke-linecap: square"/>
   </g>
   <g id="line2d_41">
    <defs>
     <path id="m6d08397a3f" d="M 0 8.485281 
L 5.091169 0 
L 0 -8.485281 
L -5.091169 0 
z
" style="stroke: #ff00ff; stroke-width: 1.5; stroke-linejoin: miter"/>
    </defs>
    <g>
     <use xlink:href="#m6d08397a3f" x="196.387098" y="218.441788" style="fill-opacity: 0; stroke: #ff00ff; stroke-width: 1.5; stroke-linejoin: miter"/>
     <use xlink:href="#m6d08397a3f" x="230.743805" y="88.290635" style="fill-opacity: 0; stroke: #ff00ff; stroke-width: 1.5; stroke-linejoin: miter"/>
     <use xlink:href="#m6d08397a3f" x="237.910717" y="27.648" style="fill-opacity: 0; stroke: #ff00ff; stroke-width: 1.5; stroke-linejoin: miter"/>
     <use xlink:href="#m6d08397a3f" x="237.910717" y="27.648" style="fill-opacity: 0; stroke: #ff00ff; stroke-width: 1.5; stroke-linejoin: miter"/>
     <use xlink:href="#m6d08397a3f" x="360.8064" y="27.648" style="fill-opacity: 0; stroke: #ff00ff; stroke-width: 1.5; stroke-linejoin: miter"/>
    </g>
   </g>
   <g id="line2d_42">
    <path style="fill: none; stroke: #ff00ff; stroke-width: 1.5; stroke-linecap: square"/>
    <g/>
   </g>
   <g id="line2d_43">
    <path d="M 360.8064 27.648 
L 380.514816 293.51808 
" style="fill: none; stroke: #000080; stroke-width: 1.5; stroke-linecap: square"/>
    <g>
     <use xlink:href="#mf5413efa02" x="360.8064" y="27.648" style="fill-opacity: 0; stroke: #000080; stroke-width: 1.5"/>
     <use xlink:href="#mf5413efa02" x="380.514816" y="293.51808" style="fill-opacity: 0; stroke: #000080; stroke-width: 1.5"/>
    </g>
   </g>
   <g id="line2d_44">
    <path d="M 360.8064 27.648 
L 380.514816 163.296 
" style="fill: none; stroke: #ff00ff; stroke-width: 1.5; stroke-linecap: square"/>
    <g>
     <use xlink:href="#m6d08397a3f" x="360.8064" y="27.648" style="fill-opacity: 0; stroke: #ff00ff; stroke-width: 1.5; stroke-linejoin: miter"/>
     <use xlink:href="#m6d08397a3f" x="380.514816" y="163.296" style="fill-opacity: 0; stroke: #ff00ff; stroke-width: 1.5; stroke-linejoin: miter"/>
    </g>
   </g>
   <g id="line2d_45">
    <path d="M 360.8064 298.944 
L 360.8064 27.648 
" style="fill: none; stroke: #000000; stroke-width: 1.5; stroke-linecap: square"/>
   </g>
   <g id="patch_3">
    <path d="M 57.6 298.944 
L 360.8064 298.944 
" style="fill: none; stroke: #000000; stroke-width: 0.8; stroke-linejoin: miter; stroke-linecap: square"/>
   </g>
   <g id="patch_4">
    <path d="M 57.6 27.648 
L 360.8064 27.648 
" style="fill: none; stroke: #000000; stroke-width: 0.8; stroke-linejoin: miter; stroke-linecap: square"/>
   </g>
   <g id="text_13">
    <!-- LCGA -->
    <g transform="translate(386.578944 297.381205)scale(0.14 -0.14)">
     <defs>
      <path id="DejaVuSans-4c" d="M 628 4666 
L 1259 4666 
L 1259 531 
L 3531 531 
L 3531 0 
L 628 0 
L 628 4666 
z
" transform="scale(0.015625)"/>
      <path id="DejaVuSans-43" d="M 4122 4306 
L 4122 3641 
Q 3803 3938 3442 4084 
Q 3081 4231 2675 4231 
Q 1875 4231 1450 3742 
Q 1025 3253 1025 2328 
Q 1025 1406 1450 917 
Q 1875 428 2675 428 
Q 3081 428 3442 575 
Q 3803 722 4122 1019 
L 4122 359 
Q 3791 134 3420 21 
Q 3050 -91 2638 -91 
Q 1578 -91 968 557 
Q 359 1206 359 2328 
Q 359 3453 968 4101 
Q 1578 4750 2638 4750 
Q 3056 4750 3426 4639 
Q 3797 4528 4122 4306 
z
" transform="scale(0.015625)"/>
      <path id="DejaVuSans-47" d="M 3809 666 
L 3809 1919 
L 2778 1919 
L 2778 2438 
L 4434 2438 
L 4434 434 
Q 4069 175 3628 42 
Q 3188 -91 2688 -91 
Q 1594 -91 976 548 
Q 359 1188 359 2328 
Q 359 3472 976 4111 
Q 1594 4750 2688 4750 
Q 3144 4750 3555 4637 
Q 3966 4525 4313 4306 
L 4313 3634 
Q 3963 3931 3569 4081 
Q 3175 4231 2741 4231 
Q 1884 4231 1454 3753 
Q 1025 3275 1025 2328 
Q 1025 1384 1454 906 
Q 1884 428 2741 428 
Q 3075 428 3337 486 
Q 3600 544 3809 666 
z
" transform="scale(0.015625)"/>
      <path id="DejaVuSans-41" d="M 2188 4044 
L 1331 1722 
L 3047 1722 
L 2188 4044 
z
M 1831 4666 
L 2547 4666 
L 4325 0 
L 3669 0 
L 3244 1197 
L 1141 1197 
L 716 0 
L 50 0 
L 1831 4666 
z
" transform="scale(0.015625)"/>
     </defs>
     <use xlink:href="#DejaVuSans-4c"/>
     <use xlink:href="#DejaVuSans-43" x="55.712891"/>
     <use xlink:href="#DejaVuSans-47" x="125.537109"/>
     <use xlink:href="#DejaVuSans-41" x="203.027344"/>
    </g>
   </g>
   <g id="text_14">
    <!-- EvoSpace- -->
    <g transform="translate(386.578944 167.159125)scale(0.14 -0.14)">
     <defs>
      <path id="DejaVuSans-45" d="M 628 4666 
L 3578 4666 
L 3578 4134 
L 1259 4134 
L 1259 2753 
L 3481 2753 
L 3481 2222 
L 1259 2222 
L 1259 531 
L 3634 531 
L 3634 0 
L 628 0 
L 628 4666 
z
" transform="scale(0.015625)"/>
      <path id="DejaVuSans-53" d="M 3425 4513 
L 3425 3897 
Q 3066 4069 2747 4153 
Q 2428 4238 2131 4238 
Q 1616 4238 1336 4038 
Q 1056 3838 1056 3469 
Q 1056 3159 1242 3001 
Q 1428 2844 1947 2747 
L 2328 2669 
Q 3034 2534 3370 2195 
Q 3706 1856 3706 1288 
Q 3706 609 3251 259 
Q 2797 -91 1919 -91 
Q 1588 -91 1214 -16 
Q 841 59 441 206 
L 441 856 
Q 825 641 1194 531 
Q 1563 422 1919 422 
Q 2459 422 2753 634 
Q 3047 847 3047 1241 
Q 3047 1584 2836 1778 
Q 2625 1972 2144 2069 
L 1759 2144 
Q 1053 2284 737 2584 
Q 422 2884 422 3419 
Q 422 4038 858 4394 
Q 1294 4750 2059 4750 
Q 2388 4750 2728 4690 
Q 3069 4631 3425 4513 
z
" transform="scale(0.015625)"/>
     </defs>
     <use xlink:href="#DejaVuSans-45"/>
     <use xlink:href="#DejaVuSans-76" x="63.183594"/>
     <use xlink:href="#DejaVuSans-6f" x="122.363281"/>
     <use xlink:href="#DejaVuSans-53" x="183.544922"/>
     <use xlink:href="#DejaVuSans-70" x="247.021484"/>
     <use xlink:href="#DejaVuSans-61" x="310.498047"/>
     <use xlink:href="#DejaVuSans-63" x="371.777344"/>
     <use xlink:href="#DejaVuSans-65" x="426.757812"/>
     <use xlink:href="#DejaVuSans-2d" x="488.28125"/>
    </g>
   </g>
   <g id="text_15">
    <!-- best 2009 -->
    <g transform="translate(386.578944 36.937045)scale(0.14 -0.14)">
     <defs>
      <path id="DejaVuSans-62" d="M 3116 1747 
Q 3116 2381 2855 2742 
Q 2594 3103 2138 3103 
Q 1681 3103 1420 2742 
Q 1159 2381 1159 1747 
Q 1159 1113 1420 752 
Q 1681 391 2138 391 
Q 2594 391 2855 752 
Q 3116 1113 3116 1747 
z
M 1159 2969 
Q 1341 3281 1617 3432 
Q 1894 3584 2278 3584 
Q 2916 3584 3314 3078 
Q 3713 2572 3713 1747 
Q 3713 922 3314 415 
Q 2916 -91 2278 -91 
Q 1894 -91 1617 61 
Q 1341 213 1159 525 
L 1159 0 
L 581 0 
L 581 4863 
L 1159 4863 
L 1159 2969 
z
" transform="scale(0.015625)"/>
      <path id="DejaVuSans-39" d="M 703 97 
L 703 672 
Q 941 559 1184 500 
Q 1428 441 1663 441 
Q 2288 441 2617 861 
Q 2947 1281 2994 2138 
Q 2813 1869 2534 1725 
Q 2256 1581 1919 1581 
Q 1219 1581 811 2004 
Q 403 2428 403 3163 
Q 403 3881 828 4315 
Q 1253 4750 1959 4750 
Q 2769 4750 3195 4129 
Q 3622 3509 3622 2328 
Q 3622 1225 3098 567 
Q 2575 -91 1691 -91 
Q 1453 -91 1209 -44 
Q 966 3 703 97 
z
M 1959 2075 
Q 2384 2075 2632 2365 
Q 2881 2656 2881 3163 
Q 2881 3666 2632 3958 
Q 2384 4250 1959 4250 
Q 1534 4250 1286 3958 
Q 1038 3666 1038 3163 
Q 1038 2656 1286 2365 
Q 1534 2075 1959 2075 
z
" transform="scale(0.015625)"/>
     </defs>
     <use xlink:href="#DejaVuSans-62"/>
     <use xlink:href="#DejaVuSans-65" x="63.476562"/>
     <use xlink:href="#DejaVuSans-73" x="125"/>
     <use xlink:href="#DejaVuSans-74" x="177.099609"/>
     <use xlink:href="#DejaVuSans-20" x="216.308594"/>
     <use xlink:href="#DejaVuSans-32" x="248.095703"/>
     <use xlink:href="#DejaVuSans-30" x="311.71875"/>
     <use xlink:href="#DejaVuSans-30" x="375.341797"/>
     <use xlink:href="#DejaVuSans-39" x="438.964844"/>
    </g>
   </g>
   <g id="text_16">
    <!-- bbob f17, 2-D -->
    <g transform="translate(60.632064 38.111366)scale(0.102 -0.102)">
     <defs>
      <path id="DejaVuSans-37" d="M 525 4666 
L 3525 4666 
L 3525 4397 
L 1831 0 
L 1172 0 
L 2766 4134 
L 525 4134 
L 525 4666 
z
" transform="scale(0.015625)"/>
      <path id="DejaVuSans-44" d="M 1259 4147 
L 1259 519 
L 2022 519 
Q 2988 519 3436 956 
Q 3884 1394 3884 2338 
Q 3884 3275 3436 3711 
Q 2988 4147 2022 4147 
L 1259 4147 
z
M 628 4666 
L 1925 4666 
Q 3281 4666 3915 4102 
Q 4550 3538 4550 2338 
Q 4550 1131 3912 565 
Q 3275 0 1925 0 
L 628 0 
L 628 4666 
z
" transform="scale(0.015625)"/>
     </defs>
     <use xlink:href="#DejaVuSans-62"/>
     <use xlink:href="#DejaVuSans-62" x="63.476562"/>
     <use xlink:href="#DejaVuSans-6f" x="126.953125"/>
     <use xlink:href="#DejaVuSans-62" x="188.134766"/>
     <use xlink:href="#DejaVuSans-20" x="251.611328"/>
     <use xlink:href="#DejaVuSans-66" x="283.398438"/>
     <use xlink:href="#DejaVuSans-31" x="318.603516"/>
     <use xlink:href="#DejaVuSans-37" x="382.226562"/>
     <use xlink:href="#DejaVuSans-2c" x="445.849609"/>
     <use xlink:href="#DejaVuSans-20" x="477.636719"/>
     <use xlink:href="#DejaVuSans-32" x="509.423828"/>
     <use xlink:href="#DejaVuSans-2d" x="573.046875"/>
     <use xlink:href="#DejaVuSans-44" x="609.130859"/>
    </g>
    <!-- 51 targets: 100..1e-08 -->
    <g transform="translate(60.632064 49.533135)scale(0.102 -0.102)">
     <defs>
      <path id="DejaVuSans-35" d="M 691 4666 
L 3169 4666 
L 3169 4134 
L 1269 4134 
L 1269 2991 
Q 1406 3038 1543 3061 
Q 1681 3084 1819 3084 
Q 2600 3084 3056 2656 
Q 3513 2228 3513 1497 
Q 3513 744 3044 326 
Q 2575 -91 1722 -91 
Q 1428 -91 1123 -41 
Q 819 9 494 109 
L 494 744 
Q 775 591 1075 516 
Q 1375 441 1709 441 
Q 2250 441 2565 725 
Q 2881 1009 2881 1497 
Q 2881 1984 2565 2268 
Q 2250 2553 1709 2553 
Q 1456 2553 1204 2497 
Q 953 2441 691 2322 
L 691 4666 
z
" transform="scale(0.015625)"/>
      <path id="DejaVuSans-3a" d="M 750 794 
L 1409 794 
L 1409 0 
L 750 0 
L 750 794 
z
M 750 3309 
L 1409 3309 
L 1409 2516 
L 750 2516 
L 750 3309 
z
" transform="scale(0.015625)"/>
     </defs>
     <use xlink:href="#DejaVuSans-35"/>
     <use xlink:href="#DejaVuSans-31" x="63.623047"/>
     <use xlink:href="#DejaVuSans-20" x="127.246094"/>
     <use xlink:href="#DejaVuSans-74" x="159.033203"/>
     <use xlink:href="#DejaVuSans-61" x="198.242188"/>
     <use xlink:href="#DejaVuSans-72" x="259.521484"/>
     <use xlink:href="#DejaVuSans-67" x="298.884766"/>
     <use xlink:href="#DejaVuSans-65" x="362.361328"/>
     <use xlink:href="#DejaVuSans-74" x="423.884766"/>
     <use xlink:href="#DejaVuSans-73" x="463.09375"/>
     <use xlink:href="#DejaVuSans-3a" x="515.193359"/>
     <use xlink:href="#DejaVuSans-20" x="548.884766"/>
     <use xlink:href="#DejaVuSans-31" x="580.671875"/>
     <use xlink:href="#DejaVuSans-30" x="644.294922"/>
     <use xlink:href="#DejaVuSans-30" x="707.917969"/>
     <use xlink:href="#DejaVuSans-2e" x="771.541016"/>
     <use xlink:href="#DejaVuSans-2e" x="803.328125"/>
     <use xlink:href="#DejaVuSans-31" x="835.115234"/>
     <use xlink:href="#DejaVuSans-65" x="898.738281"/>
     <use xlink:href="#DejaVuSans-2d" x="960.261719"/>
     <use xlink:href="#DejaVuSans-30" x="996.345703"/>
     <use xlink:href="#DejaVuSans-38" x="1059.96875"/>
    </g>
    <!-- 15 instances -->
    <g transform="translate(60.632064 60.954904)scale(0.102 -0.102)">
     <use xlink:href="#DejaVuSans-31"/>
     <use xlink:href="#DejaVuSans-35" x="63.623047"/>
     <use xlink:href="#DejaVuSans-20" x="127.246094"/>
     <use xlink:href="#DejaVuSans-69" x="159.033203"/>
     <use xlink:href="#DejaVuSans-6e" x="186.816406"/>
     <use xlink:href="#DejaVuSans-73" x="250.195312"/>
     <use xlink:href="#DejaVuSans-74" x="302.294922"/>
     <use xlink:href="#DejaVuSans-61" x="341.503906"/>
     <use xlink:href="#DejaVuSans-6e" x="402.783203"/>
     <use xlink:href="#DejaVuSans-63" x="466.162109"/>
     <use xlink:href="#DejaVuSans-65" x="521.142578"/>
     <use xlink:href="#DejaVuSans-73" x="582.666016"/>
    </g>
   </g>
   <g id="text_17">
    <!-- v2.6 -->
    <g style="fill: #808080" transform="translate(198.292262 294.151352)scale(0.1 -0.1)">
     <use xlink:href="#DejaVuSans-76"/>
     <use xlink:href="#DejaVuSans-32" x="59.179688"/>
     <use xlink:href="#DejaVuSans-2e" x="122.802734"/>
     <use xlink:href="#DejaVuSans-36" x="154.589844"/>
    </g>
   </g>
   <g id="text_18">
    <!-- 17 Schaffer F7, condition 10 -->
    <g transform="translate(67.895387 21.648)scale(0.2 -0.2)">
     <defs>
      <path id="DejaVuSans-68" d="M 3513 2113 
L 3513 0 
L 2938 0 
L 2938 2094 
Q 2938 2591 2744 2837 
Q 2550 3084 2163 3084 
Q 1697 3084 1428 2787 
Q 1159 2491 1159 1978 
L 1159 0 
L 581 0 
L 581 4863 
L 1159 4863 
L 1159 2956 
Q 1366 3272 1645 3428 
Q 1925 3584 2291 3584 
Q 2894 3584 3203 3211 
Q 3513 2838 3513 2113 
z
" transform="scale(0.015625)"/>
     </defs>
     <use xlink:href="#DejaVuSans-31"/>
     <use xlink:href="#DejaVuSans-37" x="63.623047"/>
     <use xlink:href="#DejaVuSans-20" x="127.246094"/>
     <use xlink:href="#DejaVuSans-53" x="159.033203"/>
     <use xlink:href="#DejaVuSans-63" x="222.509766"/>
     <use xlink:href="#DejaVuSans-68" x="277.490234"/>
     <use xlink:href="#DejaVuSans-61" x="340.869141"/>
     <use xlink:href="#DejaVuSans-66" x="402.148438"/>
     <use xlink:href="#DejaVuSans-66" x="437.353516"/>
     <use xlink:href="#DejaVuSans-65" x="472.558594"/>
     <use xlink:href="#DejaVuSans-72" x="534.082031"/>
     <use xlink:href="#DejaVuSans-20" x="575.195312"/>
     <use xlink:href="#DejaVuSans-46" x="606.982422"/>
     <use xlink:href="#DejaVuSans-37" x="664.501953"/>
     <use xlink:href="#DejaVuSans-2c" x="728.125"/>
     <use xlink:href="#DejaVuSans-20" x="759.912109"/>
     <use xlink:href="#DejaVuSans-63" x="791.699219"/>
     <use xlink:href="#DejaVuSans-6f" x="846.679688"/>
     <use xlink:href="#DejaVuSans-6e" x="907.861328"/>
     <use xlink:href="#DejaVuSans-64" x="971.240234"/>
     <use xlink:href="#DejaVuSans-69" x="1034.716797"/>
     <use xlink:href="#DejaVuSans-74" x="1062.5"/>
     <use xlink:href="#DejaVuSans-69" x="1101.708984"/>
     <use xlink:href="#DejaVuSans-6f" x="1129.492188"/>
     <use xlink:href="#DejaVuSans-6e" x="1190.673828"/>
     <use xlink:href="#DejaVuSans-20" x="1254.052734"/>
     <use xlink:href="#DejaVuSans-31" x="1285.839844"/>
     <use xlink:href="#DejaVuSans-30" x="1349.462891"/>
    </g>
   </g>
  </g>
 </g>
 <defs>
  <clipPath id="p0cab62825f">
   <rect x="57.6" y="27.648" width="303.2064" height="271.296"/>
  </clipPath>
 </defs>
</svg>
