<?xml version="1.0" encoding="utf-8" standalone="no"?>
<!DOCTYPE svg PUBLIC "-//W3C//DTD SVG 1.1//EN"
  "http://www.w3.org/Graphics/SVG/1.1/DTD/svg11.dtd">
<svg xmlns:xlink="http://www.w3.org/1999/xlink" width="460.8pt" height="345.6pt" viewBox="0 0 460.8 345.6" xmlns="http://www.w3.org/2000/svg" version="1.1">
 <metadata>
  <rdf:RDF xmlns:dc="http://purl.org/dc/elements/1.1/" xmlns:cc="http://creativecommons.org/ns#" xmlns:rdf="http://www.w3.org/1999/02/22-rdf-syntax-ns#">
   <cc:Work>
    <dc:type rdf:resource="http://purl.org/dc/dcmitype/StillImage"/>
    <dc:date>2024-05-29T08:05:34.967448</dc:date>
    <dc:format>image/svg+xml</dc:format>
    <dc:creator>
     <cc:Agent>
      <dc:title>Matplotlib v3.5.1, https://matplotlib.org/</dc:title>
     </cc:Agent>
    </dc:creator>
   </cc:Work>
  </rdf:RDF>
 </metadata>
 <defs>
  <style type="text/css">*{stroke-linejoin: round; stroke-linecap: butt}</style>
 </defs>
 <g id="figure_1">
  <g id="patch_1">
   <path d="M 0 345.6 
L 460.8 345.6 
L 460.8 0 
L 0 0 
z
" style="fill: #ffffff"/>
  </g>
  <g id="axes_1">
   <g id="patch_2">
    <path d="M 57.6 298.944 
L 360.8064 298.944 
L 360.8064 27.648 
L 57.6 27.648 
z
" style="fill: #ffffff"/>
   </g>
   <g id="line2d_1">
    <path d="M 27.323974 298.944 
L 27.323974 282.985412 
L 57.6 282.985412 
L 57.6 277.665882 
L 66.441498 277.665882 
L 66.441498 272.346353 
L 72.432107 272.346353 
L 72.432107 267.026824 
L 74.068926 267.026824 
L 74.068926 27.648 
L 360.8064 27.648 
" style="fill: none; stroke: #f5deb3; stroke-width: 4; stroke-linecap: square"/>
   </g>
   <g id="line2d_2">
    <defs>
     <path id="m59f3dde854" d="M 0 7.778175 
L 7.778175 0 
L 0 -7.778175 
L -7.778175 0 
z
" style="stroke: #f5deb3; stroke-width: 1.5; stroke-linejoin: miter"/>
    </defs>
    <g>
     <use xlink:href="#m59f3dde854" x="72.432107" y="267.026824" style="fill: #f5deb3; stroke: #f5deb3; stroke-width: 1.5; stroke-linejoin: miter"/>
     <use xlink:href="#m59f3dde854" x="74.068926" y="267.026824" style="fill: #f5deb3; stroke: #f5deb3; stroke-width: 1.5; stroke-linejoin: miter"/>
     <use xlink:href="#m59f3dde854" x="74.068926" y="267.026824" style="fill: #f5deb3; stroke: #f5deb3; stroke-width: 1.5; stroke-linejoin: miter"/>
     <use xlink:href="#m59f3dde854" x="74.068926" y="27.648" style="fill: #f5deb3; stroke: #f5deb3; stroke-width: 1.5; stroke-linejoin: miter"/>
     <use xlink:href="#m59f3dde854" x="74.068926" y="27.648" style="fill: #f5deb3; stroke: #f5deb3; stroke-width: 1.5; stroke-linejoin: miter"/>
     <use xlink:href="#m59f3dde854" x="360.8064" y="27.648" style="fill: #f5deb3; stroke: #f5deb3; stroke-width: 1.5; stroke-linejoin: miter"/>
    </g>
   </g>
   <g id="line2d_3">
    <path style="fill: none; stroke: #f5deb3; stroke-width: 4; stroke-linecap: square"/>
    <g/>
   </g>
   <g id="line2d_4">
    <path d="M 360.8064 27.648 
L 380.514816 33.07392 
" style="fill: none; stroke: #f5deb3; stroke-width: 4; stroke-linecap: square"/>
    <g>
     <use xlink:href="#m59f3dde854" x="360.8064" y="27.648" style="fill: #f5deb3; stroke: #f5deb3; stroke-width: 1.5; stroke-linejoin: miter"/>
     <use xlink:href="#m59f3dde854" x="380.514816" y="33.07392" style="fill: #f5deb3; stroke: #f5deb3; stroke-width: 1.5; stroke-linejoin: miter"/>
    </g>
   </g>
   <g id="matplotlib.axis_1">
    <g id="xtick_1">
     <g id="line2d_5">
      <path d="M 57.6 298.944 
L 57.6 27.648 
" clip-path="url(#pfc2feac1c8)" style="fill: none; stroke: #b0b0b0; stroke-width: 0.8; stroke-linecap: square"/>
     </g>
     <g id="line2d_6">
      <defs>
       <path id="m6825028af8" d="M 0 0 
L 0 3.5 
" style="stroke: #000000; stroke-width: 0.8"/>
      </defs>
      <g>
       <use xlink:href="#m6825028af8" x="57.6" y="298.944" style="stroke: #000000; stroke-width: 0.8"/>
      </g>
     </g>
     <g id="text_1">
      <!-- 0 -->
      <g transform="translate(52.191875 318.861344)scale(0.17 -0.17)">
       <defs>
        <path id="DejaVuSans-30" d="M 2034 4250 
Q 1547 4250 1301 3770 
Q 1056 3291 1056 2328 
Q 1056 1369 1301 889 
Q 1547 409 2034 409 
Q 2525 409 2770 889 
Q 3016 1369 3016 2328 
Q 3016 3291 2770 3770 
Q 2525 4250 2034 4250 
z
M 2034 4750 
Q 2819 4750 3233 4129 
Q 3647 3509 3647 2328 
Q 3647 1150 3233 529 
Q 2819 -91 2034 -91 
Q 1250 -91 836 529 
Q 422 1150 422 2328 
Q 422 3509 836 4129 
Q 1250 4750 2034 4750 
z
" transform="scale(0.015625)"/>
       </defs>
       <use xlink:href="#DejaVuSans-30"/>
      </g>
     </g>
    </g>
    <g id="xtick_2">
     <g id="line2d_7">
      <path d="M 144.2304 298.944 
L 144.2304 27.648 
" clip-path="url(#pfc2feac1c8)" style="fill: none; stroke: #b0b0b0; stroke-width: 0.8; stroke-linecap: square"/>
     </g>
     <g id="line2d_8">
      <g>
       <use xlink:href="#m6825028af8" x="144.2304" y="298.944" style="stroke: #000000; stroke-width: 0.8"/>
      </g>
     </g>
     <g id="text_2">
      <!-- 2 -->
      <g transform="translate(138.822275 318.861344)scale(0.17 -0.17)">
       <defs>
        <path id="DejaVuSans-32" d="M 1228 531 
L 3431 531 
L 3431 0 
L 469 0 
L 469 531 
Q 828 903 1448 1529 
Q 2069 2156 2228 2338 
Q 2531 2678 2651 2914 
Q 2772 3150 2772 3378 
Q 2772 3750 2511 3984 
Q 2250 4219 1831 4219 
Q 1534 4219 1204 4116 
Q 875 4013 500 3803 
L 500 4441 
Q 881 4594 1212 4672 
Q 1544 4750 1819 4750 
Q 2544 4750 2975 4387 
Q 3406 4025 3406 3419 
Q 3406 3131 3298 2873 
Q 3191 2616 2906 2266 
Q 2828 2175 2409 1742 
Q 1991 1309 1228 531 
z
" transform="scale(0.015625)"/>
       </defs>
       <use xlink:href="#DejaVuSans-32"/>
      </g>
     </g>
    </g>
    <g id="xtick_3">
     <g id="line2d_9">
      <path d="M 230.8608 298.944 
L 230.8608 27.648 
" clip-path="url(#pfc2feac1c8)" style="fill: none; stroke: #b0b0b0; stroke-width: 0.8; stroke-linecap: square"/>
     </g>
     <g id="line2d_10">
      <g>
       <use xlink:href="#m6825028af8" x="230.8608" y="298.944" style="stroke: #000000; stroke-width: 0.8"/>
      </g>
     </g>
     <g id="text_3">
      <!-- 4 -->
      <g transform="translate(225.452675 318.861344)scale(0.17 -0.17)">
       <defs>
        <path id="DejaVuSans-34" d="M 2419 4116 
L 825 1625 
L 2419 1625 
L 2419 4116 
z
M 2253 4666 
L 3047 4666 
L 3047 1625 
L 3713 1625 
L 3713 1100 
L 3047 1100 
L 3047 0 
L 2419 0 
L 2419 1100 
L 313 1100 
L 313 1709 
L 2253 4666 
z
" transform="scale(0.015625)"/>
       </defs>
       <use xlink:href="#DejaVuSans-34"/>
      </g>
     </g>
    </g>
    <g id="xtick_4">
     <g id="line2d_11">
      <path d="M 317.4912 298.944 
L 317.4912 27.648 
" clip-path="url(#pfc2feac1c8)" style="fill: none; stroke: #b0b0b0; stroke-width: 0.8; stroke-linecap: square"/>
     </g>
     <g id="line2d_12">
      <g>
       <use xlink:href="#m6825028af8" x="317.4912" y="298.944" style="stroke: #000000; stroke-width: 0.8"/>
      </g>
     </g>
     <g id="text_4">
      <!-- 6 -->
      <g transform="translate(312.083075 318.861344)scale(0.17 -0.17)">
       <defs>
        <path id="DejaVuSans-36" d="M 2113 2584 
Q 1688 2584 1439 2293 
Q 1191 2003 1191 1497 
Q 1191 994 1439 701 
Q 1688 409 2113 409 
Q 2538 409 2786 701 
Q 3034 994 3034 1497 
Q 3034 2003 2786 2293 
Q 2538 2584 2113 2584 
z
M 3366 4563 
L 3366 3988 
Q 3128 4100 2886 4159 
Q 2644 4219 2406 4219 
Q 1781 4219 1451 3797 
Q 1122 3375 1075 2522 
Q 1259 2794 1537 2939 
Q 1816 3084 2150 3084 
Q 2853 3084 3261 2657 
Q 3669 2231 3669 1497 
Q 3669 778 3244 343 
Q 2819 -91 2113 -91 
Q 1303 -91 875 529 
Q 447 1150 447 2328 
Q 447 3434 972 4092 
Q 1497 4750 2381 4750 
Q 2619 4750 2861 4703 
Q 3103 4656 3366 4563 
z
" transform="scale(0.015625)"/>
       </defs>
       <use xlink:href="#DejaVuSans-36"/>
      </g>
     </g>
    </g>
    <g id="xtick_5">
     <g id="line2d_13">
      <path d="M 100.9152 298.944 
L 100.9152 27.648 
" clip-path="url(#pfc2feac1c8)" style="fill: none; stroke: #b0b0b0; stroke-width: 0.8; stroke-linecap: square"/>
     </g>
     <g id="line2d_14">
      <defs>
       <path id="mc0260c8953" d="M 0 0 
L 0 2 
" style="stroke: #000000; stroke-width: 0.6"/>
      </defs>
      <g>
       <use xlink:href="#mc0260c8953" x="100.9152" y="298.944" style="stroke: #000000; stroke-width: 0.6"/>
      </g>
     </g>
    </g>
    <g id="xtick_6">
     <g id="line2d_15">
      <path d="M 187.5456 298.944 
L 187.5456 27.648 
" clip-path="url(#pfc2feac1c8)" style="fill: none; stroke: #b0b0b0; stroke-width: 0.8; stroke-linecap: square"/>
     </g>
     <g id="line2d_16">
      <g>
       <use xlink:href="#mc0260c8953" x="187.5456" y="298.944" style="stroke: #000000; stroke-width: 0.6"/>
      </g>
     </g>
    </g>
    <g id="xtick_7">
     <g id="line2d_17">
      <path d="M 274.176 298.944 
L 274.176 27.648 
" clip-path="url(#pfc2feac1c8)" style="fill: none; stroke: #b0b0b0; stroke-width: 0.8; stroke-linecap: square"/>
     </g>
     <g id="line2d_18">
      <g>
       <use xlink:href="#mc0260c8953" x="274.176" y="298.944" style="stroke: #000000; stroke-width: 0.6"/>
      </g>
     </g>
    </g>
    <g id="xtick_8">
     <g id="line2d_19">
      <path d="M 360.8064 298.944 
L 360.8064 27.648 
" clip-path="url(#pfc2feac1c8)" style="fill: none; stroke: #b0b0b0; stroke-width: 0.8; stroke-linecap: square"/>
     </g>
     <g id="line2d_20">
      <g>
       <use xlink:href="#mc0260c8953" x="360.8064" y="298.944" style="stroke: #000000; stroke-width: 0.6"/>
      </g>
     </g>
    </g>
    <g id="text_5">
     <!-- log10(# f-evals / dimension) -->
     <g transform="translate(88.823278 339.314156)scale(0.17 -0.17)">
      <defs>
       <path id="DejaVuSans-6c" d="M 603 4863 
L 1178 4863 
L 1178 0 
L 603 0 
L 603 4863 
z
" transform="scale(0.015625)"/>
       <path id="DejaVuSans-6f" d="M 1959 3097 
Q 1497 3097 1228 2736 
Q 959 2375 959 1747 
Q 959 1119 1226 758 
Q 1494 397 1959 397 
Q 2419 397 2687 759 
Q 2956 1122 2956 1747 
Q 2956 2369 2687 2733 
Q 2419 3097 1959 3097 
z
M 1959 3584 
Q 2709 3584 3137 3096 
Q 3566 2609 3566 1747 
Q 3566 888 3137 398 
Q 2709 -91 1959 -91 
Q 1206 -91 779 398 
Q 353 888 353 1747 
Q 353 2609 779 3096 
Q 1206 3584 1959 3584 
z
" transform="scale(0.015625)"/>
       <path id="DejaVuSans-67" d="M 2906 1791 
Q 2906 2416 2648 2759 
Q 2391 3103 1925 3103 
Q 1463 3103 1205 2759 
Q 947 2416 947 1791 
Q 947 1169 1205 825 
Q 1463 481 1925 481 
Q 2391 481 2648 825 
Q 2906 1169 2906 1791 
z
M 3481 434 
Q 3481 -459 3084 -895 
Q 2688 -1331 1869 -1331 
Q 1566 -1331 1297 -1286 
Q 1028 -1241 775 -1147 
L 775 -588 
Q 1028 -725 1275 -790 
Q 1522 -856 1778 -856 
Q 2344 -856 2625 -561 
Q 2906 -266 2906 331 
L 2906 616 
Q 2728 306 2450 153 
Q 2172 0 1784 0 
Q 1141 0 747 490 
Q 353 981 353 1791 
Q 353 2603 747 3093 
Q 1141 3584 1784 3584 
Q 2172 3584 2450 3431 
Q 2728 3278 2906 2969 
L 2906 3500 
L 3481 3500 
L 3481 434 
z
" transform="scale(0.015625)"/>
       <path id="DejaVuSans-31" d="M 794 531 
L 1825 531 
L 1825 4091 
L 703 3866 
L 703 4441 
L 1819 4666 
L 2450 4666 
L 2450 531 
L 3481 531 
L 3481 0 
L 794 0 
L 794 531 
z
" transform="scale(0.015625)"/>
       <path id="DejaVuSans-28" d="M 1984 4856 
Q 1566 4138 1362 3434 
Q 1159 2731 1159 2009 
Q 1159 1288 1364 580 
Q 1569 -128 1984 -844 
L 1484 -844 
Q 1016 -109 783 600 
Q 550 1309 550 2009 
Q 550 2706 781 3412 
Q 1013 4119 1484 4856 
L 1984 4856 
z
" transform="scale(0.015625)"/>
       <path id="DejaVuSans-23" d="M 3272 2816 
L 2363 2816 
L 2100 1772 
L 3016 1772 
L 3272 2816 
z
M 2803 4594 
L 2478 3297 
L 3391 3297 
L 3719 4594 
L 4219 4594 
L 3897 3297 
L 4872 3297 
L 4872 2816 
L 3775 2816 
L 3519 1772 
L 4513 1772 
L 4513 1294 
L 3397 1294 
L 3072 0 
L 2572 0 
L 2894 1294 
L 1978 1294 
L 1656 0 
L 1153 0 
L 1478 1294 
L 494 1294 
L 494 1772 
L 1594 1772 
L 1856 2816 
L 850 2816 
L 850 3297 
L 1978 3297 
L 2297 4594 
L 2803 4594 
z
" transform="scale(0.015625)"/>
       <path id="DejaVuSans-20" transform="scale(0.015625)"/>
       <path id="DejaVuSans-66" d="M 2375 4863 
L 2375 4384 
L 1825 4384 
Q 1516 4384 1395 4259 
Q 1275 4134 1275 3809 
L 1275 3500 
L 2222 3500 
L 2222 3053 
L 1275 3053 
L 1275 0 
L 697 0 
L 697 3053 
L 147 3053 
L 147 3500 
L 697 3500 
L 697 3744 
Q 697 4328 969 4595 
Q 1241 4863 1831 4863 
L 2375 4863 
z
" transform="scale(0.015625)"/>
       <path id="DejaVuSans-2d" d="M 313 2009 
L 1997 2009 
L 1997 1497 
L 313 1497 
L 313 2009 
z
" transform="scale(0.015625)"/>
       <path id="DejaVuSans-65" d="M 3597 1894 
L 3597 1613 
L 953 1613 
Q 991 1019 1311 708 
Q 1631 397 2203 397 
Q 2534 397 2845 478 
Q 3156 559 3463 722 
L 3463 178 
Q 3153 47 2828 -22 
Q 2503 -91 2169 -91 
Q 1331 -91 842 396 
Q 353 884 353 1716 
Q 353 2575 817 3079 
Q 1281 3584 2069 3584 
Q 2775 3584 3186 3129 
Q 3597 2675 3597 1894 
z
M 3022 2063 
Q 3016 2534 2758 2815 
Q 2500 3097 2075 3097 
Q 1594 3097 1305 2825 
Q 1016 2553 972 2059 
L 3022 2063 
z
" transform="scale(0.015625)"/>
       <path id="DejaVuSans-76" d="M 191 3500 
L 800 3500 
L 1894 563 
L 2988 3500 
L 3597 3500 
L 2284 0 
L 1503 0 
L 191 3500 
z
" transform="scale(0.015625)"/>
       <path id="DejaVuSans-61" d="M 2194 1759 
Q 1497 1759 1228 1600 
Q 959 1441 959 1056 
Q 959 750 1161 570 
Q 1363 391 1709 391 
Q 2188 391 2477 730 
Q 2766 1069 2766 1631 
L 2766 1759 
L 2194 1759 
z
M 3341 1997 
L 3341 0 
L 2766 0 
L 2766 531 
Q 2569 213 2275 61 
Q 1981 -91 1556 -91 
Q 1019 -91 701 211 
Q 384 513 384 1019 
Q 384 1609 779 1909 
Q 1175 2209 1959 2209 
L 2766 2209 
L 2766 2266 
Q 2766 2663 2505 2880 
Q 2244 3097 1772 3097 
Q 1472 3097 1187 3025 
Q 903 2953 641 2809 
L 641 3341 
Q 956 3463 1253 3523 
Q 1550 3584 1831 3584 
Q 2591 3584 2966 3190 
Q 3341 2797 3341 1997 
z
" transform="scale(0.015625)"/>
       <path id="DejaVuSans-73" d="M 2834 3397 
L 2834 2853 
Q 2591 2978 2328 3040 
Q 2066 3103 1784 3103 
Q 1356 3103 1142 2972 
Q 928 2841 928 2578 
Q 928 2378 1081 2264 
Q 1234 2150 1697 2047 
L 1894 2003 
Q 2506 1872 2764 1633 
Q 3022 1394 3022 966 
Q 3022 478 2636 193 
Q 2250 -91 1575 -91 
Q 1294 -91 989 -36 
Q 684 19 347 128 
L 347 722 
Q 666 556 975 473 
Q 1284 391 1588 391 
Q 1994 391 2212 530 
Q 2431 669 2431 922 
Q 2431 1156 2273 1281 
Q 2116 1406 1581 1522 
L 1381 1569 
Q 847 1681 609 1914 
Q 372 2147 372 2553 
Q 372 3047 722 3315 
Q 1072 3584 1716 3584 
Q 2034 3584 2315 3537 
Q 2597 3491 2834 3397 
z
" transform="scale(0.015625)"/>
       <path id="DejaVuSans-2f" d="M 1625 4666 
L 2156 4666 
L 531 -594 
L 0 -594 
L 1625 4666 
z
" transform="scale(0.015625)"/>
       <path id="DejaVuSans-64" d="M 2906 2969 
L 2906 4863 
L 3481 4863 
L 3481 0 
L 2906 0 
L 2906 525 
Q 2725 213 2448 61 
Q 2172 -91 1784 -91 
Q 1150 -91 751 415 
Q 353 922 353 1747 
Q 353 2572 751 3078 
Q 1150 3584 1784 3584 
Q 2172 3584 2448 3432 
Q 2725 3281 2906 2969 
z
M 947 1747 
Q 947 1113 1208 752 
Q 1469 391 1925 391 
Q 2381 391 2643 752 
Q 2906 1113 2906 1747 
Q 2906 2381 2643 2742 
Q 2381 3103 1925 3103 
Q 1469 3103 1208 2742 
Q 947 2381 947 1747 
z
" transform="scale(0.015625)"/>
       <path id="DejaVuSans-69" d="M 603 3500 
L 1178 3500 
L 1178 0 
L 603 0 
L 603 3500 
z
M 603 4863 
L 1178 4863 
L 1178 4134 
L 603 4134 
L 603 4863 
z
" transform="scale(0.015625)"/>
       <path id="DejaVuSans-6d" d="M 3328 2828 
Q 3544 3216 3844 3400 
Q 4144 3584 4550 3584 
Q 5097 3584 5394 3201 
Q 5691 2819 5691 2113 
L 5691 0 
L 5113 0 
L 5113 2094 
Q 5113 2597 4934 2840 
Q 4756 3084 4391 3084 
Q 3944 3084 3684 2787 
Q 3425 2491 3425 1978 
L 3425 0 
L 2847 0 
L 2847 2094 
Q 2847 2600 2669 2842 
Q 2491 3084 2119 3084 
Q 1678 3084 1418 2786 
Q 1159 2488 1159 1978 
L 1159 0 
L 581 0 
L 581 3500 
L 1159 3500 
L 1159 2956 
Q 1356 3278 1631 3431 
Q 1906 3584 2284 3584 
Q 2666 3584 2933 3390 
Q 3200 3197 3328 2828 
z
" transform="scale(0.015625)"/>
       <path id="DejaVuSans-6e" d="M 3513 2113 
L 3513 0 
L 2938 0 
L 2938 2094 
Q 2938 2591 2744 2837 
Q 2550 3084 2163 3084 
Q 1697 3084 1428 2787 
Q 1159 2491 1159 1978 
L 1159 0 
L 581 0 
L 581 3500 
L 1159 3500 
L 1159 2956 
Q 1366 3272 1645 3428 
Q 1925 3584 2291 3584 
Q 2894 3584 3203 3211 
Q 3513 2838 3513 2113 
z
" transform="scale(0.015625)"/>
       <path id="DejaVuSans-29" d="M 513 4856 
L 1013 4856 
Q 1481 4119 1714 3412 
Q 1947 2706 1947 2009 
Q 1947 1309 1714 600 
Q 1481 -109 1013 -844 
L 513 -844 
Q 928 -128 1133 580 
Q 1338 1288 1338 2009 
Q 1338 2731 1133 3434 
Q 928 4138 513 4856 
z
" transform="scale(0.015625)"/>
      </defs>
      <use xlink:href="#DejaVuSans-6c"/>
      <use xlink:href="#DejaVuSans-6f" x="27.783203"/>
      <use xlink:href="#DejaVuSans-67" x="88.964844"/>
      <use xlink:href="#DejaVuSans-31" x="152.441406"/>
      <use xlink:href="#DejaVuSans-30" x="216.064453"/>
      <use xlink:href="#DejaVuSans-28" x="279.6875"/>
      <use xlink:href="#DejaVuSans-23" x="318.701172"/>
      <use xlink:href="#DejaVuSans-20" x="402.490234"/>
      <use xlink:href="#DejaVuSans-66" x="434.277344"/>
      <use xlink:href="#DejaVuSans-2d" x="463.982422"/>
      <use xlink:href="#DejaVuSans-65" x="500.066406"/>
      <use xlink:href="#DejaVuSans-76" x="561.589844"/>
      <use xlink:href="#DejaVuSans-61" x="620.769531"/>
      <use xlink:href="#DejaVuSans-6c" x="682.048828"/>
      <use xlink:href="#DejaVuSans-73" x="709.832031"/>
      <use xlink:href="#DejaVuSans-20" x="761.931641"/>
      <use xlink:href="#DejaVuSans-2f" x="793.71875"/>
      <use xlink:href="#DejaVuSans-20" x="827.410156"/>
      <use xlink:href="#DejaVuSans-64" x="859.197266"/>
      <use xlink:href="#DejaVuSans-69" x="922.673828"/>
      <use xlink:href="#DejaVuSans-6d" x="950.457031"/>
      <use xlink:href="#DejaVuSans-65" x="1047.869141"/>
      <use xlink:href="#DejaVuSans-6e" x="1109.392578"/>
      <use xlink:href="#DejaVuSans-73" x="1172.771484"/>
      <use xlink:href="#DejaVuSans-69" x="1224.871094"/>
      <use xlink:href="#DejaVuSans-6f" x="1252.654297"/>
      <use xlink:href="#DejaVuSans-6e" x="1313.835938"/>
      <use xlink:href="#DejaVuSans-29" x="1377.214844"/>
     </g>
    </g>
   </g>
   <g id="matplotlib.axis_2">
    <g id="ytick_1">
     <g id="line2d_21">
      <path d="M 57.6 298.944 
L 360.8064 298.944 
" clip-path="url(#pfc2feac1c8)" style="fill: none; stroke: #b0b0b0; stroke-width: 0.8; stroke-linecap: square"/>
     </g>
     <g id="line2d_22">
      <defs>
       <path id="m85736813dc" d="M 0 0 
L -3.5 0 
" style="stroke: #000000; stroke-width: 0.8"/>
      </defs>
      <g>
       <use xlink:href="#m85736813dc" x="57.6" y="298.944" style="stroke: #000000; stroke-width: 0.8"/>
      </g>
     </g>
     <g id="text_6">
      <!-- 0.0 -->
      <g transform="translate(25.155 305.02275)scale(0.16 -0.16)">
       <defs>
        <path id="DejaVuSans-2e" d="M 684 794 
L 1344 794 
L 1344 0 
L 684 0 
L 684 794 
z
" transform="scale(0.015625)"/>
       </defs>
       <use xlink:href="#DejaVuSans-30"/>
       <use xlink:href="#DejaVuSans-2e" x="63.623047"/>
       <use xlink:href="#DejaVuSans-30" x="95.410156"/>
      </g>
     </g>
    </g>
    <g id="ytick_2">
     <g id="line2d_23">
      <path d="M 57.6 244.6848 
L 360.8064 244.6848 
" clip-path="url(#pfc2feac1c8)" style="fill: none; stroke: #b0b0b0; stroke-width: 0.8; stroke-linecap: square"/>
     </g>
     <g id="line2d_24">
      <g>
       <use xlink:href="#m85736813dc" x="57.6" y="244.6848" style="stroke: #000000; stroke-width: 0.8"/>
      </g>
     </g>
     <g id="text_7">
      <!-- 0.2 -->
      <g transform="translate(25.155 250.76355)scale(0.16 -0.16)">
       <use xlink:href="#DejaVuSans-30"/>
       <use xlink:href="#DejaVuSans-2e" x="63.623047"/>
       <use xlink:href="#DejaVuSans-32" x="95.410156"/>
      </g>
     </g>
    </g>
    <g id="ytick_3">
     <g id="line2d_25">
      <path d="M 57.6 190.4256 
L 360.8064 190.4256 
" clip-path="url(#pfc2feac1c8)" style="fill: none; stroke: #b0b0b0; stroke-width: 0.8; stroke-linecap: square"/>
     </g>
     <g id="line2d_26">
      <g>
       <use xlink:href="#m85736813dc" x="57.6" y="190.4256" style="stroke: #000000; stroke-width: 0.8"/>
      </g>
     </g>
     <g id="text_8">
      <!-- 0.4 -->
      <g transform="translate(25.155 196.50435)scale(0.16 -0.16)">
       <use xlink:href="#DejaVuSans-30"/>
       <use xlink:href="#DejaVuSans-2e" x="63.623047"/>
       <use xlink:href="#DejaVuSans-34" x="95.410156"/>
      </g>
     </g>
    </g>
    <g id="ytick_4">
     <g id="line2d_27">
      <path d="M 57.6 136.1664 
L 360.8064 136.1664 
" clip-path="url(#pfc2feac1c8)" style="fill: none; stroke: #b0b0b0; stroke-width: 0.8; stroke-linecap: square"/>
     </g>
     <g id="line2d_28">
      <g>
       <use xlink:href="#m85736813dc" x="57.6" y="136.1664" style="stroke: #000000; stroke-width: 0.8"/>
      </g>
     </g>
     <g id="text_9">
      <!-- 0.6 -->
      <g transform="translate(25.155 142.24515)scale(0.16 -0.16)">
       <use xlink:href="#DejaVuSans-30"/>
       <use xlink:href="#DejaVuSans-2e" x="63.623047"/>
       <use xlink:href="#DejaVuSans-36" x="95.410156"/>
      </g>
     </g>
    </g>
    <g id="ytick_5">
     <g id="line2d_29">
      <path d="M 57.6 81.9072 
L 360.8064 81.9072 
" clip-path="url(#pfc2feac1c8)" style="fill: none; stroke: #b0b0b0; stroke-width: 0.8; stroke-linecap: square"/>
     </g>
     <g id="line2d_30">
      <g>
       <use xlink:href="#m85736813dc" x="57.6" y="81.9072" style="stroke: #000000; stroke-width: 0.8"/>
      </g>
     </g>
     <g id="text_10">
      <!-- 0.8 -->
      <g transform="translate(25.155 87.98595)scale(0.16 -0.16)">
       <defs>
        <path id="DejaVuSans-38" d="M 2034 2216 
Q 1584 2216 1326 1975 
Q 1069 1734 1069 1313 
Q 1069 891 1326 650 
Q 1584 409 2034 409 
Q 2484 409 2743 651 
Q 3003 894 3003 1313 
Q 3003 1734 2745 1975 
Q 2488 2216 2034 2216 
z
M 1403 2484 
Q 997 2584 770 2862 
Q 544 3141 544 3541 
Q 544 4100 942 4425 
Q 1341 4750 2034 4750 
Q 2731 4750 3128 4425 
Q 3525 4100 3525 3541 
Q 3525 3141 3298 2862 
Q 3072 2584 2669 2484 
Q 3125 2378 3379 2068 
Q 3634 1759 3634 1313 
Q 3634 634 3220 271 
Q 2806 -91 2034 -91 
Q 1263 -91 848 271 
Q 434 634 434 1313 
Q 434 1759 690 2068 
Q 947 2378 1403 2484 
z
M 1172 3481 
Q 1172 3119 1398 2916 
Q 1625 2713 2034 2713 
Q 2441 2713 2670 2916 
Q 2900 3119 2900 3481 
Q 2900 3844 2670 4047 
Q 2441 4250 2034 4250 
Q 1625 4250 1398 4047 
Q 1172 3844 1172 3481 
z
" transform="scale(0.015625)"/>
       </defs>
       <use xlink:href="#DejaVuSans-30"/>
       <use xlink:href="#DejaVuSans-2e" x="63.623047"/>
       <use xlink:href="#DejaVuSans-38" x="95.410156"/>
      </g>
     </g>
    </g>
    <g id="ytick_6">
     <g id="line2d_31">
      <path d="M 57.6 27.648 
L 360.8064 27.648 
" clip-path="url(#pfc2feac1c8)" style="fill: none; stroke: #b0b0b0; stroke-width: 0.8; stroke-linecap: square"/>
     </g>
     <g id="line2d_32">
      <g>
       <use xlink:href="#m85736813dc" x="57.6" y="27.648" style="stroke: #000000; stroke-width: 0.8"/>
      </g>
     </g>
     <g id="text_11">
      <!-- 1.0 -->
      <g transform="translate(25.155 33.72675)scale(0.16 -0.16)">
       <use xlink:href="#DejaVuSans-31"/>
       <use xlink:href="#DejaVuSans-2e" x="63.623047"/>
       <use xlink:href="#DejaVuSans-30" x="95.410156"/>
      </g>
     </g>
    </g>
    <g id="text_12">
     <!-- Fraction of function,target pairs -->
     <g transform="translate(17.619531 297.681)rotate(-90)scale(0.17 -0.17)">
      <defs>
       <path id="DejaVuSans-46" d="M 628 4666 
L 3309 4666 
L 3309 4134 
L 1259 4134 
L 1259 2759 
L 3109 2759 
L 3109 2228 
L 1259 2228 
L 1259 0 
L 628 0 
L 628 4666 
z
" transform="scale(0.015625)"/>
       <path id="DejaVuSans-72" d="M 2631 2963 
Q 2534 3019 2420 3045 
Q 2306 3072 2169 3072 
Q 1681 3072 1420 2755 
Q 1159 2438 1159 1844 
L 1159 0 
L 581 0 
L 581 3500 
L 1159 3500 
L 1159 2956 
Q 1341 3275 1631 3429 
Q 1922 3584 2338 3584 
Q 2397 3584 2469 3576 
Q 2541 3569 2628 3553 
L 2631 2963 
z
" transform="scale(0.015625)"/>
       <path id="DejaVuSans-63" d="M 3122 3366 
L 3122 2828 
Q 2878 2963 2633 3030 
Q 2388 3097 2138 3097 
Q 1578 3097 1268 2742 
Q 959 2388 959 1747 
Q 959 1106 1268 751 
Q 1578 397 2138 397 
Q 2388 397 2633 464 
Q 2878 531 3122 666 
L 3122 134 
Q 2881 22 2623 -34 
Q 2366 -91 2075 -91 
Q 1284 -91 818 406 
Q 353 903 353 1747 
Q 353 2603 823 3093 
Q 1294 3584 2113 3584 
Q 2378 3584 2631 3529 
Q 2884 3475 3122 3366 
z
" transform="scale(0.015625)"/>
       <path id="DejaVuSans-74" d="M 1172 4494 
L 1172 3500 
L 2356 3500 
L 2356 3053 
L 1172 3053 
L 1172 1153 
Q 1172 725 1289 603 
Q 1406 481 1766 481 
L 2356 481 
L 2356 0 
L 1766 0 
Q 1100 0 847 248 
Q 594 497 594 1153 
L 594 3053 
L 172 3053 
L 172 3500 
L 594 3500 
L 594 4494 
L 1172 4494 
z
" transform="scale(0.015625)"/>
       <path id="DejaVuSans-75" d="M 544 1381 
L 544 3500 
L 1119 3500 
L 1119 1403 
Q 1119 906 1312 657 
Q 1506 409 1894 409 
Q 2359 409 2629 706 
Q 2900 1003 2900 1516 
L 2900 3500 
L 3475 3500 
L 3475 0 
L 2900 0 
L 2900 538 
Q 2691 219 2414 64 
Q 2138 -91 1772 -91 
Q 1169 -91 856 284 
Q 544 659 544 1381 
z
M 1991 3584 
L 1991 3584 
z
" transform="scale(0.015625)"/>
       <path id="DejaVuSans-2c" d="M 750 794 
L 1409 794 
L 1409 256 
L 897 -744 
L 494 -744 
L 750 256 
L 750 794 
z
" transform="scale(0.015625)"/>
       <path id="DejaVuSans-70" d="M 1159 525 
L 1159 -1331 
L 581 -1331 
L 581 3500 
L 1159 3500 
L 1159 2969 
Q 1341 3281 1617 3432 
Q 1894 3584 2278 3584 
Q 2916 3584 3314 3078 
Q 3713 2572 3713 1747 
Q 3713 922 3314 415 
Q 2916 -91 2278 -91 
Q 1894 -91 1617 61 
Q 1341 213 1159 525 
z
M 3116 1747 
Q 3116 2381 2855 2742 
Q 2594 3103 2138 3103 
Q 1681 3103 1420 2742 
Q 1159 2381 1159 1747 
Q 1159 1113 1420 752 
Q 1681 391 2138 391 
Q 2594 391 2855 752 
Q 3116 1113 3116 1747 
z
" transform="scale(0.015625)"/>
      </defs>
      <use xlink:href="#DejaVuSans-46"/>
      <use xlink:href="#DejaVuSans-72" x="50.269531"/>
      <use xlink:href="#DejaVuSans-61" x="91.382812"/>
      <use xlink:href="#DejaVuSans-63" x="152.662109"/>
      <use xlink:href="#DejaVuSans-74" x="207.642578"/>
      <use xlink:href="#DejaVuSans-69" x="246.851562"/>
      <use xlink:href="#DejaVuSans-6f" x="274.634766"/>
      <use xlink:href="#DejaVuSans-6e" x="335.816406"/>
      <use xlink:href="#DejaVuSans-20" x="399.195312"/>
      <use xlink:href="#DejaVuSans-6f" x="430.982422"/>
      <use xlink:href="#DejaVuSans-66" x="492.164062"/>
      <use xlink:href="#DejaVuSans-20" x="527.369141"/>
      <use xlink:href="#DejaVuSans-66" x="559.15625"/>
      <use xlink:href="#DejaVuSans-75" x="594.361328"/>
      <use xlink:href="#DejaVuSans-6e" x="657.740234"/>
      <use xlink:href="#DejaVuSans-63" x="721.119141"/>
      <use xlink:href="#DejaVuSans-74" x="776.099609"/>
      <use xlink:href="#DejaVuSans-69" x="815.308594"/>
      <use xlink:href="#DejaVuSans-6f" x="843.091797"/>
      <use xlink:href="#DejaVuSans-6e" x="904.273438"/>
      <use xlink:href="#DejaVuSans-2c" x="967.652344"/>
      <use xlink:href="#DejaVuSans-74" x="999.439453"/>
      <use xlink:href="#DejaVuSans-61" x="1038.648438"/>
      <use xlink:href="#DejaVuSans-72" x="1099.927734"/>
      <use xlink:href="#DejaVuSans-67" x="1139.291016"/>
      <use xlink:href="#DejaVuSans-65" x="1202.767578"/>
      <use xlink:href="#DejaVuSans-74" x="1264.291016"/>
      <use xlink:href="#DejaVuSans-20" x="1303.5"/>
      <use xlink:href="#DejaVuSans-70" x="1335.287109"/>
      <use xlink:href="#DejaVuSans-61" x="1398.763672"/>
      <use xlink:href="#DejaVuSans-69" x="1460.042969"/>
      <use xlink:href="#DejaVuSans-72" x="1487.826172"/>
      <use xlink:href="#DejaVuSans-73" x="1528.939453"/>
     </g>
    </g>
   </g>
   <g id="line2d_33">
    <defs>
     <path id="mcf947d34dd" d="M 0 1.5 
C 0.397805 1.5 0.77937 1.341951 1.06066 1.06066 
C 1.341951 0.77937 1.5 0.397805 1.5 0 
C 1.5 -0.397805 1.341951 -0.77937 1.06066 -1.06066 
C 0.77937 -1.341951 0.397805 -1.5 0 -1.5 
C -0.397805 -1.5 -0.77937 -1.341951 -1.06066 -1.06066 
C -1.341951 -0.77937 -1.5 -0.397805 -1.5 0 
C -1.5 0.397805 -1.341951 0.77937 -1.06066 1.06066 
C -0.77937 1.341951 -0.397805 1.5 0 1.5 
z
" style="stroke: #f5deb3"/>
    </defs>
    <g>
     <use xlink:href="#mcf947d34dd" x="74.068926" y="27.648" style="fill: #f5deb3; stroke: #f5deb3"/>
     <use xlink:href="#mcf947d34dd" x="74.068926" y="27.648" style="fill: #f5deb3; stroke: #f5deb3"/>
    </g>
   </g>
   <g id="line2d_34">
    <defs>
     <path id="m5f8cfef2c6" d="M 0 1.5 
C 0.397805 1.5 0.77937 1.341951 1.06066 1.06066 
C 1.341951 0.77937 1.5 0.397805 1.5 0 
C 1.5 -0.397805 1.341951 -0.77937 1.06066 -1.06066 
C 0.77937 -1.341951 0.397805 -1.5 0 -1.5 
C -0.397805 -1.5 -0.77937 -1.341951 -1.06066 -1.06066 
C -1.341951 -0.77937 -1.5 -0.397805 -1.5 0 
C -1.5 0.397805 -1.341951 0.77937 -1.06066 1.06066 
C -0.77937 1.341951 -0.397805 1.5 0 1.5 
z
" style="stroke: #000080"/>
    </defs>
    <g>
     <use xlink:href="#m5f8cfef2c6" x="228.30151" y="27.648" style="fill: #000080; stroke: #000080"/>
     <use xlink:href="#m5f8cfef2c6" x="228.30151" y="27.648" style="fill: #000080; stroke: #000080"/>
    </g>
   </g>
   <g id="line2d_35">
    <path d="M 27.323974 298.944 
L 27.323974 290.787388 
L 40.363149 290.787388 
L 40.363149 286.531765 
L 47.990577 286.531765 
L 47.990577 284.758588 
L 53.402323 284.758588 
L 53.402323 282.630776 
L 57.6 282.630776 
L 57.6 280.148329 
L 61.029752 280.148329 
L 61.029752 279.439059 
L 63.929565 279.439059 
L 63.929565 276.956612 
L 66.441498 276.956612 
L 66.441498 276.601976 
L 68.65718 276.601976 
L 68.65718 276.247341 
L 70.639174 276.247341 
L 70.639174 275.892706 
L 75.574654 275.892706 
L 75.574654 275.183435 
L 76.96874 275.183435 
L 76.96874 274.8288 
L 78.266603 274.8288 
L 78.266603 274.474165 
L 83.678349 274.474165 
L 83.678349 274.119529 
L 89.323782 274.119529 
L 89.323782 273.764894 
L 93.66029 273.764894 
L 93.66029 273.055624 
L 98.077987 273.055624 
L 98.077987 271.991718 
L 98.933205 271.991718 
L 98.933205 271.282447 
L 100.147275 271.282447 
L 100.147275 270.927812 
L 100.9152 270.927812 
L 100.9152 269.509271 
L 103.707211 269.509271 
L 103.707211 269.154635 
L 106.974091 269.154635 
L 106.974091 268.8 
L 109.756698 268.8 
L 109.756698 268.445365 
L 111.117162 268.445365 
L 111.117162 267.736094 
L 111.334639 267.736094 
L 111.334639 266.672188 
L 112.589207 266.672188 
L 112.589207 265.962918 
L 114.510421 265.962918 
L 114.510421 265.608282 
L 114.692177 265.608282 
L 114.692177 265.253647 
L 116.583514 265.253647 
L 116.583514 264.899012 
L 117.226706 264.899012 
L 117.226706 264.544376 
L 117.848632 264.544376 
L 117.848632 264.189741 
L 118.000953 264.189741 
L 118.000953 263.480471 
L 118.450653 263.480471 
L 118.450653 263.125835 
L 119.319033 263.125835 
L 119.319033 261.707294 
L 120.41783 261.707294 
L 120.41783 261.352659 
L 121.954321 261.352659 
L 121.954321 260.643388 
L 124.046648 260.643388 
L 124.046648 259.934118 
L 130.4233 259.934118 
L 130.4233 259.579482 
L 131.266322 259.579482 
L 131.266322 259.224847 
L 132.216233 259.224847 
L 132.216233 258.515576 
L 133.72196 258.515576 
L 133.72196 258.160941 
L 138.154948 258.160941 
L 138.154948 257.806306 
L 138.566146 257.806306 
L 138.566146 256.387765 
L 140.58877 256.387765 
L 140.58877 254.969224 
L 144.342932 254.969224 
L 144.342932 254.614588 
L 144.454795 254.614588 
L 144.529002 253.550682 
L 144.822939 253.550682 
L 144.931992 251.422871 
L 144.968202 251.422871 
L 145.076419 249.649694 
L 145.148219 249.649694 
L 145.219746 247.521882 
L 145.503164 247.521882 
L 145.538293 246.457976 
L 145.678157 246.457976 
L 145.712961 244.6848 
L 145.851536 244.6848 
L 145.851536 243.266259 
L 146.023332 243.266259 
L 146.023332 240.429176 
L 146.193574 240.429176 
L 146.227438 239.719906 
L 146.395851 239.719906 
L 146.496179 238.301365 
L 146.562769 238.301365 
L 146.562769 237.946729 
L 147.248088 237.946729 
L 147.343984 236.173553 
L 147.565858 236.173553 
L 147.565858 235.818918 
L 148.03267 235.818918 
L 148.124658 234.755012 
L 148.216198 234.755012 
L 148.216198 234.400376 
L 148.785835 234.400376 
L 148.785835 234.045741 
L 148.932916 234.045741 
L 149.020615 232.981835 
L 149.078856 232.981835 
L 149.078856 232.6272 
L 149.252502 232.6272 
L 149.338728 231.917929 
L 149.367382 231.917929 
L 149.367382 231.208659 
L 149.481565 231.208659 
L 149.481565 230.854024 
L 149.623325 230.854024 
L 149.679732 229.435482 
L 149.847944 229.435482 
L 149.931489 227.307671 
L 150.097474 227.307671 
L 150.152479 225.179859 
L 150.479171 225.179859 
L 150.58682 223.761318 
L 151.168122 223.761318 
L 151.168122 223.406682 
L 151.60532 223.406682 
L 151.60532 222.697412 
L 151.907925 222.697412 
L 151.907925 222.342776 
L 152.106991 222.342776 
L 152.131727 221.278871 
L 152.571498 221.278871 
L 152.571498 220.924235 
L 153.118868 220.924235 
L 153.118868 219.860329 
L 153.536404 219.860329 
L 153.536404 219.505694 
L 153.854866 219.505694 
L 153.854866 219.151059 
L 154.410475 219.151059 
L 154.476059 218.087153 
L 154.971412 218.087153 
L 154.971412 217.732518 
L 155.161749 217.732518 
L 155.161749 217.377882 
L 155.371001 217.377882 
L 155.371001 216.668612 
L 157.118477 216.668612 
L 157.175281 215.604706 
L 157.770751 215.604706 
L 157.807349 214.895435 
L 158.401163 214.895435 
L 158.471883 214.186165 
L 158.717331 214.186165 
L 158.804221 213.476894 
L 158.838864 213.476894 
L 158.856162 212.767624 
L 159.367841 212.767624 
L 159.367841 212.412988 
L 160.367209 212.412988 
L 160.4627 211.703718 
L 160.478568 211.703718 
L 160.478568 211.349082 
L 160.839886 211.349082 
L 160.839886 210.639812 
L 161.285788 210.639812 
L 161.285788 210.285176 
L 161.97209 210.285176 
L 162.045202 209.575906 
L 162.761101 209.575906 
L 162.761101 209.221271 
L 163.423645 209.221271 
L 163.423645 208.866635 
L 163.666204 208.866635 
L 163.666204 208.512 
L 163.879217 208.512 
L 163.879217 208.157365 
L 164.142137 208.157365 
L 164.142137 207.802729 
L 164.783793 207.802729 
L 164.783793 207.448094 
L 165.009535 207.448094 
L 165.059334 205.320282 
L 165.634805 205.320282 
L 165.670946 204.611012 
L 166.251633 204.611012 
L 166.251633 204.256376 
L 166.621405 204.256376 
L 166.689935 202.4832 
L 166.826251 202.4832 
L 166.826251 202.128565 
L 168.23246 202.128565 
L 168.3163 201.419294 
L 168.586228 201.419294 
L 168.689024 200.000753 
L 168.801454 200.000753 
L 168.801454 199.646118 
L 169.134768 199.646118 
L 169.134768 199.291482 
L 169.314117 199.291482 
L 169.353741 197.163671 
L 169.432739 197.163671 
L 169.432739 196.809035 
L 169.687218 196.809035 
L 169.687218 196.099765 
L 170.607351 196.099765 
L 170.607351 195.745129 
L 171.324847 195.745129 
L 171.324847 195.390494 
L 171.528696 195.390494 
L 171.555123 193.617318 
L 172.015979 193.617318 
L 172.015979 193.262682 
L 172.440637 193.262682 
L 172.440637 192.908047 
L 172.591198 192.908047 
L 172.591198 192.553412 
L 172.724025 192.553412 
L 172.724025 192.198776 
L 172.896949 192.198776 
L 172.946065 190.780235 
L 173.213936 190.780235 
L 173.213936 190.4256 
L 173.7385 190.4256 
L 173.7385 190.070965 
L 174.566526 190.070965 
L 174.648853 189.361694 
L 174.856799 189.361694 
L 174.886319 188.652424 
L 175.011265 188.652424 
L 175.084376 187.588518 
L 175.236991 187.588518 
L 175.294806 185.815341 
L 175.424244 185.815341 
L 175.467193 182.623624 
L 175.905348 182.623624 
L 175.926293 181.914353 
L 176.065329 181.914353 
L 176.079176 181.205082 
L 176.435674 181.205082 
L 176.462819 179.431906 
L 178.005027 179.431906 
L 178.005027 178.722635 
L 178.129566 178.722635 
L 178.129566 177.304094 
L 178.480044 177.304094 
L 178.589379 175.176282 
L 178.60754 175.176282 
L 178.60754 174.821647 
L 178.734177 174.821647 
L 178.830093 173.048471 
L 178.865936 173.048471 
L 178.865936 172.693835 
L 179.103159 172.693835 
L 179.103159 172.3392 
L 179.453477 172.3392 
L 179.453477 171.984565 
L 180.285156 171.984565 
L 180.285156 170.920659 
L 181.076312 170.920659 
L 181.076312 170.566024 
L 182.238904 170.566024 
L 182.238904 169.502118 
L 182.677721 169.502118 
L 182.677721 169.147482 
L 182.799165 169.147482 
L 182.799165 168.438212 
L 183.006231 168.438212 
L 183.020593 167.728941 
L 183.493151 167.728941 
L 183.567671 166.665035 
L 183.734269 166.665035 
L 183.734269 166.3104 
L 184.049515 166.3104 
L 184.049515 165.955765 
L 184.408525 165.955765 
L 184.466222 165.246494 
L 184.655817 165.246494 
L 184.730249 161.345506 
L 184.826137 161.345506 
L 184.826137 160.990871 
L 185.294142 160.990871 
L 185.294142 160.636235 
L 185.882769 160.636235 
L 185.882769 160.2816 
L 186.17234 160.2816 
L 186.17234 159.926965 
L 186.926013 159.926965 
L 186.926013 159.572329 
L 187.077049 159.572329 
L 187.077049 159.217694 
L 187.496626 159.217694 
L 187.53431 157.799153 
L 187.762558 157.799153 
L 187.762558 157.444518 
L 187.91074 157.444518 
L 187.91074 156.025976 
L 188.079718 156.025976 
L 188.079718 155.671341 
L 188.362822 155.671341 
L 188.362822 155.316706 
L 188.527805 155.316706 
L 188.567044 153.188894 
L 188.78317 153.188894 
L 188.797255 151.770353 
L 188.97593 151.770353 
L 189.07331 149.642541 
L 189.107966 149.642541 
L 189.135646 148.578635 
L 189.694277 148.578635 
L 189.707697 147.160094 
L 189.851361 147.160094 
L 189.914493 144.323012 
L 190.161648 144.323012 
L 190.161648 143.968376 
L 190.292149 143.968376 
L 190.292149 143.613741 
L 190.572899 143.613741 
L 190.668746 140.067388 
L 190.798953 140.067388 
L 190.798953 139.712753 
L 191.087884 139.712753 
L 191.171843 137.939576 
L 191.24307 137.939576 
L 191.24307 137.584941 
L 191.427619 137.584941 
L 191.427619 137.230306 
L 191.83036 137.230306 
L 191.83036 136.875671 
L 192.112844 136.875671 
L 192.195299 135.811765 
L 192.227593 135.811765 
L 192.227593 135.457129 
L 192.426011 135.457129 
L 192.426011 135.102494 
L 192.67399 135.102494 
L 192.748322 130.846871 
L 192.856434 130.846871 
L 192.93005 129.428329 
L 193.218882 129.428329 
L 193.316027 127.300518 
L 193.396141 127.300518 
L 193.396141 126.945882 
L 193.533473 126.945882 
L 193.569015 125.881976 
L 193.885911 125.881976 
L 193.885911 125.527341 
L 194.15789 125.527341 
L 194.15789 125.172706 
L 194.27138 125.172706 
L 194.365871 123.044894 
L 194.509322 123.044894 
L 194.589697 121.271718 
L 194.64137 121.271718 
L 194.64137 120.917082 
L 194.769935 120.917082 
L 194.769935 120.562447 
L 194.933226 120.562447 
L 195.02193 118.434635 
L 195.210614 118.434635 
L 195.210614 118.08 
L 195.422191 118.08 
L 195.498767 116.661459 
L 195.545546 116.661459 
L 195.545546 116.306824 
L 195.67054 116.306824 
L 195.729075 115.242918 
L 196.06216 115.242918 
L 196.117105 112.760471 
L 196.198035 112.760471 
L 196.226516 112.0512 
L 196.34001 112.0512 
L 196.445792 110.632659 
L 196.681071 110.632659 
L 196.681071 110.278024 
L 197.09322 110.278024 
L 197.09322 109.568753 
L 197.407651 109.568753 
L 197.494315 108.859482 
L 198.596508 108.859482 
L 198.596508 108.504847 
L 198.787891 108.504847 
L 198.787891 108.150212 
L 198.944535 108.150212 
L 198.944535 107.795576 
L 199.22163 107.795576 
L 199.272125 105.667765 
L 199.410793 105.667765 
L 199.410793 105.313129 
L 199.756005 105.313129 
L 199.756005 104.958494 
L 200.056341 104.958494 
L 200.137426 102.476047 
L 200.19513 102.476047 
L 200.229668 99.638965 
L 200.327182 99.638965 
L 200.327182 99.284329 
L 200.516931 99.284329 
L 200.571602 96.801882 
L 200.657997 96.801882 
L 200.657997 96.447247 
L 201.311721 96.447247 
L 201.311721 96.092612 
L 201.673803 96.092612 
L 201.673803 95.737976 
L 201.943488 95.737976 
L 202.020334 94.674071 
L 202.530993 94.674071 
L 202.558114 93.610165 
L 202.644301 93.610165 
L 202.709943 92.900894 
L 202.798784 92.900894 
L 202.798784 92.546259 
L 203.297154 92.546259 
L 203.345948 90.773082 
L 203.502853 90.773082 
L 203.510906 90.063812 
L 203.937555 90.063812 
L 204.008254 87.936 
L 204.201707 87.936 
L 204.201707 87.581365 
L 204.393191 87.581365 
L 204.453015 86.872094 
L 204.585786 86.872094 
L 204.657126 86.162824 
L 205.356023 86.162824 
L 205.356023 85.808188 
L 205.5867 85.808188 
L 205.5867 85.453553 
L 206.160406 85.453553 
L 206.160406 85.098918 
L 206.305304 85.098918 
L 206.363505 82.261835 
L 207.496459 82.261835 
L 207.582244 81.552565 
L 207.706328 81.552565 
L 207.706328 81.197929 
L 207.823198 81.197929 
L 207.918977 79.070118 
L 208.134287 79.070118 
L 208.168258 78.360847 
L 208.29604 78.360847 
L 208.29604 78.006212 
L 208.470027 78.006212 
L 208.541638 76.587671 
L 208.748758 76.587671 
L 208.858135 75.523765 
L 208.957239 75.523765 
L 208.957239 75.169129 
L 209.128827 75.169129 
L 209.178927 73.395953 
L 209.328433 73.395953 
L 209.328433 73.041318 
L 209.460337 73.041318 
L 209.480278 72.332047 
L 209.680849 72.332047 
L 209.697081 71.622776 
L 210.072281 71.622776 
L 210.106331 69.8496 
L 210.22615 69.8496 
L 210.22615 69.140329 
L 210.363117 69.140329 
L 210.363117 68.785694 
L 210.830433 68.785694 
L 210.904486 66.657882 
L 211.074355 66.657882 
L 211.158182 65.239341 
L 211.251243 65.239341 
L 211.251243 64.884706 
L 211.573901 64.884706 
L 211.573901 64.530071 
L 211.7711 64.530071 
L 211.827066 63.466165 
L 212.26586 63.466165 
L 212.26586 63.111529 
L 212.383776 63.111529 
L 212.383776 62.756894 
L 212.547825 62.756894 
L 212.584639 60.274447 
L 212.692675 60.274447 
L 212.799111 59.565176 
L 212.968361 59.565176 
L 212.968361 59.210541 
L 213.10422 59.210541 
L 213.1766 57.437365 
L 213.415875 57.437365 
L 213.471903 56.373459 
L 213.635232 56.373459 
L 213.635232 56.018824 
L 213.848344 56.018824 
L 213.942907 54.954918 
L 214.263822 54.954918 
L 214.263822 54.600282 
L 214.416839 54.600282 
L 214.449274 52.827106 
L 214.541768 52.827106 
L 214.624892 52.117835 
L 215.889728 52.117835 
L 215.889728 51.408565 
L 216.47425 51.408565 
L 216.47425 51.053929 
L 216.634425 51.053929 
L 216.634425 50.699294 
L 216.790068 50.699294 
L 216.790068 47.862212 
L 217.12255 47.862212 
L 217.177137 46.798306 
L 217.257947 46.798306 
L 217.257947 46.443671 
L 217.724307 46.443671 
L 217.724307 45.7344 
L 218.00061 45.7344 
L 218.09058 45.025129 
L 218.120968 45.025129 
L 218.160918 44.315859 
L 218.233202 44.315859 
L 218.233202 43.961224 
L 218.375481 43.961224 
L 218.414893 42.542682 
L 219.630968 42.542682 
L 219.630968 42.188047 
L 219.761737 42.188047 
L 219.83084 41.124141 
L 219.903058 41.124141 
L 219.918546 40.060235 
L 220.204445 40.060235 
L 220.204445 39.7056 
L 220.946046 39.7056 
L 220.946046 39.350965 
L 221.165274 39.350965 
L 221.165274 38.996329 
L 221.92516 38.996329 
L 221.92516 38.641694 
L 222.18412 38.641694 
L 222.224057 37.577788 
L 222.513003 37.577788 
L 222.513003 36.513882 
L 222.79469 36.513882 
L 222.884015 34.386071 
L 222.976351 34.386071 
L 222.976351 34.031435 
L 224.331985 34.031435 
L 224.331985 32.967529 
L 224.547932 32.967529 
L 224.547932 32.612894 
L 226.150162 32.612894 
L 226.150162 32.258259 
L 226.388836 32.258259 
L 226.388836 31.903624 
L 226.538082 31.903624 
L 226.538082 31.194353 
L 226.978382 31.194353 
L 226.978382 30.839718 
L 227.247914 30.839718 
L 227.247914 30.485082 
L 227.909058 30.485082 
L 227.909058 30.130447 
L 228.30151 30.130447 
L 228.30151 27.648 
L 360.8064 27.648 
L 360.8064 27.648 
" style="fill: none; stroke: #000080; stroke-width: 1.5; stroke-linecap: square"/>
   </g>
   <g id="line2d_36">
    <defs>
     <path id="m49ddd6b9eb" d="M 0 6 
C 1.591219 6 3.117479 5.367802 4.242641 4.242641 
C 5.367802 3.117479 6 1.591219 6 0 
C 6 -1.591219 5.367802 -3.117479 4.242641 -4.242641 
C 3.117479 -5.367802 1.591219 -6 0 -6 
C -1.591219 -6 -3.117479 -5.367802 -4.242641 -4.242641 
C -5.367802 -3.117479 -6 -1.591219 -6 0 
C -6 1.591219 -5.367802 3.117479 -4.242641 4.242641 
C -3.117479 5.367802 -1.591219 6 0 6 
z
" style="stroke: #000080; stroke-width: 1.5"/>
    </defs>
    <g>
     <use xlink:href="#m49ddd6b9eb" x="100.9152" y="269.509271" style="fill-opacity: 0; stroke: #000080; stroke-width: 1.5"/>
     <use xlink:href="#m49ddd6b9eb" x="175.424244" y="185.460706" style="fill-opacity: 0; stroke: #000080; stroke-width: 1.5"/>
     <use xlink:href="#m49ddd6b9eb" x="216.790068" y="50.699294" style="fill-opacity: 0; stroke: #000080; stroke-width: 1.5"/>
     <use xlink:href="#m49ddd6b9eb" x="228.30151" y="27.648" style="fill-opacity: 0; stroke: #000080; stroke-width: 1.5"/>
     <use xlink:href="#m49ddd6b9eb" x="228.30151" y="27.648" style="fill-opacity: 0; stroke: #000080; stroke-width: 1.5"/>
     <use xlink:href="#m49ddd6b9eb" x="360.8064" y="27.648" style="fill-opacity: 0; stroke: #000080; stroke-width: 1.5"/>
    </g>
   </g>
   <g id="line2d_37">
    <path style="fill: none; stroke: #000080; stroke-width: 1.5; stroke-linecap: square"/>
    <g/>
   </g>
   <g id="line2d_38">
    <defs>
     <path id="m27aa061917" d="M 0 1.5 
C 0.397805 1.5 0.77937 1.341951 1.06066 1.06066 
C 1.341951 0.77937 1.5 0.397805 1.5 0 
C 1.5 -0.397805 1.341951 -0.77937 1.06066 -1.06066 
C 0.77937 -1.341951 0.397805 -1.5 0 -1.5 
C -0.397805 -1.5 -0.77937 -1.341951 -1.06066 -1.06066 
C -1.341951 -0.77937 -1.5 -0.397805 -1.5 0 
C -1.5 0.397805 -1.341951 0.77937 -1.06066 1.06066 
C -0.77937 1.341951 -0.397805 1.5 0 1.5 
z
" style="stroke: #ff00ff"/>
    </defs>
    <g>
     <use xlink:href="#m27aa061917" x="220.880928" y="27.648" style="fill: #ff00ff; stroke: #ff00ff"/>
     <use xlink:href="#m27aa061917" x="220.880928" y="27.648" style="fill: #ff00ff; stroke: #ff00ff"/>
    </g>
   </g>
   <g id="line2d_39">
    <path d="M 27.323974 298.944 
L 27.323974 289.014212 
L 125.115773 289.014212 
L 125.219419 283.340047 
L 125.729248 283.340047 
L 125.829577 276.956612 
L 125.929373 276.956612 
L 125.929373 275.892706 
L 126.420564 275.892706 
L 126.517282 263.125835 
L 126.613505 263.125835 
L 126.613505 261.352659 
L 126.804487 261.352659 
L 126.804487 258.515576 
L 126.993549 258.515576 
L 126.993549 256.033129 
L 132.777813 256.033129 
L 132.777813 254.969224 
L 133.120474 254.969224 
L 133.120474 254.614588 
L 133.323114 254.614588 
L 133.390178 253.550682 
L 133.457005 253.550682 
L 133.523594 251.777506 
L 133.72196 251.777506 
L 133.72196 250.7136 
L 133.853052 250.7136 
L 133.918257 248.940424 
L 134.176839 248.940424 
L 134.240933 247.521882 
L 134.431915 247.521882 
L 134.431915 247.167247 
L 137.945929 247.167247 
L 138.050729 246.103341 
L 138.154948 246.103341 
L 138.154948 245.748706 
L 138.36167 245.748706 
L 138.36167 245.394071 
L 138.667556 245.394071 
L 138.768422 244.6848 
L 138.818654 244.6848 
L 138.818654 243.620894 
L 139.018248 243.620894 
L 139.117256 242.202353 
L 139.166565 242.202353 
L 139.166565 240.783812 
L 139.556456 240.783812 
L 139.556456 240.429176 
L 139.700607 240.429176 
L 139.700607 239.365271 
L 139.843661 239.365271 
L 139.843661 238.301365 
L 141.696956 238.301365 
L 141.696956 237.946729 
L 142.080444 237.946729 
L 142.080444 237.237459 
L 142.620923 237.237459 
L 142.620923 236.528188 
L 142.824734 236.528188 
L 142.824734 236.173553 
L 143.696162 236.173553 
L 143.734829 235.464282 
L 145.608355 235.464282 
L 145.608355 234.755012 
L 145.920443 234.755012 
L 145.920443 234.400376 
L 146.091614 234.400376 
L 146.091614 233.336471 
L 146.395851 233.336471 
L 146.395851 232.981835 
L 146.529503 232.981835 
L 146.529503 232.6272 
L 147.022411 232.6272 
L 147.022411 232.272565 
L 147.1517 232.272565 
L 147.1517 231.917929 
L 147.502732 231.917929 
L 147.502732 231.563294 
L 148.094045 231.563294 
L 148.094045 231.208659 
L 148.697031 231.208659 
L 148.697031 230.854024 
L 148.962194 230.854024 
L 148.962194 230.499388 
L 149.107908 230.499388 
L 149.107908 230.144753 
L 149.42456 230.144753 
L 149.453084 227.662306 
L 149.679732 227.662306 
L 149.679732 226.953035 
L 150.097474 226.953035 
L 150.097474 226.5984 
L 151.194122 226.5984 
L 151.194122 225.889129 
L 151.452172 225.889129 
L 151.452172 225.534494 
L 151.579882 225.534494 
L 151.579882 225.179859 
L 152.547334 225.179859 
L 152.547334 224.825224 
L 152.953957 224.825224 
L 152.953957 224.470588 
L 153.764426 224.470588 
L 153.764426 224.115953 
L 153.899924 224.115953 
L 153.899924 223.761318 
L 154.519655 223.761318 
L 154.519655 223.406682 
L 154.80059 223.406682 
L 154.822028 221.988141 
L 155.161749 221.988141 
L 155.18278 220.924235 
L 155.619069 220.924235 
L 155.619069 219.860329 
L 155.762279 219.860329 
L 155.762279 218.087153 
L 156.065535 218.087153 
L 156.065535 217.732518 
L 156.284856 217.732518 
L 156.284856 216.313976 
L 156.735336 216.313976 
L 156.735336 215.604706 
L 157.156365 215.604706 
L 157.156365 214.895435 
L 158.133569 214.895435 
L 158.133569 213.476894 
L 158.347948 213.476894 
L 158.347948 213.122259 
L 158.542339 213.122259 
L 158.542339 212.767624 
L 158.804221 212.767624 
L 158.804221 211.349082 
L 158.925196 211.349082 
L 158.925196 210.994447 
L 159.096679 210.994447 
L 159.096679 210.285176 
L 159.232748 210.285176 
L 159.232748 209.575906 
L 159.717911 209.575906 
L 159.717911 208.866635 
L 160.012872 208.866635 
L 160.110173 208.157365 
L 160.746296 208.157365 
L 160.746296 207.448094 
L 161.527352 207.448094 
L 161.527352 207.093459 
L 161.810238 207.093459 
L 161.810238 206.738824 
L 162.435167 206.738824 
L 162.478002 205.320282 
L 163.012297 205.320282 
L 163.012297 203.547106 
L 163.232801 203.547106 
L 163.328465 202.4832 
L 163.410077 202.4832 
L 163.423645 201.419294 
L 164.246284 201.419294 
L 164.246284 201.064659 
L 164.362764 201.064659 
L 164.362764 200.710024 
L 164.516958 200.710024 
L 164.55531 200.000753 
L 164.733259 200.000753 
L 164.733259 199.646118 
L 165.45305 199.646118 
L 165.45305 198.936847 
L 165.707018 198.936847 
L 165.731028 197.872941 
L 166.028591 197.872941 
L 166.063985 197.163671 
L 166.701332 197.163671 
L 166.701332 196.809035 
L 166.905315 196.809035 
L 166.984048 195.390494 
L 167.624034 195.390494 
L 167.624034 195.035859 
L 167.786064 195.035859 
L 167.786064 193.262682 
L 167.999955 193.262682 
L 167.999955 192.908047 
L 168.242961 192.908047 
L 168.284904 192.198776 
L 168.668509 192.198776 
L 168.668509 191.844141 
L 170.346334 191.844141 
L 170.346334 191.489506 
L 170.864796 191.489506 
L 170.901288 190.070965 
L 171.010341 190.070965 
L 171.010341 189.007059 
L 171.190702 189.007059 
L 171.190702 188.652424 
L 171.396002 188.652424 
L 171.396002 188.297788 
L 171.721637 188.297788 
L 171.721637 187.943153 
L 171.852062 187.943153 
L 171.852062 187.233882 
L 172.53279 187.233882 
L 172.632807 186.169976 
L 173.933441 186.169976 
L 173.933441 185.815341 
L 174.126381 185.815341 
L 174.134058 185.106071 
L 174.317363 185.106071 
L 174.317363 184.042165 
L 174.708501 184.042165 
L 174.753113 183.332894 
L 175.445731 183.332894 
L 175.445731 182.978259 
L 175.567027 182.978259 
L 175.567027 182.623624 
L 175.680478 182.623624 
L 175.680478 182.268988 
L 176.016783 182.268988 
L 176.016783 181.914353 
L 176.428882 181.914353 
L 176.428882 181.559718 
L 177.043737 181.559718 
L 177.043737 180.850447 
L 177.265975 180.850447 
L 177.265975 179.786541 
L 177.734443 179.786541 
L 177.734443 178.722635 
L 177.848184 178.722635 
L 177.848184 178.368 
L 177.998778 178.368 
L 177.998778 178.013365 
L 178.961184 178.013365 
L 178.961184 177.658729 
L 179.75759 177.658729 
L 179.75759 175.530918 
L 180.051262 175.530918 
L 180.051262 173.403106 
L 180.263006 173.403106 
L 180.263006 173.048471 
L 180.41202 173.048471 
L 180.41202 172.3392 
L 180.630634 172.3392 
L 180.663208 171.629929 
L 180.835991 171.629929 
L 180.835991 171.275294 
L 181.14517 171.275294 
L 181.161025 170.211388 
L 181.33455 170.211388 
L 181.33455 169.856753 
L 181.810032 169.856753 
L 181.810032 169.502118 
L 181.997921 169.502118 
L 181.997921 169.147482 
L 182.550582 169.147482 
L 182.599583 168.083576 
L 182.987065 168.083576 
L 182.987065 167.019671 
L 183.502482 167.019671 
L 183.502482 166.3104 
L 183.894836 166.3104 
L 183.908536 165.601129 
L 184.063102 165.601129 
L 184.063102 164.891859 
L 184.238849 164.891859 
L 184.238849 164.537224 
L 185.149405 164.537224 
L 185.149405 164.182588 
L 185.692752 164.182588 
L 185.692752 163.827953 
L 185.878658 163.827953 
L 185.878658 163.473318 
L 186.139934 163.473318 
L 186.139934 163.118682 
L 186.265197 163.118682 
L 186.265197 162.764047 
L 186.643952 162.764047 
L 186.643952 162.409412 
L 188.839449 162.409412 
L 188.839449 162.054776 
L 190.370016 162.054776 
L 190.370016 161.700141 
L 190.659184 161.700141 
L 190.659184 161.345506 
L 191.236887 161.345506 
L 191.236887 160.990871 
L 191.507031 160.990871 
L 191.507031 160.636235 
L 193.299409 160.636235 
L 193.299409 160.2816 
L 193.764659 160.2816 
L 193.764659 159.926965 
L 194.342293 159.926965 
L 194.342293 159.572329 
L 195.337846 159.572329 
L 195.392465 158.508424 
L 195.602019 158.508424 
L 195.602019 158.153788 
L 196.226516 158.153788 
L 196.226516 157.799153 
L 197.052409 157.799153 
L 197.090955 157.089882 
L 197.190355 157.089882 
L 197.190355 156.735247 
L 197.313872 156.735247 
L 197.313872 156.380612 
L 197.449922 156.380612 
L 197.449922 155.316706 
L 197.703763 155.316706 
L 197.703763 154.962071 
L 197.845738 154.962071 
L 197.845738 154.607435 
L 198.07929 154.607435 
L 198.07929 153.898165 
L 198.470636 153.898165 
L 198.470636 153.543529 
L 198.891093 153.543529 
L 198.891093 152.479624 
L 199.687073 152.479624 
L 199.752073 151.415718 
L 199.828603 151.415718 
L 199.828603 149.997176 
L 200.258401 149.997176 
L 200.258401 149.642541 
L 200.751457 149.642541 
L 200.751457 148.933271 
L 201.1463 148.933271 
L 201.1463 148.578635 
L 201.450566 148.578635 
L 201.450566 148.224 
L 201.797668 148.224 
L 201.797668 146.805459 
L 201.978457 146.805459 
L 201.978457 146.450824 
L 203.204096 146.450824 
L 203.231899 145.386918 
L 203.541474 145.386918 
L 203.541474 145.032282 
L 203.6856 145.032282 
L 203.6856 144.677647 
L 203.846037 144.677647 
L 203.846037 144.323012 
L 203.995705 144.323012 
L 204.003549 143.613741 
L 204.151974 143.613741 
L 204.201707 141.840565 
L 204.468324 141.840565 
L 204.468324 141.131294 
L 204.66167 141.131294 
L 204.66167 140.422024 
L 204.854549 140.422024 
L 204.854549 140.067388 
L 205.110655 140.067388 
L 205.110655 139.358118 
L 205.549172 139.358118 
L 205.654349 137.584941 
L 205.93953 137.584941 
L 205.9777 135.811765 
L 206.10578 135.811765 
L 206.10578 135.457129 
L 206.220451 135.457129 
L 206.288642 134.038588 
L 206.359354 134.038588 
L 206.396683 131.556141 
L 206.497239 131.556141 
L 206.593161 129.073694 
L 206.658654 129.073694 
L 206.674992 126.591247 
L 206.803834 126.591247 
L 206.806537 125.527341 
L 206.929114 125.527341 
L 206.97069 124.463435 
L 207.07223 124.463435 
L 207.171899 123.399529 
L 207.186473 123.399529 
L 207.211619 121.271718 
L 207.318447 121.271718 
L 207.368356 119.143906 
L 207.4743 119.143906 
L 207.496459 117.725365 
L 207.588727 117.725365 
L 207.626284 115.242918 
L 207.717919 115.242918 
L 207.733363 113.469741 
L 207.837276 113.469741 
L 207.869233 112.760471 
L 207.964778 112.760471 
L 207.988906 112.0512 
L 208.091422 112.0512 
L 208.091422 111.341929 
L 208.217218 111.341929 
L 208.2623 109.568753 
L 209.590157 109.568753 
L 209.590157 109.214118 
L 209.809162 109.214118 
L 209.809162 108.859482 
L 210.818427 108.859482 
L 210.927296 107.086306 
L 210.939234 107.086306 
L 211.047409 105.667765 
L 211.154965 105.667765 
L 211.250176 104.603859 
L 211.305582 104.603859 
L 211.305582 103.539953 
L 211.517176 103.539953 
L 211.567606 102.830682 
L 211.672237 102.830682 
L 211.725376 100.348235 
L 211.7877 100.348235 
L 211.891117 99.284329 
L 211.933355 99.284329 
L 212.035976 97.156518 
L 212.183791 97.156518 
L 212.26586 95.383341 
L 212.339518 95.383341 
L 212.439954 91.836988 
L 212.46698 91.836988 
L 212.540852 90.063812 
L 212.665972 90.063812 
L 212.764684 87.581365 
L 212.781414 87.581365 
L 212.879524 84.744282 
L 212.934242 84.744282 
L 212.960568 83.680376 
L 213.05775 83.680376 
L 213.076158 82.971106 
L 213.172747 82.971106 
L 213.283214 78.715482 
L 213.284172 78.715482 
L 213.392084 75.523765 
L 213.474748 75.523765 
L 213.552329 74.105224 
L 213.67561 74.105224 
L 213.757039 72.332047 
L 213.885484 72.332047 
L 213.885484 70.913506 
L 214.186387 70.913506 
L 214.203724 70.204235 
L 214.321916 70.204235 
L 214.321916 69.8496 
L 214.52474 69.8496 
L 214.52474 69.494965 
L 214.745793 69.494965 
L 214.845659 68.431059 
L 214.857114 68.431059 
L 214.857114 68.076424 
L 215.055151 68.076424 
L 215.055151 67.367153 
L 215.227819 67.367153 
L 215.313992 66.303247 
L 215.422866 66.303247 
L 215.526863 63.466165 
L 215.548953 63.466165 
L 215.61168 60.983718 
L 215.71885 60.983718 
L 215.802808 59.210541 
L 215.859686 59.210541 
L 215.933038 57.792 
L 215.990354 57.792 
L 216.098692 54.954918 
L 216.112706 54.954918 
L 216.217066 50.344659 
L 216.237542 50.344659 
L 216.347725 49.280753 
L 216.354234 49.280753 
L 216.461312 46.443671 
L 216.480715 46.443671 
L 216.587078 42.188047 
L 216.598323 42.188047 
L 216.691244 39.350965 
L 216.743111 39.350965 
L 216.8377 36.159247 
L 216.874928 36.159247 
L 216.880466 35.449976 
L 217.066237 35.449976 
L 217.150643 32.967529 
L 217.188814 32.967529 
L 217.266474 32.258259 
L 217.305957 32.258259 
L 217.396995 28.711906 
L 217.626482 28.711906 
L 217.626482 28.357271 
L 220.66093 28.357271 
L 220.66093 28.002635 
L 220.880928 28.002635 
L 220.880928 27.648 
L 360.8064 27.648 
L 360.8064 27.648 
" style="fill: none; stroke: #ff00ff; stroke-width: 1.5; stroke-linecap: square"/>
   </g>
   <g id="line2d_40">
    <defs>
     <path id="me46e9307a4" d="M 0 8.485281 
L 5.091169 0 
L 0 -8.485281 
L -5.091169 0 
z
" style="stroke: #ff00ff; stroke-width: 1.5; stroke-linejoin: miter"/>
    </defs>
    <g>
     <use xlink:href="#me46e9307a4" x="164.516958" y="200.355388" style="fill-opacity: 0; stroke: #ff00ff; stroke-width: 1.5; stroke-linejoin: miter"/>
     <use xlink:href="#me46e9307a4" x="206.674992" y="126.591247" style="fill-opacity: 0; stroke: #ff00ff; stroke-width: 1.5; stroke-linejoin: miter"/>
     <use xlink:href="#me46e9307a4" x="220.880928" y="27.648" style="fill-opacity: 0; stroke: #ff00ff; stroke-width: 1.5; stroke-linejoin: miter"/>
     <use xlink:href="#me46e9307a4" x="220.880928" y="27.648" style="fill-opacity: 0; stroke: #ff00ff; stroke-width: 1.5; stroke-linejoin: miter"/>
     <use xlink:href="#me46e9307a4" x="360.8064" y="27.648" style="fill-opacity: 0; stroke: #ff00ff; stroke-width: 1.5; stroke-linejoin: miter"/>
    </g>
   </g>
   <g id="line2d_41">
    <path style="fill: none; stroke: #ff00ff; stroke-width: 1.5; stroke-linecap: square"/>
    <g/>
   </g>
   <g id="line2d_42">
    <path d="M 360.8064 27.648 
L 380.514816 293.51808 
" style="fill: none; stroke: #000080; stroke-width: 1.5; stroke-linecap: square"/>
    <g>
     <use xlink:href="#m49ddd6b9eb" x="360.8064" y="27.648" style="fill-opacity: 0; stroke: #000080; stroke-width: 1.5"/>
     <use xlink:href="#m49ddd6b9eb" x="380.514816" y="293.51808" style="fill-opacity: 0; stroke: #000080; stroke-width: 1.5"/>
    </g>
   </g>
   <g id="line2d_43">
    <path d="M 360.8064 27.648 
L 380.514816 163.296 
" style="fill: none; stroke: #ff00ff; stroke-width: 1.5; stroke-linecap: square"/>
    <g>
     <use xlink:href="#me46e9307a4" x="360.8064" y="27.648" style="fill-opacity: 0; stroke: #ff00ff; stroke-width: 1.5; stroke-linejoin: miter"/>
     <use xlink:href="#me46e9307a4" x="380.514816" y="163.296" style="fill-opacity: 0; stroke: #ff00ff; stroke-width: 1.5; stroke-linejoin: miter"/>
    </g>
   </g>
   <g id="line2d_44">
    <path d="M 360.8064 298.944 
L 360.8064 27.648 
" style="fill: none; stroke: #000000; stroke-width: 1.5; stroke-linecap: square"/>
   </g>
   <g id="patch_3">
    <path d="M 57.6 298.944 
L 360.8064 298.944 
" style="fill: none; stroke: #000000; stroke-width: 0.8; stroke-linejoin: miter; stroke-linecap: square"/>
   </g>
   <g id="patch_4">
    <path d="M 57.6 27.648 
L 360.8064 27.648 
" style="fill: none; stroke: #000000; stroke-width: 0.8; stroke-linejoin: miter; stroke-linecap: square"/>
   </g>
   <g id="text_13">
    <!-- LCGA -->
    <g transform="translate(386.578944 297.381205)scale(0.14 -0.14)">
     <defs>
      <path id="DejaVuSans-4c" d="M 628 4666 
L 1259 4666 
L 1259 531 
L 3531 531 
L 3531 0 
L 628 0 
L 628 4666 
z
" transform="scale(0.015625)"/>
      <path id="DejaVuSans-43" d="M 4122 4306 
L 4122 3641 
Q 3803 3938 3442 4084 
Q 3081 4231 2675 4231 
Q 1875 4231 1450 3742 
Q 1025 3253 1025 2328 
Q 1025 1406 1450 917 
Q 1875 428 2675 428 
Q 3081 428 3442 575 
Q 3803 722 4122 1019 
L 4122 359 
Q 3791 134 3420 21 
Q 3050 -91 2638 -91 
Q 1578 -91 968 557 
Q 359 1206 359 2328 
Q 359 3453 968 4101 
Q 1578 4750 2638 4750 
Q 3056 4750 3426 4639 
Q 3797 4528 4122 4306 
z
" transform="scale(0.015625)"/>
      <path id="DejaVuSans-47" d="M 3809 666 
L 3809 1919 
L 2778 1919 
L 2778 2438 
L 4434 2438 
L 4434 434 
Q 4069 175 3628 42 
Q 3188 -91 2688 -91 
Q 1594 -91 976 548 
Q 359 1188 359 2328 
Q 359 3472 976 4111 
Q 1594 4750 2688 4750 
Q 3144 4750 3555 4637 
Q 3966 4525 4313 4306 
L 4313 3634 
Q 3963 3931 3569 4081 
Q 3175 4231 2741 4231 
Q 1884 4231 1454 3753 
Q 1025 3275 1025 2328 
Q 1025 1384 1454 906 
Q 1884 428 2741 428 
Q 3075 428 3337 486 
Q 3600 544 3809 666 
z
" transform="scale(0.015625)"/>
      <path id="DejaVuSans-41" d="M 2188 4044 
L 1331 1722 
L 3047 1722 
L 2188 4044 
z
M 1831 4666 
L 2547 4666 
L 4325 0 
L 3669 0 
L 3244 1197 
L 1141 1197 
L 716 0 
L 50 0 
L 1831 4666 
z
" transform="scale(0.015625)"/>
     </defs>
     <use xlink:href="#DejaVuSans-4c"/>
     <use xlink:href="#DejaVuSans-43" x="55.712891"/>
     <use xlink:href="#DejaVuSans-47" x="125.537109"/>
     <use xlink:href="#DejaVuSans-41" x="203.027344"/>
    </g>
   </g>
   <g id="text_14">
    <!-- EvoSpace- -->
    <g transform="translate(386.578944 167.159125)scale(0.14 -0.14)">
     <defs>
      <path id="DejaVuSans-45" d="M 628 4666 
L 3578 4666 
L 3578 4134 
L 1259 4134 
L 1259 2753 
L 3481 2753 
L 3481 2222 
L 1259 2222 
L 1259 531 
L 3634 531 
L 3634 0 
L 628 0 
L 628 4666 
z
" transform="scale(0.015625)"/>
      <path id="DejaVuSans-53" d="M 3425 4513 
L 3425 3897 
Q 3066 4069 2747 4153 
Q 2428 4238 2131 4238 
Q 1616 4238 1336 4038 
Q 1056 3838 1056 3469 
Q 1056 3159 1242 3001 
Q 1428 2844 1947 2747 
L 2328 2669 
Q 3034 2534 3370 2195 
Q 3706 1856 3706 1288 
Q 3706 609 3251 259 
Q 2797 -91 1919 -91 
Q 1588 -91 1214 -16 
Q 841 59 441 206 
L 441 856 
Q 825 641 1194 531 
Q 1563 422 1919 422 
Q 2459 422 2753 634 
Q 3047 847 3047 1241 
Q 3047 1584 2836 1778 
Q 2625 1972 2144 2069 
L 1759 2144 
Q 1053 2284 737 2584 
Q 422 2884 422 3419 
Q 422 4038 858 4394 
Q 1294 4750 2059 4750 
Q 2388 4750 2728 4690 
Q 3069 4631 3425 4513 
z
" transform="scale(0.015625)"/>
     </defs>
     <use xlink:href="#DejaVuSans-45"/>
     <use xlink:href="#DejaVuSans-76" x="63.183594"/>
     <use xlink:href="#DejaVuSans-6f" x="122.363281"/>
     <use xlink:href="#DejaVuSans-53" x="183.544922"/>
     <use xlink:href="#DejaVuSans-70" x="247.021484"/>
     <use xlink:href="#DejaVuSans-61" x="310.498047"/>
     <use xlink:href="#DejaVuSans-63" x="371.777344"/>
     <use xlink:href="#DejaVuSans-65" x="426.757812"/>
     <use xlink:href="#DejaVuSans-2d" x="488.28125"/>
    </g>
   </g>
   <g id="text_15">
    <!-- best 2009 -->
    <g transform="translate(386.578944 36.937045)scale(0.14 -0.14)">
     <defs>
      <path id="DejaVuSans-62" d="M 3116 1747 
Q 3116 2381 2855 2742 
Q 2594 3103 2138 3103 
Q 1681 3103 1420 2742 
Q 1159 2381 1159 1747 
Q 1159 1113 1420 752 
Q 1681 391 2138 391 
Q 2594 391 2855 752 
Q 3116 1113 3116 1747 
z
M 1159 2969 
Q 1341 3281 1617 3432 
Q 1894 3584 2278 3584 
Q 2916 3584 3314 3078 
Q 3713 2572 3713 1747 
Q 3713 922 3314 415 
Q 2916 -91 2278 -91 
Q 1894 -91 1617 61 
Q 1341 213 1159 525 
L 1159 0 
L 581 0 
L 581 4863 
L 1159 4863 
L 1159 2969 
z
" transform="scale(0.015625)"/>
      <path id="DejaVuSans-39" d="M 703 97 
L 703 672 
Q 941 559 1184 500 
Q 1428 441 1663 441 
Q 2288 441 2617 861 
Q 2947 1281 2994 2138 
Q 2813 1869 2534 1725 
Q 2256 1581 1919 1581 
Q 1219 1581 811 2004 
Q 403 2428 403 3163 
Q 403 3881 828 4315 
Q 1253 4750 1959 4750 
Q 2769 4750 3195 4129 
Q 3622 3509 3622 2328 
Q 3622 1225 3098 567 
Q 2575 -91 1691 -91 
Q 1453 -91 1209 -44 
Q 966 3 703 97 
z
M 1959 2075 
Q 2384 2075 2632 2365 
Q 2881 2656 2881 3163 
Q 2881 3666 2632 3958 
Q 2384 4250 1959 4250 
Q 1534 4250 1286 3958 
Q 1038 3666 1038 3163 
Q 1038 2656 1286 2365 
Q 1534 2075 1959 2075 
z
" transform="scale(0.015625)"/>
     </defs>
     <use xlink:href="#DejaVuSans-62"/>
     <use xlink:href="#DejaVuSans-65" x="63.476562"/>
     <use xlink:href="#DejaVuSans-73" x="125"/>
     <use xlink:href="#DejaVuSans-74" x="177.099609"/>
     <use xlink:href="#DejaVuSans-20" x="216.308594"/>
     <use xlink:href="#DejaVuSans-32" x="248.095703"/>
     <use xlink:href="#DejaVuSans-30" x="311.71875"/>
     <use xlink:href="#DejaVuSans-30" x="375.341797"/>
     <use xlink:href="#DejaVuSans-39" x="438.964844"/>
    </g>
   </g>
   <g id="text_16">
    <!-- bbob f1, 5-D -->
    <g transform="translate(60.632064 38.111366)scale(0.102 -0.102)">
     <defs>
      <path id="DejaVuSans-35" d="M 691 4666 
L 3169 4666 
L 3169 4134 
L 1269 4134 
L 1269 2991 
Q 1406 3038 1543 3061 
Q 1681 3084 1819 3084 
Q 2600 3084 3056 2656 
Q 3513 2228 3513 1497 
Q 3513 744 3044 326 
Q 2575 -91 1722 -91 
Q 1428 -91 1123 -41 
Q 819 9 494 109 
L 494 744 
Q 775 591 1075 516 
Q 1375 441 1709 441 
Q 2250 441 2565 725 
Q 2881 1009 2881 1497 
Q 2881 1984 2565 2268 
Q 2250 2553 1709 2553 
Q 1456 2553 1204 2497 
Q 953 2441 691 2322 
L 691 4666 
z
" transform="scale(0.015625)"/>
      <path id="DejaVuSans-44" d="M 1259 4147 
L 1259 519 
L 2022 519 
Q 2988 519 3436 956 
Q 3884 1394 3884 2338 
Q 3884 3275 3436 3711 
Q 2988 4147 2022 4147 
L 1259 4147 
z
M 628 4666 
L 1925 4666 
Q 3281 4666 3915 4102 
Q 4550 3538 4550 2338 
Q 4550 1131 3912 565 
Q 3275 0 1925 0 
L 628 0 
L 628 4666 
z
" transform="scale(0.015625)"/>
     </defs>
     <use xlink:href="#DejaVuSans-62"/>
     <use xlink:href="#DejaVuSans-62" x="63.476562"/>
     <use xlink:href="#DejaVuSans-6f" x="126.953125"/>
     <use xlink:href="#DejaVuSans-62" x="188.134766"/>
     <use xlink:href="#DejaVuSans-20" x="251.611328"/>
     <use xlink:href="#DejaVuSans-66" x="283.398438"/>
     <use xlink:href="#DejaVuSans-31" x="318.603516"/>
     <use xlink:href="#DejaVuSans-2c" x="382.226562"/>
     <use xlink:href="#DejaVuSans-20" x="414.013672"/>
     <use xlink:href="#DejaVuSans-35" x="445.800781"/>
     <use xlink:href="#DejaVuSans-2d" x="509.423828"/>
     <use xlink:href="#DejaVuSans-44" x="545.507812"/>
    </g>
    <!-- 51 targets: 100..1e-08 -->
    <g transform="translate(60.632064 49.533135)scale(0.102 -0.102)">
     <defs>
      <path id="DejaVuSans-3a" d="M 750 794 
L 1409 794 
L 1409 0 
L 750 0 
L 750 794 
z
M 750 3309 
L 1409 3309 
L 1409 2516 
L 750 2516 
L 750 3309 
z
" transform="scale(0.015625)"/>
     </defs>
     <use xlink:href="#DejaVuSans-35"/>
     <use xlink:href="#DejaVuSans-31" x="63.623047"/>
     <use xlink:href="#DejaVuSans-20" x="127.246094"/>
     <use xlink:href="#DejaVuSans-74" x="159.033203"/>
     <use xlink:href="#DejaVuSans-61" x="198.242188"/>
     <use xlink:href="#DejaVuSans-72" x="259.521484"/>
     <use xlink:href="#DejaVuSans-67" x="298.884766"/>
     <use xlink:href="#DejaVuSans-65" x="362.361328"/>
     <use xlink:href="#DejaVuSans-74" x="423.884766"/>
     <use xlink:href="#DejaVuSans-73" x="463.09375"/>
     <use xlink:href="#DejaVuSans-3a" x="515.193359"/>
     <use xlink:href="#DejaVuSans-20" x="548.884766"/>
     <use xlink:href="#DejaVuSans-31" x="580.671875"/>
     <use xlink:href="#DejaVuSans-30" x="644.294922"/>
     <use xlink:href="#DejaVuSans-30" x="707.917969"/>
     <use xlink:href="#DejaVuSans-2e" x="771.541016"/>
     <use xlink:href="#DejaVuSans-2e" x="803.328125"/>
     <use xlink:href="#DejaVuSans-31" x="835.115234"/>
     <use xlink:href="#DejaVuSans-65" x="898.738281"/>
     <use xlink:href="#DejaVuSans-2d" x="960.261719"/>
     <use xlink:href="#DejaVuSans-30" x="996.345703"/>
     <use xlink:href="#DejaVuSans-38" x="1059.96875"/>
    </g>
    <!-- 15 instances -->
    <g transform="translate(60.632064 60.954904)scale(0.102 -0.102)">
     <use xlink:href="#DejaVuSans-31"/>
     <use xlink:href="#DejaVuSans-35" x="63.623047"/>
     <use xlink:href="#DejaVuSans-20" x="127.246094"/>
     <use xlink:href="#DejaVuSans-69" x="159.033203"/>
     <use xlink:href="#DejaVuSans-6e" x="186.816406"/>
     <use xlink:href="#DejaVuSans-73" x="250.195312"/>
     <use xlink:href="#DejaVuSans-74" x="302.294922"/>
     <use xlink:href="#DejaVuSans-61" x="341.503906"/>
     <use xlink:href="#DejaVuSans-6e" x="402.783203"/>
     <use xlink:href="#DejaVuSans-63" x="466.162109"/>
     <use xlink:href="#DejaVuSans-65" x="521.142578"/>
     <use xlink:href="#DejaVuSans-73" x="582.666016"/>
    </g>
   </g>
   <g id="text_17">
    <!-- v2.6 -->
    <g style="fill: #808080" transform="translate(198.292262 294.151352)scale(0.1 -0.1)">
     <use xlink:href="#DejaVuSans-76"/>
     <use xlink:href="#DejaVuSans-32" x="59.179688"/>
     <use xlink:href="#DejaVuSans-2e" x="122.802734"/>
     <use xlink:href="#DejaVuSans-36" x="154.589844"/>
    </g>
   </g>
   <g id="text_18">
    <!-- 1 Sphere -->
    <g transform="translate(164.436012 21.648)scale(0.2 -0.2)">
     <defs>
      <path id="DejaVuSans-68" d="M 3513 2113 
L 3513 0 
L 2938 0 
L 2938 2094 
Q 2938 2591 2744 2837 
Q 2550 3084 2163 3084 
Q 1697 3084 1428 2787 
Q 1159 2491 1159 1978 
L 1159 0 
L 581 0 
L 581 4863 
L 1159 4863 
L 1159 2956 
Q 1366 3272 1645 3428 
Q 1925 3584 2291 3584 
Q 2894 3584 3203 3211 
Q 3513 2838 3513 2113 
z
" transform="scale(0.015625)"/>
     </defs>
     <use xlink:href="#DejaVuSans-31"/>
     <use xlink:href="#DejaVuSans-20" x="63.623047"/>
     <use xlink:href="#DejaVuSans-53" x="95.410156"/>
     <use xlink:href="#DejaVuSans-70" x="158.886719"/>
     <use xlink:href="#DejaVuSans-68" x="222.363281"/>
     <use xlink:href="#DejaVuSans-65" x="285.742188"/>
     <use xlink:href="#DejaVuSans-72" x="347.265625"/>
     <use xlink:href="#DejaVuSans-65" x="386.128906"/>
    </g>
   </g>
  </g>
 </g>
 <defs>
  <clipPath id="pfc2feac1c8">
   <rect x="57.6" y="27.648" width="303.2064" height="271.296"/>
  </clipPath>
 </defs>
</svg>
