<?xml version="1.0" encoding="utf-8" standalone="no"?>
<!DOCTYPE svg PUBLIC "-//W3C//DTD SVG 1.1//EN"
  "http://www.w3.org/Graphics/SVG/1.1/DTD/svg11.dtd">
<svg xmlns:xlink="http://www.w3.org/1999/xlink" width="460.8pt" height="345.6pt" viewBox="0 0 460.8 345.6" xmlns="http://www.w3.org/2000/svg" version="1.1">
 <metadata>
  <rdf:RDF xmlns:dc="http://purl.org/dc/elements/1.1/" xmlns:cc="http://creativecommons.org/ns#" xmlns:rdf="http://www.w3.org/1999/02/22-rdf-syntax-ns#">
   <cc:Work>
    <dc:type rdf:resource="http://purl.org/dc/dcmitype/StillImage"/>
    <dc:date>2024-05-29T08:06:05.265235</dc:date>
    <dc:format>image/svg+xml</dc:format>
    <dc:creator>
     <cc:Agent>
      <dc:title>Matplotlib v3.5.1, https://matplotlib.org/</dc:title>
     </cc:Agent>
    </dc:creator>
   </cc:Work>
  </rdf:RDF>
 </metadata>
 <defs>
  <style type="text/css">*{stroke-linejoin: round; stroke-linecap: butt}</style>
 </defs>
 <g id="figure_1">
  <g id="patch_1">
   <path d="M 0 345.6 
L 460.8 345.6 
L 460.8 0 
L 0 0 
z
" style="fill: #ffffff"/>
  </g>
  <g id="axes_1">
   <g id="patch_2">
    <path d="M 57.6 298.944 
L 360.8064 298.944 
L 360.8064 27.648 
L 57.6 27.648 
z
" style="fill: #ffffff"/>
   </g>
   <g id="line2d_1">
    <path d="M 76.050921 298.944 
L 76.050921 267.026824 
L 78.266603 267.026824 
L 78.266603 261.707294 
L 85.184077 261.707294 
L 85.184077 256.387765 
L 95.080704 256.387765 
L 95.080704 251.068235 
L 106.791453 251.068235 
L 106.791453 245.748706 
L 148.923146 245.748706 
L 148.923146 240.429176 
L 154.322673 240.429176 
L 154.322673 235.109647 
L 170.84957 235.109647 
L 170.84957 229.790118 
L 182.05006 229.790118 
L 182.05006 224.470588 
L 182.333448 224.470588 
L 182.333448 219.151059 
L 182.473556 219.151059 
L 182.473556 213.831529 
L 182.791093 213.831529 
L 182.791093 208.512 
L 182.943869 208.512 
L 182.943869 203.192471 
L 183.135094 203.192471 
L 183.135094 197.872941 
L 183.214201 197.872941 
L 183.214201 192.553412 
L 183.332241 192.553412 
L 183.332241 187.233882 
L 183.519577 187.233882 
L 183.519577 181.914353 
L 183.620277 181.914353 
L 183.620277 176.594824 
L 183.79713 176.594824 
L 183.79713 171.275294 
L 183.90397 171.275294 
L 183.90397 165.955765 
L 183.972335 165.955765 
L 183.972335 160.636235 
L 184.055555 160.636235 
L 184.055555 155.316706 
L 184.123372 155.316706 
L 184.123372 149.997176 
L 184.153434 149.997176 
L 184.153434 144.677647 
L 184.228381 144.677647 
L 184.228381 139.358118 
L 184.30303 139.358118 
L 184.30303 134.038588 
L 184.399633 134.038588 
L 184.399633 128.719059 
L 184.473607 128.719059 
L 184.473607 123.399529 
L 184.510485 123.399529 
L 184.510485 118.08 
L 184.628012 118.08 
L 184.628012 112.760471 
L 184.657279 112.760471 
L 184.657279 107.440941 
L 184.73753 107.440941 
L 184.73753 102.121412 
L 184.839175 102.121412 
L 184.839175 96.801882 
L 184.918655 96.801882 
L 184.918655 91.482353 
L 185.00498 91.482353 
L 185.00498 86.162824 
L 185.09091 86.162824 
L 185.09091 80.843294 
L 185.14798 80.843294 
L 185.14798 75.523765 
L 185.183561 75.523765 
L 185.183561 70.204235 
L 185.444788 70.204235 
L 185.444788 64.884706 
L 185.750786 64.884706 
L 185.750786 59.565176 
L 186.0858 59.565176 
L 186.0858 54.245647 
L 186.408292 54.245647 
L 186.408292 48.926118 
L 186.692569 48.926118 
L 186.692569 43.606588 
L 186.738443 43.606588 
L 186.738443 38.287059 
L 186.816825 38.287059 
L 186.816825 32.967529 
L 186.888389 32.967529 
L 186.888389 27.648 
L 360.8064 27.648 
" style="fill: none; stroke: #f5deb3; stroke-width: 4; stroke-linecap: square"/>
   </g>
   <g id="line2d_2">
    <defs>
     <path id="m109437a3db" d="M 0 7.778175 
L 7.778175 0 
L 0 -7.778175 
L -7.778175 0 
z
" style="stroke: #f5deb3; stroke-width: 1.5; stroke-linejoin: miter"/>
    </defs>
    <g>
     <use xlink:href="#m109437a3db" x="170.84957" y="235.109647" style="fill: #f5deb3; stroke: #f5deb3; stroke-width: 1.5; stroke-linejoin: miter"/>
     <use xlink:href="#m109437a3db" x="185.09091" y="80.843294" style="fill: #f5deb3; stroke: #f5deb3; stroke-width: 1.5; stroke-linejoin: miter"/>
     <use xlink:href="#m109437a3db" x="186.888389" y="27.648" style="fill: #f5deb3; stroke: #f5deb3; stroke-width: 1.5; stroke-linejoin: miter"/>
     <use xlink:href="#m109437a3db" x="186.888389" y="27.648" style="fill: #f5deb3; stroke: #f5deb3; stroke-width: 1.5; stroke-linejoin: miter"/>
     <use xlink:href="#m109437a3db" x="360.8064" y="27.648" style="fill: #f5deb3; stroke: #f5deb3; stroke-width: 1.5; stroke-linejoin: miter"/>
    </g>
   </g>
   <g id="line2d_3">
    <path style="fill: none; stroke: #f5deb3; stroke-width: 4; stroke-linecap: square"/>
    <g/>
   </g>
   <g id="line2d_4">
    <path d="M 360.8064 27.648 
L 380.514816 33.07392 
" style="fill: none; stroke: #f5deb3; stroke-width: 4; stroke-linecap: square"/>
    <g>
     <use xlink:href="#m109437a3db" x="360.8064" y="27.648" style="fill: #f5deb3; stroke: #f5deb3; stroke-width: 1.5; stroke-linejoin: miter"/>
     <use xlink:href="#m109437a3db" x="380.514816" y="33.07392" style="fill: #f5deb3; stroke: #f5deb3; stroke-width: 1.5; stroke-linejoin: miter"/>
    </g>
   </g>
   <g id="matplotlib.axis_1">
    <g id="xtick_1">
     <g id="line2d_5">
      <path d="M 57.6 298.944 
L 57.6 27.648 
" clip-path="url(#pcdcaf559cf)" style="fill: none; stroke: #b0b0b0; stroke-width: 0.8; stroke-linecap: square"/>
     </g>
     <g id="line2d_6">
      <defs>
       <path id="m8aba29b509" d="M 0 0 
L 0 3.5 
" style="stroke: #000000; stroke-width: 0.8"/>
      </defs>
      <g>
       <use xlink:href="#m8aba29b509" x="57.6" y="298.944" style="stroke: #000000; stroke-width: 0.8"/>
      </g>
     </g>
     <g id="text_1">
      <!-- 0 -->
      <g transform="translate(52.191875 318.861344)scale(0.17 -0.17)">
       <defs>
        <path id="DejaVuSans-30" d="M 2034 4250 
Q 1547 4250 1301 3770 
Q 1056 3291 1056 2328 
Q 1056 1369 1301 889 
Q 1547 409 2034 409 
Q 2525 409 2770 889 
Q 3016 1369 3016 2328 
Q 3016 3291 2770 3770 
Q 2525 4250 2034 4250 
z
M 2034 4750 
Q 2819 4750 3233 4129 
Q 3647 3509 3647 2328 
Q 3647 1150 3233 529 
Q 2819 -91 2034 -91 
Q 1250 -91 836 529 
Q 422 1150 422 2328 
Q 422 3509 836 4129 
Q 1250 4750 2034 4750 
z
" transform="scale(0.015625)"/>
       </defs>
       <use xlink:href="#DejaVuSans-30"/>
      </g>
     </g>
    </g>
    <g id="xtick_2">
     <g id="line2d_7">
      <path d="M 144.2304 298.944 
L 144.2304 27.648 
" clip-path="url(#pcdcaf559cf)" style="fill: none; stroke: #b0b0b0; stroke-width: 0.8; stroke-linecap: square"/>
     </g>
     <g id="line2d_8">
      <g>
       <use xlink:href="#m8aba29b509" x="144.2304" y="298.944" style="stroke: #000000; stroke-width: 0.8"/>
      </g>
     </g>
     <g id="text_2">
      <!-- 2 -->
      <g transform="translate(138.822275 318.861344)scale(0.17 -0.17)">
       <defs>
        <path id="DejaVuSans-32" d="M 1228 531 
L 3431 531 
L 3431 0 
L 469 0 
L 469 531 
Q 828 903 1448 1529 
Q 2069 2156 2228 2338 
Q 2531 2678 2651 2914 
Q 2772 3150 2772 3378 
Q 2772 3750 2511 3984 
Q 2250 4219 1831 4219 
Q 1534 4219 1204 4116 
Q 875 4013 500 3803 
L 500 4441 
Q 881 4594 1212 4672 
Q 1544 4750 1819 4750 
Q 2544 4750 2975 4387 
Q 3406 4025 3406 3419 
Q 3406 3131 3298 2873 
Q 3191 2616 2906 2266 
Q 2828 2175 2409 1742 
Q 1991 1309 1228 531 
z
" transform="scale(0.015625)"/>
       </defs>
       <use xlink:href="#DejaVuSans-32"/>
      </g>
     </g>
    </g>
    <g id="xtick_3">
     <g id="line2d_9">
      <path d="M 230.8608 298.944 
L 230.8608 27.648 
" clip-path="url(#pcdcaf559cf)" style="fill: none; stroke: #b0b0b0; stroke-width: 0.8; stroke-linecap: square"/>
     </g>
     <g id="line2d_10">
      <g>
       <use xlink:href="#m8aba29b509" x="230.8608" y="298.944" style="stroke: #000000; stroke-width: 0.8"/>
      </g>
     </g>
     <g id="text_3">
      <!-- 4 -->
      <g transform="translate(225.452675 318.861344)scale(0.17 -0.17)">
       <defs>
        <path id="DejaVuSans-34" d="M 2419 4116 
L 825 1625 
L 2419 1625 
L 2419 4116 
z
M 2253 4666 
L 3047 4666 
L 3047 1625 
L 3713 1625 
L 3713 1100 
L 3047 1100 
L 3047 0 
L 2419 0 
L 2419 1100 
L 313 1100 
L 313 1709 
L 2253 4666 
z
" transform="scale(0.015625)"/>
       </defs>
       <use xlink:href="#DejaVuSans-34"/>
      </g>
     </g>
    </g>
    <g id="xtick_4">
     <g id="line2d_11">
      <path d="M 317.4912 298.944 
L 317.4912 27.648 
" clip-path="url(#pcdcaf559cf)" style="fill: none; stroke: #b0b0b0; stroke-width: 0.8; stroke-linecap: square"/>
     </g>
     <g id="line2d_12">
      <g>
       <use xlink:href="#m8aba29b509" x="317.4912" y="298.944" style="stroke: #000000; stroke-width: 0.8"/>
      </g>
     </g>
     <g id="text_4">
      <!-- 6 -->
      <g transform="translate(312.083075 318.861344)scale(0.17 -0.17)">
       <defs>
        <path id="DejaVuSans-36" d="M 2113 2584 
Q 1688 2584 1439 2293 
Q 1191 2003 1191 1497 
Q 1191 994 1439 701 
Q 1688 409 2113 409 
Q 2538 409 2786 701 
Q 3034 994 3034 1497 
Q 3034 2003 2786 2293 
Q 2538 2584 2113 2584 
z
M 3366 4563 
L 3366 3988 
Q 3128 4100 2886 4159 
Q 2644 4219 2406 4219 
Q 1781 4219 1451 3797 
Q 1122 3375 1075 2522 
Q 1259 2794 1537 2939 
Q 1816 3084 2150 3084 
Q 2853 3084 3261 2657 
Q 3669 2231 3669 1497 
Q 3669 778 3244 343 
Q 2819 -91 2113 -91 
Q 1303 -91 875 529 
Q 447 1150 447 2328 
Q 447 3434 972 4092 
Q 1497 4750 2381 4750 
Q 2619 4750 2861 4703 
Q 3103 4656 3366 4563 
z
" transform="scale(0.015625)"/>
       </defs>
       <use xlink:href="#DejaVuSans-36"/>
      </g>
     </g>
    </g>
    <g id="xtick_5">
     <g id="line2d_13">
      <path d="M 100.9152 298.944 
L 100.9152 27.648 
" clip-path="url(#pcdcaf559cf)" style="fill: none; stroke: #b0b0b0; stroke-width: 0.8; stroke-linecap: square"/>
     </g>
     <g id="line2d_14">
      <defs>
       <path id="mc21d7c4ba3" d="M 0 0 
L 0 2 
" style="stroke: #000000; stroke-width: 0.6"/>
      </defs>
      <g>
       <use xlink:href="#mc21d7c4ba3" x="100.9152" y="298.944" style="stroke: #000000; stroke-width: 0.6"/>
      </g>
     </g>
    </g>
    <g id="xtick_6">
     <g id="line2d_15">
      <path d="M 187.5456 298.944 
L 187.5456 27.648 
" clip-path="url(#pcdcaf559cf)" style="fill: none; stroke: #b0b0b0; stroke-width: 0.8; stroke-linecap: square"/>
     </g>
     <g id="line2d_16">
      <g>
       <use xlink:href="#mc21d7c4ba3" x="187.5456" y="298.944" style="stroke: #000000; stroke-width: 0.6"/>
      </g>
     </g>
    </g>
    <g id="xtick_7">
     <g id="line2d_17">
      <path d="M 274.176 298.944 
L 274.176 27.648 
" clip-path="url(#pcdcaf559cf)" style="fill: none; stroke: #b0b0b0; stroke-width: 0.8; stroke-linecap: square"/>
     </g>
     <g id="line2d_18">
      <g>
       <use xlink:href="#mc21d7c4ba3" x="274.176" y="298.944" style="stroke: #000000; stroke-width: 0.6"/>
      </g>
     </g>
    </g>
    <g id="xtick_8">
     <g id="line2d_19">
      <path d="M 360.8064 298.944 
L 360.8064 27.648 
" clip-path="url(#pcdcaf559cf)" style="fill: none; stroke: #b0b0b0; stroke-width: 0.8; stroke-linecap: square"/>
     </g>
     <g id="line2d_20">
      <g>
       <use xlink:href="#mc21d7c4ba3" x="360.8064" y="298.944" style="stroke: #000000; stroke-width: 0.6"/>
      </g>
     </g>
    </g>
    <g id="text_5">
     <!-- log10(# f-evals / dimension) -->
     <g transform="translate(88.823278 339.314156)scale(0.17 -0.17)">
      <defs>
       <path id="DejaVuSans-6c" d="M 603 4863 
L 1178 4863 
L 1178 0 
L 603 0 
L 603 4863 
z
" transform="scale(0.015625)"/>
       <path id="DejaVuSans-6f" d="M 1959 3097 
Q 1497 3097 1228 2736 
Q 959 2375 959 1747 
Q 959 1119 1226 758 
Q 1494 397 1959 397 
Q 2419 397 2687 759 
Q 2956 1122 2956 1747 
Q 2956 2369 2687 2733 
Q 2419 3097 1959 3097 
z
M 1959 3584 
Q 2709 3584 3137 3096 
Q 3566 2609 3566 1747 
Q 3566 888 3137 398 
Q 2709 -91 1959 -91 
Q 1206 -91 779 398 
Q 353 888 353 1747 
Q 353 2609 779 3096 
Q 1206 3584 1959 3584 
z
" transform="scale(0.015625)"/>
       <path id="DejaVuSans-67" d="M 2906 1791 
Q 2906 2416 2648 2759 
Q 2391 3103 1925 3103 
Q 1463 3103 1205 2759 
Q 947 2416 947 1791 
Q 947 1169 1205 825 
Q 1463 481 1925 481 
Q 2391 481 2648 825 
Q 2906 1169 2906 1791 
z
M 3481 434 
Q 3481 -459 3084 -895 
Q 2688 -1331 1869 -1331 
Q 1566 -1331 1297 -1286 
Q 1028 -1241 775 -1147 
L 775 -588 
Q 1028 -725 1275 -790 
Q 1522 -856 1778 -856 
Q 2344 -856 2625 -561 
Q 2906 -266 2906 331 
L 2906 616 
Q 2728 306 2450 153 
Q 2172 0 1784 0 
Q 1141 0 747 490 
Q 353 981 353 1791 
Q 353 2603 747 3093 
Q 1141 3584 1784 3584 
Q 2172 3584 2450 3431 
Q 2728 3278 2906 2969 
L 2906 3500 
L 3481 3500 
L 3481 434 
z
" transform="scale(0.015625)"/>
       <path id="DejaVuSans-31" d="M 794 531 
L 1825 531 
L 1825 4091 
L 703 3866 
L 703 4441 
L 1819 4666 
L 2450 4666 
L 2450 531 
L 3481 531 
L 3481 0 
L 794 0 
L 794 531 
z
" transform="scale(0.015625)"/>
       <path id="DejaVuSans-28" d="M 1984 4856 
Q 1566 4138 1362 3434 
Q 1159 2731 1159 2009 
Q 1159 1288 1364 580 
Q 1569 -128 1984 -844 
L 1484 -844 
Q 1016 -109 783 600 
Q 550 1309 550 2009 
Q 550 2706 781 3412 
Q 1013 4119 1484 4856 
L 1984 4856 
z
" transform="scale(0.015625)"/>
       <path id="DejaVuSans-23" d="M 3272 2816 
L 2363 2816 
L 2100 1772 
L 3016 1772 
L 3272 2816 
z
M 2803 4594 
L 2478 3297 
L 3391 3297 
L 3719 4594 
L 4219 4594 
L 3897 3297 
L 4872 3297 
L 4872 2816 
L 3775 2816 
L 3519 1772 
L 4513 1772 
L 4513 1294 
L 3397 1294 
L 3072 0 
L 2572 0 
L 2894 1294 
L 1978 1294 
L 1656 0 
L 1153 0 
L 1478 1294 
L 494 1294 
L 494 1772 
L 1594 1772 
L 1856 2816 
L 850 2816 
L 850 3297 
L 1978 3297 
L 2297 4594 
L 2803 4594 
z
" transform="scale(0.015625)"/>
       <path id="DejaVuSans-20" transform="scale(0.015625)"/>
       <path id="DejaVuSans-66" d="M 2375 4863 
L 2375 4384 
L 1825 4384 
Q 1516 4384 1395 4259 
Q 1275 4134 1275 3809 
L 1275 3500 
L 2222 3500 
L 2222 3053 
L 1275 3053 
L 1275 0 
L 697 0 
L 697 3053 
L 147 3053 
L 147 3500 
L 697 3500 
L 697 3744 
Q 697 4328 969 4595 
Q 1241 4863 1831 4863 
L 2375 4863 
z
" transform="scale(0.015625)"/>
       <path id="DejaVuSans-2d" d="M 313 2009 
L 1997 2009 
L 1997 1497 
L 313 1497 
L 313 2009 
z
" transform="scale(0.015625)"/>
       <path id="DejaVuSans-65" d="M 3597 1894 
L 3597 1613 
L 953 1613 
Q 991 1019 1311 708 
Q 1631 397 2203 397 
Q 2534 397 2845 478 
Q 3156 559 3463 722 
L 3463 178 
Q 3153 47 2828 -22 
Q 2503 -91 2169 -91 
Q 1331 -91 842 396 
Q 353 884 353 1716 
Q 353 2575 817 3079 
Q 1281 3584 2069 3584 
Q 2775 3584 3186 3129 
Q 3597 2675 3597 1894 
z
M 3022 2063 
Q 3016 2534 2758 2815 
Q 2500 3097 2075 3097 
Q 1594 3097 1305 2825 
Q 1016 2553 972 2059 
L 3022 2063 
z
" transform="scale(0.015625)"/>
       <path id="DejaVuSans-76" d="M 191 3500 
L 800 3500 
L 1894 563 
L 2988 3500 
L 3597 3500 
L 2284 0 
L 1503 0 
L 191 3500 
z
" transform="scale(0.015625)"/>
       <path id="DejaVuSans-61" d="M 2194 1759 
Q 1497 1759 1228 1600 
Q 959 1441 959 1056 
Q 959 750 1161 570 
Q 1363 391 1709 391 
Q 2188 391 2477 730 
Q 2766 1069 2766 1631 
L 2766 1759 
L 2194 1759 
z
M 3341 1997 
L 3341 0 
L 2766 0 
L 2766 531 
Q 2569 213 2275 61 
Q 1981 -91 1556 -91 
Q 1019 -91 701 211 
Q 384 513 384 1019 
Q 384 1609 779 1909 
Q 1175 2209 1959 2209 
L 2766 2209 
L 2766 2266 
Q 2766 2663 2505 2880 
Q 2244 3097 1772 3097 
Q 1472 3097 1187 3025 
Q 903 2953 641 2809 
L 641 3341 
Q 956 3463 1253 3523 
Q 1550 3584 1831 3584 
Q 2591 3584 2966 3190 
Q 3341 2797 3341 1997 
z
" transform="scale(0.015625)"/>
       <path id="DejaVuSans-73" d="M 2834 3397 
L 2834 2853 
Q 2591 2978 2328 3040 
Q 2066 3103 1784 3103 
Q 1356 3103 1142 2972 
Q 928 2841 928 2578 
Q 928 2378 1081 2264 
Q 1234 2150 1697 2047 
L 1894 2003 
Q 2506 1872 2764 1633 
Q 3022 1394 3022 966 
Q 3022 478 2636 193 
Q 2250 -91 1575 -91 
Q 1294 -91 989 -36 
Q 684 19 347 128 
L 347 722 
Q 666 556 975 473 
Q 1284 391 1588 391 
Q 1994 391 2212 530 
Q 2431 669 2431 922 
Q 2431 1156 2273 1281 
Q 2116 1406 1581 1522 
L 1381 1569 
Q 847 1681 609 1914 
Q 372 2147 372 2553 
Q 372 3047 722 3315 
Q 1072 3584 1716 3584 
Q 2034 3584 2315 3537 
Q 2597 3491 2834 3397 
z
" transform="scale(0.015625)"/>
       <path id="DejaVuSans-2f" d="M 1625 4666 
L 2156 4666 
L 531 -594 
L 0 -594 
L 1625 4666 
z
" transform="scale(0.015625)"/>
       <path id="DejaVuSans-64" d="M 2906 2969 
L 2906 4863 
L 3481 4863 
L 3481 0 
L 2906 0 
L 2906 525 
Q 2725 213 2448 61 
Q 2172 -91 1784 -91 
Q 1150 -91 751 415 
Q 353 922 353 1747 
Q 353 2572 751 3078 
Q 1150 3584 1784 3584 
Q 2172 3584 2448 3432 
Q 2725 3281 2906 2969 
z
M 947 1747 
Q 947 1113 1208 752 
Q 1469 391 1925 391 
Q 2381 391 2643 752 
Q 2906 1113 2906 1747 
Q 2906 2381 2643 2742 
Q 2381 3103 1925 3103 
Q 1469 3103 1208 2742 
Q 947 2381 947 1747 
z
" transform="scale(0.015625)"/>
       <path id="DejaVuSans-69" d="M 603 3500 
L 1178 3500 
L 1178 0 
L 603 0 
L 603 3500 
z
M 603 4863 
L 1178 4863 
L 1178 4134 
L 603 4134 
L 603 4863 
z
" transform="scale(0.015625)"/>
       <path id="DejaVuSans-6d" d="M 3328 2828 
Q 3544 3216 3844 3400 
Q 4144 3584 4550 3584 
Q 5097 3584 5394 3201 
Q 5691 2819 5691 2113 
L 5691 0 
L 5113 0 
L 5113 2094 
Q 5113 2597 4934 2840 
Q 4756 3084 4391 3084 
Q 3944 3084 3684 2787 
Q 3425 2491 3425 1978 
L 3425 0 
L 2847 0 
L 2847 2094 
Q 2847 2600 2669 2842 
Q 2491 3084 2119 3084 
Q 1678 3084 1418 2786 
Q 1159 2488 1159 1978 
L 1159 0 
L 581 0 
L 581 3500 
L 1159 3500 
L 1159 2956 
Q 1356 3278 1631 3431 
Q 1906 3584 2284 3584 
Q 2666 3584 2933 3390 
Q 3200 3197 3328 2828 
z
" transform="scale(0.015625)"/>
       <path id="DejaVuSans-6e" d="M 3513 2113 
L 3513 0 
L 2938 0 
L 2938 2094 
Q 2938 2591 2744 2837 
Q 2550 3084 2163 3084 
Q 1697 3084 1428 2787 
Q 1159 2491 1159 1978 
L 1159 0 
L 581 0 
L 581 3500 
L 1159 3500 
L 1159 2956 
Q 1366 3272 1645 3428 
Q 1925 3584 2291 3584 
Q 2894 3584 3203 3211 
Q 3513 2838 3513 2113 
z
" transform="scale(0.015625)"/>
       <path id="DejaVuSans-29" d="M 513 4856 
L 1013 4856 
Q 1481 4119 1714 3412 
Q 1947 2706 1947 2009 
Q 1947 1309 1714 600 
Q 1481 -109 1013 -844 
L 513 -844 
Q 928 -128 1133 580 
Q 1338 1288 1338 2009 
Q 1338 2731 1133 3434 
Q 928 4138 513 4856 
z
" transform="scale(0.015625)"/>
      </defs>
      <use xlink:href="#DejaVuSans-6c"/>
      <use xlink:href="#DejaVuSans-6f" x="27.783203"/>
      <use xlink:href="#DejaVuSans-67" x="88.964844"/>
      <use xlink:href="#DejaVuSans-31" x="152.441406"/>
      <use xlink:href="#DejaVuSans-30" x="216.064453"/>
      <use xlink:href="#DejaVuSans-28" x="279.6875"/>
      <use xlink:href="#DejaVuSans-23" x="318.701172"/>
      <use xlink:href="#DejaVuSans-20" x="402.490234"/>
      <use xlink:href="#DejaVuSans-66" x="434.277344"/>
      <use xlink:href="#DejaVuSans-2d" x="463.982422"/>
      <use xlink:href="#DejaVuSans-65" x="500.066406"/>
      <use xlink:href="#DejaVuSans-76" x="561.589844"/>
      <use xlink:href="#DejaVuSans-61" x="620.769531"/>
      <use xlink:href="#DejaVuSans-6c" x="682.048828"/>
      <use xlink:href="#DejaVuSans-73" x="709.832031"/>
      <use xlink:href="#DejaVuSans-20" x="761.931641"/>
      <use xlink:href="#DejaVuSans-2f" x="793.71875"/>
      <use xlink:href="#DejaVuSans-20" x="827.410156"/>
      <use xlink:href="#DejaVuSans-64" x="859.197266"/>
      <use xlink:href="#DejaVuSans-69" x="922.673828"/>
      <use xlink:href="#DejaVuSans-6d" x="950.457031"/>
      <use xlink:href="#DejaVuSans-65" x="1047.869141"/>
      <use xlink:href="#DejaVuSans-6e" x="1109.392578"/>
      <use xlink:href="#DejaVuSans-73" x="1172.771484"/>
      <use xlink:href="#DejaVuSans-69" x="1224.871094"/>
      <use xlink:href="#DejaVuSans-6f" x="1252.654297"/>
      <use xlink:href="#DejaVuSans-6e" x="1313.835938"/>
      <use xlink:href="#DejaVuSans-29" x="1377.214844"/>
     </g>
    </g>
   </g>
   <g id="matplotlib.axis_2">
    <g id="ytick_1">
     <g id="line2d_21">
      <path d="M 57.6 298.944 
L 360.8064 298.944 
" clip-path="url(#pcdcaf559cf)" style="fill: none; stroke: #b0b0b0; stroke-width: 0.8; stroke-linecap: square"/>
     </g>
     <g id="line2d_22">
      <defs>
       <path id="m042a40f725" d="M 0 0 
L -3.5 0 
" style="stroke: #000000; stroke-width: 0.8"/>
      </defs>
      <g>
       <use xlink:href="#m042a40f725" x="57.6" y="298.944" style="stroke: #000000; stroke-width: 0.8"/>
      </g>
     </g>
     <g id="text_6">
      <!-- 0.0 -->
      <g transform="translate(25.155 305.02275)scale(0.16 -0.16)">
       <defs>
        <path id="DejaVuSans-2e" d="M 684 794 
L 1344 794 
L 1344 0 
L 684 0 
L 684 794 
z
" transform="scale(0.015625)"/>
       </defs>
       <use xlink:href="#DejaVuSans-30"/>
       <use xlink:href="#DejaVuSans-2e" x="63.623047"/>
       <use xlink:href="#DejaVuSans-30" x="95.410156"/>
      </g>
     </g>
    </g>
    <g id="ytick_2">
     <g id="line2d_23">
      <path d="M 57.6 244.6848 
L 360.8064 244.6848 
" clip-path="url(#pcdcaf559cf)" style="fill: none; stroke: #b0b0b0; stroke-width: 0.8; stroke-linecap: square"/>
     </g>
     <g id="line2d_24">
      <g>
       <use xlink:href="#m042a40f725" x="57.6" y="244.6848" style="stroke: #000000; stroke-width: 0.8"/>
      </g>
     </g>
     <g id="text_7">
      <!-- 0.2 -->
      <g transform="translate(25.155 250.76355)scale(0.16 -0.16)">
       <use xlink:href="#DejaVuSans-30"/>
       <use xlink:href="#DejaVuSans-2e" x="63.623047"/>
       <use xlink:href="#DejaVuSans-32" x="95.410156"/>
      </g>
     </g>
    </g>
    <g id="ytick_3">
     <g id="line2d_25">
      <path d="M 57.6 190.4256 
L 360.8064 190.4256 
" clip-path="url(#pcdcaf559cf)" style="fill: none; stroke: #b0b0b0; stroke-width: 0.8; stroke-linecap: square"/>
     </g>
     <g id="line2d_26">
      <g>
       <use xlink:href="#m042a40f725" x="57.6" y="190.4256" style="stroke: #000000; stroke-width: 0.8"/>
      </g>
     </g>
     <g id="text_8">
      <!-- 0.4 -->
      <g transform="translate(25.155 196.50435)scale(0.16 -0.16)">
       <use xlink:href="#DejaVuSans-30"/>
       <use xlink:href="#DejaVuSans-2e" x="63.623047"/>
       <use xlink:href="#DejaVuSans-34" x="95.410156"/>
      </g>
     </g>
    </g>
    <g id="ytick_4">
     <g id="line2d_27">
      <path d="M 57.6 136.1664 
L 360.8064 136.1664 
" clip-path="url(#pcdcaf559cf)" style="fill: none; stroke: #b0b0b0; stroke-width: 0.8; stroke-linecap: square"/>
     </g>
     <g id="line2d_28">
      <g>
       <use xlink:href="#m042a40f725" x="57.6" y="136.1664" style="stroke: #000000; stroke-width: 0.8"/>
      </g>
     </g>
     <g id="text_9">
      <!-- 0.6 -->
      <g transform="translate(25.155 142.24515)scale(0.16 -0.16)">
       <use xlink:href="#DejaVuSans-30"/>
       <use xlink:href="#DejaVuSans-2e" x="63.623047"/>
       <use xlink:href="#DejaVuSans-36" x="95.410156"/>
      </g>
     </g>
    </g>
    <g id="ytick_5">
     <g id="line2d_29">
      <path d="M 57.6 81.9072 
L 360.8064 81.9072 
" clip-path="url(#pcdcaf559cf)" style="fill: none; stroke: #b0b0b0; stroke-width: 0.8; stroke-linecap: square"/>
     </g>
     <g id="line2d_30">
      <g>
       <use xlink:href="#m042a40f725" x="57.6" y="81.9072" style="stroke: #000000; stroke-width: 0.8"/>
      </g>
     </g>
     <g id="text_10">
      <!-- 0.8 -->
      <g transform="translate(25.155 87.98595)scale(0.16 -0.16)">
       <defs>
        <path id="DejaVuSans-38" d="M 2034 2216 
Q 1584 2216 1326 1975 
Q 1069 1734 1069 1313 
Q 1069 891 1326 650 
Q 1584 409 2034 409 
Q 2484 409 2743 651 
Q 3003 894 3003 1313 
Q 3003 1734 2745 1975 
Q 2488 2216 2034 2216 
z
M 1403 2484 
Q 997 2584 770 2862 
Q 544 3141 544 3541 
Q 544 4100 942 4425 
Q 1341 4750 2034 4750 
Q 2731 4750 3128 4425 
Q 3525 4100 3525 3541 
Q 3525 3141 3298 2862 
Q 3072 2584 2669 2484 
Q 3125 2378 3379 2068 
Q 3634 1759 3634 1313 
Q 3634 634 3220 271 
Q 2806 -91 2034 -91 
Q 1263 -91 848 271 
Q 434 634 434 1313 
Q 434 1759 690 2068 
Q 947 2378 1403 2484 
z
M 1172 3481 
Q 1172 3119 1398 2916 
Q 1625 2713 2034 2713 
Q 2441 2713 2670 2916 
Q 2900 3119 2900 3481 
Q 2900 3844 2670 4047 
Q 2441 4250 2034 4250 
Q 1625 4250 1398 4047 
Q 1172 3844 1172 3481 
z
" transform="scale(0.015625)"/>
       </defs>
       <use xlink:href="#DejaVuSans-30"/>
       <use xlink:href="#DejaVuSans-2e" x="63.623047"/>
       <use xlink:href="#DejaVuSans-38" x="95.410156"/>
      </g>
     </g>
    </g>
    <g id="ytick_6">
     <g id="line2d_31">
      <path d="M 57.6 27.648 
L 360.8064 27.648 
" clip-path="url(#pcdcaf559cf)" style="fill: none; stroke: #b0b0b0; stroke-width: 0.8; stroke-linecap: square"/>
     </g>
     <g id="line2d_32">
      <g>
       <use xlink:href="#m042a40f725" x="57.6" y="27.648" style="stroke: #000000; stroke-width: 0.8"/>
      </g>
     </g>
     <g id="text_11">
      <!-- 1.0 -->
      <g transform="translate(25.155 33.72675)scale(0.16 -0.16)">
       <use xlink:href="#DejaVuSans-31"/>
       <use xlink:href="#DejaVuSans-2e" x="63.623047"/>
       <use xlink:href="#DejaVuSans-30" x="95.410156"/>
      </g>
     </g>
    </g>
    <g id="text_12">
     <!-- Fraction of function,target pairs -->
     <g transform="translate(17.619531 297.681)rotate(-90)scale(0.17 -0.17)">
      <defs>
       <path id="DejaVuSans-46" d="M 628 4666 
L 3309 4666 
L 3309 4134 
L 1259 4134 
L 1259 2759 
L 3109 2759 
L 3109 2228 
L 1259 2228 
L 1259 0 
L 628 0 
L 628 4666 
z
" transform="scale(0.015625)"/>
       <path id="DejaVuSans-72" d="M 2631 2963 
Q 2534 3019 2420 3045 
Q 2306 3072 2169 3072 
Q 1681 3072 1420 2755 
Q 1159 2438 1159 1844 
L 1159 0 
L 581 0 
L 581 3500 
L 1159 3500 
L 1159 2956 
Q 1341 3275 1631 3429 
Q 1922 3584 2338 3584 
Q 2397 3584 2469 3576 
Q 2541 3569 2628 3553 
L 2631 2963 
z
" transform="scale(0.015625)"/>
       <path id="DejaVuSans-63" d="M 3122 3366 
L 3122 2828 
Q 2878 2963 2633 3030 
Q 2388 3097 2138 3097 
Q 1578 3097 1268 2742 
Q 959 2388 959 1747 
Q 959 1106 1268 751 
Q 1578 397 2138 397 
Q 2388 397 2633 464 
Q 2878 531 3122 666 
L 3122 134 
Q 2881 22 2623 -34 
Q 2366 -91 2075 -91 
Q 1284 -91 818 406 
Q 353 903 353 1747 
Q 353 2603 823 3093 
Q 1294 3584 2113 3584 
Q 2378 3584 2631 3529 
Q 2884 3475 3122 3366 
z
" transform="scale(0.015625)"/>
       <path id="DejaVuSans-74" d="M 1172 4494 
L 1172 3500 
L 2356 3500 
L 2356 3053 
L 1172 3053 
L 1172 1153 
Q 1172 725 1289 603 
Q 1406 481 1766 481 
L 2356 481 
L 2356 0 
L 1766 0 
Q 1100 0 847 248 
Q 594 497 594 1153 
L 594 3053 
L 172 3053 
L 172 3500 
L 594 3500 
L 594 4494 
L 1172 4494 
z
" transform="scale(0.015625)"/>
       <path id="DejaVuSans-75" d="M 544 1381 
L 544 3500 
L 1119 3500 
L 1119 1403 
Q 1119 906 1312 657 
Q 1506 409 1894 409 
Q 2359 409 2629 706 
Q 2900 1003 2900 1516 
L 2900 3500 
L 3475 3500 
L 3475 0 
L 2900 0 
L 2900 538 
Q 2691 219 2414 64 
Q 2138 -91 1772 -91 
Q 1169 -91 856 284 
Q 544 659 544 1381 
z
M 1991 3584 
L 1991 3584 
z
" transform="scale(0.015625)"/>
       <path id="DejaVuSans-2c" d="M 750 794 
L 1409 794 
L 1409 256 
L 897 -744 
L 494 -744 
L 750 256 
L 750 794 
z
" transform="scale(0.015625)"/>
       <path id="DejaVuSans-70" d="M 1159 525 
L 1159 -1331 
L 581 -1331 
L 581 3500 
L 1159 3500 
L 1159 2969 
Q 1341 3281 1617 3432 
Q 1894 3584 2278 3584 
Q 2916 3584 3314 3078 
Q 3713 2572 3713 1747 
Q 3713 922 3314 415 
Q 2916 -91 2278 -91 
Q 1894 -91 1617 61 
Q 1341 213 1159 525 
z
M 3116 1747 
Q 3116 2381 2855 2742 
Q 2594 3103 2138 3103 
Q 1681 3103 1420 2742 
Q 1159 2381 1159 1747 
Q 1159 1113 1420 752 
Q 1681 391 2138 391 
Q 2594 391 2855 752 
Q 3116 1113 3116 1747 
z
" transform="scale(0.015625)"/>
      </defs>
      <use xlink:href="#DejaVuSans-46"/>
      <use xlink:href="#DejaVuSans-72" x="50.269531"/>
      <use xlink:href="#DejaVuSans-61" x="91.382812"/>
      <use xlink:href="#DejaVuSans-63" x="152.662109"/>
      <use xlink:href="#DejaVuSans-74" x="207.642578"/>
      <use xlink:href="#DejaVuSans-69" x="246.851562"/>
      <use xlink:href="#DejaVuSans-6f" x="274.634766"/>
      <use xlink:href="#DejaVuSans-6e" x="335.816406"/>
      <use xlink:href="#DejaVuSans-20" x="399.195312"/>
      <use xlink:href="#DejaVuSans-6f" x="430.982422"/>
      <use xlink:href="#DejaVuSans-66" x="492.164062"/>
      <use xlink:href="#DejaVuSans-20" x="527.369141"/>
      <use xlink:href="#DejaVuSans-66" x="559.15625"/>
      <use xlink:href="#DejaVuSans-75" x="594.361328"/>
      <use xlink:href="#DejaVuSans-6e" x="657.740234"/>
      <use xlink:href="#DejaVuSans-63" x="721.119141"/>
      <use xlink:href="#DejaVuSans-74" x="776.099609"/>
      <use xlink:href="#DejaVuSans-69" x="815.308594"/>
      <use xlink:href="#DejaVuSans-6f" x="843.091797"/>
      <use xlink:href="#DejaVuSans-6e" x="904.273438"/>
      <use xlink:href="#DejaVuSans-2c" x="967.652344"/>
      <use xlink:href="#DejaVuSans-74" x="999.439453"/>
      <use xlink:href="#DejaVuSans-61" x="1038.648438"/>
      <use xlink:href="#DejaVuSans-72" x="1099.927734"/>
      <use xlink:href="#DejaVuSans-67" x="1139.291016"/>
      <use xlink:href="#DejaVuSans-65" x="1202.767578"/>
      <use xlink:href="#DejaVuSans-74" x="1264.291016"/>
      <use xlink:href="#DejaVuSans-20" x="1303.5"/>
      <use xlink:href="#DejaVuSans-70" x="1335.287109"/>
      <use xlink:href="#DejaVuSans-61" x="1398.763672"/>
      <use xlink:href="#DejaVuSans-69" x="1460.042969"/>
      <use xlink:href="#DejaVuSans-72" x="1487.826172"/>
      <use xlink:href="#DejaVuSans-73" x="1528.939453"/>
     </g>
    </g>
   </g>
   <g id="line2d_33">
    <defs>
     <path id="m169ab7ef9f" d="M 0 1.5 
C 0.397805 1.5 0.77937 1.341951 1.06066 1.06066 
C 1.341951 0.77937 1.5 0.397805 1.5 0 
C 1.5 -0.397805 1.341951 -0.77937 1.06066 -1.06066 
C 0.77937 -1.341951 0.397805 -1.5 0 -1.5 
C -0.397805 -1.5 -0.77937 -1.341951 -1.06066 -1.06066 
C -1.341951 -0.77937 -1.5 -0.397805 -1.5 0 
C -1.5 0.397805 -1.341951 0.77937 -1.06066 1.06066 
C -0.77937 1.341951 -0.397805 1.5 0 1.5 
z
" style="stroke: #f5deb3"/>
    </defs>
    <g>
     <use xlink:href="#m169ab7ef9f" x="186.888389" y="27.648" style="fill: #f5deb3; stroke: #f5deb3"/>
     <use xlink:href="#m169ab7ef9f" x="186.888389" y="27.648" style="fill: #f5deb3; stroke: #f5deb3"/>
    </g>
   </g>
   <g id="line2d_34">
    <defs>
     <path id="m4cc601ee93" d="M 0 1.5 
C 0.397805 1.5 0.77937 1.341951 1.06066 1.06066 
C 1.341951 0.77937 1.5 0.397805 1.5 0 
C 1.5 -0.397805 1.341951 -0.77937 1.06066 -1.06066 
C 0.77937 -1.341951 0.397805 -1.5 0 -1.5 
C -0.397805 -1.5 -0.77937 -1.341951 -1.06066 -1.06066 
C -1.341951 -0.77937 -1.5 -0.397805 -1.5 0 
C -1.5 0.397805 -1.341951 0.77937 -1.06066 1.06066 
C -0.77937 1.341951 -0.397805 1.5 0 1.5 
z
" style="stroke: #000080"/>
    </defs>
    <g>
     <use xlink:href="#m4cc601ee93" x="289.202144" y="27.648" style="fill: #000080; stroke: #000080"/>
     <use xlink:href="#m4cc601ee93" x="289.202144" y="27.648" style="fill: #000080; stroke: #000080"/>
    </g>
   </g>
   <g id="line2d_35">
    <path d="M 36.933397 298.944 
L 36.933397 298.589365 
L 49.972572 298.589365 
L 49.972572 295.752282 
L 63.011746 295.752282 
L 63.011746 291.496659 
L 70.639174 291.496659 
L 70.639174 287.950306 
L 76.050921 287.950306 
L 76.050921 285.822494 
L 85.184077 285.822494 
L 85.184077 283.340047 
L 87.876026 283.340047 
L 87.876026 282.985412 
L 91.305777 282.985412 
L 91.305777 282.276141 
L 93.287772 282.276141 
L 93.287772 279.439059 
L 96.717523 279.439059 
L 96.717523 279.084424 
L 97.485448 279.084424 
L 97.485448 276.601976 
L 98.223251 276.601976 
L 98.223251 275.538071 
L 100.277459 275.538071 
L 100.277459 275.183435 
L 106.791453 275.183435 
L 106.791453 274.8288 
L 107.244765 274.8288 
L 107.244765 274.474165 
L 108.119879 274.474165 
L 108.119879 272.346353 
L 109.360651 272.346353 
L 109.360651 270.218541 
L 110.524623 270.218541 
L 110.524623 269.154635 
L 111.262425 269.154635 
L 111.262425 266.672188 
L 112.989468 266.672188 
L 112.989468 263.835106 
L 113.954374 263.835106 
L 113.954374 263.480471 
L 114.872193 263.480471 
L 114.872193 260.288753 
L 118.401214 260.288753 
L 118.401214 259.934118 
L 122.399825 259.934118 
L 122.399825 259.579482 
L 123.563797 259.579482 
L 123.563797 259.224847 
L 125.862901 259.224847 
L 125.862901 258.515576 
L 128.354013 258.515576 
L 128.354013 258.160941 
L 128.928456 258.160941 
L 128.928456 256.7424 
L 130.553485 256.7424 
L 130.553485 255.678494 
L 131.440389 255.678494 
L 131.440389 255.323859 
L 133.097823 255.323859 
L 133.097823 254.969224 
L 133.545739 254.969224 
L 133.545739 254.614588 
L 138.985129 254.614588 
L 138.985129 253.905318 
L 139.475893 253.905318 
L 139.475893 253.550682 
L 141.538451 253.550682 
L 141.538451 252.841412 
L 144.10457 252.841412 
L 144.10457 252.486776 
L 151.774035 252.486776 
L 151.774035 252.132141 
L 154.468783 252.132141 
L 154.468783 251.777506 
L 154.900425 251.777506 
L 154.900425 251.422871 
L 155.042132 251.422871 
L 155.042132 251.068235 
L 155.460959 251.068235 
L 155.529866 250.004329 
L 155.735085 250.004329 
L 155.836861 249.295059 
L 156.005274 249.295059 
L 156.005274 248.940424 
L 156.138926 248.940424 
L 156.138926 248.585788 
L 156.728884 248.585788 
L 156.728884 247.876518 
L 157.916719 247.876518 
L 158.007377 246.457976 
L 159.005416 246.457976 
L 159.005416 246.103341 
L 159.204482 246.103341 
L 159.204482 245.748706 
L 160.276577 245.748706 
L 160.383158 244.6848 
L 160.436223 244.6848 
L 160.436223 244.330165 
L 160.646999 244.330165 
L 160.673181 243.620894 
L 161.189305 243.620894 
L 161.189305 243.266259 
L 162.229155 243.266259 
L 162.229155 242.911624 
L 162.657792 242.911624 
L 162.657792 242.556988 
L 162.961399 242.556988 
L 162.961399 242.202353 
L 165.735027 242.202353 
L 165.735027 241.138447 
L 165.914091 241.138447 
L 165.914091 240.783812 
L 167.939599 240.783812 
L 167.939599 240.429176 
L 169.671008 240.429176 
L 169.671008 239.365271 
L 170.864796 239.365271 
L 170.864796 239.010635 
L 171.271304 239.010635 
L 171.315934 237.946729 
L 171.390083 237.946729 
L 171.390083 237.592094 
L 171.785513 237.592094 
L 171.785513 237.237459 
L 171.972982 237.237459 
L 171.972982 236.882824 
L 172.257795 236.882824 
L 172.257795 236.173553 
L 173.235417 236.173553 
L 173.235417 235.464282 
L 177.704841 235.464282 
L 177.704841 235.109647 
L 178.040396 235.109647 
L 178.040396 234.400376 
L 178.482075 234.400376 
L 178.482075 233.336471 
L 178.953265 233.336471 
L 178.953265 232.272565 
L 179.748101 232.272565 
L 179.748101 231.917929 
L 180.021352 231.917929 
L 180.030704 231.208659 
L 180.871788 231.208659 
L 180.907518 230.144753 
L 181.093992 230.144753 
L 181.093992 229.790118 
L 181.217289 229.790118 
L 181.217289 228.016941 
L 181.452818 228.016941 
L 181.452818 227.662306 
L 182.008023 227.662306 
L 182.008023 227.307671 
L 182.183951 227.307671 
L 182.183951 226.953035 
L 182.823359 226.953035 
L 182.823359 226.5984 
L 183.269378 226.5984 
L 183.269378 226.243765 
L 183.394894 226.243765 
L 183.449544 223.052047 
L 183.60482 223.052047 
L 183.60482 222.697412 
L 183.865883 222.697412 
L 183.865883 220.924235 
L 184.040451 220.924235 
L 184.040451 220.5696 
L 184.168447 220.5696 
L 184.168447 219.151059 
L 184.451445 219.151059 
L 184.554643 218.087153 
L 184.759357 218.087153 
L 184.79568 216.313976 
L 186.888389 216.313976 
L 186.953212 215.604706 
L 187.197521 215.604706 
L 187.254922 214.895435 
L 187.38818 214.895435 
L 187.38818 214.5408 
L 187.507939 214.5408 
L 187.507939 213.831529 
L 187.893512 213.831529 
L 187.954967 212.767624 
L 188.283402 212.767624 
L 188.283402 212.412988 
L 188.445494 212.412988 
L 188.505176 211.703718 
L 188.671283 211.703718 
L 188.700792 210.639812 
L 189.172488 210.639812 
L 189.172488 210.285176 
L 189.372704 210.285176 
L 189.372704 209.575906 
L 189.491819 209.575906 
L 189.508774 208.866635 
L 189.98843 208.866635 
L 189.98843 208.512 
L 190.152916 208.512 
L 190.185641 207.448094 
L 190.637916 207.448094 
L 190.637916 207.093459 
L 191.460239 207.093459 
L 191.460239 206.384188 
L 191.873253 206.384188 
L 191.873253 206.029553 
L 192.032002 206.029553 
L 192.032002 205.674918 
L 193.30218 205.674918 
L 193.30218 205.320282 
L 193.44478 205.320282 
L 193.485978 204.611012 
L 193.690626 204.611012 
L 193.690626 204.256376 
L 193.807861 204.256376 
L 193.812355 203.547106 
L 193.991259 203.547106 
L 193.991259 200.000753 
L 194.673165 200.000753 
L 194.754554 198.582212 
L 194.844102 198.582212 
L 194.844102 198.227576 
L 196.138562 198.227576 
L 196.138562 197.872941 
L 196.767299 197.872941 
L 196.767299 197.518306 
L 197.049382 197.518306 
L 197.090955 196.4544 
L 197.386852 196.4544 
L 197.438807 195.745129 
L 197.794896 195.745129 
L 197.802167 195.035859 
L 198.22629 195.035859 
L 198.22629 193.617318 
L 198.60278 193.617318 
L 198.60278 193.262682 
L 199.216236 193.262682 
L 199.327179 192.553412 
L 199.430806 192.553412 
L 199.430806 191.489506 
L 199.570299 191.489506 
L 199.570299 191.134871 
L 199.982677 191.134871 
L 199.982677 190.4256 
L 200.436837 190.4256 
L 200.436837 190.070965 
L 200.944993 190.070965 
L 200.944993 189.007059 
L 201.174275 189.007059 
L 201.174275 188.652424 
L 201.4098 188.652424 
L 201.4098 188.297788 
L 202.04414 188.297788 
L 202.084713 186.879247 
L 203.022097 186.879247 
L 203.12099 185.815341 
L 203.175706 185.815341 
L 203.175706 185.460706 
L 203.290096 185.460706 
L 203.392995 183.687529 
L 203.508759 183.687529 
L 203.508759 182.623624 
L 203.645143 182.623624 
L 203.645143 182.268988 
L 203.935981 182.268988 
L 204.011913 180.495812 
L 204.204294 180.495812 
L 204.297178 179.786541 
L 204.394727 179.786541 
L 204.394727 179.077271 
L 204.529943 179.077271 
L 204.529943 178.368 
L 204.714607 178.368 
L 204.769906 176.594824 
L 205.387138 176.594824 
L 205.387138 175.530918 
L 206.045836 175.530918 
L 206.071617 174.467012 
L 206.271965 174.467012 
L 206.271965 174.112376 
L 206.795272 174.112376 
L 206.795272 173.757741 
L 207.304414 173.757741 
L 207.304414 173.403106 
L 207.708046 173.403106 
L 207.708046 173.048471 
L 208.4304 173.048471 
L 208.442793 171.984565 
L 208.715414 171.984565 
L 208.717449 169.856753 
L 208.827007 169.856753 
L 208.827007 169.502118 
L 209.106118 169.502118 
L 209.106118 169.147482 
L 209.877392 169.147482 
L 209.894602 168.438212 
L 210.63483 168.438212 
L 210.63483 168.083576 
L 210.788559 168.083576 
L 210.86677 167.374306 
L 210.904848 167.374306 
L 211.015021 164.182588 
L 211.640212 164.182588 
L 211.640212 163.827953 
L 211.863595 163.827953 
L 211.863595 163.118682 
L 212.011057 163.118682 
L 212.011057 162.764047 
L 212.494965 162.764047 
L 212.494965 162.409412 
L 212.703543 162.409412 
L 212.746297 160.990871 
L 212.821701 160.990871 
L 212.869083 158.153788 
L 213.1766 158.153788 
L 213.1766 157.089882 
L 213.441219 157.089882 
L 213.441219 156.735247 
L 213.700606 156.735247 
L 213.700606 156.380612 
L 213.846795 156.380612 
L 213.941057 154.962071 
L 214.520854 154.962071 
L 214.520854 154.607435 
L 214.925992 154.607435 
L 214.925992 153.898165 
L 215.190354 153.898165 
L 215.190354 153.543529 
L 215.595595 153.543529 
L 215.670263 152.834259 
L 215.814532 152.834259 
L 215.814532 152.479624 
L 216.793247 152.479624 
L 216.883103 151.061082 
L 216.97909 151.061082 
L 217.006613 150.351812 
L 217.160518 150.351812 
L 217.160518 149.997176 
L 217.467158 149.997176 
L 217.495252 148.578635 
L 217.647758 148.578635 
L 217.72229 146.450824 
L 217.765106 146.450824 
L 217.765106 146.096188 
L 218.715541 146.096188 
L 218.715541 145.741553 
L 218.982713 145.741553 
L 219.067413 143.613741 
L 220.44422 143.613741 
L 220.44422 143.259106 
L 220.731111 143.259106 
L 220.731111 142.904471 
L 220.950082 142.904471 
L 220.950082 141.840565 
L 221.200098 141.840565 
L 221.26078 140.067388 
L 221.639258 140.067388 
L 221.639258 139.712753 
L 221.955989 139.712753 
L 221.955989 139.358118 
L 222.094398 139.358118 
L 222.151271 138.648847 
L 222.2843 138.648847 
L 222.2843 138.294212 
L 222.78795 138.294212 
L 222.854287 136.875671 
L 223.069944 136.875671 
L 223.069944 136.521035 
L 223.762003 136.521035 
L 223.762003 136.1664 
L 223.974792 136.1664 
L 223.974792 135.457129 
L 224.38355 135.457129 
L 224.418909 134.393224 
L 224.645388 134.393224 
L 224.742861 132.265412 
L 224.800931 132.265412 
L 224.800931 131.910776 
L 224.94919 131.910776 
L 225.050231 129.782965 
L 225.506654 129.782965 
L 225.569895 129.073694 
L 226.753047 129.073694 
L 226.83167 128.364424 
L 227.084758 128.364424 
L 227.132217 127.655153 
L 227.321624 127.655153 
L 227.321624 127.300518 
L 227.897023 127.300518 
L 227.990748 126.591247 
L 228.053458 126.591247 
L 228.053458 126.236612 
L 228.575386 126.236612 
L 228.575386 125.881976 
L 229.421319 125.881976 
L 229.421319 125.527341 
L 230.107892 125.527341 
L 230.139194 124.1088 
L 230.276175 124.1088 
L 230.276175 123.399529 
L 230.398676 123.399529 
L 230.398676 123.044894 
L 230.803023 123.044894 
L 230.803023 121.980988 
L 231.024996 121.980988 
L 231.127282 120.562447 
L 231.139024 120.562447 
L 231.169275 118.08 
L 231.401012 118.08 
L 231.473986 117.016094 
L 232.203757 117.016094 
L 232.203757 116.661459 
L 232.341042 116.661459 
L 232.341042 116.306824 
L 233.269457 116.306824 
L 233.280487 114.179012 
L 233.856041 114.179012 
L 233.870474 113.469741 
L 233.980759 113.469741 
L 233.980759 113.115106 
L 234.095682 113.115106 
L 234.095682 112.760471 
L 234.525271 112.760471 
L 234.574748 110.632659 
L 235.868012 110.632659 
L 235.927501 109.214118 
L 236.332178 109.214118 
L 236.363562 107.440941 
L 236.652901 107.440941 
L 236.678692 106.377035 
L 236.764562 106.377035 
L 236.824484 104.958494 
L 236.951017 104.958494 
L 236.951017 104.603859 
L 237.741193 104.603859 
L 237.741193 104.249224 
L 237.96044 104.249224 
L 237.96044 103.894588 
L 238.092394 103.894588 
L 238.196276 103.185318 
L 238.655532 103.185318 
L 238.655532 102.830682 
L 238.865664 102.830682 
L 238.973115 101.412141 
L 239.140218 101.412141 
L 239.227236 100.702871 
L 239.372574 100.702871 
L 239.429124 99.9936 
L 239.627294 99.9936 
L 239.725406 98.929694 
L 239.891031 98.929694 
L 239.891031 98.575059 
L 245.381666 98.575059 
L 245.424504 97.156518 
L 245.93166 97.156518 
L 245.958096 92.191624 
L 246.077437 92.191624 
L 246.077437 90.773082 
L 246.205181 90.773082 
L 246.282684 84.389647 
L 253.601349 84.389647 
L 253.653692 79.070118 
L 253.721892 79.070118 
L 253.830205 76.587671 
L 253.848135 76.587671 
L 253.947457 75.169129 
L 253.986746 75.169129 
L 253.986746 74.105224 
L 254.165082 74.105224 
L 254.275577 73.041318 
L 254.276841 73.041318 
L 254.321756 70.204235 
L 274.215087 70.204235 
L 274.321787 66.657882 
L 274.326267 66.657882 
L 274.429742 61.692988 
L 274.439143 61.692988 
L 274.536896 58.146635 
L 274.560256 58.146635 
L 274.631144 54.954918 
L 274.717552 54.954918 
L 274.717552 54.600282 
L 274.883571 54.600282 
L 274.993582 52.117835 
L 275.050173 52.117835 
L 275.091131 49.990024 
L 275.294299 49.990024 
L 275.366599 49.280753 
L 275.464463 49.280753 
L 275.508912 47.862212 
L 275.673333 47.862212 
L 275.673333 47.507576 
L 275.904464 47.507576 
L 275.997186 45.379765 
L 276.024998 45.379765 
L 276.095059 44.670494 
L 276.201099 44.670494 
L 276.274939 43.251953 
L 276.541244 43.251953 
L 276.596294 42.188047 
L 276.854801 42.188047 
L 276.964767 40.414871 
L 277.960843 40.414871 
L 278.010875 36.868518 
L 279.610776 36.868518 
L 279.708224 34.740706 
L 279.782609 34.740706 
L 279.782609 34.386071 
L 287.237422 34.386071 
L 287.308811 32.258259 
L 287.380396 32.258259 
L 287.432318 31.548988 
L 287.502819 31.548988 
L 287.584127 29.775812 
L 287.630032 29.775812 
L 287.678304 28.711906 
L 287.909787 28.711906 
L 287.909787 28.357271 
L 288.145769 28.357271 
L 288.145769 28.002635 
L 289.202144 28.002635 
L 289.202144 27.648 
L 360.8064 27.648 
L 360.8064 27.648 
" style="fill: none; stroke: #000080; stroke-width: 1.5; stroke-linecap: square"/>
   </g>
   <g id="line2d_36">
    <defs>
     <path id="m018eaebe3e" d="M 0 6 
C 1.591219 6 3.117479 5.367802 4.242641 4.242641 
C 5.367802 3.117479 6 1.591219 6 0 
C 6 -1.591219 5.367802 -3.117479 4.242641 -4.242641 
C 3.117479 -5.367802 1.591219 -6 0 -6 
C -1.591219 -6 -3.117479 -5.367802 -4.242641 -4.242641 
C -5.367802 -3.117479 -6 -1.591219 -6 0 
C -6 1.591219 -5.367802 3.117479 -4.242641 4.242641 
C -3.117479 5.367802 -1.591219 6 0 6 
z
" style="stroke: #000080; stroke-width: 1.5"/>
    </defs>
    <g>
     <use xlink:href="#m018eaebe3e" x="118.401214" y="259.934118" style="fill-opacity: 0; stroke: #000080; stroke-width: 1.5"/>
     <use xlink:href="#m018eaebe3e" x="199.430806" y="192.553412" style="fill-opacity: 0; stroke: #000080; stroke-width: 1.5"/>
     <use xlink:href="#m018eaebe3e" x="253.823361" y="77.296941" style="fill-opacity: 0; stroke: #000080; stroke-width: 1.5"/>
     <use xlink:href="#m018eaebe3e" x="289.202144" y="28.002635" style="fill-opacity: 0; stroke: #000080; stroke-width: 1.5"/>
     <use xlink:href="#m018eaebe3e" x="289.202144" y="27.648" style="fill-opacity: 0; stroke: #000080; stroke-width: 1.5"/>
     <use xlink:href="#m018eaebe3e" x="360.8064" y="27.648" style="fill-opacity: 0; stroke: #000080; stroke-width: 1.5"/>
    </g>
   </g>
   <g id="line2d_37">
    <path style="fill: none; stroke: #000080; stroke-width: 1.5; stroke-linecap: square"/>
    <g/>
   </g>
   <g id="line2d_38">
    <path d="M 274.176 70.204235 
" clip-path="url(#pcdcaf559cf)" style="fill: none; stroke: #000080; stroke-width: 1.5; stroke-linecap: square"/>
    <defs>
     <path id="m2e0a1647ca" d="M -12 12 
L 12 -12 
M -12 -12 
L 12 12 
" style="stroke: #000080"/>
    </defs>
    <g clip-path="url(#pcdcaf559cf)">
     <use xlink:href="#m2e0a1647ca" x="274.176" y="70.204235" style="fill: #000080; stroke: #000080"/>
    </g>
   </g>
   <g id="line2d_39">
    <defs>
     <path id="mab5c5fa136" d="M 0 1.5 
C 0.397805 1.5 0.77937 1.341951 1.06066 1.06066 
C 1.341951 0.77937 1.5 0.397805 1.5 0 
C 1.5 -0.397805 1.341951 -0.77937 1.06066 -1.06066 
C 0.77937 -1.341951 0.397805 -1.5 0 -1.5 
C -0.397805 -1.5 -0.77937 -1.341951 -1.06066 -1.06066 
C -1.341951 -0.77937 -1.5 -0.397805 -1.5 0 
C -1.5 0.397805 -1.341951 0.77937 -1.06066 1.06066 
C -0.77937 1.341951 -0.397805 1.5 0 1.5 
z
" style="stroke: #ff00ff"/>
    </defs>
    <g>
     <use xlink:href="#mab5c5fa136" x="267.409152" y="27.648" style="fill: #ff00ff; stroke: #ff00ff"/>
     <use xlink:href="#mab5c5fa136" x="267.409152" y="27.648" style="fill: #ff00ff; stroke: #ff00ff"/>
    </g>
   </g>
   <g id="line2d_40">
    <path d="M 120.726585 298.944 
L 120.726585 295.397647 
L 122.795872 295.397647 
L 122.795872 292.205929 
L 122.990812 292.205929 
L 122.990812 289.014212 
L 123.374735 289.014212 
L 123.374735 285.113224 
L 134.304809 285.113224 
L 134.304809 281.212235 
L 135.338671 281.212235 
L 135.338671 278.375153 
L 135.638065 278.375153 
L 135.638065 272.346353 
L 135.835047 272.346353 
L 135.932769 263.835106 
L 136.318661 263.835106 
L 136.413909 257.451671 
L 136.508678 257.451671 
L 136.602972 251.068235 
L 142.387236 251.068235 
L 142.387236 250.7136 
L 142.729897 250.7136 
L 142.729897 250.358965 
L 143.066428 250.358965 
L 143.066428 250.004329 
L 143.265494 250.004329 
L 143.265494 249.649694 
L 143.462475 249.649694 
L 143.462475 249.295059 
L 143.914232 249.295059 
L 143.914232 248.940424 
L 144.10457 248.940424 
L 144.10457 248.585788 
L 148.175569 248.585788 
L 148.175569 248.231153 
L 148.478174 248.231153 
L 148.478174 247.876518 
L 152.474656 247.876518 
L 152.474656 247.521882 
L 155.971711 247.521882 
L 155.971711 247.167247 
L 156.138926 247.167247 
L 156.138926 246.812612 
L 156.88953 246.812612 
L 156.985263 246.103341 
L 159.789344 246.103341 
L 159.789344 245.394071 
L 162.325256 245.394071 
L 162.325256 243.620894 
L 163.486831 243.620894 
L 163.486831 243.266259 
L 163.73303 243.266259 
L 163.73303 242.911624 
L 164.410013 242.911624 
L 164.410013 242.556988 
L 166.556452 242.556988 
L 166.556452 242.202353 
L 168.274427 242.202353 
L 168.274427 241.847718 
L 169.928705 241.847718 
L 169.928705 241.493082 
L 170.464862 241.493082 
L 170.464862 241.138447 
L 171.857838 241.138447 
L 171.857838 240.783812 
L 177.88385 240.783812 
L 177.88385 240.429176 
L 181.949013 240.429176 
L 181.949013 240.074541 
L 186.038305 240.074541 
L 186.038305 239.719906 
L 195.055613 239.719906 
L 195.055613 239.365271 
L 201.834083 239.365271 
L 201.834083 239.010635 
L 202.536647 239.010635 
L 202.536647 237.946729 
L 203.993613 237.946729 
L 203.993613 237.237459 
L 204.333176 237.237459 
L 204.333176 236.882824 
L 204.734735 236.882824 
L 204.734735 236.528188 
L 205.428384 236.528188 
L 205.428384 236.173553 
L 205.814583 236.173553 
L 205.814583 235.818918 
L 206.001223 235.818918 
L 206.001223 235.109647 
L 206.366734 235.109647 
L 206.366734 234.045741 
L 206.602726 234.045741 
L 206.645937 233.336471 
L 206.741105 233.336471 
L 206.829047 232.6272 
L 206.896415 232.6272 
L 206.896415 232.272565 
L 207.361359 232.272565 
L 207.361359 231.208659 
L 207.479081 231.208659 
L 207.576624 228.726212 
L 207.609026 228.726212 
L 207.708046 227.662306 
L 207.772344 227.662306 
L 207.772344 227.307671 
L 207.908784 227.307671 
L 208.012581 222.342776 
L 208.035804 222.342776 
L 208.050567 221.633506 
L 208.214293 221.633506 
L 208.214293 221.278871 
L 208.360023 221.278871 
L 208.444857 220.5696 
L 208.658347 220.5696 
L 208.752008 216.313976 
L 208.831053 216.313976 
L 208.875496 213.476894 
L 209.014208 213.476894 
L 209.032226 212.058353 
L 209.14594 212.058353 
L 209.213443 209.221271 
L 209.339855 209.221271 
L 209.41059 207.093459 
L 209.457599 207.093459 
L 209.547373 204.965647 
L 209.582386 204.965647 
L 209.605691 202.4832 
L 209.729503 202.4832 
L 209.798791 198.936847 
L 209.844841 198.936847 
L 209.951855 197.518306 
L 209.967093 197.518306 
L 209.968997 196.4544 
L 210.156537 196.4544 
L 210.179142 195.745129 
L 210.299248 195.745129 
L 210.366472 192.908047 
L 210.411155 192.908047 
L 210.490948 191.844141 
L 210.529794 191.844141 
L 210.596201 191.134871 
L 210.675214 191.134871 
L 210.772148 190.070965 
L 210.86314 190.070965 
L 210.86314 188.652424 
L 211.036619 188.652424 
L 211.036619 188.297788 
L 211.318699 188.297788 
L 211.318699 187.943153 
L 212.123446 187.943153 
L 212.123446 187.588518 
L 212.423252 187.588518 
L 212.423252 187.233882 
L 213.134815 187.233882 
L 213.134815 186.879247 
L 213.261492 186.879247 
L 213.333271 185.460706 
L 213.714652 185.460706 
L 213.714652 184.751435 
L 214.025645 184.751435 
L 214.123599 182.623624 
L 214.178474 182.623624 
L 214.275636 180.850447 
L 214.361751 180.850447 
L 214.361751 180.141176 
L 214.773243 180.141176 
L 214.810075 178.368 
L 214.928917 178.368 
L 214.928917 178.013365 
L 215.068802 178.013365 
L 215.068802 176.949459 
L 215.276699 176.949459 
L 215.362649 175.176282 
L 215.405477 175.176282 
L 215.418306 174.112376 
L 215.575821 174.112376 
L 215.642121 170.920659 
L 215.716606 170.920659 
L 215.732028 168.438212 
L 215.841024 168.438212 
L 215.842417 167.019671 
L 215.967393 167.019671 
L 216.059894 164.537224 
L 216.193013 164.537224 
L 216.284415 159.572329 
L 216.333343 159.572329 
L 216.390265 157.799153 
L 216.49687 157.799153 
L 216.602873 152.479624 
L 216.630951 152.479624 
L 216.734875 148.224 
L 216.764084 148.224 
L 216.872554 141.485929 
L 216.943645 141.485929 
L 216.996133 138.648847 
L 217.060231 138.648847 
L 217.159219 135.811765 
L 217.173503 135.811765 
L 217.277063 132.974682 
L 217.287387 132.974682 
L 217.38904 129.782965 
L 217.405716 129.782965 
L 217.462045 127.655153 
L 217.533495 127.655153 
L 217.643961 125.527341 
L 217.660411 125.527341 
L 217.770137 117.725365 
L 217.824134 117.725365 
L 217.911705 114.888282 
L 222.286278 114.888282 
L 222.384934 114.179012 
L 222.580706 114.179012 
L 222.680739 112.760471 
L 222.715577 112.760471 
L 222.818744 107.795576 
L 222.862923 107.795576 
L 222.873472 107.086306 
L 223.008172 107.086306 
L 223.105016 102.830682 
L 223.121109 102.830682 
L 223.215492 99.638965 
L 223.330003 99.638965 
L 223.428933 98.220424 
L 223.478203 98.220424 
L 223.566196 96.092612 
L 223.608656 96.092612 
L 223.628929 93.9648 
L 223.752856 93.9648 
L 223.752856 93.610165 
L 224.028967 93.610165 
L 224.028967 93.255529 
L 224.155669 93.255529 
L 224.155669 92.546259 
L 224.382666 92.546259 
L 224.489427 90.418447 
L 224.521952 90.418447 
L 224.558805 89.354541 
L 224.664574 89.354541 
L 224.752408 85.808188 
L 224.862273 85.808188 
L 224.862273 84.389647 
L 225.033998 84.389647 
L 225.033998 83.680376 
L 225.199088 83.680376 
L 225.28531 82.971106 
L 225.331638 82.971106 
L 225.331638 82.616471 
L 225.451562 82.616471 
L 225.499151 79.779388 
L 225.600606 79.779388 
L 225.706466 75.523765 
L 225.787935 75.523765 
L 225.869871 74.105224 
L 226.029436 74.105224 
L 226.113557 71.977412 
L 226.154672 71.977412 
L 226.252662 67.012518 
L 226.332602 67.012518 
L 226.430465 63.8208 
L 226.474061 63.8208 
L 226.513606 62.402259 
L 226.588513 62.402259 
L 226.67096 60.983718 
L 226.745244 60.983718 
L 226.823123 58.501271 
L 226.900681 58.501271 
L 226.97792 53.536376 
L 227.020266 53.536376 
L 227.097017 49.280753 
L 227.283743 49.280753 
L 227.359428 48.571482 
L 228.244668 48.571482 
L 228.244668 48.216847 
L 228.388241 48.216847 
L 228.388241 47.862212 
L 228.742451 47.862212 
L 228.742451 47.152941 
L 229.363692 47.152941 
L 229.363692 46.798306 
L 229.633348 46.798306 
L 229.633348 45.7344 
L 229.899193 45.7344 
L 229.899193 45.379765 
L 230.096141 45.379765 
L 230.096141 44.670494 
L 230.291047 44.670494 
L 230.291047 44.315859 
L 230.483955 44.315859 
L 230.483955 42.897318 
L 233.395371 42.897318 
L 233.395371 42.188047 
L 234.563936 42.188047 
L 234.615366 41.124141 
L 255.139333 41.124141 
L 255.241007 40.060235 
L 255.320449 40.060235 
L 255.320449 39.7056 
L 255.49459 39.7056 
L 255.49459 39.350965 
L 255.693114 39.350965 
L 255.720564 37.932424 
L 255.868668 37.932424 
L 255.979357 36.868518 
L 255.98513 36.868518 
L 256.061661 34.386071 
L 256.158483 34.386071 
L 256.158483 34.031435 
L 256.869889 34.031435 
L 256.932877 32.967529 
L 257.151147 32.967529 
L 257.151147 32.258259 
L 257.313204 32.258259 
L 257.382232 31.194353 
L 257.458481 31.194353 
L 257.51193 29.775812 
L 257.580234 29.775812 
L 257.639985 29.066541 
L 257.700301 29.066541 
L 257.700301 28.711906 
L 257.909894 28.711906 
L 257.909894 28.357271 
L 259.373304 28.357271 
L 259.373304 28.002635 
L 267.409152 28.002635 
L 267.409152 27.648 
L 360.8064 27.648 
L 360.8064 27.648 
" style="fill: none; stroke: #ff00ff; stroke-width: 1.5; stroke-linecap: square"/>
   </g>
   <g id="line2d_41">
    <defs>
     <path id="m56f4c40f75" d="M 0 8.485281 
L 5.091169 0 
L 0 -8.485281 
L -5.091169 0 
z
" style="stroke: #ff00ff; stroke-width: 1.5; stroke-linejoin: miter"/>
    </defs>
    <g>
     <use xlink:href="#m56f4c40f75" x="206.602726" y="234.045741" style="fill-opacity: 0; stroke: #ff00ff; stroke-width: 1.5; stroke-linejoin: miter"/>
     <use xlink:href="#m56f4c40f75" x="226.667042" y="61.692988" style="fill-opacity: 0; stroke: #ff00ff; stroke-width: 1.5; stroke-linejoin: miter"/>
     <use xlink:href="#m56f4c40f75" x="267.409152" y="27.648" style="fill-opacity: 0; stroke: #ff00ff; stroke-width: 1.5; stroke-linejoin: miter"/>
     <use xlink:href="#m56f4c40f75" x="267.409152" y="27.648" style="fill-opacity: 0; stroke: #ff00ff; stroke-width: 1.5; stroke-linejoin: miter"/>
     <use xlink:href="#m56f4c40f75" x="360.8064" y="27.648" style="fill-opacity: 0; stroke: #ff00ff; stroke-width: 1.5; stroke-linejoin: miter"/>
    </g>
   </g>
   <g id="line2d_42">
    <path style="fill: none; stroke: #ff00ff; stroke-width: 1.5; stroke-linecap: square"/>
    <g/>
   </g>
   <g id="line2d_43">
    <path d="M 253.518801 41.124141 
" clip-path="url(#pcdcaf559cf)" style="fill: none; stroke: #ff00ff; stroke-width: 1.5; stroke-linecap: square"/>
    <defs>
     <path id="m685e139ecf" d="M -12 12 
L 12 -12 
M -12 -12 
L 12 12 
" style="stroke: #ff00ff"/>
    </defs>
    <g clip-path="url(#pcdcaf559cf)">
     <use xlink:href="#m685e139ecf" x="253.518801" y="41.124141" style="fill: #ff00ff; stroke: #ff00ff"/>
    </g>
   </g>
   <g id="line2d_44">
    <path d="M 360.8064 27.648 
L 380.514816 293.51808 
" style="fill: none; stroke: #000080; stroke-width: 1.5; stroke-linecap: square"/>
    <g>
     <use xlink:href="#m018eaebe3e" x="360.8064" y="27.648" style="fill-opacity: 0; stroke: #000080; stroke-width: 1.5"/>
     <use xlink:href="#m018eaebe3e" x="380.514816" y="293.51808" style="fill-opacity: 0; stroke: #000080; stroke-width: 1.5"/>
    </g>
   </g>
   <g id="line2d_45">
    <path d="M 360.8064 27.648 
L 380.514816 163.296 
" style="fill: none; stroke: #ff00ff; stroke-width: 1.5; stroke-linecap: square"/>
    <g>
     <use xlink:href="#m56f4c40f75" x="360.8064" y="27.648" style="fill-opacity: 0; stroke: #ff00ff; stroke-width: 1.5; stroke-linejoin: miter"/>
     <use xlink:href="#m56f4c40f75" x="380.514816" y="163.296" style="fill-opacity: 0; stroke: #ff00ff; stroke-width: 1.5; stroke-linejoin: miter"/>
    </g>
   </g>
   <g id="line2d_46">
    <path d="M 360.8064 298.944 
L 360.8064 27.648 
" style="fill: none; stroke: #000000; stroke-width: 1.5; stroke-linecap: square"/>
   </g>
   <g id="patch_3">
    <path d="M 57.6 298.944 
L 360.8064 298.944 
" style="fill: none; stroke: #000000; stroke-width: 0.8; stroke-linejoin: miter; stroke-linecap: square"/>
   </g>
   <g id="patch_4">
    <path d="M 57.6 27.648 
L 360.8064 27.648 
" style="fill: none; stroke: #000000; stroke-width: 0.8; stroke-linejoin: miter; stroke-linecap: square"/>
   </g>
   <g id="text_13">
    <!-- LCGA -->
    <g transform="translate(386.578944 297.381205)scale(0.14 -0.14)">
     <defs>
      <path id="DejaVuSans-4c" d="M 628 4666 
L 1259 4666 
L 1259 531 
L 3531 531 
L 3531 0 
L 628 0 
L 628 4666 
z
" transform="scale(0.015625)"/>
      <path id="DejaVuSans-43" d="M 4122 4306 
L 4122 3641 
Q 3803 3938 3442 4084 
Q 3081 4231 2675 4231 
Q 1875 4231 1450 3742 
Q 1025 3253 1025 2328 
Q 1025 1406 1450 917 
Q 1875 428 2675 428 
Q 3081 428 3442 575 
Q 3803 722 4122 1019 
L 4122 359 
Q 3791 134 3420 21 
Q 3050 -91 2638 -91 
Q 1578 -91 968 557 
Q 359 1206 359 2328 
Q 359 3453 968 4101 
Q 1578 4750 2638 4750 
Q 3056 4750 3426 4639 
Q 3797 4528 4122 4306 
z
" transform="scale(0.015625)"/>
      <path id="DejaVuSans-47" d="M 3809 666 
L 3809 1919 
L 2778 1919 
L 2778 2438 
L 4434 2438 
L 4434 434 
Q 4069 175 3628 42 
Q 3188 -91 2688 -91 
Q 1594 -91 976 548 
Q 359 1188 359 2328 
Q 359 3472 976 4111 
Q 1594 4750 2688 4750 
Q 3144 4750 3555 4637 
Q 3966 4525 4313 4306 
L 4313 3634 
Q 3963 3931 3569 4081 
Q 3175 4231 2741 4231 
Q 1884 4231 1454 3753 
Q 1025 3275 1025 2328 
Q 1025 1384 1454 906 
Q 1884 428 2741 428 
Q 3075 428 3337 486 
Q 3600 544 3809 666 
z
" transform="scale(0.015625)"/>
      <path id="DejaVuSans-41" d="M 2188 4044 
L 1331 1722 
L 3047 1722 
L 2188 4044 
z
M 1831 4666 
L 2547 4666 
L 4325 0 
L 3669 0 
L 3244 1197 
L 1141 1197 
L 716 0 
L 50 0 
L 1831 4666 
z
" transform="scale(0.015625)"/>
     </defs>
     <use xlink:href="#DejaVuSans-4c"/>
     <use xlink:href="#DejaVuSans-43" x="55.712891"/>
     <use xlink:href="#DejaVuSans-47" x="125.537109"/>
     <use xlink:href="#DejaVuSans-41" x="203.027344"/>
    </g>
   </g>
   <g id="text_14">
    <!-- EvoSpace- -->
    <g transform="translate(386.578944 167.159125)scale(0.14 -0.14)">
     <defs>
      <path id="DejaVuSans-45" d="M 628 4666 
L 3578 4666 
L 3578 4134 
L 1259 4134 
L 1259 2753 
L 3481 2753 
L 3481 2222 
L 1259 2222 
L 1259 531 
L 3634 531 
L 3634 0 
L 628 0 
L 628 4666 
z
" transform="scale(0.015625)"/>
      <path id="DejaVuSans-53" d="M 3425 4513 
L 3425 3897 
Q 3066 4069 2747 4153 
Q 2428 4238 2131 4238 
Q 1616 4238 1336 4038 
Q 1056 3838 1056 3469 
Q 1056 3159 1242 3001 
Q 1428 2844 1947 2747 
L 2328 2669 
Q 3034 2534 3370 2195 
Q 3706 1856 3706 1288 
Q 3706 609 3251 259 
Q 2797 -91 1919 -91 
Q 1588 -91 1214 -16 
Q 841 59 441 206 
L 441 856 
Q 825 641 1194 531 
Q 1563 422 1919 422 
Q 2459 422 2753 634 
Q 3047 847 3047 1241 
Q 3047 1584 2836 1778 
Q 2625 1972 2144 2069 
L 1759 2144 
Q 1053 2284 737 2584 
Q 422 2884 422 3419 
Q 422 4038 858 4394 
Q 1294 4750 2059 4750 
Q 2388 4750 2728 4690 
Q 3069 4631 3425 4513 
z
" transform="scale(0.015625)"/>
     </defs>
     <use xlink:href="#DejaVuSans-45"/>
     <use xlink:href="#DejaVuSans-76" x="63.183594"/>
     <use xlink:href="#DejaVuSans-6f" x="122.363281"/>
     <use xlink:href="#DejaVuSans-53" x="183.544922"/>
     <use xlink:href="#DejaVuSans-70" x="247.021484"/>
     <use xlink:href="#DejaVuSans-61" x="310.498047"/>
     <use xlink:href="#DejaVuSans-63" x="371.777344"/>
     <use xlink:href="#DejaVuSans-65" x="426.757812"/>
     <use xlink:href="#DejaVuSans-2d" x="488.28125"/>
    </g>
   </g>
   <g id="text_15">
    <!-- best 2009 -->
    <g transform="translate(386.578944 36.937045)scale(0.14 -0.14)">
     <defs>
      <path id="DejaVuSans-62" d="M 3116 1747 
Q 3116 2381 2855 2742 
Q 2594 3103 2138 3103 
Q 1681 3103 1420 2742 
Q 1159 2381 1159 1747 
Q 1159 1113 1420 752 
Q 1681 391 2138 391 
Q 2594 391 2855 752 
Q 3116 1113 3116 1747 
z
M 1159 2969 
Q 1341 3281 1617 3432 
Q 1894 3584 2278 3584 
Q 2916 3584 3314 3078 
Q 3713 2572 3713 1747 
Q 3713 922 3314 415 
Q 2916 -91 2278 -91 
Q 1894 -91 1617 61 
Q 1341 213 1159 525 
L 1159 0 
L 581 0 
L 581 4863 
L 1159 4863 
L 1159 2969 
z
" transform="scale(0.015625)"/>
      <path id="DejaVuSans-39" d="M 703 97 
L 703 672 
Q 941 559 1184 500 
Q 1428 441 1663 441 
Q 2288 441 2617 861 
Q 2947 1281 2994 2138 
Q 2813 1869 2534 1725 
Q 2256 1581 1919 1581 
Q 1219 1581 811 2004 
Q 403 2428 403 3163 
Q 403 3881 828 4315 
Q 1253 4750 1959 4750 
Q 2769 4750 3195 4129 
Q 3622 3509 3622 2328 
Q 3622 1225 3098 567 
Q 2575 -91 1691 -91 
Q 1453 -91 1209 -44 
Q 966 3 703 97 
z
M 1959 2075 
Q 2384 2075 2632 2365 
Q 2881 2656 2881 3163 
Q 2881 3666 2632 3958 
Q 2384 4250 1959 4250 
Q 1534 4250 1286 3958 
Q 1038 3666 1038 3163 
Q 1038 2656 1286 2365 
Q 1534 2075 1959 2075 
z
" transform="scale(0.015625)"/>
     </defs>
     <use xlink:href="#DejaVuSans-62"/>
     <use xlink:href="#DejaVuSans-65" x="63.476562"/>
     <use xlink:href="#DejaVuSans-73" x="125"/>
     <use xlink:href="#DejaVuSans-74" x="177.099609"/>
     <use xlink:href="#DejaVuSans-20" x="216.308594"/>
     <use xlink:href="#DejaVuSans-32" x="248.095703"/>
     <use xlink:href="#DejaVuSans-30" x="311.71875"/>
     <use xlink:href="#DejaVuSans-30" x="375.341797"/>
     <use xlink:href="#DejaVuSans-39" x="438.964844"/>
    </g>
   </g>
   <g id="text_16">
    <!-- bbob f20, 3-D -->
    <g transform="translate(60.632064 38.111366)scale(0.102 -0.102)">
     <defs>
      <path id="DejaVuSans-33" d="M 2597 2516 
Q 3050 2419 3304 2112 
Q 3559 1806 3559 1356 
Q 3559 666 3084 287 
Q 2609 -91 1734 -91 
Q 1441 -91 1130 -33 
Q 819 25 488 141 
L 488 750 
Q 750 597 1062 519 
Q 1375 441 1716 441 
Q 2309 441 2620 675 
Q 2931 909 2931 1356 
Q 2931 1769 2642 2001 
Q 2353 2234 1838 2234 
L 1294 2234 
L 1294 2753 
L 1863 2753 
Q 2328 2753 2575 2939 
Q 2822 3125 2822 3475 
Q 2822 3834 2567 4026 
Q 2313 4219 1838 4219 
Q 1578 4219 1281 4162 
Q 984 4106 628 3988 
L 628 4550 
Q 988 4650 1302 4700 
Q 1616 4750 1894 4750 
Q 2613 4750 3031 4423 
Q 3450 4097 3450 3541 
Q 3450 3153 3228 2886 
Q 3006 2619 2597 2516 
z
" transform="scale(0.015625)"/>
      <path id="DejaVuSans-44" d="M 1259 4147 
L 1259 519 
L 2022 519 
Q 2988 519 3436 956 
Q 3884 1394 3884 2338 
Q 3884 3275 3436 3711 
Q 2988 4147 2022 4147 
L 1259 4147 
z
M 628 4666 
L 1925 4666 
Q 3281 4666 3915 4102 
Q 4550 3538 4550 2338 
Q 4550 1131 3912 565 
Q 3275 0 1925 0 
L 628 0 
L 628 4666 
z
" transform="scale(0.015625)"/>
     </defs>
     <use xlink:href="#DejaVuSans-62"/>
     <use xlink:href="#DejaVuSans-62" x="63.476562"/>
     <use xlink:href="#DejaVuSans-6f" x="126.953125"/>
     <use xlink:href="#DejaVuSans-62" x="188.134766"/>
     <use xlink:href="#DejaVuSans-20" x="251.611328"/>
     <use xlink:href="#DejaVuSans-66" x="283.398438"/>
     <use xlink:href="#DejaVuSans-32" x="318.603516"/>
     <use xlink:href="#DejaVuSans-30" x="382.226562"/>
     <use xlink:href="#DejaVuSans-2c" x="445.849609"/>
     <use xlink:href="#DejaVuSans-20" x="477.636719"/>
     <use xlink:href="#DejaVuSans-33" x="509.423828"/>
     <use xlink:href="#DejaVuSans-2d" x="573.046875"/>
     <use xlink:href="#DejaVuSans-44" x="609.130859"/>
    </g>
    <!-- 51 targets: 100..1e-08 -->
    <g transform="translate(60.632064 49.533135)scale(0.102 -0.102)">
     <defs>
      <path id="DejaVuSans-35" d="M 691 4666 
L 3169 4666 
L 3169 4134 
L 1269 4134 
L 1269 2991 
Q 1406 3038 1543 3061 
Q 1681 3084 1819 3084 
Q 2600 3084 3056 2656 
Q 3513 2228 3513 1497 
Q 3513 744 3044 326 
Q 2575 -91 1722 -91 
Q 1428 -91 1123 -41 
Q 819 9 494 109 
L 494 744 
Q 775 591 1075 516 
Q 1375 441 1709 441 
Q 2250 441 2565 725 
Q 2881 1009 2881 1497 
Q 2881 1984 2565 2268 
Q 2250 2553 1709 2553 
Q 1456 2553 1204 2497 
Q 953 2441 691 2322 
L 691 4666 
z
" transform="scale(0.015625)"/>
      <path id="DejaVuSans-3a" d="M 750 794 
L 1409 794 
L 1409 0 
L 750 0 
L 750 794 
z
M 750 3309 
L 1409 3309 
L 1409 2516 
L 750 2516 
L 750 3309 
z
" transform="scale(0.015625)"/>
     </defs>
     <use xlink:href="#DejaVuSans-35"/>
     <use xlink:href="#DejaVuSans-31" x="63.623047"/>
     <use xlink:href="#DejaVuSans-20" x="127.246094"/>
     <use xlink:href="#DejaVuSans-74" x="159.033203"/>
     <use xlink:href="#DejaVuSans-61" x="198.242188"/>
     <use xlink:href="#DejaVuSans-72" x="259.521484"/>
     <use xlink:href="#DejaVuSans-67" x="298.884766"/>
     <use xlink:href="#DejaVuSans-65" x="362.361328"/>
     <use xlink:href="#DejaVuSans-74" x="423.884766"/>
     <use xlink:href="#DejaVuSans-73" x="463.09375"/>
     <use xlink:href="#DejaVuSans-3a" x="515.193359"/>
     <use xlink:href="#DejaVuSans-20" x="548.884766"/>
     <use xlink:href="#DejaVuSans-31" x="580.671875"/>
     <use xlink:href="#DejaVuSans-30" x="644.294922"/>
     <use xlink:href="#DejaVuSans-30" x="707.917969"/>
     <use xlink:href="#DejaVuSans-2e" x="771.541016"/>
     <use xlink:href="#DejaVuSans-2e" x="803.328125"/>
     <use xlink:href="#DejaVuSans-31" x="835.115234"/>
     <use xlink:href="#DejaVuSans-65" x="898.738281"/>
     <use xlink:href="#DejaVuSans-2d" x="960.261719"/>
     <use xlink:href="#DejaVuSans-30" x="996.345703"/>
     <use xlink:href="#DejaVuSans-38" x="1059.96875"/>
    </g>
    <!-- 15 instances -->
    <g transform="translate(60.632064 60.954904)scale(0.102 -0.102)">
     <use xlink:href="#DejaVuSans-31"/>
     <use xlink:href="#DejaVuSans-35" x="63.623047"/>
     <use xlink:href="#DejaVuSans-20" x="127.246094"/>
     <use xlink:href="#DejaVuSans-69" x="159.033203"/>
     <use xlink:href="#DejaVuSans-6e" x="186.816406"/>
     <use xlink:href="#DejaVuSans-73" x="250.195312"/>
     <use xlink:href="#DejaVuSans-74" x="302.294922"/>
     <use xlink:href="#DejaVuSans-61" x="341.503906"/>
     <use xlink:href="#DejaVuSans-6e" x="402.783203"/>
     <use xlink:href="#DejaVuSans-63" x="466.162109"/>
     <use xlink:href="#DejaVuSans-65" x="521.142578"/>
     <use xlink:href="#DejaVuSans-73" x="582.666016"/>
    </g>
   </g>
   <g id="text_17">
    <!-- v2.6 -->
    <g style="fill: #808080" transform="translate(198.292262 294.151352)scale(0.1 -0.1)">
     <use xlink:href="#DejaVuSans-76"/>
     <use xlink:href="#DejaVuSans-32" x="59.179688"/>
     <use xlink:href="#DejaVuSans-2e" x="122.802734"/>
     <use xlink:href="#DejaVuSans-36" x="154.589844"/>
    </g>
   </g>
   <g id="text_18">
    <!-- 20 Schwefel x*sin(x) -->
    <g transform="translate(106.189137 21.648)scale(0.2 -0.2)">
     <defs>
      <path id="DejaVuSans-68" d="M 3513 2113 
L 3513 0 
L 2938 0 
L 2938 2094 
Q 2938 2591 2744 2837 
Q 2550 3084 2163 3084 
Q 1697 3084 1428 2787 
Q 1159 2491 1159 1978 
L 1159 0 
L 581 0 
L 581 4863 
L 1159 4863 
L 1159 2956 
Q 1366 3272 1645 3428 
Q 1925 3584 2291 3584 
Q 2894 3584 3203 3211 
Q 3513 2838 3513 2113 
z
" transform="scale(0.015625)"/>
      <path id="DejaVuSans-77" d="M 269 3500 
L 844 3500 
L 1563 769 
L 2278 3500 
L 2956 3500 
L 3675 769 
L 4391 3500 
L 4966 3500 
L 4050 0 
L 3372 0 
L 2619 2869 
L 1863 0 
L 1184 0 
L 269 3500 
z
" transform="scale(0.015625)"/>
      <path id="DejaVuSans-78" d="M 3513 3500 
L 2247 1797 
L 3578 0 
L 2900 0 
L 1881 1375 
L 863 0 
L 184 0 
L 1544 1831 
L 300 3500 
L 978 3500 
L 1906 2253 
L 2834 3500 
L 3513 3500 
z
" transform="scale(0.015625)"/>
      <path id="DejaVuSans-2a" d="M 3009 3897 
L 1888 3291 
L 3009 2681 
L 2828 2375 
L 1778 3009 
L 1778 1831 
L 1422 1831 
L 1422 3009 
L 372 2375 
L 191 2681 
L 1313 3291 
L 191 3897 
L 372 4206 
L 1422 3572 
L 1422 4750 
L 1778 4750 
L 1778 3572 
L 2828 4206 
L 3009 3897 
z
" transform="scale(0.015625)"/>
     </defs>
     <use xlink:href="#DejaVuSans-32"/>
     <use xlink:href="#DejaVuSans-30" x="63.623047"/>
     <use xlink:href="#DejaVuSans-20" x="127.246094"/>
     <use xlink:href="#DejaVuSans-53" x="159.033203"/>
     <use xlink:href="#DejaVuSans-63" x="222.509766"/>
     <use xlink:href="#DejaVuSans-68" x="277.490234"/>
     <use xlink:href="#DejaVuSans-77" x="340.869141"/>
     <use xlink:href="#DejaVuSans-65" x="422.65625"/>
     <use xlink:href="#DejaVuSans-66" x="484.179688"/>
     <use xlink:href="#DejaVuSans-65" x="519.384766"/>
     <use xlink:href="#DejaVuSans-6c" x="580.908203"/>
     <use xlink:href="#DejaVuSans-20" x="608.691406"/>
     <use xlink:href="#DejaVuSans-78" x="640.478516"/>
     <use xlink:href="#DejaVuSans-2a" x="699.658203"/>
     <use xlink:href="#DejaVuSans-73" x="749.658203"/>
     <use xlink:href="#DejaVuSans-69" x="801.757812"/>
     <use xlink:href="#DejaVuSans-6e" x="829.541016"/>
     <use xlink:href="#DejaVuSans-28" x="892.919922"/>
     <use xlink:href="#DejaVuSans-78" x="931.933594"/>
     <use xlink:href="#DejaVuSans-29" x="991.113281"/>
    </g>
   </g>
  </g>
 </g>
 <defs>
  <clipPath id="pcdcaf559cf">
   <rect x="57.6" y="27.648" width="303.2064" height="271.296"/>
  </clipPath>
 </defs>
</svg>
