<?xml version="1.0" encoding="utf-8" standalone="no"?>
<!DOCTYPE svg PUBLIC "-//W3C//DTD SVG 1.1//EN"
  "http://www.w3.org/Graphics/SVG/1.1/DTD/svg11.dtd">
<svg xmlns:xlink="http://www.w3.org/1999/xlink" width="460.8pt" height="345.6pt" viewBox="0 0 460.8 345.6" xmlns="http://www.w3.org/2000/svg" version="1.1">
 <metadata>
  <rdf:RDF xmlns:dc="http://purl.org/dc/elements/1.1/" xmlns:cc="http://creativecommons.org/ns#" xmlns:rdf="http://www.w3.org/1999/02/22-rdf-syntax-ns#">
   <cc:Work>
    <dc:type rdf:resource="http://purl.org/dc/dcmitype/StillImage"/>
    <dc:date>2024-05-29T08:05:49.272877</dc:date>
    <dc:format>image/svg+xml</dc:format>
    <dc:creator>
     <cc:Agent>
      <dc:title>Matplotlib v3.5.1, https://matplotlib.org/</dc:title>
     </cc:Agent>
    </dc:creator>
   </cc:Work>
  </rdf:RDF>
 </metadata>
 <defs>
  <style type="text/css">*{stroke-linejoin: round; stroke-linecap: butt}</style>
 </defs>
 <g id="figure_1">
  <g id="patch_1">
   <path d="M 0 345.6 
L 460.8 345.6 
L 460.8 0 
L 0 0 
z
" style="fill: #ffffff"/>
  </g>
  <g id="axes_1">
   <g id="patch_2">
    <path d="M 57.6 298.944 
L 360.8064 298.944 
L 360.8064 27.648 
L 57.6 27.648 
z
" style="fill: #ffffff"/>
   </g>
   <g id="line2d_1">
    <path d="M 124.046648 298.944 
L 124.046648 293.624471 
L 126.899255 293.624471 
L 126.899255 288.304941 
L 129.7043 288.304941 
L 129.7043 282.985412 
L 134.431915 282.985412 
L 134.431915 277.665882 
L 135.478982 277.665882 
L 135.478982 272.346353 
L 137.466966 272.346353 
L 137.466966 267.026824 
L 140.543056 267.026824 
L 140.543056 261.707294 
L 141.610664 261.707294 
L 141.610664 256.387765 
L 143.02636 256.387765 
L 143.02636 251.068235 
L 143.811926 251.068235 
L 143.811926 245.748706 
L 144.2304 245.748706 
L 144.2304 240.429176 
L 144.71325 240.429176 
L 144.71325 235.109647 
L 145.004344 235.109647 
L 145.004344 229.790118 
L 145.989098 229.790118 
L 145.989098 224.470588 
L 146.662213 224.470588 
L 146.662213 219.151059 
L 146.826795 219.151059 
L 146.826795 213.831529 
L 146.924857 213.831529 
L 146.924857 208.512 
L 147.119461 208.512 
L 147.119461 203.192471 
L 147.216013 203.192471 
L 147.216013 197.872941 
L 147.628773 197.872941 
L 147.628773 192.553412 
L 147.878349 192.553412 
L 147.878349 187.233882 
L 148.001907 187.233882 
L 148.001907 181.914353 
L 148.124658 181.914353 
L 148.124658 176.594824 
L 148.216198 176.594824 
L 148.216198 171.275294 
L 148.307296 171.275294 
L 148.307296 165.955765 
L 148.458151 165.955765 
L 148.458151 160.636235 
L 148.57797 160.636235 
L 148.57797 155.316706 
L 148.667336 155.316706 
L 148.667336 149.997176 
L 148.785835 149.997176 
L 148.785835 144.677647 
L 148.962194 144.677647 
L 148.962194 139.358118 
L 149.049758 139.358118 
L 149.049758 134.038588 
L 149.194798 134.038588 
L 149.194798 128.719059 
L 149.31003 128.719059 
L 149.31003 123.399529 
L 150.853277 123.399529 
L 150.853277 118.08 
L 150.906118 118.08 
L 150.906118 112.760471 
L 153.741748 112.760471 
L 153.741748 107.440941 
L 153.877408 107.440941 
L 153.877408 102.121412 
L 153.967309 102.121412 
L 153.967309 96.801882 
L 154.079083 96.801882 
L 154.079083 91.482353 
L 154.168026 91.482353 
L 154.168026 86.162824 
L 154.278618 86.162824 
L 154.278618 80.843294 
L 154.388563 80.843294 
L 154.388563 75.523765 
L 154.519655 75.523765 
L 154.519655 70.204235 
L 154.671449 70.204235 
L 154.671449 64.884706 
L 154.779128 64.884706 
L 154.779128 59.565176 
L 154.86483 59.565176 
L 154.86483 54.245647 
L 154.971412 54.245647 
L 154.971412 48.926118 
L 155.056244 48.926118 
L 155.056244 43.606588 
L 155.18278 43.606588 
L 155.18278 38.287059 
L 155.22477 38.287059 
L 155.22477 32.967529 
L 155.329337 32.967529 
L 155.329337 27.648 
L 360.8064 27.648 
" style="fill: none; stroke: #f5deb3; stroke-width: 4; stroke-linecap: square"/>
   </g>
   <g id="line2d_2">
    <defs>
     <path id="m8104f4230c" d="M 0 7.778175 
L 7.778175 0 
L 0 -7.778175 
L -7.778175 0 
z
" style="stroke: #f5deb3; stroke-width: 1.5; stroke-linejoin: miter"/>
    </defs>
    <g>
     <use xlink:href="#m8104f4230c" x="144.71325" y="235.109647" style="fill: #f5deb3; stroke: #f5deb3; stroke-width: 1.5; stroke-linejoin: miter"/>
     <use xlink:href="#m8104f4230c" x="149.194798" y="134.038588" style="fill: #f5deb3; stroke: #f5deb3; stroke-width: 1.5; stroke-linejoin: miter"/>
     <use xlink:href="#m8104f4230c" x="155.329337" y="32.967529" style="fill: #f5deb3; stroke: #f5deb3; stroke-width: 1.5; stroke-linejoin: miter"/>
     <use xlink:href="#m8104f4230c" x="155.329337" y="27.648" style="fill: #f5deb3; stroke: #f5deb3; stroke-width: 1.5; stroke-linejoin: miter"/>
     <use xlink:href="#m8104f4230c" x="360.8064" y="27.648" style="fill: #f5deb3; stroke: #f5deb3; stroke-width: 1.5; stroke-linejoin: miter"/>
    </g>
   </g>
   <g id="line2d_3">
    <path style="fill: none; stroke: #f5deb3; stroke-width: 4; stroke-linecap: square"/>
    <g/>
   </g>
   <g id="line2d_4">
    <path d="M 360.8064 27.648 
L 380.514816 33.07392 
" style="fill: none; stroke: #f5deb3; stroke-width: 4; stroke-linecap: square"/>
    <g>
     <use xlink:href="#m8104f4230c" x="360.8064" y="27.648" style="fill: #f5deb3; stroke: #f5deb3; stroke-width: 1.5; stroke-linejoin: miter"/>
     <use xlink:href="#m8104f4230c" x="380.514816" y="33.07392" style="fill: #f5deb3; stroke: #f5deb3; stroke-width: 1.5; stroke-linejoin: miter"/>
    </g>
   </g>
   <g id="matplotlib.axis_1">
    <g id="xtick_1">
     <g id="line2d_5">
      <path d="M 57.6 298.944 
L 57.6 27.648 
" clip-path="url(#p1df375f6b7)" style="fill: none; stroke: #b0b0b0; stroke-width: 0.8; stroke-linecap: square"/>
     </g>
     <g id="line2d_6">
      <defs>
       <path id="md28cab82c1" d="M 0 0 
L 0 3.5 
" style="stroke: #000000; stroke-width: 0.8"/>
      </defs>
      <g>
       <use xlink:href="#md28cab82c1" x="57.6" y="298.944" style="stroke: #000000; stroke-width: 0.8"/>
      </g>
     </g>
     <g id="text_1">
      <!-- 0 -->
      <g transform="translate(52.191875 318.861344)scale(0.17 -0.17)">
       <defs>
        <path id="DejaVuSans-30" d="M 2034 4250 
Q 1547 4250 1301 3770 
Q 1056 3291 1056 2328 
Q 1056 1369 1301 889 
Q 1547 409 2034 409 
Q 2525 409 2770 889 
Q 3016 1369 3016 2328 
Q 3016 3291 2770 3770 
Q 2525 4250 2034 4250 
z
M 2034 4750 
Q 2819 4750 3233 4129 
Q 3647 3509 3647 2328 
Q 3647 1150 3233 529 
Q 2819 -91 2034 -91 
Q 1250 -91 836 529 
Q 422 1150 422 2328 
Q 422 3509 836 4129 
Q 1250 4750 2034 4750 
z
" transform="scale(0.015625)"/>
       </defs>
       <use xlink:href="#DejaVuSans-30"/>
      </g>
     </g>
    </g>
    <g id="xtick_2">
     <g id="line2d_7">
      <path d="M 144.2304 298.944 
L 144.2304 27.648 
" clip-path="url(#p1df375f6b7)" style="fill: none; stroke: #b0b0b0; stroke-width: 0.8; stroke-linecap: square"/>
     </g>
     <g id="line2d_8">
      <g>
       <use xlink:href="#md28cab82c1" x="144.2304" y="298.944" style="stroke: #000000; stroke-width: 0.8"/>
      </g>
     </g>
     <g id="text_2">
      <!-- 2 -->
      <g transform="translate(138.822275 318.861344)scale(0.17 -0.17)">
       <defs>
        <path id="DejaVuSans-32" d="M 1228 531 
L 3431 531 
L 3431 0 
L 469 0 
L 469 531 
Q 828 903 1448 1529 
Q 2069 2156 2228 2338 
Q 2531 2678 2651 2914 
Q 2772 3150 2772 3378 
Q 2772 3750 2511 3984 
Q 2250 4219 1831 4219 
Q 1534 4219 1204 4116 
Q 875 4013 500 3803 
L 500 4441 
Q 881 4594 1212 4672 
Q 1544 4750 1819 4750 
Q 2544 4750 2975 4387 
Q 3406 4025 3406 3419 
Q 3406 3131 3298 2873 
Q 3191 2616 2906 2266 
Q 2828 2175 2409 1742 
Q 1991 1309 1228 531 
z
" transform="scale(0.015625)"/>
       </defs>
       <use xlink:href="#DejaVuSans-32"/>
      </g>
     </g>
    </g>
    <g id="xtick_3">
     <g id="line2d_9">
      <path d="M 230.8608 298.944 
L 230.8608 27.648 
" clip-path="url(#p1df375f6b7)" style="fill: none; stroke: #b0b0b0; stroke-width: 0.8; stroke-linecap: square"/>
     </g>
     <g id="line2d_10">
      <g>
       <use xlink:href="#md28cab82c1" x="230.8608" y="298.944" style="stroke: #000000; stroke-width: 0.8"/>
      </g>
     </g>
     <g id="text_3">
      <!-- 4 -->
      <g transform="translate(225.452675 318.861344)scale(0.17 -0.17)">
       <defs>
        <path id="DejaVuSans-34" d="M 2419 4116 
L 825 1625 
L 2419 1625 
L 2419 4116 
z
M 2253 4666 
L 3047 4666 
L 3047 1625 
L 3713 1625 
L 3713 1100 
L 3047 1100 
L 3047 0 
L 2419 0 
L 2419 1100 
L 313 1100 
L 313 1709 
L 2253 4666 
z
" transform="scale(0.015625)"/>
       </defs>
       <use xlink:href="#DejaVuSans-34"/>
      </g>
     </g>
    </g>
    <g id="xtick_4">
     <g id="line2d_11">
      <path d="M 317.4912 298.944 
L 317.4912 27.648 
" clip-path="url(#p1df375f6b7)" style="fill: none; stroke: #b0b0b0; stroke-width: 0.8; stroke-linecap: square"/>
     </g>
     <g id="line2d_12">
      <g>
       <use xlink:href="#md28cab82c1" x="317.4912" y="298.944" style="stroke: #000000; stroke-width: 0.8"/>
      </g>
     </g>
     <g id="text_4">
      <!-- 6 -->
      <g transform="translate(312.083075 318.861344)scale(0.17 -0.17)">
       <defs>
        <path id="DejaVuSans-36" d="M 2113 2584 
Q 1688 2584 1439 2293 
Q 1191 2003 1191 1497 
Q 1191 994 1439 701 
Q 1688 409 2113 409 
Q 2538 409 2786 701 
Q 3034 994 3034 1497 
Q 3034 2003 2786 2293 
Q 2538 2584 2113 2584 
z
M 3366 4563 
L 3366 3988 
Q 3128 4100 2886 4159 
Q 2644 4219 2406 4219 
Q 1781 4219 1451 3797 
Q 1122 3375 1075 2522 
Q 1259 2794 1537 2939 
Q 1816 3084 2150 3084 
Q 2853 3084 3261 2657 
Q 3669 2231 3669 1497 
Q 3669 778 3244 343 
Q 2819 -91 2113 -91 
Q 1303 -91 875 529 
Q 447 1150 447 2328 
Q 447 3434 972 4092 
Q 1497 4750 2381 4750 
Q 2619 4750 2861 4703 
Q 3103 4656 3366 4563 
z
" transform="scale(0.015625)"/>
       </defs>
       <use xlink:href="#DejaVuSans-36"/>
      </g>
     </g>
    </g>
    <g id="xtick_5">
     <g id="line2d_13">
      <path d="M 100.9152 298.944 
L 100.9152 27.648 
" clip-path="url(#p1df375f6b7)" style="fill: none; stroke: #b0b0b0; stroke-width: 0.8; stroke-linecap: square"/>
     </g>
     <g id="line2d_14">
      <defs>
       <path id="m816fa57231" d="M 0 0 
L 0 2 
" style="stroke: #000000; stroke-width: 0.6"/>
      </defs>
      <g>
       <use xlink:href="#m816fa57231" x="100.9152" y="298.944" style="stroke: #000000; stroke-width: 0.6"/>
      </g>
     </g>
    </g>
    <g id="xtick_6">
     <g id="line2d_15">
      <path d="M 187.5456 298.944 
L 187.5456 27.648 
" clip-path="url(#p1df375f6b7)" style="fill: none; stroke: #b0b0b0; stroke-width: 0.8; stroke-linecap: square"/>
     </g>
     <g id="line2d_16">
      <g>
       <use xlink:href="#m816fa57231" x="187.5456" y="298.944" style="stroke: #000000; stroke-width: 0.6"/>
      </g>
     </g>
    </g>
    <g id="xtick_7">
     <g id="line2d_17">
      <path d="M 274.176 298.944 
L 274.176 27.648 
" clip-path="url(#p1df375f6b7)" style="fill: none; stroke: #b0b0b0; stroke-width: 0.8; stroke-linecap: square"/>
     </g>
     <g id="line2d_18">
      <g>
       <use xlink:href="#m816fa57231" x="274.176" y="298.944" style="stroke: #000000; stroke-width: 0.6"/>
      </g>
     </g>
    </g>
    <g id="xtick_8">
     <g id="line2d_19">
      <path d="M 360.8064 298.944 
L 360.8064 27.648 
" clip-path="url(#p1df375f6b7)" style="fill: none; stroke: #b0b0b0; stroke-width: 0.8; stroke-linecap: square"/>
     </g>
     <g id="line2d_20">
      <g>
       <use xlink:href="#m816fa57231" x="360.8064" y="298.944" style="stroke: #000000; stroke-width: 0.6"/>
      </g>
     </g>
    </g>
    <g id="text_5">
     <!-- log10(# f-evals / dimension) -->
     <g transform="translate(88.823278 339.314156)scale(0.17 -0.17)">
      <defs>
       <path id="DejaVuSans-6c" d="M 603 4863 
L 1178 4863 
L 1178 0 
L 603 0 
L 603 4863 
z
" transform="scale(0.015625)"/>
       <path id="DejaVuSans-6f" d="M 1959 3097 
Q 1497 3097 1228 2736 
Q 959 2375 959 1747 
Q 959 1119 1226 758 
Q 1494 397 1959 397 
Q 2419 397 2687 759 
Q 2956 1122 2956 1747 
Q 2956 2369 2687 2733 
Q 2419 3097 1959 3097 
z
M 1959 3584 
Q 2709 3584 3137 3096 
Q 3566 2609 3566 1747 
Q 3566 888 3137 398 
Q 2709 -91 1959 -91 
Q 1206 -91 779 398 
Q 353 888 353 1747 
Q 353 2609 779 3096 
Q 1206 3584 1959 3584 
z
" transform="scale(0.015625)"/>
       <path id="DejaVuSans-67" d="M 2906 1791 
Q 2906 2416 2648 2759 
Q 2391 3103 1925 3103 
Q 1463 3103 1205 2759 
Q 947 2416 947 1791 
Q 947 1169 1205 825 
Q 1463 481 1925 481 
Q 2391 481 2648 825 
Q 2906 1169 2906 1791 
z
M 3481 434 
Q 3481 -459 3084 -895 
Q 2688 -1331 1869 -1331 
Q 1566 -1331 1297 -1286 
Q 1028 -1241 775 -1147 
L 775 -588 
Q 1028 -725 1275 -790 
Q 1522 -856 1778 -856 
Q 2344 -856 2625 -561 
Q 2906 -266 2906 331 
L 2906 616 
Q 2728 306 2450 153 
Q 2172 0 1784 0 
Q 1141 0 747 490 
Q 353 981 353 1791 
Q 353 2603 747 3093 
Q 1141 3584 1784 3584 
Q 2172 3584 2450 3431 
Q 2728 3278 2906 2969 
L 2906 3500 
L 3481 3500 
L 3481 434 
z
" transform="scale(0.015625)"/>
       <path id="DejaVuSans-31" d="M 794 531 
L 1825 531 
L 1825 4091 
L 703 3866 
L 703 4441 
L 1819 4666 
L 2450 4666 
L 2450 531 
L 3481 531 
L 3481 0 
L 794 0 
L 794 531 
z
" transform="scale(0.015625)"/>
       <path id="DejaVuSans-28" d="M 1984 4856 
Q 1566 4138 1362 3434 
Q 1159 2731 1159 2009 
Q 1159 1288 1364 580 
Q 1569 -128 1984 -844 
L 1484 -844 
Q 1016 -109 783 600 
Q 550 1309 550 2009 
Q 550 2706 781 3412 
Q 1013 4119 1484 4856 
L 1984 4856 
z
" transform="scale(0.015625)"/>
       <path id="DejaVuSans-23" d="M 3272 2816 
L 2363 2816 
L 2100 1772 
L 3016 1772 
L 3272 2816 
z
M 2803 4594 
L 2478 3297 
L 3391 3297 
L 3719 4594 
L 4219 4594 
L 3897 3297 
L 4872 3297 
L 4872 2816 
L 3775 2816 
L 3519 1772 
L 4513 1772 
L 4513 1294 
L 3397 1294 
L 3072 0 
L 2572 0 
L 2894 1294 
L 1978 1294 
L 1656 0 
L 1153 0 
L 1478 1294 
L 494 1294 
L 494 1772 
L 1594 1772 
L 1856 2816 
L 850 2816 
L 850 3297 
L 1978 3297 
L 2297 4594 
L 2803 4594 
z
" transform="scale(0.015625)"/>
       <path id="DejaVuSans-20" transform="scale(0.015625)"/>
       <path id="DejaVuSans-66" d="M 2375 4863 
L 2375 4384 
L 1825 4384 
Q 1516 4384 1395 4259 
Q 1275 4134 1275 3809 
L 1275 3500 
L 2222 3500 
L 2222 3053 
L 1275 3053 
L 1275 0 
L 697 0 
L 697 3053 
L 147 3053 
L 147 3500 
L 697 3500 
L 697 3744 
Q 697 4328 969 4595 
Q 1241 4863 1831 4863 
L 2375 4863 
z
" transform="scale(0.015625)"/>
       <path id="DejaVuSans-2d" d="M 313 2009 
L 1997 2009 
L 1997 1497 
L 313 1497 
L 313 2009 
z
" transform="scale(0.015625)"/>
       <path id="DejaVuSans-65" d="M 3597 1894 
L 3597 1613 
L 953 1613 
Q 991 1019 1311 708 
Q 1631 397 2203 397 
Q 2534 397 2845 478 
Q 3156 559 3463 722 
L 3463 178 
Q 3153 47 2828 -22 
Q 2503 -91 2169 -91 
Q 1331 -91 842 396 
Q 353 884 353 1716 
Q 353 2575 817 3079 
Q 1281 3584 2069 3584 
Q 2775 3584 3186 3129 
Q 3597 2675 3597 1894 
z
M 3022 2063 
Q 3016 2534 2758 2815 
Q 2500 3097 2075 3097 
Q 1594 3097 1305 2825 
Q 1016 2553 972 2059 
L 3022 2063 
z
" transform="scale(0.015625)"/>
       <path id="DejaVuSans-76" d="M 191 3500 
L 800 3500 
L 1894 563 
L 2988 3500 
L 3597 3500 
L 2284 0 
L 1503 0 
L 191 3500 
z
" transform="scale(0.015625)"/>
       <path id="DejaVuSans-61" d="M 2194 1759 
Q 1497 1759 1228 1600 
Q 959 1441 959 1056 
Q 959 750 1161 570 
Q 1363 391 1709 391 
Q 2188 391 2477 730 
Q 2766 1069 2766 1631 
L 2766 1759 
L 2194 1759 
z
M 3341 1997 
L 3341 0 
L 2766 0 
L 2766 531 
Q 2569 213 2275 61 
Q 1981 -91 1556 -91 
Q 1019 -91 701 211 
Q 384 513 384 1019 
Q 384 1609 779 1909 
Q 1175 2209 1959 2209 
L 2766 2209 
L 2766 2266 
Q 2766 2663 2505 2880 
Q 2244 3097 1772 3097 
Q 1472 3097 1187 3025 
Q 903 2953 641 2809 
L 641 3341 
Q 956 3463 1253 3523 
Q 1550 3584 1831 3584 
Q 2591 3584 2966 3190 
Q 3341 2797 3341 1997 
z
" transform="scale(0.015625)"/>
       <path id="DejaVuSans-73" d="M 2834 3397 
L 2834 2853 
Q 2591 2978 2328 3040 
Q 2066 3103 1784 3103 
Q 1356 3103 1142 2972 
Q 928 2841 928 2578 
Q 928 2378 1081 2264 
Q 1234 2150 1697 2047 
L 1894 2003 
Q 2506 1872 2764 1633 
Q 3022 1394 3022 966 
Q 3022 478 2636 193 
Q 2250 -91 1575 -91 
Q 1294 -91 989 -36 
Q 684 19 347 128 
L 347 722 
Q 666 556 975 473 
Q 1284 391 1588 391 
Q 1994 391 2212 530 
Q 2431 669 2431 922 
Q 2431 1156 2273 1281 
Q 2116 1406 1581 1522 
L 1381 1569 
Q 847 1681 609 1914 
Q 372 2147 372 2553 
Q 372 3047 722 3315 
Q 1072 3584 1716 3584 
Q 2034 3584 2315 3537 
Q 2597 3491 2834 3397 
z
" transform="scale(0.015625)"/>
       <path id="DejaVuSans-2f" d="M 1625 4666 
L 2156 4666 
L 531 -594 
L 0 -594 
L 1625 4666 
z
" transform="scale(0.015625)"/>
       <path id="DejaVuSans-64" d="M 2906 2969 
L 2906 4863 
L 3481 4863 
L 3481 0 
L 2906 0 
L 2906 525 
Q 2725 213 2448 61 
Q 2172 -91 1784 -91 
Q 1150 -91 751 415 
Q 353 922 353 1747 
Q 353 2572 751 3078 
Q 1150 3584 1784 3584 
Q 2172 3584 2448 3432 
Q 2725 3281 2906 2969 
z
M 947 1747 
Q 947 1113 1208 752 
Q 1469 391 1925 391 
Q 2381 391 2643 752 
Q 2906 1113 2906 1747 
Q 2906 2381 2643 2742 
Q 2381 3103 1925 3103 
Q 1469 3103 1208 2742 
Q 947 2381 947 1747 
z
" transform="scale(0.015625)"/>
       <path id="DejaVuSans-69" d="M 603 3500 
L 1178 3500 
L 1178 0 
L 603 0 
L 603 3500 
z
M 603 4863 
L 1178 4863 
L 1178 4134 
L 603 4134 
L 603 4863 
z
" transform="scale(0.015625)"/>
       <path id="DejaVuSans-6d" d="M 3328 2828 
Q 3544 3216 3844 3400 
Q 4144 3584 4550 3584 
Q 5097 3584 5394 3201 
Q 5691 2819 5691 2113 
L 5691 0 
L 5113 0 
L 5113 2094 
Q 5113 2597 4934 2840 
Q 4756 3084 4391 3084 
Q 3944 3084 3684 2787 
Q 3425 2491 3425 1978 
L 3425 0 
L 2847 0 
L 2847 2094 
Q 2847 2600 2669 2842 
Q 2491 3084 2119 3084 
Q 1678 3084 1418 2786 
Q 1159 2488 1159 1978 
L 1159 0 
L 581 0 
L 581 3500 
L 1159 3500 
L 1159 2956 
Q 1356 3278 1631 3431 
Q 1906 3584 2284 3584 
Q 2666 3584 2933 3390 
Q 3200 3197 3328 2828 
z
" transform="scale(0.015625)"/>
       <path id="DejaVuSans-6e" d="M 3513 2113 
L 3513 0 
L 2938 0 
L 2938 2094 
Q 2938 2591 2744 2837 
Q 2550 3084 2163 3084 
Q 1697 3084 1428 2787 
Q 1159 2491 1159 1978 
L 1159 0 
L 581 0 
L 581 3500 
L 1159 3500 
L 1159 2956 
Q 1366 3272 1645 3428 
Q 1925 3584 2291 3584 
Q 2894 3584 3203 3211 
Q 3513 2838 3513 2113 
z
" transform="scale(0.015625)"/>
       <path id="DejaVuSans-29" d="M 513 4856 
L 1013 4856 
Q 1481 4119 1714 3412 
Q 1947 2706 1947 2009 
Q 1947 1309 1714 600 
Q 1481 -109 1013 -844 
L 513 -844 
Q 928 -128 1133 580 
Q 1338 1288 1338 2009 
Q 1338 2731 1133 3434 
Q 928 4138 513 4856 
z
" transform="scale(0.015625)"/>
      </defs>
      <use xlink:href="#DejaVuSans-6c"/>
      <use xlink:href="#DejaVuSans-6f" x="27.783203"/>
      <use xlink:href="#DejaVuSans-67" x="88.964844"/>
      <use xlink:href="#DejaVuSans-31" x="152.441406"/>
      <use xlink:href="#DejaVuSans-30" x="216.064453"/>
      <use xlink:href="#DejaVuSans-28" x="279.6875"/>
      <use xlink:href="#DejaVuSans-23" x="318.701172"/>
      <use xlink:href="#DejaVuSans-20" x="402.490234"/>
      <use xlink:href="#DejaVuSans-66" x="434.277344"/>
      <use xlink:href="#DejaVuSans-2d" x="463.982422"/>
      <use xlink:href="#DejaVuSans-65" x="500.066406"/>
      <use xlink:href="#DejaVuSans-76" x="561.589844"/>
      <use xlink:href="#DejaVuSans-61" x="620.769531"/>
      <use xlink:href="#DejaVuSans-6c" x="682.048828"/>
      <use xlink:href="#DejaVuSans-73" x="709.832031"/>
      <use xlink:href="#DejaVuSans-20" x="761.931641"/>
      <use xlink:href="#DejaVuSans-2f" x="793.71875"/>
      <use xlink:href="#DejaVuSans-20" x="827.410156"/>
      <use xlink:href="#DejaVuSans-64" x="859.197266"/>
      <use xlink:href="#DejaVuSans-69" x="922.673828"/>
      <use xlink:href="#DejaVuSans-6d" x="950.457031"/>
      <use xlink:href="#DejaVuSans-65" x="1047.869141"/>
      <use xlink:href="#DejaVuSans-6e" x="1109.392578"/>
      <use xlink:href="#DejaVuSans-73" x="1172.771484"/>
      <use xlink:href="#DejaVuSans-69" x="1224.871094"/>
      <use xlink:href="#DejaVuSans-6f" x="1252.654297"/>
      <use xlink:href="#DejaVuSans-6e" x="1313.835938"/>
      <use xlink:href="#DejaVuSans-29" x="1377.214844"/>
     </g>
    </g>
   </g>
   <g id="matplotlib.axis_2">
    <g id="ytick_1">
     <g id="line2d_21">
      <path d="M 57.6 298.944 
L 360.8064 298.944 
" clip-path="url(#p1df375f6b7)" style="fill: none; stroke: #b0b0b0; stroke-width: 0.8; stroke-linecap: square"/>
     </g>
     <g id="line2d_22">
      <defs>
       <path id="m262df7ea48" d="M 0 0 
L -3.5 0 
" style="stroke: #000000; stroke-width: 0.8"/>
      </defs>
      <g>
       <use xlink:href="#m262df7ea48" x="57.6" y="298.944" style="stroke: #000000; stroke-width: 0.8"/>
      </g>
     </g>
     <g id="text_6">
      <!-- 0.0 -->
      <g transform="translate(25.155 305.02275)scale(0.16 -0.16)">
       <defs>
        <path id="DejaVuSans-2e" d="M 684 794 
L 1344 794 
L 1344 0 
L 684 0 
L 684 794 
z
" transform="scale(0.015625)"/>
       </defs>
       <use xlink:href="#DejaVuSans-30"/>
       <use xlink:href="#DejaVuSans-2e" x="63.623047"/>
       <use xlink:href="#DejaVuSans-30" x="95.410156"/>
      </g>
     </g>
    </g>
    <g id="ytick_2">
     <g id="line2d_23">
      <path d="M 57.6 244.6848 
L 360.8064 244.6848 
" clip-path="url(#p1df375f6b7)" style="fill: none; stroke: #b0b0b0; stroke-width: 0.8; stroke-linecap: square"/>
     </g>
     <g id="line2d_24">
      <g>
       <use xlink:href="#m262df7ea48" x="57.6" y="244.6848" style="stroke: #000000; stroke-width: 0.8"/>
      </g>
     </g>
     <g id="text_7">
      <!-- 0.2 -->
      <g transform="translate(25.155 250.76355)scale(0.16 -0.16)">
       <use xlink:href="#DejaVuSans-30"/>
       <use xlink:href="#DejaVuSans-2e" x="63.623047"/>
       <use xlink:href="#DejaVuSans-32" x="95.410156"/>
      </g>
     </g>
    </g>
    <g id="ytick_3">
     <g id="line2d_25">
      <path d="M 57.6 190.4256 
L 360.8064 190.4256 
" clip-path="url(#p1df375f6b7)" style="fill: none; stroke: #b0b0b0; stroke-width: 0.8; stroke-linecap: square"/>
     </g>
     <g id="line2d_26">
      <g>
       <use xlink:href="#m262df7ea48" x="57.6" y="190.4256" style="stroke: #000000; stroke-width: 0.8"/>
      </g>
     </g>
     <g id="text_8">
      <!-- 0.4 -->
      <g transform="translate(25.155 196.50435)scale(0.16 -0.16)">
       <use xlink:href="#DejaVuSans-30"/>
       <use xlink:href="#DejaVuSans-2e" x="63.623047"/>
       <use xlink:href="#DejaVuSans-34" x="95.410156"/>
      </g>
     </g>
    </g>
    <g id="ytick_4">
     <g id="line2d_27">
      <path d="M 57.6 136.1664 
L 360.8064 136.1664 
" clip-path="url(#p1df375f6b7)" style="fill: none; stroke: #b0b0b0; stroke-width: 0.8; stroke-linecap: square"/>
     </g>
     <g id="line2d_28">
      <g>
       <use xlink:href="#m262df7ea48" x="57.6" y="136.1664" style="stroke: #000000; stroke-width: 0.8"/>
      </g>
     </g>
     <g id="text_9">
      <!-- 0.6 -->
      <g transform="translate(25.155 142.24515)scale(0.16 -0.16)">
       <use xlink:href="#DejaVuSans-30"/>
       <use xlink:href="#DejaVuSans-2e" x="63.623047"/>
       <use xlink:href="#DejaVuSans-36" x="95.410156"/>
      </g>
     </g>
    </g>
    <g id="ytick_5">
     <g id="line2d_29">
      <path d="M 57.6 81.9072 
L 360.8064 81.9072 
" clip-path="url(#p1df375f6b7)" style="fill: none; stroke: #b0b0b0; stroke-width: 0.8; stroke-linecap: square"/>
     </g>
     <g id="line2d_30">
      <g>
       <use xlink:href="#m262df7ea48" x="57.6" y="81.9072" style="stroke: #000000; stroke-width: 0.8"/>
      </g>
     </g>
     <g id="text_10">
      <!-- 0.8 -->
      <g transform="translate(25.155 87.98595)scale(0.16 -0.16)">
       <defs>
        <path id="DejaVuSans-38" d="M 2034 2216 
Q 1584 2216 1326 1975 
Q 1069 1734 1069 1313 
Q 1069 891 1326 650 
Q 1584 409 2034 409 
Q 2484 409 2743 651 
Q 3003 894 3003 1313 
Q 3003 1734 2745 1975 
Q 2488 2216 2034 2216 
z
M 1403 2484 
Q 997 2584 770 2862 
Q 544 3141 544 3541 
Q 544 4100 942 4425 
Q 1341 4750 2034 4750 
Q 2731 4750 3128 4425 
Q 3525 4100 3525 3541 
Q 3525 3141 3298 2862 
Q 3072 2584 2669 2484 
Q 3125 2378 3379 2068 
Q 3634 1759 3634 1313 
Q 3634 634 3220 271 
Q 2806 -91 2034 -91 
Q 1263 -91 848 271 
Q 434 634 434 1313 
Q 434 1759 690 2068 
Q 947 2378 1403 2484 
z
M 1172 3481 
Q 1172 3119 1398 2916 
Q 1625 2713 2034 2713 
Q 2441 2713 2670 2916 
Q 2900 3119 2900 3481 
Q 2900 3844 2670 4047 
Q 2441 4250 2034 4250 
Q 1625 4250 1398 4047 
Q 1172 3844 1172 3481 
z
" transform="scale(0.015625)"/>
       </defs>
       <use xlink:href="#DejaVuSans-30"/>
       <use xlink:href="#DejaVuSans-2e" x="63.623047"/>
       <use xlink:href="#DejaVuSans-38" x="95.410156"/>
      </g>
     </g>
    </g>
    <g id="ytick_6">
     <g id="line2d_31">
      <path d="M 57.6 27.648 
L 360.8064 27.648 
" clip-path="url(#p1df375f6b7)" style="fill: none; stroke: #b0b0b0; stroke-width: 0.8; stroke-linecap: square"/>
     </g>
     <g id="line2d_32">
      <g>
       <use xlink:href="#m262df7ea48" x="57.6" y="27.648" style="stroke: #000000; stroke-width: 0.8"/>
      </g>
     </g>
     <g id="text_11">
      <!-- 1.0 -->
      <g transform="translate(25.155 33.72675)scale(0.16 -0.16)">
       <use xlink:href="#DejaVuSans-31"/>
       <use xlink:href="#DejaVuSans-2e" x="63.623047"/>
       <use xlink:href="#DejaVuSans-30" x="95.410156"/>
      </g>
     </g>
    </g>
    <g id="text_12">
     <!-- Fraction of function,target pairs -->
     <g transform="translate(17.619531 297.681)rotate(-90)scale(0.17 -0.17)">
      <defs>
       <path id="DejaVuSans-46" d="M 628 4666 
L 3309 4666 
L 3309 4134 
L 1259 4134 
L 1259 2759 
L 3109 2759 
L 3109 2228 
L 1259 2228 
L 1259 0 
L 628 0 
L 628 4666 
z
" transform="scale(0.015625)"/>
       <path id="DejaVuSans-72" d="M 2631 2963 
Q 2534 3019 2420 3045 
Q 2306 3072 2169 3072 
Q 1681 3072 1420 2755 
Q 1159 2438 1159 1844 
L 1159 0 
L 581 0 
L 581 3500 
L 1159 3500 
L 1159 2956 
Q 1341 3275 1631 3429 
Q 1922 3584 2338 3584 
Q 2397 3584 2469 3576 
Q 2541 3569 2628 3553 
L 2631 2963 
z
" transform="scale(0.015625)"/>
       <path id="DejaVuSans-63" d="M 3122 3366 
L 3122 2828 
Q 2878 2963 2633 3030 
Q 2388 3097 2138 3097 
Q 1578 3097 1268 2742 
Q 959 2388 959 1747 
Q 959 1106 1268 751 
Q 1578 397 2138 397 
Q 2388 397 2633 464 
Q 2878 531 3122 666 
L 3122 134 
Q 2881 22 2623 -34 
Q 2366 -91 2075 -91 
Q 1284 -91 818 406 
Q 353 903 353 1747 
Q 353 2603 823 3093 
Q 1294 3584 2113 3584 
Q 2378 3584 2631 3529 
Q 2884 3475 3122 3366 
z
" transform="scale(0.015625)"/>
       <path id="DejaVuSans-74" d="M 1172 4494 
L 1172 3500 
L 2356 3500 
L 2356 3053 
L 1172 3053 
L 1172 1153 
Q 1172 725 1289 603 
Q 1406 481 1766 481 
L 2356 481 
L 2356 0 
L 1766 0 
Q 1100 0 847 248 
Q 594 497 594 1153 
L 594 3053 
L 172 3053 
L 172 3500 
L 594 3500 
L 594 4494 
L 1172 4494 
z
" transform="scale(0.015625)"/>
       <path id="DejaVuSans-75" d="M 544 1381 
L 544 3500 
L 1119 3500 
L 1119 1403 
Q 1119 906 1312 657 
Q 1506 409 1894 409 
Q 2359 409 2629 706 
Q 2900 1003 2900 1516 
L 2900 3500 
L 3475 3500 
L 3475 0 
L 2900 0 
L 2900 538 
Q 2691 219 2414 64 
Q 2138 -91 1772 -91 
Q 1169 -91 856 284 
Q 544 659 544 1381 
z
M 1991 3584 
L 1991 3584 
z
" transform="scale(0.015625)"/>
       <path id="DejaVuSans-2c" d="M 750 794 
L 1409 794 
L 1409 256 
L 897 -744 
L 494 -744 
L 750 256 
L 750 794 
z
" transform="scale(0.015625)"/>
       <path id="DejaVuSans-70" d="M 1159 525 
L 1159 -1331 
L 581 -1331 
L 581 3500 
L 1159 3500 
L 1159 2969 
Q 1341 3281 1617 3432 
Q 1894 3584 2278 3584 
Q 2916 3584 3314 3078 
Q 3713 2572 3713 1747 
Q 3713 922 3314 415 
Q 2916 -91 2278 -91 
Q 1894 -91 1617 61 
Q 1341 213 1159 525 
z
M 3116 1747 
Q 3116 2381 2855 2742 
Q 2594 3103 2138 3103 
Q 1681 3103 1420 2742 
Q 1159 2381 1159 1747 
Q 1159 1113 1420 752 
Q 1681 391 2138 391 
Q 2594 391 2855 752 
Q 3116 1113 3116 1747 
z
" transform="scale(0.015625)"/>
      </defs>
      <use xlink:href="#DejaVuSans-46"/>
      <use xlink:href="#DejaVuSans-72" x="50.269531"/>
      <use xlink:href="#DejaVuSans-61" x="91.382812"/>
      <use xlink:href="#DejaVuSans-63" x="152.662109"/>
      <use xlink:href="#DejaVuSans-74" x="207.642578"/>
      <use xlink:href="#DejaVuSans-69" x="246.851562"/>
      <use xlink:href="#DejaVuSans-6f" x="274.634766"/>
      <use xlink:href="#DejaVuSans-6e" x="335.816406"/>
      <use xlink:href="#DejaVuSans-20" x="399.195312"/>
      <use xlink:href="#DejaVuSans-6f" x="430.982422"/>
      <use xlink:href="#DejaVuSans-66" x="492.164062"/>
      <use xlink:href="#DejaVuSans-20" x="527.369141"/>
      <use xlink:href="#DejaVuSans-66" x="559.15625"/>
      <use xlink:href="#DejaVuSans-75" x="594.361328"/>
      <use xlink:href="#DejaVuSans-6e" x="657.740234"/>
      <use xlink:href="#DejaVuSans-63" x="721.119141"/>
      <use xlink:href="#DejaVuSans-74" x="776.099609"/>
      <use xlink:href="#DejaVuSans-69" x="815.308594"/>
      <use xlink:href="#DejaVuSans-6f" x="843.091797"/>
      <use xlink:href="#DejaVuSans-6e" x="904.273438"/>
      <use xlink:href="#DejaVuSans-2c" x="967.652344"/>
      <use xlink:href="#DejaVuSans-74" x="999.439453"/>
      <use xlink:href="#DejaVuSans-61" x="1038.648438"/>
      <use xlink:href="#DejaVuSans-72" x="1099.927734"/>
      <use xlink:href="#DejaVuSans-67" x="1139.291016"/>
      <use xlink:href="#DejaVuSans-65" x="1202.767578"/>
      <use xlink:href="#DejaVuSans-74" x="1264.291016"/>
      <use xlink:href="#DejaVuSans-20" x="1303.5"/>
      <use xlink:href="#DejaVuSans-70" x="1335.287109"/>
      <use xlink:href="#DejaVuSans-61" x="1398.763672"/>
      <use xlink:href="#DejaVuSans-69" x="1460.042969"/>
      <use xlink:href="#DejaVuSans-72" x="1487.826172"/>
      <use xlink:href="#DejaVuSans-73" x="1528.939453"/>
     </g>
    </g>
   </g>
   <g id="line2d_33">
    <defs>
     <path id="m0d9854e2b7" d="M 0 1.5 
C 0.397805 1.5 0.77937 1.341951 1.06066 1.06066 
C 1.341951 0.77937 1.5 0.397805 1.5 0 
C 1.5 -0.397805 1.341951 -0.77937 1.06066 -1.06066 
C 0.77937 -1.341951 0.397805 -1.5 0 -1.5 
C -0.397805 -1.5 -0.77937 -1.341951 -1.06066 -1.06066 
C -1.341951 -0.77937 -1.5 -0.397805 -1.5 0 
C -1.5 0.397805 -1.341951 0.77937 -1.06066 1.06066 
C -0.77937 1.341951 -0.397805 1.5 0 1.5 
z
" style="stroke: #f5deb3"/>
    </defs>
    <g>
     <use xlink:href="#m0d9854e2b7" x="155.329337" y="27.648" style="fill: #f5deb3; stroke: #f5deb3"/>
     <use xlink:href="#m0d9854e2b7" x="155.329337" y="27.648" style="fill: #f5deb3; stroke: #f5deb3"/>
    </g>
   </g>
   <g id="line2d_34">
    <defs>
     <path id="m978fdda6f6" d="M 0 1.5 
C 0.397805 1.5 0.77937 1.341951 1.06066 1.06066 
C 1.341951 0.77937 1.5 0.397805 1.5 0 
C 1.5 -0.397805 1.341951 -0.77937 1.06066 -1.06066 
C 0.77937 -1.341951 0.397805 -1.5 0 -1.5 
C -0.397805 -1.5 -0.77937 -1.341951 -1.06066 -1.06066 
C -1.341951 -0.77937 -1.5 -0.397805 -1.5 0 
C -1.5 0.397805 -1.341951 0.77937 -1.06066 1.06066 
C -0.77937 1.341951 -0.397805 1.5 0 1.5 
z
" style="stroke: #000080"/>
    </defs>
    <g>
     <use xlink:href="#m978fdda6f6" x="354.206385" y="160.636235" style="fill: #000080; stroke: #000080"/>
     <use xlink:href="#m978fdda6f6" x="354.206385" y="160.636235" style="fill: #000080; stroke: #000080"/>
    </g>
   </g>
   <g id="line2d_35">
    <path d="M 167.44965 298.944 
L 167.44965 298.234729 
L 184.821789 298.234729 
L 184.821789 297.880094 
L 185.734223 297.880094 
L 185.734223 297.525459 
L 193.246689 297.525459 
L 193.246689 297.170824 
L 195.052247 297.170824 
L 195.052247 296.816188 
L 197.863138 296.816188 
L 197.863138 296.461553 
L 210.835888 296.461553 
L 210.932723 295.043012 
L 217.750005 295.043012 
L 217.750005 294.688376 
L 222.339814 294.688376 
L 222.339814 294.333741 
L 228.087787 294.333741 
L 228.087787 293.979106 
L 229.27999 293.979106 
L 229.27999 293.624471 
L 231.964381 293.624471 
L 231.964381 292.560565 
L 232.354832 292.560565 
L 232.361781 291.851294 
L 233.078488 291.851294 
L 233.078488 291.496659 
L 233.706897 291.496659 
L 233.706897 291.142024 
L 234.410873 291.142024 
L 234.410873 290.787388 
L 234.566922 290.787388 
L 234.566922 290.432753 
L 234.935272 290.432753 
L 234.938907 289.723482 
L 235.418007 289.723482 
L 235.425092 289.014212 
L 236.04925 289.014212 
L 236.134434 287.950306 
L 236.38433 287.950306 
L 236.38433 287.595671 
L 236.627628 287.595671 
L 236.627628 287.241035 
L 240.290963 287.241035 
L 240.290963 286.8864 
L 240.621012 286.8864 
L 240.621012 286.531765 
L 240.882756 286.531765 
L 240.938326 285.113224 
L 241.031018 285.113224 
L 241.031018 284.758588 
L 241.159632 284.758588 
L 241.222852 283.694682 
L 241.459283 283.694682 
L 241.475125 282.630776 
L 241.849297 282.630776 
L 241.937408 281.921506 
L 241.986413 281.921506 
L 241.986413 281.566871 
L 242.187964 281.566871 
L 242.262608 280.502965 
L 242.492281 280.502965 
L 242.492281 280.148329 
L 242.988654 280.148329 
L 243.083783 279.439059 
L 243.139494 279.439059 
L 243.200704 278.729788 
L 243.332613 278.729788 
L 243.381213 277.665882 
L 243.775975 277.665882 
L 243.857224 276.956612 
L 244.358791 276.956612 
L 244.358791 276.601976 
L 245.296801 276.601976 
L 245.296801 276.247341 
L 246.894895 276.247341 
L 246.894895 275.892706 
L 247.067683 275.892706 
L 247.067683 275.538071 
L 247.784442 275.538071 
L 247.784442 275.183435 
L 248.157902 275.183435 
L 248.18009 274.474165 
L 248.317435 274.474165 
L 248.317435 274.119529 
L 248.617867 274.119529 
L 248.617867 273.764894 
L 248.752064 273.764894 
L 248.752064 273.410259 
L 249.112537 273.410259 
L 249.112537 273.055624 
L 249.449433 273.055624 
L 249.460075 272.346353 
L 249.81862 272.346353 
L 249.927213 271.282447 
L 250.080744 271.282447 
L 250.137271 270.218541 
L 250.498759 270.218541 
L 250.534092 269.154635 
L 250.682506 269.154635 
L 250.754774 268.445365 
L 250.883563 268.445365 
L 250.883563 268.090729 
L 251.007223 268.090729 
L 251.092122 267.026824 
L 251.445583 267.026824 
L 251.445583 266.672188 
L 252.179635 266.672188 
L 252.179635 266.317553 
L 252.719709 266.317553 
L 252.719709 265.962918 
L 253.203455 265.962918 
L 253.243908 265.253647 
L 253.366566 265.253647 
L 253.366566 264.899012 
L 253.590076 264.899012 
L 253.590076 264.544376 
L 253.966598 264.544376 
L 254.060549 263.480471 
L 254.10478 263.480471 
L 254.10478 263.125835 
L 254.517617 263.125835 
L 254.517617 262.7712 
L 254.697972 262.7712 
L 254.697972 262.416565 
L 254.864751 262.416565 
L 254.864751 262.061929 
L 255.238365 262.061929 
L 255.238365 261.707294 
L 255.518781 261.707294 
L 255.559311 260.998024 
L 256.065997 260.998024 
L 256.065997 260.643388 
L 256.419614 260.643388 
L 256.419614 260.288753 
L 256.643758 260.288753 
L 256.643758 259.934118 
L 256.91562 259.934118 
L 257.013589 259.224847 
L 257.037745 259.224847 
L 257.113567 258.515576 
L 257.185001 258.515576 
L 257.185001 258.160941 
L 257.357809 258.160941 
L 257.357809 257.806306 
L 257.765375 257.806306 
L 257.799909 257.097035 
L 258.009705 257.097035 
L 258.062765 256.387765 
L 258.305824 256.387765 
L 258.364423 255.678494 
L 258.424839 255.678494 
L 258.424839 255.323859 
L 258.706412 255.323859 
L 258.709751 254.614588 
L 259.155667 254.614588 
L 259.155667 254.259953 
L 259.777159 254.259953 
L 259.777159 253.905318 
L 259.892633 253.905318 
L 259.977495 252.841412 
L 260.024175 252.841412 
L 260.073764 251.777506 
L 260.165978 251.777506 
L 260.165978 251.422871 
L 260.304439 251.422871 
L 260.304439 251.068235 
L 260.424078 251.068235 
L 260.511483 250.004329 
L 260.652685 250.004329 
L 260.752558 248.940424 
L 260.938792 248.940424 
L 260.976472 247.876518 
L 261.09547 247.876518 
L 261.159837 247.167247 
L 261.536103 247.167247 
L 261.536103 246.812612 
L 261.826235 246.812612 
L 261.848273 245.748706 
L 262.063743 245.748706 
L 262.145651 244.6848 
L 262.211504 244.6848 
L 262.211504 244.330165 
L 262.396364 244.330165 
L 262.479362 243.620894 
L 262.509815 243.620894 
L 262.509815 243.266259 
L 263.296441 243.266259 
L 263.296441 242.911624 
L 264.019432 242.911624 
L 264.019432 242.556988 
L 264.537334 242.556988 
L 264.537334 242.202353 
L 264.915412 242.202353 
L 264.915412 241.847718 
L 265.417211 241.847718 
L 265.486665 240.783812 
L 265.910293 240.783812 
L 265.910293 240.429176 
L 266.068021 240.429176 
L 266.068021 240.074541 
L 266.625485 240.074541 
L 266.704847 239.365271 
L 266.79123 239.365271 
L 266.79123 239.010635 
L 267.436537 239.010635 
L 267.479071 238.301365 
L 267.611058 238.301365 
L 267.634937 237.592094 
L 268.637262 237.592094 
L 268.637262 237.237459 
L 268.9565 237.237459 
L 268.9565 236.882824 
L 269.275587 236.882824 
L 269.275587 236.528188 
L 269.394863 236.528188 
L 269.394863 236.173553 
L 269.549844 236.173553 
L 269.549844 235.818918 
L 269.817173 235.818918 
L 269.817173 235.464282 
L 270.487649 235.464282 
L 270.579929 234.755012 
L 270.835894 234.755012 
L 270.912617 234.045741 
L 270.970301 234.045741 
L 270.970301 233.691106 
L 271.31217 233.691106 
L 271.31217 233.336471 
L 271.745929 233.336471 
L 271.745929 232.981835 
L 271.938023 232.981835 
L 271.938023 232.6272 
L 272.06889 232.6272 
L 272.06889 232.272565 
L 272.301799 232.272565 
L 272.308116 231.563294 
L 272.607831 231.563294 
L 272.607831 231.208659 
L 273.376147 231.208659 
L 273.408624 230.499388 
L 273.537546 230.499388 
L 273.537546 230.144753 
L 273.725761 230.144753 
L 273.795149 229.435482 
L 274.817109 229.435482 
L 274.817109 229.080847 
L 275.090414 229.080847 
L 275.090414 228.726212 
L 276.572637 228.726212 
L 276.572637 228.371576 
L 277.097429 228.371576 
L 277.185193 227.662306 
L 277.220332 227.662306 
L 277.220332 227.307671 
L 277.331592 227.307671 
L 277.331592 226.953035 
L 277.481121 226.953035 
L 277.512372 226.243765 
L 278.787373 226.243765 
L 278.787373 225.889129 
L 278.964845 225.889129 
L 279.01192 225.179859 
L 279.717474 225.179859 
L 279.738368 224.115953 
L 279.844912 224.115953 
L 279.844912 223.761318 
L 280.035113 223.761318 
L 280.035113 223.052047 
L 280.533788 223.052047 
L 280.626136 221.988141 
L 280.817705 221.988141 
L 280.817705 221.633506 
L 281.361036 221.633506 
L 281.361036 221.278871 
L 281.485347 221.278871 
L 281.530038 220.5696 
L 281.750129 220.5696 
L 281.750129 219.860329 
L 282.043579 219.860329 
L 282.142104 218.796424 
L 282.232713 218.796424 
L 282.272314 217.732518 
L 283.34101 217.732518 
L 283.34101 217.377882 
L 283.816226 217.377882 
L 283.816226 216.668612 
L 284.648922 216.668612 
L 284.648922 216.313976 
L 285.619156 216.313976 
L 285.619156 215.604706 
L 286.039351 215.604706 
L 286.129447 214.5408 
L 286.819499 214.5408 
L 286.819499 214.186165 
L 288.779878 214.186165 
L 288.779878 213.831529 
L 288.940229 213.831529 
L 288.940229 213.476894 
L 290.201205 213.476894 
L 290.289452 212.767624 
L 290.674108 212.767624 
L 290.674108 211.703718 
L 291.493388 211.703718 
L 291.601924 209.221271 
L 291.632754 209.221271 
L 291.695583 208.512 
L 292.350395 208.512 
L 292.367011 207.448094 
L 292.90445 207.448094 
L 292.90445 206.738824 
L 293.691674 206.738824 
L 293.691674 206.384188 
L 293.833539 206.384188 
L 293.833539 206.029553 
L 294.125791 206.029553 
L 294.125791 205.674918 
L 294.632183 205.674918 
L 294.632183 205.320282 
L 295.900063 205.320282 
L 295.900063 204.965647 
L 296.388862 204.965647 
L 296.388862 204.611012 
L 296.876596 204.611012 
L 296.876596 204.256376 
L 297.208742 204.256376 
L 297.246856 202.128565 
L 297.877662 202.128565 
L 297.9448 200.000753 
L 298.631538 200.000753 
L 298.631538 199.646118 
L 299.578219 199.646118 
L 299.578219 199.291482 
L 299.804476 199.291482 
L 299.804476 198.936847 
L 300.142796 198.936847 
L 300.142796 198.582212 
L 302.085729 198.582212 
L 302.085729 198.227576 
L 302.44813 198.227576 
L 302.550422 196.809035 
L 302.575306 196.809035 
L 302.624021 194.681224 
L 302.996646 194.681224 
L 302.996646 193.971953 
L 304.362836 193.971953 
L 304.362836 193.617318 
L 305.905306 193.617318 
L 305.905306 193.262682 
L 306.247051 193.262682 
L 306.345233 192.198776 
L 306.363011 192.198776 
L 306.363011 191.844141 
L 306.676915 191.844141 
L 306.676915 190.780235 
L 309.122288 190.780235 
L 309.122288 189.716329 
L 309.418521 189.716329 
L 309.46045 188.652424 
L 311.836415 188.652424 
L 311.849816 187.943153 
L 312.106337 187.943153 
L 312.171999 186.879247 
L 314.216049 186.879247 
L 314.231491 185.106071 
L 314.45769 185.106071 
L 314.517565 184.042165 
L 315.341282 184.042165 
L 315.341282 183.687529 
L 316.547521 183.687529 
L 316.60111 182.268988 
L 316.777581 182.268988 
L 316.777581 181.914353 
L 317.849098 181.914353 
L 317.849098 181.559718 
L 318.245278 181.559718 
L 318.245278 181.205082 
L 318.443514 181.205082 
L 318.475169 179.786541 
L 320.137876 179.786541 
L 320.176891 179.077271 
L 320.328165 179.077271 
L 320.328165 178.722635 
L 321.744459 178.722635 
L 321.744459 178.368 
L 321.880161 178.368 
L 321.880161 178.013365 
L 323.002 178.013365 
L 323.002 177.658729 
L 323.171791 177.658729 
L 323.188104 176.949459 
L 323.313815 176.949459 
L 323.313815 176.594824 
L 324.362459 176.594824 
L 324.362459 176.240188 
L 324.513622 176.240188 
L 324.528813 175.530918 
L 324.645903 175.530918 
L 324.645903 175.176282 
L 325.618248 175.176282 
L 325.618248 174.821647 
L 325.76608 174.821647 
L 325.77743 174.112376 
L 326.93352 174.112376 
L 326.93352 173.757741 
L 328.055624 173.757741 
L 328.155271 173.048471 
L 328.965646 173.048471 
L 328.965646 172.693835 
L 329.083383 172.693835 
L 329.10137 171.984565 
L 329.961002 171.984565 
L 329.961002 171.629929 
L 330.087479 171.629929 
L 330.087479 171.275294 
L 331.018041 171.275294 
L 331.029589 169.856753 
L 331.900221 169.856753 
L 332.002287 168.792847 
L 332.755022 168.792847 
L 332.755022 168.438212 
L 334.377052 168.438212 
L 334.377052 168.083576 
L 336.528319 168.083576 
L 336.546268 167.374306 
L 337.865206 167.374306 
L 337.865206 166.665035 
L 339.082026 166.665035 
L 339.098216 165.601129 
L 340.239643 165.601129 
L 340.25438 164.891859 
L 340.734374 164.891859 
L 340.807573 164.182588 
L 341.334661 164.182588 
L 341.334661 163.827953 
L 341.866529 163.827953 
L 341.866529 163.473318 
L 342.855789 163.473318 
L 342.855789 163.118682 
L 344.725311 163.118682 
L 344.725311 162.764047 
L 346.816026 162.764047 
L 346.816026 162.409412 
L 347.54154 162.409412 
L 347.54154 162.054776 
L 349.048867 162.054776 
L 349.048867 161.700141 
L 349.392064 161.700141 
L 349.392064 161.345506 
L 353.694596 161.345506 
L 353.694596 160.990871 
L 354.206385 160.990871 
L 354.206385 160.636235 
L 360.8064 160.636235 
L 360.8064 160.636235 
" style="fill: none; stroke: #000080; stroke-width: 1.5; stroke-linecap: square"/>
   </g>
   <g id="line2d_36">
    <defs>
     <path id="m6930275f8b" d="M 0 6 
C 1.591219 6 3.117479 5.367802 4.242641 4.242641 
C 5.367802 3.117479 6 1.591219 6 0 
C 6 -1.591219 5.367802 -3.117479 4.242641 -4.242641 
C 3.117479 -5.367802 1.591219 -6 0 -6 
C -1.591219 -6 -3.117479 -5.367802 -4.242641 -4.242641 
C -5.367802 -3.117479 -6 -1.591219 -6 0 
C -6 1.591219 -5.367802 3.117479 -4.242641 4.242641 
C -3.117479 5.367802 -1.591219 6 0 6 
z
" style="stroke: #000080; stroke-width: 1.5"/>
    </defs>
    <g>
     <use xlink:href="#m6930275f8b" x="222.339814" y="294.688376" style="fill-opacity: 0; stroke: #000080; stroke-width: 1.5"/>
     <use xlink:href="#m6930275f8b" x="278.964845" y="225.889129" style="fill-opacity: 0; stroke: #000080; stroke-width: 1.5"/>
     <use xlink:href="#m6930275f8b" x="354.206385" y="160.990871" style="fill-opacity: 0; stroke: #000080; stroke-width: 1.5"/>
     <use xlink:href="#m6930275f8b" x="360.8064" y="160.636235" style="fill-opacity: 0; stroke: #000080; stroke-width: 1.5"/>
    </g>
   </g>
   <g id="line2d_37">
    <path style="fill: none; stroke: #000080; stroke-width: 1.5; stroke-linecap: square"/>
    <g/>
   </g>
   <g id="line2d_38">
    <path d="M 274.176 229.435482 
" clip-path="url(#p1df375f6b7)" style="fill: none; stroke: #000080; stroke-width: 1.5; stroke-linecap: square"/>
    <defs>
     <path id="mc505d09bf9" d="M -12 12 
L 12 -12 
M -12 -12 
L 12 12 
" style="stroke: #000080"/>
    </defs>
    <g clip-path="url(#p1df375f6b7)">
     <use xlink:href="#mc505d09bf9" x="274.176" y="229.435482" style="fill: #000080; stroke: #000080"/>
    </g>
   </g>
   <g id="line2d_39">
    <defs>
     <path id="m6f23ea5a9b" d="M 0 1.5 
C 0.397805 1.5 0.77937 1.341951 1.06066 1.06066 
C 1.341951 0.77937 1.5 0.397805 1.5 0 
C 1.5 -0.397805 1.341951 -0.77937 1.06066 -1.06066 
C 0.77937 -1.341951 0.397805 -1.5 0 -1.5 
C -0.397805 -1.5 -0.77937 -1.341951 -1.06066 -1.06066 
C -1.341951 -0.77937 -1.5 -0.397805 -1.5 0 
C -1.5 0.397805 -1.341951 0.77937 -1.06066 1.06066 
C -0.77937 1.341951 -0.397805 1.5 0 1.5 
z
" style="stroke: #ff00ff"/>
    </defs>
    <g>
     <use xlink:href="#m6f23ea5a9b" x="342.470854" y="187.233882" style="fill: #ff00ff; stroke: #ff00ff"/>
     <use xlink:href="#m6f23ea5a9b" x="342.470854" y="187.233882" style="fill: #ff00ff; stroke: #ff00ff"/>
    </g>
   </g>
   <g id="line2d_40">
    <path d="M 170.308749 298.944 
L 170.308749 298.234729 
L 205.075128 298.234729 
L 205.075128 297.880094 
L 205.407044 297.880094 
L 205.407044 297.525459 
L 206.47387 297.525459 
L 206.47387 297.170824 
L 206.610921 297.170824 
L 206.610921 296.816188 
L 206.746981 296.816188 
L 206.746981 296.461553 
L 207.492551 296.461553 
L 207.492551 295.752282 
L 212.880502 295.752282 
L 212.880502 295.397647 
L 215.776821 295.397647 
L 215.776821 295.043012 
L 216.670457 295.043012 
L 216.751875 293.979106 
L 216.910503 293.979106 
L 216.994822 292.560565 
L 217.066237 292.560565 
L 217.067804 291.851294 
L 217.606703 291.851294 
L 217.606703 291.142024 
L 217.801298 291.142024 
L 217.801298 290.787388 
L 218.025934 290.787388 
L 218.12245 289.368847 
L 218.394468 289.368847 
L 218.394468 289.014212 
L 219.732529 289.014212 
L 219.732529 288.659576 
L 220.022587 288.659576 
L 220.022587 288.304941 
L 220.218362 288.304941 
L 220.218362 287.950306 
L 220.465808 287.950306 
L 220.505647 287.241035 
L 220.933296 287.241035 
L 220.933296 286.8864 
L 224.809756 286.8864 
L 224.809756 286.531765 
L 225.047498 286.531765 
L 225.047498 285.822494 
L 225.220426 285.822494 
L 225.220426 285.467859 
L 225.643683 285.467859 
L 225.708115 284.758588 
L 226.148229 284.758588 
L 226.257628 284.049318 
L 226.448867 284.049318 
L 226.534294 283.340047 
L 227.304814 283.340047 
L 227.304814 282.985412 
L 227.443385 282.985412 
L 227.443385 282.630776 
L 227.852192 282.630776 
L 227.852192 282.276141 
L 227.991624 282.276141 
L 227.991624 281.921506 
L 228.245388 281.921506 
L 228.338975 280.502965 
L 228.378942 280.502965 
L 228.378942 280.148329 
L 228.672845 280.148329 
L 228.730657 279.084424 
L 231.485029 279.084424 
L 231.485029 278.729788 
L 231.678022 278.729788 
L 231.678022 278.375153 
L 232.228612 278.375153 
L 232.228612 278.020518 
L 232.344751 278.020518 
L 232.437357 277.311247 
L 232.540867 277.311247 
L 232.603387 276.601976 
L 232.757423 276.601976 
L 232.757423 276.247341 
L 234.250692 276.247341 
L 234.250692 275.892706 
L 236.832793 275.892706 
L 236.832793 275.538071 
L 237.491612 275.538071 
L 237.58737 274.474165 
L 237.88367 274.474165 
L 237.88367 274.119529 
L 239.160801 274.119529 
L 239.160801 273.764894 
L 241.153973 273.764894 
L 241.240845 273.055624 
L 241.705467 273.055624 
L 241.705467 272.700988 
L 242.063933 272.700988 
L 242.09833 271.991718 
L 242.283324 271.991718 
L 242.283324 271.637082 
L 242.492079 271.637082 
L 242.492079 271.282447 
L 243.687906 271.282447 
L 243.687906 270.927812 
L 244.094418 270.927812 
L 244.094418 270.573176 
L 244.523112 270.573176 
L 244.523112 270.218541 
L 244.745094 270.218541 
L 244.849835 269.509271 
L 244.906268 269.509271 
L 244.906268 269.154635 
L 245.256763 269.154635 
L 245.256763 268.8 
L 245.829223 268.8 
L 245.880088 267.381459 
L 246.979251 267.381459 
L 246.979251 267.026824 
L 247.437427 267.026824 
L 247.437427 266.672188 
L 247.756265 266.672188 
L 247.806922 265.962918 
L 247.876334 265.962918 
L 247.876334 265.608282 
L 248.091179 265.608282 
L 248.091179 265.253647 
L 248.397883 265.253647 
L 248.397883 264.899012 
L 249.626748 264.899012 
L 249.626748 264.544376 
L 250.78363 264.544376 
L 250.78363 264.189741 
L 251.004128 264.189741 
L 251.004128 263.835106 
L 251.195541 263.835106 
L 251.195541 263.480471 
L 251.364291 263.480471 
L 251.364291 263.125835 
L 251.699305 263.125835 
L 251.699305 262.7712 
L 252.111676 262.7712 
L 252.111676 262.416565 
L 252.428732 262.416565 
L 252.428732 262.061929 
L 253.587716 262.061929 
L 253.587716 261.707294 
L 253.868521 261.707294 
L 253.868521 261.352659 
L 254.134173 261.352659 
L 254.177795 260.643388 
L 254.372853 260.643388 
L 254.437318 259.934118 
L 254.565055 259.934118 
L 254.596935 259.224847 
L 254.803422 259.224847 
L 254.803422 258.870212 
L 255.339301 258.870212 
L 255.339301 258.515576 
L 255.569025 258.515576 
L 255.569025 258.160941 
L 256.912229 258.160941 
L 256.912229 257.806306 
L 257.219227 257.806306 
L 257.221729 257.097035 
L 257.40916 257.097035 
L 257.40916 256.7424 
L 257.937149 256.7424 
L 257.963889 256.033129 
L 258.264407 256.033129 
L 258.264407 255.678494 
L 258.620162 255.678494 
L 258.620162 255.323859 
L 258.797296 255.323859 
L 258.797296 254.969224 
L 259.379226 254.969224 
L 259.379226 254.614588 
L 259.516936 254.614588 
L 259.600241 253.905318 
L 260.476757 253.905318 
L 260.512806 253.196047 
L 261.686004 253.196047 
L 261.686004 252.841412 
L 262.115245 252.841412 
L 262.159125 252.132141 
L 262.279889 252.132141 
L 262.36467 250.358965 
L 263.059146 250.358965 
L 263.059146 250.004329 
L 263.327877 250.004329 
L 263.327877 249.649694 
L 263.520043 249.649694 
L 263.520043 249.295059 
L 263.739053 249.295059 
L 263.739053 248.940424 
L 264.121733 248.940424 
L 264.121733 248.585788 
L 264.452674 248.585788 
L 264.452674 248.231153 
L 264.771568 248.231153 
L 264.771568 247.876518 
L 264.92532 247.876518 
L 264.92532 247.521882 
L 265.381637 247.521882 
L 265.381637 247.167247 
L 265.897269 247.167247 
L 265.996966 246.103341 
L 266.167222 246.103341 
L 266.167222 245.748706 
L 266.753253 245.748706 
L 266.771219 244.6848 
L 267.340957 244.6848 
L 267.340957 244.330165 
L 267.501938 244.330165 
L 267.54047 243.620894 
L 267.73206 243.620894 
L 267.73206 243.266259 
L 267.865395 243.266259 
L 267.887903 242.202353 
L 268.144148 242.202353 
L 268.144148 241.847718 
L 268.310303 241.847718 
L 268.310303 241.493082 
L 268.978087 241.493082 
L 269.087379 240.429176 
L 269.308365 240.429176 
L 269.308365 240.074541 
L 269.70208 240.074541 
L 269.70208 239.719906 
L 269.983543 239.719906 
L 269.983543 239.365271 
L 271.48434 239.365271 
L 271.48434 239.010635 
L 272.745019 239.010635 
L 272.745019 238.656 
L 273.034468 238.656 
L 273.117039 237.946729 
L 273.790964 237.946729 
L 273.790964 237.592094 
L 273.932095 237.592094 
L 273.988876 236.882824 
L 274.175549 236.882824 
L 274.175549 236.528188 
L 274.469158 236.528188 
L 274.469158 236.173553 
L 274.679594 236.173553 
L 274.679594 235.818918 
L 275.719452 235.818918 
L 275.719452 235.464282 
L 275.880069 235.464282 
L 275.978473 234.755012 
L 276.019758 234.755012 
L 276.019758 234.400376 
L 276.162039 234.400376 
L 276.162039 234.045741 
L 276.384055 234.045741 
L 276.432404 233.336471 
L 276.681658 233.336471 
L 276.681658 232.981835 
L 277.076545 232.981835 
L 277.076545 232.6272 
L 277.752006 232.6272 
L 277.752006 232.272565 
L 278.194037 232.272565 
L 278.194037 231.917929 
L 278.563391 231.917929 
L 278.563391 231.563294 
L 278.730992 231.563294 
L 278.730992 231.208659 
L 279.235745 231.208659 
L 279.235745 230.854024 
L 279.572512 230.854024 
L 279.572512 230.499388 
L 279.939173 230.499388 
L 279.939173 230.144753 
L 281.211169 230.144753 
L 281.211169 229.790118 
L 281.775742 229.790118 
L 281.775742 229.435482 
L 282.357576 229.435482 
L 282.357576 229.080847 
L 282.579971 229.080847 
L 282.579971 228.726212 
L 283.209149 228.726212 
L 283.209149 228.371576 
L 283.630851 228.371576 
L 283.630851 228.016941 
L 283.876978 228.016941 
L 283.876978 227.662306 
L 284.347357 227.662306 
L 284.347357 227.307671 
L 284.993569 227.307671 
L 284.993569 226.953035 
L 285.124575 226.953035 
L 285.154278 226.243765 
L 285.350698 226.243765 
L 285.350698 225.889129 
L 285.547143 225.889129 
L 285.547143 225.534494 
L 286.220324 225.534494 
L 286.220324 225.179859 
L 286.894274 225.179859 
L 286.894274 224.825224 
L 287.403045 224.825224 
L 287.403045 224.470588 
L 287.899741 224.470588 
L 287.899741 224.115953 
L 288.078504 224.115953 
L 288.078504 223.761318 
L 288.275741 223.761318 
L 288.275741 223.406682 
L 289.150823 223.406682 
L 289.150823 223.052047 
L 289.984906 223.052047 
L 290.060221 222.342776 
L 290.239735 222.342776 
L 290.239735 221.988141 
L 290.40287 221.988141 
L 290.438929 221.278871 
L 290.780896 221.278871 
L 290.891057 220.5696 
L 291.159255 220.5696 
L 291.178952 219.860329 
L 291.613497 219.860329 
L 291.667246 219.151059 
L 292.461073 219.151059 
L 292.461073 218.796424 
L 293.473241 218.796424 
L 293.499928 218.087153 
L 294.360379 218.087153 
L 294.360379 217.732518 
L 294.641996 217.732518 
L 294.641996 217.377882 
L 294.776772 217.377882 
L 294.776772 217.023247 
L 295.270331 217.023247 
L 295.270331 216.668612 
L 295.408339 216.668612 
L 295.408339 216.313976 
L 295.750123 216.313976 
L 295.750123 215.959341 
L 295.907696 215.959341 
L 295.907696 215.604706 
L 296.177489 215.604706 
L 296.190416 214.895435 
L 297.149329 214.895435 
L 297.149329 214.5408 
L 298.564794 214.5408 
L 298.564794 214.186165 
L 298.913095 214.186165 
L 298.913095 213.831529 
L 299.227401 213.831529 
L 299.227401 213.476894 
L 299.657427 213.476894 
L 299.713365 212.767624 
L 300.028882 212.767624 
L 300.028882 212.412988 
L 300.668952 212.412988 
L 300.668952 212.058353 
L 301.63559 212.058353 
L 301.685996 211.349082 
L 301.914078 211.349082 
L 302.023247 210.639812 
L 302.157629 210.639812 
L 302.157629 210.285176 
L 302.529398 210.285176 
L 302.529398 209.930541 
L 302.912509 209.930541 
L 303.010551 208.866635 
L 304.293387 208.866635 
L 304.293387 208.512 
L 304.880144 208.512 
L 304.881328 207.802729 
L 305.457698 207.802729 
L 305.566772 207.093459 
L 305.622861 207.093459 
L 305.622861 206.738824 
L 305.743058 206.738824 
L 305.743058 206.384188 
L 306.447791 206.384188 
L 306.447791 206.029553 
L 306.915702 206.029553 
L 306.915702 205.674918 
L 307.179154 205.674918 
L 307.179154 205.320282 
L 307.450218 205.320282 
L 307.450218 204.965647 
L 307.859874 204.965647 
L 307.859874 204.611012 
L 308.118387 204.611012 
L 308.118387 204.256376 
L 308.655504 204.256376 
L 308.655504 203.901741 
L 308.831202 203.901741 
L 308.831202 203.547106 
L 309.063045 203.547106 
L 309.063045 203.192471 
L 309.822986 203.192471 
L 309.822986 202.837835 
L 309.988589 202.837835 
L 309.988589 202.4832 
L 310.148284 202.4832 
L 310.151997 201.773929 
L 310.419598 201.773929 
L 310.419598 201.419294 
L 310.845393 201.419294 
L 310.845393 201.064659 
L 311.867804 201.064659 
L 311.923157 200.355388 
L 312.477823 200.355388 
L 312.489876 199.646118 
L 312.887427 199.646118 
L 312.887427 199.291482 
L 313.391062 199.291482 
L 313.391062 198.936847 
L 314.725096 198.936847 
L 314.809878 197.872941 
L 315.043966 197.872941 
L 315.043966 197.518306 
L 316.027372 197.518306 
L 316.027372 197.163671 
L 316.75288 197.163671 
L 316.75288 196.809035 
L 317.855557 196.809035 
L 317.855557 196.4544 
L 318.353962 196.4544 
L 318.353962 196.099765 
L 318.776024 196.099765 
L 318.849896 195.390494 
L 319.352993 195.390494 
L 319.352993 195.035859 
L 320.623465 195.035859 
L 320.623465 194.681224 
L 321.369653 194.681224 
L 321.369653 194.326588 
L 321.581362 194.326588 
L 321.581362 193.971953 
L 322.155911 193.971953 
L 322.155911 193.617318 
L 323.081998 193.617318 
L 323.081998 193.262682 
L 323.756174 193.262682 
L 323.756174 192.908047 
L 324.131161 192.908047 
L 324.131161 192.553412 
L 325.136022 192.553412 
L 325.136022 192.198776 
L 326.468494 192.198776 
L 326.516522 191.489506 
L 326.895791 191.489506 
L 326.895791 191.134871 
L 327.877451 191.134871 
L 327.877451 190.780235 
L 328.545491 190.780235 
L 328.545491 190.4256 
L 330.439124 190.4256 
L 330.439124 190.070965 
L 330.789444 190.070965 
L 330.814759 189.361694 
L 332.309624 189.361694 
L 332.309624 189.007059 
L 336.463259 189.007059 
L 336.463259 188.652424 
L 337.209333 188.652424 
L 337.209333 188.297788 
L 337.548858 188.297788 
L 337.548858 187.943153 
L 339.465165 187.943153 
L 339.465165 187.588518 
L 342.470854 187.588518 
L 342.470854 187.233882 
L 360.8064 187.233882 
L 360.8064 187.233882 
" style="fill: none; stroke: #ff00ff; stroke-width: 1.5; stroke-linecap: square"/>
   </g>
   <g id="line2d_41">
    <defs>
     <path id="m2cd2161023" d="M 0 8.485281 
L 5.091169 0 
L 0 -8.485281 
L -5.091169 0 
z
" style="stroke: #ff00ff; stroke-width: 1.5; stroke-linejoin: miter"/>
    </defs>
    <g>
     <use xlink:href="#m2cd2161023" x="268.310303" y="241.847718" style="fill-opacity: 0; stroke: #ff00ff; stroke-width: 1.5; stroke-linejoin: miter"/>
     <use xlink:href="#m2cd2161023" x="342.470854" y="187.588518" style="fill-opacity: 0; stroke: #ff00ff; stroke-width: 1.5; stroke-linejoin: miter"/>
     <use xlink:href="#m2cd2161023" x="342.470854" y="187.233882" style="fill-opacity: 0; stroke: #ff00ff; stroke-width: 1.5; stroke-linejoin: miter"/>
     <use xlink:href="#m2cd2161023" x="360.8064" y="187.233882" style="fill-opacity: 0; stroke: #ff00ff; stroke-width: 1.5; stroke-linejoin: miter"/>
    </g>
   </g>
   <g id="line2d_42">
    <path style="fill: none; stroke: #ff00ff; stroke-width: 1.5; stroke-linecap: square"/>
    <g/>
   </g>
   <g id="line2d_43">
    <path d="M 265.381637 247.167247 
" clip-path="url(#p1df375f6b7)" style="fill: none; stroke: #ff00ff; stroke-width: 1.5; stroke-linecap: square"/>
    <defs>
     <path id="meb1c4ee5c4" d="M -12 12 
L 12 -12 
M -12 -12 
L 12 12 
" style="stroke: #ff00ff"/>
    </defs>
    <g clip-path="url(#p1df375f6b7)">
     <use xlink:href="#meb1c4ee5c4" x="265.381637" y="247.167247" style="fill: #ff00ff; stroke: #ff00ff"/>
    </g>
   </g>
   <g id="line2d_44">
    <path d="M 360.8064 187.233882 
L 380.514816 293.51808 
" style="fill: none; stroke: #ff00ff; stroke-width: 1.5; stroke-linecap: square"/>
    <g>
     <use xlink:href="#m2cd2161023" x="360.8064" y="187.233882" style="fill-opacity: 0; stroke: #ff00ff; stroke-width: 1.5; stroke-linejoin: miter"/>
     <use xlink:href="#m2cd2161023" x="380.514816" y="293.51808" style="fill-opacity: 0; stroke: #ff00ff; stroke-width: 1.5; stroke-linejoin: miter"/>
    </g>
   </g>
   <g id="line2d_45">
    <path d="M 360.8064 160.636235 
L 380.514816 163.296 
" style="fill: none; stroke: #000080; stroke-width: 1.5; stroke-linecap: square"/>
    <g>
     <use xlink:href="#m6930275f8b" x="360.8064" y="160.636235" style="fill-opacity: 0; stroke: #000080; stroke-width: 1.5"/>
     <use xlink:href="#m6930275f8b" x="380.514816" y="163.296" style="fill-opacity: 0; stroke: #000080; stroke-width: 1.5"/>
    </g>
   </g>
   <g id="line2d_46">
    <path d="M 360.8064 298.944 
L 360.8064 27.648 
" style="fill: none; stroke: #000000; stroke-width: 1.5; stroke-linecap: square"/>
   </g>
   <g id="patch_3">
    <path d="M 57.6 298.944 
L 360.8064 298.944 
" style="fill: none; stroke: #000000; stroke-width: 0.8; stroke-linejoin: miter; stroke-linecap: square"/>
   </g>
   <g id="patch_4">
    <path d="M 57.6 27.648 
L 360.8064 27.648 
" style="fill: none; stroke: #000000; stroke-width: 0.8; stroke-linejoin: miter; stroke-linecap: square"/>
   </g>
   <g id="text_13">
    <!-- EvoSpace- -->
    <g transform="translate(386.578944 297.381205)scale(0.14 -0.14)">
     <defs>
      <path id="DejaVuSans-45" d="M 628 4666 
L 3578 4666 
L 3578 4134 
L 1259 4134 
L 1259 2753 
L 3481 2753 
L 3481 2222 
L 1259 2222 
L 1259 531 
L 3634 531 
L 3634 0 
L 628 0 
L 628 4666 
z
" transform="scale(0.015625)"/>
      <path id="DejaVuSans-53" d="M 3425 4513 
L 3425 3897 
Q 3066 4069 2747 4153 
Q 2428 4238 2131 4238 
Q 1616 4238 1336 4038 
Q 1056 3838 1056 3469 
Q 1056 3159 1242 3001 
Q 1428 2844 1947 2747 
L 2328 2669 
Q 3034 2534 3370 2195 
Q 3706 1856 3706 1288 
Q 3706 609 3251 259 
Q 2797 -91 1919 -91 
Q 1588 -91 1214 -16 
Q 841 59 441 206 
L 441 856 
Q 825 641 1194 531 
Q 1563 422 1919 422 
Q 2459 422 2753 634 
Q 3047 847 3047 1241 
Q 3047 1584 2836 1778 
Q 2625 1972 2144 2069 
L 1759 2144 
Q 1053 2284 737 2584 
Q 422 2884 422 3419 
Q 422 4038 858 4394 
Q 1294 4750 2059 4750 
Q 2388 4750 2728 4690 
Q 3069 4631 3425 4513 
z
" transform="scale(0.015625)"/>
     </defs>
     <use xlink:href="#DejaVuSans-45"/>
     <use xlink:href="#DejaVuSans-76" x="63.183594"/>
     <use xlink:href="#DejaVuSans-6f" x="122.363281"/>
     <use xlink:href="#DejaVuSans-53" x="183.544922"/>
     <use xlink:href="#DejaVuSans-70" x="247.021484"/>
     <use xlink:href="#DejaVuSans-61" x="310.498047"/>
     <use xlink:href="#DejaVuSans-63" x="371.777344"/>
     <use xlink:href="#DejaVuSans-65" x="426.757812"/>
     <use xlink:href="#DejaVuSans-2d" x="488.28125"/>
    </g>
   </g>
   <g id="text_14">
    <!-- LCGA -->
    <g transform="translate(386.578944 167.159125)scale(0.14 -0.14)">
     <defs>
      <path id="DejaVuSans-4c" d="M 628 4666 
L 1259 4666 
L 1259 531 
L 3531 531 
L 3531 0 
L 628 0 
L 628 4666 
z
" transform="scale(0.015625)"/>
      <path id="DejaVuSans-43" d="M 4122 4306 
L 4122 3641 
Q 3803 3938 3442 4084 
Q 3081 4231 2675 4231 
Q 1875 4231 1450 3742 
Q 1025 3253 1025 2328 
Q 1025 1406 1450 917 
Q 1875 428 2675 428 
Q 3081 428 3442 575 
Q 3803 722 4122 1019 
L 4122 359 
Q 3791 134 3420 21 
Q 3050 -91 2638 -91 
Q 1578 -91 968 557 
Q 359 1206 359 2328 
Q 359 3453 968 4101 
Q 1578 4750 2638 4750 
Q 3056 4750 3426 4639 
Q 3797 4528 4122 4306 
z
" transform="scale(0.015625)"/>
      <path id="DejaVuSans-47" d="M 3809 666 
L 3809 1919 
L 2778 1919 
L 2778 2438 
L 4434 2438 
L 4434 434 
Q 4069 175 3628 42 
Q 3188 -91 2688 -91 
Q 1594 -91 976 548 
Q 359 1188 359 2328 
Q 359 3472 976 4111 
Q 1594 4750 2688 4750 
Q 3144 4750 3555 4637 
Q 3966 4525 4313 4306 
L 4313 3634 
Q 3963 3931 3569 4081 
Q 3175 4231 2741 4231 
Q 1884 4231 1454 3753 
Q 1025 3275 1025 2328 
Q 1025 1384 1454 906 
Q 1884 428 2741 428 
Q 3075 428 3337 486 
Q 3600 544 3809 666 
z
" transform="scale(0.015625)"/>
      <path id="DejaVuSans-41" d="M 2188 4044 
L 1331 1722 
L 3047 1722 
L 2188 4044 
z
M 1831 4666 
L 2547 4666 
L 4325 0 
L 3669 0 
L 3244 1197 
L 1141 1197 
L 716 0 
L 50 0 
L 1831 4666 
z
" transform="scale(0.015625)"/>
     </defs>
     <use xlink:href="#DejaVuSans-4c"/>
     <use xlink:href="#DejaVuSans-43" x="55.712891"/>
     <use xlink:href="#DejaVuSans-47" x="125.537109"/>
     <use xlink:href="#DejaVuSans-41" x="203.027344"/>
    </g>
   </g>
   <g id="text_15">
    <!-- best 2009 -->
    <g transform="translate(386.578944 36.937045)scale(0.14 -0.14)">
     <defs>
      <path id="DejaVuSans-62" d="M 3116 1747 
Q 3116 2381 2855 2742 
Q 2594 3103 2138 3103 
Q 1681 3103 1420 2742 
Q 1159 2381 1159 1747 
Q 1159 1113 1420 752 
Q 1681 391 2138 391 
Q 2594 391 2855 752 
Q 3116 1113 3116 1747 
z
M 1159 2969 
Q 1341 3281 1617 3432 
Q 1894 3584 2278 3584 
Q 2916 3584 3314 3078 
Q 3713 2572 3713 1747 
Q 3713 922 3314 415 
Q 2916 -91 2278 -91 
Q 1894 -91 1617 61 
Q 1341 213 1159 525 
L 1159 0 
L 581 0 
L 581 4863 
L 1159 4863 
L 1159 2969 
z
" transform="scale(0.015625)"/>
      <path id="DejaVuSans-39" d="M 703 97 
L 703 672 
Q 941 559 1184 500 
Q 1428 441 1663 441 
Q 2288 441 2617 861 
Q 2947 1281 2994 2138 
Q 2813 1869 2534 1725 
Q 2256 1581 1919 1581 
Q 1219 1581 811 2004 
Q 403 2428 403 3163 
Q 403 3881 828 4315 
Q 1253 4750 1959 4750 
Q 2769 4750 3195 4129 
Q 3622 3509 3622 2328 
Q 3622 1225 3098 567 
Q 2575 -91 1691 -91 
Q 1453 -91 1209 -44 
Q 966 3 703 97 
z
M 1959 2075 
Q 2384 2075 2632 2365 
Q 2881 2656 2881 3163 
Q 2881 3666 2632 3958 
Q 2384 4250 1959 4250 
Q 1534 4250 1286 3958 
Q 1038 3666 1038 3163 
Q 1038 2656 1286 2365 
Q 1534 2075 1959 2075 
z
" transform="scale(0.015625)"/>
     </defs>
     <use xlink:href="#DejaVuSans-62"/>
     <use xlink:href="#DejaVuSans-65" x="63.476562"/>
     <use xlink:href="#DejaVuSans-73" x="125"/>
     <use xlink:href="#DejaVuSans-74" x="177.099609"/>
     <use xlink:href="#DejaVuSans-20" x="216.308594"/>
     <use xlink:href="#DejaVuSans-32" x="248.095703"/>
     <use xlink:href="#DejaVuSans-30" x="311.71875"/>
     <use xlink:href="#DejaVuSans-30" x="375.341797"/>
     <use xlink:href="#DejaVuSans-39" x="438.964844"/>
    </g>
   </g>
   <g id="text_16">
    <!-- bbob f10, 5-D -->
    <g transform="translate(60.632064 38.111366)scale(0.102 -0.102)">
     <defs>
      <path id="DejaVuSans-35" d="M 691 4666 
L 3169 4666 
L 3169 4134 
L 1269 4134 
L 1269 2991 
Q 1406 3038 1543 3061 
Q 1681 3084 1819 3084 
Q 2600 3084 3056 2656 
Q 3513 2228 3513 1497 
Q 3513 744 3044 326 
Q 2575 -91 1722 -91 
Q 1428 -91 1123 -41 
Q 819 9 494 109 
L 494 744 
Q 775 591 1075 516 
Q 1375 441 1709 441 
Q 2250 441 2565 725 
Q 2881 1009 2881 1497 
Q 2881 1984 2565 2268 
Q 2250 2553 1709 2553 
Q 1456 2553 1204 2497 
Q 953 2441 691 2322 
L 691 4666 
z
" transform="scale(0.015625)"/>
      <path id="DejaVuSans-44" d="M 1259 4147 
L 1259 519 
L 2022 519 
Q 2988 519 3436 956 
Q 3884 1394 3884 2338 
Q 3884 3275 3436 3711 
Q 2988 4147 2022 4147 
L 1259 4147 
z
M 628 4666 
L 1925 4666 
Q 3281 4666 3915 4102 
Q 4550 3538 4550 2338 
Q 4550 1131 3912 565 
Q 3275 0 1925 0 
L 628 0 
L 628 4666 
z
" transform="scale(0.015625)"/>
     </defs>
     <use xlink:href="#DejaVuSans-62"/>
     <use xlink:href="#DejaVuSans-62" x="63.476562"/>
     <use xlink:href="#DejaVuSans-6f" x="126.953125"/>
     <use xlink:href="#DejaVuSans-62" x="188.134766"/>
     <use xlink:href="#DejaVuSans-20" x="251.611328"/>
     <use xlink:href="#DejaVuSans-66" x="283.398438"/>
     <use xlink:href="#DejaVuSans-31" x="318.603516"/>
     <use xlink:href="#DejaVuSans-30" x="382.226562"/>
     <use xlink:href="#DejaVuSans-2c" x="445.849609"/>
     <use xlink:href="#DejaVuSans-20" x="477.636719"/>
     <use xlink:href="#DejaVuSans-35" x="509.423828"/>
     <use xlink:href="#DejaVuSans-2d" x="573.046875"/>
     <use xlink:href="#DejaVuSans-44" x="609.130859"/>
    </g>
    <!-- 51 targets: 100..1e-08 -->
    <g transform="translate(60.632064 49.533135)scale(0.102 -0.102)">
     <defs>
      <path id="DejaVuSans-3a" d="M 750 794 
L 1409 794 
L 1409 0 
L 750 0 
L 750 794 
z
M 750 3309 
L 1409 3309 
L 1409 2516 
L 750 2516 
L 750 3309 
z
" transform="scale(0.015625)"/>
     </defs>
     <use xlink:href="#DejaVuSans-35"/>
     <use xlink:href="#DejaVuSans-31" x="63.623047"/>
     <use xlink:href="#DejaVuSans-20" x="127.246094"/>
     <use xlink:href="#DejaVuSans-74" x="159.033203"/>
     <use xlink:href="#DejaVuSans-61" x="198.242188"/>
     <use xlink:href="#DejaVuSans-72" x="259.521484"/>
     <use xlink:href="#DejaVuSans-67" x="298.884766"/>
     <use xlink:href="#DejaVuSans-65" x="362.361328"/>
     <use xlink:href="#DejaVuSans-74" x="423.884766"/>
     <use xlink:href="#DejaVuSans-73" x="463.09375"/>
     <use xlink:href="#DejaVuSans-3a" x="515.193359"/>
     <use xlink:href="#DejaVuSans-20" x="548.884766"/>
     <use xlink:href="#DejaVuSans-31" x="580.671875"/>
     <use xlink:href="#DejaVuSans-30" x="644.294922"/>
     <use xlink:href="#DejaVuSans-30" x="707.917969"/>
     <use xlink:href="#DejaVuSans-2e" x="771.541016"/>
     <use xlink:href="#DejaVuSans-2e" x="803.328125"/>
     <use xlink:href="#DejaVuSans-31" x="835.115234"/>
     <use xlink:href="#DejaVuSans-65" x="898.738281"/>
     <use xlink:href="#DejaVuSans-2d" x="960.261719"/>
     <use xlink:href="#DejaVuSans-30" x="996.345703"/>
     <use xlink:href="#DejaVuSans-38" x="1059.96875"/>
    </g>
    <!-- 15 instances -->
    <g transform="translate(60.632064 60.954904)scale(0.102 -0.102)">
     <use xlink:href="#DejaVuSans-31"/>
     <use xlink:href="#DejaVuSans-35" x="63.623047"/>
     <use xlink:href="#DejaVuSans-20" x="127.246094"/>
     <use xlink:href="#DejaVuSans-69" x="159.033203"/>
     <use xlink:href="#DejaVuSans-6e" x="186.816406"/>
     <use xlink:href="#DejaVuSans-73" x="250.195312"/>
     <use xlink:href="#DejaVuSans-74" x="302.294922"/>
     <use xlink:href="#DejaVuSans-61" x="341.503906"/>
     <use xlink:href="#DejaVuSans-6e" x="402.783203"/>
     <use xlink:href="#DejaVuSans-63" x="466.162109"/>
     <use xlink:href="#DejaVuSans-65" x="521.142578"/>
     <use xlink:href="#DejaVuSans-73" x="582.666016"/>
    </g>
   </g>
   <g id="text_17">
    <!-- v2.6 -->
    <g style="fill: #808080" transform="translate(198.292262 294.151352)scale(0.1 -0.1)">
     <use xlink:href="#DejaVuSans-76"/>
     <use xlink:href="#DejaVuSans-32" x="59.179688"/>
     <use xlink:href="#DejaVuSans-2e" x="122.802734"/>
     <use xlink:href="#DejaVuSans-36" x="154.589844"/>
    </g>
   </g>
   <g id="text_18">
    <!-- 10 Ellipsoid -->
    <g transform="translate(151.843825 21.648)scale(0.2 -0.2)">
     <use xlink:href="#DejaVuSans-31"/>
     <use xlink:href="#DejaVuSans-30" x="63.623047"/>
     <use xlink:href="#DejaVuSans-20" x="127.246094"/>
     <use xlink:href="#DejaVuSans-45" x="159.033203"/>
     <use xlink:href="#DejaVuSans-6c" x="222.216797"/>
     <use xlink:href="#DejaVuSans-6c" x="250"/>
     <use xlink:href="#DejaVuSans-69" x="277.783203"/>
     <use xlink:href="#DejaVuSans-70" x="305.566406"/>
     <use xlink:href="#DejaVuSans-73" x="369.042969"/>
     <use xlink:href="#DejaVuSans-6f" x="421.142578"/>
     <use xlink:href="#DejaVuSans-69" x="482.324219"/>
     <use xlink:href="#DejaVuSans-64" x="510.107422"/>
    </g>
   </g>
  </g>
 </g>
 <defs>
  <clipPath id="p1df375f6b7">
   <rect x="57.6" y="27.648" width="303.2064" height="271.296"/>
  </clipPath>
 </defs>
</svg>
