<?xml version="1.0" encoding="utf-8" standalone="no"?>
<!DOCTYPE svg PUBLIC "-//W3C//DTD SVG 1.1//EN"
  "http://www.w3.org/Graphics/SVG/1.1/DTD/svg11.dtd">
<svg xmlns:xlink="http://www.w3.org/1999/xlink" width="460.8pt" height="345.6pt" viewBox="0 0 460.8 345.6" xmlns="http://www.w3.org/2000/svg" version="1.1">
 <metadata>
  <rdf:RDF xmlns:dc="http://purl.org/dc/elements/1.1/" xmlns:cc="http://creativecommons.org/ns#" xmlns:rdf="http://www.w3.org/1999/02/22-rdf-syntax-ns#">
   <cc:Work>
    <dc:type rdf:resource="http://purl.org/dc/dcmitype/StillImage"/>
    <dc:date>2024-05-29T08:06:01.988353</dc:date>
    <dc:format>image/svg+xml</dc:format>
    <dc:creator>
     <cc:Agent>
      <dc:title>Matplotlib v3.5.1, https://matplotlib.org/</dc:title>
     </cc:Agent>
    </dc:creator>
   </cc:Work>
  </rdf:RDF>
 </metadata>
 <defs>
  <style type="text/css">*{stroke-linejoin: round; stroke-linecap: butt}</style>
 </defs>
 <g id="figure_1">
  <g id="patch_1">
   <path d="M 0 345.6 
L 460.8 345.6 
L 460.8 0 
L 0 0 
z
" style="fill: #ffffff"/>
  </g>
  <g id="axes_1">
   <g id="patch_2">
    <path d="M 57.6 298.944 
L 360.8064 298.944 
L 360.8064 27.648 
L 57.6 27.648 
z
" style="fill: #ffffff"/>
   </g>
   <g id="line2d_1">
    <path d="M 36.933397 298.944 
L 36.933397 293.624471 
L 49.972572 293.624471 
L 49.972572 288.304941 
L 67.209423 288.304941 
L 67.209423 282.985412 
L 85.184077 282.985412 
L 85.184077 277.665882 
L 98.223251 277.665882 
L 98.223251 272.346353 
L 106.326946 272.346353 
L 106.326946 267.026824 
L 112.656511 267.026824 
L 112.656511 261.707294 
L 116.308887 261.707294 
L 116.308887 256.387765 
L 120.726585 256.387765 
L 120.726585 251.068235 
L 126.677381 251.068235 
L 126.677381 245.748706 
L 130.553485 245.748706 
L 130.553485 240.429176 
L 135.034434 240.429176 
L 135.034434 235.109647 
L 153.839823 235.109647 
L 153.839823 229.790118 
L 161.087207 229.790118 
L 161.087207 224.470588 
L 163.44172 224.470588 
L 163.44172 219.151059 
L 171.654625 219.151059 
L 171.654625 213.831529 
L 172.454629 213.831529 
L 172.454629 208.512 
L 176.253699 208.512 
L 176.253699 203.192471 
L 177.524113 203.192471 
L 177.524113 197.872941 
L 186.301408 197.872941 
L 186.301408 192.553412 
L 188.065084 192.553412 
L 188.065084 187.233882 
L 189.11489 187.233882 
L 189.11489 181.914353 
L 189.525714 181.914353 
L 189.525714 176.594824 
L 189.783564 176.594824 
L 189.783564 171.275294 
L 190.070853 171.275294 
L 190.070853 165.955765 
L 190.568628 165.955765 
L 190.568628 160.636235 
L 191.419455 160.636235 
L 191.419455 155.316706 
L 191.546612 155.316706 
L 191.546612 149.997176 
L 191.823368 149.997176 
L 191.823368 144.677647 
L 192.204112 144.677647 
L 192.204112 139.358118 
L 192.687353 139.358118 
L 192.687353 134.038588 
L 193.130553 134.038588 
L 193.130553 128.719059 
L 193.23279 128.719059 
L 193.23279 123.399529 
L 193.649874 123.399529 
L 193.649874 118.08 
L 194.737448 118.08 
L 194.737448 112.760471 
L 196.142532 112.760471 
L 196.142532 107.440941 
L 197.523852 107.440941 
L 197.523852 102.121412 
L 197.689141 102.121412 
L 197.689141 96.801882 
L 197.863862 96.801882 
L 197.863862 91.482353 
L 197.972245 91.482353 
L 197.972245 86.162824 
L 198.004638 86.162824 
L 198.004638 80.843294 
L 198.233396 80.843294 
L 198.233396 75.523765 
L 198.56093 75.523765 
L 198.56093 70.204235 
L 198.710463 70.204235 
L 198.710463 64.884706 
L 198.879425 64.884706 
L 198.879425 59.565176 
L 199.040077 59.565176 
L 199.040077 54.245647 
L 199.16897 54.245647 
L 199.16897 48.926118 
L 199.260019 48.926118 
L 199.260019 43.606588 
L 199.407456 43.606588 
L 199.407456 38.287059 
L 199.513962 38.287059 
L 199.513962 32.967529 
L 199.606662 32.967529 
L 199.606662 27.648 
L 360.8064 27.648 
" style="fill: none; stroke: #f5deb3; stroke-width: 4; stroke-linecap: square"/>
   </g>
   <g id="line2d_2">
    <defs>
     <path id="m638ec9cfc6" d="M 0 7.778175 
L 7.778175 0 
L 0 -7.778175 
L -7.778175 0 
z
" style="stroke: #f5deb3; stroke-width: 1.5; stroke-linejoin: miter"/>
    </defs>
    <g>
     <use xlink:href="#m638ec9cfc6" x="126.677381" y="251.068235" style="fill: #f5deb3; stroke: #f5deb3; stroke-width: 1.5; stroke-linejoin: miter"/>
     <use xlink:href="#m638ec9cfc6" x="190.070853" y="171.275294" style="fill: #f5deb3; stroke: #f5deb3; stroke-width: 1.5; stroke-linejoin: miter"/>
     <use xlink:href="#m638ec9cfc6" x="199.606662" y="32.967529" style="fill: #f5deb3; stroke: #f5deb3; stroke-width: 1.5; stroke-linejoin: miter"/>
     <use xlink:href="#m638ec9cfc6" x="199.606662" y="27.648" style="fill: #f5deb3; stroke: #f5deb3; stroke-width: 1.5; stroke-linejoin: miter"/>
     <use xlink:href="#m638ec9cfc6" x="199.606662" y="27.648" style="fill: #f5deb3; stroke: #f5deb3; stroke-width: 1.5; stroke-linejoin: miter"/>
     <use xlink:href="#m638ec9cfc6" x="360.8064" y="27.648" style="fill: #f5deb3; stroke: #f5deb3; stroke-width: 1.5; stroke-linejoin: miter"/>
    </g>
   </g>
   <g id="line2d_3">
    <path style="fill: none; stroke: #f5deb3; stroke-width: 4; stroke-linecap: square"/>
    <g/>
   </g>
   <g id="line2d_4">
    <path d="M 360.8064 27.648 
L 380.514816 33.07392 
" style="fill: none; stroke: #f5deb3; stroke-width: 4; stroke-linecap: square"/>
    <g>
     <use xlink:href="#m638ec9cfc6" x="360.8064" y="27.648" style="fill: #f5deb3; stroke: #f5deb3; stroke-width: 1.5; stroke-linejoin: miter"/>
     <use xlink:href="#m638ec9cfc6" x="380.514816" y="33.07392" style="fill: #f5deb3; stroke: #f5deb3; stroke-width: 1.5; stroke-linejoin: miter"/>
    </g>
   </g>
   <g id="matplotlib.axis_1">
    <g id="xtick_1">
     <g id="line2d_5">
      <path d="M 57.6 298.944 
L 57.6 27.648 
" clip-path="url(#p0fbc08e11b)" style="fill: none; stroke: #b0b0b0; stroke-width: 0.8; stroke-linecap: square"/>
     </g>
     <g id="line2d_6">
      <defs>
       <path id="md5e939ae80" d="M 0 0 
L 0 3.5 
" style="stroke: #000000; stroke-width: 0.8"/>
      </defs>
      <g>
       <use xlink:href="#md5e939ae80" x="57.6" y="298.944" style="stroke: #000000; stroke-width: 0.8"/>
      </g>
     </g>
     <g id="text_1">
      <!-- 0 -->
      <g transform="translate(52.191875 318.861344)scale(0.17 -0.17)">
       <defs>
        <path id="DejaVuSans-30" d="M 2034 4250 
Q 1547 4250 1301 3770 
Q 1056 3291 1056 2328 
Q 1056 1369 1301 889 
Q 1547 409 2034 409 
Q 2525 409 2770 889 
Q 3016 1369 3016 2328 
Q 3016 3291 2770 3770 
Q 2525 4250 2034 4250 
z
M 2034 4750 
Q 2819 4750 3233 4129 
Q 3647 3509 3647 2328 
Q 3647 1150 3233 529 
Q 2819 -91 2034 -91 
Q 1250 -91 836 529 
Q 422 1150 422 2328 
Q 422 3509 836 4129 
Q 1250 4750 2034 4750 
z
" transform="scale(0.015625)"/>
       </defs>
       <use xlink:href="#DejaVuSans-30"/>
      </g>
     </g>
    </g>
    <g id="xtick_2">
     <g id="line2d_7">
      <path d="M 144.2304 298.944 
L 144.2304 27.648 
" clip-path="url(#p0fbc08e11b)" style="fill: none; stroke: #b0b0b0; stroke-width: 0.8; stroke-linecap: square"/>
     </g>
     <g id="line2d_8">
      <g>
       <use xlink:href="#md5e939ae80" x="144.2304" y="298.944" style="stroke: #000000; stroke-width: 0.8"/>
      </g>
     </g>
     <g id="text_2">
      <!-- 2 -->
      <g transform="translate(138.822275 318.861344)scale(0.17 -0.17)">
       <defs>
        <path id="DejaVuSans-32" d="M 1228 531 
L 3431 531 
L 3431 0 
L 469 0 
L 469 531 
Q 828 903 1448 1529 
Q 2069 2156 2228 2338 
Q 2531 2678 2651 2914 
Q 2772 3150 2772 3378 
Q 2772 3750 2511 3984 
Q 2250 4219 1831 4219 
Q 1534 4219 1204 4116 
Q 875 4013 500 3803 
L 500 4441 
Q 881 4594 1212 4672 
Q 1544 4750 1819 4750 
Q 2544 4750 2975 4387 
Q 3406 4025 3406 3419 
Q 3406 3131 3298 2873 
Q 3191 2616 2906 2266 
Q 2828 2175 2409 1742 
Q 1991 1309 1228 531 
z
" transform="scale(0.015625)"/>
       </defs>
       <use xlink:href="#DejaVuSans-32"/>
      </g>
     </g>
    </g>
    <g id="xtick_3">
     <g id="line2d_9">
      <path d="M 230.8608 298.944 
L 230.8608 27.648 
" clip-path="url(#p0fbc08e11b)" style="fill: none; stroke: #b0b0b0; stroke-width: 0.8; stroke-linecap: square"/>
     </g>
     <g id="line2d_10">
      <g>
       <use xlink:href="#md5e939ae80" x="230.8608" y="298.944" style="stroke: #000000; stroke-width: 0.8"/>
      </g>
     </g>
     <g id="text_3">
      <!-- 4 -->
      <g transform="translate(225.452675 318.861344)scale(0.17 -0.17)">
       <defs>
        <path id="DejaVuSans-34" d="M 2419 4116 
L 825 1625 
L 2419 1625 
L 2419 4116 
z
M 2253 4666 
L 3047 4666 
L 3047 1625 
L 3713 1625 
L 3713 1100 
L 3047 1100 
L 3047 0 
L 2419 0 
L 2419 1100 
L 313 1100 
L 313 1709 
L 2253 4666 
z
" transform="scale(0.015625)"/>
       </defs>
       <use xlink:href="#DejaVuSans-34"/>
      </g>
     </g>
    </g>
    <g id="xtick_4">
     <g id="line2d_11">
      <path d="M 317.4912 298.944 
L 317.4912 27.648 
" clip-path="url(#p0fbc08e11b)" style="fill: none; stroke: #b0b0b0; stroke-width: 0.8; stroke-linecap: square"/>
     </g>
     <g id="line2d_12">
      <g>
       <use xlink:href="#md5e939ae80" x="317.4912" y="298.944" style="stroke: #000000; stroke-width: 0.8"/>
      </g>
     </g>
     <g id="text_4">
      <!-- 6 -->
      <g transform="translate(312.083075 318.861344)scale(0.17 -0.17)">
       <defs>
        <path id="DejaVuSans-36" d="M 2113 2584 
Q 1688 2584 1439 2293 
Q 1191 2003 1191 1497 
Q 1191 994 1439 701 
Q 1688 409 2113 409 
Q 2538 409 2786 701 
Q 3034 994 3034 1497 
Q 3034 2003 2786 2293 
Q 2538 2584 2113 2584 
z
M 3366 4563 
L 3366 3988 
Q 3128 4100 2886 4159 
Q 2644 4219 2406 4219 
Q 1781 4219 1451 3797 
Q 1122 3375 1075 2522 
Q 1259 2794 1537 2939 
Q 1816 3084 2150 3084 
Q 2853 3084 3261 2657 
Q 3669 2231 3669 1497 
Q 3669 778 3244 343 
Q 2819 -91 2113 -91 
Q 1303 -91 875 529 
Q 447 1150 447 2328 
Q 447 3434 972 4092 
Q 1497 4750 2381 4750 
Q 2619 4750 2861 4703 
Q 3103 4656 3366 4563 
z
" transform="scale(0.015625)"/>
       </defs>
       <use xlink:href="#DejaVuSans-36"/>
      </g>
     </g>
    </g>
    <g id="xtick_5">
     <g id="line2d_13">
      <path d="M 100.9152 298.944 
L 100.9152 27.648 
" clip-path="url(#p0fbc08e11b)" style="fill: none; stroke: #b0b0b0; stroke-width: 0.8; stroke-linecap: square"/>
     </g>
     <g id="line2d_14">
      <defs>
       <path id="mb4a452bce4" d="M 0 0 
L 0 2 
" style="stroke: #000000; stroke-width: 0.6"/>
      </defs>
      <g>
       <use xlink:href="#mb4a452bce4" x="100.9152" y="298.944" style="stroke: #000000; stroke-width: 0.6"/>
      </g>
     </g>
    </g>
    <g id="xtick_6">
     <g id="line2d_15">
      <path d="M 187.5456 298.944 
L 187.5456 27.648 
" clip-path="url(#p0fbc08e11b)" style="fill: none; stroke: #b0b0b0; stroke-width: 0.8; stroke-linecap: square"/>
     </g>
     <g id="line2d_16">
      <g>
       <use xlink:href="#mb4a452bce4" x="187.5456" y="298.944" style="stroke: #000000; stroke-width: 0.6"/>
      </g>
     </g>
    </g>
    <g id="xtick_7">
     <g id="line2d_17">
      <path d="M 274.176 298.944 
L 274.176 27.648 
" clip-path="url(#p0fbc08e11b)" style="fill: none; stroke: #b0b0b0; stroke-width: 0.8; stroke-linecap: square"/>
     </g>
     <g id="line2d_18">
      <g>
       <use xlink:href="#mb4a452bce4" x="274.176" y="298.944" style="stroke: #000000; stroke-width: 0.6"/>
      </g>
     </g>
    </g>
    <g id="xtick_8">
     <g id="line2d_19">
      <path d="M 360.8064 298.944 
L 360.8064 27.648 
" clip-path="url(#p0fbc08e11b)" style="fill: none; stroke: #b0b0b0; stroke-width: 0.8; stroke-linecap: square"/>
     </g>
     <g id="line2d_20">
      <g>
       <use xlink:href="#mb4a452bce4" x="360.8064" y="298.944" style="stroke: #000000; stroke-width: 0.6"/>
      </g>
     </g>
    </g>
    <g id="text_5">
     <!-- log10(# f-evals / dimension) -->
     <g transform="translate(88.823278 339.314156)scale(0.17 -0.17)">
      <defs>
       <path id="DejaVuSans-6c" d="M 603 4863 
L 1178 4863 
L 1178 0 
L 603 0 
L 603 4863 
z
" transform="scale(0.015625)"/>
       <path id="DejaVuSans-6f" d="M 1959 3097 
Q 1497 3097 1228 2736 
Q 959 2375 959 1747 
Q 959 1119 1226 758 
Q 1494 397 1959 397 
Q 2419 397 2687 759 
Q 2956 1122 2956 1747 
Q 2956 2369 2687 2733 
Q 2419 3097 1959 3097 
z
M 1959 3584 
Q 2709 3584 3137 3096 
Q 3566 2609 3566 1747 
Q 3566 888 3137 398 
Q 2709 -91 1959 -91 
Q 1206 -91 779 398 
Q 353 888 353 1747 
Q 353 2609 779 3096 
Q 1206 3584 1959 3584 
z
" transform="scale(0.015625)"/>
       <path id="DejaVuSans-67" d="M 2906 1791 
Q 2906 2416 2648 2759 
Q 2391 3103 1925 3103 
Q 1463 3103 1205 2759 
Q 947 2416 947 1791 
Q 947 1169 1205 825 
Q 1463 481 1925 481 
Q 2391 481 2648 825 
Q 2906 1169 2906 1791 
z
M 3481 434 
Q 3481 -459 3084 -895 
Q 2688 -1331 1869 -1331 
Q 1566 -1331 1297 -1286 
Q 1028 -1241 775 -1147 
L 775 -588 
Q 1028 -725 1275 -790 
Q 1522 -856 1778 -856 
Q 2344 -856 2625 -561 
Q 2906 -266 2906 331 
L 2906 616 
Q 2728 306 2450 153 
Q 2172 0 1784 0 
Q 1141 0 747 490 
Q 353 981 353 1791 
Q 353 2603 747 3093 
Q 1141 3584 1784 3584 
Q 2172 3584 2450 3431 
Q 2728 3278 2906 2969 
L 2906 3500 
L 3481 3500 
L 3481 434 
z
" transform="scale(0.015625)"/>
       <path id="DejaVuSans-31" d="M 794 531 
L 1825 531 
L 1825 4091 
L 703 3866 
L 703 4441 
L 1819 4666 
L 2450 4666 
L 2450 531 
L 3481 531 
L 3481 0 
L 794 0 
L 794 531 
z
" transform="scale(0.015625)"/>
       <path id="DejaVuSans-28" d="M 1984 4856 
Q 1566 4138 1362 3434 
Q 1159 2731 1159 2009 
Q 1159 1288 1364 580 
Q 1569 -128 1984 -844 
L 1484 -844 
Q 1016 -109 783 600 
Q 550 1309 550 2009 
Q 550 2706 781 3412 
Q 1013 4119 1484 4856 
L 1984 4856 
z
" transform="scale(0.015625)"/>
       <path id="DejaVuSans-23" d="M 3272 2816 
L 2363 2816 
L 2100 1772 
L 3016 1772 
L 3272 2816 
z
M 2803 4594 
L 2478 3297 
L 3391 3297 
L 3719 4594 
L 4219 4594 
L 3897 3297 
L 4872 3297 
L 4872 2816 
L 3775 2816 
L 3519 1772 
L 4513 1772 
L 4513 1294 
L 3397 1294 
L 3072 0 
L 2572 0 
L 2894 1294 
L 1978 1294 
L 1656 0 
L 1153 0 
L 1478 1294 
L 494 1294 
L 494 1772 
L 1594 1772 
L 1856 2816 
L 850 2816 
L 850 3297 
L 1978 3297 
L 2297 4594 
L 2803 4594 
z
" transform="scale(0.015625)"/>
       <path id="DejaVuSans-20" transform="scale(0.015625)"/>
       <path id="DejaVuSans-66" d="M 2375 4863 
L 2375 4384 
L 1825 4384 
Q 1516 4384 1395 4259 
Q 1275 4134 1275 3809 
L 1275 3500 
L 2222 3500 
L 2222 3053 
L 1275 3053 
L 1275 0 
L 697 0 
L 697 3053 
L 147 3053 
L 147 3500 
L 697 3500 
L 697 3744 
Q 697 4328 969 4595 
Q 1241 4863 1831 4863 
L 2375 4863 
z
" transform="scale(0.015625)"/>
       <path id="DejaVuSans-2d" d="M 313 2009 
L 1997 2009 
L 1997 1497 
L 313 1497 
L 313 2009 
z
" transform="scale(0.015625)"/>
       <path id="DejaVuSans-65" d="M 3597 1894 
L 3597 1613 
L 953 1613 
Q 991 1019 1311 708 
Q 1631 397 2203 397 
Q 2534 397 2845 478 
Q 3156 559 3463 722 
L 3463 178 
Q 3153 47 2828 -22 
Q 2503 -91 2169 -91 
Q 1331 -91 842 396 
Q 353 884 353 1716 
Q 353 2575 817 3079 
Q 1281 3584 2069 3584 
Q 2775 3584 3186 3129 
Q 3597 2675 3597 1894 
z
M 3022 2063 
Q 3016 2534 2758 2815 
Q 2500 3097 2075 3097 
Q 1594 3097 1305 2825 
Q 1016 2553 972 2059 
L 3022 2063 
z
" transform="scale(0.015625)"/>
       <path id="DejaVuSans-76" d="M 191 3500 
L 800 3500 
L 1894 563 
L 2988 3500 
L 3597 3500 
L 2284 0 
L 1503 0 
L 191 3500 
z
" transform="scale(0.015625)"/>
       <path id="DejaVuSans-61" d="M 2194 1759 
Q 1497 1759 1228 1600 
Q 959 1441 959 1056 
Q 959 750 1161 570 
Q 1363 391 1709 391 
Q 2188 391 2477 730 
Q 2766 1069 2766 1631 
L 2766 1759 
L 2194 1759 
z
M 3341 1997 
L 3341 0 
L 2766 0 
L 2766 531 
Q 2569 213 2275 61 
Q 1981 -91 1556 -91 
Q 1019 -91 701 211 
Q 384 513 384 1019 
Q 384 1609 779 1909 
Q 1175 2209 1959 2209 
L 2766 2209 
L 2766 2266 
Q 2766 2663 2505 2880 
Q 2244 3097 1772 3097 
Q 1472 3097 1187 3025 
Q 903 2953 641 2809 
L 641 3341 
Q 956 3463 1253 3523 
Q 1550 3584 1831 3584 
Q 2591 3584 2966 3190 
Q 3341 2797 3341 1997 
z
" transform="scale(0.015625)"/>
       <path id="DejaVuSans-73" d="M 2834 3397 
L 2834 2853 
Q 2591 2978 2328 3040 
Q 2066 3103 1784 3103 
Q 1356 3103 1142 2972 
Q 928 2841 928 2578 
Q 928 2378 1081 2264 
Q 1234 2150 1697 2047 
L 1894 2003 
Q 2506 1872 2764 1633 
Q 3022 1394 3022 966 
Q 3022 478 2636 193 
Q 2250 -91 1575 -91 
Q 1294 -91 989 -36 
Q 684 19 347 128 
L 347 722 
Q 666 556 975 473 
Q 1284 391 1588 391 
Q 1994 391 2212 530 
Q 2431 669 2431 922 
Q 2431 1156 2273 1281 
Q 2116 1406 1581 1522 
L 1381 1569 
Q 847 1681 609 1914 
Q 372 2147 372 2553 
Q 372 3047 722 3315 
Q 1072 3584 1716 3584 
Q 2034 3584 2315 3537 
Q 2597 3491 2834 3397 
z
" transform="scale(0.015625)"/>
       <path id="DejaVuSans-2f" d="M 1625 4666 
L 2156 4666 
L 531 -594 
L 0 -594 
L 1625 4666 
z
" transform="scale(0.015625)"/>
       <path id="DejaVuSans-64" d="M 2906 2969 
L 2906 4863 
L 3481 4863 
L 3481 0 
L 2906 0 
L 2906 525 
Q 2725 213 2448 61 
Q 2172 -91 1784 -91 
Q 1150 -91 751 415 
Q 353 922 353 1747 
Q 353 2572 751 3078 
Q 1150 3584 1784 3584 
Q 2172 3584 2448 3432 
Q 2725 3281 2906 2969 
z
M 947 1747 
Q 947 1113 1208 752 
Q 1469 391 1925 391 
Q 2381 391 2643 752 
Q 2906 1113 2906 1747 
Q 2906 2381 2643 2742 
Q 2381 3103 1925 3103 
Q 1469 3103 1208 2742 
Q 947 2381 947 1747 
z
" transform="scale(0.015625)"/>
       <path id="DejaVuSans-69" d="M 603 3500 
L 1178 3500 
L 1178 0 
L 603 0 
L 603 3500 
z
M 603 4863 
L 1178 4863 
L 1178 4134 
L 603 4134 
L 603 4863 
z
" transform="scale(0.015625)"/>
       <path id="DejaVuSans-6d" d="M 3328 2828 
Q 3544 3216 3844 3400 
Q 4144 3584 4550 3584 
Q 5097 3584 5394 3201 
Q 5691 2819 5691 2113 
L 5691 0 
L 5113 0 
L 5113 2094 
Q 5113 2597 4934 2840 
Q 4756 3084 4391 3084 
Q 3944 3084 3684 2787 
Q 3425 2491 3425 1978 
L 3425 0 
L 2847 0 
L 2847 2094 
Q 2847 2600 2669 2842 
Q 2491 3084 2119 3084 
Q 1678 3084 1418 2786 
Q 1159 2488 1159 1978 
L 1159 0 
L 581 0 
L 581 3500 
L 1159 3500 
L 1159 2956 
Q 1356 3278 1631 3431 
Q 1906 3584 2284 3584 
Q 2666 3584 2933 3390 
Q 3200 3197 3328 2828 
z
" transform="scale(0.015625)"/>
       <path id="DejaVuSans-6e" d="M 3513 2113 
L 3513 0 
L 2938 0 
L 2938 2094 
Q 2938 2591 2744 2837 
Q 2550 3084 2163 3084 
Q 1697 3084 1428 2787 
Q 1159 2491 1159 1978 
L 1159 0 
L 581 0 
L 581 3500 
L 1159 3500 
L 1159 2956 
Q 1366 3272 1645 3428 
Q 1925 3584 2291 3584 
Q 2894 3584 3203 3211 
Q 3513 2838 3513 2113 
z
" transform="scale(0.015625)"/>
       <path id="DejaVuSans-29" d="M 513 4856 
L 1013 4856 
Q 1481 4119 1714 3412 
Q 1947 2706 1947 2009 
Q 1947 1309 1714 600 
Q 1481 -109 1013 -844 
L 513 -844 
Q 928 -128 1133 580 
Q 1338 1288 1338 2009 
Q 1338 2731 1133 3434 
Q 928 4138 513 4856 
z
" transform="scale(0.015625)"/>
      </defs>
      <use xlink:href="#DejaVuSans-6c"/>
      <use xlink:href="#DejaVuSans-6f" x="27.783203"/>
      <use xlink:href="#DejaVuSans-67" x="88.964844"/>
      <use xlink:href="#DejaVuSans-31" x="152.441406"/>
      <use xlink:href="#DejaVuSans-30" x="216.064453"/>
      <use xlink:href="#DejaVuSans-28" x="279.6875"/>
      <use xlink:href="#DejaVuSans-23" x="318.701172"/>
      <use xlink:href="#DejaVuSans-20" x="402.490234"/>
      <use xlink:href="#DejaVuSans-66" x="434.277344"/>
      <use xlink:href="#DejaVuSans-2d" x="463.982422"/>
      <use xlink:href="#DejaVuSans-65" x="500.066406"/>
      <use xlink:href="#DejaVuSans-76" x="561.589844"/>
      <use xlink:href="#DejaVuSans-61" x="620.769531"/>
      <use xlink:href="#DejaVuSans-6c" x="682.048828"/>
      <use xlink:href="#DejaVuSans-73" x="709.832031"/>
      <use xlink:href="#DejaVuSans-20" x="761.931641"/>
      <use xlink:href="#DejaVuSans-2f" x="793.71875"/>
      <use xlink:href="#DejaVuSans-20" x="827.410156"/>
      <use xlink:href="#DejaVuSans-64" x="859.197266"/>
      <use xlink:href="#DejaVuSans-69" x="922.673828"/>
      <use xlink:href="#DejaVuSans-6d" x="950.457031"/>
      <use xlink:href="#DejaVuSans-65" x="1047.869141"/>
      <use xlink:href="#DejaVuSans-6e" x="1109.392578"/>
      <use xlink:href="#DejaVuSans-73" x="1172.771484"/>
      <use xlink:href="#DejaVuSans-69" x="1224.871094"/>
      <use xlink:href="#DejaVuSans-6f" x="1252.654297"/>
      <use xlink:href="#DejaVuSans-6e" x="1313.835938"/>
      <use xlink:href="#DejaVuSans-29" x="1377.214844"/>
     </g>
    </g>
   </g>
   <g id="matplotlib.axis_2">
    <g id="ytick_1">
     <g id="line2d_21">
      <path d="M 57.6 298.944 
L 360.8064 298.944 
" clip-path="url(#p0fbc08e11b)" style="fill: none; stroke: #b0b0b0; stroke-width: 0.8; stroke-linecap: square"/>
     </g>
     <g id="line2d_22">
      <defs>
       <path id="m3c46185eaf" d="M 0 0 
L -3.5 0 
" style="stroke: #000000; stroke-width: 0.8"/>
      </defs>
      <g>
       <use xlink:href="#m3c46185eaf" x="57.6" y="298.944" style="stroke: #000000; stroke-width: 0.8"/>
      </g>
     </g>
     <g id="text_6">
      <!-- 0.0 -->
      <g transform="translate(25.155 305.02275)scale(0.16 -0.16)">
       <defs>
        <path id="DejaVuSans-2e" d="M 684 794 
L 1344 794 
L 1344 0 
L 684 0 
L 684 794 
z
" transform="scale(0.015625)"/>
       </defs>
       <use xlink:href="#DejaVuSans-30"/>
       <use xlink:href="#DejaVuSans-2e" x="63.623047"/>
       <use xlink:href="#DejaVuSans-30" x="95.410156"/>
      </g>
     </g>
    </g>
    <g id="ytick_2">
     <g id="line2d_23">
      <path d="M 57.6 244.6848 
L 360.8064 244.6848 
" clip-path="url(#p0fbc08e11b)" style="fill: none; stroke: #b0b0b0; stroke-width: 0.8; stroke-linecap: square"/>
     </g>
     <g id="line2d_24">
      <g>
       <use xlink:href="#m3c46185eaf" x="57.6" y="244.6848" style="stroke: #000000; stroke-width: 0.8"/>
      </g>
     </g>
     <g id="text_7">
      <!-- 0.2 -->
      <g transform="translate(25.155 250.76355)scale(0.16 -0.16)">
       <use xlink:href="#DejaVuSans-30"/>
       <use xlink:href="#DejaVuSans-2e" x="63.623047"/>
       <use xlink:href="#DejaVuSans-32" x="95.410156"/>
      </g>
     </g>
    </g>
    <g id="ytick_3">
     <g id="line2d_25">
      <path d="M 57.6 190.4256 
L 360.8064 190.4256 
" clip-path="url(#p0fbc08e11b)" style="fill: none; stroke: #b0b0b0; stroke-width: 0.8; stroke-linecap: square"/>
     </g>
     <g id="line2d_26">
      <g>
       <use xlink:href="#m3c46185eaf" x="57.6" y="190.4256" style="stroke: #000000; stroke-width: 0.8"/>
      </g>
     </g>
     <g id="text_8">
      <!-- 0.4 -->
      <g transform="translate(25.155 196.50435)scale(0.16 -0.16)">
       <use xlink:href="#DejaVuSans-30"/>
       <use xlink:href="#DejaVuSans-2e" x="63.623047"/>
       <use xlink:href="#DejaVuSans-34" x="95.410156"/>
      </g>
     </g>
    </g>
    <g id="ytick_4">
     <g id="line2d_27">
      <path d="M 57.6 136.1664 
L 360.8064 136.1664 
" clip-path="url(#p0fbc08e11b)" style="fill: none; stroke: #b0b0b0; stroke-width: 0.8; stroke-linecap: square"/>
     </g>
     <g id="line2d_28">
      <g>
       <use xlink:href="#m3c46185eaf" x="57.6" y="136.1664" style="stroke: #000000; stroke-width: 0.8"/>
      </g>
     </g>
     <g id="text_9">
      <!-- 0.6 -->
      <g transform="translate(25.155 142.24515)scale(0.16 -0.16)">
       <use xlink:href="#DejaVuSans-30"/>
       <use xlink:href="#DejaVuSans-2e" x="63.623047"/>
       <use xlink:href="#DejaVuSans-36" x="95.410156"/>
      </g>
     </g>
    </g>
    <g id="ytick_5">
     <g id="line2d_29">
      <path d="M 57.6 81.9072 
L 360.8064 81.9072 
" clip-path="url(#p0fbc08e11b)" style="fill: none; stroke: #b0b0b0; stroke-width: 0.8; stroke-linecap: square"/>
     </g>
     <g id="line2d_30">
      <g>
       <use xlink:href="#m3c46185eaf" x="57.6" y="81.9072" style="stroke: #000000; stroke-width: 0.8"/>
      </g>
     </g>
     <g id="text_10">
      <!-- 0.8 -->
      <g transform="translate(25.155 87.98595)scale(0.16 -0.16)">
       <defs>
        <path id="DejaVuSans-38" d="M 2034 2216 
Q 1584 2216 1326 1975 
Q 1069 1734 1069 1313 
Q 1069 891 1326 650 
Q 1584 409 2034 409 
Q 2484 409 2743 651 
Q 3003 894 3003 1313 
Q 3003 1734 2745 1975 
Q 2488 2216 2034 2216 
z
M 1403 2484 
Q 997 2584 770 2862 
Q 544 3141 544 3541 
Q 544 4100 942 4425 
Q 1341 4750 2034 4750 
Q 2731 4750 3128 4425 
Q 3525 4100 3525 3541 
Q 3525 3141 3298 2862 
Q 3072 2584 2669 2484 
Q 3125 2378 3379 2068 
Q 3634 1759 3634 1313 
Q 3634 634 3220 271 
Q 2806 -91 2034 -91 
Q 1263 -91 848 271 
Q 434 634 434 1313 
Q 434 1759 690 2068 
Q 947 2378 1403 2484 
z
M 1172 3481 
Q 1172 3119 1398 2916 
Q 1625 2713 2034 2713 
Q 2441 2713 2670 2916 
Q 2900 3119 2900 3481 
Q 2900 3844 2670 4047 
Q 2441 4250 2034 4250 
Q 1625 4250 1398 4047 
Q 1172 3844 1172 3481 
z
" transform="scale(0.015625)"/>
       </defs>
       <use xlink:href="#DejaVuSans-30"/>
       <use xlink:href="#DejaVuSans-2e" x="63.623047"/>
       <use xlink:href="#DejaVuSans-38" x="95.410156"/>
      </g>
     </g>
    </g>
    <g id="ytick_6">
     <g id="line2d_31">
      <path d="M 57.6 27.648 
L 360.8064 27.648 
" clip-path="url(#p0fbc08e11b)" style="fill: none; stroke: #b0b0b0; stroke-width: 0.8; stroke-linecap: square"/>
     </g>
     <g id="line2d_32">
      <g>
       <use xlink:href="#m3c46185eaf" x="57.6" y="27.648" style="stroke: #000000; stroke-width: 0.8"/>
      </g>
     </g>
     <g id="text_11">
      <!-- 1.0 -->
      <g transform="translate(25.155 33.72675)scale(0.16 -0.16)">
       <use xlink:href="#DejaVuSans-31"/>
       <use xlink:href="#DejaVuSans-2e" x="63.623047"/>
       <use xlink:href="#DejaVuSans-30" x="95.410156"/>
      </g>
     </g>
    </g>
    <g id="text_12">
     <!-- Fraction of function,target pairs -->
     <g transform="translate(17.619531 297.681)rotate(-90)scale(0.17 -0.17)">
      <defs>
       <path id="DejaVuSans-46" d="M 628 4666 
L 3309 4666 
L 3309 4134 
L 1259 4134 
L 1259 2759 
L 3109 2759 
L 3109 2228 
L 1259 2228 
L 1259 0 
L 628 0 
L 628 4666 
z
" transform="scale(0.015625)"/>
       <path id="DejaVuSans-72" d="M 2631 2963 
Q 2534 3019 2420 3045 
Q 2306 3072 2169 3072 
Q 1681 3072 1420 2755 
Q 1159 2438 1159 1844 
L 1159 0 
L 581 0 
L 581 3500 
L 1159 3500 
L 1159 2956 
Q 1341 3275 1631 3429 
Q 1922 3584 2338 3584 
Q 2397 3584 2469 3576 
Q 2541 3569 2628 3553 
L 2631 2963 
z
" transform="scale(0.015625)"/>
       <path id="DejaVuSans-63" d="M 3122 3366 
L 3122 2828 
Q 2878 2963 2633 3030 
Q 2388 3097 2138 3097 
Q 1578 3097 1268 2742 
Q 959 2388 959 1747 
Q 959 1106 1268 751 
Q 1578 397 2138 397 
Q 2388 397 2633 464 
Q 2878 531 3122 666 
L 3122 134 
Q 2881 22 2623 -34 
Q 2366 -91 2075 -91 
Q 1284 -91 818 406 
Q 353 903 353 1747 
Q 353 2603 823 3093 
Q 1294 3584 2113 3584 
Q 2378 3584 2631 3529 
Q 2884 3475 3122 3366 
z
" transform="scale(0.015625)"/>
       <path id="DejaVuSans-74" d="M 1172 4494 
L 1172 3500 
L 2356 3500 
L 2356 3053 
L 1172 3053 
L 1172 1153 
Q 1172 725 1289 603 
Q 1406 481 1766 481 
L 2356 481 
L 2356 0 
L 1766 0 
Q 1100 0 847 248 
Q 594 497 594 1153 
L 594 3053 
L 172 3053 
L 172 3500 
L 594 3500 
L 594 4494 
L 1172 4494 
z
" transform="scale(0.015625)"/>
       <path id="DejaVuSans-75" d="M 544 1381 
L 544 3500 
L 1119 3500 
L 1119 1403 
Q 1119 906 1312 657 
Q 1506 409 1894 409 
Q 2359 409 2629 706 
Q 2900 1003 2900 1516 
L 2900 3500 
L 3475 3500 
L 3475 0 
L 2900 0 
L 2900 538 
Q 2691 219 2414 64 
Q 2138 -91 1772 -91 
Q 1169 -91 856 284 
Q 544 659 544 1381 
z
M 1991 3584 
L 1991 3584 
z
" transform="scale(0.015625)"/>
       <path id="DejaVuSans-2c" d="M 750 794 
L 1409 794 
L 1409 256 
L 897 -744 
L 494 -744 
L 750 256 
L 750 794 
z
" transform="scale(0.015625)"/>
       <path id="DejaVuSans-70" d="M 1159 525 
L 1159 -1331 
L 581 -1331 
L 581 3500 
L 1159 3500 
L 1159 2969 
Q 1341 3281 1617 3432 
Q 1894 3584 2278 3584 
Q 2916 3584 3314 3078 
Q 3713 2572 3713 1747 
Q 3713 922 3314 415 
Q 2916 -91 2278 -91 
Q 1894 -91 1617 61 
Q 1341 213 1159 525 
z
M 3116 1747 
Q 3116 2381 2855 2742 
Q 2594 3103 2138 3103 
Q 1681 3103 1420 2742 
Q 1159 2381 1159 1747 
Q 1159 1113 1420 752 
Q 1681 391 2138 391 
Q 2594 391 2855 752 
Q 3116 1113 3116 1747 
z
" transform="scale(0.015625)"/>
      </defs>
      <use xlink:href="#DejaVuSans-46"/>
      <use xlink:href="#DejaVuSans-72" x="50.269531"/>
      <use xlink:href="#DejaVuSans-61" x="91.382812"/>
      <use xlink:href="#DejaVuSans-63" x="152.662109"/>
      <use xlink:href="#DejaVuSans-74" x="207.642578"/>
      <use xlink:href="#DejaVuSans-69" x="246.851562"/>
      <use xlink:href="#DejaVuSans-6f" x="274.634766"/>
      <use xlink:href="#DejaVuSans-6e" x="335.816406"/>
      <use xlink:href="#DejaVuSans-20" x="399.195312"/>
      <use xlink:href="#DejaVuSans-6f" x="430.982422"/>
      <use xlink:href="#DejaVuSans-66" x="492.164062"/>
      <use xlink:href="#DejaVuSans-20" x="527.369141"/>
      <use xlink:href="#DejaVuSans-66" x="559.15625"/>
      <use xlink:href="#DejaVuSans-75" x="594.361328"/>
      <use xlink:href="#DejaVuSans-6e" x="657.740234"/>
      <use xlink:href="#DejaVuSans-63" x="721.119141"/>
      <use xlink:href="#DejaVuSans-74" x="776.099609"/>
      <use xlink:href="#DejaVuSans-69" x="815.308594"/>
      <use xlink:href="#DejaVuSans-6f" x="843.091797"/>
      <use xlink:href="#DejaVuSans-6e" x="904.273438"/>
      <use xlink:href="#DejaVuSans-2c" x="967.652344"/>
      <use xlink:href="#DejaVuSans-74" x="999.439453"/>
      <use xlink:href="#DejaVuSans-61" x="1038.648438"/>
      <use xlink:href="#DejaVuSans-72" x="1099.927734"/>
      <use xlink:href="#DejaVuSans-67" x="1139.291016"/>
      <use xlink:href="#DejaVuSans-65" x="1202.767578"/>
      <use xlink:href="#DejaVuSans-74" x="1264.291016"/>
      <use xlink:href="#DejaVuSans-20" x="1303.5"/>
      <use xlink:href="#DejaVuSans-70" x="1335.287109"/>
      <use xlink:href="#DejaVuSans-61" x="1398.763672"/>
      <use xlink:href="#DejaVuSans-69" x="1460.042969"/>
      <use xlink:href="#DejaVuSans-72" x="1487.826172"/>
      <use xlink:href="#DejaVuSans-73" x="1528.939453"/>
     </g>
    </g>
   </g>
   <g id="line2d_33">
    <defs>
     <path id="md43a7b5895" d="M 0 1.5 
C 0.397805 1.5 0.77937 1.341951 1.06066 1.06066 
C 1.341951 0.77937 1.5 0.397805 1.5 0 
C 1.5 -0.397805 1.341951 -0.77937 1.06066 -1.06066 
C 0.77937 -1.341951 0.397805 -1.5 0 -1.5 
C -0.397805 -1.5 -0.77937 -1.341951 -1.06066 -1.06066 
C -1.341951 -0.77937 -1.5 -0.397805 -1.5 0 
C -1.5 0.397805 -1.341951 0.77937 -1.06066 1.06066 
C -0.77937 1.341951 -0.397805 1.5 0 1.5 
z
" style="stroke: #f5deb3"/>
    </defs>
    <g>
     <use xlink:href="#md43a7b5895" x="199.606662" y="27.648" style="fill: #f5deb3; stroke: #f5deb3"/>
     <use xlink:href="#md43a7b5895" x="199.606662" y="27.648" style="fill: #f5deb3; stroke: #f5deb3"/>
    </g>
   </g>
   <g id="line2d_34">
    <defs>
     <path id="m03c59defbd" d="M 0 1.5 
C 0.397805 1.5 0.77937 1.341951 1.06066 1.06066 
C 1.341951 0.77937 1.5 0.397805 1.5 0 
C 1.5 -0.397805 1.341951 -0.77937 1.06066 -1.06066 
C 0.77937 -1.341951 0.397805 -1.5 0 -1.5 
C -0.397805 -1.5 -0.77937 -1.341951 -1.06066 -1.06066 
C -1.341951 -0.77937 -1.5 -0.397805 -1.5 0 
C -1.5 0.397805 -1.341951 0.77937 -1.06066 1.06066 
C -0.77937 1.341951 -0.397805 1.5 0 1.5 
z
" style="stroke: #000080"/>
    </defs>
    <g>
     <use xlink:href="#m03c59defbd" x="350.567386" y="160.636235" style="fill: #000080; stroke: #000080"/>
     <use xlink:href="#m03c59defbd" x="350.567386" y="160.636235" style="fill: #000080; stroke: #000080"/>
    </g>
   </g>
   <g id="line2d_35">
    <path d="M 36.933397 298.944 
L 36.933397 297.525459 
L 49.972572 297.525459 
L 49.972572 296.106918 
L 57.6 296.106918 
L 57.6 293.979106 
L 63.011746 293.979106 
L 63.011746 292.205929 
L 67.209423 292.205929 
L 67.209423 291.496659 
L 70.639174 291.496659 
L 70.639174 289.368847 
L 73.538988 289.368847 
L 73.538988 288.304941 
L 76.050921 288.304941 
L 76.050921 287.950306 
L 80.248597 287.950306 
L 80.248597 285.822494 
L 82.04153 285.822494 
L 82.04153 285.467859 
L 83.678349 285.467859 
L 83.678349 284.758588 
L 85.184077 284.758588 
L 85.184077 282.276141 
L 90.230539 282.276141 
L 90.230539 281.566871 
L 91.305777 281.566871 
L 91.305777 280.8576 
L 93.287772 280.8576 
L 93.287772 279.439059 
L 97.485448 279.439059 
L 97.485448 278.375153 
L 100.9152 278.375153 
L 100.9152 276.956612 
L 101.532027 276.956612 
L 101.532027 275.538071 
L 105.850679 275.538071 
L 105.850679 274.8288 
L 108.956085 274.8288 
L 108.956085 274.474165 
L 109.360651 274.474165 
L 109.360651 274.119529 
L 113.316634 274.119529 
L 113.316634 273.410259 
L 118.152051 273.410259 
L 118.152051 273.055624 
L 118.889854 273.055624 
L 118.889854 272.346353 
L 130.292209 272.346353 
L 130.292209 271.991718 
L 130.938718 271.991718 
L 130.938718 271.282447 
L 131.191226 271.282447 
L 131.191226 270.927812 
L 132.405295 270.927812 
L 132.405295 270.573176 
L 133.097823 270.573176 
L 133.097823 270.218541 
L 133.874812 270.218541 
L 133.874812 269.863906 
L 138.224108 269.863906 
L 138.224108 269.509271 
L 138.985129 269.509271 
L 138.985129 269.154635 
L 140.420604 269.154635 
L 140.420604 268.445365 
L 141.393187 268.445365 
L 141.393187 268.090729 
L 141.682602 268.090729 
L 141.682602 267.381459 
L 142.45627 267.381459 
L 142.45627 267.026824 
L 143.721949 267.026824 
L 143.721949 266.672188 
L 146.080251 266.672188 
L 146.080251 266.317553 
L 146.968277 266.317553 
L 146.968277 265.962918 
L 148.627671 265.962918 
L 148.627671 265.608282 
L 152.312136 265.608282 
L 152.312136 264.899012 
L 153.952355 264.899012 
L 153.989717 263.480471 
L 154.138425 263.480471 
L 154.17542 262.7712 
L 154.285968 262.7712 
L 154.285968 262.416565 
L 154.505134 262.416565 
L 154.541415 260.998024 
L 154.721776 260.998024 
L 154.757642 259.934118 
L 154.86483 259.934118 
L 154.971412 259.224847 
L 155.357123 259.224847 
L 155.357123 258.870212 
L 155.598521 258.870212 
L 155.598521 257.097035 
L 155.971711 257.097035 
L 156.038776 255.678494 
L 156.468962 255.678494 
L 156.468962 255.323859 
L 156.825436 255.323859 
L 156.825436 254.969224 
L 157.143744 254.969224 
L 157.143744 253.905318 
L 157.394569 253.905318 
L 157.394569 252.841412 
L 157.580516 252.841412 
L 157.580516 252.486776 
L 158.007377 252.486776 
L 158.007377 252.132141 
L 158.336102 252.132141 
L 158.395258 251.422871 
L 158.454228 251.422871 
L 158.454228 250.7136 
L 158.571617 250.7136 
L 158.571617 250.358965 
L 158.775302 250.358965 
L 158.861925 248.231153 
L 158.976805 248.231153 
L 159.062507 247.167247 
L 159.317295 247.167247 
L 159.317295 246.812612 
L 159.568678 246.812612 
L 159.568678 246.103341 
L 159.953161 246.103341 
L 159.980326 244.6848 
L 160.115564 244.6848 
L 160.142495 243.975529 
L 160.489139 243.975529 
L 160.568234 242.911624 
L 160.984551 242.911624 
L 160.984551 242.556988 
L 161.189305 242.556988 
L 161.189305 241.847718 
L 161.316153 241.847718 
L 161.316153 241.493082 
L 161.765853 241.493082 
L 161.815163 240.783812 
L 161.888886 240.783812 
L 161.888886 240.429176 
L 162.301277 240.429176 
L 162.301277 240.074541 
L 162.657792 240.074541 
L 162.657792 239.719906 
L 163.191653 239.719906 
L 163.191653 239.365271 
L 164.237627 239.365271 
L 164.237627 239.010635 
L 166.991529 239.010635 
L 166.991529 238.656 
L 167.233064 238.656 
L 167.233064 238.301365 
L 168.500134 238.301365 
L 168.500134 237.946729 
L 170.955893 237.946729 
L 170.955893 237.592094 
L 171.698355 237.592094 
L 171.698355 237.237459 
L 171.814477 237.237459 
L 171.828941 236.528188 
L 172.663262 236.528188 
L 172.663262 236.173553 
L 172.951515 236.173553 
L 172.951515 235.818918 
L 173.620559 235.818918 
L 173.620559 235.464282 
L 175.578877 235.464282 
L 175.578877 235.109647 
L 175.919314 235.109647 
L 175.942567 233.691106 
L 176.219382 233.691106 
L 176.219382 232.981835 
L 176.401688 232.981835 
L 176.401688 232.6272 
L 176.738821 232.6272 
L 176.738821 232.272565 
L 176.99326 232.272565 
L 176.99326 231.917929 
L 177.320046 231.917929 
L 177.320046 231.563294 
L 177.810347 231.563294 
L 177.810347 231.208659 
L 178.903696 231.208659 
L 178.903696 230.854024 
L 179.345187 230.854024 
L 179.345187 230.499388 
L 179.499697 230.499388 
L 179.499697 230.144753 
L 180.161146 230.144753 
L 180.207514 229.435482 
L 181.217289 229.435482 
L 181.217289 229.080847 
L 184.310478 229.080847 
L 184.310478 228.371576 
L 186.079022 228.371576 
L 186.079022 228.016941 
L 187.107881 228.016941 
L 187.107881 227.662306 
L 193.093238 227.662306 
L 193.093238 227.307671 
L 204.882513 227.307671 
L 204.882513 225.889129 
L 214.330071 225.889129 
L 214.330071 225.534494 
L 215.83545 225.534494 
L 215.83545 225.179859 
L 219.789318 225.179859 
L 219.789318 224.825224 
L 223.54308 224.825224 
L 223.54308 224.470588 
L 226.711657 224.470588 
L 226.711657 224.115953 
L 228.191989 224.115953 
L 228.191989 223.761318 
L 230.208783 223.761318 
L 230.208783 223.406682 
L 231.448477 223.406682 
L 231.448477 223.052047 
L 232.440471 223.052047 
L 232.440471 222.697412 
L 233.358619 222.697412 
L 233.358619 222.342776 
L 233.718644 222.342776 
L 233.718644 221.988141 
L 236.33874 221.988141 
L 236.33874 221.633506 
L 236.768685 221.633506 
L 236.773265 220.924235 
L 238.783127 220.924235 
L 238.783127 220.5696 
L 239.679161 220.5696 
L 239.679161 220.214965 
L 239.959581 220.214965 
L 239.959581 219.860329 
L 243.883978 219.860329 
L 243.914704 219.151059 
L 244.169856 219.151059 
L 244.169856 218.796424 
L 249.660248 218.796424 
L 249.660248 218.441788 
L 253.561058 218.441788 
L 253.623986 217.732518 
L 253.71873 217.732518 
L 253.793923 217.023247 
L 270.305526 217.023247 
L 270.305526 216.668612 
L 270.902859 216.668612 
L 270.902859 216.313976 
L 274.218466 216.313976 
L 274.294453 212.412988 
L 274.349207 212.412988 
L 274.349207 211.703718 
L 274.642953 211.703718 
L 274.642953 211.349082 
L 275.003846 211.349082 
L 275.003846 210.994447 
L 275.192336 210.994447 
L 275.192336 210.639812 
L 275.409577 210.639812 
L 275.409577 210.285176 
L 275.627356 210.285176 
L 275.627356 209.930541 
L 275.910583 209.930541 
L 275.910583 209.575906 
L 276.210218 209.575906 
L 276.210218 209.221271 
L 276.843867 209.221271 
L 276.843867 208.512 
L 277.651002 208.512 
L 277.651002 208.157365 
L 285.379306 208.157365 
L 285.379306 207.802729 
L 287.25592 207.802729 
L 287.301977 205.674918 
L 287.4501 205.674918 
L 287.4501 203.901741 
L 287.730205 203.901741 
L 287.730205 203.547106 
L 287.842073 203.547106 
L 287.842073 203.192471 
L 287.954846 203.192471 
L 287.954846 202.837835 
L 288.211301 202.837835 
L 288.279391 201.773929 
L 290.131401 201.773929 
L 290.145036 200.355388 
L 293.813562 200.355388 
L 293.813562 200.000753 
L 294.876913 200.000753 
L 294.88217 198.582212 
L 294.999545 198.582212 
L 294.999545 198.227576 
L 295.262847 198.227576 
L 295.338934 197.163671 
L 295.545402 197.163671 
L 295.545402 196.809035 
L 300.279226 196.809035 
L 300.372178 194.326588 
L 300.759005 194.326588 
L 300.759005 193.971953 
L 304.472619 193.971953 
L 304.546348 192.553412 
L 304.705297 192.553412 
L 304.811974 191.134871 
L 305.679247 191.134871 
L 305.679247 190.780235 
L 307.960412 190.780235 
L 307.960412 189.007059 
L 308.093073 189.007059 
L 308.13158 188.297788 
L 308.219714 188.297788 
L 308.236459 187.233882 
L 310.347447 187.233882 
L 310.347447 186.879247 
L 310.796446 186.879247 
L 310.849012 184.042165 
L 310.962846 184.042165 
L 310.962846 183.332894 
L 313.35253 183.332894 
L 313.35253 181.914353 
L 313.481186 181.914353 
L 313.481186 181.559718 
L 315.561665 181.559718 
L 315.561665 180.495812 
L 315.746401 180.495812 
L 315.746401 180.141176 
L 317.618262 180.141176 
L 317.704811 179.431906 
L 319.293758 179.431906 
L 319.293758 179.077271 
L 319.478424 179.077271 
L 319.478424 178.722635 
L 320.930851 178.722635 
L 320.96031 178.013365 
L 321.099128 178.013365 
L 321.099128 177.658729 
L 322.435817 177.658729 
L 322.542385 176.594824 
L 323.854506 176.594824 
L 323.854506 175.530918 
L 325.125562 175.530918 
L 325.150122 174.112376 
L 325.239378 174.112376 
L 325.239378 173.757741 
L 326.340123 173.757741 
L 326.426763 171.984565 
L 327.500932 171.984565 
L 327.599088 171.275294 
L 328.574628 171.275294 
L 328.667351 170.211388 
L 330.553999 170.211388 
L 330.553999 169.502118 
L 331.470694 169.502118 
L 331.550215 168.438212 
L 332.381169 168.438212 
L 332.391765 167.728941 
L 333.180059 167.728941 
L 333.180059 167.374306 
L 334.746953 167.374306 
L 334.746953 167.019671 
L 335.514825 167.019671 
L 335.514825 166.665035 
L 337.572018 166.665035 
L 337.572018 165.955765 
L 338.173556 165.955765 
L 338.173556 165.601129 
L 338.789875 165.601129 
L 338.789875 165.246494 
L 339.386641 165.246494 
L 339.386641 164.182588 
L 340.526216 164.182588 
L 340.575394 163.118682 
L 341.118896 163.118682 
L 341.118896 162.764047 
L 342.61708 162.764047 
L 342.61708 162.409412 
L 343.607231 162.409412 
L 343.607231 162.054776 
L 346.226383 162.054776 
L 346.226383 161.700141 
L 347.009148 161.700141 
L 347.009148 161.345506 
L 347.797378 161.345506 
L 347.797378 160.990871 
L 350.567386 160.990871 
L 350.567386 160.636235 
L 360.8064 160.636235 
L 360.8064 160.636235 
" style="fill: none; stroke: #000080; stroke-width: 1.5; stroke-linecap: square"/>
   </g>
   <g id="line2d_36">
    <defs>
     <path id="m82168b180c" d="M 0 6 
C 1.591219 6 3.117479 5.367802 4.242641 4.242641 
C 5.367802 3.117479 6 1.591219 6 0 
C 6 -1.591219 5.367802 -3.117479 4.242641 -4.242641 
C 3.117479 -5.367802 1.591219 -6 0 -6 
C -1.591219 -6 -3.117479 -5.367802 -4.242641 -4.242641 
C -5.367802 -3.117479 -6 -1.591219 -6 0 
C -6 1.591219 -5.367802 3.117479 -4.242641 4.242641 
C -3.117479 5.367802 -1.591219 6 0 6 
z
" style="stroke: #000080; stroke-width: 1.5"/>
    </defs>
    <g>
     <use xlink:href="#m82168b180c" x="76.050921" y="287.950306" style="fill-opacity: 0; stroke: #000080; stroke-width: 1.5"/>
     <use xlink:href="#m82168b180c" x="152.312136" y="265.608282" style="fill-opacity: 0; stroke: #000080; stroke-width: 1.5"/>
     <use xlink:href="#m82168b180c" x="230.208783" y="223.761318" style="fill-opacity: 0; stroke: #000080; stroke-width: 1.5"/>
     <use xlink:href="#m82168b180c" x="287.301977" y="205.674918" style="fill-opacity: 0; stroke: #000080; stroke-width: 1.5"/>
     <use xlink:href="#m82168b180c" x="350.567386" y="160.636235" style="fill-opacity: 0; stroke: #000080; stroke-width: 1.5"/>
     <use xlink:href="#m82168b180c" x="360.8064" y="160.636235" style="fill-opacity: 0; stroke: #000080; stroke-width: 1.5"/>
    </g>
   </g>
   <g id="line2d_37">
    <path style="fill: none; stroke: #000080; stroke-width: 1.5; stroke-linecap: square"/>
    <g/>
   </g>
   <g id="line2d_38">
    <path d="M 274.176 216.313976 
" clip-path="url(#p0fbc08e11b)" style="fill: none; stroke: #000080; stroke-width: 1.5; stroke-linecap: square"/>
    <defs>
     <path id="me1c641817e" d="M -12 12 
L 12 -12 
M -12 -12 
L 12 12 
" style="stroke: #000080"/>
    </defs>
    <g clip-path="url(#p0fbc08e11b)">
     <use xlink:href="#me1c641817e" x="274.176" y="216.313976" style="fill: #000080; stroke: #000080"/>
    </g>
   </g>
   <g id="line2d_39">
    <defs>
     <path id="m9478a9f4e1" d="M 0 1.5 
C 0.397805 1.5 0.77937 1.341951 1.06066 1.06066 
C 1.341951 0.77937 1.5 0.397805 1.5 0 
C 1.5 -0.397805 1.341951 -0.77937 1.06066 -1.06066 
C 0.77937 -1.341951 0.397805 -1.5 0 -1.5 
C -0.397805 -1.5 -0.77937 -1.341951 -1.06066 -1.06066 
C -1.341951 -0.77937 -1.5 -0.397805 -1.5 0 
C -1.5 0.397805 -1.341951 0.77937 -1.06066 1.06066 
C -0.77937 1.341951 -0.397805 1.5 0 1.5 
z
" style="stroke: #ff00ff"/>
    </defs>
    <g>
     <use xlink:href="#m9478a9f4e1" x="335.791571" y="64.884706" style="fill: #ff00ff; stroke: #ff00ff"/>
     <use xlink:href="#m9478a9f4e1" x="335.791571" y="64.884706" style="fill: #ff00ff; stroke: #ff00ff"/>
    </g>
   </g>
   <g id="line2d_40">
    <path d="M 36.933397 298.944 
L 36.933397 295.752282 
L 121.581803 295.752282 
L 121.581803 292.9152 
L 121.789667 292.9152 
L 121.789667 290.432753 
L 122.399825 290.432753 
L 122.399825 285.467859 
L 122.990812 285.467859 
L 122.990812 283.694682 
L 123.563797 283.694682 
L 123.563797 277.665882 
L 135.736814 277.665882 
L 135.835047 274.119529 
L 135.932769 274.119529 
L 135.932769 269.509271 
L 136.222928 269.509271 
L 136.222928 265.608282 
L 136.602972 265.608282 
L 136.602972 262.416565 
L 142.525051 262.416565 
L 142.525051 262.061929 
L 142.999601 262.061929 
L 142.999601 261.352659 
L 143.265494 261.352659 
L 143.265494 260.643388 
L 143.657415 260.643388 
L 143.721949 259.579482 
L 147.868016 259.579482 
L 147.868016 259.224847 
L 148.226342 259.224847 
L 148.226342 258.870212 
L 148.775988 258.870212 
L 148.775988 258.515576 
L 148.971944 258.515576 
L 148.971944 258.160941 
L 152.271285 258.160941 
L 152.271285 257.806306 
L 152.874916 257.806306 
L 152.874916 256.7424 
L 155.564225 256.7424 
L 155.564225 255.678494 
L 156.403417 255.678494 
L 156.403417 255.323859 
L 159.317295 255.323859 
L 159.317295 254.969224 
L 160.276577 254.969224 
L 160.276577 254.259953 
L 163.954085 254.259953 
L 163.954085 253.905318 
L 164.085482 253.905318 
L 164.085482 253.550682 
L 165.953653 253.550682 
L 165.953653 252.841412 
L 166.651893 252.841412 
L 166.651893 252.486776 
L 167.778892 252.486776 
L 167.778892 252.132141 
L 168.465585 252.132141 
L 168.465585 251.777506 
L 168.67193 251.777506 
L 168.67193 251.422871 
L 168.859111 251.422871 
L 168.859111 251.068235 
L 169.376816 251.068235 
L 169.376816 250.7136 
L 170.788543 250.7136 
L 170.819081 249.649694 
L 173.208563 249.649694 
L 173.208563 247.876518 
L 175.720495 247.876518 
L 175.720495 247.521882 
L 176.435674 247.521882 
L 176.435674 247.167247 
L 178.061171 247.167247 
L 178.061171 246.812612 
L 181.032039 246.812612 
L 181.032039 246.457976 
L 183.347923 246.457976 
L 183.347923 246.103341 
L 184.055555 246.103341 
L 184.055555 245.394071 
L 184.561993 245.394071 
L 184.561993 245.039435 
L 185.423742 245.039435 
L 185.423742 244.6848 
L 186.907859 244.6848 
L 186.907859 244.330165 
L 189.338532 244.330165 
L 189.338532 243.620894 
L 190.632595 243.620894 
L 190.632595 243.266259 
L 192.032002 243.266259 
L 192.032002 242.911624 
L 192.957346 242.911624 
L 192.957346 242.202353 
L 194.31781 242.202353 
L 194.31781 241.847718 
L 194.848356 241.847718 
L 194.848356 241.493082 
L 195.586485 241.493082 
L 195.586485 240.429176 
L 196.774979 240.429176 
L 196.774979 239.010635 
L 197.155023 239.010635 
L 197.215124 238.301365 
L 197.885589 238.301365 
L 197.950618 237.592094 
L 199.283552 237.592094 
L 199.283552 236.882824 
L 200.439997 236.882824 
L 200.439997 236.173553 
L 201.751756 236.173553 
L 201.751756 235.818918 
L 204.570573 235.818918 
L 204.570573 235.109647 
L 205.088458 235.109647 
L 205.164803 233.336471 
L 205.406559 233.336471 
L 205.406559 232.981835 
L 206.474787 232.981835 
L 206.513717 232.272565 
L 206.702643 232.272565 
L 206.702643 231.917929 
L 206.903139 231.917929 
L 206.970243 230.499388 
L 207.034884 230.499388 
L 207.034884 230.144753 
L 207.823625 230.144753 
L 207.842819 229.435482 
L 208.054783 229.435482 
L 208.145198 228.726212 
L 208.324735 228.726212 
L 208.3538 228.016941 
L 208.467553 228.016941 
L 208.467553 227.662306 
L 208.680787 227.662306 
L 208.735753 226.953035 
L 208.921847 226.953035 
L 208.921847 226.243765 
L 209.042229 226.243765 
L 209.042229 225.889129 
L 209.165819 225.889129 
L 209.241168 225.179859 
L 209.335917 225.179859 
L 209.335917 224.825224 
L 209.471288 224.825224 
L 209.500588 224.115953 
L 209.669633 224.115953 
L 209.725646 223.052047 
L 209.825667 223.052047 
L 209.844841 222.342776 
L 210.008935 222.342776 
L 210.09234 221.633506 
L 210.205481 221.633506 
L 210.205481 220.924235 
L 210.385103 220.924235 
L 210.385103 219.860329 
L 210.577778 219.860329 
L 210.651361 219.151059 
L 213.139641 219.151059 
L 213.139641 218.441788 
L 213.789388 218.441788 
L 213.789388 218.087153 
L 214.242293 218.087153 
L 214.242293 217.732518 
L 214.384348 217.732518 
L 214.384348 217.377882 
L 214.544753 217.377882 
L 214.582035 216.668612 
L 214.693439 216.668612 
L 214.770293 215.604706 
L 215.296789 215.604706 
L 215.296789 215.250071 
L 215.465273 215.250071 
L 215.465273 214.895435 
L 215.861913 214.895435 
L 215.934147 213.831529 
L 216.041982 213.831529 
L 216.041982 213.476894 
L 216.390265 213.476894 
L 216.451063 212.412988 
L 216.554642 212.412988 
L 216.665656 210.639812 
L 216.811782 210.639812 
L 216.811782 209.930541 
L 216.92524 209.930541 
L 216.92524 209.575906 
L 217.098064 209.575906 
L 217.167012 208.866635 
L 217.37235 208.866635 
L 217.37235 208.512 
L 217.485041 208.512 
L 217.485041 208.157365 
L 222.590441 208.157365 
L 222.590441 207.802729 
L 222.919436 207.802729 
L 222.964333 206.738824 
L 223.050009 206.738824 
L 223.050009 206.384188 
L 223.511596 206.384188 
L 223.511596 205.674918 
L 223.666653 205.674918 
L 223.673086 204.965647 
L 224.073995 204.965647 
L 224.073995 204.611012 
L 224.570197 204.611012 
L 224.570197 204.256376 
L 224.741125 204.256376 
L 224.831195 203.547106 
L 224.911375 203.547106 
L 224.911375 203.192471 
L 225.589821 203.192471 
L 225.589821 202.837835 
L 225.758351 202.837835 
L 225.758351 202.4832 
L 225.922123 202.4832 
L 225.922123 202.128565 
L 226.184444 202.128565 
L 226.27988 201.419294 
L 226.484351 201.419294 
L 226.570405 200.710024 
L 226.660772 200.710024 
L 226.660772 200.355388 
L 226.875897 200.355388 
L 226.901455 198.582212 
L 227.055611 198.582212 
L 227.055611 198.227576 
L 227.485898 198.227576 
L 227.485898 197.872941 
L 228.293606 197.872941 
L 228.293606 197.518306 
L 229.166432 197.518306 
L 229.202763 196.809035 
L 229.337193 196.809035 
L 229.337193 196.4544 
L 229.634018 196.4544 
L 229.706164 195.745129 
L 229.827785 195.745129 
L 229.833746 195.035859 
L 230.035962 195.035859 
L 230.096794 194.326588 
L 230.270353 194.326588 
L 230.296863 193.617318 
L 230.527407 193.617318 
L 230.548458 192.908047 
L 233.456102 192.908047 
L 233.565035 192.198776 
L 233.801417 192.198776 
L 233.908374 191.489506 
L 233.985009 191.489506 
L 233.985009 191.134871 
L 234.258126 191.134871 
L 234.258126 190.4256 
L 235.127576 190.4256 
L 235.127576 190.070965 
L 235.425092 190.070965 
L 235.425092 189.716329 
L 235.910729 189.716329 
L 235.910729 189.361694 
L 237.252073 189.361694 
L 237.252073 189.007059 
L 253.742155 189.007059 
L 253.742155 188.297788 
L 254.413416 188.297788 
L 254.413416 187.943153 
L 255.121557 187.943153 
L 255.146232 186.879247 
L 255.273064 186.879247 
L 255.273064 186.524612 
L 255.66143 186.524612 
L 255.66143 186.169976 
L 255.909114 186.169976 
L 255.995517 183.687529 
L 256.026315 183.687529 
L 256.049503 182.623624 
L 256.89379 182.623624 
L 256.894733 181.914353 
L 257.082043 181.914353 
L 257.082043 181.559718 
L 257.220926 181.559718 
L 257.235282 180.495812 
L 257.353117 180.495812 
L 257.353117 180.141176 
L 257.52166 180.141176 
L 257.606427 178.013365 
L 257.722869 178.013365 
L 257.722869 177.658729 
L 258.104216 177.658729 
L 258.213378 176.949459 
L 258.318269 176.949459 
L 258.318269 176.594824 
L 259.10446 176.594824 
L 259.194363 175.530918 
L 259.287021 175.530918 
L 259.289512 174.821647 
L 259.52079 174.821647 
L 259.600839 173.757741 
L 259.736429 173.757741 
L 259.739401 173.048471 
L 267.445059 173.048471 
L 267.490561 172.3392 
L 267.714493 172.3392 
L 267.790897 171.275294 
L 267.834166 171.275294 
L 267.841192 170.566024 
L 268.383953 170.566024 
L 268.471368 168.792847 
L 268.496402 168.792847 
L 268.590977 167.728941 
L 268.640191 167.728941 
L 268.709831 166.665035 
L 268.772111 166.665035 
L 268.77771 165.955765 
L 269.107815 165.955765 
L 269.107815 165.601129 
L 269.538438 165.601129 
L 269.542851 164.891859 
L 269.841364 164.891859 
L 269.843732 164.182588 
L 274.924833 164.182588 
L 274.924833 163.827953 
L 275.043168 163.827953 
L 275.075058 163.118682 
L 275.4974 163.118682 
L 275.56217 161.345506 
L 275.613245 161.345506 
L 275.690292 159.572329 
L 275.8245 159.572329 
L 275.8245 159.217694 
L 275.943092 159.217694 
L 275.943092 158.863059 
L 276.225857 158.863059 
L 276.225857 158.508424 
L 276.402993 158.508424 
L 276.437109 157.799153 
L 276.649479 157.799153 
L 276.649479 157.444518 
L 280.061885 157.444518 
L 280.061885 157.089882 
L 280.247791 157.089882 
L 280.268077 156.380612 
L 280.478807 156.380612 
L 280.587084 154.962071 
L 280.635097 154.962071 
L 280.699752 152.834259 
L 280.912741 152.834259 
L 280.930659 151.770353 
L 281.143749 151.770353 
L 281.143749 151.415718 
L 281.475949 151.415718 
L 281.477778 150.706447 
L 284.314274 150.706447 
L 284.333359 149.997176 
L 284.558572 149.997176 
L 284.640072 148.224 
L 284.681157 148.224 
L 284.682484 147.160094 
L 284.819584 147.160094 
L 284.851002 146.450824 
L 285.049782 146.450824 
L 285.093597 145.741553 
L 285.209895 145.741553 
L 285.31008 145.032282 
L 287.640733 145.032282 
L 287.672063 143.968376 
L 287.882725 143.968376 
L 287.9896 141.840565 
L 288.108702 141.840565 
L 288.122659 141.131294 
L 288.267833 141.131294 
L 288.313048 140.067388 
L 288.381214 140.067388 
L 288.410217 138.648847 
L 290.489719 138.648847 
L 290.494724 137.939576 
L 290.696456 137.939576 
L 290.761198 136.1664 
L 290.841417 136.1664 
L 290.897338 134.393224 
L 291.020748 134.393224 
L 291.117893 132.265412 
L 291.218391 132.265412 
L 291.218391 131.910776 
L 292.95658 131.910776 
L 292.973555 131.201506 
L 293.105806 131.201506 
L 293.211096 128.719059 
L 293.302193 128.719059 
L 293.313827 127.655153 
L 293.457489 127.655153 
L 293.508784 126.591247 
L 295.151756 126.591247 
L 295.151756 126.236612 
L 295.280948 126.236612 
L 295.363835 123.754165 
L 295.444274 123.754165 
L 295.552428 122.690259 
L 295.583078 122.690259 
L 295.648013 121.271718 
L 295.707396 121.271718 
L 295.708533 120.562447 
L 297.089175 120.562447 
L 297.093849 119.498541 
L 297.212785 119.498541 
L 297.212785 119.143906 
L 297.367837 119.143906 
L 297.469488 118.08 
L 297.492251 118.08 
L 297.492251 117.725365 
L 297.604751 117.725365 
L 297.604751 117.370729 
L 298.967921 117.370729 
L 299.033556 114.888282 
L 299.115992 114.888282 
L 299.117923 114.179012 
L 299.22751 114.179012 
L 299.264591 113.469741 
L 300.595257 113.469741 
L 300.628173 112.405835 
L 300.811979 112.405835 
L 300.84991 111.696565 
L 302.094962 111.696565 
L 302.179678 109.568753 
L 302.25601 109.568753 
L 302.364362 107.795576 
L 303.347875 107.795576 
L 303.449723 106.731671 
L 303.472896 106.731671 
L 303.546075 105.313129 
L 303.61918 105.313129 
L 303.717709 104.603859 
L 304.630314 104.603859 
L 304.741158 103.539953 
L 304.74348 103.539953 
L 304.81778 102.121412 
L 304.885159 102.121412 
L 304.976389 100.702871 
L 305.937912 100.702871 
L 306.000179 99.638965 
L 306.07208 99.638965 
L 306.127263 98.220424 
L 307.03535 98.220424 
L 307.077609 97.511153 
L 307.204122 97.511153 
L 307.223927 96.092612 
L 308.110509 96.092612 
L 308.191259 93.9648 
L 308.244877 93.9648 
L 308.245728 93.255529 
L 309.128689 93.255529 
L 309.191347 92.191624 
L 309.241978 92.191624 
L 309.278313 91.482353 
L 309.998291 91.482353 
L 310.094876 90.418447 
L 310.233606 90.418447 
L 310.233606 90.063812 
L 311.001657 90.063812 
L 311.043303 88.999906 
L 311.134602 88.999906 
L 311.134602 88.645271 
L 311.838848 88.645271 
L 311.867652 86.517459 
L 311.964789 86.517459 
L 311.992242 85.453553 
L 312.616667 85.453553 
L 312.695634 84.389647 
L 312.736127 84.389647 
L 312.802587 83.680376 
L 313.457844 83.680376 
L 313.566951 81.552565 
L 313.576574 81.552565 
L 313.576574 81.197929 
L 314.219089 81.197929 
L 314.236258 80.134024 
L 314.351532 80.134024 
L 314.351532 79.779388 
L 314.983122 79.779388 
L 315.07451 78.715482 
L 315.106703 78.715482 
L 315.106703 78.360847 
L 315.681756 78.360847 
L 315.681756 78.006212 
L 316.428039 78.006212 
L 316.437187 77.296941 
L 317.019396 77.296941 
L 317.090362 76.233035 
L 317.638587 76.233035 
L 317.638587 75.8784 
L 318.249846 75.8784 
L 318.348456 74.105224 
L 318.851891 74.105224 
L 318.955404 71.622776 
L 319.43065 71.622776 
L 319.501288 70.913506 
L 320.066313 70.913506 
L 320.066313 70.558871 
L 320.522956 70.558871 
L 320.596237 69.494965 
L 321.11119 69.494965 
L 321.11119 69.140329 
L 321.634028 69.140329 
L 321.634028 68.785694 
L 322.065934 68.785694 
L 322.065934 68.431059 
L 323.529236 68.431059 
L 323.529236 68.076424 
L 325.223068 68.076424 
L 325.223068 67.721788 
L 326.451809 67.721788 
L 326.451809 67.367153 
L 326.86237 67.367153 
L 326.86237 67.012518 
L 327.239757 67.012518 
L 327.262434 66.303247 
L 328.996793 66.303247 
L 328.996793 65.948612 
L 330.916538 65.948612 
L 330.916538 65.593976 
L 331.260563 65.593976 
L 331.260563 65.239341 
L 335.791571 65.239341 
L 335.791571 64.884706 
L 360.8064 64.884706 
L 360.8064 64.884706 
" style="fill: none; stroke: #ff00ff; stroke-width: 1.5; stroke-linecap: square"/>
   </g>
   <g id="line2d_41">
    <defs>
     <path id="m9034dcc612" d="M 0 8.485281 
L 5.091169 0 
L 0 -8.485281 
L -5.091169 0 
z
" style="stroke: #ff00ff; stroke-width: 1.5; stroke-linejoin: miter"/>
    </defs>
    <g>
     <use xlink:href="#m9034dcc612" x="121.581803" y="295.752282" style="fill-opacity: 0; stroke: #ff00ff; stroke-width: 1.5; stroke-linejoin: miter"/>
     <use xlink:href="#m9034dcc612" x="170.819081" y="249.649694" style="fill-opacity: 0; stroke: #ff00ff; stroke-width: 1.5; stroke-linejoin: miter"/>
     <use xlink:href="#m9034dcc612" x="254.413416" y="188.297788" style="fill-opacity: 0; stroke: #ff00ff; stroke-width: 1.5; stroke-linejoin: miter"/>
     <use xlink:href="#m9034dcc612" x="315.681756" y="78.006212" style="fill-opacity: 0; stroke: #ff00ff; stroke-width: 1.5; stroke-linejoin: miter"/>
     <use xlink:href="#m9034dcc612" x="335.791571" y="64.884706" style="fill-opacity: 0; stroke: #ff00ff; stroke-width: 1.5; stroke-linejoin: miter"/>
     <use xlink:href="#m9034dcc612" x="360.8064" y="64.884706" style="fill-opacity: 0; stroke: #ff00ff; stroke-width: 1.5; stroke-linejoin: miter"/>
    </g>
   </g>
   <g id="line2d_42">
    <path style="fill: none; stroke: #ff00ff; stroke-width: 1.5; stroke-linecap: square"/>
    <g/>
   </g>
   <g id="line2d_43">
    <path d="M 253.513724 189.007059 
" clip-path="url(#p0fbc08e11b)" style="fill: none; stroke: #ff00ff; stroke-width: 1.5; stroke-linecap: square"/>
    <defs>
     <path id="m642ede5a79" d="M -12 12 
L 12 -12 
M -12 -12 
L 12 12 
" style="stroke: #ff00ff"/>
    </defs>
    <g clip-path="url(#p0fbc08e11b)">
     <use xlink:href="#m642ede5a79" x="253.513724" y="189.007059" style="fill: #ff00ff; stroke: #ff00ff"/>
    </g>
   </g>
   <g id="line2d_44">
    <path d="M 360.8064 160.636235 
L 380.514816 293.51808 
" style="fill: none; stroke: #000080; stroke-width: 1.5; stroke-linecap: square"/>
    <g>
     <use xlink:href="#m82168b180c" x="360.8064" y="160.636235" style="fill-opacity: 0; stroke: #000080; stroke-width: 1.5"/>
     <use xlink:href="#m82168b180c" x="380.514816" y="293.51808" style="fill-opacity: 0; stroke: #000080; stroke-width: 1.5"/>
    </g>
   </g>
   <g id="line2d_45">
    <path d="M 360.8064 64.884706 
L 380.514816 163.296 
" style="fill: none; stroke: #ff00ff; stroke-width: 1.5; stroke-linecap: square"/>
    <g>
     <use xlink:href="#m9034dcc612" x="360.8064" y="64.884706" style="fill-opacity: 0; stroke: #ff00ff; stroke-width: 1.5; stroke-linejoin: miter"/>
     <use xlink:href="#m9034dcc612" x="380.514816" y="163.296" style="fill-opacity: 0; stroke: #ff00ff; stroke-width: 1.5; stroke-linejoin: miter"/>
    </g>
   </g>
   <g id="line2d_46">
    <path d="M 360.8064 298.944 
L 360.8064 27.648 
" style="fill: none; stroke: #000000; stroke-width: 1.5; stroke-linecap: square"/>
   </g>
   <g id="patch_3">
    <path d="M 57.6 298.944 
L 360.8064 298.944 
" style="fill: none; stroke: #000000; stroke-width: 0.8; stroke-linejoin: miter; stroke-linecap: square"/>
   </g>
   <g id="patch_4">
    <path d="M 57.6 27.648 
L 360.8064 27.648 
" style="fill: none; stroke: #000000; stroke-width: 0.8; stroke-linejoin: miter; stroke-linecap: square"/>
   </g>
   <g id="text_13">
    <!-- LCGA -->
    <g transform="translate(386.578944 297.381205)scale(0.14 -0.14)">
     <defs>
      <path id="DejaVuSans-4c" d="M 628 4666 
L 1259 4666 
L 1259 531 
L 3531 531 
L 3531 0 
L 628 0 
L 628 4666 
z
" transform="scale(0.015625)"/>
      <path id="DejaVuSans-43" d="M 4122 4306 
L 4122 3641 
Q 3803 3938 3442 4084 
Q 3081 4231 2675 4231 
Q 1875 4231 1450 3742 
Q 1025 3253 1025 2328 
Q 1025 1406 1450 917 
Q 1875 428 2675 428 
Q 3081 428 3442 575 
Q 3803 722 4122 1019 
L 4122 359 
Q 3791 134 3420 21 
Q 3050 -91 2638 -91 
Q 1578 -91 968 557 
Q 359 1206 359 2328 
Q 359 3453 968 4101 
Q 1578 4750 2638 4750 
Q 3056 4750 3426 4639 
Q 3797 4528 4122 4306 
z
" transform="scale(0.015625)"/>
      <path id="DejaVuSans-47" d="M 3809 666 
L 3809 1919 
L 2778 1919 
L 2778 2438 
L 4434 2438 
L 4434 434 
Q 4069 175 3628 42 
Q 3188 -91 2688 -91 
Q 1594 -91 976 548 
Q 359 1188 359 2328 
Q 359 3472 976 4111 
Q 1594 4750 2688 4750 
Q 3144 4750 3555 4637 
Q 3966 4525 4313 4306 
L 4313 3634 
Q 3963 3931 3569 4081 
Q 3175 4231 2741 4231 
Q 1884 4231 1454 3753 
Q 1025 3275 1025 2328 
Q 1025 1384 1454 906 
Q 1884 428 2741 428 
Q 3075 428 3337 486 
Q 3600 544 3809 666 
z
" transform="scale(0.015625)"/>
      <path id="DejaVuSans-41" d="M 2188 4044 
L 1331 1722 
L 3047 1722 
L 2188 4044 
z
M 1831 4666 
L 2547 4666 
L 4325 0 
L 3669 0 
L 3244 1197 
L 1141 1197 
L 716 0 
L 50 0 
L 1831 4666 
z
" transform="scale(0.015625)"/>
     </defs>
     <use xlink:href="#DejaVuSans-4c"/>
     <use xlink:href="#DejaVuSans-43" x="55.712891"/>
     <use xlink:href="#DejaVuSans-47" x="125.537109"/>
     <use xlink:href="#DejaVuSans-41" x="203.027344"/>
    </g>
   </g>
   <g id="text_14">
    <!-- EvoSpace- -->
    <g transform="translate(386.578944 167.159125)scale(0.14 -0.14)">
     <defs>
      <path id="DejaVuSans-45" d="M 628 4666 
L 3578 4666 
L 3578 4134 
L 1259 4134 
L 1259 2753 
L 3481 2753 
L 3481 2222 
L 1259 2222 
L 1259 531 
L 3634 531 
L 3634 0 
L 628 0 
L 628 4666 
z
" transform="scale(0.015625)"/>
      <path id="DejaVuSans-53" d="M 3425 4513 
L 3425 3897 
Q 3066 4069 2747 4153 
Q 2428 4238 2131 4238 
Q 1616 4238 1336 4038 
Q 1056 3838 1056 3469 
Q 1056 3159 1242 3001 
Q 1428 2844 1947 2747 
L 2328 2669 
Q 3034 2534 3370 2195 
Q 3706 1856 3706 1288 
Q 3706 609 3251 259 
Q 2797 -91 1919 -91 
Q 1588 -91 1214 -16 
Q 841 59 441 206 
L 441 856 
Q 825 641 1194 531 
Q 1563 422 1919 422 
Q 2459 422 2753 634 
Q 3047 847 3047 1241 
Q 3047 1584 2836 1778 
Q 2625 1972 2144 2069 
L 1759 2144 
Q 1053 2284 737 2584 
Q 422 2884 422 3419 
Q 422 4038 858 4394 
Q 1294 4750 2059 4750 
Q 2388 4750 2728 4690 
Q 3069 4631 3425 4513 
z
" transform="scale(0.015625)"/>
     </defs>
     <use xlink:href="#DejaVuSans-45"/>
     <use xlink:href="#DejaVuSans-76" x="63.183594"/>
     <use xlink:href="#DejaVuSans-6f" x="122.363281"/>
     <use xlink:href="#DejaVuSans-53" x="183.544922"/>
     <use xlink:href="#DejaVuSans-70" x="247.021484"/>
     <use xlink:href="#DejaVuSans-61" x="310.498047"/>
     <use xlink:href="#DejaVuSans-63" x="371.777344"/>
     <use xlink:href="#DejaVuSans-65" x="426.757812"/>
     <use xlink:href="#DejaVuSans-2d" x="488.28125"/>
    </g>
   </g>
   <g id="text_15">
    <!-- best 2009 -->
    <g transform="translate(386.578944 36.937045)scale(0.14 -0.14)">
     <defs>
      <path id="DejaVuSans-62" d="M 3116 1747 
Q 3116 2381 2855 2742 
Q 2594 3103 2138 3103 
Q 1681 3103 1420 2742 
Q 1159 2381 1159 1747 
Q 1159 1113 1420 752 
Q 1681 391 2138 391 
Q 2594 391 2855 752 
Q 3116 1113 3116 1747 
z
M 1159 2969 
Q 1341 3281 1617 3432 
Q 1894 3584 2278 3584 
Q 2916 3584 3314 3078 
Q 3713 2572 3713 1747 
Q 3713 922 3314 415 
Q 2916 -91 2278 -91 
Q 1894 -91 1617 61 
Q 1341 213 1159 525 
L 1159 0 
L 581 0 
L 581 4863 
L 1159 4863 
L 1159 2969 
z
" transform="scale(0.015625)"/>
      <path id="DejaVuSans-39" d="M 703 97 
L 703 672 
Q 941 559 1184 500 
Q 1428 441 1663 441 
Q 2288 441 2617 861 
Q 2947 1281 2994 2138 
Q 2813 1869 2534 1725 
Q 2256 1581 1919 1581 
Q 1219 1581 811 2004 
Q 403 2428 403 3163 
Q 403 3881 828 4315 
Q 1253 4750 1959 4750 
Q 2769 4750 3195 4129 
Q 3622 3509 3622 2328 
Q 3622 1225 3098 567 
Q 2575 -91 1691 -91 
Q 1453 -91 1209 -44 
Q 966 3 703 97 
z
M 1959 2075 
Q 2384 2075 2632 2365 
Q 2881 2656 2881 3163 
Q 2881 3666 2632 3958 
Q 2384 4250 1959 4250 
Q 1534 4250 1286 3958 
Q 1038 3666 1038 3163 
Q 1038 2656 1286 2365 
Q 1534 2075 1959 2075 
z
" transform="scale(0.015625)"/>
     </defs>
     <use xlink:href="#DejaVuSans-62"/>
     <use xlink:href="#DejaVuSans-65" x="63.476562"/>
     <use xlink:href="#DejaVuSans-73" x="125"/>
     <use xlink:href="#DejaVuSans-74" x="177.099609"/>
     <use xlink:href="#DejaVuSans-20" x="216.308594"/>
     <use xlink:href="#DejaVuSans-32" x="248.095703"/>
     <use xlink:href="#DejaVuSans-30" x="311.71875"/>
     <use xlink:href="#DejaVuSans-30" x="375.341797"/>
     <use xlink:href="#DejaVuSans-39" x="438.964844"/>
    </g>
   </g>
   <g id="text_16">
    <!-- bbob f18, 3-D -->
    <g transform="translate(60.632064 38.111366)scale(0.102 -0.102)">
     <defs>
      <path id="DejaVuSans-33" d="M 2597 2516 
Q 3050 2419 3304 2112 
Q 3559 1806 3559 1356 
Q 3559 666 3084 287 
Q 2609 -91 1734 -91 
Q 1441 -91 1130 -33 
Q 819 25 488 141 
L 488 750 
Q 750 597 1062 519 
Q 1375 441 1716 441 
Q 2309 441 2620 675 
Q 2931 909 2931 1356 
Q 2931 1769 2642 2001 
Q 2353 2234 1838 2234 
L 1294 2234 
L 1294 2753 
L 1863 2753 
Q 2328 2753 2575 2939 
Q 2822 3125 2822 3475 
Q 2822 3834 2567 4026 
Q 2313 4219 1838 4219 
Q 1578 4219 1281 4162 
Q 984 4106 628 3988 
L 628 4550 
Q 988 4650 1302 4700 
Q 1616 4750 1894 4750 
Q 2613 4750 3031 4423 
Q 3450 4097 3450 3541 
Q 3450 3153 3228 2886 
Q 3006 2619 2597 2516 
z
" transform="scale(0.015625)"/>
      <path id="DejaVuSans-44" d="M 1259 4147 
L 1259 519 
L 2022 519 
Q 2988 519 3436 956 
Q 3884 1394 3884 2338 
Q 3884 3275 3436 3711 
Q 2988 4147 2022 4147 
L 1259 4147 
z
M 628 4666 
L 1925 4666 
Q 3281 4666 3915 4102 
Q 4550 3538 4550 2338 
Q 4550 1131 3912 565 
Q 3275 0 1925 0 
L 628 0 
L 628 4666 
z
" transform="scale(0.015625)"/>
     </defs>
     <use xlink:href="#DejaVuSans-62"/>
     <use xlink:href="#DejaVuSans-62" x="63.476562"/>
     <use xlink:href="#DejaVuSans-6f" x="126.953125"/>
     <use xlink:href="#DejaVuSans-62" x="188.134766"/>
     <use xlink:href="#DejaVuSans-20" x="251.611328"/>
     <use xlink:href="#DejaVuSans-66" x="283.398438"/>
     <use xlink:href="#DejaVuSans-31" x="318.603516"/>
     <use xlink:href="#DejaVuSans-38" x="382.226562"/>
     <use xlink:href="#DejaVuSans-2c" x="445.849609"/>
     <use xlink:href="#DejaVuSans-20" x="477.636719"/>
     <use xlink:href="#DejaVuSans-33" x="509.423828"/>
     <use xlink:href="#DejaVuSans-2d" x="573.046875"/>
     <use xlink:href="#DejaVuSans-44" x="609.130859"/>
    </g>
    <!-- 51 targets: 100..1e-08 -->
    <g transform="translate(60.632064 49.533135)scale(0.102 -0.102)">
     <defs>
      <path id="DejaVuSans-35" d="M 691 4666 
L 3169 4666 
L 3169 4134 
L 1269 4134 
L 1269 2991 
Q 1406 3038 1543 3061 
Q 1681 3084 1819 3084 
Q 2600 3084 3056 2656 
Q 3513 2228 3513 1497 
Q 3513 744 3044 326 
Q 2575 -91 1722 -91 
Q 1428 -91 1123 -41 
Q 819 9 494 109 
L 494 744 
Q 775 591 1075 516 
Q 1375 441 1709 441 
Q 2250 441 2565 725 
Q 2881 1009 2881 1497 
Q 2881 1984 2565 2268 
Q 2250 2553 1709 2553 
Q 1456 2553 1204 2497 
Q 953 2441 691 2322 
L 691 4666 
z
" transform="scale(0.015625)"/>
      <path id="DejaVuSans-3a" d="M 750 794 
L 1409 794 
L 1409 0 
L 750 0 
L 750 794 
z
M 750 3309 
L 1409 3309 
L 1409 2516 
L 750 2516 
L 750 3309 
z
" transform="scale(0.015625)"/>
     </defs>
     <use xlink:href="#DejaVuSans-35"/>
     <use xlink:href="#DejaVuSans-31" x="63.623047"/>
     <use xlink:href="#DejaVuSans-20" x="127.246094"/>
     <use xlink:href="#DejaVuSans-74" x="159.033203"/>
     <use xlink:href="#DejaVuSans-61" x="198.242188"/>
     <use xlink:href="#DejaVuSans-72" x="259.521484"/>
     <use xlink:href="#DejaVuSans-67" x="298.884766"/>
     <use xlink:href="#DejaVuSans-65" x="362.361328"/>
     <use xlink:href="#DejaVuSans-74" x="423.884766"/>
     <use xlink:href="#DejaVuSans-73" x="463.09375"/>
     <use xlink:href="#DejaVuSans-3a" x="515.193359"/>
     <use xlink:href="#DejaVuSans-20" x="548.884766"/>
     <use xlink:href="#DejaVuSans-31" x="580.671875"/>
     <use xlink:href="#DejaVuSans-30" x="644.294922"/>
     <use xlink:href="#DejaVuSans-30" x="707.917969"/>
     <use xlink:href="#DejaVuSans-2e" x="771.541016"/>
     <use xlink:href="#DejaVuSans-2e" x="803.328125"/>
     <use xlink:href="#DejaVuSans-31" x="835.115234"/>
     <use xlink:href="#DejaVuSans-65" x="898.738281"/>
     <use xlink:href="#DejaVuSans-2d" x="960.261719"/>
     <use xlink:href="#DejaVuSans-30" x="996.345703"/>
     <use xlink:href="#DejaVuSans-38" x="1059.96875"/>
    </g>
    <!-- 15 instances -->
    <g transform="translate(60.632064 60.954904)scale(0.102 -0.102)">
     <use xlink:href="#DejaVuSans-31"/>
     <use xlink:href="#DejaVuSans-35" x="63.623047"/>
     <use xlink:href="#DejaVuSans-20" x="127.246094"/>
     <use xlink:href="#DejaVuSans-69" x="159.033203"/>
     <use xlink:href="#DejaVuSans-6e" x="186.816406"/>
     <use xlink:href="#DejaVuSans-73" x="250.195312"/>
     <use xlink:href="#DejaVuSans-74" x="302.294922"/>
     <use xlink:href="#DejaVuSans-61" x="341.503906"/>
     <use xlink:href="#DejaVuSans-6e" x="402.783203"/>
     <use xlink:href="#DejaVuSans-63" x="466.162109"/>
     <use xlink:href="#DejaVuSans-65" x="521.142578"/>
     <use xlink:href="#DejaVuSans-73" x="582.666016"/>
    </g>
   </g>
   <g id="text_17">
    <!-- v2.6 -->
    <g style="fill: #808080" transform="translate(198.292262 294.151352)scale(0.1 -0.1)">
     <use xlink:href="#DejaVuSans-76"/>
     <use xlink:href="#DejaVuSans-32" x="59.179688"/>
     <use xlink:href="#DejaVuSans-2e" x="122.802734"/>
     <use xlink:href="#DejaVuSans-36" x="154.589844"/>
    </g>
   </g>
   <g id="text_18">
    <!-- 18 Schaffer F7, condition 1000 -->
    <g transform="translate(55.170387 21.648)scale(0.2 -0.2)">
     <defs>
      <path id="DejaVuSans-68" d="M 3513 2113 
L 3513 0 
L 2938 0 
L 2938 2094 
Q 2938 2591 2744 2837 
Q 2550 3084 2163 3084 
Q 1697 3084 1428 2787 
Q 1159 2491 1159 1978 
L 1159 0 
L 581 0 
L 581 4863 
L 1159 4863 
L 1159 2956 
Q 1366 3272 1645 3428 
Q 1925 3584 2291 3584 
Q 2894 3584 3203 3211 
Q 3513 2838 3513 2113 
z
" transform="scale(0.015625)"/>
      <path id="DejaVuSans-37" d="M 525 4666 
L 3525 4666 
L 3525 4397 
L 1831 0 
L 1172 0 
L 2766 4134 
L 525 4134 
L 525 4666 
z
" transform="scale(0.015625)"/>
     </defs>
     <use xlink:href="#DejaVuSans-31"/>
     <use xlink:href="#DejaVuSans-38" x="63.623047"/>
     <use xlink:href="#DejaVuSans-20" x="127.246094"/>
     <use xlink:href="#DejaVuSans-53" x="159.033203"/>
     <use xlink:href="#DejaVuSans-63" x="222.509766"/>
     <use xlink:href="#DejaVuSans-68" x="277.490234"/>
     <use xlink:href="#DejaVuSans-61" x="340.869141"/>
     <use xlink:href="#DejaVuSans-66" x="402.148438"/>
     <use xlink:href="#DejaVuSans-66" x="437.353516"/>
     <use xlink:href="#DejaVuSans-65" x="472.558594"/>
     <use xlink:href="#DejaVuSans-72" x="534.082031"/>
     <use xlink:href="#DejaVuSans-20" x="575.195312"/>
     <use xlink:href="#DejaVuSans-46" x="606.982422"/>
     <use xlink:href="#DejaVuSans-37" x="664.501953"/>
     <use xlink:href="#DejaVuSans-2c" x="728.125"/>
     <use xlink:href="#DejaVuSans-20" x="759.912109"/>
     <use xlink:href="#DejaVuSans-63" x="791.699219"/>
     <use xlink:href="#DejaVuSans-6f" x="846.679688"/>
     <use xlink:href="#DejaVuSans-6e" x="907.861328"/>
     <use xlink:href="#DejaVuSans-64" x="971.240234"/>
     <use xlink:href="#DejaVuSans-69" x="1034.716797"/>
     <use xlink:href="#DejaVuSans-74" x="1062.5"/>
     <use xlink:href="#DejaVuSans-69" x="1101.708984"/>
     <use xlink:href="#DejaVuSans-6f" x="1129.492188"/>
     <use xlink:href="#DejaVuSans-6e" x="1190.673828"/>
     <use xlink:href="#DejaVuSans-20" x="1254.052734"/>
     <use xlink:href="#DejaVuSans-31" x="1285.839844"/>
     <use xlink:href="#DejaVuSans-30" x="1349.462891"/>
     <use xlink:href="#DejaVuSans-30" x="1413.085938"/>
     <use xlink:href="#DejaVuSans-30" x="1476.708984"/>
    </g>
   </g>
  </g>
 </g>
 <defs>
  <clipPath id="p0fbc08e11b">
   <rect x="57.6" y="27.648" width="303.2064" height="271.296"/>
  </clipPath>
 </defs>
</svg>
