<?xml version="1.0" encoding="utf-8" standalone="no"?>
<!DOCTYPE svg PUBLIC "-//W3C//DTD SVG 1.1//EN"
  "http://www.w3.org/Graphics/SVG/1.1/DTD/svg11.dtd">
<svg xmlns:xlink="http://www.w3.org/1999/xlink" width="460.8pt" height="345.6pt" viewBox="0 0 460.8 345.6" xmlns="http://www.w3.org/2000/svg" version="1.1">
 <metadata>
  <rdf:RDF xmlns:dc="http://purl.org/dc/elements/1.1/" xmlns:cc="http://creativecommons.org/ns#" xmlns:rdf="http://www.w3.org/1999/02/22-rdf-syntax-ns#">
   <cc:Work>
    <dc:type rdf:resource="http://purl.org/dc/dcmitype/StillImage"/>
    <dc:date>2024-05-29T08:05:38.111683</dc:date>
    <dc:format>image/svg+xml</dc:format>
    <dc:creator>
     <cc:Agent>
      <dc:title>Matplotlib v3.5.1, https://matplotlib.org/</dc:title>
     </cc:Agent>
    </dc:creator>
   </cc:Work>
  </rdf:RDF>
 </metadata>
 <defs>
  <style type="text/css">*{stroke-linejoin: round; stroke-linecap: butt}</style>
 </defs>
 <g id="figure_1">
  <g id="patch_1">
   <path d="M 0 345.6 
L 460.8 345.6 
L 460.8 0 
L 0 0 
z
" style="fill: #ffffff"/>
  </g>
  <g id="axes_1">
   <g id="patch_2">
    <path d="M 57.6 298.944 
L 360.8064 298.944 
L 360.8064 27.648 
L 57.6 27.648 
z
" style="fill: #ffffff"/>
   </g>
   <g id="line2d_1">
    <path d="M 78.266603 298.944 
L 78.266603 293.624471 
L 86.307488 293.624471 
L 86.307488 288.304941 
L 92.519847 288.304941 
L 92.519847 282.985412 
L 108.034177 282.985412 
L 108.034177 277.665882 
L 109.037698 277.665882 
L 109.037698 272.346353 
L 150.985103 272.346353 
L 150.985103 267.026824 
L 157.438121 267.026824 
L 157.438121 261.707294 
L 159.535354 261.707294 
L 159.535354 256.387765 
L 162.05979 256.387765 
L 162.05979 251.068235 
L 166.274957 251.068235 
L 166.274957 245.748706 
L 166.367969 245.748706 
L 166.367969 240.429176 
L 166.518139 240.429176 
L 166.518139 235.109647 
L 166.529641 235.109647 
L 166.529641 229.790118 
L 166.541136 229.790118 
L 166.541136 213.831529 
L 166.564105 213.831529 
L 166.564105 208.512 
L 166.575579 208.512 
L 166.575579 197.872941 
L 166.587046 197.872941 
L 166.587046 192.553412 
L 166.598506 192.553412 
L 166.598506 176.594824 
L 166.609959 176.594824 
L 166.609959 171.275294 
L 166.632844 171.275294 
L 166.632844 165.955765 
L 166.644276 165.955765 
L 166.644276 155.316706 
L 166.655701 155.316706 
L 166.655701 149.997176 
L 166.667119 149.997176 
L 166.667119 139.358118 
L 166.678531 139.358118 
L 166.678531 118.08 
L 166.689935 118.08 
L 166.689935 107.440941 
L 166.701332 107.440941 
L 166.701332 80.843294 
L 166.724107 80.843294 
L 166.724107 64.884706 
L 166.735484 64.884706 
L 166.735484 54.245647 
L 166.746854 54.245647 
L 166.746854 48.926118 
L 166.758217 48.926118 
L 166.758217 32.967529 
L 166.769573 32.967529 
L 166.769573 27.648 
L 360.8064 27.648 
" style="fill: none; stroke: #f5deb3; stroke-width: 4; stroke-linecap: square"/>
   </g>
   <g id="line2d_2">
    <defs>
     <path id="mc2c547a087" d="M 0 7.778175 
L 7.778175 0 
L 0 -7.778175 
L -7.778175 0 
z
" style="stroke: #f5deb3; stroke-width: 1.5; stroke-linejoin: miter"/>
    </defs>
    <g>
     <use xlink:href="#mc2c547a087" x="109.037698" y="272.346353" style="fill: #f5deb3; stroke: #f5deb3; stroke-width: 1.5; stroke-linejoin: miter"/>
     <use xlink:href="#mc2c547a087" x="166.655701" y="155.316706" style="fill: #f5deb3; stroke: #f5deb3; stroke-width: 1.5; stroke-linejoin: miter"/>
     <use xlink:href="#mc2c547a087" x="166.769573" y="32.967529" style="fill: #f5deb3; stroke: #f5deb3; stroke-width: 1.5; stroke-linejoin: miter"/>
     <use xlink:href="#mc2c547a087" x="166.769573" y="27.648" style="fill: #f5deb3; stroke: #f5deb3; stroke-width: 1.5; stroke-linejoin: miter"/>
     <use xlink:href="#mc2c547a087" x="360.8064" y="27.648" style="fill: #f5deb3; stroke: #f5deb3; stroke-width: 1.5; stroke-linejoin: miter"/>
    </g>
   </g>
   <g id="line2d_3">
    <path style="fill: none; stroke: #f5deb3; stroke-width: 4; stroke-linecap: square"/>
    <g/>
   </g>
   <g id="line2d_4">
    <path d="M 360.8064 27.648 
L 380.514816 33.07392 
" style="fill: none; stroke: #f5deb3; stroke-width: 4; stroke-linecap: square"/>
    <g>
     <use xlink:href="#mc2c547a087" x="360.8064" y="27.648" style="fill: #f5deb3; stroke: #f5deb3; stroke-width: 1.5; stroke-linejoin: miter"/>
     <use xlink:href="#mc2c547a087" x="380.514816" y="33.07392" style="fill: #f5deb3; stroke: #f5deb3; stroke-width: 1.5; stroke-linejoin: miter"/>
    </g>
   </g>
   <g id="matplotlib.axis_1">
    <g id="xtick_1">
     <g id="line2d_5">
      <path d="M 57.6 298.944 
L 57.6 27.648 
" clip-path="url(#p22191b00ed)" style="fill: none; stroke: #b0b0b0; stroke-width: 0.8; stroke-linecap: square"/>
     </g>
     <g id="line2d_6">
      <defs>
       <path id="mcf1b0718cb" d="M 0 0 
L 0 3.5 
" style="stroke: #000000; stroke-width: 0.8"/>
      </defs>
      <g>
       <use xlink:href="#mcf1b0718cb" x="57.6" y="298.944" style="stroke: #000000; stroke-width: 0.8"/>
      </g>
     </g>
     <g id="text_1">
      <!-- 0 -->
      <g transform="translate(52.191875 318.861344)scale(0.17 -0.17)">
       <defs>
        <path id="DejaVuSans-30" d="M 2034 4250 
Q 1547 4250 1301 3770 
Q 1056 3291 1056 2328 
Q 1056 1369 1301 889 
Q 1547 409 2034 409 
Q 2525 409 2770 889 
Q 3016 1369 3016 2328 
Q 3016 3291 2770 3770 
Q 2525 4250 2034 4250 
z
M 2034 4750 
Q 2819 4750 3233 4129 
Q 3647 3509 3647 2328 
Q 3647 1150 3233 529 
Q 2819 -91 2034 -91 
Q 1250 -91 836 529 
Q 422 1150 422 2328 
Q 422 3509 836 4129 
Q 1250 4750 2034 4750 
z
" transform="scale(0.015625)"/>
       </defs>
       <use xlink:href="#DejaVuSans-30"/>
      </g>
     </g>
    </g>
    <g id="xtick_2">
     <g id="line2d_7">
      <path d="M 144.2304 298.944 
L 144.2304 27.648 
" clip-path="url(#p22191b00ed)" style="fill: none; stroke: #b0b0b0; stroke-width: 0.8; stroke-linecap: square"/>
     </g>
     <g id="line2d_8">
      <g>
       <use xlink:href="#mcf1b0718cb" x="144.2304" y="298.944" style="stroke: #000000; stroke-width: 0.8"/>
      </g>
     </g>
     <g id="text_2">
      <!-- 2 -->
      <g transform="translate(138.822275 318.861344)scale(0.17 -0.17)">
       <defs>
        <path id="DejaVuSans-32" d="M 1228 531 
L 3431 531 
L 3431 0 
L 469 0 
L 469 531 
Q 828 903 1448 1529 
Q 2069 2156 2228 2338 
Q 2531 2678 2651 2914 
Q 2772 3150 2772 3378 
Q 2772 3750 2511 3984 
Q 2250 4219 1831 4219 
Q 1534 4219 1204 4116 
Q 875 4013 500 3803 
L 500 4441 
Q 881 4594 1212 4672 
Q 1544 4750 1819 4750 
Q 2544 4750 2975 4387 
Q 3406 4025 3406 3419 
Q 3406 3131 3298 2873 
Q 3191 2616 2906 2266 
Q 2828 2175 2409 1742 
Q 1991 1309 1228 531 
z
" transform="scale(0.015625)"/>
       </defs>
       <use xlink:href="#DejaVuSans-32"/>
      </g>
     </g>
    </g>
    <g id="xtick_3">
     <g id="line2d_9">
      <path d="M 230.8608 298.944 
L 230.8608 27.648 
" clip-path="url(#p22191b00ed)" style="fill: none; stroke: #b0b0b0; stroke-width: 0.8; stroke-linecap: square"/>
     </g>
     <g id="line2d_10">
      <g>
       <use xlink:href="#mcf1b0718cb" x="230.8608" y="298.944" style="stroke: #000000; stroke-width: 0.8"/>
      </g>
     </g>
     <g id="text_3">
      <!-- 4 -->
      <g transform="translate(225.452675 318.861344)scale(0.17 -0.17)">
       <defs>
        <path id="DejaVuSans-34" d="M 2419 4116 
L 825 1625 
L 2419 1625 
L 2419 4116 
z
M 2253 4666 
L 3047 4666 
L 3047 1625 
L 3713 1625 
L 3713 1100 
L 3047 1100 
L 3047 0 
L 2419 0 
L 2419 1100 
L 313 1100 
L 313 1709 
L 2253 4666 
z
" transform="scale(0.015625)"/>
       </defs>
       <use xlink:href="#DejaVuSans-34"/>
      </g>
     </g>
    </g>
    <g id="xtick_4">
     <g id="line2d_11">
      <path d="M 317.4912 298.944 
L 317.4912 27.648 
" clip-path="url(#p22191b00ed)" style="fill: none; stroke: #b0b0b0; stroke-width: 0.8; stroke-linecap: square"/>
     </g>
     <g id="line2d_12">
      <g>
       <use xlink:href="#mcf1b0718cb" x="317.4912" y="298.944" style="stroke: #000000; stroke-width: 0.8"/>
      </g>
     </g>
     <g id="text_4">
      <!-- 6 -->
      <g transform="translate(312.083075 318.861344)scale(0.17 -0.17)">
       <defs>
        <path id="DejaVuSans-36" d="M 2113 2584 
Q 1688 2584 1439 2293 
Q 1191 2003 1191 1497 
Q 1191 994 1439 701 
Q 1688 409 2113 409 
Q 2538 409 2786 701 
Q 3034 994 3034 1497 
Q 3034 2003 2786 2293 
Q 2538 2584 2113 2584 
z
M 3366 4563 
L 3366 3988 
Q 3128 4100 2886 4159 
Q 2644 4219 2406 4219 
Q 1781 4219 1451 3797 
Q 1122 3375 1075 2522 
Q 1259 2794 1537 2939 
Q 1816 3084 2150 3084 
Q 2853 3084 3261 2657 
Q 3669 2231 3669 1497 
Q 3669 778 3244 343 
Q 2819 -91 2113 -91 
Q 1303 -91 875 529 
Q 447 1150 447 2328 
Q 447 3434 972 4092 
Q 1497 4750 2381 4750 
Q 2619 4750 2861 4703 
Q 3103 4656 3366 4563 
z
" transform="scale(0.015625)"/>
       </defs>
       <use xlink:href="#DejaVuSans-36"/>
      </g>
     </g>
    </g>
    <g id="xtick_5">
     <g id="line2d_13">
      <path d="M 100.9152 298.944 
L 100.9152 27.648 
" clip-path="url(#p22191b00ed)" style="fill: none; stroke: #b0b0b0; stroke-width: 0.8; stroke-linecap: square"/>
     </g>
     <g id="line2d_14">
      <defs>
       <path id="m5007d05d60" d="M 0 0 
L 0 2 
" style="stroke: #000000; stroke-width: 0.6"/>
      </defs>
      <g>
       <use xlink:href="#m5007d05d60" x="100.9152" y="298.944" style="stroke: #000000; stroke-width: 0.6"/>
      </g>
     </g>
    </g>
    <g id="xtick_6">
     <g id="line2d_15">
      <path d="M 187.5456 298.944 
L 187.5456 27.648 
" clip-path="url(#p22191b00ed)" style="fill: none; stroke: #b0b0b0; stroke-width: 0.8; stroke-linecap: square"/>
     </g>
     <g id="line2d_16">
      <g>
       <use xlink:href="#m5007d05d60" x="187.5456" y="298.944" style="stroke: #000000; stroke-width: 0.6"/>
      </g>
     </g>
    </g>
    <g id="xtick_7">
     <g id="line2d_17">
      <path d="M 274.176 298.944 
L 274.176 27.648 
" clip-path="url(#p22191b00ed)" style="fill: none; stroke: #b0b0b0; stroke-width: 0.8; stroke-linecap: square"/>
     </g>
     <g id="line2d_18">
      <g>
       <use xlink:href="#m5007d05d60" x="274.176" y="298.944" style="stroke: #000000; stroke-width: 0.6"/>
      </g>
     </g>
    </g>
    <g id="xtick_8">
     <g id="line2d_19">
      <path d="M 360.8064 298.944 
L 360.8064 27.648 
" clip-path="url(#p22191b00ed)" style="fill: none; stroke: #b0b0b0; stroke-width: 0.8; stroke-linecap: square"/>
     </g>
     <g id="line2d_20">
      <g>
       <use xlink:href="#m5007d05d60" x="360.8064" y="298.944" style="stroke: #000000; stroke-width: 0.6"/>
      </g>
     </g>
    </g>
    <g id="text_5">
     <!-- log10(# f-evals / dimension) -->
     <g transform="translate(88.823278 339.314156)scale(0.17 -0.17)">
      <defs>
       <path id="DejaVuSans-6c" d="M 603 4863 
L 1178 4863 
L 1178 0 
L 603 0 
L 603 4863 
z
" transform="scale(0.015625)"/>
       <path id="DejaVuSans-6f" d="M 1959 3097 
Q 1497 3097 1228 2736 
Q 959 2375 959 1747 
Q 959 1119 1226 758 
Q 1494 397 1959 397 
Q 2419 397 2687 759 
Q 2956 1122 2956 1747 
Q 2956 2369 2687 2733 
Q 2419 3097 1959 3097 
z
M 1959 3584 
Q 2709 3584 3137 3096 
Q 3566 2609 3566 1747 
Q 3566 888 3137 398 
Q 2709 -91 1959 -91 
Q 1206 -91 779 398 
Q 353 888 353 1747 
Q 353 2609 779 3096 
Q 1206 3584 1959 3584 
z
" transform="scale(0.015625)"/>
       <path id="DejaVuSans-67" d="M 2906 1791 
Q 2906 2416 2648 2759 
Q 2391 3103 1925 3103 
Q 1463 3103 1205 2759 
Q 947 2416 947 1791 
Q 947 1169 1205 825 
Q 1463 481 1925 481 
Q 2391 481 2648 825 
Q 2906 1169 2906 1791 
z
M 3481 434 
Q 3481 -459 3084 -895 
Q 2688 -1331 1869 -1331 
Q 1566 -1331 1297 -1286 
Q 1028 -1241 775 -1147 
L 775 -588 
Q 1028 -725 1275 -790 
Q 1522 -856 1778 -856 
Q 2344 -856 2625 -561 
Q 2906 -266 2906 331 
L 2906 616 
Q 2728 306 2450 153 
Q 2172 0 1784 0 
Q 1141 0 747 490 
Q 353 981 353 1791 
Q 353 2603 747 3093 
Q 1141 3584 1784 3584 
Q 2172 3584 2450 3431 
Q 2728 3278 2906 2969 
L 2906 3500 
L 3481 3500 
L 3481 434 
z
" transform="scale(0.015625)"/>
       <path id="DejaVuSans-31" d="M 794 531 
L 1825 531 
L 1825 4091 
L 703 3866 
L 703 4441 
L 1819 4666 
L 2450 4666 
L 2450 531 
L 3481 531 
L 3481 0 
L 794 0 
L 794 531 
z
" transform="scale(0.015625)"/>
       <path id="DejaVuSans-28" d="M 1984 4856 
Q 1566 4138 1362 3434 
Q 1159 2731 1159 2009 
Q 1159 1288 1364 580 
Q 1569 -128 1984 -844 
L 1484 -844 
Q 1016 -109 783 600 
Q 550 1309 550 2009 
Q 550 2706 781 3412 
Q 1013 4119 1484 4856 
L 1984 4856 
z
" transform="scale(0.015625)"/>
       <path id="DejaVuSans-23" d="M 3272 2816 
L 2363 2816 
L 2100 1772 
L 3016 1772 
L 3272 2816 
z
M 2803 4594 
L 2478 3297 
L 3391 3297 
L 3719 4594 
L 4219 4594 
L 3897 3297 
L 4872 3297 
L 4872 2816 
L 3775 2816 
L 3519 1772 
L 4513 1772 
L 4513 1294 
L 3397 1294 
L 3072 0 
L 2572 0 
L 2894 1294 
L 1978 1294 
L 1656 0 
L 1153 0 
L 1478 1294 
L 494 1294 
L 494 1772 
L 1594 1772 
L 1856 2816 
L 850 2816 
L 850 3297 
L 1978 3297 
L 2297 4594 
L 2803 4594 
z
" transform="scale(0.015625)"/>
       <path id="DejaVuSans-20" transform="scale(0.015625)"/>
       <path id="DejaVuSans-66" d="M 2375 4863 
L 2375 4384 
L 1825 4384 
Q 1516 4384 1395 4259 
Q 1275 4134 1275 3809 
L 1275 3500 
L 2222 3500 
L 2222 3053 
L 1275 3053 
L 1275 0 
L 697 0 
L 697 3053 
L 147 3053 
L 147 3500 
L 697 3500 
L 697 3744 
Q 697 4328 969 4595 
Q 1241 4863 1831 4863 
L 2375 4863 
z
" transform="scale(0.015625)"/>
       <path id="DejaVuSans-2d" d="M 313 2009 
L 1997 2009 
L 1997 1497 
L 313 1497 
L 313 2009 
z
" transform="scale(0.015625)"/>
       <path id="DejaVuSans-65" d="M 3597 1894 
L 3597 1613 
L 953 1613 
Q 991 1019 1311 708 
Q 1631 397 2203 397 
Q 2534 397 2845 478 
Q 3156 559 3463 722 
L 3463 178 
Q 3153 47 2828 -22 
Q 2503 -91 2169 -91 
Q 1331 -91 842 396 
Q 353 884 353 1716 
Q 353 2575 817 3079 
Q 1281 3584 2069 3584 
Q 2775 3584 3186 3129 
Q 3597 2675 3597 1894 
z
M 3022 2063 
Q 3016 2534 2758 2815 
Q 2500 3097 2075 3097 
Q 1594 3097 1305 2825 
Q 1016 2553 972 2059 
L 3022 2063 
z
" transform="scale(0.015625)"/>
       <path id="DejaVuSans-76" d="M 191 3500 
L 800 3500 
L 1894 563 
L 2988 3500 
L 3597 3500 
L 2284 0 
L 1503 0 
L 191 3500 
z
" transform="scale(0.015625)"/>
       <path id="DejaVuSans-61" d="M 2194 1759 
Q 1497 1759 1228 1600 
Q 959 1441 959 1056 
Q 959 750 1161 570 
Q 1363 391 1709 391 
Q 2188 391 2477 730 
Q 2766 1069 2766 1631 
L 2766 1759 
L 2194 1759 
z
M 3341 1997 
L 3341 0 
L 2766 0 
L 2766 531 
Q 2569 213 2275 61 
Q 1981 -91 1556 -91 
Q 1019 -91 701 211 
Q 384 513 384 1019 
Q 384 1609 779 1909 
Q 1175 2209 1959 2209 
L 2766 2209 
L 2766 2266 
Q 2766 2663 2505 2880 
Q 2244 3097 1772 3097 
Q 1472 3097 1187 3025 
Q 903 2953 641 2809 
L 641 3341 
Q 956 3463 1253 3523 
Q 1550 3584 1831 3584 
Q 2591 3584 2966 3190 
Q 3341 2797 3341 1997 
z
" transform="scale(0.015625)"/>
       <path id="DejaVuSans-73" d="M 2834 3397 
L 2834 2853 
Q 2591 2978 2328 3040 
Q 2066 3103 1784 3103 
Q 1356 3103 1142 2972 
Q 928 2841 928 2578 
Q 928 2378 1081 2264 
Q 1234 2150 1697 2047 
L 1894 2003 
Q 2506 1872 2764 1633 
Q 3022 1394 3022 966 
Q 3022 478 2636 193 
Q 2250 -91 1575 -91 
Q 1294 -91 989 -36 
Q 684 19 347 128 
L 347 722 
Q 666 556 975 473 
Q 1284 391 1588 391 
Q 1994 391 2212 530 
Q 2431 669 2431 922 
Q 2431 1156 2273 1281 
Q 2116 1406 1581 1522 
L 1381 1569 
Q 847 1681 609 1914 
Q 372 2147 372 2553 
Q 372 3047 722 3315 
Q 1072 3584 1716 3584 
Q 2034 3584 2315 3537 
Q 2597 3491 2834 3397 
z
" transform="scale(0.015625)"/>
       <path id="DejaVuSans-2f" d="M 1625 4666 
L 2156 4666 
L 531 -594 
L 0 -594 
L 1625 4666 
z
" transform="scale(0.015625)"/>
       <path id="DejaVuSans-64" d="M 2906 2969 
L 2906 4863 
L 3481 4863 
L 3481 0 
L 2906 0 
L 2906 525 
Q 2725 213 2448 61 
Q 2172 -91 1784 -91 
Q 1150 -91 751 415 
Q 353 922 353 1747 
Q 353 2572 751 3078 
Q 1150 3584 1784 3584 
Q 2172 3584 2448 3432 
Q 2725 3281 2906 2969 
z
M 947 1747 
Q 947 1113 1208 752 
Q 1469 391 1925 391 
Q 2381 391 2643 752 
Q 2906 1113 2906 1747 
Q 2906 2381 2643 2742 
Q 2381 3103 1925 3103 
Q 1469 3103 1208 2742 
Q 947 2381 947 1747 
z
" transform="scale(0.015625)"/>
       <path id="DejaVuSans-69" d="M 603 3500 
L 1178 3500 
L 1178 0 
L 603 0 
L 603 3500 
z
M 603 4863 
L 1178 4863 
L 1178 4134 
L 603 4134 
L 603 4863 
z
" transform="scale(0.015625)"/>
       <path id="DejaVuSans-6d" d="M 3328 2828 
Q 3544 3216 3844 3400 
Q 4144 3584 4550 3584 
Q 5097 3584 5394 3201 
Q 5691 2819 5691 2113 
L 5691 0 
L 5113 0 
L 5113 2094 
Q 5113 2597 4934 2840 
Q 4756 3084 4391 3084 
Q 3944 3084 3684 2787 
Q 3425 2491 3425 1978 
L 3425 0 
L 2847 0 
L 2847 2094 
Q 2847 2600 2669 2842 
Q 2491 3084 2119 3084 
Q 1678 3084 1418 2786 
Q 1159 2488 1159 1978 
L 1159 0 
L 581 0 
L 581 3500 
L 1159 3500 
L 1159 2956 
Q 1356 3278 1631 3431 
Q 1906 3584 2284 3584 
Q 2666 3584 2933 3390 
Q 3200 3197 3328 2828 
z
" transform="scale(0.015625)"/>
       <path id="DejaVuSans-6e" d="M 3513 2113 
L 3513 0 
L 2938 0 
L 2938 2094 
Q 2938 2591 2744 2837 
Q 2550 3084 2163 3084 
Q 1697 3084 1428 2787 
Q 1159 2491 1159 1978 
L 1159 0 
L 581 0 
L 581 3500 
L 1159 3500 
L 1159 2956 
Q 1366 3272 1645 3428 
Q 1925 3584 2291 3584 
Q 2894 3584 3203 3211 
Q 3513 2838 3513 2113 
z
" transform="scale(0.015625)"/>
       <path id="DejaVuSans-29" d="M 513 4856 
L 1013 4856 
Q 1481 4119 1714 3412 
Q 1947 2706 1947 2009 
Q 1947 1309 1714 600 
Q 1481 -109 1013 -844 
L 513 -844 
Q 928 -128 1133 580 
Q 1338 1288 1338 2009 
Q 1338 2731 1133 3434 
Q 928 4138 513 4856 
z
" transform="scale(0.015625)"/>
      </defs>
      <use xlink:href="#DejaVuSans-6c"/>
      <use xlink:href="#DejaVuSans-6f" x="27.783203"/>
      <use xlink:href="#DejaVuSans-67" x="88.964844"/>
      <use xlink:href="#DejaVuSans-31" x="152.441406"/>
      <use xlink:href="#DejaVuSans-30" x="216.064453"/>
      <use xlink:href="#DejaVuSans-28" x="279.6875"/>
      <use xlink:href="#DejaVuSans-23" x="318.701172"/>
      <use xlink:href="#DejaVuSans-20" x="402.490234"/>
      <use xlink:href="#DejaVuSans-66" x="434.277344"/>
      <use xlink:href="#DejaVuSans-2d" x="463.982422"/>
      <use xlink:href="#DejaVuSans-65" x="500.066406"/>
      <use xlink:href="#DejaVuSans-76" x="561.589844"/>
      <use xlink:href="#DejaVuSans-61" x="620.769531"/>
      <use xlink:href="#DejaVuSans-6c" x="682.048828"/>
      <use xlink:href="#DejaVuSans-73" x="709.832031"/>
      <use xlink:href="#DejaVuSans-20" x="761.931641"/>
      <use xlink:href="#DejaVuSans-2f" x="793.71875"/>
      <use xlink:href="#DejaVuSans-20" x="827.410156"/>
      <use xlink:href="#DejaVuSans-64" x="859.197266"/>
      <use xlink:href="#DejaVuSans-69" x="922.673828"/>
      <use xlink:href="#DejaVuSans-6d" x="950.457031"/>
      <use xlink:href="#DejaVuSans-65" x="1047.869141"/>
      <use xlink:href="#DejaVuSans-6e" x="1109.392578"/>
      <use xlink:href="#DejaVuSans-73" x="1172.771484"/>
      <use xlink:href="#DejaVuSans-69" x="1224.871094"/>
      <use xlink:href="#DejaVuSans-6f" x="1252.654297"/>
      <use xlink:href="#DejaVuSans-6e" x="1313.835938"/>
      <use xlink:href="#DejaVuSans-29" x="1377.214844"/>
     </g>
    </g>
   </g>
   <g id="matplotlib.axis_2">
    <g id="ytick_1">
     <g id="line2d_21">
      <path d="M 57.6 298.944 
L 360.8064 298.944 
" clip-path="url(#p22191b00ed)" style="fill: none; stroke: #b0b0b0; stroke-width: 0.8; stroke-linecap: square"/>
     </g>
     <g id="line2d_22">
      <defs>
       <path id="mf97fcba9cd" d="M 0 0 
L -3.5 0 
" style="stroke: #000000; stroke-width: 0.8"/>
      </defs>
      <g>
       <use xlink:href="#mf97fcba9cd" x="57.6" y="298.944" style="stroke: #000000; stroke-width: 0.8"/>
      </g>
     </g>
     <g id="text_6">
      <!-- 0.0 -->
      <g transform="translate(25.155 305.02275)scale(0.16 -0.16)">
       <defs>
        <path id="DejaVuSans-2e" d="M 684 794 
L 1344 794 
L 1344 0 
L 684 0 
L 684 794 
z
" transform="scale(0.015625)"/>
       </defs>
       <use xlink:href="#DejaVuSans-30"/>
       <use xlink:href="#DejaVuSans-2e" x="63.623047"/>
       <use xlink:href="#DejaVuSans-30" x="95.410156"/>
      </g>
     </g>
    </g>
    <g id="ytick_2">
     <g id="line2d_23">
      <path d="M 57.6 244.6848 
L 360.8064 244.6848 
" clip-path="url(#p22191b00ed)" style="fill: none; stroke: #b0b0b0; stroke-width: 0.8; stroke-linecap: square"/>
     </g>
     <g id="line2d_24">
      <g>
       <use xlink:href="#mf97fcba9cd" x="57.6" y="244.6848" style="stroke: #000000; stroke-width: 0.8"/>
      </g>
     </g>
     <g id="text_7">
      <!-- 0.2 -->
      <g transform="translate(25.155 250.76355)scale(0.16 -0.16)">
       <use xlink:href="#DejaVuSans-30"/>
       <use xlink:href="#DejaVuSans-2e" x="63.623047"/>
       <use xlink:href="#DejaVuSans-32" x="95.410156"/>
      </g>
     </g>
    </g>
    <g id="ytick_3">
     <g id="line2d_25">
      <path d="M 57.6 190.4256 
L 360.8064 190.4256 
" clip-path="url(#p22191b00ed)" style="fill: none; stroke: #b0b0b0; stroke-width: 0.8; stroke-linecap: square"/>
     </g>
     <g id="line2d_26">
      <g>
       <use xlink:href="#mf97fcba9cd" x="57.6" y="190.4256" style="stroke: #000000; stroke-width: 0.8"/>
      </g>
     </g>
     <g id="text_8">
      <!-- 0.4 -->
      <g transform="translate(25.155 196.50435)scale(0.16 -0.16)">
       <use xlink:href="#DejaVuSans-30"/>
       <use xlink:href="#DejaVuSans-2e" x="63.623047"/>
       <use xlink:href="#DejaVuSans-34" x="95.410156"/>
      </g>
     </g>
    </g>
    <g id="ytick_4">
     <g id="line2d_27">
      <path d="M 57.6 136.1664 
L 360.8064 136.1664 
" clip-path="url(#p22191b00ed)" style="fill: none; stroke: #b0b0b0; stroke-width: 0.8; stroke-linecap: square"/>
     </g>
     <g id="line2d_28">
      <g>
       <use xlink:href="#mf97fcba9cd" x="57.6" y="136.1664" style="stroke: #000000; stroke-width: 0.8"/>
      </g>
     </g>
     <g id="text_9">
      <!-- 0.6 -->
      <g transform="translate(25.155 142.24515)scale(0.16 -0.16)">
       <use xlink:href="#DejaVuSans-30"/>
       <use xlink:href="#DejaVuSans-2e" x="63.623047"/>
       <use xlink:href="#DejaVuSans-36" x="95.410156"/>
      </g>
     </g>
    </g>
    <g id="ytick_5">
     <g id="line2d_29">
      <path d="M 57.6 81.9072 
L 360.8064 81.9072 
" clip-path="url(#p22191b00ed)" style="fill: none; stroke: #b0b0b0; stroke-width: 0.8; stroke-linecap: square"/>
     </g>
     <g id="line2d_30">
      <g>
       <use xlink:href="#mf97fcba9cd" x="57.6" y="81.9072" style="stroke: #000000; stroke-width: 0.8"/>
      </g>
     </g>
     <g id="text_10">
      <!-- 0.8 -->
      <g transform="translate(25.155 87.98595)scale(0.16 -0.16)">
       <defs>
        <path id="DejaVuSans-38" d="M 2034 2216 
Q 1584 2216 1326 1975 
Q 1069 1734 1069 1313 
Q 1069 891 1326 650 
Q 1584 409 2034 409 
Q 2484 409 2743 651 
Q 3003 894 3003 1313 
Q 3003 1734 2745 1975 
Q 2488 2216 2034 2216 
z
M 1403 2484 
Q 997 2584 770 2862 
Q 544 3141 544 3541 
Q 544 4100 942 4425 
Q 1341 4750 2034 4750 
Q 2731 4750 3128 4425 
Q 3525 4100 3525 3541 
Q 3525 3141 3298 2862 
Q 3072 2584 2669 2484 
Q 3125 2378 3379 2068 
Q 3634 1759 3634 1313 
Q 3634 634 3220 271 
Q 2806 -91 2034 -91 
Q 1263 -91 848 271 
Q 434 634 434 1313 
Q 434 1759 690 2068 
Q 947 2378 1403 2484 
z
M 1172 3481 
Q 1172 3119 1398 2916 
Q 1625 2713 2034 2713 
Q 2441 2713 2670 2916 
Q 2900 3119 2900 3481 
Q 2900 3844 2670 4047 
Q 2441 4250 2034 4250 
Q 1625 4250 1398 4047 
Q 1172 3844 1172 3481 
z
" transform="scale(0.015625)"/>
       </defs>
       <use xlink:href="#DejaVuSans-30"/>
       <use xlink:href="#DejaVuSans-2e" x="63.623047"/>
       <use xlink:href="#DejaVuSans-38" x="95.410156"/>
      </g>
     </g>
    </g>
    <g id="ytick_6">
     <g id="line2d_31">
      <path d="M 57.6 27.648 
L 360.8064 27.648 
" clip-path="url(#p22191b00ed)" style="fill: none; stroke: #b0b0b0; stroke-width: 0.8; stroke-linecap: square"/>
     </g>
     <g id="line2d_32">
      <g>
       <use xlink:href="#mf97fcba9cd" x="57.6" y="27.648" style="stroke: #000000; stroke-width: 0.8"/>
      </g>
     </g>
     <g id="text_11">
      <!-- 1.0 -->
      <g transform="translate(25.155 33.72675)scale(0.16 -0.16)">
       <use xlink:href="#DejaVuSans-31"/>
       <use xlink:href="#DejaVuSans-2e" x="63.623047"/>
       <use xlink:href="#DejaVuSans-30" x="95.410156"/>
      </g>
     </g>
    </g>
    <g id="text_12">
     <!-- Fraction of function,target pairs -->
     <g transform="translate(17.619531 297.681)rotate(-90)scale(0.17 -0.17)">
      <defs>
       <path id="DejaVuSans-46" d="M 628 4666 
L 3309 4666 
L 3309 4134 
L 1259 4134 
L 1259 2759 
L 3109 2759 
L 3109 2228 
L 1259 2228 
L 1259 0 
L 628 0 
L 628 4666 
z
" transform="scale(0.015625)"/>
       <path id="DejaVuSans-72" d="M 2631 2963 
Q 2534 3019 2420 3045 
Q 2306 3072 2169 3072 
Q 1681 3072 1420 2755 
Q 1159 2438 1159 1844 
L 1159 0 
L 581 0 
L 581 3500 
L 1159 3500 
L 1159 2956 
Q 1341 3275 1631 3429 
Q 1922 3584 2338 3584 
Q 2397 3584 2469 3576 
Q 2541 3569 2628 3553 
L 2631 2963 
z
" transform="scale(0.015625)"/>
       <path id="DejaVuSans-63" d="M 3122 3366 
L 3122 2828 
Q 2878 2963 2633 3030 
Q 2388 3097 2138 3097 
Q 1578 3097 1268 2742 
Q 959 2388 959 1747 
Q 959 1106 1268 751 
Q 1578 397 2138 397 
Q 2388 397 2633 464 
Q 2878 531 3122 666 
L 3122 134 
Q 2881 22 2623 -34 
Q 2366 -91 2075 -91 
Q 1284 -91 818 406 
Q 353 903 353 1747 
Q 353 2603 823 3093 
Q 1294 3584 2113 3584 
Q 2378 3584 2631 3529 
Q 2884 3475 3122 3366 
z
" transform="scale(0.015625)"/>
       <path id="DejaVuSans-74" d="M 1172 4494 
L 1172 3500 
L 2356 3500 
L 2356 3053 
L 1172 3053 
L 1172 1153 
Q 1172 725 1289 603 
Q 1406 481 1766 481 
L 2356 481 
L 2356 0 
L 1766 0 
Q 1100 0 847 248 
Q 594 497 594 1153 
L 594 3053 
L 172 3053 
L 172 3500 
L 594 3500 
L 594 4494 
L 1172 4494 
z
" transform="scale(0.015625)"/>
       <path id="DejaVuSans-75" d="M 544 1381 
L 544 3500 
L 1119 3500 
L 1119 1403 
Q 1119 906 1312 657 
Q 1506 409 1894 409 
Q 2359 409 2629 706 
Q 2900 1003 2900 1516 
L 2900 3500 
L 3475 3500 
L 3475 0 
L 2900 0 
L 2900 538 
Q 2691 219 2414 64 
Q 2138 -91 1772 -91 
Q 1169 -91 856 284 
Q 544 659 544 1381 
z
M 1991 3584 
L 1991 3584 
z
" transform="scale(0.015625)"/>
       <path id="DejaVuSans-2c" d="M 750 794 
L 1409 794 
L 1409 256 
L 897 -744 
L 494 -744 
L 750 256 
L 750 794 
z
" transform="scale(0.015625)"/>
       <path id="DejaVuSans-70" d="M 1159 525 
L 1159 -1331 
L 581 -1331 
L 581 3500 
L 1159 3500 
L 1159 2969 
Q 1341 3281 1617 3432 
Q 1894 3584 2278 3584 
Q 2916 3584 3314 3078 
Q 3713 2572 3713 1747 
Q 3713 922 3314 415 
Q 2916 -91 2278 -91 
Q 1894 -91 1617 61 
Q 1341 213 1159 525 
z
M 3116 1747 
Q 3116 2381 2855 2742 
Q 2594 3103 2138 3103 
Q 1681 3103 1420 2742 
Q 1159 2381 1159 1747 
Q 1159 1113 1420 752 
Q 1681 391 2138 391 
Q 2594 391 2855 752 
Q 3116 1113 3116 1747 
z
" transform="scale(0.015625)"/>
      </defs>
      <use xlink:href="#DejaVuSans-46"/>
      <use xlink:href="#DejaVuSans-72" x="50.269531"/>
      <use xlink:href="#DejaVuSans-61" x="91.382812"/>
      <use xlink:href="#DejaVuSans-63" x="152.662109"/>
      <use xlink:href="#DejaVuSans-74" x="207.642578"/>
      <use xlink:href="#DejaVuSans-69" x="246.851562"/>
      <use xlink:href="#DejaVuSans-6f" x="274.634766"/>
      <use xlink:href="#DejaVuSans-6e" x="335.816406"/>
      <use xlink:href="#DejaVuSans-20" x="399.195312"/>
      <use xlink:href="#DejaVuSans-6f" x="430.982422"/>
      <use xlink:href="#DejaVuSans-66" x="492.164062"/>
      <use xlink:href="#DejaVuSans-20" x="527.369141"/>
      <use xlink:href="#DejaVuSans-66" x="559.15625"/>
      <use xlink:href="#DejaVuSans-75" x="594.361328"/>
      <use xlink:href="#DejaVuSans-6e" x="657.740234"/>
      <use xlink:href="#DejaVuSans-63" x="721.119141"/>
      <use xlink:href="#DejaVuSans-74" x="776.099609"/>
      <use xlink:href="#DejaVuSans-69" x="815.308594"/>
      <use xlink:href="#DejaVuSans-6f" x="843.091797"/>
      <use xlink:href="#DejaVuSans-6e" x="904.273438"/>
      <use xlink:href="#DejaVuSans-2c" x="967.652344"/>
      <use xlink:href="#DejaVuSans-74" x="999.439453"/>
      <use xlink:href="#DejaVuSans-61" x="1038.648438"/>
      <use xlink:href="#DejaVuSans-72" x="1099.927734"/>
      <use xlink:href="#DejaVuSans-67" x="1139.291016"/>
      <use xlink:href="#DejaVuSans-65" x="1202.767578"/>
      <use xlink:href="#DejaVuSans-74" x="1264.291016"/>
      <use xlink:href="#DejaVuSans-20" x="1303.5"/>
      <use xlink:href="#DejaVuSans-70" x="1335.287109"/>
      <use xlink:href="#DejaVuSans-61" x="1398.763672"/>
      <use xlink:href="#DejaVuSans-69" x="1460.042969"/>
      <use xlink:href="#DejaVuSans-72" x="1487.826172"/>
      <use xlink:href="#DejaVuSans-73" x="1528.939453"/>
     </g>
    </g>
   </g>
   <g id="line2d_33">
    <defs>
     <path id="m576b3ff163" d="M 0 1.5 
C 0.397805 1.5 0.77937 1.341951 1.06066 1.06066 
C 1.341951 0.77937 1.5 0.397805 1.5 0 
C 1.5 -0.397805 1.341951 -0.77937 1.06066 -1.06066 
C 0.77937 -1.341951 0.397805 -1.5 0 -1.5 
C -0.397805 -1.5 -0.77937 -1.341951 -1.06066 -1.06066 
C -1.341951 -0.77937 -1.5 -0.397805 -1.5 0 
C -1.5 0.397805 -1.341951 0.77937 -1.06066 1.06066 
C -0.77937 1.341951 -0.397805 1.5 0 1.5 
z
" style="stroke: #f5deb3"/>
    </defs>
    <g>
     <use xlink:href="#m576b3ff163" x="166.769573" y="27.648" style="fill: #f5deb3; stroke: #f5deb3"/>
     <use xlink:href="#m576b3ff163" x="166.769573" y="27.648" style="fill: #f5deb3; stroke: #f5deb3"/>
    </g>
   </g>
   <g id="line2d_34">
    <defs>
     <path id="mff2eb98d2c" d="M 0 1.5 
C 0.397805 1.5 0.77937 1.341951 1.06066 1.06066 
C 1.341951 0.77937 1.5 0.397805 1.5 0 
C 1.5 -0.397805 1.341951 -0.77937 1.06066 -1.06066 
C 0.77937 -1.341951 0.397805 -1.5 0 -1.5 
C -0.397805 -1.5 -0.77937 -1.341951 -1.06066 -1.06066 
C -1.341951 -0.77937 -1.5 -0.397805 -1.5 0 
C -1.5 0.397805 -1.341951 0.77937 -1.06066 1.06066 
C -0.77937 1.341951 -0.397805 1.5 0 1.5 
z
" style="stroke: #000080"/>
    </defs>
    <g>
     <use xlink:href="#mff2eb98d2c" x="234.585759" y="27.648" style="fill: #000080; stroke: #000080"/>
     <use xlink:href="#mff2eb98d2c" x="234.585759" y="27.648" style="fill: #000080; stroke: #000080"/>
    </g>
   </g>
   <g id="line2d_35">
    <path d="M 40.363149 298.944 
L 40.363149 297.880094 
L 47.990577 297.880094 
L 47.990577 297.525459 
L 66.441498 297.525459 
L 66.441498 297.170824 
L 75.574654 297.170824 
L 75.574654 296.816188 
L 85.471281 296.816188 
L 85.471281 295.397647 
L 87.1081 295.397647 
L 87.1081 295.043012 
L 87.876026 295.043012 
L 87.876026 294.688376 
L 97.18203 294.688376 
L 97.18203 294.333741 
L 99.346662 294.333741 
L 99.346662 293.979106 
L 99.751228 293.979106 
L 99.751228 293.624471 
L 100.535156 293.624471 
L 100.535156 293.269835 
L 105.850679 293.269835 
L 105.850679 292.9152 
L 107.244765 292.9152 
L 107.244765 292.560565 
L 110.221204 292.560565 
L 110.221204 292.205929 
L 113.57433 292.205929 
L 113.57433 291.851294 
L 123.601383 291.851294 
L 123.601383 291.496659 
L 125.425011 291.496659 
L 125.425011 291.142024 
L 128.700779 291.142024 
L 128.700779 290.432753 
L 131.856536 290.432753 
L 131.856536 290.078118 
L 132.915628 290.078118 
L 132.915628 289.723482 
L 134.620977 289.723482 
L 134.620977 289.368847 
L 134.87014 289.368847 
L 134.87014 289.014212 
L 138.566146 289.014212 
L 138.566146 288.659576 
L 139.843661 288.659576 
L 139.843661 287.950306 
L 144.305496 287.950306 
L 144.305496 287.595671 
L 144.931992 287.595671 
L 144.931992 287.241035 
L 145.184016 287.241035 
L 145.291002 285.822494 
L 145.397382 285.822494 
L 145.397382 285.467859 
L 145.573357 285.467859 
L 145.573357 285.113224 
L 146.159649 285.113224 
L 146.159649 284.758588 
L 146.595975 284.758588 
L 146.662213 284.049318 
L 146.892226 284.049318 
L 146.892226 283.694682 
L 147.216013 283.694682 
L 147.280107 282.630776 
L 147.502732 282.630776 
L 147.565858 281.921506 
L 148.607806 281.921506 
L 148.607806 281.212235 
L 149.252502 281.212235 
L 149.31003 280.148329 
L 149.395993 280.148329 
L 149.395993 279.793694 
L 149.79204 279.793694 
L 149.79204 279.439059 
L 149.98698 279.439059 
L 150.097474 278.729788 
L 150.124997 278.729788 
L 150.207323 277.665882 
L 150.425115 277.665882 
L 150.533072 276.601976 
L 150.559965 276.601976 
L 150.640414 275.892706 
L 150.958812 275.892706 
L 150.985103 275.183435 
L 151.50336 275.183435 
L 151.50336 274.8288 
L 151.857828 274.8288 
L 151.857828 274.474165 
L 152.230346 274.474165 
L 152.25492 273.764894 
L 152.377312 273.764894 
L 152.474656 272.346353 
L 153.165721 272.346353 
L 153.165721 271.991718 
L 153.627945 271.991718 
L 153.627945 271.282447 
L 153.854866 271.282447 
L 153.854866 270.927812 
L 154.432362 270.927812 
L 154.454223 270.218541 
L 157.250754 270.218541 
L 157.250754 269.863906 
L 159.181837 269.863906 
L 159.181837 269.509271 
L 159.717911 269.509271 
L 159.717911 269.154635 
L 161.041081 269.154635 
L 161.041081 268.8 
L 161.209658 268.8 
L 161.209658 268.445365 
L 161.391854 268.445365 
L 161.391854 268.090729 
L 162.349204 268.090729 
L 162.349204 267.736094 
L 163.504846 267.736094 
L 163.558786 267.026824 
L 163.773012 267.026824 
L 163.786321 265.962918 
L 164.427166 265.962918 
L 164.427166 265.608282 
L 164.606324 265.608282 
L 164.606324 265.253647 
L 165.133786 265.253647 
L 165.133786 264.899012 
L 166.437427 264.899012 
L 166.437427 264.189741 
L 167.372845 264.189741 
L 167.372845 263.835106 
L 168.116567 263.835106 
L 168.148245 263.125835 
L 169.014245 263.125835 
L 169.014245 262.7712 
L 169.696937 262.7712 
L 169.696937 262.416565 
L 169.832482 262.416565 
L 169.899889 261.707294 
L 169.967056 261.707294 
L 169.995769 260.998024 
L 170.430628 260.998024 
L 170.430628 260.643388 
L 170.809925 260.643388 
L 170.809925 260.288753 
L 171.055593 260.288753 
L 171.055593 259.934118 
L 171.422616 259.934118 
L 171.422616 259.579482 
L 172.212513 259.579482 
L 172.212513 259.224847 
L 172.449034 259.224847 
L 172.449034 258.870212 
L 172.649425 258.870212 
L 172.649425 258.515576 
L 173.987664 258.515576 
L 173.987664 258.160941 
L 174.834629 258.160941 
L 174.834629 257.806306 
L 175.003938 257.806306 
L 175.003938 257.451671 
L 176.072254 257.451671 
L 176.072254 257.097035 
L 176.718763 257.097035 
L 176.745503 255.678494 
L 177.056883 255.678494 
L 177.056883 255.323859 
L 180.477871 255.323859 
L 180.477871 254.969224 
L 180.771383 254.969224 
L 180.771383 254.614588 
L 181.176866 254.614588 
L 181.234837 253.550682 
L 181.376377 253.550682 
L 181.376377 253.196047 
L 182.303643 253.196047 
L 182.36816 252.486776 
L 182.447262 252.486776 
L 182.447262 251.777506 
L 182.90539 251.777506 
L 182.90539 251.068235 
L 183.632634 251.068235 
L 183.632634 250.7136 
L 184.314946 250.7136 
L 184.314946 250.358965 
L 185.382986 250.358965 
L 185.382986 249.649694 
L 185.725936 249.649694 
L 185.725936 248.940424 
L 186.261169 248.940424 
L 186.261169 248.231153 
L 186.417615 248.231153 
L 186.47346 246.812612 
L 186.580694 246.812612 
L 186.66762 245.748706 
L 187.523013 245.748706 
L 187.620696 244.6848 
L 187.947603 244.6848 
L 187.947603 244.330165 
L 188.705509 244.330165 
L 188.705509 243.620894 
L 188.972443 243.620894 
L 188.972443 243.266259 
L 190.595307 243.266259 
L 190.659184 241.847718 
L 191.507031 241.847718 
L 191.507031 241.138447 
L 191.923006 241.138447 
L 191.923006 240.783812 
L 192.056685 240.783812 
L 192.157061 238.656 
L 192.492652 238.656 
L 192.590734 236.173553 
L 192.896109 236.173553 
L 192.896109 235.818918 
L 193.291095 235.818918 
L 193.291095 235.464282 
L 193.530736 235.464282 
L 193.530736 235.109647 
L 193.713228 235.109647 
L 193.713228 234.755012 
L 193.880539 234.755012 
L 193.880539 234.400376 
L 194.255586 234.400376 
L 194.255586 232.6272 
L 194.407716 232.6272 
L 194.407716 231.563294 
L 194.607799 231.563294 
L 194.607799 230.854024 
L 194.751989 230.854024 
L 194.751989 230.499388 
L 195.288053 230.499388 
L 195.288053 229.790118 
L 195.599567 229.790118 
L 195.599567 229.435482 
L 195.84318 229.435482 
L 195.84318 228.016941 
L 196.382394 228.016941 
L 196.382394 227.307671 
L 196.750392 227.307671 
L 196.759616 226.243765 
L 196.89743 226.243765 
L 196.952274 223.761318 
L 197.10454 223.761318 
L 197.109067 222.342776 
L 197.309395 222.342776 
L 197.403196 220.924235 
L 197.834855 220.924235 
L 197.841385 220.214965 
L 199.124297 220.214965 
L 199.124297 219.860329 
L 199.77369 219.860329 
L 199.77369 219.151059 
L 200.336715 219.151059 
L 200.338621 217.377882 
L 200.825892 217.377882 
L 200.825892 217.023247 
L 200.962825 217.023247 
L 200.962825 216.668612 
L 201.208276 216.668612 
L 201.313531 215.250071 
L 201.337042 215.250071 
L 201.337042 214.895435 
L 201.987189 214.895435 
L 201.987189 214.5408 
L 202.186917 214.5408 
L 202.233504 213.831529 
L 202.406757 213.831529 
L 202.44258 213.122259 
L 202.795439 213.122259 
L 202.895527 212.058353 
L 203.024851 212.058353 
L 203.105641 210.285176 
L 203.690385 210.285176 
L 203.768372 208.512 
L 203.866589 208.512 
L 203.887118 207.448094 
L 204.212569 207.448094 
L 204.212569 207.093459 
L 204.35936 207.093459 
L 204.35936 206.029553 
L 204.611621 206.029553 
L 204.688914 204.611012 
L 204.747806 204.611012 
L 204.747806 203.901741 
L 205.075128 203.901741 
L 205.075128 203.547106 
L 205.952262 203.547106 
L 205.952262 202.4832 
L 206.395301 202.4832 
L 206.476621 200.355388 
L 206.688596 200.355388 
L 206.688596 198.582212 
L 206.878025 198.582212 
L 206.878025 197.872941 
L 206.992112 197.872941 
L 206.992112 197.518306 
L 207.17985 197.518306 
L 207.17985 197.163671 
L 207.5978 197.163671 
L 207.62499 196.4544 
L 207.750079 196.4544 
L 207.782184 194.681224 
L 208.232258 194.681224 
L 208.282302 189.361694 
L 208.472501 189.361694 
L 208.508336 184.3968 
L 208.593325 184.3968 
L 208.633837 183.687529 
L 209.427448 183.687529 
L 209.427448 181.914353 
L 209.78726 181.914353 
L 209.810314 180.850447 
L 210.219388 180.850447 
L 210.283528 179.786541 
L 210.474646 179.786541 
L 210.531272 176.949459 
L 210.830433 176.949459 
L 210.840251 176.240188 
L 210.972835 176.240188 
L 210.991235 175.176282 
L 211.143164 175.176282 
L 211.204235 170.566024 
L 211.516124 170.566024 
L 211.573901 166.665035 
L 211.805321 166.665035 
L 211.805321 166.3104 
L 211.998072 166.3104 
L 212.055411 165.601129 
L 212.227403 165.601129 
L 212.335489 163.473318 
L 212.597557 163.473318 
L 212.636257 161.700141 
L 212.791248 161.700141 
L 212.791248 161.345506 
L 213.128378 161.345506 
L 213.160219 160.2816 
L 213.318618 160.2816 
L 213.318618 158.863059 
L 213.506008 158.863059 
L 213.526819 157.799153 
L 213.746763 157.799153 
L 213.807405 155.316706 
L 213.864137 155.316706 
L 213.864137 154.962071 
L 213.998311 154.962071 
L 214.107716 152.479624 
L 214.172689 152.479624 
L 214.172689 152.124988 
L 215.012391 152.124988 
L 215.119544 147.514729 
L 215.419446 147.514729 
L 215.519211 145.741553 
L 215.969607 145.741553 
L 215.969607 145.386918 
L 216.221163 145.386918 
L 216.221163 144.323012 
L 216.752671 144.323012 
L 216.851174 143.259106 
L 217.008184 143.259106 
L 217.055268 142.549835 
L 217.370809 142.549835 
L 217.418533 141.485929 
L 217.62344 141.485929 
L 217.62344 140.776659 
L 217.813347 140.776659 
L 217.889975 138.294212 
L 218.007317 138.294212 
L 218.007317 137.939576 
L 218.465134 137.939576 
L 218.544228 135.457129 
L 218.697834 135.457129 
L 218.745893 131.556141 
L 218.914914 131.556141 
L 218.953923 125.881976 
L 219.060604 125.881976 
L 219.066944 123.044894 
L 219.184889 123.044894 
L 219.29236 120.562447 
L 219.314615 120.562447 
L 219.368058 119.143906 
L 219.456563 119.143906 
L 219.556323 117.016094 
L 219.609085 117.016094 
L 219.673977 114.179012 
L 219.897668 114.179012 
L 219.975672 113.469741 
L 220.124724 113.469741 
L 220.163962 111.696565 
L 220.376681 111.696565 
L 220.376681 110.987294 
L 220.575975 110.987294 
L 220.627902 108.504847 
L 220.961336 108.504847 
L 221.017925 107.440941 
L 221.24636 107.440941 
L 221.29084 103.185318 
L 221.637415 103.185318 
L 221.650311 102.476047 
L 221.800117 102.476047 
L 221.812902 99.638965 
L 222.291224 99.638965 
L 222.39005 98.575059 
L 222.412465 98.575059 
L 222.487772 96.092612 
L 222.600171 96.092612 
L 222.674733 95.028706 
L 222.751895 95.028706 
L 222.849488 89.354541 
L 222.863307 89.354541 
L 222.863307 88.645271 
L 223.269268 88.645271 
L 223.310342 87.581365 
L 223.454792 87.581365 
L 223.565457 84.035012 
L 223.600356 84.035012 
L 223.600356 83.680376 
L 223.867971 83.680376 
L 223.867971 83.325741 
L 224.219326 83.325741 
L 224.309614 82.616471 
L 224.420145 82.616471 
L 224.458255 80.134024 
L 224.535298 80.134024 
L 224.636136 78.715482 
L 224.667538 78.715482 
L 224.70515 74.459859 
L 224.942148 74.459859 
L 225.02391 72.686682 
L 225.130845 72.686682 
L 225.130845 72.332047 
L 225.329787 72.332047 
L 225.331302 71.622776 
L 225.543127 71.622776 
L 225.612379 68.431059 
L 225.672953 68.431059 
L 225.77282 64.884706 
L 225.787607 64.884706 
L 225.816653 63.466165 
L 226.073647 63.466165 
L 226.073647 63.111529 
L 226.203249 63.111529 
L 226.272038 60.983718 
L 226.405531 60.983718 
L 226.405531 59.919812 
L 226.583004 59.919812 
L 226.583004 59.565176 
L 226.85915 59.565176 
L 226.85915 59.210541 
L 227.062825 59.210541 
L 227.137262 53.891012 
L 227.30845 53.891012 
L 227.408612 52.827106 
L 227.509592 52.827106 
L 227.509592 52.472471 
L 227.681004 52.472471 
L 227.756146 51.053929 
L 227.906857 51.053929 
L 227.988118 50.344659 
L 228.074703 50.344659 
L 228.164365 46.089035 
L 228.190833 46.089035 
L 228.190833 45.7344 
L 228.329939 45.7344 
L 228.372501 44.670494 
L 228.462895 44.670494 
L 228.500041 43.606588 
L 228.608918 43.606588 
L 228.715061 41.478776 
L 228.734449 41.478776 
L 228.783671 40.769506 
L 228.849939 40.769506 
L 228.956399 34.031435 
L 228.985934 34.031435 
L 229.000477 32.967529 
L 229.259109 32.967529 
L 229.259109 32.612894 
L 229.612186 32.612894 
L 229.612186 32.258259 
L 230.196055 32.258259 
L 230.196055 31.903624 
L 230.374883 31.903624 
L 230.374883 31.194353 
L 230.527917 31.194353 
L 230.536723 30.130447 
L 234.352215 30.130447 
L 234.411496 29.066541 
L 234.553633 29.066541 
L 234.585759 27.648 
L 360.8064 27.648 
L 360.8064 27.648 
" style="fill: none; stroke: #000080; stroke-width: 1.5; stroke-linecap: square"/>
   </g>
   <g id="line2d_36">
    <defs>
     <path id="m2564e98fe2" d="M 0 6 
C 1.591219 6 3.117479 5.367802 4.242641 4.242641 
C 5.367802 3.117479 6 1.591219 6 0 
C 6 -1.591219 5.367802 -3.117479 4.242641 -4.242641 
C 3.117479 -5.367802 1.591219 -6 0 -6 
C -1.591219 -6 -3.117479 -5.367802 -4.242641 -4.242641 
C -5.367802 -3.117479 -6 -1.591219 -6 0 
C -6 1.591219 -5.367802 3.117479 -4.242641 4.242641 
C -3.117479 5.367802 -1.591219 6 0 6 
z
" style="stroke: #000080; stroke-width: 1.5"/>
    </defs>
    <g>
     <use xlink:href="#m2564e98fe2" x="150.640414" y="276.247341" style="fill-opacity: 0; stroke: #000080; stroke-width: 1.5"/>
     <use xlink:href="#m2564e98fe2" x="214.034237" y="153.898165" style="fill-opacity: 0; stroke: #000080; stroke-width: 1.5"/>
     <use xlink:href="#m2564e98fe2" x="234.585759" y="28.711906" style="fill-opacity: 0; stroke: #000080; stroke-width: 1.5"/>
     <use xlink:href="#m2564e98fe2" x="234.585759" y="27.648" style="fill-opacity: 0; stroke: #000080; stroke-width: 1.5"/>
     <use xlink:href="#m2564e98fe2" x="234.585759" y="27.648" style="fill-opacity: 0; stroke: #000080; stroke-width: 1.5"/>
     <use xlink:href="#m2564e98fe2" x="360.8064" y="27.648" style="fill-opacity: 0; stroke: #000080; stroke-width: 1.5"/>
    </g>
   </g>
   <g id="line2d_37">
    <path style="fill: none; stroke: #000080; stroke-width: 1.5; stroke-linecap: square"/>
    <g/>
   </g>
   <g id="line2d_38">
    <defs>
     <path id="m89ac4a8781" d="M 0 1.5 
C 0.397805 1.5 0.77937 1.341951 1.06066 1.06066 
C 1.341951 0.77937 1.5 0.397805 1.5 0 
C 1.5 -0.397805 1.341951 -0.77937 1.06066 -1.06066 
C 0.77937 -1.341951 0.397805 -1.5 0 -1.5 
C -0.397805 -1.5 -0.77937 -1.341951 -1.06066 -1.06066 
C -1.341951 -0.77937 -1.5 -0.397805 -1.5 0 
C -1.5 0.397805 -1.341951 0.77937 -1.06066 1.06066 
C -0.77937 1.341951 -0.397805 1.5 0 1.5 
z
" style="stroke: #ff00ff"/>
    </defs>
    <g>
     <use xlink:href="#m89ac4a8781" x="240.855573" y="27.648" style="fill: #ff00ff; stroke: #ff00ff"/>
     <use xlink:href="#m89ac4a8781" x="240.855573" y="27.648" style="fill: #ff00ff; stroke: #ff00ff"/>
    </g>
   </g>
   <g id="line2d_39">
    <path d="M 27.323974 298.944 
L 27.323974 298.589365 
L 113.381389 298.589365 
L 113.381389 296.816188 
L 125.322496 296.816188 
L 125.322496 295.043012 
L 125.729248 295.043012 
L 125.829577 292.205929 
L 125.929373 292.205929 
L 125.929373 291.496659 
L 126.127391 291.496659 
L 126.225624 287.950306 
L 126.517282 287.950306 
L 126.517282 287.241035 
L 126.804487 287.241035 
L 126.804487 286.177129 
L 126.993549 286.177129 
L 126.993549 285.467859 
L 132.216233 285.467859 
L 132.216233 285.113224 
L 132.358208 285.113224 
L 132.358208 284.758588 
L 133.120474 284.758588 
L 133.188264 283.340047 
L 133.323114 283.340047 
L 133.323114 282.985412 
L 133.523594 282.985412 
L 133.523594 282.630776 
L 133.918257 282.630776 
L 133.918257 281.921506 
L 134.112526 281.921506 
L 134.112526 281.566871 
L 134.495147 281.566871 
L 134.495147 280.8576 
L 137.681345 280.8576 
L 137.681345 280.502965 
L 138.258593 280.502965 
L 138.258593 280.148329 
L 138.515235 280.148329 
L 138.566146 279.439059 
L 138.818654 279.439059 
L 138.868751 278.375153 
L 139.117256 278.375153 
L 139.215746 277.665882 
L 139.93843 277.665882 
L 139.93843 277.311247 
L 142.579895 277.311247 
L 142.579895 276.956612 
L 142.905644 276.956612 
L 142.945969 276.247341 
L 143.811926 276.247341 
L 143.811926 275.892706 
L 145.040416 275.892706 
L 145.040416 275.538071 
L 146.261241 275.538071 
L 146.261241 275.183435 
L 147.087167 275.183435 
L 147.087167 274.8288 
L 147.343984 274.8288 
L 147.343984 274.474165 
L 147.722752 274.474165 
L 147.722752 274.119529 
L 148.518156 274.119529 
L 148.518156 273.764894 
L 149.338728 273.764894 
L 149.338728 273.410259 
L 149.566749 273.410259 
L 149.566749 272.700988 
L 150.316534 272.700988 
L 150.316534 272.346353 
L 150.72052 272.346353 
L 150.72052 271.991718 
L 152.181101 271.991718 
L 152.181101 271.637082 
L 152.523139 271.637082 
L 152.523139 271.282447 
L 152.763699 271.282447 
L 152.763699 270.927812 
L 153.189104 270.927812 
L 153.189104 270.573176 
L 154.671449 270.573176 
L 154.671449 270.218541 
L 154.971412 270.218541 
L 154.971412 269.863906 
L 155.28758 269.863906 
L 155.28758 269.509271 
L 155.904407 269.509271 
L 155.904407 269.154635 
L 156.065535 269.154635 
L 156.065535 268.8 
L 156.947029 268.8 
L 156.966156 268.090729 
L 158.0976 268.090729 
L 158.0976 267.381459 
L 159.130788 267.381459 
L 159.130788 267.026824 
L 159.249688 267.026824 
L 159.249688 266.672188 
L 159.601943 266.672188 
L 159.601943 266.317553 
L 160.886507 266.317553 
L 160.886507 265.962918 
L 161.285788 265.962918 
L 161.285788 265.608282 
L 161.928087 265.608282 
L 161.957434 264.899012 
L 162.161592 264.899012 
L 162.161592 264.544376 
L 162.349204 264.544376 
L 162.349204 264.189741 
L 162.845206 264.189741 
L 162.845206 263.835106 
L 164.745905 263.835106 
L 164.745905 263.125835 
L 165.257222 263.125835 
L 165.257222 262.7712 
L 165.766985 262.7712 
L 165.766985 262.416565 
L 166.541136 262.416565 
L 166.541136 262.061929 
L 167.978675 262.061929 
L 167.978675 261.707294 
L 168.586228 261.707294 
L 168.658244 260.998024 
L 169.880655 260.998024 
L 169.880655 260.643388 
L 170.167131 260.643388 
L 170.167131 260.288753 
L 170.635104 260.288753 
L 170.635104 259.934118 
L 170.83738 259.934118 
L 170.83738 259.579482 
L 171.546318 259.579482 
L 171.642946 258.515576 
L 171.721637 258.515576 
L 171.721637 258.160941 
L 172.101681 258.160941 
L 172.101681 257.806306 
L 172.591198 257.806306 
L 172.591198 257.451671 
L 174.111019 257.451671 
L 174.218295 256.7424 
L 175.630928 256.7424 
L 175.630928 255.678494 
L 175.919314 255.678494 
L 175.982031 254.969224 
L 176.449252 254.969224 
L 176.449252 254.259953 
L 176.971271 254.259953 
L 176.971271 253.905318 
L 178.123358 253.905318 
L 178.17296 253.196047 
L 179.020471 253.196047 
L 179.020471 252.841412 
L 179.319959 252.841412 
L 179.418738 251.777506 
L 180.423011 251.777506 
L 180.423011 251.068235 
L 182.648457 251.068235 
L 182.648457 250.7136 
L 183.399584 250.7136 
L 183.399584 250.358965 
L 184.895568 250.358965 
L 184.895568 250.004329 
L 185.17076 250.004329 
L 185.17076 249.649694 
L 185.416721 249.649694 
L 185.416721 249.295059 
L 190.099342 249.295059 
L 190.099342 248.940424 
L 190.959669 248.940424 
L 190.959669 248.585788 
L 191.264694 248.585788 
L 191.264694 248.231153 
L 193.560819 248.231153 
L 193.560819 247.521882 
L 194.623301 247.521882 
L 194.623301 247.167247 
L 195.350273 247.167247 
L 195.382546 246.103341 
L 195.488903 246.103341 
L 195.55538 245.394071 
L 196.269157 245.394071 
L 196.269157 245.039435 
L 196.578935 245.039435 
L 196.578935 244.6848 
L 196.690328 244.6848 
L 196.757311 243.620894 
L 197.120378 243.620894 
L 197.120378 243.266259 
L 197.400968 243.266259 
L 197.400968 242.556988 
L 198.023329 242.556988 
L 198.042719 241.847718 
L 198.145796 241.847718 
L 198.145796 241.493082 
L 198.744377 241.493082 
L 198.83337 240.429176 
L 198.889034 240.429176 
L 198.889034 239.719906 
L 199.342592 239.719906 
L 199.342592 238.656 
L 200.214325 238.656 
L 200.304283 237.946729 
L 200.494262 237.946729 
L 200.494262 237.592094 
L 200.868559 237.592094 
L 200.868559 237.237459 
L 205.450667 237.237459 
L 205.486942 235.818918 
L 206.163203 235.818918 
L 206.163203 235.464282 
L 206.302528 235.464282 
L 206.302528 234.755012 
L 206.57812 234.755012 
L 206.57812 234.400376 
L 206.984082 234.400376 
L 206.984082 233.691106 
L 207.117479 233.691106 
L 207.117479 231.917929 
L 207.637925 231.917929 
L 207.637925 231.563294 
L 208.223486 231.563294 
L 208.223486 230.854024 
L 208.479921 230.854024 
L 208.479921 230.144753 
L 208.898081 230.144753 
L 208.898081 229.435482 
L 209.454469 229.435482 
L 209.454469 228.726212 
L 210.586623 228.726212 
L 210.586623 228.016941 
L 210.773607 228.016941 
L 210.773607 227.662306 
L 211.036619 227.662306 
L 211.067892 226.5984 
L 211.432824 226.5984 
L 211.432824 226.243765 
L 211.730577 226.243765 
L 211.802213 224.470588 
L 212.645176 224.470588 
L 212.645176 224.115953 
L 213.093581 224.115953 
L 213.19008 222.697412 
L 215.008022 222.697412 
L 215.008022 221.988141 
L 215.694432 221.988141 
L 215.792752 220.924235 
L 215.881388 220.924235 
L 215.959641 219.505694 
L 216.133295 219.505694 
L 216.193287 217.732518 
L 216.275158 217.732518 
L 216.375374 214.5408 
L 216.43784 214.5408 
L 216.53236 212.412988 
L 216.560543 212.412988 
L 216.595111 211.349082 
L 216.679254 211.349082 
L 216.777345 209.221271 
L 216.800398 209.221271 
L 216.800398 208.866635 
L 217.014469 208.866635 
L 217.09285 207.802729 
L 217.166232 207.802729 
L 217.271123 205.674918 
L 217.383136 205.674918 
L 217.383136 205.320282 
L 217.531966 205.320282 
L 217.621919 202.4832 
L 217.6637 202.4832 
L 217.688724 201.773929 
L 217.839676 201.773929 
L 217.839676 201.419294 
L 218.220682 201.419294 
L 218.220682 201.064659 
L 218.480398 201.064659 
L 218.552915 199.646118 
L 218.943292 199.646118 
L 218.943292 198.582212 
L 219.234514 198.582212 
L 219.294448 196.809035 
L 219.363899 196.809035 
L 219.442762 195.390494 
L 219.511669 195.390494 
L 219.570727 193.971953 
L 219.775307 193.971953 
L 219.775307 193.262682 
L 219.910467 193.262682 
L 220.009194 191.489506 
L 220.035301 191.489506 
L 220.145351 189.361694 
L 220.162634 189.361694 
L 220.211736 186.524612 
L 220.302305 186.524612 
L 220.41212 184.042165 
L 220.499122 184.042165 
L 220.581175 181.205082 
L 220.625309 181.205082 
L 220.710687 178.368 
L 220.751299 178.368 
L 220.80146 176.240188 
L 220.865573 176.240188 
L 220.967066 173.403106 
L 223.28447 173.403106 
L 223.352448 171.275294 
L 223.454792 171.275294 
L 223.510484 170.566024 
L 223.566012 170.566024 
L 223.671064 169.502118 
L 223.72667 169.502118 
L 223.755235 168.792847 
L 223.944747 168.792847 
L 223.944747 168.438212 
L 224.112453 168.438212 
L 224.112453 168.083576 
L 224.461956 168.083576 
L 224.533718 167.019671 
L 224.588935 167.019671 
L 224.690532 164.537224 
L 224.718193 164.537224 
L 224.828948 162.054776 
L 224.847086 162.054776 
L 224.950392 159.572329 
L 224.983845 159.572329 
L 225.067474 157.799153 
L 225.10685 157.799153 
L 225.10685 156.735247 
L 225.271136 156.735247 
L 225.31211 154.962071 
L 225.38423 154.962071 
L 225.461089 151.061082 
L 225.508154 151.061082 
L 225.612877 147.514729 
L 225.640208 147.514729 
L 225.712073 145.386918 
L 225.754074 145.386918 
L 225.859894 139.712753 
L 225.904014 139.712753 
L 226.004127 137.939576 
L 226.024572 137.939576 
L 226.130337 134.393224 
L 226.147262 134.393224 
L 226.149679 133.683953 
L 226.354447 133.683953 
L 226.409821 131.556141 
L 226.544709 131.556141 
L 226.55228 130.846871 
L 226.708686 130.846871 
L 226.708686 130.492235 
L 227.043017 130.492235 
L 227.080312 129.782965 
L 227.157429 129.782965 
L 227.157429 129.428329 
L 227.498349 129.428329 
L 227.568845 127.300518 
L 227.61361 127.300518 
L 227.61361 126.945882 
L 227.743717 126.945882 
L 227.846452 124.1088 
L 227.902014 124.1088 
L 227.945994 122.335624 
L 228.022275 122.335624 
L 228.132205 116.306824 
L 228.161325 116.306824 
L 228.248847 113.115106 
L 228.282965 113.115106 
L 228.391387 107.086306 
L 228.405968 107.086306 
L 228.497481 104.249224 
L 228.562212 104.249224 
L 228.647046 102.476047 
L 228.68932 102.476047 
L 228.68932 102.121412 
L 229.944543 102.121412 
L 230.033604 101.057506 
L 230.072877 101.057506 
L 230.072877 100.702871 
L 230.268023 100.702871 
L 230.352091 98.929694 
L 230.576107 98.929694 
L 230.576107 98.220424 
L 230.849886 98.220424 
L 230.944513 97.511153 
L 231.019276 97.511153 
L 231.019276 97.156518 
L 231.14866 97.156518 
L 231.14866 96.801882 
L 231.278633 96.801882 
L 231.3887 95.383341 
L 231.425246 95.383341 
L 231.534462 93.255529 
L 231.543897 93.255529 
L 231.652428 90.418447 
L 231.679103 90.418447 
L 231.778619 86.872094 
L 231.796168 86.872094 
L 231.902189 82.971106 
L 231.946633 82.971106 
L 232.052871 79.779388 
L 232.079337 79.779388 
L 232.185532 74.814494 
L 232.254832 74.814494 
L 232.333274 71.622776 
L 232.370463 71.622776 
L 232.405153 69.140329 
L 232.515732 69.140329 
L 232.515732 68.785694 
L 232.669459 68.785694 
L 232.755382 67.012518 
L 232.854454 67.012518 
L 232.955701 65.239341 
L 232.999406 65.239341 
L 233.075144 63.466165 
L 233.189845 63.466165 
L 233.258861 61.338353 
L 233.322344 61.338353 
L 233.388246 59.565176 
L 233.463748 59.565176 
L 233.561776 57.792 
L 233.626846 57.792 
L 233.735658 55.309553 
L 233.760829 55.309553 
L 233.760829 54.954918 
L 233.955563 54.954918 
L 233.987451 53.181741 
L 234.332517 53.181741 
L 234.332517 52.827106 
L 234.488284 52.827106 
L 234.488284 52.472471 
L 234.675668 52.472471 
L 234.782567 50.344659 
L 234.931636 50.344659 
L 234.996371 47.152941 
L 235.045229 47.152941 
L 235.14556 45.7344 
L 235.175496 45.7344 
L 235.262041 43.961224 
L 235.2909 43.961224 
L 235.379876 40.769506 
L 235.412986 40.769506 
L 235.412986 40.060235 
L 236.133866 40.060235 
L 236.218951 38.996329 
L 237.436523 38.996329 
L 237.488174 36.868518 
L 237.593684 36.868518 
L 237.698605 34.386071 
L 237.724744 34.386071 
L 237.778216 32.967529 
L 237.882116 32.967529 
L 237.985445 30.485082 
L 238.938536 30.485082 
L 238.98745 29.421176 
L 240.271581 29.421176 
L 240.271581 29.066541 
L 240.407967 29.066541 
L 240.407967 28.357271 
L 240.718173 28.357271 
L 240.718173 28.002635 
L 240.855573 28.002635 
L 240.855573 27.648 
L 360.8064 27.648 
L 360.8064 27.648 
" style="fill: none; stroke: #ff00ff; stroke-width: 1.5; stroke-linecap: square"/>
   </g>
   <g id="line2d_40">
    <defs>
     <path id="m77c5eb0fe6" d="M 0 8.485281 
L 5.091169 0 
L 0 -8.485281 
L -5.091169 0 
z
" style="stroke: #ff00ff; stroke-width: 1.5; stroke-linejoin: miter"/>
    </defs>
    <g>
     <use xlink:href="#m77c5eb0fe6" x="158.0976" y="268.090729" style="fill-opacity: 0; stroke: #ff00ff; stroke-width: 1.5; stroke-linejoin: miter"/>
     <use xlink:href="#m77c5eb0fe6" x="225.904014" y="139.712753" style="fill-opacity: 0; stroke: #ff00ff; stroke-width: 1.5; stroke-linejoin: miter"/>
     <use xlink:href="#m77c5eb0fe6" x="237.673739" y="36.159247" style="fill-opacity: 0; stroke: #ff00ff; stroke-width: 1.5; stroke-linejoin: miter"/>
     <use xlink:href="#m77c5eb0fe6" x="240.855573" y="27.648" style="fill-opacity: 0; stroke: #ff00ff; stroke-width: 1.5; stroke-linejoin: miter"/>
     <use xlink:href="#m77c5eb0fe6" x="240.855573" y="27.648" style="fill-opacity: 0; stroke: #ff00ff; stroke-width: 1.5; stroke-linejoin: miter"/>
     <use xlink:href="#m77c5eb0fe6" x="360.8064" y="27.648" style="fill-opacity: 0; stroke: #ff00ff; stroke-width: 1.5; stroke-linejoin: miter"/>
    </g>
   </g>
   <g id="line2d_41">
    <path style="fill: none; stroke: #ff00ff; stroke-width: 1.5; stroke-linecap: square"/>
    <g/>
   </g>
   <g id="line2d_42">
    <path d="M 360.8064 27.648 
L 380.514816 293.51808 
" style="fill: none; stroke: #ff00ff; stroke-width: 1.5; stroke-linecap: square"/>
    <g>
     <use xlink:href="#m77c5eb0fe6" x="360.8064" y="27.648" style="fill-opacity: 0; stroke: #ff00ff; stroke-width: 1.5; stroke-linejoin: miter"/>
     <use xlink:href="#m77c5eb0fe6" x="380.514816" y="293.51808" style="fill-opacity: 0; stroke: #ff00ff; stroke-width: 1.5; stroke-linejoin: miter"/>
    </g>
   </g>
   <g id="line2d_43">
    <path d="M 360.8064 27.648 
L 380.514816 163.296 
" style="fill: none; stroke: #000080; stroke-width: 1.5; stroke-linecap: square"/>
    <g>
     <use xlink:href="#m2564e98fe2" x="360.8064" y="27.648" style="fill-opacity: 0; stroke: #000080; stroke-width: 1.5"/>
     <use xlink:href="#m2564e98fe2" x="380.514816" y="163.296" style="fill-opacity: 0; stroke: #000080; stroke-width: 1.5"/>
    </g>
   </g>
   <g id="line2d_44">
    <path d="M 360.8064 298.944 
L 360.8064 27.648 
" style="fill: none; stroke: #000000; stroke-width: 1.5; stroke-linecap: square"/>
   </g>
   <g id="patch_3">
    <path d="M 57.6 298.944 
L 360.8064 298.944 
" style="fill: none; stroke: #000000; stroke-width: 0.8; stroke-linejoin: miter; stroke-linecap: square"/>
   </g>
   <g id="patch_4">
    <path d="M 57.6 27.648 
L 360.8064 27.648 
" style="fill: none; stroke: #000000; stroke-width: 0.8; stroke-linejoin: miter; stroke-linecap: square"/>
   </g>
   <g id="text_13">
    <!-- EvoSpace- -->
    <g transform="translate(386.578944 297.381205)scale(0.14 -0.14)">
     <defs>
      <path id="DejaVuSans-45" d="M 628 4666 
L 3578 4666 
L 3578 4134 
L 1259 4134 
L 1259 2753 
L 3481 2753 
L 3481 2222 
L 1259 2222 
L 1259 531 
L 3634 531 
L 3634 0 
L 628 0 
L 628 4666 
z
" transform="scale(0.015625)"/>
      <path id="DejaVuSans-53" d="M 3425 4513 
L 3425 3897 
Q 3066 4069 2747 4153 
Q 2428 4238 2131 4238 
Q 1616 4238 1336 4038 
Q 1056 3838 1056 3469 
Q 1056 3159 1242 3001 
Q 1428 2844 1947 2747 
L 2328 2669 
Q 3034 2534 3370 2195 
Q 3706 1856 3706 1288 
Q 3706 609 3251 259 
Q 2797 -91 1919 -91 
Q 1588 -91 1214 -16 
Q 841 59 441 206 
L 441 856 
Q 825 641 1194 531 
Q 1563 422 1919 422 
Q 2459 422 2753 634 
Q 3047 847 3047 1241 
Q 3047 1584 2836 1778 
Q 2625 1972 2144 2069 
L 1759 2144 
Q 1053 2284 737 2584 
Q 422 2884 422 3419 
Q 422 4038 858 4394 
Q 1294 4750 2059 4750 
Q 2388 4750 2728 4690 
Q 3069 4631 3425 4513 
z
" transform="scale(0.015625)"/>
     </defs>
     <use xlink:href="#DejaVuSans-45"/>
     <use xlink:href="#DejaVuSans-76" x="63.183594"/>
     <use xlink:href="#DejaVuSans-6f" x="122.363281"/>
     <use xlink:href="#DejaVuSans-53" x="183.544922"/>
     <use xlink:href="#DejaVuSans-70" x="247.021484"/>
     <use xlink:href="#DejaVuSans-61" x="310.498047"/>
     <use xlink:href="#DejaVuSans-63" x="371.777344"/>
     <use xlink:href="#DejaVuSans-65" x="426.757812"/>
     <use xlink:href="#DejaVuSans-2d" x="488.28125"/>
    </g>
   </g>
   <g id="text_14">
    <!-- LCGA -->
    <g transform="translate(386.578944 167.159125)scale(0.14 -0.14)">
     <defs>
      <path id="DejaVuSans-4c" d="M 628 4666 
L 1259 4666 
L 1259 531 
L 3531 531 
L 3531 0 
L 628 0 
L 628 4666 
z
" transform="scale(0.015625)"/>
      <path id="DejaVuSans-43" d="M 4122 4306 
L 4122 3641 
Q 3803 3938 3442 4084 
Q 3081 4231 2675 4231 
Q 1875 4231 1450 3742 
Q 1025 3253 1025 2328 
Q 1025 1406 1450 917 
Q 1875 428 2675 428 
Q 3081 428 3442 575 
Q 3803 722 4122 1019 
L 4122 359 
Q 3791 134 3420 21 
Q 3050 -91 2638 -91 
Q 1578 -91 968 557 
Q 359 1206 359 2328 
Q 359 3453 968 4101 
Q 1578 4750 2638 4750 
Q 3056 4750 3426 4639 
Q 3797 4528 4122 4306 
z
" transform="scale(0.015625)"/>
      <path id="DejaVuSans-47" d="M 3809 666 
L 3809 1919 
L 2778 1919 
L 2778 2438 
L 4434 2438 
L 4434 434 
Q 4069 175 3628 42 
Q 3188 -91 2688 -91 
Q 1594 -91 976 548 
Q 359 1188 359 2328 
Q 359 3472 976 4111 
Q 1594 4750 2688 4750 
Q 3144 4750 3555 4637 
Q 3966 4525 4313 4306 
L 4313 3634 
Q 3963 3931 3569 4081 
Q 3175 4231 2741 4231 
Q 1884 4231 1454 3753 
Q 1025 3275 1025 2328 
Q 1025 1384 1454 906 
Q 1884 428 2741 428 
Q 3075 428 3337 486 
Q 3600 544 3809 666 
z
" transform="scale(0.015625)"/>
      <path id="DejaVuSans-41" d="M 2188 4044 
L 1331 1722 
L 3047 1722 
L 2188 4044 
z
M 1831 4666 
L 2547 4666 
L 4325 0 
L 3669 0 
L 3244 1197 
L 1141 1197 
L 716 0 
L 50 0 
L 1831 4666 
z
" transform="scale(0.015625)"/>
     </defs>
     <use xlink:href="#DejaVuSans-4c"/>
     <use xlink:href="#DejaVuSans-43" x="55.712891"/>
     <use xlink:href="#DejaVuSans-47" x="125.537109"/>
     <use xlink:href="#DejaVuSans-41" x="203.027344"/>
    </g>
   </g>
   <g id="text_15">
    <!-- best 2009 -->
    <g transform="translate(386.578944 36.937045)scale(0.14 -0.14)">
     <defs>
      <path id="DejaVuSans-62" d="M 3116 1747 
Q 3116 2381 2855 2742 
Q 2594 3103 2138 3103 
Q 1681 3103 1420 2742 
Q 1159 2381 1159 1747 
Q 1159 1113 1420 752 
Q 1681 391 2138 391 
Q 2594 391 2855 752 
Q 3116 1113 3116 1747 
z
M 1159 2969 
Q 1341 3281 1617 3432 
Q 1894 3584 2278 3584 
Q 2916 3584 3314 3078 
Q 3713 2572 3713 1747 
Q 3713 922 3314 415 
Q 2916 -91 2278 -91 
Q 1894 -91 1617 61 
Q 1341 213 1159 525 
L 1159 0 
L 581 0 
L 581 4863 
L 1159 4863 
L 1159 2969 
z
" transform="scale(0.015625)"/>
      <path id="DejaVuSans-39" d="M 703 97 
L 703 672 
Q 941 559 1184 500 
Q 1428 441 1663 441 
Q 2288 441 2617 861 
Q 2947 1281 2994 2138 
Q 2813 1869 2534 1725 
Q 2256 1581 1919 1581 
Q 1219 1581 811 2004 
Q 403 2428 403 3163 
Q 403 3881 828 4315 
Q 1253 4750 1959 4750 
Q 2769 4750 3195 4129 
Q 3622 3509 3622 2328 
Q 3622 1225 3098 567 
Q 2575 -91 1691 -91 
Q 1453 -91 1209 -44 
Q 966 3 703 97 
z
M 1959 2075 
Q 2384 2075 2632 2365 
Q 2881 2656 2881 3163 
Q 2881 3666 2632 3958 
Q 2384 4250 1959 4250 
Q 1534 4250 1286 3958 
Q 1038 3666 1038 3163 
Q 1038 2656 1286 2365 
Q 1534 2075 1959 2075 
z
" transform="scale(0.015625)"/>
     </defs>
     <use xlink:href="#DejaVuSans-62"/>
     <use xlink:href="#DejaVuSans-65" x="63.476562"/>
     <use xlink:href="#DejaVuSans-73" x="125"/>
     <use xlink:href="#DejaVuSans-74" x="177.099609"/>
     <use xlink:href="#DejaVuSans-20" x="216.308594"/>
     <use xlink:href="#DejaVuSans-32" x="248.095703"/>
     <use xlink:href="#DejaVuSans-30" x="311.71875"/>
     <use xlink:href="#DejaVuSans-30" x="375.341797"/>
     <use xlink:href="#DejaVuSans-39" x="438.964844"/>
    </g>
   </g>
   <g id="text_16">
    <!-- bbob f3, 5-D -->
    <g transform="translate(60.632064 38.111366)scale(0.102 -0.102)">
     <defs>
      <path id="DejaVuSans-33" d="M 2597 2516 
Q 3050 2419 3304 2112 
Q 3559 1806 3559 1356 
Q 3559 666 3084 287 
Q 2609 -91 1734 -91 
Q 1441 -91 1130 -33 
Q 819 25 488 141 
L 488 750 
Q 750 597 1062 519 
Q 1375 441 1716 441 
Q 2309 441 2620 675 
Q 2931 909 2931 1356 
Q 2931 1769 2642 2001 
Q 2353 2234 1838 2234 
L 1294 2234 
L 1294 2753 
L 1863 2753 
Q 2328 2753 2575 2939 
Q 2822 3125 2822 3475 
Q 2822 3834 2567 4026 
Q 2313 4219 1838 4219 
Q 1578 4219 1281 4162 
Q 984 4106 628 3988 
L 628 4550 
Q 988 4650 1302 4700 
Q 1616 4750 1894 4750 
Q 2613 4750 3031 4423 
Q 3450 4097 3450 3541 
Q 3450 3153 3228 2886 
Q 3006 2619 2597 2516 
z
" transform="scale(0.015625)"/>
      <path id="DejaVuSans-35" d="M 691 4666 
L 3169 4666 
L 3169 4134 
L 1269 4134 
L 1269 2991 
Q 1406 3038 1543 3061 
Q 1681 3084 1819 3084 
Q 2600 3084 3056 2656 
Q 3513 2228 3513 1497 
Q 3513 744 3044 326 
Q 2575 -91 1722 -91 
Q 1428 -91 1123 -41 
Q 819 9 494 109 
L 494 744 
Q 775 591 1075 516 
Q 1375 441 1709 441 
Q 2250 441 2565 725 
Q 2881 1009 2881 1497 
Q 2881 1984 2565 2268 
Q 2250 2553 1709 2553 
Q 1456 2553 1204 2497 
Q 953 2441 691 2322 
L 691 4666 
z
" transform="scale(0.015625)"/>
      <path id="DejaVuSans-44" d="M 1259 4147 
L 1259 519 
L 2022 519 
Q 2988 519 3436 956 
Q 3884 1394 3884 2338 
Q 3884 3275 3436 3711 
Q 2988 4147 2022 4147 
L 1259 4147 
z
M 628 4666 
L 1925 4666 
Q 3281 4666 3915 4102 
Q 4550 3538 4550 2338 
Q 4550 1131 3912 565 
Q 3275 0 1925 0 
L 628 0 
L 628 4666 
z
" transform="scale(0.015625)"/>
     </defs>
     <use xlink:href="#DejaVuSans-62"/>
     <use xlink:href="#DejaVuSans-62" x="63.476562"/>
     <use xlink:href="#DejaVuSans-6f" x="126.953125"/>
     <use xlink:href="#DejaVuSans-62" x="188.134766"/>
     <use xlink:href="#DejaVuSans-20" x="251.611328"/>
     <use xlink:href="#DejaVuSans-66" x="283.398438"/>
     <use xlink:href="#DejaVuSans-33" x="318.603516"/>
     <use xlink:href="#DejaVuSans-2c" x="382.226562"/>
     <use xlink:href="#DejaVuSans-20" x="414.013672"/>
     <use xlink:href="#DejaVuSans-35" x="445.800781"/>
     <use xlink:href="#DejaVuSans-2d" x="509.423828"/>
     <use xlink:href="#DejaVuSans-44" x="545.507812"/>
    </g>
    <!-- 51 targets: 100..1e-08 -->
    <g transform="translate(60.632064 49.533135)scale(0.102 -0.102)">
     <defs>
      <path id="DejaVuSans-3a" d="M 750 794 
L 1409 794 
L 1409 0 
L 750 0 
L 750 794 
z
M 750 3309 
L 1409 3309 
L 1409 2516 
L 750 2516 
L 750 3309 
z
" transform="scale(0.015625)"/>
     </defs>
     <use xlink:href="#DejaVuSans-35"/>
     <use xlink:href="#DejaVuSans-31" x="63.623047"/>
     <use xlink:href="#DejaVuSans-20" x="127.246094"/>
     <use xlink:href="#DejaVuSans-74" x="159.033203"/>
     <use xlink:href="#DejaVuSans-61" x="198.242188"/>
     <use xlink:href="#DejaVuSans-72" x="259.521484"/>
     <use xlink:href="#DejaVuSans-67" x="298.884766"/>
     <use xlink:href="#DejaVuSans-65" x="362.361328"/>
     <use xlink:href="#DejaVuSans-74" x="423.884766"/>
     <use xlink:href="#DejaVuSans-73" x="463.09375"/>
     <use xlink:href="#DejaVuSans-3a" x="515.193359"/>
     <use xlink:href="#DejaVuSans-20" x="548.884766"/>
     <use xlink:href="#DejaVuSans-31" x="580.671875"/>
     <use xlink:href="#DejaVuSans-30" x="644.294922"/>
     <use xlink:href="#DejaVuSans-30" x="707.917969"/>
     <use xlink:href="#DejaVuSans-2e" x="771.541016"/>
     <use xlink:href="#DejaVuSans-2e" x="803.328125"/>
     <use xlink:href="#DejaVuSans-31" x="835.115234"/>
     <use xlink:href="#DejaVuSans-65" x="898.738281"/>
     <use xlink:href="#DejaVuSans-2d" x="960.261719"/>
     <use xlink:href="#DejaVuSans-30" x="996.345703"/>
     <use xlink:href="#DejaVuSans-38" x="1059.96875"/>
    </g>
    <!-- 15 instances -->
    <g transform="translate(60.632064 60.954904)scale(0.102 -0.102)">
     <use xlink:href="#DejaVuSans-31"/>
     <use xlink:href="#DejaVuSans-35" x="63.623047"/>
     <use xlink:href="#DejaVuSans-20" x="127.246094"/>
     <use xlink:href="#DejaVuSans-69" x="159.033203"/>
     <use xlink:href="#DejaVuSans-6e" x="186.816406"/>
     <use xlink:href="#DejaVuSans-73" x="250.195312"/>
     <use xlink:href="#DejaVuSans-74" x="302.294922"/>
     <use xlink:href="#DejaVuSans-61" x="341.503906"/>
     <use xlink:href="#DejaVuSans-6e" x="402.783203"/>
     <use xlink:href="#DejaVuSans-63" x="466.162109"/>
     <use xlink:href="#DejaVuSans-65" x="521.142578"/>
     <use xlink:href="#DejaVuSans-73" x="582.666016"/>
    </g>
   </g>
   <g id="text_17">
    <!-- v2.6 -->
    <g style="fill: #808080" transform="translate(198.292262 294.151352)scale(0.1 -0.1)">
     <use xlink:href="#DejaVuSans-76"/>
     <use xlink:href="#DejaVuSans-32" x="59.179688"/>
     <use xlink:href="#DejaVuSans-2e" x="122.802734"/>
     <use xlink:href="#DejaVuSans-36" x="154.589844"/>
    </g>
   </g>
   <g id="text_18">
    <!-- 3 Rastrigin separable -->
    <g transform="translate(102.792262 21.648)scale(0.2 -0.2)">
     <defs>
      <path id="DejaVuSans-52" d="M 2841 2188 
Q 3044 2119 3236 1894 
Q 3428 1669 3622 1275 
L 4263 0 
L 3584 0 
L 2988 1197 
Q 2756 1666 2539 1819 
Q 2322 1972 1947 1972 
L 1259 1972 
L 1259 0 
L 628 0 
L 628 4666 
L 2053 4666 
Q 2853 4666 3247 4331 
Q 3641 3997 3641 3322 
Q 3641 2881 3436 2590 
Q 3231 2300 2841 2188 
z
M 1259 4147 
L 1259 2491 
L 2053 2491 
Q 2509 2491 2742 2702 
Q 2975 2913 2975 3322 
Q 2975 3731 2742 3939 
Q 2509 4147 2053 4147 
L 1259 4147 
z
" transform="scale(0.015625)"/>
     </defs>
     <use xlink:href="#DejaVuSans-33"/>
     <use xlink:href="#DejaVuSans-20" x="63.623047"/>
     <use xlink:href="#DejaVuSans-52" x="95.410156"/>
     <use xlink:href="#DejaVuSans-61" x="162.642578"/>
     <use xlink:href="#DejaVuSans-73" x="223.921875"/>
     <use xlink:href="#DejaVuSans-74" x="276.021484"/>
     <use xlink:href="#DejaVuSans-72" x="315.230469"/>
     <use xlink:href="#DejaVuSans-69" x="356.34375"/>
     <use xlink:href="#DejaVuSans-67" x="384.126953"/>
     <use xlink:href="#DejaVuSans-69" x="447.603516"/>
     <use xlink:href="#DejaVuSans-6e" x="475.386719"/>
     <use xlink:href="#DejaVuSans-20" x="538.765625"/>
     <use xlink:href="#DejaVuSans-73" x="570.552734"/>
     <use xlink:href="#DejaVuSans-65" x="622.652344"/>
     <use xlink:href="#DejaVuSans-70" x="684.175781"/>
     <use xlink:href="#DejaVuSans-61" x="747.652344"/>
     <use xlink:href="#DejaVuSans-72" x="808.931641"/>
     <use xlink:href="#DejaVuSans-61" x="850.044922"/>
     <use xlink:href="#DejaVuSans-62" x="911.324219"/>
     <use xlink:href="#DejaVuSans-6c" x="974.800781"/>
     <use xlink:href="#DejaVuSans-65" x="1002.583984"/>
    </g>
   </g>
  </g>
 </g>
 <defs>
  <clipPath id="p22191b00ed">
   <rect x="57.6" y="27.648" width="303.2064" height="271.296"/>
  </clipPath>
 </defs>
</svg>
