<?xml version="1.0" encoding="utf-8" standalone="no"?>
<!DOCTYPE svg PUBLIC "-//W3C//DTD SVG 1.1//EN"
  "http://www.w3.org/Graphics/SVG/1.1/DTD/svg11.dtd">
<svg xmlns:xlink="http://www.w3.org/1999/xlink" width="460.8pt" height="345.6pt" viewBox="0 0 460.8 345.6" xmlns="http://www.w3.org/2000/svg" version="1.1">
 <metadata>
  <rdf:RDF xmlns:dc="http://purl.org/dc/elements/1.1/" xmlns:cc="http://creativecommons.org/ns#" xmlns:rdf="http://www.w3.org/1999/02/22-rdf-syntax-ns#">
   <cc:Work>
    <dc:type rdf:resource="http://purl.org/dc/dcmitype/StillImage"/>
    <dc:date>2024-05-29T07:58:52.874779</dc:date>
    <dc:format>image/svg+xml</dc:format>
    <dc:creator>
     <cc:Agent>
      <dc:title>Matplotlib v3.5.1, https://matplotlib.org/</dc:title>
     </cc:Agent>
    </dc:creator>
   </cc:Work>
  </rdf:RDF>
 </metadata>
 <defs>
  <style type="text/css">*{stroke-linejoin: round; stroke-linecap: butt}</style>
 </defs>
 <g id="figure_1">
  <g id="patch_1">
   <path d="M 0 345.6 
L 460.8 345.6 
L 460.8 0 
L 0 0 
z
" style="fill: #ffffff"/>
  </g>
  <g id="axes_1">
   <g id="patch_2">
    <path d="M 34.16 291.28 
L 453.192 291.28 
L 453.192 3 
L 34.16 3 
z
" style="fill: #ffffff"/>
   </g>
   <g id="matplotlib.axis_1">
    <g id="xtick_1">
     <g id="line2d_1">
      <path d="M 139.332757 291.28 
L 139.332757 3 
" clip-path="url(#p39b6455d41)" style="fill: none; stroke: #b0b0b0; stroke-width: 0.8; stroke-linecap: square"/>
     </g>
     <g id="line2d_2">
      <defs>
       <path id="m9286634905" d="M 0 0 
L 0 3.5 
" style="stroke: #000000; stroke-width: 0.8"/>
      </defs>
      <g>
       <use xlink:href="#m9286634905" x="139.332757" y="291.28" style="stroke: #000000; stroke-width: 0.8"/>
      </g>
     </g>
     <g id="text_1">
      <!-- -1 -->
      <g transform="translate(129.362444 313.476875)scale(0.2 -0.2)">
       <defs>
        <path id="DejaVuSans-2d" d="M 313 2009 
L 1997 2009 
L 1997 1497 
L 313 1497 
L 313 2009 
z
" transform="scale(0.015625)"/>
        <path id="DejaVuSans-31" d="M 794 531 
L 1825 531 
L 1825 4091 
L 703 3866 
L 703 4441 
L 1819 4666 
L 2450 4666 
L 2450 531 
L 3481 531 
L 3481 0 
L 794 0 
L 794 531 
z
" transform="scale(0.015625)"/>
       </defs>
       <use xlink:href="#DejaVuSans-2d"/>
       <use xlink:href="#DejaVuSans-31" x="36.083984"/>
      </g>
     </g>
    </g>
    <g id="xtick_2">
     <g id="line2d_3">
      <path d="M 348.019243 291.28 
L 348.019243 3 
" clip-path="url(#p39b6455d41)" style="fill: none; stroke: #b0b0b0; stroke-width: 0.8; stroke-linecap: square"/>
     </g>
     <g id="line2d_4">
      <g>
       <use xlink:href="#m9286634905" x="348.019243" y="291.28" style="stroke: #000000; stroke-width: 0.8"/>
      </g>
     </g>
     <g id="text_2">
      <!-- 1 -->
      <g transform="translate(341.656743 313.476875)scale(0.2 -0.2)">
       <use xlink:href="#DejaVuSans-31"/>
      </g>
     </g>
    </g>
    <g id="xtick_3">
     <g id="line2d_5">
      <defs>
       <path id="m9d759039e6" d="M 0 0 
L 0 2 
" style="stroke: #000000; stroke-width: 0.6"/>
      </defs>
      <g>
       <use xlink:href="#m9d759039e6" x="66.39996" y="291.28" style="stroke: #000000; stroke-width: 0.6"/>
      </g>
     </g>
    </g>
    <g id="xtick_4">
     <g id="line2d_6">
      <g>
       <use xlink:href="#m9d759039e6" x="84.773893" y="291.28" style="stroke: #000000; stroke-width: 0.6"/>
      </g>
     </g>
    </g>
    <g id="xtick_5">
     <g id="line2d_7">
      <g>
       <use xlink:href="#m9d759039e6" x="97.810406" y="291.28" style="stroke: #000000; stroke-width: 0.6"/>
      </g>
     </g>
    </g>
    <g id="xtick_6">
     <g id="line2d_8">
      <g>
       <use xlink:href="#m9d759039e6" x="107.922311" y="291.28" style="stroke: #000000; stroke-width: 0.6"/>
      </g>
     </g>
    </g>
    <g id="xtick_7">
     <g id="line2d_9">
      <g>
       <use xlink:href="#m9d759039e6" x="116.184339" y="291.28" style="stroke: #000000; stroke-width: 0.6"/>
      </g>
     </g>
    </g>
    <g id="xtick_8">
     <g id="line2d_10">
      <g>
       <use xlink:href="#m9d759039e6" x="123.169784" y="291.28" style="stroke: #000000; stroke-width: 0.6"/>
      </g>
     </g>
    </g>
    <g id="xtick_9">
     <g id="line2d_11">
      <g>
       <use xlink:href="#m9d759039e6" x="129.220852" y="291.28" style="stroke: #000000; stroke-width: 0.6"/>
      </g>
     </g>
    </g>
    <g id="xtick_10">
     <g id="line2d_12">
      <g>
       <use xlink:href="#m9d759039e6" x="134.558272" y="291.28" style="stroke: #000000; stroke-width: 0.6"/>
      </g>
     </g>
    </g>
    <g id="xtick_11">
     <g id="line2d_13">
      <g>
       <use xlink:href="#m9d759039e6" x="170.743203" y="291.28" style="stroke: #000000; stroke-width: 0.6"/>
      </g>
     </g>
    </g>
    <g id="xtick_12">
     <g id="line2d_14">
      <g>
       <use xlink:href="#m9d759039e6" x="189.117136" y="291.28" style="stroke: #000000; stroke-width: 0.6"/>
      </g>
     </g>
    </g>
    <g id="xtick_13">
     <g id="line2d_15">
      <g>
       <use xlink:href="#m9d759039e6" x="202.153649" y="291.28" style="stroke: #000000; stroke-width: 0.6"/>
      </g>
     </g>
    </g>
    <g id="xtick_14">
     <g id="line2d_16">
      <g>
       <use xlink:href="#m9d759039e6" x="212.265554" y="291.28" style="stroke: #000000; stroke-width: 0.6"/>
      </g>
     </g>
    </g>
    <g id="xtick_15">
     <g id="line2d_17">
      <g>
       <use xlink:href="#m9d759039e6" x="220.527582" y="291.28" style="stroke: #000000; stroke-width: 0.6"/>
      </g>
     </g>
    </g>
    <g id="xtick_16">
     <g id="line2d_18">
      <g>
       <use xlink:href="#m9d759039e6" x="227.513027" y="291.28" style="stroke: #000000; stroke-width: 0.6"/>
      </g>
     </g>
    </g>
    <g id="xtick_17">
     <g id="line2d_19">
      <g>
       <use xlink:href="#m9d759039e6" x="233.564095" y="291.28" style="stroke: #000000; stroke-width: 0.6"/>
      </g>
     </g>
    </g>
    <g id="xtick_18">
     <g id="line2d_20">
      <g>
       <use xlink:href="#m9d759039e6" x="238.901515" y="291.28" style="stroke: #000000; stroke-width: 0.6"/>
      </g>
     </g>
    </g>
    <g id="xtick_19">
     <g id="line2d_21">
      <g>
       <use xlink:href="#m9d759039e6" x="275.086446" y="291.28" style="stroke: #000000; stroke-width: 0.6"/>
      </g>
     </g>
    </g>
    <g id="xtick_20">
     <g id="line2d_22">
      <g>
       <use xlink:href="#m9d759039e6" x="293.460379" y="291.28" style="stroke: #000000; stroke-width: 0.6"/>
      </g>
     </g>
    </g>
    <g id="xtick_21">
     <g id="line2d_23">
      <g>
       <use xlink:href="#m9d759039e6" x="306.496892" y="291.28" style="stroke: #000000; stroke-width: 0.6"/>
      </g>
     </g>
    </g>
    <g id="xtick_22">
     <g id="line2d_24">
      <g>
       <use xlink:href="#m9d759039e6" x="316.608797" y="291.28" style="stroke: #000000; stroke-width: 0.6"/>
      </g>
     </g>
    </g>
    <g id="xtick_23">
     <g id="line2d_25">
      <g>
       <use xlink:href="#m9d759039e6" x="324.870825" y="291.28" style="stroke: #000000; stroke-width: 0.6"/>
      </g>
     </g>
    </g>
    <g id="xtick_24">
     <g id="line2d_26">
      <g>
       <use xlink:href="#m9d759039e6" x="331.85627" y="291.28" style="stroke: #000000; stroke-width: 0.6"/>
      </g>
     </g>
    </g>
    <g id="xtick_25">
     <g id="line2d_27">
      <g>
       <use xlink:href="#m9d759039e6" x="337.907338" y="291.28" style="stroke: #000000; stroke-width: 0.6"/>
      </g>
     </g>
    </g>
    <g id="xtick_26">
     <g id="line2d_28">
      <g>
       <use xlink:href="#m9d759039e6" x="343.244758" y="291.28" style="stroke: #000000; stroke-width: 0.6"/>
      </g>
     </g>
    </g>
    <g id="xtick_27">
     <g id="line2d_29">
      <g>
       <use xlink:href="#m9d759039e6" x="379.429689" y="291.28" style="stroke: #000000; stroke-width: 0.6"/>
      </g>
     </g>
    </g>
    <g id="xtick_28">
     <g id="line2d_30">
      <g>
       <use xlink:href="#m9d759039e6" x="397.803622" y="291.28" style="stroke: #000000; stroke-width: 0.6"/>
      </g>
     </g>
    </g>
    <g id="xtick_29">
     <g id="line2d_31">
      <g>
       <use xlink:href="#m9d759039e6" x="410.840135" y="291.28" style="stroke: #000000; stroke-width: 0.6"/>
      </g>
     </g>
    </g>
    <g id="xtick_30">
     <g id="line2d_32">
      <g>
       <use xlink:href="#m9d759039e6" x="420.95204" y="291.28" style="stroke: #000000; stroke-width: 0.6"/>
      </g>
     </g>
    </g>
    <g id="xtick_31">
     <g id="line2d_33">
      <g>
       <use xlink:href="#m9d759039e6" x="429.214068" y="291.28" style="stroke: #000000; stroke-width: 0.6"/>
      </g>
     </g>
    </g>
    <g id="xtick_32">
     <g id="line2d_34">
      <g>
       <use xlink:href="#m9d759039e6" x="436.199513" y="291.28" style="stroke: #000000; stroke-width: 0.6"/>
      </g>
     </g>
    </g>
    <g id="xtick_33">
     <g id="line2d_35">
      <g>
       <use xlink:href="#m9d759039e6" x="442.250581" y="291.28" style="stroke: #000000; stroke-width: 0.6"/>
      </g>
     </g>
    </g>
    <g id="xtick_34">
     <g id="line2d_36">
      <g>
       <use xlink:href="#m9d759039e6" x="447.588001" y="291.28" style="stroke: #000000; stroke-width: 0.6"/>
      </g>
     </g>
    </g>
    <g id="text_3">
     <!-- log10 of FEvals ratio -->
     <g transform="translate(141.371312 336.833125)scale(0.2 -0.2)">
      <defs>
       <path id="DejaVuSans-6c" d="M 603 4863 
L 1178 4863 
L 1178 0 
L 603 0 
L 603 4863 
z
" transform="scale(0.015625)"/>
       <path id="DejaVuSans-6f" d="M 1959 3097 
Q 1497 3097 1228 2736 
Q 959 2375 959 1747 
Q 959 1119 1226 758 
Q 1494 397 1959 397 
Q 2419 397 2687 759 
Q 2956 1122 2956 1747 
Q 2956 2369 2687 2733 
Q 2419 3097 1959 3097 
z
M 1959 3584 
Q 2709 3584 3137 3096 
Q 3566 2609 3566 1747 
Q 3566 888 3137 398 
Q 2709 -91 1959 -91 
Q 1206 -91 779 398 
Q 353 888 353 1747 
Q 353 2609 779 3096 
Q 1206 3584 1959 3584 
z
" transform="scale(0.015625)"/>
       <path id="DejaVuSans-67" d="M 2906 1791 
Q 2906 2416 2648 2759 
Q 2391 3103 1925 3103 
Q 1463 3103 1205 2759 
Q 947 2416 947 1791 
Q 947 1169 1205 825 
Q 1463 481 1925 481 
Q 2391 481 2648 825 
Q 2906 1169 2906 1791 
z
M 3481 434 
Q 3481 -459 3084 -895 
Q 2688 -1331 1869 -1331 
Q 1566 -1331 1297 -1286 
Q 1028 -1241 775 -1147 
L 775 -588 
Q 1028 -725 1275 -790 
Q 1522 -856 1778 -856 
Q 2344 -856 2625 -561 
Q 2906 -266 2906 331 
L 2906 616 
Q 2728 306 2450 153 
Q 2172 0 1784 0 
Q 1141 0 747 490 
Q 353 981 353 1791 
Q 353 2603 747 3093 
Q 1141 3584 1784 3584 
Q 2172 3584 2450 3431 
Q 2728 3278 2906 2969 
L 2906 3500 
L 3481 3500 
L 3481 434 
z
" transform="scale(0.015625)"/>
       <path id="DejaVuSans-30" d="M 2034 4250 
Q 1547 4250 1301 3770 
Q 1056 3291 1056 2328 
Q 1056 1369 1301 889 
Q 1547 409 2034 409 
Q 2525 409 2770 889 
Q 3016 1369 3016 2328 
Q 3016 3291 2770 3770 
Q 2525 4250 2034 4250 
z
M 2034 4750 
Q 2819 4750 3233 4129 
Q 3647 3509 3647 2328 
Q 3647 1150 3233 529 
Q 2819 -91 2034 -91 
Q 1250 -91 836 529 
Q 422 1150 422 2328 
Q 422 3509 836 4129 
Q 1250 4750 2034 4750 
z
" transform="scale(0.015625)"/>
       <path id="DejaVuSans-20" transform="scale(0.015625)"/>
       <path id="DejaVuSans-66" d="M 2375 4863 
L 2375 4384 
L 1825 4384 
Q 1516 4384 1395 4259 
Q 1275 4134 1275 3809 
L 1275 3500 
L 2222 3500 
L 2222 3053 
L 1275 3053 
L 1275 0 
L 697 0 
L 697 3053 
L 147 3053 
L 147 3500 
L 697 3500 
L 697 3744 
Q 697 4328 969 4595 
Q 1241 4863 1831 4863 
L 2375 4863 
z
" transform="scale(0.015625)"/>
       <path id="DejaVuSans-46" d="M 628 4666 
L 3309 4666 
L 3309 4134 
L 1259 4134 
L 1259 2759 
L 3109 2759 
L 3109 2228 
L 1259 2228 
L 1259 0 
L 628 0 
L 628 4666 
z
" transform="scale(0.015625)"/>
       <path id="DejaVuSans-45" d="M 628 4666 
L 3578 4666 
L 3578 4134 
L 1259 4134 
L 1259 2753 
L 3481 2753 
L 3481 2222 
L 1259 2222 
L 1259 531 
L 3634 531 
L 3634 0 
L 628 0 
L 628 4666 
z
" transform="scale(0.015625)"/>
       <path id="DejaVuSans-76" d="M 191 3500 
L 800 3500 
L 1894 563 
L 2988 3500 
L 3597 3500 
L 2284 0 
L 1503 0 
L 191 3500 
z
" transform="scale(0.015625)"/>
       <path id="DejaVuSans-61" d="M 2194 1759 
Q 1497 1759 1228 1600 
Q 959 1441 959 1056 
Q 959 750 1161 570 
Q 1363 391 1709 391 
Q 2188 391 2477 730 
Q 2766 1069 2766 1631 
L 2766 1759 
L 2194 1759 
z
M 3341 1997 
L 3341 0 
L 2766 0 
L 2766 531 
Q 2569 213 2275 61 
Q 1981 -91 1556 -91 
Q 1019 -91 701 211 
Q 384 513 384 1019 
Q 384 1609 779 1909 
Q 1175 2209 1959 2209 
L 2766 2209 
L 2766 2266 
Q 2766 2663 2505 2880 
Q 2244 3097 1772 3097 
Q 1472 3097 1187 3025 
Q 903 2953 641 2809 
L 641 3341 
Q 956 3463 1253 3523 
Q 1550 3584 1831 3584 
Q 2591 3584 2966 3190 
Q 3341 2797 3341 1997 
z
" transform="scale(0.015625)"/>
       <path id="DejaVuSans-73" d="M 2834 3397 
L 2834 2853 
Q 2591 2978 2328 3040 
Q 2066 3103 1784 3103 
Q 1356 3103 1142 2972 
Q 928 2841 928 2578 
Q 928 2378 1081 2264 
Q 1234 2150 1697 2047 
L 1894 2003 
Q 2506 1872 2764 1633 
Q 3022 1394 3022 966 
Q 3022 478 2636 193 
Q 2250 -91 1575 -91 
Q 1294 -91 989 -36 
Q 684 19 347 128 
L 347 722 
Q 666 556 975 473 
Q 1284 391 1588 391 
Q 1994 391 2212 530 
Q 2431 669 2431 922 
Q 2431 1156 2273 1281 
Q 2116 1406 1581 1522 
L 1381 1569 
Q 847 1681 609 1914 
Q 372 2147 372 2553 
Q 372 3047 722 3315 
Q 1072 3584 1716 3584 
Q 2034 3584 2315 3537 
Q 2597 3491 2834 3397 
z
" transform="scale(0.015625)"/>
       <path id="DejaVuSans-72" d="M 2631 2963 
Q 2534 3019 2420 3045 
Q 2306 3072 2169 3072 
Q 1681 3072 1420 2755 
Q 1159 2438 1159 1844 
L 1159 0 
L 581 0 
L 581 3500 
L 1159 3500 
L 1159 2956 
Q 1341 3275 1631 3429 
Q 1922 3584 2338 3584 
Q 2397 3584 2469 3576 
Q 2541 3569 2628 3553 
L 2631 2963 
z
" transform="scale(0.015625)"/>
       <path id="DejaVuSans-74" d="M 1172 4494 
L 1172 3500 
L 2356 3500 
L 2356 3053 
L 1172 3053 
L 1172 1153 
Q 1172 725 1289 603 
Q 1406 481 1766 481 
L 2356 481 
L 2356 0 
L 1766 0 
Q 1100 0 847 248 
Q 594 497 594 1153 
L 594 3053 
L 172 3053 
L 172 3500 
L 594 3500 
L 594 4494 
L 1172 4494 
z
" transform="scale(0.015625)"/>
       <path id="DejaVuSans-69" d="M 603 3500 
L 1178 3500 
L 1178 0 
L 603 0 
L 603 3500 
z
M 603 4863 
L 1178 4863 
L 1178 4134 
L 603 4134 
L 603 4863 
z
" transform="scale(0.015625)"/>
      </defs>
      <use xlink:href="#DejaVuSans-6c"/>
      <use xlink:href="#DejaVuSans-6f" x="27.783203"/>
      <use xlink:href="#DejaVuSans-67" x="88.964844"/>
      <use xlink:href="#DejaVuSans-31" x="152.441406"/>
      <use xlink:href="#DejaVuSans-30" x="216.064453"/>
      <use xlink:href="#DejaVuSans-20" x="279.6875"/>
      <use xlink:href="#DejaVuSans-6f" x="311.474609"/>
      <use xlink:href="#DejaVuSans-66" x="372.65625"/>
      <use xlink:href="#DejaVuSans-20" x="407.861328"/>
      <use xlink:href="#DejaVuSans-46" x="439.648438"/>
      <use xlink:href="#DejaVuSans-45" x="497.167969"/>
      <use xlink:href="#DejaVuSans-76" x="560.351562"/>
      <use xlink:href="#DejaVuSans-61" x="619.53125"/>
      <use xlink:href="#DejaVuSans-6c" x="680.810547"/>
      <use xlink:href="#DejaVuSans-73" x="708.59375"/>
      <use xlink:href="#DejaVuSans-20" x="760.693359"/>
      <use xlink:href="#DejaVuSans-72" x="792.480469"/>
      <use xlink:href="#DejaVuSans-61" x="833.59375"/>
      <use xlink:href="#DejaVuSans-74" x="894.873047"/>
      <use xlink:href="#DejaVuSans-69" x="934.082031"/>
      <use xlink:href="#DejaVuSans-6f" x="961.865234"/>
     </g>
    </g>
   </g>
   <g id="matplotlib.axis_2">
    <g id="ytick_1">
     <g id="line2d_37">
      <path d="M 34.16 288.453725 
L 453.192 288.453725 
" clip-path="url(#p39b6455d41)" style="fill: none; stroke: #b0b0b0; stroke-width: 0.8; stroke-linecap: square"/>
     </g>
     <g id="line2d_38">
      <defs>
       <path id="m59d817e29a" d="M 0 0 
L -3.5 0 
" style="stroke: #000000; stroke-width: 0.8"/>
      </defs>
      <g>
       <use xlink:href="#m59d817e29a" x="34.16" y="288.453725" style="stroke: #000000; stroke-width: 0.8"/>
      </g>
     </g>
    </g>
    <g id="ytick_2">
     <g id="line2d_39">
      <path d="M 34.16 217.796863 
L 453.192 217.796863 
" clip-path="url(#p39b6455d41)" style="fill: none; stroke: #b0b0b0; stroke-width: 0.8; stroke-linecap: square"/>
     </g>
     <g id="line2d_40">
      <g>
       <use xlink:href="#m59d817e29a" x="34.16" y="217.796863" style="stroke: #000000; stroke-width: 0.8"/>
      </g>
     </g>
    </g>
    <g id="ytick_3">
     <g id="line2d_41">
      <path d="M 34.16 147.14 
L 453.192 147.14 
" clip-path="url(#p39b6455d41)" style="fill: none; stroke: #b0b0b0; stroke-width: 0.8; stroke-linecap: square"/>
     </g>
     <g id="line2d_42">
      <g>
       <use xlink:href="#m59d817e29a" x="34.16" y="147.14" style="stroke: #000000; stroke-width: 0.8"/>
      </g>
     </g>
    </g>
    <g id="ytick_4">
     <g id="line2d_43">
      <path d="M 34.16 76.483137 
L 453.192 76.483137 
" clip-path="url(#p39b6455d41)" style="fill: none; stroke: #b0b0b0; stroke-width: 0.8; stroke-linecap: square"/>
     </g>
     <g id="line2d_44">
      <g>
       <use xlink:href="#m59d817e29a" x="34.16" y="76.483137" style="stroke: #000000; stroke-width: 0.8"/>
      </g>
     </g>
    </g>
    <g id="ytick_5">
     <g id="line2d_45">
      <path d="M 34.16 5.826275 
L 453.192 5.826275 
" clip-path="url(#p39b6455d41)" style="fill: none; stroke: #b0b0b0; stroke-width: 0.8; stroke-linecap: square"/>
     </g>
     <g id="line2d_46">
      <g>
       <use xlink:href="#m59d817e29a" x="34.16" y="5.826275" style="stroke: #000000; stroke-width: 0.8"/>
      </g>
     </g>
    </g>
    <g id="text_4">
     <!-- proportion of trials -->
     <g transform="translate(19.000625 240.14625)rotate(-90)scale(0.2 -0.2)">
      <defs>
       <path id="DejaVuSans-70" d="M 1159 525 
L 1159 -1331 
L 581 -1331 
L 581 3500 
L 1159 3500 
L 1159 2969 
Q 1341 3281 1617 3432 
Q 1894 3584 2278 3584 
Q 2916 3584 3314 3078 
Q 3713 2572 3713 1747 
Q 3713 922 3314 415 
Q 2916 -91 2278 -91 
Q 1894 -91 1617 61 
Q 1341 213 1159 525 
z
M 3116 1747 
Q 3116 2381 2855 2742 
Q 2594 3103 2138 3103 
Q 1681 3103 1420 2742 
Q 1159 2381 1159 1747 
Q 1159 1113 1420 752 
Q 1681 391 2138 391 
Q 2594 391 2855 752 
Q 3116 1113 3116 1747 
z
" transform="scale(0.015625)"/>
       <path id="DejaVuSans-6e" d="M 3513 2113 
L 3513 0 
L 2938 0 
L 2938 2094 
Q 2938 2591 2744 2837 
Q 2550 3084 2163 3084 
Q 1697 3084 1428 2787 
Q 1159 2491 1159 1978 
L 1159 0 
L 581 0 
L 581 3500 
L 1159 3500 
L 1159 2956 
Q 1366 3272 1645 3428 
Q 1925 3584 2291 3584 
Q 2894 3584 3203 3211 
Q 3513 2838 3513 2113 
z
" transform="scale(0.015625)"/>
      </defs>
      <use xlink:href="#DejaVuSans-70"/>
      <use xlink:href="#DejaVuSans-72" x="63.476562"/>
      <use xlink:href="#DejaVuSans-6f" x="102.339844"/>
      <use xlink:href="#DejaVuSans-70" x="163.521484"/>
      <use xlink:href="#DejaVuSans-6f" x="226.998047"/>
      <use xlink:href="#DejaVuSans-72" x="288.179688"/>
      <use xlink:href="#DejaVuSans-74" x="329.292969"/>
      <use xlink:href="#DejaVuSans-69" x="368.501953"/>
      <use xlink:href="#DejaVuSans-6f" x="396.285156"/>
      <use xlink:href="#DejaVuSans-6e" x="457.466797"/>
      <use xlink:href="#DejaVuSans-20" x="520.845703"/>
      <use xlink:href="#DejaVuSans-6f" x="552.632812"/>
      <use xlink:href="#DejaVuSans-66" x="613.814453"/>
      <use xlink:href="#DejaVuSans-20" x="649.019531"/>
      <use xlink:href="#DejaVuSans-74" x="680.806641"/>
      <use xlink:href="#DejaVuSans-72" x="720.015625"/>
      <use xlink:href="#DejaVuSans-69" x="761.128906"/>
      <use xlink:href="#DejaVuSans-61" x="788.912109"/>
      <use xlink:href="#DejaVuSans-6c" x="850.191406"/>
      <use xlink:href="#DejaVuSans-73" x="877.974609"/>
     </g>
    </g>
   </g>
   <g id="line2d_47">
    <path d="M 34.16 288.453725 
L 75.709796 288.453725 
L 75.709796 287.951277 
L 83.171206 287.951277 
L 83.171206 287.448828 
L 83.610741 287.448828 
L 83.610741 286.946379 
L 83.876523 286.946379 
L 83.876523 286.44393 
L 85.247509 286.44393 
L 85.247509 286.192706 
L 85.676183 286.192706 
L 85.676183 285.690257 
L 86.194234 285.690257 
L 86.194234 285.187808 
L 86.306259 285.187808 
L 86.306259 284.936584 
L 87.822355 284.936584 
L 87.822355 284.685359 
L 88.062484 284.685359 
L 88.062484 284.434135 
L 88.768762 284.434135 
L 88.768762 284.182911 
L 90.310004 284.182911 
L 90.331954 283.429237 
L 90.441216 283.429237 
L 90.441216 283.178013 
L 91.08465 283.178013 
L 91.08465 282.675564 
L 92.674838 282.675564 
L 92.674838 282.42434 
L 93.334117 282.42434 
L 93.334117 282.173115 
L 93.675833 282.173115 
L 93.675833 281.921891 
L 94.734583 281.921891 
L 94.797377 281.168218 
L 95.422085 281.168218 
L 95.422085 280.916993 
L 96.033092 280.916993 
L 96.033092 280.665769 
L 96.250679 280.665769 
L 96.250679 280.414545 
L 97.197086 280.414545 
L 97.197086 280.16332 
L 98.389871 280.16332 
L 98.389871 279.912096 
L 98.869541 279.912096 
L 98.869541 279.660871 
L 99.690837 279.660871 
L 99.690837 279.409647 
L 100.385854 279.409647 
L 100.385854 279.158423 
L 101.762442 279.158423 
L 101.776934 278.404749 
L 102.258787 278.404749 
L 102.289673 277.902301 
L 102.41048 277.902301 
L 102.41048 277.651076 
L 102.698322 277.651076 
L 102.698322 277.399852 
L 102.964104 277.399852 
L 102.964104 277.148627 
L 103.165258 277.148627 
L 103.165258 276.897403 
L 103.446023 276.897403 
L 103.446023 276.646179 
L 103.850409 276.646179 
L 103.850409 276.394954 
L 104.763764 276.394954 
L 104.795851 275.641281 
L 105.150309 275.641281 
L 105.150309 275.390057 
L 105.281815 275.390057 
L 105.281815 275.138832 
L 105.711351 275.138832 
L 105.711351 274.887608 
L 106.209059 274.887608 
L 106.209059 274.636383 
L 106.436417 274.636383 
L 106.436417 274.385159 
L 106.818195 274.385159 
L 106.836669 273.88271 
L 107.044545 273.88271 
L 107.044545 273.631486 
L 107.725155 273.631486 
L 107.802516 273.129037 
L 107.847264 273.129037 
L 107.895419 272.626588 
L 108.119161 272.626588 
L 108.119161 272.375364 
L 108.286799 272.375364 
L 108.286799 272.124139 
L 108.552581 272.124139 
L 108.552581 271.872915 
L 108.671562 271.872915 
L 108.683937 271.370466 
L 109.228329 271.370466 
L 109.228329 271.119242 
L 109.411515 271.119242 
L 109.458583 270.114344 
L 109.842095 270.114344 
L 109.842095 269.86312 
L 110.344017 269.86312 
L 110.357922 269.109447 
L 110.717998 269.109447 
L 110.717998 268.858222 
L 110.838804 268.858222 
L 110.870292 268.355773 
L 111.048771 268.355773 
L 111.048771 268.104549 
L 111.874347 268.104549 
L 111.874347 267.853325 
L 112.030377 267.853325 
L 112.030377 267.6021 
L 113.236918 267.6021 
L 113.236918 267.350876 
L 114.407025 267.350876 
L 114.407025 267.099651 
L 114.639734 267.099651 
L 114.639734 266.848427 
L 114.923278 266.848427 
L 115.008012 266.345978 
L 115.324885 266.345978 
L 115.324885 266.094754 
L 115.47287 266.094754 
L 115.47287 265.843529 
L 115.823256 265.843529 
L 115.823256 265.592305 
L 116.23084 265.592305 
L 116.326094 265.089856 
L 116.689739 265.089856 
L 116.689739 264.838632 
L 117.011245 264.838632 
L 117.011245 264.587407 
L 117.129274 264.587407 
L 117.129274 264.336183 
L 117.303505 264.336183 
L 117.395056 263.58251 
L 117.74304 263.58251 
L 117.74304 263.331285 
L 118.008822 263.331285 
L 118.008822 263.080061 
L 118.292671 263.080061 
L 118.292671 262.828837 
L 119.194716 262.828837 
L 119.194716 262.577612 
L 119.47293 262.577612 
L 119.47293 262.326388 
L 119.593637 262.326388 
L 119.593637 262.075163 
L 119.712767 262.075163 
L 119.808482 261.572715 
L 119.979031 261.572715 
L 119.979031 261.32149 
L 120.326533 261.32149 
L 120.326533 261.070266 
L 120.864514 261.070266 
L 120.864514 260.819041 
L 121.279997 260.819041 
L 121.279997 260.567817 
L 121.72045 260.567817 
L 121.72045 260.316593 
L 122.192474 260.316593 
L 122.213217 259.562919 
L 122.31328 259.562919 
L 122.31328 259.311695 
L 122.495096 259.311695 
L 122.495096 258.809246 
L 123.348823 258.809246 
L 123.348823 258.558022 
L 123.850487 258.558022 
L 123.883432 257.804349 
L 123.99964 257.804349 
L 124.085284 257.050675 
L 124.464253 257.050675 
L 124.464253 256.799451 
L 125.035183 256.799451 
L 125.035183 256.548227 
L 125.877397 256.548227 
L 125.877397 256.045778 
L 126.452992 256.045778 
L 126.452992 255.794553 
L 126.947346 255.794553 
L 126.947346 255.543329 
L 127.326786 255.543329 
L 127.326786 255.292105 
L 127.443538 255.292105 
L 127.443538 254.538431 
L 127.705316 254.538431 
L 127.705316 254.287207 
L 128.633706 254.287207 
L 128.633706 254.035983 
L 129.220852 254.035983 
L 129.220852 253.784758 
L 129.391676 253.784758 
L 129.471909 253.282309 
L 131.070729 253.282309 
L 131.070729 252.779861 
L 134.197189 252.779861 
L 134.197189 252.528636 
L 134.788196 252.528636 
L 134.788196 252.277412 
L 135.227731 252.277412 
L 135.295466 251.774963 
L 135.493513 251.774963 
L 135.493513 251.523739 
L 135.909232 251.523739 
L 135.909232 251.272514 
L 136.107487 251.272514 
L 136.206297 250.770065 
L 137.166237 250.770065 
L 137.166237 250.518841 
L 137.293173 250.518841 
L 137.293173 250.267617 
L 137.811224 250.267617 
L 137.811224 250.016392 
L 138.143895 250.016392 
L 138.143895 249.765168 
L 138.314384 249.765168 
L 138.314384 249.513943 
L 138.682333 249.513943 
L 138.682333 249.262719 
L 138.92815 249.262719 
L 138.92815 249.011495 
L 139.332757 249.011495 
L 139.332757 248.76027 
L 139.62874 248.76027 
L 139.62874 248.509046 
L 141.300797 248.509046 
L 141.301194 248.006597 
L 141.657148 248.006597 
L 141.657148 247.504148 
L 141.948944 247.504148 
L 141.948944 247.252924 
L 143.667707 247.252924 
L 143.667707 247.001699 
L 144.107242 247.001699 
L 144.194095 246.499251 
L 144.373024 246.499251 
L 144.373024 246.248026 
L 144.964978 246.248026 
L 145.04732 245.745577 
L 145.596912 245.745577 
L 145.596912 245.494353 
L 145.817471 245.494353 
L 145.817471 245.243129 
L 146.172684 245.243129 
L 146.282062 244.74068 
L 146.690735 244.74068 
L 146.690735 244.489455 
L 146.83559 244.489455 
L 146.889275 243.987007 
L 147.150945 243.987007 
L 147.233702 243.484558 
L 147.594785 243.484558 
L 147.594785 242.982109 
L 147.894339 242.982109 
L 147.894339 242.730885 
L 148.556195 242.730885 
L 148.556195 242.47966 
L 149.249849 242.47966 
L 149.249849 242.228436 
L 149.410436 242.228436 
L 149.444662 240.972314 
L 150.356843 240.972314 
L 150.356843 240.721089 
L 150.550814 240.721089 
L 150.553455 240.218641 
L 150.668213 240.218641 
L 150.668213 239.967416 
L 150.828455 239.967416 
L 150.828455 239.716192 
L 151.799254 239.716192 
L 151.891815 239.213743 
L 152.029297 239.213743 
L 152.029297 238.962519 
L 152.36927 238.962519 
L 152.36927 238.711294 
L 153.149651 238.711294 
L 153.149651 238.46007 
L 153.270458 238.46007 
L 153.313381 237.957621 
L 153.393923 237.957621 
L 153.393923 237.706397 
L 154.306 237.706397 
L 154.306 237.455172 
L 154.612355 237.455172 
L 154.612355 237.203948 
L 154.922198 237.203948 
L 154.922198 236.952723 
L 155.05189 236.952723 
L 155.056195 236.450275 
L 155.317672 236.450275 
L 155.317672 236.19905 
L 155.49573 236.19905 
L 155.49573 235.947826 
L 155.73175 235.947826 
L 155.761512 235.445377 
L 156.017605 235.445377 
L 156.017605 235.194153 
L 156.325015 235.194153 
L 156.412841 234.440479 
L 156.45714 234.440479 
L 156.45714 234.189255 
L 156.722922 234.189255 
L 156.722922 233.938031 
L 157.010165 233.938031 
L 157.117332 233.435582 
L 157.561172 233.435582 
L 157.635383 232.933133 
L 157.904523 232.933133 
L 157.904523 232.681908 
L 158.079223 232.681908 
L 158.129623 231.928235 
L 158.522582 231.928235 
L 158.569158 231.174562 
L 158.662494 231.174562 
L 158.702679 230.672113 
L 158.83494 230.672113 
L 158.853984 229.667216 
L 159.040633 229.667216 
L 159.145663 228.913542 
L 159.39593 228.913542 
L 159.39593 228.662318 
L 159.977951 228.662318 
L 160.031081 227.65742 
L 160.631298 227.65742 
L 160.661759 226.903747 
L 160.774791 226.903747 
L 160.774791 226.652523 
L 161.152651 226.652523 
L 161.214326 226.150074 
L 161.278917 226.150074 
L 161.278917 225.89885 
L 161.480108 225.89885 
L 161.480108 225.647625 
L 161.608166 225.647625 
L 161.608166 225.396401 
L 161.773103 225.396401 
L 161.773103 225.145176 
L 162.216943 225.145176 
L 162.273434 224.642728 
L 162.481175 224.642728 
L 162.481175 223.63783 
L 162.892707 223.63783 
L 162.892707 223.386606 
L 163.178353 223.386606 
L 163.28062 222.632932 
L 163.797819 222.632932 
L 163.877754 222.130484 
L 163.998561 222.130484 
L 163.998561 221.879259 
L 165.034103 221.879259 
L 165.034103 221.628035 
L 165.290371 221.628035 
L 165.292352 221.125586 
L 165.547174 221.125586 
L 165.607635 220.623137 
L 165.99093 220.623137 
L 165.99093 220.371913 
L 166.173521 220.371913 
L 166.173521 220.120688 
L 166.424156 220.120688 
L 166.430465 219.61824 
L 166.696247 219.61824 
L 166.696247 219.367015 
L 167.576338 219.367015 
L 167.576338 219.115791 
L 167.799966 219.115791 
L 167.818595 218.613342 
L 167.935539 218.613342 
L 167.935539 218.362118 
L 168.261488 218.362118 
L 168.261488 218.110893 
L 168.495907 218.110893 
L 168.532243 217.608444 
L 168.632626 217.608444 
L 168.632626 217.35722 
L 169.013958 217.35722 
L 169.013958 217.105996 
L 169.390597 217.105996 
L 169.390597 216.854771 
L 170.354117 216.854771 
L 170.354117 216.603547 
L 170.743203 216.603547 
L 170.793652 216.101098 
L 171.059434 216.101098 
L 171.059434 215.849874 
L 171.229275 215.849874 
L 171.229275 215.598649 
L 172.530241 215.598649 
L 172.59308 215.0962 
L 172.859094 215.0962 
L 172.859094 214.844976 
L 173.067594 214.844976 
L 173.151678 213.840078 
L 173.218082 213.840078 
L 173.218082 213.588854 
L 173.377145 213.588854 
L 173.377145 213.33763 
L 173.661922 213.33763 
L 173.661922 213.086405 
L 173.830206 213.086405 
L 173.869663 212.583956 
L 174.055003 212.583956 
L 174.055003 212.081508 
L 174.623333 212.081508 
L 174.623333 211.830283 
L 175.129077 211.830283 
L 175.129077 211.579059 
L 175.249884 211.579059 
L 175.249884 211.327834 
L 176.237 211.327834 
L 176.319756 210.071712 
L 176.536061 210.071712 
L 176.536061 209.820488 
L 176.68084 209.820488 
L 176.73535 209.318039 
L 177.227917 209.318039 
L 177.227917 209.066815 
L 177.494387 209.066815 
L 177.514865 208.313142 
L 177.64225 208.313142 
L 177.64225 208.061917 
L 178.644148 208.061917 
L 178.644148 207.559468 
L 178.855982 207.559468 
L 178.855982 207.308244 
L 179.380518 207.308244 
L 179.380518 207.05702 
L 179.754268 207.05702 
L 179.754268 206.805795 
L 179.883949 206.805795 
L 179.883949 206.554571 
L 180.64192 206.554571 
L 180.64192 206.303346 
L 180.855108 206.303346 
L 180.855108 205.800898 
L 181.432386 205.800898 
L 181.455325 205.298449 
L 182.399436 205.298449 
L 182.399436 205.047224 
L 182.709717 205.047224 
L 182.709717 204.796 
L 183.179499 204.796 
L 183.179499 204.544776 
L 183.779716 204.544776 
L 183.779716 204.293551 
L 184.596658 204.293551 
L 184.596658 204.042327 
L 184.977557 204.042327 
L 184.977557 203.791102 
L 185.169075 203.791102 
L 185.169075 203.539878 
L 185.489945 203.539878 
L 185.489945 203.288654 
L 186.373898 203.288654 
L 186.373898 203.037429 
L 186.906176 203.037429 
L 186.906176 202.786205 
L 187.483454 202.786205 
L 187.483454 202.53498 
L 187.615575 202.53498 
L 187.631242 202.032532 
L 187.940039 202.032532 
L 187.966605 200.525185 
L 188.335812 200.525185 
L 188.335812 200.273961 
L 188.831232 200.273961 
L 188.831232 200.022736 
L 188.959844 200.022736 
L 189.00049 199.520288 
L 189.878762 199.520288 
L 189.878762 199.269063 
L 190.220327 199.269063 
L 190.26443 198.51539 
L 190.516586 198.51539 
L 190.516586 198.264166 
L 190.653408 198.264166 
L 190.653408 197.761717 
L 191.462993 197.761717 
L 191.462993 197.510492 
L 191.978762 197.510492 
L 191.978762 197.259268 
L 192.243596 197.259268 
L 192.243596 196.756819 
L 192.511341 196.756819 
L 192.511341 196.505595 
L 192.744327 196.505595 
L 192.744327 196.25437 
L 193.135447 196.25437 
L 193.142584 195.751922 
L 193.654365 195.751922 
L 193.654365 195.500697 
L 193.891621 195.500697 
L 193.891621 194.4958 
L 194.098205 194.4958 
L 194.098205 194.244575 
L 194.386879 194.244575 
L 194.386879 193.993351 
L 194.69369 193.993351 
L 194.69369 193.239678 
L 195.059616 193.239678 
L 195.059616 192.988453 
L 195.180306 192.988453 
L 195.180306 192.737229 
L 195.60185 192.737229 
L 195.60185 192.486004 
L 195.734657 192.486004 
L 195.734657 192.23478 
L 196.028348 192.23478 
L 196.045256 191.732331 
L 196.59784 191.732331 
L 196.671299 191.229882 
L 197.018081 191.229882 
L 197.123753 190.476209 
L 197.171633 190.476209 
L 197.171633 190.224985 
L 197.318546 190.224985 
L 197.318546 189.97376 
L 197.431165 189.97376 
L 197.431165 189.722536 
L 197.730048 189.722536 
L 197.762386 189.220087 
L 198.116315 189.220087 
L 198.116315 188.968863 
L 198.503974 188.968863 
L 198.503974 188.717638 
L 198.723796 188.717638 
L 198.824434 187.963965 
L 199.246144 187.963965 
L 199.246144 187.712741 
L 199.816801 187.712741 
L 199.816801 187.461516 
L 200.192552 187.461516 
L 200.192552 187.210292 
L 200.835814 187.210292 
L 200.835814 186.959068 
L 201.084102 186.959068 
L 201.084102 186.707843 
L 201.231374 186.707843 
L 201.231374 186.456619 
L 201.865006 186.456619 
L 201.865006 186.205394 
L 202.385068 186.205394 
L 202.385068 185.95417 
L 202.579152 185.95417 
L 202.579152 185.702946 
L 202.948682 185.702946 
L 202.963913 184.949272 
L 203.11115 184.949272 
L 203.11115 184.698048 
L 203.35149 184.698048 
L 203.35149 184.446824 
L 203.480982 184.446824 
L 203.480982 184.195599 
L 203.968247 184.195599 
L 204.003526 183.190702 
L 204.1699 183.190702 
L 204.1699 182.939477 
L 204.757907 182.939477 
L 204.757907 182.688253 
L 204.983904 182.688253 
L 205.032941 182.185804 
L 205.104711 182.185804 
L 205.104711 181.93458 
L 205.280109 181.93458 
L 205.280109 181.683355 
L 205.685996 181.683355 
L 205.78084 181.180906 
L 206.140253 181.180906 
L 206.160723 180.678458 
L 206.632403 180.678458 
L 206.632403 180.427233 
L 206.845874 180.427233 
L 206.864444 179.924784 
L 207.054186 179.924784 
L 207.12328 179.422336 
L 207.491069 179.422336 
L 207.573536 178.919887 
L 207.946507 178.919887 
L 207.946507 178.668662 
L 208.155576 178.668662 
L 208.187302 178.166214 
L 208.304857 178.166214 
L 208.304857 177.914989 
L 208.638363 177.914989 
L 208.738068 176.910092 
L 209.396127 176.910092 
L 209.396127 176.658867 
L 209.738776 176.658867 
L 209.81366 175.905194 
L 209.867339 175.905194 
L 209.941163 174.649072 
L 210.054594 174.649072 
L 210.124257 173.895399 
L 210.496747 173.895399 
L 210.496747 173.644174 
L 211.088457 173.644174 
L 211.197758 172.890501 
L 212.265554 172.890501 
L 212.265554 172.388052 
L 212.600575 172.388052 
L 212.642663 171.885603 
L 213.060308 171.885603 
L 213.060308 171.634379 
L 213.285725 171.634379 
L 213.331855 171.13193 
L 213.704268 171.13193 
L 213.767869 170.378257 
L 213.834269 170.378257 
L 213.834269 170.127033 
L 214.589945 170.127033 
L 214.589945 169.875808 
L 214.869812 169.875808 
L 214.869812 169.624584 
L 215.059002 169.624584 
L 215.059002 169.373359 
L 215.392014 169.373359 
L 215.392014 169.122135 
L 215.892745 169.122135 
L 215.951788 168.619686 
L 216.253512 168.619686 
L 216.253512 168.368462 
L 216.711833 168.368462 
L 216.726434 167.363564 
L 216.877907 167.363564 
L 216.877907 167.11234 
L 217.139525 167.11234 
L 217.139525 166.861115 
L 217.554478 166.861115 
L 217.554478 166.609891 
L 217.782663 166.609891 
L 217.782663 166.358667 
L 218.316622 166.358667 
L 218.316622 165.604993 
L 218.468335 165.604993 
L 218.487303 165.102545 
L 218.598963 165.102545 
L 218.598963 164.85132 
L 219.226305 164.85132 
L 219.226305 164.600096 
L 219.434222 164.600096 
L 219.434222 164.348871 
L 219.835726 164.348871 
L 219.876398 163.846423 
L 220.153314 163.846423 
L 220.153314 163.595198 
L 220.274121 163.595198 
L 220.274121 163.343974 
L 220.527582 163.343974 
L 220.612363 162.841525 
L 220.778639 162.841525 
L 220.778639 162.590301 
L 221.309663 162.590301 
L 221.311158 161.836627 
L 221.485138 161.836627 
L 221.485138 161.585403 
L 221.674876 161.585403 
L 221.674876 161.082954 
L 221.903496 161.082954 
L 221.943813 160.580505 
L 222.098904 160.580505 
L 222.144473 160.078057 
L 222.377459 160.078057 
L 222.377459 159.826832 
L 222.668879 159.826832 
L 222.668879 159.575608 
L 222.977676 159.575608 
L 222.977676 158.821935 
L 224.908186 158.821935 
L 224.952137 158.068261 
L 225.302067 158.068261 
L 225.302067 157.565813 
L 225.666157 157.565813 
L 225.701327 156.309691 
L 226.027134 156.309691 
L 226.027134 156.058466 
L 226.479164 156.058466 
L 226.479164 155.807242 
L 227.012296 155.807242 
L 227.012296 155.556017 
L 227.281233 155.556017 
L 227.281233 155.304793 
L 227.457116 155.304793 
L 227.457116 155.053569 
L 227.825648 155.053569 
L 227.825648 154.802344 
L 228.195541 154.802344 
L 228.274653 154.299895 
L 228.428527 154.299895 
L 228.457566 153.546222 
L 228.78961 153.546222 
L 228.78961 153.294998 
L 229.049299 153.294998 
L 229.049299 152.792549 
L 229.543319 152.792549 
L 229.543319 152.541325 
L 230.149583 152.541325 
L 230.149583 152.2901 
L 230.639487 152.2901 
L 230.639487 150.782754 
L 230.932414 150.782754 
L 230.932414 150.531529 
L 231.438022 150.531529 
L 231.438022 150.280305 
L 231.579566 150.280305 
L 231.635476 149.777856 
L 231.705788 149.777856 
L 231.705788 149.526632 
L 232.078201 149.526632 
L 232.125381 149.024183 
L 232.397103 149.024183 
L 232.397103 148.772959 
L 232.619984 148.772959 
L 232.619984 148.27051 
L 233.012579 148.27051 
L 233.089581 147.014388 
L 233.171749 147.014388 
L 233.171749 146.511939 
L 233.414126 146.511939 
L 233.414126 146.260715 
L 233.997741 146.260715 
L 233.997741 146.00949 
L 234.325721 146.00949 
L 234.325721 145.758266 
L 234.508634 145.758266 
L 234.582468 145.004593 
L 234.761936 145.004593 
L 234.761936 144.753368 
L 235.100367 144.753368 
L 235.100367 144.250919 
L 235.260099 144.250919 
L 235.260099 143.999695 
L 235.413972 143.999695 
L 235.413972 143.246022 
L 235.856412 143.246022 
L 235.856412 142.994797 
L 236.034745 142.994797 
L 236.056759 142.241124 
L 236.22251 142.241124 
L 236.22251 141.9899 
L 236.520515 141.9899 
L 236.520515 141.738675 
L 236.690555 141.738675 
L 236.757343 140.985002 
L 237.032562 140.985002 
L 237.032562 140.231329 
L 237.191286 140.231329 
L 237.245507 139.72888 
L 237.415621 139.72888 
L 237.415621 139.477656 
L 237.624932 139.477656 
L 237.624932 139.226431 
L 237.811647 139.226431 
L 237.811647 138.975207 
L 238.120191 138.975207 
L 238.120191 138.723983 
L 239.140649 138.723983 
L 239.140649 137.970309 
L 239.356953 137.970309 
L 239.356953 137.719085 
L 239.583595 137.719085 
L 239.663141 137.216636 
L 240.048809 137.216636 
L 240.048809 136.965412 
L 240.398739 136.965412 
L 240.437787 136.211739 
L 240.653834 136.211739 
L 240.653834 135.960514 
L 240.983186 135.960514 
L 240.983186 135.70929 
L 241.112475 135.70929 
L 241.112475 135.458065 
L 241.225906 135.458065 
L 241.225906 134.704392 
L 241.46504 134.704392 
L 241.46504 134.453168 
L 241.747382 134.453168 
L 241.747382 134.201943 
L 242.027975 134.201943 
L 242.027975 133.950719 
L 242.2566 133.950719 
L 242.2566 133.699495 
L 242.543049 133.699495 
L 242.543049 133.44827 
L 242.870366 133.44827 
L 242.901354 132.945821 
L 243.070436 132.945821 
L 243.070436 132.694597 
L 243.676 132.694597 
L 243.676 129.931129 
L 243.787615 129.931129 
L 243.787615 129.679904 
L 243.898956 129.679904 
L 243.898956 129.42868 
L 245.161894 129.42868 
L 245.266188 128.675007 
L 245.386229 128.675007 
L 245.496152 127.921333 
L 245.690363 127.921333 
L 245.690363 127.670109 
L 245.92352 127.670109 
L 246.000391 126.665211 
L 246.509153 126.665211 
L 246.509153 126.413987 
L 246.698166 126.413987 
L 246.698166 125.911538 
L 246.901403 125.911538 
L 246.953261 125.409089 
L 247.303191 125.409089 
L 247.303191 124.906641 
L 247.576531 124.906641 
L 247.677041 124.404192 
L 247.798449 124.404192 
L 247.798449 124.152967 
L 248.288354 124.152967 
L 248.288354 123.901743 
L 248.463106 123.901743 
L 248.463106 123.650519 
L 248.624442 123.650519 
L 248.624442 123.399294 
L 248.756673 123.399294 
L 248.867663 122.896845 
L 249.01342 122.896845 
L 249.01342 122.394397 
L 249.446474 122.394397 
L 249.531319 121.640723 
L 249.877869 121.640723 
L 249.877869 121.389499 
L 249.989093 121.389499 
L 249.989093 120.88705 
L 250.411771 120.88705 
L 250.411771 120.635826 
L 251.121507 120.635826 
L 251.121507 120.384601 
L 251.646608 120.384601 
L 251.658588 119.882153 
L 251.938028 119.882153 
L 251.938028 119.630928 
L 252.333801 119.630928 
L 252.333801 119.128479 
L 253.085322 119.128479 
L 253.085322 118.877255 
L 253.787905 118.877255 
L 253.889624 117.872357 
L 254.388122 117.872357 
L 254.479761 116.616235 
L 254.829691 116.616235 
L 254.862636 116.113786 
L 255.180757 116.113786 
L 255.273799 115.611338 
L 255.443457 115.611338 
L 255.443457 115.360113 
L 256.142497 115.360113 
L 256.142497 115.108889 
L 256.290969 115.108889 
L 256.345582 114.60644 
L 256.462839 114.60644 
L 256.462839 114.355216 
L 256.712513 114.355216 
L 256.712513 113.350318 
L 256.874727 113.350318 
L 256.874727 113.099094 
L 257.442974 113.099094 
L 257.442974 112.847869 
L 257.554315 112.847869 
L 257.554315 112.596645 
L 257.730886 112.596645 
L 257.810617 112.094196 
L 258.422742 112.094196 
L 258.422742 111.842972 
L 258.593102 111.842972 
L 258.593102 111.591747 
L 259.178295 111.591747 
L 259.21678 110.838074 
L 259.367748 110.838074 
L 259.407754 110.084401 
L 259.838973 110.084401 
L 259.851594 109.330728 
L 259.989774 109.330728 
L 259.989774 109.079503 
L 260.355057 109.079503 
L 260.355057 108.828279 
L 260.813004 108.828279 
L 260.813004 108.577054 
L 260.957936 108.577054 
L 260.957936 108.32583 
L 261.071154 108.32583 
L 261.071154 108.074606 
L 261.237914 108.074606 
L 261.324866 107.572157 
L 262.049933 107.572157 
L 262.049933 106.818484 
L 262.722713 106.818484 
L 262.722713 106.567259 
L 262.925022 106.567259 
L 262.925022 106.316035 
L 263.045922 106.316035 
L 263.045922 105.813586 
L 263.827247 105.813586 
L 263.827247 105.562362 
L 264.31619 105.562362 
L 264.374324 105.059913 
L 264.500027 105.059913 
L 264.500027 103.552566 
L 264.883651 103.552566 
L 264.883651 103.301342 
L 265.024641 103.301342 
L 265.024641 103.050118 
L 265.408187 103.050118 
L 265.408187 102.798893 
L 265.57019 102.798893 
L 265.677124 101.793996 
L 265.860218 101.793996 
L 265.860218 101.542771 
L 266.824418 101.542771 
L 266.824418 100.789098 
L 267.122222 100.789098 
L 267.185501 100.286649 
L 267.298932 100.286649 
L 267.298932 99.7842 
L 268.47 99.7842 
L 268.47 99.532976 
L 268.61758 99.532976 
L 268.61758 99.281752 
L 268.773781 99.281752 
L 268.773781 99.030527 
L 269.035378 99.030527 
L 269.035378 98.528078 
L 269.234568 98.528078 
L 269.234568 98.276854 
L 269.530637 98.276854 
L 269.530637 98.02563 
L 269.67633 98.02563 
L 269.678165 97.523181 
L 269.859096 97.523181 
L 269.890417 97.020732 
L 270.101679 97.020732 
L 270.121559 96.518283 
L 270.745607 96.518283 
L 270.786329 95.76461 
L 271.192426 95.76461 
L 271.192426 95.513386 
L 271.30795 95.513386 
L 271.30795 95.262161 
L 271.459255 95.262161 
L 271.510654 94.759712 
L 271.728192 94.759712 
L 271.728192 94.508488 
L 271.943298 94.508488 
L 271.943298 94.006039 
L 272.138833 94.006039 
L 272.19912 93.50359 
L 272.393632 93.50359 
L 272.393632 93.252366 
L 272.875486 93.252366 
L 272.928148 92.749917 
L 273.157828 92.749917 
L 273.236569 91.493795 
L 273.811287 91.493795 
L 273.811287 91.242571 
L 274.04466 91.242571 
L 274.04466 90.991346 
L 274.170946 90.991346 
L 274.170946 90.740122 
L 274.868057 90.740122 
L 274.868057 90.488898 
L 275.086446 90.488898 
L 275.149516 88.981551 
L 275.684024 88.981551 
L 275.684024 88.730327 
L 275.843829 88.730327 
L 275.843829 88.479102 
L 276.020823 88.479102 
L 276.020823 87.976654 
L 276.152747 87.976654 
L 276.263543 87.22298 
L 276.57234 87.22298 
L 276.57234 86.971756 
L 276.704188 86.971756 
L 276.796675 86.218083 
L 277.134962 86.218083 
L 277.134962 85.966858 
L 277.335583 85.966858 
L 277.410837 85.46441 
L 278.107005 85.46441 
L 278.144453 84.961961 
L 278.53901 84.961961 
L 278.573989 84.459512 
L 278.792155 84.459512 
L 278.792155 84.208288 
L 279.511001 84.208288 
L 279.621797 83.20339 
L 280.034888 83.20339 
L 280.034888 82.952166 
L 280.179216 82.952166 
L 280.179216 82.700941 
L 280.423866 82.700941 
L 280.423866 81.947268 
L 280.623056 81.947268 
L 280.688098 81.444819 
L 280.919125 81.444819 
L 280.919125 81.193595 
L 281.584467 81.193595 
L 281.584467 80.94237 
L 281.759942 80.94237 
L 281.812202 80.188697 
L 282.266903 80.188697 
L 282.266903 79.937473 
L 282.602681 79.937473 
L 282.602681 79.435024 
L 282.714678 79.435024 
L 282.714678 79.1838 
L 282.87396 79.1838 
L 282.87396 78.430126 
L 283.057054 78.430126 
L 283.060908 77.927678 
L 283.255136 77.927678 
L 283.255136 77.676453 
L 283.655998 77.676453 
L 283.744247 76.169107 
L 284.051057 76.169107 
L 284.051057 75.917882 
L 284.25424 75.917882 
L 284.25424 75.415434 
L 284.495768 75.415434 
L 284.495768 75.164209 
L 284.834368 75.164209 
L 284.834368 74.912985 
L 285.198351 74.912985 
L 285.198351 73.908087 
L 285.358477 73.908087 
L 285.358477 73.656863 
L 285.562069 73.656863 
L 285.672865 72.651965 
L 285.780551 72.651965 
L 285.890207 71.898292 
L 286.142462 71.898292 
L 286.142462 71.647068 
L 286.341652 71.647068 
L 286.341652 71.395843 
L 286.474934 71.395843 
L 286.503212 70.64217 
L 286.607243 70.64217 
L 286.684245 69.134824 
L 286.816093 69.134824 
L 286.909847 68.632375 
L 287.076106 68.632375 
L 287.076106 68.38115 
L 287.187447 68.38115 
L 287.187447 68.129926 
L 287.409311 68.129926 
L 287.409311 67.878702 
L 287.667521 67.878702 
L 287.667521 67.627477 
L 287.794345 67.627477 
L 287.794345 67.376253 
L 288.122959 67.376253 
L 288.154771 66.873804 
L 288.298942 66.873804 
L 288.298942 66.62258 
L 288.925028 66.62258 
L 288.925028 65.868906 
L 289.445903 65.868906 
L 289.517398 64.864009 
L 289.568229 64.864009 
L 289.568229 64.612784 
L 290.414616 64.612784 
L 290.414616 64.36156 
L 291.010285 64.36156 
L 291.010285 63.859111 
L 291.172587 63.859111 
L 291.249419 63.356662 
L 291.40022 63.356662 
L 291.40022 63.105438 
L 291.531761 63.105438 
L 291.557792 62.351765 
L 292.277134 62.351765 
L 292.277134 61.849316 
L 292.455555 61.849316 
L 292.455555 61.598092 
L 292.752307 61.598092 
L 292.826583 61.095643 
L 293.127174 61.095643 
L 293.196147 60.593194 
L 293.238515 60.593194 
L 293.238515 60.341969 
L 293.460379 60.341969 
L 293.460379 59.839521 
L 294.123871 59.839521 
L 294.157557 59.337072 
L 294.248498 59.337072 
L 294.248498 58.834623 
L 294.394756 58.834623 
L 294.474952 58.332174 
L 294.586293 58.332174 
L 294.586293 58.08095 
L 295.726636 58.08095 
L 295.726636 57.829725 
L 295.864048 57.829725 
L 295.920978 57.327277 
L 295.975388 57.327277 
L 295.975388 57.076052 
L 296.177665 57.076052 
L 296.269575 56.573603 
L 296.399584 56.573603 
L 296.399584 56.071155 
L 296.769564 56.071155 
L 296.854584 55.317481 
L 297.08757 55.317481 
L 297.08757 55.066257 
L 297.270664 55.066257 
L 297.270664 54.563808 
L 297.468798 54.563808 
L 297.50395 54.061359 
L 297.582828 54.061359 
L 297.582828 53.810135 
L 298.234864 53.810135 
L 298.234864 53.307686 
L 298.797799 53.307686 
L 298.877651 52.805237 
L 298.914743 52.805237 
L 298.914743 52.554013 
L 299.353827 52.554013 
L 299.353827 52.051564 
L 299.593466 52.051564 
L 299.593466 51.80034 
L 300.103817 51.80034 
L 300.103817 51.297891 
L 300.300114 51.297891 
L 300.300114 51.046667 
L 300.941083 51.046667 
L 301.042528 50.292993 
L 301.512125 50.292993 
L 301.591247 49.53932 
L 301.688976 49.53932 
L 301.688976 49.288096 
L 301.800317 49.288096 
L 301.800317 49.036871 
L 302.036012 49.036871 
L 302.036012 48.785647 
L 302.869701 48.785647 
L 302.869701 48.534423 
L 303.167677 48.534423 
L 303.167677 48.283198 
L 303.413002 48.283198 
L 303.413002 48.031974 
L 303.572284 48.031974 
L 303.572284 47.780749 
L 303.804078 47.780749 
L 303.804078 47.529525 
L 304.130882 47.529525 
L 304.130882 47.278301 
L 304.943059 47.278301 
L 304.943059 47.027076 
L 305.058178 47.027076 
L 305.058178 46.524627 
L 306.234192 46.524627 
L 306.234192 46.273403 
L 306.496892 46.273403 
L 306.496892 46.022179 
L 307.891331 46.022179 
L 307.891331 45.770954 
L 308.172142 45.770954 
L 308.207121 45.268505 
L 308.494069 45.268505 
L 308.494069 45.017281 
L 308.607633 45.017281 
L 308.607633 44.514832 
L 308.718974 44.514832 
L 308.718974 44.012383 
L 309.623352 44.012383 
L 309.623352 43.761159 
L 309.940246 43.761159 
L 309.940246 43.25871 
L 310.2363 43.25871 
L 310.2363 43.007486 
L 311.109246 43.007486 
L 311.109246 42.756261 
L 311.295049 42.756261 
L 311.295049 42.505037 
L 311.445334 42.505037 
L 311.522434 42.002588 
L 311.834312 42.002588 
L 311.834312 41.751364 
L 312.508164 41.751364 
L 312.54796 41.248915 
L 312.619505 41.248915 
L 312.619505 40.997691 
L 312.811145 40.997691 
L 312.811145 40.746466 
L 313.341386 40.746466 
L 313.341386 40.495242 
L 313.757553 40.495242 
L 313.799297 39.992793 
L 313.910637 39.992793 
L 313.910637 39.741569 
L 314.125124 39.741569 
L 314.22321 39.23912 
L 314.284406 39.23912 
L 314.284406 38.485447 
L 314.409761 38.485447 
L 314.4675 37.982998 
L 315.430007 37.982998 
L 315.430007 37.731773 
L 315.570988 37.731773 
L 315.570988 37.480549 
L 316.608797 37.480549 
L 316.608797 36.9781 
L 316.960083 36.9781 
L 316.960083 36.726876 
L 317.300653 36.726876 
L 317.300653 36.475651 
L 317.72776 36.475651 
L 317.72776 36.224427 
L 318.322908 36.224427 
L 318.322908 35.973203 
L 319.725724 35.973203 
L 319.725724 35.721978 
L 319.886058 35.721978 
L 319.886058 35.470754 
L 320.410875 35.470754 
L 320.410875 35.219529 
L 321.512571 35.219529 
L 321.512571 34.968305 
L 322.181817 34.968305 
L 322.181817 34.717081 
L 322.659865 34.717081 
L 322.659865 34.465856 
L 322.785012 34.465856 
L 322.785012 34.214632 
L 322.942207 34.214632 
L 322.942207 33.963407 
L 323.378661 33.963407 
L 323.378661 33.712183 
L 323.833376 33.712183 
L 323.833376 33.460959 
L 324.237029 33.460959 
L 324.237029 32.95851 
L 324.679627 32.95851 
L 324.679627 32.707285 
L 324.870825 32.707285 
L 324.870825 32.456061 
L 325.069144 32.456061 
L 325.121882 31.953612 
L 325.937126 31.953612 
L 325.937126 31.702388 
L 326.720702 31.702388 
L 326.720702 31.451163 
L 327.137082 31.451163 
L 327.137082 31.199939 
L 327.278464 31.199939 
L 327.278464 30.948715 
L 327.39927 30.948715 
L 327.39927 30.69749 
L 328.434813 30.69749 
L 328.434813 30.446266 
L 328.993274 30.446266 
L 328.993274 30.195041 
L 329.249537 30.195041 
L 329.249537 29.943817 
L 329.703669 29.943817 
L 329.703669 29.441368 
L 330.921893 29.441368 
L 330.921893 29.190144 
L 331.85627 29.190144 
L 331.85627 28.687695 
L 332.033336 28.687695 
L 332.033336 28.436471 
L 332.791306 28.436471 
L 332.791306 28.185246 
L 333.6042 28.185246 
L 333.6042 27.934022 
L 334.743597 27.934022 
L 334.743597 27.682797 
L 334.895332 27.682797 
L 334.98273 27.180349 
L 335.781265 27.180349 
L 335.781265 26.929124 
L 335.97872 26.929124 
L 335.97872 26.6779 
L 336.259313 26.6779 
L 336.259313 26.426675 
L 336.468624 26.426675 
L 336.468624 26.175451 
L 337.432824 26.175451 
L 337.432824 25.924227 
L 338.866046 25.924227 
L 338.866046 25.673002 
L 339.497526 25.673002 
L 339.497526 25.421778 
L 340.305553 25.421778 
L 340.305553 25.170553 
L 340.621664 25.170553 
L 340.621664 24.919329 
L 342.519692 24.919329 
L 342.610962 24.41688 
L 343.50899 24.41688 
L 343.50899 24.165656 
L 345.352845 24.165656 
L 345.455718 23.663207 
L 346.618647 23.663207 
L 346.618647 23.411983 
L 348.019243 23.411983 
L 348.019243 23.160758 
L 348.186769 23.160758 
L 348.186769 22.909534 
L 348.29811 22.909534 
L 348.29811 22.658309 
L 348.66203 22.658309 
L 348.66203 22.407085 
L 349.578168 22.407085 
L 349.578168 22.155861 
L 351.074095 22.155861 
L 351.074095 21.904636 
L 351.185436 21.904636 
L 351.296504 21.402187 
L 354.221112 21.402187 
L 354.221112 21.150963 
L 355.189274 21.150963 
L 355.189274 20.899739 
L 361.786217 20.899739 
L 361.786217 20.648514 
L 361.897558 20.648514 
L 361.897558 20.39729 
L 368.572852 20.39729 
L 368.572852 20.146065 
L 369.282805 20.146065 
L 369.282805 19.894841 
L 370.183958 19.894841 
L 370.183958 19.643617 
L 371.242708 19.643617 
L 371.242708 19.392392 
L 372.170131 19.392392 
L 372.170131 19.141168 
L 372.758804 19.141168 
L 372.758804 18.889943 
L 373.705211 18.889943 
L 373.705211 18.638719 
L 374.021408 18.638719 
L 374.021408 18.387495 
L 375.377666 18.387495 
L 375.377666 18.13627 
L 378.270567 18.13627 
L 378.270567 17.885046 
L 379.232235 17.885046 
L 379.232235 17.633821 
L 379.673383 17.633821 
L 379.673383 17.382597 
L 380.358534 17.382597 
L 380.358534 17.131373 
L 380.883793 17.131373 
L 380.883793 16.880148 
L 382.882253 16.880148 
L 382.882253 16.628924 
L 383.32632 16.628924 
L 383.32632 16.377699 
L 384.627286 16.377699 
L 384.627286 16.126475 
L 387.226123 16.126475 
L 387.226123 15.875251 
L 387.346929 15.875251 
L 387.346929 15.624026 
L 388.382472 15.624026 
L 388.382472 15.372802 
L 388.906688 15.372802 
L 388.906688 15.121577 
L 391.980995 15.121577 
L 391.980995 14.870353 
L 392.738965 14.870353 
L 392.738965 14.619129 
L 393.029137 14.619129 
L 393.029137 14.367904 
L 397.672082 14.367904 
L 397.672082 14.11668 
L 405.237187 14.11668 
L 405.237187 13.865455 
L 405.348527 13.865455 
L 405.348527 13.614231 
L 426.333222 13.614231 
L 426.333222 13.363007 
L 453.192 13.363007 
L 453.192 13.363007 
" clip-path="url(#p39b6455d41)" style="fill: none; stroke: #000000; stroke-width: 3; stroke-linecap: square"/>
   </g>
   <g id="line2d_48">
    <path clip-path="url(#p39b6455d41)" style="fill: none; stroke: #000000; stroke-width: 3; stroke-linecap: square"/>
   </g>
   <g id="line2d_49">
    <path d="M 34.16 282.418976 
L 52.834915 282.418976 
L 52.834915 282.083712 
L 60.62149 282.083712 
L 60.62149 281.748448 
L 71.972907 281.748448 
L 71.972907 281.413184 
L 77.668941 281.413184 
L 77.668941 281.07792 
L 81.743659 281.07792 
L 81.743659 280.742656 
L 83.90057 280.742656 
L 83.90057 280.407392 
L 85.407689 280.407392 
L 85.407689 280.072128 
L 90.573811 280.072128 
L 90.573811 279.736865 
L 90.777904 279.736865 
L 90.777904 279.401601 
L 98.056067 279.401601 
L 98.056067 279.066337 
L 103.31931 279.066337 
L 103.31931 278.731073 
L 103.447232 278.731073 
L 103.447232 278.395809 
L 106.597102 278.395809 
L 106.597102 278.060545 
L 106.745146 278.060545 
L 106.745146 277.725281 
L 107.456339 277.725281 
L 107.456339 277.390017 
L 107.963 277.390017 
L 107.963 277.054754 
L 108.166998 277.054754 
L 108.166998 276.71949 
L 108.547164 276.71949 
L 108.547164 276.384226 
L 108.997671 276.384226 
L 108.997671 276.048962 
L 109.696266 276.048962 
L 109.764535 275.378434 
L 110.104679 275.378434 
L 110.104679 275.04317 
L 110.457106 275.04317 
L 110.457106 274.707906 
L 111.233806 274.707906 
L 111.233806 274.372643 
L 113.950144 274.372643 
L 113.950144 274.037379 
L 114.195082 274.037379 
L 114.195082 273.702115 
L 116.290471 273.702115 
L 116.290471 273.366851 
L 116.73499 273.366851 
L 116.73499 273.031587 
L 122.162445 273.031587 
L 122.162445 272.696323 
L 122.585223 272.696323 
L 122.585223 272.361059 
L 128.281257 272.361059 
L 128.281257 272.025795 
L 132.355975 272.025795 
L 132.355975 271.690531 
L 134.512886 271.690531 
L 134.512886 271.355268 
L 135.821164 271.355268 
L 135.821164 271.020004 
L 136.020005 271.020004 
L 136.020005 270.68474 
L 137.557749 270.68474 
L 137.557749 270.349476 
L 141.186127 270.349476 
L 141.186127 270.014212 
L 141.39022 270.014212 
L 141.39022 269.678948 
L 143.03193 269.678948 
L 143.03193 269.343684 
L 143.179975 269.343684 
L 143.179975 269.00842 
L 143.607739 269.00842 
L 143.607739 268.673157 
L 143.891167 268.673157 
L 143.891167 268.337893 
L 144.397829 268.337893 
L 144.397829 268.002629 
L 144.601826 268.002629 
L 144.601826 267.667365 
L 144.981993 267.667365 
L 144.981993 267.332101 
L 145.4325 267.332101 
L 145.4325 266.996837 
L 146.131095 266.996837 
L 146.199364 266.326309 
L 146.539507 266.326309 
L 146.539507 265.991046 
L 146.891935 265.991046 
L 146.891935 265.655782 
L 148.668383 265.655782 
L 148.668383 265.320518 
L 150.384972 265.320518 
L 150.384972 264.985254 
L 150.62991 264.985254 
L 150.62991 264.64999 
L 152.725299 264.64999 
L 152.725299 264.314726 
L 153.931626 264.314726 
L 153.931626 263.979462 
L 154.959155 263.979462 
L 154.959155 263.644198 
L 155.303082 263.644198 
L 155.303082 263.308934 
L 156.144707 263.308934 
L 156.144707 262.973671 
L 156.292752 262.973671 
L 156.292752 262.638407 
L 157.003945 262.638407 
L 157.003945 262.303143 
L 157.510606 262.303143 
L 157.510606 261.967879 
L 157.714604 261.967879 
L 157.714604 261.632615 
L 158.09477 261.632615 
L 158.09477 261.297351 
L 158.51298 261.297351 
L 158.597273 260.29156 
L 159.243872 260.29156 
L 159.312141 259.621032 
L 159.652285 259.621032 
L 159.652285 259.285768 
L 160.004712 259.285768 
L 160.004712 258.950504 
L 160.655189 258.950504 
L 160.655189 258.61524 
L 163.389151 258.61524 
L 163.49775 257.944712 
L 163.742688 257.944712 
L 163.742688 257.609449 
L 164.729908 257.609449 
L 164.729908 257.274185 
L 165.838076 257.274185 
L 165.838076 256.938921 
L 166.299555 256.938921 
L 166.299555 256.603657 
L 166.886819 256.603657 
L 166.886819 256.268393 
L 167.347307 256.268393 
L 167.347307 255.933129 
L 168.393938 255.933129 
L 168.393938 255.597865 
L 170.249805 255.597865 
L 170.249805 255.262601 
L 171.175725 255.262601 
L 171.175725 254.927337 
L 171.71005 254.927337 
L 171.71005 254.592074 
L 173.560059 254.592074 
L 173.560059 254.25681 
L 173.764153 254.25681 
L 173.764153 253.921546 
L 175.636407 253.921546 
L 175.636407 253.586282 
L 176.486503 253.586282 
L 176.486503 253.251018 
L 177.650972 253.251018 
L 177.650972 252.915754 
L 178.03638 252.915754 
L 178.03638 252.58049 
L 179.521966 252.58049 
L 179.521966 252.245226 
L 180.502358 252.245226 
L 180.502358 251.909963 
L 181.042316 251.909963 
L 181.042316 251.574699 
L 182.527142 251.574699 
L 182.527142 251.239435 
L 183.347005 251.239435 
L 183.347005 250.904171 
L 186.305559 250.904171 
L 186.305559 250.568907 
L 187.421724 250.568907 
L 187.421724 250.233643 
L 188.170065 250.233643 
L 188.223176 249.563115 
L 189.094848 249.563115 
L 189.094848 249.227852 
L 189.387797 249.227852 
L 189.387797 248.892588 
L 189.578635 248.892588 
L 189.578635 248.557324 
L 191.085754 248.557324 
L 191.085754 248.22206 
L 191.937561 248.22206 
L 191.937561 247.886796 
L 192.297895 247.886796 
L 192.337985 247.216268 
L 193.167233 247.216268 
L 193.167233 246.881004 
L 193.315277 246.881004 
L 193.315277 246.54574 
L 194.02647 246.54574 
L 194.093294 245.875213 
L 194.454805 245.875213 
L 194.533131 245.204685 
L 194.737129 245.204685 
L 194.737129 244.869421 
L 195.083831 244.869421 
L 195.117295 244.198893 
L 195.567802 244.198893 
L 195.567802 243.863629 
L 195.961925 243.863629 
L 195.961925 243.528366 
L 196.221594 243.528366 
L 196.266397 242.522574 
L 196.334666 242.522574 
L 196.334666 242.18731 
L 196.455969 242.18731 
L 196.455969 241.852046 
L 196.67481 241.852046 
L 196.67481 241.516782 
L 197.01164 241.516782 
L 197.027237 240.846255 
L 198.830333 240.846255 
L 198.871786 240.175727 
L 199.158549 240.175727 
L 199.158549 239.840463 
L 199.721239 239.840463 
L 199.721239 239.505199 
L 200.520275 239.505199 
L 200.520275 239.169935 
L 200.765213 239.169935 
L 200.765213 238.834671 
L 201.128046 238.834671 
L 201.128046 238.499407 
L 201.31546 238.499407 
L 201.332139 237.82888 
L 202.822579 237.82888 
L 202.860602 237.158352 
L 203.734132 237.158352 
L 203.734132 236.823088 
L 205.915398 236.823088 
L 205.915398 236.487824 
L 206.12651 236.487824 
L 206.12651 236.15256 
L 206.313597 236.15256 
L 206.313597 235.817296 
L 207.988701 235.817296 
L 207.988701 235.482032 
L 208.192794 235.482032 
L 208.192794 235.146769 
L 208.610303 235.146769 
L 208.610303 234.811505 
L 208.732575 234.811505 
L 208.732575 234.476241 
L 208.997375 234.476241 
L 208.997375 234.140977 
L 211.090738 234.140977 
L 211.090738 233.805713 
L 212.060839 233.805713 
L 212.060839 233.470449 
L 213.388031 233.470449 
L 213.388031 233.135185 
L 213.575118 233.135185 
L 213.575118 232.799921 
L 213.873545 232.799921 
L 213.873545 232.464658 
L 215.470957 232.464658 
L 215.470957 232.129394 
L 215.620828 232.129394 
L 215.620828 231.79413 
L 216.213139 231.79413 
L 216.213139 231.458866 
L 217.033981 231.458866 
L 217.063235 230.788338 
L 218.352259 230.788338 
L 218.352259 230.453074 
L 219.32236 230.453074 
L 219.373602 229.782546 
L 219.679276 229.782546 
L 219.78332 229.112019 
L 220.098698 229.112019 
L 220.098698 228.776755 
L 220.543997 228.776755 
L 220.543997 228.441491 
L 220.7342 228.441491 
L 220.7342 228.106227 
L 221.079089 228.106227 
L 221.079089 227.770963 
L 221.264726 227.770963 
L 221.264726 227.435699 
L 222.123314 227.435699 
L 222.123314 227.100435 
L 222.413055 227.100435 
L 222.413055 226.765172 
L 222.88235 226.765172 
L 222.88235 226.429908 
L 224.295503 226.429908 
L 224.295503 226.094644 
L 226.635124 226.094644 
L 226.635124 225.75938 
L 226.940797 225.75938 
L 227.044842 225.088852 
L 227.289226 225.088852 
L 227.289226 224.753588 
L 227.565859 224.753588 
L 227.565859 224.418324 
L 228.526247 224.418324 
L 228.526247 224.08306 
L 229.384836 224.08306 
L 229.384836 223.747797 
L 229.67158 223.747797 
L 229.67158 223.412533 
L 230.232044 223.412533 
L 230.232044 223.077269 
L 232.514292 223.077269 
L 232.514292 222.742005 
L 232.914716 222.742005 
L 232.914716 222.406741 
L 234.14988 222.406741 
L 234.14988 222.071477 
L 234.670026 222.071477 
L 234.670026 221.736213 
L 234.82738 221.736213 
L 234.82738 221.400949 
L 236.798325 221.400949 
L 236.798325 221.065686 
L 237.493565 221.065686 
L 237.588372 220.395158 
L 238.289331 220.395158 
L 238.289331 220.059894 
L 239.407065 220.059894 
L 239.448518 219.389366 
L 243.235813 219.389366 
L 243.235813 219.054102 
L 245.777168 219.054102 
L 245.777168 218.718838 
L 248.111984 218.718838 
L 248.111984 218.383575 
L 253.563742 218.383575 
L 253.563742 218.048311 
L 254.972638 218.048311 
L 254.972638 217.713047 
L 255.703695 217.713047 
L 255.703695 217.377783 
L 255.85174 217.377783 
L 255.85174 217.042519 
L 256.562932 217.042519 
L 256.562932 216.707255 
L 257.069594 216.707255 
L 257.069594 216.371991 
L 257.273592 216.371991 
L 257.273592 216.036727 
L 257.653758 216.036727 
L 257.653758 215.701463 
L 258.104265 215.701463 
L 258.104265 215.3662 
L 258.80286 215.3662 
L 258.871129 214.695672 
L 259.211272 214.695672 
L 259.211272 214.360408 
L 259.5637 214.360408 
L 259.5637 214.025144 
L 260.981147 214.025144 
L 260.981147 213.68988 
L 263.056737 213.68988 
L 263.056737 213.354616 
L 263.301676 213.354616 
L 263.350244 212.684089 
L 263.957417 212.684089 
L 263.957417 212.348825 
L 264.105461 212.348825 
L 264.105461 212.013561 
L 264.816654 212.013561 
L 264.915159 211.343033 
L 265.323316 211.343033 
L 265.397064 210.672505 
L 265.527313 210.672505 
L 265.527313 210.337241 
L 265.857317 210.337241 
L 265.907479 209.666714 
L 266.357987 209.666714 
L 266.357987 209.33145 
L 267.056581 209.33145 
L 267.12485 208.660922 
L 267.464994 208.660922 
L 267.464994 208.325658 
L 267.817421 208.325658 
L 267.817421 207.990394 
L 270.611193 207.990394 
L 270.611193 207.65513 
L 271.136819 207.65513 
L 271.136819 207.319866 
L 271.269038 207.319866 
L 271.310459 206.649339 
L 271.555397 206.649339 
L 271.555397 206.314075 
L 272.717972 206.314075 
L 272.717972 205.978811 
L 273.650786 205.978811 
L 273.650786 205.643547 
L 274.685912 205.643547 
L 274.685912 205.308283 
L 276.842822 205.308283 
L 276.842822 204.973019 
L 278.349941 204.973019 
L 278.349941 204.637755 
L 279.52276 204.637755 
L 279.52276 204.302492 
L 282.488235 204.302492 
L 282.488235 203.967228 
L 283.516063 203.967228 
L 283.516063 203.631964 
L 283.720156 203.631964 
L 283.720156 203.2967 
L 288.184269 203.2967 
L 288.184269 202.961436 
L 289.231199 202.961436 
L 289.231199 202.626172 
L 289.379244 202.626172 
L 289.379244 202.290908 
L 290.090436 202.290908 
L 290.090436 201.955644 
L 290.597098 201.955644 
L 290.597098 201.620381 
L 290.801095 201.620381 
L 290.801095 201.285117 
L 290.99832 201.285117 
L 290.99832 200.949853 
L 291.181262 200.949853 
L 291.181262 200.614589 
L 291.631769 200.614589 
L 291.631769 200.279325 
L 292.258988 200.279325 
L 292.330364 199.608797 
L 292.398633 199.608797 
L 292.398633 199.273533 
L 292.738776 199.273533 
L 292.738776 198.938269 
L 293.091204 198.938269 
L 293.091204 198.603006 
L 294.415899 198.603006 
L 294.415899 198.267742 
L 295.923018 198.267742 
L 295.923018 197.932478 
L 296.261562 197.932478 
L 296.261562 197.597214 
L 296.584241 197.597214 
L 296.584241 197.26195 
L 296.829179 197.26195 
L 296.829179 196.926686 
L 298.924568 196.926686 
L 298.924568 196.591422 
L 301.089139 196.591422 
L 301.089139 196.256158 
L 301.293233 196.256158 
L 301.293233 195.920895 
L 304.796542 195.920895 
L 304.796542 195.585631 
L 308.571396 195.585631 
L 308.571396 195.250367 
L 309.677243 195.250367 
L 309.677243 194.915103 
L 313.834639 194.915103 
L 313.834639 194.579839 
L 327.250319 194.579839 
L 327.250319 194.244575 
L 330.500001 194.244575 
L 330.500001 193.909311 
L 330.879454 193.909311 
L 330.879454 193.574047 
L 331.027499 193.574047 
L 331.027499 193.238784 
L 331.738691 193.238784 
L 331.738691 192.90352 
L 332.245353 192.90352 
L 332.245353 192.568256 
L 332.44935 192.568256 
L 332.44935 192.232992 
L 332.829517 192.232992 
L 332.829517 191.897728 
L 333.280024 191.897728 
L 333.280024 191.562464 
L 333.978619 191.562464 
L 334.046888 190.891936 
L 334.387031 190.891936 
L 334.387031 190.556672 
L 334.739459 190.556672 
L 334.739459 190.221409 
L 338.232496 190.221409 
L 338.232496 189.886145 
L 338.477434 189.886145 
L 338.477434 189.550881 
L 340.572823 189.550881 
L 340.572823 189.215617 
L 346.444797 189.215617 
L 346.444797 188.880353 
L 348.073077 188.880353 
L 348.073077 188.545089 
L 348.245334 188.545089 
L 348.245334 188.209825 
L 365.818411 188.209825 
L 365.818411 187.874561 
L 453.192 187.874561 
L 453.192 187.874561 
" clip-path="url(#p39b6455d41)" style="fill: none; stroke: #00bfbf; stroke-width: 3; stroke-linecap: square"/>
   </g>
   <g id="line2d_50">
    <path clip-path="url(#p39b6455d41)" style="fill: none; stroke: #00bfbf; stroke-width: 3; stroke-linecap: square"/>
   </g>
   <g id="line2d_51">
    <path d="M 38.274313 288.453725 
L 34.16 288.453725 
L 453.192 288.453725 
L 461.8 288.453725 
" clip-path="url(#p39b6455d41)" style="fill: none; stroke: #bf00bf; stroke-width: 3; stroke-linecap: square"/>
   </g>
   <g id="line2d_52"/>
   <g id="line2d_53">
    <path d="M 243.676 291.28 
L 243.676 3 
" clip-path="url(#p39b6455d41)" style="fill: none; stroke: #000000; stroke-width: 1.5; stroke-linecap: square"/>
   </g>
   <g id="line2d_54">
    <path d="M 34.16 147.14 
L 453.192 147.14 
" clip-path="url(#p39b6455d41)" style="fill: none; stroke-dasharray: 2,3.3; stroke-dashoffset: 0; stroke: #000000; stroke-width: 2"/>
   </g>
   <g id="patch_3">
    <path d="M 34.16 291.28 
L 34.16 3 
" style="fill: none; stroke: #000000; stroke-width: 0.8; stroke-linejoin: miter; stroke-linecap: square"/>
   </g>
   <g id="patch_4">
    <path d="M 453.192 291.28 
L 453.192 3 
" style="fill: none; stroke: #000000; stroke-width: 0.8; stroke-linejoin: miter; stroke-linecap: square"/>
   </g>
   <g id="patch_5">
    <path d="M 34.16 291.28 
L 453.192 291.28 
" style="fill: none; stroke: #000000; stroke-width: 0.8; stroke-linejoin: miter; stroke-linecap: square"/>
   </g>
   <g id="patch_6">
    <path d="M 34.16 3 
L 453.192 3 
" style="fill: none; stroke: #000000; stroke-width: 0.8; stroke-linejoin: miter; stroke-linecap: square"/>
   </g>
   <g id="text_5">
    <!-- f15-f19,5-D -->
    <g transform="translate(330.91761 285.5144)scale(0.2 -0.2)">
     <defs>
      <path id="DejaVuSans-35" d="M 691 4666 
L 3169 4666 
L 3169 4134 
L 1269 4134 
L 1269 2991 
Q 1406 3038 1543 3061 
Q 1681 3084 1819 3084 
Q 2600 3084 3056 2656 
Q 3513 2228 3513 1497 
Q 3513 744 3044 326 
Q 2575 -91 1722 -91 
Q 1428 -91 1123 -41 
Q 819 9 494 109 
L 494 744 
Q 775 591 1075 516 
Q 1375 441 1709 441 
Q 2250 441 2565 725 
Q 2881 1009 2881 1497 
Q 2881 1984 2565 2268 
Q 2250 2553 1709 2553 
Q 1456 2553 1204 2497 
Q 953 2441 691 2322 
L 691 4666 
z
" transform="scale(0.015625)"/>
      <path id="DejaVuSans-39" d="M 703 97 
L 703 672 
Q 941 559 1184 500 
Q 1428 441 1663 441 
Q 2288 441 2617 861 
Q 2947 1281 2994 2138 
Q 2813 1869 2534 1725 
Q 2256 1581 1919 1581 
Q 1219 1581 811 2004 
Q 403 2428 403 3163 
Q 403 3881 828 4315 
Q 1253 4750 1959 4750 
Q 2769 4750 3195 4129 
Q 3622 3509 3622 2328 
Q 3622 1225 3098 567 
Q 2575 -91 1691 -91 
Q 1453 -91 1209 -44 
Q 966 3 703 97 
z
M 1959 2075 
Q 2384 2075 2632 2365 
Q 2881 2656 2881 3163 
Q 2881 3666 2632 3958 
Q 2384 4250 1959 4250 
Q 1534 4250 1286 3958 
Q 1038 3666 1038 3163 
Q 1038 2656 1286 2365 
Q 1534 2075 1959 2075 
z
" transform="scale(0.015625)"/>
      <path id="DejaVuSans-2c" d="M 750 794 
L 1409 794 
L 1409 256 
L 897 -744 
L 494 -744 
L 750 256 
L 750 794 
z
" transform="scale(0.015625)"/>
      <path id="DejaVuSans-44" d="M 1259 4147 
L 1259 519 
L 2022 519 
Q 2988 519 3436 956 
Q 3884 1394 3884 2338 
Q 3884 3275 3436 3711 
Q 2988 4147 2022 4147 
L 1259 4147 
z
M 628 4666 
L 1925 4666 
Q 3281 4666 3915 4102 
Q 4550 3538 4550 2338 
Q 4550 1131 3912 565 
Q 3275 0 1925 0 
L 628 0 
L 628 4666 
z
" transform="scale(0.015625)"/>
     </defs>
     <use xlink:href="#DejaVuSans-66"/>
     <use xlink:href="#DejaVuSans-31" x="35.205078"/>
     <use xlink:href="#DejaVuSans-35" x="98.828125"/>
     <use xlink:href="#DejaVuSans-2d" x="162.451172"/>
     <use xlink:href="#DejaVuSans-66" x="198.535156"/>
     <use xlink:href="#DejaVuSans-31" x="233.740234"/>
     <use xlink:href="#DejaVuSans-39" x="297.363281"/>
     <use xlink:href="#DejaVuSans-2c" x="360.986328"/>
     <use xlink:href="#DejaVuSans-35" x="392.773438"/>
     <use xlink:href="#DejaVuSans-2d" x="456.396484"/>
     <use xlink:href="#DejaVuSans-44" x="492.480469"/>
    </g>
   </g>
   <g id="text_6">
    <!-- v2.6 -->
    <g style="fill: #808080" transform="translate(232.765062 286.317512)scale(0.1 -0.1)">
     <defs>
      <path id="DejaVuSans-32" d="M 1228 531 
L 3431 531 
L 3431 0 
L 469 0 
L 469 531 
Q 828 903 1448 1529 
Q 2069 2156 2228 2338 
Q 2531 2678 2651 2914 
Q 2772 3150 2772 3378 
Q 2772 3750 2511 3984 
Q 2250 4219 1831 4219 
Q 1534 4219 1204 4116 
Q 875 4013 500 3803 
L 500 4441 
Q 881 4594 1212 4672 
Q 1544 4750 1819 4750 
Q 2544 4750 2975 4387 
Q 3406 4025 3406 3419 
Q 3406 3131 3298 2873 
Q 3191 2616 2906 2266 
Q 2828 2175 2409 1742 
Q 1991 1309 1228 531 
z
" transform="scale(0.015625)"/>
      <path id="DejaVuSans-2e" d="M 684 794 
L 1344 794 
L 1344 0 
L 684 0 
L 684 794 
z
" transform="scale(0.015625)"/>
      <path id="DejaVuSans-36" d="M 2113 2584 
Q 1688 2584 1439 2293 
Q 1191 2003 1191 1497 
Q 1191 994 1439 701 
Q 1688 409 2113 409 
Q 2538 409 2786 701 
Q 3034 994 3034 1497 
Q 3034 2003 2786 2293 
Q 2538 2584 2113 2584 
z
M 3366 4563 
L 3366 3988 
Q 3128 4100 2886 4159 
Q 2644 4219 2406 4219 
Q 1781 4219 1451 3797 
Q 1122 3375 1075 2522 
Q 1259 2794 1537 2939 
Q 1816 3084 2150 3084 
Q 2853 3084 3261 2657 
Q 3669 2231 3669 1497 
Q 3669 778 3244 343 
Q 2819 -91 2113 -91 
Q 1303 -91 875 529 
Q 447 1150 447 2328 
Q 447 3434 972 4092 
Q 1497 4750 2381 4750 
Q 2619 4750 2861 4703 
Q 3103 4656 3366 4563 
z
" transform="scale(0.015625)"/>
     </defs>
     <use xlink:href="#DejaVuSans-76"/>
     <use xlink:href="#DejaVuSans-32" x="59.179688"/>
     <use xlink:href="#DejaVuSans-2e" x="122.802734"/>
     <use xlink:href="#DejaVuSans-36" x="154.589844"/>
    </g>
   </g>
   <g id="legend_1">
    <g id="patch_7">
     <path d="M 48.16 136.425 
L 177.381875 136.425 
Q 181.381875 136.425 181.381875 132.425 
L 181.381875 17 
Q 181.381875 13 177.381875 13 
L 48.16 13 
Q 44.16 13 44.16 17 
L 44.16 132.425 
Q 44.16 136.425 48.16 136.425 
z
" style="fill: #ffffff; opacity: 0.2; stroke: #cccccc; stroke-linejoin: miter"/>
    </g>
    <g id="line2d_55">
     <path d="M 52.16 29.196875 
L 72.16 29.196875 
L 92.16 29.196875 
" style="fill: none; stroke: #000000; stroke-width: 3; stroke-linecap: square"/>
    </g>
    <g id="text_7">
     <!-- 1: 5/5 -->
     <g transform="translate(108.16 36.196875)scale(0.2 -0.2)">
      <defs>
       <path id="DejaVuSans-3a" d="M 750 794 
L 1409 794 
L 1409 0 
L 750 0 
L 750 794 
z
M 750 3309 
L 1409 3309 
L 1409 2516 
L 750 2516 
L 750 3309 
z
" transform="scale(0.015625)"/>
       <path id="DejaVuSans-2f" d="M 1625 4666 
L 2156 4666 
L 531 -594 
L 0 -594 
L 1625 4666 
z
" transform="scale(0.015625)"/>
      </defs>
      <use xlink:href="#DejaVuSans-31"/>
      <use xlink:href="#DejaVuSans-3a" x="63.623047"/>
      <use xlink:href="#DejaVuSans-20" x="97.314453"/>
      <use xlink:href="#DejaVuSans-35" x="129.101562"/>
      <use xlink:href="#DejaVuSans-2f" x="192.724609"/>
      <use xlink:href="#DejaVuSans-35" x="226.416016"/>
     </g>
    </g>
    <g id="line2d_56">
     <path d="M 52.16 58.553125 
L 72.16 58.553125 
L 92.16 58.553125 
" style="fill: none; stroke: #00bfbf; stroke-width: 3; stroke-linecap: square"/>
    </g>
    <g id="text_8">
     <!-- -1: 4/5 -->
     <g transform="translate(108.16 65.553125)scale(0.2 -0.2)">
      <defs>
       <path id="DejaVuSans-34" d="M 2419 4116 
L 825 1625 
L 2419 1625 
L 2419 4116 
z
M 2253 4666 
L 3047 4666 
L 3047 1625 
L 3713 1625 
L 3713 1100 
L 3047 1100 
L 3047 0 
L 2419 0 
L 2419 1100 
L 313 1100 
L 313 1709 
L 2253 4666 
z
" transform="scale(0.015625)"/>
      </defs>
      <use xlink:href="#DejaVuSans-2d"/>
      <use xlink:href="#DejaVuSans-31" x="36.083984"/>
      <use xlink:href="#DejaVuSans-3a" x="99.707031"/>
      <use xlink:href="#DejaVuSans-20" x="133.398438"/>
      <use xlink:href="#DejaVuSans-34" x="165.185547"/>
      <use xlink:href="#DejaVuSans-2f" x="228.808594"/>
      <use xlink:href="#DejaVuSans-35" x="262.5"/>
     </g>
    </g>
    <g id="line2d_57">
     <path d="M 52.16 87.909375 
L 72.16 87.909375 
L 92.16 87.909375 
" style="fill: none; stroke: #bf00bf; stroke-width: 3; stroke-linecap: square"/>
    </g>
    <g id="text_9">
     <!-- -4: 0/3 -->
     <g transform="translate(108.16 94.909375)scale(0.2 -0.2)">
      <defs>
       <path id="DejaVuSans-33" d="M 2597 2516 
Q 3050 2419 3304 2112 
Q 3559 1806 3559 1356 
Q 3559 666 3084 287 
Q 2609 -91 1734 -91 
Q 1441 -91 1130 -33 
Q 819 25 488 141 
L 488 750 
Q 750 597 1062 519 
Q 1375 441 1716 441 
Q 2309 441 2620 675 
Q 2931 909 2931 1356 
Q 2931 1769 2642 2001 
Q 2353 2234 1838 2234 
L 1294 2234 
L 1294 2753 
L 1863 2753 
Q 2328 2753 2575 2939 
Q 2822 3125 2822 3475 
Q 2822 3834 2567 4026 
Q 2313 4219 1838 4219 
Q 1578 4219 1281 4162 
Q 984 4106 628 3988 
L 628 4550 
Q 988 4650 1302 4700 
Q 1616 4750 1894 4750 
Q 2613 4750 3031 4423 
Q 3450 4097 3450 3541 
Q 3450 3153 3228 2886 
Q 3006 2619 2597 2516 
z
" transform="scale(0.015625)"/>
      </defs>
      <use xlink:href="#DejaVuSans-2d"/>
      <use xlink:href="#DejaVuSans-34" x="36.083984"/>
      <use xlink:href="#DejaVuSans-3a" x="99.707031"/>
      <use xlink:href="#DejaVuSans-20" x="133.398438"/>
      <use xlink:href="#DejaVuSans-30" x="165.185547"/>
      <use xlink:href="#DejaVuSans-2f" x="228.808594"/>
      <use xlink:href="#DejaVuSans-33" x="262.5"/>
     </g>
    </g>
    <g id="line2d_58">
     <path d="M 52.16 117.265625 
L 72.16 117.265625 
L 92.16 117.265625 
" style="fill: none; stroke: #ff0000; stroke-width: 3; stroke-linecap: square"/>
    </g>
    <g id="text_10">
     <!-- -8: 0/0 -->
     <g transform="translate(108.16 124.265625)scale(0.2 -0.2)">
      <defs>
       <path id="DejaVuSans-38" d="M 2034 2216 
Q 1584 2216 1326 1975 
Q 1069 1734 1069 1313 
Q 1069 891 1326 650 
Q 1584 409 2034 409 
Q 2484 409 2743 651 
Q 3003 894 3003 1313 
Q 3003 1734 2745 1975 
Q 2488 2216 2034 2216 
z
M 1403 2484 
Q 997 2584 770 2862 
Q 544 3141 544 3541 
Q 544 4100 942 4425 
Q 1341 4750 2034 4750 
Q 2731 4750 3128 4425 
Q 3525 4100 3525 3541 
Q 3525 3141 3298 2862 
Q 3072 2584 2669 2484 
Q 3125 2378 3379 2068 
Q 3634 1759 3634 1313 
Q 3634 634 3220 271 
Q 2806 -91 2034 -91 
Q 1263 -91 848 271 
Q 434 634 434 1313 
Q 434 1759 690 2068 
Q 947 2378 1403 2484 
z
M 1172 3481 
Q 1172 3119 1398 2916 
Q 1625 2713 2034 2713 
Q 2441 2713 2670 2916 
Q 2900 3119 2900 3481 
Q 2900 3844 2670 4047 
Q 2441 4250 2034 4250 
Q 1625 4250 1398 4047 
Q 1172 3844 1172 3481 
z
" transform="scale(0.015625)"/>
      </defs>
      <use xlink:href="#DejaVuSans-2d"/>
      <use xlink:href="#DejaVuSans-38" x="36.083984"/>
      <use xlink:href="#DejaVuSans-3a" x="99.707031"/>
      <use xlink:href="#DejaVuSans-20" x="133.398438"/>
      <use xlink:href="#DejaVuSans-30" x="165.185547"/>
      <use xlink:href="#DejaVuSans-2f" x="228.808594"/>
      <use xlink:href="#DejaVuSans-30" x="262.5"/>
     </g>
    </g>
   </g>
  </g>
 </g>
 <defs>
  <clipPath id="p39b6455d41">
   <rect x="34.16" y="3" width="419.032" height="288.28"/>
  </clipPath>
 </defs>
</svg>
