<?xml version="1.0" encoding="utf-8" standalone="no"?>
<!DOCTYPE svg PUBLIC "-//W3C//DTD SVG 1.1//EN"
  "http://www.w3.org/Graphics/SVG/1.1/DTD/svg11.dtd">
<svg xmlns:xlink="http://www.w3.org/1999/xlink" width="460.8pt" height="345.6pt" viewBox="0 0 460.8 345.6" xmlns="http://www.w3.org/2000/svg" version="1.1">
 <metadata>
  <rdf:RDF xmlns:dc="http://purl.org/dc/elements/1.1/" xmlns:cc="http://creativecommons.org/ns#" xmlns:rdf="http://www.w3.org/1999/02/22-rdf-syntax-ns#">
   <cc:Work>
    <dc:type rdf:resource="http://purl.org/dc/dcmitype/StillImage"/>
    <dc:date>2024-05-29T07:59:12.773378</dc:date>
    <dc:format>image/svg+xml</dc:format>
    <dc:creator>
     <cc:Agent>
      <dc:title>Matplotlib v3.5.1, https://matplotlib.org/</dc:title>
     </cc:Agent>
    </dc:creator>
   </cc:Work>
  </rdf:RDF>
 </metadata>
 <defs>
  <style type="text/css">*{stroke-linejoin: round; stroke-linecap: butt}</style>
 </defs>
 <g id="figure_1">
  <g id="patch_1">
   <path d="M 0 345.6 
L 460.8 345.6 
L 460.8 0 
L 0 0 
z
" style="fill: #ffffff"/>
  </g>
  <g id="axes_1">
   <g id="patch_2">
    <path d="M 57.6 298.944 
L 360.8064 298.944 
L 360.8064 6.912 
L 57.6 6.912 
z
" style="fill: #ffffff"/>
   </g>
   <g id="line2d_1">
    <path d="M 71.331702 298.944 
L 71.331702 240.5376 
L 71.779618 240.5376 
L 71.779618 239.392376 
L 71.999638 239.392376 
L 71.999638 238.247153 
L 72.432107 238.247153 
L 72.432107 237.101929 
L 72.644669 237.101929 
L 72.644669 235.956706 
L 73.268314 235.956706 
L 73.268314 234.811482 
L 74.456807 234.811482 
L 74.456807 233.666259 
L 74.836851 233.666259 
L 74.836851 232.521035 
L 75.574654 232.521035 
L 75.574654 231.375812 
L 76.629783 231.375812 
L 76.629783 230.230588 
L 76.800025 230.230588 
L 76.800025 229.085365 
L 77.628862 229.085365 
L 77.628862 227.940141 
L 77.790335 227.940141 
L 77.790335 225.649694 
L 77.950435 225.649694 
L 77.950435 224.504471 
L 78.109183 224.504471 
L 78.109183 223.359247 
L 78.266603 223.359247 
L 78.266603 218.778353 
L 78.422716 218.778353 
L 78.422716 182.1312 
L 112.283321 182.1312 
L 112.283321 180.985976 
L 113.789049 180.985976 
L 113.883699 168.388518 
L 113.907287 168.388518 
L 114.001345 132.886588 
L 114.024786 132.886588 
L 114.048198 128.305694 
L 114.211271 128.305694 
L 114.211271 127.160471 
L 114.624224 127.160471 
L 114.624224 126.015247 
L 116.542574 126.015247 
L 116.542574 124.870024 
L 118.835511 124.870024 
L 118.835511 123.7248 
L 121.39274 123.7248 
L 121.39274 122.579576 
L 149.76753 122.579576 
L 149.76753 121.434353 
L 152.870956 121.434353 
L 152.870956 120.289129 
L 155.13016 120.289129 
L 155.13016 119.143906 
L 157.859835 119.143906 
L 157.859835 117.998682 
L 159.657945 117.998682 
L 159.657945 116.853459 
L 162.790931 116.853459 
L 162.790931 115.708235 
L 163.983181 115.708235 
L 163.983181 114.563012 
L 167.331571 114.563012 
L 167.331571 113.417788 
L 169.284344 113.417788 
L 169.284344 112.272565 
L 169.743035 112.272565 
L 169.849356 90.513318 
L 169.854175 90.513318 
L 169.956278 33.252141 
L 169.979025 33.252141 
L 170.012498 17.219012 
L 207.531926 17.219012 
L 207.532413 14.928565 
L 224.312412 14.928565 
L 224.312478 11.492894 
L 238.9756 11.492894 
L 238.977403 6.912 
L 360.8064 6.912 
L 360.8064 6.912 
" style="fill: none; stroke: #f5deb3; stroke-width: 4; stroke-linecap: square"/>
   </g>
   <g id="line2d_2">
    <defs>
     <path id="m8bafa35e5d" d="M 0 7.778175 
L 7.778175 0 
L 0 -7.778175 
L -7.778175 0 
z
" style="stroke: #f5deb3; stroke-width: 1.5; stroke-linejoin: miter"/>
    </defs>
    <g>
     <use xlink:href="#m8bafa35e5d" x="155.13016" y="119.143906" style="fill: #f5deb3; stroke: #f5deb3; stroke-width: 1.5; stroke-linejoin: miter"/>
     <use xlink:href="#m8bafa35e5d" x="170.012498" y="17.219012" style="fill: #f5deb3; stroke: #f5deb3; stroke-width: 1.5; stroke-linejoin: miter"/>
     <use xlink:href="#m8bafa35e5d" x="238.977403" y="6.912" style="fill: #f5deb3; stroke: #f5deb3; stroke-width: 1.5; stroke-linejoin: miter"/>
     <use xlink:href="#m8bafa35e5d" x="238.977403" y="6.912" style="fill: #f5deb3; stroke: #f5deb3; stroke-width: 1.5; stroke-linejoin: miter"/>
     <use xlink:href="#m8bafa35e5d" x="360.8064" y="6.912" style="fill: #f5deb3; stroke: #f5deb3; stroke-width: 1.5; stroke-linejoin: miter"/>
    </g>
   </g>
   <g id="line2d_3">
    <path style="fill: none; stroke: #f5deb3; stroke-width: 4; stroke-linecap: square"/>
    <g/>
   </g>
   <g id="line2d_4">
    <path d="M 360.8064 6.912 
L 380.514816 12.75264 
" style="fill: none; stroke: #f5deb3; stroke-width: 4; stroke-linecap: square"/>
    <g>
     <use xlink:href="#m8bafa35e5d" x="360.8064" y="6.912" style="fill: #f5deb3; stroke: #f5deb3; stroke-width: 1.5; stroke-linejoin: miter"/>
     <use xlink:href="#m8bafa35e5d" x="380.514816" y="12.75264" style="fill: #f5deb3; stroke: #f5deb3; stroke-width: 1.5; stroke-linejoin: miter"/>
    </g>
   </g>
   <g id="matplotlib.axis_1">
    <g id="xtick_1">
     <g id="line2d_5">
      <path d="M 57.6 298.944 
L 57.6 6.912 
" clip-path="url(#pd2324018b4)" style="fill: none; stroke: #b0b0b0; stroke-width: 0.8; stroke-linecap: square"/>
     </g>
     <g id="line2d_6">
      <defs>
       <path id="m4705fb8b38" d="M 0 0 
L 0 3.5 
" style="stroke: #000000; stroke-width: 0.8"/>
      </defs>
      <g>
       <use xlink:href="#m4705fb8b38" x="57.6" y="298.944" style="stroke: #000000; stroke-width: 0.8"/>
      </g>
     </g>
     <g id="text_1">
      <!-- 0 -->
      <g transform="translate(52.191875 318.861344)scale(0.17 -0.17)">
       <defs>
        <path id="DejaVuSans-30" d="M 2034 4250 
Q 1547 4250 1301 3770 
Q 1056 3291 1056 2328 
Q 1056 1369 1301 889 
Q 1547 409 2034 409 
Q 2525 409 2770 889 
Q 3016 1369 3016 2328 
Q 3016 3291 2770 3770 
Q 2525 4250 2034 4250 
z
M 2034 4750 
Q 2819 4750 3233 4129 
Q 3647 3509 3647 2328 
Q 3647 1150 3233 529 
Q 2819 -91 2034 -91 
Q 1250 -91 836 529 
Q 422 1150 422 2328 
Q 422 3509 836 4129 
Q 1250 4750 2034 4750 
z
" transform="scale(0.015625)"/>
       </defs>
       <use xlink:href="#DejaVuSans-30"/>
      </g>
     </g>
    </g>
    <g id="xtick_2">
     <g id="line2d_7">
      <path d="M 144.2304 298.944 
L 144.2304 6.912 
" clip-path="url(#pd2324018b4)" style="fill: none; stroke: #b0b0b0; stroke-width: 0.8; stroke-linecap: square"/>
     </g>
     <g id="line2d_8">
      <g>
       <use xlink:href="#m4705fb8b38" x="144.2304" y="298.944" style="stroke: #000000; stroke-width: 0.8"/>
      </g>
     </g>
     <g id="text_2">
      <!-- 2 -->
      <g transform="translate(138.822275 318.861344)scale(0.17 -0.17)">
       <defs>
        <path id="DejaVuSans-32" d="M 1228 531 
L 3431 531 
L 3431 0 
L 469 0 
L 469 531 
Q 828 903 1448 1529 
Q 2069 2156 2228 2338 
Q 2531 2678 2651 2914 
Q 2772 3150 2772 3378 
Q 2772 3750 2511 3984 
Q 2250 4219 1831 4219 
Q 1534 4219 1204 4116 
Q 875 4013 500 3803 
L 500 4441 
Q 881 4594 1212 4672 
Q 1544 4750 1819 4750 
Q 2544 4750 2975 4387 
Q 3406 4025 3406 3419 
Q 3406 3131 3298 2873 
Q 3191 2616 2906 2266 
Q 2828 2175 2409 1742 
Q 1991 1309 1228 531 
z
" transform="scale(0.015625)"/>
       </defs>
       <use xlink:href="#DejaVuSans-32"/>
      </g>
     </g>
    </g>
    <g id="xtick_3">
     <g id="line2d_9">
      <path d="M 230.8608 298.944 
L 230.8608 6.912 
" clip-path="url(#pd2324018b4)" style="fill: none; stroke: #b0b0b0; stroke-width: 0.8; stroke-linecap: square"/>
     </g>
     <g id="line2d_10">
      <g>
       <use xlink:href="#m4705fb8b38" x="230.8608" y="298.944" style="stroke: #000000; stroke-width: 0.8"/>
      </g>
     </g>
     <g id="text_3">
      <!-- 4 -->
      <g transform="translate(225.452675 318.861344)scale(0.17 -0.17)">
       <defs>
        <path id="DejaVuSans-34" d="M 2419 4116 
L 825 1625 
L 2419 1625 
L 2419 4116 
z
M 2253 4666 
L 3047 4666 
L 3047 1625 
L 3713 1625 
L 3713 1100 
L 3047 1100 
L 3047 0 
L 2419 0 
L 2419 1100 
L 313 1100 
L 313 1709 
L 2253 4666 
z
" transform="scale(0.015625)"/>
       </defs>
       <use xlink:href="#DejaVuSans-34"/>
      </g>
     </g>
    </g>
    <g id="xtick_4">
     <g id="line2d_11">
      <path d="M 317.4912 298.944 
L 317.4912 6.912 
" clip-path="url(#pd2324018b4)" style="fill: none; stroke: #b0b0b0; stroke-width: 0.8; stroke-linecap: square"/>
     </g>
     <g id="line2d_12">
      <g>
       <use xlink:href="#m4705fb8b38" x="317.4912" y="298.944" style="stroke: #000000; stroke-width: 0.8"/>
      </g>
     </g>
     <g id="text_4">
      <!-- 6 -->
      <g transform="translate(312.083075 318.861344)scale(0.17 -0.17)">
       <defs>
        <path id="DejaVuSans-36" d="M 2113 2584 
Q 1688 2584 1439 2293 
Q 1191 2003 1191 1497 
Q 1191 994 1439 701 
Q 1688 409 2113 409 
Q 2538 409 2786 701 
Q 3034 994 3034 1497 
Q 3034 2003 2786 2293 
Q 2538 2584 2113 2584 
z
M 3366 4563 
L 3366 3988 
Q 3128 4100 2886 4159 
Q 2644 4219 2406 4219 
Q 1781 4219 1451 3797 
Q 1122 3375 1075 2522 
Q 1259 2794 1537 2939 
Q 1816 3084 2150 3084 
Q 2853 3084 3261 2657 
Q 3669 2231 3669 1497 
Q 3669 778 3244 343 
Q 2819 -91 2113 -91 
Q 1303 -91 875 529 
Q 447 1150 447 2328 
Q 447 3434 972 4092 
Q 1497 4750 2381 4750 
Q 2619 4750 2861 4703 
Q 3103 4656 3366 4563 
z
" transform="scale(0.015625)"/>
       </defs>
       <use xlink:href="#DejaVuSans-36"/>
      </g>
     </g>
    </g>
    <g id="xtick_5">
     <g id="line2d_13">
      <path d="M 100.9152 298.944 
L 100.9152 6.912 
" clip-path="url(#pd2324018b4)" style="fill: none; stroke: #b0b0b0; stroke-width: 0.8; stroke-linecap: square"/>
     </g>
     <g id="line2d_14">
      <defs>
       <path id="m3505e02767" d="M 0 0 
L 0 2 
" style="stroke: #000000; stroke-width: 0.6"/>
      </defs>
      <g>
       <use xlink:href="#m3505e02767" x="100.9152" y="298.944" style="stroke: #000000; stroke-width: 0.6"/>
      </g>
     </g>
    </g>
    <g id="xtick_6">
     <g id="line2d_15">
      <path d="M 187.5456 298.944 
L 187.5456 6.912 
" clip-path="url(#pd2324018b4)" style="fill: none; stroke: #b0b0b0; stroke-width: 0.8; stroke-linecap: square"/>
     </g>
     <g id="line2d_16">
      <g>
       <use xlink:href="#m3505e02767" x="187.5456" y="298.944" style="stroke: #000000; stroke-width: 0.6"/>
      </g>
     </g>
    </g>
    <g id="xtick_7">
     <g id="line2d_17">
      <path d="M 274.176 298.944 
L 274.176 6.912 
" clip-path="url(#pd2324018b4)" style="fill: none; stroke: #b0b0b0; stroke-width: 0.8; stroke-linecap: square"/>
     </g>
     <g id="line2d_18">
      <g>
       <use xlink:href="#m3505e02767" x="274.176" y="298.944" style="stroke: #000000; stroke-width: 0.6"/>
      </g>
     </g>
    </g>
    <g id="xtick_8">
     <g id="line2d_19">
      <path d="M 360.8064 298.944 
L 360.8064 6.912 
" clip-path="url(#pd2324018b4)" style="fill: none; stroke: #b0b0b0; stroke-width: 0.8; stroke-linecap: square"/>
     </g>
     <g id="line2d_20">
      <g>
       <use xlink:href="#m3505e02767" x="360.8064" y="298.944" style="stroke: #000000; stroke-width: 0.6"/>
      </g>
     </g>
    </g>
    <g id="text_5">
     <!-- log10(# f-evals / dimension) -->
     <g transform="translate(88.823278 339.314156)scale(0.17 -0.17)">
      <defs>
       <path id="DejaVuSans-6c" d="M 603 4863 
L 1178 4863 
L 1178 0 
L 603 0 
L 603 4863 
z
" transform="scale(0.015625)"/>
       <path id="DejaVuSans-6f" d="M 1959 3097 
Q 1497 3097 1228 2736 
Q 959 2375 959 1747 
Q 959 1119 1226 758 
Q 1494 397 1959 397 
Q 2419 397 2687 759 
Q 2956 1122 2956 1747 
Q 2956 2369 2687 2733 
Q 2419 3097 1959 3097 
z
M 1959 3584 
Q 2709 3584 3137 3096 
Q 3566 2609 3566 1747 
Q 3566 888 3137 398 
Q 2709 -91 1959 -91 
Q 1206 -91 779 398 
Q 353 888 353 1747 
Q 353 2609 779 3096 
Q 1206 3584 1959 3584 
z
" transform="scale(0.015625)"/>
       <path id="DejaVuSans-67" d="M 2906 1791 
Q 2906 2416 2648 2759 
Q 2391 3103 1925 3103 
Q 1463 3103 1205 2759 
Q 947 2416 947 1791 
Q 947 1169 1205 825 
Q 1463 481 1925 481 
Q 2391 481 2648 825 
Q 2906 1169 2906 1791 
z
M 3481 434 
Q 3481 -459 3084 -895 
Q 2688 -1331 1869 -1331 
Q 1566 -1331 1297 -1286 
Q 1028 -1241 775 -1147 
L 775 -588 
Q 1028 -725 1275 -790 
Q 1522 -856 1778 -856 
Q 2344 -856 2625 -561 
Q 2906 -266 2906 331 
L 2906 616 
Q 2728 306 2450 153 
Q 2172 0 1784 0 
Q 1141 0 747 490 
Q 353 981 353 1791 
Q 353 2603 747 3093 
Q 1141 3584 1784 3584 
Q 2172 3584 2450 3431 
Q 2728 3278 2906 2969 
L 2906 3500 
L 3481 3500 
L 3481 434 
z
" transform="scale(0.015625)"/>
       <path id="DejaVuSans-31" d="M 794 531 
L 1825 531 
L 1825 4091 
L 703 3866 
L 703 4441 
L 1819 4666 
L 2450 4666 
L 2450 531 
L 3481 531 
L 3481 0 
L 794 0 
L 794 531 
z
" transform="scale(0.015625)"/>
       <path id="DejaVuSans-28" d="M 1984 4856 
Q 1566 4138 1362 3434 
Q 1159 2731 1159 2009 
Q 1159 1288 1364 580 
Q 1569 -128 1984 -844 
L 1484 -844 
Q 1016 -109 783 600 
Q 550 1309 550 2009 
Q 550 2706 781 3412 
Q 1013 4119 1484 4856 
L 1984 4856 
z
" transform="scale(0.015625)"/>
       <path id="DejaVuSans-23" d="M 3272 2816 
L 2363 2816 
L 2100 1772 
L 3016 1772 
L 3272 2816 
z
M 2803 4594 
L 2478 3297 
L 3391 3297 
L 3719 4594 
L 4219 4594 
L 3897 3297 
L 4872 3297 
L 4872 2816 
L 3775 2816 
L 3519 1772 
L 4513 1772 
L 4513 1294 
L 3397 1294 
L 3072 0 
L 2572 0 
L 2894 1294 
L 1978 1294 
L 1656 0 
L 1153 0 
L 1478 1294 
L 494 1294 
L 494 1772 
L 1594 1772 
L 1856 2816 
L 850 2816 
L 850 3297 
L 1978 3297 
L 2297 4594 
L 2803 4594 
z
" transform="scale(0.015625)"/>
       <path id="DejaVuSans-20" transform="scale(0.015625)"/>
       <path id="DejaVuSans-66" d="M 2375 4863 
L 2375 4384 
L 1825 4384 
Q 1516 4384 1395 4259 
Q 1275 4134 1275 3809 
L 1275 3500 
L 2222 3500 
L 2222 3053 
L 1275 3053 
L 1275 0 
L 697 0 
L 697 3053 
L 147 3053 
L 147 3500 
L 697 3500 
L 697 3744 
Q 697 4328 969 4595 
Q 1241 4863 1831 4863 
L 2375 4863 
z
" transform="scale(0.015625)"/>
       <path id="DejaVuSans-2d" d="M 313 2009 
L 1997 2009 
L 1997 1497 
L 313 1497 
L 313 2009 
z
" transform="scale(0.015625)"/>
       <path id="DejaVuSans-65" d="M 3597 1894 
L 3597 1613 
L 953 1613 
Q 991 1019 1311 708 
Q 1631 397 2203 397 
Q 2534 397 2845 478 
Q 3156 559 3463 722 
L 3463 178 
Q 3153 47 2828 -22 
Q 2503 -91 2169 -91 
Q 1331 -91 842 396 
Q 353 884 353 1716 
Q 353 2575 817 3079 
Q 1281 3584 2069 3584 
Q 2775 3584 3186 3129 
Q 3597 2675 3597 1894 
z
M 3022 2063 
Q 3016 2534 2758 2815 
Q 2500 3097 2075 3097 
Q 1594 3097 1305 2825 
Q 1016 2553 972 2059 
L 3022 2063 
z
" transform="scale(0.015625)"/>
       <path id="DejaVuSans-76" d="M 191 3500 
L 800 3500 
L 1894 563 
L 2988 3500 
L 3597 3500 
L 2284 0 
L 1503 0 
L 191 3500 
z
" transform="scale(0.015625)"/>
       <path id="DejaVuSans-61" d="M 2194 1759 
Q 1497 1759 1228 1600 
Q 959 1441 959 1056 
Q 959 750 1161 570 
Q 1363 391 1709 391 
Q 2188 391 2477 730 
Q 2766 1069 2766 1631 
L 2766 1759 
L 2194 1759 
z
M 3341 1997 
L 3341 0 
L 2766 0 
L 2766 531 
Q 2569 213 2275 61 
Q 1981 -91 1556 -91 
Q 1019 -91 701 211 
Q 384 513 384 1019 
Q 384 1609 779 1909 
Q 1175 2209 1959 2209 
L 2766 2209 
L 2766 2266 
Q 2766 2663 2505 2880 
Q 2244 3097 1772 3097 
Q 1472 3097 1187 3025 
Q 903 2953 641 2809 
L 641 3341 
Q 956 3463 1253 3523 
Q 1550 3584 1831 3584 
Q 2591 3584 2966 3190 
Q 3341 2797 3341 1997 
z
" transform="scale(0.015625)"/>
       <path id="DejaVuSans-73" d="M 2834 3397 
L 2834 2853 
Q 2591 2978 2328 3040 
Q 2066 3103 1784 3103 
Q 1356 3103 1142 2972 
Q 928 2841 928 2578 
Q 928 2378 1081 2264 
Q 1234 2150 1697 2047 
L 1894 2003 
Q 2506 1872 2764 1633 
Q 3022 1394 3022 966 
Q 3022 478 2636 193 
Q 2250 -91 1575 -91 
Q 1294 -91 989 -36 
Q 684 19 347 128 
L 347 722 
Q 666 556 975 473 
Q 1284 391 1588 391 
Q 1994 391 2212 530 
Q 2431 669 2431 922 
Q 2431 1156 2273 1281 
Q 2116 1406 1581 1522 
L 1381 1569 
Q 847 1681 609 1914 
Q 372 2147 372 2553 
Q 372 3047 722 3315 
Q 1072 3584 1716 3584 
Q 2034 3584 2315 3537 
Q 2597 3491 2834 3397 
z
" transform="scale(0.015625)"/>
       <path id="DejaVuSans-2f" d="M 1625 4666 
L 2156 4666 
L 531 -594 
L 0 -594 
L 1625 4666 
z
" transform="scale(0.015625)"/>
       <path id="DejaVuSans-64" d="M 2906 2969 
L 2906 4863 
L 3481 4863 
L 3481 0 
L 2906 0 
L 2906 525 
Q 2725 213 2448 61 
Q 2172 -91 1784 -91 
Q 1150 -91 751 415 
Q 353 922 353 1747 
Q 353 2572 751 3078 
Q 1150 3584 1784 3584 
Q 2172 3584 2448 3432 
Q 2725 3281 2906 2969 
z
M 947 1747 
Q 947 1113 1208 752 
Q 1469 391 1925 391 
Q 2381 391 2643 752 
Q 2906 1113 2906 1747 
Q 2906 2381 2643 2742 
Q 2381 3103 1925 3103 
Q 1469 3103 1208 2742 
Q 947 2381 947 1747 
z
" transform="scale(0.015625)"/>
       <path id="DejaVuSans-69" d="M 603 3500 
L 1178 3500 
L 1178 0 
L 603 0 
L 603 3500 
z
M 603 4863 
L 1178 4863 
L 1178 4134 
L 603 4134 
L 603 4863 
z
" transform="scale(0.015625)"/>
       <path id="DejaVuSans-6d" d="M 3328 2828 
Q 3544 3216 3844 3400 
Q 4144 3584 4550 3584 
Q 5097 3584 5394 3201 
Q 5691 2819 5691 2113 
L 5691 0 
L 5113 0 
L 5113 2094 
Q 5113 2597 4934 2840 
Q 4756 3084 4391 3084 
Q 3944 3084 3684 2787 
Q 3425 2491 3425 1978 
L 3425 0 
L 2847 0 
L 2847 2094 
Q 2847 2600 2669 2842 
Q 2491 3084 2119 3084 
Q 1678 3084 1418 2786 
Q 1159 2488 1159 1978 
L 1159 0 
L 581 0 
L 581 3500 
L 1159 3500 
L 1159 2956 
Q 1356 3278 1631 3431 
Q 1906 3584 2284 3584 
Q 2666 3584 2933 3390 
Q 3200 3197 3328 2828 
z
" transform="scale(0.015625)"/>
       <path id="DejaVuSans-6e" d="M 3513 2113 
L 3513 0 
L 2938 0 
L 2938 2094 
Q 2938 2591 2744 2837 
Q 2550 3084 2163 3084 
Q 1697 3084 1428 2787 
Q 1159 2491 1159 1978 
L 1159 0 
L 581 0 
L 581 3500 
L 1159 3500 
L 1159 2956 
Q 1366 3272 1645 3428 
Q 1925 3584 2291 3584 
Q 2894 3584 3203 3211 
Q 3513 2838 3513 2113 
z
" transform="scale(0.015625)"/>
       <path id="DejaVuSans-29" d="M 513 4856 
L 1013 4856 
Q 1481 4119 1714 3412 
Q 1947 2706 1947 2009 
Q 1947 1309 1714 600 
Q 1481 -109 1013 -844 
L 513 -844 
Q 928 -128 1133 580 
Q 1338 1288 1338 2009 
Q 1338 2731 1133 3434 
Q 928 4138 513 4856 
z
" transform="scale(0.015625)"/>
      </defs>
      <use xlink:href="#DejaVuSans-6c"/>
      <use xlink:href="#DejaVuSans-6f" x="27.783203"/>
      <use xlink:href="#DejaVuSans-67" x="88.964844"/>
      <use xlink:href="#DejaVuSans-31" x="152.441406"/>
      <use xlink:href="#DejaVuSans-30" x="216.064453"/>
      <use xlink:href="#DejaVuSans-28" x="279.6875"/>
      <use xlink:href="#DejaVuSans-23" x="318.701172"/>
      <use xlink:href="#DejaVuSans-20" x="402.490234"/>
      <use xlink:href="#DejaVuSans-66" x="434.277344"/>
      <use xlink:href="#DejaVuSans-2d" x="463.982422"/>
      <use xlink:href="#DejaVuSans-65" x="500.066406"/>
      <use xlink:href="#DejaVuSans-76" x="561.589844"/>
      <use xlink:href="#DejaVuSans-61" x="620.769531"/>
      <use xlink:href="#DejaVuSans-6c" x="682.048828"/>
      <use xlink:href="#DejaVuSans-73" x="709.832031"/>
      <use xlink:href="#DejaVuSans-20" x="761.931641"/>
      <use xlink:href="#DejaVuSans-2f" x="793.71875"/>
      <use xlink:href="#DejaVuSans-20" x="827.410156"/>
      <use xlink:href="#DejaVuSans-64" x="859.197266"/>
      <use xlink:href="#DejaVuSans-69" x="922.673828"/>
      <use xlink:href="#DejaVuSans-6d" x="950.457031"/>
      <use xlink:href="#DejaVuSans-65" x="1047.869141"/>
      <use xlink:href="#DejaVuSans-6e" x="1109.392578"/>
      <use xlink:href="#DejaVuSans-73" x="1172.771484"/>
      <use xlink:href="#DejaVuSans-69" x="1224.871094"/>
      <use xlink:href="#DejaVuSans-6f" x="1252.654297"/>
      <use xlink:href="#DejaVuSans-6e" x="1313.835938"/>
      <use xlink:href="#DejaVuSans-29" x="1377.214844"/>
     </g>
    </g>
   </g>
   <g id="matplotlib.axis_2">
    <g id="ytick_1">
     <g id="line2d_21">
      <path d="M 57.6 298.944 
L 360.8064 298.944 
" clip-path="url(#pd2324018b4)" style="fill: none; stroke: #b0b0b0; stroke-width: 0.8; stroke-linecap: square"/>
     </g>
     <g id="line2d_22">
      <defs>
       <path id="m100389ce12" d="M 0 0 
L -3.5 0 
" style="stroke: #000000; stroke-width: 0.8"/>
      </defs>
      <g>
       <use xlink:href="#m100389ce12" x="57.6" y="298.944" style="stroke: #000000; stroke-width: 0.8"/>
      </g>
     </g>
     <g id="text_6">
      <!-- 0.0 -->
      <g transform="translate(25.155 305.02275)scale(0.16 -0.16)">
       <defs>
        <path id="DejaVuSans-2e" d="M 684 794 
L 1344 794 
L 1344 0 
L 684 0 
L 684 794 
z
" transform="scale(0.015625)"/>
       </defs>
       <use xlink:href="#DejaVuSans-30"/>
       <use xlink:href="#DejaVuSans-2e" x="63.623047"/>
       <use xlink:href="#DejaVuSans-30" x="95.410156"/>
      </g>
     </g>
    </g>
    <g id="ytick_2">
     <g id="line2d_23">
      <path d="M 57.6 240.5376 
L 360.8064 240.5376 
" clip-path="url(#pd2324018b4)" style="fill: none; stroke: #b0b0b0; stroke-width: 0.8; stroke-linecap: square"/>
     </g>
     <g id="line2d_24">
      <g>
       <use xlink:href="#m100389ce12" x="57.6" y="240.5376" style="stroke: #000000; stroke-width: 0.8"/>
      </g>
     </g>
     <g id="text_7">
      <!-- 0.2 -->
      <g transform="translate(25.155 246.61635)scale(0.16 -0.16)">
       <use xlink:href="#DejaVuSans-30"/>
       <use xlink:href="#DejaVuSans-2e" x="63.623047"/>
       <use xlink:href="#DejaVuSans-32" x="95.410156"/>
      </g>
     </g>
    </g>
    <g id="ytick_3">
     <g id="line2d_25">
      <path d="M 57.6 182.1312 
L 360.8064 182.1312 
" clip-path="url(#pd2324018b4)" style="fill: none; stroke: #b0b0b0; stroke-width: 0.8; stroke-linecap: square"/>
     </g>
     <g id="line2d_26">
      <g>
       <use xlink:href="#m100389ce12" x="57.6" y="182.1312" style="stroke: #000000; stroke-width: 0.8"/>
      </g>
     </g>
     <g id="text_8">
      <!-- 0.4 -->
      <g transform="translate(25.155 188.20995)scale(0.16 -0.16)">
       <use xlink:href="#DejaVuSans-30"/>
       <use xlink:href="#DejaVuSans-2e" x="63.623047"/>
       <use xlink:href="#DejaVuSans-34" x="95.410156"/>
      </g>
     </g>
    </g>
    <g id="ytick_4">
     <g id="line2d_27">
      <path d="M 57.6 123.7248 
L 360.8064 123.7248 
" clip-path="url(#pd2324018b4)" style="fill: none; stroke: #b0b0b0; stroke-width: 0.8; stroke-linecap: square"/>
     </g>
     <g id="line2d_28">
      <g>
       <use xlink:href="#m100389ce12" x="57.6" y="123.7248" style="stroke: #000000; stroke-width: 0.8"/>
      </g>
     </g>
     <g id="text_9">
      <!-- 0.6 -->
      <g transform="translate(25.155 129.80355)scale(0.16 -0.16)">
       <use xlink:href="#DejaVuSans-30"/>
       <use xlink:href="#DejaVuSans-2e" x="63.623047"/>
       <use xlink:href="#DejaVuSans-36" x="95.410156"/>
      </g>
     </g>
    </g>
    <g id="ytick_5">
     <g id="line2d_29">
      <path d="M 57.6 65.3184 
L 360.8064 65.3184 
" clip-path="url(#pd2324018b4)" style="fill: none; stroke: #b0b0b0; stroke-width: 0.8; stroke-linecap: square"/>
     </g>
     <g id="line2d_30">
      <g>
       <use xlink:href="#m100389ce12" x="57.6" y="65.3184" style="stroke: #000000; stroke-width: 0.8"/>
      </g>
     </g>
     <g id="text_10">
      <!-- 0.8 -->
      <g transform="translate(25.155 71.39715)scale(0.16 -0.16)">
       <defs>
        <path id="DejaVuSans-38" d="M 2034 2216 
Q 1584 2216 1326 1975 
Q 1069 1734 1069 1313 
Q 1069 891 1326 650 
Q 1584 409 2034 409 
Q 2484 409 2743 651 
Q 3003 894 3003 1313 
Q 3003 1734 2745 1975 
Q 2488 2216 2034 2216 
z
M 1403 2484 
Q 997 2584 770 2862 
Q 544 3141 544 3541 
Q 544 4100 942 4425 
Q 1341 4750 2034 4750 
Q 2731 4750 3128 4425 
Q 3525 4100 3525 3541 
Q 3525 3141 3298 2862 
Q 3072 2584 2669 2484 
Q 3125 2378 3379 2068 
Q 3634 1759 3634 1313 
Q 3634 634 3220 271 
Q 2806 -91 2034 -91 
Q 1263 -91 848 271 
Q 434 634 434 1313 
Q 434 1759 690 2068 
Q 947 2378 1403 2484 
z
M 1172 3481 
Q 1172 3119 1398 2916 
Q 1625 2713 2034 2713 
Q 2441 2713 2670 2916 
Q 2900 3119 2900 3481 
Q 2900 3844 2670 4047 
Q 2441 4250 2034 4250 
Q 1625 4250 1398 4047 
Q 1172 3844 1172 3481 
z
" transform="scale(0.015625)"/>
       </defs>
       <use xlink:href="#DejaVuSans-30"/>
       <use xlink:href="#DejaVuSans-2e" x="63.623047"/>
       <use xlink:href="#DejaVuSans-38" x="95.410156"/>
      </g>
     </g>
    </g>
    <g id="ytick_6">
     <g id="line2d_31">
      <path d="M 57.6 6.912 
L 360.8064 6.912 
" clip-path="url(#pd2324018b4)" style="fill: none; stroke: #b0b0b0; stroke-width: 0.8; stroke-linecap: square"/>
     </g>
     <g id="line2d_32">
      <g>
       <use xlink:href="#m100389ce12" x="57.6" y="6.912" style="stroke: #000000; stroke-width: 0.8"/>
      </g>
     </g>
     <g id="text_11">
      <!-- 1.0 -->
      <g transform="translate(25.155 12.99075)scale(0.16 -0.16)">
       <use xlink:href="#DejaVuSans-31"/>
       <use xlink:href="#DejaVuSans-2e" x="63.623047"/>
       <use xlink:href="#DejaVuSans-30" x="95.410156"/>
      </g>
     </g>
    </g>
    <g id="text_12">
     <!-- Fraction of function,target pairs -->
     <g transform="translate(17.619531 287.313)rotate(-90)scale(0.17 -0.17)">
      <defs>
       <path id="DejaVuSans-46" d="M 628 4666 
L 3309 4666 
L 3309 4134 
L 1259 4134 
L 1259 2759 
L 3109 2759 
L 3109 2228 
L 1259 2228 
L 1259 0 
L 628 0 
L 628 4666 
z
" transform="scale(0.015625)"/>
       <path id="DejaVuSans-72" d="M 2631 2963 
Q 2534 3019 2420 3045 
Q 2306 3072 2169 3072 
Q 1681 3072 1420 2755 
Q 1159 2438 1159 1844 
L 1159 0 
L 581 0 
L 581 3500 
L 1159 3500 
L 1159 2956 
Q 1341 3275 1631 3429 
Q 1922 3584 2338 3584 
Q 2397 3584 2469 3576 
Q 2541 3569 2628 3553 
L 2631 2963 
z
" transform="scale(0.015625)"/>
       <path id="DejaVuSans-63" d="M 3122 3366 
L 3122 2828 
Q 2878 2963 2633 3030 
Q 2388 3097 2138 3097 
Q 1578 3097 1268 2742 
Q 959 2388 959 1747 
Q 959 1106 1268 751 
Q 1578 397 2138 397 
Q 2388 397 2633 464 
Q 2878 531 3122 666 
L 3122 134 
Q 2881 22 2623 -34 
Q 2366 -91 2075 -91 
Q 1284 -91 818 406 
Q 353 903 353 1747 
Q 353 2603 823 3093 
Q 1294 3584 2113 3584 
Q 2378 3584 2631 3529 
Q 2884 3475 3122 3366 
z
" transform="scale(0.015625)"/>
       <path id="DejaVuSans-74" d="M 1172 4494 
L 1172 3500 
L 2356 3500 
L 2356 3053 
L 1172 3053 
L 1172 1153 
Q 1172 725 1289 603 
Q 1406 481 1766 481 
L 2356 481 
L 2356 0 
L 1766 0 
Q 1100 0 847 248 
Q 594 497 594 1153 
L 594 3053 
L 172 3053 
L 172 3500 
L 594 3500 
L 594 4494 
L 1172 4494 
z
" transform="scale(0.015625)"/>
       <path id="DejaVuSans-75" d="M 544 1381 
L 544 3500 
L 1119 3500 
L 1119 1403 
Q 1119 906 1312 657 
Q 1506 409 1894 409 
Q 2359 409 2629 706 
Q 2900 1003 2900 1516 
L 2900 3500 
L 3475 3500 
L 3475 0 
L 2900 0 
L 2900 538 
Q 2691 219 2414 64 
Q 2138 -91 1772 -91 
Q 1169 -91 856 284 
Q 544 659 544 1381 
z
M 1991 3584 
L 1991 3584 
z
" transform="scale(0.015625)"/>
       <path id="DejaVuSans-2c" d="M 750 794 
L 1409 794 
L 1409 256 
L 897 -744 
L 494 -744 
L 750 256 
L 750 794 
z
" transform="scale(0.015625)"/>
       <path id="DejaVuSans-70" d="M 1159 525 
L 1159 -1331 
L 581 -1331 
L 581 3500 
L 1159 3500 
L 1159 2969 
Q 1341 3281 1617 3432 
Q 1894 3584 2278 3584 
Q 2916 3584 3314 3078 
Q 3713 2572 3713 1747 
Q 3713 922 3314 415 
Q 2916 -91 2278 -91 
Q 1894 -91 1617 61 
Q 1341 213 1159 525 
z
M 3116 1747 
Q 3116 2381 2855 2742 
Q 2594 3103 2138 3103 
Q 1681 3103 1420 2742 
Q 1159 2381 1159 1747 
Q 1159 1113 1420 752 
Q 1681 391 2138 391 
Q 2594 391 2855 752 
Q 3116 1113 3116 1747 
z
" transform="scale(0.015625)"/>
      </defs>
      <use xlink:href="#DejaVuSans-46"/>
      <use xlink:href="#DejaVuSans-72" x="50.269531"/>
      <use xlink:href="#DejaVuSans-61" x="91.382812"/>
      <use xlink:href="#DejaVuSans-63" x="152.662109"/>
      <use xlink:href="#DejaVuSans-74" x="207.642578"/>
      <use xlink:href="#DejaVuSans-69" x="246.851562"/>
      <use xlink:href="#DejaVuSans-6f" x="274.634766"/>
      <use xlink:href="#DejaVuSans-6e" x="335.816406"/>
      <use xlink:href="#DejaVuSans-20" x="399.195312"/>
      <use xlink:href="#DejaVuSans-6f" x="430.982422"/>
      <use xlink:href="#DejaVuSans-66" x="492.164062"/>
      <use xlink:href="#DejaVuSans-20" x="527.369141"/>
      <use xlink:href="#DejaVuSans-66" x="559.15625"/>
      <use xlink:href="#DejaVuSans-75" x="594.361328"/>
      <use xlink:href="#DejaVuSans-6e" x="657.740234"/>
      <use xlink:href="#DejaVuSans-63" x="721.119141"/>
      <use xlink:href="#DejaVuSans-74" x="776.099609"/>
      <use xlink:href="#DejaVuSans-69" x="815.308594"/>
      <use xlink:href="#DejaVuSans-6f" x="843.091797"/>
      <use xlink:href="#DejaVuSans-6e" x="904.273438"/>
      <use xlink:href="#DejaVuSans-2c" x="967.652344"/>
      <use xlink:href="#DejaVuSans-74" x="999.439453"/>
      <use xlink:href="#DejaVuSans-61" x="1038.648438"/>
      <use xlink:href="#DejaVuSans-72" x="1099.927734"/>
      <use xlink:href="#DejaVuSans-67" x="1139.291016"/>
      <use xlink:href="#DejaVuSans-65" x="1202.767578"/>
      <use xlink:href="#DejaVuSans-74" x="1264.291016"/>
      <use xlink:href="#DejaVuSans-20" x="1303.5"/>
      <use xlink:href="#DejaVuSans-70" x="1335.287109"/>
      <use xlink:href="#DejaVuSans-61" x="1398.763672"/>
      <use xlink:href="#DejaVuSans-69" x="1460.042969"/>
      <use xlink:href="#DejaVuSans-72" x="1487.826172"/>
      <use xlink:href="#DejaVuSans-73" x="1528.939453"/>
     </g>
    </g>
   </g>
   <g id="line2d_33">
    <defs>
     <path id="mb79d79ca68" d="M 0 1.5 
C 0.397805 1.5 0.77937 1.341951 1.06066 1.06066 
C 1.341951 0.77937 1.5 0.397805 1.5 0 
C 1.5 -0.397805 1.341951 -0.77937 1.06066 -1.06066 
C 0.77937 -1.341951 0.397805 -1.5 0 -1.5 
C -0.397805 -1.5 -0.77937 -1.341951 -1.06066 -1.06066 
C -1.341951 -0.77937 -1.5 -0.397805 -1.5 0 
C -1.5 0.397805 -1.341951 0.77937 -1.06066 1.06066 
C -0.77937 1.341951 -0.397805 1.5 0 1.5 
z
" style="stroke: #f5deb3"/>
    </defs>
    <g>
     <use xlink:href="#mb79d79ca68" x="238.977403" y="6.912" style="fill: #f5deb3; stroke: #f5deb3"/>
     <use xlink:href="#mb79d79ca68" x="238.977403" y="6.912" style="fill: #f5deb3; stroke: #f5deb3"/>
    </g>
   </g>
   <g id="line2d_34">
    <defs>
     <path id="md848832ebb" d="M 0 1.5 
C 0.397805 1.5 0.77937 1.341951 1.06066 1.06066 
C 1.341951 0.77937 1.5 0.397805 1.5 0 
C 1.5 -0.397805 1.341951 -0.77937 1.06066 -1.06066 
C 0.77937 -1.341951 0.397805 -1.5 0 -1.5 
C -0.397805 -1.5 -0.77937 -1.341951 -1.06066 -1.06066 
C -1.341951 -0.77937 -1.5 -0.397805 -1.5 0 
C -1.5 0.397805 -1.341951 0.77937 -1.06066 1.06066 
C -0.77937 1.341951 -0.397805 1.5 0 1.5 
z
" style="stroke: #000080"/>
    </defs>
    <g>
     <use xlink:href="#md848832ebb" x="277.798244" y="6.912" style="fill: #000080; stroke: #000080"/>
     <use xlink:href="#md848832ebb" x="277.798244" y="6.912" style="fill: #000080; stroke: #000080"/>
    </g>
   </g>
   <g id="line2d_35">
    <path d="M 107.109915 298.944 
L 107.109915 298.867652 
L 108.194549 298.791304 
L 108.194549 298.714955 
L 110.192506 298.638607 
L 110.192506 298.562259 
L 110.73042 298.485911 
L 110.813965 298.180518 
L 111.280505 298.104169 
L 111.280505 298.027821 
L 112.283321 297.951473 
L 112.283321 297.875125 
L 113.741545 297.798776 
L 113.741545 297.722428 
L 117.848632 297.64608 
L 117.848632 297.569732 
L 124.414312 297.493384 
L 124.414312 297.417035 
L 126.274549 297.340687 
L 126.274549 297.264339 
L 128.078583 297.187991 
L 128.078583 297.111642 
L 129.188317 297.035294 
L 129.188317 296.958946 
L 129.947033 296.882598 
L 129.947033 296.806249 
L 131.285049 296.729901 
L 131.285049 296.653553 
L 132.234038 296.577205 
L 132.234038 296.500856 
L 134.03991 296.424508 
L 134.03991 296.34816 
L 135.915705 296.271812 
L 135.915705 296.195464 
L 136.206124 296.119115 
L 136.206124 296.042767 
L 136.808769 295.966419 
L 136.808769 295.890071 
L 137.188674 295.813722 
L 137.188674 295.737374 
L 137.886721 295.661026 
L 137.886721 295.584678 
L 138.316644 295.508329 
L 138.316644 295.431981 
L 139.049244 295.355633 
L 139.049244 295.279285 
L 139.75438 295.202936 
L 139.75438 295.126588 
L 140.16161 295.05024 
L 140.260603 294.897544 
L 140.730917 294.821195 
L 140.730917 294.744847 
L 141.48048 294.668499 
L 141.48048 294.592151 
L 142.027647 294.515802 
L 142.112051 294.363106 
L 142.935896 294.286758 
L 142.935896 294.210409 
L 143.993774 294.134061 
L 143.993774 294.057713 
L 144.272678 293.981365 
L 144.272678 293.905016 
L 144.822939 293.828668 
L 144.841158 293.675972 
L 145.330965 293.599624 
L 145.330965 293.523275 
L 145.712961 293.446927 
L 145.712961 293.370579 
L 146.125662 293.294231 
L 146.235895 293.141534 
L 146.416797 293.065186 
L 146.492009 292.912489 
L 146.810401 292.836141 
L 146.810401 292.759793 
L 147.070998 292.683445 
L 147.070998 292.607096 
L 147.435427 292.530748 
L 147.435427 292.4544 
L 147.746174 292.378052 
L 147.746174 292.301704 
L 148.314867 292.225355 
L 148.322436 292.072659 
L 148.495677 291.996311 
L 148.495677 291.919962 
L 149.118791 291.843614 
L 149.118791 291.767266 
L 149.2669 291.690918 
L 149.292071 291.538221 
L 149.955786 291.461873 
L 149.976588 291.309176 
L 150.176493 291.232828 
L 150.176493 291.15648 
L 150.603584 291.080132 
L 150.603584 291.003784 
L 150.988387 290.927435 
L 151.076835 290.698391 
L 151.519328 290.622042 
L 151.519328 290.545694 
L 151.713051 290.469346 
L 151.713051 290.392998 
L 152.063625 290.316649 
L 152.063625 290.240301 
L 152.239565 290.163953 
L 152.239565 290.087605 
L 152.571498 290.011256 
L 152.598645 289.85856 
L 153.11007 289.782212 
L 153.20954 289.553167 
L 153.625091 289.476819 
L 153.625091 289.400471 
L 153.885855 289.324122 
L 153.919603 289.171426 
L 154.184657 289.095078 
L 154.184657 289.018729 
L 154.714595 288.942381 
L 154.824706 288.636988 
L 154.976725 288.56064 
L 155.03772 288.407944 
L 155.111708 288.331595 
L 155.111708 288.255247 
L 155.608798 288.178899 
L 155.672901 288.026202 
L 155.939772 287.949854 
L 155.939772 287.873506 
L 156.173023 287.797158 
L 156.269983 287.568113 
L 156.447685 287.491765 
L 156.486947 287.339068 
L 156.815 287.26272 
L 156.815 287.186372 
L 157.493969 287.110024 
L 157.493969 287.033675 
L 157.882609 286.957327 
L 157.882609 286.880979 
L 158.445394 286.804631 
L 158.553324 286.575586 
L 158.828045 286.499238 
L 158.84319 286.346541 
L 158.983246 286.270193 
L 158.983246 286.193845 
L 159.16271 286.117496 
L 159.16271 286.041148 
L 159.506146 285.9648 
L 159.506146 285.888452 
L 159.639297 285.812104 
L 159.639297 285.735755 
L 159.814692 285.659407 
L 159.923234 285.354014 
L 160.063612 285.277666 
L 160.063612 285.201318 
L 160.420982 285.124969 
L 160.454761 284.819576 
L 160.658131 284.743228 
L 160.722826 284.437835 
L 161.104475 284.361487 
L 161.202028 284.056094 
L 161.609678 283.979746 
L 161.684209 283.750701 
L 162.074367 283.674353 
L 162.074367 283.598005 
L 162.32226 283.521656 
L 162.32226 283.445308 
L 162.495821 283.36896 
L 162.595297 283.139915 
L 162.731223 283.063567 
L 162.818963 282.834522 
L 162.885374 282.758174 
L 162.885374 282.681826 
L 163.027886 282.605478 
L 163.048651 282.452781 
L 163.193369 282.376433 
L 163.193369 282.300085 
L 163.508222 282.223736 
L 163.514971 282.07104 
L 164.155187 281.994692 
L 164.218676 281.765647 
L 164.356312 281.689299 
L 164.441625 281.460254 
L 164.663551 281.383906 
L 164.720604 281.231209 
L 164.900138 281.154861 
L 164.900138 281.078513 
L 165.1152 281.002165 
L 165.1152 280.77312 
L 165.267984 280.696772 
L 165.327832 280.544075 
L 165.856578 280.467727 
L 165.856578 280.391379 
L 165.979816 280.315031 
L 166.089015 280.009638 
L 166.395494 279.933289 
L 166.395494 279.856941 
L 166.522453 279.856941 
L 166.529641 279.627896 
L 166.827666 279.551548 
L 166.926437 279.322504 
L 167.07642 279.246155 
L 167.158612 278.940762 
L 167.284683 278.864414 
L 167.350843 278.711718 
L 167.531594 278.635369 
L 167.531594 278.559021 
L 167.79816 278.482673 
L 167.901332 278.100932 
L 168.023866 278.024584 
L 168.023866 277.948235 
L 168.393261 277.871887 
L 168.393261 277.795539 
L 168.619698 277.719191 
L 168.668509 277.566494 
L 168.873921 277.566494 
L 168.937259 277.108405 
L 169.409321 277.032056 
L 169.49791 276.650315 
L 169.671414 276.573967 
L 169.774511 276.192226 
L 169.880655 276.115878 
L 169.880655 276.039529 
L 170.175421 275.963181 
L 170.284043 275.657788 
L 170.369787 275.58144 
L 170.46564 275.199699 
L 170.816793 275.123351 
L 170.816793 275.047002 
L 170.951349 274.970654 
L 170.951349 274.894306 
L 171.089462 274.817958 
L 171.176112 274.512565 
L 171.273538 274.436216 
L 171.317048 274.28352 
L 171.576018 274.207172 
L 171.661555 274.054475 
L 171.811944 274.054475 
L 171.848812 273.749082 
L 172.02564 273.672734 
L 172.08992 273.443689 
L 172.477343 273.367341 
L 172.587032 273.138296 
L 172.7705 273.061948 
L 172.874394 272.909252 
L 173.048997 272.832904 
L 173.117982 272.298466 
L 173.273284 272.222118 
L 173.347456 272.069421 
L 173.454189 271.993073 
L 173.534587 271.68768 
L 173.583057 271.68768 
L 173.652083 271.458635 
L 173.7385 271.458635 
L 173.7385 268.252009 
L 173.8985 268.175661 
L 173.8985 265.274428 
L 174.161859 265.19808 
L 174.240249 261.686061 
L 174.425361 261.609713 
L 174.446132 258.632132 
L 174.549642 258.555784 
L 174.646986 258.250391 
L 174.928673 258.174042 
L 175.024995 258.021346 
L 175.045114 258.021346 
L 175.130837 257.639605 
L 175.300218 257.563256 
L 175.368623 257.41056 
L 175.583911 257.334212 
L 175.667219 257.105167 
L 175.82046 257.028819 
L 175.886129 256.876122 
L 176.076581 256.876122 
L 176.076581 256.723426 
L 176.385522 256.647078 
L 176.438221 256.265336 
L 176.56258 256.188988 
L 176.628234 255.959944 
L 176.695334 255.883595 
L 176.695334 255.807247 
L 176.898524 255.730899 
L 176.953936 255.578202 
L 177.22776 255.501854 
L 177.310595 255.349158 
L 177.3971 255.272809 
L 177.495249 255.120113 
L 177.590493 255.043765 
L 177.6932 254.662024 
L 177.802454 254.585675 
L 177.802454 254.509327 
L 178.061171 254.432979 
L 178.119478 254.127586 
L 178.399154 254.051238 
L 178.431246 253.898541 
L 178.640034 253.822193 
L 178.74319 253.135059 
L 178.836819 253.058711 
L 178.92106 252.371576 
L 178.965637 252.371576 
L 179.015291 250.004781 
L 179.274754 249.928433 
L 179.293724 247.256245 
L 179.467211 247.179896 
L 179.545804 246.874504 
L 179.660579 246.798155 
L 179.742643 246.340066 
L 179.829313 246.263718 
L 179.829313 246.187369 
L 180.046358 246.111021 
L 180.046358 246.034673 
L 180.365924 245.958325 
L 180.443602 245.72928 
L 180.649643 245.652932 
L 180.649643 245.576584 
L 180.827927 245.500235 
L 180.891001 242.599002 
L 181.12401 242.522654 
L 181.194013 242.140913 
L 181.323424 242.064565 
L 181.406382 241.682824 
L 181.707684 241.606475 
L 181.783219 241.301082 
L 181.913095 241.224734 
L 181.995394 240.766645 
L 182.111266 240.690296 
L 182.21457 240.308555 
L 182.286857 240.308555 
L 182.386111 237.254626 
L 182.505142 237.178278 
L 182.615481 237.025581 
L 182.639914 236.949233 
L 182.745826 236.567492 
L 182.770696 236.491144 
L 182.854163 236.262099 
L 183.039725 236.185751 
L 183.039725 236.109402 
L 183.285507 236.033054 
L 183.361439 235.804009 
L 183.47681 235.727661 
L 183.535687 235.498616 
L 183.766492 235.422268 
L 183.863404 235.116875 
L 183.933056 235.040527 
L 184.034218 234.735134 
L 184.062536 234.658786 
L 184.101546 234.506089 
L 184.245016 234.429741 
L 184.348978 234.200696 
L 184.419634 234.124348 
L 184.511038 233.742607 
L 184.587695 233.666259 
L 184.610246 233.513562 
L 184.895568 233.437214 
L 184.97553 233.131821 
L 185.156882 233.055473 
L 185.156882 232.979125 
L 185.361871 232.902776 
L 185.461432 232.673732 
L 185.53275 232.597384 
L 185.606405 232.368339 
L 185.846772 232.291991 
L 185.886878 232.062946 
L 186.148547 231.986598 
L 186.170822 231.757553 
L 186.344568 231.681205 
L 186.435583 231.375812 
L 186.555925 231.299464 
L 186.616303 231.070419 
L 186.675995 230.994071 
L 186.727149 230.841374 
L 186.853942 230.765026 
L 186.947872 230.459633 
L 187.106437 230.383285 
L 187.209654 226.718569 
L 187.241225 226.642221 
L 187.343232 226.26048 
L 187.382172 226.184132 
L 187.452252 226.031435 
L 187.593977 225.955087 
L 187.666545 225.726042 
L 187.840499 225.649694 
L 187.933788 225.344301 
L 188.100277 225.267953 
L 188.162276 225.115256 
L 188.398362 225.038908 
L 188.477746 222.061327 
L 188.593306 221.984979 
L 188.700644 221.755934 
L 188.720978 221.755934 
L 188.720978 218.778353 
L 188.866211 218.702005 
L 188.954998 218.549308 
L 189.052919 218.47296 
L 189.133052 218.243915 
L 189.279011 218.167567 
L 189.387208 217.938522 
L 189.463385 217.862174 
L 189.521057 214.502852 
L 189.627033 214.426504 
L 189.627454 214.273807 
L 189.802205 214.197459 
L 189.905783 213.815718 
L 189.953843 213.739369 
L 190.013333 213.433976 
L 190.186186 213.357628 
L 190.271004 213.128584 
L 190.344096 213.128584 
L 190.349769 212.899539 
L 190.540841 212.823191 
L 190.626474 212.594146 
L 190.847154 212.517798 
L 190.847154 212.441449 
L 191.00433 212.365101 
L 191.106184 212.059708 
L 191.234568 211.98336 
L 191.263536 211.754315 
L 191.49026 211.677967 
L 191.57928 211.448922 
L 191.672789 211.372574 
L 191.774478 210.761788 
L 191.892424 210.68544 
L 191.939768 210.532744 
L 192.008522 210.456395 
L 192.11395 210.151002 
L 192.221726 210.074654 
L 192.294209 209.616565 
L 192.375875 209.540216 
L 192.478547 209.005779 
L 192.59505 208.929431 
L 192.702614 208.394993 
L 192.73048 208.318645 
L 192.83976 207.860555 
L 192.90177 207.784207 
L 193.00373 207.478814 
L 193.043447 207.402466 
L 193.09989 207.097073 
L 193.227576 207.020725 
L 193.323985 206.562635 
L 193.546125 206.486287 
L 193.6433 205.951849 
L 193.749786 205.875501 
L 193.859706 205.49376 
L 193.899336 205.417412 
L 193.993039 204.806626 
L 194.041048 204.730278 
L 194.148954 204.424885 
L 194.197228 204.348536 
L 194.304572 201.141911 
L 194.328853 201.141911 
L 194.393996 197.935285 
L 194.514194 197.858936 
L 194.61006 197.477195 
L 194.707691 197.400847 
L 194.73563 197.171802 
L 194.858135 197.095454 
L 194.961784 196.713713 
L 195.014344 196.637365 
L 195.112106 196.40832 
L 195.183998 196.331972 
L 195.183998 196.255624 
L 195.302071 196.179275 
L 195.373863 195.568489 
L 195.432708 195.492141 
L 195.484587 195.034052 
L 195.617336 194.957704 
L 195.661683 194.499614 
L 195.74368 194.423266 
L 195.845601 194.117873 
L 195.883075 194.041525 
L 195.923187 191.140292 
L 196.047201 191.063944 
L 196.138859 190.605854 
L 196.173674 190.529506 
L 196.265607 190.376809 
L 196.329399 190.300461 
L 196.416468 189.91872 
L 196.47156 189.842372 
L 196.573406 189.460631 
L 196.668913 189.384282 
L 196.713164 189.155238 
L 196.806241 189.078889 
L 196.874818 188.849845 
L 196.983054 188.773496 
L 197.075659 188.391755 
L 197.143544 188.315407 
L 197.233679 188.162711 
L 197.299877 188.086362 
L 197.3544 187.857318 
L 197.421845 187.780969 
L 197.452422 187.628273 
L 197.601811 187.551925 
L 197.696362 187.399228 
L 197.774884 187.32288 
L 197.881608 187.093835 
L 197.918493 187.017487 
L 197.982329 186.635746 
L 198.050523 186.559398 
L 198.143922 186.177656 
L 198.2086 186.177656 
L 198.311571 185.643219 
L 198.416356 185.566871 
L 198.523447 185.185129 
L 198.557787 185.108781 
L 198.658088 184.803388 
L 198.707778 184.72704 
L 198.793841 184.268951 
L 198.86921 184.192602 
L 198.939659 183.963558 
L 199.01547 183.887209 
L 199.097849 183.581816 
L 199.214802 183.505468 
L 199.309153 183.047379 
L 199.480494 182.971031 
L 199.577494 182.436593 
L 199.622591 182.360245 
L 199.732892 181.978504 
L 199.776636 181.902155 
L 199.840349 181.596762 
L 199.971748 181.520414 
L 200.072538 181.215021 
L 200.096203 181.138673 
L 200.20689 180.527887 
L 200.284701 180.451539 
L 200.36695 179.840753 
L 200.423007 179.764405 
L 200.533207 179.53536 
L 200.553239 179.459012 
L 200.630337 179.153619 
L 200.758447 179.077271 
L 200.77149 178.924574 
L 200.892401 178.848226 
L 200.974575 178.542833 
L 201.110434 178.466485 
L 201.203043 178.23744 
L 201.330037 178.161092 
L 201.411675 177.703002 
L 201.533025 177.626654 
L 201.587278 177.473958 
L 201.735838 177.397609 
L 201.810671 177.092216 
L 201.906482 177.015868 
L 202.00486 176.481431 
L 202.090791 176.405082 
L 202.135451 176.099689 
L 202.238242 176.023341 
L 202.293293 175.794296 
L 202.410812 175.717948 
L 202.494488 175.412555 
L 202.586253 175.336207 
L 202.620048 175.183511 
L 202.775357 175.107162 
L 202.884918 174.649073 
L 202.922128 174.572725 
L 202.999637 174.190984 
L 203.126606 174.114635 
L 203.219842 173.274805 
L 203.295729 173.198456 
L 203.308347 173.04576 
L 203.412833 172.969412 
L 203.477264 172.740367 
L 203.599658 172.664019 
L 203.650072 172.205929 
L 203.736182 172.129581 
L 203.846828 171.518795 
L 203.972741 171.442447 
L 204.043309 171.060706 
L 204.124526 170.984358 
L 204.230399 170.526268 
L 204.312357 170.44992 
L 204.407397 170.220875 
L 204.493938 170.144527 
L 204.598138 169.533741 
L 204.622628 169.457393 
L 204.636094 169.304696 
L 204.766078 169.228348 
L 204.840302 168.999304 
L 204.948947 168.922955 
L 205.021525 168.693911 
L 205.103074 168.617562 
L 205.175614 168.159473 
L 205.263651 168.083125 
L 205.366421 167.548687 
L 205.410138 167.472339 
L 205.500889 167.166946 
L 205.582915 167.090598 
L 205.682883 166.632508 
L 205.752154 166.55616 
L 205.84163 166.098071 
L 205.928736 166.021722 
L 205.968871 165.869026 
L 206.132588 165.792678 
L 206.194467 165.563633 
L 206.378892 165.487285 
L 206.439967 165.334588 
L 206.526924 165.25824 
L 206.5682 165.029195 
L 206.682135 164.952847 
L 206.778474 164.571106 
L 206.831015 164.494758 
L 206.907116 164.265713 
L 207.019858 164.189365 
L 207.115651 163.96032 
L 207.229301 163.883972 
L 207.325843 163.578579 
L 207.372618 163.578579 
L 207.473485 162.967793 
L 207.540863 162.891445 
L 207.62499 162.6624 
L 207.838716 162.586052 
L 207.919296 162.127962 
L 207.981766 162.051614 
L 208.064581 161.822569 
L 208.243216 161.746221 
L 208.343269 161.593525 
L 208.381992 161.517176 
L 208.389448 161.36448 
L 208.567192 161.288132 
L 208.567192 161.211784 
L 208.727111 161.135435 
L 208.830547 160.753694 
L 208.912435 160.677346 
L 208.986748 160.371953 
L 209.073202 160.295605 
L 209.114338 160.06656 
L 209.253087 159.990212 
L 209.333603 159.761167 
L 209.558808 159.684819 
L 209.666055 159.226729 
L 209.742658 159.150381 
L 209.850446 158.463247 
L 209.917572 158.386899 
L 210.022656 157.776113 
L 210.077108 157.699765 
L 210.167466 157.318024 
L 210.221642 157.241675 
L 210.330509 156.859934 
L 210.378352 156.783586 
L 210.454341 156.478193 
L 210.56049 156.401845 
L 210.612858 155.867407 
L 210.875254 155.791059 
L 210.908833 155.638362 
L 210.9911 155.562014 
L 211.094137 155.332969 
L 211.171849 155.256621 
L 211.264576 154.951228 
L 211.29321 154.87488 
L 211.374611 154.035049 
L 211.472147 153.958701 
L 211.548448 153.500612 
L 211.633853 153.424264 
L 211.744614 153.042522 
L 211.773046 152.966174 
L 211.825255 152.584433 
L 211.922032 152.508085 
L 211.994226 152.049995 
L 212.056178 151.973647 
L 212.124295 151.668254 
L 212.185948 151.591906 
L 212.296796 151.362861 
L 212.360277 151.286513 
L 212.427303 150.98112 
L 212.635885 150.904772 
L 212.726618 150.446682 
L 212.945338 150.370334 
L 213.052903 149.530504 
L 213.112558 149.454155 
L 213.196456 149.301459 
L 213.252301 149.301459 
L 213.34477 147.927191 
L 213.411001 147.850842 
L 213.502103 147.698146 
L 213.531664 147.621798 
L 213.641342 146.934664 
L 213.668808 146.858315 
L 213.763809 146.552922 
L 213.825094 146.476574 
L 213.913754 146.323878 
L 213.943254 146.247529 
L 213.952846 146.018485 
L 214.220247 145.942136 
L 214.28086 145.560395 
L 214.368759 145.484047 
L 214.435654 145.102306 
L 214.565827 145.025958 
L 214.648511 144.644216 
L 214.764945 144.567868 
L 214.764945 144.49152 
L 215.013264 144.415172 
L 215.053517 144.186127 
L 215.216263 144.109779 
L 215.320009 143.040904 
L 215.353499 142.964555 
L 215.445504 142.430118 
L 215.562321 142.353769 
L 215.640959 142.048376 
L 215.718745 141.972028 
L 215.805111 141.666635 
L 216.051733 141.590287 
L 216.115178 141.284894 
L 216.261981 141.208546 
L 216.364604 140.750456 
L 216.449377 140.674108 
L 216.460402 140.521412 
L 216.589689 140.521412 
L 216.589689 140.368715 
L 216.727068 140.292367 
L 216.836213 140.139671 
L 216.908627 140.063322 
L 216.986466 139.757929 
L 217.129284 139.681581 
L 217.218071 139.376188 
L 217.261145 139.29984 
L 217.345262 138.994447 
L 217.505872 138.918099 
L 217.610128 137.925572 
L 217.633703 137.849224 
L 217.7382 136.245911 
L 217.786227 136.169562 
L 217.88257 135.635125 
L 217.979262 135.558776 
L 218.083532 134.947991 
L 218.129298 134.871642 
L 218.232649 134.337205 
L 218.283929 134.260856 
L 218.387806 133.726419 
L 218.510708 133.650071 
L 218.613614 132.81024 
L 218.631641 132.81024 
L 218.64488 131.817713 
L 218.768535 131.741365 
L 218.876981 131.054231 
L 218.972069 130.977882 
L 219.039193 130.367096 
L 219.247248 130.290748 
L 219.296274 128.076649 
L 219.375334 128.000301 
L 219.475007 127.694908 
L 219.611993 127.61856 
L 219.717738 127.313167 
L 219.887558 127.236819 
L 219.887558 127.160471 
L 220.013046 127.084122 
L 220.013715 126.32064 
L 220.280777 126.244292 
L 220.387517 125.938899 
L 220.429651 125.862551 
L 220.519424 125.251765 
L 220.599117 125.175416 
L 220.680089 124.717327 
L 220.720848 124.640979 
L 220.829456 124.259238 
L 220.949312 124.182889 
L 221.041401 123.648452 
L 221.108969 123.572104 
L 221.201853 123.114014 
L 221.236086 123.037666 
L 221.343563 121.052612 
L 221.409978 120.976264 
L 221.50897 120.441826 
L 221.631117 120.365478 
L 221.72758 119.907388 
L 221.771852 119.83104 
L 221.834268 119.296602 
L 221.905109 119.220254 
L 221.997016 118.838513 
L 222.069124 118.762165 
L 222.178375 118.151379 
L 222.217953 118.075031 
L 222.296563 117.540593 
L 222.418212 117.464245 
L 222.52546 116.777111 
L 222.561683 116.700762 
L 222.671171 115.631887 
L 222.786168 115.555539 
L 222.8474 115.326494 
L 223.065461 115.250146 
L 223.174895 113.265092 
L 223.234736 113.188744 
L 223.338844 112.577958 
L 223.558733 112.501609 
L 223.572525 112.348913 
L 223.82133 112.272565 
L 223.925923 112.119868 
L 224.269799 112.04352 
L 224.269799 111.967172 
L 224.503741 111.967172 
L 224.602452 111.738127 
L 224.615894 111.738127 
L 224.715715 109.44768 
L 224.737869 109.371332 
L 224.826226 108.989591 
L 224.877943 108.913242 
L 224.984809 108.684198 
L 225.092669 108.607849 
L 225.092669 108.531501 
L 225.228739 108.455153 
L 225.303012 108.14976 
L 225.407623 108.073412 
L 225.510342 107.691671 
L 225.710403 107.615322 
L 225.810134 105.477572 
L 225.94852 105.401224 
L 225.94852 105.324875 
L 226.240381 105.248527 
L 226.349486 104.790438 
L 226.529263 104.714089 
L 226.63877 103.950607 
L 226.710563 103.874259 
L 226.772909 103.416169 
L 226.881302 103.339821 
L 226.928485 103.034428 
L 227.052578 102.95808 
L 227.10255 102.729035 
L 227.239706 102.652687 
L 227.324235 102.347294 
L 227.484004 102.270946 
L 227.484004 102.194598 
L 227.738444 102.118249 
L 227.741386 101.965553 
L 227.979679 101.889205 
L 227.979679 101.812856 
L 228.162356 101.736508 
L 228.207574 101.354767 
L 228.285662 101.278419 
L 228.306251 101.125722 
L 228.474431 101.125722 
L 228.551687 100.056847 
L 228.589348 100.056847 
L 228.651913 98.071793 
L 228.723124 97.995445 
L 228.826373 97.537355 
L 228.870024 97.461007 
L 228.968417 96.315784 
L 228.997985 96.239435 
L 229.015216 95.323256 
L 229.155176 95.246908 
L 229.260901 94.788819 
L 229.364813 94.712471 
L 229.415412 94.407078 
L 229.563323 94.330729 
L 229.616658 94.178033 
L 229.693125 94.178033 
L 229.779048 93.643595 
L 230.031638 93.567247 
L 230.13921 93.032809 
L 230.243789 92.956461 
L 230.322787 92.192979 
L 230.461406 92.116631 
L 230.561157 91.887586 
L 230.614313 91.887586 
L 230.634362 91.505845 
L 230.755396 91.429496 
L 230.778224 91.047755 
L 230.889607 90.971407 
L 230.993703 88.910005 
L 231.019276 88.833656 
L 231.094394 88.528264 
L 231.201247 88.451915 
L 231.290266 88.299219 
L 231.369347 88.222871 
L 231.369347 88.146522 
L 231.613158 88.070174 
L 231.652428 86.161468 
L 232.074223 86.08512 
L 232.161585 85.627031 
L 232.210368 85.550682 
L 232.306684 85.016245 
L 232.395316 84.939896 
L 232.475463 84.558155 
L 232.577005 84.481807 
L 232.676549 83.871021 
L 232.72572 83.794673 
L 232.807273 82.496753 
L 232.981558 82.420405 
L 233.076649 81.580574 
L 233.129372 81.504226 
L 233.227537 80.740744 
L 233.249337 80.664395 
L 233.353059 78.679341 
L 233.375537 78.602993 
L 233.429728 77.610466 
L 233.535318 77.534118 
L 233.535318 77.457769 
L 233.837423 77.381421 
L 233.926696 76.99968 
L 233.983986 76.923332 
L 234.052457 75.854456 
L 234.099708 75.854456 
L 234.202519 75.014626 
L 234.233835 74.938278 
L 234.293138 74.709233 
L 234.534725 74.632885 
L 234.53488 74.480188 
L 234.731873 74.40384 
L 234.755287 74.174795 
L 234.929932 74.098447 
L 235.040446 73.182268 
L 235.046471 73.10592 
L 235.122965 72.495134 
L 235.237275 72.418786 
L 235.307392 72.113393 
L 235.406672 72.037045 
L 235.430294 71.884348 
L 235.574227 71.808 
L 235.63037 71.502607 
L 235.746689 71.502607 
L 235.855551 69.517553 
L 235.872564 69.441205 
L 235.950479 68.677722 
L 236.008659 68.601374 
L 236.111396 67.303454 
L 236.129495 67.227106 
L 236.224433 66.921713 
L 236.294073 66.845365 
L 236.396739 63.867784 
L 236.441711 63.791435 
L 236.551605 61.500988 
L 236.556748 61.42464 
L 236.645825 58.981496 
L 236.700966 58.905148 
L 236.809909 57.607228 
L 236.828993 57.53088 
L 236.93931 56.538353 
L 236.950541 56.462005 
L 237.006833 54.018861 
L 237.065392 53.942513 
L 237.113484 53.484424 
L 237.278873 53.408075 
L 237.388053 53.179031 
L 237.448587 53.102682 
L 237.487149 50.125101 
L 237.59467 50.048753 
L 237.642315 49.896056 
L 237.793089 49.819708 
L 237.897231 48.674485 
L 238.009485 48.598136 
L 238.116628 47.376565 
L 238.144237 47.376565 
L 238.240772 46.613082 
L 238.337225 46.536734 
L 238.438091 46.307689 
L 238.459456 46.231341 
L 238.543359 45.162466 
L 238.667554 45.086118 
L 238.734266 44.55168 
L 238.902626 44.475332 
L 238.902626 44.398984 
L 239.03913 44.322635 
L 239.138977 44.093591 
L 239.168816 44.017242 
L 239.168816 43.940894 
L 239.386897 43.864546 
L 239.469005 43.25376 
L 239.547792 43.177412 
L 239.643597 42.184885 
L 239.685154 42.108536 
L 239.711084 41.879492 
L 239.843908 41.803144 
L 239.927448 41.650447 
L 240.103294 41.650447 
L 240.185435 40.505224 
L 240.281047 40.505224 
L 240.390264 39.589045 
L 240.463036 39.512696 
L 240.521771 38.749214 
L 240.583101 38.672866 
L 240.685954 37.527642 
L 240.708953 37.451294 
L 240.812646 37.298598 
L 240.893133 37.222249 
L 240.993678 35.618936 
L 241.010493 35.542588 
L 241.102612 34.397365 
L 241.152749 34.321016 
L 241.246125 33.939275 
L 241.348065 33.862927 
L 241.454892 33.252141 
L 241.534362 33.175793 
L 241.534362 33.099445 
L 241.768647 33.023096 
L 241.768647 32.946748 
L 241.896857 32.946748 
L 242.005459 32.183266 
L 242.052834 32.106918 
L 242.143846 31.877873 
L 242.294263 31.801525 
L 242.348043 31.419784 
L 242.426379 31.343435 
L 242.511708 27.831416 
L 242.552397 27.831416 
L 242.611792 26.151755 
L 242.705609 26.075407 
L 242.814312 25.464621 
L 242.944595 25.388273 
L 242.97085 25.235576 
L 243.170026 25.159228 
L 243.247673 24.853835 
L 243.421754 24.777487 
L 243.511074 24.395746 
L 243.562376 24.319398 
L 243.667872 24.014005 
L 243.922253 23.937656 
L 243.954332 23.78496 
L 244.155085 23.78496 
L 244.155085 23.632264 
L 244.78002 23.555915 
L 244.884969 23.174174 
L 244.916006 23.097826 
L 245.026448 22.868781 
L 245.51058 22.792433 
L 245.51058 22.716085 
L 246.037657 22.639736 
L 246.037657 22.563388 
L 246.544606 22.48704 
L 246.544606 22.410692 
L 246.841758 22.334344 
L 246.897983 22.105299 
L 247.156136 22.028951 
L 247.262865 21.18912 
L 247.343027 21.112772 
L 247.45182 18.058842 
L 247.494621 17.982494 
L 247.581886 17.829798 
L 247.664726 17.753449 
L 247.720639 17.066315 
L 247.844139 17.066315 
L 247.922967 14.623172 
L 247.963935 14.546824 
L 247.968159 14.241431 
L 248.27861 14.165082 
L 248.333623 13.706993 
L 248.835146 13.630645 
L 248.874194 13.096207 
L 249.177037 13.096207 
L 249.177037 12.790814 
L 249.652121 12.714466 
L 249.675748 12.561769 
L 249.887094 12.485421 
L 249.954383 11.798287 
L 250.3708 11.721939 
L 250.3708 11.645591 
L 250.529613 11.569242 
L 250.596458 11.416546 
L 250.785521 11.416546 
L 250.82548 10.958456 
L 251.870759 10.882108 
L 251.878469 10.424019 
L 253.823939 10.347671 
L 253.85304 9.278795 
L 255.219733 9.202447 
L 255.277936 8.744358 
L 255.843631 8.744358 
L 255.843631 8.515313 
L 257.287088 8.438965 
L 257.287099 8.133572 
L 258.966233 8.133572 
L 258.966233 7.980875 
L 262.804278 7.980875 
L 262.804441 7.370089 
L 264.26002 7.370089 
L 264.3023 7.141045 
L 276.923687 7.064696 
L 276.923687 6.988348 
L 360.8064 6.912 
L 360.8064 6.912 
" style="fill: none; stroke: #000080; stroke-width: 1.5; stroke-linecap: square"/>
   </g>
   <g id="line2d_36">
    <defs>
     <path id="me0d9c0c84f" d="M 0 6 
C 1.591219 6 3.117479 5.367802 4.242641 4.242641 
C 5.367802 3.117479 6 1.591219 6 0 
C 6 -1.591219 5.367802 -3.117479 4.242641 -4.242641 
C 3.117479 -5.367802 1.591219 -6 0 -6 
C -1.591219 -6 -3.117479 -5.367802 -4.242641 -4.242641 
C -5.367802 -3.117479 -6 -1.591219 -6 0 
C -6 1.591219 -5.367802 3.117479 -4.242641 4.242641 
C -3.117479 5.367802 -1.591219 6 0 6 
z
" style="stroke: #000080; stroke-width: 1.5"/>
    </defs>
    <g>
     <use xlink:href="#me0d9c0c84f" x="180.891001" y="242.599002" style="fill-opacity: 0; stroke: #000080; stroke-width: 1.5"/>
     <use xlink:href="#me0d9c0c84f" x="220.013715" y="126.32064" style="fill-opacity: 0; stroke: #000080; stroke-width: 1.5"/>
     <use xlink:href="#me0d9c0c84f" x="264.3023" y="7.141045" style="fill-opacity: 0; stroke: #000080; stroke-width: 1.5"/>
     <use xlink:href="#me0d9c0c84f" x="277.798244" y="6.912" style="fill-opacity: 0; stroke: #000080; stroke-width: 1.5"/>
     <use xlink:href="#me0d9c0c84f" x="360.8064" y="6.912" style="fill-opacity: 0; stroke: #000080; stroke-width: 1.5"/>
    </g>
   </g>
   <g id="line2d_37">
    <path style="fill: none; stroke: #000080; stroke-width: 1.5; stroke-linecap: square"/>
    <g/>
   </g>
   <g id="line2d_38">
    <path d="M 274.176 7.141045 
" clip-path="url(#pd2324018b4)" style="fill: none; stroke: #000080; stroke-width: 1.5; stroke-linecap: square"/>
    <defs>
     <path id="mce58bb2e82" d="M -12 12 
L 12 -12 
M -12 -12 
L 12 12 
" style="stroke: #000080"/>
    </defs>
    <g clip-path="url(#pd2324018b4)">
     <use xlink:href="#mce58bb2e82" x="274.176" y="7.141045" style="fill: #000080; stroke: #000080"/>
    </g>
   </g>
   <g id="line2d_39">
    <defs>
     <path id="mb731f7616e" d="M 0 1.5 
C 0.397805 1.5 0.77937 1.341951 1.06066 1.06066 
C 1.341951 0.77937 1.5 0.397805 1.5 0 
C 1.5 -0.397805 1.341951 -0.77937 1.06066 -1.06066 
C 0.77937 -1.341951 0.397805 -1.5 0 -1.5 
C -0.397805 -1.5 -0.77937 -1.341951 -1.06066 -1.06066 
C -1.341951 -0.77937 -1.5 -0.397805 -1.5 0 
C -1.5 0.397805 -1.341951 0.77937 -1.06066 1.06066 
C -0.77937 1.341951 -0.397805 1.5 0 1.5 
z
" style="stroke: #ff00ff"/>
    </defs>
    <g>
     <use xlink:href="#mb731f7616e" x="349.36539" y="205.035671" style="fill: #ff00ff; stroke: #ff00ff"/>
     <use xlink:href="#mb731f7616e" x="349.36539" y="205.035671" style="fill: #ff00ff; stroke: #ff00ff"/>
    </g>
   </g>
   <g id="line2d_40">
    <path d="M 178.883832 298.944 
L 178.883832 298.867652 
L 182.277525 298.791304 
L 182.277525 298.714955 
L 182.482997 298.638607 
L 182.482997 298.562259 
L 183.110702 298.485911 
L 183.145793 298.333214 
L 183.546742 298.256866 
L 183.546742 298.180518 
L 184.650881 298.104169 
L 184.650881 298.027821 
L 187.549832 297.951473 
L 187.549832 297.875125 
L 188.198196 297.798776 
L 188.198196 297.722428 
L 188.648826 297.64608 
L 188.648826 297.569732 
L 189.938527 297.493384 
L 189.938527 297.417035 
L 190.166558 297.340687 
L 190.166558 297.264339 
L 191.752304 297.187991 
L 191.807127 296.806249 
L 192.902832 296.729901 
L 192.902832 296.653553 
L 195.245314 296.577205 
L 195.245314 296.500856 
L 196.142433 296.424508 
L 196.169214 296.271812 
L 196.321142 296.195464 
L 196.380042 296.042767 
L 196.70883 295.966419 
L 196.70883 295.890071 
L 197.370586 295.813722 
L 197.370586 295.737374 
L 198.075798 295.661026 
L 198.083051 295.508329 
L 200.615318 295.431981 
L 200.657294 295.202936 
L 200.866706 295.126588 
L 200.956832 294.897544 
L 201.125291 294.821195 
L 201.18597 294.592151 
L 202.807144 294.515802 
L 202.853055 294.286758 
L 203.045494 294.210409 
L 203.045494 294.134061 
L 203.246805 294.057713 
L 203.31384 293.905016 
L 204.006686 293.828668 
L 204.006686 293.75232 
L 204.78358 293.675972 
L 204.871969 292.759793 
L 205.051962 292.683445 
L 205.134302 292.530748 
L 205.303765 292.4544 
L 205.320408 292.301704 
L 206.045719 292.225355 
L 206.045719 292.149007 
L 206.653545 292.072659 
L 206.653545 291.996311 
L 207.613666 291.919962 
L 207.613666 291.843614 
L 208.239146 291.767266 
L 208.341712 291.309176 
L 208.400781 291.232828 
L 208.508027 290.927435 
L 209.335523 290.851087 
L 209.369753 290.698391 
L 209.719667 290.622042 
L 209.810746 290.011256 
L 209.890635 289.934908 
L 209.890635 289.85856 
L 210.224319 289.782212 
L 210.224319 289.705864 
L 210.895245 289.629515 
L 210.895245 289.553167 
L 211.135784 289.476819 
L 211.235631 289.018729 
L 212.414268 288.942381 
L 212.479853 288.56064 
L 212.727358 288.484292 
L 212.727358 288.407944 
L 213.626653 288.331595 
L 213.684753 287.949854 
L 213.821604 287.873506 
L 213.912249 287.568113 
L 214.163666 287.491765 
L 214.163666 287.415416 
L 214.575442 287.339068 
L 214.678549 287.110024 
L 214.771694 287.033675 
L 214.836512 286.422889 
L 214.98999 286.346541 
L 215.080086 286.041148 
L 215.562321 285.9648 
L 215.562321 285.888452 
L 215.848407 285.812104 
L 215.911396 285.430362 
L 216.103948 285.354014 
L 216.103948 285.277666 
L 216.857412 285.201318 
L 216.967184 284.361487 
L 217.286323 284.285139 
L 217.307021 284.132442 
L 217.626672 284.056094 
L 217.626672 283.979746 
L 217.838172 283.903398 
L 217.916946 283.216264 
L 218.035329 283.139915 
L 218.118654 282.910871 
L 218.370457 282.834522 
L 218.418994 282.681826 
L 218.7338 282.605478 
L 218.837813 281.689299 
L 218.854915 281.612951 
L 218.864438 281.460254 
L 219.038223 281.383906 
L 219.093511 281.231209 
L 219.558382 281.154861 
L 219.654874 280.620424 
L 219.695019 280.544075 
L 219.771661 280.391379 
L 220.071305 280.315031 
L 220.071305 280.238682 
L 220.454363 280.162334 
L 220.469322 279.704245 
L 220.59238 279.627896 
L 220.593841 279.4752 
L 220.802423 279.398852 
L 220.802423 279.322504 
L 221.251064 279.246155 
L 221.345512 278.711718 
L 221.385557 278.635369 
L 221.487773 278.406325 
L 221.765066 278.329976 
L 221.765066 278.253628 
L 222.019528 278.17728 
L 222.077378 277.413798 
L 222.464418 277.337449 
L 222.464418 277.261101 
L 222.757611 277.184753 
L 222.855751 276.421271 
L 223.480362 276.344922 
L 223.582846 275.963181 
L 223.598488 275.886833 
L 223.692693 275.58144 
L 223.842172 275.505092 
L 223.847431 275.352395 
L 223.983628 275.276047 
L 224.088673 275.123351 
L 224.163481 275.047002 
L 224.196619 274.817958 
L 224.333981 274.741609 
L 224.38919 274.588913 
L 224.818123 274.512565 
L 224.912106 274.054475 
L 225.043398 273.978127 
L 225.043398 273.901779 
L 225.461403 273.825431 
L 225.533953 272.9856 
L 226.073283 272.909252 
L 226.157289 272.222118 
L 226.347753 272.145769 
L 226.347753 272.069421 
L 226.661477 271.993073 
L 226.767005 271.764028 
L 226.842737 271.68768 
L 226.842737 271.611332 
L 227.17849 271.534984 
L 227.285146 271.076894 
L 227.350098 271.000546 
L 227.350098 270.924198 
L 227.652748 270.847849 
L 227.652748 270.771501 
L 227.811919 270.695153 
L 227.888469 270.160715 
L 227.948794 270.084367 
L 228.01303 269.778974 
L 228.176139 269.702626 
L 228.176139 269.626278 
L 228.387043 269.549929 
L 228.387043 269.473581 
L 228.53972 269.397233 
L 228.563806 269.244536 
L 228.752764 269.168188 
L 228.752764 269.09184 
L 228.882933 269.015492 
L 228.974916 268.633751 
L 229.014074 268.557402 
L 229.014074 268.481054 
L 229.394426 268.404706 
L 229.478583 268.022965 
L 229.900942 267.946616 
L 229.957327 267.488527 
L 230.136864 267.412179 
L 230.190549 267.183134 
L 230.390754 267.106786 
L 230.390754 267.030438 
L 230.785686 266.954089 
L 230.895335 266.419652 
L 231.165882 266.343304 
L 231.165882 266.266955 
L 231.332417 266.190607 
L 231.413605 265.656169 
L 231.785918 265.579821 
L 231.887589 265.121732 
L 232.108671 265.045384 
L 232.108671 264.969035 
L 232.324444 264.892687 
L 232.324444 264.816339 
L 232.592152 264.739991 
L 232.67356 264.434598 
L 232.758613 264.358249 
L 232.758613 264.281901 
L 233.077067 264.205553 
L 233.175629 263.594767 
L 233.503879 263.518419 
L 233.604788 263.136678 
L 233.771588 263.060329 
L 233.771588 262.983981 
L 233.900587 262.907633 
L 233.972829 262.678588 
L 234.414027 262.60224 
L 234.414027 262.525892 
L 234.698385 262.449544 
L 234.765799 262.067802 
L 235.059342 261.991454 
L 235.13672 261.457016 
L 235.438444 261.380668 
L 235.547596 260.998927 
L 235.797545 260.922579 
L 235.860599 260.464489 
L 236.217359 260.388141 
L 236.275603 260.235445 
L 236.851546 260.159096 
L 236.896878 259.853704 
L 237.089014 259.777355 
L 237.139168 259.624659 
L 237.233951 259.548311 
L 237.233951 259.471962 
L 237.544003 259.395614 
L 237.646152 259.090221 
L 237.711842 259.013873 
L 237.711842 258.937525 
L 238.259855 258.861176 
L 238.32597 258.70848 
L 238.496065 258.632132 
L 238.526784 258.403087 
L 238.701188 258.326739 
L 238.811378 258.021346 
L 238.919701 257.944998 
L 238.987817 257.715953 
L 239.124282 257.639605 
L 239.183989 257.334212 
L 239.407032 257.257864 
L 239.468856 256.952471 
L 239.676002 256.876122 
L 239.708176 256.570729 
L 240.086253 256.494381 
L 240.086253 256.418033 
L 240.289196 256.341685 
L 240.293726 256.188988 
L 240.565871 256.11264 
L 240.605526 255.578202 
L 240.89465 255.501854 
L 240.995626 255.349158 
L 241.154681 255.272809 
L 241.154681 255.196461 
L 241.666849 255.120113 
L 241.666849 255.043765 
L 241.964924 254.967416 
L 241.975215 254.81472 
L 242.170417 254.738372 
L 242.235217 254.203934 
L 242.524412 254.127586 
L 242.524412 254.051238 
L 243.187325 253.974889 
L 243.296372 253.745845 
L 243.423948 253.669496 
L 243.475873 253.364104 
L 243.60561 253.287755 
L 243.707682 252.753318 
L 244.021106 252.676969 
L 244.021106 252.600621 
L 244.367532 252.524273 
L 244.408201 252.295228 
L 244.539756 252.21888 
L 244.539756 252.142532 
L 244.730183 252.066184 
L 244.83391 251.760791 
L 244.951684 251.684442 
L 245.058733 251.226353 
L 245.276181 251.150005 
L 245.276181 251.073656 
L 245.575052 250.997308 
L 245.575052 250.92096 
L 245.759335 250.844612 
L 245.861051 250.615567 
L 245.911365 250.539219 
L 245.966918 250.310174 
L 246.177445 250.233826 
L 246.22557 250.081129 
L 246.34988 250.004781 
L 246.34988 249.928433 
L 246.715748 249.852085 
L 246.770735 249.699388 
L 246.884605 249.62304 
L 246.93624 249.393995 
L 247.141831 249.317647 
L 247.148322 249.088602 
L 247.334879 249.012254 
L 247.404315 248.859558 
L 247.529572 248.783209 
L 247.629254 248.477816 
L 247.961794 248.401468 
L 248.020101 248.248772 
L 248.117036 248.172424 
L 248.164764 248.019727 
L 248.314219 247.943379 
L 248.314219 247.867031 
L 248.473415 247.790682 
L 248.482098 247.561638 
L 248.832758 247.485289 
L 248.891948 247.256245 
L 249.194454 247.179896 
L 249.236483 247.0272 
L 249.37945 246.950852 
L 249.471532 246.645459 
L 249.548769 246.569111 
L 249.548769 246.492762 
L 249.743881 246.416414 
L 249.743881 246.340066 
L 249.89125 246.263718 
L 249.971555 246.111021 
L 250.115063 246.034673 
L 250.122564 245.881976 
L 250.276275 245.805628 
L 250.287765 245.576584 
L 250.401199 245.500235 
L 250.428923 245.194842 
L 250.751131 245.118494 
L 250.758334 244.965798 
L 250.897039 244.889449 
L 250.897039 244.813101 
L 251.091689 244.736753 
L 251.091689 244.660405 
L 251.227122 244.584056 
L 251.237584 244.43136 
L 251.400199 244.355012 
L 251.481179 244.049619 
L 251.636241 243.973271 
L 251.732859 243.820574 
L 251.850506 243.744226 
L 251.856654 243.591529 
L 252.034577 243.515181 
L 252.034577 243.438833 
L 252.201488 243.362485 
L 252.310356 243.13344 
L 252.451536 243.057092 
L 252.495587 242.828047 
L 252.607819 242.751699 
L 252.647799 242.446306 
L 252.79772 242.369958 
L 252.877919 242.217261 
L 253.102821 242.140913 
L 253.177439 241.988216 
L 253.328855 241.911868 
L 253.335905 241.682824 
L 253.596355 241.606475 
L 253.619498 241.377431 
L 253.751485 241.301082 
L 253.75686 241.148386 
L 254.02658 241.072038 
L 254.104916 240.690296 
L 254.183608 240.613948 
L 254.183608 240.5376 
L 254.309343 240.461252 
L 254.323697 240.308555 
L 254.439117 240.232207 
L 254.439117 240.155859 
L 254.561574 240.079511 
L 254.561574 240.003162 
L 254.69784 239.926814 
L 254.714772 239.774118 
L 254.898564 239.697769 
L 255.000566 239.468725 
L 255.22343 239.392376 
L 255.320641 239.163332 
L 255.34982 239.086984 
L 255.419953 238.857939 
L 255.497302 238.781591 
L 255.497302 238.705242 
L 255.71025 238.628894 
L 255.775127 238.476198 
L 255.841201 238.399849 
L 255.869996 238.247153 
L 256.154058 238.170805 
L 256.258856 237.865412 
L 256.345001 237.789064 
L 256.347962 237.636367 
L 256.584797 237.560019 
L 256.598929 237.330974 
L 256.743364 237.254626 
L 256.836866 236.949233 
L 257.057851 236.872885 
L 257.083793 236.567492 
L 257.185396 236.491144 
L 257.242183 236.109402 
L 257.529967 236.033054 
L 257.597536 235.727661 
L 257.648068 235.651313 
L 257.746068 235.498616 
L 257.789911 235.422268 
L 257.876396 235.116875 
L 258.027911 235.040527 
L 258.110617 234.811482 
L 258.308043 234.735134 
L 258.308043 234.658786 
L 258.451557 234.582438 
L 258.552269 234.200696 
L 258.626441 234.124348 
L 258.727239 233.818955 
L 258.818012 233.742607 
L 258.858304 233.360866 
L 259.259383 233.284518 
L 259.368689 232.902776 
L 259.455387 232.826428 
L 259.506374 232.673732 
L 259.601333 232.597384 
L 259.696424 232.215642 
L 260.008931 232.139294 
L 260.100448 231.833901 
L 260.23349 231.757553 
L 260.314798 231.45216 
L 260.389132 231.375812 
L 260.474663 231.070419 
L 260.853431 230.994071 
L 260.939334 230.383285 
L 261.109755 230.306936 
L 261.198614 230.077892 
L 261.355206 230.001544 
L 261.388284 229.772499 
L 261.534501 229.696151 
L 261.60291 229.467106 
L 261.69762 229.390758 
L 261.797279 229.085365 
L 261.965671 229.009016 
L 262.058048 228.627275 
L 262.233336 228.550927 
L 262.341455 228.169186 
L 262.506745 228.092838 
L 262.59288 227.863793 
L 262.671853 227.787445 
L 262.76727 227.482052 
L 262.954846 227.405704 
L 263.055953 227.023962 
L 263.191706 226.947614 
L 263.292918 226.642221 
L 263.369489 226.565873 
L 263.439117 226.336828 
L 263.516736 226.26048 
L 263.62414 226.107784 
L 263.77836 226.031435 
L 263.855686 225.726042 
L 263.952854 225.649694 
L 264.014945 225.344301 
L 264.154193 225.267953 
L 264.245179 224.96256 
L 264.411513 224.886212 
L 264.456222 224.657167 
L 264.651851 224.580819 
L 264.762409 224.122729 
L 264.881682 224.046381 
L 264.955978 223.66464 
L 265.085817 223.588292 
L 265.187 223.435595 
L 265.351462 223.359247 
L 265.426873 223.053854 
L 265.490531 222.977506 
L 265.594071 222.519416 
L 265.833539 222.443068 
L 265.884828 222.290372 
L 266.081672 222.214024 
L 266.188821 221.603238 
L 266.231592 221.526889 
L 266.231592 221.450541 
L 266.368165 221.374193 
L 266.431454 221.221496 
L 266.598214 221.145148 
L 266.67666 220.916104 
L 266.783583 220.839755 
L 266.890642 220.381666 
L 266.931544 220.305318 
L 267.010206 220.152621 
L 267.144617 220.076273 
L 267.148786 219.923576 
L 267.279167 219.847228 
L 267.365512 219.618184 
L 267.557754 219.541835 
L 267.617564 219.160094 
L 267.766276 219.083746 
L 267.811818 218.854701 
L 267.937005 218.778353 
L 267.937005 218.702005 
L 268.137732 218.625656 
L 268.140299 218.47296 
L 268.263905 218.396612 
L 268.349055 218.091219 
L 268.512305 218.014871 
L 268.52522 217.862174 
L 268.770122 217.785826 
L 268.838319 217.633129 
L 268.978019 217.556781 
L 269.023031 217.327736 
L 269.3626 217.251388 
L 269.3626 217.17504 
L 269.675466 217.098692 
L 269.675466 217.022344 
L 273.627014 216.945995 
L 273.627014 216.869647 
L 275.908978 216.793299 
L 275.908978 216.716951 
L 276.140331 216.716951 
L 276.23457 216.335209 
L 276.478649 216.258861 
L 276.530873 216.029816 
L 276.766282 215.953468 
L 276.866728 215.724424 
L 276.897363 215.724424 
L 276.934586 215.342682 
L 277.151776 215.266334 
L 277.251491 215.037289 
L 277.625994 214.960941 
L 277.691415 214.808245 
L 278.183075 214.731896 
L 278.183075 214.655548 
L 280.476398 214.5792 
L 280.476398 214.426504 
L 280.676272 214.426504 
L 280.676272 214.121111 
L 281.005272 214.121111 
L 281.005272 213.892066 
L 282.362759 213.892066 
L 282.362759 213.739369 
L 288.022287 213.663021 
L 288.022287 213.586673 
L 288.554864 213.510325 
L 288.608606 213.204932 
L 288.705516 213.204932 
L 288.761843 212.823191 
L 288.961866 212.823191 
L 289.019151 212.517798 
L 290.014953 212.441449 
L 290.014953 212.365101 
L 295.535158 212.288753 
L 295.535158 212.212405 
L 295.88227 212.136056 
L 295.88227 212.059708 
L 296.064266 211.98336 
L 296.064266 211.754315 
L 296.880034 211.677967 
L 296.880034 211.601619 
L 297.381488 211.525271 
L 297.381488 211.448922 
L 298.947548 211.372574 
L 298.947548 211.296226 
L 300.962646 211.219878 
L 301.043574 210.914485 
L 301.251777 210.838136 
L 301.251777 210.761788 
L 302.189909 210.68544 
L 302.189909 210.609092 
L 305.025219 210.532744 
L 305.108666 210.227351 
L 305.944189 210.151002 
L 306.016079 209.998306 
L 308.357815 209.998306 
L 308.411589 209.692913 
L 308.502524 209.616565 
L 308.561543 209.38752 
L 308.862072 209.38752 
L 308.862072 209.234824 
L 309.133322 209.234824 
L 309.206298 208.929431 
L 311.219585 208.853082 
L 311.314904 208.394993 
L 311.605284 208.318645 
L 311.605284 208.242296 
L 313.760994 208.165948 
L 313.760994 208.0896 
L 315.925304 208.013252 
L 315.925304 207.936904 
L 317.778266 207.860555 
L 317.884915 207.555162 
L 319.642394 207.478814 
L 319.642394 207.402466 
L 321.150964 207.326118 
L 321.187723 207.173421 
L 322.673063 207.097073 
L 322.673063 207.020725 
L 323.043722 206.944376 
L 323.043722 206.868028 
L 325.324295 206.79168 
L 325.332347 206.562635 
L 325.654559 206.486287 
L 325.654559 206.409939 
L 326.567885 206.333591 
L 326.567885 206.257242 
L 331.601097 206.180894 
L 331.601097 206.104546 
L 333.293899 206.028198 
L 333.293899 205.951849 
L 336.290345 205.875501 
L 336.315533 205.722805 
L 337.148943 205.646456 
L 337.148943 205.570108 
L 340.196234 205.49376 
L 340.196234 205.417412 
L 342.189907 205.341064 
L 342.189907 205.264715 
L 347.168425 205.188367 
L 347.168425 205.112019 
L 360.8064 205.035671 
L 360.8064 205.035671 
" style="fill: none; stroke: #ff00ff; stroke-width: 1.5; stroke-linecap: square"/>
   </g>
   <g id="line2d_41">
    <defs>
     <path id="m1f15178673" d="M 0 8.485281 
L 5.091169 0 
L 0 -8.485281 
L -5.091169 0 
z
" style="stroke: #ff00ff; stroke-width: 1.5; stroke-linejoin: miter"/>
    </defs>
    <g>
     <use xlink:href="#m1f15178673" x="229.776308" y="267.946616" style="fill-opacity: 0; stroke: #ff00ff; stroke-width: 1.5; stroke-linejoin: miter"/>
     <use xlink:href="#m1f15178673" x="295.535158" y="212.212405" style="fill-opacity: 0; stroke: #ff00ff; stroke-width: 1.5; stroke-linejoin: miter"/>
     <use xlink:href="#m1f15178673" x="349.36539" y="205.035671" style="fill-opacity: 0; stroke: #ff00ff; stroke-width: 1.5; stroke-linejoin: miter"/>
     <use xlink:href="#m1f15178673" x="360.8064" y="205.035671" style="fill-opacity: 0; stroke: #ff00ff; stroke-width: 1.5; stroke-linejoin: miter"/>
    </g>
   </g>
   <g id="line2d_42">
    <path style="fill: none; stroke: #ff00ff; stroke-width: 1.5; stroke-linecap: square"/>
    <g/>
   </g>
   <g id="line2d_43">
    <path d="M 274.176 216.869647 
" clip-path="url(#pd2324018b4)" style="fill: none; stroke: #ff00ff; stroke-width: 1.5; stroke-linecap: square"/>
    <defs>
     <path id="m22e7d12d97" d="M -12 12 
L 12 -12 
M -12 -12 
L 12 12 
" style="stroke: #ff00ff"/>
    </defs>
    <g clip-path="url(#pd2324018b4)">
     <use xlink:href="#m22e7d12d97" x="274.176" y="216.869647" style="fill: #ff00ff; stroke: #ff00ff"/>
    </g>
   </g>
   <g id="line2d_44">
    <path d="M 360.8064 205.035671 
L 380.514816 293.10336 
" style="fill: none; stroke: #ff00ff; stroke-width: 1.5; stroke-linecap: square"/>
    <g>
     <use xlink:href="#m1f15178673" x="360.8064" y="205.035671" style="fill-opacity: 0; stroke: #ff00ff; stroke-width: 1.5; stroke-linejoin: miter"/>
     <use xlink:href="#m1f15178673" x="380.514816" y="293.10336" style="fill-opacity: 0; stroke: #ff00ff; stroke-width: 1.5; stroke-linejoin: miter"/>
    </g>
   </g>
   <g id="line2d_45">
    <path d="M 360.8064 6.912 
L 380.514816 152.928 
" style="fill: none; stroke: #000080; stroke-width: 1.5; stroke-linecap: square"/>
    <g>
     <use xlink:href="#me0d9c0c84f" x="360.8064" y="6.912" style="fill-opacity: 0; stroke: #000080; stroke-width: 1.5"/>
     <use xlink:href="#me0d9c0c84f" x="380.514816" y="152.928" style="fill-opacity: 0; stroke: #000080; stroke-width: 1.5"/>
    </g>
   </g>
   <g id="line2d_46">
    <path d="M 360.8064 298.944 
L 360.8064 6.912 
" style="fill: none; stroke: #000000; stroke-width: 1.5; stroke-linecap: square"/>
   </g>
   <g id="patch_3">
    <path d="M 57.6 298.944 
L 360.8064 298.944 
" style="fill: none; stroke: #000000; stroke-width: 0.8; stroke-linejoin: miter; stroke-linecap: square"/>
   </g>
   <g id="patch_4">
    <path d="M 57.6 6.912 
L 360.8064 6.912 
" style="fill: none; stroke: #000000; stroke-width: 0.8; stroke-linejoin: miter; stroke-linecap: square"/>
   </g>
   <g id="text_13">
    <!-- GA -->
    <g transform="translate(386.578944 296.966485)scale(0.14 -0.14)">
     <defs>
      <path id="DejaVuSans-47" d="M 3809 666 
L 3809 1919 
L 2778 1919 
L 2778 2438 
L 4434 2438 
L 4434 434 
Q 4069 175 3628 42 
Q 3188 -91 2688 -91 
Q 1594 -91 976 548 
Q 359 1188 359 2328 
Q 359 3472 976 4111 
Q 1594 4750 2688 4750 
Q 3144 4750 3555 4637 
Q 3966 4525 4313 4306 
L 4313 3634 
Q 3963 3931 3569 4081 
Q 3175 4231 2741 4231 
Q 1884 4231 1454 3753 
Q 1025 3275 1025 2328 
Q 1025 1384 1454 906 
Q 1884 428 2741 428 
Q 3075 428 3337 486 
Q 3600 544 3809 666 
z
" transform="scale(0.015625)"/>
      <path id="DejaVuSans-41" d="M 2188 4044 
L 1331 1722 
L 3047 1722 
L 2188 4044 
z
M 1831 4666 
L 2547 4666 
L 4325 0 
L 3669 0 
L 3244 1197 
L 1141 1197 
L 716 0 
L 50 0 
L 1831 4666 
z
" transform="scale(0.015625)"/>
     </defs>
     <use xlink:href="#DejaVuSans-47"/>
     <use xlink:href="#DejaVuSans-41" x="77.490234"/>
    </g>
   </g>
   <g id="text_14">
    <!-- LCGA -->
    <g transform="translate(386.578944 156.791125)scale(0.14 -0.14)">
     <defs>
      <path id="DejaVuSans-4c" d="M 628 4666 
L 1259 4666 
L 1259 531 
L 3531 531 
L 3531 0 
L 628 0 
L 628 4666 
z
" transform="scale(0.015625)"/>
      <path id="DejaVuSans-43" d="M 4122 4306 
L 4122 3641 
Q 3803 3938 3442 4084 
Q 3081 4231 2675 4231 
Q 1875 4231 1450 3742 
Q 1025 3253 1025 2328 
Q 1025 1406 1450 917 
Q 1875 428 2675 428 
Q 3081 428 3442 575 
Q 3803 722 4122 1019 
L 4122 359 
Q 3791 134 3420 21 
Q 3050 -91 2638 -91 
Q 1578 -91 968 557 
Q 359 1206 359 2328 
Q 359 3453 968 4101 
Q 1578 4750 2638 4750 
Q 3056 4750 3426 4639 
Q 3797 4528 4122 4306 
z
" transform="scale(0.015625)"/>
     </defs>
     <use xlink:href="#DejaVuSans-4c"/>
     <use xlink:href="#DejaVuSans-43" x="55.712891"/>
     <use xlink:href="#DejaVuSans-47" x="125.537109"/>
     <use xlink:href="#DejaVuSans-41" x="203.027344"/>
    </g>
   </g>
   <g id="text_15">
    <!-- best 2009 -->
    <g transform="translate(386.578944 16.615765)scale(0.14 -0.14)">
     <defs>
      <path id="DejaVuSans-62" d="M 3116 1747 
Q 3116 2381 2855 2742 
Q 2594 3103 2138 3103 
Q 1681 3103 1420 2742 
Q 1159 2381 1159 1747 
Q 1159 1113 1420 752 
Q 1681 391 2138 391 
Q 2594 391 2855 752 
Q 3116 1113 3116 1747 
z
M 1159 2969 
Q 1341 3281 1617 3432 
Q 1894 3584 2278 3584 
Q 2916 3584 3314 3078 
Q 3713 2572 3713 1747 
Q 3713 922 3314 415 
Q 2916 -91 2278 -91 
Q 1894 -91 1617 61 
Q 1341 213 1159 525 
L 1159 0 
L 581 0 
L 581 4863 
L 1159 4863 
L 1159 2969 
z
" transform="scale(0.015625)"/>
      <path id="DejaVuSans-39" d="M 703 97 
L 703 672 
Q 941 559 1184 500 
Q 1428 441 1663 441 
Q 2288 441 2617 861 
Q 2947 1281 2994 2138 
Q 2813 1869 2534 1725 
Q 2256 1581 1919 1581 
Q 1219 1581 811 2004 
Q 403 2428 403 3163 
Q 403 3881 828 4315 
Q 1253 4750 1959 4750 
Q 2769 4750 3195 4129 
Q 3622 3509 3622 2328 
Q 3622 1225 3098 567 
Q 2575 -91 1691 -91 
Q 1453 -91 1209 -44 
Q 966 3 703 97 
z
M 1959 2075 
Q 2384 2075 2632 2365 
Q 2881 2656 2881 3163 
Q 2881 3666 2632 3958 
Q 2384 4250 1959 4250 
Q 1534 4250 1286 3958 
Q 1038 3666 1038 3163 
Q 1038 2656 1286 2365 
Q 1534 2075 1959 2075 
z
" transform="scale(0.015625)"/>
     </defs>
     <use xlink:href="#DejaVuSans-62"/>
     <use xlink:href="#DejaVuSans-65" x="63.476562"/>
     <use xlink:href="#DejaVuSans-73" x="125"/>
     <use xlink:href="#DejaVuSans-74" x="177.099609"/>
     <use xlink:href="#DejaVuSans-20" x="216.308594"/>
     <use xlink:href="#DejaVuSans-32" x="248.095703"/>
     <use xlink:href="#DejaVuSans-30" x="311.71875"/>
     <use xlink:href="#DejaVuSans-30" x="375.341797"/>
     <use xlink:href="#DejaVuSans-39" x="438.964844"/>
    </g>
   </g>
   <g id="text_16">
    <!-- bbob f1-f5, 40-D -->
    <g transform="translate(60.632064 17.582726)scale(0.102 -0.102)">
     <defs>
      <path id="DejaVuSans-35" d="M 691 4666 
L 3169 4666 
L 3169 4134 
L 1269 4134 
L 1269 2991 
Q 1406 3038 1543 3061 
Q 1681 3084 1819 3084 
Q 2600 3084 3056 2656 
Q 3513 2228 3513 1497 
Q 3513 744 3044 326 
Q 2575 -91 1722 -91 
Q 1428 -91 1123 -41 
Q 819 9 494 109 
L 494 744 
Q 775 591 1075 516 
Q 1375 441 1709 441 
Q 2250 441 2565 725 
Q 2881 1009 2881 1497 
Q 2881 1984 2565 2268 
Q 2250 2553 1709 2553 
Q 1456 2553 1204 2497 
Q 953 2441 691 2322 
L 691 4666 
z
" transform="scale(0.015625)"/>
      <path id="DejaVuSans-44" d="M 1259 4147 
L 1259 519 
L 2022 519 
Q 2988 519 3436 956 
Q 3884 1394 3884 2338 
Q 3884 3275 3436 3711 
Q 2988 4147 2022 4147 
L 1259 4147 
z
M 628 4666 
L 1925 4666 
Q 3281 4666 3915 4102 
Q 4550 3538 4550 2338 
Q 4550 1131 3912 565 
Q 3275 0 1925 0 
L 628 0 
L 628 4666 
z
" transform="scale(0.015625)"/>
     </defs>
     <use xlink:href="#DejaVuSans-62"/>
     <use xlink:href="#DejaVuSans-62" x="63.476562"/>
     <use xlink:href="#DejaVuSans-6f" x="126.953125"/>
     <use xlink:href="#DejaVuSans-62" x="188.134766"/>
     <use xlink:href="#DejaVuSans-20" x="251.611328"/>
     <use xlink:href="#DejaVuSans-66" x="283.398438"/>
     <use xlink:href="#DejaVuSans-31" x="318.603516"/>
     <use xlink:href="#DejaVuSans-2d" x="382.226562"/>
     <use xlink:href="#DejaVuSans-66" x="418.310547"/>
     <use xlink:href="#DejaVuSans-35" x="453.515625"/>
     <use xlink:href="#DejaVuSans-2c" x="517.138672"/>
     <use xlink:href="#DejaVuSans-20" x="548.925781"/>
     <use xlink:href="#DejaVuSans-34" x="580.712891"/>
     <use xlink:href="#DejaVuSans-30" x="644.335938"/>
     <use xlink:href="#DejaVuSans-2d" x="707.958984"/>
     <use xlink:href="#DejaVuSans-44" x="744.042969"/>
    </g>
    <!-- 51 targets: 100..1e-08 -->
    <g transform="translate(60.632064 29.004495)scale(0.102 -0.102)">
     <defs>
      <path id="DejaVuSans-3a" d="M 750 794 
L 1409 794 
L 1409 0 
L 750 0 
L 750 794 
z
M 750 3309 
L 1409 3309 
L 1409 2516 
L 750 2516 
L 750 3309 
z
" transform="scale(0.015625)"/>
     </defs>
     <use xlink:href="#DejaVuSans-35"/>
     <use xlink:href="#DejaVuSans-31" x="63.623047"/>
     <use xlink:href="#DejaVuSans-20" x="127.246094"/>
     <use xlink:href="#DejaVuSans-74" x="159.033203"/>
     <use xlink:href="#DejaVuSans-61" x="198.242188"/>
     <use xlink:href="#DejaVuSans-72" x="259.521484"/>
     <use xlink:href="#DejaVuSans-67" x="298.884766"/>
     <use xlink:href="#DejaVuSans-65" x="362.361328"/>
     <use xlink:href="#DejaVuSans-74" x="423.884766"/>
     <use xlink:href="#DejaVuSans-73" x="463.09375"/>
     <use xlink:href="#DejaVuSans-3a" x="515.193359"/>
     <use xlink:href="#DejaVuSans-20" x="548.884766"/>
     <use xlink:href="#DejaVuSans-31" x="580.671875"/>
     <use xlink:href="#DejaVuSans-30" x="644.294922"/>
     <use xlink:href="#DejaVuSans-30" x="707.917969"/>
     <use xlink:href="#DejaVuSans-2e" x="771.541016"/>
     <use xlink:href="#DejaVuSans-2e" x="803.328125"/>
     <use xlink:href="#DejaVuSans-31" x="835.115234"/>
     <use xlink:href="#DejaVuSans-65" x="898.738281"/>
     <use xlink:href="#DejaVuSans-2d" x="960.261719"/>
     <use xlink:href="#DejaVuSans-30" x="996.345703"/>
     <use xlink:href="#DejaVuSans-38" x="1059.96875"/>
    </g>
    <!-- 15 instances -->
    <g transform="translate(60.632064 40.426264)scale(0.102 -0.102)">
     <use xlink:href="#DejaVuSans-31"/>
     <use xlink:href="#DejaVuSans-35" x="63.623047"/>
     <use xlink:href="#DejaVuSans-20" x="127.246094"/>
     <use xlink:href="#DejaVuSans-69" x="159.033203"/>
     <use xlink:href="#DejaVuSans-6e" x="186.816406"/>
     <use xlink:href="#DejaVuSans-73" x="250.195312"/>
     <use xlink:href="#DejaVuSans-74" x="302.294922"/>
     <use xlink:href="#DejaVuSans-61" x="341.503906"/>
     <use xlink:href="#DejaVuSans-6e" x="402.783203"/>
     <use xlink:href="#DejaVuSans-63" x="466.162109"/>
     <use xlink:href="#DejaVuSans-65" x="521.142578"/>
     <use xlink:href="#DejaVuSans-73" x="582.666016"/>
    </g>
   </g>
   <g id="text_17">
    <!-- v2.6 -->
    <g style="fill: #808080" transform="translate(198.292262 293.943992)scale(0.1 -0.1)">
     <use xlink:href="#DejaVuSans-76"/>
     <use xlink:href="#DejaVuSans-32" x="59.179688"/>
     <use xlink:href="#DejaVuSans-2e" x="122.802734"/>
     <use xlink:href="#DejaVuSans-36" x="154.589844"/>
    </g>
   </g>
  </g>
 </g>
 <defs>
  <clipPath id="pd2324018b4">
   <rect x="57.6" y="6.912" width="303.2064" height="292.032"/>
  </clipPath>
 </defs>
</svg>
