<?xml version="1.0" encoding="utf-8" standalone="no"?>
<!DOCTYPE svg PUBLIC "-//W3C//DTD SVG 1.1//EN"
  "http://www.w3.org/Graphics/SVG/1.1/DTD/svg11.dtd">
<svg xmlns:xlink="http://www.w3.org/1999/xlink" width="460.8pt" height="345.6pt" viewBox="0 0 460.8 345.6" xmlns="http://www.w3.org/2000/svg" version="1.1">
 <metadata>
  <rdf:RDF xmlns:dc="http://purl.org/dc/elements/1.1/" xmlns:cc="http://creativecommons.org/ns#" xmlns:rdf="http://www.w3.org/1999/02/22-rdf-syntax-ns#">
   <cc:Work>
    <dc:type rdf:resource="http://purl.org/dc/dcmitype/StillImage"/>
    <dc:date>2024-05-29T07:59:09.804821</dc:date>
    <dc:format>image/svg+xml</dc:format>
    <dc:creator>
     <cc:Agent>
      <dc:title>Matplotlib v3.5.1, https://matplotlib.org/</dc:title>
     </cc:Agent>
    </dc:creator>
   </cc:Work>
  </rdf:RDF>
 </metadata>
 <defs>
  <style type="text/css">*{stroke-linejoin: round; stroke-linecap: butt}</style>
 </defs>
 <g id="figure_1">
  <g id="patch_1">
   <path d="M 0 345.6 
L 460.8 345.6 
L 460.8 0 
L 0 0 
z
" style="fill: #ffffff"/>
  </g>
  <g id="axes_1">
   <g id="patch_2">
    <path d="M 57.6 298.944 
L 360.8064 298.944 
L 360.8064 6.912 
L 57.6 6.912 
z
" style="fill: #ffffff"/>
   </g>
   <g id="line2d_1">
    <path d="M 27.323974 298.944 
L 27.323974 277.184753 
L 40.363149 277.184753 
L 40.363149 273.749082 
L 47.990577 273.749082 
L 47.990577 272.603859 
L 57.6 272.603859 
L 57.6 270.313412 
L 63.929565 270.313412 
L 63.929565 269.168188 
L 75.574654 269.168188 
L 75.574654 268.022965 
L 79.480672 268.022965 
L 79.480672 266.877741 
L 83.678349 266.877741 
L 83.678349 265.732518 
L 87.1081 265.732518 
L 87.1081 264.587294 
L 88.613828 264.587294 
L 88.613828 263.442071 
L 99.346662 263.442071 
L 99.346662 262.296847 
L 102.708132 262.296847 
L 102.708132 261.151624 
L 103.380045 261.151624 
L 103.380045 260.0064 
L 103.707211 260.0064 
L 103.707211 258.861176 
L 114.510421 258.861176 
L 114.510421 257.715953 
L 115.747307 257.715953 
L 115.747307 256.570729 
L 117.384126 256.570729 
L 117.384126 255.425506 
L 121.073351 255.425506 
L 121.073351 254.280282 
L 122.913079 254.280282 
L 122.913079 253.135059 
L 124.156336 253.135059 
L 124.156336 251.989835 
L 125.219419 251.989835 
L 125.219419 250.844612 
L 126.127391 250.844612 
L 126.127391 249.699388 
L 126.420564 249.699388 
L 126.420564 248.554165 
L 128.354013 248.554165 
L 128.354013 247.408941 
L 130.579414 247.408941 
L 130.579414 245.118494 
L 133.918257 245.118494 
L 133.918257 243.973271 
L 135.717106 243.973271 
L 135.717106 242.828047 
L 136.640557 242.828047 
L 136.640557 241.682824 
L 138.206842 241.682824 
L 138.206842 240.5376 
L 138.968547 240.5376 
L 138.968547 239.392376 
L 139.166565 239.392376 
L 139.166565 238.247153 
L 140.58877 238.247153 
L 140.58877 237.101929 
L 142.373399 237.101929 
L 142.373399 235.956706 
L 143.696162 235.956706 
L 143.696162 234.811482 
L 144.639767 234.811482 
L 144.639767 233.666259 
L 145.219746 233.666259 
L 145.219746 232.521035 
L 147.628773 232.521035 
L 147.628773 231.375812 
L 148.03267 231.375812 
L 148.03267 230.230588 
L 149.875833 230.230588 
L 149.875833 229.085365 
L 152.057422 229.085365 
L 152.057422 227.940141 
L 154.101358 227.940141 
L 154.101358 226.794918 
L 155.266666 226.794918 
L 155.266666 225.649694 
L 158.699905 225.649694 
L 158.699905 224.504471 
L 160.383158 224.504471 
L 160.383158 223.359247 
L 160.573496 223.359247 
L 160.573496 222.214024 
L 165.957604 222.214024 
L 165.957604 221.0688 
L 168.821824 221.0688 
L 168.821824 219.923576 
L 170.718116 219.923576 
L 170.718116 218.778353 
L 171.298095 218.778353 
L 171.324847 216.487906 
L 172.53279 216.487906 
L 172.53279 215.342682 
L 174.218295 215.342682 
L 174.218295 214.197459 
L 175.687546 214.197459 
L 175.687546 213.052235 
L 177.043737 213.052235 
L 177.043737 211.907012 
L 177.472768 211.907012 
L 177.472768 210.761788 
L 178.419027 210.761788 
L 178.419027 209.616565 
L 179.412941 209.616565 
L 179.412941 208.471341 
L 179.6663 208.471341 
L 179.6663 207.326118 
L 180.163003 207.326118 
L 180.163003 206.180894 
L 181.386819 206.180894 
L 181.386819 205.035671 
L 181.723072 205.035671 
L 181.723072 203.890447 
L 182.158919 203.890447 
L 182.158919 202.745224 
L 182.526034 202.745224 
L 182.526034 201.6 
L 183.196826 201.6 
L 183.196826 200.454776 
L 183.460455 200.454776 
L 183.46513 198.164329 
L 184.355108 198.164329 
L 184.355108 197.019106 
L 184.800034 197.019106 
L 184.800034 195.873882 
L 185.634537 195.873882 
L 185.634537 194.728659 
L 186.393631 194.728659 
L 186.393631 193.583435 
L 186.761992 193.583435 
L 186.761992 192.438212 
L 187.34133 192.438212 
L 187.34133 191.292988 
L 188.167281 191.292988 
L 188.167281 190.147765 
L 189.828049 190.147765 
L 189.828049 189.002541 
L 189.997239 189.002541 
L 189.997239 187.857318 
L 191.075413 187.857318 
L 191.075413 186.712094 
L 191.616436 186.712094 
L 191.616436 185.566871 
L 192.044841 185.566871 
L 192.044841 184.421647 
L 193.324331 184.421647 
L 193.324331 183.276424 
L 194.454679 183.276424 
L 194.454679 182.1312 
L 194.618135 182.1312 
L 194.708334 179.840753 
L 194.879803 179.840753 
L 194.879803 178.695529 
L 195.006754 178.695529 
L 195.006754 177.550306 
L 195.25312 177.550306 
L 195.25312 176.405082 
L 195.552922 176.405082 
L 195.552922 175.259859 
L 195.73151 175.259859 
L 195.73151 174.114635 
L 195.860116 174.114635 
L 195.860116 172.969412 
L 196.033429 172.969412 
L 196.033429 171.824188 
L 196.231259 171.824188 
L 196.231259 170.678965 
L 196.457509 170.678965 
L 196.506641 168.388518 
L 196.583589 168.388518 
L 196.583589 167.243294 
L 196.720384 167.243294 
L 196.775746 164.952847 
L 196.84013 164.952847 
L 196.84013 163.807624 
L 196.977358 163.807624 
L 196.977358 162.6624 
L 197.152013 162.6624 
L 197.152013 161.517176 
L 197.418784 161.517176 
L 197.418784 160.371953 
L 197.626869 160.371953 
L 197.626869 159.226729 
L 197.900059 159.226729 
L 197.900059 158.081506 
L 198.05133 158.081506 
L 198.05133 156.936282 
L 198.640365 156.936282 
L 198.640365 155.791059 
L 198.839563 155.791059 
L 198.839563 154.645835 
L 199.179109 154.645835 
L 199.239824 152.355388 
L 199.93795 152.355388 
L 199.93795 151.210165 
L 200.096927 151.210165 
L 200.096927 150.064941 
L 200.888931 150.064941 
L 200.918523 147.774494 
L 201.003343 147.774494 
L 201.102429 144.338824 
L 201.184603 144.338824 
L 201.282741 142.048376 
L 201.299048 142.048376 
L 201.299048 140.903153 
L 201.411 140.903153 
L 201.428995 138.612706 
L 201.59909 138.612706 
L 201.59909 137.467482 
L 201.808248 137.467482 
L 201.808248 136.322259 
L 201.988935 136.322259 
L 201.988935 135.177035 
L 202.214538 135.177035 
L 202.214538 134.031812 
L 202.375997 134.031812 
L 202.375997 132.886588 
L 202.554726 132.886588 
L 202.554726 131.741365 
L 202.671259 131.741365 
L 202.770334 128.305694 
L 202.822181 128.305694 
L 202.822181 127.160471 
L 202.98681 127.160471 
L 203.076003 124.870024 
L 203.117154 124.870024 
L 203.223726 122.579576 
L 203.306923 122.579576 
L 203.389754 120.289129 
L 203.448004 120.289129 
L 203.520564 117.998682 
L 203.592845 117.998682 
L 203.684005 115.708235 
L 203.714293 115.708235 
L 203.792181 112.272565 
L 203.866589 112.272565 
L 203.94857 108.836894 
L 204.012958 108.836894 
L 204.109909 105.401224 
L 204.162864 105.401224 
L 204.271423 101.965553 
L 204.277607 101.965553 
L 204.351662 98.529882 
L 204.410083 98.529882 
L 204.437693 96.239435 
L 204.602507 96.239435 
L 204.602507 95.094212 
L 204.73574 95.094212 
L 204.838051 92.803765 
L 204.93533 92.803765 
L 205.043986 90.513318 
L 205.135779 90.513318 
L 205.233004 88.222871 
L 212.6313 88.222871 
L 212.6313 87.077647 
L 212.77059 87.077647 
L 212.877566 84.7872 
L 212.948872 84.7872 
L 213.02088 82.496753 
L 213.110021 82.496753 
L 213.204513 80.206306 
L 213.28896 80.206306 
L 213.380654 76.770635 
L 213.490858 76.770635 
L 213.597594 73.334965 
L 213.62677 73.334965 
L 213.692486 71.044518 
L 213.762642 71.044518 
L 213.836257 68.754071 
L 213.898466 68.754071 
L 213.959545 66.463624 
L 214.013058 66.463624 
L 214.039758 64.173176 
L 214.137943 64.173176 
L 214.220133 61.882729 
L 214.280179 61.882729 
L 214.375313 58.447059 
L 214.442071 58.447059 
L 214.539976 55.011388 
L 214.600797 55.011388 
L 214.673879 52.720941 
L 214.733383 52.720941 
L 214.815667 49.285271 
L 214.860638 49.285271 
L 214.946752 46.994824 
L 215.017632 46.994824 
L 215.10651 43.559153 
L 215.168995 43.559153 
L 215.168995 42.413929 
L 244.792336 42.413929 
L 244.792336 41.268706 
L 247.310434 41.268706 
L 247.409506 34.397365 
L 247.425733 34.397365 
L 247.516597 22.945129 
L 247.539244 22.945129 
L 247.643443 12.638118 
L 247.65531 12.638118 
L 247.702398 6.912 
L 360.8064 6.912 
L 360.8064 6.912 
" style="fill: none; stroke: #f5deb3; stroke-width: 4; stroke-linecap: square"/>
   </g>
   <g id="line2d_2">
    <defs>
     <path id="m247516e680" d="M 0 7.778175 
L 7.778175 0 
L 0 -7.778175 
L -7.778175 0 
z
" style="stroke: #f5deb3; stroke-width: 1.5; stroke-linejoin: miter"/>
    </defs>
    <g>
     <use xlink:href="#m247516e680" x="79.480672" y="266.877741" style="fill: #f5deb3; stroke: #f5deb3; stroke-width: 1.5; stroke-linejoin: miter"/>
     <use xlink:href="#m247516e680" x="177.043737" y="213.052235" style="fill: #f5deb3; stroke: #f5deb3; stroke-width: 1.5; stroke-linejoin: miter"/>
     <use xlink:href="#m247516e680" x="205.233004" y="88.222871" style="fill: #f5deb3; stroke: #f5deb3; stroke-width: 1.5; stroke-linejoin: miter"/>
     <use xlink:href="#m247516e680" x="247.702398" y="8.057224" style="fill: #f5deb3; stroke: #f5deb3; stroke-width: 1.5; stroke-linejoin: miter"/>
     <use xlink:href="#m247516e680" x="247.702398" y="6.912" style="fill: #f5deb3; stroke: #f5deb3; stroke-width: 1.5; stroke-linejoin: miter"/>
     <use xlink:href="#m247516e680" x="360.8064" y="6.912" style="fill: #f5deb3; stroke: #f5deb3; stroke-width: 1.5; stroke-linejoin: miter"/>
    </g>
   </g>
   <g id="line2d_3">
    <path style="fill: none; stroke: #f5deb3; stroke-width: 4; stroke-linecap: square"/>
    <g/>
   </g>
   <g id="line2d_4">
    <path d="M 360.8064 6.912 
L 380.514816 12.75264 
" style="fill: none; stroke: #f5deb3; stroke-width: 4; stroke-linecap: square"/>
    <g>
     <use xlink:href="#m247516e680" x="360.8064" y="6.912" style="fill: #f5deb3; stroke: #f5deb3; stroke-width: 1.5; stroke-linejoin: miter"/>
     <use xlink:href="#m247516e680" x="380.514816" y="12.75264" style="fill: #f5deb3; stroke: #f5deb3; stroke-width: 1.5; stroke-linejoin: miter"/>
    </g>
   </g>
   <g id="matplotlib.axis_1">
    <g id="xtick_1">
     <g id="line2d_5">
      <path d="M 57.6 298.944 
L 57.6 6.912 
" clip-path="url(#pa51e405540)" style="fill: none; stroke: #b0b0b0; stroke-width: 0.8; stroke-linecap: square"/>
     </g>
     <g id="line2d_6">
      <defs>
       <path id="mc0b2a97ea0" d="M 0 0 
L 0 3.5 
" style="stroke: #000000; stroke-width: 0.8"/>
      </defs>
      <g>
       <use xlink:href="#mc0b2a97ea0" x="57.6" y="298.944" style="stroke: #000000; stroke-width: 0.8"/>
      </g>
     </g>
     <g id="text_1">
      <!-- 0 -->
      <g transform="translate(52.191875 318.861344)scale(0.17 -0.17)">
       <defs>
        <path id="DejaVuSans-30" d="M 2034 4250 
Q 1547 4250 1301 3770 
Q 1056 3291 1056 2328 
Q 1056 1369 1301 889 
Q 1547 409 2034 409 
Q 2525 409 2770 889 
Q 3016 1369 3016 2328 
Q 3016 3291 2770 3770 
Q 2525 4250 2034 4250 
z
M 2034 4750 
Q 2819 4750 3233 4129 
Q 3647 3509 3647 2328 
Q 3647 1150 3233 529 
Q 2819 -91 2034 -91 
Q 1250 -91 836 529 
Q 422 1150 422 2328 
Q 422 3509 836 4129 
Q 1250 4750 2034 4750 
z
" transform="scale(0.015625)"/>
       </defs>
       <use xlink:href="#DejaVuSans-30"/>
      </g>
     </g>
    </g>
    <g id="xtick_2">
     <g id="line2d_7">
      <path d="M 144.2304 298.944 
L 144.2304 6.912 
" clip-path="url(#pa51e405540)" style="fill: none; stroke: #b0b0b0; stroke-width: 0.8; stroke-linecap: square"/>
     </g>
     <g id="line2d_8">
      <g>
       <use xlink:href="#mc0b2a97ea0" x="144.2304" y="298.944" style="stroke: #000000; stroke-width: 0.8"/>
      </g>
     </g>
     <g id="text_2">
      <!-- 2 -->
      <g transform="translate(138.822275 318.861344)scale(0.17 -0.17)">
       <defs>
        <path id="DejaVuSans-32" d="M 1228 531 
L 3431 531 
L 3431 0 
L 469 0 
L 469 531 
Q 828 903 1448 1529 
Q 2069 2156 2228 2338 
Q 2531 2678 2651 2914 
Q 2772 3150 2772 3378 
Q 2772 3750 2511 3984 
Q 2250 4219 1831 4219 
Q 1534 4219 1204 4116 
Q 875 4013 500 3803 
L 500 4441 
Q 881 4594 1212 4672 
Q 1544 4750 1819 4750 
Q 2544 4750 2975 4387 
Q 3406 4025 3406 3419 
Q 3406 3131 3298 2873 
Q 3191 2616 2906 2266 
Q 2828 2175 2409 1742 
Q 1991 1309 1228 531 
z
" transform="scale(0.015625)"/>
       </defs>
       <use xlink:href="#DejaVuSans-32"/>
      </g>
     </g>
    </g>
    <g id="xtick_3">
     <g id="line2d_9">
      <path d="M 230.8608 298.944 
L 230.8608 6.912 
" clip-path="url(#pa51e405540)" style="fill: none; stroke: #b0b0b0; stroke-width: 0.8; stroke-linecap: square"/>
     </g>
     <g id="line2d_10">
      <g>
       <use xlink:href="#mc0b2a97ea0" x="230.8608" y="298.944" style="stroke: #000000; stroke-width: 0.8"/>
      </g>
     </g>
     <g id="text_3">
      <!-- 4 -->
      <g transform="translate(225.452675 318.861344)scale(0.17 -0.17)">
       <defs>
        <path id="DejaVuSans-34" d="M 2419 4116 
L 825 1625 
L 2419 1625 
L 2419 4116 
z
M 2253 4666 
L 3047 4666 
L 3047 1625 
L 3713 1625 
L 3713 1100 
L 3047 1100 
L 3047 0 
L 2419 0 
L 2419 1100 
L 313 1100 
L 313 1709 
L 2253 4666 
z
" transform="scale(0.015625)"/>
       </defs>
       <use xlink:href="#DejaVuSans-34"/>
      </g>
     </g>
    </g>
    <g id="xtick_4">
     <g id="line2d_11">
      <path d="M 317.4912 298.944 
L 317.4912 6.912 
" clip-path="url(#pa51e405540)" style="fill: none; stroke: #b0b0b0; stroke-width: 0.8; stroke-linecap: square"/>
     </g>
     <g id="line2d_12">
      <g>
       <use xlink:href="#mc0b2a97ea0" x="317.4912" y="298.944" style="stroke: #000000; stroke-width: 0.8"/>
      </g>
     </g>
     <g id="text_4">
      <!-- 6 -->
      <g transform="translate(312.083075 318.861344)scale(0.17 -0.17)">
       <defs>
        <path id="DejaVuSans-36" d="M 2113 2584 
Q 1688 2584 1439 2293 
Q 1191 2003 1191 1497 
Q 1191 994 1439 701 
Q 1688 409 2113 409 
Q 2538 409 2786 701 
Q 3034 994 3034 1497 
Q 3034 2003 2786 2293 
Q 2538 2584 2113 2584 
z
M 3366 4563 
L 3366 3988 
Q 3128 4100 2886 4159 
Q 2644 4219 2406 4219 
Q 1781 4219 1451 3797 
Q 1122 3375 1075 2522 
Q 1259 2794 1537 2939 
Q 1816 3084 2150 3084 
Q 2853 3084 3261 2657 
Q 3669 2231 3669 1497 
Q 3669 778 3244 343 
Q 2819 -91 2113 -91 
Q 1303 -91 875 529 
Q 447 1150 447 2328 
Q 447 3434 972 4092 
Q 1497 4750 2381 4750 
Q 2619 4750 2861 4703 
Q 3103 4656 3366 4563 
z
" transform="scale(0.015625)"/>
       </defs>
       <use xlink:href="#DejaVuSans-36"/>
      </g>
     </g>
    </g>
    <g id="xtick_5">
     <g id="line2d_13">
      <path d="M 100.9152 298.944 
L 100.9152 6.912 
" clip-path="url(#pa51e405540)" style="fill: none; stroke: #b0b0b0; stroke-width: 0.8; stroke-linecap: square"/>
     </g>
     <g id="line2d_14">
      <defs>
       <path id="mc5d4f879fb" d="M 0 0 
L 0 2 
" style="stroke: #000000; stroke-width: 0.6"/>
      </defs>
      <g>
       <use xlink:href="#mc5d4f879fb" x="100.9152" y="298.944" style="stroke: #000000; stroke-width: 0.6"/>
      </g>
     </g>
    </g>
    <g id="xtick_6">
     <g id="line2d_15">
      <path d="M 187.5456 298.944 
L 187.5456 6.912 
" clip-path="url(#pa51e405540)" style="fill: none; stroke: #b0b0b0; stroke-width: 0.8; stroke-linecap: square"/>
     </g>
     <g id="line2d_16">
      <g>
       <use xlink:href="#mc5d4f879fb" x="187.5456" y="298.944" style="stroke: #000000; stroke-width: 0.6"/>
      </g>
     </g>
    </g>
    <g id="xtick_7">
     <g id="line2d_17">
      <path d="M 274.176 298.944 
L 274.176 6.912 
" clip-path="url(#pa51e405540)" style="fill: none; stroke: #b0b0b0; stroke-width: 0.8; stroke-linecap: square"/>
     </g>
     <g id="line2d_18">
      <g>
       <use xlink:href="#mc5d4f879fb" x="274.176" y="298.944" style="stroke: #000000; stroke-width: 0.6"/>
      </g>
     </g>
    </g>
    <g id="xtick_8">
     <g id="line2d_19">
      <path d="M 360.8064 298.944 
L 360.8064 6.912 
" clip-path="url(#pa51e405540)" style="fill: none; stroke: #b0b0b0; stroke-width: 0.8; stroke-linecap: square"/>
     </g>
     <g id="line2d_20">
      <g>
       <use xlink:href="#mc5d4f879fb" x="360.8064" y="298.944" style="stroke: #000000; stroke-width: 0.6"/>
      </g>
     </g>
    </g>
    <g id="text_5">
     <!-- log10(# f-evals / dimension) -->
     <g transform="translate(88.823278 339.314156)scale(0.17 -0.17)">
      <defs>
       <path id="DejaVuSans-6c" d="M 603 4863 
L 1178 4863 
L 1178 0 
L 603 0 
L 603 4863 
z
" transform="scale(0.015625)"/>
       <path id="DejaVuSans-6f" d="M 1959 3097 
Q 1497 3097 1228 2736 
Q 959 2375 959 1747 
Q 959 1119 1226 758 
Q 1494 397 1959 397 
Q 2419 397 2687 759 
Q 2956 1122 2956 1747 
Q 2956 2369 2687 2733 
Q 2419 3097 1959 3097 
z
M 1959 3584 
Q 2709 3584 3137 3096 
Q 3566 2609 3566 1747 
Q 3566 888 3137 398 
Q 2709 -91 1959 -91 
Q 1206 -91 779 398 
Q 353 888 353 1747 
Q 353 2609 779 3096 
Q 1206 3584 1959 3584 
z
" transform="scale(0.015625)"/>
       <path id="DejaVuSans-67" d="M 2906 1791 
Q 2906 2416 2648 2759 
Q 2391 3103 1925 3103 
Q 1463 3103 1205 2759 
Q 947 2416 947 1791 
Q 947 1169 1205 825 
Q 1463 481 1925 481 
Q 2391 481 2648 825 
Q 2906 1169 2906 1791 
z
M 3481 434 
Q 3481 -459 3084 -895 
Q 2688 -1331 1869 -1331 
Q 1566 -1331 1297 -1286 
Q 1028 -1241 775 -1147 
L 775 -588 
Q 1028 -725 1275 -790 
Q 1522 -856 1778 -856 
Q 2344 -856 2625 -561 
Q 2906 -266 2906 331 
L 2906 616 
Q 2728 306 2450 153 
Q 2172 0 1784 0 
Q 1141 0 747 490 
Q 353 981 353 1791 
Q 353 2603 747 3093 
Q 1141 3584 1784 3584 
Q 2172 3584 2450 3431 
Q 2728 3278 2906 2969 
L 2906 3500 
L 3481 3500 
L 3481 434 
z
" transform="scale(0.015625)"/>
       <path id="DejaVuSans-31" d="M 794 531 
L 1825 531 
L 1825 4091 
L 703 3866 
L 703 4441 
L 1819 4666 
L 2450 4666 
L 2450 531 
L 3481 531 
L 3481 0 
L 794 0 
L 794 531 
z
" transform="scale(0.015625)"/>
       <path id="DejaVuSans-28" d="M 1984 4856 
Q 1566 4138 1362 3434 
Q 1159 2731 1159 2009 
Q 1159 1288 1364 580 
Q 1569 -128 1984 -844 
L 1484 -844 
Q 1016 -109 783 600 
Q 550 1309 550 2009 
Q 550 2706 781 3412 
Q 1013 4119 1484 4856 
L 1984 4856 
z
" transform="scale(0.015625)"/>
       <path id="DejaVuSans-23" d="M 3272 2816 
L 2363 2816 
L 2100 1772 
L 3016 1772 
L 3272 2816 
z
M 2803 4594 
L 2478 3297 
L 3391 3297 
L 3719 4594 
L 4219 4594 
L 3897 3297 
L 4872 3297 
L 4872 2816 
L 3775 2816 
L 3519 1772 
L 4513 1772 
L 4513 1294 
L 3397 1294 
L 3072 0 
L 2572 0 
L 2894 1294 
L 1978 1294 
L 1656 0 
L 1153 0 
L 1478 1294 
L 494 1294 
L 494 1772 
L 1594 1772 
L 1856 2816 
L 850 2816 
L 850 3297 
L 1978 3297 
L 2297 4594 
L 2803 4594 
z
" transform="scale(0.015625)"/>
       <path id="DejaVuSans-20" transform="scale(0.015625)"/>
       <path id="DejaVuSans-66" d="M 2375 4863 
L 2375 4384 
L 1825 4384 
Q 1516 4384 1395 4259 
Q 1275 4134 1275 3809 
L 1275 3500 
L 2222 3500 
L 2222 3053 
L 1275 3053 
L 1275 0 
L 697 0 
L 697 3053 
L 147 3053 
L 147 3500 
L 697 3500 
L 697 3744 
Q 697 4328 969 4595 
Q 1241 4863 1831 4863 
L 2375 4863 
z
" transform="scale(0.015625)"/>
       <path id="DejaVuSans-2d" d="M 313 2009 
L 1997 2009 
L 1997 1497 
L 313 1497 
L 313 2009 
z
" transform="scale(0.015625)"/>
       <path id="DejaVuSans-65" d="M 3597 1894 
L 3597 1613 
L 953 1613 
Q 991 1019 1311 708 
Q 1631 397 2203 397 
Q 2534 397 2845 478 
Q 3156 559 3463 722 
L 3463 178 
Q 3153 47 2828 -22 
Q 2503 -91 2169 -91 
Q 1331 -91 842 396 
Q 353 884 353 1716 
Q 353 2575 817 3079 
Q 1281 3584 2069 3584 
Q 2775 3584 3186 3129 
Q 3597 2675 3597 1894 
z
M 3022 2063 
Q 3016 2534 2758 2815 
Q 2500 3097 2075 3097 
Q 1594 3097 1305 2825 
Q 1016 2553 972 2059 
L 3022 2063 
z
" transform="scale(0.015625)"/>
       <path id="DejaVuSans-76" d="M 191 3500 
L 800 3500 
L 1894 563 
L 2988 3500 
L 3597 3500 
L 2284 0 
L 1503 0 
L 191 3500 
z
" transform="scale(0.015625)"/>
       <path id="DejaVuSans-61" d="M 2194 1759 
Q 1497 1759 1228 1600 
Q 959 1441 959 1056 
Q 959 750 1161 570 
Q 1363 391 1709 391 
Q 2188 391 2477 730 
Q 2766 1069 2766 1631 
L 2766 1759 
L 2194 1759 
z
M 3341 1997 
L 3341 0 
L 2766 0 
L 2766 531 
Q 2569 213 2275 61 
Q 1981 -91 1556 -91 
Q 1019 -91 701 211 
Q 384 513 384 1019 
Q 384 1609 779 1909 
Q 1175 2209 1959 2209 
L 2766 2209 
L 2766 2266 
Q 2766 2663 2505 2880 
Q 2244 3097 1772 3097 
Q 1472 3097 1187 3025 
Q 903 2953 641 2809 
L 641 3341 
Q 956 3463 1253 3523 
Q 1550 3584 1831 3584 
Q 2591 3584 2966 3190 
Q 3341 2797 3341 1997 
z
" transform="scale(0.015625)"/>
       <path id="DejaVuSans-73" d="M 2834 3397 
L 2834 2853 
Q 2591 2978 2328 3040 
Q 2066 3103 1784 3103 
Q 1356 3103 1142 2972 
Q 928 2841 928 2578 
Q 928 2378 1081 2264 
Q 1234 2150 1697 2047 
L 1894 2003 
Q 2506 1872 2764 1633 
Q 3022 1394 3022 966 
Q 3022 478 2636 193 
Q 2250 -91 1575 -91 
Q 1294 -91 989 -36 
Q 684 19 347 128 
L 347 722 
Q 666 556 975 473 
Q 1284 391 1588 391 
Q 1994 391 2212 530 
Q 2431 669 2431 922 
Q 2431 1156 2273 1281 
Q 2116 1406 1581 1522 
L 1381 1569 
Q 847 1681 609 1914 
Q 372 2147 372 2553 
Q 372 3047 722 3315 
Q 1072 3584 1716 3584 
Q 2034 3584 2315 3537 
Q 2597 3491 2834 3397 
z
" transform="scale(0.015625)"/>
       <path id="DejaVuSans-2f" d="M 1625 4666 
L 2156 4666 
L 531 -594 
L 0 -594 
L 1625 4666 
z
" transform="scale(0.015625)"/>
       <path id="DejaVuSans-64" d="M 2906 2969 
L 2906 4863 
L 3481 4863 
L 3481 0 
L 2906 0 
L 2906 525 
Q 2725 213 2448 61 
Q 2172 -91 1784 -91 
Q 1150 -91 751 415 
Q 353 922 353 1747 
Q 353 2572 751 3078 
Q 1150 3584 1784 3584 
Q 2172 3584 2448 3432 
Q 2725 3281 2906 2969 
z
M 947 1747 
Q 947 1113 1208 752 
Q 1469 391 1925 391 
Q 2381 391 2643 752 
Q 2906 1113 2906 1747 
Q 2906 2381 2643 2742 
Q 2381 3103 1925 3103 
Q 1469 3103 1208 2742 
Q 947 2381 947 1747 
z
" transform="scale(0.015625)"/>
       <path id="DejaVuSans-69" d="M 603 3500 
L 1178 3500 
L 1178 0 
L 603 0 
L 603 3500 
z
M 603 4863 
L 1178 4863 
L 1178 4134 
L 603 4134 
L 603 4863 
z
" transform="scale(0.015625)"/>
       <path id="DejaVuSans-6d" d="M 3328 2828 
Q 3544 3216 3844 3400 
Q 4144 3584 4550 3584 
Q 5097 3584 5394 3201 
Q 5691 2819 5691 2113 
L 5691 0 
L 5113 0 
L 5113 2094 
Q 5113 2597 4934 2840 
Q 4756 3084 4391 3084 
Q 3944 3084 3684 2787 
Q 3425 2491 3425 1978 
L 3425 0 
L 2847 0 
L 2847 2094 
Q 2847 2600 2669 2842 
Q 2491 3084 2119 3084 
Q 1678 3084 1418 2786 
Q 1159 2488 1159 1978 
L 1159 0 
L 581 0 
L 581 3500 
L 1159 3500 
L 1159 2956 
Q 1356 3278 1631 3431 
Q 1906 3584 2284 3584 
Q 2666 3584 2933 3390 
Q 3200 3197 3328 2828 
z
" transform="scale(0.015625)"/>
       <path id="DejaVuSans-6e" d="M 3513 2113 
L 3513 0 
L 2938 0 
L 2938 2094 
Q 2938 2591 2744 2837 
Q 2550 3084 2163 3084 
Q 1697 3084 1428 2787 
Q 1159 2491 1159 1978 
L 1159 0 
L 581 0 
L 581 3500 
L 1159 3500 
L 1159 2956 
Q 1366 3272 1645 3428 
Q 1925 3584 2291 3584 
Q 2894 3584 3203 3211 
Q 3513 2838 3513 2113 
z
" transform="scale(0.015625)"/>
       <path id="DejaVuSans-29" d="M 513 4856 
L 1013 4856 
Q 1481 4119 1714 3412 
Q 1947 2706 1947 2009 
Q 1947 1309 1714 600 
Q 1481 -109 1013 -844 
L 513 -844 
Q 928 -128 1133 580 
Q 1338 1288 1338 2009 
Q 1338 2731 1133 3434 
Q 928 4138 513 4856 
z
" transform="scale(0.015625)"/>
      </defs>
      <use xlink:href="#DejaVuSans-6c"/>
      <use xlink:href="#DejaVuSans-6f" x="27.783203"/>
      <use xlink:href="#DejaVuSans-67" x="88.964844"/>
      <use xlink:href="#DejaVuSans-31" x="152.441406"/>
      <use xlink:href="#DejaVuSans-30" x="216.064453"/>
      <use xlink:href="#DejaVuSans-28" x="279.6875"/>
      <use xlink:href="#DejaVuSans-23" x="318.701172"/>
      <use xlink:href="#DejaVuSans-20" x="402.490234"/>
      <use xlink:href="#DejaVuSans-66" x="434.277344"/>
      <use xlink:href="#DejaVuSans-2d" x="463.982422"/>
      <use xlink:href="#DejaVuSans-65" x="500.066406"/>
      <use xlink:href="#DejaVuSans-76" x="561.589844"/>
      <use xlink:href="#DejaVuSans-61" x="620.769531"/>
      <use xlink:href="#DejaVuSans-6c" x="682.048828"/>
      <use xlink:href="#DejaVuSans-73" x="709.832031"/>
      <use xlink:href="#DejaVuSans-20" x="761.931641"/>
      <use xlink:href="#DejaVuSans-2f" x="793.71875"/>
      <use xlink:href="#DejaVuSans-20" x="827.410156"/>
      <use xlink:href="#DejaVuSans-64" x="859.197266"/>
      <use xlink:href="#DejaVuSans-69" x="922.673828"/>
      <use xlink:href="#DejaVuSans-6d" x="950.457031"/>
      <use xlink:href="#DejaVuSans-65" x="1047.869141"/>
      <use xlink:href="#DejaVuSans-6e" x="1109.392578"/>
      <use xlink:href="#DejaVuSans-73" x="1172.771484"/>
      <use xlink:href="#DejaVuSans-69" x="1224.871094"/>
      <use xlink:href="#DejaVuSans-6f" x="1252.654297"/>
      <use xlink:href="#DejaVuSans-6e" x="1313.835938"/>
      <use xlink:href="#DejaVuSans-29" x="1377.214844"/>
     </g>
    </g>
   </g>
   <g id="matplotlib.axis_2">
    <g id="ytick_1">
     <g id="line2d_21">
      <path d="M 57.6 298.944 
L 360.8064 298.944 
" clip-path="url(#pa51e405540)" style="fill: none; stroke: #b0b0b0; stroke-width: 0.8; stroke-linecap: square"/>
     </g>
     <g id="line2d_22">
      <defs>
       <path id="m72f33307a7" d="M 0 0 
L -3.5 0 
" style="stroke: #000000; stroke-width: 0.8"/>
      </defs>
      <g>
       <use xlink:href="#m72f33307a7" x="57.6" y="298.944" style="stroke: #000000; stroke-width: 0.8"/>
      </g>
     </g>
     <g id="text_6">
      <!-- 0.0 -->
      <g transform="translate(25.155 305.02275)scale(0.16 -0.16)">
       <defs>
        <path id="DejaVuSans-2e" d="M 684 794 
L 1344 794 
L 1344 0 
L 684 0 
L 684 794 
z
" transform="scale(0.015625)"/>
       </defs>
       <use xlink:href="#DejaVuSans-30"/>
       <use xlink:href="#DejaVuSans-2e" x="63.623047"/>
       <use xlink:href="#DejaVuSans-30" x="95.410156"/>
      </g>
     </g>
    </g>
    <g id="ytick_2">
     <g id="line2d_23">
      <path d="M 57.6 240.5376 
L 360.8064 240.5376 
" clip-path="url(#pa51e405540)" style="fill: none; stroke: #b0b0b0; stroke-width: 0.8; stroke-linecap: square"/>
     </g>
     <g id="line2d_24">
      <g>
       <use xlink:href="#m72f33307a7" x="57.6" y="240.5376" style="stroke: #000000; stroke-width: 0.8"/>
      </g>
     </g>
     <g id="text_7">
      <!-- 0.2 -->
      <g transform="translate(25.155 246.61635)scale(0.16 -0.16)">
       <use xlink:href="#DejaVuSans-30"/>
       <use xlink:href="#DejaVuSans-2e" x="63.623047"/>
       <use xlink:href="#DejaVuSans-32" x="95.410156"/>
      </g>
     </g>
    </g>
    <g id="ytick_3">
     <g id="line2d_25">
      <path d="M 57.6 182.1312 
L 360.8064 182.1312 
" clip-path="url(#pa51e405540)" style="fill: none; stroke: #b0b0b0; stroke-width: 0.8; stroke-linecap: square"/>
     </g>
     <g id="line2d_26">
      <g>
       <use xlink:href="#m72f33307a7" x="57.6" y="182.1312" style="stroke: #000000; stroke-width: 0.8"/>
      </g>
     </g>
     <g id="text_8">
      <!-- 0.4 -->
      <g transform="translate(25.155 188.20995)scale(0.16 -0.16)">
       <use xlink:href="#DejaVuSans-30"/>
       <use xlink:href="#DejaVuSans-2e" x="63.623047"/>
       <use xlink:href="#DejaVuSans-34" x="95.410156"/>
      </g>
     </g>
    </g>
    <g id="ytick_4">
     <g id="line2d_27">
      <path d="M 57.6 123.7248 
L 360.8064 123.7248 
" clip-path="url(#pa51e405540)" style="fill: none; stroke: #b0b0b0; stroke-width: 0.8; stroke-linecap: square"/>
     </g>
     <g id="line2d_28">
      <g>
       <use xlink:href="#m72f33307a7" x="57.6" y="123.7248" style="stroke: #000000; stroke-width: 0.8"/>
      </g>
     </g>
     <g id="text_9">
      <!-- 0.6 -->
      <g transform="translate(25.155 129.80355)scale(0.16 -0.16)">
       <use xlink:href="#DejaVuSans-30"/>
       <use xlink:href="#DejaVuSans-2e" x="63.623047"/>
       <use xlink:href="#DejaVuSans-36" x="95.410156"/>
      </g>
     </g>
    </g>
    <g id="ytick_5">
     <g id="line2d_29">
      <path d="M 57.6 65.3184 
L 360.8064 65.3184 
" clip-path="url(#pa51e405540)" style="fill: none; stroke: #b0b0b0; stroke-width: 0.8; stroke-linecap: square"/>
     </g>
     <g id="line2d_30">
      <g>
       <use xlink:href="#m72f33307a7" x="57.6" y="65.3184" style="stroke: #000000; stroke-width: 0.8"/>
      </g>
     </g>
     <g id="text_10">
      <!-- 0.8 -->
      <g transform="translate(25.155 71.39715)scale(0.16 -0.16)">
       <defs>
        <path id="DejaVuSans-38" d="M 2034 2216 
Q 1584 2216 1326 1975 
Q 1069 1734 1069 1313 
Q 1069 891 1326 650 
Q 1584 409 2034 409 
Q 2484 409 2743 651 
Q 3003 894 3003 1313 
Q 3003 1734 2745 1975 
Q 2488 2216 2034 2216 
z
M 1403 2484 
Q 997 2584 770 2862 
Q 544 3141 544 3541 
Q 544 4100 942 4425 
Q 1341 4750 2034 4750 
Q 2731 4750 3128 4425 
Q 3525 4100 3525 3541 
Q 3525 3141 3298 2862 
Q 3072 2584 2669 2484 
Q 3125 2378 3379 2068 
Q 3634 1759 3634 1313 
Q 3634 634 3220 271 
Q 2806 -91 2034 -91 
Q 1263 -91 848 271 
Q 434 634 434 1313 
Q 434 1759 690 2068 
Q 947 2378 1403 2484 
z
M 1172 3481 
Q 1172 3119 1398 2916 
Q 1625 2713 2034 2713 
Q 2441 2713 2670 2916 
Q 2900 3119 2900 3481 
Q 2900 3844 2670 4047 
Q 2441 4250 2034 4250 
Q 1625 4250 1398 4047 
Q 1172 3844 1172 3481 
z
" transform="scale(0.015625)"/>
       </defs>
       <use xlink:href="#DejaVuSans-30"/>
       <use xlink:href="#DejaVuSans-2e" x="63.623047"/>
       <use xlink:href="#DejaVuSans-38" x="95.410156"/>
      </g>
     </g>
    </g>
    <g id="ytick_6">
     <g id="line2d_31">
      <path d="M 57.6 6.912 
L 360.8064 6.912 
" clip-path="url(#pa51e405540)" style="fill: none; stroke: #b0b0b0; stroke-width: 0.8; stroke-linecap: square"/>
     </g>
     <g id="line2d_32">
      <g>
       <use xlink:href="#m72f33307a7" x="57.6" y="6.912" style="stroke: #000000; stroke-width: 0.8"/>
      </g>
     </g>
     <g id="text_11">
      <!-- 1.0 -->
      <g transform="translate(25.155 12.99075)scale(0.16 -0.16)">
       <use xlink:href="#DejaVuSans-31"/>
       <use xlink:href="#DejaVuSans-2e" x="63.623047"/>
       <use xlink:href="#DejaVuSans-30" x="95.410156"/>
      </g>
     </g>
    </g>
    <g id="text_12">
     <!-- Fraction of function,target pairs -->
     <g transform="translate(17.619531 287.313)rotate(-90)scale(0.17 -0.17)">
      <defs>
       <path id="DejaVuSans-46" d="M 628 4666 
L 3309 4666 
L 3309 4134 
L 1259 4134 
L 1259 2759 
L 3109 2759 
L 3109 2228 
L 1259 2228 
L 1259 0 
L 628 0 
L 628 4666 
z
" transform="scale(0.015625)"/>
       <path id="DejaVuSans-72" d="M 2631 2963 
Q 2534 3019 2420 3045 
Q 2306 3072 2169 3072 
Q 1681 3072 1420 2755 
Q 1159 2438 1159 1844 
L 1159 0 
L 581 0 
L 581 3500 
L 1159 3500 
L 1159 2956 
Q 1341 3275 1631 3429 
Q 1922 3584 2338 3584 
Q 2397 3584 2469 3576 
Q 2541 3569 2628 3553 
L 2631 2963 
z
" transform="scale(0.015625)"/>
       <path id="DejaVuSans-63" d="M 3122 3366 
L 3122 2828 
Q 2878 2963 2633 3030 
Q 2388 3097 2138 3097 
Q 1578 3097 1268 2742 
Q 959 2388 959 1747 
Q 959 1106 1268 751 
Q 1578 397 2138 397 
Q 2388 397 2633 464 
Q 2878 531 3122 666 
L 3122 134 
Q 2881 22 2623 -34 
Q 2366 -91 2075 -91 
Q 1284 -91 818 406 
Q 353 903 353 1747 
Q 353 2603 823 3093 
Q 1294 3584 2113 3584 
Q 2378 3584 2631 3529 
Q 2884 3475 3122 3366 
z
" transform="scale(0.015625)"/>
       <path id="DejaVuSans-74" d="M 1172 4494 
L 1172 3500 
L 2356 3500 
L 2356 3053 
L 1172 3053 
L 1172 1153 
Q 1172 725 1289 603 
Q 1406 481 1766 481 
L 2356 481 
L 2356 0 
L 1766 0 
Q 1100 0 847 248 
Q 594 497 594 1153 
L 594 3053 
L 172 3053 
L 172 3500 
L 594 3500 
L 594 4494 
L 1172 4494 
z
" transform="scale(0.015625)"/>
       <path id="DejaVuSans-75" d="M 544 1381 
L 544 3500 
L 1119 3500 
L 1119 1403 
Q 1119 906 1312 657 
Q 1506 409 1894 409 
Q 2359 409 2629 706 
Q 2900 1003 2900 1516 
L 2900 3500 
L 3475 3500 
L 3475 0 
L 2900 0 
L 2900 538 
Q 2691 219 2414 64 
Q 2138 -91 1772 -91 
Q 1169 -91 856 284 
Q 544 659 544 1381 
z
M 1991 3584 
L 1991 3584 
z
" transform="scale(0.015625)"/>
       <path id="DejaVuSans-2c" d="M 750 794 
L 1409 794 
L 1409 256 
L 897 -744 
L 494 -744 
L 750 256 
L 750 794 
z
" transform="scale(0.015625)"/>
       <path id="DejaVuSans-70" d="M 1159 525 
L 1159 -1331 
L 581 -1331 
L 581 3500 
L 1159 3500 
L 1159 2969 
Q 1341 3281 1617 3432 
Q 1894 3584 2278 3584 
Q 2916 3584 3314 3078 
Q 3713 2572 3713 1747 
Q 3713 922 3314 415 
Q 2916 -91 2278 -91 
Q 1894 -91 1617 61 
Q 1341 213 1159 525 
z
M 3116 1747 
Q 3116 2381 2855 2742 
Q 2594 3103 2138 3103 
Q 1681 3103 1420 2742 
Q 1159 2381 1159 1747 
Q 1159 1113 1420 752 
Q 1681 391 2138 391 
Q 2594 391 2855 752 
Q 3116 1113 3116 1747 
z
" transform="scale(0.015625)"/>
      </defs>
      <use xlink:href="#DejaVuSans-46"/>
      <use xlink:href="#DejaVuSans-72" x="50.269531"/>
      <use xlink:href="#DejaVuSans-61" x="91.382812"/>
      <use xlink:href="#DejaVuSans-63" x="152.662109"/>
      <use xlink:href="#DejaVuSans-74" x="207.642578"/>
      <use xlink:href="#DejaVuSans-69" x="246.851562"/>
      <use xlink:href="#DejaVuSans-6f" x="274.634766"/>
      <use xlink:href="#DejaVuSans-6e" x="335.816406"/>
      <use xlink:href="#DejaVuSans-20" x="399.195312"/>
      <use xlink:href="#DejaVuSans-6f" x="430.982422"/>
      <use xlink:href="#DejaVuSans-66" x="492.164062"/>
      <use xlink:href="#DejaVuSans-20" x="527.369141"/>
      <use xlink:href="#DejaVuSans-66" x="559.15625"/>
      <use xlink:href="#DejaVuSans-75" x="594.361328"/>
      <use xlink:href="#DejaVuSans-6e" x="657.740234"/>
      <use xlink:href="#DejaVuSans-63" x="721.119141"/>
      <use xlink:href="#DejaVuSans-74" x="776.099609"/>
      <use xlink:href="#DejaVuSans-69" x="815.308594"/>
      <use xlink:href="#DejaVuSans-6f" x="843.091797"/>
      <use xlink:href="#DejaVuSans-6e" x="904.273438"/>
      <use xlink:href="#DejaVuSans-2c" x="967.652344"/>
      <use xlink:href="#DejaVuSans-74" x="999.439453"/>
      <use xlink:href="#DejaVuSans-61" x="1038.648438"/>
      <use xlink:href="#DejaVuSans-72" x="1099.927734"/>
      <use xlink:href="#DejaVuSans-67" x="1139.291016"/>
      <use xlink:href="#DejaVuSans-65" x="1202.767578"/>
      <use xlink:href="#DejaVuSans-74" x="1264.291016"/>
      <use xlink:href="#DejaVuSans-20" x="1303.5"/>
      <use xlink:href="#DejaVuSans-70" x="1335.287109"/>
      <use xlink:href="#DejaVuSans-61" x="1398.763672"/>
      <use xlink:href="#DejaVuSans-69" x="1460.042969"/>
      <use xlink:href="#DejaVuSans-72" x="1487.826172"/>
      <use xlink:href="#DejaVuSans-73" x="1528.939453"/>
     </g>
    </g>
   </g>
   <g id="line2d_33">
    <defs>
     <path id="m3bb610d07f" d="M 0 1.5 
C 0.397805 1.5 0.77937 1.341951 1.06066 1.06066 
C 1.341951 0.77937 1.5 0.397805 1.5 0 
C 1.5 -0.397805 1.341951 -0.77937 1.06066 -1.06066 
C 0.77937 -1.341951 0.397805 -1.5 0 -1.5 
C -0.397805 -1.5 -0.77937 -1.341951 -1.06066 -1.06066 
C -1.341951 -0.77937 -1.5 -0.397805 -1.5 0 
C -1.5 0.397805 -1.341951 0.77937 -1.06066 1.06066 
C -0.77937 1.341951 -0.397805 1.5 0 1.5 
z
" style="stroke: #f5deb3"/>
    </defs>
    <g>
     <use xlink:href="#m3bb610d07f" x="247.702398" y="6.912" style="fill: #f5deb3; stroke: #f5deb3"/>
     <use xlink:href="#m3bb610d07f" x="247.702398" y="6.912" style="fill: #f5deb3; stroke: #f5deb3"/>
    </g>
   </g>
   <g id="line2d_34">
    <defs>
     <path id="m75f4c7561f" d="M 0 1.5 
C 0.397805 1.5 0.77937 1.341951 1.06066 1.06066 
C 1.341951 0.77937 1.5 0.397805 1.5 0 
C 1.5 -0.397805 1.341951 -0.77937 1.06066 -1.06066 
C 0.77937 -1.341951 0.397805 -1.5 0 -1.5 
C -0.397805 -1.5 -0.77937 -1.341951 -1.06066 -1.06066 
C -1.341951 -0.77937 -1.5 -0.397805 -1.5 0 
C -1.5 0.397805 -1.341951 0.77937 -1.06066 1.06066 
C -0.77937 1.341951 -0.397805 1.5 0 1.5 
z
" style="stroke: #000080"/>
    </defs>
    <g>
     <use xlink:href="#m75f4c7561f" x="352.724253" y="201.6" style="fill: #000080; stroke: #000080"/>
     <use xlink:href="#m75f4c7561f" x="352.724253" y="201.6" style="fill: #000080; stroke: #000080"/>
    </g>
   </g>
   <g id="line2d_35">
    <path d="M 27.323974 298.944 
L 27.323974 291.15648 
L 40.363149 291.15648 
L 40.363149 288.255247 
L 47.990577 288.255247 
L 47.990577 286.346541 
L 53.402323 286.346541 
L 53.402323 284.66688 
L 57.6 284.66688 
L 57.6 284.132442 
L 61.029752 284.132442 
L 61.029752 283.063567 
L 63.929565 283.063567 
L 63.929565 282.07104 
L 66.441498 282.07104 
L 66.441498 281.689299 
L 68.65718 281.689299 
L 68.65718 281.154861 
L 70.639174 281.154861 
L 70.639174 280.849468 
L 72.432107 280.849468 
L 72.432107 280.544075 
L 74.068926 280.544075 
L 74.068926 280.085986 
L 76.96874 280.009638 
L 76.96874 279.4752 
L 78.266603 279.4752 
L 78.266603 279.017111 
L 79.480672 279.017111 
L 79.480672 278.864414 
L 81.696354 278.864414 
L 81.696354 278.482673 
L 82.713442 278.482673 
L 82.713442 278.253628 
L 83.678349 278.253628 
L 83.678349 278.024584 
L 84.596168 278.024584 
L 84.596168 277.719191 
L 86.307488 277.719191 
L 86.307488 277.108405 
L 89.323782 277.032056 
L 89.323782 276.803012 
L 90.007914 276.803012 
L 90.007914 276.650315 
L 91.305777 276.650315 
L 91.305777 276.497619 
L 91.922605 276.497619 
L 91.922605 276.344922 
L 92.519847 276.344922 
L 92.519847 276.115878 
L 94.205591 276.039529 
L 94.205591 275.963181 
L 96.241256 275.886833 
L 96.241256 275.734136 
L 96.717523 275.734136 
L 96.717523 275.428744 
L 98.077987 275.352395 
L 98.077987 275.276047 
L 98.510456 275.276047 
L 98.510456 275.123351 
L 99.346662 275.047002 
L 99.346662 274.665261 
L 100.147275 274.665261 
L 100.147275 274.436216 
L 101.287718 274.359868 
L 101.287718 274.28352 
L 102.362957 274.207172 
L 102.362957 274.054475 
L 103.047088 274.054475 
L 103.047088 273.825431 
L 103.707211 273.749082 
L 103.707211 273.672734 
L 105.850679 273.596386 
L 105.850679 273.520038 
L 106.137884 273.520038 
L 106.137884 273.367341 
L 107.5116 273.367341 
L 107.5116 273.138296 
L 108.542628 273.061948 
L 108.542628 272.9856 
L 110.221204 272.909252 
L 110.221204 272.832904 
L 111.54963 272.756555 
L 111.54963 272.680207 
L 112.385837 272.603859 
L 112.385837 272.374814 
L 114.326893 272.298466 
L 114.326893 272.145769 
L 114.872193 272.145769 
L 114.872193 271.68768 
L 115.227139 271.68768 
L 115.227139 271.458635 
L 115.575511 271.458635 
L 115.575511 271.305939 
L 116.419219 271.229591 
L 116.419219 271.153242 
L 118.152051 271.076894 
L 118.152051 270.771501 
L 118.598196 270.695153 
L 118.598196 270.618805 
L 120.813877 270.542456 
L 120.813877 270.38976 
L 121.830966 270.38976 
L 121.830966 270.237064 
L 122.677931 270.160715 
L 122.677931 270.084367 
L 122.795872 270.084367 
L 122.795872 269.855322 
L 124.695386 269.778974 
L 124.695386 269.626278 
L 125.219419 269.549929 
L 125.219419 269.473581 
L 126.420564 269.397233 
L 126.420564 269.320885 
L 127.366067 269.244536 
L 127.366067 269.168188 
L 128.266313 269.09184 
L 128.266313 268.939144 
L 128.786481 268.939144 
L 128.786481 268.786447 
L 129.041269 268.786447 
L 129.041269 268.557402 
L 130.656987 268.481054 
L 130.656987 268.328358 
L 131.63737 268.252009 
L 131.63737 268.175661 
L 135.054871 268.099313 
L 135.054871 268.022965 
L 135.59842 267.946616 
L 135.59842 267.870268 
L 136.184497 267.79392 
L 136.184497 267.717572 
L 136.584151 267.641224 
L 136.584151 267.564875 
L 137.466966 267.488527 
L 137.466966 267.412179 
L 138.154948 267.412179 
L 138.154948 267.259482 
L 139.166565 267.183134 
L 139.166565 267.106786 
L 139.985636 267.030438 
L 139.985636 266.877741 
L 141.56737 266.801393 
L 141.56737 266.725045 
L 142.579895 266.648696 
L 142.579895 266.419652 
L 143.10641 266.419652 
L 143.10641 266.037911 
L 143.265494 266.037911 
L 143.265494 265.885214 
L 144.342932 265.808866 
L 144.342932 265.503473 
L 144.529002 265.427125 
L 144.529002 265.274428 
L 144.71325 265.274428 
L 144.71325 264.969035 
L 145.076419 264.892687 
L 145.184016 264.358249 
L 145.397382 264.281901 
L 145.503164 263.90016 
L 145.608355 263.823812 
L 145.712961 263.671115 
L 145.782376 263.594767 
L 145.886021 263.060329 
L 145.954802 263.060329 
L 145.989098 262.831285 
L 146.328666 262.754936 
L 146.429353 262.525892 
L 146.662213 262.449544 
L 146.761135 262.067802 
L 147.022411 261.991454 
L 147.119461 261.533365 
L 147.216013 261.533365 
L 147.312072 261.30432 
L 147.375841 261.30432 
L 147.407644 261.075275 
L 147.660152 260.998927 
L 147.691478 260.769882 
L 147.971093 260.693534 
L 148.001907 260.540838 
L 148.124658 260.464489 
L 148.155221 260.235445 
L 148.307296 260.159096 
L 148.397954 259.701007 
L 148.428077 259.701007 
L 148.518156 259.395614 
L 148.637595 259.319266 
L 148.726679 259.166569 
L 148.785835 259.090221 
L 148.874221 258.784828 
L 149.194798 258.70848 
L 149.252502 258.403087 
L 149.338728 258.403087 
L 149.42456 258.174042 
L 149.510002 258.174042 
L 149.595059 257.868649 
L 149.847944 257.868649 
L 149.931489 257.257864 
L 150.014665 257.181515 
L 150.069911 256.799774 
L 150.234685 256.723426 
L 150.262008 256.570729 
L 150.452162 256.494381 
L 150.559965 256.11264 
L 150.613636 256.036292 
L 150.72052 255.807247 
L 150.932483 255.730899 
L 151.011358 255.425506 
L 151.063758 255.425506 
L 151.063758 255.272809 
L 151.349377 255.196461 
L 151.349377 255.120113 
L 151.782431 255.043765 
L 151.782431 254.967416 
L 152.007722 254.891068 
L 152.007722 254.662024 
L 152.20574 254.585675 
L 152.20574 254.509327 
L 152.571498 254.509327 
L 152.571498 254.356631 
L 153.001222 254.280282 
L 153.001222 254.203934 
L 153.375128 254.127586 
L 153.421349 253.974889 
L 153.650761 253.898541 
L 153.696309 253.669496 
L 154.012098 253.593148 
L 154.056781 253.287755 
L 154.476059 253.211407 
L 154.476059 253.135059 
L 154.950144 253.058711 
L 154.950144 252.982362 
L 155.161749 252.906014 
L 155.161749 252.829666 
L 155.412574 252.753318 
L 155.412574 252.676969 
L 155.741887 252.600621 
L 155.741887 252.524273 
L 155.964992 252.447925 
L 155.964992 252.371576 
L 156.225294 252.295228 
L 156.324459 252.066184 
L 156.579868 251.989835 
L 156.657763 251.760791 
L 157.288377 251.684442 
L 157.288377 251.608094 
L 157.880333 251.531746 
L 157.880333 251.455398 
L 158.418868 251.379049 
L 158.418868 251.302701 
L 158.752135 251.226353 
L 158.752135 251.150005 
L 158.976805 251.073656 
L 158.976805 250.997308 
L 160.110173 250.92096 
L 160.110173 250.844612 
L 160.541906 250.768264 
L 160.541906 250.691915 
L 161.452196 250.615567 
L 161.512345 250.462871 
L 161.765853 250.386522 
L 161.765853 250.310174 
L 162.088932 250.233826 
L 162.132562 250.081129 
L 162.6625 250.004781 
L 162.704821 249.852085 
L 163.053839 249.775736 
L 163.095289 249.546692 
L 163.945293 249.470344 
L 164.050532 249.164951 
L 164.142137 249.088602 
L 164.194282 248.783209 
L 164.783793 248.706861 
L 164.783793 248.630513 
L 166.181484 248.554165 
L 166.181484 248.477816 
L 166.564105 248.401468 
L 166.564105 248.32512 
L 167.196106 248.248772 
L 167.240447 247.943379 
L 168.627414 247.867031 
L 168.627414 247.790682 
L 169.687218 247.714334 
L 169.706651 247.561638 
L 170.588827 247.485289 
L 170.588827 247.408941 
L 171.127772 247.332593 
L 171.136775 247.179896 
L 171.947136 247.103548 
L 172.015979 246.874504 
L 172.449034 246.798155 
L 172.449034 246.721807 
L 173.462145 246.645459 
L 173.533597 246.416414 
L 173.636328 246.340066 
L 173.699269 246.111021 
L 174.871565 246.034673 
L 174.871565 245.881976 
L 175.157205 245.805628 
L 175.157205 245.72928 
L 175.581246 245.652932 
L 175.630928 245.500235 
L 175.88438 245.423887 
L 175.912332 245.271191 
L 176.591226 245.194842 
L 176.59796 245.042146 
L 176.872001 245.042146 
L 176.872001 244.889449 
L 177.683669 244.813101 
L 177.766107 244.584056 
L 177.98002 244.507708 
L 178.036239 244.355012 
L 178.46176 244.278664 
L 178.467857 244.125967 
L 179.746203 244.049619 
L 179.831439 243.896922 
L 180.196396 243.820574 
L 180.25192 243.667878 
L 180.472392 243.591529 
L 180.570768 243.438833 
L 180.964544 243.438833 
L 180.964544 243.209788 
L 181.203239 243.13344 
L 181.229574 242.980744 
L 181.381598 242.980744 
L 181.490923 242.675351 
L 182.919829 242.599002 
L 182.919829 242.293609 
L 183.201566 242.217261 
L 183.201566 242.140913 
L 184.81744 242.064565 
L 184.81744 241.988216 
L 186.297388 241.988216 
L 186.297388 241.83552 
L 186.914345 241.759172 
L 186.914345 241.682824 
L 188.024783 241.606475 
L 188.116252 241.377431 
L 188.599088 241.301082 
L 188.599088 241.224734 
L 188.986388 241.148386 
L 188.986388 241.072038 
L 189.294016 240.995689 
L 189.294016 240.919341 
L 190.652806 240.842993 
L 190.655995 240.690296 
L 191.749295 240.613948 
L 191.749295 240.5376 
L 192.978028 240.461252 
L 192.978028 240.384904 
L 193.508827 240.308555 
L 193.517046 240.155859 
L 195.145418 240.079511 
L 195.145418 240.003162 
L 195.646097 239.926814 
L 195.648543 239.774118 
L 196.224144 239.697769 
L 196.269157 239.545073 
L 196.620785 239.468725 
L 196.620785 239.392376 
L 197.313872 239.316028 
L 197.313872 239.23968 
L 198.942482 239.163332 
L 198.942482 239.086984 
L 199.865774 239.010635 
L 199.865774 238.934287 
L 200.290912 238.857939 
L 200.290912 238.781591 
L 200.874117 238.705242 
L 200.874117 238.628894 
L 201.441581 238.552546 
L 201.441581 238.476198 
L 202.304027 238.399849 
L 202.401634 238.247153 
L 202.765308 238.170805 
L 202.793766 238.018108 
L 203.064465 237.94176 
L 203.077651 237.789064 
L 203.560755 237.712715 
L 203.560755 237.636367 
L 204.276061 237.560019 
L 204.276061 237.483671 
L 205.118048 237.407322 
L 205.119526 237.254626 
L 205.515912 237.178278 
L 205.515912 237.101929 
L 207.084218 237.025581 
L 207.173224 236.796536 
L 208.488573 236.720188 
L 208.488573 236.64384 
L 213.195855 236.567492 
L 213.195855 236.491144 
L 215.962964 236.414795 
L 215.962964 236.338447 
L 216.721584 236.262099 
L 216.823423 236.109402 
L 217.888476 236.033054 
L 217.888476 235.956706 
L 218.526117 235.956706 
L 218.526117 235.804009 
L 220.171933 235.727661 
L 220.171933 235.651313 
L 221.791589 235.574965 
L 221.791589 235.498616 
L 222.218698 235.422268 
L 222.297749 235.269572 
L 222.915036 235.193224 
L 222.915036 235.116875 
L 223.389983 235.040527 
L 223.389983 234.964179 
L 224.059598 234.887831 
L 224.059598 234.811482 
L 224.65132 234.735134 
L 224.65132 234.658786 
L 225.037246 234.582438 
L 225.077709 234.429741 
L 225.192987 234.353393 
L 225.282779 234.048 
L 225.742718 233.971652 
L 225.742718 233.895304 
L 226.135658 233.818955 
L 226.135658 233.742607 
L 227.679667 233.666259 
L 227.679667 233.589911 
L 227.945994 233.513562 
L 227.991186 233.360866 
L 228.68383 233.284518 
L 228.756762 233.131821 
L 229.186868 233.055473 
L 229.219739 232.902776 
L 229.445401 232.826428 
L 229.445401 232.75008 
L 229.970201 232.673732 
L 229.970201 232.597384 
L 230.294408 232.521035 
L 230.36716 232.368339 
L 230.69035 232.291991 
L 230.790313 232.139294 
L 231.605475 232.062946 
L 231.611983 231.910249 
L 231.919979 231.833901 
L 231.919979 231.757553 
L 232.871705 231.681205 
L 232.871705 231.604856 
L 233.591411 231.528508 
L 233.591411 231.45216 
L 234.784399 231.375812 
L 234.784399 231.299464 
L 235.510205 231.223115 
L 235.510205 231.146767 
L 236.112249 231.070419 
L 236.112249 230.994071 
L 238.265186 230.917722 
L 238.265186 230.841374 
L 239.323213 230.765026 
L 239.404852 230.612329 
L 241.449 230.535981 
L 241.449 230.459633 
L 241.620295 230.383285 
L 241.680507 230.230588 
L 241.745378 230.230588 
L 241.745378 230.077892 
L 242.401441 230.001544 
L 242.401441 229.925195 
L 242.827834 229.848847 
L 242.827834 229.772499 
L 243.412513 229.696151 
L 243.412513 229.619802 
L 243.887555 229.543454 
L 243.887555 229.467106 
L 245.912063 229.390758 
L 245.912063 229.314409 
L 246.066431 229.238061 
L 246.142558 229.085365 
L 246.345833 229.009016 
L 246.345833 228.932668 
L 251.67543 228.85632 
L 251.67543 228.779972 
L 253.343123 228.703624 
L 253.406443 228.550927 
L 254.926194 228.474579 
L 254.932055 228.321882 
L 260.350864 228.245534 
L 260.350864 228.169186 
L 260.69279 228.092838 
L 260.69279 228.016489 
L 262.852438 227.940141 
L 262.852438 227.863793 
L 263.647554 227.787445 
L 263.723386 227.634748 
L 264.502257 227.5584 
L 264.526026 227.405704 
L 266.176089 227.329355 
L 266.201457 227.176659 
L 266.442099 227.100311 
L 266.442099 227.023962 
L 267.969241 226.947614 
L 267.998471 226.794918 
L 268.358444 226.718569 
L 268.385131 226.565873 
L 270.737458 226.489525 
L 270.843126 226.336828 
L 271.341674 226.26048 
L 271.341674 226.184132 
L 271.48039 226.107784 
L 271.48039 226.031435 
L 272.520483 225.955087 
L 272.520483 225.878739 
L 274.201566 225.802391 
L 274.30285 224.428122 
L 274.355469 224.351774 
L 274.39664 223.970033 
L 274.587318 223.893685 
L 274.621079 223.359247 
L 274.722547 223.282899 
L 274.740154 223.053854 
L 275.039455 222.977506 
L 275.047467 222.748461 
L 275.312548 222.672113 
L 275.332937 222.519416 
L 275.472519 222.443068 
L 275.527712 221.221496 
L 275.700969 221.221496 
L 275.781114 220.916104 
L 275.844571 220.839755 
L 275.937953 220.458014 
L 276.173613 220.381666 
L 276.173613 220.228969 
L 276.511725 220.152621 
L 276.511725 220.076273 
L 276.673918 220.076273 
L 276.776196 219.77088 
L 277.282823 219.694532 
L 277.282823 219.618184 
L 277.431251 219.618184 
L 277.52538 219.389139 
L 277.712922 219.312791 
L 277.712922 219.236442 
L 279.952074 219.160094 
L 279.952074 219.083746 
L 281.643378 219.007398 
L 281.643378 218.931049 
L 283.647345 218.854701 
L 283.647345 218.778353 
L 285.296197 218.702005 
L 285.296197 218.549308 
L 285.696116 218.47296 
L 285.696116 218.320264 
L 285.915612 218.243915 
L 285.915612 218.167567 
L 286.544036 218.091219 
L 286.544036 218.014871 
L 287.271656 217.938522 
L 287.361466 217.404085 
L 287.411033 217.404085 
L 287.473593 216.945995 
L 287.800111 216.869647 
L 287.892974 216.640602 
L 288.419266 216.564254 
L 288.419266 216.487906 
L 288.913126 216.487906 
L 288.913126 216.335209 
L 289.46956 216.258861 
L 289.46956 216.182513 
L 291.316984 216.106165 
L 291.316984 216.029816 
L 292.13583 215.953468 
L 292.13583 215.800772 
L 292.572717 215.800772 
L 292.572717 215.648075 
L 292.769969 215.648075 
L 292.769969 215.419031 
L 294.881264 215.342682 
L 294.985241 215.037289 
L 295.03254 214.960941 
L 295.115068 214.808245 
L 295.259478 214.731896 
L 295.364783 213.815718 
L 295.483918 213.739369 
L 295.483918 213.663021 
L 295.801034 213.586673 
L 295.872087 213.433976 
L 299.474839 213.357628 
L 299.510149 213.204932 
L 300.303186 213.128584 
L 300.346151 212.899539 
L 300.47603 212.823191 
L 300.586952 212.288753 
L 300.596301 212.288753 
L 300.679751 211.372574 
L 301.069653 211.296226 
L 301.069653 211.219878 
L 303.123208 211.143529 
L 303.123208 210.990833 
L 304.63987 210.914485 
L 304.729568 210.380047 
L 304.785471 210.303699 
L 304.8136 210.074654 
L 306.010347 209.998306 
L 306.010347 209.921958 
L 306.487568 209.921958 
L 306.579573 209.692913 
L 307.908877 209.616565 
L 308.018503 209.234824 
L 308.078784 209.158475 
L 308.11342 208.547689 
L 309.921122 208.471341 
L 309.921122 208.394993 
L 310.898845 208.318645 
L 310.980741 207.478814 
L 311.251796 207.402466 
L 311.251796 207.326118 
L 312.54279 207.249769 
L 312.54279 207.173421 
L 313.467467 207.097073 
L 313.486808 206.79168 
L 313.658681 206.715332 
L 313.658681 206.562635 
L 315.600466 206.486287 
L 315.684881 206.104546 
L 315.875931 206.028198 
L 315.875931 205.951849 
L 317.630827 205.875501 
L 317.630827 205.722805 
L 319.409199 205.646456 
L 319.4249 205.417412 
L 320.281115 205.341064 
L 320.281115 205.264715 
L 321.035628 205.188367 
L 321.037379 204.882974 
L 322.517862 204.806626 
L 322.5586 204.424885 
L 323.558322 204.348536 
L 323.558322 204.272188 
L 324.608512 204.19584 
L 324.608512 203.966795 
L 325.233013 203.890447 
L 325.314261 203.737751 
L 327.555224 203.661402 
L 327.555224 203.585054 
L 328.625911 203.508706 
L 328.625911 203.432358 
L 330.14909 203.356009 
L 330.14909 203.279661 
L 331.977006 203.203313 
L 331.977006 203.126965 
L 334.018028 203.050616 
L 334.018305 202.821572 
L 336.227514 202.745224 
L 336.227514 202.668875 
L 336.909818 202.592527 
L 336.909818 202.516179 
L 338.204139 202.439831 
L 338.204139 202.363482 
L 341.09734 202.287134 
L 341.09734 202.210786 
L 342.140729 202.134438 
L 342.140729 202.058089 
L 343.604025 201.981741 
L 343.604025 201.905393 
L 348.167014 201.829045 
L 348.167135 201.676348 
L 360.8064 201.6 
L 360.8064 201.6 
" style="fill: none; stroke: #000080; stroke-width: 1.5; stroke-linecap: square"/>
   </g>
   <g id="line2d_36">
    <defs>
     <path id="m55bfb83de5" d="M 0 6 
C 1.591219 6 3.117479 5.367802 4.242641 4.242641 
C 5.367802 3.117479 6 1.591219 6 0 
C 6 -1.591219 5.367802 -3.117479 4.242641 -4.242641 
C 3.117479 -5.367802 1.591219 -6 0 -6 
C -1.591219 -6 -3.117479 -5.367802 -4.242641 -4.242641 
C -5.367802 -3.117479 -6 -1.591219 -6 0 
C -6 1.591219 -5.367802 3.117479 -4.242641 4.242641 
C -3.117479 5.367802 -1.591219 6 0 6 
z
" style="stroke: #000080; stroke-width: 1.5"/>
    </defs>
    <g>
     <use xlink:href="#m55bfb83de5" x="153.118868" y="254.127586" style="fill-opacity: 0; stroke: #000080; stroke-width: 1.5"/>
     <use xlink:href="#m55bfb83de5" x="225.323223" y="234.048" style="fill-opacity: 0; stroke: #000080; stroke-width: 1.5"/>
     <use xlink:href="#m55bfb83de5" x="307.908877" y="209.616565" style="fill-opacity: 0; stroke: #000080; stroke-width: 1.5"/>
     <use xlink:href="#m55bfb83de5" x="352.724253" y="201.6" style="fill-opacity: 0; stroke: #000080; stroke-width: 1.5"/>
     <use xlink:href="#m55bfb83de5" x="360.8064" y="201.6" style="fill-opacity: 0; stroke: #000080; stroke-width: 1.5"/>
    </g>
   </g>
   <g id="line2d_37">
    <path style="fill: none; stroke: #000080; stroke-width: 1.5; stroke-linecap: square"/>
    <g/>
   </g>
   <g id="line2d_38">
    <path d="M 274.176 225.802391 
" clip-path="url(#pa51e405540)" style="fill: none; stroke: #000080; stroke-width: 1.5; stroke-linecap: square"/>
    <defs>
     <path id="mbd85ecb6e1" d="M -12 12 
L 12 -12 
M -12 -12 
L 12 12 
" style="stroke: #000080"/>
    </defs>
    <g clip-path="url(#pa51e405540)">
     <use xlink:href="#mbd85ecb6e1" x="274.176" y="225.802391" style="fill: #000080; stroke: #000080"/>
    </g>
   </g>
   <g id="line2d_39">
    <defs>
     <path id="m0455989194" d="M 0 1.5 
C 0.397805 1.5 0.77937 1.341951 1.06066 1.06066 
C 1.341951 0.77937 1.5 0.397805 1.5 0 
C 1.5 -0.397805 1.341951 -0.77937 1.06066 -1.06066 
C 0.77937 -1.341951 0.397805 -1.5 0 -1.5 
C -0.397805 -1.5 -0.77937 -1.341951 -1.06066 -1.06066 
C -1.341951 -0.77937 -1.5 -0.397805 -1.5 0 
C -1.5 0.397805 -1.341951 0.77937 -1.06066 1.06066 
C -0.77937 1.341951 -0.397805 1.5 0 1.5 
z
" style="stroke: #ff00ff"/>
    </defs>
    <g>
     <use xlink:href="#m0455989194" x="360.239466" y="81.351529" style="fill: #ff00ff; stroke: #ff00ff"/>
     <use xlink:href="#m0455989194" x="360.239466" y="81.351529" style="fill: #ff00ff; stroke: #ff00ff"/>
    </g>
   </g>
   <g id="line2d_40">
    <path d="M 27.323974 298.944 
L 27.323974 291.232828 
L 40.363149 291.232828 
L 40.363149 286.728282 
L 47.990577 286.728282 
L 47.990577 285.277666 
L 53.402323 285.277666 
L 53.402323 283.979746 
L 57.6 283.979746 
L 57.6 283.598005 
L 61.029752 283.598005 
L 61.029752 282.834522 
L 63.929565 282.834522 
L 63.929565 282.147388 
L 66.441498 282.147388 
L 66.441498 281.918344 
L 68.65718 281.918344 
L 68.65718 281.689299 
L 70.639174 281.689299 
L 70.639174 281.307558 
L 72.432107 281.307558 
L 72.432107 281.002165 
L 74.068926 281.002165 
L 74.068926 280.467727 
L 75.574654 280.467727 
L 75.574654 280.009638 
L 76.96874 280.009638 
L 76.96874 279.780593 
L 78.266603 279.780593 
L 78.266603 279.169807 
L 79.480672 279.169807 
L 79.480672 279.017111 
L 80.621116 279.017111 
L 80.621116 278.864414 
L 81.696354 278.864414 
L 81.696354 278.711718 
L 82.713442 278.711718 
L 82.713442 278.024584 
L 83.678349 278.024584 
L 83.678349 277.719191 
L 84.596168 277.719191 
L 84.596168 277.413798 
L 86.307488 277.337449 
L 86.307488 277.184753 
L 87.1081 277.184753 
L 87.1081 276.803012 
L 88.613828 276.726664 
L 88.613828 276.650315 
L 89.323782 276.650315 
L 89.323782 276.421271 
L 91.305777 276.421271 
L 91.305777 275.886833 
L 91.922605 275.886833 
L 91.922605 275.657788 
L 93.66029 275.58144 
L 93.66029 275.276047 
L 95.250946 275.199699 
L 95.250946 275.123351 
L 96.717523 275.123351 
L 96.717523 274.970654 
L 98.077987 274.894306 
L 98.077987 274.817958 
L 98.510456 274.817958 
L 98.510456 274.665261 
L 98.933205 274.665261 
L 98.933205 274.512565 
L 99.346662 274.512565 
L 99.346662 274.359868 
L 100.147275 274.28352 
L 100.147275 274.207172 
L 101.653002 274.207172 
L 101.653002 273.978127 
L 102.011329 273.978127 
L 102.011329 273.749082 
L 103.047088 273.749082 
L 103.047088 273.596386 
L 103.707211 273.596386 
L 103.707211 273.443689 
L 104.344952 273.367341 
L 104.344952 273.214645 
L 105.559021 273.138296 
L 105.559021 273.061948 
L 105.850679 273.061948 
L 105.850679 272.909252 
L 106.699465 272.909252 
L 106.699465 272.680207 
L 107.774703 272.603859 
L 107.774703 272.527511 
L 108.791791 272.451162 
L 108.791791 272.222118 
L 109.990385 272.145769 
L 109.990385 271.993073 
L 110.449226 271.993073 
L 110.449226 271.840376 
L 110.674517 271.840376 
L 110.674517 271.68768 
L 112.385837 271.611332 
L 112.385837 271.534984 
L 113.765312 271.458635 
L 113.765312 271.382287 
L 115.917548 271.305939 
L 115.917548 271.229591 
L 119.319033 271.153242 
L 119.319033 271.000546 
L 119.459944 271.000546 
L 119.459944 270.847849 
L 120.28394 270.771501 
L 120.28394 270.695153 
L 121.455972 270.695153 
L 121.455972 270.38976 
L 123.374735 270.313412 
L 123.374735 270.237064 
L 124.156336 270.237064 
L 124.265389 270.008019 
L 124.801367 269.931671 
L 124.801367 269.702626 
L 126.420564 269.702626 
L 126.420564 269.320885 
L 126.899255 269.320885 
L 126.899255 269.168188 
L 128.528195 269.09184 
L 128.528195 269.015492 
L 128.956723 268.939144 
L 128.956723 268.862795 
L 129.375706 268.786447 
L 129.375706 268.710099 
L 130.887807 268.633751 
L 130.887807 268.481054 
L 131.71071 268.404706 
L 131.71071 268.328358 
L 132.287354 268.252009 
L 132.287354 268.175661 
L 132.984158 268.099313 
L 132.984158 268.022965 
L 135.478982 267.946616 
L 135.478982 267.870268 
L 135.835047 267.79392 
L 135.835047 267.717572 
L 137.998402 267.641224 
L 137.998402 267.412179 
L 139.313723 267.335831 
L 139.313723 267.259482 
L 139.891105 267.183134 
L 139.891105 267.106786 
L 140.312801 267.030438 
L 140.312801 266.877741 
L 141.173167 266.801393 
L 141.173167 266.725045 
L 141.65386 266.648696 
L 141.65386 266.572348 
L 143.38393 266.496 
L 143.38393 266.419652 
L 143.773417 266.419652 
L 143.811926 266.114259 
L 144.71325 266.037911 
L 144.71325 265.961562 
L 146.429353 265.885214 
L 146.429353 265.808866 
L 147.878349 265.732518 
L 147.878349 265.656169 
L 148.785835 265.579821 
L 148.785835 265.503473 
L 149.078856 265.427125 
L 149.078856 265.350776 
L 150.72052 265.350776 
L 150.72052 265.19808 
L 152.498913 265.121732 
L 152.595631 264.969035 
L 153.328795 264.892687 
L 153.328795 264.739991 
L 155.18278 264.663642 
L 155.18278 264.587294 
L 156.696589 264.510946 
L 156.696589 264.358249 
L 157.04247 264.358249 
L 157.04247 264.205553 
L 158.151527 264.129205 
L 158.2053 263.671115 
L 159.701388 263.594767 
L 159.701388 263.518419 
L 161.88398 263.518419 
L 161.88398 263.365722 
L 162.449456 263.289374 
L 162.449456 263.213026 
L 163.773012 263.213026 
L 163.773012 263.060329 
L 164.871904 262.983981 
L 164.871904 262.754936 
L 165.755007 262.678588 
L 165.755007 262.60224 
L 167.526142 262.525892 
L 167.526142 262.449544 
L 168.637696 262.373195 
L 168.740211 262.220499 
L 170.014887 262.220499 
L 170.053063 261.915106 
L 171.324847 261.838758 
L 171.324847 261.762409 
L 171.834724 261.686061 
L 171.834724 261.457016 
L 172.970575 261.380668 
L 172.970575 261.30432 
L 173.691413 261.227972 
L 173.77765 261.075275 
L 176.40849 260.998927 
L 176.40849 260.922579 
L 178.528716 260.846231 
L 178.528716 260.769882 
L 178.643809 260.769882 
L 178.643809 260.617186 
L 179.290807 260.540838 
L 179.290807 260.464489 
L 180.246375 260.388141 
L 180.246375 260.311793 
L 180.587114 260.235445 
L 180.587114 260.159096 
L 181.208509 260.082748 
L 181.318841 259.853704 
L 181.501302 259.777355 
L 181.501302 259.624659 
L 182.407753 259.548311 
L 182.407753 259.319266 
L 182.648457 259.242918 
L 182.697205 259.090221 
L 183.130337 259.013873 
L 183.130337 258.937525 
L 183.567671 258.861176 
L 183.567671 258.784828 
L 183.90397 258.784828 
L 183.90397 258.632132 
L 184.049515 258.632132 
L 184.049515 258.479435 
L 184.598699 258.403087 
L 184.616292 258.250391 
L 184.977687 258.174042 
L 185.063742 257.868649 
L 186.50132 257.792301 
L 186.50132 257.715953 
L 186.738443 257.639605 
L 186.738443 257.563256 
L 187.954967 257.486908 
L 187.954967 257.41056 
L 188.156358 257.334212 
L 188.156358 257.257864 
L 188.634629 257.181515 
L 188.634629 257.028819 
L 189.045539 257.028819 
L 189.045539 256.876122 
L 189.276866 256.799774 
L 189.276866 256.647078 
L 189.694277 256.570729 
L 189.694277 256.494381 
L 190.827414 256.418033 
L 190.827414 256.341685 
L 191.598246 256.341685 
L 191.598246 256.188988 
L 192.133491 256.11264 
L 192.148226 255.959944 
L 192.768284 255.883595 
L 192.768284 255.807247 
L 193.859034 255.730899 
L 193.859034 255.654551 
L 194.10487 255.578202 
L 194.208122 255.349158 
L 194.386805 255.272809 
L 194.394649 255.120113 
L 194.58711 255.120113 
L 194.594871 254.662024 
L 194.751989 254.662024 
L 194.751989 254.509327 
L 194.925604 254.509327 
L 194.953539 254.280282 
L 195.377585 254.203934 
L 195.469162 253.974889 
L 195.84318 253.898541 
L 195.944565 253.593148 
L 196.715764 253.5168 
L 196.715764 253.440452 
L 197.10454 253.364104 
L 197.138462 253.058711 
L 197.325061 252.982362 
L 197.409878 252.753318 
L 197.681825 252.676969 
L 197.681825 252.600621 
L 198.312102 252.524273 
L 198.411606 252.295228 
L 198.787891 252.295228 
L 198.79203 252.066184 
L 199.681153 251.989835 
L 199.681153 251.913487 
L 200.093066 251.837139 
L 200.189368 251.531746 
L 200.601697 251.455398 
L 200.601697 251.302701 
L 201.464932 251.226353 
L 201.464932 251.073656 
L 201.943488 250.997308 
L 201.943488 250.92096 
L 202.374286 250.844612 
L 202.483438 250.691915 
L 202.488539 250.691915 
L 202.515721 250.310174 
L 202.72338 250.233826 
L 202.808815 250.081129 
L 203.103995 250.004781 
L 203.207369 249.775736 
L 203.357315 249.699388 
L 203.467381 249.393995 
L 203.781074 249.317647 
L 203.800111 249.088602 
L 203.942276 249.088602 
L 204.044287 248.859558 
L 204.1255 248.783209 
L 204.1255 248.706861 
L 204.572095 248.706861 
L 204.579703 248.477816 
L 204.838051 248.477816 
L 204.94876 248.248772 
L 205.29315 248.172424 
L 205.299007 248.019727 
L 205.781789 247.943379 
L 205.838785 247.637986 
L 206.418768 247.561638 
L 206.418768 247.485289 
L 206.776782 247.408941 
L 206.779489 247.256245 
L 207.148026 247.179896 
L 207.178525 247.0272 
L 207.296077 246.950852 
L 207.342105 246.721807 
L 207.445584 246.721807 
L 207.492551 246.416414 
L 207.657309 246.340066 
L 207.765496 246.111021 
L 207.931711 246.111021 
L 207.931711 245.958325 
L 208.227246 245.881976 
L 208.227246 245.805628 
L 208.657123 245.72928 
L 208.707272 245.576584 
L 208.904126 245.500235 
L 208.936736 245.347539 
L 209.515416 245.271191 
L 209.623927 245.042146 
L 209.738756 244.965798 
L 209.786107 244.736753 
L 210.197959 244.660405 
L 210.197959 244.584056 
L 210.326167 244.507708 
L 210.326167 244.43136 
L 210.717707 244.355012 
L 210.717707 244.202315 
L 210.830433 244.202315 
L 210.830433 244.049619 
L 211.144237 243.973271 
L 211.144237 243.896922 
L 211.360826 243.820574 
L 211.439163 243.515181 
L 211.490856 243.438833 
L 211.558161 243.209788 
L 211.842582 243.13344 
L 211.886992 242.980744 
L 212.110538 242.904395 
L 212.209159 242.675351 
L 212.297175 242.599002 
L 212.352605 242.446306 
L 212.722301 242.369958 
L 212.8109 242.064565 
L 213.045145 241.988216 
L 213.045145 241.911868 
L 213.554217 241.83552 
L 213.635232 241.606475 
L 213.765443 241.530127 
L 213.864137 241.377431 
L 214.104049 241.301082 
L 214.106799 241.148386 
L 214.320103 241.072038 
L 214.407819 240.842993 
L 214.712978 240.842993 
L 214.793583 240.5376 
L 214.952888 240.461252 
L 215.051664 240.155859 
L 215.100424 240.079511 
L 215.13691 239.926814 
L 215.342343 239.850466 
L 215.342343 239.774118 
L 215.468968 239.697769 
L 215.468968 239.621421 
L 215.714642 239.545073 
L 215.781853 239.316028 
L 216.547665 239.23968 
L 216.55491 239.086984 
L 216.867013 239.010635 
L 216.867013 238.934287 
L 217.673562 238.857939 
L 217.673562 238.781591 
L 217.818615 238.705242 
L 217.885476 238.476198 
L 217.930417 238.476198 
L 217.994646 238.094456 
L 218.067571 238.018108 
L 218.118006 237.865412 
L 218.230993 237.789064 
L 218.245712 237.636367 
L 218.344769 237.636367 
L 218.437482 237.178278 
L 218.569555 237.101929 
L 218.678432 236.949233 
L 218.739444 236.872885 
L 218.765941 236.720188 
L 219.334761 236.64384 
L 219.334761 236.567492 
L 219.70668 236.491144 
L 219.70668 236.338447 
L 219.946122 236.262099 
L 220.01857 236.109402 
L 220.195825 236.033054 
L 220.295049 235.727661 
L 220.428505 235.727661 
L 220.428505 235.498616 
L 220.753874 235.422268 
L 220.762243 235.040527 
L 221.129965 234.964179 
L 221.215601 234.811482 
L 221.310853 234.735134 
L 221.400026 234.200696 
L 221.490637 234.200696 
L 221.490637 234.048 
L 221.681594 233.971652 
L 221.770251 233.818955 
L 221.817771 233.818955 
L 221.821421 233.589911 
L 222.266881 233.513562 
L 222.266881 233.437214 
L 222.686356 233.360866 
L 222.686356 233.284518 
L 222.850064 233.284518 
L 222.850064 233.131821 
L 223.013502 233.055473 
L 223.101796 232.902776 
L 223.152308 232.826428 
L 223.245031 232.444687 
L 223.421857 232.368339 
L 223.455908 232.062946 
L 223.749196 231.986598 
L 223.800739 231.757553 
L 223.885423 231.757553 
L 223.885423 231.604856 
L 224.095749 231.528508 
L 224.162474 231.299464 
L 224.302151 231.223115 
L 224.390981 230.994071 
L 224.448735 230.994071 
L 224.558454 230.459633 
L 224.734874 230.383285 
L 224.740604 230.230588 
L 224.884858 230.15424 
L 224.89726 229.925195 
L 225.171108 229.848847 
L 225.171108 229.772499 
L 226.159825 229.696151 
L 226.171897 229.467106 
L 226.352534 229.390758 
L 226.422687 229.238061 
L 226.962651 229.161713 
L 227.031953 229.009016 
L 227.187182 228.932668 
L 227.296176 228.779972 
L 227.514537 228.703624 
L 227.532058 228.474579 
L 227.799583 228.398231 
L 227.905536 227.940141 
L 228.022712 227.940141 
L 228.128725 227.482052 
L 228.224624 227.405704 
L 228.334242 227.023962 
L 228.400823 226.947614 
L 228.430814 226.794918 
L 228.526041 226.794918 
L 228.616126 226.489525 
L 228.772324 226.413176 
L 228.772324 226.336828 
L 228.906375 226.336828 
L 228.906375 226.184132 
L 229.085843 226.107784 
L 229.085843 226.031435 
L 229.358803 225.955087 
L 229.440939 225.649694 
L 229.48754 225.573346 
L 229.588852 225.420649 
L 229.666785 225.344301 
L 229.68041 225.115256 
L 229.795828 225.115256 
L 229.846324 224.733515 
L 230.132807 224.733515 
L 230.132807 224.580819 
L 230.31727 224.504471 
L 230.31727 224.428122 
L 230.735096 224.351774 
L 230.823516 223.970033 
L 230.945262 223.893685 
L 231.015172 223.588292 
L 231.070318 223.588292 
L 231.165696 223.282899 
L 231.25212 223.206551 
L 231.25212 223.130202 
L 231.522116 223.053854 
L 231.522116 222.977506 
L 231.714011 222.901158 
L 231.714011 222.824809 
L 231.994868 222.748461 
L 232.104005 222.519416 
L 232.180271 222.443068 
L 232.180271 222.36672 
L 232.483317 222.290372 
L 232.558751 222.061327 
L 232.639704 221.984979 
L 232.739386 221.526889 
L 233.402056 221.450541 
L 233.402056 221.374193 
L 233.620999 221.297845 
L 233.700428 221.145148 
L 233.865023 221.0688 
L 233.973108 220.839755 
L 234.223022 220.763407 
L 234.307474 220.458014 
L 234.853598 220.381666 
L 234.930727 220.228969 
L 235.102669 220.152621 
L 235.182673 219.77088 
L 235.368037 219.694532 
L 235.45046 219.312791 
L 235.564488 219.236442 
L 235.601662 219.083746 
L 235.745564 219.007398 
L 235.848878 218.778353 
L 235.88607 218.702005 
L 235.936121 218.549308 
L 236.369177 218.47296 
L 236.369177 218.396612 
L 236.492015 218.396612 
L 236.588823 217.862174 
L 236.661656 217.785826 
L 236.772715 217.327736 
L 236.951017 217.251388 
L 237.054973 217.022344 
L 237.108491 216.945995 
L 237.215609 216.716951 
L 237.246447 216.640602 
L 237.246447 216.564254 
L 237.39882 216.487906 
L 237.475208 215.87712 
L 237.806326 215.800772 
L 237.810486 215.648075 
L 237.964309 215.571727 
L 237.964309 215.495379 
L 238.236991 215.419031 
L 238.295618 215.113638 
L 238.415349 215.113638 
L 238.517301 214.808245 
L 238.595524 214.731896 
L 238.628664 214.5792 
L 238.928003 214.502852 
L 238.928003 214.426504 
L 239.235434 214.350155 
L 239.334966 213.968414 
L 239.714991 213.892066 
L 239.822075 213.663021 
L 239.945272 213.586673 
L 239.945272 213.510325 
L 240.125465 213.433976 
L 240.13374 213.28128 
L 240.358528 213.204932 
L 240.467439 212.594146 
L 240.673117 212.517798 
L 240.673117 212.441449 
L 240.838314 212.365101 
L 240.892912 212.212405 
L 240.996147 212.136056 
L 241.072165 211.907012 
L 241.212004 211.830664 
L 241.212004 211.754315 
L 241.400292 211.677967 
L 241.400292 211.601619 
L 241.628151 211.525271 
L 241.697644 211.143529 
L 241.783099 211.067181 
L 241.870682 210.838136 
L 242.075751 210.761788 
L 242.112609 210.532744 
L 242.302175 210.456395 
L 242.365961 210.151002 
L 242.521452 210.074654 
L 242.588939 209.921958 
L 242.658395 209.845609 
L 242.767795 209.540216 
L 242.896217 209.463868 
L 242.989641 209.234824 
L 243.084176 209.234824 
L 243.13636 208.700386 
L 243.255681 208.624038 
L 243.296517 208.471341 
L 243.375217 208.394993 
L 243.444919 207.402466 
L 243.748498 207.326118 
L 243.856658 207.020725 
L 244.100003 206.944376 
L 244.165405 206.715332 
L 244.409574 206.638984 
L 244.519472 206.180894 
L 244.530026 206.104546 
L 244.542211 205.951849 
L 244.838385 205.875501 
L 244.838385 205.799153 
L 245.097518 205.722805 
L 245.193121 205.49376 
L 245.344944 205.417412 
L 245.410679 204.653929 
L 245.61356 204.653929 
L 245.665353 204.424885 
L 245.788772 204.348536 
L 245.89549 204.043144 
L 246.164419 203.966795 
L 246.261734 203.661402 
L 246.392521 203.585054 
L 246.476695 203.356009 
L 246.69685 203.279661 
L 246.69685 203.203313 
L 246.865031 203.126965 
L 246.929195 202.821572 
L 247.30965 202.745224 
L 247.378885 202.592527 
L 247.496253 202.516179 
L 247.588169 201.905393 
L 247.632802 201.829045 
L 247.662859 201.676348 
L 247.866434 201.6 
L 247.889882 201.447304 
L 248.161502 201.370955 
L 248.266645 200.531125 
L 248.49214 200.454776 
L 248.569791 200.30208 
L 248.706661 200.225732 
L 248.776321 199.996687 
L 248.988362 199.920339 
L 249.078714 199.385901 
L 249.423645 199.309553 
L 249.44313 199.156856 
L 249.572004 199.080508 
L 249.591057 198.927812 
L 249.777374 198.851464 
L 249.777374 198.546071 
L 249.946729 198.469722 
L 250.050111 198.164329 
L 250.150769 198.087981 
L 250.150769 198.011633 
L 250.27986 197.935285 
L 250.388496 197.629892 
L 250.439988 197.553544 
L 250.481664 197.324499 
L 250.629307 197.248151 
L 250.68867 196.866409 
L 250.819865 196.790061 
L 250.909112 196.40832 
L 251.000775 196.331972 
L 251.011477 196.026579 
L 251.298394 195.950231 
L 251.407758 195.568489 
L 251.877161 195.492141 
L 251.978935 195.034052 
L 252.053473 194.957704 
L 252.147385 194.805007 
L 252.296893 194.728659 
L 252.406603 194.423266 
L 252.667846 194.346918 
L 252.732417 194.194221 
L 253.016685 194.117873 
L 253.036834 193.736132 
L 253.192094 193.659784 
L 253.25947 193.507087 
L 253.359627 193.430739 
L 253.455519 193.278042 
L 253.484135 193.201694 
L 253.492158 193.048998 
L 254.08213 192.972649 
L 254.08213 192.896301 
L 254.30438 192.819953 
L 254.30438 192.743605 
L 254.471774 192.667256 
L 254.474562 192.51456 
L 254.882177 192.438212 
L 254.977627 192.056471 
L 255.132846 191.980122 
L 255.132846 191.903774 
L 255.403095 191.827426 
L 255.403095 191.751078 
L 255.732201 191.674729 
L 255.732201 191.598381 
L 255.942236 191.598381 
L 256.01657 190.987595 
L 256.070233 190.987595 
L 256.15711 190.758551 
L 256.583659 190.682202 
L 256.644618 190.529506 
L 256.718422 190.453158 
L 256.718422 190.376809 
L 256.928141 190.376809 
L 256.928141 190.224113 
L 257.420532 190.147765 
L 257.420532 190.071416 
L 257.635937 189.995068 
L 257.635937 189.91872 
L 257.977512 189.842372 
L 258.067195 189.689675 
L 258.155129 189.613327 
L 258.195556 189.460631 
L 258.62988 189.384282 
L 258.62988 189.307934 
L 259.214932 189.231586 
L 259.214932 189.155238 
L 259.662844 189.078889 
L 259.662844 189.002541 
L 260.066677 188.926193 
L 260.066677 188.849845 
L 260.334145 188.773496 
L 260.351727 188.6208 
L 260.814356 188.544452 
L 260.814356 188.468104 
L 261.004909 188.391755 
L 261.004909 188.315407 
L 261.217841 188.315407 
L 261.217841 188.162711 
L 261.498422 188.086362 
L 261.498422 188.010014 
L 261.79618 188.010014 
L 261.860152 187.780969 
L 262.578868 187.704621 
L 262.578868 187.628273 
L 262.724451 187.551925 
L 262.724451 187.475576 
L 263.093491 187.475576 
L 263.093491 187.246532 
L 263.423206 187.170184 
L 263.423206 187.093835 
L 263.748879 187.017487 
L 263.761515 186.864791 
L 264.41706 186.788442 
L 264.41706 186.712094 
L 264.984164 186.712094 
L 264.984164 186.559398 
L 265.761532 186.483049 
L 265.761532 186.406701 
L 266.199733 186.330353 
L 266.199733 186.254005 
L 268.846244 186.177656 
L 268.846244 186.101308 
L 272.969433 186.02496 
L 272.969433 185.948612 
L 275.783428 185.872264 
L 275.872164 185.719567 
L 276.285839 185.719567 
L 276.285839 185.566871 
L 276.501754 185.490522 
L 276.611846 185.261478 
L 276.637049 185.261478 
L 276.637049 185.032433 
L 276.842268 184.956085 
L 276.931845 184.72704 
L 277.09511 184.650692 
L 277.196636 184.497995 
L 277.248216 184.421647 
L 277.349017 183.963558 
L 277.460342 183.887209 
L 277.566363 183.352772 
L 277.5885 183.276424 
L 277.662852 183.047379 
L 277.757076 182.971031 
L 277.86639 182.436593 
L 277.901978 182.436593 
L 277.967478 182.054852 
L 278.085209 181.978504 
L 278.16612 181.596762 
L 278.296043 181.596762 
L 278.391276 180.985976 
L 278.464175 180.909628 
L 278.568694 180.298842 
L 278.620394 180.298842 
L 278.630432 179.993449 
L 278.740381 179.917101 
L 278.820497 179.229967 
L 278.89278 179.153619 
L 278.982861 178.542833 
L 279.032072 178.542833 
L 279.055076 178.084744 
L 279.253533 178.008395 
L 279.354653 177.321261 
L 279.378408 177.244913 
L 279.441019 177.015868 
L 279.52566 177.015868 
L 279.633835 176.405082 
L 279.84853 176.328734 
L 279.95415 176.023341 
L 280.008587 175.946993 
L 280.034865 175.717948 
L 280.226246 175.6416 
L 280.318783 175.030814 
L 280.342761 175.030814 
L 280.342761 174.878118 
L 280.478807 174.801769 
L 280.559102 174.267332 
L 280.70062 174.190984 
L 280.70062 174.114635 
L 280.863903 174.038287 
L 280.928759 173.732894 
L 280.986686 173.732894 
L 281.059525 173.503849 
L 281.239026 173.427501 
L 281.239026 173.351153 
L 281.370817 173.351153 
L 281.370817 173.198456 
L 281.570433 173.198456 
L 281.661911 172.358626 
L 281.811979 172.358626 
L 281.883295 172.053233 
L 282.078069 171.976885 
L 282.099858 171.595144 
L 282.262379 171.595144 
L 282.262379 171.442447 
L 282.387361 171.442447 
L 282.399053 171.213402 
L 282.647552 171.137054 
L 282.703801 170.984358 
L 282.765411 170.984358 
L 282.77001 170.526268 
L 283.224365 170.44992 
L 283.224365 170.297224 
L 283.522955 170.220875 
L 283.522955 170.144527 
L 283.69463 170.068179 
L 283.69463 169.991831 
L 284.172852 169.991831 
L 284.172852 169.762786 
L 286.901162 169.686438 
L 286.901162 169.610089 
L 287.906143 169.610089 
L 287.906143 169.457393 
L 288.462517 169.381045 
L 288.523015 168.846607 
L 288.612892 168.770259 
L 288.636088 168.617562 
L 288.767913 168.617562 
L 288.867023 168.235821 
L 288.95308 168.159473 
L 289.007765 167.548687 
L 289.137155 167.548687 
L 289.24198 166.937901 
L 289.304504 166.861553 
L 289.37427 166.479812 
L 289.435722 166.479812 
L 289.531799 165.487285 
L 289.670017 165.410936 
L 289.780623 164.800151 
L 289.80003 164.723802 
L 289.895036 163.807624 
L 289.959106 163.731275 
L 290.029891 163.349534 
L 290.113623 163.273186 
L 290.180521 162.509704 
L 290.422788 162.433355 
L 290.51586 162.204311 
L 290.549072 162.204311 
L 290.583374 161.669873 
L 290.662428 161.669873 
L 290.742493 161.059087 
L 290.903122 160.982739 
L 290.918501 160.830042 
L 291.186676 160.830042 
L 291.260024 160.448301 
L 291.450091 160.371953 
L 291.548945 160.06656 
L 291.622727 159.990212 
L 291.622727 159.837515 
L 291.772706 159.837515 
L 291.882906 159.455774 
L 292.026712 159.379426 
L 292.026712 159.303078 
L 292.17739 159.303078 
L 292.17739 159.150381 
L 292.308556 159.150381 
L 292.396127 158.921336 
L 292.493342 158.921336 
L 292.600091 158.615944 
L 293.285812 158.539595 
L 293.285812 158.386899 
L 295.691619 158.310551 
L 295.740656 158.157854 
L 295.954295 158.081506 
L 296.062491 157.623416 
L 296.083518 157.547068 
L 296.125514 157.165327 
L 296.296211 157.088979 
L 296.381259 156.707238 
L 296.434538 156.630889 
L 296.538686 156.020104 
L 296.568023 156.020104 
L 296.661488 155.256621 
L 296.69492 155.180273 
L 296.788968 154.187746 
L 296.84786 154.111398 
L 296.894259 153.806005 
L 296.994087 153.729656 
L 297.093411 153.424264 
L 297.157115 153.347915 
L 297.265807 152.889826 
L 297.410934 152.813478 
L 297.410934 152.737129 
L 297.607512 152.660781 
L 297.656202 152.508085 
L 297.821955 152.431736 
L 297.905678 151.897299 
L 298.022536 151.897299 
L 298.101651 151.439209 
L 298.207111 151.362861 
L 298.313704 151.057468 
L 298.619702 150.98112 
L 298.619702 150.752075 
L 300.020323 150.675727 
L 300.020323 150.599379 
L 300.957943 150.523031 
L 301.01641 150.293986 
L 301.152351 150.217638 
L 301.257227 149.225111 
L 301.313697 149.148762 
L 301.381101 148.767021 
L 301.438641 148.767021 
L 301.505661 148.38528 
L 301.549752 148.38528 
L 301.646267 147.392753 
L 301.719872 147.316405 
L 301.829159 146.552922 
L 301.928179 146.476574 
L 302.037668 145.78944 
L 302.099496 145.713092 
L 302.183555 145.560395 
L 302.337196 145.484047 
L 302.382937 145.178654 
L 302.505104 145.102306 
L 302.614665 144.720565 
L 302.676729 144.720565 
L 302.723014 144.415172 
L 302.849761 144.338824 
L 302.933093 144.186127 
L 303.007253 144.186127 
L 303.112109 143.728038 
L 303.603635 143.651689 
L 303.603635 143.575341 
L 304.374981 143.575341 
L 304.374981 143.422645 
L 305.032406 143.422645 
L 305.134615 142.811859 
L 305.189112 142.811859 
L 305.26269 142.277421 
L 305.367895 142.201073 
L 305.474703 141.742984 
L 305.489135 141.742984 
L 305.594253 140.674108 
L 305.64286 140.59776 
L 305.739369 139.910626 
L 305.83054 139.834278 
L 305.916608 139.070795 
L 306.025517 138.994447 
L 306.103291 138.841751 
L 306.264286 138.765402 
L 306.35009 138.383661 
L 306.46648 138.307313 
L 306.569121 137.849224 
L 306.699745 137.772875 
L 306.785956 137.543831 
L 308.41089 137.543831 
L 308.510816 137.009393 
L 308.540011 136.933045 
L 308.642856 136.704 
L 308.665816 136.704 
L 308.762599 136.093214 
L 308.833867 136.016866 
L 308.911689 135.329732 
L 308.949513 135.253384 
L 309.053874 134.871642 
L 309.114062 134.795294 
L 309.181994 134.184508 
L 309.349896 134.10816 
L 309.450634 133.497374 
L 309.47979 133.421026 
L 309.517129 133.039285 
L 309.618053 133.039285 
L 309.659483 132.81024 
L 309.785009 132.733892 
L 309.894316 132.581195 
L 311.333071 132.504847 
L 311.406038 132.199454 
L 311.446772 132.199454 
L 311.531963 131.51232 
L 311.584887 131.435972 
L 311.634206 130.443445 
L 311.801406 130.367096 
L 311.901368 129.832659 
L 311.951618 129.832659 
L 311.969469 129.603614 
L 312.10234 129.527266 
L 312.202375 129.221873 
L 312.289905 129.145525 
L 312.389946 128.91648 
L 312.464926 128.840132 
L 312.535359 128.611087 
L 313.275258 128.534739 
L 313.275258 128.382042 
L 313.687556 128.382042 
L 313.796929 128.076649 
L 313.81599 128.076649 
L 313.903835 127.542212 
L 313.954403 127.465864 
L 314.044155 127.007774 
L 314.216779 126.931426 
L 314.286345 126.626033 
L 314.390628 126.549685 
L 314.489862 125.938899 
L 314.529983 125.862551 
L 314.605413 125.404461 
L 314.672912 125.328113 
L 314.75708 125.175416 
L 314.841056 125.099068 
L 314.938194 124.946372 
L 315.078776 124.870024 
L 315.078776 124.793675 
L 315.85914 124.793675 
L 315.85914 124.640979 
L 315.989761 124.564631 
L 316.087638 124.030193 
L 316.126627 123.953845 
L 316.186416 123.648452 
L 316.340535 123.572104 
L 316.433214 123.037666 
L 316.52568 122.961318 
L 316.62055 122.503228 
L 316.709208 122.42688 
L 316.709208 122.350532 
L 316.98624 122.274184 
L 316.98624 122.197835 
L 317.445791 122.197835 
L 317.445791 121.968791 
L 317.846581 121.892442 
L 317.953754 121.052612 
L 317.993431 120.976264 
L 318.099015 120.136433 
L 318.106583 120.136433 
L 318.183039 119.601995 
L 318.270732 119.525647 
L 318.354957 119.143906 
L 318.555492 119.067558 
L 318.617658 118.609468 
L 318.73157 118.53312 
L 318.833043 118.304075 
L 319.610114 118.227727 
L 319.712165 117.922334 
L 319.8435 117.845986 
L 319.921102 117.387896 
L 319.988587 117.311548 
L 320.064807 116.853459 
L 320.162133 116.777111 
L 320.182341 116.624414 
L 320.399879 116.548066 
L 320.446102 116.319021 
L 321.226499 116.242673 
L 321.313172 115.784584 
L 321.405278 115.708235 
L 321.512075 114.944753 
L 321.574096 114.868405 
L 321.654832 114.410315 
L 321.721974 114.333967 
L 321.830883 114.028574 
L 321.972717 113.952226 
L 321.972717 113.875878 
L 322.410121 113.799529 
L 322.410121 113.723181 
L 322.718706 113.646833 
L 322.801478 113.188744 
L 322.891601 113.112395 
L 322.9613 112.272565 
L 323.045866 112.196216 
L 323.101137 111.738127 
L 323.183987 111.661779 
L 323.268199 111.203689 
L 323.316606 111.203689 
L 323.405398 110.974645 
L 324.074488 110.898296 
L 324.17461 110.363859 
L 324.265542 110.287511 
L 324.339617 109.905769 
L 324.421726 109.829421 
L 324.520363 109.44768 
L 324.680121 109.371332 
L 324.755921 109.142287 
L 325.382429 109.065939 
L 325.454294 108.836894 
L 325.557007 108.836894 
L 325.667631 107.997064 
L 325.695839 107.920715 
L 325.766594 107.538974 
L 326.570019 107.538974 
L 326.652442 107.080885 
L 326.748833 107.004536 
L 326.852685 106.393751 
L 326.945621 106.317402 
L 327.010697 105.859313 
L 327.762287 105.782965 
L 327.871344 105.172179 
L 327.945419 105.095831 
L 327.959315 104.866786 
L 328.073101 104.790438 
L 328.175038 104.485045 
L 328.781555 104.408696 
L 328.841558 104.179652 
L 328.898661 104.179652 
L 328.957622 103.416169 
L 329.102752 103.416169 
L 329.120242 103.187125 
L 329.267818 103.110776 
L 329.29668 102.95808 
L 329.790575 102.881732 
L 329.84745 102.270946 
L 329.928817 102.194598 
L 330.038944 101.431115 
L 330.111294 101.354767 
L 330.202789 100.973026 
L 330.780462 100.896678 
L 330.881084 99.980499 
L 330.893771 99.980499 
L 330.99449 99.446061 
L 331.074216 99.369713 
L 331.140184 99.217016 
L 331.648009 99.140668 
L 331.724816 98.911624 
L 331.77193 98.835275 
L 331.866688 98.300838 
L 331.996869 98.224489 
L 332.077505 98.071793 
L 332.513788 97.995445 
L 332.624607 97.231962 
L 332.831669 97.155614 
L 332.917831 96.850221 
L 333.348879 96.773873 
L 333.447952 96.46848 
L 333.475043 96.392132 
L 333.54039 96.086739 
L 333.634912 96.010391 
L 333.667835 95.704998 
L 334.166711 95.628649 
L 334.276468 95.246908 
L 334.324967 95.246908 
L 334.422976 94.941515 
L 334.482843 94.865167 
L 334.482843 94.788819 
L 334.916286 94.712471 
L 335.02479 94.407078 
L 335.089466 94.330729 
L 335.172066 93.948988 
L 335.218533 93.87264 
L 335.218533 93.796292 
L 335.690221 93.719944 
L 335.774188 93.261854 
L 335.908838 93.185506 
L 335.940685 93.032809 
L 336.372649 92.956461 
L 336.455438 92.498372 
L 337.02665 92.422024 
L 337.111201 91.963934 
L 337.214907 91.887586 
L 337.319946 91.658541 
L 337.714421 91.658541 
L 337.795746 91.200452 
L 337.843772 91.124104 
L 337.906318 90.971407 
L 338.3563 90.895059 
L 338.460794 90.513318 
L 338.932898 90.436969 
L 339.04193 89.826184 
L 339.105804 89.749835 
L 339.179825 89.597139 
L 339.584358 89.520791 
L 339.658032 89.139049 
L 340.112617 89.062701 
L 340.191418 88.604612 
L 340.336338 88.528264 
L 340.336338 88.451915 
L 340.663629 88.375567 
L 340.773849 87.993826 
L 340.868683 87.917478 
L 340.868683 87.841129 
L 341.255555 87.764781 
L 341.31431 87.459388 
L 341.786153 87.38304 
L 341.875917 87.077647 
L 342.429471 87.001299 
L 342.429471 86.924951 
L 342.810801 86.848602 
L 342.812785 86.695906 
L 343.258203 86.619558 
L 343.260355 86.466861 
L 343.426773 86.390513 
L 343.426773 86.314165 
L 343.745391 86.314165 
L 343.766606 86.08512 
L 343.87762 86.008772 
L 343.87762 85.932424 
L 344.283124 85.856075 
L 344.283124 85.779727 
L 344.730361 85.703379 
L 344.730361 85.627031 
L 345.092551 85.550682 
L 345.133549 85.397986 
L 345.234312 85.321638 
L 345.234312 85.245289 
L 345.562946 85.168941 
L 345.637306 84.939896 
L 346.085027 84.863548 
L 346.085027 84.7872 
L 346.407782 84.710852 
L 346.407782 84.634504 
L 347.516476 84.558155 
L 347.516476 84.481807 
L 348.330961 84.405459 
L 348.330961 84.329111 
L 348.653185 84.252762 
L 348.734886 84.100066 
L 349.044972 84.023718 
L 349.045529 83.871021 
L 349.399999 83.794673 
L 349.399999 83.718325 
L 350.038082 83.641976 
L 350.065937 83.48928 
L 350.436113 83.412932 
L 350.436113 83.336584 
L 351.32729 83.260235 
L 351.32729 83.183887 
L 352.26358 83.107539 
L 352.318452 82.878494 
L 352.840162 82.802146 
L 352.840162 82.725798 
L 353.444789 82.649449 
L 353.444789 82.573101 
L 353.711019 82.496753 
L 353.711019 82.420405 
L 353.9882 82.344056 
L 353.9882 82.267708 
L 355.822432 82.19136 
L 355.822432 82.115012 
L 356.36826 82.038664 
L 356.36826 81.962315 
L 356.579949 81.885967 
L 356.678283 81.733271 
L 357.892675 81.656922 
L 357.892675 81.580574 
L 359.189799 81.504226 
L 359.189799 81.427878 
L 360.8064 81.351529 
L 360.8064 81.351529 
" style="fill: none; stroke: #ff00ff; stroke-width: 1.5; stroke-linecap: square"/>
   </g>
   <g id="line2d_41">
    <defs>
     <path id="m6ac6921df7" d="M 0 8.485281 
L 5.091169 0 
L 0 -8.485281 
L -5.091169 0 
z
" style="stroke: #ff00ff; stroke-width: 1.5; stroke-linejoin: miter"/>
    </defs>
    <g>
     <use xlink:href="#m6ac6921df7" x="84.596168" y="277.413798" style="fill-opacity: 0; stroke: #ff00ff; stroke-width: 1.5; stroke-linejoin: miter"/>
     <use xlink:href="#m6ac6921df7" x="192.910259" y="255.807247" style="fill-opacity: 0; stroke: #ff00ff; stroke-width: 1.5; stroke-linejoin: miter"/>
     <use xlink:href="#m6ac6921df7" x="241.325376" y="211.754315" style="fill-opacity: 0; stroke: #ff00ff; stroke-width: 1.5; stroke-linejoin: miter"/>
     <use xlink:href="#m6ac6921df7" x="314.286345" y="126.702381" style="fill-opacity: 0; stroke: #ff00ff; stroke-width: 1.5; stroke-linejoin: miter"/>
     <use xlink:href="#m6ac6921df7" x="360.239466" y="81.351529" style="fill-opacity: 0; stroke: #ff00ff; stroke-width: 1.5; stroke-linejoin: miter"/>
     <use xlink:href="#m6ac6921df7" x="360.8064" y="81.351529" style="fill-opacity: 0; stroke: #ff00ff; stroke-width: 1.5; stroke-linejoin: miter"/>
    </g>
   </g>
   <g id="line2d_42">
    <path style="fill: none; stroke: #ff00ff; stroke-width: 1.5; stroke-linecap: square"/>
    <g/>
   </g>
   <g id="line2d_43">
    <path d="M 274.255293 185.872264 
" clip-path="url(#pa51e405540)" style="fill: none; stroke: #ff00ff; stroke-width: 1.5; stroke-linecap: square"/>
    <defs>
     <path id="m2b1b670399" d="M -12 12 
L 12 -12 
M -12 -12 
L 12 12 
" style="stroke: #ff00ff"/>
    </defs>
    <g clip-path="url(#pa51e405540)">
     <use xlink:href="#m2b1b670399" x="274.255293" y="185.872264" style="fill: #ff00ff; stroke: #ff00ff"/>
    </g>
   </g>
   <g id="line2d_44">
    <path d="M 360.8064 201.6 
L 380.514816 293.10336 
" style="fill: none; stroke: #000080; stroke-width: 1.5; stroke-linecap: square"/>
    <g>
     <use xlink:href="#m55bfb83de5" x="360.8064" y="201.6" style="fill-opacity: 0; stroke: #000080; stroke-width: 1.5"/>
     <use xlink:href="#m55bfb83de5" x="380.514816" y="293.10336" style="fill-opacity: 0; stroke: #000080; stroke-width: 1.5"/>
    </g>
   </g>
   <g id="line2d_45">
    <path d="M 360.8064 81.351529 
L 380.514816 152.928 
" style="fill: none; stroke: #ff00ff; stroke-width: 1.5; stroke-linecap: square"/>
    <g>
     <use xlink:href="#m6ac6921df7" x="360.8064" y="81.351529" style="fill-opacity: 0; stroke: #ff00ff; stroke-width: 1.5; stroke-linejoin: miter"/>
     <use xlink:href="#m6ac6921df7" x="380.514816" y="152.928" style="fill-opacity: 0; stroke: #ff00ff; stroke-width: 1.5; stroke-linejoin: miter"/>
    </g>
   </g>
   <g id="line2d_46">
    <path d="M 360.8064 298.944 
L 360.8064 6.912 
" style="fill: none; stroke: #000000; stroke-width: 1.5; stroke-linecap: square"/>
   </g>
   <g id="patch_3">
    <path d="M 57.6 298.944 
L 360.8064 298.944 
" style="fill: none; stroke: #000000; stroke-width: 0.8; stroke-linejoin: miter; stroke-linecap: square"/>
   </g>
   <g id="patch_4">
    <path d="M 57.6 6.912 
L 360.8064 6.912 
" style="fill: none; stroke: #000000; stroke-width: 0.8; stroke-linejoin: miter; stroke-linecap: square"/>
   </g>
   <g id="text_13">
    <!-- LCGA -->
    <g transform="translate(386.578944 296.966485)scale(0.14 -0.14)">
     <defs>
      <path id="DejaVuSans-4c" d="M 628 4666 
L 1259 4666 
L 1259 531 
L 3531 531 
L 3531 0 
L 628 0 
L 628 4666 
z
" transform="scale(0.015625)"/>
      <path id="DejaVuSans-43" d="M 4122 4306 
L 4122 3641 
Q 3803 3938 3442 4084 
Q 3081 4231 2675 4231 
Q 1875 4231 1450 3742 
Q 1025 3253 1025 2328 
Q 1025 1406 1450 917 
Q 1875 428 2675 428 
Q 3081 428 3442 575 
Q 3803 722 4122 1019 
L 4122 359 
Q 3791 134 3420 21 
Q 3050 -91 2638 -91 
Q 1578 -91 968 557 
Q 359 1206 359 2328 
Q 359 3453 968 4101 
Q 1578 4750 2638 4750 
Q 3056 4750 3426 4639 
Q 3797 4528 4122 4306 
z
" transform="scale(0.015625)"/>
      <path id="DejaVuSans-47" d="M 3809 666 
L 3809 1919 
L 2778 1919 
L 2778 2438 
L 4434 2438 
L 4434 434 
Q 4069 175 3628 42 
Q 3188 -91 2688 -91 
Q 1594 -91 976 548 
Q 359 1188 359 2328 
Q 359 3472 976 4111 
Q 1594 4750 2688 4750 
Q 3144 4750 3555 4637 
Q 3966 4525 4313 4306 
L 4313 3634 
Q 3963 3931 3569 4081 
Q 3175 4231 2741 4231 
Q 1884 4231 1454 3753 
Q 1025 3275 1025 2328 
Q 1025 1384 1454 906 
Q 1884 428 2741 428 
Q 3075 428 3337 486 
Q 3600 544 3809 666 
z
" transform="scale(0.015625)"/>
      <path id="DejaVuSans-41" d="M 2188 4044 
L 1331 1722 
L 3047 1722 
L 2188 4044 
z
M 1831 4666 
L 2547 4666 
L 4325 0 
L 3669 0 
L 3244 1197 
L 1141 1197 
L 716 0 
L 50 0 
L 1831 4666 
z
" transform="scale(0.015625)"/>
     </defs>
     <use xlink:href="#DejaVuSans-4c"/>
     <use xlink:href="#DejaVuSans-43" x="55.712891"/>
     <use xlink:href="#DejaVuSans-47" x="125.537109"/>
     <use xlink:href="#DejaVuSans-41" x="203.027344"/>
    </g>
   </g>
   <g id="text_14">
    <!-- GA -->
    <g transform="translate(386.578944 156.791125)scale(0.14 -0.14)">
     <use xlink:href="#DejaVuSans-47"/>
     <use xlink:href="#DejaVuSans-41" x="77.490234"/>
    </g>
   </g>
   <g id="text_15">
    <!-- best 2009 -->
    <g transform="translate(386.578944 16.615765)scale(0.14 -0.14)">
     <defs>
      <path id="DejaVuSans-62" d="M 3116 1747 
Q 3116 2381 2855 2742 
Q 2594 3103 2138 3103 
Q 1681 3103 1420 2742 
Q 1159 2381 1159 1747 
Q 1159 1113 1420 752 
Q 1681 391 2138 391 
Q 2594 391 2855 752 
Q 3116 1113 3116 1747 
z
M 1159 2969 
Q 1341 3281 1617 3432 
Q 1894 3584 2278 3584 
Q 2916 3584 3314 3078 
Q 3713 2572 3713 1747 
Q 3713 922 3314 415 
Q 2916 -91 2278 -91 
Q 1894 -91 1617 61 
Q 1341 213 1159 525 
L 1159 0 
L 581 0 
L 581 4863 
L 1159 4863 
L 1159 2969 
z
" transform="scale(0.015625)"/>
      <path id="DejaVuSans-39" d="M 703 97 
L 703 672 
Q 941 559 1184 500 
Q 1428 441 1663 441 
Q 2288 441 2617 861 
Q 2947 1281 2994 2138 
Q 2813 1869 2534 1725 
Q 2256 1581 1919 1581 
Q 1219 1581 811 2004 
Q 403 2428 403 3163 
Q 403 3881 828 4315 
Q 1253 4750 1959 4750 
Q 2769 4750 3195 4129 
Q 3622 3509 3622 2328 
Q 3622 1225 3098 567 
Q 2575 -91 1691 -91 
Q 1453 -91 1209 -44 
Q 966 3 703 97 
z
M 1959 2075 
Q 2384 2075 2632 2365 
Q 2881 2656 2881 3163 
Q 2881 3666 2632 3958 
Q 2384 4250 1959 4250 
Q 1534 4250 1286 3958 
Q 1038 3666 1038 3163 
Q 1038 2656 1286 2365 
Q 1534 2075 1959 2075 
z
" transform="scale(0.015625)"/>
     </defs>
     <use xlink:href="#DejaVuSans-62"/>
     <use xlink:href="#DejaVuSans-65" x="63.476562"/>
     <use xlink:href="#DejaVuSans-73" x="125"/>
     <use xlink:href="#DejaVuSans-74" x="177.099609"/>
     <use xlink:href="#DejaVuSans-20" x="216.308594"/>
     <use xlink:href="#DejaVuSans-32" x="248.095703"/>
     <use xlink:href="#DejaVuSans-30" x="311.71875"/>
     <use xlink:href="#DejaVuSans-30" x="375.341797"/>
     <use xlink:href="#DejaVuSans-39" x="438.964844"/>
    </g>
   </g>
   <g id="text_16">
    <!-- bbob f15-f19, 5-D -->
    <g transform="translate(60.632064 17.582726)scale(0.102 -0.102)">
     <defs>
      <path id="DejaVuSans-35" d="M 691 4666 
L 3169 4666 
L 3169 4134 
L 1269 4134 
L 1269 2991 
Q 1406 3038 1543 3061 
Q 1681 3084 1819 3084 
Q 2600 3084 3056 2656 
Q 3513 2228 3513 1497 
Q 3513 744 3044 326 
Q 2575 -91 1722 -91 
Q 1428 -91 1123 -41 
Q 819 9 494 109 
L 494 744 
Q 775 591 1075 516 
Q 1375 441 1709 441 
Q 2250 441 2565 725 
Q 2881 1009 2881 1497 
Q 2881 1984 2565 2268 
Q 2250 2553 1709 2553 
Q 1456 2553 1204 2497 
Q 953 2441 691 2322 
L 691 4666 
z
" transform="scale(0.015625)"/>
      <path id="DejaVuSans-44" d="M 1259 4147 
L 1259 519 
L 2022 519 
Q 2988 519 3436 956 
Q 3884 1394 3884 2338 
Q 3884 3275 3436 3711 
Q 2988 4147 2022 4147 
L 1259 4147 
z
M 628 4666 
L 1925 4666 
Q 3281 4666 3915 4102 
Q 4550 3538 4550 2338 
Q 4550 1131 3912 565 
Q 3275 0 1925 0 
L 628 0 
L 628 4666 
z
" transform="scale(0.015625)"/>
     </defs>
     <use xlink:href="#DejaVuSans-62"/>
     <use xlink:href="#DejaVuSans-62" x="63.476562"/>
     <use xlink:href="#DejaVuSans-6f" x="126.953125"/>
     <use xlink:href="#DejaVuSans-62" x="188.134766"/>
     <use xlink:href="#DejaVuSans-20" x="251.611328"/>
     <use xlink:href="#DejaVuSans-66" x="283.398438"/>
     <use xlink:href="#DejaVuSans-31" x="318.603516"/>
     <use xlink:href="#DejaVuSans-35" x="382.226562"/>
     <use xlink:href="#DejaVuSans-2d" x="445.849609"/>
     <use xlink:href="#DejaVuSans-66" x="481.933594"/>
     <use xlink:href="#DejaVuSans-31" x="517.138672"/>
     <use xlink:href="#DejaVuSans-39" x="580.761719"/>
     <use xlink:href="#DejaVuSans-2c" x="644.384766"/>
     <use xlink:href="#DejaVuSans-20" x="676.171875"/>
     <use xlink:href="#DejaVuSans-35" x="707.958984"/>
     <use xlink:href="#DejaVuSans-2d" x="771.582031"/>
     <use xlink:href="#DejaVuSans-44" x="807.666016"/>
    </g>
    <!-- 51 targets: 100..1e-08 -->
    <g transform="translate(60.632064 29.004495)scale(0.102 -0.102)">
     <defs>
      <path id="DejaVuSans-3a" d="M 750 794 
L 1409 794 
L 1409 0 
L 750 0 
L 750 794 
z
M 750 3309 
L 1409 3309 
L 1409 2516 
L 750 2516 
L 750 3309 
z
" transform="scale(0.015625)"/>
     </defs>
     <use xlink:href="#DejaVuSans-35"/>
     <use xlink:href="#DejaVuSans-31" x="63.623047"/>
     <use xlink:href="#DejaVuSans-20" x="127.246094"/>
     <use xlink:href="#DejaVuSans-74" x="159.033203"/>
     <use xlink:href="#DejaVuSans-61" x="198.242188"/>
     <use xlink:href="#DejaVuSans-72" x="259.521484"/>
     <use xlink:href="#DejaVuSans-67" x="298.884766"/>
     <use xlink:href="#DejaVuSans-65" x="362.361328"/>
     <use xlink:href="#DejaVuSans-74" x="423.884766"/>
     <use xlink:href="#DejaVuSans-73" x="463.09375"/>
     <use xlink:href="#DejaVuSans-3a" x="515.193359"/>
     <use xlink:href="#DejaVuSans-20" x="548.884766"/>
     <use xlink:href="#DejaVuSans-31" x="580.671875"/>
     <use xlink:href="#DejaVuSans-30" x="644.294922"/>
     <use xlink:href="#DejaVuSans-30" x="707.917969"/>
     <use xlink:href="#DejaVuSans-2e" x="771.541016"/>
     <use xlink:href="#DejaVuSans-2e" x="803.328125"/>
     <use xlink:href="#DejaVuSans-31" x="835.115234"/>
     <use xlink:href="#DejaVuSans-65" x="898.738281"/>
     <use xlink:href="#DejaVuSans-2d" x="960.261719"/>
     <use xlink:href="#DejaVuSans-30" x="996.345703"/>
     <use xlink:href="#DejaVuSans-38" x="1059.96875"/>
    </g>
    <!-- 15 instances -->
    <g transform="translate(60.632064 40.426264)scale(0.102 -0.102)">
     <use xlink:href="#DejaVuSans-31"/>
     <use xlink:href="#DejaVuSans-35" x="63.623047"/>
     <use xlink:href="#DejaVuSans-20" x="127.246094"/>
     <use xlink:href="#DejaVuSans-69" x="159.033203"/>
     <use xlink:href="#DejaVuSans-6e" x="186.816406"/>
     <use xlink:href="#DejaVuSans-73" x="250.195312"/>
     <use xlink:href="#DejaVuSans-74" x="302.294922"/>
     <use xlink:href="#DejaVuSans-61" x="341.503906"/>
     <use xlink:href="#DejaVuSans-6e" x="402.783203"/>
     <use xlink:href="#DejaVuSans-63" x="466.162109"/>
     <use xlink:href="#DejaVuSans-65" x="521.142578"/>
     <use xlink:href="#DejaVuSans-73" x="582.666016"/>
    </g>
   </g>
   <g id="text_17">
    <!-- v2.6 -->
    <g style="fill: #808080" transform="translate(198.292262 293.943992)scale(0.1 -0.1)">
     <use xlink:href="#DejaVuSans-76"/>
     <use xlink:href="#DejaVuSans-32" x="59.179688"/>
     <use xlink:href="#DejaVuSans-2e" x="122.802734"/>
     <use xlink:href="#DejaVuSans-36" x="154.589844"/>
    </g>
   </g>
  </g>
 </g>
 <defs>
  <clipPath id="pa51e405540">
   <rect x="57.6" y="6.912" width="303.2064" height="292.032"/>
  </clipPath>
 </defs>
</svg>
