<?xml version="1.0" encoding="utf-8" standalone="no"?>
<!DOCTYPE svg PUBLIC "-//W3C//DTD SVG 1.1//EN"
  "http://www.w3.org/Graphics/SVG/1.1/DTD/svg11.dtd">
<svg xmlns:xlink="http://www.w3.org/1999/xlink" width="460.8pt" height="345.6pt" viewBox="0 0 460.8 345.6" xmlns="http://www.w3.org/2000/svg" version="1.1">
 <metadata>
  <rdf:RDF xmlns:dc="http://purl.org/dc/elements/1.1/" xmlns:cc="http://creativecommons.org/ns#" xmlns:rdf="http://www.w3.org/1999/02/22-rdf-syntax-ns#">
   <cc:Work>
    <dc:type rdf:resource="http://purl.org/dc/dcmitype/StillImage"/>
    <dc:date>2024-05-29T07:59:17.746844</dc:date>
    <dc:format>image/svg+xml</dc:format>
    <dc:creator>
     <cc:Agent>
      <dc:title>Matplotlib v3.5.1, https://matplotlib.org/</dc:title>
     </cc:Agent>
    </dc:creator>
   </cc:Work>
  </rdf:RDF>
 </metadata>
 <defs>
  <style type="text/css">*{stroke-linejoin: round; stroke-linecap: butt}</style>
 </defs>
 <g id="figure_1">
  <g id="patch_1">
   <path d="M 0 345.6 
L 460.8 345.6 
L 460.8 0 
L 0 0 
z
" style="fill: #ffffff"/>
  </g>
  <g id="axes_1">
   <g id="patch_2">
    <path d="M 57.6 298.944 
L 360.8064 298.944 
L 360.8064 6.912 
L 57.6 6.912 
z
" style="fill: #ffffff"/>
   </g>
   <g id="line2d_1">
    <path d="M 36.933397 298.944 
L 36.933397 291.786353 
L 57.6 291.786353 
L 57.6 290.354824 
L 63.011746 290.354824 
L 63.011746 288.923294 
L 67.209423 288.923294 
L 67.209423 287.491765 
L 76.050921 287.491765 
L 76.050921 281.765647 
L 82.04153 281.765647 
L 82.04153 280.334118 
L 85.184077 280.334118 
L 85.184077 278.902588 
L 87.876026 278.902588 
L 87.876026 277.471059 
L 89.090095 277.471059 
L 89.090095 276.039529 
L 90.230539 276.039529 
L 90.230539 274.608 
L 91.305777 274.608 
L 91.305777 273.176471 
L 92.322865 273.176471 
L 92.322865 271.744941 
L 93.287772 271.744941 
L 93.287772 270.313412 
L 94.205591 270.313412 
L 94.205591 268.881882 
L 96.717523 268.881882 
L 96.717523 267.450353 
L 97.485448 267.450353 
L 97.485448 263.155765 
L 98.933205 263.155765 
L 98.933205 261.724235 
L 101.532027 261.724235 
L 101.532027 257.429647 
L 102.12927 257.429647 
L 102.12927 255.998118 
L 103.269713 255.998118 
L 103.269713 254.566588 
L 105.36204 254.566588 
L 105.36204 253.135059 
L 105.850679 253.135059 
L 105.850679 251.703529 
L 106.326946 251.703529 
L 106.326946 248.840471 
L 108.542628 248.840471 
L 108.542628 247.408941 
L 108.956085 247.408941 
L 108.956085 245.977412 
L 109.756698 245.977412 
L 109.756698 244.545882 
L 110.144579 244.545882 
L 110.144579 243.114353 
L 111.262425 243.114353 
L 111.262425 241.682824 
L 112.656511 241.682824 
L 112.656511 240.251294 
L 113.316634 240.251294 
L 113.316634 238.819765 
L 114.265316 238.819765 
L 114.265316 237.388235 
L 115.460102 237.388235 
L 115.460102 234.525176 
L 115.747307 234.525176 
L 115.747307 233.093647 
L 117.121023 233.093647 
L 117.121023 231.662118 
L 117.899543 231.662118 
L 117.899543 230.230588 
L 118.889854 230.230588 
L 118.889854 228.799059 
L 119.129494 228.799059 
L 119.129494 227.367529 
L 121.371615 227.367529 
L 121.371615 225.936 
L 121.581803 225.936 
L 121.581803 224.504471 
L 123.374735 224.504471 
L 123.374735 223.072941 
L 124.119844 223.072941 
L 124.119844 221.641412 
L 124.3016 221.641412 
L 124.3016 220.209882 
L 124.836562 220.209882 
L 124.836562 218.778353 
L 125.695686 218.778353 
L 125.695686 217.346824 
L 126.028642 217.346824 
L 126.028642 215.915294 
L 126.355808 215.915294 
L 126.355808 214.483765 
L 126.517282 214.483765 
L 126.517282 213.052235 
L 127.761474 213.052235 
L 127.761474 211.620706 
L 128.060076 211.620706 
L 128.060076 210.189176 
L 128.207619 210.189176 
L 128.207619 208.757647 
L 128.499277 208.757647 
L 128.499277 207.326118 
L 128.786481 207.326118 
L 128.786481 205.894588 
L 129.348062 205.894588 
L 129.348062 204.463059 
L 129.622688 204.463059 
L 129.622688 203.031529 
L 129.758512 203.031529 
L 129.758512 201.6 
L 130.292209 201.6 
L 130.292209 198.736941 
L 130.553485 198.736941 
L 130.553485 197.305412 
L 130.682774 197.305412 
L 130.682774 195.873882 
L 131.065395 195.873882 
L 131.065395 193.010824 
L 131.440389 193.010824 
L 131.440389 190.147765 
L 131.686295 190.147765 
L 131.686295 188.716235 
L 131.808053 188.716235 
L 131.808053 187.284706 
L 132.168669 187.284706 
L 132.168669 185.853176 
L 132.287354 185.853176 
L 132.287354 181.558588 
L 132.405295 181.558588 
L 132.405295 180.127059 
L 132.638982 180.127059 
L 132.638982 177.264 
L 132.869802 177.264 
L 132.869802 175.832471 
L 132.984158 175.832471 
L 132.984158 171.537882 
L 133.097823 171.537882 
L 133.097823 168.674824 
L 133.210806 168.674824 
L 133.210806 167.243294 
L 133.323114 167.243294 
L 133.323114 165.811765 
L 133.434756 165.811765 
L 133.545739 162.948706 
L 133.656071 162.948706 
L 133.765759 158.654118 
L 133.983236 158.654118 
L 134.091039 150.064941 
L 134.198228 150.064941 
L 134.304809 144.338824 
L 134.41079 144.338824 
L 134.516177 138.612706 
L 134.620977 138.612706 
L 134.725196 134.318118 
L 134.828842 134.318118 
L 134.931919 131.455059 
L 135.034434 131.455059 
L 135.034434 130.023529 
L 135.237805 130.023529 
L 135.237805 127.160471 
L 135.438999 127.160471 
L 135.538796 124.297412 
L 135.638065 124.297412 
L 135.736814 121.434353 
L 135.835047 121.434353 
L 135.835047 120.002824 
L 136.029987 120.002824 
L 136.126705 115.708235 
L 136.222928 115.708235 
L 136.318661 109.982118 
L 136.413909 109.982118 
L 136.413909 107.119059 
L 136.696795 107.119059 
L 136.790153 101.392941 
L 136.88305 101.392941 
L 136.97549 98.529882 
L 137.067478 98.529882 
L 137.159019 95.666824 
L 137.340774 95.666824 
L 137.430998 87.077647 
L 137.520791 87.077647 
L 137.520791 84.214588 
L 137.963436 84.214588 
L 138.050729 81.351529 
L 138.481218 81.351529 
L 138.481218 79.92 
L 138.902075 79.92 
L 138.902075 78.488471 
L 139.313723 78.488471 
L 139.313723 77.056941 
L 139.716555 77.056941 
L 139.716555 75.625412 
L 140.032723 75.625412 
L 140.032723 74.193882 
L 140.26641 74.193882 
L 140.26641 72.762353 
L 140.573544 72.762353 
L 140.573544 71.330824 
L 140.725251 71.330824 
L 140.725251 69.899294 
L 141.025043 69.899294 
L 141.025043 68.467765 
L 141.538451 68.467765 
L 141.538451 67.036235 
L 141.896777 67.036235 
L 141.896777 65.604706 
L 142.317949 65.604706 
L 142.317949 64.173176 
L 142.729897 64.173176 
L 142.729897 62.741647 
L 143.199372 62.741647 
L 143.199372 61.310118 
L 143.657415 61.310118 
L 143.657415 59.878588 
L 143.850356 59.878588 
L 143.850356 58.447059 
L 146.695245 58.447059 
L 146.695245 57.015529 
L 147.502732 57.015529 
L 147.502732 55.584 
L 147.919625 55.584 
L 147.919625 54.152471 
L 148.377845 54.152471 
L 148.377845 52.720941 
L 148.874221 52.720941 
L 148.874221 51.289412 
L 152.434157 51.289412 
L 152.434157 49.857882 
L 152.675851 49.857882 
L 152.675851 48.426353 
L 153.071898 48.426353 
L 153.150116 19.795765 
L 153.536404 19.795765 
L 153.536404 18.364235 
L 154.212341 18.364235 
L 154.212341 16.932706 
L 154.577625 16.932706 
L 154.577625 15.501176 
L 155.112587 15.501176 
L 155.112587 14.069647 
L 155.802997 14.069647 
L 155.802997 12.638118 
L 156.238546 12.638118 
L 156.238546 11.206588 
L 156.857511 11.206588 
L 156.857511 9.775059 
L 157.332175 9.775059 
L 157.332175 8.343529 
L 157.703468 8.343529 
L 157.703468 6.912 
L 360.8064 6.912 
L 360.8064 6.912 
" style="fill: none; stroke: #f5deb3; stroke-width: 4; stroke-linecap: square"/>
   </g>
   <g id="line2d_2">
    <defs>
     <path id="m6c136d927c" d="M 0 7.778175 
L 7.778175 0 
L 0 -7.778175 
L -7.778175 0 
z
" style="stroke: #f5deb3; stroke-width: 1.5; stroke-linejoin: miter"/>
    </defs>
    <g>
     <use xlink:href="#m6c136d927c" x="85.184077" y="278.902588" style="fill: #f5deb3; stroke: #f5deb3; stroke-width: 1.5; stroke-linejoin: miter"/>
     <use xlink:href="#m6c136d927c" x="129.348062" y="205.894588" style="fill: #f5deb3; stroke: #f5deb3; stroke-width: 1.5; stroke-linejoin: miter"/>
     <use xlink:href="#m6c136d927c" x="152.675851" y="49.857882" style="fill: #f5deb3; stroke: #f5deb3; stroke-width: 1.5; stroke-linejoin: miter"/>
     <use xlink:href="#m6c136d927c" x="157.703468" y="8.343529" style="fill: #f5deb3; stroke: #f5deb3; stroke-width: 1.5; stroke-linejoin: miter"/>
     <use xlink:href="#m6c136d927c" x="157.703468" y="6.912" style="fill: #f5deb3; stroke: #f5deb3; stroke-width: 1.5; stroke-linejoin: miter"/>
     <use xlink:href="#m6c136d927c" x="360.8064" y="6.912" style="fill: #f5deb3; stroke: #f5deb3; stroke-width: 1.5; stroke-linejoin: miter"/>
    </g>
   </g>
   <g id="line2d_3">
    <path style="fill: none; stroke: #f5deb3; stroke-width: 4; stroke-linecap: square"/>
    <g/>
   </g>
   <g id="line2d_4">
    <path d="M 360.8064 6.912 
L 380.514816 12.75264 
" style="fill: none; stroke: #f5deb3; stroke-width: 4; stroke-linecap: square"/>
    <g>
     <use xlink:href="#m6c136d927c" x="360.8064" y="6.912" style="fill: #f5deb3; stroke: #f5deb3; stroke-width: 1.5; stroke-linejoin: miter"/>
     <use xlink:href="#m6c136d927c" x="380.514816" y="12.75264" style="fill: #f5deb3; stroke: #f5deb3; stroke-width: 1.5; stroke-linejoin: miter"/>
    </g>
   </g>
   <g id="matplotlib.axis_1">
    <g id="xtick_1">
     <g id="line2d_5">
      <path d="M 57.6 298.944 
L 57.6 6.912 
" clip-path="url(#pda3ad7ea94)" style="fill: none; stroke: #b0b0b0; stroke-width: 0.8; stroke-linecap: square"/>
     </g>
     <g id="line2d_6">
      <defs>
       <path id="m951ad1d28a" d="M 0 0 
L 0 3.5 
" style="stroke: #000000; stroke-width: 0.8"/>
      </defs>
      <g>
       <use xlink:href="#m951ad1d28a" x="57.6" y="298.944" style="stroke: #000000; stroke-width: 0.8"/>
      </g>
     </g>
     <g id="text_1">
      <!-- 0 -->
      <g transform="translate(52.191875 318.861344)scale(0.17 -0.17)">
       <defs>
        <path id="DejaVuSans-30" d="M 2034 4250 
Q 1547 4250 1301 3770 
Q 1056 3291 1056 2328 
Q 1056 1369 1301 889 
Q 1547 409 2034 409 
Q 2525 409 2770 889 
Q 3016 1369 3016 2328 
Q 3016 3291 2770 3770 
Q 2525 4250 2034 4250 
z
M 2034 4750 
Q 2819 4750 3233 4129 
Q 3647 3509 3647 2328 
Q 3647 1150 3233 529 
Q 2819 -91 2034 -91 
Q 1250 -91 836 529 
Q 422 1150 422 2328 
Q 422 3509 836 4129 
Q 1250 4750 2034 4750 
z
" transform="scale(0.015625)"/>
       </defs>
       <use xlink:href="#DejaVuSans-30"/>
      </g>
     </g>
    </g>
    <g id="xtick_2">
     <g id="line2d_7">
      <path d="M 144.2304 298.944 
L 144.2304 6.912 
" clip-path="url(#pda3ad7ea94)" style="fill: none; stroke: #b0b0b0; stroke-width: 0.8; stroke-linecap: square"/>
     </g>
     <g id="line2d_8">
      <g>
       <use xlink:href="#m951ad1d28a" x="144.2304" y="298.944" style="stroke: #000000; stroke-width: 0.8"/>
      </g>
     </g>
     <g id="text_2">
      <!-- 2 -->
      <g transform="translate(138.822275 318.861344)scale(0.17 -0.17)">
       <defs>
        <path id="DejaVuSans-32" d="M 1228 531 
L 3431 531 
L 3431 0 
L 469 0 
L 469 531 
Q 828 903 1448 1529 
Q 2069 2156 2228 2338 
Q 2531 2678 2651 2914 
Q 2772 3150 2772 3378 
Q 2772 3750 2511 3984 
Q 2250 4219 1831 4219 
Q 1534 4219 1204 4116 
Q 875 4013 500 3803 
L 500 4441 
Q 881 4594 1212 4672 
Q 1544 4750 1819 4750 
Q 2544 4750 2975 4387 
Q 3406 4025 3406 3419 
Q 3406 3131 3298 2873 
Q 3191 2616 2906 2266 
Q 2828 2175 2409 1742 
Q 1991 1309 1228 531 
z
" transform="scale(0.015625)"/>
       </defs>
       <use xlink:href="#DejaVuSans-32"/>
      </g>
     </g>
    </g>
    <g id="xtick_3">
     <g id="line2d_9">
      <path d="M 230.8608 298.944 
L 230.8608 6.912 
" clip-path="url(#pda3ad7ea94)" style="fill: none; stroke: #b0b0b0; stroke-width: 0.8; stroke-linecap: square"/>
     </g>
     <g id="line2d_10">
      <g>
       <use xlink:href="#m951ad1d28a" x="230.8608" y="298.944" style="stroke: #000000; stroke-width: 0.8"/>
      </g>
     </g>
     <g id="text_3">
      <!-- 4 -->
      <g transform="translate(225.452675 318.861344)scale(0.17 -0.17)">
       <defs>
        <path id="DejaVuSans-34" d="M 2419 4116 
L 825 1625 
L 2419 1625 
L 2419 4116 
z
M 2253 4666 
L 3047 4666 
L 3047 1625 
L 3713 1625 
L 3713 1100 
L 3047 1100 
L 3047 0 
L 2419 0 
L 2419 1100 
L 313 1100 
L 313 1709 
L 2253 4666 
z
" transform="scale(0.015625)"/>
       </defs>
       <use xlink:href="#DejaVuSans-34"/>
      </g>
     </g>
    </g>
    <g id="xtick_4">
     <g id="line2d_11">
      <path d="M 317.4912 298.944 
L 317.4912 6.912 
" clip-path="url(#pda3ad7ea94)" style="fill: none; stroke: #b0b0b0; stroke-width: 0.8; stroke-linecap: square"/>
     </g>
     <g id="line2d_12">
      <g>
       <use xlink:href="#m951ad1d28a" x="317.4912" y="298.944" style="stroke: #000000; stroke-width: 0.8"/>
      </g>
     </g>
     <g id="text_4">
      <!-- 6 -->
      <g transform="translate(312.083075 318.861344)scale(0.17 -0.17)">
       <defs>
        <path id="DejaVuSans-36" d="M 2113 2584 
Q 1688 2584 1439 2293 
Q 1191 2003 1191 1497 
Q 1191 994 1439 701 
Q 1688 409 2113 409 
Q 2538 409 2786 701 
Q 3034 994 3034 1497 
Q 3034 2003 2786 2293 
Q 2538 2584 2113 2584 
z
M 3366 4563 
L 3366 3988 
Q 3128 4100 2886 4159 
Q 2644 4219 2406 4219 
Q 1781 4219 1451 3797 
Q 1122 3375 1075 2522 
Q 1259 2794 1537 2939 
Q 1816 3084 2150 3084 
Q 2853 3084 3261 2657 
Q 3669 2231 3669 1497 
Q 3669 778 3244 343 
Q 2819 -91 2113 -91 
Q 1303 -91 875 529 
Q 447 1150 447 2328 
Q 447 3434 972 4092 
Q 1497 4750 2381 4750 
Q 2619 4750 2861 4703 
Q 3103 4656 3366 4563 
z
" transform="scale(0.015625)"/>
       </defs>
       <use xlink:href="#DejaVuSans-36"/>
      </g>
     </g>
    </g>
    <g id="xtick_5">
     <g id="line2d_13">
      <path d="M 100.9152 298.944 
L 100.9152 6.912 
" clip-path="url(#pda3ad7ea94)" style="fill: none; stroke: #b0b0b0; stroke-width: 0.8; stroke-linecap: square"/>
     </g>
     <g id="line2d_14">
      <defs>
       <path id="m2195933e9f" d="M 0 0 
L 0 2 
" style="stroke: #000000; stroke-width: 0.6"/>
      </defs>
      <g>
       <use xlink:href="#m2195933e9f" x="100.9152" y="298.944" style="stroke: #000000; stroke-width: 0.6"/>
      </g>
     </g>
    </g>
    <g id="xtick_6">
     <g id="line2d_15">
      <path d="M 187.5456 298.944 
L 187.5456 6.912 
" clip-path="url(#pda3ad7ea94)" style="fill: none; stroke: #b0b0b0; stroke-width: 0.8; stroke-linecap: square"/>
     </g>
     <g id="line2d_16">
      <g>
       <use xlink:href="#m2195933e9f" x="187.5456" y="298.944" style="stroke: #000000; stroke-width: 0.6"/>
      </g>
     </g>
    </g>
    <g id="xtick_7">
     <g id="line2d_17">
      <path d="M 274.176 298.944 
L 274.176 6.912 
" clip-path="url(#pda3ad7ea94)" style="fill: none; stroke: #b0b0b0; stroke-width: 0.8; stroke-linecap: square"/>
     </g>
     <g id="line2d_18">
      <g>
       <use xlink:href="#m2195933e9f" x="274.176" y="298.944" style="stroke: #000000; stroke-width: 0.6"/>
      </g>
     </g>
    </g>
    <g id="xtick_8">
     <g id="line2d_19">
      <path d="M 360.8064 298.944 
L 360.8064 6.912 
" clip-path="url(#pda3ad7ea94)" style="fill: none; stroke: #b0b0b0; stroke-width: 0.8; stroke-linecap: square"/>
     </g>
     <g id="line2d_20">
      <g>
       <use xlink:href="#m2195933e9f" x="360.8064" y="298.944" style="stroke: #000000; stroke-width: 0.6"/>
      </g>
     </g>
    </g>
    <g id="text_5">
     <!-- log10(# f-evals / dimension) -->
     <g transform="translate(88.823278 339.314156)scale(0.17 -0.17)">
      <defs>
       <path id="DejaVuSans-6c" d="M 603 4863 
L 1178 4863 
L 1178 0 
L 603 0 
L 603 4863 
z
" transform="scale(0.015625)"/>
       <path id="DejaVuSans-6f" d="M 1959 3097 
Q 1497 3097 1228 2736 
Q 959 2375 959 1747 
Q 959 1119 1226 758 
Q 1494 397 1959 397 
Q 2419 397 2687 759 
Q 2956 1122 2956 1747 
Q 2956 2369 2687 2733 
Q 2419 3097 1959 3097 
z
M 1959 3584 
Q 2709 3584 3137 3096 
Q 3566 2609 3566 1747 
Q 3566 888 3137 398 
Q 2709 -91 1959 -91 
Q 1206 -91 779 398 
Q 353 888 353 1747 
Q 353 2609 779 3096 
Q 1206 3584 1959 3584 
z
" transform="scale(0.015625)"/>
       <path id="DejaVuSans-67" d="M 2906 1791 
Q 2906 2416 2648 2759 
Q 2391 3103 1925 3103 
Q 1463 3103 1205 2759 
Q 947 2416 947 1791 
Q 947 1169 1205 825 
Q 1463 481 1925 481 
Q 2391 481 2648 825 
Q 2906 1169 2906 1791 
z
M 3481 434 
Q 3481 -459 3084 -895 
Q 2688 -1331 1869 -1331 
Q 1566 -1331 1297 -1286 
Q 1028 -1241 775 -1147 
L 775 -588 
Q 1028 -725 1275 -790 
Q 1522 -856 1778 -856 
Q 2344 -856 2625 -561 
Q 2906 -266 2906 331 
L 2906 616 
Q 2728 306 2450 153 
Q 2172 0 1784 0 
Q 1141 0 747 490 
Q 353 981 353 1791 
Q 353 2603 747 3093 
Q 1141 3584 1784 3584 
Q 2172 3584 2450 3431 
Q 2728 3278 2906 2969 
L 2906 3500 
L 3481 3500 
L 3481 434 
z
" transform="scale(0.015625)"/>
       <path id="DejaVuSans-31" d="M 794 531 
L 1825 531 
L 1825 4091 
L 703 3866 
L 703 4441 
L 1819 4666 
L 2450 4666 
L 2450 531 
L 3481 531 
L 3481 0 
L 794 0 
L 794 531 
z
" transform="scale(0.015625)"/>
       <path id="DejaVuSans-28" d="M 1984 4856 
Q 1566 4138 1362 3434 
Q 1159 2731 1159 2009 
Q 1159 1288 1364 580 
Q 1569 -128 1984 -844 
L 1484 -844 
Q 1016 -109 783 600 
Q 550 1309 550 2009 
Q 550 2706 781 3412 
Q 1013 4119 1484 4856 
L 1984 4856 
z
" transform="scale(0.015625)"/>
       <path id="DejaVuSans-23" d="M 3272 2816 
L 2363 2816 
L 2100 1772 
L 3016 1772 
L 3272 2816 
z
M 2803 4594 
L 2478 3297 
L 3391 3297 
L 3719 4594 
L 4219 4594 
L 3897 3297 
L 4872 3297 
L 4872 2816 
L 3775 2816 
L 3519 1772 
L 4513 1772 
L 4513 1294 
L 3397 1294 
L 3072 0 
L 2572 0 
L 2894 1294 
L 1978 1294 
L 1656 0 
L 1153 0 
L 1478 1294 
L 494 1294 
L 494 1772 
L 1594 1772 
L 1856 2816 
L 850 2816 
L 850 3297 
L 1978 3297 
L 2297 4594 
L 2803 4594 
z
" transform="scale(0.015625)"/>
       <path id="DejaVuSans-20" transform="scale(0.015625)"/>
       <path id="DejaVuSans-66" d="M 2375 4863 
L 2375 4384 
L 1825 4384 
Q 1516 4384 1395 4259 
Q 1275 4134 1275 3809 
L 1275 3500 
L 2222 3500 
L 2222 3053 
L 1275 3053 
L 1275 0 
L 697 0 
L 697 3053 
L 147 3053 
L 147 3500 
L 697 3500 
L 697 3744 
Q 697 4328 969 4595 
Q 1241 4863 1831 4863 
L 2375 4863 
z
" transform="scale(0.015625)"/>
       <path id="DejaVuSans-2d" d="M 313 2009 
L 1997 2009 
L 1997 1497 
L 313 1497 
L 313 2009 
z
" transform="scale(0.015625)"/>
       <path id="DejaVuSans-65" d="M 3597 1894 
L 3597 1613 
L 953 1613 
Q 991 1019 1311 708 
Q 1631 397 2203 397 
Q 2534 397 2845 478 
Q 3156 559 3463 722 
L 3463 178 
Q 3153 47 2828 -22 
Q 2503 -91 2169 -91 
Q 1331 -91 842 396 
Q 353 884 353 1716 
Q 353 2575 817 3079 
Q 1281 3584 2069 3584 
Q 2775 3584 3186 3129 
Q 3597 2675 3597 1894 
z
M 3022 2063 
Q 3016 2534 2758 2815 
Q 2500 3097 2075 3097 
Q 1594 3097 1305 2825 
Q 1016 2553 972 2059 
L 3022 2063 
z
" transform="scale(0.015625)"/>
       <path id="DejaVuSans-76" d="M 191 3500 
L 800 3500 
L 1894 563 
L 2988 3500 
L 3597 3500 
L 2284 0 
L 1503 0 
L 191 3500 
z
" transform="scale(0.015625)"/>
       <path id="DejaVuSans-61" d="M 2194 1759 
Q 1497 1759 1228 1600 
Q 959 1441 959 1056 
Q 959 750 1161 570 
Q 1363 391 1709 391 
Q 2188 391 2477 730 
Q 2766 1069 2766 1631 
L 2766 1759 
L 2194 1759 
z
M 3341 1997 
L 3341 0 
L 2766 0 
L 2766 531 
Q 2569 213 2275 61 
Q 1981 -91 1556 -91 
Q 1019 -91 701 211 
Q 384 513 384 1019 
Q 384 1609 779 1909 
Q 1175 2209 1959 2209 
L 2766 2209 
L 2766 2266 
Q 2766 2663 2505 2880 
Q 2244 3097 1772 3097 
Q 1472 3097 1187 3025 
Q 903 2953 641 2809 
L 641 3341 
Q 956 3463 1253 3523 
Q 1550 3584 1831 3584 
Q 2591 3584 2966 3190 
Q 3341 2797 3341 1997 
z
" transform="scale(0.015625)"/>
       <path id="DejaVuSans-73" d="M 2834 3397 
L 2834 2853 
Q 2591 2978 2328 3040 
Q 2066 3103 1784 3103 
Q 1356 3103 1142 2972 
Q 928 2841 928 2578 
Q 928 2378 1081 2264 
Q 1234 2150 1697 2047 
L 1894 2003 
Q 2506 1872 2764 1633 
Q 3022 1394 3022 966 
Q 3022 478 2636 193 
Q 2250 -91 1575 -91 
Q 1294 -91 989 -36 
Q 684 19 347 128 
L 347 722 
Q 666 556 975 473 
Q 1284 391 1588 391 
Q 1994 391 2212 530 
Q 2431 669 2431 922 
Q 2431 1156 2273 1281 
Q 2116 1406 1581 1522 
L 1381 1569 
Q 847 1681 609 1914 
Q 372 2147 372 2553 
Q 372 3047 722 3315 
Q 1072 3584 1716 3584 
Q 2034 3584 2315 3537 
Q 2597 3491 2834 3397 
z
" transform="scale(0.015625)"/>
       <path id="DejaVuSans-2f" d="M 1625 4666 
L 2156 4666 
L 531 -594 
L 0 -594 
L 1625 4666 
z
" transform="scale(0.015625)"/>
       <path id="DejaVuSans-64" d="M 2906 2969 
L 2906 4863 
L 3481 4863 
L 3481 0 
L 2906 0 
L 2906 525 
Q 2725 213 2448 61 
Q 2172 -91 1784 -91 
Q 1150 -91 751 415 
Q 353 922 353 1747 
Q 353 2572 751 3078 
Q 1150 3584 1784 3584 
Q 2172 3584 2448 3432 
Q 2725 3281 2906 2969 
z
M 947 1747 
Q 947 1113 1208 752 
Q 1469 391 1925 391 
Q 2381 391 2643 752 
Q 2906 1113 2906 1747 
Q 2906 2381 2643 2742 
Q 2381 3103 1925 3103 
Q 1469 3103 1208 2742 
Q 947 2381 947 1747 
z
" transform="scale(0.015625)"/>
       <path id="DejaVuSans-69" d="M 603 3500 
L 1178 3500 
L 1178 0 
L 603 0 
L 603 3500 
z
M 603 4863 
L 1178 4863 
L 1178 4134 
L 603 4134 
L 603 4863 
z
" transform="scale(0.015625)"/>
       <path id="DejaVuSans-6d" d="M 3328 2828 
Q 3544 3216 3844 3400 
Q 4144 3584 4550 3584 
Q 5097 3584 5394 3201 
Q 5691 2819 5691 2113 
L 5691 0 
L 5113 0 
L 5113 2094 
Q 5113 2597 4934 2840 
Q 4756 3084 4391 3084 
Q 3944 3084 3684 2787 
Q 3425 2491 3425 1978 
L 3425 0 
L 2847 0 
L 2847 2094 
Q 2847 2600 2669 2842 
Q 2491 3084 2119 3084 
Q 1678 3084 1418 2786 
Q 1159 2488 1159 1978 
L 1159 0 
L 581 0 
L 581 3500 
L 1159 3500 
L 1159 2956 
Q 1356 3278 1631 3431 
Q 1906 3584 2284 3584 
Q 2666 3584 2933 3390 
Q 3200 3197 3328 2828 
z
" transform="scale(0.015625)"/>
       <path id="DejaVuSans-6e" d="M 3513 2113 
L 3513 0 
L 2938 0 
L 2938 2094 
Q 2938 2591 2744 2837 
Q 2550 3084 2163 3084 
Q 1697 3084 1428 2787 
Q 1159 2491 1159 1978 
L 1159 0 
L 581 0 
L 581 3500 
L 1159 3500 
L 1159 2956 
Q 1366 3272 1645 3428 
Q 1925 3584 2291 3584 
Q 2894 3584 3203 3211 
Q 3513 2838 3513 2113 
z
" transform="scale(0.015625)"/>
       <path id="DejaVuSans-29" d="M 513 4856 
L 1013 4856 
Q 1481 4119 1714 3412 
Q 1947 2706 1947 2009 
Q 1947 1309 1714 600 
Q 1481 -109 1013 -844 
L 513 -844 
Q 928 -128 1133 580 
Q 1338 1288 1338 2009 
Q 1338 2731 1133 3434 
Q 928 4138 513 4856 
z
" transform="scale(0.015625)"/>
      </defs>
      <use xlink:href="#DejaVuSans-6c"/>
      <use xlink:href="#DejaVuSans-6f" x="27.783203"/>
      <use xlink:href="#DejaVuSans-67" x="88.964844"/>
      <use xlink:href="#DejaVuSans-31" x="152.441406"/>
      <use xlink:href="#DejaVuSans-30" x="216.064453"/>
      <use xlink:href="#DejaVuSans-28" x="279.6875"/>
      <use xlink:href="#DejaVuSans-23" x="318.701172"/>
      <use xlink:href="#DejaVuSans-20" x="402.490234"/>
      <use xlink:href="#DejaVuSans-66" x="434.277344"/>
      <use xlink:href="#DejaVuSans-2d" x="463.982422"/>
      <use xlink:href="#DejaVuSans-65" x="500.066406"/>
      <use xlink:href="#DejaVuSans-76" x="561.589844"/>
      <use xlink:href="#DejaVuSans-61" x="620.769531"/>
      <use xlink:href="#DejaVuSans-6c" x="682.048828"/>
      <use xlink:href="#DejaVuSans-73" x="709.832031"/>
      <use xlink:href="#DejaVuSans-20" x="761.931641"/>
      <use xlink:href="#DejaVuSans-2f" x="793.71875"/>
      <use xlink:href="#DejaVuSans-20" x="827.410156"/>
      <use xlink:href="#DejaVuSans-64" x="859.197266"/>
      <use xlink:href="#DejaVuSans-69" x="922.673828"/>
      <use xlink:href="#DejaVuSans-6d" x="950.457031"/>
      <use xlink:href="#DejaVuSans-65" x="1047.869141"/>
      <use xlink:href="#DejaVuSans-6e" x="1109.392578"/>
      <use xlink:href="#DejaVuSans-73" x="1172.771484"/>
      <use xlink:href="#DejaVuSans-69" x="1224.871094"/>
      <use xlink:href="#DejaVuSans-6f" x="1252.654297"/>
      <use xlink:href="#DejaVuSans-6e" x="1313.835938"/>
      <use xlink:href="#DejaVuSans-29" x="1377.214844"/>
     </g>
    </g>
   </g>
   <g id="matplotlib.axis_2">
    <g id="ytick_1">
     <g id="line2d_21">
      <path d="M 57.6 298.944 
L 360.8064 298.944 
" clip-path="url(#pda3ad7ea94)" style="fill: none; stroke: #b0b0b0; stroke-width: 0.8; stroke-linecap: square"/>
     </g>
     <g id="line2d_22">
      <defs>
       <path id="m3606a74ce3" d="M 0 0 
L -3.5 0 
" style="stroke: #000000; stroke-width: 0.8"/>
      </defs>
      <g>
       <use xlink:href="#m3606a74ce3" x="57.6" y="298.944" style="stroke: #000000; stroke-width: 0.8"/>
      </g>
     </g>
     <g id="text_6">
      <!-- 0.0 -->
      <g transform="translate(25.155 305.02275)scale(0.16 -0.16)">
       <defs>
        <path id="DejaVuSans-2e" d="M 684 794 
L 1344 794 
L 1344 0 
L 684 0 
L 684 794 
z
" transform="scale(0.015625)"/>
       </defs>
       <use xlink:href="#DejaVuSans-30"/>
       <use xlink:href="#DejaVuSans-2e" x="63.623047"/>
       <use xlink:href="#DejaVuSans-30" x="95.410156"/>
      </g>
     </g>
    </g>
    <g id="ytick_2">
     <g id="line2d_23">
      <path d="M 57.6 240.5376 
L 360.8064 240.5376 
" clip-path="url(#pda3ad7ea94)" style="fill: none; stroke: #b0b0b0; stroke-width: 0.8; stroke-linecap: square"/>
     </g>
     <g id="line2d_24">
      <g>
       <use xlink:href="#m3606a74ce3" x="57.6" y="240.5376" style="stroke: #000000; stroke-width: 0.8"/>
      </g>
     </g>
     <g id="text_7">
      <!-- 0.2 -->
      <g transform="translate(25.155 246.61635)scale(0.16 -0.16)">
       <use xlink:href="#DejaVuSans-30"/>
       <use xlink:href="#DejaVuSans-2e" x="63.623047"/>
       <use xlink:href="#DejaVuSans-32" x="95.410156"/>
      </g>
     </g>
    </g>
    <g id="ytick_3">
     <g id="line2d_25">
      <path d="M 57.6 182.1312 
L 360.8064 182.1312 
" clip-path="url(#pda3ad7ea94)" style="fill: none; stroke: #b0b0b0; stroke-width: 0.8; stroke-linecap: square"/>
     </g>
     <g id="line2d_26">
      <g>
       <use xlink:href="#m3606a74ce3" x="57.6" y="182.1312" style="stroke: #000000; stroke-width: 0.8"/>
      </g>
     </g>
     <g id="text_8">
      <!-- 0.4 -->
      <g transform="translate(25.155 188.20995)scale(0.16 -0.16)">
       <use xlink:href="#DejaVuSans-30"/>
       <use xlink:href="#DejaVuSans-2e" x="63.623047"/>
       <use xlink:href="#DejaVuSans-34" x="95.410156"/>
      </g>
     </g>
    </g>
    <g id="ytick_4">
     <g id="line2d_27">
      <path d="M 57.6 123.7248 
L 360.8064 123.7248 
" clip-path="url(#pda3ad7ea94)" style="fill: none; stroke: #b0b0b0; stroke-width: 0.8; stroke-linecap: square"/>
     </g>
     <g id="line2d_28">
      <g>
       <use xlink:href="#m3606a74ce3" x="57.6" y="123.7248" style="stroke: #000000; stroke-width: 0.8"/>
      </g>
     </g>
     <g id="text_9">
      <!-- 0.6 -->
      <g transform="translate(25.155 129.80355)scale(0.16 -0.16)">
       <use xlink:href="#DejaVuSans-30"/>
       <use xlink:href="#DejaVuSans-2e" x="63.623047"/>
       <use xlink:href="#DejaVuSans-36" x="95.410156"/>
      </g>
     </g>
    </g>
    <g id="ytick_5">
     <g id="line2d_29">
      <path d="M 57.6 65.3184 
L 360.8064 65.3184 
" clip-path="url(#pda3ad7ea94)" style="fill: none; stroke: #b0b0b0; stroke-width: 0.8; stroke-linecap: square"/>
     </g>
     <g id="line2d_30">
      <g>
       <use xlink:href="#m3606a74ce3" x="57.6" y="65.3184" style="stroke: #000000; stroke-width: 0.8"/>
      </g>
     </g>
     <g id="text_10">
      <!-- 0.8 -->
      <g transform="translate(25.155 71.39715)scale(0.16 -0.16)">
       <defs>
        <path id="DejaVuSans-38" d="M 2034 2216 
Q 1584 2216 1326 1975 
Q 1069 1734 1069 1313 
Q 1069 891 1326 650 
Q 1584 409 2034 409 
Q 2484 409 2743 651 
Q 3003 894 3003 1313 
Q 3003 1734 2745 1975 
Q 2488 2216 2034 2216 
z
M 1403 2484 
Q 997 2584 770 2862 
Q 544 3141 544 3541 
Q 544 4100 942 4425 
Q 1341 4750 2034 4750 
Q 2731 4750 3128 4425 
Q 3525 4100 3525 3541 
Q 3525 3141 3298 2862 
Q 3072 2584 2669 2484 
Q 3125 2378 3379 2068 
Q 3634 1759 3634 1313 
Q 3634 634 3220 271 
Q 2806 -91 2034 -91 
Q 1263 -91 848 271 
Q 434 634 434 1313 
Q 434 1759 690 2068 
Q 947 2378 1403 2484 
z
M 1172 3481 
Q 1172 3119 1398 2916 
Q 1625 2713 2034 2713 
Q 2441 2713 2670 2916 
Q 2900 3119 2900 3481 
Q 2900 3844 2670 4047 
Q 2441 4250 2034 4250 
Q 1625 4250 1398 4047 
Q 1172 3844 1172 3481 
z
" transform="scale(0.015625)"/>
       </defs>
       <use xlink:href="#DejaVuSans-30"/>
       <use xlink:href="#DejaVuSans-2e" x="63.623047"/>
       <use xlink:href="#DejaVuSans-38" x="95.410156"/>
      </g>
     </g>
    </g>
    <g id="ytick_6">
     <g id="line2d_31">
      <path d="M 57.6 6.912 
L 360.8064 6.912 
" clip-path="url(#pda3ad7ea94)" style="fill: none; stroke: #b0b0b0; stroke-width: 0.8; stroke-linecap: square"/>
     </g>
     <g id="line2d_32">
      <g>
       <use xlink:href="#m3606a74ce3" x="57.6" y="6.912" style="stroke: #000000; stroke-width: 0.8"/>
      </g>
     </g>
     <g id="text_11">
      <!-- 1.0 -->
      <g transform="translate(25.155 12.99075)scale(0.16 -0.16)">
       <use xlink:href="#DejaVuSans-31"/>
       <use xlink:href="#DejaVuSans-2e" x="63.623047"/>
       <use xlink:href="#DejaVuSans-30" x="95.410156"/>
      </g>
     </g>
    </g>
    <g id="text_12">
     <!-- Fraction of function,target pairs -->
     <g transform="translate(17.619531 287.313)rotate(-90)scale(0.17 -0.17)">
      <defs>
       <path id="DejaVuSans-46" d="M 628 4666 
L 3309 4666 
L 3309 4134 
L 1259 4134 
L 1259 2759 
L 3109 2759 
L 3109 2228 
L 1259 2228 
L 1259 0 
L 628 0 
L 628 4666 
z
" transform="scale(0.015625)"/>
       <path id="DejaVuSans-72" d="M 2631 2963 
Q 2534 3019 2420 3045 
Q 2306 3072 2169 3072 
Q 1681 3072 1420 2755 
Q 1159 2438 1159 1844 
L 1159 0 
L 581 0 
L 581 3500 
L 1159 3500 
L 1159 2956 
Q 1341 3275 1631 3429 
Q 1922 3584 2338 3584 
Q 2397 3584 2469 3576 
Q 2541 3569 2628 3553 
L 2631 2963 
z
" transform="scale(0.015625)"/>
       <path id="DejaVuSans-63" d="M 3122 3366 
L 3122 2828 
Q 2878 2963 2633 3030 
Q 2388 3097 2138 3097 
Q 1578 3097 1268 2742 
Q 959 2388 959 1747 
Q 959 1106 1268 751 
Q 1578 397 2138 397 
Q 2388 397 2633 464 
Q 2878 531 3122 666 
L 3122 134 
Q 2881 22 2623 -34 
Q 2366 -91 2075 -91 
Q 1284 -91 818 406 
Q 353 903 353 1747 
Q 353 2603 823 3093 
Q 1294 3584 2113 3584 
Q 2378 3584 2631 3529 
Q 2884 3475 3122 3366 
z
" transform="scale(0.015625)"/>
       <path id="DejaVuSans-74" d="M 1172 4494 
L 1172 3500 
L 2356 3500 
L 2356 3053 
L 1172 3053 
L 1172 1153 
Q 1172 725 1289 603 
Q 1406 481 1766 481 
L 2356 481 
L 2356 0 
L 1766 0 
Q 1100 0 847 248 
Q 594 497 594 1153 
L 594 3053 
L 172 3053 
L 172 3500 
L 594 3500 
L 594 4494 
L 1172 4494 
z
" transform="scale(0.015625)"/>
       <path id="DejaVuSans-75" d="M 544 1381 
L 544 3500 
L 1119 3500 
L 1119 1403 
Q 1119 906 1312 657 
Q 1506 409 1894 409 
Q 2359 409 2629 706 
Q 2900 1003 2900 1516 
L 2900 3500 
L 3475 3500 
L 3475 0 
L 2900 0 
L 2900 538 
Q 2691 219 2414 64 
Q 2138 -91 1772 -91 
Q 1169 -91 856 284 
Q 544 659 544 1381 
z
M 1991 3584 
L 1991 3584 
z
" transform="scale(0.015625)"/>
       <path id="DejaVuSans-2c" d="M 750 794 
L 1409 794 
L 1409 256 
L 897 -744 
L 494 -744 
L 750 256 
L 750 794 
z
" transform="scale(0.015625)"/>
       <path id="DejaVuSans-70" d="M 1159 525 
L 1159 -1331 
L 581 -1331 
L 581 3500 
L 1159 3500 
L 1159 2969 
Q 1341 3281 1617 3432 
Q 1894 3584 2278 3584 
Q 2916 3584 3314 3078 
Q 3713 2572 3713 1747 
Q 3713 922 3314 415 
Q 2916 -91 2278 -91 
Q 1894 -91 1617 61 
Q 1341 213 1159 525 
z
M 3116 1747 
Q 3116 2381 2855 2742 
Q 2594 3103 2138 3103 
Q 1681 3103 1420 2742 
Q 1159 2381 1159 1747 
Q 1159 1113 1420 752 
Q 1681 391 2138 391 
Q 2594 391 2855 752 
Q 3116 1113 3116 1747 
z
" transform="scale(0.015625)"/>
      </defs>
      <use xlink:href="#DejaVuSans-46"/>
      <use xlink:href="#DejaVuSans-72" x="50.269531"/>
      <use xlink:href="#DejaVuSans-61" x="91.382812"/>
      <use xlink:href="#DejaVuSans-63" x="152.662109"/>
      <use xlink:href="#DejaVuSans-74" x="207.642578"/>
      <use xlink:href="#DejaVuSans-69" x="246.851562"/>
      <use xlink:href="#DejaVuSans-6f" x="274.634766"/>
      <use xlink:href="#DejaVuSans-6e" x="335.816406"/>
      <use xlink:href="#DejaVuSans-20" x="399.195312"/>
      <use xlink:href="#DejaVuSans-6f" x="430.982422"/>
      <use xlink:href="#DejaVuSans-66" x="492.164062"/>
      <use xlink:href="#DejaVuSans-20" x="527.369141"/>
      <use xlink:href="#DejaVuSans-66" x="559.15625"/>
      <use xlink:href="#DejaVuSans-75" x="594.361328"/>
      <use xlink:href="#DejaVuSans-6e" x="657.740234"/>
      <use xlink:href="#DejaVuSans-63" x="721.119141"/>
      <use xlink:href="#DejaVuSans-74" x="776.099609"/>
      <use xlink:href="#DejaVuSans-69" x="815.308594"/>
      <use xlink:href="#DejaVuSans-6f" x="843.091797"/>
      <use xlink:href="#DejaVuSans-6e" x="904.273438"/>
      <use xlink:href="#DejaVuSans-2c" x="967.652344"/>
      <use xlink:href="#DejaVuSans-74" x="999.439453"/>
      <use xlink:href="#DejaVuSans-61" x="1038.648438"/>
      <use xlink:href="#DejaVuSans-72" x="1099.927734"/>
      <use xlink:href="#DejaVuSans-67" x="1139.291016"/>
      <use xlink:href="#DejaVuSans-65" x="1202.767578"/>
      <use xlink:href="#DejaVuSans-74" x="1264.291016"/>
      <use xlink:href="#DejaVuSans-20" x="1303.5"/>
      <use xlink:href="#DejaVuSans-70" x="1335.287109"/>
      <use xlink:href="#DejaVuSans-61" x="1398.763672"/>
      <use xlink:href="#DejaVuSans-69" x="1460.042969"/>
      <use xlink:href="#DejaVuSans-72" x="1487.826172"/>
      <use xlink:href="#DejaVuSans-73" x="1528.939453"/>
     </g>
    </g>
   </g>
   <g id="line2d_33">
    <defs>
     <path id="medaa1766d2" d="M 0 1.5 
C 0.397805 1.5 0.77937 1.341951 1.06066 1.06066 
C 1.341951 0.77937 1.5 0.397805 1.5 0 
C 1.5 -0.397805 1.341951 -0.77937 1.06066 -1.06066 
C 0.77937 -1.341951 0.397805 -1.5 0 -1.5 
C -0.397805 -1.5 -0.77937 -1.341951 -1.06066 -1.06066 
C -1.341951 -0.77937 -1.5 -0.397805 -1.5 0 
C -1.5 0.397805 -1.341951 0.77937 -1.06066 1.06066 
C -0.77937 1.341951 -0.397805 1.5 0 1.5 
z
" style="stroke: #f5deb3"/>
    </defs>
    <g>
     <use xlink:href="#medaa1766d2" x="157.703468" y="6.912" style="fill: #f5deb3; stroke: #f5deb3"/>
     <use xlink:href="#medaa1766d2" x="157.703468" y="6.912" style="fill: #f5deb3; stroke: #f5deb3"/>
    </g>
   </g>
   <g id="line2d_34">
    <defs>
     <path id="mb5aaebbf5b" d="M 0 1.5 
C 0.397805 1.5 0.77937 1.341951 1.06066 1.06066 
C 1.341951 0.77937 1.5 0.397805 1.5 0 
C 1.5 -0.397805 1.341951 -0.77937 1.06066 -1.06066 
C 0.77937 -1.341951 0.397805 -1.5 0 -1.5 
C -0.397805 -1.5 -0.77937 -1.341951 -1.06066 -1.06066 
C -1.341951 -0.77937 -1.5 -0.397805 -1.5 0 
C -1.5 0.397805 -1.341951 0.77937 -1.06066 1.06066 
C -0.77937 1.341951 -0.397805 1.5 0 1.5 
z
" style="stroke: #000080"/>
    </defs>
    <g>
     <use xlink:href="#mb5aaebbf5b" x="317.496548" y="6.912" style="fill: #000080; stroke: #000080"/>
     <use xlink:href="#mb5aaebbf5b" x="317.496548" y="6.912" style="fill: #000080; stroke: #000080"/>
    </g>
   </g>
   <g id="line2d_35">
    <path d="M 36.933397 298.944 
L 36.933397 298.275953 
L 49.972572 298.275953 
L 49.972572 297.703341 
L 57.6 297.703341 
L 57.6 297.226165 
L 63.011746 297.226165 
L 63.011746 296.367247 
L 67.209423 296.367247 
L 67.209423 295.985506 
L 70.639174 295.985506 
L 70.639174 295.508329 
L 76.050921 295.412894 
L 76.050921 294.172235 
L 78.266603 294.172235 
L 78.266603 293.408753 
L 82.04153 293.313318 
L 82.04153 291.977224 
L 83.678349 291.977224 
L 83.678349 291.309176 
L 86.578163 291.213741 
L 86.578163 291.118306 
L 90.230539 291.022871 
L 90.230539 290.832 
L 91.305777 290.832 
L 91.305777 290.163953 
L 93.287772 290.163953 
L 93.287772 289.114165 
L 94.205591 289.114165 
L 94.205591 288.350682 
L 95.916911 288.255247 
L 95.916911 287.968941 
L 96.717523 287.968941 
L 96.717523 287.778071 
L 97.485448 287.778071 
L 97.485448 287.396329 
L 98.223251 287.396329 
L 98.223251 287.205459 
L 98.933205 287.205459 
L 98.933205 286.919153 
L 100.277459 286.823718 
L 100.277459 286.251106 
L 100.9152 286.251106 
L 100.9152 285.869365 
L 101.532027 285.869365 
L 101.532027 285.678494 
L 102.708132 285.678494 
L 102.708132 285.487624 
L 105.850679 285.487624 
L 105.850679 285.296753 
L 108.119879 285.296753 
L 108.119879 284.915012 
L 108.542628 284.915012 
L 108.542628 284.3424 
L 110.144579 284.246965 
L 110.144579 283.292612 
L 111.262425 283.197176 
L 111.262425 282.72 
L 112.989468 282.624565 
L 112.989468 282.433694 
L 114.265316 282.338259 
L 114.265316 282.051953 
L 114.872193 282.051953 
L 114.872193 281.765647 
L 116.308887 281.670212 
L 116.308887 281.574776 
L 117.121023 281.479341 
L 117.121023 281.288471 
L 117.6436 281.193035 
L 117.6436 281.002165 
L 119.366121 280.906729 
L 119.366121 280.620424 
L 119.599808 280.620424 
L 119.599808 280.429553 
L 119.830627 280.429553 
L 119.830627 280.143247 
L 120.28394 280.047812 
L 120.28394 279.952376 
L 120.506564 279.952376 
L 120.506564 278.616282 
L 121.371615 278.616282 
L 121.371615 278.425412 
L 121.789667 278.425412 
L 121.789667 278.234541 
L 122.795872 278.139106 
L 122.795872 277.757365 
L 123.183753 277.757365 
L 123.183753 277.471059 
L 124.119844 277.471059 
L 124.119844 277.280188 
L 125.35673 277.184753 
L 125.35673 276.993882 
L 125.526971 276.993882 
L 125.526971 276.516706 
L 126.192937 276.421271 
L 126.192937 276.039529 
L 126.677381 276.039529 
L 126.677381 275.753224 
L 126.836129 275.753224 
L 126.836129 275.562353 
L 128.207619 275.562353 
L 128.207619 274.989741 
L 129.209231 274.894306 
L 129.209231 274.798871 
L 129.348062 274.798871 
L 129.348062 274.417129 
L 129.622688 274.417129 
L 129.622688 274.226259 
L 130.682774 274.130824 
L 130.682774 274.035388 
L 132.04923 273.939953 
L 132.04923 273.844518 
L 132.984158 273.749082 
L 132.984158 273.558212 
L 133.210806 273.462776 
L 133.210806 273.367341 
L 135.338671 273.271906 
L 135.338671 273.176471 
L 135.932769 273.176471 
L 135.932769 272.890165 
L 136.97549 272.890165 
L 137.067478 272.031247 
L 137.430998 271.935812 
L 137.430998 271.840376 
L 137.787626 271.840376 
L 137.787626 271.458635 
L 138.310202 271.458635 
L 138.310202 271.172329 
L 138.650692 271.076894 
L 138.650692 270.981459 
L 139.556456 270.886024 
L 139.556456 270.790588 
L 139.875304 270.790588 
L 139.875304 270.408847 
L 140.26641 270.408847 
L 140.26641 270.217976 
L 140.950542 270.217976 
L 140.950542 270.027106 
L 142.178603 270.027106 
L 142.178603 269.836235 
L 142.865233 269.7408 
L 142.865233 269.359059 
L 143.133017 269.359059 
L 143.199372 268.977318 
L 143.721949 268.881882 
L 143.786262 268.595576 
L 144.293001 268.595576 
L 144.293001 267.832094 
L 145.207843 267.832094 
L 145.26728 267.354918 
L 145.326529 267.354918 
L 145.326529 267.164047 
L 146.023332 267.068612 
L 146.023332 266.782306 
L 146.24998 266.782306 
L 146.24998 266.591435 
L 147.712333 266.496 
L 147.764371 266.114259 
L 148.428077 266.018824 
L 148.528138 265.732518 
L 149.73597 265.637082 
L 149.73597 265.255341 
L 150.515122 265.255341 
L 150.515122 264.396424 
L 150.78259 264.300988 
L 150.78259 264.110118 
L 150.958812 264.110118 
L 150.958812 263.919247 
L 151.435079 263.919247 
L 151.435079 263.728376 
L 152.515067 263.632941 
L 152.595631 263.346635 
L 153.150116 263.2512 
L 153.150116 263.060329 
L 153.764426 262.964894 
L 153.764426 262.869459 
L 153.914919 262.774024 
L 153.989717 262.296847 
L 154.027004 262.296847 
L 154.064218 262.010541 
L 154.17542 262.010541 
L 154.285968 260.674447 
L 154.322673 260.674447 
L 154.359307 260.197271 
L 154.505134 260.101835 
L 154.577625 259.624659 
L 154.757642 259.529224 
L 154.86483 258.956612 
L 154.900425 258.956612 
L 155.006805 258.193129 
L 155.112587 258.097694 
L 155.217778 257.620518 
L 155.28758 257.620518 
L 155.357123 256.666165 
L 155.529866 256.666165 
L 155.598521 255.902682 
L 155.735085 255.807247 
L 155.836861 254.662024 
L 155.870664 254.662024 
L 155.971711 253.612235 
L 156.038776 253.612235 
L 156.138926 252.562447 
L 156.271636 252.562447 
L 156.337642 251.703529 
L 156.468962 251.703529 
L 156.468962 250.940047 
L 156.599372 250.940047 
L 156.696589 250.272 
L 156.728884 250.272 
L 156.825436 249.508518 
L 156.88953 249.413082 
L 156.921495 249.031341 
L 157.080512 248.935906 
L 157.080512 248.840471 
L 157.332175 248.745035 
L 157.394569 248.267859 
L 157.549652 248.267859 
L 157.61133 247.313506 
L 157.703468 247.313506 
L 157.795157 246.550024 
L 157.916719 246.454588 
L 157.977206 245.595671 
L 158.187393 245.595671 
L 158.217229 244.641318 
L 158.483644 244.545882 
L 158.542339 243.591529 
L 158.600851 243.591529 
L 158.600851 243.400659 
L 158.804221 243.305224 
L 158.890711 242.255435 
L 158.948151 242.255435 
L 159.033983 241.491953 
L 159.062507 241.491953 
L 159.062507 241.110212 
L 159.345393 241.014776 
L 159.345393 240.633035 
L 159.513105 240.633035 
L 159.596403 239.964988 
L 159.734419 239.964988 
L 159.844108 238.247153 
L 159.953161 238.151718 
L 160.061585 237.579106 
L 160.088594 237.579106 
L 160.169388 237.197365 
L 160.303279 237.197365 
L 160.409709 236.624753 
L 160.568234 236.624753 
L 160.594526 235.861271 
L 160.725435 235.861271 
L 160.803545 235.097788 
L 160.984551 235.002353 
L 161.061595 234.143435 
L 161.138325 234.048 
L 161.138325 233.952565 
L 161.316153 233.952565 
L 161.316153 233.761694 
L 161.467251 233.761694 
L 161.467251 233.570824 
L 161.666845 233.570824 
L 161.74115 231.089506 
L 162.084079 230.994071 
L 162.132562 230.8032 
L 162.39701 230.707765 
L 162.39701 230.612329 
L 162.539702 230.516894 
L 162.56338 230.230588 
L 162.868502 230.135153 
L 162.938218 229.1808 
L 163.053839 229.085365 
L 163.053839 228.989929 
L 163.191653 228.989929 
L 163.237368 228.703624 
L 163.710781 228.608188 
L 163.79962 228.417318 
L 163.888041 228.417318 
L 163.888041 226.413176 
L 164.019898 226.413176 
L 164.019898 224.3136 
L 164.280872 224.218165 
L 164.388551 223.931859 
L 164.729041 223.836424 
L 164.771172 223.645553 
L 164.980424 223.645553 
L 165.084184 223.263812 
L 165.187374 223.263812 
L 165.228492 222.786635 
L 166.071841 222.6912 
L 166.150222 222.500329 
L 166.537305 222.404894 
L 166.613775 222.118588 
L 166.765788 222.023153 
L 166.8036 221.736847 
L 167.957371 221.641412 
L 167.992864 221.164235 
L 168.465585 221.0688 
L 168.569041 220.209882 
L 168.909839 220.114447 
L 168.909839 220.019012 
L 169.409732 219.923576 
L 169.409732 219.828141 
L 169.671008 219.828141 
L 169.671008 219.637271 
L 170.511445 219.637271 
L 170.573376 219.350965 
L 171.016381 219.350965 
L 171.016381 217.346824 
L 171.345629 217.251388 
L 171.345629 217.060518 
L 171.800001 216.965082 
L 171.872269 216.774212 
L 172.04459 216.678776 
L 172.130162 216.392471 
L 172.271923 216.297035 
L 172.271923 216.2016 
L 172.566188 216.106165 
L 172.566188 216.010729 
L 172.924252 215.915294 
L 173.033068 215.533553 
L 173.073712 215.533553 
L 173.18167 215.056376 
L 173.751559 214.960941 
L 173.855707 214.770071 
L 173.907565 214.770071 
L 173.907565 214.5792 
L 174.556523 214.483765 
L 174.594009 214.197459 
L 175.074644 214.102024 
L 175.074644 214.006588 
L 175.424244 213.911153 
L 175.424244 213.720282 
L 176.000573 213.624847 
L 176.000573 213.529412 
L 176.287954 213.529412 
L 176.287954 213.338541 
L 176.615906 213.243106 
L 176.615906 213.147671 
L 177.10282 213.052235 
L 177.10282 212.9568 
L 179.002704 212.9568 
L 179.022444 212.002447 
L 179.470823 211.907012 
L 179.470823 211.716141 
L 180.253768 211.620706 
L 180.253768 211.525271 
L 180.465085 211.525271 
L 180.556226 211.143529 
L 181.383339 211.048094 
L 181.435472 210.857224 
L 183.103358 210.761788 
L 183.103358 210.666353 
L 183.535105 210.570918 
L 183.573867 210.380047 
L 184.153434 210.284612 
L 184.153434 210.189176 
L 185.24035 210.093741 
L 185.325215 209.712 
L 186.414952 209.712 
L 186.414952 209.425694 
L 187.533055 209.330259 
L 187.533055 209.234824 
L 187.813318 209.139388 
L 187.813318 209.043953 
L 188.385623 208.948518 
L 188.493255 208.375906 
L 188.677189 208.280471 
L 188.677189 208.0896 
L 189.866887 207.994165 
L 189.900113 205.894588 
L 190.299733 205.799153 
L 190.353821 205.321976 
L 190.499084 205.321976 
L 190.579304 205.035671 
L 191.617446 204.940235 
L 191.708129 204.272188 
L 192.218791 204.176753 
L 192.238346 203.508706 
L 192.658706 203.413271 
L 192.711193 203.2224 
L 193.394303 203.126965 
L 193.394303 203.031529 
L 194.247683 202.936094 
L 194.247683 202.840659 
L 194.625883 202.840659 
L 194.625883 202.649788 
L 195.442807 202.554353 
L 195.442807 202.458918 
L 195.789856 202.363482 
L 195.789856 202.268047 
L 196.465316 202.172612 
L 196.469219 201.981741 
L 196.893616 201.886306 
L 196.893616 201.790871 
L 197.486923 201.695435 
L 197.568071 201.504565 
L 197.64154 201.409129 
L 197.64154 201.313694 
L 197.900059 201.218259 
L 197.900059 201.122824 
L 198.097907 201.027388 
L 198.190716 200.836518 
L 198.314932 200.741082 
L 198.314932 200.645647 
L 199.474093 200.550212 
L 199.474093 200.454776 
L 199.807049 200.454776 
L 199.911323 200.168471 
L 200.082764 200.073035 
L 200.082764 199.9776 
L 200.715997 199.882165 
L 200.715997 199.595859 
L 201.618687 199.500424 
L 201.618687 199.404988 
L 202.850554 199.309553 
L 202.942054 199.023247 
L 203.623815 198.927812 
L 203.623815 198.736941 
L 204.258532 198.641506 
L 204.258532 198.546071 
L 204.407525 198.546071 
L 204.407525 198.3552 
L 205.430807 198.259765 
L 205.529898 198.068894 
L 206.244137 197.973459 
L 206.244137 197.878024 
L 206.380562 197.878024 
L 206.380562 197.687153 
L 206.720752 197.591718 
L 206.750144 197.400847 
L 206.965777 197.305412 
L 206.965777 197.209976 
L 207.574462 197.114541 
L 207.574462 197.019106 
L 208.283135 196.923671 
L 208.283135 196.828235 
L 210.636668 196.7328 
L 210.636668 196.637365 
L 210.830433 196.541929 
L 210.917524 196.255624 
L 211.196032 196.160188 
L 211.196032 196.064753 
L 211.88596 196.064753 
L 211.88596 195.873882 
L 212.823337 195.778447 
L 212.823337 195.683012 
L 213.900938 195.587576 
L 213.900938 195.492141 
L 214.553708 195.396706 
L 214.553708 195.301271 
L 215.035383 195.205835 
L 215.035383 195.1104 
L 216.317048 195.014965 
L 216.317048 194.919529 
L 216.869915 194.824094 
L 216.877829 194.633224 
L 217.566575 194.537788 
L 217.566575 194.442353 
L 218.050977 194.346918 
L 218.050977 194.251482 
L 218.55581 194.156047 
L 218.63044 193.965176 
L 219.012166 193.869741 
L 219.030992 193.678871 
L 219.665792 193.583435 
L 219.665792 193.488 
L 220.09963 193.392565 
L 220.09963 193.297129 
L 220.724664 193.201694 
L 220.724664 193.106259 
L 221.290006 193.010824 
L 221.290006 192.915388 
L 221.53969 192.915388 
L 221.53969 192.724518 
L 221.742374 192.629082 
L 221.742374 192.533647 
L 222.155256 192.438212 
L 222.190086 192.247341 
L 222.450745 192.151906 
L 222.456627 191.961035 
L 222.764821 191.8656 
L 222.764821 191.770165 
L 223.663895 191.674729 
L 223.663895 191.579294 
L 224.35876 191.483859 
L 224.407425 191.292988 
L 224.613949 191.292988 
L 224.672417 191.006682 
L 225.458248 190.911247 
L 225.458248 190.624941 
L 225.69079 190.529506 
L 225.69079 190.434071 
L 226.841766 190.338635 
L 226.841766 190.2432 
L 227.360939 190.147765 
L 227.360939 190.052329 
L 227.603324 189.956894 
L 227.603324 189.861459 
L 228.139163 189.766024 
L 228.139163 189.670588 
L 228.593079 189.575153 
L 228.654522 189.384282 
L 229.524603 189.288847 
L 229.524603 189.193412 
L 229.990702 189.097976 
L 230.100059 188.907106 
L 230.645751 188.811671 
L 230.745067 188.6208 
L 231.056671 188.525365 
L 231.056671 188.429929 
L 231.235162 188.429929 
L 231.272008 188.143624 
L 231.419282 188.048188 
L 231.511579 187.666447 
L 231.923772 187.571012 
L 231.923772 187.475576 
L 232.138252 187.380141 
L 232.158161 187.189271 
L 232.556574 187.189271 
L 232.556574 186.9984 
L 232.750392 186.902965 
L 232.750392 186.807529 
L 232.873621 186.712094 
L 232.873621 186.616659 
L 233.065889 186.521224 
L 233.086512 185.853176 
L 233.4129 185.757741 
L 233.520993 183.180988 
L 233.641455 183.180988 
L 233.701938 182.703812 
L 234.401006 182.608376 
L 234.417103 182.417506 
L 234.780021 182.322071 
L 234.780021 182.226635 
L 235.28535 182.1312 
L 235.28535 182.035765 
L 235.667535 182.035765 
L 235.667535 181.844894 
L 235.951436 181.749459 
L 236.01543 181.558588 
L 236.501588 181.463153 
L 236.552624 181.272282 
L 236.730169 181.176847 
L 236.730169 181.081412 
L 237.015322 180.985976 
L 237.124859 180.699671 
L 237.230632 180.604235 
L 237.328258 180.317929 
L 237.450575 180.222494 
L 237.450575 180.127059 
L 237.64307 180.031624 
L 237.746847 179.554447 
L 237.803725 179.459012 
L 237.830584 179.268141 
L 237.949689 179.172706 
L 238.042378 178.695529 
L 238.066761 178.600094 
L 238.174186 178.122918 
L 238.204766 178.027482 
L 238.307187 177.264 
L 238.330808 177.264 
L 238.440093 176.691388 
L 238.483629 176.595953 
L 238.571234 175.355294 
L 238.647658 175.259859 
L 238.755534 174.591812 
L 238.816021 174.591812 
L 238.874266 173.923765 
L 238.968633 173.828329 
L 239.079147 173.064847 
L 239.082387 172.969412 
L 239.150714 172.492235 
L 239.264579 172.3968 
L 239.359807 171.251576 
L 239.410824 171.156141 
L 239.51284 168.865694 
L 239.554361 168.770259 
L 239.662281 167.5296 
L 239.705825 167.434165 
L 239.811713 166.002635 
L 239.847525 165.9072 
L 239.956102 164.093929 
L 239.978514 163.998494 
L 240.054826 162.948706 
L 240.099774 162.853271 
L 240.208434 160.849129 
L 240.219494 160.753694 
L 240.328605 158.367812 
L 240.357771 158.272376 
L 240.465708 157.222588 
L 240.48301 157.127153 
L 240.590981 155.695624 
L 240.605928 155.600188 
L 240.71654 154.073224 
L 240.722851 153.977788 
L 240.833887 150.446682 
L 240.842741 150.351247 
L 240.950506 148.728847 
L 240.997025 148.633412 
L 241.106095 147.201882 
L 241.128633 147.106447 
L 241.239111 145.388612 
L 241.253913 145.293176 
L 241.364019 143.766212 
L 241.370835 143.670776 
L 241.480261 141.094024 
L 241.518018 140.998588 
L 241.586572 139.9488 
L 241.630485 139.9488 
L 241.734898 137.944659 
L 241.766882 137.849224 
L 241.873336 135.272471 
L 241.894974 135.177035 
L 241.986829 132.695718 
L 242.013536 132.600282 
L 242.12102 130.500706 
L 242.126878 130.500706 
L 242.237486 127.733082 
L 242.24228 127.637647 
L 242.350171 125.156329 
L 242.386564 125.060894 
L 242.493295 122.961318 
L 242.508155 122.865882 
L 242.59808 119.525647 
L 242.660136 119.430212 
L 242.749672 117.998682 
L 242.77432 117.998682 
L 242.871596 115.135624 
L 242.886491 115.135624 
L 242.996353 112.368 
L 243.023636 112.272565 
L 243.13107 110.7456 
L 243.184231 110.650165 
L 243.295287 107.596235 
L 243.296906 107.596235 
L 243.405047 105.401224 
L 243.434316 105.305788 
L 243.542312 103.397082 
L 243.556686 103.301647 
L 243.644924 101.965553 
L 243.697606 101.870118 
L 243.796541 100.724894 
L 243.829299 100.629459 
L 243.910631 98.720753 
L 243.973821 98.625318 
L 244.071628 96.525741 
L 244.119722 96.430306 
L 244.228794 94.712471 
L 244.241422 94.617035 
L 244.339688 93.185506 
L 244.354078 93.090071 
L 244.453891 91.753976 
L 244.478533 91.753976 
L 244.57527 90.227012 
L 244.622396 90.131576 
L 244.7307 87.745694 
L 244.757979 87.650259 
L 244.865806 85.741553 
L 244.880096 85.646118 
L 244.95287 84.214588 
L 244.996103 84.119153 
L 245.088161 81.828706 
L 245.109341 81.828706 
L 245.214593 79.442824 
L 245.223947 79.442824 
L 245.318679 78.106729 
L 245.335244 78.106729 
L 245.424215 76.388894 
L 245.518522 76.293459 
L 245.610641 74.003012 
L 245.637817 74.003012 
L 245.741867 72.476047 
L 245.768003 72.380612 
L 245.876137 70.949082 
L 245.882063 70.853647 
L 245.9786 69.231247 
L 246.029623 69.231247 
L 246.123458 67.417976 
L 246.163252 67.417976 
L 246.243419 65.700141 
L 246.295386 65.604706 
L 246.405479 63.982306 
L 246.413984 63.982306 
L 246.522569 62.359906 
L 246.544102 62.264471 
L 246.629446 61.596424 
L 246.666832 61.596424 
L 246.748389 61.214682 
L 246.841664 61.119247 
L 246.946749 60.642071 
L 246.961941 60.546635 
L 247.002661 60.164894 
L 247.113461 60.069459 
L 247.182315 59.305976 
L 247.240683 59.210541 
L 247.322148 57.492706 
L 247.376957 57.397271 
L 247.481952 56.920094 
L 247.545858 56.824659 
L 247.650945 55.584 
L 247.727074 55.584 
L 247.822759 54.152471 
L 247.853022 54.057035 
L 247.938714 53.484424 
L 248.009406 53.388988 
L 248.085106 52.911812 
L 248.171248 52.816376 
L 248.273157 52.148329 
L 248.329232 52.052894 
L 248.435958 51.575718 
L 248.527623 51.575718 
L 248.617867 50.239624 
L 248.656376 50.144188 
L 248.764899 48.998965 
L 248.797068 48.903529 
L 248.891082 47.949176 
L 248.917034 47.853741 
L 249.024784 44.990682 
L 249.032661 44.895247 
L 249.140227 42.986541 
L 249.170339 42.986541 
L 249.247181 42.318494 
L 249.316188 42.223059 
L 249.40063 40.9824 
L 249.434301 40.886965 
L 249.481899 40.696094 
L 249.585311 40.600659 
L 249.680089 39.837176 
L 249.770032 39.741741 
L 249.835779 39.264565 
L 249.886479 39.264565 
L 249.970902 37.260424 
L 250.073249 37.260424 
L 250.177961 36.687812 
L 250.188288 36.592376 
L 250.274499 36.1152 
L 250.449508 36.019765 
L 250.535414 35.828894 
L 250.601838 35.733459 
L 250.675903 35.160847 
L 250.761002 35.160847 
L 250.785152 34.4928 
L 250.876684 34.4928 
L 250.960881 34.206494 
L 251.112988 34.111059 
L 251.127085 33.920188 
L 251.648659 33.824753 
L 251.648659 33.729318 
L 252.687901 33.633882 
L 252.774364 33.252141 
L 252.877559 33.156706 
L 252.93777 32.965835 
L 253.144511 32.8704 
L 253.144511 32.774965 
L 253.609584 32.679529 
L 253.716125 32.393224 
L 253.802815 32.297788 
L 253.865679 31.916047 
L 259.557652 31.820612 
L 259.656142 31.629741 
L 259.678787 31.629741 
L 259.788776 28.671247 
L 260.827288 28.575812 
L 260.827288 28.480376 
L 270.863492 28.480376 
L 270.863492 28.289506 
L 274.215525 28.194071 
L 274.310958 23.517741 
L 274.326702 23.517741 
L 274.409253 21.704471 
L 275.299616 21.609035 
L 275.326532 21.418165 
L 276.216689 21.322729 
L 276.239404 19.604894 
L 278.562795 19.604894 
L 278.639169 18.745976 
L 281.329862 18.745976 
L 281.417667 16.6464 
L 287.238925 16.550965 
L 287.32406 13.878776 
L 288.263177 13.878776 
L 288.275154 13.019859 
L 289.536156 13.019859 
L 289.536156 12.828988 
L 291.148264 12.828988 
L 291.148697 12.160941 
L 294.858439 12.160941 
L 294.916741 9.679624 
L 296.421293 9.584188 
L 296.450887 9.393318 
L 297.553806 9.393318 
L 297.553806 9.202447 
L 300.26781 9.107012 
L 300.309292 8.725271 
L 304.461529 8.629835 
L 304.49553 8.057224 
L 306.125152 7.961788 
L 306.125152 7.866353 
L 307.890219 7.770918 
L 307.920739 7.389176 
L 310.788379 7.293741 
L 310.792749 7.007435 
L 360.8064 6.912 
L 360.8064 6.912 
" style="fill: none; stroke: #000080; stroke-width: 1.5; stroke-linecap: square"/>
   </g>
   <g id="line2d_36">
    <defs>
     <path id="m9f53090773" d="M 0 6 
C 1.591219 6 3.117479 5.367802 4.242641 4.242641 
C 5.367802 3.117479 6 1.591219 6 0 
C 6 -1.591219 5.367802 -3.117479 4.242641 -4.242641 
C 3.117479 -5.367802 1.591219 -6 0 -6 
C -1.591219 -6 -3.117479 -5.367802 -4.242641 -4.242641 
C -5.367802 -3.117479 -6 -1.591219 -6 0 
C -6 1.591219 -5.367802 3.117479 -4.242641 4.242641 
C -3.117479 5.367802 -1.591219 6 0 6 
z
" style="stroke: #000080; stroke-width: 1.5"/>
    </defs>
    <g>
     <use xlink:href="#m9f53090773" x="157.549652" y="247.981553" style="fill-opacity: 0; stroke: #000080; stroke-width: 1.5"/>
     <use xlink:href="#m9f53090773" x="239.925144" y="164.761976" style="fill-opacity: 0; stroke: #000080; stroke-width: 1.5"/>
     <use xlink:href="#m9f53090773" x="259.954967" y="28.671247" style="fill-opacity: 0; stroke: #000080; stroke-width: 1.5"/>
     <use xlink:href="#m9f53090773" x="317.496548" y="6.912" style="fill-opacity: 0; stroke: #000080; stroke-width: 1.5"/>
     <use xlink:href="#m9f53090773" x="317.496548" y="6.912" style="fill-opacity: 0; stroke: #000080; stroke-width: 1.5"/>
     <use xlink:href="#m9f53090773" x="360.8064" y="6.912" style="fill-opacity: 0; stroke: #000080; stroke-width: 1.5"/>
    </g>
   </g>
   <g id="line2d_37">
    <path style="fill: none; stroke: #000080; stroke-width: 1.5; stroke-linecap: square"/>
    <g/>
   </g>
   <g id="line2d_38">
    <path d="M 274.176 28.289506 
" clip-path="url(#pda3ad7ea94)" style="fill: none; stroke: #000080; stroke-width: 1.5; stroke-linecap: square"/>
    <defs>
     <path id="m499573dec4" d="M -12 12 
L 12 -12 
M -12 -12 
L 12 12 
" style="stroke: #000080"/>
    </defs>
    <g clip-path="url(#pda3ad7ea94)">
     <use xlink:href="#m499573dec4" x="274.176" y="28.289506" style="fill: #000080; stroke: #000080"/>
    </g>
   </g>
   <g id="line2d_39">
    <defs>
     <path id="mef19267879" d="M 0 1.5 
C 0.397805 1.5 0.77937 1.341951 1.06066 1.06066 
C 1.341951 0.77937 1.5 0.397805 1.5 0 
C 1.5 -0.397805 1.341951 -0.77937 1.06066 -1.06066 
C 0.77937 -1.341951 0.397805 -1.5 0 -1.5 
C -0.397805 -1.5 -0.77937 -1.341951 -1.06066 -1.06066 
C -1.341951 -0.77937 -1.5 -0.397805 -1.5 0 
C -1.5 0.397805 -1.341951 0.77937 -1.06066 1.06066 
C -0.77937 1.341951 -0.397805 1.5 0 1.5 
z
" style="stroke: #ff00ff"/>
    </defs>
    <g>
     <use xlink:href="#mef19267879" x="368.566076" y="99.961412" style="fill: #ff00ff; stroke: #ff00ff"/>
     <use xlink:href="#mef19267879" x="368.566076" y="99.961412" style="fill: #ff00ff; stroke: #ff00ff"/>
    </g>
   </g>
   <g id="line2d_40">
    <path d="M 36.933397 298.944 
L 36.933397 298.371388 
L 49.972572 298.371388 
L 49.972572 297.130729 
L 57.6 297.130729 
L 57.6 296.462682 
L 63.011746 296.462682 
L 63.011746 293.790494 
L 67.209423 293.790494 
L 67.209423 292.836141 
L 70.639174 292.836141 
L 70.639174 292.549835 
L 78.266603 292.549835 
L 78.266603 292.072659 
L 80.248597 292.072659 
L 80.248597 291.690918 
L 82.04153 291.690918 
L 82.04153 290.927435 
L 83.678349 290.927435 
L 83.678349 290.450259 
L 85.184077 290.450259 
L 85.184077 289.973082 
L 86.578163 289.973082 
L 86.578163 289.495906 
L 90.230539 289.495906 
L 90.230539 288.255247 
L 92.322865 288.159812 
L 92.322865 287.778071 
L 93.287772 287.778071 
L 93.287772 287.110024 
L 94.205591 287.110024 
L 94.205591 286.823718 
L 95.080704 286.823718 
L 95.080704 286.537412 
L 98.223251 286.441976 
L 98.223251 286.251106 
L 100.277459 286.155671 
L 100.277459 285.678494 
L 100.9152 285.678494 
L 100.9152 284.3424 
L 101.532027 284.3424 
L 101.532027 283.483482 
L 102.708132 283.483482 
L 102.708132 283.292612 
L 103.269713 283.292612 
L 103.269713 282.910871 
L 105.850679 282.910871 
L 105.850679 281.861082 
L 106.326946 281.861082 
L 106.326946 281.479341 
L 107.68741 281.479341 
L 107.68741 280.715859 
L 108.119879 280.715859 
L 108.119879 280.334118 
L 108.542628 280.334118 
L 108.542628 279.570635 
L 108.956085 279.570635 
L 108.956085 279.284329 
L 110.144579 279.284329 
L 110.144579 278.998024 
L 111.620752 278.902588 
L 111.620752 278.520847 
L 112.656511 278.520847 
L 112.656511 278.234541 
L 113.954374 278.234541 
L 113.954374 277.948235 
L 114.265316 277.948235 
L 114.265316 277.184753 
L 117.121023 277.089318 
L 117.121023 276.803012 
L 117.6436 276.803012 
L 117.6436 276.421271 
L 118.401214 276.421271 
L 118.401214 276.2304 
L 119.599808 276.134965 
L 119.599808 275.944094 
L 119.830627 275.944094 
L 119.830627 275.180612 
L 120.506564 275.180612 
L 120.506564 274.798871 
L 120.726585 274.798871 
L 120.726585 274.608 
L 120.944062 274.608 
L 120.944062 274.226259 
L 121.99526 274.130824 
L 121.99526 273.939953 
L 122.990812 273.844518 
L 122.990812 273.558212 
L 123.750979 273.558212 
L 123.750979 273.176471 
L 126.192937 273.081035 
L 126.192937 272.890165 
L 126.677381 272.890165 
L 126.677381 271.935812 
L 127.761474 271.935812 
L 127.761474 271.649506 
L 128.060076 271.554071 
L 128.060076 271.267765 
L 128.928456 271.267765 
L 128.928456 270.886024 
L 129.485876 270.790588 
L 129.485876 270.504282 
L 129.622688 270.504282 
L 129.622688 270.313412 
L 130.027253 270.313412 
L 130.027253 270.122541 
L 130.4233 270.122541 
L 130.4233 269.931671 
L 130.682774 269.931671 
L 130.682774 269.7408 
L 131.563744 269.7408 
L 131.563744 269.359059 
L 131.808053 269.359059 
L 131.808053 268.977318 
L 132.869802 268.881882 
L 132.869802 268.786447 
L 133.210806 268.786447 
L 133.210806 268.213835 
L 133.434756 268.213835 
L 133.434756 268.022965 
L 134.41079 267.927529 
L 134.516177 267.736659 
L 134.828842 267.736659 
L 134.828842 267.068612 
L 136.222928 267.068612 
L 136.222928 266.877741 
L 137.787626 266.782306 
L 137.787626 266.496 
L 139.475893 266.400565 
L 139.475893 265.732518 
L 141.393187 265.637082 
L 141.465959 265.350776 
L 141.825656 265.255341 
L 141.825656 265.064471 
L 142.932537 265.064471 
L 142.932537 264.587294 
L 143.657415 264.491859 
L 143.721949 264.205553 
L 144.786447 264.110118 
L 144.786447 263.823812 
L 145.207843 263.823812 
L 145.207843 263.537506 
L 146.750169 263.537506 
L 146.750169 262.678588 
L 147.868016 262.583153 
L 147.868016 262.487718 
L 148.377845 262.487718 
L 148.377845 262.201412 
L 149.020615 262.201412 
L 149.020615 262.010541 
L 149.968501 261.915106 
L 149.968501 261.819671 
L 150.515122 261.724235 
L 150.559965 260.865318 
L 153.032666 260.769882 
L 153.032666 260.674447 
L 153.189104 260.674447 
L 153.189104 260.0064 
L 153.38284 260.0064 
L 153.38284 259.529224 
L 153.49813 259.529224 
L 153.49813 259.242918 
L 154.757642 259.147482 
L 154.757642 258.670306 
L 155.460959 258.670306 
L 155.460959 258.479435 
L 156.631834 258.384 
L 156.631834 258.193129 
L 157.080512 258.193129 
L 157.080512 257.715953 
L 158.247018 257.620518 
L 158.247018 257.238776 
L 158.890711 257.143341 
L 158.890711 257.047906 
L 159.232748 257.047906 
L 159.232748 256.7616 
L 159.345393 256.7616 
L 159.345393 256.570729 
L 161.163832 256.475294 
L 161.265517 256.093553 
L 161.366654 256.093553 
L 161.366654 255.616376 
L 161.96232 255.616376 
L 161.96232 255.425506 
L 163.710781 255.330071 
L 163.821764 255.1392 
L 164.474253 255.1392 
L 164.474253 254.948329 
L 165.35131 254.852894 
L 165.35131 254.662024 
L 166.306012 254.566588 
L 166.306012 254.089412 
L 167.066179 254.089412 
L 167.066179 253.898541 
L 167.398482 253.898541 
L 167.398482 253.612235 
L 167.904005 253.612235 
L 167.904005 253.421365 
L 168.6034 253.325929 
L 168.6034 253.135059 
L 168.909839 253.135059 
L 168.909839 252.944188 
L 169.277721 252.944188 
L 169.277721 252.657882 
L 171.15177 252.562447 
L 171.15177 252.371576 
L 172.28604 252.276141 
L 172.28604 252.085271 
L 172.440637 252.085271 
L 172.440637 251.8944 
L 175.614382 251.798965 
L 175.614382 251.608094 
L 175.837702 251.608094 
L 175.837702 251.321788 
L 176.458298 251.226353 
L 176.492182 250.749176 
L 176.872001 250.749176 
L 176.872001 250.558306 
L 177.915264 250.462871 
L 177.915264 250.367435 
L 179.354881 250.367435 
L 179.354881 249.890259 
L 180.59256 249.890259 
L 180.59256 249.699388 
L 183.457339 249.603953 
L 183.566121 249.413082 
L 185.709351 249.413082 
L 185.79213 248.935906 
L 185.942953 248.935906 
L 185.942953 248.554165 
L 186.153443 248.458729 
L 186.153443 248.363294 
L 186.514572 248.363294 
L 186.514572 248.172424 
L 186.966149 248.076988 
L 187.017812 247.790682 
L 187.331185 247.790682 
L 187.331185 247.599812 
L 187.589442 247.504376 
L 187.589442 247.218071 
L 187.862709 247.122635 
L 187.862709 246.931765 
L 187.997867 246.931765 
L 188.071183 246.359153 
L 188.841791 246.263718 
L 188.929382 245.786541 
L 188.999162 245.691106 
L 189.051328 245.4048 
L 189.22991 245.309365 
L 189.22991 245.213929 
L 189.452198 245.213929 
L 189.452198 244.927624 
L 189.615802 244.927624 
L 189.711051 244.450447 
L 190.037927 244.450447 
L 190.037927 244.259576 
L 190.261779 244.259576 
L 190.261779 244.068706 
L 191.718178 243.973271 
L 191.748292 243.686965 
L 192.649148 243.591529 
L 192.649148 243.305224 
L 193.435612 243.305224 
L 193.435612 243.114353 
L 193.879643 243.018918 
L 193.879643 242.923482 
L 194.124328 242.923482 
L 194.186107 242.446306 
L 194.370235 242.350871 
L 194.426863 241.969129 
L 195.000848 241.969129 
L 195.000848 241.778259 
L 195.451047 241.778259 
L 195.451047 241.491953 
L 195.814113 241.396518 
L 195.814113 241.301082 
L 196.809499 241.205647 
L 196.866892 240.919341 
L 197.245102 240.823906 
L 197.338479 240.251294 
L 197.560709 240.155859 
L 197.560709 239.869553 
L 197.961435 239.774118 
L 198.008234 239.583247 
L 198.318469 239.583247 
L 198.318469 239.296941 
L 198.487467 239.296941 
L 198.553946 238.9152 
L 198.648012 238.819765 
L 198.703534 238.151718 
L 198.910295 238.056282 
L 198.944535 237.579106 
L 199.296986 237.483671 
L 199.400779 237.2928 
L 199.507323 237.197365 
L 199.603359 236.624753 
L 200.056986 236.529318 
L 200.147055 235.6704 
L 200.778163 235.574965 
L 200.877204 235.288659 
L 201.292406 235.193224 
L 201.349689 234.716047 
L 201.538391 234.716047 
L 201.57412 234.143435 
L 201.677945 234.143435 
L 201.766484 233.666259 
L 202.168481 233.570824 
L 202.243267 233.284518 
L 202.691452 233.189082 
L 202.775357 232.711906 
L 202.980738 232.711906 
L 202.980738 231.948424 
L 203.701015 231.852988 
L 203.701015 231.471247 
L 203.854471 231.471247 
L 203.907098 230.994071 
L 204.001458 230.898635 
L 204.001458 230.516894 
L 204.679332 230.421459 
L 204.679332 230.135153 
L 206.022369 230.039718 
L 206.022369 229.944282 
L 206.516005 229.848847 
L 206.516005 229.753412 
L 206.643665 229.657976 
L 206.66864 229.1808 
L 206.788509 229.1808 
L 206.797525 228.703624 
L 206.90762 228.703624 
L 206.923295 228.035576 
L 207.094868 227.940141 
L 207.176758 227.749271 
L 207.308801 227.749271 
L 207.308801 227.5584 
L 207.62844 227.462965 
L 207.718777 226.508612 
L 207.917279 226.413176 
L 207.917279 226.031435 
L 208.141002 225.936 
L 208.141002 225.840565 
L 208.322657 225.745129 
L 208.322657 225.649694 
L 208.574472 225.649694 
L 208.62566 225.077082 
L 208.98414 224.981647 
L 208.98414 224.886212 
L 209.276755 224.886212 
L 209.276755 224.695341 
L 209.584329 224.695341 
L 209.601809 224.409035 
L 209.904156 224.3136 
L 209.974708 224.027294 
L 210.299248 224.027294 
L 210.405576 221.164235 
L 210.753897 221.0688 
L 210.753897 220.687059 
L 210.921144 220.687059 
L 210.932 220.114447 
L 211.126343 220.019012 
L 211.23167 219.4464 
L 211.290326 219.350965 
L 211.290326 219.255529 
L 211.60534 219.160094 
L 211.636728 218.682918 
L 211.976866 218.587482 
L 212.082655 218.301176 
L 212.16076 218.301176 
L 212.230104 218.014871 
L 212.319366 218.014871 
L 212.319366 217.728565 
L 212.509941 217.633129 
L 212.589609 217.251388 
L 212.841322 217.155953 
L 212.937495 215.915294 
L 213.1766 215.819859 
L 213.192647 215.247247 
L 213.322123 215.247247 
L 213.342821 214.770071 
L 213.925637 214.674635 
L 213.925637 214.5792 
L 214.154105 214.483765 
L 214.154105 214.388329 
L 214.310432 214.388329 
L 214.405413 214.006588 
L 214.514875 214.006588 
L 214.514875 213.815718 
L 214.634105 213.815718 
L 214.640047 210.761788 
L 214.92014 210.666353 
L 215.012099 210.380047 
L 215.482323 210.284612 
L 215.482323 209.807435 
L 215.644937 209.712 
L 215.644937 209.043953 
L 215.881388 209.043953 
L 215.881388 208.853082 
L 216.175227 208.757647 
L 216.206684 208.566776 
L 216.399736 208.471341 
L 216.399736 206.562635 
L 216.58681 206.4672 
L 216.618923 205.417412 
L 216.724243 205.321976 
L 216.793247 201.122824 
L 217.026247 201.122824 
L 217.044554 200.168471 
L 217.138423 200.168471 
L 217.19815 199.691294 
L 217.386474 199.595859 
L 217.386474 199.309553 
L 217.777681 199.214118 
L 217.816608 198.641506 
L 217.949111 198.641506 
L 217.949111 198.259765 
L 218.111585 198.259765 
L 218.116524 197.591718 
L 218.915388 197.496282 
L 218.947309 197.019106 
L 219.280991 197.019106 
L 219.280991 194.919529 
L 219.607716 194.919529 
L 219.640762 194.251482 
L 219.970303 194.251482 
L 220.009418 193.392565 
L 220.110738 193.297129 
L 220.181671 190.434071 
L 220.236901 190.434071 
L 220.236901 190.052329 
L 220.821144 190.052329 
L 220.821144 189.861459 
L 221.147628 189.766024 
L 221.215811 189.575153 
L 221.506727 189.479718 
L 221.506727 189.288847 
L 222.082403 189.193412 
L 222.148282 188.334494 
L 222.730074 188.239059 
L 222.730074 188.048188 
L 223.105963 188.048188 
L 223.105963 187.857318 
L 223.4494 187.857318 
L 223.4494 185.185129 
L 223.695125 185.185129 
L 223.712555 183.276424 
L 224.454201 183.180988 
L 224.454201 183.085553 
L 224.715063 182.990118 
L 224.741125 182.322071 
L 225.190613 182.322071 
L 225.298799 181.463153 
L 225.570725 181.367718 
L 225.677579 181.176847 
L 225.72872 181.176847 
L 225.788756 178.981835 
L 225.891932 178.8864 
L 225.891932 178.313788 
L 226.1442 178.218353 
L 226.216577 177.741176 
L 226.27828 177.741176 
L 226.31185 176.786824 
L 226.940112 176.786824 
L 226.940112 176.595953 
L 227.332217 176.500518 
L 227.332217 176.405082 
L 227.466381 176.405082 
L 227.467883 174.400941 
L 228.063647 174.305506 
L 228.063647 174.114635 
L 228.193435 174.114635 
L 228.193435 173.923765 
L 228.338115 173.923765 
L 228.372501 171.537882 
L 228.696779 171.442447 
L 228.696779 171.347012 
L 229.138279 171.347012 
L 229.138279 171.156141 
L 229.291581 171.156141 
L 229.373875 170.583529 
L 229.780028 170.488094 
L 229.780028 170.392659 
L 229.96836 170.297224 
L 229.96836 170.201788 
L 230.234732 170.106353 
L 230.234732 170.010918 
L 230.748222 169.915482 
L 230.748222 169.629176 
L 230.881481 169.629176 
L 230.881481 169.342871 
L 231.066597 169.342871 
L 231.066597 169.056565 
L 231.290404 169.056565 
L 231.290404 168.770259 
L 231.521268 168.770259 
L 231.521268 168.579388 
L 231.726591 168.483953 
L 231.820972 168.006776 
L 231.921402 168.006776 
L 231.921402 167.815906 
L 232.71747 167.720471 
L 232.754928 165.334588 
L 233.225269 165.334588 
L 233.225269 165.048282 
L 233.47412 164.952847 
L 233.563949 164.666541 
L 234.11679 164.571106 
L 234.165773 164.093929 
L 234.234032 163.998494 
L 234.234032 163.903059 
L 234.470488 163.903059 
L 234.470488 163.616753 
L 235.135072 163.521318 
L 235.135072 163.425882 
L 235.445252 163.425882 
L 235.445252 163.139576 
L 235.820381 163.139576 
L 235.820381 162.948706 
L 235.981072 162.853271 
L 235.981072 162.566965 
L 236.099628 162.566965 
L 236.197621 162.185224 
L 236.621997 162.089788 
L 236.621997 161.994353 
L 236.791116 161.994353 
L 236.886491 161.612612 
L 237.195739 161.612612 
L 237.195739 161.421741 
L 237.975052 161.326306 
L 237.975052 161.230871 
L 238.204766 161.230871 
L 238.204766 161.04 
L 238.746053 161.04 
L 238.746053 160.849129 
L 239.156363 160.849129 
L 239.159187 160.562824 
L 239.506901 160.467388 
L 239.506901 160.276518 
L 239.83819 160.276518 
L 239.83819 159.990212 
L 241.45707 159.894776 
L 241.45707 159.799341 
L 241.65099 159.703906 
L 241.65099 159.513035 
L 242.290156 159.4176 
L 242.302789 159.226729 
L 242.99734 159.131294 
L 242.99734 159.035859 
L 243.168918 159.035859 
L 243.168918 158.844988 
L 244.348875 158.749553 
L 244.348875 158.654118 
L 244.703983 158.558682 
L 244.703983 158.463247 
L 244.95702 158.367812 
L 244.95702 158.272376 
L 245.786163 158.176941 
L 245.793536 157.7952 
L 246.024023 157.7952 
L 246.024023 157.318024 
L 246.231235 157.222588 
L 246.231235 157.127153 
L 246.624565 157.031718 
L 246.624565 156.936282 
L 247.215202 156.840847 
L 247.215202 156.745412 
L 247.416009 156.649976 
L 247.445374 156.268235 
L 247.840567 156.1728 
L 247.840567 156.077365 
L 248.995393 155.981929 
L 248.995393 155.886494 
L 250.434229 155.791059 
L 250.46013 155.123012 
L 253.202728 155.123012 
L 253.202728 154.645835 
L 253.912506 154.5504 
L 253.912506 154.454965 
L 254.719117 154.359529 
L 254.719117 154.073224 
L 254.938507 154.073224 
L 254.938507 153.882353 
L 259.477693 153.786918 
L 259.477693 153.691482 
L 259.902144 153.596047 
L 259.902144 153.214306 
L 263.814322 153.118871 
L 263.814322 152.832565 
L 267.836977 152.737129 
L 267.836977 152.450824 
L 271.242442 152.450824 
L 271.242442 152.259953 
L 274.867682 152.164518 
L 274.957525 151.114729 
L 275.024536 151.114729 
L 275.128007 148.156235 
L 275.178251 148.156235 
L 275.286025 146.629271 
L 275.451401 146.533835 
L 275.555062 145.484047 
L 275.609817 145.388612 
L 275.712727 144.243388 
L 275.752615 144.243388 
L 275.849987 142.907294 
L 275.899201 142.811859 
L 275.906123 142.525553 
L 276.054813 142.525553 
L 276.125102 141.666635 
L 276.212019 141.666635 
L 276.288339 140.998588 
L 276.357092 140.903153 
L 276.393131 140.616847 
L 276.636994 140.521412 
L 276.706296 140.235106 
L 276.978333 140.139671 
L 277.004949 139.757929 
L 277.411199 139.662494 
L 277.432306 139.471624 
L 277.547817 139.471624 
L 277.582013 139.185318 
L 277.867081 139.089882 
L 277.867081 138.803576 
L 277.994042 138.803576 
L 278.071226 138.135529 
L 278.242897 138.040094 
L 278.304524 137.658353 
L 278.593312 137.562918 
L 278.593312 137.372047 
L 278.747916 137.372047 
L 278.747916 137.181176 
L 278.928068 137.085741 
L 278.928068 136.799435 
L 279.567184 136.799435 
L 279.610166 136.226824 
L 279.952056 136.131388 
L 279.952056 136.035953 
L 281.451133 135.940518 
L 281.451133 135.749647 
L 281.721104 135.749647 
L 281.721104 135.558776 
L 282.785792 135.558776 
L 282.785792 135.367906 
L 284.354542 135.367906 
L 284.354542 135.0816 
L 287.646923 134.986165 
L 287.733225 134.127247 
L 287.797199 134.127247 
L 287.814244 133.363765 
L 287.918488 133.363765 
L 288.01065 132.695718 
L 288.132426 132.600282 
L 288.223934 132.313976 
L 288.250007 132.218541 
L 288.335866 131.932235 
L 288.470643 131.8368 
L 288.493827 131.359624 
L 288.716966 131.264188 
L 288.741381 131.073318 
L 288.936029 130.977882 
L 289.010187 130.691576 
L 289.25412 130.691576 
L 289.29874 130.118965 
L 289.413486 130.023529 
L 289.437766 129.641788 
L 289.598049 129.546353 
L 289.67218 129.355482 
L 289.773186 129.260047 
L 289.773186 128.973741 
L 290.134945 128.973741 
L 290.236227 128.687435 
L 290.355362 128.687435 
L 290.355362 128.210259 
L 292.037056 128.114824 
L 292.037056 127.923953 
L 293.966418 127.828518 
L 293.966418 127.733082 
L 295.207148 127.733082 
L 295.268222 126.9696 
L 295.333009 126.9696 
L 295.400598 126.683294 
L 295.501355 126.683294 
L 295.593504 126.301553 
L 295.649074 126.206118 
L 295.746282 125.251765 
L 295.817407 125.251765 
L 295.817407 124.965459 
L 296.081209 124.870024 
L 296.15418 124.679153 
L 296.249052 124.679153 
L 296.279828 124.201976 
L 296.608457 124.201976 
L 296.608457 124.011106 
L 296.860737 124.011106 
L 296.931631 123.533929 
L 297.015168 123.438494 
L 297.015168 123.343059 
L 297.634811 123.247624 
L 297.634811 122.961318 
L 298.211012 122.865882 
L 298.211012 122.675012 
L 300.54664 122.579576 
L 300.564628 121.911529 
L 300.750869 121.911529 
L 300.750869 121.720659 
L 300.933349 121.625224 
L 300.999822 121.338918 
L 301.336393 121.243482 
L 301.426693 120.861741 
L 301.511636 120.766306 
L 301.511636 120.670871 
L 301.923775 120.670871 
L 301.923775 120.48 
L 302.4029 120.384565 
L 302.4029 120.098259 
L 302.851618 120.098259 
L 302.851618 119.907388 
L 304.70083 119.811953 
L 304.704815 119.239341 
L 304.868999 119.143906 
L 304.868999 119.048471 
L 305.011542 118.953035 
L 305.028152 118.666729 
L 305.336707 118.571294 
L 305.409742 118.380424 
L 305.716384 118.284988 
L 305.812979 118.094118 
L 306.203538 118.094118 
L 306.276341 117.521506 
L 308.101535 117.426071 
L 308.126546 116.853459 
L 308.633723 116.758024 
L 308.633984 116.567153 
L 309.034236 116.567153 
L 309.046529 116.280847 
L 309.363864 116.280847 
L 309.363864 115.994541 
L 310.454141 115.994541 
L 310.454141 115.6128 
L 310.983427 115.517365 
L 311.002037 115.231059 
L 311.504245 115.135624 
L 311.598289 114.563012 
L 311.783697 114.467576 
L 311.794319 114.181271 
L 312.068841 114.085835 
L 312.12217 113.513224 
L 313.016707 113.417788 
L 313.016707 113.226918 
L 313.476909 113.226918 
L 313.495707 112.272565 
L 313.93629 112.177129 
L 313.93629 112.081694 
L 314.191423 111.986259 
L 314.191423 111.890824 
L 314.969361 111.795388 
L 314.969361 111.604518 
L 315.682674 111.509082 
L 315.682674 111.413647 
L 315.854415 111.413647 
L 315.854415 111.222776 
L 316.089601 111.127341 
L 316.163342 110.936471 
L 316.308954 110.841035 
L 316.317306 110.650165 
L 316.533493 110.650165 
L 316.533493 110.363859 
L 317.285041 110.363859 
L 317.285041 110.172988 
L 317.652729 110.172988 
L 317.667787 109.886682 
L 317.97999 109.791247 
L 318.088818 109.504941 
L 318.422576 109.504941 
L 318.422576 109.1232 
L 319.437707 109.1232 
L 319.437707 108.836894 
L 319.735576 108.836894 
L 319.735576 108.646024 
L 320.139147 108.550588 
L 320.139147 108.455153 
L 321.533682 108.359718 
L 321.533682 108.264282 
L 321.712093 108.168847 
L 321.712093 107.977976 
L 322.56801 107.977976 
L 322.569552 107.691671 
L 323.006042 107.691671 
L 323.006042 107.5008 
L 323.502402 107.405365 
L 323.502402 107.309929 
L 323.957284 107.309929 
L 323.962468 106.928188 
L 324.364467 106.928188 
L 324.364467 106.737318 
L 324.511096 106.737318 
L 324.511096 106.451012 
L 325.250975 106.451012 
L 325.250975 106.069271 
L 325.768482 105.973835 
L 325.768482 105.782965 
L 326.461394 105.782965 
L 326.465932 105.210353 
L 327.934776 105.114918 
L 327.934776 105.019482 
L 328.675024 104.924047 
L 328.675024 104.733176 
L 329.685514 104.733176 
L 329.685514 104.446871 
L 330.095515 104.351435 
L 330.095515 104.256 
L 331.037872 104.256 
L 331.037872 104.065129 
L 331.935266 103.969694 
L 331.935266 103.874259 
L 332.437972 103.778824 
L 332.437972 103.683388 
L 333.271533 103.587953 
L 333.271533 103.492518 
L 334.070557 103.492518 
L 334.070557 103.301647 
L 334.396039 103.301647 
L 334.396039 103.110776 
L 335.573473 103.015341 
L 335.573473 102.919906 
L 336.282177 102.824471 
L 336.282177 102.729035 
L 336.965149 102.6336 
L 336.967745 102.251859 
L 337.62419 102.156424 
L 337.62419 102.060988 
L 338.261592 101.965553 
L 338.261592 101.870118 
L 339.859187 101.774682 
L 339.859187 101.679247 
L 341.156557 101.583812 
L 341.156557 101.392941 
L 342.355984 101.297506 
L 342.412465 101.106635 
L 344.768962 101.0112 
L 344.768962 100.915765 
L 346.053046 100.820329 
L 346.053046 100.724894 
L 346.462308 100.629459 
L 346.462308 100.534024 
L 347.639238 100.534024 
L 347.639238 100.343153 
L 351.286679 100.247718 
L 351.286679 100.152282 
L 360.8064 100.056847 
L 360.8064 100.056847 
" style="fill: none; stroke: #ff00ff; stroke-width: 1.5; stroke-linecap: square"/>
   </g>
   <g id="line2d_41">
    <defs>
     <path id="m6b6af90a61" d="M 0 8.485281 
L 5.091169 0 
L 0 -8.485281 
L -5.091169 0 
z
" style="stroke: #ff00ff; stroke-width: 1.5; stroke-linejoin: miter"/>
    </defs>
    <g>
     <use xlink:href="#m6b6af90a61" x="111.620752" y="278.520847" style="fill-opacity: 0; stroke: #ff00ff; stroke-width: 1.5; stroke-linejoin: miter"/>
     <use xlink:href="#m6b6af90a61" x="183.566121" y="249.413082" style="fill-opacity: 0; stroke: #ff00ff; stroke-width: 1.5; stroke-linejoin: miter"/>
     <use xlink:href="#m6b6af90a61" x="245.071671" y="158.272376" style="fill-opacity: 0; stroke: #ff00ff; stroke-width: 1.5; stroke-linejoin: miter"/>
     <use xlink:href="#m6b6af90a61" x="313.495707" y="112.272565" style="fill-opacity: 0; stroke: #ff00ff; stroke-width: 1.5; stroke-linejoin: miter"/>
     <use xlink:href="#m6b6af90a61" x="353.639327" y="100.056847" style="fill-opacity: 0; stroke: #ff00ff; stroke-width: 1.5; stroke-linejoin: miter"/>
     <use xlink:href="#m6b6af90a61" x="360.8064" y="100.056847" style="fill-opacity: 0; stroke: #ff00ff; stroke-width: 1.5; stroke-linejoin: miter"/>
    </g>
   </g>
   <g id="line2d_42">
    <path style="fill: none; stroke: #ff00ff; stroke-width: 1.5; stroke-linecap: square"/>
    <g/>
   </g>
   <g id="line2d_43">
    <path d="M 274.249847 152.259953 
" clip-path="url(#pda3ad7ea94)" style="fill: none; stroke: #ff00ff; stroke-width: 1.5; stroke-linecap: square"/>
    <defs>
     <path id="ma90fa5489f" d="M -12 12 
L 12 -12 
M -12 -12 
L 12 12 
" style="stroke: #ff00ff"/>
    </defs>
    <g clip-path="url(#pda3ad7ea94)">
     <use xlink:href="#ma90fa5489f" x="274.249847" y="152.259953" style="fill: #ff00ff; stroke: #ff00ff"/>
    </g>
   </g>
   <g id="line2d_44">
    <path d="M 360.8064 100.056847 
L 380.514816 293.10336 
" style="fill: none; stroke: #ff00ff; stroke-width: 1.5; stroke-linecap: square"/>
    <g>
     <use xlink:href="#m6b6af90a61" x="360.8064" y="100.056847" style="fill-opacity: 0; stroke: #ff00ff; stroke-width: 1.5; stroke-linejoin: miter"/>
     <use xlink:href="#m6b6af90a61" x="380.514816" y="293.10336" style="fill-opacity: 0; stroke: #ff00ff; stroke-width: 1.5; stroke-linejoin: miter"/>
    </g>
   </g>
   <g id="line2d_45">
    <path d="M 360.8064 6.912 
L 380.514816 152.928 
" style="fill: none; stroke: #000080; stroke-width: 1.5; stroke-linecap: square"/>
    <g>
     <use xlink:href="#m9f53090773" x="360.8064" y="6.912" style="fill-opacity: 0; stroke: #000080; stroke-width: 1.5"/>
     <use xlink:href="#m9f53090773" x="380.514816" y="152.928" style="fill-opacity: 0; stroke: #000080; stroke-width: 1.5"/>
    </g>
   </g>
   <g id="line2d_46">
    <path d="M 360.8064 298.944 
L 360.8064 6.912 
" style="fill: none; stroke: #000000; stroke-width: 1.5; stroke-linecap: square"/>
   </g>
   <g id="patch_3">
    <path d="M 57.6 298.944 
L 360.8064 298.944 
" style="fill: none; stroke: #000000; stroke-width: 0.8; stroke-linejoin: miter; stroke-linecap: square"/>
   </g>
   <g id="patch_4">
    <path d="M 57.6 6.912 
L 360.8064 6.912 
" style="fill: none; stroke: #000000; stroke-width: 0.8; stroke-linejoin: miter; stroke-linecap: square"/>
   </g>
   <g id="text_13">
    <!-- GA -->
    <g transform="translate(386.578944 296.966485)scale(0.14 -0.14)">
     <defs>
      <path id="DejaVuSans-47" d="M 3809 666 
L 3809 1919 
L 2778 1919 
L 2778 2438 
L 4434 2438 
L 4434 434 
Q 4069 175 3628 42 
Q 3188 -91 2688 -91 
Q 1594 -91 976 548 
Q 359 1188 359 2328 
Q 359 3472 976 4111 
Q 1594 4750 2688 4750 
Q 3144 4750 3555 4637 
Q 3966 4525 4313 4306 
L 4313 3634 
Q 3963 3931 3569 4081 
Q 3175 4231 2741 4231 
Q 1884 4231 1454 3753 
Q 1025 3275 1025 2328 
Q 1025 1384 1454 906 
Q 1884 428 2741 428 
Q 3075 428 3337 486 
Q 3600 544 3809 666 
z
" transform="scale(0.015625)"/>
      <path id="DejaVuSans-41" d="M 2188 4044 
L 1331 1722 
L 3047 1722 
L 2188 4044 
z
M 1831 4666 
L 2547 4666 
L 4325 0 
L 3669 0 
L 3244 1197 
L 1141 1197 
L 716 0 
L 50 0 
L 1831 4666 
z
" transform="scale(0.015625)"/>
     </defs>
     <use xlink:href="#DejaVuSans-47"/>
     <use xlink:href="#DejaVuSans-41" x="77.490234"/>
    </g>
   </g>
   <g id="text_14">
    <!-- LCGA -->
    <g transform="translate(386.578944 156.791125)scale(0.14 -0.14)">
     <defs>
      <path id="DejaVuSans-4c" d="M 628 4666 
L 1259 4666 
L 1259 531 
L 3531 531 
L 3531 0 
L 628 0 
L 628 4666 
z
" transform="scale(0.015625)"/>
      <path id="DejaVuSans-43" d="M 4122 4306 
L 4122 3641 
Q 3803 3938 3442 4084 
Q 3081 4231 2675 4231 
Q 1875 4231 1450 3742 
Q 1025 3253 1025 2328 
Q 1025 1406 1450 917 
Q 1875 428 2675 428 
Q 3081 428 3442 575 
Q 3803 722 4122 1019 
L 4122 359 
Q 3791 134 3420 21 
Q 3050 -91 2638 -91 
Q 1578 -91 968 557 
Q 359 1206 359 2328 
Q 359 3453 968 4101 
Q 1578 4750 2638 4750 
Q 3056 4750 3426 4639 
Q 3797 4528 4122 4306 
z
" transform="scale(0.015625)"/>
     </defs>
     <use xlink:href="#DejaVuSans-4c"/>
     <use xlink:href="#DejaVuSans-43" x="55.712891"/>
     <use xlink:href="#DejaVuSans-47" x="125.537109"/>
     <use xlink:href="#DejaVuSans-41" x="203.027344"/>
    </g>
   </g>
   <g id="text_15">
    <!-- best 2009 -->
    <g transform="translate(386.578944 16.615765)scale(0.14 -0.14)">
     <defs>
      <path id="DejaVuSans-62" d="M 3116 1747 
Q 3116 2381 2855 2742 
Q 2594 3103 2138 3103 
Q 1681 3103 1420 2742 
Q 1159 2381 1159 1747 
Q 1159 1113 1420 752 
Q 1681 391 2138 391 
Q 2594 391 2855 752 
Q 3116 1113 3116 1747 
z
M 1159 2969 
Q 1341 3281 1617 3432 
Q 1894 3584 2278 3584 
Q 2916 3584 3314 3078 
Q 3713 2572 3713 1747 
Q 3713 922 3314 415 
Q 2916 -91 2278 -91 
Q 1894 -91 1617 61 
Q 1341 213 1159 525 
L 1159 0 
L 581 0 
L 581 4863 
L 1159 4863 
L 1159 2969 
z
" transform="scale(0.015625)"/>
      <path id="DejaVuSans-39" d="M 703 97 
L 703 672 
Q 941 559 1184 500 
Q 1428 441 1663 441 
Q 2288 441 2617 861 
Q 2947 1281 2994 2138 
Q 2813 1869 2534 1725 
Q 2256 1581 1919 1581 
Q 1219 1581 811 2004 
Q 403 2428 403 3163 
Q 403 3881 828 4315 
Q 1253 4750 1959 4750 
Q 2769 4750 3195 4129 
Q 3622 3509 3622 2328 
Q 3622 1225 3098 567 
Q 2575 -91 1691 -91 
Q 1453 -91 1209 -44 
Q 966 3 703 97 
z
M 1959 2075 
Q 2384 2075 2632 2365 
Q 2881 2656 2881 3163 
Q 2881 3666 2632 3958 
Q 2384 4250 1959 4250 
Q 1534 4250 1286 3958 
Q 1038 3666 1038 3163 
Q 1038 2656 1286 2365 
Q 1534 2075 1959 2075 
z
" transform="scale(0.015625)"/>
     </defs>
     <use xlink:href="#DejaVuSans-62"/>
     <use xlink:href="#DejaVuSans-65" x="63.476562"/>
     <use xlink:href="#DejaVuSans-73" x="125"/>
     <use xlink:href="#DejaVuSans-74" x="177.099609"/>
     <use xlink:href="#DejaVuSans-20" x="216.308594"/>
     <use xlink:href="#DejaVuSans-32" x="248.095703"/>
     <use xlink:href="#DejaVuSans-30" x="311.71875"/>
     <use xlink:href="#DejaVuSans-30" x="375.341797"/>
     <use xlink:href="#DejaVuSans-39" x="438.964844"/>
    </g>
   </g>
   <g id="text_16">
    <!-- bbob f6-f9, 3-D -->
    <g transform="translate(60.632064 17.582726)scale(0.102 -0.102)">
     <defs>
      <path id="DejaVuSans-33" d="M 2597 2516 
Q 3050 2419 3304 2112 
Q 3559 1806 3559 1356 
Q 3559 666 3084 287 
Q 2609 -91 1734 -91 
Q 1441 -91 1130 -33 
Q 819 25 488 141 
L 488 750 
Q 750 597 1062 519 
Q 1375 441 1716 441 
Q 2309 441 2620 675 
Q 2931 909 2931 1356 
Q 2931 1769 2642 2001 
Q 2353 2234 1838 2234 
L 1294 2234 
L 1294 2753 
L 1863 2753 
Q 2328 2753 2575 2939 
Q 2822 3125 2822 3475 
Q 2822 3834 2567 4026 
Q 2313 4219 1838 4219 
Q 1578 4219 1281 4162 
Q 984 4106 628 3988 
L 628 4550 
Q 988 4650 1302 4700 
Q 1616 4750 1894 4750 
Q 2613 4750 3031 4423 
Q 3450 4097 3450 3541 
Q 3450 3153 3228 2886 
Q 3006 2619 2597 2516 
z
" transform="scale(0.015625)"/>
      <path id="DejaVuSans-44" d="M 1259 4147 
L 1259 519 
L 2022 519 
Q 2988 519 3436 956 
Q 3884 1394 3884 2338 
Q 3884 3275 3436 3711 
Q 2988 4147 2022 4147 
L 1259 4147 
z
M 628 4666 
L 1925 4666 
Q 3281 4666 3915 4102 
Q 4550 3538 4550 2338 
Q 4550 1131 3912 565 
Q 3275 0 1925 0 
L 628 0 
L 628 4666 
z
" transform="scale(0.015625)"/>
     </defs>
     <use xlink:href="#DejaVuSans-62"/>
     <use xlink:href="#DejaVuSans-62" x="63.476562"/>
     <use xlink:href="#DejaVuSans-6f" x="126.953125"/>
     <use xlink:href="#DejaVuSans-62" x="188.134766"/>
     <use xlink:href="#DejaVuSans-20" x="251.611328"/>
     <use xlink:href="#DejaVuSans-66" x="283.398438"/>
     <use xlink:href="#DejaVuSans-36" x="318.603516"/>
     <use xlink:href="#DejaVuSans-2d" x="382.226562"/>
     <use xlink:href="#DejaVuSans-66" x="418.310547"/>
     <use xlink:href="#DejaVuSans-39" x="453.515625"/>
     <use xlink:href="#DejaVuSans-2c" x="517.138672"/>
     <use xlink:href="#DejaVuSans-20" x="548.925781"/>
     <use xlink:href="#DejaVuSans-33" x="580.712891"/>
     <use xlink:href="#DejaVuSans-2d" x="644.335938"/>
     <use xlink:href="#DejaVuSans-44" x="680.419922"/>
    </g>
    <!-- 51 targets: 100..1e-08 -->
    <g transform="translate(60.632064 29.004495)scale(0.102 -0.102)">
     <defs>
      <path id="DejaVuSans-35" d="M 691 4666 
L 3169 4666 
L 3169 4134 
L 1269 4134 
L 1269 2991 
Q 1406 3038 1543 3061 
Q 1681 3084 1819 3084 
Q 2600 3084 3056 2656 
Q 3513 2228 3513 1497 
Q 3513 744 3044 326 
Q 2575 -91 1722 -91 
Q 1428 -91 1123 -41 
Q 819 9 494 109 
L 494 744 
Q 775 591 1075 516 
Q 1375 441 1709 441 
Q 2250 441 2565 725 
Q 2881 1009 2881 1497 
Q 2881 1984 2565 2268 
Q 2250 2553 1709 2553 
Q 1456 2553 1204 2497 
Q 953 2441 691 2322 
L 691 4666 
z
" transform="scale(0.015625)"/>
      <path id="DejaVuSans-3a" d="M 750 794 
L 1409 794 
L 1409 0 
L 750 0 
L 750 794 
z
M 750 3309 
L 1409 3309 
L 1409 2516 
L 750 2516 
L 750 3309 
z
" transform="scale(0.015625)"/>
     </defs>
     <use xlink:href="#DejaVuSans-35"/>
     <use xlink:href="#DejaVuSans-31" x="63.623047"/>
     <use xlink:href="#DejaVuSans-20" x="127.246094"/>
     <use xlink:href="#DejaVuSans-74" x="159.033203"/>
     <use xlink:href="#DejaVuSans-61" x="198.242188"/>
     <use xlink:href="#DejaVuSans-72" x="259.521484"/>
     <use xlink:href="#DejaVuSans-67" x="298.884766"/>
     <use xlink:href="#DejaVuSans-65" x="362.361328"/>
     <use xlink:href="#DejaVuSans-74" x="423.884766"/>
     <use xlink:href="#DejaVuSans-73" x="463.09375"/>
     <use xlink:href="#DejaVuSans-3a" x="515.193359"/>
     <use xlink:href="#DejaVuSans-20" x="548.884766"/>
     <use xlink:href="#DejaVuSans-31" x="580.671875"/>
     <use xlink:href="#DejaVuSans-30" x="644.294922"/>
     <use xlink:href="#DejaVuSans-30" x="707.917969"/>
     <use xlink:href="#DejaVuSans-2e" x="771.541016"/>
     <use xlink:href="#DejaVuSans-2e" x="803.328125"/>
     <use xlink:href="#DejaVuSans-31" x="835.115234"/>
     <use xlink:href="#DejaVuSans-65" x="898.738281"/>
     <use xlink:href="#DejaVuSans-2d" x="960.261719"/>
     <use xlink:href="#DejaVuSans-30" x="996.345703"/>
     <use xlink:href="#DejaVuSans-38" x="1059.96875"/>
    </g>
    <!-- 15 instances -->
    <g transform="translate(60.632064 40.426264)scale(0.102 -0.102)">
     <use xlink:href="#DejaVuSans-31"/>
     <use xlink:href="#DejaVuSans-35" x="63.623047"/>
     <use xlink:href="#DejaVuSans-20" x="127.246094"/>
     <use xlink:href="#DejaVuSans-69" x="159.033203"/>
     <use xlink:href="#DejaVuSans-6e" x="186.816406"/>
     <use xlink:href="#DejaVuSans-73" x="250.195312"/>
     <use xlink:href="#DejaVuSans-74" x="302.294922"/>
     <use xlink:href="#DejaVuSans-61" x="341.503906"/>
     <use xlink:href="#DejaVuSans-6e" x="402.783203"/>
     <use xlink:href="#DejaVuSans-63" x="466.162109"/>
     <use xlink:href="#DejaVuSans-65" x="521.142578"/>
     <use xlink:href="#DejaVuSans-73" x="582.666016"/>
    </g>
   </g>
   <g id="text_17">
    <!-- v2.6 -->
    <g style="fill: #808080" transform="translate(198.292262 293.943992)scale(0.1 -0.1)">
     <use xlink:href="#DejaVuSans-76"/>
     <use xlink:href="#DejaVuSans-32" x="59.179688"/>
     <use xlink:href="#DejaVuSans-2e" x="122.802734"/>
     <use xlink:href="#DejaVuSans-36" x="154.589844"/>
    </g>
   </g>
  </g>
 </g>
 <defs>
  <clipPath id="pda3ad7ea94">
   <rect x="57.6" y="6.912" width="303.2064" height="292.032"/>
  </clipPath>
 </defs>
</svg>
