<?xml version="1.0" encoding="utf-8" standalone="no"?>
<!DOCTYPE svg PUBLIC "-//W3C//DTD SVG 1.1//EN"
  "http://www.w3.org/Graphics/SVG/1.1/DTD/svg11.dtd">
<svg xmlns:xlink="http://www.w3.org/1999/xlink" width="460.8pt" height="345.6pt" viewBox="0 0 460.8 345.6" xmlns="http://www.w3.org/2000/svg" version="1.1">
 <metadata>
  <rdf:RDF xmlns:dc="http://purl.org/dc/elements/1.1/" xmlns:cc="http://creativecommons.org/ns#" xmlns:rdf="http://www.w3.org/1999/02/22-rdf-syntax-ns#">
   <cc:Work>
    <dc:type rdf:resource="http://purl.org/dc/dcmitype/StillImage"/>
    <dc:date>2024-05-29T07:56:30.486164</dc:date>
    <dc:format>image/svg+xml</dc:format>
    <dc:creator>
     <cc:Agent>
      <dc:title>Matplotlib v3.5.1, https://matplotlib.org/</dc:title>
     </cc:Agent>
    </dc:creator>
   </cc:Work>
  </rdf:RDF>
 </metadata>
 <defs>
  <style type="text/css">*{stroke-linejoin: round; stroke-linecap: butt}</style>
 </defs>
 <g id="figure_1">
  <g id="patch_1">
   <path d="M 0 345.6 
L 460.8 345.6 
L 460.8 0 
L 0 0 
z
" style="fill: #ffffff"/>
  </g>
  <g id="axes_1">
   <g id="patch_2">
    <path d="M 0 293.76 
L 460.8 293.76 
L 460.8 3.456 
L 0 3.456 
z
" style="fill: #ffffff"/>
   </g>
   <g id="matplotlib.axis_1">
    <g id="xtick_1">
     <g id="line2d_1">
      <path d="M 104.295644 293.76 
L 104.295644 3.456 
" clip-path="url(#p37f1a8deba)" style="fill: none; stroke: #b0b0b0; stroke-width: 0.8; stroke-linecap: square"/>
     </g>
     <g id="line2d_2">
      <defs>
       <path id="m0efd7fa5d8" d="M 0 0 
L 0 3.5 
" style="stroke: #000000; stroke-width: 0.8"/>
      </defs>
      <g>
       <use xlink:href="#m0efd7fa5d8" x="104.295644" y="293.76" style="stroke: #000000; stroke-width: 0.8"/>
      </g>
     </g>
     <g id="text_1">
      <!-- -4 -->
      <g transform="translate(94.325332 315.956875)scale(0.2 -0.2)">
       <defs>
        <path id="DejaVuSans-2d" d="M 313 2009 
L 1997 2009 
L 1997 1497 
L 313 1497 
L 313 2009 
z
" transform="scale(0.015625)"/>
        <path id="DejaVuSans-34" d="M 2419 4116 
L 825 1625 
L 2419 1625 
L 2419 4116 
z
M 2253 4666 
L 3047 4666 
L 3047 1625 
L 3713 1625 
L 3713 1100 
L 3047 1100 
L 3047 0 
L 2419 0 
L 2419 1100 
L 313 1100 
L 313 1709 
L 2253 4666 
z
" transform="scale(0.015625)"/>
       </defs>
       <use xlink:href="#DejaVuSans-2d"/>
       <use xlink:href="#DejaVuSans-34" x="36.083984"/>
      </g>
     </g>
    </g>
    <g id="xtick_2">
     <g id="line2d_3">
      <path d="M 208.704086 293.76 
L 208.704086 3.456 
" clip-path="url(#p37f1a8deba)" style="fill: none; stroke: #b0b0b0; stroke-width: 0.8; stroke-linecap: square"/>
     </g>
     <g id="line2d_4">
      <g>
       <use xlink:href="#m0efd7fa5d8" x="208.704086" y="293.76" style="stroke: #000000; stroke-width: 0.8"/>
      </g>
     </g>
     <g id="text_2">
      <!-- 0 -->
      <g transform="translate(202.341586 315.956875)scale(0.2 -0.2)">
       <defs>
        <path id="DejaVuSans-30" d="M 2034 4250 
Q 1547 4250 1301 3770 
Q 1056 3291 1056 2328 
Q 1056 1369 1301 889 
Q 1547 409 2034 409 
Q 2525 409 2770 889 
Q 3016 1369 3016 2328 
Q 3016 3291 2770 3770 
Q 2525 4250 2034 4250 
z
M 2034 4750 
Q 2819 4750 3233 4129 
Q 3647 3509 3647 2328 
Q 3647 1150 3233 529 
Q 2819 -91 2034 -91 
Q 1250 -91 836 529 
Q 422 1150 422 2328 
Q 422 3509 836 4129 
Q 1250 4750 2034 4750 
z
" transform="scale(0.015625)"/>
       </defs>
       <use xlink:href="#DejaVuSans-30"/>
      </g>
     </g>
    </g>
    <g id="xtick_3">
     <g id="line2d_5">
      <path d="M 313.112527 293.76 
L 313.112527 3.456 
" clip-path="url(#p37f1a8deba)" style="fill: none; stroke: #b0b0b0; stroke-width: 0.8; stroke-linecap: square"/>
     </g>
     <g id="line2d_6">
      <g>
       <use xlink:href="#m0efd7fa5d8" x="313.112527" y="293.76" style="stroke: #000000; stroke-width: 0.8"/>
      </g>
     </g>
     <g id="text_3">
      <!-- 4 -->
      <g transform="translate(306.750027 315.956875)scale(0.2 -0.2)">
       <use xlink:href="#DejaVuSans-34"/>
      </g>
     </g>
    </g>
    <g id="xtick_4">
     <g id="line2d_7">
      <path d="M 417.520969 293.76 
L 417.520969 3.456 
" clip-path="url(#p37f1a8deba)" style="fill: none; stroke: #b0b0b0; stroke-width: 0.8; stroke-linecap: square"/>
     </g>
     <g id="line2d_8">
      <g>
       <use xlink:href="#m0efd7fa5d8" x="417.520969" y="293.76" style="stroke: #000000; stroke-width: 0.8"/>
      </g>
     </g>
     <g id="text_4">
      <!-- 8 -->
      <g transform="translate(411.158469 315.956875)scale(0.2 -0.2)">
       <defs>
        <path id="DejaVuSans-38" d="M 2034 2216 
Q 1584 2216 1326 1975 
Q 1069 1734 1069 1313 
Q 1069 891 1326 650 
Q 1584 409 2034 409 
Q 2484 409 2743 651 
Q 3003 894 3003 1313 
Q 3003 1734 2745 1975 
Q 2488 2216 2034 2216 
z
M 1403 2484 
Q 997 2584 770 2862 
Q 544 3141 544 3541 
Q 544 4100 942 4425 
Q 1341 4750 2034 4750 
Q 2731 4750 3128 4425 
Q 3525 4100 3525 3541 
Q 3525 3141 3298 2862 
Q 3072 2584 2669 2484 
Q 3125 2378 3379 2068 
Q 3634 1759 3634 1313 
Q 3634 634 3220 271 
Q 2806 -91 2034 -91 
Q 1263 -91 848 271 
Q 434 634 434 1313 
Q 434 1759 690 2068 
Q 947 2378 1403 2484 
z
M 1172 3481 
Q 1172 3119 1398 2916 
Q 1625 2713 2034 2713 
Q 2441 2713 2670 2916 
Q 2900 3119 2900 3481 
Q 2900 3844 2670 4047 
Q 2441 4250 2034 4250 
Q 1625 4250 1398 4047 
Q 1172 3844 1172 3481 
z
" transform="scale(0.015625)"/>
       </defs>
       <use xlink:href="#DejaVuSans-38"/>
      </g>
     </g>
    </g>
    <g id="text_5">
     <!-- log10 of Df -->
     <g transform="translate(175.214063 339.313125)scale(0.2 -0.2)">
      <defs>
       <path id="DejaVuSans-6c" d="M 603 4863 
L 1178 4863 
L 1178 0 
L 603 0 
L 603 4863 
z
" transform="scale(0.015625)"/>
       <path id="DejaVuSans-6f" d="M 1959 3097 
Q 1497 3097 1228 2736 
Q 959 2375 959 1747 
Q 959 1119 1226 758 
Q 1494 397 1959 397 
Q 2419 397 2687 759 
Q 2956 1122 2956 1747 
Q 2956 2369 2687 2733 
Q 2419 3097 1959 3097 
z
M 1959 3584 
Q 2709 3584 3137 3096 
Q 3566 2609 3566 1747 
Q 3566 888 3137 398 
Q 2709 -91 1959 -91 
Q 1206 -91 779 398 
Q 353 888 353 1747 
Q 353 2609 779 3096 
Q 1206 3584 1959 3584 
z
" transform="scale(0.015625)"/>
       <path id="DejaVuSans-67" d="M 2906 1791 
Q 2906 2416 2648 2759 
Q 2391 3103 1925 3103 
Q 1463 3103 1205 2759 
Q 947 2416 947 1791 
Q 947 1169 1205 825 
Q 1463 481 1925 481 
Q 2391 481 2648 825 
Q 2906 1169 2906 1791 
z
M 3481 434 
Q 3481 -459 3084 -895 
Q 2688 -1331 1869 -1331 
Q 1566 -1331 1297 -1286 
Q 1028 -1241 775 -1147 
L 775 -588 
Q 1028 -725 1275 -790 
Q 1522 -856 1778 -856 
Q 2344 -856 2625 -561 
Q 2906 -266 2906 331 
L 2906 616 
Q 2728 306 2450 153 
Q 2172 0 1784 0 
Q 1141 0 747 490 
Q 353 981 353 1791 
Q 353 2603 747 3093 
Q 1141 3584 1784 3584 
Q 2172 3584 2450 3431 
Q 2728 3278 2906 2969 
L 2906 3500 
L 3481 3500 
L 3481 434 
z
" transform="scale(0.015625)"/>
       <path id="DejaVuSans-31" d="M 794 531 
L 1825 531 
L 1825 4091 
L 703 3866 
L 703 4441 
L 1819 4666 
L 2450 4666 
L 2450 531 
L 3481 531 
L 3481 0 
L 794 0 
L 794 531 
z
" transform="scale(0.015625)"/>
       <path id="DejaVuSans-20" transform="scale(0.015625)"/>
       <path id="DejaVuSans-66" d="M 2375 4863 
L 2375 4384 
L 1825 4384 
Q 1516 4384 1395 4259 
Q 1275 4134 1275 3809 
L 1275 3500 
L 2222 3500 
L 2222 3053 
L 1275 3053 
L 1275 0 
L 697 0 
L 697 3053 
L 147 3053 
L 147 3500 
L 697 3500 
L 697 3744 
Q 697 4328 969 4595 
Q 1241 4863 1831 4863 
L 2375 4863 
z
" transform="scale(0.015625)"/>
       <path id="DejaVuSans-44" d="M 1259 4147 
L 1259 519 
L 2022 519 
Q 2988 519 3436 956 
Q 3884 1394 3884 2338 
Q 3884 3275 3436 3711 
Q 2988 4147 2022 4147 
L 1259 4147 
z
M 628 4666 
L 1925 4666 
Q 3281 4666 3915 4102 
Q 4550 3538 4550 2338 
Q 4550 1131 3912 565 
Q 3275 0 1925 0 
L 628 0 
L 628 4666 
z
" transform="scale(0.015625)"/>
      </defs>
      <use xlink:href="#DejaVuSans-6c"/>
      <use xlink:href="#DejaVuSans-6f" x="27.783203"/>
      <use xlink:href="#DejaVuSans-67" x="88.964844"/>
      <use xlink:href="#DejaVuSans-31" x="152.441406"/>
      <use xlink:href="#DejaVuSans-30" x="216.064453"/>
      <use xlink:href="#DejaVuSans-20" x="279.6875"/>
      <use xlink:href="#DejaVuSans-6f" x="311.474609"/>
      <use xlink:href="#DejaVuSans-66" x="372.65625"/>
      <use xlink:href="#DejaVuSans-20" x="407.861328"/>
      <use xlink:href="#DejaVuSans-44" x="439.648438"/>
      <use xlink:href="#DejaVuSans-66" x="516.650391"/>
     </g>
    </g>
   </g>
   <g id="matplotlib.axis_2">
    <g id="ytick_1">
     <g id="line2d_9">
      <path d="M 0 293.76 
L 460.8 293.76 
" clip-path="url(#p37f1a8deba)" style="fill: none; stroke: #b0b0b0; stroke-width: 0.8; stroke-linecap: square"/>
     </g>
     <g id="line2d_10">
      <defs>
       <path id="m5f57b734fc" d="M 0 0 
L -3.5 0 
" style="stroke: #000000; stroke-width: 0.8"/>
      </defs>
      <g>
       <use xlink:href="#m5f57b734fc" x="0" y="293.76" style="stroke: #000000; stroke-width: 0.8"/>
      </g>
     </g>
    </g>
    <g id="ytick_2">
     <g id="line2d_11">
      <path d="M 0 236.274059 
L 460.8 236.274059 
" clip-path="url(#p37f1a8deba)" style="fill: none; stroke: #b0b0b0; stroke-width: 0.8; stroke-linecap: square"/>
     </g>
     <g id="line2d_12">
      <g>
       <use xlink:href="#m5f57b734fc" x="0" y="236.274059" style="stroke: #000000; stroke-width: 0.8"/>
      </g>
     </g>
    </g>
    <g id="ytick_3">
     <g id="line2d_13">
      <path d="M 0 178.788119 
L 460.8 178.788119 
" clip-path="url(#p37f1a8deba)" style="fill: none; stroke: #b0b0b0; stroke-width: 0.8; stroke-linecap: square"/>
     </g>
     <g id="line2d_14">
      <g>
       <use xlink:href="#m5f57b734fc" x="0" y="178.788119" style="stroke: #000000; stroke-width: 0.8"/>
      </g>
     </g>
    </g>
    <g id="ytick_4">
     <g id="line2d_15">
      <path d="M 0 121.302178 
L 460.8 121.302178 
" clip-path="url(#p37f1a8deba)" style="fill: none; stroke: #b0b0b0; stroke-width: 0.8; stroke-linecap: square"/>
     </g>
     <g id="line2d_16">
      <g>
       <use xlink:href="#m5f57b734fc" x="0" y="121.302178" style="stroke: #000000; stroke-width: 0.8"/>
      </g>
     </g>
    </g>
    <g id="ytick_5">
     <g id="line2d_17">
      <path d="M 0 63.816238 
L 460.8 63.816238 
" clip-path="url(#p37f1a8deba)" style="fill: none; stroke: #b0b0b0; stroke-width: 0.8; stroke-linecap: square"/>
     </g>
     <g id="line2d_18">
      <g>
       <use xlink:href="#m5f57b734fc" x="0" y="63.816238" style="stroke: #000000; stroke-width: 0.8"/>
      </g>
     </g>
    </g>
    <g id="ytick_6">
     <g id="line2d_19">
      <path d="M 0 6.330297 
L 460.8 6.330297 
" clip-path="url(#p37f1a8deba)" style="fill: none; stroke: #b0b0b0; stroke-width: 0.8; stroke-linecap: square"/>
     </g>
     <g id="line2d_20">
      <g>
       <use xlink:href="#m5f57b734fc" x="0" y="6.330297" style="stroke: #000000; stroke-width: 0.8"/>
      </g>
     </g>
    </g>
   </g>
   <g id="line2d_21">
    <path d="M -1 289.927604 
L -0.491594 289.927604 
L -0.491594 286.095208 
L -0.37475 286.095208 
L -0.274564 278.430416 
L -0.190832 278.430416 
L -0.125489 270.765624 
L 191.89541 270.765624 
L 191.89541 266.933228 
L 194.461329 266.933228 
L 194.461329 263.100832 
L 198.448472 263.100832 
L 198.448472 259.268436 
L 199.505285 259.268436 
L 199.505285 255.43604 
L 199.752928 255.43604 
L 199.752928 247.771248 
L 200.322814 247.771248 
L 200.322814 243.938851 
L 201.15666 243.938851 
L 201.15666 240.106455 
L 201.570504 240.106455 
L 201.570504 236.274059 
L 201.852071 236.274059 
L 201.923788 228.609267 
L 202.574373 228.609267 
L 202.574373 224.776871 
L 203.318031 224.776871 
L 203.318031 220.944475 
L 203.64241 220.944475 
L 203.673123 213.279683 
L 204.349555 213.279683 
L 204.445117 205.614891 
L 204.528173 205.614891 
L 204.528173 186.452911 
L 205.29449 186.452911 
L 205.294986 178.788119 
L 205.514156 178.788119 
L 205.623949 171.123327 
L 206.303443 171.123327 
L 206.30622 163.458535 
L 206.713369 163.458535 
L 206.713369 159.626139 
L 207.235425 159.626139 
L 207.295655 151.961347 
L 207.486981 151.961347 
L 207.512273 144.296554 
L 211.356535 144.296554 
L 211.356535 140.464158 
L 213.792985 140.464158 
L 213.792985 136.631762 
L 215.386236 136.631762 
L 215.386236 128.96697 
L 216.303624 128.96697 
L 216.303624 121.302178 
L 216.806413 121.302178 
L 216.806413 117.469782 
L 223.343273 117.469782 
L 223.343273 113.637386 
L 224.868575 113.637386 
L 224.868575 109.80499 
L 226.280307 109.80499 
L 226.280307 105.972594 
L 229.476991 105.972594 
L 229.476991 102.140198 
L 233.283088 102.140198 
L 233.283088 94.475406 
L 236.015355 94.475406 
L 236.015355 79.145822 
L 241.649469 79.145822 
L 241.649469 75.313426 
L 244.6882 75.313426 
L 244.6882 71.48103 
L 249.315484 71.48103 
L 249.315484 67.648634 
L 252.717808 67.648634 
L 252.717808 63.816238 
L 253.087805 63.816238 
L 253.087805 59.983842 
L 253.247799 59.983842 
L 253.247799 56.151446 
L 253.907535 56.151446 
L 253.907535 52.31905 
L 254.288583 52.31905 
L 254.288583 48.486653 
L 254.509083 48.486653 
L 254.509083 44.654257 
L 255.26916 44.654257 
L 255.26916 40.821861 
L 256.05028 40.821861 
L 256.05028 36.989465 
L 257.26643 36.989465 
L 257.26643 33.157069 
L 257.571932 33.157069 
L 257.571932 29.324673 
L 258.189863 29.324673 
L 258.189863 25.492277 
L 258.937335 25.492277 
L 258.937335 21.659881 
L 259.11985 21.659881 
L 259.11985 17.827485 
L 259.619174 17.827485 
L 259.619174 13.995089 
L 260.155877 13.995089 
L 260.155877 10.162693 
L 261.067242 10.162693 
L 261.067242 6.330297 
L 261.067242 6.330297 
L 460.8 6.330297 
L 460.8 6.330297 
" clip-path="url(#p37f1a8deba)" style="fill: none; stroke: #ff0000; stroke-width: 3; stroke-linecap: square"/>
   </g>
   <g id="line2d_22">
    <path d="M 229.56358 293.76 
L 229.572808 286.095208 
L 230.989776 286.095208 
L 230.989776 282.262812 
L 232.458142 282.262812 
L 232.458142 278.430416 
L 232.89164 278.430416 
L 232.925874 270.765624 
L 233.348183 270.765624 
L 233.34829 263.100832 
L 233.822098 263.100832 
L 233.893375 255.43604 
L 234.013493 255.43604 
L 234.013493 251.603644 
L 234.484618 251.603644 
L 234.484618 247.771248 
L 234.748646 247.771248 
L 234.748646 243.938851 
L 235.621073 243.938851 
L 235.621073 240.106455 
L 235.947068 240.106455 
L 235.947068 236.274059 
L 257.133825 236.274059 
L 257.133825 232.441663 
L 257.934851 232.441663 
L 257.934851 228.609267 
L 258.244929 228.609267 
L 258.298975 220.944475 
L 258.425963 220.944475 
L 258.496789 209.447287 
L 258.538821 209.447287 
L 258.584285 197.950099 
L 258.732971 197.950099 
L 258.827718 171.123327 
L 258.864448 171.123327 
L 258.935625 144.296554 
L 258.983958 144.296554 
L 259.069714 128.96697 
L 259.191873 128.96697 
L 259.250104 121.302178 
L 277.095214 121.302178 
L 277.095214 117.469782 
L 279.239559 117.469782 
L 279.239559 113.637386 
L 279.687975 113.637386 
L 279.687975 109.80499 
L 280.181747 109.80499 
L 280.181747 105.972594 
L 280.717915 105.972594 
L 280.717915 102.140198 
L 280.851735 102.140198 
L 280.959425 94.475406 
L 281.028142 94.475406 
L 281.028142 90.64301 
L 281.635378 90.64301 
L 281.635378 86.810614 
L 281.886798 86.810614 
L 281.982435 79.145822 
L 282.101426 79.145822 
L 282.101426 75.313426 
L 282.31426 75.313426 
L 282.317228 67.648634 
L 283.797662 67.648634 
L 283.797662 63.816238 
L 322.950419 63.816238 
L 322.950419 59.983842 
L 328.656962 59.983842 
L 328.656962 56.151446 
L 332.203098 56.151446 
L 332.203098 52.31905 
L 332.758833 52.31905 
L 332.758833 48.486653 
L 333.704696 48.486653 
L 333.704696 44.654257 
L 337.427967 44.654257 
L 337.427967 40.821861 
L 337.609205 40.821861 
L 337.609205 36.989465 
L 337.752199 36.989465 
L 337.752199 33.157069 
L 338.252723 33.157069 
L 338.252723 29.324673 
L 340.5269 29.324673 
L 340.5269 25.492277 
L 341.750299 25.492277 
L 341.750299 21.659881 
L 341.887489 21.659881 
L 341.924992 13.995089 
L 342.443408 13.995089 
L 342.443408 10.162693 
L 343.845609 10.162693 
L 343.845609 6.330297 
L 343.845609 6.330297 
L 460.8 6.330297 
L 460.8 6.330297 
" clip-path="url(#p37f1a8deba)" style="fill: none; stroke: #00bfbf; stroke-width: 1.5; stroke-linecap: square"/>
   </g>
   <g id="line2d_23">
    <path d="M 229.045365 293.76 
L 229.045365 289.927604 
L 229.387793 289.927604 
L 229.387793 286.095208 
L 229.56358 286.095208 
L 229.574466 274.59802 
L 229.808991 274.59802 
L 229.808991 270.765624 
L 229.937565 270.765624 
L 229.937565 266.933228 
L 230.11977 266.933228 
L 230.11977 263.100832 
L 230.593389 263.100832 
L 230.593389 259.268436 
L 230.823159 259.268436 
L 230.823159 255.43604 
L 230.989776 255.43604 
L 230.989776 251.603644 
L 231.453826 251.603644 
L 231.453826 247.771248 
L 231.700377 247.771248 
L 231.700377 243.938851 
L 232.531954 243.938851 
L 232.531954 240.106455 
L 233.822098 240.106455 
L 233.822098 236.274059 
L 256.396327 236.274059 
L 256.396327 232.441663 
L 257.133825 232.441663 
L 257.133825 228.609267 
L 257.284805 228.609267 
L 257.284805 224.776871 
L 257.459683 224.776871 
L 257.459683 220.944475 
L 257.801691 220.944475 
L 257.802509 213.279683 
L 258.024682 213.279683 
L 258.024682 209.447287 
L 258.206652 209.447287 
L 258.246744 201.782495 
L 258.421814 201.782495 
L 258.496789 178.788119 
L 258.58111 178.788119 
L 258.58111 174.955723 
L 258.716224 174.955723 
L 258.78171 159.626139 
L 258.827718 159.626139 
L 258.935625 144.296554 
L 258.974199 144.296554 
L 259.001341 128.96697 
L 259.103674 128.96697 
L 259.202132 121.302178 
L 277.095214 121.302178 
L 277.095214 117.469782 
L 278.921732 117.469782 
L 278.921732 113.637386 
L 279.045666 113.637386 
L 279.045666 109.80499 
L 279.239559 109.80499 
L 279.307657 102.140198 
L 279.687975 102.140198 
L 279.687975 98.307802 
L 279.810191 98.307802 
L 279.810191 94.475406 
L 279.995403 94.475406 
L 280.048126 86.810614 
L 280.181747 86.810614 
L 280.181747 82.978218 
L 280.549137 82.978218 
L 280.549137 79.145822 
L 280.774653 79.145822 
L 280.774653 75.313426 
L 280.959425 75.313426 
L 280.959425 71.48103 
L 281.109046 71.48103 
L 281.109046 67.648634 
L 282.317228 67.648634 
L 282.317228 63.816238 
L 322.950419 63.816238 
L 322.950419 59.983842 
L 326.850548 59.983842 
L 326.850548 56.151446 
L 328.488615 56.151446 
L 328.488615 52.31905 
L 328.656962 52.31905 
L 328.656962 48.486653 
L 332.147944 48.486653 
L 332.203098 40.821861 
L 332.758833 40.821861 
L 332.758833 36.989465 
L 333.382694 36.989465 
L 333.382694 33.157069 
L 334.132413 33.157069 
L 334.132413 29.324673 
L 334.299302 29.324673 
L 334.299302 25.492277 
L 337.078312 25.492277 
L 337.078312 21.659881 
L 337.427967 21.659881 
L 337.427967 17.827485 
L 337.681831 17.827485 
L 337.681831 13.995089 
L 341.610833 13.995089 
L 341.610833 10.162693 
L 341.750299 10.162693 
L 341.750299 6.330297 
L 341.750299 6.330297 
L 460.8 6.330297 
L 460.8 6.330297 
" clip-path="url(#p37f1a8deba)" style="fill: none; stroke: #bf00bf; stroke-width: 1.5; stroke-linecap: square"/>
   </g>
   <g id="line2d_24">
    <path d="M 224.872938 293.76 
L 224.872938 289.927604 
L 225.948541 289.927604 
L 225.948541 286.095208 
L 228.127862 286.095208 
L 228.180186 278.430416 
L 228.406961 278.430416 
L 228.406961 274.59802 
L 229.045365 274.59802 
L 229.069941 266.933228 
L 229.262082 266.933228 
L 229.262082 263.100832 
L 229.574466 263.100832 
L 229.574466 259.268436 
L 229.808991 259.268436 
L 229.808991 255.43604 
L 230.593389 255.43604 
L 230.593389 251.603644 
L 230.823159 251.603644 
L 230.823159 247.771248 
L 231.075779 247.771248 
L 231.075779 243.938851 
L 231.277192 243.938851 
L 231.277192 240.106455 
L 231.816535 240.106455 
L 231.816535 236.274059 
L 256.396327 236.274059 
L 256.396327 232.441663 
L 257.133825 232.441663 
L 257.133825 228.609267 
L 257.284805 228.609267 
L 257.284805 224.776871 
L 257.459683 224.776871 
L 257.493205 217.112079 
L 257.571758 217.112079 
L 257.571758 213.279683 
L 257.801691 213.279683 
L 257.836754 197.950099 
L 257.9742 197.950099 
L 258.016645 190.285307 
L 258.160266 190.285307 
L 258.256813 171.123327 
L 258.288193 171.123327 
L 258.398707 159.626139 
L 258.411155 159.626139 
L 258.522248 144.296554 
L 258.543765 144.296554 
L 258.543765 140.464158 
L 258.716224 140.464158 
L 258.72233 132.799366 
L 258.880569 132.799366 
L 258.885482 125.134574 
L 258.993093 125.134574 
L 258.993093 121.302178 
L 277.095214 121.302178 
L 277.095214 117.469782 
L 277.954928 117.469782 
L 277.954928 113.637386 
L 278.89632 113.637386 
L 278.92822 105.972594 
L 279.231393 105.972594 
L 279.307657 94.475406 
L 279.535282 94.475406 
L 279.583333 86.810614 
L 279.687975 86.810614 
L 279.687975 82.978218 
L 279.810191 82.978218 
L 279.810191 79.145822 
L 280.048126 79.145822 
L 280.048126 75.313426 
L 280.181747 75.313426 
L 280.181747 71.48103 
L 280.774653 71.48103 
L 280.774653 67.648634 
L 281.109046 67.648634 
L 281.109046 63.816238 
L 322.950419 63.816238 
L 322.950419 59.983842 
L 326.556138 59.983842 
L 326.556138 56.151446 
L 326.850548 56.151446 
L 326.850548 52.31905 
L 328.488615 52.31905 
L 328.488615 48.486653 
L 328.656962 48.486653 
L 328.656962 44.654257 
L 330.561371 44.654257 
L 330.561371 40.821861 
L 332.147944 40.821861 
L 332.203098 33.157069 
L 332.558544 33.157069 
L 332.558544 29.324673 
L 332.758833 29.324673 
L 332.758833 25.492277 
L 333.334207 25.492277 
L 333.382694 17.827485 
L 333.542947 17.827485 
L 333.542947 13.995089 
L 334.299302 13.995089 
L 334.299302 10.162693 
L 336.498885 10.162693 
L 336.498885 6.330297 
L 336.498885 6.330297 
L 460.8 6.330297 
L 460.8 6.330297 
" clip-path="url(#p37f1a8deba)" style="fill: none; stroke: #000000; stroke-width: 1.5; stroke-linecap: square"/>
   </g>
   <g id="line2d_25">
    <path d="M 219.347318 293.76 
L 219.347318 289.927604 
L 220.830655 289.927604 
L 220.830655 286.095208 
L 224.22715 286.095208 
L 224.22715 282.262812 
L 225.948541 282.262812 
L 225.948541 278.430416 
L 226.327042 278.430416 
L 226.412753 266.933228 
L 226.67401 266.933228 
L 226.776185 259.268436 
L 226.817846 259.268436 
L 226.817846 255.43604 
L 227.24318 255.43604 
L 227.24318 251.603644 
L 227.95217 251.603644 
L 227.95217 247.771248 
L 228.180186 247.771248 
L 228.180186 243.938851 
L 229.046428 243.938851 
L 229.139246 236.274059 
L 255.913576 236.274059 
L 255.913576 232.441663 
L 256.042005 232.441663 
L 256.042005 228.609267 
L 256.396327 228.609267 
L 256.396327 224.776871 
L 256.752887 224.776871 
L 256.752887 220.944475 
L 256.904484 220.944475 
L 256.993837 213.279683 
L 257.079609 213.279683 
L 257.110415 205.614891 
L 257.284805 205.614891 
L 257.284805 201.782495 
L 257.493205 201.782495 
L 257.589323 182.620515 
L 257.696005 182.620515 
L 257.712441 174.955723 
L 257.872321 174.955723 
L 257.963431 163.458535 
L 258.067576 163.458535 
L 258.164765 155.793743 
L 258.228722 155.793743 
L 258.292368 144.296554 
L 258.347357 144.296554 
L 258.411155 128.96697 
L 258.512976 128.96697 
L 258.522248 121.302178 
L 277.095214 121.302178 
L 277.095214 117.469782 
L 277.887121 117.469782 
L 277.954928 109.80499 
L 278.434791 109.80499 
L 278.490073 102.140198 
L 278.548236 102.140198 
L 278.548236 98.307802 
L 278.67697 98.307802 
L 278.77603 86.810614 
L 278.840847 86.810614 
L 278.92822 75.313426 
L 279.020551 75.313426 
L 279.020551 71.48103 
L 279.237973 71.48103 
L 279.237973 67.648634 
L 279.758137 67.648634 
L 279.758137 63.816238 
L 321.373698 63.816238 
L 321.373698 59.983842 
L 322.950419 59.983842 
L 322.950419 56.151446 
L 323.829061 56.151446 
L 323.829061 52.31905 
L 324.38699 52.31905 
L 324.38699 48.486653 
L 326.556138 48.486653 
L 326.556138 44.654257 
L 326.978262 44.654257 
L 326.978262 40.821861 
L 327.269891 40.821861 
L 327.269891 36.989465 
L 328.488615 36.989465 
L 328.554323 29.324673 
L 328.896149 29.324673 
L 328.896149 25.492277 
L 329.15391 25.492277 
L 329.15391 21.659881 
L 329.573665 21.659881 
L 329.573665 17.827485 
L 329.749316 17.827485 
L 329.749316 13.995089 
L 329.901199 13.995089 
L 329.901199 10.162693 
L 330.770184 10.162693 
L 330.770184 6.330297 
L 330.770184 6.330297 
L 460.8 6.330297 
L 460.8 6.330297 
" clip-path="url(#p37f1a8deba)" style="fill: none; stroke: #00bfbf; stroke-width: 1.5; stroke-linecap: square"/>
   </g>
   <g id="line2d_26">
    <path d="M 212.840344 293.76 
L 212.840344 289.927604 
L 214.984323 289.927604 
L 214.984323 286.095208 
L 216.275739 286.095208 
L 216.275739 282.262812 
L 217.14085 282.262812 
L 217.14085 278.430416 
L 217.34514 278.430416 
L 217.34514 274.59802 
L 217.791547 274.59802 
L 217.791547 270.765624 
L 217.96073 270.765624 
L 217.96073 266.933228 
L 218.118318 266.933228 
L 218.118318 263.100832 
L 218.290893 263.100832 
L 218.290893 259.268436 
L 219.227752 259.268436 
L 219.227752 255.43604 
L 219.425557 255.43604 
L 219.425557 251.603644 
L 219.672876 251.603644 
L 219.672876 247.771248 
L 219.982084 247.771248 
L 220.04112 240.106455 
L 220.313668 240.106455 
L 220.313668 236.274059 
L 221.230624 236.274059 
L 221.30112 228.609267 
L 221.475422 228.609267 
L 221.501975 217.112079 
L 221.653333 217.112079 
L 221.653333 213.279683 
L 221.776796 213.279683 
L 221.776796 209.447287 
L 222.089378 209.447287 
L 222.186609 201.782495 
L 222.340653 201.782495 
L 222.340653 197.950099 
L 222.691332 197.950099 
L 222.691332 194.117703 
L 222.847134 194.117703 
L 222.922526 186.452911 
L 223.048847 186.452911 
L 223.048847 182.620515 
L 223.700524 182.620515 
L 223.700524 178.788119 
L 228.041842 178.788119 
L 228.041842 174.955723 
L 234.280745 174.955723 
L 234.280745 171.123327 
L 235.051551 171.123327 
L 235.051551 167.290931 
L 235.400786 167.290931 
L 235.400786 163.458535 
L 237.053401 163.458535 
L 237.053401 159.626139 
L 237.411552 159.626139 
L 237.483196 151.961347 
L 239.516996 151.961347 
L 239.516996 148.12895 
L 240.602516 148.12895 
L 240.602516 144.296554 
L 241.381341 144.296554 
L 241.381341 140.464158 
L 242.77277 140.464158 
L 242.77277 136.631762 
L 244.101218 136.631762 
L 244.19263 128.96697 
L 244.475847 128.96697 
L 244.475847 125.134574 
L 245.3702 125.134574 
L 245.3702 121.302178 
L 246.346914 121.302178 
L 246.346914 117.469782 
L 246.538903 117.469782 
L 246.574402 109.80499 
L 249.24616 109.80499 
L 249.28913 102.140198 
L 250.661709 102.140198 
L 250.661709 98.307802 
L 251.275107 98.307802 
L 251.275107 94.475406 
L 251.447193 94.475406 
L 251.447193 90.64301 
L 251.852183 90.64301 
L 251.852183 86.810614 
L 253.070679 86.810614 
L 253.070679 82.978218 
L 253.601931 82.978218 
L 253.601931 79.145822 
L 254.241574 79.145822 
L 254.241574 75.313426 
L 254.812627 75.313426 
L 254.812627 71.48103 
L 255.544912 71.48103 
L 255.544912 67.648634 
L 259.43072 67.648634 
L 259.43072 63.816238 
L 264.173417 63.816238 
L 264.173417 59.983842 
L 264.567323 59.983842 
L 264.567323 56.151446 
L 265.126422 56.151446 
L 265.126422 52.31905 
L 265.568047 52.31905 
L 265.603215 44.654257 
L 266.032654 44.654257 
L 266.032654 40.821861 
L 266.165864 40.821861 
L 266.165864 36.989465 
L 266.696879 36.989465 
L 266.795098 25.492277 
L 267.006788 25.492277 
L 267.006788 21.659881 
L 267.80745 21.659881 
L 267.80745 17.827485 
L 268.287285 17.827485 
L 268.287285 13.995089 
L 268.998194 13.995089 
L 268.998194 10.162693 
L 270.419905 10.162693 
L 270.419905 6.330297 
L 270.419905 6.330297 
L 460.8 6.330297 
L 460.8 6.330297 
" clip-path="url(#p37f1a8deba)" style="fill: none; stroke: #bf00bf; stroke-width: 1.5; stroke-linecap: square"/>
   </g>
   <g id="line2d_27">
    <path d="M 163.831918 293.76 
L 163.831918 289.927604 
L 166.162004 289.927604 
L 166.162004 286.095208 
L 182.529201 286.095208 
L 182.529201 282.262812 
L 187.142751 282.262812 
L 187.142751 278.430416 
L 203.279674 278.430416 
L 203.279674 274.59802 
L 204.75995 274.59802 
L 204.75995 270.765624 
L 205.278301 270.765624 
L 205.365883 263.100832 
L 206.306552 263.100832 
L 206.306552 259.268436 
L 206.539749 259.268436 
L 206.539749 255.43604 
L 207.387063 255.43604 
L 207.387063 251.603644 
L 207.638946 251.603644 
L 207.726645 243.938851 
L 208.025503 243.938851 
L 208.101678 236.274059 
L 208.353454 236.274059 
L 208.454864 224.776871 
L 208.537874 224.776871 
L 208.537874 220.944475 
L 208.681018 220.944475 
L 208.681018 217.112079 
L 209.104976 217.112079 
L 209.104976 213.279683 
L 209.221008 213.279683 
L 209.221008 209.447287 
L 210.356175 209.447287 
L 210.466882 201.782495 
L 210.567138 201.782495 
L 210.567138 197.950099 
L 210.744964 197.950099 
L 210.744964 194.117703 
L 210.999728 194.117703 
L 210.999728 190.285307 
L 212.262648 190.285307 
L 212.262648 186.452911 
L 212.403257 186.452911 
L 212.403257 182.620515 
L 212.56858 182.620515 
L 212.56858 178.788119 
L 212.974656 178.788119 
L 212.974656 174.955723 
L 213.61384 174.955723 
L 213.61384 171.123327 
L 214.897717 171.123327 
L 214.902744 163.458535 
L 215.38627 163.458535 
L 215.38627 159.626139 
L 215.633629 159.626139 
L 215.658056 151.961347 
L 216.044468 151.961347 
L 216.044468 148.12895 
L 216.332466 148.12895 
L 216.347806 140.464158 
L 216.843928 140.464158 
L 216.843928 136.631762 
L 217.352728 136.631762 
L 217.352728 132.799366 
L 218.138059 132.799366 
L 218.138059 128.96697 
L 221.201245 128.96697 
L 221.201245 125.134574 
L 223.850815 125.134574 
L 223.850815 121.302178 
L 224.884903 121.302178 
L 224.884903 117.469782 
L 226.637273 117.469782 
L 226.637273 113.637386 
L 229.533363 113.637386 
L 229.533363 109.80499 
L 233.297623 109.80499 
L 233.297623 105.972594 
L 233.535045 105.972594 
L 233.535045 102.140198 
L 236.021799 102.140198 
L 236.127626 90.64301 
L 236.255831 90.64301 
L 236.255831 86.810614 
L 243.24373 86.810614 
L 243.344046 79.145822 
L 244.720535 79.145822 
L 244.720535 75.313426 
L 249.340855 75.313426 
L 249.340855 71.48103 
L 251.326464 71.48103 
L 251.326464 67.648634 
L 253.091894 67.648634 
L 253.091894 63.816238 
L 257.902337 63.816238 
L 257.902337 59.983842 
L 259.345563 59.983842 
L 259.345563 56.151446 
L 259.523951 56.151446 
L 259.523951 52.31905 
L 260.337242 52.31905 
L 260.337242 48.486653 
L 260.670221 48.486653 
L 260.692829 40.821861 
L 260.866453 40.821861 
L 260.96309 33.157069 
L 261.832292 33.157069 
L 261.832292 29.324673 
L 262.055887 29.324673 
L 262.055887 25.492277 
L 262.565969 25.492277 
L 262.565969 21.659881 
L 262.727648 21.659881 
L 262.813162 13.995089 
L 263.872048 13.995089 
L 263.872048 10.162693 
L 264.431121 10.162693 
L 264.431121 6.330297 
L 264.431121 6.330297 
L 460.8 6.330297 
L 460.8 6.330297 
" clip-path="url(#p37f1a8deba)" style="fill: none; stroke: #000000; stroke-width: 1.5; stroke-linecap: square"/>
   </g>
   <g id="line2d_28">
    <path d="M -1 289.927604 
L -0.491594 289.927604 
L -0.491594 286.095208 
L -0.37475 286.095208 
L -0.274564 278.430416 
L -0.190832 278.430416 
L -0.190832 274.59802 
L 199.752928 274.59802 
L 199.752928 270.765624 
L 200.324987 270.765624 
L 200.324987 266.933228 
L 201.14274 266.933228 
L 201.14274 263.100832 
L 201.929666 263.100832 
L 201.929666 259.268436 
L 202.574373 259.268436 
L 202.574373 255.43604 
L 204.528173 255.43604 
L 204.575171 232.441663 
L 205.29449 232.441663 
L 205.29524 217.112079 
L 205.677132 217.112079 
L 205.677132 213.279683 
L 205.905824 213.279683 
L 205.905824 209.447287 
L 206.026351 209.447287 
L 206.026351 205.614891 
L 206.306221 205.614891 
L 206.317481 197.950099 
L 206.444487 197.950099 
L 206.444487 194.117703 
L 206.71337 194.117703 
L 206.763206 186.452911 
L 207.235425 186.452911 
L 207.235425 182.620515 
L 207.541134 182.620515 
L 207.541134 178.788119 
L 208.072585 178.788119 
L 208.072585 174.955723 
L 208.780544 174.955723 
L 208.780544 171.123327 
L 209.636429 171.123327 
L 209.636429 167.290931 
L 209.942555 167.290931 
L 209.942555 163.458535 
L 210.436605 163.458535 
L 210.456807 155.793743 
L 211.400528 155.793743 
L 211.400528 151.961347 
L 212.634005 151.961347 
L 212.634005 148.12895 
L 214.799635 148.12895 
L 214.799635 144.296554 
L 215.386236 144.296554 
L 215.386236 136.631762 
L 215.609721 136.631762 
L 215.609721 132.799366 
L 216.303624 132.799366 
L 216.303624 125.134574 
L 216.806413 125.134574 
L 216.806413 121.302178 
L 223.343273 121.302178 
L 223.343273 117.469782 
L 224.868575 117.469782 
L 224.868575 113.637386 
L 226.280307 113.637386 
L 226.280307 109.80499 
L 229.476991 109.80499 
L 229.476991 105.972594 
L 233.283088 105.972594 
L 233.283088 98.307802 
L 236.015355 98.307802 
L 236.015355 82.978218 
L 241.650516 82.978218 
L 241.650516 79.145822 
L 244.6882 79.145822 
L 244.6882 75.313426 
L 249.315484 75.313426 
L 249.315484 71.48103 
L 251.316576 71.48103 
L 251.316576 67.648634 
L 252.730752 67.648634 
L 252.730752 63.816238 
L 253.087805 63.816238 
L 253.087805 59.983842 
L 253.271465 59.983842 
L 253.271465 56.151446 
L 253.922617 56.151446 
L 253.922617 52.31905 
L 254.309791 52.31905 
L 254.309791 48.486653 
L 254.520654 48.486653 
L 254.520654 44.654257 
L 255.281921 44.654257 
L 255.281921 40.821861 
L 256.08947 40.821861 
L 256.08947 36.989465 
L 257.291862 36.989465 
L 257.291862 33.157069 
L 257.593487 33.157069 
L 257.593487 29.324673 
L 258.224228 29.324673 
L 258.224228 25.492277 
L 258.958005 25.492277 
L 258.958005 21.659881 
L 259.131675 21.659881 
L 259.131675 17.827485 
L 259.632062 17.827485 
L 259.632062 13.995089 
L 260.182509 13.995089 
L 260.182509 10.162693 
L 261.074939 10.162693 
L 261.074939 6.330297 
L 261.074939 6.330297 
L 460.8 6.330297 
L 460.8 6.330297 
" clip-path="url(#p37f1a8deba)" style="fill: none; stroke: #00bfbf; stroke-width: 1.5; stroke-linecap: square"/>
   </g>
   <g id="line2d_29">
    <path d="M -1 289.927604 
L -0.491594 289.927604 
L -0.491594 286.095208 
L -0.37475 286.095208 
L -0.274564 278.430416 
L -0.190832 278.430416 
L -0.125489 270.765624 
L 191.89541 270.765624 
L 191.89541 266.933228 
L 194.461329 266.933228 
L 194.461329 263.100832 
L 198.448472 263.100832 
L 198.448472 259.268436 
L 199.505285 259.268436 
L 199.505285 255.43604 
L 199.752928 255.43604 
L 199.752928 247.771248 
L 200.322814 247.771248 
L 200.322814 243.938851 
L 201.15666 243.938851 
L 201.15666 240.106455 
L 201.570504 240.106455 
L 201.570504 236.274059 
L 201.852071 236.274059 
L 201.923788 228.609267 
L 202.574373 228.609267 
L 202.574373 224.776871 
L 203.318031 224.776871 
L 203.318031 220.944475 
L 203.64241 220.944475 
L 203.673123 213.279683 
L 204.349555 213.279683 
L 204.445117 205.614891 
L 204.528173 205.614891 
L 204.528173 186.452911 
L 205.29449 186.452911 
L 205.294986 178.788119 
L 205.514156 178.788119 
L 205.623949 171.123327 
L 206.303443 171.123327 
L 206.30622 163.458535 
L 206.713369 163.458535 
L 206.713369 159.626139 
L 207.235425 159.626139 
L 207.295655 151.961347 
L 207.486981 151.961347 
L 207.512273 144.296554 
L 211.356535 144.296554 
L 211.356535 140.464158 
L 213.792985 140.464158 
L 213.792985 136.631762 
L 215.386236 136.631762 
L 215.386236 128.96697 
L 216.303624 128.96697 
L 216.303624 121.302178 
L 216.806413 121.302178 
L 216.806413 117.469782 
L 223.343273 117.469782 
L 223.343273 113.637386 
L 224.868575 113.637386 
L 224.868575 109.80499 
L 226.280307 109.80499 
L 226.280307 105.972594 
L 229.476991 105.972594 
L 229.476991 102.140198 
L 233.283088 102.140198 
L 233.283088 94.475406 
L 236.015355 94.475406 
L 236.015355 79.145822 
L 241.649469 79.145822 
L 241.649469 75.313426 
L 244.6882 75.313426 
L 244.6882 71.48103 
L 249.315484 71.48103 
L 249.315484 67.648634 
L 252.717808 67.648634 
L 252.717808 63.816238 
L 253.087805 63.816238 
L 253.087805 59.983842 
L 253.247799 59.983842 
L 253.247799 56.151446 
L 253.907535 56.151446 
L 253.907535 52.31905 
L 254.288583 52.31905 
L 254.288583 48.486653 
L 254.509083 48.486653 
L 254.509083 44.654257 
L 255.26916 44.654257 
L 255.26916 40.821861 
L 256.05028 40.821861 
L 256.05028 36.989465 
L 257.26643 36.989465 
L 257.26643 33.157069 
L 257.571932 33.157069 
L 257.571932 29.324673 
L 258.189863 29.324673 
L 258.189863 25.492277 
L 258.937335 25.492277 
L 258.937335 21.659881 
L 259.11985 21.659881 
L 259.11985 17.827485 
L 259.619174 17.827485 
L 259.619174 13.995089 
L 260.155877 13.995089 
L 260.155877 10.162693 
L 261.067242 10.162693 
L 261.067242 6.330297 
L 261.067242 6.330297 
L 460.8 6.330297 
L 460.8 6.330297 
" clip-path="url(#p37f1a8deba)" style="fill: none; stroke: #bf00bf; stroke-width: 1.5; stroke-linecap: square"/>
   </g>
   <g id="patch_3">
    <path d="M 0 293.76 
L 0 3.456 
" style="fill: none; stroke: #000000; stroke-width: 0.8; stroke-linejoin: miter; stroke-linecap: square"/>
   </g>
   <g id="patch_4">
    <path d="M 460.8 293.76 
L 460.8 3.456 
" style="fill: none; stroke: #000000; stroke-width: 0.8; stroke-linejoin: miter; stroke-linecap: square"/>
   </g>
   <g id="patch_5">
    <path d="M 0 293.76 
L 460.8 293.76 
" style="fill: none; stroke: #000000; stroke-width: 0.8; stroke-linejoin: miter; stroke-linecap: square"/>
   </g>
   <g id="patch_6">
    <path d="M 0 3.456 
L 460.8 3.456 
" style="fill: none; stroke: #000000; stroke-width: 0.8; stroke-linejoin: miter; stroke-linecap: square"/>
   </g>
   <g id="text_6">
    <!-- {f20-f24}, 20-D -->
    <g transform="translate(293.159 287.95392)scale(0.2 -0.2)">
     <defs>
      <path id="DejaVuSans-7b" d="M 3272 -594 
L 3272 -1044 
L 3078 -1044 
Q 2300 -1044 2036 -812 
Q 1772 -581 1772 109 
L 1772 856 
Q 1772 1328 1603 1509 
Q 1434 1691 991 1691 
L 800 1691 
L 800 2138 
L 991 2138 
Q 1438 2138 1605 2317 
Q 1772 2497 1772 2963 
L 1772 3713 
Q 1772 4403 2036 4633 
Q 2300 4863 3078 4863 
L 3272 4863 
L 3272 4416 
L 3059 4416 
Q 2619 4416 2484 4278 
Q 2350 4141 2350 3700 
L 2350 2925 
Q 2350 2434 2208 2212 
Q 2066 1991 1722 1913 
Q 2069 1828 2209 1606 
Q 2350 1384 2350 897 
L 2350 122 
Q 2350 -319 2484 -456 
Q 2619 -594 3059 -594 
L 3272 -594 
z
" transform="scale(0.015625)"/>
      <path id="DejaVuSans-32" d="M 1228 531 
L 3431 531 
L 3431 0 
L 469 0 
L 469 531 
Q 828 903 1448 1529 
Q 2069 2156 2228 2338 
Q 2531 2678 2651 2914 
Q 2772 3150 2772 3378 
Q 2772 3750 2511 3984 
Q 2250 4219 1831 4219 
Q 1534 4219 1204 4116 
Q 875 4013 500 3803 
L 500 4441 
Q 881 4594 1212 4672 
Q 1544 4750 1819 4750 
Q 2544 4750 2975 4387 
Q 3406 4025 3406 3419 
Q 3406 3131 3298 2873 
Q 3191 2616 2906 2266 
Q 2828 2175 2409 1742 
Q 1991 1309 1228 531 
z
" transform="scale(0.015625)"/>
      <path id="DejaVuSans-7d" d="M 800 -594 
L 1019 -594 
Q 1456 -594 1589 -459 
Q 1722 -325 1722 122 
L 1722 897 
Q 1722 1384 1862 1606 
Q 2003 1828 2350 1913 
Q 2003 1991 1862 2212 
Q 1722 2434 1722 2925 
L 1722 3700 
Q 1722 4144 1589 4280 
Q 1456 4416 1019 4416 
L 800 4416 
L 800 4863 
L 997 4863 
Q 1775 4863 2036 4633 
Q 2297 4403 2297 3713 
L 2297 2963 
Q 2297 2497 2465 2317 
Q 2634 2138 3078 2138 
L 3272 2138 
L 3272 1691 
L 3078 1691 
Q 2634 1691 2465 1509 
Q 2297 1328 2297 856 
L 2297 109 
Q 2297 -581 2036 -812 
Q 1775 -1044 997 -1044 
L 800 -1044 
L 800 -594 
z
" transform="scale(0.015625)"/>
      <path id="DejaVuSans-2c" d="M 750 794 
L 1409 794 
L 1409 256 
L 897 -744 
L 494 -744 
L 750 256 
L 750 794 
z
" transform="scale(0.015625)"/>
     </defs>
     <use xlink:href="#DejaVuSans-7b"/>
     <use xlink:href="#DejaVuSans-66" x="63.623047"/>
     <use xlink:href="#DejaVuSans-32" x="98.828125"/>
     <use xlink:href="#DejaVuSans-30" x="162.451172"/>
     <use xlink:href="#DejaVuSans-2d" x="226.074219"/>
     <use xlink:href="#DejaVuSans-66" x="262.158203"/>
     <use xlink:href="#DejaVuSans-32" x="297.363281"/>
     <use xlink:href="#DejaVuSans-34" x="360.986328"/>
     <use xlink:href="#DejaVuSans-7d" x="424.609375"/>
     <use xlink:href="#DejaVuSans-2c" x="488.232422"/>
     <use xlink:href="#DejaVuSans-20" x="520.019531"/>
     <use xlink:href="#DejaVuSans-32" x="551.806641"/>
     <use xlink:href="#DejaVuSans-30" x="615.429688"/>
     <use xlink:href="#DejaVuSans-2d" x="679.052734"/>
     <use xlink:href="#DejaVuSans-44" x="715.136719"/>
    </g>
   </g>
   <g id="text_7">
    <!-- v2.6 -->
    <g style="fill: #808080" transform="translate(219.489063 288.777272)scale(0.1 -0.1)">
     <defs>
      <path id="DejaVuSans-76" d="M 191 3500 
L 800 3500 
L 1894 563 
L 2988 3500 
L 3597 3500 
L 2284 0 
L 1503 0 
L 191 3500 
z
" transform="scale(0.015625)"/>
      <path id="DejaVuSans-2e" d="M 684 794 
L 1344 794 
L 1344 0 
L 684 0 
L 684 794 
z
" transform="scale(0.015625)"/>
      <path id="DejaVuSans-36" d="M 2113 2584 
Q 1688 2584 1439 2293 
Q 1191 2003 1191 1497 
Q 1191 994 1439 701 
Q 1688 409 2113 409 
Q 2538 409 2786 701 
Q 3034 994 3034 1497 
Q 3034 2003 2786 2293 
Q 2538 2584 2113 2584 
z
M 3366 4563 
L 3366 3988 
Q 3128 4100 2886 4159 
Q 2644 4219 2406 4219 
Q 1781 4219 1451 3797 
Q 1122 3375 1075 2522 
Q 1259 2794 1537 2939 
Q 1816 3084 2150 3084 
Q 2853 3084 3261 2657 
Q 3669 2231 3669 1497 
Q 3669 778 3244 343 
Q 2819 -91 2113 -91 
Q 1303 -91 875 529 
Q 447 1150 447 2328 
Q 447 3434 972 4092 
Q 1497 4750 2381 4750 
Q 2619 4750 2861 4703 
Q 3103 4656 3366 4563 
z
" transform="scale(0.015625)"/>
     </defs>
     <use xlink:href="#DejaVuSans-76"/>
     <use xlink:href="#DejaVuSans-32" x="59.179688"/>
     <use xlink:href="#DejaVuSans-2e" x="122.802734"/>
     <use xlink:href="#DejaVuSans-36" x="154.589844"/>
    </g>
   </g>
  </g>
 </g>
 <defs>
  <clipPath id="p37f1a8deba">
   <rect x="0" y="3.456" width="460.8" height="290.304"/>
  </clipPath>
 </defs>
</svg>
