<?xml version="1.0" encoding="utf-8" standalone="no"?>
<!DOCTYPE svg PUBLIC "-//W3C//DTD SVG 1.1//EN"
  "http://www.w3.org/Graphics/SVG/1.1/DTD/svg11.dtd">
<svg xmlns:xlink="http://www.w3.org/1999/xlink" width="460.8pt" height="345.6pt" viewBox="0 0 460.8 345.6" xmlns="http://www.w3.org/2000/svg" version="1.1">
 <metadata>
  <rdf:RDF xmlns:dc="http://purl.org/dc/elements/1.1/" xmlns:cc="http://creativecommons.org/ns#" xmlns:rdf="http://www.w3.org/1999/02/22-rdf-syntax-ns#">
   <cc:Work>
    <dc:type rdf:resource="http://purl.org/dc/dcmitype/StillImage"/>
    <dc:date>2024-05-29T07:56:26.242575</dc:date>
    <dc:format>image/svg+xml</dc:format>
    <dc:creator>
     <cc:Agent>
      <dc:title>Matplotlib v3.5.1, https://matplotlib.org/</dc:title>
     </cc:Agent>
    </dc:creator>
   </cc:Work>
  </rdf:RDF>
 </metadata>
 <defs>
  <style type="text/css">*{stroke-linejoin: round; stroke-linecap: butt}</style>
 </defs>
 <g id="figure_1">
  <g id="patch_1">
   <path d="M 0 345.6 
L 460.8 345.6 
L 460.8 0 
L 0 0 
z
" style="fill: #ffffff"/>
  </g>
  <g id="axes_1">
   <g id="patch_2">
    <path d="M 62.208 293.76 
L 460.8 293.76 
L 460.8 3.456 
L 62.208 3.456 
z
" style="fill: #ffffff"/>
   </g>
   <g id="line2d_1">
    <path d="M 238.51755 293.76 
L 238.51755 289.927604 
L 241.137903 289.927604 
L 241.137903 286.095208 
L 242.071566 286.095208 
L 242.071566 282.262812 
L 242.415299 282.262812 
L 242.415299 278.430416 
L 242.718001 278.430416 
L 242.718001 274.59802 
L 243.315578 274.59802 
L 243.315578 270.765624 
L 243.352586 270.765624 
L 243.352586 266.933228 
L 243.573809 266.933228 
L 243.573809 263.100832 
L 245.048808 263.100832 
L 245.048808 259.268436 
L 245.952627 259.268436 
L 245.952627 255.43604 
L 246.328022 255.43604 
L 246.328022 251.603644 
L 246.564807 251.603644 
L 246.564807 247.771248 
L 258.194631 247.771248 
L 258.194631 243.938851 
L 262.832711 243.938851 
L 262.832711 240.106455 
L 263.084656 240.106455 
L 263.084656 236.274059 
L 266.865994 236.274059 
L 266.865994 232.441663 
L 267.146179 232.441663 
L 267.146179 228.609267 
L 271.820326 228.609267 
L 271.820326 224.776871 
L 280.311015 224.776871 
L 280.311015 220.944475 
L 280.715651 220.944475 
L 280.715651 217.112079 
L 283.434572 217.112079 
L 283.434572 213.279683 
L 291.87096 213.279683 
L 291.87096 209.447287 
L 298.828368 209.447287 
L 298.828368 205.614891 
L 316.348003 205.614891 
L 316.348003 201.782495 
L 319.225436 201.782495 
L 319.225436 197.950099 
L 323.60685 197.950099 
L 323.60685 194.117703 
L 341.341774 194.117703 
L 341.341774 190.285307 
L 349.711521 190.285307 
L 349.711521 186.452911 
L 353.966118 186.452911 
L 353.966118 182.620515 
L 353.966118 182.620515 
L 353.966118 182.620515 
L 460.8 182.620515 
" clip-path="url(#p7bd429d284)" style="fill: none; stroke: #f5deb3; stroke-width: 1.5; stroke-linecap: square"/>
   </g>
   <g id="line2d_2"/>
   <g id="line2d_3">
    <path d="M 153.575493 293.76 
L 153.575493 289.927604 
L 154.550804 289.927604 
L 154.550804 286.095208 
L 163.411541 286.095208 
L 163.411541 282.262812 
L 220.803756 282.262812 
L 220.803756 278.430416 
L 235.311236 278.430416 
L 235.311236 274.59802 
L 266.488853 274.59802 
L 266.488853 270.765624 
L 274.972004 270.765624 
L 274.972004 266.933228 
L 279.278238 266.933228 
L 279.278238 263.100832 
L 288.385804 263.100832 
L 288.385804 259.268436 
L 289.989975 259.268436 
L 289.989975 255.43604 
L 294.348728 255.43604 
L 294.348728 251.603644 
L 299.689253 251.603644 
L 299.689253 247.771248 
L 303.912091 247.771248 
L 303.912091 243.938851 
L 305.838771 243.938851 
L 305.838771 240.106455 
L 309.703631 240.106455 
L 309.703631 236.274059 
L 327.391235 236.274059 
L 327.391235 232.441663 
L 329.321486 232.441663 
L 329.321486 228.609267 
L 330.451531 228.609267 
L 330.451531 224.776871 
L 330.758008 224.776871 
L 330.758008 220.944475 
L 331.310502 220.944475 
L 331.310502 217.112079 
L 331.519783 217.112079 
L 331.519783 213.279683 
L 332.757964 213.279683 
L 332.757964 209.447287 
L 332.850112 209.447287 
L 332.850112 205.614891 
L 334.184915 205.614891 
L 334.184915 201.782495 
L 334.308122 201.782495 
L 334.308122 197.950099 
L 336.431392 197.950099 
L 336.431392 194.117703 
L 336.868677 194.117703 
L 336.868677 190.285307 
L 337.261249 190.285307 
L 337.261249 186.452911 
L 337.295603 186.452911 
L 337.295603 182.620515 
L 338.124401 182.620515 
L 338.124401 178.788119 
L 338.315441 178.788119 
L 338.315441 174.955723 
L 339.435453 174.955723 
L 339.435453 171.123327 
L 346.020943 171.123327 
L 346.020943 167.290931 
L 347.469461 167.290931 
L 347.469461 163.458535 
L 351.272765 163.458535 
L 351.272765 159.626139 
L 354.620586 159.626139 
L 354.620586 155.793743 
L 363.461891 155.793743 
L 363.461891 151.961347 
L 370.899396 151.961347 
L 370.899396 148.12895 
L 374.683986 148.12895 
L 374.683986 144.296554 
L 377.272715 144.296554 
L 377.272715 140.464158 
L 377.272715 140.464158 
L 377.272715 140.464158 
L 460.8 140.464158 
" clip-path="url(#p7bd429d284)" style="fill: none; stroke: #f5deb3; stroke-width: 1.5; stroke-linecap: square"/>
   </g>
   <g id="line2d_4">
    <path d="M 248.370972 293.76 
L 248.370972 289.927604 
L 253.229178 289.927604 
L 253.229178 286.095208 
L 254.161978 286.095208 
L 254.24309 278.430416 
L 254.350945 278.430416 
L 254.350945 274.59802 
L 255.749174 274.59802 
L 255.749174 270.765624 
L 256.338814 270.765624 
L 256.338814 266.933228 
L 257.562484 266.933228 
L 257.562484 263.100832 
L 257.758223 263.100832 
L 257.758223 259.268436 
L 259.004244 259.268436 
L 259.004244 255.43604 
L 259.841333 255.43604 
L 259.841333 251.603644 
L 260.343099 251.603644 
L 260.343099 247.771248 
L 260.882312 247.771248 
L 260.882312 243.938851 
L 261.038014 243.938851 
L 261.038014 240.106455 
L 261.347331 240.106455 
L 261.347331 236.274059 
L 261.566593 236.274059 
L 261.65391 224.776871 
L 261.892903 224.776871 
L 261.979402 217.112079 
L 262.151755 217.112079 
L 262.151755 213.279683 
L 262.979902 213.279683 
L 262.979902 209.447287 
L 263.644916 209.447287 
L 263.644916 205.614891 
L 263.911472 205.614891 
L 263.911472 201.782495 
L 264.033808 201.782495 
L 264.033808 197.950099 
L 264.599066 197.950099 
L 264.679069 190.285307 
L 266.030792 190.285307 
L 266.030792 186.452911 
L 266.374905 186.452911 
L 266.374905 182.620515 
L 266.640203 182.620515 
L 266.640203 178.788119 
L 266.97834 178.788119 
L 266.97834 174.955723 
L 267.497855 174.955723 
L 267.571439 167.290931 
L 267.772992 167.290931 
L 267.772992 163.458535 
L 268.388658 163.458535 
L 268.388658 159.626139 
L 268.922948 159.626139 
L 268.922948 155.793743 
L 269.204566 155.793743 
L 269.292104 148.12895 
L 269.327057 148.12895 
L 269.327057 144.296554 
L 269.605421 144.296554 
L 269.622744 136.631762 
L 270.121395 136.631762 
L 270.172572 128.96697 
L 270.461155 128.96697 
L 270.494949 121.302178 
L 270.981281 121.302178 
L 270.99793 113.637386 
L 271.197094 113.637386 
L 271.230177 105.972594 
L 271.804068 105.972594 
L 271.804068 102.140198 
L 272.030987 102.140198 
L 272.030987 98.307802 
L 273.856065 98.307802 
L 273.856065 94.475406 
L 275.995511 94.475406 
L 275.995511 90.64301 
L 277.226808 90.64301 
L 277.226808 86.810614 
L 278.388933 86.810614 
L 278.388933 82.978218 
L 281.755853 82.978218 
L 281.755853 79.145822 
L 288.586682 79.145822 
L 288.586682 75.313426 
L 288.875901 75.313426 
L 288.875901 71.48103 
L 289.980357 71.48103 
L 289.980357 67.648634 
L 290.372534 67.648634 
L 290.372534 63.816238 
L 290.590607 63.816238 
L 290.590607 59.983842 
L 293.184661 59.983842 
L 293.184661 56.151446 
L 295.988205 56.151446 
L 295.988205 52.31905 
L 302.999581 52.31905 
L 302.999581 48.486653 
L 306.822532 48.486653 
L 306.822532 44.654257 
L 311.604136 44.654257 
L 311.604136 40.821861 
L 311.763456 40.821861 
L 311.763456 36.989465 
L 315.382444 36.989465 
L 315.382444 33.157069 
L 320.483644 33.157069 
L 320.483644 29.324673 
L 323.067287 29.324673 
L 323.067287 25.492277 
L 334.088185 25.492277 
L 334.088185 21.659881 
L 339.143718 21.659881 
L 339.143718 17.827485 
L 341.859408 17.827485 
L 341.859408 13.995089 
L 343.461976 13.995089 
L 343.461976 10.162693 
L 350.649686 10.162693 
L 350.649686 6.330297 
L 350.649686 6.330297 
L 460.8 6.330297 
L 460.8 6.330297 
" clip-path="url(#p7bd429d284)" style="fill: none; stroke: #f5deb3; stroke-width: 1.5; stroke-linecap: square"/>
   </g>
   <g id="line2d_5"/>
   <g id="line2d_6"/>
   <g id="line2d_7">
    <path d="M 272.224313 293.76 
L 272.224313 289.927604 
L 272.78209 289.927604 
L 272.78209 286.095208 
L 273.268726 286.095208 
L 273.268726 282.262812 
L 273.779351 282.262812 
L 273.886704 274.59802 
L 275.545972 274.59802 
L 275.545972 270.765624 
L 275.677086 270.765624 
L 275.677086 266.933228 
L 276.196631 266.933228 
L 276.196631 263.100832 
L 276.510335 263.100832 
L 276.538713 255.43604 
L 276.722606 255.43604 
L 276.778992 243.938851 
L 276.849346 243.938851 
L 276.933583 236.274059 
L 277.226808 236.274059 
L 277.337862 224.776871 
L 277.379416 224.776871 
L 277.379416 220.944475 
L 277.51757 220.944475 
L 277.558909 205.614891 
L 278.010407 205.614891 
L 278.010407 201.782495 
L 278.146071 201.782495 
L 278.146071 197.950099 
L 278.402376 197.950099 
L 278.402376 194.117703 
L 279.001951 194.117703 
L 279.001951 190.285307 
L 279.212655 190.285307 
L 279.212655 186.452911 
L 279.435133 186.452911 
L 279.461213 178.788119 
L 279.565337 178.788119 
L 279.565337 174.955723 
L 279.682103 174.955723 
L 279.682103 171.123327 
L 279.97873 171.123327 
L 280.042879 163.458535 
L 280.475969 163.458535 
L 280.488625 155.793743 
L 280.690499 155.793743 
L 280.690499 151.961347 
L 281.474128 151.961347 
L 281.474128 148.12895 
L 281.99898 148.12895 
L 281.99898 144.296554 
L 282.420389 144.296554 
L 282.527927 132.799366 
L 282.694547 132.799366 
L 282.694547 128.96697 
L 282.860369 128.96697 
L 282.860369 125.134574 
L 283.677773 125.134574 
L 283.735427 117.469782 
L 284.465042 117.469782 
L 284.465042 113.637386 
L 287.144986 113.637386 
L 287.144986 109.80499 
L 287.373922 109.80499 
L 287.373922 105.972594 
L 290.816705 105.972594 
L 290.816705 102.140198 
L 290.947918 102.140198 
L 290.947918 98.307802 
L 292.475911 98.307802 
L 292.475911 94.475406 
L 293.490235 94.475406 
L 293.490235 90.64301 
L 293.620374 90.64301 
L 293.620374 86.810614 
L 294.635833 86.810614 
L 294.703042 79.145822 
L 295.260858 79.145822 
L 295.260858 75.313426 
L 295.400975 75.313426 
L 295.433861 67.648634 
L 296.093179 67.648634 
L 296.093179 63.816238 
L 297.117951 63.816238 
L 297.117951 59.983842 
L 297.445157 59.983842 
L 297.445157 56.151446 
L 298.596636 56.151446 
L 298.596636 52.31905 
L 300.656691 52.31905 
L 300.656691 48.486653 
L 301.154847 48.486653 
L 301.154847 44.654257 
L 303.012787 44.654257 
L 303.012787 40.821861 
L 304.970037 40.821861 
L 304.970037 36.989465 
L 310.173867 36.989465 
L 310.173867 33.157069 
L 316.7277 33.157069 
L 316.7277 29.324673 
L 324.872707 29.324673 
L 324.872707 25.492277 
L 326.954254 25.492277 
L 326.954254 21.659881 
L 329.827273 21.659881 
L 329.827273 17.827485 
L 330.385717 17.827485 
L 330.385717 13.995089 
L 338.265395 13.995089 
L 338.265395 10.162693 
L 374.844375 10.162693 
L 374.844375 6.330297 
L 374.844375 6.330297 
L 460.8 6.330297 
L 460.8 6.330297 
" clip-path="url(#p7bd429d284)" style="fill: none; stroke: #f5deb3; stroke-width: 1.5; stroke-linecap: square"/>
   </g>
   <g id="line2d_8">
    <path d="M 454.204325 293.76 
L 454.204325 289.927604 
L 454.791352 289.927604 
L 454.791352 286.095208 
L 454.791352 286.095208 
L 454.791352 286.095208 
L 460.8 286.095208 
" clip-path="url(#p7bd429d284)" style="fill: none; stroke: #f5deb3; stroke-width: 1.5; stroke-linecap: square"/>
   </g>
   <g id="line2d_9">
    <path d="M 267.772992 293.76 
L 267.772992 289.927604 
L 268.63902 289.927604 
L 268.63902 286.095208 
L 269.309585 286.095208 
L 269.309585 282.262812 
L 270.410403 282.262812 
L 270.410403 278.430416 
L 270.697019 278.430416 
L 270.797613 270.765624 
L 271.345719 270.765624 
L 271.345719 266.933228 
L 271.933918 266.933228 
L 271.933918 263.100832 
L 272.320572 263.100832 
L 272.320572 259.268436 
L 272.512292 259.268436 
L 272.607755 247.771248 
L 272.62364 247.771248 
L 272.62364 243.938851 
L 273.128148 243.938851 
L 273.128148 240.106455 
L 273.331023 240.106455 
L 273.331023 236.274059 
L 273.486275 236.274059 
L 273.501762 228.609267 
L 273.62541 228.609267 
L 273.73324 220.944475 
L 273.947899 220.944475 
L 274.024241 213.279683 
L 274.478794 213.279683 
L 274.478794 209.447287 
L 274.853081 209.447287 
L 274.853081 205.614891 
L 275.031312 205.614891 
L 275.031312 201.782495 
L 275.17914 201.782495 
L 275.17914 197.950099 
L 275.41436 197.950099 
L 275.48754 186.452911 
L 275.691623 186.452911 
L 275.76422 167.290931 
L 275.807705 167.290931 
L 275.807705 163.458535 
L 276.038707 163.458535 
L 276.038707 159.626139 
L 276.25388 159.626139 
L 276.268177 151.961347 
L 276.793074 151.961347 
L 276.835287 144.296554 
L 277.240709 144.296554 
L 277.240709 140.464158 
L 277.545134 140.464158 
L 277.61395 132.799366 
L 277.996812 132.799366 
L 278.078306 125.134574 
L 278.308168 125.134574 
L 278.308168 121.302178 
L 279.173246 121.302178 
L 279.25202 109.80499 
L 280.119701 109.80499 
L 280.119701 105.972594 
L 280.715651 105.972594 
L 280.715651 102.140198 
L 285.212734 102.140198 
L 285.212734 98.307802 
L 285.782104 98.307802 
L 285.782104 94.475406 
L 286.406315 94.475406 
L 286.406315 90.64301 
L 287.446449 90.64301 
L 287.446449 86.810614 
L 287.652836 86.810614 
L 287.652836 82.978218 
L 288.875901 82.978218 
L 288.875901 79.145822 
L 290.181783 79.145822 
L 290.181783 75.313426 
L 290.363022 75.313426 
L 290.363022 71.48103 
L 290.675567 71.48103 
L 290.675567 67.648634 
L 292.296432 67.648634 
L 292.296432 63.816238 
L 293.149566 63.816238 
L 293.149566 59.983842 
L 293.715499 59.983842 
L 293.715499 56.151446 
L 295.76102 56.151446 
L 295.76102 52.31905 
L 302.278834 52.31905 
L 302.278834 48.486653 
L 302.426875 48.486653 
L 302.426875 44.654257 
L 303.262761 44.654257 
L 303.262761 40.821861 
L 307.830848 40.821861 
L 307.830848 36.989465 
L 312.629349 36.989465 
L 312.629349 33.157069 
L 313.760864 33.157069 
L 313.760864 29.324673 
L 314.517276 29.324673 
L 314.517276 25.492277 
L 314.823724 25.492277 
L 314.823724 21.659881 
L 316.000411 21.659881 
L 316.000411 17.827485 
L 317.5009 17.827485 
L 317.5009 13.995089 
L 320.495599 13.995089 
L 320.495599 10.162693 
L 322.747681 10.162693 
L 322.747681 6.330297 
L 322.747681 6.330297 
L 460.8 6.330297 
L 460.8 6.330297 
" clip-path="url(#p7bd429d284)" style="fill: none; stroke: #f5deb3; stroke-width: 1.5; stroke-linecap: square"/>
   </g>
   <g id="line2d_10">
    <path d="M 444.483094 293.76 
L 444.483094 289.927604 
L 446.930104 289.927604 
L 446.930104 286.095208 
L 451.614717 286.095208 
L 451.614717 282.262812 
L 451.614717 282.262812 
L 451.614717 282.262812 
L 460.8 282.262812 
" clip-path="url(#p7bd429d284)" style="fill: none; stroke: #f5deb3; stroke-width: 1.5; stroke-linecap: square"/>
   </g>
   <g id="line2d_11">
    <path clip-path="url(#p7bd429d284)" style="fill: none; stroke: #f5deb3; stroke-width: 1.5; stroke-linecap: square"/>
   </g>
   <g id="line2d_12">
    <path d="M 239.399401 293.76 
L 239.399401 289.927604 
L 281.028514 289.927604 
L 281.028514 286.095208 
L 283.131079 286.095208 
L 283.131079 282.262812 
L 332.020381 282.262812 
L 332.020381 278.430416 
L 339.525255 278.430416 
L 339.525255 274.59802 
L 360.132286 274.59802 
L 360.132286 270.765624 
L 371.677599 270.765624 
L 371.677599 266.933228 
L 375.08234 266.933228 
L 375.08234 263.100832 
L 377.49922 263.100832 
L 377.49922 259.268436 
L 392.752943 259.268436 
L 392.752943 255.43604 
L 392.752943 255.43604 
L 392.752943 255.43604 
L 460.8 255.43604 
" clip-path="url(#p7bd429d284)" style="fill: none; stroke: #f5deb3; stroke-width: 1.5; stroke-linecap: square"/>
   </g>
   <g id="line2d_13"/>
   <g id="line2d_14">
    <path d="M 262.51518 293.76 
L 262.51518 289.927604 
L 267.183366 289.927604 
L 267.183366 286.095208 
L 276.905527 286.095208 
L 276.905527 282.262812 
L 278.078306 282.262812 
L 278.078306 278.430416 
L 282.180212 278.430416 
L 282.180212 274.59802 
L 282.468225 274.59802 
L 282.468225 270.765624 
L 284.745924 270.765624 
L 284.745924 266.933228 
L 287.508495 266.933228 
L 287.508495 263.100832 
L 288.244493 263.100832 
L 288.244493 259.268436 
L 292.170242 259.268436 
L 292.170242 255.43604 
L 293.035261 255.43604 
L 293.035261 251.603644 
L 294.255329 251.603644 
L 294.255329 247.771248 
L 295.095285 247.771248 
L 295.095285 243.938851 
L 298.843265 243.938851 
L 298.843265 240.106455 
L 301.824044 240.106455 
L 301.824044 236.274059 
L 302.231597 236.274059 
L 302.231597 232.441663 
L 303.315158 232.441663 
L 303.315158 228.609267 
L 303.776739 228.609267 
L 303.776739 224.776871 
L 310.833238 224.776871 
L 310.833238 220.944475 
L 311.712143 220.944475 
L 311.712143 217.112079 
L 315.220413 217.112079 
L 315.220413 213.279683 
L 317.829517 213.279683 
L 317.829517 209.447287 
L 318.333636 209.447287 
L 318.333636 205.614891 
L 320.119016 205.614891 
L 320.119016 201.782495 
L 322.069033 201.782495 
L 322.069033 197.950099 
L 323.508375 197.950099 
L 323.508375 194.117703 
L 324.349097 194.117703 
L 324.349097 190.285307 
L 326.795182 190.285307 
L 326.795182 186.452911 
L 327.449954 186.452911 
L 327.449954 182.620515 
L 334.155387 182.620515 
L 334.155387 178.788119 
L 335.436533 178.788119 
L 335.436533 174.955723 
L 337.23669 174.955723 
L 337.23669 171.123327 
L 348.828176 171.123327 
L 348.828176 167.290931 
L 361.019915 167.290931 
L 361.019915 163.458535 
L 363.051714 163.458535 
L 363.051714 159.626139 
L 367.080912 159.626139 
L 367.080912 155.793743 
L 371.212964 155.793743 
L 371.212964 151.961347 
L 378.003124 151.961347 
L 378.003124 148.12895 
L 378.461731 148.12895 
L 378.461731 144.296554 
L 378.461731 144.296554 
L 378.461731 144.296554 
L 460.8 144.296554 
" clip-path="url(#p7bd429d284)" style="fill: none; stroke: #f5deb3; stroke-width: 1.5; stroke-linecap: square"/>
   </g>
   <g id="line2d_15"/>
   <g id="line2d_16"/>
   <g id="line2d_17">
    <path d="M 319.349216 293.76 
L 319.349216 289.927604 
L 320.471684 289.927604 
L 320.471684 286.095208 
L 321.485407 286.095208 
L 321.485407 282.262812 
L 321.878134 282.262812 
L 321.878134 278.430416 
L 323.555824 278.430416 
L 323.555824 274.59802 
L 323.947521 274.59802 
L 323.947521 270.765624 
L 324.0807 270.765624 
L 324.0807 266.933228 
L 324.306293 266.933228 
L 324.306293 263.100832 
L 324.91131 263.100832 
L 324.953373 255.43604 
L 325.671027 255.43604 
L 325.722458 240.106455 
L 326.825064 240.106455 
L 326.861551 232.441663 
L 327.050007 232.441663 
L 327.066489 224.776871 
L 327.35857 224.776871 
L 327.35857 220.944475 
L 327.560596 220.944475 
L 327.560596 217.112079 
L 327.919369 217.112079 
L 327.919369 213.279683 
L 328.156502 213.279683 
L 328.156502 209.447287 
L 328.559725 209.447287 
L 328.559725 205.614891 
L 328.820734 205.614891 
L 328.820734 201.782495 
L 329.610536 201.782495 
L 329.610536 197.950099 
L 329.793783 197.950099 
L 329.793783 194.117703 
L 329.963942 194.117703 
L 329.963942 190.285307 
L 330.084974 190.285307 
L 330.130252 182.620515 
L 330.301772 182.620515 
L 330.349765 174.955723 
L 330.487377 174.955723 
L 330.487377 171.123327 
L 330.879253 171.123327 
L 330.879253 167.290931 
L 331.067668 167.290931 
L 331.067668 163.458535 
L 331.589263 163.458535 
L 331.589263 159.626139 
L 332.014668 159.626139 
L 332.014668 155.793743 
L 332.140139 155.793743 
L 332.199862 148.12895 
L 333.039224 148.12895 
L 333.039224 144.296554 
L 333.695818 144.296554 
L 333.695818 140.464158 
L 333.85059 140.464158 
L 333.85059 136.631762 
L 334.160758 136.631762 
L 334.160758 132.799366 
L 335.098458 132.799366 
L 335.098458 128.96697 
L 337.182598 128.96697 
L 337.182598 125.134574 
L 337.588674 125.134574 
L 337.588674 121.302178 
L 340.691994 121.302178 
L 340.705332 113.637386 
L 342.46672 113.637386 
L 342.46672 109.80499 
L 343.813215 109.80499 
L 343.813215 105.972594 
L 344.116646 105.972594 
L 344.146843 98.307802 
L 345.050533 98.307802 
L 345.050533 94.475406 
L 345.543003 94.475406 
L 345.543003 90.64301 
L 346.083792 90.64301 
L 346.095207 82.978218 
L 346.424611 82.978218 
L 346.424611 79.145822 
L 346.537476 79.145822 
L 346.537476 75.313426 
L 347.031608 75.313426 
L 347.031608 71.48103 
L 349.143139 71.48103 
L 349.143139 67.648634 
L 349.277004 67.648634 
L 349.277004 63.816238 
L 349.520798 63.816238 
L 349.520798 59.983842 
L 349.677234 59.983842 
L 349.677234 56.151446 
L 350.849233 56.151446 
L 350.849233 52.31905 
L 351.955563 52.31905 
L 351.955563 48.486653 
L 353.748741 48.486653 
L 353.847718 40.821861 
L 355.747032 40.821861 
L 355.747032 36.989465 
L 358.174494 36.989465 
L 358.174494 33.157069 
L 360.009058 33.157069 
L 360.009058 29.324673 
L 361.383861 29.324673 
L 361.383861 25.492277 
L 363.553916 25.492277 
L 363.553916 21.659881 
L 367.458579 21.659881 
L 367.567193 13.995089 
L 369.866693 13.995089 
L 369.866693 10.162693 
L 372.167448 10.162693 
L 372.167448 6.330297 
L 372.167448 6.330297 
L 460.8 6.330297 
L 460.8 6.330297 
" clip-path="url(#p7bd429d284)" style="fill: none; stroke: #f5deb3; stroke-width: 1.5; stroke-linecap: square"/>
   </g>
   <g id="line2d_18">
    <path d="M 204.982736 293.76 
L 204.982736 289.927604 
L 229.148023 289.927604 
L 229.148023 286.095208 
L 230.245461 286.095208 
L 230.245461 282.262812 
L 236.049851 282.262812 
L 236.049851 278.430416 
L 236.728278 278.430416 
L 236.728278 274.59802 
L 247.364564 274.59802 
L 247.364564 270.765624 
L 250.300059 270.765624 
L 250.300059 266.933228 
L 262.000993 266.933228 
L 262.000993 263.100832 
L 264.858403 263.100832 
L 264.858403 259.268436 
L 276.296754 259.268436 
L 276.296754 255.43604 
L 276.736711 255.43604 
L 276.736711 251.603644 
L 281.865471 251.603644 
L 281.865471 247.771248 
L 285.035643 247.771248 
L 285.035643 243.938851 
L 286.395648 243.938851 
L 286.395648 240.106455 
L 286.534069 240.106455 
L 286.534069 236.274059 
L 286.618977 236.274059 
L 286.618977 232.441663 
L 290.429555 232.441663 
L 290.429555 228.609267 
L 291.059991 228.609267 
L 291.059991 224.776871 
L 291.532296 224.776871 
L 291.532296 220.944475 
L 291.624154 220.944475 
L 291.624154 217.112079 
L 292.088876 217.112079 
L 292.088876 213.279683 
L 292.609911 213.279683 
L 292.609911 209.447287 
L 296.318202 209.447287 
L 296.318202 205.614891 
L 299.928246 205.614891 
L 299.928246 201.782495 
L 300.072291 201.782495 
L 300.072291 197.950099 
L 302.979761 197.950099 
L 302.979761 194.117703 
L 304.174836 194.117703 
L 304.174836 190.285307 
L 305.156708 190.285307 
L 305.156708 186.452911 
L 315.695095 186.452911 
L 315.695095 182.620515 
L 319.126092 182.620515 
L 319.126092 178.788119 
L 330.600645 178.788119 
L 330.600645 174.955723 
L 333.939879 174.955723 
L 333.939879 171.123327 
L 336.219517 171.123327 
L 336.219517 167.290931 
L 340.876049 167.290931 
L 340.876049 163.458535 
L 344.582764 163.458535 
L 344.582764 159.626139 
L 345.726129 159.626139 
L 345.726129 155.793743 
L 347.421897 155.793743 
L 347.421897 151.961347 
L 351.40029 151.961347 
L 351.40029 148.12895 
L 359.699698 148.12895 
L 359.699698 144.296554 
L 371.080113 144.296554 
L 371.080113 140.464158 
L 374.004324 140.464158 
L 374.004324 136.631762 
L 379.074669 136.631762 
L 379.074669 132.799366 
L 379.802908 132.799366 
L 379.802908 128.96697 
L 380.158162 128.96697 
L 380.158162 125.134574 
L 394.944381 125.134574 
L 394.944381 121.302178 
L 394.944381 121.302178 
L 394.944381 121.302178 
L 460.8 121.302178 
" clip-path="url(#p7bd429d284)" style="fill: none; stroke: #f5deb3; stroke-width: 1.5; stroke-linecap: square"/>
   </g>
   <g id="line2d_19">
    <path clip-path="url(#p7bd429d284)" style="fill: none; stroke: #f5deb3; stroke-width: 1.5; stroke-linecap: square"/>
   </g>
   <g id="line2d_20">
    <path d="M 217.687966 293.76 
L 217.687966 289.927604 
L 221.506037 289.927604 
L 221.506037 286.095208 
L 224.501096 286.095208 
L 224.501096 282.262812 
L 225.195438 282.262812 
L 225.195438 278.430416 
L 226.603748 278.430416 
L 226.603748 270.765624 
L 226.842928 270.765624 
L 226.842928 266.933228 
L 227.433749 266.933228 
L 227.433749 263.100832 
L 227.725421 263.100832 
L 227.725421 259.268436 
L 228.924298 259.268436 
L 228.980365 251.603644 
L 229.865302 251.603644 
L 229.865302 247.771248 
L 230.568021 247.771248 
L 230.568021 243.938851 
L 232.795737 243.938851 
L 232.795737 240.106455 
L 233.540309 240.106455 
L 233.540309 232.441663 
L 235.264545 232.441663 
L 235.264545 228.609267 
L 236.862382 228.609267 
L 236.862382 224.776871 
L 239.357913 224.776871 
L 239.357913 217.112079 
L 239.647287 217.112079 
L 239.647287 213.279683 
L 240.137797 213.279683 
L 240.137797 209.447287 
L 240.501172 209.447287 
L 240.501172 205.614891 
L 241.098448 205.614891 
L 241.098448 201.782495 
L 242.868365 201.782495 
L 242.868365 197.950099 
L 243.426484 197.950099 
L 243.426484 194.117703 
L 244.084564 194.117703 
L 244.084564 190.285307 
L 244.765895 190.285307 
L 244.765895 186.452911 
L 246.966994 186.452911 
L 247.066816 178.788119 
L 247.100025 178.788119 
L 247.100025 174.955723 
L 247.430383 174.955723 
L 247.430383 171.123327 
L 248.178453 171.123327 
L 248.210614 163.458535 
L 249.689439 163.458535 
L 249.689439 159.626139 
L 252.127307 159.626139 
L 252.127307 155.793743 
L 252.498507 155.793743 
L 252.498507 151.961347 
L 254.026368 151.961347 
L 254.107798 144.296554 
L 258.073957 144.296554 
L 258.073957 140.464158 
L 258.601804 140.464158 
L 258.601804 136.631762 
L 258.720655 136.631762 
L 258.720655 132.799366 
L 259.308866 132.799366 
L 259.308866 128.96697 
L 259.610831 128.96697 
L 259.680143 121.302178 
L 264.878271 121.302178 
L 264.878271 117.469782 
L 269.151937 117.469782 
L 269.151937 113.637386 
L 269.691952 113.637386 
L 269.691952 109.80499 
L 271.575652 109.80499 
L 271.575652 105.972594 
L 275.016495 105.972594 
L 275.016495 102.140198 
L 275.48754 102.140198 
L 275.48754 98.307802 
L 277.268495 98.307802 
L 277.268495 94.475406 
L 280.828608 94.475406 
L 280.828608 90.64301 
L 282.75386 90.64301 
L 282.75386 86.810614 
L 284.622617 86.810614 
L 284.622617 82.978218 
L 284.93563 82.978218 
L 284.93563 79.145822 
L 288.051785 79.145822 
L 288.051785 75.313426 
L 288.204012 75.313426 
L 288.204012 71.48103 
L 289.476484 71.48103 
L 289.476484 67.648634 
L 290.694419 67.648634 
L 290.694419 63.816238 
L 292.025459 63.816238 
L 292.025459 59.983842 
L 293.524986 59.983842 
L 293.524986 56.151446 
L 302.130158 56.151446 
L 302.130158 52.31905 
L 305.131877 52.31905 
L 305.131877 48.486653 
L 305.527059 48.486653 
L 305.527059 44.654257 
L 310.334547 44.654257 
L 310.334547 40.821861 
L 314.640181 40.821861 
L 314.640181 36.989465 
L 319.795262 36.989465 
L 319.795262 33.157069 
L 328.933334 33.157069 
L 328.933334 29.324673 
L 333.337471 29.324673 
L 333.337471 25.492277 
L 334.33752 25.492277 
L 334.33752 21.659881 
L 335.9987 21.659881 
L 335.9987 17.827485 
L 337.925076 17.827485 
L 337.925076 13.995089 
L 355.126899 13.995089 
L 355.126899 10.162693 
L 379.264921 10.162693 
L 379.264921 6.330297 
L 379.264921 6.330297 
L 460.8 6.330297 
L 460.8 6.330297 
" clip-path="url(#p7bd429d284)" style="fill: none; stroke: #f5deb3; stroke-width: 1.5; stroke-linecap: square"/>
   </g>
   <g id="line2d_21"/>
   <g id="line2d_22">
    <path d="M 216.503542 293.76 
L 216.503542 289.927604 
L 218.227129 289.927604 
L 218.227129 286.095208 
L 221.851907 286.095208 
L 221.851907 282.262812 
L 222.26244 282.262812 
L 222.26244 278.430416 
L 222.802354 278.430416 
L 222.802354 274.59802 
L 222.936027 274.59802 
L 222.936027 270.765624 
L 223.267969 270.765624 
L 223.267969 266.933228 
L 223.662143 266.933228 
L 223.727405 259.268436 
L 224.501096 259.268436 
L 224.501096 255.43604 
L 225.257875 255.43604 
L 225.257875 251.603644 
L 226.603748 251.603644 
L 226.603748 247.771248 
L 227.550713 247.771248 
L 227.550713 243.938851 
L 228.642594 243.938851 
L 228.642594 240.106455 
L 229.148023 240.106455 
L 229.148023 236.274059 
L 229.259346 236.274059 
L 229.259346 232.441663 
L 229.480922 232.441663 
L 229.480922 228.609267 
L 231.361515 228.609267 
L 231.361515 224.776871 
L 232.239357 224.776871 
L 232.239357 220.944475 
L 232.895943 220.944475 
L 232.895943 217.112079 
L 233.687321 217.112079 
L 233.687321 213.279683 
L 239.191465 213.279683 
L 239.191465 209.447287 
L 239.647287 209.447287 
L 239.647287 205.614891 
L 240.097185 205.614891 
L 240.097185 201.782495 
L 241.8405 201.782495 
L 241.8405 197.950099 
L 243.27853 197.950099 
L 243.27853 194.117703 
L 245.08401 194.117703 
L 245.08401 190.285307 
L 245.918298 190.285307 
L 245.918298 186.452911 
L 247.364564 186.452911 
L 247.364564 182.620515 
L 250.330309 182.620515 
L 250.330309 178.788119 
L 251.577522 178.788119 
L 251.577522 174.955723 
L 251.983471 174.955723 
L 251.983471 171.123327 
L 252.640224 171.123327 
L 252.640224 167.290931 
L 252.86577 167.290931 
L 252.86577 163.458535 
L 254.080676 163.458535 
L 254.080676 159.626139 
L 254.832175 159.626139 
L 254.832175 155.793743 
L 257.365632 155.793743 
L 257.365632 151.961347 
L 260.54629 151.961347 
L 260.54629 148.12895 
L 261.126672 148.12895 
L 261.126672 144.296554 
L 261.632101 144.296554 
L 261.632101 140.464158 
L 263.334781 140.464158 
L 263.334781 136.631762 
L 265.036812 136.631762 
L 265.036812 132.799366 
L 266.884744 132.799366 
L 266.884744 128.96697 
L 267.718139 128.96697 
L 267.718139 125.134574 
L 268.621197 125.134574 
L 268.621197 121.302178 
L 269.622744 121.302178 
L 269.691952 113.637386 
L 269.743768 113.637386 
L 269.743768 109.80499 
L 270.528709 109.80499 
L 270.528709 105.972594 
L 271.081054 105.972594 
L 271.081054 102.140198 
L 271.73896 102.140198 
L 271.73896 98.307802 
L 274.658957 98.307802 
L 274.673928 90.64301 
L 276.778992 90.64301 
L 276.778992 86.810614 
L 277.80591 86.810614 
L 277.80591 82.978218 
L 278.200188 82.978218 
L 278.200188 79.145822 
L 280.260101 79.145822 
L 280.260101 75.313426 
L 280.765899 75.313426 
L 280.765899 71.48103 
L 281.140457 71.48103 
L 281.140457 67.648634 
L 281.412579 67.648634 
L 281.412579 63.816238 
L 281.621401 63.816238 
L 281.621401 59.983842 
L 281.96262 59.983842 
L 282.011092 52.31905 
L 284.306748 52.31905 
L 284.306748 48.486653 
L 289.739025 48.486653 
L 289.739025 44.654257 
L 290.694419 44.654257 
L 290.694419 40.821861 
L 294.602179 40.821861 
L 294.602179 36.989465 
L 294.937253 36.989465 
L 294.937253 33.157069 
L 297.250764 33.157069 
L 297.250764 29.324673 
L 297.846031 29.324673 
L 297.846031 25.492277 
L 298.87304 25.492277 
L 298.87304 21.659881 
L 305.0386 21.659881 
L 305.0386 17.827485 
L 305.570009 17.827485 
L 305.570009 13.995089 
L 316.26706 13.995089 
L 316.26706 10.162693 
L 323.969152 10.162693 
L 323.969152 6.330297 
L 323.969152 6.330297 
L 460.8 6.330297 
L 460.8 6.330297 
" clip-path="url(#p7bd429d284)" style="fill: none; stroke: #f5deb3; stroke-width: 1.5; stroke-linecap: square"/>
   </g>
   <g id="line2d_23">
    <path d="M 450.71513 293.76 
L 450.71513 289.927604 
L 454.519386 289.927604 
L 454.519386 286.095208 
L 454.550336 286.095208 
L 454.550336 282.262812 
L 456.381722 282.262812 
L 456.381722 278.430416 
L 456.991424 278.430416 
L 456.991424 274.59802 
L 459.003091 274.59802 
L 459.003091 270.765624 
L 459.631562 270.765624 
L 459.631562 266.933228 
L 459.934898 266.933228 
L 459.934898 263.100832 
L 459.934898 263.100832 
L 459.934898 263.100832 
L 460.8 263.100832 
" clip-path="url(#p7bd429d284)" style="fill: none; stroke: #f5deb3; stroke-width: 1.5; stroke-linecap: square"/>
   </g>
   <g id="line2d_24">
    <path d="M 256.490996 293.76 
L 256.490996 289.927604 
L 258.098126 289.927604 
L 258.098126 286.095208 
L 262.173239 286.095208 
L 262.173239 282.262812 
L 262.663724 282.262812 
L 262.74832 274.59802 
L 262.853777 274.59802 
L 262.853777 270.765624 
L 263.272419 270.765624 
L 263.272419 266.933228 
L 263.603725 266.933228 
L 263.603725 263.100832 
L 265.953856 263.100832 
L 265.973106 255.43604 
L 266.26058 255.43604 
L 266.26058 251.603644 
L 266.545687 251.603644 
L 266.545687 247.771248 
L 266.940932 247.771248 
L 266.940932 243.938851 
L 267.553057 243.938851 
L 267.553057 240.106455 
L 267.900645 240.106455 
L 267.900645 236.274059 
L 268.692434 236.274059 
L 268.692434 232.441663 
L 269.0112 232.441663 
L 269.0112 228.609267 
L 270.001687 228.609267 
L 270.001687 224.776871 
L 270.646612 224.776871 
L 270.697019 217.112079 
L 271.755249 217.112079 
L 271.755249 213.279683 
L 272.766277 213.279683 
L 272.766277 209.447287 
L 273.362129 209.447287 
L 273.362129 205.614891 
L 274.538953 205.614891 
L 274.538953 201.782495 
L 274.688893 201.782495 
L 274.763621 194.117703 
L 274.986841 194.117703 
L 274.986841 190.285307 
L 275.429008 190.285307 
L 275.516768 182.620515 
L 275.749713 182.620515 
L 275.807705 174.955723 
L 276.25388 174.955723 
L 276.25388 171.123327 
L 276.807151 171.123327 
L 276.807151 167.290931 
L 277.003624 167.290931 
L 277.003624 163.458535 
L 277.833247 163.458535 
L 277.833247 159.626139 
L 278.509729 159.626139 
L 278.509729 155.793743 
L 278.763366 155.793743 
L 278.816527 148.12895 
L 279.862961 148.12895 
L 279.862961 144.296554 
L 280.841136 144.296554 
L 280.841136 140.464158 
L 281.276785 140.464158 
L 281.276785 136.631762 
L 282.047402 136.631762 
L 282.047402 132.799366 
L 282.468225 132.799366 
L 282.575614 125.134574 
L 284.385985 125.134574 
L 284.385985 121.302178 
L 284.991228 121.302178 
L 284.991228 117.469782 
L 286.416979 117.469782 
L 286.416979 113.637386 
L 286.882981 113.637386 
L 286.882981 109.80499 
L 287.363549 109.80499 
L 287.363549 105.972594 
L 287.919312 105.972594 
L 287.919312 102.140198 
L 288.204012 102.140198 
L 288.204012 98.307802 
L 288.496431 98.307802 
L 288.496431 94.475406 
L 289.739025 94.475406 
L 289.739025 90.64301 
L 290.760319 90.64301 
L 290.788524 82.978218 
L 290.873 82.978218 
L 290.873 79.145822 
L 291.329346 79.145822 
L 291.329346 75.313426 
L 291.788887 75.313426 
L 291.788887 71.48103 
L 292.520635 71.48103 
L 292.520635 67.648634 
L 292.752276 67.648634 
L 292.752276 63.816238 
L 293.455448 63.816238 
L 293.542349 56.151446 
L 297.078791 56.151446 
L 297.078791 52.31905 
L 298.219577 52.31905 
L 298.219577 48.486653 
L 299.162015 48.486653 
L 299.162015 44.654257 
L 299.507093 44.654257 
L 299.507093 40.821861 
L 306.483776 40.821861 
L 306.483776 36.989465 
L 309.610995 36.989465 
L 309.610995 33.157069 
L 313.982796 33.157069 
L 313.982796 29.324673 
L 324.487846 29.324673 
L 324.487846 25.492277 
L 324.604816 25.492277 
L 324.604816 21.659881 
L 327.528091 21.659881 
L 327.528091 17.827485 
L 330.226649 17.827485 
L 330.226649 13.995089 
L 346.175006 13.995089 
L 346.175006 10.162693 
L 347.876561 10.162693 
L 347.876561 6.330297 
L 347.876561 6.330297 
L 460.8 6.330297 
L 460.8 6.330297 
" clip-path="url(#p7bd429d284)" style="fill: none; stroke: #f5deb3; stroke-width: 1.5; stroke-linecap: square"/>
   </g>
   <g id="line2d_25"/>
   <g id="line2d_26">
    <path d="M 298.895355 293.76 
L 298.895355 289.927604 
L 300.129742 289.927604 
L 300.129742 286.095208 
L 300.896139 286.095208 
L 300.994256 274.59802 
L 301.10605 274.59802 
L 301.203575 266.933228 
L 304.744694 266.933228 
L 304.769805 259.268436 
L 304.938827 259.268436 
L 304.938827 255.43604 
L 305.286782 255.43604 
L 305.373227 247.771248 
L 305.563877 247.771248 
L 305.631275 240.106455 
L 305.710759 240.106455 
L 305.710759 236.274059 
L 305.832686 236.274059 
L 305.881337 228.609267 
L 306.063172 228.609267 
L 306.141671 220.944475 
L 306.394075 220.944475 
L 306.394075 217.112079 
L 306.519591 217.112079 
L 306.519591 213.279683 
L 306.638707 213.279683 
L 306.638707 209.447287 
L 306.905231 209.447287 
L 306.940613 197.950099 
L 307.158007 197.950099 
L 307.158007 194.117703 
L 307.403135 194.117703 
L 307.478657 178.788119 
L 310.361255 178.788119 
L 310.398611 167.290931 
L 310.637801 167.290931 
L 310.690731 159.626139 
L 311.027578 159.626139 
L 311.027578 155.793743 
L 311.205203 155.793743 
L 311.257273 148.12895 
L 311.717277 148.12895 
L 311.717277 144.296554 
L 312.018889 144.296554 
L 312.018889 140.464158 
L 312.473973 140.464158 
L 312.473973 136.631762 
L 315.479299 136.631762 
L 315.479299 132.799366 
L 315.93229 132.799366 
L 315.941381 125.134574 
L 316.244542 125.134574 
L 316.244542 121.302178 
L 316.49591 121.302178 
L 316.49591 117.469782 
L 319.98179 117.469782 
L 319.98179 113.637386 
L 320.982256 113.637386 
L 320.986184 105.972594 
L 321.11558 105.972594 
L 321.142966 94.475406 
L 321.407876 94.475406 
L 321.407876 90.64301 
L 323.66871 90.64301 
L 323.66871 86.810614 
L 324.123784 86.810614 
L 324.123784 82.978218 
L 324.384727 82.978218 
L 324.45943 71.48103 
L 325.044334 71.48103 
L 325.044334 67.648634 
L 327.21776 67.648634 
L 327.299696 59.983842 
L 327.657929 59.983842 
L 327.657929 56.151446 
L 328.201182 56.151446 
L 328.213938 48.486653 
L 331.275499 48.486653 
L 331.275499 44.654257 
L 333.477421 44.654257 
L 333.477421 40.821861 
L 340.1384 40.821861 
L 340.1384 36.989465 
L 340.754194 36.989465 
L 340.849499 25.492277 
L 341.809929 25.492277 
L 341.809929 21.659881 
L 342.679412 21.659881 
L 342.679412 17.827485 
L 346.69861 17.827485 
L 346.69861 13.995089 
L 349.188398 13.995089 
L 349.188398 10.162693 
L 363.29331 10.162693 
L 363.29331 6.330297 
L 363.29331 6.330297 
L 460.8 6.330297 
L 460.8 6.330297 
" clip-path="url(#p7bd429d284)" style="fill: none; stroke: #f5deb3; stroke-width: 1.5; stroke-linecap: square"/>
   </g>
   <g id="line2d_27">
    <path d="M 288.345488 293.76 
L 288.345488 289.927604 
L 289.349361 289.927604 
L 289.349361 286.095208 
L 298.656587 286.095208 
L 298.656587 282.262812 
L 299.235725 282.262812 
L 299.235725 278.430416 
L 299.477858 278.430416 
L 299.477858 274.59802 
L 306.141671 274.59802 
L 306.141671 270.765624 
L 312.049415 270.765624 
L 312.049415 266.933228 
L 319.505372 266.933228 
L 319.505372 263.100832 
L 319.823712 263.100832 
L 319.823712 259.268436 
L 321.221091 259.268436 
L 321.221091 255.43604 
L 326.087128 255.43604 
L 326.087128 251.603644 
L 326.821745 251.603644 
L 326.821745 247.771248 
L 330.127236 247.771248 
L 330.127236 243.938851 
L 331.50529 243.938851 
L 331.50529 240.106455 
L 338.73441 240.106455 
L 338.73441 236.274059 
L 377.034602 236.274059 
L 377.034602 232.441663 
L 380.731546 232.441663 
L 380.731546 228.609267 
L 380.731546 228.609267 
L 380.731546 224.776871 
L 381.391111 224.776871 
L 381.391111 220.944475 
L 384.35743 220.944475 
L 384.35743 217.112079 
L 388.004073 217.112079 
L 388.004073 213.279683 
L 389.105503 213.279683 
L 389.105503 209.447287 
L 389.601149 209.447287 
L 389.601149 205.614891 
L 393.409011 205.614891 
L 393.409011 201.782495 
L 393.775178 201.782495 
L 393.775178 197.950099 
L 394.573089 197.950099 
L 394.573089 194.117703 
L 395.931392 194.117703 
L 395.931392 190.285307 
L 399.340019 190.285307 
L 399.340019 186.452911 
L 399.93275 186.452911 
L 399.93275 182.620515 
L 400.513924 182.620515 
L 400.513924 178.788119 
L 401.026394 178.788119 
L 401.026394 174.955723 
L 402.374114 174.955723 
L 402.374114 171.123327 
L 403.272036 171.123327 
L 403.272036 167.290931 
L 404.077121 167.290931 
L 404.077121 163.458535 
L 405.648884 163.458535 
L 405.648884 159.626139 
L 406.500625 159.626139 
L 406.500625 155.793743 
L 406.849753 155.793743 
L 406.849753 151.961347 
L 406.863895 151.961347 
L 406.863895 148.12895 
L 407.322181 148.12895 
L 407.322181 144.296554 
L 410.360979 144.296554 
L 410.360979 140.464158 
L 410.632764 140.464158 
L 410.632764 136.631762 
L 418.881876 136.631762 
L 418.881876 132.799366 
L 419.624218 132.799366 
L 419.624218 128.96697 
L 419.652638 128.96697 
L 419.652638 125.134574 
L 426.840054 125.134574 
L 426.840054 121.302178 
L 429.790442 121.302178 
L 429.790442 117.469782 
L 434.52865 117.469782 
L 434.52865 113.637386 
L 434.52865 113.637386 
L 434.52865 113.637386 
L 460.8 113.637386 
" clip-path="url(#p7bd429d284)" style="fill: none; stroke: #f5deb3; stroke-width: 1.5; stroke-linecap: square"/>
   </g>
   <g id="line2d_28">
    <path d="M 250.959531 293.76 
L 250.959531 289.927604 
L 251.314018 289.927604 
L 251.314018 286.095208 
L 252.213322 286.095208 
L 252.213322 282.262812 
L 253.69872 282.262812 
L 253.69872 278.430416 
L 253.944746 278.430416 
L 253.944746 274.59802 
L 254.29706 274.59802 
L 254.29706 270.765624 
L 255.489643 270.765624 
L 255.489643 266.933228 
L 256.868548 266.933228 
L 256.868548 263.100832 
L 256.99349 263.100832 
L 256.99349 259.268436 
L 258.073957 259.268436 
L 258.073957 255.43604 
L 258.506429 255.43604 
L 258.506429 251.603644 
L 258.696917 251.603644 
L 258.696917 247.771248 
L 259.564546 247.771248 
L 259.564546 243.938851 
L 260.343099 243.938851 
L 260.343099 240.106455 
L 260.478692 240.106455 
L 260.478692 236.274059 
L 260.748294 236.274059 
L 260.748294 232.441663 
L 260.882312 232.441663 
L 260.882312 228.609267 
L 261.215105 228.609267 
L 261.215105 224.776871 
L 261.479055 224.776871 
L 261.479055 220.944475 
L 261.719254 220.944475 
L 261.719254 217.112079 
L 261.871244 217.112079 
L 261.871244 213.279683 
L 262.430011 213.279683 
L 262.430011 209.447287 
L 262.60014 209.447287 
L 262.60014 205.614891 
L 262.727191 205.614891 
L 262.727191 201.782495 
L 263.583111 201.782495 
L 263.583111 197.950099 
L 264.054156 197.950099 
L 264.054156 194.117703 
L 264.216507 194.117703 
L 264.216507 190.285307 
L 265.076334 190.285307 
L 265.076334 186.452911 
L 265.683225 186.452911 
L 265.683225 182.620515 
L 266.431926 182.620515 
L 266.431926 178.788119 
L 266.790894 178.788119 
L 266.790894 174.955723 
L 267.534666 174.955723 
L 267.534666 171.123327 
L 268.531944 171.123327 
L 268.531944 167.290931 
L 268.975926 167.290931 
L 268.975926 163.458535 
L 269.187032 163.458535 
L 269.187032 159.626139 
L 269.344521 159.626139 
L 269.344521 155.793743 
L 270.410403 155.793743 
L 270.410403 151.961347 
L 270.545577 151.961347 
L 270.545577 148.12895 
L 270.947959 148.12895 
L 270.947959 144.296554 
L 271.081054 144.296554 
L 271.081054 140.464158 
L 271.41157 140.464158 
L 271.41157 136.631762 
L 271.575652 136.631762 
L 271.575652 132.799366 
L 271.70636 132.799366 
L 271.70636 128.96697 
L 272.111671 128.96697 
L 272.111671 125.134574 
L 272.718797 125.134574 
L 272.718797 121.302178 
L 273.096831 121.302178 
L 273.096831 117.469782 
L 273.408736 117.469782 
L 273.501762 109.80499 
L 273.548182 109.80499 
L 273.563641 102.140198 
L 274.176423 102.140198 
L 274.176423 98.307802 
L 275.016495 98.307802 
L 275.016495 94.475406 
L 275.894511 94.475406 
L 275.894511 90.64301 
L 276.153632 90.64301 
L 276.153632 86.810614 
L 276.764904 86.810614 
L 276.764904 82.978218 
L 276.961616 82.978218 
L 276.961616 79.145822 
L 278.037583 79.145822 
L 278.037583 75.313426 
L 278.60339 75.313426 
L 278.60339 71.48103 
L 278.935842 71.48103 
L 278.935842 67.648634 
L 279.199524 67.648634 
L 279.199524 63.816238 
L 280.18359 63.816238 
L 280.18359 59.983842 
L 280.475969 59.983842 
L 280.475969 56.151446 
L 280.803538 56.151446 
L 280.803538 52.31905 
L 281.214884 52.31905 
L 281.214884 48.486653 
L 281.486425 48.486653 
L 281.486425 44.654257 
L 282.25244 44.654257 
L 282.25244 40.821861 
L 283.735427 40.821861 
L 283.735427 36.989465 
L 284.022266 36.989465 
L 284.022266 33.157069 
L 284.39729 33.157069 
L 284.39729 29.324673 
L 296.501954 29.324673 
L 296.501954 25.492277 
L 297.110122 25.492277 
L 297.110122 21.659881 
L 299.426638 21.659881 
L 299.426638 17.827485 
L 301.473811 17.827485 
L 301.473811 13.995089 
L 303.484903 13.995089 
L 303.484903 10.162693 
L 314.739133 10.162693 
L 314.739133 6.330297 
L 314.739133 6.330297 
L 460.8 6.330297 
L 460.8 6.330297 
" clip-path="url(#p7bd429d284)" style="fill: none; stroke: #f5deb3; stroke-width: 1.5; stroke-linecap: square"/>
   </g>
   <g id="line2d_29">
    <path d="M 307.911176 293.76 
L 307.911176 289.927604 
L 307.911176 289.927604 
L 307.911176 286.095208 
L 307.911176 286.095208 
L 307.911176 282.262812 
L 330.823119 282.262812 
L 330.823119 278.430416 
L 330.823119 278.430416 
L 330.823119 274.59802 
L 330.823119 274.59802 
L 330.823119 270.765624 
L 330.823119 270.765624 
L 330.823119 270.765624 
L 460.8 270.765624 
" clip-path="url(#p7bd429d284)" style="fill: none; stroke: #f5deb3; stroke-width: 1.5; stroke-linecap: square"/>
   </g>
   <g id="line2d_30"/>
   <g id="matplotlib.axis_1">
    <g id="xtick_1">
     <g id="line2d_31">
      <path d="M 141.9264 293.76 
L 141.9264 3.456 
" clip-path="url(#p7bd429d284)" style="fill: none; stroke: #b0b0b0; stroke-width: 0.8; stroke-linecap: square"/>
     </g>
     <g id="line2d_32">
      <defs>
       <path id="m33503a2bf5" d="M 0 0 
L 0 3.5 
" style="stroke: #000000; stroke-width: 0.8"/>
      </defs>
      <g>
       <use xlink:href="#m33503a2bf5" x="141.9264" y="293.76" style="stroke: #000000; stroke-width: 0.8"/>
      </g>
     </g>
     <g id="text_1">
      <!-- 1 -->
      <g transform="translate(135.5639 315.956875)scale(0.2 -0.2)">
       <defs>
        <path id="DejaVuSans-31" d="M 794 531 
L 1825 531 
L 1825 4091 
L 703 3866 
L 703 4441 
L 1819 4666 
L 2450 4666 
L 2450 531 
L 3481 531 
L 3481 0 
L 794 0 
L 794 531 
z
" transform="scale(0.015625)"/>
       </defs>
       <use xlink:href="#DejaVuSans-31"/>
      </g>
     </g>
    </g>
    <g id="xtick_2">
     <g id="line2d_33">
      <path d="M 301.3632 293.76 
L 301.3632 3.456 
" clip-path="url(#p7bd429d284)" style="fill: none; stroke: #b0b0b0; stroke-width: 0.8; stroke-linecap: square"/>
     </g>
     <g id="line2d_34">
      <g>
       <use xlink:href="#m33503a2bf5" x="301.3632" y="293.76" style="stroke: #000000; stroke-width: 0.8"/>
      </g>
     </g>
     <g id="text_2">
      <!-- 3 -->
      <g transform="translate(295.0007 315.956875)scale(0.2 -0.2)">
       <defs>
        <path id="DejaVuSans-33" d="M 2597 2516 
Q 3050 2419 3304 2112 
Q 3559 1806 3559 1356 
Q 3559 666 3084 287 
Q 2609 -91 1734 -91 
Q 1441 -91 1130 -33 
Q 819 25 488 141 
L 488 750 
Q 750 597 1062 519 
Q 1375 441 1716 441 
Q 2309 441 2620 675 
Q 2931 909 2931 1356 
Q 2931 1769 2642 2001 
Q 2353 2234 1838 2234 
L 1294 2234 
L 1294 2753 
L 1863 2753 
Q 2328 2753 2575 2939 
Q 2822 3125 2822 3475 
Q 2822 3834 2567 4026 
Q 2313 4219 1838 4219 
Q 1578 4219 1281 4162 
Q 984 4106 628 3988 
L 628 4550 
Q 988 4650 1302 4700 
Q 1616 4750 1894 4750 
Q 2613 4750 3031 4423 
Q 3450 4097 3450 3541 
Q 3450 3153 3228 2886 
Q 3006 2619 2597 2516 
z
" transform="scale(0.015625)"/>
       </defs>
       <use xlink:href="#DejaVuSans-33"/>
      </g>
     </g>
    </g>
    <g id="xtick_3">
     <g id="line2d_35">
      <path d="M 460.8 293.76 
L 460.8 3.456 
" clip-path="url(#p7bd429d284)" style="fill: none; stroke: #b0b0b0; stroke-width: 0.8; stroke-linecap: square"/>
     </g>
     <g id="line2d_36">
      <g>
       <use xlink:href="#m33503a2bf5" x="460.8" y="293.76" style="stroke: #000000; stroke-width: 0.8"/>
      </g>
     </g>
     <g id="text_3">
      <!-- 5 -->
      <g transform="translate(454.4375 315.956875)scale(0.2 -0.2)">
       <defs>
        <path id="DejaVuSans-35" d="M 691 4666 
L 3169 4666 
L 3169 4134 
L 1269 4134 
L 1269 2991 
Q 1406 3038 1543 3061 
Q 1681 3084 1819 3084 
Q 2600 3084 3056 2656 
Q 3513 2228 3513 1497 
Q 3513 744 3044 326 
Q 2575 -91 1722 -91 
Q 1428 -91 1123 -41 
Q 819 9 494 109 
L 494 744 
Q 775 591 1075 516 
Q 1375 441 1709 441 
Q 2250 441 2565 725 
Q 2881 1009 2881 1497 
Q 2881 1984 2565 2268 
Q 2250 2553 1709 2553 
Q 1456 2553 1204 2497 
Q 953 2441 691 2322 
L 691 4666 
z
" transform="scale(0.015625)"/>
       </defs>
       <use xlink:href="#DejaVuSans-35"/>
      </g>
     </g>
    </g>
    <g id="text_4">
     <!-- log10 of FEvals / DIM -->
     <g transform="translate(156.430563 339.313125)scale(0.2 -0.2)">
      <defs>
       <path id="DejaVuSans-6c" d="M 603 4863 
L 1178 4863 
L 1178 0 
L 603 0 
L 603 4863 
z
" transform="scale(0.015625)"/>
       <path id="DejaVuSans-6f" d="M 1959 3097 
Q 1497 3097 1228 2736 
Q 959 2375 959 1747 
Q 959 1119 1226 758 
Q 1494 397 1959 397 
Q 2419 397 2687 759 
Q 2956 1122 2956 1747 
Q 2956 2369 2687 2733 
Q 2419 3097 1959 3097 
z
M 1959 3584 
Q 2709 3584 3137 3096 
Q 3566 2609 3566 1747 
Q 3566 888 3137 398 
Q 2709 -91 1959 -91 
Q 1206 -91 779 398 
Q 353 888 353 1747 
Q 353 2609 779 3096 
Q 1206 3584 1959 3584 
z
" transform="scale(0.015625)"/>
       <path id="DejaVuSans-67" d="M 2906 1791 
Q 2906 2416 2648 2759 
Q 2391 3103 1925 3103 
Q 1463 3103 1205 2759 
Q 947 2416 947 1791 
Q 947 1169 1205 825 
Q 1463 481 1925 481 
Q 2391 481 2648 825 
Q 2906 1169 2906 1791 
z
M 3481 434 
Q 3481 -459 3084 -895 
Q 2688 -1331 1869 -1331 
Q 1566 -1331 1297 -1286 
Q 1028 -1241 775 -1147 
L 775 -588 
Q 1028 -725 1275 -790 
Q 1522 -856 1778 -856 
Q 2344 -856 2625 -561 
Q 2906 -266 2906 331 
L 2906 616 
Q 2728 306 2450 153 
Q 2172 0 1784 0 
Q 1141 0 747 490 
Q 353 981 353 1791 
Q 353 2603 747 3093 
Q 1141 3584 1784 3584 
Q 2172 3584 2450 3431 
Q 2728 3278 2906 2969 
L 2906 3500 
L 3481 3500 
L 3481 434 
z
" transform="scale(0.015625)"/>
       <path id="DejaVuSans-30" d="M 2034 4250 
Q 1547 4250 1301 3770 
Q 1056 3291 1056 2328 
Q 1056 1369 1301 889 
Q 1547 409 2034 409 
Q 2525 409 2770 889 
Q 3016 1369 3016 2328 
Q 3016 3291 2770 3770 
Q 2525 4250 2034 4250 
z
M 2034 4750 
Q 2819 4750 3233 4129 
Q 3647 3509 3647 2328 
Q 3647 1150 3233 529 
Q 2819 -91 2034 -91 
Q 1250 -91 836 529 
Q 422 1150 422 2328 
Q 422 3509 836 4129 
Q 1250 4750 2034 4750 
z
" transform="scale(0.015625)"/>
       <path id="DejaVuSans-20" transform="scale(0.015625)"/>
       <path id="DejaVuSans-66" d="M 2375 4863 
L 2375 4384 
L 1825 4384 
Q 1516 4384 1395 4259 
Q 1275 4134 1275 3809 
L 1275 3500 
L 2222 3500 
L 2222 3053 
L 1275 3053 
L 1275 0 
L 697 0 
L 697 3053 
L 147 3053 
L 147 3500 
L 697 3500 
L 697 3744 
Q 697 4328 969 4595 
Q 1241 4863 1831 4863 
L 2375 4863 
z
" transform="scale(0.015625)"/>
       <path id="DejaVuSans-46" d="M 628 4666 
L 3309 4666 
L 3309 4134 
L 1259 4134 
L 1259 2759 
L 3109 2759 
L 3109 2228 
L 1259 2228 
L 1259 0 
L 628 0 
L 628 4666 
z
" transform="scale(0.015625)"/>
       <path id="DejaVuSans-45" d="M 628 4666 
L 3578 4666 
L 3578 4134 
L 1259 4134 
L 1259 2753 
L 3481 2753 
L 3481 2222 
L 1259 2222 
L 1259 531 
L 3634 531 
L 3634 0 
L 628 0 
L 628 4666 
z
" transform="scale(0.015625)"/>
       <path id="DejaVuSans-76" d="M 191 3500 
L 800 3500 
L 1894 563 
L 2988 3500 
L 3597 3500 
L 2284 0 
L 1503 0 
L 191 3500 
z
" transform="scale(0.015625)"/>
       <path id="DejaVuSans-61" d="M 2194 1759 
Q 1497 1759 1228 1600 
Q 959 1441 959 1056 
Q 959 750 1161 570 
Q 1363 391 1709 391 
Q 2188 391 2477 730 
Q 2766 1069 2766 1631 
L 2766 1759 
L 2194 1759 
z
M 3341 1997 
L 3341 0 
L 2766 0 
L 2766 531 
Q 2569 213 2275 61 
Q 1981 -91 1556 -91 
Q 1019 -91 701 211 
Q 384 513 384 1019 
Q 384 1609 779 1909 
Q 1175 2209 1959 2209 
L 2766 2209 
L 2766 2266 
Q 2766 2663 2505 2880 
Q 2244 3097 1772 3097 
Q 1472 3097 1187 3025 
Q 903 2953 641 2809 
L 641 3341 
Q 956 3463 1253 3523 
Q 1550 3584 1831 3584 
Q 2591 3584 2966 3190 
Q 3341 2797 3341 1997 
z
" transform="scale(0.015625)"/>
       <path id="DejaVuSans-73" d="M 2834 3397 
L 2834 2853 
Q 2591 2978 2328 3040 
Q 2066 3103 1784 3103 
Q 1356 3103 1142 2972 
Q 928 2841 928 2578 
Q 928 2378 1081 2264 
Q 1234 2150 1697 2047 
L 1894 2003 
Q 2506 1872 2764 1633 
Q 3022 1394 3022 966 
Q 3022 478 2636 193 
Q 2250 -91 1575 -91 
Q 1294 -91 989 -36 
Q 684 19 347 128 
L 347 722 
Q 666 556 975 473 
Q 1284 391 1588 391 
Q 1994 391 2212 530 
Q 2431 669 2431 922 
Q 2431 1156 2273 1281 
Q 2116 1406 1581 1522 
L 1381 1569 
Q 847 1681 609 1914 
Q 372 2147 372 2553 
Q 372 3047 722 3315 
Q 1072 3584 1716 3584 
Q 2034 3584 2315 3537 
Q 2597 3491 2834 3397 
z
" transform="scale(0.015625)"/>
       <path id="DejaVuSans-2f" d="M 1625 4666 
L 2156 4666 
L 531 -594 
L 0 -594 
L 1625 4666 
z
" transform="scale(0.015625)"/>
       <path id="DejaVuSans-44" d="M 1259 4147 
L 1259 519 
L 2022 519 
Q 2988 519 3436 956 
Q 3884 1394 3884 2338 
Q 3884 3275 3436 3711 
Q 2988 4147 2022 4147 
L 1259 4147 
z
M 628 4666 
L 1925 4666 
Q 3281 4666 3915 4102 
Q 4550 3538 4550 2338 
Q 4550 1131 3912 565 
Q 3275 0 1925 0 
L 628 0 
L 628 4666 
z
" transform="scale(0.015625)"/>
       <path id="DejaVuSans-49" d="M 628 4666 
L 1259 4666 
L 1259 0 
L 628 0 
L 628 4666 
z
" transform="scale(0.015625)"/>
       <path id="DejaVuSans-4d" d="M 628 4666 
L 1569 4666 
L 2759 1491 
L 3956 4666 
L 4897 4666 
L 4897 0 
L 4281 0 
L 4281 4097 
L 3078 897 
L 2444 897 
L 1241 4097 
L 1241 0 
L 628 0 
L 628 4666 
z
" transform="scale(0.015625)"/>
      </defs>
      <use xlink:href="#DejaVuSans-6c"/>
      <use xlink:href="#DejaVuSans-6f" x="27.783203"/>
      <use xlink:href="#DejaVuSans-67" x="88.964844"/>
      <use xlink:href="#DejaVuSans-31" x="152.441406"/>
      <use xlink:href="#DejaVuSans-30" x="216.064453"/>
      <use xlink:href="#DejaVuSans-20" x="279.6875"/>
      <use xlink:href="#DejaVuSans-6f" x="311.474609"/>
      <use xlink:href="#DejaVuSans-66" x="372.65625"/>
      <use xlink:href="#DejaVuSans-20" x="407.861328"/>
      <use xlink:href="#DejaVuSans-46" x="439.648438"/>
      <use xlink:href="#DejaVuSans-45" x="497.167969"/>
      <use xlink:href="#DejaVuSans-76" x="560.351562"/>
      <use xlink:href="#DejaVuSans-61" x="619.53125"/>
      <use xlink:href="#DejaVuSans-6c" x="680.810547"/>
      <use xlink:href="#DejaVuSans-73" x="708.59375"/>
      <use xlink:href="#DejaVuSans-20" x="760.693359"/>
      <use xlink:href="#DejaVuSans-2f" x="792.480469"/>
      <use xlink:href="#DejaVuSans-20" x="826.171875"/>
      <use xlink:href="#DejaVuSans-44" x="857.958984"/>
      <use xlink:href="#DejaVuSans-49" x="934.960938"/>
      <use xlink:href="#DejaVuSans-4d" x="964.453125"/>
     </g>
    </g>
   </g>
   <g id="matplotlib.axis_2">
    <g id="ytick_1">
     <g id="line2d_37">
      <path d="M 62.208 293.76 
L 460.8 293.76 
" clip-path="url(#p7bd429d284)" style="fill: none; stroke: #b0b0b0; stroke-width: 0.8; stroke-linecap: square"/>
     </g>
     <g id="line2d_38">
      <defs>
       <path id="m3de1f6d6ae" d="M 0 0 
L -3.5 0 
" style="stroke: #000000; stroke-width: 0.8"/>
      </defs>
      <g>
       <use xlink:href="#m3de1f6d6ae" x="62.208" y="293.76" style="stroke: #000000; stroke-width: 0.8"/>
      </g>
     </g>
     <g id="text_5">
      <!-- 0.0 -->
      <g transform="translate(29.763 299.83875)scale(0.16 -0.16)">
       <defs>
        <path id="DejaVuSans-2e" d="M 684 794 
L 1344 794 
L 1344 0 
L 684 0 
L 684 794 
z
" transform="scale(0.015625)"/>
       </defs>
       <use xlink:href="#DejaVuSans-30"/>
       <use xlink:href="#DejaVuSans-2e" x="63.623047"/>
       <use xlink:href="#DejaVuSans-30" x="95.410156"/>
      </g>
     </g>
    </g>
    <g id="ytick_2">
     <g id="line2d_39">
      <path d="M 62.208 236.274059 
L 460.8 236.274059 
" clip-path="url(#p7bd429d284)" style="fill: none; stroke: #b0b0b0; stroke-width: 0.8; stroke-linecap: square"/>
     </g>
     <g id="line2d_40">
      <g>
       <use xlink:href="#m3de1f6d6ae" x="62.208" y="236.274059" style="stroke: #000000; stroke-width: 0.8"/>
      </g>
     </g>
     <g id="text_6">
      <!-- 0.2 -->
      <g transform="translate(29.763 242.352809)scale(0.16 -0.16)">
       <defs>
        <path id="DejaVuSans-32" d="M 1228 531 
L 3431 531 
L 3431 0 
L 469 0 
L 469 531 
Q 828 903 1448 1529 
Q 2069 2156 2228 2338 
Q 2531 2678 2651 2914 
Q 2772 3150 2772 3378 
Q 2772 3750 2511 3984 
Q 2250 4219 1831 4219 
Q 1534 4219 1204 4116 
Q 875 4013 500 3803 
L 500 4441 
Q 881 4594 1212 4672 
Q 1544 4750 1819 4750 
Q 2544 4750 2975 4387 
Q 3406 4025 3406 3419 
Q 3406 3131 3298 2873 
Q 3191 2616 2906 2266 
Q 2828 2175 2409 1742 
Q 1991 1309 1228 531 
z
" transform="scale(0.015625)"/>
       </defs>
       <use xlink:href="#DejaVuSans-30"/>
       <use xlink:href="#DejaVuSans-2e" x="63.623047"/>
       <use xlink:href="#DejaVuSans-32" x="95.410156"/>
      </g>
     </g>
    </g>
    <g id="ytick_3">
     <g id="line2d_41">
      <path d="M 62.208 178.788119 
L 460.8 178.788119 
" clip-path="url(#p7bd429d284)" style="fill: none; stroke: #b0b0b0; stroke-width: 0.8; stroke-linecap: square"/>
     </g>
     <g id="line2d_42">
      <g>
       <use xlink:href="#m3de1f6d6ae" x="62.208" y="178.788119" style="stroke: #000000; stroke-width: 0.8"/>
      </g>
     </g>
     <g id="text_7">
      <!-- 0.4 -->
      <g transform="translate(29.763 184.866869)scale(0.16 -0.16)">
       <defs>
        <path id="DejaVuSans-34" d="M 2419 4116 
L 825 1625 
L 2419 1625 
L 2419 4116 
z
M 2253 4666 
L 3047 4666 
L 3047 1625 
L 3713 1625 
L 3713 1100 
L 3047 1100 
L 3047 0 
L 2419 0 
L 2419 1100 
L 313 1100 
L 313 1709 
L 2253 4666 
z
" transform="scale(0.015625)"/>
       </defs>
       <use xlink:href="#DejaVuSans-30"/>
       <use xlink:href="#DejaVuSans-2e" x="63.623047"/>
       <use xlink:href="#DejaVuSans-34" x="95.410156"/>
      </g>
     </g>
    </g>
    <g id="ytick_4">
     <g id="line2d_43">
      <path d="M 62.208 121.302178 
L 460.8 121.302178 
" clip-path="url(#p7bd429d284)" style="fill: none; stroke: #b0b0b0; stroke-width: 0.8; stroke-linecap: square"/>
     </g>
     <g id="line2d_44">
      <g>
       <use xlink:href="#m3de1f6d6ae" x="62.208" y="121.302178" style="stroke: #000000; stroke-width: 0.8"/>
      </g>
     </g>
     <g id="text_8">
      <!-- 0.6 -->
      <g transform="translate(29.763 127.380928)scale(0.16 -0.16)">
       <defs>
        <path id="DejaVuSans-36" d="M 2113 2584 
Q 1688 2584 1439 2293 
Q 1191 2003 1191 1497 
Q 1191 994 1439 701 
Q 1688 409 2113 409 
Q 2538 409 2786 701 
Q 3034 994 3034 1497 
Q 3034 2003 2786 2293 
Q 2538 2584 2113 2584 
z
M 3366 4563 
L 3366 3988 
Q 3128 4100 2886 4159 
Q 2644 4219 2406 4219 
Q 1781 4219 1451 3797 
Q 1122 3375 1075 2522 
Q 1259 2794 1537 2939 
Q 1816 3084 2150 3084 
Q 2853 3084 3261 2657 
Q 3669 2231 3669 1497 
Q 3669 778 3244 343 
Q 2819 -91 2113 -91 
Q 1303 -91 875 529 
Q 447 1150 447 2328 
Q 447 3434 972 4092 
Q 1497 4750 2381 4750 
Q 2619 4750 2861 4703 
Q 3103 4656 3366 4563 
z
" transform="scale(0.015625)"/>
       </defs>
       <use xlink:href="#DejaVuSans-30"/>
       <use xlink:href="#DejaVuSans-2e" x="63.623047"/>
       <use xlink:href="#DejaVuSans-36" x="95.410156"/>
      </g>
     </g>
    </g>
    <g id="ytick_5">
     <g id="line2d_45">
      <path d="M 62.208 63.816238 
L 460.8 63.816238 
" clip-path="url(#p7bd429d284)" style="fill: none; stroke: #b0b0b0; stroke-width: 0.8; stroke-linecap: square"/>
     </g>
     <g id="line2d_46">
      <g>
       <use xlink:href="#m3de1f6d6ae" x="62.208" y="63.816238" style="stroke: #000000; stroke-width: 0.8"/>
      </g>
     </g>
     <g id="text_9">
      <!-- 0.8 -->
      <g transform="translate(29.763 69.894988)scale(0.16 -0.16)">
       <defs>
        <path id="DejaVuSans-38" d="M 2034 2216 
Q 1584 2216 1326 1975 
Q 1069 1734 1069 1313 
Q 1069 891 1326 650 
Q 1584 409 2034 409 
Q 2484 409 2743 651 
Q 3003 894 3003 1313 
Q 3003 1734 2745 1975 
Q 2488 2216 2034 2216 
z
M 1403 2484 
Q 997 2584 770 2862 
Q 544 3141 544 3541 
Q 544 4100 942 4425 
Q 1341 4750 2034 4750 
Q 2731 4750 3128 4425 
Q 3525 4100 3525 3541 
Q 3525 3141 3298 2862 
Q 3072 2584 2669 2484 
Q 3125 2378 3379 2068 
Q 3634 1759 3634 1313 
Q 3634 634 3220 271 
Q 2806 -91 2034 -91 
Q 1263 -91 848 271 
Q 434 634 434 1313 
Q 434 1759 690 2068 
Q 947 2378 1403 2484 
z
M 1172 3481 
Q 1172 3119 1398 2916 
Q 1625 2713 2034 2713 
Q 2441 2713 2670 2916 
Q 2900 3119 2900 3481 
Q 2900 3844 2670 4047 
Q 2441 4250 2034 4250 
Q 1625 4250 1398 4047 
Q 1172 3844 1172 3481 
z
" transform="scale(0.015625)"/>
       </defs>
       <use xlink:href="#DejaVuSans-30"/>
       <use xlink:href="#DejaVuSans-2e" x="63.623047"/>
       <use xlink:href="#DejaVuSans-38" x="95.410156"/>
      </g>
     </g>
    </g>
    <g id="ytick_6">
     <g id="line2d_47">
      <path d="M 62.208 6.330297 
L 460.8 6.330297 
" clip-path="url(#p7bd429d284)" style="fill: none; stroke: #b0b0b0; stroke-width: 0.8; stroke-linecap: square"/>
     </g>
     <g id="line2d_48">
      <g>
       <use xlink:href="#m3de1f6d6ae" x="62.208" y="6.330297" style="stroke: #000000; stroke-width: 0.8"/>
      </g>
     </g>
     <g id="text_10">
      <!-- 1.0 -->
      <g transform="translate(29.763 12.409047)scale(0.16 -0.16)">
       <use xlink:href="#DejaVuSans-31"/>
       <use xlink:href="#DejaVuSans-2e" x="63.623047"/>
       <use xlink:href="#DejaVuSans-30" x="95.410156"/>
      </g>
     </g>
    </g>
    <g id="text_11">
     <!-- proportion of trials -->
     <g transform="translate(21.603625 241.61425)rotate(-90)scale(0.2 -0.2)">
      <defs>
       <path id="DejaVuSans-70" d="M 1159 525 
L 1159 -1331 
L 581 -1331 
L 581 3500 
L 1159 3500 
L 1159 2969 
Q 1341 3281 1617 3432 
Q 1894 3584 2278 3584 
Q 2916 3584 3314 3078 
Q 3713 2572 3713 1747 
Q 3713 922 3314 415 
Q 2916 -91 2278 -91 
Q 1894 -91 1617 61 
Q 1341 213 1159 525 
z
M 3116 1747 
Q 3116 2381 2855 2742 
Q 2594 3103 2138 3103 
Q 1681 3103 1420 2742 
Q 1159 2381 1159 1747 
Q 1159 1113 1420 752 
Q 1681 391 2138 391 
Q 2594 391 2855 752 
Q 3116 1113 3116 1747 
z
" transform="scale(0.015625)"/>
       <path id="DejaVuSans-72" d="M 2631 2963 
Q 2534 3019 2420 3045 
Q 2306 3072 2169 3072 
Q 1681 3072 1420 2755 
Q 1159 2438 1159 1844 
L 1159 0 
L 581 0 
L 581 3500 
L 1159 3500 
L 1159 2956 
Q 1341 3275 1631 3429 
Q 1922 3584 2338 3584 
Q 2397 3584 2469 3576 
Q 2541 3569 2628 3553 
L 2631 2963 
z
" transform="scale(0.015625)"/>
       <path id="DejaVuSans-74" d="M 1172 4494 
L 1172 3500 
L 2356 3500 
L 2356 3053 
L 1172 3053 
L 1172 1153 
Q 1172 725 1289 603 
Q 1406 481 1766 481 
L 2356 481 
L 2356 0 
L 1766 0 
Q 1100 0 847 248 
Q 594 497 594 1153 
L 594 3053 
L 172 3053 
L 172 3500 
L 594 3500 
L 594 4494 
L 1172 4494 
z
" transform="scale(0.015625)"/>
       <path id="DejaVuSans-69" d="M 603 3500 
L 1178 3500 
L 1178 0 
L 603 0 
L 603 3500 
z
M 603 4863 
L 1178 4863 
L 1178 4134 
L 603 4134 
L 603 4863 
z
" transform="scale(0.015625)"/>
       <path id="DejaVuSans-6e" d="M 3513 2113 
L 3513 0 
L 2938 0 
L 2938 2094 
Q 2938 2591 2744 2837 
Q 2550 3084 2163 3084 
Q 1697 3084 1428 2787 
Q 1159 2491 1159 1978 
L 1159 0 
L 581 0 
L 581 3500 
L 1159 3500 
L 1159 2956 
Q 1366 3272 1645 3428 
Q 1925 3584 2291 3584 
Q 2894 3584 3203 3211 
Q 3513 2838 3513 2113 
z
" transform="scale(0.015625)"/>
      </defs>
      <use xlink:href="#DejaVuSans-70"/>
      <use xlink:href="#DejaVuSans-72" x="63.476562"/>
      <use xlink:href="#DejaVuSans-6f" x="102.339844"/>
      <use xlink:href="#DejaVuSans-70" x="163.521484"/>
      <use xlink:href="#DejaVuSans-6f" x="226.998047"/>
      <use xlink:href="#DejaVuSans-72" x="288.179688"/>
      <use xlink:href="#DejaVuSans-74" x="329.292969"/>
      <use xlink:href="#DejaVuSans-69" x="368.501953"/>
      <use xlink:href="#DejaVuSans-6f" x="396.285156"/>
      <use xlink:href="#DejaVuSans-6e" x="457.466797"/>
      <use xlink:href="#DejaVuSans-20" x="520.845703"/>
      <use xlink:href="#DejaVuSans-6f" x="552.632812"/>
      <use xlink:href="#DejaVuSans-66" x="613.814453"/>
      <use xlink:href="#DejaVuSans-20" x="649.019531"/>
      <use xlink:href="#DejaVuSans-74" x="680.806641"/>
      <use xlink:href="#DejaVuSans-72" x="720.015625"/>
      <use xlink:href="#DejaVuSans-69" x="761.128906"/>
      <use xlink:href="#DejaVuSans-61" x="788.912109"/>
      <use xlink:href="#DejaVuSans-6c" x="850.191406"/>
      <use xlink:href="#DejaVuSans-73" x="877.974609"/>
     </g>
    </g>
   </g>
   <g id="line2d_49">
    <path d="M 30.484859 293.76 
L 30.484859 289.927604 
L 44.522573 289.927604 
L 44.522573 286.095208 
L 68.520202 286.095208 
L 68.520202 278.430416 
L 89.505388 278.430416 
L 89.505388 274.59802 
L 92.517832 274.59802 
L 92.517832 270.765624 
L 97.854723 270.765624 
L 97.854723 266.933228 
L 104.576649 266.933228 
L 104.576649 263.100832 
L 111.892436 263.100832 
L 111.892436 259.268436 
L 119.286641 259.268436 
L 119.286641 255.43604 
L 120.593259 255.43604 
L 120.593259 251.603644 
L 144.590888 251.603644 
L 144.590888 247.771248 
L 149.927779 247.771248 
L 149.927779 243.938851 
L 153.575493 243.938851 
L 153.575493 240.106455 
L 161.498277 240.106455 
L 161.498277 236.274059 
L 218.455653 236.274059 
L 218.455653 232.441663 
L 235.311236 232.441663 
L 235.311236 228.609267 
L 260.793025 228.609267 
L 260.793025 224.776871 
L 272.797895 224.776871 
L 272.797895 220.944475 
L 273.190698 220.944475 
L 273.190698 217.112079 
L 273.93261 217.112079 
L 273.93261 213.279683 
L 276.339576 213.279683 
L 276.339576 209.447287 
L 277.003624 209.447287 
L 277.003624 205.614891 
L 277.723772 205.614891 
L 277.723772 201.782495 
L 284.476321 201.782495 
L 284.476321 197.950099 
L 284.68993 197.950099 
L 284.68993 194.117703 
L 292.359356 194.117703 
L 292.359356 190.285307 
L 296.246032 190.285307 
L 296.246032 186.452911 
L 304.976275 186.452911 
L 304.976275 182.620515 
L 305.710759 182.620515 
L 305.710759 178.788119 
L 307.819358 178.788119 
L 307.819358 174.955723 
L 310.071715 174.955723 
L 310.071715 171.123327 
L 310.558255 171.123327 
L 310.558255 167.290931 
L 313.697885 167.290931 
L 313.697885 163.458535 
L 319.493069 163.458535 
L 319.493069 159.626139 
L 319.607723 159.626139 
L 319.607723 155.793743 
L 322.289164 155.793743 
L 322.289164 151.961347 
L 323.940307 151.961347 
L 323.940307 148.12895 
L 324.059138 148.12895 
L 324.059138 144.296554 
L 325.773812 144.296554 
L 325.773812 140.464158 
L 326.316902 140.464158 
L 326.316902 136.631762 
L 332.942016 136.631762 
L 332.942016 132.799366 
L 334.01546 132.799366 
L 334.01546 128.96697 
L 336.280185 128.96697 
L 336.280185 125.134574 
L 341.282807 125.134574 
L 341.282807 121.302178 
L 343.746102 121.302178 
L 343.746102 117.469782 
L 354.462607 117.469782 
L 354.462607 113.637386 
L 357.009108 113.637386 
L 357.009108 109.80499 
L 367.732533 109.80499 
L 367.732533 105.972594 
L 369.731448 105.972594 
L 369.731448 102.140198 
L 375.631312 102.140198 
L 375.631312 98.307802 
L 382.571711 98.307802 
L 382.571711 94.475406 
L 384.702784 94.475406 
L 384.702784 90.64301 
L 387.051675 90.64301 
L 387.051675 86.810614 
L 389.48184 86.810614 
L 389.48184 82.978218 
L 390.787331 82.978218 
L 390.787331 79.145822 
L 394.571682 79.145822 
L 394.571682 75.313426 
L 400.921929 75.313426 
L 400.921929 71.48103 
L 401.935227 71.48103 
L 401.935227 67.648634 
L 402.336659 67.648634 
L 402.336659 63.816238 
L 404.851017 63.816238 
L 404.851017 59.983842 
L 405.00055 59.983842 
L 405.00055 56.151446 
L 413.209238 56.151446 
L 413.209238 52.31905 
L 415.31218 52.31905 
L 415.31218 48.486653 
L 420.317329 48.486653 
L 420.317329 44.654257 
L 423.954875 44.654257 
L 423.954875 40.821861 
L 427.469888 40.821861 
L 427.469888 36.989465 
L 433.156195 36.989465 
L 433.156195 33.157069 
L 434.663554 33.157069 
L 434.663554 29.324673 
L 440.776981 29.324673 
L 440.776981 25.492277 
L 443.756578 25.492277 
L 443.756578 21.659881 
L 452.777903 21.659881 
L 452.777903 17.827485 
L 452.777903 17.827485 
L 460.8 17.827485 
L 460.8 17.827485 
" clip-path="url(#p7bd429d284)" style="fill: none; stroke: #000000; stroke-width: 1.5; stroke-linecap: square"/>
   </g>
   <g id="line2d_50">
    <path clip-path="url(#p7bd429d284)" style="fill: none; stroke: #000000; stroke-width: 1.5; stroke-linecap: square"/>
   </g>
   <g id="line2d_51">
    <path d="M 231.361515 293.76 
L 231.361515 289.927604 
L 232.745525 289.927604 
L 232.745525 286.095208 
L 232.795737 286.095208 
L 232.795737 282.262812 
L 233.979485 282.262812 
L 233.979485 278.430416 
L 247.0003 278.430416 
L 247.0003 274.59802 
L 251.723051 274.59802 
L 251.723051 270.765624 
L 255.280609 270.765624 
L 255.280609 266.933228 
L 256.516294 266.933228 
L 256.516294 263.100832 
L 257.142827 263.100832 
L 257.142827 259.268436 
L 258.839099 259.268436 
L 258.839099 255.43604 
L 259.657054 255.43604 
L 259.657054 251.603644 
L 261.632101 251.603644 
L 261.632101 247.771248 
L 263.788701 247.771248 
L 263.788701 243.938851 
L 265.076334 243.938851 
L 265.076334 240.106455 
L 266.488853 240.106455 
L 266.488853 236.274059 
L 337.45954 236.274059 
L 337.45954 232.441663 
L 339.08787 232.441663 
L 339.08787 228.609267 
L 351.208826 228.609267 
L 351.208826 224.776871 
L 364.977471 224.776871 
L 364.977471 220.944475 
L 376.593631 220.944475 
L 376.593631 217.112079 
L 379.576568 217.112079 
L 379.576568 213.279683 
L 396.376725 213.279683 
L 396.376725 209.447287 
L 396.785622 209.447287 
L 396.785622 205.614891 
L 399.468094 205.614891 
L 399.468094 201.782495 
L 402.552964 201.782495 
L 402.552964 197.950099 
L 403.679622 197.950099 
L 403.679622 194.117703 
L 408.474223 194.117703 
L 408.474223 190.285307 
L 408.737813 190.285307 
L 408.737813 186.452911 
L 409.114532 186.452911 
L 409.114532 182.620515 
L 409.656871 182.620515 
L 409.656871 178.788119 
L 413.763776 178.788119 
L 413.763776 174.955723 
L 416.088381 174.955723 
L 416.088381 171.123327 
L 416.890415 171.123327 
L 416.890415 167.290931 
L 417.58466 167.290931 
L 417.58466 163.458535 
L 418.759428 163.458535 
L 418.759428 159.626139 
L 421.487833 159.626139 
L 421.487833 155.793743 
L 424.223381 155.793743 
L 424.223381 151.961347 
L 429.213861 151.961347 
L 429.213861 148.12895 
L 430.886835 148.12895 
L 430.886835 144.296554 
L 431.352893 144.296554 
L 431.352893 140.464158 
L 432.914709 140.464158 
L 432.914709 136.631762 
L 444.019641 136.631762 
L 444.019641 132.799366 
L 446.90384 132.799366 
L 446.90384 128.96697 
L 457.362299 128.96697 
L 457.362299 125.134574 
L 459.97137 125.134574 
L 459.97137 121.302178 
L 459.97137 121.302178 
L 459.97137 121.302178 
L 460.8 121.302178 
" clip-path="url(#p7bd429d284)" style="fill: none; stroke: #00bfbf; stroke-width: 1.5; stroke-linecap: square"/>
   </g>
   <g id="line2d_52">
    <path clip-path="url(#p7bd429d284)" style="fill: none; stroke: #00bfbf; stroke-width: 1.5; stroke-linecap: square"/>
   </g>
   <g id="line2d_53">
    <path d="M 367.807797 293.76 
L 367.807797 289.927604 
L 381.686315 289.927604 
L 381.686315 286.095208 
L 382.835343 286.095208 
L 382.835343 282.262812 
L 388.463632 282.262812 
L 388.463632 278.430416 
L 389.349033 278.430416 
L 389.349033 274.59802 
L 391.939782 274.59802 
L 391.939782 270.765624 
L 392.171771 270.765624 
L 392.171771 266.933228 
L 392.421185 266.933228 
L 392.421185 263.100832 
L 392.469058 263.100832 
L 392.469058 259.268436 
L 393.195929 259.268436 
L 393.195929 255.43604 
L 393.331811 255.43604 
L 393.331811 251.603644 
L 393.429375 251.603644 
L 393.429375 247.771248 
L 395.780911 247.771248 
L 395.780911 243.938851 
L 397.525532 243.938851 
L 397.525532 240.106455 
L 399.778153 240.106455 
L 399.778153 236.274059 
L 437.771776 236.274059 
L 437.771776 232.441663 
L 438.102535 232.441663 
L 438.102535 228.609267 
L 440.433905 228.609267 
L 440.433905 224.776871 
L 442.949962 224.776871 
L 442.949962 220.944475 
L 443.300565 220.944475 
L 443.300565 217.112079 
L 443.877918 217.112079 
L 443.877918 213.279683 
L 449.549846 213.279683 
L 449.549846 209.447287 
L 451.259543 209.447287 
L 451.259543 205.614891 
L 452.818821 205.614891 
L 452.818821 201.782495 
L 454.006388 201.782495 
L 454.006388 197.950099 
L 459.030065 197.950099 
L 459.030065 194.117703 
L 460.381401 194.117703 
L 460.381401 190.285307 
L 460.783447 190.285307 
L 460.783447 186.452911 
L 460.783447 186.452911 
L 460.783447 186.452911 
L 460.8 186.452911 
" clip-path="url(#p7bd429d284)" style="fill: none; stroke: #bf00bf; stroke-width: 1.5; stroke-linecap: square"/>
   </g>
   <g id="line2d_54">
    <path clip-path="url(#p7bd429d284)" style="fill: none; stroke: #bf00bf; stroke-width: 1.5; stroke-linecap: square"/>
   </g>
   <g id="line2d_55">
    <path d="M 458.902811 293.76 
L 458.902811 289.927604 
L 458.902811 289.927604 
L 458.902811 289.927604 
L 460.8 289.927604 
" clip-path="url(#p7bd429d284)" style="fill: none; stroke: #ff0000; stroke-width: 3; stroke-linecap: square"/>
   </g>
   <g id="line2d_56">
    <path clip-path="url(#p7bd429d284)" style="fill: none; stroke: #ff0000; stroke-width: 3; stroke-linecap: square"/>
   </g>
   <g id="line2d_57">
    <path d="M 460.8 293.76 
L 460.8 3.456 
" clip-path="url(#p7bd429d284)" style="fill: none; stroke: #000000; stroke-width: 1.5; stroke-linecap: square"/>
   </g>
   <g id="patch_3">
    <path d="M 62.208 293.76 
L 62.208 3.456 
" style="fill: none; stroke: #000000; stroke-width: 0.8; stroke-linejoin: miter; stroke-linecap: square"/>
   </g>
   <g id="patch_4">
    <path d="M 460.8 293.76 
L 460.8 3.456 
" style="fill: none; stroke: #000000; stroke-width: 0.8; stroke-linejoin: miter; stroke-linecap: square"/>
   </g>
   <g id="patch_5">
    <path d="M 62.208 293.76 
L 460.8 293.76 
" style="fill: none; stroke: #000000; stroke-width: 0.8; stroke-linejoin: miter; stroke-linecap: square"/>
   </g>
   <g id="patch_6">
    <path d="M 62.208 3.456 
L 460.8 3.456 
" style="fill: none; stroke: #000000; stroke-width: 0.8; stroke-linejoin: miter; stroke-linecap: square"/>
   </g>
   <g id="text_12">
    <!-- {f10-f14}, 5-D -->
    <g transform="translate(188.654 24.458955)scale(0.2 -0.2)">
     <defs>
      <path id="DejaVuSans-7b" d="M 3272 -594 
L 3272 -1044 
L 3078 -1044 
Q 2300 -1044 2036 -812 
Q 1772 -581 1772 109 
L 1772 856 
Q 1772 1328 1603 1509 
Q 1434 1691 991 1691 
L 800 1691 
L 800 2138 
L 991 2138 
Q 1438 2138 1605 2317 
Q 1772 2497 1772 2963 
L 1772 3713 
Q 1772 4403 2036 4633 
Q 2300 4863 3078 4863 
L 3272 4863 
L 3272 4416 
L 3059 4416 
Q 2619 4416 2484 4278 
Q 2350 4141 2350 3700 
L 2350 2925 
Q 2350 2434 2208 2212 
Q 2066 1991 1722 1913 
Q 2069 1828 2209 1606 
Q 2350 1384 2350 897 
L 2350 122 
Q 2350 -319 2484 -456 
Q 2619 -594 3059 -594 
L 3272 -594 
z
" transform="scale(0.015625)"/>
      <path id="DejaVuSans-2d" d="M 313 2009 
L 1997 2009 
L 1997 1497 
L 313 1497 
L 313 2009 
z
" transform="scale(0.015625)"/>
      <path id="DejaVuSans-7d" d="M 800 -594 
L 1019 -594 
Q 1456 -594 1589 -459 
Q 1722 -325 1722 122 
L 1722 897 
Q 1722 1384 1862 1606 
Q 2003 1828 2350 1913 
Q 2003 1991 1862 2212 
Q 1722 2434 1722 2925 
L 1722 3700 
Q 1722 4144 1589 4280 
Q 1456 4416 1019 4416 
L 800 4416 
L 800 4863 
L 997 4863 
Q 1775 4863 2036 4633 
Q 2297 4403 2297 3713 
L 2297 2963 
Q 2297 2497 2465 2317 
Q 2634 2138 3078 2138 
L 3272 2138 
L 3272 1691 
L 3078 1691 
Q 2634 1691 2465 1509 
Q 2297 1328 2297 856 
L 2297 109 
Q 2297 -581 2036 -812 
Q 1775 -1044 997 -1044 
L 800 -1044 
L 800 -594 
z
" transform="scale(0.015625)"/>
      <path id="DejaVuSans-2c" d="M 750 794 
L 1409 794 
L 1409 256 
L 897 -744 
L 494 -744 
L 750 256 
L 750 794 
z
" transform="scale(0.015625)"/>
     </defs>
     <use xlink:href="#DejaVuSans-7b"/>
     <use xlink:href="#DejaVuSans-66" x="63.623047"/>
     <use xlink:href="#DejaVuSans-31" x="98.828125"/>
     <use xlink:href="#DejaVuSans-30" x="162.451172"/>
     <use xlink:href="#DejaVuSans-2d" x="226.074219"/>
     <use xlink:href="#DejaVuSans-66" x="262.158203"/>
     <use xlink:href="#DejaVuSans-31" x="297.363281"/>
     <use xlink:href="#DejaVuSans-34" x="360.986328"/>
     <use xlink:href="#DejaVuSans-7d" x="424.609375"/>
     <use xlink:href="#DejaVuSans-2c" x="488.232422"/>
     <use xlink:href="#DejaVuSans-20" x="520.019531"/>
     <use xlink:href="#DejaVuSans-35" x="551.806641"/>
     <use xlink:href="#DejaVuSans-2d" x="615.429688"/>
     <use xlink:href="#DejaVuSans-44" x="651.513672"/>
    </g>
   </g>
   <g id="text_13">
    <!-- absolute targets -->
    <g transform="translate(62.208 609.932673)scale(0.14 -0.14)">
     <defs>
      <path id="DejaVuSans-62" d="M 3116 1747 
Q 3116 2381 2855 2742 
Q 2594 3103 2138 3103 
Q 1681 3103 1420 2742 
Q 1159 2381 1159 1747 
Q 1159 1113 1420 752 
Q 1681 391 2138 391 
Q 2594 391 2855 752 
Q 3116 1113 3116 1747 
z
M 1159 2969 
Q 1341 3281 1617 3432 
Q 1894 3584 2278 3584 
Q 2916 3584 3314 3078 
Q 3713 2572 3713 1747 
Q 3713 922 3314 415 
Q 2916 -91 2278 -91 
Q 1894 -91 1617 61 
Q 1341 213 1159 525 
L 1159 0 
L 581 0 
L 581 4863 
L 1159 4863 
L 1159 2969 
z
" transform="scale(0.015625)"/>
      <path id="DejaVuSans-75" d="M 544 1381 
L 544 3500 
L 1119 3500 
L 1119 1403 
Q 1119 906 1312 657 
Q 1506 409 1894 409 
Q 2359 409 2629 706 
Q 2900 1003 2900 1516 
L 2900 3500 
L 3475 3500 
L 3475 0 
L 2900 0 
L 2900 538 
Q 2691 219 2414 64 
Q 2138 -91 1772 -91 
Q 1169 -91 856 284 
Q 544 659 544 1381 
z
M 1991 3584 
L 1991 3584 
z
" transform="scale(0.015625)"/>
      <path id="DejaVuSans-65" d="M 3597 1894 
L 3597 1613 
L 953 1613 
Q 991 1019 1311 708 
Q 1631 397 2203 397 
Q 2534 397 2845 478 
Q 3156 559 3463 722 
L 3463 178 
Q 3153 47 2828 -22 
Q 2503 -91 2169 -91 
Q 1331 -91 842 396 
Q 353 884 353 1716 
Q 353 2575 817 3079 
Q 1281 3584 2069 3584 
Q 2775 3584 3186 3129 
Q 3597 2675 3597 1894 
z
M 3022 2063 
Q 3016 2534 2758 2815 
Q 2500 3097 2075 3097 
Q 1594 3097 1305 2825 
Q 1016 2553 972 2059 
L 3022 2063 
z
" transform="scale(0.015625)"/>
     </defs>
     <use xlink:href="#DejaVuSans-61"/>
     <use xlink:href="#DejaVuSans-62" x="61.279297"/>
     <use xlink:href="#DejaVuSans-73" x="124.755859"/>
     <use xlink:href="#DejaVuSans-6f" x="176.855469"/>
     <use xlink:href="#DejaVuSans-6c" x="238.037109"/>
     <use xlink:href="#DejaVuSans-75" x="265.820312"/>
     <use xlink:href="#DejaVuSans-74" x="329.199219"/>
     <use xlink:href="#DejaVuSans-65" x="368.408203"/>
     <use xlink:href="#DejaVuSans-20" x="429.931641"/>
     <use xlink:href="#DejaVuSans-74" x="461.71875"/>
     <use xlink:href="#DejaVuSans-61" x="500.927734"/>
     <use xlink:href="#DejaVuSans-72" x="562.207031"/>
     <use xlink:href="#DejaVuSans-67" x="601.570312"/>
     <use xlink:href="#DejaVuSans-65" x="665.046875"/>
     <use xlink:href="#DejaVuSans-74" x="726.570312"/>
     <use xlink:href="#DejaVuSans-73" x="765.779297"/>
    </g>
   </g>
   <g id="text_14">
    <!-- v2.6 -->
    <g style="fill: #808080" transform="translate(250.593063 288.777272)scale(0.1 -0.1)">
     <use xlink:href="#DejaVuSans-76"/>
     <use xlink:href="#DejaVuSans-32" x="59.179688"/>
     <use xlink:href="#DejaVuSans-2e" x="122.802734"/>
     <use xlink:href="#DejaVuSans-36" x="154.589844"/>
    </g>
   </g>
   <g id="legend_1">
    <g id="patch_7">
     <path d="M 76.208 136.881 
L 205.429875 136.881 
Q 209.429875 136.881 209.429875 132.881 
L 209.429875 17.456 
Q 209.429875 13.456 205.429875 13.456 
L 76.208 13.456 
Q 72.208 13.456 72.208 17.456 
L 72.208 132.881 
Q 72.208 136.881 76.208 136.881 
z
" style="fill: #ffffff; opacity: 0.2; stroke: #cccccc; stroke-linejoin: miter"/>
    </g>
    <g id="line2d_58">
     <path d="M 80.208 29.652875 
L 80.208 29.652875 
L 100.208 29.652875 
L 100.208 29.652875 
L 120.208 29.652875 
" style="fill: none; stroke: #000000; stroke-width: 1.5; stroke-linecap: square"/>
    </g>
    <g id="text_15">
     <!-- 1: 5/5 -->
     <g transform="translate(136.208 36.652875)scale(0.2 -0.2)">
      <defs>
       <path id="DejaVuSans-3a" d="M 750 794 
L 1409 794 
L 1409 0 
L 750 0 
L 750 794 
z
M 750 3309 
L 1409 3309 
L 1409 2516 
L 750 2516 
L 750 3309 
z
" transform="scale(0.015625)"/>
      </defs>
      <use xlink:href="#DejaVuSans-31"/>
      <use xlink:href="#DejaVuSans-3a" x="63.623047"/>
      <use xlink:href="#DejaVuSans-20" x="97.314453"/>
      <use xlink:href="#DejaVuSans-35" x="129.101562"/>
      <use xlink:href="#DejaVuSans-2f" x="192.724609"/>
      <use xlink:href="#DejaVuSans-35" x="226.416016"/>
     </g>
    </g>
    <g id="line2d_59">
     <path d="M 80.208 59.009125 
L 80.208 59.009125 
L 100.208 59.009125 
L 100.208 59.009125 
L 120.208 59.009125 
" style="fill: none; stroke: #00bfbf; stroke-width: 1.5; stroke-linecap: square"/>
    </g>
    <g id="text_16">
     <!-- -1: 5/5 -->
     <g transform="translate(136.208 66.009125)scale(0.2 -0.2)">
      <use xlink:href="#DejaVuSans-2d"/>
      <use xlink:href="#DejaVuSans-31" x="36.083984"/>
      <use xlink:href="#DejaVuSans-3a" x="99.707031"/>
      <use xlink:href="#DejaVuSans-20" x="133.398438"/>
      <use xlink:href="#DejaVuSans-35" x="165.185547"/>
      <use xlink:href="#DejaVuSans-2f" x="228.808594"/>
      <use xlink:href="#DejaVuSans-35" x="262.5"/>
     </g>
    </g>
    <g id="line2d_60">
     <path d="M 80.208 88.365375 
L 80.208 88.365375 
L 100.208 88.365375 
L 100.208 88.365375 
L 120.208 88.365375 
" style="fill: none; stroke: #bf00bf; stroke-width: 1.5; stroke-linecap: square"/>
    </g>
    <g id="text_17">
     <!-- -4: 3/5 -->
     <g transform="translate(136.208 95.365375)scale(0.2 -0.2)">
      <use xlink:href="#DejaVuSans-2d"/>
      <use xlink:href="#DejaVuSans-34" x="36.083984"/>
      <use xlink:href="#DejaVuSans-3a" x="99.707031"/>
      <use xlink:href="#DejaVuSans-20" x="133.398438"/>
      <use xlink:href="#DejaVuSans-33" x="165.185547"/>
      <use xlink:href="#DejaVuSans-2f" x="228.808594"/>
      <use xlink:href="#DejaVuSans-35" x="262.5"/>
     </g>
    </g>
    <g id="line2d_61">
     <path d="M 80.208 117.721625 
L 80.208 117.721625 
L 100.208 117.721625 
L 100.208 117.721625 
L 120.208 117.721625 
" style="fill: none; stroke: #ff0000; stroke-width: 3; stroke-linecap: square"/>
    </g>
    <g id="text_18">
     <!-- -8: 1/5 -->
     <g transform="translate(136.208 124.721625)scale(0.2 -0.2)">
      <use xlink:href="#DejaVuSans-2d"/>
      <use xlink:href="#DejaVuSans-38" x="36.083984"/>
      <use xlink:href="#DejaVuSans-3a" x="99.707031"/>
      <use xlink:href="#DejaVuSans-20" x="133.398438"/>
      <use xlink:href="#DejaVuSans-31" x="165.185547"/>
      <use xlink:href="#DejaVuSans-2f" x="228.808594"/>
      <use xlink:href="#DejaVuSans-35" x="262.5"/>
     </g>
    </g>
   </g>
  </g>
 </g>
 <defs>
  <clipPath id="p7bd429d284">
   <rect x="62.208" y="3.456" width="398.592" height="290.304"/>
  </clipPath>
 </defs>
</svg>
