<?xml version="1.0" encoding="utf-8" standalone="no"?>
<!DOCTYPE svg PUBLIC "-//W3C//DTD SVG 1.1//EN"
  "http://www.w3.org/Graphics/SVG/1.1/DTD/svg11.dtd">
<svg xmlns:xlink="http://www.w3.org/1999/xlink" width="460.8pt" height="345.6pt" viewBox="0 0 460.8 345.6" xmlns="http://www.w3.org/2000/svg" version="1.1">
 <metadata>
  <rdf:RDF xmlns:dc="http://purl.org/dc/elements/1.1/" xmlns:cc="http://creativecommons.org/ns#" xmlns:rdf="http://www.w3.org/1999/02/22-rdf-syntax-ns#">
   <cc:Work>
    <dc:type rdf:resource="http://purl.org/dc/dcmitype/StillImage"/>
    <dc:date>2024-05-29T07:56:29.777383</dc:date>
    <dc:format>image/svg+xml</dc:format>
    <dc:creator>
     <cc:Agent>
      <dc:title>Matplotlib v3.5.1, https://matplotlib.org/</dc:title>
     </cc:Agent>
    </dc:creator>
   </cc:Work>
  </rdf:RDF>
 </metadata>
 <defs>
  <style type="text/css">*{stroke-linejoin: round; stroke-linecap: butt}</style>
 </defs>
 <g id="figure_1">
  <g id="patch_1">
   <path d="M 0 345.6 
L 460.8 345.6 
L 460.8 0 
L 0 0 
z
" style="fill: #ffffff"/>
  </g>
  <g id="axes_1">
   <g id="patch_2">
    <path d="M 62.208 293.76 
L 460.8 293.76 
L 460.8 3.456 
L 62.208 3.456 
z
" style="fill: #ffffff"/>
   </g>
   <g id="line2d_1">
    <path d="M 244.129803 293.76 
L 244.129803 288.969505 
L 246.866885 288.969505 
L 246.866885 284.17901 
L 247.903872 284.17901 
L 247.903872 279.388515 
L 247.903872 279.388515 
L 247.903872 274.59802 
L 248.410946 274.59802 
L 248.410946 269.807525 
L 248.578333 269.807525 
L 248.578333 265.01703 
L 248.744916 265.01703 
L 248.744916 260.226535 
L 249.566012 260.226535 
L 249.566012 255.43604 
L 250.049482 255.43604 
L 250.049482 250.645545 
L 250.20915 250.645545 
L 250.20915 245.85505 
L 250.20915 245.85505 
L 250.20915 241.064554 
L 250.368084 241.064554 
L 250.368084 236.274059 
L 250.368084 236.274059 
L 250.368084 231.483564 
L 250.840558 231.483564 
L 250.840558 226.693069 
L 250.840558 226.693069 
L 250.840558 221.902574 
L 251.918549 221.902574 
L 251.918549 217.112079 
L 252.220481 217.112079 
L 252.220481 212.321584 
L 252.370465 212.321584 
L 252.370465 207.531089 
L 252.519802 207.531089 
L 252.519802 202.740594 
L 252.668498 202.740594 
L 252.668498 197.950099 
L 253.110791 197.950099 
L 253.110791 193.159604 
L 253.110791 193.159604 
L 253.110791 188.369109 
L 253.256975 188.369109 
L 253.256975 183.578614 
L 255.787937 183.578614 
L 255.787937 178.788119 
L 257.117982 178.788119 
L 257.117982 173.997624 
L 257.377968 173.997624 
L 257.377968 169.207129 
L 273.210221 169.207129 
L 273.210221 164.416634 
L 276.063879 164.416634 
L 276.063879 159.626139 
L 279.146948 159.626139 
L 279.146948 154.835644 
L 285.974332 154.835644 
L 285.974332 150.045149 
L 285.974332 150.045149 
L 285.974332 150.045149 
L 460.8 150.045149 
" clip-path="url(#pc09521a264)" style="fill: none; stroke: #f5deb3; stroke-width: 1.5; stroke-linecap: square"/>
   </g>
   <g id="line2d_2"/>
   <g id="line2d_3">
    <path d="M 244.685908 293.76 
L 244.685908 288.969505 
L 250.503736 288.969505 
L 250.503736 284.17901 
L 253.32637 284.17901 
L 253.32637 279.388515 
L 257.837427 279.388515 
L 257.837427 274.59802 
L 258.380848 274.59802 
L 258.380848 269.807525 
L 258.66128 269.807525 
L 258.66128 265.01703 
L 258.685043 265.01703 
L 258.685043 260.226535 
L 258.779928 260.226535 
L 258.779928 255.43604 
L 259.564546 255.43604 
L 259.564546 250.645545 
L 260.127319 250.645545 
L 260.127319 245.85505 
L 260.286445 245.85505 
L 260.286445 241.064554 
L 260.574416 241.064554 
L 260.574416 236.274059 
L 260.753889 236.274059 
L 260.753889 231.483564 
L 260.798612 231.483564 
L 260.798612 226.693069 
L 260.826534 226.693069 
L 260.826534 221.902574 
L 260.854435 221.902574 
L 260.854435 217.112079 
L 260.943564 217.112079 
L 260.943564 212.321584 
L 262.456648 212.321584 
L 262.456648 207.531089 
L 262.990391 207.531089 
L 262.990391 202.740594 
L 263.500532 202.740594 
L 263.500532 197.950099 
L 263.931891 197.950099 
L 263.931891 193.159604 
L 264.79375 193.159604 
L 264.79375 188.369109 
L 265.184787 188.369109 
L 265.184787 183.578614 
L 271.460876 183.578614 
L 271.460876 178.788119 
L 272.103611 178.788119 
L 272.103611 173.997624 
L 272.49237 173.997624 
L 272.49237 169.207129 
L 273.092914 169.207129 
L 273.092914 164.416634 
L 273.151617 164.416634 
L 273.151617 159.626139 
L 273.175071 159.626139 
L 273.175071 154.835644 
L 274.361938 154.835644 
L 274.361938 150.045149 
L 274.478794 150.045149 
L 274.478794 145.254653 
L 275.374045 145.254653 
L 275.374045 140.464158 
L 275.912569 140.464158 
L 275.912569 135.673663 
L 276.009916 135.673663 
L 276.009916 130.883168 
L 276.655527 130.883168 
L 276.655527 126.092673 
L 277.129342 126.092673 
L 277.129342 121.302178 
L 278.190047 121.302178 
L 278.190047 116.511683 
L 280.272837 116.511683 
L 280.272837 111.721188 
L 281.956556 111.721188 
L 281.956556 106.930693 
L 288.112756 106.930693 
L 288.112756 102.140198 
L 290.58588 102.140198 
L 290.58588 97.349703 
L 290.753264 97.349703 
L 290.753264 92.559208 
L 291.68831 92.559208 
L 291.68831 87.768713 
L 291.966467 87.768713 
L 291.966467 82.978218 
L 292.377313 82.978218 
L 292.377313 78.187723 
L 292.377313 78.187723 
L 292.377313 78.187723 
L 460.8 78.187723 
" clip-path="url(#pc09521a264)" style="fill: none; stroke: #f5deb3; stroke-width: 1.5; stroke-linecap: square"/>
   </g>
   <g id="line2d_4">
    <path d="M 288.853548 293.76 
L 288.853548 288.969505 
L 292.927204 288.969505 
L 292.927204 284.17901 
L 295.38452 284.17901 
L 295.38452 279.388515 
L 295.813892 279.388515 
L 295.813892 274.59802 
L 298.643481 274.59802 
L 298.643481 269.807525 
L 298.66033 269.807525 
L 298.66033 265.01703 
L 300.108209 265.01703 
L 300.108209 260.226535 
L 300.730815 260.226535 
L 300.730815 255.43604 
L 300.744916 255.43604 
L 300.744916 250.645545 
L 301.118256 250.645545 
L 301.118256 245.85505 
L 301.606424 245.85505 
L 301.606424 241.064554 
L 301.945112 241.064554 
L 301.945112 236.274059 
L 302.958277 236.274059 
L 302.958277 231.483564 
L 303.316794 231.483564 
L 303.316794 226.693069 
L 303.473504 226.693069 
L 303.473504 221.902574 
L 305.450228 221.902574 
L 305.450228 217.112079 
L 306.570265 217.112079 
L 306.570265 212.321584 
L 307.042135 212.321584 
L 307.042135 207.531089 
L 307.353665 207.531089 
L 307.353665 202.740594 
L 310.023222 202.740594 
L 310.023222 197.950099 
L 317.340871 197.950099 
L 317.340871 193.159604 
L 319.851123 193.159604 
L 319.851123 188.369109 
L 322.907853 188.369109 
L 322.907853 183.578614 
L 324.948993 183.578614 
L 324.948993 178.788119 
L 326.196292 178.788119 
L 326.196292 173.997624 
L 328.883335 173.997624 
L 328.883335 169.207129 
L 331.698267 169.207129 
L 331.698267 164.416634 
L 335.614641 164.416634 
L 335.614641 159.626139 
L 336.161277 159.626139 
L 336.161277 154.835644 
L 337.697939 154.835644 
L 337.697939 150.045149 
L 337.697939 150.045149 
L 337.697939 150.045149 
L 460.8 150.045149 
" clip-path="url(#pc09521a264)" style="fill: none; stroke: #f5deb3; stroke-width: 1.5; stroke-linecap: square"/>
   </g>
   <g id="line2d_5"/>
   <g id="line2d_6"/>
   <g id="line2d_7">
    <path d="M 275.578797 293.76 
L 275.578797 288.969505 
L 275.963079 288.969505 
L 275.963079 284.17901 
L 277.576119 284.17901 
L 277.576119 279.388515 
L 278.071522 279.388515 
L 278.071522 274.59802 
L 278.348574 274.59802 
L 278.348574 269.807525 
L 278.586684 269.807525 
L 278.586684 265.01703 
L 279.192956 265.01703 
L 279.192956 260.226535 
L 279.484017 260.226535 
L 279.484017 255.43604 
L 279.740339 255.43604 
L 279.740339 250.645545 
L 280.64329 250.645545 
L 280.64329 245.85505 
L 280.693644 245.85505 
L 280.693644 241.064554 
L 281.44029 241.064554 
L 281.44029 236.274059 
L 282.679703 236.274059 
L 282.679703 231.483564 
L 282.81603 231.483564 
L 282.81603 226.693069 
L 284.439651 226.693069 
L 284.439651 221.902574 
L 302.341156 221.902574 
L 302.341156 217.112079 
L 303.97957 217.112079 
L 303.97957 212.321584 
L 304.422927 212.321584 
L 304.422927 207.531089 
L 305.303779 207.531089 
L 305.303779 202.740594 
L 305.407129 202.740594 
L 305.407129 197.950099 
L 305.969343 197.950099 
L 305.969343 193.159604 
L 306.147702 193.159604 
L 306.147702 188.369109 
L 307.600308 188.369109 
L 307.600308 183.578614 
L 307.932661 183.578614 
L 307.932661 178.788119 
L 308.722566 178.788119 
L 308.722566 173.997624 
L 308.796664 173.997624 
L 308.796664 169.207129 
L 308.883144 169.207129 
L 308.883144 164.416634 
L 308.931868 164.416634 
L 308.931868 159.626139 
L 310.238228 159.626139 
L 310.238228 154.835644 
L 310.897701 154.835644 
L 310.897701 150.045149 
L 311.103441 150.045149 
L 311.103441 145.254653 
L 312.177583 145.254653 
L 312.177583 140.464158 
L 312.324204 140.464158 
L 312.324204 135.673663 
L 312.782787 135.673663 
L 312.782787 130.883168 
L 312.900831 130.883168 
L 312.900831 126.092673 
L 313.296747 126.092673 
L 313.296747 121.302178 
L 313.830974 121.302178 
L 313.830974 116.511683 
L 314.55987 116.511683 
L 314.55987 111.721188 
L 314.740309 111.721188 
L 314.740309 106.930693 
L 315.641272 106.930693 
L 315.641272 102.140198 
L 315.942517 102.140198 
L 315.942517 97.349703 
L 316.165614 97.349703 
L 316.165614 92.559208 
L 316.696587 92.559208 
L 316.696587 87.768713 
L 340.759188 87.768713 
L 340.759188 82.978218 
L 363.338422 82.978218 
L 363.338422 78.187723 
L 430.198275 78.187723 
L 430.198275 73.397228 
L 445.868863 73.397228 
L 445.868863 68.606733 
L 450.257261 68.606733 
L 450.257261 63.816238 
L 456.451037 63.816238 
L 456.451037 59.025743 
L 461.8 59.025743 
" clip-path="url(#pc09521a264)" style="fill: none; stroke: #f5deb3; stroke-width: 1.5; stroke-linecap: square"/>
   </g>
   <g id="line2d_8">
    <path d="M 387.914523 293.76 
L 387.914523 288.969505 
L 387.975857 288.969505 
L 387.975857 284.17901 
L 388.023344 284.17901 
L 388.023344 279.388515 
L 388.428508 279.388515 
L 388.428508 274.59802 
L 388.441526 274.59802 
L 388.441526 269.807525 
L 388.469086 269.807525 
L 388.469086 265.01703 
L 388.527212 265.01703 
L 388.527212 260.226535 
L 388.529027 260.226535 
L 388.529027 255.43604 
L 388.545357 255.43604 
L 388.545357 250.645545 
L 388.628699 250.645545 
L 388.628699 245.85505 
L 388.674188 245.85505 
L 388.674188 241.064554 
L 389.084765 241.064554 
L 389.084765 236.274059 
L 389.086139 236.274059 
L 389.086139 231.483564 
L 389.250869 231.483564 
L 389.250869 226.693069 
L 390.256208 226.693069 
L 390.256208 221.902574 
L 390.256208 221.902574 
L 390.256208 221.902574 
L 460.8 221.902574 
" clip-path="url(#pc09521a264)" style="fill: none; stroke: #f5deb3; stroke-width: 1.5; stroke-linecap: square"/>
   </g>
   <g id="line2d_9">
    <path d="M 274.718804 293.76 
L 274.718804 288.969505 
L 276.754334 288.969505 
L 276.754334 284.17901 
L 276.877448 284.17901 
L 276.877448 279.388515 
L 278.503029 279.388515 
L 278.503029 274.59802 
L 278.743409 274.59802 
L 278.743409 269.807525 
L 278.813207 269.807525 
L 278.813207 265.01703 
L 279.058045 265.01703 
L 279.058045 260.226535 
L 279.405769 260.226535 
L 279.405769 255.43604 
L 280.026853 255.43604 
L 280.026853 250.645545 
L 280.154855 250.645545 
L 280.154855 245.85505 
L 280.450642 245.85505 
L 280.450642 241.064554 
L 281.862431 241.064554 
L 281.862431 236.274059 
L 282.213336 236.274059 
L 282.213336 231.483564 
L 283.087086 231.483564 
L 283.087086 226.693069 
L 285.046738 226.693069 
L 285.046738 221.902574 
L 285.844492 221.902574 
L 285.844492 217.112079 
L 299.195204 217.112079 
L 299.195204 212.321584 
L 299.390005 212.321584 
L 299.390005 207.531089 
L 299.852382 207.531089 
L 299.852382 202.740594 
L 299.855998 202.740594 
L 299.855998 197.950099 
L 300.388878 197.950099 
L 300.388878 193.159604 
L 300.468907 193.159604 
L 300.468907 188.369109 
L 301.416821 188.369109 
L 301.416821 183.578614 
L 301.762495 183.578614 
L 301.762495 178.788119 
L 301.832584 178.788119 
L 301.832584 173.997624 
L 301.900827 173.997624 
L 301.900827 169.207129 
L 301.940005 169.207129 
L 301.940005 164.416634 
L 302.069151 164.416634 
L 302.069151 159.626139 
L 302.288948 159.626139 
L 302.288948 154.835644 
L 302.774293 154.835644 
L 302.774293 150.045149 
L 302.883807 150.045149 
L 302.883807 145.254653 
L 303.383809 145.254653 
L 303.383809 140.464158 
L 303.791266 140.464158 
L 303.791266 135.673663 
L 304.205148 135.673663 
L 304.205148 130.883168 
L 304.233839 130.883168 
L 304.233839 126.092673 
L 304.582607 126.092673 
L 304.582607 121.302178 
L 305.051051 121.302178 
L 305.051051 116.511683 
L 306.072239 116.511683 
L 306.072239 111.721188 
L 306.531521 111.721188 
L 306.531521 106.930693 
L 307.363856 106.930693 
L 307.363856 102.140198 
L 307.838028 102.140198 
L 307.838028 97.349703 
L 309.503062 97.349703 
L 309.503062 92.559208 
L 310.200699 92.559208 
L 310.200699 87.768713 
L 310.23287 87.768713 
L 310.23287 82.978218 
L 316.272687 82.978218 
L 316.272687 78.187723 
L 318.019423 78.187723 
L 318.019423 73.397228 
L 319.249195 73.397228 
L 319.249195 68.606733 
L 319.449976 68.606733 
L 319.449976 63.816238 
L 319.712829 63.816238 
L 319.712829 59.025743 
L 319.918038 59.025743 
L 319.918038 54.235248 
L 321.214263 54.235248 
L 321.214263 49.444752 
L 321.732344 49.444752 
L 321.732344 44.654257 
L 322.678541 44.654257 
L 322.678541 39.863762 
L 323.406872 39.863762 
L 323.406872 35.073267 
L 324.52156 35.073267 
L 324.52156 30.282772 
L 325.532643 30.282772 
L 325.532643 25.492277 
L 325.762692 25.492277 
L 325.762692 20.701782 
L 326.424505 20.701782 
L 326.424505 15.911287 
L 326.521732 15.911287 
L 326.521732 11.120792 
L 332.634716 11.120792 
L 332.634716 6.330297 
L 332.634716 6.330297 
L 332.634716 6.330297 
L 460.8 6.330297 
" clip-path="url(#pc09521a264)" style="fill: none; stroke: #f5deb3; stroke-width: 1.5; stroke-linecap: square"/>
   </g>
   <g id="line2d_10">
    <path d="M 449.438073 293.76 
L 449.438073 288.969505 
L 449.806576 288.969505 
L 449.806576 284.17901 
L 450.289521 284.17901 
L 450.289521 279.388515 
L 452.092933 279.388515 
L 452.092933 274.59802 
L 452.207163 274.59802 
L 452.207163 269.807525 
L 452.979583 269.807525 
L 452.979583 265.01703 
L 453.095796 265.01703 
L 453.095796 260.226535 
L 454.219359 260.226535 
L 454.219359 255.43604 
L 459.201623 255.43604 
L 459.201623 250.645545 
L 459.307675 250.645545 
L 459.307675 245.85505 
L 459.307675 245.85505 
L 459.307675 245.85505 
L 460.8 245.85505 
" clip-path="url(#pc09521a264)" style="fill: none; stroke: #f5deb3; stroke-width: 1.5; stroke-linecap: square"/>
   </g>
   <g id="line2d_11">
    <path d="M 284.184707 293.76 
L 284.184707 288.969505 
L 286.946043 288.969505 
L 286.946043 284.17901 
L 290.8519 284.17901 
L 290.8519 279.388515 
L 296.696624 279.388515 
L 296.696624 274.59802 
L 297.538079 274.59802 
L 297.538079 269.807525 
L 297.976086 269.807525 
L 297.976086 265.01703 
L 300.931212 265.01703 
L 300.931212 260.226535 
L 300.976755 260.226535 
L 300.976755 255.43604 
L 301.465182 255.43604 
L 301.465182 250.645545 
L 311.102135 250.645545 
L 311.102135 245.85505 
L 311.592544 245.85505 
L 311.592544 241.064554 
L 314.156691 241.064554 
L 314.156691 236.274059 
L 315.739693 236.274059 
L 315.739693 231.483564 
L 327.546785 231.483564 
L 327.546785 226.693069 
L 402.195181 226.693069 
L 402.195181 221.902574 
L 422.889139 221.902574 
L 422.889139 217.112079 
L 423.869821 217.112079 
L 423.869821 212.321584 
L 425.88923 212.321584 
L 425.88923 207.531089 
L 426.022451 207.531089 
L 426.022451 202.740594 
L 426.058262 202.740594 
L 426.058262 197.950099 
L 426.253387 197.950099 
L 426.253387 193.159604 
L 426.376937 193.159604 
L 426.376937 188.369109 
L 426.407522 188.369109 
L 426.407522 183.578614 
L 426.436492 183.578614 
L 426.436492 178.788119 
L 426.525073 178.788119 
L 426.525073 173.997624 
L 426.543843 173.997624 
L 426.543843 169.207129 
L 426.551478 169.207129 
L 426.551478 164.416634 
L 426.561578 164.416634 
L 426.561578 159.626139 
L 426.587676 159.626139 
L 426.587676 154.835644 
L 426.59042 154.835644 
L 426.59042 150.045149 
L 426.612174 150.045149 
L 426.612174 145.254653 
L 426.630943 145.254653 
L 426.630943 140.464158 
L 426.649841 140.464158 
L 426.649841 135.673663 
L 426.652394 135.673663 
L 426.652394 130.883168 
L 426.675362 130.883168 
L 426.675362 126.092673 
L 426.740101 126.092673 
L 426.740101 121.302178 
L 426.879871 121.302178 
L 426.879871 116.511683 
L 426.977628 116.511683 
L 426.977628 111.721188 
L 427.179131 111.721188 
L 427.179131 106.930693 
L 451.794696 106.930693 
L 451.794696 102.140198 
L 454.680392 102.140198 
L 454.680392 97.349703 
L 455.191938 97.349703 
L 455.191938 92.559208 
L 455.308292 92.559208 
L 455.308292 87.768713 
L 458.707224 87.768713 
L 458.707224 82.978218 
L 461.8 82.978218 
" clip-path="url(#pc09521a264)" style="fill: none; stroke: #f5deb3; stroke-width: 1.5; stroke-linecap: square"/>
   </g>
   <g id="line2d_12">
    <path d="M 246.816721 293.76 
L 246.816721 288.969505 
L 251.107676 288.969505 
L 251.107676 284.17901 
L 251.262548 284.17901 
L 251.262548 279.388515 
L 252.626078 279.388515 
L 252.626078 274.59802 
L 252.921928 274.59802 
L 252.921928 269.807525 
L 253.50615 269.807525 
L 253.50615 265.01703 
L 253.937936 265.01703 
L 253.937936 260.226535 
L 253.937936 260.226535 
L 253.937936 255.43604 
L 254.22283 255.43604 
L 254.22283 250.645545 
L 254.22283 250.645545 
L 254.22283 245.85505 
L 254.364403 245.85505 
L 254.364403 241.064554 
L 254.505399 241.064554 
L 254.505399 236.274059 
L 254.645824 236.274059 
L 254.645824 231.483564 
L 254.785681 231.483564 
L 254.785681 226.693069 
L 254.785681 226.693069 
L 254.785681 221.902574 
L 255.201894 221.902574 
L 255.201894 217.112079 
L 255.201894 217.112079 
L 255.201894 212.321584 
L 255.201894 212.321584 
L 255.201894 207.531089 
L 255.613163 207.531089 
L 255.613163 202.740594 
L 255.613163 202.740594 
L 255.613163 197.950099 
L 255.613163 197.950099 
L 255.613163 193.159604 
L 256.019604 193.159604 
L 256.019604 188.369109 
L 256.154031 188.369109 
L 256.154031 183.578614 
L 258.488516 183.578614 
L 258.488516 178.788119 
L 262.509863 178.788119 
L 262.509863 173.997624 
L 277.282379 173.997624 
L 277.282379 169.207129 
L 279.743572 169.207129 
L 279.743572 164.416634 
L 280.081312 164.416634 
L 280.081312 159.626139 
L 280.482298 159.626139 
L 280.482298 154.835644 
L 289.034442 154.835644 
L 289.034442 150.045149 
L 289.034442 150.045149 
L 289.034442 150.045149 
L 460.8 150.045149 
" clip-path="url(#pc09521a264)" style="fill: none; stroke: #f5deb3; stroke-width: 1.5; stroke-linecap: square"/>
   </g>
   <g id="line2d_13"/>
   <g id="line2d_14"/>
   <g id="line2d_15"/>
   <g id="line2d_16">
    <path d="M 373.140769 293.76 
L 373.140769 288.969505 
L 373.907561 288.969505 
L 373.907561 284.17901 
L 379.119582 284.17901 
L 379.119582 279.388515 
L 396.772422 279.388515 
L 396.772422 274.59802 
L 396.851987 274.59802 
L 396.851987 269.807525 
L 397.170825 269.807525 
L 397.170825 265.01703 
L 409.610354 265.01703 
L 409.610354 260.226535 
L 412.64915 260.226535 
L 412.64915 255.43604 
L 413.958612 255.43604 
L 413.958612 250.645545 
L 417.895681 250.645545 
L 417.895681 245.85505 
L 419.999518 245.85505 
L 419.999518 241.064554 
L 421.762727 241.064554 
L 421.762727 236.274059 
L 430.243118 236.274059 
L 430.243118 231.483564 
L 437.383057 231.483564 
L 437.383057 226.693069 
L 437.657192 226.693069 
L 437.657192 221.902574 
L 461.8 221.902574 
" clip-path="url(#pc09521a264)" style="fill: none; stroke: #f5deb3; stroke-width: 1.5; stroke-linecap: square"/>
   </g>
   <g id="line2d_17">
    <path d="M 375.11156 293.76 
L 375.11156 288.969505 
L 377.373438 288.969505 
L 377.373438 284.17901 
L 379.116101 284.17901 
L 379.116101 279.388515 
L 379.312685 279.388515 
L 379.312685 274.59802 
L 382.821024 274.59802 
L 382.821024 269.807525 
L 383.614406 269.807525 
L 383.614406 265.01703 
L 383.666175 265.01703 
L 383.666175 260.226535 
L 387.999254 260.226535 
L 387.999254 255.43604 
L 388.622156 255.43604 
L 388.622156 250.645545 
L 388.691561 250.645545 
L 388.691561 245.85505 
L 390.299211 245.85505 
L 390.299211 241.064554 
L 392.145247 241.064554 
L 392.145247 236.274059 
L 392.446875 236.274059 
L 392.446875 231.483564 
L 398.962328 231.483564 
L 398.962328 226.693069 
L 403.829893 226.693069 
L 403.829893 221.902574 
L 424.981574 221.902574 
L 424.981574 217.112079 
L 430.568711 217.112079 
L 430.568711 212.321584 
L 432.242674 212.321584 
L 432.242674 207.531089 
L 433.252151 207.531089 
L 433.252151 202.740594 
L 434.157659 202.740594 
L 434.157659 197.950099 
L 434.466446 197.950099 
L 434.466446 193.159604 
L 435.359693 193.159604 
L 435.359693 188.369109 
L 435.67144 188.369109 
L 435.67144 183.578614 
L 436.544662 183.578614 
L 436.544662 178.788119 
L 436.735417 178.788119 
L 436.735417 173.997624 
L 436.735417 173.997624 
L 436.735417 173.997624 
L 460.8 173.997624 
" clip-path="url(#pc09521a264)" style="fill: none; stroke: #f5deb3; stroke-width: 1.5; stroke-linecap: square"/>
   </g>
   <g id="line2d_18">
    <path d="M 225.630151 293.76 
L 225.630151 288.969505 
L 233.491166 288.969505 
L 233.491166 284.17901 
L 233.626142 284.17901 
L 233.626142 279.388515 
L 234.148783 279.388515 
L 234.148783 274.59802 
L 234.341257 274.59802 
L 234.341257 269.807525 
L 236.64981 269.807525 
L 236.64981 265.01703 
L 236.728278 265.01703 
L 236.728278 260.226535 
L 236.806568 260.226535 
L 236.806568 255.43604 
L 236.851227 255.43604 
L 236.851227 250.645545 
L 237.217475 250.645545 
L 237.217475 245.85505 
L 237.492379 245.85505 
L 237.492379 241.064554 
L 237.601733 241.064554 
L 237.601733 236.274059 
L 237.634472 236.274059 
L 237.634472 231.483564 
L 237.797703 231.483564 
L 237.797703 226.693069 
L 238.068056 226.693069 
L 238.068056 221.902574 
L 238.19708 221.902574 
L 238.19708 217.112079 
L 239.149727 217.112079 
L 239.149727 212.321584 
L 239.440839 212.321584 
L 239.440839 207.531089 
L 239.461539 207.531089 
L 239.461539 202.740594 
L 239.513236 202.740594 
L 239.513236 197.950099 
L 240.259346 197.950099 
L 240.259346 193.159604 
L 242.148247 193.159604 
L 242.148247 188.369109 
L 242.386785 188.369109 
L 242.386785 183.578614 
L 246.665793 183.578614 
L 246.665793 178.788119 
L 258.874554 178.788119 
L 258.874554 173.997624 
L 262.732474 173.997624 
L 262.732474 169.207129 
L 264.226628 169.207129 
L 264.226628 164.416634 
L 265.086207 164.416634 
L 265.086207 159.626139 
L 266.517281 159.626139 
L 266.517281 154.835644 
L 266.833158 154.835644 
L 266.833158 150.045149 
L 267.442564 150.045149 
L 267.442564 145.254653 
L 267.809512 145.254653 
L 267.809512 140.464158 
L 268.656834 140.464158 
L 268.656834 135.673663 
L 270.202391 135.673663 
L 270.202391 130.883168 
L 274.016615 130.883168 
L 274.016615 126.092673 
L 275.571505 126.092673 
L 275.571505 121.302178 
L 277.87421 121.302178 
L 277.87421 116.511683 
L 278.25422 116.511683 
L 278.25422 111.721188 
L 281.128037 111.721188 
L 281.128037 106.930693 
L 281.412579 106.930693 
L 281.412579 102.140198 
L 282.95477 102.140198 
L 282.95477 97.349703 
L 288.46127 97.349703 
L 288.46127 92.559208 
L 298.510276 92.559208 
L 298.510276 87.768713 
L 300.244358 87.768713 
L 300.244358 82.978218 
L 306.180854 82.978218 
L 306.180854 78.187723 
L 306.180854 78.187723 
L 306.180854 78.187723 
L 460.8 78.187723 
" clip-path="url(#pc09521a264)" style="fill: none; stroke: #f5deb3; stroke-width: 1.5; stroke-linecap: square"/>
   </g>
   <g id="line2d_19"/>
   <g id="line2d_20">
    <path d="M 295.781365 293.76 
L 295.781365 288.969505 
L 299.174926 288.969505 
L 299.174926 284.17901 
L 302.873865 284.17901 
L 302.873865 279.388515 
L 306.44045 279.388515 
L 306.44045 274.59802 
L 308.129698 274.59802 
L 308.129698 269.807525 
L 309.420862 269.807525 
L 309.420862 265.01703 
L 311.066838 265.01703 
L 311.066838 260.226535 
L 311.801891 260.226535 
L 311.801891 255.43604 
L 312.96899 255.43604 
L 312.96899 250.645545 
L 313.290615 250.645545 
L 313.290615 245.85505 
L 313.478993 245.85505 
L 313.478993 241.064554 
L 316.222009 241.064554 
L 316.222009 236.274059 
L 316.268185 236.274059 
L 316.268185 231.483564 
L 317.645054 231.483564 
L 317.645054 226.693069 
L 318.125189 226.693069 
L 318.125189 221.902574 
L 318.99527 221.902574 
L 318.99527 217.112079 
L 320.722964 217.112079 
L 320.722964 212.321584 
L 320.848416 212.321584 
L 320.848416 207.531089 
L 322.738346 207.531089 
L 322.738346 202.740594 
L 325.34871 202.740594 
L 325.34871 197.950099 
L 329.991211 197.950099 
L 329.991211 193.159604 
L 332.03466 193.159604 
L 332.03466 188.369109 
L 341.796471 188.369109 
L 341.796471 183.578614 
L 350.226435 183.578614 
L 350.226435 178.788119 
L 353.148089 178.788119 
L 353.148089 173.997624 
L 353.194218 173.997624 
L 353.194218 169.207129 
L 354.594927 169.207129 
L 354.594927 164.416634 
L 357.714532 164.416634 
L 357.714532 159.626139 
L 383.693957 159.626139 
L 383.693957 154.835644 
L 384.381359 154.835644 
L 384.381359 150.045149 
L 384.381359 150.045149 
L 384.381359 150.045149 
L 460.8 150.045149 
" clip-path="url(#pc09521a264)" style="fill: none; stroke: #f5deb3; stroke-width: 1.5; stroke-linecap: square"/>
   </g>
   <g id="line2d_21"/>
   <g id="line2d_22">
    <path d="M 299.634706 293.76 
L 299.634706 288.969505 
L 299.843339 288.969505 
L 299.843339 284.17901 
L 300.978506 284.17901 
L 300.978506 279.388515 
L 301.747091 279.388515 
L 301.747091 274.59802 
L 302.086108 274.59802 
L 302.086108 269.807525 
L 302.160621 269.807525 
L 302.160621 265.01703 
L 302.545857 265.01703 
L 302.545857 260.226535 
L 302.880493 260.226535 
L 302.880493 255.43604 
L 303.356038 255.43604 
L 303.356038 250.645545 
L 303.700774 250.645545 
L 303.700774 245.85505 
L 304.46252 245.85505 
L 304.46252 241.064554 
L 305.238835 241.064554 
L 305.238835 236.274059 
L 305.320768 236.274059 
L 305.320768 231.483564 
L 306.389584 231.483564 
L 306.389584 226.693069 
L 306.643166 226.693069 
L 306.643166 221.902574 
L 307.130174 221.902574 
L 307.130174 217.112079 
L 307.155078 217.112079 
L 307.155078 212.321584 
L 307.372588 212.321584 
L 307.372588 207.531089 
L 308.086959 207.531089 
L 308.086959 202.740594 
L 308.828771 202.740594 
L 308.828771 197.950099 
L 309.168939 197.950099 
L 309.168939 193.159604 
L 309.535887 193.159604 
L 309.535887 188.369109 
L 310.124173 188.369109 
L 310.124173 183.578614 
L 311.520327 183.578614 
L 311.520327 178.788119 
L 312.486529 178.788119 
L 312.486529 173.997624 
L 313.278347 173.997624 
L 313.278347 169.207129 
L 313.282027 169.207129 
L 313.282027 164.416634 
L 316.010618 164.416634 
L 316.010618 159.626139 
L 316.85519 159.626139 
L 316.85519 154.835644 
L 317.889713 154.835644 
L 317.889713 150.045149 
L 330.499317 150.045149 
L 330.499317 145.254653 
L 333.051702 145.254653 
L 333.051702 140.464158 
L 333.797719 140.464158 
L 333.797719 135.673663 
L 334.280038 135.673663 
L 334.280038 130.883168 
L 335.691152 130.883168 
L 335.691152 126.092673 
L 336.380434 126.092673 
L 336.380434 121.302178 
L 336.903422 121.302178 
L 336.903422 116.511683 
L 348.238277 116.511683 
L 348.238277 111.721188 
L 350.251327 111.721188 
L 350.251327 106.930693 
L 354.861381 106.930693 
L 354.861381 102.140198 
L 358.643322 102.140198 
L 358.643322 97.349703 
L 365.824239 97.349703 
L 365.824239 92.559208 
L 371.149831 92.559208 
L 371.149831 87.768713 
L 377.830139 87.768713 
L 377.830139 82.978218 
L 377.830139 82.978218 
L 377.830139 82.978218 
L 460.8 82.978218 
" clip-path="url(#pc09521a264)" style="fill: none; stroke: #f5deb3; stroke-width: 1.5; stroke-linecap: square"/>
   </g>
   <g id="line2d_23">
    <path d="M 419.170449 293.76 
L 419.170449 288.969505 
L 427.539177 288.969505 
L 427.539177 284.17901 
L 439.1179 284.17901 
L 439.1179 279.388515 
L 442.958165 279.388515 
L 442.958165 274.59802 
L 449.862153 274.59802 
L 449.862153 269.807525 
L 455.253394 269.807525 
L 455.253394 265.01703 
L 455.253394 265.01703 
L 455.253394 265.01703 
L 460.8 265.01703 
" clip-path="url(#pc09521a264)" style="fill: none; stroke: #f5deb3; stroke-width: 1.5; stroke-linecap: square"/>
   </g>
   <g id="line2d_24">
    <path d="M 283.758461 293.76 
L 283.758461 288.969505 
L 291.504691 288.969505 
L 291.504691 284.17901 
L 292.86973 284.17901 
L 292.86973 279.388515 
L 294.513682 279.388515 
L 294.513682 274.59802 
L 294.545314 274.59802 
L 294.545314 269.807525 
L 295.196792 269.807525 
L 295.196792 265.01703 
L 295.852479 265.01703 
L 295.852479 260.226535 
L 298.88234 260.226535 
L 298.88234 255.43604 
L 299.621965 255.43604 
L 299.621965 250.645545 
L 299.884915 250.645545 
L 299.884915 245.85505 
L 300.781903 245.85505 
L 300.781903 241.064554 
L 301.15833 241.064554 
L 301.15833 236.274059 
L 301.172257 236.274059 
L 301.172257 231.483564 
L 302.774293 231.483564 
L 302.774293 226.693069 
L 302.92189 226.693069 
L 302.92189 221.902574 
L 352.346407 221.902574 
L 352.346407 217.112079 
L 352.542358 217.112079 
L 352.542358 212.321584 
L 352.916127 212.321584 
L 352.916127 207.531089 
L 354.138438 207.531089 
L 354.138438 202.740594 
L 354.160672 202.740594 
L 354.160672 197.950099 
L 354.479781 197.950099 
L 354.479781 193.159604 
L 354.910077 193.159604 
L 354.910077 188.369109 
L 355.080708 188.369109 
L 355.080708 183.578614 
L 355.197532 183.578614 
L 355.197532 178.788119 
L 355.253423 178.788119 
L 355.253423 173.997624 
L 355.787311 173.997624 
L 355.787311 169.207129 
L 356.049416 169.207129 
L 356.049416 164.416634 
L 356.054053 164.416634 
L 356.054053 159.626139 
L 356.136701 159.626139 
L 356.136701 154.835644 
L 356.232283 154.835644 
L 356.232283 150.045149 
L 356.23796 150.045149 
L 356.23796 145.254653 
L 356.405011 145.254653 
L 356.405011 140.464158 
L 356.456521 140.464158 
L 356.456521 135.673663 
L 356.655488 135.673663 
L 356.655488 130.883168 
L 356.787384 130.883168 
L 356.787384 126.092673 
L 356.817751 126.092673 
L 356.817751 121.302178 
L 356.90521 121.302178 
L 356.90521 116.511683 
L 357.28557 116.511683 
L 357.28557 111.721188 
L 357.475051 111.721188 
L 357.475051 106.930693 
L 358.181538 106.930693 
L 358.181538 102.140198 
L 358.654573 102.140198 
L 358.654573 97.349703 
L 358.995 97.349703 
L 358.995 92.559208 
L 359.452597 92.559208 
L 359.452597 87.768713 
L 361.070555 87.768713 
L 361.070555 82.978218 
L 362.243941 82.978218 
L 362.243941 78.187723 
L 366.870955 78.187723 
L 366.870955 73.397228 
L 368.948773 73.397228 
L 368.948773 68.606733 
L 369.573474 68.606733 
L 369.573474 63.816238 
L 369.782827 63.816238 
L 369.782827 59.025743 
L 370.17477 59.025743 
L 370.17477 54.235248 
L 370.317512 54.235248 
L 370.317512 49.444752 
L 371.246557 49.444752 
L 371.246557 44.654257 
L 372.208852 44.654257 
L 372.208852 39.863762 
L 372.261822 39.863762 
L 372.261822 35.073267 
L 372.651788 35.073267 
L 372.651788 30.282772 
L 372.904815 30.282772 
L 372.904815 25.492277 
L 373.456129 25.492277 
L 373.456129 20.701782 
L 373.944809 20.701782 
L 373.944809 15.911287 
L 374.365584 15.911287 
L 374.365584 11.120792 
L 375.132739 11.120792 
L 375.132739 6.330297 
L 375.132739 6.330297 
L 375.132739 6.330297 
L 460.8 6.330297 
" clip-path="url(#pc09521a264)" style="fill: none; stroke: #f5deb3; stroke-width: 1.5; stroke-linecap: square"/>
   </g>
   <g id="line2d_25">
    <path d="M 393.27112 293.76 
L 393.27112 288.969505 
L 393.757897 288.969505 
L 393.757897 284.17901 
L 393.91347 284.17901 
L 393.91347 279.388515 
L 393.914904 279.388515 
L 393.914904 274.59802 
L 394.661843 274.59802 
L 394.661843 269.807525 
L 394.917809 269.807525 
L 394.917809 265.01703 
L 395.055783 265.01703 
L 395.055783 260.226535 
L 395.310701 260.226535 
L 395.310701 255.43604 
L 395.732532 255.43604 
L 395.732532 250.645545 
L 395.925192 250.645545 
L 395.925192 245.85505 
L 396.089752 245.85505 
L 396.089752 241.064554 
L 396.420434 241.064554 
L 396.420434 236.274059 
L 396.664651 236.274059 
L 396.664651 231.483564 
L 397.136765 231.483564 
L 397.136765 226.693069 
L 398.211669 226.693069 
L 398.211669 221.902574 
L 398.211669 221.902574 
L 398.211669 221.902574 
L 460.8 221.902574 
" clip-path="url(#pc09521a264)" style="fill: none; stroke: #f5deb3; stroke-width: 1.5; stroke-linecap: square"/>
   </g>
   <g id="line2d_26">
    <path d="M 312.574296 293.76 
L 312.574296 288.969505 
L 315.972044 288.969505 
L 315.972044 284.17901 
L 317.128537 284.17901 
L 317.128537 279.388515 
L 318.075017 279.388515 
L 318.075017 274.59802 
L 318.4173 274.59802 
L 318.4173 269.807525 
L 319.177869 269.807525 
L 319.177869 265.01703 
L 319.350246 265.01703 
L 319.350246 260.226535 
L 320.473678 260.226535 
L 320.473678 255.43604 
L 322.094724 255.43604 
L 322.094724 250.645545 
L 322.412847 250.645545 
L 322.412847 245.85505 
L 323.887964 245.85505 
L 323.887964 241.064554 
L 324.97526 241.064554 
L 324.97526 236.274059 
L 326.446321 236.274059 
L 326.446321 231.483564 
L 326.628701 231.483564 
L 326.628701 226.693069 
L 328.116559 226.693069 
L 328.116559 221.902574 
L 328.130944 221.902574 
L 328.130944 217.112079 
L 329.086008 217.112079 
L 329.086008 212.321584 
L 329.750349 212.321584 
L 329.750349 207.531089 
L 330.579808 207.531089 
L 330.579808 202.740594 
L 333.513005 202.740594 
L 333.513005 197.950099 
L 334.172838 197.950099 
L 334.172838 193.159604 
L 334.663229 193.159604 
L 334.663229 188.369109 
L 334.704224 188.369109 
L 334.704224 183.578614 
L 335.384736 183.578614 
L 335.384736 178.788119 
L 335.452704 178.788119 
L 335.452704 173.997624 
L 336.084529 173.997624 
L 336.084529 169.207129 
L 336.121973 169.207129 
L 336.121973 164.416634 
L 336.571925 164.416634 
L 336.571925 159.626139 
L 336.766722 159.626139 
L 336.766722 154.835644 
L 337.280884 154.835644 
L 337.280884 150.045149 
L 338.333298 150.045149 
L 338.333298 145.254653 
L 338.361254 145.254653 
L 338.361254 140.464158 
L 338.417098 140.464158 
L 338.417098 135.673663 
L 338.447359 135.673663 
L 338.447359 130.883168 
L 338.564002 130.883168 
L 338.564002 126.092673 
L 339.141393 126.092673 
L 339.141393 121.302178 
L 339.49995 121.302178 
L 339.49995 116.511683 
L 340.221893 116.511683 
L 340.221893 111.721188 
L 343.343242 111.721188 
L 343.343242 106.930693 
L 374.338672 106.930693 
L 374.338672 102.140198 
L 383.790779 102.140198 
L 383.790779 97.349703 
L 384.392687 97.349703 
L 384.392687 92.559208 
L 384.854003 92.559208 
L 384.854003 87.768713 
L 387.961385 87.768713 
L 387.961385 82.978218 
L 391.962166 82.978218 
L 391.962166 78.187723 
L 414.30334 78.187723 
L 414.30334 73.397228 
L 420.188059 73.397228 
L 420.188059 68.606733 
L 435.27104 68.606733 
L 435.27104 63.816238 
L 449.777242 63.816238 
L 449.777242 59.025743 
L 449.777242 59.025743 
L 449.777242 59.025743 
L 460.8 59.025743 
" clip-path="url(#pc09521a264)" style="fill: none; stroke: #f5deb3; stroke-width: 1.5; stroke-linecap: square"/>
   </g>
   <g id="line2d_27">
    <path d="M 278.882864 293.76 
L 278.882864 288.969505 
L 280.853659 288.969505 
L 280.853659 284.17901 
L 282.810114 284.17901 
L 282.810114 279.388515 
L 282.963606 279.388515 
L 282.963606 274.59802 
L 284.388812 274.59802 
L 284.388812 269.807525 
L 284.7655 269.807525 
L 284.7655 265.01703 
L 286.299492 265.01703 
L 286.299492 260.226535 
L 286.674585 260.226535 
L 286.674585 255.43604 
L 286.730104 255.43604 
L 286.730104 250.645545 
L 286.772344 250.645545 
L 286.772344 245.85505 
L 287.301243 245.85505 
L 287.301243 241.064554 
L 288.731594 241.064554 
L 288.731594 236.274059 
L 288.98745 236.274059 
L 288.98745 231.483564 
L 289.430089 231.483564 
L 289.430089 226.693069 
L 289.434976 226.693069 
L 289.434976 221.902574 
L 289.67115 221.902574 
L 289.67115 217.112079 
L 289.765654 217.112079 
L 289.765654 212.321584 
L 290.141113 212.321584 
L 290.141113 207.531089 
L 290.248665 207.531089 
L 290.248665 202.740594 
L 290.448541 202.740594 
L 290.448541 197.950099 
L 290.481742 197.950099 
L 290.481742 193.159604 
L 290.550414 193.159604 
L 290.550414 188.369109 
L 290.905797 188.369109 
L 290.905797 183.578614 
L 291.004 183.578614 
L 291.004 178.788119 
L 291.377886 178.788119 
L 291.377886 173.997624 
L 292.46472 173.997624 
L 292.46472 169.207129 
L 292.834314 169.207129 
L 292.834314 164.416634 
L 292.920577 164.416634 
L 292.920577 159.626139 
L 293.099055 159.626139 
L 293.099055 154.835644 
L 293.464148 154.835644 
L 293.464148 150.045149 
L 294.866321 150.045149 
L 294.866321 145.254653 
L 295.573282 145.254653 
L 295.573282 140.464158 
L 295.679519 140.464158 
L 295.679519 135.673663 
L 296.366231 135.673663 
L 296.366231 130.883168 
L 296.595453 130.883168 
L 296.595453 126.092673 
L 299.16386 126.092673 
L 299.16386 121.302178 
L 299.224678 121.302178 
L 299.224678 116.511683 
L 299.665626 116.511683 
L 299.665626 111.721188 
L 317.267686 111.721188 
L 317.267686 106.930693 
L 318.087834 106.930693 
L 318.087834 102.140198 
L 327.514267 102.140198 
L 327.514267 97.349703 
L 328.262525 97.349703 
L 328.262525 92.559208 
L 332.31617 92.559208 
L 332.31617 87.768713 
L 334.308122 87.768713 
L 334.308122 82.978218 
L 339.230801 82.978218 
L 339.230801 78.187723 
L 339.230801 78.187723 
L 339.230801 78.187723 
L 460.8 78.187723 
" clip-path="url(#pc09521a264)" style="fill: none; stroke: #f5deb3; stroke-width: 1.5; stroke-linecap: square"/>
   </g>
   <g id="line2d_28">
    <path d="M 263.293218 293.76 
L 263.293218 288.969505 
L 265.130603 288.969505 
L 265.130603 284.17901 
L 265.982727 284.17901 
L 265.982727 279.388515 
L 266.417679 279.388515 
L 266.417679 274.59802 
L 268.276303 274.59802 
L 268.276303 269.807525 
L 268.455897 269.807525 
L 268.455897 265.01703 
L 268.790146 265.01703 
L 268.790146 260.226535 
L 269.108018 260.226535 
L 269.108018 255.43604 
L 313.575233 255.43604 
L 313.575233 250.645545 
L 313.627504 250.645545 
L 313.627504 245.85505 
L 313.79231 245.85505 
L 313.79231 241.064554 
L 313.898533 241.064554 
L 313.898533 236.274059 
L 314.228393 236.274059 
L 314.228393 231.483564 
L 323.350047 231.483564 
L 323.350047 226.693069 
L 324.822635 226.693069 
L 324.822635 221.902574 
L 325.066164 221.902574 
L 325.066164 217.112079 
L 325.139413 217.112079 
L 325.139413 212.321584 
L 325.249864 212.321584 
L 325.249864 207.531089 
L 325.622956 207.531089 
L 325.622956 202.740594 
L 326.159097 202.740594 
L 326.159097 197.950099 
L 326.602825 197.950099 
L 326.602825 193.159604 
L 326.79186 193.159604 
L 326.79186 188.369109 
L 327.275955 188.369109 
L 327.275955 183.578614 
L 327.672505 183.578614 
L 327.672505 178.788119 
L 327.744487 178.788119 
L 327.744487 173.997624 
L 327.775175 173.997624 
L 327.775175 169.207129 
L 328.300709 169.207129 
L 328.300709 164.416634 
L 328.55499 164.416634 
L 328.55499 159.626139 
L 328.589699 159.626139 
L 328.589699 154.835644 
L 328.738399 154.835644 
L 328.738399 150.045149 
L 329.424006 150.045149 
L 329.424006 145.254653 
L 329.67249 145.254653 
L 329.67249 140.464158 
L 329.775502 140.464158 
L 329.775502 135.673663 
L 329.83488 135.673663 
L 329.83488 130.883168 
L 329.85845 130.883168 
L 329.85845 126.092673 
L 330.578319 126.092673 
L 330.578319 121.302178 
L 330.894747 121.302178 
L 330.894747 116.511683 
L 330.945609 116.511683 
L 330.945609 111.721188 
L 330.998603 111.721188 
L 330.998603 106.930693 
L 331.084546 106.930693 
L 331.084546 102.140198 
L 331.179788 102.140198 
L 331.179788 97.349703 
L 331.574076 97.349703 
L 331.574076 92.559208 
L 332.940625 92.559208 
L 332.940625 87.768713 
L 334.195646 87.768713 
L 334.195646 82.978218 
L 334.330841 82.978218 
L 334.330841 78.187723 
L 336.006338 78.187723 
L 336.006338 73.397228 
L 336.076908 73.397228 
L 336.076908 68.606733 
L 336.307325 68.606733 
L 336.307325 63.816238 
L 336.844459 63.816238 
L 336.844459 59.025743 
L 337.794171 59.025743 
L 337.794171 54.235248 
L 338.307105 54.235248 
L 338.307105 49.444752 
L 339.194833 49.444752 
L 339.194833 44.654257 
L 339.494772 44.654257 
L 339.494772 39.863762 
L 340.347879 39.863762 
L 340.347879 35.073267 
L 341.39465 35.073267 
L 341.39465 30.282772 
L 343.870058 30.282772 
L 343.870058 25.492277 
L 345.075519 25.492277 
L 345.075519 20.701782 
L 345.436054 20.701782 
L 345.436054 15.911287 
L 362.454477 15.911287 
L 362.454477 11.120792 
L 363.722093 11.120792 
L 363.722093 6.330297 
L 363.722093 6.330297 
L 363.722093 6.330297 
L 460.8 6.330297 
" clip-path="url(#pc09521a264)" style="fill: none; stroke: #f5deb3; stroke-width: 1.5; stroke-linecap: square"/>
   </g>
   <g id="line2d_29">
    <path d="M 231.151689 293.76 
L 231.151689 288.969505 
L 231.151689 288.969505 
L 231.151689 284.17901 
L 231.151689 284.17901 
L 231.151689 279.388515 
L 241.167464 279.388515 
L 241.167464 274.59802 
L 241.167464 274.59802 
L 241.167464 269.807525 
L 241.167464 269.807525 
L 241.167464 265.01703 
L 257.41495 265.01703 
L 257.41495 260.226535 
L 257.41495 260.226535 
L 257.41495 255.43604 
L 257.41495 255.43604 
L 257.41495 250.645545 
L 258.001351 250.645545 
L 258.001351 245.85505 
L 258.001351 245.85505 
L 258.001351 241.064554 
L 258.001351 241.064554 
L 258.001351 236.274059 
L 268.491704 236.274059 
L 268.491704 231.483564 
L 268.491704 231.483564 
L 268.491704 226.693069 
L 268.491704 226.693069 
L 268.491704 221.902574 
L 269.864369 221.902574 
L 269.864369 217.112079 
L 269.864369 217.112079 
L 269.864369 212.321584 
L 269.864369 212.321584 
L 269.864369 207.531089 
L 270.155522 207.531089 
L 270.155522 202.740594 
L 270.155522 202.740594 
L 270.155522 197.950099 
L 270.155522 197.950099 
L 270.155522 193.159604 
L 271.126688 193.159604 
L 271.126688 188.369109 
L 271.126688 188.369109 
L 271.126688 183.578614 
L 271.126688 183.578614 
L 271.126688 178.788119 
L 271.176401 178.788119 
L 271.176401 173.997624 
L 271.176401 173.997624 
L 271.176401 169.207129 
L 271.176401 169.207129 
L 271.176401 164.416634 
L 289.051738 164.416634 
L 289.051738 159.626139 
L 289.051738 159.626139 
L 289.051738 154.835644 
L 289.051738 154.835644 
L 289.051738 150.045149 
L 289.051738 150.045149 
L 289.051738 150.045149 
L 460.8 150.045149 
" clip-path="url(#pc09521a264)" style="fill: none; stroke: #f5deb3; stroke-width: 1.5; stroke-linecap: square"/>
   </g>
   <g id="line2d_30"/>
   <g id="matplotlib.axis_1">
    <g id="xtick_1">
     <g id="line2d_31">
      <path d="M 141.9264 293.76 
L 141.9264 3.456 
" clip-path="url(#pc09521a264)" style="fill: none; stroke: #b0b0b0; stroke-width: 0.8; stroke-linecap: square"/>
     </g>
     <g id="line2d_32">
      <defs>
       <path id="m90a22a5b81" d="M 0 0 
L 0 3.5 
" style="stroke: #000000; stroke-width: 0.8"/>
      </defs>
      <g>
       <use xlink:href="#m90a22a5b81" x="141.9264" y="293.76" style="stroke: #000000; stroke-width: 0.8"/>
      </g>
     </g>
     <g id="text_1">
      <!-- 1 -->
      <g transform="translate(135.5639 315.956875)scale(0.2 -0.2)">
       <defs>
        <path id="DejaVuSans-31" d="M 794 531 
L 1825 531 
L 1825 4091 
L 703 3866 
L 703 4441 
L 1819 4666 
L 2450 4666 
L 2450 531 
L 3481 531 
L 3481 0 
L 794 0 
L 794 531 
z
" transform="scale(0.015625)"/>
       </defs>
       <use xlink:href="#DejaVuSans-31"/>
      </g>
     </g>
    </g>
    <g id="xtick_2">
     <g id="line2d_33">
      <path d="M 301.3632 293.76 
L 301.3632 3.456 
" clip-path="url(#pc09521a264)" style="fill: none; stroke: #b0b0b0; stroke-width: 0.8; stroke-linecap: square"/>
     </g>
     <g id="line2d_34">
      <g>
       <use xlink:href="#m90a22a5b81" x="301.3632" y="293.76" style="stroke: #000000; stroke-width: 0.8"/>
      </g>
     </g>
     <g id="text_2">
      <!-- 3 -->
      <g transform="translate(295.0007 315.956875)scale(0.2 -0.2)">
       <defs>
        <path id="DejaVuSans-33" d="M 2597 2516 
Q 3050 2419 3304 2112 
Q 3559 1806 3559 1356 
Q 3559 666 3084 287 
Q 2609 -91 1734 -91 
Q 1441 -91 1130 -33 
Q 819 25 488 141 
L 488 750 
Q 750 597 1062 519 
Q 1375 441 1716 441 
Q 2309 441 2620 675 
Q 2931 909 2931 1356 
Q 2931 1769 2642 2001 
Q 2353 2234 1838 2234 
L 1294 2234 
L 1294 2753 
L 1863 2753 
Q 2328 2753 2575 2939 
Q 2822 3125 2822 3475 
Q 2822 3834 2567 4026 
Q 2313 4219 1838 4219 
Q 1578 4219 1281 4162 
Q 984 4106 628 3988 
L 628 4550 
Q 988 4650 1302 4700 
Q 1616 4750 1894 4750 
Q 2613 4750 3031 4423 
Q 3450 4097 3450 3541 
Q 3450 3153 3228 2886 
Q 3006 2619 2597 2516 
z
" transform="scale(0.015625)"/>
       </defs>
       <use xlink:href="#DejaVuSans-33"/>
      </g>
     </g>
    </g>
    <g id="xtick_3">
     <g id="line2d_35">
      <path d="M 460.8 293.76 
L 460.8 3.456 
" clip-path="url(#pc09521a264)" style="fill: none; stroke: #b0b0b0; stroke-width: 0.8; stroke-linecap: square"/>
     </g>
     <g id="line2d_36">
      <g>
       <use xlink:href="#m90a22a5b81" x="460.8" y="293.76" style="stroke: #000000; stroke-width: 0.8"/>
      </g>
     </g>
     <g id="text_3">
      <!-- 5 -->
      <g transform="translate(454.4375 315.956875)scale(0.2 -0.2)">
       <defs>
        <path id="DejaVuSans-35" d="M 691 4666 
L 3169 4666 
L 3169 4134 
L 1269 4134 
L 1269 2991 
Q 1406 3038 1543 3061 
Q 1681 3084 1819 3084 
Q 2600 3084 3056 2656 
Q 3513 2228 3513 1497 
Q 3513 744 3044 326 
Q 2575 -91 1722 -91 
Q 1428 -91 1123 -41 
Q 819 9 494 109 
L 494 744 
Q 775 591 1075 516 
Q 1375 441 1709 441 
Q 2250 441 2565 725 
Q 2881 1009 2881 1497 
Q 2881 1984 2565 2268 
Q 2250 2553 1709 2553 
Q 1456 2553 1204 2497 
Q 953 2441 691 2322 
L 691 4666 
z
" transform="scale(0.015625)"/>
       </defs>
       <use xlink:href="#DejaVuSans-35"/>
      </g>
     </g>
    </g>
    <g id="text_4">
     <!-- log10 of FEvals / DIM -->
     <g transform="translate(156.430563 339.313125)scale(0.2 -0.2)">
      <defs>
       <path id="DejaVuSans-6c" d="M 603 4863 
L 1178 4863 
L 1178 0 
L 603 0 
L 603 4863 
z
" transform="scale(0.015625)"/>
       <path id="DejaVuSans-6f" d="M 1959 3097 
Q 1497 3097 1228 2736 
Q 959 2375 959 1747 
Q 959 1119 1226 758 
Q 1494 397 1959 397 
Q 2419 397 2687 759 
Q 2956 1122 2956 1747 
Q 2956 2369 2687 2733 
Q 2419 3097 1959 3097 
z
M 1959 3584 
Q 2709 3584 3137 3096 
Q 3566 2609 3566 1747 
Q 3566 888 3137 398 
Q 2709 -91 1959 -91 
Q 1206 -91 779 398 
Q 353 888 353 1747 
Q 353 2609 779 3096 
Q 1206 3584 1959 3584 
z
" transform="scale(0.015625)"/>
       <path id="DejaVuSans-67" d="M 2906 1791 
Q 2906 2416 2648 2759 
Q 2391 3103 1925 3103 
Q 1463 3103 1205 2759 
Q 947 2416 947 1791 
Q 947 1169 1205 825 
Q 1463 481 1925 481 
Q 2391 481 2648 825 
Q 2906 1169 2906 1791 
z
M 3481 434 
Q 3481 -459 3084 -895 
Q 2688 -1331 1869 -1331 
Q 1566 -1331 1297 -1286 
Q 1028 -1241 775 -1147 
L 775 -588 
Q 1028 -725 1275 -790 
Q 1522 -856 1778 -856 
Q 2344 -856 2625 -561 
Q 2906 -266 2906 331 
L 2906 616 
Q 2728 306 2450 153 
Q 2172 0 1784 0 
Q 1141 0 747 490 
Q 353 981 353 1791 
Q 353 2603 747 3093 
Q 1141 3584 1784 3584 
Q 2172 3584 2450 3431 
Q 2728 3278 2906 2969 
L 2906 3500 
L 3481 3500 
L 3481 434 
z
" transform="scale(0.015625)"/>
       <path id="DejaVuSans-30" d="M 2034 4250 
Q 1547 4250 1301 3770 
Q 1056 3291 1056 2328 
Q 1056 1369 1301 889 
Q 1547 409 2034 409 
Q 2525 409 2770 889 
Q 3016 1369 3016 2328 
Q 3016 3291 2770 3770 
Q 2525 4250 2034 4250 
z
M 2034 4750 
Q 2819 4750 3233 4129 
Q 3647 3509 3647 2328 
Q 3647 1150 3233 529 
Q 2819 -91 2034 -91 
Q 1250 -91 836 529 
Q 422 1150 422 2328 
Q 422 3509 836 4129 
Q 1250 4750 2034 4750 
z
" transform="scale(0.015625)"/>
       <path id="DejaVuSans-20" transform="scale(0.015625)"/>
       <path id="DejaVuSans-66" d="M 2375 4863 
L 2375 4384 
L 1825 4384 
Q 1516 4384 1395 4259 
Q 1275 4134 1275 3809 
L 1275 3500 
L 2222 3500 
L 2222 3053 
L 1275 3053 
L 1275 0 
L 697 0 
L 697 3053 
L 147 3053 
L 147 3500 
L 697 3500 
L 697 3744 
Q 697 4328 969 4595 
Q 1241 4863 1831 4863 
L 2375 4863 
z
" transform="scale(0.015625)"/>
       <path id="DejaVuSans-46" d="M 628 4666 
L 3309 4666 
L 3309 4134 
L 1259 4134 
L 1259 2759 
L 3109 2759 
L 3109 2228 
L 1259 2228 
L 1259 0 
L 628 0 
L 628 4666 
z
" transform="scale(0.015625)"/>
       <path id="DejaVuSans-45" d="M 628 4666 
L 3578 4666 
L 3578 4134 
L 1259 4134 
L 1259 2753 
L 3481 2753 
L 3481 2222 
L 1259 2222 
L 1259 531 
L 3634 531 
L 3634 0 
L 628 0 
L 628 4666 
z
" transform="scale(0.015625)"/>
       <path id="DejaVuSans-76" d="M 191 3500 
L 800 3500 
L 1894 563 
L 2988 3500 
L 3597 3500 
L 2284 0 
L 1503 0 
L 191 3500 
z
" transform="scale(0.015625)"/>
       <path id="DejaVuSans-61" d="M 2194 1759 
Q 1497 1759 1228 1600 
Q 959 1441 959 1056 
Q 959 750 1161 570 
Q 1363 391 1709 391 
Q 2188 391 2477 730 
Q 2766 1069 2766 1631 
L 2766 1759 
L 2194 1759 
z
M 3341 1997 
L 3341 0 
L 2766 0 
L 2766 531 
Q 2569 213 2275 61 
Q 1981 -91 1556 -91 
Q 1019 -91 701 211 
Q 384 513 384 1019 
Q 384 1609 779 1909 
Q 1175 2209 1959 2209 
L 2766 2209 
L 2766 2266 
Q 2766 2663 2505 2880 
Q 2244 3097 1772 3097 
Q 1472 3097 1187 3025 
Q 903 2953 641 2809 
L 641 3341 
Q 956 3463 1253 3523 
Q 1550 3584 1831 3584 
Q 2591 3584 2966 3190 
Q 3341 2797 3341 1997 
z
" transform="scale(0.015625)"/>
       <path id="DejaVuSans-73" d="M 2834 3397 
L 2834 2853 
Q 2591 2978 2328 3040 
Q 2066 3103 1784 3103 
Q 1356 3103 1142 2972 
Q 928 2841 928 2578 
Q 928 2378 1081 2264 
Q 1234 2150 1697 2047 
L 1894 2003 
Q 2506 1872 2764 1633 
Q 3022 1394 3022 966 
Q 3022 478 2636 193 
Q 2250 -91 1575 -91 
Q 1294 -91 989 -36 
Q 684 19 347 128 
L 347 722 
Q 666 556 975 473 
Q 1284 391 1588 391 
Q 1994 391 2212 530 
Q 2431 669 2431 922 
Q 2431 1156 2273 1281 
Q 2116 1406 1581 1522 
L 1381 1569 
Q 847 1681 609 1914 
Q 372 2147 372 2553 
Q 372 3047 722 3315 
Q 1072 3584 1716 3584 
Q 2034 3584 2315 3537 
Q 2597 3491 2834 3397 
z
" transform="scale(0.015625)"/>
       <path id="DejaVuSans-2f" d="M 1625 4666 
L 2156 4666 
L 531 -594 
L 0 -594 
L 1625 4666 
z
" transform="scale(0.015625)"/>
       <path id="DejaVuSans-44" d="M 1259 4147 
L 1259 519 
L 2022 519 
Q 2988 519 3436 956 
Q 3884 1394 3884 2338 
Q 3884 3275 3436 3711 
Q 2988 4147 2022 4147 
L 1259 4147 
z
M 628 4666 
L 1925 4666 
Q 3281 4666 3915 4102 
Q 4550 3538 4550 2338 
Q 4550 1131 3912 565 
Q 3275 0 1925 0 
L 628 0 
L 628 4666 
z
" transform="scale(0.015625)"/>
       <path id="DejaVuSans-49" d="M 628 4666 
L 1259 4666 
L 1259 0 
L 628 0 
L 628 4666 
z
" transform="scale(0.015625)"/>
       <path id="DejaVuSans-4d" d="M 628 4666 
L 1569 4666 
L 2759 1491 
L 3956 4666 
L 4897 4666 
L 4897 0 
L 4281 0 
L 4281 4097 
L 3078 897 
L 2444 897 
L 1241 4097 
L 1241 0 
L 628 0 
L 628 4666 
z
" transform="scale(0.015625)"/>
      </defs>
      <use xlink:href="#DejaVuSans-6c"/>
      <use xlink:href="#DejaVuSans-6f" x="27.783203"/>
      <use xlink:href="#DejaVuSans-67" x="88.964844"/>
      <use xlink:href="#DejaVuSans-31" x="152.441406"/>
      <use xlink:href="#DejaVuSans-30" x="216.064453"/>
      <use xlink:href="#DejaVuSans-20" x="279.6875"/>
      <use xlink:href="#DejaVuSans-6f" x="311.474609"/>
      <use xlink:href="#DejaVuSans-66" x="372.65625"/>
      <use xlink:href="#DejaVuSans-20" x="407.861328"/>
      <use xlink:href="#DejaVuSans-46" x="439.648438"/>
      <use xlink:href="#DejaVuSans-45" x="497.167969"/>
      <use xlink:href="#DejaVuSans-76" x="560.351562"/>
      <use xlink:href="#DejaVuSans-61" x="619.53125"/>
      <use xlink:href="#DejaVuSans-6c" x="680.810547"/>
      <use xlink:href="#DejaVuSans-73" x="708.59375"/>
      <use xlink:href="#DejaVuSans-20" x="760.693359"/>
      <use xlink:href="#DejaVuSans-2f" x="792.480469"/>
      <use xlink:href="#DejaVuSans-20" x="826.171875"/>
      <use xlink:href="#DejaVuSans-44" x="857.958984"/>
      <use xlink:href="#DejaVuSans-49" x="934.960938"/>
      <use xlink:href="#DejaVuSans-4d" x="964.453125"/>
     </g>
    </g>
   </g>
   <g id="matplotlib.axis_2">
    <g id="ytick_1">
     <g id="line2d_37">
      <path d="M 62.208 293.76 
L 460.8 293.76 
" clip-path="url(#pc09521a264)" style="fill: none; stroke: #b0b0b0; stroke-width: 0.8; stroke-linecap: square"/>
     </g>
     <g id="line2d_38">
      <defs>
       <path id="mad46899dd5" d="M 0 0 
L -3.5 0 
" style="stroke: #000000; stroke-width: 0.8"/>
      </defs>
      <g>
       <use xlink:href="#mad46899dd5" x="62.208" y="293.76" style="stroke: #000000; stroke-width: 0.8"/>
      </g>
     </g>
     <g id="text_5">
      <!-- 0.0 -->
      <g transform="translate(29.763 299.83875)scale(0.16 -0.16)">
       <defs>
        <path id="DejaVuSans-2e" d="M 684 794 
L 1344 794 
L 1344 0 
L 684 0 
L 684 794 
z
" transform="scale(0.015625)"/>
       </defs>
       <use xlink:href="#DejaVuSans-30"/>
       <use xlink:href="#DejaVuSans-2e" x="63.623047"/>
       <use xlink:href="#DejaVuSans-30" x="95.410156"/>
      </g>
     </g>
    </g>
    <g id="ytick_2">
     <g id="line2d_39">
      <path d="M 62.208 236.274059 
L 460.8 236.274059 
" clip-path="url(#pc09521a264)" style="fill: none; stroke: #b0b0b0; stroke-width: 0.8; stroke-linecap: square"/>
     </g>
     <g id="line2d_40">
      <g>
       <use xlink:href="#mad46899dd5" x="62.208" y="236.274059" style="stroke: #000000; stroke-width: 0.8"/>
      </g>
     </g>
     <g id="text_6">
      <!-- 0.2 -->
      <g transform="translate(29.763 242.352809)scale(0.16 -0.16)">
       <defs>
        <path id="DejaVuSans-32" d="M 1228 531 
L 3431 531 
L 3431 0 
L 469 0 
L 469 531 
Q 828 903 1448 1529 
Q 2069 2156 2228 2338 
Q 2531 2678 2651 2914 
Q 2772 3150 2772 3378 
Q 2772 3750 2511 3984 
Q 2250 4219 1831 4219 
Q 1534 4219 1204 4116 
Q 875 4013 500 3803 
L 500 4441 
Q 881 4594 1212 4672 
Q 1544 4750 1819 4750 
Q 2544 4750 2975 4387 
Q 3406 4025 3406 3419 
Q 3406 3131 3298 2873 
Q 3191 2616 2906 2266 
Q 2828 2175 2409 1742 
Q 1991 1309 1228 531 
z
" transform="scale(0.015625)"/>
       </defs>
       <use xlink:href="#DejaVuSans-30"/>
       <use xlink:href="#DejaVuSans-2e" x="63.623047"/>
       <use xlink:href="#DejaVuSans-32" x="95.410156"/>
      </g>
     </g>
    </g>
    <g id="ytick_3">
     <g id="line2d_41">
      <path d="M 62.208 178.788119 
L 460.8 178.788119 
" clip-path="url(#pc09521a264)" style="fill: none; stroke: #b0b0b0; stroke-width: 0.8; stroke-linecap: square"/>
     </g>
     <g id="line2d_42">
      <g>
       <use xlink:href="#mad46899dd5" x="62.208" y="178.788119" style="stroke: #000000; stroke-width: 0.8"/>
      </g>
     </g>
     <g id="text_7">
      <!-- 0.4 -->
      <g transform="translate(29.763 184.866869)scale(0.16 -0.16)">
       <defs>
        <path id="DejaVuSans-34" d="M 2419 4116 
L 825 1625 
L 2419 1625 
L 2419 4116 
z
M 2253 4666 
L 3047 4666 
L 3047 1625 
L 3713 1625 
L 3713 1100 
L 3047 1100 
L 3047 0 
L 2419 0 
L 2419 1100 
L 313 1100 
L 313 1709 
L 2253 4666 
z
" transform="scale(0.015625)"/>
       </defs>
       <use xlink:href="#DejaVuSans-30"/>
       <use xlink:href="#DejaVuSans-2e" x="63.623047"/>
       <use xlink:href="#DejaVuSans-34" x="95.410156"/>
      </g>
     </g>
    </g>
    <g id="ytick_4">
     <g id="line2d_43">
      <path d="M 62.208 121.302178 
L 460.8 121.302178 
" clip-path="url(#pc09521a264)" style="fill: none; stroke: #b0b0b0; stroke-width: 0.8; stroke-linecap: square"/>
     </g>
     <g id="line2d_44">
      <g>
       <use xlink:href="#mad46899dd5" x="62.208" y="121.302178" style="stroke: #000000; stroke-width: 0.8"/>
      </g>
     </g>
     <g id="text_8">
      <!-- 0.6 -->
      <g transform="translate(29.763 127.380928)scale(0.16 -0.16)">
       <defs>
        <path id="DejaVuSans-36" d="M 2113 2584 
Q 1688 2584 1439 2293 
Q 1191 2003 1191 1497 
Q 1191 994 1439 701 
Q 1688 409 2113 409 
Q 2538 409 2786 701 
Q 3034 994 3034 1497 
Q 3034 2003 2786 2293 
Q 2538 2584 2113 2584 
z
M 3366 4563 
L 3366 3988 
Q 3128 4100 2886 4159 
Q 2644 4219 2406 4219 
Q 1781 4219 1451 3797 
Q 1122 3375 1075 2522 
Q 1259 2794 1537 2939 
Q 1816 3084 2150 3084 
Q 2853 3084 3261 2657 
Q 3669 2231 3669 1497 
Q 3669 778 3244 343 
Q 2819 -91 2113 -91 
Q 1303 -91 875 529 
Q 447 1150 447 2328 
Q 447 3434 972 4092 
Q 1497 4750 2381 4750 
Q 2619 4750 2861 4703 
Q 3103 4656 3366 4563 
z
" transform="scale(0.015625)"/>
       </defs>
       <use xlink:href="#DejaVuSans-30"/>
       <use xlink:href="#DejaVuSans-2e" x="63.623047"/>
       <use xlink:href="#DejaVuSans-36" x="95.410156"/>
      </g>
     </g>
    </g>
    <g id="ytick_5">
     <g id="line2d_45">
      <path d="M 62.208 63.816238 
L 460.8 63.816238 
" clip-path="url(#pc09521a264)" style="fill: none; stroke: #b0b0b0; stroke-width: 0.8; stroke-linecap: square"/>
     </g>
     <g id="line2d_46">
      <g>
       <use xlink:href="#mad46899dd5" x="62.208" y="63.816238" style="stroke: #000000; stroke-width: 0.8"/>
      </g>
     </g>
     <g id="text_9">
      <!-- 0.8 -->
      <g transform="translate(29.763 69.894988)scale(0.16 -0.16)">
       <defs>
        <path id="DejaVuSans-38" d="M 2034 2216 
Q 1584 2216 1326 1975 
Q 1069 1734 1069 1313 
Q 1069 891 1326 650 
Q 1584 409 2034 409 
Q 2484 409 2743 651 
Q 3003 894 3003 1313 
Q 3003 1734 2745 1975 
Q 2488 2216 2034 2216 
z
M 1403 2484 
Q 997 2584 770 2862 
Q 544 3141 544 3541 
Q 544 4100 942 4425 
Q 1341 4750 2034 4750 
Q 2731 4750 3128 4425 
Q 3525 4100 3525 3541 
Q 3525 3141 3298 2862 
Q 3072 2584 2669 2484 
Q 3125 2378 3379 2068 
Q 3634 1759 3634 1313 
Q 3634 634 3220 271 
Q 2806 -91 2034 -91 
Q 1263 -91 848 271 
Q 434 634 434 1313 
Q 434 1759 690 2068 
Q 947 2378 1403 2484 
z
M 1172 3481 
Q 1172 3119 1398 2916 
Q 1625 2713 2034 2713 
Q 2441 2713 2670 2916 
Q 2900 3119 2900 3481 
Q 2900 3844 2670 4047 
Q 2441 4250 2034 4250 
Q 1625 4250 1398 4047 
Q 1172 3844 1172 3481 
z
" transform="scale(0.015625)"/>
       </defs>
       <use xlink:href="#DejaVuSans-30"/>
       <use xlink:href="#DejaVuSans-2e" x="63.623047"/>
       <use xlink:href="#DejaVuSans-38" x="95.410156"/>
      </g>
     </g>
    </g>
    <g id="ytick_6">
     <g id="line2d_47">
      <path d="M 62.208 6.330297 
L 460.8 6.330297 
" clip-path="url(#pc09521a264)" style="fill: none; stroke: #b0b0b0; stroke-width: 0.8; stroke-linecap: square"/>
     </g>
     <g id="line2d_48">
      <g>
       <use xlink:href="#mad46899dd5" x="62.208" y="6.330297" style="stroke: #000000; stroke-width: 0.8"/>
      </g>
     </g>
     <g id="text_10">
      <!-- 1.0 -->
      <g transform="translate(29.763 12.409047)scale(0.16 -0.16)">
       <use xlink:href="#DejaVuSans-31"/>
       <use xlink:href="#DejaVuSans-2e" x="63.623047"/>
       <use xlink:href="#DejaVuSans-30" x="95.410156"/>
      </g>
     </g>
    </g>
    <g id="text_11">
     <!-- proportion of trials -->
     <g transform="translate(21.603625 241.61425)rotate(-90)scale(0.2 -0.2)">
      <defs>
       <path id="DejaVuSans-70" d="M 1159 525 
L 1159 -1331 
L 581 -1331 
L 581 3500 
L 1159 3500 
L 1159 2969 
Q 1341 3281 1617 3432 
Q 1894 3584 2278 3584 
Q 2916 3584 3314 3078 
Q 3713 2572 3713 1747 
Q 3713 922 3314 415 
Q 2916 -91 2278 -91 
Q 1894 -91 1617 61 
Q 1341 213 1159 525 
z
M 3116 1747 
Q 3116 2381 2855 2742 
Q 2594 3103 2138 3103 
Q 1681 3103 1420 2742 
Q 1159 2381 1159 1747 
Q 1159 1113 1420 752 
Q 1681 391 2138 391 
Q 2594 391 2855 752 
Q 3116 1113 3116 1747 
z
" transform="scale(0.015625)"/>
       <path id="DejaVuSans-72" d="M 2631 2963 
Q 2534 3019 2420 3045 
Q 2306 3072 2169 3072 
Q 1681 3072 1420 2755 
Q 1159 2438 1159 1844 
L 1159 0 
L 581 0 
L 581 3500 
L 1159 3500 
L 1159 2956 
Q 1341 3275 1631 3429 
Q 1922 3584 2338 3584 
Q 2397 3584 2469 3576 
Q 2541 3569 2628 3553 
L 2631 2963 
z
" transform="scale(0.015625)"/>
       <path id="DejaVuSans-74" d="M 1172 4494 
L 1172 3500 
L 2356 3500 
L 2356 3053 
L 1172 3053 
L 1172 1153 
Q 1172 725 1289 603 
Q 1406 481 1766 481 
L 2356 481 
L 2356 0 
L 1766 0 
Q 1100 0 847 248 
Q 594 497 594 1153 
L 594 3053 
L 172 3053 
L 172 3500 
L 594 3500 
L 594 4494 
L 1172 4494 
z
" transform="scale(0.015625)"/>
       <path id="DejaVuSans-69" d="M 603 3500 
L 1178 3500 
L 1178 0 
L 603 0 
L 603 3500 
z
M 603 4863 
L 1178 4863 
L 1178 4134 
L 603 4134 
L 603 4863 
z
" transform="scale(0.015625)"/>
       <path id="DejaVuSans-6e" d="M 3513 2113 
L 3513 0 
L 2938 0 
L 2938 2094 
Q 2938 2591 2744 2837 
Q 2550 3084 2163 3084 
Q 1697 3084 1428 2787 
Q 1159 2491 1159 1978 
L 1159 0 
L 581 0 
L 581 3500 
L 1159 3500 
L 1159 2956 
Q 1366 3272 1645 3428 
Q 1925 3584 2291 3584 
Q 2894 3584 3203 3211 
Q 3513 2838 3513 2113 
z
" transform="scale(0.015625)"/>
      </defs>
      <use xlink:href="#DejaVuSans-70"/>
      <use xlink:href="#DejaVuSans-72" x="63.476562"/>
      <use xlink:href="#DejaVuSans-6f" x="102.339844"/>
      <use xlink:href="#DejaVuSans-70" x="163.521484"/>
      <use xlink:href="#DejaVuSans-6f" x="226.998047"/>
      <use xlink:href="#DejaVuSans-72" x="288.179688"/>
      <use xlink:href="#DejaVuSans-74" x="329.292969"/>
      <use xlink:href="#DejaVuSans-69" x="368.501953"/>
      <use xlink:href="#DejaVuSans-6f" x="396.285156"/>
      <use xlink:href="#DejaVuSans-6e" x="457.466797"/>
      <use xlink:href="#DejaVuSans-20" x="520.845703"/>
      <use xlink:href="#DejaVuSans-6f" x="552.632812"/>
      <use xlink:href="#DejaVuSans-66" x="613.814453"/>
      <use xlink:href="#DejaVuSans-20" x="649.019531"/>
      <use xlink:href="#DejaVuSans-74" x="680.806641"/>
      <use xlink:href="#DejaVuSans-72" x="720.015625"/>
      <use xlink:href="#DejaVuSans-69" x="761.128906"/>
      <use xlink:href="#DejaVuSans-61" x="788.912109"/>
      <use xlink:href="#DejaVuSans-6c" x="850.191406"/>
      <use xlink:href="#DejaVuSans-73" x="877.974609"/>
     </g>
    </g>
   </g>
   <g id="line2d_49">
    <path d="M 298.86932 293.76 
L 298.86932 288.969505 
L 309.00552 288.969505 
L 309.00552 284.17901 
L 311.455721 284.17901 
L 311.455721 279.388515 
L 315.510374 279.388515 
L 315.510374 274.59802 
L 317.820909 274.59802 
L 317.820909 269.807525 
L 320.936061 269.807525 
L 320.936061 265.01703 
L 322.583014 265.01703 
L 322.583014 260.226535 
L 325.132443 260.226535 
L 325.132443 255.43604 
L 326.7187 255.43604 
L 326.7187 250.645545 
L 327.049182 250.645545 
L 327.049182 245.85505 
L 329.304498 245.85505 
L 329.304498 241.064554 
L 329.777787 241.064554 
L 329.777787 236.274059 
L 329.885043 236.274059 
L 329.885043 231.483564 
L 335.127192 231.483564 
L 335.127192 226.693069 
L 337.808069 226.693069 
L 337.808069 221.902574 
L 338.609487 221.902574 
L 338.609487 217.112079 
L 339.629159 217.112079 
L 339.629159 212.321584 
L 340.494098 212.321584 
L 340.494098 207.531089 
L 343.957676 207.531089 
L 343.957676 202.740594 
L 344.929756 202.740594 
L 344.929756 197.950099 
L 345.598043 197.950099 
L 345.598043 193.159604 
L 347.366017 193.159604 
L 347.366017 188.369109 
L 348.446398 188.369109 
L 348.446398 183.578614 
L 349.467345 183.578614 
L 349.467345 178.788119 
L 351.031971 178.788119 
L 351.031971 173.997624 
L 351.733632 173.997624 
L 351.733632 169.207129 
L 361.315299 169.207129 
L 361.315299 164.416634 
L 363.361823 164.416634 
L 363.361823 159.626139 
L 367.649962 159.626139 
L 367.649962 154.835644 
L 371.736603 154.835644 
L 371.736603 150.045149 
L 373.126178 150.045149 
L 373.126178 145.254653 
L 375.804322 145.254653 
L 375.804322 140.464158 
L 391.73589 140.464158 
L 391.73589 135.673663 
L 392.393352 135.673663 
L 392.393352 130.883168 
L 405.694149 130.883168 
L 405.694149 126.092673 
L 408.443842 126.092673 
L 408.443842 121.302178 
L 409.685146 121.302178 
L 409.685146 116.511683 
L 421.675321 116.511683 
L 421.675321 111.721188 
L 425.495967 111.721188 
L 425.495967 106.930693 
L 426.199913 106.930693 
L 426.199913 102.140198 
L 433.358666 102.140198 
L 433.358666 97.349703 
L 440.333756 97.349703 
L 440.333756 92.559208 
L 446.525988 92.559208 
L 446.525988 87.768713 
L 447.186214 87.768713 
L 447.186214 82.978218 
L 452.013193 82.978218 
L 452.013193 78.187723 
L 454.917225 78.187723 
L 454.917225 73.397228 
L 456.809537 73.397228 
L 456.809537 68.606733 
L 456.809537 68.606733 
L 456.809537 68.606733 
L 460.8 68.606733 
" clip-path="url(#pc09521a264)" style="fill: none; stroke: #000000; stroke-width: 1.5; stroke-linecap: square"/>
   </g>
   <g id="line2d_50">
    <path clip-path="url(#pc09521a264)" style="fill: none; stroke: #000000; stroke-width: 1.5; stroke-linecap: square"/>
   </g>
   <g id="line2d_51">
    <path d="M 347.693595 293.76 
L 347.693595 288.969505 
L 361.226027 288.969505 
L 361.226027 284.17901 
L 362.803431 284.17901 
L 362.803431 279.388515 
L 374.846448 279.388515 
L 374.846448 274.59802 
L 382.57569 274.59802 
L 382.57569 269.807525 
L 384.035947 269.807525 
L 384.035947 265.01703 
L 385.306494 265.01703 
L 385.306494 260.226535 
L 387.815479 260.226535 
L 387.815479 255.43604 
L 389.16545 255.43604 
L 389.16545 250.645545 
L 391.769595 250.645545 
L 391.769595 245.85505 
L 394.055258 245.85505 
L 394.055258 241.064554 
L 394.254613 241.064554 
L 394.254613 236.274059 
L 399.830367 236.274059 
L 399.830367 231.483564 
L 401.618733 231.483564 
L 401.618733 226.693069 
L 403.86012 226.693069 
L 403.86012 221.902574 
L 404.343733 221.902574 
L 404.343733 217.112079 
L 404.682543 217.112079 
L 404.682543 212.321584 
L 407.172102 212.321584 
L 407.172102 207.531089 
L 413.359475 207.531089 
L 413.359475 202.740594 
L 414.385466 202.740594 
L 414.385466 197.950099 
L 416.462327 197.950099 
L 416.462327 193.159604 
L 417.946631 193.159604 
L 417.946631 188.369109 
L 422.535103 188.369109 
L 422.535103 183.578614 
L 422.711767 183.578614 
L 422.711767 178.788119 
L 426.057506 178.788119 
L 426.057506 173.997624 
L 429.687272 173.997624 
L 429.687272 169.207129 
L 438.425209 169.207129 
L 438.425209 164.416634 
L 439.532641 164.416634 
L 439.532641 159.626139 
L 441.472647 159.626139 
L 441.472647 154.835644 
L 447.261492 154.835644 
L 447.261492 150.045149 
L 447.261492 150.045149 
L 447.261492 150.045149 
L 460.8 150.045149 
" clip-path="url(#pc09521a264)" style="fill: none; stroke: #00bfbf; stroke-width: 1.5; stroke-linecap: square"/>
   </g>
   <g id="line2d_52">
    <path clip-path="url(#pc09521a264)" style="fill: none; stroke: #00bfbf; stroke-width: 1.5; stroke-linecap: square"/>
   </g>
   <g id="line2d_53">
    <path d="M 413.57136 293.76 
L 413.57136 288.969505 
L 416.942435 288.969505 
L 416.942435 284.17901 
L 419.994737 284.17901 
L 419.994737 279.388515 
L 421.40767 279.388515 
L 421.40767 274.59802 
L 425.44376 274.59802 
L 425.44376 269.807525 
L 426.939857 269.807525 
L 426.939857 265.01703 
L 427.620924 265.01703 
L 427.620924 260.226535 
L 432.845769 260.226535 
L 432.845769 255.43604 
L 433.41686 255.43604 
L 433.41686 250.645545 
L 438.083924 250.645545 
L 438.083924 245.85505 
L 439.655574 245.85505 
L 439.655574 241.064554 
L 441.300143 241.064554 
L 441.300143 236.274059 
L 444.796303 236.274059 
L 444.796303 231.483564 
L 444.921153 231.483564 
L 444.921153 226.693069 
L 445.554875 226.693069 
L 445.554875 221.902574 
L 446.821689 221.902574 
L 446.821689 217.112079 
L 448.794659 217.112079 
L 448.794659 212.321584 
L 449.574441 212.321584 
L 449.574441 207.531089 
L 450.45735 207.531089 
L 450.45735 202.740594 
L 450.633356 202.740594 
L 450.633356 197.950099 
L 450.969418 197.950099 
L 450.969418 193.159604 
L 454.250851 193.159604 
L 454.250851 188.369109 
L 455.629089 188.369109 
L 455.629089 183.578614 
L 456.37828 183.578614 
L 456.37828 178.788119 
L 458.631986 178.788119 
L 458.631986 173.997624 
L 459.651234 173.997624 
L 459.651234 169.207129 
L 459.651234 169.207129 
L 459.651234 169.207129 
L 460.8 169.207129 
" clip-path="url(#pc09521a264)" style="fill: none; stroke: #bf00bf; stroke-width: 1.5; stroke-linecap: square"/>
   </g>
   <g id="line2d_54">
    <path clip-path="url(#pc09521a264)" style="fill: none; stroke: #bf00bf; stroke-width: 1.5; stroke-linecap: square"/>
   </g>
   <g id="line2d_55">
    <path d="M 458.3313 293.76 
L 458.3313 288.969505 
L 458.3313 288.969505 
L 458.3313 288.969505 
L 460.8 288.969505 
" clip-path="url(#pc09521a264)" style="fill: none; stroke: #ff0000; stroke-width: 3; stroke-linecap: square"/>
   </g>
   <g id="line2d_56">
    <path clip-path="url(#pc09521a264)" style="fill: none; stroke: #ff0000; stroke-width: 3; stroke-linecap: square"/>
   </g>
   <g id="line2d_57">
    <path d="M 460.8 293.76 
L 460.8 3.456 
" clip-path="url(#pc09521a264)" style="fill: none; stroke: #000000; stroke-width: 1.5; stroke-linecap: square"/>
   </g>
   <g id="patch_3">
    <path d="M 62.208 293.76 
L 62.208 3.456 
" style="fill: none; stroke: #000000; stroke-width: 0.8; stroke-linejoin: miter; stroke-linecap: square"/>
   </g>
   <g id="patch_4">
    <path d="M 460.8 293.76 
L 460.8 3.456 
" style="fill: none; stroke: #000000; stroke-width: 0.8; stroke-linejoin: miter; stroke-linecap: square"/>
   </g>
   <g id="patch_5">
    <path d="M 62.208 293.76 
L 460.8 293.76 
" style="fill: none; stroke: #000000; stroke-width: 0.8; stroke-linejoin: miter; stroke-linecap: square"/>
   </g>
   <g id="patch_6">
    <path d="M 62.208 3.456 
L 460.8 3.456 
" style="fill: none; stroke: #000000; stroke-width: 0.8; stroke-linejoin: miter; stroke-linecap: square"/>
   </g>
   <g id="text_12">
    <!-- {f6-f9}, 20-D -->
    <g transform="translate(195.0165 24.458955)scale(0.2 -0.2)">
     <defs>
      <path id="DejaVuSans-7b" d="M 3272 -594 
L 3272 -1044 
L 3078 -1044 
Q 2300 -1044 2036 -812 
Q 1772 -581 1772 109 
L 1772 856 
Q 1772 1328 1603 1509 
Q 1434 1691 991 1691 
L 800 1691 
L 800 2138 
L 991 2138 
Q 1438 2138 1605 2317 
Q 1772 2497 1772 2963 
L 1772 3713 
Q 1772 4403 2036 4633 
Q 2300 4863 3078 4863 
L 3272 4863 
L 3272 4416 
L 3059 4416 
Q 2619 4416 2484 4278 
Q 2350 4141 2350 3700 
L 2350 2925 
Q 2350 2434 2208 2212 
Q 2066 1991 1722 1913 
Q 2069 1828 2209 1606 
Q 2350 1384 2350 897 
L 2350 122 
Q 2350 -319 2484 -456 
Q 2619 -594 3059 -594 
L 3272 -594 
z
" transform="scale(0.015625)"/>
      <path id="DejaVuSans-2d" d="M 313 2009 
L 1997 2009 
L 1997 1497 
L 313 1497 
L 313 2009 
z
" transform="scale(0.015625)"/>
      <path id="DejaVuSans-39" d="M 703 97 
L 703 672 
Q 941 559 1184 500 
Q 1428 441 1663 441 
Q 2288 441 2617 861 
Q 2947 1281 2994 2138 
Q 2813 1869 2534 1725 
Q 2256 1581 1919 1581 
Q 1219 1581 811 2004 
Q 403 2428 403 3163 
Q 403 3881 828 4315 
Q 1253 4750 1959 4750 
Q 2769 4750 3195 4129 
Q 3622 3509 3622 2328 
Q 3622 1225 3098 567 
Q 2575 -91 1691 -91 
Q 1453 -91 1209 -44 
Q 966 3 703 97 
z
M 1959 2075 
Q 2384 2075 2632 2365 
Q 2881 2656 2881 3163 
Q 2881 3666 2632 3958 
Q 2384 4250 1959 4250 
Q 1534 4250 1286 3958 
Q 1038 3666 1038 3163 
Q 1038 2656 1286 2365 
Q 1534 2075 1959 2075 
z
" transform="scale(0.015625)"/>
      <path id="DejaVuSans-7d" d="M 800 -594 
L 1019 -594 
Q 1456 -594 1589 -459 
Q 1722 -325 1722 122 
L 1722 897 
Q 1722 1384 1862 1606 
Q 2003 1828 2350 1913 
Q 2003 1991 1862 2212 
Q 1722 2434 1722 2925 
L 1722 3700 
Q 1722 4144 1589 4280 
Q 1456 4416 1019 4416 
L 800 4416 
L 800 4863 
L 997 4863 
Q 1775 4863 2036 4633 
Q 2297 4403 2297 3713 
L 2297 2963 
Q 2297 2497 2465 2317 
Q 2634 2138 3078 2138 
L 3272 2138 
L 3272 1691 
L 3078 1691 
Q 2634 1691 2465 1509 
Q 2297 1328 2297 856 
L 2297 109 
Q 2297 -581 2036 -812 
Q 1775 -1044 997 -1044 
L 800 -1044 
L 800 -594 
z
" transform="scale(0.015625)"/>
      <path id="DejaVuSans-2c" d="M 750 794 
L 1409 794 
L 1409 256 
L 897 -744 
L 494 -744 
L 750 256 
L 750 794 
z
" transform="scale(0.015625)"/>
     </defs>
     <use xlink:href="#DejaVuSans-7b"/>
     <use xlink:href="#DejaVuSans-66" x="63.623047"/>
     <use xlink:href="#DejaVuSans-36" x="98.828125"/>
     <use xlink:href="#DejaVuSans-2d" x="162.451172"/>
     <use xlink:href="#DejaVuSans-66" x="198.535156"/>
     <use xlink:href="#DejaVuSans-39" x="233.740234"/>
     <use xlink:href="#DejaVuSans-7d" x="297.363281"/>
     <use xlink:href="#DejaVuSans-2c" x="360.986328"/>
     <use xlink:href="#DejaVuSans-20" x="392.773438"/>
     <use xlink:href="#DejaVuSans-32" x="424.560547"/>
     <use xlink:href="#DejaVuSans-30" x="488.183594"/>
     <use xlink:href="#DejaVuSans-2d" x="551.806641"/>
     <use xlink:href="#DejaVuSans-44" x="587.890625"/>
    </g>
   </g>
   <g id="text_13">
    <!-- absolute targets -->
    <g transform="translate(62.208 609.932673)scale(0.14 -0.14)">
     <defs>
      <path id="DejaVuSans-62" d="M 3116 1747 
Q 3116 2381 2855 2742 
Q 2594 3103 2138 3103 
Q 1681 3103 1420 2742 
Q 1159 2381 1159 1747 
Q 1159 1113 1420 752 
Q 1681 391 2138 391 
Q 2594 391 2855 752 
Q 3116 1113 3116 1747 
z
M 1159 2969 
Q 1341 3281 1617 3432 
Q 1894 3584 2278 3584 
Q 2916 3584 3314 3078 
Q 3713 2572 3713 1747 
Q 3713 922 3314 415 
Q 2916 -91 2278 -91 
Q 1894 -91 1617 61 
Q 1341 213 1159 525 
L 1159 0 
L 581 0 
L 581 4863 
L 1159 4863 
L 1159 2969 
z
" transform="scale(0.015625)"/>
      <path id="DejaVuSans-75" d="M 544 1381 
L 544 3500 
L 1119 3500 
L 1119 1403 
Q 1119 906 1312 657 
Q 1506 409 1894 409 
Q 2359 409 2629 706 
Q 2900 1003 2900 1516 
L 2900 3500 
L 3475 3500 
L 3475 0 
L 2900 0 
L 2900 538 
Q 2691 219 2414 64 
Q 2138 -91 1772 -91 
Q 1169 -91 856 284 
Q 544 659 544 1381 
z
M 1991 3584 
L 1991 3584 
z
" transform="scale(0.015625)"/>
      <path id="DejaVuSans-65" d="M 3597 1894 
L 3597 1613 
L 953 1613 
Q 991 1019 1311 708 
Q 1631 397 2203 397 
Q 2534 397 2845 478 
Q 3156 559 3463 722 
L 3463 178 
Q 3153 47 2828 -22 
Q 2503 -91 2169 -91 
Q 1331 -91 842 396 
Q 353 884 353 1716 
Q 353 2575 817 3079 
Q 1281 3584 2069 3584 
Q 2775 3584 3186 3129 
Q 3597 2675 3597 1894 
z
M 3022 2063 
Q 3016 2534 2758 2815 
Q 2500 3097 2075 3097 
Q 1594 3097 1305 2825 
Q 1016 2553 972 2059 
L 3022 2063 
z
" transform="scale(0.015625)"/>
     </defs>
     <use xlink:href="#DejaVuSans-61"/>
     <use xlink:href="#DejaVuSans-62" x="61.279297"/>
     <use xlink:href="#DejaVuSans-73" x="124.755859"/>
     <use xlink:href="#DejaVuSans-6f" x="176.855469"/>
     <use xlink:href="#DejaVuSans-6c" x="238.037109"/>
     <use xlink:href="#DejaVuSans-75" x="265.820312"/>
     <use xlink:href="#DejaVuSans-74" x="329.199219"/>
     <use xlink:href="#DejaVuSans-65" x="368.408203"/>
     <use xlink:href="#DejaVuSans-20" x="429.931641"/>
     <use xlink:href="#DejaVuSans-74" x="461.71875"/>
     <use xlink:href="#DejaVuSans-61" x="500.927734"/>
     <use xlink:href="#DejaVuSans-72" x="562.207031"/>
     <use xlink:href="#DejaVuSans-67" x="601.570312"/>
     <use xlink:href="#DejaVuSans-65" x="665.046875"/>
     <use xlink:href="#DejaVuSans-74" x="726.570312"/>
     <use xlink:href="#DejaVuSans-73" x="765.779297"/>
    </g>
   </g>
   <g id="text_14">
    <!-- v2.6 -->
    <g style="fill: #808080" transform="translate(250.593063 288.777272)scale(0.1 -0.1)">
     <use xlink:href="#DejaVuSans-76"/>
     <use xlink:href="#DejaVuSans-32" x="59.179688"/>
     <use xlink:href="#DejaVuSans-2e" x="122.802734"/>
     <use xlink:href="#DejaVuSans-36" x="154.589844"/>
    </g>
   </g>
   <g id="legend_1">
    <g id="patch_7">
     <path d="M 76.208 136.881 
L 205.429875 136.881 
Q 209.429875 136.881 209.429875 132.881 
L 209.429875 17.456 
Q 209.429875 13.456 205.429875 13.456 
L 76.208 13.456 
Q 72.208 13.456 72.208 17.456 
L 72.208 132.881 
Q 72.208 136.881 76.208 136.881 
z
" style="fill: #ffffff; opacity: 0.2; stroke: #cccccc; stroke-linejoin: miter"/>
    </g>
    <g id="line2d_58">
     <path d="M 80.208 29.652875 
L 80.208 29.652875 
L 100.208 29.652875 
L 100.208 29.652875 
L 120.208 29.652875 
" style="fill: none; stroke: #000000; stroke-width: 1.5; stroke-linecap: square"/>
    </g>
    <g id="text_15">
     <!-- 1: 4/4 -->
     <g transform="translate(136.208 36.652875)scale(0.2 -0.2)">
      <defs>
       <path id="DejaVuSans-3a" d="M 750 794 
L 1409 794 
L 1409 0 
L 750 0 
L 750 794 
z
M 750 3309 
L 1409 3309 
L 1409 2516 
L 750 2516 
L 750 3309 
z
" transform="scale(0.015625)"/>
      </defs>
      <use xlink:href="#DejaVuSans-31"/>
      <use xlink:href="#DejaVuSans-3a" x="63.623047"/>
      <use xlink:href="#DejaVuSans-20" x="97.314453"/>
      <use xlink:href="#DejaVuSans-34" x="129.101562"/>
      <use xlink:href="#DejaVuSans-2f" x="192.724609"/>
      <use xlink:href="#DejaVuSans-34" x="226.416016"/>
     </g>
    </g>
    <g id="line2d_59">
     <path d="M 80.208 59.009125 
L 80.208 59.009125 
L 100.208 59.009125 
L 100.208 59.009125 
L 120.208 59.009125 
" style="fill: none; stroke: #00bfbf; stroke-width: 1.5; stroke-linecap: square"/>
    </g>
    <g id="text_16">
     <!-- -1: 2/4 -->
     <g transform="translate(136.208 66.009125)scale(0.2 -0.2)">
      <use xlink:href="#DejaVuSans-2d"/>
      <use xlink:href="#DejaVuSans-31" x="36.083984"/>
      <use xlink:href="#DejaVuSans-3a" x="99.707031"/>
      <use xlink:href="#DejaVuSans-20" x="133.398438"/>
      <use xlink:href="#DejaVuSans-32" x="165.185547"/>
      <use xlink:href="#DejaVuSans-2f" x="228.808594"/>
      <use xlink:href="#DejaVuSans-34" x="262.5"/>
     </g>
    </g>
    <g id="line2d_60">
     <path d="M 80.208 88.365375 
L 80.208 88.365375 
L 100.208 88.365375 
L 100.208 88.365375 
L 120.208 88.365375 
" style="fill: none; stroke: #bf00bf; stroke-width: 1.5; stroke-linecap: square"/>
    </g>
    <g id="text_17">
     <!-- -4: 2/4 -->
     <g transform="translate(136.208 95.365375)scale(0.2 -0.2)">
      <use xlink:href="#DejaVuSans-2d"/>
      <use xlink:href="#DejaVuSans-34" x="36.083984"/>
      <use xlink:href="#DejaVuSans-3a" x="99.707031"/>
      <use xlink:href="#DejaVuSans-20" x="133.398438"/>
      <use xlink:href="#DejaVuSans-32" x="165.185547"/>
      <use xlink:href="#DejaVuSans-2f" x="228.808594"/>
      <use xlink:href="#DejaVuSans-34" x="262.5"/>
     </g>
    </g>
    <g id="line2d_61">
     <path d="M 80.208 117.721625 
L 80.208 117.721625 
L 100.208 117.721625 
L 100.208 117.721625 
L 120.208 117.721625 
" style="fill: none; stroke: #ff0000; stroke-width: 3; stroke-linecap: square"/>
    </g>
    <g id="text_18">
     <!-- -8: 1/4 -->
     <g transform="translate(136.208 124.721625)scale(0.2 -0.2)">
      <use xlink:href="#DejaVuSans-2d"/>
      <use xlink:href="#DejaVuSans-38" x="36.083984"/>
      <use xlink:href="#DejaVuSans-3a" x="99.707031"/>
      <use xlink:href="#DejaVuSans-20" x="133.398438"/>
      <use xlink:href="#DejaVuSans-31" x="165.185547"/>
      <use xlink:href="#DejaVuSans-2f" x="228.808594"/>
      <use xlink:href="#DejaVuSans-34" x="262.5"/>
     </g>
    </g>
   </g>
  </g>
 </g>
 <defs>
  <clipPath id="pc09521a264">
   <rect x="62.208" y="3.456" width="398.592" height="290.304"/>
  </clipPath>
 </defs>
</svg>
