<?xml version="1.0" encoding="utf-8" standalone="no"?>
<!DOCTYPE svg PUBLIC "-//W3C//DTD SVG 1.1//EN"
  "http://www.w3.org/Graphics/SVG/1.1/DTD/svg11.dtd">
<svg xmlns:xlink="http://www.w3.org/1999/xlink" width="460.8pt" height="345.6pt" viewBox="0 0 460.8 345.6" xmlns="http://www.w3.org/2000/svg" version="1.1">
 <metadata>
  <rdf:RDF xmlns:dc="http://purl.org/dc/elements/1.1/" xmlns:cc="http://creativecommons.org/ns#" xmlns:rdf="http://www.w3.org/1999/02/22-rdf-syntax-ns#">
   <cc:Work>
    <dc:type rdf:resource="http://purl.org/dc/dcmitype/StillImage"/>
    <dc:date>2024-05-29T07:56:28.033972</dc:date>
    <dc:format>image/svg+xml</dc:format>
    <dc:creator>
     <cc:Agent>
      <dc:title>Matplotlib v3.5.1, https://matplotlib.org/</dc:title>
     </cc:Agent>
    </dc:creator>
   </cc:Work>
  </rdf:RDF>
 </metadata>
 <defs>
  <style type="text/css">*{stroke-linejoin: round; stroke-linecap: butt}</style>
 </defs>
 <g id="figure_1">
  <g id="patch_1">
   <path d="M 0 345.6 
L 460.8 345.6 
L 460.8 0 
L 0 0 
z
" style="fill: #ffffff"/>
  </g>
  <g id="axes_1">
   <g id="patch_2">
    <path d="M 0 293.76 
L 460.8 293.76 
L 460.8 3.456 
L 0 3.456 
z
" style="fill: #ffffff"/>
   </g>
   <g id="matplotlib.axis_1">
    <g id="xtick_1">
     <g id="line2d_1">
      <path d="M 100.880188 293.76 
L 100.880188 3.456 
" clip-path="url(#pcda288df62)" style="fill: none; stroke: #b0b0b0; stroke-width: 0.8; stroke-linecap: square"/>
     </g>
     <g id="line2d_2">
      <defs>
       <path id="mbbe4285b53" d="M 0 0 
L 0 3.5 
" style="stroke: #000000; stroke-width: 0.8"/>
      </defs>
      <g>
       <use xlink:href="#mbbe4285b53" x="100.880188" y="293.76" style="stroke: #000000; stroke-width: 0.8"/>
      </g>
     </g>
     <g id="text_1">
      <!-- -4 -->
      <g transform="translate(90.909876 315.956875)scale(0.2 -0.2)">
       <defs>
        <path id="DejaVuSans-2d" d="M 313 2009 
L 1997 2009 
L 1997 1497 
L 313 1497 
L 313 2009 
z
" transform="scale(0.015625)"/>
        <path id="DejaVuSans-34" d="M 2419 4116 
L 825 1625 
L 2419 1625 
L 2419 4116 
z
M 2253 4666 
L 3047 4666 
L 3047 1625 
L 3713 1625 
L 3713 1100 
L 3047 1100 
L 3047 0 
L 2419 0 
L 2419 1100 
L 313 1100 
L 313 1709 
L 2253 4666 
z
" transform="scale(0.015625)"/>
       </defs>
       <use xlink:href="#DejaVuSans-2d"/>
       <use xlink:href="#DejaVuSans-34" x="36.083984"/>
      </g>
     </g>
    </g>
    <g id="xtick_2">
     <g id="line2d_3">
      <path d="M 201.86948 293.76 
L 201.86948 3.456 
" clip-path="url(#pcda288df62)" style="fill: none; stroke: #b0b0b0; stroke-width: 0.8; stroke-linecap: square"/>
     </g>
     <g id="line2d_4">
      <g>
       <use xlink:href="#mbbe4285b53" x="201.86948" y="293.76" style="stroke: #000000; stroke-width: 0.8"/>
      </g>
     </g>
     <g id="text_2">
      <!-- 0 -->
      <g transform="translate(195.50698 315.956875)scale(0.2 -0.2)">
       <defs>
        <path id="DejaVuSans-30" d="M 2034 4250 
Q 1547 4250 1301 3770 
Q 1056 3291 1056 2328 
Q 1056 1369 1301 889 
Q 1547 409 2034 409 
Q 2525 409 2770 889 
Q 3016 1369 3016 2328 
Q 3016 3291 2770 3770 
Q 2525 4250 2034 4250 
z
M 2034 4750 
Q 2819 4750 3233 4129 
Q 3647 3509 3647 2328 
Q 3647 1150 3233 529 
Q 2819 -91 2034 -91 
Q 1250 -91 836 529 
Q 422 1150 422 2328 
Q 422 3509 836 4129 
Q 1250 4750 2034 4750 
z
" transform="scale(0.015625)"/>
       </defs>
       <use xlink:href="#DejaVuSans-30"/>
      </g>
     </g>
    </g>
    <g id="xtick_3">
     <g id="line2d_5">
      <path d="M 302.858771 293.76 
L 302.858771 3.456 
" clip-path="url(#pcda288df62)" style="fill: none; stroke: #b0b0b0; stroke-width: 0.8; stroke-linecap: square"/>
     </g>
     <g id="line2d_6">
      <g>
       <use xlink:href="#mbbe4285b53" x="302.858771" y="293.76" style="stroke: #000000; stroke-width: 0.8"/>
      </g>
     </g>
     <g id="text_3">
      <!-- 4 -->
      <g transform="translate(296.496271 315.956875)scale(0.2 -0.2)">
       <use xlink:href="#DejaVuSans-34"/>
      </g>
     </g>
    </g>
    <g id="xtick_4">
     <g id="line2d_7">
      <path d="M 403.848063 293.76 
L 403.848063 3.456 
" clip-path="url(#pcda288df62)" style="fill: none; stroke: #b0b0b0; stroke-width: 0.8; stroke-linecap: square"/>
     </g>
     <g id="line2d_8">
      <g>
       <use xlink:href="#mbbe4285b53" x="403.848063" y="293.76" style="stroke: #000000; stroke-width: 0.8"/>
      </g>
     </g>
     <g id="text_4">
      <!-- 8 -->
      <g transform="translate(397.485563 315.956875)scale(0.2 -0.2)">
       <defs>
        <path id="DejaVuSans-38" d="M 2034 2216 
Q 1584 2216 1326 1975 
Q 1069 1734 1069 1313 
Q 1069 891 1326 650 
Q 1584 409 2034 409 
Q 2484 409 2743 651 
Q 3003 894 3003 1313 
Q 3003 1734 2745 1975 
Q 2488 2216 2034 2216 
z
M 1403 2484 
Q 997 2584 770 2862 
Q 544 3141 544 3541 
Q 544 4100 942 4425 
Q 1341 4750 2034 4750 
Q 2731 4750 3128 4425 
Q 3525 4100 3525 3541 
Q 3525 3141 3298 2862 
Q 3072 2584 2669 2484 
Q 3125 2378 3379 2068 
Q 3634 1759 3634 1313 
Q 3634 634 3220 271 
Q 2806 -91 2034 -91 
Q 1263 -91 848 271 
Q 434 634 434 1313 
Q 434 1759 690 2068 
Q 947 2378 1403 2484 
z
M 1172 3481 
Q 1172 3119 1398 2916 
Q 1625 2713 2034 2713 
Q 2441 2713 2670 2916 
Q 2900 3119 2900 3481 
Q 2900 3844 2670 4047 
Q 2441 4250 2034 4250 
Q 1625 4250 1398 4047 
Q 1172 3844 1172 3481 
z
" transform="scale(0.015625)"/>
       </defs>
       <use xlink:href="#DejaVuSans-38"/>
      </g>
     </g>
    </g>
    <g id="text_5">
     <!-- log10 of Df -->
     <g transform="translate(175.214063 339.313125)scale(0.2 -0.2)">
      <defs>
       <path id="DejaVuSans-6c" d="M 603 4863 
L 1178 4863 
L 1178 0 
L 603 0 
L 603 4863 
z
" transform="scale(0.015625)"/>
       <path id="DejaVuSans-6f" d="M 1959 3097 
Q 1497 3097 1228 2736 
Q 959 2375 959 1747 
Q 959 1119 1226 758 
Q 1494 397 1959 397 
Q 2419 397 2687 759 
Q 2956 1122 2956 1747 
Q 2956 2369 2687 2733 
Q 2419 3097 1959 3097 
z
M 1959 3584 
Q 2709 3584 3137 3096 
Q 3566 2609 3566 1747 
Q 3566 888 3137 398 
Q 2709 -91 1959 -91 
Q 1206 -91 779 398 
Q 353 888 353 1747 
Q 353 2609 779 3096 
Q 1206 3584 1959 3584 
z
" transform="scale(0.015625)"/>
       <path id="DejaVuSans-67" d="M 2906 1791 
Q 2906 2416 2648 2759 
Q 2391 3103 1925 3103 
Q 1463 3103 1205 2759 
Q 947 2416 947 1791 
Q 947 1169 1205 825 
Q 1463 481 1925 481 
Q 2391 481 2648 825 
Q 2906 1169 2906 1791 
z
M 3481 434 
Q 3481 -459 3084 -895 
Q 2688 -1331 1869 -1331 
Q 1566 -1331 1297 -1286 
Q 1028 -1241 775 -1147 
L 775 -588 
Q 1028 -725 1275 -790 
Q 1522 -856 1778 -856 
Q 2344 -856 2625 -561 
Q 2906 -266 2906 331 
L 2906 616 
Q 2728 306 2450 153 
Q 2172 0 1784 0 
Q 1141 0 747 490 
Q 353 981 353 1791 
Q 353 2603 747 3093 
Q 1141 3584 1784 3584 
Q 2172 3584 2450 3431 
Q 2728 3278 2906 2969 
L 2906 3500 
L 3481 3500 
L 3481 434 
z
" transform="scale(0.015625)"/>
       <path id="DejaVuSans-31" d="M 794 531 
L 1825 531 
L 1825 4091 
L 703 3866 
L 703 4441 
L 1819 4666 
L 2450 4666 
L 2450 531 
L 3481 531 
L 3481 0 
L 794 0 
L 794 531 
z
" transform="scale(0.015625)"/>
       <path id="DejaVuSans-20" transform="scale(0.015625)"/>
       <path id="DejaVuSans-66" d="M 2375 4863 
L 2375 4384 
L 1825 4384 
Q 1516 4384 1395 4259 
Q 1275 4134 1275 3809 
L 1275 3500 
L 2222 3500 
L 2222 3053 
L 1275 3053 
L 1275 0 
L 697 0 
L 697 3053 
L 147 3053 
L 147 3500 
L 697 3500 
L 697 3744 
Q 697 4328 969 4595 
Q 1241 4863 1831 4863 
L 2375 4863 
z
" transform="scale(0.015625)"/>
       <path id="DejaVuSans-44" d="M 1259 4147 
L 1259 519 
L 2022 519 
Q 2988 519 3436 956 
Q 3884 1394 3884 2338 
Q 3884 3275 3436 3711 
Q 2988 4147 2022 4147 
L 1259 4147 
z
M 628 4666 
L 1925 4666 
Q 3281 4666 3915 4102 
Q 4550 3538 4550 2338 
Q 4550 1131 3912 565 
Q 3275 0 1925 0 
L 628 0 
L 628 4666 
z
" transform="scale(0.015625)"/>
      </defs>
      <use xlink:href="#DejaVuSans-6c"/>
      <use xlink:href="#DejaVuSans-6f" x="27.783203"/>
      <use xlink:href="#DejaVuSans-67" x="88.964844"/>
      <use xlink:href="#DejaVuSans-31" x="152.441406"/>
      <use xlink:href="#DejaVuSans-30" x="216.064453"/>
      <use xlink:href="#DejaVuSans-20" x="279.6875"/>
      <use xlink:href="#DejaVuSans-6f" x="311.474609"/>
      <use xlink:href="#DejaVuSans-66" x="372.65625"/>
      <use xlink:href="#DejaVuSans-20" x="407.861328"/>
      <use xlink:href="#DejaVuSans-44" x="439.648438"/>
      <use xlink:href="#DejaVuSans-66" x="516.650391"/>
     </g>
    </g>
   </g>
   <g id="matplotlib.axis_2">
    <g id="ytick_1">
     <g id="line2d_9">
      <path d="M 0 293.76 
L 460.8 293.76 
" clip-path="url(#pcda288df62)" style="fill: none; stroke: #b0b0b0; stroke-width: 0.8; stroke-linecap: square"/>
     </g>
     <g id="line2d_10">
      <defs>
       <path id="m5be1422786" d="M 0 0 
L -3.5 0 
" style="stroke: #000000; stroke-width: 0.8"/>
      </defs>
      <g>
       <use xlink:href="#m5be1422786" x="0" y="293.76" style="stroke: #000000; stroke-width: 0.8"/>
      </g>
     </g>
    </g>
    <g id="ytick_2">
     <g id="line2d_11">
      <path d="M 0 236.274059 
L 460.8 236.274059 
" clip-path="url(#pcda288df62)" style="fill: none; stroke: #b0b0b0; stroke-width: 0.8; stroke-linecap: square"/>
     </g>
     <g id="line2d_12">
      <g>
       <use xlink:href="#m5be1422786" x="0" y="236.274059" style="stroke: #000000; stroke-width: 0.8"/>
      </g>
     </g>
    </g>
    <g id="ytick_3">
     <g id="line2d_13">
      <path d="M 0 178.788119 
L 460.8 178.788119 
" clip-path="url(#pcda288df62)" style="fill: none; stroke: #b0b0b0; stroke-width: 0.8; stroke-linecap: square"/>
     </g>
     <g id="line2d_14">
      <g>
       <use xlink:href="#m5be1422786" x="0" y="178.788119" style="stroke: #000000; stroke-width: 0.8"/>
      </g>
     </g>
    </g>
    <g id="ytick_4">
     <g id="line2d_15">
      <path d="M 0 121.302178 
L 460.8 121.302178 
" clip-path="url(#pcda288df62)" style="fill: none; stroke: #b0b0b0; stroke-width: 0.8; stroke-linecap: square"/>
     </g>
     <g id="line2d_16">
      <g>
       <use xlink:href="#m5be1422786" x="0" y="121.302178" style="stroke: #000000; stroke-width: 0.8"/>
      </g>
     </g>
    </g>
    <g id="ytick_5">
     <g id="line2d_17">
      <path d="M 0 63.816238 
L 460.8 63.816238 
" clip-path="url(#pcda288df62)" style="fill: none; stroke: #b0b0b0; stroke-width: 0.8; stroke-linecap: square"/>
     </g>
     <g id="line2d_18">
      <g>
       <use xlink:href="#m5be1422786" x="0" y="63.816238" style="stroke: #000000; stroke-width: 0.8"/>
      </g>
     </g>
    </g>
    <g id="ytick_6">
     <g id="line2d_19">
      <path d="M 0 6.330297 
L 460.8 6.330297 
" clip-path="url(#pcda288df62)" style="fill: none; stroke: #b0b0b0; stroke-width: 0.8; stroke-linecap: square"/>
     </g>
     <g id="line2d_20">
      <g>
       <use xlink:href="#m5be1422786" x="0" y="6.330297" style="stroke: #000000; stroke-width: 0.8"/>
      </g>
     </g>
    </g>
   </g>
   <g id="line2d_21">
    <path d="M 145.452682 293.76 
L 145.452682 289.927604 
L 155.458343 289.927604 
L 155.458343 286.095208 
L 156.068708 286.095208 
L 156.068708 282.262812 
L 158.89043 282.262812 
L 158.89043 278.430416 
L 162.785067 278.430416 
L 162.852031 270.765624 
L 164.770839 270.765624 
L 164.770839 266.933228 
L 165.853413 266.933228 
L 165.931589 259.268436 
L 166.373168 259.268436 
L 166.373168 255.43604 
L 166.784769 255.43604 
L 166.784769 251.603644 
L 168.393152 251.603644 
L 168.393152 247.771248 
L 170.141036 247.771248 
L 170.141036 243.938851 
L 172.090717 243.938851 
L 172.090717 240.106455 
L 173.007226 240.106455 
L 173.007226 236.274059 
L 174.387223 236.274059 
L 174.387223 232.441663 
L 175.18616 232.441663 
L 175.18616 228.609267 
L 175.505877 228.609267 
L 175.505877 224.776871 
L 176.420241 224.776871 
L 176.420241 220.944475 
L 176.56799 220.944475 
L 176.56799 217.112079 
L 177.617665 217.112079 
L 177.617665 213.279683 
L 178.047537 213.279683 
L 178.047537 209.447287 
L 178.624134 209.447287 
L 178.624134 205.614891 
L 179.34682 205.614891 
L 179.34682 201.782495 
L 180.928349 201.782495 
L 180.928349 197.950099 
L 181.599128 197.950099 
L 181.599128 194.117703 
L 181.849354 194.117703 
L 181.849354 190.285307 
L 182.618699 190.285307 
L 182.618699 186.452911 
L 184.124072 186.452911 
L 184.124072 182.620515 
L 184.982226 182.620515 
L 184.982226 178.788119 
L 185.508253 178.788119 
L 185.508253 174.955723 
L 185.651731 174.955723 
L 185.651731 171.123327 
L 187.064533 171.123327 
L 187.064533 167.290931 
L 187.245977 167.290931 
L 187.245977 163.458535 
L 189.083396 163.458535 
L 189.173849 155.793743 
L 189.924775 155.793743 
L 189.924775 151.961347 
L 190.287637 151.961347 
L 190.287637 148.12895 
L 190.824848 148.12895 
L 190.824848 144.296554 
L 192.377667 144.296554 
L 192.377667 140.464158 
L 193.60553 140.464158 
L 193.703709 132.799366 
L 194.540451 132.799366 
L 194.540451 128.96697 
L 194.782907 128.96697 
L 194.782907 125.134574 
L 195.285894 125.134574 
L 195.375126 117.469782 
L 195.808164 117.469782 
L 195.808164 113.637386 
L 196.711019 113.637386 
L 196.711019 109.80499 
L 196.865151 109.80499 
L 196.865151 105.972594 
L 197.495836 105.972594 
L 197.495836 102.140198 
L 199.698826 102.140198 
L 199.725181 94.475406 
L 200.07424 94.475406 
L 200.07424 90.64301 
L 203.990704 90.64301 
L 203.990704 86.810614 
L 206.180809 86.810614 
L 206.180809 82.978218 
L 206.458692 82.978218 
L 206.458692 79.145822 
L 209.414269 79.145822 
L 209.414269 71.48103 
L 210.346099 71.48103 
L 210.346099 67.648634 
L 210.86022 67.648634 
L 210.86022 63.816238 
L 211.448337 63.816238 
L 211.448337 59.983842 
L 211.586339 59.983842 
L 211.586339 56.151446 
L 213.860102 56.151446 
L 213.860102 36.989465 
L 217.01447 36.989465 
L 217.01447 25.492277 
L 221.460294 25.492277 
L 221.460294 17.827485 
L 225.906124 17.827485 
L 225.906124 13.995089 
L 228.106414 13.995089 
L 228.106414 10.162693 
L 229.060477 10.162693 
L 229.060477 6.330297 
L 229.060477 6.330297 
L 460.8 6.330297 
L 460.8 6.330297 
" clip-path="url(#pcda288df62)" style="fill: none; stroke: #ff0000; stroke-width: 3; stroke-linecap: square"/>
   </g>
   <g id="line2d_22">
    <path d="M 220.434392 293.76 
L 220.434392 289.927604 
L 227.125822 289.927604 
L 227.125822 286.095208 
L 227.985059 286.095208 
L 228.052263 278.430416 
L 230.266972 278.430416 
L 230.266972 274.59802 
L 230.667766 274.59802 
L 230.667766 270.765624 
L 231.165602 270.765624 
L 231.195174 263.100832 
L 231.606377 263.100832 
L 231.606377 259.268436 
L 233.094039 259.268436 
L 233.094039 255.43604 
L 233.590723 255.43604 
L 233.670789 247.771248 
L 234.354309 247.771248 
L 234.354309 243.938851 
L 234.961863 243.938851 
L 234.961863 240.106455 
L 235.118635 240.106455 
L 235.118635 236.274059 
L 236.286673 236.274059 
L 236.286673 232.441663 
L 236.827888 232.441663 
L 236.827888 228.609267 
L 237.090031 228.609267 
L 237.090031 224.776871 
L 237.462165 224.776871 
L 237.462165 220.944475 
L 238.41082 220.944475 
L 238.41082 217.112079 
L 238.694711 217.112079 
L 238.694711 213.279683 
L 238.839878 213.279683 
L 238.839878 209.447287 
L 240.404854 209.447287 
L 240.450345 201.782495 
L 241.320898 201.782495 
L 241.320898 197.950099 
L 241.66572 197.950099 
L 241.66572 194.117703 
L 242.250423 194.117703 
L 242.250423 190.285307 
L 244.201557 190.285307 
L 244.201557 186.452911 
L 246.11895 186.452911 
L 246.140392 178.788119 
L 246.24551 178.788119 
L 246.24551 174.955723 
L 246.676903 174.955723 
L 246.676903 171.123327 
L 247.130479 171.123327 
L 247.130479 167.290931 
L 247.311084 167.290931 
L 247.311084 163.458535 
L 247.448022 163.458535 
L 247.521873 155.793743 
L 247.635846 155.793743 
L 247.635846 151.961347 
L 247.972366 151.961347 
L 248.019232 144.296554 
L 248.116205 144.296554 
L 248.116205 140.464158 
L 248.597683 140.464158 
L 248.684138 128.96697 
L 248.858087 128.96697 
L 248.858087 125.134574 
L 249.290223 125.134574 
L 249.290223 121.302178 
L 250.021412 121.302178 
L 250.033393 113.637386 
L 250.191911 113.637386 
L 250.191911 109.80499 
L 251.299042 109.80499 
L 251.299042 105.972594 
L 252.243583 105.972594 
L 252.243583 102.140198 
L 252.378865 102.140198 
L 252.378865 98.307802 
L 252.574411 98.307802 
L 252.574411 94.475406 
L 252.778302 94.475406 
L 252.778302 90.64301 
L 252.968546 90.64301 
L 253.041478 82.978218 
L 253.414057 82.978218 
L 253.414057 79.145822 
L 253.97043 79.145822 
L 253.97043 75.313426 
L 254.603896 75.313426 
L 254.603896 71.48103 
L 254.833194 71.48103 
L 254.833194 67.648634 
L 256.327332 67.648634 
L 256.327332 63.816238 
L 256.690256 63.816238 
L 256.690256 59.983842 
L 257.56172 59.983842 
L 257.56172 56.151446 
L 258.428764 56.151446 
L 258.428764 52.31905 
L 258.836617 52.31905 
L 258.836617 48.486653 
L 263.406915 48.486653 
L 263.438818 40.821861 
L 263.932378 40.821861 
L 263.932378 36.989465 
L 264.170351 36.989465 
L 264.170351 33.157069 
L 265.526665 33.157069 
L 265.526665 29.324673 
L 267.031717 29.324673 
L 267.031717 25.492277 
L 270.865653 25.492277 
L 270.865653 21.659881 
L 271.315946 21.659881 
L 271.315946 17.827485 
L 274.515702 17.827485 
L 274.515702 13.995089 
L 275.021811 13.995089 
L 275.021811 10.162693 
L 277.144622 10.162693 
L 277.144622 6.330297 
L 277.144622 6.330297 
L 460.8 6.330297 
L 460.8 6.330297 
" clip-path="url(#pcda288df62)" style="fill: none; stroke: #00bfbf; stroke-width: 1.5; stroke-linecap: square"/>
   </g>
   <g id="line2d_23">
    <path d="M 220.434392 293.76 
L 220.434392 289.927604 
L 224.585111 289.927604 
L 224.619245 282.262812 
L 224.988378 282.262812 
L 224.988378 278.430416 
L 225.971307 278.430416 
L 225.971307 274.59802 
L 227.125822 274.59802 
L 227.125822 270.765624 
L 227.806085 270.765624 
L 227.806085 266.933228 
L 227.985059 266.933228 
L 228.052263 251.603644 
L 228.304179 251.603644 
L 228.304179 247.771248 
L 228.870095 247.771248 
L 228.870095 243.938851 
L 231.606377 243.938851 
L 231.606377 240.106455 
L 231.774129 240.106455 
L 231.774129 236.274059 
L 232.046567 236.274059 
L 232.107174 228.609267 
L 232.379288 228.609267 
L 232.379288 224.776871 
L 232.533112 224.776871 
L 232.533112 220.944475 
L 233.094039 220.944475 
L 233.094039 217.112079 
L 233.374945 217.112079 
L 233.374945 213.279683 
L 233.518255 213.279683 
L 233.621462 205.614891 
L 233.996133 205.614891 
L 233.996133 201.782495 
L 234.354309 201.782495 
L 234.354309 197.950099 
L 234.695671 197.950099 
L 234.695671 194.117703 
L 235.005193 194.117703 
L 235.005193 190.285307 
L 236.037522 190.285307 
L 236.037522 186.452911 
L 236.244979 186.452911 
L 236.286673 178.788119 
L 236.912767 178.788119 
L 236.912767 174.955723 
L 237.090031 174.955723 
L 237.090031 171.123327 
L 238.608531 171.123327 
L 238.608531 167.290931 
L 239.42028 167.290931 
L 239.42028 163.458535 
L 239.736544 163.458535 
L 239.736544 159.626139 
L 239.857222 159.626139 
L 239.920589 151.961347 
L 240.450151 151.961347 
L 240.450151 148.12895 
L 240.833419 148.12895 
L 240.833419 144.296554 
L 240.952023 144.296554 
L 240.952023 140.464158 
L 242.250423 140.464158 
L 242.250423 136.631762 
L 242.45185 136.631762 
L 242.547173 128.96697 
L 243.446792 128.96697 
L 243.446792 125.134574 
L 243.855913 125.134574 
L 243.855913 121.302178 
L 244.324009 121.302178 
L 244.324009 117.469782 
L 245.811716 117.469782 
L 245.811716 113.637386 
L 246.188732 113.637386 
L 246.188732 109.80499 
L 246.962122 109.80499 
L 246.981333 102.140198 
L 247.521873 102.140198 
L 247.582512 94.475406 
L 247.699324 94.475406 
L 247.699324 90.64301 
L 248.116205 90.64301 
L 248.116205 86.810614 
L 248.668396 86.810614 
L 248.668396 82.978218 
L 248.972485 82.978218 
L 248.972485 79.145822 
L 249.32535 79.145822 
L 249.403091 71.48103 
L 250.021412 71.48103 
L 250.021412 67.648634 
L 250.191911 67.648634 
L 250.191911 63.816238 
L 250.447549 63.816238 
L 250.447549 59.983842 
L 250.890164 59.983842 
L 250.890164 56.151446 
L 252.574411 56.151446 
L 252.574411 52.31905 
L 252.799318 52.31905 
L 252.799318 48.486653 
L 255.470866 48.486653 
L 255.470866 44.654257 
L 255.824349 44.654257 
L 255.824349 40.821861 
L 256.405952 40.821861 
L 256.405952 36.989465 
L 256.608806 36.989465 
L 256.608806 33.157069 
L 257.56172 33.157069 
L 257.56172 29.324673 
L 258.937073 29.324673 
L 258.942082 21.659881 
L 259.298687 21.659881 
L 259.298687 17.827485 
L 259.98415 17.827485 
L 259.98415 13.995089 
L 263.932378 13.995089 
L 263.932378 10.162693 
L 271.315946 10.162693 
L 271.315946 6.330297 
L 271.315946 6.330297 
L 460.8 6.330297 
L 460.8 6.330297 
" clip-path="url(#pcda288df62)" style="fill: none; stroke: #bf00bf; stroke-width: 1.5; stroke-linecap: square"/>
   </g>
   <g id="line2d_24">
    <path d="M 220.434392 293.76 
L 220.434392 289.927604 
L 224.585111 289.927604 
L 224.619245 282.262812 
L 224.988378 282.262812 
L 224.988378 278.430416 
L 225.576655 278.430416 
L 225.576655 274.59802 
L 225.971307 274.59802 
L 225.971307 270.765624 
L 226.561379 270.765624 
L 226.561379 266.933228 
L 227.220992 266.933228 
L 227.220992 263.100832 
L 227.683106 263.100832 
L 227.683106 259.268436 
L 227.806085 259.268436 
L 227.806085 255.43604 
L 227.985059 255.43604 
L 228.052263 240.106455 
L 228.214887 240.106455 
L 228.304179 228.609267 
L 228.425753 228.609267 
L 228.425753 224.776871 
L 228.870095 224.776871 
L 228.870095 220.944475 
L 229.075198 220.944475 
L 229.075198 217.112079 
L 229.402183 217.112079 
L 229.402183 213.279683 
L 229.559362 213.279683 
L 229.559362 209.447287 
L 230.567381 209.447287 
L 230.567381 205.614891 
L 230.866151 205.614891 
L 230.866151 201.782495 
L 231.506189 201.782495 
L 231.606377 190.285307 
L 231.83913 190.285307 
L 231.8502 182.620515 
L 232.020972 182.620515 
L 232.123993 174.955723 
L 232.213745 174.955723 
L 232.213745 171.123327 
L 232.533112 171.123327 
L 232.533112 167.290931 
L 233.094039 167.290931 
L 233.094039 163.458535 
L 233.518255 163.458535 
L 233.621462 155.793743 
L 235.005193 155.793743 
L 235.005193 151.961347 
L 236.037522 151.961347 
L 236.037522 148.12895 
L 236.837825 148.12895 
L 236.837825 144.296554 
L 237.457555 144.296554 
L 237.457555 140.464158 
L 237.594765 140.464158 
L 237.594765 136.631762 
L 237.708994 136.631762 
L 237.708994 132.799366 
L 238.608531 132.799366 
L 238.608531 128.96697 
L 239.107811 128.96697 
L 239.107811 125.134574 
L 239.42028 125.134574 
L 239.456684 117.469782 
L 239.857222 117.469782 
L 239.857222 113.637386 
L 240.608085 113.637386 
L 240.608085 109.80499 
L 240.952023 109.80499 
L 240.952023 105.972594 
L 241.34998 105.972594 
L 241.36216 98.307802 
L 241.899223 98.307802 
L 241.941081 90.64301 
L 242.250423 90.64301 
L 242.250423 86.810614 
L 243.248149 86.810614 
L 243.248149 82.978218 
L 243.661626 82.978218 
L 243.661626 79.145822 
L 244.324009 79.145822 
L 244.324009 75.313426 
L 245.75936 75.313426 
L 245.75936 71.48103 
L 246.357018 71.48103 
L 246.448073 63.816238 
L 247.521873 63.816238 
L 247.521873 59.983842 
L 247.880028 59.983842 
L 247.880028 56.151446 
L 248.116205 56.151446 
L 248.116205 52.31905 
L 248.431207 52.31905 
L 248.431207 48.486653 
L 248.693107 48.486653 
L 248.693107 44.654257 
L 249.403091 44.654257 
L 249.403091 40.821861 
L 249.957106 40.821861 
L 249.957106 36.989465 
L 250.508333 36.989465 
L 250.508333 33.157069 
L 250.890164 33.157069 
L 250.890164 29.324673 
L 255.212766 29.324673 
L 255.212766 25.492277 
L 255.470866 25.492277 
L 255.470866 21.659881 
L 255.824349 21.659881 
L 255.824349 17.827485 
L 256.835328 17.827485 
L 256.835328 13.995089 
L 257.56172 13.995089 
L 257.56172 10.162693 
L 257.95318 10.162693 
L 257.95318 6.330297 
L 257.95318 6.330297 
L 460.8 6.330297 
L 460.8 6.330297 
" clip-path="url(#pcda288df62)" style="fill: none; stroke: #000000; stroke-width: 1.5; stroke-linecap: square"/>
   </g>
   <g id="line2d_25">
    <path d="M 213.433186 293.76 
L 213.433186 289.927604 
L 219.161213 289.927604 
L 219.161213 286.095208 
L 219.800466 286.095208 
L 219.800466 282.262812 
L 220.434392 282.262812 
L 220.434392 278.430416 
L 220.860413 278.430416 
L 220.936395 270.765624 
L 221.86016 270.765624 
L 221.86016 266.933228 
L 222.112579 266.933228 
L 222.112579 263.100832 
L 223.179468 263.100832 
L 223.179468 259.268436 
L 223.620023 259.268436 
L 223.620023 255.43604 
L 224.285047 255.43604 
L 224.323585 243.938851 
L 224.538375 243.938851 
L 224.619245 232.441663 
L 225.101161 232.441663 
L 225.116823 224.776871 
L 225.259659 224.776871 
L 225.352597 217.112079 
L 226.021458 217.112079 
L 226.021458 213.279683 
L 226.210225 213.279683 
L 226.210225 209.447287 
L 226.562146 209.447287 
L 226.562146 205.614891 
L 226.92585 205.614891 
L 226.92585 201.782495 
L 227.838755 201.782495 
L 227.838755 197.950099 
L 228.012357 197.950099 
L 228.052263 190.285307 
L 228.896896 190.285307 
L 228.959978 182.620515 
L 229.455709 182.620515 
L 229.458244 174.955723 
L 230.239019 174.955723 
L 230.239019 171.123327 
L 230.567381 171.123327 
L 230.567381 167.290931 
L 230.866151 167.290931 
L 230.866151 163.458535 
L 231.30019 163.458535 
L 231.30019 159.626139 
L 231.81008 159.626139 
L 231.8502 148.12895 
L 232.123993 148.12895 
L 232.123993 144.296554 
L 232.533112 144.296554 
L 232.533112 140.464158 
L 233.094039 140.464158 
L 233.094039 136.631762 
L 233.518255 136.631762 
L 233.518255 132.799366 
L 233.758394 132.799366 
L 233.758394 128.96697 
L 234.565806 128.96697 
L 234.565806 125.134574 
L 235.005193 125.134574 
L 235.005193 121.302178 
L 235.945122 121.302178 
L 236.037522 109.80499 
L 236.120353 109.80499 
L 236.120353 105.972594 
L 236.744383 105.972594 
L 236.809117 98.307802 
L 236.907145 98.307802 
L 236.907145 94.475406 
L 237.457555 94.475406 
L 237.457555 90.64301 
L 237.885214 90.64301 
L 237.885214 86.810614 
L 238.608531 86.810614 
L 238.608531 82.978218 
L 238.988271 82.978218 
L 238.988271 79.145822 
L 239.42028 79.145822 
L 239.42028 75.313426 
L 240.393534 75.313426 
L 240.474394 67.648634 
L 241.941081 67.648634 
L 241.941081 63.816238 
L 242.230367 63.816238 
L 242.230367 59.983842 
L 243.441698 59.983842 
L 243.441698 56.151446 
L 244.491382 56.151446 
L 244.491382 52.31905 
L 245.267726 52.31905 
L 245.267726 48.486653 
L 246.357018 48.486653 
L 246.357018 44.654257 
L 247.851459 44.654257 
L 247.880028 36.989465 
L 248.431207 36.989465 
L 248.431207 33.157069 
L 248.693107 33.157069 
L 248.693107 29.324673 
L 249.403091 29.324673 
L 249.403091 25.492277 
L 250.201555 25.492277 
L 250.201555 21.659881 
L 250.508333 21.659881 
L 250.508333 17.827485 
L 251.725881 17.827485 
L 251.725881 13.995089 
L 252.500414 13.995089 
L 252.500414 10.162693 
L 255.284459 10.162693 
L 255.284459 6.330297 
L 255.284459 6.330297 
L 460.8 6.330297 
L 460.8 6.330297 
" clip-path="url(#pcda288df62)" style="fill: none; stroke: #00bfbf; stroke-width: 1.5; stroke-linecap: square"/>
   </g>
   <g id="line2d_26">
    <path d="M 193.09142 293.76 
L 193.09142 289.927604 
L 208.533438 289.927604 
L 208.533438 286.095208 
L 210.911597 286.095208 
L 210.911597 282.262812 
L 212.473831 282.262812 
L 212.473831 278.430416 
L 213.433186 278.430416 
L 213.433186 274.59802 
L 213.633169 274.59802 
L 213.633169 270.765624 
L 213.791114 270.765624 
L 213.835519 263.100832 
L 214.370925 263.100832 
L 214.370925 259.268436 
L 214.525632 259.268436 
L 214.525632 255.43604 
L 215.262224 255.43604 
L 215.262224 251.603644 
L 215.901004 251.603644 
L 215.901004 247.771248 
L 216.238336 247.771248 
L 216.238336 243.938851 
L 216.440737 243.938851 
L 216.440737 240.106455 
L 217.152034 240.106455 
L 217.152034 236.274059 
L 217.390068 236.274059 
L 217.390068 232.441663 
L 217.739313 232.441663 
L 217.739313 228.609267 
L 218.036092 228.609267 
L 218.052564 220.944475 
L 218.415259 220.944475 
L 218.415259 217.112079 
L 218.601006 217.112079 
L 218.601006 213.279683 
L 218.791126 213.279683 
L 218.791126 209.447287 
L 218.979772 209.447287 
L 218.979772 205.614891 
L 219.161213 205.614891 
L 219.161213 201.782495 
L 219.302223 201.782495 
L 219.302223 197.950099 
L 219.469573 197.950099 
L 219.527197 190.285307 
L 219.610689 190.285307 
L 219.610689 186.452911 
L 219.746262 186.452911 
L 219.768928 178.788119 
L 219.965043 178.788119 
L 219.965043 174.955723 
L 220.29489 174.955723 
L 220.29489 171.123327 
L 220.422943 171.123327 
L 220.434392 163.458535 
L 221.0901 163.458535 
L 221.0901 159.626139 
L 221.804892 159.626139 
L 221.804892 155.793743 
L 221.918531 155.793743 
L 221.918531 151.961347 
L 222.468819 151.961347 
L 222.468819 148.12895 
L 223.547812 148.12895 
L 223.547812 144.296554 
L 223.896418 144.296554 
L 223.896418 140.464158 
L 224.049153 140.464158 
L 224.049153 136.631762 
L 224.551747 136.631762 
L 224.562181 128.96697 
L 224.758176 128.96697 
L 224.758176 125.134574 
L 225.83484 125.134574 
L 225.83484 121.302178 
L 226.055671 121.302178 
L 226.158419 113.637386 
L 227.358903 113.637386 
L 227.358903 109.80499 
L 227.757751 109.80499 
L 227.757751 105.972594 
L 227.916107 105.972594 
L 227.998358 98.307802 
L 228.037231 98.307802 
L 228.037231 94.475406 
L 229.432852 94.475406 
L 229.458244 86.810614 
L 229.896163 86.810614 
L 229.896163 82.978218 
L 230.12922 82.978218 
L 230.12922 79.145822 
L 231.350206 79.145822 
L 231.350206 75.313426 
L 231.687875 75.313426 
L 231.687875 71.48103 
L 233.758394 71.48103 
L 233.758394 67.648634 
L 234.565806 67.648634 
L 234.565806 63.816238 
L 239.086163 63.816238 
L 239.086163 59.983842 
L 240.788308 59.983842 
L 240.788308 56.151446 
L 241.354448 56.151446 
L 241.354448 52.31905 
L 244.100999 52.31905 
L 244.105769 44.654257 
L 244.491382 44.654257 
L 244.513831 36.989465 
L 244.736315 36.989465 
L 244.736315 33.157069 
L 245.051946 33.157069 
L 245.051946 29.324673 
L 246.150601 29.324673 
L 246.150601 25.492277 
L 246.357018 25.492277 
L 246.357018 21.659881 
L 246.585107 21.659881 
L 246.585107 17.827485 
L 246.975665 17.827485 
L 246.975665 13.995089 
L 248.071683 13.995089 
L 248.071683 10.162693 
L 248.238787 10.162693 
L 248.238787 6.330297 
L 248.238787 6.330297 
L 460.8 6.330297 
L 460.8 6.330297 
" clip-path="url(#pcda288df62)" style="fill: none; stroke: #bf00bf; stroke-width: 1.5; stroke-linecap: square"/>
   </g>
   <g id="line2d_27">
    <path d="M 171.999663 293.76 
L 171.999663 289.927604 
L 173.063439 289.927604 
L 173.063439 286.095208 
L 173.986384 286.095208 
L 173.986384 282.262812 
L 179.348936 282.262812 
L 179.348936 278.430416 
L 180.793866 278.430416 
L 180.793866 274.59802 
L 181.541607 274.59802 
L 181.541607 270.765624 
L 182.333899 270.765624 
L 182.333899 266.933228 
L 182.796438 266.933228 
L 182.796438 263.100832 
L 184.049002 263.100832 
L 184.049002 259.268436 
L 184.435338 259.268436 
L 184.435338 255.43604 
L 186.150762 255.43604 
L 186.150762 251.603644 
L 187.023889 251.603644 
L 187.023889 247.771248 
L 188.353601 247.771248 
L 188.353601 243.938851 
L 188.623291 243.938851 
L 188.623291 240.106455 
L 189.055155 240.106455 
L 189.055155 236.274059 
L 190.465597 236.274059 
L 190.46613 228.609267 
L 190.792732 228.609267 
L 190.792732 224.776871 
L 190.94789 224.776871 
L 190.94789 220.944475 
L 191.383896 220.944475 
L 191.383896 217.112079 
L 191.801721 217.112079 
L 191.801721 213.279683 
L 192.629388 213.279683 
L 192.629388 209.447287 
L 193.448977 209.447287 
L 193.448977 205.614891 
L 194.284319 205.614891 
L 194.284319 201.782495 
L 195.383841 201.782495 
L 195.408089 190.285307 
L 196.116701 190.285307 
L 196.116701 186.452911 
L 197.240341 186.452911 
L 197.240341 182.620515 
L 197.609556 182.620515 
L 197.609556 178.788119 
L 198.066651 178.788119 
L 198.066651 174.955723 
L 198.712186 174.955723 
L 198.712186 171.123327 
L 199.223406 171.123327 
L 199.223406 167.290931 
L 199.679885 167.290931 
L 199.679885 163.458535 
L 199.896385 163.458535 
L 199.896385 159.626139 
L 201.903967 159.626139 
L 201.903967 155.793743 
L 202.555543 155.793743 
L 202.555543 151.961347 
L 202.891305 151.961347 
L 202.891305 148.12895 
L 203.177764 148.12895 
L 203.177764 144.296554 
L 204.281549 144.296554 
L 204.380017 136.631762 
L 204.84346 136.631762 
L 204.84346 132.799366 
L 205.249427 132.799366 
L 205.249427 128.96697 
L 205.481669 128.96697 
L 205.481669 125.134574 
L 205.962825 125.134574 
L 205.962825 121.302178 
L 207.175006 121.302178 
L 207.175006 117.469782 
L 208.205771 117.469782 
L 208.205771 113.637386 
L 208.799489 113.637386 
L 208.799489 109.80499 
L 210.546071 109.80499 
L 210.546071 105.972594 
L 211.255912 105.972594 
L 211.255912 102.140198 
L 212.763474 102.140198 
L 212.763474 98.307802 
L 213.761978 98.307802 
L 213.761978 94.475406 
L 214.113966 94.475406 
L 214.113966 90.64301 
L 214.508441 90.64301 
L 214.508441 86.810614 
L 215.542139 86.810614 
L 215.542139 82.978218 
L 218.046186 82.978218 
L 218.046186 79.145822 
L 218.483814 79.145822 
L 218.503423 71.48103 
L 219.193071 71.48103 
L 219.193071 67.648634 
L 220.861827 67.648634 
L 220.861827 63.816238 
L 221.37281 63.816238 
L 221.37281 59.983842 
L 222.348031 59.983842 
L 222.348031 56.151446 
L 222.723043 56.151446 
L 222.723043 52.31905 
L 223.156044 52.31905 
L 223.156044 48.486653 
L 224.009142 48.486653 
L 224.009142 44.654257 
L 226.594799 44.654257 
L 226.62254 36.989465 
L 227.377412 36.989465 
L 227.377412 33.157069 
L 230.126347 33.157069 
L 230.126347 29.324673 
L 231.405236 29.324673 
L 231.405236 25.492277 
L 231.784803 25.492277 
L 231.784803 21.659881 
L 232.472718 21.659881 
L 232.472718 17.827485 
L 234.963474 17.827485 
L 234.963474 13.995089 
L 235.994637 13.995089 
L 235.994637 10.162693 
L 237.553137 10.162693 
L 237.553137 6.330297 
L 237.553137 6.330297 
L 460.8 6.330297 
L 460.8 6.330297 
" clip-path="url(#pcda288df62)" style="fill: none; stroke: #000000; stroke-width: 1.5; stroke-linecap: square"/>
   </g>
   <g id="line2d_28">
    <path d="M 148.640253 293.76 
L 148.640253 289.927604 
L 160.389976 289.927604 
L 160.389976 286.095208 
L 163.047134 286.095208 
L 163.047134 282.262812 
L 166.373992 282.262812 
L 166.373992 278.430416 
L 168.420872 278.430416 
L 168.420872 274.59802 
L 171.162621 274.59802 
L 171.224297 266.933228 
L 172.095226 266.933228 
L 172.095226 263.100832 
L 172.357261 263.100832 
L 172.357261 259.268436 
L 174.484227 259.268436 
L 174.484227 255.43604 
L 174.909462 255.43604 
L 174.909462 251.603644 
L 175.476223 251.603644 
L 175.476223 247.771248 
L 175.800647 247.771248 
L 175.800647 243.938851 
L 176.969067 243.938851 
L 176.969067 240.106455 
L 178.0921 240.106455 
L 178.0921 236.274059 
L 178.568374 236.274059 
L 178.568374 232.441663 
L 179.083651 232.441663 
L 179.1095 224.776871 
L 179.35075 224.776871 
L 179.35075 220.944475 
L 181.225915 220.944475 
L 181.32525 213.279683 
L 182.874813 213.279683 
L 182.874813 209.447287 
L 183.858499 209.447287 
L 183.858499 205.614891 
L 185.76072 205.614891 
L 185.76072 201.782495 
L 186.097006 201.782495 
L 186.097006 197.950099 
L 187.074105 197.950099 
L 187.074105 194.117703 
L 187.25111 194.117703 
L 187.25111 190.285307 
L 188.344275 190.285307 
L 188.344275 186.452911 
L 189.17714 186.452911 
L 189.17714 182.620515 
L 191.148011 182.620515 
L 191.167761 174.955723 
L 191.265288 174.955723 
L 191.265288 171.123327 
L 192.64164 171.123327 
L 192.64164 167.290931 
L 192.894655 167.290931 
L 192.894655 163.458535 
L 193.703709 163.458535 
L 193.703709 159.626139 
L 194.91082 159.626139 
L 194.91082 155.793743 
L 195.443373 155.793743 
L 195.443373 151.961347 
L 195.800203 151.961347 
L 195.854638 144.296554 
L 195.93147 144.296554 
L 195.93147 140.464158 
L 199.098999 140.464158 
L 199.098999 136.631762 
L 199.699496 136.631762 
L 199.699496 132.799366 
L 201.487226 132.799366 
L 201.487226 128.96697 
L 201.617728 128.96697 
L 201.617728 125.134574 
L 203.990704 125.134574 
L 204.076883 117.469782 
L 204.312718 117.469782 
L 204.312718 113.637386 
L 204.785225 113.637386 
L 204.785225 109.80499 
L 205.92196 109.80499 
L 205.92196 105.972594 
L 206.482934 105.972594 
L 206.482934 102.140198 
L 208.297568 102.140198 
L 208.297568 98.307802 
L 209.414272 98.307802 
L 209.414638 90.64301 
L 209.887292 90.64301 
L 209.922177 82.978218 
L 211.156059 82.978218 
L 211.156059 79.145822 
L 211.975804 79.145822 
L 211.975804 75.313426 
L 212.339705 75.313426 
L 212.339705 71.48103 
L 212.988815 71.48103 
L 212.988815 67.648634 
L 213.860373 67.648634 
L 213.861196 59.983842 
L 217.014471 59.983842 
L 217.014526 48.486653 
L 218.286151 48.486653 
L 218.286151 44.654257 
L 218.659598 44.654257 
L 218.715852 36.989465 
L 221.46085 36.989465 
L 221.464159 29.324673 
L 221.906358 29.324673 
L 221.906358 25.492277 
L 225.906572 25.492277 
L 225.906572 21.659881 
L 228.364702 21.659881 
L 228.364702 17.827485 
L 230.750706 17.827485 
L 230.771401 10.162693 
L 234.099279 10.162693 
L 234.099279 6.330297 
L 234.099279 6.330297 
L 460.8 6.330297 
L 460.8 6.330297 
" clip-path="url(#pcda288df62)" style="fill: none; stroke: #00bfbf; stroke-width: 1.5; stroke-linecap: square"/>
   </g>
   <g id="line2d_29">
    <path d="M 145.452682 293.76 
L 145.452682 289.927604 
L 155.458343 289.927604 
L 155.458343 286.095208 
L 156.068708 286.095208 
L 156.068708 282.262812 
L 158.89043 282.262812 
L 158.89043 278.430416 
L 162.785067 278.430416 
L 162.852031 270.765624 
L 164.770839 270.765624 
L 164.770839 266.933228 
L 165.853413 266.933228 
L 165.931589 259.268436 
L 166.373168 259.268436 
L 166.373168 255.43604 
L 166.784769 255.43604 
L 166.784769 251.603644 
L 168.393152 251.603644 
L 168.393152 247.771248 
L 170.141036 247.771248 
L 170.141036 243.938851 
L 172.090717 243.938851 
L 172.090717 240.106455 
L 173.007226 240.106455 
L 173.007226 236.274059 
L 174.387223 236.274059 
L 174.387223 232.441663 
L 175.18616 232.441663 
L 175.18616 228.609267 
L 175.505877 228.609267 
L 175.505877 224.776871 
L 176.420241 224.776871 
L 176.420241 220.944475 
L 176.56799 220.944475 
L 176.56799 217.112079 
L 177.617665 217.112079 
L 177.617665 213.279683 
L 178.047537 213.279683 
L 178.047537 209.447287 
L 178.624134 209.447287 
L 178.624134 205.614891 
L 179.34682 205.614891 
L 179.34682 201.782495 
L 180.928349 201.782495 
L 180.928349 197.950099 
L 181.599128 197.950099 
L 181.599128 194.117703 
L 181.849354 194.117703 
L 181.849354 190.285307 
L 182.618699 190.285307 
L 182.618699 186.452911 
L 184.124072 186.452911 
L 184.124072 182.620515 
L 184.982226 182.620515 
L 184.982226 178.788119 
L 185.508253 178.788119 
L 185.508253 174.955723 
L 185.651731 174.955723 
L 185.651731 171.123327 
L 187.064533 171.123327 
L 187.064533 167.290931 
L 187.245977 167.290931 
L 187.245977 163.458535 
L 189.083396 163.458535 
L 189.173849 155.793743 
L 189.924775 155.793743 
L 189.924775 151.961347 
L 190.287637 151.961347 
L 190.287637 148.12895 
L 190.824848 148.12895 
L 190.824848 144.296554 
L 192.377667 144.296554 
L 192.377667 140.464158 
L 193.60553 140.464158 
L 193.703709 132.799366 
L 194.540451 132.799366 
L 194.540451 128.96697 
L 194.782907 128.96697 
L 194.782907 125.134574 
L 195.285894 125.134574 
L 195.375126 117.469782 
L 195.808164 117.469782 
L 195.808164 113.637386 
L 196.711019 113.637386 
L 196.711019 109.80499 
L 196.865151 109.80499 
L 196.865151 105.972594 
L 197.495836 105.972594 
L 197.495836 102.140198 
L 199.698826 102.140198 
L 199.725181 94.475406 
L 200.07424 94.475406 
L 200.07424 90.64301 
L 203.990704 90.64301 
L 203.990704 86.810614 
L 206.180809 86.810614 
L 206.180809 82.978218 
L 206.458692 82.978218 
L 206.458692 79.145822 
L 209.414269 79.145822 
L 209.414269 71.48103 
L 210.346099 71.48103 
L 210.346099 67.648634 
L 210.86022 67.648634 
L 210.86022 63.816238 
L 211.448337 63.816238 
L 211.448337 59.983842 
L 211.586339 59.983842 
L 211.586339 56.151446 
L 213.860102 56.151446 
L 213.860102 36.989465 
L 217.01447 36.989465 
L 217.01447 25.492277 
L 221.460294 25.492277 
L 221.460294 17.827485 
L 225.906124 17.827485 
L 225.906124 13.995089 
L 228.106414 13.995089 
L 228.106414 10.162693 
L 229.060477 10.162693 
L 229.060477 6.330297 
L 229.060477 6.330297 
L 460.8 6.330297 
L 460.8 6.330297 
" clip-path="url(#pcda288df62)" style="fill: none; stroke: #bf00bf; stroke-width: 1.5; stroke-linecap: square"/>
   </g>
   <g id="patch_3">
    <path d="M 0 293.76 
L 0 3.456 
" style="fill: none; stroke: #000000; stroke-width: 0.8; stroke-linejoin: miter; stroke-linecap: square"/>
   </g>
   <g id="patch_4">
    <path d="M 460.8 293.76 
L 460.8 3.456 
" style="fill: none; stroke: #000000; stroke-width: 0.8; stroke-linejoin: miter; stroke-linecap: square"/>
   </g>
   <g id="patch_5">
    <path d="M 0 293.76 
L 460.8 293.76 
" style="fill: none; stroke: #000000; stroke-width: 0.8; stroke-linejoin: miter; stroke-linecap: square"/>
   </g>
   <g id="patch_6">
    <path d="M 0 3.456 
L 460.8 3.456 
" style="fill: none; stroke: #000000; stroke-width: 0.8; stroke-linejoin: miter; stroke-linecap: square"/>
   </g>
   <g id="text_6">
    <!-- {f15-f19}, 5-D -->
    <g transform="translate(305.884 287.95392)scale(0.2 -0.2)">
     <defs>
      <path id="DejaVuSans-7b" d="M 3272 -594 
L 3272 -1044 
L 3078 -1044 
Q 2300 -1044 2036 -812 
Q 1772 -581 1772 109 
L 1772 856 
Q 1772 1328 1603 1509 
Q 1434 1691 991 1691 
L 800 1691 
L 800 2138 
L 991 2138 
Q 1438 2138 1605 2317 
Q 1772 2497 1772 2963 
L 1772 3713 
Q 1772 4403 2036 4633 
Q 2300 4863 3078 4863 
L 3272 4863 
L 3272 4416 
L 3059 4416 
Q 2619 4416 2484 4278 
Q 2350 4141 2350 3700 
L 2350 2925 
Q 2350 2434 2208 2212 
Q 2066 1991 1722 1913 
Q 2069 1828 2209 1606 
Q 2350 1384 2350 897 
L 2350 122 
Q 2350 -319 2484 -456 
Q 2619 -594 3059 -594 
L 3272 -594 
z
" transform="scale(0.015625)"/>
      <path id="DejaVuSans-35" d="M 691 4666 
L 3169 4666 
L 3169 4134 
L 1269 4134 
L 1269 2991 
Q 1406 3038 1543 3061 
Q 1681 3084 1819 3084 
Q 2600 3084 3056 2656 
Q 3513 2228 3513 1497 
Q 3513 744 3044 326 
Q 2575 -91 1722 -91 
Q 1428 -91 1123 -41 
Q 819 9 494 109 
L 494 744 
Q 775 591 1075 516 
Q 1375 441 1709 441 
Q 2250 441 2565 725 
Q 2881 1009 2881 1497 
Q 2881 1984 2565 2268 
Q 2250 2553 1709 2553 
Q 1456 2553 1204 2497 
Q 953 2441 691 2322 
L 691 4666 
z
" transform="scale(0.015625)"/>
      <path id="DejaVuSans-39" d="M 703 97 
L 703 672 
Q 941 559 1184 500 
Q 1428 441 1663 441 
Q 2288 441 2617 861 
Q 2947 1281 2994 2138 
Q 2813 1869 2534 1725 
Q 2256 1581 1919 1581 
Q 1219 1581 811 2004 
Q 403 2428 403 3163 
Q 403 3881 828 4315 
Q 1253 4750 1959 4750 
Q 2769 4750 3195 4129 
Q 3622 3509 3622 2328 
Q 3622 1225 3098 567 
Q 2575 -91 1691 -91 
Q 1453 -91 1209 -44 
Q 966 3 703 97 
z
M 1959 2075 
Q 2384 2075 2632 2365 
Q 2881 2656 2881 3163 
Q 2881 3666 2632 3958 
Q 2384 4250 1959 4250 
Q 1534 4250 1286 3958 
Q 1038 3666 1038 3163 
Q 1038 2656 1286 2365 
Q 1534 2075 1959 2075 
z
" transform="scale(0.015625)"/>
      <path id="DejaVuSans-7d" d="M 800 -594 
L 1019 -594 
Q 1456 -594 1589 -459 
Q 1722 -325 1722 122 
L 1722 897 
Q 1722 1384 1862 1606 
Q 2003 1828 2350 1913 
Q 2003 1991 1862 2212 
Q 1722 2434 1722 2925 
L 1722 3700 
Q 1722 4144 1589 4280 
Q 1456 4416 1019 4416 
L 800 4416 
L 800 4863 
L 997 4863 
Q 1775 4863 2036 4633 
Q 2297 4403 2297 3713 
L 2297 2963 
Q 2297 2497 2465 2317 
Q 2634 2138 3078 2138 
L 3272 2138 
L 3272 1691 
L 3078 1691 
Q 2634 1691 2465 1509 
Q 2297 1328 2297 856 
L 2297 109 
Q 2297 -581 2036 -812 
Q 1775 -1044 997 -1044 
L 800 -1044 
L 800 -594 
z
" transform="scale(0.015625)"/>
      <path id="DejaVuSans-2c" d="M 750 794 
L 1409 794 
L 1409 256 
L 897 -744 
L 494 -744 
L 750 256 
L 750 794 
z
" transform="scale(0.015625)"/>
     </defs>
     <use xlink:href="#DejaVuSans-7b"/>
     <use xlink:href="#DejaVuSans-66" x="63.623047"/>
     <use xlink:href="#DejaVuSans-31" x="98.828125"/>
     <use xlink:href="#DejaVuSans-35" x="162.451172"/>
     <use xlink:href="#DejaVuSans-2d" x="226.074219"/>
     <use xlink:href="#DejaVuSans-66" x="262.158203"/>
     <use xlink:href="#DejaVuSans-31" x="297.363281"/>
     <use xlink:href="#DejaVuSans-39" x="360.986328"/>
     <use xlink:href="#DejaVuSans-7d" x="424.609375"/>
     <use xlink:href="#DejaVuSans-2c" x="488.232422"/>
     <use xlink:href="#DejaVuSans-20" x="520.019531"/>
     <use xlink:href="#DejaVuSans-35" x="551.806641"/>
     <use xlink:href="#DejaVuSans-2d" x="615.429688"/>
     <use xlink:href="#DejaVuSans-44" x="651.513672"/>
    </g>
   </g>
   <g id="text_7">
    <!-- v2.6 -->
    <g style="fill: #808080" transform="translate(219.489063 288.777272)scale(0.1 -0.1)">
     <defs>
      <path id="DejaVuSans-76" d="M 191 3500 
L 800 3500 
L 1894 563 
L 2988 3500 
L 3597 3500 
L 2284 0 
L 1503 0 
L 191 3500 
z
" transform="scale(0.015625)"/>
      <path id="DejaVuSans-32" d="M 1228 531 
L 3431 531 
L 3431 0 
L 469 0 
L 469 531 
Q 828 903 1448 1529 
Q 2069 2156 2228 2338 
Q 2531 2678 2651 2914 
Q 2772 3150 2772 3378 
Q 2772 3750 2511 3984 
Q 2250 4219 1831 4219 
Q 1534 4219 1204 4116 
Q 875 4013 500 3803 
L 500 4441 
Q 881 4594 1212 4672 
Q 1544 4750 1819 4750 
Q 2544 4750 2975 4387 
Q 3406 4025 3406 3419 
Q 3406 3131 3298 2873 
Q 3191 2616 2906 2266 
Q 2828 2175 2409 1742 
Q 1991 1309 1228 531 
z
" transform="scale(0.015625)"/>
      <path id="DejaVuSans-2e" d="M 684 794 
L 1344 794 
L 1344 0 
L 684 0 
L 684 794 
z
" transform="scale(0.015625)"/>
      <path id="DejaVuSans-36" d="M 2113 2584 
Q 1688 2584 1439 2293 
Q 1191 2003 1191 1497 
Q 1191 994 1439 701 
Q 1688 409 2113 409 
Q 2538 409 2786 701 
Q 3034 994 3034 1497 
Q 3034 2003 2786 2293 
Q 2538 2584 2113 2584 
z
M 3366 4563 
L 3366 3988 
Q 3128 4100 2886 4159 
Q 2644 4219 2406 4219 
Q 1781 4219 1451 3797 
Q 1122 3375 1075 2522 
Q 1259 2794 1537 2939 
Q 1816 3084 2150 3084 
Q 2853 3084 3261 2657 
Q 3669 2231 3669 1497 
Q 3669 778 3244 343 
Q 2819 -91 2113 -91 
Q 1303 -91 875 529 
Q 447 1150 447 2328 
Q 447 3434 972 4092 
Q 1497 4750 2381 4750 
Q 2619 4750 2861 4703 
Q 3103 4656 3366 4563 
z
" transform="scale(0.015625)"/>
     </defs>
     <use xlink:href="#DejaVuSans-76"/>
     <use xlink:href="#DejaVuSans-32" x="59.179688"/>
     <use xlink:href="#DejaVuSans-2e" x="122.802734"/>
     <use xlink:href="#DejaVuSans-36" x="154.589844"/>
    </g>
   </g>
  </g>
 </g>
 <defs>
  <clipPath id="pcda288df62">
   <rect x="0" y="3.456" width="460.8" height="290.304"/>
  </clipPath>
 </defs>
</svg>
