<?xml version="1.0" encoding="utf-8" standalone="no"?>
<!DOCTYPE svg PUBLIC "-//W3C//DTD SVG 1.1//EN"
  "http://www.w3.org/Graphics/SVG/1.1/DTD/svg11.dtd">
<svg xmlns:xlink="http://www.w3.org/1999/xlink" width="460.8pt" height="345.6pt" viewBox="0 0 460.8 345.6" xmlns="http://www.w3.org/2000/svg" version="1.1">
 <metadata>
  <rdf:RDF xmlns:dc="http://purl.org/dc/elements/1.1/" xmlns:cc="http://creativecommons.org/ns#" xmlns:rdf="http://www.w3.org/1999/02/22-rdf-syntax-ns#">
   <cc:Work>
    <dc:type rdf:resource="http://purl.org/dc/dcmitype/StillImage"/>
    <dc:date>2024-05-29T07:56:27.553887</dc:date>
    <dc:format>image/svg+xml</dc:format>
    <dc:creator>
     <cc:Agent>
      <dc:title>Matplotlib v3.5.1, https://matplotlib.org/</dc:title>
     </cc:Agent>
    </dc:creator>
   </cc:Work>
  </rdf:RDF>
 </metadata>
 <defs>
  <style type="text/css">*{stroke-linejoin: round; stroke-linecap: butt}</style>
 </defs>
 <g id="figure_1">
  <g id="patch_1">
   <path d="M 0 345.6 
L 460.8 345.6 
L 460.8 0 
L 0 0 
z
" style="fill: #ffffff"/>
  </g>
  <g id="axes_1">
   <g id="patch_2">
    <path d="M 0 293.76 
L 460.8 293.76 
L 460.8 3.456 
L 0 3.456 
z
" style="fill: #ffffff"/>
   </g>
   <g id="matplotlib.axis_1">
    <g id="xtick_1">
     <g id="line2d_1">
      <path d="M 100.880188 293.76 
L 100.880188 3.456 
" clip-path="url(#pc2d9ae91ef)" style="fill: none; stroke: #b0b0b0; stroke-width: 0.8; stroke-linecap: square"/>
     </g>
     <g id="line2d_2">
      <defs>
       <path id="m53372d18d2" d="M 0 0 
L 0 3.5 
" style="stroke: #000000; stroke-width: 0.8"/>
      </defs>
      <g>
       <use xlink:href="#m53372d18d2" x="100.880188" y="293.76" style="stroke: #000000; stroke-width: 0.8"/>
      </g>
     </g>
     <g id="text_1">
      <!-- -4 -->
      <g transform="translate(90.909876 315.956875)scale(0.2 -0.2)">
       <defs>
        <path id="DejaVuSans-2d" d="M 313 2009 
L 1997 2009 
L 1997 1497 
L 313 1497 
L 313 2009 
z
" transform="scale(0.015625)"/>
        <path id="DejaVuSans-34" d="M 2419 4116 
L 825 1625 
L 2419 1625 
L 2419 4116 
z
M 2253 4666 
L 3047 4666 
L 3047 1625 
L 3713 1625 
L 3713 1100 
L 3047 1100 
L 3047 0 
L 2419 0 
L 2419 1100 
L 313 1100 
L 313 1709 
L 2253 4666 
z
" transform="scale(0.015625)"/>
       </defs>
       <use xlink:href="#DejaVuSans-2d"/>
       <use xlink:href="#DejaVuSans-34" x="36.083984"/>
      </g>
     </g>
    </g>
    <g id="xtick_2">
     <g id="line2d_3">
      <path d="M 201.86948 293.76 
L 201.86948 3.456 
" clip-path="url(#pc2d9ae91ef)" style="fill: none; stroke: #b0b0b0; stroke-width: 0.8; stroke-linecap: square"/>
     </g>
     <g id="line2d_4">
      <g>
       <use xlink:href="#m53372d18d2" x="201.86948" y="293.76" style="stroke: #000000; stroke-width: 0.8"/>
      </g>
     </g>
     <g id="text_2">
      <!-- 0 -->
      <g transform="translate(195.50698 315.956875)scale(0.2 -0.2)">
       <defs>
        <path id="DejaVuSans-30" d="M 2034 4250 
Q 1547 4250 1301 3770 
Q 1056 3291 1056 2328 
Q 1056 1369 1301 889 
Q 1547 409 2034 409 
Q 2525 409 2770 889 
Q 3016 1369 3016 2328 
Q 3016 3291 2770 3770 
Q 2525 4250 2034 4250 
z
M 2034 4750 
Q 2819 4750 3233 4129 
Q 3647 3509 3647 2328 
Q 3647 1150 3233 529 
Q 2819 -91 2034 -91 
Q 1250 -91 836 529 
Q 422 1150 422 2328 
Q 422 3509 836 4129 
Q 1250 4750 2034 4750 
z
" transform="scale(0.015625)"/>
       </defs>
       <use xlink:href="#DejaVuSans-30"/>
      </g>
     </g>
    </g>
    <g id="xtick_3">
     <g id="line2d_5">
      <path d="M 302.858771 293.76 
L 302.858771 3.456 
" clip-path="url(#pc2d9ae91ef)" style="fill: none; stroke: #b0b0b0; stroke-width: 0.8; stroke-linecap: square"/>
     </g>
     <g id="line2d_6">
      <g>
       <use xlink:href="#m53372d18d2" x="302.858771" y="293.76" style="stroke: #000000; stroke-width: 0.8"/>
      </g>
     </g>
     <g id="text_3">
      <!-- 4 -->
      <g transform="translate(296.496271 315.956875)scale(0.2 -0.2)">
       <use xlink:href="#DejaVuSans-34"/>
      </g>
     </g>
    </g>
    <g id="xtick_4">
     <g id="line2d_7">
      <path d="M 403.848063 293.76 
L 403.848063 3.456 
" clip-path="url(#pc2d9ae91ef)" style="fill: none; stroke: #b0b0b0; stroke-width: 0.8; stroke-linecap: square"/>
     </g>
     <g id="line2d_8">
      <g>
       <use xlink:href="#m53372d18d2" x="403.848063" y="293.76" style="stroke: #000000; stroke-width: 0.8"/>
      </g>
     </g>
     <g id="text_4">
      <!-- 8 -->
      <g transform="translate(397.485563 315.956875)scale(0.2 -0.2)">
       <defs>
        <path id="DejaVuSans-38" d="M 2034 2216 
Q 1584 2216 1326 1975 
Q 1069 1734 1069 1313 
Q 1069 891 1326 650 
Q 1584 409 2034 409 
Q 2484 409 2743 651 
Q 3003 894 3003 1313 
Q 3003 1734 2745 1975 
Q 2488 2216 2034 2216 
z
M 1403 2484 
Q 997 2584 770 2862 
Q 544 3141 544 3541 
Q 544 4100 942 4425 
Q 1341 4750 2034 4750 
Q 2731 4750 3128 4425 
Q 3525 4100 3525 3541 
Q 3525 3141 3298 2862 
Q 3072 2584 2669 2484 
Q 3125 2378 3379 2068 
Q 3634 1759 3634 1313 
Q 3634 634 3220 271 
Q 2806 -91 2034 -91 
Q 1263 -91 848 271 
Q 434 634 434 1313 
Q 434 1759 690 2068 
Q 947 2378 1403 2484 
z
M 1172 3481 
Q 1172 3119 1398 2916 
Q 1625 2713 2034 2713 
Q 2441 2713 2670 2916 
Q 2900 3119 2900 3481 
Q 2900 3844 2670 4047 
Q 2441 4250 2034 4250 
Q 1625 4250 1398 4047 
Q 1172 3844 1172 3481 
z
" transform="scale(0.015625)"/>
       </defs>
       <use xlink:href="#DejaVuSans-38"/>
      </g>
     </g>
    </g>
    <g id="text_5">
     <!-- log10 of Df -->
     <g transform="translate(175.214063 339.313125)scale(0.2 -0.2)">
      <defs>
       <path id="DejaVuSans-6c" d="M 603 4863 
L 1178 4863 
L 1178 0 
L 603 0 
L 603 4863 
z
" transform="scale(0.015625)"/>
       <path id="DejaVuSans-6f" d="M 1959 3097 
Q 1497 3097 1228 2736 
Q 959 2375 959 1747 
Q 959 1119 1226 758 
Q 1494 397 1959 397 
Q 2419 397 2687 759 
Q 2956 1122 2956 1747 
Q 2956 2369 2687 2733 
Q 2419 3097 1959 3097 
z
M 1959 3584 
Q 2709 3584 3137 3096 
Q 3566 2609 3566 1747 
Q 3566 888 3137 398 
Q 2709 -91 1959 -91 
Q 1206 -91 779 398 
Q 353 888 353 1747 
Q 353 2609 779 3096 
Q 1206 3584 1959 3584 
z
" transform="scale(0.015625)"/>
       <path id="DejaVuSans-67" d="M 2906 1791 
Q 2906 2416 2648 2759 
Q 2391 3103 1925 3103 
Q 1463 3103 1205 2759 
Q 947 2416 947 1791 
Q 947 1169 1205 825 
Q 1463 481 1925 481 
Q 2391 481 2648 825 
Q 2906 1169 2906 1791 
z
M 3481 434 
Q 3481 -459 3084 -895 
Q 2688 -1331 1869 -1331 
Q 1566 -1331 1297 -1286 
Q 1028 -1241 775 -1147 
L 775 -588 
Q 1028 -725 1275 -790 
Q 1522 -856 1778 -856 
Q 2344 -856 2625 -561 
Q 2906 -266 2906 331 
L 2906 616 
Q 2728 306 2450 153 
Q 2172 0 1784 0 
Q 1141 0 747 490 
Q 353 981 353 1791 
Q 353 2603 747 3093 
Q 1141 3584 1784 3584 
Q 2172 3584 2450 3431 
Q 2728 3278 2906 2969 
L 2906 3500 
L 3481 3500 
L 3481 434 
z
" transform="scale(0.015625)"/>
       <path id="DejaVuSans-31" d="M 794 531 
L 1825 531 
L 1825 4091 
L 703 3866 
L 703 4441 
L 1819 4666 
L 2450 4666 
L 2450 531 
L 3481 531 
L 3481 0 
L 794 0 
L 794 531 
z
" transform="scale(0.015625)"/>
       <path id="DejaVuSans-20" transform="scale(0.015625)"/>
       <path id="DejaVuSans-66" d="M 2375 4863 
L 2375 4384 
L 1825 4384 
Q 1516 4384 1395 4259 
Q 1275 4134 1275 3809 
L 1275 3500 
L 2222 3500 
L 2222 3053 
L 1275 3053 
L 1275 0 
L 697 0 
L 697 3053 
L 147 3053 
L 147 3500 
L 697 3500 
L 697 3744 
Q 697 4328 969 4595 
Q 1241 4863 1831 4863 
L 2375 4863 
z
" transform="scale(0.015625)"/>
       <path id="DejaVuSans-44" d="M 1259 4147 
L 1259 519 
L 2022 519 
Q 2988 519 3436 956 
Q 3884 1394 3884 2338 
Q 3884 3275 3436 3711 
Q 2988 4147 2022 4147 
L 1259 4147 
z
M 628 4666 
L 1925 4666 
Q 3281 4666 3915 4102 
Q 4550 3538 4550 2338 
Q 4550 1131 3912 565 
Q 3275 0 1925 0 
L 628 0 
L 628 4666 
z
" transform="scale(0.015625)"/>
      </defs>
      <use xlink:href="#DejaVuSans-6c"/>
      <use xlink:href="#DejaVuSans-6f" x="27.783203"/>
      <use xlink:href="#DejaVuSans-67" x="88.964844"/>
      <use xlink:href="#DejaVuSans-31" x="152.441406"/>
      <use xlink:href="#DejaVuSans-30" x="216.064453"/>
      <use xlink:href="#DejaVuSans-20" x="279.6875"/>
      <use xlink:href="#DejaVuSans-6f" x="311.474609"/>
      <use xlink:href="#DejaVuSans-66" x="372.65625"/>
      <use xlink:href="#DejaVuSans-20" x="407.861328"/>
      <use xlink:href="#DejaVuSans-44" x="439.648438"/>
      <use xlink:href="#DejaVuSans-66" x="516.650391"/>
     </g>
    </g>
   </g>
   <g id="matplotlib.axis_2">
    <g id="ytick_1">
     <g id="line2d_9">
      <path d="M 0 293.76 
L 460.8 293.76 
" clip-path="url(#pc2d9ae91ef)" style="fill: none; stroke: #b0b0b0; stroke-width: 0.8; stroke-linecap: square"/>
     </g>
     <g id="line2d_10">
      <defs>
       <path id="mbff04a743e" d="M 0 0 
L -3.5 0 
" style="stroke: #000000; stroke-width: 0.8"/>
      </defs>
      <g>
       <use xlink:href="#mbff04a743e" x="0" y="293.76" style="stroke: #000000; stroke-width: 0.8"/>
      </g>
     </g>
    </g>
    <g id="ytick_2">
     <g id="line2d_11">
      <path d="M 0 236.274059 
L 460.8 236.274059 
" clip-path="url(#pc2d9ae91ef)" style="fill: none; stroke: #b0b0b0; stroke-width: 0.8; stroke-linecap: square"/>
     </g>
     <g id="line2d_12">
      <g>
       <use xlink:href="#mbff04a743e" x="0" y="236.274059" style="stroke: #000000; stroke-width: 0.8"/>
      </g>
     </g>
    </g>
    <g id="ytick_3">
     <g id="line2d_13">
      <path d="M 0 178.788119 
L 460.8 178.788119 
" clip-path="url(#pc2d9ae91ef)" style="fill: none; stroke: #b0b0b0; stroke-width: 0.8; stroke-linecap: square"/>
     </g>
     <g id="line2d_14">
      <g>
       <use xlink:href="#mbff04a743e" x="0" y="178.788119" style="stroke: #000000; stroke-width: 0.8"/>
      </g>
     </g>
    </g>
    <g id="ytick_4">
     <g id="line2d_15">
      <path d="M 0 121.302178 
L 460.8 121.302178 
" clip-path="url(#pc2d9ae91ef)" style="fill: none; stroke: #b0b0b0; stroke-width: 0.8; stroke-linecap: square"/>
     </g>
     <g id="line2d_16">
      <g>
       <use xlink:href="#mbff04a743e" x="0" y="121.302178" style="stroke: #000000; stroke-width: 0.8"/>
      </g>
     </g>
    </g>
    <g id="ytick_5">
     <g id="line2d_17">
      <path d="M 0 63.816238 
L 460.8 63.816238 
" clip-path="url(#pc2d9ae91ef)" style="fill: none; stroke: #b0b0b0; stroke-width: 0.8; stroke-linecap: square"/>
     </g>
     <g id="line2d_18">
      <g>
       <use xlink:href="#mbff04a743e" x="0" y="63.816238" style="stroke: #000000; stroke-width: 0.8"/>
      </g>
     </g>
    </g>
    <g id="ytick_6">
     <g id="line2d_19">
      <path d="M 0 6.330297 
L 460.8 6.330297 
" clip-path="url(#pc2d9ae91ef)" style="fill: none; stroke: #b0b0b0; stroke-width: 0.8; stroke-linecap: square"/>
     </g>
     <g id="line2d_20">
      <g>
       <use xlink:href="#mbff04a743e" x="0" y="6.330297" style="stroke: #000000; stroke-width: 0.8"/>
      </g>
     </g>
    </g>
   </g>
   <g id="line2d_21">
    <path d="M -1 217.112079 
L -0.910142 217.112079 
L -0.850095 209.447287 
L -0.687453 209.447287 
L -0.590307 201.782495 
L -0.41691 201.782495 
L -0.377366 190.285307 
L -0.175236 190.285307 
L -0.14618 182.620515 
L 131.830017 182.620515 
L 131.830017 178.788119 
L 153.965754 178.788119 
L 153.965754 174.955723 
L 180.535592 174.955723 
L 180.535592 171.123327 
L 181.481264 171.123327 
L 181.481264 167.290931 
L 182.618131 167.290931 
L 182.618131 163.458535 
L 184.848232 163.458535 
L 184.848232 159.626139 
L 186.077842 159.626139 
L 186.077842 148.12895 
L 191.050736 148.12895 
L 191.050736 144.296554 
L 192.116437 144.296554 
L 192.116437 140.464158 
L 192.617274 140.464158 
L 192.617274 136.631762 
L 193.128185 136.631762 
L 193.128185 132.799366 
L 193.678043 132.799366 
L 193.678043 125.134574 
L 194.444915 125.134574 
L 194.444915 121.302178 
L 194.672782 121.302178 
L 194.672782 117.469782 
L 197.153662 117.469782 
L 197.153662 113.637386 
L 197.830319 113.637386 
L 197.830319 98.307802 
L 198.842465 98.307802 
L 198.842465 94.475406 
L 198.956391 94.475406 
L 198.956391 90.64301 
L 199.328604 90.64301 
L 199.328604 86.810614 
L 201.073728 86.810614 
L 201.073728 79.145822 
L 204.274501 79.145822 
L 204.274501 71.48103 
L 206.766494 71.48103 
L 206.816067 63.816238 
L 209.22015 63.816238 
L 209.22015 59.983842 
L 217.080529 59.983842 
L 217.080529 56.151446 
L 221.659228 56.151446 
L 221.659228 52.31905 
L 221.90831 52.31905 
L 222.010264 44.654257 
L 222.021266 44.654257 
L 222.116815 36.989465 
L 223.062372 36.989465 
L 223.062372 33.157069 
L 223.807835 33.157069 
L 223.807835 29.324673 
L 224.129792 29.324673 
L 224.196642 21.659881 
L 224.645954 21.659881 
L 224.645954 17.827485 
L 225.187896 17.827485 
L 225.187896 13.995089 
L 227.579922 13.995089 
L 227.579922 10.162693 
L 228.002355 10.162693 
L 228.002355 6.330297 
L 228.002355 6.330297 
L 460.8 6.330297 
L 460.8 6.330297 
" clip-path="url(#pc2d9ae91ef)" style="fill: none; stroke: #ff0000; stroke-width: 3; stroke-linecap: square"/>
   </g>
   <g id="line2d_22">
    <path d="M 212.535382 293.76 
L 212.535382 289.927604 
L 221.649379 289.927604 
L 221.649379 286.095208 
L 222.635548 286.095208 
L 222.635548 282.262812 
L 223.287788 282.262812 
L 223.287788 278.430416 
L 223.854649 278.430416 
L 223.854649 274.59802 
L 224.787511 274.59802 
L 224.787511 270.765624 
L 227.139128 270.765624 
L 227.139128 266.933228 
L 228.636775 266.933228 
L 228.636775 263.100832 
L 229.739532 263.100832 
L 229.739532 259.268436 
L 231.692698 259.268436 
L 231.692698 255.43604 
L 232.46606 255.43604 
L 232.46606 251.603644 
L 234.47698 251.603644 
L 234.47698 247.771248 
L 234.76348 247.771248 
L 234.76348 243.938851 
L 235.092473 243.938851 
L 235.092473 240.106455 
L 235.212194 240.106455 
L 235.212194 236.274059 
L 235.925257 236.274059 
L 235.925257 232.441663 
L 236.560012 232.441663 
L 236.57578 224.776871 
L 236.950726 224.776871 
L 236.950726 220.944475 
L 243.102305 220.944475 
L 243.102305 217.112079 
L 244.480248 217.112079 
L 244.480248 213.279683 
L 245.599681 213.279683 
L 245.599681 209.447287 
L 246.681809 209.447287 
L 246.763953 201.782495 
L 247.027717 201.782495 
L 247.027717 197.950099 
L 247.173783 197.950099 
L 247.173783 194.117703 
L 247.324848 194.117703 
L 247.328448 186.452911 
L 247.712065 186.452911 
L 247.712065 182.620515 
L 248.048974 182.620515 
L 248.092539 171.123327 
L 248.161407 171.123327 
L 248.161407 167.290931 
L 248.349374 167.290931 
L 248.453685 155.793743 
L 248.686616 155.793743 
L 248.791089 148.12895 
L 248.980065 148.12895 
L 248.980065 144.296554 
L 249.310733 144.296554 
L 249.397659 136.631762 
L 249.542171 136.631762 
L 249.596367 128.96697 
L 249.85021 128.96697 
L 249.85021 125.134574 
L 250.016947 125.134574 
L 250.016947 121.302178 
L 250.181958 121.302178 
L 250.181958 117.469782 
L 250.313563 117.469782 
L 250.313563 113.637386 
L 250.661621 113.637386 
L 250.664874 105.972594 
L 251.821951 105.972594 
L 251.821951 102.140198 
L 252.765624 102.140198 
L 252.832482 94.475406 
L 252.926602 94.475406 
L 252.926602 90.64301 
L 255.070245 90.64301 
L 255.070245 86.810614 
L 256.682067 86.810614 
L 256.682067 82.978218 
L 257.266951 82.978218 
L 257.309434 75.313426 
L 257.407596 75.313426 
L 257.407596 71.48103 
L 257.753542 71.48103 
L 257.753542 67.648634 
L 258.820666 67.648634 
L 258.820666 63.816238 
L 264.21871 63.816238 
L 264.21871 59.983842 
L 288.612088 59.983842 
L 288.612088 56.151446 
L 292.732162 56.151446 
L 292.803952 48.486653 
L 297.998375 48.486653 
L 297.998375 44.654257 
L 301.057213 44.654257 
L 301.057213 40.821861 
L 302.636122 40.821861 
L 302.636122 36.989465 
L 303.686058 36.989465 
L 303.686058 33.157069 
L 311.867147 33.157069 
L 311.867147 29.324673 
L 311.980669 29.324673 
L 311.980669 25.492277 
L 315.444751 25.492277 
L 315.444751 21.659881 
L 316.131521 21.659881 
L 316.131521 17.827485 
L 318.530626 17.827485 
L 318.530626 13.995089 
L 322.872505 13.995089 
L 322.872505 10.162693 
L 325.108905 10.162693 
L 325.108905 6.330297 
L 325.108905 6.330297 
L 460.8 6.330297 
L 460.8 6.330297 
" clip-path="url(#pc2d9ae91ef)" style="fill: none; stroke: #00bfbf; stroke-width: 1.5; stroke-linecap: square"/>
   </g>
   <g id="line2d_23">
    <path d="M 207.258785 293.76 
L 207.258785 289.927604 
L 212.535382 289.927604 
L 212.535382 286.095208 
L 218.418857 286.095208 
L 218.418857 282.262812 
L 219.617304 282.262812 
L 219.617304 278.430416 
L 220.812652 278.430416 
L 220.812652 274.59802 
L 221.649379 274.59802 
L 221.649379 270.765624 
L 222.635548 270.765624 
L 222.635548 266.933228 
L 223.287788 266.933228 
L 223.287788 263.100832 
L 223.854649 263.100832 
L 223.854649 259.268436 
L 227.139128 259.268436 
L 227.139128 255.43604 
L 227.820632 255.43604 
L 227.820632 251.603644 
L 227.982555 251.603644 
L 227.982555 247.771248 
L 228.636775 247.771248 
L 228.636775 243.938851 
L 229.568929 243.938851 
L 229.568929 240.106455 
L 229.739532 240.106455 
L 229.739532 236.274059 
L 230.275906 236.274059 
L 230.275906 232.441663 
L 231.53179 232.441663 
L 231.53179 228.609267 
L 235.092473 228.609267 
L 235.092473 224.776871 
L 235.53717 224.776871 
L 235.53717 220.944475 
L 236.57578 220.944475 
L 236.57578 217.112079 
L 236.950726 217.112079 
L 236.950726 213.279683 
L 237.087363 213.279683 
L 237.087363 209.447287 
L 238.417864 209.447287 
L 238.417864 205.614891 
L 240.203019 205.614891 
L 240.203019 201.782495 
L 243.102305 201.782495 
L 243.102305 197.950099 
L 244.15962 197.950099 
L 244.15962 194.117703 
L 244.480248 194.117703 
L 244.484366 186.452911 
L 245.566451 186.452911 
L 245.672908 174.955723 
L 245.797482 174.955723 
L 245.797482 171.123327 
L 246.18387 171.123327 
L 246.18387 167.290931 
L 246.681809 167.290931 
L 246.681809 163.458535 
L 246.846775 163.458535 
L 246.846775 159.626139 
L 247.173783 159.626139 
L 247.173783 155.793743 
L 247.343589 155.793743 
L 247.343589 151.961347 
L 247.500424 151.961347 
L 247.500424 148.12895 
L 248.056196 148.12895 
L 248.056196 144.296554 
L 248.17962 144.296554 
L 248.222004 136.631762 
L 248.34738 136.631762 
L 248.455355 125.134574 
L 248.716822 125.134574 
L 248.791089 113.637386 
L 249.098371 113.637386 
L 249.098371 109.80499 
L 249.229982 109.80499 
L 249.229982 105.972594 
L 249.397659 105.972594 
L 249.397659 102.140198 
L 249.970497 102.140198 
L 249.970497 98.307802 
L 250.339928 98.307802 
L 250.339928 94.475406 
L 250.558571 94.475406 
L 250.664874 82.978218 
L 251.120515 82.978218 
L 251.120515 79.145822 
L 252.159311 79.145822 
L 252.159311 75.313426 
L 252.467462 75.313426 
L 252.467462 71.48103 
L 253.670314 71.48103 
L 253.670314 67.648634 
L 254.196787 67.648634 
L 254.196787 63.816238 
L 254.571001 63.816238 
L 254.571001 59.983842 
L 264.21871 59.983842 
L 264.21871 56.151446 
L 282.890695 56.151446 
L 282.890695 52.31905 
L 288.612088 52.31905 
L 288.612088 48.486653 
L 290.272131 48.486653 
L 290.272131 44.654257 
L 292.732162 44.654257 
L 292.803952 36.989465 
L 297.102546 36.989465 
L 297.102546 33.157069 
L 300.501387 33.157069 
L 300.501387 29.324673 
L 301.057213 29.324673 
L 301.057213 25.492277 
L 304.193474 25.492277 
L 304.193474 21.659881 
L 307.578031 21.659881 
L 307.578031 17.827485 
L 307.955383 17.827485 
L 307.955383 13.995089 
L 309.096062 13.995089 
L 309.096062 10.162693 
L 312.639476 10.162693 
L 312.639476 6.330297 
L 312.639476 6.330297 
L 460.8 6.330297 
L 460.8 6.330297 
" clip-path="url(#pc2d9ae91ef)" style="fill: none; stroke: #bf00bf; stroke-width: 1.5; stroke-linecap: square"/>
   </g>
   <g id="line2d_24">
    <path d="M 207.258785 293.76 
L 207.258785 289.927604 
L 212.535382 289.927604 
L 212.535382 286.095208 
L 218.418857 286.095208 
L 218.418857 282.262812 
L 219.617304 282.262812 
L 219.617304 278.430416 
L 219.769044 278.430416 
L 219.769044 274.59802 
L 221.649379 274.59802 
L 221.649379 270.765624 
L 222.004371 270.765624 
L 222.004371 266.933228 
L 222.635548 266.933228 
L 222.635548 263.100832 
L 223.261525 263.100832 
L 223.323615 251.603644 
L 223.854649 251.603644 
L 223.854649 247.771248 
L 224.290166 247.771248 
L 224.290166 243.938851 
L 224.851198 243.938851 
L 224.851198 240.106455 
L 225.257057 240.106455 
L 225.257057 236.274059 
L 226.54095 236.274059 
L 226.54095 232.441663 
L 227.820632 232.441663 
L 227.820632 228.609267 
L 228.17166 228.609267 
L 228.17166 224.776871 
L 228.540327 224.776871 
L 228.540327 220.944475 
L 235.092473 220.944475 
L 235.092473 217.112079 
L 235.249071 217.112079 
L 235.249071 213.279683 
L 235.53717 213.279683 
L 235.597829 205.614891 
L 236.57578 205.614891 
L 236.57578 201.782495 
L 236.950726 201.782495 
L 237.044606 194.117703 
L 237.087363 194.117703 
L 237.188922 186.452911 
L 238.417864 186.452911 
L 238.417864 182.620515 
L 240.203019 182.620515 
L 240.203019 178.788119 
L 240.348369 178.788119 
L 240.348369 174.955723 
L 242.023991 174.955723 
L 242.023991 171.123327 
L 242.47052 171.123327 
L 242.47052 167.290931 
L 243.102305 167.290931 
L 243.102305 163.458535 
L 243.43161 163.458535 
L 243.43161 159.626139 
L 243.618936 159.626139 
L 243.618936 155.793743 
L 244.420597 155.793743 
L 244.420597 151.961347 
L 244.594323 151.961347 
L 244.594323 148.12895 
L 245.356329 148.12895 
L 245.43502 136.631762 
L 245.566451 136.631762 
L 245.672908 125.134574 
L 246.013475 125.134574 
L 246.013475 121.302178 
L 247.173783 121.302178 
L 247.173783 117.469782 
L 247.343589 117.469782 
L 247.343589 113.637386 
L 248.453685 113.637386 
L 248.453685 109.80499 
L 248.612873 109.80499 
L 248.716822 102.140198 
L 248.791089 102.140198 
L 248.791089 98.307802 
L 248.984345 98.307802 
L 248.984345 94.475406 
L 249.098371 94.475406 
L 249.098371 90.64301 
L 249.925649 90.64301 
L 249.999327 79.145822 
L 250.194846 79.145822 
L 250.194846 75.313426 
L 250.308995 75.313426 
L 250.308995 71.48103 
L 250.636245 71.48103 
L 250.636245 67.648634 
L 252.49479 67.648634 
L 252.49479 63.816238 
L 254.196787 63.816238 
L 254.196787 59.983842 
L 264.21871 59.983842 
L 264.21871 56.151446 
L 282.890695 56.151446 
L 282.890695 52.31905 
L 283.055876 52.31905 
L 283.055876 48.486653 
L 288.612088 48.486653 
L 288.63752 40.821861 
L 290.206123 40.821861 
L 290.206123 36.989465 
L 290.67829 36.989465 
L 290.67829 33.157069 
L 292.199713 33.157069 
L 292.199713 29.324673 
L 292.732162 29.324673 
L 292.803952 21.659881 
L 293.091303 21.659881 
L 293.091303 17.827485 
L 296.986742 17.827485 
L 296.986742 13.995089 
L 297.102546 13.995089 
L 297.102546 10.162693 
L 312.639476 10.162693 
L 312.639476 6.330297 
L 312.639476 6.330297 
L 460.8 6.330297 
L 460.8 6.330297 
" clip-path="url(#pc2d9ae91ef)" style="fill: none; stroke: #000000; stroke-width: 1.5; stroke-linecap: square"/>
   </g>
   <g id="line2d_25">
    <path d="M 205.794119 293.76 
L 205.794119 289.927604 
L 206.117367 289.927604 
L 206.117367 286.095208 
L 207.258785 286.095208 
L 207.258785 282.262812 
L 212.074044 282.262812 
L 212.074044 278.430416 
L 212.535382 278.430416 
L 212.535382 274.59802 
L 213.727079 274.59802 
L 213.727079 270.765624 
L 216.157996 270.765624 
L 216.157996 266.933228 
L 216.635537 266.933228 
L 216.635537 263.100832 
L 217.852805 263.100832 
L 217.852805 259.268436 
L 218.084899 259.268436 
L 218.084899 255.43604 
L 218.513493 255.43604 
L 218.513493 251.603644 
L 219.090744 251.603644 
L 219.090744 247.771248 
L 219.769044 247.771248 
L 219.769044 243.938851 
L 220.019546 243.938851 
L 220.019546 240.106455 
L 220.297228 240.106455 
L 220.388889 232.441663 
L 221.568206 232.441663 
L 221.568206 228.609267 
L 222.859649 228.609267 
L 222.859649 224.776871 
L 223.854649 224.776871 
L 223.854649 220.944475 
L 224.314651 220.944475 
L 224.334703 213.279683 
L 224.693982 213.279683 
L 224.693982 209.447287 
L 224.851198 209.447287 
L 224.851198 205.614891 
L 225.976136 205.614891 
L 225.976136 201.782495 
L 226.987698 201.782495 
L 226.987698 197.950099 
L 227.820632 197.950099 
L 227.820632 194.117703 
L 229.136098 194.117703 
L 229.136098 190.285307 
L 229.500946 190.285307 
L 229.500946 186.452911 
L 230.928269 186.452911 
L 230.928269 182.620515 
L 231.504055 182.620515 
L 231.50478 174.955723 
L 232.25456 174.955723 
L 232.25456 171.123327 
L 233.136449 171.123327 
L 233.136449 167.290931 
L 233.81852 167.290931 
L 233.81852 163.458535 
L 234.360592 163.458535 
L 234.360592 159.626139 
L 234.680559 159.626139 
L 234.680559 155.793743 
L 235.597829 155.793743 
L 235.597829 151.961347 
L 235.759474 151.961347 
L 235.759474 148.12895 
L 235.879953 148.12895 
L 235.879953 144.296554 
L 236.950726 144.296554 
L 236.950726 140.464158 
L 238.071354 140.464158 
L 238.071354 136.631762 
L 239.808676 136.631762 
L 239.808676 132.799366 
L 240.515693 132.799366 
L 240.522652 125.134574 
L 240.888528 125.134574 
L 240.921 117.469782 
L 242.023991 117.469782 
L 242.023991 113.637386 
L 244.395351 113.637386 
L 244.395351 109.80499 
L 245.289966 109.80499 
L 245.400173 102.140198 
L 245.414199 102.140198 
L 245.414199 98.307802 
L 246.013475 98.307802 
L 246.013475 94.475406 
L 247.170323 94.475406 
L 247.17181 86.810614 
L 247.549351 86.810614 
L 247.549351 82.978218 
L 247.671476 82.978218 
L 247.671476 79.145822 
L 248.383351 79.145822 
L 248.453685 71.48103 
L 248.797471 71.48103 
L 248.797471 67.648634 
L 249.06306 67.648634 
L 249.098371 59.983842 
L 249.970497 59.983842 
L 249.970497 56.151446 
L 254.196787 56.151446 
L 254.196787 52.31905 
L 261.264915 52.31905 
L 261.264915 48.486653 
L 266.188338 48.486653 
L 266.188338 44.654257 
L 269.168726 44.654257 
L 269.168726 40.821861 
L 269.385981 40.821861 
L 269.385981 36.989465 
L 278.916753 36.989465 
L 278.916753 33.157069 
L 280.706143 33.157069 
L 280.706143 29.324673 
L 282.756518 29.324673 
L 282.756518 25.492277 
L 282.914251 25.492277 
L 282.914251 21.659881 
L 290.206123 21.659881 
L 290.206123 17.827485 
L 292.732162 17.827485 
L 292.732162 13.995089 
L 293.962859 13.995089 
L 293.962859 10.162693 
L 297.102546 10.162693 
L 297.102546 6.330297 
L 297.102546 6.330297 
L 460.8 6.330297 
L 460.8 6.330297 
" clip-path="url(#pc2d9ae91ef)" style="fill: none; stroke: #00bfbf; stroke-width: 1.5; stroke-linecap: square"/>
   </g>
   <g id="line2d_26">
    <path d="M 205.794119 293.76 
L 205.794119 289.927604 
L 206.117367 289.927604 
L 206.117367 286.095208 
L 207.258785 286.095208 
L 207.258785 282.262812 
L 208.35617 282.262812 
L 208.35617 278.430416 
L 209.205682 278.430416 
L 209.205682 274.59802 
L 209.428727 274.59802 
L 209.428727 270.765624 
L 209.727217 270.765624 
L 209.727217 266.933228 
L 209.898462 266.933228 
L 209.898462 263.100832 
L 210.340359 263.100832 
L 210.340359 259.268436 
L 210.481891 259.268436 
L 210.481891 255.43604 
L 211.13155 255.43604 
L 211.189591 247.771248 
L 211.56395 247.771248 
L 211.56395 243.938851 
L 211.93737 243.938851 
L 212.040116 236.274059 
L 212.417786 236.274059 
L 212.462714 228.609267 
L 212.630185 228.609267 
L 212.630185 224.776871 
L 213.255692 224.776871 
L 213.255692 220.944475 
L 213.519359 220.944475 
L 213.589667 213.279683 
L 214.539975 213.279683 
L 214.556401 205.614891 
L 215.550975 205.614891 
L 215.550975 201.782495 
L 216.157996 201.782495 
L 216.250299 194.117703 
L 216.277454 194.117703 
L 216.277454 190.285307 
L 216.397942 190.285307 
L 216.397942 186.452911 
L 217.435169 186.452911 
L 217.435169 182.620515 
L 217.774647 182.620515 
L 217.774647 178.788119 
L 218.422499 178.788119 
L 218.422499 174.955723 
L 218.817781 174.955723 
L 218.817781 171.123327 
L 219.245388 171.123327 
L 219.348855 163.458535 
L 220.004467 163.458535 
L 220.004467 159.626139 
L 221.862547 159.626139 
L 221.862547 155.793743 
L 222.41644 155.793743 
L 222.41644 151.961347 
L 223.184721 151.961347 
L 223.184721 148.12895 
L 223.854649 148.12895 
L 223.854649 144.296554 
L 223.980038 144.296554 
L 224.074586 128.96697 
L 224.693982 128.96697 
L 224.693982 125.134574 
L 224.851198 125.134574 
L 224.852317 117.469782 
L 225.49475 117.469782 
L 225.49475 113.637386 
L 225.717774 113.637386 
L 225.717774 109.80499 
L 226.325251 109.80499 
L 226.325251 105.972594 
L 227.172305 105.972594 
L 227.172305 102.140198 
L 228.106879 102.140198 
L 228.145813 94.475406 
L 230.231739 94.475406 
L 230.231739 90.64301 
L 231.816906 90.64301 
L 231.816906 86.810614 
L 234.967655 86.810614 
L 234.967655 82.978218 
L 237.488774 82.978218 
L 237.488774 79.145822 
L 239.668528 79.145822 
L 239.668528 75.313426 
L 239.976925 75.313426 
L 239.976925 71.48103 
L 240.865582 71.48103 
L 240.921 59.983842 
L 241.971462 59.983842 
L 241.977948 52.31905 
L 242.296684 52.31905 
L 242.296684 48.486653 
L 242.574813 48.486653 
L 242.574813 44.654257 
L 243.112925 44.654257 
L 243.112925 40.821861 
L 243.996187 40.821861 
L 243.996187 36.989465 
L 244.530846 36.989465 
L 244.530846 33.157069 
L 245.037029 33.157069 
L 245.037029 29.324673 
L 245.421275 29.324673 
L 245.421275 25.492277 
L 246.036964 25.492277 
L 246.036964 21.659881 
L 247.621613 21.659881 
L 247.621613 17.827485 
L 258.820375 17.827485 
L 258.820375 13.995089 
L 261.264915 13.995089 
L 261.264915 10.162693 
L 263.381413 10.162693 
L 263.381413 6.330297 
L 263.381413 6.330297 
L 460.8 6.330297 
L 460.8 6.330297 
" clip-path="url(#pc2d9ae91ef)" style="fill: none; stroke: #bf00bf; stroke-width: 1.5; stroke-linecap: square"/>
   </g>
   <g id="line2d_27">
    <path d="M 108.044601 293.76 
L 108.044601 289.927604 
L 109.437066 289.927604 
L 109.437066 286.095208 
L 111.817486 286.095208 
L 111.817486 282.262812 
L 125.152229 282.262812 
L 125.152229 278.430416 
L 155.802419 278.430416 
L 155.802419 274.59802 
L 157.446596 274.59802 
L 157.446596 270.765624 
L 163.39249 270.765624 
L 163.39249 266.933228 
L 165.830565 266.933228 
L 165.830565 263.100832 
L 175.524445 263.100832 
L 175.524445 259.268436 
L 175.673316 259.268436 
L 175.673316 255.43604 
L 179.258684 255.43604 
L 179.258684 251.603644 
L 183.737815 251.603644 
L 183.737815 247.771248 
L 186.666617 247.771248 
L 186.666617 243.938851 
L 193.033781 243.938851 
L 193.033781 240.106455 
L 195.09431 240.106455 
L 195.09431 236.274059 
L 196.312408 236.274059 
L 196.312408 232.441663 
L 196.46112 232.441663 
L 196.46112 228.609267 
L 197.100355 228.609267 
L 197.100355 224.776871 
L 197.405445 224.776871 
L 197.405445 220.944475 
L 197.84158 220.944475 
L 197.951911 201.782495 
L 198.059798 201.782495 
L 198.059798 197.950099 
L 198.432849 197.950099 
L 198.432849 194.117703 
L 198.699398 194.117703 
L 198.699398 190.285307 
L 199.011689 190.285307 
L 199.011689 186.452911 
L 199.774877 186.452911 
L 199.774877 182.620515 
L 199.97769 182.620515 
L 199.97769 178.788119 
L 200.181348 178.788119 
L 200.237946 171.123327 
L 201.177296 171.123327 
L 201.177296 167.290931 
L 201.299745 167.290931 
L 201.299745 163.458535 
L 201.511247 163.458535 
L 201.514216 155.793743 
L 202.864465 155.793743 
L 202.864465 151.961347 
L 203.049879 151.961347 
L 203.06948 144.296554 
L 203.383535 144.296554 
L 203.383535 140.464158 
L 203.741369 140.464158 
L 203.741369 136.631762 
L 204.608599 136.631762 
L 204.608599 132.799366 
L 204.794486 132.799366 
L 204.819776 125.134574 
L 204.957983 125.134574 
L 205.024582 117.469782 
L 205.264226 117.469782 
L 205.264226 113.637386 
L 205.625722 113.637386 
L 205.625722 109.80499 
L 205.794119 109.80499 
L 205.794119 105.972594 
L 206.204878 105.972594 
L 206.204878 102.140198 
L 206.363879 102.140198 
L 206.363879 98.307802 
L 206.837893 98.307802 
L 206.837893 94.475406 
L 208.946794 94.475406 
L 208.946794 90.64301 
L 209.235117 90.64301 
L 209.235117 86.810614 
L 209.507296 86.810614 
L 209.507296 82.978218 
L 209.781341 82.978218 
L 209.781341 79.145822 
L 210.754079 79.145822 
L 210.754079 75.313426 
L 213.446324 75.313426 
L 213.446324 71.48103 
L 217.993262 71.48103 
L 217.993262 67.648634 
L 219.976946 67.648634 
L 219.976946 63.816238 
L 222.067184 63.816238 
L 222.067184 59.983842 
L 225.527765 59.983842 
L 225.527765 56.151446 
L 226.19195 56.151446 
L 226.19195 52.31905 
L 226.752462 52.31905 
L 226.811859 44.654257 
L 226.865267 44.654257 
L 226.865267 40.821861 
L 227.543776 40.821861 
L 227.543776 36.989465 
L 228.103413 36.989465 
L 228.103413 33.157069 
L 228.64315 33.157069 
L 228.64315 29.324673 
L 229.815537 29.324673 
L 229.815537 25.492277 
L 230.178461 25.492277 
L 230.231739 17.827485 
L 231.947761 17.827485 
L 231.947761 13.995089 
L 232.988291 13.995089 
L 232.988291 10.162693 
L 235.970193 10.162693 
L 235.970193 6.330297 
L 235.970193 6.330297 
L 460.8 6.330297 
L 460.8 6.330297 
" clip-path="url(#pc2d9ae91ef)" style="fill: none; stroke: #000000; stroke-width: 1.5; stroke-linecap: square"/>
   </g>
   <g id="line2d_28">
    <path d="M -1 266.933228 
L -0.850095 266.933228 
L -0.850095 263.100832 
L -0.687453 263.100832 
L -0.687453 259.268436 
L -0.41691 259.268436 
L -0.384002 251.603644 
L -0.175236 251.603644 
L -0.175236 247.771248 
L 2.343002 247.771248 
L 2.343002 243.938851 
L 40.095338 243.938851 
L 40.095338 240.106455 
L 54.313314 240.106455 
L 54.313314 236.274059 
L 56.311742 236.274059 
L 56.311742 232.441663 
L 78.920215 232.441663 
L 78.920215 228.609267 
L 85.32279 228.609267 
L 85.32279 224.776871 
L 99.333715 224.776871 
L 99.333715 220.944475 
L 110.70822 220.944475 
L 110.70822 217.112079 
L 121.836122 217.112079 
L 121.836122 213.279683 
L 140.825975 213.279683 
L 140.825975 209.447287 
L 141.824512 209.447287 
L 141.824512 205.614891 
L 149.958358 205.614891 
L 149.958358 201.782495 
L 172.656007 201.782495 
L 172.656007 197.950099 
L 182.842533 197.950099 
L 182.842533 194.117703 
L 184.87716 194.117703 
L 184.896102 186.452911 
L 186.077907 186.452911 
L 186.077907 182.620515 
L 186.449577 182.620515 
L 186.449577 178.788119 
L 193.252879 178.788119 
L 193.252879 174.955723 
L 193.678044 174.955723 
L 193.678044 167.290931 
L 194.447208 167.290931 
L 194.538072 159.626139 
L 194.682094 159.626139 
L 194.682094 155.793743 
L 196.125165 155.793743 
L 196.125165 151.961347 
L 196.408051 151.961347 
L 196.408051 148.12895 
L 197.497312 148.12895 
L 197.590804 140.464158 
L 197.830319 140.464158 
L 197.830344 121.302178 
L 198.639185 121.302178 
L 198.731017 113.637386 
L 198.868074 113.637386 
L 198.868074 109.80499 
L 199.136489 109.80499 
L 199.136489 105.972594 
L 199.328604 105.972594 
L 199.328604 102.140198 
L 201.073736 102.140198 
L 201.073736 98.307802 
L 201.902668 98.307802 
L 201.902668 94.475406 
L 203.048025 94.475406 
L 203.048025 90.64301 
L 203.690051 90.64301 
L 203.690051 86.810614 
L 204.274501 86.810614 
L 204.281343 79.145822 
L 204.770756 79.145822 
L 204.770756 75.313426 
L 206.766494 75.313426 
L 206.766494 71.48103 
L 207.196351 71.48103 
L 207.196351 67.648634 
L 209.22015 67.648634 
L 209.22015 63.816238 
L 209.476456 63.816238 
L 209.476456 59.983842 
L 217.774966 59.983842 
L 217.774966 56.151446 
L 221.765438 56.151446 
L 221.765438 52.31905 
L 222.331397 52.31905 
L 222.331397 48.486653 
L 222.514445 48.486653 
L 222.599488 40.821861 
L 223.807968 40.821861 
L 223.807968 36.989465 
L 224.114056 36.989465 
L 224.159779 29.324673 
L 224.841306 29.324673 
L 224.841306 25.492277 
L 225.251662 25.492277 
L 225.251662 21.659881 
L 227.360333 21.659881 
L 227.360333 17.827485 
L 227.617223 17.827485 
L 227.617223 13.995089 
L 228.007581 13.995089 
L 228.007581 10.162693 
L 229.563103 10.162693 
L 229.563103 6.330297 
L 229.563103 6.330297 
L 460.8 6.330297 
L 460.8 6.330297 
" clip-path="url(#pc2d9ae91ef)" style="fill: none; stroke: #00bfbf; stroke-width: 1.5; stroke-linecap: square"/>
   </g>
   <g id="line2d_29">
    <path d="M -1 217.112079 
L -0.910142 217.112079 
L -0.850095 209.447287 
L -0.687453 209.447287 
L -0.590307 201.782495 
L -0.41691 201.782495 
L -0.377366 190.285307 
L -0.175236 190.285307 
L -0.14618 182.620515 
L 131.830017 182.620515 
L 131.830017 178.788119 
L 153.965754 178.788119 
L 153.965754 174.955723 
L 180.535592 174.955723 
L 180.535592 171.123327 
L 181.481264 171.123327 
L 181.481264 167.290931 
L 182.618131 167.290931 
L 182.618131 163.458535 
L 184.848232 163.458535 
L 184.848232 159.626139 
L 186.077842 159.626139 
L 186.077842 148.12895 
L 191.050736 148.12895 
L 191.050736 144.296554 
L 192.116437 144.296554 
L 192.116437 140.464158 
L 192.617274 140.464158 
L 192.617274 136.631762 
L 193.128185 136.631762 
L 193.128185 132.799366 
L 193.678043 132.799366 
L 193.678043 125.134574 
L 194.444915 125.134574 
L 194.444915 121.302178 
L 194.672782 121.302178 
L 194.672782 117.469782 
L 197.153662 117.469782 
L 197.153662 113.637386 
L 197.830319 113.637386 
L 197.830319 98.307802 
L 198.842465 98.307802 
L 198.842465 94.475406 
L 198.956391 94.475406 
L 198.956391 90.64301 
L 199.328604 90.64301 
L 199.328604 86.810614 
L 201.073728 86.810614 
L 201.073728 79.145822 
L 204.274501 79.145822 
L 204.274501 71.48103 
L 206.766494 71.48103 
L 206.816067 63.816238 
L 209.22015 63.816238 
L 209.22015 59.983842 
L 217.080529 59.983842 
L 217.080529 56.151446 
L 221.659228 56.151446 
L 221.659228 52.31905 
L 221.90831 52.31905 
L 222.010264 44.654257 
L 222.021266 44.654257 
L 222.116815 36.989465 
L 223.062372 36.989465 
L 223.062372 33.157069 
L 223.807835 33.157069 
L 223.807835 29.324673 
L 224.129792 29.324673 
L 224.196642 21.659881 
L 224.645954 21.659881 
L 224.645954 17.827485 
L 225.187896 17.827485 
L 225.187896 13.995089 
L 227.579922 13.995089 
L 227.579922 10.162693 
L 228.002355 10.162693 
L 228.002355 6.330297 
L 228.002355 6.330297 
L 460.8 6.330297 
L 460.8 6.330297 
" clip-path="url(#pc2d9ae91ef)" style="fill: none; stroke: #bf00bf; stroke-width: 1.5; stroke-linecap: square"/>
   </g>
   <g id="patch_3">
    <path d="M 0 293.76 
L 0 3.456 
" style="fill: none; stroke: #000000; stroke-width: 0.8; stroke-linejoin: miter; stroke-linecap: square"/>
   </g>
   <g id="patch_4">
    <path d="M 460.8 293.76 
L 460.8 3.456 
" style="fill: none; stroke: #000000; stroke-width: 0.8; stroke-linejoin: miter; stroke-linecap: square"/>
   </g>
   <g id="patch_5">
    <path d="M 0 293.76 
L 460.8 293.76 
" style="fill: none; stroke: #000000; stroke-width: 0.8; stroke-linejoin: miter; stroke-linecap: square"/>
   </g>
   <g id="patch_6">
    <path d="M 0 3.456 
L 460.8 3.456 
" style="fill: none; stroke: #000000; stroke-width: 0.8; stroke-linejoin: miter; stroke-linecap: square"/>
   </g>
   <g id="text_6">
    <!-- {f20-f24}, 5-D -->
    <g transform="translate(305.884 287.95392)scale(0.2 -0.2)">
     <defs>
      <path id="DejaVuSans-7b" d="M 3272 -594 
L 3272 -1044 
L 3078 -1044 
Q 2300 -1044 2036 -812 
Q 1772 -581 1772 109 
L 1772 856 
Q 1772 1328 1603 1509 
Q 1434 1691 991 1691 
L 800 1691 
L 800 2138 
L 991 2138 
Q 1438 2138 1605 2317 
Q 1772 2497 1772 2963 
L 1772 3713 
Q 1772 4403 2036 4633 
Q 2300 4863 3078 4863 
L 3272 4863 
L 3272 4416 
L 3059 4416 
Q 2619 4416 2484 4278 
Q 2350 4141 2350 3700 
L 2350 2925 
Q 2350 2434 2208 2212 
Q 2066 1991 1722 1913 
Q 2069 1828 2209 1606 
Q 2350 1384 2350 897 
L 2350 122 
Q 2350 -319 2484 -456 
Q 2619 -594 3059 -594 
L 3272 -594 
z
" transform="scale(0.015625)"/>
      <path id="DejaVuSans-32" d="M 1228 531 
L 3431 531 
L 3431 0 
L 469 0 
L 469 531 
Q 828 903 1448 1529 
Q 2069 2156 2228 2338 
Q 2531 2678 2651 2914 
Q 2772 3150 2772 3378 
Q 2772 3750 2511 3984 
Q 2250 4219 1831 4219 
Q 1534 4219 1204 4116 
Q 875 4013 500 3803 
L 500 4441 
Q 881 4594 1212 4672 
Q 1544 4750 1819 4750 
Q 2544 4750 2975 4387 
Q 3406 4025 3406 3419 
Q 3406 3131 3298 2873 
Q 3191 2616 2906 2266 
Q 2828 2175 2409 1742 
Q 1991 1309 1228 531 
z
" transform="scale(0.015625)"/>
      <path id="DejaVuSans-7d" d="M 800 -594 
L 1019 -594 
Q 1456 -594 1589 -459 
Q 1722 -325 1722 122 
L 1722 897 
Q 1722 1384 1862 1606 
Q 2003 1828 2350 1913 
Q 2003 1991 1862 2212 
Q 1722 2434 1722 2925 
L 1722 3700 
Q 1722 4144 1589 4280 
Q 1456 4416 1019 4416 
L 800 4416 
L 800 4863 
L 997 4863 
Q 1775 4863 2036 4633 
Q 2297 4403 2297 3713 
L 2297 2963 
Q 2297 2497 2465 2317 
Q 2634 2138 3078 2138 
L 3272 2138 
L 3272 1691 
L 3078 1691 
Q 2634 1691 2465 1509 
Q 2297 1328 2297 856 
L 2297 109 
Q 2297 -581 2036 -812 
Q 1775 -1044 997 -1044 
L 800 -1044 
L 800 -594 
z
" transform="scale(0.015625)"/>
      <path id="DejaVuSans-2c" d="M 750 794 
L 1409 794 
L 1409 256 
L 897 -744 
L 494 -744 
L 750 256 
L 750 794 
z
" transform="scale(0.015625)"/>
      <path id="DejaVuSans-35" d="M 691 4666 
L 3169 4666 
L 3169 4134 
L 1269 4134 
L 1269 2991 
Q 1406 3038 1543 3061 
Q 1681 3084 1819 3084 
Q 2600 3084 3056 2656 
Q 3513 2228 3513 1497 
Q 3513 744 3044 326 
Q 2575 -91 1722 -91 
Q 1428 -91 1123 -41 
Q 819 9 494 109 
L 494 744 
Q 775 591 1075 516 
Q 1375 441 1709 441 
Q 2250 441 2565 725 
Q 2881 1009 2881 1497 
Q 2881 1984 2565 2268 
Q 2250 2553 1709 2553 
Q 1456 2553 1204 2497 
Q 953 2441 691 2322 
L 691 4666 
z
" transform="scale(0.015625)"/>
     </defs>
     <use xlink:href="#DejaVuSans-7b"/>
     <use xlink:href="#DejaVuSans-66" x="63.623047"/>
     <use xlink:href="#DejaVuSans-32" x="98.828125"/>
     <use xlink:href="#DejaVuSans-30" x="162.451172"/>
     <use xlink:href="#DejaVuSans-2d" x="226.074219"/>
     <use xlink:href="#DejaVuSans-66" x="262.158203"/>
     <use xlink:href="#DejaVuSans-32" x="297.363281"/>
     <use xlink:href="#DejaVuSans-34" x="360.986328"/>
     <use xlink:href="#DejaVuSans-7d" x="424.609375"/>
     <use xlink:href="#DejaVuSans-2c" x="488.232422"/>
     <use xlink:href="#DejaVuSans-20" x="520.019531"/>
     <use xlink:href="#DejaVuSans-35" x="551.806641"/>
     <use xlink:href="#DejaVuSans-2d" x="615.429688"/>
     <use xlink:href="#DejaVuSans-44" x="651.513672"/>
    </g>
   </g>
   <g id="text_7">
    <!-- v2.6 -->
    <g style="fill: #808080" transform="translate(219.489063 288.777272)scale(0.1 -0.1)">
     <defs>
      <path id="DejaVuSans-76" d="M 191 3500 
L 800 3500 
L 1894 563 
L 2988 3500 
L 3597 3500 
L 2284 0 
L 1503 0 
L 191 3500 
z
" transform="scale(0.015625)"/>
      <path id="DejaVuSans-2e" d="M 684 794 
L 1344 794 
L 1344 0 
L 684 0 
L 684 794 
z
" transform="scale(0.015625)"/>
      <path id="DejaVuSans-36" d="M 2113 2584 
Q 1688 2584 1439 2293 
Q 1191 2003 1191 1497 
Q 1191 994 1439 701 
Q 1688 409 2113 409 
Q 2538 409 2786 701 
Q 3034 994 3034 1497 
Q 3034 2003 2786 2293 
Q 2538 2584 2113 2584 
z
M 3366 4563 
L 3366 3988 
Q 3128 4100 2886 4159 
Q 2644 4219 2406 4219 
Q 1781 4219 1451 3797 
Q 1122 3375 1075 2522 
Q 1259 2794 1537 2939 
Q 1816 3084 2150 3084 
Q 2853 3084 3261 2657 
Q 3669 2231 3669 1497 
Q 3669 778 3244 343 
Q 2819 -91 2113 -91 
Q 1303 -91 875 529 
Q 447 1150 447 2328 
Q 447 3434 972 4092 
Q 1497 4750 2381 4750 
Q 2619 4750 2861 4703 
Q 3103 4656 3366 4563 
z
" transform="scale(0.015625)"/>
     </defs>
     <use xlink:href="#DejaVuSans-76"/>
     <use xlink:href="#DejaVuSans-32" x="59.179688"/>
     <use xlink:href="#DejaVuSans-2e" x="122.802734"/>
     <use xlink:href="#DejaVuSans-36" x="154.589844"/>
    </g>
   </g>
  </g>
 </g>
 <defs>
  <clipPath id="pc2d9ae91ef">
   <rect x="0" y="3.456" width="460.8" height="290.304"/>
  </clipPath>
 </defs>
</svg>
