<?xml version="1.0" encoding="utf-8" standalone="no"?>
<!DOCTYPE svg PUBLIC "-//W3C//DTD SVG 1.1//EN"
  "http://www.w3.org/Graphics/SVG/1.1/DTD/svg11.dtd">
<svg xmlns:xlink="http://www.w3.org/1999/xlink" width="460.8pt" height="345.6pt" viewBox="0 0 460.8 345.6" xmlns="http://www.w3.org/2000/svg" version="1.1">
 <metadata>
  <rdf:RDF xmlns:dc="http://purl.org/dc/elements/1.1/" xmlns:cc="http://creativecommons.org/ns#" xmlns:rdf="http://www.w3.org/1999/02/22-rdf-syntax-ns#">
   <cc:Work>
    <dc:type rdf:resource="http://purl.org/dc/dcmitype/StillImage"/>
    <dc:date>2024-05-29T08:02:44.440883</dc:date>
    <dc:format>image/svg+xml</dc:format>
    <dc:creator>
     <cc:Agent>
      <dc:title>Matplotlib v3.5.1, https://matplotlib.org/</dc:title>
     </cc:Agent>
    </dc:creator>
   </cc:Work>
  </rdf:RDF>
 </metadata>
 <defs>
  <style type="text/css">*{stroke-linejoin: round; stroke-linecap: butt}</style>
 </defs>
 <g id="figure_1">
  <g id="patch_1">
   <path d="M 0 345.6 
L 460.8 345.6 
L 460.8 0 
L 0 0 
z
" style="fill: #ffffff"/>
  </g>
  <g id="axes_1">
   <g id="patch_2">
    <path d="M 57.6 298.944 
L 360.8064 298.944 
L 360.8064 27.648 
L 57.6 27.648 
z
" style="fill: #ffffff"/>
   </g>
   <g id="line2d_1">
    <path d="M 27.323974 298.944 
L 27.323974 293.624471 
L 53.402323 293.624471 
L 53.402323 288.304941 
L 78.266603 288.304941 
L 78.266603 282.985412 
L 92.519847 282.985412 
L 92.519847 277.665882 
L 100.147275 277.665882 
L 100.147275 272.346353 
L 107.5116 272.346353 
L 107.5116 267.026824 
L 113.765312 267.026824 
L 113.765312 261.707294 
L 118.152051 261.707294 
L 118.152051 256.387765 
L 122.913079 256.387765 
L 122.913079 251.068235 
L 137.030737 251.068235 
L 137.030737 245.748706 
L 139.362521 245.748706 
L 139.362521 240.429176 
L 155.557358 240.429176 
L 155.557358 235.109647 
L 155.741887 235.109647 
L 155.741887 229.790118 
L 155.782649 229.790118 
L 155.782649 224.470588 
L 155.904407 224.470588 
L 155.904407 219.151059 
L 156.065535 219.151059 
L 156.065535 213.831529 
L 156.245169 213.831529 
L 156.245169 208.512 
L 156.462418 208.512 
L 156.462418 203.192471 
L 156.560344 203.192471 
L 156.560344 197.872941 
L 156.715973 197.872941 
L 156.715973 192.553412 
L 156.88953 192.553412 
L 156.88953 187.233882 
L 156.947029 187.233882 
L 156.947029 181.914353 
L 157.023421 181.914353 
L 157.023421 176.594824 
L 157.363398 176.594824 
L 157.363398 171.275294 
L 157.382107 171.275294 
L 157.382107 165.955765 
L 157.419468 165.955765 
L 157.419468 160.636235 
L 157.53111 160.636235 
L 157.53111 155.316706 
L 157.605171 155.316706 
L 157.605171 149.997176 
L 157.678942 149.997176 
L 157.678942 144.677647 
L 157.715719 144.677647 
L 157.715719 139.358118 
L 157.770751 139.358118 
L 157.770751 134.038588 
L 157.825621 134.038588 
L 157.825621 128.719059 
L 157.843876 128.719059 
L 157.843876 123.399529 
L 157.953034 123.399529 
L 157.953034 118.08 
L 157.971166 118.08 
L 157.971166 112.760471 
L 158.007377 112.760471 
L 158.007377 107.440941 
L 158.115593 107.440941 
L 158.115593 102.121412 
L 158.133569 102.121412 
L 158.133569 91.482353 
L 158.241064 91.482353 
L 158.241064 86.162824 
L 158.294582 86.162824 
L 158.294582 80.843294 
L 158.330176 80.843294 
L 158.330176 75.523765 
L 158.365703 75.523765 
L 158.365703 70.204235 
L 158.401163 70.204235 
L 158.401163 64.884706 
L 158.454228 64.884706 
L 158.454228 59.565176 
L 158.507144 59.565176 
L 158.507144 54.245647 
L 158.52475 54.245647 
L 158.52475 48.926118 
L 158.595008 48.926118 
L 158.595008 43.606588 
L 158.630038 43.606588 
L 158.630038 38.287059 
L 158.647529 38.287059 
L 158.647529 32.967529 
L 158.717331 32.967529 
L 158.717331 27.648 
L 360.8064 27.648 
" style="fill: none; stroke: #f5deb3; stroke-width: 4; stroke-linecap: square"/>
   </g>
   <g id="line2d_2">
    <defs>
     <path id="m96b14caea7" d="M 0 7.778175 
L 7.778175 0 
L 0 -7.778175 
L -7.778175 0 
z
" style="stroke: #f5deb3; stroke-width: 1.5; stroke-linejoin: miter"/>
    </defs>
    <g>
     <use xlink:href="#m96b14caea7" x="107.5116" y="272.346353" style="fill: #f5deb3; stroke: #f5deb3; stroke-width: 1.5; stroke-linejoin: miter"/>
     <use xlink:href="#m96b14caea7" x="157.382107" y="171.275294" style="fill: #f5deb3; stroke: #f5deb3; stroke-width: 1.5; stroke-linejoin: miter"/>
     <use xlink:href="#m96b14caea7" x="158.630038" y="43.606588" style="fill: #f5deb3; stroke: #f5deb3; stroke-width: 1.5; stroke-linejoin: miter"/>
     <use xlink:href="#m96b14caea7" x="158.717331" y="27.648" style="fill: #f5deb3; stroke: #f5deb3; stroke-width: 1.5; stroke-linejoin: miter"/>
     <use xlink:href="#m96b14caea7" x="158.717331" y="27.648" style="fill: #f5deb3; stroke: #f5deb3; stroke-width: 1.5; stroke-linejoin: miter"/>
     <use xlink:href="#m96b14caea7" x="360.8064" y="27.648" style="fill: #f5deb3; stroke: #f5deb3; stroke-width: 1.5; stroke-linejoin: miter"/>
    </g>
   </g>
   <g id="line2d_3">
    <path style="fill: none; stroke: #f5deb3; stroke-width: 4; stroke-linecap: square"/>
    <g/>
   </g>
   <g id="line2d_4">
    <path d="M 360.8064 27.648 
L 380.514816 33.07392 
" style="fill: none; stroke: #f5deb3; stroke-width: 4; stroke-linecap: square"/>
    <g>
     <use xlink:href="#m96b14caea7" x="360.8064" y="27.648" style="fill: #f5deb3; stroke: #f5deb3; stroke-width: 1.5; stroke-linejoin: miter"/>
     <use xlink:href="#m96b14caea7" x="380.514816" y="33.07392" style="fill: #f5deb3; stroke: #f5deb3; stroke-width: 1.5; stroke-linejoin: miter"/>
    </g>
   </g>
   <g id="matplotlib.axis_1">
    <g id="xtick_1">
     <g id="line2d_5">
      <path d="M 57.6 298.944 
L 57.6 27.648 
" clip-path="url(#p724cd25e06)" style="fill: none; stroke: #b0b0b0; stroke-width: 0.8; stroke-linecap: square"/>
     </g>
     <g id="line2d_6">
      <defs>
       <path id="m08c74ad0c0" d="M 0 0 
L 0 3.5 
" style="stroke: #000000; stroke-width: 0.8"/>
      </defs>
      <g>
       <use xlink:href="#m08c74ad0c0" x="57.6" y="298.944" style="stroke: #000000; stroke-width: 0.8"/>
      </g>
     </g>
     <g id="text_1">
      <!-- 0 -->
      <g transform="translate(52.191875 318.861344)scale(0.17 -0.17)">
       <defs>
        <path id="DejaVuSans-30" d="M 2034 4250 
Q 1547 4250 1301 3770 
Q 1056 3291 1056 2328 
Q 1056 1369 1301 889 
Q 1547 409 2034 409 
Q 2525 409 2770 889 
Q 3016 1369 3016 2328 
Q 3016 3291 2770 3770 
Q 2525 4250 2034 4250 
z
M 2034 4750 
Q 2819 4750 3233 4129 
Q 3647 3509 3647 2328 
Q 3647 1150 3233 529 
Q 2819 -91 2034 -91 
Q 1250 -91 836 529 
Q 422 1150 422 2328 
Q 422 3509 836 4129 
Q 1250 4750 2034 4750 
z
" transform="scale(0.015625)"/>
       </defs>
       <use xlink:href="#DejaVuSans-30"/>
      </g>
     </g>
    </g>
    <g id="xtick_2">
     <g id="line2d_7">
      <path d="M 144.2304 298.944 
L 144.2304 27.648 
" clip-path="url(#p724cd25e06)" style="fill: none; stroke: #b0b0b0; stroke-width: 0.8; stroke-linecap: square"/>
     </g>
     <g id="line2d_8">
      <g>
       <use xlink:href="#m08c74ad0c0" x="144.2304" y="298.944" style="stroke: #000000; stroke-width: 0.8"/>
      </g>
     </g>
     <g id="text_2">
      <!-- 2 -->
      <g transform="translate(138.822275 318.861344)scale(0.17 -0.17)">
       <defs>
        <path id="DejaVuSans-32" d="M 1228 531 
L 3431 531 
L 3431 0 
L 469 0 
L 469 531 
Q 828 903 1448 1529 
Q 2069 2156 2228 2338 
Q 2531 2678 2651 2914 
Q 2772 3150 2772 3378 
Q 2772 3750 2511 3984 
Q 2250 4219 1831 4219 
Q 1534 4219 1204 4116 
Q 875 4013 500 3803 
L 500 4441 
Q 881 4594 1212 4672 
Q 1544 4750 1819 4750 
Q 2544 4750 2975 4387 
Q 3406 4025 3406 3419 
Q 3406 3131 3298 2873 
Q 3191 2616 2906 2266 
Q 2828 2175 2409 1742 
Q 1991 1309 1228 531 
z
" transform="scale(0.015625)"/>
       </defs>
       <use xlink:href="#DejaVuSans-32"/>
      </g>
     </g>
    </g>
    <g id="xtick_3">
     <g id="line2d_9">
      <path d="M 230.8608 298.944 
L 230.8608 27.648 
" clip-path="url(#p724cd25e06)" style="fill: none; stroke: #b0b0b0; stroke-width: 0.8; stroke-linecap: square"/>
     </g>
     <g id="line2d_10">
      <g>
       <use xlink:href="#m08c74ad0c0" x="230.8608" y="298.944" style="stroke: #000000; stroke-width: 0.8"/>
      </g>
     </g>
     <g id="text_3">
      <!-- 4 -->
      <g transform="translate(225.452675 318.861344)scale(0.17 -0.17)">
       <defs>
        <path id="DejaVuSans-34" d="M 2419 4116 
L 825 1625 
L 2419 1625 
L 2419 4116 
z
M 2253 4666 
L 3047 4666 
L 3047 1625 
L 3713 1625 
L 3713 1100 
L 3047 1100 
L 3047 0 
L 2419 0 
L 2419 1100 
L 313 1100 
L 313 1709 
L 2253 4666 
z
" transform="scale(0.015625)"/>
       </defs>
       <use xlink:href="#DejaVuSans-34"/>
      </g>
     </g>
    </g>
    <g id="xtick_4">
     <g id="line2d_11">
      <path d="M 317.4912 298.944 
L 317.4912 27.648 
" clip-path="url(#p724cd25e06)" style="fill: none; stroke: #b0b0b0; stroke-width: 0.8; stroke-linecap: square"/>
     </g>
     <g id="line2d_12">
      <g>
       <use xlink:href="#m08c74ad0c0" x="317.4912" y="298.944" style="stroke: #000000; stroke-width: 0.8"/>
      </g>
     </g>
     <g id="text_4">
      <!-- 6 -->
      <g transform="translate(312.083075 318.861344)scale(0.17 -0.17)">
       <defs>
        <path id="DejaVuSans-36" d="M 2113 2584 
Q 1688 2584 1439 2293 
Q 1191 2003 1191 1497 
Q 1191 994 1439 701 
Q 1688 409 2113 409 
Q 2538 409 2786 701 
Q 3034 994 3034 1497 
Q 3034 2003 2786 2293 
Q 2538 2584 2113 2584 
z
M 3366 4563 
L 3366 3988 
Q 3128 4100 2886 4159 
Q 2644 4219 2406 4219 
Q 1781 4219 1451 3797 
Q 1122 3375 1075 2522 
Q 1259 2794 1537 2939 
Q 1816 3084 2150 3084 
Q 2853 3084 3261 2657 
Q 3669 2231 3669 1497 
Q 3669 778 3244 343 
Q 2819 -91 2113 -91 
Q 1303 -91 875 529 
Q 447 1150 447 2328 
Q 447 3434 972 4092 
Q 1497 4750 2381 4750 
Q 2619 4750 2861 4703 
Q 3103 4656 3366 4563 
z
" transform="scale(0.015625)"/>
       </defs>
       <use xlink:href="#DejaVuSans-36"/>
      </g>
     </g>
    </g>
    <g id="xtick_5">
     <g id="line2d_13">
      <path d="M 100.9152 298.944 
L 100.9152 27.648 
" clip-path="url(#p724cd25e06)" style="fill: none; stroke: #b0b0b0; stroke-width: 0.8; stroke-linecap: square"/>
     </g>
     <g id="line2d_14">
      <defs>
       <path id="mbc014e5660" d="M 0 0 
L 0 2 
" style="stroke: #000000; stroke-width: 0.6"/>
      </defs>
      <g>
       <use xlink:href="#mbc014e5660" x="100.9152" y="298.944" style="stroke: #000000; stroke-width: 0.6"/>
      </g>
     </g>
    </g>
    <g id="xtick_6">
     <g id="line2d_15">
      <path d="M 187.5456 298.944 
L 187.5456 27.648 
" clip-path="url(#p724cd25e06)" style="fill: none; stroke: #b0b0b0; stroke-width: 0.8; stroke-linecap: square"/>
     </g>
     <g id="line2d_16">
      <g>
       <use xlink:href="#mbc014e5660" x="187.5456" y="298.944" style="stroke: #000000; stroke-width: 0.6"/>
      </g>
     </g>
    </g>
    <g id="xtick_7">
     <g id="line2d_17">
      <path d="M 274.176 298.944 
L 274.176 27.648 
" clip-path="url(#p724cd25e06)" style="fill: none; stroke: #b0b0b0; stroke-width: 0.8; stroke-linecap: square"/>
     </g>
     <g id="line2d_18">
      <g>
       <use xlink:href="#mbc014e5660" x="274.176" y="298.944" style="stroke: #000000; stroke-width: 0.6"/>
      </g>
     </g>
    </g>
    <g id="xtick_8">
     <g id="line2d_19">
      <path d="M 360.8064 298.944 
L 360.8064 27.648 
" clip-path="url(#p724cd25e06)" style="fill: none; stroke: #b0b0b0; stroke-width: 0.8; stroke-linecap: square"/>
     </g>
     <g id="line2d_20">
      <g>
       <use xlink:href="#mbc014e5660" x="360.8064" y="298.944" style="stroke: #000000; stroke-width: 0.6"/>
      </g>
     </g>
    </g>
    <g id="text_5">
     <!-- log10(# f-evals / dimension) -->
     <g transform="translate(88.823278 339.314156)scale(0.17 -0.17)">
      <defs>
       <path id="DejaVuSans-6c" d="M 603 4863 
L 1178 4863 
L 1178 0 
L 603 0 
L 603 4863 
z
" transform="scale(0.015625)"/>
       <path id="DejaVuSans-6f" d="M 1959 3097 
Q 1497 3097 1228 2736 
Q 959 2375 959 1747 
Q 959 1119 1226 758 
Q 1494 397 1959 397 
Q 2419 397 2687 759 
Q 2956 1122 2956 1747 
Q 2956 2369 2687 2733 
Q 2419 3097 1959 3097 
z
M 1959 3584 
Q 2709 3584 3137 3096 
Q 3566 2609 3566 1747 
Q 3566 888 3137 398 
Q 2709 -91 1959 -91 
Q 1206 -91 779 398 
Q 353 888 353 1747 
Q 353 2609 779 3096 
Q 1206 3584 1959 3584 
z
" transform="scale(0.015625)"/>
       <path id="DejaVuSans-67" d="M 2906 1791 
Q 2906 2416 2648 2759 
Q 2391 3103 1925 3103 
Q 1463 3103 1205 2759 
Q 947 2416 947 1791 
Q 947 1169 1205 825 
Q 1463 481 1925 481 
Q 2391 481 2648 825 
Q 2906 1169 2906 1791 
z
M 3481 434 
Q 3481 -459 3084 -895 
Q 2688 -1331 1869 -1331 
Q 1566 -1331 1297 -1286 
Q 1028 -1241 775 -1147 
L 775 -588 
Q 1028 -725 1275 -790 
Q 1522 -856 1778 -856 
Q 2344 -856 2625 -561 
Q 2906 -266 2906 331 
L 2906 616 
Q 2728 306 2450 153 
Q 2172 0 1784 0 
Q 1141 0 747 490 
Q 353 981 353 1791 
Q 353 2603 747 3093 
Q 1141 3584 1784 3584 
Q 2172 3584 2450 3431 
Q 2728 3278 2906 2969 
L 2906 3500 
L 3481 3500 
L 3481 434 
z
" transform="scale(0.015625)"/>
       <path id="DejaVuSans-31" d="M 794 531 
L 1825 531 
L 1825 4091 
L 703 3866 
L 703 4441 
L 1819 4666 
L 2450 4666 
L 2450 531 
L 3481 531 
L 3481 0 
L 794 0 
L 794 531 
z
" transform="scale(0.015625)"/>
       <path id="DejaVuSans-28" d="M 1984 4856 
Q 1566 4138 1362 3434 
Q 1159 2731 1159 2009 
Q 1159 1288 1364 580 
Q 1569 -128 1984 -844 
L 1484 -844 
Q 1016 -109 783 600 
Q 550 1309 550 2009 
Q 550 2706 781 3412 
Q 1013 4119 1484 4856 
L 1984 4856 
z
" transform="scale(0.015625)"/>
       <path id="DejaVuSans-23" d="M 3272 2816 
L 2363 2816 
L 2100 1772 
L 3016 1772 
L 3272 2816 
z
M 2803 4594 
L 2478 3297 
L 3391 3297 
L 3719 4594 
L 4219 4594 
L 3897 3297 
L 4872 3297 
L 4872 2816 
L 3775 2816 
L 3519 1772 
L 4513 1772 
L 4513 1294 
L 3397 1294 
L 3072 0 
L 2572 0 
L 2894 1294 
L 1978 1294 
L 1656 0 
L 1153 0 
L 1478 1294 
L 494 1294 
L 494 1772 
L 1594 1772 
L 1856 2816 
L 850 2816 
L 850 3297 
L 1978 3297 
L 2297 4594 
L 2803 4594 
z
" transform="scale(0.015625)"/>
       <path id="DejaVuSans-20" transform="scale(0.015625)"/>
       <path id="DejaVuSans-66" d="M 2375 4863 
L 2375 4384 
L 1825 4384 
Q 1516 4384 1395 4259 
Q 1275 4134 1275 3809 
L 1275 3500 
L 2222 3500 
L 2222 3053 
L 1275 3053 
L 1275 0 
L 697 0 
L 697 3053 
L 147 3053 
L 147 3500 
L 697 3500 
L 697 3744 
Q 697 4328 969 4595 
Q 1241 4863 1831 4863 
L 2375 4863 
z
" transform="scale(0.015625)"/>
       <path id="DejaVuSans-2d" d="M 313 2009 
L 1997 2009 
L 1997 1497 
L 313 1497 
L 313 2009 
z
" transform="scale(0.015625)"/>
       <path id="DejaVuSans-65" d="M 3597 1894 
L 3597 1613 
L 953 1613 
Q 991 1019 1311 708 
Q 1631 397 2203 397 
Q 2534 397 2845 478 
Q 3156 559 3463 722 
L 3463 178 
Q 3153 47 2828 -22 
Q 2503 -91 2169 -91 
Q 1331 -91 842 396 
Q 353 884 353 1716 
Q 353 2575 817 3079 
Q 1281 3584 2069 3584 
Q 2775 3584 3186 3129 
Q 3597 2675 3597 1894 
z
M 3022 2063 
Q 3016 2534 2758 2815 
Q 2500 3097 2075 3097 
Q 1594 3097 1305 2825 
Q 1016 2553 972 2059 
L 3022 2063 
z
" transform="scale(0.015625)"/>
       <path id="DejaVuSans-76" d="M 191 3500 
L 800 3500 
L 1894 563 
L 2988 3500 
L 3597 3500 
L 2284 0 
L 1503 0 
L 191 3500 
z
" transform="scale(0.015625)"/>
       <path id="DejaVuSans-61" d="M 2194 1759 
Q 1497 1759 1228 1600 
Q 959 1441 959 1056 
Q 959 750 1161 570 
Q 1363 391 1709 391 
Q 2188 391 2477 730 
Q 2766 1069 2766 1631 
L 2766 1759 
L 2194 1759 
z
M 3341 1997 
L 3341 0 
L 2766 0 
L 2766 531 
Q 2569 213 2275 61 
Q 1981 -91 1556 -91 
Q 1019 -91 701 211 
Q 384 513 384 1019 
Q 384 1609 779 1909 
Q 1175 2209 1959 2209 
L 2766 2209 
L 2766 2266 
Q 2766 2663 2505 2880 
Q 2244 3097 1772 3097 
Q 1472 3097 1187 3025 
Q 903 2953 641 2809 
L 641 3341 
Q 956 3463 1253 3523 
Q 1550 3584 1831 3584 
Q 2591 3584 2966 3190 
Q 3341 2797 3341 1997 
z
" transform="scale(0.015625)"/>
       <path id="DejaVuSans-73" d="M 2834 3397 
L 2834 2853 
Q 2591 2978 2328 3040 
Q 2066 3103 1784 3103 
Q 1356 3103 1142 2972 
Q 928 2841 928 2578 
Q 928 2378 1081 2264 
Q 1234 2150 1697 2047 
L 1894 2003 
Q 2506 1872 2764 1633 
Q 3022 1394 3022 966 
Q 3022 478 2636 193 
Q 2250 -91 1575 -91 
Q 1294 -91 989 -36 
Q 684 19 347 128 
L 347 722 
Q 666 556 975 473 
Q 1284 391 1588 391 
Q 1994 391 2212 530 
Q 2431 669 2431 922 
Q 2431 1156 2273 1281 
Q 2116 1406 1581 1522 
L 1381 1569 
Q 847 1681 609 1914 
Q 372 2147 372 2553 
Q 372 3047 722 3315 
Q 1072 3584 1716 3584 
Q 2034 3584 2315 3537 
Q 2597 3491 2834 3397 
z
" transform="scale(0.015625)"/>
       <path id="DejaVuSans-2f" d="M 1625 4666 
L 2156 4666 
L 531 -594 
L 0 -594 
L 1625 4666 
z
" transform="scale(0.015625)"/>
       <path id="DejaVuSans-64" d="M 2906 2969 
L 2906 4863 
L 3481 4863 
L 3481 0 
L 2906 0 
L 2906 525 
Q 2725 213 2448 61 
Q 2172 -91 1784 -91 
Q 1150 -91 751 415 
Q 353 922 353 1747 
Q 353 2572 751 3078 
Q 1150 3584 1784 3584 
Q 2172 3584 2448 3432 
Q 2725 3281 2906 2969 
z
M 947 1747 
Q 947 1113 1208 752 
Q 1469 391 1925 391 
Q 2381 391 2643 752 
Q 2906 1113 2906 1747 
Q 2906 2381 2643 2742 
Q 2381 3103 1925 3103 
Q 1469 3103 1208 2742 
Q 947 2381 947 1747 
z
" transform="scale(0.015625)"/>
       <path id="DejaVuSans-69" d="M 603 3500 
L 1178 3500 
L 1178 0 
L 603 0 
L 603 3500 
z
M 603 4863 
L 1178 4863 
L 1178 4134 
L 603 4134 
L 603 4863 
z
" transform="scale(0.015625)"/>
       <path id="DejaVuSans-6d" d="M 3328 2828 
Q 3544 3216 3844 3400 
Q 4144 3584 4550 3584 
Q 5097 3584 5394 3201 
Q 5691 2819 5691 2113 
L 5691 0 
L 5113 0 
L 5113 2094 
Q 5113 2597 4934 2840 
Q 4756 3084 4391 3084 
Q 3944 3084 3684 2787 
Q 3425 2491 3425 1978 
L 3425 0 
L 2847 0 
L 2847 2094 
Q 2847 2600 2669 2842 
Q 2491 3084 2119 3084 
Q 1678 3084 1418 2786 
Q 1159 2488 1159 1978 
L 1159 0 
L 581 0 
L 581 3500 
L 1159 3500 
L 1159 2956 
Q 1356 3278 1631 3431 
Q 1906 3584 2284 3584 
Q 2666 3584 2933 3390 
Q 3200 3197 3328 2828 
z
" transform="scale(0.015625)"/>
       <path id="DejaVuSans-6e" d="M 3513 2113 
L 3513 0 
L 2938 0 
L 2938 2094 
Q 2938 2591 2744 2837 
Q 2550 3084 2163 3084 
Q 1697 3084 1428 2787 
Q 1159 2491 1159 1978 
L 1159 0 
L 581 0 
L 581 3500 
L 1159 3500 
L 1159 2956 
Q 1366 3272 1645 3428 
Q 1925 3584 2291 3584 
Q 2894 3584 3203 3211 
Q 3513 2838 3513 2113 
z
" transform="scale(0.015625)"/>
       <path id="DejaVuSans-29" d="M 513 4856 
L 1013 4856 
Q 1481 4119 1714 3412 
Q 1947 2706 1947 2009 
Q 1947 1309 1714 600 
Q 1481 -109 1013 -844 
L 513 -844 
Q 928 -128 1133 580 
Q 1338 1288 1338 2009 
Q 1338 2731 1133 3434 
Q 928 4138 513 4856 
z
" transform="scale(0.015625)"/>
      </defs>
      <use xlink:href="#DejaVuSans-6c"/>
      <use xlink:href="#DejaVuSans-6f" x="27.783203"/>
      <use xlink:href="#DejaVuSans-67" x="88.964844"/>
      <use xlink:href="#DejaVuSans-31" x="152.441406"/>
      <use xlink:href="#DejaVuSans-30" x="216.064453"/>
      <use xlink:href="#DejaVuSans-28" x="279.6875"/>
      <use xlink:href="#DejaVuSans-23" x="318.701172"/>
      <use xlink:href="#DejaVuSans-20" x="402.490234"/>
      <use xlink:href="#DejaVuSans-66" x="434.277344"/>
      <use xlink:href="#DejaVuSans-2d" x="463.982422"/>
      <use xlink:href="#DejaVuSans-65" x="500.066406"/>
      <use xlink:href="#DejaVuSans-76" x="561.589844"/>
      <use xlink:href="#DejaVuSans-61" x="620.769531"/>
      <use xlink:href="#DejaVuSans-6c" x="682.048828"/>
      <use xlink:href="#DejaVuSans-73" x="709.832031"/>
      <use xlink:href="#DejaVuSans-20" x="761.931641"/>
      <use xlink:href="#DejaVuSans-2f" x="793.71875"/>
      <use xlink:href="#DejaVuSans-20" x="827.410156"/>
      <use xlink:href="#DejaVuSans-64" x="859.197266"/>
      <use xlink:href="#DejaVuSans-69" x="922.673828"/>
      <use xlink:href="#DejaVuSans-6d" x="950.457031"/>
      <use xlink:href="#DejaVuSans-65" x="1047.869141"/>
      <use xlink:href="#DejaVuSans-6e" x="1109.392578"/>
      <use xlink:href="#DejaVuSans-73" x="1172.771484"/>
      <use xlink:href="#DejaVuSans-69" x="1224.871094"/>
      <use xlink:href="#DejaVuSans-6f" x="1252.654297"/>
      <use xlink:href="#DejaVuSans-6e" x="1313.835938"/>
      <use xlink:href="#DejaVuSans-29" x="1377.214844"/>
     </g>
    </g>
   </g>
   <g id="matplotlib.axis_2">
    <g id="ytick_1">
     <g id="line2d_21">
      <path d="M 57.6 298.944 
L 360.8064 298.944 
" clip-path="url(#p724cd25e06)" style="fill: none; stroke: #b0b0b0; stroke-width: 0.8; stroke-linecap: square"/>
     </g>
     <g id="line2d_22">
      <defs>
       <path id="m1880cde1da" d="M 0 0 
L -3.5 0 
" style="stroke: #000000; stroke-width: 0.8"/>
      </defs>
      <g>
       <use xlink:href="#m1880cde1da" x="57.6" y="298.944" style="stroke: #000000; stroke-width: 0.8"/>
      </g>
     </g>
     <g id="text_6">
      <!-- 0.0 -->
      <g transform="translate(25.155 305.02275)scale(0.16 -0.16)">
       <defs>
        <path id="DejaVuSans-2e" d="M 684 794 
L 1344 794 
L 1344 0 
L 684 0 
L 684 794 
z
" transform="scale(0.015625)"/>
       </defs>
       <use xlink:href="#DejaVuSans-30"/>
       <use xlink:href="#DejaVuSans-2e" x="63.623047"/>
       <use xlink:href="#DejaVuSans-30" x="95.410156"/>
      </g>
     </g>
    </g>
    <g id="ytick_2">
     <g id="line2d_23">
      <path d="M 57.6 244.6848 
L 360.8064 244.6848 
" clip-path="url(#p724cd25e06)" style="fill: none; stroke: #b0b0b0; stroke-width: 0.8; stroke-linecap: square"/>
     </g>
     <g id="line2d_24">
      <g>
       <use xlink:href="#m1880cde1da" x="57.6" y="244.6848" style="stroke: #000000; stroke-width: 0.8"/>
      </g>
     </g>
     <g id="text_7">
      <!-- 0.2 -->
      <g transform="translate(25.155 250.76355)scale(0.16 -0.16)">
       <use xlink:href="#DejaVuSans-30"/>
       <use xlink:href="#DejaVuSans-2e" x="63.623047"/>
       <use xlink:href="#DejaVuSans-32" x="95.410156"/>
      </g>
     </g>
    </g>
    <g id="ytick_3">
     <g id="line2d_25">
      <path d="M 57.6 190.4256 
L 360.8064 190.4256 
" clip-path="url(#p724cd25e06)" style="fill: none; stroke: #b0b0b0; stroke-width: 0.8; stroke-linecap: square"/>
     </g>
     <g id="line2d_26">
      <g>
       <use xlink:href="#m1880cde1da" x="57.6" y="190.4256" style="stroke: #000000; stroke-width: 0.8"/>
      </g>
     </g>
     <g id="text_8">
      <!-- 0.4 -->
      <g transform="translate(25.155 196.50435)scale(0.16 -0.16)">
       <use xlink:href="#DejaVuSans-30"/>
       <use xlink:href="#DejaVuSans-2e" x="63.623047"/>
       <use xlink:href="#DejaVuSans-34" x="95.410156"/>
      </g>
     </g>
    </g>
    <g id="ytick_4">
     <g id="line2d_27">
      <path d="M 57.6 136.1664 
L 360.8064 136.1664 
" clip-path="url(#p724cd25e06)" style="fill: none; stroke: #b0b0b0; stroke-width: 0.8; stroke-linecap: square"/>
     </g>
     <g id="line2d_28">
      <g>
       <use xlink:href="#m1880cde1da" x="57.6" y="136.1664" style="stroke: #000000; stroke-width: 0.8"/>
      </g>
     </g>
     <g id="text_9">
      <!-- 0.6 -->
      <g transform="translate(25.155 142.24515)scale(0.16 -0.16)">
       <use xlink:href="#DejaVuSans-30"/>
       <use xlink:href="#DejaVuSans-2e" x="63.623047"/>
       <use xlink:href="#DejaVuSans-36" x="95.410156"/>
      </g>
     </g>
    </g>
    <g id="ytick_5">
     <g id="line2d_29">
      <path d="M 57.6 81.9072 
L 360.8064 81.9072 
" clip-path="url(#p724cd25e06)" style="fill: none; stroke: #b0b0b0; stroke-width: 0.8; stroke-linecap: square"/>
     </g>
     <g id="line2d_30">
      <g>
       <use xlink:href="#m1880cde1da" x="57.6" y="81.9072" style="stroke: #000000; stroke-width: 0.8"/>
      </g>
     </g>
     <g id="text_10">
      <!-- 0.8 -->
      <g transform="translate(25.155 87.98595)scale(0.16 -0.16)">
       <defs>
        <path id="DejaVuSans-38" d="M 2034 2216 
Q 1584 2216 1326 1975 
Q 1069 1734 1069 1313 
Q 1069 891 1326 650 
Q 1584 409 2034 409 
Q 2484 409 2743 651 
Q 3003 894 3003 1313 
Q 3003 1734 2745 1975 
Q 2488 2216 2034 2216 
z
M 1403 2484 
Q 997 2584 770 2862 
Q 544 3141 544 3541 
Q 544 4100 942 4425 
Q 1341 4750 2034 4750 
Q 2731 4750 3128 4425 
Q 3525 4100 3525 3541 
Q 3525 3141 3298 2862 
Q 3072 2584 2669 2484 
Q 3125 2378 3379 2068 
Q 3634 1759 3634 1313 
Q 3634 634 3220 271 
Q 2806 -91 2034 -91 
Q 1263 -91 848 271 
Q 434 634 434 1313 
Q 434 1759 690 2068 
Q 947 2378 1403 2484 
z
M 1172 3481 
Q 1172 3119 1398 2916 
Q 1625 2713 2034 2713 
Q 2441 2713 2670 2916 
Q 2900 3119 2900 3481 
Q 2900 3844 2670 4047 
Q 2441 4250 2034 4250 
Q 1625 4250 1398 4047 
Q 1172 3844 1172 3481 
z
" transform="scale(0.015625)"/>
       </defs>
       <use xlink:href="#DejaVuSans-30"/>
       <use xlink:href="#DejaVuSans-2e" x="63.623047"/>
       <use xlink:href="#DejaVuSans-38" x="95.410156"/>
      </g>
     </g>
    </g>
    <g id="ytick_6">
     <g id="line2d_31">
      <path d="M 57.6 27.648 
L 360.8064 27.648 
" clip-path="url(#p724cd25e06)" style="fill: none; stroke: #b0b0b0; stroke-width: 0.8; stroke-linecap: square"/>
     </g>
     <g id="line2d_32">
      <g>
       <use xlink:href="#m1880cde1da" x="57.6" y="27.648" style="stroke: #000000; stroke-width: 0.8"/>
      </g>
     </g>
     <g id="text_11">
      <!-- 1.0 -->
      <g transform="translate(25.155 33.72675)scale(0.16 -0.16)">
       <use xlink:href="#DejaVuSans-31"/>
       <use xlink:href="#DejaVuSans-2e" x="63.623047"/>
       <use xlink:href="#DejaVuSans-30" x="95.410156"/>
      </g>
     </g>
    </g>
    <g id="text_12">
     <!-- Fraction of function,target pairs -->
     <g transform="translate(17.619531 297.681)rotate(-90)scale(0.17 -0.17)">
      <defs>
       <path id="DejaVuSans-46" d="M 628 4666 
L 3309 4666 
L 3309 4134 
L 1259 4134 
L 1259 2759 
L 3109 2759 
L 3109 2228 
L 1259 2228 
L 1259 0 
L 628 0 
L 628 4666 
z
" transform="scale(0.015625)"/>
       <path id="DejaVuSans-72" d="M 2631 2963 
Q 2534 3019 2420 3045 
Q 2306 3072 2169 3072 
Q 1681 3072 1420 2755 
Q 1159 2438 1159 1844 
L 1159 0 
L 581 0 
L 581 3500 
L 1159 3500 
L 1159 2956 
Q 1341 3275 1631 3429 
Q 1922 3584 2338 3584 
Q 2397 3584 2469 3576 
Q 2541 3569 2628 3553 
L 2631 2963 
z
" transform="scale(0.015625)"/>
       <path id="DejaVuSans-63" d="M 3122 3366 
L 3122 2828 
Q 2878 2963 2633 3030 
Q 2388 3097 2138 3097 
Q 1578 3097 1268 2742 
Q 959 2388 959 1747 
Q 959 1106 1268 751 
Q 1578 397 2138 397 
Q 2388 397 2633 464 
Q 2878 531 3122 666 
L 3122 134 
Q 2881 22 2623 -34 
Q 2366 -91 2075 -91 
Q 1284 -91 818 406 
Q 353 903 353 1747 
Q 353 2603 823 3093 
Q 1294 3584 2113 3584 
Q 2378 3584 2631 3529 
Q 2884 3475 3122 3366 
z
" transform="scale(0.015625)"/>
       <path id="DejaVuSans-74" d="M 1172 4494 
L 1172 3500 
L 2356 3500 
L 2356 3053 
L 1172 3053 
L 1172 1153 
Q 1172 725 1289 603 
Q 1406 481 1766 481 
L 2356 481 
L 2356 0 
L 1766 0 
Q 1100 0 847 248 
Q 594 497 594 1153 
L 594 3053 
L 172 3053 
L 172 3500 
L 594 3500 
L 594 4494 
L 1172 4494 
z
" transform="scale(0.015625)"/>
       <path id="DejaVuSans-75" d="M 544 1381 
L 544 3500 
L 1119 3500 
L 1119 1403 
Q 1119 906 1312 657 
Q 1506 409 1894 409 
Q 2359 409 2629 706 
Q 2900 1003 2900 1516 
L 2900 3500 
L 3475 3500 
L 3475 0 
L 2900 0 
L 2900 538 
Q 2691 219 2414 64 
Q 2138 -91 1772 -91 
Q 1169 -91 856 284 
Q 544 659 544 1381 
z
M 1991 3584 
L 1991 3584 
z
" transform="scale(0.015625)"/>
       <path id="DejaVuSans-2c" d="M 750 794 
L 1409 794 
L 1409 256 
L 897 -744 
L 494 -744 
L 750 256 
L 750 794 
z
" transform="scale(0.015625)"/>
       <path id="DejaVuSans-70" d="M 1159 525 
L 1159 -1331 
L 581 -1331 
L 581 3500 
L 1159 3500 
L 1159 2969 
Q 1341 3281 1617 3432 
Q 1894 3584 2278 3584 
Q 2916 3584 3314 3078 
Q 3713 2572 3713 1747 
Q 3713 922 3314 415 
Q 2916 -91 2278 -91 
Q 1894 -91 1617 61 
Q 1341 213 1159 525 
z
M 3116 1747 
Q 3116 2381 2855 2742 
Q 2594 3103 2138 3103 
Q 1681 3103 1420 2742 
Q 1159 2381 1159 1747 
Q 1159 1113 1420 752 
Q 1681 391 2138 391 
Q 2594 391 2855 752 
Q 3116 1113 3116 1747 
z
" transform="scale(0.015625)"/>
      </defs>
      <use xlink:href="#DejaVuSans-46"/>
      <use xlink:href="#DejaVuSans-72" x="50.269531"/>
      <use xlink:href="#DejaVuSans-61" x="91.382812"/>
      <use xlink:href="#DejaVuSans-63" x="152.662109"/>
      <use xlink:href="#DejaVuSans-74" x="207.642578"/>
      <use xlink:href="#DejaVuSans-69" x="246.851562"/>
      <use xlink:href="#DejaVuSans-6f" x="274.634766"/>
      <use xlink:href="#DejaVuSans-6e" x="335.816406"/>
      <use xlink:href="#DejaVuSans-20" x="399.195312"/>
      <use xlink:href="#DejaVuSans-6f" x="430.982422"/>
      <use xlink:href="#DejaVuSans-66" x="492.164062"/>
      <use xlink:href="#DejaVuSans-20" x="527.369141"/>
      <use xlink:href="#DejaVuSans-66" x="559.15625"/>
      <use xlink:href="#DejaVuSans-75" x="594.361328"/>
      <use xlink:href="#DejaVuSans-6e" x="657.740234"/>
      <use xlink:href="#DejaVuSans-63" x="721.119141"/>
      <use xlink:href="#DejaVuSans-74" x="776.099609"/>
      <use xlink:href="#DejaVuSans-69" x="815.308594"/>
      <use xlink:href="#DejaVuSans-6f" x="843.091797"/>
      <use xlink:href="#DejaVuSans-6e" x="904.273438"/>
      <use xlink:href="#DejaVuSans-2c" x="967.652344"/>
      <use xlink:href="#DejaVuSans-74" x="999.439453"/>
      <use xlink:href="#DejaVuSans-61" x="1038.648438"/>
      <use xlink:href="#DejaVuSans-72" x="1099.927734"/>
      <use xlink:href="#DejaVuSans-67" x="1139.291016"/>
      <use xlink:href="#DejaVuSans-65" x="1202.767578"/>
      <use xlink:href="#DejaVuSans-74" x="1264.291016"/>
      <use xlink:href="#DejaVuSans-20" x="1303.5"/>
      <use xlink:href="#DejaVuSans-70" x="1335.287109"/>
      <use xlink:href="#DejaVuSans-61" x="1398.763672"/>
      <use xlink:href="#DejaVuSans-69" x="1460.042969"/>
      <use xlink:href="#DejaVuSans-72" x="1487.826172"/>
      <use xlink:href="#DejaVuSans-73" x="1528.939453"/>
     </g>
    </g>
   </g>
   <g id="line2d_33">
    <defs>
     <path id="m8bdaf0c7d2" d="M 0 1.5 
C 0.397805 1.5 0.77937 1.341951 1.06066 1.06066 
C 1.341951 0.77937 1.5 0.397805 1.5 0 
C 1.5 -0.397805 1.341951 -0.77937 1.06066 -1.06066 
C 0.77937 -1.341951 0.397805 -1.5 0 -1.5 
C -0.397805 -1.5 -0.77937 -1.341951 -1.06066 -1.06066 
C -1.341951 -0.77937 -1.5 -0.397805 -1.5 0 
C -1.5 0.397805 -1.341951 0.77937 -1.06066 1.06066 
C -0.77937 1.341951 -0.397805 1.5 0 1.5 
z
" style="stroke: #f5deb3"/>
    </defs>
    <g>
     <use xlink:href="#m8bdaf0c7d2" x="158.717331" y="27.648" style="fill: #f5deb3; stroke: #f5deb3"/>
     <use xlink:href="#m8bdaf0c7d2" x="158.717331" y="27.648" style="fill: #f5deb3; stroke: #f5deb3"/>
    </g>
   </g>
   <g id="line2d_34">
    <defs>
     <path id="m46785c3a8a" d="M 0 1.5 
C 0.397805 1.5 0.77937 1.341951 1.06066 1.06066 
C 1.341951 0.77937 1.5 0.397805 1.5 0 
C 1.5 -0.397805 1.341951 -0.77937 1.06066 -1.06066 
C 0.77937 -1.341951 0.397805 -1.5 0 -1.5 
C -0.397805 -1.5 -0.77937 -1.341951 -1.06066 -1.06066 
C -1.341951 -0.77937 -1.5 -0.397805 -1.5 0 
C -1.5 0.397805 -1.341951 0.77937 -1.06066 1.06066 
C -0.77937 1.341951 -0.397805 1.5 0 1.5 
z
" style="stroke: #000080"/>
    </defs>
    <g>
     <use xlink:href="#m46785c3a8a" x="308.239615" y="27.648" style="fill: #000080; stroke: #000080"/>
     <use xlink:href="#m46785c3a8a" x="308.239615" y="27.648" style="fill: #000080; stroke: #000080"/>
    </g>
   </g>
   <g id="line2d_35">
    <path d="M 27.323974 298.944 
L 27.323974 292.205929 
L 40.363149 292.205929 
L 40.363149 290.787388 
L 57.6 290.787388 
L 57.6 289.368847 
L 61.029752 289.368847 
L 61.029752 289.014212 
L 63.929565 289.014212 
L 63.929565 288.659576 
L 70.639174 288.659576 
L 70.639174 287.950306 
L 74.068926 287.950306 
L 74.068926 287.241035 
L 75.574654 287.241035 
L 75.574654 286.531765 
L 76.96874 286.531765 
L 76.96874 285.113224 
L 78.266603 285.113224 
L 78.266603 284.049318 
L 82.713442 284.049318 
L 82.713442 283.694682 
L 83.678349 283.694682 
L 83.678349 283.340047 
L 84.596168 283.340047 
L 84.596168 282.985412 
L 85.471281 282.985412 
L 85.471281 282.630776 
L 86.307488 282.630776 
L 86.307488 281.921506 
L 87.1081 281.921506 
L 87.1081 281.566871 
L 87.876026 281.566871 
L 87.876026 281.212235 
L 90.668036 281.212235 
L 90.668036 279.084424 
L 93.66029 279.084424 
L 93.66029 278.729788 
L 94.735529 278.729788 
L 94.735529 278.375153 
L 95.752617 278.375153 
L 95.752617 278.020518 
L 101.287718 278.020518 
L 101.287718 277.311247 
L 102.708132 277.311247 
L 102.708132 276.956612 
L 106.137884 276.956612 
L 106.137884 275.538071 
L 106.699465 275.538071 
L 106.699465 275.183435 
L 108.29012 275.183435 
L 108.29012 274.474165 
L 110.449226 274.474165 
L 110.449226 274.119529 
L 114.141556 274.119529 
L 114.141556 273.410259 
L 117.226706 273.410259 
L 117.226706 273.055624 
L 117.540239 273.055624 
L 117.540239 272.700988 
L 121.581803 272.700988 
L 121.581803 271.282447 
L 123.374735 271.282447 
L 123.374735 270.927812 
L 125.322496 270.927812 
L 125.322496 269.863906 
L 125.628382 269.863906 
L 125.628382 269.509271 
L 126.028642 269.509271 
L 126.028642 268.8 
L 129.7043 268.8 
L 129.7043 268.090729 
L 131.191226 268.090729 
L 131.191226 267.736094 
L 131.41562 267.736094 
L 131.41562 267.026824 
L 134.683578 267.026824 
L 134.683578 266.317553 
L 136.184497 266.317553 
L 136.184497 265.962918 
L 136.640557 265.962918 
L 136.640557 265.608282 
L 137.627979 265.608282 
L 137.627979 264.899012 
L 138.918715 264.899012 
L 138.918715 263.835106 
L 144.305496 263.835106 
L 144.305496 263.125835 
L 144.749884 263.125835 
L 144.786447 260.998024 
L 145.184016 260.998024 
L 145.184016 259.934118 
L 145.46797 259.934118 
L 145.46797 259.579482 
L 146.761135 259.579482 
L 146.793994 257.806306 
L 147.785146 257.806306 
L 147.785146 257.097035 
L 149.338728 257.097035 
L 149.338728 255.678494 
L 149.453084 255.678494 
L 149.453084 255.323859 
L 149.79204 255.323859 
L 149.820013 254.614588 
L 150.042308 254.614588 
L 150.042308 252.486776 
L 150.425115 252.486776 
L 150.425115 252.132141 
L 151.116012 252.132141 
L 151.116012 251.777506 
L 151.27191 251.777506 
L 151.27191 251.422871 
L 151.452172 251.422871 
L 151.452172 251.068235 
L 152.032588 251.068235 
L 152.032588 250.7136 
L 152.930279 250.7136 
L 152.930279 250.358965 
L 154.190197 250.358965 
L 154.190197 249.649694 
L 154.388563 249.649694 
L 154.388563 248.585788 
L 154.584859 248.585788 
L 154.693034 247.876518 
L 155.140696 247.876518 
L 155.140696 247.521882 
L 155.924624 247.521882 
L 155.924624 246.457976 
L 156.324459 246.457976 
L 156.324459 246.103341 
L 158.294582 246.103341 
L 158.294582 245.748706 
L 158.542339 245.748706 
L 158.542339 245.394071 
L 159.468527 245.394071 
L 159.468527 245.039435 
L 159.717911 245.039435 
L 159.717911 244.330165 
L 160.667947 244.330165 
L 160.746296 243.266259 
L 160.855439 243.266259 
L 160.855439 242.911624 
L 161.497325 242.911624 
L 161.497325 241.847718 
L 162.103487 241.847718 
L 162.103487 241.138447 
L 163.679588 241.138447 
L 163.679588 240.783812 
L 164.102932 240.783812 
L 164.102932 240.429176 
L 165.634805 240.429176 
L 165.64686 237.946729 
L 166.792265 237.946729 
L 166.792265 237.237459 
L 168.513935 237.237459 
L 168.606832 234.755012 
L 168.658244 234.755012 
L 168.658244 234.400376 
L 169.204718 234.400376 
L 169.204718 233.691106 
L 169.32403 233.691106 
L 169.363634 232.981835 
L 169.638546 232.981835 
L 169.696937 232.272565 
L 170.091163 232.272565 
L 170.110183 230.144753 
L 171.064631 230.144753 
L 171.064631 229.790118 
L 173.41436 229.790118 
L 173.41436 229.080847 
L 174.901062 229.080847 
L 174.901062 228.726212 
L 175.309232 228.726212 
L 175.309232 228.371576 
L 176.065329 228.371576 
L 176.065329 228.016941 
L 176.217092 228.016941 
L 176.217092 226.953035 
L 176.33353 226.953035 
L 176.33353 226.5984 
L 176.765533 226.5984 
L 176.765533 226.243765 
L 177.382575 226.243765 
L 177.389032 224.115953 
L 177.613631 224.115953 
L 177.613631 223.761318 
L 177.734443 223.761318 
L 177.734443 223.406682 
L 184.79568 223.406682 
L 184.79568 223.052047 
L 187.477756 223.052047 
L 187.477756 221.988141 
L 187.918118 221.988141 
L 187.918118 221.633506 
L 188.538515 221.633506 
L 188.538515 221.278871 
L 190.35058 221.278871 
L 190.392667 220.5696 
L 192.426011 220.5696 
L 192.426011 220.214965 
L 193.566283 220.214965 
L 193.566283 219.860329 
L 194.703191 219.860329 
L 194.703191 219.505694 
L 194.877255 219.505694 
L 194.877255 219.151059 
L 196.325861 219.151059 
L 196.325861 218.796424 
L 199.594108 218.796424 
L 199.635703 217.732518 
L 200.669237 217.732518 
L 200.669237 217.377882 
L 202.75693 217.377882 
L 202.75693 216.668612 
L 203.371919 216.668612 
L 203.371919 216.313976 
L 203.483513 216.313976 
L 203.504464 215.604706 
L 203.701546 215.604706 
L 203.701546 215.250071 
L 203.839709 215.250071 
L 203.839709 214.895435 
L 205.393938 214.895435 
L 205.393938 214.5408 
L 208.159456 214.5408 
L 208.159456 214.186165 
L 209.121659 214.186165 
L 209.121659 213.831529 
L 211.859119 213.831529 
L 211.859119 213.476894 
L 214.983538 213.476894 
L 215.031601 212.767624 
L 215.293346 212.767624 
L 215.293346 212.412988 
L 215.876382 212.412988 
L 215.876382 212.058353 
L 216.481524 212.058353 
L 216.504942 209.575906 
L 217.381596 209.575906 
L 217.41315 208.866635 
L 217.653074 208.866635 
L 217.653074 208.512 
L 217.947616 208.512 
L 217.947616 208.157365 
L 219.00416 208.157365 
L 219.00416 207.448094 
L 219.538474 207.448094 
L 219.559068 206.738824 
L 219.884861 206.738824 
L 219.935366 206.029553 
L 220.373397 206.029553 
L 220.373397 205.674918 
L 220.823924 205.674918 
L 220.823924 205.320282 
L 222.167404 205.320282 
L 222.204993 204.611012 
L 223.168171 204.611012 
L 223.168171 204.256376 
L 223.518824 204.256376 
L 223.618611 203.192471 
L 223.931157 203.192471 
L 223.968642 199.646118 
L 225.022884 199.646118 
L 225.022884 199.291482 
L 225.218903 199.291482 
L 225.218903 198.936847 
L 225.783172 198.936847 
L 225.783172 198.582212 
L 225.916252 198.582212 
L 225.916252 198.227576 
L 226.282599 198.227576 
L 226.282599 197.872941 
L 226.477861 197.872941 
L 226.477861 197.518306 
L 226.921876 197.518306 
L 226.921876 197.163671 
L 227.110646 197.163671 
L 227.110646 196.809035 
L 227.340233 196.809035 
L 227.340233 196.4544 
L 227.603771 196.4544 
L 227.603771 196.099765 
L 227.939843 196.099765 
L 227.939843 195.745129 
L 228.115234 195.745129 
L 228.115234 195.390494 
L 228.425248 195.390494 
L 228.425248 195.035859 
L 228.537964 195.035859 
L 228.626721 193.971953 
L 228.841982 193.971953 
L 228.841982 193.617318 
L 228.969301 193.617318 
L 229.024136 192.908047 
L 229.141577 192.908047 
L 229.226717 191.489506 
L 229.385679 191.489506 
L 229.430387 190.780235 
L 229.558234 190.780235 
L 229.667587 188.652424 
L 229.822484 188.652424 
L 229.926759 186.169976 
L 230.115983 186.169976 
L 230.213197 185.106071 
L 230.233435 185.106071 
L 230.283548 184.3968 
L 230.364456 184.3968 
L 230.414607 183.332894 
L 230.526386 183.332894 
L 230.623793 180.850447 
L 230.779736 180.850447 
L 230.859295 179.077271 
L 231.037548 179.077271 
L 231.105631 178.013365 
L 231.337782 178.013365 
L 231.411732 176.949459 
L 231.507217 176.949459 
L 231.538091 175.530918 
L 231.636549 175.530918 
L 231.688826 174.821647 
L 231.777544 174.821647 
L 231.884026 172.693835 
L 231.900409 172.693835 
L 231.953734 171.629929 
L 232.012571 171.629929 
L 232.100483 169.502118 
L 232.123716 169.502118 
L 232.201655 168.083576 
L 232.262167 168.083576 
L 232.342317 166.665035 
L 232.389204 166.665035 
L 232.484007 162.054776 
L 232.56803 162.054776 
L 232.679026 160.2816 
L 232.684148 160.2816 
L 232.737003 159.572329 
L 232.799214 159.572329 
L 232.902783 157.444518 
L 232.928081 157.444518 
L 233.017195 156.025976 
L 233.046024 156.025976 
L 233.100879 153.543529 
L 233.168891 153.543529 
L 233.272766 151.770353 
L 233.294597 151.770353 
L 233.374097 148.578635 
L 233.481758 148.578635 
L 233.530789 145.386918 
L 233.594014 145.386918 
L 233.702692 143.259106 
L 233.71595 143.259106 
L 233.749216 141.485929 
L 233.916585 141.485929 
L 234.026283 139.358118 
L 234.077722 139.358118 
L 234.16914 137.230306 
L 234.223022 137.230306 
L 234.223966 136.521035 
L 234.399967 136.521035 
L 234.48425 134.747859 
L 234.549613 134.747859 
L 234.629536 131.910776 
L 234.698692 131.910776 
L 234.772179 130.846871 
L 234.828326 130.846871 
L 234.93103 129.428329 
L 235.008447 129.428329 
L 235.117077 127.300518 
L 235.123677 127.300518 
L 235.220907 125.527341 
L 235.304867 125.527341 
L 235.406782 123.754165 
L 235.473733 123.754165 
L 235.572104 122.335624 
L 235.610724 122.335624 
L 235.686272 120.207812 
L 235.725821 120.207812 
L 235.832709 118.08 
L 235.862726 118.08 
L 235.91974 117.016094 
L 235.98432 117.016094 
L 235.98432 116.661459 
L 236.144949 116.661459 
L 236.201682 115.597553 
L 236.267843 115.597553 
L 236.376194 113.469741 
L 236.587158 113.469741 
L 236.587158 113.115106 
L 236.827863 113.115106 
L 236.876839 112.405835 
L 237.162665 112.405835 
L 237.162665 112.0512 
L 237.468325 112.0512 
L 237.468325 111.696565 
L 237.735973 111.696565 
L 237.842702 110.987294 
L 237.892216 110.987294 
L 237.892216 110.632659 
L 238.170019 110.632659 
L 238.199842 109.568753 
L 238.313095 109.568753 
L 238.366942 108.504847 
L 238.602007 108.504847 
L 238.696754 105.313129 
L 238.76707 105.313129 
L 238.76707 104.249224 
L 238.89465 104.249224 
L 238.89465 103.894588 
L 239.390992 103.894588 
L 239.390992 103.539953 
L 240.91453 103.539953 
L 241.023128 102.830682 
L 241.252758 102.830682 
L 241.252758 102.476047 
L 241.678178 102.476047 
L 241.678178 102.121412 
L 241.843632 102.121412 
L 241.843632 101.766776 
L 243.021008 101.766776 
L 243.129502 100.702871 
L 243.503415 100.702871 
L 243.503415 100.348235 
L 243.650962 100.348235 
L 243.666777 99.638965 
L 244.320199 99.638965 
L 244.320199 99.284329 
L 273.967051 99.284329 
L 274.037793 96.092612 
L 274.083861 96.092612 
L 274.143993 94.674071 
L 274.201604 94.674071 
L 274.286625 88.999906 
L 274.362511 88.999906 
L 274.418269 87.581365 
L 274.47364 87.581365 
L 274.529586 86.872094 
L 274.593612 86.872094 
L 274.618066 86.162824 
L 274.848899 86.162824 
L 274.848899 85.808188 
L 274.967952 85.808188 
L 275.074567 84.035012 
L 275.223511 84.035012 
L 275.223511 83.680376 
L 275.386001 83.680376 
L 275.436876 82.616471 
L 275.595832 82.616471 
L 275.595832 82.261835 
L 275.73525 82.261835 
L 275.843297 80.843294 
L 275.855586 80.843294 
L 275.964964 76.587671 
L 275.985069 76.587671 
L 276.088875 72.332047 
L 276.113125 72.332047 
L 276.222877 64.884706 
L 276.227027 64.884706 
L 276.337728 58.501271 
L 276.344502 58.501271 
L 276.438277 53.891012 
L 276.476202 53.891012 
L 276.5678 52.117835 
L 276.763938 52.117835 
L 276.841745 49.635388 
L 277.253201 49.635388 
L 277.253201 49.280753 
L 277.46208 49.280753 
L 277.564478 47.862212 
L 287.11099 47.862212 
L 287.122941 47.152941 
L 287.227981 47.152941 
L 287.26661 45.025129 
L 287.344267 45.025129 
L 287.432077 44.315859 
L 287.621891 44.315859 
L 287.682764 43.251953 
L 288.049482 43.251953 
L 288.159597 42.542682 
L 288.230489 42.542682 
L 288.322232 40.414871 
L 288.345063 40.414871 
L 288.421295 38.287059 
L 288.486128 38.287059 
L 288.583599 36.868518 
L 288.764015 36.868518 
L 288.764015 36.513882 
L 289.046699 36.513882 
L 289.046699 36.159247 
L 294.780082 36.159247 
L 294.780082 35.804612 
L 294.934117 35.804612 
L 294.94234 35.095341 
L 295.430012 35.095341 
L 295.529884 33.322165 
L 295.545137 33.322165 
L 295.655213 30.839718 
L 295.779975 30.839718 
L 295.779975 30.485082 
L 300.272954 30.485082 
L 300.272954 30.130447 
L 300.576941 30.130447 
L 300.576941 29.775812 
L 300.757778 29.775812 
L 300.81927 28.711906 
L 304.829028 28.711906 
L 304.882137 28.002635 
L 308.239615 28.002635 
L 308.239615 27.648 
L 360.8064 27.648 
L 360.8064 27.648 
" style="fill: none; stroke: #000080; stroke-width: 1.5; stroke-linecap: square"/>
   </g>
   <g id="line2d_36">
    <defs>
     <path id="mf4273084cc" d="M 0 6 
C 1.591219 6 3.117479 5.367802 4.242641 4.242641 
C 5.367802 3.117479 6 1.591219 6 0 
C 6 -1.591219 5.367802 -3.117479 4.242641 -4.242641 
C 3.117479 -5.367802 1.591219 -6 0 -6 
C -1.591219 -6 -3.117479 -5.367802 -4.242641 -4.242641 
C -5.367802 -3.117479 -6 -1.591219 -6 0 
C -6 1.591219 -5.367802 3.117479 -4.242641 4.242641 
C -3.117479 5.367802 -1.591219 6 0 6 
z
" style="stroke: #000080; stroke-width: 1.5"/>
    </defs>
    <g>
     <use xlink:href="#mf4273084cc" x="149.338728" y="257.097035" style="fill-opacity: 0; stroke: #000080; stroke-width: 1.5"/>
     <use xlink:href="#mf4273084cc" x="203.839709" y="215.250071" style="fill-opacity: 0; stroke: #000080; stroke-width: 1.5"/>
     <use xlink:href="#mf4273084cc" x="275.876873" y="79.779388" style="fill-opacity: 0; stroke: #000080; stroke-width: 1.5"/>
     <use xlink:href="#mf4273084cc" x="308.239615" y="28.002635" style="fill-opacity: 0; stroke: #000080; stroke-width: 1.5"/>
     <use xlink:href="#mf4273084cc" x="308.239615" y="27.648" style="fill-opacity: 0; stroke: #000080; stroke-width: 1.5"/>
     <use xlink:href="#mf4273084cc" x="360.8064" y="27.648" style="fill-opacity: 0; stroke: #000080; stroke-width: 1.5"/>
    </g>
   </g>
   <g id="line2d_37">
    <path style="fill: none; stroke: #000080; stroke-width: 1.5; stroke-linecap: square"/>
    <g/>
   </g>
   <g id="line2d_38">
    <path d="M 274.176 94.674071 
" clip-path="url(#p724cd25e06)" style="fill: none; stroke: #000080; stroke-width: 1.5; stroke-linecap: square"/>
    <defs>
     <path id="mc68e8dbf5e" d="M -12 12 
L 12 -12 
M -12 -12 
L 12 12 
" style="stroke: #000080"/>
    </defs>
    <g clip-path="url(#p724cd25e06)">
     <use xlink:href="#mc68e8dbf5e" x="274.176" y="94.674071" style="fill: #000080; stroke: #000080"/>
    </g>
   </g>
   <g id="line2d_39">
    <defs>
     <path id="m9977e07e82" d="M 0 1.5 
C 0.397805 1.5 0.77937 1.341951 1.06066 1.06066 
C 1.341951 0.77937 1.5 0.397805 1.5 0 
C 1.5 -0.397805 1.341951 -0.77937 1.06066 -1.06066 
C 0.77937 -1.341951 0.397805 -1.5 0 -1.5 
C -0.397805 -1.5 -0.77937 -1.341951 -1.06066 -1.06066 
C -1.341951 -0.77937 -1.5 -0.397805 -1.5 0 
C -1.5 0.397805 -1.341951 0.77937 -1.06066 1.06066 
C -0.77937 1.341951 -0.397805 1.5 0 1.5 
z
" style="stroke: #ff00ff"/>
    </defs>
    <g>
     <use xlink:href="#m9977e07e82" x="313.296886" y="27.648" style="fill: #ff00ff; stroke: #ff00ff"/>
     <use xlink:href="#m9977e07e82" x="313.296886" y="27.648" style="fill: #ff00ff; stroke: #ff00ff"/>
    </g>
   </g>
   <g id="line2d_40">
    <path d="M 27.323974 298.944 
L 27.323974 293.624471 
L 40.363149 293.624471 
L 40.363149 292.560565 
L 47.990577 292.560565 
L 47.990577 290.787388 
L 53.402323 290.787388 
L 53.402323 290.432753 
L 57.6 290.432753 
L 57.6 289.723482 
L 61.029752 289.723482 
L 61.029752 288.659576 
L 63.929565 288.659576 
L 63.929565 287.595671 
L 68.65718 287.595671 
L 68.65718 287.241035 
L 70.639174 287.241035 
L 70.639174 286.8864 
L 72.432107 286.8864 
L 72.432107 286.177129 
L 74.068926 286.177129 
L 74.068926 285.822494 
L 78.266603 285.822494 
L 78.266603 285.113224 
L 80.621116 285.113224 
L 80.621116 284.403953 
L 82.713442 284.403953 
L 82.713442 282.985412 
L 85.471281 282.985412 
L 85.471281 282.630776 
L 87.1081 282.630776 
L 87.1081 282.276141 
L 88.613828 282.276141 
L 88.613828 281.921506 
L 90.007914 281.921506 
L 90.007914 281.566871 
L 93.66029 281.566871 
L 93.66029 281.212235 
L 97.18203 281.212235 
L 97.18203 280.8576 
L 97.635342 280.8576 
L 97.635342 279.084424 
L 98.933205 279.084424 
L 98.933205 278.729788 
L 100.535156 278.729788 
L 100.535156 277.665882 
L 104.961779 277.665882 
L 104.961779 276.956612 
L 105.26277 276.956612 
L 105.26277 275.538071 
L 105.850679 275.538071 
L 105.850679 275.183435 
L 108.034177 275.183435 
L 108.034177 274.474165 
L 111.334639 274.474165 
L 111.334639 273.764894 
L 116.583514 273.764894 
L 116.583514 273.055624 
L 117.540239 273.055624 
L 117.540239 272.346353 
L 117.695068 272.346353 
L 117.695068 271.637082 
L 119.034004 271.637082 
L 119.034004 270.927812 
L 120.28394 270.927812 
L 120.28394 270.573176 
L 120.550775 270.573176 
L 120.550775 269.509271 
L 121.581803 269.509271 
L 121.581803 269.154635 
L 122.439807 269.154635 
L 122.439807 268.8 
L 123.145323 268.8 
L 123.145323 268.445365 
L 123.713691 268.445365 
L 123.713691 268.090729 
L 123.825333 268.090729 
L 123.825333 267.381459 
L 124.046648 267.381459 
L 124.046648 267.026824 
L 124.588805 267.026824 
L 124.588805 266.317553 
L 126.517282 266.317553 
L 126.613505 265.608282 
L 126.709238 265.608282 
L 126.709238 265.253647 
L 127.18073 265.253647 
L 127.18073 264.899012 
L 127.549596 264.899012 
L 127.549596 264.544376 
L 127.911368 264.544376 
L 127.911368 264.189741 
L 128.354013 264.189741 
L 128.441306 263.125835 
L 129.54072 263.125835 
L 129.54072 262.416565 
L 130.734242 262.416565 
L 130.734242 262.061929 
L 131.63737 262.061929 
L 131.63737 261.707294 
L 132.358208 261.707294 
L 132.358208 261.352659 
L 135.237805 261.352659 
L 135.237805 260.998024 
L 136.126705 260.998024 
L 136.126705 260.288753 
L 137.627979 260.288753 
L 137.627979 259.934118 
L 137.893309 259.934118 
L 137.893309 258.515576 
L 138.258593 258.515576 
L 138.258593 257.806306 
L 139.166565 257.806306 
L 139.264798 256.387765 
L 140.219905 256.387765 
L 140.219905 256.033129 
L 140.359078 256.033129 
L 140.359078 255.323859 
L 141.610664 255.323859 
L 141.610664 254.259953 
L 142.743475 254.259953 
L 142.743475 253.905318 
L 142.945969 253.905318 
L 142.945969 253.550682 
L 143.18612 253.550682 
L 143.18612 253.196047 
L 143.305055 253.196047 
L 143.305055 252.841412 
L 143.965177 252.841412 
L 143.965177 252.486776 
L 144.079302 252.486776 
L 144.079302 252.132141 
L 144.931992 252.132141 
L 144.931992 251.777506 
L 145.184016 251.777506 
L 145.184016 251.422871 
L 145.678157 251.422871 
L 145.7477 249.295059 
L 146.057504 249.295059 
L 146.057504 248.940424 
L 148.124658 248.940424 
L 148.124658 248.585788 
L 148.246613 248.585788 
L 148.246613 247.876518 
L 148.367783 247.876518 
L 148.367783 246.812612 
L 148.991428 246.812612 
L 148.991428 246.103341 
L 150.958812 246.103341 
L 150.958812 244.6848 
L 151.50336 244.6848 
L 151.50336 243.975529 
L 153.559331 243.975529 
L 153.559331 243.266259 
L 154.278618 243.266259 
L 154.278618 242.556988 
L 155.119618 242.556988 
L 155.119618 242.202353 
L 155.28758 242.202353 
L 155.28758 240.429176 
L 156.105602 240.429176 
L 156.105602 239.719906 
L 156.442771 239.719906 
L 156.462418 239.010635 
L 156.812591 239.010635 
L 156.908716 236.173553 
L 157.194177 236.173553 
L 157.194177 235.109647 
L 157.953034 235.109647 
L 157.953034 234.755012 
L 158.07959 234.755012 
L 158.07959 234.045741 
L 159.418251 234.045741 
L 159.418251 233.691106 
L 160.87098 233.691106 
L 160.87098 232.981835 
L 162.8032 232.981835 
L 162.8032 232.6272 
L 163.572247 232.6272 
L 163.572247 232.272565 
L 163.892451 232.272565 
L 163.892451 231.917929 
L 164.619057 231.917929 
L 164.695268 231.208659 
L 164.733259 231.208659 
L 164.745905 230.499388 
L 165.862536 230.499388 
L 165.862536 230.144753 
L 166.052194 230.144753 
L 166.052194 229.435482 
L 166.193193 229.435482 
L 166.216591 228.371576 
L 167.196106 228.371576 
L 167.196106 228.016941 
L 168.084835 228.016941 
L 168.17987 225.534494 
L 170.458643 225.534494 
L 170.458643 224.825224 
L 171.199675 224.825224 
L 171.199675 224.470588 
L 172.161441 224.470588 
L 172.161441 224.115953 
L 172.937888 224.115953 
L 173.0195 223.052047 
L 173.628445 223.052047 
L 173.628445 222.697412 
L 173.840121 222.697412 
L 173.840121 222.342776 
L 175.149934 222.342776 
L 175.149934 221.633506 
L 175.431409 221.633506 
L 175.445731 220.214965 
L 176.072254 220.214965 
L 176.072254 219.860329 
L 176.812187 219.860329 
L 176.812187 219.151059 
L 177.187837 219.151059 
L 177.187837 218.796424 
L 177.46634 218.796424 
L 177.46634 218.441788 
L 177.942447 218.441788 
L 177.942447 218.087153 
L 178.061171 218.087153 
L 178.061171 217.732518 
L 178.595434 217.732518 
L 178.595434 217.377882 
L 179.109051 217.377882 
L 179.109051 217.023247 
L 179.26161 217.023247 
L 179.26161 216.668612 
L 179.401344 216.668612 
L 179.401344 216.313976 
L 179.763281 216.313976 
L 179.763281 215.959341 
L 179.893701 215.959341 
L 179.893701 214.895435 
L 180.22973 214.895435 
L 180.307281 214.186165 
L 180.379007 214.186165 
L 180.379007 213.831529 
L 180.744398 213.831529 
L 180.825238 210.994447 
L 181.825336 210.994447 
L 181.825336 210.639812 
L 181.982756 210.639812 
L 182.058457 208.512 
L 182.183951 208.512 
L 182.238904 207.448094 
L 182.437393 207.448094 
L 182.516205 206.738824 
L 182.579998 206.738824 
L 182.643576 205.674918 
L 182.948674 205.674918 
L 182.948674 205.320282 
L 183.149358 205.320282 
L 183.149358 204.965647 
L 183.493151 204.965647 
L 183.493151 204.611012 
L 183.665032 204.611012 
L 183.771091 203.547106 
L 183.862832 203.547106 
L 183.954128 202.837835 
L 184.386286 202.837835 
L 184.386286 202.4832 
L 184.519325 202.4832 
L 184.519325 201.773929 
L 184.655817 201.773929 
L 184.655817 201.064659 
L 184.899899 201.064659 
L 184.951793 200.000753 
L 185.085194 200.000753 
L 185.123747 199.291482 
L 185.209137 199.291482 
L 185.294142 198.582212 
L 185.387206 198.582212 
L 185.387206 198.227576 
L 185.588671 198.227576 
L 185.692752 197.163671 
L 185.84986 197.163671 
L 185.84986 196.4544 
L 186.25714 196.4544 
L 186.25714 195.390494 
L 186.65579 195.390494 
L 186.65579 195.035859 
L 186.890986 195.035859 
L 186.890986 194.681224 
L 187.073191 194.681224 
L 187.073191 194.326588 
L 187.436175 194.326588 
L 187.451306 193.617318 
L 187.646909 193.617318 
L 187.646909 193.262682 
L 188.16 193.262682 
L 188.192744 191.489506 
L 188.362822 191.489506 
L 188.459835 190.4256 
L 188.474165 190.4256 
L 188.570607 189.007059 
L 189.017726 189.007059 
L 189.038589 188.297788 
L 189.440862 188.297788 
L 189.457863 186.169976 
L 189.727809 186.169976 
L 189.727809 185.815341 
L 190.249835 185.815341 
L 190.249835 185.460706 
L 190.395901 185.460706 
L 190.470121 184.042165 
L 190.572899 184.042165 
L 190.611297 182.978259 
L 191.54357 182.978259 
L 191.652764 182.268988 
L 191.896156 182.268988 
L 192.000359 181.559718 
L 192.083308 181.559718 
L 192.083308 181.205082 
L 192.353306 181.205082 
L 192.463707 180.495812 
L 192.605115 180.495812 
L 192.605115 180.141176 
L 192.793919 180.141176 
L 192.810989 177.658729 
L 192.975209 177.658729 
L 193.014634 175.530918 
L 193.163144 175.530918 
L 193.182671 174.467012 
L 193.393384 174.467012 
L 193.484149 173.757741 
L 194.072986 173.757741 
L 194.112833 172.693835 
L 194.234505 172.693835 
L 194.234505 172.3392 
L 194.498926 172.3392 
L 194.594871 171.275294 
L 194.874707 171.275294 
L 194.978898 169.856753 
L 195.079995 169.856753 
L 195.079995 169.502118 
L 195.481503 169.502118 
L 195.481503 169.147482 
L 195.660767 169.147482 
L 195.755843 167.019671 
L 196.238371 167.019671 
L 196.238371 166.665035 
L 196.51832 166.665035 
L 196.51832 165.955765 
L 196.741164 165.955765 
L 196.741164 165.246494 
L 197.322824 165.246494 
L 197.367517 164.182588 
L 197.449922 164.182588 
L 197.449922 163.827953 
L 197.569544 163.827953 
L 197.611452 163.118682 
L 197.856615 163.118682 
L 197.856615 162.409412 
L 198.316347 162.409412 
L 198.316347 162.054776 
L 198.479053 162.054776 
L 198.571401 160.636235 
L 198.598599 160.636235 
L 198.598599 160.2816 
L 199.474758 160.2816 
L 199.474758 159.926965 
L 200.094997 159.926965 
L 200.094997 159.572329 
L 200.296643 159.572329 
L 200.296643 159.217694 
L 200.410907 159.217694 
L 200.410907 158.863059 
L 200.55842 158.863059 
L 200.55842 158.508424 
L 200.920371 158.508424 
L 200.920371 158.153788 
L 201.171844 158.153788 
L 201.171844 157.799153 
L 201.300859 157.799153 
L 201.300859 157.444518 
L 201.604437 157.444518 
L 201.604437 157.089882 
L 201.801196 157.089882 
L 201.801196 156.735247 
L 202.322903 156.735247 
L 202.322903 156.380612 
L 202.772008 156.380612 
L 202.772008 156.025976 
L 203.215549 156.025976 
L 203.215549 155.671341 
L 203.485126 155.671341 
L 203.502853 154.962071 
L 203.7127 154.962071 
L 203.774724 154.2528 
L 204.402407 154.2528 
L 204.402407 153.898165 
L 204.728196 153.898165 
L 204.794487 153.188894 
L 204.874028 153.188894 
L 204.874028 152.479624 
L 205.256498 152.479624 
L 205.256498 152.124988 
L 205.47244 152.124988 
L 205.47244 151.770353 
L 205.884258 151.770353 
L 205.884258 151.415718 
L 206.008744 151.415718 
L 206.008744 150.706447 
L 206.166 150.706447 
L 206.166 150.351812 
L 206.30114 150.351812 
L 206.30114 149.997176 
L 206.454603 149.997176 
L 206.454603 149.642541 
L 206.784902 149.642541 
L 206.844338 148.933271 
L 206.997464 148.933271 
L 206.997464 148.578635 
L 207.211619 148.578635 
L 207.211619 148.224 
L 207.584838 148.224 
L 207.632752 147.514729 
L 207.716632 147.514729 
L 207.716632 147.160094 
L 207.885829 147.160094 
L 207.885829 146.450824 
L 208.355874 146.450824 
L 208.422961 145.741553 
L 208.883565 145.741553 
L 208.883565 145.386918 
L 209.255015 145.386918 
L 209.255015 145.032282 
L 209.434501 145.032282 
L 209.434501 144.677647 
L 209.671568 144.677647 
L 209.671568 144.323012 
L 209.933172 144.323012 
L 210.038169 143.259106 
L 210.328408 143.259106 
L 210.328408 142.904471 
L 210.714414 142.904471 
L 210.714414 142.549835 
L 211.158182 142.549835 
L 211.158182 141.840565 
L 211.601151 141.840565 
L 211.601151 141.485929 
L 211.809465 141.485929 
L 211.809465 141.131294 
L 211.969336 141.131294 
L 211.969336 140.776659 
L 212.663992 140.776659 
L 212.703543 139.358118 
L 213.142858 139.358118 
L 213.142858 139.003482 
L 213.270759 139.003482 
L 213.270759 138.648847 
L 213.446284 138.648847 
L 213.446284 138.294212 
L 213.602303 138.294212 
L 213.677486 137.584941 
L 214.067338 137.584941 
L 214.067338 137.230306 
L 214.309223 137.230306 
L 214.393379 136.521035 
L 215.024618 136.521035 
L 215.024618 136.1664 
L 215.2563 136.1664 
L 215.2563 135.457129 
L 215.469821 135.457129 
L 215.469821 135.102494 
L 215.811183 135.102494 
L 215.882222 134.393224 
L 215.977909 134.393224 
L 216.04336 133.329318 
L 216.110234 133.329318 
L 216.110234 132.620047 
L 216.289041 132.620047 
L 216.306176 131.910776 
L 216.698434 131.910776 
L 216.698434 131.556141 
L 217.967786 131.556141 
L 217.967786 131.201506 
L 218.424369 131.201506 
L 218.424369 130.846871 
L 218.828097 130.846871 
L 218.828097 130.492235 
L 219.876093 130.492235 
L 219.876093 130.1376 
L 274.18969 130.1376 
L 274.288569 114.179012 
L 274.300832 114.179012 
L 274.411582 96.801882 
L 274.412882 96.801882 
L 274.498657 87.936 
L 274.555156 87.936 
L 274.6408 85.098918 
L 274.671387 85.098918 
L 274.776193 81.197929 
L 274.824707 81.197929 
L 274.907 78.360847 
L 274.969648 78.360847 
L 275.041827 76.233035 
L 275.100805 76.233035 
L 275.142987 75.523765 
L 287.223356 75.523765 
L 287.324303 62.402259 
L 287.337858 62.402259 
L 287.444216 54.954918 
L 287.464499 54.954918 
L 287.556609 52.827106 
L 287.584225 52.827106 
L 287.683259 50.699294 
L 294.848396 50.699294 
L 294.947753 41.833412 
L 295.008091 41.833412 
L 295.070913 39.7056 
L 295.124731 39.7056 
L 295.163583 38.996329 
L 300.260405 38.996329 
L 300.345767 32.612894 
L 300.425841 32.612894 
L 300.425841 32.258259 
L 304.469324 32.258259 
L 304.505637 30.485082 
L 307.902101 30.485082 
L 307.93148 28.002635 
L 313.296886 28.002635 
L 313.296886 27.648 
L 360.8064 27.648 
L 360.8064 27.648 
" style="fill: none; stroke: #ff00ff; stroke-width: 1.5; stroke-linecap: square"/>
   </g>
   <g id="line2d_41">
    <defs>
     <path id="m0563bed3fd" d="M 0 8.485281 
L 5.091169 0 
L 0 -8.485281 
L -5.091169 0 
z
" style="stroke: #ff00ff; stroke-width: 1.5; stroke-linejoin: miter"/>
    </defs>
    <g>
     <use xlink:href="#m0563bed3fd" x="132.358208" y="261.707294" style="fill-opacity: 0; stroke: #ff00ff; stroke-width: 1.5; stroke-linejoin: miter"/>
     <use xlink:href="#m0563bed3fd" x="188.192744" y="192.553412" style="fill-opacity: 0; stroke: #ff00ff; stroke-width: 1.5; stroke-linejoin: miter"/>
     <use xlink:href="#m0563bed3fd" x="274.195516" y="128.364424" style="fill-opacity: 0; stroke: #ff00ff; stroke-width: 1.5; stroke-linejoin: miter"/>
     <use xlink:href="#m0563bed3fd" x="313.296886" y="28.002635" style="fill-opacity: 0; stroke: #ff00ff; stroke-width: 1.5; stroke-linejoin: miter"/>
     <use xlink:href="#m0563bed3fd" x="313.296886" y="27.648" style="fill-opacity: 0; stroke: #ff00ff; stroke-width: 1.5; stroke-linejoin: miter"/>
     <use xlink:href="#m0563bed3fd" x="360.8064" y="27.648" style="fill-opacity: 0; stroke: #ff00ff; stroke-width: 1.5; stroke-linejoin: miter"/>
    </g>
   </g>
   <g id="line2d_42">
    <path style="fill: none; stroke: #ff00ff; stroke-width: 1.5; stroke-linecap: square"/>
    <g/>
   </g>
   <g id="line2d_43">
    <path d="M 274.176 130.1376 
" clip-path="url(#p724cd25e06)" style="fill: none; stroke: #ff00ff; stroke-width: 1.5; stroke-linecap: square"/>
    <defs>
     <path id="m08dbe97e95" d="M -12 12 
L 12 -12 
M -12 -12 
L 12 12 
" style="stroke: #ff00ff"/>
    </defs>
    <g clip-path="url(#p724cd25e06)">
     <use xlink:href="#m08dbe97e95" x="274.176" y="130.1376" style="fill: #ff00ff; stroke: #ff00ff"/>
    </g>
   </g>
   <g id="line2d_44">
    <path d="M 360.8064 27.648 
L 380.514816 293.51808 
" style="fill: none; stroke: #ff00ff; stroke-width: 1.5; stroke-linecap: square"/>
    <g>
     <use xlink:href="#m0563bed3fd" x="360.8064" y="27.648" style="fill-opacity: 0; stroke: #ff00ff; stroke-width: 1.5; stroke-linejoin: miter"/>
     <use xlink:href="#m0563bed3fd" x="380.514816" y="293.51808" style="fill-opacity: 0; stroke: #ff00ff; stroke-width: 1.5; stroke-linejoin: miter"/>
    </g>
   </g>
   <g id="line2d_45">
    <path d="M 360.8064 27.648 
L 380.514816 163.296 
" style="fill: none; stroke: #000080; stroke-width: 1.5; stroke-linecap: square"/>
    <g>
     <use xlink:href="#mf4273084cc" x="360.8064" y="27.648" style="fill-opacity: 0; stroke: #000080; stroke-width: 1.5"/>
     <use xlink:href="#mf4273084cc" x="380.514816" y="163.296" style="fill-opacity: 0; stroke: #000080; stroke-width: 1.5"/>
    </g>
   </g>
   <g id="line2d_46">
    <path d="M 360.8064 298.944 
L 360.8064 27.648 
" style="fill: none; stroke: #000000; stroke-width: 1.5; stroke-linecap: square"/>
   </g>
   <g id="patch_3">
    <path d="M 57.6 298.944 
L 360.8064 298.944 
" style="fill: none; stroke: #000000; stroke-width: 0.8; stroke-linejoin: miter; stroke-linecap: square"/>
   </g>
   <g id="patch_4">
    <path d="M 57.6 27.648 
L 360.8064 27.648 
" style="fill: none; stroke: #000000; stroke-width: 0.8; stroke-linejoin: miter; stroke-linecap: square"/>
   </g>
   <g id="text_13">
    <!-- PSO -->
    <g transform="translate(386.578944 297.381205)scale(0.14 -0.14)">
     <defs>
      <path id="DejaVuSans-50" d="M 1259 4147 
L 1259 2394 
L 2053 2394 
Q 2494 2394 2734 2622 
Q 2975 2850 2975 3272 
Q 2975 3691 2734 3919 
Q 2494 4147 2053 4147 
L 1259 4147 
z
M 628 4666 
L 2053 4666 
Q 2838 4666 3239 4311 
Q 3641 3956 3641 3272 
Q 3641 2581 3239 2228 
Q 2838 1875 2053 1875 
L 1259 1875 
L 1259 0 
L 628 0 
L 628 4666 
z
" transform="scale(0.015625)"/>
      <path id="DejaVuSans-53" d="M 3425 4513 
L 3425 3897 
Q 3066 4069 2747 4153 
Q 2428 4238 2131 4238 
Q 1616 4238 1336 4038 
Q 1056 3838 1056 3469 
Q 1056 3159 1242 3001 
Q 1428 2844 1947 2747 
L 2328 2669 
Q 3034 2534 3370 2195 
Q 3706 1856 3706 1288 
Q 3706 609 3251 259 
Q 2797 -91 1919 -91 
Q 1588 -91 1214 -16 
Q 841 59 441 206 
L 441 856 
Q 825 641 1194 531 
Q 1563 422 1919 422 
Q 2459 422 2753 634 
Q 3047 847 3047 1241 
Q 3047 1584 2836 1778 
Q 2625 1972 2144 2069 
L 1759 2144 
Q 1053 2284 737 2584 
Q 422 2884 422 3419 
Q 422 4038 858 4394 
Q 1294 4750 2059 4750 
Q 2388 4750 2728 4690 
Q 3069 4631 3425 4513 
z
" transform="scale(0.015625)"/>
      <path id="DejaVuSans-4f" d="M 2522 4238 
Q 1834 4238 1429 3725 
Q 1025 3213 1025 2328 
Q 1025 1447 1429 934 
Q 1834 422 2522 422 
Q 3209 422 3611 934 
Q 4013 1447 4013 2328 
Q 4013 3213 3611 3725 
Q 3209 4238 2522 4238 
z
M 2522 4750 
Q 3503 4750 4090 4092 
Q 4678 3434 4678 2328 
Q 4678 1225 4090 567 
Q 3503 -91 2522 -91 
Q 1538 -91 948 565 
Q 359 1222 359 2328 
Q 359 3434 948 4092 
Q 1538 4750 2522 4750 
z
" transform="scale(0.015625)"/>
     </defs>
     <use xlink:href="#DejaVuSans-50"/>
     <use xlink:href="#DejaVuSans-53" x="60.302734"/>
     <use xlink:href="#DejaVuSans-4f" x="123.779297"/>
    </g>
   </g>
   <g id="text_14">
    <!-- LCGA -->
    <g transform="translate(386.578944 167.159125)scale(0.14 -0.14)">
     <defs>
      <path id="DejaVuSans-4c" d="M 628 4666 
L 1259 4666 
L 1259 531 
L 3531 531 
L 3531 0 
L 628 0 
L 628 4666 
z
" transform="scale(0.015625)"/>
      <path id="DejaVuSans-43" d="M 4122 4306 
L 4122 3641 
Q 3803 3938 3442 4084 
Q 3081 4231 2675 4231 
Q 1875 4231 1450 3742 
Q 1025 3253 1025 2328 
Q 1025 1406 1450 917 
Q 1875 428 2675 428 
Q 3081 428 3442 575 
Q 3803 722 4122 1019 
L 4122 359 
Q 3791 134 3420 21 
Q 3050 -91 2638 -91 
Q 1578 -91 968 557 
Q 359 1206 359 2328 
Q 359 3453 968 4101 
Q 1578 4750 2638 4750 
Q 3056 4750 3426 4639 
Q 3797 4528 4122 4306 
z
" transform="scale(0.015625)"/>
      <path id="DejaVuSans-47" d="M 3809 666 
L 3809 1919 
L 2778 1919 
L 2778 2438 
L 4434 2438 
L 4434 434 
Q 4069 175 3628 42 
Q 3188 -91 2688 -91 
Q 1594 -91 976 548 
Q 359 1188 359 2328 
Q 359 3472 976 4111 
Q 1594 4750 2688 4750 
Q 3144 4750 3555 4637 
Q 3966 4525 4313 4306 
L 4313 3634 
Q 3963 3931 3569 4081 
Q 3175 4231 2741 4231 
Q 1884 4231 1454 3753 
Q 1025 3275 1025 2328 
Q 1025 1384 1454 906 
Q 1884 428 2741 428 
Q 3075 428 3337 486 
Q 3600 544 3809 666 
z
" transform="scale(0.015625)"/>
      <path id="DejaVuSans-41" d="M 2188 4044 
L 1331 1722 
L 3047 1722 
L 2188 4044 
z
M 1831 4666 
L 2547 4666 
L 4325 0 
L 3669 0 
L 3244 1197 
L 1141 1197 
L 716 0 
L 50 0 
L 1831 4666 
z
" transform="scale(0.015625)"/>
     </defs>
     <use xlink:href="#DejaVuSans-4c"/>
     <use xlink:href="#DejaVuSans-43" x="55.712891"/>
     <use xlink:href="#DejaVuSans-47" x="125.537109"/>
     <use xlink:href="#DejaVuSans-41" x="203.027344"/>
    </g>
   </g>
   <g id="text_15">
    <!-- best 2009 -->
    <g transform="translate(386.578944 36.937045)scale(0.14 -0.14)">
     <defs>
      <path id="DejaVuSans-62" d="M 3116 1747 
Q 3116 2381 2855 2742 
Q 2594 3103 2138 3103 
Q 1681 3103 1420 2742 
Q 1159 2381 1159 1747 
Q 1159 1113 1420 752 
Q 1681 391 2138 391 
Q 2594 391 2855 752 
Q 3116 1113 3116 1747 
z
M 1159 2969 
Q 1341 3281 1617 3432 
Q 1894 3584 2278 3584 
Q 2916 3584 3314 3078 
Q 3713 2572 3713 1747 
Q 3713 922 3314 415 
Q 2916 -91 2278 -91 
Q 1894 -91 1617 61 
Q 1341 213 1159 525 
L 1159 0 
L 581 0 
L 581 4863 
L 1159 4863 
L 1159 2969 
z
" transform="scale(0.015625)"/>
      <path id="DejaVuSans-39" d="M 703 97 
L 703 672 
Q 941 559 1184 500 
Q 1428 441 1663 441 
Q 2288 441 2617 861 
Q 2947 1281 2994 2138 
Q 2813 1869 2534 1725 
Q 2256 1581 1919 1581 
Q 1219 1581 811 2004 
Q 403 2428 403 3163 
Q 403 3881 828 4315 
Q 1253 4750 1959 4750 
Q 2769 4750 3195 4129 
Q 3622 3509 3622 2328 
Q 3622 1225 3098 567 
Q 2575 -91 1691 -91 
Q 1453 -91 1209 -44 
Q 966 3 703 97 
z
M 1959 2075 
Q 2384 2075 2632 2365 
Q 2881 2656 2881 3163 
Q 2881 3666 2632 3958 
Q 2384 4250 1959 4250 
Q 1534 4250 1286 3958 
Q 1038 3666 1038 3163 
Q 1038 2656 1286 2365 
Q 1534 2075 1959 2075 
z
" transform="scale(0.015625)"/>
     </defs>
     <use xlink:href="#DejaVuSans-62"/>
     <use xlink:href="#DejaVuSans-65" x="63.476562"/>
     <use xlink:href="#DejaVuSans-73" x="125"/>
     <use xlink:href="#DejaVuSans-74" x="177.099609"/>
     <use xlink:href="#DejaVuSans-20" x="216.308594"/>
     <use xlink:href="#DejaVuSans-32" x="248.095703"/>
     <use xlink:href="#DejaVuSans-30" x="311.71875"/>
     <use xlink:href="#DejaVuSans-30" x="375.341797"/>
     <use xlink:href="#DejaVuSans-39" x="438.964844"/>
    </g>
   </g>
   <g id="text_16">
    <!-- bbob f22, 5-D -->
    <g transform="translate(60.632064 38.111366)scale(0.102 -0.102)">
     <defs>
      <path id="DejaVuSans-35" d="M 691 4666 
L 3169 4666 
L 3169 4134 
L 1269 4134 
L 1269 2991 
Q 1406 3038 1543 3061 
Q 1681 3084 1819 3084 
Q 2600 3084 3056 2656 
Q 3513 2228 3513 1497 
Q 3513 744 3044 326 
Q 2575 -91 1722 -91 
Q 1428 -91 1123 -41 
Q 819 9 494 109 
L 494 744 
Q 775 591 1075 516 
Q 1375 441 1709 441 
Q 2250 441 2565 725 
Q 2881 1009 2881 1497 
Q 2881 1984 2565 2268 
Q 2250 2553 1709 2553 
Q 1456 2553 1204 2497 
Q 953 2441 691 2322 
L 691 4666 
z
" transform="scale(0.015625)"/>
      <path id="DejaVuSans-44" d="M 1259 4147 
L 1259 519 
L 2022 519 
Q 2988 519 3436 956 
Q 3884 1394 3884 2338 
Q 3884 3275 3436 3711 
Q 2988 4147 2022 4147 
L 1259 4147 
z
M 628 4666 
L 1925 4666 
Q 3281 4666 3915 4102 
Q 4550 3538 4550 2338 
Q 4550 1131 3912 565 
Q 3275 0 1925 0 
L 628 0 
L 628 4666 
z
" transform="scale(0.015625)"/>
     </defs>
     <use xlink:href="#DejaVuSans-62"/>
     <use xlink:href="#DejaVuSans-62" x="63.476562"/>
     <use xlink:href="#DejaVuSans-6f" x="126.953125"/>
     <use xlink:href="#DejaVuSans-62" x="188.134766"/>
     <use xlink:href="#DejaVuSans-20" x="251.611328"/>
     <use xlink:href="#DejaVuSans-66" x="283.398438"/>
     <use xlink:href="#DejaVuSans-32" x="318.603516"/>
     <use xlink:href="#DejaVuSans-32" x="382.226562"/>
     <use xlink:href="#DejaVuSans-2c" x="445.849609"/>
     <use xlink:href="#DejaVuSans-20" x="477.636719"/>
     <use xlink:href="#DejaVuSans-35" x="509.423828"/>
     <use xlink:href="#DejaVuSans-2d" x="573.046875"/>
     <use xlink:href="#DejaVuSans-44" x="609.130859"/>
    </g>
    <!-- 51 targets: 100..1e-08 -->
    <g transform="translate(60.632064 49.533135)scale(0.102 -0.102)">
     <defs>
      <path id="DejaVuSans-3a" d="M 750 794 
L 1409 794 
L 1409 0 
L 750 0 
L 750 794 
z
M 750 3309 
L 1409 3309 
L 1409 2516 
L 750 2516 
L 750 3309 
z
" transform="scale(0.015625)"/>
     </defs>
     <use xlink:href="#DejaVuSans-35"/>
     <use xlink:href="#DejaVuSans-31" x="63.623047"/>
     <use xlink:href="#DejaVuSans-20" x="127.246094"/>
     <use xlink:href="#DejaVuSans-74" x="159.033203"/>
     <use xlink:href="#DejaVuSans-61" x="198.242188"/>
     <use xlink:href="#DejaVuSans-72" x="259.521484"/>
     <use xlink:href="#DejaVuSans-67" x="298.884766"/>
     <use xlink:href="#DejaVuSans-65" x="362.361328"/>
     <use xlink:href="#DejaVuSans-74" x="423.884766"/>
     <use xlink:href="#DejaVuSans-73" x="463.09375"/>
     <use xlink:href="#DejaVuSans-3a" x="515.193359"/>
     <use xlink:href="#DejaVuSans-20" x="548.884766"/>
     <use xlink:href="#DejaVuSans-31" x="580.671875"/>
     <use xlink:href="#DejaVuSans-30" x="644.294922"/>
     <use xlink:href="#DejaVuSans-30" x="707.917969"/>
     <use xlink:href="#DejaVuSans-2e" x="771.541016"/>
     <use xlink:href="#DejaVuSans-2e" x="803.328125"/>
     <use xlink:href="#DejaVuSans-31" x="835.115234"/>
     <use xlink:href="#DejaVuSans-65" x="898.738281"/>
     <use xlink:href="#DejaVuSans-2d" x="960.261719"/>
     <use xlink:href="#DejaVuSans-30" x="996.345703"/>
     <use xlink:href="#DejaVuSans-38" x="1059.96875"/>
    </g>
    <!-- 15 instances -->
    <g transform="translate(60.632064 60.954904)scale(0.102 -0.102)">
     <use xlink:href="#DejaVuSans-31"/>
     <use xlink:href="#DejaVuSans-35" x="63.623047"/>
     <use xlink:href="#DejaVuSans-20" x="127.246094"/>
     <use xlink:href="#DejaVuSans-69" x="159.033203"/>
     <use xlink:href="#DejaVuSans-6e" x="186.816406"/>
     <use xlink:href="#DejaVuSans-73" x="250.195312"/>
     <use xlink:href="#DejaVuSans-74" x="302.294922"/>
     <use xlink:href="#DejaVuSans-61" x="341.503906"/>
     <use xlink:href="#DejaVuSans-6e" x="402.783203"/>
     <use xlink:href="#DejaVuSans-63" x="466.162109"/>
     <use xlink:href="#DejaVuSans-65" x="521.142578"/>
     <use xlink:href="#DejaVuSans-73" x="582.666016"/>
    </g>
   </g>
   <g id="text_17">
    <!-- v2.6 -->
    <g style="fill: #808080" transform="translate(198.292262 294.151352)scale(0.1 -0.1)">
     <use xlink:href="#DejaVuSans-76"/>
     <use xlink:href="#DejaVuSans-32" x="59.179688"/>
     <use xlink:href="#DejaVuSans-2e" x="122.802734"/>
     <use xlink:href="#DejaVuSans-36" x="154.589844"/>
    </g>
   </g>
   <g id="text_18">
    <!-- 22 Gallagher 21 peaks -->
    <g transform="translate(96.0782 21.648)scale(0.2 -0.2)">
     <defs>
      <path id="DejaVuSans-68" d="M 3513 2113 
L 3513 0 
L 2938 0 
L 2938 2094 
Q 2938 2591 2744 2837 
Q 2550 3084 2163 3084 
Q 1697 3084 1428 2787 
Q 1159 2491 1159 1978 
L 1159 0 
L 581 0 
L 581 4863 
L 1159 4863 
L 1159 2956 
Q 1366 3272 1645 3428 
Q 1925 3584 2291 3584 
Q 2894 3584 3203 3211 
Q 3513 2838 3513 2113 
z
" transform="scale(0.015625)"/>
      <path id="DejaVuSans-6b" d="M 581 4863 
L 1159 4863 
L 1159 1991 
L 2875 3500 
L 3609 3500 
L 1753 1863 
L 3688 0 
L 2938 0 
L 1159 1709 
L 1159 0 
L 581 0 
L 581 4863 
z
" transform="scale(0.015625)"/>
     </defs>
     <use xlink:href="#DejaVuSans-32"/>
     <use xlink:href="#DejaVuSans-32" x="63.623047"/>
     <use xlink:href="#DejaVuSans-20" x="127.246094"/>
     <use xlink:href="#DejaVuSans-47" x="159.033203"/>
     <use xlink:href="#DejaVuSans-61" x="236.523438"/>
     <use xlink:href="#DejaVuSans-6c" x="297.802734"/>
     <use xlink:href="#DejaVuSans-6c" x="325.585938"/>
     <use xlink:href="#DejaVuSans-61" x="353.369141"/>
     <use xlink:href="#DejaVuSans-67" x="414.648438"/>
     <use xlink:href="#DejaVuSans-68" x="478.125"/>
     <use xlink:href="#DejaVuSans-65" x="541.503906"/>
     <use xlink:href="#DejaVuSans-72" x="603.027344"/>
     <use xlink:href="#DejaVuSans-20" x="644.140625"/>
     <use xlink:href="#DejaVuSans-32" x="675.927734"/>
     <use xlink:href="#DejaVuSans-31" x="739.550781"/>
     <use xlink:href="#DejaVuSans-20" x="803.173828"/>
     <use xlink:href="#DejaVuSans-70" x="834.960938"/>
     <use xlink:href="#DejaVuSans-65" x="898.4375"/>
     <use xlink:href="#DejaVuSans-61" x="959.960938"/>
     <use xlink:href="#DejaVuSans-6b" x="1021.240234"/>
     <use xlink:href="#DejaVuSans-73" x="1079.150391"/>
    </g>
   </g>
  </g>
 </g>
 <defs>
  <clipPath id="p724cd25e06">
   <rect x="57.6" y="27.648" width="303.2064" height="271.296"/>
  </clipPath>
 </defs>
</svg>
