<?xml version="1.0" encoding="utf-8" standalone="no"?>
<!DOCTYPE svg PUBLIC "-//W3C//DTD SVG 1.1//EN"
  "http://www.w3.org/Graphics/SVG/1.1/DTD/svg11.dtd">
<svg xmlns:xlink="http://www.w3.org/1999/xlink" width="460.8pt" height="345.6pt" viewBox="0 0 460.8 345.6" xmlns="http://www.w3.org/2000/svg" version="1.1">
 <metadata>
  <rdf:RDF xmlns:dc="http://purl.org/dc/elements/1.1/" xmlns:cc="http://creativecommons.org/ns#" xmlns:rdf="http://www.w3.org/1999/02/22-rdf-syntax-ns#">
   <cc:Work>
    <dc:type rdf:resource="http://purl.org/dc/dcmitype/StillImage"/>
    <dc:date>2024-05-29T08:02:07.503072</dc:date>
    <dc:format>image/svg+xml</dc:format>
    <dc:creator>
     <cc:Agent>
      <dc:title>Matplotlib v3.5.1, https://matplotlib.org/</dc:title>
     </cc:Agent>
    </dc:creator>
   </cc:Work>
  </rdf:RDF>
 </metadata>
 <defs>
  <style type="text/css">*{stroke-linejoin: round; stroke-linecap: butt}</style>
 </defs>
 <g id="figure_1">
  <g id="patch_1">
   <path d="M 0 345.6 
L 460.8 345.6 
L 460.8 0 
L 0 0 
z
" style="fill: #ffffff"/>
  </g>
  <g id="axes_1">
   <g id="patch_2">
    <path d="M 57.6 298.944 
L 360.8064 298.944 
L 360.8064 27.648 
L 57.6 27.648 
z
" style="fill: #ffffff"/>
   </g>
   <g id="line2d_1">
    <path d="M 14.2848 298.944 
L 14.2848 293.624471 
L 34.951403 293.624471 
L 34.951403 288.304941 
L 53.402323 288.304941 
L 53.402323 282.985412 
L 66.441498 282.985412 
L 66.441498 277.665882 
L 72.432107 277.665882 
L 72.432107 251.068235 
L 73.268314 251.068235 
L 73.268314 27.648 
L 360.8064 27.648 
" style="fill: none; stroke: #f5deb3; stroke-width: 4; stroke-linecap: square"/>
   </g>
   <g id="line2d_2">
    <defs>
     <path id="m07d3c91f35" d="M 0 7.778175 
L 7.778175 0 
L 0 -7.778175 
L -7.778175 0 
z
" style="stroke: #f5deb3; stroke-width: 1.5; stroke-linejoin: miter"/>
    </defs>
    <g>
     <use xlink:href="#m07d3c91f35" x="72.432107" y="251.068235" style="fill: #f5deb3; stroke: #f5deb3; stroke-width: 1.5; stroke-linejoin: miter"/>
     <use xlink:href="#m07d3c91f35" x="73.268314" y="251.068235" style="fill: #f5deb3; stroke: #f5deb3; stroke-width: 1.5; stroke-linejoin: miter"/>
     <use xlink:href="#m07d3c91f35" x="73.268314" y="251.068235" style="fill: #f5deb3; stroke: #f5deb3; stroke-width: 1.5; stroke-linejoin: miter"/>
     <use xlink:href="#m07d3c91f35" x="73.268314" y="27.648" style="fill: #f5deb3; stroke: #f5deb3; stroke-width: 1.5; stroke-linejoin: miter"/>
     <use xlink:href="#m07d3c91f35" x="73.268314" y="27.648" style="fill: #f5deb3; stroke: #f5deb3; stroke-width: 1.5; stroke-linejoin: miter"/>
     <use xlink:href="#m07d3c91f35" x="360.8064" y="27.648" style="fill: #f5deb3; stroke: #f5deb3; stroke-width: 1.5; stroke-linejoin: miter"/>
    </g>
   </g>
   <g id="line2d_3">
    <path style="fill: none; stroke: #f5deb3; stroke-width: 4; stroke-linecap: square"/>
    <g/>
   </g>
   <g id="line2d_4">
    <path d="M 360.8064 27.648 
L 380.514816 33.07392 
" style="fill: none; stroke: #f5deb3; stroke-width: 4; stroke-linecap: square"/>
    <g>
     <use xlink:href="#m07d3c91f35" x="360.8064" y="27.648" style="fill: #f5deb3; stroke: #f5deb3; stroke-width: 1.5; stroke-linejoin: miter"/>
     <use xlink:href="#m07d3c91f35" x="380.514816" y="33.07392" style="fill: #f5deb3; stroke: #f5deb3; stroke-width: 1.5; stroke-linejoin: miter"/>
    </g>
   </g>
   <g id="matplotlib.axis_1">
    <g id="xtick_1">
     <g id="line2d_5">
      <path d="M 57.6 298.944 
L 57.6 27.648 
" clip-path="url(#p860fee618e)" style="fill: none; stroke: #b0b0b0; stroke-width: 0.8; stroke-linecap: square"/>
     </g>
     <g id="line2d_6">
      <defs>
       <path id="m1f56a1ab65" d="M 0 0 
L 0 3.5 
" style="stroke: #000000; stroke-width: 0.8"/>
      </defs>
      <g>
       <use xlink:href="#m1f56a1ab65" x="57.6" y="298.944" style="stroke: #000000; stroke-width: 0.8"/>
      </g>
     </g>
     <g id="text_1">
      <!-- 0 -->
      <g transform="translate(52.191875 318.861344)scale(0.17 -0.17)">
       <defs>
        <path id="DejaVuSans-30" d="M 2034 4250 
Q 1547 4250 1301 3770 
Q 1056 3291 1056 2328 
Q 1056 1369 1301 889 
Q 1547 409 2034 409 
Q 2525 409 2770 889 
Q 3016 1369 3016 2328 
Q 3016 3291 2770 3770 
Q 2525 4250 2034 4250 
z
M 2034 4750 
Q 2819 4750 3233 4129 
Q 3647 3509 3647 2328 
Q 3647 1150 3233 529 
Q 2819 -91 2034 -91 
Q 1250 -91 836 529 
Q 422 1150 422 2328 
Q 422 3509 836 4129 
Q 1250 4750 2034 4750 
z
" transform="scale(0.015625)"/>
       </defs>
       <use xlink:href="#DejaVuSans-30"/>
      </g>
     </g>
    </g>
    <g id="xtick_2">
     <g id="line2d_7">
      <path d="M 144.2304 298.944 
L 144.2304 27.648 
" clip-path="url(#p860fee618e)" style="fill: none; stroke: #b0b0b0; stroke-width: 0.8; stroke-linecap: square"/>
     </g>
     <g id="line2d_8">
      <g>
       <use xlink:href="#m1f56a1ab65" x="144.2304" y="298.944" style="stroke: #000000; stroke-width: 0.8"/>
      </g>
     </g>
     <g id="text_2">
      <!-- 2 -->
      <g transform="translate(138.822275 318.861344)scale(0.17 -0.17)">
       <defs>
        <path id="DejaVuSans-32" d="M 1228 531 
L 3431 531 
L 3431 0 
L 469 0 
L 469 531 
Q 828 903 1448 1529 
Q 2069 2156 2228 2338 
Q 2531 2678 2651 2914 
Q 2772 3150 2772 3378 
Q 2772 3750 2511 3984 
Q 2250 4219 1831 4219 
Q 1534 4219 1204 4116 
Q 875 4013 500 3803 
L 500 4441 
Q 881 4594 1212 4672 
Q 1544 4750 1819 4750 
Q 2544 4750 2975 4387 
Q 3406 4025 3406 3419 
Q 3406 3131 3298 2873 
Q 3191 2616 2906 2266 
Q 2828 2175 2409 1742 
Q 1991 1309 1228 531 
z
" transform="scale(0.015625)"/>
       </defs>
       <use xlink:href="#DejaVuSans-32"/>
      </g>
     </g>
    </g>
    <g id="xtick_3">
     <g id="line2d_9">
      <path d="M 230.8608 298.944 
L 230.8608 27.648 
" clip-path="url(#p860fee618e)" style="fill: none; stroke: #b0b0b0; stroke-width: 0.8; stroke-linecap: square"/>
     </g>
     <g id="line2d_10">
      <g>
       <use xlink:href="#m1f56a1ab65" x="230.8608" y="298.944" style="stroke: #000000; stroke-width: 0.8"/>
      </g>
     </g>
     <g id="text_3">
      <!-- 4 -->
      <g transform="translate(225.452675 318.861344)scale(0.17 -0.17)">
       <defs>
        <path id="DejaVuSans-34" d="M 2419 4116 
L 825 1625 
L 2419 1625 
L 2419 4116 
z
M 2253 4666 
L 3047 4666 
L 3047 1625 
L 3713 1625 
L 3713 1100 
L 3047 1100 
L 3047 0 
L 2419 0 
L 2419 1100 
L 313 1100 
L 313 1709 
L 2253 4666 
z
" transform="scale(0.015625)"/>
       </defs>
       <use xlink:href="#DejaVuSans-34"/>
      </g>
     </g>
    </g>
    <g id="xtick_4">
     <g id="line2d_11">
      <path d="M 317.4912 298.944 
L 317.4912 27.648 
" clip-path="url(#p860fee618e)" style="fill: none; stroke: #b0b0b0; stroke-width: 0.8; stroke-linecap: square"/>
     </g>
     <g id="line2d_12">
      <g>
       <use xlink:href="#m1f56a1ab65" x="317.4912" y="298.944" style="stroke: #000000; stroke-width: 0.8"/>
      </g>
     </g>
     <g id="text_4">
      <!-- 6 -->
      <g transform="translate(312.083075 318.861344)scale(0.17 -0.17)">
       <defs>
        <path id="DejaVuSans-36" d="M 2113 2584 
Q 1688 2584 1439 2293 
Q 1191 2003 1191 1497 
Q 1191 994 1439 701 
Q 1688 409 2113 409 
Q 2538 409 2786 701 
Q 3034 994 3034 1497 
Q 3034 2003 2786 2293 
Q 2538 2584 2113 2584 
z
M 3366 4563 
L 3366 3988 
Q 3128 4100 2886 4159 
Q 2644 4219 2406 4219 
Q 1781 4219 1451 3797 
Q 1122 3375 1075 2522 
Q 1259 2794 1537 2939 
Q 1816 3084 2150 3084 
Q 2853 3084 3261 2657 
Q 3669 2231 3669 1497 
Q 3669 778 3244 343 
Q 2819 -91 2113 -91 
Q 1303 -91 875 529 
Q 447 1150 447 2328 
Q 447 3434 972 4092 
Q 1497 4750 2381 4750 
Q 2619 4750 2861 4703 
Q 3103 4656 3366 4563 
z
" transform="scale(0.015625)"/>
       </defs>
       <use xlink:href="#DejaVuSans-36"/>
      </g>
     </g>
    </g>
    <g id="xtick_5">
     <g id="line2d_13">
      <path d="M 100.9152 298.944 
L 100.9152 27.648 
" clip-path="url(#p860fee618e)" style="fill: none; stroke: #b0b0b0; stroke-width: 0.8; stroke-linecap: square"/>
     </g>
     <g id="line2d_14">
      <defs>
       <path id="m4ad2a6563c" d="M 0 0 
L 0 2 
" style="stroke: #000000; stroke-width: 0.6"/>
      </defs>
      <g>
       <use xlink:href="#m4ad2a6563c" x="100.9152" y="298.944" style="stroke: #000000; stroke-width: 0.6"/>
      </g>
     </g>
    </g>
    <g id="xtick_6">
     <g id="line2d_15">
      <path d="M 187.5456 298.944 
L 187.5456 27.648 
" clip-path="url(#p860fee618e)" style="fill: none; stroke: #b0b0b0; stroke-width: 0.8; stroke-linecap: square"/>
     </g>
     <g id="line2d_16">
      <g>
       <use xlink:href="#m4ad2a6563c" x="187.5456" y="298.944" style="stroke: #000000; stroke-width: 0.6"/>
      </g>
     </g>
    </g>
    <g id="xtick_7">
     <g id="line2d_17">
      <path d="M 274.176 298.944 
L 274.176 27.648 
" clip-path="url(#p860fee618e)" style="fill: none; stroke: #b0b0b0; stroke-width: 0.8; stroke-linecap: square"/>
     </g>
     <g id="line2d_18">
      <g>
       <use xlink:href="#m4ad2a6563c" x="274.176" y="298.944" style="stroke: #000000; stroke-width: 0.6"/>
      </g>
     </g>
    </g>
    <g id="xtick_8">
     <g id="line2d_19">
      <path d="M 360.8064 298.944 
L 360.8064 27.648 
" clip-path="url(#p860fee618e)" style="fill: none; stroke: #b0b0b0; stroke-width: 0.8; stroke-linecap: square"/>
     </g>
     <g id="line2d_20">
      <g>
       <use xlink:href="#m4ad2a6563c" x="360.8064" y="298.944" style="stroke: #000000; stroke-width: 0.6"/>
      </g>
     </g>
    </g>
    <g id="text_5">
     <!-- log10(# f-evals / dimension) -->
     <g transform="translate(88.823278 339.314156)scale(0.17 -0.17)">
      <defs>
       <path id="DejaVuSans-6c" d="M 603 4863 
L 1178 4863 
L 1178 0 
L 603 0 
L 603 4863 
z
" transform="scale(0.015625)"/>
       <path id="DejaVuSans-6f" d="M 1959 3097 
Q 1497 3097 1228 2736 
Q 959 2375 959 1747 
Q 959 1119 1226 758 
Q 1494 397 1959 397 
Q 2419 397 2687 759 
Q 2956 1122 2956 1747 
Q 2956 2369 2687 2733 
Q 2419 3097 1959 3097 
z
M 1959 3584 
Q 2709 3584 3137 3096 
Q 3566 2609 3566 1747 
Q 3566 888 3137 398 
Q 2709 -91 1959 -91 
Q 1206 -91 779 398 
Q 353 888 353 1747 
Q 353 2609 779 3096 
Q 1206 3584 1959 3584 
z
" transform="scale(0.015625)"/>
       <path id="DejaVuSans-67" d="M 2906 1791 
Q 2906 2416 2648 2759 
Q 2391 3103 1925 3103 
Q 1463 3103 1205 2759 
Q 947 2416 947 1791 
Q 947 1169 1205 825 
Q 1463 481 1925 481 
Q 2391 481 2648 825 
Q 2906 1169 2906 1791 
z
M 3481 434 
Q 3481 -459 3084 -895 
Q 2688 -1331 1869 -1331 
Q 1566 -1331 1297 -1286 
Q 1028 -1241 775 -1147 
L 775 -588 
Q 1028 -725 1275 -790 
Q 1522 -856 1778 -856 
Q 2344 -856 2625 -561 
Q 2906 -266 2906 331 
L 2906 616 
Q 2728 306 2450 153 
Q 2172 0 1784 0 
Q 1141 0 747 490 
Q 353 981 353 1791 
Q 353 2603 747 3093 
Q 1141 3584 1784 3584 
Q 2172 3584 2450 3431 
Q 2728 3278 2906 2969 
L 2906 3500 
L 3481 3500 
L 3481 434 
z
" transform="scale(0.015625)"/>
       <path id="DejaVuSans-31" d="M 794 531 
L 1825 531 
L 1825 4091 
L 703 3866 
L 703 4441 
L 1819 4666 
L 2450 4666 
L 2450 531 
L 3481 531 
L 3481 0 
L 794 0 
L 794 531 
z
" transform="scale(0.015625)"/>
       <path id="DejaVuSans-28" d="M 1984 4856 
Q 1566 4138 1362 3434 
Q 1159 2731 1159 2009 
Q 1159 1288 1364 580 
Q 1569 -128 1984 -844 
L 1484 -844 
Q 1016 -109 783 600 
Q 550 1309 550 2009 
Q 550 2706 781 3412 
Q 1013 4119 1484 4856 
L 1984 4856 
z
" transform="scale(0.015625)"/>
       <path id="DejaVuSans-23" d="M 3272 2816 
L 2363 2816 
L 2100 1772 
L 3016 1772 
L 3272 2816 
z
M 2803 4594 
L 2478 3297 
L 3391 3297 
L 3719 4594 
L 4219 4594 
L 3897 3297 
L 4872 3297 
L 4872 2816 
L 3775 2816 
L 3519 1772 
L 4513 1772 
L 4513 1294 
L 3397 1294 
L 3072 0 
L 2572 0 
L 2894 1294 
L 1978 1294 
L 1656 0 
L 1153 0 
L 1478 1294 
L 494 1294 
L 494 1772 
L 1594 1772 
L 1856 2816 
L 850 2816 
L 850 3297 
L 1978 3297 
L 2297 4594 
L 2803 4594 
z
" transform="scale(0.015625)"/>
       <path id="DejaVuSans-20" transform="scale(0.015625)"/>
       <path id="DejaVuSans-66" d="M 2375 4863 
L 2375 4384 
L 1825 4384 
Q 1516 4384 1395 4259 
Q 1275 4134 1275 3809 
L 1275 3500 
L 2222 3500 
L 2222 3053 
L 1275 3053 
L 1275 0 
L 697 0 
L 697 3053 
L 147 3053 
L 147 3500 
L 697 3500 
L 697 3744 
Q 697 4328 969 4595 
Q 1241 4863 1831 4863 
L 2375 4863 
z
" transform="scale(0.015625)"/>
       <path id="DejaVuSans-2d" d="M 313 2009 
L 1997 2009 
L 1997 1497 
L 313 1497 
L 313 2009 
z
" transform="scale(0.015625)"/>
       <path id="DejaVuSans-65" d="M 3597 1894 
L 3597 1613 
L 953 1613 
Q 991 1019 1311 708 
Q 1631 397 2203 397 
Q 2534 397 2845 478 
Q 3156 559 3463 722 
L 3463 178 
Q 3153 47 2828 -22 
Q 2503 -91 2169 -91 
Q 1331 -91 842 396 
Q 353 884 353 1716 
Q 353 2575 817 3079 
Q 1281 3584 2069 3584 
Q 2775 3584 3186 3129 
Q 3597 2675 3597 1894 
z
M 3022 2063 
Q 3016 2534 2758 2815 
Q 2500 3097 2075 3097 
Q 1594 3097 1305 2825 
Q 1016 2553 972 2059 
L 3022 2063 
z
" transform="scale(0.015625)"/>
       <path id="DejaVuSans-76" d="M 191 3500 
L 800 3500 
L 1894 563 
L 2988 3500 
L 3597 3500 
L 2284 0 
L 1503 0 
L 191 3500 
z
" transform="scale(0.015625)"/>
       <path id="DejaVuSans-61" d="M 2194 1759 
Q 1497 1759 1228 1600 
Q 959 1441 959 1056 
Q 959 750 1161 570 
Q 1363 391 1709 391 
Q 2188 391 2477 730 
Q 2766 1069 2766 1631 
L 2766 1759 
L 2194 1759 
z
M 3341 1997 
L 3341 0 
L 2766 0 
L 2766 531 
Q 2569 213 2275 61 
Q 1981 -91 1556 -91 
Q 1019 -91 701 211 
Q 384 513 384 1019 
Q 384 1609 779 1909 
Q 1175 2209 1959 2209 
L 2766 2209 
L 2766 2266 
Q 2766 2663 2505 2880 
Q 2244 3097 1772 3097 
Q 1472 3097 1187 3025 
Q 903 2953 641 2809 
L 641 3341 
Q 956 3463 1253 3523 
Q 1550 3584 1831 3584 
Q 2591 3584 2966 3190 
Q 3341 2797 3341 1997 
z
" transform="scale(0.015625)"/>
       <path id="DejaVuSans-73" d="M 2834 3397 
L 2834 2853 
Q 2591 2978 2328 3040 
Q 2066 3103 1784 3103 
Q 1356 3103 1142 2972 
Q 928 2841 928 2578 
Q 928 2378 1081 2264 
Q 1234 2150 1697 2047 
L 1894 2003 
Q 2506 1872 2764 1633 
Q 3022 1394 3022 966 
Q 3022 478 2636 193 
Q 2250 -91 1575 -91 
Q 1294 -91 989 -36 
Q 684 19 347 128 
L 347 722 
Q 666 556 975 473 
Q 1284 391 1588 391 
Q 1994 391 2212 530 
Q 2431 669 2431 922 
Q 2431 1156 2273 1281 
Q 2116 1406 1581 1522 
L 1381 1569 
Q 847 1681 609 1914 
Q 372 2147 372 2553 
Q 372 3047 722 3315 
Q 1072 3584 1716 3584 
Q 2034 3584 2315 3537 
Q 2597 3491 2834 3397 
z
" transform="scale(0.015625)"/>
       <path id="DejaVuSans-2f" d="M 1625 4666 
L 2156 4666 
L 531 -594 
L 0 -594 
L 1625 4666 
z
" transform="scale(0.015625)"/>
       <path id="DejaVuSans-64" d="M 2906 2969 
L 2906 4863 
L 3481 4863 
L 3481 0 
L 2906 0 
L 2906 525 
Q 2725 213 2448 61 
Q 2172 -91 1784 -91 
Q 1150 -91 751 415 
Q 353 922 353 1747 
Q 353 2572 751 3078 
Q 1150 3584 1784 3584 
Q 2172 3584 2448 3432 
Q 2725 3281 2906 2969 
z
M 947 1747 
Q 947 1113 1208 752 
Q 1469 391 1925 391 
Q 2381 391 2643 752 
Q 2906 1113 2906 1747 
Q 2906 2381 2643 2742 
Q 2381 3103 1925 3103 
Q 1469 3103 1208 2742 
Q 947 2381 947 1747 
z
" transform="scale(0.015625)"/>
       <path id="DejaVuSans-69" d="M 603 3500 
L 1178 3500 
L 1178 0 
L 603 0 
L 603 3500 
z
M 603 4863 
L 1178 4863 
L 1178 4134 
L 603 4134 
L 603 4863 
z
" transform="scale(0.015625)"/>
       <path id="DejaVuSans-6d" d="M 3328 2828 
Q 3544 3216 3844 3400 
Q 4144 3584 4550 3584 
Q 5097 3584 5394 3201 
Q 5691 2819 5691 2113 
L 5691 0 
L 5113 0 
L 5113 2094 
Q 5113 2597 4934 2840 
Q 4756 3084 4391 3084 
Q 3944 3084 3684 2787 
Q 3425 2491 3425 1978 
L 3425 0 
L 2847 0 
L 2847 2094 
Q 2847 2600 2669 2842 
Q 2491 3084 2119 3084 
Q 1678 3084 1418 2786 
Q 1159 2488 1159 1978 
L 1159 0 
L 581 0 
L 581 3500 
L 1159 3500 
L 1159 2956 
Q 1356 3278 1631 3431 
Q 1906 3584 2284 3584 
Q 2666 3584 2933 3390 
Q 3200 3197 3328 2828 
z
" transform="scale(0.015625)"/>
       <path id="DejaVuSans-6e" d="M 3513 2113 
L 3513 0 
L 2938 0 
L 2938 2094 
Q 2938 2591 2744 2837 
Q 2550 3084 2163 3084 
Q 1697 3084 1428 2787 
Q 1159 2491 1159 1978 
L 1159 0 
L 581 0 
L 581 3500 
L 1159 3500 
L 1159 2956 
Q 1366 3272 1645 3428 
Q 1925 3584 2291 3584 
Q 2894 3584 3203 3211 
Q 3513 2838 3513 2113 
z
" transform="scale(0.015625)"/>
       <path id="DejaVuSans-29" d="M 513 4856 
L 1013 4856 
Q 1481 4119 1714 3412 
Q 1947 2706 1947 2009 
Q 1947 1309 1714 600 
Q 1481 -109 1013 -844 
L 513 -844 
Q 928 -128 1133 580 
Q 1338 1288 1338 2009 
Q 1338 2731 1133 3434 
Q 928 4138 513 4856 
z
" transform="scale(0.015625)"/>
      </defs>
      <use xlink:href="#DejaVuSans-6c"/>
      <use xlink:href="#DejaVuSans-6f" x="27.783203"/>
      <use xlink:href="#DejaVuSans-67" x="88.964844"/>
      <use xlink:href="#DejaVuSans-31" x="152.441406"/>
      <use xlink:href="#DejaVuSans-30" x="216.064453"/>
      <use xlink:href="#DejaVuSans-28" x="279.6875"/>
      <use xlink:href="#DejaVuSans-23" x="318.701172"/>
      <use xlink:href="#DejaVuSans-20" x="402.490234"/>
      <use xlink:href="#DejaVuSans-66" x="434.277344"/>
      <use xlink:href="#DejaVuSans-2d" x="463.982422"/>
      <use xlink:href="#DejaVuSans-65" x="500.066406"/>
      <use xlink:href="#DejaVuSans-76" x="561.589844"/>
      <use xlink:href="#DejaVuSans-61" x="620.769531"/>
      <use xlink:href="#DejaVuSans-6c" x="682.048828"/>
      <use xlink:href="#DejaVuSans-73" x="709.832031"/>
      <use xlink:href="#DejaVuSans-20" x="761.931641"/>
      <use xlink:href="#DejaVuSans-2f" x="793.71875"/>
      <use xlink:href="#DejaVuSans-20" x="827.410156"/>
      <use xlink:href="#DejaVuSans-64" x="859.197266"/>
      <use xlink:href="#DejaVuSans-69" x="922.673828"/>
      <use xlink:href="#DejaVuSans-6d" x="950.457031"/>
      <use xlink:href="#DejaVuSans-65" x="1047.869141"/>
      <use xlink:href="#DejaVuSans-6e" x="1109.392578"/>
      <use xlink:href="#DejaVuSans-73" x="1172.771484"/>
      <use xlink:href="#DejaVuSans-69" x="1224.871094"/>
      <use xlink:href="#DejaVuSans-6f" x="1252.654297"/>
      <use xlink:href="#DejaVuSans-6e" x="1313.835938"/>
      <use xlink:href="#DejaVuSans-29" x="1377.214844"/>
     </g>
    </g>
   </g>
   <g id="matplotlib.axis_2">
    <g id="ytick_1">
     <g id="line2d_21">
      <path d="M 57.6 298.944 
L 360.8064 298.944 
" clip-path="url(#p860fee618e)" style="fill: none; stroke: #b0b0b0; stroke-width: 0.8; stroke-linecap: square"/>
     </g>
     <g id="line2d_22">
      <defs>
       <path id="m404b841a8d" d="M 0 0 
L -3.5 0 
" style="stroke: #000000; stroke-width: 0.8"/>
      </defs>
      <g>
       <use xlink:href="#m404b841a8d" x="57.6" y="298.944" style="stroke: #000000; stroke-width: 0.8"/>
      </g>
     </g>
     <g id="text_6">
      <!-- 0.0 -->
      <g transform="translate(25.155 305.02275)scale(0.16 -0.16)">
       <defs>
        <path id="DejaVuSans-2e" d="M 684 794 
L 1344 794 
L 1344 0 
L 684 0 
L 684 794 
z
" transform="scale(0.015625)"/>
       </defs>
       <use xlink:href="#DejaVuSans-30"/>
       <use xlink:href="#DejaVuSans-2e" x="63.623047"/>
       <use xlink:href="#DejaVuSans-30" x="95.410156"/>
      </g>
     </g>
    </g>
    <g id="ytick_2">
     <g id="line2d_23">
      <path d="M 57.6 244.6848 
L 360.8064 244.6848 
" clip-path="url(#p860fee618e)" style="fill: none; stroke: #b0b0b0; stroke-width: 0.8; stroke-linecap: square"/>
     </g>
     <g id="line2d_24">
      <g>
       <use xlink:href="#m404b841a8d" x="57.6" y="244.6848" style="stroke: #000000; stroke-width: 0.8"/>
      </g>
     </g>
     <g id="text_7">
      <!-- 0.2 -->
      <g transform="translate(25.155 250.76355)scale(0.16 -0.16)">
       <use xlink:href="#DejaVuSans-30"/>
       <use xlink:href="#DejaVuSans-2e" x="63.623047"/>
       <use xlink:href="#DejaVuSans-32" x="95.410156"/>
      </g>
     </g>
    </g>
    <g id="ytick_3">
     <g id="line2d_25">
      <path d="M 57.6 190.4256 
L 360.8064 190.4256 
" clip-path="url(#p860fee618e)" style="fill: none; stroke: #b0b0b0; stroke-width: 0.8; stroke-linecap: square"/>
     </g>
     <g id="line2d_26">
      <g>
       <use xlink:href="#m404b841a8d" x="57.6" y="190.4256" style="stroke: #000000; stroke-width: 0.8"/>
      </g>
     </g>
     <g id="text_8">
      <!-- 0.4 -->
      <g transform="translate(25.155 196.50435)scale(0.16 -0.16)">
       <use xlink:href="#DejaVuSans-30"/>
       <use xlink:href="#DejaVuSans-2e" x="63.623047"/>
       <use xlink:href="#DejaVuSans-34" x="95.410156"/>
      </g>
     </g>
    </g>
    <g id="ytick_4">
     <g id="line2d_27">
      <path d="M 57.6 136.1664 
L 360.8064 136.1664 
" clip-path="url(#p860fee618e)" style="fill: none; stroke: #b0b0b0; stroke-width: 0.8; stroke-linecap: square"/>
     </g>
     <g id="line2d_28">
      <g>
       <use xlink:href="#m404b841a8d" x="57.6" y="136.1664" style="stroke: #000000; stroke-width: 0.8"/>
      </g>
     </g>
     <g id="text_9">
      <!-- 0.6 -->
      <g transform="translate(25.155 142.24515)scale(0.16 -0.16)">
       <use xlink:href="#DejaVuSans-30"/>
       <use xlink:href="#DejaVuSans-2e" x="63.623047"/>
       <use xlink:href="#DejaVuSans-36" x="95.410156"/>
      </g>
     </g>
    </g>
    <g id="ytick_5">
     <g id="line2d_29">
      <path d="M 57.6 81.9072 
L 360.8064 81.9072 
" clip-path="url(#p860fee618e)" style="fill: none; stroke: #b0b0b0; stroke-width: 0.8; stroke-linecap: square"/>
     </g>
     <g id="line2d_30">
      <g>
       <use xlink:href="#m404b841a8d" x="57.6" y="81.9072" style="stroke: #000000; stroke-width: 0.8"/>
      </g>
     </g>
     <g id="text_10">
      <!-- 0.8 -->
      <g transform="translate(25.155 87.98595)scale(0.16 -0.16)">
       <defs>
        <path id="DejaVuSans-38" d="M 2034 2216 
Q 1584 2216 1326 1975 
Q 1069 1734 1069 1313 
Q 1069 891 1326 650 
Q 1584 409 2034 409 
Q 2484 409 2743 651 
Q 3003 894 3003 1313 
Q 3003 1734 2745 1975 
Q 2488 2216 2034 2216 
z
M 1403 2484 
Q 997 2584 770 2862 
Q 544 3141 544 3541 
Q 544 4100 942 4425 
Q 1341 4750 2034 4750 
Q 2731 4750 3128 4425 
Q 3525 4100 3525 3541 
Q 3525 3141 3298 2862 
Q 3072 2584 2669 2484 
Q 3125 2378 3379 2068 
Q 3634 1759 3634 1313 
Q 3634 634 3220 271 
Q 2806 -91 2034 -91 
Q 1263 -91 848 271 
Q 434 634 434 1313 
Q 434 1759 690 2068 
Q 947 2378 1403 2484 
z
M 1172 3481 
Q 1172 3119 1398 2916 
Q 1625 2713 2034 2713 
Q 2441 2713 2670 2916 
Q 2900 3119 2900 3481 
Q 2900 3844 2670 4047 
Q 2441 4250 2034 4250 
Q 1625 4250 1398 4047 
Q 1172 3844 1172 3481 
z
" transform="scale(0.015625)"/>
       </defs>
       <use xlink:href="#DejaVuSans-30"/>
       <use xlink:href="#DejaVuSans-2e" x="63.623047"/>
       <use xlink:href="#DejaVuSans-38" x="95.410156"/>
      </g>
     </g>
    </g>
    <g id="ytick_6">
     <g id="line2d_31">
      <path d="M 57.6 27.648 
L 360.8064 27.648 
" clip-path="url(#p860fee618e)" style="fill: none; stroke: #b0b0b0; stroke-width: 0.8; stroke-linecap: square"/>
     </g>
     <g id="line2d_32">
      <g>
       <use xlink:href="#m404b841a8d" x="57.6" y="27.648" style="stroke: #000000; stroke-width: 0.8"/>
      </g>
     </g>
     <g id="text_11">
      <!-- 1.0 -->
      <g transform="translate(25.155 33.72675)scale(0.16 -0.16)">
       <use xlink:href="#DejaVuSans-31"/>
       <use xlink:href="#DejaVuSans-2e" x="63.623047"/>
       <use xlink:href="#DejaVuSans-30" x="95.410156"/>
      </g>
     </g>
    </g>
    <g id="text_12">
     <!-- Fraction of function,target pairs -->
     <g transform="translate(17.619531 297.681)rotate(-90)scale(0.17 -0.17)">
      <defs>
       <path id="DejaVuSans-46" d="M 628 4666 
L 3309 4666 
L 3309 4134 
L 1259 4134 
L 1259 2759 
L 3109 2759 
L 3109 2228 
L 1259 2228 
L 1259 0 
L 628 0 
L 628 4666 
z
" transform="scale(0.015625)"/>
       <path id="DejaVuSans-72" d="M 2631 2963 
Q 2534 3019 2420 3045 
Q 2306 3072 2169 3072 
Q 1681 3072 1420 2755 
Q 1159 2438 1159 1844 
L 1159 0 
L 581 0 
L 581 3500 
L 1159 3500 
L 1159 2956 
Q 1341 3275 1631 3429 
Q 1922 3584 2338 3584 
Q 2397 3584 2469 3576 
Q 2541 3569 2628 3553 
L 2631 2963 
z
" transform="scale(0.015625)"/>
       <path id="DejaVuSans-63" d="M 3122 3366 
L 3122 2828 
Q 2878 2963 2633 3030 
Q 2388 3097 2138 3097 
Q 1578 3097 1268 2742 
Q 959 2388 959 1747 
Q 959 1106 1268 751 
Q 1578 397 2138 397 
Q 2388 397 2633 464 
Q 2878 531 3122 666 
L 3122 134 
Q 2881 22 2623 -34 
Q 2366 -91 2075 -91 
Q 1284 -91 818 406 
Q 353 903 353 1747 
Q 353 2603 823 3093 
Q 1294 3584 2113 3584 
Q 2378 3584 2631 3529 
Q 2884 3475 3122 3366 
z
" transform="scale(0.015625)"/>
       <path id="DejaVuSans-74" d="M 1172 4494 
L 1172 3500 
L 2356 3500 
L 2356 3053 
L 1172 3053 
L 1172 1153 
Q 1172 725 1289 603 
Q 1406 481 1766 481 
L 2356 481 
L 2356 0 
L 1766 0 
Q 1100 0 847 248 
Q 594 497 594 1153 
L 594 3053 
L 172 3053 
L 172 3500 
L 594 3500 
L 594 4494 
L 1172 4494 
z
" transform="scale(0.015625)"/>
       <path id="DejaVuSans-75" d="M 544 1381 
L 544 3500 
L 1119 3500 
L 1119 1403 
Q 1119 906 1312 657 
Q 1506 409 1894 409 
Q 2359 409 2629 706 
Q 2900 1003 2900 1516 
L 2900 3500 
L 3475 3500 
L 3475 0 
L 2900 0 
L 2900 538 
Q 2691 219 2414 64 
Q 2138 -91 1772 -91 
Q 1169 -91 856 284 
Q 544 659 544 1381 
z
M 1991 3584 
L 1991 3584 
z
" transform="scale(0.015625)"/>
       <path id="DejaVuSans-2c" d="M 750 794 
L 1409 794 
L 1409 256 
L 897 -744 
L 494 -744 
L 750 256 
L 750 794 
z
" transform="scale(0.015625)"/>
       <path id="DejaVuSans-70" d="M 1159 525 
L 1159 -1331 
L 581 -1331 
L 581 3500 
L 1159 3500 
L 1159 2969 
Q 1341 3281 1617 3432 
Q 1894 3584 2278 3584 
Q 2916 3584 3314 3078 
Q 3713 2572 3713 1747 
Q 3713 922 3314 415 
Q 2916 -91 2278 -91 
Q 1894 -91 1617 61 
Q 1341 213 1159 525 
z
M 3116 1747 
Q 3116 2381 2855 2742 
Q 2594 3103 2138 3103 
Q 1681 3103 1420 2742 
Q 1159 2381 1159 1747 
Q 1159 1113 1420 752 
Q 1681 391 2138 391 
Q 2594 391 2855 752 
Q 3116 1113 3116 1747 
z
" transform="scale(0.015625)"/>
      </defs>
      <use xlink:href="#DejaVuSans-46"/>
      <use xlink:href="#DejaVuSans-72" x="50.269531"/>
      <use xlink:href="#DejaVuSans-61" x="91.382812"/>
      <use xlink:href="#DejaVuSans-63" x="152.662109"/>
      <use xlink:href="#DejaVuSans-74" x="207.642578"/>
      <use xlink:href="#DejaVuSans-69" x="246.851562"/>
      <use xlink:href="#DejaVuSans-6f" x="274.634766"/>
      <use xlink:href="#DejaVuSans-6e" x="335.816406"/>
      <use xlink:href="#DejaVuSans-20" x="399.195312"/>
      <use xlink:href="#DejaVuSans-6f" x="430.982422"/>
      <use xlink:href="#DejaVuSans-66" x="492.164062"/>
      <use xlink:href="#DejaVuSans-20" x="527.369141"/>
      <use xlink:href="#DejaVuSans-66" x="559.15625"/>
      <use xlink:href="#DejaVuSans-75" x="594.361328"/>
      <use xlink:href="#DejaVuSans-6e" x="657.740234"/>
      <use xlink:href="#DejaVuSans-63" x="721.119141"/>
      <use xlink:href="#DejaVuSans-74" x="776.099609"/>
      <use xlink:href="#DejaVuSans-69" x="815.308594"/>
      <use xlink:href="#DejaVuSans-6f" x="843.091797"/>
      <use xlink:href="#DejaVuSans-6e" x="904.273438"/>
      <use xlink:href="#DejaVuSans-2c" x="967.652344"/>
      <use xlink:href="#DejaVuSans-74" x="999.439453"/>
      <use xlink:href="#DejaVuSans-61" x="1038.648438"/>
      <use xlink:href="#DejaVuSans-72" x="1099.927734"/>
      <use xlink:href="#DejaVuSans-67" x="1139.291016"/>
      <use xlink:href="#DejaVuSans-65" x="1202.767578"/>
      <use xlink:href="#DejaVuSans-74" x="1264.291016"/>
      <use xlink:href="#DejaVuSans-20" x="1303.5"/>
      <use xlink:href="#DejaVuSans-70" x="1335.287109"/>
      <use xlink:href="#DejaVuSans-61" x="1398.763672"/>
      <use xlink:href="#DejaVuSans-69" x="1460.042969"/>
      <use xlink:href="#DejaVuSans-72" x="1487.826172"/>
      <use xlink:href="#DejaVuSans-73" x="1528.939453"/>
     </g>
    </g>
   </g>
   <g id="line2d_33">
    <defs>
     <path id="md7f721a93e" d="M 0 1.5 
C 0.397805 1.5 0.77937 1.341951 1.06066 1.06066 
C 1.341951 0.77937 1.5 0.397805 1.5 0 
C 1.5 -0.397805 1.341951 -0.77937 1.06066 -1.06066 
C 0.77937 -1.341951 0.397805 -1.5 0 -1.5 
C -0.397805 -1.5 -0.77937 -1.341951 -1.06066 -1.06066 
C -1.341951 -0.77937 -1.5 -0.397805 -1.5 0 
C -1.5 0.397805 -1.341951 0.77937 -1.06066 1.06066 
C -0.77937 1.341951 -0.397805 1.5 0 1.5 
z
" style="stroke: #f5deb3"/>
    </defs>
    <g>
     <use xlink:href="#md7f721a93e" x="73.268314" y="27.648" style="fill: #f5deb3; stroke: #f5deb3"/>
     <use xlink:href="#md7f721a93e" x="73.268314" y="27.648" style="fill: #f5deb3; stroke: #f5deb3"/>
    </g>
   </g>
   <g id="line2d_34">
    <defs>
     <path id="m4b04463083" d="M 0 1.5 
C 0.397805 1.5 0.77937 1.341951 1.06066 1.06066 
C 1.341951 0.77937 1.5 0.397805 1.5 0 
C 1.5 -0.397805 1.341951 -0.77937 1.06066 -1.06066 
C 0.77937 -1.341951 0.397805 -1.5 0 -1.5 
C -0.397805 -1.5 -0.77937 -1.341951 -1.06066 -1.06066 
C -1.341951 -0.77937 -1.5 -0.397805 -1.5 0 
C -1.5 0.397805 -1.341951 0.77937 -1.06066 1.06066 
C -0.77937 1.341951 -0.397805 1.5 0 1.5 
z
" style="stroke: #000080"/>
    </defs>
    <g>
     <use xlink:href="#m4b04463083" x="222.089601" y="27.648" style="fill: #000080; stroke: #000080"/>
     <use xlink:href="#m4b04463083" x="222.089601" y="27.648" style="fill: #000080; stroke: #000080"/>
    </g>
   </g>
   <g id="line2d_35">
    <path d="M 14.2848 298.944 
L 14.2848 298.234729 
L 27.323974 298.234729 
L 27.323974 297.170824 
L 34.951403 297.170824 
L 34.951403 296.106918 
L 40.363149 296.106918 
L 40.363149 294.688376 
L 44.560826 294.688376 
L 44.560826 294.333741 
L 47.990577 294.333741 
L 47.990577 293.979106 
L 53.402323 293.979106 
L 53.402323 292.9152 
L 55.618005 292.9152 
L 55.618005 292.560565 
L 57.6 292.560565 
L 57.6 291.851294 
L 59.392932 291.851294 
L 59.392932 291.496659 
L 61.029752 291.496659 
L 61.029752 291.142024 
L 62.535479 291.142024 
L 62.535479 290.432753 
L 63.929565 290.432753 
L 63.929565 289.723482 
L 66.441498 289.723482 
L 66.441498 288.659576 
L 69.674268 288.659576 
L 69.674268 288.304941 
L 73.268314 288.304941 
L 73.268314 287.950306 
L 84.142855 287.950306 
L 84.142855 287.595671 
L 84.596168 287.595671 
L 84.596168 287.241035 
L 85.471281 287.241035 
L 85.471281 286.8864 
L 90.007914 286.8864 
L 90.007914 286.177129 
L 90.668036 286.177129 
L 90.668036 285.467859 
L 91.305777 285.467859 
L 91.305777 285.113224 
L 94.735529 285.113224 
L 94.735529 284.758588 
L 95.250946 284.758588 
L 95.250946 284.049318 
L 97.857967 284.049318 
L 97.857967 283.694682 
L 99.751228 283.694682 
L 99.751228 283.340047 
L 100.726138 283.340047 
L 100.726138 282.985412 
L 102.878374 282.985412 
L 102.878374 282.630776 
L 112.589207 282.630776 
L 112.589207 282.276141 
L 114.601519 282.276141 
L 114.601519 281.566871 
L 115.489021 281.566871 
L 115.489021 281.212235 
L 118.301945 281.212235 
L 118.376446 280.148329 
L 124.588805 280.148329 
L 124.588805 279.793694 
L 126.993549 279.793694 
L 126.993549 279.439059 
L 131.228811 279.439059 
L 131.303758 278.020518 
L 131.341119 278.020518 
L 131.341119 277.665882 
L 131.452761 277.665882 
L 131.526822 276.601976 
L 131.965169 276.601976 
L 132.037244 275.892706 
L 132.109044 275.892706 
L 132.109044 275.183435 
L 132.287354 275.183435 
L 132.322814 274.119529 
L 132.534182 274.119529 
L 132.534182 273.764894 
L 132.708526 273.764894 
L 132.743202 273.055624 
L 133.120474 273.055624 
L 133.222067 272.346353 
L 133.523594 272.346353 
L 133.523594 271.282447 
L 133.78762 271.282447 
L 133.853052 270.573176 
L 134.080287 270.573176 
L 134.080287 269.863906 
L 134.208913 269.863906 
L 134.208913 269.509271 
L 134.368469 269.509271 
L 134.431915 268.445365 
L 134.495147 268.445365 
L 134.589598 267.026824 
L 135.024208 267.026824 
L 135.116046 265.608282 
L 135.298389 265.608282 
L 135.298389 265.253647 
L 135.835047 265.253647 
L 135.835047 264.189741 
L 136.126705 264.189741 
L 136.126705 263.835106 
L 136.270855 263.835106 
L 136.270855 263.480471 
L 136.584151 263.480471 
L 136.584151 263.125835 
L 137.003134 263.125835 
L 137.113304 262.416565 
L 137.222833 262.416565 
L 137.331728 261.707294 
L 137.38594 261.707294 
L 137.38594 261.352659 
L 137.520791 261.352659 
L 137.520791 260.998024 
L 138.36167 260.998024 
L 138.438609 260.288753 
L 139.043049 260.288753 
L 139.067817 259.224847 
L 139.532323 259.224847 
L 139.532323 258.870212 
L 139.93843 258.870212 
L 139.93843 258.515576 
L 140.219905 258.515576 
L 140.219905 258.160941 
L 141.739954 258.160941 
L 141.739954 257.806306 
L 142.059343 257.806306 
L 142.059343 257.451671 
L 142.269295 257.451671 
L 142.269295 257.097035 
L 142.60042 257.097035 
L 142.60042 256.7424 
L 142.784148 256.7424 
L 142.784148 256.387765 
L 143.18612 256.387765 
L 143.18612 256.033129 
L 144.28675 256.033129 
L 144.28675 255.678494 
L 144.71325 255.678494 
L 144.768174 254.614588 
L 147.006187 254.614588 
L 147.006187 254.259953 
L 147.264104 254.259953 
L 147.264104 253.905318 
L 148.124658 253.905318 
L 148.170484 253.196047 
L 148.337564 253.196047 
L 148.337564 252.841412 
L 148.68219 252.841412 
L 148.68219 252.486776 
L 149.524205 252.486776 
L 149.524205 252.132141 
L 149.693807 252.132141 
L 149.778038 251.422871 
L 149.98698 251.422871 
L 149.98698 251.068235 
L 150.11124 251.068235 
L 150.11124 250.7136 
L 150.492661 250.7136 
L 150.492661 249.649694 
L 150.640414 249.649694 
L 150.707193 248.940424 
L 151.129053 248.940424 
L 151.233056 248.231153 
L 151.490576 248.231153 
L 151.490576 247.876518 
L 152.082223 247.876518 
L 152.082223 247.521882 
L 152.571498 247.521882 
L 152.619733 246.812612 
L 153.060137 246.812612 
L 153.060137 246.457976 
L 153.282346 246.457976 
L 153.282346 246.103341 
L 153.696309 246.103341 
L 153.696309 245.748706 
L 153.933646 245.748706 
L 153.933646 245.394071 
L 154.454223 245.394071 
L 154.454223 245.039435 
L 154.693034 245.039435 
L 154.693034 244.6848 
L 154.896868 244.6848 
L 154.896868 244.330165 
L 155.660098 244.330165 
L 155.660098 243.975529 
L 155.97507 243.975529 
L 155.995211 243.266259 
L 156.570108 243.266259 
L 156.638319 242.556988 
L 156.985263 242.556988 
L 157.051988 241.847718 
L 157.623641 241.847718 
L 157.623641 241.493082 
L 158.621287 241.493082 
L 158.630038 240.783812 
L 158.899338 240.783812 
L 158.91658 240.074541 
L 159.079601 240.074541 
L 159.181837 239.365271 
L 159.342585 239.365271 
L 159.342585 239.010635 
L 159.593632 239.010635 
L 159.593632 238.656 
L 160.407056 238.656 
L 160.407056 237.946729 
L 160.777545 237.946729 
L 160.777545 237.592094 
L 161.025681 237.592094 
L 161.025681 237.237459 
L 161.323737 237.237459 
L 161.323737 236.882824 
L 161.452196 236.882824 
L 161.482294 236.173553 
L 161.913396 236.173553 
L 161.913396 235.818918 
L 162.233972 235.818918 
L 162.233972 235.464282 
L 163.267023 235.464282 
L 163.27386 234.755012 
L 163.450751 234.755012 
L 163.457521 234.045741 
L 163.578974 234.045741 
L 163.578974 233.691106 
L 164.116009 233.691106 
L 164.20079 232.981835 
L 164.285191 232.981835 
L 164.285191 232.6272 
L 164.80901 232.6272 
L 164.80901 232.272565 
L 165.189432 232.272565 
L 165.189432 231.917929 
L 165.337023 231.917929 
L 165.337023 231.208659 
L 165.538087 231.208659 
L 165.574415 230.144753 
L 165.838694 230.144753 
L 165.838694 229.790118 
L 165.999046 229.790118 
L 166.075768 228.726212 
L 166.152178 228.726212 
L 166.152178 228.016941 
L 166.333144 228.016941 
L 166.333144 226.953035 
L 166.483591 226.953035 
L 166.483591 226.5984 
L 166.724107 226.5984 
L 166.724107 226.243765 
L 167.123829 226.243765 
L 167.123829 225.889129 
L 167.262578 225.889129 
L 167.262578 225.534494 
L 168.642835 225.534494 
L 168.704395 224.825224 
L 169.059531 224.825224 
L 169.059531 224.470588 
L 169.18975 224.470588 
L 169.18975 224.115953 
L 169.818006 224.115953 
L 169.818006 223.761318 
L 170.2758 223.761318 
L 170.28051 223.052047 
L 170.425955 223.052047 
L 170.425955 222.697412 
L 170.602722 222.697412 
L 170.602722 222.342776 
L 171.289169 222.342776 
L 171.289169 221.988141 
L 171.435909 221.988141 
L 171.435909 221.633506 
L 171.651706 221.633506 
L 171.71291 220.5696 
L 171.81737 220.5696 
L 171.81737 220.214965 
L 171.947136 220.214965 
L 172.024567 219.151059 
L 172.067447 219.151059 
L 172.067447 218.796424 
L 172.752956 218.796424 
L 172.752956 218.441788 
L 172.986898 218.441788 
L 172.986898 218.087153 
L 173.217966 218.087153 
L 173.217966 217.732518 
L 173.33845 217.732518 
L 173.33845 217.377882 
L 173.466122 217.377882 
L 173.466122 217.023247 
L 173.66389 217.023247 
L 173.742419 216.313976 
L 174.003127 216.313976 
L 174.003127 215.959341 
L 174.248833 215.959341 
L 174.283129 215.250071 
L 174.438582 215.250071 
L 174.438582 214.895435 
L 174.682428 214.895435 
L 174.682428 214.186165 
L 174.882632 214.186165 
L 174.882632 213.831529 
L 175.007602 213.831529 
L 175.007602 213.476894 
L 175.15357 213.476894 
L 175.168104 212.058353 
L 175.431409 212.058353 
L 175.431409 211.703718 
L 176.117204 211.703718 
L 176.117204 211.349082 
L 176.347181 211.349082 
L 176.347181 210.994447 
L 176.858725 210.994447 
L 176.96797 209.930541 
L 176.997654 209.930541 
L 177.066736 209.221271 
L 177.125747 209.221271 
L 177.168252 208.512 
L 177.311405 208.512 
L 177.311405 208.157365 
L 177.533725 208.157365 
L 177.620009 207.448094 
L 178.191527 207.448094 
L 178.250202 206.738824 
L 178.604514 206.738824 
L 178.634748 206.029553 
L 179.473713 206.029553 
L 179.537168 205.320282 
L 179.709147 205.320282 
L 179.709147 204.965647 
L 179.856935 204.965647 
L 179.950124 204.256376 
L 180.042855 204.256376 
L 180.042855 203.901741 
L 180.455946 203.901741 
L 180.486086 203.192471 
L 180.630634 203.192471 
L 180.652356 202.4832 
L 181.14517 202.4832 
L 181.203239 201.419294 
L 181.342399 201.419294 
L 181.412899 200.710024 
L 181.459752 200.710024 
L 181.540171 199.291482 
L 181.692283 199.291482 
L 181.692283 198.936847 
L 181.95239 198.936847 
L 181.95239 198.582212 
L 182.345852 198.582212 
L 182.345852 198.227576 
L 182.753108 198.227576 
L 182.753108 197.872941 
L 182.910204 197.872941 
L 182.910204 197.518306 
L 183.108916 197.518306 
L 183.108916 197.163671 
L 183.333809 197.163671 
L 183.430044 196.4544 
L 183.926786 196.4544 
L 183.926786 196.099765 
L 184.067629 196.099765 
L 184.067629 195.745129 
L 184.191694 195.745129 
L 184.191694 195.390494 
L 184.497217 195.390494 
L 184.499429 194.681224 
L 185.100196 194.681224 
L 185.100196 194.326588 
L 185.328037 194.326588 
L 185.328037 193.971953 
L 185.622039 193.971953 
L 185.665746 192.553412 
L 186.04238 192.553412 
L 186.054602 190.780235 
L 186.335543 190.780235 
L 186.397631 190.070965 
L 186.773755 190.070965 
L 186.773755 189.361694 
L 186.957094 189.361694 
L 187.024904 188.297788 
L 187.069333 188.297788 
L 187.069333 187.943153 
L 187.997255 187.943153 
L 188.050439 186.879247 
L 188.176379 186.879247 
L 188.203646 185.815341 
L 188.411391 185.815341 
L 188.411391 185.460706 
L 188.965467 185.460706 
L 188.965467 185.106071 
L 189.094111 185.106071 
L 189.182262 182.978259 
L 189.220161 182.978259 
L 189.314575 180.495812 
L 189.393178 180.495812 
L 189.425548 179.431906 
L 189.638818 179.431906 
L 189.71608 178.722635 
L 189.957566 178.722635 
L 190.043419 176.949459 
L 190.082911 176.949459 
L 190.138717 175.885553 
L 190.254722 175.885553 
L 190.321387 174.821647 
L 190.4395 174.821647 
L 190.4395 174.467012 
L 190.646426 174.467012 
L 190.749834 173.403106 
L 191.055131 173.403106 
L 191.109687 172.693835 
L 191.253885 172.693835 
L 191.253885 172.3392 
L 191.396986 172.3392 
L 191.430679 171.629929 
L 191.549653 171.629929 
L 191.643688 170.566024 
L 191.672412 170.566024 
L 191.734245 169.856753 
L 192.168835 169.856753 
L 192.214389 169.147482 
L 192.303706 169.147482 
L 192.332899 168.438212 
L 192.773984 168.438212 
L 192.864943 166.3104 
L 192.980846 166.3104 
L 192.980846 165.955765 
L 193.372695 165.955765 
L 193.482777 164.891859 
L 193.582667 164.891859 
L 193.680673 163.827953 
L 193.775469 163.827953 
L 193.779521 162.764047 
L 193.91141 162.764047 
L 194.019726 162.054776 
L 194.091592 162.054776 
L 194.176412 160.990871 
L 194.296362 160.990871 
L 194.300303 160.2816 
L 194.54696 160.2816 
L 194.54696 159.926965 
L 194.71733 159.926965 
L 194.727606 159.217694 
L 194.869609 159.217694 
L 194.940846 158.153788 
L 195.082515 158.153788 
L 195.111476 157.444518 
L 195.199346 157.444518 
L 195.199346 157.089882 
L 195.317944 157.089882 
L 195.317944 156.735247 
L 195.573804 156.735247 
L 195.573804 156.380612 
L 195.699831 156.380612 
L 195.795923 155.316706 
L 195.939749 155.316706 
L 195.939749 154.962071 
L 196.071727 154.962071 
L 196.071727 154.2528 
L 196.312881 154.2528 
L 196.416468 153.543529 
L 196.511313 153.543529 
L 196.511313 153.188894 
L 197.016058 153.188894 
L 197.075092 152.124988 
L 197.266807 152.124988 
L 197.355237 151.061082 
L 197.385365 151.061082 
L 197.468802 149.642541 
L 197.879436 149.642541 
L 197.879436 149.287906 
L 197.999603 149.287906 
L 197.999603 148.933271 
L 198.278107 148.933271 
L 198.377791 147.869365 
L 198.462214 147.869365 
L 198.478001 146.805459 
L 198.787891 146.805459 
L 198.89418 145.032282 
L 199.334552 145.032282 
L 199.427805 142.1952 
L 199.479746 142.1952 
L 199.551428 141.485929 
L 199.620858 141.485929 
L 199.620858 141.131294 
L 199.885308 141.131294 
L 199.989474 140.067388 
L 200.036016 140.067388 
L 200.036016 139.712753 
L 200.2804 139.712753 
L 200.390011 139.003482 
L 200.46494 139.003482 
L 200.572543 138.294212 
L 200.776611 138.294212 
L 200.776611 137.939576 
L 200.902808 137.939576 
L 200.902808 137.584941 
L 201.142648 137.584941 
L 201.142648 137.230306 
L 201.464035 137.230306 
L 201.46942 136.521035 
L 201.584826 136.521035 
L 201.584826 136.1664 
L 201.884769 136.1664 
L 201.950487 134.393224 
L 202.056901 134.393224 
L 202.056901 134.038588 
L 202.472381 134.038588 
L 202.474933 132.620047 
L 202.887207 132.620047 
L 202.996741 130.846871 
L 203.010801 130.846871 
L 203.075179 130.1376 
L 203.28901 130.1376 
L 203.362996 128.364424 
L 203.465767 128.364424 
L 203.473836 126.945882 
L 203.668842 126.945882 
L 203.746918 124.818071 
L 203.846828 124.818071 
L 203.949357 123.754165 
L 203.987072 123.754165 
L 204.088061 121.271718 
L 204.099768 121.271718 
L 204.13952 120.562447 
L 204.260595 120.562447 
L 204.346272 118.789271 
L 204.516465 118.789271 
L 204.600228 114.888282 
L 204.637421 114.888282 
L 204.68135 114.179012 
L 204.762877 114.179012 
L 204.838051 113.115106 
L 204.952489 113.115106 
L 204.982293 112.405835 
L 205.397579 112.405835 
L 205.397579 112.0512 
L 205.880709 112.0512 
L 205.899864 110.987294 
L 206.114896 110.987294 
L 206.114896 110.632659 
L 206.27266 110.632659 
L 206.323338 109.214118 
L 206.520579 109.214118 
L 206.520579 108.859482 
L 206.709662 108.859482 
L 206.780842 108.150212 
L 206.921057 108.150212 
L 206.97069 107.440941 
L 207.056233 107.440941 
L 207.121466 106.377035 
L 207.266428 106.377035 
L 207.355235 104.603859 
L 207.434477 104.603859 
L 207.434477 104.249224 
L 207.588727 104.249224 
L 207.634692 103.185318 
L 207.701818 103.185318 
L 207.803984 101.057506 
L 207.880724 101.057506 
L 207.988906 99.9936 
L 208.028207 99.9936 
L 208.095839 98.575059 
L 208.20154 98.575059 
L 208.20154 98.220424 
L 208.388826 98.220424 
L 208.398763 97.511153 
L 208.558268 97.511153 
L 208.568115 96.801882 
L 208.805957 96.801882 
L 208.894453 95.737976 
L 209.047428 95.737976 
L 209.069608 95.028706 
L 209.234241 95.028706 
L 209.299456 93.9648 
L 209.396856 93.9648 
L 209.396856 93.610165 
L 209.880452 93.610165 
L 209.880452 93.255529 
L 210.1205 93.255529 
L 210.169161 91.127718 
L 210.243607 91.127718 
L 210.353606 88.999906 
L 210.372623 88.999906 
L 210.478538 87.226729 
L 210.578331 87.226729 
L 210.652279 85.453553 
L 210.690244 85.453553 
L 210.690244 85.098918 
L 211.022583 85.098918 
L 211.022583 84.744282 
L 211.166759 84.744282 
L 211.166759 84.389647 
L 211.279497 84.389647 
L 211.30239 83.680376 
L 211.498756 83.680376 
L 211.498756 82.971106 
L 211.641432 82.971106 
L 211.690488 81.552565 
L 211.841548 81.552565 
L 211.949298 80.843294 
L 211.972417 80.843294 
L 211.972417 80.134024 
L 212.902994 80.134024 
L 212.994153 79.424753 
L 213.023308 79.424753 
L 213.0466 78.715482 
L 213.221817 78.715482 
L 213.221817 78.006212 
L 213.334863 78.006212 
L 213.334863 77.651576 
L 213.447708 77.651576 
L 213.46479 76.587671 
L 213.62583 76.587671 
L 213.732273 74.814494 
L 213.980784 74.814494 
L 214.019046 74.105224 
L 214.193689 74.105224 
L 214.232886 72.686682 
L 214.365369 72.686682 
L 214.46682 71.977412 
L 214.686328 71.977412 
L 214.793583 70.558871 
L 214.846981 70.558871 
L 214.944122 67.721788 
L 215.017632 67.721788 
L 215.033783 67.012518 
L 215.224364 67.012518 
L 215.292916 64.530071 
L 215.38693 64.530071 
L 215.453614 63.8208 
L 215.588817 63.8208 
L 215.692325 61.338353 
L 215.790238 61.338353 
L 215.790238 60.629082 
L 215.913478 60.629082 
L 216.005691 59.919812 
L 216.187542 59.919812 
L 216.261674 58.855906 
L 216.305361 58.855906 
L 216.411499 57.437365 
L 216.489602 57.437365 
L 216.552898 55.309553 
L 216.605549 55.309553 
L 216.691643 53.536376 
L 216.751875 53.536376 
L 216.75944 52.117835 
L 216.872158 52.117835 
L 216.976729 49.990024 
L 217.016432 49.990024 
L 217.110441 48.216847 
L 217.164674 48.216847 
L 217.262986 46.443671 
L 217.298222 46.443671 
L 217.408536 43.606588 
L 217.418533 43.606588 
L 217.528527 42.542682 
L 217.53846 42.542682 
L 217.649277 41.124141 
L 217.706524 41.124141 
L 217.794517 39.7056 
L 217.882851 39.7056 
L 217.962559 37.577788 
L 217.995764 37.577788 
L 218.093918 36.513882 
L 218.398846 36.513882 
L 218.417445 35.804612 
L 219.195034 35.804612 
L 219.195034 34.740706 
L 219.651461 34.740706 
L 219.713145 34.031435 
L 219.984729 34.031435 
L 219.984729 33.6768 
L 220.168612 33.6768 
L 220.175917 32.258259 
L 220.920218 32.258259 
L 220.920218 31.903624 
L 221.697216 31.903624 
L 221.697216 30.839718 
L 221.902156 30.839718 
L 221.910634 28.002635 
L 222.089601 28.002635 
L 222.089601 27.648 
L 360.8064 27.648 
L 360.8064 27.648 
" style="fill: none; stroke: #000080; stroke-width: 1.5; stroke-linecap: square"/>
   </g>
   <g id="line2d_36">
    <defs>
     <path id="m0677cbd92b" d="M 0 6 
C 1.591219 6 3.117479 5.367802 4.242641 4.242641 
C 5.367802 3.117479 6 1.591219 6 0 
C 6 -1.591219 5.367802 -3.117479 4.242641 -4.242641 
C 3.117479 -5.367802 1.591219 -6 0 -6 
C -1.591219 -6 -3.117479 -5.367802 -4.242641 -4.242641 
C -5.367802 -3.117479 -6 -1.591219 -6 0 
C -6 1.591219 -5.367802 3.117479 -4.242641 4.242641 
C -3.117479 5.367802 -1.591219 6 0 6 
z
" style="stroke: #000080; stroke-width: 1.5"/>
    </defs>
    <g>
     <use xlink:href="#m0677cbd92b" x="102.878374" y="282.630776" style="fill-opacity: 0; stroke: #000080; stroke-width: 1.5"/>
     <use xlink:href="#m0677cbd92b" x="192.980846" y="165.955765" style="fill-opacity: 0; stroke: #000080; stroke-width: 1.5"/>
     <use xlink:href="#m0677cbd92b" x="222.089601" y="28.002635" style="fill-opacity: 0; stroke: #000080; stroke-width: 1.5"/>
     <use xlink:href="#m0677cbd92b" x="222.089601" y="27.648" style="fill-opacity: 0; stroke: #000080; stroke-width: 1.5"/>
     <use xlink:href="#m0677cbd92b" x="222.089601" y="27.648" style="fill-opacity: 0; stroke: #000080; stroke-width: 1.5"/>
     <use xlink:href="#m0677cbd92b" x="360.8064" y="27.648" style="fill-opacity: 0; stroke: #000080; stroke-width: 1.5"/>
    </g>
   </g>
   <g id="line2d_37">
    <path style="fill: none; stroke: #000080; stroke-width: 1.5; stroke-linecap: square"/>
    <g/>
   </g>
   <g id="line2d_38">
    <defs>
     <path id="m6f2b4dc05f" d="M 0 1.5 
C 0.397805 1.5 0.77937 1.341951 1.06066 1.06066 
C 1.341951 0.77937 1.5 0.397805 1.5 0 
C 1.5 -0.397805 1.341951 -0.77937 1.06066 -1.06066 
C 0.77937 -1.341951 0.397805 -1.5 0 -1.5 
C -0.397805 -1.5 -0.77937 -1.341951 -1.06066 -1.06066 
C -1.341951 -0.77937 -1.5 -0.397805 -1.5 0 
C -1.5 0.397805 -1.341951 0.77937 -1.06066 1.06066 
C -0.77937 1.341951 -0.397805 1.5 0 1.5 
z
" style="stroke: #ff00ff"/>
    </defs>
    <g>
     <use xlink:href="#m6f2b4dc05f" x="192.956876" y="27.648" style="fill: #ff00ff; stroke: #ff00ff"/>
     <use xlink:href="#m6f2b4dc05f" x="192.956876" y="27.648" style="fill: #ff00ff; stroke: #ff00ff"/>
    </g>
   </g>
   <g id="line2d_39">
    <path d="M 14.2848 298.944 
L 14.2848 298.589365 
L 27.323974 298.589365 
L 27.323974 296.461553 
L 34.951403 296.461553 
L 34.951403 295.043012 
L 40.363149 295.043012 
L 40.363149 294.688376 
L 44.560826 294.688376 
L 44.560826 293.624471 
L 53.402323 293.624471 
L 53.402323 292.9152 
L 55.618005 292.9152 
L 55.618005 292.560565 
L 59.392932 292.560565 
L 59.392932 291.851294 
L 61.029752 291.851294 
L 61.029752 290.787388 
L 66.441498 290.787388 
L 66.441498 290.432753 
L 70.639174 290.432753 
L 70.639174 290.078118 
L 72.432107 290.078118 
L 72.432107 289.723482 
L 74.836851 289.723482 
L 74.836851 289.368847 
L 78.88343 289.368847 
L 78.88343 289.014212 
L 81.166416 289.014212 
L 81.166416 288.304941 
L 81.696354 288.304941 
L 81.696354 287.950306 
L 82.211771 287.950306 
L 82.211771 286.8864 
L 85.471281 286.8864 
L 85.471281 286.531765 
L 88.248544 286.531765 
L 88.248544 286.177129 
L 88.972154 286.177129 
L 88.972154 285.822494 
L 89.323782 285.822494 
L 89.323782 285.467859 
L 89.668958 285.467859 
L 89.668958 284.758588 
L 90.007914 284.758588 
L 90.007914 283.694682 
L 90.668036 283.694682 
L 90.668036 282.985412 
L 91.616719 282.985412 
L 91.616719 282.630776 
L 93.66029 282.630776 
L 93.66029 282.276141 
L 97.410051 282.276141 
L 97.410051 281.921506 
L 97.635342 281.921506 
L 97.635342 280.8576 
L 98.077987 280.8576 
L 98.077987 280.502965 
L 98.295464 280.502965 
L 98.295464 280.148329 
L 99.346662 280.148329 
L 99.346662 279.793694 
L 99.950294 279.793694 
L 99.950294 279.439059 
L 100.9152 279.439059 
L 100.9152 279.084424 
L 101.287718 279.084424 
L 101.287718 278.729788 
L 102.536336 278.729788 
L 102.536336 278.375153 
L 103.544339 278.375153 
L 103.544339 277.311247 
L 104.961779 277.311247 
L 104.961779 276.247341 
L 105.112877 276.247341 
L 105.112877 275.538071 
L 105.411479 275.538071 
L 105.411479 275.183435 
L 105.705415 275.183435 
L 105.705415 274.8288 
L 105.99483 274.8288 
L 105.99483 273.764894 
L 106.699465 273.764894 
L 106.699465 273.410259 
L 108.542628 273.410259 
L 108.542628 273.055624 
L 109.280431 273.055624 
L 109.280431 271.991718 
L 113.186449 271.991718 
L 113.186449 271.637082 
L 114.048198 271.637082 
L 114.048198 271.282447 
L 114.234452 271.282447 
L 114.234452 270.218541 
L 114.961559 270.218541 
L 114.961559 269.509271 
L 115.83262 269.509271 
L 115.83262 268.8 
L 116.086263 268.8 
L 116.086263 268.090729 
L 116.665126 268.090729 
L 116.665126 267.736094 
L 116.827295 267.736094 
L 116.827295 267.381459 
L 117.462345 267.381459 
L 117.540239 266.672188 
L 119.24818 266.672188 
L 119.24818 266.317553 
L 121.008818 266.317553 
L 121.008818 265.962918 
L 121.201758 265.962918 
L 121.201758 265.253647 
L 121.581803 265.253647 
L 121.581803 264.899012 
L 121.706797 264.899012 
L 121.706797 264.544376 
L 123.4884 264.544376 
L 123.4884 264.189741 
L 123.936316 264.189741 
L 123.936316 263.835106 
L 124.210942 263.835106 
L 124.210942 263.480471 
L 124.373813 263.480471 
L 124.373813 263.125835 
L 125.011554 263.125835 
L 125.011554 262.7712 
L 125.779479 262.7712 
L 125.779479 262.416565 
L 126.468985 262.416565 
L 126.468985 261.707294 
L 126.709238 261.707294 
L 126.709238 261.352659 
L 126.993549 261.352659 
L 126.993549 260.998024 
L 127.686077 260.998024 
L 127.686077 260.643388 
L 127.821575 260.643388 
L 127.821575 259.934118 
L 128.39771 259.934118 
L 128.39771 259.579482 
L 128.786481 259.579482 
L 128.786481 259.224847 
L 130.186674 259.224847 
L 130.186674 258.870212 
L 130.4233 258.870212 
L 130.4233 258.160941 
L 130.579414 258.160941 
L 130.656987 257.451671 
L 131.002163 257.451671 
L 131.002163 257.097035 
L 131.266322 257.097035 
L 131.341119 256.033129 
L 131.820186 256.033129 
L 131.820186 255.678494 
L 132.216233 255.678494 
L 132.216233 255.323859 
L 132.46399 255.323859 
L 132.46399 254.969224 
L 134.431915 254.969224 
L 134.431915 254.614588 
L 135.054871 254.614588 
L 135.054871 254.259953 
L 135.207439 254.259953 
L 135.207439 253.905318 
L 135.74666 253.905318 
L 135.74666 252.841412 
L 135.864417 252.841412 
L 135.952253 251.777506 
L 136.527575 251.777506 
L 136.527575 251.422871 
L 136.724851 251.422871 
L 136.752866 250.7136 
L 138.387352 250.7136 
L 138.387352 250.358965 
L 138.667556 250.358965 
L 138.667556 250.004329 
L 139.043049 250.004329 
L 139.043049 249.649694 
L 139.628669 249.649694 
L 139.628669 249.295059 
L 140.428281 249.295059 
L 140.428281 248.940424 
L 140.657135 248.940424 
L 140.657135 248.585788 
L 140.838234 248.585788 
L 140.883238 247.521882 
L 141.084433 247.521882 
L 141.084433 247.167247 
L 141.239443 247.167247 
L 141.239443 246.457976 
L 141.65386 246.457976 
L 141.761416 245.394071 
L 141.974701 245.394071 
L 141.974701 245.039435 
L 142.269295 245.039435 
L 142.269295 244.6848 
L 142.702713 244.6848 
L 142.763822 243.975529 
L 143.48206 243.975529 
L 143.48206 243.620894 
L 143.811926 243.620894 
L 143.811926 243.266259 
L 143.965177 243.266259 
L 143.984246 242.202353 
L 144.079302 242.202353 
L 144.079302 241.847718 
L 144.950106 241.847718 
L 144.950106 241.493082 
L 145.130294 241.493082 
L 145.130294 241.138447 
L 145.954802 241.138447 
L 145.954802 240.783812 
L 146.27812 240.783812 
L 146.27812 240.429176 
L 147.070998 240.429176 
L 147.135588 239.719906 
L 147.183884 239.719906 
L 147.183884 239.365271 
L 147.343984 239.365271 
L 147.391749 238.656 
L 147.644469 238.656 
L 147.753975 237.592094 
L 147.800712 237.592094 
L 147.800712 237.237459 
L 148.367783 237.237459 
L 148.367783 236.882824 
L 148.785835 236.882824 
L 148.785835 236.528188 
L 149.721926 236.528188 
L 149.820013 235.818918 
L 150.452162 235.818918 
L 150.452162 235.464282 
L 150.653788 235.464282 
L 150.653788 235.109647 
L 150.8268 235.109647 
L 150.932483 234.400376 
L 151.011358 234.400376 
L 151.011358 234.045741 
L 151.194122 234.045741 
L 151.194122 233.336471 
L 151.336488 233.336471 
L 151.336488 232.6272 
L 151.452172 232.6272 
L 151.452172 232.272565 
L 151.95789 232.272565 
L 151.95789 231.563294 
L 152.389508 231.563294 
L 152.389508 231.208659 
L 152.547334 231.208659 
L 152.547334 230.854024 
L 152.859068 230.854024 
L 152.953957 230.144753 
L 153.048369 230.144753 
L 153.048369 229.790118 
L 153.375128 229.790118 
L 153.375128 229.435482 
L 153.490466 229.435482 
L 153.58223 228.371576 
L 153.605101 228.371576 
L 153.605101 228.016941 
L 153.775755 228.016941 
L 153.775755 227.662306 
L 154.14583 227.662306 
L 154.223403 226.953035 
L 154.854139 226.953035 
L 154.854139 226.5984 
L 155.013876 226.5984 
L 155.013876 226.243765 
L 155.151225 226.243765 
L 155.151225 225.889129 
L 155.443693 225.889129 
L 155.443693 225.534494 
L 155.813163 225.534494 
L 155.813163 224.825224 
L 156.135597 224.825224 
L 156.175515 224.115953 
L 156.609116 224.115953 
L 156.696589 223.052047 
L 156.75468 223.052047 
L 156.831855 221.988141 
L 157.428797 221.988141 
L 157.428797 221.633506 
L 157.715719 221.633506 
L 157.770751 219.860329 
L 157.880333 219.860329 
L 157.980225 218.796424 
L 158.14255 218.796424 
L 158.187393 218.087153 
L 158.25892 218.087153 
L 158.25892 217.732518 
L 158.427714 217.732518 
L 158.427714 217.377882 
L 158.568692 217.377882 
L 158.568692 217.023247 
L 158.786875 217.023247 
L 158.79555 216.313976 
L 159.275069 216.313976 
L 159.384659 215.250071 
L 159.42664 215.250071 
L 159.42664 214.895435 
L 159.568678 214.895435 
L 159.618554 213.831529 
L 160.231096 213.831529 
L 160.231096 213.476894 
L 160.438872 213.476894 
L 160.534001 212.767624 
L 160.589271 212.767624 
L 160.62865 211.703718 
L 160.730652 211.703718 
L 160.730652 210.639812 
L 161.247762 210.639812 
L 161.300977 209.930541 
L 161.399407 209.930541 
L 161.467251 208.512 
L 161.721364 208.512 
L 161.721364 208.157365 
L 162.096211 208.157365 
L 162.205054 207.448094 
L 162.513623 207.448094 
L 162.513623 207.093459 
L 162.634233 207.093459 
L 162.634233 206.029553 
L 162.880139 206.029553 
L 162.880139 205.674918 
L 162.991492 205.674918 
L 163.046922 204.611012 
L 163.177917 204.611012 
L 163.177917 204.256376 
L 163.839461 204.256376 
L 163.839461 203.901741 
L 164.043972 203.901741 
L 164.148663 203.192471 
L 164.362764 203.192471 
L 164.362764 202.837835 
L 164.580835 202.837835 
L 164.580835 202.4832 
L 164.701605 202.4832 
L 164.739583 201.064659 
L 165.146166 201.064659 
L 165.189432 200.355388 
L 165.275667 200.355388 
L 165.385963 198.582212 
L 165.434777 198.582212 
L 165.434777 198.227576 
L 165.658907 198.227576 
L 165.658907 197.872941 
L 166.087543 197.872941 
L 166.087543 197.163671 
L 166.216591 197.163671 
L 166.216591 196.809035 
L 166.344759 196.809035 
L 166.437427 196.099765 
L 166.466293 196.099765 
L 166.546881 195.390494 
L 166.667119 195.390494 
L 166.667119 195.035859 
L 166.820591 195.035859 
L 166.860176 193.971953 
L 166.944723 193.971953 
L 167.000877 193.262682 
L 167.095955 193.262682 
L 167.118257 192.198776 
L 167.378342 192.198776 
L 167.487935 191.134871 
L 167.498859 191.134871 
L 167.498859 190.4256 
L 167.629457 190.4256 
L 167.629457 189.716329 
L 167.920031 189.716329 
L 167.920031 189.361694 
L 168.347644 189.361694 
L 168.378936 188.652424 
L 168.760648 188.652424 
L 168.760648 187.943153 
L 168.892945 187.943153 
L 168.994082 187.233882 
L 169.124754 187.233882 
L 169.194741 186.169976 
L 169.279377 186.169976 
L 169.363634 185.460706 
L 169.408088 185.460706 
L 169.501592 184.042165 
L 169.808349 184.042165 
L 169.909499 182.623624 
L 170.332249 182.623624 
L 170.416606 181.559718 
L 170.584193 181.559718 
L 170.584193 180.850447 
L 170.722717 180.850447 
L 170.722717 180.495812 
L 170.9104 180.495812 
L 170.9104 180.141176 
L 171.028455 180.141176 
L 171.069148 179.431906 
L 171.141275 179.431906 
L 171.235523 178.013365 
L 171.333756 178.013365 
L 171.333756 177.658729 
L 171.515469 177.658729 
L 171.572721 176.949459 
L 171.673587 176.949459 
L 171.73036 175.885553 
L 171.938512 175.885553 
L 172.00309 174.821647 
L 172.127316 174.821647 
L 172.127316 174.467012 
L 172.343812 174.467012 
L 172.343812 174.112376 
L 172.465815 174.112376 
L 172.495145 173.048471 
L 172.632807 173.048471 
L 172.740562 171.629929 
L 172.785966 171.629929 
L 172.880548 170.211388 
L 172.958324 170.211388 
L 172.978738 169.502118 
L 173.165515 169.502118 
L 173.246148 167.728941 
L 173.286335 167.728941 
L 173.362455 166.3104 
L 173.474073 166.3104 
L 173.474073 165.955765 
L 173.867387 165.955765 
L 173.87517 165.246494 
L 173.987664 165.246494 
L 174.095643 163.827953 
L 174.153236 163.827953 
L 174.153236 163.473318 
L 174.412132 163.473318 
L 174.480071 162.409412 
L 174.532743 162.409412 
L 174.589015 160.990871 
L 174.745685 160.990871 
L 174.7494 160.2816 
L 174.860492 160.2816 
L 174.901062 159.572329 
L 175.011265 159.572329 
L 175.066125 158.508424 
L 175.135386 158.508424 
L 175.146298 157.799153 
L 175.330851 157.799153 
L 175.330851 157.444518 
L 175.584799 157.444518 
L 175.584799 157.089882 
L 175.736948 157.089882 
L 175.803787 154.962071 
L 175.905348 154.962071 
L 175.905348 154.607435 
L 176.054937 154.607435 
L 176.144812 153.898165 
L 176.182707 153.898165 
L 176.213656 152.479624 
L 176.299358 152.479624 
L 176.405089 151.770353 
L 176.41189 151.770353 
L 176.449252 150.351812 
L 176.638314 150.351812 
L 176.705378 148.933271 
L 176.881951 148.933271 
L 176.951458 148.224 
L 177.017418 148.224 
L 177.017418 147.869365 
L 177.226946 147.869365 
L 177.314646 147.160094 
L 177.440606 147.160094 
L 177.440606 146.805459 
L 177.597677 146.805459 
L 177.686847 144.323012 
L 177.794559 144.323012 
L 177.794559 143.968376 
L 177.948714 143.968376 
L 178.02376 142.904471 
L 178.070512 142.904471 
L 178.120254 141.485929 
L 178.18534 141.485929 
L 178.225519 140.067388 
L 178.409858 140.067388 
L 178.409858 139.358118 
L 178.531754 139.358118 
L 178.531754 139.003482 
L 178.661917 139.003482 
L 178.698081 137.939576 
L 178.773202 137.939576 
L 178.874886 135.811765 
L 178.967121 135.811765 
L 179.01159 134.747859 
L 179.276214 134.747859 
L 179.276214 134.393224 
L 179.43322 134.393224 
L 179.47949 133.329318 
L 179.629086 133.329318 
L 179.669159 132.265412 
L 179.786028 132.265412 
L 179.888049 130.846871 
L 179.98952 130.846871 
L 180.096038 128.719059 
L 180.179707 128.719059 
L 180.287923 127.655153 
L 180.298987 127.655153 
L 180.351453 126.591247 
L 180.420264 126.591247 
L 180.486086 125.527341 
L 180.674054 125.527341 
L 180.774079 124.1088 
L 180.870894 124.1088 
L 180.956535 122.335624 
L 180.983218 122.335624 
L 181.086922 119.143906 
L 181.102826 119.143906 
L 181.147814 118.434635 
L 181.263756 118.434635 
L 181.313602 117.725365 
L 181.431133 117.725365 
L 181.522042 117.016094 
L 181.594454 117.016094 
L 181.6563 115.952188 
L 181.797269 115.952188 
L 181.797269 115.597553 
L 181.919439 115.597553 
L 182.02569 113.115106 
L 182.158919 113.115106 
L 182.201454 112.0512 
L 182.318551 112.0512 
L 182.417638 110.632659 
L 182.442328 110.632659 
L 182.498993 109.214118 
L 182.582448 109.214118 
L 182.663095 107.795576 
L 182.69477 107.795576 
L 182.69477 107.440941 
L 182.871656 107.440941 
L 182.943869 106.731671 
L 183.013413 106.731671 
L 183.104152 103.185318 
L 183.220515 103.185318 
L 183.291404 102.476047 
L 183.425361 102.476047 
L 183.532776 100.702871 
L 183.537433 100.702871 
L 183.644211 98.929694 
L 183.68352 98.929694 
L 183.720442 97.865788 
L 183.828482 97.865788 
L 183.828482 97.156518 
L 184.010964 97.156518 
L 184.108322 95.737976 
L 184.135402 95.737976 
L 184.229876 95.028706 
L 184.247818 95.028706 
L 184.281412 93.255529 
L 184.421855 93.255529 
L 184.44627 92.191624 
L 184.578887 92.191624 
L 184.655817 91.127718 
L 184.708387 91.127718 
L 184.79568 89.709176 
L 184.87173 89.709176 
L 184.971217 88.290635 
L 185.132303 88.290635 
L 185.202747 86.517459 
L 185.46511 86.517459 
L 185.51966 85.098918 
L 185.594932 85.098918 
L 185.696903 82.971106 
L 185.756994 82.971106 
L 185.798324 82.261835 
L 185.897148 82.261835 
L 185.960698 81.197929 
L 186.026072 81.197929 
L 186.083089 78.715482 
L 186.180433 78.715482 
L 186.234968 77.296941 
L 186.305427 77.296941 
L 186.397631 75.169129 
L 186.425603 75.169129 
L 186.425603 74.814494 
L 186.541048 74.814494 
L 186.645926 73.041318 
L 186.68732 73.041318 
L 186.771795 70.913506 
L 186.805088 70.913506 
L 186.890986 69.8496 
L 186.926013 69.8496 
L 187.001683 69.140329 
L 187.046166 69.140329 
L 187.155956 68.076424 
L 187.184741 68.076424 
L 187.276561 66.303247 
L 187.308974 66.303247 
L 187.385018 64.884706 
L 187.441851 64.884706 
L 187.549362 63.466165 
L 187.64878 63.466165 
L 187.743953 61.338353 
L 187.846054 61.338353 
L 187.899666 59.919812 
L 188.039448 59.919812 
L 188.13267 58.146635 
L 188.152716 58.146635 
L 188.227246 57.082729 
L 188.265306 57.082729 
L 188.373626 54.954918 
L 188.407798 54.954918 
L 188.495639 54.245647 
L 188.583073 54.245647 
L 188.691354 51.408565 
L 188.694894 51.408565 
L 188.791974 49.990024 
L 188.841205 49.990024 
L 188.841205 49.280753 
L 189.066371 49.280753 
L 189.11662 48.216847 
L 189.192606 48.216847 
L 189.251112 47.152941 
L 189.34879 47.152941 
L 189.432356 45.025129 
L 189.532485 45.025129 
L 189.627033 43.606588 
L 189.727809 43.606588 
L 189.819716 41.478776 
L 189.85968 41.478776 
L 189.929414 40.060235 
L 189.972454 40.060235 
L 190.063175 38.641694 
L 190.110835 38.641694 
L 190.189455 37.223153 
L 190.236797 37.223153 
L 190.345717 35.804612 
L 190.478171 35.804612 
L 190.478171 35.449976 
L 190.641639 35.449976 
L 190.675119 34.740706 
L 190.802117 34.740706 
L 190.849521 34.031435 
L 190.921976 34.031435 
L 190.9581 33.322165 
L 191.041077 33.322165 
L 191.078532 32.612894 
L 191.153218 32.612894 
L 191.153218 32.258259 
L 191.277039 32.258259 
L 191.277039 31.903624 
L 191.528354 31.903624 
L 191.592179 31.194353 
L 191.725209 31.194353 
L 191.761327 30.485082 
L 191.908094 30.485082 
L 192.009264 29.421176 
L 192.086263 29.421176 
L 192.086263 29.066541 
L 192.376602 29.066541 
L 192.376602 28.711906 
L 192.699754 28.711906 
L 192.745468 28.002635 
L 192.956876 28.002635 
L 192.956876 27.648 
L 360.8064 27.648 
L 360.8064 27.648 
" style="fill: none; stroke: #ff00ff; stroke-width: 1.5; stroke-linecap: square"/>
   </g>
   <g id="line2d_40">
    <defs>
     <path id="m041daa2d5a" d="M 0 8.485281 
L 5.091169 0 
L 0 -8.485281 
L -5.091169 0 
z
" style="stroke: #ff00ff; stroke-width: 1.5; stroke-linejoin: miter"/>
    </defs>
    <g>
     <use xlink:href="#m041daa2d5a" x="131.341119" y="256.7424" style="fill-opacity: 0; stroke: #ff00ff; stroke-width: 1.5; stroke-linejoin: miter"/>
     <use xlink:href="#m041daa2d5a" x="175.146298" y="158.153788" style="fill-opacity: 0; stroke: #ff00ff; stroke-width: 1.5; stroke-linejoin: miter"/>
     <use xlink:href="#m041daa2d5a" x="192.956876" y="28.002635" style="fill-opacity: 0; stroke: #ff00ff; stroke-width: 1.5; stroke-linejoin: miter"/>
     <use xlink:href="#m041daa2d5a" x="192.956876" y="27.648" style="fill-opacity: 0; stroke: #ff00ff; stroke-width: 1.5; stroke-linejoin: miter"/>
     <use xlink:href="#m041daa2d5a" x="192.956876" y="27.648" style="fill-opacity: 0; stroke: #ff00ff; stroke-width: 1.5; stroke-linejoin: miter"/>
     <use xlink:href="#m041daa2d5a" x="360.8064" y="27.648" style="fill-opacity: 0; stroke: #ff00ff; stroke-width: 1.5; stroke-linejoin: miter"/>
    </g>
   </g>
   <g id="line2d_41">
    <path style="fill: none; stroke: #ff00ff; stroke-width: 1.5; stroke-linecap: square"/>
    <g/>
   </g>
   <g id="line2d_42">
    <path d="M 360.8064 27.648 
L 380.514816 293.51808 
" style="fill: none; stroke: #000080; stroke-width: 1.5; stroke-linecap: square"/>
    <g>
     <use xlink:href="#m0677cbd92b" x="360.8064" y="27.648" style="fill-opacity: 0; stroke: #000080; stroke-width: 1.5"/>
     <use xlink:href="#m0677cbd92b" x="380.514816" y="293.51808" style="fill-opacity: 0; stroke: #000080; stroke-width: 1.5"/>
    </g>
   </g>
   <g id="line2d_43">
    <path d="M 360.8064 27.648 
L 380.514816 163.296 
" style="fill: none; stroke: #ff00ff; stroke-width: 1.5; stroke-linecap: square"/>
    <g>
     <use xlink:href="#m041daa2d5a" x="360.8064" y="27.648" style="fill-opacity: 0; stroke: #ff00ff; stroke-width: 1.5; stroke-linejoin: miter"/>
     <use xlink:href="#m041daa2d5a" x="380.514816" y="163.296" style="fill-opacity: 0; stroke: #ff00ff; stroke-width: 1.5; stroke-linejoin: miter"/>
    </g>
   </g>
   <g id="line2d_44">
    <path d="M 360.8064 298.944 
L 360.8064 27.648 
" style="fill: none; stroke: #000000; stroke-width: 1.5; stroke-linecap: square"/>
   </g>
   <g id="patch_3">
    <path d="M 57.6 298.944 
L 360.8064 298.944 
" style="fill: none; stroke: #000000; stroke-width: 0.8; stroke-linejoin: miter; stroke-linecap: square"/>
   </g>
   <g id="patch_4">
    <path d="M 57.6 27.648 
L 360.8064 27.648 
" style="fill: none; stroke: #000000; stroke-width: 0.8; stroke-linejoin: miter; stroke-linecap: square"/>
   </g>
   <g id="text_13">
    <!-- LCGA -->
    <g transform="translate(386.578944 297.381205)scale(0.14 -0.14)">
     <defs>
      <path id="DejaVuSans-4c" d="M 628 4666 
L 1259 4666 
L 1259 531 
L 3531 531 
L 3531 0 
L 628 0 
L 628 4666 
z
" transform="scale(0.015625)"/>
      <path id="DejaVuSans-43" d="M 4122 4306 
L 4122 3641 
Q 3803 3938 3442 4084 
Q 3081 4231 2675 4231 
Q 1875 4231 1450 3742 
Q 1025 3253 1025 2328 
Q 1025 1406 1450 917 
Q 1875 428 2675 428 
Q 3081 428 3442 575 
Q 3803 722 4122 1019 
L 4122 359 
Q 3791 134 3420 21 
Q 3050 -91 2638 -91 
Q 1578 -91 968 557 
Q 359 1206 359 2328 
Q 359 3453 968 4101 
Q 1578 4750 2638 4750 
Q 3056 4750 3426 4639 
Q 3797 4528 4122 4306 
z
" transform="scale(0.015625)"/>
      <path id="DejaVuSans-47" d="M 3809 666 
L 3809 1919 
L 2778 1919 
L 2778 2438 
L 4434 2438 
L 4434 434 
Q 4069 175 3628 42 
Q 3188 -91 2688 -91 
Q 1594 -91 976 548 
Q 359 1188 359 2328 
Q 359 3472 976 4111 
Q 1594 4750 2688 4750 
Q 3144 4750 3555 4637 
Q 3966 4525 4313 4306 
L 4313 3634 
Q 3963 3931 3569 4081 
Q 3175 4231 2741 4231 
Q 1884 4231 1454 3753 
Q 1025 3275 1025 2328 
Q 1025 1384 1454 906 
Q 1884 428 2741 428 
Q 3075 428 3337 486 
Q 3600 544 3809 666 
z
" transform="scale(0.015625)"/>
      <path id="DejaVuSans-41" d="M 2188 4044 
L 1331 1722 
L 3047 1722 
L 2188 4044 
z
M 1831 4666 
L 2547 4666 
L 4325 0 
L 3669 0 
L 3244 1197 
L 1141 1197 
L 716 0 
L 50 0 
L 1831 4666 
z
" transform="scale(0.015625)"/>
     </defs>
     <use xlink:href="#DejaVuSans-4c"/>
     <use xlink:href="#DejaVuSans-43" x="55.712891"/>
     <use xlink:href="#DejaVuSans-47" x="125.537109"/>
     <use xlink:href="#DejaVuSans-41" x="203.027344"/>
    </g>
   </g>
   <g id="text_14">
    <!-- PSO -->
    <g transform="translate(386.578944 167.159125)scale(0.14 -0.14)">
     <defs>
      <path id="DejaVuSans-50" d="M 1259 4147 
L 1259 2394 
L 2053 2394 
Q 2494 2394 2734 2622 
Q 2975 2850 2975 3272 
Q 2975 3691 2734 3919 
Q 2494 4147 2053 4147 
L 1259 4147 
z
M 628 4666 
L 2053 4666 
Q 2838 4666 3239 4311 
Q 3641 3956 3641 3272 
Q 3641 2581 3239 2228 
Q 2838 1875 2053 1875 
L 1259 1875 
L 1259 0 
L 628 0 
L 628 4666 
z
" transform="scale(0.015625)"/>
      <path id="DejaVuSans-53" d="M 3425 4513 
L 3425 3897 
Q 3066 4069 2747 4153 
Q 2428 4238 2131 4238 
Q 1616 4238 1336 4038 
Q 1056 3838 1056 3469 
Q 1056 3159 1242 3001 
Q 1428 2844 1947 2747 
L 2328 2669 
Q 3034 2534 3370 2195 
Q 3706 1856 3706 1288 
Q 3706 609 3251 259 
Q 2797 -91 1919 -91 
Q 1588 -91 1214 -16 
Q 841 59 441 206 
L 441 856 
Q 825 641 1194 531 
Q 1563 422 1919 422 
Q 2459 422 2753 634 
Q 3047 847 3047 1241 
Q 3047 1584 2836 1778 
Q 2625 1972 2144 2069 
L 1759 2144 
Q 1053 2284 737 2584 
Q 422 2884 422 3419 
Q 422 4038 858 4394 
Q 1294 4750 2059 4750 
Q 2388 4750 2728 4690 
Q 3069 4631 3425 4513 
z
" transform="scale(0.015625)"/>
      <path id="DejaVuSans-4f" d="M 2522 4238 
Q 1834 4238 1429 3725 
Q 1025 3213 1025 2328 
Q 1025 1447 1429 934 
Q 1834 422 2522 422 
Q 3209 422 3611 934 
Q 4013 1447 4013 2328 
Q 4013 3213 3611 3725 
Q 3209 4238 2522 4238 
z
M 2522 4750 
Q 3503 4750 4090 4092 
Q 4678 3434 4678 2328 
Q 4678 1225 4090 567 
Q 3503 -91 2522 -91 
Q 1538 -91 948 565 
Q 359 1222 359 2328 
Q 359 3434 948 4092 
Q 1538 4750 2522 4750 
z
" transform="scale(0.015625)"/>
     </defs>
     <use xlink:href="#DejaVuSans-50"/>
     <use xlink:href="#DejaVuSans-53" x="60.302734"/>
     <use xlink:href="#DejaVuSans-4f" x="123.779297"/>
    </g>
   </g>
   <g id="text_15">
    <!-- best 2009 -->
    <g transform="translate(386.578944 36.937045)scale(0.14 -0.14)">
     <defs>
      <path id="DejaVuSans-62" d="M 3116 1747 
Q 3116 2381 2855 2742 
Q 2594 3103 2138 3103 
Q 1681 3103 1420 2742 
Q 1159 2381 1159 1747 
Q 1159 1113 1420 752 
Q 1681 391 2138 391 
Q 2594 391 2855 752 
Q 3116 1113 3116 1747 
z
M 1159 2969 
Q 1341 3281 1617 3432 
Q 1894 3584 2278 3584 
Q 2916 3584 3314 3078 
Q 3713 2572 3713 1747 
Q 3713 922 3314 415 
Q 2916 -91 2278 -91 
Q 1894 -91 1617 61 
Q 1341 213 1159 525 
L 1159 0 
L 581 0 
L 581 4863 
L 1159 4863 
L 1159 2969 
z
" transform="scale(0.015625)"/>
      <path id="DejaVuSans-39" d="M 703 97 
L 703 672 
Q 941 559 1184 500 
Q 1428 441 1663 441 
Q 2288 441 2617 861 
Q 2947 1281 2994 2138 
Q 2813 1869 2534 1725 
Q 2256 1581 1919 1581 
Q 1219 1581 811 2004 
Q 403 2428 403 3163 
Q 403 3881 828 4315 
Q 1253 4750 1959 4750 
Q 2769 4750 3195 4129 
Q 3622 3509 3622 2328 
Q 3622 1225 3098 567 
Q 2575 -91 1691 -91 
Q 1453 -91 1209 -44 
Q 966 3 703 97 
z
M 1959 2075 
Q 2384 2075 2632 2365 
Q 2881 2656 2881 3163 
Q 2881 3666 2632 3958 
Q 2384 4250 1959 4250 
Q 1534 4250 1286 3958 
Q 1038 3666 1038 3163 
Q 1038 2656 1286 2365 
Q 1534 2075 1959 2075 
z
" transform="scale(0.015625)"/>
     </defs>
     <use xlink:href="#DejaVuSans-62"/>
     <use xlink:href="#DejaVuSans-65" x="63.476562"/>
     <use xlink:href="#DejaVuSans-73" x="125"/>
     <use xlink:href="#DejaVuSans-74" x="177.099609"/>
     <use xlink:href="#DejaVuSans-20" x="216.308594"/>
     <use xlink:href="#DejaVuSans-32" x="248.095703"/>
     <use xlink:href="#DejaVuSans-30" x="311.71875"/>
     <use xlink:href="#DejaVuSans-30" x="375.341797"/>
     <use xlink:href="#DejaVuSans-39" x="438.964844"/>
    </g>
   </g>
   <g id="text_16">
    <!-- bbob f1, 10-D -->
    <g transform="translate(60.632064 38.111366)scale(0.102 -0.102)">
     <defs>
      <path id="DejaVuSans-44" d="M 1259 4147 
L 1259 519 
L 2022 519 
Q 2988 519 3436 956 
Q 3884 1394 3884 2338 
Q 3884 3275 3436 3711 
Q 2988 4147 2022 4147 
L 1259 4147 
z
M 628 4666 
L 1925 4666 
Q 3281 4666 3915 4102 
Q 4550 3538 4550 2338 
Q 4550 1131 3912 565 
Q 3275 0 1925 0 
L 628 0 
L 628 4666 
z
" transform="scale(0.015625)"/>
     </defs>
     <use xlink:href="#DejaVuSans-62"/>
     <use xlink:href="#DejaVuSans-62" x="63.476562"/>
     <use xlink:href="#DejaVuSans-6f" x="126.953125"/>
     <use xlink:href="#DejaVuSans-62" x="188.134766"/>
     <use xlink:href="#DejaVuSans-20" x="251.611328"/>
     <use xlink:href="#DejaVuSans-66" x="283.398438"/>
     <use xlink:href="#DejaVuSans-31" x="318.603516"/>
     <use xlink:href="#DejaVuSans-2c" x="382.226562"/>
     <use xlink:href="#DejaVuSans-20" x="414.013672"/>
     <use xlink:href="#DejaVuSans-31" x="445.800781"/>
     <use xlink:href="#DejaVuSans-30" x="509.423828"/>
     <use xlink:href="#DejaVuSans-2d" x="573.046875"/>
     <use xlink:href="#DejaVuSans-44" x="609.130859"/>
    </g>
    <!-- 51 targets: 100..1e-08 -->
    <g transform="translate(60.632064 49.533135)scale(0.102 -0.102)">
     <defs>
      <path id="DejaVuSans-35" d="M 691 4666 
L 3169 4666 
L 3169 4134 
L 1269 4134 
L 1269 2991 
Q 1406 3038 1543 3061 
Q 1681 3084 1819 3084 
Q 2600 3084 3056 2656 
Q 3513 2228 3513 1497 
Q 3513 744 3044 326 
Q 2575 -91 1722 -91 
Q 1428 -91 1123 -41 
Q 819 9 494 109 
L 494 744 
Q 775 591 1075 516 
Q 1375 441 1709 441 
Q 2250 441 2565 725 
Q 2881 1009 2881 1497 
Q 2881 1984 2565 2268 
Q 2250 2553 1709 2553 
Q 1456 2553 1204 2497 
Q 953 2441 691 2322 
L 691 4666 
z
" transform="scale(0.015625)"/>
      <path id="DejaVuSans-3a" d="M 750 794 
L 1409 794 
L 1409 0 
L 750 0 
L 750 794 
z
M 750 3309 
L 1409 3309 
L 1409 2516 
L 750 2516 
L 750 3309 
z
" transform="scale(0.015625)"/>
     </defs>
     <use xlink:href="#DejaVuSans-35"/>
     <use xlink:href="#DejaVuSans-31" x="63.623047"/>
     <use xlink:href="#DejaVuSans-20" x="127.246094"/>
     <use xlink:href="#DejaVuSans-74" x="159.033203"/>
     <use xlink:href="#DejaVuSans-61" x="198.242188"/>
     <use xlink:href="#DejaVuSans-72" x="259.521484"/>
     <use xlink:href="#DejaVuSans-67" x="298.884766"/>
     <use xlink:href="#DejaVuSans-65" x="362.361328"/>
     <use xlink:href="#DejaVuSans-74" x="423.884766"/>
     <use xlink:href="#DejaVuSans-73" x="463.09375"/>
     <use xlink:href="#DejaVuSans-3a" x="515.193359"/>
     <use xlink:href="#DejaVuSans-20" x="548.884766"/>
     <use xlink:href="#DejaVuSans-31" x="580.671875"/>
     <use xlink:href="#DejaVuSans-30" x="644.294922"/>
     <use xlink:href="#DejaVuSans-30" x="707.917969"/>
     <use xlink:href="#DejaVuSans-2e" x="771.541016"/>
     <use xlink:href="#DejaVuSans-2e" x="803.328125"/>
     <use xlink:href="#DejaVuSans-31" x="835.115234"/>
     <use xlink:href="#DejaVuSans-65" x="898.738281"/>
     <use xlink:href="#DejaVuSans-2d" x="960.261719"/>
     <use xlink:href="#DejaVuSans-30" x="996.345703"/>
     <use xlink:href="#DejaVuSans-38" x="1059.96875"/>
    </g>
    <!-- 15 instances -->
    <g transform="translate(60.632064 60.954904)scale(0.102 -0.102)">
     <use xlink:href="#DejaVuSans-31"/>
     <use xlink:href="#DejaVuSans-35" x="63.623047"/>
     <use xlink:href="#DejaVuSans-20" x="127.246094"/>
     <use xlink:href="#DejaVuSans-69" x="159.033203"/>
     <use xlink:href="#DejaVuSans-6e" x="186.816406"/>
     <use xlink:href="#DejaVuSans-73" x="250.195312"/>
     <use xlink:href="#DejaVuSans-74" x="302.294922"/>
     <use xlink:href="#DejaVuSans-61" x="341.503906"/>
     <use xlink:href="#DejaVuSans-6e" x="402.783203"/>
     <use xlink:href="#DejaVuSans-63" x="466.162109"/>
     <use xlink:href="#DejaVuSans-65" x="521.142578"/>
     <use xlink:href="#DejaVuSans-73" x="582.666016"/>
    </g>
   </g>
   <g id="text_17">
    <!-- v2.6 -->
    <g style="fill: #808080" transform="translate(198.292262 294.151352)scale(0.1 -0.1)">
     <use xlink:href="#DejaVuSans-76"/>
     <use xlink:href="#DejaVuSans-32" x="59.179688"/>
     <use xlink:href="#DejaVuSans-2e" x="122.802734"/>
     <use xlink:href="#DejaVuSans-36" x="154.589844"/>
    </g>
   </g>
   <g id="text_18">
    <!-- 1 Sphere -->
    <g transform="translate(164.436012 21.648)scale(0.2 -0.2)">
     <defs>
      <path id="DejaVuSans-68" d="M 3513 2113 
L 3513 0 
L 2938 0 
L 2938 2094 
Q 2938 2591 2744 2837 
Q 2550 3084 2163 3084 
Q 1697 3084 1428 2787 
Q 1159 2491 1159 1978 
L 1159 0 
L 581 0 
L 581 4863 
L 1159 4863 
L 1159 2956 
Q 1366 3272 1645 3428 
Q 1925 3584 2291 3584 
Q 2894 3584 3203 3211 
Q 3513 2838 3513 2113 
z
" transform="scale(0.015625)"/>
     </defs>
     <use xlink:href="#DejaVuSans-31"/>
     <use xlink:href="#DejaVuSans-20" x="63.623047"/>
     <use xlink:href="#DejaVuSans-53" x="95.410156"/>
     <use xlink:href="#DejaVuSans-70" x="158.886719"/>
     <use xlink:href="#DejaVuSans-68" x="222.363281"/>
     <use xlink:href="#DejaVuSans-65" x="285.742188"/>
     <use xlink:href="#DejaVuSans-72" x="347.265625"/>
     <use xlink:href="#DejaVuSans-65" x="386.128906"/>
    </g>
   </g>
  </g>
 </g>
 <defs>
  <clipPath id="p860fee618e">
   <rect x="57.6" y="27.648" width="303.2064" height="271.296"/>
  </clipPath>
 </defs>
</svg>
