<?xml version="1.0" encoding="utf-8" standalone="no"?>
<!DOCTYPE svg PUBLIC "-//W3C//DTD SVG 1.1//EN"
  "http://www.w3.org/Graphics/SVG/1.1/DTD/svg11.dtd">
<svg xmlns:xlink="http://www.w3.org/1999/xlink" width="460.8pt" height="345.6pt" viewBox="0 0 460.8 345.6" xmlns="http://www.w3.org/2000/svg" version="1.1">
 <metadata>
  <rdf:RDF xmlns:dc="http://purl.org/dc/elements/1.1/" xmlns:cc="http://creativecommons.org/ns#" xmlns:rdf="http://www.w3.org/1999/02/22-rdf-syntax-ns#">
   <cc:Work>
    <dc:type rdf:resource="http://purl.org/dc/dcmitype/StillImage"/>
    <dc:date>2024-05-29T08:02:45.947767</dc:date>
    <dc:format>image/svg+xml</dc:format>
    <dc:creator>
     <cc:Agent>
      <dc:title>Matplotlib v3.5.1, https://matplotlib.org/</dc:title>
     </cc:Agent>
    </dc:creator>
   </cc:Work>
  </rdf:RDF>
 </metadata>
 <defs>
  <style type="text/css">*{stroke-linejoin: round; stroke-linecap: butt}</style>
 </defs>
 <g id="figure_1">
  <g id="patch_1">
   <path d="M 0 345.6 
L 460.8 345.6 
L 460.8 0 
L 0 0 
z
" style="fill: #ffffff"/>
  </g>
  <g id="axes_1">
   <g id="patch_2">
    <path d="M 57.6 298.944 
L 360.8064 298.944 
L 360.8064 27.648 
L 57.6 27.648 
z
" style="fill: #ffffff"/>
   </g>
   <g id="line2d_1">
    <path d="M 36.933397 298.944 
L 36.933397 272.346353 
L 57.6 272.346353 
L 57.6 267.026824 
L 89.090095 267.026824 
L 89.090095 261.707294 
L 108.119879 261.707294 
L 108.119879 256.387765 
L 119.129494 256.387765 
L 119.129494 251.068235 
L 136.413909 251.068235 
L 136.413909 245.748706 
L 149.968501 245.748706 
L 149.968501 240.429176 
L 158.513014 240.429176 
L 158.513014 235.109647 
L 159.898714 235.109647 
L 159.898714 229.790118 
L 162.56338 229.790118 
L 162.56338 224.470588 
L 163.554297 224.470588 
L 163.554297 219.151059 
L 165.021997 219.151059 
L 165.021997 213.831529 
L 165.874446 213.831529 
L 165.874446 208.512 
L 166.364103 208.512 
L 166.364103 203.192471 
L 168.842171 203.192471 
L 168.842171 197.872941 
L 169.244573 197.872941 
L 169.244573 192.553412 
L 170.542436 192.553412 
L 170.542436 187.233882 
L 170.650504 187.233882 
L 170.650504 181.914353 
L 172.746072 181.914353 
L 172.746072 176.594824 
L 172.842224 176.594824 
L 172.842224 171.275294 
L 181.787904 171.275294 
L 181.787904 165.955765 
L 181.830435 165.955765 
L 181.830435 160.636235 
L 181.898286 160.636235 
L 181.898286 155.316706 
L 181.991182 155.316706 
L 181.991182 149.997176 
L 182.075238 149.997176 
L 182.075238 144.677647 
L 182.117125 144.677647 
L 182.117125 139.358118 
L 182.158919 139.358118 
L 182.158919 134.038588 
L 182.20895 134.038588 
L 182.20895 128.719059 
L 182.283747 128.719059 
L 182.283747 123.399529 
L 182.308614 123.399529 
L 182.308614 118.08 
L 182.440683 118.08 
L 182.440683 112.760471 
L 182.489971 112.760471 
L 182.489971 107.440941 
L 182.53913 107.440941 
L 182.53913 102.121412 
L 182.579998 102.121412 
L 182.579998 96.801882 
L 182.710183 96.801882 
L 182.710183 91.482353 
L 182.774938 91.482353 
L 182.774938 86.162824 
L 182.831418 86.162824 
L 182.831418 80.843294 
L 182.871656 80.843294 
L 182.871656 75.523765 
L 182.911809 75.523765 
L 182.911809 70.204235 
L 183.182598 70.204235 
L 183.182598 64.884706 
L 183.261506 64.884706 
L 183.261506 59.565176 
L 183.292976 59.565176 
L 183.292976 54.245647 
L 183.340084 54.245647 
L 183.340084 48.926118 
L 183.387073 48.926118 
L 183.387073 43.606588 
L 183.433946 43.606588 
L 183.433946 38.287059 
L 183.488484 38.287059 
L 183.488484 32.967529 
L 183.550619 32.967529 
L 183.550619 27.648 
L 360.8064 27.648 
" style="fill: none; stroke: #f5deb3; stroke-width: 4; stroke-linecap: square"/>
   </g>
   <g id="line2d_2">
    <defs>
     <path id="mb14b4486dc" d="M 0 7.778175 
L 7.778175 0 
L 0 -7.778175 
L -7.778175 0 
z
" style="stroke: #f5deb3; stroke-width: 1.5; stroke-linejoin: miter"/>
    </defs>
    <g>
     <use xlink:href="#mb14b4486dc" x="89.090095" y="267.026824" style="fill: #f5deb3; stroke: #f5deb3; stroke-width: 1.5; stroke-linejoin: miter"/>
     <use xlink:href="#mb14b4486dc" x="169.244573" y="197.872941" style="fill: #f5deb3; stroke: #f5deb3; stroke-width: 1.5; stroke-linejoin: miter"/>
     <use xlink:href="#mb14b4486dc" x="183.261506" y="64.884706" style="fill: #f5deb3; stroke: #f5deb3; stroke-width: 1.5; stroke-linejoin: miter"/>
     <use xlink:href="#mb14b4486dc" x="183.550619" y="32.967529" style="fill: #f5deb3; stroke: #f5deb3; stroke-width: 1.5; stroke-linejoin: miter"/>
     <use xlink:href="#mb14b4486dc" x="183.550619" y="27.648" style="fill: #f5deb3; stroke: #f5deb3; stroke-width: 1.5; stroke-linejoin: miter"/>
     <use xlink:href="#mb14b4486dc" x="360.8064" y="27.648" style="fill: #f5deb3; stroke: #f5deb3; stroke-width: 1.5; stroke-linejoin: miter"/>
    </g>
   </g>
   <g id="line2d_3">
    <path style="fill: none; stroke: #f5deb3; stroke-width: 4; stroke-linecap: square"/>
    <g/>
   </g>
   <g id="line2d_4">
    <path d="M 360.8064 27.648 
L 380.514816 33.07392 
" style="fill: none; stroke: #f5deb3; stroke-width: 4; stroke-linecap: square"/>
    <g>
     <use xlink:href="#mb14b4486dc" x="360.8064" y="27.648" style="fill: #f5deb3; stroke: #f5deb3; stroke-width: 1.5; stroke-linejoin: miter"/>
     <use xlink:href="#mb14b4486dc" x="380.514816" y="33.07392" style="fill: #f5deb3; stroke: #f5deb3; stroke-width: 1.5; stroke-linejoin: miter"/>
    </g>
   </g>
   <g id="matplotlib.axis_1">
    <g id="xtick_1">
     <g id="line2d_5">
      <path d="M 57.6 298.944 
L 57.6 27.648 
" clip-path="url(#p510e57c6b4)" style="fill: none; stroke: #b0b0b0; stroke-width: 0.8; stroke-linecap: square"/>
     </g>
     <g id="line2d_6">
      <defs>
       <path id="m95f7c32d48" d="M 0 0 
L 0 3.5 
" style="stroke: #000000; stroke-width: 0.8"/>
      </defs>
      <g>
       <use xlink:href="#m95f7c32d48" x="57.6" y="298.944" style="stroke: #000000; stroke-width: 0.8"/>
      </g>
     </g>
     <g id="text_1">
      <!-- 0 -->
      <g transform="translate(52.191875 318.861344)scale(0.17 -0.17)">
       <defs>
        <path id="DejaVuSans-30" d="M 2034 4250 
Q 1547 4250 1301 3770 
Q 1056 3291 1056 2328 
Q 1056 1369 1301 889 
Q 1547 409 2034 409 
Q 2525 409 2770 889 
Q 3016 1369 3016 2328 
Q 3016 3291 2770 3770 
Q 2525 4250 2034 4250 
z
M 2034 4750 
Q 2819 4750 3233 4129 
Q 3647 3509 3647 2328 
Q 3647 1150 3233 529 
Q 2819 -91 2034 -91 
Q 1250 -91 836 529 
Q 422 1150 422 2328 
Q 422 3509 836 4129 
Q 1250 4750 2034 4750 
z
" transform="scale(0.015625)"/>
       </defs>
       <use xlink:href="#DejaVuSans-30"/>
      </g>
     </g>
    </g>
    <g id="xtick_2">
     <g id="line2d_7">
      <path d="M 144.2304 298.944 
L 144.2304 27.648 
" clip-path="url(#p510e57c6b4)" style="fill: none; stroke: #b0b0b0; stroke-width: 0.8; stroke-linecap: square"/>
     </g>
     <g id="line2d_8">
      <g>
       <use xlink:href="#m95f7c32d48" x="144.2304" y="298.944" style="stroke: #000000; stroke-width: 0.8"/>
      </g>
     </g>
     <g id="text_2">
      <!-- 2 -->
      <g transform="translate(138.822275 318.861344)scale(0.17 -0.17)">
       <defs>
        <path id="DejaVuSans-32" d="M 1228 531 
L 3431 531 
L 3431 0 
L 469 0 
L 469 531 
Q 828 903 1448 1529 
Q 2069 2156 2228 2338 
Q 2531 2678 2651 2914 
Q 2772 3150 2772 3378 
Q 2772 3750 2511 3984 
Q 2250 4219 1831 4219 
Q 1534 4219 1204 4116 
Q 875 4013 500 3803 
L 500 4441 
Q 881 4594 1212 4672 
Q 1544 4750 1819 4750 
Q 2544 4750 2975 4387 
Q 3406 4025 3406 3419 
Q 3406 3131 3298 2873 
Q 3191 2616 2906 2266 
Q 2828 2175 2409 1742 
Q 1991 1309 1228 531 
z
" transform="scale(0.015625)"/>
       </defs>
       <use xlink:href="#DejaVuSans-32"/>
      </g>
     </g>
    </g>
    <g id="xtick_3">
     <g id="line2d_9">
      <path d="M 230.8608 298.944 
L 230.8608 27.648 
" clip-path="url(#p510e57c6b4)" style="fill: none; stroke: #b0b0b0; stroke-width: 0.8; stroke-linecap: square"/>
     </g>
     <g id="line2d_10">
      <g>
       <use xlink:href="#m95f7c32d48" x="230.8608" y="298.944" style="stroke: #000000; stroke-width: 0.8"/>
      </g>
     </g>
     <g id="text_3">
      <!-- 4 -->
      <g transform="translate(225.452675 318.861344)scale(0.17 -0.17)">
       <defs>
        <path id="DejaVuSans-34" d="M 2419 4116 
L 825 1625 
L 2419 1625 
L 2419 4116 
z
M 2253 4666 
L 3047 4666 
L 3047 1625 
L 3713 1625 
L 3713 1100 
L 3047 1100 
L 3047 0 
L 2419 0 
L 2419 1100 
L 313 1100 
L 313 1709 
L 2253 4666 
z
" transform="scale(0.015625)"/>
       </defs>
       <use xlink:href="#DejaVuSans-34"/>
      </g>
     </g>
    </g>
    <g id="xtick_4">
     <g id="line2d_11">
      <path d="M 317.4912 298.944 
L 317.4912 27.648 
" clip-path="url(#p510e57c6b4)" style="fill: none; stroke: #b0b0b0; stroke-width: 0.8; stroke-linecap: square"/>
     </g>
     <g id="line2d_12">
      <g>
       <use xlink:href="#m95f7c32d48" x="317.4912" y="298.944" style="stroke: #000000; stroke-width: 0.8"/>
      </g>
     </g>
     <g id="text_4">
      <!-- 6 -->
      <g transform="translate(312.083075 318.861344)scale(0.17 -0.17)">
       <defs>
        <path id="DejaVuSans-36" d="M 2113 2584 
Q 1688 2584 1439 2293 
Q 1191 2003 1191 1497 
Q 1191 994 1439 701 
Q 1688 409 2113 409 
Q 2538 409 2786 701 
Q 3034 994 3034 1497 
Q 3034 2003 2786 2293 
Q 2538 2584 2113 2584 
z
M 3366 4563 
L 3366 3988 
Q 3128 4100 2886 4159 
Q 2644 4219 2406 4219 
Q 1781 4219 1451 3797 
Q 1122 3375 1075 2522 
Q 1259 2794 1537 2939 
Q 1816 3084 2150 3084 
Q 2853 3084 3261 2657 
Q 3669 2231 3669 1497 
Q 3669 778 3244 343 
Q 2819 -91 2113 -91 
Q 1303 -91 875 529 
Q 447 1150 447 2328 
Q 447 3434 972 4092 
Q 1497 4750 2381 4750 
Q 2619 4750 2861 4703 
Q 3103 4656 3366 4563 
z
" transform="scale(0.015625)"/>
       </defs>
       <use xlink:href="#DejaVuSans-36"/>
      </g>
     </g>
    </g>
    <g id="xtick_5">
     <g id="line2d_13">
      <path d="M 100.9152 298.944 
L 100.9152 27.648 
" clip-path="url(#p510e57c6b4)" style="fill: none; stroke: #b0b0b0; stroke-width: 0.8; stroke-linecap: square"/>
     </g>
     <g id="line2d_14">
      <defs>
       <path id="maa88ce18cd" d="M 0 0 
L 0 2 
" style="stroke: #000000; stroke-width: 0.6"/>
      </defs>
      <g>
       <use xlink:href="#maa88ce18cd" x="100.9152" y="298.944" style="stroke: #000000; stroke-width: 0.6"/>
      </g>
     </g>
    </g>
    <g id="xtick_6">
     <g id="line2d_15">
      <path d="M 187.5456 298.944 
L 187.5456 27.648 
" clip-path="url(#p510e57c6b4)" style="fill: none; stroke: #b0b0b0; stroke-width: 0.8; stroke-linecap: square"/>
     </g>
     <g id="line2d_16">
      <g>
       <use xlink:href="#maa88ce18cd" x="187.5456" y="298.944" style="stroke: #000000; stroke-width: 0.6"/>
      </g>
     </g>
    </g>
    <g id="xtick_7">
     <g id="line2d_17">
      <path d="M 274.176 298.944 
L 274.176 27.648 
" clip-path="url(#p510e57c6b4)" style="fill: none; stroke: #b0b0b0; stroke-width: 0.8; stroke-linecap: square"/>
     </g>
     <g id="line2d_18">
      <g>
       <use xlink:href="#maa88ce18cd" x="274.176" y="298.944" style="stroke: #000000; stroke-width: 0.6"/>
      </g>
     </g>
    </g>
    <g id="xtick_8">
     <g id="line2d_19">
      <path d="M 360.8064 298.944 
L 360.8064 27.648 
" clip-path="url(#p510e57c6b4)" style="fill: none; stroke: #b0b0b0; stroke-width: 0.8; stroke-linecap: square"/>
     </g>
     <g id="line2d_20">
      <g>
       <use xlink:href="#maa88ce18cd" x="360.8064" y="298.944" style="stroke: #000000; stroke-width: 0.6"/>
      </g>
     </g>
    </g>
    <g id="text_5">
     <!-- log10(# f-evals / dimension) -->
     <g transform="translate(88.823278 339.314156)scale(0.17 -0.17)">
      <defs>
       <path id="DejaVuSans-6c" d="M 603 4863 
L 1178 4863 
L 1178 0 
L 603 0 
L 603 4863 
z
" transform="scale(0.015625)"/>
       <path id="DejaVuSans-6f" d="M 1959 3097 
Q 1497 3097 1228 2736 
Q 959 2375 959 1747 
Q 959 1119 1226 758 
Q 1494 397 1959 397 
Q 2419 397 2687 759 
Q 2956 1122 2956 1747 
Q 2956 2369 2687 2733 
Q 2419 3097 1959 3097 
z
M 1959 3584 
Q 2709 3584 3137 3096 
Q 3566 2609 3566 1747 
Q 3566 888 3137 398 
Q 2709 -91 1959 -91 
Q 1206 -91 779 398 
Q 353 888 353 1747 
Q 353 2609 779 3096 
Q 1206 3584 1959 3584 
z
" transform="scale(0.015625)"/>
       <path id="DejaVuSans-67" d="M 2906 1791 
Q 2906 2416 2648 2759 
Q 2391 3103 1925 3103 
Q 1463 3103 1205 2759 
Q 947 2416 947 1791 
Q 947 1169 1205 825 
Q 1463 481 1925 481 
Q 2391 481 2648 825 
Q 2906 1169 2906 1791 
z
M 3481 434 
Q 3481 -459 3084 -895 
Q 2688 -1331 1869 -1331 
Q 1566 -1331 1297 -1286 
Q 1028 -1241 775 -1147 
L 775 -588 
Q 1028 -725 1275 -790 
Q 1522 -856 1778 -856 
Q 2344 -856 2625 -561 
Q 2906 -266 2906 331 
L 2906 616 
Q 2728 306 2450 153 
Q 2172 0 1784 0 
Q 1141 0 747 490 
Q 353 981 353 1791 
Q 353 2603 747 3093 
Q 1141 3584 1784 3584 
Q 2172 3584 2450 3431 
Q 2728 3278 2906 2969 
L 2906 3500 
L 3481 3500 
L 3481 434 
z
" transform="scale(0.015625)"/>
       <path id="DejaVuSans-31" d="M 794 531 
L 1825 531 
L 1825 4091 
L 703 3866 
L 703 4441 
L 1819 4666 
L 2450 4666 
L 2450 531 
L 3481 531 
L 3481 0 
L 794 0 
L 794 531 
z
" transform="scale(0.015625)"/>
       <path id="DejaVuSans-28" d="M 1984 4856 
Q 1566 4138 1362 3434 
Q 1159 2731 1159 2009 
Q 1159 1288 1364 580 
Q 1569 -128 1984 -844 
L 1484 -844 
Q 1016 -109 783 600 
Q 550 1309 550 2009 
Q 550 2706 781 3412 
Q 1013 4119 1484 4856 
L 1984 4856 
z
" transform="scale(0.015625)"/>
       <path id="DejaVuSans-23" d="M 3272 2816 
L 2363 2816 
L 2100 1772 
L 3016 1772 
L 3272 2816 
z
M 2803 4594 
L 2478 3297 
L 3391 3297 
L 3719 4594 
L 4219 4594 
L 3897 3297 
L 4872 3297 
L 4872 2816 
L 3775 2816 
L 3519 1772 
L 4513 1772 
L 4513 1294 
L 3397 1294 
L 3072 0 
L 2572 0 
L 2894 1294 
L 1978 1294 
L 1656 0 
L 1153 0 
L 1478 1294 
L 494 1294 
L 494 1772 
L 1594 1772 
L 1856 2816 
L 850 2816 
L 850 3297 
L 1978 3297 
L 2297 4594 
L 2803 4594 
z
" transform="scale(0.015625)"/>
       <path id="DejaVuSans-20" transform="scale(0.015625)"/>
       <path id="DejaVuSans-66" d="M 2375 4863 
L 2375 4384 
L 1825 4384 
Q 1516 4384 1395 4259 
Q 1275 4134 1275 3809 
L 1275 3500 
L 2222 3500 
L 2222 3053 
L 1275 3053 
L 1275 0 
L 697 0 
L 697 3053 
L 147 3053 
L 147 3500 
L 697 3500 
L 697 3744 
Q 697 4328 969 4595 
Q 1241 4863 1831 4863 
L 2375 4863 
z
" transform="scale(0.015625)"/>
       <path id="DejaVuSans-2d" d="M 313 2009 
L 1997 2009 
L 1997 1497 
L 313 1497 
L 313 2009 
z
" transform="scale(0.015625)"/>
       <path id="DejaVuSans-65" d="M 3597 1894 
L 3597 1613 
L 953 1613 
Q 991 1019 1311 708 
Q 1631 397 2203 397 
Q 2534 397 2845 478 
Q 3156 559 3463 722 
L 3463 178 
Q 3153 47 2828 -22 
Q 2503 -91 2169 -91 
Q 1331 -91 842 396 
Q 353 884 353 1716 
Q 353 2575 817 3079 
Q 1281 3584 2069 3584 
Q 2775 3584 3186 3129 
Q 3597 2675 3597 1894 
z
M 3022 2063 
Q 3016 2534 2758 2815 
Q 2500 3097 2075 3097 
Q 1594 3097 1305 2825 
Q 1016 2553 972 2059 
L 3022 2063 
z
" transform="scale(0.015625)"/>
       <path id="DejaVuSans-76" d="M 191 3500 
L 800 3500 
L 1894 563 
L 2988 3500 
L 3597 3500 
L 2284 0 
L 1503 0 
L 191 3500 
z
" transform="scale(0.015625)"/>
       <path id="DejaVuSans-61" d="M 2194 1759 
Q 1497 1759 1228 1600 
Q 959 1441 959 1056 
Q 959 750 1161 570 
Q 1363 391 1709 391 
Q 2188 391 2477 730 
Q 2766 1069 2766 1631 
L 2766 1759 
L 2194 1759 
z
M 3341 1997 
L 3341 0 
L 2766 0 
L 2766 531 
Q 2569 213 2275 61 
Q 1981 -91 1556 -91 
Q 1019 -91 701 211 
Q 384 513 384 1019 
Q 384 1609 779 1909 
Q 1175 2209 1959 2209 
L 2766 2209 
L 2766 2266 
Q 2766 2663 2505 2880 
Q 2244 3097 1772 3097 
Q 1472 3097 1187 3025 
Q 903 2953 641 2809 
L 641 3341 
Q 956 3463 1253 3523 
Q 1550 3584 1831 3584 
Q 2591 3584 2966 3190 
Q 3341 2797 3341 1997 
z
" transform="scale(0.015625)"/>
       <path id="DejaVuSans-73" d="M 2834 3397 
L 2834 2853 
Q 2591 2978 2328 3040 
Q 2066 3103 1784 3103 
Q 1356 3103 1142 2972 
Q 928 2841 928 2578 
Q 928 2378 1081 2264 
Q 1234 2150 1697 2047 
L 1894 2003 
Q 2506 1872 2764 1633 
Q 3022 1394 3022 966 
Q 3022 478 2636 193 
Q 2250 -91 1575 -91 
Q 1294 -91 989 -36 
Q 684 19 347 128 
L 347 722 
Q 666 556 975 473 
Q 1284 391 1588 391 
Q 1994 391 2212 530 
Q 2431 669 2431 922 
Q 2431 1156 2273 1281 
Q 2116 1406 1581 1522 
L 1381 1569 
Q 847 1681 609 1914 
Q 372 2147 372 2553 
Q 372 3047 722 3315 
Q 1072 3584 1716 3584 
Q 2034 3584 2315 3537 
Q 2597 3491 2834 3397 
z
" transform="scale(0.015625)"/>
       <path id="DejaVuSans-2f" d="M 1625 4666 
L 2156 4666 
L 531 -594 
L 0 -594 
L 1625 4666 
z
" transform="scale(0.015625)"/>
       <path id="DejaVuSans-64" d="M 2906 2969 
L 2906 4863 
L 3481 4863 
L 3481 0 
L 2906 0 
L 2906 525 
Q 2725 213 2448 61 
Q 2172 -91 1784 -91 
Q 1150 -91 751 415 
Q 353 922 353 1747 
Q 353 2572 751 3078 
Q 1150 3584 1784 3584 
Q 2172 3584 2448 3432 
Q 2725 3281 2906 2969 
z
M 947 1747 
Q 947 1113 1208 752 
Q 1469 391 1925 391 
Q 2381 391 2643 752 
Q 2906 1113 2906 1747 
Q 2906 2381 2643 2742 
Q 2381 3103 1925 3103 
Q 1469 3103 1208 2742 
Q 947 2381 947 1747 
z
" transform="scale(0.015625)"/>
       <path id="DejaVuSans-69" d="M 603 3500 
L 1178 3500 
L 1178 0 
L 603 0 
L 603 3500 
z
M 603 4863 
L 1178 4863 
L 1178 4134 
L 603 4134 
L 603 4863 
z
" transform="scale(0.015625)"/>
       <path id="DejaVuSans-6d" d="M 3328 2828 
Q 3544 3216 3844 3400 
Q 4144 3584 4550 3584 
Q 5097 3584 5394 3201 
Q 5691 2819 5691 2113 
L 5691 0 
L 5113 0 
L 5113 2094 
Q 5113 2597 4934 2840 
Q 4756 3084 4391 3084 
Q 3944 3084 3684 2787 
Q 3425 2491 3425 1978 
L 3425 0 
L 2847 0 
L 2847 2094 
Q 2847 2600 2669 2842 
Q 2491 3084 2119 3084 
Q 1678 3084 1418 2786 
Q 1159 2488 1159 1978 
L 1159 0 
L 581 0 
L 581 3500 
L 1159 3500 
L 1159 2956 
Q 1356 3278 1631 3431 
Q 1906 3584 2284 3584 
Q 2666 3584 2933 3390 
Q 3200 3197 3328 2828 
z
" transform="scale(0.015625)"/>
       <path id="DejaVuSans-6e" d="M 3513 2113 
L 3513 0 
L 2938 0 
L 2938 2094 
Q 2938 2591 2744 2837 
Q 2550 3084 2163 3084 
Q 1697 3084 1428 2787 
Q 1159 2491 1159 1978 
L 1159 0 
L 581 0 
L 581 3500 
L 1159 3500 
L 1159 2956 
Q 1366 3272 1645 3428 
Q 1925 3584 2291 3584 
Q 2894 3584 3203 3211 
Q 3513 2838 3513 2113 
z
" transform="scale(0.015625)"/>
       <path id="DejaVuSans-29" d="M 513 4856 
L 1013 4856 
Q 1481 4119 1714 3412 
Q 1947 2706 1947 2009 
Q 1947 1309 1714 600 
Q 1481 -109 1013 -844 
L 513 -844 
Q 928 -128 1133 580 
Q 1338 1288 1338 2009 
Q 1338 2731 1133 3434 
Q 928 4138 513 4856 
z
" transform="scale(0.015625)"/>
      </defs>
      <use xlink:href="#DejaVuSans-6c"/>
      <use xlink:href="#DejaVuSans-6f" x="27.783203"/>
      <use xlink:href="#DejaVuSans-67" x="88.964844"/>
      <use xlink:href="#DejaVuSans-31" x="152.441406"/>
      <use xlink:href="#DejaVuSans-30" x="216.064453"/>
      <use xlink:href="#DejaVuSans-28" x="279.6875"/>
      <use xlink:href="#DejaVuSans-23" x="318.701172"/>
      <use xlink:href="#DejaVuSans-20" x="402.490234"/>
      <use xlink:href="#DejaVuSans-66" x="434.277344"/>
      <use xlink:href="#DejaVuSans-2d" x="463.982422"/>
      <use xlink:href="#DejaVuSans-65" x="500.066406"/>
      <use xlink:href="#DejaVuSans-76" x="561.589844"/>
      <use xlink:href="#DejaVuSans-61" x="620.769531"/>
      <use xlink:href="#DejaVuSans-6c" x="682.048828"/>
      <use xlink:href="#DejaVuSans-73" x="709.832031"/>
      <use xlink:href="#DejaVuSans-20" x="761.931641"/>
      <use xlink:href="#DejaVuSans-2f" x="793.71875"/>
      <use xlink:href="#DejaVuSans-20" x="827.410156"/>
      <use xlink:href="#DejaVuSans-64" x="859.197266"/>
      <use xlink:href="#DejaVuSans-69" x="922.673828"/>
      <use xlink:href="#DejaVuSans-6d" x="950.457031"/>
      <use xlink:href="#DejaVuSans-65" x="1047.869141"/>
      <use xlink:href="#DejaVuSans-6e" x="1109.392578"/>
      <use xlink:href="#DejaVuSans-73" x="1172.771484"/>
      <use xlink:href="#DejaVuSans-69" x="1224.871094"/>
      <use xlink:href="#DejaVuSans-6f" x="1252.654297"/>
      <use xlink:href="#DejaVuSans-6e" x="1313.835938"/>
      <use xlink:href="#DejaVuSans-29" x="1377.214844"/>
     </g>
    </g>
   </g>
   <g id="matplotlib.axis_2">
    <g id="ytick_1">
     <g id="line2d_21">
      <path d="M 57.6 298.944 
L 360.8064 298.944 
" clip-path="url(#p510e57c6b4)" style="fill: none; stroke: #b0b0b0; stroke-width: 0.8; stroke-linecap: square"/>
     </g>
     <g id="line2d_22">
      <defs>
       <path id="m61733342c5" d="M 0 0 
L -3.5 0 
" style="stroke: #000000; stroke-width: 0.8"/>
      </defs>
      <g>
       <use xlink:href="#m61733342c5" x="57.6" y="298.944" style="stroke: #000000; stroke-width: 0.8"/>
      </g>
     </g>
     <g id="text_6">
      <!-- 0.0 -->
      <g transform="translate(25.155 305.02275)scale(0.16 -0.16)">
       <defs>
        <path id="DejaVuSans-2e" d="M 684 794 
L 1344 794 
L 1344 0 
L 684 0 
L 684 794 
z
" transform="scale(0.015625)"/>
       </defs>
       <use xlink:href="#DejaVuSans-30"/>
       <use xlink:href="#DejaVuSans-2e" x="63.623047"/>
       <use xlink:href="#DejaVuSans-30" x="95.410156"/>
      </g>
     </g>
    </g>
    <g id="ytick_2">
     <g id="line2d_23">
      <path d="M 57.6 244.6848 
L 360.8064 244.6848 
" clip-path="url(#p510e57c6b4)" style="fill: none; stroke: #b0b0b0; stroke-width: 0.8; stroke-linecap: square"/>
     </g>
     <g id="line2d_24">
      <g>
       <use xlink:href="#m61733342c5" x="57.6" y="244.6848" style="stroke: #000000; stroke-width: 0.8"/>
      </g>
     </g>
     <g id="text_7">
      <!-- 0.2 -->
      <g transform="translate(25.155 250.76355)scale(0.16 -0.16)">
       <use xlink:href="#DejaVuSans-30"/>
       <use xlink:href="#DejaVuSans-2e" x="63.623047"/>
       <use xlink:href="#DejaVuSans-32" x="95.410156"/>
      </g>
     </g>
    </g>
    <g id="ytick_3">
     <g id="line2d_25">
      <path d="M 57.6 190.4256 
L 360.8064 190.4256 
" clip-path="url(#p510e57c6b4)" style="fill: none; stroke: #b0b0b0; stroke-width: 0.8; stroke-linecap: square"/>
     </g>
     <g id="line2d_26">
      <g>
       <use xlink:href="#m61733342c5" x="57.6" y="190.4256" style="stroke: #000000; stroke-width: 0.8"/>
      </g>
     </g>
     <g id="text_8">
      <!-- 0.4 -->
      <g transform="translate(25.155 196.50435)scale(0.16 -0.16)">
       <use xlink:href="#DejaVuSans-30"/>
       <use xlink:href="#DejaVuSans-2e" x="63.623047"/>
       <use xlink:href="#DejaVuSans-34" x="95.410156"/>
      </g>
     </g>
    </g>
    <g id="ytick_4">
     <g id="line2d_27">
      <path d="M 57.6 136.1664 
L 360.8064 136.1664 
" clip-path="url(#p510e57c6b4)" style="fill: none; stroke: #b0b0b0; stroke-width: 0.8; stroke-linecap: square"/>
     </g>
     <g id="line2d_28">
      <g>
       <use xlink:href="#m61733342c5" x="57.6" y="136.1664" style="stroke: #000000; stroke-width: 0.8"/>
      </g>
     </g>
     <g id="text_9">
      <!-- 0.6 -->
      <g transform="translate(25.155 142.24515)scale(0.16 -0.16)">
       <use xlink:href="#DejaVuSans-30"/>
       <use xlink:href="#DejaVuSans-2e" x="63.623047"/>
       <use xlink:href="#DejaVuSans-36" x="95.410156"/>
      </g>
     </g>
    </g>
    <g id="ytick_5">
     <g id="line2d_29">
      <path d="M 57.6 81.9072 
L 360.8064 81.9072 
" clip-path="url(#p510e57c6b4)" style="fill: none; stroke: #b0b0b0; stroke-width: 0.8; stroke-linecap: square"/>
     </g>
     <g id="line2d_30">
      <g>
       <use xlink:href="#m61733342c5" x="57.6" y="81.9072" style="stroke: #000000; stroke-width: 0.8"/>
      </g>
     </g>
     <g id="text_10">
      <!-- 0.8 -->
      <g transform="translate(25.155 87.98595)scale(0.16 -0.16)">
       <defs>
        <path id="DejaVuSans-38" d="M 2034 2216 
Q 1584 2216 1326 1975 
Q 1069 1734 1069 1313 
Q 1069 891 1326 650 
Q 1584 409 2034 409 
Q 2484 409 2743 651 
Q 3003 894 3003 1313 
Q 3003 1734 2745 1975 
Q 2488 2216 2034 2216 
z
M 1403 2484 
Q 997 2584 770 2862 
Q 544 3141 544 3541 
Q 544 4100 942 4425 
Q 1341 4750 2034 4750 
Q 2731 4750 3128 4425 
Q 3525 4100 3525 3541 
Q 3525 3141 3298 2862 
Q 3072 2584 2669 2484 
Q 3125 2378 3379 2068 
Q 3634 1759 3634 1313 
Q 3634 634 3220 271 
Q 2806 -91 2034 -91 
Q 1263 -91 848 271 
Q 434 634 434 1313 
Q 434 1759 690 2068 
Q 947 2378 1403 2484 
z
M 1172 3481 
Q 1172 3119 1398 2916 
Q 1625 2713 2034 2713 
Q 2441 2713 2670 2916 
Q 2900 3119 2900 3481 
Q 2900 3844 2670 4047 
Q 2441 4250 2034 4250 
Q 1625 4250 1398 4047 
Q 1172 3844 1172 3481 
z
" transform="scale(0.015625)"/>
       </defs>
       <use xlink:href="#DejaVuSans-30"/>
       <use xlink:href="#DejaVuSans-2e" x="63.623047"/>
       <use xlink:href="#DejaVuSans-38" x="95.410156"/>
      </g>
     </g>
    </g>
    <g id="ytick_6">
     <g id="line2d_31">
      <path d="M 57.6 27.648 
L 360.8064 27.648 
" clip-path="url(#p510e57c6b4)" style="fill: none; stroke: #b0b0b0; stroke-width: 0.8; stroke-linecap: square"/>
     </g>
     <g id="line2d_32">
      <g>
       <use xlink:href="#m61733342c5" x="57.6" y="27.648" style="stroke: #000000; stroke-width: 0.8"/>
      </g>
     </g>
     <g id="text_11">
      <!-- 1.0 -->
      <g transform="translate(25.155 33.72675)scale(0.16 -0.16)">
       <use xlink:href="#DejaVuSans-31"/>
       <use xlink:href="#DejaVuSans-2e" x="63.623047"/>
       <use xlink:href="#DejaVuSans-30" x="95.410156"/>
      </g>
     </g>
    </g>
    <g id="text_12">
     <!-- Fraction of function,target pairs -->
     <g transform="translate(17.619531 297.681)rotate(-90)scale(0.17 -0.17)">
      <defs>
       <path id="DejaVuSans-46" d="M 628 4666 
L 3309 4666 
L 3309 4134 
L 1259 4134 
L 1259 2759 
L 3109 2759 
L 3109 2228 
L 1259 2228 
L 1259 0 
L 628 0 
L 628 4666 
z
" transform="scale(0.015625)"/>
       <path id="DejaVuSans-72" d="M 2631 2963 
Q 2534 3019 2420 3045 
Q 2306 3072 2169 3072 
Q 1681 3072 1420 2755 
Q 1159 2438 1159 1844 
L 1159 0 
L 581 0 
L 581 3500 
L 1159 3500 
L 1159 2956 
Q 1341 3275 1631 3429 
Q 1922 3584 2338 3584 
Q 2397 3584 2469 3576 
Q 2541 3569 2628 3553 
L 2631 2963 
z
" transform="scale(0.015625)"/>
       <path id="DejaVuSans-63" d="M 3122 3366 
L 3122 2828 
Q 2878 2963 2633 3030 
Q 2388 3097 2138 3097 
Q 1578 3097 1268 2742 
Q 959 2388 959 1747 
Q 959 1106 1268 751 
Q 1578 397 2138 397 
Q 2388 397 2633 464 
Q 2878 531 3122 666 
L 3122 134 
Q 2881 22 2623 -34 
Q 2366 -91 2075 -91 
Q 1284 -91 818 406 
Q 353 903 353 1747 
Q 353 2603 823 3093 
Q 1294 3584 2113 3584 
Q 2378 3584 2631 3529 
Q 2884 3475 3122 3366 
z
" transform="scale(0.015625)"/>
       <path id="DejaVuSans-74" d="M 1172 4494 
L 1172 3500 
L 2356 3500 
L 2356 3053 
L 1172 3053 
L 1172 1153 
Q 1172 725 1289 603 
Q 1406 481 1766 481 
L 2356 481 
L 2356 0 
L 1766 0 
Q 1100 0 847 248 
Q 594 497 594 1153 
L 594 3053 
L 172 3053 
L 172 3500 
L 594 3500 
L 594 4494 
L 1172 4494 
z
" transform="scale(0.015625)"/>
       <path id="DejaVuSans-75" d="M 544 1381 
L 544 3500 
L 1119 3500 
L 1119 1403 
Q 1119 906 1312 657 
Q 1506 409 1894 409 
Q 2359 409 2629 706 
Q 2900 1003 2900 1516 
L 2900 3500 
L 3475 3500 
L 3475 0 
L 2900 0 
L 2900 538 
Q 2691 219 2414 64 
Q 2138 -91 1772 -91 
Q 1169 -91 856 284 
Q 544 659 544 1381 
z
M 1991 3584 
L 1991 3584 
z
" transform="scale(0.015625)"/>
       <path id="DejaVuSans-2c" d="M 750 794 
L 1409 794 
L 1409 256 
L 897 -744 
L 494 -744 
L 750 256 
L 750 794 
z
" transform="scale(0.015625)"/>
       <path id="DejaVuSans-70" d="M 1159 525 
L 1159 -1331 
L 581 -1331 
L 581 3500 
L 1159 3500 
L 1159 2969 
Q 1341 3281 1617 3432 
Q 1894 3584 2278 3584 
Q 2916 3584 3314 3078 
Q 3713 2572 3713 1747 
Q 3713 922 3314 415 
Q 2916 -91 2278 -91 
Q 1894 -91 1617 61 
Q 1341 213 1159 525 
z
M 3116 1747 
Q 3116 2381 2855 2742 
Q 2594 3103 2138 3103 
Q 1681 3103 1420 2742 
Q 1159 2381 1159 1747 
Q 1159 1113 1420 752 
Q 1681 391 2138 391 
Q 2594 391 2855 752 
Q 3116 1113 3116 1747 
z
" transform="scale(0.015625)"/>
      </defs>
      <use xlink:href="#DejaVuSans-46"/>
      <use xlink:href="#DejaVuSans-72" x="50.269531"/>
      <use xlink:href="#DejaVuSans-61" x="91.382812"/>
      <use xlink:href="#DejaVuSans-63" x="152.662109"/>
      <use xlink:href="#DejaVuSans-74" x="207.642578"/>
      <use xlink:href="#DejaVuSans-69" x="246.851562"/>
      <use xlink:href="#DejaVuSans-6f" x="274.634766"/>
      <use xlink:href="#DejaVuSans-6e" x="335.816406"/>
      <use xlink:href="#DejaVuSans-20" x="399.195312"/>
      <use xlink:href="#DejaVuSans-6f" x="430.982422"/>
      <use xlink:href="#DejaVuSans-66" x="492.164062"/>
      <use xlink:href="#DejaVuSans-20" x="527.369141"/>
      <use xlink:href="#DejaVuSans-66" x="559.15625"/>
      <use xlink:href="#DejaVuSans-75" x="594.361328"/>
      <use xlink:href="#DejaVuSans-6e" x="657.740234"/>
      <use xlink:href="#DejaVuSans-63" x="721.119141"/>
      <use xlink:href="#DejaVuSans-74" x="776.099609"/>
      <use xlink:href="#DejaVuSans-69" x="815.308594"/>
      <use xlink:href="#DejaVuSans-6f" x="843.091797"/>
      <use xlink:href="#DejaVuSans-6e" x="904.273438"/>
      <use xlink:href="#DejaVuSans-2c" x="967.652344"/>
      <use xlink:href="#DejaVuSans-74" x="999.439453"/>
      <use xlink:href="#DejaVuSans-61" x="1038.648438"/>
      <use xlink:href="#DejaVuSans-72" x="1099.927734"/>
      <use xlink:href="#DejaVuSans-67" x="1139.291016"/>
      <use xlink:href="#DejaVuSans-65" x="1202.767578"/>
      <use xlink:href="#DejaVuSans-74" x="1264.291016"/>
      <use xlink:href="#DejaVuSans-20" x="1303.5"/>
      <use xlink:href="#DejaVuSans-70" x="1335.287109"/>
      <use xlink:href="#DejaVuSans-61" x="1398.763672"/>
      <use xlink:href="#DejaVuSans-69" x="1460.042969"/>
      <use xlink:href="#DejaVuSans-72" x="1487.826172"/>
      <use xlink:href="#DejaVuSans-73" x="1528.939453"/>
     </g>
    </g>
   </g>
   <g id="line2d_33">
    <defs>
     <path id="m5ec110c968" d="M 0 1.5 
C 0.397805 1.5 0.77937 1.341951 1.06066 1.06066 
C 1.341951 0.77937 1.5 0.397805 1.5 0 
C 1.5 -0.397805 1.341951 -0.77937 1.06066 -1.06066 
C 0.77937 -1.341951 0.397805 -1.5 0 -1.5 
C -0.397805 -1.5 -0.77937 -1.341951 -1.06066 -1.06066 
C -1.341951 -0.77937 -1.5 -0.397805 -1.5 0 
C -1.5 0.397805 -1.341951 0.77937 -1.06066 1.06066 
C -0.77937 1.341951 -0.397805 1.5 0 1.5 
z
" style="stroke: #f5deb3"/>
    </defs>
    <g>
     <use xlink:href="#m5ec110c968" x="183.550619" y="27.648" style="fill: #f5deb3; stroke: #f5deb3"/>
     <use xlink:href="#m5ec110c968" x="183.550619" y="27.648" style="fill: #f5deb3; stroke: #f5deb3"/>
    </g>
   </g>
   <g id="line2d_34">
    <defs>
     <path id="mb69fb9ba2b" d="M 0 1.5 
C 0.397805 1.5 0.77937 1.341951 1.06066 1.06066 
C 1.341951 0.77937 1.5 0.397805 1.5 0 
C 1.5 -0.397805 1.341951 -0.77937 1.06066 -1.06066 
C 0.77937 -1.341951 0.397805 -1.5 0 -1.5 
C -0.397805 -1.5 -0.77937 -1.341951 -1.06066 -1.06066 
C -1.341951 -0.77937 -1.5 -0.397805 -1.5 0 
C -1.5 0.397805 -1.341951 0.77937 -1.06066 1.06066 
C -0.77937 1.341951 -0.397805 1.5 0 1.5 
z
" style="stroke: #000080"/>
    </defs>
    <g>
     <use xlink:href="#mb69fb9ba2b" x="340.128867" y="27.648" style="fill: #000080; stroke: #000080"/>
     <use xlink:href="#mb69fb9ba2b" x="340.128867" y="27.648" style="fill: #000080; stroke: #000080"/>
    </g>
   </g>
   <g id="line2d_35">
    <path d="M 36.933397 298.944 
L 36.933397 277.311247 
L 49.972572 277.311247 
L 49.972572 274.119529 
L 57.6 274.119529 
L 57.6 271.282447 
L 63.011746 271.282447 
L 63.011746 269.509271 
L 67.209423 269.509271 
L 67.209423 268.445365 
L 70.639174 268.445365 
L 70.639174 267.381459 
L 76.050921 267.381459 
L 76.050921 267.026824 
L 78.266603 267.026824 
L 78.266603 265.962918 
L 80.248597 265.962918 
L 80.248597 265.253647 
L 82.04153 265.253647 
L 82.04153 264.899012 
L 95.916911 264.899012 
L 95.916911 264.544376 
L 98.223251 264.544376 
L 98.223251 263.480471 
L 99.617337 263.480471 
L 99.617337 262.7712 
L 100.277459 262.7712 
L 100.277459 262.416565 
L 101.532027 262.416565 
L 101.532027 262.061929 
L 102.12927 262.061929 
L 102.12927 261.707294 
L 103.815014 261.707294 
L 103.815014 261.352659 
L 104.344952 261.352659 
L 104.344952 260.643388 
L 108.119879 260.643388 
L 108.119879 259.934118 
L 110.144579 259.934118 
L 110.144579 259.579482 
L 113.638206 259.579482 
L 113.638206 258.870212 
L 120.944062 258.870212 
L 120.944062 258.160941 
L 123.563797 258.160941 
L 123.563797 257.806306 
L 124.836562 257.806306 
L 124.836562 257.451671 
L 126.677381 257.451671 
L 126.677381 256.387765 
L 128.060076 256.387765 
L 128.060076 256.033129 
L 131.31622 256.033129 
L 131.31622 255.678494 
L 132.984158 255.678494 
L 132.984158 255.323859 
L 134.931919 255.323859 
L 134.931919 254.969224 
L 135.438999 254.969224 
L 135.438999 254.614588 
L 136.508678 254.614588 
L 136.508678 254.259953 
L 137.430998 254.259953 
L 137.430998 253.905318 
L 138.566146 253.905318 
L 138.566146 253.196047 
L 141.320133 253.196047 
L 141.320133 252.486776 
L 143.462475 252.486776 
L 143.462475 251.777506 
L 145.207843 251.777506 
L 145.207843 251.422871 
L 147.868016 251.422871 
L 147.868016 251.068235 
L 149.165879 251.068235 
L 149.165879 250.358965 
L 151.435079 250.358965 
L 151.435079 250.004329 
L 159.816746 250.004329 
L 159.816746 249.649694 
L 163.214524 249.649694 
L 163.214524 248.231153 
L 165.674958 248.231153 
L 165.674958 247.521882 
L 170.480403 247.521882 
L 170.511445 246.812612 
L 170.834332 246.812612 
L 170.834332 246.457976 
L 171.522819 246.457976 
L 171.522819 246.103341 
L 173.594249 246.103341 
L 173.594249 245.748706 
L 176.139064 245.748706 
L 176.139064 245.394071 
L 176.99326 245.394071 
L 176.99326 245.039435 
L 177.146467 245.039435 
L 177.146467 244.6848 
L 181.591012 244.6848 
L 181.591012 244.330165 
L 181.821936 244.330165 
L 181.821936 243.975529 
L 182.192288 243.975529 
L 182.192288 243.620894 
L 184.078188 243.620894 
L 184.078188 243.266259 
L 185.626206 243.266259 
L 185.626206 242.911624 
L 187.41977 242.911624 
L 187.41977 242.556988 
L 187.788574 242.556988 
L 187.788574 242.202353 
L 188.095558 242.202353 
L 188.095558 241.847718 
L 190.563288 241.847718 
L 190.563288 241.493082 
L 198.762347 241.493082 
L 198.762347 241.138447 
L 205.740835 241.138447 
L 205.740835 240.783812 
L 206.334427 240.783812 
L 206.334427 240.429176 
L 206.552568 240.429176 
L 206.552568 240.074541 
L 207.352609 240.074541 
L 207.374476 239.365271 
L 208.113707 239.365271 
L 208.113707 239.010635 
L 209.559051 239.010635 
L 209.559051 238.656 
L 212.529889 238.656 
L 212.529889 238.301365 
L 218.091816 238.301365 
L 218.111585 237.592094 
L 218.68562 237.592094 
L 218.68562 237.237459 
L 219.015697 237.237459 
L 219.015697 236.882824 
L 219.184423 236.882824 
L 219.184423 236.528188 
L 220.075171 236.528188 
L 220.075171 236.173553 
L 220.484541 236.173553 
L 220.589836 235.464282 
L 221.946927 235.464282 
L 221.946927 235.109647 
L 223.249355 235.109647 
L 223.249355 234.755012 
L 223.98835 234.755012 
L 223.98835 234.400376 
L 224.573701 234.400376 
L 224.573701 234.045741 
L 225.621329 234.045741 
L 225.621329 233.691106 
L 226.399491 233.691106 
L 226.399491 233.336471 
L 226.625463 233.336471 
L 226.625463 232.981835 
L 227.416746 232.981835 
L 227.416746 232.6272 
L 227.843361 232.6272 
L 227.843361 231.917929 
L 228.03525 231.917929 
L 228.03525 231.563294 
L 228.498761 231.563294 
L 228.58105 230.144753 
L 228.788712 230.144753 
L 228.788712 229.790118 
L 228.974708 229.790118 
L 228.974708 229.435482 
L 229.804585 229.435482 
L 229.804585 229.080847 
L 230.593033 229.080847 
L 230.593033 228.726212 
L 230.932148 228.726212 
L 230.932148 228.371576 
L 233.545474 228.371576 
L 233.545474 228.016941 
L 233.979697 228.016941 
L 234.071908 226.5984 
L 234.258126 226.5984 
L 234.258126 226.243765 
L 234.871441 226.243765 
L 234.871441 225.889129 
L 237.764232 225.889129 
L 237.764232 225.534494 
L 239.738319 225.534494 
L 239.738319 225.179859 
L 240.199658 225.179859 
L 240.199658 224.825224 
L 240.69499 224.825224 
L 240.69499 224.470588 
L 240.878854 224.470588 
L 240.878854 224.115953 
L 241.010922 224.115953 
L 241.010922 223.761318 
L 245.128735 223.761318 
L 245.156323 222.697412 
L 245.243223 222.697412 
L 245.243223 222.342776 
L 246.117886 222.342776 
L 246.117886 221.988141 
L 247.521822 221.988141 
L 247.521822 221.633506 
L 248.171998 221.633506 
L 248.171998 221.278871 
L 248.32279 221.278871 
L 248.326259 220.5696 
L 248.460085 220.5696 
L 248.539386 218.796424 
L 248.574878 218.796424 
L 248.626648 217.732518 
L 248.796343 217.732518 
L 248.796343 217.377882 
L 248.968831 217.377882 
L 249.035048 216.313976 
L 249.622123 216.313976 
L 249.692076 215.250071 
L 249.874159 215.250071 
L 249.890583 213.122259 
L 250.314893 213.122259 
L 250.396532 209.575906 
L 250.585584 209.575906 
L 250.622465 208.157365 
L 250.756211 208.157365 
L 250.847451 207.448094 
L 250.872572 207.448094 
L 250.929189 206.029553 
L 251.004343 206.029553 
L 251.063137 203.901741 
L 251.15141 203.901741 
L 251.250729 201.419294 
L 251.286966 201.419294 
L 251.286966 200.355388 
L 251.492674 200.355388 
L 251.591878 199.291482 
L 251.612281 199.291482 
L 251.708581 197.163671 
L 251.723687 197.163671 
L 251.766043 195.390494 
L 251.880238 195.390494 
L 251.95435 194.326588 
L 251.994152 194.326588 
L 252.013919 193.617318 
L 252.223959 193.617318 
L 252.254751 191.844141 
L 252.38361 191.844141 
L 252.38361 191.134871 
L 252.515162 191.134871 
L 252.534191 190.4256 
L 252.655448 190.4256 
L 252.713234 189.716329 
L 252.766733 189.716329 
L 252.766733 189.361694 
L 252.925161 189.361694 
L 252.977094 188.652424 
L 253.180727 188.652424 
L 253.180727 188.297788 
L 253.715009 188.297788 
L 253.715009 187.943153 
L 253.83908 187.943153 
L 253.83908 187.233882 
L 254.087166 187.233882 
L 254.087166 186.879247 
L 254.290742 186.879247 
L 254.290742 186.524612 
L 254.950708 186.524612 
L 254.950708 186.169976 
L 255.281455 186.169976 
L 255.281455 185.815341 
L 257.009092 185.815341 
L 257.009092 185.460706 
L 257.121207 185.460706 
L 257.121207 184.751435 
L 258.89752 184.751435 
L 258.968724 183.687529 
L 259.047088 183.687529 
L 259.047088 183.332894 
L 259.395604 183.332894 
L 259.448358 181.914353 
L 259.511905 181.914353 
L 259.527895 181.205082 
L 260.639323 181.205082 
L 260.720787 179.431906 
L 260.766504 179.431906 
L 260.869313 178.013365 
L 260.9603 178.013365 
L 260.9603 176.949459 
L 261.210298 176.949459 
L 261.210298 176.594824 
L 262.921433 176.594824 
L 262.931468 175.885553 
L 263.057017 175.885553 
L 263.064037 175.176282 
L 263.209836 175.176282 
L 263.297693 174.467012 
L 263.900706 174.467012 
L 263.966314 173.757741 
L 264.029866 173.757741 
L 264.031371 173.048471 
L 264.215836 173.048471 
L 264.215836 172.693835 
L 264.560305 172.693835 
L 264.560305 172.3392 
L 265.112272 172.3392 
L 265.164887 171.629929 
L 265.282158 171.629929 
L 265.282158 171.275294 
L 265.563259 171.275294 
L 265.563259 170.920659 
L 266.303752 170.920659 
L 266.343066 170.211388 
L 266.416523 170.211388 
L 266.416523 169.856753 
L 266.607079 169.856753 
L 266.607079 169.502118 
L 267.557718 169.502118 
L 267.557718 169.147482 
L 267.881279 169.147482 
L 267.93579 168.438212 
L 271.444578 168.438212 
L 271.444578 168.083576 
L 273.011827 168.083576 
L 273.038359 167.374306 
L 273.158215 167.374306 
L 273.158215 167.019671 
L 275.713767 167.019671 
L 275.772729 166.3104 
L 276.275276 166.3104 
L 276.304417 165.246494 
L 277.154014 165.246494 
L 277.154014 164.891859 
L 277.836393 164.891859 
L 277.836393 164.182588 
L 278.419621 164.182588 
L 278.474686 162.764047 
L 278.55117 162.764047 
L 278.55589 162.054776 
L 278.742653 162.054776 
L 278.851637 160.2816 
L 278.856478 160.2816 
L 278.956734 158.508424 
L 278.967674 158.508424 
L 279.056266 154.962071 
L 279.126378 154.962071 
L 279.224874 147.514729 
L 279.274527 147.514729 
L 279.348643 143.259106 
L 279.391842 143.259106 
L 279.456076 142.1952 
L 279.67071 142.1952 
L 279.67071 141.840565 
L 279.958558 141.840565 
L 280.046654 140.776659 
L 280.525575 140.776659 
L 280.557762 140.067388 
L 281.24074 140.067388 
L 281.249181 139.003482 
L 281.680796 139.003482 
L 281.74477 138.294212 
L 281.827951 138.294212 
L 281.827951 137.939576 
L 282.417302 137.939576 
L 282.468013 136.875671 
L 282.551638 136.875671 
L 282.551638 136.521035 
L 282.77055 136.521035 
L 282.818021 134.747859 
L 282.886735 134.747859 
L 282.886735 134.393224 
L 283.015146 134.393224 
L 283.015146 134.038588 
L 283.223993 134.038588 
L 283.289041 132.974682 
L 283.808848 132.974682 
L 283.808848 132.265412 
L 286.642093 132.265412 
L 286.642093 131.910776 
L 288.298995 131.910776 
L 288.309469 130.846871 
L 288.752652 130.846871 
L 288.752652 130.1376 
L 289.367739 130.1376 
L 289.367739 129.782965 
L 289.696816 129.782965 
L 289.799276 126.591247 
L 289.808456 126.591247 
L 289.900555 122.335624 
L 289.939792 122.335624 
L 290.039861 118.08 
L 290.162441 118.08 
L 290.198621 117.370729 
L 290.37859 117.370729 
L 290.37859 117.016094 
L 291.082266 117.016094 
L 291.101886 115.597553 
L 291.319137 115.597553 
L 291.427568 113.469741 
L 291.783574 113.469741 
L 291.846132 112.760471 
L 292.013822 112.760471 
L 292.013822 112.405835 
L 292.277995 112.405835 
L 292.385388 111.341929 
L 292.575754 111.341929 
L 292.593995 110.278024 
L 294.462494 110.278024 
L 294.462494 109.923388 
L 295.369283 109.923388 
L 295.40145 109.214118 
L 295.871588 109.214118 
L 295.871588 108.859482 
L 296.475892 108.859482 
L 296.566719 108.150212 
L 296.593799 108.150212 
L 296.702832 102.476047 
L 296.727505 102.476047 
L 296.791988 101.057506 
L 297.205358 101.057506 
L 297.218626 100.348235 
L 297.675525 100.348235 
L 297.689957 99.284329 
L 298.030118 99.284329 
L 298.052917 98.575059 
L 298.184204 98.575059 
L 298.21435 97.865788 
L 298.373403 97.865788 
L 298.442178 96.801882 
L 299.976323 96.801882 
L 300.005018 96.092612 
L 301.44717 96.092612 
L 301.538083 94.319435 
L 301.573689 94.319435 
L 301.675829 87.936 
L 301.685435 87.936 
L 301.734997 85.808188 
L 302.297907 85.808188 
L 302.297907 85.453553 
L 302.450498 85.453553 
L 302.450498 85.098918 
L 302.79796 85.098918 
L 302.79796 84.744282 
L 302.978383 84.744282 
L 303.016524 84.035012 
L 303.119383 84.035012 
L 303.162532 82.616471 
L 304.252826 82.616471 
L 304.252826 82.261835 
L 305.518932 82.261835 
L 305.590084 77.296941 
L 305.630107 77.296941 
L 305.645721 76.587671 
L 306.104247 76.587671 
L 306.104247 76.233035 
L 308.747259 76.233035 
L 308.847827 71.268141 
L 308.868564 71.268141 
L 308.868564 70.913506 
L 309.393167 70.913506 
L 309.393167 70.558871 
L 309.674139 70.558871 
L 309.740899 69.494965 
L 309.869631 69.494965 
L 309.869631 69.140329 
L 311.555698 69.140329 
L 311.641889 64.884706 
L 312.481465 64.884706 
L 312.481465 64.530071 
L 313.95409 64.530071 
L 314.030241 61.338353 
L 316.03451 61.338353 
L 316.141925 57.082729 
L 316.148909 57.082729 
L 316.174583 54.600282 
L 316.768805 54.600282 
L 316.844382 53.891012 
L 318.028493 53.891012 
L 318.091089 51.053929 
L 318.708932 51.053929 
L 318.708932 50.699294 
L 319.78301 50.699294 
L 319.828786 45.7344 
L 320.265228 45.7344 
L 320.336079 45.025129 
L 321.358669 45.025129 
L 321.422178 42.188047 
L 321.887448 42.188047 
L 321.887448 41.833412 
L 322.857825 41.833412 
L 322.871858 40.769506 
L 324.224649 40.769506 
L 324.245272 39.350965 
L 325.495855 39.350965 
L 325.508315 37.577788 
L 326.661937 37.577788 
L 326.698264 36.159247 
L 327.806379 36.159247 
L 327.82014 35.095341 
L 328.862306 35.095341 
L 328.887631 32.612894 
L 330.816833 32.612894 
L 330.816833 32.258259 
L 331.710456 32.258259 
L 331.71841 31.194353 
L 332.591733 31.194353 
L 332.591733 30.839718 
L 333.419048 30.839718 
L 333.419048 30.485082 
L 334.199897 30.485082 
L 334.202871 29.775812 
L 334.953212 29.775812 
L 334.953212 29.421176 
L 337.069704 29.421176 
L 337.069704 29.066541 
L 337.726777 29.066541 
L 337.726777 28.711906 
L 338.958104 28.711906 
L 338.968077 28.002635 
L 340.128867 28.002635 
L 340.128867 27.648 
L 360.8064 27.648 
L 360.8064 27.648 
" style="fill: none; stroke: #000080; stroke-width: 1.5; stroke-linecap: square"/>
   </g>
   <g id="line2d_36">
    <defs>
     <path id="meda35d9ed7" d="M 0 6 
C 1.591219 6 3.117479 5.367802 4.242641 4.242641 
C 5.367802 3.117479 6 1.591219 6 0 
C 6 -1.591219 5.367802 -3.117479 4.242641 -4.242641 
C 3.117479 -5.367802 1.591219 -6 0 -6 
C -1.591219 -6 -3.117479 -5.367802 -4.242641 -4.242641 
C -5.367802 -3.117479 -6 -1.591219 -6 0 
C -6 1.591219 -5.367802 3.117479 -4.242641 4.242641 
C -3.117479 5.367802 -1.591219 6 0 6 
z
" style="stroke: #000080; stroke-width: 1.5"/>
    </defs>
    <g>
     <use xlink:href="#meda35d9ed7" x="108.119879" y="259.934118" style="fill-opacity: 0; stroke: #000080; stroke-width: 1.5"/>
     <use xlink:href="#meda35d9ed7" x="209.559051" y="239.010635" style="fill-opacity: 0; stroke: #000080; stroke-width: 1.5"/>
     <use xlink:href="#meda35d9ed7" x="257.009092" y="185.460706" style="fill-opacity: 0; stroke: #000080; stroke-width: 1.5"/>
     <use xlink:href="#meda35d9ed7" x="324.245272" y="39.7056" style="fill-opacity: 0; stroke: #000080; stroke-width: 1.5"/>
     <use xlink:href="#meda35d9ed7" x="340.128867" y="27.648" style="fill-opacity: 0; stroke: #000080; stroke-width: 1.5"/>
     <use xlink:href="#meda35d9ed7" x="360.8064" y="27.648" style="fill-opacity: 0; stroke: #000080; stroke-width: 1.5"/>
    </g>
   </g>
   <g id="line2d_37">
    <path style="fill: none; stroke: #000080; stroke-width: 1.5; stroke-linecap: square"/>
    <g/>
   </g>
   <g id="line2d_38">
    <path d="M 274.176 167.019671 
" clip-path="url(#p510e57c6b4)" style="fill: none; stroke: #000080; stroke-width: 1.5; stroke-linecap: square"/>
    <defs>
     <path id="m59264fb1fd" d="M -12 12 
L 12 -12 
M -12 -12 
L 12 12 
" style="stroke: #000080"/>
    </defs>
    <g clip-path="url(#p510e57c6b4)">
     <use xlink:href="#m59264fb1fd" x="274.176" y="167.019671" style="fill: #000080; stroke: #000080"/>
    </g>
   </g>
   <g id="line2d_39">
    <defs>
     <path id="m83a9af4c43" d="M 0 1.5 
C 0.397805 1.5 0.77937 1.341951 1.06066 1.06066 
C 1.341951 0.77937 1.5 0.397805 1.5 0 
C 1.5 -0.397805 1.341951 -0.77937 1.06066 -1.06066 
C 0.77937 -1.341951 0.397805 -1.5 0 -1.5 
C -0.397805 -1.5 -0.77937 -1.341951 -1.06066 -1.06066 
C -1.341951 -0.77937 -1.5 -0.397805 -1.5 0 
C -1.5 0.397805 -1.341951 0.77937 -1.06066 1.06066 
C -0.77937 1.341951 -0.397805 1.5 0 1.5 
z
" style="stroke: #ff00ff"/>
    </defs>
    <g>
     <use xlink:href="#m83a9af4c43" x="315.297144" y="27.648" style="fill: #ff00ff; stroke: #ff00ff"/>
     <use xlink:href="#m83a9af4c43" x="315.297144" y="27.648" style="fill: #ff00ff; stroke: #ff00ff"/>
    </g>
   </g>
   <g id="line2d_40">
    <path d="M 36.933397 298.944 
L 36.933397 279.793694 
L 49.972572 279.793694 
L 49.972572 275.892706 
L 57.6 275.892706 
L 57.6 273.764894 
L 63.011746 273.764894 
L 63.011746 271.991718 
L 67.209423 271.991718 
L 67.209423 270.573176 
L 73.538988 270.573176 
L 73.538988 270.218541 
L 76.050921 270.218541 
L 76.050921 269.863906 
L 78.266603 269.863906 
L 78.266603 269.509271 
L 80.248597 269.509271 
L 80.248597 269.154635 
L 82.04153 269.154635 
L 82.04153 268.090729 
L 85.184077 268.090729 
L 85.184077 267.736094 
L 87.876026 267.736094 
L 87.876026 267.026824 
L 92.322865 267.026824 
L 92.322865 266.672188 
L 93.287772 266.672188 
L 93.287772 265.962918 
L 94.205591 265.962918 
L 94.205591 265.608282 
L 96.717523 265.608282 
L 96.717523 264.899012 
L 99.617337 264.899012 
L 99.617337 264.189741 
L 100.277459 264.189741 
L 100.277459 263.835106 
L 105.36204 263.835106 
L 105.36204 263.480471 
L 107.68741 263.480471 
L 107.68741 263.125835 
L 108.956085 263.125835 
L 108.956085 262.7712 
L 110.144579 262.7712 
L 110.144579 262.416565 
L 110.524623 262.416565 
L 110.524623 261.352659 
L 111.262425 261.352659 
L 111.262425 259.934118 
L 111.97238 259.934118 
L 111.97238 259.224847 
L 114.265316 259.224847 
L 114.265316 258.870212 
L 115.168444 258.870212 
L 115.168444 257.806306 
L 123.750979 257.806306 
L 123.750979 257.451671 
L 125.011554 257.451671 
L 125.011554 257.097035 
L 125.862901 257.097035 
L 125.862901 256.033129 
L 126.028642 256.033129 
L 126.028642 255.678494 
L 126.677381 255.678494 
L 126.677381 255.323859 
L 128.354013 255.323859 
L 128.354013 254.969224 
L 130.160198 254.969224 
L 130.160198 254.259953 
L 130.4233 254.259953 
L 130.4233 253.905318 
L 133.874812 253.905318 
L 133.874812 253.550682 
L 136.508678 253.550682 
L 136.602972 252.841412 
L 140.725251 252.841412 
L 140.725251 251.422871 
L 143.721949 251.422871 
L 143.721949 251.068235 
L 145.326529 251.068235 
L 145.326529 250.358965 
L 146.913986 250.358965 
L 146.968277 249.649694 
L 159.289155 249.649694 
L 159.289155 249.295059 
L 161.617145 249.295059 
L 161.617145 248.940424 
L 164.452864 248.940424 
L 164.452864 248.585788 
L 164.855153 248.585788 
L 164.855153 248.231153 
L 166.071841 248.231153 
L 166.071841 247.876518 
L 166.364103 247.876518 
L 166.364103 247.521882 
L 169.161446 247.521882 
L 169.161446 246.812612 
L 170.788543 246.812612 
L 170.788543 246.103341 
L 174.215747 246.103341 
L 174.279322 245.394071 
L 175.074644 245.394071 
L 175.074644 245.039435 
L 177.080959 245.039435 
L 177.080959 244.330165 
L 180.437656 244.330165 
L 180.437656 243.975529 
L 184.220899 243.975529 
L 184.220899 243.620894 
L 184.686501 243.620894 
L 184.686501 243.266259 
L 185.254521 243.266259 
L 185.254521 242.911624 
L 185.990689 242.911624 
L 185.990689 242.202353 
L 187.030705 242.202353 
L 187.030705 241.847718 
L 190.733433 241.847718 
L 190.733433 241.493082 
L 192.514813 241.493082 
L 192.514813 241.138447 
L 194.827078 241.138447 
L 194.827078 240.783812 
L 197.696453 240.783812 
L 197.696453 240.429176 
L 201.346679 240.429176 
L 201.346679 240.074541 
L 201.586015 240.074541 
L 201.586015 239.719906 
L 202.649359 239.719906 
L 202.649359 239.365271 
L 204.325468 239.365271 
L 204.325468 239.010635 
L 205.235943 239.010635 
L 205.235943 238.656 
L 205.906953 238.656 
L 205.906953 238.301365 
L 206.369039 238.301365 
L 206.369039 237.592094 
L 208.486102 237.592094 
L 208.486102 237.237459 
L 208.92386 237.237459 
L 208.92386 236.882824 
L 209.134002 236.882824 
L 209.23523 236.173553 
L 210.173493 236.173553 
L 210.173493 235.818918 
L 212.246978 235.818918 
L 212.304238 235.109647 
L 212.640882 235.109647 
L 212.640882 234.755012 
L 213.699045 234.755012 
L 213.699045 234.045741 
L 214.056311 234.045741 
L 214.056311 233.691106 
L 216.086044 233.691106 
L 216.086044 232.981835 
L 216.311613 232.981835 
L 216.311613 232.6272 
L 216.486102 232.6272 
L 216.486102 232.272565 
L 216.952841 232.272565 
L 216.952841 231.917929 
L 217.06937 231.917929 
L 217.06937 231.563294 
L 218.559428 231.563294 
L 218.559428 231.208659 
L 219.412824 231.208659 
L 219.412824 230.854024 
L 220.117399 230.854024 
L 220.117399 230.499388 
L 221.039076 230.499388 
L 221.039076 230.144753 
L 224.998922 230.144753 
L 225.033998 229.435482 
L 225.191461 229.435482 
L 225.191461 228.726212 
L 225.51832 228.726212 
L 225.5782 226.953035 
L 225.720481 226.953035 
L 225.763285 226.243765 
L 226.670176 226.243765 
L 226.758507 225.534494 
L 226.83167 225.534494 
L 226.83167 224.470588 
L 226.99487 224.470588 
L 227.025649 223.761318 
L 227.129159 223.761318 
L 227.209275 222.697412 
L 227.51139 222.697412 
L 227.51139 221.988141 
L 227.917565 221.988141 
L 227.917565 221.633506 
L 228.394676 221.633506 
L 228.394676 221.278871 
L 228.749468 221.278871 
L 228.749468 220.924235 
L 228.882985 220.924235 
L 228.898999 220.214965 
L 229.419288 220.214965 
L 229.422672 219.505694 
L 229.848971 219.505694 
L 229.848971 218.796424 
L 230.007113 218.796424 
L 230.007113 218.441788 
L 230.146359 218.441788 
L 230.146359 218.087153 
L 230.306553 218.087153 
L 230.345261 217.023247 
L 230.475636 217.023247 
L 230.475636 216.668612 
L 230.6013 216.668612 
L 230.639407 215.959341 
L 230.985171 215.959341 
L 230.985171 215.604706 
L 231.268327 215.604706 
L 231.268327 214.895435 
L 231.831694 214.895435 
L 231.831694 214.5408 
L 232.318424 214.5408 
L 232.370579 213.831529 
L 232.485963 213.831529 
L 232.485963 213.476894 
L 232.932687 213.476894 
L 233.021779 212.767624 
L 233.148247 212.767624 
L 233.148247 212.412988 
L 233.34049 212.412988 
L 233.34049 212.058353 
L 233.5052 212.058353 
L 233.602471 210.639812 
L 233.624139 210.639812 
L 233.624139 210.285176 
L 233.818035 210.285176 
L 233.818035 209.930541 
L 233.938746 209.930541 
L 233.938746 209.221271 
L 234.115735 209.221271 
L 234.119426 208.512 
L 234.54384 208.512 
L 234.54384 208.157365 
L 234.833911 208.157365 
L 234.833911 207.093459 
L 235.113076 207.093459 
L 235.113076 206.738824 
L 235.25261 206.738824 
L 235.292287 206.029553 
L 235.381257 206.029553 
L 235.381257 205.674918 
L 235.57064 205.674918 
L 235.57064 205.320282 
L 235.922711 205.320282 
L 236.033539 203.901741 
L 236.205175 203.901741 
L 236.205175 203.547106 
L 236.365902 203.547106 
L 236.463918 202.4832 
L 236.600288 202.4832 
L 236.697553 201.773929 
L 236.862807 201.773929 
L 236.862807 201.419294 
L 237.619006 201.419294 
L 237.688924 200.710024 
L 237.966028 200.710024 
L 237.966028 200.355388 
L 238.267047 200.355388 
L 238.267047 200.000753 
L 239.029658 200.000753 
L 239.029658 199.646118 
L 240.059441 199.646118 
L 240.059441 199.291482 
L 240.248069 199.291482 
L 240.248069 198.936847 
L 240.558056 198.936847 
L 240.558056 198.582212 
L 240.692387 198.582212 
L 240.692387 198.227576 
L 241.949654 198.227576 
L 241.955217 197.163671 
L 242.775318 197.163671 
L 242.775318 196.4544 
L 243.069239 196.4544 
L 243.102633 195.745129 
L 243.309851 195.745129 
L 243.309851 195.390494 
L 243.524728 195.390494 
L 243.524728 194.326588 
L 244.915479 194.326588 
L 244.915479 193.971953 
L 245.356438 193.971953 
L 245.463495 192.553412 
L 245.589158 192.553412 
L 245.598327 190.070965 
L 245.806006 190.070965 
L 245.82611 189.361694 
L 245.984214 189.361694 
L 245.98702 188.652424 
L 246.176868 188.652424 
L 246.276606 187.588518 
L 246.346935 187.588518 
L 246.355466 186.879247 
L 246.878899 186.879247 
L 246.878899 186.524612 
L 246.993886 186.524612 
L 247.093893 185.106071 
L 247.109496 185.106071 
L 247.1528 184.042165 
L 247.320841 184.042165 
L 247.425109 183.332894 
L 247.584818 183.332894 
L 247.584818 182.978259 
L 247.972578 182.978259 
L 247.972578 182.623624 
L 248.373033 182.623624 
L 248.373033 182.268988 
L 248.488603 182.268988 
L 248.534731 180.141176 
L 248.917995 180.141176 
L 248.917995 179.786541 
L 249.05961 179.786541 
L 249.113393 179.077271 
L 249.42098 179.077271 
L 249.500299 178.013365 
L 249.889443 178.013365 
L 249.96409 177.304094 
L 250.041834 177.304094 
L 250.073475 176.594824 
L 250.19502 176.594824 
L 250.295488 175.176282 
L 250.528583 175.176282 
L 250.528583 174.821647 
L 250.873654 174.821647 
L 250.873654 174.467012 
L 251.02668 174.467012 
L 251.123028 173.757741 
L 251.161003 173.757741 
L 251.193158 172.693835 
L 251.296913 172.693835 
L 251.376937 171.984565 
L 251.44088 171.984565 
L 251.515694 170.920659 
L 252.559534 170.920659 
L 252.559534 170.566024 
L 252.706953 170.566024 
L 252.817544 169.856753 
L 252.825349 169.856753 
L 252.918756 168.792847 
L 252.982125 168.792847 
L 252.982125 168.438212 
L 253.162532 168.438212 
L 253.177855 167.728941 
L 253.353179 167.728941 
L 253.436455 167.019671 
L 253.546232 167.019671 
L 253.646783 165.955765 
L 253.77761 165.955765 
L 253.835567 165.246494 
L 254.121795 165.246494 
L 254.121795 164.891859 
L 254.511054 164.891859 
L 254.547939 164.182588 
L 254.660284 164.182588 
L 254.660284 163.473318 
L 254.821502 163.473318 
L 254.920366 162.409412 
L 255.044737 162.409412 
L 255.056696 161.700141 
L 255.232941 161.700141 
L 255.232941 161.345506 
L 255.934267 161.345506 
L 256.039803 160.2816 
L 256.052954 160.2816 
L 256.079228 159.572329 
L 256.196844 159.572329 
L 256.196844 158.863059 
L 256.315998 158.863059 
L 256.315998 158.508424 
L 256.545983 158.508424 
L 256.65627 157.089882 
L 256.694583 157.089882 
L 256.707126 156.380612 
L 257.065389 156.380612 
L 257.170978 155.316706 
L 257.194035 155.316706 
L 257.194035 154.962071 
L 257.392793 154.962071 
L 257.392793 154.607435 
L 257.947523 154.607435 
L 257.947523 154.2528 
L 258.372966 154.2528 
L 258.438653 153.188894 
L 261.996867 153.188894 
L 262.105337 151.061082 
L 262.157676 151.061082 
L 262.224079 149.997176 
L 262.290248 149.997176 
L 262.290248 149.642541 
L 262.767739 149.642541 
L 262.767739 148.224 
L 262.989859 148.224 
L 263.094123 147.514729 
L 263.213205 147.514729 
L 263.249108 146.450824 
L 263.400937 146.450824 
L 263.400937 146.096188 
L 263.516662 146.096188 
L 263.604861 144.323012 
L 263.672493 144.323012 
L 263.759966 142.549835 
L 263.793099 142.549835 
L 263.892909 141.485929 
L 263.934025 141.485929 
L 264.007378 140.776659 
L 267.294693 140.776659 
L 267.294693 140.422024 
L 268.117775 140.422024 
L 268.117775 140.067388 
L 268.240506 140.067388 
L 268.240506 139.712753 
L 268.756058 139.712753 
L 268.756058 139.358118 
L 269.630085 139.358118 
L 269.630085 139.003482 
L 270.941325 139.003482 
L 270.941325 138.648847 
L 271.204587 138.648847 
L 271.263244 136.1664 
L 271.490272 136.1664 
L 271.576866 134.393224 
L 271.612686 134.393224 
L 271.612686 134.038588 
L 271.970709 134.038588 
L 272.071401 132.620047 
L 272.098871 132.620047 
L 272.175463 131.910776 
L 272.23013 131.910776 
L 272.274583 129.782965 
L 272.425559 129.782965 
L 272.477789 128.719059 
L 272.553267 128.719059 
L 272.61455 128.009788 
L 272.740512 128.009788 
L 272.797748 126.591247 
L 273.034828 126.591247 
L 273.034828 126.236612 
L 274.680839 126.236612 
L 274.680839 125.881976 
L 274.876927 125.881976 
L 274.876927 125.527341 
L 275.518606 125.527341 
L 275.624279 123.044894 
L 275.662443 123.044894 
L 275.68792 122.335624 
L 275.786491 122.335624 
L 275.786491 121.980988 
L 275.905093 121.980988 
L 276.006347 119.498541 
L 276.059296 119.498541 
L 276.106211 118.08 
L 276.188764 118.08 
L 276.289628 114.888282 
L 276.33519 114.888282 
L 276.413351 112.405835 
L 276.489692 112.405835 
L 276.498118 111.341929 
L 276.694014 111.341929 
L 276.694014 110.987294 
L 276.87665 110.987294 
L 276.87665 110.632659 
L 277.044237 110.632659 
L 277.107712 109.923388 
L 277.295269 109.923388 
L 277.295269 109.568753 
L 277.469818 109.568753 
L 277.543728 108.150212 
L 277.898027 108.150212 
L 278.00489 107.086306 
L 278.180155 107.086306 
L 278.22086 106.377035 
L 278.429076 106.377035 
L 278.461909 104.603859 
L 278.540632 104.603859 
L 278.645895 102.830682 
L 278.745949 102.830682 
L 278.834267 101.412141 
L 278.962618 101.412141 
L 279.058539 99.638965 
L 279.076863 99.638965 
L 279.108778 98.929694 
L 279.354739 98.929694 
L 279.390321 98.220424 
L 279.501628 98.220424 
L 279.501628 97.865788 
L 279.622187 97.865788 
L 279.655159 97.156518 
L 279.852806 97.156518 
L 279.950533 95.028706 
L 279.986665 95.028706 
L 279.986665 94.674071 
L 280.252966 94.674071 
L 280.29645 93.9648 
L 280.425176 93.9648 
L 280.439564 92.900894 
L 280.54172 92.900894 
L 280.572094 90.773082 
L 280.799229 90.773082 
L 280.799229 90.063812 
L 280.926499 90.063812 
L 280.946329 89.354541 
L 282.094499 89.354541 
L 282.195813 86.872094 
L 282.362925 86.872094 
L 282.362925 86.517459 
L 282.588802 86.517459 
L 282.636534 85.098918 
L 282.712685 85.098918 
L 282.809741 84.035012 
L 285.079202 84.035012 
L 285.079202 83.680376 
L 285.667277 83.680376 
L 285.667277 83.325741 
L 285.791222 83.325741 
L 285.815116 82.261835 
L 285.928864 82.261835 
L 285.960461 81.197929 
L 286.192292 81.197929 
L 286.288479 79.424753 
L 286.362931 79.424753 
L 286.362931 79.070118 
L 286.51112 79.070118 
L 286.51112 78.360847 
L 287.98632 78.360847 
L 288.066798 77.296941 
L 288.284871 77.296941 
L 288.342482 76.233035 
L 288.412041 76.233035 
L 288.425041 74.105224 
L 288.560291 74.105224 
L 288.560291 73.395953 
L 288.839388 73.395953 
L 288.839388 73.041318 
L 288.974301 73.041318 
L 288.974301 72.332047 
L 289.168092 72.332047 
L 289.245059 70.204235 
L 289.417 70.204235 
L 289.478257 68.431059 
L 289.792059 68.431059 
L 289.833051 66.657882 
L 290.065826 66.657882 
L 290.065826 66.303247 
L 290.342145 66.303247 
L 290.371089 65.593976 
L 290.504308 65.593976 
L 290.606454 62.756894 
L 290.683763 62.756894 
L 290.683763 62.402259 
L 291.588034 62.402259 
L 291.633404 60.983718 
L 291.820942 60.983718 
L 291.913514 59.565176 
L 291.950601 59.565176 
L 292.006556 58.146635 
L 293.994033 58.146635 
L 293.994033 57.792 
L 294.135846 57.792 
L 294.21608 56.373459 
L 295.371336 56.373459 
L 295.384723 55.664188 
L 295.573711 55.664188 
L 295.648914 54.245647 
L 295.686123 54.245647 
L 295.78656 53.181741 
L 295.940841 53.181741 
L 295.940841 52.827106 
L 296.166808 52.827106 
L 296.272584 51.408565 
L 296.460018 51.408565 
L 296.526818 50.344659 
L 296.605393 50.344659 
L 296.627686 49.635388 
L 296.758056 49.635388 
L 296.758056 49.280753 
L 296.942907 49.280753 
L 296.964485 48.571482 
L 297.151285 48.571482 
L 297.151285 47.862212 
L 297.371583 47.862212 
L 297.371583 47.507576 
L 297.900217 47.507576 
L 297.984241 46.089035 
L 298.083028 46.089035 
L 298.083028 45.7344 
L 299.559536 45.7344 
L 299.559536 45.379765 
L 299.788353 45.379765 
L 299.831771 44.315859 
L 300.633428 44.315859 
L 300.728901 42.897318 
L 300.772201 42.897318 
L 300.84034 41.833412 
L 300.91857 41.833412 
L 300.966721 40.769506 
L 301.292415 40.769506 
L 301.349975 40.060235 
L 301.546823 40.060235 
L 301.586881 39.350965 
L 301.754476 39.350965 
L 301.85115 37.932424 
L 302.070596 37.932424 
L 302.070596 37.577788 
L 302.601737 37.577788 
L 302.601737 37.223153 
L 302.770676 37.223153 
L 302.770676 36.868518 
L 303.898243 36.868518 
L 303.948805 36.159247 
L 304.031166 36.159247 
L 304.031166 35.804612 
L 304.149932 35.804612 
L 304.149932 35.449976 
L 304.736143 35.449976 
L 304.785343 34.740706 
L 304.894177 34.740706 
L 304.993066 34.031435 
L 305.333572 34.031435 
L 305.388646 32.612894 
L 305.778569 32.612894 
L 305.882693 31.903624 
L 306.462423 31.903624 
L 306.462423 31.548988 
L 307.463367 31.548988 
L 307.463367 31.194353 
L 308.265102 31.194353 
L 308.304577 30.485082 
L 308.612805 30.485082 
L 308.612805 30.130447 
L 308.903182 30.130447 
L 308.913078 29.421176 
L 310.521446 29.421176 
L 310.521446 29.066541 
L 313.124078 29.066541 
L 313.124078 28.711906 
L 314.055225 28.711906 
L 314.055225 28.357271 
L 314.495575 28.357271 
L 314.495575 28.002635 
L 315.297144 28.002635 
L 315.297144 27.648 
L 360.8064 27.648 
L 360.8064 27.648 
" style="fill: none; stroke: #ff00ff; stroke-width: 1.5; stroke-linecap: square"/>
   </g>
   <g id="line2d_41">
    <defs>
     <path id="mbf832b204a" d="M 0 8.485281 
L 5.091169 0 
L 0 -8.485281 
L -5.091169 0 
z
" style="stroke: #ff00ff; stroke-width: 1.5; stroke-linejoin: miter"/>
    </defs>
    <g>
     <use xlink:href="#mbf832b204a" x="166.364103" y="247.521882" style="fill-opacity: 0; stroke: #ff00ff; stroke-width: 1.5; stroke-linejoin: miter"/>
     <use xlink:href="#mbf832b204a" x="227.51139" y="222.697412" style="fill-opacity: 0; stroke: #ff00ff; stroke-width: 1.5; stroke-linejoin: miter"/>
     <use xlink:href="#mbf832b204a" x="276.235358" y="117.016094" style="fill-opacity: 0; stroke: #ff00ff; stroke-width: 1.5; stroke-linejoin: miter"/>
     <use xlink:href="#mbf832b204a" x="315.297144" y="27.648" style="fill-opacity: 0; stroke: #ff00ff; stroke-width: 1.5; stroke-linejoin: miter"/>
     <use xlink:href="#mbf832b204a" x="315.297144" y="27.648" style="fill-opacity: 0; stroke: #ff00ff; stroke-width: 1.5; stroke-linejoin: miter"/>
     <use xlink:href="#mbf832b204a" x="360.8064" y="27.648" style="fill-opacity: 0; stroke: #ff00ff; stroke-width: 1.5; stroke-linejoin: miter"/>
    </g>
   </g>
   <g id="line2d_42">
    <path style="fill: none; stroke: #ff00ff; stroke-width: 1.5; stroke-linecap: square"/>
    <g/>
   </g>
   <g id="line2d_43">
    <path d="M 274.176 126.236612 
" clip-path="url(#p510e57c6b4)" style="fill: none; stroke: #ff00ff; stroke-width: 1.5; stroke-linecap: square"/>
    <defs>
     <path id="mb957c6e671" d="M -12 12 
L 12 -12 
M -12 -12 
L 12 12 
" style="stroke: #ff00ff"/>
    </defs>
    <g clip-path="url(#p510e57c6b4)">
     <use xlink:href="#mb957c6e671" x="274.176" y="126.236612" style="fill: #ff00ff; stroke: #ff00ff"/>
    </g>
   </g>
   <g id="line2d_44">
    <path d="M 360.8064 27.648 
L 380.514816 293.51808 
" style="fill: none; stroke: #000080; stroke-width: 1.5; stroke-linecap: square"/>
    <g>
     <use xlink:href="#meda35d9ed7" x="360.8064" y="27.648" style="fill-opacity: 0; stroke: #000080; stroke-width: 1.5"/>
     <use xlink:href="#meda35d9ed7" x="380.514816" y="293.51808" style="fill-opacity: 0; stroke: #000080; stroke-width: 1.5"/>
    </g>
   </g>
   <g id="line2d_45">
    <path d="M 360.8064 27.648 
L 380.514816 163.296 
" style="fill: none; stroke: #ff00ff; stroke-width: 1.5; stroke-linecap: square"/>
    <g>
     <use xlink:href="#mbf832b204a" x="360.8064" y="27.648" style="fill-opacity: 0; stroke: #ff00ff; stroke-width: 1.5; stroke-linejoin: miter"/>
     <use xlink:href="#mbf832b204a" x="380.514816" y="163.296" style="fill-opacity: 0; stroke: #ff00ff; stroke-width: 1.5; stroke-linejoin: miter"/>
    </g>
   </g>
   <g id="line2d_46">
    <path d="M 360.8064 298.944 
L 360.8064 27.648 
" style="fill: none; stroke: #000000; stroke-width: 1.5; stroke-linecap: square"/>
   </g>
   <g id="patch_3">
    <path d="M 57.6 298.944 
L 360.8064 298.944 
" style="fill: none; stroke: #000000; stroke-width: 0.8; stroke-linejoin: miter; stroke-linecap: square"/>
   </g>
   <g id="patch_4">
    <path d="M 57.6 27.648 
L 360.8064 27.648 
" style="fill: none; stroke: #000000; stroke-width: 0.8; stroke-linejoin: miter; stroke-linecap: square"/>
   </g>
   <g id="text_13">
    <!-- LCGA -->
    <g transform="translate(386.578944 297.381205)scale(0.14 -0.14)">
     <defs>
      <path id="DejaVuSans-4c" d="M 628 4666 
L 1259 4666 
L 1259 531 
L 3531 531 
L 3531 0 
L 628 0 
L 628 4666 
z
" transform="scale(0.015625)"/>
      <path id="DejaVuSans-43" d="M 4122 4306 
L 4122 3641 
Q 3803 3938 3442 4084 
Q 3081 4231 2675 4231 
Q 1875 4231 1450 3742 
Q 1025 3253 1025 2328 
Q 1025 1406 1450 917 
Q 1875 428 2675 428 
Q 3081 428 3442 575 
Q 3803 722 4122 1019 
L 4122 359 
Q 3791 134 3420 21 
Q 3050 -91 2638 -91 
Q 1578 -91 968 557 
Q 359 1206 359 2328 
Q 359 3453 968 4101 
Q 1578 4750 2638 4750 
Q 3056 4750 3426 4639 
Q 3797 4528 4122 4306 
z
" transform="scale(0.015625)"/>
      <path id="DejaVuSans-47" d="M 3809 666 
L 3809 1919 
L 2778 1919 
L 2778 2438 
L 4434 2438 
L 4434 434 
Q 4069 175 3628 42 
Q 3188 -91 2688 -91 
Q 1594 -91 976 548 
Q 359 1188 359 2328 
Q 359 3472 976 4111 
Q 1594 4750 2688 4750 
Q 3144 4750 3555 4637 
Q 3966 4525 4313 4306 
L 4313 3634 
Q 3963 3931 3569 4081 
Q 3175 4231 2741 4231 
Q 1884 4231 1454 3753 
Q 1025 3275 1025 2328 
Q 1025 1384 1454 906 
Q 1884 428 2741 428 
Q 3075 428 3337 486 
Q 3600 544 3809 666 
z
" transform="scale(0.015625)"/>
      <path id="DejaVuSans-41" d="M 2188 4044 
L 1331 1722 
L 3047 1722 
L 2188 4044 
z
M 1831 4666 
L 2547 4666 
L 4325 0 
L 3669 0 
L 3244 1197 
L 1141 1197 
L 716 0 
L 50 0 
L 1831 4666 
z
" transform="scale(0.015625)"/>
     </defs>
     <use xlink:href="#DejaVuSans-4c"/>
     <use xlink:href="#DejaVuSans-43" x="55.712891"/>
     <use xlink:href="#DejaVuSans-47" x="125.537109"/>
     <use xlink:href="#DejaVuSans-41" x="203.027344"/>
    </g>
   </g>
   <g id="text_14">
    <!-- PSO -->
    <g transform="translate(386.578944 167.159125)scale(0.14 -0.14)">
     <defs>
      <path id="DejaVuSans-50" d="M 1259 4147 
L 1259 2394 
L 2053 2394 
Q 2494 2394 2734 2622 
Q 2975 2850 2975 3272 
Q 2975 3691 2734 3919 
Q 2494 4147 2053 4147 
L 1259 4147 
z
M 628 4666 
L 2053 4666 
Q 2838 4666 3239 4311 
Q 3641 3956 3641 3272 
Q 3641 2581 3239 2228 
Q 2838 1875 2053 1875 
L 1259 1875 
L 1259 0 
L 628 0 
L 628 4666 
z
" transform="scale(0.015625)"/>
      <path id="DejaVuSans-53" d="M 3425 4513 
L 3425 3897 
Q 3066 4069 2747 4153 
Q 2428 4238 2131 4238 
Q 1616 4238 1336 4038 
Q 1056 3838 1056 3469 
Q 1056 3159 1242 3001 
Q 1428 2844 1947 2747 
L 2328 2669 
Q 3034 2534 3370 2195 
Q 3706 1856 3706 1288 
Q 3706 609 3251 259 
Q 2797 -91 1919 -91 
Q 1588 -91 1214 -16 
Q 841 59 441 206 
L 441 856 
Q 825 641 1194 531 
Q 1563 422 1919 422 
Q 2459 422 2753 634 
Q 3047 847 3047 1241 
Q 3047 1584 2836 1778 
Q 2625 1972 2144 2069 
L 1759 2144 
Q 1053 2284 737 2584 
Q 422 2884 422 3419 
Q 422 4038 858 4394 
Q 1294 4750 2059 4750 
Q 2388 4750 2728 4690 
Q 3069 4631 3425 4513 
z
" transform="scale(0.015625)"/>
      <path id="DejaVuSans-4f" d="M 2522 4238 
Q 1834 4238 1429 3725 
Q 1025 3213 1025 2328 
Q 1025 1447 1429 934 
Q 1834 422 2522 422 
Q 3209 422 3611 934 
Q 4013 1447 4013 2328 
Q 4013 3213 3611 3725 
Q 3209 4238 2522 4238 
z
M 2522 4750 
Q 3503 4750 4090 4092 
Q 4678 3434 4678 2328 
Q 4678 1225 4090 567 
Q 3503 -91 2522 -91 
Q 1538 -91 948 565 
Q 359 1222 359 2328 
Q 359 3434 948 4092 
Q 1538 4750 2522 4750 
z
" transform="scale(0.015625)"/>
     </defs>
     <use xlink:href="#DejaVuSans-50"/>
     <use xlink:href="#DejaVuSans-53" x="60.302734"/>
     <use xlink:href="#DejaVuSans-4f" x="123.779297"/>
    </g>
   </g>
   <g id="text_15">
    <!-- best 2009 -->
    <g transform="translate(386.578944 36.937045)scale(0.14 -0.14)">
     <defs>
      <path id="DejaVuSans-62" d="M 3116 1747 
Q 3116 2381 2855 2742 
Q 2594 3103 2138 3103 
Q 1681 3103 1420 2742 
Q 1159 2381 1159 1747 
Q 1159 1113 1420 752 
Q 1681 391 2138 391 
Q 2594 391 2855 752 
Q 3116 1113 3116 1747 
z
M 1159 2969 
Q 1341 3281 1617 3432 
Q 1894 3584 2278 3584 
Q 2916 3584 3314 3078 
Q 3713 2572 3713 1747 
Q 3713 922 3314 415 
Q 2916 -91 2278 -91 
Q 1894 -91 1617 61 
Q 1341 213 1159 525 
L 1159 0 
L 581 0 
L 581 4863 
L 1159 4863 
L 1159 2969 
z
" transform="scale(0.015625)"/>
      <path id="DejaVuSans-39" d="M 703 97 
L 703 672 
Q 941 559 1184 500 
Q 1428 441 1663 441 
Q 2288 441 2617 861 
Q 2947 1281 2994 2138 
Q 2813 1869 2534 1725 
Q 2256 1581 1919 1581 
Q 1219 1581 811 2004 
Q 403 2428 403 3163 
Q 403 3881 828 4315 
Q 1253 4750 1959 4750 
Q 2769 4750 3195 4129 
Q 3622 3509 3622 2328 
Q 3622 1225 3098 567 
Q 2575 -91 1691 -91 
Q 1453 -91 1209 -44 
Q 966 3 703 97 
z
M 1959 2075 
Q 2384 2075 2632 2365 
Q 2881 2656 2881 3163 
Q 2881 3666 2632 3958 
Q 2384 4250 1959 4250 
Q 1534 4250 1286 3958 
Q 1038 3666 1038 3163 
Q 1038 2656 1286 2365 
Q 1534 2075 1959 2075 
z
" transform="scale(0.015625)"/>
     </defs>
     <use xlink:href="#DejaVuSans-62"/>
     <use xlink:href="#DejaVuSans-65" x="63.476562"/>
     <use xlink:href="#DejaVuSans-73" x="125"/>
     <use xlink:href="#DejaVuSans-74" x="177.099609"/>
     <use xlink:href="#DejaVuSans-20" x="216.308594"/>
     <use xlink:href="#DejaVuSans-32" x="248.095703"/>
     <use xlink:href="#DejaVuSans-30" x="311.71875"/>
     <use xlink:href="#DejaVuSans-30" x="375.341797"/>
     <use xlink:href="#DejaVuSans-39" x="438.964844"/>
    </g>
   </g>
   <g id="text_16">
    <!-- bbob f23, 3-D -->
    <g transform="translate(60.632064 38.111366)scale(0.102 -0.102)">
     <defs>
      <path id="DejaVuSans-33" d="M 2597 2516 
Q 3050 2419 3304 2112 
Q 3559 1806 3559 1356 
Q 3559 666 3084 287 
Q 2609 -91 1734 -91 
Q 1441 -91 1130 -33 
Q 819 25 488 141 
L 488 750 
Q 750 597 1062 519 
Q 1375 441 1716 441 
Q 2309 441 2620 675 
Q 2931 909 2931 1356 
Q 2931 1769 2642 2001 
Q 2353 2234 1838 2234 
L 1294 2234 
L 1294 2753 
L 1863 2753 
Q 2328 2753 2575 2939 
Q 2822 3125 2822 3475 
Q 2822 3834 2567 4026 
Q 2313 4219 1838 4219 
Q 1578 4219 1281 4162 
Q 984 4106 628 3988 
L 628 4550 
Q 988 4650 1302 4700 
Q 1616 4750 1894 4750 
Q 2613 4750 3031 4423 
Q 3450 4097 3450 3541 
Q 3450 3153 3228 2886 
Q 3006 2619 2597 2516 
z
" transform="scale(0.015625)"/>
      <path id="DejaVuSans-44" d="M 1259 4147 
L 1259 519 
L 2022 519 
Q 2988 519 3436 956 
Q 3884 1394 3884 2338 
Q 3884 3275 3436 3711 
Q 2988 4147 2022 4147 
L 1259 4147 
z
M 628 4666 
L 1925 4666 
Q 3281 4666 3915 4102 
Q 4550 3538 4550 2338 
Q 4550 1131 3912 565 
Q 3275 0 1925 0 
L 628 0 
L 628 4666 
z
" transform="scale(0.015625)"/>
     </defs>
     <use xlink:href="#DejaVuSans-62"/>
     <use xlink:href="#DejaVuSans-62" x="63.476562"/>
     <use xlink:href="#DejaVuSans-6f" x="126.953125"/>
     <use xlink:href="#DejaVuSans-62" x="188.134766"/>
     <use xlink:href="#DejaVuSans-20" x="251.611328"/>
     <use xlink:href="#DejaVuSans-66" x="283.398438"/>
     <use xlink:href="#DejaVuSans-32" x="318.603516"/>
     <use xlink:href="#DejaVuSans-33" x="382.226562"/>
     <use xlink:href="#DejaVuSans-2c" x="445.849609"/>
     <use xlink:href="#DejaVuSans-20" x="477.636719"/>
     <use xlink:href="#DejaVuSans-33" x="509.423828"/>
     <use xlink:href="#DejaVuSans-2d" x="573.046875"/>
     <use xlink:href="#DejaVuSans-44" x="609.130859"/>
    </g>
    <!-- 51 targets: 100..1e-08 -->
    <g transform="translate(60.632064 49.533135)scale(0.102 -0.102)">
     <defs>
      <path id="DejaVuSans-35" d="M 691 4666 
L 3169 4666 
L 3169 4134 
L 1269 4134 
L 1269 2991 
Q 1406 3038 1543 3061 
Q 1681 3084 1819 3084 
Q 2600 3084 3056 2656 
Q 3513 2228 3513 1497 
Q 3513 744 3044 326 
Q 2575 -91 1722 -91 
Q 1428 -91 1123 -41 
Q 819 9 494 109 
L 494 744 
Q 775 591 1075 516 
Q 1375 441 1709 441 
Q 2250 441 2565 725 
Q 2881 1009 2881 1497 
Q 2881 1984 2565 2268 
Q 2250 2553 1709 2553 
Q 1456 2553 1204 2497 
Q 953 2441 691 2322 
L 691 4666 
z
" transform="scale(0.015625)"/>
      <path id="DejaVuSans-3a" d="M 750 794 
L 1409 794 
L 1409 0 
L 750 0 
L 750 794 
z
M 750 3309 
L 1409 3309 
L 1409 2516 
L 750 2516 
L 750 3309 
z
" transform="scale(0.015625)"/>
     </defs>
     <use xlink:href="#DejaVuSans-35"/>
     <use xlink:href="#DejaVuSans-31" x="63.623047"/>
     <use xlink:href="#DejaVuSans-20" x="127.246094"/>
     <use xlink:href="#DejaVuSans-74" x="159.033203"/>
     <use xlink:href="#DejaVuSans-61" x="198.242188"/>
     <use xlink:href="#DejaVuSans-72" x="259.521484"/>
     <use xlink:href="#DejaVuSans-67" x="298.884766"/>
     <use xlink:href="#DejaVuSans-65" x="362.361328"/>
     <use xlink:href="#DejaVuSans-74" x="423.884766"/>
     <use xlink:href="#DejaVuSans-73" x="463.09375"/>
     <use xlink:href="#DejaVuSans-3a" x="515.193359"/>
     <use xlink:href="#DejaVuSans-20" x="548.884766"/>
     <use xlink:href="#DejaVuSans-31" x="580.671875"/>
     <use xlink:href="#DejaVuSans-30" x="644.294922"/>
     <use xlink:href="#DejaVuSans-30" x="707.917969"/>
     <use xlink:href="#DejaVuSans-2e" x="771.541016"/>
     <use xlink:href="#DejaVuSans-2e" x="803.328125"/>
     <use xlink:href="#DejaVuSans-31" x="835.115234"/>
     <use xlink:href="#DejaVuSans-65" x="898.738281"/>
     <use xlink:href="#DejaVuSans-2d" x="960.261719"/>
     <use xlink:href="#DejaVuSans-30" x="996.345703"/>
     <use xlink:href="#DejaVuSans-38" x="1059.96875"/>
    </g>
    <!-- 15 instances -->
    <g transform="translate(60.632064 60.954904)scale(0.102 -0.102)">
     <use xlink:href="#DejaVuSans-31"/>
     <use xlink:href="#DejaVuSans-35" x="63.623047"/>
     <use xlink:href="#DejaVuSans-20" x="127.246094"/>
     <use xlink:href="#DejaVuSans-69" x="159.033203"/>
     <use xlink:href="#DejaVuSans-6e" x="186.816406"/>
     <use xlink:href="#DejaVuSans-73" x="250.195312"/>
     <use xlink:href="#DejaVuSans-74" x="302.294922"/>
     <use xlink:href="#DejaVuSans-61" x="341.503906"/>
     <use xlink:href="#DejaVuSans-6e" x="402.783203"/>
     <use xlink:href="#DejaVuSans-63" x="466.162109"/>
     <use xlink:href="#DejaVuSans-65" x="521.142578"/>
     <use xlink:href="#DejaVuSans-73" x="582.666016"/>
    </g>
   </g>
   <g id="text_17">
    <!-- v2.6 -->
    <g style="fill: #808080" transform="translate(198.292262 294.151352)scale(0.1 -0.1)">
     <use xlink:href="#DejaVuSans-76"/>
     <use xlink:href="#DejaVuSans-32" x="59.179688"/>
     <use xlink:href="#DejaVuSans-2e" x="122.802734"/>
     <use xlink:href="#DejaVuSans-36" x="154.589844"/>
    </g>
   </g>
   <g id="text_18">
    <!-- 23 Katsuuras -->
    <g transform="translate(143.536012 21.648)scale(0.2 -0.2)">
     <defs>
      <path id="DejaVuSans-4b" d="M 628 4666 
L 1259 4666 
L 1259 2694 
L 3353 4666 
L 4166 4666 
L 1850 2491 
L 4331 0 
L 3500 0 
L 1259 2247 
L 1259 0 
L 628 0 
L 628 4666 
z
" transform="scale(0.015625)"/>
     </defs>
     <use xlink:href="#DejaVuSans-32"/>
     <use xlink:href="#DejaVuSans-33" x="63.623047"/>
     <use xlink:href="#DejaVuSans-20" x="127.246094"/>
     <use xlink:href="#DejaVuSans-4b" x="159.033203"/>
     <use xlink:href="#DejaVuSans-61" x="222.859375"/>
     <use xlink:href="#DejaVuSans-74" x="284.138672"/>
     <use xlink:href="#DejaVuSans-73" x="323.347656"/>
     <use xlink:href="#DejaVuSans-75" x="375.447266"/>
     <use xlink:href="#DejaVuSans-75" x="438.826172"/>
     <use xlink:href="#DejaVuSans-72" x="502.205078"/>
     <use xlink:href="#DejaVuSans-61" x="543.318359"/>
     <use xlink:href="#DejaVuSans-73" x="604.597656"/>
    </g>
   </g>
  </g>
 </g>
 <defs>
  <clipPath id="p510e57c6b4">
   <rect x="57.6" y="27.648" width="303.2064" height="271.296"/>
  </clipPath>
 </defs>
</svg>
