<?xml version="1.0" encoding="utf-8" standalone="no"?>
<!DOCTYPE svg PUBLIC "-//W3C//DTD SVG 1.1//EN"
  "http://www.w3.org/Graphics/SVG/1.1/DTD/svg11.dtd">
<svg xmlns:xlink="http://www.w3.org/1999/xlink" width="460.8pt" height="345.6pt" viewBox="0 0 460.8 345.6" xmlns="http://www.w3.org/2000/svg" version="1.1">
 <metadata>
  <rdf:RDF xmlns:dc="http://purl.org/dc/elements/1.1/" xmlns:cc="http://creativecommons.org/ns#" xmlns:rdf="http://www.w3.org/1999/02/22-rdf-syntax-ns#">
   <cc:Work>
    <dc:type rdf:resource="http://purl.org/dc/dcmitype/StillImage"/>
    <dc:date>2024-05-29T08:02:30.820671</dc:date>
    <dc:format>image/svg+xml</dc:format>
    <dc:creator>
     <cc:Agent>
      <dc:title>Matplotlib v3.5.1, https://matplotlib.org/</dc:title>
     </cc:Agent>
    </dc:creator>
   </cc:Work>
  </rdf:RDF>
 </metadata>
 <defs>
  <style type="text/css">*{stroke-linejoin: round; stroke-linecap: butt}</style>
 </defs>
 <g id="figure_1">
  <g id="patch_1">
   <path d="M 0 345.6 
L 460.8 345.6 
L 460.8 0 
L 0 0 
z
" style="fill: #ffffff"/>
  </g>
  <g id="axes_1">
   <g id="patch_2">
    <path d="M 57.6 298.944 
L 360.8064 298.944 
L 360.8064 27.648 
L 57.6 27.648 
z
" style="fill: #ffffff"/>
   </g>
   <g id="line2d_1">
    <path d="M 1.245626 298.944 
L 1.245626 288.304941 
L 21.912228 288.304941 
L 21.912228 282.985412 
L 52.188254 282.985412 
L 52.188254 277.665882 
L 71.556993 277.665882 
L 71.556993 272.346353 
L 82.464279 272.346353 
L 82.464279 267.026824 
L 90.505165 267.026824 
L 90.505165 261.707294 
L 97.18203 261.707294 
L 97.18203 256.387765 
L 100.244997 256.387765 
L 100.244997 251.068235 
L 102.62243 251.068235 
L 102.62243 245.748706 
L 104.266406 245.748706 
L 104.266406 240.429176 
L 105.411479 240.429176 
L 105.411479 235.109647 
L 106.350446 235.109647 
L 106.350446 229.790118 
L 107.109915 229.790118 
L 107.109915 224.470588 
L 108.034177 224.470588 
L 108.034177 219.151059 
L 108.791791 219.151059 
L 108.791791 213.831529 
L 109.990385 213.831529 
L 109.990385 208.512 
L 111.54963 208.512 
L 111.54963 203.192471 
L 113.235374 203.192471 
L 113.235374 197.872941 
L 114.601519 197.872941 
L 114.601519 192.553412 
L 116.211813 192.553412 
L 116.211813 187.233882 
L 118.11439 187.233882 
L 118.11439 181.914353 
L 121.265635 181.914353 
L 121.265635 176.594824 
L 124.238185 176.594824 
L 124.238185 171.275294 
L 127.040519 171.275294 
L 127.040519 165.955765 
L 129.86647 165.955765 
L 129.86647 160.636235 
L 133.086488 160.636235 
L 133.086488 155.316706 
L 134.112526 155.316706 
L 134.112526 149.997176 
L 134.901055 149.997176 
L 134.901055 144.677647 
L 135.731889 144.677647 
L 135.731889 139.358118 
L 136.570023 139.358118 
L 136.570023 134.038588 
L 137.345296 134.038588 
L 137.345296 128.719059 
L 138.245669 128.719059 
L 138.245669 123.399529 
L 139.178873 123.399529 
L 139.178873 118.08 
L 139.831781 118.08 
L 139.831781 112.760471 
L 140.58877 112.760471 
L 140.58877 107.440941 
L 141.55653 107.440941 
L 141.55653 102.121412 
L 157.339986 102.121412 
L 157.339986 96.801882 
L 178.00815 96.801882 
L 178.00815 91.482353 
L 179.279134 91.482353 
L 179.279134 86.162824 
L 179.957165 86.162824 
L 179.957165 80.843294 
L 180.634709 80.843294 
L 180.634709 75.523765 
L 181.191376 75.523765 
L 181.191376 70.204235 
L 181.778108 70.204235 
L 181.778108 64.884706 
L 182.392915 64.884706 
L 182.392915 59.565176 
L 182.945071 59.565176 
L 182.945071 54.245647 
L 183.444086 54.245647 
L 183.444086 48.926118 
L 184.043851 48.926118 
L 184.043851 43.606588 
L 184.466222 43.606588 
L 184.466222 38.287059 
L 184.950714 38.287059 
L 184.950714 32.967529 
L 185.427251 32.967529 
L 185.427251 27.648 
L 360.8064 27.648 
" style="fill: none; stroke: #f5deb3; stroke-width: 4; stroke-linecap: square"/>
   </g>
   <g id="line2d_2">
    <defs>
     <path id="mb3f9747fe2" d="M 0 7.778175 
L 7.778175 0 
L 0 -7.778175 
L -7.778175 0 
z
" style="stroke: #f5deb3; stroke-width: 1.5; stroke-linejoin: miter"/>
    </defs>
    <g>
     <use xlink:href="#mb3f9747fe2" x="71.556993" y="277.665882" style="fill: #f5deb3; stroke: #f5deb3; stroke-width: 1.5; stroke-linejoin: miter"/>
     <use xlink:href="#mb3f9747fe2" x="127.040519" y="165.955765" style="fill: #f5deb3; stroke: #f5deb3; stroke-width: 1.5; stroke-linejoin: miter"/>
     <use xlink:href="#mb3f9747fe2" x="179.279134" y="86.162824" style="fill: #f5deb3; stroke: #f5deb3; stroke-width: 1.5; stroke-linejoin: miter"/>
     <use xlink:href="#mb3f9747fe2" x="185.427251" y="32.967529" style="fill: #f5deb3; stroke: #f5deb3; stroke-width: 1.5; stroke-linejoin: miter"/>
     <use xlink:href="#mb3f9747fe2" x="185.427251" y="27.648" style="fill: #f5deb3; stroke: #f5deb3; stroke-width: 1.5; stroke-linejoin: miter"/>
     <use xlink:href="#mb3f9747fe2" x="360.8064" y="27.648" style="fill: #f5deb3; stroke: #f5deb3; stroke-width: 1.5; stroke-linejoin: miter"/>
    </g>
   </g>
   <g id="line2d_3">
    <path style="fill: none; stroke: #f5deb3; stroke-width: 4; stroke-linecap: square"/>
    <g/>
   </g>
   <g id="line2d_4">
    <path d="M 360.8064 27.648 
L 380.514816 33.07392 
" style="fill: none; stroke: #f5deb3; stroke-width: 4; stroke-linecap: square"/>
    <g>
     <use xlink:href="#mb3f9747fe2" x="360.8064" y="27.648" style="fill: #f5deb3; stroke: #f5deb3; stroke-width: 1.5; stroke-linejoin: miter"/>
     <use xlink:href="#mb3f9747fe2" x="380.514816" y="33.07392" style="fill: #f5deb3; stroke: #f5deb3; stroke-width: 1.5; stroke-linejoin: miter"/>
    </g>
   </g>
   <g id="matplotlib.axis_1">
    <g id="xtick_1">
     <g id="line2d_5">
      <path d="M 57.6 298.944 
L 57.6 27.648 
" clip-path="url(#p380b8a8573)" style="fill: none; stroke: #b0b0b0; stroke-width: 0.8; stroke-linecap: square"/>
     </g>
     <g id="line2d_6">
      <defs>
       <path id="m79c1426f88" d="M 0 0 
L 0 3.5 
" style="stroke: #000000; stroke-width: 0.8"/>
      </defs>
      <g>
       <use xlink:href="#m79c1426f88" x="57.6" y="298.944" style="stroke: #000000; stroke-width: 0.8"/>
      </g>
     </g>
     <g id="text_1">
      <!-- 0 -->
      <g transform="translate(52.191875 318.861344)scale(0.17 -0.17)">
       <defs>
        <path id="DejaVuSans-30" d="M 2034 4250 
Q 1547 4250 1301 3770 
Q 1056 3291 1056 2328 
Q 1056 1369 1301 889 
Q 1547 409 2034 409 
Q 2525 409 2770 889 
Q 3016 1369 3016 2328 
Q 3016 3291 2770 3770 
Q 2525 4250 2034 4250 
z
M 2034 4750 
Q 2819 4750 3233 4129 
Q 3647 3509 3647 2328 
Q 3647 1150 3233 529 
Q 2819 -91 2034 -91 
Q 1250 -91 836 529 
Q 422 1150 422 2328 
Q 422 3509 836 4129 
Q 1250 4750 2034 4750 
z
" transform="scale(0.015625)"/>
       </defs>
       <use xlink:href="#DejaVuSans-30"/>
      </g>
     </g>
    </g>
    <g id="xtick_2">
     <g id="line2d_7">
      <path d="M 144.2304 298.944 
L 144.2304 27.648 
" clip-path="url(#p380b8a8573)" style="fill: none; stroke: #b0b0b0; stroke-width: 0.8; stroke-linecap: square"/>
     </g>
     <g id="line2d_8">
      <g>
       <use xlink:href="#m79c1426f88" x="144.2304" y="298.944" style="stroke: #000000; stroke-width: 0.8"/>
      </g>
     </g>
     <g id="text_2">
      <!-- 2 -->
      <g transform="translate(138.822275 318.861344)scale(0.17 -0.17)">
       <defs>
        <path id="DejaVuSans-32" d="M 1228 531 
L 3431 531 
L 3431 0 
L 469 0 
L 469 531 
Q 828 903 1448 1529 
Q 2069 2156 2228 2338 
Q 2531 2678 2651 2914 
Q 2772 3150 2772 3378 
Q 2772 3750 2511 3984 
Q 2250 4219 1831 4219 
Q 1534 4219 1204 4116 
Q 875 4013 500 3803 
L 500 4441 
Q 881 4594 1212 4672 
Q 1544 4750 1819 4750 
Q 2544 4750 2975 4387 
Q 3406 4025 3406 3419 
Q 3406 3131 3298 2873 
Q 3191 2616 2906 2266 
Q 2828 2175 2409 1742 
Q 1991 1309 1228 531 
z
" transform="scale(0.015625)"/>
       </defs>
       <use xlink:href="#DejaVuSans-32"/>
      </g>
     </g>
    </g>
    <g id="xtick_3">
     <g id="line2d_9">
      <path d="M 230.8608 298.944 
L 230.8608 27.648 
" clip-path="url(#p380b8a8573)" style="fill: none; stroke: #b0b0b0; stroke-width: 0.8; stroke-linecap: square"/>
     </g>
     <g id="line2d_10">
      <g>
       <use xlink:href="#m79c1426f88" x="230.8608" y="298.944" style="stroke: #000000; stroke-width: 0.8"/>
      </g>
     </g>
     <g id="text_3">
      <!-- 4 -->
      <g transform="translate(225.452675 318.861344)scale(0.17 -0.17)">
       <defs>
        <path id="DejaVuSans-34" d="M 2419 4116 
L 825 1625 
L 2419 1625 
L 2419 4116 
z
M 2253 4666 
L 3047 4666 
L 3047 1625 
L 3713 1625 
L 3713 1100 
L 3047 1100 
L 3047 0 
L 2419 0 
L 2419 1100 
L 313 1100 
L 313 1709 
L 2253 4666 
z
" transform="scale(0.015625)"/>
       </defs>
       <use xlink:href="#DejaVuSans-34"/>
      </g>
     </g>
    </g>
    <g id="xtick_4">
     <g id="line2d_11">
      <path d="M 317.4912 298.944 
L 317.4912 27.648 
" clip-path="url(#p380b8a8573)" style="fill: none; stroke: #b0b0b0; stroke-width: 0.8; stroke-linecap: square"/>
     </g>
     <g id="line2d_12">
      <g>
       <use xlink:href="#m79c1426f88" x="317.4912" y="298.944" style="stroke: #000000; stroke-width: 0.8"/>
      </g>
     </g>
     <g id="text_4">
      <!-- 6 -->
      <g transform="translate(312.083075 318.861344)scale(0.17 -0.17)">
       <defs>
        <path id="DejaVuSans-36" d="M 2113 2584 
Q 1688 2584 1439 2293 
Q 1191 2003 1191 1497 
Q 1191 994 1439 701 
Q 1688 409 2113 409 
Q 2538 409 2786 701 
Q 3034 994 3034 1497 
Q 3034 2003 2786 2293 
Q 2538 2584 2113 2584 
z
M 3366 4563 
L 3366 3988 
Q 3128 4100 2886 4159 
Q 2644 4219 2406 4219 
Q 1781 4219 1451 3797 
Q 1122 3375 1075 2522 
Q 1259 2794 1537 2939 
Q 1816 3084 2150 3084 
Q 2853 3084 3261 2657 
Q 3669 2231 3669 1497 
Q 3669 778 3244 343 
Q 2819 -91 2113 -91 
Q 1303 -91 875 529 
Q 447 1150 447 2328 
Q 447 3434 972 4092 
Q 1497 4750 2381 4750 
Q 2619 4750 2861 4703 
Q 3103 4656 3366 4563 
z
" transform="scale(0.015625)"/>
       </defs>
       <use xlink:href="#DejaVuSans-36"/>
      </g>
     </g>
    </g>
    <g id="xtick_5">
     <g id="line2d_13">
      <path d="M 100.9152 298.944 
L 100.9152 27.648 
" clip-path="url(#p380b8a8573)" style="fill: none; stroke: #b0b0b0; stroke-width: 0.8; stroke-linecap: square"/>
     </g>
     <g id="line2d_14">
      <defs>
       <path id="m68a389bd32" d="M 0 0 
L 0 2 
" style="stroke: #000000; stroke-width: 0.6"/>
      </defs>
      <g>
       <use xlink:href="#m68a389bd32" x="100.9152" y="298.944" style="stroke: #000000; stroke-width: 0.6"/>
      </g>
     </g>
    </g>
    <g id="xtick_6">
     <g id="line2d_15">
      <path d="M 187.5456 298.944 
L 187.5456 27.648 
" clip-path="url(#p380b8a8573)" style="fill: none; stroke: #b0b0b0; stroke-width: 0.8; stroke-linecap: square"/>
     </g>
     <g id="line2d_16">
      <g>
       <use xlink:href="#m68a389bd32" x="187.5456" y="298.944" style="stroke: #000000; stroke-width: 0.6"/>
      </g>
     </g>
    </g>
    <g id="xtick_7">
     <g id="line2d_17">
      <path d="M 274.176 298.944 
L 274.176 27.648 
" clip-path="url(#p380b8a8573)" style="fill: none; stroke: #b0b0b0; stroke-width: 0.8; stroke-linecap: square"/>
     </g>
     <g id="line2d_18">
      <g>
       <use xlink:href="#m68a389bd32" x="274.176" y="298.944" style="stroke: #000000; stroke-width: 0.6"/>
      </g>
     </g>
    </g>
    <g id="xtick_8">
     <g id="line2d_19">
      <path d="M 360.8064 298.944 
L 360.8064 27.648 
" clip-path="url(#p380b8a8573)" style="fill: none; stroke: #b0b0b0; stroke-width: 0.8; stroke-linecap: square"/>
     </g>
     <g id="line2d_20">
      <g>
       <use xlink:href="#m68a389bd32" x="360.8064" y="298.944" style="stroke: #000000; stroke-width: 0.6"/>
      </g>
     </g>
    </g>
    <g id="text_5">
     <!-- log10(# f-evals / dimension) -->
     <g transform="translate(88.823278 339.314156)scale(0.17 -0.17)">
      <defs>
       <path id="DejaVuSans-6c" d="M 603 4863 
L 1178 4863 
L 1178 0 
L 603 0 
L 603 4863 
z
" transform="scale(0.015625)"/>
       <path id="DejaVuSans-6f" d="M 1959 3097 
Q 1497 3097 1228 2736 
Q 959 2375 959 1747 
Q 959 1119 1226 758 
Q 1494 397 1959 397 
Q 2419 397 2687 759 
Q 2956 1122 2956 1747 
Q 2956 2369 2687 2733 
Q 2419 3097 1959 3097 
z
M 1959 3584 
Q 2709 3584 3137 3096 
Q 3566 2609 3566 1747 
Q 3566 888 3137 398 
Q 2709 -91 1959 -91 
Q 1206 -91 779 398 
Q 353 888 353 1747 
Q 353 2609 779 3096 
Q 1206 3584 1959 3584 
z
" transform="scale(0.015625)"/>
       <path id="DejaVuSans-67" d="M 2906 1791 
Q 2906 2416 2648 2759 
Q 2391 3103 1925 3103 
Q 1463 3103 1205 2759 
Q 947 2416 947 1791 
Q 947 1169 1205 825 
Q 1463 481 1925 481 
Q 2391 481 2648 825 
Q 2906 1169 2906 1791 
z
M 3481 434 
Q 3481 -459 3084 -895 
Q 2688 -1331 1869 -1331 
Q 1566 -1331 1297 -1286 
Q 1028 -1241 775 -1147 
L 775 -588 
Q 1028 -725 1275 -790 
Q 1522 -856 1778 -856 
Q 2344 -856 2625 -561 
Q 2906 -266 2906 331 
L 2906 616 
Q 2728 306 2450 153 
Q 2172 0 1784 0 
Q 1141 0 747 490 
Q 353 981 353 1791 
Q 353 2603 747 3093 
Q 1141 3584 1784 3584 
Q 2172 3584 2450 3431 
Q 2728 3278 2906 2969 
L 2906 3500 
L 3481 3500 
L 3481 434 
z
" transform="scale(0.015625)"/>
       <path id="DejaVuSans-31" d="M 794 531 
L 1825 531 
L 1825 4091 
L 703 3866 
L 703 4441 
L 1819 4666 
L 2450 4666 
L 2450 531 
L 3481 531 
L 3481 0 
L 794 0 
L 794 531 
z
" transform="scale(0.015625)"/>
       <path id="DejaVuSans-28" d="M 1984 4856 
Q 1566 4138 1362 3434 
Q 1159 2731 1159 2009 
Q 1159 1288 1364 580 
Q 1569 -128 1984 -844 
L 1484 -844 
Q 1016 -109 783 600 
Q 550 1309 550 2009 
Q 550 2706 781 3412 
Q 1013 4119 1484 4856 
L 1984 4856 
z
" transform="scale(0.015625)"/>
       <path id="DejaVuSans-23" d="M 3272 2816 
L 2363 2816 
L 2100 1772 
L 3016 1772 
L 3272 2816 
z
M 2803 4594 
L 2478 3297 
L 3391 3297 
L 3719 4594 
L 4219 4594 
L 3897 3297 
L 4872 3297 
L 4872 2816 
L 3775 2816 
L 3519 1772 
L 4513 1772 
L 4513 1294 
L 3397 1294 
L 3072 0 
L 2572 0 
L 2894 1294 
L 1978 1294 
L 1656 0 
L 1153 0 
L 1478 1294 
L 494 1294 
L 494 1772 
L 1594 1772 
L 1856 2816 
L 850 2816 
L 850 3297 
L 1978 3297 
L 2297 4594 
L 2803 4594 
z
" transform="scale(0.015625)"/>
       <path id="DejaVuSans-20" transform="scale(0.015625)"/>
       <path id="DejaVuSans-66" d="M 2375 4863 
L 2375 4384 
L 1825 4384 
Q 1516 4384 1395 4259 
Q 1275 4134 1275 3809 
L 1275 3500 
L 2222 3500 
L 2222 3053 
L 1275 3053 
L 1275 0 
L 697 0 
L 697 3053 
L 147 3053 
L 147 3500 
L 697 3500 
L 697 3744 
Q 697 4328 969 4595 
Q 1241 4863 1831 4863 
L 2375 4863 
z
" transform="scale(0.015625)"/>
       <path id="DejaVuSans-2d" d="M 313 2009 
L 1997 2009 
L 1997 1497 
L 313 1497 
L 313 2009 
z
" transform="scale(0.015625)"/>
       <path id="DejaVuSans-65" d="M 3597 1894 
L 3597 1613 
L 953 1613 
Q 991 1019 1311 708 
Q 1631 397 2203 397 
Q 2534 397 2845 478 
Q 3156 559 3463 722 
L 3463 178 
Q 3153 47 2828 -22 
Q 2503 -91 2169 -91 
Q 1331 -91 842 396 
Q 353 884 353 1716 
Q 353 2575 817 3079 
Q 1281 3584 2069 3584 
Q 2775 3584 3186 3129 
Q 3597 2675 3597 1894 
z
M 3022 2063 
Q 3016 2534 2758 2815 
Q 2500 3097 2075 3097 
Q 1594 3097 1305 2825 
Q 1016 2553 972 2059 
L 3022 2063 
z
" transform="scale(0.015625)"/>
       <path id="DejaVuSans-76" d="M 191 3500 
L 800 3500 
L 1894 563 
L 2988 3500 
L 3597 3500 
L 2284 0 
L 1503 0 
L 191 3500 
z
" transform="scale(0.015625)"/>
       <path id="DejaVuSans-61" d="M 2194 1759 
Q 1497 1759 1228 1600 
Q 959 1441 959 1056 
Q 959 750 1161 570 
Q 1363 391 1709 391 
Q 2188 391 2477 730 
Q 2766 1069 2766 1631 
L 2766 1759 
L 2194 1759 
z
M 3341 1997 
L 3341 0 
L 2766 0 
L 2766 531 
Q 2569 213 2275 61 
Q 1981 -91 1556 -91 
Q 1019 -91 701 211 
Q 384 513 384 1019 
Q 384 1609 779 1909 
Q 1175 2209 1959 2209 
L 2766 2209 
L 2766 2266 
Q 2766 2663 2505 2880 
Q 2244 3097 1772 3097 
Q 1472 3097 1187 3025 
Q 903 2953 641 2809 
L 641 3341 
Q 956 3463 1253 3523 
Q 1550 3584 1831 3584 
Q 2591 3584 2966 3190 
Q 3341 2797 3341 1997 
z
" transform="scale(0.015625)"/>
       <path id="DejaVuSans-73" d="M 2834 3397 
L 2834 2853 
Q 2591 2978 2328 3040 
Q 2066 3103 1784 3103 
Q 1356 3103 1142 2972 
Q 928 2841 928 2578 
Q 928 2378 1081 2264 
Q 1234 2150 1697 2047 
L 1894 2003 
Q 2506 1872 2764 1633 
Q 3022 1394 3022 966 
Q 3022 478 2636 193 
Q 2250 -91 1575 -91 
Q 1294 -91 989 -36 
Q 684 19 347 128 
L 347 722 
Q 666 556 975 473 
Q 1284 391 1588 391 
Q 1994 391 2212 530 
Q 2431 669 2431 922 
Q 2431 1156 2273 1281 
Q 2116 1406 1581 1522 
L 1381 1569 
Q 847 1681 609 1914 
Q 372 2147 372 2553 
Q 372 3047 722 3315 
Q 1072 3584 1716 3584 
Q 2034 3584 2315 3537 
Q 2597 3491 2834 3397 
z
" transform="scale(0.015625)"/>
       <path id="DejaVuSans-2f" d="M 1625 4666 
L 2156 4666 
L 531 -594 
L 0 -594 
L 1625 4666 
z
" transform="scale(0.015625)"/>
       <path id="DejaVuSans-64" d="M 2906 2969 
L 2906 4863 
L 3481 4863 
L 3481 0 
L 2906 0 
L 2906 525 
Q 2725 213 2448 61 
Q 2172 -91 1784 -91 
Q 1150 -91 751 415 
Q 353 922 353 1747 
Q 353 2572 751 3078 
Q 1150 3584 1784 3584 
Q 2172 3584 2448 3432 
Q 2725 3281 2906 2969 
z
M 947 1747 
Q 947 1113 1208 752 
Q 1469 391 1925 391 
Q 2381 391 2643 752 
Q 2906 1113 2906 1747 
Q 2906 2381 2643 2742 
Q 2381 3103 1925 3103 
Q 1469 3103 1208 2742 
Q 947 2381 947 1747 
z
" transform="scale(0.015625)"/>
       <path id="DejaVuSans-69" d="M 603 3500 
L 1178 3500 
L 1178 0 
L 603 0 
L 603 3500 
z
M 603 4863 
L 1178 4863 
L 1178 4134 
L 603 4134 
L 603 4863 
z
" transform="scale(0.015625)"/>
       <path id="DejaVuSans-6d" d="M 3328 2828 
Q 3544 3216 3844 3400 
Q 4144 3584 4550 3584 
Q 5097 3584 5394 3201 
Q 5691 2819 5691 2113 
L 5691 0 
L 5113 0 
L 5113 2094 
Q 5113 2597 4934 2840 
Q 4756 3084 4391 3084 
Q 3944 3084 3684 2787 
Q 3425 2491 3425 1978 
L 3425 0 
L 2847 0 
L 2847 2094 
Q 2847 2600 2669 2842 
Q 2491 3084 2119 3084 
Q 1678 3084 1418 2786 
Q 1159 2488 1159 1978 
L 1159 0 
L 581 0 
L 581 3500 
L 1159 3500 
L 1159 2956 
Q 1356 3278 1631 3431 
Q 1906 3584 2284 3584 
Q 2666 3584 2933 3390 
Q 3200 3197 3328 2828 
z
" transform="scale(0.015625)"/>
       <path id="DejaVuSans-6e" d="M 3513 2113 
L 3513 0 
L 2938 0 
L 2938 2094 
Q 2938 2591 2744 2837 
Q 2550 3084 2163 3084 
Q 1697 3084 1428 2787 
Q 1159 2491 1159 1978 
L 1159 0 
L 581 0 
L 581 3500 
L 1159 3500 
L 1159 2956 
Q 1366 3272 1645 3428 
Q 1925 3584 2291 3584 
Q 2894 3584 3203 3211 
Q 3513 2838 3513 2113 
z
" transform="scale(0.015625)"/>
       <path id="DejaVuSans-29" d="M 513 4856 
L 1013 4856 
Q 1481 4119 1714 3412 
Q 1947 2706 1947 2009 
Q 1947 1309 1714 600 
Q 1481 -109 1013 -844 
L 513 -844 
Q 928 -128 1133 580 
Q 1338 1288 1338 2009 
Q 1338 2731 1133 3434 
Q 928 4138 513 4856 
z
" transform="scale(0.015625)"/>
      </defs>
      <use xlink:href="#DejaVuSans-6c"/>
      <use xlink:href="#DejaVuSans-6f" x="27.783203"/>
      <use xlink:href="#DejaVuSans-67" x="88.964844"/>
      <use xlink:href="#DejaVuSans-31" x="152.441406"/>
      <use xlink:href="#DejaVuSans-30" x="216.064453"/>
      <use xlink:href="#DejaVuSans-28" x="279.6875"/>
      <use xlink:href="#DejaVuSans-23" x="318.701172"/>
      <use xlink:href="#DejaVuSans-20" x="402.490234"/>
      <use xlink:href="#DejaVuSans-66" x="434.277344"/>
      <use xlink:href="#DejaVuSans-2d" x="463.982422"/>
      <use xlink:href="#DejaVuSans-65" x="500.066406"/>
      <use xlink:href="#DejaVuSans-76" x="561.589844"/>
      <use xlink:href="#DejaVuSans-61" x="620.769531"/>
      <use xlink:href="#DejaVuSans-6c" x="682.048828"/>
      <use xlink:href="#DejaVuSans-73" x="709.832031"/>
      <use xlink:href="#DejaVuSans-20" x="761.931641"/>
      <use xlink:href="#DejaVuSans-2f" x="793.71875"/>
      <use xlink:href="#DejaVuSans-20" x="827.410156"/>
      <use xlink:href="#DejaVuSans-64" x="859.197266"/>
      <use xlink:href="#DejaVuSans-69" x="922.673828"/>
      <use xlink:href="#DejaVuSans-6d" x="950.457031"/>
      <use xlink:href="#DejaVuSans-65" x="1047.869141"/>
      <use xlink:href="#DejaVuSans-6e" x="1109.392578"/>
      <use xlink:href="#DejaVuSans-73" x="1172.771484"/>
      <use xlink:href="#DejaVuSans-69" x="1224.871094"/>
      <use xlink:href="#DejaVuSans-6f" x="1252.654297"/>
      <use xlink:href="#DejaVuSans-6e" x="1313.835938"/>
      <use xlink:href="#DejaVuSans-29" x="1377.214844"/>
     </g>
    </g>
   </g>
   <g id="matplotlib.axis_2">
    <g id="ytick_1">
     <g id="line2d_21">
      <path d="M 57.6 298.944 
L 360.8064 298.944 
" clip-path="url(#p380b8a8573)" style="fill: none; stroke: #b0b0b0; stroke-width: 0.8; stroke-linecap: square"/>
     </g>
     <g id="line2d_22">
      <defs>
       <path id="m019975947e" d="M 0 0 
L -3.5 0 
" style="stroke: #000000; stroke-width: 0.8"/>
      </defs>
      <g>
       <use xlink:href="#m019975947e" x="57.6" y="298.944" style="stroke: #000000; stroke-width: 0.8"/>
      </g>
     </g>
     <g id="text_6">
      <!-- 0.0 -->
      <g transform="translate(25.155 305.02275)scale(0.16 -0.16)">
       <defs>
        <path id="DejaVuSans-2e" d="M 684 794 
L 1344 794 
L 1344 0 
L 684 0 
L 684 794 
z
" transform="scale(0.015625)"/>
       </defs>
       <use xlink:href="#DejaVuSans-30"/>
       <use xlink:href="#DejaVuSans-2e" x="63.623047"/>
       <use xlink:href="#DejaVuSans-30" x="95.410156"/>
      </g>
     </g>
    </g>
    <g id="ytick_2">
     <g id="line2d_23">
      <path d="M 57.6 244.6848 
L 360.8064 244.6848 
" clip-path="url(#p380b8a8573)" style="fill: none; stroke: #b0b0b0; stroke-width: 0.8; stroke-linecap: square"/>
     </g>
     <g id="line2d_24">
      <g>
       <use xlink:href="#m019975947e" x="57.6" y="244.6848" style="stroke: #000000; stroke-width: 0.8"/>
      </g>
     </g>
     <g id="text_7">
      <!-- 0.2 -->
      <g transform="translate(25.155 250.76355)scale(0.16 -0.16)">
       <use xlink:href="#DejaVuSans-30"/>
       <use xlink:href="#DejaVuSans-2e" x="63.623047"/>
       <use xlink:href="#DejaVuSans-32" x="95.410156"/>
      </g>
     </g>
    </g>
    <g id="ytick_3">
     <g id="line2d_25">
      <path d="M 57.6 190.4256 
L 360.8064 190.4256 
" clip-path="url(#p380b8a8573)" style="fill: none; stroke: #b0b0b0; stroke-width: 0.8; stroke-linecap: square"/>
     </g>
     <g id="line2d_26">
      <g>
       <use xlink:href="#m019975947e" x="57.6" y="190.4256" style="stroke: #000000; stroke-width: 0.8"/>
      </g>
     </g>
     <g id="text_8">
      <!-- 0.4 -->
      <g transform="translate(25.155 196.50435)scale(0.16 -0.16)">
       <use xlink:href="#DejaVuSans-30"/>
       <use xlink:href="#DejaVuSans-2e" x="63.623047"/>
       <use xlink:href="#DejaVuSans-34" x="95.410156"/>
      </g>
     </g>
    </g>
    <g id="ytick_4">
     <g id="line2d_27">
      <path d="M 57.6 136.1664 
L 360.8064 136.1664 
" clip-path="url(#p380b8a8573)" style="fill: none; stroke: #b0b0b0; stroke-width: 0.8; stroke-linecap: square"/>
     </g>
     <g id="line2d_28">
      <g>
       <use xlink:href="#m019975947e" x="57.6" y="136.1664" style="stroke: #000000; stroke-width: 0.8"/>
      </g>
     </g>
     <g id="text_9">
      <!-- 0.6 -->
      <g transform="translate(25.155 142.24515)scale(0.16 -0.16)">
       <use xlink:href="#DejaVuSans-30"/>
       <use xlink:href="#DejaVuSans-2e" x="63.623047"/>
       <use xlink:href="#DejaVuSans-36" x="95.410156"/>
      </g>
     </g>
    </g>
    <g id="ytick_5">
     <g id="line2d_29">
      <path d="M 57.6 81.9072 
L 360.8064 81.9072 
" clip-path="url(#p380b8a8573)" style="fill: none; stroke: #b0b0b0; stroke-width: 0.8; stroke-linecap: square"/>
     </g>
     <g id="line2d_30">
      <g>
       <use xlink:href="#m019975947e" x="57.6" y="81.9072" style="stroke: #000000; stroke-width: 0.8"/>
      </g>
     </g>
     <g id="text_10">
      <!-- 0.8 -->
      <g transform="translate(25.155 87.98595)scale(0.16 -0.16)">
       <defs>
        <path id="DejaVuSans-38" d="M 2034 2216 
Q 1584 2216 1326 1975 
Q 1069 1734 1069 1313 
Q 1069 891 1326 650 
Q 1584 409 2034 409 
Q 2484 409 2743 651 
Q 3003 894 3003 1313 
Q 3003 1734 2745 1975 
Q 2488 2216 2034 2216 
z
M 1403 2484 
Q 997 2584 770 2862 
Q 544 3141 544 3541 
Q 544 4100 942 4425 
Q 1341 4750 2034 4750 
Q 2731 4750 3128 4425 
Q 3525 4100 3525 3541 
Q 3525 3141 3298 2862 
Q 3072 2584 2669 2484 
Q 3125 2378 3379 2068 
Q 3634 1759 3634 1313 
Q 3634 634 3220 271 
Q 2806 -91 2034 -91 
Q 1263 -91 848 271 
Q 434 634 434 1313 
Q 434 1759 690 2068 
Q 947 2378 1403 2484 
z
M 1172 3481 
Q 1172 3119 1398 2916 
Q 1625 2713 2034 2713 
Q 2441 2713 2670 2916 
Q 2900 3119 2900 3481 
Q 2900 3844 2670 4047 
Q 2441 4250 2034 4250 
Q 1625 4250 1398 4047 
Q 1172 3844 1172 3481 
z
" transform="scale(0.015625)"/>
       </defs>
       <use xlink:href="#DejaVuSans-30"/>
       <use xlink:href="#DejaVuSans-2e" x="63.623047"/>
       <use xlink:href="#DejaVuSans-38" x="95.410156"/>
      </g>
     </g>
    </g>
    <g id="ytick_6">
     <g id="line2d_31">
      <path d="M 57.6 27.648 
L 360.8064 27.648 
" clip-path="url(#p380b8a8573)" style="fill: none; stroke: #b0b0b0; stroke-width: 0.8; stroke-linecap: square"/>
     </g>
     <g id="line2d_32">
      <g>
       <use xlink:href="#m019975947e" x="57.6" y="27.648" style="stroke: #000000; stroke-width: 0.8"/>
      </g>
     </g>
     <g id="text_11">
      <!-- 1.0 -->
      <g transform="translate(25.155 33.72675)scale(0.16 -0.16)">
       <use xlink:href="#DejaVuSans-31"/>
       <use xlink:href="#DejaVuSans-2e" x="63.623047"/>
       <use xlink:href="#DejaVuSans-30" x="95.410156"/>
      </g>
     </g>
    </g>
    <g id="text_12">
     <!-- Fraction of function,target pairs -->
     <g transform="translate(17.619531 297.681)rotate(-90)scale(0.17 -0.17)">
      <defs>
       <path id="DejaVuSans-46" d="M 628 4666 
L 3309 4666 
L 3309 4134 
L 1259 4134 
L 1259 2759 
L 3109 2759 
L 3109 2228 
L 1259 2228 
L 1259 0 
L 628 0 
L 628 4666 
z
" transform="scale(0.015625)"/>
       <path id="DejaVuSans-72" d="M 2631 2963 
Q 2534 3019 2420 3045 
Q 2306 3072 2169 3072 
Q 1681 3072 1420 2755 
Q 1159 2438 1159 1844 
L 1159 0 
L 581 0 
L 581 3500 
L 1159 3500 
L 1159 2956 
Q 1341 3275 1631 3429 
Q 1922 3584 2338 3584 
Q 2397 3584 2469 3576 
Q 2541 3569 2628 3553 
L 2631 2963 
z
" transform="scale(0.015625)"/>
       <path id="DejaVuSans-63" d="M 3122 3366 
L 3122 2828 
Q 2878 2963 2633 3030 
Q 2388 3097 2138 3097 
Q 1578 3097 1268 2742 
Q 959 2388 959 1747 
Q 959 1106 1268 751 
Q 1578 397 2138 397 
Q 2388 397 2633 464 
Q 2878 531 3122 666 
L 3122 134 
Q 2881 22 2623 -34 
Q 2366 -91 2075 -91 
Q 1284 -91 818 406 
Q 353 903 353 1747 
Q 353 2603 823 3093 
Q 1294 3584 2113 3584 
Q 2378 3584 2631 3529 
Q 2884 3475 3122 3366 
z
" transform="scale(0.015625)"/>
       <path id="DejaVuSans-74" d="M 1172 4494 
L 1172 3500 
L 2356 3500 
L 2356 3053 
L 1172 3053 
L 1172 1153 
Q 1172 725 1289 603 
Q 1406 481 1766 481 
L 2356 481 
L 2356 0 
L 1766 0 
Q 1100 0 847 248 
Q 594 497 594 1153 
L 594 3053 
L 172 3053 
L 172 3500 
L 594 3500 
L 594 4494 
L 1172 4494 
z
" transform="scale(0.015625)"/>
       <path id="DejaVuSans-75" d="M 544 1381 
L 544 3500 
L 1119 3500 
L 1119 1403 
Q 1119 906 1312 657 
Q 1506 409 1894 409 
Q 2359 409 2629 706 
Q 2900 1003 2900 1516 
L 2900 3500 
L 3475 3500 
L 3475 0 
L 2900 0 
L 2900 538 
Q 2691 219 2414 64 
Q 2138 -91 1772 -91 
Q 1169 -91 856 284 
Q 544 659 544 1381 
z
M 1991 3584 
L 1991 3584 
z
" transform="scale(0.015625)"/>
       <path id="DejaVuSans-2c" d="M 750 794 
L 1409 794 
L 1409 256 
L 897 -744 
L 494 -744 
L 750 256 
L 750 794 
z
" transform="scale(0.015625)"/>
       <path id="DejaVuSans-70" d="M 1159 525 
L 1159 -1331 
L 581 -1331 
L 581 3500 
L 1159 3500 
L 1159 2969 
Q 1341 3281 1617 3432 
Q 1894 3584 2278 3584 
Q 2916 3584 3314 3078 
Q 3713 2572 3713 1747 
Q 3713 922 3314 415 
Q 2916 -91 2278 -91 
Q 1894 -91 1617 61 
Q 1341 213 1159 525 
z
M 3116 1747 
Q 3116 2381 2855 2742 
Q 2594 3103 2138 3103 
Q 1681 3103 1420 2742 
Q 1159 2381 1159 1747 
Q 1159 1113 1420 752 
Q 1681 391 2138 391 
Q 2594 391 2855 752 
Q 3116 1113 3116 1747 
z
" transform="scale(0.015625)"/>
      </defs>
      <use xlink:href="#DejaVuSans-46"/>
      <use xlink:href="#DejaVuSans-72" x="50.269531"/>
      <use xlink:href="#DejaVuSans-61" x="91.382812"/>
      <use xlink:href="#DejaVuSans-63" x="152.662109"/>
      <use xlink:href="#DejaVuSans-74" x="207.642578"/>
      <use xlink:href="#DejaVuSans-69" x="246.851562"/>
      <use xlink:href="#DejaVuSans-6f" x="274.634766"/>
      <use xlink:href="#DejaVuSans-6e" x="335.816406"/>
      <use xlink:href="#DejaVuSans-20" x="399.195312"/>
      <use xlink:href="#DejaVuSans-6f" x="430.982422"/>
      <use xlink:href="#DejaVuSans-66" x="492.164062"/>
      <use xlink:href="#DejaVuSans-20" x="527.369141"/>
      <use xlink:href="#DejaVuSans-66" x="559.15625"/>
      <use xlink:href="#DejaVuSans-75" x="594.361328"/>
      <use xlink:href="#DejaVuSans-6e" x="657.740234"/>
      <use xlink:href="#DejaVuSans-63" x="721.119141"/>
      <use xlink:href="#DejaVuSans-74" x="776.099609"/>
      <use xlink:href="#DejaVuSans-69" x="815.308594"/>
      <use xlink:href="#DejaVuSans-6f" x="843.091797"/>
      <use xlink:href="#DejaVuSans-6e" x="904.273438"/>
      <use xlink:href="#DejaVuSans-2c" x="967.652344"/>
      <use xlink:href="#DejaVuSans-74" x="999.439453"/>
      <use xlink:href="#DejaVuSans-61" x="1038.648438"/>
      <use xlink:href="#DejaVuSans-72" x="1099.927734"/>
      <use xlink:href="#DejaVuSans-67" x="1139.291016"/>
      <use xlink:href="#DejaVuSans-65" x="1202.767578"/>
      <use xlink:href="#DejaVuSans-74" x="1264.291016"/>
      <use xlink:href="#DejaVuSans-20" x="1303.5"/>
      <use xlink:href="#DejaVuSans-70" x="1335.287109"/>
      <use xlink:href="#DejaVuSans-61" x="1398.763672"/>
      <use xlink:href="#DejaVuSans-69" x="1460.042969"/>
      <use xlink:href="#DejaVuSans-72" x="1487.826172"/>
      <use xlink:href="#DejaVuSans-73" x="1528.939453"/>
     </g>
    </g>
   </g>
   <g id="line2d_33">
    <defs>
     <path id="mabbf8a3b8b" d="M 0 1.5 
C 0.397805 1.5 0.77937 1.341951 1.06066 1.06066 
C 1.341951 0.77937 1.5 0.397805 1.5 0 
C 1.5 -0.397805 1.341951 -0.77937 1.06066 -1.06066 
C 0.77937 -1.341951 0.397805 -1.5 0 -1.5 
C -0.397805 -1.5 -0.77937 -1.341951 -1.06066 -1.06066 
C -1.341951 -0.77937 -1.5 -0.397805 -1.5 0 
C -1.5 0.397805 -1.341951 0.77937 -1.06066 1.06066 
C -0.77937 1.341951 -0.397805 1.5 0 1.5 
z
" style="stroke: #f5deb3"/>
    </defs>
    <g>
     <use xlink:href="#mabbf8a3b8b" x="185.427251" y="27.648" style="fill: #f5deb3; stroke: #f5deb3"/>
     <use xlink:href="#mabbf8a3b8b" x="185.427251" y="27.648" style="fill: #f5deb3; stroke: #f5deb3"/>
    </g>
   </g>
   <g id="line2d_34">
    <defs>
     <path id="ma04855ab8a" d="M 0 1.5 
C 0.397805 1.5 0.77937 1.341951 1.06066 1.06066 
C 1.341951 0.77937 1.5 0.397805 1.5 0 
C 1.5 -0.397805 1.341951 -0.77937 1.06066 -1.06066 
C 0.77937 -1.341951 0.397805 -1.5 0 -1.5 
C -0.397805 -1.5 -0.77937 -1.341951 -1.06066 -1.06066 
C -1.341951 -0.77937 -1.5 -0.397805 -1.5 0 
C -1.5 0.397805 -1.341951 0.77937 -1.06066 1.06066 
C -0.77937 1.341951 -0.397805 1.5 0 1.5 
z
" style="stroke: #000080"/>
    </defs>
    <g>
     <use xlink:href="#ma04855ab8a" x="337.515966" y="123.399529" style="fill: #000080; stroke: #000080"/>
     <use xlink:href="#ma04855ab8a" x="337.515966" y="123.399529" style="fill: #000080; stroke: #000080"/>
    </g>
   </g>
   <g id="line2d_35">
    <path d="M 1.245626 298.944 
L 1.245626 297.880094 
L 14.2848 297.880094 
L 14.2848 297.170824 
L 21.912228 297.170824 
L 21.912228 296.816188 
L 27.323974 296.816188 
L 27.323974 294.333741 
L 31.521651 294.333741 
L 31.521651 293.624471 
L 37.851216 293.624471 
L 37.851216 292.9152 
L 42.578831 292.9152 
L 42.578831 292.205929 
L 44.560826 292.205929 
L 44.560826 291.496659 
L 47.990577 291.496659 
L 47.990577 290.787388 
L 49.496305 290.787388 
L 49.496305 290.078118 
L 55.618005 290.078118 
L 55.618005 289.723482 
L 56.635094 289.723482 
L 56.635094 289.368847 
L 57.6 289.368847 
L 57.6 289.014212 
L 60.229139 289.014212 
L 60.229139 288.304941 
L 65.844256 288.304941 
L 65.844256 287.950306 
L 69.172597 287.950306 
L 69.172597 287.595671 
L 80.895742 287.595671 
L 80.895742 287.241035 
L 81.696354 287.241035 
L 81.696354 286.8864 
L 84.818792 286.8864 
L 84.818792 286.531765 
L 89.497162 286.531765 
L 89.497162 286.177129 
L 94.205591 286.177129 
L 94.205591 285.822494 
L 94.472426 285.822494 
L 94.472426 285.467859 
L 98.510456 285.467859 
L 98.510456 284.758588 
L 100.820906 284.758588 
L 100.820906 284.403953 
L 110.674517 284.403953 
L 110.674517 284.049318 
L 111.602996 284.049318 
L 111.602996 283.694682 
L 112.128493 283.694682 
L 112.128493 283.340047 
L 112.989468 283.340047 
L 112.989468 282.985412 
L 113.332844 282.985412 
L 113.332844 282.630776 
L 117.65648 282.630776 
L 117.65648 281.921506 
L 118.450653 281.921506 
L 118.524569 280.502965 
L 118.853643 280.502965 
L 118.962067 279.439059 
L 119.034004 279.439059 
L 119.105667 278.375153 
L 119.530006 278.375153 
L 119.530006 277.665882 
L 119.876453 277.665882 
L 119.979155 276.601976 
L 120.013265 276.601976 
L 120.047313 275.892706 
L 120.250317 275.892706 
L 120.250317 275.538071 
L 120.550775 275.538071 
L 120.550775 275.183435 
L 120.9116 275.183435 
L 121.008818 274.119529 
L 121.073351 274.119529 
L 121.073351 273.764894 
L 121.39274 273.764894 
L 121.39274 273.410259 
L 121.644403 273.410259 
L 121.706797 272.700988 
L 122.228947 272.700988 
L 122.319605 271.282447 
L 122.588988 271.282447 
L 122.588988 270.927812 
L 122.795872 270.927812 
L 122.795872 270.573176 
L 123.145323 270.573176 
L 123.145323 270.218541 
L 123.460048 270.218541 
L 123.460048 269.863906 
L 123.629523 269.863906 
L 123.629523 269.509271 
L 124.210942 269.509271 
L 124.238185 268.445365 
L 126.102752 268.445365 
L 126.176572 267.736094 
L 126.250102 267.736094 
L 126.250102 267.381459 
L 126.517282 267.381459 
L 126.517282 267.026824 
L 128.222309 267.026824 
L 128.222309 266.672188 
L 128.463066 266.672188 
L 128.463066 266.317553 
L 128.765092 266.317553 
L 128.765092 265.962918 
L 130.811181 265.962918 
L 130.811181 265.608282 
L 131.582177 265.608282 
L 131.582177 265.253647 
L 136.906202 265.253647 
L 136.906202 264.899012 
L 137.290966 264.899012 
L 137.290966 264.544376 
L 138.03766 264.544376 
L 138.03766 264.189741 
L 139.080189 264.189741 
L 139.080189 263.835106 
L 139.902947 263.835106 
L 139.902947 263.480471 
L 140.173284 263.480471 
L 140.173284 263.125835 
L 140.554495 263.125835 
L 140.554495 262.7712 
L 140.691224 262.7712 
L 140.691224 262.416565 
L 141.55653 262.416565 
L 141.55653 262.061929 
L 142.528483 262.061929 
L 142.528483 261.707294 
L 142.753651 261.707294 
L 142.753651 261.352659 
L 144.501209 261.352659 
L 144.501209 260.998024 
L 144.749884 260.998024 
L 144.749884 260.643388 
L 145.291002 260.643388 
L 145.291002 260.288753 
L 145.40622 260.288753 
L 145.40622 259.934118 
L 146.244347 259.934118 
L 146.269683 259.224847 
L 147.183884 259.224847 
L 147.224037 258.515576 
L 147.502732 258.515576 
L 147.502732 258.160941 
L 147.691478 258.160941 
L 147.691478 257.806306 
L 148.910927 257.806306 
L 148.947561 257.097035 
L 149.573831 257.097035 
L 149.658599 256.387765 
L 150.207323 256.387765 
L 150.207323 256.033129 
L 150.879716 256.033129 
L 150.952233 254.614588 
L 151.889155 254.614588 
L 151.889155 254.259953 
L 152.328451 254.259953 
L 152.328451 253.905318 
L 153.650761 253.905318 
L 153.65646 253.196047 
L 153.956095 253.196047 
L 153.995314 252.486776 
L 154.067935 252.486776 
L 154.067935 252.132141 
L 154.322673 252.132141 
L 154.322673 251.777506 
L 155.12489 251.777506 
L 155.12489 251.422871 
L 156.609116 251.422871 
L 156.638319 250.7136 
L 157.009121 250.7136 
L 157.04247 250.004329 
L 157.213055 250.004329 
L 157.213055 249.649694 
L 157.966635 249.649694 
L 157.966635 249.295059 
L 158.370139 249.295059 
L 158.463058 248.585788 
L 158.717331 248.585788 
L 158.721685 247.876518 
L 159.088142 247.876518 
L 159.088142 247.521882 
L 159.572839 247.521882 
L 159.572839 247.167247 
L 159.750914 247.167247 
L 159.857774 246.103341 
L 159.97218 246.103341 
L 159.97218 245.748706 
L 160.35923 245.748706 
L 160.383158 245.039435 
L 160.522136 245.039435 
L 160.522136 244.6848 
L 160.963953 244.6848 
L 160.963953 244.330165 
L 161.391854 244.330165 
L 161.493569 243.620894 
L 161.613412 243.620894 
L 161.613412 243.266259 
L 161.869254 243.266259 
L 161.869254 242.911624 
L 162.081651 242.911624 
L 162.081651 242.556988 
L 162.694249 242.556988 
L 162.694249 242.202353 
L 163.146974 242.202353 
L 163.174482 241.493082 
L 164.298142 241.493082 
L 164.34663 240.783812 
L 164.459284 240.783812 
L 164.459284 240.429176 
L 164.590397 240.429176 
L 164.590397 240.074541 
L 164.897003 240.074541 
L 164.984586 238.656 
L 166.353466 238.656 
L 166.353466 238.301365 
L 166.492234 238.301365 
L 166.492234 237.946729 
L 166.609959 237.946729 
L 166.609959 237.592094 
L 166.868648 237.592094 
L 166.868648 237.237459 
L 167.129398 237.237459 
L 167.240447 236.528188 
L 167.430478 236.528188 
L 167.430478 236.173553 
L 167.610468 236.173553 
L 167.672789 235.109647 
L 168.604258 235.109647 
L 168.604258 234.755012 
L 168.920812 234.755012 
L 169.019282 234.045741 
L 169.187255 234.045741 
L 169.187255 233.691106 
L 169.469656 233.691106 
L 169.469656 233.336471 
L 169.638546 233.336471 
L 169.638546 232.981835 
L 170.362755 232.981835 
L 170.362755 232.6272 
L 170.752597 232.6272 
L 170.851093 231.917929 
L 170.899009 231.917929 
L 170.899009 231.563294 
L 171.4691 231.563294 
L 171.533103 230.854024 
L 171.664838 230.854024 
L 171.6714 230.144753 
L 171.942824 230.144753 
L 171.942824 229.790118 
L 172.086712 229.790118 
L 172.086712 229.435482 
L 172.278277 229.435482 
L 172.31213 228.726212 
L 172.507702 228.726212 
L 172.507702 228.371576 
L 173.422332 228.371576 
L 173.422332 228.016941 
L 173.779606 228.016941 
L 173.779606 227.662306 
L 174.074482 227.662306 
L 174.13022 226.953035 
L 174.404568 226.953035 
L 174.404568 226.5984 
L 174.803176 226.5984 
L 174.803176 226.243765 
L 174.941545 226.243765 
L 175.036886 225.534494 
L 175.082552 225.534494 
L 175.082552 225.179859 
L 175.40632 225.179859 
L 175.40632 224.825224 
L 176.075715 224.825224 
L 176.075715 224.470588 
L 176.297648 224.470588 
L 176.328408 223.761318 
L 176.488232 223.761318 
L 176.488232 223.406682 
L 176.760527 223.406682 
L 176.760527 223.052047 
L 177.051954 223.052047 
L 177.051954 222.697412 
L 177.316266 222.697412 
L 177.316266 222.342776 
L 177.506479 222.342776 
L 177.584904 221.633506 
L 178.609052 221.633506 
L 178.67398 220.924235 
L 178.929984 220.924235 
L 178.929984 220.5696 
L 179.43901 220.5696 
L 179.548682 219.505694 
L 179.560189 219.505694 
L 179.560189 219.151059 
L 179.700586 219.151059 
L 179.783186 218.441788 
L 180.693018 218.441788 
L 180.759244 217.377882 
L 181.176866 217.377882 
L 181.176866 217.023247 
L 181.390733 217.023247 
L 181.390733 216.668612 
L 182.416403 216.668612 
L 182.505142 215.959341 
L 182.799165 215.959341 
L 182.799165 215.604706 
L 183.189713 215.604706 
L 183.189713 215.250071 
L 183.398412 215.250071 
L 183.398412 214.895435 
L 183.661563 214.895435 
L 183.661563 214.5408 
L 184.038185 214.5408 
L 184.038185 214.186165 
L 184.887987 214.186165 
L 184.887987 213.831529 
L 185.733188 213.831529 
L 185.733188 213.476894 
L 186.192565 213.476894 
L 186.192565 213.122259 
L 186.739425 213.122259 
L 186.739425 212.767624 
L 187.498512 212.767624 
L 187.498512 212.412988 
L 187.872879 212.412988 
L 187.872879 212.058353 
L 188.011024 212.058353 
L 188.011024 211.703718 
L 188.639066 211.703718 
L 188.642616 210.994447 
L 188.856125 210.994447 
L 188.943649 210.285176 
L 189.110563 210.285176 
L 189.110563 209.930541 
L 189.308581 209.930541 
L 189.308581 209.575906 
L 190.78233 209.575906 
L 190.805281 208.866635 
L 191.148559 208.866635 
L 191.148559 208.512 
L 192.267884 208.512 
L 192.267884 208.157365 
L 192.687592 208.157365 
L 192.711907 207.448094 
L 193.725422 207.448094 
L 193.725422 207.093459 
L 193.930176 207.093459 
L 193.930176 206.738824 
L 194.147298 206.738824 
L 194.147298 206.384188 
L 194.620718 206.384188 
L 194.620718 206.029553 
L 194.875344 206.029553 
L 194.875344 205.674918 
L 195.168638 205.674918 
L 195.168638 205.320282 
L 195.316078 205.320282 
L 195.316078 204.965647 
L 196.224144 204.965647 
L 196.224144 204.611012 
L 197.445477 204.611012 
L 197.445477 204.256376 
L 197.566231 204.256376 
L 197.566231 203.901741 
L 197.983409 203.901741 
L 197.983409 203.547106 
L 198.461161 203.547106 
L 198.461161 203.192471 
L 199.108534 203.192471 
L 199.108534 202.837835 
L 199.626302 202.837835 
L 199.696936 202.128565 
L 200.379078 202.128565 
L 200.379078 201.773929 
L 201.082287 201.773929 
L 201.108375 201.064659 
L 201.588839 201.064659 
L 201.612899 200.355388 
L 201.889158 200.355388 
L 201.889158 200.000753 
L 202.283843 200.000753 
L 202.283843 199.646118 
L 202.927942 199.646118 
L 203.017414 198.936847 
L 203.211051 198.936847 
L 203.260884 197.518306 
L 203.340262 197.518306 
L 203.450024 196.809035 
L 203.704335 196.809035 
L 203.704335 196.4544 
L 203.935587 196.4544 
L 203.965081 195.745129 
L 204.268716 195.745129 
L 204.268716 195.390494 
L 204.665835 195.390494 
L 204.665835 195.035859 
L 205.122113 195.035859 
L 205.122113 194.681224 
L 205.424869 194.681224 
L 205.48513 193.971953 
L 205.541224 193.971953 
L 205.578768 193.262682 
L 205.6888 193.262682 
L 205.780362 192.553412 
L 205.856561 192.553412 
L 205.856561 192.198776 
L 206.278915 192.198776 
L 206.321258 191.489506 
L 206.465615 191.489506 
L 206.517492 190.780235 
L 207.221536 190.780235 
L 207.221536 190.4256 
L 207.588727 190.4256 
L 207.588727 190.070965 
L 207.765817 190.070965 
L 207.765817 189.716329 
L 208.204676 189.716329 
L 208.204676 189.361694 
L 208.365517 189.361694 
L 208.365517 189.007059 
L 208.478066 189.007059 
L 208.537017 188.297788 
L 209.001485 188.297788 
L 209.001485 187.943153 
L 209.205415 187.943153 
L 209.205415 187.588518 
L 209.615782 187.588518 
L 209.615782 187.233882 
L 210.204729 187.233882 
L 210.294758 186.524612 
L 210.605682 186.524612 
L 210.689694 185.815341 
L 210.754992 185.815341 
L 210.754992 185.460706 
L 210.996373 185.460706 
L 210.996373 185.106071 
L 211.284291 185.106071 
L 211.284291 184.751435 
L 212.081719 184.751435 
L 212.168045 184.042165 
L 212.217776 184.042165 
L 212.244617 183.332894 
L 212.534375 183.332894 
L 212.57768 182.623624 
L 212.665972 182.623624 
L 212.688474 181.914353 
L 212.921798 181.914353 
L 212.921798 181.559718 
L 213.664585 181.559718 
L 213.664585 181.205082 
L 213.960469 181.205082 
L 213.960469 180.850447 
L 214.50837 180.850447 
L 214.578459 179.786541 
L 215.039236 179.786541 
L 215.05319 179.077271 
L 215.481542 179.077271 
L 215.481542 178.722635 
L 215.665763 178.722635 
L 215.665763 178.368 
L 215.799875 178.368 
L 215.799875 178.013365 
L 215.984132 178.013365 
L 216.018532 177.304094 
L 216.24593 177.304094 
L 216.24593 176.949459 
L 217.538842 176.949459 
L 217.538842 176.594824 
L 217.767181 176.594824 
L 217.767181 176.240188 
L 217.905713 176.240188 
L 217.905713 175.885553 
L 218.328113 175.885553 
L 218.328113 175.530918 
L 218.448948 175.530918 
L 218.448948 175.176282 
L 218.753055 175.176282 
L 218.825244 174.467012 
L 219.559068 174.467012 
L 219.559068 174.112376 
L 219.701403 174.112376 
L 219.701403 173.757741 
L 219.833883 173.757741 
L 219.833883 173.403106 
L 220.00618 173.403106 
L 220.00618 173.048471 
L 220.215215 173.048471 
L 220.310547 171.629929 
L 220.595627 171.629929 
L 220.595627 171.275294 
L 220.789735 171.275294 
L 220.789735 170.920659 
L 221.257647 170.920659 
L 221.257647 170.566024 
L 221.736519 170.566024 
L 221.736519 170.211388 
L 221.851813 170.211388 
L 221.936198 169.147482 
L 222.513736 169.147482 
L 222.513736 168.792847 
L 222.732634 168.792847 
L 222.732634 168.438212 
L 222.921348 168.438212 
L 222.930813 167.728941 
L 223.507286 167.728941 
L 223.507286 167.374306 
L 224.197357 167.374306 
L 224.197357 167.019671 
L 224.592873 167.019671 
L 224.592873 166.665035 
L 225.00697 166.665035 
L 225.00697 166.3104 
L 225.160795 166.3104 
L 225.227915 165.246494 
L 225.291128 165.246494 
L 225.300105 164.537224 
L 225.467605 164.537224 
L 225.467605 164.182588 
L 226.270958 164.182588 
L 226.318557 163.473318 
L 226.568712 163.473318 
L 226.568712 163.118682 
L 228.125462 163.118682 
L 228.125462 162.764047 
L 228.511447 162.764047 
L 228.511447 162.409412 
L 228.69312 162.409412 
L 228.797006 161.700141 
L 228.818826 161.700141 
L 228.818826 161.345506 
L 229.321377 161.345506 
L 229.42186 160.636235 
L 230.262684 160.636235 
L 230.262684 160.2816 
L 230.446653 160.2816 
L 230.446653 159.926965 
L 230.849604 159.926965 
L 230.849604 159.572329 
L 231.704661 159.572329 
L 231.704661 159.217694 
L 232.060285 159.217694 
L 232.060285 158.863059 
L 232.385214 158.863059 
L 232.385214 158.508424 
L 232.656041 158.508424 
L 232.656041 158.153788 
L 233.10689 158.153788 
L 233.10689 157.799153 
L 233.607592 157.799153 
L 233.607592 157.444518 
L 233.741712 157.444518 
L 233.824491 156.735247 
L 233.8885 156.735247 
L 233.8885 156.380612 
L 235.189176 156.380612 
L 235.189176 156.025976 
L 235.576204 156.025976 
L 235.576204 155.671341 
L 236.037039 155.671341 
L 236.037039 155.316706 
L 237.191776 155.316706 
L 237.191776 154.962071 
L 237.668958 154.962071 
L 237.70632 154.2528 
L 237.812242 154.2528 
L 237.812242 153.898165 
L 238.008745 153.898165 
L 238.008745 153.543529 
L 238.400613 153.543529 
L 238.400613 153.188894 
L 238.892809 153.188894 
L 238.892809 152.834259 
L 239.948522 152.834259 
L 239.948522 152.479624 
L 240.310893 152.479624 
L 240.310893 152.124988 
L 240.603201 152.124988 
L 240.603201 151.770353 
L 242.188943 151.770353 
L 242.188943 151.415718 
L 242.942443 151.415718 
L 242.942443 151.061082 
L 243.176234 151.061082 
L 243.176234 150.706447 
L 243.349908 150.706447 
L 243.349908 150.351812 
L 243.778342 150.351812 
L 243.778342 149.997176 
L 244.367371 149.997176 
L 244.464512 149.287906 
L 244.899624 149.287906 
L 244.90007 148.578635 
L 245.131378 148.578635 
L 245.131378 148.224 
L 245.904201 148.224 
L 245.904201 147.869365 
L 246.987874 147.869365 
L 246.987874 147.514729 
L 247.419766 147.514729 
L 247.419766 147.160094 
L 247.641477 147.160094 
L 247.641477 146.805459 
L 247.890947 146.805459 
L 247.890947 146.450824 
L 249.260991 146.450824 
L 249.260991 146.096188 
L 249.398489 146.096188 
L 249.398489 145.741553 
L 249.753548 145.741553 
L 249.861215 145.032282 
L 249.919633 145.032282 
L 249.919633 144.677647 
L 250.185886 144.677647 
L 250.185886 144.323012 
L 250.518948 144.323012 
L 250.518948 143.968376 
L 251.30271 143.968376 
L 251.30271 143.613741 
L 251.445205 143.613741 
L 251.445205 143.259106 
L 251.854066 143.259106 
L 251.854066 142.904471 
L 254.093021 142.904471 
L 254.093021 142.549835 
L 254.580602 142.549835 
L 254.580602 142.1952 
L 255.499321 142.1952 
L 255.499321 141.840565 
L 255.955223 141.840565 
L 255.955223 141.485929 
L 256.205533 141.485929 
L 256.236827 140.776659 
L 256.38269 140.776659 
L 256.38269 140.422024 
L 257.607388 140.422024 
L 257.713725 139.358118 
L 258.136957 139.358118 
L 258.136957 139.003482 
L 259.12609 139.003482 
L 259.173967 138.294212 
L 259.536957 138.294212 
L 259.536957 137.939576 
L 260.51407 137.939576 
L 260.51407 137.584941 
L 260.826313 137.584941 
L 260.826313 137.230306 
L 261.25663 137.230306 
L 261.25663 136.875671 
L 261.492941 136.875671 
L 261.492941 136.521035 
L 263.46833 136.521035 
L 263.46833 136.1664 
L 263.798178 136.1664 
L 263.798178 135.811765 
L 264.062796 135.811765 
L 264.062796 135.457129 
L 264.32803 135.457129 
L 264.32803 135.102494 
L 264.797306 135.102494 
L 264.797306 134.747859 
L 264.96967 134.747859 
L 264.96967 134.393224 
L 266.122465 134.393224 
L 266.122465 134.038588 
L 266.583285 134.038588 
L 266.583285 133.683953 
L 268.192083 133.683953 
L 268.192083 133.329318 
L 268.513335 133.329318 
L 268.513335 132.974682 
L 268.82643 132.974682 
L 268.82643 132.620047 
L 269.155267 132.620047 
L 269.155267 132.265412 
L 269.746328 132.265412 
L 269.823267 131.556141 
L 270.788013 131.556141 
L 270.884986 130.492235 
L 270.901762 130.492235 
L 270.901762 130.1376 
L 271.09927 130.1376 
L 271.09927 129.782965 
L 271.259173 129.782965 
L 271.259173 129.428329 
L 272.263438 129.428329 
L 272.263438 129.073694 
L 272.909999 129.073694 
L 273.0175 128.364424 
L 274.056847 128.364424 
L 274.056847 128.009788 
L 286.283189 128.009788 
L 286.283189 127.655153 
L 286.592822 127.655153 
L 286.592822 127.300518 
L 287.155692 127.300518 
L 287.155692 126.945882 
L 293.919681 126.945882 
L 293.919681 126.591247 
L 294.429997 126.591247 
L 294.429997 125.881976 
L 294.802969 125.881976 
L 294.802969 125.527341 
L 304.20555 125.527341 
L 304.20555 125.172706 
L 307.861971 125.172706 
L 307.861971 124.818071 
L 310.391584 124.818071 
L 310.391584 124.1088 
L 312.952712 124.1088 
L 312.952712 123.754165 
L 337.515966 123.754165 
L 337.515966 123.399529 
L 360.8064 123.399529 
L 360.8064 123.399529 
" style="fill: none; stroke: #000080; stroke-width: 1.5; stroke-linecap: square"/>
   </g>
   <g id="line2d_36">
    <defs>
     <path id="ma53e248e18" d="M 0 6 
C 1.591219 6 3.117479 5.367802 4.242641 4.242641 
C 5.367802 3.117479 6 1.591219 6 0 
C 6 -1.591219 5.367802 -3.117479 4.242641 -4.242641 
C 3.117479 -5.367802 1.591219 -6 0 -6 
C -1.591219 -6 -3.117479 -5.367802 -4.242641 -4.242641 
C -5.367802 -3.117479 -6 -1.591219 -6 0 
C -6 1.591219 -5.367802 3.117479 -4.242641 4.242641 
C -3.117479 5.367802 -1.591219 6 0 6 
z
" style="stroke: #000080; stroke-width: 1.5"/>
    </defs>
    <g>
     <use xlink:href="#ma53e248e18" x="84.818792" y="286.531765" style="fill-opacity: 0; stroke: #000080; stroke-width: 1.5"/>
     <use xlink:href="#ma53e248e18" x="176.297648" y="224.115953" style="fill-opacity: 0; stroke: #000080; stroke-width: 1.5"/>
     <use xlink:href="#ma53e248e18" x="221.936198" y="169.147482" style="fill-opacity: 0; stroke: #000080; stroke-width: 1.5"/>
     <use xlink:href="#ma53e248e18" x="312.952712" y="123.754165" style="fill-opacity: 0; stroke: #000080; stroke-width: 1.5"/>
     <use xlink:href="#ma53e248e18" x="337.515966" y="123.399529" style="fill-opacity: 0; stroke: #000080; stroke-width: 1.5"/>
     <use xlink:href="#ma53e248e18" x="360.8064" y="123.399529" style="fill-opacity: 0; stroke: #000080; stroke-width: 1.5"/>
    </g>
   </g>
   <g id="line2d_37">
    <path style="fill: none; stroke: #000080; stroke-width: 1.5; stroke-linecap: square"/>
    <g/>
   </g>
   <g id="line2d_38">
    <path d="M 274.176 128.009788 
" clip-path="url(#p380b8a8573)" style="fill: none; stroke: #000080; stroke-width: 1.5; stroke-linecap: square"/>
    <defs>
     <path id="mdd875af1a5" d="M -12 12 
L 12 -12 
M -12 -12 
L 12 12 
" style="stroke: #000080"/>
    </defs>
    <g clip-path="url(#p380b8a8573)">
     <use xlink:href="#mdd875af1a5" x="274.176" y="128.009788" style="fill: #000080; stroke: #000080"/>
    </g>
   </g>
   <g id="line2d_39">
    <defs>
     <path id="m5020709a25" d="M 0 1.5 
C 0.397805 1.5 0.77937 1.341951 1.06066 1.06066 
C 1.341951 0.77937 1.5 0.397805 1.5 0 
C 1.5 -0.397805 1.341951 -0.77937 1.06066 -1.06066 
C 0.77937 -1.341951 0.397805 -1.5 0 -1.5 
C -0.397805 -1.5 -0.77937 -1.341951 -1.06066 -1.06066 
C -1.341951 -0.77937 -1.5 -0.397805 -1.5 0 
C -1.5 0.397805 -1.341951 0.77937 -1.06066 1.06066 
C -0.77937 1.341951 -0.397805 1.5 0 1.5 
z
" style="stroke: #ff00ff"/>
    </defs>
    <g>
     <use xlink:href="#m5020709a25" x="340.474747" y="123.399529" style="fill: #ff00ff; stroke: #ff00ff"/>
     <use xlink:href="#m5020709a25" x="340.474747" y="123.399529" style="fill: #ff00ff; stroke: #ff00ff"/>
    </g>
   </g>
   <g id="line2d_40">
    <path d="M 1.245626 298.944 
L 1.245626 298.234729 
L 14.2848 298.234729 
L 14.2848 297.525459 
L 21.912228 297.525459 
L 21.912228 296.816188 
L 27.323974 296.816188 
L 27.323974 295.752282 
L 31.521651 295.752282 
L 31.521651 294.333741 
L 34.951403 294.333741 
L 34.951403 293.979106 
L 37.851216 293.979106 
L 37.851216 293.624471 
L 44.560826 293.624471 
L 44.560826 293.269835 
L 46.353758 293.269835 
L 46.353758 292.9152 
L 50.890391 292.9152 
L 50.890391 292.560565 
L 53.402323 292.560565 
L 53.402323 291.496659 
L 54.542767 291.496659 
L 54.542767 291.142024 
L 56.635094 291.142024 
L 56.635094 290.787388 
L 57.6 290.787388 
L 57.6 290.432753 
L 58.517819 290.432753 
L 58.517819 290.078118 
L 61.797677 290.078118 
L 61.797677 289.723482 
L 69.172597 289.723482 
L 69.172597 289.368847 
L 69.674268 289.368847 
L 69.674268 289.014212 
L 72.432107 289.014212 
L 72.432107 288.304941 
L 72.854856 288.304941 
L 72.854856 287.950306 
L 73.268314 287.950306 
L 73.268314 287.595671 
L 74.836851 287.595671 
L 74.836851 287.241035 
L 75.209369 287.241035 
L 75.209369 286.8864 
L 75.574654 286.8864 
L 75.574654 286.531765 
L 77.301696 286.531765 
L 77.301696 285.467859 
L 78.88343 285.467859 
L 78.88343 285.113224 
L 79.480672 285.113224 
L 79.480672 284.758588 
L 83.202082 284.758588 
L 83.202082 284.403953 
L 85.25629 284.403953 
L 85.25629 284.049318 
L 87.1081 284.049318 
L 87.1081 283.694682 
L 87.495981 283.694682 
L 87.495981 283.340047 
L 88.972154 283.340047 
L 88.972154 282.985412 
L 90.340871 282.985412 
L 90.340871 282.630776 
L 91.616719 282.630776 
L 91.616719 282.276141 
L 91.922605 282.276141 
L 91.922605 281.921506 
L 93.098709 281.921506 
L 93.098709 281.566871 
L 94.339481 281.566871 
L 94.339481 281.212235 
L 95.250946 281.212235 
L 95.250946 280.8576 
L 96.361458 280.8576 
L 96.361458 280.502965 
L 96.83473 280.502965 
L 96.83473 280.148329 
L 97.523034 280.148329 
L 97.523034 279.793694 
L 98.723018 279.793694 
L 98.723018 279.439059 
L 99.14107 279.439059 
L 99.14107 279.084424 
L 101.009023 279.084424 
L 101.009023 278.375153 
L 101.743226 278.375153 
L 101.743226 278.020518 
L 102.793446 278.020518 
L 102.793446 277.665882 
L 103.625951 277.665882 
L 103.625951 277.311247 
L 103.868684 277.311247 
L 103.868684 276.956612 
L 104.028784 276.956612 
L 104.028784 276.247341 
L 104.809458 276.247341 
L 104.809458 275.892706 
L 107.31183 275.892706 
L 107.378656 275.183435 
L 108.915146 275.183435 
L 108.915146 274.8288 
L 109.159456 274.8288 
L 109.159456 274.474165 
L 109.756698 274.474165 
L 109.756698 274.119529 
L 109.873904 274.119529 
L 109.873904 273.764894 
L 111.171767 273.764894 
L 111.280505 273.055624 
L 111.442442 273.055624 
L 111.442442 272.700988 
L 112.639708 272.700988 
L 112.639708 272.346353 
L 112.989468 272.346353 
L 113.088217 271.637082 
L 114.372943 271.637082 
L 114.372943 271.282447 
L 114.692177 271.282447 
L 114.692177 270.927812 
L 115.139028 270.927812 
L 115.139028 270.573176 
L 115.314838 270.573176 
L 115.314838 270.218541 
L 115.959869 270.218541 
L 115.959869 269.863906 
L 117.266185 269.863906 
L 117.266185 269.509271 
L 119.842094 269.509271 
L 119.842094 269.154635 
L 120.682786 269.154635 
L 120.682786 268.8 
L 121.455972 268.8 
L 121.518993 268.090729 
L 121.706797 268.090729 
L 121.706797 267.736094 
L 122.015696 267.736094 
L 122.015696 267.381459 
L 123.51671 267.381459 
L 123.51671 267.026824 
L 123.936316 267.026824 
L 123.936316 266.672188 
L 124.101572 266.672188 
L 124.101572 266.317553 
L 124.400822 266.317553 
L 124.400822 265.962918 
L 124.615507 265.962918 
L 124.615507 265.608282 
L 126.733095 265.608282 
L 126.733095 265.253647 
L 127.087372 265.253647 
L 127.087372 264.899012 
L 127.640693 264.899012 
L 127.640693 264.544376 
L 128.956723 264.544376 
L 128.956723 264.189741 
L 129.724648 264.189741 
L 129.765278 263.480471 
L 130.226319 263.480471 
L 130.226319 263.125835 
L 130.598837 263.125835 
L 130.598837 262.7712 
L 130.964122 262.7712 
L 130.964122 262.416565 
L 131.153565 262.416565 
L 131.153565 262.061929 
L 131.692402 262.061929 
L 131.692402 261.707294 
L 131.892817 261.707294 
L 131.983214 260.998024 
L 133.01833 260.998024 
L 133.01833 260.643388 
L 135.054871 260.643388 
L 135.054871 260.288753 
L 135.283261 260.288753 
L 135.283261 259.934118 
L 136.399653 259.934118 
L 136.399653 259.579482 
L 136.668697 259.579482 
L 136.668697 259.224847 
L 136.822719 259.224847 
L 136.822719 258.870212 
L 137.466966 258.870212 
L 137.466966 258.515576 
L 138.730661 258.515576 
L 138.730661 258.160941 
L 139.178873 258.160941 
L 139.277041 257.451671 
L 139.459738 257.451671 
L 139.459738 257.097035 
L 139.77227 257.097035 
L 139.77227 256.7424 
L 140.009194 256.7424 
L 140.009194 256.387765 
L 140.28962 256.387765 
L 140.28962 256.033129 
L 140.577352 256.033129 
L 140.577352 255.678494 
L 141.073312 255.678494 
L 141.073312 255.323859 
L 141.707715 255.323859 
L 141.707715 254.969224 
L 142.311006 254.969224 
L 142.311006 254.614588 
L 142.620923 254.614588 
L 142.620923 253.905318 
L 142.895549 253.905318 
L 142.895549 253.196047 
L 143.096422 253.196047 
L 143.166224 252.486776 
L 143.936538 252.486776 
L 143.936538 252.132141 
L 144.145557 252.132141 
L 144.145557 251.777506 
L 145.094395 251.777506 
L 145.094395 251.422871 
L 145.219746 251.422871 
L 145.219746 251.068235 
L 145.712961 251.068235 
L 145.712961 250.7136 
L 146.083092 250.7136 
L 146.083092 250.358965 
L 146.218978 250.358965 
L 146.218978 250.004329 
L 146.487839 250.004329 
L 146.487839 249.649694 
L 147.343984 249.649694 
L 147.359919 248.940424 
L 147.494826 248.940424 
L 147.526429 248.231153 
L 147.901578 248.231153 
L 147.901578 247.876518 
L 148.03267 247.876518 
L 148.139946 247.167247 
L 148.495677 247.167247 
L 148.495677 246.812612 
L 149.252502 246.812612 
L 149.281288 246.103341 
L 149.587985 246.103341 
L 149.587985 245.748706 
L 149.742988 245.748706 
L 149.742988 245.394071 
L 150.049213 245.394071 
L 150.049213 245.039435 
L 150.262008 245.039435 
L 150.268832 244.330165 
L 150.833423 244.330165 
L 150.939069 243.620894 
L 151.155108 243.620894 
L 151.155108 243.266259 
L 151.32359 243.266259 
L 151.32359 242.911624 
L 151.592605 242.911624 
L 151.592605 242.556988 
L 152.456442 242.556988 
L 152.456442 241.847718 
L 152.649817 241.847718 
L 152.745764 240.783812 
L 152.876897 240.783812 
L 152.876897 240.429176 
L 153.066018 240.429176 
L 153.066018 240.074541 
L 153.484716 240.074541 
L 153.593669 239.365271 
L 153.770091 239.365271 
L 153.775755 238.656 
L 154.106923 238.656 
L 154.190197 237.592094 
L 154.497869 237.592094 
L 154.497869 237.237459 
L 154.757642 237.237459 
L 154.854139 236.528188 
L 154.902202 236.528188 
L 154.902202 236.173553 
L 155.240492 236.173553 
L 155.30847 235.464282 
L 155.593381 235.464282 
L 155.634465 234.755012 
L 156.363979 234.755012 
L 156.398491 234.045741 
L 156.711129 234.045741 
L 156.711129 233.691106 
L 156.951812 233.691106 
L 156.951812 233.336471 
L 157.410135 233.336471 
L 157.410135 232.981835 
L 157.545018 232.981835 
L 157.545018 232.6272 
L 157.738668 232.6272 
L 157.807349 231.917929 
L 158.59939 231.917929 
L 158.638786 231.208659 
L 158.726038 231.208659 
L 158.778196 230.499388 
L 159.300416 230.499388 
L 159.300416 230.144753 
L 159.552023 230.144753 
L 159.552023 229.790118 
L 159.750914 229.790118 
L 159.750914 229.435482 
L 160.053475 229.435482 
L 160.053475 229.080847 
L 160.339266 229.080847 
L 160.438872 227.307671 
L 160.502345 227.307671 
L 160.526092 226.5984 
L 160.72674 226.5984 
L 160.72674 226.243765 
L 160.956223 226.243765 
L 161.060314 225.179859 
L 161.110227 225.179859 
L 161.110227 224.825224 
L 161.493569 224.825224 
L 161.51985 224.115953 
L 161.669327 224.115953 
L 161.773258 223.406682 
L 162.694249 223.406682 
L 162.792684 222.342776 
L 162.817213 222.342776 
L 162.817213 221.988141 
L 162.935898 221.988141 
L 162.935898 221.633506 
L 163.22595 221.633506 
L 163.22595 221.278871 
L 163.352305 221.278871 
L 163.352305 220.924235 
L 163.609214 220.924235 
L 163.669551 220.214965 
L 163.912284 220.214965 
L 163.912284 219.860329 
L 164.151925 219.860329 
L 164.151925 219.505694 
L 164.330481 219.505694 
L 164.411086 218.796424 
L 164.481734 218.796424 
L 164.520157 218.087153 
L 165.031338 218.087153 
L 165.031338 217.732518 
L 165.315571 217.732518 
L 165.364567 217.023247 
L 165.428682 217.023247 
L 165.519897 216.313976 
L 165.652884 216.313976 
L 165.652884 215.959341 
L 165.793908 215.959341 
L 165.796897 215.250071 
L 165.999046 215.250071 
L 165.999046 214.895435 
L 166.15511 214.895435 
L 166.15511 214.5408 
L 166.277871 214.5408 
L 166.277871 214.186165 
L 166.399836 214.186165 
L 166.480709 212.767624 
L 166.724107 212.767624 
L 166.749695 212.058353 
L 166.91095 212.058353 
L 166.981242 210.994447 
L 167.062453 210.994447 
L 167.112684 210.285176 
L 167.485202 210.285176 
L 167.485202 209.930541 
L 167.621321 209.930541 
L 167.664672 209.221271 
L 167.810248 209.221271 
L 167.820987 208.157365 
L 168.451748 208.157365 
L 168.451748 207.802729 
L 168.755541 207.802729 
L 168.781062 207.093459 
L 168.971374 207.093459 
L 169.059531 206.029553 
L 169.102202 206.029553 
L 169.18975 204.965647 
L 169.454898 204.965647 
L 169.454898 204.611012 
L 169.638546 204.611012 
L 169.638546 204.256376 
L 169.875843 204.256376 
L 169.921505 203.547106 
L 170.287574 203.547106 
L 170.287574 202.837835 
L 170.600407 202.837835 
L 170.600407 202.4832 
L 170.780136 202.4832 
L 170.780136 202.128565 
L 171.215367 202.128565 
L 171.309246 201.064659 
L 171.409314 201.064659 
L 171.497818 200.355388 
L 171.621029 200.355388 
L 171.621029 200.000753 
L 172.290979 200.000753 
L 172.360687 198.936847 
L 172.624492 198.936847 
L 172.624492 198.582212 
L 172.913335 198.582212 
L 172.929707 197.872941 
L 173.068298 197.872941 
L 173.110892 197.163671 
L 173.707122 197.163671 
L 173.707122 196.809035 
L 173.830374 196.809035 
L 173.830374 196.4544 
L 174.059077 196.4544 
L 174.153236 195.745129 
L 174.368598 195.745129 
L 174.391324 195.035859 
L 174.693607 195.035859 
L 174.693607 194.681224 
L 174.810582 194.681224 
L 174.810582 194.326588 
L 175.622065 194.326588 
L 175.622065 193.971953 
L 175.733424 193.971953 
L 175.733424 193.617318 
L 176.101656 193.617318 
L 176.101656 193.262682 
L 176.345475 193.262682 
L 176.345475 192.908047 
L 176.616467 192.908047 
L 176.616467 192.553412 
L 176.743833 192.553412 
L 176.743833 192.198776 
L 177.10282 192.198776 
L 177.10282 191.844141 
L 177.87494 191.844141 
L 177.87494 191.489506 
L 178.026881 191.489506 
L 178.026881 191.134871 
L 178.251744 191.134871 
L 178.251744 190.780235 
L 178.429719 190.780235 
L 178.429719 190.4256 
L 178.621149 190.4256 
L 178.648337 189.716329 
L 178.822617 189.716329 
L 178.931471 189.007059 
L 179.175214 189.007059 
L 179.175214 188.652424 
L 179.38103 188.652424 
L 179.38103 188.297788 
L 179.613319 188.297788 
L 179.613319 187.943153 
L 179.808747 187.943153 
L 179.808747 187.588518 
L 180.242216 187.588518 
L 180.242216 187.233882 
L 180.641498 187.233882 
L 180.641498 186.879247 
L 180.776776 186.879247 
L 180.807752 186.169976 
L 181.053746 186.169976 
L 181.053746 185.815341 
L 181.57896 185.815341 
L 181.629267 185.106071 
L 181.723072 185.106071 
L 181.723072 184.751435 
L 182.252618 184.751435 
L 182.252618 184.3968 
L 182.556714 184.3968 
L 182.628923 183.687529 
L 182.952276 183.687529 
L 182.952276 183.332894 
L 183.164798 183.332894 
L 183.164798 182.978259 
L 183.29612 182.978259 
L 183.29612 182.623624 
L 183.45578 182.623624 
L 183.45578 182.268988 
L 183.586255 182.268988 
L 183.586255 181.914353 
L 183.975746 181.914353 
L 183.975746 181.559718 
L 184.223144 181.559718 
L 184.223144 181.205082 
L 184.41297 181.205082 
L 184.437396 180.495812 
L 184.649235 180.495812 
L 184.663492 179.786541 
L 185.113046 179.786541 
L 185.113046 179.431906 
L 185.97604 179.431906 
L 185.97604 179.077271 
L 186.475451 179.077271 
L 186.475451 178.722635 
L 186.624207 178.722635 
L 186.705032 178.013365 
L 187.335624 178.013365 
L 187.335624 177.658729 
L 187.566281 177.658729 
L 187.566281 177.304094 
L 187.820117 177.304094 
L 187.820117 176.949459 
L 188.20183 176.949459 
L 188.289732 176.240188 
L 189.343662 176.240188 
L 189.343662 175.885553 
L 189.684206 175.885553 
L 189.684206 175.530918 
L 189.877969 175.530918 
L 189.877969 175.176282 
L 190.032709 175.176282 
L 190.032709 174.821647 
L 190.638448 174.821647 
L 190.638448 174.467012 
L 190.807654 174.467012 
L 190.912542 173.403106 
L 191.723702 173.403106 
L 191.723702 173.048471 
L 192.354035 173.048471 
L 192.38824 172.3392 
L 192.79463 172.3392 
L 192.79463 171.984565 
L 193.682709 171.984565 
L 193.682709 171.629929 
L 193.910739 171.629929 
L 194.013058 170.920659 
L 195.147929 170.920659 
L 195.209988 170.211388 
L 195.538168 170.211388 
L 195.600793 169.502118 
L 196.26324 169.502118 
L 196.26324 169.147482 
L 196.711142 169.147482 
L 196.711142 168.792847 
L 196.855618 168.792847 
L 196.855618 168.438212 
L 197.496532 168.438212 
L 197.496532 168.083576 
L 198.130264 168.083576 
L 198.130264 167.728941 
L 198.292456 167.728941 
L 198.292456 167.374306 
L 199.173533 167.374306 
L 199.173533 167.019671 
L 199.40829 167.019671 
L 199.40829 166.665035 
L 200.046181 166.665035 
L 200.046181 166.3104 
L 200.298554 166.3104 
L 200.298554 165.955765 
L 200.966051 165.955765 
L 200.966051 165.601129 
L 201.401546 165.601129 
L 201.401546 165.246494 
L 201.867206 165.246494 
L 201.890035 164.537224 
L 202.590692 164.537224 
L 202.590692 164.182588 
L 203.531826 164.182588 
L 203.531826 163.827953 
L 204.069704 163.827953 
L 204.069704 163.473318 
L 204.49623 163.473318 
L 204.562581 162.764047 
L 205.144269 162.764047 
L 205.144269 162.409412 
L 205.775009 162.409412 
L 205.775009 162.054776 
L 206.612286 162.054776 
L 206.612286 161.700141 
L 206.777459 161.700141 
L 206.777459 161.345506 
L 208.48672 161.345506 
L 208.48672 160.990871 
L 209.486139 160.990871 
L 209.557786 159.926965 
L 209.655314 159.926965 
L 209.655314 159.572329 
L 209.929166 159.572329 
L 209.929166 159.217694 
L 210.652555 159.217694 
L 210.652555 158.863059 
L 211.882607 158.863059 
L 211.882607 158.508424 
L 212.077124 158.508424 
L 212.077124 158.153788 
L 213.04369 158.153788 
L 213.04369 157.799153 
L 213.8337 157.799153 
L 213.8337 157.444518 
L 214.477385 157.444518 
L 214.5505 156.735247 
L 214.848303 156.735247 
L 214.848303 156.380612 
L 216.799405 156.380612 
L 216.799405 156.025976 
L 217.442541 156.025976 
L 217.442541 155.671341 
L 217.924993 155.671341 
L 217.924993 155.316706 
L 218.535174 155.316706 
L 218.535174 154.962071 
L 218.869065 154.962071 
L 218.869065 154.607435 
L 219.161429 154.607435 
L 219.161429 154.2528 
L 219.297578 154.2528 
L 219.297578 153.898165 
L 221.249025 153.898165 
L 221.249025 153.543529 
L 223.008362 153.543529 
L 223.008362 153.188894 
L 223.945155 153.188894 
L 223.945155 152.834259 
L 224.436166 152.834259 
L 224.436166 152.479624 
L 224.821818 152.479624 
L 224.821818 152.124988 
L 225.643932 152.124988 
L 225.643932 151.770353 
L 226.161274 151.770353 
L 226.161274 151.415718 
L 226.334477 151.415718 
L 226.334477 151.061082 
L 227.57355 151.061082 
L 227.57355 150.706447 
L 227.966081 150.706447 
L 227.966081 150.351812 
L 228.267209 150.351812 
L 228.267209 149.997176 
L 229.080674 149.997176 
L 229.080674 149.642541 
L 229.996119 149.642541 
L 229.996119 149.287906 
L 230.804847 149.287906 
L 230.804847 148.933271 
L 231.059246 148.933271 
L 231.059246 148.578635 
L 232.096696 148.578635 
L 232.096696 148.224 
L 232.790473 148.224 
L 232.830328 147.514729 
L 233.50441 147.514729 
L 233.557132 146.805459 
L 235.734969 146.805459 
L 235.734969 146.450824 
L 236.92671 146.450824 
L 236.999199 145.741553 
L 237.130409 145.741553 
L 237.130409 145.386918 
L 237.964696 145.386918 
L 237.964696 145.032282 
L 238.643471 145.032282 
L 238.701281 144.323012 
L 240.112816 144.323012 
L 240.125063 143.613741 
L 242.146402 143.613741 
L 242.224552 142.904471 
L 243.946194 142.904471 
L 243.946194 142.549835 
L 244.612844 142.549835 
L 244.612844 142.1952 
L 246.444805 142.1952 
L 246.444805 141.840565 
L 246.661879 141.840565 
L 246.661879 141.485929 
L 246.817288 141.485929 
L 246.928395 140.422024 
L 247.717184 140.422024 
L 247.717184 140.067388 
L 249.237811 140.067388 
L 249.237811 139.712753 
L 249.810893 139.712753 
L 249.810893 139.358118 
L 250.316108 139.358118 
L 250.316108 139.003482 
L 250.487861 139.003482 
L 250.487861 138.648847 
L 252.2424 138.648847 
L 252.2424 138.294212 
L 252.64836 138.294212 
L 252.64836 137.939576 
L 253.877101 137.939576 
L 253.877101 137.584941 
L 254.704964 137.584941 
L 254.704964 137.230306 
L 255.792429 137.230306 
L 255.792429 136.875671 
L 256.445219 136.875671 
L 256.445219 136.521035 
L 256.631357 136.521035 
L 256.631357 136.1664 
L 257.642054 136.1664 
L 257.642054 135.811765 
L 257.860304 135.811765 
L 257.860304 135.457129 
L 258.519879 135.457129 
L 258.519879 135.102494 
L 259.203969 135.102494 
L 259.203969 134.747859 
L 259.807306 134.747859 
L 259.840205 134.038588 
L 262.053981 134.038588 
L 262.053981 133.683953 
L 262.242961 133.683953 
L 262.242961 133.329318 
L 264.11295 133.329318 
L 264.11295 132.974682 
L 264.437432 132.974682 
L 264.437432 132.620047 
L 265.369129 132.620047 
L 265.369129 132.265412 
L 265.77415 132.265412 
L 265.77415 131.910776 
L 266.164501 131.910776 
L 266.164501 131.556141 
L 267.506966 131.556141 
L 267.506966 131.201506 
L 268.192393 131.201506 
L 268.192393 130.846871 
L 269.039104 130.846871 
L 269.039104 130.492235 
L 269.642796 130.492235 
L 269.642796 130.1376 
L 270.640263 130.1376 
L 270.640263 129.782965 
L 271.424044 129.782965 
L 271.424044 129.428329 
L 271.607612 129.428329 
L 271.607612 129.073694 
L 272.854594 129.073694 
L 272.854594 128.719059 
L 283.322481 128.719059 
L 283.322481 128.364424 
L 286.566072 128.364424 
L 286.566072 127.655153 
L 294.412366 127.655153 
L 294.412366 127.300518 
L 307.667889 127.300518 
L 307.667889 126.945882 
L 313.133335 126.945882 
L 313.133335 126.591247 
L 315.366883 126.591247 
L 315.366883 126.236612 
L 319.167768 126.236612 
L 319.167768 125.172706 
L 325.033364 125.172706 
L 325.033364 124.463435 
L 328.477353 124.463435 
L 328.477353 124.1088 
L 332.265214 124.1088 
L 332.265214 123.754165 
L 340.474747 123.754165 
L 340.474747 123.399529 
L 360.8064 123.399529 
L 360.8064 123.399529 
" style="fill: none; stroke: #ff00ff; stroke-width: 1.5; stroke-linecap: square"/>
   </g>
   <g id="line2d_41">
    <defs>
     <path id="ma4904be780" d="M 0 8.485281 
L 5.091169 0 
L 0 -8.485281 
L -5.091169 0 
z
" style="stroke: #ff00ff; stroke-width: 1.5; stroke-linejoin: miter"/>
    </defs>
    <g>
     <use xlink:href="#ma4904be780" x="127.087372" y="265.253647" style="fill-opacity: 0; stroke: #ff00ff; stroke-width: 1.5; stroke-linejoin: miter"/>
     <use xlink:href="#ma4904be780" x="201.890035" y="164.891859" style="fill-opacity: 0; stroke: #ff00ff; stroke-width: 1.5; stroke-linejoin: miter"/>
     <use xlink:href="#ma4904be780" x="272.854594" y="128.719059" style="fill-opacity: 0; stroke: #ff00ff; stroke-width: 1.5; stroke-linejoin: miter"/>
     <use xlink:href="#ma4904be780" x="340.474747" y="123.399529" style="fill-opacity: 0; stroke: #ff00ff; stroke-width: 1.5; stroke-linejoin: miter"/>
     <use xlink:href="#ma4904be780" x="340.474747" y="123.399529" style="fill-opacity: 0; stroke: #ff00ff; stroke-width: 1.5; stroke-linejoin: miter"/>
     <use xlink:href="#ma4904be780" x="360.8064" y="123.399529" style="fill-opacity: 0; stroke: #ff00ff; stroke-width: 1.5; stroke-linejoin: miter"/>
    </g>
   </g>
   <g id="line2d_42">
    <path style="fill: none; stroke: #ff00ff; stroke-width: 1.5; stroke-linecap: square"/>
    <g/>
   </g>
   <g id="line2d_43">
    <path d="M 274.176 128.719059 
" clip-path="url(#p380b8a8573)" style="fill: none; stroke: #ff00ff; stroke-width: 1.5; stroke-linecap: square"/>
    <defs>
     <path id="m2090da3362" d="M -12 12 
L 12 -12 
M -12 -12 
L 12 12 
" style="stroke: #ff00ff"/>
    </defs>
    <g clip-path="url(#p380b8a8573)">
     <use xlink:href="#m2090da3362" x="274.176" y="128.719059" style="fill: #ff00ff; stroke: #ff00ff"/>
    </g>
   </g>
   <g id="line2d_44">
    <path d="M 360.8064 123.399529 
L 380.514816 293.51808 
" style="fill: none; stroke: #ff00ff; stroke-width: 1.5; stroke-linecap: square"/>
    <g>
     <use xlink:href="#ma4904be780" x="360.8064" y="123.399529" style="fill-opacity: 0; stroke: #ff00ff; stroke-width: 1.5; stroke-linejoin: miter"/>
     <use xlink:href="#ma4904be780" x="380.514816" y="293.51808" style="fill-opacity: 0; stroke: #ff00ff; stroke-width: 1.5; stroke-linejoin: miter"/>
    </g>
   </g>
   <g id="line2d_45">
    <path d="M 360.8064 123.399529 
L 380.514816 163.296 
" style="fill: none; stroke: #000080; stroke-width: 1.5; stroke-linecap: square"/>
    <g>
     <use xlink:href="#ma53e248e18" x="360.8064" y="123.399529" style="fill-opacity: 0; stroke: #000080; stroke-width: 1.5"/>
     <use xlink:href="#ma53e248e18" x="380.514816" y="163.296" style="fill-opacity: 0; stroke: #000080; stroke-width: 1.5"/>
    </g>
   </g>
   <g id="line2d_46">
    <path d="M 360.8064 298.944 
L 360.8064 27.648 
" style="fill: none; stroke: #000000; stroke-width: 1.5; stroke-linecap: square"/>
   </g>
   <g id="patch_3">
    <path d="M 57.6 298.944 
L 360.8064 298.944 
" style="fill: none; stroke: #000000; stroke-width: 0.8; stroke-linejoin: miter; stroke-linecap: square"/>
   </g>
   <g id="patch_4">
    <path d="M 57.6 27.648 
L 360.8064 27.648 
" style="fill: none; stroke: #000000; stroke-width: 0.8; stroke-linejoin: miter; stroke-linecap: square"/>
   </g>
   <g id="text_13">
    <!-- PSO -->
    <g transform="translate(386.578944 297.381205)scale(0.14 -0.14)">
     <defs>
      <path id="DejaVuSans-50" d="M 1259 4147 
L 1259 2394 
L 2053 2394 
Q 2494 2394 2734 2622 
Q 2975 2850 2975 3272 
Q 2975 3691 2734 3919 
Q 2494 4147 2053 4147 
L 1259 4147 
z
M 628 4666 
L 2053 4666 
Q 2838 4666 3239 4311 
Q 3641 3956 3641 3272 
Q 3641 2581 3239 2228 
Q 2838 1875 2053 1875 
L 1259 1875 
L 1259 0 
L 628 0 
L 628 4666 
z
" transform="scale(0.015625)"/>
      <path id="DejaVuSans-53" d="M 3425 4513 
L 3425 3897 
Q 3066 4069 2747 4153 
Q 2428 4238 2131 4238 
Q 1616 4238 1336 4038 
Q 1056 3838 1056 3469 
Q 1056 3159 1242 3001 
Q 1428 2844 1947 2747 
L 2328 2669 
Q 3034 2534 3370 2195 
Q 3706 1856 3706 1288 
Q 3706 609 3251 259 
Q 2797 -91 1919 -91 
Q 1588 -91 1214 -16 
Q 841 59 441 206 
L 441 856 
Q 825 641 1194 531 
Q 1563 422 1919 422 
Q 2459 422 2753 634 
Q 3047 847 3047 1241 
Q 3047 1584 2836 1778 
Q 2625 1972 2144 2069 
L 1759 2144 
Q 1053 2284 737 2584 
Q 422 2884 422 3419 
Q 422 4038 858 4394 
Q 1294 4750 2059 4750 
Q 2388 4750 2728 4690 
Q 3069 4631 3425 4513 
z
" transform="scale(0.015625)"/>
      <path id="DejaVuSans-4f" d="M 2522 4238 
Q 1834 4238 1429 3725 
Q 1025 3213 1025 2328 
Q 1025 1447 1429 934 
Q 1834 422 2522 422 
Q 3209 422 3611 934 
Q 4013 1447 4013 2328 
Q 4013 3213 3611 3725 
Q 3209 4238 2522 4238 
z
M 2522 4750 
Q 3503 4750 4090 4092 
Q 4678 3434 4678 2328 
Q 4678 1225 4090 567 
Q 3503 -91 2522 -91 
Q 1538 -91 948 565 
Q 359 1222 359 2328 
Q 359 3434 948 4092 
Q 1538 4750 2522 4750 
z
" transform="scale(0.015625)"/>
     </defs>
     <use xlink:href="#DejaVuSans-50"/>
     <use xlink:href="#DejaVuSans-53" x="60.302734"/>
     <use xlink:href="#DejaVuSans-4f" x="123.779297"/>
    </g>
   </g>
   <g id="text_14">
    <!-- LCGA -->
    <g transform="translate(386.578944 167.159125)scale(0.14 -0.14)">
     <defs>
      <path id="DejaVuSans-4c" d="M 628 4666 
L 1259 4666 
L 1259 531 
L 3531 531 
L 3531 0 
L 628 0 
L 628 4666 
z
" transform="scale(0.015625)"/>
      <path id="DejaVuSans-43" d="M 4122 4306 
L 4122 3641 
Q 3803 3938 3442 4084 
Q 3081 4231 2675 4231 
Q 1875 4231 1450 3742 
Q 1025 3253 1025 2328 
Q 1025 1406 1450 917 
Q 1875 428 2675 428 
Q 3081 428 3442 575 
Q 3803 722 4122 1019 
L 4122 359 
Q 3791 134 3420 21 
Q 3050 -91 2638 -91 
Q 1578 -91 968 557 
Q 359 1206 359 2328 
Q 359 3453 968 4101 
Q 1578 4750 2638 4750 
Q 3056 4750 3426 4639 
Q 3797 4528 4122 4306 
z
" transform="scale(0.015625)"/>
      <path id="DejaVuSans-47" d="M 3809 666 
L 3809 1919 
L 2778 1919 
L 2778 2438 
L 4434 2438 
L 4434 434 
Q 4069 175 3628 42 
Q 3188 -91 2688 -91 
Q 1594 -91 976 548 
Q 359 1188 359 2328 
Q 359 3472 976 4111 
Q 1594 4750 2688 4750 
Q 3144 4750 3555 4637 
Q 3966 4525 4313 4306 
L 4313 3634 
Q 3963 3931 3569 4081 
Q 3175 4231 2741 4231 
Q 1884 4231 1454 3753 
Q 1025 3275 1025 2328 
Q 1025 1384 1454 906 
Q 1884 428 2741 428 
Q 3075 428 3337 486 
Q 3600 544 3809 666 
z
" transform="scale(0.015625)"/>
      <path id="DejaVuSans-41" d="M 2188 4044 
L 1331 1722 
L 3047 1722 
L 2188 4044 
z
M 1831 4666 
L 2547 4666 
L 4325 0 
L 3669 0 
L 3244 1197 
L 1141 1197 
L 716 0 
L 50 0 
L 1831 4666 
z
" transform="scale(0.015625)"/>
     </defs>
     <use xlink:href="#DejaVuSans-4c"/>
     <use xlink:href="#DejaVuSans-43" x="55.712891"/>
     <use xlink:href="#DejaVuSans-47" x="125.537109"/>
     <use xlink:href="#DejaVuSans-41" x="203.027344"/>
    </g>
   </g>
   <g id="text_15">
    <!-- best 2009 -->
    <g transform="translate(386.578944 36.937045)scale(0.14 -0.14)">
     <defs>
      <path id="DejaVuSans-62" d="M 3116 1747 
Q 3116 2381 2855 2742 
Q 2594 3103 2138 3103 
Q 1681 3103 1420 2742 
Q 1159 2381 1159 1747 
Q 1159 1113 1420 752 
Q 1681 391 2138 391 
Q 2594 391 2855 752 
Q 3116 1113 3116 1747 
z
M 1159 2969 
Q 1341 3281 1617 3432 
Q 1894 3584 2278 3584 
Q 2916 3584 3314 3078 
Q 3713 2572 3713 1747 
Q 3713 922 3314 415 
Q 2916 -91 2278 -91 
Q 1894 -91 1617 61 
Q 1341 213 1159 525 
L 1159 0 
L 581 0 
L 581 4863 
L 1159 4863 
L 1159 2969 
z
" transform="scale(0.015625)"/>
      <path id="DejaVuSans-39" d="M 703 97 
L 703 672 
Q 941 559 1184 500 
Q 1428 441 1663 441 
Q 2288 441 2617 861 
Q 2947 1281 2994 2138 
Q 2813 1869 2534 1725 
Q 2256 1581 1919 1581 
Q 1219 1581 811 2004 
Q 403 2428 403 3163 
Q 403 3881 828 4315 
Q 1253 4750 1959 4750 
Q 2769 4750 3195 4129 
Q 3622 3509 3622 2328 
Q 3622 1225 3098 567 
Q 2575 -91 1691 -91 
Q 1453 -91 1209 -44 
Q 966 3 703 97 
z
M 1959 2075 
Q 2384 2075 2632 2365 
Q 2881 2656 2881 3163 
Q 2881 3666 2632 3958 
Q 2384 4250 1959 4250 
Q 1534 4250 1286 3958 
Q 1038 3666 1038 3163 
Q 1038 2656 1286 2365 
Q 1534 2075 1959 2075 
z
" transform="scale(0.015625)"/>
     </defs>
     <use xlink:href="#DejaVuSans-62"/>
     <use xlink:href="#DejaVuSans-65" x="63.476562"/>
     <use xlink:href="#DejaVuSans-73" x="125"/>
     <use xlink:href="#DejaVuSans-74" x="177.099609"/>
     <use xlink:href="#DejaVuSans-20" x="216.308594"/>
     <use xlink:href="#DejaVuSans-32" x="248.095703"/>
     <use xlink:href="#DejaVuSans-30" x="311.71875"/>
     <use xlink:href="#DejaVuSans-30" x="375.341797"/>
     <use xlink:href="#DejaVuSans-39" x="438.964844"/>
    </g>
   </g>
   <g id="text_16">
    <!-- bbob f14, 20-D -->
    <g transform="translate(60.632064 38.111366)scale(0.102 -0.102)">
     <defs>
      <path id="DejaVuSans-44" d="M 1259 4147 
L 1259 519 
L 2022 519 
Q 2988 519 3436 956 
Q 3884 1394 3884 2338 
Q 3884 3275 3436 3711 
Q 2988 4147 2022 4147 
L 1259 4147 
z
M 628 4666 
L 1925 4666 
Q 3281 4666 3915 4102 
Q 4550 3538 4550 2338 
Q 4550 1131 3912 565 
Q 3275 0 1925 0 
L 628 0 
L 628 4666 
z
" transform="scale(0.015625)"/>
     </defs>
     <use xlink:href="#DejaVuSans-62"/>
     <use xlink:href="#DejaVuSans-62" x="63.476562"/>
     <use xlink:href="#DejaVuSans-6f" x="126.953125"/>
     <use xlink:href="#DejaVuSans-62" x="188.134766"/>
     <use xlink:href="#DejaVuSans-20" x="251.611328"/>
     <use xlink:href="#DejaVuSans-66" x="283.398438"/>
     <use xlink:href="#DejaVuSans-31" x="318.603516"/>
     <use xlink:href="#DejaVuSans-34" x="382.226562"/>
     <use xlink:href="#DejaVuSans-2c" x="445.849609"/>
     <use xlink:href="#DejaVuSans-20" x="477.636719"/>
     <use xlink:href="#DejaVuSans-32" x="509.423828"/>
     <use xlink:href="#DejaVuSans-30" x="573.046875"/>
     <use xlink:href="#DejaVuSans-2d" x="636.669922"/>
     <use xlink:href="#DejaVuSans-44" x="672.753906"/>
    </g>
    <!-- 51 targets: 100..1e-08 -->
    <g transform="translate(60.632064 49.533135)scale(0.102 -0.102)">
     <defs>
      <path id="DejaVuSans-35" d="M 691 4666 
L 3169 4666 
L 3169 4134 
L 1269 4134 
L 1269 2991 
Q 1406 3038 1543 3061 
Q 1681 3084 1819 3084 
Q 2600 3084 3056 2656 
Q 3513 2228 3513 1497 
Q 3513 744 3044 326 
Q 2575 -91 1722 -91 
Q 1428 -91 1123 -41 
Q 819 9 494 109 
L 494 744 
Q 775 591 1075 516 
Q 1375 441 1709 441 
Q 2250 441 2565 725 
Q 2881 1009 2881 1497 
Q 2881 1984 2565 2268 
Q 2250 2553 1709 2553 
Q 1456 2553 1204 2497 
Q 953 2441 691 2322 
L 691 4666 
z
" transform="scale(0.015625)"/>
      <path id="DejaVuSans-3a" d="M 750 794 
L 1409 794 
L 1409 0 
L 750 0 
L 750 794 
z
M 750 3309 
L 1409 3309 
L 1409 2516 
L 750 2516 
L 750 3309 
z
" transform="scale(0.015625)"/>
     </defs>
     <use xlink:href="#DejaVuSans-35"/>
     <use xlink:href="#DejaVuSans-31" x="63.623047"/>
     <use xlink:href="#DejaVuSans-20" x="127.246094"/>
     <use xlink:href="#DejaVuSans-74" x="159.033203"/>
     <use xlink:href="#DejaVuSans-61" x="198.242188"/>
     <use xlink:href="#DejaVuSans-72" x="259.521484"/>
     <use xlink:href="#DejaVuSans-67" x="298.884766"/>
     <use xlink:href="#DejaVuSans-65" x="362.361328"/>
     <use xlink:href="#DejaVuSans-74" x="423.884766"/>
     <use xlink:href="#DejaVuSans-73" x="463.09375"/>
     <use xlink:href="#DejaVuSans-3a" x="515.193359"/>
     <use xlink:href="#DejaVuSans-20" x="548.884766"/>
     <use xlink:href="#DejaVuSans-31" x="580.671875"/>
     <use xlink:href="#DejaVuSans-30" x="644.294922"/>
     <use xlink:href="#DejaVuSans-30" x="707.917969"/>
     <use xlink:href="#DejaVuSans-2e" x="771.541016"/>
     <use xlink:href="#DejaVuSans-2e" x="803.328125"/>
     <use xlink:href="#DejaVuSans-31" x="835.115234"/>
     <use xlink:href="#DejaVuSans-65" x="898.738281"/>
     <use xlink:href="#DejaVuSans-2d" x="960.261719"/>
     <use xlink:href="#DejaVuSans-30" x="996.345703"/>
     <use xlink:href="#DejaVuSans-38" x="1059.96875"/>
    </g>
    <!-- 15 instances -->
    <g transform="translate(60.632064 60.954904)scale(0.102 -0.102)">
     <use xlink:href="#DejaVuSans-31"/>
     <use xlink:href="#DejaVuSans-35" x="63.623047"/>
     <use xlink:href="#DejaVuSans-20" x="127.246094"/>
     <use xlink:href="#DejaVuSans-69" x="159.033203"/>
     <use xlink:href="#DejaVuSans-6e" x="186.816406"/>
     <use xlink:href="#DejaVuSans-73" x="250.195312"/>
     <use xlink:href="#DejaVuSans-74" x="302.294922"/>
     <use xlink:href="#DejaVuSans-61" x="341.503906"/>
     <use xlink:href="#DejaVuSans-6e" x="402.783203"/>
     <use xlink:href="#DejaVuSans-63" x="466.162109"/>
     <use xlink:href="#DejaVuSans-65" x="521.142578"/>
     <use xlink:href="#DejaVuSans-73" x="582.666016"/>
    </g>
   </g>
   <g id="text_17">
    <!-- v2.6 -->
    <g style="fill: #808080" transform="translate(198.292262 294.151352)scale(0.1 -0.1)">
     <use xlink:href="#DejaVuSans-76"/>
     <use xlink:href="#DejaVuSans-32" x="59.179688"/>
     <use xlink:href="#DejaVuSans-2e" x="122.802734"/>
     <use xlink:href="#DejaVuSans-36" x="154.589844"/>
    </g>
   </g>
   <g id="text_18">
    <!-- 14 Sum of different powers -->
    <g transform="translate(72.964137 21.648)scale(0.2 -0.2)">
     <defs>
      <path id="DejaVuSans-77" d="M 269 3500 
L 844 3500 
L 1563 769 
L 2278 3500 
L 2956 3500 
L 3675 769 
L 4391 3500 
L 4966 3500 
L 4050 0 
L 3372 0 
L 2619 2869 
L 1863 0 
L 1184 0 
L 269 3500 
z
" transform="scale(0.015625)"/>
     </defs>
     <use xlink:href="#DejaVuSans-31"/>
     <use xlink:href="#DejaVuSans-34" x="63.623047"/>
     <use xlink:href="#DejaVuSans-20" x="127.246094"/>
     <use xlink:href="#DejaVuSans-53" x="159.033203"/>
     <use xlink:href="#DejaVuSans-75" x="222.509766"/>
     <use xlink:href="#DejaVuSans-6d" x="285.888672"/>
     <use xlink:href="#DejaVuSans-20" x="383.300781"/>
     <use xlink:href="#DejaVuSans-6f" x="415.087891"/>
     <use xlink:href="#DejaVuSans-66" x="476.269531"/>
     <use xlink:href="#DejaVuSans-20" x="511.474609"/>
     <use xlink:href="#DejaVuSans-64" x="543.261719"/>
     <use xlink:href="#DejaVuSans-69" x="606.738281"/>
     <use xlink:href="#DejaVuSans-66" x="634.521484"/>
     <use xlink:href="#DejaVuSans-66" x="669.726562"/>
     <use xlink:href="#DejaVuSans-65" x="704.931641"/>
     <use xlink:href="#DejaVuSans-72" x="766.455078"/>
     <use xlink:href="#DejaVuSans-65" x="805.318359"/>
     <use xlink:href="#DejaVuSans-6e" x="866.841797"/>
     <use xlink:href="#DejaVuSans-74" x="930.220703"/>
     <use xlink:href="#DejaVuSans-20" x="969.429688"/>
     <use xlink:href="#DejaVuSans-70" x="1001.216797"/>
     <use xlink:href="#DejaVuSans-6f" x="1064.693359"/>
     <use xlink:href="#DejaVuSans-77" x="1125.875"/>
     <use xlink:href="#DejaVuSans-65" x="1207.662109"/>
     <use xlink:href="#DejaVuSans-72" x="1269.185547"/>
     <use xlink:href="#DejaVuSans-73" x="1310.298828"/>
    </g>
   </g>
  </g>
 </g>
 <defs>
  <clipPath id="p380b8a8573">
   <rect x="57.6" y="27.648" width="303.2064" height="271.296"/>
  </clipPath>
 </defs>
</svg>
