<?xml version="1.0" encoding="utf-8" standalone="no"?>
<!DOCTYPE svg PUBLIC "-//W3C//DTD SVG 1.1//EN"
  "http://www.w3.org/Graphics/SVG/1.1/DTD/svg11.dtd">
<svg xmlns:xlink="http://www.w3.org/1999/xlink" width="460.8pt" height="345.6pt" viewBox="0 0 460.8 345.6" xmlns="http://www.w3.org/2000/svg" version="1.1">
 <metadata>
  <rdf:RDF xmlns:dc="http://purl.org/dc/elements/1.1/" xmlns:cc="http://creativecommons.org/ns#" xmlns:rdf="http://www.w3.org/1999/02/22-rdf-syntax-ns#">
   <cc:Work>
    <dc:type rdf:resource="http://purl.org/dc/dcmitype/StillImage"/>
    <dc:date>2024-05-29T08:02:19.593062</dc:date>
    <dc:format>image/svg+xml</dc:format>
    <dc:creator>
     <cc:Agent>
      <dc:title>Matplotlib v3.5.1, https://matplotlib.org/</dc:title>
     </cc:Agent>
    </dc:creator>
   </cc:Work>
  </rdf:RDF>
 </metadata>
 <defs>
  <style type="text/css">*{stroke-linejoin: round; stroke-linecap: butt}</style>
 </defs>
 <g id="figure_1">
  <g id="patch_1">
   <path d="M 0 345.6 
L 460.8 345.6 
L 460.8 0 
L 0 0 
z
" style="fill: #ffffff"/>
  </g>
  <g id="axes_1">
   <g id="patch_2">
    <path d="M 57.6 298.944 
L 360.8064 298.944 
L 360.8064 27.648 
L 57.6 27.648 
z
" style="fill: #ffffff"/>
   </g>
   <g id="line2d_1">
    <path d="M 98.510456 298.944 
L 98.510456 293.624471 
L 102.362957 293.624471 
L 102.362957 288.304941 
L 104.344952 288.304941 
L 104.344952 282.985412 
L 105.559021 282.985412 
L 105.559021 277.665882 
L 106.974091 277.665882 
L 106.974091 272.346353 
L 108.034177 272.346353 
L 108.034177 267.026824 
L 109.990385 267.026824 
L 109.990385 261.707294 
L 119.599808 261.707294 
L 119.599808 256.387765 
L 130.107132 256.387765 
L 130.107132 251.068235 
L 131.783764 251.068235 
L 131.783764 245.748706 
L 132.846847 245.748706 
L 132.846847 240.429176 
L 133.918257 240.429176 
L 133.918257 235.109647 
L 134.87014 235.109647 
L 134.87014 229.790118 
L 135.538796 229.790118 
L 135.538796 224.470588 
L 136.356818 224.470588 
L 136.356818 219.151059 
L 136.752866 219.151059 
L 136.752866 213.831529 
L 137.195511 213.831529 
L 137.195511 208.512 
L 137.734561 208.512 
L 137.734561 203.192471 
L 138.10291 203.192471 
L 138.10291 197.872941 
L 138.310202 197.872941 
L 138.310202 192.553412 
L 138.667556 192.553412 
L 138.667556 187.233882 
L 138.918715 187.233882 
L 138.918715 181.914353 
L 139.117256 181.914353 
L 139.117256 176.594824 
L 139.313723 176.594824 
L 139.313723 171.275294 
L 139.556456 171.275294 
L 139.556456 165.955765 
L 139.604629 165.955765 
L 139.604629 160.636235 
L 139.748412 160.636235 
L 139.748412 155.316706 
L 139.843661 155.316706 
L 139.843661 149.997176 
L 139.93843 149.997176 
L 139.93843 144.677647 
L 139.985636 144.677647 
L 139.985636 139.358118 
L 140.079694 139.358118 
L 140.079694 134.038588 
L 140.26641 134.038588 
L 140.26641 128.719059 
L 140.405242 128.719059 
L 140.405242 123.399529 
L 140.451292 123.399529 
L 140.451292 118.08 
L 140.49723 118.08 
L 140.49723 107.440941 
L 140.58877 107.440941 
L 140.58877 102.121412 
L 140.679868 102.121412 
L 140.679868 91.482353 
L 140.725251 91.482353 
L 140.725251 80.843294 
L 140.815692 80.843294 
L 140.815692 75.523765 
L 140.860749 75.523765 
L 140.860749 70.204235 
L 140.950542 70.204235 
L 140.950542 64.884706 
L 140.995278 64.884706 
L 140.995278 59.565176 
L 141.039908 59.565176 
L 141.039908 54.245647 
L 141.084433 54.245647 
L 141.084433 48.926118 
L 141.128852 48.926118 
L 141.128852 27.648 
L 360.8064 27.648 
" style="fill: none; stroke: #f5deb3; stroke-width: 4; stroke-linecap: square"/>
   </g>
   <g id="line2d_2">
    <defs>
     <path id="mc95d6f2e6b" d="M 0 7.778175 
L 7.778175 0 
L 0 -7.778175 
L -7.778175 0 
z
" style="stroke: #f5deb3; stroke-width: 1.5; stroke-linejoin: miter"/>
    </defs>
    <g>
     <use xlink:href="#mc95d6f2e6b" x="135.538796" y="229.790118" style="fill: #f5deb3; stroke: #f5deb3; stroke-width: 1.5; stroke-linejoin: miter"/>
     <use xlink:href="#mc95d6f2e6b" x="140.860749" y="75.523765" style="fill: #f5deb3; stroke: #f5deb3; stroke-width: 1.5; stroke-linejoin: miter"/>
     <use xlink:href="#mc95d6f2e6b" x="141.128852" y="27.648" style="fill: #f5deb3; stroke: #f5deb3; stroke-width: 1.5; stroke-linejoin: miter"/>
     <use xlink:href="#mc95d6f2e6b" x="141.128852" y="27.648" style="fill: #f5deb3; stroke: #f5deb3; stroke-width: 1.5; stroke-linejoin: miter"/>
     <use xlink:href="#mc95d6f2e6b" x="360.8064" y="27.648" style="fill: #f5deb3; stroke: #f5deb3; stroke-width: 1.5; stroke-linejoin: miter"/>
    </g>
   </g>
   <g id="line2d_3">
    <path style="fill: none; stroke: #f5deb3; stroke-width: 4; stroke-linecap: square"/>
    <g/>
   </g>
   <g id="line2d_4">
    <path d="M 360.8064 27.648 
L 380.514816 33.07392 
" style="fill: none; stroke: #f5deb3; stroke-width: 4; stroke-linecap: square"/>
    <g>
     <use xlink:href="#mc95d6f2e6b" x="360.8064" y="27.648" style="fill: #f5deb3; stroke: #f5deb3; stroke-width: 1.5; stroke-linejoin: miter"/>
     <use xlink:href="#mc95d6f2e6b" x="380.514816" y="33.07392" style="fill: #f5deb3; stroke: #f5deb3; stroke-width: 1.5; stroke-linejoin: miter"/>
    </g>
   </g>
   <g id="matplotlib.axis_1">
    <g id="xtick_1">
     <g id="line2d_5">
      <path d="M 57.6 298.944 
L 57.6 27.648 
" clip-path="url(#p5faa22ac8b)" style="fill: none; stroke: #b0b0b0; stroke-width: 0.8; stroke-linecap: square"/>
     </g>
     <g id="line2d_6">
      <defs>
       <path id="mf6968a1dc2" d="M 0 0 
L 0 3.5 
" style="stroke: #000000; stroke-width: 0.8"/>
      </defs>
      <g>
       <use xlink:href="#mf6968a1dc2" x="57.6" y="298.944" style="stroke: #000000; stroke-width: 0.8"/>
      </g>
     </g>
     <g id="text_1">
      <!-- 0 -->
      <g transform="translate(52.191875 318.861344)scale(0.17 -0.17)">
       <defs>
        <path id="DejaVuSans-30" d="M 2034 4250 
Q 1547 4250 1301 3770 
Q 1056 3291 1056 2328 
Q 1056 1369 1301 889 
Q 1547 409 2034 409 
Q 2525 409 2770 889 
Q 3016 1369 3016 2328 
Q 3016 3291 2770 3770 
Q 2525 4250 2034 4250 
z
M 2034 4750 
Q 2819 4750 3233 4129 
Q 3647 3509 3647 2328 
Q 3647 1150 3233 529 
Q 2819 -91 2034 -91 
Q 1250 -91 836 529 
Q 422 1150 422 2328 
Q 422 3509 836 4129 
Q 1250 4750 2034 4750 
z
" transform="scale(0.015625)"/>
       </defs>
       <use xlink:href="#DejaVuSans-30"/>
      </g>
     </g>
    </g>
    <g id="xtick_2">
     <g id="line2d_7">
      <path d="M 144.2304 298.944 
L 144.2304 27.648 
" clip-path="url(#p5faa22ac8b)" style="fill: none; stroke: #b0b0b0; stroke-width: 0.8; stroke-linecap: square"/>
     </g>
     <g id="line2d_8">
      <g>
       <use xlink:href="#mf6968a1dc2" x="144.2304" y="298.944" style="stroke: #000000; stroke-width: 0.8"/>
      </g>
     </g>
     <g id="text_2">
      <!-- 2 -->
      <g transform="translate(138.822275 318.861344)scale(0.17 -0.17)">
       <defs>
        <path id="DejaVuSans-32" d="M 1228 531 
L 3431 531 
L 3431 0 
L 469 0 
L 469 531 
Q 828 903 1448 1529 
Q 2069 2156 2228 2338 
Q 2531 2678 2651 2914 
Q 2772 3150 2772 3378 
Q 2772 3750 2511 3984 
Q 2250 4219 1831 4219 
Q 1534 4219 1204 4116 
Q 875 4013 500 3803 
L 500 4441 
Q 881 4594 1212 4672 
Q 1544 4750 1819 4750 
Q 2544 4750 2975 4387 
Q 3406 4025 3406 3419 
Q 3406 3131 3298 2873 
Q 3191 2616 2906 2266 
Q 2828 2175 2409 1742 
Q 1991 1309 1228 531 
z
" transform="scale(0.015625)"/>
       </defs>
       <use xlink:href="#DejaVuSans-32"/>
      </g>
     </g>
    </g>
    <g id="xtick_3">
     <g id="line2d_9">
      <path d="M 230.8608 298.944 
L 230.8608 27.648 
" clip-path="url(#p5faa22ac8b)" style="fill: none; stroke: #b0b0b0; stroke-width: 0.8; stroke-linecap: square"/>
     </g>
     <g id="line2d_10">
      <g>
       <use xlink:href="#mf6968a1dc2" x="230.8608" y="298.944" style="stroke: #000000; stroke-width: 0.8"/>
      </g>
     </g>
     <g id="text_3">
      <!-- 4 -->
      <g transform="translate(225.452675 318.861344)scale(0.17 -0.17)">
       <defs>
        <path id="DejaVuSans-34" d="M 2419 4116 
L 825 1625 
L 2419 1625 
L 2419 4116 
z
M 2253 4666 
L 3047 4666 
L 3047 1625 
L 3713 1625 
L 3713 1100 
L 3047 1100 
L 3047 0 
L 2419 0 
L 2419 1100 
L 313 1100 
L 313 1709 
L 2253 4666 
z
" transform="scale(0.015625)"/>
       </defs>
       <use xlink:href="#DejaVuSans-34"/>
      </g>
     </g>
    </g>
    <g id="xtick_4">
     <g id="line2d_11">
      <path d="M 317.4912 298.944 
L 317.4912 27.648 
" clip-path="url(#p5faa22ac8b)" style="fill: none; stroke: #b0b0b0; stroke-width: 0.8; stroke-linecap: square"/>
     </g>
     <g id="line2d_12">
      <g>
       <use xlink:href="#mf6968a1dc2" x="317.4912" y="298.944" style="stroke: #000000; stroke-width: 0.8"/>
      </g>
     </g>
     <g id="text_4">
      <!-- 6 -->
      <g transform="translate(312.083075 318.861344)scale(0.17 -0.17)">
       <defs>
        <path id="DejaVuSans-36" d="M 2113 2584 
Q 1688 2584 1439 2293 
Q 1191 2003 1191 1497 
Q 1191 994 1439 701 
Q 1688 409 2113 409 
Q 2538 409 2786 701 
Q 3034 994 3034 1497 
Q 3034 2003 2786 2293 
Q 2538 2584 2113 2584 
z
M 3366 4563 
L 3366 3988 
Q 3128 4100 2886 4159 
Q 2644 4219 2406 4219 
Q 1781 4219 1451 3797 
Q 1122 3375 1075 2522 
Q 1259 2794 1537 2939 
Q 1816 3084 2150 3084 
Q 2853 3084 3261 2657 
Q 3669 2231 3669 1497 
Q 3669 778 3244 343 
Q 2819 -91 2113 -91 
Q 1303 -91 875 529 
Q 447 1150 447 2328 
Q 447 3434 972 4092 
Q 1497 4750 2381 4750 
Q 2619 4750 2861 4703 
Q 3103 4656 3366 4563 
z
" transform="scale(0.015625)"/>
       </defs>
       <use xlink:href="#DejaVuSans-36"/>
      </g>
     </g>
    </g>
    <g id="xtick_5">
     <g id="line2d_13">
      <path d="M 100.9152 298.944 
L 100.9152 27.648 
" clip-path="url(#p5faa22ac8b)" style="fill: none; stroke: #b0b0b0; stroke-width: 0.8; stroke-linecap: square"/>
     </g>
     <g id="line2d_14">
      <defs>
       <path id="m03bbfc21cd" d="M 0 0 
L 0 2 
" style="stroke: #000000; stroke-width: 0.6"/>
      </defs>
      <g>
       <use xlink:href="#m03bbfc21cd" x="100.9152" y="298.944" style="stroke: #000000; stroke-width: 0.6"/>
      </g>
     </g>
    </g>
    <g id="xtick_6">
     <g id="line2d_15">
      <path d="M 187.5456 298.944 
L 187.5456 27.648 
" clip-path="url(#p5faa22ac8b)" style="fill: none; stroke: #b0b0b0; stroke-width: 0.8; stroke-linecap: square"/>
     </g>
     <g id="line2d_16">
      <g>
       <use xlink:href="#m03bbfc21cd" x="187.5456" y="298.944" style="stroke: #000000; stroke-width: 0.6"/>
      </g>
     </g>
    </g>
    <g id="xtick_7">
     <g id="line2d_17">
      <path d="M 274.176 298.944 
L 274.176 27.648 
" clip-path="url(#p5faa22ac8b)" style="fill: none; stroke: #b0b0b0; stroke-width: 0.8; stroke-linecap: square"/>
     </g>
     <g id="line2d_18">
      <g>
       <use xlink:href="#m03bbfc21cd" x="274.176" y="298.944" style="stroke: #000000; stroke-width: 0.6"/>
      </g>
     </g>
    </g>
    <g id="xtick_8">
     <g id="line2d_19">
      <path d="M 360.8064 298.944 
L 360.8064 27.648 
" clip-path="url(#p5faa22ac8b)" style="fill: none; stroke: #b0b0b0; stroke-width: 0.8; stroke-linecap: square"/>
     </g>
     <g id="line2d_20">
      <g>
       <use xlink:href="#m03bbfc21cd" x="360.8064" y="298.944" style="stroke: #000000; stroke-width: 0.6"/>
      </g>
     </g>
    </g>
    <g id="text_5">
     <!-- log10(# f-evals / dimension) -->
     <g transform="translate(88.823278 339.314156)scale(0.17 -0.17)">
      <defs>
       <path id="DejaVuSans-6c" d="M 603 4863 
L 1178 4863 
L 1178 0 
L 603 0 
L 603 4863 
z
" transform="scale(0.015625)"/>
       <path id="DejaVuSans-6f" d="M 1959 3097 
Q 1497 3097 1228 2736 
Q 959 2375 959 1747 
Q 959 1119 1226 758 
Q 1494 397 1959 397 
Q 2419 397 2687 759 
Q 2956 1122 2956 1747 
Q 2956 2369 2687 2733 
Q 2419 3097 1959 3097 
z
M 1959 3584 
Q 2709 3584 3137 3096 
Q 3566 2609 3566 1747 
Q 3566 888 3137 398 
Q 2709 -91 1959 -91 
Q 1206 -91 779 398 
Q 353 888 353 1747 
Q 353 2609 779 3096 
Q 1206 3584 1959 3584 
z
" transform="scale(0.015625)"/>
       <path id="DejaVuSans-67" d="M 2906 1791 
Q 2906 2416 2648 2759 
Q 2391 3103 1925 3103 
Q 1463 3103 1205 2759 
Q 947 2416 947 1791 
Q 947 1169 1205 825 
Q 1463 481 1925 481 
Q 2391 481 2648 825 
Q 2906 1169 2906 1791 
z
M 3481 434 
Q 3481 -459 3084 -895 
Q 2688 -1331 1869 -1331 
Q 1566 -1331 1297 -1286 
Q 1028 -1241 775 -1147 
L 775 -588 
Q 1028 -725 1275 -790 
Q 1522 -856 1778 -856 
Q 2344 -856 2625 -561 
Q 2906 -266 2906 331 
L 2906 616 
Q 2728 306 2450 153 
Q 2172 0 1784 0 
Q 1141 0 747 490 
Q 353 981 353 1791 
Q 353 2603 747 3093 
Q 1141 3584 1784 3584 
Q 2172 3584 2450 3431 
Q 2728 3278 2906 2969 
L 2906 3500 
L 3481 3500 
L 3481 434 
z
" transform="scale(0.015625)"/>
       <path id="DejaVuSans-31" d="M 794 531 
L 1825 531 
L 1825 4091 
L 703 3866 
L 703 4441 
L 1819 4666 
L 2450 4666 
L 2450 531 
L 3481 531 
L 3481 0 
L 794 0 
L 794 531 
z
" transform="scale(0.015625)"/>
       <path id="DejaVuSans-28" d="M 1984 4856 
Q 1566 4138 1362 3434 
Q 1159 2731 1159 2009 
Q 1159 1288 1364 580 
Q 1569 -128 1984 -844 
L 1484 -844 
Q 1016 -109 783 600 
Q 550 1309 550 2009 
Q 550 2706 781 3412 
Q 1013 4119 1484 4856 
L 1984 4856 
z
" transform="scale(0.015625)"/>
       <path id="DejaVuSans-23" d="M 3272 2816 
L 2363 2816 
L 2100 1772 
L 3016 1772 
L 3272 2816 
z
M 2803 4594 
L 2478 3297 
L 3391 3297 
L 3719 4594 
L 4219 4594 
L 3897 3297 
L 4872 3297 
L 4872 2816 
L 3775 2816 
L 3519 1772 
L 4513 1772 
L 4513 1294 
L 3397 1294 
L 3072 0 
L 2572 0 
L 2894 1294 
L 1978 1294 
L 1656 0 
L 1153 0 
L 1478 1294 
L 494 1294 
L 494 1772 
L 1594 1772 
L 1856 2816 
L 850 2816 
L 850 3297 
L 1978 3297 
L 2297 4594 
L 2803 4594 
z
" transform="scale(0.015625)"/>
       <path id="DejaVuSans-20" transform="scale(0.015625)"/>
       <path id="DejaVuSans-66" d="M 2375 4863 
L 2375 4384 
L 1825 4384 
Q 1516 4384 1395 4259 
Q 1275 4134 1275 3809 
L 1275 3500 
L 2222 3500 
L 2222 3053 
L 1275 3053 
L 1275 0 
L 697 0 
L 697 3053 
L 147 3053 
L 147 3500 
L 697 3500 
L 697 3744 
Q 697 4328 969 4595 
Q 1241 4863 1831 4863 
L 2375 4863 
z
" transform="scale(0.015625)"/>
       <path id="DejaVuSans-2d" d="M 313 2009 
L 1997 2009 
L 1997 1497 
L 313 1497 
L 313 2009 
z
" transform="scale(0.015625)"/>
       <path id="DejaVuSans-65" d="M 3597 1894 
L 3597 1613 
L 953 1613 
Q 991 1019 1311 708 
Q 1631 397 2203 397 
Q 2534 397 2845 478 
Q 3156 559 3463 722 
L 3463 178 
Q 3153 47 2828 -22 
Q 2503 -91 2169 -91 
Q 1331 -91 842 396 
Q 353 884 353 1716 
Q 353 2575 817 3079 
Q 1281 3584 2069 3584 
Q 2775 3584 3186 3129 
Q 3597 2675 3597 1894 
z
M 3022 2063 
Q 3016 2534 2758 2815 
Q 2500 3097 2075 3097 
Q 1594 3097 1305 2825 
Q 1016 2553 972 2059 
L 3022 2063 
z
" transform="scale(0.015625)"/>
       <path id="DejaVuSans-76" d="M 191 3500 
L 800 3500 
L 1894 563 
L 2988 3500 
L 3597 3500 
L 2284 0 
L 1503 0 
L 191 3500 
z
" transform="scale(0.015625)"/>
       <path id="DejaVuSans-61" d="M 2194 1759 
Q 1497 1759 1228 1600 
Q 959 1441 959 1056 
Q 959 750 1161 570 
Q 1363 391 1709 391 
Q 2188 391 2477 730 
Q 2766 1069 2766 1631 
L 2766 1759 
L 2194 1759 
z
M 3341 1997 
L 3341 0 
L 2766 0 
L 2766 531 
Q 2569 213 2275 61 
Q 1981 -91 1556 -91 
Q 1019 -91 701 211 
Q 384 513 384 1019 
Q 384 1609 779 1909 
Q 1175 2209 1959 2209 
L 2766 2209 
L 2766 2266 
Q 2766 2663 2505 2880 
Q 2244 3097 1772 3097 
Q 1472 3097 1187 3025 
Q 903 2953 641 2809 
L 641 3341 
Q 956 3463 1253 3523 
Q 1550 3584 1831 3584 
Q 2591 3584 2966 3190 
Q 3341 2797 3341 1997 
z
" transform="scale(0.015625)"/>
       <path id="DejaVuSans-73" d="M 2834 3397 
L 2834 2853 
Q 2591 2978 2328 3040 
Q 2066 3103 1784 3103 
Q 1356 3103 1142 2972 
Q 928 2841 928 2578 
Q 928 2378 1081 2264 
Q 1234 2150 1697 2047 
L 1894 2003 
Q 2506 1872 2764 1633 
Q 3022 1394 3022 966 
Q 3022 478 2636 193 
Q 2250 -91 1575 -91 
Q 1294 -91 989 -36 
Q 684 19 347 128 
L 347 722 
Q 666 556 975 473 
Q 1284 391 1588 391 
Q 1994 391 2212 530 
Q 2431 669 2431 922 
Q 2431 1156 2273 1281 
Q 2116 1406 1581 1522 
L 1381 1569 
Q 847 1681 609 1914 
Q 372 2147 372 2553 
Q 372 3047 722 3315 
Q 1072 3584 1716 3584 
Q 2034 3584 2315 3537 
Q 2597 3491 2834 3397 
z
" transform="scale(0.015625)"/>
       <path id="DejaVuSans-2f" d="M 1625 4666 
L 2156 4666 
L 531 -594 
L 0 -594 
L 1625 4666 
z
" transform="scale(0.015625)"/>
       <path id="DejaVuSans-64" d="M 2906 2969 
L 2906 4863 
L 3481 4863 
L 3481 0 
L 2906 0 
L 2906 525 
Q 2725 213 2448 61 
Q 2172 -91 1784 -91 
Q 1150 -91 751 415 
Q 353 922 353 1747 
Q 353 2572 751 3078 
Q 1150 3584 1784 3584 
Q 2172 3584 2448 3432 
Q 2725 3281 2906 2969 
z
M 947 1747 
Q 947 1113 1208 752 
Q 1469 391 1925 391 
Q 2381 391 2643 752 
Q 2906 1113 2906 1747 
Q 2906 2381 2643 2742 
Q 2381 3103 1925 3103 
Q 1469 3103 1208 2742 
Q 947 2381 947 1747 
z
" transform="scale(0.015625)"/>
       <path id="DejaVuSans-69" d="M 603 3500 
L 1178 3500 
L 1178 0 
L 603 0 
L 603 3500 
z
M 603 4863 
L 1178 4863 
L 1178 4134 
L 603 4134 
L 603 4863 
z
" transform="scale(0.015625)"/>
       <path id="DejaVuSans-6d" d="M 3328 2828 
Q 3544 3216 3844 3400 
Q 4144 3584 4550 3584 
Q 5097 3584 5394 3201 
Q 5691 2819 5691 2113 
L 5691 0 
L 5113 0 
L 5113 2094 
Q 5113 2597 4934 2840 
Q 4756 3084 4391 3084 
Q 3944 3084 3684 2787 
Q 3425 2491 3425 1978 
L 3425 0 
L 2847 0 
L 2847 2094 
Q 2847 2600 2669 2842 
Q 2491 3084 2119 3084 
Q 1678 3084 1418 2786 
Q 1159 2488 1159 1978 
L 1159 0 
L 581 0 
L 581 3500 
L 1159 3500 
L 1159 2956 
Q 1356 3278 1631 3431 
Q 1906 3584 2284 3584 
Q 2666 3584 2933 3390 
Q 3200 3197 3328 2828 
z
" transform="scale(0.015625)"/>
       <path id="DejaVuSans-6e" d="M 3513 2113 
L 3513 0 
L 2938 0 
L 2938 2094 
Q 2938 2591 2744 2837 
Q 2550 3084 2163 3084 
Q 1697 3084 1428 2787 
Q 1159 2491 1159 1978 
L 1159 0 
L 581 0 
L 581 3500 
L 1159 3500 
L 1159 2956 
Q 1366 3272 1645 3428 
Q 1925 3584 2291 3584 
Q 2894 3584 3203 3211 
Q 3513 2838 3513 2113 
z
" transform="scale(0.015625)"/>
       <path id="DejaVuSans-29" d="M 513 4856 
L 1013 4856 
Q 1481 4119 1714 3412 
Q 1947 2706 1947 2009 
Q 1947 1309 1714 600 
Q 1481 -109 1013 -844 
L 513 -844 
Q 928 -128 1133 580 
Q 1338 1288 1338 2009 
Q 1338 2731 1133 3434 
Q 928 4138 513 4856 
z
" transform="scale(0.015625)"/>
      </defs>
      <use xlink:href="#DejaVuSans-6c"/>
      <use xlink:href="#DejaVuSans-6f" x="27.783203"/>
      <use xlink:href="#DejaVuSans-67" x="88.964844"/>
      <use xlink:href="#DejaVuSans-31" x="152.441406"/>
      <use xlink:href="#DejaVuSans-30" x="216.064453"/>
      <use xlink:href="#DejaVuSans-28" x="279.6875"/>
      <use xlink:href="#DejaVuSans-23" x="318.701172"/>
      <use xlink:href="#DejaVuSans-20" x="402.490234"/>
      <use xlink:href="#DejaVuSans-66" x="434.277344"/>
      <use xlink:href="#DejaVuSans-2d" x="463.982422"/>
      <use xlink:href="#DejaVuSans-65" x="500.066406"/>
      <use xlink:href="#DejaVuSans-76" x="561.589844"/>
      <use xlink:href="#DejaVuSans-61" x="620.769531"/>
      <use xlink:href="#DejaVuSans-6c" x="682.048828"/>
      <use xlink:href="#DejaVuSans-73" x="709.832031"/>
      <use xlink:href="#DejaVuSans-20" x="761.931641"/>
      <use xlink:href="#DejaVuSans-2f" x="793.71875"/>
      <use xlink:href="#DejaVuSans-20" x="827.410156"/>
      <use xlink:href="#DejaVuSans-64" x="859.197266"/>
      <use xlink:href="#DejaVuSans-69" x="922.673828"/>
      <use xlink:href="#DejaVuSans-6d" x="950.457031"/>
      <use xlink:href="#DejaVuSans-65" x="1047.869141"/>
      <use xlink:href="#DejaVuSans-6e" x="1109.392578"/>
      <use xlink:href="#DejaVuSans-73" x="1172.771484"/>
      <use xlink:href="#DejaVuSans-69" x="1224.871094"/>
      <use xlink:href="#DejaVuSans-6f" x="1252.654297"/>
      <use xlink:href="#DejaVuSans-6e" x="1313.835938"/>
      <use xlink:href="#DejaVuSans-29" x="1377.214844"/>
     </g>
    </g>
   </g>
   <g id="matplotlib.axis_2">
    <g id="ytick_1">
     <g id="line2d_21">
      <path d="M 57.6 298.944 
L 360.8064 298.944 
" clip-path="url(#p5faa22ac8b)" style="fill: none; stroke: #b0b0b0; stroke-width: 0.8; stroke-linecap: square"/>
     </g>
     <g id="line2d_22">
      <defs>
       <path id="m2021876f1d" d="M 0 0 
L -3.5 0 
" style="stroke: #000000; stroke-width: 0.8"/>
      </defs>
      <g>
       <use xlink:href="#m2021876f1d" x="57.6" y="298.944" style="stroke: #000000; stroke-width: 0.8"/>
      </g>
     </g>
     <g id="text_6">
      <!-- 0.0 -->
      <g transform="translate(25.155 305.02275)scale(0.16 -0.16)">
       <defs>
        <path id="DejaVuSans-2e" d="M 684 794 
L 1344 794 
L 1344 0 
L 684 0 
L 684 794 
z
" transform="scale(0.015625)"/>
       </defs>
       <use xlink:href="#DejaVuSans-30"/>
       <use xlink:href="#DejaVuSans-2e" x="63.623047"/>
       <use xlink:href="#DejaVuSans-30" x="95.410156"/>
      </g>
     </g>
    </g>
    <g id="ytick_2">
     <g id="line2d_23">
      <path d="M 57.6 244.6848 
L 360.8064 244.6848 
" clip-path="url(#p5faa22ac8b)" style="fill: none; stroke: #b0b0b0; stroke-width: 0.8; stroke-linecap: square"/>
     </g>
     <g id="line2d_24">
      <g>
       <use xlink:href="#m2021876f1d" x="57.6" y="244.6848" style="stroke: #000000; stroke-width: 0.8"/>
      </g>
     </g>
     <g id="text_7">
      <!-- 0.2 -->
      <g transform="translate(25.155 250.76355)scale(0.16 -0.16)">
       <use xlink:href="#DejaVuSans-30"/>
       <use xlink:href="#DejaVuSans-2e" x="63.623047"/>
       <use xlink:href="#DejaVuSans-32" x="95.410156"/>
      </g>
     </g>
    </g>
    <g id="ytick_3">
     <g id="line2d_25">
      <path d="M 57.6 190.4256 
L 360.8064 190.4256 
" clip-path="url(#p5faa22ac8b)" style="fill: none; stroke: #b0b0b0; stroke-width: 0.8; stroke-linecap: square"/>
     </g>
     <g id="line2d_26">
      <g>
       <use xlink:href="#m2021876f1d" x="57.6" y="190.4256" style="stroke: #000000; stroke-width: 0.8"/>
      </g>
     </g>
     <g id="text_8">
      <!-- 0.4 -->
      <g transform="translate(25.155 196.50435)scale(0.16 -0.16)">
       <use xlink:href="#DejaVuSans-30"/>
       <use xlink:href="#DejaVuSans-2e" x="63.623047"/>
       <use xlink:href="#DejaVuSans-34" x="95.410156"/>
      </g>
     </g>
    </g>
    <g id="ytick_4">
     <g id="line2d_27">
      <path d="M 57.6 136.1664 
L 360.8064 136.1664 
" clip-path="url(#p5faa22ac8b)" style="fill: none; stroke: #b0b0b0; stroke-width: 0.8; stroke-linecap: square"/>
     </g>
     <g id="line2d_28">
      <g>
       <use xlink:href="#m2021876f1d" x="57.6" y="136.1664" style="stroke: #000000; stroke-width: 0.8"/>
      </g>
     </g>
     <g id="text_9">
      <!-- 0.6 -->
      <g transform="translate(25.155 142.24515)scale(0.16 -0.16)">
       <use xlink:href="#DejaVuSans-30"/>
       <use xlink:href="#DejaVuSans-2e" x="63.623047"/>
       <use xlink:href="#DejaVuSans-36" x="95.410156"/>
      </g>
     </g>
    </g>
    <g id="ytick_5">
     <g id="line2d_29">
      <path d="M 57.6 81.9072 
L 360.8064 81.9072 
" clip-path="url(#p5faa22ac8b)" style="fill: none; stroke: #b0b0b0; stroke-width: 0.8; stroke-linecap: square"/>
     </g>
     <g id="line2d_30">
      <g>
       <use xlink:href="#m2021876f1d" x="57.6" y="81.9072" style="stroke: #000000; stroke-width: 0.8"/>
      </g>
     </g>
     <g id="text_10">
      <!-- 0.8 -->
      <g transform="translate(25.155 87.98595)scale(0.16 -0.16)">
       <defs>
        <path id="DejaVuSans-38" d="M 2034 2216 
Q 1584 2216 1326 1975 
Q 1069 1734 1069 1313 
Q 1069 891 1326 650 
Q 1584 409 2034 409 
Q 2484 409 2743 651 
Q 3003 894 3003 1313 
Q 3003 1734 2745 1975 
Q 2488 2216 2034 2216 
z
M 1403 2484 
Q 997 2584 770 2862 
Q 544 3141 544 3541 
Q 544 4100 942 4425 
Q 1341 4750 2034 4750 
Q 2731 4750 3128 4425 
Q 3525 4100 3525 3541 
Q 3525 3141 3298 2862 
Q 3072 2584 2669 2484 
Q 3125 2378 3379 2068 
Q 3634 1759 3634 1313 
Q 3634 634 3220 271 
Q 2806 -91 2034 -91 
Q 1263 -91 848 271 
Q 434 634 434 1313 
Q 434 1759 690 2068 
Q 947 2378 1403 2484 
z
M 1172 3481 
Q 1172 3119 1398 2916 
Q 1625 2713 2034 2713 
Q 2441 2713 2670 2916 
Q 2900 3119 2900 3481 
Q 2900 3844 2670 4047 
Q 2441 4250 2034 4250 
Q 1625 4250 1398 4047 
Q 1172 3844 1172 3481 
z
" transform="scale(0.015625)"/>
       </defs>
       <use xlink:href="#DejaVuSans-30"/>
       <use xlink:href="#DejaVuSans-2e" x="63.623047"/>
       <use xlink:href="#DejaVuSans-38" x="95.410156"/>
      </g>
     </g>
    </g>
    <g id="ytick_6">
     <g id="line2d_31">
      <path d="M 57.6 27.648 
L 360.8064 27.648 
" clip-path="url(#p5faa22ac8b)" style="fill: none; stroke: #b0b0b0; stroke-width: 0.8; stroke-linecap: square"/>
     </g>
     <g id="line2d_32">
      <g>
       <use xlink:href="#m2021876f1d" x="57.6" y="27.648" style="stroke: #000000; stroke-width: 0.8"/>
      </g>
     </g>
     <g id="text_11">
      <!-- 1.0 -->
      <g transform="translate(25.155 33.72675)scale(0.16 -0.16)">
       <use xlink:href="#DejaVuSans-31"/>
       <use xlink:href="#DejaVuSans-2e" x="63.623047"/>
       <use xlink:href="#DejaVuSans-30" x="95.410156"/>
      </g>
     </g>
    </g>
    <g id="text_12">
     <!-- Fraction of function,target pairs -->
     <g transform="translate(17.619531 297.681)rotate(-90)scale(0.17 -0.17)">
      <defs>
       <path id="DejaVuSans-46" d="M 628 4666 
L 3309 4666 
L 3309 4134 
L 1259 4134 
L 1259 2759 
L 3109 2759 
L 3109 2228 
L 1259 2228 
L 1259 0 
L 628 0 
L 628 4666 
z
" transform="scale(0.015625)"/>
       <path id="DejaVuSans-72" d="M 2631 2963 
Q 2534 3019 2420 3045 
Q 2306 3072 2169 3072 
Q 1681 3072 1420 2755 
Q 1159 2438 1159 1844 
L 1159 0 
L 581 0 
L 581 3500 
L 1159 3500 
L 1159 2956 
Q 1341 3275 1631 3429 
Q 1922 3584 2338 3584 
Q 2397 3584 2469 3576 
Q 2541 3569 2628 3553 
L 2631 2963 
z
" transform="scale(0.015625)"/>
       <path id="DejaVuSans-63" d="M 3122 3366 
L 3122 2828 
Q 2878 2963 2633 3030 
Q 2388 3097 2138 3097 
Q 1578 3097 1268 2742 
Q 959 2388 959 1747 
Q 959 1106 1268 751 
Q 1578 397 2138 397 
Q 2388 397 2633 464 
Q 2878 531 3122 666 
L 3122 134 
Q 2881 22 2623 -34 
Q 2366 -91 2075 -91 
Q 1284 -91 818 406 
Q 353 903 353 1747 
Q 353 2603 823 3093 
Q 1294 3584 2113 3584 
Q 2378 3584 2631 3529 
Q 2884 3475 3122 3366 
z
" transform="scale(0.015625)"/>
       <path id="DejaVuSans-74" d="M 1172 4494 
L 1172 3500 
L 2356 3500 
L 2356 3053 
L 1172 3053 
L 1172 1153 
Q 1172 725 1289 603 
Q 1406 481 1766 481 
L 2356 481 
L 2356 0 
L 1766 0 
Q 1100 0 847 248 
Q 594 497 594 1153 
L 594 3053 
L 172 3053 
L 172 3500 
L 594 3500 
L 594 4494 
L 1172 4494 
z
" transform="scale(0.015625)"/>
       <path id="DejaVuSans-75" d="M 544 1381 
L 544 3500 
L 1119 3500 
L 1119 1403 
Q 1119 906 1312 657 
Q 1506 409 1894 409 
Q 2359 409 2629 706 
Q 2900 1003 2900 1516 
L 2900 3500 
L 3475 3500 
L 3475 0 
L 2900 0 
L 2900 538 
Q 2691 219 2414 64 
Q 2138 -91 1772 -91 
Q 1169 -91 856 284 
Q 544 659 544 1381 
z
M 1991 3584 
L 1991 3584 
z
" transform="scale(0.015625)"/>
       <path id="DejaVuSans-2c" d="M 750 794 
L 1409 794 
L 1409 256 
L 897 -744 
L 494 -744 
L 750 256 
L 750 794 
z
" transform="scale(0.015625)"/>
       <path id="DejaVuSans-70" d="M 1159 525 
L 1159 -1331 
L 581 -1331 
L 581 3500 
L 1159 3500 
L 1159 2969 
Q 1341 3281 1617 3432 
Q 1894 3584 2278 3584 
Q 2916 3584 3314 3078 
Q 3713 2572 3713 1747 
Q 3713 922 3314 415 
Q 2916 -91 2278 -91 
Q 1894 -91 1617 61 
Q 1341 213 1159 525 
z
M 3116 1747 
Q 3116 2381 2855 2742 
Q 2594 3103 2138 3103 
Q 1681 3103 1420 2742 
Q 1159 2381 1159 1747 
Q 1159 1113 1420 752 
Q 1681 391 2138 391 
Q 2594 391 2855 752 
Q 3116 1113 3116 1747 
z
" transform="scale(0.015625)"/>
      </defs>
      <use xlink:href="#DejaVuSans-46"/>
      <use xlink:href="#DejaVuSans-72" x="50.269531"/>
      <use xlink:href="#DejaVuSans-61" x="91.382812"/>
      <use xlink:href="#DejaVuSans-63" x="152.662109"/>
      <use xlink:href="#DejaVuSans-74" x="207.642578"/>
      <use xlink:href="#DejaVuSans-69" x="246.851562"/>
      <use xlink:href="#DejaVuSans-6f" x="274.634766"/>
      <use xlink:href="#DejaVuSans-6e" x="335.816406"/>
      <use xlink:href="#DejaVuSans-20" x="399.195312"/>
      <use xlink:href="#DejaVuSans-6f" x="430.982422"/>
      <use xlink:href="#DejaVuSans-66" x="492.164062"/>
      <use xlink:href="#DejaVuSans-20" x="527.369141"/>
      <use xlink:href="#DejaVuSans-66" x="559.15625"/>
      <use xlink:href="#DejaVuSans-75" x="594.361328"/>
      <use xlink:href="#DejaVuSans-6e" x="657.740234"/>
      <use xlink:href="#DejaVuSans-63" x="721.119141"/>
      <use xlink:href="#DejaVuSans-74" x="776.099609"/>
      <use xlink:href="#DejaVuSans-69" x="815.308594"/>
      <use xlink:href="#DejaVuSans-6f" x="843.091797"/>
      <use xlink:href="#DejaVuSans-6e" x="904.273438"/>
      <use xlink:href="#DejaVuSans-2c" x="967.652344"/>
      <use xlink:href="#DejaVuSans-74" x="999.439453"/>
      <use xlink:href="#DejaVuSans-61" x="1038.648438"/>
      <use xlink:href="#DejaVuSans-72" x="1099.927734"/>
      <use xlink:href="#DejaVuSans-67" x="1139.291016"/>
      <use xlink:href="#DejaVuSans-65" x="1202.767578"/>
      <use xlink:href="#DejaVuSans-74" x="1264.291016"/>
      <use xlink:href="#DejaVuSans-20" x="1303.5"/>
      <use xlink:href="#DejaVuSans-70" x="1335.287109"/>
      <use xlink:href="#DejaVuSans-61" x="1398.763672"/>
      <use xlink:href="#DejaVuSans-69" x="1460.042969"/>
      <use xlink:href="#DejaVuSans-72" x="1487.826172"/>
      <use xlink:href="#DejaVuSans-73" x="1528.939453"/>
     </g>
    </g>
   </g>
   <g id="line2d_33">
    <defs>
     <path id="m3fa5b0ee59" d="M 0 1.5 
C 0.397805 1.5 0.77937 1.341951 1.06066 1.06066 
C 1.341951 0.77937 1.5 0.397805 1.5 0 
C 1.5 -0.397805 1.341951 -0.77937 1.06066 -1.06066 
C 0.77937 -1.341951 0.397805 -1.5 0 -1.5 
C -0.397805 -1.5 -0.77937 -1.341951 -1.06066 -1.06066 
C -1.341951 -0.77937 -1.5 -0.397805 -1.5 0 
C -1.5 0.397805 -1.341951 0.77937 -1.06066 1.06066 
C -0.77937 1.341951 -0.397805 1.5 0 1.5 
z
" style="stroke: #f5deb3"/>
    </defs>
    <g>
     <use xlink:href="#m3fa5b0ee59" x="141.128852" y="27.648" style="fill: #f5deb3; stroke: #f5deb3"/>
     <use xlink:href="#m3fa5b0ee59" x="141.128852" y="27.648" style="fill: #f5deb3; stroke: #f5deb3"/>
    </g>
   </g>
   <g id="line2d_34">
    <defs>
     <path id="m3702e3b22e" d="M 0 1.5 
C 0.397805 1.5 0.77937 1.341951 1.06066 1.06066 
C 1.341951 0.77937 1.5 0.397805 1.5 0 
C 1.5 -0.397805 1.341951 -0.77937 1.06066 -1.06066 
C 0.77937 -1.341951 0.397805 -1.5 0 -1.5 
C -0.397805 -1.5 -0.77937 -1.341951 -1.06066 -1.06066 
C -1.341951 -0.77937 -1.5 -0.397805 -1.5 0 
C -1.5 0.397805 -1.341951 0.77937 -1.06066 1.06066 
C -0.77937 1.341951 -0.397805 1.5 0 1.5 
z
" style="stroke: #000080"/>
    </defs>
    <g>
     <use xlink:href="#m3702e3b22e" x="270.139691" y="27.648" style="fill: #000080; stroke: #000080"/>
     <use xlink:href="#m3702e3b22e" x="270.139691" y="27.648" style="fill: #000080; stroke: #000080"/>
    </g>
   </g>
   <g id="line2d_35">
    <path d="M 144.380294 298.944 
L 144.380294 298.234729 
L 145.076419 298.234729 
L 145.076419 297.880094 
L 145.255407 297.880094 
L 145.255407 297.525459 
L 145.678157 297.525459 
L 145.678157 297.170824 
L 146.023332 297.170824 
L 146.023332 296.816188 
L 146.159649 296.816188 
L 146.159649 296.106918 
L 146.294984 296.106918 
L 146.294984 295.397647 
L 146.695245 295.397647 
L 146.695245 294.688376 
L 146.892226 294.688376 
L 146.892226 294.333741 
L 147.022411 294.333741 
L 147.022411 293.979106 
L 147.471089 293.979106 
L 147.502732 292.9152 
L 148.094045 292.9152 
L 148.094045 291.142024 
L 148.518156 291.142024 
L 148.57797 289.014212 
L 148.637595 289.014212 
L 148.667336 288.304941 
L 148.75628 288.304941 
L 148.785835 287.595671 
L 149.049758 287.595671 
L 149.049758 287.241035 
L 149.223672 287.241035 
L 149.31003 285.822494 
L 149.338728 285.822494 
L 149.338728 285.467859 
L 149.453084 285.467859 
L 149.453084 284.758588 
L 149.847944 284.758588 
L 149.847944 283.694682 
L 150.097474 283.694682 
L 150.207323 282.276141 
L 150.316534 282.276141 
L 150.343738 281.212235 
L 150.533072 281.212235 
L 150.58682 280.502965 
L 150.747146 280.502965 
L 150.747146 280.148329 
L 150.985103 280.148329 
L 151.089903 279.439059 
L 151.194122 279.439059 
L 151.194122 278.729788 
L 151.656094 278.729788 
L 151.656094 278.375153 
L 151.932924 278.375153 
L 151.982822 277.665882 
L 153.398253 277.665882 
L 153.398253 277.311247 
L 154.234459 277.311247 
L 154.278618 276.601976 
L 154.779128 276.601976 
L 154.779128 276.247341 
L 155.140696 276.247341 
L 155.140696 275.892706 
L 157.623641 275.892706 
L 157.623641 275.538071 
L 158.976805 275.538071 
L 158.976805 275.183435 
L 160.158636 275.183435 
L 160.158636 274.8288 
L 160.82432 274.8288 
L 160.87098 274.119529 
L 162.045202 274.119529 
L 162.045202 273.764894 
L 162.435167 273.764894 
L 162.435167 273.410259 
L 163.067666 273.410259 
L 163.067666 273.055624 
L 163.260183 273.055624 
L 163.260183 272.700988 
L 163.585698 272.700988 
L 163.585698 272.346353 
L 165.084184 272.346353 
L 165.084184 271.991718 
L 165.379853 271.991718 
L 165.379853 271.637082 
L 165.945747 271.637082 
L 166.052194 270.927812 
L 166.746854 270.927812 
L 166.746854 270.573176 
L 167.01769 270.573176 
L 167.01769 270.218541 
L 167.339833 270.218541 
L 167.339833 269.863906 
L 167.569712 269.863906 
L 167.569712 269.509271 
L 169.034386 269.509271 
L 169.034386 269.154635 
L 169.609283 269.154635 
L 169.609283 268.8 
L 169.9383 268.8 
L 169.9383 268.090729 
L 170.289928 268.090729 
L 170.289928 267.736094 
L 171.082693 267.736094 
L 171.082693 267.381459 
L 171.342661 267.381459 
L 171.342661 267.026824 
L 171.458043 267.026824 
L 171.458043 266.672188 
L 173.157433 266.672188 
L 173.18167 265.962918 
L 173.824523 265.962918 
L 173.824523 265.608282 
L 174.989276 265.608282 
L 174.996608 264.899012 
L 175.502909 264.899012 
L 175.552798 264.189741 
L 175.687546 264.189741 
L 175.687546 263.835106 
L 176.155155 263.835106 
L 176.155155 263.480471 
L 178.277932 263.480471 
L 178.277932 263.125835 
L 178.643809 263.125835 
L 178.643809 262.7712 
L 179.746203 262.7712 
L 179.746203 262.416565 
L 180.023223 262.416565 
L 180.023223 262.061929 
L 181.547935 262.061929 
L 181.640858 260.643388 
L 181.779386 260.643388 
L 181.779386 259.934118 
L 182.193954 259.934118 
L 182.193954 259.579482 
L 184.14442 259.579482 
L 184.148928 258.870212 
L 185.463008 258.870212 
L 185.463008 258.515576 
L 185.895095 258.515576 
L 185.895095 258.160941 
L 186.184478 258.160941 
L 186.184478 257.806306 
L 186.568809 257.806306 
L 186.60444 257.097035 
L 188.398811 257.097035 
L 188.402406 256.387765 
L 189.814714 256.387765 
L 189.814714 256.033129 
L 190.588908 256.033129 
L 190.588908 255.323859 
L 191.667879 255.323859 
L 191.667879 254.969224 
L 193.221664 254.969224 
L 193.280003 253.905318 
L 193.607217 253.905318 
L 193.607217 253.550682 
L 194.72889 253.550682 
L 194.764809 252.841412 
L 195.122797 252.841412 
L 195.122797 252.486776 
L 195.250622 252.486776 
L 195.32541 251.777506 
L 195.877036 251.777506 
L 195.877036 251.422871 
L 196.306978 251.422871 
L 196.306978 251.068235 
L 196.588243 251.068235 
L 196.632393 250.358965 
L 197.560709 250.358965 
L 197.607045 249.295059 
L 198.613228 249.295059 
L 198.613228 248.940424 
L 199.156797 248.940424 
L 199.156797 248.585788 
L 200.210488 248.585788 
L 200.210488 248.231153 
L 200.469673 248.231153 
L 200.573484 247.521882 
L 201.306291 247.521882 
L 201.306291 247.167247 
L 201.994172 247.167247 
L 201.994172 246.812612 
L 202.324618 246.812612 
L 202.324618 246.457976 
L 202.802128 246.457976 
L 202.802128 246.103341 
L 204.918903 246.103341 
L 204.918903 245.748706 
L 206.241352 245.748706 
L 206.241352 245.394071 
L 207.985099 245.394071 
L 207.985099 245.039435 
L 208.560114 245.039435 
L 208.649772 244.330165 
L 209.208686 244.330165 
L 209.208686 243.975529 
L 212.144148 243.975529 
L 212.144148 243.620894 
L 212.68971 243.620894 
L 212.68971 243.266259 
L 213.603245 243.266259 
L 213.634292 242.202353 
L 214.287444 242.202353 
L 214.287444 241.847718 
L 214.607047 241.847718 
L 214.607047 241.493082 
L 214.757309 241.493082 
L 214.757309 241.138447 
L 217.108488 241.138447 
L 217.108488 240.783812 
L 221.024908 240.783812 
L 221.024908 240.429176 
L 222.437797 240.429176 
L 222.437797 240.074541 
L 223.168737 240.074541 
L 223.168737 239.719906 
L 224.513694 239.719906 
L 224.513694 239.365271 
L 227.45962 239.365271 
L 227.45962 239.010635 
L 228.184328 239.010635 
L 228.184328 238.656 
L 229.065986 238.656 
L 229.11889 237.946729 
L 229.541695 237.946729 
L 229.583216 237.237459 
L 229.897082 237.237459 
L 229.959547 236.528188 
L 230.825024 236.528188 
L 230.839719 235.818918 
L 231.096716 235.818918 
L 231.113799 235.109647 
L 231.2547 235.109647 
L 231.317229 234.400376 
L 231.521752 234.400376 
L 231.631494 233.336471 
L 231.648459 233.336471 
L 231.678742 232.6272 
L 231.785067 232.6272 
L 231.785067 232.272565 
L 232.075458 232.272565 
L 232.10154 231.563294 
L 232.314478 231.563294 
L 232.370463 230.854024 
L 232.572153 230.854024 
L 232.660914 229.435482 
L 232.792425 229.435482 
L 232.889953 228.371576 
L 232.951661 228.371576 
L 233.05674 227.662306 
L 233.079157 227.662306 
L 233.079157 227.307671 
L 233.335543 227.307671 
L 233.438833 225.534494 
L 233.454573 225.534494 
L 233.496808 224.825224 
L 233.590109 224.825224 
L 233.599544 224.115953 
L 233.797555 224.115953 
L 233.883614 223.052047 
L 234.132816 223.052047 
L 234.228371 222.342776 
L 234.358464 222.342776 
L 234.438579 219.860329 
L 234.5041 219.860329 
L 234.570629 219.151059 
L 234.642464 219.151059 
L 234.642464 218.796424 
L 234.759951 218.796424 
L 234.853598 218.087153 
L 234.924362 218.087153 
L 235.026847 216.668612 
L 235.225084 216.668612 
L 235.225084 216.313976 
L 235.43542 216.313976 
L 235.43542 215.959341 
L 235.722335 215.959341 
L 235.768186 214.895435 
L 235.899315 214.895435 
L 235.899315 214.5408 
L 236.041539 214.5408 
L 236.135287 213.831529 
L 236.202815 213.831529 
L 236.30985 212.058353 
L 236.42076 212.058353 
L 236.468852 210.994447 
L 236.561333 210.994447 
L 236.644788 210.285176 
L 237.009716 210.285176 
L 237.107142 209.575906 
L 237.272152 209.575906 
L 237.381271 208.157365 
L 237.45031 208.157365 
L 237.489761 207.448094 
L 237.575262 207.448094 
L 237.575262 207.093459 
L 237.703051 207.093459 
L 237.802164 206.384188 
L 237.853082 206.384188 
L 237.924033 204.965647 
L 237.99446 204.965647 
L 237.99446 204.611012 
L 238.115093 204.611012 
L 238.178436 203.192471 
L 238.515297 203.192471 
L 238.515297 202.837835 
L 238.707418 202.837835 
L 238.790286 201.064659 
L 238.830968 201.064659 
L 238.922122 199.646118 
L 238.984763 199.646118 
L 238.994776 198.936847 
L 239.174107 198.936847 
L 239.226513 198.227576 
L 239.411779 198.227576 
L 239.437075 197.163671 
L 239.652381 197.163671 
L 239.734016 195.745129 
L 239.794483 195.745129 
L 239.850092 194.681224 
L 239.911584 194.681224 
L 240.012931 193.617318 
L 240.090255 193.617318 
L 240.103611 192.908047 
L 240.216063 192.908047 
L 240.216063 192.553412 
L 240.372375 192.553412 
L 240.466987 191.134871 
L 240.527848 191.134871 
L 240.631534 189.716329 
L 240.820375 189.716329 
L 240.877455 189.007059 
L 240.995928 189.007059 
L 241.061887 187.588518 
L 241.142868 187.588518 
L 241.214825 186.169976 
L 241.299257 186.169976 
L 241.406951 185.106071 
L 241.41189 185.106071 
L 241.509974 184.042165 
L 241.631759 184.042165 
L 241.739893 182.623624 
L 241.75297 182.623624 
L 241.827677 181.559718 
L 241.932814 181.559718 
L 242.028642 180.141176 
L 242.049202 180.141176 
L 242.110954 179.431906 
L 242.160335 179.431906 
L 242.26425 178.013365 
L 242.300331 178.013365 
L 242.355958 176.240188 
L 242.422005 176.240188 
L 242.516796 173.403106 
L 242.534807 173.403106 
L 242.644725 171.629929 
L 242.660404 171.629929 
L 242.748206 170.566024 
L 242.777182 170.566024 
L 242.84933 169.147482 
L 242.908713 169.147482 
L 243.006022 167.019671 
L 243.041497 167.019671 
L 243.09321 166.3104 
L 243.188986 166.3104 
L 243.247892 165.601129 
L 243.331062 165.601129 
L 243.433352 163.473318 
L 243.587951 163.473318 
L 243.645624 162.764047 
L 243.735788 162.764047 
L 243.78544 162.054776 
L 243.863822 162.054776 
L 243.949196 161.345506 
L 243.97863 161.345506 
L 244.048188 160.2816 
L 244.161881 160.2816 
L 244.161881 159.926965 
L 244.425679 159.926965 
L 244.443598 159.217694 
L 244.58942 159.217694 
L 244.58942 158.863059 
L 244.743295 158.863059 
L 244.836595 157.799153 
L 244.867355 157.799153 
L 244.963954 156.025976 
L 245.024476 156.025976 
L 245.130497 154.962071 
L 245.146877 154.962071 
L 245.204358 153.543529 
L 245.298548 153.543529 
L 245.369665 151.770353 
L 245.448139 151.770353 
L 245.559041 148.933271 
L 245.571265 148.933271 
L 245.655932 146.805459 
L 245.70231 146.805459 
L 245.765618 144.323012 
L 245.826676 144.323012 
L 245.933855 139.712753 
L 245.973827 139.712753 
L 245.973827 139.358118 
L 246.125018 139.358118 
L 246.165754 138.648847 
L 246.286937 138.648847 
L 246.3856 137.584941 
L 246.486371 137.584941 
L 246.486371 137.230306 
L 246.667807 137.230306 
L 246.667807 136.875671 
L 246.78016 136.875671 
L 246.851368 135.457129 
L 246.925031 135.457129 
L 246.994258 134.038588 
L 247.11214 134.038588 
L 247.11214 133.683953 
L 247.224085 133.683953 
L 247.318279 131.910776 
L 247.367624 131.910776 
L 247.446309 130.492235 
L 247.502156 130.492235 
L 247.585386 129.428329 
L 247.636658 129.428329 
L 247.722981 128.364424 
L 247.774493 128.364424 
L 247.868262 127.300518 
L 247.892621 127.300518 
L 247.965507 126.591247 
L 248.041886 126.591247 
L 248.141093 125.172706 
L 248.159402 125.172706 
L 248.23231 123.754165 
L 248.296898 123.754165 
L 248.351022 123.044894 
L 248.417423 123.044894 
L 248.524681 121.626353 
L 248.566855 121.626353 
L 248.64946 120.207812 
L 248.719041 120.207812 
L 248.820833 118.434635 
L 248.83473 118.434635 
L 248.905649 116.306824 
L 248.950431 116.306824 
L 249.038102 115.242918 
L 249.066568 115.242918 
L 249.157115 113.824376 
L 249.222153 113.824376 
L 249.292476 113.115106 
L 249.369431 113.115106 
L 249.409755 112.0512 
L 249.505513 112.0512 
L 249.595366 108.859482 
L 249.619949 108.859482 
L 249.70691 107.440941 
L 249.750791 107.440941 
L 249.848535 104.958494 
L 249.939771 104.958494 
L 250.029888 103.894588 
L 250.05635 103.894588 
L 250.098343 101.766776 
L 250.220266 101.766776 
L 250.327775 98.575059 
L 250.377434 98.575059 
L 250.410068 96.447247 
L 250.523909 96.447247 
L 250.620623 93.255529 
L 250.655991 93.255529 
L 250.725743 92.191624 
L 250.806187 92.191624 
L 250.907038 89.709176 
L 250.985292 89.709176 
L 251.075815 87.936 
L 251.223984 87.936 
L 251.317173 86.517459 
L 251.39008 86.517459 
L 251.480189 84.035012 
L 251.552217 84.035012 
L 251.653767 82.616471 
L 251.664851 82.616471 
L 251.761213 81.9072 
L 251.861767 81.9072 
L 251.968648 80.488659 
L 252.040908 80.488659 
L 252.040908 80.134024 
L 252.308807 80.134024 
L 252.308807 79.779388 
L 252.71135 79.779388 
L 252.760862 79.070118 
L 252.872461 79.070118 
L 252.872461 78.715482 
L 253.066094 78.715482 
L 253.144627 78.006212 
L 253.311554 78.006212 
L 253.399973 76.587671 
L 253.47837 76.587671 
L 253.557456 75.523765 
L 253.678876 75.523765 
L 253.78295 73.395953 
L 253.811962 73.395953 
L 253.890545 71.622776 
L 253.937714 71.622776 
L 254.01973 69.494965 
L 254.083772 69.494965 
L 254.19391 68.431059 
L 254.199242 68.431059 
L 254.284352 66.303247 
L 254.36153 66.303247 
L 254.451602 65.239341 
L 254.484852 65.239341 
L 254.57007 64.175435 
L 254.646193 64.175435 
L 254.718199 62.402259 
L 254.773475 62.402259 
L 254.854141 61.692988 
L 254.886478 61.692988 
L 254.963528 60.274447 
L 255.006835 60.274447 
L 255.105285 58.855906 
L 255.400339 58.855906 
L 255.400339 58.501271 
L 255.563056 58.501271 
L 255.563056 58.146635 
L 255.762064 58.146635 
L 255.826538 57.082729 
L 256.046577 57.082729 
L 256.046577 56.728094 
L 256.232653 56.728094 
L 256.28434 55.309553 
L 256.401911 55.309553 
L 256.418163 54.600282 
L 256.71195 54.600282 
L 256.71195 54.245647 
L 256.823479 54.245647 
L 256.823479 53.891012 
L 257.014151 53.891012 
L 257.095573 52.472471 
L 257.187786 52.472471 
L 257.280381 51.7632 
L 257.501131 51.7632 
L 257.574839 51.053929 
L 257.760873 51.053929 
L 257.760873 50.699294 
L 257.878275 50.699294 
L 257.983652 49.635388 
L 258.304424 49.635388 
L 258.304424 49.280753 
L 258.491125 49.280753 
L 258.564858 48.571482 
L 258.622227 48.571482 
L 258.648011 47.507576 
L 258.904865 47.507576 
L 258.975984 46.089035 
L 259.655274 46.089035 
L 259.756522 44.670494 
L 259.828371 44.670494 
L 259.847077 43.606588 
L 260.613113 43.606588 
L 260.613113 43.251953 
L 260.728274 43.251953 
L 260.728274 42.897318 
L 261.004606 42.897318 
L 261.004606 42.542682 
L 261.759526 42.542682 
L 261.759526 42.188047 
L 262.128955 42.188047 
L 262.228694 40.769506 
L 262.33744 40.769506 
L 262.361145 40.060235 
L 262.467658 40.060235 
L 262.535818 39.350965 
L 262.67161 39.350965 
L 262.67161 38.996329 
L 263.133525 38.996329 
L 263.133525 38.641694 
L 263.296575 38.641694 
L 263.296575 38.287059 
L 264.495523 38.287059 
L 264.495523 37.932424 
L 265.010517 37.932424 
L 265.112333 37.223153 
L 265.290507 37.223153 
L 265.305465 36.513882 
L 265.417751 36.513882 
L 265.434584 34.386071 
L 265.562049 34.386071 
L 265.637962 33.6768 
L 265.75753 33.6768 
L 265.75753 33.322165 
L 266.550528 33.322165 
L 266.550528 32.967529 
L 266.705798 32.967529 
L 266.783374 31.548988 
L 269.63165 31.548988 
L 269.63165 31.194353 
L 269.943066 31.194353 
L 270.031719 29.066541 
L 270.093333 29.066541 
L 270.139691 27.648 
L 360.8064 27.648 
L 360.8064 27.648 
" style="fill: none; stroke: #000080; stroke-width: 1.5; stroke-linecap: square"/>
   </g>
   <g id="line2d_36">
    <defs>
     <path id="m59f49dffcb" d="M 0 6 
C 1.591219 6 3.117479 5.367802 4.242641 4.242641 
C 5.367802 3.117479 6 1.591219 6 0 
C 6 -1.591219 5.367802 -3.117479 4.242641 -4.242641 
C 3.117479 -5.367802 1.591219 -6 0 -6 
C -1.591219 -6 -3.117479 -5.367802 -4.242641 -4.242641 
C -5.367802 -3.117479 -6 -1.591219 -6 0 
C -6 1.591219 -5.367802 3.117479 -4.242641 4.242641 
C -3.117479 5.367802 -1.591219 6 0 6 
z
" style="stroke: #000080; stroke-width: 1.5"/>
    </defs>
    <g>
     <use xlink:href="#m59f49dffcb" x="212.68971" y="243.620894" style="fill-opacity: 0; stroke: #000080; stroke-width: 1.5"/>
     <use xlink:href="#m59f49dffcb" x="245.833976" y="143.613741" style="fill-opacity: 0; stroke: #000080; stroke-width: 1.5"/>
     <use xlink:href="#m59f49dffcb" x="270.139691" y="28.711906" style="fill-opacity: 0; stroke: #000080; stroke-width: 1.5"/>
     <use xlink:href="#m59f49dffcb" x="270.139691" y="27.648" style="fill-opacity: 0; stroke: #000080; stroke-width: 1.5"/>
     <use xlink:href="#m59f49dffcb" x="360.8064" y="27.648" style="fill-opacity: 0; stroke: #000080; stroke-width: 1.5"/>
    </g>
   </g>
   <g id="line2d_37">
    <path style="fill: none; stroke: #000080; stroke-width: 1.5; stroke-linecap: square"/>
    <g/>
   </g>
   <g id="line2d_38">
    <defs>
     <path id="mbc63384502" d="M 0 1.5 
C 0.397805 1.5 0.77937 1.341951 1.06066 1.06066 
C 1.341951 0.77937 1.5 0.397805 1.5 0 
C 1.5 -0.397805 1.341951 -0.77937 1.06066 -1.06066 
C 0.77937 -1.341951 0.397805 -1.5 0 -1.5 
C -0.397805 -1.5 -0.77937 -1.341951 -1.06066 -1.06066 
C -1.341951 -0.77937 -1.5 -0.397805 -1.5 0 
C -1.5 0.397805 -1.341951 0.77937 -1.06066 1.06066 
C -0.77937 1.341951 -0.397805 1.5 0 1.5 
z
" style="stroke: #ff00ff"/>
    </defs>
    <g>
     <use xlink:href="#mbc63384502" x="307.802067" y="27.648" style="fill: #ff00ff; stroke: #ff00ff"/>
     <use xlink:href="#mbc63384502" x="307.802067" y="27.648" style="fill: #ff00ff; stroke: #ff00ff"/>
    </g>
   </g>
   <g id="line2d_39">
    <path d="M 123.374735 298.944 
L 123.374735 298.589365 
L 123.713691 298.589365 
L 123.713691 298.234729 
L 125.219419 298.234729 
L 125.219419 296.816188 
L 127.18073 296.816188 
L 127.18073 296.461553 
L 127.640693 296.461553 
L 127.640693 295.752282 
L 128.178203 295.752282 
L 128.178203 295.397647 
L 130.501519 295.397647 
L 130.501519 295.043012 
L 131.71071 295.043012 
L 131.71071 294.688376 
L 131.856536 294.688376 
L 131.856536 293.979106 
L 132.144842 293.979106 
L 132.144842 292.9152 
L 132.638982 292.9152 
L 132.638982 292.560565 
L 133.323114 292.560565 
L 133.323114 292.205929 
L 134.047992 292.205929 
L 134.047992 291.851294 
L 134.620977 291.851294 
L 134.620977 290.787388 
L 135.177024 290.787388 
L 135.177024 290.432753 
L 136.808769 290.432753 
L 136.808769 290.078118 
L 138.206842 290.078118 
L 138.310202 288.659576 
L 139.843661 288.659576 
L 139.843661 287.950306 
L 141.084433 287.950306 
L 141.084433 287.595671 
L 141.436884 287.595671 
L 141.523975 285.113224 
L 143.501625 285.113224 
L 143.501625 284.758588 
L 145.076419 284.758588 
L 145.112353 284.049318 
L 145.291002 284.049318 
L 145.361989 283.340047 
L 147.785146 283.340047 
L 147.785146 282.985412 
L 148.697031 282.985412 
L 148.75628 281.566871 
L 150.667154 281.566871 
L 150.72052 279.793694 
L 151.063758 279.793694 
L 151.063758 279.439059 
L 151.297768 279.439059 
L 151.375128 276.956612 
L 151.882893 276.956612 
L 151.95789 276.247341 
L 152.082223 276.247341 
L 152.082223 275.892706 
L 152.20574 275.892706 
L 152.20574 275.538071 
L 152.328451 275.538071 
L 152.328451 275.183435 
L 153.001222 275.183435 
L 153.02481 274.119529 
L 154.410475 274.119529 
L 154.410475 273.410259 
L 154.541415 273.410259 
L 154.606544 272.346353 
L 154.843441 272.346353 
L 154.843441 271.991718 
L 155.035072 271.991718 
L 155.035072 271.637082 
L 155.557358 271.637082 
L 155.577951 270.218541 
L 155.741887 270.218541 
L 155.741887 269.863906 
L 156.225294 269.863906 
L 156.225294 269.509271 
L 157.004352 269.509271 
L 157.004352 269.154635 
L 157.118477 269.154635 
L 157.118477 268.8 
L 157.475372 268.8 
L 157.493969 268.090729 
L 157.605171 268.090729 
L 157.605171 267.736094 
L 157.862113 267.736094 
L 157.862113 267.381459 
L 158.577468 267.381459 
L 158.577468 267.026824 
L 158.993977 267.026824 
L 158.993977 266.317553 
L 159.468527 266.317553 
L 159.468527 265.962918 
L 159.767393 265.962918 
L 159.767393 265.608282 
L 160.029123 265.608282 
L 160.029123 265.253647 
L 160.573496 265.253647 
L 160.573496 264.189741 
L 160.746296 264.189741 
L 160.746296 263.835106 
L 161.632069 263.835106 
L 161.632069 263.125835 
L 161.810238 263.125835 
L 161.839769 262.416565 
L 162.088932 262.416565 
L 162.088932 262.061929 
L 162.492258 262.061929 
L 162.492258 261.707294 
L 163.150415 261.707294 
L 163.150415 261.352659 
L 163.639407 261.352659 
L 163.639407 260.998024 
L 164.168227 260.998024 
L 164.168227 260.643388 
L 164.63178 260.643388 
L 164.63178 260.288753 
L 165.281812 260.288753 
L 165.281812 259.934118 
L 165.91013 259.934118 
L 165.91013 259.579482 
L 166.087543 259.579482 
L 166.134572 258.870212 
L 166.39115 258.870212 
L 166.39115 258.160941 
L 166.712723 258.160941 
L 166.712723 257.806306 
L 167.028891 257.806306 
L 167.028891 257.097035 
L 167.427738 257.097035 
L 167.427738 256.7424 
L 168.169334 256.7424 
L 168.169334 256.387765 
L 168.699272 256.387765 
L 168.699272 256.033129 
L 168.852337 256.033129 
L 168.852337 255.678494 
L 169.104709 255.678494 
L 169.104709 255.323859 
L 171.010341 255.323859 
L 171.0194 254.259953 
L 171.747795 254.259953 
L 171.747795 253.905318 
L 172.084572 253.905318 
L 172.084572 253.550682 
L 174.812433 253.550682 
L 174.812433 253.196047 
L 175.445731 253.196047 
L 175.445731 252.841412 
L 175.835365 252.841412 
L 175.835365 252.486776 
L 175.947214 252.486776 
L 175.947214 252.132141 
L 176.818842 252.132141 
L 176.818842 251.777506 
L 176.991062 251.777506 
L 177.070019 251.068235 
L 179.144367 251.068235 
L 179.144367 250.7136 
L 180.570768 250.7136 
L 180.570768 250.358965 
L 180.841365 250.358965 
L 180.841365 250.004329 
L 182.203953 250.004329 
L 182.203953 249.649694 
L 182.721531 249.649694 
L 182.721531 249.295059 
L 182.948674 249.295059 
L 182.948674 248.940424 
L 183.743481 248.940424 
L 183.835357 248.231153 
L 184.448488 248.231153 
L 184.448488 247.876518 
L 185.289901 247.876518 
L 185.289901 247.521882 
L 185.458805 247.521882 
L 185.458805 247.167247 
L 186.976493 247.167247 
L 186.976493 246.812612 
L 187.150193 246.812612 
L 187.150193 246.457976 
L 187.348935 246.457976 
L 187.348935 246.103341 
L 187.74023 246.103341 
L 187.751397 245.394071 
L 187.977042 245.394071 
L 187.977042 245.039435 
L 189.379531 245.039435 
L 189.379531 244.6848 
L 190.713308 244.6848 
L 190.713308 244.330165 
L 191.540528 244.330165 
L 191.540528 243.975529 
L 191.704108 243.975529 
L 191.704108 243.620894 
L 192.157061 243.620894 
L 192.157061 243.266259 
L 192.610864 243.266259 
L 192.610864 242.911624 
L 193.154769 242.911624 
L 193.154769 242.556988 
L 193.538945 242.556988 
L 193.612668 241.847718 
L 194.439038 241.847718 
L 194.439038 241.493082 
L 194.662 241.493082 
L 194.751989 240.429176 
L 195.944565 240.429176 
L 195.992651 239.719906 
L 196.069336 239.719906 
L 196.069336 239.365271 
L 197.657664 239.365271 
L 197.657664 239.010635 
L 198.109354 239.010635 
L 198.109354 238.656 
L 198.686201 238.656 
L 198.686201 238.301365 
L 198.864315 238.301365 
L 198.882858 237.592094 
L 199.057087 237.592094 
L 199.057087 237.237459 
L 200.031173 237.237459 
L 200.031173 236.882824 
L 200.443156 236.882824 
L 200.443156 236.528188 
L 202.530993 236.528188 
L 202.530993 236.173553 
L 203.001705 236.173553 
L 203.001705 235.818918 
L 203.181169 235.818918 
L 203.181169 235.464282 
L 203.417284 235.464282 
L 203.470609 234.045741 
L 204.142634 234.045741 
L 204.142634 233.336471 
L 204.363977 233.336471 
L 204.363977 232.981835 
L 205.407044 232.981835 
L 205.407044 232.272565 
L 205.882838 232.272565 
L 205.882838 231.917929 
L 206.08894 231.917929 
L 206.08894 231.563294 
L 206.274745 231.563294 
L 206.321951 230.854024 
L 206.584958 230.854024 
L 206.632757 230.144753 
L 206.90762 230.144753 
L 206.933142 229.435482 
L 208.663245 229.435482 
L 208.663245 229.080847 
L 209.343791 229.080847 
L 209.343791 228.726212 
L 210.376535 228.726212 
L 210.388827 228.016941 
L 210.733069 228.016941 
L 210.733069 227.662306 
L 211.338535 227.662306 
L 211.338535 227.307671 
L 211.530847 227.307671 
L 211.530847 226.953035 
L 212.189882 226.953035 
L 212.189882 226.5984 
L 212.435946 226.5984 
L 212.435946 226.243765 
L 212.675866 226.243765 
L 212.675866 225.889129 
L 213.607952 225.889129 
L 213.615482 225.179859 
L 214.192776 225.179859 
L 214.192776 224.825224 
L 214.340939 224.825224 
L 214.368081 224.115953 
L 214.615972 224.115953 
L 214.615972 223.761318 
L 216.010249 223.761318 
L 216.010249 223.406682 
L 216.185901 223.406682 
L 216.185901 223.052047 
L 216.828976 223.052047 
L 216.828976 222.697412 
L 217.185701 222.697412 
L 217.202816 221.988141 
L 217.453862 221.988141 
L 217.453862 221.633506 
L 217.614313 221.633506 
L 217.614313 221.278871 
L 219.720969 221.278871 
L 219.72845 220.5696 
L 220.264676 220.5696 
L 220.360252 219.860329 
L 220.664812 219.860329 
L 220.664812 219.505694 
L 220.952419 219.505694 
L 220.952419 219.151059 
L 221.361416 219.151059 
L 221.423652 218.441788 
L 221.651539 218.441788 
L 221.651539 218.087153 
L 222.141705 218.087153 
L 222.141705 217.732518 
L 222.80624 217.732518 
L 222.80624 217.377882 
L 223.121677 217.377882 
L 223.121677 217.023247 
L 223.673821 217.023247 
L 223.742606 216.313976 
L 224.193603 216.313976 
L 224.193603 215.959341 
L 224.402122 215.959341 
L 224.402122 215.604706 
L 224.955028 215.604706 
L 224.955028 215.250071 
L 225.582517 215.250071 
L 225.582517 214.895435 
L 225.989509 214.895435 
L 226.020679 214.186165 
L 226.847045 214.186165 
L 226.896346 213.476894 
L 227.051311 213.476894 
L 227.056839 212.767624 
L 227.795598 212.767624 
L 227.795598 212.412988 
L 228.00608 212.412988 
L 228.00608 212.058353 
L 228.277787 212.058353 
L 228.366488 211.349082 
L 228.597465 211.349082 
L 228.597465 210.994447 
L 228.735291 210.994447 
L 228.78157 210.285176 
L 229.393816 210.285176 
L 229.428357 209.575906 
L 229.584826 209.575906 
L 229.584826 209.221271 
L 229.910541 209.221271 
L 229.944148 208.512 
L 230.13789 208.512 
L 230.13789 208.157365 
L 230.850263 208.157365 
L 230.850263 207.802729 
L 231.052078 207.802729 
L 231.052078 207.448094 
L 231.490488 207.448094 
L 231.490488 207.093459 
L 231.617405 207.093459 
L 231.710056 206.384188 
L 231.876542 206.384188 
L 231.902901 205.674918 
L 232.526754 205.674918 
L 232.545684 204.965647 
L 233.379363 204.965647 
L 233.379363 204.611012 
L 233.537644 204.611012 
L 233.537644 204.256376 
L 233.744698 204.256376 
L 233.744698 203.901741 
L 233.913706 203.901741 
L 233.913706 203.547106 
L 234.078356 203.547106 
L 234.078356 203.192471 
L 234.417414 203.192471 
L 234.417414 202.837835 
L 234.549922 202.837835 
L 234.549922 202.4832 
L 234.758116 202.4832 
L 234.758116 202.128565 
L 234.94133 202.128565 
L 234.94133 201.773929 
L 235.126676 201.773929 
L 235.126676 201.419294 
L 235.413577 201.419294 
L 235.413577 201.064659 
L 235.52636 201.064659 
L 235.52636 200.710024 
L 235.936408 200.710024 
L 235.946747 200.000753 
L 236.236488 200.000753 
L 236.297173 199.291482 
L 236.701691 199.291482 
L 236.701691 198.936847 
L 237.377546 198.936847 
L 237.377546 198.582212 
L 237.786549 198.582212 
L 237.891439 197.518306 
L 237.969982 197.518306 
L 238.074113 196.4544 
L 238.129926 196.4544 
L 238.129926 196.099765 
L 238.368205 196.099765 
L 238.39343 195.390494 
L 238.515548 195.390494 
L 238.515548 195.035859 
L 239.245074 195.035859 
L 239.336165 193.971953 
L 239.55831 193.971953 
L 239.55831 193.617318 
L 240.149591 193.617318 
L 240.149591 193.262682 
L 240.740438 193.262682 
L 240.8268 192.198776 
L 241.091613 192.198776 
L 241.126743 191.489506 
L 241.271155 191.489506 
L 241.271155 191.134871 
L 242.044012 191.134871 
L 242.153731 190.4256 
L 242.227688 190.4256 
L 242.227688 190.070965 
L 242.511936 190.070965 
L 242.54694 189.361694 
L 242.660203 189.361694 
L 242.660203 189.007059 
L 242.954464 189.007059 
L 242.954464 188.652424 
L 243.085551 188.652424 
L 243.153396 187.943153 
L 243.38508 187.943153 
L 243.488039 186.879247 
L 243.696655 186.879247 
L 243.696655 186.524612 
L 243.981253 186.524612 
L 244.001658 185.815341 
L 244.117676 185.815341 
L 244.224111 185.106071 
L 244.361177 185.106071 
L 244.394739 184.3968 
L 244.486497 184.3968 
L 244.486497 184.042165 
L 244.766305 184.042165 
L 244.816539 183.332894 
L 245.585374 183.332894 
L 245.585374 182.978259 
L 245.75011 182.978259 
L 245.83805 182.268988 
L 245.876024 182.268988 
L 245.876024 181.914353 
L 246.23683 181.914353 
L 246.272682 181.205082 
L 246.477516 181.205082 
L 246.580244 180.141176 
L 246.610726 180.141176 
L 246.714999 179.431906 
L 246.848152 179.431906 
L 246.848152 179.077271 
L 247.07261 179.077271 
L 247.07261 178.722635 
L 247.292851 178.722635 
L 247.292851 178.368 
L 247.424485 178.368 
L 247.440388 177.658729 
L 247.863234 177.658729 
L 247.90053 176.949459 
L 248.117055 176.949459 
L 248.117055 176.594824 
L 248.276635 176.594824 
L 248.353991 175.885553 
L 248.543943 175.885553 
L 248.633524 175.176282 
L 248.729667 175.176282 
L 248.729667 174.821647 
L 249.178724 174.821647 
L 249.196619 174.112376 
L 249.290216 174.112376 
L 249.290216 173.757741 
L 249.434021 173.757741 
L 249.434021 173.403106 
L 249.781228 173.403106 
L 249.782604 172.693835 
L 249.932538 172.693835 
L 250.019836 171.984565 
L 250.182182 171.984565 
L 250.275571 171.275294 
L 250.329913 171.275294 
L 250.329913 170.920659 
L 250.531977 170.920659 
L 250.558139 170.211388 
L 250.670697 170.211388 
L 250.779193 169.502118 
L 250.7895 169.502118 
L 250.7895 169.147482 
L 250.999743 169.147482 
L 250.999743 168.792847 
L 251.220033 168.792847 
L 251.288744 168.083576 
L 251.37896 168.083576 
L 251.37896 167.728941 
L 251.633576 167.728941 
L 251.723149 167.019671 
L 252.032486 167.019671 
L 252.113621 165.955765 
L 252.287741 165.955765 
L 252.3391 164.891859 
L 252.462174 164.891859 
L 252.564757 163.827953 
L 252.648597 163.827953 
L 252.648597 163.473318 
L 253.008456 163.473318 
L 253.023983 162.764047 
L 253.178544 162.764047 
L 253.252377 162.054776 
L 253.313721 162.054776 
L 253.313721 161.700141 
L 253.763919 161.700141 
L 253.763919 161.345506 
L 253.90326 161.345506 
L 253.93959 160.636235 
L 254.052655 160.636235 
L 254.12773 159.572329 
L 254.230443 159.572329 
L 254.276985 158.863059 
L 254.423561 158.863059 
L 254.423561 158.508424 
L 254.779067 158.508424 
L 254.865276 156.025976 
L 254.900635 156.025976 
L 254.900635 155.671341 
L 255.11192 155.671341 
L 255.216422 154.962071 
L 255.607529 154.962071 
L 255.703898 153.898165 
L 255.811863 153.898165 
L 255.890195 153.188894 
L 256.037501 153.188894 
L 256.037501 152.834259 
L 256.215066 152.834259 
L 256.224741 152.124988 
L 256.433919 152.124988 
L 256.45024 151.415718 
L 256.601575 151.415718 
L 256.695759 149.997176 
L 256.832278 149.997176 
L 256.923717 148.933271 
L 256.945732 148.933271 
L 256.945732 148.578635 
L 257.089789 148.578635 
L 257.089789 148.224 
L 257.510531 148.224 
L 257.510531 147.869365 
L 257.621702 147.869365 
L 257.701445 145.741553 
L 257.743578 145.741553 
L 257.78184 145.032282 
L 257.890262 145.032282 
L 257.890262 144.677647 
L 258.035721 144.677647 
L 258.043971 143.968376 
L 258.281317 143.968376 
L 258.350292 143.259106 
L 258.41258 143.259106 
L 258.41258 142.904471 
L 258.606739 142.904471 
L 258.606739 142.549835 
L 258.722074 142.549835 
L 258.804026 141.840565 
L 258.898425 141.840565 
L 258.993701 140.067388 
L 259.03506 140.067388 
L 259.103426 139.358118 
L 259.209013 139.358118 
L 259.209013 139.003482 
L 259.414387 139.003482 
L 259.421395 137.939576 
L 259.771254 137.939576 
L 259.835872 137.230306 
L 259.993734 137.230306 
L 260.098033 136.1664 
L 260.134338 136.1664 
L 260.145128 135.457129 
L 260.302394 135.457129 
L 260.407034 134.393224 
L 260.612494 134.393224 
L 260.707115 133.683953 
L 260.810452 133.683953 
L 260.872824 132.974682 
L 260.948143 132.974682 
L 261.018392 132.265412 
L 261.134342 132.265412 
L 261.233644 131.201506 
L 261.294332 131.201506 
L 261.324454 130.492235 
L 261.407189 130.492235 
L 261.449864 129.782965 
L 261.593402 129.782965 
L 261.634631 129.073694 
L 261.794872 129.073694 
L 261.852765 128.009788 
L 261.933936 128.009788 
L 261.999886 127.300518 
L 262.113388 127.300518 
L 262.113388 126.945882 
L 262.275498 126.945882 
L 262.361004 125.881976 
L 262.437628 125.881976 
L 262.522891 124.818071 
L 262.598999 124.818071 
L 262.67168 124.1088 
L 262.715873 124.1088 
L 262.78197 123.399529 
L 262.887299 123.399529 
L 262.925037 122.335624 
L 263.160303 122.335624 
L 263.243234 121.626353 
L 263.286912 121.626353 
L 263.35331 120.562447 
L 263.417874 120.562447 
L 263.488528 119.498541 
L 263.563348 119.498541 
L 263.671375 118.434635 
L 263.731385 118.434635 
L 263.819999 117.725365 
L 263.872967 117.725365 
L 263.91417 116.661459 
L 264.232609 116.661459 
L 264.34271 115.597553 
L 264.351782 115.597553 
L 264.437969 114.533647 
L 264.469762 114.533647 
L 264.481293 113.824376 
L 264.641174 113.824376 
L 264.641174 113.469741 
L 264.754441 113.469741 
L 264.754441 113.115106 
L 264.875977 113.115106 
L 264.982079 112.405835 
L 265.00721 112.405835 
L 265.078191 110.632659 
L 265.215963 110.632659 
L 265.313542 109.923388 
L 265.335525 109.923388 
L 265.335525 109.568753 
L 265.515424 109.568753 
L 265.51757 108.859482 
L 265.652232 108.859482 
L 265.743811 107.086306 
L 265.780764 107.086306 
L 265.859958 105.313129 
L 266.082026 105.313129 
L 266.086249 104.603859 
L 266.308192 104.603859 
L 266.402556 103.539953 
L 266.441588 103.539953 
L 266.510251 102.121412 
L 266.615085 102.121412 
L 266.696618 101.057506 
L 266.748284 101.057506 
L 266.77345 100.348235 
L 266.883873 100.348235 
L 266.971813 99.284329 
L 267.044344 99.284329 
L 267.044344 98.929694 
L 267.181152 98.929694 
L 267.198878 98.220424 
L 267.320169 98.220424 
L 267.416555 97.156518 
L 267.477943 97.156518 
L 267.568341 95.383341 
L 267.597773 95.383341 
L 267.597773 95.028706 
L 267.821195 95.028706 
L 267.821195 94.674071 
L 267.975415 94.674071 
L 268.082611 92.900894 
L 268.091296 92.900894 
L 268.185062 91.836988 
L 268.236104 91.836988 
L 268.274038 90.418447 
L 268.4749 90.418447 
L 268.53588 88.999906 
L 268.611791 88.999906 
L 268.65276 87.581365 
L 268.766511 87.581365 
L 268.862419 86.517459 
L 268.919571 86.517459 
L 269.029598 85.808188 
L 269.116991 85.808188 
L 269.178774 84.744282 
L 269.238301 84.744282 
L 269.285153 84.035012 
L 269.357327 84.035012 
L 269.46628 82.616471 
L 269.60231 82.616471 
L 269.704275 80.488659 
L 269.73903 80.488659 
L 269.782039 79.779388 
L 270.042315 79.779388 
L 270.088097 79.070118 
L 270.193468 79.070118 
L 270.270722 77.296941 
L 270.343832 77.296941 
L 270.410225 75.8784 
L 270.520028 75.8784 
L 270.624377 74.814494 
L 270.705858 74.814494 
L 270.811434 72.686682 
L 270.866737 72.686682 
L 270.937929 71.622776 
L 271.05945 71.622776 
L 271.133058 70.558871 
L 271.190424 70.558871 
L 271.190424 70.204235 
L 271.312301 70.204235 
L 271.388594 68.785694 
L 271.456711 68.785694 
L 271.544887 67.012518 
L 271.654175 67.012518 
L 271.736465 65.593976 
L 271.814387 65.593976 
L 271.894664 64.530071 
L 272.038145 64.530071 
L 272.126119 62.756894 
L 272.205163 62.756894 
L 272.223996 62.047624 
L 272.318999 62.047624 
L 272.357248 60.983718 
L 272.452077 60.983718 
L 272.526645 60.274447 
L 272.57861 60.274447 
L 272.646803 58.855906 
L 272.706046 58.855906 
L 272.729829 57.792 
L 272.870933 57.792 
L 272.961529 56.373459 
L 273.063788 56.373459 
L 273.127026 55.309553 
L 273.282718 55.309553 
L 273.390902 53.891012 
L 273.404038 53.891012 
L 273.493317 52.827106 
L 273.692284 52.827106 
L 273.726224 51.7632 
L 273.861949 51.7632 
L 273.970285 50.344659 
L 274.008966 50.344659 
L 274.102189 49.635388 
L 274.282061 49.635388 
L 274.282061 49.280753 
L 274.448626 49.280753 
L 274.495291 48.571482 
L 274.59902 48.571482 
L 274.59902 48.216847 
L 275.188747 48.216847 
L 275.278374 47.507576 
L 275.840198 47.507576 
L 275.856446 46.798306 
L 276.063573 46.798306 
L 276.063573 46.443671 
L 276.444247 46.443671 
L 276.492475 45.7344 
L 277.52749 45.7344 
L 277.619322 45.025129 
L 278.648653 45.025129 
L 278.648653 44.670494 
L 278.774148 44.670494 
L 278.774148 44.315859 
L 279.056672 44.315859 
L 279.136034 43.606588 
L 279.248391 43.606588 
L 279.248391 43.251953 
L 279.69622 43.251953 
L 279.69622 42.897318 
L 279.94532 42.897318 
L 279.94532 42.542682 
L 281.695265 42.542682 
L 281.715839 41.833412 
L 282.418581 41.833412 
L 282.418581 41.478776 
L 282.892954 41.478776 
L 282.892954 41.124141 
L 283.301097 41.124141 
L 283.301097 40.769506 
L 283.689639 40.769506 
L 283.750348 40.060235 
L 284.453406 40.060235 
L 284.478705 39.350965 
L 284.605707 39.350965 
L 284.605707 38.996329 
L 284.855225 38.996329 
L 284.855225 38.641694 
L 285.080818 38.641694 
L 285.093267 37.932424 
L 285.608013 37.932424 
L 285.608013 37.577788 
L 285.911802 37.577788 
L 285.911802 37.223153 
L 286.206713 37.223153 
L 286.210028 36.513882 
L 286.43343 36.513882 
L 286.494552 35.449976 
L 286.573956 35.449976 
L 286.667287 34.031435 
L 286.690785 34.031435 
L 286.690785 33.6768 
L 287.08894 33.6768 
L 287.08894 33.322165 
L 287.560599 33.322165 
L 287.560599 32.967529 
L 289.319682 32.967529 
L 289.319682 32.612894 
L 291.081822 32.612894 
L 291.081822 32.258259 
L 293.88196 32.258259 
L 293.991685 31.548988 
L 294.045955 31.548988 
L 294.045955 31.194353 
L 294.346555 31.194353 
L 294.346555 30.839718 
L 294.559845 30.839718 
L 294.559845 30.485082 
L 294.7385 30.485082 
L 294.787089 29.775812 
L 294.864111 29.775812 
L 294.864111 29.421176 
L 299.874218 29.421176 
L 299.946647 28.711906 
L 303.946107 28.711906 
L 303.946107 28.357271 
L 307.461129 28.357271 
L 307.461129 28.002635 
L 307.802067 28.002635 
L 307.802067 27.648 
L 360.8064 27.648 
L 360.8064 27.648 
" style="fill: none; stroke: #ff00ff; stroke-width: 1.5; stroke-linecap: square"/>
   </g>
   <g id="line2d_40">
    <defs>
     <path id="mc0ca436587" d="M 0 8.485281 
L 5.091169 0 
L 0 -8.485281 
L -5.091169 0 
z
" style="stroke: #ff00ff; stroke-width: 1.5; stroke-linejoin: miter"/>
    </defs>
    <g>
     <use xlink:href="#mc0ca436587" x="227.056839" y="212.767624" style="fill-opacity: 0; stroke: #ff00ff; stroke-width: 1.5; stroke-linejoin: miter"/>
     <use xlink:href="#mc0ca436587" x="270.937929" y="71.622776" style="fill-opacity: 0; stroke: #ff00ff; stroke-width: 1.5; stroke-linejoin: miter"/>
     <use xlink:href="#mc0ca436587" x="307.802067" y="27.648" style="fill-opacity: 0; stroke: #ff00ff; stroke-width: 1.5; stroke-linejoin: miter"/>
     <use xlink:href="#mc0ca436587" x="307.802067" y="27.648" style="fill-opacity: 0; stroke: #ff00ff; stroke-width: 1.5; stroke-linejoin: miter"/>
     <use xlink:href="#mc0ca436587" x="360.8064" y="27.648" style="fill-opacity: 0; stroke: #ff00ff; stroke-width: 1.5; stroke-linejoin: miter"/>
    </g>
   </g>
   <g id="line2d_41">
    <path style="fill: none; stroke: #ff00ff; stroke-width: 1.5; stroke-linecap: square"/>
    <g/>
   </g>
   <g id="line2d_42">
    <path d="M 274.176 49.635388 
" clip-path="url(#p5faa22ac8b)" style="fill: none; stroke: #ff00ff; stroke-width: 1.5; stroke-linecap: square"/>
    <defs>
     <path id="mff0c3d5907" d="M -12 12 
L 12 -12 
M -12 -12 
L 12 12 
" style="stroke: #ff00ff"/>
    </defs>
    <g clip-path="url(#p5faa22ac8b)">
     <use xlink:href="#mff0c3d5907" x="274.176" y="49.635388" style="fill: #ff00ff; stroke: #ff00ff"/>
    </g>
   </g>
   <g id="line2d_43">
    <path d="M 360.8064 27.648 
L 380.514816 293.51808 
" style="fill: none; stroke: #ff00ff; stroke-width: 1.5; stroke-linecap: square"/>
    <g>
     <use xlink:href="#mc0ca436587" x="360.8064" y="27.648" style="fill-opacity: 0; stroke: #ff00ff; stroke-width: 1.5; stroke-linejoin: miter"/>
     <use xlink:href="#mc0ca436587" x="380.514816" y="293.51808" style="fill-opacity: 0; stroke: #ff00ff; stroke-width: 1.5; stroke-linejoin: miter"/>
    </g>
   </g>
   <g id="line2d_44">
    <path d="M 360.8064 27.648 
L 380.514816 163.296 
" style="fill: none; stroke: #000080; stroke-width: 1.5; stroke-linecap: square"/>
    <g>
     <use xlink:href="#m59f49dffcb" x="360.8064" y="27.648" style="fill-opacity: 0; stroke: #000080; stroke-width: 1.5"/>
     <use xlink:href="#m59f49dffcb" x="380.514816" y="163.296" style="fill-opacity: 0; stroke: #000080; stroke-width: 1.5"/>
    </g>
   </g>
   <g id="line2d_45">
    <path d="M 360.8064 298.944 
L 360.8064 27.648 
" style="fill: none; stroke: #000000; stroke-width: 1.5; stroke-linecap: square"/>
   </g>
   <g id="patch_3">
    <path d="M 57.6 298.944 
L 360.8064 298.944 
" style="fill: none; stroke: #000000; stroke-width: 0.8; stroke-linejoin: miter; stroke-linecap: square"/>
   </g>
   <g id="patch_4">
    <path d="M 57.6 27.648 
L 360.8064 27.648 
" style="fill: none; stroke: #000000; stroke-width: 0.8; stroke-linejoin: miter; stroke-linecap: square"/>
   </g>
   <g id="text_13">
    <!-- PSO -->
    <g transform="translate(386.578944 297.381205)scale(0.14 -0.14)">
     <defs>
      <path id="DejaVuSans-50" d="M 1259 4147 
L 1259 2394 
L 2053 2394 
Q 2494 2394 2734 2622 
Q 2975 2850 2975 3272 
Q 2975 3691 2734 3919 
Q 2494 4147 2053 4147 
L 1259 4147 
z
M 628 4666 
L 2053 4666 
Q 2838 4666 3239 4311 
Q 3641 3956 3641 3272 
Q 3641 2581 3239 2228 
Q 2838 1875 2053 1875 
L 1259 1875 
L 1259 0 
L 628 0 
L 628 4666 
z
" transform="scale(0.015625)"/>
      <path id="DejaVuSans-53" d="M 3425 4513 
L 3425 3897 
Q 3066 4069 2747 4153 
Q 2428 4238 2131 4238 
Q 1616 4238 1336 4038 
Q 1056 3838 1056 3469 
Q 1056 3159 1242 3001 
Q 1428 2844 1947 2747 
L 2328 2669 
Q 3034 2534 3370 2195 
Q 3706 1856 3706 1288 
Q 3706 609 3251 259 
Q 2797 -91 1919 -91 
Q 1588 -91 1214 -16 
Q 841 59 441 206 
L 441 856 
Q 825 641 1194 531 
Q 1563 422 1919 422 
Q 2459 422 2753 634 
Q 3047 847 3047 1241 
Q 3047 1584 2836 1778 
Q 2625 1972 2144 2069 
L 1759 2144 
Q 1053 2284 737 2584 
Q 422 2884 422 3419 
Q 422 4038 858 4394 
Q 1294 4750 2059 4750 
Q 2388 4750 2728 4690 
Q 3069 4631 3425 4513 
z
" transform="scale(0.015625)"/>
      <path id="DejaVuSans-4f" d="M 2522 4238 
Q 1834 4238 1429 3725 
Q 1025 3213 1025 2328 
Q 1025 1447 1429 934 
Q 1834 422 2522 422 
Q 3209 422 3611 934 
Q 4013 1447 4013 2328 
Q 4013 3213 3611 3725 
Q 3209 4238 2522 4238 
z
M 2522 4750 
Q 3503 4750 4090 4092 
Q 4678 3434 4678 2328 
Q 4678 1225 4090 567 
Q 3503 -91 2522 -91 
Q 1538 -91 948 565 
Q 359 1222 359 2328 
Q 359 3434 948 4092 
Q 1538 4750 2522 4750 
z
" transform="scale(0.015625)"/>
     </defs>
     <use xlink:href="#DejaVuSans-50"/>
     <use xlink:href="#DejaVuSans-53" x="60.302734"/>
     <use xlink:href="#DejaVuSans-4f" x="123.779297"/>
    </g>
   </g>
   <g id="text_14">
    <!-- LCGA -->
    <g transform="translate(386.578944 167.159125)scale(0.14 -0.14)">
     <defs>
      <path id="DejaVuSans-4c" d="M 628 4666 
L 1259 4666 
L 1259 531 
L 3531 531 
L 3531 0 
L 628 0 
L 628 4666 
z
" transform="scale(0.015625)"/>
      <path id="DejaVuSans-43" d="M 4122 4306 
L 4122 3641 
Q 3803 3938 3442 4084 
Q 3081 4231 2675 4231 
Q 1875 4231 1450 3742 
Q 1025 3253 1025 2328 
Q 1025 1406 1450 917 
Q 1875 428 2675 428 
Q 3081 428 3442 575 
Q 3803 722 4122 1019 
L 4122 359 
Q 3791 134 3420 21 
Q 3050 -91 2638 -91 
Q 1578 -91 968 557 
Q 359 1206 359 2328 
Q 359 3453 968 4101 
Q 1578 4750 2638 4750 
Q 3056 4750 3426 4639 
Q 3797 4528 4122 4306 
z
" transform="scale(0.015625)"/>
      <path id="DejaVuSans-47" d="M 3809 666 
L 3809 1919 
L 2778 1919 
L 2778 2438 
L 4434 2438 
L 4434 434 
Q 4069 175 3628 42 
Q 3188 -91 2688 -91 
Q 1594 -91 976 548 
Q 359 1188 359 2328 
Q 359 3472 976 4111 
Q 1594 4750 2688 4750 
Q 3144 4750 3555 4637 
Q 3966 4525 4313 4306 
L 4313 3634 
Q 3963 3931 3569 4081 
Q 3175 4231 2741 4231 
Q 1884 4231 1454 3753 
Q 1025 3275 1025 2328 
Q 1025 1384 1454 906 
Q 1884 428 2741 428 
Q 3075 428 3337 486 
Q 3600 544 3809 666 
z
" transform="scale(0.015625)"/>
      <path id="DejaVuSans-41" d="M 2188 4044 
L 1331 1722 
L 3047 1722 
L 2188 4044 
z
M 1831 4666 
L 2547 4666 
L 4325 0 
L 3669 0 
L 3244 1197 
L 1141 1197 
L 716 0 
L 50 0 
L 1831 4666 
z
" transform="scale(0.015625)"/>
     </defs>
     <use xlink:href="#DejaVuSans-4c"/>
     <use xlink:href="#DejaVuSans-43" x="55.712891"/>
     <use xlink:href="#DejaVuSans-47" x="125.537109"/>
     <use xlink:href="#DejaVuSans-41" x="203.027344"/>
    </g>
   </g>
   <g id="text_15">
    <!-- best 2009 -->
    <g transform="translate(386.578944 36.937045)scale(0.14 -0.14)">
     <defs>
      <path id="DejaVuSans-62" d="M 3116 1747 
Q 3116 2381 2855 2742 
Q 2594 3103 2138 3103 
Q 1681 3103 1420 2742 
Q 1159 2381 1159 1747 
Q 1159 1113 1420 752 
Q 1681 391 2138 391 
Q 2594 391 2855 752 
Q 3116 1113 3116 1747 
z
M 1159 2969 
Q 1341 3281 1617 3432 
Q 1894 3584 2278 3584 
Q 2916 3584 3314 3078 
Q 3713 2572 3713 1747 
Q 3713 922 3314 415 
Q 2916 -91 2278 -91 
Q 1894 -91 1617 61 
Q 1341 213 1159 525 
L 1159 0 
L 581 0 
L 581 4863 
L 1159 4863 
L 1159 2969 
z
" transform="scale(0.015625)"/>
      <path id="DejaVuSans-39" d="M 703 97 
L 703 672 
Q 941 559 1184 500 
Q 1428 441 1663 441 
Q 2288 441 2617 861 
Q 2947 1281 2994 2138 
Q 2813 1869 2534 1725 
Q 2256 1581 1919 1581 
Q 1219 1581 811 2004 
Q 403 2428 403 3163 
Q 403 3881 828 4315 
Q 1253 4750 1959 4750 
Q 2769 4750 3195 4129 
Q 3622 3509 3622 2328 
Q 3622 1225 3098 567 
Q 2575 -91 1691 -91 
Q 1453 -91 1209 -44 
Q 966 3 703 97 
z
M 1959 2075 
Q 2384 2075 2632 2365 
Q 2881 2656 2881 3163 
Q 2881 3666 2632 3958 
Q 2384 4250 1959 4250 
Q 1534 4250 1286 3958 
Q 1038 3666 1038 3163 
Q 1038 2656 1286 2365 
Q 1534 2075 1959 2075 
z
" transform="scale(0.015625)"/>
     </defs>
     <use xlink:href="#DejaVuSans-62"/>
     <use xlink:href="#DejaVuSans-65" x="63.476562"/>
     <use xlink:href="#DejaVuSans-73" x="125"/>
     <use xlink:href="#DejaVuSans-74" x="177.099609"/>
     <use xlink:href="#DejaVuSans-20" x="216.308594"/>
     <use xlink:href="#DejaVuSans-32" x="248.095703"/>
     <use xlink:href="#DejaVuSans-30" x="311.71875"/>
     <use xlink:href="#DejaVuSans-30" x="375.341797"/>
     <use xlink:href="#DejaVuSans-39" x="438.964844"/>
    </g>
   </g>
   <g id="text_16">
    <!-- bbob f8, 5-D -->
    <g transform="translate(60.632064 38.111366)scale(0.102 -0.102)">
     <defs>
      <path id="DejaVuSans-35" d="M 691 4666 
L 3169 4666 
L 3169 4134 
L 1269 4134 
L 1269 2991 
Q 1406 3038 1543 3061 
Q 1681 3084 1819 3084 
Q 2600 3084 3056 2656 
Q 3513 2228 3513 1497 
Q 3513 744 3044 326 
Q 2575 -91 1722 -91 
Q 1428 -91 1123 -41 
Q 819 9 494 109 
L 494 744 
Q 775 591 1075 516 
Q 1375 441 1709 441 
Q 2250 441 2565 725 
Q 2881 1009 2881 1497 
Q 2881 1984 2565 2268 
Q 2250 2553 1709 2553 
Q 1456 2553 1204 2497 
Q 953 2441 691 2322 
L 691 4666 
z
" transform="scale(0.015625)"/>
      <path id="DejaVuSans-44" d="M 1259 4147 
L 1259 519 
L 2022 519 
Q 2988 519 3436 956 
Q 3884 1394 3884 2338 
Q 3884 3275 3436 3711 
Q 2988 4147 2022 4147 
L 1259 4147 
z
M 628 4666 
L 1925 4666 
Q 3281 4666 3915 4102 
Q 4550 3538 4550 2338 
Q 4550 1131 3912 565 
Q 3275 0 1925 0 
L 628 0 
L 628 4666 
z
" transform="scale(0.015625)"/>
     </defs>
     <use xlink:href="#DejaVuSans-62"/>
     <use xlink:href="#DejaVuSans-62" x="63.476562"/>
     <use xlink:href="#DejaVuSans-6f" x="126.953125"/>
     <use xlink:href="#DejaVuSans-62" x="188.134766"/>
     <use xlink:href="#DejaVuSans-20" x="251.611328"/>
     <use xlink:href="#DejaVuSans-66" x="283.398438"/>
     <use xlink:href="#DejaVuSans-38" x="318.603516"/>
     <use xlink:href="#DejaVuSans-2c" x="382.226562"/>
     <use xlink:href="#DejaVuSans-20" x="414.013672"/>
     <use xlink:href="#DejaVuSans-35" x="445.800781"/>
     <use xlink:href="#DejaVuSans-2d" x="509.423828"/>
     <use xlink:href="#DejaVuSans-44" x="545.507812"/>
    </g>
    <!-- 51 targets: 100..1e-08 -->
    <g transform="translate(60.632064 49.533135)scale(0.102 -0.102)">
     <defs>
      <path id="DejaVuSans-3a" d="M 750 794 
L 1409 794 
L 1409 0 
L 750 0 
L 750 794 
z
M 750 3309 
L 1409 3309 
L 1409 2516 
L 750 2516 
L 750 3309 
z
" transform="scale(0.015625)"/>
     </defs>
     <use xlink:href="#DejaVuSans-35"/>
     <use xlink:href="#DejaVuSans-31" x="63.623047"/>
     <use xlink:href="#DejaVuSans-20" x="127.246094"/>
     <use xlink:href="#DejaVuSans-74" x="159.033203"/>
     <use xlink:href="#DejaVuSans-61" x="198.242188"/>
     <use xlink:href="#DejaVuSans-72" x="259.521484"/>
     <use xlink:href="#DejaVuSans-67" x="298.884766"/>
     <use xlink:href="#DejaVuSans-65" x="362.361328"/>
     <use xlink:href="#DejaVuSans-74" x="423.884766"/>
     <use xlink:href="#DejaVuSans-73" x="463.09375"/>
     <use xlink:href="#DejaVuSans-3a" x="515.193359"/>
     <use xlink:href="#DejaVuSans-20" x="548.884766"/>
     <use xlink:href="#DejaVuSans-31" x="580.671875"/>
     <use xlink:href="#DejaVuSans-30" x="644.294922"/>
     <use xlink:href="#DejaVuSans-30" x="707.917969"/>
     <use xlink:href="#DejaVuSans-2e" x="771.541016"/>
     <use xlink:href="#DejaVuSans-2e" x="803.328125"/>
     <use xlink:href="#DejaVuSans-31" x="835.115234"/>
     <use xlink:href="#DejaVuSans-65" x="898.738281"/>
     <use xlink:href="#DejaVuSans-2d" x="960.261719"/>
     <use xlink:href="#DejaVuSans-30" x="996.345703"/>
     <use xlink:href="#DejaVuSans-38" x="1059.96875"/>
    </g>
    <!-- 15 instances -->
    <g transform="translate(60.632064 60.954904)scale(0.102 -0.102)">
     <use xlink:href="#DejaVuSans-31"/>
     <use xlink:href="#DejaVuSans-35" x="63.623047"/>
     <use xlink:href="#DejaVuSans-20" x="127.246094"/>
     <use xlink:href="#DejaVuSans-69" x="159.033203"/>
     <use xlink:href="#DejaVuSans-6e" x="186.816406"/>
     <use xlink:href="#DejaVuSans-73" x="250.195312"/>
     <use xlink:href="#DejaVuSans-74" x="302.294922"/>
     <use xlink:href="#DejaVuSans-61" x="341.503906"/>
     <use xlink:href="#DejaVuSans-6e" x="402.783203"/>
     <use xlink:href="#DejaVuSans-63" x="466.162109"/>
     <use xlink:href="#DejaVuSans-65" x="521.142578"/>
     <use xlink:href="#DejaVuSans-73" x="582.666016"/>
    </g>
   </g>
   <g id="text_17">
    <!-- v2.6 -->
    <g style="fill: #808080" transform="translate(198.292262 294.151352)scale(0.1 -0.1)">
     <use xlink:href="#DejaVuSans-76"/>
     <use xlink:href="#DejaVuSans-32" x="59.179688"/>
     <use xlink:href="#DejaVuSans-2e" x="122.802734"/>
     <use xlink:href="#DejaVuSans-36" x="154.589844"/>
    </g>
   </g>
   <g id="text_18">
    <!-- 8 Rosenbrock original -->
    <g transform="translate(101.14695 21.648)scale(0.2 -0.2)">
     <defs>
      <path id="DejaVuSans-52" d="M 2841 2188 
Q 3044 2119 3236 1894 
Q 3428 1669 3622 1275 
L 4263 0 
L 3584 0 
L 2988 1197 
Q 2756 1666 2539 1819 
Q 2322 1972 1947 1972 
L 1259 1972 
L 1259 0 
L 628 0 
L 628 4666 
L 2053 4666 
Q 2853 4666 3247 4331 
Q 3641 3997 3641 3322 
Q 3641 2881 3436 2590 
Q 3231 2300 2841 2188 
z
M 1259 4147 
L 1259 2491 
L 2053 2491 
Q 2509 2491 2742 2702 
Q 2975 2913 2975 3322 
Q 2975 3731 2742 3939 
Q 2509 4147 2053 4147 
L 1259 4147 
z
" transform="scale(0.015625)"/>
      <path id="DejaVuSans-6b" d="M 581 4863 
L 1159 4863 
L 1159 1991 
L 2875 3500 
L 3609 3500 
L 1753 1863 
L 3688 0 
L 2938 0 
L 1159 1709 
L 1159 0 
L 581 0 
L 581 4863 
z
" transform="scale(0.015625)"/>
     </defs>
     <use xlink:href="#DejaVuSans-38"/>
     <use xlink:href="#DejaVuSans-20" x="63.623047"/>
     <use xlink:href="#DejaVuSans-52" x="95.410156"/>
     <use xlink:href="#DejaVuSans-6f" x="160.392578"/>
     <use xlink:href="#DejaVuSans-73" x="221.574219"/>
     <use xlink:href="#DejaVuSans-65" x="273.673828"/>
     <use xlink:href="#DejaVuSans-6e" x="335.197266"/>
     <use xlink:href="#DejaVuSans-62" x="398.576172"/>
     <use xlink:href="#DejaVuSans-72" x="462.052734"/>
     <use xlink:href="#DejaVuSans-6f" x="500.916016"/>
     <use xlink:href="#DejaVuSans-63" x="562.097656"/>
     <use xlink:href="#DejaVuSans-6b" x="617.078125"/>
     <use xlink:href="#DejaVuSans-20" x="674.988281"/>
     <use xlink:href="#DejaVuSans-6f" x="706.775391"/>
     <use xlink:href="#DejaVuSans-72" x="767.957031"/>
     <use xlink:href="#DejaVuSans-69" x="809.070312"/>
     <use xlink:href="#DejaVuSans-67" x="836.853516"/>
     <use xlink:href="#DejaVuSans-69" x="900.330078"/>
     <use xlink:href="#DejaVuSans-6e" x="928.113281"/>
     <use xlink:href="#DejaVuSans-61" x="991.492188"/>
     <use xlink:href="#DejaVuSans-6c" x="1052.771484"/>
    </g>
   </g>
  </g>
 </g>
 <defs>
  <clipPath id="p5faa22ac8b">
   <rect x="57.6" y="27.648" width="303.2064" height="271.296"/>
  </clipPath>
 </defs>
</svg>
