<?xml version="1.0" encoding="utf-8" standalone="no"?>
<!DOCTYPE svg PUBLIC "-//W3C//DTD SVG 1.1//EN"
  "http://www.w3.org/Graphics/SVG/1.1/DTD/svg11.dtd">
<svg xmlns:xlink="http://www.w3.org/1999/xlink" width="460.8pt" height="345.6pt" viewBox="0 0 460.8 345.6" xmlns="http://www.w3.org/2000/svg" version="1.1">
 <metadata>
  <rdf:RDF xmlns:dc="http://purl.org/dc/elements/1.1/" xmlns:cc="http://creativecommons.org/ns#" xmlns:rdf="http://www.w3.org/1999/02/22-rdf-syntax-ns#">
   <cc:Work>
    <dc:type rdf:resource="http://purl.org/dc/dcmitype/StillImage"/>
    <dc:date>2024-05-29T07:59:27.755023</dc:date>
    <dc:format>image/svg+xml</dc:format>
    <dc:creator>
     <cc:Agent>
      <dc:title>Matplotlib v3.5.1, https://matplotlib.org/</dc:title>
     </cc:Agent>
    </dc:creator>
   </cc:Work>
  </rdf:RDF>
 </metadata>
 <defs>
  <style type="text/css">*{stroke-linejoin: round; stroke-linecap: butt}</style>
 </defs>
 <g id="figure_1">
  <g id="patch_1">
   <path d="M 0 345.6 
L 460.8 345.6 
L 460.8 0 
L 0 0 
z
" style="fill: #ffffff"/>
  </g>
  <g id="axes_1">
   <g id="patch_2">
    <path d="M 57.6 298.944 
L 360.8064 298.944 
L 360.8064 27.648 
L 57.6 27.648 
z
" style="fill: #ffffff"/>
   </g>
   <g id="line2d_1">
    <path d="M 65.227428 298.944 
L 65.227428 288.304941 
L 74.836851 288.304941 
L 74.836851 277.665882 
L 87.876026 277.665882 
L 87.876026 272.346353 
L 92.811505 272.346353 
L 92.811505 267.026824 
L 94.205591 267.026824 
L 94.205591 261.707294 
L 96.717523 261.707294 
L 96.717523 256.387765 
L 99.950294 256.387765 
L 99.950294 251.068235 
L 100.9152 251.068235 
L 100.9152 245.748706 
L 103.544339 245.748706 
L 103.544339 240.429176 
L 109.756698 240.429176 
L 109.756698 235.109647 
L 111.442442 235.109647 
L 111.442442 224.470588 
L 113.478107 224.470588 
L 113.478107 219.151059 
L 114.418881 219.151059 
L 114.418881 213.831529 
L 114.872193 213.831529 
L 114.872193 208.512 
L 116.988079 208.512 
L 116.988079 203.192471 
L 117.772007 203.192471 
L 117.772007 197.872941 
L 118.889854 197.872941 
L 118.889854 192.553412 
L 119.599808 192.553412 
L 119.599808 187.233882 
L 121.265635 187.233882 
L 121.265635 181.914353 
L 121.892744 181.914353 
L 121.892744 176.594824 
L 122.499621 176.594824 
L 122.499621 171.275294 
L 123.08753 171.275294 
L 123.08753 165.955765 
L 123.657621 165.955765 
L 123.657621 160.636235 
L 124.210942 160.636235 
L 124.210942 155.316706 
L 125.271028 155.316706 
L 125.271028 149.997176 
L 126.028642 149.997176 
L 126.028642 144.677647 
L 126.517282 144.677647 
L 126.517282 139.358118 
L 126.993549 139.358118 
L 126.993549 134.038588 
L 127.911368 134.038588 
L 127.911368 128.719059 
L 128.354013 128.719059 
L 128.354013 123.399529 
L 128.999044 123.399529 
L 128.999044 118.08 
L 129.417095 118.08 
L 129.417095 112.760471 
L 130.226319 112.760471 
L 130.226319 107.440941 
L 130.4233 107.440941 
L 130.4233 102.121412 
L 131.191226 102.121412 
L 131.191226 96.801882 
L 131.747272 96.801882 
L 131.747272 91.482353 
L 132.287354 91.482353 
L 132.287354 86.162824 
L 132.46399 86.162824 
L 132.46399 80.843294 
L 132.984158 80.843294 
L 132.984158 75.523765 
L 133.323114 75.523765 
L 133.323114 70.204235 
L 134.304809 70.204235 
L 134.304809 64.884706 
L 134.77709 64.884706 
L 134.77709 59.565176 
L 135.237805 59.565176 
L 135.237805 54.245647 
L 135.388902 54.245647 
L 135.388902 48.926118 
L 135.538796 48.926118 
L 135.538796 43.606588 
L 136.126705 43.606588 
L 136.126705 38.287059 
L 136.555884 38.287059 
L 136.555884 32.967529 
L 136.97549 32.967529 
L 136.97549 27.648 
L 360.8064 27.648 
" style="fill: none; stroke: #f5deb3; stroke-width: 4; stroke-linecap: square"/>
   </g>
   <g id="line2d_2">
    <defs>
     <path id="m6aad6fbe67" d="M 0 7.778175 
L 7.778175 0 
L 0 -7.778175 
L -7.778175 0 
z
" style="stroke: #f5deb3; stroke-width: 1.5; stroke-linejoin: miter"/>
    </defs>
    <g>
     <use xlink:href="#m6aad6fbe67" x="128.354013" y="123.399529" style="fill: #f5deb3; stroke: #f5deb3; stroke-width: 1.5; stroke-linejoin: miter"/>
     <use xlink:href="#m6aad6fbe67" x="136.97549" y="32.967529" style="fill: #f5deb3; stroke: #f5deb3; stroke-width: 1.5; stroke-linejoin: miter"/>
     <use xlink:href="#m6aad6fbe67" x="136.97549" y="27.648" style="fill: #f5deb3; stroke: #f5deb3; stroke-width: 1.5; stroke-linejoin: miter"/>
     <use xlink:href="#m6aad6fbe67" x="136.97549" y="27.648" style="fill: #f5deb3; stroke: #f5deb3; stroke-width: 1.5; stroke-linejoin: miter"/>
     <use xlink:href="#m6aad6fbe67" x="360.8064" y="27.648" style="fill: #f5deb3; stroke: #f5deb3; stroke-width: 1.5; stroke-linejoin: miter"/>
    </g>
   </g>
   <g id="line2d_3">
    <path style="fill: none; stroke: #f5deb3; stroke-width: 4; stroke-linecap: square"/>
    <g/>
   </g>
   <g id="line2d_4">
    <path d="M 360.8064 27.648 
L 380.514816 33.07392 
" style="fill: none; stroke: #f5deb3; stroke-width: 4; stroke-linecap: square"/>
    <g>
     <use xlink:href="#m6aad6fbe67" x="360.8064" y="27.648" style="fill: #f5deb3; stroke: #f5deb3; stroke-width: 1.5; stroke-linejoin: miter"/>
     <use xlink:href="#m6aad6fbe67" x="380.514816" y="33.07392" style="fill: #f5deb3; stroke: #f5deb3; stroke-width: 1.5; stroke-linejoin: miter"/>
    </g>
   </g>
   <g id="matplotlib.axis_1">
    <g id="xtick_1">
     <g id="line2d_5">
      <path d="M 57.6 298.944 
L 57.6 27.648 
" clip-path="url(#p5cc294ec95)" style="fill: none; stroke: #b0b0b0; stroke-width: 0.8; stroke-linecap: square"/>
     </g>
     <g id="line2d_6">
      <defs>
       <path id="me431f41b29" d="M 0 0 
L 0 3.5 
" style="stroke: #000000; stroke-width: 0.8"/>
      </defs>
      <g>
       <use xlink:href="#me431f41b29" x="57.6" y="298.944" style="stroke: #000000; stroke-width: 0.8"/>
      </g>
     </g>
     <g id="text_1">
      <!-- 0 -->
      <g transform="translate(52.191875 318.861344)scale(0.17 -0.17)">
       <defs>
        <path id="DejaVuSans-30" d="M 2034 4250 
Q 1547 4250 1301 3770 
Q 1056 3291 1056 2328 
Q 1056 1369 1301 889 
Q 1547 409 2034 409 
Q 2525 409 2770 889 
Q 3016 1369 3016 2328 
Q 3016 3291 2770 3770 
Q 2525 4250 2034 4250 
z
M 2034 4750 
Q 2819 4750 3233 4129 
Q 3647 3509 3647 2328 
Q 3647 1150 3233 529 
Q 2819 -91 2034 -91 
Q 1250 -91 836 529 
Q 422 1150 422 2328 
Q 422 3509 836 4129 
Q 1250 4750 2034 4750 
z
" transform="scale(0.015625)"/>
       </defs>
       <use xlink:href="#DejaVuSans-30"/>
      </g>
     </g>
    </g>
    <g id="xtick_2">
     <g id="line2d_7">
      <path d="M 144.2304 298.944 
L 144.2304 27.648 
" clip-path="url(#p5cc294ec95)" style="fill: none; stroke: #b0b0b0; stroke-width: 0.8; stroke-linecap: square"/>
     </g>
     <g id="line2d_8">
      <g>
       <use xlink:href="#me431f41b29" x="144.2304" y="298.944" style="stroke: #000000; stroke-width: 0.8"/>
      </g>
     </g>
     <g id="text_2">
      <!-- 2 -->
      <g transform="translate(138.822275 318.861344)scale(0.17 -0.17)">
       <defs>
        <path id="DejaVuSans-32" d="M 1228 531 
L 3431 531 
L 3431 0 
L 469 0 
L 469 531 
Q 828 903 1448 1529 
Q 2069 2156 2228 2338 
Q 2531 2678 2651 2914 
Q 2772 3150 2772 3378 
Q 2772 3750 2511 3984 
Q 2250 4219 1831 4219 
Q 1534 4219 1204 4116 
Q 875 4013 500 3803 
L 500 4441 
Q 881 4594 1212 4672 
Q 1544 4750 1819 4750 
Q 2544 4750 2975 4387 
Q 3406 4025 3406 3419 
Q 3406 3131 3298 2873 
Q 3191 2616 2906 2266 
Q 2828 2175 2409 1742 
Q 1991 1309 1228 531 
z
" transform="scale(0.015625)"/>
       </defs>
       <use xlink:href="#DejaVuSans-32"/>
      </g>
     </g>
    </g>
    <g id="xtick_3">
     <g id="line2d_9">
      <path d="M 230.8608 298.944 
L 230.8608 27.648 
" clip-path="url(#p5cc294ec95)" style="fill: none; stroke: #b0b0b0; stroke-width: 0.8; stroke-linecap: square"/>
     </g>
     <g id="line2d_10">
      <g>
       <use xlink:href="#me431f41b29" x="230.8608" y="298.944" style="stroke: #000000; stroke-width: 0.8"/>
      </g>
     </g>
     <g id="text_3">
      <!-- 4 -->
      <g transform="translate(225.452675 318.861344)scale(0.17 -0.17)">
       <defs>
        <path id="DejaVuSans-34" d="M 2419 4116 
L 825 1625 
L 2419 1625 
L 2419 4116 
z
M 2253 4666 
L 3047 4666 
L 3047 1625 
L 3713 1625 
L 3713 1100 
L 3047 1100 
L 3047 0 
L 2419 0 
L 2419 1100 
L 313 1100 
L 313 1709 
L 2253 4666 
z
" transform="scale(0.015625)"/>
       </defs>
       <use xlink:href="#DejaVuSans-34"/>
      </g>
     </g>
    </g>
    <g id="xtick_4">
     <g id="line2d_11">
      <path d="M 317.4912 298.944 
L 317.4912 27.648 
" clip-path="url(#p5cc294ec95)" style="fill: none; stroke: #b0b0b0; stroke-width: 0.8; stroke-linecap: square"/>
     </g>
     <g id="line2d_12">
      <g>
       <use xlink:href="#me431f41b29" x="317.4912" y="298.944" style="stroke: #000000; stroke-width: 0.8"/>
      </g>
     </g>
     <g id="text_4">
      <!-- 6 -->
      <g transform="translate(312.083075 318.861344)scale(0.17 -0.17)">
       <defs>
        <path id="DejaVuSans-36" d="M 2113 2584 
Q 1688 2584 1439 2293 
Q 1191 2003 1191 1497 
Q 1191 994 1439 701 
Q 1688 409 2113 409 
Q 2538 409 2786 701 
Q 3034 994 3034 1497 
Q 3034 2003 2786 2293 
Q 2538 2584 2113 2584 
z
M 3366 4563 
L 3366 3988 
Q 3128 4100 2886 4159 
Q 2644 4219 2406 4219 
Q 1781 4219 1451 3797 
Q 1122 3375 1075 2522 
Q 1259 2794 1537 2939 
Q 1816 3084 2150 3084 
Q 2853 3084 3261 2657 
Q 3669 2231 3669 1497 
Q 3669 778 3244 343 
Q 2819 -91 2113 -91 
Q 1303 -91 875 529 
Q 447 1150 447 2328 
Q 447 3434 972 4092 
Q 1497 4750 2381 4750 
Q 2619 4750 2861 4703 
Q 3103 4656 3366 4563 
z
" transform="scale(0.015625)"/>
       </defs>
       <use xlink:href="#DejaVuSans-36"/>
      </g>
     </g>
    </g>
    <g id="xtick_5">
     <g id="line2d_13">
      <path d="M 100.9152 298.944 
L 100.9152 27.648 
" clip-path="url(#p5cc294ec95)" style="fill: none; stroke: #b0b0b0; stroke-width: 0.8; stroke-linecap: square"/>
     </g>
     <g id="line2d_14">
      <defs>
       <path id="m1cc8be9cdc" d="M 0 0 
L 0 2 
" style="stroke: #000000; stroke-width: 0.6"/>
      </defs>
      <g>
       <use xlink:href="#m1cc8be9cdc" x="100.9152" y="298.944" style="stroke: #000000; stroke-width: 0.6"/>
      </g>
     </g>
    </g>
    <g id="xtick_6">
     <g id="line2d_15">
      <path d="M 187.5456 298.944 
L 187.5456 27.648 
" clip-path="url(#p5cc294ec95)" style="fill: none; stroke: #b0b0b0; stroke-width: 0.8; stroke-linecap: square"/>
     </g>
     <g id="line2d_16">
      <g>
       <use xlink:href="#m1cc8be9cdc" x="187.5456" y="298.944" style="stroke: #000000; stroke-width: 0.6"/>
      </g>
     </g>
    </g>
    <g id="xtick_7">
     <g id="line2d_17">
      <path d="M 274.176 298.944 
L 274.176 27.648 
" clip-path="url(#p5cc294ec95)" style="fill: none; stroke: #b0b0b0; stroke-width: 0.8; stroke-linecap: square"/>
     </g>
     <g id="line2d_18">
      <g>
       <use xlink:href="#m1cc8be9cdc" x="274.176" y="298.944" style="stroke: #000000; stroke-width: 0.6"/>
      </g>
     </g>
    </g>
    <g id="xtick_8">
     <g id="line2d_19">
      <path d="M 360.8064 298.944 
L 360.8064 27.648 
" clip-path="url(#p5cc294ec95)" style="fill: none; stroke: #b0b0b0; stroke-width: 0.8; stroke-linecap: square"/>
     </g>
     <g id="line2d_20">
      <g>
       <use xlink:href="#m1cc8be9cdc" x="360.8064" y="298.944" style="stroke: #000000; stroke-width: 0.6"/>
      </g>
     </g>
    </g>
    <g id="text_5">
     <!-- log10(# f-evals / dimension) -->
     <g transform="translate(88.823278 339.314156)scale(0.17 -0.17)">
      <defs>
       <path id="DejaVuSans-6c" d="M 603 4863 
L 1178 4863 
L 1178 0 
L 603 0 
L 603 4863 
z
" transform="scale(0.015625)"/>
       <path id="DejaVuSans-6f" d="M 1959 3097 
Q 1497 3097 1228 2736 
Q 959 2375 959 1747 
Q 959 1119 1226 758 
Q 1494 397 1959 397 
Q 2419 397 2687 759 
Q 2956 1122 2956 1747 
Q 2956 2369 2687 2733 
Q 2419 3097 1959 3097 
z
M 1959 3584 
Q 2709 3584 3137 3096 
Q 3566 2609 3566 1747 
Q 3566 888 3137 398 
Q 2709 -91 1959 -91 
Q 1206 -91 779 398 
Q 353 888 353 1747 
Q 353 2609 779 3096 
Q 1206 3584 1959 3584 
z
" transform="scale(0.015625)"/>
       <path id="DejaVuSans-67" d="M 2906 1791 
Q 2906 2416 2648 2759 
Q 2391 3103 1925 3103 
Q 1463 3103 1205 2759 
Q 947 2416 947 1791 
Q 947 1169 1205 825 
Q 1463 481 1925 481 
Q 2391 481 2648 825 
Q 2906 1169 2906 1791 
z
M 3481 434 
Q 3481 -459 3084 -895 
Q 2688 -1331 1869 -1331 
Q 1566 -1331 1297 -1286 
Q 1028 -1241 775 -1147 
L 775 -588 
Q 1028 -725 1275 -790 
Q 1522 -856 1778 -856 
Q 2344 -856 2625 -561 
Q 2906 -266 2906 331 
L 2906 616 
Q 2728 306 2450 153 
Q 2172 0 1784 0 
Q 1141 0 747 490 
Q 353 981 353 1791 
Q 353 2603 747 3093 
Q 1141 3584 1784 3584 
Q 2172 3584 2450 3431 
Q 2728 3278 2906 2969 
L 2906 3500 
L 3481 3500 
L 3481 434 
z
" transform="scale(0.015625)"/>
       <path id="DejaVuSans-31" d="M 794 531 
L 1825 531 
L 1825 4091 
L 703 3866 
L 703 4441 
L 1819 4666 
L 2450 4666 
L 2450 531 
L 3481 531 
L 3481 0 
L 794 0 
L 794 531 
z
" transform="scale(0.015625)"/>
       <path id="DejaVuSans-28" d="M 1984 4856 
Q 1566 4138 1362 3434 
Q 1159 2731 1159 2009 
Q 1159 1288 1364 580 
Q 1569 -128 1984 -844 
L 1484 -844 
Q 1016 -109 783 600 
Q 550 1309 550 2009 
Q 550 2706 781 3412 
Q 1013 4119 1484 4856 
L 1984 4856 
z
" transform="scale(0.015625)"/>
       <path id="DejaVuSans-23" d="M 3272 2816 
L 2363 2816 
L 2100 1772 
L 3016 1772 
L 3272 2816 
z
M 2803 4594 
L 2478 3297 
L 3391 3297 
L 3719 4594 
L 4219 4594 
L 3897 3297 
L 4872 3297 
L 4872 2816 
L 3775 2816 
L 3519 1772 
L 4513 1772 
L 4513 1294 
L 3397 1294 
L 3072 0 
L 2572 0 
L 2894 1294 
L 1978 1294 
L 1656 0 
L 1153 0 
L 1478 1294 
L 494 1294 
L 494 1772 
L 1594 1772 
L 1856 2816 
L 850 2816 
L 850 3297 
L 1978 3297 
L 2297 4594 
L 2803 4594 
z
" transform="scale(0.015625)"/>
       <path id="DejaVuSans-20" transform="scale(0.015625)"/>
       <path id="DejaVuSans-66" d="M 2375 4863 
L 2375 4384 
L 1825 4384 
Q 1516 4384 1395 4259 
Q 1275 4134 1275 3809 
L 1275 3500 
L 2222 3500 
L 2222 3053 
L 1275 3053 
L 1275 0 
L 697 0 
L 697 3053 
L 147 3053 
L 147 3500 
L 697 3500 
L 697 3744 
Q 697 4328 969 4595 
Q 1241 4863 1831 4863 
L 2375 4863 
z
" transform="scale(0.015625)"/>
       <path id="DejaVuSans-2d" d="M 313 2009 
L 1997 2009 
L 1997 1497 
L 313 1497 
L 313 2009 
z
" transform="scale(0.015625)"/>
       <path id="DejaVuSans-65" d="M 3597 1894 
L 3597 1613 
L 953 1613 
Q 991 1019 1311 708 
Q 1631 397 2203 397 
Q 2534 397 2845 478 
Q 3156 559 3463 722 
L 3463 178 
Q 3153 47 2828 -22 
Q 2503 -91 2169 -91 
Q 1331 -91 842 396 
Q 353 884 353 1716 
Q 353 2575 817 3079 
Q 1281 3584 2069 3584 
Q 2775 3584 3186 3129 
Q 3597 2675 3597 1894 
z
M 3022 2063 
Q 3016 2534 2758 2815 
Q 2500 3097 2075 3097 
Q 1594 3097 1305 2825 
Q 1016 2553 972 2059 
L 3022 2063 
z
" transform="scale(0.015625)"/>
       <path id="DejaVuSans-76" d="M 191 3500 
L 800 3500 
L 1894 563 
L 2988 3500 
L 3597 3500 
L 2284 0 
L 1503 0 
L 191 3500 
z
" transform="scale(0.015625)"/>
       <path id="DejaVuSans-61" d="M 2194 1759 
Q 1497 1759 1228 1600 
Q 959 1441 959 1056 
Q 959 750 1161 570 
Q 1363 391 1709 391 
Q 2188 391 2477 730 
Q 2766 1069 2766 1631 
L 2766 1759 
L 2194 1759 
z
M 3341 1997 
L 3341 0 
L 2766 0 
L 2766 531 
Q 2569 213 2275 61 
Q 1981 -91 1556 -91 
Q 1019 -91 701 211 
Q 384 513 384 1019 
Q 384 1609 779 1909 
Q 1175 2209 1959 2209 
L 2766 2209 
L 2766 2266 
Q 2766 2663 2505 2880 
Q 2244 3097 1772 3097 
Q 1472 3097 1187 3025 
Q 903 2953 641 2809 
L 641 3341 
Q 956 3463 1253 3523 
Q 1550 3584 1831 3584 
Q 2591 3584 2966 3190 
Q 3341 2797 3341 1997 
z
" transform="scale(0.015625)"/>
       <path id="DejaVuSans-73" d="M 2834 3397 
L 2834 2853 
Q 2591 2978 2328 3040 
Q 2066 3103 1784 3103 
Q 1356 3103 1142 2972 
Q 928 2841 928 2578 
Q 928 2378 1081 2264 
Q 1234 2150 1697 2047 
L 1894 2003 
Q 2506 1872 2764 1633 
Q 3022 1394 3022 966 
Q 3022 478 2636 193 
Q 2250 -91 1575 -91 
Q 1294 -91 989 -36 
Q 684 19 347 128 
L 347 722 
Q 666 556 975 473 
Q 1284 391 1588 391 
Q 1994 391 2212 530 
Q 2431 669 2431 922 
Q 2431 1156 2273 1281 
Q 2116 1406 1581 1522 
L 1381 1569 
Q 847 1681 609 1914 
Q 372 2147 372 2553 
Q 372 3047 722 3315 
Q 1072 3584 1716 3584 
Q 2034 3584 2315 3537 
Q 2597 3491 2834 3397 
z
" transform="scale(0.015625)"/>
       <path id="DejaVuSans-2f" d="M 1625 4666 
L 2156 4666 
L 531 -594 
L 0 -594 
L 1625 4666 
z
" transform="scale(0.015625)"/>
       <path id="DejaVuSans-64" d="M 2906 2969 
L 2906 4863 
L 3481 4863 
L 3481 0 
L 2906 0 
L 2906 525 
Q 2725 213 2448 61 
Q 2172 -91 1784 -91 
Q 1150 -91 751 415 
Q 353 922 353 1747 
Q 353 2572 751 3078 
Q 1150 3584 1784 3584 
Q 2172 3584 2448 3432 
Q 2725 3281 2906 2969 
z
M 947 1747 
Q 947 1113 1208 752 
Q 1469 391 1925 391 
Q 2381 391 2643 752 
Q 2906 1113 2906 1747 
Q 2906 2381 2643 2742 
Q 2381 3103 1925 3103 
Q 1469 3103 1208 2742 
Q 947 2381 947 1747 
z
" transform="scale(0.015625)"/>
       <path id="DejaVuSans-69" d="M 603 3500 
L 1178 3500 
L 1178 0 
L 603 0 
L 603 3500 
z
M 603 4863 
L 1178 4863 
L 1178 4134 
L 603 4134 
L 603 4863 
z
" transform="scale(0.015625)"/>
       <path id="DejaVuSans-6d" d="M 3328 2828 
Q 3544 3216 3844 3400 
Q 4144 3584 4550 3584 
Q 5097 3584 5394 3201 
Q 5691 2819 5691 2113 
L 5691 0 
L 5113 0 
L 5113 2094 
Q 5113 2597 4934 2840 
Q 4756 3084 4391 3084 
Q 3944 3084 3684 2787 
Q 3425 2491 3425 1978 
L 3425 0 
L 2847 0 
L 2847 2094 
Q 2847 2600 2669 2842 
Q 2491 3084 2119 3084 
Q 1678 3084 1418 2786 
Q 1159 2488 1159 1978 
L 1159 0 
L 581 0 
L 581 3500 
L 1159 3500 
L 1159 2956 
Q 1356 3278 1631 3431 
Q 1906 3584 2284 3584 
Q 2666 3584 2933 3390 
Q 3200 3197 3328 2828 
z
" transform="scale(0.015625)"/>
       <path id="DejaVuSans-6e" d="M 3513 2113 
L 3513 0 
L 2938 0 
L 2938 2094 
Q 2938 2591 2744 2837 
Q 2550 3084 2163 3084 
Q 1697 3084 1428 2787 
Q 1159 2491 1159 1978 
L 1159 0 
L 581 0 
L 581 3500 
L 1159 3500 
L 1159 2956 
Q 1366 3272 1645 3428 
Q 1925 3584 2291 3584 
Q 2894 3584 3203 3211 
Q 3513 2838 3513 2113 
z
" transform="scale(0.015625)"/>
       <path id="DejaVuSans-29" d="M 513 4856 
L 1013 4856 
Q 1481 4119 1714 3412 
Q 1947 2706 1947 2009 
Q 1947 1309 1714 600 
Q 1481 -109 1013 -844 
L 513 -844 
Q 928 -128 1133 580 
Q 1338 1288 1338 2009 
Q 1338 2731 1133 3434 
Q 928 4138 513 4856 
z
" transform="scale(0.015625)"/>
      </defs>
      <use xlink:href="#DejaVuSans-6c"/>
      <use xlink:href="#DejaVuSans-6f" x="27.783203"/>
      <use xlink:href="#DejaVuSans-67" x="88.964844"/>
      <use xlink:href="#DejaVuSans-31" x="152.441406"/>
      <use xlink:href="#DejaVuSans-30" x="216.064453"/>
      <use xlink:href="#DejaVuSans-28" x="279.6875"/>
      <use xlink:href="#DejaVuSans-23" x="318.701172"/>
      <use xlink:href="#DejaVuSans-20" x="402.490234"/>
      <use xlink:href="#DejaVuSans-66" x="434.277344"/>
      <use xlink:href="#DejaVuSans-2d" x="463.982422"/>
      <use xlink:href="#DejaVuSans-65" x="500.066406"/>
      <use xlink:href="#DejaVuSans-76" x="561.589844"/>
      <use xlink:href="#DejaVuSans-61" x="620.769531"/>
      <use xlink:href="#DejaVuSans-6c" x="682.048828"/>
      <use xlink:href="#DejaVuSans-73" x="709.832031"/>
      <use xlink:href="#DejaVuSans-20" x="761.931641"/>
      <use xlink:href="#DejaVuSans-2f" x="793.71875"/>
      <use xlink:href="#DejaVuSans-20" x="827.410156"/>
      <use xlink:href="#DejaVuSans-64" x="859.197266"/>
      <use xlink:href="#DejaVuSans-69" x="922.673828"/>
      <use xlink:href="#DejaVuSans-6d" x="950.457031"/>
      <use xlink:href="#DejaVuSans-65" x="1047.869141"/>
      <use xlink:href="#DejaVuSans-6e" x="1109.392578"/>
      <use xlink:href="#DejaVuSans-73" x="1172.771484"/>
      <use xlink:href="#DejaVuSans-69" x="1224.871094"/>
      <use xlink:href="#DejaVuSans-6f" x="1252.654297"/>
      <use xlink:href="#DejaVuSans-6e" x="1313.835938"/>
      <use xlink:href="#DejaVuSans-29" x="1377.214844"/>
     </g>
    </g>
   </g>
   <g id="matplotlib.axis_2">
    <g id="ytick_1">
     <g id="line2d_21">
      <path d="M 57.6 298.944 
L 360.8064 298.944 
" clip-path="url(#p5cc294ec95)" style="fill: none; stroke: #b0b0b0; stroke-width: 0.8; stroke-linecap: square"/>
     </g>
     <g id="line2d_22">
      <defs>
       <path id="m00eb720114" d="M 0 0 
L -3.5 0 
" style="stroke: #000000; stroke-width: 0.8"/>
      </defs>
      <g>
       <use xlink:href="#m00eb720114" x="57.6" y="298.944" style="stroke: #000000; stroke-width: 0.8"/>
      </g>
     </g>
     <g id="text_6">
      <!-- 0.0 -->
      <g transform="translate(25.155 305.02275)scale(0.16 -0.16)">
       <defs>
        <path id="DejaVuSans-2e" d="M 684 794 
L 1344 794 
L 1344 0 
L 684 0 
L 684 794 
z
" transform="scale(0.015625)"/>
       </defs>
       <use xlink:href="#DejaVuSans-30"/>
       <use xlink:href="#DejaVuSans-2e" x="63.623047"/>
       <use xlink:href="#DejaVuSans-30" x="95.410156"/>
      </g>
     </g>
    </g>
    <g id="ytick_2">
     <g id="line2d_23">
      <path d="M 57.6 244.6848 
L 360.8064 244.6848 
" clip-path="url(#p5cc294ec95)" style="fill: none; stroke: #b0b0b0; stroke-width: 0.8; stroke-linecap: square"/>
     </g>
     <g id="line2d_24">
      <g>
       <use xlink:href="#m00eb720114" x="57.6" y="244.6848" style="stroke: #000000; stroke-width: 0.8"/>
      </g>
     </g>
     <g id="text_7">
      <!-- 0.2 -->
      <g transform="translate(25.155 250.76355)scale(0.16 -0.16)">
       <use xlink:href="#DejaVuSans-30"/>
       <use xlink:href="#DejaVuSans-2e" x="63.623047"/>
       <use xlink:href="#DejaVuSans-32" x="95.410156"/>
      </g>
     </g>
    </g>
    <g id="ytick_3">
     <g id="line2d_25">
      <path d="M 57.6 190.4256 
L 360.8064 190.4256 
" clip-path="url(#p5cc294ec95)" style="fill: none; stroke: #b0b0b0; stroke-width: 0.8; stroke-linecap: square"/>
     </g>
     <g id="line2d_26">
      <g>
       <use xlink:href="#m00eb720114" x="57.6" y="190.4256" style="stroke: #000000; stroke-width: 0.8"/>
      </g>
     </g>
     <g id="text_8">
      <!-- 0.4 -->
      <g transform="translate(25.155 196.50435)scale(0.16 -0.16)">
       <use xlink:href="#DejaVuSans-30"/>
       <use xlink:href="#DejaVuSans-2e" x="63.623047"/>
       <use xlink:href="#DejaVuSans-34" x="95.410156"/>
      </g>
     </g>
    </g>
    <g id="ytick_4">
     <g id="line2d_27">
      <path d="M 57.6 136.1664 
L 360.8064 136.1664 
" clip-path="url(#p5cc294ec95)" style="fill: none; stroke: #b0b0b0; stroke-width: 0.8; stroke-linecap: square"/>
     </g>
     <g id="line2d_28">
      <g>
       <use xlink:href="#m00eb720114" x="57.6" y="136.1664" style="stroke: #000000; stroke-width: 0.8"/>
      </g>
     </g>
     <g id="text_9">
      <!-- 0.6 -->
      <g transform="translate(25.155 142.24515)scale(0.16 -0.16)">
       <use xlink:href="#DejaVuSans-30"/>
       <use xlink:href="#DejaVuSans-2e" x="63.623047"/>
       <use xlink:href="#DejaVuSans-36" x="95.410156"/>
      </g>
     </g>
    </g>
    <g id="ytick_5">
     <g id="line2d_29">
      <path d="M 57.6 81.9072 
L 360.8064 81.9072 
" clip-path="url(#p5cc294ec95)" style="fill: none; stroke: #b0b0b0; stroke-width: 0.8; stroke-linecap: square"/>
     </g>
     <g id="line2d_30">
      <g>
       <use xlink:href="#m00eb720114" x="57.6" y="81.9072" style="stroke: #000000; stroke-width: 0.8"/>
      </g>
     </g>
     <g id="text_10">
      <!-- 0.8 -->
      <g transform="translate(25.155 87.98595)scale(0.16 -0.16)">
       <defs>
        <path id="DejaVuSans-38" d="M 2034 2216 
Q 1584 2216 1326 1975 
Q 1069 1734 1069 1313 
Q 1069 891 1326 650 
Q 1584 409 2034 409 
Q 2484 409 2743 651 
Q 3003 894 3003 1313 
Q 3003 1734 2745 1975 
Q 2488 2216 2034 2216 
z
M 1403 2484 
Q 997 2584 770 2862 
Q 544 3141 544 3541 
Q 544 4100 942 4425 
Q 1341 4750 2034 4750 
Q 2731 4750 3128 4425 
Q 3525 4100 3525 3541 
Q 3525 3141 3298 2862 
Q 3072 2584 2669 2484 
Q 3125 2378 3379 2068 
Q 3634 1759 3634 1313 
Q 3634 634 3220 271 
Q 2806 -91 2034 -91 
Q 1263 -91 848 271 
Q 434 634 434 1313 
Q 434 1759 690 2068 
Q 947 2378 1403 2484 
z
M 1172 3481 
Q 1172 3119 1398 2916 
Q 1625 2713 2034 2713 
Q 2441 2713 2670 2916 
Q 2900 3119 2900 3481 
Q 2900 3844 2670 4047 
Q 2441 4250 2034 4250 
Q 1625 4250 1398 4047 
Q 1172 3844 1172 3481 
z
" transform="scale(0.015625)"/>
       </defs>
       <use xlink:href="#DejaVuSans-30"/>
       <use xlink:href="#DejaVuSans-2e" x="63.623047"/>
       <use xlink:href="#DejaVuSans-38" x="95.410156"/>
      </g>
     </g>
    </g>
    <g id="ytick_6">
     <g id="line2d_31">
      <path d="M 57.6 27.648 
L 360.8064 27.648 
" clip-path="url(#p5cc294ec95)" style="fill: none; stroke: #b0b0b0; stroke-width: 0.8; stroke-linecap: square"/>
     </g>
     <g id="line2d_32">
      <g>
       <use xlink:href="#m00eb720114" x="57.6" y="27.648" style="stroke: #000000; stroke-width: 0.8"/>
      </g>
     </g>
     <g id="text_11">
      <!-- 1.0 -->
      <g transform="translate(25.155 33.72675)scale(0.16 -0.16)">
       <use xlink:href="#DejaVuSans-31"/>
       <use xlink:href="#DejaVuSans-2e" x="63.623047"/>
       <use xlink:href="#DejaVuSans-30" x="95.410156"/>
      </g>
     </g>
    </g>
    <g id="text_12">
     <!-- Fraction of function,target pairs -->
     <g transform="translate(17.619531 297.681)rotate(-90)scale(0.17 -0.17)">
      <defs>
       <path id="DejaVuSans-46" d="M 628 4666 
L 3309 4666 
L 3309 4134 
L 1259 4134 
L 1259 2759 
L 3109 2759 
L 3109 2228 
L 1259 2228 
L 1259 0 
L 628 0 
L 628 4666 
z
" transform="scale(0.015625)"/>
       <path id="DejaVuSans-72" d="M 2631 2963 
Q 2534 3019 2420 3045 
Q 2306 3072 2169 3072 
Q 1681 3072 1420 2755 
Q 1159 2438 1159 1844 
L 1159 0 
L 581 0 
L 581 3500 
L 1159 3500 
L 1159 2956 
Q 1341 3275 1631 3429 
Q 1922 3584 2338 3584 
Q 2397 3584 2469 3576 
Q 2541 3569 2628 3553 
L 2631 2963 
z
" transform="scale(0.015625)"/>
       <path id="DejaVuSans-63" d="M 3122 3366 
L 3122 2828 
Q 2878 2963 2633 3030 
Q 2388 3097 2138 3097 
Q 1578 3097 1268 2742 
Q 959 2388 959 1747 
Q 959 1106 1268 751 
Q 1578 397 2138 397 
Q 2388 397 2633 464 
Q 2878 531 3122 666 
L 3122 134 
Q 2881 22 2623 -34 
Q 2366 -91 2075 -91 
Q 1284 -91 818 406 
Q 353 903 353 1747 
Q 353 2603 823 3093 
Q 1294 3584 2113 3584 
Q 2378 3584 2631 3529 
Q 2884 3475 3122 3366 
z
" transform="scale(0.015625)"/>
       <path id="DejaVuSans-74" d="M 1172 4494 
L 1172 3500 
L 2356 3500 
L 2356 3053 
L 1172 3053 
L 1172 1153 
Q 1172 725 1289 603 
Q 1406 481 1766 481 
L 2356 481 
L 2356 0 
L 1766 0 
Q 1100 0 847 248 
Q 594 497 594 1153 
L 594 3053 
L 172 3053 
L 172 3500 
L 594 3500 
L 594 4494 
L 1172 4494 
z
" transform="scale(0.015625)"/>
       <path id="DejaVuSans-75" d="M 544 1381 
L 544 3500 
L 1119 3500 
L 1119 1403 
Q 1119 906 1312 657 
Q 1506 409 1894 409 
Q 2359 409 2629 706 
Q 2900 1003 2900 1516 
L 2900 3500 
L 3475 3500 
L 3475 0 
L 2900 0 
L 2900 538 
Q 2691 219 2414 64 
Q 2138 -91 1772 -91 
Q 1169 -91 856 284 
Q 544 659 544 1381 
z
M 1991 3584 
L 1991 3584 
z
" transform="scale(0.015625)"/>
       <path id="DejaVuSans-2c" d="M 750 794 
L 1409 794 
L 1409 256 
L 897 -744 
L 494 -744 
L 750 256 
L 750 794 
z
" transform="scale(0.015625)"/>
       <path id="DejaVuSans-70" d="M 1159 525 
L 1159 -1331 
L 581 -1331 
L 581 3500 
L 1159 3500 
L 1159 2969 
Q 1341 3281 1617 3432 
Q 1894 3584 2278 3584 
Q 2916 3584 3314 3078 
Q 3713 2572 3713 1747 
Q 3713 922 3314 415 
Q 2916 -91 2278 -91 
Q 1894 -91 1617 61 
Q 1341 213 1159 525 
z
M 3116 1747 
Q 3116 2381 2855 2742 
Q 2594 3103 2138 3103 
Q 1681 3103 1420 2742 
Q 1159 2381 1159 1747 
Q 1159 1113 1420 752 
Q 1681 391 2138 391 
Q 2594 391 2855 752 
Q 3116 1113 3116 1747 
z
" transform="scale(0.015625)"/>
      </defs>
      <use xlink:href="#DejaVuSans-46"/>
      <use xlink:href="#DejaVuSans-72" x="50.269531"/>
      <use xlink:href="#DejaVuSans-61" x="91.382812"/>
      <use xlink:href="#DejaVuSans-63" x="152.662109"/>
      <use xlink:href="#DejaVuSans-74" x="207.642578"/>
      <use xlink:href="#DejaVuSans-69" x="246.851562"/>
      <use xlink:href="#DejaVuSans-6f" x="274.634766"/>
      <use xlink:href="#DejaVuSans-6e" x="335.816406"/>
      <use xlink:href="#DejaVuSans-20" x="399.195312"/>
      <use xlink:href="#DejaVuSans-6f" x="430.982422"/>
      <use xlink:href="#DejaVuSans-66" x="492.164062"/>
      <use xlink:href="#DejaVuSans-20" x="527.369141"/>
      <use xlink:href="#DejaVuSans-66" x="559.15625"/>
      <use xlink:href="#DejaVuSans-75" x="594.361328"/>
      <use xlink:href="#DejaVuSans-6e" x="657.740234"/>
      <use xlink:href="#DejaVuSans-63" x="721.119141"/>
      <use xlink:href="#DejaVuSans-74" x="776.099609"/>
      <use xlink:href="#DejaVuSans-69" x="815.308594"/>
      <use xlink:href="#DejaVuSans-6f" x="843.091797"/>
      <use xlink:href="#DejaVuSans-6e" x="904.273438"/>
      <use xlink:href="#DejaVuSans-2c" x="967.652344"/>
      <use xlink:href="#DejaVuSans-74" x="999.439453"/>
      <use xlink:href="#DejaVuSans-61" x="1038.648438"/>
      <use xlink:href="#DejaVuSans-72" x="1099.927734"/>
      <use xlink:href="#DejaVuSans-67" x="1139.291016"/>
      <use xlink:href="#DejaVuSans-65" x="1202.767578"/>
      <use xlink:href="#DejaVuSans-74" x="1264.291016"/>
      <use xlink:href="#DejaVuSans-20" x="1303.5"/>
      <use xlink:href="#DejaVuSans-70" x="1335.287109"/>
      <use xlink:href="#DejaVuSans-61" x="1398.763672"/>
      <use xlink:href="#DejaVuSans-69" x="1460.042969"/>
      <use xlink:href="#DejaVuSans-72" x="1487.826172"/>
      <use xlink:href="#DejaVuSans-73" x="1528.939453"/>
     </g>
    </g>
   </g>
   <g id="line2d_33">
    <defs>
     <path id="mc0ec2e25a4" d="M 0 1.5 
C 0.397805 1.5 0.77937 1.341951 1.06066 1.06066 
C 1.341951 0.77937 1.5 0.397805 1.5 0 
C 1.5 -0.397805 1.341951 -0.77937 1.06066 -1.06066 
C 0.77937 -1.341951 0.397805 -1.5 0 -1.5 
C -0.397805 -1.5 -0.77937 -1.341951 -1.06066 -1.06066 
C -1.341951 -0.77937 -1.5 -0.397805 -1.5 0 
C -1.5 0.397805 -1.341951 0.77937 -1.06066 1.06066 
C -0.77937 1.341951 -0.397805 1.5 0 1.5 
z
" style="stroke: #f5deb3"/>
    </defs>
    <g>
     <use xlink:href="#mc0ec2e25a4" x="136.97549" y="27.648" style="fill: #f5deb3; stroke: #f5deb3"/>
     <use xlink:href="#mc0ec2e25a4" x="136.97549" y="27.648" style="fill: #f5deb3; stroke: #f5deb3"/>
    </g>
   </g>
   <g id="line2d_34">
    <defs>
     <path id="m0a6949172a" d="M 0 1.5 
C 0.397805 1.5 0.77937 1.341951 1.06066 1.06066 
C 1.341951 0.77937 1.5 0.397805 1.5 0 
C 1.5 -0.397805 1.341951 -0.77937 1.06066 -1.06066 
C 0.77937 -1.341951 0.397805 -1.5 0 -1.5 
C -0.397805 -1.5 -0.77937 -1.341951 -1.06066 -1.06066 
C -1.341951 -0.77937 -1.5 -0.397805 -1.5 0 
C -1.5 0.397805 -1.341951 0.77937 -1.06066 1.06066 
C -0.77937 1.341951 -0.397805 1.5 0 1.5 
z
" style="stroke: #000080"/>
    </defs>
    <g>
     <use xlink:href="#m0a6949172a" x="291.13843" y="27.648" style="fill: #000080; stroke: #000080"/>
     <use xlink:href="#m0a6949172a" x="291.13843" y="27.648" style="fill: #000080; stroke: #000080"/>
    </g>
   </g>
   <g id="line2d_35">
    <path d="M 44.560826 298.944 
L 44.560826 296.816188 
L 57.6 296.816188 
L 57.6 295.397647 
L 65.227428 295.397647 
L 65.227428 285.113224 
L 70.639174 285.113224 
L 70.639174 283.340047 
L 74.836851 283.340047 
L 74.836851 282.630776 
L 81.166416 282.630776 
L 81.166416 281.921506 
L 83.678349 281.921506 
L 83.678349 280.502965 
L 89.668958 280.502965 
L 89.668958 278.729788 
L 91.305777 278.729788 
L 91.305777 277.665882 
L 92.811505 277.665882 
L 92.811505 275.892706 
L 94.205591 275.892706 
L 94.205591 274.8288 
L 95.503454 274.8288 
L 95.503454 271.991718 
L 96.717523 271.991718 
L 96.717523 270.927812 
L 98.933205 270.927812 
L 98.933205 269.509271 
L 107.244765 269.509271 
L 107.244765 266.672188 
L 108.542628 266.672188 
L 108.542628 265.253647 
L 109.159456 265.253647 
L 109.159456 263.125835 
L 109.756698 263.125835 
L 109.756698 259.579482 
L 112.989468 259.579482 
L 112.989468 259.224847 
L 113.478107 259.224847 
L 113.478107 257.451671 
L 115.314838 257.451671 
L 115.314838 255.323859 
L 118.524569 255.323859 
L 118.524569 254.969224 
L 119.599808 254.969224 
L 119.599808 254.259953 
L 119.944983 254.259953 
L 119.944983 252.841412 
L 122.795872 252.841412 
L 122.795872 252.486776 
L 128.133992 252.486776 
L 128.133992 251.422871 
L 132.46399 251.422871 
L 132.46399 251.068235 
L 135.835047 251.068235 
L 135.835047 247.521882 
L 136.836659 247.521882 
L 136.836659 247.167247 
L 137.250116 247.167247 
L 137.250116 246.812612 
L 137.654681 246.812612 
L 137.654681 245.394071 
L 139.067817 245.394071 
L 139.067817 245.039435 
L 143.066428 245.039435 
L 143.066428 244.330165 
L 147.423525 244.330165 
L 147.502732 243.620894 
L 148.200973 243.620894 
L 148.200973 241.847718 
L 148.800595 241.847718 
L 148.800595 240.429176 
L 150.357325 240.429176 
L 150.357325 239.365271 
L 151.089903 239.365271 
L 151.089903 237.946729 
L 152.894708 237.946729 
L 152.894708 237.592094 
L 154.212341 237.592094 
L 154.212341 235.109647 
L 157.916719 235.109647 
L 157.916719 234.400376 
L 158.187393 234.400376 
L 158.187393 234.045741 
L 159.359426 234.045741 
L 159.359426 233.691106 
L 163.328465 233.691106 
L 163.3965 230.854024 
L 163.531835 230.854024 
L 163.531835 229.790118 
L 163.79962 229.790118 
L 163.79962 229.435482 
L 163.997986 229.435482 
L 163.997986 229.080847 
L 164.388551 229.080847 
L 164.388551 228.016941 
L 166.169767 228.016941 
L 166.169767 226.243765 
L 166.460523 226.243765 
L 166.460523 223.406682 
L 166.860176 223.406682 
L 166.860176 222.697412 
L 166.972821 222.697412 
L 167.000877 221.633506 
L 167.16834 221.633506 
L 167.16834 221.278871 
L 167.306762 221.278871 
L 167.306762 220.924235 
L 167.661966 220.924235 
L 167.716022 220.214965 
L 167.796816 220.214965 
L 167.796816 219.860329 
L 167.930707 219.860329 
L 167.930707 219.505694 
L 168.195663 219.505694 
L 168.300609 218.796424 
L 169.244573 218.796424 
L 169.244573 218.087153 
L 170.09592 218.087153 
L 170.09592 217.732518 
L 170.49593 217.732518 
L 170.49593 217.023247 
L 170.864796 217.023247 
L 170.864796 216.668612 
L 171.360458 216.668612 
L 171.360458 215.959341 
L 173.10076 215.959341 
L 173.10076 215.604706 
L 173.302386 215.604706 
L 173.302386 214.186165 
L 173.442249 214.186165 
L 173.442249 213.476894 
L 173.972187 213.476894 
L 173.972187 213.122259 
L 174.260272 213.122259 
L 174.336355 210.994447 
L 174.393216 210.994447 
L 174.393216 210.285176 
L 174.581522 210.285176 
L 174.637648 209.575906 
L 174.767961 209.575906 
L 174.767961 208.866635 
L 177.826122 208.866635 
L 177.841883 208.157365 
L 178.169864 208.157365 
L 178.169864 207.448094 
L 178.613589 207.448094 
L 178.704102 206.029553 
L 179.017511 206.029553 
L 179.091369 205.320282 
L 179.714853 205.320282 
L 179.714853 204.965647 
L 180.59256 204.965647 
L 180.59256 204.611012 
L 182.383017 204.611012 
L 182.383017 204.256376 
L 183.158861 204.256376 
L 183.158861 203.901741 
L 183.823897 203.901741 
L 183.823897 203.547106 
L 184.006424 203.547106 
L 184.006424 203.192471 
L 185.076616 203.192471 
L 185.076616 202.837835 
L 185.268681 202.837835 
L 185.268681 202.128565 
L 186.038305 202.128565 
L 186.038305 201.419294 
L 186.361605 201.419294 
L 186.361605 200.710024 
L 186.580694 200.710024 
L 186.580694 200.355388 
L 187.732781 200.355388 
L 187.732781 200.000753 
L 188.065084 200.000753 
L 188.065084 199.646118 
L 188.328568 199.646118 
L 188.328568 199.291482 
L 189.201221 199.291482 
L 189.201221 198.936847 
L 189.902879 198.936847 
L 189.902879 198.227576 
L 190.043419 198.227576 
L 190.1338 194.326588 
L 191.154771 194.326588 
L 191.154771 193.971953 
L 192.423108 193.971953 
L 192.423108 192.908047 
L 194.181701 192.908047 
L 194.181701 192.553412 
L 194.64524 192.553412 
L 194.64524 190.780235 
L 195.686412 190.780235 
L 195.729075 190.070965 
L 196.132604 190.070965 
L 196.132604 189.716329 
L 197.107935 189.716329 
L 197.107935 189.361694 
L 197.851177 189.361694 
L 197.851177 189.007059 
L 198.105062 189.007059 
L 198.105062 188.652424 
L 198.344975 188.652424 
L 198.344975 188.297788 
L 199.036673 188.297788 
L 199.036673 187.943153 
L 199.199369 187.943153 
L 199.199369 187.588518 
L 199.530549 187.588518 
L 199.530549 187.233882 
L 199.753056 187.233882 
L 199.753056 186.879247 
L 199.953519 186.879247 
L 199.953519 186.524612 
L 200.271795 186.524612 
L 200.271795 186.169976 
L 200.785919 186.169976 
L 200.785919 185.815341 
L 201.358718 185.815341 
L 201.358718 185.460706 
L 201.672028 185.460706 
L 201.672028 185.106071 
L 202.076026 185.106071 
L 202.076026 184.751435 
L 202.394801 184.751435 
L 202.394801 183.332894 
L 202.917143 183.332894 
L 202.942054 182.623624 
L 203.489962 182.623624 
L 203.489962 182.268988 
L 204.084937 182.268988 
L 204.084937 181.205082 
L 204.410083 181.205082 
L 204.410083 180.850447 
L 204.857547 180.850447 
L 204.857547 180.495812 
L 205.331191 180.495812 
L 205.331191 180.141176 
L 206.139415 180.141176 
L 206.216268 177.658729 
L 207.250596 177.658729 
L 207.250596 176.949459 
L 208.149393 176.949459 
L 208.246659 175.885553 
L 208.380749 175.885553 
L 208.380749 175.530918 
L 208.627705 175.530918 
L 208.627705 175.176282 
L 209.520096 175.176282 
L 209.520096 174.821647 
L 209.720824 174.821647 
L 209.720824 174.467012 
L 209.89938 174.467012 
L 209.89938 174.112376 
L 210.025076 174.112376 
L 210.025076 173.757741 
L 210.316077 173.757741 
L 210.316077 173.403106 
L 211.932326 173.403106 
L 211.932326 173.048471 
L 212.088609 173.048471 
L 212.088609 172.693835 
L 212.943997 172.693835 
L 212.943997 172.3392 
L 213.224699 172.3392 
L 213.224699 171.984565 
L 214.093043 171.984565 
L 214.093043 171.629929 
L 214.436217 171.629929 
L 214.463222 170.566024 
L 215.31829 170.566024 
L 215.31829 170.211388 
L 215.862609 170.211388 
L 215.885558 169.502118 
L 216.047495 169.502118 
L 216.047495 169.147482 
L 217.014469 169.147482 
L 217.083071 168.438212 
L 217.403151 168.438212 
L 217.403151 168.083576 
L 218.474222 168.083576 
L 218.550382 167.374306 
L 219.133028 167.374306 
L 219.133028 167.019671 
L 219.444488 167.019671 
L 219.444488 166.665035 
L 221.460275 166.665035 
L 221.460275 166.3104 
L 221.648469 166.3104 
L 221.669946 164.891859 
L 221.903065 164.891859 
L 221.903065 164.537224 
L 222.097396 164.537224 
L 222.097396 164.182588 
L 223.381866 164.182588 
L 223.381866 163.473318 
L 223.547706 163.473318 
L 223.637677 162.409412 
L 223.735464 162.409412 
L 223.735464 161.700141 
L 223.855963 161.700141 
L 223.855963 159.217694 
L 224.000093 159.217694 
L 224.000093 158.863059 
L 224.224948 158.863059 
L 224.266394 157.799153 
L 224.525026 157.799153 
L 224.525026 157.444518 
L 224.748937 157.444518 
L 224.748937 157.089882 
L 224.901909 157.089882 
L 224.901909 156.380612 
L 225.113746 156.380612 
L 225.218141 155.316706 
L 226.120416 155.316706 
L 226.120416 154.962071 
L 226.483559 154.962071 
L 226.516766 154.2528 
L 227.117304 154.2528 
L 227.117304 153.543529 
L 227.633496 153.543529 
L 227.633496 153.188894 
L 227.800247 153.188894 
L 227.800247 152.834259 
L 228.283181 152.834259 
L 228.283181 152.479624 
L 228.437877 152.479624 
L 228.456056 150.351812 
L 229.079433 150.351812 
L 229.149614 147.869365 
L 229.23082 147.869365 
L 229.23082 147.514729 
L 229.621631 147.514729 
L 229.727821 145.032282 
L 229.90975 145.032282 
L 229.90975 144.677647 
L 230.186698 144.677647 
L 230.265499 143.613741 
L 230.588899 143.613741 
L 230.671738 142.904471 
L 231.398574 142.904471 
L 231.456984 142.1952 
L 232.53364 142.1952 
L 232.53364 141.840565 
L 234.129179 141.840565 
L 234.129179 141.485929 
L 234.457544 141.485929 
L 234.457544 141.131294 
L 234.589925 141.131294 
L 234.589925 140.776659 
L 235.257574 140.776659 
L 235.355598 140.067388 
L 235.371145 140.067388 
L 235.371145 139.712753 
L 235.644452 139.712753 
L 235.740485 138.648847 
L 235.921034 138.648847 
L 235.921034 138.294212 
L 236.257256 138.294212 
L 236.257256 137.939576 
L 236.616687 137.939576 
L 236.659583 136.521035 
L 236.751958 136.521035 
L 236.751958 135.811765 
L 236.917646 135.811765 
L 236.917646 135.102494 
L 237.18499 135.102494 
L 237.18499 134.747859 
L 237.405463 134.747859 
L 237.405463 134.393224 
L 238.143981 134.393224 
L 238.143981 134.038588 
L 238.481957 134.038588 
L 238.481957 133.683953 
L 238.634389 133.683953 
L 238.634389 133.329318 
L 239.603277 133.329318 
L 239.603277 132.974682 
L 239.883658 132.974682 
L 239.883658 132.620047 
L 240.183429 132.620047 
L 240.183429 132.265412 
L 240.40842 132.265412 
L 240.40842 131.910776 
L 241.165289 131.910776 
L 241.25698 130.846871 
L 241.533136 130.846871 
L 241.624648 129.428329 
L 241.773729 129.428329 
L 241.773729 129.073694 
L 242.486198 129.073694 
L 242.486198 128.719059 
L 242.902367 128.719059 
L 242.902367 128.364424 
L 243.07612 128.364424 
L 243.07612 128.009788 
L 243.293992 128.009788 
L 243.293992 126.945882 
L 243.446364 126.945882 
L 243.446364 126.591247 
L 243.56307 126.591247 
L 243.56307 125.881976 
L 243.938029 125.881976 
L 244.020452 123.754165 
L 244.116003 123.754165 
L 244.116003 123.399529 
L 244.257733 123.399529 
L 244.289084 122.690259 
L 244.550753 122.690259 
L 244.661277 121.980988 
L 244.697824 121.980988 
L 244.697824 121.626353 
L 245.032449 121.626353 
L 245.032449 121.271718 
L 245.145469 121.271718 
L 245.17142 119.853176 
L 245.509458 119.853176 
L 245.583568 118.789271 
L 245.641533 118.789271 
L 245.749683 116.661459 
L 245.779071 116.661459 
L 245.875431 114.888282 
L 245.911809 114.888282 
L 245.99193 113.824376 
L 246.05704 113.824376 
L 246.15783 112.0512 
L 246.184089 112.0512 
L 246.280888 109.923388 
L 246.300768 109.923388 
L 246.398617 109.214118 
L 246.426187 109.214118 
L 246.531158 107.440941 
L 246.539743 107.440941 
L 246.613983 103.894588 
L 246.672921 103.894588 
L 246.672921 102.830682 
L 246.937281 102.830682 
L 247.009173 101.412141 
L 247.169144 101.412141 
L 247.26495 100.702871 
L 247.295599 100.702871 
L 247.403261 99.9936 
L 247.419649 99.9936 
L 247.521563 96.801882 
L 247.540174 96.801882 
L 247.646064 92.546259 
L 247.654155 92.546259 
L 247.742928 91.482353 
L 247.777019 91.482353 
L 247.836244 90.418447 
L 247.915048 90.418447 
L 248.024898 88.290635 
L 248.069413 88.290635 
L 248.176494 82.616471 
L 248.226258 82.616471 
L 248.252023 80.488659 
L 248.379212 80.488659 
L 248.379212 79.424753 
L 248.493393 79.424753 
L 248.596263 77.651576 
L 248.628477 77.651576 
L 248.734978 74.814494 
L 248.779297 74.814494 
L 248.841602 71.977412 
L 248.906586 71.977412 
L 248.969549 68.785694 
L 249.204425 68.785694 
L 249.285131 67.721788 
L 249.4812 67.721788 
L 249.580907 66.657882 
L 250.063197 66.657882 
L 250.063197 66.303247 
L 250.293591 66.303247 
L 250.293591 65.593976 
L 250.618846 65.593976 
L 250.72679 64.175435 
L 250.730389 64.175435 
L 250.804493 62.402259 
L 250.867919 62.402259 
L 250.954094 60.983718 
L 251.054672 60.983718 
L 251.123349 59.919812 
L 251.314573 59.919812 
L 251.322816 59.210541 
L 252.33862 59.210541 
L 252.33862 58.855906 
L 253.1902 58.855906 
L 253.1902 58.501271 
L 253.519083 58.501271 
L 253.519083 58.146635 
L 253.682511 58.146635 
L 253.753672 56.018824 
L 253.882192 56.018824 
L 253.984545 55.309553 
L 254.063892 55.309553 
L 254.081966 52.827106 
L 254.177523 52.827106 
L 254.177523 52.117835 
L 254.360181 52.117835 
L 254.363418 50.344659 
L 254.640986 50.344659 
L 254.746703 49.635388 
L 254.92342 49.635388 
L 254.92342 49.280753 
L 255.422935 49.280753 
L 255.475622 47.862212 
L 255.701487 47.862212 
L 255.701487 47.152941 
L 256.597696 47.152941 
L 256.597696 46.798306 
L 256.765044 46.798306 
L 256.813161 46.089035 
L 256.932093 46.089035 
L 256.932093 45.379765 
L 257.068736 45.379765 
L 257.170978 43.606588 
L 257.340692 43.606588 
L 257.444675 42.542682 
L 257.505695 42.542682 
L 257.505695 40.769506 
L 257.625557 40.769506 
L 257.625557 40.414871 
L 257.896341 40.414871 
L 257.952796 39.7056 
L 258.080256 39.7056 
L 258.080256 39.350965 
L 258.273127 39.350965 
L 258.294581 38.287059 
L 258.405838 38.287059 
L 258.475962 37.577788 
L 258.621453 37.577788 
L 258.621453 37.223153 
L 259.722847 37.223153 
L 259.722847 36.868518 
L 259.871921 36.868518 
L 259.871921 36.159247 
L 260.001649 36.159247 
L 260.02641 34.740706 
L 262.504813 34.740706 
L 262.504813 34.386071 
L 262.695036 34.386071 
L 262.695036 34.031435 
L 277.612099 34.031435 
L 277.625885 33.322165 
L 278.083406 33.322165 
L 278.083406 32.967529 
L 278.380748 32.967529 
L 278.474462 31.194353 
L 278.53827 31.194353 
L 278.53827 30.839718 
L 278.679832 30.839718 
L 278.679832 30.485082 
L 279.68164 30.485082 
L 279.68164 30.130447 
L 279.951341 30.130447 
L 279.951341 29.775812 
L 280.160178 29.775812 
L 280.160178 29.421176 
L 282.337302 29.421176 
L 282.337302 29.066541 
L 287.85241 29.066541 
L 287.85241 28.711906 
L 289.082053 28.711906 
L 289.082053 28.357271 
L 289.252305 28.357271 
L 289.252305 28.002635 
L 291.13843 28.002635 
L 291.13843 27.648 
L 360.8064 27.648 
L 360.8064 27.648 
" style="fill: none; stroke: #000080; stroke-width: 1.5; stroke-linecap: square"/>
   </g>
   <g id="line2d_36">
    <defs>
     <path id="md3cf7fe576" d="M 0 6 
C 1.591219 6 3.117479 5.367802 4.242641 4.242641 
C 5.367802 3.117479 6 1.591219 6 0 
C 6 -1.591219 5.367802 -3.117479 4.242641 -4.242641 
C 3.117479 -5.367802 1.591219 -6 0 -6 
C -1.591219 -6 -3.117479 -5.367802 -4.242641 -4.242641 
C -5.367802 -3.117479 -6 -1.591219 -6 0 
C -6 1.591219 -5.367802 3.117479 -4.242641 4.242641 
C -3.117479 5.367802 -1.591219 6 0 6 
z
" style="stroke: #000080; stroke-width: 1.5"/>
    </defs>
    <g>
     <use xlink:href="#md3cf7fe576" x="98.933205" y="269.509271" style="fill-opacity: 0; stroke: #000080; stroke-width: 1.5"/>
     <use xlink:href="#md3cf7fe576" x="178.704102" y="206.029553" style="fill-opacity: 0; stroke: #000080; stroke-width: 1.5"/>
     <use xlink:href="#md3cf7fe576" x="246.05704" y="113.824376" style="fill-opacity: 0; stroke: #000080; stroke-width: 1.5"/>
     <use xlink:href="#md3cf7fe576" x="291.13843" y="28.002635" style="fill-opacity: 0; stroke: #000080; stroke-width: 1.5"/>
     <use xlink:href="#md3cf7fe576" x="291.13843" y="27.648" style="fill-opacity: 0; stroke: #000080; stroke-width: 1.5"/>
     <use xlink:href="#md3cf7fe576" x="360.8064" y="27.648" style="fill-opacity: 0; stroke: #000080; stroke-width: 1.5"/>
    </g>
   </g>
   <g id="line2d_37">
    <path style="fill: none; stroke: #000080; stroke-width: 1.5; stroke-linecap: square"/>
    <g/>
   </g>
   <g id="line2d_38">
    <path d="M 274.176 34.031435 
" clip-path="url(#p5cc294ec95)" style="fill: none; stroke: #000080; stroke-width: 1.5; stroke-linecap: square"/>
    <defs>
     <path id="mc718651d06" d="M -12 12 
L 12 -12 
M -12 -12 
L 12 12 
" style="stroke: #000080"/>
    </defs>
    <g clip-path="url(#p5cc294ec95)">
     <use xlink:href="#mc718651d06" x="274.176" y="34.031435" style="fill: #000080; stroke: #000080"/>
    </g>
   </g>
   <g id="line2d_39">
    <defs>
     <path id="mcba540f485" d="M 0 1.5 
C 0.397805 1.5 0.77937 1.341951 1.06066 1.06066 
C 1.341951 0.77937 1.5 0.397805 1.5 0 
C 1.5 -0.397805 1.341951 -0.77937 1.06066 -1.06066 
C 0.77937 -1.341951 0.397805 -1.5 0 -1.5 
C -0.397805 -1.5 -0.77937 -1.341951 -1.06066 -1.06066 
C -1.341951 -0.77937 -1.5 -0.397805 -1.5 0 
C -1.5 0.397805 -1.341951 0.77937 -1.06066 1.06066 
C -0.77937 1.341951 -0.397805 1.5 0 1.5 
z
" style="stroke: #ff00ff"/>
    </defs>
    <g>
     <use xlink:href="#mcba540f485" x="337.133212" y="27.648" style="fill: #ff00ff; stroke: #ff00ff"/>
     <use xlink:href="#mcba540f485" x="337.133212" y="27.648" style="fill: #ff00ff; stroke: #ff00ff"/>
    </g>
   </g>
   <g id="line2d_40">
    <path d="M 44.560826 298.944 
L 44.560826 296.816188 
L 57.6 296.816188 
L 57.6 294.333741 
L 70.639174 294.333741 
L 70.639174 290.432753 
L 78.266603 290.432753 
L 78.266603 290.078118 
L 81.166416 290.078118 
L 81.166416 287.241035 
L 83.678349 287.241035 
L 83.678349 286.531765 
L 85.894031 286.531765 
L 85.894031 285.822494 
L 87.876026 285.822494 
L 87.876026 285.113224 
L 89.668958 285.113224 
L 89.668958 284.403953 
L 91.305777 284.403953 
L 91.305777 281.212235 
L 92.811505 281.212235 
L 92.811505 278.729788 
L 96.717523 278.729788 
L 96.717523 277.311247 
L 97.857967 277.311247 
L 97.857967 274.119529 
L 99.950294 274.119529 
L 99.950294 273.764894 
L 101.833019 273.764894 
L 101.833019 273.055624 
L 105.112877 273.055624 
L 105.112877 272.700988 
L 105.850679 272.700988 
L 105.850679 270.218541 
L 106.560633 270.218541 
L 106.560633 268.090729 
L 107.244765 268.090729 
L 107.244765 264.189741 
L 109.159456 264.189741 
L 109.159456 261.707294 
L 111.97238 261.707294 
L 111.97238 260.998024 
L 113.478107 260.998024 
L 113.478107 257.806306 
L 114.418881 257.806306 
L 114.418881 256.7424 
L 116.988079 256.7424 
L 116.988079 256.033129 
L 119.24818 256.033129 
L 119.24818 255.678494 
L 119.599808 255.678494 
L 119.599808 255.323859 
L 120.616896 255.323859 
L 120.616896 254.969224 
L 124.748451 254.969224 
L 124.748451 253.905318 
L 126.517282 253.905318 
L 126.517282 251.068235 
L 128.133992 251.068235 
L 128.133992 250.7136 
L 129.622688 250.7136 
L 129.622688 250.358965 
L 130.618241 250.358965 
L 130.618241 249.649694 
L 134.14471 249.649694 
L 134.14471 248.940424 
L 135.538796 248.940424 
L 135.538796 248.585788 
L 136.126705 248.585788 
L 136.126705 248.231153 
L 137.250116 248.231153 
L 137.250116 247.521882 
L 139.556456 247.521882 
L 139.556456 247.167247 
L 140.14993 247.167247 
L 140.14993 246.457976 
L 140.725251 246.457976 
L 140.725251 245.039435 
L 140.838234 245.039435 
L 140.838234 244.6848 
L 141.825656 244.6848 
L 141.825656 243.975529 
L 142.661862 243.975529 
L 142.661862 242.556988 
L 143.364242 242.556988 
L 143.364242 242.202353 
L 150.083698 242.202353 
L 150.083698 241.847718 
L 151.857828 241.847718 
L 151.857828 239.365271 
L 154.322673 239.365271 
L 154.322673 236.173553 
L 156.648044 236.173553 
L 156.648044 235.109647 
L 157.127956 235.109647 
L 157.127956 232.6272 
L 157.503261 232.6272 
L 157.503261 231.563294 
L 158.0976 231.563294 
L 158.0976 231.208659 
L 158.58624 231.208659 
L 158.58624 229.080847 
L 159.857774 229.080847 
L 159.857774 228.016941 
L 161.163832 228.016941 
L 161.163832 227.662306 
L 162.349204 227.662306 
L 162.349204 226.953035 
L 162.634233 226.953035 
L 162.634233 226.5984 
L 164.612692 226.5984 
L 164.612692 225.534494 
L 167.634879 225.534494 
L 167.634879 224.825224 
L 170.37916 224.825224 
L 170.37916 224.115953 
L 173.816719 224.115953 
L 173.816719 223.052047 
L 176.855405 223.052047 
L 176.855405 222.342776 
L 177.151915 222.342776 
L 177.151915 221.988141 
L 180.249148 221.988141 
L 180.249148 221.633506 
L 182.702072 221.633506 
L 182.702072 219.505694 
L 185.511278 219.505694 
L 185.511278 218.087153 
L 185.719719 218.087153 
L 185.719719 217.377882 
L 188.391619 217.377882 
L 188.391619 215.959341 
L 189.694277 215.959341 
L 189.694277 215.604706 
L 192.152644 215.604706 
L 192.152644 214.895435 
L 192.459361 214.895435 
L 192.459361 212.412988 
L 194.122118 212.412988 
L 194.122118 212.058353 
L 197.438807 212.058353 
L 197.438807 211.703718 
L 197.796714 211.703718 
L 197.796714 211.349082 
L 201.609782 211.349082 
L 201.609782 210.994447 
L 202.666207 210.994447 
L 202.666207 210.285176 
L 202.8922 210.285176 
L 202.946202 207.448094 
L 204.646518 207.448094 
L 204.665456 206.029553 
L 205.970637 206.029553 
L 205.970637 203.901741 
L 206.093854 203.901741 
L 206.093854 203.547106 
L 207.253895 203.547106 
L 207.253895 202.837835 
L 210.710021 202.837835 
L 210.759374 202.128565 
L 211.128133 202.128565 
L 211.128133 200.355388 
L 212.459977 200.355388 
L 212.459977 199.291482 
L 212.738083 199.291482 
L 212.738083 198.582212 
L 214.476711 198.582212 
L 214.476711 198.227576 
L 215.440381 198.227576 
L 215.440381 197.872941 
L 215.939692 197.872941 
L 215.939692 197.163671 
L 216.617586 197.163671 
L 216.617586 196.809035 
L 217.314463 196.809035 
L 217.314463 194.681224 
L 219.129519 194.681224 
L 219.129519 193.971953 
L 219.423768 193.971953 
L 219.423768 193.617318 
L 221.218428 193.617318 
L 221.218428 192.198776 
L 222.871075 192.198776 
L 222.871075 191.489506 
L 223.131041 191.489506 
L 223.131041 191.134871 
L 223.610039 191.134871 
L 223.610039 189.007059 
L 223.853233 189.007059 
L 223.853233 187.588518 
L 224.50262 187.588518 
L 224.60783 186.169976 
L 226.268677 186.169976 
L 226.268677 184.751435 
L 226.519136 184.751435 
L 226.519136 184.3968 
L 227.014882 184.3968 
L 227.014882 184.042165 
L 227.520379 184.042165 
L 227.520379 183.687529 
L 228.570075 183.687529 
L 228.570075 182.623624 
L 228.994454 182.623624 
L 228.994454 181.559718 
L 229.211322 181.559718 
L 229.211322 181.205082 
L 229.41658 181.205082 
L 229.41658 180.141176 
L 229.561257 180.141176 
L 229.622636 178.368 
L 230.579353 178.368 
L 230.579353 176.594824 
L 230.845745 176.594824 
L 230.845745 175.176282 
L 231.468826 175.176282 
L 231.468826 174.467012 
L 232.022477 174.467012 
L 232.086917 169.147482 
L 232.958225 169.147482 
L 232.958225 168.792847 
L 233.461291 168.792847 
L 233.461291 168.438212 
L 234.193894 168.438212 
L 234.193894 167.374306 
L 234.698385 167.374306 
L 234.698385 165.955765 
L 234.992898 165.955765 
L 234.992898 165.601129 
L 236.408438 165.601129 
L 236.408438 165.246494 
L 236.709274 165.246494 
L 236.709274 164.891859 
L 236.973458 164.891859 
L 236.973458 163.473318 
L 237.129128 163.473318 
L 237.158762 162.409412 
L 237.355582 162.409412 
L 237.355582 162.054776 
L 238.313095 162.054776 
L 238.355453 159.217694 
L 238.513293 159.217694 
L 238.513293 158.153788 
L 239.068611 158.153788 
L 239.068611 157.799153 
L 240.298824 157.799153 
L 240.298824 157.444518 
L 240.601071 157.444518 
L 240.601071 157.089882 
L 240.961872 157.089882 
L 241.007997 155.316706 
L 241.523533 155.316706 
L 241.523533 153.898165 
L 242.399302 153.898165 
L 242.399302 153.543529 
L 243.538636 153.543529 
L 243.538636 152.124988 
L 243.912198 152.124988 
L 243.912198 151.061082 
L 244.494792 151.061082 
L 244.498892 147.869365 
L 245.516796 147.869365 
L 245.516796 147.514729 
L 245.738171 147.514729 
L 245.74073 145.741553 
L 246.551592 145.741553 
L 246.551592 145.386918 
L 247.023121 145.386918 
L 247.023121 144.677647 
L 247.356357 144.677647 
L 247.375914 143.968376 
L 248.207939 143.968376 
L 248.207939 141.485929 
L 248.513276 141.485929 
L 248.53277 140.776659 
L 250.685523 140.776659 
L 250.685523 140.422024 
L 250.936308 140.422024 
L 250.936308 140.067388 
L 251.272352 140.067388 
L 251.272352 139.712753 
L 251.609368 139.712753 
L 251.609368 139.003482 
L 251.917433 139.003482 
L 251.964666 138.294212 
L 252.109001 138.294212 
L 252.109001 137.584941 
L 252.483999 137.584941 
L 252.572588 136.875671 
L 252.604296 136.875671 
L 252.604296 136.521035 
L 252.817739 136.521035 
L 252.817739 136.1664 
L 252.949595 136.1664 
L 253.056558 135.102494 
L 254.732694 135.102494 
L 254.732694 134.747859 
L 255.191357 134.747859 
L 255.191357 134.393224 
L 256.187873 134.393224 
L 256.187873 134.038588 
L 256.800373 134.038588 
L 256.800373 133.683953 
L 257.801796 133.683953 
L 257.801796 132.974682 
L 258.223777 132.974682 
L 258.223777 132.265412 
L 258.35967 132.265412 
L 258.35967 131.910776 
L 259.027738 131.910776 
L 259.036574 130.1376 
L 263.263003 130.1376 
L 263.263003 128.364424 
L 264.065694 128.364424 
L 264.065694 128.009788 
L 268.22537 128.009788 
L 268.22537 127.655153 
L 274.533481 127.655153 
L 274.533481 127.300518 
L 275.180867 127.300518 
L 275.180867 126.591247 
L 275.379985 126.591247 
L 275.379985 126.236612 
L 275.522722 126.236612 
L 275.538214 124.1088 
L 275.720873 124.1088 
L 275.720873 123.754165 
L 275.878677 123.754165 
L 275.966025 119.853176 
L 276.049393 119.853176 
L 276.073303 119.143906 
L 276.188342 119.143906 
L 276.188849 115.952188 
L 276.325097 115.952188 
L 276.401461 114.533647 
L 276.68477 114.533647 
L 276.735407 111.341929 
L 276.883656 111.341929 
L 276.909539 106.731671 
L 277.151258 106.731671 
L 277.252881 104.958494 
L 277.32884 104.958494 
L 277.32884 103.894588 
L 277.802631 103.894588 
L 277.803329 102.476047 
L 278.02018 102.476047 
L 278.02064 100.348235 
L 278.257742 100.348235 
L 278.325306 99.284329 
L 278.488752 99.284329 
L 278.554151 97.156518 
L 279.142709 97.156518 
L 279.219839 96.092612 
L 279.33616 96.092612 
L 279.42503 94.674071 
L 279.563346 94.674071 
L 279.563346 94.319435 
L 279.986941 94.319435 
L 279.986941 93.9648 
L 280.107825 93.9648 
L 280.107825 93.610165 
L 280.838126 93.610165 
L 280.838126 93.255529 
L 280.963122 93.255529 
L 280.963122 92.546259 
L 281.206768 92.546259 
L 281.209487 91.482353 
L 282.613804 91.482353 
L 282.613804 90.773082 
L 287.749658 90.773082 
L 287.78099 89.354541 
L 287.883163 89.354541 
L 287.95673 87.581365 
L 288.141367 87.581365 
L 288.243032 85.808188 
L 288.30336 85.808188 
L 288.375304 84.389647 
L 288.415586 84.389647 
L 288.461241 83.325741 
L 288.582593 83.325741 
L 288.673118 81.197929 
L 288.815201 81.197929 
L 288.910934 80.488659 
L 288.982994 80.488659 
L 288.982994 80.134024 
L 289.114943 80.134024 
L 289.168389 77.296941 
L 289.287595 77.296941 
L 289.287848 76.233035 
L 289.418478 76.233035 
L 289.418478 74.814494 
L 289.546463 74.814494 
L 289.582823 73.041318 
L 289.838342 73.041318 
L 289.838342 72.332047 
L 290.072345 72.332047 
L 290.151005 70.913506 
L 290.887668 70.913506 
L 290.887668 70.558871 
L 291.104614 70.558871 
L 291.104614 70.204235 
L 291.948651 70.204235 
L 291.948651 69.8496 
L 295.099654 69.8496 
L 295.099654 69.494965 
L 295.531655 69.494965 
L 295.533499 68.785694 
L 295.790645 68.785694 
L 295.899055 67.367153 
L 295.995907 67.367153 
L 296.026461 66.657882 
L 296.203475 66.657882 
L 296.285482 65.593976 
L 296.375631 65.593976 
L 296.464142 64.175435 
L 296.74869 64.175435 
L 296.794588 63.466165 
L 297.402749 63.466165 
L 297.454667 62.402259 
L 297.557588 62.402259 
L 297.557588 62.047624 
L 300.68586 62.047624 
L 300.689928 60.983718 
L 300.831935 60.983718 
L 300.862853 59.565176 
L 301.011789 59.565176 
L 301.05986 57.437365 
L 301.265969 57.437365 
L 301.374243 54.954918 
L 301.417242 54.954918 
L 301.510712 53.891012 
L 301.665797 53.891012 
L 301.728693 52.827106 
L 302.086318 52.827106 
L 302.086318 52.472471 
L 302.232642 52.472471 
L 302.232642 52.117835 
L 302.352531 52.117835 
L 302.352531 51.7632 
L 302.9204 51.7632 
L 302.9204 51.408565 
L 304.870631 51.408565 
L 304.914054 50.344659 
L 305.009479 50.344659 
L 305.116501 49.280753 
L 305.138025 49.280753 
L 305.216092 48.216847 
L 305.324732 48.216847 
L 305.375433 46.443671 
L 305.485831 46.443671 
L 305.501422 45.025129 
L 305.643602 45.025129 
L 305.691075 44.315859 
L 308.208794 44.315859 
L 308.208794 43.961224 
L 308.327631 43.961224 
L 308.327631 43.606588 
L 308.52371 43.606588 
L 308.539415 42.897318 
L 308.719761 42.897318 
L 308.719761 42.542682 
L 309.287305 42.542682 
L 309.287305 42.188047 
L 311.214044 42.188047 
L 311.271341 41.478776 
L 311.349323 41.478776 
L 311.441259 40.414871 
L 311.4779 40.414871 
L 311.4779 40.060235 
L 311.722558 40.060235 
L 311.727733 39.350965 
L 313.649632 39.350965 
L 313.730469 38.641694 
L 313.918299 38.641694 
L 313.988476 37.577788 
L 314.137912 37.577788 
L 314.155283 36.868518 
L 314.363835 36.868518 
L 314.363835 36.513882 
L 315.910789 36.513882 
L 315.910789 36.159247 
L 316.049468 36.159247 
L 316.149048 34.740706 
L 316.407386 34.740706 
L 316.407386 34.386071 
L 316.801562 34.386071 
L 316.801562 34.031435 
L 317.989491 34.031435 
L 317.989491 33.322165 
L 318.13629 33.322165 
L 318.188532 32.612894 
L 318.374535 32.612894 
L 318.374535 32.258259 
L 319.748013 32.258259 
L 319.830298 31.194353 
L 321.356109 31.194353 
L 321.424982 30.130447 
L 322.837498 30.130447 
L 322.837498 29.775812 
L 324.249738 29.775812 
L 324.249738 29.421176 
L 326.791652 29.421176 
L 326.791652 29.066541 
L 329.862574 29.066541 
L 329.862574 28.711906 
L 330.884058 28.711906 
L 330.884058 28.357271 
L 331.82612 28.357271 
L 331.82612 28.002635 
L 337.133212 28.002635 
L 337.133212 27.648 
L 360.8064 27.648 
L 360.8064 27.648 
" style="fill: none; stroke: #ff00ff; stroke-width: 1.5; stroke-linecap: square"/>
   </g>
   <g id="line2d_41">
    <defs>
     <path id="mb5058d99cd" d="M 0 8.485281 
L 5.091169 0 
L 0 -8.485281 
L -5.091169 0 
z
" style="stroke: #ff00ff; stroke-width: 1.5; stroke-linejoin: miter"/>
    </defs>
    <g>
     <use xlink:href="#mb5058d99cd" x="158.58624" y="231.208659" style="fill-opacity: 0; stroke: #ff00ff; stroke-width: 1.5; stroke-linejoin: miter"/>
     <use xlink:href="#mb5058d99cd" x="236.973458" y="164.891859" style="fill-opacity: 0; stroke: #ff00ff; stroke-width: 1.5; stroke-linejoin: miter"/>
     <use xlink:href="#mb5058d99cd" x="289.114943" y="79.070118" style="fill-opacity: 0; stroke: #ff00ff; stroke-width: 1.5; stroke-linejoin: miter"/>
     <use xlink:href="#mb5058d99cd" x="337.133212" y="27.648" style="fill-opacity: 0; stroke: #ff00ff; stroke-width: 1.5; stroke-linejoin: miter"/>
     <use xlink:href="#mb5058d99cd" x="337.133212" y="27.648" style="fill-opacity: 0; stroke: #ff00ff; stroke-width: 1.5; stroke-linejoin: miter"/>
     <use xlink:href="#mb5058d99cd" x="360.8064" y="27.648" style="fill-opacity: 0; stroke: #ff00ff; stroke-width: 1.5; stroke-linejoin: miter"/>
    </g>
   </g>
   <g id="line2d_42">
    <path style="fill: none; stroke: #ff00ff; stroke-width: 1.5; stroke-linecap: square"/>
    <g/>
   </g>
   <g id="line2d_43">
    <path d="M 274.292272 127.655153 
" clip-path="url(#p5cc294ec95)" style="fill: none; stroke: #ff00ff; stroke-width: 1.5; stroke-linecap: square"/>
    <defs>
     <path id="m647b083145" d="M -12 12 
L 12 -12 
M -12 -12 
L 12 12 
" style="stroke: #ff00ff"/>
    </defs>
    <g clip-path="url(#p5cc294ec95)">
     <use xlink:href="#m647b083145" x="274.292272" y="127.655153" style="fill: #ff00ff; stroke: #ff00ff"/>
    </g>
   </g>
   <g id="line2d_44">
    <path d="M 360.8064 27.648 
L 380.514816 293.51808 
" style="fill: none; stroke: #ff00ff; stroke-width: 1.5; stroke-linecap: square"/>
    <g>
     <use xlink:href="#mb5058d99cd" x="360.8064" y="27.648" style="fill-opacity: 0; stroke: #ff00ff; stroke-width: 1.5; stroke-linejoin: miter"/>
     <use xlink:href="#mb5058d99cd" x="380.514816" y="293.51808" style="fill-opacity: 0; stroke: #ff00ff; stroke-width: 1.5; stroke-linejoin: miter"/>
    </g>
   </g>
   <g id="line2d_45">
    <path d="M 360.8064 27.648 
L 380.514816 163.296 
" style="fill: none; stroke: #000080; stroke-width: 1.5; stroke-linecap: square"/>
    <g>
     <use xlink:href="#md3cf7fe576" x="360.8064" y="27.648" style="fill-opacity: 0; stroke: #000080; stroke-width: 1.5"/>
     <use xlink:href="#md3cf7fe576" x="380.514816" y="163.296" style="fill-opacity: 0; stroke: #000080; stroke-width: 1.5"/>
    </g>
   </g>
   <g id="line2d_46">
    <path d="M 360.8064 298.944 
L 360.8064 27.648 
" style="fill: none; stroke: #000000; stroke-width: 1.5; stroke-linecap: square"/>
   </g>
   <g id="patch_3">
    <path d="M 57.6 298.944 
L 360.8064 298.944 
" style="fill: none; stroke: #000000; stroke-width: 0.8; stroke-linejoin: miter; stroke-linecap: square"/>
   </g>
   <g id="patch_4">
    <path d="M 57.6 27.648 
L 360.8064 27.648 
" style="fill: none; stroke: #000000; stroke-width: 0.8; stroke-linejoin: miter; stroke-linecap: square"/>
   </g>
   <g id="text_13">
    <!-- GA -->
    <g transform="translate(386.578944 297.381205)scale(0.14 -0.14)">
     <defs>
      <path id="DejaVuSans-47" d="M 3809 666 
L 3809 1919 
L 2778 1919 
L 2778 2438 
L 4434 2438 
L 4434 434 
Q 4069 175 3628 42 
Q 3188 -91 2688 -91 
Q 1594 -91 976 548 
Q 359 1188 359 2328 
Q 359 3472 976 4111 
Q 1594 4750 2688 4750 
Q 3144 4750 3555 4637 
Q 3966 4525 4313 4306 
L 4313 3634 
Q 3963 3931 3569 4081 
Q 3175 4231 2741 4231 
Q 1884 4231 1454 3753 
Q 1025 3275 1025 2328 
Q 1025 1384 1454 906 
Q 1884 428 2741 428 
Q 3075 428 3337 486 
Q 3600 544 3809 666 
z
" transform="scale(0.015625)"/>
      <path id="DejaVuSans-41" d="M 2188 4044 
L 1331 1722 
L 3047 1722 
L 2188 4044 
z
M 1831 4666 
L 2547 4666 
L 4325 0 
L 3669 0 
L 3244 1197 
L 1141 1197 
L 716 0 
L 50 0 
L 1831 4666 
z
" transform="scale(0.015625)"/>
     </defs>
     <use xlink:href="#DejaVuSans-47"/>
     <use xlink:href="#DejaVuSans-41" x="77.490234"/>
    </g>
   </g>
   <g id="text_14">
    <!-- LCGA -->
    <g transform="translate(386.578944 167.159125)scale(0.14 -0.14)">
     <defs>
      <path id="DejaVuSans-4c" d="M 628 4666 
L 1259 4666 
L 1259 531 
L 3531 531 
L 3531 0 
L 628 0 
L 628 4666 
z
" transform="scale(0.015625)"/>
      <path id="DejaVuSans-43" d="M 4122 4306 
L 4122 3641 
Q 3803 3938 3442 4084 
Q 3081 4231 2675 4231 
Q 1875 4231 1450 3742 
Q 1025 3253 1025 2328 
Q 1025 1406 1450 917 
Q 1875 428 2675 428 
Q 3081 428 3442 575 
Q 3803 722 4122 1019 
L 4122 359 
Q 3791 134 3420 21 
Q 3050 -91 2638 -91 
Q 1578 -91 968 557 
Q 359 1206 359 2328 
Q 359 3453 968 4101 
Q 1578 4750 2638 4750 
Q 3056 4750 3426 4639 
Q 3797 4528 4122 4306 
z
" transform="scale(0.015625)"/>
     </defs>
     <use xlink:href="#DejaVuSans-4c"/>
     <use xlink:href="#DejaVuSans-43" x="55.712891"/>
     <use xlink:href="#DejaVuSans-47" x="125.537109"/>
     <use xlink:href="#DejaVuSans-41" x="203.027344"/>
    </g>
   </g>
   <g id="text_15">
    <!-- best 2009 -->
    <g transform="translate(386.578944 36.937045)scale(0.14 -0.14)">
     <defs>
      <path id="DejaVuSans-62" d="M 3116 1747 
Q 3116 2381 2855 2742 
Q 2594 3103 2138 3103 
Q 1681 3103 1420 2742 
Q 1159 2381 1159 1747 
Q 1159 1113 1420 752 
Q 1681 391 2138 391 
Q 2594 391 2855 752 
Q 3116 1113 3116 1747 
z
M 1159 2969 
Q 1341 3281 1617 3432 
Q 1894 3584 2278 3584 
Q 2916 3584 3314 3078 
Q 3713 2572 3713 1747 
Q 3713 922 3314 415 
Q 2916 -91 2278 -91 
Q 1894 -91 1617 61 
Q 1341 213 1159 525 
L 1159 0 
L 581 0 
L 581 4863 
L 1159 4863 
L 1159 2969 
z
" transform="scale(0.015625)"/>
      <path id="DejaVuSans-39" d="M 703 97 
L 703 672 
Q 941 559 1184 500 
Q 1428 441 1663 441 
Q 2288 441 2617 861 
Q 2947 1281 2994 2138 
Q 2813 1869 2534 1725 
Q 2256 1581 1919 1581 
Q 1219 1581 811 2004 
Q 403 2428 403 3163 
Q 403 3881 828 4315 
Q 1253 4750 1959 4750 
Q 2769 4750 3195 4129 
Q 3622 3509 3622 2328 
Q 3622 1225 3098 567 
Q 2575 -91 1691 -91 
Q 1453 -91 1209 -44 
Q 966 3 703 97 
z
M 1959 2075 
Q 2384 2075 2632 2365 
Q 2881 2656 2881 3163 
Q 2881 3666 2632 3958 
Q 2384 4250 1959 4250 
Q 1534 4250 1286 3958 
Q 1038 3666 1038 3163 
Q 1038 2656 1286 2365 
Q 1534 2075 1959 2075 
z
" transform="scale(0.015625)"/>
     </defs>
     <use xlink:href="#DejaVuSans-62"/>
     <use xlink:href="#DejaVuSans-65" x="63.476562"/>
     <use xlink:href="#DejaVuSans-73" x="125"/>
     <use xlink:href="#DejaVuSans-74" x="177.099609"/>
     <use xlink:href="#DejaVuSans-20" x="216.308594"/>
     <use xlink:href="#DejaVuSans-32" x="248.095703"/>
     <use xlink:href="#DejaVuSans-30" x="311.71875"/>
     <use xlink:href="#DejaVuSans-30" x="375.341797"/>
     <use xlink:href="#DejaVuSans-39" x="438.964844"/>
    </g>
   </g>
   <g id="text_16">
    <!-- bbob f6, 2-D -->
    <g transform="translate(60.632064 38.111366)scale(0.102 -0.102)">
     <defs>
      <path id="DejaVuSans-44" d="M 1259 4147 
L 1259 519 
L 2022 519 
Q 2988 519 3436 956 
Q 3884 1394 3884 2338 
Q 3884 3275 3436 3711 
Q 2988 4147 2022 4147 
L 1259 4147 
z
M 628 4666 
L 1925 4666 
Q 3281 4666 3915 4102 
Q 4550 3538 4550 2338 
Q 4550 1131 3912 565 
Q 3275 0 1925 0 
L 628 0 
L 628 4666 
z
" transform="scale(0.015625)"/>
     </defs>
     <use xlink:href="#DejaVuSans-62"/>
     <use xlink:href="#DejaVuSans-62" x="63.476562"/>
     <use xlink:href="#DejaVuSans-6f" x="126.953125"/>
     <use xlink:href="#DejaVuSans-62" x="188.134766"/>
     <use xlink:href="#DejaVuSans-20" x="251.611328"/>
     <use xlink:href="#DejaVuSans-66" x="283.398438"/>
     <use xlink:href="#DejaVuSans-36" x="318.603516"/>
     <use xlink:href="#DejaVuSans-2c" x="382.226562"/>
     <use xlink:href="#DejaVuSans-20" x="414.013672"/>
     <use xlink:href="#DejaVuSans-32" x="445.800781"/>
     <use xlink:href="#DejaVuSans-2d" x="509.423828"/>
     <use xlink:href="#DejaVuSans-44" x="545.507812"/>
    </g>
    <!-- 51 targets: 100..1e-08 -->
    <g transform="translate(60.632064 49.533135)scale(0.102 -0.102)">
     <defs>
      <path id="DejaVuSans-35" d="M 691 4666 
L 3169 4666 
L 3169 4134 
L 1269 4134 
L 1269 2991 
Q 1406 3038 1543 3061 
Q 1681 3084 1819 3084 
Q 2600 3084 3056 2656 
Q 3513 2228 3513 1497 
Q 3513 744 3044 326 
Q 2575 -91 1722 -91 
Q 1428 -91 1123 -41 
Q 819 9 494 109 
L 494 744 
Q 775 591 1075 516 
Q 1375 441 1709 441 
Q 2250 441 2565 725 
Q 2881 1009 2881 1497 
Q 2881 1984 2565 2268 
Q 2250 2553 1709 2553 
Q 1456 2553 1204 2497 
Q 953 2441 691 2322 
L 691 4666 
z
" transform="scale(0.015625)"/>
      <path id="DejaVuSans-3a" d="M 750 794 
L 1409 794 
L 1409 0 
L 750 0 
L 750 794 
z
M 750 3309 
L 1409 3309 
L 1409 2516 
L 750 2516 
L 750 3309 
z
" transform="scale(0.015625)"/>
     </defs>
     <use xlink:href="#DejaVuSans-35"/>
     <use xlink:href="#DejaVuSans-31" x="63.623047"/>
     <use xlink:href="#DejaVuSans-20" x="127.246094"/>
     <use xlink:href="#DejaVuSans-74" x="159.033203"/>
     <use xlink:href="#DejaVuSans-61" x="198.242188"/>
     <use xlink:href="#DejaVuSans-72" x="259.521484"/>
     <use xlink:href="#DejaVuSans-67" x="298.884766"/>
     <use xlink:href="#DejaVuSans-65" x="362.361328"/>
     <use xlink:href="#DejaVuSans-74" x="423.884766"/>
     <use xlink:href="#DejaVuSans-73" x="463.09375"/>
     <use xlink:href="#DejaVuSans-3a" x="515.193359"/>
     <use xlink:href="#DejaVuSans-20" x="548.884766"/>
     <use xlink:href="#DejaVuSans-31" x="580.671875"/>
     <use xlink:href="#DejaVuSans-30" x="644.294922"/>
     <use xlink:href="#DejaVuSans-30" x="707.917969"/>
     <use xlink:href="#DejaVuSans-2e" x="771.541016"/>
     <use xlink:href="#DejaVuSans-2e" x="803.328125"/>
     <use xlink:href="#DejaVuSans-31" x="835.115234"/>
     <use xlink:href="#DejaVuSans-65" x="898.738281"/>
     <use xlink:href="#DejaVuSans-2d" x="960.261719"/>
     <use xlink:href="#DejaVuSans-30" x="996.345703"/>
     <use xlink:href="#DejaVuSans-38" x="1059.96875"/>
    </g>
    <!-- 15 instances -->
    <g transform="translate(60.632064 60.954904)scale(0.102 -0.102)">
     <use xlink:href="#DejaVuSans-31"/>
     <use xlink:href="#DejaVuSans-35" x="63.623047"/>
     <use xlink:href="#DejaVuSans-20" x="127.246094"/>
     <use xlink:href="#DejaVuSans-69" x="159.033203"/>
     <use xlink:href="#DejaVuSans-6e" x="186.816406"/>
     <use xlink:href="#DejaVuSans-73" x="250.195312"/>
     <use xlink:href="#DejaVuSans-74" x="302.294922"/>
     <use xlink:href="#DejaVuSans-61" x="341.503906"/>
     <use xlink:href="#DejaVuSans-6e" x="402.783203"/>
     <use xlink:href="#DejaVuSans-63" x="466.162109"/>
     <use xlink:href="#DejaVuSans-65" x="521.142578"/>
     <use xlink:href="#DejaVuSans-73" x="582.666016"/>
    </g>
   </g>
   <g id="text_17">
    <!-- v2.6 -->
    <g style="fill: #808080" transform="translate(198.292262 294.151352)scale(0.1 -0.1)">
     <use xlink:href="#DejaVuSans-76"/>
     <use xlink:href="#DejaVuSans-32" x="59.179688"/>
     <use xlink:href="#DejaVuSans-2e" x="122.802734"/>
     <use xlink:href="#DejaVuSans-36" x="154.589844"/>
    </g>
   </g>
   <g id="text_18">
    <!-- 6 Attractive sector -->
    <g transform="translate(116.45945 21.648)scale(0.2 -0.2)">
     <use xlink:href="#DejaVuSans-36"/>
     <use xlink:href="#DejaVuSans-20" x="63.623047"/>
     <use xlink:href="#DejaVuSans-41" x="95.410156"/>
     <use xlink:href="#DejaVuSans-74" x="162.068359"/>
     <use xlink:href="#DejaVuSans-74" x="201.277344"/>
     <use xlink:href="#DejaVuSans-72" x="240.486328"/>
     <use xlink:href="#DejaVuSans-61" x="281.599609"/>
     <use xlink:href="#DejaVuSans-63" x="342.878906"/>
     <use xlink:href="#DejaVuSans-74" x="397.859375"/>
     <use xlink:href="#DejaVuSans-69" x="437.068359"/>
     <use xlink:href="#DejaVuSans-76" x="464.851562"/>
     <use xlink:href="#DejaVuSans-65" x="524.03125"/>
     <use xlink:href="#DejaVuSans-20" x="585.554688"/>
     <use xlink:href="#DejaVuSans-73" x="617.341797"/>
     <use xlink:href="#DejaVuSans-65" x="669.441406"/>
     <use xlink:href="#DejaVuSans-63" x="730.964844"/>
     <use xlink:href="#DejaVuSans-74" x="785.945312"/>
     <use xlink:href="#DejaVuSans-6f" x="825.154297"/>
     <use xlink:href="#DejaVuSans-72" x="886.335938"/>
    </g>
   </g>
  </g>
 </g>
 <defs>
  <clipPath id="p5cc294ec95">
   <rect x="57.6" y="27.648" width="303.2064" height="271.296"/>
  </clipPath>
 </defs>
</svg>
