<?xml version="1.0" encoding="utf-8" standalone="no"?>
<!DOCTYPE svg PUBLIC "-//W3C//DTD SVG 1.1//EN"
  "http://www.w3.org/Graphics/SVG/1.1/DTD/svg11.dtd">
<svg xmlns:xlink="http://www.w3.org/1999/xlink" width="460.8pt" height="345.6pt" viewBox="0 0 460.8 345.6" xmlns="http://www.w3.org/2000/svg" version="1.1">
 <metadata>
  <rdf:RDF xmlns:dc="http://purl.org/dc/elements/1.1/" xmlns:cc="http://creativecommons.org/ns#" xmlns:rdf="http://www.w3.org/1999/02/22-rdf-syntax-ns#">
   <cc:Work>
    <dc:type rdf:resource="http://purl.org/dc/dcmitype/StillImage"/>
    <dc:date>2024-05-29T07:59:26.614825</dc:date>
    <dc:format>image/svg+xml</dc:format>
    <dc:creator>
     <cc:Agent>
      <dc:title>Matplotlib v3.5.1, https://matplotlib.org/</dc:title>
     </cc:Agent>
    </dc:creator>
   </cc:Work>
  </rdf:RDF>
 </metadata>
 <defs>
  <style type="text/css">*{stroke-linejoin: round; stroke-linecap: butt}</style>
 </defs>
 <g id="figure_1">
  <g id="patch_1">
   <path d="M 0 345.6 
L 460.8 345.6 
L 460.8 0 
L 0 0 
z
" style="fill: #ffffff"/>
  </g>
  <g id="axes_1">
   <g id="patch_2">
    <path d="M 57.6 298.944 
L 360.8064 298.944 
L 360.8064 27.648 
L 57.6 27.648 
z
" style="fill: #ffffff"/>
   </g>
   <g id="line2d_1">
    <path d="M 27.323974 298.944 
L 27.323974 293.624471 
L 53.402323 293.624471 
L 53.402323 288.304941 
L 70.639174 288.304941 
L 70.639174 27.648 
L 360.8064 27.648 
" style="fill: none; stroke: #f5deb3; stroke-width: 4; stroke-linecap: square"/>
   </g>
   <g id="line2d_2">
    <defs>
     <path id="mf253d937e8" d="M 0 7.778175 
L 7.778175 0 
L 0 -7.778175 
L -7.778175 0 
z
" style="stroke: #f5deb3; stroke-width: 1.5; stroke-linejoin: miter"/>
    </defs>
    <g>
     <use xlink:href="#mf253d937e8" x="70.639174" y="288.304941" style="fill: #f5deb3; stroke: #f5deb3; stroke-width: 1.5; stroke-linejoin: miter"/>
     <use xlink:href="#mf253d937e8" x="70.639174" y="288.304941" style="fill: #f5deb3; stroke: #f5deb3; stroke-width: 1.5; stroke-linejoin: miter"/>
     <use xlink:href="#mf253d937e8" x="70.639174" y="27.648" style="fill: #f5deb3; stroke: #f5deb3; stroke-width: 1.5; stroke-linejoin: miter"/>
     <use xlink:href="#mf253d937e8" x="70.639174" y="27.648" style="fill: #f5deb3; stroke: #f5deb3; stroke-width: 1.5; stroke-linejoin: miter"/>
     <use xlink:href="#mf253d937e8" x="360.8064" y="27.648" style="fill: #f5deb3; stroke: #f5deb3; stroke-width: 1.5; stroke-linejoin: miter"/>
    </g>
   </g>
   <g id="line2d_3">
    <path style="fill: none; stroke: #f5deb3; stroke-width: 4; stroke-linecap: square"/>
    <g/>
   </g>
   <g id="line2d_4">
    <path d="M 360.8064 27.648 
L 380.514816 33.07392 
" style="fill: none; stroke: #f5deb3; stroke-width: 4; stroke-linecap: square"/>
    <g>
     <use xlink:href="#mf253d937e8" x="360.8064" y="27.648" style="fill: #f5deb3; stroke: #f5deb3; stroke-width: 1.5; stroke-linejoin: miter"/>
     <use xlink:href="#mf253d937e8" x="380.514816" y="33.07392" style="fill: #f5deb3; stroke: #f5deb3; stroke-width: 1.5; stroke-linejoin: miter"/>
    </g>
   </g>
   <g id="matplotlib.axis_1">
    <g id="xtick_1">
     <g id="line2d_5">
      <path d="M 57.6 298.944 
L 57.6 27.648 
" clip-path="url(#pa06302f8d4)" style="fill: none; stroke: #b0b0b0; stroke-width: 0.8; stroke-linecap: square"/>
     </g>
     <g id="line2d_6">
      <defs>
       <path id="m140b1e6958" d="M 0 0 
L 0 3.5 
" style="stroke: #000000; stroke-width: 0.8"/>
      </defs>
      <g>
       <use xlink:href="#m140b1e6958" x="57.6" y="298.944" style="stroke: #000000; stroke-width: 0.8"/>
      </g>
     </g>
     <g id="text_1">
      <!-- 0 -->
      <g transform="translate(52.191875 318.861344)scale(0.17 -0.17)">
       <defs>
        <path id="DejaVuSans-30" d="M 2034 4250 
Q 1547 4250 1301 3770 
Q 1056 3291 1056 2328 
Q 1056 1369 1301 889 
Q 1547 409 2034 409 
Q 2525 409 2770 889 
Q 3016 1369 3016 2328 
Q 3016 3291 2770 3770 
Q 2525 4250 2034 4250 
z
M 2034 4750 
Q 2819 4750 3233 4129 
Q 3647 3509 3647 2328 
Q 3647 1150 3233 529 
Q 2819 -91 2034 -91 
Q 1250 -91 836 529 
Q 422 1150 422 2328 
Q 422 3509 836 4129 
Q 1250 4750 2034 4750 
z
" transform="scale(0.015625)"/>
       </defs>
       <use xlink:href="#DejaVuSans-30"/>
      </g>
     </g>
    </g>
    <g id="xtick_2">
     <g id="line2d_7">
      <path d="M 144.2304 298.944 
L 144.2304 27.648 
" clip-path="url(#pa06302f8d4)" style="fill: none; stroke: #b0b0b0; stroke-width: 0.8; stroke-linecap: square"/>
     </g>
     <g id="line2d_8">
      <g>
       <use xlink:href="#m140b1e6958" x="144.2304" y="298.944" style="stroke: #000000; stroke-width: 0.8"/>
      </g>
     </g>
     <g id="text_2">
      <!-- 2 -->
      <g transform="translate(138.822275 318.861344)scale(0.17 -0.17)">
       <defs>
        <path id="DejaVuSans-32" d="M 1228 531 
L 3431 531 
L 3431 0 
L 469 0 
L 469 531 
Q 828 903 1448 1529 
Q 2069 2156 2228 2338 
Q 2531 2678 2651 2914 
Q 2772 3150 2772 3378 
Q 2772 3750 2511 3984 
Q 2250 4219 1831 4219 
Q 1534 4219 1204 4116 
Q 875 4013 500 3803 
L 500 4441 
Q 881 4594 1212 4672 
Q 1544 4750 1819 4750 
Q 2544 4750 2975 4387 
Q 3406 4025 3406 3419 
Q 3406 3131 3298 2873 
Q 3191 2616 2906 2266 
Q 2828 2175 2409 1742 
Q 1991 1309 1228 531 
z
" transform="scale(0.015625)"/>
       </defs>
       <use xlink:href="#DejaVuSans-32"/>
      </g>
     </g>
    </g>
    <g id="xtick_3">
     <g id="line2d_9">
      <path d="M 230.8608 298.944 
L 230.8608 27.648 
" clip-path="url(#pa06302f8d4)" style="fill: none; stroke: #b0b0b0; stroke-width: 0.8; stroke-linecap: square"/>
     </g>
     <g id="line2d_10">
      <g>
       <use xlink:href="#m140b1e6958" x="230.8608" y="298.944" style="stroke: #000000; stroke-width: 0.8"/>
      </g>
     </g>
     <g id="text_3">
      <!-- 4 -->
      <g transform="translate(225.452675 318.861344)scale(0.17 -0.17)">
       <defs>
        <path id="DejaVuSans-34" d="M 2419 4116 
L 825 1625 
L 2419 1625 
L 2419 4116 
z
M 2253 4666 
L 3047 4666 
L 3047 1625 
L 3713 1625 
L 3713 1100 
L 3047 1100 
L 3047 0 
L 2419 0 
L 2419 1100 
L 313 1100 
L 313 1709 
L 2253 4666 
z
" transform="scale(0.015625)"/>
       </defs>
       <use xlink:href="#DejaVuSans-34"/>
      </g>
     </g>
    </g>
    <g id="xtick_4">
     <g id="line2d_11">
      <path d="M 317.4912 298.944 
L 317.4912 27.648 
" clip-path="url(#pa06302f8d4)" style="fill: none; stroke: #b0b0b0; stroke-width: 0.8; stroke-linecap: square"/>
     </g>
     <g id="line2d_12">
      <g>
       <use xlink:href="#m140b1e6958" x="317.4912" y="298.944" style="stroke: #000000; stroke-width: 0.8"/>
      </g>
     </g>
     <g id="text_4">
      <!-- 6 -->
      <g transform="translate(312.083075 318.861344)scale(0.17 -0.17)">
       <defs>
        <path id="DejaVuSans-36" d="M 2113 2584 
Q 1688 2584 1439 2293 
Q 1191 2003 1191 1497 
Q 1191 994 1439 701 
Q 1688 409 2113 409 
Q 2538 409 2786 701 
Q 3034 994 3034 1497 
Q 3034 2003 2786 2293 
Q 2538 2584 2113 2584 
z
M 3366 4563 
L 3366 3988 
Q 3128 4100 2886 4159 
Q 2644 4219 2406 4219 
Q 1781 4219 1451 3797 
Q 1122 3375 1075 2522 
Q 1259 2794 1537 2939 
Q 1816 3084 2150 3084 
Q 2853 3084 3261 2657 
Q 3669 2231 3669 1497 
Q 3669 778 3244 343 
Q 2819 -91 2113 -91 
Q 1303 -91 875 529 
Q 447 1150 447 2328 
Q 447 3434 972 4092 
Q 1497 4750 2381 4750 
Q 2619 4750 2861 4703 
Q 3103 4656 3366 4563 
z
" transform="scale(0.015625)"/>
       </defs>
       <use xlink:href="#DejaVuSans-36"/>
      </g>
     </g>
    </g>
    <g id="xtick_5">
     <g id="line2d_13">
      <path d="M 100.9152 298.944 
L 100.9152 27.648 
" clip-path="url(#pa06302f8d4)" style="fill: none; stroke: #b0b0b0; stroke-width: 0.8; stroke-linecap: square"/>
     </g>
     <g id="line2d_14">
      <defs>
       <path id="mf027666d2c" d="M 0 0 
L 0 2 
" style="stroke: #000000; stroke-width: 0.6"/>
      </defs>
      <g>
       <use xlink:href="#mf027666d2c" x="100.9152" y="298.944" style="stroke: #000000; stroke-width: 0.6"/>
      </g>
     </g>
    </g>
    <g id="xtick_6">
     <g id="line2d_15">
      <path d="M 187.5456 298.944 
L 187.5456 27.648 
" clip-path="url(#pa06302f8d4)" style="fill: none; stroke: #b0b0b0; stroke-width: 0.8; stroke-linecap: square"/>
     </g>
     <g id="line2d_16">
      <g>
       <use xlink:href="#mf027666d2c" x="187.5456" y="298.944" style="stroke: #000000; stroke-width: 0.6"/>
      </g>
     </g>
    </g>
    <g id="xtick_7">
     <g id="line2d_17">
      <path d="M 274.176 298.944 
L 274.176 27.648 
" clip-path="url(#pa06302f8d4)" style="fill: none; stroke: #b0b0b0; stroke-width: 0.8; stroke-linecap: square"/>
     </g>
     <g id="line2d_18">
      <g>
       <use xlink:href="#mf027666d2c" x="274.176" y="298.944" style="stroke: #000000; stroke-width: 0.6"/>
      </g>
     </g>
    </g>
    <g id="xtick_8">
     <g id="line2d_19">
      <path d="M 360.8064 298.944 
L 360.8064 27.648 
" clip-path="url(#pa06302f8d4)" style="fill: none; stroke: #b0b0b0; stroke-width: 0.8; stroke-linecap: square"/>
     </g>
     <g id="line2d_20">
      <g>
       <use xlink:href="#mf027666d2c" x="360.8064" y="298.944" style="stroke: #000000; stroke-width: 0.6"/>
      </g>
     </g>
    </g>
    <g id="text_5">
     <!-- log10(# f-evals / dimension) -->
     <g transform="translate(88.823278 339.314156)scale(0.17 -0.17)">
      <defs>
       <path id="DejaVuSans-6c" d="M 603 4863 
L 1178 4863 
L 1178 0 
L 603 0 
L 603 4863 
z
" transform="scale(0.015625)"/>
       <path id="DejaVuSans-6f" d="M 1959 3097 
Q 1497 3097 1228 2736 
Q 959 2375 959 1747 
Q 959 1119 1226 758 
Q 1494 397 1959 397 
Q 2419 397 2687 759 
Q 2956 1122 2956 1747 
Q 2956 2369 2687 2733 
Q 2419 3097 1959 3097 
z
M 1959 3584 
Q 2709 3584 3137 3096 
Q 3566 2609 3566 1747 
Q 3566 888 3137 398 
Q 2709 -91 1959 -91 
Q 1206 -91 779 398 
Q 353 888 353 1747 
Q 353 2609 779 3096 
Q 1206 3584 1959 3584 
z
" transform="scale(0.015625)"/>
       <path id="DejaVuSans-67" d="M 2906 1791 
Q 2906 2416 2648 2759 
Q 2391 3103 1925 3103 
Q 1463 3103 1205 2759 
Q 947 2416 947 1791 
Q 947 1169 1205 825 
Q 1463 481 1925 481 
Q 2391 481 2648 825 
Q 2906 1169 2906 1791 
z
M 3481 434 
Q 3481 -459 3084 -895 
Q 2688 -1331 1869 -1331 
Q 1566 -1331 1297 -1286 
Q 1028 -1241 775 -1147 
L 775 -588 
Q 1028 -725 1275 -790 
Q 1522 -856 1778 -856 
Q 2344 -856 2625 -561 
Q 2906 -266 2906 331 
L 2906 616 
Q 2728 306 2450 153 
Q 2172 0 1784 0 
Q 1141 0 747 490 
Q 353 981 353 1791 
Q 353 2603 747 3093 
Q 1141 3584 1784 3584 
Q 2172 3584 2450 3431 
Q 2728 3278 2906 2969 
L 2906 3500 
L 3481 3500 
L 3481 434 
z
" transform="scale(0.015625)"/>
       <path id="DejaVuSans-31" d="M 794 531 
L 1825 531 
L 1825 4091 
L 703 3866 
L 703 4441 
L 1819 4666 
L 2450 4666 
L 2450 531 
L 3481 531 
L 3481 0 
L 794 0 
L 794 531 
z
" transform="scale(0.015625)"/>
       <path id="DejaVuSans-28" d="M 1984 4856 
Q 1566 4138 1362 3434 
Q 1159 2731 1159 2009 
Q 1159 1288 1364 580 
Q 1569 -128 1984 -844 
L 1484 -844 
Q 1016 -109 783 600 
Q 550 1309 550 2009 
Q 550 2706 781 3412 
Q 1013 4119 1484 4856 
L 1984 4856 
z
" transform="scale(0.015625)"/>
       <path id="DejaVuSans-23" d="M 3272 2816 
L 2363 2816 
L 2100 1772 
L 3016 1772 
L 3272 2816 
z
M 2803 4594 
L 2478 3297 
L 3391 3297 
L 3719 4594 
L 4219 4594 
L 3897 3297 
L 4872 3297 
L 4872 2816 
L 3775 2816 
L 3519 1772 
L 4513 1772 
L 4513 1294 
L 3397 1294 
L 3072 0 
L 2572 0 
L 2894 1294 
L 1978 1294 
L 1656 0 
L 1153 0 
L 1478 1294 
L 494 1294 
L 494 1772 
L 1594 1772 
L 1856 2816 
L 850 2816 
L 850 3297 
L 1978 3297 
L 2297 4594 
L 2803 4594 
z
" transform="scale(0.015625)"/>
       <path id="DejaVuSans-20" transform="scale(0.015625)"/>
       <path id="DejaVuSans-66" d="M 2375 4863 
L 2375 4384 
L 1825 4384 
Q 1516 4384 1395 4259 
Q 1275 4134 1275 3809 
L 1275 3500 
L 2222 3500 
L 2222 3053 
L 1275 3053 
L 1275 0 
L 697 0 
L 697 3053 
L 147 3053 
L 147 3500 
L 697 3500 
L 697 3744 
Q 697 4328 969 4595 
Q 1241 4863 1831 4863 
L 2375 4863 
z
" transform="scale(0.015625)"/>
       <path id="DejaVuSans-2d" d="M 313 2009 
L 1997 2009 
L 1997 1497 
L 313 1497 
L 313 2009 
z
" transform="scale(0.015625)"/>
       <path id="DejaVuSans-65" d="M 3597 1894 
L 3597 1613 
L 953 1613 
Q 991 1019 1311 708 
Q 1631 397 2203 397 
Q 2534 397 2845 478 
Q 3156 559 3463 722 
L 3463 178 
Q 3153 47 2828 -22 
Q 2503 -91 2169 -91 
Q 1331 -91 842 396 
Q 353 884 353 1716 
Q 353 2575 817 3079 
Q 1281 3584 2069 3584 
Q 2775 3584 3186 3129 
Q 3597 2675 3597 1894 
z
M 3022 2063 
Q 3016 2534 2758 2815 
Q 2500 3097 2075 3097 
Q 1594 3097 1305 2825 
Q 1016 2553 972 2059 
L 3022 2063 
z
" transform="scale(0.015625)"/>
       <path id="DejaVuSans-76" d="M 191 3500 
L 800 3500 
L 1894 563 
L 2988 3500 
L 3597 3500 
L 2284 0 
L 1503 0 
L 191 3500 
z
" transform="scale(0.015625)"/>
       <path id="DejaVuSans-61" d="M 2194 1759 
Q 1497 1759 1228 1600 
Q 959 1441 959 1056 
Q 959 750 1161 570 
Q 1363 391 1709 391 
Q 2188 391 2477 730 
Q 2766 1069 2766 1631 
L 2766 1759 
L 2194 1759 
z
M 3341 1997 
L 3341 0 
L 2766 0 
L 2766 531 
Q 2569 213 2275 61 
Q 1981 -91 1556 -91 
Q 1019 -91 701 211 
Q 384 513 384 1019 
Q 384 1609 779 1909 
Q 1175 2209 1959 2209 
L 2766 2209 
L 2766 2266 
Q 2766 2663 2505 2880 
Q 2244 3097 1772 3097 
Q 1472 3097 1187 3025 
Q 903 2953 641 2809 
L 641 3341 
Q 956 3463 1253 3523 
Q 1550 3584 1831 3584 
Q 2591 3584 2966 3190 
Q 3341 2797 3341 1997 
z
" transform="scale(0.015625)"/>
       <path id="DejaVuSans-73" d="M 2834 3397 
L 2834 2853 
Q 2591 2978 2328 3040 
Q 2066 3103 1784 3103 
Q 1356 3103 1142 2972 
Q 928 2841 928 2578 
Q 928 2378 1081 2264 
Q 1234 2150 1697 2047 
L 1894 2003 
Q 2506 1872 2764 1633 
Q 3022 1394 3022 966 
Q 3022 478 2636 193 
Q 2250 -91 1575 -91 
Q 1294 -91 989 -36 
Q 684 19 347 128 
L 347 722 
Q 666 556 975 473 
Q 1284 391 1588 391 
Q 1994 391 2212 530 
Q 2431 669 2431 922 
Q 2431 1156 2273 1281 
Q 2116 1406 1581 1522 
L 1381 1569 
Q 847 1681 609 1914 
Q 372 2147 372 2553 
Q 372 3047 722 3315 
Q 1072 3584 1716 3584 
Q 2034 3584 2315 3537 
Q 2597 3491 2834 3397 
z
" transform="scale(0.015625)"/>
       <path id="DejaVuSans-2f" d="M 1625 4666 
L 2156 4666 
L 531 -594 
L 0 -594 
L 1625 4666 
z
" transform="scale(0.015625)"/>
       <path id="DejaVuSans-64" d="M 2906 2969 
L 2906 4863 
L 3481 4863 
L 3481 0 
L 2906 0 
L 2906 525 
Q 2725 213 2448 61 
Q 2172 -91 1784 -91 
Q 1150 -91 751 415 
Q 353 922 353 1747 
Q 353 2572 751 3078 
Q 1150 3584 1784 3584 
Q 2172 3584 2448 3432 
Q 2725 3281 2906 2969 
z
M 947 1747 
Q 947 1113 1208 752 
Q 1469 391 1925 391 
Q 2381 391 2643 752 
Q 2906 1113 2906 1747 
Q 2906 2381 2643 2742 
Q 2381 3103 1925 3103 
Q 1469 3103 1208 2742 
Q 947 2381 947 1747 
z
" transform="scale(0.015625)"/>
       <path id="DejaVuSans-69" d="M 603 3500 
L 1178 3500 
L 1178 0 
L 603 0 
L 603 3500 
z
M 603 4863 
L 1178 4863 
L 1178 4134 
L 603 4134 
L 603 4863 
z
" transform="scale(0.015625)"/>
       <path id="DejaVuSans-6d" d="M 3328 2828 
Q 3544 3216 3844 3400 
Q 4144 3584 4550 3584 
Q 5097 3584 5394 3201 
Q 5691 2819 5691 2113 
L 5691 0 
L 5113 0 
L 5113 2094 
Q 5113 2597 4934 2840 
Q 4756 3084 4391 3084 
Q 3944 3084 3684 2787 
Q 3425 2491 3425 1978 
L 3425 0 
L 2847 0 
L 2847 2094 
Q 2847 2600 2669 2842 
Q 2491 3084 2119 3084 
Q 1678 3084 1418 2786 
Q 1159 2488 1159 1978 
L 1159 0 
L 581 0 
L 581 3500 
L 1159 3500 
L 1159 2956 
Q 1356 3278 1631 3431 
Q 1906 3584 2284 3584 
Q 2666 3584 2933 3390 
Q 3200 3197 3328 2828 
z
" transform="scale(0.015625)"/>
       <path id="DejaVuSans-6e" d="M 3513 2113 
L 3513 0 
L 2938 0 
L 2938 2094 
Q 2938 2591 2744 2837 
Q 2550 3084 2163 3084 
Q 1697 3084 1428 2787 
Q 1159 2491 1159 1978 
L 1159 0 
L 581 0 
L 581 3500 
L 1159 3500 
L 1159 2956 
Q 1366 3272 1645 3428 
Q 1925 3584 2291 3584 
Q 2894 3584 3203 3211 
Q 3513 2838 3513 2113 
z
" transform="scale(0.015625)"/>
       <path id="DejaVuSans-29" d="M 513 4856 
L 1013 4856 
Q 1481 4119 1714 3412 
Q 1947 2706 1947 2009 
Q 1947 1309 1714 600 
Q 1481 -109 1013 -844 
L 513 -844 
Q 928 -128 1133 580 
Q 1338 1288 1338 2009 
Q 1338 2731 1133 3434 
Q 928 4138 513 4856 
z
" transform="scale(0.015625)"/>
      </defs>
      <use xlink:href="#DejaVuSans-6c"/>
      <use xlink:href="#DejaVuSans-6f" x="27.783203"/>
      <use xlink:href="#DejaVuSans-67" x="88.964844"/>
      <use xlink:href="#DejaVuSans-31" x="152.441406"/>
      <use xlink:href="#DejaVuSans-30" x="216.064453"/>
      <use xlink:href="#DejaVuSans-28" x="279.6875"/>
      <use xlink:href="#DejaVuSans-23" x="318.701172"/>
      <use xlink:href="#DejaVuSans-20" x="402.490234"/>
      <use xlink:href="#DejaVuSans-66" x="434.277344"/>
      <use xlink:href="#DejaVuSans-2d" x="463.982422"/>
      <use xlink:href="#DejaVuSans-65" x="500.066406"/>
      <use xlink:href="#DejaVuSans-76" x="561.589844"/>
      <use xlink:href="#DejaVuSans-61" x="620.769531"/>
      <use xlink:href="#DejaVuSans-6c" x="682.048828"/>
      <use xlink:href="#DejaVuSans-73" x="709.832031"/>
      <use xlink:href="#DejaVuSans-20" x="761.931641"/>
      <use xlink:href="#DejaVuSans-2f" x="793.71875"/>
      <use xlink:href="#DejaVuSans-20" x="827.410156"/>
      <use xlink:href="#DejaVuSans-64" x="859.197266"/>
      <use xlink:href="#DejaVuSans-69" x="922.673828"/>
      <use xlink:href="#DejaVuSans-6d" x="950.457031"/>
      <use xlink:href="#DejaVuSans-65" x="1047.869141"/>
      <use xlink:href="#DejaVuSans-6e" x="1109.392578"/>
      <use xlink:href="#DejaVuSans-73" x="1172.771484"/>
      <use xlink:href="#DejaVuSans-69" x="1224.871094"/>
      <use xlink:href="#DejaVuSans-6f" x="1252.654297"/>
      <use xlink:href="#DejaVuSans-6e" x="1313.835938"/>
      <use xlink:href="#DejaVuSans-29" x="1377.214844"/>
     </g>
    </g>
   </g>
   <g id="matplotlib.axis_2">
    <g id="ytick_1">
     <g id="line2d_21">
      <path d="M 57.6 298.944 
L 360.8064 298.944 
" clip-path="url(#pa06302f8d4)" style="fill: none; stroke: #b0b0b0; stroke-width: 0.8; stroke-linecap: square"/>
     </g>
     <g id="line2d_22">
      <defs>
       <path id="mc1cac40c60" d="M 0 0 
L -3.5 0 
" style="stroke: #000000; stroke-width: 0.8"/>
      </defs>
      <g>
       <use xlink:href="#mc1cac40c60" x="57.6" y="298.944" style="stroke: #000000; stroke-width: 0.8"/>
      </g>
     </g>
     <g id="text_6">
      <!-- 0.0 -->
      <g transform="translate(25.155 305.02275)scale(0.16 -0.16)">
       <defs>
        <path id="DejaVuSans-2e" d="M 684 794 
L 1344 794 
L 1344 0 
L 684 0 
L 684 794 
z
" transform="scale(0.015625)"/>
       </defs>
       <use xlink:href="#DejaVuSans-30"/>
       <use xlink:href="#DejaVuSans-2e" x="63.623047"/>
       <use xlink:href="#DejaVuSans-30" x="95.410156"/>
      </g>
     </g>
    </g>
    <g id="ytick_2">
     <g id="line2d_23">
      <path d="M 57.6 244.6848 
L 360.8064 244.6848 
" clip-path="url(#pa06302f8d4)" style="fill: none; stroke: #b0b0b0; stroke-width: 0.8; stroke-linecap: square"/>
     </g>
     <g id="line2d_24">
      <g>
       <use xlink:href="#mc1cac40c60" x="57.6" y="244.6848" style="stroke: #000000; stroke-width: 0.8"/>
      </g>
     </g>
     <g id="text_7">
      <!-- 0.2 -->
      <g transform="translate(25.155 250.76355)scale(0.16 -0.16)">
       <use xlink:href="#DejaVuSans-30"/>
       <use xlink:href="#DejaVuSans-2e" x="63.623047"/>
       <use xlink:href="#DejaVuSans-32" x="95.410156"/>
      </g>
     </g>
    </g>
    <g id="ytick_3">
     <g id="line2d_25">
      <path d="M 57.6 190.4256 
L 360.8064 190.4256 
" clip-path="url(#pa06302f8d4)" style="fill: none; stroke: #b0b0b0; stroke-width: 0.8; stroke-linecap: square"/>
     </g>
     <g id="line2d_26">
      <g>
       <use xlink:href="#mc1cac40c60" x="57.6" y="190.4256" style="stroke: #000000; stroke-width: 0.8"/>
      </g>
     </g>
     <g id="text_8">
      <!-- 0.4 -->
      <g transform="translate(25.155 196.50435)scale(0.16 -0.16)">
       <use xlink:href="#DejaVuSans-30"/>
       <use xlink:href="#DejaVuSans-2e" x="63.623047"/>
       <use xlink:href="#DejaVuSans-34" x="95.410156"/>
      </g>
     </g>
    </g>
    <g id="ytick_4">
     <g id="line2d_27">
      <path d="M 57.6 136.1664 
L 360.8064 136.1664 
" clip-path="url(#pa06302f8d4)" style="fill: none; stroke: #b0b0b0; stroke-width: 0.8; stroke-linecap: square"/>
     </g>
     <g id="line2d_28">
      <g>
       <use xlink:href="#mc1cac40c60" x="57.6" y="136.1664" style="stroke: #000000; stroke-width: 0.8"/>
      </g>
     </g>
     <g id="text_9">
      <!-- 0.6 -->
      <g transform="translate(25.155 142.24515)scale(0.16 -0.16)">
       <use xlink:href="#DejaVuSans-30"/>
       <use xlink:href="#DejaVuSans-2e" x="63.623047"/>
       <use xlink:href="#DejaVuSans-36" x="95.410156"/>
      </g>
     </g>
    </g>
    <g id="ytick_5">
     <g id="line2d_29">
      <path d="M 57.6 81.9072 
L 360.8064 81.9072 
" clip-path="url(#pa06302f8d4)" style="fill: none; stroke: #b0b0b0; stroke-width: 0.8; stroke-linecap: square"/>
     </g>
     <g id="line2d_30">
      <g>
       <use xlink:href="#mc1cac40c60" x="57.6" y="81.9072" style="stroke: #000000; stroke-width: 0.8"/>
      </g>
     </g>
     <g id="text_10">
      <!-- 0.8 -->
      <g transform="translate(25.155 87.98595)scale(0.16 -0.16)">
       <defs>
        <path id="DejaVuSans-38" d="M 2034 2216 
Q 1584 2216 1326 1975 
Q 1069 1734 1069 1313 
Q 1069 891 1326 650 
Q 1584 409 2034 409 
Q 2484 409 2743 651 
Q 3003 894 3003 1313 
Q 3003 1734 2745 1975 
Q 2488 2216 2034 2216 
z
M 1403 2484 
Q 997 2584 770 2862 
Q 544 3141 544 3541 
Q 544 4100 942 4425 
Q 1341 4750 2034 4750 
Q 2731 4750 3128 4425 
Q 3525 4100 3525 3541 
Q 3525 3141 3298 2862 
Q 3072 2584 2669 2484 
Q 3125 2378 3379 2068 
Q 3634 1759 3634 1313 
Q 3634 634 3220 271 
Q 2806 -91 2034 -91 
Q 1263 -91 848 271 
Q 434 634 434 1313 
Q 434 1759 690 2068 
Q 947 2378 1403 2484 
z
M 1172 3481 
Q 1172 3119 1398 2916 
Q 1625 2713 2034 2713 
Q 2441 2713 2670 2916 
Q 2900 3119 2900 3481 
Q 2900 3844 2670 4047 
Q 2441 4250 2034 4250 
Q 1625 4250 1398 4047 
Q 1172 3844 1172 3481 
z
" transform="scale(0.015625)"/>
       </defs>
       <use xlink:href="#DejaVuSans-30"/>
       <use xlink:href="#DejaVuSans-2e" x="63.623047"/>
       <use xlink:href="#DejaVuSans-38" x="95.410156"/>
      </g>
     </g>
    </g>
    <g id="ytick_6">
     <g id="line2d_31">
      <path d="M 57.6 27.648 
L 360.8064 27.648 
" clip-path="url(#pa06302f8d4)" style="fill: none; stroke: #b0b0b0; stroke-width: 0.8; stroke-linecap: square"/>
     </g>
     <g id="line2d_32">
      <g>
       <use xlink:href="#mc1cac40c60" x="57.6" y="27.648" style="stroke: #000000; stroke-width: 0.8"/>
      </g>
     </g>
     <g id="text_11">
      <!-- 1.0 -->
      <g transform="translate(25.155 33.72675)scale(0.16 -0.16)">
       <use xlink:href="#DejaVuSans-31"/>
       <use xlink:href="#DejaVuSans-2e" x="63.623047"/>
       <use xlink:href="#DejaVuSans-30" x="95.410156"/>
      </g>
     </g>
    </g>
    <g id="text_12">
     <!-- Fraction of function,target pairs -->
     <g transform="translate(17.619531 297.681)rotate(-90)scale(0.17 -0.17)">
      <defs>
       <path id="DejaVuSans-46" d="M 628 4666 
L 3309 4666 
L 3309 4134 
L 1259 4134 
L 1259 2759 
L 3109 2759 
L 3109 2228 
L 1259 2228 
L 1259 0 
L 628 0 
L 628 4666 
z
" transform="scale(0.015625)"/>
       <path id="DejaVuSans-72" d="M 2631 2963 
Q 2534 3019 2420 3045 
Q 2306 3072 2169 3072 
Q 1681 3072 1420 2755 
Q 1159 2438 1159 1844 
L 1159 0 
L 581 0 
L 581 3500 
L 1159 3500 
L 1159 2956 
Q 1341 3275 1631 3429 
Q 1922 3584 2338 3584 
Q 2397 3584 2469 3576 
Q 2541 3569 2628 3553 
L 2631 2963 
z
" transform="scale(0.015625)"/>
       <path id="DejaVuSans-63" d="M 3122 3366 
L 3122 2828 
Q 2878 2963 2633 3030 
Q 2388 3097 2138 3097 
Q 1578 3097 1268 2742 
Q 959 2388 959 1747 
Q 959 1106 1268 751 
Q 1578 397 2138 397 
Q 2388 397 2633 464 
Q 2878 531 3122 666 
L 3122 134 
Q 2881 22 2623 -34 
Q 2366 -91 2075 -91 
Q 1284 -91 818 406 
Q 353 903 353 1747 
Q 353 2603 823 3093 
Q 1294 3584 2113 3584 
Q 2378 3584 2631 3529 
Q 2884 3475 3122 3366 
z
" transform="scale(0.015625)"/>
       <path id="DejaVuSans-74" d="M 1172 4494 
L 1172 3500 
L 2356 3500 
L 2356 3053 
L 1172 3053 
L 1172 1153 
Q 1172 725 1289 603 
Q 1406 481 1766 481 
L 2356 481 
L 2356 0 
L 1766 0 
Q 1100 0 847 248 
Q 594 497 594 1153 
L 594 3053 
L 172 3053 
L 172 3500 
L 594 3500 
L 594 4494 
L 1172 4494 
z
" transform="scale(0.015625)"/>
       <path id="DejaVuSans-75" d="M 544 1381 
L 544 3500 
L 1119 3500 
L 1119 1403 
Q 1119 906 1312 657 
Q 1506 409 1894 409 
Q 2359 409 2629 706 
Q 2900 1003 2900 1516 
L 2900 3500 
L 3475 3500 
L 3475 0 
L 2900 0 
L 2900 538 
Q 2691 219 2414 64 
Q 2138 -91 1772 -91 
Q 1169 -91 856 284 
Q 544 659 544 1381 
z
M 1991 3584 
L 1991 3584 
z
" transform="scale(0.015625)"/>
       <path id="DejaVuSans-2c" d="M 750 794 
L 1409 794 
L 1409 256 
L 897 -744 
L 494 -744 
L 750 256 
L 750 794 
z
" transform="scale(0.015625)"/>
       <path id="DejaVuSans-70" d="M 1159 525 
L 1159 -1331 
L 581 -1331 
L 581 3500 
L 1159 3500 
L 1159 2969 
Q 1341 3281 1617 3432 
Q 1894 3584 2278 3584 
Q 2916 3584 3314 3078 
Q 3713 2572 3713 1747 
Q 3713 922 3314 415 
Q 2916 -91 2278 -91 
Q 1894 -91 1617 61 
Q 1341 213 1159 525 
z
M 3116 1747 
Q 3116 2381 2855 2742 
Q 2594 3103 2138 3103 
Q 1681 3103 1420 2742 
Q 1159 2381 1159 1747 
Q 1159 1113 1420 752 
Q 1681 391 2138 391 
Q 2594 391 2855 752 
Q 3116 1113 3116 1747 
z
" transform="scale(0.015625)"/>
      </defs>
      <use xlink:href="#DejaVuSans-46"/>
      <use xlink:href="#DejaVuSans-72" x="50.269531"/>
      <use xlink:href="#DejaVuSans-61" x="91.382812"/>
      <use xlink:href="#DejaVuSans-63" x="152.662109"/>
      <use xlink:href="#DejaVuSans-74" x="207.642578"/>
      <use xlink:href="#DejaVuSans-69" x="246.851562"/>
      <use xlink:href="#DejaVuSans-6f" x="274.634766"/>
      <use xlink:href="#DejaVuSans-6e" x="335.816406"/>
      <use xlink:href="#DejaVuSans-20" x="399.195312"/>
      <use xlink:href="#DejaVuSans-6f" x="430.982422"/>
      <use xlink:href="#DejaVuSans-66" x="492.164062"/>
      <use xlink:href="#DejaVuSans-20" x="527.369141"/>
      <use xlink:href="#DejaVuSans-66" x="559.15625"/>
      <use xlink:href="#DejaVuSans-75" x="594.361328"/>
      <use xlink:href="#DejaVuSans-6e" x="657.740234"/>
      <use xlink:href="#DejaVuSans-63" x="721.119141"/>
      <use xlink:href="#DejaVuSans-74" x="776.099609"/>
      <use xlink:href="#DejaVuSans-69" x="815.308594"/>
      <use xlink:href="#DejaVuSans-6f" x="843.091797"/>
      <use xlink:href="#DejaVuSans-6e" x="904.273438"/>
      <use xlink:href="#DejaVuSans-2c" x="967.652344"/>
      <use xlink:href="#DejaVuSans-74" x="999.439453"/>
      <use xlink:href="#DejaVuSans-61" x="1038.648438"/>
      <use xlink:href="#DejaVuSans-72" x="1099.927734"/>
      <use xlink:href="#DejaVuSans-67" x="1139.291016"/>
      <use xlink:href="#DejaVuSans-65" x="1202.767578"/>
      <use xlink:href="#DejaVuSans-74" x="1264.291016"/>
      <use xlink:href="#DejaVuSans-20" x="1303.5"/>
      <use xlink:href="#DejaVuSans-70" x="1335.287109"/>
      <use xlink:href="#DejaVuSans-61" x="1398.763672"/>
      <use xlink:href="#DejaVuSans-69" x="1460.042969"/>
      <use xlink:href="#DejaVuSans-72" x="1487.826172"/>
      <use xlink:href="#DejaVuSans-73" x="1528.939453"/>
     </g>
    </g>
   </g>
   <g id="line2d_33">
    <defs>
     <path id="m3cbea3d93e" d="M 0 1.5 
C 0.397805 1.5 0.77937 1.341951 1.06066 1.06066 
C 1.341951 0.77937 1.5 0.397805 1.5 0 
C 1.5 -0.397805 1.341951 -0.77937 1.06066 -1.06066 
C 0.77937 -1.341951 0.397805 -1.5 0 -1.5 
C -0.397805 -1.5 -0.77937 -1.341951 -1.06066 -1.06066 
C -1.341951 -0.77937 -1.5 -0.397805 -1.5 0 
C -1.5 0.397805 -1.341951 0.77937 -1.06066 1.06066 
C -0.77937 1.341951 -0.397805 1.5 0 1.5 
z
" style="stroke: #f5deb3"/>
    </defs>
    <g>
     <use xlink:href="#m3cbea3d93e" x="70.639174" y="27.648" style="fill: #f5deb3; stroke: #f5deb3"/>
     <use xlink:href="#m3cbea3d93e" x="70.639174" y="27.648" style="fill: #f5deb3; stroke: #f5deb3"/>
    </g>
   </g>
   <g id="line2d_34">
    <defs>
     <path id="m4695d7b03e" d="M 0 1.5 
C 0.397805 1.5 0.77937 1.341951 1.06066 1.06066 
C 1.341951 0.77937 1.5 0.397805 1.5 0 
C 1.5 -0.397805 1.341951 -0.77937 1.06066 -1.06066 
C 0.77937 -1.341951 0.397805 -1.5 0 -1.5 
C -0.397805 -1.5 -0.77937 -1.341951 -1.06066 -1.06066 
C -1.341951 -0.77937 -1.5 -0.397805 -1.5 0 
C -1.5 0.397805 -1.341951 0.77937 -1.06066 1.06066 
C -0.77937 1.341951 -0.397805 1.5 0 1.5 
z
" style="stroke: #000080"/>
    </defs>
    <g>
     <use xlink:href="#m4695d7b03e" x="214.2019" y="27.648" style="fill: #000080; stroke: #000080"/>
     <use xlink:href="#m4695d7b03e" x="214.2019" y="27.648" style="fill: #000080; stroke: #000080"/>
    </g>
   </g>
   <g id="line2d_35">
    <path d="M 27.323974 298.944 
L 27.323974 295.043012 
L 40.363149 295.043012 
L 40.363149 292.9152 
L 47.990577 292.9152 
L 47.990577 291.496659 
L 53.402323 291.496659 
L 53.402323 291.142024 
L 57.6 291.142024 
L 57.6 290.787388 
L 66.441498 290.787388 
L 66.441498 290.078118 
L 68.65718 290.078118 
L 68.65718 289.368847 
L 70.639174 289.368847 
L 70.639174 289.014212 
L 75.574654 289.014212 
L 75.574654 288.659576 
L 78.266603 288.659576 
L 78.266603 288.304941 
L 81.696354 288.304941 
L 81.696354 287.950306 
L 84.596168 287.950306 
L 84.596168 287.241035 
L 85.471281 287.241035 
L 85.471281 286.8864 
L 90.668036 286.8864 
L 90.668036 286.531765 
L 97.18203 286.531765 
L 97.18203 286.177129 
L 98.933205 286.177129 
L 98.933205 285.822494 
L 101.653002 285.822494 
L 101.653002 285.467859 
L 102.011329 285.467859 
L 102.011329 285.113224 
L 105.559021 285.113224 
L 105.559021 284.049318 
L 111.117162 284.049318 
L 111.117162 283.340047 
L 111.334639 283.340047 
L 111.334639 282.985412 
L 113.381389 282.985412 
L 113.381389 282.630776 
L 115.227139 282.630776 
L 115.227139 282.276141 
L 118.152051 282.276141 
L 118.152051 281.566871 
L 118.598196 281.566871 
L 118.598196 281.212235 
L 128.786481 281.212235 
L 128.786481 280.8576 
L 129.209231 280.8576 
L 129.209231 280.502965 
L 131.41562 280.502965 
L 131.41562 280.148329 
L 141.349389 280.148329 
L 141.349389 279.793694 
L 144.305496 279.793694 
L 144.380294 278.729788 
L 144.454795 278.729788 
L 144.454795 278.375153 
L 145.219746 278.375153 
L 145.219746 278.020518 
L 147.439393 278.020518 
L 147.439393 277.665882 
L 148.607806 277.665882 
L 148.607806 276.601976 
L 149.020615 276.601976 
L 149.020615 276.247341 
L 149.252502 276.247341 
L 149.252502 275.892706 
L 150.879716 275.892706 
L 150.879716 275.538071 
L 152.303973 275.538071 
L 152.401695 258.160941 
L 152.619733 258.160941 
L 152.643804 254.969224 
L 152.763699 254.969224 
L 152.859068 254.259953 
L 152.882835 254.259953 
L 152.882835 253.550682 
L 155.329337 253.550682 
L 155.329337 253.196047 
L 156.245169 253.196047 
L 156.245169 252.132141 
L 156.560344 252.132141 
L 156.560344 236.882824 
L 157.400797 236.882824 
L 157.400797 220.214965 
L 158.294582 220.214965 
L 158.312387 219.505694 
L 158.838864 219.505694 
L 158.838864 219.151059 
L 159.028273 219.151059 
L 159.045398 215.250071 
L 159.401463 215.250071 
L 159.401463 214.895435 
L 159.964032 214.895435 
L 159.964032 213.122259 
L 161.010268 213.122259 
L 161.010268 212.767624 
L 161.854518 212.767624 
L 161.854518 212.412988 
L 162.690724 212.412988 
L 162.775144 211.703718 
L 162.817213 211.703718 
L 162.859187 194.681224 
L 163.531835 194.681224 
L 163.639407 193.971953 
L 164.011136 193.971953 
L 164.011136 193.617318 
L 164.233297 193.617318 
L 164.233297 193.262682 
L 164.427166 193.262682 
L 164.427166 180.141176 
L 166.814929 180.141176 
L 166.814929 179.786541 
L 167.01769 179.786541 
L 167.01769 179.431906 
L 167.240447 179.431906 
L 167.240447 179.077271 
L 168.084835 179.077271 
L 168.137692 177.658729 
L 169.064557 177.658729 
L 169.064557 177.304094 
L 169.274409 177.304094 
L 169.343842 176.594824 
L 170.033985 176.594824 
L 170.033985 163.827953 
L 170.205 163.827953 
L 170.205 163.473318 
L 170.754894 163.473318 
L 170.754894 163.118682 
L 171.073664 163.118682 
L 171.073664 162.764047 
L 173.493935 162.764047 
L 173.493935 162.054776 
L 173.675691 162.054776 
L 173.675691 161.700141 
L 174.271704 161.700141 
L 174.271704 161.345506 
L 175.033228 161.345506 
L 175.033228 160.990871 
L 175.381197 160.990871 
L 175.381197 160.636235 
L 175.673408 160.636235 
L 175.673408 160.2816 
L 176.168936 160.2816 
L 176.182707 159.572329 
L 176.872001 159.572329 
L 176.872001 159.217694 
L 177.148646 159.217694 
L 177.148646 158.863059 
L 177.304922 158.863059 
L 177.382575 143.613741 
L 177.536927 143.613741 
L 177.536927 143.259106 
L 177.810347 143.259106 
L 177.810347 141.840565 
L 178.437353 141.840565 
L 178.437353 141.485929 
L 178.601488 141.485929 
L 178.601488 141.131294 
L 178.859967 141.131294 
L 178.901711 140.422024 
L 179.103159 140.422024 
L 179.103159 140.067388 
L 179.360695 140.067388 
L 179.360695 139.712753 
L 180.23528 139.712753 
L 180.23528 127.655153 
L 181.402471 127.655153 
L 181.402471 127.300518 
L 183.054061 127.300518 
L 183.054061 126.945882 
L 183.590898 126.945882 
L 183.590898 126.591247 
L 184.712762 126.591247 
L 184.712762 126.236612 
L 185.093768 126.236612 
L 185.093768 125.881976 
L 186.489385 125.881976 
L 186.489385 125.172706 
L 186.980371 125.172706 
L 186.980371 124.818071 
L 187.100178 124.818071 
L 187.100178 124.463435 
L 187.421032 124.463435 
L 187.526779 122.690259 
L 187.855308 122.690259 
L 187.91074 111.341929 
L 188.534946 111.341929 
L 188.638179 95.383341 
L 189.187435 95.383341 
L 189.187435 95.028706 
L 189.485033 95.028706 
L 189.485033 94.674071 
L 190.601705 94.674071 
L 190.601705 94.319435 
L 193.955614 94.319435 
L 193.955614 93.9648 
L 194.184345 93.9648 
L 194.287162 92.900894 
L 194.30293 92.900894 
L 194.30293 92.191624 
L 194.433821 92.191624 
L 194.475514 79.424753 
L 195.665654 79.424753 
L 195.665654 79.070118 
L 196.162374 79.070118 
L 196.162374 78.715482 
L 196.997856 78.715482 
L 196.997856 66.657882 
L 198.318469 66.657882 
L 198.318469 53.181741 
L 200.710392 53.181741 
L 200.710392 52.472471 
L 208.23351 52.472471 
L 208.23351 51.7632 
L 212.405866 51.7632 
L 212.405866 51.053929 
L 213.19393 51.053929 
L 213.237185 49.280753 
L 213.618305 49.280753 
L 213.681237 38.996329 
L 214.2019 38.996329 
L 214.2019 27.648 
L 360.8064 27.648 
L 360.8064 27.648 
" style="fill: none; stroke: #000080; stroke-width: 1.5; stroke-linecap: square"/>
   </g>
   <g id="line2d_36">
    <defs>
     <path id="mc4da97f239" d="M 0 6 
C 1.591219 6 3.117479 5.367802 4.242641 4.242641 
C 5.367802 3.117479 6 1.591219 6 0 
C 6 -1.591219 5.367802 -3.117479 4.242641 -4.242641 
C 3.117479 -5.367802 1.591219 -6 0 -6 
C -1.591219 -6 -3.117479 -5.367802 -4.242641 -4.242641 
C -5.367802 -3.117479 -6 -1.591219 -6 0 
C -6 1.591219 -5.367802 3.117479 -4.242641 4.242641 
C -3.117479 5.367802 -1.591219 6 0 6 
z
" style="stroke: #000080; stroke-width: 1.5"/>
    </defs>
    <g>
     <use xlink:href="#mc4da97f239" x="131.41562" y="280.502965" style="fill-opacity: 0; stroke: #000080; stroke-width: 1.5"/>
     <use xlink:href="#mc4da97f239" x="187.421032" y="124.463435" style="fill-opacity: 0; stroke: #000080; stroke-width: 1.5"/>
     <use xlink:href="#mc4da97f239" x="214.2019" y="38.996329" style="fill-opacity: 0; stroke: #000080; stroke-width: 1.5"/>
     <use xlink:href="#mc4da97f239" x="214.2019" y="27.648" style="fill-opacity: 0; stroke: #000080; stroke-width: 1.5"/>
     <use xlink:href="#mc4da97f239" x="214.2019" y="27.648" style="fill-opacity: 0; stroke: #000080; stroke-width: 1.5"/>
     <use xlink:href="#mc4da97f239" x="360.8064" y="27.648" style="fill-opacity: 0; stroke: #000080; stroke-width: 1.5"/>
    </g>
   </g>
   <g id="line2d_37">
    <path style="fill: none; stroke: #000080; stroke-width: 1.5; stroke-linecap: square"/>
    <g/>
   </g>
   <g id="line2d_38">
    <defs>
     <path id="m10cdc032a1" d="M 0 1.5 
C 0.397805 1.5 0.77937 1.341951 1.06066 1.06066 
C 1.341951 0.77937 1.5 0.397805 1.5 0 
C 1.5 -0.397805 1.341951 -0.77937 1.06066 -1.06066 
C 0.77937 -1.341951 0.397805 -1.5 0 -1.5 
C -0.397805 -1.5 -0.77937 -1.341951 -1.06066 -1.06066 
C -1.341951 -0.77937 -1.5 -0.397805 -1.5 0 
C -1.5 0.397805 -1.341951 0.77937 -1.06066 1.06066 
C -0.77937 1.341951 -0.397805 1.5 0 1.5 
z
" style="stroke: #ff00ff"/>
    </defs>
    <g>
     <use xlink:href="#m10cdc032a1" x="307.127688" y="38.287059" style="fill: #ff00ff; stroke: #ff00ff"/>
     <use xlink:href="#m10cdc032a1" x="307.127688" y="38.287059" style="fill: #ff00ff; stroke: #ff00ff"/>
    </g>
   </g>
   <g id="line2d_39">
    <path d="M 27.323974 298.944 
L 27.323974 296.106918 
L 40.363149 296.106918 
L 40.363149 294.333741 
L 47.990577 294.333741 
L 47.990577 293.269835 
L 53.402323 293.269835 
L 53.402323 292.560565 
L 57.6 292.560565 
L 57.6 291.851294 
L 61.029752 291.851294 
L 61.029752 290.432753 
L 63.929565 290.432753 
L 63.929565 290.078118 
L 66.441498 290.078118 
L 66.441498 289.723482 
L 68.65718 289.723482 
L 68.65718 289.014212 
L 70.639174 289.014212 
L 70.639174 288.659576 
L 75.574654 288.659576 
L 75.574654 287.595671 
L 76.96874 287.595671 
L 76.96874 287.241035 
L 78.266603 287.241035 
L 78.266603 286.8864 
L 79.480672 286.8864 
L 79.480672 286.531765 
L 81.696354 286.531765 
L 81.696354 286.177129 
L 90.007914 286.177129 
L 90.007914 285.822494 
L 91.305777 285.822494 
L 91.305777 285.113224 
L 97.18203 285.113224 
L 97.18203 284.758588 
L 98.933205 284.758588 
L 98.933205 284.403953 
L 110.221204 284.403953 
L 110.221204 284.049318 
L 118.598196 284.049318 
L 118.598196 283.340047 
L 122.913079 283.340047 
L 122.913079 282.985412 
L 124.906754 282.985412 
L 124.906754 282.630776 
L 126.613505 282.630776 
L 126.613505 282.276141 
L 127.549596 282.276141 
L 127.549596 281.921506 
L 130.107132 281.921506 
L 130.107132 281.566871 
L 130.501519 281.566871 
L 130.501519 281.212235 
L 137.250116 281.212235 
L 137.250116 280.8576 
L 137.574461 280.8576 
L 137.574461 280.502965 
L 140.58877 280.502965 
L 140.58877 280.148329 
L 142.865233 280.148329 
L 142.865233 279.793694 
L 144.71325 279.793694 
L 144.71325 279.439059 
L 149.049758 279.439059 
L 149.049758 279.084424 
L 153.142309 279.084424 
L 153.142309 278.729788 
L 156.383708 278.729788 
L 156.383708 278.375153 
L 157.549652 278.375153 
L 157.549652 277.665882 
L 157.880333 277.665882 
L 157.880333 277.311247 
L 161.010268 277.311247 
L 161.010268 276.956612 
L 165.158538 276.956612 
L 165.158538 276.601976 
L 167.173896 276.601976 
L 167.173896 275.892706 
L 167.742992 275.892706 
L 167.742992 275.538071 
L 169.333939 275.538071 
L 169.333939 274.8288 
L 175.743995 274.8288 
L 175.743995 274.474165 
L 175.88438 274.474165 
L 175.88438 274.119529 
L 181.376377 274.119529 
L 181.376377 273.764894 
L 182.002973 273.764894 
L 182.043341 272.700988 
L 182.138869 272.700988 
L 182.233915 271.637082 
L 182.412696 271.637082 
L 182.412696 271.282447 
L 182.624036 271.282447 
L 182.624036 270.927812 
L 182.977474 270.927812 
L 182.977474 270.573176 
L 183.839939 270.573176 
L 183.839939 270.218541 
L 184.778254 270.218541 
L 184.778254 269.863906 
L 187.200076 269.863906 
L 187.200076 269.509271 
L 188.225432 269.509271 
L 188.225432 268.8 
L 188.814848 268.8 
L 188.814848 268.445365 
L 193.238351 268.445365 
L 193.238351 268.090729 
L 194.163184 268.090729 
L 194.250318 267.381459 
L 194.38419 267.381459 
L 194.38419 267.026824 
L 194.504125 267.026824 
L 194.504125 266.672188 
L 194.767372 266.672188 
L 194.767372 266.317553 
L 195.079995 266.317553 
L 195.079995 265.962918 
L 195.621622 265.962918 
L 195.621622 264.544376 
L 196.052588 264.544376 
L 196.052588 264.189741 
L 196.991026 264.189741 
L 196.991026 263.835106 
L 197.336243 263.835106 
L 197.336243 263.480471 
L 198.542067 263.480471 
L 198.542067 263.125835 
L 198.781681 263.125835 
L 198.781681 262.416565 
L 199.065247 262.416565 
L 199.065247 262.061929 
L 200.279444 262.061929 
L 200.279444 261.707294 
L 201.716363 261.707294 
L 201.794141 260.998024 
L 202.150603 260.998024 
L 202.150603 260.643388 
L 202.305744 260.643388 
L 202.387965 259.579482 
L 202.445988 259.579482 
L 202.445988 259.224847 
L 202.716663 259.224847 
L 202.807144 258.515576 
L 202.9603 258.515576 
L 202.985154 257.806306 
L 203.117154 257.806306 
L 203.117154 257.451671 
L 203.358938 257.451671 
L 203.441541 256.7424 
L 203.623281 256.7424 
L 203.70314 255.678494 
L 204.469854 255.678494 
L 204.503487 254.969224 
L 207.116149 254.969224 
L 207.189121 253.905318 
L 207.479516 253.905318 
L 207.479516 253.550682 
L 207.752649 253.550682 
L 207.752649 253.196047 
L 207.916429 253.196047 
L 207.916429 252.486776 
L 208.185848 252.486776 
L 208.185848 251.777506 
L 209.08458 251.777506 
L 209.128827 251.068235 
L 209.588992 251.068235 
L 209.588992 250.358965 
L 209.878157 250.358965 
L 209.878157 250.004329 
L 210.0302 250.004329 
L 210.0302 249.649694 
L 210.145978 249.649694 
L 210.145978 249.295059 
L 210.713316 249.295059 
L 210.713316 248.940424 
L 211.32366 248.940424 
L 211.32366 248.585788 
L 211.459224 248.585788 
L 211.459224 247.876518 
L 211.665976 247.876518 
L 211.758641 246.812612 
L 212.024715 246.812612 
L 212.024715 246.457976 
L 212.215242 246.457976 
L 212.22335 245.748706 
L 212.611458 245.748706 
L 212.611458 245.394071 
L 212.862881 245.394071 
L 212.882459 244.6848 
L 214.110466 244.6848 
L 214.110466 244.330165 
L 214.347275 244.330165 
L 214.347275 243.975529 
L 214.775897 243.975529 
L 214.861518 242.911624 
L 214.956393 242.911624 
L 214.956393 242.556988 
L 215.352642 242.556988 
L 215.436538 241.493082 
L 215.51751 241.493082 
L 215.619295 240.429176 
L 215.661544 240.429176 
L 215.744917 238.656 
L 215.898898 238.656 
L 215.898898 238.301365 
L 216.508976 238.301365 
L 216.508976 237.946729 
L 217.027032 237.946729 
L 217.027032 237.592094 
L 217.668252 237.592094 
L 217.669769 236.882824 
L 217.844186 236.882824 
L 217.844186 236.528188 
L 217.996137 236.528188 
L 217.996137 236.173553 
L 218.123931 236.173553 
L 218.123931 235.818918 
L 218.346233 235.818918 
L 218.450586 235.109647 
L 218.738728 235.109647 
L 218.846633 234.045741 
L 219.392992 234.045741 
L 219.392992 233.691106 
L 219.675341 233.691106 
L 219.759701 232.981835 
L 220.032625 232.981835 
L 220.032625 232.6272 
L 220.185874 232.6272 
L 220.265337 231.563294 
L 220.462539 231.563294 
L 220.482799 230.499388 
L 220.779611 230.499388 
L 220.870693 228.726212 
L 220.953693 228.726212 
L 220.953693 228.371576 
L 221.808033 228.371576 
L 221.808033 228.016941 
L 222.0187 228.016941 
L 222.0187 227.662306 
L 222.379423 227.662306 
L 222.423073 226.5984 
L 222.500099 226.5984 
L 222.514762 225.534494 
L 222.712483 225.534494 
L 222.723503 224.470588 
L 222.91561 224.470588 
L 222.91561 224.115953 
L 223.074498 224.115953 
L 223.074498 223.761318 
L 224.412196 223.761318 
L 224.504202 220.924235 
L 224.600484 220.924235 
L 224.707238 219.151059 
L 224.783269 219.151059 
L 224.851747 218.441788 
L 224.956573 218.441788 
L 224.956573 218.087153 
L 225.277718 218.087153 
L 225.277718 217.732518 
L 225.627789 217.732518 
L 225.627789 217.023247 
L 226.142428 217.023247 
L 226.241764 215.959341 
L 226.327656 215.959341 
L 226.327656 215.604706 
L 226.705402 215.604706 
L 226.705402 215.250071 
L 227.163842 215.250071 
L 227.163842 214.895435 
L 227.279344 214.895435 
L 227.279344 214.5408 
L 227.39188 214.5408 
L 227.39188 214.186165 
L 227.557637 214.186165 
L 227.557637 213.831529 
L 227.784524 213.831529 
L 227.784524 213.476894 
L 227.923137 213.476894 
L 228.004328 212.058353 
L 228.109138 212.058353 
L 228.209036 211.349082 
L 228.279081 211.349082 
L 228.279081 210.994447 
L 228.600859 210.994447 
L 228.600859 210.639812 
L 228.82564 210.639812 
L 228.885493 209.575906 
L 229.104026 209.575906 
L 229.143638 208.866635 
L 229.314741 208.866635 
L 229.314741 208.157365 
L 229.507765 208.157365 
L 229.563878 207.448094 
L 229.718029 207.448094 
L 229.824075 206.738824 
L 229.904604 206.738824 
L 229.904604 206.384188 
L 230.127331 206.384188 
L 230.236547 205.674918 
L 230.676297 205.674918 
L 230.769531 204.611012 
L 230.812203 204.611012 
L 230.838213 203.547106 
L 230.979315 203.547106 
L 230.979315 203.192471 
L 231.109716 203.192471 
L 231.109716 202.837835 
L 231.286726 202.837835 
L 231.334847 202.128565 
L 231.827287 202.128565 
L 231.827287 201.773929 
L 231.982112 201.773929 
L 232.0451 201.064659 
L 232.199903 201.064659 
L 232.251688 200.355388 
L 232.536394 200.355388 
L 232.615729 199.291482 
L 233.156907 199.291482 
L 233.224716 198.227576 
L 233.360925 198.227576 
L 233.470954 197.163671 
L 233.479467 197.163671 
L 233.567316 196.099765 
L 233.688454 196.099765 
L 233.7821 195.390494 
L 233.818786 195.390494 
L 233.849944 194.681224 
L 234.336896 194.681224 
L 234.447909 192.908047 
L 234.555797 192.908047 
L 234.555797 192.553412 
L 234.766983 192.553412 
L 234.766983 192.198776 
L 234.955257 192.198776 
L 234.955257 191.844141 
L 235.406191 191.844141 
L 235.452818 190.780235 
L 235.52313 190.780235 
L 235.62358 190.070965 
L 235.637595 190.070965 
L 235.676955 189.361694 
L 235.77543 189.361694 
L 235.78383 188.652424 
L 235.91744 188.652424 
L 235.91744 188.297788 
L 236.361596 188.297788 
L 236.361596 187.943153 
L 236.539368 187.943153 
L 236.561611 186.879247 
L 236.716854 186.879247 
L 236.762821 186.169976 
L 236.944484 186.169976 
L 236.944484 185.815341 
L 237.178268 185.815341 
L 237.178268 185.460706 
L 237.366102 185.460706 
L 237.464882 184.3968 
L 237.491083 184.3968 
L 237.577105 181.205082 
L 237.758932 181.205082 
L 237.854638 180.495812 
L 238.312842 180.495812 
L 238.312842 180.141176 
L 238.448054 180.141176 
L 238.521057 178.722635 
L 238.622688 178.722635 
L 238.718323 177.658729 
L 238.740361 177.658729 
L 238.740361 177.304094 
L 238.855828 177.304094 
L 238.855828 176.949459 
L 239.158865 176.949459 
L 239.158865 176.594824 
L 239.302808 176.594824 
L 239.404852 175.176282 
L 239.442798 175.176282 
L 239.531516 174.467012 
L 239.58128 174.467012 
L 239.690537 173.403106 
L 239.714756 173.403106 
L 239.718516 172.693835 
L 240.050364 172.693835 
L 240.120406 171.275294 
L 240.210342 171.275294 
L 240.270669 170.566024 
L 240.421551 170.566024 
L 240.421551 170.211388 
L 240.82392 170.211388 
L 240.883198 168.792847 
L 240.988463 168.792847 
L 241.047882 167.728941 
L 241.128269 167.728941 
L 241.128269 167.374306 
L 241.39449 167.374306 
L 241.400292 166.3104 
L 241.550302 166.3104 
L 241.626665 164.891859 
L 241.699124 164.891859 
L 241.782889 163.827953 
L 241.836286 163.827953 
L 241.836286 163.473318 
L 241.985371 163.473318 
L 242.079896 162.409412 
L 242.325302 162.409412 
L 242.406737 161.700141 
L 242.464283 161.700141 
L 242.492281 160.990871 
L 242.687109 160.990871 
L 242.796342 160.2816 
L 242.858677 160.2816 
L 242.858677 159.926965 
L 243.056259 159.926965 
L 243.063734 158.863059 
L 243.179215 158.863059 
L 243.179215 158.508424 
L 243.330286 158.508424 
L 243.404403 157.799153 
L 243.516091 157.799153 
L 243.617 157.089882 
L 243.673061 157.089882 
L 243.781087 156.025976 
L 243.786197 156.025976 
L 243.850058 154.962071 
L 244.078772 154.962071 
L 244.078772 154.607435 
L 244.394189 154.607435 
L 244.480844 152.834259 
L 244.649711 152.834259 
L 244.721519 151.061082 
L 245.018096 151.061082 
L 245.10493 149.997176 
L 245.143356 149.997176 
L 245.19874 148.224 
L 245.316876 148.224 
L 245.349647 147.160094 
L 245.482239 147.160094 
L 245.482239 146.805459 
L 245.63004 146.805459 
L 245.689828 146.096188 
L 245.772772 146.096188 
L 245.857724 145.386918 
L 246.113984 145.386918 
L 246.113984 145.032282 
L 246.278319 145.032282 
L 246.292404 144.323012 
L 246.555595 144.323012 
L 246.6327 142.549835 
L 246.877721 142.549835 
L 246.972542 141.131294 
L 247.053689 141.131294 
L 247.122762 140.067388 
L 247.237165 140.067388 
L 247.237165 139.712753 
L 247.498583 139.712753 
L 247.534593 138.294212 
L 247.621847 138.294212 
L 247.621847 137.939576 
L 247.791326 137.939576 
L 247.822505 136.875671 
L 247.911629 136.875671 
L 248.018476 135.811765 
L 248.067076 135.811765 
L 248.067076 135.457129 
L 248.216166 135.457129 
L 248.310592 134.038588 
L 248.538798 134.038588 
L 248.541297 133.329318 
L 248.653552 133.329318 
L 248.755988 132.620047 
L 248.785464 132.620047 
L 248.785464 132.265412 
L 248.942951 132.265412 
L 248.970268 131.201506 
L 249.061564 131.201506 
L 249.15242 129.782965 
L 249.178867 129.782965 
L 249.215773 129.073694 
L 249.320842 129.073694 
L 249.383069 128.364424 
L 249.462734 128.364424 
L 249.568386 127.300518 
L 249.799658 127.300518 
L 249.801445 126.591247 
L 250.034369 126.591247 
L 250.145101 124.463435 
L 250.217308 124.463435 
L 250.217308 124.1088 
L 250.428159 124.1088 
L 250.493195 123.399529 
L 250.62957 123.399529 
L 250.62957 122.690259 
L 250.749547 122.690259 
L 250.788326 121.980988 
L 250.980387 121.980988 
L 251.079155 120.917082 
L 251.143775 120.917082 
L 251.158616 120.207812 
L 251.408515 120.207812 
L 251.495898 118.789271 
L 251.818103 118.789271 
L 251.824771 118.08 
L 251.946707 118.08 
L 251.946707 117.725365 
L 252.064202 117.725365 
L 252.144351 116.306824 
L 252.208565 116.306824 
L 252.319632 115.242918 
L 252.390439 115.242918 
L 252.390439 114.888282 
L 252.583736 114.888282 
L 252.680235 113.469741 
L 252.844652 113.469741 
L 252.849913 112.760471 
L 252.968423 112.760471 
L 253.002544 112.0512 
L 253.107189 112.0512 
L 253.203455 109.923388 
L 253.389525 109.923388 
L 253.490125 108.504847 
L 253.512144 108.504847 
L 253.550812 107.795576 
L 253.658731 107.795576 
L 253.71151 106.731671 
L 253.801741 106.731671 
L 253.801741 106.377035 
L 253.925132 106.377035 
L 253.999287 104.958494 
L 254.075231 104.958494 
L 254.137994 103.894588 
L 254.350308 103.894588 
L 254.350308 103.539953 
L 254.564949 103.539953 
L 254.650018 102.476047 
L 254.750243 102.476047 
L 254.750243 102.121412 
L 254.995261 102.121412 
L 254.995261 101.766776 
L 255.113682 101.766776 
L 255.181756 100.348235 
L 255.356804 100.348235 
L 255.442143 99.638965 
L 255.47186 99.638965 
L 255.515535 98.929694 
L 255.632651 98.929694 
L 255.707011 98.220424 
L 255.75946 98.220424 
L 255.75946 97.865788 
L 255.913353 97.865788 
L 255.913353 97.511153 
L 256.073582 97.511153 
L 256.137686 96.801882 
L 256.248369 96.801882 
L 256.248369 96.447247 
L 256.431116 96.447247 
L 256.517308 95.737976 
L 256.552097 95.737976 
L 256.552097 95.383341 
L 256.698998 95.383341 
L 256.761389 93.9648 
L 256.816096 93.9648 
L 256.899132 92.546259 
L 256.945262 92.546259 
L 257.009935 91.127718 
L 257.184537 91.127718 
L 257.224786 90.063812 
L 257.397047 90.063812 
L 257.503048 88.645271 
L 257.757722 88.645271 
L 257.808623 87.581365 
L 257.883285 87.581365 
L 257.970835 86.872094 
L 257.997972 86.872094 
L 258.107722 85.808188 
L 258.168262 85.808188 
L 258.168262 85.453553 
L 258.485495 85.453553 
L 258.574087 84.744282 
L 258.699047 84.744282 
L 258.782122 83.325741 
L 258.82565 83.325741 
L 258.849203 82.616471 
L 259.022771 82.616471 
L 259.022771 82.261835 
L 259.338949 82.261835 
L 259.432602 81.552565 
L 259.549385 81.552565 
L 259.573931 80.134024 
L 259.849494 80.134024 
L 259.849494 79.779388 
L 260.084112 79.779388 
L 260.084112 79.424753 
L 260.254824 79.424753 
L 260.254824 78.715482 
L 260.394044 78.715482 
L 260.485873 77.651576 
L 260.595696 77.651576 
L 260.595696 77.296941 
L 260.749178 77.296941 
L 260.749178 76.942306 
L 260.936663 76.942306 
L 261.007031 76.233035 
L 261.218591 76.233035 
L 261.218591 75.8784 
L 261.495691 75.8784 
L 261.582015 74.814494 
L 261.618282 74.814494 
L 261.620702 74.105224 
L 261.879113 74.105224 
L 261.89343 73.395953 
L 262.065964 73.395953 
L 262.065964 73.041318 
L 262.21527 73.041318 
L 262.31307 71.977412 
L 262.33984 71.977412 
L 262.383834 70.913506 
L 262.587508 70.913506 
L 262.688039 69.8496 
L 262.789966 69.8496 
L 262.789966 69.494965 
L 262.901828 69.494965 
L 262.924353 68.785694 
L 263.147325 68.785694 
L 263.147325 67.721788 
L 263.270528 67.721788 
L 263.380578 65.948612 
L 263.425805 65.948612 
L 263.425805 65.593976 
L 263.57406 65.593976 
L 263.580537 63.8208 
L 264.033629 63.8208 
L 264.120769 63.111529 
L 264.212237 63.111529 
L 264.213451 62.402259 
L 264.38581 62.402259 
L 264.38581 62.047624 
L 264.65391 62.047624 
L 264.65391 61.692988 
L 264.86808 61.692988 
L 264.944873 60.983718 
L 265.056943 60.983718 
L 265.075262 60.274447 
L 265.47442 60.274447 
L 265.485829 59.565176 
L 265.754881 59.565176 
L 265.850004 58.501271 
L 265.989467 58.501271 
L 266.018339 57.792 
L 266.348333 57.792 
L 266.348333 57.437365 
L 266.476121 57.437365 
L 266.502559 56.728094 
L 267.028066 56.728094 
L 267.028066 56.373459 
L 267.578869 56.373459 
L 267.686536 55.309553 
L 267.87134 55.309553 
L 267.872813 54.600282 
L 268.108653 54.600282 
L 268.108653 54.245647 
L 268.330026 54.245647 
L 268.427158 53.181741 
L 268.590842 53.181741 
L 268.613662 52.117835 
L 268.959827 52.117835 
L 268.961564 51.408565 
L 269.093394 51.408565 
L 269.138739 50.699294 
L 269.388507 50.699294 
L 269.388507 50.344659 
L 269.653385 50.344659 
L 269.653385 49.990024 
L 269.827842 49.990024 
L 269.827842 49.635388 
L 270.106463 49.635388 
L 270.194119 48.926118 
L 270.274333 48.926118 
L 270.274333 48.571482 
L 270.399697 48.571482 
L 270.446271 47.507576 
L 270.617696 47.507576 
L 270.679643 46.443671 
L 270.877545 46.443671 
L 270.897083 45.7344 
L 272.332781 45.7344 
L 272.396866 45.025129 
L 272.835858 45.025129 
L 272.835858 44.670494 
L 273.554041 44.670494 
L 273.560496 43.961224 
L 274.243225 43.961224 
L 274.243225 43.606588 
L 284.674648 43.606588 
L 284.674648 43.251953 
L 284.833204 43.251953 
L 284.833204 42.542682 
L 285.465277 42.542682 
L 285.563458 41.833412 
L 286.598134 41.833412 
L 286.598134 41.478776 
L 287.288434 41.478776 
L 287.288434 40.769506 
L 293.317336 40.769506 
L 293.317336 40.414871 
L 294.917874 40.414871 
L 294.917874 40.060235 
L 299.069302 40.060235 
L 299.143235 39.350965 
L 300.330625 39.350965 
L 300.330625 38.996329 
L 303.82084 38.996329 
L 303.82084 38.641694 
L 307.127688 38.641694 
L 307.127688 38.287059 
L 360.8064 38.287059 
L 360.8064 38.287059 
" style="fill: none; stroke: #ff00ff; stroke-width: 1.5; stroke-linecap: square"/>
   </g>
   <g id="line2d_40">
    <defs>
     <path id="m07be7d1eae" d="M 0 8.485281 
L 5.091169 0 
L 0 -8.485281 
L -5.091169 0 
z
" style="stroke: #ff00ff; stroke-width: 1.5; stroke-linejoin: miter"/>
    </defs>
    <g>
     <use xlink:href="#m07be7d1eae" x="75.574654" y="288.659576" style="fill-opacity: 0; stroke: #ff00ff; stroke-width: 1.5; stroke-linejoin: miter"/>
     <use xlink:href="#m07be7d1eae" x="188.814848" y="268.445365" style="fill-opacity: 0; stroke: #ff00ff; stroke-width: 1.5; stroke-linejoin: miter"/>
     <use xlink:href="#m07be7d1eae" x="243.179215" y="158.508424" style="fill-opacity: 0; stroke: #ff00ff; stroke-width: 1.5; stroke-linejoin: miter"/>
     <use xlink:href="#m07be7d1eae" x="267.028066" y="56.373459" style="fill-opacity: 0; stroke: #ff00ff; stroke-width: 1.5; stroke-linejoin: miter"/>
     <use xlink:href="#m07be7d1eae" x="307.127688" y="38.287059" style="fill-opacity: 0; stroke: #ff00ff; stroke-width: 1.5; stroke-linejoin: miter"/>
     <use xlink:href="#m07be7d1eae" x="360.8064" y="38.287059" style="fill-opacity: 0; stroke: #ff00ff; stroke-width: 1.5; stroke-linejoin: miter"/>
    </g>
   </g>
   <g id="line2d_41">
    <path style="fill: none; stroke: #ff00ff; stroke-width: 1.5; stroke-linecap: square"/>
    <g/>
   </g>
   <g id="line2d_42">
    <path d="M 274.255293 43.606588 
" clip-path="url(#pa06302f8d4)" style="fill: none; stroke: #ff00ff; stroke-width: 1.5; stroke-linecap: square"/>
    <defs>
     <path id="mf65cdd6752" d="M -12 12 
L 12 -12 
M -12 -12 
L 12 12 
" style="stroke: #ff00ff"/>
    </defs>
    <g clip-path="url(#pa06302f8d4)">
     <use xlink:href="#mf65cdd6752" x="274.255293" y="43.606588" style="fill: #ff00ff; stroke: #ff00ff"/>
    </g>
   </g>
   <g id="line2d_43">
    <path d="M 360.8064 38.287059 
L 380.514816 293.51808 
" style="fill: none; stroke: #ff00ff; stroke-width: 1.5; stroke-linecap: square"/>
    <g>
     <use xlink:href="#m07be7d1eae" x="360.8064" y="38.287059" style="fill-opacity: 0; stroke: #ff00ff; stroke-width: 1.5; stroke-linejoin: miter"/>
     <use xlink:href="#m07be7d1eae" x="380.514816" y="293.51808" style="fill-opacity: 0; stroke: #ff00ff; stroke-width: 1.5; stroke-linejoin: miter"/>
    </g>
   </g>
   <g id="line2d_44">
    <path d="M 360.8064 27.648 
L 380.514816 163.296 
" style="fill: none; stroke: #000080; stroke-width: 1.5; stroke-linecap: square"/>
    <g>
     <use xlink:href="#mc4da97f239" x="360.8064" y="27.648" style="fill-opacity: 0; stroke: #000080; stroke-width: 1.5"/>
     <use xlink:href="#mc4da97f239" x="380.514816" y="163.296" style="fill-opacity: 0; stroke: #000080; stroke-width: 1.5"/>
    </g>
   </g>
   <g id="line2d_45">
    <path d="M 360.8064 298.944 
L 360.8064 27.648 
" style="fill: none; stroke: #000000; stroke-width: 1.5; stroke-linecap: square"/>
   </g>
   <g id="patch_3">
    <path d="M 57.6 298.944 
L 360.8064 298.944 
" style="fill: none; stroke: #000000; stroke-width: 0.8; stroke-linejoin: miter; stroke-linecap: square"/>
   </g>
   <g id="patch_4">
    <path d="M 57.6 27.648 
L 360.8064 27.648 
" style="fill: none; stroke: #000000; stroke-width: 0.8; stroke-linejoin: miter; stroke-linecap: square"/>
   </g>
   <g id="text_13">
    <!-- GA -->
    <g transform="translate(386.578944 297.381205)scale(0.14 -0.14)">
     <defs>
      <path id="DejaVuSans-47" d="M 3809 666 
L 3809 1919 
L 2778 1919 
L 2778 2438 
L 4434 2438 
L 4434 434 
Q 4069 175 3628 42 
Q 3188 -91 2688 -91 
Q 1594 -91 976 548 
Q 359 1188 359 2328 
Q 359 3472 976 4111 
Q 1594 4750 2688 4750 
Q 3144 4750 3555 4637 
Q 3966 4525 4313 4306 
L 4313 3634 
Q 3963 3931 3569 4081 
Q 3175 4231 2741 4231 
Q 1884 4231 1454 3753 
Q 1025 3275 1025 2328 
Q 1025 1384 1454 906 
Q 1884 428 2741 428 
Q 3075 428 3337 486 
Q 3600 544 3809 666 
z
" transform="scale(0.015625)"/>
      <path id="DejaVuSans-41" d="M 2188 4044 
L 1331 1722 
L 3047 1722 
L 2188 4044 
z
M 1831 4666 
L 2547 4666 
L 4325 0 
L 3669 0 
L 3244 1197 
L 1141 1197 
L 716 0 
L 50 0 
L 1831 4666 
z
" transform="scale(0.015625)"/>
     </defs>
     <use xlink:href="#DejaVuSans-47"/>
     <use xlink:href="#DejaVuSans-41" x="77.490234"/>
    </g>
   </g>
   <g id="text_14">
    <!-- LCGA -->
    <g transform="translate(386.578944 167.159125)scale(0.14 -0.14)">
     <defs>
      <path id="DejaVuSans-4c" d="M 628 4666 
L 1259 4666 
L 1259 531 
L 3531 531 
L 3531 0 
L 628 0 
L 628 4666 
z
" transform="scale(0.015625)"/>
      <path id="DejaVuSans-43" d="M 4122 4306 
L 4122 3641 
Q 3803 3938 3442 4084 
Q 3081 4231 2675 4231 
Q 1875 4231 1450 3742 
Q 1025 3253 1025 2328 
Q 1025 1406 1450 917 
Q 1875 428 2675 428 
Q 3081 428 3442 575 
Q 3803 722 4122 1019 
L 4122 359 
Q 3791 134 3420 21 
Q 3050 -91 2638 -91 
Q 1578 -91 968 557 
Q 359 1206 359 2328 
Q 359 3453 968 4101 
Q 1578 4750 2638 4750 
Q 3056 4750 3426 4639 
Q 3797 4528 4122 4306 
z
" transform="scale(0.015625)"/>
     </defs>
     <use xlink:href="#DejaVuSans-4c"/>
     <use xlink:href="#DejaVuSans-43" x="55.712891"/>
     <use xlink:href="#DejaVuSans-47" x="125.537109"/>
     <use xlink:href="#DejaVuSans-41" x="203.027344"/>
    </g>
   </g>
   <g id="text_15">
    <!-- best 2009 -->
    <g transform="translate(386.578944 36.937045)scale(0.14 -0.14)">
     <defs>
      <path id="DejaVuSans-62" d="M 3116 1747 
Q 3116 2381 2855 2742 
Q 2594 3103 2138 3103 
Q 1681 3103 1420 2742 
Q 1159 2381 1159 1747 
Q 1159 1113 1420 752 
Q 1681 391 2138 391 
Q 2594 391 2855 752 
Q 3116 1113 3116 1747 
z
M 1159 2969 
Q 1341 3281 1617 3432 
Q 1894 3584 2278 3584 
Q 2916 3584 3314 3078 
Q 3713 2572 3713 1747 
Q 3713 922 3314 415 
Q 2916 -91 2278 -91 
Q 1894 -91 1617 61 
Q 1341 213 1159 525 
L 1159 0 
L 581 0 
L 581 4863 
L 1159 4863 
L 1159 2969 
z
" transform="scale(0.015625)"/>
      <path id="DejaVuSans-39" d="M 703 97 
L 703 672 
Q 941 559 1184 500 
Q 1428 441 1663 441 
Q 2288 441 2617 861 
Q 2947 1281 2994 2138 
Q 2813 1869 2534 1725 
Q 2256 1581 1919 1581 
Q 1219 1581 811 2004 
Q 403 2428 403 3163 
Q 403 3881 828 4315 
Q 1253 4750 1959 4750 
Q 2769 4750 3195 4129 
Q 3622 3509 3622 2328 
Q 3622 1225 3098 567 
Q 2575 -91 1691 -91 
Q 1453 -91 1209 -44 
Q 966 3 703 97 
z
M 1959 2075 
Q 2384 2075 2632 2365 
Q 2881 2656 2881 3163 
Q 2881 3666 2632 3958 
Q 2384 4250 1959 4250 
Q 1534 4250 1286 3958 
Q 1038 3666 1038 3163 
Q 1038 2656 1286 2365 
Q 1534 2075 1959 2075 
z
" transform="scale(0.015625)"/>
     </defs>
     <use xlink:href="#DejaVuSans-62"/>
     <use xlink:href="#DejaVuSans-65" x="63.476562"/>
     <use xlink:href="#DejaVuSans-73" x="125"/>
     <use xlink:href="#DejaVuSans-74" x="177.099609"/>
     <use xlink:href="#DejaVuSans-20" x="216.308594"/>
     <use xlink:href="#DejaVuSans-32" x="248.095703"/>
     <use xlink:href="#DejaVuSans-30" x="311.71875"/>
     <use xlink:href="#DejaVuSans-30" x="375.341797"/>
     <use xlink:href="#DejaVuSans-39" x="438.964844"/>
    </g>
   </g>
   <g id="text_16">
    <!-- bbob f5, 5-D -->
    <g transform="translate(60.632064 38.111366)scale(0.102 -0.102)">
     <defs>
      <path id="DejaVuSans-35" d="M 691 4666 
L 3169 4666 
L 3169 4134 
L 1269 4134 
L 1269 2991 
Q 1406 3038 1543 3061 
Q 1681 3084 1819 3084 
Q 2600 3084 3056 2656 
Q 3513 2228 3513 1497 
Q 3513 744 3044 326 
Q 2575 -91 1722 -91 
Q 1428 -91 1123 -41 
Q 819 9 494 109 
L 494 744 
Q 775 591 1075 516 
Q 1375 441 1709 441 
Q 2250 441 2565 725 
Q 2881 1009 2881 1497 
Q 2881 1984 2565 2268 
Q 2250 2553 1709 2553 
Q 1456 2553 1204 2497 
Q 953 2441 691 2322 
L 691 4666 
z
" transform="scale(0.015625)"/>
      <path id="DejaVuSans-44" d="M 1259 4147 
L 1259 519 
L 2022 519 
Q 2988 519 3436 956 
Q 3884 1394 3884 2338 
Q 3884 3275 3436 3711 
Q 2988 4147 2022 4147 
L 1259 4147 
z
M 628 4666 
L 1925 4666 
Q 3281 4666 3915 4102 
Q 4550 3538 4550 2338 
Q 4550 1131 3912 565 
Q 3275 0 1925 0 
L 628 0 
L 628 4666 
z
" transform="scale(0.015625)"/>
     </defs>
     <use xlink:href="#DejaVuSans-62"/>
     <use xlink:href="#DejaVuSans-62" x="63.476562"/>
     <use xlink:href="#DejaVuSans-6f" x="126.953125"/>
     <use xlink:href="#DejaVuSans-62" x="188.134766"/>
     <use xlink:href="#DejaVuSans-20" x="251.611328"/>
     <use xlink:href="#DejaVuSans-66" x="283.398438"/>
     <use xlink:href="#DejaVuSans-35" x="318.603516"/>
     <use xlink:href="#DejaVuSans-2c" x="382.226562"/>
     <use xlink:href="#DejaVuSans-20" x="414.013672"/>
     <use xlink:href="#DejaVuSans-35" x="445.800781"/>
     <use xlink:href="#DejaVuSans-2d" x="509.423828"/>
     <use xlink:href="#DejaVuSans-44" x="545.507812"/>
    </g>
    <!-- 51 targets: 100..1e-08 -->
    <g transform="translate(60.632064 49.533135)scale(0.102 -0.102)">
     <defs>
      <path id="DejaVuSans-3a" d="M 750 794 
L 1409 794 
L 1409 0 
L 750 0 
L 750 794 
z
M 750 3309 
L 1409 3309 
L 1409 2516 
L 750 2516 
L 750 3309 
z
" transform="scale(0.015625)"/>
     </defs>
     <use xlink:href="#DejaVuSans-35"/>
     <use xlink:href="#DejaVuSans-31" x="63.623047"/>
     <use xlink:href="#DejaVuSans-20" x="127.246094"/>
     <use xlink:href="#DejaVuSans-74" x="159.033203"/>
     <use xlink:href="#DejaVuSans-61" x="198.242188"/>
     <use xlink:href="#DejaVuSans-72" x="259.521484"/>
     <use xlink:href="#DejaVuSans-67" x="298.884766"/>
     <use xlink:href="#DejaVuSans-65" x="362.361328"/>
     <use xlink:href="#DejaVuSans-74" x="423.884766"/>
     <use xlink:href="#DejaVuSans-73" x="463.09375"/>
     <use xlink:href="#DejaVuSans-3a" x="515.193359"/>
     <use xlink:href="#DejaVuSans-20" x="548.884766"/>
     <use xlink:href="#DejaVuSans-31" x="580.671875"/>
     <use xlink:href="#DejaVuSans-30" x="644.294922"/>
     <use xlink:href="#DejaVuSans-30" x="707.917969"/>
     <use xlink:href="#DejaVuSans-2e" x="771.541016"/>
     <use xlink:href="#DejaVuSans-2e" x="803.328125"/>
     <use xlink:href="#DejaVuSans-31" x="835.115234"/>
     <use xlink:href="#DejaVuSans-65" x="898.738281"/>
     <use xlink:href="#DejaVuSans-2d" x="960.261719"/>
     <use xlink:href="#DejaVuSans-30" x="996.345703"/>
     <use xlink:href="#DejaVuSans-38" x="1059.96875"/>
    </g>
    <!-- 15 instances -->
    <g transform="translate(60.632064 60.954904)scale(0.102 -0.102)">
     <use xlink:href="#DejaVuSans-31"/>
     <use xlink:href="#DejaVuSans-35" x="63.623047"/>
     <use xlink:href="#DejaVuSans-20" x="127.246094"/>
     <use xlink:href="#DejaVuSans-69" x="159.033203"/>
     <use xlink:href="#DejaVuSans-6e" x="186.816406"/>
     <use xlink:href="#DejaVuSans-73" x="250.195312"/>
     <use xlink:href="#DejaVuSans-74" x="302.294922"/>
     <use xlink:href="#DejaVuSans-61" x="341.503906"/>
     <use xlink:href="#DejaVuSans-6e" x="402.783203"/>
     <use xlink:href="#DejaVuSans-63" x="466.162109"/>
     <use xlink:href="#DejaVuSans-65" x="521.142578"/>
     <use xlink:href="#DejaVuSans-73" x="582.666016"/>
    </g>
   </g>
   <g id="text_17">
    <!-- v2.6 -->
    <g style="fill: #808080" transform="translate(198.292262 294.151352)scale(0.1 -0.1)">
     <use xlink:href="#DejaVuSans-76"/>
     <use xlink:href="#DejaVuSans-32" x="59.179688"/>
     <use xlink:href="#DejaVuSans-2e" x="122.802734"/>
     <use xlink:href="#DejaVuSans-36" x="154.589844"/>
    </g>
   </g>
   <g id="text_18">
    <!-- 5 Linear slope -->
    <g transform="translate(138.79695 21.648)scale(0.2 -0.2)">
     <use xlink:href="#DejaVuSans-35"/>
     <use xlink:href="#DejaVuSans-20" x="63.623047"/>
     <use xlink:href="#DejaVuSans-4c" x="95.410156"/>
     <use xlink:href="#DejaVuSans-69" x="151.123047"/>
     <use xlink:href="#DejaVuSans-6e" x="178.90625"/>
     <use xlink:href="#DejaVuSans-65" x="242.285156"/>
     <use xlink:href="#DejaVuSans-61" x="303.808594"/>
     <use xlink:href="#DejaVuSans-72" x="365.087891"/>
     <use xlink:href="#DejaVuSans-20" x="406.201172"/>
     <use xlink:href="#DejaVuSans-73" x="437.988281"/>
     <use xlink:href="#DejaVuSans-6c" x="490.087891"/>
     <use xlink:href="#DejaVuSans-6f" x="517.871094"/>
     <use xlink:href="#DejaVuSans-70" x="579.052734"/>
     <use xlink:href="#DejaVuSans-65" x="642.529297"/>
    </g>
   </g>
  </g>
 </g>
 <defs>
  <clipPath id="pa06302f8d4">
   <rect x="57.6" y="27.648" width="303.2064" height="271.296"/>
  </clipPath>
 </defs>
</svg>
