<?xml version="1.0" encoding="utf-8" standalone="no"?>
<!DOCTYPE svg PUBLIC "-//W3C//DTD SVG 1.1//EN"
  "http://www.w3.org/Graphics/SVG/1.1/DTD/svg11.dtd">
<svg xmlns:xlink="http://www.w3.org/1999/xlink" width="460.8pt" height="345.6pt" viewBox="0 0 460.8 345.6" xmlns="http://www.w3.org/2000/svg" version="1.1">
 <metadata>
  <rdf:RDF xmlns:dc="http://purl.org/dc/elements/1.1/" xmlns:cc="http://creativecommons.org/ns#" xmlns:rdf="http://www.w3.org/1999/02/22-rdf-syntax-ns#">
   <cc:Work>
    <dc:type rdf:resource="http://purl.org/dc/dcmitype/StillImage"/>
    <dc:date>2024-05-29T07:59:53.167550</dc:date>
    <dc:format>image/svg+xml</dc:format>
    <dc:creator>
     <cc:Agent>
      <dc:title>Matplotlib v3.5.1, https://matplotlib.org/</dc:title>
     </cc:Agent>
    </dc:creator>
   </cc:Work>
  </rdf:RDF>
 </metadata>
 <defs>
  <style type="text/css">*{stroke-linejoin: round; stroke-linecap: butt}</style>
 </defs>
 <g id="figure_1">
  <g id="patch_1">
   <path d="M 0 345.6 
L 460.8 345.6 
L 460.8 0 
L 0 0 
z
" style="fill: #ffffff"/>
  </g>
  <g id="axes_1">
   <g id="patch_2">
    <path d="M 57.6 298.944 
L 360.8064 298.944 
L 360.8064 27.648 
L 57.6 27.648 
z
" style="fill: #ffffff"/>
   </g>
   <g id="line2d_1">
    <path d="M 27.323974 298.944 
L 27.323974 288.304941 
L 53.402323 288.304941 
L 53.402323 282.985412 
L 72.432107 282.985412 
L 72.432107 277.665882 
L 91.922605 277.665882 
L 91.922605 272.346353 
L 97.18203 272.346353 
L 97.18203 267.026824 
L 108.034177 267.026824 
L 108.034177 261.707294 
L 111.97238 261.707294 
L 111.97238 256.387765 
L 117.226706 256.387765 
L 117.226706 251.068235 
L 137.358854 251.068235 
L 137.358854 245.748706 
L 160.012872 245.748706 
L 160.012872 240.429176 
L 166.251633 240.429176 
L 166.251633 235.109647 
L 166.495114 235.109647 
L 166.495114 229.790118 
L 166.689935 229.790118 
L 166.689935 224.470588 
L 166.746854 224.470588 
L 166.746854 219.151059 
L 166.961587 219.151059 
L 166.961587 213.831529 
L 166.995269 213.831529 
L 166.995269 208.512 
L 167.028891 208.512 
L 167.028891 203.192471 
L 167.062453 203.192471 
L 167.062453 197.872941 
L 167.095955 197.872941 
L 167.095955 192.553412 
L 167.162782 192.553412 
L 167.162782 187.233882 
L 167.185004 187.233882 
L 167.185004 181.914353 
L 167.196106 181.914353 
L 167.196106 176.594824 
L 167.251516 176.594824 
L 167.251516 171.275294 
L 167.273634 171.275294 
L 167.273634 165.955765 
L 167.306762 165.955765 
L 167.306762 160.636235 
L 167.361848 160.636235 
L 167.361848 155.316706 
L 167.383837 155.316706 
L 167.383837 149.997176 
L 167.4058 149.997176 
L 167.4058 144.677647 
L 167.427738 144.677647 
L 167.427738 139.358118 
L 167.44965 139.358118 
L 167.44965 134.038588 
L 167.471536 134.038588 
L 167.471536 128.719059 
L 167.504319 128.719059 
L 167.504319 123.399529 
L 167.537044 123.399529 
L 167.537044 118.08 
L 167.569712 118.08 
L 167.569712 107.440941 
L 167.634879 107.440941 
L 167.634879 102.121412 
L 167.667378 102.121412 
L 167.667378 96.801882 
L 167.678199 96.801882 
L 167.678199 91.482353 
L 167.721419 91.482353 
L 167.721419 86.162824 
L 167.753769 86.162824 
L 167.753769 80.843294 
L 167.775305 80.843294 
L 167.775305 75.523765 
L 167.807563 75.523765 
L 167.807563 70.204235 
L 167.818303 70.204235 
L 167.818303 64.884706 
L 167.850487 64.884706 
L 167.850487 59.565176 
L 167.871912 59.565176 
L 167.871912 54.245647 
L 167.893313 54.245647 
L 167.893313 48.926118 
L 167.925369 48.926118 
L 167.925369 43.606588 
L 167.94671 43.606588 
L 167.94671 38.287059 
L 167.978675 38.287059 
L 167.978675 32.967529 
L 169.793854 32.967529 
L 169.793854 27.648 
L 360.8064 27.648 
" style="fill: none; stroke: #f5deb3; stroke-width: 4; stroke-linecap: square"/>
   </g>
   <g id="line2d_2">
    <defs>
     <path id="ma43f7e49a1" d="M 0 7.778175 
L 7.778175 0 
L 0 -7.778175 
L -7.778175 0 
z
" style="stroke: #f5deb3; stroke-width: 1.5; stroke-linejoin: miter"/>
    </defs>
    <g>
     <use xlink:href="#ma43f7e49a1" x="111.97238" y="256.387765" style="fill: #f5deb3; stroke: #f5deb3; stroke-width: 1.5; stroke-linejoin: miter"/>
     <use xlink:href="#ma43f7e49a1" x="167.383837" y="155.316706" style="fill: #f5deb3; stroke: #f5deb3; stroke-width: 1.5; stroke-linejoin: miter"/>
     <use xlink:href="#ma43f7e49a1" x="169.793854" y="32.967529" style="fill: #f5deb3; stroke: #f5deb3; stroke-width: 1.5; stroke-linejoin: miter"/>
     <use xlink:href="#ma43f7e49a1" x="169.793854" y="27.648" style="fill: #f5deb3; stroke: #f5deb3; stroke-width: 1.5; stroke-linejoin: miter"/>
     <use xlink:href="#ma43f7e49a1" x="169.793854" y="27.648" style="fill: #f5deb3; stroke: #f5deb3; stroke-width: 1.5; stroke-linejoin: miter"/>
     <use xlink:href="#ma43f7e49a1" x="360.8064" y="27.648" style="fill: #f5deb3; stroke: #f5deb3; stroke-width: 1.5; stroke-linejoin: miter"/>
    </g>
   </g>
   <g id="line2d_3">
    <path style="fill: none; stroke: #f5deb3; stroke-width: 4; stroke-linecap: square"/>
    <g/>
   </g>
   <g id="line2d_4">
    <path d="M 360.8064 27.648 
L 380.514816 33.07392 
" style="fill: none; stroke: #f5deb3; stroke-width: 4; stroke-linecap: square"/>
    <g>
     <use xlink:href="#ma43f7e49a1" x="360.8064" y="27.648" style="fill: #f5deb3; stroke: #f5deb3; stroke-width: 1.5; stroke-linejoin: miter"/>
     <use xlink:href="#ma43f7e49a1" x="380.514816" y="33.07392" style="fill: #f5deb3; stroke: #f5deb3; stroke-width: 1.5; stroke-linejoin: miter"/>
    </g>
   </g>
   <g id="matplotlib.axis_1">
    <g id="xtick_1">
     <g id="line2d_5">
      <path d="M 57.6 298.944 
L 57.6 27.648 
" clip-path="url(#p20ade39577)" style="fill: none; stroke: #b0b0b0; stroke-width: 0.8; stroke-linecap: square"/>
     </g>
     <g id="line2d_6">
      <defs>
       <path id="m2d3588fe1e" d="M 0 0 
L 0 3.5 
" style="stroke: #000000; stroke-width: 0.8"/>
      </defs>
      <g>
       <use xlink:href="#m2d3588fe1e" x="57.6" y="298.944" style="stroke: #000000; stroke-width: 0.8"/>
      </g>
     </g>
     <g id="text_1">
      <!-- 0 -->
      <g transform="translate(52.191875 318.861344)scale(0.17 -0.17)">
       <defs>
        <path id="DejaVuSans-30" d="M 2034 4250 
Q 1547 4250 1301 3770 
Q 1056 3291 1056 2328 
Q 1056 1369 1301 889 
Q 1547 409 2034 409 
Q 2525 409 2770 889 
Q 3016 1369 3016 2328 
Q 3016 3291 2770 3770 
Q 2525 4250 2034 4250 
z
M 2034 4750 
Q 2819 4750 3233 4129 
Q 3647 3509 3647 2328 
Q 3647 1150 3233 529 
Q 2819 -91 2034 -91 
Q 1250 -91 836 529 
Q 422 1150 422 2328 
Q 422 3509 836 4129 
Q 1250 4750 2034 4750 
z
" transform="scale(0.015625)"/>
       </defs>
       <use xlink:href="#DejaVuSans-30"/>
      </g>
     </g>
    </g>
    <g id="xtick_2">
     <g id="line2d_7">
      <path d="M 144.2304 298.944 
L 144.2304 27.648 
" clip-path="url(#p20ade39577)" style="fill: none; stroke: #b0b0b0; stroke-width: 0.8; stroke-linecap: square"/>
     </g>
     <g id="line2d_8">
      <g>
       <use xlink:href="#m2d3588fe1e" x="144.2304" y="298.944" style="stroke: #000000; stroke-width: 0.8"/>
      </g>
     </g>
     <g id="text_2">
      <!-- 2 -->
      <g transform="translate(138.822275 318.861344)scale(0.17 -0.17)">
       <defs>
        <path id="DejaVuSans-32" d="M 1228 531 
L 3431 531 
L 3431 0 
L 469 0 
L 469 531 
Q 828 903 1448 1529 
Q 2069 2156 2228 2338 
Q 2531 2678 2651 2914 
Q 2772 3150 2772 3378 
Q 2772 3750 2511 3984 
Q 2250 4219 1831 4219 
Q 1534 4219 1204 4116 
Q 875 4013 500 3803 
L 500 4441 
Q 881 4594 1212 4672 
Q 1544 4750 1819 4750 
Q 2544 4750 2975 4387 
Q 3406 4025 3406 3419 
Q 3406 3131 3298 2873 
Q 3191 2616 2906 2266 
Q 2828 2175 2409 1742 
Q 1991 1309 1228 531 
z
" transform="scale(0.015625)"/>
       </defs>
       <use xlink:href="#DejaVuSans-32"/>
      </g>
     </g>
    </g>
    <g id="xtick_3">
     <g id="line2d_9">
      <path d="M 230.8608 298.944 
L 230.8608 27.648 
" clip-path="url(#p20ade39577)" style="fill: none; stroke: #b0b0b0; stroke-width: 0.8; stroke-linecap: square"/>
     </g>
     <g id="line2d_10">
      <g>
       <use xlink:href="#m2d3588fe1e" x="230.8608" y="298.944" style="stroke: #000000; stroke-width: 0.8"/>
      </g>
     </g>
     <g id="text_3">
      <!-- 4 -->
      <g transform="translate(225.452675 318.861344)scale(0.17 -0.17)">
       <defs>
        <path id="DejaVuSans-34" d="M 2419 4116 
L 825 1625 
L 2419 1625 
L 2419 4116 
z
M 2253 4666 
L 3047 4666 
L 3047 1625 
L 3713 1625 
L 3713 1100 
L 3047 1100 
L 3047 0 
L 2419 0 
L 2419 1100 
L 313 1100 
L 313 1709 
L 2253 4666 
z
" transform="scale(0.015625)"/>
       </defs>
       <use xlink:href="#DejaVuSans-34"/>
      </g>
     </g>
    </g>
    <g id="xtick_4">
     <g id="line2d_11">
      <path d="M 317.4912 298.944 
L 317.4912 27.648 
" clip-path="url(#p20ade39577)" style="fill: none; stroke: #b0b0b0; stroke-width: 0.8; stroke-linecap: square"/>
     </g>
     <g id="line2d_12">
      <g>
       <use xlink:href="#m2d3588fe1e" x="317.4912" y="298.944" style="stroke: #000000; stroke-width: 0.8"/>
      </g>
     </g>
     <g id="text_4">
      <!-- 6 -->
      <g transform="translate(312.083075 318.861344)scale(0.17 -0.17)">
       <defs>
        <path id="DejaVuSans-36" d="M 2113 2584 
Q 1688 2584 1439 2293 
Q 1191 2003 1191 1497 
Q 1191 994 1439 701 
Q 1688 409 2113 409 
Q 2538 409 2786 701 
Q 3034 994 3034 1497 
Q 3034 2003 2786 2293 
Q 2538 2584 2113 2584 
z
M 3366 4563 
L 3366 3988 
Q 3128 4100 2886 4159 
Q 2644 4219 2406 4219 
Q 1781 4219 1451 3797 
Q 1122 3375 1075 2522 
Q 1259 2794 1537 2939 
Q 1816 3084 2150 3084 
Q 2853 3084 3261 2657 
Q 3669 2231 3669 1497 
Q 3669 778 3244 343 
Q 2819 -91 2113 -91 
Q 1303 -91 875 529 
Q 447 1150 447 2328 
Q 447 3434 972 4092 
Q 1497 4750 2381 4750 
Q 2619 4750 2861 4703 
Q 3103 4656 3366 4563 
z
" transform="scale(0.015625)"/>
       </defs>
       <use xlink:href="#DejaVuSans-36"/>
      </g>
     </g>
    </g>
    <g id="xtick_5">
     <g id="line2d_13">
      <path d="M 100.9152 298.944 
L 100.9152 27.648 
" clip-path="url(#p20ade39577)" style="fill: none; stroke: #b0b0b0; stroke-width: 0.8; stroke-linecap: square"/>
     </g>
     <g id="line2d_14">
      <defs>
       <path id="m50491f384b" d="M 0 0 
L 0 2 
" style="stroke: #000000; stroke-width: 0.6"/>
      </defs>
      <g>
       <use xlink:href="#m50491f384b" x="100.9152" y="298.944" style="stroke: #000000; stroke-width: 0.6"/>
      </g>
     </g>
    </g>
    <g id="xtick_6">
     <g id="line2d_15">
      <path d="M 187.5456 298.944 
L 187.5456 27.648 
" clip-path="url(#p20ade39577)" style="fill: none; stroke: #b0b0b0; stroke-width: 0.8; stroke-linecap: square"/>
     </g>
     <g id="line2d_16">
      <g>
       <use xlink:href="#m50491f384b" x="187.5456" y="298.944" style="stroke: #000000; stroke-width: 0.6"/>
      </g>
     </g>
    </g>
    <g id="xtick_7">
     <g id="line2d_17">
      <path d="M 274.176 298.944 
L 274.176 27.648 
" clip-path="url(#p20ade39577)" style="fill: none; stroke: #b0b0b0; stroke-width: 0.8; stroke-linecap: square"/>
     </g>
     <g id="line2d_18">
      <g>
       <use xlink:href="#m50491f384b" x="274.176" y="298.944" style="stroke: #000000; stroke-width: 0.6"/>
      </g>
     </g>
    </g>
    <g id="xtick_8">
     <g id="line2d_19">
      <path d="M 360.8064 298.944 
L 360.8064 27.648 
" clip-path="url(#p20ade39577)" style="fill: none; stroke: #b0b0b0; stroke-width: 0.8; stroke-linecap: square"/>
     </g>
     <g id="line2d_20">
      <g>
       <use xlink:href="#m50491f384b" x="360.8064" y="298.944" style="stroke: #000000; stroke-width: 0.6"/>
      </g>
     </g>
    </g>
    <g id="text_5">
     <!-- log10(# f-evals / dimension) -->
     <g transform="translate(88.823278 339.314156)scale(0.17 -0.17)">
      <defs>
       <path id="DejaVuSans-6c" d="M 603 4863 
L 1178 4863 
L 1178 0 
L 603 0 
L 603 4863 
z
" transform="scale(0.015625)"/>
       <path id="DejaVuSans-6f" d="M 1959 3097 
Q 1497 3097 1228 2736 
Q 959 2375 959 1747 
Q 959 1119 1226 758 
Q 1494 397 1959 397 
Q 2419 397 2687 759 
Q 2956 1122 2956 1747 
Q 2956 2369 2687 2733 
Q 2419 3097 1959 3097 
z
M 1959 3584 
Q 2709 3584 3137 3096 
Q 3566 2609 3566 1747 
Q 3566 888 3137 398 
Q 2709 -91 1959 -91 
Q 1206 -91 779 398 
Q 353 888 353 1747 
Q 353 2609 779 3096 
Q 1206 3584 1959 3584 
z
" transform="scale(0.015625)"/>
       <path id="DejaVuSans-67" d="M 2906 1791 
Q 2906 2416 2648 2759 
Q 2391 3103 1925 3103 
Q 1463 3103 1205 2759 
Q 947 2416 947 1791 
Q 947 1169 1205 825 
Q 1463 481 1925 481 
Q 2391 481 2648 825 
Q 2906 1169 2906 1791 
z
M 3481 434 
Q 3481 -459 3084 -895 
Q 2688 -1331 1869 -1331 
Q 1566 -1331 1297 -1286 
Q 1028 -1241 775 -1147 
L 775 -588 
Q 1028 -725 1275 -790 
Q 1522 -856 1778 -856 
Q 2344 -856 2625 -561 
Q 2906 -266 2906 331 
L 2906 616 
Q 2728 306 2450 153 
Q 2172 0 1784 0 
Q 1141 0 747 490 
Q 353 981 353 1791 
Q 353 2603 747 3093 
Q 1141 3584 1784 3584 
Q 2172 3584 2450 3431 
Q 2728 3278 2906 2969 
L 2906 3500 
L 3481 3500 
L 3481 434 
z
" transform="scale(0.015625)"/>
       <path id="DejaVuSans-31" d="M 794 531 
L 1825 531 
L 1825 4091 
L 703 3866 
L 703 4441 
L 1819 4666 
L 2450 4666 
L 2450 531 
L 3481 531 
L 3481 0 
L 794 0 
L 794 531 
z
" transform="scale(0.015625)"/>
       <path id="DejaVuSans-28" d="M 1984 4856 
Q 1566 4138 1362 3434 
Q 1159 2731 1159 2009 
Q 1159 1288 1364 580 
Q 1569 -128 1984 -844 
L 1484 -844 
Q 1016 -109 783 600 
Q 550 1309 550 2009 
Q 550 2706 781 3412 
Q 1013 4119 1484 4856 
L 1984 4856 
z
" transform="scale(0.015625)"/>
       <path id="DejaVuSans-23" d="M 3272 2816 
L 2363 2816 
L 2100 1772 
L 3016 1772 
L 3272 2816 
z
M 2803 4594 
L 2478 3297 
L 3391 3297 
L 3719 4594 
L 4219 4594 
L 3897 3297 
L 4872 3297 
L 4872 2816 
L 3775 2816 
L 3519 1772 
L 4513 1772 
L 4513 1294 
L 3397 1294 
L 3072 0 
L 2572 0 
L 2894 1294 
L 1978 1294 
L 1656 0 
L 1153 0 
L 1478 1294 
L 494 1294 
L 494 1772 
L 1594 1772 
L 1856 2816 
L 850 2816 
L 850 3297 
L 1978 3297 
L 2297 4594 
L 2803 4594 
z
" transform="scale(0.015625)"/>
       <path id="DejaVuSans-20" transform="scale(0.015625)"/>
       <path id="DejaVuSans-66" d="M 2375 4863 
L 2375 4384 
L 1825 4384 
Q 1516 4384 1395 4259 
Q 1275 4134 1275 3809 
L 1275 3500 
L 2222 3500 
L 2222 3053 
L 1275 3053 
L 1275 0 
L 697 0 
L 697 3053 
L 147 3053 
L 147 3500 
L 697 3500 
L 697 3744 
Q 697 4328 969 4595 
Q 1241 4863 1831 4863 
L 2375 4863 
z
" transform="scale(0.015625)"/>
       <path id="DejaVuSans-2d" d="M 313 2009 
L 1997 2009 
L 1997 1497 
L 313 1497 
L 313 2009 
z
" transform="scale(0.015625)"/>
       <path id="DejaVuSans-65" d="M 3597 1894 
L 3597 1613 
L 953 1613 
Q 991 1019 1311 708 
Q 1631 397 2203 397 
Q 2534 397 2845 478 
Q 3156 559 3463 722 
L 3463 178 
Q 3153 47 2828 -22 
Q 2503 -91 2169 -91 
Q 1331 -91 842 396 
Q 353 884 353 1716 
Q 353 2575 817 3079 
Q 1281 3584 2069 3584 
Q 2775 3584 3186 3129 
Q 3597 2675 3597 1894 
z
M 3022 2063 
Q 3016 2534 2758 2815 
Q 2500 3097 2075 3097 
Q 1594 3097 1305 2825 
Q 1016 2553 972 2059 
L 3022 2063 
z
" transform="scale(0.015625)"/>
       <path id="DejaVuSans-76" d="M 191 3500 
L 800 3500 
L 1894 563 
L 2988 3500 
L 3597 3500 
L 2284 0 
L 1503 0 
L 191 3500 
z
" transform="scale(0.015625)"/>
       <path id="DejaVuSans-61" d="M 2194 1759 
Q 1497 1759 1228 1600 
Q 959 1441 959 1056 
Q 959 750 1161 570 
Q 1363 391 1709 391 
Q 2188 391 2477 730 
Q 2766 1069 2766 1631 
L 2766 1759 
L 2194 1759 
z
M 3341 1997 
L 3341 0 
L 2766 0 
L 2766 531 
Q 2569 213 2275 61 
Q 1981 -91 1556 -91 
Q 1019 -91 701 211 
Q 384 513 384 1019 
Q 384 1609 779 1909 
Q 1175 2209 1959 2209 
L 2766 2209 
L 2766 2266 
Q 2766 2663 2505 2880 
Q 2244 3097 1772 3097 
Q 1472 3097 1187 3025 
Q 903 2953 641 2809 
L 641 3341 
Q 956 3463 1253 3523 
Q 1550 3584 1831 3584 
Q 2591 3584 2966 3190 
Q 3341 2797 3341 1997 
z
" transform="scale(0.015625)"/>
       <path id="DejaVuSans-73" d="M 2834 3397 
L 2834 2853 
Q 2591 2978 2328 3040 
Q 2066 3103 1784 3103 
Q 1356 3103 1142 2972 
Q 928 2841 928 2578 
Q 928 2378 1081 2264 
Q 1234 2150 1697 2047 
L 1894 2003 
Q 2506 1872 2764 1633 
Q 3022 1394 3022 966 
Q 3022 478 2636 193 
Q 2250 -91 1575 -91 
Q 1294 -91 989 -36 
Q 684 19 347 128 
L 347 722 
Q 666 556 975 473 
Q 1284 391 1588 391 
Q 1994 391 2212 530 
Q 2431 669 2431 922 
Q 2431 1156 2273 1281 
Q 2116 1406 1581 1522 
L 1381 1569 
Q 847 1681 609 1914 
Q 372 2147 372 2553 
Q 372 3047 722 3315 
Q 1072 3584 1716 3584 
Q 2034 3584 2315 3537 
Q 2597 3491 2834 3397 
z
" transform="scale(0.015625)"/>
       <path id="DejaVuSans-2f" d="M 1625 4666 
L 2156 4666 
L 531 -594 
L 0 -594 
L 1625 4666 
z
" transform="scale(0.015625)"/>
       <path id="DejaVuSans-64" d="M 2906 2969 
L 2906 4863 
L 3481 4863 
L 3481 0 
L 2906 0 
L 2906 525 
Q 2725 213 2448 61 
Q 2172 -91 1784 -91 
Q 1150 -91 751 415 
Q 353 922 353 1747 
Q 353 2572 751 3078 
Q 1150 3584 1784 3584 
Q 2172 3584 2448 3432 
Q 2725 3281 2906 2969 
z
M 947 1747 
Q 947 1113 1208 752 
Q 1469 391 1925 391 
Q 2381 391 2643 752 
Q 2906 1113 2906 1747 
Q 2906 2381 2643 2742 
Q 2381 3103 1925 3103 
Q 1469 3103 1208 2742 
Q 947 2381 947 1747 
z
" transform="scale(0.015625)"/>
       <path id="DejaVuSans-69" d="M 603 3500 
L 1178 3500 
L 1178 0 
L 603 0 
L 603 3500 
z
M 603 4863 
L 1178 4863 
L 1178 4134 
L 603 4134 
L 603 4863 
z
" transform="scale(0.015625)"/>
       <path id="DejaVuSans-6d" d="M 3328 2828 
Q 3544 3216 3844 3400 
Q 4144 3584 4550 3584 
Q 5097 3584 5394 3201 
Q 5691 2819 5691 2113 
L 5691 0 
L 5113 0 
L 5113 2094 
Q 5113 2597 4934 2840 
Q 4756 3084 4391 3084 
Q 3944 3084 3684 2787 
Q 3425 2491 3425 1978 
L 3425 0 
L 2847 0 
L 2847 2094 
Q 2847 2600 2669 2842 
Q 2491 3084 2119 3084 
Q 1678 3084 1418 2786 
Q 1159 2488 1159 1978 
L 1159 0 
L 581 0 
L 581 3500 
L 1159 3500 
L 1159 2956 
Q 1356 3278 1631 3431 
Q 1906 3584 2284 3584 
Q 2666 3584 2933 3390 
Q 3200 3197 3328 2828 
z
" transform="scale(0.015625)"/>
       <path id="DejaVuSans-6e" d="M 3513 2113 
L 3513 0 
L 2938 0 
L 2938 2094 
Q 2938 2591 2744 2837 
Q 2550 3084 2163 3084 
Q 1697 3084 1428 2787 
Q 1159 2491 1159 1978 
L 1159 0 
L 581 0 
L 581 3500 
L 1159 3500 
L 1159 2956 
Q 1366 3272 1645 3428 
Q 1925 3584 2291 3584 
Q 2894 3584 3203 3211 
Q 3513 2838 3513 2113 
z
" transform="scale(0.015625)"/>
       <path id="DejaVuSans-29" d="M 513 4856 
L 1013 4856 
Q 1481 4119 1714 3412 
Q 1947 2706 1947 2009 
Q 1947 1309 1714 600 
Q 1481 -109 1013 -844 
L 513 -844 
Q 928 -128 1133 580 
Q 1338 1288 1338 2009 
Q 1338 2731 1133 3434 
Q 928 4138 513 4856 
z
" transform="scale(0.015625)"/>
      </defs>
      <use xlink:href="#DejaVuSans-6c"/>
      <use xlink:href="#DejaVuSans-6f" x="27.783203"/>
      <use xlink:href="#DejaVuSans-67" x="88.964844"/>
      <use xlink:href="#DejaVuSans-31" x="152.441406"/>
      <use xlink:href="#DejaVuSans-30" x="216.064453"/>
      <use xlink:href="#DejaVuSans-28" x="279.6875"/>
      <use xlink:href="#DejaVuSans-23" x="318.701172"/>
      <use xlink:href="#DejaVuSans-20" x="402.490234"/>
      <use xlink:href="#DejaVuSans-66" x="434.277344"/>
      <use xlink:href="#DejaVuSans-2d" x="463.982422"/>
      <use xlink:href="#DejaVuSans-65" x="500.066406"/>
      <use xlink:href="#DejaVuSans-76" x="561.589844"/>
      <use xlink:href="#DejaVuSans-61" x="620.769531"/>
      <use xlink:href="#DejaVuSans-6c" x="682.048828"/>
      <use xlink:href="#DejaVuSans-73" x="709.832031"/>
      <use xlink:href="#DejaVuSans-20" x="761.931641"/>
      <use xlink:href="#DejaVuSans-2f" x="793.71875"/>
      <use xlink:href="#DejaVuSans-20" x="827.410156"/>
      <use xlink:href="#DejaVuSans-64" x="859.197266"/>
      <use xlink:href="#DejaVuSans-69" x="922.673828"/>
      <use xlink:href="#DejaVuSans-6d" x="950.457031"/>
      <use xlink:href="#DejaVuSans-65" x="1047.869141"/>
      <use xlink:href="#DejaVuSans-6e" x="1109.392578"/>
      <use xlink:href="#DejaVuSans-73" x="1172.771484"/>
      <use xlink:href="#DejaVuSans-69" x="1224.871094"/>
      <use xlink:href="#DejaVuSans-6f" x="1252.654297"/>
      <use xlink:href="#DejaVuSans-6e" x="1313.835938"/>
      <use xlink:href="#DejaVuSans-29" x="1377.214844"/>
     </g>
    </g>
   </g>
   <g id="matplotlib.axis_2">
    <g id="ytick_1">
     <g id="line2d_21">
      <path d="M 57.6 298.944 
L 360.8064 298.944 
" clip-path="url(#p20ade39577)" style="fill: none; stroke: #b0b0b0; stroke-width: 0.8; stroke-linecap: square"/>
     </g>
     <g id="line2d_22">
      <defs>
       <path id="m76f3c800c2" d="M 0 0 
L -3.5 0 
" style="stroke: #000000; stroke-width: 0.8"/>
      </defs>
      <g>
       <use xlink:href="#m76f3c800c2" x="57.6" y="298.944" style="stroke: #000000; stroke-width: 0.8"/>
      </g>
     </g>
     <g id="text_6">
      <!-- 0.0 -->
      <g transform="translate(25.155 305.02275)scale(0.16 -0.16)">
       <defs>
        <path id="DejaVuSans-2e" d="M 684 794 
L 1344 794 
L 1344 0 
L 684 0 
L 684 794 
z
" transform="scale(0.015625)"/>
       </defs>
       <use xlink:href="#DejaVuSans-30"/>
       <use xlink:href="#DejaVuSans-2e" x="63.623047"/>
       <use xlink:href="#DejaVuSans-30" x="95.410156"/>
      </g>
     </g>
    </g>
    <g id="ytick_2">
     <g id="line2d_23">
      <path d="M 57.6 244.6848 
L 360.8064 244.6848 
" clip-path="url(#p20ade39577)" style="fill: none; stroke: #b0b0b0; stroke-width: 0.8; stroke-linecap: square"/>
     </g>
     <g id="line2d_24">
      <g>
       <use xlink:href="#m76f3c800c2" x="57.6" y="244.6848" style="stroke: #000000; stroke-width: 0.8"/>
      </g>
     </g>
     <g id="text_7">
      <!-- 0.2 -->
      <g transform="translate(25.155 250.76355)scale(0.16 -0.16)">
       <use xlink:href="#DejaVuSans-30"/>
       <use xlink:href="#DejaVuSans-2e" x="63.623047"/>
       <use xlink:href="#DejaVuSans-32" x="95.410156"/>
      </g>
     </g>
    </g>
    <g id="ytick_3">
     <g id="line2d_25">
      <path d="M 57.6 190.4256 
L 360.8064 190.4256 
" clip-path="url(#p20ade39577)" style="fill: none; stroke: #b0b0b0; stroke-width: 0.8; stroke-linecap: square"/>
     </g>
     <g id="line2d_26">
      <g>
       <use xlink:href="#m76f3c800c2" x="57.6" y="190.4256" style="stroke: #000000; stroke-width: 0.8"/>
      </g>
     </g>
     <g id="text_8">
      <!-- 0.4 -->
      <g transform="translate(25.155 196.50435)scale(0.16 -0.16)">
       <use xlink:href="#DejaVuSans-30"/>
       <use xlink:href="#DejaVuSans-2e" x="63.623047"/>
       <use xlink:href="#DejaVuSans-34" x="95.410156"/>
      </g>
     </g>
    </g>
    <g id="ytick_4">
     <g id="line2d_27">
      <path d="M 57.6 136.1664 
L 360.8064 136.1664 
" clip-path="url(#p20ade39577)" style="fill: none; stroke: #b0b0b0; stroke-width: 0.8; stroke-linecap: square"/>
     </g>
     <g id="line2d_28">
      <g>
       <use xlink:href="#m76f3c800c2" x="57.6" y="136.1664" style="stroke: #000000; stroke-width: 0.8"/>
      </g>
     </g>
     <g id="text_9">
      <!-- 0.6 -->
      <g transform="translate(25.155 142.24515)scale(0.16 -0.16)">
       <use xlink:href="#DejaVuSans-30"/>
       <use xlink:href="#DejaVuSans-2e" x="63.623047"/>
       <use xlink:href="#DejaVuSans-36" x="95.410156"/>
      </g>
     </g>
    </g>
    <g id="ytick_5">
     <g id="line2d_29">
      <path d="M 57.6 81.9072 
L 360.8064 81.9072 
" clip-path="url(#p20ade39577)" style="fill: none; stroke: #b0b0b0; stroke-width: 0.8; stroke-linecap: square"/>
     </g>
     <g id="line2d_30">
      <g>
       <use xlink:href="#m76f3c800c2" x="57.6" y="81.9072" style="stroke: #000000; stroke-width: 0.8"/>
      </g>
     </g>
     <g id="text_10">
      <!-- 0.8 -->
      <g transform="translate(25.155 87.98595)scale(0.16 -0.16)">
       <defs>
        <path id="DejaVuSans-38" d="M 2034 2216 
Q 1584 2216 1326 1975 
Q 1069 1734 1069 1313 
Q 1069 891 1326 650 
Q 1584 409 2034 409 
Q 2484 409 2743 651 
Q 3003 894 3003 1313 
Q 3003 1734 2745 1975 
Q 2488 2216 2034 2216 
z
M 1403 2484 
Q 997 2584 770 2862 
Q 544 3141 544 3541 
Q 544 4100 942 4425 
Q 1341 4750 2034 4750 
Q 2731 4750 3128 4425 
Q 3525 4100 3525 3541 
Q 3525 3141 3298 2862 
Q 3072 2584 2669 2484 
Q 3125 2378 3379 2068 
Q 3634 1759 3634 1313 
Q 3634 634 3220 271 
Q 2806 -91 2034 -91 
Q 1263 -91 848 271 
Q 434 634 434 1313 
Q 434 1759 690 2068 
Q 947 2378 1403 2484 
z
M 1172 3481 
Q 1172 3119 1398 2916 
Q 1625 2713 2034 2713 
Q 2441 2713 2670 2916 
Q 2900 3119 2900 3481 
Q 2900 3844 2670 4047 
Q 2441 4250 2034 4250 
Q 1625 4250 1398 4047 
Q 1172 3844 1172 3481 
z
" transform="scale(0.015625)"/>
       </defs>
       <use xlink:href="#DejaVuSans-30"/>
       <use xlink:href="#DejaVuSans-2e" x="63.623047"/>
       <use xlink:href="#DejaVuSans-38" x="95.410156"/>
      </g>
     </g>
    </g>
    <g id="ytick_6">
     <g id="line2d_31">
      <path d="M 57.6 27.648 
L 360.8064 27.648 
" clip-path="url(#p20ade39577)" style="fill: none; stroke: #b0b0b0; stroke-width: 0.8; stroke-linecap: square"/>
     </g>
     <g id="line2d_32">
      <g>
       <use xlink:href="#m76f3c800c2" x="57.6" y="27.648" style="stroke: #000000; stroke-width: 0.8"/>
      </g>
     </g>
     <g id="text_11">
      <!-- 1.0 -->
      <g transform="translate(25.155 33.72675)scale(0.16 -0.16)">
       <use xlink:href="#DejaVuSans-31"/>
       <use xlink:href="#DejaVuSans-2e" x="63.623047"/>
       <use xlink:href="#DejaVuSans-30" x="95.410156"/>
      </g>
     </g>
    </g>
    <g id="text_12">
     <!-- Fraction of function,target pairs -->
     <g transform="translate(17.619531 297.681)rotate(-90)scale(0.17 -0.17)">
      <defs>
       <path id="DejaVuSans-46" d="M 628 4666 
L 3309 4666 
L 3309 4134 
L 1259 4134 
L 1259 2759 
L 3109 2759 
L 3109 2228 
L 1259 2228 
L 1259 0 
L 628 0 
L 628 4666 
z
" transform="scale(0.015625)"/>
       <path id="DejaVuSans-72" d="M 2631 2963 
Q 2534 3019 2420 3045 
Q 2306 3072 2169 3072 
Q 1681 3072 1420 2755 
Q 1159 2438 1159 1844 
L 1159 0 
L 581 0 
L 581 3500 
L 1159 3500 
L 1159 2956 
Q 1341 3275 1631 3429 
Q 1922 3584 2338 3584 
Q 2397 3584 2469 3576 
Q 2541 3569 2628 3553 
L 2631 2963 
z
" transform="scale(0.015625)"/>
       <path id="DejaVuSans-63" d="M 3122 3366 
L 3122 2828 
Q 2878 2963 2633 3030 
Q 2388 3097 2138 3097 
Q 1578 3097 1268 2742 
Q 959 2388 959 1747 
Q 959 1106 1268 751 
Q 1578 397 2138 397 
Q 2388 397 2633 464 
Q 2878 531 3122 666 
L 3122 134 
Q 2881 22 2623 -34 
Q 2366 -91 2075 -91 
Q 1284 -91 818 406 
Q 353 903 353 1747 
Q 353 2603 823 3093 
Q 1294 3584 2113 3584 
Q 2378 3584 2631 3529 
Q 2884 3475 3122 3366 
z
" transform="scale(0.015625)"/>
       <path id="DejaVuSans-74" d="M 1172 4494 
L 1172 3500 
L 2356 3500 
L 2356 3053 
L 1172 3053 
L 1172 1153 
Q 1172 725 1289 603 
Q 1406 481 1766 481 
L 2356 481 
L 2356 0 
L 1766 0 
Q 1100 0 847 248 
Q 594 497 594 1153 
L 594 3053 
L 172 3053 
L 172 3500 
L 594 3500 
L 594 4494 
L 1172 4494 
z
" transform="scale(0.015625)"/>
       <path id="DejaVuSans-75" d="M 544 1381 
L 544 3500 
L 1119 3500 
L 1119 1403 
Q 1119 906 1312 657 
Q 1506 409 1894 409 
Q 2359 409 2629 706 
Q 2900 1003 2900 1516 
L 2900 3500 
L 3475 3500 
L 3475 0 
L 2900 0 
L 2900 538 
Q 2691 219 2414 64 
Q 2138 -91 1772 -91 
Q 1169 -91 856 284 
Q 544 659 544 1381 
z
M 1991 3584 
L 1991 3584 
z
" transform="scale(0.015625)"/>
       <path id="DejaVuSans-2c" d="M 750 794 
L 1409 794 
L 1409 256 
L 897 -744 
L 494 -744 
L 750 256 
L 750 794 
z
" transform="scale(0.015625)"/>
       <path id="DejaVuSans-70" d="M 1159 525 
L 1159 -1331 
L 581 -1331 
L 581 3500 
L 1159 3500 
L 1159 2969 
Q 1341 3281 1617 3432 
Q 1894 3584 2278 3584 
Q 2916 3584 3314 3078 
Q 3713 2572 3713 1747 
Q 3713 922 3314 415 
Q 2916 -91 2278 -91 
Q 1894 -91 1617 61 
Q 1341 213 1159 525 
z
M 3116 1747 
Q 3116 2381 2855 2742 
Q 2594 3103 2138 3103 
Q 1681 3103 1420 2742 
Q 1159 2381 1159 1747 
Q 1159 1113 1420 752 
Q 1681 391 2138 391 
Q 2594 391 2855 752 
Q 3116 1113 3116 1747 
z
" transform="scale(0.015625)"/>
      </defs>
      <use xlink:href="#DejaVuSans-46"/>
      <use xlink:href="#DejaVuSans-72" x="50.269531"/>
      <use xlink:href="#DejaVuSans-61" x="91.382812"/>
      <use xlink:href="#DejaVuSans-63" x="152.662109"/>
      <use xlink:href="#DejaVuSans-74" x="207.642578"/>
      <use xlink:href="#DejaVuSans-69" x="246.851562"/>
      <use xlink:href="#DejaVuSans-6f" x="274.634766"/>
      <use xlink:href="#DejaVuSans-6e" x="335.816406"/>
      <use xlink:href="#DejaVuSans-20" x="399.195312"/>
      <use xlink:href="#DejaVuSans-6f" x="430.982422"/>
      <use xlink:href="#DejaVuSans-66" x="492.164062"/>
      <use xlink:href="#DejaVuSans-20" x="527.369141"/>
      <use xlink:href="#DejaVuSans-66" x="559.15625"/>
      <use xlink:href="#DejaVuSans-75" x="594.361328"/>
      <use xlink:href="#DejaVuSans-6e" x="657.740234"/>
      <use xlink:href="#DejaVuSans-63" x="721.119141"/>
      <use xlink:href="#DejaVuSans-74" x="776.099609"/>
      <use xlink:href="#DejaVuSans-69" x="815.308594"/>
      <use xlink:href="#DejaVuSans-6f" x="843.091797"/>
      <use xlink:href="#DejaVuSans-6e" x="904.273438"/>
      <use xlink:href="#DejaVuSans-2c" x="967.652344"/>
      <use xlink:href="#DejaVuSans-74" x="999.439453"/>
      <use xlink:href="#DejaVuSans-61" x="1038.648438"/>
      <use xlink:href="#DejaVuSans-72" x="1099.927734"/>
      <use xlink:href="#DejaVuSans-67" x="1139.291016"/>
      <use xlink:href="#DejaVuSans-65" x="1202.767578"/>
      <use xlink:href="#DejaVuSans-74" x="1264.291016"/>
      <use xlink:href="#DejaVuSans-20" x="1303.5"/>
      <use xlink:href="#DejaVuSans-70" x="1335.287109"/>
      <use xlink:href="#DejaVuSans-61" x="1398.763672"/>
      <use xlink:href="#DejaVuSans-69" x="1460.042969"/>
      <use xlink:href="#DejaVuSans-72" x="1487.826172"/>
      <use xlink:href="#DejaVuSans-73" x="1528.939453"/>
     </g>
    </g>
   </g>
   <g id="line2d_33">
    <defs>
     <path id="mc71f3788bf" d="M 0 1.5 
C 0.397805 1.5 0.77937 1.341951 1.06066 1.06066 
C 1.341951 0.77937 1.5 0.397805 1.5 0 
C 1.5 -0.397805 1.341951 -0.77937 1.06066 -1.06066 
C 0.77937 -1.341951 0.397805 -1.5 0 -1.5 
C -0.397805 -1.5 -0.77937 -1.341951 -1.06066 -1.06066 
C -1.341951 -0.77937 -1.5 -0.397805 -1.5 0 
C -1.5 0.397805 -1.341951 0.77937 -1.06066 1.06066 
C -0.77937 1.341951 -0.397805 1.5 0 1.5 
z
" style="stroke: #f5deb3"/>
    </defs>
    <g>
     <use xlink:href="#mc71f3788bf" x="169.793854" y="27.648" style="fill: #f5deb3; stroke: #f5deb3"/>
     <use xlink:href="#mc71f3788bf" x="169.793854" y="27.648" style="fill: #f5deb3; stroke: #f5deb3"/>
    </g>
   </g>
   <g id="line2d_34">
    <defs>
     <path id="m7824d33880" d="M 0 1.5 
C 0.397805 1.5 0.77937 1.341951 1.06066 1.06066 
C 1.341951 0.77937 1.5 0.397805 1.5 0 
C 1.5 -0.397805 1.341951 -0.77937 1.06066 -1.06066 
C 0.77937 -1.341951 0.397805 -1.5 0 -1.5 
C -0.397805 -1.5 -0.77937 -1.341951 -1.06066 -1.06066 
C -1.341951 -0.77937 -1.5 -0.397805 -1.5 0 
C -1.5 0.397805 -1.341951 0.77937 -1.06066 1.06066 
C -0.77937 1.341951 -0.397805 1.5 0 1.5 
z
" style="stroke: #000080"/>
    </defs>
    <g>
     <use xlink:href="#m7824d33880" x="308.124033" y="27.648" style="fill: #000080; stroke: #000080"/>
     <use xlink:href="#m7824d33880" x="308.124033" y="27.648" style="fill: #000080; stroke: #000080"/>
    </g>
   </g>
   <g id="line2d_35">
    <path d="M 27.323974 298.944 
L 27.323974 289.723482 
L 40.363149 289.723482 
L 40.363149 289.014212 
L 47.990577 289.014212 
L 47.990577 287.950306 
L 53.402323 287.950306 
L 53.402323 286.177129 
L 57.6 286.177129 
L 57.6 284.758588 
L 61.029752 284.758588 
L 61.029752 284.403953 
L 63.929565 284.403953 
L 63.929565 284.049318 
L 68.65718 284.049318 
L 68.65718 283.340047 
L 75.574654 283.340047 
L 75.574654 282.276141 
L 76.96874 282.276141 
L 76.96874 281.212235 
L 78.266603 281.212235 
L 78.266603 280.502965 
L 80.621116 280.502965 
L 80.621116 279.793694 
L 85.471281 279.793694 
L 85.471281 279.439059 
L 86.307488 279.439059 
L 86.307488 279.084424 
L 87.1081 279.084424 
L 87.1081 278.729788 
L 87.876026 278.729788 
L 87.876026 278.375153 
L 88.613828 278.375153 
L 88.613828 277.665882 
L 90.007914 277.665882 
L 90.007914 277.311247 
L 90.668036 277.311247 
L 90.668036 276.956612 
L 91.922605 276.956612 
L 91.922605 276.247341 
L 93.66029 276.247341 
L 93.66029 275.183435 
L 94.735529 275.183435 
L 94.735529 274.474165 
L 95.752617 274.474165 
L 95.752617 274.119529 
L 96.717523 274.119529 
L 96.717523 273.764894 
L 98.933205 273.764894 
L 98.933205 273.410259 
L 99.346662 273.410259 
L 99.346662 272.700988 
L 100.535156 272.700988 
L 100.535156 271.991718 
L 102.708132 271.991718 
L 102.708132 271.637082 
L 104.961779 271.637082 
L 104.961779 271.282447 
L 105.559021 271.282447 
L 105.559021 270.927812 
L 109.280431 270.927812 
L 109.280431 270.573176 
L 113.381389 270.573176 
L 113.381389 270.218541 
L 113.954374 270.218541 
L 113.954374 269.154635 
L 115.227139 269.154635 
L 115.227139 267.381459 
L 117.067958 267.381459 
L 117.067958 267.026824 
L 119.599808 267.026824 
L 119.599808 266.672188 
L 130.107132 266.672188 
L 130.107132 265.253647 
L 133.120474 265.253647 
L 133.120474 264.899012 
L 143.888708 264.899012 
L 143.888708 264.189741 
L 144.602918 264.189741 
L 144.602918 263.835106 
L 145.004344 263.835106 
L 145.004344 263.480471 
L 146.957431 263.480471 
L 146.957431 262.7712 
L 147.565858 262.7712 
L 147.597342 259.579482 
L 147.878349 259.579482 
L 147.878349 258.515576 
L 148.063382 258.515576 
L 148.063382 258.160941 
L 148.276979 258.160941 
L 148.276979 257.451671 
L 148.815343 257.451671 
L 148.815343 257.097035 
L 149.049758 257.097035 
L 149.049758 256.7424 
L 149.481565 256.7424 
L 149.481565 256.387765 
L 149.875833 256.387765 
L 149.875833 256.033129 
L 149.98698 256.033129 
L 149.98698 254.259953 
L 153.58223 254.259953 
L 153.58223 253.550682 
L 155.557358 253.550682 
L 155.557358 252.841412 
L 156.774003 252.841412 
L 156.870325 252.132141 
L 157.061501 252.132141 
L 157.061501 251.777506 
L 157.493969 251.777506 
L 157.493969 251.422871 
L 158.873444 251.422871 
L 158.890711 250.7136 
L 159.651731 250.7136 
L 159.651731 250.358965 
L 160.158636 250.358965 
L 160.158636 250.004329 
L 161.224909 250.004329 
L 161.224909 249.649694 
L 161.765853 249.649694 
L 161.765853 249.295059 
L 162.205054 249.295059 
L 162.205054 248.940424 
L 162.349204 248.940424 
L 162.349204 248.585788 
L 162.634233 248.585788 
L 162.634233 248.231153 
L 162.915008 248.231153 
L 162.915008 247.167247 
L 164.298142 247.167247 
L 164.401432 246.457976 
L 164.846771 246.457976 
L 164.846771 244.6848 
L 165.146166 244.6848 
L 165.146166 244.330165 
L 165.416487 244.330165 
L 165.416487 243.975529 
L 165.598594 243.975529 
L 165.670946 242.556988 
L 165.945747 242.556988 
L 165.945747 242.202353 
L 166.075768 242.202353 
L 166.075768 241.847718 
L 166.609959 241.847718 
L 166.609959 241.493082 
L 167.48247 241.493082 
L 167.48247 241.138447 
L 167.904005 241.138447 
L 167.904005 240.783812 
L 168.842171 240.783812 
L 168.842171 240.429176 
L 169.32403 240.429176 
L 169.32403 239.719906 
L 169.8614 239.719906 
L 169.87103 238.656 
L 170.318152 238.656 
L 170.318152 237.946729 
L 170.430628 237.946729 
L 170.430628 237.592094 
L 171.81737 237.592094 
L 171.81737 237.237459 
L 172.152916 237.237459 
L 172.152916 236.528188 
L 173.043915 236.528188 
L 173.043915 236.173553 
L 173.294362 236.173553 
L 173.294362 235.818918 
L 174.498899 235.818918 
L 174.498899 235.464282 
L 176.265124 235.464282 
L 176.265124 235.109647 
L 176.591226 235.109647 
L 176.591226 234.755012 
L 177.917356 234.755012 
L 177.917356 234.400376 
L 178.048709 234.400376 
L 178.048709 234.045741 
L 178.412915 234.045741 
L 178.412915 233.691106 
L 178.883832 233.691106 
L 178.883832 233.336471 
L 179.372318 233.336471 
L 179.372318 232.981835 
L 179.689164 232.981835 
L 179.689164 232.6272 
L 180.301752 232.6272 
L 180.301752 232.272565 
L 182.358249 232.272565 
L 182.358249 231.917929 
L 182.711804 231.917929 
L 182.711804 231.563294 
L 183.030161 231.563294 
L 183.082701 230.499388 
L 183.291404 230.499388 
L 183.291404 230.144753 
L 183.493151 230.144753 
L 183.493151 229.790118 
L 184.435177 229.790118 
L 184.54582 229.080847 
L 185.420934 229.080847 
L 185.525944 228.016941 
L 186.079022 228.016941 
L 186.12371 226.953035 
L 186.820735 226.953035 
L 186.883193 226.243765 
L 188.163641 226.243765 
L 188.268927 225.534494 
L 188.581293 225.534494 
L 188.581293 224.825224 
L 188.958488 224.825224 
L 188.958488 224.470588 
L 189.616925 224.470588 
L 189.657322 223.761318 
L 190.089485 223.761318 
L 190.089485 223.052047 
L 190.288897 223.052047 
L 190.334367 222.342776 
L 190.402367 222.342776 
L 190.47978 221.633506 
L 191.006678 221.633506 
L 191.006678 221.278871 
L 191.181149 221.278871 
L 191.181149 220.924235 
L 191.338646 220.924235 
L 191.412309 220.214965 
L 191.89317 220.214965 
L 191.89317 219.860329 
L 192.39987 219.860329 
L 192.483973 219.151059 
L 192.728338 219.151059 
L 192.728338 218.441788 
L 193.009007 218.441788 
L 193.009007 218.087153 
L 194.334427 218.087153 
L 194.334427 217.732518 
L 194.981432 217.732518 
L 194.981432 217.377882 
L 195.225627 217.377882 
L 195.225627 217.023247 
L 196.231259 217.023247 
L 196.316422 215.959341 
L 197.611452 215.959341 
L 197.664257 215.250071 
L 198.706999 215.250071 
L 198.806509 214.5408 
L 198.841627 214.5408 
L 198.841627 214.186165 
L 199.726494 214.186165 
L 199.726494 213.831529 
L 200.838888 213.831529 
L 200.85002 213.122259 
L 201.309911 213.122259 
L 201.309911 212.767624 
L 201.945238 212.767624 
L 201.997663 212.058353 
L 202.202459 212.058353 
L 202.233504 210.994447 
L 202.603792 210.994447 
L 202.603792 210.639812 
L 202.868889 210.639812 
L 202.910495 208.866635 
L 203.097413 208.866635 
L 203.099059 207.802729 
L 203.386513 207.802729 
L 203.404334 206.738824 
L 203.699952 206.738824 
L 203.765195 206.029553 
L 204.310042 206.029553 
L 204.388581 204.256376 
L 204.794487 204.256376 
L 204.832048 203.192471 
L 205.1874 203.192471 
L 205.200652 202.4832 
L 205.47099 202.4832 
L 205.47099 202.128565 
L 205.583816 202.128565 
L 205.583816 201.773929 
L 205.790349 201.773929 
L 205.790349 201.419294 
L 205.919707 201.419294 
L 205.919707 201.064659 
L 206.402207 201.064659 
L 206.402207 200.710024 
L 206.797074 200.710024 
L 206.86321 200.000753 
L 206.935826 200.000753 
L 207.005489 199.291482 
L 207.194417 199.291482 
L 207.194417 198.936847 
L 207.548497 198.936847 
L 207.548497 198.582212 
L 207.716632 198.582212 
L 207.725642 197.872941 
L 208.23351 197.872941 
L 208.293543 196.4544 
L 208.48363 196.4544 
L 208.495987 195.745129 
L 208.737785 195.745129 
L 208.737785 195.035859 
L 209.016211 195.035859 
L 209.018614 194.326588 
L 209.171778 194.326588 
L 209.197978 192.553412 
L 209.460337 192.553412 
L 209.460337 192.198776 
L 209.833339 192.198776 
L 209.845991 191.489506 
L 210.752801 191.489506 
L 210.79767 189.716329 
L 211.230958 189.716329 
L 211.30771 189.007059 
L 211.389446 189.007059 
L 211.485588 187.233882 
L 211.884928 187.233882 
L 211.884928 186.879247 
L 212.092181 186.879247 
L 212.14313 186.169976 
L 212.526899 186.169976 
L 212.573702 185.460706 
L 212.685756 185.460706 
L 212.73118 184.3968 
L 213.228542 184.3968 
L 213.280341 183.687529 
L 213.536271 183.687529 
L 213.536271 183.332894 
L 213.796224 183.332894 
L 213.796224 182.978259 
L 214.234707 182.978259 
L 214.234707 182.268988 
L 214.607047 182.268988 
L 214.626676 180.850447 
L 215.090856 180.850447 
L 215.090856 180.495812 
L 215.510705 180.495812 
L 215.510705 180.141176 
L 215.760876 180.141176 
L 215.760876 179.786541 
L 215.996159 179.786541 
L 215.996159 179.431906 
L 216.306992 179.431906 
L 216.306992 179.077271 
L 216.519462 179.077271 
L 216.570197 178.368 
L 217.198928 178.368 
L 217.198928 178.013365 
L 217.637883 178.013365 
L 217.68266 176.949459 
L 217.909458 176.949459 
L 217.909458 176.594824 
L 218.460044 176.594824 
L 218.492746 175.885553 
L 218.661169 175.885553 
L 218.661169 175.530918 
L 218.994971 175.530918 
L 218.994971 175.176282 
L 219.19958 175.176282 
L 219.19958 174.821647 
L 219.911814 174.821647 
L 219.929312 173.048471 
L 220.084736 173.048471 
L 220.176581 172.3392 
L 220.595465 172.3392 
L 220.596114 171.629929 
L 221.318352 171.629929 
L 221.318352 171.275294 
L 221.520332 171.275294 
L 221.520332 170.920659 
L 221.783057 170.920659 
L 221.783057 170.566024 
L 222.223462 170.566024 
L 222.223462 170.211388 
L 222.382375 170.211388 
L 222.382375 169.856753 
L 223.10066 169.856753 
L 223.109751 168.792847 
L 223.39446 168.792847 
L 223.39446 168.438212 
L 223.642923 168.438212 
L 223.642923 168.083576 
L 224.244479 168.083576 
L 224.244479 167.728941 
L 224.736958 167.728941 
L 224.736958 167.374306 
L 225.506154 167.374306 
L 225.561087 166.665035 
L 225.618843 166.665035 
L 225.618843 166.3104 
L 226.13082 166.3104 
L 226.13082 165.955765 
L 226.493528 165.955765 
L 226.598583 164.891859 
L 226.830738 164.891859 
L 226.842853 164.182588 
L 226.961726 164.182588 
L 227.072491 162.054776 
L 227.293448 162.054776 
L 227.395499 160.2816 
L 227.609138 160.2816 
L 227.693919 158.508424 
L 227.857931 158.508424 
L 227.903775 157.799153 
L 227.980227 157.799153 
L 227.999949 156.380612 
L 228.179556 156.380612 
L 228.279945 154.2528 
L 228.298492 154.2528 
L 228.398679 153.188894 
L 228.442798 153.188894 
L 228.541795 150.706447 
L 228.555834 150.706447 
L 228.65297 148.224 
L 228.753396 148.224 
L 228.847426 147.160094 
L 228.908462 147.160094 
L 229.000062 145.741553 
L 229.03326 145.741553 
L 229.073435 145.032282 
L 229.216455 145.032282 
L 229.318417 143.613741 
L 229.329032 143.613741 
L 229.432823 140.776659 
L 229.53887 140.776659 
L 229.623038 139.003482 
L 229.65676 139.003482 
L 229.662375 138.294212 
L 230.064636 138.294212 
L 230.171094 136.1664 
L 230.323078 136.1664 
L 230.342038 135.457129 
L 230.818238 135.457129 
L 230.899887 134.747859 
L 231.949829 134.747859 
L 231.949829 134.393224 
L 232.235258 134.393224 
L 232.235258 134.038588 
L 232.441854 134.038588 
L 232.459487 133.329318 
L 232.62635 133.329318 
L 232.734278 132.620047 
L 233.000749 132.620047 
L 233.010819 131.910776 
L 233.19616 131.910776 
L 233.233673 131.201506 
L 233.566013 131.201506 
L 233.588808 130.1376 
L 233.861495 130.1376 
L 233.861495 129.073694 
L 234.217987 129.073694 
L 234.217987 128.719059 
L 239.225066 128.719059 
L 239.319854 128.009788 
L 239.455191 128.009788 
L 239.455191 127.655153 
L 240.211715 127.655153 
L 240.211715 127.300518 
L 240.435352 127.300518 
L 240.435804 126.591247 
L 240.729309 126.591247 
L 240.729309 126.236612 
L 240.855352 126.236612 
L 240.940308 125.527341 
L 241.006681 125.527341 
L 241.068011 124.1088 
L 241.160067 124.1088 
L 241.24886 122.690259 
L 241.410387 122.690259 
L 241.501642 121.626353 
L 241.63282 121.626353 
L 241.63282 121.271718 
L 241.838595 121.271718 
L 241.838595 120.917082 
L 241.998488 120.917082 
L 242.007435 120.207812 
L 242.310569 120.207812 
L 242.414271 119.498541 
L 242.513961 119.498541 
L 242.513961 119.143906 
L 242.640502 119.143906 
L 242.651159 117.725365 
L 242.940216 117.725365 
L 242.940414 117.016094 
L 243.137731 117.016094 
L 243.137731 116.661459 
L 243.250229 116.661459 
L 243.345017 115.597553 
L 243.41869 115.597553 
L 243.41869 115.242918 
L 243.796415 115.242918 
L 243.895835 114.533647 
L 243.992113 114.533647 
L 244.072622 113.824376 
L 274.198485 113.824376 
L 274.289205 105.667765 
L 274.335707 105.667765 
L 274.422168 99.9936 
L 274.456856 99.9936 
L 274.53206 98.575059 
L 274.581723 98.575059 
L 274.6923 93.255529 
L 274.694093 93.255529 
L 274.747565 90.773082 
L 274.811108 90.773082 
L 274.920458 86.162824 
L 274.937664 86.162824 
L 275.033813 84.744282 
L 275.087225 84.744282 
L 275.161776 82.971106 
L 275.198798 82.971106 
L 275.207989 81.552565 
L 275.328514 81.552565 
L 275.41593 79.424753 
L 275.487648 79.424753 
L 275.540453 78.360847 
L 275.636224 78.360847 
L 275.740374 73.041318 
L 275.750343 73.041318 
L 275.843504 68.785694 
L 275.905619 68.785694 
L 275.972489 67.367153 
L 276.070582 67.367153 
L 276.17385 65.948612 
L 276.262383 65.948612 
L 276.300127 64.175435 
L 277.039101 64.175435 
L 277.143692 63.111529 
L 277.153393 63.111529 
L 277.187405 61.338353 
L 277.277496 61.338353 
L 277.381725 59.210541 
L 277.403288 59.210541 
L 277.514388 58.146635 
L 277.634636 58.146635 
L 277.634636 57.792 
L 287.235668 57.792 
L 287.320113 56.373459 
L 287.375553 56.373459 
L 287.475096 53.181741 
L 287.499292 53.181741 
L 287.607877 49.635388 
L 287.626567 49.635388 
L 287.733524 47.862212 
L 287.752455 47.862212 
L 287.752455 47.507576 
L 287.959921 47.507576 
L 288.06292 43.251953 
L 288.075863 43.251953 
L 288.100484 42.542682 
L 288.271028 42.542682 
L 288.271028 42.188047 
L 288.718222 42.188047 
L 288.794914 41.478776 
L 288.869038 41.478776 
L 288.897943 40.414871 
L 294.861355 40.414871 
L 294.935478 37.932424 
L 294.983673 37.932424 
L 295.073019 35.804612 
L 295.121519 35.804612 
L 295.164187 35.095341 
L 295.311268 35.095341 
L 295.379439 33.6768 
L 295.437414 33.6768 
L 295.540835 32.612894 
L 295.891015 32.612894 
L 295.915409 31.903624 
L 296.056414 31.903624 
L 296.056414 31.548988 
L 300.356603 31.548988 
L 300.356603 31.194353 
L 300.633376 31.194353 
L 300.685286 29.775812 
L 300.798036 29.775812 
L 300.798036 29.421176 
L 304.511901 29.421176 
L 304.594654 28.002635 
L 308.124033 28.002635 
L 308.124033 27.648 
L 360.8064 27.648 
L 360.8064 27.648 
" style="fill: none; stroke: #000080; stroke-width: 1.5; stroke-linecap: square"/>
   </g>
   <g id="line2d_36">
    <defs>
     <path id="mde3abd0581" d="M 0 6 
C 1.591219 6 3.117479 5.367802 4.242641 4.242641 
C 5.367802 3.117479 6 1.591219 6 0 
C 6 -1.591219 5.367802 -3.117479 4.242641 -4.242641 
C 3.117479 -5.367802 1.591219 -6 0 -6 
C -1.591219 -6 -3.117479 -5.367802 -4.242641 -4.242641 
C -5.367802 -3.117479 -6 -1.591219 -6 0 
C -6 1.591219 -5.367802 3.117479 -4.242641 4.242641 
C -3.117479 5.367802 -1.591219 6 0 6 
z
" style="stroke: #000080; stroke-width: 1.5"/>
    </defs>
    <g>
     <use xlink:href="#mde3abd0581" x="133.120474" y="264.899012" style="fill-opacity: 0; stroke: #000080; stroke-width: 1.5"/>
     <use xlink:href="#mde3abd0581" x="205.47099" y="202.4832" style="fill-opacity: 0; stroke: #000080; stroke-width: 1.5"/>
     <use xlink:href="#mde3abd0581" x="244.072622" y="113.824376" style="fill-opacity: 0; stroke: #000080; stroke-width: 1.5"/>
     <use xlink:href="#mde3abd0581" x="308.124033" y="28.002635" style="fill-opacity: 0; stroke: #000080; stroke-width: 1.5"/>
     <use xlink:href="#mde3abd0581" x="308.124033" y="27.648" style="fill-opacity: 0; stroke: #000080; stroke-width: 1.5"/>
     <use xlink:href="#mde3abd0581" x="360.8064" y="27.648" style="fill-opacity: 0; stroke: #000080; stroke-width: 1.5"/>
    </g>
   </g>
   <g id="line2d_37">
    <path style="fill: none; stroke: #000080; stroke-width: 1.5; stroke-linecap: square"/>
    <g/>
   </g>
   <g id="line2d_38">
    <path d="M 274.176 113.824376 
" clip-path="url(#p20ade39577)" style="fill: none; stroke: #000080; stroke-width: 1.5; stroke-linecap: square"/>
    <defs>
     <path id="mf6db9762dc" d="M -12 12 
L 12 -12 
M -12 -12 
L 12 12 
" style="stroke: #000080"/>
    </defs>
    <g clip-path="url(#p20ade39577)">
     <use xlink:href="#mf6db9762dc" x="274.176" y="113.824376" style="fill: #000080; stroke: #000080"/>
    </g>
   </g>
   <g id="line2d_39">
    <defs>
     <path id="md3d3399e0c" d="M 0 1.5 
C 0.397805 1.5 0.77937 1.341951 1.06066 1.06066 
C 1.341951 0.77937 1.5 0.397805 1.5 0 
C 1.5 -0.397805 1.341951 -0.77937 1.06066 -1.06066 
C 0.77937 -1.341951 0.397805 -1.5 0 -1.5 
C -0.397805 -1.5 -0.77937 -1.341951 -1.06066 -1.06066 
C -1.341951 -0.77937 -1.5 -0.397805 -1.5 0 
C -1.5 0.397805 -1.341951 0.77937 -1.06066 1.06066 
C -0.77937 1.341951 -0.397805 1.5 0 1.5 
z
" style="stroke: #ff00ff"/>
    </defs>
    <g>
     <use xlink:href="#md3d3399e0c" x="304.962358" y="27.648" style="fill: #ff00ff; stroke: #ff00ff"/>
     <use xlink:href="#md3d3399e0c" x="304.962358" y="27.648" style="fill: #ff00ff; stroke: #ff00ff"/>
    </g>
   </g>
   <g id="line2d_40">
    <path d="M 27.323974 298.944 
L 27.323974 289.368847 
L 40.363149 289.368847 
L 40.363149 286.177129 
L 47.990577 286.177129 
L 47.990577 285.822494 
L 53.402323 285.822494 
L 53.402323 284.758588 
L 57.6 284.758588 
L 57.6 282.985412 
L 61.029752 282.985412 
L 61.029752 282.276141 
L 63.929565 282.276141 
L 63.929565 280.8576 
L 66.441498 280.8576 
L 66.441498 280.502965 
L 70.639174 280.502965 
L 70.639174 280.148329 
L 74.068926 280.148329 
L 74.068926 279.084424 
L 78.266603 279.084424 
L 78.266603 278.729788 
L 79.480672 278.729788 
L 79.480672 278.375153 
L 83.678349 278.375153 
L 83.678349 278.020518 
L 87.876026 278.020518 
L 87.876026 277.311247 
L 90.668036 277.311247 
L 90.668036 276.956612 
L 91.305777 276.956612 
L 91.305777 275.183435 
L 93.098709 275.183435 
L 93.098709 274.8288 
L 96.241256 274.8288 
L 96.241256 273.764894 
L 97.18203 273.764894 
L 97.18203 273.410259 
L 99.751228 273.410259 
L 99.751228 273.055624 
L 100.9152 273.055624 
L 100.9152 272.346353 
L 102.362957 272.346353 
L 102.362957 271.991718 
L 103.047088 271.991718 
L 103.047088 271.637082 
L 108.034177 271.637082 
L 108.034177 271.282447 
L 108.791791 271.282447 
L 108.791791 270.927812 
L 109.756698 270.927812 
L 109.756698 270.573176 
L 113.381389 270.573176 
L 113.381389 269.509271 
L 116.907859 269.509271 
L 116.907859 268.8 
L 117.067958 268.8 
L 117.067958 268.445365 
L 119.177058 268.445365 
L 119.177058 268.090729 
L 122.795872 268.090729 
L 122.795872 267.736094 
L 125.929373 267.736094 
L 125.929373 267.381459 
L 128.266313 267.381459 
L 128.266313 267.026824 
L 130.186674 267.026824 
L 130.186674 266.672188 
L 130.4233 266.672188 
L 130.4233 265.608282 
L 133.05244 265.608282 
L 133.05244 264.544376 
L 133.188264 264.544376 
L 133.188264 263.835106 
L 133.853052 263.835106 
L 133.853052 263.480471 
L 135.237805 263.480471 
L 135.237805 263.125835 
L 141.128852 263.125835 
L 141.128852 262.7712 
L 141.953481 262.7712 
L 141.953481 262.061929 
L 148.03267 262.061929 
L 148.03267 261.352659 
L 149.931489 261.352659 
L 149.931489 260.998024 
L 150.667154 260.998024 
L 150.667154 260.643388 
L 151.220087 260.643388 
L 151.220087 259.579482 
L 158.115593 259.579482 
L 158.223191 258.870212 
L 159.485256 258.870212 
L 159.485256 258.160941 
L 160.541906 258.160941 
L 160.620781 256.7424 
L 161.34647 256.7424 
L 161.34647 254.969224 
L 165.719027 254.969224 
L 165.719027 254.259953 
L 172.978738 254.259953 
L 172.978738 253.196047 
L 174.715944 253.196047 
L 174.715944 252.841412 
L 175.208017 252.841412 
L 175.208017 252.486776 
L 177.778757 252.486776 
L 177.778757 252.132141 
L 178.388444 252.132141 
L 178.388444 251.777506 
L 179.214801 251.777506 
L 179.214801 251.422871 
L 180.538033 251.422871 
L 180.538033 250.358965 
L 181.155741 250.358965 
L 181.155741 250.004329 
L 181.615092 250.004329 
L 181.615092 249.649694 
L 183.054061 249.649694 
L 183.054061 249.295059 
L 184.054045 249.295059 
L 184.054045 248.231153 
L 184.891237 248.231153 
L 184.977687 246.812612 
L 185.530133 246.812612 
L 185.530133 246.457976 
L 186.624207 246.457976 
L 186.624207 245.039435 
L 188.348407 245.039435 
L 188.348407 244.6848 
L 190.563288 244.6848 
L 190.566492 243.266259 
L 193.132417 243.266259 
L 193.171515 241.138447 
L 195.026987 241.138447 
L 195.026987 240.783812 
L 195.240628 240.783812 
L 195.240628 239.719906 
L 196.102787 239.719906 
L 196.102787 239.365271 
L 197.133942 239.365271 
L 197.133942 237.592094 
L 197.394283 237.592094 
L 197.394283 237.237459 
L 197.569544 237.237459 
L 197.569544 236.173553 
L 199.639659 236.173553 
L 199.639659 235.818918 
L 199.85991 235.818918 
L 199.85991 235.109647 
L 200.125864 235.109647 
L 200.125864 234.045741 
L 200.62236 234.045741 
L 200.62236 232.981835 
L 201.953986 232.981835 
L 201.953986 230.499388 
L 203.071059 230.499388 
L 203.071059 229.435482 
L 204.912926 229.435482 
L 204.912926 228.726212 
L 205.144638 228.726212 
L 205.172666 226.5984 
L 205.932453 226.5984 
L 205.932453 226.243765 
L 207.405046 226.243765 
L 207.405046 225.534494 
L 207.600391 225.534494 
L 207.600391 225.179859 
L 208.4304 225.179859 
L 208.4304 224.825224 
L 211.829135 224.825224 
L 211.829135 223.406682 
L 212.088099 223.406682 
L 212.088099 223.052047 
L 212.343546 223.052047 
L 212.343546 222.342776 
L 212.544837 222.342776 
L 212.544837 221.633506 
L 212.981018 221.633506 
L 212.981018 220.924235 
L 213.309056 220.924235 
L 213.391132 219.151059 
L 213.606069 219.151059 
L 213.609835 217.732518 
L 214.256547 217.732518 
L 214.256547 217.023247 
L 214.738702 217.023247 
L 214.823611 215.959341 
L 214.873844 215.959341 
L 214.959898 214.895435 
L 215.019379 214.895435 
L 215.019379 213.831529 
L 215.29765 213.831529 
L 215.33032 210.639812 
L 216.165369 210.639812 
L 216.165369 209.930541 
L 216.53236 209.930541 
L 216.539611 209.221271 
L 216.65285 209.221271 
L 216.65285 208.512 
L 216.89549 208.512 
L 216.89549 208.157365 
L 217.153762 208.157365 
L 217.165453 207.448094 
L 217.596806 207.448094 
L 217.596806 206.738824 
L 217.732625 206.738824 
L 217.830653 205.320282 
L 217.873474 205.320282 
L 217.884726 204.611012 
L 218.054941 204.611012 
L 218.089838 202.128565 
L 218.265566 202.128565 
L 218.265566 201.773929 
L 218.507262 201.773929 
L 218.55002 201.064659 
L 218.921303 201.064659 
L 218.921303 200.355388 
L 219.050739 200.355388 
L 219.050739 200.000753 
L 220.361567 200.000753 
L 220.411465 195.035859 
L 220.514778 195.035859 
L 220.562971 193.617318 
L 220.665459 193.617318 
L 220.665459 192.908047 
L 221.337088 192.908047 
L 221.337088 192.553412 
L 221.559235 192.553412 
L 221.640486 190.780235 
L 221.690172 190.780235 
L 221.690172 190.4256 
L 221.811685 190.4256 
L 221.845739 189.716329 
L 222.246076 189.716329 
L 222.254401 186.879247 
L 222.37706 186.879247 
L 222.37706 186.524612 
L 222.524727 186.524612 
L 222.596085 184.751435 
L 222.73046 184.751435 
L 222.758262 183.687529 
L 222.952307 183.687529 
L 222.952307 182.623624 
L 223.222458 182.623624 
L 223.304158 180.495812 
L 223.407884 180.495812 
L 223.414592 179.786541 
L 223.573218 179.786541 
L 223.573218 179.077271 
L 224.455611 179.077271 
L 224.565816 178.013365 
L 224.695754 178.013365 
L 224.760908 177.304094 
L 224.842942 177.304094 
L 224.842942 176.594824 
L 224.962751 176.594824 
L 225.03981 175.530918 
L 225.736296 175.530918 
L 225.736296 174.821647 
L 226.004614 174.821647 
L 226.004614 174.467012 
L 226.25138 174.467012 
L 226.340578 172.3392 
L 226.460755 172.3392 
L 226.460755 171.629929 
L 226.694137 171.629929 
L 226.804617 169.856753 
L 226.83633 169.856753 
L 226.83633 168.438212 
L 226.950613 168.438212 
L 226.950613 168.083576 
L 227.155597 168.083576 
L 227.155597 165.955765 
L 227.279344 165.955765 
L 227.333881 164.891859 
L 227.483497 164.891859 
L 227.500148 164.182588 
L 227.599744 164.182588 
L 227.599744 163.827953 
L 227.862344 163.827953 
L 227.862344 163.118682 
L 228.011772 163.118682 
L 228.093454 162.409412 
L 228.42953 162.409412 
L 228.508569 160.636235 
L 228.612311 160.636235 
L 228.612311 159.926965 
L 228.89719 159.926965 
L 228.932238 158.153788 
L 229.094523 158.153788 
L 229.192625 156.735247 
L 229.251323 156.735247 
L 229.361655 154.607435 
L 229.368988 154.607435 
L 229.462836 153.543529 
L 229.542502 153.543529 
L 229.542502 153.188894 
L 229.674801 153.188894 
L 229.674801 152.834259 
L 229.85347 152.834259 
L 229.895101 151.415718 
L 230.170703 151.415718 
L 230.196055 149.997176 
L 230.301773 149.997176 
L 230.301773 148.933271 
L 230.545142 148.933271 
L 230.582218 148.224 
L 230.69908 148.224 
L 230.760834 145.386918 
L 230.833692 145.386918 
L 230.899136 143.613741 
L 231.269063 143.613741 
L 231.269063 142.549835 
L 231.626799 142.549835 
L 231.626799 141.131294 
L 231.760336 141.131294 
L 231.760336 140.776659 
L 231.963316 140.776659 
L 232.024599 140.067388 
L 232.200954 140.067388 
L 232.274735 137.584941 
L 232.339188 137.584941 
L 232.339188 137.230306 
L 232.617785 137.230306 
L 232.617785 136.875671 
L 232.739046 136.875671 
L 232.780199 136.1664 
L 232.967814 136.1664 
L 232.967814 135.102494 
L 233.327625 135.102494 
L 233.432271 130.846871 
L 233.448344 130.846871 
L 233.451951 129.073694 
L 233.591736 129.073694 
L 233.591736 128.364424 
L 233.714334 128.364424 
L 233.769211 126.945882 
L 233.8265 126.945882 
L 233.8265 126.236612 
L 233.969281 126.236612 
L 233.969281 125.881976 
L 234.137557 125.881976 
L 234.137557 125.527341 
L 234.364398 125.527341 
L 234.449774 123.754165 
L 234.817049 123.754165 
L 234.817049 123.044894 
L 235.141965 123.044894 
L 235.175496 120.917082 
L 235.467844 120.917082 
L 235.467844 120.562447 
L 235.590254 120.562447 
L 235.67579 117.370729 
L 235.982314 117.370729 
L 235.982314 116.661459 
L 236.100008 116.661459 
L 236.209894 115.242918 
L 236.326458 115.242918 
L 236.326458 114.888282 
L 236.53269 114.888282 
L 236.602414 113.824376 
L 236.665248 113.824376 
L 236.690103 113.115106 
L 236.783977 113.115106 
L 236.87028 112.405835 
L 236.979574 112.405835 
L 236.979574 112.0512 
L 237.384197 112.0512 
L 237.47812 110.987294 
L 237.536254 110.987294 
L 237.536254 109.568753 
L 237.697035 109.568753 
L 237.704097 108.504847 
L 237.901275 108.504847 
L 237.901275 108.150212 
L 238.117651 108.150212 
L 238.227584 105.313129 
L 238.305752 105.313129 
L 238.358357 103.539953 
L 238.507782 103.539953 
L 238.507782 101.412141 
L 238.670442 101.412141 
L 238.764846 100.348235 
L 238.887039 100.348235 
L 238.974745 99.284329 
L 239.085384 99.284329 
L 239.17991 98.575059 
L 239.486377 98.575059 
L 239.486377 98.220424 
L 239.634218 98.220424 
L 239.710056 97.156518 
L 240.021256 97.156518 
L 240.059364 95.383341 
L 240.178959 95.383341 
L 240.261769 94.674071 
L 240.342171 94.674071 
L 240.342171 94.319435 
L 240.679369 94.319435 
L 240.679369 93.610165 
L 240.848273 93.610165 
L 240.94405 92.546259 
L 241.005145 92.546259 
L 241.005145 92.191624 
L 241.128269 92.191624 
L 241.13459 90.773082 
L 241.297529 90.773082 
L 241.297529 90.418447 
L 241.490099 90.418447 
L 241.592669 88.999906 
L 241.687914 88.999906 
L 241.687914 88.645271 
L 242.459004 88.645271 
L 242.459004 87.936 
L 242.648546 87.936 
L 242.648546 87.581365 
L 243.02495 87.581365 
L 243.0657 86.517459 
L 243.146936 86.517459 
L 243.211829 84.744282 
L 243.294186 84.744282 
L 243.383146 84.035012 
L 243.408652 84.035012 
L 243.408652 83.680376 
L 243.718321 83.680376 
L 243.718321 83.325741 
L 243.869663 83.325741 
L 243.965325 80.843294 
L 244.73304 80.843294 
L 244.73304 80.488659 
L 244.907159 80.488659 
L 244.907159 79.424753 
L 245.02802 79.424753 
L 245.02802 79.070118 
L 245.232594 79.070118 
L 245.232594 78.715482 
L 245.651133 78.715482 
L 245.72264 77.651576 
L 246.006652 77.651576 
L 246.006652 77.296941 
L 246.361684 77.296941 
L 246.361684 76.942306 
L 246.780967 76.942306 
L 246.845257 76.233035 
L 246.920866 76.233035 
L 246.941042 75.523765 
L 247.173255 75.523765 
L 247.173255 75.169129 
L 247.433218 75.169129 
L 247.442102 74.459859 
L 248.48875 74.459859 
L 248.493614 73.750588 
L 249.118953 73.750588 
L 249.118953 73.395953 
L 250.06828 73.395953 
L 250.06828 73.041318 
L 250.735687 73.041318 
L 250.735687 72.686682 
L 251.98016 72.686682 
L 251.98016 72.332047 
L 253.069329 72.332047 
L 253.069329 71.977412 
L 254.878399 71.977412 
L 254.878399 71.622776 
L 275.058348 71.622776 
L 275.058348 70.913506 
L 275.182151 70.913506 
L 275.222977 70.204235 
L 275.297879 70.204235 
L 275.308793 69.494965 
L 275.421072 69.494965 
L 275.468831 67.721788 
L 275.542867 67.721788 
L 275.56874 66.657882 
L 275.699477 66.657882 
L 275.760236 65.593976 
L 275.833344 65.593976 
L 275.925376 63.8208 
L 275.955589 63.8208 
L 276.044505 61.338353 
L 276.111699 61.338353 
L 276.219063 58.501271 
L 276.278237 58.501271 
L 276.344669 56.728094 
L 276.395761 56.728094 
L 276.471973 56.018824 
L 276.521791 56.018824 
L 276.631173 54.600282 
L 276.64695 54.600282 
L 276.753082 51.408565 
L 276.82636 51.408565 
L 276.904756 49.280753 
L 276.965448 49.280753 
L 277.037453 48.216847 
L 277.085862 48.216847 
L 277.085862 47.862212 
L 277.307717 47.862212 
L 277.322013 47.152941 
L 277.469692 47.152941 
L 277.559292 46.443671 
L 277.641804 46.443671 
L 277.682721 44.670494 
L 277.974212 44.670494 
L 277.987059 42.542682 
L 278.194067 42.542682 
L 278.212199 41.478776 
L 278.516731 41.478776 
L 278.516731 40.769506 
L 278.846755 40.769506 
L 278.846755 40.414871 
L 278.99332 40.414871 
L 278.99332 40.060235 
L 279.538537 40.060235 
L 279.538537 39.7056 
L 287.693697 39.7056 
L 287.693697 39.350965 
L 287.827244 39.350965 
L 287.85961 38.287059 
L 288.182376 38.287059 
L 288.274282 36.159247 
L 288.368149 36.159247 
L 288.390588 35.449976 
L 288.492896 35.449976 
L 288.506952 34.740706 
L 288.623892 34.740706 
L 288.668765 33.322165 
L 288.778216 33.322165 
L 288.784326 32.612894 
L 289.245678 32.612894 
L 289.245678 32.258259 
L 295.622166 32.258259 
L 295.622166 31.903624 
L 295.747649 31.903624 
L 295.827331 31.194353 
L 295.995353 31.194353 
L 296.080149 30.485082 
L 296.24553 30.485082 
L 296.24553 30.130447 
L 300.757402 30.130447 
L 300.757402 29.775812 
L 300.929036 29.775812 
L 300.967418 29.066541 
L 301.068698 29.066541 
L 301.068698 28.711906 
L 304.945771 28.711906 
L 304.962358 27.648 
L 360.8064 27.648 
L 360.8064 27.648 
" style="fill: none; stroke: #ff00ff; stroke-width: 1.5; stroke-linecap: square"/>
   </g>
   <g id="line2d_41">
    <defs>
     <path id="m963240e13b" d="M 0 8.485281 
L 5.091169 0 
L 0 -8.485281 
L -5.091169 0 
z
" style="stroke: #ff00ff; stroke-width: 1.5; stroke-linejoin: miter"/>
    </defs>
    <g>
     <use xlink:href="#m963240e13b" x="109.756698" y="270.927812" style="fill-opacity: 0; stroke: #ff00ff; stroke-width: 1.5; stroke-linejoin: miter"/>
     <use xlink:href="#m963240e13b" x="196.102787" y="239.719906" style="fill-opacity: 0; stroke: #ff00ff; stroke-width: 1.5; stroke-linejoin: miter"/>
     <use xlink:href="#m963240e13b" x="229.895101" y="151.415718" style="fill-opacity: 0; stroke: #ff00ff; stroke-width: 1.5; stroke-linejoin: miter"/>
     <use xlink:href="#m963240e13b" x="304.962358" y="28.002635" style="fill-opacity: 0; stroke: #ff00ff; stroke-width: 1.5; stroke-linejoin: miter"/>
     <use xlink:href="#m963240e13b" x="304.962358" y="27.648" style="fill-opacity: 0; stroke: #ff00ff; stroke-width: 1.5; stroke-linejoin: miter"/>
     <use xlink:href="#m963240e13b" x="360.8064" y="27.648" style="fill-opacity: 0; stroke: #ff00ff; stroke-width: 1.5; stroke-linejoin: miter"/>
    </g>
   </g>
   <g id="line2d_42">
    <path style="fill: none; stroke: #ff00ff; stroke-width: 1.5; stroke-linecap: square"/>
    <g/>
   </g>
   <g id="line2d_43">
    <path d="M 274.255293 71.622776 
" clip-path="url(#p20ade39577)" style="fill: none; stroke: #ff00ff; stroke-width: 1.5; stroke-linecap: square"/>
    <defs>
     <path id="mff7679e576" d="M -12 12 
L 12 -12 
M -12 -12 
L 12 12 
" style="stroke: #ff00ff"/>
    </defs>
    <g clip-path="url(#p20ade39577)">
     <use xlink:href="#mff7679e576" x="274.255293" y="71.622776" style="fill: #ff00ff; stroke: #ff00ff"/>
    </g>
   </g>
   <g id="line2d_44">
    <path d="M 360.8064 27.648 
L 380.514816 293.51808 
" style="fill: none; stroke: #000080; stroke-width: 1.5; stroke-linecap: square"/>
    <g>
     <use xlink:href="#mde3abd0581" x="360.8064" y="27.648" style="fill-opacity: 0; stroke: #000080; stroke-width: 1.5"/>
     <use xlink:href="#mde3abd0581" x="380.514816" y="293.51808" style="fill-opacity: 0; stroke: #000080; stroke-width: 1.5"/>
    </g>
   </g>
   <g id="line2d_45">
    <path d="M 360.8064 27.648 
L 380.514816 163.296 
" style="fill: none; stroke: #ff00ff; stroke-width: 1.5; stroke-linecap: square"/>
    <g>
     <use xlink:href="#m963240e13b" x="360.8064" y="27.648" style="fill-opacity: 0; stroke: #ff00ff; stroke-width: 1.5; stroke-linejoin: miter"/>
     <use xlink:href="#m963240e13b" x="380.514816" y="163.296" style="fill-opacity: 0; stroke: #ff00ff; stroke-width: 1.5; stroke-linejoin: miter"/>
    </g>
   </g>
   <g id="line2d_46">
    <path d="M 360.8064 298.944 
L 360.8064 27.648 
" style="fill: none; stroke: #000000; stroke-width: 1.5; stroke-linecap: square"/>
   </g>
   <g id="patch_3">
    <path d="M 57.6 298.944 
L 360.8064 298.944 
" style="fill: none; stroke: #000000; stroke-width: 0.8; stroke-linejoin: miter; stroke-linecap: square"/>
   </g>
   <g id="patch_4">
    <path d="M 57.6 27.648 
L 360.8064 27.648 
" style="fill: none; stroke: #000000; stroke-width: 0.8; stroke-linejoin: miter; stroke-linecap: square"/>
   </g>
   <g id="text_13">
    <!-- LCGA -->
    <g transform="translate(386.578944 297.381205)scale(0.14 -0.14)">
     <defs>
      <path id="DejaVuSans-4c" d="M 628 4666 
L 1259 4666 
L 1259 531 
L 3531 531 
L 3531 0 
L 628 0 
L 628 4666 
z
" transform="scale(0.015625)"/>
      <path id="DejaVuSans-43" d="M 4122 4306 
L 4122 3641 
Q 3803 3938 3442 4084 
Q 3081 4231 2675 4231 
Q 1875 4231 1450 3742 
Q 1025 3253 1025 2328 
Q 1025 1406 1450 917 
Q 1875 428 2675 428 
Q 3081 428 3442 575 
Q 3803 722 4122 1019 
L 4122 359 
Q 3791 134 3420 21 
Q 3050 -91 2638 -91 
Q 1578 -91 968 557 
Q 359 1206 359 2328 
Q 359 3453 968 4101 
Q 1578 4750 2638 4750 
Q 3056 4750 3426 4639 
Q 3797 4528 4122 4306 
z
" transform="scale(0.015625)"/>
      <path id="DejaVuSans-47" d="M 3809 666 
L 3809 1919 
L 2778 1919 
L 2778 2438 
L 4434 2438 
L 4434 434 
Q 4069 175 3628 42 
Q 3188 -91 2688 -91 
Q 1594 -91 976 548 
Q 359 1188 359 2328 
Q 359 3472 976 4111 
Q 1594 4750 2688 4750 
Q 3144 4750 3555 4637 
Q 3966 4525 4313 4306 
L 4313 3634 
Q 3963 3931 3569 4081 
Q 3175 4231 2741 4231 
Q 1884 4231 1454 3753 
Q 1025 3275 1025 2328 
Q 1025 1384 1454 906 
Q 1884 428 2741 428 
Q 3075 428 3337 486 
Q 3600 544 3809 666 
z
" transform="scale(0.015625)"/>
      <path id="DejaVuSans-41" d="M 2188 4044 
L 1331 1722 
L 3047 1722 
L 2188 4044 
z
M 1831 4666 
L 2547 4666 
L 4325 0 
L 3669 0 
L 3244 1197 
L 1141 1197 
L 716 0 
L 50 0 
L 1831 4666 
z
" transform="scale(0.015625)"/>
     </defs>
     <use xlink:href="#DejaVuSans-4c"/>
     <use xlink:href="#DejaVuSans-43" x="55.712891"/>
     <use xlink:href="#DejaVuSans-47" x="125.537109"/>
     <use xlink:href="#DejaVuSans-41" x="203.027344"/>
    </g>
   </g>
   <g id="text_14">
    <!-- GA -->
    <g transform="translate(386.578944 167.159125)scale(0.14 -0.14)">
     <use xlink:href="#DejaVuSans-47"/>
     <use xlink:href="#DejaVuSans-41" x="77.490234"/>
    </g>
   </g>
   <g id="text_15">
    <!-- best 2009 -->
    <g transform="translate(386.578944 36.937045)scale(0.14 -0.14)">
     <defs>
      <path id="DejaVuSans-62" d="M 3116 1747 
Q 3116 2381 2855 2742 
Q 2594 3103 2138 3103 
Q 1681 3103 1420 2742 
Q 1159 2381 1159 1747 
Q 1159 1113 1420 752 
Q 1681 391 2138 391 
Q 2594 391 2855 752 
Q 3116 1113 3116 1747 
z
M 1159 2969 
Q 1341 3281 1617 3432 
Q 1894 3584 2278 3584 
Q 2916 3584 3314 3078 
Q 3713 2572 3713 1747 
Q 3713 922 3314 415 
Q 2916 -91 2278 -91 
Q 1894 -91 1617 61 
Q 1341 213 1159 525 
L 1159 0 
L 581 0 
L 581 4863 
L 1159 4863 
L 1159 2969 
z
" transform="scale(0.015625)"/>
      <path id="DejaVuSans-39" d="M 703 97 
L 703 672 
Q 941 559 1184 500 
Q 1428 441 1663 441 
Q 2288 441 2617 861 
Q 2947 1281 2994 2138 
Q 2813 1869 2534 1725 
Q 2256 1581 1919 1581 
Q 1219 1581 811 2004 
Q 403 2428 403 3163 
Q 403 3881 828 4315 
Q 1253 4750 1959 4750 
Q 2769 4750 3195 4129 
Q 3622 3509 3622 2328 
Q 3622 1225 3098 567 
Q 2575 -91 1691 -91 
Q 1453 -91 1209 -44 
Q 966 3 703 97 
z
M 1959 2075 
Q 2384 2075 2632 2365 
Q 2881 2656 2881 3163 
Q 2881 3666 2632 3958 
Q 2384 4250 1959 4250 
Q 1534 4250 1286 3958 
Q 1038 3666 1038 3163 
Q 1038 2656 1286 2365 
Q 1534 2075 1959 2075 
z
" transform="scale(0.015625)"/>
     </defs>
     <use xlink:href="#DejaVuSans-62"/>
     <use xlink:href="#DejaVuSans-65" x="63.476562"/>
     <use xlink:href="#DejaVuSans-73" x="125"/>
     <use xlink:href="#DejaVuSans-74" x="177.099609"/>
     <use xlink:href="#DejaVuSans-20" x="216.308594"/>
     <use xlink:href="#DejaVuSans-32" x="248.095703"/>
     <use xlink:href="#DejaVuSans-30" x="311.71875"/>
     <use xlink:href="#DejaVuSans-30" x="375.341797"/>
     <use xlink:href="#DejaVuSans-39" x="438.964844"/>
    </g>
   </g>
   <g id="text_16">
    <!-- bbob f21, 5-D -->
    <g transform="translate(60.632064 38.111366)scale(0.102 -0.102)">
     <defs>
      <path id="DejaVuSans-35" d="M 691 4666 
L 3169 4666 
L 3169 4134 
L 1269 4134 
L 1269 2991 
Q 1406 3038 1543 3061 
Q 1681 3084 1819 3084 
Q 2600 3084 3056 2656 
Q 3513 2228 3513 1497 
Q 3513 744 3044 326 
Q 2575 -91 1722 -91 
Q 1428 -91 1123 -41 
Q 819 9 494 109 
L 494 744 
Q 775 591 1075 516 
Q 1375 441 1709 441 
Q 2250 441 2565 725 
Q 2881 1009 2881 1497 
Q 2881 1984 2565 2268 
Q 2250 2553 1709 2553 
Q 1456 2553 1204 2497 
Q 953 2441 691 2322 
L 691 4666 
z
" transform="scale(0.015625)"/>
      <path id="DejaVuSans-44" d="M 1259 4147 
L 1259 519 
L 2022 519 
Q 2988 519 3436 956 
Q 3884 1394 3884 2338 
Q 3884 3275 3436 3711 
Q 2988 4147 2022 4147 
L 1259 4147 
z
M 628 4666 
L 1925 4666 
Q 3281 4666 3915 4102 
Q 4550 3538 4550 2338 
Q 4550 1131 3912 565 
Q 3275 0 1925 0 
L 628 0 
L 628 4666 
z
" transform="scale(0.015625)"/>
     </defs>
     <use xlink:href="#DejaVuSans-62"/>
     <use xlink:href="#DejaVuSans-62" x="63.476562"/>
     <use xlink:href="#DejaVuSans-6f" x="126.953125"/>
     <use xlink:href="#DejaVuSans-62" x="188.134766"/>
     <use xlink:href="#DejaVuSans-20" x="251.611328"/>
     <use xlink:href="#DejaVuSans-66" x="283.398438"/>
     <use xlink:href="#DejaVuSans-32" x="318.603516"/>
     <use xlink:href="#DejaVuSans-31" x="382.226562"/>
     <use xlink:href="#DejaVuSans-2c" x="445.849609"/>
     <use xlink:href="#DejaVuSans-20" x="477.636719"/>
     <use xlink:href="#DejaVuSans-35" x="509.423828"/>
     <use xlink:href="#DejaVuSans-2d" x="573.046875"/>
     <use xlink:href="#DejaVuSans-44" x="609.130859"/>
    </g>
    <!-- 51 targets: 100..1e-08 -->
    <g transform="translate(60.632064 49.533135)scale(0.102 -0.102)">
     <defs>
      <path id="DejaVuSans-3a" d="M 750 794 
L 1409 794 
L 1409 0 
L 750 0 
L 750 794 
z
M 750 3309 
L 1409 3309 
L 1409 2516 
L 750 2516 
L 750 3309 
z
" transform="scale(0.015625)"/>
     </defs>
     <use xlink:href="#DejaVuSans-35"/>
     <use xlink:href="#DejaVuSans-31" x="63.623047"/>
     <use xlink:href="#DejaVuSans-20" x="127.246094"/>
     <use xlink:href="#DejaVuSans-74" x="159.033203"/>
     <use xlink:href="#DejaVuSans-61" x="198.242188"/>
     <use xlink:href="#DejaVuSans-72" x="259.521484"/>
     <use xlink:href="#DejaVuSans-67" x="298.884766"/>
     <use xlink:href="#DejaVuSans-65" x="362.361328"/>
     <use xlink:href="#DejaVuSans-74" x="423.884766"/>
     <use xlink:href="#DejaVuSans-73" x="463.09375"/>
     <use xlink:href="#DejaVuSans-3a" x="515.193359"/>
     <use xlink:href="#DejaVuSans-20" x="548.884766"/>
     <use xlink:href="#DejaVuSans-31" x="580.671875"/>
     <use xlink:href="#DejaVuSans-30" x="644.294922"/>
     <use xlink:href="#DejaVuSans-30" x="707.917969"/>
     <use xlink:href="#DejaVuSans-2e" x="771.541016"/>
     <use xlink:href="#DejaVuSans-2e" x="803.328125"/>
     <use xlink:href="#DejaVuSans-31" x="835.115234"/>
     <use xlink:href="#DejaVuSans-65" x="898.738281"/>
     <use xlink:href="#DejaVuSans-2d" x="960.261719"/>
     <use xlink:href="#DejaVuSans-30" x="996.345703"/>
     <use xlink:href="#DejaVuSans-38" x="1059.96875"/>
    </g>
    <!-- 15 instances -->
    <g transform="translate(60.632064 60.954904)scale(0.102 -0.102)">
     <use xlink:href="#DejaVuSans-31"/>
     <use xlink:href="#DejaVuSans-35" x="63.623047"/>
     <use xlink:href="#DejaVuSans-20" x="127.246094"/>
     <use xlink:href="#DejaVuSans-69" x="159.033203"/>
     <use xlink:href="#DejaVuSans-6e" x="186.816406"/>
     <use xlink:href="#DejaVuSans-73" x="250.195312"/>
     <use xlink:href="#DejaVuSans-74" x="302.294922"/>
     <use xlink:href="#DejaVuSans-61" x="341.503906"/>
     <use xlink:href="#DejaVuSans-6e" x="402.783203"/>
     <use xlink:href="#DejaVuSans-63" x="466.162109"/>
     <use xlink:href="#DejaVuSans-65" x="521.142578"/>
     <use xlink:href="#DejaVuSans-73" x="582.666016"/>
    </g>
   </g>
   <g id="text_17">
    <!-- v2.6 -->
    <g style="fill: #808080" transform="translate(198.292262 294.151352)scale(0.1 -0.1)">
     <use xlink:href="#DejaVuSans-76"/>
     <use xlink:href="#DejaVuSans-32" x="59.179688"/>
     <use xlink:href="#DejaVuSans-2e" x="122.802734"/>
     <use xlink:href="#DejaVuSans-36" x="154.589844"/>
    </g>
   </g>
   <g id="text_18">
    <!-- 21 Gallagher 101 peaks -->
    <g transform="translate(89.7157 21.648)scale(0.2 -0.2)">
     <defs>
      <path id="DejaVuSans-68" d="M 3513 2113 
L 3513 0 
L 2938 0 
L 2938 2094 
Q 2938 2591 2744 2837 
Q 2550 3084 2163 3084 
Q 1697 3084 1428 2787 
Q 1159 2491 1159 1978 
L 1159 0 
L 581 0 
L 581 4863 
L 1159 4863 
L 1159 2956 
Q 1366 3272 1645 3428 
Q 1925 3584 2291 3584 
Q 2894 3584 3203 3211 
Q 3513 2838 3513 2113 
z
" transform="scale(0.015625)"/>
      <path id="DejaVuSans-6b" d="M 581 4863 
L 1159 4863 
L 1159 1991 
L 2875 3500 
L 3609 3500 
L 1753 1863 
L 3688 0 
L 2938 0 
L 1159 1709 
L 1159 0 
L 581 0 
L 581 4863 
z
" transform="scale(0.015625)"/>
     </defs>
     <use xlink:href="#DejaVuSans-32"/>
     <use xlink:href="#DejaVuSans-31" x="63.623047"/>
     <use xlink:href="#DejaVuSans-20" x="127.246094"/>
     <use xlink:href="#DejaVuSans-47" x="159.033203"/>
     <use xlink:href="#DejaVuSans-61" x="236.523438"/>
     <use xlink:href="#DejaVuSans-6c" x="297.802734"/>
     <use xlink:href="#DejaVuSans-6c" x="325.585938"/>
     <use xlink:href="#DejaVuSans-61" x="353.369141"/>
     <use xlink:href="#DejaVuSans-67" x="414.648438"/>
     <use xlink:href="#DejaVuSans-68" x="478.125"/>
     <use xlink:href="#DejaVuSans-65" x="541.503906"/>
     <use xlink:href="#DejaVuSans-72" x="603.027344"/>
     <use xlink:href="#DejaVuSans-20" x="644.140625"/>
     <use xlink:href="#DejaVuSans-31" x="675.927734"/>
     <use xlink:href="#DejaVuSans-30" x="739.550781"/>
     <use xlink:href="#DejaVuSans-31" x="803.173828"/>
     <use xlink:href="#DejaVuSans-20" x="866.796875"/>
     <use xlink:href="#DejaVuSans-70" x="898.583984"/>
     <use xlink:href="#DejaVuSans-65" x="962.060547"/>
     <use xlink:href="#DejaVuSans-61" x="1023.583984"/>
     <use xlink:href="#DejaVuSans-6b" x="1084.863281"/>
     <use xlink:href="#DejaVuSans-73" x="1142.773438"/>
    </g>
   </g>
  </g>
 </g>
 <defs>
  <clipPath id="p20ade39577">
   <rect x="57.6" y="27.648" width="303.2064" height="271.296"/>
  </clipPath>
 </defs>
</svg>
