<?xml version="1.0" encoding="utf-8" standalone="no"?>
<!DOCTYPE svg PUBLIC "-//W3C//DTD SVG 1.1//EN"
  "http://www.w3.org/Graphics/SVG/1.1/DTD/svg11.dtd">
<svg xmlns:xlink="http://www.w3.org/1999/xlink" width="460.8pt" height="345.6pt" viewBox="0 0 460.8 345.6" xmlns="http://www.w3.org/2000/svg" version="1.1">
 <metadata>
  <rdf:RDF xmlns:dc="http://purl.org/dc/elements/1.1/" xmlns:cc="http://creativecommons.org/ns#" xmlns:rdf="http://www.w3.org/1999/02/22-rdf-syntax-ns#">
   <cc:Work>
    <dc:type rdf:resource="http://purl.org/dc/dcmitype/StillImage"/>
    <dc:date>2024-05-29T07:59:54.823519</dc:date>
    <dc:format>image/svg+xml</dc:format>
    <dc:creator>
     <cc:Agent>
      <dc:title>Matplotlib v3.5.1, https://matplotlib.org/</dc:title>
     </cc:Agent>
    </dc:creator>
   </cc:Work>
  </rdf:RDF>
 </metadata>
 <defs>
  <style type="text/css">*{stroke-linejoin: round; stroke-linecap: butt}</style>
 </defs>
 <g id="figure_1">
  <g id="patch_1">
   <path d="M 0 345.6 
L 460.8 345.6 
L 460.8 0 
L 0 0 
z
" style="fill: #ffffff"/>
  </g>
  <g id="axes_1">
   <g id="patch_2">
    <path d="M 57.6 298.944 
L 360.8064 298.944 
L 360.8064 27.648 
L 57.6 27.648 
z
" style="fill: #ffffff"/>
   </g>
   <g id="line2d_1">
    <path d="M 27.323974 298.944 
L 27.323974 293.624471 
L 53.402323 293.624471 
L 53.402323 288.304941 
L 78.266603 288.304941 
L 78.266603 282.985412 
L 92.519847 282.985412 
L 92.519847 277.665882 
L 100.147275 277.665882 
L 100.147275 272.346353 
L 107.5116 272.346353 
L 107.5116 267.026824 
L 113.765312 267.026824 
L 113.765312 261.707294 
L 118.152051 261.707294 
L 118.152051 256.387765 
L 122.913079 256.387765 
L 122.913079 251.068235 
L 137.030737 251.068235 
L 137.030737 245.748706 
L 139.362521 245.748706 
L 139.362521 240.429176 
L 155.557358 240.429176 
L 155.557358 235.109647 
L 155.741887 235.109647 
L 155.741887 229.790118 
L 155.782649 229.790118 
L 155.782649 224.470588 
L 155.904407 224.470588 
L 155.904407 219.151059 
L 156.065535 219.151059 
L 156.065535 213.831529 
L 156.245169 213.831529 
L 156.245169 208.512 
L 156.462418 208.512 
L 156.462418 203.192471 
L 156.560344 203.192471 
L 156.560344 197.872941 
L 156.715973 197.872941 
L 156.715973 192.553412 
L 156.88953 192.553412 
L 156.88953 187.233882 
L 156.947029 187.233882 
L 156.947029 181.914353 
L 157.023421 181.914353 
L 157.023421 176.594824 
L 157.363398 176.594824 
L 157.363398 171.275294 
L 157.382107 171.275294 
L 157.382107 165.955765 
L 157.419468 165.955765 
L 157.419468 160.636235 
L 157.53111 160.636235 
L 157.53111 155.316706 
L 157.605171 155.316706 
L 157.605171 149.997176 
L 157.678942 149.997176 
L 157.678942 144.677647 
L 157.715719 144.677647 
L 157.715719 139.358118 
L 157.770751 139.358118 
L 157.770751 134.038588 
L 157.825621 134.038588 
L 157.825621 128.719059 
L 157.843876 128.719059 
L 157.843876 123.399529 
L 157.953034 123.399529 
L 157.953034 118.08 
L 157.971166 118.08 
L 157.971166 112.760471 
L 158.007377 112.760471 
L 158.007377 107.440941 
L 158.115593 107.440941 
L 158.115593 102.121412 
L 158.133569 102.121412 
L 158.133569 91.482353 
L 158.241064 91.482353 
L 158.241064 86.162824 
L 158.294582 86.162824 
L 158.294582 80.843294 
L 158.330176 80.843294 
L 158.330176 75.523765 
L 158.365703 75.523765 
L 158.365703 70.204235 
L 158.401163 70.204235 
L 158.401163 64.884706 
L 158.454228 64.884706 
L 158.454228 59.565176 
L 158.507144 59.565176 
L 158.507144 54.245647 
L 158.52475 54.245647 
L 158.52475 48.926118 
L 158.595008 48.926118 
L 158.595008 43.606588 
L 158.630038 43.606588 
L 158.630038 38.287059 
L 158.647529 38.287059 
L 158.647529 32.967529 
L 158.717331 32.967529 
L 158.717331 27.648 
L 360.8064 27.648 
" style="fill: none; stroke: #f5deb3; stroke-width: 4; stroke-linecap: square"/>
   </g>
   <g id="line2d_2">
    <defs>
     <path id="mcb7a230196" d="M 0 7.778175 
L 7.778175 0 
L 0 -7.778175 
L -7.778175 0 
z
" style="stroke: #f5deb3; stroke-width: 1.5; stroke-linejoin: miter"/>
    </defs>
    <g>
     <use xlink:href="#mcb7a230196" x="156.065535" y="219.151059" style="fill: #f5deb3; stroke: #f5deb3; stroke-width: 1.5; stroke-linejoin: miter"/>
     <use xlink:href="#mcb7a230196" x="157.953034" y="123.399529" style="fill: #f5deb3; stroke: #f5deb3; stroke-width: 1.5; stroke-linejoin: miter"/>
     <use xlink:href="#mcb7a230196" x="158.717331" y="32.967529" style="fill: #f5deb3; stroke: #f5deb3; stroke-width: 1.5; stroke-linejoin: miter"/>
     <use xlink:href="#mcb7a230196" x="158.717331" y="27.648" style="fill: #f5deb3; stroke: #f5deb3; stroke-width: 1.5; stroke-linejoin: miter"/>
     <use xlink:href="#mcb7a230196" x="158.717331" y="27.648" style="fill: #f5deb3; stroke: #f5deb3; stroke-width: 1.5; stroke-linejoin: miter"/>
     <use xlink:href="#mcb7a230196" x="360.8064" y="27.648" style="fill: #f5deb3; stroke: #f5deb3; stroke-width: 1.5; stroke-linejoin: miter"/>
    </g>
   </g>
   <g id="line2d_3">
    <path style="fill: none; stroke: #f5deb3; stroke-width: 4; stroke-linecap: square"/>
    <g/>
   </g>
   <g id="line2d_4">
    <path d="M 360.8064 27.648 
L 380.514816 33.07392 
" style="fill: none; stroke: #f5deb3; stroke-width: 4; stroke-linecap: square"/>
    <g>
     <use xlink:href="#mcb7a230196" x="360.8064" y="27.648" style="fill: #f5deb3; stroke: #f5deb3; stroke-width: 1.5; stroke-linejoin: miter"/>
     <use xlink:href="#mcb7a230196" x="380.514816" y="33.07392" style="fill: #f5deb3; stroke: #f5deb3; stroke-width: 1.5; stroke-linejoin: miter"/>
    </g>
   </g>
   <g id="matplotlib.axis_1">
    <g id="xtick_1">
     <g id="line2d_5">
      <path d="M 57.6 298.944 
L 57.6 27.648 
" clip-path="url(#peb23d2eff2)" style="fill: none; stroke: #b0b0b0; stroke-width: 0.8; stroke-linecap: square"/>
     </g>
     <g id="line2d_6">
      <defs>
       <path id="m958a8f4a66" d="M 0 0 
L 0 3.5 
" style="stroke: #000000; stroke-width: 0.8"/>
      </defs>
      <g>
       <use xlink:href="#m958a8f4a66" x="57.6" y="298.944" style="stroke: #000000; stroke-width: 0.8"/>
      </g>
     </g>
     <g id="text_1">
      <!-- 0 -->
      <g transform="translate(52.191875 318.861344)scale(0.17 -0.17)">
       <defs>
        <path id="DejaVuSans-30" d="M 2034 4250 
Q 1547 4250 1301 3770 
Q 1056 3291 1056 2328 
Q 1056 1369 1301 889 
Q 1547 409 2034 409 
Q 2525 409 2770 889 
Q 3016 1369 3016 2328 
Q 3016 3291 2770 3770 
Q 2525 4250 2034 4250 
z
M 2034 4750 
Q 2819 4750 3233 4129 
Q 3647 3509 3647 2328 
Q 3647 1150 3233 529 
Q 2819 -91 2034 -91 
Q 1250 -91 836 529 
Q 422 1150 422 2328 
Q 422 3509 836 4129 
Q 1250 4750 2034 4750 
z
" transform="scale(0.015625)"/>
       </defs>
       <use xlink:href="#DejaVuSans-30"/>
      </g>
     </g>
    </g>
    <g id="xtick_2">
     <g id="line2d_7">
      <path d="M 144.2304 298.944 
L 144.2304 27.648 
" clip-path="url(#peb23d2eff2)" style="fill: none; stroke: #b0b0b0; stroke-width: 0.8; stroke-linecap: square"/>
     </g>
     <g id="line2d_8">
      <g>
       <use xlink:href="#m958a8f4a66" x="144.2304" y="298.944" style="stroke: #000000; stroke-width: 0.8"/>
      </g>
     </g>
     <g id="text_2">
      <!-- 2 -->
      <g transform="translate(138.822275 318.861344)scale(0.17 -0.17)">
       <defs>
        <path id="DejaVuSans-32" d="M 1228 531 
L 3431 531 
L 3431 0 
L 469 0 
L 469 531 
Q 828 903 1448 1529 
Q 2069 2156 2228 2338 
Q 2531 2678 2651 2914 
Q 2772 3150 2772 3378 
Q 2772 3750 2511 3984 
Q 2250 4219 1831 4219 
Q 1534 4219 1204 4116 
Q 875 4013 500 3803 
L 500 4441 
Q 881 4594 1212 4672 
Q 1544 4750 1819 4750 
Q 2544 4750 2975 4387 
Q 3406 4025 3406 3419 
Q 3406 3131 3298 2873 
Q 3191 2616 2906 2266 
Q 2828 2175 2409 1742 
Q 1991 1309 1228 531 
z
" transform="scale(0.015625)"/>
       </defs>
       <use xlink:href="#DejaVuSans-32"/>
      </g>
     </g>
    </g>
    <g id="xtick_3">
     <g id="line2d_9">
      <path d="M 230.8608 298.944 
L 230.8608 27.648 
" clip-path="url(#peb23d2eff2)" style="fill: none; stroke: #b0b0b0; stroke-width: 0.8; stroke-linecap: square"/>
     </g>
     <g id="line2d_10">
      <g>
       <use xlink:href="#m958a8f4a66" x="230.8608" y="298.944" style="stroke: #000000; stroke-width: 0.8"/>
      </g>
     </g>
     <g id="text_3">
      <!-- 4 -->
      <g transform="translate(225.452675 318.861344)scale(0.17 -0.17)">
       <defs>
        <path id="DejaVuSans-34" d="M 2419 4116 
L 825 1625 
L 2419 1625 
L 2419 4116 
z
M 2253 4666 
L 3047 4666 
L 3047 1625 
L 3713 1625 
L 3713 1100 
L 3047 1100 
L 3047 0 
L 2419 0 
L 2419 1100 
L 313 1100 
L 313 1709 
L 2253 4666 
z
" transform="scale(0.015625)"/>
       </defs>
       <use xlink:href="#DejaVuSans-34"/>
      </g>
     </g>
    </g>
    <g id="xtick_4">
     <g id="line2d_11">
      <path d="M 317.4912 298.944 
L 317.4912 27.648 
" clip-path="url(#peb23d2eff2)" style="fill: none; stroke: #b0b0b0; stroke-width: 0.8; stroke-linecap: square"/>
     </g>
     <g id="line2d_12">
      <g>
       <use xlink:href="#m958a8f4a66" x="317.4912" y="298.944" style="stroke: #000000; stroke-width: 0.8"/>
      </g>
     </g>
     <g id="text_4">
      <!-- 6 -->
      <g transform="translate(312.083075 318.861344)scale(0.17 -0.17)">
       <defs>
        <path id="DejaVuSans-36" d="M 2113 2584 
Q 1688 2584 1439 2293 
Q 1191 2003 1191 1497 
Q 1191 994 1439 701 
Q 1688 409 2113 409 
Q 2538 409 2786 701 
Q 3034 994 3034 1497 
Q 3034 2003 2786 2293 
Q 2538 2584 2113 2584 
z
M 3366 4563 
L 3366 3988 
Q 3128 4100 2886 4159 
Q 2644 4219 2406 4219 
Q 1781 4219 1451 3797 
Q 1122 3375 1075 2522 
Q 1259 2794 1537 2939 
Q 1816 3084 2150 3084 
Q 2853 3084 3261 2657 
Q 3669 2231 3669 1497 
Q 3669 778 3244 343 
Q 2819 -91 2113 -91 
Q 1303 -91 875 529 
Q 447 1150 447 2328 
Q 447 3434 972 4092 
Q 1497 4750 2381 4750 
Q 2619 4750 2861 4703 
Q 3103 4656 3366 4563 
z
" transform="scale(0.015625)"/>
       </defs>
       <use xlink:href="#DejaVuSans-36"/>
      </g>
     </g>
    </g>
    <g id="xtick_5">
     <g id="line2d_13">
      <path d="M 100.9152 298.944 
L 100.9152 27.648 
" clip-path="url(#peb23d2eff2)" style="fill: none; stroke: #b0b0b0; stroke-width: 0.8; stroke-linecap: square"/>
     </g>
     <g id="line2d_14">
      <defs>
       <path id="m6d14331fdc" d="M 0 0 
L 0 2 
" style="stroke: #000000; stroke-width: 0.6"/>
      </defs>
      <g>
       <use xlink:href="#m6d14331fdc" x="100.9152" y="298.944" style="stroke: #000000; stroke-width: 0.6"/>
      </g>
     </g>
    </g>
    <g id="xtick_6">
     <g id="line2d_15">
      <path d="M 187.5456 298.944 
L 187.5456 27.648 
" clip-path="url(#peb23d2eff2)" style="fill: none; stroke: #b0b0b0; stroke-width: 0.8; stroke-linecap: square"/>
     </g>
     <g id="line2d_16">
      <g>
       <use xlink:href="#m6d14331fdc" x="187.5456" y="298.944" style="stroke: #000000; stroke-width: 0.6"/>
      </g>
     </g>
    </g>
    <g id="xtick_7">
     <g id="line2d_17">
      <path d="M 274.176 298.944 
L 274.176 27.648 
" clip-path="url(#peb23d2eff2)" style="fill: none; stroke: #b0b0b0; stroke-width: 0.8; stroke-linecap: square"/>
     </g>
     <g id="line2d_18">
      <g>
       <use xlink:href="#m6d14331fdc" x="274.176" y="298.944" style="stroke: #000000; stroke-width: 0.6"/>
      </g>
     </g>
    </g>
    <g id="xtick_8">
     <g id="line2d_19">
      <path d="M 360.8064 298.944 
L 360.8064 27.648 
" clip-path="url(#peb23d2eff2)" style="fill: none; stroke: #b0b0b0; stroke-width: 0.8; stroke-linecap: square"/>
     </g>
     <g id="line2d_20">
      <g>
       <use xlink:href="#m6d14331fdc" x="360.8064" y="298.944" style="stroke: #000000; stroke-width: 0.6"/>
      </g>
     </g>
    </g>
    <g id="text_5">
     <!-- log10(# f-evals / dimension) -->
     <g transform="translate(88.823278 339.314156)scale(0.17 -0.17)">
      <defs>
       <path id="DejaVuSans-6c" d="M 603 4863 
L 1178 4863 
L 1178 0 
L 603 0 
L 603 4863 
z
" transform="scale(0.015625)"/>
       <path id="DejaVuSans-6f" d="M 1959 3097 
Q 1497 3097 1228 2736 
Q 959 2375 959 1747 
Q 959 1119 1226 758 
Q 1494 397 1959 397 
Q 2419 397 2687 759 
Q 2956 1122 2956 1747 
Q 2956 2369 2687 2733 
Q 2419 3097 1959 3097 
z
M 1959 3584 
Q 2709 3584 3137 3096 
Q 3566 2609 3566 1747 
Q 3566 888 3137 398 
Q 2709 -91 1959 -91 
Q 1206 -91 779 398 
Q 353 888 353 1747 
Q 353 2609 779 3096 
Q 1206 3584 1959 3584 
z
" transform="scale(0.015625)"/>
       <path id="DejaVuSans-67" d="M 2906 1791 
Q 2906 2416 2648 2759 
Q 2391 3103 1925 3103 
Q 1463 3103 1205 2759 
Q 947 2416 947 1791 
Q 947 1169 1205 825 
Q 1463 481 1925 481 
Q 2391 481 2648 825 
Q 2906 1169 2906 1791 
z
M 3481 434 
Q 3481 -459 3084 -895 
Q 2688 -1331 1869 -1331 
Q 1566 -1331 1297 -1286 
Q 1028 -1241 775 -1147 
L 775 -588 
Q 1028 -725 1275 -790 
Q 1522 -856 1778 -856 
Q 2344 -856 2625 -561 
Q 2906 -266 2906 331 
L 2906 616 
Q 2728 306 2450 153 
Q 2172 0 1784 0 
Q 1141 0 747 490 
Q 353 981 353 1791 
Q 353 2603 747 3093 
Q 1141 3584 1784 3584 
Q 2172 3584 2450 3431 
Q 2728 3278 2906 2969 
L 2906 3500 
L 3481 3500 
L 3481 434 
z
" transform="scale(0.015625)"/>
       <path id="DejaVuSans-31" d="M 794 531 
L 1825 531 
L 1825 4091 
L 703 3866 
L 703 4441 
L 1819 4666 
L 2450 4666 
L 2450 531 
L 3481 531 
L 3481 0 
L 794 0 
L 794 531 
z
" transform="scale(0.015625)"/>
       <path id="DejaVuSans-28" d="M 1984 4856 
Q 1566 4138 1362 3434 
Q 1159 2731 1159 2009 
Q 1159 1288 1364 580 
Q 1569 -128 1984 -844 
L 1484 -844 
Q 1016 -109 783 600 
Q 550 1309 550 2009 
Q 550 2706 781 3412 
Q 1013 4119 1484 4856 
L 1984 4856 
z
" transform="scale(0.015625)"/>
       <path id="DejaVuSans-23" d="M 3272 2816 
L 2363 2816 
L 2100 1772 
L 3016 1772 
L 3272 2816 
z
M 2803 4594 
L 2478 3297 
L 3391 3297 
L 3719 4594 
L 4219 4594 
L 3897 3297 
L 4872 3297 
L 4872 2816 
L 3775 2816 
L 3519 1772 
L 4513 1772 
L 4513 1294 
L 3397 1294 
L 3072 0 
L 2572 0 
L 2894 1294 
L 1978 1294 
L 1656 0 
L 1153 0 
L 1478 1294 
L 494 1294 
L 494 1772 
L 1594 1772 
L 1856 2816 
L 850 2816 
L 850 3297 
L 1978 3297 
L 2297 4594 
L 2803 4594 
z
" transform="scale(0.015625)"/>
       <path id="DejaVuSans-20" transform="scale(0.015625)"/>
       <path id="DejaVuSans-66" d="M 2375 4863 
L 2375 4384 
L 1825 4384 
Q 1516 4384 1395 4259 
Q 1275 4134 1275 3809 
L 1275 3500 
L 2222 3500 
L 2222 3053 
L 1275 3053 
L 1275 0 
L 697 0 
L 697 3053 
L 147 3053 
L 147 3500 
L 697 3500 
L 697 3744 
Q 697 4328 969 4595 
Q 1241 4863 1831 4863 
L 2375 4863 
z
" transform="scale(0.015625)"/>
       <path id="DejaVuSans-2d" d="M 313 2009 
L 1997 2009 
L 1997 1497 
L 313 1497 
L 313 2009 
z
" transform="scale(0.015625)"/>
       <path id="DejaVuSans-65" d="M 3597 1894 
L 3597 1613 
L 953 1613 
Q 991 1019 1311 708 
Q 1631 397 2203 397 
Q 2534 397 2845 478 
Q 3156 559 3463 722 
L 3463 178 
Q 3153 47 2828 -22 
Q 2503 -91 2169 -91 
Q 1331 -91 842 396 
Q 353 884 353 1716 
Q 353 2575 817 3079 
Q 1281 3584 2069 3584 
Q 2775 3584 3186 3129 
Q 3597 2675 3597 1894 
z
M 3022 2063 
Q 3016 2534 2758 2815 
Q 2500 3097 2075 3097 
Q 1594 3097 1305 2825 
Q 1016 2553 972 2059 
L 3022 2063 
z
" transform="scale(0.015625)"/>
       <path id="DejaVuSans-76" d="M 191 3500 
L 800 3500 
L 1894 563 
L 2988 3500 
L 3597 3500 
L 2284 0 
L 1503 0 
L 191 3500 
z
" transform="scale(0.015625)"/>
       <path id="DejaVuSans-61" d="M 2194 1759 
Q 1497 1759 1228 1600 
Q 959 1441 959 1056 
Q 959 750 1161 570 
Q 1363 391 1709 391 
Q 2188 391 2477 730 
Q 2766 1069 2766 1631 
L 2766 1759 
L 2194 1759 
z
M 3341 1997 
L 3341 0 
L 2766 0 
L 2766 531 
Q 2569 213 2275 61 
Q 1981 -91 1556 -91 
Q 1019 -91 701 211 
Q 384 513 384 1019 
Q 384 1609 779 1909 
Q 1175 2209 1959 2209 
L 2766 2209 
L 2766 2266 
Q 2766 2663 2505 2880 
Q 2244 3097 1772 3097 
Q 1472 3097 1187 3025 
Q 903 2953 641 2809 
L 641 3341 
Q 956 3463 1253 3523 
Q 1550 3584 1831 3584 
Q 2591 3584 2966 3190 
Q 3341 2797 3341 1997 
z
" transform="scale(0.015625)"/>
       <path id="DejaVuSans-73" d="M 2834 3397 
L 2834 2853 
Q 2591 2978 2328 3040 
Q 2066 3103 1784 3103 
Q 1356 3103 1142 2972 
Q 928 2841 928 2578 
Q 928 2378 1081 2264 
Q 1234 2150 1697 2047 
L 1894 2003 
Q 2506 1872 2764 1633 
Q 3022 1394 3022 966 
Q 3022 478 2636 193 
Q 2250 -91 1575 -91 
Q 1294 -91 989 -36 
Q 684 19 347 128 
L 347 722 
Q 666 556 975 473 
Q 1284 391 1588 391 
Q 1994 391 2212 530 
Q 2431 669 2431 922 
Q 2431 1156 2273 1281 
Q 2116 1406 1581 1522 
L 1381 1569 
Q 847 1681 609 1914 
Q 372 2147 372 2553 
Q 372 3047 722 3315 
Q 1072 3584 1716 3584 
Q 2034 3584 2315 3537 
Q 2597 3491 2834 3397 
z
" transform="scale(0.015625)"/>
       <path id="DejaVuSans-2f" d="M 1625 4666 
L 2156 4666 
L 531 -594 
L 0 -594 
L 1625 4666 
z
" transform="scale(0.015625)"/>
       <path id="DejaVuSans-64" d="M 2906 2969 
L 2906 4863 
L 3481 4863 
L 3481 0 
L 2906 0 
L 2906 525 
Q 2725 213 2448 61 
Q 2172 -91 1784 -91 
Q 1150 -91 751 415 
Q 353 922 353 1747 
Q 353 2572 751 3078 
Q 1150 3584 1784 3584 
Q 2172 3584 2448 3432 
Q 2725 3281 2906 2969 
z
M 947 1747 
Q 947 1113 1208 752 
Q 1469 391 1925 391 
Q 2381 391 2643 752 
Q 2906 1113 2906 1747 
Q 2906 2381 2643 2742 
Q 2381 3103 1925 3103 
Q 1469 3103 1208 2742 
Q 947 2381 947 1747 
z
" transform="scale(0.015625)"/>
       <path id="DejaVuSans-69" d="M 603 3500 
L 1178 3500 
L 1178 0 
L 603 0 
L 603 3500 
z
M 603 4863 
L 1178 4863 
L 1178 4134 
L 603 4134 
L 603 4863 
z
" transform="scale(0.015625)"/>
       <path id="DejaVuSans-6d" d="M 3328 2828 
Q 3544 3216 3844 3400 
Q 4144 3584 4550 3584 
Q 5097 3584 5394 3201 
Q 5691 2819 5691 2113 
L 5691 0 
L 5113 0 
L 5113 2094 
Q 5113 2597 4934 2840 
Q 4756 3084 4391 3084 
Q 3944 3084 3684 2787 
Q 3425 2491 3425 1978 
L 3425 0 
L 2847 0 
L 2847 2094 
Q 2847 2600 2669 2842 
Q 2491 3084 2119 3084 
Q 1678 3084 1418 2786 
Q 1159 2488 1159 1978 
L 1159 0 
L 581 0 
L 581 3500 
L 1159 3500 
L 1159 2956 
Q 1356 3278 1631 3431 
Q 1906 3584 2284 3584 
Q 2666 3584 2933 3390 
Q 3200 3197 3328 2828 
z
" transform="scale(0.015625)"/>
       <path id="DejaVuSans-6e" d="M 3513 2113 
L 3513 0 
L 2938 0 
L 2938 2094 
Q 2938 2591 2744 2837 
Q 2550 3084 2163 3084 
Q 1697 3084 1428 2787 
Q 1159 2491 1159 1978 
L 1159 0 
L 581 0 
L 581 3500 
L 1159 3500 
L 1159 2956 
Q 1366 3272 1645 3428 
Q 1925 3584 2291 3584 
Q 2894 3584 3203 3211 
Q 3513 2838 3513 2113 
z
" transform="scale(0.015625)"/>
       <path id="DejaVuSans-29" d="M 513 4856 
L 1013 4856 
Q 1481 4119 1714 3412 
Q 1947 2706 1947 2009 
Q 1947 1309 1714 600 
Q 1481 -109 1013 -844 
L 513 -844 
Q 928 -128 1133 580 
Q 1338 1288 1338 2009 
Q 1338 2731 1133 3434 
Q 928 4138 513 4856 
z
" transform="scale(0.015625)"/>
      </defs>
      <use xlink:href="#DejaVuSans-6c"/>
      <use xlink:href="#DejaVuSans-6f" x="27.783203"/>
      <use xlink:href="#DejaVuSans-67" x="88.964844"/>
      <use xlink:href="#DejaVuSans-31" x="152.441406"/>
      <use xlink:href="#DejaVuSans-30" x="216.064453"/>
      <use xlink:href="#DejaVuSans-28" x="279.6875"/>
      <use xlink:href="#DejaVuSans-23" x="318.701172"/>
      <use xlink:href="#DejaVuSans-20" x="402.490234"/>
      <use xlink:href="#DejaVuSans-66" x="434.277344"/>
      <use xlink:href="#DejaVuSans-2d" x="463.982422"/>
      <use xlink:href="#DejaVuSans-65" x="500.066406"/>
      <use xlink:href="#DejaVuSans-76" x="561.589844"/>
      <use xlink:href="#DejaVuSans-61" x="620.769531"/>
      <use xlink:href="#DejaVuSans-6c" x="682.048828"/>
      <use xlink:href="#DejaVuSans-73" x="709.832031"/>
      <use xlink:href="#DejaVuSans-20" x="761.931641"/>
      <use xlink:href="#DejaVuSans-2f" x="793.71875"/>
      <use xlink:href="#DejaVuSans-20" x="827.410156"/>
      <use xlink:href="#DejaVuSans-64" x="859.197266"/>
      <use xlink:href="#DejaVuSans-69" x="922.673828"/>
      <use xlink:href="#DejaVuSans-6d" x="950.457031"/>
      <use xlink:href="#DejaVuSans-65" x="1047.869141"/>
      <use xlink:href="#DejaVuSans-6e" x="1109.392578"/>
      <use xlink:href="#DejaVuSans-73" x="1172.771484"/>
      <use xlink:href="#DejaVuSans-69" x="1224.871094"/>
      <use xlink:href="#DejaVuSans-6f" x="1252.654297"/>
      <use xlink:href="#DejaVuSans-6e" x="1313.835938"/>
      <use xlink:href="#DejaVuSans-29" x="1377.214844"/>
     </g>
    </g>
   </g>
   <g id="matplotlib.axis_2">
    <g id="ytick_1">
     <g id="line2d_21">
      <path d="M 57.6 298.944 
L 360.8064 298.944 
" clip-path="url(#peb23d2eff2)" style="fill: none; stroke: #b0b0b0; stroke-width: 0.8; stroke-linecap: square"/>
     </g>
     <g id="line2d_22">
      <defs>
       <path id="m15b5d98e8f" d="M 0 0 
L -3.5 0 
" style="stroke: #000000; stroke-width: 0.8"/>
      </defs>
      <g>
       <use xlink:href="#m15b5d98e8f" x="57.6" y="298.944" style="stroke: #000000; stroke-width: 0.8"/>
      </g>
     </g>
     <g id="text_6">
      <!-- 0.0 -->
      <g transform="translate(25.155 305.02275)scale(0.16 -0.16)">
       <defs>
        <path id="DejaVuSans-2e" d="M 684 794 
L 1344 794 
L 1344 0 
L 684 0 
L 684 794 
z
" transform="scale(0.015625)"/>
       </defs>
       <use xlink:href="#DejaVuSans-30"/>
       <use xlink:href="#DejaVuSans-2e" x="63.623047"/>
       <use xlink:href="#DejaVuSans-30" x="95.410156"/>
      </g>
     </g>
    </g>
    <g id="ytick_2">
     <g id="line2d_23">
      <path d="M 57.6 244.6848 
L 360.8064 244.6848 
" clip-path="url(#peb23d2eff2)" style="fill: none; stroke: #b0b0b0; stroke-width: 0.8; stroke-linecap: square"/>
     </g>
     <g id="line2d_24">
      <g>
       <use xlink:href="#m15b5d98e8f" x="57.6" y="244.6848" style="stroke: #000000; stroke-width: 0.8"/>
      </g>
     </g>
     <g id="text_7">
      <!-- 0.2 -->
      <g transform="translate(25.155 250.76355)scale(0.16 -0.16)">
       <use xlink:href="#DejaVuSans-30"/>
       <use xlink:href="#DejaVuSans-2e" x="63.623047"/>
       <use xlink:href="#DejaVuSans-32" x="95.410156"/>
      </g>
     </g>
    </g>
    <g id="ytick_3">
     <g id="line2d_25">
      <path d="M 57.6 190.4256 
L 360.8064 190.4256 
" clip-path="url(#peb23d2eff2)" style="fill: none; stroke: #b0b0b0; stroke-width: 0.8; stroke-linecap: square"/>
     </g>
     <g id="line2d_26">
      <g>
       <use xlink:href="#m15b5d98e8f" x="57.6" y="190.4256" style="stroke: #000000; stroke-width: 0.8"/>
      </g>
     </g>
     <g id="text_8">
      <!-- 0.4 -->
      <g transform="translate(25.155 196.50435)scale(0.16 -0.16)">
       <use xlink:href="#DejaVuSans-30"/>
       <use xlink:href="#DejaVuSans-2e" x="63.623047"/>
       <use xlink:href="#DejaVuSans-34" x="95.410156"/>
      </g>
     </g>
    </g>
    <g id="ytick_4">
     <g id="line2d_27">
      <path d="M 57.6 136.1664 
L 360.8064 136.1664 
" clip-path="url(#peb23d2eff2)" style="fill: none; stroke: #b0b0b0; stroke-width: 0.8; stroke-linecap: square"/>
     </g>
     <g id="line2d_28">
      <g>
       <use xlink:href="#m15b5d98e8f" x="57.6" y="136.1664" style="stroke: #000000; stroke-width: 0.8"/>
      </g>
     </g>
     <g id="text_9">
      <!-- 0.6 -->
      <g transform="translate(25.155 142.24515)scale(0.16 -0.16)">
       <use xlink:href="#DejaVuSans-30"/>
       <use xlink:href="#DejaVuSans-2e" x="63.623047"/>
       <use xlink:href="#DejaVuSans-36" x="95.410156"/>
      </g>
     </g>
    </g>
    <g id="ytick_5">
     <g id="line2d_29">
      <path d="M 57.6 81.9072 
L 360.8064 81.9072 
" clip-path="url(#peb23d2eff2)" style="fill: none; stroke: #b0b0b0; stroke-width: 0.8; stroke-linecap: square"/>
     </g>
     <g id="line2d_30">
      <g>
       <use xlink:href="#m15b5d98e8f" x="57.6" y="81.9072" style="stroke: #000000; stroke-width: 0.8"/>
      </g>
     </g>
     <g id="text_10">
      <!-- 0.8 -->
      <g transform="translate(25.155 87.98595)scale(0.16 -0.16)">
       <defs>
        <path id="DejaVuSans-38" d="M 2034 2216 
Q 1584 2216 1326 1975 
Q 1069 1734 1069 1313 
Q 1069 891 1326 650 
Q 1584 409 2034 409 
Q 2484 409 2743 651 
Q 3003 894 3003 1313 
Q 3003 1734 2745 1975 
Q 2488 2216 2034 2216 
z
M 1403 2484 
Q 997 2584 770 2862 
Q 544 3141 544 3541 
Q 544 4100 942 4425 
Q 1341 4750 2034 4750 
Q 2731 4750 3128 4425 
Q 3525 4100 3525 3541 
Q 3525 3141 3298 2862 
Q 3072 2584 2669 2484 
Q 3125 2378 3379 2068 
Q 3634 1759 3634 1313 
Q 3634 634 3220 271 
Q 2806 -91 2034 -91 
Q 1263 -91 848 271 
Q 434 634 434 1313 
Q 434 1759 690 2068 
Q 947 2378 1403 2484 
z
M 1172 3481 
Q 1172 3119 1398 2916 
Q 1625 2713 2034 2713 
Q 2441 2713 2670 2916 
Q 2900 3119 2900 3481 
Q 2900 3844 2670 4047 
Q 2441 4250 2034 4250 
Q 1625 4250 1398 4047 
Q 1172 3844 1172 3481 
z
" transform="scale(0.015625)"/>
       </defs>
       <use xlink:href="#DejaVuSans-30"/>
       <use xlink:href="#DejaVuSans-2e" x="63.623047"/>
       <use xlink:href="#DejaVuSans-38" x="95.410156"/>
      </g>
     </g>
    </g>
    <g id="ytick_6">
     <g id="line2d_31">
      <path d="M 57.6 27.648 
L 360.8064 27.648 
" clip-path="url(#peb23d2eff2)" style="fill: none; stroke: #b0b0b0; stroke-width: 0.8; stroke-linecap: square"/>
     </g>
     <g id="line2d_32">
      <g>
       <use xlink:href="#m15b5d98e8f" x="57.6" y="27.648" style="stroke: #000000; stroke-width: 0.8"/>
      </g>
     </g>
     <g id="text_11">
      <!-- 1.0 -->
      <g transform="translate(25.155 33.72675)scale(0.16 -0.16)">
       <use xlink:href="#DejaVuSans-31"/>
       <use xlink:href="#DejaVuSans-2e" x="63.623047"/>
       <use xlink:href="#DejaVuSans-30" x="95.410156"/>
      </g>
     </g>
    </g>
    <g id="text_12">
     <!-- Fraction of function,target pairs -->
     <g transform="translate(17.619531 297.681)rotate(-90)scale(0.17 -0.17)">
      <defs>
       <path id="DejaVuSans-46" d="M 628 4666 
L 3309 4666 
L 3309 4134 
L 1259 4134 
L 1259 2759 
L 3109 2759 
L 3109 2228 
L 1259 2228 
L 1259 0 
L 628 0 
L 628 4666 
z
" transform="scale(0.015625)"/>
       <path id="DejaVuSans-72" d="M 2631 2963 
Q 2534 3019 2420 3045 
Q 2306 3072 2169 3072 
Q 1681 3072 1420 2755 
Q 1159 2438 1159 1844 
L 1159 0 
L 581 0 
L 581 3500 
L 1159 3500 
L 1159 2956 
Q 1341 3275 1631 3429 
Q 1922 3584 2338 3584 
Q 2397 3584 2469 3576 
Q 2541 3569 2628 3553 
L 2631 2963 
z
" transform="scale(0.015625)"/>
       <path id="DejaVuSans-63" d="M 3122 3366 
L 3122 2828 
Q 2878 2963 2633 3030 
Q 2388 3097 2138 3097 
Q 1578 3097 1268 2742 
Q 959 2388 959 1747 
Q 959 1106 1268 751 
Q 1578 397 2138 397 
Q 2388 397 2633 464 
Q 2878 531 3122 666 
L 3122 134 
Q 2881 22 2623 -34 
Q 2366 -91 2075 -91 
Q 1284 -91 818 406 
Q 353 903 353 1747 
Q 353 2603 823 3093 
Q 1294 3584 2113 3584 
Q 2378 3584 2631 3529 
Q 2884 3475 3122 3366 
z
" transform="scale(0.015625)"/>
       <path id="DejaVuSans-74" d="M 1172 4494 
L 1172 3500 
L 2356 3500 
L 2356 3053 
L 1172 3053 
L 1172 1153 
Q 1172 725 1289 603 
Q 1406 481 1766 481 
L 2356 481 
L 2356 0 
L 1766 0 
Q 1100 0 847 248 
Q 594 497 594 1153 
L 594 3053 
L 172 3053 
L 172 3500 
L 594 3500 
L 594 4494 
L 1172 4494 
z
" transform="scale(0.015625)"/>
       <path id="DejaVuSans-75" d="M 544 1381 
L 544 3500 
L 1119 3500 
L 1119 1403 
Q 1119 906 1312 657 
Q 1506 409 1894 409 
Q 2359 409 2629 706 
Q 2900 1003 2900 1516 
L 2900 3500 
L 3475 3500 
L 3475 0 
L 2900 0 
L 2900 538 
Q 2691 219 2414 64 
Q 2138 -91 1772 -91 
Q 1169 -91 856 284 
Q 544 659 544 1381 
z
M 1991 3584 
L 1991 3584 
z
" transform="scale(0.015625)"/>
       <path id="DejaVuSans-2c" d="M 750 794 
L 1409 794 
L 1409 256 
L 897 -744 
L 494 -744 
L 750 256 
L 750 794 
z
" transform="scale(0.015625)"/>
       <path id="DejaVuSans-70" d="M 1159 525 
L 1159 -1331 
L 581 -1331 
L 581 3500 
L 1159 3500 
L 1159 2969 
Q 1341 3281 1617 3432 
Q 1894 3584 2278 3584 
Q 2916 3584 3314 3078 
Q 3713 2572 3713 1747 
Q 3713 922 3314 415 
Q 2916 -91 2278 -91 
Q 1894 -91 1617 61 
Q 1341 213 1159 525 
z
M 3116 1747 
Q 3116 2381 2855 2742 
Q 2594 3103 2138 3103 
Q 1681 3103 1420 2742 
Q 1159 2381 1159 1747 
Q 1159 1113 1420 752 
Q 1681 391 2138 391 
Q 2594 391 2855 752 
Q 3116 1113 3116 1747 
z
" transform="scale(0.015625)"/>
      </defs>
      <use xlink:href="#DejaVuSans-46"/>
      <use xlink:href="#DejaVuSans-72" x="50.269531"/>
      <use xlink:href="#DejaVuSans-61" x="91.382812"/>
      <use xlink:href="#DejaVuSans-63" x="152.662109"/>
      <use xlink:href="#DejaVuSans-74" x="207.642578"/>
      <use xlink:href="#DejaVuSans-69" x="246.851562"/>
      <use xlink:href="#DejaVuSans-6f" x="274.634766"/>
      <use xlink:href="#DejaVuSans-6e" x="335.816406"/>
      <use xlink:href="#DejaVuSans-20" x="399.195312"/>
      <use xlink:href="#DejaVuSans-6f" x="430.982422"/>
      <use xlink:href="#DejaVuSans-66" x="492.164062"/>
      <use xlink:href="#DejaVuSans-20" x="527.369141"/>
      <use xlink:href="#DejaVuSans-66" x="559.15625"/>
      <use xlink:href="#DejaVuSans-75" x="594.361328"/>
      <use xlink:href="#DejaVuSans-6e" x="657.740234"/>
      <use xlink:href="#DejaVuSans-63" x="721.119141"/>
      <use xlink:href="#DejaVuSans-74" x="776.099609"/>
      <use xlink:href="#DejaVuSans-69" x="815.308594"/>
      <use xlink:href="#DejaVuSans-6f" x="843.091797"/>
      <use xlink:href="#DejaVuSans-6e" x="904.273438"/>
      <use xlink:href="#DejaVuSans-2c" x="967.652344"/>
      <use xlink:href="#DejaVuSans-74" x="999.439453"/>
      <use xlink:href="#DejaVuSans-61" x="1038.648438"/>
      <use xlink:href="#DejaVuSans-72" x="1099.927734"/>
      <use xlink:href="#DejaVuSans-67" x="1139.291016"/>
      <use xlink:href="#DejaVuSans-65" x="1202.767578"/>
      <use xlink:href="#DejaVuSans-74" x="1264.291016"/>
      <use xlink:href="#DejaVuSans-20" x="1303.5"/>
      <use xlink:href="#DejaVuSans-70" x="1335.287109"/>
      <use xlink:href="#DejaVuSans-61" x="1398.763672"/>
      <use xlink:href="#DejaVuSans-69" x="1460.042969"/>
      <use xlink:href="#DejaVuSans-72" x="1487.826172"/>
      <use xlink:href="#DejaVuSans-73" x="1528.939453"/>
     </g>
    </g>
   </g>
   <g id="line2d_33">
    <defs>
     <path id="mfe44d80bac" d="M 0 1.5 
C 0.397805 1.5 0.77937 1.341951 1.06066 1.06066 
C 1.341951 0.77937 1.5 0.397805 1.5 0 
C 1.5 -0.397805 1.341951 -0.77937 1.06066 -1.06066 
C 0.77937 -1.341951 0.397805 -1.5 0 -1.5 
C -0.397805 -1.5 -0.77937 -1.341951 -1.06066 -1.06066 
C -1.341951 -0.77937 -1.5 -0.397805 -1.5 0 
C -1.5 0.397805 -1.341951 0.77937 -1.06066 1.06066 
C -0.77937 1.341951 -0.397805 1.5 0 1.5 
z
" style="stroke: #f5deb3"/>
    </defs>
    <g>
     <use xlink:href="#mfe44d80bac" x="158.717331" y="27.648" style="fill: #f5deb3; stroke: #f5deb3"/>
     <use xlink:href="#mfe44d80bac" x="158.717331" y="27.648" style="fill: #f5deb3; stroke: #f5deb3"/>
    </g>
   </g>
   <g id="line2d_34">
    <defs>
     <path id="mb17218e0eb" d="M 0 1.5 
C 0.397805 1.5 0.77937 1.341951 1.06066 1.06066 
C 1.341951 0.77937 1.5 0.397805 1.5 0 
C 1.5 -0.397805 1.341951 -0.77937 1.06066 -1.06066 
C 0.77937 -1.341951 0.397805 -1.5 0 -1.5 
C -0.397805 -1.5 -0.77937 -1.341951 -1.06066 -1.06066 
C -1.341951 -0.77937 -1.5 -0.397805 -1.5 0 
C -1.5 0.397805 -1.341951 0.77937 -1.06066 1.06066 
C -0.77937 1.341951 -0.397805 1.5 0 1.5 
z
" style="stroke: #000080"/>
    </defs>
    <g>
     <use xlink:href="#mb17218e0eb" x="304.934546" y="27.648" style="fill: #000080; stroke: #000080"/>
     <use xlink:href="#mb17218e0eb" x="304.934546" y="27.648" style="fill: #000080; stroke: #000080"/>
    </g>
   </g>
   <g id="line2d_35">
    <path d="M 27.323974 298.944 
L 27.323974 292.205929 
L 40.363149 292.205929 
L 40.363149 290.787388 
L 57.6 290.787388 
L 57.6 289.368847 
L 61.029752 289.368847 
L 61.029752 289.014212 
L 63.929565 289.014212 
L 63.929565 288.659576 
L 70.639174 288.659576 
L 70.639174 287.950306 
L 74.068926 287.950306 
L 74.068926 287.241035 
L 75.574654 287.241035 
L 75.574654 286.531765 
L 76.96874 286.531765 
L 76.96874 285.113224 
L 78.266603 285.113224 
L 78.266603 284.049318 
L 82.713442 284.049318 
L 82.713442 283.694682 
L 83.678349 283.694682 
L 83.678349 283.340047 
L 84.596168 283.340047 
L 84.596168 282.985412 
L 85.471281 282.985412 
L 85.471281 282.630776 
L 86.307488 282.630776 
L 86.307488 281.921506 
L 87.1081 281.921506 
L 87.1081 281.566871 
L 87.876026 281.566871 
L 87.876026 281.212235 
L 90.668036 281.212235 
L 90.668036 279.084424 
L 93.66029 279.084424 
L 93.66029 278.729788 
L 94.735529 278.729788 
L 94.735529 278.375153 
L 95.752617 278.375153 
L 95.752617 278.020518 
L 101.287718 278.020518 
L 101.287718 277.311247 
L 102.708132 277.311247 
L 102.708132 276.956612 
L 106.137884 276.956612 
L 106.137884 275.538071 
L 106.699465 275.538071 
L 106.699465 275.183435 
L 108.29012 275.183435 
L 108.29012 274.474165 
L 110.449226 274.474165 
L 110.449226 274.119529 
L 114.141556 274.119529 
L 114.141556 273.410259 
L 117.226706 273.410259 
L 117.226706 273.055624 
L 117.540239 273.055624 
L 117.540239 272.700988 
L 121.581803 272.700988 
L 121.581803 271.282447 
L 123.374735 271.282447 
L 123.374735 270.927812 
L 125.322496 270.927812 
L 125.322496 269.863906 
L 125.628382 269.863906 
L 125.628382 269.509271 
L 126.028642 269.509271 
L 126.028642 268.8 
L 129.7043 268.8 
L 129.7043 268.090729 
L 131.191226 268.090729 
L 131.191226 267.736094 
L 131.41562 267.736094 
L 131.41562 267.026824 
L 134.683578 267.026824 
L 134.683578 266.317553 
L 136.184497 266.317553 
L 136.184497 265.962918 
L 136.640557 265.962918 
L 136.640557 265.608282 
L 137.627979 265.608282 
L 137.627979 264.899012 
L 138.918715 264.899012 
L 138.918715 263.835106 
L 144.305496 263.835106 
L 144.305496 263.125835 
L 144.749884 263.125835 
L 144.786447 260.998024 
L 145.184016 260.998024 
L 145.184016 259.934118 
L 145.46797 259.934118 
L 145.46797 259.579482 
L 146.761135 259.579482 
L 146.793994 257.806306 
L 147.785146 257.806306 
L 147.785146 257.097035 
L 149.338728 257.097035 
L 149.338728 255.678494 
L 149.453084 255.678494 
L 149.453084 255.323859 
L 149.79204 255.323859 
L 149.820013 254.614588 
L 150.042308 254.614588 
L 150.042308 252.486776 
L 150.425115 252.486776 
L 150.425115 252.132141 
L 151.116012 252.132141 
L 151.116012 251.777506 
L 151.27191 251.777506 
L 151.27191 251.422871 
L 151.452172 251.422871 
L 151.452172 251.068235 
L 152.032588 251.068235 
L 152.032588 250.7136 
L 152.930279 250.7136 
L 152.930279 250.358965 
L 154.190197 250.358965 
L 154.190197 249.649694 
L 154.388563 249.649694 
L 154.388563 248.585788 
L 154.584859 248.585788 
L 154.693034 247.876518 
L 155.140696 247.876518 
L 155.140696 247.521882 
L 155.924624 247.521882 
L 155.924624 246.457976 
L 156.324459 246.457976 
L 156.324459 246.103341 
L 158.294582 246.103341 
L 158.294582 245.748706 
L 158.542339 245.748706 
L 158.542339 245.394071 
L 159.468527 245.394071 
L 159.468527 245.039435 
L 159.717911 245.039435 
L 159.717911 244.330165 
L 160.667947 244.330165 
L 160.746296 243.266259 
L 160.855439 243.266259 
L 160.855439 242.911624 
L 161.497325 242.911624 
L 161.497325 241.847718 
L 162.103487 241.847718 
L 162.103487 241.138447 
L 163.679588 241.138447 
L 163.679588 240.783812 
L 164.102932 240.783812 
L 164.102932 240.429176 
L 165.634805 240.429176 
L 165.64686 237.946729 
L 166.792265 237.946729 
L 166.792265 237.237459 
L 168.513935 237.237459 
L 168.606832 234.755012 
L 168.658244 234.755012 
L 168.658244 234.400376 
L 169.204718 234.400376 
L 169.204718 233.691106 
L 169.32403 233.691106 
L 169.363634 232.981835 
L 169.638546 232.981835 
L 169.696937 232.272565 
L 170.091163 232.272565 
L 170.110183 230.144753 
L 171.064631 230.144753 
L 171.064631 229.790118 
L 173.41436 229.790118 
L 173.41436 229.080847 
L 174.901062 229.080847 
L 174.901062 228.726212 
L 175.309232 228.726212 
L 175.309232 228.371576 
L 176.065329 228.371576 
L 176.065329 228.016941 
L 176.217092 228.016941 
L 176.217092 226.953035 
L 176.33353 226.953035 
L 176.33353 226.5984 
L 176.765533 226.5984 
L 176.765533 226.243765 
L 177.382575 226.243765 
L 177.389032 224.115953 
L 177.613631 224.115953 
L 177.613631 223.761318 
L 177.734443 223.761318 
L 177.734443 223.406682 
L 184.79568 223.406682 
L 184.79568 223.052047 
L 187.477756 223.052047 
L 187.477756 221.988141 
L 187.918118 221.988141 
L 187.918118 221.633506 
L 188.538515 221.633506 
L 188.538515 221.278871 
L 190.35058 221.278871 
L 190.392667 220.5696 
L 192.426011 220.5696 
L 192.426011 220.214965 
L 193.566283 220.214965 
L 193.566283 219.860329 
L 194.703191 219.860329 
L 194.703191 219.505694 
L 194.877255 219.505694 
L 194.877255 219.151059 
L 196.325861 219.151059 
L 196.325861 218.796424 
L 199.594108 218.796424 
L 199.635703 217.732518 
L 200.669237 217.732518 
L 200.669237 217.377882 
L 202.75693 217.377882 
L 202.75693 216.668612 
L 203.371919 216.668612 
L 203.371919 216.313976 
L 203.483513 216.313976 
L 203.504464 215.604706 
L 203.701546 215.604706 
L 203.701546 215.250071 
L 203.839709 215.250071 
L 203.839709 214.895435 
L 205.393938 214.895435 
L 205.393938 214.5408 
L 208.159456 214.5408 
L 208.159456 214.186165 
L 209.121659 214.186165 
L 209.121659 213.831529 
L 211.859119 213.831529 
L 211.859119 213.476894 
L 214.983538 213.476894 
L 215.031601 212.767624 
L 215.293346 212.767624 
L 215.293346 212.412988 
L 215.876382 212.412988 
L 215.876382 212.058353 
L 216.481524 212.058353 
L 216.504942 209.575906 
L 217.381596 209.575906 
L 217.41315 208.866635 
L 217.653074 208.866635 
L 217.653074 208.512 
L 217.947616 208.512 
L 217.947616 208.157365 
L 219.00416 208.157365 
L 219.00416 207.448094 
L 219.538474 207.448094 
L 219.559068 206.738824 
L 219.884861 206.738824 
L 219.935366 206.029553 
L 220.373397 206.029553 
L 220.373397 205.674918 
L 220.823924 205.674918 
L 220.823924 205.320282 
L 222.167404 205.320282 
L 222.204993 204.611012 
L 223.168171 204.611012 
L 223.168171 204.256376 
L 223.518824 204.256376 
L 223.618611 203.192471 
L 223.931157 203.192471 
L 223.968642 199.646118 
L 225.022884 199.646118 
L 225.022884 199.291482 
L 225.218903 199.291482 
L 225.218903 198.936847 
L 225.783172 198.936847 
L 225.783172 198.582212 
L 225.916252 198.582212 
L 225.916252 198.227576 
L 226.282599 198.227576 
L 226.282599 197.872941 
L 226.477861 197.872941 
L 226.477861 197.518306 
L 226.921876 197.518306 
L 226.921876 197.163671 
L 227.110646 197.163671 
L 227.110646 196.809035 
L 227.340233 196.809035 
L 227.340233 196.4544 
L 227.603771 196.4544 
L 227.603771 196.099765 
L 227.939843 196.099765 
L 227.939843 195.745129 
L 228.115234 195.745129 
L 228.115234 195.390494 
L 228.425248 195.390494 
L 228.425248 195.035859 
L 228.537964 195.035859 
L 228.626721 193.971953 
L 228.841982 193.971953 
L 228.841982 193.617318 
L 228.969301 193.617318 
L 229.024136 192.908047 
L 229.141577 192.908047 
L 229.226717 191.489506 
L 229.385679 191.489506 
L 229.430387 190.780235 
L 229.558234 190.780235 
L 229.667587 188.652424 
L 229.822484 188.652424 
L 229.926759 186.169976 
L 230.115983 186.169976 
L 230.213197 185.106071 
L 230.233435 185.106071 
L 230.283548 184.3968 
L 230.364456 184.3968 
L 230.414607 183.332894 
L 230.526386 183.332894 
L 230.623793 180.850447 
L 230.779736 180.850447 
L 230.859295 179.077271 
L 231.037548 179.077271 
L 231.105631 178.013365 
L 231.337782 178.013365 
L 231.411732 176.949459 
L 231.507217 176.949459 
L 231.538091 175.530918 
L 231.636549 175.530918 
L 231.688826 174.821647 
L 231.777544 174.821647 
L 231.884026 172.693835 
L 231.900409 172.693835 
L 231.953734 171.629929 
L 232.012571 171.629929 
L 232.100483 169.502118 
L 232.123716 169.502118 
L 232.201655 168.083576 
L 232.262167 168.083576 
L 232.342317 166.665035 
L 232.389204 166.665035 
L 232.484007 162.054776 
L 232.56803 162.054776 
L 232.679026 160.2816 
L 232.684148 160.2816 
L 232.737003 159.572329 
L 232.799214 159.572329 
L 232.902783 157.444518 
L 232.928081 157.444518 
L 233.017195 156.025976 
L 233.046024 156.025976 
L 233.100879 153.543529 
L 233.168891 153.543529 
L 233.272766 151.770353 
L 233.294597 151.770353 
L 233.374097 148.578635 
L 233.481758 148.578635 
L 233.530789 145.386918 
L 233.594014 145.386918 
L 233.702692 143.259106 
L 233.71595 143.259106 
L 233.749216 141.485929 
L 233.916585 141.485929 
L 234.026283 139.358118 
L 234.077722 139.358118 
L 234.16914 137.230306 
L 234.223022 137.230306 
L 234.223966 136.521035 
L 234.399967 136.521035 
L 234.48425 134.747859 
L 234.549613 134.747859 
L 234.629536 131.910776 
L 234.698692 131.910776 
L 234.772179 130.846871 
L 234.828326 130.846871 
L 234.93103 129.428329 
L 235.008447 129.428329 
L 235.117077 127.300518 
L 235.123677 127.300518 
L 235.220907 125.527341 
L 235.304867 125.527341 
L 235.406782 123.754165 
L 235.473733 123.754165 
L 235.572104 122.335624 
L 235.610724 122.335624 
L 235.686272 120.207812 
L 235.725821 120.207812 
L 235.832709 118.08 
L 235.862726 118.08 
L 235.91974 117.016094 
L 235.98432 117.016094 
L 235.98432 116.661459 
L 236.144949 116.661459 
L 236.201682 115.597553 
L 236.267843 115.597553 
L 236.376194 113.469741 
L 236.587158 113.469741 
L 236.587158 113.115106 
L 236.827863 113.115106 
L 236.876839 112.405835 
L 237.162665 112.405835 
L 237.162665 112.0512 
L 237.468325 112.0512 
L 237.468325 111.696565 
L 237.735973 111.696565 
L 237.842702 110.987294 
L 237.892216 110.987294 
L 237.892216 110.632659 
L 238.170019 110.632659 
L 238.199842 109.568753 
L 238.313095 109.568753 
L 238.366942 108.504847 
L 238.602007 108.504847 
L 238.696754 105.313129 
L 238.76707 105.313129 
L 238.76707 104.249224 
L 238.89465 104.249224 
L 238.89465 103.894588 
L 239.390992 103.894588 
L 239.390992 103.539953 
L 240.91453 103.539953 
L 241.023128 102.830682 
L 241.252758 102.830682 
L 241.252758 102.476047 
L 241.678178 102.476047 
L 241.678178 102.121412 
L 241.843632 102.121412 
L 241.843632 101.766776 
L 243.021008 101.766776 
L 243.129502 100.702871 
L 243.503415 100.702871 
L 243.503415 100.348235 
L 243.650962 100.348235 
L 243.666777 99.638965 
L 244.320199 99.638965 
L 244.320199 99.284329 
L 273.967051 99.284329 
L 274.037793 96.092612 
L 274.083861 96.092612 
L 274.143993 94.674071 
L 274.203595 94.674071 
L 274.285315 87.581365 
L 274.362511 87.581365 
L 274.393107 86.517459 
L 274.529993 86.517459 
L 274.610347 85.808188 
L 274.759167 85.808188 
L 274.848899 84.744282 
L 274.980826 84.744282 
L 275.033166 83.325741 
L 275.197373 83.325741 
L 275.248191 81.9072 
L 275.436876 81.9072 
L 275.436876 81.197929 
L 275.674757 81.197929 
L 275.774722 79.779388 
L 275.822523 79.779388 
L 275.924348 76.233035 
L 275.938776 76.233035 
L 276.045732 74.105224 
L 276.065853 74.105224 
L 276.173749 67.721788 
L 276.181799 67.721788 
L 276.289942 63.466165 
L 276.300766 63.466165 
L 276.398937 61.692988 
L 276.423693 61.692988 
L 276.531088 56.728094 
L 276.708708 56.728094 
L 276.728461 56.018824 
L 276.821751 56.018824 
L 276.925377 54.245647 
L 277.139932 54.245647 
L 277.189617 53.536376 
L 277.540236 53.536376 
L 277.540236 53.181741 
L 287.111331 53.181741 
L 287.171387 51.408565 
L 287.227586 51.408565 
L 287.308661 49.635388 
L 287.35228 49.635388 
L 287.432077 48.571482 
L 287.829902 48.571482 
L 287.938483 47.507576 
L 288.003718 47.507576 
L 288.099927 46.089035 
L 288.117651 46.089035 
L 288.193255 44.670494 
L 288.229972 44.670494 
L 288.334643 40.414871 
L 288.372571 40.414871 
L 288.402054 38.996329 
L 288.506249 38.996329 
L 288.589405 37.223153 
L 288.985605 37.223153 
L 288.985605 36.513882 
L 294.813887 36.513882 
L 294.813887 36.159247 
L 294.98834 36.159247 
L 294.98834 35.804612 
L 295.271508 35.804612 
L 295.271508 35.449976 
L 295.430012 35.449976 
L 295.540255 32.967529 
L 295.549932 32.967529 
L 295.64845 31.548988 
L 295.754663 31.548988 
L 295.769449 30.485082 
L 296.002924 30.485082 
L 296.002924 30.130447 
L 300.30115 30.130447 
L 300.30115 29.775812 
L 300.75765 29.775812 
L 300.804231 28.711906 
L 300.957028 28.711906 
L 300.957028 28.357271 
L 304.838061 28.357271 
L 304.934546 27.648 
L 360.8064 27.648 
L 360.8064 27.648 
" style="fill: none; stroke: #000080; stroke-width: 1.5; stroke-linecap: square"/>
   </g>
   <g id="line2d_36">
    <defs>
     <path id="mbb202149d2" d="M 0 6 
C 1.591219 6 3.117479 5.367802 4.242641 4.242641 
C 5.367802 3.117479 6 1.591219 6 0 
C 6 -1.591219 5.367802 -3.117479 4.242641 -4.242641 
C 3.117479 -5.367802 1.591219 -6 0 -6 
C -1.591219 -6 -3.117479 -5.367802 -4.242641 -4.242641 
C -5.367802 -3.117479 -6 -1.591219 -6 0 
C -6 1.591219 -5.367802 3.117479 -4.242641 4.242641 
C -3.117479 5.367802 -1.591219 6 0 6 
z
" style="stroke: #000080; stroke-width: 1.5"/>
    </defs>
    <g>
     <use xlink:href="#mbb202149d2" x="125.322496" y="270.927812" style="fill-opacity: 0; stroke: #000080; stroke-width: 1.5"/>
     <use xlink:href="#mbb202149d2" x="205.393938" y="214.5408" style="fill-opacity: 0; stroke: #000080; stroke-width: 1.5"/>
     <use xlink:href="#mbb202149d2" x="244.320199" y="99.638965" style="fill-opacity: 0; stroke: #000080; stroke-width: 1.5"/>
     <use xlink:href="#mbb202149d2" x="295.64845" y="31.548988" style="fill-opacity: 0; stroke: #000080; stroke-width: 1.5"/>
     <use xlink:href="#mbb202149d2" x="304.934546" y="27.648" style="fill-opacity: 0; stroke: #000080; stroke-width: 1.5"/>
     <use xlink:href="#mbb202149d2" x="360.8064" y="27.648" style="fill-opacity: 0; stroke: #000080; stroke-width: 1.5"/>
    </g>
   </g>
   <g id="line2d_37">
    <path style="fill: none; stroke: #000080; stroke-width: 1.5; stroke-linecap: square"/>
    <g/>
   </g>
   <g id="line2d_38">
    <path d="M 274.176 94.674071 
" clip-path="url(#peb23d2eff2)" style="fill: none; stroke: #000080; stroke-width: 1.5; stroke-linecap: square"/>
    <defs>
     <path id="m3fa658c2ac" d="M -12 12 
L 12 -12 
M -12 -12 
L 12 12 
" style="stroke: #000080"/>
    </defs>
    <g clip-path="url(#peb23d2eff2)">
     <use xlink:href="#m3fa658c2ac" x="274.176" y="94.674071" style="fill: #000080; stroke: #000080"/>
    </g>
   </g>
   <g id="line2d_39">
    <defs>
     <path id="mada608b04e" d="M 0 1.5 
C 0.397805 1.5 0.77937 1.341951 1.06066 1.06066 
C 1.341951 0.77937 1.5 0.397805 1.5 0 
C 1.5 -0.397805 1.341951 -0.77937 1.06066 -1.06066 
C 0.77937 -1.341951 0.397805 -1.5 0 -1.5 
C -0.397805 -1.5 -0.77937 -1.341951 -1.06066 -1.06066 
C -1.341951 -0.77937 -1.5 -0.397805 -1.5 0 
C -1.5 0.397805 -1.341951 0.77937 -1.06066 1.06066 
C -0.77937 1.341951 -0.397805 1.5 0 1.5 
z
" style="stroke: #ff00ff"/>
    </defs>
    <g>
     <use xlink:href="#mada608b04e" x="355.789291" y="75.523765" style="fill: #ff00ff; stroke: #ff00ff"/>
     <use xlink:href="#mada608b04e" x="355.789291" y="75.523765" style="fill: #ff00ff; stroke: #ff00ff"/>
    </g>
   </g>
   <g id="line2d_40">
    <path d="M 27.323974 298.944 
L 27.323974 293.624471 
L 40.363149 293.624471 
L 40.363149 292.205929 
L 47.990577 292.205929 
L 47.990577 289.368847 
L 53.402323 289.368847 
L 53.402323 288.659576 
L 57.6 288.659576 
L 57.6 288.304941 
L 61.029752 288.304941 
L 61.029752 287.950306 
L 63.929565 287.950306 
L 63.929565 287.241035 
L 66.441498 287.241035 
L 66.441498 286.8864 
L 68.65718 286.8864 
L 68.65718 286.531765 
L 70.639174 286.531765 
L 70.639174 285.113224 
L 72.432107 285.113224 
L 72.432107 284.758588 
L 74.068926 284.758588 
L 74.068926 283.694682 
L 76.96874 283.694682 
L 76.96874 283.340047 
L 78.266603 283.340047 
L 78.266603 282.630776 
L 84.596168 282.630776 
L 84.596168 281.921506 
L 85.471281 281.921506 
L 85.471281 281.212235 
L 90.007914 281.212235 
L 90.007914 280.8576 
L 90.668036 280.8576 
L 90.668036 280.502965 
L 94.735529 280.502965 
L 94.735529 280.148329 
L 97.635342 280.148329 
L 97.635342 279.084424 
L 105.850679 279.084424 
L 105.850679 277.665882 
L 109.037698 277.665882 
L 109.037698 277.311247 
L 109.280431 277.311247 
L 109.280431 276.247341 
L 118.74459 276.247341 
L 118.74459 275.892706 
L 120.682786 275.892706 
L 120.682786 275.538071 
L 126.323346 275.538071 
L 126.323346 275.183435 
L 127.731351 275.183435 
L 127.731351 274.8288 
L 129.86647 274.8288 
L 129.86647 273.410259 
L 130.4233 273.410259 
L 130.4233 273.055624 
L 131.856536 273.055624 
L 131.856536 272.700988 
L 134.620977 272.700988 
L 134.620977 271.991718 
L 135.35878 271.991718 
L 135.35878 270.927812 
L 136.584151 270.927812 
L 136.584151 270.573176 
L 136.97549 270.573176 
L 136.97549 269.863906 
L 137.574461 269.863906 
L 137.574461 268.8 
L 137.945929 268.8 
L 137.945929 268.445365 
L 138.616919 268.445365 
L 138.616919 268.090729 
L 141.825656 268.090729 
L 141.825656 267.381459 
L 144.267986 267.381459 
L 144.267986 265.962918 
L 146.662213 265.962918 
L 146.662213 265.253647 
L 147.878349 265.253647 
L 147.878349 264.899012 
L 148.991428 264.899012 
L 148.991428 264.544376 
L 150.479171 264.544376 
L 150.506141 263.835106 
L 153.877408 263.835106 
L 153.877408 263.125835 
L 153.989717 263.125835 
L 153.989717 262.061929 
L 154.86483 262.061929 
L 154.86483 258.160941 
L 155.350181 258.160941 
L 155.350181 257.806306 
L 155.516105 257.806306 
L 155.516105 257.097035 
L 158.241064 257.097035 
L 158.241064 256.387765 
L 158.471883 256.387765 
L 158.471883 256.033129 
L 159.451784 256.033129 
L 159.451784 255.323859 
L 164.884457 255.323859 
L 164.884457 254.614588 
L 165.244914 254.614588 
L 165.244914 253.905318 
L 172.331145 253.905318 
L 172.331145 253.550682 
L 173.350456 253.550682 
L 173.350456 252.486776 
L 179.94449 252.486776 
L 180.01761 251.068235 
L 182.21894 251.068235 
L 182.21894 250.7136 
L 182.779786 250.7136 
L 182.779786 250.358965 
L 184.175949 250.358965 
L 184.175949 249.295059 
L 184.323878 249.295059 
L 184.323878 248.231153 
L 184.81744 248.231153 
L 184.81744 246.457976 
L 185.085194 246.457976 
L 185.085194 246.103341 
L 185.238933 246.103341 
L 185.238933 245.394071 
L 186.083089 245.394071 
L 186.139934 242.911624 
L 186.761992 242.911624 
L 186.761992 242.556988 
L 187.050029 242.556988 
L 187.050029 242.202353 
L 187.246004 242.202353 
L 187.246004 241.847718 
L 187.455087 241.847718 
L 187.455087 240.783812 
L 188.130846 240.783812 
L 188.130846 239.365271 
L 189.276866 239.365271 
L 189.276866 238.301365 
L 190.236797 238.301365 
L 190.236797 237.946729 
L 191.119023 237.946729 
L 191.119023 237.237459 
L 195.312966 237.237459 
L 195.312966 236.882824 
L 197.876177 236.882824 
L 197.876177 236.528188 
L 198.702841 236.528188 
L 198.702841 236.173553 
L 199.744206 236.173553 
L 199.799205 234.400376 
L 200.231585 234.400376 
L 200.231585 234.045741 
L 201.021732 234.045741 
L 201.021732 233.336471 
L 202.283413 233.336471 
L 202.283413 232.981835 
L 202.473232 232.981835 
L 202.473232 232.272565 
L 203.029807 232.272565 
L 203.029807 231.208659 
L 206.02143 231.208659 
L 206.02143 230.499388 
L 206.958629 230.499388 
L 206.958629 230.144753 
L 207.145372 230.144753 
L 207.145372 229.790118 
L 208.053518 229.790118 
L 208.053518 228.726212 
L 208.37329 228.726212 
L 208.37329 228.371576 
L 209.231271 228.371576 
L 209.231271 228.016941 
L 210.070008 228.016941 
L 210.070008 227.662306 
L 210.190058 227.662306 
L 210.190058 227.307671 
L 210.351928 227.307671 
L 210.351928 225.534494 
L 211.415908 225.534494 
L 211.415908 225.179859 
L 212.132951 225.179859 
L 212.132951 223.052047 
L 213.6136 223.052047 
L 213.6136 221.633506 
L 215.640431 221.633506 
L 215.695274 219.505694 
L 217.885476 219.505694 
L 217.885476 219.151059 
L 219.564555 219.151059 
L 219.564555 218.796424 
L 220.216374 218.796424 
L 220.216374 218.441788 
L 220.708105 218.441788 
L 220.708105 218.087153 
L 223.131893 218.087153 
L 223.131893 217.377882 
L 223.260253 217.377882 
L 223.260253 217.023247 
L 224.091976 217.023247 
L 224.091976 216.313976 
L 224.695754 216.313976 
L 224.745292 215.604706 
L 224.987444 215.604706 
L 224.987444 214.895435 
L 225.245798 214.895435 
L 225.245798 214.5408 
L 226.043537 214.5408 
L 226.043537 214.186165 
L 226.37929 214.186165 
L 226.425068 213.476894 
L 229.887575 213.476894 
L 229.892725 212.767624 
L 230.818992 212.767624 
L 230.86569 212.058353 
L 231.027482 212.058353 
L 231.08408 211.349082 
L 231.457349 211.349082 
L 231.457349 210.639812 
L 232.277876 210.639812 
L 232.285551 209.930541 
L 233.170222 209.930541 
L 233.170222 208.512 
L 233.331585 208.512 
L 233.331585 208.157365 
L 233.558191 208.157365 
L 233.558191 207.802729 
L 233.789829 207.802729 
L 233.835174 206.384188 
L 235.111375 206.384188 
L 235.174599 205.674918 
L 235.405305 205.674918 
L 235.410328 204.965647 
L 235.708093 204.965647 
L 235.770794 204.256376 
L 235.958801 204.256376 
L 235.958801 203.547106 
L 236.446499 203.547106 
L 236.494525 201.773929 
L 236.891316 201.773929 
L 236.895957 200.710024 
L 237.781081 200.710024 
L 237.781081 200.355388 
L 238.547329 200.355388 
L 238.604998 198.936847 
L 238.885566 198.936847 
L 238.981832 197.518306 
L 239.222654 197.518306 
L 239.222654 196.809035 
L 239.508484 196.809035 
L 239.508484 196.4544 
L 240.986706 196.4544 
L 240.986706 196.099765 
L 241.176816 196.099765 
L 241.176816 195.745129 
L 241.636639 195.745129 
L 241.636639 195.390494 
L 241.754446 195.390494 
L 241.754446 195.035859 
L 242.03342 195.035859 
L 242.12419 194.326588 
L 242.691322 194.326588 
L 242.691322 193.971953 
L 242.838187 193.971953 
L 242.838187 193.617318 
L 243.345017 193.617318 
L 243.345017 193.262682 
L 244.656037 193.262682 
L 244.656037 192.908047 
L 244.918924 192.908047 
L 245.026248 192.198776 
L 245.123976 192.198776 
L 245.123976 191.844141 
L 245.42595 191.844141 
L 245.42595 191.489506 
L 245.906653 191.489506 
L 245.906653 191.134871 
L 246.286937 191.134871 
L 246.286937 190.780235 
L 247.320632 190.780235 
L 247.320632 190.4256 
L 247.88973 190.4256 
L 247.88973 190.070965 
L 249.474347 190.070965 
L 249.474347 189.716329 
L 251.110467 189.716329 
L 251.110467 189.361694 
L 253.28176 189.361694 
L 253.28176 189.007059 
L 262.954778 189.007059 
L 262.954778 188.297788 
L 263.118835 188.297788 
L 263.118835 187.943153 
L 274.288233 187.943153 
L 274.288233 187.233882 
L 274.416634 187.233882 
L 274.416634 186.879247 
L 274.63489 186.879247 
L 274.63489 186.524612 
L 274.804451 186.524612 
L 274.874655 184.751435 
L 274.935062 184.751435 
L 274.989655 183.332894 
L 275.071411 183.332894 
L 275.073742 182.268988 
L 275.57852 182.268988 
L 275.679725 180.495812 
L 275.954938 180.495812 
L 276.037248 179.077271 
L 276.095841 179.077271 
L 276.17385 178.368 
L 276.262249 178.368 
L 276.278641 176.949459 
L 276.47507 176.949459 
L 276.56399 175.530918 
L 276.620967 175.530918 
L 276.674082 172.3392 
L 276.881799 172.3392 
L 276.926222 171.275294 
L 277.218187 171.275294 
L 277.314309 170.566024 
L 277.332037 170.566024 
L 277.388292 169.502118 
L 277.476417 169.502118 
L 277.58081 168.438212 
L 277.844949 168.438212 
L 277.880732 167.374306 
L 278.089855 167.374306 
L 278.089855 167.019671 
L 278.719707 167.019671 
L 278.719707 166.665035 
L 279.077414 166.665035 
L 279.077414 166.3104 
L 282.480308 166.3104 
L 282.480308 165.955765 
L 287.473277 165.955765 
L 287.473277 165.601129 
L 287.606697 165.601129 
L 287.708143 162.764047 
L 287.90549 162.764047 
L 287.976856 161.700141 
L 288.206537 161.700141 
L 288.219167 160.636235 
L 288.324697 160.636235 
L 288.360734 158.863059 
L 288.450754 158.863059 
L 288.542711 156.025976 
L 288.653523 156.025976 
L 288.677296 153.188894 
L 288.834188 153.188894 
L 288.834188 152.834259 
L 289.030616 152.834259 
L 289.030616 152.124988 
L 289.14994 152.124988 
L 289.185024 151.415718 
L 289.271008 151.415718 
L 289.309284 150.706447 
L 289.416905 150.706447 
L 289.416905 150.351812 
L 290.150739 150.351812 
L 290.150739 149.997176 
L 291.888395 149.997176 
L 291.888395 149.642541 
L 295.331441 149.642541 
L 295.331441 149.287906 
L 295.614946 149.287906 
L 295.723359 147.869365 
L 295.743955 147.869365 
L 295.854982 145.032282 
L 295.871434 145.032282 
L 295.871434 144.677647 
L 296.020072 144.677647 
L 296.096945 143.613741 
L 296.262388 143.613741 
L 296.363119 142.549835 
L 296.405684 142.549835 
L 296.405684 142.1952 
L 296.530662 142.1952 
L 296.530662 141.840565 
L 298.080146 141.840565 
L 298.105595 141.131294 
L 300.519937 141.131294 
L 300.519937 140.776659 
L 300.800284 140.776659 
L 300.855808 139.358118 
L 300.95353 139.358118 
L 301.050251 136.521035 
L 301.151275 136.521035 
L 301.221738 135.811765 
L 301.284246 135.811765 
L 301.368012 134.393224 
L 301.424778 134.393224 
L 301.424778 134.038588 
L 304.950205 134.038588 
L 305.040597 131.201506 
L 305.086777 131.201506 
L 305.188243 128.009788 
L 305.201054 128.009788 
L 305.310485 126.236612 
L 305.409232 126.236612 
L 305.51299 125.527341 
L 308.310786 125.527341 
L 308.37659 123.399529 
L 308.425084 123.399529 
L 308.433398 122.335624 
L 308.537698 122.335624 
L 308.608953 120.917082 
L 308.782646 120.917082 
L 308.782646 120.562447 
L 308.962128 120.562447 
L 308.962128 119.853176 
L 311.163602 119.853176 
L 311.266458 116.306824 
L 311.332445 116.306824 
L 311.417567 115.242918 
L 311.492117 115.242918 
L 311.567265 114.533647 
L 311.722154 114.533647 
L 311.722154 114.179012 
L 313.685314 114.179012 
L 313.685314 113.115106 
L 313.926294 113.115106 
L 313.926294 112.760471 
L 315.822363 112.760471 
L 315.899109 110.987294 
L 315.988392 110.987294 
L 316.02289 109.214118 
L 317.814537 109.214118 
L 317.851125 107.795576 
L 317.956518 107.795576 
L 318.014571 106.731671 
L 318.177497 106.731671 
L 318.177497 106.0224 
L 319.59121 106.0224 
L 319.617941 104.958494 
L 319.719579 104.958494 
L 319.815999 104.249224 
L 319.916049 104.249224 
L 319.916049 103.894588 
L 321.209152 103.894588 
L 321.209152 103.185318 
L 321.326975 103.185318 
L 321.371033 102.121412 
L 322.698891 102.121412 
L 322.783725 101.057506 
L 322.848497 101.057506 
L 322.889624 100.348235 
L 324.079263 100.348235 
L 324.176596 98.575059 
L 324.335622 98.575059 
L 324.335622 97.865788 
L 325.365232 97.865788 
L 325.456149 96.092612 
L 326.58734 96.092612 
L 326.657569 95.028706 
L 326.793657 95.028706 
L 326.793657 94.674071 
L 327.700138 94.674071 
L 327.783655 93.610165 
L 328.767201 93.610165 
L 328.783619 92.546259 
L 328.967312 92.546259 
L 328.967312 92.191624 
L 329.776972 92.191624 
L 329.879792 90.063812 
L 329.908103 90.063812 
L 329.908103 89.709176 
L 330.73529 89.709176 
L 330.833016 88.645271 
L 331.661233 88.645271 
L 331.661233 87.936 
L 332.516837 87.936 
L 332.516837 86.872094 
L 332.680941 86.872094 
L 332.680941 86.517459 
L 333.396301 86.517459 
L 333.396301 86.162824 
L 334.919755 86.162824 
L 334.919755 85.453553 
L 335.653247 85.453553 
L 335.653247 85.098918 
L 336.348235 85.098918 
L 336.420798 83.680376 
L 336.482207 83.680376 
L 336.482207 83.325741 
L 337.029048 83.325741 
L 337.078009 82.261835 
L 337.696301 82.261835 
L 337.772305 81.552565 
L 338.320937 81.552565 
L 338.404306 80.843294 
L 338.979314 80.843294 
L 339.015763 80.134024 
L 339.607969 80.134024 
L 339.607969 79.779388 
L 340.11525 79.779388 
L 340.11525 79.424753 
L 341.744982 79.424753 
L 341.744982 79.070118 
L 342.288854 79.070118 
L 342.288854 78.715482 
L 342.816067 78.715482 
L 342.816067 78.360847 
L 343.265615 78.360847 
L 343.265615 78.006212 
L 344.208233 78.006212 
L 344.208233 77.651576 
L 345.152227 77.651576 
L 345.152227 77.296941 
L 346.339157 77.296941 
L 346.339157 76.587671 
L 348.99015 76.587671 
L 348.99015 76.233035 
L 352.825312 76.233035 
L 352.825312 75.8784 
L 355.789291 75.8784 
L 355.789291 75.523765 
L 360.8064 75.523765 
L 360.8064 75.523765 
" style="fill: none; stroke: #ff00ff; stroke-width: 1.5; stroke-linecap: square"/>
   </g>
   <g id="line2d_41">
    <defs>
     <path id="m4fdd97c378" d="M 0 8.485281 
L 5.091169 0 
L 0 -8.485281 
L -5.091169 0 
z
" style="stroke: #ff00ff; stroke-width: 1.5; stroke-linejoin: miter"/>
    </defs>
    <g>
     <use xlink:href="#m4fdd97c378" x="127.731351" y="274.8288" style="fill-opacity: 0; stroke: #ff00ff; stroke-width: 1.5; stroke-linejoin: miter"/>
     <use xlink:href="#m4fdd97c378" x="220.708105" y="218.441788" style="fill-opacity: 0; stroke: #ff00ff; stroke-width: 1.5; stroke-linejoin: miter"/>
     <use xlink:href="#m4fdd97c378" x="295.620806" y="148.224" style="fill-opacity: 0; stroke: #ff00ff; stroke-width: 1.5; stroke-linejoin: miter"/>
     <use xlink:href="#m4fdd97c378" x="352.825312" y="75.8784" style="fill-opacity: 0; stroke: #ff00ff; stroke-width: 1.5; stroke-linejoin: miter"/>
     <use xlink:href="#m4fdd97c378" x="355.789291" y="75.523765" style="fill-opacity: 0; stroke: #ff00ff; stroke-width: 1.5; stroke-linejoin: miter"/>
     <use xlink:href="#m4fdd97c378" x="360.8064" y="75.523765" style="fill-opacity: 0; stroke: #ff00ff; stroke-width: 1.5; stroke-linejoin: miter"/>
    </g>
   </g>
   <g id="line2d_42">
    <path style="fill: none; stroke: #ff00ff; stroke-width: 1.5; stroke-linecap: square"/>
    <g/>
   </g>
   <g id="line2d_43">
    <path d="M 274.255293 187.943153 
" clip-path="url(#peb23d2eff2)" style="fill: none; stroke: #ff00ff; stroke-width: 1.5; stroke-linecap: square"/>
    <defs>
     <path id="m0647e9e4a6" d="M -12 12 
L 12 -12 
M -12 -12 
L 12 12 
" style="stroke: #ff00ff"/>
    </defs>
    <g clip-path="url(#peb23d2eff2)">
     <use xlink:href="#m0647e9e4a6" x="274.255293" y="187.943153" style="fill: #ff00ff; stroke: #ff00ff"/>
    </g>
   </g>
   <g id="line2d_44">
    <path d="M 360.8064 75.523765 
L 380.514816 293.51808 
" style="fill: none; stroke: #ff00ff; stroke-width: 1.5; stroke-linecap: square"/>
    <g>
     <use xlink:href="#m4fdd97c378" x="360.8064" y="75.523765" style="fill-opacity: 0; stroke: #ff00ff; stroke-width: 1.5; stroke-linejoin: miter"/>
     <use xlink:href="#m4fdd97c378" x="380.514816" y="293.51808" style="fill-opacity: 0; stroke: #ff00ff; stroke-width: 1.5; stroke-linejoin: miter"/>
    </g>
   </g>
   <g id="line2d_45">
    <path d="M 360.8064 27.648 
L 380.514816 163.296 
" style="fill: none; stroke: #000080; stroke-width: 1.5; stroke-linecap: square"/>
    <g>
     <use xlink:href="#mbb202149d2" x="360.8064" y="27.648" style="fill-opacity: 0; stroke: #000080; stroke-width: 1.5"/>
     <use xlink:href="#mbb202149d2" x="380.514816" y="163.296" style="fill-opacity: 0; stroke: #000080; stroke-width: 1.5"/>
    </g>
   </g>
   <g id="line2d_46">
    <path d="M 360.8064 298.944 
L 360.8064 27.648 
" style="fill: none; stroke: #000000; stroke-width: 1.5; stroke-linecap: square"/>
   </g>
   <g id="patch_3">
    <path d="M 57.6 298.944 
L 360.8064 298.944 
" style="fill: none; stroke: #000000; stroke-width: 0.8; stroke-linejoin: miter; stroke-linecap: square"/>
   </g>
   <g id="patch_4">
    <path d="M 57.6 27.648 
L 360.8064 27.648 
" style="fill: none; stroke: #000000; stroke-width: 0.8; stroke-linejoin: miter; stroke-linecap: square"/>
   </g>
   <g id="text_13">
    <!-- GA -->
    <g transform="translate(386.578944 297.381205)scale(0.14 -0.14)">
     <defs>
      <path id="DejaVuSans-47" d="M 3809 666 
L 3809 1919 
L 2778 1919 
L 2778 2438 
L 4434 2438 
L 4434 434 
Q 4069 175 3628 42 
Q 3188 -91 2688 -91 
Q 1594 -91 976 548 
Q 359 1188 359 2328 
Q 359 3472 976 4111 
Q 1594 4750 2688 4750 
Q 3144 4750 3555 4637 
Q 3966 4525 4313 4306 
L 4313 3634 
Q 3963 3931 3569 4081 
Q 3175 4231 2741 4231 
Q 1884 4231 1454 3753 
Q 1025 3275 1025 2328 
Q 1025 1384 1454 906 
Q 1884 428 2741 428 
Q 3075 428 3337 486 
Q 3600 544 3809 666 
z
" transform="scale(0.015625)"/>
      <path id="DejaVuSans-41" d="M 2188 4044 
L 1331 1722 
L 3047 1722 
L 2188 4044 
z
M 1831 4666 
L 2547 4666 
L 4325 0 
L 3669 0 
L 3244 1197 
L 1141 1197 
L 716 0 
L 50 0 
L 1831 4666 
z
" transform="scale(0.015625)"/>
     </defs>
     <use xlink:href="#DejaVuSans-47"/>
     <use xlink:href="#DejaVuSans-41" x="77.490234"/>
    </g>
   </g>
   <g id="text_14">
    <!-- LCGA -->
    <g transform="translate(386.578944 167.159125)scale(0.14 -0.14)">
     <defs>
      <path id="DejaVuSans-4c" d="M 628 4666 
L 1259 4666 
L 1259 531 
L 3531 531 
L 3531 0 
L 628 0 
L 628 4666 
z
" transform="scale(0.015625)"/>
      <path id="DejaVuSans-43" d="M 4122 4306 
L 4122 3641 
Q 3803 3938 3442 4084 
Q 3081 4231 2675 4231 
Q 1875 4231 1450 3742 
Q 1025 3253 1025 2328 
Q 1025 1406 1450 917 
Q 1875 428 2675 428 
Q 3081 428 3442 575 
Q 3803 722 4122 1019 
L 4122 359 
Q 3791 134 3420 21 
Q 3050 -91 2638 -91 
Q 1578 -91 968 557 
Q 359 1206 359 2328 
Q 359 3453 968 4101 
Q 1578 4750 2638 4750 
Q 3056 4750 3426 4639 
Q 3797 4528 4122 4306 
z
" transform="scale(0.015625)"/>
     </defs>
     <use xlink:href="#DejaVuSans-4c"/>
     <use xlink:href="#DejaVuSans-43" x="55.712891"/>
     <use xlink:href="#DejaVuSans-47" x="125.537109"/>
     <use xlink:href="#DejaVuSans-41" x="203.027344"/>
    </g>
   </g>
   <g id="text_15">
    <!-- best 2009 -->
    <g transform="translate(386.578944 36.937045)scale(0.14 -0.14)">
     <defs>
      <path id="DejaVuSans-62" d="M 3116 1747 
Q 3116 2381 2855 2742 
Q 2594 3103 2138 3103 
Q 1681 3103 1420 2742 
Q 1159 2381 1159 1747 
Q 1159 1113 1420 752 
Q 1681 391 2138 391 
Q 2594 391 2855 752 
Q 3116 1113 3116 1747 
z
M 1159 2969 
Q 1341 3281 1617 3432 
Q 1894 3584 2278 3584 
Q 2916 3584 3314 3078 
Q 3713 2572 3713 1747 
Q 3713 922 3314 415 
Q 2916 -91 2278 -91 
Q 1894 -91 1617 61 
Q 1341 213 1159 525 
L 1159 0 
L 581 0 
L 581 4863 
L 1159 4863 
L 1159 2969 
z
" transform="scale(0.015625)"/>
      <path id="DejaVuSans-39" d="M 703 97 
L 703 672 
Q 941 559 1184 500 
Q 1428 441 1663 441 
Q 2288 441 2617 861 
Q 2947 1281 2994 2138 
Q 2813 1869 2534 1725 
Q 2256 1581 1919 1581 
Q 1219 1581 811 2004 
Q 403 2428 403 3163 
Q 403 3881 828 4315 
Q 1253 4750 1959 4750 
Q 2769 4750 3195 4129 
Q 3622 3509 3622 2328 
Q 3622 1225 3098 567 
Q 2575 -91 1691 -91 
Q 1453 -91 1209 -44 
Q 966 3 703 97 
z
M 1959 2075 
Q 2384 2075 2632 2365 
Q 2881 2656 2881 3163 
Q 2881 3666 2632 3958 
Q 2384 4250 1959 4250 
Q 1534 4250 1286 3958 
Q 1038 3666 1038 3163 
Q 1038 2656 1286 2365 
Q 1534 2075 1959 2075 
z
" transform="scale(0.015625)"/>
     </defs>
     <use xlink:href="#DejaVuSans-62"/>
     <use xlink:href="#DejaVuSans-65" x="63.476562"/>
     <use xlink:href="#DejaVuSans-73" x="125"/>
     <use xlink:href="#DejaVuSans-74" x="177.099609"/>
     <use xlink:href="#DejaVuSans-20" x="216.308594"/>
     <use xlink:href="#DejaVuSans-32" x="248.095703"/>
     <use xlink:href="#DejaVuSans-30" x="311.71875"/>
     <use xlink:href="#DejaVuSans-30" x="375.341797"/>
     <use xlink:href="#DejaVuSans-39" x="438.964844"/>
    </g>
   </g>
   <g id="text_16">
    <!-- bbob f22, 5-D -->
    <g transform="translate(60.632064 38.111366)scale(0.102 -0.102)">
     <defs>
      <path id="DejaVuSans-35" d="M 691 4666 
L 3169 4666 
L 3169 4134 
L 1269 4134 
L 1269 2991 
Q 1406 3038 1543 3061 
Q 1681 3084 1819 3084 
Q 2600 3084 3056 2656 
Q 3513 2228 3513 1497 
Q 3513 744 3044 326 
Q 2575 -91 1722 -91 
Q 1428 -91 1123 -41 
Q 819 9 494 109 
L 494 744 
Q 775 591 1075 516 
Q 1375 441 1709 441 
Q 2250 441 2565 725 
Q 2881 1009 2881 1497 
Q 2881 1984 2565 2268 
Q 2250 2553 1709 2553 
Q 1456 2553 1204 2497 
Q 953 2441 691 2322 
L 691 4666 
z
" transform="scale(0.015625)"/>
      <path id="DejaVuSans-44" d="M 1259 4147 
L 1259 519 
L 2022 519 
Q 2988 519 3436 956 
Q 3884 1394 3884 2338 
Q 3884 3275 3436 3711 
Q 2988 4147 2022 4147 
L 1259 4147 
z
M 628 4666 
L 1925 4666 
Q 3281 4666 3915 4102 
Q 4550 3538 4550 2338 
Q 4550 1131 3912 565 
Q 3275 0 1925 0 
L 628 0 
L 628 4666 
z
" transform="scale(0.015625)"/>
     </defs>
     <use xlink:href="#DejaVuSans-62"/>
     <use xlink:href="#DejaVuSans-62" x="63.476562"/>
     <use xlink:href="#DejaVuSans-6f" x="126.953125"/>
     <use xlink:href="#DejaVuSans-62" x="188.134766"/>
     <use xlink:href="#DejaVuSans-20" x="251.611328"/>
     <use xlink:href="#DejaVuSans-66" x="283.398438"/>
     <use xlink:href="#DejaVuSans-32" x="318.603516"/>
     <use xlink:href="#DejaVuSans-32" x="382.226562"/>
     <use xlink:href="#DejaVuSans-2c" x="445.849609"/>
     <use xlink:href="#DejaVuSans-20" x="477.636719"/>
     <use xlink:href="#DejaVuSans-35" x="509.423828"/>
     <use xlink:href="#DejaVuSans-2d" x="573.046875"/>
     <use xlink:href="#DejaVuSans-44" x="609.130859"/>
    </g>
    <!-- 51 targets: 100..1e-08 -->
    <g transform="translate(60.632064 49.533135)scale(0.102 -0.102)">
     <defs>
      <path id="DejaVuSans-3a" d="M 750 794 
L 1409 794 
L 1409 0 
L 750 0 
L 750 794 
z
M 750 3309 
L 1409 3309 
L 1409 2516 
L 750 2516 
L 750 3309 
z
" transform="scale(0.015625)"/>
     </defs>
     <use xlink:href="#DejaVuSans-35"/>
     <use xlink:href="#DejaVuSans-31" x="63.623047"/>
     <use xlink:href="#DejaVuSans-20" x="127.246094"/>
     <use xlink:href="#DejaVuSans-74" x="159.033203"/>
     <use xlink:href="#DejaVuSans-61" x="198.242188"/>
     <use xlink:href="#DejaVuSans-72" x="259.521484"/>
     <use xlink:href="#DejaVuSans-67" x="298.884766"/>
     <use xlink:href="#DejaVuSans-65" x="362.361328"/>
     <use xlink:href="#DejaVuSans-74" x="423.884766"/>
     <use xlink:href="#DejaVuSans-73" x="463.09375"/>
     <use xlink:href="#DejaVuSans-3a" x="515.193359"/>
     <use xlink:href="#DejaVuSans-20" x="548.884766"/>
     <use xlink:href="#DejaVuSans-31" x="580.671875"/>
     <use xlink:href="#DejaVuSans-30" x="644.294922"/>
     <use xlink:href="#DejaVuSans-30" x="707.917969"/>
     <use xlink:href="#DejaVuSans-2e" x="771.541016"/>
     <use xlink:href="#DejaVuSans-2e" x="803.328125"/>
     <use xlink:href="#DejaVuSans-31" x="835.115234"/>
     <use xlink:href="#DejaVuSans-65" x="898.738281"/>
     <use xlink:href="#DejaVuSans-2d" x="960.261719"/>
     <use xlink:href="#DejaVuSans-30" x="996.345703"/>
     <use xlink:href="#DejaVuSans-38" x="1059.96875"/>
    </g>
    <!-- 15 instances -->
    <g transform="translate(60.632064 60.954904)scale(0.102 -0.102)">
     <use xlink:href="#DejaVuSans-31"/>
     <use xlink:href="#DejaVuSans-35" x="63.623047"/>
     <use xlink:href="#DejaVuSans-20" x="127.246094"/>
     <use xlink:href="#DejaVuSans-69" x="159.033203"/>
     <use xlink:href="#DejaVuSans-6e" x="186.816406"/>
     <use xlink:href="#DejaVuSans-73" x="250.195312"/>
     <use xlink:href="#DejaVuSans-74" x="302.294922"/>
     <use xlink:href="#DejaVuSans-61" x="341.503906"/>
     <use xlink:href="#DejaVuSans-6e" x="402.783203"/>
     <use xlink:href="#DejaVuSans-63" x="466.162109"/>
     <use xlink:href="#DejaVuSans-65" x="521.142578"/>
     <use xlink:href="#DejaVuSans-73" x="582.666016"/>
    </g>
   </g>
   <g id="text_17">
    <!-- v2.6 -->
    <g style="fill: #808080" transform="translate(198.292262 294.151352)scale(0.1 -0.1)">
     <use xlink:href="#DejaVuSans-76"/>
     <use xlink:href="#DejaVuSans-32" x="59.179688"/>
     <use xlink:href="#DejaVuSans-2e" x="122.802734"/>
     <use xlink:href="#DejaVuSans-36" x="154.589844"/>
    </g>
   </g>
   <g id="text_18">
    <!-- 22 Gallagher 21 peaks -->
    <g transform="translate(96.0782 21.648)scale(0.2 -0.2)">
     <defs>
      <path id="DejaVuSans-68" d="M 3513 2113 
L 3513 0 
L 2938 0 
L 2938 2094 
Q 2938 2591 2744 2837 
Q 2550 3084 2163 3084 
Q 1697 3084 1428 2787 
Q 1159 2491 1159 1978 
L 1159 0 
L 581 0 
L 581 4863 
L 1159 4863 
L 1159 2956 
Q 1366 3272 1645 3428 
Q 1925 3584 2291 3584 
Q 2894 3584 3203 3211 
Q 3513 2838 3513 2113 
z
" transform="scale(0.015625)"/>
      <path id="DejaVuSans-6b" d="M 581 4863 
L 1159 4863 
L 1159 1991 
L 2875 3500 
L 3609 3500 
L 1753 1863 
L 3688 0 
L 2938 0 
L 1159 1709 
L 1159 0 
L 581 0 
L 581 4863 
z
" transform="scale(0.015625)"/>
     </defs>
     <use xlink:href="#DejaVuSans-32"/>
     <use xlink:href="#DejaVuSans-32" x="63.623047"/>
     <use xlink:href="#DejaVuSans-20" x="127.246094"/>
     <use xlink:href="#DejaVuSans-47" x="159.033203"/>
     <use xlink:href="#DejaVuSans-61" x="236.523438"/>
     <use xlink:href="#DejaVuSans-6c" x="297.802734"/>
     <use xlink:href="#DejaVuSans-6c" x="325.585938"/>
     <use xlink:href="#DejaVuSans-61" x="353.369141"/>
     <use xlink:href="#DejaVuSans-67" x="414.648438"/>
     <use xlink:href="#DejaVuSans-68" x="478.125"/>
     <use xlink:href="#DejaVuSans-65" x="541.503906"/>
     <use xlink:href="#DejaVuSans-72" x="603.027344"/>
     <use xlink:href="#DejaVuSans-20" x="644.140625"/>
     <use xlink:href="#DejaVuSans-32" x="675.927734"/>
     <use xlink:href="#DejaVuSans-31" x="739.550781"/>
     <use xlink:href="#DejaVuSans-20" x="803.173828"/>
     <use xlink:href="#DejaVuSans-70" x="834.960938"/>
     <use xlink:href="#DejaVuSans-65" x="898.4375"/>
     <use xlink:href="#DejaVuSans-61" x="959.960938"/>
     <use xlink:href="#DejaVuSans-6b" x="1021.240234"/>
     <use xlink:href="#DejaVuSans-73" x="1079.150391"/>
    </g>
   </g>
  </g>
 </g>
 <defs>
  <clipPath id="peb23d2eff2">
   <rect x="57.6" y="27.648" width="303.2064" height="271.296"/>
  </clipPath>
 </defs>
</svg>
