<?xml version="1.0" encoding="utf-8" standalone="no"?>
<!DOCTYPE svg PUBLIC "-//W3C//DTD SVG 1.1//EN"
  "http://www.w3.org/Graphics/SVG/1.1/DTD/svg11.dtd">
<svg xmlns:xlink="http://www.w3.org/1999/xlink" width="460.8pt" height="345.6pt" viewBox="0 0 460.8 345.6" xmlns="http://www.w3.org/2000/svg" version="1.1">
 <metadata>
  <rdf:RDF xmlns:dc="http://purl.org/dc/elements/1.1/" xmlns:cc="http://creativecommons.org/ns#" xmlns:rdf="http://www.w3.org/1999/02/22-rdf-syntax-ns#">
   <cc:Work>
    <dc:type rdf:resource="http://purl.org/dc/dcmitype/StillImage"/>
    <dc:date>2024-05-29T07:59:46.187468</dc:date>
    <dc:format>image/svg+xml</dc:format>
    <dc:creator>
     <cc:Agent>
      <dc:title>Matplotlib v3.5.1, https://matplotlib.org/</dc:title>
     </cc:Agent>
    </dc:creator>
   </cc:Work>
  </rdf:RDF>
 </metadata>
 <defs>
  <style type="text/css">*{stroke-linejoin: round; stroke-linecap: butt}</style>
 </defs>
 <g id="figure_1">
  <g id="patch_1">
   <path d="M 0 345.6 
L 460.8 345.6 
L 460.8 0 
L 0 0 
z
" style="fill: #ffffff"/>
  </g>
  <g id="axes_1">
   <g id="patch_2">
    <path d="M 57.6 298.944 
L 360.8064 298.944 
L 360.8064 27.648 
L 57.6 27.648 
z
" style="fill: #ffffff"/>
   </g>
   <g id="line2d_1">
    <path d="M 36.933397 298.944 
L 36.933397 277.665882 
L 49.972572 277.665882 
L 49.972572 272.346353 
L 63.011746 272.346353 
L 63.011746 267.026824 
L 86.578163 267.026824 
L 86.578163 261.707294 
L 98.933205 261.707294 
L 98.933205 256.387765 
L 103.269713 256.387765 
L 103.269713 251.068235 
L 111.620752 251.068235 
L 111.620752 245.748706 
L 118.889854 245.748706 
L 118.889854 240.429176 
L 123.563797 240.429176 
L 123.563797 235.109647 
L 129.485876 235.109647 
L 129.485876 229.790118 
L 135.538796 229.790118 
L 135.538796 224.470588 
L 141.610664 224.470588 
L 141.610664 219.151059 
L 143.066428 219.151059 
L 143.066428 213.831529 
L 146.023332 213.831529 
L 146.023332 208.512 
L 147.712333 208.512 
L 147.712333 203.192471 
L 149.922224 203.192471 
L 149.922224 197.872941 
L 152.106991 197.872941 
L 152.106991 192.553412 
L 153.49813 192.553412 
L 153.49813 187.233882 
L 155.632755 187.233882 
L 155.632755 181.914353 
L 162.492258 181.914353 
L 162.492258 176.594824 
L 165.614697 176.594824 
L 165.614697 171.275294 
L 167.471536 171.275294 
L 167.471536 165.955765 
L 169.244573 165.955765 
L 169.244573 160.636235 
L 173.554715 160.636235 
L 173.554715 155.316706 
L 173.84272 155.316706 
L 173.84272 149.997176 
L 174.693607 149.997176 
L 174.693607 144.677647 
L 175.930944 144.677647 
L 175.930944 139.358118 
L 178.009191 139.358118 
L 178.009191 134.038588 
L 178.195651 134.038588 
L 178.195651 128.719059 
L 179.335488 128.719059 
L 179.335488 123.399529 
L 180.871788 123.399529 
L 180.871788 118.08 
L 181.287383 118.08 
L 181.287383 112.760471 
L 182.927846 112.760471 
L 182.927846 107.440941 
L 186.361605 107.440941 
L 186.361605 102.121412 
L 187.5456 102.121412 
L 187.5456 96.801882 
L 187.732781 96.801882 
L 187.732781 91.482353 
L 188.505176 91.482353 
L 188.505176 86.162824 
L 188.923555 86.162824 
L 188.923555 80.843294 
L 189.224176 80.843294 
L 189.224176 75.523765 
L 189.598943 75.523765 
L 189.598943 70.204235 
L 189.805819 70.204235 
L 189.805819 64.884706 
L 190.081815 64.884706 
L 190.081815 59.565176 
L 190.278055 59.565176 
L 190.278055 54.245647 
L 190.45616 54.245647 
L 190.45616 48.926118 
L 190.536563 48.926118 
L 190.536563 43.606588 
L 190.706949 43.606588 
L 190.706949 38.287059 
L 190.833733 38.287059 
L 190.833733 32.967529 
L 190.923024 32.967529 
L 190.923024 27.648 
L 360.8064 27.648 
" style="fill: none; stroke: #f5deb3; stroke-width: 4; stroke-linecap: square"/>
   </g>
   <g id="line2d_2">
    <defs>
     <path id="m60ccb655df" d="M 0 7.778175 
L 7.778175 0 
L 0 -7.778175 
L -7.778175 0 
z
" style="stroke: #f5deb3; stroke-width: 1.5; stroke-linejoin: miter"/>
    </defs>
    <g>
     <use xlink:href="#m60ccb655df" x="143.066428" y="213.831529" style="fill: #f5deb3; stroke: #f5deb3; stroke-width: 1.5; stroke-linejoin: miter"/>
     <use xlink:href="#m60ccb655df" x="180.871788" y="123.399529" style="fill: #f5deb3; stroke: #f5deb3; stroke-width: 1.5; stroke-linejoin: miter"/>
     <use xlink:href="#m60ccb655df" x="190.923024" y="32.967529" style="fill: #f5deb3; stroke: #f5deb3; stroke-width: 1.5; stroke-linejoin: miter"/>
     <use xlink:href="#m60ccb655df" x="190.923024" y="27.648" style="fill: #f5deb3; stroke: #f5deb3; stroke-width: 1.5; stroke-linejoin: miter"/>
     <use xlink:href="#m60ccb655df" x="190.923024" y="27.648" style="fill: #f5deb3; stroke: #f5deb3; stroke-width: 1.5; stroke-linejoin: miter"/>
     <use xlink:href="#m60ccb655df" x="360.8064" y="27.648" style="fill: #f5deb3; stroke: #f5deb3; stroke-width: 1.5; stroke-linejoin: miter"/>
    </g>
   </g>
   <g id="line2d_3">
    <path style="fill: none; stroke: #f5deb3; stroke-width: 4; stroke-linecap: square"/>
    <g/>
   </g>
   <g id="line2d_4">
    <path d="M 360.8064 27.648 
L 380.514816 33.07392 
" style="fill: none; stroke: #f5deb3; stroke-width: 4; stroke-linecap: square"/>
    <g>
     <use xlink:href="#m60ccb655df" x="360.8064" y="27.648" style="fill: #f5deb3; stroke: #f5deb3; stroke-width: 1.5; stroke-linejoin: miter"/>
     <use xlink:href="#m60ccb655df" x="380.514816" y="33.07392" style="fill: #f5deb3; stroke: #f5deb3; stroke-width: 1.5; stroke-linejoin: miter"/>
    </g>
   </g>
   <g id="matplotlib.axis_1">
    <g id="xtick_1">
     <g id="line2d_5">
      <path d="M 57.6 298.944 
L 57.6 27.648 
" clip-path="url(#p4c514b7d7e)" style="fill: none; stroke: #b0b0b0; stroke-width: 0.8; stroke-linecap: square"/>
     </g>
     <g id="line2d_6">
      <defs>
       <path id="ma1a6309161" d="M 0 0 
L 0 3.5 
" style="stroke: #000000; stroke-width: 0.8"/>
      </defs>
      <g>
       <use xlink:href="#ma1a6309161" x="57.6" y="298.944" style="stroke: #000000; stroke-width: 0.8"/>
      </g>
     </g>
     <g id="text_1">
      <!-- 0 -->
      <g transform="translate(52.191875 318.861344)scale(0.17 -0.17)">
       <defs>
        <path id="DejaVuSans-30" d="M 2034 4250 
Q 1547 4250 1301 3770 
Q 1056 3291 1056 2328 
Q 1056 1369 1301 889 
Q 1547 409 2034 409 
Q 2525 409 2770 889 
Q 3016 1369 3016 2328 
Q 3016 3291 2770 3770 
Q 2525 4250 2034 4250 
z
M 2034 4750 
Q 2819 4750 3233 4129 
Q 3647 3509 3647 2328 
Q 3647 1150 3233 529 
Q 2819 -91 2034 -91 
Q 1250 -91 836 529 
Q 422 1150 422 2328 
Q 422 3509 836 4129 
Q 1250 4750 2034 4750 
z
" transform="scale(0.015625)"/>
       </defs>
       <use xlink:href="#DejaVuSans-30"/>
      </g>
     </g>
    </g>
    <g id="xtick_2">
     <g id="line2d_7">
      <path d="M 144.2304 298.944 
L 144.2304 27.648 
" clip-path="url(#p4c514b7d7e)" style="fill: none; stroke: #b0b0b0; stroke-width: 0.8; stroke-linecap: square"/>
     </g>
     <g id="line2d_8">
      <g>
       <use xlink:href="#ma1a6309161" x="144.2304" y="298.944" style="stroke: #000000; stroke-width: 0.8"/>
      </g>
     </g>
     <g id="text_2">
      <!-- 2 -->
      <g transform="translate(138.822275 318.861344)scale(0.17 -0.17)">
       <defs>
        <path id="DejaVuSans-32" d="M 1228 531 
L 3431 531 
L 3431 0 
L 469 0 
L 469 531 
Q 828 903 1448 1529 
Q 2069 2156 2228 2338 
Q 2531 2678 2651 2914 
Q 2772 3150 2772 3378 
Q 2772 3750 2511 3984 
Q 2250 4219 1831 4219 
Q 1534 4219 1204 4116 
Q 875 4013 500 3803 
L 500 4441 
Q 881 4594 1212 4672 
Q 1544 4750 1819 4750 
Q 2544 4750 2975 4387 
Q 3406 4025 3406 3419 
Q 3406 3131 3298 2873 
Q 3191 2616 2906 2266 
Q 2828 2175 2409 1742 
Q 1991 1309 1228 531 
z
" transform="scale(0.015625)"/>
       </defs>
       <use xlink:href="#DejaVuSans-32"/>
      </g>
     </g>
    </g>
    <g id="xtick_3">
     <g id="line2d_9">
      <path d="M 230.8608 298.944 
L 230.8608 27.648 
" clip-path="url(#p4c514b7d7e)" style="fill: none; stroke: #b0b0b0; stroke-width: 0.8; stroke-linecap: square"/>
     </g>
     <g id="line2d_10">
      <g>
       <use xlink:href="#ma1a6309161" x="230.8608" y="298.944" style="stroke: #000000; stroke-width: 0.8"/>
      </g>
     </g>
     <g id="text_3">
      <!-- 4 -->
      <g transform="translate(225.452675 318.861344)scale(0.17 -0.17)">
       <defs>
        <path id="DejaVuSans-34" d="M 2419 4116 
L 825 1625 
L 2419 1625 
L 2419 4116 
z
M 2253 4666 
L 3047 4666 
L 3047 1625 
L 3713 1625 
L 3713 1100 
L 3047 1100 
L 3047 0 
L 2419 0 
L 2419 1100 
L 313 1100 
L 313 1709 
L 2253 4666 
z
" transform="scale(0.015625)"/>
       </defs>
       <use xlink:href="#DejaVuSans-34"/>
      </g>
     </g>
    </g>
    <g id="xtick_4">
     <g id="line2d_11">
      <path d="M 317.4912 298.944 
L 317.4912 27.648 
" clip-path="url(#p4c514b7d7e)" style="fill: none; stroke: #b0b0b0; stroke-width: 0.8; stroke-linecap: square"/>
     </g>
     <g id="line2d_12">
      <g>
       <use xlink:href="#ma1a6309161" x="317.4912" y="298.944" style="stroke: #000000; stroke-width: 0.8"/>
      </g>
     </g>
     <g id="text_4">
      <!-- 6 -->
      <g transform="translate(312.083075 318.861344)scale(0.17 -0.17)">
       <defs>
        <path id="DejaVuSans-36" d="M 2113 2584 
Q 1688 2584 1439 2293 
Q 1191 2003 1191 1497 
Q 1191 994 1439 701 
Q 1688 409 2113 409 
Q 2538 409 2786 701 
Q 3034 994 3034 1497 
Q 3034 2003 2786 2293 
Q 2538 2584 2113 2584 
z
M 3366 4563 
L 3366 3988 
Q 3128 4100 2886 4159 
Q 2644 4219 2406 4219 
Q 1781 4219 1451 3797 
Q 1122 3375 1075 2522 
Q 1259 2794 1537 2939 
Q 1816 3084 2150 3084 
Q 2853 3084 3261 2657 
Q 3669 2231 3669 1497 
Q 3669 778 3244 343 
Q 2819 -91 2113 -91 
Q 1303 -91 875 529 
Q 447 1150 447 2328 
Q 447 3434 972 4092 
Q 1497 4750 2381 4750 
Q 2619 4750 2861 4703 
Q 3103 4656 3366 4563 
z
" transform="scale(0.015625)"/>
       </defs>
       <use xlink:href="#DejaVuSans-36"/>
      </g>
     </g>
    </g>
    <g id="xtick_5">
     <g id="line2d_13">
      <path d="M 100.9152 298.944 
L 100.9152 27.648 
" clip-path="url(#p4c514b7d7e)" style="fill: none; stroke: #b0b0b0; stroke-width: 0.8; stroke-linecap: square"/>
     </g>
     <g id="line2d_14">
      <defs>
       <path id="m6c817c9ea2" d="M 0 0 
L 0 2 
" style="stroke: #000000; stroke-width: 0.6"/>
      </defs>
      <g>
       <use xlink:href="#m6c817c9ea2" x="100.9152" y="298.944" style="stroke: #000000; stroke-width: 0.6"/>
      </g>
     </g>
    </g>
    <g id="xtick_6">
     <g id="line2d_15">
      <path d="M 187.5456 298.944 
L 187.5456 27.648 
" clip-path="url(#p4c514b7d7e)" style="fill: none; stroke: #b0b0b0; stroke-width: 0.8; stroke-linecap: square"/>
     </g>
     <g id="line2d_16">
      <g>
       <use xlink:href="#m6c817c9ea2" x="187.5456" y="298.944" style="stroke: #000000; stroke-width: 0.6"/>
      </g>
     </g>
    </g>
    <g id="xtick_7">
     <g id="line2d_17">
      <path d="M 274.176 298.944 
L 274.176 27.648 
" clip-path="url(#p4c514b7d7e)" style="fill: none; stroke: #b0b0b0; stroke-width: 0.8; stroke-linecap: square"/>
     </g>
     <g id="line2d_18">
      <g>
       <use xlink:href="#m6c817c9ea2" x="274.176" y="298.944" style="stroke: #000000; stroke-width: 0.6"/>
      </g>
     </g>
    </g>
    <g id="xtick_8">
     <g id="line2d_19">
      <path d="M 360.8064 298.944 
L 360.8064 27.648 
" clip-path="url(#p4c514b7d7e)" style="fill: none; stroke: #b0b0b0; stroke-width: 0.8; stroke-linecap: square"/>
     </g>
     <g id="line2d_20">
      <g>
       <use xlink:href="#m6c817c9ea2" x="360.8064" y="298.944" style="stroke: #000000; stroke-width: 0.6"/>
      </g>
     </g>
    </g>
    <g id="text_5">
     <!-- log10(# f-evals / dimension) -->
     <g transform="translate(88.823278 339.314156)scale(0.17 -0.17)">
      <defs>
       <path id="DejaVuSans-6c" d="M 603 4863 
L 1178 4863 
L 1178 0 
L 603 0 
L 603 4863 
z
" transform="scale(0.015625)"/>
       <path id="DejaVuSans-6f" d="M 1959 3097 
Q 1497 3097 1228 2736 
Q 959 2375 959 1747 
Q 959 1119 1226 758 
Q 1494 397 1959 397 
Q 2419 397 2687 759 
Q 2956 1122 2956 1747 
Q 2956 2369 2687 2733 
Q 2419 3097 1959 3097 
z
M 1959 3584 
Q 2709 3584 3137 3096 
Q 3566 2609 3566 1747 
Q 3566 888 3137 398 
Q 2709 -91 1959 -91 
Q 1206 -91 779 398 
Q 353 888 353 1747 
Q 353 2609 779 3096 
Q 1206 3584 1959 3584 
z
" transform="scale(0.015625)"/>
       <path id="DejaVuSans-67" d="M 2906 1791 
Q 2906 2416 2648 2759 
Q 2391 3103 1925 3103 
Q 1463 3103 1205 2759 
Q 947 2416 947 1791 
Q 947 1169 1205 825 
Q 1463 481 1925 481 
Q 2391 481 2648 825 
Q 2906 1169 2906 1791 
z
M 3481 434 
Q 3481 -459 3084 -895 
Q 2688 -1331 1869 -1331 
Q 1566 -1331 1297 -1286 
Q 1028 -1241 775 -1147 
L 775 -588 
Q 1028 -725 1275 -790 
Q 1522 -856 1778 -856 
Q 2344 -856 2625 -561 
Q 2906 -266 2906 331 
L 2906 616 
Q 2728 306 2450 153 
Q 2172 0 1784 0 
Q 1141 0 747 490 
Q 353 981 353 1791 
Q 353 2603 747 3093 
Q 1141 3584 1784 3584 
Q 2172 3584 2450 3431 
Q 2728 3278 2906 2969 
L 2906 3500 
L 3481 3500 
L 3481 434 
z
" transform="scale(0.015625)"/>
       <path id="DejaVuSans-31" d="M 794 531 
L 1825 531 
L 1825 4091 
L 703 3866 
L 703 4441 
L 1819 4666 
L 2450 4666 
L 2450 531 
L 3481 531 
L 3481 0 
L 794 0 
L 794 531 
z
" transform="scale(0.015625)"/>
       <path id="DejaVuSans-28" d="M 1984 4856 
Q 1566 4138 1362 3434 
Q 1159 2731 1159 2009 
Q 1159 1288 1364 580 
Q 1569 -128 1984 -844 
L 1484 -844 
Q 1016 -109 783 600 
Q 550 1309 550 2009 
Q 550 2706 781 3412 
Q 1013 4119 1484 4856 
L 1984 4856 
z
" transform="scale(0.015625)"/>
       <path id="DejaVuSans-23" d="M 3272 2816 
L 2363 2816 
L 2100 1772 
L 3016 1772 
L 3272 2816 
z
M 2803 4594 
L 2478 3297 
L 3391 3297 
L 3719 4594 
L 4219 4594 
L 3897 3297 
L 4872 3297 
L 4872 2816 
L 3775 2816 
L 3519 1772 
L 4513 1772 
L 4513 1294 
L 3397 1294 
L 3072 0 
L 2572 0 
L 2894 1294 
L 1978 1294 
L 1656 0 
L 1153 0 
L 1478 1294 
L 494 1294 
L 494 1772 
L 1594 1772 
L 1856 2816 
L 850 2816 
L 850 3297 
L 1978 3297 
L 2297 4594 
L 2803 4594 
z
" transform="scale(0.015625)"/>
       <path id="DejaVuSans-20" transform="scale(0.015625)"/>
       <path id="DejaVuSans-66" d="M 2375 4863 
L 2375 4384 
L 1825 4384 
Q 1516 4384 1395 4259 
Q 1275 4134 1275 3809 
L 1275 3500 
L 2222 3500 
L 2222 3053 
L 1275 3053 
L 1275 0 
L 697 0 
L 697 3053 
L 147 3053 
L 147 3500 
L 697 3500 
L 697 3744 
Q 697 4328 969 4595 
Q 1241 4863 1831 4863 
L 2375 4863 
z
" transform="scale(0.015625)"/>
       <path id="DejaVuSans-2d" d="M 313 2009 
L 1997 2009 
L 1997 1497 
L 313 1497 
L 313 2009 
z
" transform="scale(0.015625)"/>
       <path id="DejaVuSans-65" d="M 3597 1894 
L 3597 1613 
L 953 1613 
Q 991 1019 1311 708 
Q 1631 397 2203 397 
Q 2534 397 2845 478 
Q 3156 559 3463 722 
L 3463 178 
Q 3153 47 2828 -22 
Q 2503 -91 2169 -91 
Q 1331 -91 842 396 
Q 353 884 353 1716 
Q 353 2575 817 3079 
Q 1281 3584 2069 3584 
Q 2775 3584 3186 3129 
Q 3597 2675 3597 1894 
z
M 3022 2063 
Q 3016 2534 2758 2815 
Q 2500 3097 2075 3097 
Q 1594 3097 1305 2825 
Q 1016 2553 972 2059 
L 3022 2063 
z
" transform="scale(0.015625)"/>
       <path id="DejaVuSans-76" d="M 191 3500 
L 800 3500 
L 1894 563 
L 2988 3500 
L 3597 3500 
L 2284 0 
L 1503 0 
L 191 3500 
z
" transform="scale(0.015625)"/>
       <path id="DejaVuSans-61" d="M 2194 1759 
Q 1497 1759 1228 1600 
Q 959 1441 959 1056 
Q 959 750 1161 570 
Q 1363 391 1709 391 
Q 2188 391 2477 730 
Q 2766 1069 2766 1631 
L 2766 1759 
L 2194 1759 
z
M 3341 1997 
L 3341 0 
L 2766 0 
L 2766 531 
Q 2569 213 2275 61 
Q 1981 -91 1556 -91 
Q 1019 -91 701 211 
Q 384 513 384 1019 
Q 384 1609 779 1909 
Q 1175 2209 1959 2209 
L 2766 2209 
L 2766 2266 
Q 2766 2663 2505 2880 
Q 2244 3097 1772 3097 
Q 1472 3097 1187 3025 
Q 903 2953 641 2809 
L 641 3341 
Q 956 3463 1253 3523 
Q 1550 3584 1831 3584 
Q 2591 3584 2966 3190 
Q 3341 2797 3341 1997 
z
" transform="scale(0.015625)"/>
       <path id="DejaVuSans-73" d="M 2834 3397 
L 2834 2853 
Q 2591 2978 2328 3040 
Q 2066 3103 1784 3103 
Q 1356 3103 1142 2972 
Q 928 2841 928 2578 
Q 928 2378 1081 2264 
Q 1234 2150 1697 2047 
L 1894 2003 
Q 2506 1872 2764 1633 
Q 3022 1394 3022 966 
Q 3022 478 2636 193 
Q 2250 -91 1575 -91 
Q 1294 -91 989 -36 
Q 684 19 347 128 
L 347 722 
Q 666 556 975 473 
Q 1284 391 1588 391 
Q 1994 391 2212 530 
Q 2431 669 2431 922 
Q 2431 1156 2273 1281 
Q 2116 1406 1581 1522 
L 1381 1569 
Q 847 1681 609 1914 
Q 372 2147 372 2553 
Q 372 3047 722 3315 
Q 1072 3584 1716 3584 
Q 2034 3584 2315 3537 
Q 2597 3491 2834 3397 
z
" transform="scale(0.015625)"/>
       <path id="DejaVuSans-2f" d="M 1625 4666 
L 2156 4666 
L 531 -594 
L 0 -594 
L 1625 4666 
z
" transform="scale(0.015625)"/>
       <path id="DejaVuSans-64" d="M 2906 2969 
L 2906 4863 
L 3481 4863 
L 3481 0 
L 2906 0 
L 2906 525 
Q 2725 213 2448 61 
Q 2172 -91 1784 -91 
Q 1150 -91 751 415 
Q 353 922 353 1747 
Q 353 2572 751 3078 
Q 1150 3584 1784 3584 
Q 2172 3584 2448 3432 
Q 2725 3281 2906 2969 
z
M 947 1747 
Q 947 1113 1208 752 
Q 1469 391 1925 391 
Q 2381 391 2643 752 
Q 2906 1113 2906 1747 
Q 2906 2381 2643 2742 
Q 2381 3103 1925 3103 
Q 1469 3103 1208 2742 
Q 947 2381 947 1747 
z
" transform="scale(0.015625)"/>
       <path id="DejaVuSans-69" d="M 603 3500 
L 1178 3500 
L 1178 0 
L 603 0 
L 603 3500 
z
M 603 4863 
L 1178 4863 
L 1178 4134 
L 603 4134 
L 603 4863 
z
" transform="scale(0.015625)"/>
       <path id="DejaVuSans-6d" d="M 3328 2828 
Q 3544 3216 3844 3400 
Q 4144 3584 4550 3584 
Q 5097 3584 5394 3201 
Q 5691 2819 5691 2113 
L 5691 0 
L 5113 0 
L 5113 2094 
Q 5113 2597 4934 2840 
Q 4756 3084 4391 3084 
Q 3944 3084 3684 2787 
Q 3425 2491 3425 1978 
L 3425 0 
L 2847 0 
L 2847 2094 
Q 2847 2600 2669 2842 
Q 2491 3084 2119 3084 
Q 1678 3084 1418 2786 
Q 1159 2488 1159 1978 
L 1159 0 
L 581 0 
L 581 3500 
L 1159 3500 
L 1159 2956 
Q 1356 3278 1631 3431 
Q 1906 3584 2284 3584 
Q 2666 3584 2933 3390 
Q 3200 3197 3328 2828 
z
" transform="scale(0.015625)"/>
       <path id="DejaVuSans-6e" d="M 3513 2113 
L 3513 0 
L 2938 0 
L 2938 2094 
Q 2938 2591 2744 2837 
Q 2550 3084 2163 3084 
Q 1697 3084 1428 2787 
Q 1159 2491 1159 1978 
L 1159 0 
L 581 0 
L 581 3500 
L 1159 3500 
L 1159 2956 
Q 1366 3272 1645 3428 
Q 1925 3584 2291 3584 
Q 2894 3584 3203 3211 
Q 3513 2838 3513 2113 
z
" transform="scale(0.015625)"/>
       <path id="DejaVuSans-29" d="M 513 4856 
L 1013 4856 
Q 1481 4119 1714 3412 
Q 1947 2706 1947 2009 
Q 1947 1309 1714 600 
Q 1481 -109 1013 -844 
L 513 -844 
Q 928 -128 1133 580 
Q 1338 1288 1338 2009 
Q 1338 2731 1133 3434 
Q 928 4138 513 4856 
z
" transform="scale(0.015625)"/>
      </defs>
      <use xlink:href="#DejaVuSans-6c"/>
      <use xlink:href="#DejaVuSans-6f" x="27.783203"/>
      <use xlink:href="#DejaVuSans-67" x="88.964844"/>
      <use xlink:href="#DejaVuSans-31" x="152.441406"/>
      <use xlink:href="#DejaVuSans-30" x="216.064453"/>
      <use xlink:href="#DejaVuSans-28" x="279.6875"/>
      <use xlink:href="#DejaVuSans-23" x="318.701172"/>
      <use xlink:href="#DejaVuSans-20" x="402.490234"/>
      <use xlink:href="#DejaVuSans-66" x="434.277344"/>
      <use xlink:href="#DejaVuSans-2d" x="463.982422"/>
      <use xlink:href="#DejaVuSans-65" x="500.066406"/>
      <use xlink:href="#DejaVuSans-76" x="561.589844"/>
      <use xlink:href="#DejaVuSans-61" x="620.769531"/>
      <use xlink:href="#DejaVuSans-6c" x="682.048828"/>
      <use xlink:href="#DejaVuSans-73" x="709.832031"/>
      <use xlink:href="#DejaVuSans-20" x="761.931641"/>
      <use xlink:href="#DejaVuSans-2f" x="793.71875"/>
      <use xlink:href="#DejaVuSans-20" x="827.410156"/>
      <use xlink:href="#DejaVuSans-64" x="859.197266"/>
      <use xlink:href="#DejaVuSans-69" x="922.673828"/>
      <use xlink:href="#DejaVuSans-6d" x="950.457031"/>
      <use xlink:href="#DejaVuSans-65" x="1047.869141"/>
      <use xlink:href="#DejaVuSans-6e" x="1109.392578"/>
      <use xlink:href="#DejaVuSans-73" x="1172.771484"/>
      <use xlink:href="#DejaVuSans-69" x="1224.871094"/>
      <use xlink:href="#DejaVuSans-6f" x="1252.654297"/>
      <use xlink:href="#DejaVuSans-6e" x="1313.835938"/>
      <use xlink:href="#DejaVuSans-29" x="1377.214844"/>
     </g>
    </g>
   </g>
   <g id="matplotlib.axis_2">
    <g id="ytick_1">
     <g id="line2d_21">
      <path d="M 57.6 298.944 
L 360.8064 298.944 
" clip-path="url(#p4c514b7d7e)" style="fill: none; stroke: #b0b0b0; stroke-width: 0.8; stroke-linecap: square"/>
     </g>
     <g id="line2d_22">
      <defs>
       <path id="m5edb401e49" d="M 0 0 
L -3.5 0 
" style="stroke: #000000; stroke-width: 0.8"/>
      </defs>
      <g>
       <use xlink:href="#m5edb401e49" x="57.6" y="298.944" style="stroke: #000000; stroke-width: 0.8"/>
      </g>
     </g>
     <g id="text_6">
      <!-- 0.0 -->
      <g transform="translate(25.155 305.02275)scale(0.16 -0.16)">
       <defs>
        <path id="DejaVuSans-2e" d="M 684 794 
L 1344 794 
L 1344 0 
L 684 0 
L 684 794 
z
" transform="scale(0.015625)"/>
       </defs>
       <use xlink:href="#DejaVuSans-30"/>
       <use xlink:href="#DejaVuSans-2e" x="63.623047"/>
       <use xlink:href="#DejaVuSans-30" x="95.410156"/>
      </g>
     </g>
    </g>
    <g id="ytick_2">
     <g id="line2d_23">
      <path d="M 57.6 244.6848 
L 360.8064 244.6848 
" clip-path="url(#p4c514b7d7e)" style="fill: none; stroke: #b0b0b0; stroke-width: 0.8; stroke-linecap: square"/>
     </g>
     <g id="line2d_24">
      <g>
       <use xlink:href="#m5edb401e49" x="57.6" y="244.6848" style="stroke: #000000; stroke-width: 0.8"/>
      </g>
     </g>
     <g id="text_7">
      <!-- 0.2 -->
      <g transform="translate(25.155 250.76355)scale(0.16 -0.16)">
       <use xlink:href="#DejaVuSans-30"/>
       <use xlink:href="#DejaVuSans-2e" x="63.623047"/>
       <use xlink:href="#DejaVuSans-32" x="95.410156"/>
      </g>
     </g>
    </g>
    <g id="ytick_3">
     <g id="line2d_25">
      <path d="M 57.6 190.4256 
L 360.8064 190.4256 
" clip-path="url(#p4c514b7d7e)" style="fill: none; stroke: #b0b0b0; stroke-width: 0.8; stroke-linecap: square"/>
     </g>
     <g id="line2d_26">
      <g>
       <use xlink:href="#m5edb401e49" x="57.6" y="190.4256" style="stroke: #000000; stroke-width: 0.8"/>
      </g>
     </g>
     <g id="text_8">
      <!-- 0.4 -->
      <g transform="translate(25.155 196.50435)scale(0.16 -0.16)">
       <use xlink:href="#DejaVuSans-30"/>
       <use xlink:href="#DejaVuSans-2e" x="63.623047"/>
       <use xlink:href="#DejaVuSans-34" x="95.410156"/>
      </g>
     </g>
    </g>
    <g id="ytick_4">
     <g id="line2d_27">
      <path d="M 57.6 136.1664 
L 360.8064 136.1664 
" clip-path="url(#p4c514b7d7e)" style="fill: none; stroke: #b0b0b0; stroke-width: 0.8; stroke-linecap: square"/>
     </g>
     <g id="line2d_28">
      <g>
       <use xlink:href="#m5edb401e49" x="57.6" y="136.1664" style="stroke: #000000; stroke-width: 0.8"/>
      </g>
     </g>
     <g id="text_9">
      <!-- 0.6 -->
      <g transform="translate(25.155 142.24515)scale(0.16 -0.16)">
       <use xlink:href="#DejaVuSans-30"/>
       <use xlink:href="#DejaVuSans-2e" x="63.623047"/>
       <use xlink:href="#DejaVuSans-36" x="95.410156"/>
      </g>
     </g>
    </g>
    <g id="ytick_5">
     <g id="line2d_29">
      <path d="M 57.6 81.9072 
L 360.8064 81.9072 
" clip-path="url(#p4c514b7d7e)" style="fill: none; stroke: #b0b0b0; stroke-width: 0.8; stroke-linecap: square"/>
     </g>
     <g id="line2d_30">
      <g>
       <use xlink:href="#m5edb401e49" x="57.6" y="81.9072" style="stroke: #000000; stroke-width: 0.8"/>
      </g>
     </g>
     <g id="text_10">
      <!-- 0.8 -->
      <g transform="translate(25.155 87.98595)scale(0.16 -0.16)">
       <defs>
        <path id="DejaVuSans-38" d="M 2034 2216 
Q 1584 2216 1326 1975 
Q 1069 1734 1069 1313 
Q 1069 891 1326 650 
Q 1584 409 2034 409 
Q 2484 409 2743 651 
Q 3003 894 3003 1313 
Q 3003 1734 2745 1975 
Q 2488 2216 2034 2216 
z
M 1403 2484 
Q 997 2584 770 2862 
Q 544 3141 544 3541 
Q 544 4100 942 4425 
Q 1341 4750 2034 4750 
Q 2731 4750 3128 4425 
Q 3525 4100 3525 3541 
Q 3525 3141 3298 2862 
Q 3072 2584 2669 2484 
Q 3125 2378 3379 2068 
Q 3634 1759 3634 1313 
Q 3634 634 3220 271 
Q 2806 -91 2034 -91 
Q 1263 -91 848 271 
Q 434 634 434 1313 
Q 434 1759 690 2068 
Q 947 2378 1403 2484 
z
M 1172 3481 
Q 1172 3119 1398 2916 
Q 1625 2713 2034 2713 
Q 2441 2713 2670 2916 
Q 2900 3119 2900 3481 
Q 2900 3844 2670 4047 
Q 2441 4250 2034 4250 
Q 1625 4250 1398 4047 
Q 1172 3844 1172 3481 
z
" transform="scale(0.015625)"/>
       </defs>
       <use xlink:href="#DejaVuSans-30"/>
       <use xlink:href="#DejaVuSans-2e" x="63.623047"/>
       <use xlink:href="#DejaVuSans-38" x="95.410156"/>
      </g>
     </g>
    </g>
    <g id="ytick_6">
     <g id="line2d_31">
      <path d="M 57.6 27.648 
L 360.8064 27.648 
" clip-path="url(#p4c514b7d7e)" style="fill: none; stroke: #b0b0b0; stroke-width: 0.8; stroke-linecap: square"/>
     </g>
     <g id="line2d_32">
      <g>
       <use xlink:href="#m5edb401e49" x="57.6" y="27.648" style="stroke: #000000; stroke-width: 0.8"/>
      </g>
     </g>
     <g id="text_11">
      <!-- 1.0 -->
      <g transform="translate(25.155 33.72675)scale(0.16 -0.16)">
       <use xlink:href="#DejaVuSans-31"/>
       <use xlink:href="#DejaVuSans-2e" x="63.623047"/>
       <use xlink:href="#DejaVuSans-30" x="95.410156"/>
      </g>
     </g>
    </g>
    <g id="text_12">
     <!-- Fraction of function,target pairs -->
     <g transform="translate(17.619531 297.681)rotate(-90)scale(0.17 -0.17)">
      <defs>
       <path id="DejaVuSans-46" d="M 628 4666 
L 3309 4666 
L 3309 4134 
L 1259 4134 
L 1259 2759 
L 3109 2759 
L 3109 2228 
L 1259 2228 
L 1259 0 
L 628 0 
L 628 4666 
z
" transform="scale(0.015625)"/>
       <path id="DejaVuSans-72" d="M 2631 2963 
Q 2534 3019 2420 3045 
Q 2306 3072 2169 3072 
Q 1681 3072 1420 2755 
Q 1159 2438 1159 1844 
L 1159 0 
L 581 0 
L 581 3500 
L 1159 3500 
L 1159 2956 
Q 1341 3275 1631 3429 
Q 1922 3584 2338 3584 
Q 2397 3584 2469 3576 
Q 2541 3569 2628 3553 
L 2631 2963 
z
" transform="scale(0.015625)"/>
       <path id="DejaVuSans-63" d="M 3122 3366 
L 3122 2828 
Q 2878 2963 2633 3030 
Q 2388 3097 2138 3097 
Q 1578 3097 1268 2742 
Q 959 2388 959 1747 
Q 959 1106 1268 751 
Q 1578 397 2138 397 
Q 2388 397 2633 464 
Q 2878 531 3122 666 
L 3122 134 
Q 2881 22 2623 -34 
Q 2366 -91 2075 -91 
Q 1284 -91 818 406 
Q 353 903 353 1747 
Q 353 2603 823 3093 
Q 1294 3584 2113 3584 
Q 2378 3584 2631 3529 
Q 2884 3475 3122 3366 
z
" transform="scale(0.015625)"/>
       <path id="DejaVuSans-74" d="M 1172 4494 
L 1172 3500 
L 2356 3500 
L 2356 3053 
L 1172 3053 
L 1172 1153 
Q 1172 725 1289 603 
Q 1406 481 1766 481 
L 2356 481 
L 2356 0 
L 1766 0 
Q 1100 0 847 248 
Q 594 497 594 1153 
L 594 3053 
L 172 3053 
L 172 3500 
L 594 3500 
L 594 4494 
L 1172 4494 
z
" transform="scale(0.015625)"/>
       <path id="DejaVuSans-75" d="M 544 1381 
L 544 3500 
L 1119 3500 
L 1119 1403 
Q 1119 906 1312 657 
Q 1506 409 1894 409 
Q 2359 409 2629 706 
Q 2900 1003 2900 1516 
L 2900 3500 
L 3475 3500 
L 3475 0 
L 2900 0 
L 2900 538 
Q 2691 219 2414 64 
Q 2138 -91 1772 -91 
Q 1169 -91 856 284 
Q 544 659 544 1381 
z
M 1991 3584 
L 1991 3584 
z
" transform="scale(0.015625)"/>
       <path id="DejaVuSans-2c" d="M 750 794 
L 1409 794 
L 1409 256 
L 897 -744 
L 494 -744 
L 750 256 
L 750 794 
z
" transform="scale(0.015625)"/>
       <path id="DejaVuSans-70" d="M 1159 525 
L 1159 -1331 
L 581 -1331 
L 581 3500 
L 1159 3500 
L 1159 2969 
Q 1341 3281 1617 3432 
Q 1894 3584 2278 3584 
Q 2916 3584 3314 3078 
Q 3713 2572 3713 1747 
Q 3713 922 3314 415 
Q 2916 -91 2278 -91 
Q 1894 -91 1617 61 
Q 1341 213 1159 525 
z
M 3116 1747 
Q 3116 2381 2855 2742 
Q 2594 3103 2138 3103 
Q 1681 3103 1420 2742 
Q 1159 2381 1159 1747 
Q 1159 1113 1420 752 
Q 1681 391 2138 391 
Q 2594 391 2855 752 
Q 3116 1113 3116 1747 
z
" transform="scale(0.015625)"/>
      </defs>
      <use xlink:href="#DejaVuSans-46"/>
      <use xlink:href="#DejaVuSans-72" x="50.269531"/>
      <use xlink:href="#DejaVuSans-61" x="91.382812"/>
      <use xlink:href="#DejaVuSans-63" x="152.662109"/>
      <use xlink:href="#DejaVuSans-74" x="207.642578"/>
      <use xlink:href="#DejaVuSans-69" x="246.851562"/>
      <use xlink:href="#DejaVuSans-6f" x="274.634766"/>
      <use xlink:href="#DejaVuSans-6e" x="335.816406"/>
      <use xlink:href="#DejaVuSans-20" x="399.195312"/>
      <use xlink:href="#DejaVuSans-6f" x="430.982422"/>
      <use xlink:href="#DejaVuSans-66" x="492.164062"/>
      <use xlink:href="#DejaVuSans-20" x="527.369141"/>
      <use xlink:href="#DejaVuSans-66" x="559.15625"/>
      <use xlink:href="#DejaVuSans-75" x="594.361328"/>
      <use xlink:href="#DejaVuSans-6e" x="657.740234"/>
      <use xlink:href="#DejaVuSans-63" x="721.119141"/>
      <use xlink:href="#DejaVuSans-74" x="776.099609"/>
      <use xlink:href="#DejaVuSans-69" x="815.308594"/>
      <use xlink:href="#DejaVuSans-6f" x="843.091797"/>
      <use xlink:href="#DejaVuSans-6e" x="904.273438"/>
      <use xlink:href="#DejaVuSans-2c" x="967.652344"/>
      <use xlink:href="#DejaVuSans-74" x="999.439453"/>
      <use xlink:href="#DejaVuSans-61" x="1038.648438"/>
      <use xlink:href="#DejaVuSans-72" x="1099.927734"/>
      <use xlink:href="#DejaVuSans-67" x="1139.291016"/>
      <use xlink:href="#DejaVuSans-65" x="1202.767578"/>
      <use xlink:href="#DejaVuSans-74" x="1264.291016"/>
      <use xlink:href="#DejaVuSans-20" x="1303.5"/>
      <use xlink:href="#DejaVuSans-70" x="1335.287109"/>
      <use xlink:href="#DejaVuSans-61" x="1398.763672"/>
      <use xlink:href="#DejaVuSans-69" x="1460.042969"/>
      <use xlink:href="#DejaVuSans-72" x="1487.826172"/>
      <use xlink:href="#DejaVuSans-73" x="1528.939453"/>
     </g>
    </g>
   </g>
   <g id="line2d_33">
    <defs>
     <path id="mf5c51eb75e" d="M 0 1.5 
C 0.397805 1.5 0.77937 1.341951 1.06066 1.06066 
C 1.341951 0.77937 1.5 0.397805 1.5 0 
C 1.5 -0.397805 1.341951 -0.77937 1.06066 -1.06066 
C 0.77937 -1.341951 0.397805 -1.5 0 -1.5 
C -0.397805 -1.5 -0.77937 -1.341951 -1.06066 -1.06066 
C -1.341951 -0.77937 -1.5 -0.397805 -1.5 0 
C -1.5 0.397805 -1.341951 0.77937 -1.06066 1.06066 
C -0.77937 1.341951 -0.397805 1.5 0 1.5 
z
" style="stroke: #f5deb3"/>
    </defs>
    <g>
     <use xlink:href="#mf5c51eb75e" x="190.923024" y="27.648" style="fill: #f5deb3; stroke: #f5deb3"/>
     <use xlink:href="#mf5c51eb75e" x="190.923024" y="27.648" style="fill: #f5deb3; stroke: #f5deb3"/>
    </g>
   </g>
   <g id="line2d_34">
    <defs>
     <path id="m820a046a40" d="M 0 1.5 
C 0.397805 1.5 0.77937 1.341951 1.06066 1.06066 
C 1.341951 0.77937 1.5 0.397805 1.5 0 
C 1.5 -0.397805 1.341951 -0.77937 1.06066 -1.06066 
C 0.77937 -1.341951 0.397805 -1.5 0 -1.5 
C -0.397805 -1.5 -0.77937 -1.341951 -1.06066 -1.06066 
C -1.341951 -0.77937 -1.5 -0.397805 -1.5 0 
C -1.5 0.397805 -1.341951 0.77937 -1.06066 1.06066 
C -0.77937 1.341951 -0.397805 1.5 0 1.5 
z
" style="stroke: #000080"/>
    </defs>
    <g>
     <use xlink:href="#m820a046a40" x="350.002245" y="27.648" style="fill: #000080; stroke: #000080"/>
     <use xlink:href="#m820a046a40" x="350.002245" y="27.648" style="fill: #000080; stroke: #000080"/>
    </g>
   </g>
   <g id="line2d_35">
    <path d="M 36.933397 298.944 
L 36.933397 285.467859 
L 49.972572 285.467859 
L 49.972572 279.793694 
L 57.6 279.793694 
L 57.6 275.538071 
L 63.011746 275.538071 
L 63.011746 274.8288 
L 67.209423 274.8288 
L 67.209423 272.700988 
L 70.639174 272.700988 
L 70.639174 272.346353 
L 76.050921 272.346353 
L 76.050921 268.8 
L 80.248597 268.8 
L 80.248597 268.090729 
L 82.04153 268.090729 
L 82.04153 266.317553 
L 83.678349 266.317553 
L 83.678349 265.608282 
L 85.184077 265.608282 
L 85.184077 264.544376 
L 86.578163 264.544376 
L 86.578163 264.189741 
L 89.090095 264.189741 
L 89.090095 262.061929 
L 90.230539 262.061929 
L 90.230539 261.352659 
L 92.322865 261.352659 
L 92.322865 260.288753 
L 98.933205 260.288753 
L 98.933205 259.934118 
L 100.9152 259.934118 
L 100.9152 259.579482 
L 104.860369 259.579482 
L 104.860369 258.870212 
L 105.36204 258.870212 
L 105.36204 258.515576 
L 107.68741 258.515576 
L 107.68741 258.160941 
L 108.119879 258.160941 
L 108.119879 257.451671 
L 111.262425 257.451671 
L 111.262425 257.097035 
L 115.168444 257.097035 
L 115.168444 256.7424 
L 120.944062 256.7424 
L 120.944062 256.387765 
L 123.374735 256.387765 
L 123.374735 256.033129 
L 124.481616 256.033129 
L 124.481616 254.969224 
L 127.304491 254.969224 
L 127.304491 254.614588 
L 129.893363 254.614588 
L 129.893363 253.196047 
L 130.027253 253.196047 
L 130.027253 252.841412 
L 131.686295 252.841412 
L 131.686295 251.777506 
L 134.41079 251.777506 
L 134.41079 250.7136 
L 136.602972 250.7136 
L 136.602972 250.358965 
L 139.875304 250.358965 
L 139.875304 250.004329 
L 143.397043 250.004329 
L 143.397043 249.649694 
L 145.503164 249.649694 
L 145.503164 248.585788 
L 145.908976 248.585788 
L 145.908976 248.231153 
L 148.073609 248.231153 
L 148.073609 247.521882 
L 151.306379 247.521882 
L 151.306379 247.167247 
L 153.914919 247.167247 
L 153.914919 245.039435 
L 154.064218 245.039435 
L 154.064218 244.6848 
L 154.468783 244.6848 
L 154.468783 242.911624 
L 154.793439 242.911624 
L 154.900425 240.783812 
L 155.042132 240.783812 
L 155.042132 240.429176 
L 155.252711 240.429176 
L 155.252711 239.010635 
L 155.529866 239.010635 
L 155.529866 238.301365 
L 155.701037 238.301365 
L 155.802997 235.464282 
L 156.761123 235.464282 
L 156.793307 234.755012 
L 156.953406 234.755012 
L 156.953406 234.400376 
L 157.175281 234.400376 
L 157.175281 234.045741 
L 157.61133 234.045741 
L 157.61133 233.336471 
L 157.734081 233.336471 
L 157.734081 232.6272 
L 158.127579 232.6272 
L 158.15751 231.208659 
L 158.247018 231.208659 
L 158.306454 230.144753 
L 158.542339 230.144753 
L 158.542339 229.790118 
L 158.659181 229.790118 
L 158.746339 228.016941 
L 158.861925 228.016941 
L 158.861925 227.662306 
L 159.005416 227.662306 
L 159.090988 226.5984 
L 159.429436 226.5984 
L 159.429436 226.243765 
L 159.596403 226.243765 
L 159.596403 225.889129 
L 159.789344 225.889129 
L 159.871431 224.115953 
L 160.088594 224.115953 
L 160.142495 223.406682 
L 160.356569 223.406682 
L 160.4627 221.988141 
L 160.594526 221.988141 
L 160.646999 220.924235 
L 160.855439 220.924235 
L 160.855439 220.5696 
L 161.163832 220.5696 
L 161.214743 218.796424 
L 161.316153 218.796424 
L 161.316153 218.441788 
L 161.937874 218.441788 
L 161.96232 217.377882 
L 162.325256 217.377882 
L 162.325256 217.023247 
L 162.515995 217.023247 
L 162.610645 216.313976 
L 163.053839 216.313976 
L 163.053839 215.604706 
L 163.168754 215.604706 
L 163.168754 215.250071 
L 163.59914 215.250071 
L 163.59914 214.895435 
L 163.865975 214.895435 
L 163.865975 214.5408 
L 164.686815 214.5408 
L 164.686815 214.186165 
L 165.35131 214.186165 
L 165.432746 213.476894 
L 165.473332 213.476894 
L 165.473332 213.122259 
L 165.735027 213.122259 
L 165.834717 211.349082 
L 166.012839 211.349082 
L 166.032527 210.639812 
L 166.556452 210.639812 
L 166.594686 209.930541 
L 167.066179 209.930541 
L 167.066179 209.221271 
L 168.116567 209.221271 
L 168.116567 208.866635 
L 168.344164 208.866635 
L 168.344164 208.512 
L 170.151329 208.512 
L 170.151329 208.157365 
L 170.386968 208.157365 
L 170.386968 207.802729 
L 171.814477 207.802729 
L 171.814477 207.448094 
L 173.073712 207.448094 
L 173.141258 206.384188 
L 175.220095 206.384188 
L 175.220095 206.029553 
L 177.683669 206.029553 
L 177.683669 205.320282 
L 177.915264 205.320282 
L 177.988359 204.611012 
L 179.345187 204.611012 
L 179.345187 204.256376 
L 180.068066 204.256376 
L 180.068066 203.901741 
L 180.281466 203.901741 
L 180.281466 203.547106 
L 181.50476 203.547106 
L 181.539308 202.837835 
L 183.488484 202.837835 
L 183.488484 202.4832 
L 183.941981 202.4832 
L 183.941981 202.128565 
L 184.205928 202.128565 
L 184.205928 201.773929 
L 185.743887 201.773929 
L 185.743887 201.064659 
L 186.49469 201.064659 
L 186.49469 200.710024 
L 187.726572 200.710024 
L 187.726572 200.355388 
L 188.132062 200.355388 
L 188.22906 199.646118 
L 188.277372 199.646118 
L 188.277372 199.291482 
L 189.189733 199.291482 
L 189.189733 198.936847 
L 191.265723 198.936847 
L 191.265723 198.582212 
L 194.988188 198.582212 
L 194.988188 198.227576 
L 195.963012 198.227576 
L 195.963012 197.872941 
L 199.963244 197.872941 
L 199.963244 197.518306 
L 200.38304 197.518306 
L 200.38304 197.163671 
L 201.159076 197.163671 
L 201.159076 196.809035 
L 202.977977 196.809035 
L 202.977977 196.4544 
L 205.590064 196.4544 
L 205.590064 196.099765 
L 207.112604 196.099765 
L 207.112604 195.745129 
L 211.320471 195.745129 
L 211.320471 195.390494 
L 211.779056 195.390494 
L 211.779056 194.681224 
L 212.314325 194.681224 
L 212.322726 193.617318 
L 213.948763 193.617318 
L 213.948763 193.262682 
L 215.379792 193.262682 
L 215.379792 192.908047 
L 215.902232 192.908047 
L 215.941078 191.844141 
L 216.064026 191.844141 
L 216.064026 191.489506 
L 216.609562 191.489506 
L 216.609562 191.134871 
L 218.185535 191.134871 
L 218.185535 190.780235 
L 218.3594 190.780235 
L 218.3594 190.4256 
L 218.565456 190.4256 
L 218.565456 190.070965 
L 219.552892 190.070965 
L 219.552892 189.716329 
L 221.059147 189.716329 
L 221.059147 188.652424 
L 224.515803 188.652424 
L 224.515803 188.297788 
L 225.439855 188.297788 
L 225.439855 187.943153 
L 226.834 187.943153 
L 226.834 187.588518 
L 227.012574 187.588518 
L 227.012574 186.879247 
L 227.815366 186.879247 
L 227.815366 186.524612 
L 227.971748 186.524612 
L 227.971748 186.169976 
L 229.240391 186.169976 
L 229.240391 185.815341 
L 229.804585 185.815341 
L 229.804585 185.460706 
L 229.944016 185.460706 
L 229.944016 185.106071 
L 230.521662 185.106071 
L 230.590489 184.042165 
L 231.80607 184.042165 
L 231.80607 183.687529 
L 241.321277 183.687529 
L 241.321277 183.332894 
L 249.486326 183.332894 
L 249.577662 181.205082 
L 249.942045 181.205082 
L 249.942045 180.850447 
L 250.088598 180.850447 
L 250.141322 179.077271 
L 250.804276 179.077271 
L 250.804276 178.722635 
L 251.121106 178.722635 
L 251.157167 177.658729 
L 251.53597 177.658729 
L 251.53597 177.304094 
L 251.658417 177.304094 
L 251.698642 176.240188 
L 252.013512 176.240188 
L 252.120144 175.530918 
L 255.856052 175.530918 
L 255.857381 174.821647 
L 257.295215 174.821647 
L 257.295215 174.467012 
L 257.450854 174.467012 
L 257.49413 173.048471 
L 257.714898 173.048471 
L 257.714898 172.693835 
L 257.897384 172.693835 
L 257.922396 171.984565 
L 258.031136 171.984565 
L 258.031136 171.629929 
L 258.513774 171.629929 
L 258.513774 171.275294 
L 262.015069 171.275294 
L 262.015069 170.920659 
L 262.158507 170.920659 
L 262.195886 170.211388 
L 262.535632 170.211388 
L 262.535632 169.856753 
L 269.3134 169.856753 
L 269.322249 168.083576 
L 269.467698 168.083576 
L 269.528245 167.374306 
L 274.208391 167.374306 
L 274.312203 164.537224 
L 274.327013 164.537224 
L 274.403864 161.700141 
L 274.536527 161.700141 
L 274.559949 160.990871 
L 274.660622 160.990871 
L 274.660622 160.636235 
L 274.846092 160.636235 
L 274.846092 160.2816 
L 275.006726 160.2816 
L 275.037838 159.217694 
L 275.129914 159.217694 
L 275.129914 158.863059 
L 275.2613 158.863059 
L 275.2613 157.799153 
L 275.472835 157.799153 
L 275.535822 156.735247 
L 275.636468 156.735247 
L 275.636468 156.380612 
L 275.938353 156.380612 
L 275.938353 156.025976 
L 277.199775 156.025976 
L 277.199775 155.671341 
L 278.659734 155.671341 
L 278.679141 154.2528 
L 278.78908 154.2528 
L 278.800363 152.834259 
L 278.947054 152.834259 
L 279.026685 151.415718 
L 279.142468 151.415718 
L 279.224778 149.642541 
L 280.202784 149.642541 
L 280.202784 149.287906 
L 280.653192 149.287906 
L 280.730491 147.514729 
L 280.784363 147.514729 
L 280.791776 146.805459 
L 280.969066 146.805459 
L 280.969066 146.450824 
L 282.150191 146.450824 
L 282.150191 145.741553 
L 284.940556 145.741553 
L 285.034473 144.323012 
L 287.245969 144.323012 
L 287.293768 142.549835 
L 287.408129 142.549835 
L 287.408129 142.1952 
L 287.563025 142.1952 
L 287.651029 139.358118 
L 287.698177 139.358118 
L 287.76565 138.648847 
L 287.90737 138.648847 
L 287.959578 137.230306 
L 288.1791 137.230306 
L 288.1791 136.875671 
L 289.590314 136.875671 
L 289.669208 134.038588 
L 289.751554 134.038588 
L 289.861836 131.201506 
L 289.922695 131.201506 
L 289.922695 130.846871 
L 290.736721 130.846871 
L 290.80806 128.364424 
L 291.629487 128.364424 
L 291.701057 127.300518 
L 293.357147 127.300518 
L 293.400255 124.463435 
L 295.115966 124.463435 
L 295.165979 122.690259 
L 295.284889 122.690259 
L 295.284889 121.980988 
L 296.458868 121.980988 
L 296.509188 119.853176 
L 296.570933 119.853176 
L 296.68025 117.016094 
L 296.690199 117.016094 
L 296.690199 116.661459 
L 297.072882 116.661459 
L 297.073031 115.952188 
L 297.258044 115.952188 
L 297.315495 113.469741 
L 297.389354 113.469741 
L 297.389354 113.115106 
L 297.870418 113.115106 
L 297.870418 112.760471 
L 299.151398 112.760471 
L 299.19558 111.696565 
L 300.305603 111.696565 
L 300.311574 110.987294 
L 300.429078 110.987294 
L 300.5316 109.214118 
L 300.630233 109.214118 
L 300.630233 108.859482 
L 301.485151 108.859482 
L 301.589218 106.731671 
L 301.62681 106.731671 
L 301.62681 106.0224 
L 301.951355 106.0224 
L 301.951469 104.603859 
L 302.097407 104.603859 
L 302.196002 102.476047 
L 302.569663 102.476047 
L 302.590692 101.412141 
L 303.574899 101.412141 
L 303.599953 99.9936 
L 305.443025 99.9936 
L 305.548639 96.447247 
L 305.555594 96.447247 
L 305.582209 95.383341 
L 305.821657 95.383341 
L 305.92639 94.674071 
L 305.940751 94.674071 
L 305.98288 93.9648 
L 307.153708 93.9648 
L 307.154892 92.546259 
L 308.028187 92.546259 
L 308.028187 92.191624 
L 308.208604 92.191624 
L 308.208604 91.836988 
L 308.735817 91.836988 
L 308.828249 88.290635 
L 309.030029 88.290635 
L 309.118299 87.226729 
L 309.14528 87.226729 
L 309.157188 86.162824 
L 309.456537 86.162824 
L 309.471122 85.453553 
L 310.159467 85.453553 
L 310.183895 84.744282 
L 310.902536 84.744282 
L 310.902536 84.389647 
L 311.491344 84.389647 
L 311.591229 81.9072 
L 311.846366 81.9072 
L 311.915516 79.779388 
L 312.7503 79.779388 
L 312.771587 78.360847 
L 313.916009 78.360847 
L 313.986361 76.587671 
L 314.161156 76.587671 
L 314.259347 75.169129 
L 315.02712 75.169129 
L 315.027749 74.105224 
L 315.603535 74.105224 
L 315.603535 73.750588 
L 316.081297 73.750588 
L 316.131581 72.332047 
L 316.282387 72.332047 
L 316.37501 70.913506 
L 316.573553 70.913506 
L 316.573553 70.558871 
L 317.057883 70.558871 
L 317.069988 69.494965 
L 317.573627 69.494965 
L 317.579182 68.785694 
L 318.051161 68.785694 
L 318.064778 67.367153 
L 318.188478 67.367153 
L 318.267785 66.303247 
L 318.891135 66.303247 
L 318.891135 65.948612 
L 319.741068 65.948612 
L 319.803373 63.466165 
L 319.919079 63.466165 
L 320.013585 60.629082 
L 320.560551 60.629082 
L 320.560583 59.919812 
L 320.934073 59.919812 
L 320.934073 59.565176 
L 321.352838 59.565176 
L 321.397465 58.146635 
L 321.563309 58.146635 
L 321.570312 57.437365 
L 322.107205 57.437365 
L 322.107205 57.082729 
L 322.492034 57.082729 
L 322.492034 56.728094 
L 322.814035 56.728094 
L 322.869437 53.891012 
L 322.965363 53.891012 
L 322.965363 53.536376 
L 323.190339 53.536376 
L 323.190339 53.181741 
L 324.23224 53.181741 
L 324.23224 52.827106 
L 324.37799 52.827106 
L 324.378721 51.7632 
L 324.511864 51.7632 
L 324.511864 51.408565 
L 325.477231 51.408565 
L 325.491314 50.699294 
L 325.642878 50.699294 
L 325.642878 49.635388 
L 325.764435 49.635388 
L 325.764435 49.280753 
L 326.063047 49.280753 
L 326.070547 48.571482 
L 326.657524 48.571482 
L 326.685314 47.507576 
L 326.771516 47.507576 
L 326.821166 46.798306 
L 327.219788 46.798306 
L 327.219788 46.443671 
L 327.77007 46.443671 
L 327.804494 45.7344 
L 327.886457 45.7344 
L 327.933829 45.025129 
L 328.048416 45.025129 
L 328.048416 44.670494 
L 328.308881 44.670494 
L 328.308881 44.315859 
L 328.8366 44.315859 
L 328.93897 43.251953 
L 329.338581 43.251953 
L 329.338581 42.897318 
L 329.836524 42.897318 
L 329.836524 42.542682 
L 330.077146 42.542682 
L 330.077146 42.188047 
L 330.817728 42.188047 
L 330.918415 41.478776 
L 330.935069 41.478776 
L 330.935069 41.124141 
L 331.723508 41.124141 
L 331.817936 40.060235 
L 332.133015 40.060235 
L 332.133015 39.7056 
L 332.643481 39.7056 
L 332.682329 38.996329 
L 332.979608 38.996329 
L 332.979608 38.641694 
L 333.411047 38.641694 
L 333.500656 37.577788 
L 334.189286 37.577788 
L 334.28949 36.513882 
L 334.936594 36.513882 
L 335.042543 35.804612 
L 336.016432 35.804612 
L 336.016432 35.449976 
L 336.375875 35.449976 
L 336.468859 34.031435 
L 337.066802 34.031435 
L 337.111945 33.322165 
L 337.78853 33.322165 
L 337.791487 32.612894 
L 338.393112 32.612894 
L 338.393112 32.258259 
L 340.197042 32.258259 
L 340.197042 31.903624 
L 340.720094 31.903624 
L 340.720094 31.548988 
L 341.206395 31.548988 
L 341.206395 31.194353 
L 342.812135 31.194353 
L 342.812135 30.839718 
L 343.293276 30.839718 
L 343.293276 30.485082 
L 344.175573 30.485082 
L 344.224343 29.775812 
L 345.494384 29.775812 
L 345.494384 29.421176 
L 345.94243 29.421176 
L 345.94243 29.066541 
L 346.75379 29.066541 
L 346.75379 28.711906 
L 347.908774 28.711906 
L 347.908774 28.357271 
L 348.294563 28.357271 
L 348.294563 28.002635 
L 350.002245 28.002635 
L 350.002245 27.648 
L 360.8064 27.648 
L 360.8064 27.648 
" style="fill: none; stroke: #000080; stroke-width: 1.5; stroke-linecap: square"/>
   </g>
   <g id="line2d_36">
    <defs>
     <path id="m06ed5eace5" d="M 0 6 
C 1.591219 6 3.117479 5.367802 4.242641 4.242641 
C 5.367802 3.117479 6 1.591219 6 0 
C 6 -1.591219 5.367802 -3.117479 4.242641 -4.242641 
C 3.117479 -5.367802 1.591219 -6 0 -6 
C -1.591219 -6 -3.117479 -5.367802 -4.242641 -4.242641 
C -5.367802 -3.117479 -6 -1.591219 -6 0 
C -6 1.591219 -5.367802 3.117479 -4.242641 4.242641 
C -3.117479 5.367802 -1.591219 6 0 6 
z
" style="stroke: #000080; stroke-width: 1.5"/>
    </defs>
    <g>
     <use xlink:href="#m06ed5eace5" x="100.9152" y="259.579482" style="fill-opacity: 0; stroke: #000080; stroke-width: 1.5"/>
     <use xlink:href="#m06ed5eace5" x="186.49469" y="200.710024" style="fill-opacity: 0; stroke: #000080; stroke-width: 1.5"/>
     <use xlink:href="#m06ed5eace5" x="258.513774" y="171.275294" style="fill-opacity: 0; stroke: #000080; stroke-width: 1.5"/>
     <use xlink:href="#m06ed5eace5" x="310.902536" y="84.389647" style="fill-opacity: 0; stroke: #000080; stroke-width: 1.5"/>
     <use xlink:href="#m06ed5eace5" x="350.002245" y="27.648" style="fill-opacity: 0; stroke: #000080; stroke-width: 1.5"/>
     <use xlink:href="#m06ed5eace5" x="360.8064" y="27.648" style="fill-opacity: 0; stroke: #000080; stroke-width: 1.5"/>
    </g>
   </g>
   <g id="line2d_37">
    <path style="fill: none; stroke: #000080; stroke-width: 1.5; stroke-linecap: square"/>
    <g/>
   </g>
   <g id="line2d_38">
    <path d="M 274.176 167.374306 
" clip-path="url(#p4c514b7d7e)" style="fill: none; stroke: #000080; stroke-width: 1.5; stroke-linecap: square"/>
    <defs>
     <path id="m98f48d534a" d="M -12 12 
L 12 -12 
M -12 -12 
L 12 12 
" style="stroke: #000080"/>
    </defs>
    <g clip-path="url(#p4c514b7d7e)">
     <use xlink:href="#m98f48d534a" x="274.176" y="167.374306" style="fill: #000080; stroke: #000080"/>
    </g>
   </g>
   <g id="line2d_39">
    <defs>
     <path id="m1789ba9d1e" d="M 0 1.5 
C 0.397805 1.5 0.77937 1.341951 1.06066 1.06066 
C 1.341951 0.77937 1.5 0.397805 1.5 0 
C 1.5 -0.397805 1.341951 -0.77937 1.06066 -1.06066 
C 0.77937 -1.341951 0.397805 -1.5 0 -1.5 
C -0.397805 -1.5 -0.77937 -1.341951 -1.06066 -1.06066 
C -1.341951 -0.77937 -1.5 -0.397805 -1.5 0 
C -1.5 0.397805 -1.341951 0.77937 -1.06066 1.06066 
C -0.77937 1.341951 -0.397805 1.5 0 1.5 
z
" style="stroke: #ff00ff"/>
    </defs>
    <g>
     <use xlink:href="#m1789ba9d1e" x="348.566941" y="64.884706" style="fill: #ff00ff; stroke: #ff00ff"/>
     <use xlink:href="#m1789ba9d1e" x="348.566941" y="64.884706" style="fill: #ff00ff; stroke: #ff00ff"/>
    </g>
   </g>
   <g id="line2d_40">
    <path d="M 36.933397 298.944 
L 36.933397 279.439059 
L 49.972572 279.439059 
L 49.972572 273.410259 
L 57.6 273.410259 
L 57.6 270.573176 
L 63.011746 270.573176 
L 63.011746 267.736094 
L 67.209423 267.736094 
L 67.209423 266.672188 
L 70.639174 266.672188 
L 70.639174 266.317553 
L 76.050921 266.317553 
L 76.050921 265.253647 
L 78.266603 265.253647 
L 78.266603 264.544376 
L 85.184077 264.544376 
L 85.184077 263.480471 
L 90.230539 263.480471 
L 90.230539 263.125835 
L 92.322865 263.125835 
L 92.322865 262.7712 
L 93.287772 262.7712 
L 93.287772 262.416565 
L 96.717523 262.416565 
L 96.717523 262.061929 
L 98.223251 262.061929 
L 98.223251 261.707294 
L 100.277459 261.707294 
L 100.277459 260.998024 
L 100.9152 260.998024 
L 100.9152 260.643388 
L 102.12927 260.643388 
L 102.12927 260.288753 
L 103.269713 260.288753 
L 103.269713 259.934118 
L 104.344952 259.934118 
L 104.344952 259.579482 
L 104.860369 259.579482 
L 104.860369 259.224847 
L 105.36204 259.224847 
L 105.36204 258.870212 
L 107.244765 258.870212 
L 107.244765 258.515576 
L 107.68741 258.515576 
L 107.68741 257.097035 
L 109.360651 257.097035 
L 109.360651 256.7424 
L 111.262425 256.7424 
L 111.262425 256.387765 
L 113.638206 256.387765 
L 113.638206 255.678494 
L 115.168444 255.678494 
L 115.168444 255.323859 
L 117.384126 255.323859 
L 117.384126 254.969224 
L 123.183753 254.969224 
L 123.183753 254.614588 
L 125.35673 254.614588 
L 125.35673 254.259953 
L 132.168669 254.259953 
L 132.168669 253.905318 
L 133.323114 253.905318 
L 133.323114 253.196047 
L 134.41079 253.196047 
L 134.41079 252.841412 
L 137.067478 252.841412 
L 137.067478 252.486776 
L 137.787626 252.486776 
L 137.787626 252.132141 
L 137.963436 252.132141 
L 137.963436 251.777506 
L 140.188837 251.777506 
L 140.188837 251.068235 
L 142.178603 251.068235 
L 142.178603 250.004329 
L 143.133017 250.004329 
L 143.133017 249.649694 
L 143.265494 249.649694 
L 143.265494 249.295059 
L 150.106653 249.295059 
L 150.106653 248.585788 
L 150.78259 248.585788 
L 150.78259 247.521882 
L 153.877408 247.521882 
L 153.877408 247.167247 
L 158.007377 247.167247 
L 158.007377 246.812612 
L 158.276759 246.812612 
L 158.276759 246.457976 
L 158.948151 246.457976 
L 158.948151 246.103341 
L 163.282972 246.103341 
L 163.282972 245.748706 
L 163.79962 245.748706 
L 163.79962 245.394071 
L 170.182919 245.394071 
L 170.182919 245.039435 
L 176.276542 245.039435 
L 176.276542 244.6848 
L 176.949256 244.6848 
L 176.949256 243.975529 
L 178.267667 243.975529 
L 178.267667 243.620894 
L 179.451549 243.620894 
L 179.451549 242.202353 
L 179.871084 242.202353 
L 179.871084 241.493082 
L 182.424225 241.493082 
L 182.424225 241.138447 
L 184.377384 241.138447 
L 184.377384 240.783812 
L 184.99062 240.783812 
L 184.99062 239.719906 
L 185.867693 239.719906 
L 185.867693 238.656 
L 186.731897 238.656 
L 186.731897 238.301365 
L 187.082191 238.301365 
L 187.082191 237.946729 
L 187.583186 237.946729 
L 187.60195 237.237459 
L 189.241374 237.237459 
L 189.241374 236.882824 
L 189.95536 236.882824 
L 189.95536 236.528188 
L 192.696893 236.528188 
L 192.696893 236.173553 
L 194.21692 236.173553 
L 194.21692 235.464282 
L 196.96976 235.464282 
L 196.96976 235.109647 
L 197.619529 235.109647 
L 197.619529 234.400376 
L 198.466425 234.400376 
L 198.483962 233.691106 
L 199.46744 233.691106 
L 199.46744 232.981835 
L 200.569092 232.981835 
L 200.569092 232.272565 
L 200.864852 232.272565 
L 200.864852 231.917929 
L 201.186425 231.917929 
L 201.186425 231.563294 
L 201.594931 231.563294 
L 201.663148 230.499388 
L 202.096289 230.499388 
L 202.096289 230.144753 
L 202.553597 230.144753 
L 202.553597 229.790118 
L 204.919899 229.790118 
L 204.919899 229.435482 
L 205.49129 229.435482 
L 205.49129 228.726212 
L 206.593616 228.726212 
L 206.611831 228.016941 
L 206.704907 228.016941 
L 206.704907 227.307671 
L 207.154661 227.307671 
L 207.154661 226.953035 
L 207.289053 226.953035 
L 207.289053 226.5984 
L 207.923647 226.5984 
L 207.982983 225.889129 
L 210.485392 225.889129 
L 210.487244 225.179859 
L 211.327557 225.179859 
L 211.327557 224.825224 
L 211.690662 224.825224 
L 211.690662 224.470588 
L 212.004224 224.470588 
L 212.004224 224.115953 
L 212.614436 224.115953 
L 212.614436 223.761318 
L 212.838053 223.761318 
L 212.838053 223.406682 
L 213.131597 223.406682 
L 213.218293 222.697412 
L 214.021041 222.697412 
L 214.044051 221.988141 
L 214.895248 221.988141 
L 214.944999 220.924235 
L 215.46243 220.924235 
L 215.46243 220.5696 
L 215.785208 220.5696 
L 215.836844 219.860329 
L 216.142347 219.860329 
L 216.142347 219.505694 
L 216.268077 219.505694 
L 216.268077 219.151059 
L 216.652316 219.151059 
L 216.652316 218.441788 
L 216.801193 218.441788 
L 216.801193 218.087153 
L 217.028863 218.087153 
L 217.028863 217.732518 
L 218.827622 217.732518 
L 218.844258 217.023247 
L 219.718021 217.023247 
L 219.797223 216.313976 
L 220.16064 216.313976 
L 220.250132 214.895435 
L 220.273265 214.895435 
L 220.273265 214.5408 
L 220.595248 214.5408 
L 220.661146 213.831529 
L 220.87773 213.831529 
L 220.87773 212.767624 
L 221.640282 212.767624 
L 221.640282 212.412988 
L 221.769845 212.412988 
L 221.769845 212.058353 
L 222.833162 212.058353 
L 222.833162 211.703718 
L 223.00246 211.703718 
L 223.08891 210.285176 
L 223.206075 210.285176 
L 223.206075 209.575906 
L 224.800066 209.575906 
L 224.800066 209.221271 
L 225.315647 209.221271 
L 225.315647 208.866635 
L 225.4432 208.866635 
L 225.481632 207.448094 
L 225.670144 207.448094 
L 225.670144 206.738824 
L 225.810093 206.738824 
L 225.826489 206.029553 
L 225.997794 206.029553 
L 225.997794 205.674918 
L 226.825454 205.674918 
L 226.825454 205.320282 
L 227.117686 205.320282 
L 227.117686 204.965647 
L 227.431801 204.965647 
L 227.466381 203.901741 
L 227.935888 203.901741 
L 227.935888 203.192471 
L 228.188376 203.192471 
L 228.188376 202.837835 
L 228.449642 202.837835 
L 228.527177 201.773929 
L 228.921953 201.773929 
L 228.921953 201.419294 
L 229.081156 201.419294 
L 229.167805 200.355388 
L 229.463916 200.355388 
L 229.463916 199.646118 
L 229.690823 199.646118 
L 229.73681 198.936847 
L 230.118332 198.936847 
L 230.118332 198.582212 
L 230.323336 198.582212 
L 230.323336 198.227576 
L 230.490991 198.227576 
L 230.490991 197.872941 
L 230.618458 197.872941 
L 230.618458 197.518306 
L 231.056671 197.518306 
L 231.101298 196.4544 
L 231.352815 196.4544 
L 231.436318 195.745129 
L 231.541236 195.745129 
L 231.541236 195.390494 
L 231.688226 195.390494 
L 231.688226 195.035859 
L 231.826929 195.035859 
L 231.882244 194.326588 
L 232.661711 194.326588 
L 232.749257 193.617318 
L 233.178761 193.617318 
L 233.268353 192.908047 
L 233.558517 192.908047 
L 233.6171 192.198776 
L 233.803026 192.198776 
L 233.878488 191.134871 
L 234.159986 191.134871 
L 234.215679 190.4256 
L 234.286371 190.4256 
L 234.286893 189.716329 
L 234.691736 189.716329 
L 234.691736 189.361694 
L 235.166021 189.361694 
L 235.166021 188.652424 
L 235.482073 188.652424 
L 235.557455 187.588518 
L 235.835309 187.588518 
L 235.882422 186.524612 
L 235.982983 186.524612 
L 235.982983 185.815341 
L 236.28383 185.815341 
L 236.28383 184.751435 
L 236.403768 184.751435 
L 236.484855 184.042165 
L 236.529443 184.042165 
L 236.529443 183.687529 
L 236.730628 183.687529 
L 236.730628 182.978259 
L 236.849129 182.978259 
L 236.925597 182.268988 
L 237.136541 182.268988 
L 237.13699 181.205082 
L 237.248055 181.205082 
L 237.316249 180.141176 
L 237.573858 180.141176 
L 237.613313 179.077271 
L 237.949689 179.077271 
L 238.04623 178.013365 
L 238.144407 178.013365 
L 238.144407 177.658729 
L 238.282268 177.658729 
L 238.348084 176.949459 
L 238.409473 176.949459 
L 238.409473 176.240188 
L 239.293038 176.240188 
L 239.307051 175.530918 
L 239.407639 175.530918 
L 239.407639 175.176282 
L 239.746922 175.176282 
L 239.746922 174.821647 
L 240.047132 174.821647 
L 240.047132 174.112376 
L 240.313436 174.112376 
L 240.403889 171.984565 
L 241.553214 171.984565 
L 241.62164 170.920659 
L 241.677825 170.920659 
L 241.76337 170.211388 
L 242.044012 170.211388 
L 242.094465 169.147482 
L 242.174017 169.147482 
L 242.248442 167.374306 
L 242.360722 167.374306 
L 242.451352 165.601129 
L 242.666163 165.601129 
L 242.666163 165.246494 
L 242.947275 165.246494 
L 242.947275 164.891859 
L 243.129763 164.891859 
L 243.129763 164.537224 
L 243.41438 164.537224 
L 243.41438 163.827953 
L 243.658585 163.827953 
L 243.658585 163.473318 
L 243.898407 163.473318 
L 243.898407 162.409412 
L 244.084983 162.409412 
L 244.151922 160.990871 
L 244.590085 160.990871 
L 244.590085 160.636235 
L 244.723199 160.636235 
L 244.723199 159.217694 
L 245.305008 159.217694 
L 245.305008 158.863059 
L 245.616079 158.863059 
L 245.616079 158.508424 
L 245.729355 158.508424 
L 245.729355 158.153788 
L 245.845911 158.153788 
L 245.858063 157.089882 
L 246.288207 157.089882 
L 246.299526 156.025976 
L 246.495277 156.025976 
L 246.53511 155.316706 
L 246.624565 155.316706 
L 246.638122 154.607435 
L 247.149634 154.607435 
L 247.149634 154.2528 
L 247.432126 154.2528 
L 247.489467 153.188894 
L 247.611863 153.188894 
L 247.712999 151.415718 
L 247.860644 151.415718 
L 247.860644 151.061082 
L 248.010918 151.061082 
L 248.038867 150.351812 
L 248.3327 150.351812 
L 248.3327 149.997176 
L 249.02168 149.997176 
L 249.02168 149.642541 
L 249.377446 149.642541 
L 249.412094 148.578635 
L 249.514262 148.578635 
L 249.536348 147.160094 
L 249.646393 147.160094 
L 249.646393 146.805459 
L 249.844924 146.805459 
L 249.844924 146.450824 
L 250.186717 146.450824 
L 250.27584 143.968376 
L 250.420046 143.968376 
L 250.506087 142.549835 
L 250.762743 142.549835 
L 250.824248 141.485929 
L 251.039126 141.485929 
L 251.124096 140.067388 
L 251.200178 140.067388 
L 251.200178 139.712753 
L 251.508582 139.712753 
L 251.508582 138.648847 
L 252.202798 138.648847 
L 252.202798 138.294212 
L 252.362228 138.294212 
L 252.362228 137.939576 
L 252.608539 137.939576 
L 252.718139 136.1664 
L 252.721082 136.1664 
L 252.721082 135.811765 
L 253.506199 135.811765 
L 253.506199 135.102494 
L 253.621742 135.102494 
L 253.621742 134.747859 
L 253.904586 134.747859 
L 253.904586 134.038588 
L 254.35002 134.038588 
L 254.35002 133.683953 
L 254.802544 133.683953 
L 254.802544 133.329318 
L 254.979784 133.329318 
L 255.034679 132.265412 
L 255.207349 132.265412 
L 255.295488 131.201506 
L 255.542603 131.201506 
L 255.599249 130.1376 
L 255.698138 130.1376 
L 255.698138 129.782965 
L 256.117914 129.782965 
L 256.198311 128.719059 
L 256.263585 128.719059 
L 256.263585 128.364424 
L 256.405878 128.364424 
L 256.405878 128.009788 
L 256.628241 128.009788 
L 256.628241 127.655153 
L 256.814108 127.655153 
L 256.814108 127.300518 
L 257.173455 127.300518 
L 257.173455 126.945882 
L 257.414052 126.945882 
L 257.480427 126.236612 
L 257.664587 126.236612 
L 257.692922 124.818071 
L 257.780371 124.818071 
L 257.780371 124.463435 
L 257.91689 124.463435 
L 257.91689 124.1088 
L 258.105394 124.1088 
L 258.189191 123.044894 
L 258.669414 123.044894 
L 258.669414 122.690259 
L 258.852262 122.690259 
L 258.852262 122.335624 
L 259.137265 122.335624 
L 259.137265 121.980988 
L 259.292002 121.980988 
L 259.292002 121.271718 
L 259.559562 121.271718 
L 259.559562 120.917082 
L 259.716829 120.917082 
L 259.716829 120.207812 
L 260.163468 120.207812 
L 260.163468 119.853176 
L 260.705909 119.853176 
L 260.705909 119.498541 
L 260.852769 119.498541 
L 260.852769 119.143906 
L 260.993817 119.143906 
L 261.003671 117.370729 
L 261.508114 117.370729 
L 261.508114 117.016094 
L 261.703341 117.016094 
L 261.703341 116.661459 
L 262.082572 116.661459 
L 262.082572 116.306824 
L 262.322304 116.306824 
L 262.344545 115.597553 
L 262.585395 115.597553 
L 262.683142 112.760471 
L 262.74058 112.760471 
L 262.785555 111.341929 
L 263.014844 111.341929 
L 263.014844 110.987294 
L 263.280579 110.987294 
L 263.280579 110.278024 
L 263.628384 110.278024 
L 263.628384 109.568753 
L 264.217859 109.568753 
L 264.217859 109.214118 
L 264.356601 109.214118 
L 264.356601 108.859482 
L 264.824505 108.859482 
L 264.824505 108.504847 
L 265.169341 108.504847 
L 265.169341 108.150212 
L 265.626092 108.150212 
L 265.626092 107.795576 
L 265.746913 107.795576 
L 265.821557 107.086306 
L 266.197011 107.086306 
L 266.216072 106.0224 
L 266.490354 106.0224 
L 266.5809 104.603859 
L 266.863276 104.603859 
L 266.863276 103.894588 
L 267.299484 103.894588 
L 267.299484 103.539953 
L 267.634582 103.539953 
L 267.634582 103.185318 
L 267.768343 103.185318 
L 267.864974 102.476047 
L 269.20852 102.476047 
L 269.264778 101.766776 
L 269.361329 101.766776 
L 269.361329 101.057506 
L 269.839785 101.057506 
L 269.869135 100.348235 
L 269.984906 100.348235 
L 269.984906 99.9936 
L 270.974361 99.9936 
L 270.974361 98.929694 
L 271.977899 98.929694 
L 271.977899 98.220424 
L 272.430238 98.220424 
L 272.430238 97.865788 
L 272.694503 97.865788 
L 272.694503 97.511153 
L 272.844986 97.511153 
L 272.844986 96.447247 
L 273.280272 96.447247 
L 273.280272 96.092612 
L 273.483822 96.092612 
L 273.526385 94.674071 
L 273.61904 94.674071 
L 273.688668 93.9648 
L 277.423602 93.9648 
L 277.423602 93.610165 
L 277.709035 93.610165 
L 277.806586 92.546259 
L 278.79433 92.546259 
L 278.79433 92.191624 
L 279.057088 92.191624 
L 279.057088 91.836988 
L 279.973907 91.836988 
L 279.973907 91.482353 
L 280.186208 91.482353 
L 280.213022 90.773082 
L 280.327991 90.773082 
L 280.327991 90.418447 
L 280.470283 90.418447 
L 280.470283 90.063812 
L 280.767895 90.063812 
L 280.801875 88.999906 
L 281.259209 88.999906 
L 281.259209 88.290635 
L 281.39239 88.290635 
L 281.39239 87.936 
L 281.534644 87.936 
L 281.534644 87.581365 
L 281.808527 87.581365 
L 281.808527 87.226729 
L 282.262877 87.226729 
L 282.262877 86.872094 
L 282.381014 86.872094 
L 282.381014 86.517459 
L 283.291436 86.517459 
L 283.291436 86.162824 
L 283.513941 86.162824 
L 283.513941 85.808188 
L 283.842673 85.808188 
L 283.842673 85.453553 
L 283.955983 85.453553 
L 283.955983 84.744282 
L 284.366183 84.744282 
L 284.366183 84.389647 
L 284.936734 84.389647 
L 285.003114 83.325741 
L 285.212929 83.325741 
L 285.225897 82.616471 
L 285.72248 82.616471 
L 285.72248 81.9072 
L 286.527419 81.9072 
L 286.527419 81.197929 
L 286.81048 81.197929 
L 286.81048 80.843294 
L 286.92994 80.843294 
L 287.010524 79.424753 
L 289.866329 79.424753 
L 289.866329 79.070118 
L 291.038078 79.070118 
L 291.038078 78.715482 
L 291.44548 78.715482 
L 291.44548 78.006212 
L 291.802796 78.006212 
L 291.802796 77.651576 
L 291.995739 77.651576 
L 291.995739 77.296941 
L 292.761272 77.296941 
L 292.872332 76.587671 
L 293.019185 76.587671 
L 293.019185 76.233035 
L 293.423778 76.233035 
L 293.423778 75.523765 
L 294.459721 75.523765 
L 294.459721 75.169129 
L 294.708522 75.169129 
L 294.708522 74.814494 
L 297.362884 74.814494 
L 297.362884 74.459859 
L 299.200239 74.459859 
L 299.200239 74.105224 
L 299.561227 74.105224 
L 299.561227 73.750588 
L 303.644555 73.750588 
L 303.644555 73.395953 
L 304.253168 73.395953 
L 304.253168 73.041318 
L 304.414968 73.041318 
L 304.414968 72.686682 
L 306.152245 72.686682 
L 306.152245 72.332047 
L 306.961317 72.332047 
L 306.961317 71.977412 
L 310.230166 71.977412 
L 310.230166 71.268141 
L 313.289667 71.268141 
L 313.298132 70.204235 
L 317.129549 70.204235 
L 317.129549 69.8496 
L 320.943032 69.8496 
L 320.948668 69.140329 
L 325.151073 69.140329 
L 325.151073 68.785694 
L 326.135542 68.785694 
L 326.135542 68.431059 
L 327.510462 68.431059 
L 327.510462 68.076424 
L 331.492477 68.076424 
L 331.492477 67.721788 
L 332.372006 67.721788 
L 332.372006 67.367153 
L 333.20637 67.367153 
L 333.20637 67.012518 
L 334.777068 67.012518 
L 334.777068 66.657882 
L 340.00782 66.657882 
L 340.00782 66.303247 
L 340.567908 66.303247 
L 340.567908 65.948612 
L 342.662157 65.948612 
L 342.662157 65.593976 
L 344.546439 65.593976 
L 344.546439 65.239341 
L 348.566941 65.239341 
L 348.566941 64.884706 
L 360.8064 64.884706 
L 360.8064 64.884706 
" style="fill: none; stroke: #ff00ff; stroke-width: 1.5; stroke-linecap: square"/>
   </g>
   <g id="line2d_41">
    <defs>
     <path id="m441061f17d" d="M 0 8.485281 
L 5.091169 0 
L 0 -8.485281 
L -5.091169 0 
z
" style="stroke: #ff00ff; stroke-width: 1.5; stroke-linejoin: miter"/>
    </defs>
    <g>
     <use xlink:href="#m441061f17d" x="117.384126" y="254.969224" style="fill-opacity: 0; stroke: #ff00ff; stroke-width: 1.5; stroke-linejoin: miter"/>
     <use xlink:href="#m441061f17d" x="214.044051" y="222.342776" style="fill-opacity: 0; stroke: #ff00ff; stroke-width: 1.5; stroke-linejoin: miter"/>
     <use xlink:href="#m441061f17d" x="252.362228" y="138.294212" style="fill-opacity: 0; stroke: #ff00ff; stroke-width: 1.5; stroke-linejoin: miter"/>
     <use xlink:href="#m441061f17d" x="313.298132" y="70.204235" style="fill-opacity: 0; stroke: #ff00ff; stroke-width: 1.5; stroke-linejoin: miter"/>
     <use xlink:href="#m441061f17d" x="348.566941" y="64.884706" style="fill-opacity: 0; stroke: #ff00ff; stroke-width: 1.5; stroke-linejoin: miter"/>
     <use xlink:href="#m441061f17d" x="360.8064" y="64.884706" style="fill-opacity: 0; stroke: #ff00ff; stroke-width: 1.5; stroke-linejoin: miter"/>
    </g>
   </g>
   <g id="line2d_42">
    <path style="fill: none; stroke: #ff00ff; stroke-width: 1.5; stroke-linecap: square"/>
    <g/>
   </g>
   <g id="line2d_43">
    <path d="M 274.249847 93.9648 
" clip-path="url(#p4c514b7d7e)" style="fill: none; stroke: #ff00ff; stroke-width: 1.5; stroke-linecap: square"/>
    <defs>
     <path id="m5800449f5a" d="M -12 12 
L 12 -12 
M -12 -12 
L 12 12 
" style="stroke: #ff00ff"/>
    </defs>
    <g clip-path="url(#p4c514b7d7e)">
     <use xlink:href="#m5800449f5a" x="274.249847" y="93.9648" style="fill: #ff00ff; stroke: #ff00ff"/>
    </g>
   </g>
   <g id="line2d_44">
    <path d="M 360.8064 64.884706 
L 380.514816 293.51808 
" style="fill: none; stroke: #ff00ff; stroke-width: 1.5; stroke-linecap: square"/>
    <g>
     <use xlink:href="#m441061f17d" x="360.8064" y="64.884706" style="fill-opacity: 0; stroke: #ff00ff; stroke-width: 1.5; stroke-linejoin: miter"/>
     <use xlink:href="#m441061f17d" x="380.514816" y="293.51808" style="fill-opacity: 0; stroke: #ff00ff; stroke-width: 1.5; stroke-linejoin: miter"/>
    </g>
   </g>
   <g id="line2d_45">
    <path d="M 360.8064 27.648 
L 380.514816 163.296 
" style="fill: none; stroke: #000080; stroke-width: 1.5; stroke-linecap: square"/>
    <g>
     <use xlink:href="#m06ed5eace5" x="360.8064" y="27.648" style="fill-opacity: 0; stroke: #000080; stroke-width: 1.5"/>
     <use xlink:href="#m06ed5eace5" x="380.514816" y="163.296" style="fill-opacity: 0; stroke: #000080; stroke-width: 1.5"/>
    </g>
   </g>
   <g id="line2d_46">
    <path d="M 360.8064 298.944 
L 360.8064 27.648 
" style="fill: none; stroke: #000000; stroke-width: 1.5; stroke-linecap: square"/>
   </g>
   <g id="patch_3">
    <path d="M 57.6 298.944 
L 360.8064 298.944 
" style="fill: none; stroke: #000000; stroke-width: 0.8; stroke-linejoin: miter; stroke-linecap: square"/>
   </g>
   <g id="patch_4">
    <path d="M 57.6 27.648 
L 360.8064 27.648 
" style="fill: none; stroke: #000000; stroke-width: 0.8; stroke-linejoin: miter; stroke-linecap: square"/>
   </g>
   <g id="text_13">
    <!-- GA -->
    <g transform="translate(386.578944 297.381205)scale(0.14 -0.14)">
     <defs>
      <path id="DejaVuSans-47" d="M 3809 666 
L 3809 1919 
L 2778 1919 
L 2778 2438 
L 4434 2438 
L 4434 434 
Q 4069 175 3628 42 
Q 3188 -91 2688 -91 
Q 1594 -91 976 548 
Q 359 1188 359 2328 
Q 359 3472 976 4111 
Q 1594 4750 2688 4750 
Q 3144 4750 3555 4637 
Q 3966 4525 4313 4306 
L 4313 3634 
Q 3963 3931 3569 4081 
Q 3175 4231 2741 4231 
Q 1884 4231 1454 3753 
Q 1025 3275 1025 2328 
Q 1025 1384 1454 906 
Q 1884 428 2741 428 
Q 3075 428 3337 486 
Q 3600 544 3809 666 
z
" transform="scale(0.015625)"/>
      <path id="DejaVuSans-41" d="M 2188 4044 
L 1331 1722 
L 3047 1722 
L 2188 4044 
z
M 1831 4666 
L 2547 4666 
L 4325 0 
L 3669 0 
L 3244 1197 
L 1141 1197 
L 716 0 
L 50 0 
L 1831 4666 
z
" transform="scale(0.015625)"/>
     </defs>
     <use xlink:href="#DejaVuSans-47"/>
     <use xlink:href="#DejaVuSans-41" x="77.490234"/>
    </g>
   </g>
   <g id="text_14">
    <!-- LCGA -->
    <g transform="translate(386.578944 167.159125)scale(0.14 -0.14)">
     <defs>
      <path id="DejaVuSans-4c" d="M 628 4666 
L 1259 4666 
L 1259 531 
L 3531 531 
L 3531 0 
L 628 0 
L 628 4666 
z
" transform="scale(0.015625)"/>
      <path id="DejaVuSans-43" d="M 4122 4306 
L 4122 3641 
Q 3803 3938 3442 4084 
Q 3081 4231 2675 4231 
Q 1875 4231 1450 3742 
Q 1025 3253 1025 2328 
Q 1025 1406 1450 917 
Q 1875 428 2675 428 
Q 3081 428 3442 575 
Q 3803 722 4122 1019 
L 4122 359 
Q 3791 134 3420 21 
Q 3050 -91 2638 -91 
Q 1578 -91 968 557 
Q 359 1206 359 2328 
Q 359 3453 968 4101 
Q 1578 4750 2638 4750 
Q 3056 4750 3426 4639 
Q 3797 4528 4122 4306 
z
" transform="scale(0.015625)"/>
     </defs>
     <use xlink:href="#DejaVuSans-4c"/>
     <use xlink:href="#DejaVuSans-43" x="55.712891"/>
     <use xlink:href="#DejaVuSans-47" x="125.537109"/>
     <use xlink:href="#DejaVuSans-41" x="203.027344"/>
    </g>
   </g>
   <g id="text_15">
    <!-- best 2009 -->
    <g transform="translate(386.578944 36.937045)scale(0.14 -0.14)">
     <defs>
      <path id="DejaVuSans-62" d="M 3116 1747 
Q 3116 2381 2855 2742 
Q 2594 3103 2138 3103 
Q 1681 3103 1420 2742 
Q 1159 2381 1159 1747 
Q 1159 1113 1420 752 
Q 1681 391 2138 391 
Q 2594 391 2855 752 
Q 3116 1113 3116 1747 
z
M 1159 2969 
Q 1341 3281 1617 3432 
Q 1894 3584 2278 3584 
Q 2916 3584 3314 3078 
Q 3713 2572 3713 1747 
Q 3713 922 3314 415 
Q 2916 -91 2278 -91 
Q 1894 -91 1617 61 
Q 1341 213 1159 525 
L 1159 0 
L 581 0 
L 581 4863 
L 1159 4863 
L 1159 2969 
z
" transform="scale(0.015625)"/>
      <path id="DejaVuSans-39" d="M 703 97 
L 703 672 
Q 941 559 1184 500 
Q 1428 441 1663 441 
Q 2288 441 2617 861 
Q 2947 1281 2994 2138 
Q 2813 1869 2534 1725 
Q 2256 1581 1919 1581 
Q 1219 1581 811 2004 
Q 403 2428 403 3163 
Q 403 3881 828 4315 
Q 1253 4750 1959 4750 
Q 2769 4750 3195 4129 
Q 3622 3509 3622 2328 
Q 3622 1225 3098 567 
Q 2575 -91 1691 -91 
Q 1453 -91 1209 -44 
Q 966 3 703 97 
z
M 1959 2075 
Q 2384 2075 2632 2365 
Q 2881 2656 2881 3163 
Q 2881 3666 2632 3958 
Q 2384 4250 1959 4250 
Q 1534 4250 1286 3958 
Q 1038 3666 1038 3163 
Q 1038 2656 1286 2365 
Q 1534 2075 1959 2075 
z
" transform="scale(0.015625)"/>
     </defs>
     <use xlink:href="#DejaVuSans-62"/>
     <use xlink:href="#DejaVuSans-65" x="63.476562"/>
     <use xlink:href="#DejaVuSans-73" x="125"/>
     <use xlink:href="#DejaVuSans-74" x="177.099609"/>
     <use xlink:href="#DejaVuSans-20" x="216.308594"/>
     <use xlink:href="#DejaVuSans-32" x="248.095703"/>
     <use xlink:href="#DejaVuSans-30" x="311.71875"/>
     <use xlink:href="#DejaVuSans-30" x="375.341797"/>
     <use xlink:href="#DejaVuSans-39" x="438.964844"/>
    </g>
   </g>
   <g id="text_16">
    <!-- bbob f17, 3-D -->
    <g transform="translate(60.632064 38.111366)scale(0.102 -0.102)">
     <defs>
      <path id="DejaVuSans-37" d="M 525 4666 
L 3525 4666 
L 3525 4397 
L 1831 0 
L 1172 0 
L 2766 4134 
L 525 4134 
L 525 4666 
z
" transform="scale(0.015625)"/>
      <path id="DejaVuSans-33" d="M 2597 2516 
Q 3050 2419 3304 2112 
Q 3559 1806 3559 1356 
Q 3559 666 3084 287 
Q 2609 -91 1734 -91 
Q 1441 -91 1130 -33 
Q 819 25 488 141 
L 488 750 
Q 750 597 1062 519 
Q 1375 441 1716 441 
Q 2309 441 2620 675 
Q 2931 909 2931 1356 
Q 2931 1769 2642 2001 
Q 2353 2234 1838 2234 
L 1294 2234 
L 1294 2753 
L 1863 2753 
Q 2328 2753 2575 2939 
Q 2822 3125 2822 3475 
Q 2822 3834 2567 4026 
Q 2313 4219 1838 4219 
Q 1578 4219 1281 4162 
Q 984 4106 628 3988 
L 628 4550 
Q 988 4650 1302 4700 
Q 1616 4750 1894 4750 
Q 2613 4750 3031 4423 
Q 3450 4097 3450 3541 
Q 3450 3153 3228 2886 
Q 3006 2619 2597 2516 
z
" transform="scale(0.015625)"/>
      <path id="DejaVuSans-44" d="M 1259 4147 
L 1259 519 
L 2022 519 
Q 2988 519 3436 956 
Q 3884 1394 3884 2338 
Q 3884 3275 3436 3711 
Q 2988 4147 2022 4147 
L 1259 4147 
z
M 628 4666 
L 1925 4666 
Q 3281 4666 3915 4102 
Q 4550 3538 4550 2338 
Q 4550 1131 3912 565 
Q 3275 0 1925 0 
L 628 0 
L 628 4666 
z
" transform="scale(0.015625)"/>
     </defs>
     <use xlink:href="#DejaVuSans-62"/>
     <use xlink:href="#DejaVuSans-62" x="63.476562"/>
     <use xlink:href="#DejaVuSans-6f" x="126.953125"/>
     <use xlink:href="#DejaVuSans-62" x="188.134766"/>
     <use xlink:href="#DejaVuSans-20" x="251.611328"/>
     <use xlink:href="#DejaVuSans-66" x="283.398438"/>
     <use xlink:href="#DejaVuSans-31" x="318.603516"/>
     <use xlink:href="#DejaVuSans-37" x="382.226562"/>
     <use xlink:href="#DejaVuSans-2c" x="445.849609"/>
     <use xlink:href="#DejaVuSans-20" x="477.636719"/>
     <use xlink:href="#DejaVuSans-33" x="509.423828"/>
     <use xlink:href="#DejaVuSans-2d" x="573.046875"/>
     <use xlink:href="#DejaVuSans-44" x="609.130859"/>
    </g>
    <!-- 51 targets: 100..1e-08 -->
    <g transform="translate(60.632064 49.533135)scale(0.102 -0.102)">
     <defs>
      <path id="DejaVuSans-35" d="M 691 4666 
L 3169 4666 
L 3169 4134 
L 1269 4134 
L 1269 2991 
Q 1406 3038 1543 3061 
Q 1681 3084 1819 3084 
Q 2600 3084 3056 2656 
Q 3513 2228 3513 1497 
Q 3513 744 3044 326 
Q 2575 -91 1722 -91 
Q 1428 -91 1123 -41 
Q 819 9 494 109 
L 494 744 
Q 775 591 1075 516 
Q 1375 441 1709 441 
Q 2250 441 2565 725 
Q 2881 1009 2881 1497 
Q 2881 1984 2565 2268 
Q 2250 2553 1709 2553 
Q 1456 2553 1204 2497 
Q 953 2441 691 2322 
L 691 4666 
z
" transform="scale(0.015625)"/>
      <path id="DejaVuSans-3a" d="M 750 794 
L 1409 794 
L 1409 0 
L 750 0 
L 750 794 
z
M 750 3309 
L 1409 3309 
L 1409 2516 
L 750 2516 
L 750 3309 
z
" transform="scale(0.015625)"/>
     </defs>
     <use xlink:href="#DejaVuSans-35"/>
     <use xlink:href="#DejaVuSans-31" x="63.623047"/>
     <use xlink:href="#DejaVuSans-20" x="127.246094"/>
     <use xlink:href="#DejaVuSans-74" x="159.033203"/>
     <use xlink:href="#DejaVuSans-61" x="198.242188"/>
     <use xlink:href="#DejaVuSans-72" x="259.521484"/>
     <use xlink:href="#DejaVuSans-67" x="298.884766"/>
     <use xlink:href="#DejaVuSans-65" x="362.361328"/>
     <use xlink:href="#DejaVuSans-74" x="423.884766"/>
     <use xlink:href="#DejaVuSans-73" x="463.09375"/>
     <use xlink:href="#DejaVuSans-3a" x="515.193359"/>
     <use xlink:href="#DejaVuSans-20" x="548.884766"/>
     <use xlink:href="#DejaVuSans-31" x="580.671875"/>
     <use xlink:href="#DejaVuSans-30" x="644.294922"/>
     <use xlink:href="#DejaVuSans-30" x="707.917969"/>
     <use xlink:href="#DejaVuSans-2e" x="771.541016"/>
     <use xlink:href="#DejaVuSans-2e" x="803.328125"/>
     <use xlink:href="#DejaVuSans-31" x="835.115234"/>
     <use xlink:href="#DejaVuSans-65" x="898.738281"/>
     <use xlink:href="#DejaVuSans-2d" x="960.261719"/>
     <use xlink:href="#DejaVuSans-30" x="996.345703"/>
     <use xlink:href="#DejaVuSans-38" x="1059.96875"/>
    </g>
    <!-- 15 instances -->
    <g transform="translate(60.632064 60.954904)scale(0.102 -0.102)">
     <use xlink:href="#DejaVuSans-31"/>
     <use xlink:href="#DejaVuSans-35" x="63.623047"/>
     <use xlink:href="#DejaVuSans-20" x="127.246094"/>
     <use xlink:href="#DejaVuSans-69" x="159.033203"/>
     <use xlink:href="#DejaVuSans-6e" x="186.816406"/>
     <use xlink:href="#DejaVuSans-73" x="250.195312"/>
     <use xlink:href="#DejaVuSans-74" x="302.294922"/>
     <use xlink:href="#DejaVuSans-61" x="341.503906"/>
     <use xlink:href="#DejaVuSans-6e" x="402.783203"/>
     <use xlink:href="#DejaVuSans-63" x="466.162109"/>
     <use xlink:href="#DejaVuSans-65" x="521.142578"/>
     <use xlink:href="#DejaVuSans-73" x="582.666016"/>
    </g>
   </g>
   <g id="text_17">
    <!-- v2.6 -->
    <g style="fill: #808080" transform="translate(198.292262 294.151352)scale(0.1 -0.1)">
     <use xlink:href="#DejaVuSans-76"/>
     <use xlink:href="#DejaVuSans-32" x="59.179688"/>
     <use xlink:href="#DejaVuSans-2e" x="122.802734"/>
     <use xlink:href="#DejaVuSans-36" x="154.589844"/>
    </g>
   </g>
   <g id="text_18">
    <!-- 17 Schaffer F7, condition 10 -->
    <g transform="translate(67.895387 21.648)scale(0.2 -0.2)">
     <defs>
      <path id="DejaVuSans-53" d="M 3425 4513 
L 3425 3897 
Q 3066 4069 2747 4153 
Q 2428 4238 2131 4238 
Q 1616 4238 1336 4038 
Q 1056 3838 1056 3469 
Q 1056 3159 1242 3001 
Q 1428 2844 1947 2747 
L 2328 2669 
Q 3034 2534 3370 2195 
Q 3706 1856 3706 1288 
Q 3706 609 3251 259 
Q 2797 -91 1919 -91 
Q 1588 -91 1214 -16 
Q 841 59 441 206 
L 441 856 
Q 825 641 1194 531 
Q 1563 422 1919 422 
Q 2459 422 2753 634 
Q 3047 847 3047 1241 
Q 3047 1584 2836 1778 
Q 2625 1972 2144 2069 
L 1759 2144 
Q 1053 2284 737 2584 
Q 422 2884 422 3419 
Q 422 4038 858 4394 
Q 1294 4750 2059 4750 
Q 2388 4750 2728 4690 
Q 3069 4631 3425 4513 
z
" transform="scale(0.015625)"/>
      <path id="DejaVuSans-68" d="M 3513 2113 
L 3513 0 
L 2938 0 
L 2938 2094 
Q 2938 2591 2744 2837 
Q 2550 3084 2163 3084 
Q 1697 3084 1428 2787 
Q 1159 2491 1159 1978 
L 1159 0 
L 581 0 
L 581 4863 
L 1159 4863 
L 1159 2956 
Q 1366 3272 1645 3428 
Q 1925 3584 2291 3584 
Q 2894 3584 3203 3211 
Q 3513 2838 3513 2113 
z
" transform="scale(0.015625)"/>
     </defs>
     <use xlink:href="#DejaVuSans-31"/>
     <use xlink:href="#DejaVuSans-37" x="63.623047"/>
     <use xlink:href="#DejaVuSans-20" x="127.246094"/>
     <use xlink:href="#DejaVuSans-53" x="159.033203"/>
     <use xlink:href="#DejaVuSans-63" x="222.509766"/>
     <use xlink:href="#DejaVuSans-68" x="277.490234"/>
     <use xlink:href="#DejaVuSans-61" x="340.869141"/>
     <use xlink:href="#DejaVuSans-66" x="402.148438"/>
     <use xlink:href="#DejaVuSans-66" x="437.353516"/>
     <use xlink:href="#DejaVuSans-65" x="472.558594"/>
     <use xlink:href="#DejaVuSans-72" x="534.082031"/>
     <use xlink:href="#DejaVuSans-20" x="575.195312"/>
     <use xlink:href="#DejaVuSans-46" x="606.982422"/>
     <use xlink:href="#DejaVuSans-37" x="664.501953"/>
     <use xlink:href="#DejaVuSans-2c" x="728.125"/>
     <use xlink:href="#DejaVuSans-20" x="759.912109"/>
     <use xlink:href="#DejaVuSans-63" x="791.699219"/>
     <use xlink:href="#DejaVuSans-6f" x="846.679688"/>
     <use xlink:href="#DejaVuSans-6e" x="907.861328"/>
     <use xlink:href="#DejaVuSans-64" x="971.240234"/>
     <use xlink:href="#DejaVuSans-69" x="1034.716797"/>
     <use xlink:href="#DejaVuSans-74" x="1062.5"/>
     <use xlink:href="#DejaVuSans-69" x="1101.708984"/>
     <use xlink:href="#DejaVuSans-6f" x="1129.492188"/>
     <use xlink:href="#DejaVuSans-6e" x="1190.673828"/>
     <use xlink:href="#DejaVuSans-20" x="1254.052734"/>
     <use xlink:href="#DejaVuSans-31" x="1285.839844"/>
     <use xlink:href="#DejaVuSans-30" x="1349.462891"/>
    </g>
   </g>
  </g>
 </g>
 <defs>
  <clipPath id="p4c514b7d7e">
   <rect x="57.6" y="27.648" width="303.2064" height="271.296"/>
  </clipPath>
 </defs>
</svg>
