<?xml version="1.0" encoding="utf-8" standalone="no"?>
<!DOCTYPE svg PUBLIC "-//W3C//DTD SVG 1.1//EN"
  "http://www.w3.org/Graphics/SVG/1.1/DTD/svg11.dtd">
<svg xmlns:xlink="http://www.w3.org/1999/xlink" width="460.8pt" height="345.6pt" viewBox="0 0 460.8 345.6" xmlns="http://www.w3.org/2000/svg" version="1.1">
 <metadata>
  <rdf:RDF xmlns:dc="http://purl.org/dc/elements/1.1/" xmlns:cc="http://creativecommons.org/ns#" xmlns:rdf="http://www.w3.org/1999/02/22-rdf-syntax-ns#">
   <cc:Work>
    <dc:type rdf:resource="http://purl.org/dc/dcmitype/StillImage"/>
    <dc:date>2024-05-29T07:59:37.682825</dc:date>
    <dc:format>image/svg+xml</dc:format>
    <dc:creator>
     <cc:Agent>
      <dc:title>Matplotlib v3.5.1, https://matplotlib.org/</dc:title>
     </cc:Agent>
    </dc:creator>
   </cc:Work>
  </rdf:RDF>
 </metadata>
 <defs>
  <style type="text/css">*{stroke-linejoin: round; stroke-linecap: butt}</style>
 </defs>
 <g id="figure_1">
  <g id="patch_1">
   <path d="M 0 345.6 
L 460.8 345.6 
L 460.8 0 
L 0 0 
z
" style="fill: #ffffff"/>
  </g>
  <g id="axes_1">
   <g id="patch_2">
    <path d="M 57.6 298.944 
L 360.8064 298.944 
L 360.8064 27.648 
L 57.6 27.648 
z
" style="fill: #ffffff"/>
   </g>
   <g id="line2d_1">
    <path d="M 98.933205 298.944 
L 98.933205 293.624471 
L 100.9152 293.624471 
L 100.9152 288.304941 
L 101.833019 288.304941 
L 101.833019 282.985412 
L 104.344952 282.985412 
L 104.344952 277.665882 
L 109.159456 277.665882 
L 109.159456 272.346353 
L 111.442442 272.346353 
L 111.442442 267.026824 
L 112.989468 267.026824 
L 112.989468 261.707294 
L 113.478107 261.707294 
L 113.478107 256.387765 
L 113.954374 256.387765 
L 113.954374 251.068235 
L 114.872193 251.068235 
L 114.872193 245.748706 
L 116.583514 245.748706 
L 116.583514 240.429176 
L 118.152051 240.429176 
L 118.152051 235.109647 
L 120.28394 235.109647 
L 120.28394 229.790118 
L 122.499621 229.790118 
L 122.499621 224.470588 
L 123.657621 224.470588 
L 123.657621 219.151059 
L 125.779479 219.151059 
L 125.779479 213.831529 
L 127.227236 213.831529 
L 127.227236 208.512 
L 127.911368 208.512 
L 127.911368 203.192471 
L 128.57149 203.192471 
L 128.57149 197.872941 
L 129.417095 197.872941 
L 129.417095 192.553412 
L 130.027253 192.553412 
L 130.027253 187.233882 
L 130.4233 187.233882 
L 130.4233 181.914353 
L 130.618241 181.914353 
L 130.618241 176.594824 
L 131.002163 176.594824 
L 131.002163 171.275294 
L 131.378407 171.275294 
L 131.378407 165.955765 
L 132.109044 165.955765 
L 132.109044 160.636235 
L 132.638982 160.636235 
L 132.638982 155.316706 
L 133.323114 155.316706 
L 133.323114 149.997176 
L 133.983236 149.997176 
L 133.983236 144.677647 
L 134.620977 144.677647 
L 134.620977 139.358118 
L 135.388902 139.358118 
L 135.388902 134.038588 
L 136.413909 134.038588 
L 136.413909 128.719059 
L 136.836659 128.719059 
L 136.836659 123.399529 
L 137.787626 123.399529 
L 137.787626 118.08 
L 138.566146 118.08 
L 138.566146 112.760471 
L 139.191172 112.760471 
L 139.191172 107.440941 
L 139.556456 107.440941 
L 139.556456 102.121412 
L 140.032723 102.121412 
L 140.032723 96.801882 
L 140.611586 96.801882 
L 140.611586 91.482353 
L 141.173167 91.482353 
L 141.173167 86.162824 
L 141.718467 86.162824 
L 141.718467 80.843294 
L 142.248405 80.843294 
L 142.248405 75.523765 
L 142.661862 75.523765 
L 142.661862 70.204235 
L 142.966099 70.204235 
L 142.966099 64.884706 
L 143.364242 64.884706 
L 143.364242 59.565176 
L 143.754133 59.565176 
L 143.754133 54.245647 
L 144.2304 54.245647 
L 144.2304 48.926118 
L 144.417581 48.926118 
L 144.417581 43.606588 
L 144.602918 43.606588 
L 144.602918 38.287059 
L 144.968202 38.287059 
L 144.968202 32.967529 
L 145.237585 32.967529 
L 145.237585 27.648 
L 360.8064 27.648 
" style="fill: none; stroke: #f5deb3; stroke-width: 4; stroke-linecap: square"/>
   </g>
   <g id="line2d_2">
    <defs>
     <path id="m8b7ad31cc9" d="M 0 7.778175 
L 7.778175 0 
L 0 -7.778175 
L -7.778175 0 
z
" style="stroke: #f5deb3; stroke-width: 1.5; stroke-linejoin: miter"/>
    </defs>
    <g>
     <use xlink:href="#m8b7ad31cc9" x="127.227236" y="208.512" style="fill: #f5deb3; stroke: #f5deb3; stroke-width: 1.5; stroke-linejoin: miter"/>
     <use xlink:href="#m8b7ad31cc9" x="144.2304" y="54.245647" style="fill: #f5deb3; stroke: #f5deb3; stroke-width: 1.5; stroke-linejoin: miter"/>
     <use xlink:href="#m8b7ad31cc9" x="145.237585" y="27.648" style="fill: #f5deb3; stroke: #f5deb3; stroke-width: 1.5; stroke-linejoin: miter"/>
     <use xlink:href="#m8b7ad31cc9" x="145.237585" y="27.648" style="fill: #f5deb3; stroke: #f5deb3; stroke-width: 1.5; stroke-linejoin: miter"/>
     <use xlink:href="#m8b7ad31cc9" x="360.8064" y="27.648" style="fill: #f5deb3; stroke: #f5deb3; stroke-width: 1.5; stroke-linejoin: miter"/>
    </g>
   </g>
   <g id="line2d_3">
    <path style="fill: none; stroke: #f5deb3; stroke-width: 4; stroke-linecap: square"/>
    <g/>
   </g>
   <g id="line2d_4">
    <path d="M 360.8064 27.648 
L 380.514816 33.07392 
" style="fill: none; stroke: #f5deb3; stroke-width: 4; stroke-linecap: square"/>
    <g>
     <use xlink:href="#m8b7ad31cc9" x="360.8064" y="27.648" style="fill: #f5deb3; stroke: #f5deb3; stroke-width: 1.5; stroke-linejoin: miter"/>
     <use xlink:href="#m8b7ad31cc9" x="380.514816" y="33.07392" style="fill: #f5deb3; stroke: #f5deb3; stroke-width: 1.5; stroke-linejoin: miter"/>
    </g>
   </g>
   <g id="matplotlib.axis_1">
    <g id="xtick_1">
     <g id="line2d_5">
      <path d="M 57.6 298.944 
L 57.6 27.648 
" clip-path="url(#p5f90bc07ab)" style="fill: none; stroke: #b0b0b0; stroke-width: 0.8; stroke-linecap: square"/>
     </g>
     <g id="line2d_6">
      <defs>
       <path id="m27a751e21b" d="M 0 0 
L 0 3.5 
" style="stroke: #000000; stroke-width: 0.8"/>
      </defs>
      <g>
       <use xlink:href="#m27a751e21b" x="57.6" y="298.944" style="stroke: #000000; stroke-width: 0.8"/>
      </g>
     </g>
     <g id="text_1">
      <!-- 0 -->
      <g transform="translate(52.191875 318.861344)scale(0.17 -0.17)">
       <defs>
        <path id="DejaVuSans-30" d="M 2034 4250 
Q 1547 4250 1301 3770 
Q 1056 3291 1056 2328 
Q 1056 1369 1301 889 
Q 1547 409 2034 409 
Q 2525 409 2770 889 
Q 3016 1369 3016 2328 
Q 3016 3291 2770 3770 
Q 2525 4250 2034 4250 
z
M 2034 4750 
Q 2819 4750 3233 4129 
Q 3647 3509 3647 2328 
Q 3647 1150 3233 529 
Q 2819 -91 2034 -91 
Q 1250 -91 836 529 
Q 422 1150 422 2328 
Q 422 3509 836 4129 
Q 1250 4750 2034 4750 
z
" transform="scale(0.015625)"/>
       </defs>
       <use xlink:href="#DejaVuSans-30"/>
      </g>
     </g>
    </g>
    <g id="xtick_2">
     <g id="line2d_7">
      <path d="M 144.2304 298.944 
L 144.2304 27.648 
" clip-path="url(#p5f90bc07ab)" style="fill: none; stroke: #b0b0b0; stroke-width: 0.8; stroke-linecap: square"/>
     </g>
     <g id="line2d_8">
      <g>
       <use xlink:href="#m27a751e21b" x="144.2304" y="298.944" style="stroke: #000000; stroke-width: 0.8"/>
      </g>
     </g>
     <g id="text_2">
      <!-- 2 -->
      <g transform="translate(138.822275 318.861344)scale(0.17 -0.17)">
       <defs>
        <path id="DejaVuSans-32" d="M 1228 531 
L 3431 531 
L 3431 0 
L 469 0 
L 469 531 
Q 828 903 1448 1529 
Q 2069 2156 2228 2338 
Q 2531 2678 2651 2914 
Q 2772 3150 2772 3378 
Q 2772 3750 2511 3984 
Q 2250 4219 1831 4219 
Q 1534 4219 1204 4116 
Q 875 4013 500 3803 
L 500 4441 
Q 881 4594 1212 4672 
Q 1544 4750 1819 4750 
Q 2544 4750 2975 4387 
Q 3406 4025 3406 3419 
Q 3406 3131 3298 2873 
Q 3191 2616 2906 2266 
Q 2828 2175 2409 1742 
Q 1991 1309 1228 531 
z
" transform="scale(0.015625)"/>
       </defs>
       <use xlink:href="#DejaVuSans-32"/>
      </g>
     </g>
    </g>
    <g id="xtick_3">
     <g id="line2d_9">
      <path d="M 230.8608 298.944 
L 230.8608 27.648 
" clip-path="url(#p5f90bc07ab)" style="fill: none; stroke: #b0b0b0; stroke-width: 0.8; stroke-linecap: square"/>
     </g>
     <g id="line2d_10">
      <g>
       <use xlink:href="#m27a751e21b" x="230.8608" y="298.944" style="stroke: #000000; stroke-width: 0.8"/>
      </g>
     </g>
     <g id="text_3">
      <!-- 4 -->
      <g transform="translate(225.452675 318.861344)scale(0.17 -0.17)">
       <defs>
        <path id="DejaVuSans-34" d="M 2419 4116 
L 825 1625 
L 2419 1625 
L 2419 4116 
z
M 2253 4666 
L 3047 4666 
L 3047 1625 
L 3713 1625 
L 3713 1100 
L 3047 1100 
L 3047 0 
L 2419 0 
L 2419 1100 
L 313 1100 
L 313 1709 
L 2253 4666 
z
" transform="scale(0.015625)"/>
       </defs>
       <use xlink:href="#DejaVuSans-34"/>
      </g>
     </g>
    </g>
    <g id="xtick_4">
     <g id="line2d_11">
      <path d="M 317.4912 298.944 
L 317.4912 27.648 
" clip-path="url(#p5f90bc07ab)" style="fill: none; stroke: #b0b0b0; stroke-width: 0.8; stroke-linecap: square"/>
     </g>
     <g id="line2d_12">
      <g>
       <use xlink:href="#m27a751e21b" x="317.4912" y="298.944" style="stroke: #000000; stroke-width: 0.8"/>
      </g>
     </g>
     <g id="text_4">
      <!-- 6 -->
      <g transform="translate(312.083075 318.861344)scale(0.17 -0.17)">
       <defs>
        <path id="DejaVuSans-36" d="M 2113 2584 
Q 1688 2584 1439 2293 
Q 1191 2003 1191 1497 
Q 1191 994 1439 701 
Q 1688 409 2113 409 
Q 2538 409 2786 701 
Q 3034 994 3034 1497 
Q 3034 2003 2786 2293 
Q 2538 2584 2113 2584 
z
M 3366 4563 
L 3366 3988 
Q 3128 4100 2886 4159 
Q 2644 4219 2406 4219 
Q 1781 4219 1451 3797 
Q 1122 3375 1075 2522 
Q 1259 2794 1537 2939 
Q 1816 3084 2150 3084 
Q 2853 3084 3261 2657 
Q 3669 2231 3669 1497 
Q 3669 778 3244 343 
Q 2819 -91 2113 -91 
Q 1303 -91 875 529 
Q 447 1150 447 2328 
Q 447 3434 972 4092 
Q 1497 4750 2381 4750 
Q 2619 4750 2861 4703 
Q 3103 4656 3366 4563 
z
" transform="scale(0.015625)"/>
       </defs>
       <use xlink:href="#DejaVuSans-36"/>
      </g>
     </g>
    </g>
    <g id="xtick_5">
     <g id="line2d_13">
      <path d="M 100.9152 298.944 
L 100.9152 27.648 
" clip-path="url(#p5f90bc07ab)" style="fill: none; stroke: #b0b0b0; stroke-width: 0.8; stroke-linecap: square"/>
     </g>
     <g id="line2d_14">
      <defs>
       <path id="mb9fa66a9d3" d="M 0 0 
L 0 2 
" style="stroke: #000000; stroke-width: 0.6"/>
      </defs>
      <g>
       <use xlink:href="#mb9fa66a9d3" x="100.9152" y="298.944" style="stroke: #000000; stroke-width: 0.6"/>
      </g>
     </g>
    </g>
    <g id="xtick_6">
     <g id="line2d_15">
      <path d="M 187.5456 298.944 
L 187.5456 27.648 
" clip-path="url(#p5f90bc07ab)" style="fill: none; stroke: #b0b0b0; stroke-width: 0.8; stroke-linecap: square"/>
     </g>
     <g id="line2d_16">
      <g>
       <use xlink:href="#mb9fa66a9d3" x="187.5456" y="298.944" style="stroke: #000000; stroke-width: 0.6"/>
      </g>
     </g>
    </g>
    <g id="xtick_7">
     <g id="line2d_17">
      <path d="M 274.176 298.944 
L 274.176 27.648 
" clip-path="url(#p5f90bc07ab)" style="fill: none; stroke: #b0b0b0; stroke-width: 0.8; stroke-linecap: square"/>
     </g>
     <g id="line2d_18">
      <g>
       <use xlink:href="#mb9fa66a9d3" x="274.176" y="298.944" style="stroke: #000000; stroke-width: 0.6"/>
      </g>
     </g>
    </g>
    <g id="xtick_8">
     <g id="line2d_19">
      <path d="M 360.8064 298.944 
L 360.8064 27.648 
" clip-path="url(#p5f90bc07ab)" style="fill: none; stroke: #b0b0b0; stroke-width: 0.8; stroke-linecap: square"/>
     </g>
     <g id="line2d_20">
      <g>
       <use xlink:href="#mb9fa66a9d3" x="360.8064" y="298.944" style="stroke: #000000; stroke-width: 0.6"/>
      </g>
     </g>
    </g>
    <g id="text_5">
     <!-- log10(# f-evals / dimension) -->
     <g transform="translate(88.823278 339.314156)scale(0.17 -0.17)">
      <defs>
       <path id="DejaVuSans-6c" d="M 603 4863 
L 1178 4863 
L 1178 0 
L 603 0 
L 603 4863 
z
" transform="scale(0.015625)"/>
       <path id="DejaVuSans-6f" d="M 1959 3097 
Q 1497 3097 1228 2736 
Q 959 2375 959 1747 
Q 959 1119 1226 758 
Q 1494 397 1959 397 
Q 2419 397 2687 759 
Q 2956 1122 2956 1747 
Q 2956 2369 2687 2733 
Q 2419 3097 1959 3097 
z
M 1959 3584 
Q 2709 3584 3137 3096 
Q 3566 2609 3566 1747 
Q 3566 888 3137 398 
Q 2709 -91 1959 -91 
Q 1206 -91 779 398 
Q 353 888 353 1747 
Q 353 2609 779 3096 
Q 1206 3584 1959 3584 
z
" transform="scale(0.015625)"/>
       <path id="DejaVuSans-67" d="M 2906 1791 
Q 2906 2416 2648 2759 
Q 2391 3103 1925 3103 
Q 1463 3103 1205 2759 
Q 947 2416 947 1791 
Q 947 1169 1205 825 
Q 1463 481 1925 481 
Q 2391 481 2648 825 
Q 2906 1169 2906 1791 
z
M 3481 434 
Q 3481 -459 3084 -895 
Q 2688 -1331 1869 -1331 
Q 1566 -1331 1297 -1286 
Q 1028 -1241 775 -1147 
L 775 -588 
Q 1028 -725 1275 -790 
Q 1522 -856 1778 -856 
Q 2344 -856 2625 -561 
Q 2906 -266 2906 331 
L 2906 616 
Q 2728 306 2450 153 
Q 2172 0 1784 0 
Q 1141 0 747 490 
Q 353 981 353 1791 
Q 353 2603 747 3093 
Q 1141 3584 1784 3584 
Q 2172 3584 2450 3431 
Q 2728 3278 2906 2969 
L 2906 3500 
L 3481 3500 
L 3481 434 
z
" transform="scale(0.015625)"/>
       <path id="DejaVuSans-31" d="M 794 531 
L 1825 531 
L 1825 4091 
L 703 3866 
L 703 4441 
L 1819 4666 
L 2450 4666 
L 2450 531 
L 3481 531 
L 3481 0 
L 794 0 
L 794 531 
z
" transform="scale(0.015625)"/>
       <path id="DejaVuSans-28" d="M 1984 4856 
Q 1566 4138 1362 3434 
Q 1159 2731 1159 2009 
Q 1159 1288 1364 580 
Q 1569 -128 1984 -844 
L 1484 -844 
Q 1016 -109 783 600 
Q 550 1309 550 2009 
Q 550 2706 781 3412 
Q 1013 4119 1484 4856 
L 1984 4856 
z
" transform="scale(0.015625)"/>
       <path id="DejaVuSans-23" d="M 3272 2816 
L 2363 2816 
L 2100 1772 
L 3016 1772 
L 3272 2816 
z
M 2803 4594 
L 2478 3297 
L 3391 3297 
L 3719 4594 
L 4219 4594 
L 3897 3297 
L 4872 3297 
L 4872 2816 
L 3775 2816 
L 3519 1772 
L 4513 1772 
L 4513 1294 
L 3397 1294 
L 3072 0 
L 2572 0 
L 2894 1294 
L 1978 1294 
L 1656 0 
L 1153 0 
L 1478 1294 
L 494 1294 
L 494 1772 
L 1594 1772 
L 1856 2816 
L 850 2816 
L 850 3297 
L 1978 3297 
L 2297 4594 
L 2803 4594 
z
" transform="scale(0.015625)"/>
       <path id="DejaVuSans-20" transform="scale(0.015625)"/>
       <path id="DejaVuSans-66" d="M 2375 4863 
L 2375 4384 
L 1825 4384 
Q 1516 4384 1395 4259 
Q 1275 4134 1275 3809 
L 1275 3500 
L 2222 3500 
L 2222 3053 
L 1275 3053 
L 1275 0 
L 697 0 
L 697 3053 
L 147 3053 
L 147 3500 
L 697 3500 
L 697 3744 
Q 697 4328 969 4595 
Q 1241 4863 1831 4863 
L 2375 4863 
z
" transform="scale(0.015625)"/>
       <path id="DejaVuSans-2d" d="M 313 2009 
L 1997 2009 
L 1997 1497 
L 313 1497 
L 313 2009 
z
" transform="scale(0.015625)"/>
       <path id="DejaVuSans-65" d="M 3597 1894 
L 3597 1613 
L 953 1613 
Q 991 1019 1311 708 
Q 1631 397 2203 397 
Q 2534 397 2845 478 
Q 3156 559 3463 722 
L 3463 178 
Q 3153 47 2828 -22 
Q 2503 -91 2169 -91 
Q 1331 -91 842 396 
Q 353 884 353 1716 
Q 353 2575 817 3079 
Q 1281 3584 2069 3584 
Q 2775 3584 3186 3129 
Q 3597 2675 3597 1894 
z
M 3022 2063 
Q 3016 2534 2758 2815 
Q 2500 3097 2075 3097 
Q 1594 3097 1305 2825 
Q 1016 2553 972 2059 
L 3022 2063 
z
" transform="scale(0.015625)"/>
       <path id="DejaVuSans-76" d="M 191 3500 
L 800 3500 
L 1894 563 
L 2988 3500 
L 3597 3500 
L 2284 0 
L 1503 0 
L 191 3500 
z
" transform="scale(0.015625)"/>
       <path id="DejaVuSans-61" d="M 2194 1759 
Q 1497 1759 1228 1600 
Q 959 1441 959 1056 
Q 959 750 1161 570 
Q 1363 391 1709 391 
Q 2188 391 2477 730 
Q 2766 1069 2766 1631 
L 2766 1759 
L 2194 1759 
z
M 3341 1997 
L 3341 0 
L 2766 0 
L 2766 531 
Q 2569 213 2275 61 
Q 1981 -91 1556 -91 
Q 1019 -91 701 211 
Q 384 513 384 1019 
Q 384 1609 779 1909 
Q 1175 2209 1959 2209 
L 2766 2209 
L 2766 2266 
Q 2766 2663 2505 2880 
Q 2244 3097 1772 3097 
Q 1472 3097 1187 3025 
Q 903 2953 641 2809 
L 641 3341 
Q 956 3463 1253 3523 
Q 1550 3584 1831 3584 
Q 2591 3584 2966 3190 
Q 3341 2797 3341 1997 
z
" transform="scale(0.015625)"/>
       <path id="DejaVuSans-73" d="M 2834 3397 
L 2834 2853 
Q 2591 2978 2328 3040 
Q 2066 3103 1784 3103 
Q 1356 3103 1142 2972 
Q 928 2841 928 2578 
Q 928 2378 1081 2264 
Q 1234 2150 1697 2047 
L 1894 2003 
Q 2506 1872 2764 1633 
Q 3022 1394 3022 966 
Q 3022 478 2636 193 
Q 2250 -91 1575 -91 
Q 1294 -91 989 -36 
Q 684 19 347 128 
L 347 722 
Q 666 556 975 473 
Q 1284 391 1588 391 
Q 1994 391 2212 530 
Q 2431 669 2431 922 
Q 2431 1156 2273 1281 
Q 2116 1406 1581 1522 
L 1381 1569 
Q 847 1681 609 1914 
Q 372 2147 372 2553 
Q 372 3047 722 3315 
Q 1072 3584 1716 3584 
Q 2034 3584 2315 3537 
Q 2597 3491 2834 3397 
z
" transform="scale(0.015625)"/>
       <path id="DejaVuSans-2f" d="M 1625 4666 
L 2156 4666 
L 531 -594 
L 0 -594 
L 1625 4666 
z
" transform="scale(0.015625)"/>
       <path id="DejaVuSans-64" d="M 2906 2969 
L 2906 4863 
L 3481 4863 
L 3481 0 
L 2906 0 
L 2906 525 
Q 2725 213 2448 61 
Q 2172 -91 1784 -91 
Q 1150 -91 751 415 
Q 353 922 353 1747 
Q 353 2572 751 3078 
Q 1150 3584 1784 3584 
Q 2172 3584 2448 3432 
Q 2725 3281 2906 2969 
z
M 947 1747 
Q 947 1113 1208 752 
Q 1469 391 1925 391 
Q 2381 391 2643 752 
Q 2906 1113 2906 1747 
Q 2906 2381 2643 2742 
Q 2381 3103 1925 3103 
Q 1469 3103 1208 2742 
Q 947 2381 947 1747 
z
" transform="scale(0.015625)"/>
       <path id="DejaVuSans-69" d="M 603 3500 
L 1178 3500 
L 1178 0 
L 603 0 
L 603 3500 
z
M 603 4863 
L 1178 4863 
L 1178 4134 
L 603 4134 
L 603 4863 
z
" transform="scale(0.015625)"/>
       <path id="DejaVuSans-6d" d="M 3328 2828 
Q 3544 3216 3844 3400 
Q 4144 3584 4550 3584 
Q 5097 3584 5394 3201 
Q 5691 2819 5691 2113 
L 5691 0 
L 5113 0 
L 5113 2094 
Q 5113 2597 4934 2840 
Q 4756 3084 4391 3084 
Q 3944 3084 3684 2787 
Q 3425 2491 3425 1978 
L 3425 0 
L 2847 0 
L 2847 2094 
Q 2847 2600 2669 2842 
Q 2491 3084 2119 3084 
Q 1678 3084 1418 2786 
Q 1159 2488 1159 1978 
L 1159 0 
L 581 0 
L 581 3500 
L 1159 3500 
L 1159 2956 
Q 1356 3278 1631 3431 
Q 1906 3584 2284 3584 
Q 2666 3584 2933 3390 
Q 3200 3197 3328 2828 
z
" transform="scale(0.015625)"/>
       <path id="DejaVuSans-6e" d="M 3513 2113 
L 3513 0 
L 2938 0 
L 2938 2094 
Q 2938 2591 2744 2837 
Q 2550 3084 2163 3084 
Q 1697 3084 1428 2787 
Q 1159 2491 1159 1978 
L 1159 0 
L 581 0 
L 581 3500 
L 1159 3500 
L 1159 2956 
Q 1366 3272 1645 3428 
Q 1925 3584 2291 3584 
Q 2894 3584 3203 3211 
Q 3513 2838 3513 2113 
z
" transform="scale(0.015625)"/>
       <path id="DejaVuSans-29" d="M 513 4856 
L 1013 4856 
Q 1481 4119 1714 3412 
Q 1947 2706 1947 2009 
Q 1947 1309 1714 600 
Q 1481 -109 1013 -844 
L 513 -844 
Q 928 -128 1133 580 
Q 1338 1288 1338 2009 
Q 1338 2731 1133 3434 
Q 928 4138 513 4856 
z
" transform="scale(0.015625)"/>
      </defs>
      <use xlink:href="#DejaVuSans-6c"/>
      <use xlink:href="#DejaVuSans-6f" x="27.783203"/>
      <use xlink:href="#DejaVuSans-67" x="88.964844"/>
      <use xlink:href="#DejaVuSans-31" x="152.441406"/>
      <use xlink:href="#DejaVuSans-30" x="216.064453"/>
      <use xlink:href="#DejaVuSans-28" x="279.6875"/>
      <use xlink:href="#DejaVuSans-23" x="318.701172"/>
      <use xlink:href="#DejaVuSans-20" x="402.490234"/>
      <use xlink:href="#DejaVuSans-66" x="434.277344"/>
      <use xlink:href="#DejaVuSans-2d" x="463.982422"/>
      <use xlink:href="#DejaVuSans-65" x="500.066406"/>
      <use xlink:href="#DejaVuSans-76" x="561.589844"/>
      <use xlink:href="#DejaVuSans-61" x="620.769531"/>
      <use xlink:href="#DejaVuSans-6c" x="682.048828"/>
      <use xlink:href="#DejaVuSans-73" x="709.832031"/>
      <use xlink:href="#DejaVuSans-20" x="761.931641"/>
      <use xlink:href="#DejaVuSans-2f" x="793.71875"/>
      <use xlink:href="#DejaVuSans-20" x="827.410156"/>
      <use xlink:href="#DejaVuSans-64" x="859.197266"/>
      <use xlink:href="#DejaVuSans-69" x="922.673828"/>
      <use xlink:href="#DejaVuSans-6d" x="950.457031"/>
      <use xlink:href="#DejaVuSans-65" x="1047.869141"/>
      <use xlink:href="#DejaVuSans-6e" x="1109.392578"/>
      <use xlink:href="#DejaVuSans-73" x="1172.771484"/>
      <use xlink:href="#DejaVuSans-69" x="1224.871094"/>
      <use xlink:href="#DejaVuSans-6f" x="1252.654297"/>
      <use xlink:href="#DejaVuSans-6e" x="1313.835938"/>
      <use xlink:href="#DejaVuSans-29" x="1377.214844"/>
     </g>
    </g>
   </g>
   <g id="matplotlib.axis_2">
    <g id="ytick_1">
     <g id="line2d_21">
      <path d="M 57.6 298.944 
L 360.8064 298.944 
" clip-path="url(#p5f90bc07ab)" style="fill: none; stroke: #b0b0b0; stroke-width: 0.8; stroke-linecap: square"/>
     </g>
     <g id="line2d_22">
      <defs>
       <path id="ma826f05083" d="M 0 0 
L -3.5 0 
" style="stroke: #000000; stroke-width: 0.8"/>
      </defs>
      <g>
       <use xlink:href="#ma826f05083" x="57.6" y="298.944" style="stroke: #000000; stroke-width: 0.8"/>
      </g>
     </g>
     <g id="text_6">
      <!-- 0.0 -->
      <g transform="translate(25.155 305.02275)scale(0.16 -0.16)">
       <defs>
        <path id="DejaVuSans-2e" d="M 684 794 
L 1344 794 
L 1344 0 
L 684 0 
L 684 794 
z
" transform="scale(0.015625)"/>
       </defs>
       <use xlink:href="#DejaVuSans-30"/>
       <use xlink:href="#DejaVuSans-2e" x="63.623047"/>
       <use xlink:href="#DejaVuSans-30" x="95.410156"/>
      </g>
     </g>
    </g>
    <g id="ytick_2">
     <g id="line2d_23">
      <path d="M 57.6 244.6848 
L 360.8064 244.6848 
" clip-path="url(#p5f90bc07ab)" style="fill: none; stroke: #b0b0b0; stroke-width: 0.8; stroke-linecap: square"/>
     </g>
     <g id="line2d_24">
      <g>
       <use xlink:href="#ma826f05083" x="57.6" y="244.6848" style="stroke: #000000; stroke-width: 0.8"/>
      </g>
     </g>
     <g id="text_7">
      <!-- 0.2 -->
      <g transform="translate(25.155 250.76355)scale(0.16 -0.16)">
       <use xlink:href="#DejaVuSans-30"/>
       <use xlink:href="#DejaVuSans-2e" x="63.623047"/>
       <use xlink:href="#DejaVuSans-32" x="95.410156"/>
      </g>
     </g>
    </g>
    <g id="ytick_3">
     <g id="line2d_25">
      <path d="M 57.6 190.4256 
L 360.8064 190.4256 
" clip-path="url(#p5f90bc07ab)" style="fill: none; stroke: #b0b0b0; stroke-width: 0.8; stroke-linecap: square"/>
     </g>
     <g id="line2d_26">
      <g>
       <use xlink:href="#ma826f05083" x="57.6" y="190.4256" style="stroke: #000000; stroke-width: 0.8"/>
      </g>
     </g>
     <g id="text_8">
      <!-- 0.4 -->
      <g transform="translate(25.155 196.50435)scale(0.16 -0.16)">
       <use xlink:href="#DejaVuSans-30"/>
       <use xlink:href="#DejaVuSans-2e" x="63.623047"/>
       <use xlink:href="#DejaVuSans-34" x="95.410156"/>
      </g>
     </g>
    </g>
    <g id="ytick_4">
     <g id="line2d_27">
      <path d="M 57.6 136.1664 
L 360.8064 136.1664 
" clip-path="url(#p5f90bc07ab)" style="fill: none; stroke: #b0b0b0; stroke-width: 0.8; stroke-linecap: square"/>
     </g>
     <g id="line2d_28">
      <g>
       <use xlink:href="#ma826f05083" x="57.6" y="136.1664" style="stroke: #000000; stroke-width: 0.8"/>
      </g>
     </g>
     <g id="text_9">
      <!-- 0.6 -->
      <g transform="translate(25.155 142.24515)scale(0.16 -0.16)">
       <use xlink:href="#DejaVuSans-30"/>
       <use xlink:href="#DejaVuSans-2e" x="63.623047"/>
       <use xlink:href="#DejaVuSans-36" x="95.410156"/>
      </g>
     </g>
    </g>
    <g id="ytick_5">
     <g id="line2d_29">
      <path d="M 57.6 81.9072 
L 360.8064 81.9072 
" clip-path="url(#p5f90bc07ab)" style="fill: none; stroke: #b0b0b0; stroke-width: 0.8; stroke-linecap: square"/>
     </g>
     <g id="line2d_30">
      <g>
       <use xlink:href="#ma826f05083" x="57.6" y="81.9072" style="stroke: #000000; stroke-width: 0.8"/>
      </g>
     </g>
     <g id="text_10">
      <!-- 0.8 -->
      <g transform="translate(25.155 87.98595)scale(0.16 -0.16)">
       <defs>
        <path id="DejaVuSans-38" d="M 2034 2216 
Q 1584 2216 1326 1975 
Q 1069 1734 1069 1313 
Q 1069 891 1326 650 
Q 1584 409 2034 409 
Q 2484 409 2743 651 
Q 3003 894 3003 1313 
Q 3003 1734 2745 1975 
Q 2488 2216 2034 2216 
z
M 1403 2484 
Q 997 2584 770 2862 
Q 544 3141 544 3541 
Q 544 4100 942 4425 
Q 1341 4750 2034 4750 
Q 2731 4750 3128 4425 
Q 3525 4100 3525 3541 
Q 3525 3141 3298 2862 
Q 3072 2584 2669 2484 
Q 3125 2378 3379 2068 
Q 3634 1759 3634 1313 
Q 3634 634 3220 271 
Q 2806 -91 2034 -91 
Q 1263 -91 848 271 
Q 434 634 434 1313 
Q 434 1759 690 2068 
Q 947 2378 1403 2484 
z
M 1172 3481 
Q 1172 3119 1398 2916 
Q 1625 2713 2034 2713 
Q 2441 2713 2670 2916 
Q 2900 3119 2900 3481 
Q 2900 3844 2670 4047 
Q 2441 4250 2034 4250 
Q 1625 4250 1398 4047 
Q 1172 3844 1172 3481 
z
" transform="scale(0.015625)"/>
       </defs>
       <use xlink:href="#DejaVuSans-30"/>
       <use xlink:href="#DejaVuSans-2e" x="63.623047"/>
       <use xlink:href="#DejaVuSans-38" x="95.410156"/>
      </g>
     </g>
    </g>
    <g id="ytick_6">
     <g id="line2d_31">
      <path d="M 57.6 27.648 
L 360.8064 27.648 
" clip-path="url(#p5f90bc07ab)" style="fill: none; stroke: #b0b0b0; stroke-width: 0.8; stroke-linecap: square"/>
     </g>
     <g id="line2d_32">
      <g>
       <use xlink:href="#ma826f05083" x="57.6" y="27.648" style="stroke: #000000; stroke-width: 0.8"/>
      </g>
     </g>
     <g id="text_11">
      <!-- 1.0 -->
      <g transform="translate(25.155 33.72675)scale(0.16 -0.16)">
       <use xlink:href="#DejaVuSans-31"/>
       <use xlink:href="#DejaVuSans-2e" x="63.623047"/>
       <use xlink:href="#DejaVuSans-30" x="95.410156"/>
      </g>
     </g>
    </g>
    <g id="text_12">
     <!-- Fraction of function,target pairs -->
     <g transform="translate(17.619531 297.681)rotate(-90)scale(0.17 -0.17)">
      <defs>
       <path id="DejaVuSans-46" d="M 628 4666 
L 3309 4666 
L 3309 4134 
L 1259 4134 
L 1259 2759 
L 3109 2759 
L 3109 2228 
L 1259 2228 
L 1259 0 
L 628 0 
L 628 4666 
z
" transform="scale(0.015625)"/>
       <path id="DejaVuSans-72" d="M 2631 2963 
Q 2534 3019 2420 3045 
Q 2306 3072 2169 3072 
Q 1681 3072 1420 2755 
Q 1159 2438 1159 1844 
L 1159 0 
L 581 0 
L 581 3500 
L 1159 3500 
L 1159 2956 
Q 1341 3275 1631 3429 
Q 1922 3584 2338 3584 
Q 2397 3584 2469 3576 
Q 2541 3569 2628 3553 
L 2631 2963 
z
" transform="scale(0.015625)"/>
       <path id="DejaVuSans-63" d="M 3122 3366 
L 3122 2828 
Q 2878 2963 2633 3030 
Q 2388 3097 2138 3097 
Q 1578 3097 1268 2742 
Q 959 2388 959 1747 
Q 959 1106 1268 751 
Q 1578 397 2138 397 
Q 2388 397 2633 464 
Q 2878 531 3122 666 
L 3122 134 
Q 2881 22 2623 -34 
Q 2366 -91 2075 -91 
Q 1284 -91 818 406 
Q 353 903 353 1747 
Q 353 2603 823 3093 
Q 1294 3584 2113 3584 
Q 2378 3584 2631 3529 
Q 2884 3475 3122 3366 
z
" transform="scale(0.015625)"/>
       <path id="DejaVuSans-74" d="M 1172 4494 
L 1172 3500 
L 2356 3500 
L 2356 3053 
L 1172 3053 
L 1172 1153 
Q 1172 725 1289 603 
Q 1406 481 1766 481 
L 2356 481 
L 2356 0 
L 1766 0 
Q 1100 0 847 248 
Q 594 497 594 1153 
L 594 3053 
L 172 3053 
L 172 3500 
L 594 3500 
L 594 4494 
L 1172 4494 
z
" transform="scale(0.015625)"/>
       <path id="DejaVuSans-75" d="M 544 1381 
L 544 3500 
L 1119 3500 
L 1119 1403 
Q 1119 906 1312 657 
Q 1506 409 1894 409 
Q 2359 409 2629 706 
Q 2900 1003 2900 1516 
L 2900 3500 
L 3475 3500 
L 3475 0 
L 2900 0 
L 2900 538 
Q 2691 219 2414 64 
Q 2138 -91 1772 -91 
Q 1169 -91 856 284 
Q 544 659 544 1381 
z
M 1991 3584 
L 1991 3584 
z
" transform="scale(0.015625)"/>
       <path id="DejaVuSans-2c" d="M 750 794 
L 1409 794 
L 1409 256 
L 897 -744 
L 494 -744 
L 750 256 
L 750 794 
z
" transform="scale(0.015625)"/>
       <path id="DejaVuSans-70" d="M 1159 525 
L 1159 -1331 
L 581 -1331 
L 581 3500 
L 1159 3500 
L 1159 2969 
Q 1341 3281 1617 3432 
Q 1894 3584 2278 3584 
Q 2916 3584 3314 3078 
Q 3713 2572 3713 1747 
Q 3713 922 3314 415 
Q 2916 -91 2278 -91 
Q 1894 -91 1617 61 
Q 1341 213 1159 525 
z
M 3116 1747 
Q 3116 2381 2855 2742 
Q 2594 3103 2138 3103 
Q 1681 3103 1420 2742 
Q 1159 2381 1159 1747 
Q 1159 1113 1420 752 
Q 1681 391 2138 391 
Q 2594 391 2855 752 
Q 3116 1113 3116 1747 
z
" transform="scale(0.015625)"/>
      </defs>
      <use xlink:href="#DejaVuSans-46"/>
      <use xlink:href="#DejaVuSans-72" x="50.269531"/>
      <use xlink:href="#DejaVuSans-61" x="91.382812"/>
      <use xlink:href="#DejaVuSans-63" x="152.662109"/>
      <use xlink:href="#DejaVuSans-74" x="207.642578"/>
      <use xlink:href="#DejaVuSans-69" x="246.851562"/>
      <use xlink:href="#DejaVuSans-6f" x="274.634766"/>
      <use xlink:href="#DejaVuSans-6e" x="335.816406"/>
      <use xlink:href="#DejaVuSans-20" x="399.195312"/>
      <use xlink:href="#DejaVuSans-6f" x="430.982422"/>
      <use xlink:href="#DejaVuSans-66" x="492.164062"/>
      <use xlink:href="#DejaVuSans-20" x="527.369141"/>
      <use xlink:href="#DejaVuSans-66" x="559.15625"/>
      <use xlink:href="#DejaVuSans-75" x="594.361328"/>
      <use xlink:href="#DejaVuSans-6e" x="657.740234"/>
      <use xlink:href="#DejaVuSans-63" x="721.119141"/>
      <use xlink:href="#DejaVuSans-74" x="776.099609"/>
      <use xlink:href="#DejaVuSans-69" x="815.308594"/>
      <use xlink:href="#DejaVuSans-6f" x="843.091797"/>
      <use xlink:href="#DejaVuSans-6e" x="904.273438"/>
      <use xlink:href="#DejaVuSans-2c" x="967.652344"/>
      <use xlink:href="#DejaVuSans-74" x="999.439453"/>
      <use xlink:href="#DejaVuSans-61" x="1038.648438"/>
      <use xlink:href="#DejaVuSans-72" x="1099.927734"/>
      <use xlink:href="#DejaVuSans-67" x="1139.291016"/>
      <use xlink:href="#DejaVuSans-65" x="1202.767578"/>
      <use xlink:href="#DejaVuSans-74" x="1264.291016"/>
      <use xlink:href="#DejaVuSans-20" x="1303.5"/>
      <use xlink:href="#DejaVuSans-70" x="1335.287109"/>
      <use xlink:href="#DejaVuSans-61" x="1398.763672"/>
      <use xlink:href="#DejaVuSans-69" x="1460.042969"/>
      <use xlink:href="#DejaVuSans-72" x="1487.826172"/>
      <use xlink:href="#DejaVuSans-73" x="1528.939453"/>
     </g>
    </g>
   </g>
   <g id="line2d_33">
    <defs>
     <path id="m4613ad2647" d="M 0 1.5 
C 0.397805 1.5 0.77937 1.341951 1.06066 1.06066 
C 1.341951 0.77937 1.5 0.397805 1.5 0 
C 1.5 -0.397805 1.341951 -0.77937 1.06066 -1.06066 
C 0.77937 -1.341951 0.397805 -1.5 0 -1.5 
C -0.397805 -1.5 -0.77937 -1.341951 -1.06066 -1.06066 
C -1.341951 -0.77937 -1.5 -0.397805 -1.5 0 
C -1.5 0.397805 -1.341951 0.77937 -1.06066 1.06066 
C -0.77937 1.341951 -0.397805 1.5 0 1.5 
z
" style="stroke: #f5deb3"/>
    </defs>
    <g>
     <use xlink:href="#m4613ad2647" x="145.237585" y="27.648" style="fill: #f5deb3; stroke: #f5deb3"/>
     <use xlink:href="#m4613ad2647" x="145.237585" y="27.648" style="fill: #f5deb3; stroke: #f5deb3"/>
    </g>
   </g>
   <g id="line2d_34">
    <defs>
     <path id="m6cd3a5638b" d="M 0 1.5 
C 0.397805 1.5 0.77937 1.341951 1.06066 1.06066 
C 1.341951 0.77937 1.5 0.397805 1.5 0 
C 1.5 -0.397805 1.341951 -0.77937 1.06066 -1.06066 
C 0.77937 -1.341951 0.397805 -1.5 0 -1.5 
C -0.397805 -1.5 -0.77937 -1.341951 -1.06066 -1.06066 
C -1.341951 -0.77937 -1.5 -0.397805 -1.5 0 
C -1.5 0.397805 -1.341951 0.77937 -1.06066 1.06066 
C -0.77937 1.341951 -0.397805 1.5 0 1.5 
z
" style="stroke: #000080"/>
    </defs>
    <g>
     <use xlink:href="#m6cd3a5638b" x="281.170681" y="27.648" style="fill: #000080; stroke: #000080"/>
     <use xlink:href="#m6cd3a5638b" x="281.170681" y="27.648" style="fill: #000080; stroke: #000080"/>
    </g>
   </g>
   <g id="line2d_35">
    <path d="M 109.159456 298.944 
L 109.159456 298.589365 
L 126.028642 298.589365 
L 126.028642 297.525459 
L 128.999044 297.525459 
L 128.999044 295.043012 
L 140.382174 295.043012 
L 140.382174 292.560565 
L 141.50224 292.560565 
L 141.50224 291.851294 
L 145.93763 291.851294 
L 145.93763 290.787388 
L 147.816265 290.787388 
L 147.816265 290.432753 
L 153.421349 290.432753 
L 153.421349 290.078118 
L 154.703817 290.078118 
L 154.703817 289.368847 
L 156.745011 289.368847 
L 156.745011 288.659576 
L 156.88953 288.659576 
L 156.88953 288.304941 
L 159.019705 288.304941 
L 159.019705 287.595671 
L 161.579783 287.595671 
L 161.579783 286.8864 
L 162.05979 286.8864 
L 162.05979 285.822494 
L 162.634233 285.822494 
L 162.740015 282.630776 
L 163.157294 282.630776 
L 163.22595 280.148329 
L 163.632702 280.148329 
L 163.632702 279.439059 
L 163.766354 279.439059 
L 163.865975 276.956612 
L 163.932096 276.956612 
L 163.96507 276.247341 
L 164.063646 276.247341 
L 164.063646 275.538071 
L 164.580835 275.538071 
L 164.580835 272.346353 
L 164.70794 272.346353 
L 164.70794 270.927812 
L 164.959603 270.927812 
L 165.053116 268.8 
L 165.1152 268.8 
L 165.1152 267.736094 
L 165.664928 267.736094 
L 165.664928 266.672188 
L 165.993131 266.672188 
L 166.022686 265.608282 
L 166.111072 265.608282 
L 166.169767 262.7712 
L 166.286609 262.7712 
L 166.373767 259.579482 
L 166.431649 259.579482 
L 166.489353 256.7424 
L 166.632844 256.7424 
L 166.632844 255.678494 
L 166.746854 255.678494 
L 166.746854 254.969224 
L 167.16834 254.969224 
L 167.16834 252.132141 
L 167.607754 252.132141 
L 167.716022 250.358965 
L 167.823671 250.358965 
L 167.823671 250.004329 
L 168.611979 250.004329 
L 168.611979 249.649694 
L 170.308749 249.649694 
L 170.308749 247.876518 
L 171.360458 247.876518 
L 171.360458 247.521882 
L 171.756506 247.521882 
L 171.756506 247.167247 
L 172.208263 247.167247 
L 172.208263 245.039435 
L 172.377547 245.039435 
L 172.377547 242.202353 
L 172.62865 242.202353 
L 172.732295 241.138447 
L 172.794209 241.138447 
L 172.814802 240.074541 
L 172.978738 240.074541 
L 172.978738 239.719906 
L 175.007602 239.719906 
L 175.007602 239.365271 
L 175.988986 239.365271 
L 175.988986 239.010635 
L 176.282249 239.010635 
L 176.282249 238.656 
L 177.651866 238.656 
L 177.667774 237.946729 
L 178.734177 237.946729 
L 178.734177 236.173553 
L 179.311218 236.173553 
L 179.325784 235.109647 
L 181.009863 235.109647 
L 181.009863 234.045741 
L 182.46945 234.045741 
L 182.567747 230.499388 
L 183.60482 230.499388 
L 183.60482 230.144753 
L 186.089188 230.144753 
L 186.089188 229.790118 
L 186.708966 229.790118 
L 186.816825 228.726212 
L 187.069333 228.726212 
L 187.069333 228.016941 
L 187.37553 228.016941 
L 187.37553 227.662306 
L 187.676822 227.662306 
L 187.676822 227.307671 
L 187.881197 227.307671 
L 187.881197 226.243765 
L 188.835937 226.243765 
L 188.94103 224.825224 
L 190.018694 224.825224 
L 190.018694 220.5696 
L 193.713228 220.5696 
L 193.713228 220.214965 
L 197.028561 220.214965 
L 197.028561 218.441788 
L 202.162715 218.441788 
L 202.240396 217.023247 
L 202.653572 217.023247 
L 202.653572 216.668612 
L 205.349453 216.668612 
L 205.349453 215.604706 
L 205.671583 215.604706 
L 205.671583 215.250071 
L 205.835939 215.250071 
L 205.835939 213.831529 
L 205.98123 213.831529 
L 205.98123 213.476894 
L 212.412387 213.476894 
L 212.412387 213.122259 
L 216.741518 213.122259 
L 216.775357 212.058353 
L 217.702738 212.058353 
L 217.702738 211.703718 
L 220.107406 211.703718 
L 220.107406 211.349082 
L 224.263723 211.349082 
L 224.263723 210.994447 
L 231.386688 210.994447 
L 231.386688 209.930541 
L 232.217764 209.930541 
L 232.222139 207.448094 
L 232.437011 207.448094 
L 232.528476 202.4832 
L 233.016188 202.4832 
L 233.038821 201.064659 
L 238.618205 201.064659 
L 238.618205 200.710024 
L 239.260367 200.710024 
L 239.260367 200.355388 
L 239.765094 200.355388 
L 239.765094 199.646118 
L 240.375551 199.646118 
L 240.375551 198.936847 
L 240.967369 198.936847 
L 240.967369 198.582212 
L 241.356304 198.582212 
L 241.356304 198.227576 
L 243.227335 198.227576 
L 243.227335 197.872941 
L 244.615606 197.872941 
L 244.704133 197.163671 
L 244.796282 197.163671 
L 244.822719 196.099765 
L 245.246872 196.099765 
L 245.246872 195.745129 
L 245.50514 195.745129 
L 245.605916 195.035859 
L 245.657816 195.035859 
L 245.721103 192.908047 
L 245.95655 192.908047 
L 246.044875 189.716329 
L 246.290002 189.716329 
L 246.384611 185.460706 
L 246.534429 185.460706 
L 246.624565 181.914353 
L 246.661148 181.914353 
L 246.661148 181.205082 
L 246.777739 181.205082 
L 246.875553 174.467012 
L 246.892408 174.467012 
L 246.95488 169.502118 
L 247.005585 169.502118 
L 247.066888 167.019671 
L 247.139872 167.019671 
L 247.227947 165.246494 
L 247.434075 165.246494 
L 247.468341 162.764047 
L 247.602853 162.764047 
L 247.661857 161.700141 
L 247.781993 161.700141 
L 247.885773 157.444518 
L 248.13073 157.444518 
L 248.13073 157.089882 
L 248.250157 157.089882 
L 248.250157 156.735247 
L 248.578301 156.735247 
L 248.578301 155.316706 
L 248.79598 155.316706 
L 248.882785 154.607435 
L 248.926757 154.607435 
L 248.926757 154.2528 
L 249.081642 154.2528 
L 249.151851 153.188894 
L 249.198038 153.188894 
L 249.198038 152.834259 
L 249.459165 152.834259 
L 249.518216 151.061082 
L 249.642351 151.061082 
L 249.648241 150.351812 
L 249.762572 150.351812 
L 249.827545 149.642541 
L 249.96602 149.642541 
L 250.043191 145.386918 
L 250.476161 145.386918 
L 250.571405 143.259106 
L 250.772537 143.259106 
L 250.772537 142.904471 
L 250.923363 142.904471 
L 250.933396 139.358118 
L 251.149918 139.358118 
L 251.149918 135.811765 
L 251.375989 135.811765 
L 251.375989 135.457129 
L 251.541819 135.457129 
L 251.628088 134.747859 
L 252.018196 134.747859 
L 252.018196 134.393224 
L 252.351228 134.393224 
L 252.446714 130.492235 
L 252.46462 130.492235 
L 252.46462 129.428329 
L 252.582669 129.428329 
L 252.636837 126.236612 
L 252.754695 126.236612 
L 252.865688 123.754165 
L 252.915844 123.754165 
L 253.025315 121.980988 
L 253.027052 121.980988 
L 253.099 120.207812 
L 253.157453 120.207812 
L 253.257811 115.597553 
L 253.28296 115.597553 
L 253.28296 115.242918 
L 253.402811 115.242918 
L 253.499331 113.824376 
L 253.532615 113.824376 
L 253.638565 111.341929 
L 253.771489 111.341929 
L 253.813183 108.504847 
L 254.172892 108.504847 
L 254.272326 103.894588 
L 254.373661 103.894588 
L 254.467752 98.220424 
L 254.498029 98.220424 
L 254.520772 96.801882 
L 254.709147 96.801882 
L 254.723702 95.028706 
L 254.928654 95.028706 
L 254.980132 93.610165 
L 255.343499 93.610165 
L 255.343499 93.255529 
L 255.535763 93.255529 
L 255.57297 91.836988 
L 255.669063 91.836988 
L 255.773926 87.226729 
L 255.808667 87.226729 
L 255.91524 85.098918 
L 256.207685 85.098918 
L 256.301327 84.389647 
L 256.5411 84.389647 
L 256.644809 83.680376 
L 256.682748 83.680376 
L 256.750799 79.070118 
L 256.820261 79.070118 
L 256.820261 78.715482 
L 256.940089 78.715482 
L 256.940089 76.942306 
L 257.164706 76.942306 
L 257.164706 76.587671 
L 257.309131 76.587671 
L 257.344374 75.523765 
L 257.784269 75.523765 
L 257.784269 75.169129 
L 257.913764 75.169129 
L 257.913764 74.814494 
L 258.089327 74.814494 
L 258.189264 71.268141 
L 258.26261 71.268141 
L 258.26261 70.913506 
L 258.431269 70.913506 
L 258.431269 70.558871 
L 258.741912 70.558871 
L 258.741912 70.204235 
L 259.016582 70.204235 
L 259.073347 69.494965 
L 259.148141 69.494965 
L 259.211389 68.431059 
L 259.283977 68.431059 
L 259.319648 67.721788 
L 259.69423 67.721788 
L 259.738253 66.657882 
L 259.863871 66.657882 
L 259.863871 66.303247 
L 260.022418 66.303247 
L 260.116393 64.175435 
L 260.210295 64.175435 
L 260.22432 63.466165 
L 260.443411 63.466165 
L 260.443411 63.111529 
L 260.603942 63.111529 
L 260.707577 62.402259 
L 260.727389 62.402259 
L 260.728543 61.692988 
L 261.029104 61.692988 
L 261.098788 60.274447 
L 261.170468 60.274447 
L 261.170468 59.919812 
L 261.331083 59.919812 
L 261.383328 59.210541 
L 261.450974 59.210541 
L 261.530725 54.954918 
L 261.583521 54.954918 
L 261.673869 53.536376 
L 261.933863 53.536376 
L 261.938911 52.827106 
L 262.136163 52.827106 
L 262.136163 52.472471 
L 262.588414 52.472471 
L 262.623558 51.7632 
L 263.013199 51.7632 
L 263.013199 51.408565 
L 263.259978 51.408565 
L 263.261994 50.344659 
L 264.745841 50.344659 
L 264.745841 49.990024 
L 265.775502 49.990024 
L 265.775502 49.635388 
L 266.681522 49.635388 
L 266.756183 48.926118 
L 267.772398 48.926118 
L 267.772398 48.571482 
L 268.053981 48.571482 
L 268.053981 47.862212 
L 268.395851 47.862212 
L 268.463893 47.152941 
L 268.545906 47.152941 
L 268.569617 46.443671 
L 268.66517 46.443671 
L 268.745935 40.414871 
L 268.997817 40.414871 
L 268.997817 40.060235 
L 269.206601 40.060235 
L 269.206601 39.350965 
L 269.320179 39.350965 
L 269.320179 38.996329 
L 269.499403 38.996329 
L 269.599479 37.577788 
L 269.625493 37.577788 
L 269.634116 36.159247 
L 269.752171 36.159247 
L 269.810032 35.449976 
L 270.023065 35.449976 
L 270.027405 34.740706 
L 270.214449 34.740706 
L 270.294854 33.322165 
L 270.387691 33.322165 
L 270.437323 30.130447 
L 270.521581 30.130447 
L 270.58191 28.711906 
L 278.882398 28.711906 
L 278.974161 28.002635 
L 281.170681 28.002635 
L 281.170681 27.648 
L 360.8064 27.648 
L 360.8064 27.648 
" style="fill: none; stroke: #000080; stroke-width: 1.5; stroke-linecap: square"/>
   </g>
   <g id="line2d_36">
    <defs>
     <path id="m05590e4a65" d="M 0 6 
C 1.591219 6 3.117479 5.367802 4.242641 4.242641 
C 5.367802 3.117479 6 1.591219 6 0 
C 6 -1.591219 5.367802 -3.117479 4.242641 -4.242641 
C 3.117479 -5.367802 1.591219 -6 0 -6 
C -1.591219 -6 -3.117479 -5.367802 -4.242641 -4.242641 
C -5.367802 -3.117479 -6 -1.591219 -6 0 
C -6 1.591219 -5.367802 3.117479 -4.242641 4.242641 
C -3.117479 5.367802 -1.591219 6 0 6 
z
" style="stroke: #000080; stroke-width: 1.5"/>
    </defs>
    <g>
     <use xlink:href="#m05590e4a65" x="163.932096" y="276.956612" style="fill-opacity: 0; stroke: #000080; stroke-width: 1.5"/>
     <use xlink:href="#m05590e4a65" x="233.038821" y="202.128565" style="fill-opacity: 0; stroke: #000080; stroke-width: 1.5"/>
     <use xlink:href="#m05590e4a65" x="268.66517" y="46.443671" style="fill-opacity: 0; stroke: #000080; stroke-width: 1.5"/>
     <use xlink:href="#m05590e4a65" x="281.170681" y="27.648" style="fill-opacity: 0; stroke: #000080; stroke-width: 1.5"/>
     <use xlink:href="#m05590e4a65" x="360.8064" y="27.648" style="fill-opacity: 0; stroke: #000080; stroke-width: 1.5"/>
    </g>
   </g>
   <g id="line2d_37">
    <path style="fill: none; stroke: #000080; stroke-width: 1.5; stroke-linecap: square"/>
    <g/>
   </g>
   <g id="line2d_38">
    <path d="M 274.176 28.711906 
" clip-path="url(#p5f90bc07ab)" style="fill: none; stroke: #000080; stroke-width: 1.5; stroke-linecap: square"/>
    <defs>
     <path id="m35134b582f" d="M -12 12 
L 12 -12 
M -12 -12 
L 12 12 
" style="stroke: #000080"/>
    </defs>
    <g clip-path="url(#p5f90bc07ab)">
     <use xlink:href="#m35134b582f" x="274.176" y="28.711906" style="fill: #000080; stroke: #000080"/>
    </g>
   </g>
   <g id="line2d_39">
    <defs>
     <path id="m6893cb8692" d="M 0 1.5 
C 0.397805 1.5 0.77937 1.341951 1.06066 1.06066 
C 1.341951 0.77937 1.5 0.397805 1.5 0 
C 1.5 -0.397805 1.341951 -0.77937 1.06066 -1.06066 
C 0.77937 -1.341951 0.397805 -1.5 0 -1.5 
C -0.397805 -1.5 -0.77937 -1.341951 -1.06066 -1.06066 
C -1.341951 -0.77937 -1.5 -0.397805 -1.5 0 
C -1.5 0.397805 -1.341951 0.77937 -1.06066 1.06066 
C -0.77937 1.341951 -0.397805 1.5 0 1.5 
z
" style="stroke: #ff00ff"/>
    </defs>
    <g>
     <use xlink:href="#m6893cb8692" x="329.934763" y="27.648" style="fill: #ff00ff; stroke: #ff00ff"/>
     <use xlink:href="#m6893cb8692" x="329.934763" y="27.648" style="fill: #ff00ff; stroke: #ff00ff"/>
    </g>
   </g>
   <g id="line2d_40">
    <path d="M 81.166416 298.944 
L 81.166416 298.234729 
L 138.692823 298.234729 
L 138.692823 297.170824 
L 141.173167 297.170824 
L 141.173167 296.106918 
L 144.041338 296.106918 
L 144.041338 295.043012 
L 144.417581 295.043012 
L 144.417581 293.979106 
L 146.023332 293.979106 
L 146.023332 292.205929 
L 154.703817 292.205929 
L 154.703817 290.787388 
L 160.541906 290.787388 
L 160.541906 290.078118 
L 161.617145 290.078118 
L 161.617145 289.368847 
L 162.527853 289.368847 
L 162.527853 287.595671 
L 163.498092 287.595671 
L 163.498092 286.177129 
L 163.699647 286.177129 
L 163.699647 285.467859 
L 164.129077 285.467859 
L 164.129077 285.113224 
L 165.392072 285.113224 
L 165.392072 284.403953 
L 165.933882 284.403953 
L 165.933882 283.694682 
L 166.83191 283.694682 
L 166.83191 282.276141 
L 168.169334 282.276141 
L 168.169334 279.084424 
L 169.319074 279.084424 
L 169.343842 276.956612 
L 171.778266 276.956612 
L 171.778266 276.247341 
L 174.823534 276.247341 
L 174.823534 275.183435 
L 175.388379 275.183435 
L 175.388379 274.8288 
L 176.144812 274.8288 
L 176.144812 273.764894 
L 178.492224 273.764894 
L 178.492224 273.055624 
L 181.894052 273.055624 
L 181.894052 272.700988 
L 184.265742 272.700988 
L 184.265742 271.637082 
L 185.437775 271.637082 
L 185.437775 271.282447 
L 190.706949 271.282447 
L 190.706949 269.863906 
L 191.878235 269.863906 
L 191.878235 269.154635 
L 194.786584 269.154635 
L 194.786584 268.8 
L 195.116509 268.8 
L 195.122797 265.253647 
L 196.150471 265.253647 
L 196.150471 264.189741 
L 196.469219 264.189741 
L 196.469219 263.125835 
L 197.986649 263.125835 
L 197.986649 262.416565 
L 199.087667 262.416565 
L 199.087667 261.707294 
L 201.281835 261.707294 
L 201.281835 261.352659 
L 201.524975 261.352659 
L 201.524975 258.160941 
L 201.936487 258.160941 
L 201.936487 257.806306 
L 202.433205 257.806306 
L 202.433205 256.387765 
L 204.038026 256.387765 
L 204.038026 255.323859 
L 205.140209 255.323859 
L 205.140209 251.422871 
L 206.261534 251.422871 
L 206.261534 251.068235 
L 208.045296 251.068235 
L 208.045296 250.004329 
L 209.674469 250.004329 
L 209.674469 249.649694 
L 210.240229 249.649694 
L 210.335691 246.457976 
L 210.726487 246.457976 
L 210.792204 244.6848 
L 211.458169 244.6848 
L 211.458169 244.330165 
L 212.124295 244.330165 
L 212.198001 243.266259 
L 212.369705 243.266259 
L 212.369705 242.202353 
L 212.51493 242.202353 
L 212.562261 241.138447 
L 212.760253 241.138447 
L 212.831514 238.656 
L 213.482331 238.656 
L 213.583932 235.464282 
L 213.964165 235.464282 
L 213.964165 234.400376 
L 214.615525 234.400376 
L 214.615525 234.045741 
L 215.099989 234.045741 
L 215.099989 232.981835 
L 216.379436 232.981835 
L 216.379436 232.6272 
L 216.523091 232.6272 
L 216.523091 232.272565 
L 216.699632 232.272565 
L 216.699632 231.917929 
L 216.848797 231.917929 
L 216.933787 230.499388 
L 217.810335 230.499388 
L 217.889226 228.726212 
L 218.363056 228.726212 
L 218.394103 226.243765 
L 218.597375 226.243765 
L 218.597375 225.889129 
L 219.966946 225.889129 
L 220.007185 224.115953 
L 220.445857 224.115953 
L 220.52749 223.052047 
L 221.138168 223.052047 
L 221.186994 222.342776 
L 221.460275 222.342776 
L 221.50982 220.5696 
L 221.614672 220.5696 
L 221.614672 218.087153 
L 221.942394 218.087153 
L 221.942394 217.377882 
L 222.257076 217.377882 
L 222.257076 215.604706 
L 223.40984 215.604706 
L 223.493516 209.575906 
L 223.850503 209.575906 
L 223.850503 208.157365 
L 224.679822 208.157365 
L 224.679822 207.448094 
L 225.263791 207.448094 
L 225.263791 204.256376 
L 225.72666 204.256376 
L 225.72666 202.128565 
L 225.931904 202.128565 
L 225.931904 200.710024 
L 226.606604 200.710024 
L 226.679576 197.872941 
L 226.727677 197.872941 
L 226.814183 195.745129 
L 227.698148 195.745129 
L 227.698148 195.035859 
L 228.360688 195.035859 
L 228.360688 194.681224 
L 228.903871 194.681224 
L 228.903871 194.326588 
L 229.664781 194.326588 
L 229.664781 192.553412 
L 231.130682 192.553412 
L 231.130682 191.844141 
L 231.632938 191.844141 
L 231.707718 190.070965 
L 232.604073 190.070965 
L 232.604073 189.361694 
L 233.091525 189.361694 
L 233.091525 187.588518 
L 233.42111 187.588518 
L 233.453917 186.879247 
L 233.919303 186.879247 
L 233.95285 185.460706 
L 234.223022 185.460706 
L 234.223022 185.106071 
L 234.90131 185.106071 
L 234.90131 184.751435 
L 235.096813 184.751435 
L 235.153049 183.332894 
L 235.30962 183.332894 
L 235.394073 181.914353 
L 235.783975 181.914353 
L 235.783975 181.559718 
L 237.041299 181.559718 
L 237.041299 181.205082 
L 237.477723 181.205082 
L 237.477723 180.141176 
L 237.61616 180.141176 
L 237.61616 177.304094 
L 238.291564 177.304094 
L 238.321954 175.885553 
L 238.421014 175.885553 
L 238.50703 173.403106 
L 238.712003 173.403106 
L 238.781892 172.693835 
L 238.919671 172.693835 
L 238.919671 172.3392 
L 239.28202 172.3392 
L 239.28202 171.984565 
L 239.529261 171.984565 
L 239.529261 171.629929 
L 239.717576 171.629929 
L 239.717576 170.211388 
L 240.603873 170.211388 
L 240.653679 169.502118 
L 241.243445 169.502118 
L 241.311026 168.438212 
L 241.437424 168.438212 
L 241.522466 167.728941 
L 241.89602 167.728941 
L 241.984226 164.537224 
L 242.226865 164.537224 
L 242.226865 163.827953 
L 242.475041 163.827953 
L 242.475041 162.764047 
L 243.541513 162.764047 
L 243.541513 161.700141 
L 243.836378 161.700141 
L 243.899034 160.636235 
L 244.028394 160.636235 
L 244.028394 159.926965 
L 245.033777 159.926965 
L 245.033777 159.572329 
L 245.383839 159.572329 
L 245.383839 158.508424 
L 245.692052 158.508424 
L 245.692052 157.799153 
L 245.858487 157.799153 
L 245.858487 156.735247 
L 246.16492 156.735247 
L 246.16492 156.025976 
L 246.440162 156.025976 
L 246.440162 154.607435 
L 246.766839 154.607435 
L 246.766839 153.898165 
L 247.566896 153.898165 
L 247.671481 152.124988 
L 248.089372 152.124988 
L 248.173497 149.642541 
L 248.505178 149.642541 
L 248.505178 148.933271 
L 248.701852 148.933271 
L 248.795618 143.259106 
L 249.474907 143.259106 
L 249.545408 140.422024 
L 250.659275 140.422024 
L 250.659275 138.294212 
L 250.833468 138.294212 
L 250.833468 137.939576 
L 251.867618 137.939576 
L 251.867618 137.584941 
L 252.334715 137.584941 
L 252.334715 135.811765 
L 252.477144 135.811765 
L 252.477144 134.038588 
L 253.079667 134.038588 
L 253.079667 133.683953 
L 253.577653 133.683953 
L 253.577653 132.974682 
L 253.887171 132.974682 
L 253.948468 130.846871 
L 254.261484 130.846871 
L 254.261484 130.492235 
L 256.158237 130.492235 
L 256.158237 129.428329 
L 256.629516 129.428329 
L 256.629516 128.719059 
L 257.168655 128.719059 
L 257.168655 128.364424 
L 258.752165 128.364424 
L 258.752165 126.591247 
L 260.400423 126.591247 
L 260.400423 126.236612 
L 260.849459 126.236612 
L 260.849459 125.881976 
L 261.044422 125.881976 
L 261.044422 125.527341 
L 261.848925 125.527341 
L 261.848925 125.172706 
L 263.677095 125.172706 
L 263.677095 124.818071 
L 274.906837 124.818071 
L 274.994032 123.754165 
L 275.02022 123.754165 
L 275.02022 123.399529 
L 275.138734 123.399529 
L 275.138734 123.044894 
L 275.396476 123.044894 
L 275.439884 121.980988 
L 275.510109 121.980988 
L 275.510109 119.853176 
L 275.631854 119.853176 
L 275.732652 115.952188 
L 275.809644 115.952188 
L 275.809644 115.242918 
L 275.969616 115.242918 
L 275.969616 114.533647 
L 276.09922 114.533647 
L 276.09922 114.179012 
L 276.239067 114.179012 
L 276.324341 111.696565 
L 276.477767 111.696565 
L 276.532449 110.278024 
L 276.724732 110.278024 
L 276.795404 106.377035 
L 276.880887 106.377035 
L 276.935468 104.958494 
L 277.044641 104.958494 
L 277.070384 103.894588 
L 277.287352 103.894588 
L 277.398233 102.121412 
L 277.643728 102.121412 
L 277.724048 99.9936 
L 277.956972 99.9936 
L 278.011898 98.575059 
L 278.097614 98.575059 
L 278.148324 97.865788 
L 278.362311 97.865788 
L 278.465104 95.383341 
L 278.48187 95.383341 
L 278.548561 94.319435 
L 278.599261 94.319435 
L 278.607735 91.127718 
L 278.748998 91.127718 
L 278.748998 90.063812 
L 279.005111 90.063812 
L 279.043853 87.936 
L 279.38949 87.936 
L 279.38949 86.872094 
L 279.568996 86.872094 
L 279.568996 86.517459 
L 279.769735 86.517459 
L 279.864998 85.453553 
L 280.654259 85.453553 
L 280.654259 84.744282 
L 281.122436 84.744282 
L 281.122436 84.389647 
L 281.786114 84.389647 
L 281.786114 83.325741 
L 282.120413 83.325741 
L 282.120413 82.971106 
L 287.770126 82.971106 
L 287.770126 82.616471 
L 287.950218 82.616471 
L 287.950218 81.197929 
L 288.062632 81.197929 
L 288.105428 79.779388 
L 288.188807 79.779388 
L 288.188807 79.424753 
L 288.330017 79.424753 
L 288.355529 78.360847 
L 288.47985 78.360847 
L 288.586966 77.651576 
L 288.624616 77.651576 
L 288.685126 75.8784 
L 288.739979 75.8784 
L 288.77174 74.814494 
L 288.904014 74.814494 
L 288.968561 72.686682 
L 289.081713 72.686682 
L 289.125483 71.622776 
L 289.299512 71.622776 
L 289.299512 70.913506 
L 289.476325 70.913506 
L 289.579713 68.785694 
L 289.601971 68.785694 
L 289.691484 64.530071 
L 289.835069 64.530071 
L 289.835069 64.175435 
L 290.052174 64.175435 
L 290.154223 62.047624 
L 290.224408 62.047624 
L 290.323417 59.919812 
L 290.614607 59.919812 
L 290.614607 59.565176 
L 291.05483 59.565176 
L 291.05483 59.210541 
L 291.449085 59.210541 
L 291.449085 58.501271 
L 291.649808 58.501271 
L 291.649808 58.146635 
L 295.373642 58.146635 
L 295.373642 57.437365 
L 295.647753 57.437365 
L 295.732213 56.728094 
L 295.82454 56.728094 
L 295.931217 54.245647 
L 296.052175 54.245647 
L 296.161752 53.536376 
L 296.261394 53.536376 
L 296.282171 52.472471 
L 296.423426 52.472471 
L 296.50672 49.990024 
L 296.564659 49.990024 
L 296.664414 48.216847 
L 296.815688 48.216847 
L 296.815688 47.507576 
L 297.263778 47.507576 
L 297.263778 47.152941 
L 297.521132 47.152941 
L 297.521132 46.443671 
L 300.88963 46.443671 
L 300.88963 46.089035 
L 301.051928 46.089035 
L 301.088067 45.379765 
L 301.196495 45.379765 
L 301.282874 43.961224 
L 301.355867 43.961224 
L 301.355867 43.251953 
L 301.473613 43.251953 
L 301.540119 42.188047 
L 301.664052 42.188047 
L 301.664052 41.833412 
L 301.872659 41.833412 
L 301.872659 41.478776 
L 302.12523 41.478776 
L 302.12523 40.769506 
L 302.324284 40.769506 
L 302.324284 40.060235 
L 304.864191 40.060235 
L 304.974108 39.350965 
L 305.09628 39.350965 
L 305.09628 38.996329 
L 305.380394 38.996329 
L 305.480204 38.287059 
L 305.5122 38.287059 
L 305.610059 36.868518 
L 305.802705 36.868518 
L 305.802705 36.513882 
L 305.984834 36.513882 
L 305.984834 36.159247 
L 306.342354 36.159247 
L 306.342354 35.804612 
L 308.345641 35.804612 
L 308.345641 35.449976 
L 308.465184 35.449976 
L 308.539384 34.740706 
L 308.688159 34.740706 
L 308.787887 34.031435 
L 308.870141 34.031435 
L 308.926592 33.322165 
L 309.012613 33.322165 
L 309.012613 32.967529 
L 309.219216 32.967529 
L 309.219216 32.612894 
L 311.578345 32.612894 
L 311.647818 31.903624 
L 311.787273 31.903624 
L 311.787273 31.548988 
L 313.780338 31.548988 
L 313.811315 30.839718 
L 315.997015 30.839718 
L 315.997015 30.485082 
L 316.518906 30.485082 
L 316.518906 30.130447 
L 317.873315 30.130447 
L 317.873315 29.775812 
L 318.024568 29.775812 
L 318.056459 29.066541 
L 319.736163 29.066541 
L 319.736163 28.711906 
L 321.711242 28.711906 
L 321.711242 28.357271 
L 322.851636 28.357271 
L 322.851636 28.002635 
L 329.934763 28.002635 
L 329.934763 27.648 
L 360.8064 27.648 
L 360.8064 27.648 
" style="fill: none; stroke: #ff00ff; stroke-width: 1.5; stroke-linecap: square"/>
   </g>
   <g id="line2d_41">
    <defs>
     <path id="mc8228d58f0" d="M 0 8.485281 
L 5.091169 0 
L 0 -8.485281 
L -5.091169 0 
z
" style="stroke: #ff00ff; stroke-width: 1.5; stroke-linejoin: miter"/>
    </defs>
    <g>
     <use xlink:href="#mc8228d58f0" x="205.140209" y="255.323859" style="fill-opacity: 0; stroke: #ff00ff; stroke-width: 1.5; stroke-linejoin: miter"/>
     <use xlink:href="#mc8228d58f0" x="263.677095" y="125.172706" style="fill-opacity: 0; stroke: #ff00ff; stroke-width: 1.5; stroke-linejoin: miter"/>
     <use xlink:href="#mc8228d58f0" x="329.934763" y="27.648" style="fill-opacity: 0; stroke: #ff00ff; stroke-width: 1.5; stroke-linejoin: miter"/>
     <use xlink:href="#mc8228d58f0" x="329.934763" y="27.648" style="fill-opacity: 0; stroke: #ff00ff; stroke-width: 1.5; stroke-linejoin: miter"/>
     <use xlink:href="#mc8228d58f0" x="360.8064" y="27.648" style="fill-opacity: 0; stroke: #ff00ff; stroke-width: 1.5; stroke-linejoin: miter"/>
    </g>
   </g>
   <g id="line2d_42">
    <path style="fill: none; stroke: #ff00ff; stroke-width: 1.5; stroke-linecap: square"/>
    <g/>
   </g>
   <g id="line2d_43">
    <path d="M 274.292272 124.818071 
" clip-path="url(#p5f90bc07ab)" style="fill: none; stroke: #ff00ff; stroke-width: 1.5; stroke-linecap: square"/>
    <defs>
     <path id="m22dedeb357" d="M -12 12 
L 12 -12 
M -12 -12 
L 12 12 
" style="stroke: #ff00ff"/>
    </defs>
    <g clip-path="url(#p5f90bc07ab)">
     <use xlink:href="#m22dedeb357" x="274.292272" y="124.818071" style="fill: #ff00ff; stroke: #ff00ff"/>
    </g>
   </g>
   <g id="line2d_44">
    <path d="M 360.8064 27.648 
L 380.514816 293.51808 
" style="fill: none; stroke: #ff00ff; stroke-width: 1.5; stroke-linecap: square"/>
    <g>
     <use xlink:href="#mc8228d58f0" x="360.8064" y="27.648" style="fill-opacity: 0; stroke: #ff00ff; stroke-width: 1.5; stroke-linejoin: miter"/>
     <use xlink:href="#mc8228d58f0" x="380.514816" y="293.51808" style="fill-opacity: 0; stroke: #ff00ff; stroke-width: 1.5; stroke-linejoin: miter"/>
    </g>
   </g>
   <g id="line2d_45">
    <path d="M 360.8064 27.648 
L 380.514816 163.296 
" style="fill: none; stroke: #000080; stroke-width: 1.5; stroke-linecap: square"/>
    <g>
     <use xlink:href="#m05590e4a65" x="360.8064" y="27.648" style="fill-opacity: 0; stroke: #000080; stroke-width: 1.5"/>
     <use xlink:href="#m05590e4a65" x="380.514816" y="163.296" style="fill-opacity: 0; stroke: #000080; stroke-width: 1.5"/>
    </g>
   </g>
   <g id="line2d_46">
    <path d="M 360.8064 298.944 
L 360.8064 27.648 
" style="fill: none; stroke: #000000; stroke-width: 1.5; stroke-linecap: square"/>
   </g>
   <g id="patch_3">
    <path d="M 57.6 298.944 
L 360.8064 298.944 
" style="fill: none; stroke: #000000; stroke-width: 0.8; stroke-linejoin: miter; stroke-linecap: square"/>
   </g>
   <g id="patch_4">
    <path d="M 57.6 27.648 
L 360.8064 27.648 
" style="fill: none; stroke: #000000; stroke-width: 0.8; stroke-linejoin: miter; stroke-linecap: square"/>
   </g>
   <g id="text_13">
    <!-- GA -->
    <g transform="translate(386.578944 297.381205)scale(0.14 -0.14)">
     <defs>
      <path id="DejaVuSans-47" d="M 3809 666 
L 3809 1919 
L 2778 1919 
L 2778 2438 
L 4434 2438 
L 4434 434 
Q 4069 175 3628 42 
Q 3188 -91 2688 -91 
Q 1594 -91 976 548 
Q 359 1188 359 2328 
Q 359 3472 976 4111 
Q 1594 4750 2688 4750 
Q 3144 4750 3555 4637 
Q 3966 4525 4313 4306 
L 4313 3634 
Q 3963 3931 3569 4081 
Q 3175 4231 2741 4231 
Q 1884 4231 1454 3753 
Q 1025 3275 1025 2328 
Q 1025 1384 1454 906 
Q 1884 428 2741 428 
Q 3075 428 3337 486 
Q 3600 544 3809 666 
z
" transform="scale(0.015625)"/>
      <path id="DejaVuSans-41" d="M 2188 4044 
L 1331 1722 
L 3047 1722 
L 2188 4044 
z
M 1831 4666 
L 2547 4666 
L 4325 0 
L 3669 0 
L 3244 1197 
L 1141 1197 
L 716 0 
L 50 0 
L 1831 4666 
z
" transform="scale(0.015625)"/>
     </defs>
     <use xlink:href="#DejaVuSans-47"/>
     <use xlink:href="#DejaVuSans-41" x="77.490234"/>
    </g>
   </g>
   <g id="text_14">
    <!-- LCGA -->
    <g transform="translate(386.578944 167.159125)scale(0.14 -0.14)">
     <defs>
      <path id="DejaVuSans-4c" d="M 628 4666 
L 1259 4666 
L 1259 531 
L 3531 531 
L 3531 0 
L 628 0 
L 628 4666 
z
" transform="scale(0.015625)"/>
      <path id="DejaVuSans-43" d="M 4122 4306 
L 4122 3641 
Q 3803 3938 3442 4084 
Q 3081 4231 2675 4231 
Q 1875 4231 1450 3742 
Q 1025 3253 1025 2328 
Q 1025 1406 1450 917 
Q 1875 428 2675 428 
Q 3081 428 3442 575 
Q 3803 722 4122 1019 
L 4122 359 
Q 3791 134 3420 21 
Q 3050 -91 2638 -91 
Q 1578 -91 968 557 
Q 359 1206 359 2328 
Q 359 3453 968 4101 
Q 1578 4750 2638 4750 
Q 3056 4750 3426 4639 
Q 3797 4528 4122 4306 
z
" transform="scale(0.015625)"/>
     </defs>
     <use xlink:href="#DejaVuSans-4c"/>
     <use xlink:href="#DejaVuSans-43" x="55.712891"/>
     <use xlink:href="#DejaVuSans-47" x="125.537109"/>
     <use xlink:href="#DejaVuSans-41" x="203.027344"/>
    </g>
   </g>
   <g id="text_15">
    <!-- best 2009 -->
    <g transform="translate(386.578944 36.937045)scale(0.14 -0.14)">
     <defs>
      <path id="DejaVuSans-62" d="M 3116 1747 
Q 3116 2381 2855 2742 
Q 2594 3103 2138 3103 
Q 1681 3103 1420 2742 
Q 1159 2381 1159 1747 
Q 1159 1113 1420 752 
Q 1681 391 2138 391 
Q 2594 391 2855 752 
Q 3116 1113 3116 1747 
z
M 1159 2969 
Q 1341 3281 1617 3432 
Q 1894 3584 2278 3584 
Q 2916 3584 3314 3078 
Q 3713 2572 3713 1747 
Q 3713 922 3314 415 
Q 2916 -91 2278 -91 
Q 1894 -91 1617 61 
Q 1341 213 1159 525 
L 1159 0 
L 581 0 
L 581 4863 
L 1159 4863 
L 1159 2969 
z
" transform="scale(0.015625)"/>
      <path id="DejaVuSans-39" d="M 703 97 
L 703 672 
Q 941 559 1184 500 
Q 1428 441 1663 441 
Q 2288 441 2617 861 
Q 2947 1281 2994 2138 
Q 2813 1869 2534 1725 
Q 2256 1581 1919 1581 
Q 1219 1581 811 2004 
Q 403 2428 403 3163 
Q 403 3881 828 4315 
Q 1253 4750 1959 4750 
Q 2769 4750 3195 4129 
Q 3622 3509 3622 2328 
Q 3622 1225 3098 567 
Q 2575 -91 1691 -91 
Q 1453 -91 1209 -44 
Q 966 3 703 97 
z
M 1959 2075 
Q 2384 2075 2632 2365 
Q 2881 2656 2881 3163 
Q 2881 3666 2632 3958 
Q 2384 4250 1959 4250 
Q 1534 4250 1286 3958 
Q 1038 3666 1038 3163 
Q 1038 2656 1286 2365 
Q 1534 2075 1959 2075 
z
" transform="scale(0.015625)"/>
     </defs>
     <use xlink:href="#DejaVuSans-62"/>
     <use xlink:href="#DejaVuSans-65" x="63.476562"/>
     <use xlink:href="#DejaVuSans-73" x="125"/>
     <use xlink:href="#DejaVuSans-74" x="177.099609"/>
     <use xlink:href="#DejaVuSans-20" x="216.308594"/>
     <use xlink:href="#DejaVuSans-32" x="248.095703"/>
     <use xlink:href="#DejaVuSans-30" x="311.71875"/>
     <use xlink:href="#DejaVuSans-30" x="375.341797"/>
     <use xlink:href="#DejaVuSans-39" x="438.964844"/>
    </g>
   </g>
   <g id="text_16">
    <!-- bbob f12, 2-D -->
    <g transform="translate(60.632064 38.111366)scale(0.102 -0.102)">
     <defs>
      <path id="DejaVuSans-44" d="M 1259 4147 
L 1259 519 
L 2022 519 
Q 2988 519 3436 956 
Q 3884 1394 3884 2338 
Q 3884 3275 3436 3711 
Q 2988 4147 2022 4147 
L 1259 4147 
z
M 628 4666 
L 1925 4666 
Q 3281 4666 3915 4102 
Q 4550 3538 4550 2338 
Q 4550 1131 3912 565 
Q 3275 0 1925 0 
L 628 0 
L 628 4666 
z
" transform="scale(0.015625)"/>
     </defs>
     <use xlink:href="#DejaVuSans-62"/>
     <use xlink:href="#DejaVuSans-62" x="63.476562"/>
     <use xlink:href="#DejaVuSans-6f" x="126.953125"/>
     <use xlink:href="#DejaVuSans-62" x="188.134766"/>
     <use xlink:href="#DejaVuSans-20" x="251.611328"/>
     <use xlink:href="#DejaVuSans-66" x="283.398438"/>
     <use xlink:href="#DejaVuSans-31" x="318.603516"/>
     <use xlink:href="#DejaVuSans-32" x="382.226562"/>
     <use xlink:href="#DejaVuSans-2c" x="445.849609"/>
     <use xlink:href="#DejaVuSans-20" x="477.636719"/>
     <use xlink:href="#DejaVuSans-32" x="509.423828"/>
     <use xlink:href="#DejaVuSans-2d" x="573.046875"/>
     <use xlink:href="#DejaVuSans-44" x="609.130859"/>
    </g>
    <!-- 51 targets: 100..1e-08 -->
    <g transform="translate(60.632064 49.533135)scale(0.102 -0.102)">
     <defs>
      <path id="DejaVuSans-35" d="M 691 4666 
L 3169 4666 
L 3169 4134 
L 1269 4134 
L 1269 2991 
Q 1406 3038 1543 3061 
Q 1681 3084 1819 3084 
Q 2600 3084 3056 2656 
Q 3513 2228 3513 1497 
Q 3513 744 3044 326 
Q 2575 -91 1722 -91 
Q 1428 -91 1123 -41 
Q 819 9 494 109 
L 494 744 
Q 775 591 1075 516 
Q 1375 441 1709 441 
Q 2250 441 2565 725 
Q 2881 1009 2881 1497 
Q 2881 1984 2565 2268 
Q 2250 2553 1709 2553 
Q 1456 2553 1204 2497 
Q 953 2441 691 2322 
L 691 4666 
z
" transform="scale(0.015625)"/>
      <path id="DejaVuSans-3a" d="M 750 794 
L 1409 794 
L 1409 0 
L 750 0 
L 750 794 
z
M 750 3309 
L 1409 3309 
L 1409 2516 
L 750 2516 
L 750 3309 
z
" transform="scale(0.015625)"/>
     </defs>
     <use xlink:href="#DejaVuSans-35"/>
     <use xlink:href="#DejaVuSans-31" x="63.623047"/>
     <use xlink:href="#DejaVuSans-20" x="127.246094"/>
     <use xlink:href="#DejaVuSans-74" x="159.033203"/>
     <use xlink:href="#DejaVuSans-61" x="198.242188"/>
     <use xlink:href="#DejaVuSans-72" x="259.521484"/>
     <use xlink:href="#DejaVuSans-67" x="298.884766"/>
     <use xlink:href="#DejaVuSans-65" x="362.361328"/>
     <use xlink:href="#DejaVuSans-74" x="423.884766"/>
     <use xlink:href="#DejaVuSans-73" x="463.09375"/>
     <use xlink:href="#DejaVuSans-3a" x="515.193359"/>
     <use xlink:href="#DejaVuSans-20" x="548.884766"/>
     <use xlink:href="#DejaVuSans-31" x="580.671875"/>
     <use xlink:href="#DejaVuSans-30" x="644.294922"/>
     <use xlink:href="#DejaVuSans-30" x="707.917969"/>
     <use xlink:href="#DejaVuSans-2e" x="771.541016"/>
     <use xlink:href="#DejaVuSans-2e" x="803.328125"/>
     <use xlink:href="#DejaVuSans-31" x="835.115234"/>
     <use xlink:href="#DejaVuSans-65" x="898.738281"/>
     <use xlink:href="#DejaVuSans-2d" x="960.261719"/>
     <use xlink:href="#DejaVuSans-30" x="996.345703"/>
     <use xlink:href="#DejaVuSans-38" x="1059.96875"/>
    </g>
    <!-- 15 instances -->
    <g transform="translate(60.632064 60.954904)scale(0.102 -0.102)">
     <use xlink:href="#DejaVuSans-31"/>
     <use xlink:href="#DejaVuSans-35" x="63.623047"/>
     <use xlink:href="#DejaVuSans-20" x="127.246094"/>
     <use xlink:href="#DejaVuSans-69" x="159.033203"/>
     <use xlink:href="#DejaVuSans-6e" x="186.816406"/>
     <use xlink:href="#DejaVuSans-73" x="250.195312"/>
     <use xlink:href="#DejaVuSans-74" x="302.294922"/>
     <use xlink:href="#DejaVuSans-61" x="341.503906"/>
     <use xlink:href="#DejaVuSans-6e" x="402.783203"/>
     <use xlink:href="#DejaVuSans-63" x="466.162109"/>
     <use xlink:href="#DejaVuSans-65" x="521.142578"/>
     <use xlink:href="#DejaVuSans-73" x="582.666016"/>
    </g>
   </g>
   <g id="text_17">
    <!-- v2.6 -->
    <g style="fill: #808080" transform="translate(198.292262 294.151352)scale(0.1 -0.1)">
     <use xlink:href="#DejaVuSans-76"/>
     <use xlink:href="#DejaVuSans-32" x="59.179688"/>
     <use xlink:href="#DejaVuSans-2e" x="122.802734"/>
     <use xlink:href="#DejaVuSans-36" x="154.589844"/>
    </g>
   </g>
   <g id="text_18">
    <!-- 12 Bent cigar -->
    <g transform="translate(141.986012 21.648)scale(0.2 -0.2)">
     <defs>
      <path id="DejaVuSans-42" d="M 1259 2228 
L 1259 519 
L 2272 519 
Q 2781 519 3026 730 
Q 3272 941 3272 1375 
Q 3272 1813 3026 2020 
Q 2781 2228 2272 2228 
L 1259 2228 
z
M 1259 4147 
L 1259 2741 
L 2194 2741 
Q 2656 2741 2882 2914 
Q 3109 3088 3109 3444 
Q 3109 3797 2882 3972 
Q 2656 4147 2194 4147 
L 1259 4147 
z
M 628 4666 
L 2241 4666 
Q 2963 4666 3353 4366 
Q 3744 4066 3744 3513 
Q 3744 3084 3544 2831 
Q 3344 2578 2956 2516 
Q 3422 2416 3680 2098 
Q 3938 1781 3938 1306 
Q 3938 681 3513 340 
Q 3088 0 2303 0 
L 628 0 
L 628 4666 
z
" transform="scale(0.015625)"/>
     </defs>
     <use xlink:href="#DejaVuSans-31"/>
     <use xlink:href="#DejaVuSans-32" x="63.623047"/>
     <use xlink:href="#DejaVuSans-20" x="127.246094"/>
     <use xlink:href="#DejaVuSans-42" x="159.033203"/>
     <use xlink:href="#DejaVuSans-65" x="227.636719"/>
     <use xlink:href="#DejaVuSans-6e" x="289.160156"/>
     <use xlink:href="#DejaVuSans-74" x="352.539062"/>
     <use xlink:href="#DejaVuSans-20" x="391.748047"/>
     <use xlink:href="#DejaVuSans-63" x="423.535156"/>
     <use xlink:href="#DejaVuSans-69" x="478.515625"/>
     <use xlink:href="#DejaVuSans-67" x="506.298828"/>
     <use xlink:href="#DejaVuSans-61" x="569.775391"/>
     <use xlink:href="#DejaVuSans-72" x="631.054688"/>
    </g>
   </g>
  </g>
 </g>
 <defs>
  <clipPath id="p5f90bc07ab">
   <rect x="57.6" y="27.648" width="303.2064" height="271.296"/>
  </clipPath>
 </defs>
</svg>
