<?xml version="1.0" encoding="utf-8" standalone="no"?>
<!DOCTYPE svg PUBLIC "-//W3C//DTD SVG 1.1//EN"
  "http://www.w3.org/Graphics/SVG/1.1/DTD/svg11.dtd">
<svg xmlns:xlink="http://www.w3.org/1999/xlink" width="460.8pt" height="345.6pt" viewBox="0 0 460.8 345.6" xmlns="http://www.w3.org/2000/svg" version="1.1">
 <metadata>
  <rdf:RDF xmlns:dc="http://purl.org/dc/elements/1.1/" xmlns:cc="http://creativecommons.org/ns#" xmlns:rdf="http://www.w3.org/1999/02/22-rdf-syntax-ns#">
   <cc:Work>
    <dc:type rdf:resource="http://purl.org/dc/dcmitype/StillImage"/>
    <dc:date>2024-05-29T07:59:53.989961</dc:date>
    <dc:format>image/svg+xml</dc:format>
    <dc:creator>
     <cc:Agent>
      <dc:title>Matplotlib v3.5.1, https://matplotlib.org/</dc:title>
     </cc:Agent>
    </dc:creator>
   </cc:Work>
  </rdf:RDF>
 </metadata>
 <defs>
  <style type="text/css">*{stroke-linejoin: round; stroke-linecap: butt}</style>
 </defs>
 <g id="figure_1">
  <g id="patch_1">
   <path d="M 0 345.6 
L 460.8 345.6 
L 460.8 0 
L 0 0 
z
" style="fill: #ffffff"/>
  </g>
  <g id="axes_1">
   <g id="patch_2">
    <path d="M 57.6 298.944 
L 360.8064 298.944 
L 360.8064 27.648 
L 57.6 27.648 
z
" style="fill: #ffffff"/>
   </g>
   <g id="line2d_1">
    <path d="M -1 293.624471 
L 83.678349 293.624471 
L 83.678349 288.304941 
L 95.814395 288.304941 
L 95.814395 282.985412 
L 99.950294 282.985412 
L 99.950294 277.665882 
L 113.57433 277.665882 
L 113.57433 272.346353 
L 118.962067 272.346353 
L 118.962067 267.026824 
L 135.463998 267.026824 
L 135.463998 261.707294 
L 138.36167 261.707294 
L 138.36167 256.387765 
L 143.046405 256.387765 
L 143.046405 251.068235 
L 161.786209 251.068235 
L 161.786209 245.748706 
L 175.552798 245.748706 
L 175.552798 240.429176 
L 204.876274 240.429176 
L 204.876274 235.109647 
L 204.894048 235.109647 
L 204.894048 229.790118 
L 204.897788 229.790118 
L 204.897788 224.470588 
L 204.90134 224.470588 
L 204.90134 219.151059 
L 204.915354 219.151059 
L 204.915354 213.831529 
L 204.922264 213.831529 
L 204.922264 208.512 
L 204.933838 208.512 
L 204.933838 203.192471 
L 204.942793 203.192471 
L 204.942793 197.872941 
L 204.953794 197.872941 
L 204.953794 192.553412 
L 204.969818 192.553412 
L 204.969818 187.233882 
L 204.977081 187.233882 
L 204.977081 181.914353 
L 204.988434 181.914353 
L 204.988434 176.594824 
L 205.011678 176.594824 
L 205.011678 171.275294 
L 205.019296 171.275294 
L 205.019296 165.955765 
L 205.028211 165.955765 
L 205.028211 160.636235 
L 205.050478 160.636235 
L 205.050478 155.316706 
L 205.056968 155.316706 
L 205.056968 149.997176 
L 205.067162 149.997176 
L 205.067162 144.677647 
L 205.081794 144.677647 
L 205.081794 139.358118 
L 205.092714 139.358118 
L 205.092714 134.038588 
L 205.104553 134.038588 
L 205.104553 128.719059 
L 205.111394 128.719059 
L 205.111394 123.399529 
L 205.127654 123.399529 
L 205.127654 118.08 
L 205.13541 118.08 
L 205.13541 112.760471 
L 205.13984 112.760471 
L 205.13984 107.440941 
L 205.1546 107.440941 
L 205.1546 102.121412 
L 205.161423 102.121412 
L 205.161423 96.801882 
L 205.165479 96.801882 
L 205.165479 91.482353 
L 205.175245 91.482353 
L 205.175245 86.162824 
L 205.184639 86.162824 
L 205.184639 80.843294 
L 205.189978 80.843294 
L 205.189978 75.523765 
L 205.200468 75.523765 
L 205.200468 70.204235 
L 205.209481 70.204235 
L 205.209481 64.884706 
L 205.222165 64.884706 
L 205.222165 59.565176 
L 205.230249 59.565176 
L 205.230249 54.245647 
L 205.237779 54.245647 
L 205.237779 48.926118 
L 205.259066 48.926118 
L 205.259066 43.606588 
L 205.264751 43.606588 
L 205.264751 38.287059 
L 205.270434 38.287059 
L 205.270434 32.967529 
L 205.29498 32.967529 
L 205.29498 27.648 
L 360.8064 27.648 
" style="fill: none; stroke: #f5deb3; stroke-width: 4; stroke-linecap: square"/>
   </g>
   <g id="line2d_2">
    <defs>
     <path id="m254a3e2dec" d="M 0 7.778175 
L 7.778175 0 
L 0 -7.778175 
L -7.778175 0 
z
" style="stroke: #f5deb3; stroke-width: 1.5; stroke-linejoin: miter"/>
    </defs>
    <g>
     <use xlink:href="#m254a3e2dec" x="143.046405" y="256.387765" style="fill: #f5deb3; stroke: #f5deb3; stroke-width: 1.5; stroke-linejoin: miter"/>
     <use xlink:href="#m254a3e2dec" x="205.081794" y="144.677647" style="fill: #f5deb3; stroke: #f5deb3; stroke-width: 1.5; stroke-linejoin: miter"/>
     <use xlink:href="#m254a3e2dec" x="205.29498" y="32.967529" style="fill: #f5deb3; stroke: #f5deb3; stroke-width: 1.5; stroke-linejoin: miter"/>
     <use xlink:href="#m254a3e2dec" x="205.29498" y="27.648" style="fill: #f5deb3; stroke: #f5deb3; stroke-width: 1.5; stroke-linejoin: miter"/>
     <use xlink:href="#m254a3e2dec" x="360.8064" y="27.648" style="fill: #f5deb3; stroke: #f5deb3; stroke-width: 1.5; stroke-linejoin: miter"/>
    </g>
   </g>
   <g id="line2d_3">
    <path style="fill: none; stroke: #f5deb3; stroke-width: 4; stroke-linecap: square"/>
    <g/>
   </g>
   <g id="line2d_4">
    <path d="M 360.8064 27.648 
L 380.514816 33.07392 
" style="fill: none; stroke: #f5deb3; stroke-width: 4; stroke-linecap: square"/>
    <g>
     <use xlink:href="#m254a3e2dec" x="360.8064" y="27.648" style="fill: #f5deb3; stroke: #f5deb3; stroke-width: 1.5; stroke-linejoin: miter"/>
     <use xlink:href="#m254a3e2dec" x="380.514816" y="33.07392" style="fill: #f5deb3; stroke: #f5deb3; stroke-width: 1.5; stroke-linejoin: miter"/>
    </g>
   </g>
   <g id="matplotlib.axis_1">
    <g id="xtick_1">
     <g id="line2d_5">
      <path d="M 57.6 298.944 
L 57.6 27.648 
" clip-path="url(#pee3c9626d9)" style="fill: none; stroke: #b0b0b0; stroke-width: 0.8; stroke-linecap: square"/>
     </g>
     <g id="line2d_6">
      <defs>
       <path id="m41f05f4df1" d="M 0 0 
L 0 3.5 
" style="stroke: #000000; stroke-width: 0.8"/>
      </defs>
      <g>
       <use xlink:href="#m41f05f4df1" x="57.6" y="298.944" style="stroke: #000000; stroke-width: 0.8"/>
      </g>
     </g>
     <g id="text_1">
      <!-- 0 -->
      <g transform="translate(52.191875 318.861344)scale(0.17 -0.17)">
       <defs>
        <path id="DejaVuSans-30" d="M 2034 4250 
Q 1547 4250 1301 3770 
Q 1056 3291 1056 2328 
Q 1056 1369 1301 889 
Q 1547 409 2034 409 
Q 2525 409 2770 889 
Q 3016 1369 3016 2328 
Q 3016 3291 2770 3770 
Q 2525 4250 2034 4250 
z
M 2034 4750 
Q 2819 4750 3233 4129 
Q 3647 3509 3647 2328 
Q 3647 1150 3233 529 
Q 2819 -91 2034 -91 
Q 1250 -91 836 529 
Q 422 1150 422 2328 
Q 422 3509 836 4129 
Q 1250 4750 2034 4750 
z
" transform="scale(0.015625)"/>
       </defs>
       <use xlink:href="#DejaVuSans-30"/>
      </g>
     </g>
    </g>
    <g id="xtick_2">
     <g id="line2d_7">
      <path d="M 144.2304 298.944 
L 144.2304 27.648 
" clip-path="url(#pee3c9626d9)" style="fill: none; stroke: #b0b0b0; stroke-width: 0.8; stroke-linecap: square"/>
     </g>
     <g id="line2d_8">
      <g>
       <use xlink:href="#m41f05f4df1" x="144.2304" y="298.944" style="stroke: #000000; stroke-width: 0.8"/>
      </g>
     </g>
     <g id="text_2">
      <!-- 2 -->
      <g transform="translate(138.822275 318.861344)scale(0.17 -0.17)">
       <defs>
        <path id="DejaVuSans-32" d="M 1228 531 
L 3431 531 
L 3431 0 
L 469 0 
L 469 531 
Q 828 903 1448 1529 
Q 2069 2156 2228 2338 
Q 2531 2678 2651 2914 
Q 2772 3150 2772 3378 
Q 2772 3750 2511 3984 
Q 2250 4219 1831 4219 
Q 1534 4219 1204 4116 
Q 875 4013 500 3803 
L 500 4441 
Q 881 4594 1212 4672 
Q 1544 4750 1819 4750 
Q 2544 4750 2975 4387 
Q 3406 4025 3406 3419 
Q 3406 3131 3298 2873 
Q 3191 2616 2906 2266 
Q 2828 2175 2409 1742 
Q 1991 1309 1228 531 
z
" transform="scale(0.015625)"/>
       </defs>
       <use xlink:href="#DejaVuSans-32"/>
      </g>
     </g>
    </g>
    <g id="xtick_3">
     <g id="line2d_9">
      <path d="M 230.8608 298.944 
L 230.8608 27.648 
" clip-path="url(#pee3c9626d9)" style="fill: none; stroke: #b0b0b0; stroke-width: 0.8; stroke-linecap: square"/>
     </g>
     <g id="line2d_10">
      <g>
       <use xlink:href="#m41f05f4df1" x="230.8608" y="298.944" style="stroke: #000000; stroke-width: 0.8"/>
      </g>
     </g>
     <g id="text_3">
      <!-- 4 -->
      <g transform="translate(225.452675 318.861344)scale(0.17 -0.17)">
       <defs>
        <path id="DejaVuSans-34" d="M 2419 4116 
L 825 1625 
L 2419 1625 
L 2419 4116 
z
M 2253 4666 
L 3047 4666 
L 3047 1625 
L 3713 1625 
L 3713 1100 
L 3047 1100 
L 3047 0 
L 2419 0 
L 2419 1100 
L 313 1100 
L 313 1709 
L 2253 4666 
z
" transform="scale(0.015625)"/>
       </defs>
       <use xlink:href="#DejaVuSans-34"/>
      </g>
     </g>
    </g>
    <g id="xtick_4">
     <g id="line2d_11">
      <path d="M 317.4912 298.944 
L 317.4912 27.648 
" clip-path="url(#pee3c9626d9)" style="fill: none; stroke: #b0b0b0; stroke-width: 0.8; stroke-linecap: square"/>
     </g>
     <g id="line2d_12">
      <g>
       <use xlink:href="#m41f05f4df1" x="317.4912" y="298.944" style="stroke: #000000; stroke-width: 0.8"/>
      </g>
     </g>
     <g id="text_4">
      <!-- 6 -->
      <g transform="translate(312.083075 318.861344)scale(0.17 -0.17)">
       <defs>
        <path id="DejaVuSans-36" d="M 2113 2584 
Q 1688 2584 1439 2293 
Q 1191 2003 1191 1497 
Q 1191 994 1439 701 
Q 1688 409 2113 409 
Q 2538 409 2786 701 
Q 3034 994 3034 1497 
Q 3034 2003 2786 2293 
Q 2538 2584 2113 2584 
z
M 3366 4563 
L 3366 3988 
Q 3128 4100 2886 4159 
Q 2644 4219 2406 4219 
Q 1781 4219 1451 3797 
Q 1122 3375 1075 2522 
Q 1259 2794 1537 2939 
Q 1816 3084 2150 3084 
Q 2853 3084 3261 2657 
Q 3669 2231 3669 1497 
Q 3669 778 3244 343 
Q 2819 -91 2113 -91 
Q 1303 -91 875 529 
Q 447 1150 447 2328 
Q 447 3434 972 4092 
Q 1497 4750 2381 4750 
Q 2619 4750 2861 4703 
Q 3103 4656 3366 4563 
z
" transform="scale(0.015625)"/>
       </defs>
       <use xlink:href="#DejaVuSans-36"/>
      </g>
     </g>
    </g>
    <g id="xtick_5">
     <g id="line2d_13">
      <path d="M 100.9152 298.944 
L 100.9152 27.648 
" clip-path="url(#pee3c9626d9)" style="fill: none; stroke: #b0b0b0; stroke-width: 0.8; stroke-linecap: square"/>
     </g>
     <g id="line2d_14">
      <defs>
       <path id="meb17c7fe83" d="M 0 0 
L 0 2 
" style="stroke: #000000; stroke-width: 0.6"/>
      </defs>
      <g>
       <use xlink:href="#meb17c7fe83" x="100.9152" y="298.944" style="stroke: #000000; stroke-width: 0.6"/>
      </g>
     </g>
    </g>
    <g id="xtick_6">
     <g id="line2d_15">
      <path d="M 187.5456 298.944 
L 187.5456 27.648 
" clip-path="url(#pee3c9626d9)" style="fill: none; stroke: #b0b0b0; stroke-width: 0.8; stroke-linecap: square"/>
     </g>
     <g id="line2d_16">
      <g>
       <use xlink:href="#meb17c7fe83" x="187.5456" y="298.944" style="stroke: #000000; stroke-width: 0.6"/>
      </g>
     </g>
    </g>
    <g id="xtick_7">
     <g id="line2d_17">
      <path d="M 274.176 298.944 
L 274.176 27.648 
" clip-path="url(#pee3c9626d9)" style="fill: none; stroke: #b0b0b0; stroke-width: 0.8; stroke-linecap: square"/>
     </g>
     <g id="line2d_18">
      <g>
       <use xlink:href="#meb17c7fe83" x="274.176" y="298.944" style="stroke: #000000; stroke-width: 0.6"/>
      </g>
     </g>
    </g>
    <g id="xtick_8">
     <g id="line2d_19">
      <path d="M 360.8064 298.944 
L 360.8064 27.648 
" clip-path="url(#pee3c9626d9)" style="fill: none; stroke: #b0b0b0; stroke-width: 0.8; stroke-linecap: square"/>
     </g>
     <g id="line2d_20">
      <g>
       <use xlink:href="#meb17c7fe83" x="360.8064" y="298.944" style="stroke: #000000; stroke-width: 0.6"/>
      </g>
     </g>
    </g>
    <g id="text_5">
     <!-- log10(# f-evals / dimension) -->
     <g transform="translate(88.823278 339.314156)scale(0.17 -0.17)">
      <defs>
       <path id="DejaVuSans-6c" d="M 603 4863 
L 1178 4863 
L 1178 0 
L 603 0 
L 603 4863 
z
" transform="scale(0.015625)"/>
       <path id="DejaVuSans-6f" d="M 1959 3097 
Q 1497 3097 1228 2736 
Q 959 2375 959 1747 
Q 959 1119 1226 758 
Q 1494 397 1959 397 
Q 2419 397 2687 759 
Q 2956 1122 2956 1747 
Q 2956 2369 2687 2733 
Q 2419 3097 1959 3097 
z
M 1959 3584 
Q 2709 3584 3137 3096 
Q 3566 2609 3566 1747 
Q 3566 888 3137 398 
Q 2709 -91 1959 -91 
Q 1206 -91 779 398 
Q 353 888 353 1747 
Q 353 2609 779 3096 
Q 1206 3584 1959 3584 
z
" transform="scale(0.015625)"/>
       <path id="DejaVuSans-67" d="M 2906 1791 
Q 2906 2416 2648 2759 
Q 2391 3103 1925 3103 
Q 1463 3103 1205 2759 
Q 947 2416 947 1791 
Q 947 1169 1205 825 
Q 1463 481 1925 481 
Q 2391 481 2648 825 
Q 2906 1169 2906 1791 
z
M 3481 434 
Q 3481 -459 3084 -895 
Q 2688 -1331 1869 -1331 
Q 1566 -1331 1297 -1286 
Q 1028 -1241 775 -1147 
L 775 -588 
Q 1028 -725 1275 -790 
Q 1522 -856 1778 -856 
Q 2344 -856 2625 -561 
Q 2906 -266 2906 331 
L 2906 616 
Q 2728 306 2450 153 
Q 2172 0 1784 0 
Q 1141 0 747 490 
Q 353 981 353 1791 
Q 353 2603 747 3093 
Q 1141 3584 1784 3584 
Q 2172 3584 2450 3431 
Q 2728 3278 2906 2969 
L 2906 3500 
L 3481 3500 
L 3481 434 
z
" transform="scale(0.015625)"/>
       <path id="DejaVuSans-31" d="M 794 531 
L 1825 531 
L 1825 4091 
L 703 3866 
L 703 4441 
L 1819 4666 
L 2450 4666 
L 2450 531 
L 3481 531 
L 3481 0 
L 794 0 
L 794 531 
z
" transform="scale(0.015625)"/>
       <path id="DejaVuSans-28" d="M 1984 4856 
Q 1566 4138 1362 3434 
Q 1159 2731 1159 2009 
Q 1159 1288 1364 580 
Q 1569 -128 1984 -844 
L 1484 -844 
Q 1016 -109 783 600 
Q 550 1309 550 2009 
Q 550 2706 781 3412 
Q 1013 4119 1484 4856 
L 1984 4856 
z
" transform="scale(0.015625)"/>
       <path id="DejaVuSans-23" d="M 3272 2816 
L 2363 2816 
L 2100 1772 
L 3016 1772 
L 3272 2816 
z
M 2803 4594 
L 2478 3297 
L 3391 3297 
L 3719 4594 
L 4219 4594 
L 3897 3297 
L 4872 3297 
L 4872 2816 
L 3775 2816 
L 3519 1772 
L 4513 1772 
L 4513 1294 
L 3397 1294 
L 3072 0 
L 2572 0 
L 2894 1294 
L 1978 1294 
L 1656 0 
L 1153 0 
L 1478 1294 
L 494 1294 
L 494 1772 
L 1594 1772 
L 1856 2816 
L 850 2816 
L 850 3297 
L 1978 3297 
L 2297 4594 
L 2803 4594 
z
" transform="scale(0.015625)"/>
       <path id="DejaVuSans-20" transform="scale(0.015625)"/>
       <path id="DejaVuSans-66" d="M 2375 4863 
L 2375 4384 
L 1825 4384 
Q 1516 4384 1395 4259 
Q 1275 4134 1275 3809 
L 1275 3500 
L 2222 3500 
L 2222 3053 
L 1275 3053 
L 1275 0 
L 697 0 
L 697 3053 
L 147 3053 
L 147 3500 
L 697 3500 
L 697 3744 
Q 697 4328 969 4595 
Q 1241 4863 1831 4863 
L 2375 4863 
z
" transform="scale(0.015625)"/>
       <path id="DejaVuSans-2d" d="M 313 2009 
L 1997 2009 
L 1997 1497 
L 313 1497 
L 313 2009 
z
" transform="scale(0.015625)"/>
       <path id="DejaVuSans-65" d="M 3597 1894 
L 3597 1613 
L 953 1613 
Q 991 1019 1311 708 
Q 1631 397 2203 397 
Q 2534 397 2845 478 
Q 3156 559 3463 722 
L 3463 178 
Q 3153 47 2828 -22 
Q 2503 -91 2169 -91 
Q 1331 -91 842 396 
Q 353 884 353 1716 
Q 353 2575 817 3079 
Q 1281 3584 2069 3584 
Q 2775 3584 3186 3129 
Q 3597 2675 3597 1894 
z
M 3022 2063 
Q 3016 2534 2758 2815 
Q 2500 3097 2075 3097 
Q 1594 3097 1305 2825 
Q 1016 2553 972 2059 
L 3022 2063 
z
" transform="scale(0.015625)"/>
       <path id="DejaVuSans-76" d="M 191 3500 
L 800 3500 
L 1894 563 
L 2988 3500 
L 3597 3500 
L 2284 0 
L 1503 0 
L 191 3500 
z
" transform="scale(0.015625)"/>
       <path id="DejaVuSans-61" d="M 2194 1759 
Q 1497 1759 1228 1600 
Q 959 1441 959 1056 
Q 959 750 1161 570 
Q 1363 391 1709 391 
Q 2188 391 2477 730 
Q 2766 1069 2766 1631 
L 2766 1759 
L 2194 1759 
z
M 3341 1997 
L 3341 0 
L 2766 0 
L 2766 531 
Q 2569 213 2275 61 
Q 1981 -91 1556 -91 
Q 1019 -91 701 211 
Q 384 513 384 1019 
Q 384 1609 779 1909 
Q 1175 2209 1959 2209 
L 2766 2209 
L 2766 2266 
Q 2766 2663 2505 2880 
Q 2244 3097 1772 3097 
Q 1472 3097 1187 3025 
Q 903 2953 641 2809 
L 641 3341 
Q 956 3463 1253 3523 
Q 1550 3584 1831 3584 
Q 2591 3584 2966 3190 
Q 3341 2797 3341 1997 
z
" transform="scale(0.015625)"/>
       <path id="DejaVuSans-73" d="M 2834 3397 
L 2834 2853 
Q 2591 2978 2328 3040 
Q 2066 3103 1784 3103 
Q 1356 3103 1142 2972 
Q 928 2841 928 2578 
Q 928 2378 1081 2264 
Q 1234 2150 1697 2047 
L 1894 2003 
Q 2506 1872 2764 1633 
Q 3022 1394 3022 966 
Q 3022 478 2636 193 
Q 2250 -91 1575 -91 
Q 1294 -91 989 -36 
Q 684 19 347 128 
L 347 722 
Q 666 556 975 473 
Q 1284 391 1588 391 
Q 1994 391 2212 530 
Q 2431 669 2431 922 
Q 2431 1156 2273 1281 
Q 2116 1406 1581 1522 
L 1381 1569 
Q 847 1681 609 1914 
Q 372 2147 372 2553 
Q 372 3047 722 3315 
Q 1072 3584 1716 3584 
Q 2034 3584 2315 3537 
Q 2597 3491 2834 3397 
z
" transform="scale(0.015625)"/>
       <path id="DejaVuSans-2f" d="M 1625 4666 
L 2156 4666 
L 531 -594 
L 0 -594 
L 1625 4666 
z
" transform="scale(0.015625)"/>
       <path id="DejaVuSans-64" d="M 2906 2969 
L 2906 4863 
L 3481 4863 
L 3481 0 
L 2906 0 
L 2906 525 
Q 2725 213 2448 61 
Q 2172 -91 1784 -91 
Q 1150 -91 751 415 
Q 353 922 353 1747 
Q 353 2572 751 3078 
Q 1150 3584 1784 3584 
Q 2172 3584 2448 3432 
Q 2725 3281 2906 2969 
z
M 947 1747 
Q 947 1113 1208 752 
Q 1469 391 1925 391 
Q 2381 391 2643 752 
Q 2906 1113 2906 1747 
Q 2906 2381 2643 2742 
Q 2381 3103 1925 3103 
Q 1469 3103 1208 2742 
Q 947 2381 947 1747 
z
" transform="scale(0.015625)"/>
       <path id="DejaVuSans-69" d="M 603 3500 
L 1178 3500 
L 1178 0 
L 603 0 
L 603 3500 
z
M 603 4863 
L 1178 4863 
L 1178 4134 
L 603 4134 
L 603 4863 
z
" transform="scale(0.015625)"/>
       <path id="DejaVuSans-6d" d="M 3328 2828 
Q 3544 3216 3844 3400 
Q 4144 3584 4550 3584 
Q 5097 3584 5394 3201 
Q 5691 2819 5691 2113 
L 5691 0 
L 5113 0 
L 5113 2094 
Q 5113 2597 4934 2840 
Q 4756 3084 4391 3084 
Q 3944 3084 3684 2787 
Q 3425 2491 3425 1978 
L 3425 0 
L 2847 0 
L 2847 2094 
Q 2847 2600 2669 2842 
Q 2491 3084 2119 3084 
Q 1678 3084 1418 2786 
Q 1159 2488 1159 1978 
L 1159 0 
L 581 0 
L 581 3500 
L 1159 3500 
L 1159 2956 
Q 1356 3278 1631 3431 
Q 1906 3584 2284 3584 
Q 2666 3584 2933 3390 
Q 3200 3197 3328 2828 
z
" transform="scale(0.015625)"/>
       <path id="DejaVuSans-6e" d="M 3513 2113 
L 3513 0 
L 2938 0 
L 2938 2094 
Q 2938 2591 2744 2837 
Q 2550 3084 2163 3084 
Q 1697 3084 1428 2787 
Q 1159 2491 1159 1978 
L 1159 0 
L 581 0 
L 581 3500 
L 1159 3500 
L 1159 2956 
Q 1366 3272 1645 3428 
Q 1925 3584 2291 3584 
Q 2894 3584 3203 3211 
Q 3513 2838 3513 2113 
z
" transform="scale(0.015625)"/>
       <path id="DejaVuSans-29" d="M 513 4856 
L 1013 4856 
Q 1481 4119 1714 3412 
Q 1947 2706 1947 2009 
Q 1947 1309 1714 600 
Q 1481 -109 1013 -844 
L 513 -844 
Q 928 -128 1133 580 
Q 1338 1288 1338 2009 
Q 1338 2731 1133 3434 
Q 928 4138 513 4856 
z
" transform="scale(0.015625)"/>
      </defs>
      <use xlink:href="#DejaVuSans-6c"/>
      <use xlink:href="#DejaVuSans-6f" x="27.783203"/>
      <use xlink:href="#DejaVuSans-67" x="88.964844"/>
      <use xlink:href="#DejaVuSans-31" x="152.441406"/>
      <use xlink:href="#DejaVuSans-30" x="216.064453"/>
      <use xlink:href="#DejaVuSans-28" x="279.6875"/>
      <use xlink:href="#DejaVuSans-23" x="318.701172"/>
      <use xlink:href="#DejaVuSans-20" x="402.490234"/>
      <use xlink:href="#DejaVuSans-66" x="434.277344"/>
      <use xlink:href="#DejaVuSans-2d" x="463.982422"/>
      <use xlink:href="#DejaVuSans-65" x="500.066406"/>
      <use xlink:href="#DejaVuSans-76" x="561.589844"/>
      <use xlink:href="#DejaVuSans-61" x="620.769531"/>
      <use xlink:href="#DejaVuSans-6c" x="682.048828"/>
      <use xlink:href="#DejaVuSans-73" x="709.832031"/>
      <use xlink:href="#DejaVuSans-20" x="761.931641"/>
      <use xlink:href="#DejaVuSans-2f" x="793.71875"/>
      <use xlink:href="#DejaVuSans-20" x="827.410156"/>
      <use xlink:href="#DejaVuSans-64" x="859.197266"/>
      <use xlink:href="#DejaVuSans-69" x="922.673828"/>
      <use xlink:href="#DejaVuSans-6d" x="950.457031"/>
      <use xlink:href="#DejaVuSans-65" x="1047.869141"/>
      <use xlink:href="#DejaVuSans-6e" x="1109.392578"/>
      <use xlink:href="#DejaVuSans-73" x="1172.771484"/>
      <use xlink:href="#DejaVuSans-69" x="1224.871094"/>
      <use xlink:href="#DejaVuSans-6f" x="1252.654297"/>
      <use xlink:href="#DejaVuSans-6e" x="1313.835938"/>
      <use xlink:href="#DejaVuSans-29" x="1377.214844"/>
     </g>
    </g>
   </g>
   <g id="matplotlib.axis_2">
    <g id="ytick_1">
     <g id="line2d_21">
      <path d="M 57.6 298.944 
L 360.8064 298.944 
" clip-path="url(#pee3c9626d9)" style="fill: none; stroke: #b0b0b0; stroke-width: 0.8; stroke-linecap: square"/>
     </g>
     <g id="line2d_22">
      <defs>
       <path id="m0655019375" d="M 0 0 
L -3.5 0 
" style="stroke: #000000; stroke-width: 0.8"/>
      </defs>
      <g>
       <use xlink:href="#m0655019375" x="57.6" y="298.944" style="stroke: #000000; stroke-width: 0.8"/>
      </g>
     </g>
     <g id="text_6">
      <!-- 0.0 -->
      <g transform="translate(25.155 305.02275)scale(0.16 -0.16)">
       <defs>
        <path id="DejaVuSans-2e" d="M 684 794 
L 1344 794 
L 1344 0 
L 684 0 
L 684 794 
z
" transform="scale(0.015625)"/>
       </defs>
       <use xlink:href="#DejaVuSans-30"/>
       <use xlink:href="#DejaVuSans-2e" x="63.623047"/>
       <use xlink:href="#DejaVuSans-30" x="95.410156"/>
      </g>
     </g>
    </g>
    <g id="ytick_2">
     <g id="line2d_23">
      <path d="M 57.6 244.6848 
L 360.8064 244.6848 
" clip-path="url(#pee3c9626d9)" style="fill: none; stroke: #b0b0b0; stroke-width: 0.8; stroke-linecap: square"/>
     </g>
     <g id="line2d_24">
      <g>
       <use xlink:href="#m0655019375" x="57.6" y="244.6848" style="stroke: #000000; stroke-width: 0.8"/>
      </g>
     </g>
     <g id="text_7">
      <!-- 0.2 -->
      <g transform="translate(25.155 250.76355)scale(0.16 -0.16)">
       <use xlink:href="#DejaVuSans-30"/>
       <use xlink:href="#DejaVuSans-2e" x="63.623047"/>
       <use xlink:href="#DejaVuSans-32" x="95.410156"/>
      </g>
     </g>
    </g>
    <g id="ytick_3">
     <g id="line2d_25">
      <path d="M 57.6 190.4256 
L 360.8064 190.4256 
" clip-path="url(#pee3c9626d9)" style="fill: none; stroke: #b0b0b0; stroke-width: 0.8; stroke-linecap: square"/>
     </g>
     <g id="line2d_26">
      <g>
       <use xlink:href="#m0655019375" x="57.6" y="190.4256" style="stroke: #000000; stroke-width: 0.8"/>
      </g>
     </g>
     <g id="text_8">
      <!-- 0.4 -->
      <g transform="translate(25.155 196.50435)scale(0.16 -0.16)">
       <use xlink:href="#DejaVuSans-30"/>
       <use xlink:href="#DejaVuSans-2e" x="63.623047"/>
       <use xlink:href="#DejaVuSans-34" x="95.410156"/>
      </g>
     </g>
    </g>
    <g id="ytick_4">
     <g id="line2d_27">
      <path d="M 57.6 136.1664 
L 360.8064 136.1664 
" clip-path="url(#pee3c9626d9)" style="fill: none; stroke: #b0b0b0; stroke-width: 0.8; stroke-linecap: square"/>
     </g>
     <g id="line2d_28">
      <g>
       <use xlink:href="#m0655019375" x="57.6" y="136.1664" style="stroke: #000000; stroke-width: 0.8"/>
      </g>
     </g>
     <g id="text_9">
      <!-- 0.6 -->
      <g transform="translate(25.155 142.24515)scale(0.16 -0.16)">
       <use xlink:href="#DejaVuSans-30"/>
       <use xlink:href="#DejaVuSans-2e" x="63.623047"/>
       <use xlink:href="#DejaVuSans-36" x="95.410156"/>
      </g>
     </g>
    </g>
    <g id="ytick_5">
     <g id="line2d_29">
      <path d="M 57.6 81.9072 
L 360.8064 81.9072 
" clip-path="url(#pee3c9626d9)" style="fill: none; stroke: #b0b0b0; stroke-width: 0.8; stroke-linecap: square"/>
     </g>
     <g id="line2d_30">
      <g>
       <use xlink:href="#m0655019375" x="57.6" y="81.9072" style="stroke: #000000; stroke-width: 0.8"/>
      </g>
     </g>
     <g id="text_10">
      <!-- 0.8 -->
      <g transform="translate(25.155 87.98595)scale(0.16 -0.16)">
       <defs>
        <path id="DejaVuSans-38" d="M 2034 2216 
Q 1584 2216 1326 1975 
Q 1069 1734 1069 1313 
Q 1069 891 1326 650 
Q 1584 409 2034 409 
Q 2484 409 2743 651 
Q 3003 894 3003 1313 
Q 3003 1734 2745 1975 
Q 2488 2216 2034 2216 
z
M 1403 2484 
Q 997 2584 770 2862 
Q 544 3141 544 3541 
Q 544 4100 942 4425 
Q 1341 4750 2034 4750 
Q 2731 4750 3128 4425 
Q 3525 4100 3525 3541 
Q 3525 3141 3298 2862 
Q 3072 2584 2669 2484 
Q 3125 2378 3379 2068 
Q 3634 1759 3634 1313 
Q 3634 634 3220 271 
Q 2806 -91 2034 -91 
Q 1263 -91 848 271 
Q 434 634 434 1313 
Q 434 1759 690 2068 
Q 947 2378 1403 2484 
z
M 1172 3481 
Q 1172 3119 1398 2916 
Q 1625 2713 2034 2713 
Q 2441 2713 2670 2916 
Q 2900 3119 2900 3481 
Q 2900 3844 2670 4047 
Q 2441 4250 2034 4250 
Q 1625 4250 1398 4047 
Q 1172 3844 1172 3481 
z
" transform="scale(0.015625)"/>
       </defs>
       <use xlink:href="#DejaVuSans-30"/>
       <use xlink:href="#DejaVuSans-2e" x="63.623047"/>
       <use xlink:href="#DejaVuSans-38" x="95.410156"/>
      </g>
     </g>
    </g>
    <g id="ytick_6">
     <g id="line2d_31">
      <path d="M 57.6 27.648 
L 360.8064 27.648 
" clip-path="url(#pee3c9626d9)" style="fill: none; stroke: #b0b0b0; stroke-width: 0.8; stroke-linecap: square"/>
     </g>
     <g id="line2d_32">
      <g>
       <use xlink:href="#m0655019375" x="57.6" y="27.648" style="stroke: #000000; stroke-width: 0.8"/>
      </g>
     </g>
     <g id="text_11">
      <!-- 1.0 -->
      <g transform="translate(25.155 33.72675)scale(0.16 -0.16)">
       <use xlink:href="#DejaVuSans-31"/>
       <use xlink:href="#DejaVuSans-2e" x="63.623047"/>
       <use xlink:href="#DejaVuSans-30" x="95.410156"/>
      </g>
     </g>
    </g>
    <g id="text_12">
     <!-- Fraction of function,target pairs -->
     <g transform="translate(17.619531 297.681)rotate(-90)scale(0.17 -0.17)">
      <defs>
       <path id="DejaVuSans-46" d="M 628 4666 
L 3309 4666 
L 3309 4134 
L 1259 4134 
L 1259 2759 
L 3109 2759 
L 3109 2228 
L 1259 2228 
L 1259 0 
L 628 0 
L 628 4666 
z
" transform="scale(0.015625)"/>
       <path id="DejaVuSans-72" d="M 2631 2963 
Q 2534 3019 2420 3045 
Q 2306 3072 2169 3072 
Q 1681 3072 1420 2755 
Q 1159 2438 1159 1844 
L 1159 0 
L 581 0 
L 581 3500 
L 1159 3500 
L 1159 2956 
Q 1341 3275 1631 3429 
Q 1922 3584 2338 3584 
Q 2397 3584 2469 3576 
Q 2541 3569 2628 3553 
L 2631 2963 
z
" transform="scale(0.015625)"/>
       <path id="DejaVuSans-63" d="M 3122 3366 
L 3122 2828 
Q 2878 2963 2633 3030 
Q 2388 3097 2138 3097 
Q 1578 3097 1268 2742 
Q 959 2388 959 1747 
Q 959 1106 1268 751 
Q 1578 397 2138 397 
Q 2388 397 2633 464 
Q 2878 531 3122 666 
L 3122 134 
Q 2881 22 2623 -34 
Q 2366 -91 2075 -91 
Q 1284 -91 818 406 
Q 353 903 353 1747 
Q 353 2603 823 3093 
Q 1294 3584 2113 3584 
Q 2378 3584 2631 3529 
Q 2884 3475 3122 3366 
z
" transform="scale(0.015625)"/>
       <path id="DejaVuSans-74" d="M 1172 4494 
L 1172 3500 
L 2356 3500 
L 2356 3053 
L 1172 3053 
L 1172 1153 
Q 1172 725 1289 603 
Q 1406 481 1766 481 
L 2356 481 
L 2356 0 
L 1766 0 
Q 1100 0 847 248 
Q 594 497 594 1153 
L 594 3053 
L 172 3053 
L 172 3500 
L 594 3500 
L 594 4494 
L 1172 4494 
z
" transform="scale(0.015625)"/>
       <path id="DejaVuSans-75" d="M 544 1381 
L 544 3500 
L 1119 3500 
L 1119 1403 
Q 1119 906 1312 657 
Q 1506 409 1894 409 
Q 2359 409 2629 706 
Q 2900 1003 2900 1516 
L 2900 3500 
L 3475 3500 
L 3475 0 
L 2900 0 
L 2900 538 
Q 2691 219 2414 64 
Q 2138 -91 1772 -91 
Q 1169 -91 856 284 
Q 544 659 544 1381 
z
M 1991 3584 
L 1991 3584 
z
" transform="scale(0.015625)"/>
       <path id="DejaVuSans-2c" d="M 750 794 
L 1409 794 
L 1409 256 
L 897 -744 
L 494 -744 
L 750 256 
L 750 794 
z
" transform="scale(0.015625)"/>
       <path id="DejaVuSans-70" d="M 1159 525 
L 1159 -1331 
L 581 -1331 
L 581 3500 
L 1159 3500 
L 1159 2969 
Q 1341 3281 1617 3432 
Q 1894 3584 2278 3584 
Q 2916 3584 3314 3078 
Q 3713 2572 3713 1747 
Q 3713 922 3314 415 
Q 2916 -91 2278 -91 
Q 1894 -91 1617 61 
Q 1341 213 1159 525 
z
M 3116 1747 
Q 3116 2381 2855 2742 
Q 2594 3103 2138 3103 
Q 1681 3103 1420 2742 
Q 1159 2381 1159 1747 
Q 1159 1113 1420 752 
Q 1681 391 2138 391 
Q 2594 391 2855 752 
Q 3116 1113 3116 1747 
z
" transform="scale(0.015625)"/>
      </defs>
      <use xlink:href="#DejaVuSans-46"/>
      <use xlink:href="#DejaVuSans-72" x="50.269531"/>
      <use xlink:href="#DejaVuSans-61" x="91.382812"/>
      <use xlink:href="#DejaVuSans-63" x="152.662109"/>
      <use xlink:href="#DejaVuSans-74" x="207.642578"/>
      <use xlink:href="#DejaVuSans-69" x="246.851562"/>
      <use xlink:href="#DejaVuSans-6f" x="274.634766"/>
      <use xlink:href="#DejaVuSans-6e" x="335.816406"/>
      <use xlink:href="#DejaVuSans-20" x="399.195312"/>
      <use xlink:href="#DejaVuSans-6f" x="430.982422"/>
      <use xlink:href="#DejaVuSans-66" x="492.164062"/>
      <use xlink:href="#DejaVuSans-20" x="527.369141"/>
      <use xlink:href="#DejaVuSans-66" x="559.15625"/>
      <use xlink:href="#DejaVuSans-75" x="594.361328"/>
      <use xlink:href="#DejaVuSans-6e" x="657.740234"/>
      <use xlink:href="#DejaVuSans-63" x="721.119141"/>
      <use xlink:href="#DejaVuSans-74" x="776.099609"/>
      <use xlink:href="#DejaVuSans-69" x="815.308594"/>
      <use xlink:href="#DejaVuSans-6f" x="843.091797"/>
      <use xlink:href="#DejaVuSans-6e" x="904.273438"/>
      <use xlink:href="#DejaVuSans-2c" x="967.652344"/>
      <use xlink:href="#DejaVuSans-74" x="999.439453"/>
      <use xlink:href="#DejaVuSans-61" x="1038.648438"/>
      <use xlink:href="#DejaVuSans-72" x="1099.927734"/>
      <use xlink:href="#DejaVuSans-67" x="1139.291016"/>
      <use xlink:href="#DejaVuSans-65" x="1202.767578"/>
      <use xlink:href="#DejaVuSans-74" x="1264.291016"/>
      <use xlink:href="#DejaVuSans-20" x="1303.5"/>
      <use xlink:href="#DejaVuSans-70" x="1335.287109"/>
      <use xlink:href="#DejaVuSans-61" x="1398.763672"/>
      <use xlink:href="#DejaVuSans-69" x="1460.042969"/>
      <use xlink:href="#DejaVuSans-72" x="1487.826172"/>
      <use xlink:href="#DejaVuSans-73" x="1528.939453"/>
     </g>
    </g>
   </g>
   <g id="line2d_33">
    <defs>
     <path id="m2acd70349b" d="M 0 1.5 
C 0.397805 1.5 0.77937 1.341951 1.06066 1.06066 
C 1.341951 0.77937 1.5 0.397805 1.5 0 
C 1.5 -0.397805 1.341951 -0.77937 1.06066 -1.06066 
C 0.77937 -1.341951 0.397805 -1.5 0 -1.5 
C -0.397805 -1.5 -0.77937 -1.341951 -1.06066 -1.06066 
C -1.341951 -0.77937 -1.5 -0.397805 -1.5 0 
C -1.5 0.397805 -1.341951 0.77937 -1.06066 1.06066 
C -0.77937 1.341951 -0.397805 1.5 0 1.5 
z
" style="stroke: #f5deb3"/>
    </defs>
    <g>
     <use xlink:href="#m2acd70349b" x="205.29498" y="27.648" style="fill: #f5deb3; stroke: #f5deb3"/>
     <use xlink:href="#m2acd70349b" x="205.29498" y="27.648" style="fill: #f5deb3; stroke: #f5deb3"/>
    </g>
   </g>
   <g id="line2d_34">
    <defs>
     <path id="mb72a68afa7" d="M 0 1.5 
C 0.397805 1.5 0.77937 1.341951 1.06066 1.06066 
C 1.341951 0.77937 1.5 0.397805 1.5 0 
C 1.5 -0.397805 1.341951 -0.77937 1.06066 -1.06066 
C 0.77937 -1.341951 0.397805 -1.5 0 -1.5 
C -0.397805 -1.5 -0.77937 -1.341951 -1.06066 -1.06066 
C -1.341951 -0.77937 -1.5 -0.397805 -1.5 0 
C -1.5 0.397805 -1.341951 0.77937 -1.06066 1.06066 
C -0.77937 1.341951 -0.397805 1.5 0 1.5 
z
" style="stroke: #000080"/>
    </defs>
    <g>
     <use xlink:href="#mb72a68afa7" x="329.59196" y="27.648" style="fill: #000080; stroke: #000080"/>
     <use xlink:href="#mb72a68afa7" x="329.59196" y="27.648" style="fill: #000080; stroke: #000080"/>
    </g>
   </g>
   <g id="line2d_35">
    <path d="M -1 293.624471 
L 109.189772 293.624471 
L 109.189772 293.269835 
L 114.939258 293.269835 
L 114.939258 292.9152 
L 115.575511 292.9152 
L 115.575511 292.560565 
L 116.968056 292.560565 
L 116.968056 292.205929 
L 121.376899 292.205929 
L 121.376899 291.851294 
L 123.587297 291.851294 
L 123.587297 291.496659 
L 123.950143 291.496659 
L 123.950143 291.142024 
L 124.360294 291.142024 
L 124.360294 290.787388 
L 125.322496 290.787388 
L 125.322496 290.432753 
L 126.756923 290.432753 
L 126.756923 290.078118 
L 129.653334 290.078118 
L 129.744974 289.368847 
L 130.530767 289.368847 
L 130.530767 289.014212 
L 130.753507 289.014212 
L 130.753507 288.659576 
L 131.847455 288.659576 
L 131.847455 288.304941 
L 132.251827 288.304941 
L 132.251827 287.950306 
L 133.162871 287.950306 
L 133.19672 287.241035 
L 134.064146 287.241035 
L 134.064146 286.8864 
L 135.418977 286.8864 
L 135.418977 286.531765 
L 136.083243 286.531765 
L 136.083243 286.177129 
L 136.577088 286.177129 
L 136.577088 285.822494 
L 137.419744 285.822494 
L 137.527508 284.758588 
L 137.774373 284.758588 
L 137.774373 284.403953 
L 139.123427 284.403953 
L 139.123427 284.049318 
L 139.75438 284.049318 
L 139.849598 283.340047 
L 140.132395 283.340047 
L 140.132395 282.985412 
L 141.42051 282.985412 
L 141.475036 282.276141 
L 141.958788 282.276141 
L 141.958788 281.921506 
L 142.326624 281.921506 
L 142.326624 281.566871 
L 143.25559 281.566871 
L 143.25559 281.212235 
L 143.428152 281.212235 
L 143.428152 280.8576 
L 143.797494 280.8576 
L 143.816734 280.148329 
L 144.813822 280.148329 
L 144.922928 279.439059 
L 145.62583 279.439059 
L 145.62583 279.084424 
L 148.570504 279.084424 
L 148.656189 278.375153 
L 148.708155 278.375153 
L 148.785835 277.665882 
L 148.991428 277.665882 
L 148.991428 277.311247 
L 149.274095 277.311247 
L 149.331557 276.601976 
L 149.417422 276.601976 
L 149.417422 276.247341 
L 149.584448 276.247341 
L 149.584448 275.892706 
L 150.529708 275.892706 
L 150.576754 275.183435 
L 150.663813 275.183435 
L 150.663813 274.8288 
L 152.082223 274.8288 
L 152.082223 274.474165 
L 152.610698 274.474165 
L 152.610698 274.119529 
L 153.421349 274.119529 
L 153.490466 273.410259 
L 153.877408 273.410259 
L 153.877408 273.055624 
L 154.003708 273.055624 
L 154.026073 272.346353 
L 154.454223 272.346353 
L 154.476059 271.637082 
L 154.875516 271.637082 
L 154.875516 271.282447 
L 155.209034 271.282447 
L 155.26405 270.573176 
L 155.446284 270.573176 
L 155.446284 270.218541 
L 156.140591 270.218541 
L 156.140591 269.863906 
L 156.326932 269.863906 
L 156.326932 269.509271 
L 156.747428 269.509271 
L 156.747428 269.154635 
L 157.127956 269.154635 
L 157.127956 268.8 
L 157.262519 268.8 
L 157.262519 268.445365 
L 157.489322 268.445365 
L 157.489322 268.090729 
L 157.79592 268.090729 
L 157.79592 267.736094 
L 158.350168 267.736094 
L 158.350168 267.381459 
L 159.239103 267.381459 
L 159.239103 267.026824 
L 159.810584 267.026824 
L 159.810584 266.672188 
L 159.959956 266.672188 
L 159.959956 266.317553 
L 160.309281 266.317553 
L 160.309281 265.962918 
L 160.907837 265.962918 
L 160.907837 265.608282 
L 161.219191 265.608282 
L 161.219191 265.253647 
L 161.435244 265.253647 
L 161.435244 264.899012 
L 161.734351 264.899012 
L 161.830546 264.189741 
L 162.143454 264.189741 
L 162.143454 263.835106 
L 163.347199 263.835106 
L 163.384611 263.125835 
L 163.696305 263.125835 
L 163.696305 262.7712 
L 164.380497 262.7712 
L 164.380497 262.416565 
L 164.760122 262.416565 
L 164.760122 262.061929 
L 165.291025 262.061929 
L 165.291025 261.707294 
L 165.475865 261.707294 
L 165.475865 261.352659 
L 165.996089 261.352659 
L 165.996089 260.998024 
L 166.304073 260.998024 
L 166.304073 260.643388 
L 166.908133 260.643388 
L 166.908133 260.288753 
L 167.194719 260.288753 
L 167.194719 259.934118 
L 167.586025 259.934118 
L 167.598251 259.224847 
L 167.874589 259.224847 
L 167.874589 258.870212 
L 168.025194 258.870212 
L 168.117888 258.160941 
L 168.386751 258.160941 
L 168.386751 257.806306 
L 168.588805 257.806306 
L 168.588805 257.451671 
L 169.501592 257.451671 
L 169.501592 257.097035 
L 170.88191 257.097035 
L 170.88191 256.7424 
L 171.102992 256.7424 
L 171.102992 256.387765 
L 171.62651 256.387765 
L 171.62651 256.033129 
L 172.368065 256.033129 
L 172.459523 255.323859 
L 172.808627 255.323859 
L 172.808627 254.969224 
L 173.210914 254.969224 
L 173.210914 254.614588 
L 175.582134 254.614588 
L 175.582134 254.259953 
L 176.442464 254.259953 
L 176.442464 253.905318 
L 176.724615 253.905318 
L 176.724615 253.550682 
L 176.981169 253.550682 
L 176.981169 253.196047 
L 177.757404 253.196047 
L 177.757404 252.841412 
L 178.403742 252.841412 
L 178.403742 252.486776 
L 178.532513 252.486776 
L 178.532513 252.132141 
L 178.747694 252.132141 
L 178.747694 251.777506 
L 179.560189 251.777506 
L 179.560189 251.422871 
L 179.687021 251.422871 
L 179.752609 250.7136 
L 180.429191 250.7136 
L 180.429191 250.358965 
L 181.696776 250.358965 
L 181.696776 250.004329 
L 183.704297 250.004329 
L 183.704297 249.649694 
L 183.911959 249.649694 
L 183.911959 249.295059 
L 184.034218 249.295059 
L 184.034218 248.940424 
L 185.227233 248.940424 
L 185.227233 248.585788 
L 185.96837 248.585788 
L 185.96837 248.231153 
L 186.571781 248.231153 
L 186.571781 247.876518 
L 187.200555 247.876518 
L 187.200555 247.521882 
L 187.319924 247.521882 
L 187.395925 246.812612 
L 188.825395 246.812612 
L 188.858318 246.103341 
L 189.394883 246.103341 
L 189.394883 245.748706 
L 190.171876 245.748706 
L 190.171876 245.394071 
L 190.727212 245.394071 
L 190.727212 245.039435 
L 191.393537 245.039435 
L 191.393537 244.6848 
L 191.90884 244.6848 
L 191.90884 244.330165 
L 192.112844 244.330165 
L 192.112844 243.975529 
L 193.844235 243.975529 
L 193.844235 243.620894 
L 194.035387 243.620894 
L 194.035387 243.266259 
L 194.324918 243.266259 
L 194.324918 242.911624 
L 196.282462 242.911624 
L 196.282462 242.556988 
L 196.960259 242.556988 
L 196.960259 242.202353 
L 197.082175 242.202353 
L 197.085574 241.493082 
L 197.743733 241.493082 
L 197.784165 240.783812 
L 198.052138 240.783812 
L 198.15115 240.074541 
L 198.732704 240.074541 
L 198.732704 239.719906 
L 198.929648 239.719906 
L 198.929648 239.365271 
L 199.273386 239.365271 
L 199.273386 239.010635 
L 200.280161 239.010635 
L 200.280161 238.656 
L 201.496098 238.656 
L 201.496098 238.301365 
L 201.660261 238.301365 
L 201.660261 237.946729 
L 201.968847 237.946729 
L 201.968847 237.592094 
L 202.3184 237.592094 
L 202.3184 237.237459 
L 202.918182 237.237459 
L 202.954289 236.528188 
L 203.441945 236.528188 
L 203.441945 236.173553 
L 203.756655 236.173553 
L 203.790992 235.464282 
L 204.32354 235.464282 
L 204.32354 235.109647 
L 205.107142 235.109647 
L 205.147775 234.400376 
L 206.073842 234.400376 
L 206.076125 233.691106 
L 206.209817 233.691106 
L 206.209817 233.336471 
L 207.251256 233.336471 
L 207.251256 232.981835 
L 207.415679 232.981835 
L 207.468919 231.917929 
L 208.04577 231.917929 
L 208.04577 231.563294 
L 208.571345 231.563294 
L 208.677779 230.854024 
L 208.935077 230.854024 
L 208.943372 230.144753 
L 209.37668 230.144753 
L 209.37668 229.790118 
L 209.93217 229.790118 
L 209.93217 229.435482 
L 210.213328 229.435482 
L 210.30514 228.371576 
L 210.450305 228.371576 
L 210.450305 228.016941 
L 210.846248 228.016941 
L 210.846248 227.662306 
L 211.004484 227.662306 
L 211.004484 227.307671 
L 211.131087 227.307671 
L 211.131087 226.953035 
L 211.412073 226.953035 
L 211.412073 226.5984 
L 211.659712 226.5984 
L 211.659712 226.243765 
L 211.97293 226.243765 
L 211.97293 225.889129 
L 212.12264 225.889129 
L 212.12264 225.534494 
L 212.62473 225.534494 
L 212.706506 224.470588 
L 213.222538 224.470588 
L 213.318857 223.761318 
L 213.642869 223.761318 
L 213.642869 223.406682 
L 214.207371 223.406682 
L 214.220589 222.697412 
L 214.371245 222.697412 
L 214.461648 221.988141 
L 214.616752 221.988141 
L 214.616752 221.633506 
L 214.972816 221.633506 
L 214.972816 221.278871 
L 215.348137 221.278871 
L 215.348137 220.924235 
L 215.483459 220.924235 
L 215.483459 220.5696 
L 215.746702 220.5696 
L 215.831268 219.860329 
L 215.864592 219.860329 
L 215.864592 219.505694 
L 216.19103 219.505694 
L 216.19103 219.151059 
L 216.530446 219.151059 
L 216.530446 218.796424 
L 217.173243 218.796424 
L 217.173243 218.441788 
L 217.363775 218.441788 
L 217.36522 217.732518 
L 217.612696 217.732518 
L 217.612696 217.377882 
L 217.996044 217.377882 
L 218.09985 216.668612 
L 218.285122 216.668612 
L 218.358943 215.959341 
L 218.422547 215.959341 
L 218.488752 215.250071 
L 218.582476 215.250071 
L 218.654151 214.5408 
L 219.079792 214.5408 
L 219.079792 214.186165 
L 219.31948 214.186165 
L 219.418239 213.476894 
L 219.939232 213.476894 
L 220.000903 212.767624 
L 220.063208 212.767624 
L 220.063208 212.412988 
L 220.271861 212.412988 
L 220.271861 212.058353 
L 220.461639 212.058353 
L 220.461639 211.703718 
L 220.883886 211.703718 
L 220.883886 211.349082 
L 221.058356 211.349082 
L 221.12239 210.639812 
L 221.296705 210.639812 
L 221.296705 210.285176 
L 221.431805 210.285176 
L 221.431805 209.930541 
L 221.686726 209.930541 
L 221.715654 209.221271 
L 221.827959 209.221271 
L 221.827959 208.866635 
L 221.960443 208.866635 
L 221.960443 208.512 
L 222.170315 208.512 
L 222.170315 208.157365 
L 222.385918 208.157365 
L 222.433307 207.448094 
L 222.669427 207.448094 
L 222.669427 207.093459 
L 223.022493 207.093459 
L 223.109112 206.384188 
L 223.197101 206.384188 
L 223.254828 205.320282 
L 223.747274 205.320282 
L 223.780262 204.611012 
L 223.921638 204.611012 
L 223.921638 204.256376 
L 224.177978 204.256376 
L 224.277208 203.547106 
L 224.495761 203.547106 
L 224.517187 202.837835 
L 224.628212 202.837835 
L 224.628212 202.4832 
L 225.342215 202.4832 
L 225.39832 201.419294 
L 225.577536 201.419294 
L 225.577536 201.064659 
L 225.813394 201.064659 
L 225.813394 200.710024 
L 226.014169 200.710024 
L 226.014169 200.355388 
L 226.125619 200.355388 
L 226.125619 200.000753 
L 226.39796 200.000753 
L 226.468894 199.291482 
L 226.903196 199.291482 
L 226.999297 198.582212 
L 227.280937 198.582212 
L 227.280937 198.227576 
L 227.780647 198.227576 
L 227.780647 197.872941 
L 227.925006 197.872941 
L 227.925006 197.518306 
L 228.821657 197.518306 
L 228.821657 197.163671 
L 229.010702 197.163671 
L 229.010702 196.809035 
L 229.464659 196.809035 
L 229.464659 196.4544 
L 230.950318 196.4544 
L 230.950318 196.099765 
L 267.217187 196.099765 
L 267.217187 195.745129 
L 267.427168 195.745129 
L 267.427168 195.390494 
L 274.199786 195.390494 
L 274.299903 187.588518 
L 274.330437 187.588518 
L 274.437109 182.268988 
L 274.443819 182.268988 
L 274.523664 177.658729 
L 274.566818 177.658729 
L 274.67664 171.984565 
L 274.704741 171.984565 
L 274.796416 167.019671 
L 274.819518 167.019671 
L 274.914531 163.473318 
L 274.93658 163.473318 
L 275.000034 161.345506 
L 275.083922 161.345506 
L 275.173001 157.089882 
L 275.228301 157.089882 
L 275.32536 153.188894 
L 275.355314 153.188894 
L 275.457034 149.642541 
L 275.4715 149.642541 
L 275.545456 147.160094 
L 275.604243 147.160094 
L 275.708852 143.968376 
L 275.846207 143.968376 
L 275.846207 143.613741 
L 275.977088 143.613741 
L 275.977088 143.259106 
L 287.236051 143.259106 
L 287.346182 136.1664 
L 287.347515 136.1664 
L 287.453415 129.073694 
L 287.46716 129.073694 
L 287.569855 124.463435 
L 287.599575 124.463435 
L 287.700431 119.143906 
L 287.717669 119.143906 
L 287.788267 116.306824 
L 287.832694 116.306824 
L 287.912362 112.405835 
L 287.962267 112.405835 
L 288.040743 110.632659 
L 294.85588 110.632659 
L 294.950356 101.057506 
L 294.97378 101.057506 
L 295.078957 97.156518 
L 295.092015 97.156518 
L 295.19995 92.546259 
L 295.218675 92.546259 
L 295.323903 86.872094 
L 295.330832 86.872094 
L 295.415974 84.389647 
L 295.462324 84.389647 
L 295.462324 84.035012 
L 300.285293 84.035012 
L 300.393676 79.779388 
L 300.41062 79.779388 
L 300.516539 73.750588 
L 300.522994 73.750588 
L 300.631604 70.204235 
L 300.671662 70.204235 
L 300.671662 69.8496 
L 304.463988 69.8496 
L 304.571721 66.303247 
L 304.577146 66.303247 
L 304.684987 62.756894 
L 304.690282 62.756894 
L 304.786613 59.919812 
L 307.902274 59.919812 
L 308.012443 54.245647 
L 308.022523 54.245647 
L 308.123967 50.699294 
L 310.787282 50.699294 
L 310.893646 46.443671 
L 310.910961 46.443671 
L 311.021187 43.606588 
L 313.336542 43.606588 
L 313.414522 42.188047 
L 313.461599 42.188047 
L 313.510591 41.478776 
L 315.529716 41.478776 
L 315.638984 38.996329 
L 315.647126 38.996329 
L 315.647126 38.641694 
L 317.514267 38.641694 
L 317.615954 35.449976 
L 319.294843 35.449976 
L 319.388851 34.031435 
L 320.965977 34.031435 
L 321.001704 32.258259 
L 322.433432 32.258259 
L 322.49177 31.194353 
L 323.82821 31.194353 
L 323.924329 30.130447 
L 325.126914 30.130447 
L 325.196057 28.711906 
L 326.429646 28.711906 
L 326.429646 28.357271 
L 327.532203 28.357271 
L 327.532203 28.002635 
L 329.59196 28.002635 
L 329.59196 27.648 
L 360.8064 27.648 
L 360.8064 27.648 
" style="fill: none; stroke: #000080; stroke-width: 1.5; stroke-linecap: square"/>
   </g>
   <g id="line2d_36">
    <defs>
     <path id="m64c1ea17ba" d="M 0 6 
C 1.591219 6 3.117479 5.367802 4.242641 4.242641 
C 5.367802 3.117479 6 1.591219 6 0 
C 6 -1.591219 5.367802 -3.117479 4.242641 -4.242641 
C 3.117479 -5.367802 1.591219 -6 0 -6 
C -1.591219 -6 -3.117479 -5.367802 -4.242641 -4.242641 
C -5.367802 -3.117479 -6 -1.591219 -6 0 
C -6 1.591219 -5.367802 3.117479 -4.242641 4.242641 
C -3.117479 5.367802 -1.591219 6 0 6 
z
" style="stroke: #000080; stroke-width: 1.5"/>
    </defs>
    <g>
     <use xlink:href="#m64c1ea17ba" x="163.347199" y="263.480471" style="fill-opacity: 0; stroke: #000080; stroke-width: 1.5"/>
     <use xlink:href="#m64c1ea17ba" x="225.577536" y="201.064659" style="fill-opacity: 0; stroke: #000080; stroke-width: 1.5"/>
     <use xlink:href="#m64c1ea17ba" x="295.462324" y="84.389647" style="fill-opacity: 0; stroke: #000080; stroke-width: 1.5"/>
     <use xlink:href="#m64c1ea17ba" x="329.59196" y="27.648" style="fill-opacity: 0; stroke: #000080; stroke-width: 1.5"/>
     <use xlink:href="#m64c1ea17ba" x="360.8064" y="27.648" style="fill-opacity: 0; stroke: #000080; stroke-width: 1.5"/>
    </g>
   </g>
   <g id="line2d_37">
    <path style="fill: none; stroke: #000080; stroke-width: 1.5; stroke-linecap: square"/>
    <g/>
   </g>
   <g id="line2d_38">
    <path d="M 274.176 195.390494 
" clip-path="url(#pee3c9626d9)" style="fill: none; stroke: #000080; stroke-width: 1.5; stroke-linecap: square"/>
    <defs>
     <path id="mad0f1875bc" d="M -12 12 
L 12 -12 
M -12 -12 
L 12 12 
" style="stroke: #000080"/>
    </defs>
    <g clip-path="url(#pee3c9626d9)">
     <use xlink:href="#mad0f1875bc" x="274.176" y="195.390494" style="fill: #000080; stroke: #000080"/>
    </g>
   </g>
   <g id="line2d_39">
    <defs>
     <path id="m6dc1c0224d" d="M 0 1.5 
C 0.397805 1.5 0.77937 1.341951 1.06066 1.06066 
C 1.341951 0.77937 1.5 0.397805 1.5 0 
C 1.5 -0.397805 1.341951 -0.77937 1.06066 -1.06066 
C 0.77937 -1.341951 0.397805 -1.5 0 -1.5 
C -0.397805 -1.5 -0.77937 -1.341951 -1.06066 -1.06066 
C -1.341951 -0.77937 -1.5 -0.397805 -1.5 0 
C -1.5 0.397805 -1.341951 0.77937 -1.06066 1.06066 
C -0.77937 1.341951 -0.397805 1.5 0 1.5 
z
" style="stroke: #ff00ff"/>
    </defs>
    <g>
     <use xlink:href="#m6dc1c0224d" x="357.318333" y="197.872941" style="fill: #ff00ff; stroke: #ff00ff"/>
     <use xlink:href="#m6dc1c0224d" x="357.318333" y="197.872941" style="fill: #ff00ff; stroke: #ff00ff"/>
    </g>
   </g>
   <g id="line2d_40">
    <path d="M -1 293.624471 
L 183.455196 293.624471 
L 183.455196 293.269835 
L 184.097592 293.269835 
L 184.097592 292.9152 
L 185.457754 292.9152 
L 185.457754 292.560565 
L 187.58694 292.560565 
L 187.58694 292.205929 
L 187.716477 292.205929 
L 187.716477 291.851294 
L 188.705066 291.851294 
L 188.771717 291.142024 
L 189.297873 291.142024 
L 189.386782 290.432753 
L 189.499874 290.432753 
L 189.499874 290.078118 
L 190.534022 290.078118 
L 190.534022 289.723482 
L 190.936905 289.723482 
L 190.984363 289.014212 
L 191.527974 289.014212 
L 191.527974 288.659576 
L 192.031878 288.659576 
L 192.031878 288.304941 
L 193.006897 288.304941 
L 193.006897 287.950306 
L 194.317373 287.950306 
L 194.317373 287.595671 
L 195.509549 287.595671 
L 195.620091 286.531765 
L 195.780751 286.531765 
L 195.86616 285.822494 
L 196.125154 285.822494 
L 196.185859 285.113224 
L 196.689461 285.113224 
L 196.689461 284.758588 
L 196.955412 284.758588 
L 196.955412 284.403953 
L 197.929869 284.403953 
L 197.929869 284.049318 
L 198.076066 284.049318 
L 198.081439 283.340047 
L 198.18938 283.340047 
L 198.18938 282.985412 
L 200.477478 282.985412 
L 200.586185 282.276141 
L 200.589947 282.276141 
L 200.619778 280.502965 
L 200.759612 280.502965 
L 200.836103 279.439059 
L 201.474803 279.439059 
L 201.482651 278.729788 
L 201.757502 278.729788 
L 201.757502 278.375153 
L 202.645566 278.375153 
L 202.645566 278.020518 
L 202.820094 278.020518 
L 202.820094 277.665882 
L 203.008321 277.665882 
L 203.008321 277.311247 
L 203.383271 277.311247 
L 203.383271 276.956612 
L 203.547501 276.956612 
L 203.547501 276.601976 
L 204.469089 276.601976 
L 204.469089 276.247341 
L 204.787341 276.247341 
L 204.865602 274.8288 
L 205.076239 274.8288 
L 205.107512 274.119529 
L 205.525137 274.119529 
L 205.549353 273.410259 
L 205.971697 273.410259 
L 205.971697 273.055624 
L 206.214176 273.055624 
L 206.214176 272.700988 
L 206.590256 272.700988 
L 206.633609 271.991718 
L 206.710681 271.991718 
L 206.710681 271.637082 
L 206.919378 271.637082 
L 206.919378 271.282447 
L 207.181671 271.282447 
L 207.181671 270.927812 
L 207.59213 270.927812 
L 207.59213 270.573176 
L 207.865241 270.573176 
L 207.865241 270.218541 
L 208.219412 270.218541 
L 208.226619 269.509271 
L 208.536246 269.509271 
L 208.551341 268.8 
L 209.434647 268.8 
L 209.434647 268.445365 
L 209.733696 268.445365 
L 209.733696 268.090729 
L 209.946471 268.090729 
L 210.007985 267.381459 
L 210.13296 267.381459 
L 210.227277 266.672188 
L 211.136321 266.672188 
L 211.193401 265.962918 
L 211.467137 265.962918 
L 211.49428 265.253647 
L 211.580979 265.253647 
L 211.580979 264.899012 
L 211.86183 264.899012 
L 211.86183 264.544376 
L 212.460352 264.544376 
L 212.460352 264.189741 
L 212.886861 264.189741 
L 212.886861 263.835106 
L 213.166002 263.835106 
L 213.166002 263.480471 
L 213.624772 263.480471 
L 213.717304 262.416565 
L 213.889194 262.416565 
L 213.889194 262.061929 
L 214.339807 262.061929 
L 214.339807 261.707294 
L 214.78043 261.707294 
L 214.877254 259.934118 
L 215.851959 259.934118 
L 215.851959 259.579482 
L 215.996573 259.579482 
L 216.099723 258.870212 
L 216.906652 258.870212 
L 216.906652 258.515576 
L 217.072405 258.515576 
L 217.155126 257.806306 
L 217.656869 257.806306 
L 217.656869 257.451671 
L 218.751981 257.451671 
L 218.829613 256.387765 
L 220.404497 256.387765 
L 220.404497 256.033129 
L 220.84412 256.033129 
L 220.84412 255.678494 
L 221.261329 255.678494 
L 221.261329 255.323859 
L 221.494119 255.323859 
L 221.494119 254.969224 
L 222.231425 254.969224 
L 222.231425 254.614588 
L 222.953453 254.614588 
L 222.953453 254.259953 
L 223.536672 254.259953 
L 223.536672 253.905318 
L 224.88867 253.905318 
L 224.88867 253.550682 
L 225.549801 253.550682 
L 225.549801 253.196047 
L 226.119388 253.196047 
L 226.119388 252.841412 
L 227.850371 252.841412 
L 227.850371 252.486776 
L 228.401788 252.486776 
L 228.401788 252.132141 
L 228.553708 252.132141 
L 228.553708 251.777506 
L 230.808195 251.777506 
L 230.808195 251.422871 
L 232.66023 251.422871 
L 232.66023 251.068235 
L 235.480356 251.068235 
L 235.480356 250.7136 
L 274.913834 250.7136 
L 275.004557 248.585788 
L 275.051243 248.585788 
L 275.143063 246.812612 
L 275.225197 246.812612 
L 275.328987 244.6848 
L 275.372696 244.6848 
L 275.40917 243.975529 
L 275.758204 243.975529 
L 275.770505 243.266259 
L 276.139818 243.266259 
L 276.139818 242.911624 
L 276.439027 242.911624 
L 276.439027 242.556988 
L 287.54817 242.556988 
L 287.54817 242.202353 
L 287.759483 242.202353 
L 287.8005 240.783812 
L 287.911353 240.783812 
L 288.000053 240.074541 
L 288.022906 240.074541 
L 288.130492 239.365271 
L 288.380698 239.365271 
L 288.380698 237.946729 
L 295.065253 237.946729 
L 295.170512 236.173553 
L 295.207219 236.173553 
L 295.309573 233.691106 
L 295.369477 233.691106 
L 295.369477 233.336471 
L 300.464935 233.336471 
L 300.549288 232.272565 
L 300.593635 232.272565 
L 300.66255 230.854024 
L 300.717574 230.854024 
L 300.717574 230.499388 
L 304.632722 230.499388 
L 304.733596 228.726212 
L 304.823514 228.726212 
L 304.823514 228.371576 
L 308.032478 228.371576 
L 308.116711 227.662306 
L 308.147059 227.662306 
L 308.191858 225.889129 
L 310.903142 225.889129 
L 311.009203 222.342776 
L 313.469998 222.342776 
L 313.492834 221.633506 
L 313.591744 221.633506 
L 313.591744 221.278871 
L 315.609806 221.278871 
L 315.666153 220.214965 
L 317.581765 220.214965 
L 317.650817 219.505694 
L 317.730153 219.505694 
L 317.730153 219.151059 
L 319.366482 219.151059 
L 319.453901 217.377882 
L 321.01277 217.377882 
L 321.12029 215.959341 
L 322.570429 215.959341 
L 322.570429 215.604706 
L 323.885499 215.604706 
L 323.921811 214.186165 
L 325.179053 214.186165 
L 325.243274 212.058353 
L 326.435582 212.058353 
L 326.449578 211.349082 
L 327.538001 211.349082 
L 327.614069 210.285176 
L 328.595743 210.285176 
L 328.637223 208.512 
L 329.623511 208.512 
L 329.625548 207.802729 
L 330.587455 207.802729 
L 330.623937 207.093459 
L 331.500716 207.093459 
L 331.500716 206.738824 
L 332.432298 206.738824 
L 332.432298 206.384188 
L 333.240898 206.384188 
L 333.240898 206.029553 
L 334.77373 206.029553 
L 334.77373 205.674918 
L 335.52033 205.674918 
L 335.52033 205.320282 
L 336.235083 205.320282 
L 336.235083 204.965647 
L 336.945629 204.965647 
L 336.945629 204.611012 
L 337.55134 204.611012 
L 337.559446 203.547106 
L 339.430403 203.547106 
L 339.430403 203.192471 
L 340.559403 203.192471 
L 340.559403 202.837835 
L 341.089147 202.837835 
L 341.126199 202.128565 
L 341.63959 202.128565 
L 341.63959 201.773929 
L 342.633686 201.773929 
L 342.633686 201.419294 
L 343.121581 201.419294 
L 343.121581 201.064659 
L 345.389486 201.064659 
L 345.389486 200.710024 
L 346.654349 200.710024 
L 346.654349 200.355388 
L 348.171148 200.355388 
L 348.171148 200.000753 
L 350.89619 200.000753 
L 350.89619 199.646118 
L 351.216784 199.646118 
L 351.216784 199.291482 
L 353.567726 199.291482 
L 353.567726 198.936847 
L 355.675432 198.936847 
L 355.675432 198.582212 
L 355.908135 198.582212 
L 355.908135 198.227576 
L 357.318333 198.227576 
L 357.318333 197.872941 
L 360.8064 197.872941 
L 360.8064 197.872941 
" style="fill: none; stroke: #ff00ff; stroke-width: 1.5; stroke-linecap: square"/>
   </g>
   <g id="line2d_41">
    <defs>
     <path id="m525e0fa0bb" d="M 0 8.485281 
L 5.091169 0 
L 0 -8.485281 
L -5.091169 0 
z
" style="stroke: #ff00ff; stroke-width: 1.5; stroke-linejoin: miter"/>
    </defs>
    <g>
     <use xlink:href="#m525e0fa0bb" x="205.971697" y="273.055624" style="fill-opacity: 0; stroke: #ff00ff; stroke-width: 1.5; stroke-linejoin: miter"/>
     <use xlink:href="#m525e0fa0bb" x="295.065253" y="237.946729" style="fill-opacity: 0; stroke: #ff00ff; stroke-width: 1.5; stroke-linejoin: miter"/>
     <use xlink:href="#m525e0fa0bb" x="357.318333" y="197.872941" style="fill-opacity: 0; stroke: #ff00ff; stroke-width: 1.5; stroke-linejoin: miter"/>
     <use xlink:href="#m525e0fa0bb" x="357.318333" y="197.872941" style="fill-opacity: 0; stroke: #ff00ff; stroke-width: 1.5; stroke-linejoin: miter"/>
     <use xlink:href="#m525e0fa0bb" x="360.8064" y="197.872941" style="fill-opacity: 0; stroke: #ff00ff; stroke-width: 1.5; stroke-linejoin: miter"/>
    </g>
   </g>
   <g id="line2d_42">
    <path style="fill: none; stroke: #ff00ff; stroke-width: 1.5; stroke-linecap: square"/>
    <g/>
   </g>
   <g id="line2d_43">
    <path d="M 274.176 250.7136 
" clip-path="url(#pee3c9626d9)" style="fill: none; stroke: #ff00ff; stroke-width: 1.5; stroke-linecap: square"/>
    <defs>
     <path id="m9db3265bcf" d="M -12 12 
L 12 -12 
M -12 -12 
L 12 12 
" style="stroke: #ff00ff"/>
    </defs>
    <g clip-path="url(#pee3c9626d9)">
     <use xlink:href="#m9db3265bcf" x="274.176" y="250.7136" style="fill: #ff00ff; stroke: #ff00ff"/>
    </g>
   </g>
   <g id="line2d_44">
    <path d="M 360.8064 197.872941 
L 380.514816 293.51808 
" style="fill: none; stroke: #ff00ff; stroke-width: 1.5; stroke-linecap: square"/>
    <g>
     <use xlink:href="#m525e0fa0bb" x="360.8064" y="197.872941" style="fill-opacity: 0; stroke: #ff00ff; stroke-width: 1.5; stroke-linejoin: miter"/>
     <use xlink:href="#m525e0fa0bb" x="380.514816" y="293.51808" style="fill-opacity: 0; stroke: #ff00ff; stroke-width: 1.5; stroke-linejoin: miter"/>
    </g>
   </g>
   <g id="line2d_45">
    <path d="M 360.8064 27.648 
L 380.514816 163.296 
" style="fill: none; stroke: #000080; stroke-width: 1.5; stroke-linecap: square"/>
    <g>
     <use xlink:href="#m64c1ea17ba" x="360.8064" y="27.648" style="fill-opacity: 0; stroke: #000080; stroke-width: 1.5"/>
     <use xlink:href="#m64c1ea17ba" x="380.514816" y="163.296" style="fill-opacity: 0; stroke: #000080; stroke-width: 1.5"/>
    </g>
   </g>
   <g id="line2d_46">
    <path d="M 360.8064 298.944 
L 360.8064 27.648 
" style="fill: none; stroke: #000000; stroke-width: 1.5; stroke-linecap: square"/>
   </g>
   <g id="patch_3">
    <path d="M 57.6 298.944 
L 360.8064 298.944 
" style="fill: none; stroke: #000000; stroke-width: 0.8; stroke-linejoin: miter; stroke-linecap: square"/>
   </g>
   <g id="patch_4">
    <path d="M 57.6 27.648 
L 360.8064 27.648 
" style="fill: none; stroke: #000000; stroke-width: 0.8; stroke-linejoin: miter; stroke-linecap: square"/>
   </g>
   <g id="text_13">
    <!-- GA -->
    <g transform="translate(386.578944 297.381205)scale(0.14 -0.14)">
     <defs>
      <path id="DejaVuSans-47" d="M 3809 666 
L 3809 1919 
L 2778 1919 
L 2778 2438 
L 4434 2438 
L 4434 434 
Q 4069 175 3628 42 
Q 3188 -91 2688 -91 
Q 1594 -91 976 548 
Q 359 1188 359 2328 
Q 359 3472 976 4111 
Q 1594 4750 2688 4750 
Q 3144 4750 3555 4637 
Q 3966 4525 4313 4306 
L 4313 3634 
Q 3963 3931 3569 4081 
Q 3175 4231 2741 4231 
Q 1884 4231 1454 3753 
Q 1025 3275 1025 2328 
Q 1025 1384 1454 906 
Q 1884 428 2741 428 
Q 3075 428 3337 486 
Q 3600 544 3809 666 
z
" transform="scale(0.015625)"/>
      <path id="DejaVuSans-41" d="M 2188 4044 
L 1331 1722 
L 3047 1722 
L 2188 4044 
z
M 1831 4666 
L 2547 4666 
L 4325 0 
L 3669 0 
L 3244 1197 
L 1141 1197 
L 716 0 
L 50 0 
L 1831 4666 
z
" transform="scale(0.015625)"/>
     </defs>
     <use xlink:href="#DejaVuSans-47"/>
     <use xlink:href="#DejaVuSans-41" x="77.490234"/>
    </g>
   </g>
   <g id="text_14">
    <!-- LCGA -->
    <g transform="translate(386.578944 167.159125)scale(0.14 -0.14)">
     <defs>
      <path id="DejaVuSans-4c" d="M 628 4666 
L 1259 4666 
L 1259 531 
L 3531 531 
L 3531 0 
L 628 0 
L 628 4666 
z
" transform="scale(0.015625)"/>
      <path id="DejaVuSans-43" d="M 4122 4306 
L 4122 3641 
Q 3803 3938 3442 4084 
Q 3081 4231 2675 4231 
Q 1875 4231 1450 3742 
Q 1025 3253 1025 2328 
Q 1025 1406 1450 917 
Q 1875 428 2675 428 
Q 3081 428 3442 575 
Q 3803 722 4122 1019 
L 4122 359 
Q 3791 134 3420 21 
Q 3050 -91 2638 -91 
Q 1578 -91 968 557 
Q 359 1206 359 2328 
Q 359 3453 968 4101 
Q 1578 4750 2638 4750 
Q 3056 4750 3426 4639 
Q 3797 4528 4122 4306 
z
" transform="scale(0.015625)"/>
     </defs>
     <use xlink:href="#DejaVuSans-4c"/>
     <use xlink:href="#DejaVuSans-43" x="55.712891"/>
     <use xlink:href="#DejaVuSans-47" x="125.537109"/>
     <use xlink:href="#DejaVuSans-41" x="203.027344"/>
    </g>
   </g>
   <g id="text_15">
    <!-- best 2009 -->
    <g transform="translate(386.578944 36.937045)scale(0.14 -0.14)">
     <defs>
      <path id="DejaVuSans-62" d="M 3116 1747 
Q 3116 2381 2855 2742 
Q 2594 3103 2138 3103 
Q 1681 3103 1420 2742 
Q 1159 2381 1159 1747 
Q 1159 1113 1420 752 
Q 1681 391 2138 391 
Q 2594 391 2855 752 
Q 3116 1113 3116 1747 
z
M 1159 2969 
Q 1341 3281 1617 3432 
Q 1894 3584 2278 3584 
Q 2916 3584 3314 3078 
Q 3713 2572 3713 1747 
Q 3713 922 3314 415 
Q 2916 -91 2278 -91 
Q 1894 -91 1617 61 
Q 1341 213 1159 525 
L 1159 0 
L 581 0 
L 581 4863 
L 1159 4863 
L 1159 2969 
z
" transform="scale(0.015625)"/>
      <path id="DejaVuSans-39" d="M 703 97 
L 703 672 
Q 941 559 1184 500 
Q 1428 441 1663 441 
Q 2288 441 2617 861 
Q 2947 1281 2994 2138 
Q 2813 1869 2534 1725 
Q 2256 1581 1919 1581 
Q 1219 1581 811 2004 
Q 403 2428 403 3163 
Q 403 3881 828 4315 
Q 1253 4750 1959 4750 
Q 2769 4750 3195 4129 
Q 3622 3509 3622 2328 
Q 3622 1225 3098 567 
Q 2575 -91 1691 -91 
Q 1453 -91 1209 -44 
Q 966 3 703 97 
z
M 1959 2075 
Q 2384 2075 2632 2365 
Q 2881 2656 2881 3163 
Q 2881 3666 2632 3958 
Q 2384 4250 1959 4250 
Q 1534 4250 1286 3958 
Q 1038 3666 1038 3163 
Q 1038 2656 1286 2365 
Q 1534 2075 1959 2075 
z
" transform="scale(0.015625)"/>
     </defs>
     <use xlink:href="#DejaVuSans-62"/>
     <use xlink:href="#DejaVuSans-65" x="63.476562"/>
     <use xlink:href="#DejaVuSans-73" x="125"/>
     <use xlink:href="#DejaVuSans-74" x="177.099609"/>
     <use xlink:href="#DejaVuSans-20" x="216.308594"/>
     <use xlink:href="#DejaVuSans-32" x="248.095703"/>
     <use xlink:href="#DejaVuSans-30" x="311.71875"/>
     <use xlink:href="#DejaVuSans-30" x="375.341797"/>
     <use xlink:href="#DejaVuSans-39" x="438.964844"/>
    </g>
   </g>
   <g id="text_16">
    <!-- bbob f21, 40-D -->
    <g transform="translate(60.632064 38.111366)scale(0.102 -0.102)">
     <defs>
      <path id="DejaVuSans-44" d="M 1259 4147 
L 1259 519 
L 2022 519 
Q 2988 519 3436 956 
Q 3884 1394 3884 2338 
Q 3884 3275 3436 3711 
Q 2988 4147 2022 4147 
L 1259 4147 
z
M 628 4666 
L 1925 4666 
Q 3281 4666 3915 4102 
Q 4550 3538 4550 2338 
Q 4550 1131 3912 565 
Q 3275 0 1925 0 
L 628 0 
L 628 4666 
z
" transform="scale(0.015625)"/>
     </defs>
     <use xlink:href="#DejaVuSans-62"/>
     <use xlink:href="#DejaVuSans-62" x="63.476562"/>
     <use xlink:href="#DejaVuSans-6f" x="126.953125"/>
     <use xlink:href="#DejaVuSans-62" x="188.134766"/>
     <use xlink:href="#DejaVuSans-20" x="251.611328"/>
     <use xlink:href="#DejaVuSans-66" x="283.398438"/>
     <use xlink:href="#DejaVuSans-32" x="318.603516"/>
     <use xlink:href="#DejaVuSans-31" x="382.226562"/>
     <use xlink:href="#DejaVuSans-2c" x="445.849609"/>
     <use xlink:href="#DejaVuSans-20" x="477.636719"/>
     <use xlink:href="#DejaVuSans-34" x="509.423828"/>
     <use xlink:href="#DejaVuSans-30" x="573.046875"/>
     <use xlink:href="#DejaVuSans-2d" x="636.669922"/>
     <use xlink:href="#DejaVuSans-44" x="672.753906"/>
    </g>
    <!-- 51 targets: 100..1e-08 -->
    <g transform="translate(60.632064 49.533135)scale(0.102 -0.102)">
     <defs>
      <path id="DejaVuSans-35" d="M 691 4666 
L 3169 4666 
L 3169 4134 
L 1269 4134 
L 1269 2991 
Q 1406 3038 1543 3061 
Q 1681 3084 1819 3084 
Q 2600 3084 3056 2656 
Q 3513 2228 3513 1497 
Q 3513 744 3044 326 
Q 2575 -91 1722 -91 
Q 1428 -91 1123 -41 
Q 819 9 494 109 
L 494 744 
Q 775 591 1075 516 
Q 1375 441 1709 441 
Q 2250 441 2565 725 
Q 2881 1009 2881 1497 
Q 2881 1984 2565 2268 
Q 2250 2553 1709 2553 
Q 1456 2553 1204 2497 
Q 953 2441 691 2322 
L 691 4666 
z
" transform="scale(0.015625)"/>
      <path id="DejaVuSans-3a" d="M 750 794 
L 1409 794 
L 1409 0 
L 750 0 
L 750 794 
z
M 750 3309 
L 1409 3309 
L 1409 2516 
L 750 2516 
L 750 3309 
z
" transform="scale(0.015625)"/>
     </defs>
     <use xlink:href="#DejaVuSans-35"/>
     <use xlink:href="#DejaVuSans-31" x="63.623047"/>
     <use xlink:href="#DejaVuSans-20" x="127.246094"/>
     <use xlink:href="#DejaVuSans-74" x="159.033203"/>
     <use xlink:href="#DejaVuSans-61" x="198.242188"/>
     <use xlink:href="#DejaVuSans-72" x="259.521484"/>
     <use xlink:href="#DejaVuSans-67" x="298.884766"/>
     <use xlink:href="#DejaVuSans-65" x="362.361328"/>
     <use xlink:href="#DejaVuSans-74" x="423.884766"/>
     <use xlink:href="#DejaVuSans-73" x="463.09375"/>
     <use xlink:href="#DejaVuSans-3a" x="515.193359"/>
     <use xlink:href="#DejaVuSans-20" x="548.884766"/>
     <use xlink:href="#DejaVuSans-31" x="580.671875"/>
     <use xlink:href="#DejaVuSans-30" x="644.294922"/>
     <use xlink:href="#DejaVuSans-30" x="707.917969"/>
     <use xlink:href="#DejaVuSans-2e" x="771.541016"/>
     <use xlink:href="#DejaVuSans-2e" x="803.328125"/>
     <use xlink:href="#DejaVuSans-31" x="835.115234"/>
     <use xlink:href="#DejaVuSans-65" x="898.738281"/>
     <use xlink:href="#DejaVuSans-2d" x="960.261719"/>
     <use xlink:href="#DejaVuSans-30" x="996.345703"/>
     <use xlink:href="#DejaVuSans-38" x="1059.96875"/>
    </g>
    <!-- 15 instances -->
    <g transform="translate(60.632064 60.954904)scale(0.102 -0.102)">
     <use xlink:href="#DejaVuSans-31"/>
     <use xlink:href="#DejaVuSans-35" x="63.623047"/>
     <use xlink:href="#DejaVuSans-20" x="127.246094"/>
     <use xlink:href="#DejaVuSans-69" x="159.033203"/>
     <use xlink:href="#DejaVuSans-6e" x="186.816406"/>
     <use xlink:href="#DejaVuSans-73" x="250.195312"/>
     <use xlink:href="#DejaVuSans-74" x="302.294922"/>
     <use xlink:href="#DejaVuSans-61" x="341.503906"/>
     <use xlink:href="#DejaVuSans-6e" x="402.783203"/>
     <use xlink:href="#DejaVuSans-63" x="466.162109"/>
     <use xlink:href="#DejaVuSans-65" x="521.142578"/>
     <use xlink:href="#DejaVuSans-73" x="582.666016"/>
    </g>
   </g>
   <g id="text_17">
    <!-- v2.6 -->
    <g style="fill: #808080" transform="translate(198.292262 294.151352)scale(0.1 -0.1)">
     <use xlink:href="#DejaVuSans-76"/>
     <use xlink:href="#DejaVuSans-32" x="59.179688"/>
     <use xlink:href="#DejaVuSans-2e" x="122.802734"/>
     <use xlink:href="#DejaVuSans-36" x="154.589844"/>
    </g>
   </g>
   <g id="text_18">
    <!-- 21 Gallagher 101 peaks -->
    <g transform="translate(89.7157 21.648)scale(0.2 -0.2)">
     <defs>
      <path id="DejaVuSans-68" d="M 3513 2113 
L 3513 0 
L 2938 0 
L 2938 2094 
Q 2938 2591 2744 2837 
Q 2550 3084 2163 3084 
Q 1697 3084 1428 2787 
Q 1159 2491 1159 1978 
L 1159 0 
L 581 0 
L 581 4863 
L 1159 4863 
L 1159 2956 
Q 1366 3272 1645 3428 
Q 1925 3584 2291 3584 
Q 2894 3584 3203 3211 
Q 3513 2838 3513 2113 
z
" transform="scale(0.015625)"/>
      <path id="DejaVuSans-6b" d="M 581 4863 
L 1159 4863 
L 1159 1991 
L 2875 3500 
L 3609 3500 
L 1753 1863 
L 3688 0 
L 2938 0 
L 1159 1709 
L 1159 0 
L 581 0 
L 581 4863 
z
" transform="scale(0.015625)"/>
     </defs>
     <use xlink:href="#DejaVuSans-32"/>
     <use xlink:href="#DejaVuSans-31" x="63.623047"/>
     <use xlink:href="#DejaVuSans-20" x="127.246094"/>
     <use xlink:href="#DejaVuSans-47" x="159.033203"/>
     <use xlink:href="#DejaVuSans-61" x="236.523438"/>
     <use xlink:href="#DejaVuSans-6c" x="297.802734"/>
     <use xlink:href="#DejaVuSans-6c" x="325.585938"/>
     <use xlink:href="#DejaVuSans-61" x="353.369141"/>
     <use xlink:href="#DejaVuSans-67" x="414.648438"/>
     <use xlink:href="#DejaVuSans-68" x="478.125"/>
     <use xlink:href="#DejaVuSans-65" x="541.503906"/>
     <use xlink:href="#DejaVuSans-72" x="603.027344"/>
     <use xlink:href="#DejaVuSans-20" x="644.140625"/>
     <use xlink:href="#DejaVuSans-31" x="675.927734"/>
     <use xlink:href="#DejaVuSans-30" x="739.550781"/>
     <use xlink:href="#DejaVuSans-31" x="803.173828"/>
     <use xlink:href="#DejaVuSans-20" x="866.796875"/>
     <use xlink:href="#DejaVuSans-70" x="898.583984"/>
     <use xlink:href="#DejaVuSans-65" x="962.060547"/>
     <use xlink:href="#DejaVuSans-61" x="1023.583984"/>
     <use xlink:href="#DejaVuSans-6b" x="1084.863281"/>
     <use xlink:href="#DejaVuSans-73" x="1142.773438"/>
    </g>
   </g>
  </g>
 </g>
 <defs>
  <clipPath id="pee3c9626d9">
   <rect x="57.6" y="27.648" width="303.2064" height="271.296"/>
  </clipPath>
 </defs>
</svg>
