<?xml version="1.0" encoding="utf-8" standalone="no"?>
<!DOCTYPE svg PUBLIC "-//W3C//DTD SVG 1.1//EN"
  "http://www.w3.org/Graphics/SVG/1.1/DTD/svg11.dtd">
<svg xmlns:xlink="http://www.w3.org/1999/xlink" width="460.8pt" height="345.6pt" viewBox="0 0 460.8 345.6" xmlns="http://www.w3.org/2000/svg" version="1.1">
 <metadata>
  <rdf:RDF xmlns:dc="http://purl.org/dc/elements/1.1/" xmlns:cc="http://creativecommons.org/ns#" xmlns:rdf="http://www.w3.org/1999/02/22-rdf-syntax-ns#">
   <cc:Work>
    <dc:type rdf:resource="http://purl.org/dc/dcmitype/StillImage"/>
    <dc:date>2024-05-29T07:56:43.942233</dc:date>
    <dc:format>image/svg+xml</dc:format>
    <dc:creator>
     <cc:Agent>
      <dc:title>Matplotlib v3.5.1, https://matplotlib.org/</dc:title>
     </cc:Agent>
    </dc:creator>
   </cc:Work>
  </rdf:RDF>
 </metadata>
 <defs>
  <style type="text/css">*{stroke-linejoin: round; stroke-linecap: butt}</style>
 </defs>
 <g id="figure_1">
  <g id="patch_1">
   <path d="M 0 345.6 
L 460.8 345.6 
L 460.8 0 
L 0 0 
z
" style="fill: #ffffff"/>
  </g>
  <g id="axes_1">
   <g id="patch_2">
    <path d="M 57.6 298.944 
L 360.8064 298.944 
L 360.8064 6.912 
L 57.6 6.912 
z
" style="fill: #ffffff"/>
   </g>
   <g id="matplotlib.axis_1">
    <g id="xtick_1">
     <g id="line2d_1">
      <path d="M 57.6 298.944 
L 57.6 6.912 
" clip-path="url(#pe414c5cb9a)" style="fill: none; stroke: #b0b0b0; stroke-width: 0.8; stroke-linecap: square"/>
     </g>
     <g id="line2d_2">
      <defs>
       <path id="mdf618fa8fc" d="M 0 0 
L 0 3.5 
" style="stroke: #000000; stroke-width: 0.8"/>
      </defs>
      <g>
       <use xlink:href="#mdf618fa8fc" x="57.6" y="298.944" style="stroke: #000000; stroke-width: 0.8"/>
      </g>
     </g>
     <g id="text_1">
      <!-- 0 -->
      <g transform="translate(52.191875 318.861344)scale(0.17 -0.17)">
       <defs>
        <path id="DejaVuSans-30" d="M 2034 4250 
Q 1547 4250 1301 3770 
Q 1056 3291 1056 2328 
Q 1056 1369 1301 889 
Q 1547 409 2034 409 
Q 2525 409 2770 889 
Q 3016 1369 3016 2328 
Q 3016 3291 2770 3770 
Q 2525 4250 2034 4250 
z
M 2034 4750 
Q 2819 4750 3233 4129 
Q 3647 3509 3647 2328 
Q 3647 1150 3233 529 
Q 2819 -91 2034 -91 
Q 1250 -91 836 529 
Q 422 1150 422 2328 
Q 422 3509 836 4129 
Q 1250 4750 2034 4750 
z
" transform="scale(0.015625)"/>
       </defs>
       <use xlink:href="#DejaVuSans-30"/>
      </g>
     </g>
    </g>
    <g id="xtick_2">
     <g id="line2d_3">
      <path d="M 144.2304 298.944 
L 144.2304 6.912 
" clip-path="url(#pe414c5cb9a)" style="fill: none; stroke: #b0b0b0; stroke-width: 0.8; stroke-linecap: square"/>
     </g>
     <g id="line2d_4">
      <g>
       <use xlink:href="#mdf618fa8fc" x="144.2304" y="298.944" style="stroke: #000000; stroke-width: 0.8"/>
      </g>
     </g>
     <g id="text_2">
      <!-- 2 -->
      <g transform="translate(138.822275 318.861344)scale(0.17 -0.17)">
       <defs>
        <path id="DejaVuSans-32" d="M 1228 531 
L 3431 531 
L 3431 0 
L 469 0 
L 469 531 
Q 828 903 1448 1529 
Q 2069 2156 2228 2338 
Q 2531 2678 2651 2914 
Q 2772 3150 2772 3378 
Q 2772 3750 2511 3984 
Q 2250 4219 1831 4219 
Q 1534 4219 1204 4116 
Q 875 4013 500 3803 
L 500 4441 
Q 881 4594 1212 4672 
Q 1544 4750 1819 4750 
Q 2544 4750 2975 4387 
Q 3406 4025 3406 3419 
Q 3406 3131 3298 2873 
Q 3191 2616 2906 2266 
Q 2828 2175 2409 1742 
Q 1991 1309 1228 531 
z
" transform="scale(0.015625)"/>
       </defs>
       <use xlink:href="#DejaVuSans-32"/>
      </g>
     </g>
    </g>
    <g id="xtick_3">
     <g id="line2d_5">
      <path d="M 230.8608 298.944 
L 230.8608 6.912 
" clip-path="url(#pe414c5cb9a)" style="fill: none; stroke: #b0b0b0; stroke-width: 0.8; stroke-linecap: square"/>
     </g>
     <g id="line2d_6">
      <g>
       <use xlink:href="#mdf618fa8fc" x="230.8608" y="298.944" style="stroke: #000000; stroke-width: 0.8"/>
      </g>
     </g>
     <g id="text_3">
      <!-- 4 -->
      <g transform="translate(225.452675 318.861344)scale(0.17 -0.17)">
       <defs>
        <path id="DejaVuSans-34" d="M 2419 4116 
L 825 1625 
L 2419 1625 
L 2419 4116 
z
M 2253 4666 
L 3047 4666 
L 3047 1625 
L 3713 1625 
L 3713 1100 
L 3047 1100 
L 3047 0 
L 2419 0 
L 2419 1100 
L 313 1100 
L 313 1709 
L 2253 4666 
z
" transform="scale(0.015625)"/>
       </defs>
       <use xlink:href="#DejaVuSans-34"/>
      </g>
     </g>
    </g>
    <g id="xtick_4">
     <g id="line2d_7">
      <path d="M 317.4912 298.944 
L 317.4912 6.912 
" clip-path="url(#pe414c5cb9a)" style="fill: none; stroke: #b0b0b0; stroke-width: 0.8; stroke-linecap: square"/>
     </g>
     <g id="line2d_8">
      <g>
       <use xlink:href="#mdf618fa8fc" x="317.4912" y="298.944" style="stroke: #000000; stroke-width: 0.8"/>
      </g>
     </g>
     <g id="text_4">
      <!-- 6 -->
      <g transform="translate(312.083075 318.861344)scale(0.17 -0.17)">
       <defs>
        <path id="DejaVuSans-36" d="M 2113 2584 
Q 1688 2584 1439 2293 
Q 1191 2003 1191 1497 
Q 1191 994 1439 701 
Q 1688 409 2113 409 
Q 2538 409 2786 701 
Q 3034 994 3034 1497 
Q 3034 2003 2786 2293 
Q 2538 2584 2113 2584 
z
M 3366 4563 
L 3366 3988 
Q 3128 4100 2886 4159 
Q 2644 4219 2406 4219 
Q 1781 4219 1451 3797 
Q 1122 3375 1075 2522 
Q 1259 2794 1537 2939 
Q 1816 3084 2150 3084 
Q 2853 3084 3261 2657 
Q 3669 2231 3669 1497 
Q 3669 778 3244 343 
Q 2819 -91 2113 -91 
Q 1303 -91 875 529 
Q 447 1150 447 2328 
Q 447 3434 972 4092 
Q 1497 4750 2381 4750 
Q 2619 4750 2861 4703 
Q 3103 4656 3366 4563 
z
" transform="scale(0.015625)"/>
       </defs>
       <use xlink:href="#DejaVuSans-36"/>
      </g>
     </g>
    </g>
    <g id="xtick_5">
     <g id="line2d_9">
      <path d="M 100.9152 298.944 
L 100.9152 6.912 
" clip-path="url(#pe414c5cb9a)" style="fill: none; stroke: #b0b0b0; stroke-width: 0.8; stroke-linecap: square"/>
     </g>
     <g id="line2d_10">
      <defs>
       <path id="m7751bdb2b7" d="M 0 0 
L 0 2 
" style="stroke: #000000; stroke-width: 0.6"/>
      </defs>
      <g>
       <use xlink:href="#m7751bdb2b7" x="100.9152" y="298.944" style="stroke: #000000; stroke-width: 0.6"/>
      </g>
     </g>
    </g>
    <g id="xtick_6">
     <g id="line2d_11">
      <path d="M 187.5456 298.944 
L 187.5456 6.912 
" clip-path="url(#pe414c5cb9a)" style="fill: none; stroke: #b0b0b0; stroke-width: 0.8; stroke-linecap: square"/>
     </g>
     <g id="line2d_12">
      <g>
       <use xlink:href="#m7751bdb2b7" x="187.5456" y="298.944" style="stroke: #000000; stroke-width: 0.6"/>
      </g>
     </g>
    </g>
    <g id="xtick_7">
     <g id="line2d_13">
      <path d="M 274.176 298.944 
L 274.176 6.912 
" clip-path="url(#pe414c5cb9a)" style="fill: none; stroke: #b0b0b0; stroke-width: 0.8; stroke-linecap: square"/>
     </g>
     <g id="line2d_14">
      <g>
       <use xlink:href="#m7751bdb2b7" x="274.176" y="298.944" style="stroke: #000000; stroke-width: 0.6"/>
      </g>
     </g>
    </g>
    <g id="xtick_8">
     <g id="line2d_15">
      <path d="M 360.8064 298.944 
L 360.8064 6.912 
" clip-path="url(#pe414c5cb9a)" style="fill: none; stroke: #b0b0b0; stroke-width: 0.8; stroke-linecap: square"/>
     </g>
     <g id="line2d_16">
      <g>
       <use xlink:href="#m7751bdb2b7" x="360.8064" y="298.944" style="stroke: #000000; stroke-width: 0.6"/>
      </g>
     </g>
    </g>
    <g id="text_5">
     <!-- log10(# f-evals / dimension) -->
     <g transform="translate(88.823278 339.314156)scale(0.17 -0.17)">
      <defs>
       <path id="DejaVuSans-6c" d="M 603 4863 
L 1178 4863 
L 1178 0 
L 603 0 
L 603 4863 
z
" transform="scale(0.015625)"/>
       <path id="DejaVuSans-6f" d="M 1959 3097 
Q 1497 3097 1228 2736 
Q 959 2375 959 1747 
Q 959 1119 1226 758 
Q 1494 397 1959 397 
Q 2419 397 2687 759 
Q 2956 1122 2956 1747 
Q 2956 2369 2687 2733 
Q 2419 3097 1959 3097 
z
M 1959 3584 
Q 2709 3584 3137 3096 
Q 3566 2609 3566 1747 
Q 3566 888 3137 398 
Q 2709 -91 1959 -91 
Q 1206 -91 779 398 
Q 353 888 353 1747 
Q 353 2609 779 3096 
Q 1206 3584 1959 3584 
z
" transform="scale(0.015625)"/>
       <path id="DejaVuSans-67" d="M 2906 1791 
Q 2906 2416 2648 2759 
Q 2391 3103 1925 3103 
Q 1463 3103 1205 2759 
Q 947 2416 947 1791 
Q 947 1169 1205 825 
Q 1463 481 1925 481 
Q 2391 481 2648 825 
Q 2906 1169 2906 1791 
z
M 3481 434 
Q 3481 -459 3084 -895 
Q 2688 -1331 1869 -1331 
Q 1566 -1331 1297 -1286 
Q 1028 -1241 775 -1147 
L 775 -588 
Q 1028 -725 1275 -790 
Q 1522 -856 1778 -856 
Q 2344 -856 2625 -561 
Q 2906 -266 2906 331 
L 2906 616 
Q 2728 306 2450 153 
Q 2172 0 1784 0 
Q 1141 0 747 490 
Q 353 981 353 1791 
Q 353 2603 747 3093 
Q 1141 3584 1784 3584 
Q 2172 3584 2450 3431 
Q 2728 3278 2906 2969 
L 2906 3500 
L 3481 3500 
L 3481 434 
z
" transform="scale(0.015625)"/>
       <path id="DejaVuSans-31" d="M 794 531 
L 1825 531 
L 1825 4091 
L 703 3866 
L 703 4441 
L 1819 4666 
L 2450 4666 
L 2450 531 
L 3481 531 
L 3481 0 
L 794 0 
L 794 531 
z
" transform="scale(0.015625)"/>
       <path id="DejaVuSans-28" d="M 1984 4856 
Q 1566 4138 1362 3434 
Q 1159 2731 1159 2009 
Q 1159 1288 1364 580 
Q 1569 -128 1984 -844 
L 1484 -844 
Q 1016 -109 783 600 
Q 550 1309 550 2009 
Q 550 2706 781 3412 
Q 1013 4119 1484 4856 
L 1984 4856 
z
" transform="scale(0.015625)"/>
       <path id="DejaVuSans-23" d="M 3272 2816 
L 2363 2816 
L 2100 1772 
L 3016 1772 
L 3272 2816 
z
M 2803 4594 
L 2478 3297 
L 3391 3297 
L 3719 4594 
L 4219 4594 
L 3897 3297 
L 4872 3297 
L 4872 2816 
L 3775 2816 
L 3519 1772 
L 4513 1772 
L 4513 1294 
L 3397 1294 
L 3072 0 
L 2572 0 
L 2894 1294 
L 1978 1294 
L 1656 0 
L 1153 0 
L 1478 1294 
L 494 1294 
L 494 1772 
L 1594 1772 
L 1856 2816 
L 850 2816 
L 850 3297 
L 1978 3297 
L 2297 4594 
L 2803 4594 
z
" transform="scale(0.015625)"/>
       <path id="DejaVuSans-20" transform="scale(0.015625)"/>
       <path id="DejaVuSans-66" d="M 2375 4863 
L 2375 4384 
L 1825 4384 
Q 1516 4384 1395 4259 
Q 1275 4134 1275 3809 
L 1275 3500 
L 2222 3500 
L 2222 3053 
L 1275 3053 
L 1275 0 
L 697 0 
L 697 3053 
L 147 3053 
L 147 3500 
L 697 3500 
L 697 3744 
Q 697 4328 969 4595 
Q 1241 4863 1831 4863 
L 2375 4863 
z
" transform="scale(0.015625)"/>
       <path id="DejaVuSans-2d" d="M 313 2009 
L 1997 2009 
L 1997 1497 
L 313 1497 
L 313 2009 
z
" transform="scale(0.015625)"/>
       <path id="DejaVuSans-65" d="M 3597 1894 
L 3597 1613 
L 953 1613 
Q 991 1019 1311 708 
Q 1631 397 2203 397 
Q 2534 397 2845 478 
Q 3156 559 3463 722 
L 3463 178 
Q 3153 47 2828 -22 
Q 2503 -91 2169 -91 
Q 1331 -91 842 396 
Q 353 884 353 1716 
Q 353 2575 817 3079 
Q 1281 3584 2069 3584 
Q 2775 3584 3186 3129 
Q 3597 2675 3597 1894 
z
M 3022 2063 
Q 3016 2534 2758 2815 
Q 2500 3097 2075 3097 
Q 1594 3097 1305 2825 
Q 1016 2553 972 2059 
L 3022 2063 
z
" transform="scale(0.015625)"/>
       <path id="DejaVuSans-76" d="M 191 3500 
L 800 3500 
L 1894 563 
L 2988 3500 
L 3597 3500 
L 2284 0 
L 1503 0 
L 191 3500 
z
" transform="scale(0.015625)"/>
       <path id="DejaVuSans-61" d="M 2194 1759 
Q 1497 1759 1228 1600 
Q 959 1441 959 1056 
Q 959 750 1161 570 
Q 1363 391 1709 391 
Q 2188 391 2477 730 
Q 2766 1069 2766 1631 
L 2766 1759 
L 2194 1759 
z
M 3341 1997 
L 3341 0 
L 2766 0 
L 2766 531 
Q 2569 213 2275 61 
Q 1981 -91 1556 -91 
Q 1019 -91 701 211 
Q 384 513 384 1019 
Q 384 1609 779 1909 
Q 1175 2209 1959 2209 
L 2766 2209 
L 2766 2266 
Q 2766 2663 2505 2880 
Q 2244 3097 1772 3097 
Q 1472 3097 1187 3025 
Q 903 2953 641 2809 
L 641 3341 
Q 956 3463 1253 3523 
Q 1550 3584 1831 3584 
Q 2591 3584 2966 3190 
Q 3341 2797 3341 1997 
z
" transform="scale(0.015625)"/>
       <path id="DejaVuSans-73" d="M 2834 3397 
L 2834 2853 
Q 2591 2978 2328 3040 
Q 2066 3103 1784 3103 
Q 1356 3103 1142 2972 
Q 928 2841 928 2578 
Q 928 2378 1081 2264 
Q 1234 2150 1697 2047 
L 1894 2003 
Q 2506 1872 2764 1633 
Q 3022 1394 3022 966 
Q 3022 478 2636 193 
Q 2250 -91 1575 -91 
Q 1294 -91 989 -36 
Q 684 19 347 128 
L 347 722 
Q 666 556 975 473 
Q 1284 391 1588 391 
Q 1994 391 2212 530 
Q 2431 669 2431 922 
Q 2431 1156 2273 1281 
Q 2116 1406 1581 1522 
L 1381 1569 
Q 847 1681 609 1914 
Q 372 2147 372 2553 
Q 372 3047 722 3315 
Q 1072 3584 1716 3584 
Q 2034 3584 2315 3537 
Q 2597 3491 2834 3397 
z
" transform="scale(0.015625)"/>
       <path id="DejaVuSans-2f" d="M 1625 4666 
L 2156 4666 
L 531 -594 
L 0 -594 
L 1625 4666 
z
" transform="scale(0.015625)"/>
       <path id="DejaVuSans-64" d="M 2906 2969 
L 2906 4863 
L 3481 4863 
L 3481 0 
L 2906 0 
L 2906 525 
Q 2725 213 2448 61 
Q 2172 -91 1784 -91 
Q 1150 -91 751 415 
Q 353 922 353 1747 
Q 353 2572 751 3078 
Q 1150 3584 1784 3584 
Q 2172 3584 2448 3432 
Q 2725 3281 2906 2969 
z
M 947 1747 
Q 947 1113 1208 752 
Q 1469 391 1925 391 
Q 2381 391 2643 752 
Q 2906 1113 2906 1747 
Q 2906 2381 2643 2742 
Q 2381 3103 1925 3103 
Q 1469 3103 1208 2742 
Q 947 2381 947 1747 
z
" transform="scale(0.015625)"/>
       <path id="DejaVuSans-69" d="M 603 3500 
L 1178 3500 
L 1178 0 
L 603 0 
L 603 3500 
z
M 603 4863 
L 1178 4863 
L 1178 4134 
L 603 4134 
L 603 4863 
z
" transform="scale(0.015625)"/>
       <path id="DejaVuSans-6d" d="M 3328 2828 
Q 3544 3216 3844 3400 
Q 4144 3584 4550 3584 
Q 5097 3584 5394 3201 
Q 5691 2819 5691 2113 
L 5691 0 
L 5113 0 
L 5113 2094 
Q 5113 2597 4934 2840 
Q 4756 3084 4391 3084 
Q 3944 3084 3684 2787 
Q 3425 2491 3425 1978 
L 3425 0 
L 2847 0 
L 2847 2094 
Q 2847 2600 2669 2842 
Q 2491 3084 2119 3084 
Q 1678 3084 1418 2786 
Q 1159 2488 1159 1978 
L 1159 0 
L 581 0 
L 581 3500 
L 1159 3500 
L 1159 2956 
Q 1356 3278 1631 3431 
Q 1906 3584 2284 3584 
Q 2666 3584 2933 3390 
Q 3200 3197 3328 2828 
z
" transform="scale(0.015625)"/>
       <path id="DejaVuSans-6e" d="M 3513 2113 
L 3513 0 
L 2938 0 
L 2938 2094 
Q 2938 2591 2744 2837 
Q 2550 3084 2163 3084 
Q 1697 3084 1428 2787 
Q 1159 2491 1159 1978 
L 1159 0 
L 581 0 
L 581 3500 
L 1159 3500 
L 1159 2956 
Q 1366 3272 1645 3428 
Q 1925 3584 2291 3584 
Q 2894 3584 3203 3211 
Q 3513 2838 3513 2113 
z
" transform="scale(0.015625)"/>
       <path id="DejaVuSans-29" d="M 513 4856 
L 1013 4856 
Q 1481 4119 1714 3412 
Q 1947 2706 1947 2009 
Q 1947 1309 1714 600 
Q 1481 -109 1013 -844 
L 513 -844 
Q 928 -128 1133 580 
Q 1338 1288 1338 2009 
Q 1338 2731 1133 3434 
Q 928 4138 513 4856 
z
" transform="scale(0.015625)"/>
      </defs>
      <use xlink:href="#DejaVuSans-6c"/>
      <use xlink:href="#DejaVuSans-6f" x="27.783203"/>
      <use xlink:href="#DejaVuSans-67" x="88.964844"/>
      <use xlink:href="#DejaVuSans-31" x="152.441406"/>
      <use xlink:href="#DejaVuSans-30" x="216.064453"/>
      <use xlink:href="#DejaVuSans-28" x="279.6875"/>
      <use xlink:href="#DejaVuSans-23" x="318.701172"/>
      <use xlink:href="#DejaVuSans-20" x="402.490234"/>
      <use xlink:href="#DejaVuSans-66" x="434.277344"/>
      <use xlink:href="#DejaVuSans-2d" x="463.982422"/>
      <use xlink:href="#DejaVuSans-65" x="500.066406"/>
      <use xlink:href="#DejaVuSans-76" x="561.589844"/>
      <use xlink:href="#DejaVuSans-61" x="620.769531"/>
      <use xlink:href="#DejaVuSans-6c" x="682.048828"/>
      <use xlink:href="#DejaVuSans-73" x="709.832031"/>
      <use xlink:href="#DejaVuSans-20" x="761.931641"/>
      <use xlink:href="#DejaVuSans-2f" x="793.71875"/>
      <use xlink:href="#DejaVuSans-20" x="827.410156"/>
      <use xlink:href="#DejaVuSans-64" x="859.197266"/>
      <use xlink:href="#DejaVuSans-69" x="922.673828"/>
      <use xlink:href="#DejaVuSans-6d" x="950.457031"/>
      <use xlink:href="#DejaVuSans-65" x="1047.869141"/>
      <use xlink:href="#DejaVuSans-6e" x="1109.392578"/>
      <use xlink:href="#DejaVuSans-73" x="1172.771484"/>
      <use xlink:href="#DejaVuSans-69" x="1224.871094"/>
      <use xlink:href="#DejaVuSans-6f" x="1252.654297"/>
      <use xlink:href="#DejaVuSans-6e" x="1313.835938"/>
      <use xlink:href="#DejaVuSans-29" x="1377.214844"/>
     </g>
    </g>
   </g>
   <g id="matplotlib.axis_2">
    <g id="ytick_1">
     <g id="line2d_17">
      <path d="M 57.6 298.944 
L 360.8064 298.944 
" clip-path="url(#pe414c5cb9a)" style="fill: none; stroke: #b0b0b0; stroke-width: 0.8; stroke-linecap: square"/>
     </g>
     <g id="line2d_18">
      <defs>
       <path id="mcfce5537ec" d="M 0 0 
L -3.5 0 
" style="stroke: #000000; stroke-width: 0.8"/>
      </defs>
      <g>
       <use xlink:href="#mcfce5537ec" x="57.6" y="298.944" style="stroke: #000000; stroke-width: 0.8"/>
      </g>
     </g>
     <g id="text_6">
      <!-- 0.0 -->
      <g transform="translate(25.155 305.02275)scale(0.16 -0.16)">
       <defs>
        <path id="DejaVuSans-2e" d="M 684 794 
L 1344 794 
L 1344 0 
L 684 0 
L 684 794 
z
" transform="scale(0.015625)"/>
       </defs>
       <use xlink:href="#DejaVuSans-30"/>
       <use xlink:href="#DejaVuSans-2e" x="63.623047"/>
       <use xlink:href="#DejaVuSans-30" x="95.410156"/>
      </g>
     </g>
    </g>
    <g id="ytick_2">
     <g id="line2d_19">
      <path d="M 57.6 240.5376 
L 360.8064 240.5376 
" clip-path="url(#pe414c5cb9a)" style="fill: none; stroke: #b0b0b0; stroke-width: 0.8; stroke-linecap: square"/>
     </g>
     <g id="line2d_20">
      <g>
       <use xlink:href="#mcfce5537ec" x="57.6" y="240.5376" style="stroke: #000000; stroke-width: 0.8"/>
      </g>
     </g>
     <g id="text_7">
      <!-- 0.2 -->
      <g transform="translate(25.155 246.61635)scale(0.16 -0.16)">
       <use xlink:href="#DejaVuSans-30"/>
       <use xlink:href="#DejaVuSans-2e" x="63.623047"/>
       <use xlink:href="#DejaVuSans-32" x="95.410156"/>
      </g>
     </g>
    </g>
    <g id="ytick_3">
     <g id="line2d_21">
      <path d="M 57.6 182.1312 
L 360.8064 182.1312 
" clip-path="url(#pe414c5cb9a)" style="fill: none; stroke: #b0b0b0; stroke-width: 0.8; stroke-linecap: square"/>
     </g>
     <g id="line2d_22">
      <g>
       <use xlink:href="#mcfce5537ec" x="57.6" y="182.1312" style="stroke: #000000; stroke-width: 0.8"/>
      </g>
     </g>
     <g id="text_8">
      <!-- 0.4 -->
      <g transform="translate(25.155 188.20995)scale(0.16 -0.16)">
       <use xlink:href="#DejaVuSans-30"/>
       <use xlink:href="#DejaVuSans-2e" x="63.623047"/>
       <use xlink:href="#DejaVuSans-34" x="95.410156"/>
      </g>
     </g>
    </g>
    <g id="ytick_4">
     <g id="line2d_23">
      <path d="M 57.6 123.7248 
L 360.8064 123.7248 
" clip-path="url(#pe414c5cb9a)" style="fill: none; stroke: #b0b0b0; stroke-width: 0.8; stroke-linecap: square"/>
     </g>
     <g id="line2d_24">
      <g>
       <use xlink:href="#mcfce5537ec" x="57.6" y="123.7248" style="stroke: #000000; stroke-width: 0.8"/>
      </g>
     </g>
     <g id="text_9">
      <!-- 0.6 -->
      <g transform="translate(25.155 129.80355)scale(0.16 -0.16)">
       <use xlink:href="#DejaVuSans-30"/>
       <use xlink:href="#DejaVuSans-2e" x="63.623047"/>
       <use xlink:href="#DejaVuSans-36" x="95.410156"/>
      </g>
     </g>
    </g>
    <g id="ytick_5">
     <g id="line2d_25">
      <path d="M 57.6 65.3184 
L 360.8064 65.3184 
" clip-path="url(#pe414c5cb9a)" style="fill: none; stroke: #b0b0b0; stroke-width: 0.8; stroke-linecap: square"/>
     </g>
     <g id="line2d_26">
      <g>
       <use xlink:href="#mcfce5537ec" x="57.6" y="65.3184" style="stroke: #000000; stroke-width: 0.8"/>
      </g>
     </g>
     <g id="text_10">
      <!-- 0.8 -->
      <g transform="translate(25.155 71.39715)scale(0.16 -0.16)">
       <defs>
        <path id="DejaVuSans-38" d="M 2034 2216 
Q 1584 2216 1326 1975 
Q 1069 1734 1069 1313 
Q 1069 891 1326 650 
Q 1584 409 2034 409 
Q 2484 409 2743 651 
Q 3003 894 3003 1313 
Q 3003 1734 2745 1975 
Q 2488 2216 2034 2216 
z
M 1403 2484 
Q 997 2584 770 2862 
Q 544 3141 544 3541 
Q 544 4100 942 4425 
Q 1341 4750 2034 4750 
Q 2731 4750 3128 4425 
Q 3525 4100 3525 3541 
Q 3525 3141 3298 2862 
Q 3072 2584 2669 2484 
Q 3125 2378 3379 2068 
Q 3634 1759 3634 1313 
Q 3634 634 3220 271 
Q 2806 -91 2034 -91 
Q 1263 -91 848 271 
Q 434 634 434 1313 
Q 434 1759 690 2068 
Q 947 2378 1403 2484 
z
M 1172 3481 
Q 1172 3119 1398 2916 
Q 1625 2713 2034 2713 
Q 2441 2713 2670 2916 
Q 2900 3119 2900 3481 
Q 2900 3844 2670 4047 
Q 2441 4250 2034 4250 
Q 1625 4250 1398 4047 
Q 1172 3844 1172 3481 
z
" transform="scale(0.015625)"/>
       </defs>
       <use xlink:href="#DejaVuSans-30"/>
       <use xlink:href="#DejaVuSans-2e" x="63.623047"/>
       <use xlink:href="#DejaVuSans-38" x="95.410156"/>
      </g>
     </g>
    </g>
    <g id="ytick_6">
     <g id="line2d_27">
      <path d="M 57.6 6.912 
L 360.8064 6.912 
" clip-path="url(#pe414c5cb9a)" style="fill: none; stroke: #b0b0b0; stroke-width: 0.8; stroke-linecap: square"/>
     </g>
     <g id="line2d_28">
      <g>
       <use xlink:href="#mcfce5537ec" x="57.6" y="6.912" style="stroke: #000000; stroke-width: 0.8"/>
      </g>
     </g>
     <g id="text_11">
      <!-- 1.0 -->
      <g transform="translate(25.155 12.99075)scale(0.16 -0.16)">
       <use xlink:href="#DejaVuSans-31"/>
       <use xlink:href="#DejaVuSans-2e" x="63.623047"/>
       <use xlink:href="#DejaVuSans-30" x="95.410156"/>
      </g>
     </g>
    </g>
    <g id="text_12">
     <!-- Fraction of function,target pairs -->
     <g transform="translate(17.619531 287.313)rotate(-90)scale(0.17 -0.17)">
      <defs>
       <path id="DejaVuSans-46" d="M 628 4666 
L 3309 4666 
L 3309 4134 
L 1259 4134 
L 1259 2759 
L 3109 2759 
L 3109 2228 
L 1259 2228 
L 1259 0 
L 628 0 
L 628 4666 
z
" transform="scale(0.015625)"/>
       <path id="DejaVuSans-72" d="M 2631 2963 
Q 2534 3019 2420 3045 
Q 2306 3072 2169 3072 
Q 1681 3072 1420 2755 
Q 1159 2438 1159 1844 
L 1159 0 
L 581 0 
L 581 3500 
L 1159 3500 
L 1159 2956 
Q 1341 3275 1631 3429 
Q 1922 3584 2338 3584 
Q 2397 3584 2469 3576 
Q 2541 3569 2628 3553 
L 2631 2963 
z
" transform="scale(0.015625)"/>
       <path id="DejaVuSans-63" d="M 3122 3366 
L 3122 2828 
Q 2878 2963 2633 3030 
Q 2388 3097 2138 3097 
Q 1578 3097 1268 2742 
Q 959 2388 959 1747 
Q 959 1106 1268 751 
Q 1578 397 2138 397 
Q 2388 397 2633 464 
Q 2878 531 3122 666 
L 3122 134 
Q 2881 22 2623 -34 
Q 2366 -91 2075 -91 
Q 1284 -91 818 406 
Q 353 903 353 1747 
Q 353 2603 823 3093 
Q 1294 3584 2113 3584 
Q 2378 3584 2631 3529 
Q 2884 3475 3122 3366 
z
" transform="scale(0.015625)"/>
       <path id="DejaVuSans-74" d="M 1172 4494 
L 1172 3500 
L 2356 3500 
L 2356 3053 
L 1172 3053 
L 1172 1153 
Q 1172 725 1289 603 
Q 1406 481 1766 481 
L 2356 481 
L 2356 0 
L 1766 0 
Q 1100 0 847 248 
Q 594 497 594 1153 
L 594 3053 
L 172 3053 
L 172 3500 
L 594 3500 
L 594 4494 
L 1172 4494 
z
" transform="scale(0.015625)"/>
       <path id="DejaVuSans-75" d="M 544 1381 
L 544 3500 
L 1119 3500 
L 1119 1403 
Q 1119 906 1312 657 
Q 1506 409 1894 409 
Q 2359 409 2629 706 
Q 2900 1003 2900 1516 
L 2900 3500 
L 3475 3500 
L 3475 0 
L 2900 0 
L 2900 538 
Q 2691 219 2414 64 
Q 2138 -91 1772 -91 
Q 1169 -91 856 284 
Q 544 659 544 1381 
z
M 1991 3584 
L 1991 3584 
z
" transform="scale(0.015625)"/>
       <path id="DejaVuSans-2c" d="M 750 794 
L 1409 794 
L 1409 256 
L 897 -744 
L 494 -744 
L 750 256 
L 750 794 
z
" transform="scale(0.015625)"/>
       <path id="DejaVuSans-70" d="M 1159 525 
L 1159 -1331 
L 581 -1331 
L 581 3500 
L 1159 3500 
L 1159 2969 
Q 1341 3281 1617 3432 
Q 1894 3584 2278 3584 
Q 2916 3584 3314 3078 
Q 3713 2572 3713 1747 
Q 3713 922 3314 415 
Q 2916 -91 2278 -91 
Q 1894 -91 1617 61 
Q 1341 213 1159 525 
z
M 3116 1747 
Q 3116 2381 2855 2742 
Q 2594 3103 2138 3103 
Q 1681 3103 1420 2742 
Q 1159 2381 1159 1747 
Q 1159 1113 1420 752 
Q 1681 391 2138 391 
Q 2594 391 2855 752 
Q 3116 1113 3116 1747 
z
" transform="scale(0.015625)"/>
      </defs>
      <use xlink:href="#DejaVuSans-46"/>
      <use xlink:href="#DejaVuSans-72" x="50.269531"/>
      <use xlink:href="#DejaVuSans-61" x="91.382812"/>
      <use xlink:href="#DejaVuSans-63" x="152.662109"/>
      <use xlink:href="#DejaVuSans-74" x="207.642578"/>
      <use xlink:href="#DejaVuSans-69" x="246.851562"/>
      <use xlink:href="#DejaVuSans-6f" x="274.634766"/>
      <use xlink:href="#DejaVuSans-6e" x="335.816406"/>
      <use xlink:href="#DejaVuSans-20" x="399.195312"/>
      <use xlink:href="#DejaVuSans-6f" x="430.982422"/>
      <use xlink:href="#DejaVuSans-66" x="492.164062"/>
      <use xlink:href="#DejaVuSans-20" x="527.369141"/>
      <use xlink:href="#DejaVuSans-66" x="559.15625"/>
      <use xlink:href="#DejaVuSans-75" x="594.361328"/>
      <use xlink:href="#DejaVuSans-6e" x="657.740234"/>
      <use xlink:href="#DejaVuSans-63" x="721.119141"/>
      <use xlink:href="#DejaVuSans-74" x="776.099609"/>
      <use xlink:href="#DejaVuSans-69" x="815.308594"/>
      <use xlink:href="#DejaVuSans-6f" x="843.091797"/>
      <use xlink:href="#DejaVuSans-6e" x="904.273438"/>
      <use xlink:href="#DejaVuSans-2c" x="967.652344"/>
      <use xlink:href="#DejaVuSans-74" x="999.439453"/>
      <use xlink:href="#DejaVuSans-61" x="1038.648438"/>
      <use xlink:href="#DejaVuSans-72" x="1099.927734"/>
      <use xlink:href="#DejaVuSans-67" x="1139.291016"/>
      <use xlink:href="#DejaVuSans-65" x="1202.767578"/>
      <use xlink:href="#DejaVuSans-74" x="1264.291016"/>
      <use xlink:href="#DejaVuSans-20" x="1303.5"/>
      <use xlink:href="#DejaVuSans-70" x="1335.287109"/>
      <use xlink:href="#DejaVuSans-61" x="1398.763672"/>
      <use xlink:href="#DejaVuSans-69" x="1460.042969"/>
      <use xlink:href="#DejaVuSans-72" x="1487.826172"/>
      <use xlink:href="#DejaVuSans-73" x="1528.939453"/>
     </g>
    </g>
   </g>
   <g id="line2d_29">
    <defs>
     <path id="m8231e11912" d="M 0 1.5 
C 0.397805 1.5 0.77937 1.341951 1.06066 1.06066 
C 1.341951 0.77937 1.5 0.397805 1.5 0 
C 1.5 -0.397805 1.341951 -0.77937 1.06066 -1.06066 
C 0.77937 -1.341951 0.397805 -1.5 0 -1.5 
C -0.397805 -1.5 -0.77937 -1.341951 -1.06066 -1.06066 
C -1.341951 -0.77937 -1.5 -0.397805 -1.5 0 
C -1.5 0.397805 -1.341951 0.77937 -1.06066 1.06066 
C -0.77937 1.341951 -0.397805 1.5 0 1.5 
z
" style="stroke: #000080"/>
    </defs>
    <g>
     <use xlink:href="#m8231e11912" x="294.943662" y="6.912" style="fill: #000080; stroke: #000080"/>
     <use xlink:href="#m8231e11912" x="294.943662" y="6.912" style="fill: #000080; stroke: #000080"/>
    </g>
   </g>
   <g id="line2d_30">
    <path d="M 44.560826 298.944 
L 44.560826 297.035294 
L 57.6 297.035294 
L 57.6 289.018729 
L 65.227428 289.018729 
L 65.227428 282.910871 
L 70.639174 282.910871 
L 70.639174 277.184753 
L 74.836851 277.184753 
L 74.836851 274.130824 
L 78.266603 274.130824 
L 78.266603 272.9856 
L 83.678349 272.9856 
L 83.678349 269.168188 
L 85.894031 269.168188 
L 85.894031 265.732518 
L 87.876026 265.732518 
L 87.876026 264.587294 
L 89.668958 264.587294 
L 89.668958 260.388141 
L 91.305777 260.388141 
L 91.305777 260.0064 
L 94.205591 260.0064 
L 94.205591 259.624659 
L 96.717523 259.624659 
L 96.717523 259.242918 
L 98.933205 259.242918 
L 98.933205 255.425506 
L 100.9152 255.425506 
L 100.9152 255.043765 
L 105.112877 255.043765 
L 105.112877 254.280282 
L 106.560633 254.280282 
L 106.560633 253.898541 
L 107.904887 253.898541 
L 107.904887 253.5168 
L 109.159456 253.5168 
L 109.159456 251.989835 
L 111.97238 251.989835 
L 111.97238 251.608094 
L 112.487797 251.608094 
L 112.487797 251.226353 
L 113.478107 251.226353 
L 113.478107 250.462871 
L 113.954374 250.462871 
L 113.954374 248.935906 
L 115.314838 248.935906 
L 115.314838 248.172424 
L 118.889854 248.172424 
L 118.889854 247.790682 
L 119.24818 247.790682 
L 119.24818 247.408941 
L 121.892744 247.408941 
L 121.892744 247.0272 
L 130.027253 247.0272 
L 130.027253 246.645459 
L 134.931919 246.645459 
L 134.931919 246.263718 
L 135.835047 246.263718 
L 135.835047 245.881976 
L 139.914782 245.881976 
L 139.914782 245.118494 
L 143.066428 245.118494 
L 143.066428 244.736753 
L 146.446082 244.736753 
L 146.446082 243.973271 
L 148.124658 243.973271 
L 148.124658 243.591529 
L 149.093387 243.591529 
L 149.093387 243.209788 
L 150.892922 243.209788 
L 150.892922 242.828047 
L 151.220087 242.828047 
L 151.220087 241.682824 
L 151.795018 241.682824 
L 151.795018 240.919341 
L 156.155566 240.919341 
L 156.155566 240.5376 
L 156.550574 240.5376 
L 156.599372 237.865412 
L 158.007377 237.865412 
L 158.007377 237.101929 
L 160.343261 237.101929 
L 160.343261 236.720188 
L 162.420867 236.720188 
L 162.456597 234.048 
L 163.328465 234.048 
L 163.328465 233.666259 
L 163.932096 233.666259 
L 163.932096 233.284518 
L 164.771172 233.284518 
L 164.771172 232.902776 
L 165.96353 232.902776 
L 165.96353 232.521035 
L 166.140442 232.521035 
L 166.140442 232.139294 
L 166.315707 232.139294 
L 166.315707 231.757553 
L 166.489353 231.757553 
L 166.489353 230.612329 
L 166.944723 230.612329 
L 166.944723 229.467106 
L 167.140533 229.467106 
L 167.16834 228.703624 
L 167.279159 228.703624 
L 167.279159 227.5584 
L 167.769923 227.5584 
L 167.769923 226.413176 
L 168.037137 226.413176 
L 168.090128 224.504471 
L 168.482867 224.504471 
L 168.482867 222.595765 
L 168.867575 222.595765 
L 168.867575 221.832282 
L 169.019282 221.832282 
L 169.019282 221.450541 
L 171.248949 221.450541 
L 171.248949 220.687059 
L 172.356469 220.687059 
L 172.356469 220.305318 
L 173.521707 220.305318 
L 173.521707 219.923576 
L 173.659955 219.923576 
L 173.659955 219.541835 
L 174.010854 219.541835 
L 174.107176 216.869647 
L 174.145567 216.869647 
L 174.145567 216.487906 
L 174.823534 216.487906 
L 174.823534 216.106165 
L 175.15357 216.106165 
L 175.15357 215.342682 
L 175.584799 215.342682 
L 175.691079 213.815718 
L 176.671876 213.815718 
L 176.772205 211.525271 
L 177.314646 211.525271 
L 177.379346 210.380047 
L 177.54013 210.380047 
L 177.54013 208.471341 
L 177.778757 208.471341 
L 177.778757 208.0896 
L 178.03 208.0896 
L 178.03 207.326118 
L 178.537828 207.326118 
L 178.583321 206.562635 
L 178.764203 206.562635 
L 178.764203 206.180894 
L 179.899351 206.180894 
L 179.899351 205.417412 
L 180.524377 205.417412 
L 180.633351 202.745224 
L 180.835991 202.745224 
L 180.903055 201.218259 
L 182.045861 201.218259 
L 182.045861 199.309553 
L 182.221437 199.309553 
L 182.221437 198.927812 
L 182.420108 198.927812 
L 182.420108 198.164329 
L 182.543221 198.164329 
L 182.555488 197.400847 
L 182.665533 197.400847 
L 182.762814 195.492141 
L 182.799165 195.492141 
L 182.799165 195.1104 
L 183.218147 195.1104 
L 183.277247 194.346918 
L 183.52346 194.346918 
L 183.52346 192.438212 
L 183.789475 192.438212 
L 183.892552 190.911247 
L 183.90397 190.911247 
L 183.915382 189.384282 
L 184.142166 189.384282 
L 184.142166 189.002541 
L 184.697447 189.002541 
L 184.697447 188.6208 
L 184.91505 188.6208 
L 184.91505 187.857318 
L 185.140856 187.857318 
L 185.140856 187.475576 
L 185.448293 187.475576 
L 185.500795 185.185129 
L 185.73008 185.185129 
L 185.833384 181.367718 
L 185.895095 181.367718 
L 185.925875 177.550306 
L 186.461507 177.550306 
L 186.461507 176.786824 
L 187.165556 176.786824 
L 187.165556 176.023341 
L 187.356538 176.023341 
L 187.356538 175.6416 
L 188.292444 175.6416 
L 188.292444 175.259859 
L 188.967211 175.259859 
L 188.967211 174.114635 
L 191.139237 174.114635 
L 191.239978 169.915482 
L 191.546612 169.915482 
L 191.546612 169.533741 
L 191.840843 169.533741 
L 191.840843 168.388518 
L 192.078873 168.388518 
L 192.160005 167.243294 
L 192.196768 167.243294 
L 192.204112 166.479812 
L 192.350392 166.479812 
L 192.372237 161.135435 
L 192.51722 161.135435 
L 192.51722 160.371953 
L 192.632408 160.371953 
L 192.696893 158.081506 
L 192.924397 158.081506 
L 192.924397 157.699765 
L 193.05117 157.699765 
L 193.05117 156.554541 
L 193.177094 156.554541 
L 193.177094 155.027576 
L 193.350601 155.027576 
L 193.378214 154.264094 
L 193.570381 154.264094 
L 193.570381 153.118871 
L 193.740315 153.118871 
L 193.740315 151.973647 
L 194.326558 151.973647 
L 194.326558 151.591906 
L 194.535287 151.591906 
L 194.535287 151.210165 
L 195.028251 151.210165 
L 195.040884 150.446682 
L 195.465458 150.446682 
L 195.465458 150.064941 
L 195.814113 150.064941 
L 195.814113 149.6832 
L 196.574279 149.6832 
L 196.574279 147.392753 
L 197.371981 147.392753 
L 197.47768 144.720565 
L 197.566231 144.720565 
L 197.566231 144.338824 
L 197.681825 144.338824 
L 197.681825 142.430118 
L 198.126512 142.430118 
L 198.126512 142.048376 
L 200.074713 142.048376 
L 200.151868 141.284894 
L 200.697307 141.284894 
L 200.697307 140.903153 
L 202.093396 140.903153 
L 202.093396 140.521412 
L 202.729256 140.521412 
L 202.729256 140.139671 
L 202.946202 140.139671 
L 203.053744 138.994447 
L 203.107286 138.994447 
L 203.107286 138.612706 
L 203.738171 138.612706 
L 203.738171 138.230965 
L 205.15128 138.230965 
L 205.15128 137.849224 
L 205.541947 137.849224 
L 205.541947 137.467482 
L 206.023543 137.467482 
L 206.037626 136.322259 
L 206.198829 136.322259 
L 206.198829 135.940518 
L 206.623207 135.940518 
L 206.633439 134.413553 
L 207.296735 134.413553 
L 207.296735 134.031812 
L 207.574462 134.031812 
L 207.574462 133.650071 
L 207.934257 133.650071 
L 207.934257 132.886588 
L 209.186669 132.886588 
L 209.275767 131.741365 
L 209.830462 131.741365 
L 209.830462 131.359624 
L 210.007985 131.359624 
L 210.007985 130.977882 
L 210.646771 130.977882 
L 210.646771 129.450918 
L 210.857692 129.450918 
L 210.936521 126.778729 
L 211.362947 126.778729 
L 211.362947 126.396988 
L 213.325309 126.396988 
L 213.325309 126.015247 
L 213.966474 126.015247 
L 213.966474 125.633506 
L 214.345918 125.633506 
L 214.397893 124.106541 
L 215.787304 124.106541 
L 215.787304 123.7248 
L 216.799206 123.7248 
L 216.799206 122.961318 
L 217.341499 122.961318 
L 217.341499 122.579576 
L 217.780195 122.579576 
L 217.780195 122.197835 
L 218.230993 122.197835 
L 218.230993 121.816094 
L 218.716139 121.816094 
L 218.719727 121.052612 
L 218.956757 121.052612 
L 218.956757 120.670871 
L 219.175088 120.670871 
L 219.175088 120.289129 
L 219.465184 120.289129 
L 219.465184 119.907388 
L 219.919892 119.907388 
L 219.919892 119.525647 
L 220.094074 119.525647 
L 220.094074 119.143906 
L 220.787968 119.143906 
L 220.787968 118.762165 
L 220.925641 118.762165 
L 220.925641 117.998682 
L 221.29522 117.998682 
L 221.29522 117.616941 
L 222.172181 117.616941 
L 222.172181 117.2352 
L 222.329751 117.2352 
L 222.437503 115.708235 
L 222.598712 115.708235 
L 222.614757 114.944753 
L 222.780243 114.944753 
L 222.780243 114.181271 
L 222.962902 114.181271 
L 222.962902 112.654306 
L 223.301909 112.654306 
L 223.301909 112.272565 
L 223.433586 112.272565 
L 223.433586 111.509082 
L 223.610039 111.509082 
L 223.610039 110.7456 
L 223.725845 110.7456 
L 223.742331 108.455153 
L 223.971627 108.455153 
L 223.971627 108.073412 
L 224.456404 108.073412 
L 224.456404 106.928188 
L 224.661523 106.928188 
L 224.661523 106.546447 
L 224.79444 106.546447 
L 224.896744 105.782965 
L 224.930292 105.782965 
L 224.934159 105.019482 
L 225.06389 105.019482 
L 225.06773 104.256 
L 225.435253 104.256 
L 225.435253 103.874259 
L 225.664772 103.874259 
L 225.664772 103.492518 
L 227.359051 103.492518 
L 227.359051 102.729035 
L 227.610033 102.729035 
L 227.610033 101.965553 
L 228.018118 101.965553 
L 228.07383 101.202071 
L 228.383234 101.202071 
L 228.383234 100.820329 
L 228.559448 100.820329 
L 228.559448 100.438588 
L 228.797111 100.438588 
L 228.797111 100.056847 
L 229.08667 100.056847 
L 229.08667 99.675106 
L 229.252348 99.675106 
L 229.252348 99.293365 
L 229.740803 99.293365 
L 229.740803 98.529882 
L 230.11931 98.529882 
L 230.11931 98.148141 
L 230.425969 98.148141 
L 230.526769 97.384659 
L 230.540168 97.384659 
L 230.540168 96.621176 
L 232.204632 96.621176 
L 232.204632 95.857694 
L 232.333796 95.857694 
L 232.333796 95.094212 
L 232.661426 95.094212 
L 232.661426 94.330729 
L 233.0631 94.330729 
L 233.0631 93.948988 
L 233.715142 93.948988 
L 233.715142 93.185506 
L 233.872077 93.185506 
L 233.921701 91.658541 
L 234.410095 91.658541 
L 234.491696 90.513318 
L 234.886888 90.513318 
L 234.96872 89.749835 
L 237.001981 89.749835 
L 237.001981 89.368094 
L 237.193724 89.368094 
L 237.193724 88.986353 
L 237.492935 88.986353 
L 237.593158 84.7872 
L 237.952054 84.7872 
L 238.042806 82.496753 
L 238.67603 82.496753 
L 238.698987 81.733271 
L 240.579202 81.733271 
L 240.579202 81.351529 
L 240.887504 81.351529 
L 240.929406 80.206306 
L 241.516595 80.206306 
L 241.516595 78.2976 
L 242.044012 78.2976 
L 242.089633 77.534118 
L 242.452707 77.534118 
L 242.491775 76.770635 
L 242.665326 76.770635 
L 242.665326 76.388894 
L 242.776483 76.388894 
L 242.786465 75.243671 
L 242.999313 75.243671 
L 242.999313 74.861929 
L 243.280388 74.861929 
L 243.366704 73.716706 
L 243.627596 73.716706 
L 243.630459 72.953224 
L 245.230666 72.953224 
L 245.230666 72.571482 
L 245.388185 72.571482 
L 245.483969 71.426259 
L 245.588728 71.426259 
L 245.671518 67.608847 
L 245.757354 67.608847 
L 245.836013 65.3184 
L 245.907583 65.3184 
L 246.002026 63.791435 
L 246.294558 63.791435 
L 246.352852 63.027953 
L 246.538108 63.027953 
L 246.538108 62.646212 
L 247.139872 62.646212 
L 247.139872 62.264471 
L 247.314828 62.264471 
L 247.418089 60.737506 
L 247.52389 60.737506 
L 247.58121 58.065318 
L 247.749444 58.065318 
L 247.749444 56.156612 
L 247.912009 56.156612 
L 247.916188 55.393129 
L 248.079207 55.393129 
L 248.079207 55.011388 
L 248.422897 55.011388 
L 248.422897 54.247906 
L 249.473158 54.247906 
L 249.473158 53.866165 
L 249.617034 53.866165 
L 249.617034 53.484424 
L 249.997335 53.484424 
L 249.997335 53.102682 
L 250.140984 53.102682 
L 250.140984 51.957459 
L 250.30062 51.957459 
L 250.30062 51.575718 
L 270.587147 51.575718 
L 270.587147 50.812235 
L 270.996761 50.812235 
L 271.050257 38.214776 
L 271.110244 38.214776 
L 271.110244 36.687812 
L 274.212271 36.687812 
L 274.315907 32.8704 
L 274.329439 32.8704 
L 274.433361 27.526024 
L 274.477565 27.526024 
L 274.579292 24.472094 
L 274.601374 24.472094 
L 274.687888 22.563388 
L 274.781203 22.563388 
L 274.781203 22.181647 
L 275.373279 22.181647 
L 275.482577 20.272941 
L 275.535501 20.272941 
L 275.535501 19.8912 
L 275.676199 19.8912 
L 275.73196 19.127718 
L 276.268713 19.127718 
L 276.372693 17.600753 
L 276.832764 17.600753 
L 276.832764 17.219012 
L 277.228906 17.219012 
L 277.315869 16.455529 
L 277.405522 16.455529 
L 277.503894 15.692047 
L 277.5611 15.692047 
L 277.5611 15.310306 
L 277.94258 15.310306 
L 277.94258 14.928565 
L 278.260316 14.928565 
L 278.337524 13.4016 
L 278.800485 13.4016 
L 278.835393 12.638118 
L 285.710936 12.638118 
L 285.71715 9.584188 
L 287.274056 9.584188 
L 287.295844 8.820706 
L 287.467014 8.820706 
L 287.467014 8.438965 
L 288.006937 8.438965 
L 288.006937 8.057224 
L 293.853258 8.057224 
L 293.853258 7.675482 
L 294.901703 7.675482 
L 294.943662 6.912 
L 360.8064 6.912 
L 360.8064 6.912 
" style="fill: none; stroke: #000080; stroke-width: 1.5; stroke-linecap: square"/>
   </g>
   <g id="line2d_31">
    <defs>
     <path id="maf21442258" d="M 0 6 
C 1.591219 6 3.117479 5.367802 4.242641 4.242641 
C 5.367802 3.117479 6 1.591219 6 0 
C 6 -1.591219 5.367802 -3.117479 4.242641 -4.242641 
C 3.117479 -5.367802 1.591219 -6 0 -6 
C -1.591219 -6 -3.117479 -5.367802 -4.242641 -4.242641 
C -5.367802 -3.117479 -6 -1.591219 -6 0 
C -6 1.591219 -5.367802 3.117479 -4.242641 4.242641 
C -3.117479 5.367802 -1.591219 6 0 6 
z
" style="stroke: #000080; stroke-width: 1.5"/>
    </defs>
    <g>
     <use xlink:href="#maf21442258" x="119.24818" y="247.408941" style="fill-opacity: 0; stroke: #000080; stroke-width: 1.5"/>
     <use xlink:href="#maf21442258" x="186.461507" y="177.550306" style="fill-opacity: 0; stroke: #000080; stroke-width: 1.5"/>
     <use xlink:href="#maf21442258" x="233.872077" y="93.185506" style="fill-opacity: 0; stroke: #000080; stroke-width: 1.5"/>
     <use xlink:href="#maf21442258" x="294.943662" y="7.293741" style="fill-opacity: 0; stroke: #000080; stroke-width: 1.5"/>
     <use xlink:href="#maf21442258" x="294.943662" y="6.912" style="fill-opacity: 0; stroke: #000080; stroke-width: 1.5"/>
     <use xlink:href="#maf21442258" x="360.8064" y="6.912" style="fill-opacity: 0; stroke: #000080; stroke-width: 1.5"/>
    </g>
   </g>
   <g id="line2d_32">
    <path style="fill: none; stroke: #000080; stroke-width: 1.5; stroke-linecap: square"/>
    <g/>
   </g>
   <g id="line2d_33">
    <path d="M 274.176 36.687812 
" clip-path="url(#pe414c5cb9a)" style="fill: none; stroke: #000080; stroke-width: 1.5; stroke-linecap: square"/>
    <defs>
     <path id="m79233070c1" d="M -12 12 
L 12 -12 
M -12 -12 
L 12 12 
" style="stroke: #000080"/>
    </defs>
    <g clip-path="url(#pe414c5cb9a)">
     <use xlink:href="#m79233070c1" x="274.176" y="36.687812" style="fill: #000080; stroke: #000080"/>
    </g>
   </g>
   <g id="line2d_34">
    <defs>
     <path id="mb1c5935ca7" d="M 0 1.5 
C 0.397805 1.5 0.77937 1.341951 1.06066 1.06066 
C 1.341951 0.77937 1.5 0.397805 1.5 0 
C 1.5 -0.397805 1.341951 -0.77937 1.06066 -1.06066 
C 0.77937 -1.341951 0.397805 -1.5 0 -1.5 
C -0.397805 -1.5 -0.77937 -1.341951 -1.06066 -1.06066 
C -1.341951 -0.77937 -1.5 -0.397805 -1.5 0 
C -1.5 0.397805 -1.341951 0.77937 -1.06066 1.06066 
C -0.77937 1.341951 -0.397805 1.5 0 1.5 
z
" style="stroke: #ff00ff"/>
    </defs>
    <g>
     <use xlink:href="#mb1c5935ca7" x="246.128193" y="6.912" style="fill: #ff00ff; stroke: #ff00ff"/>
     <use xlink:href="#mb1c5935ca7" x="246.128193" y="6.912" style="fill: #ff00ff; stroke: #ff00ff"/>
    </g>
   </g>
   <g id="line2d_35">
    <path d="M 44.560826 298.944 
L 44.560826 270.313412 
L 57.6 270.313412 
L 57.6 266.114259 
L 65.227428 266.114259 
L 65.227428 260.769882 
L 70.639174 260.769882 
L 70.639174 259.242918 
L 74.836851 259.242918 
L 74.836851 256.952471 
L 78.266603 256.952471 
L 78.266603 255.043765 
L 83.678349 255.043765 
L 83.678349 253.5168 
L 85.894031 253.5168 
L 85.894031 252.371576 
L 87.876026 252.371576 
L 87.876026 245.881976 
L 92.811505 245.881976 
L 92.811505 244.736753 
L 97.857967 244.736753 
L 97.857967 243.973271 
L 99.950294 243.973271 
L 99.950294 242.828047 
L 100.9152 242.828047 
L 100.9152 240.919341 
L 101.833019 240.919341 
L 101.833019 232.139294 
L 102.708132 232.139294 
L 102.708132 231.757553 
L 104.344952 231.757553 
L 104.344952 228.321882 
L 105.850679 228.321882 
L 105.850679 227.940141 
L 107.904887 227.940141 
L 107.904887 225.649694 
L 112.487797 225.649694 
L 112.487797 224.504471 
L 112.989468 224.504471 
L 112.989468 223.359247 
L 113.954374 223.359247 
L 113.954374 222.214024 
L 116.583514 222.214024 
L 116.583514 220.687059 
L 117.384126 220.687059 
L 117.384126 218.396612 
L 121.892744 218.396612 
L 121.892744 217.633129 
L 124.748451 217.633129 
L 124.748451 209.616565 
L 128.133992 209.616565 
L 128.133992 206.562635 
L 128.57149 206.562635 
L 128.57149 206.180894 
L 132.46399 206.180894 
L 132.46399 205.799153 
L 133.656071 205.799153 
L 133.656071 203.890447 
L 134.304809 203.890447 
L 134.304809 203.508706 
L 134.620977 203.508706 
L 134.620977 203.126965 
L 135.981441 203.126965 
L 135.981441 200.073035 
L 136.555884 200.073035 
L 136.555884 199.691294 
L 137.113304 199.691294 
L 137.113304 198.927812 
L 141.610664 198.927812 
L 141.610664 192.056471 
L 144.136106 192.056471 
L 144.136106 191.674729 
L 144.694906 191.674729 
L 144.694906 185.185129 
L 146.529503 185.185129 
L 146.529503 182.894682 
L 149.381693 182.894682 
L 149.381693 181.749459 
L 151.220087 181.749459 
L 151.220087 179.840753 
L 154.971412 179.840753 
L 154.971412 179.459012 
L 158.58624 179.459012 
L 158.58624 178.313788 
L 159.14782 178.313788 
L 159.14782 175.259859 
L 160.699326 175.259859 
L 160.699326 174.878118 
L 162.05979 174.878118 
L 162.05979 173.732894 
L 162.38507 173.732894 
L 162.420867 168.388518 
L 162.527853 168.388518 
L 162.527853 164.571106 
L 162.949812 164.571106 
L 163.019227 159.608471 
L 163.3965 159.608471 
L 163.430425 153.118871 
L 163.531835 153.118871 
L 163.531835 148.537976 
L 164.548924 148.537976 
L 164.644495 140.903153 
L 164.676244 140.903153 
L 164.771172 135.940518 
L 164.802709 135.940518 
L 164.865624 130.596141 
L 165.300233 130.596141 
L 165.300233 129.069176 
L 165.483464 129.069176 
L 165.574415 124.870024 
L 165.604634 124.870024 
L 165.604634 121.052612 
L 165.784938 121.052612 
L 165.814821 117.616941 
L 166.111072 117.616941 
L 166.111072 116.089976 
L 166.315707 116.089976 
L 166.315707 115.326494 
L 166.460523 115.326494 
L 166.489353 112.272565 
L 166.83191 112.272565 
L 166.860176 108.073412 
L 166.972821 108.073412 
L 167.028891 104.256 
L 167.140533 104.256 
L 167.251516 98.911624 
L 167.279159 98.911624 
L 167.38933 95.094212 
L 167.416772 95.094212 
L 167.416772 94.712471 
L 167.553385 94.712471 
L 167.607754 93.567247 
L 167.904005 93.567247 
L 167.983997 91.2768 
L 168.037137 91.2768 
L 168.116567 89.749835 
L 168.169334 89.749835 
L 168.169334 89.368094 
L 168.352863 89.368094 
L 168.456938 87.841129 
L 168.508761 87.841129 
L 168.508761 87.459388 
L 169.019282 87.459388 
L 169.044448 85.550682 
L 169.194741 85.550682 
L 169.194741 85.168941 
L 169.516314 85.168941 
L 169.516314 82.878494 
L 169.711507 82.878494 
L 169.711507 82.496753 
L 170.214455 82.496753 
L 170.308749 80.588047 
L 170.332249 80.588047 
L 170.332249 79.824565 
L 170.472634 79.824565 
L 170.472634 79.442824 
L 170.681267 79.442824 
L 170.773255 78.2976 
L 170.978599 78.2976 
L 170.978599 77.152376 
L 171.181725 77.152376 
L 171.20416 74.480188 
L 171.293632 74.480188 
L 171.293632 73.716706 
L 171.427048 73.716706 
L 171.427048 73.334965 
L 171.581513 73.334965 
L 171.581513 72.953224 
L 171.865055 72.953224 
L 171.972982 69.517553 
L 172.101681 69.517553 
L 172.101681 67.608847 
L 172.250727 67.608847 
L 172.250727 63.409694 
L 172.545321 63.409694 
L 172.649425 61.500988 
L 172.690906 61.500988 
L 172.690906 59.974024 
L 172.91743 59.974024 
L 172.91743 58.447059 
L 173.141258 58.447059 
L 173.242125 56.156612 
L 173.60083 56.156612 
L 173.60083 53.866165 
L 173.718895 53.866165 
L 173.718895 53.484424 
L 174.030158 53.484424 
L 174.030158 53.102682 
L 174.544011 53.102682 
L 174.544011 52.3392 
L 174.970932 52.3392 
L 174.970932 51.575718 
L 175.135386 51.575718 
L 175.135386 50.430494 
L 175.40632 50.430494 
L 175.51361 48.521788 
L 176.127562 48.521788 
L 176.127562 48.140047 
L 176.316452 48.140047 
L 176.316452 45.086118 
L 176.855405 45.086118 
L 176.855405 44.704376 
L 177.03716 44.704376 
L 177.03716 44.322635 
L 177.683669 44.322635 
L 177.683669 43.940894 
L 177.951847 43.940894 
L 177.983147 43.177412 
L 178.308695 43.177412 
L 178.308695 42.795671 
L 178.431246 42.795671 
L 178.431246 42.032188 
L 178.628705 42.032188 
L 178.628705 41.650447 
L 179.983897 41.650447 
L 179.983897 41.268706 
L 180.606166 41.268706 
L 180.606166 40.886965 
L 181.234837 40.886965 
L 181.247987 40.123482 
L 181.405079 40.123482 
L 181.405079 37.451294 
L 181.612513 37.451294 
L 181.612513 37.069553 
L 182.604477 37.069553 
L 182.604477 36.306071 
L 183.708911 36.306071 
L 183.708911 35.542588 
L 185.033667 35.542588 
L 185.033667 34.397365 
L 185.363983 34.397365 
L 185.363983 34.015624 
L 185.605362 34.015624 
L 185.605362 33.633882 
L 186.200649 33.633882 
L 186.200649 31.725176 
L 186.34156 31.725176 
L 186.34156 30.961694 
L 187.127126 30.961694 
L 187.127126 30.579953 
L 187.366036 30.579953 
L 187.366036 29.816471 
L 187.927337 29.816471 
L 187.927337 29.434729 
L 189.744553 29.434729 
L 189.744553 26.3808 
L 190.802117 26.3808 
L 190.802117 24.853835 
L 191.508555 24.853835 
L 191.508555 24.090353 
L 191.743277 24.090353 
L 191.848327 22.945129 
L 192.379512 22.945129 
L 192.379512 22.563388 
L 193.016041 22.563388 
L 193.016041 20.272941 
L 196.504304 20.272941 
L 196.545154 19.509459 
L 196.782655 19.509459 
L 196.782655 19.127718 
L 198.392592 19.127718 
L 198.392592 18.364235 
L 202.497037 18.364235 
L 202.497037 17.982494 
L 207.822558 17.982494 
L 207.822558 17.600753 
L 213.453878 17.600753 
L 213.453878 17.219012 
L 216.460503 17.219012 
L 216.460503 16.837271 
L 219.029228 16.837271 
L 219.133028 16.073788 
L 220.534005 16.073788 
L 220.534005 15.692047 
L 221.331157 15.692047 
L 221.331157 15.310306 
L 223.6887 15.310306 
L 223.6887 14.546824 
L 225.324486 14.546824 
L 225.324486 14.165082 
L 228.031242 14.165082 
L 228.031242 13.783341 
L 230.218842 13.783341 
L 230.23538 13.019859 
L 234.609972 13.019859 
L 234.609972 12.638118 
L 235.117827 12.638118 
L 235.134322 11.874635 
L 236.026393 11.874635 
L 236.057101 11.111153 
L 236.141113 11.111153 
L 236.141113 10.729412 
L 236.655436 10.729412 
L 236.655436 10.347671 
L 239.887151 10.347671 
L 239.887151 9.965929 
L 241.528869 9.965929 
L 241.528869 9.584188 
L 242.999807 9.584188 
L 242.999807 9.202447 
L 243.428048 9.202447 
L 243.428048 8.438965 
L 243.930988 8.438965 
L 243.930988 8.057224 
L 244.289084 8.057224 
L 244.289084 7.675482 
L 244.753186 7.675482 
L 244.753186 7.293741 
L 246.128193 7.293741 
L 246.128193 6.912 
L 360.8064 6.912 
L 360.8064 6.912 
" style="fill: none; stroke: #ff00ff; stroke-width: 1.5; stroke-linecap: square"/>
   </g>
   <g id="line2d_36">
    <defs>
     <path id="m903599ed6b" d="M 0 8.485281 
L 5.091169 0 
L 0 -8.485281 
L -5.091169 0 
z
" style="stroke: #ff00ff; stroke-width: 1.5; stroke-linejoin: miter"/>
    </defs>
    <g>
     <use xlink:href="#m903599ed6b" x="134.620977" y="203.126965" style="fill-opacity: 0; stroke: #ff00ff; stroke-width: 1.5; stroke-linejoin: miter"/>
     <use xlink:href="#m903599ed6b" x="177.951847" y="43.559153" style="fill-opacity: 0; stroke: #ff00ff; stroke-width: 1.5; stroke-linejoin: miter"/>
     <use xlink:href="#m903599ed6b" x="236.655436" y="10.347671" style="fill-opacity: 0; stroke: #ff00ff; stroke-width: 1.5; stroke-linejoin: miter"/>
     <use xlink:href="#m903599ed6b" x="246.128193" y="6.912" style="fill-opacity: 0; stroke: #ff00ff; stroke-width: 1.5; stroke-linejoin: miter"/>
     <use xlink:href="#m903599ed6b" x="246.128193" y="6.912" style="fill-opacity: 0; stroke: #ff00ff; stroke-width: 1.5; stroke-linejoin: miter"/>
     <use xlink:href="#m903599ed6b" x="360.8064" y="6.912" style="fill-opacity: 0; stroke: #ff00ff; stroke-width: 1.5; stroke-linejoin: miter"/>
    </g>
   </g>
   <g id="line2d_37">
    <path style="fill: none; stroke: #ff00ff; stroke-width: 1.5; stroke-linecap: square"/>
    <g/>
   </g>
   <g id="line2d_38">
    <defs>
     <path id="ma4099b384d" d="M 0 1.5 
C 0.397805 1.5 0.77937 1.341951 1.06066 1.06066 
C 1.341951 0.77937 1.5 0.397805 1.5 0 
C 1.5 -0.397805 1.341951 -0.77937 1.06066 -1.06066 
C 0.77937 -1.341951 0.397805 -1.5 0 -1.5 
C -0.397805 -1.5 -0.77937 -1.341951 -1.06066 -1.06066 
C -1.341951 -0.77937 -1.5 -0.397805 -1.5 0 
C -1.5 0.397805 -1.341951 0.77937 -1.06066 1.06066 
C -0.77937 1.341951 -0.397805 1.5 0 1.5 
z
" style="stroke: #ff7500"/>
    </defs>
    <g>
     <use xlink:href="#ma4099b384d" x="247.186133" y="6.912" style="fill: #ff7500; stroke: #ff7500"/>
     <use xlink:href="#ma4099b384d" x="247.186133" y="6.912" style="fill: #ff7500; stroke: #ff7500"/>
    </g>
   </g>
   <g id="line2d_39">
    <path d="M 44.560826 298.944 
L 44.560826 281.383906 
L 57.6 281.383906 
L 57.6 274.512565 
L 65.227428 274.512565 
L 65.227428 270.695153 
L 70.639174 270.695153 
L 70.639174 269.931671 
L 74.836851 269.931671 
L 74.836851 260.388141 
L 81.166416 260.388141 
L 81.166416 256.188988 
L 83.678349 256.188988 
L 83.678349 254.280282 
L 85.894031 254.280282 
L 85.894031 253.898541 
L 89.668958 253.898541 
L 89.668958 248.935906 
L 91.305777 248.935906 
L 91.305777 248.172424 
L 92.811505 248.172424 
L 92.811505 247.0272 
L 94.205591 247.0272 
L 94.205591 242.064565 
L 97.857967 242.064565 
L 97.857967 240.919341 
L 98.933205 240.919341 
L 98.933205 231.375812 
L 101.833019 231.375812 
L 101.833019 230.994071 
L 105.850679 230.994071 
L 105.850679 230.612329 
L 109.159456 230.612329 
L 109.159456 230.230588 
L 113.954374 230.230588 
L 113.954374 228.703624 
L 114.418881 228.703624 
L 114.418881 227.5584 
L 117.772007 227.5584 
L 117.772007 225.267953 
L 119.24818 225.267953 
L 119.24818 221.0688 
L 122.499621 221.0688 
L 122.499621 219.923576 
L 122.795872 219.923576 
L 122.795872 219.541835 
L 123.08753 219.541835 
L 123.08753 219.160094 
L 124.210942 219.160094 
L 124.210942 218.778353 
L 125.526971 218.778353 
L 125.526971 218.014871 
L 129.826058 218.014871 
L 129.826058 217.633129 
L 130.4233 217.633129 
L 130.4233 216.487906 
L 131.002163 216.487906 
L 131.002163 213.052235 
L 137.919637 213.052235 
L 137.919637 211.907012 
L 139.435481 211.907012 
L 139.435481 211.525271 
L 143.166224 211.525271 
L 143.166224 208.0896 
L 144.694906 208.0896 
L 144.694906 207.326118 
L 145.415054 207.326118 
L 145.415054 194.728659 
L 146.529503 194.728659 
L 146.612557 191.674729 
L 147.816265 191.674729 
L 147.816265 190.911247 
L 149.665646 190.911247 
L 149.665646 189.766024 
L 150.425115 189.766024 
L 150.425115 186.712094 
L 150.8268 186.712094 
L 150.8268 184.421647 
L 151.54166 184.421647 
L 151.54166 183.276424 
L 153.305585 183.276424 
L 153.305585 182.1312 
L 155.28758 182.1312 
L 155.28758 181.367718 
L 156.105602 181.367718 
L 156.105602 180.985976 
L 156.937458 180.985976 
L 156.937458 180.604235 
L 160.4627 180.604235 
L 160.4627 174.878118 
L 161.654432 174.878118 
L 161.654432 174.496376 
L 161.839769 174.496376 
L 161.839769 172.587671 
L 162.205054 172.587671 
L 162.205054 171.442447 
L 163.191653 171.442447 
L 163.191653 170.678965 
L 163.997986 170.678965 
L 164.063646 166.479812 
L 164.259262 166.479812 
L 164.259262 165.716329 
L 164.548924 165.716329 
L 164.548924 165.334588 
L 164.70794 165.334588 
L 164.739583 156.936282 
L 164.990826 156.936282 
L 165.021997 153.882353 
L 165.755007 153.882353 
L 165.755007 147.392753 
L 165.993131 147.392753 
L 165.993131 147.011012 
L 166.315707 147.011012 
L 166.315707 145.484047 
L 166.431649 145.484047 
L 166.431649 144.720565 
L 166.546881 144.720565 
L 166.575579 140.903153 
L 166.689935 140.903153 
L 166.689935 131.359624 
L 166.916583 131.359624 
L 166.916583 130.596141 
L 167.471536 130.596141 
L 167.471536 126.015247 
L 167.607754 126.015247 
L 167.607754 125.633506 
L 167.930707 125.633506 
L 168.010586 124.106541 
L 168.221954 124.106541 
L 168.221954 121.816094 
L 168.352863 121.816094 
L 168.456938 115.708235 
L 168.586228 115.708235 
L 168.689024 114.181271 
L 168.740211 114.181271 
L 168.740211 113.799529 
L 168.91828 113.799529 
L 168.91828 109.218635 
L 169.269439 109.218635 
L 169.319074 105.401224 
L 170.190808 105.401224 
L 170.190808 104.256 
L 170.6582 104.256 
L 170.6582 103.874259 
L 170.796182 103.874259 
L 170.796182 102.347294 
L 171.001277 102.347294 
L 171.001277 101.965553 
L 171.136775 101.965553 
L 171.136775 98.529882 
L 171.271304 98.529882 
L 171.271304 92.803765 
L 171.603476 92.803765 
L 171.603476 91.658541 
L 171.951446 91.658541 
L 171.951446 90.131576 
L 172.814802 90.131576 
L 172.814802 89.749835 
L 174.049442 89.749835 
L 174.049442 88.222871 
L 174.241203 88.222871 
L 174.241203 84.7872 
L 175.298414 84.7872 
L 175.316441 82.115012 
L 176.282249 82.115012 
L 176.282249 77.915859 
L 176.57101 77.915859 
L 176.671876 75.625412 
L 177.330842 75.625412 
L 177.330842 74.861929 
L 178.553005 74.861929 
L 178.553005 74.098447 
L 178.719145 74.098447 
L 178.719145 70.662776 
L 179.017511 70.662776 
L 179.017511 70.281035 
L 179.354881 70.281035 
L 179.354881 67.227106 
L 179.470823 67.227106 
L 179.470823 66.845365 
L 179.60041 66.845365 
L 179.60041 66.081882 
L 180.123969 66.081882 
L 180.123969 65.700141 
L 184.017773 65.700141 
L 184.017773 65.3184 
L 186.846134 65.3184 
L 186.846134 62.264471 
L 187.611325 62.264471 
L 187.611325 60.355765 
L 188.534946 60.355765 
L 188.534946 59.592282 
L 190.158374 59.592282 
L 190.158374 59.210541 
L 191.577002 59.210541 
L 191.660323 58.065318 
L 197.276902 58.065318 
L 197.282509 56.538353 
L 197.582788 56.538353 
L 197.582788 55.011388 
L 199.113112 55.011388 
L 199.16897 51.193976 
L 200.175915 51.193976 
L 200.175915 49.285271 
L 205.653631 49.285271 
L 205.653631 48.140047 
L 206.069275 48.140047 
L 206.069275 46.994824 
L 211.958035 46.994824 
L 212.068187 44.704376 
L 219.602583 44.704376 
L 219.602583 44.322635 
L 220.05235 44.322635 
L 220.05235 43.940894 
L 231.583221 43.940894 
L 231.63023 43.177412 
L 235.885782 43.177412 
L 235.89802 42.413929 
L 236.160993 42.413929 
L 236.160993 42.032188 
L 236.62569 42.032188 
L 236.62569 41.650447 
L 236.985009 41.650447 
L 236.985009 41.268706 
L 237.186334 41.268706 
L 237.254752 40.505224 
L 237.760105 40.505224 
L 237.768576 38.596518 
L 237.877064 38.596518 
L 237.877064 38.214776 
L 238.14462 38.214776 
L 238.14462 35.924329 
L 238.705186 35.924329 
L 238.710764 34.779106 
L 244.341526 34.779106 
L 244.341526 31.725176 
L 244.453282 31.725176 
L 244.453282 31.343435 
L 245.609782 31.343435 
L 245.609782 30.961694 
L 245.955707 30.961694 
L 246.009595 26.762541 
L 246.146148 26.762541 
L 246.21447 24.090353 
L 246.717914 24.090353 
L 246.794278 22.563388 
L 246.907244 22.563388 
L 247.014355 18.364235 
L 247.037456 18.364235 
L 247.146601 8.057224 
L 247.171516 8.057224 
L 247.186133 6.912 
L 360.8064 6.912 
L 360.8064 6.912 
" style="fill: none; stroke: #ff7500; stroke-width: 1.5; stroke-linecap: square"/>
   </g>
   <g id="line2d_40">
    <defs>
     <path id="mac7c03fdbb" d="M 0 -6 
L -1.347084 -1.854102 
L -5.706339 -1.854102 
L -2.179628 0.708204 
L -3.526712 4.854102 
L -0 2.291796 
L 3.526712 4.854102 
L 2.179628 0.708204 
L 5.706339 -1.854102 
L 1.347084 -1.854102 
z
" style="stroke: #ff7500; stroke-width: 1.5; stroke-linejoin: bevel"/>
    </defs>
    <g>
     <use xlink:href="#mac7c03fdbb" x="83.678349" y="254.280282" style="fill-opacity: 0; stroke: #ff7500; stroke-width: 1.5; stroke-linejoin: bevel"/>
     <use xlink:href="#mac7c03fdbb" x="156.937458" y="180.604235" style="fill-opacity: 0; stroke: #ff7500; stroke-width: 1.5; stroke-linejoin: bevel"/>
     <use xlink:href="#mac7c03fdbb" x="206.069275" y="46.994824" style="fill-opacity: 0; stroke: #ff7500; stroke-width: 1.5; stroke-linejoin: bevel"/>
     <use xlink:href="#mac7c03fdbb" x="247.186133" y="6.912" style="fill-opacity: 0; stroke: #ff7500; stroke-width: 1.5; stroke-linejoin: bevel"/>
     <use xlink:href="#mac7c03fdbb" x="247.186133" y="6.912" style="fill-opacity: 0; stroke: #ff7500; stroke-width: 1.5; stroke-linejoin: bevel"/>
     <use xlink:href="#mac7c03fdbb" x="360.8064" y="6.912" style="fill-opacity: 0; stroke: #ff7500; stroke-width: 1.5; stroke-linejoin: bevel"/>
    </g>
   </g>
   <g id="line2d_41">
    <path style="fill: none; stroke: #ff7500; stroke-width: 1.5; stroke-linecap: square"/>
    <g/>
   </g>
   <g id="line2d_42">
    <defs>
     <path id="m5f94ba3e54" d="M 0 1.5 
C 0.397805 1.5 0.77937 1.341951 1.06066 1.06066 
C 1.341951 0.77937 1.5 0.397805 1.5 0 
C 1.5 -0.397805 1.341951 -0.77937 1.06066 -1.06066 
C 0.77937 -1.341951 0.397805 -1.5 0 -1.5 
C -0.397805 -1.5 -0.77937 -1.341951 -1.06066 -1.06066 
C -1.341951 -0.77937 -1.5 -0.397805 -1.5 0 
C -1.5 0.397805 -1.341951 0.77937 -1.06066 1.06066 
C -0.77937 1.341951 -0.397805 1.5 0 1.5 
z
" style="stroke: #6495ed"/>
    </defs>
    <g>
     <use xlink:href="#m5f94ba3e54" x="301.620871" y="6.912" style="fill: #6495ed; stroke: #6495ed"/>
     <use xlink:href="#m5f94ba3e54" x="301.620871" y="6.912" style="fill: #6495ed; stroke: #6495ed"/>
    </g>
   </g>
   <g id="line2d_43">
    <path d="M 44.560826 298.944 
L 44.560826 281.002165 
L 57.6 281.002165 
L 57.6 277.184753 
L 65.227428 277.184753 
L 65.227428 273.367341 
L 70.639174 273.367341 
L 70.639174 272.9856 
L 74.836851 272.9856 
L 74.836851 269.549929 
L 78.266603 269.549929 
L 78.266603 268.404706 
L 81.166416 268.404706 
L 81.166416 266.877741 
L 83.678349 266.877741 
L 83.678349 266.114259 
L 85.894031 266.114259 
L 85.894031 265.732518 
L 87.876026 265.732518 
L 87.876026 263.823812 
L 89.668958 263.823812 
L 89.668958 263.060329 
L 94.205591 263.060329 
L 94.205591 261.915106 
L 96.717523 261.915106 
L 96.717523 261.533365 
L 105.112877 261.533365 
L 105.112877 261.151624 
L 107.244765 261.151624 
L 107.244765 260.769882 
L 107.904887 260.769882 
L 107.904887 260.388141 
L 110.335561 260.388141 
L 110.335561 258.861176 
L 111.442442 258.861176 
L 111.442442 258.479435 
L 112.487797 258.479435 
L 112.487797 257.334212 
L 113.954374 257.334212 
L 113.954374 256.188988 
L 115.747307 256.188988 
L 115.747307 255.807247 
L 116.583514 255.807247 
L 116.583514 255.425506 
L 123.08753 255.425506 
L 123.08753 255.043765 
L 123.374735 255.043765 
L 123.374735 254.280282 
L 124.481616 254.280282 
L 124.481616 253.898541 
L 125.011554 253.898541 
L 125.011554 252.371576 
L 129.209231 252.371576 
L 129.209231 251.989835 
L 131.747272 251.989835 
L 131.747272 251.608094 
L 133.983236 251.608094 
L 133.983236 251.226353 
L 134.463557 251.226353 
L 134.463557 250.081129 
L 138.943648 250.081129 
L 138.943648 249.699388 
L 142.865233 249.699388 
L 142.865233 248.935906 
L 144.136106 248.935906 
L 144.2304 246.645459 
L 144.786447 246.645459 
L 144.786447 246.263718 
L 145.590864 246.263718 
L 145.590864 245.881976 
L 150.425115 245.881976 
L 150.425115 245.500235 
L 151.982822 245.500235 
L 151.982822 245.118494 
L 152.715833 245.118494 
L 152.715833 244.736753 
L 152.953957 244.736753 
L 152.953957 243.973271 
L 155.339761 243.973271 
L 155.339761 243.591529 
L 157.175281 243.591529 
L 157.175281 242.828047 
L 157.734081 242.828047 
L 157.779907 242.064565 
L 160.97168 242.064565 
L 160.97168 241.301082 
L 162.880139 241.301082 
L 162.949812 240.155859 
L 166.489353 240.155859 
L 166.489353 239.774118 
L 169.832482 239.774118 
L 169.832482 239.010635 
L 171.82171 239.010635 
L 171.82171 238.628894 
L 174.145567 238.628894 
L 174.164733 236.720188 
L 181.625402 236.720188 
L 181.625402 236.338447 
L 182.481765 236.338447 
L 182.481765 235.956706 
L 186.017913 235.956706 
L 186.017913 235.574965 
L 186.816825 235.574965 
L 186.816825 235.193224 
L 187.213483 235.193224 
L 187.270836 234.429741 
L 188.274356 234.429741 
L 188.274356 233.666259 
L 188.61509 233.666259 
L 188.61509 233.284518 
L 190.975352 233.284518 
L 190.975352 232.521035 
L 192.825202 232.521035 
L 192.825202 232.139294 
L 194.161861 232.139294 
L 194.161861 231.757553 
L 195.808051 231.757553 
L 195.808051 231.375812 
L 196.162374 231.375812 
L 196.162374 230.994071 
L 196.845868 230.994071 
L 196.845868 230.230588 
L 198.893151 230.230588 
L 198.893151 229.467106 
L 199.649547 229.467106 
L 199.649547 229.085365 
L 201.072208 229.085365 
L 201.072208 228.703624 
L 201.853143 228.703624 
L 201.853143 228.321882 
L 201.9671 228.321882 
L 201.9671 227.940141 
L 202.356318 227.940141 
L 202.356318 227.5584 
L 203.77393 227.5584 
L 203.861058 226.031435 
L 205.294614 226.031435 
L 205.294614 225.649694 
L 205.422324 225.649694 
L 205.422324 225.267953 
L 205.882129 225.267953 
L 205.882129 224.886212 
L 206.020021 224.886212 
L 206.020021 224.504471 
L 206.341355 224.504471 
L 206.341355 224.122729 
L 206.489682 224.122729 
L 206.50342 223.359247 
L 206.636848 223.359247 
L 206.653886 221.832282 
L 207.207651 221.832282 
L 207.207651 221.450541 
L 207.359172 221.450541 
L 207.359172 221.0688 
L 207.499716 221.0688 
L 207.499716 220.687059 
L 207.755219 220.687059 
L 207.755219 219.923576 
L 209.290576 219.923576 
L 209.293536 218.396612 
L 212.592093 218.396612 
L 212.592093 218.014871 
L 212.728221 218.014871 
L 212.745476 217.251388 
L 213.396845 217.251388 
L 213.396845 216.869647 
L 213.628651 216.869647 
L 213.628651 216.106165 
L 214.086161 216.106165 
L 214.086161 215.724424 
L 217.909833 215.724424 
L 217.909833 215.342682 
L 219.953514 215.342682 
L 219.953514 214.197459 
L 221.450971 214.197459 
L 221.450971 213.433976 
L 221.82872 213.433976 
L 221.930301 212.670494 
L 224.810015 212.670494 
L 224.810015 212.288753 
L 225.246052 212.288753 
L 225.246052 210.380047 
L 225.904993 210.380047 
L 225.929459 209.234824 
L 227.617857 209.234824 
L 227.617857 208.853082 
L 228.160891 208.853082 
L 228.160891 208.471341 
L 229.698829 208.471341 
L 229.698829 208.0896 
L 231.254515 208.0896 
L 231.352815 205.417412 
L 231.629327 205.417412 
L 231.703222 204.653929 
L 231.826036 204.653929 
L 231.826036 203.890447 
L 231.984416 203.890447 
L 232.027782 203.126965 
L 232.268452 203.126965 
L 232.268452 202.363482 
L 232.741599 202.363482 
L 232.741599 201.981741 
L 233.304181 201.981741 
L 233.412078 200.836518 
L 233.619537 200.836518 
L 233.719183 199.691294 
L 233.888099 199.691294 
L 233.888099 199.309553 
L 234.020559 199.309553 
L 234.020559 198.546071 
L 234.141034 198.546071 
L 234.250534 197.782588 
L 234.314051 197.782588 
L 234.389834 195.873882 
L 235.457534 195.873882 
L 235.528855 195.1104 
L 235.577229 195.1104 
L 235.577229 194.346918 
L 235.69544 194.346918 
L 235.73976 193.583435 
L 235.887223 193.583435 
L 235.887223 192.819953 
L 236.089184 192.819953 
L 236.089184 192.438212 
L 236.312948 192.438212 
L 236.312948 192.056471 
L 237.471767 192.056471 
L 237.471767 191.674729 
L 239.704649 191.674729 
L 239.704649 191.292988 
L 241.115186 191.292988 
L 241.162026 189.766024 
L 245.295404 189.766024 
L 245.37471 189.002541 
L 245.612787 189.002541 
L 245.71299 186.712094 
L 245.763744 186.712094 
L 245.821581 185.948612 
L 245.926172 185.948612 
L 245.926172 185.566871 
L 246.182007 185.566871 
L 246.187838 184.039906 
L 246.437286 184.039906 
L 246.472184 182.1312 
L 246.609911 182.1312 
L 246.685092 178.695529 
L 246.968068 178.695529 
L 246.968068 178.313788 
L 247.241733 178.313788 
L 247.350877 175.259859 
L 247.371613 175.259859 
L 247.422769 172.969412 
L 247.596285 172.969412 
L 247.658007 171.442447 
L 247.721062 171.442447 
L 247.800349 170.678965 
L 247.991254 170.678965 
L 248.003735 169.533741 
L 248.1911 169.533741 
L 248.227752 168.006776 
L 248.381065 168.006776 
L 248.432139 166.479812 
L 248.503337 166.479812 
L 248.53277 165.716329 
L 248.670128 165.716329 
L 248.67852 164.189365 
L 248.904423 164.189365 
L 248.904423 163.807624 
L 249.029797 163.807624 
L 249.029797 163.425882 
L 249.151139 163.425882 
L 249.253668 162.280659 
L 249.275945 162.280659 
L 249.275945 161.898918 
L 249.391149 161.898918 
L 249.501463 158.844988 
L 249.510888 158.844988 
L 249.510888 157.699765 
L 249.723274 157.699765 
L 249.723274 157.318024 
L 249.928852 157.318024 
L 249.928852 156.936282 
L 250.043191 156.936282 
L 250.110922 152.355388 
L 250.217106 152.355388 
L 250.27986 150.064941 
L 250.36243 150.064941 
L 250.453603 146.629271 
L 250.47583 146.629271 
L 250.47583 146.247529 
L 250.628057 146.247529 
L 250.647122 144.720565 
L 250.825008 144.720565 
L 250.904575 142.811859 
L 250.968957 142.811859 
L 251.068492 138.994447 
L 251.140639 138.994447 
L 251.235132 136.704 
L 251.275212 136.704 
L 251.31711 135.558776 
L 251.436575 135.558776 
L 251.539313 131.359624 
L 251.607807 131.359624 
L 251.695017 125.251765 
L 251.718929 125.251765 
L 251.776566 122.579576 
L 251.945358 122.579576 
L 251.945358 122.197835 
L 252.132697 122.197835 
L 252.150601 121.434353 
L 252.315182 121.434353 
L 252.315182 120.670871 
L 252.490851 120.670871 
L 252.580594 116.471718 
L 252.671386 116.471718 
L 252.765559 112.272565 
L 252.987058 112.272565 
L 253.059159 111.509082 
L 253.144511 111.509082 
L 253.253521 108.455153 
L 253.595639 108.455153 
L 253.595639 108.073412 
L 253.849244 108.073412 
L 253.849244 107.691671 
L 254.495887 107.691671 
L 254.548295 106.928188 
L 254.63195 106.928188 
L 254.728199 103.110776 
L 254.867586 103.110776 
L 254.867849 101.965553 
L 255.059555 101.965553 
L 255.059555 101.583812 
L 255.188518 101.583812 
L 255.249069 99.675106 
L 255.373423 99.675106 
L 255.48045 96.239435 
L 255.48858 96.239435 
L 255.578279 94.330729 
L 255.619943 94.330729 
L 255.701236 91.2768 
L 255.736613 91.2768 
L 255.752649 88.604612 
L 255.962358 88.604612 
L 255.962358 87.459388 
L 256.139109 87.459388 
L 256.217461 86.314165 
L 256.448888 86.314165 
L 256.448888 85.932424 
L 256.573256 85.932424 
L 256.646003 84.023718 
L 256.754599 84.023718 
L 256.754599 83.260235 
L 256.913972 83.260235 
L 257.014948 81.351529 
L 257.087876 81.351529 
L 257.087876 80.969788 
L 257.254639 80.969788 
L 257.32918 80.206306 
L 257.38759 80.206306 
L 257.456574 79.442824 
L 257.516415 79.442824 
L 257.616486 75.243671 
L 257.62805 75.243671 
L 257.735646 72.953224 
L 257.740604 72.953224 
L 257.740604 71.044518 
L 257.942767 71.044518 
L 257.997972 70.281035 
L 258.06498 70.281035 
L 258.06498 69.899294 
L 258.185523 69.899294 
L 258.185523 68.372329 
L 258.311421 68.372329 
L 258.350292 64.936659 
L 258.530491 64.936659 
L 258.556402 61.882729 
L 258.772867 61.882729 
L 258.772867 61.119247 
L 258.934072 61.119247 
L 258.934072 60.737506 
L 259.306798 60.737506 
L 259.306798 60.355765 
L 259.434085 60.355765 
L 259.434085 59.974024 
L 259.549058 59.974024 
L 259.549058 59.210541 
L 259.710472 59.210541 
L 259.797936 56.156612 
L 259.897858 56.156612 
L 259.897858 55.393129 
L 260.133861 55.393129 
L 260.133861 55.011388 
L 265.640805 55.011388 
L 265.640805 54.629647 
L 274.68798 54.629647 
L 274.764346 53.484424 
L 274.931791 53.484424 
L 274.931791 53.102682 
L 276.014197 53.102682 
L 276.014197 52.720941 
L 277.920317 52.720941 
L 278.005837 51.193976 
L 278.090893 51.193976 
L 278.099523 50.048753 
L 278.208085 50.048753 
L 278.236986 48.903529 
L 278.352445 48.903529 
L 278.399769 46.994824 
L 278.491294 46.994824 
L 278.537823 46.231341 
L 278.615314 46.231341 
L 278.645895 45.467859 
L 278.754455 45.467859 
L 278.856233 43.177412 
L 278.869064 43.177412 
L 278.962715 41.650447 
L 278.991426 41.650447 
L 279.053581 39.741741 
L 279.107789 39.741741 
L 279.160181 36.306071 
L 279.252901 36.306071 
L 279.349453 33.633882 
L 279.381717 33.633882 
L 279.391771 32.8704 
L 279.497541 32.8704 
L 279.51589 30.579953 
L 279.673285 30.579953 
L 279.673285 30.198212 
L 279.874727 30.198212 
L 279.874727 29.434729 
L 280.079945 29.434729 
L 280.170029 28.289506 
L 280.231619 28.289506 
L 280.231619 27.907765 
L 280.498375 27.907765 
L 280.596246 26.3808 
L 280.61783 26.3808 
L 280.710166 24.090353 
L 280.738058 24.090353 
L 280.738058 23.326871 
L 280.907963 23.326871 
L 280.981997 20.654682 
L 281.047975 20.654682 
L 281.047975 19.8912 
L 281.28892 19.8912 
L 281.399438 17.600753 
L 287.570533 17.600753 
L 287.570533 17.219012 
L 289.565482 17.219012 
L 289.643351 16.455529 
L 289.678493 16.455529 
L 289.760374 15.692047 
L 289.871856 15.692047 
L 289.899359 14.928565 
L 289.997534 14.928565 
L 290.063293 14.165082 
L 290.418893 14.165082 
L 290.4523 13.4016 
L 290.756913 13.4016 
L 290.78004 12.638118 
L 290.887591 12.638118 
L 290.887591 12.256376 
L 291.148353 12.256376 
L 291.152588 11.111153 
L 296.393655 11.111153 
L 296.393655 10.729412 
L 296.508672 10.729412 
L 296.533649 9.965929 
L 296.658323 9.965929 
L 296.658323 9.584188 
L 296.85886 9.584188 
L 296.950093 8.820706 
L 297.161118 8.820706 
L 297.161118 8.438965 
L 297.277694 8.438965 
L 297.368733 7.675482 
L 297.422358 7.675482 
L 297.422358 7.293741 
L 301.620871 7.293741 
L 301.620871 6.912 
L 360.8064 6.912 
L 360.8064 6.912 
" style="fill: none; stroke: #6495ed; stroke-width: 1.5; stroke-linecap: square"/>
   </g>
   <g id="line2d_44">
    <defs>
     <path id="m1c1afba7e3" d="M -0 6 
L 6 -6 
L -6 -6 
z
" style="stroke: #6495ed; stroke-width: 1.5; stroke-linejoin: miter"/>
    </defs>
    <g>
     <use xlink:href="#m1c1afba7e3" x="111.442442" y="258.479435" style="fill-opacity: 0; stroke: #6495ed; stroke-width: 1.5; stroke-linejoin: miter"/>
     <use xlink:href="#m1c1afba7e3" x="202.356318" y="227.5584" style="fill-opacity: 0; stroke: #6495ed; stroke-width: 1.5; stroke-linejoin: miter"/>
     <use xlink:href="#m1c1afba7e3" x="250.47583" y="146.629271" style="fill-opacity: 0; stroke: #6495ed; stroke-width: 1.5; stroke-linejoin: miter"/>
     <use xlink:href="#m1c1afba7e3" x="297.368733" y="8.057224" style="fill-opacity: 0; stroke: #6495ed; stroke-width: 1.5; stroke-linejoin: miter"/>
     <use xlink:href="#m1c1afba7e3" x="301.620871" y="6.912" style="fill-opacity: 0; stroke: #6495ed; stroke-width: 1.5; stroke-linejoin: miter"/>
     <use xlink:href="#m1c1afba7e3" x="360.8064" y="6.912" style="fill-opacity: 0; stroke: #6495ed; stroke-width: 1.5; stroke-linejoin: miter"/>
    </g>
   </g>
   <g id="line2d_45">
    <path style="fill: none; stroke: #6495ed; stroke-width: 1.5; stroke-linecap: square"/>
    <g/>
   </g>
   <g id="line2d_46">
    <path d="M 274.176 54.629647 
" clip-path="url(#pe414c5cb9a)" style="fill: none; stroke: #6495ed; stroke-width: 1.5; stroke-linecap: square"/>
    <defs>
     <path id="mae5282502d" d="M -12 12 
L 12 -12 
M -12 -12 
L 12 12 
" style="stroke: #6495ed"/>
    </defs>
    <g clip-path="url(#pe414c5cb9a)">
     <use xlink:href="#mae5282502d" x="274.176" y="54.629647" style="fill: #6495ed; stroke: #6495ed"/>
    </g>
   </g>
   <g id="line2d_47">
    <defs>
     <path id="mb787f2f50c" d="M 0 1.5 
C 0.397805 1.5 0.77937 1.341951 1.06066 1.06066 
C 1.341951 0.77937 1.5 0.397805 1.5 0 
C 1.5 -0.397805 1.341951 -0.77937 1.06066 -1.06066 
C 0.77937 -1.341951 0.397805 -1.5 0 -1.5 
C -0.397805 -1.5 -0.77937 -1.341951 -1.06066 -1.06066 
C -1.341951 -0.77937 -1.5 -0.397805 -1.5 0 
C -1.5 0.397805 -1.341951 0.77937 -1.06066 1.06066 
C -0.77937 1.341951 -0.397805 1.5 0 1.5 
z
" style="stroke: #ff0000"/>
    </defs>
    <g>
     <use xlink:href="#mb787f2f50c" x="364.886814" y="6.912" style="fill: #ff0000; stroke: #ff0000"/>
     <use xlink:href="#mb787f2f50c" x="364.886814" y="6.912" style="fill: #ff0000; stroke: #ff0000"/>
    </g>
   </g>
   <g id="line2d_48">
    <path d="M 44.560826 298.944 
L 44.560826 284.056094 
L 57.6 284.056094 
L 57.6 280.620424 
L 65.227428 280.620424 
L 65.227428 277.566494 
L 70.639174 277.566494 
L 70.639174 275.657788 
L 74.836851 275.657788 
L 74.836851 275.276047 
L 78.266603 275.276047 
L 78.266603 274.130824 
L 81.166416 274.130824 
L 81.166416 273.749082 
L 83.678349 273.749082 
L 83.678349 272.9856 
L 85.894031 272.9856 
L 85.894031 271.840376 
L 87.876026 271.840376 
L 87.876026 271.076894 
L 89.668958 271.076894 
L 89.668958 270.695153 
L 100.9152 270.695153 
L 100.9152 270.313412 
L 101.833019 270.313412 
L 101.833019 268.786447 
L 104.344952 268.786447 
L 104.344952 267.641224 
L 105.112877 267.641224 
L 105.112877 266.496 
L 106.560633 266.496 
L 106.560633 265.732518 
L 107.904887 265.732518 
L 107.904887 265.350776 
L 110.335561 265.350776 
L 110.335561 264.969035 
L 113.478107 264.969035 
L 113.478107 264.587294 
L 113.954374 264.587294 
L 113.954374 263.823812 
L 118.524569 263.823812 
L 118.524569 263.442071 
L 119.24818 263.442071 
L 119.24818 262.296847 
L 120.28394 262.296847 
L 120.28394 261.915106 
L 125.526971 261.915106 
L 125.526971 261.151624 
L 126.756923 261.151624 
L 126.756923 260.769882 
L 127.458055 260.769882 
L 127.458055 259.624659 
L 128.133992 259.624659 
L 128.133992 259.242918 
L 128.999044 259.242918 
L 128.999044 258.479435 
L 131.378407 258.479435 
L 131.378407 258.097694 
L 134.463557 258.097694 
L 134.463557 257.715953 
L 135.981441 257.715953 
L 135.981441 256.952471 
L 136.836659 256.952471 
L 136.836659 256.570729 
L 140.26641 256.570729 
L 140.26641 256.188988 
L 145.590864 256.188988 
L 145.590864 255.807247 
L 147.893838 255.807247 
L 147.893838 255.425506 
L 149.595059 255.425506 
L 149.595059 255.043765 
L 154.595705 255.043765 
L 154.595705 253.135059 
L 155.13016 253.135059 
L 155.13016 252.753318 
L 159.816746 252.753318 
L 159.816746 252.371576 
L 160.223059 252.371576 
L 160.223059 251.989835 
L 165.604634 251.989835 
L 165.604634 251.608094 
L 165.993131 251.608094 
L 165.993131 251.226353 
L 167.361848 251.226353 
L 167.361848 250.844612 
L 168.765753 250.844612 
L 168.765753 250.462871 
L 170.37916 250.462871 
L 170.37916 250.081129 
L 170.978599 250.081129 
L 170.978599 249.699388 
L 171.338209 249.699388 
L 171.404878 248.554165 
L 171.756506 248.554165 
L 171.756506 248.172424 
L 172.208263 248.172424 
L 172.293095 247.408941 
L 174.600249 247.408941 
L 174.600249 247.0272 
L 177.086427 247.0272 
L 177.086427 246.645459 
L 180.674054 246.645459 
L 180.674054 246.263718 
L 182.133854 246.263718 
L 182.133854 245.500235 
L 183.158861 245.500235 
L 183.158861 245.118494 
L 185.73008 245.118494 
L 185.73008 244.736753 
L 186.139934 244.736753 
L 186.139934 243.973271 
L 186.251096 243.973271 
L 186.251096 243.591529 
L 188.265306 243.591529 
L 188.265306 242.828047 
L 190.667153 242.828047 
L 190.667153 242.446306 
L 192.14528 242.446306 
L 192.14528 242.064565 
L 205.19918 242.064565 
L 205.19918 241.301082 
L 209.076197 241.301082 
L 209.076197 240.919341 
L 215.331179 240.919341 
L 215.331179 240.5376 
L 215.559563 240.5376 
L 215.559563 240.155859 
L 217.161167 240.155859 
L 217.174801 239.392376 
L 217.672424 239.392376 
L 217.672424 239.010635 
L 226.939726 239.010635 
L 226.939726 238.628894 
L 228.764544 238.628894 
L 228.764544 238.247153 
L 229.274874 238.247153 
L 229.289195 237.101929 
L 230.614646 237.101929 
L 230.614646 236.338447 
L 231.458807 236.338447 
L 231.458807 235.956706 
L 233.03128 235.956706 
L 233.063937 234.048 
L 234.462205 234.048 
L 234.462205 233.666259 
L 235.267251 233.666259 
L 235.267251 233.284518 
L 237.098097 233.284518 
L 237.098097 232.902776 
L 238.217281 232.902776 
L 238.217281 232.521035 
L 238.778805 232.521035 
L 238.794852 231.757553 
L 239.509078 231.757553 
L 239.509078 231.375812 
L 242.426786 231.375812 
L 242.427803 230.230588 
L 242.682393 230.230588 
L 242.688914 228.703624 
L 242.957332 228.703624 
L 242.957332 228.321882 
L 243.22636 228.321882 
L 243.25899 226.413176 
L 243.346857 226.413176 
L 243.438654 224.504471 
L 243.539116 224.504471 
L 243.55445 223.740988 
L 243.653821 223.740988 
L 243.653821 223.359247 
L 245.54224 223.359247 
L 245.593026 222.595765 
L 245.865267 222.595765 
L 245.967087 219.160094 
L 246.757145 219.160094 
L 246.769262 218.014871 
L 268.198766 218.014871 
L 268.198766 217.633129 
L 268.40838 217.633129 
L 268.40838 217.251388 
L 268.529659 217.251388 
L 268.529659 216.869647 
L 274.20861 216.869647 
L 274.31656 214.960941 
L 274.349766 214.960941 
L 274.414703 213.815718 
L 274.650781 213.815718 
L 274.757781 213.052235 
L 274.982412 213.052235 
L 275.063517 211.525271 
L 275.644386 211.525271 
L 275.644386 211.143529 
L 275.830157 211.143529 
L 275.830157 210.761788 
L 276.176929 210.761788 
L 276.180142 209.616565 
L 276.326355 209.616565 
L 276.414994 208.471341 
L 276.629538 208.471341 
L 276.629538 207.707859 
L 276.770019 207.707859 
L 276.845418 206.180894 
L 277.409245 206.180894 
L 277.514687 200.836518 
L 277.52327 200.836518 
L 277.529646 200.073035 
L 277.889613 200.073035 
L 277.966432 196.255624 
L 278.113109 196.255624 
L 278.115397 195.1104 
L 284.603059 195.1104 
L 284.603059 194.728659 
L 287.231486 194.728659 
L 287.302258 192.056471 
L 287.454063 192.056471 
L 287.508314 191.292988 
L 288.061058 191.292988 
L 288.121344 190.147765 
L 288.243922 190.147765 
L 288.321061 188.239059 
L 288.481916 188.239059 
L 288.481916 187.857318 
L 288.596058 187.857318 
L 288.597194 186.712094 
L 288.878847 186.712094 
L 288.976957 180.222494 
L 289.163471 180.222494 
L 289.205698 177.550306 
L 289.286542 177.550306 
L 289.287806 176.405082 
L 293.142093 176.405082 
L 293.142093 176.023341 
L 294.900703 176.023341 
L 295.002198 174.496376 
L 295.151108 174.496376 
L 295.151108 174.114635 
L 295.410304 174.114635 
L 295.410304 173.732894 
L 295.534466 173.732894 
L 295.534677 172.205929 
L 295.747607 172.205929 
L 295.774361 170.678965 
L 295.967902 170.678965 
L 296.041382 163.807624 
L 296.163623 163.807624 
L 296.248538 158.463247 
L 298.993594 158.463247 
L 298.993594 158.081506 
L 300.298199 158.081506 
L 300.298199 157.699765 
L 300.775617 157.699765 
L 300.775617 157.318024 
L 300.937151 157.318024 
L 300.958047 156.554541 
L 301.104571 156.554541 
L 301.155857 150.446682 
L 301.25634 150.446682 
L 301.318528 146.247529 
L 304.785608 146.247529 
L 304.870318 144.720565 
L 305.000236 144.720565 
L 305.017074 143.1936 
L 305.13525 143.1936 
L 305.176076 136.704 
L 305.269338 136.704 
L 305.30867 132.504847 
L 307.894768 132.504847 
L 307.894768 132.123106 
L 308.036662 132.123106 
L 308.036662 131.741365 
L 308.230997 131.741365 
L 308.230997 131.359624 
L 308.45284 131.359624 
L 308.555666 126.396988 
L 308.565313 126.396988 
L 308.598329 123.7248 
L 310.03546 123.7248 
L 310.03546 123.343059 
L 311.026992 123.343059 
L 311.081225 122.579576 
L 311.186579 122.579576 
L 311.296382 117.2352 
L 311.301598 117.2352 
L 311.397044 113.036047 
L 313.723438 113.036047 
L 313.833137 107.309929 
L 315.742665 107.309929 
L 315.825214 106.546447 
L 315.891833 106.546447 
L 315.970102 99.293365 
L 317.658731 99.293365 
L 317.658731 98.911624 
L 317.835914 98.911624 
L 317.924122 92.803765 
L 318.812758 92.803765 
L 318.812758 92.422024 
L 319.47536 92.422024 
L 319.553028 90.895059 
L 319.602132 90.895059 
L 319.678107 87.459388 
L 321.212656 87.459388 
L 321.267678 80.588047 
L 322.047676 80.588047 
L 322.047676 80.206306 
L 322.639424 80.206306 
L 322.74696 74.861929 
L 322.76079 74.861929 
L 322.76079 74.480188 
L 323.982785 74.480188 
L 324.084155 70.281035 
L 324.111755 70.281035 
L 324.118349 68.372329 
L 325.30887 68.372329 
L 325.396519 66.463624 
L 326.548883 66.463624 
L 326.60444 62.264471 
L 327.640958 62.264471 
L 327.718551 58.447059 
L 328.740667 58.447059 
L 328.790121 56.156612 
L 329.758726 56.156612 
L 329.785196 54.629647 
L 330.705939 54.629647 
L 330.738056 51.575718 
L 331.584276 51.575718 
L 331.65559 50.048753 
L 332.453115 50.048753 
L 332.513222 46.613082 
L 333.310166 46.613082 
L 333.348966 43.940894 
L 334.106543 43.940894 
L 334.134288 40.505224 
L 334.876004 40.505224 
L 334.895278 39.36 
L 335.599184 39.36 
L 335.626676 37.069553 
L 336.281645 37.069553 
L 336.312011 35.924329 
L 336.990328 35.924329 
L 336.992096 34.397365 
L 337.618703 34.397365 
L 337.664311 32.8704 
L 338.27341 32.8704 
L 338.297261 31.343435 
L 338.891511 31.343435 
L 338.909606 29.434729 
L 339.461212 29.434729 
L 339.502645 27.907765 
L 340.037447 27.907765 
L 340.060414 27.144282 
L 340.596411 27.144282 
L 340.634758 24.472094 
L 341.161045 24.472094 
L 341.177215 23.326871 
L 341.667055 23.326871 
L 341.685292 21.418165 
L 342.196762 21.418165 
L 342.202541 20.654682 
L 343.186246 20.654682 
L 343.186246 20.272941 
L 343.66066 20.272941 
L 343.67424 19.127718 
L 344.122495 19.127718 
L 344.1362 17.982494 
L 344.570017 17.982494 
L 344.587086 17.219012 
L 345.014388 17.219012 
L 345.014388 16.837271 
L 345.442459 16.837271 
L 345.457679 14.165082 
L 345.848804 14.165082 
L 345.863462 13.4016 
L 346.279241 13.4016 
L 346.279241 13.019859 
L 347.459013 13.019859 
L 347.472226 11.492894 
L 347.841347 11.492894 
L 347.841347 11.111153 
L 348.208764 11.111153 
L 348.208764 10.729412 
L 348.941994 10.729412 
L 348.941994 10.347671 
L 349.279296 10.347671 
L 349.283207 9.584188 
L 350.305599 9.584188 
L 350.305599 9.202447 
L 351.568376 9.202447 
L 351.568376 8.820706 
L 352.767199 8.820706 
L 352.767199 8.438965 
L 354.684648 8.438965 
L 354.684648 8.057224 
L 356.894182 8.057224 
L 356.894182 7.675482 
L 358.017953 7.675482 
L 358.017953 7.293741 
L 360.8064 7.293741 
L 360.8064 7.293741 
" style="fill: none; stroke: #ff0000; stroke-width: 1.5; stroke-linecap: square"/>
   </g>
   <g id="line2d_49">
    <defs>
     <path id="me361b5e0bf" d="M 0 -6 
L -5.196152 -3 
L -5.196152 3 
L -0 6 
L 5.196152 3 
L 5.196152 -3 
z
" style="stroke: #ff0000; stroke-width: 1.5; stroke-linejoin: miter"/>
    </defs>
    <g>
     <use xlink:href="#me361b5e0bf" x="118.524569" y="263.823812" style="fill-opacity: 0; stroke: #ff0000; stroke-width: 1.5; stroke-linejoin: miter"/>
     <use xlink:href="#me361b5e0bf" x="217.174801" y="239.392376" style="fill-opacity: 0; stroke: #ff0000; stroke-width: 1.5; stroke-linejoin: miter"/>
     <use xlink:href="#me361b5e0bf" x="284.603059" y="194.728659" style="fill-opacity: 0; stroke: #ff0000; stroke-width: 1.5; stroke-linejoin: miter"/>
     <use xlink:href="#me361b5e0bf" x="325.30887" y="68.372329" style="fill-opacity: 0; stroke: #ff0000; stroke-width: 1.5; stroke-linejoin: miter"/>
     <use xlink:href="#me361b5e0bf" x="358.017953" y="7.293741" style="fill-opacity: 0; stroke: #ff0000; stroke-width: 1.5; stroke-linejoin: miter"/>
     <use xlink:href="#me361b5e0bf" x="360.8064" y="7.293741" style="fill-opacity: 0; stroke: #ff0000; stroke-width: 1.5; stroke-linejoin: miter"/>
    </g>
   </g>
   <g id="line2d_50">
    <path style="fill: none; stroke: #ff0000; stroke-width: 1.5; stroke-linecap: square"/>
    <g/>
   </g>
   <g id="line2d_51">
    <path d="M 274.176 216.869647 
" clip-path="url(#pe414c5cb9a)" style="fill: none; stroke: #ff0000; stroke-width: 1.5; stroke-linecap: square"/>
    <defs>
     <path id="m908b79c17b" d="M -12 12 
L 12 -12 
M -12 -12 
L 12 12 
" style="stroke: #ff0000"/>
    </defs>
    <g clip-path="url(#pe414c5cb9a)">
     <use xlink:href="#m908b79c17b" x="274.176" y="216.869647" style="fill: #ff0000; stroke: #ff0000"/>
    </g>
   </g>
   <g id="line2d_52">
    <path d="M 360.8064 7.293741 
L 380.514816 293.10336 
" style="fill: none; stroke: #ff0000; stroke-width: 1.5; stroke-linecap: square"/>
    <g>
     <use xlink:href="#me361b5e0bf" x="360.8064" y="7.293741" style="fill-opacity: 0; stroke: #ff0000; stroke-width: 1.5; stroke-linejoin: miter"/>
     <use xlink:href="#me361b5e0bf" x="380.514816" y="293.10336" style="fill-opacity: 0; stroke: #ff0000; stroke-width: 1.5; stroke-linejoin: miter"/>
    </g>
   </g>
   <g id="line2d_53">
    <path d="M 360.8064 6.912 
L 380.514816 223.01568 
" style="fill: none; stroke: #6495ed; stroke-width: 1.5; stroke-linecap: square"/>
    <g>
     <use xlink:href="#m1c1afba7e3" x="360.8064" y="6.912" style="fill-opacity: 0; stroke: #6495ed; stroke-width: 1.5; stroke-linejoin: miter"/>
     <use xlink:href="#m1c1afba7e3" x="380.514816" y="223.01568" style="fill-opacity: 0; stroke: #6495ed; stroke-width: 1.5; stroke-linejoin: miter"/>
    </g>
   </g>
   <g id="line2d_54">
    <path d="M 360.8064 6.912 
L 380.514816 152.928 
" style="fill: none; stroke: #000080; stroke-width: 1.5; stroke-linecap: square"/>
    <g>
     <use xlink:href="#maf21442258" x="360.8064" y="6.912" style="fill-opacity: 0; stroke: #000080; stroke-width: 1.5"/>
     <use xlink:href="#maf21442258" x="380.514816" y="152.928" style="fill-opacity: 0; stroke: #000080; stroke-width: 1.5"/>
    </g>
   </g>
   <g id="line2d_55">
    <path d="M 360.8064 6.912 
L 380.514816 82.84032 
" style="fill: none; stroke: #ff7500; stroke-width: 1.5; stroke-linecap: square"/>
    <g>
     <use xlink:href="#mac7c03fdbb" x="360.8064" y="6.912" style="fill-opacity: 0; stroke: #ff7500; stroke-width: 1.5; stroke-linejoin: bevel"/>
     <use xlink:href="#mac7c03fdbb" x="380.514816" y="82.84032" style="fill-opacity: 0; stroke: #ff7500; stroke-width: 1.5; stroke-linejoin: bevel"/>
    </g>
   </g>
   <g id="line2d_56">
    <path d="M 360.8064 6.912 
L 380.514816 12.75264 
" style="fill: none; stroke: #ff00ff; stroke-width: 1.5; stroke-linecap: square"/>
    <g>
     <use xlink:href="#m903599ed6b" x="360.8064" y="6.912" style="fill-opacity: 0; stroke: #ff00ff; stroke-width: 1.5; stroke-linejoin: miter"/>
     <use xlink:href="#m903599ed6b" x="380.514816" y="12.75264" style="fill-opacity: 0; stroke: #ff00ff; stroke-width: 1.5; stroke-linejoin: miter"/>
    </g>
   </g>
   <g id="line2d_57">
    <path d="M 360.8064 298.944 
L 360.8064 6.912 
" style="fill: none; stroke: #000000; stroke-width: 1.5; stroke-linecap: square"/>
   </g>
   <g id="patch_3">
    <path d="M 57.6 298.944 
L 360.8064 298.944 
" style="fill: none; stroke: #000000; stroke-width: 0.8; stroke-linejoin: miter; stroke-linecap: square"/>
   </g>
   <g id="patch_4">
    <path d="M 57.6 6.912 
L 360.8064 6.912 
" style="fill: none; stroke: #000000; stroke-width: 0.8; stroke-linejoin: miter; stroke-linecap: square"/>
   </g>
   <g id="text_13">
    <!-- f24 -->
    <g transform="translate(386.578944 296.966485)scale(0.14 -0.14)">
     <use xlink:href="#DejaVuSans-66"/>
     <use xlink:href="#DejaVuSans-32" x="35.205078"/>
     <use xlink:href="#DejaVuSans-34" x="98.828125"/>
    </g>
   </g>
   <g id="text_14">
    <!-- f23 -->
    <g transform="translate(386.578944 226.878805)scale(0.14 -0.14)">
     <defs>
      <path id="DejaVuSans-33" d="M 2597 2516 
Q 3050 2419 3304 2112 
Q 3559 1806 3559 1356 
Q 3559 666 3084 287 
Q 2609 -91 1734 -91 
Q 1441 -91 1130 -33 
Q 819 25 488 141 
L 488 750 
Q 750 597 1062 519 
Q 1375 441 1716 441 
Q 2309 441 2620 675 
Q 2931 909 2931 1356 
Q 2931 1769 2642 2001 
Q 2353 2234 1838 2234 
L 1294 2234 
L 1294 2753 
L 1863 2753 
Q 2328 2753 2575 2939 
Q 2822 3125 2822 3475 
Q 2822 3834 2567 4026 
Q 2313 4219 1838 4219 
Q 1578 4219 1281 4162 
Q 984 4106 628 3988 
L 628 4550 
Q 988 4650 1302 4700 
Q 1616 4750 1894 4750 
Q 2613 4750 3031 4423 
Q 3450 4097 3450 3541 
Q 3450 3153 3228 2886 
Q 3006 2619 2597 2516 
z
" transform="scale(0.015625)"/>
     </defs>
     <use xlink:href="#DejaVuSans-66"/>
     <use xlink:href="#DejaVuSans-32" x="35.205078"/>
     <use xlink:href="#DejaVuSans-33" x="98.828125"/>
    </g>
   </g>
   <g id="text_15">
    <!-- f20 -->
    <g transform="translate(386.578944 156.791125)scale(0.14 -0.14)">
     <use xlink:href="#DejaVuSans-66"/>
     <use xlink:href="#DejaVuSans-32" x="35.205078"/>
     <use xlink:href="#DejaVuSans-30" x="98.828125"/>
    </g>
   </g>
   <g id="text_16">
    <!-- f22 -->
    <g transform="translate(386.578944 86.703445)scale(0.14 -0.14)">
     <use xlink:href="#DejaVuSans-66"/>
     <use xlink:href="#DejaVuSans-32" x="35.205078"/>
     <use xlink:href="#DejaVuSans-32" x="98.828125"/>
    </g>
   </g>
   <g id="text_17">
    <!-- f21 -->
    <g transform="translate(386.578944 16.615765)scale(0.14 -0.14)">
     <use xlink:href="#DejaVuSans-66"/>
     <use xlink:href="#DejaVuSans-32" x="35.205078"/>
     <use xlink:href="#DejaVuSans-31" x="98.828125"/>
    </g>
   </g>
   <g id="text_18">
    <!-- bbob -->
    <g transform="translate(60.632064 17.582726)scale(0.102 -0.102)">
     <defs>
      <path id="DejaVuSans-62" d="M 3116 1747 
Q 3116 2381 2855 2742 
Q 2594 3103 2138 3103 
Q 1681 3103 1420 2742 
Q 1159 2381 1159 1747 
Q 1159 1113 1420 752 
Q 1681 391 2138 391 
Q 2594 391 2855 752 
Q 3116 1113 3116 1747 
z
M 1159 2969 
Q 1341 3281 1617 3432 
Q 1894 3584 2278 3584 
Q 2916 3584 3314 3078 
Q 3713 2572 3713 1747 
Q 3713 922 3314 415 
Q 2916 -91 2278 -91 
Q 1894 -91 1617 61 
Q 1341 213 1159 525 
L 1159 0 
L 581 0 
L 581 4863 
L 1159 4863 
L 1159 2969 
z
" transform="scale(0.015625)"/>
     </defs>
     <use xlink:href="#DejaVuSans-62"/>
     <use xlink:href="#DejaVuSans-62" x="63.476562"/>
     <use xlink:href="#DejaVuSans-6f" x="126.953125"/>
     <use xlink:href="#DejaVuSans-62" x="188.134766"/>
    </g>
    <!-- Weak structure functions, 2-D -->
    <g transform="translate(60.632064 29.004495)scale(0.102 -0.102)">
     <defs>
      <path id="DejaVuSans-57" d="M 213 4666 
L 850 4666 
L 1831 722 
L 2809 4666 
L 3519 4666 
L 4500 722 
L 5478 4666 
L 6119 4666 
L 4947 0 
L 4153 0 
L 3169 4050 
L 2175 0 
L 1381 0 
L 213 4666 
z
" transform="scale(0.015625)"/>
      <path id="DejaVuSans-6b" d="M 581 4863 
L 1159 4863 
L 1159 1991 
L 2875 3500 
L 3609 3500 
L 1753 1863 
L 3688 0 
L 2938 0 
L 1159 1709 
L 1159 0 
L 581 0 
L 581 4863 
z
" transform="scale(0.015625)"/>
      <path id="DejaVuSans-44" d="M 1259 4147 
L 1259 519 
L 2022 519 
Q 2988 519 3436 956 
Q 3884 1394 3884 2338 
Q 3884 3275 3436 3711 
Q 2988 4147 2022 4147 
L 1259 4147 
z
M 628 4666 
L 1925 4666 
Q 3281 4666 3915 4102 
Q 4550 3538 4550 2338 
Q 4550 1131 3912 565 
Q 3275 0 1925 0 
L 628 0 
L 628 4666 
z
" transform="scale(0.015625)"/>
     </defs>
     <use xlink:href="#DejaVuSans-57"/>
     <use xlink:href="#DejaVuSans-65" x="93.001953"/>
     <use xlink:href="#DejaVuSans-61" x="154.525391"/>
     <use xlink:href="#DejaVuSans-6b" x="215.804688"/>
     <use xlink:href="#DejaVuSans-20" x="273.714844"/>
     <use xlink:href="#DejaVuSans-73" x="305.501953"/>
     <use xlink:href="#DejaVuSans-74" x="357.601562"/>
     <use xlink:href="#DejaVuSans-72" x="396.810547"/>
     <use xlink:href="#DejaVuSans-75" x="437.923828"/>
     <use xlink:href="#DejaVuSans-63" x="501.302734"/>
     <use xlink:href="#DejaVuSans-74" x="556.283203"/>
     <use xlink:href="#DejaVuSans-75" x="595.492188"/>
     <use xlink:href="#DejaVuSans-72" x="658.871094"/>
     <use xlink:href="#DejaVuSans-65" x="697.734375"/>
     <use xlink:href="#DejaVuSans-20" x="759.257812"/>
     <use xlink:href="#DejaVuSans-66" x="791.044922"/>
     <use xlink:href="#DejaVuSans-75" x="826.25"/>
     <use xlink:href="#DejaVuSans-6e" x="889.628906"/>
     <use xlink:href="#DejaVuSans-63" x="953.007812"/>
     <use xlink:href="#DejaVuSans-74" x="1007.988281"/>
     <use xlink:href="#DejaVuSans-69" x="1047.197266"/>
     <use xlink:href="#DejaVuSans-6f" x="1074.980469"/>
     <use xlink:href="#DejaVuSans-6e" x="1136.162109"/>
     <use xlink:href="#DejaVuSans-73" x="1199.541016"/>
     <use xlink:href="#DejaVuSans-2c" x="1251.640625"/>
     <use xlink:href="#DejaVuSans-20" x="1283.427734"/>
     <use xlink:href="#DejaVuSans-32" x="1315.214844"/>
     <use xlink:href="#DejaVuSans-2d" x="1378.837891"/>
     <use xlink:href="#DejaVuSans-44" x="1414.921875"/>
    </g>
    <!-- 51 targets: 100..1e-08 -->
    <g transform="translate(60.632064 40.426264)scale(0.102 -0.102)">
     <defs>
      <path id="DejaVuSans-35" d="M 691 4666 
L 3169 4666 
L 3169 4134 
L 1269 4134 
L 1269 2991 
Q 1406 3038 1543 3061 
Q 1681 3084 1819 3084 
Q 2600 3084 3056 2656 
Q 3513 2228 3513 1497 
Q 3513 744 3044 326 
Q 2575 -91 1722 -91 
Q 1428 -91 1123 -41 
Q 819 9 494 109 
L 494 744 
Q 775 591 1075 516 
Q 1375 441 1709 441 
Q 2250 441 2565 725 
Q 2881 1009 2881 1497 
Q 2881 1984 2565 2268 
Q 2250 2553 1709 2553 
Q 1456 2553 1204 2497 
Q 953 2441 691 2322 
L 691 4666 
z
" transform="scale(0.015625)"/>
      <path id="DejaVuSans-3a" d="M 750 794 
L 1409 794 
L 1409 0 
L 750 0 
L 750 794 
z
M 750 3309 
L 1409 3309 
L 1409 2516 
L 750 2516 
L 750 3309 
z
" transform="scale(0.015625)"/>
     </defs>
     <use xlink:href="#DejaVuSans-35"/>
     <use xlink:href="#DejaVuSans-31" x="63.623047"/>
     <use xlink:href="#DejaVuSans-20" x="127.246094"/>
     <use xlink:href="#DejaVuSans-74" x="159.033203"/>
     <use xlink:href="#DejaVuSans-61" x="198.242188"/>
     <use xlink:href="#DejaVuSans-72" x="259.521484"/>
     <use xlink:href="#DejaVuSans-67" x="298.884766"/>
     <use xlink:href="#DejaVuSans-65" x="362.361328"/>
     <use xlink:href="#DejaVuSans-74" x="423.884766"/>
     <use xlink:href="#DejaVuSans-73" x="463.09375"/>
     <use xlink:href="#DejaVuSans-3a" x="515.193359"/>
     <use xlink:href="#DejaVuSans-20" x="548.884766"/>
     <use xlink:href="#DejaVuSans-31" x="580.671875"/>
     <use xlink:href="#DejaVuSans-30" x="644.294922"/>
     <use xlink:href="#DejaVuSans-30" x="707.917969"/>
     <use xlink:href="#DejaVuSans-2e" x="771.541016"/>
     <use xlink:href="#DejaVuSans-2e" x="803.328125"/>
     <use xlink:href="#DejaVuSans-31" x="835.115234"/>
     <use xlink:href="#DejaVuSans-65" x="898.738281"/>
     <use xlink:href="#DejaVuSans-2d" x="960.261719"/>
     <use xlink:href="#DejaVuSans-30" x="996.345703"/>
     <use xlink:href="#DejaVuSans-38" x="1059.96875"/>
    </g>
    <!-- 15 instances -->
    <g transform="translate(60.632064 51.848032)scale(0.102 -0.102)">
     <use xlink:href="#DejaVuSans-31"/>
     <use xlink:href="#DejaVuSans-35" x="63.623047"/>
     <use xlink:href="#DejaVuSans-20" x="127.246094"/>
     <use xlink:href="#DejaVuSans-69" x="159.033203"/>
     <use xlink:href="#DejaVuSans-6e" x="186.816406"/>
     <use xlink:href="#DejaVuSans-73" x="250.195312"/>
     <use xlink:href="#DejaVuSans-74" x="302.294922"/>
     <use xlink:href="#DejaVuSans-61" x="341.503906"/>
     <use xlink:href="#DejaVuSans-6e" x="402.783203"/>
     <use xlink:href="#DejaVuSans-63" x="466.162109"/>
     <use xlink:href="#DejaVuSans-65" x="521.142578"/>
     <use xlink:href="#DejaVuSans-73" x="582.666016"/>
    </g>
   </g>
   <g id="text_19">
    <!-- v2.6 -->
    <g style="fill: #808080" transform="translate(198.292262 293.943992)scale(0.1 -0.1)">
     <use xlink:href="#DejaVuSans-76"/>
     <use xlink:href="#DejaVuSans-32" x="59.179688"/>
     <use xlink:href="#DejaVuSans-2e" x="122.802734"/>
     <use xlink:href="#DejaVuSans-36" x="154.589844"/>
    </g>
   </g>
  </g>
 </g>
 <defs>
  <clipPath id="pe414c5cb9a">
   <rect x="57.6" y="6.912" width="303.2064" height="292.032"/>
  </clipPath>
 </defs>
</svg>
