<?xml version="1.0" encoding="utf-8" standalone="no"?>
<!DOCTYPE svg PUBLIC "-//W3C//DTD SVG 1.1//EN"
  "http://www.w3.org/Graphics/SVG/1.1/DTD/svg11.dtd">
<svg xmlns:xlink="http://www.w3.org/1999/xlink" width="460.8pt" height="345.6pt" viewBox="0 0 460.8 345.6" xmlns="http://www.w3.org/2000/svg" version="1.1">
 <metadata>
  <rdf:RDF xmlns:dc="http://purl.org/dc/elements/1.1/" xmlns:cc="http://creativecommons.org/ns#" xmlns:rdf="http://www.w3.org/1999/02/22-rdf-syntax-ns#">
   <cc:Work>
    <dc:type rdf:resource="http://purl.org/dc/dcmitype/StillImage"/>
    <dc:date>2024-05-29T07:56:36.634940</dc:date>
    <dc:format>image/svg+xml</dc:format>
    <dc:creator>
     <cc:Agent>
      <dc:title>Matplotlib v3.5.1, https://matplotlib.org/</dc:title>
     </cc:Agent>
    </dc:creator>
   </cc:Work>
  </rdf:RDF>
 </metadata>
 <defs>
  <style type="text/css">*{stroke-linejoin: round; stroke-linecap: butt}</style>
 </defs>
 <g id="figure_1">
  <g id="patch_1">
   <path d="M 0 345.6 
L 460.8 345.6 
L 460.8 0 
L 0 0 
z
" style="fill: #ffffff"/>
  </g>
  <g id="axes_1">
   <g id="patch_2">
    <path d="M 57.6 298.944 
L 360.8064 298.944 
L 360.8064 27.648 
L 57.6 27.648 
z
" style="fill: #ffffff"/>
   </g>
   <g id="matplotlib.axis_1">
    <g id="xtick_1">
     <g id="line2d_1">
      <path d="M 57.6 298.944 
L 57.6 27.648 
" clip-path="url(#pe26654d122)" style="fill: none; stroke: #b0b0b0; stroke-width: 0.8; stroke-linecap: square"/>
     </g>
     <g id="line2d_2">
      <defs>
       <path id="m0d8c973fdd" d="M 0 0 
L 0 3.5 
" style="stroke: #000000; stroke-width: 0.8"/>
      </defs>
      <g>
       <use xlink:href="#m0d8c973fdd" x="57.6" y="298.944" style="stroke: #000000; stroke-width: 0.8"/>
      </g>
     </g>
     <g id="text_1">
      <!-- 0 -->
      <g transform="translate(52.191875 318.861344)scale(0.17 -0.17)">
       <defs>
        <path id="DejaVuSans-30" d="M 2034 4250 
Q 1547 4250 1301 3770 
Q 1056 3291 1056 2328 
Q 1056 1369 1301 889 
Q 1547 409 2034 409 
Q 2525 409 2770 889 
Q 3016 1369 3016 2328 
Q 3016 3291 2770 3770 
Q 2525 4250 2034 4250 
z
M 2034 4750 
Q 2819 4750 3233 4129 
Q 3647 3509 3647 2328 
Q 3647 1150 3233 529 
Q 2819 -91 2034 -91 
Q 1250 -91 836 529 
Q 422 1150 422 2328 
Q 422 3509 836 4129 
Q 1250 4750 2034 4750 
z
" transform="scale(0.015625)"/>
       </defs>
       <use xlink:href="#DejaVuSans-30"/>
      </g>
     </g>
    </g>
    <g id="xtick_2">
     <g id="line2d_3">
      <path d="M 144.2304 298.944 
L 144.2304 27.648 
" clip-path="url(#pe26654d122)" style="fill: none; stroke: #b0b0b0; stroke-width: 0.8; stroke-linecap: square"/>
     </g>
     <g id="line2d_4">
      <g>
       <use xlink:href="#m0d8c973fdd" x="144.2304" y="298.944" style="stroke: #000000; stroke-width: 0.8"/>
      </g>
     </g>
     <g id="text_2">
      <!-- 2 -->
      <g transform="translate(138.822275 318.861344)scale(0.17 -0.17)">
       <defs>
        <path id="DejaVuSans-32" d="M 1228 531 
L 3431 531 
L 3431 0 
L 469 0 
L 469 531 
Q 828 903 1448 1529 
Q 2069 2156 2228 2338 
Q 2531 2678 2651 2914 
Q 2772 3150 2772 3378 
Q 2772 3750 2511 3984 
Q 2250 4219 1831 4219 
Q 1534 4219 1204 4116 
Q 875 4013 500 3803 
L 500 4441 
Q 881 4594 1212 4672 
Q 1544 4750 1819 4750 
Q 2544 4750 2975 4387 
Q 3406 4025 3406 3419 
Q 3406 3131 3298 2873 
Q 3191 2616 2906 2266 
Q 2828 2175 2409 1742 
Q 1991 1309 1228 531 
z
" transform="scale(0.015625)"/>
       </defs>
       <use xlink:href="#DejaVuSans-32"/>
      </g>
     </g>
    </g>
    <g id="xtick_3">
     <g id="line2d_5">
      <path d="M 230.8608 298.944 
L 230.8608 27.648 
" clip-path="url(#pe26654d122)" style="fill: none; stroke: #b0b0b0; stroke-width: 0.8; stroke-linecap: square"/>
     </g>
     <g id="line2d_6">
      <g>
       <use xlink:href="#m0d8c973fdd" x="230.8608" y="298.944" style="stroke: #000000; stroke-width: 0.8"/>
      </g>
     </g>
     <g id="text_3">
      <!-- 4 -->
      <g transform="translate(225.452675 318.861344)scale(0.17 -0.17)">
       <defs>
        <path id="DejaVuSans-34" d="M 2419 4116 
L 825 1625 
L 2419 1625 
L 2419 4116 
z
M 2253 4666 
L 3047 4666 
L 3047 1625 
L 3713 1625 
L 3713 1100 
L 3047 1100 
L 3047 0 
L 2419 0 
L 2419 1100 
L 313 1100 
L 313 1709 
L 2253 4666 
z
" transform="scale(0.015625)"/>
       </defs>
       <use xlink:href="#DejaVuSans-34"/>
      </g>
     </g>
    </g>
    <g id="xtick_4">
     <g id="line2d_7">
      <path d="M 317.4912 298.944 
L 317.4912 27.648 
" clip-path="url(#pe26654d122)" style="fill: none; stroke: #b0b0b0; stroke-width: 0.8; stroke-linecap: square"/>
     </g>
     <g id="line2d_8">
      <g>
       <use xlink:href="#m0d8c973fdd" x="317.4912" y="298.944" style="stroke: #000000; stroke-width: 0.8"/>
      </g>
     </g>
     <g id="text_4">
      <!-- 6 -->
      <g transform="translate(312.083075 318.861344)scale(0.17 -0.17)">
       <defs>
        <path id="DejaVuSans-36" d="M 2113 2584 
Q 1688 2584 1439 2293 
Q 1191 2003 1191 1497 
Q 1191 994 1439 701 
Q 1688 409 2113 409 
Q 2538 409 2786 701 
Q 3034 994 3034 1497 
Q 3034 2003 2786 2293 
Q 2538 2584 2113 2584 
z
M 3366 4563 
L 3366 3988 
Q 3128 4100 2886 4159 
Q 2644 4219 2406 4219 
Q 1781 4219 1451 3797 
Q 1122 3375 1075 2522 
Q 1259 2794 1537 2939 
Q 1816 3084 2150 3084 
Q 2853 3084 3261 2657 
Q 3669 2231 3669 1497 
Q 3669 778 3244 343 
Q 2819 -91 2113 -91 
Q 1303 -91 875 529 
Q 447 1150 447 2328 
Q 447 3434 972 4092 
Q 1497 4750 2381 4750 
Q 2619 4750 2861 4703 
Q 3103 4656 3366 4563 
z
" transform="scale(0.015625)"/>
       </defs>
       <use xlink:href="#DejaVuSans-36"/>
      </g>
     </g>
    </g>
    <g id="xtick_5">
     <g id="line2d_9">
      <path d="M 100.9152 298.944 
L 100.9152 27.648 
" clip-path="url(#pe26654d122)" style="fill: none; stroke: #b0b0b0; stroke-width: 0.8; stroke-linecap: square"/>
     </g>
     <g id="line2d_10">
      <defs>
       <path id="m73d69758f9" d="M 0 0 
L 0 2 
" style="stroke: #000000; stroke-width: 0.6"/>
      </defs>
      <g>
       <use xlink:href="#m73d69758f9" x="100.9152" y="298.944" style="stroke: #000000; stroke-width: 0.6"/>
      </g>
     </g>
    </g>
    <g id="xtick_6">
     <g id="line2d_11">
      <path d="M 187.5456 298.944 
L 187.5456 27.648 
" clip-path="url(#pe26654d122)" style="fill: none; stroke: #b0b0b0; stroke-width: 0.8; stroke-linecap: square"/>
     </g>
     <g id="line2d_12">
      <g>
       <use xlink:href="#m73d69758f9" x="187.5456" y="298.944" style="stroke: #000000; stroke-width: 0.6"/>
      </g>
     </g>
    </g>
    <g id="xtick_7">
     <g id="line2d_13">
      <path d="M 274.176 298.944 
L 274.176 27.648 
" clip-path="url(#pe26654d122)" style="fill: none; stroke: #b0b0b0; stroke-width: 0.8; stroke-linecap: square"/>
     </g>
     <g id="line2d_14">
      <g>
       <use xlink:href="#m73d69758f9" x="274.176" y="298.944" style="stroke: #000000; stroke-width: 0.6"/>
      </g>
     </g>
    </g>
    <g id="xtick_8">
     <g id="line2d_15">
      <path d="M 360.8064 298.944 
L 360.8064 27.648 
" clip-path="url(#pe26654d122)" style="fill: none; stroke: #b0b0b0; stroke-width: 0.8; stroke-linecap: square"/>
     </g>
     <g id="line2d_16">
      <g>
       <use xlink:href="#m73d69758f9" x="360.8064" y="298.944" style="stroke: #000000; stroke-width: 0.6"/>
      </g>
     </g>
    </g>
    <g id="text_5">
     <!-- log10(# f-evals / dimension) -->
     <g transform="translate(88.823278 339.314156)scale(0.17 -0.17)">
      <defs>
       <path id="DejaVuSans-6c" d="M 603 4863 
L 1178 4863 
L 1178 0 
L 603 0 
L 603 4863 
z
" transform="scale(0.015625)"/>
       <path id="DejaVuSans-6f" d="M 1959 3097 
Q 1497 3097 1228 2736 
Q 959 2375 959 1747 
Q 959 1119 1226 758 
Q 1494 397 1959 397 
Q 2419 397 2687 759 
Q 2956 1122 2956 1747 
Q 2956 2369 2687 2733 
Q 2419 3097 1959 3097 
z
M 1959 3584 
Q 2709 3584 3137 3096 
Q 3566 2609 3566 1747 
Q 3566 888 3137 398 
Q 2709 -91 1959 -91 
Q 1206 -91 779 398 
Q 353 888 353 1747 
Q 353 2609 779 3096 
Q 1206 3584 1959 3584 
z
" transform="scale(0.015625)"/>
       <path id="DejaVuSans-67" d="M 2906 1791 
Q 2906 2416 2648 2759 
Q 2391 3103 1925 3103 
Q 1463 3103 1205 2759 
Q 947 2416 947 1791 
Q 947 1169 1205 825 
Q 1463 481 1925 481 
Q 2391 481 2648 825 
Q 2906 1169 2906 1791 
z
M 3481 434 
Q 3481 -459 3084 -895 
Q 2688 -1331 1869 -1331 
Q 1566 -1331 1297 -1286 
Q 1028 -1241 775 -1147 
L 775 -588 
Q 1028 -725 1275 -790 
Q 1522 -856 1778 -856 
Q 2344 -856 2625 -561 
Q 2906 -266 2906 331 
L 2906 616 
Q 2728 306 2450 153 
Q 2172 0 1784 0 
Q 1141 0 747 490 
Q 353 981 353 1791 
Q 353 2603 747 3093 
Q 1141 3584 1784 3584 
Q 2172 3584 2450 3431 
Q 2728 3278 2906 2969 
L 2906 3500 
L 3481 3500 
L 3481 434 
z
" transform="scale(0.015625)"/>
       <path id="DejaVuSans-31" d="M 794 531 
L 1825 531 
L 1825 4091 
L 703 3866 
L 703 4441 
L 1819 4666 
L 2450 4666 
L 2450 531 
L 3481 531 
L 3481 0 
L 794 0 
L 794 531 
z
" transform="scale(0.015625)"/>
       <path id="DejaVuSans-28" d="M 1984 4856 
Q 1566 4138 1362 3434 
Q 1159 2731 1159 2009 
Q 1159 1288 1364 580 
Q 1569 -128 1984 -844 
L 1484 -844 
Q 1016 -109 783 600 
Q 550 1309 550 2009 
Q 550 2706 781 3412 
Q 1013 4119 1484 4856 
L 1984 4856 
z
" transform="scale(0.015625)"/>
       <path id="DejaVuSans-23" d="M 3272 2816 
L 2363 2816 
L 2100 1772 
L 3016 1772 
L 3272 2816 
z
M 2803 4594 
L 2478 3297 
L 3391 3297 
L 3719 4594 
L 4219 4594 
L 3897 3297 
L 4872 3297 
L 4872 2816 
L 3775 2816 
L 3519 1772 
L 4513 1772 
L 4513 1294 
L 3397 1294 
L 3072 0 
L 2572 0 
L 2894 1294 
L 1978 1294 
L 1656 0 
L 1153 0 
L 1478 1294 
L 494 1294 
L 494 1772 
L 1594 1772 
L 1856 2816 
L 850 2816 
L 850 3297 
L 1978 3297 
L 2297 4594 
L 2803 4594 
z
" transform="scale(0.015625)"/>
       <path id="DejaVuSans-20" transform="scale(0.015625)"/>
       <path id="DejaVuSans-66" d="M 2375 4863 
L 2375 4384 
L 1825 4384 
Q 1516 4384 1395 4259 
Q 1275 4134 1275 3809 
L 1275 3500 
L 2222 3500 
L 2222 3053 
L 1275 3053 
L 1275 0 
L 697 0 
L 697 3053 
L 147 3053 
L 147 3500 
L 697 3500 
L 697 3744 
Q 697 4328 969 4595 
Q 1241 4863 1831 4863 
L 2375 4863 
z
" transform="scale(0.015625)"/>
       <path id="DejaVuSans-2d" d="M 313 2009 
L 1997 2009 
L 1997 1497 
L 313 1497 
L 313 2009 
z
" transform="scale(0.015625)"/>
       <path id="DejaVuSans-65" d="M 3597 1894 
L 3597 1613 
L 953 1613 
Q 991 1019 1311 708 
Q 1631 397 2203 397 
Q 2534 397 2845 478 
Q 3156 559 3463 722 
L 3463 178 
Q 3153 47 2828 -22 
Q 2503 -91 2169 -91 
Q 1331 -91 842 396 
Q 353 884 353 1716 
Q 353 2575 817 3079 
Q 1281 3584 2069 3584 
Q 2775 3584 3186 3129 
Q 3597 2675 3597 1894 
z
M 3022 2063 
Q 3016 2534 2758 2815 
Q 2500 3097 2075 3097 
Q 1594 3097 1305 2825 
Q 1016 2553 972 2059 
L 3022 2063 
z
" transform="scale(0.015625)"/>
       <path id="DejaVuSans-76" d="M 191 3500 
L 800 3500 
L 1894 563 
L 2988 3500 
L 3597 3500 
L 2284 0 
L 1503 0 
L 191 3500 
z
" transform="scale(0.015625)"/>
       <path id="DejaVuSans-61" d="M 2194 1759 
Q 1497 1759 1228 1600 
Q 959 1441 959 1056 
Q 959 750 1161 570 
Q 1363 391 1709 391 
Q 2188 391 2477 730 
Q 2766 1069 2766 1631 
L 2766 1759 
L 2194 1759 
z
M 3341 1997 
L 3341 0 
L 2766 0 
L 2766 531 
Q 2569 213 2275 61 
Q 1981 -91 1556 -91 
Q 1019 -91 701 211 
Q 384 513 384 1019 
Q 384 1609 779 1909 
Q 1175 2209 1959 2209 
L 2766 2209 
L 2766 2266 
Q 2766 2663 2505 2880 
Q 2244 3097 1772 3097 
Q 1472 3097 1187 3025 
Q 903 2953 641 2809 
L 641 3341 
Q 956 3463 1253 3523 
Q 1550 3584 1831 3584 
Q 2591 3584 2966 3190 
Q 3341 2797 3341 1997 
z
" transform="scale(0.015625)"/>
       <path id="DejaVuSans-73" d="M 2834 3397 
L 2834 2853 
Q 2591 2978 2328 3040 
Q 2066 3103 1784 3103 
Q 1356 3103 1142 2972 
Q 928 2841 928 2578 
Q 928 2378 1081 2264 
Q 1234 2150 1697 2047 
L 1894 2003 
Q 2506 1872 2764 1633 
Q 3022 1394 3022 966 
Q 3022 478 2636 193 
Q 2250 -91 1575 -91 
Q 1294 -91 989 -36 
Q 684 19 347 128 
L 347 722 
Q 666 556 975 473 
Q 1284 391 1588 391 
Q 1994 391 2212 530 
Q 2431 669 2431 922 
Q 2431 1156 2273 1281 
Q 2116 1406 1581 1522 
L 1381 1569 
Q 847 1681 609 1914 
Q 372 2147 372 2553 
Q 372 3047 722 3315 
Q 1072 3584 1716 3584 
Q 2034 3584 2315 3537 
Q 2597 3491 2834 3397 
z
" transform="scale(0.015625)"/>
       <path id="DejaVuSans-2f" d="M 1625 4666 
L 2156 4666 
L 531 -594 
L 0 -594 
L 1625 4666 
z
" transform="scale(0.015625)"/>
       <path id="DejaVuSans-64" d="M 2906 2969 
L 2906 4863 
L 3481 4863 
L 3481 0 
L 2906 0 
L 2906 525 
Q 2725 213 2448 61 
Q 2172 -91 1784 -91 
Q 1150 -91 751 415 
Q 353 922 353 1747 
Q 353 2572 751 3078 
Q 1150 3584 1784 3584 
Q 2172 3584 2448 3432 
Q 2725 3281 2906 2969 
z
M 947 1747 
Q 947 1113 1208 752 
Q 1469 391 1925 391 
Q 2381 391 2643 752 
Q 2906 1113 2906 1747 
Q 2906 2381 2643 2742 
Q 2381 3103 1925 3103 
Q 1469 3103 1208 2742 
Q 947 2381 947 1747 
z
" transform="scale(0.015625)"/>
       <path id="DejaVuSans-69" d="M 603 3500 
L 1178 3500 
L 1178 0 
L 603 0 
L 603 3500 
z
M 603 4863 
L 1178 4863 
L 1178 4134 
L 603 4134 
L 603 4863 
z
" transform="scale(0.015625)"/>
       <path id="DejaVuSans-6d" d="M 3328 2828 
Q 3544 3216 3844 3400 
Q 4144 3584 4550 3584 
Q 5097 3584 5394 3201 
Q 5691 2819 5691 2113 
L 5691 0 
L 5113 0 
L 5113 2094 
Q 5113 2597 4934 2840 
Q 4756 3084 4391 3084 
Q 3944 3084 3684 2787 
Q 3425 2491 3425 1978 
L 3425 0 
L 2847 0 
L 2847 2094 
Q 2847 2600 2669 2842 
Q 2491 3084 2119 3084 
Q 1678 3084 1418 2786 
Q 1159 2488 1159 1978 
L 1159 0 
L 581 0 
L 581 3500 
L 1159 3500 
L 1159 2956 
Q 1356 3278 1631 3431 
Q 1906 3584 2284 3584 
Q 2666 3584 2933 3390 
Q 3200 3197 3328 2828 
z
" transform="scale(0.015625)"/>
       <path id="DejaVuSans-6e" d="M 3513 2113 
L 3513 0 
L 2938 0 
L 2938 2094 
Q 2938 2591 2744 2837 
Q 2550 3084 2163 3084 
Q 1697 3084 1428 2787 
Q 1159 2491 1159 1978 
L 1159 0 
L 581 0 
L 581 3500 
L 1159 3500 
L 1159 2956 
Q 1366 3272 1645 3428 
Q 1925 3584 2291 3584 
Q 2894 3584 3203 3211 
Q 3513 2838 3513 2113 
z
" transform="scale(0.015625)"/>
       <path id="DejaVuSans-29" d="M 513 4856 
L 1013 4856 
Q 1481 4119 1714 3412 
Q 1947 2706 1947 2009 
Q 1947 1309 1714 600 
Q 1481 -109 1013 -844 
L 513 -844 
Q 928 -128 1133 580 
Q 1338 1288 1338 2009 
Q 1338 2731 1133 3434 
Q 928 4138 513 4856 
z
" transform="scale(0.015625)"/>
      </defs>
      <use xlink:href="#DejaVuSans-6c"/>
      <use xlink:href="#DejaVuSans-6f" x="27.783203"/>
      <use xlink:href="#DejaVuSans-67" x="88.964844"/>
      <use xlink:href="#DejaVuSans-31" x="152.441406"/>
      <use xlink:href="#DejaVuSans-30" x="216.064453"/>
      <use xlink:href="#DejaVuSans-28" x="279.6875"/>
      <use xlink:href="#DejaVuSans-23" x="318.701172"/>
      <use xlink:href="#DejaVuSans-20" x="402.490234"/>
      <use xlink:href="#DejaVuSans-66" x="434.277344"/>
      <use xlink:href="#DejaVuSans-2d" x="463.982422"/>
      <use xlink:href="#DejaVuSans-65" x="500.066406"/>
      <use xlink:href="#DejaVuSans-76" x="561.589844"/>
      <use xlink:href="#DejaVuSans-61" x="620.769531"/>
      <use xlink:href="#DejaVuSans-6c" x="682.048828"/>
      <use xlink:href="#DejaVuSans-73" x="709.832031"/>
      <use xlink:href="#DejaVuSans-20" x="761.931641"/>
      <use xlink:href="#DejaVuSans-2f" x="793.71875"/>
      <use xlink:href="#DejaVuSans-20" x="827.410156"/>
      <use xlink:href="#DejaVuSans-64" x="859.197266"/>
      <use xlink:href="#DejaVuSans-69" x="922.673828"/>
      <use xlink:href="#DejaVuSans-6d" x="950.457031"/>
      <use xlink:href="#DejaVuSans-65" x="1047.869141"/>
      <use xlink:href="#DejaVuSans-6e" x="1109.392578"/>
      <use xlink:href="#DejaVuSans-73" x="1172.771484"/>
      <use xlink:href="#DejaVuSans-69" x="1224.871094"/>
      <use xlink:href="#DejaVuSans-6f" x="1252.654297"/>
      <use xlink:href="#DejaVuSans-6e" x="1313.835938"/>
      <use xlink:href="#DejaVuSans-29" x="1377.214844"/>
     </g>
    </g>
   </g>
   <g id="matplotlib.axis_2">
    <g id="ytick_1">
     <g id="line2d_17">
      <path d="M 57.6 298.944 
L 360.8064 298.944 
" clip-path="url(#pe26654d122)" style="fill: none; stroke: #b0b0b0; stroke-width: 0.8; stroke-linecap: square"/>
     </g>
     <g id="line2d_18">
      <defs>
       <path id="m0417583ced" d="M 0 0 
L -3.5 0 
" style="stroke: #000000; stroke-width: 0.8"/>
      </defs>
      <g>
       <use xlink:href="#m0417583ced" x="57.6" y="298.944" style="stroke: #000000; stroke-width: 0.8"/>
      </g>
     </g>
     <g id="text_6">
      <!-- 0.0 -->
      <g transform="translate(25.155 305.02275)scale(0.16 -0.16)">
       <defs>
        <path id="DejaVuSans-2e" d="M 684 794 
L 1344 794 
L 1344 0 
L 684 0 
L 684 794 
z
" transform="scale(0.015625)"/>
       </defs>
       <use xlink:href="#DejaVuSans-30"/>
       <use xlink:href="#DejaVuSans-2e" x="63.623047"/>
       <use xlink:href="#DejaVuSans-30" x="95.410156"/>
      </g>
     </g>
    </g>
    <g id="ytick_2">
     <g id="line2d_19">
      <path d="M 57.6 244.6848 
L 360.8064 244.6848 
" clip-path="url(#pe26654d122)" style="fill: none; stroke: #b0b0b0; stroke-width: 0.8; stroke-linecap: square"/>
     </g>
     <g id="line2d_20">
      <g>
       <use xlink:href="#m0417583ced" x="57.6" y="244.6848" style="stroke: #000000; stroke-width: 0.8"/>
      </g>
     </g>
     <g id="text_7">
      <!-- 0.2 -->
      <g transform="translate(25.155 250.76355)scale(0.16 -0.16)">
       <use xlink:href="#DejaVuSans-30"/>
       <use xlink:href="#DejaVuSans-2e" x="63.623047"/>
       <use xlink:href="#DejaVuSans-32" x="95.410156"/>
      </g>
     </g>
    </g>
    <g id="ytick_3">
     <g id="line2d_21">
      <path d="M 57.6 190.4256 
L 360.8064 190.4256 
" clip-path="url(#pe26654d122)" style="fill: none; stroke: #b0b0b0; stroke-width: 0.8; stroke-linecap: square"/>
     </g>
     <g id="line2d_22">
      <g>
       <use xlink:href="#m0417583ced" x="57.6" y="190.4256" style="stroke: #000000; stroke-width: 0.8"/>
      </g>
     </g>
     <g id="text_8">
      <!-- 0.4 -->
      <g transform="translate(25.155 196.50435)scale(0.16 -0.16)">
       <use xlink:href="#DejaVuSans-30"/>
       <use xlink:href="#DejaVuSans-2e" x="63.623047"/>
       <use xlink:href="#DejaVuSans-34" x="95.410156"/>
      </g>
     </g>
    </g>
    <g id="ytick_4">
     <g id="line2d_23">
      <path d="M 57.6 136.1664 
L 360.8064 136.1664 
" clip-path="url(#pe26654d122)" style="fill: none; stroke: #b0b0b0; stroke-width: 0.8; stroke-linecap: square"/>
     </g>
     <g id="line2d_24">
      <g>
       <use xlink:href="#m0417583ced" x="57.6" y="136.1664" style="stroke: #000000; stroke-width: 0.8"/>
      </g>
     </g>
     <g id="text_9">
      <!-- 0.6 -->
      <g transform="translate(25.155 142.24515)scale(0.16 -0.16)">
       <use xlink:href="#DejaVuSans-30"/>
       <use xlink:href="#DejaVuSans-2e" x="63.623047"/>
       <use xlink:href="#DejaVuSans-36" x="95.410156"/>
      </g>
     </g>
    </g>
    <g id="ytick_5">
     <g id="line2d_25">
      <path d="M 57.6 81.9072 
L 360.8064 81.9072 
" clip-path="url(#pe26654d122)" style="fill: none; stroke: #b0b0b0; stroke-width: 0.8; stroke-linecap: square"/>
     </g>
     <g id="line2d_26">
      <g>
       <use xlink:href="#m0417583ced" x="57.6" y="81.9072" style="stroke: #000000; stroke-width: 0.8"/>
      </g>
     </g>
     <g id="text_10">
      <!-- 0.8 -->
      <g transform="translate(25.155 87.98595)scale(0.16 -0.16)">
       <defs>
        <path id="DejaVuSans-38" d="M 2034 2216 
Q 1584 2216 1326 1975 
Q 1069 1734 1069 1313 
Q 1069 891 1326 650 
Q 1584 409 2034 409 
Q 2484 409 2743 651 
Q 3003 894 3003 1313 
Q 3003 1734 2745 1975 
Q 2488 2216 2034 2216 
z
M 1403 2484 
Q 997 2584 770 2862 
Q 544 3141 544 3541 
Q 544 4100 942 4425 
Q 1341 4750 2034 4750 
Q 2731 4750 3128 4425 
Q 3525 4100 3525 3541 
Q 3525 3141 3298 2862 
Q 3072 2584 2669 2484 
Q 3125 2378 3379 2068 
Q 3634 1759 3634 1313 
Q 3634 634 3220 271 
Q 2806 -91 2034 -91 
Q 1263 -91 848 271 
Q 434 634 434 1313 
Q 434 1759 690 2068 
Q 947 2378 1403 2484 
z
M 1172 3481 
Q 1172 3119 1398 2916 
Q 1625 2713 2034 2713 
Q 2441 2713 2670 2916 
Q 2900 3119 2900 3481 
Q 2900 3844 2670 4047 
Q 2441 4250 2034 4250 
Q 1625 4250 1398 4047 
Q 1172 3844 1172 3481 
z
" transform="scale(0.015625)"/>
       </defs>
       <use xlink:href="#DejaVuSans-30"/>
       <use xlink:href="#DejaVuSans-2e" x="63.623047"/>
       <use xlink:href="#DejaVuSans-38" x="95.410156"/>
      </g>
     </g>
    </g>
    <g id="ytick_6">
     <g id="line2d_27">
      <path d="M 57.6 27.648 
L 360.8064 27.648 
" clip-path="url(#pe26654d122)" style="fill: none; stroke: #b0b0b0; stroke-width: 0.8; stroke-linecap: square"/>
     </g>
     <g id="line2d_28">
      <g>
       <use xlink:href="#m0417583ced" x="57.6" y="27.648" style="stroke: #000000; stroke-width: 0.8"/>
      </g>
     </g>
     <g id="text_11">
      <!-- 1.0 -->
      <g transform="translate(25.155 33.72675)scale(0.16 -0.16)">
       <use xlink:href="#DejaVuSans-31"/>
       <use xlink:href="#DejaVuSans-2e" x="63.623047"/>
       <use xlink:href="#DejaVuSans-30" x="95.410156"/>
      </g>
     </g>
    </g>
    <g id="text_12">
     <!-- Fraction of function,target pairs -->
     <g transform="translate(17.619531 297.681)rotate(-90)scale(0.17 -0.17)">
      <defs>
       <path id="DejaVuSans-46" d="M 628 4666 
L 3309 4666 
L 3309 4134 
L 1259 4134 
L 1259 2759 
L 3109 2759 
L 3109 2228 
L 1259 2228 
L 1259 0 
L 628 0 
L 628 4666 
z
" transform="scale(0.015625)"/>
       <path id="DejaVuSans-72" d="M 2631 2963 
Q 2534 3019 2420 3045 
Q 2306 3072 2169 3072 
Q 1681 3072 1420 2755 
Q 1159 2438 1159 1844 
L 1159 0 
L 581 0 
L 581 3500 
L 1159 3500 
L 1159 2956 
Q 1341 3275 1631 3429 
Q 1922 3584 2338 3584 
Q 2397 3584 2469 3576 
Q 2541 3569 2628 3553 
L 2631 2963 
z
" transform="scale(0.015625)"/>
       <path id="DejaVuSans-63" d="M 3122 3366 
L 3122 2828 
Q 2878 2963 2633 3030 
Q 2388 3097 2138 3097 
Q 1578 3097 1268 2742 
Q 959 2388 959 1747 
Q 959 1106 1268 751 
Q 1578 397 2138 397 
Q 2388 397 2633 464 
Q 2878 531 3122 666 
L 3122 134 
Q 2881 22 2623 -34 
Q 2366 -91 2075 -91 
Q 1284 -91 818 406 
Q 353 903 353 1747 
Q 353 2603 823 3093 
Q 1294 3584 2113 3584 
Q 2378 3584 2631 3529 
Q 2884 3475 3122 3366 
z
" transform="scale(0.015625)"/>
       <path id="DejaVuSans-74" d="M 1172 4494 
L 1172 3500 
L 2356 3500 
L 2356 3053 
L 1172 3053 
L 1172 1153 
Q 1172 725 1289 603 
Q 1406 481 1766 481 
L 2356 481 
L 2356 0 
L 1766 0 
Q 1100 0 847 248 
Q 594 497 594 1153 
L 594 3053 
L 172 3053 
L 172 3500 
L 594 3500 
L 594 4494 
L 1172 4494 
z
" transform="scale(0.015625)"/>
       <path id="DejaVuSans-75" d="M 544 1381 
L 544 3500 
L 1119 3500 
L 1119 1403 
Q 1119 906 1312 657 
Q 1506 409 1894 409 
Q 2359 409 2629 706 
Q 2900 1003 2900 1516 
L 2900 3500 
L 3475 3500 
L 3475 0 
L 2900 0 
L 2900 538 
Q 2691 219 2414 64 
Q 2138 -91 1772 -91 
Q 1169 -91 856 284 
Q 544 659 544 1381 
z
M 1991 3584 
L 1991 3584 
z
" transform="scale(0.015625)"/>
       <path id="DejaVuSans-2c" d="M 750 794 
L 1409 794 
L 1409 256 
L 897 -744 
L 494 -744 
L 750 256 
L 750 794 
z
" transform="scale(0.015625)"/>
       <path id="DejaVuSans-70" d="M 1159 525 
L 1159 -1331 
L 581 -1331 
L 581 3500 
L 1159 3500 
L 1159 2969 
Q 1341 3281 1617 3432 
Q 1894 3584 2278 3584 
Q 2916 3584 3314 3078 
Q 3713 2572 3713 1747 
Q 3713 922 3314 415 
Q 2916 -91 2278 -91 
Q 1894 -91 1617 61 
Q 1341 213 1159 525 
z
M 3116 1747 
Q 3116 2381 2855 2742 
Q 2594 3103 2138 3103 
Q 1681 3103 1420 2742 
Q 1159 2381 1159 1747 
Q 1159 1113 1420 752 
Q 1681 391 2138 391 
Q 2594 391 2855 752 
Q 3116 1113 3116 1747 
z
" transform="scale(0.015625)"/>
      </defs>
      <use xlink:href="#DejaVuSans-46"/>
      <use xlink:href="#DejaVuSans-72" x="50.269531"/>
      <use xlink:href="#DejaVuSans-61" x="91.382812"/>
      <use xlink:href="#DejaVuSans-63" x="152.662109"/>
      <use xlink:href="#DejaVuSans-74" x="207.642578"/>
      <use xlink:href="#DejaVuSans-69" x="246.851562"/>
      <use xlink:href="#DejaVuSans-6f" x="274.634766"/>
      <use xlink:href="#DejaVuSans-6e" x="335.816406"/>
      <use xlink:href="#DejaVuSans-20" x="399.195312"/>
      <use xlink:href="#DejaVuSans-6f" x="430.982422"/>
      <use xlink:href="#DejaVuSans-66" x="492.164062"/>
      <use xlink:href="#DejaVuSans-20" x="527.369141"/>
      <use xlink:href="#DejaVuSans-66" x="559.15625"/>
      <use xlink:href="#DejaVuSans-75" x="594.361328"/>
      <use xlink:href="#DejaVuSans-6e" x="657.740234"/>
      <use xlink:href="#DejaVuSans-63" x="721.119141"/>
      <use xlink:href="#DejaVuSans-74" x="776.099609"/>
      <use xlink:href="#DejaVuSans-69" x="815.308594"/>
      <use xlink:href="#DejaVuSans-6f" x="843.091797"/>
      <use xlink:href="#DejaVuSans-6e" x="904.273438"/>
      <use xlink:href="#DejaVuSans-2c" x="967.652344"/>
      <use xlink:href="#DejaVuSans-74" x="999.439453"/>
      <use xlink:href="#DejaVuSans-61" x="1038.648438"/>
      <use xlink:href="#DejaVuSans-72" x="1099.927734"/>
      <use xlink:href="#DejaVuSans-67" x="1139.291016"/>
      <use xlink:href="#DejaVuSans-65" x="1202.767578"/>
      <use xlink:href="#DejaVuSans-74" x="1264.291016"/>
      <use xlink:href="#DejaVuSans-20" x="1303.5"/>
      <use xlink:href="#DejaVuSans-70" x="1335.287109"/>
      <use xlink:href="#DejaVuSans-61" x="1398.763672"/>
      <use xlink:href="#DejaVuSans-69" x="1460.042969"/>
      <use xlink:href="#DejaVuSans-72" x="1487.826172"/>
      <use xlink:href="#DejaVuSans-73" x="1528.939453"/>
     </g>
    </g>
   </g>
   <g id="line2d_29">
    <defs>
     <path id="m7605b32f9e" d="M 0 1.5 
C 0.397805 1.5 0.77937 1.341951 1.06066 1.06066 
C 1.341951 0.77937 1.5 0.397805 1.5 0 
C 1.5 -0.397805 1.341951 -0.77937 1.06066 -1.06066 
C 0.77937 -1.341951 0.397805 -1.5 0 -1.5 
C -0.397805 -1.5 -0.77937 -1.341951 -1.06066 -1.06066 
C -1.341951 -0.77937 -1.5 -0.397805 -1.5 0 
C -1.5 0.397805 -1.341951 0.77937 -1.06066 1.06066 
C -0.77937 1.341951 -0.397805 1.5 0 1.5 
z
" style="stroke: #00bfbf"/>
    </defs>
    <g>
     <use xlink:href="#m7605b32f9e" x="233.765182" y="27.648" style="fill: #00bfbf; stroke: #00bfbf"/>
     <use xlink:href="#m7605b32f9e" x="233.765182" y="27.648" style="fill: #00bfbf; stroke: #00bfbf"/>
    </g>
   </g>
   <g id="line2d_30">
    <path d="M 44.560826 298.944 
L 44.560826 290.078118 
L 57.6 290.078118 
L 57.6 285.467859 
L 65.227428 285.467859 
L 65.227428 280.8576 
L 70.639174 280.8576 
L 70.639174 275.892706 
L 74.836851 275.892706 
L 74.836851 273.410259 
L 78.266603 273.410259 
L 78.266603 273.055624 
L 81.166416 273.055624 
L 81.166416 272.700988 
L 83.678349 272.700988 
L 83.678349 272.346353 
L 89.668958 272.346353 
L 89.668958 271.637082 
L 91.305777 271.637082 
L 91.305777 271.282447 
L 94.205591 271.282447 
L 94.205591 270.218541 
L 95.503454 270.218541 
L 95.503454 269.154635 
L 98.933205 269.154635 
L 98.933205 267.381459 
L 100.9152 267.381459 
L 100.9152 267.026824 
L 103.544339 267.026824 
L 103.544339 266.317553 
L 105.850679 266.317553 
L 105.850679 265.962918 
L 107.904887 265.962918 
L 107.904887 265.608282 
L 108.542628 265.608282 
L 108.542628 265.253647 
L 109.159456 265.253647 
L 109.159456 263.480471 
L 112.989468 263.480471 
L 112.989468 262.416565 
L 114.872193 262.416565 
L 114.872193 260.998024 
L 117.772007 260.998024 
L 117.772007 259.934118 
L 119.24818 259.934118 
L 119.24818 259.579482 
L 120.944062 259.579482 
L 120.944062 259.224847 
L 121.892744 259.224847 
L 121.892744 258.870212 
L 124.210942 258.870212 
L 124.210942 258.515576 
L 131.563744 258.515576 
L 131.563744 257.806306 
L 131.747272 257.806306 
L 131.747272 257.451671 
L 131.929028 257.451671 
L 131.929028 256.387765 
L 134.304809 256.387765 
L 134.304809 256.033129 
L 134.620977 256.033129 
L 134.620977 255.678494 
L 139.676658 255.678494 
L 139.676658 255.323859 
L 142.45627 255.323859 
L 142.45627 254.969224 
L 145.058426 254.969224 
L 145.058426 254.259953 
L 146.27812 254.259953 
L 146.27812 253.905318 
L 147.73837 253.905318 
L 147.816265 253.196047 
L 151.41369 253.196047 
L 151.41369 252.486776 
L 152.045009 252.486776 
L 152.045009 252.132141 
L 157.222487 252.132141 
L 157.222487 251.422871 
L 158.365703 251.422871 
L 158.365703 250.7136 
L 159.275069 250.7136 
L 159.275069 250.358965 
L 162.740015 250.358965 
L 162.740015 250.004329 
L 164.030845 250.004329 
L 164.030845 249.295059 
L 165.45305 249.295059 
L 165.45305 248.940424 
L 166.315707 248.940424 
L 166.315707 248.585788 
L 166.689935 248.585788 
L 166.775248 247.876518 
L 167.223831 247.876518 
L 167.223831 247.521882 
L 167.716022 247.521882 
L 167.716022 246.812612 
L 167.877265 246.812612 
L 167.877265 246.457976 
L 168.010586 246.457976 
L 168.010586 246.103341 
L 168.714635 246.103341 
L 168.714635 245.748706 
L 169.269439 245.748706 
L 169.269439 245.394071 
L 169.952684 245.394071 
L 169.952684 245.039435 
L 170.119687 245.039435 
L 170.119687 243.620894 
L 170.841952 243.620894 
L 170.841952 243.266259 
L 171.404878 243.266259 
L 171.404878 242.911624 
L 173.262233 242.911624 
L 173.262233 242.556988 
L 173.541519 242.556988 
L 173.541519 242.202353 
L 174.674972 242.202353 
L 174.674972 241.847718 
L 175.352444 241.847718 
L 175.352444 227.307671 
L 175.51361 227.307671 
L 175.51361 226.953035 
L 176.265124 226.953035 
L 176.265124 226.5984 
L 176.57101 226.5984 
L 176.57101 225.179859 
L 177.588098 225.179859 
L 177.588098 212.767624 
L 177.731273 212.767624 
L 177.731273 212.412988 
L 178.522639 212.412988 
L 178.522639 212.058353 
L 179.194285 212.058353 
L 179.23822 198.227576 
L 179.485266 198.227576 
L 179.557313 195.390494 
L 179.643407 195.390494 
L 179.729109 181.205082 
L 181.063041 181.205082 
L 181.129302 155.316706 
L 181.182144 155.316706 
L 181.182144 154.962071 
L 181.313602 154.962071 
L 181.313602 154.2528 
L 181.779386 154.2528 
L 181.817686 141.131294 
L 182.158919 141.131294 
L 182.158919 140.776659 
L 182.567747 140.776659 
L 182.567747 140.422024 
L 182.787055 140.422024 
L 182.787055 140.067388 
L 183.938184 140.067388 
L 183.938184 139.712753 
L 184.355108 139.712753 
L 184.355108 139.358118 
L 185.172894 139.358118 
L 185.172894 139.003482 
L 186.139934 139.003482 
L 186.241017 137.939576 
L 186.894881 137.939576 
L 186.894881 137.584941 
L 187.251738 137.584941 
L 187.251738 136.875671 
L 187.834942 136.875671 
L 187.918118 133.329318 
L 188.871033 133.329318 
L 188.871033 119.498541 
L 189.312863 119.498541 
L 189.312863 108.859482 
L 189.551095 108.859482 
L 189.551095 108.504847 
L 190.77837 108.504847 
L 190.77837 108.150212 
L 191.531398 108.150212 
L 191.531398 107.795576 
L 192.189421 107.795576 
L 192.189421 95.737976 
L 192.574902 95.737976 
L 192.574902 95.383341 
L 195.75949 95.383341 
L 195.844391 93.610165 
L 196.013051 93.610165 
L 196.102787 91.836988 
L 196.174268 91.836988 
L 196.174268 90.063812 
L 196.533492 90.063812 
L 196.533492 78.006212 
L 197.039921 78.006212 
L 197.039921 68.076424 
L 200.040857 68.076424 
L 200.040857 67.721788 
L 205.570832 67.721788 
L 205.570832 67.012518 
L 206.89081 67.012518 
L 206.89081 54.245647 
L 209.429211 54.245647 
L 209.429211 53.536376 
L 210.444598 53.536376 
L 210.444598 52.827106 
L 216.121768 52.827106 
L 216.121768 51.408565 
L 217.75567 51.408565 
L 217.759445 40.060235 
L 227.936986 40.060235 
L 227.936986 39.350965 
L 233.765182 39.350965 
L 233.765182 27.648 
L 360.8064 27.648 
L 360.8064 27.648 
" style="fill: none; stroke: #00bfbf; stroke-width: 1.5; stroke-linecap: square"/>
   </g>
   <g id="line2d_31">
    <defs>
     <path id="mb3e2a041c6" d="M -6 0 
L 6 0 
M 0 6 
L 0 -6 
" style="stroke: #00bfbf; stroke-width: 1.5"/>
    </defs>
    <g>
     <use xlink:href="#mb3e2a041c6" x="168.714635" y="245.748706" style="fill-opacity: 0; stroke: #00bfbf; stroke-width: 1.5"/>
     <use xlink:href="#mb3e2a041c6" x="181.779386" y="153.188894" style="fill-opacity: 0; stroke: #00bfbf; stroke-width: 1.5"/>
     <use xlink:href="#mb3e2a041c6" x="233.765182" y="39.350965" style="fill-opacity: 0; stroke: #00bfbf; stroke-width: 1.5"/>
     <use xlink:href="#mb3e2a041c6" x="233.765182" y="27.648" style="fill-opacity: 0; stroke: #00bfbf; stroke-width: 1.5"/>
     <use xlink:href="#mb3e2a041c6" x="233.765182" y="27.648" style="fill-opacity: 0; stroke: #00bfbf; stroke-width: 1.5"/>
     <use xlink:href="#mb3e2a041c6" x="360.8064" y="27.648" style="fill-opacity: 0; stroke: #00bfbf; stroke-width: 1.5"/>
    </g>
   </g>
   <g id="line2d_32">
    <path style="fill: none; stroke: #00bfbf; stroke-width: 1.5; stroke-linecap: square"/>
    <g/>
   </g>
   <g id="line2d_33">
    <defs>
     <path id="mfa966d15c1" d="M 0 1.5 
C 0.397805 1.5 0.77937 1.341951 1.06066 1.06066 
C 1.341951 0.77937 1.5 0.397805 1.5 0 
C 1.5 -0.397805 1.341951 -0.77937 1.06066 -1.06066 
C 0.77937 -1.341951 0.397805 -1.5 0 -1.5 
C -0.397805 -1.5 -0.77937 -1.341951 -1.06066 -1.06066 
C -1.341951 -0.77937 -1.5 -0.397805 -1.5 0 
C -1.5 0.397805 -1.341951 0.77937 -1.06066 1.06066 
C -0.77937 1.341951 -0.397805 1.5 0 1.5 
z
" style="stroke: #008000"/>
    </defs>
    <g>
     <use xlink:href="#mfa966d15c1" x="220.488894" y="27.648" style="fill: #008000; stroke: #008000"/>
     <use xlink:href="#mfa966d15c1" x="220.488894" y="27.648" style="fill: #008000; stroke: #008000"/>
    </g>
   </g>
   <g id="line2d_34">
    <path d="M 36.933397 298.944 
L 36.933397 293.624471 
L 49.972572 293.624471 
L 49.972572 287.950306 
L 57.6 287.950306 
L 57.6 286.177129 
L 63.011746 286.177129 
L 63.011746 285.467859 
L 67.209423 285.467859 
L 67.209423 282.985412 
L 70.639174 282.985412 
L 70.639174 280.8576 
L 73.538988 280.8576 
L 73.538988 279.793694 
L 76.050921 279.793694 
L 76.050921 278.729788 
L 80.248597 278.729788 
L 80.248597 278.020518 
L 82.04153 278.020518 
L 82.04153 277.311247 
L 85.184077 277.311247 
L 85.184077 276.601976 
L 86.578163 276.601976 
L 86.578163 276.247341 
L 100.277459 276.247341 
L 100.277459 275.892706 
L 101.532027 275.892706 
L 101.532027 275.538071 
L 103.269713 275.538071 
L 103.269713 274.8288 
L 111.620752 274.8288 
L 111.620752 274.119529 
L 112.317555 274.119529 
L 112.317555 273.764894 
L 113.954374 273.764894 
L 113.954374 273.055624 
L 114.571202 273.055624 
L 114.571202 272.346353 
L 116.854188 272.346353 
L 116.854188 271.991718 
L 118.401214 271.991718 
L 118.401214 271.637082 
L 122.795872 271.637082 
L 122.795872 271.282447 
L 126.836129 271.282447 
L 126.836129 270.573176 
L 129.348062 270.573176 
L 129.348062 270.218541 
L 129.758512 270.218541 
L 129.758512 269.509271 
L 131.065395 269.509271 
L 131.065395 269.154635 
L 132.984158 269.154635 
L 132.984158 268.8 
L 135.932769 268.8 
L 135.932769 268.445365 
L 137.963436 268.445365 
L 137.963436 268.090729 
L 140.573544 268.090729 
L 140.649551 267.026824 
L 143.850356 267.026824 
L 143.850356 266.672188 
L 144.847227 266.672188 
L 144.847227 266.317553 
L 149.117582 266.317553 
L 149.117582 265.962918 
L 150.870907 265.962918 
L 150.870907 265.608282 
L 151.176793 265.608282 
L 151.176793 265.253647 
L 154.793439 265.253647 
L 154.793439 264.899012 
L 156.337642 264.899012 
L 156.337642 264.544376 
L 157.856036 264.544376 
L 157.856036 264.189741 
L 158.187393 264.189741 
L 158.187393 263.835106 
L 158.861925 263.835106 
L 158.861925 263.480471 
L 159.260973 263.480471 
L 159.260973 263.125835 
L 159.457367 263.125835 
L 159.457367 262.7712 
L 159.679334 262.7712 
L 159.679334 262.416565 
L 160.699326 262.416565 
L 160.803545 261.707294 
L 163.3965 261.707294 
L 163.3965 260.998024 
L 163.777449 260.998024 
L 163.777449 260.643388 
L 163.932096 260.643388 
L 164.019898 245.039435 
L 167.306762 245.039435 
L 167.306762 244.6848 
L 168.134173 244.6848 
L 168.169334 229.080847 
L 168.586228 229.080847 
L 168.586228 228.726212 
L 168.706102 228.726212 
L 168.723164 213.122259 
L 168.859111 213.122259 
L 168.859111 197.872941 
L 169.784185 197.872941 
L 169.784185 197.518306 
L 170.040346 197.518306 
L 170.040346 197.163671 
L 170.324419 197.163671 
L 170.324419 196.809035 
L 170.511445 196.809035 
L 170.511445 196.4544 
L 170.971033 196.4544 
L 170.971033 196.099765 
L 171.814477 196.099765 
L 171.814477 195.745129 
L 172.115927 195.745129 
L 172.115927 195.390494 
L 172.869606 195.390494 
L 172.869606 195.035859 
L 175.208017 195.035859 
L 175.208017 193.971953 
L 175.661617 193.971953 
L 175.661617 193.262682 
L 176.162047 193.262682 
L 176.162047 192.908047 
L 176.638314 192.908047 
L 176.638314 192.198776 
L 177.524113 192.198776 
L 177.524113 191.489506 
L 177.778757 191.489506 
L 177.778757 191.134871 
L 178.195651 191.134871 
L 178.195651 189.361694 
L 178.684026 189.361694 
L 178.684026 189.007059 
L 179.042162 189.007059 
L 179.052014 188.297788 
L 179.179617 188.297788 
L 179.179617 185.106071 
L 180.13327 185.106071 
L 180.13327 173.403106 
L 180.272238 173.403106 
L 180.272238 173.048471 
L 180.853898 173.048471 
L 180.853898 172.693835 
L 181.940568 172.693835 
L 181.940568 172.3392 
L 182.959879 172.3392 
L 183.039725 159.572329 
L 183.535105 159.572329 
L 183.535105 159.217694 
L 183.658865 159.217694 
L 183.658865 158.508424 
L 183.90397 158.508424 
L 183.90397 158.153788 
L 184.525216 158.153788 
L 184.525216 156.735247 
L 184.671895 156.735247 
L 184.671895 144.677647 
L 185.640089 144.677647 
L 185.640089 144.323012 
L 185.881399 144.323012 
L 185.881399 143.968376 
L 186.072242 143.968376 
L 186.072242 143.613741 
L 186.686007 143.613741 
L 186.686007 143.259106 
L 186.991998 143.259106 
L 186.991998 142.549835 
L 187.400822 142.549835 
L 187.400822 142.1952 
L 187.819499 142.1952 
L 187.819499 141.840565 
L 188.046776 141.840565 
L 188.046776 141.485929 
L 188.235106 141.485929 
L 188.235106 141.131294 
L 189.688683 141.131294 
L 189.688683 140.422024 
L 189.816937 140.422024 
L 189.839153 138.294212 
L 190.114664 138.294212 
L 190.174739 125.881976 
L 190.359221 125.881976 
L 190.359221 124.818071 
L 190.488362 124.818071 
L 190.488362 124.463435 
L 190.605968 124.463435 
L 190.605968 124.1088 
L 190.849521 124.1088 
L 190.849521 123.754165 
L 191.04316 123.754165 
L 191.04316 123.399529 
L 191.460239 123.399529 
L 191.460239 122.335624 
L 191.778359 122.335624 
L 191.778359 121.980988 
L 192.238346 121.980988 
L 192.238346 121.626353 
L 192.54368 121.626353 
L 192.567702 120.562447 
L 194.057911 120.562447 
L 194.057911 120.207812 
L 194.496327 120.207812 
L 194.522309 108.150212 
L 195.43044 108.150212 
L 195.43044 107.440941 
L 196.515985 107.440941 
L 196.515985 107.086306 
L 197.557026 107.086306 
L 197.557026 95.383341 
L 198.511987 95.383341 
L 198.511987 95.028706 
L 198.988954 95.028706 
L 198.988954 94.674071 
L 201.334632 94.674071 
L 201.334632 94.319435 
L 204.44842 94.319435 
L 204.44842 93.9648 
L 206.104377 93.9648 
L 206.104377 82.616471 
L 206.734323 82.616471 
L 206.734323 82.261835 
L 208.042132 82.261835 
L 208.042132 81.552565 
L 208.574472 81.552565 
L 208.574472 81.197929 
L 210.327288 81.197929 
L 210.327288 80.843294 
L 210.770324 80.843294 
L 210.770324 67.012518 
L 211.147814 67.012518 
L 211.147814 66.657882 
L 212.228416 66.657882 
L 212.336161 65.239341 
L 212.366353 65.239341 
L 212.366353 54.600282 
L 212.49663 54.600282 
L 212.568065 53.536376 
L 214.190647 53.536376 
L 214.190647 52.827106 
L 214.304385 52.827106 
L 214.304385 41.124141 
L 214.691958 41.124141 
L 214.691958 40.769506 
L 220.411465 40.769506 
L 220.488894 27.648 
L 360.8064 27.648 
L 360.8064 27.648 
" style="fill: none; stroke: #008000; stroke-width: 1.5; stroke-linecap: square"/>
   </g>
   <g id="line2d_35">
    <defs>
     <path id="mb1d3607e1d" d="M -0 6 
L 6 -6 
L -6 -6 
z
" style="stroke: #008000; stroke-width: 1.5; stroke-linejoin: miter"/>
    </defs>
    <g>
     <use xlink:href="#mb1d3607e1d" x="86.578163" y="276.247341" style="fill-opacity: 0; stroke: #008000; stroke-width: 1.5; stroke-linejoin: miter"/>
     <use xlink:href="#mb1d3607e1d" x="172.869606" y="195.035859" style="fill-opacity: 0; stroke: #008000; stroke-width: 1.5; stroke-linejoin: miter"/>
     <use xlink:href="#mb1d3607e1d" x="214.190647" y="52.827106" style="fill-opacity: 0; stroke: #008000; stroke-width: 1.5; stroke-linejoin: miter"/>
     <use xlink:href="#mb1d3607e1d" x="220.488894" y="27.648" style="fill-opacity: 0; stroke: #008000; stroke-width: 1.5; stroke-linejoin: miter"/>
     <use xlink:href="#mb1d3607e1d" x="220.488894" y="27.648" style="fill-opacity: 0; stroke: #008000; stroke-width: 1.5; stroke-linejoin: miter"/>
     <use xlink:href="#mb1d3607e1d" x="360.8064" y="27.648" style="fill-opacity: 0; stroke: #008000; stroke-width: 1.5; stroke-linejoin: miter"/>
    </g>
   </g>
   <g id="line2d_36">
    <path style="fill: none; stroke: #008000; stroke-width: 1.5; stroke-linecap: square"/>
    <g/>
   </g>
   <g id="line2d_37">
    <defs>
     <path id="m7f5fd9623c" d="M 0 1.5 
C 0.397805 1.5 0.77937 1.341951 1.06066 1.06066 
C 1.341951 0.77937 1.5 0.397805 1.5 0 
C 1.5 -0.397805 1.341951 -0.77937 1.06066 -1.06066 
C 0.77937 -1.341951 0.397805 -1.5 0 -1.5 
C -0.397805 -1.5 -0.77937 -1.341951 -1.06066 -1.06066 
C -1.341951 -0.77937 -1.5 -0.397805 -1.5 0 
C -1.5 0.397805 -1.341951 0.77937 -1.06066 1.06066 
C -0.77937 1.341951 -0.397805 1.5 0 1.5 
z
" style="stroke: #0000ff"/>
    </defs>
    <g>
     <use xlink:href="#m7f5fd9623c" x="214.2019" y="27.648" style="fill: #0000ff; stroke: #0000ff"/>
     <use xlink:href="#m7f5fd9623c" x="214.2019" y="27.648" style="fill: #0000ff; stroke: #0000ff"/>
    </g>
   </g>
   <g id="line2d_38">
    <path d="M 27.323974 298.944 
L 27.323974 295.043012 
L 40.363149 295.043012 
L 40.363149 292.9152 
L 47.990577 292.9152 
L 47.990577 291.496659 
L 53.402323 291.496659 
L 53.402323 291.142024 
L 57.6 291.142024 
L 57.6 290.787388 
L 66.441498 290.787388 
L 66.441498 290.078118 
L 68.65718 290.078118 
L 68.65718 289.368847 
L 70.639174 289.368847 
L 70.639174 289.014212 
L 75.574654 289.014212 
L 75.574654 288.659576 
L 78.266603 288.659576 
L 78.266603 288.304941 
L 81.696354 288.304941 
L 81.696354 287.950306 
L 84.596168 287.950306 
L 84.596168 287.241035 
L 85.471281 287.241035 
L 85.471281 286.8864 
L 90.668036 286.8864 
L 90.668036 286.531765 
L 97.18203 286.531765 
L 97.18203 286.177129 
L 98.933205 286.177129 
L 98.933205 285.822494 
L 101.653002 285.822494 
L 101.653002 285.467859 
L 102.011329 285.467859 
L 102.011329 285.113224 
L 105.559021 285.113224 
L 105.559021 284.049318 
L 111.117162 284.049318 
L 111.117162 283.340047 
L 111.334639 283.340047 
L 111.334639 282.985412 
L 113.381389 282.985412 
L 113.381389 282.630776 
L 115.227139 282.630776 
L 115.227139 282.276141 
L 118.152051 282.276141 
L 118.152051 281.566871 
L 118.598196 281.566871 
L 118.598196 281.212235 
L 128.786481 281.212235 
L 128.786481 280.8576 
L 129.209231 280.8576 
L 129.209231 280.502965 
L 131.41562 280.502965 
L 131.41562 280.148329 
L 141.349389 280.148329 
L 141.349389 279.793694 
L 144.305496 279.793694 
L 144.380294 278.729788 
L 144.454795 278.729788 
L 144.454795 278.375153 
L 145.219746 278.375153 
L 145.219746 278.020518 
L 147.439393 278.020518 
L 147.439393 277.665882 
L 148.607806 277.665882 
L 148.607806 276.601976 
L 149.020615 276.601976 
L 149.020615 276.247341 
L 149.252502 276.247341 
L 149.252502 275.892706 
L 150.879716 275.892706 
L 150.879716 275.538071 
L 152.303973 275.538071 
L 152.401695 258.160941 
L 152.619733 258.160941 
L 152.643804 254.969224 
L 152.763699 254.969224 
L 152.859068 254.259953 
L 152.882835 254.259953 
L 152.882835 253.550682 
L 155.329337 253.550682 
L 155.329337 253.196047 
L 156.245169 253.196047 
L 156.245169 252.132141 
L 156.560344 252.132141 
L 156.560344 236.882824 
L 157.400797 236.882824 
L 157.400797 220.214965 
L 158.294582 220.214965 
L 158.312387 219.505694 
L 158.838864 219.505694 
L 158.838864 219.151059 
L 159.028273 219.151059 
L 159.045398 215.250071 
L 159.401463 215.250071 
L 159.401463 214.895435 
L 159.964032 214.895435 
L 159.964032 213.122259 
L 161.010268 213.122259 
L 161.010268 212.767624 
L 161.854518 212.767624 
L 161.854518 212.412988 
L 162.690724 212.412988 
L 162.775144 211.703718 
L 162.817213 211.703718 
L 162.859187 194.681224 
L 163.531835 194.681224 
L 163.639407 193.971953 
L 164.011136 193.971953 
L 164.011136 193.617318 
L 164.233297 193.617318 
L 164.233297 193.262682 
L 164.427166 193.262682 
L 164.427166 180.141176 
L 166.814929 180.141176 
L 166.814929 179.786541 
L 167.01769 179.786541 
L 167.01769 179.431906 
L 167.240447 179.431906 
L 167.240447 179.077271 
L 168.084835 179.077271 
L 168.137692 177.658729 
L 169.064557 177.658729 
L 169.064557 177.304094 
L 169.274409 177.304094 
L 169.343842 176.594824 
L 170.033985 176.594824 
L 170.033985 163.827953 
L 170.205 163.827953 
L 170.205 163.473318 
L 170.754894 163.473318 
L 170.754894 163.118682 
L 171.073664 163.118682 
L 171.073664 162.764047 
L 173.493935 162.764047 
L 173.493935 162.054776 
L 173.675691 162.054776 
L 173.675691 161.700141 
L 174.271704 161.700141 
L 174.271704 161.345506 
L 175.033228 161.345506 
L 175.033228 160.990871 
L 175.381197 160.990871 
L 175.381197 160.636235 
L 175.673408 160.636235 
L 175.673408 160.2816 
L 176.168936 160.2816 
L 176.182707 159.572329 
L 176.872001 159.572329 
L 176.872001 159.217694 
L 177.148646 159.217694 
L 177.148646 158.863059 
L 177.304922 158.863059 
L 177.382575 143.613741 
L 177.536927 143.613741 
L 177.536927 143.259106 
L 177.810347 143.259106 
L 177.810347 141.840565 
L 178.437353 141.840565 
L 178.437353 141.485929 
L 178.601488 141.485929 
L 178.601488 141.131294 
L 178.859967 141.131294 
L 178.901711 140.422024 
L 179.103159 140.422024 
L 179.103159 140.067388 
L 179.360695 140.067388 
L 179.360695 139.712753 
L 180.23528 139.712753 
L 180.23528 127.655153 
L 181.402471 127.655153 
L 181.402471 127.300518 
L 183.054061 127.300518 
L 183.054061 126.945882 
L 183.590898 126.945882 
L 183.590898 126.591247 
L 184.712762 126.591247 
L 184.712762 126.236612 
L 185.093768 126.236612 
L 185.093768 125.881976 
L 186.489385 125.881976 
L 186.489385 125.172706 
L 186.980371 125.172706 
L 186.980371 124.818071 
L 187.100178 124.818071 
L 187.100178 124.463435 
L 187.421032 124.463435 
L 187.526779 122.690259 
L 187.855308 122.690259 
L 187.91074 111.341929 
L 188.534946 111.341929 
L 188.638179 95.383341 
L 189.187435 95.383341 
L 189.187435 95.028706 
L 189.485033 95.028706 
L 189.485033 94.674071 
L 190.601705 94.674071 
L 190.601705 94.319435 
L 193.955614 94.319435 
L 193.955614 93.9648 
L 194.184345 93.9648 
L 194.287162 92.900894 
L 194.30293 92.900894 
L 194.30293 92.191624 
L 194.433821 92.191624 
L 194.475514 79.424753 
L 195.665654 79.424753 
L 195.665654 79.070118 
L 196.162374 79.070118 
L 196.162374 78.715482 
L 196.997856 78.715482 
L 196.997856 66.657882 
L 198.318469 66.657882 
L 198.318469 53.181741 
L 200.710392 53.181741 
L 200.710392 52.472471 
L 208.23351 52.472471 
L 208.23351 51.7632 
L 212.405866 51.7632 
L 212.405866 51.053929 
L 213.19393 51.053929 
L 213.237185 49.280753 
L 213.618305 49.280753 
L 213.681237 38.996329 
L 214.2019 38.996329 
L 214.2019 27.648 
L 360.8064 27.648 
L 360.8064 27.648 
" style="fill: none; stroke: #0000ff; stroke-width: 1.5; stroke-linecap: square"/>
   </g>
   <g id="line2d_39">
    <defs>
     <path id="mcb755931b0" d="M 0 -6 
L -1.347084 -1.854102 
L -5.706339 -1.854102 
L -2.179628 0.708204 
L -3.526712 4.854102 
L -0 2.291796 
L 3.526712 4.854102 
L 2.179628 0.708204 
L 5.706339 -1.854102 
L 1.347084 -1.854102 
z
" style="stroke: #0000ff; stroke-width: 1.5; stroke-linejoin: bevel"/>
    </defs>
    <g>
     <use xlink:href="#mcb755931b0" x="156.560344" y="252.132141" style="fill-opacity: 0; stroke: #0000ff; stroke-width: 1.5; stroke-linejoin: bevel"/>
     <use xlink:href="#mcb755931b0" x="188.534946" y="111.341929" style="fill-opacity: 0; stroke: #0000ff; stroke-width: 1.5; stroke-linejoin: bevel"/>
     <use xlink:href="#mcb755931b0" x="214.2019" y="38.996329" style="fill-opacity: 0; stroke: #0000ff; stroke-width: 1.5; stroke-linejoin: bevel"/>
     <use xlink:href="#mcb755931b0" x="214.2019" y="27.648" style="fill-opacity: 0; stroke: #0000ff; stroke-width: 1.5; stroke-linejoin: bevel"/>
     <use xlink:href="#mcb755931b0" x="214.2019" y="27.648" style="fill-opacity: 0; stroke: #0000ff; stroke-width: 1.5; stroke-linejoin: bevel"/>
     <use xlink:href="#mcb755931b0" x="360.8064" y="27.648" style="fill-opacity: 0; stroke: #0000ff; stroke-width: 1.5; stroke-linejoin: bevel"/>
    </g>
   </g>
   <g id="line2d_40">
    <path style="fill: none; stroke: #0000ff; stroke-width: 1.5; stroke-linecap: square"/>
    <g/>
   </g>
   <g id="line2d_41">
    <defs>
     <path id="m617ebd4a10" d="M 0 1.5 
C 0.397805 1.5 0.77937 1.341951 1.06066 1.06066 
C 1.341951 0.77937 1.5 0.397805 1.5 0 
C 1.5 -0.397805 1.341951 -0.77937 1.06066 -1.06066 
C 0.77937 -1.341951 0.397805 -1.5 0 -1.5 
C -0.397805 -1.5 -0.77937 -1.341951 -1.06066 -1.06066 
C -1.341951 -0.77937 -1.5 -0.397805 -1.5 0 
C -1.5 0.397805 -1.341951 0.77937 -1.06066 1.06066 
C -0.77937 1.341951 -0.397805 1.5 0 1.5 
z
" style="stroke: #000000"/>
    </defs>
    <g>
     <use xlink:href="#m617ebd4a10" x="207.005489" y="27.648" style="stroke: #000000"/>
     <use xlink:href="#m617ebd4a10" x="207.005489" y="27.648" style="stroke: #000000"/>
    </g>
   </g>
   <g id="line2d_42">
    <path d="M 53.402323 298.944 
L 53.402323 298.589365 
L 70.639174 298.589365 
L 70.639174 298.234729 
L 71.556993 298.234729 
L 71.556993 297.880094 
L 83.202082 297.880094 
L 83.202082 297.525459 
L 87.495981 297.525459 
L 87.495981 297.170824 
L 90.668036 297.170824 
L 90.668036 296.816188 
L 93.934916 296.816188 
L 93.934916 296.461553 
L 99.14107 296.461553 
L 99.14107 296.106918 
L 103.214303 296.106918 
L 103.214303 295.752282 
L 108.416798 295.752282 
L 108.416798 295.397647 
L 110.897141 295.397647 
L 110.897141 295.043012 
L 113.186449 295.043012 
L 113.186449 294.688376 
L 114.326893 294.688376 
L 114.326893 294.333741 
L 118.376446 294.333741 
L 118.376446 293.979106 
L 119.105667 293.979106 
L 119.105667 293.624471 
L 136.242113 293.624471 
L 136.270855 292.9152 
L 137.195511 292.9152 
L 137.195511 292.560565 
L 137.866944 292.560565 
L 137.866944 292.205929 
L 138.438609 292.205929 
L 138.540708 290.787388 
L 140.335954 290.787388 
L 140.405242 290.078118 
L 140.928134 290.078118 
L 140.972924 289.368847 
L 142.059343 289.368847 
L 142.059343 289.014212 
L 142.763822 289.014212 
L 142.844994 286.177129 
L 142.966099 286.177129 
L 142.986208 282.985412 
L 143.10641 282.985412 
L 143.10641 282.630776 
L 143.225848 282.630776 
L 143.225848 282.276141 
L 143.501625 282.276141 
L 143.501625 280.8576 
L 143.811926 280.8576 
L 143.811926 280.502965 
L 145.184016 280.502965 
L 145.184016 280.148329 
L 146.412609 280.148329 
L 146.412609 279.793694 
L 146.612557 279.793694 
L 146.612557 279.439059 
L 146.859539 279.439059 
L 146.859539 279.084424 
L 147.054816 279.084424 
L 147.1517 278.375153 
L 147.296097 278.375153 
L 147.296097 277.665882 
L 147.486917 277.665882 
L 147.486917 277.311247 
L 147.660152 277.311247 
L 147.73837 275.892706 
L 147.847333 275.892706 
L 147.847333 275.538071 
L 148.563035 275.538071 
L 148.563035 275.183435 
L 149.136916 275.183435 
L 149.136916 260.643388 
L 151.233056 260.643388 
L 151.284843 245.039435 
L 152.082223 245.039435 
L 152.082223 243.975529 
L 152.328451 243.975529 
L 152.352898 243.266259 
L 152.55942 243.266259 
L 152.55942 228.371576 
L 153.107137 228.371576 
L 153.107137 227.662306 
L 153.662158 227.662306 
L 153.662158 227.307671 
L 154.366625 227.307671 
L 154.366625 226.5984 
L 154.639024 226.5984 
L 154.639024 226.243765 
L 154.875516 226.243765 
L 154.875516 225.889129 
L 155.454055 225.889129 
L 155.454055 225.179859 
L 156.135597 225.179859 
L 156.135597 224.825224 
L 156.764344 224.825224 
L 156.764344 224.470588 
L 156.899125 224.470588 
L 156.899125 223.406682 
L 157.061501 223.406682 
L 157.061501 222.697412 
L 157.391454 222.697412 
L 157.391454 221.633506 
L 157.549652 221.633506 
L 157.651312 207.093459 
L 157.76159 207.093459 
L 157.76159 206.738824 
L 158.151527 206.738824 
L 158.151527 206.384188 
L 158.427714 206.384188 
L 158.427714 205.320282 
L 158.58624 205.320282 
L 158.58624 204.965647 
L 159.164837 204.965647 
L 159.164837 204.611012 
L 159.334159 204.611012 
L 159.435025 203.547106 
L 160.085895 203.547106 
L 160.085895 203.192471 
L 160.399093 203.192471 
L 160.407056 202.4832 
L 160.87098 202.4832 
L 160.87098 202.128565 
L 160.987125 202.128565 
L 161.071844 200.355388 
L 161.209658 200.355388 
L 161.209658 187.588518 
L 162.690724 187.588518 
L 162.690724 187.233882 
L 163.239651 187.233882 
L 163.239651 186.524612 
L 163.423645 186.524612 
L 163.423645 186.169976 
L 164.109472 186.169976 
L 164.155187 170.920659 
L 165.251069 170.920659 
L 165.251069 170.566024 
L 165.826761 170.566024 
L 165.826761 170.211388 
L 167.040085 170.211388 
L 167.040085 169.502118 
L 167.44965 169.502118 
L 167.44965 169.147482 
L 167.580589 169.147482 
L 167.586025 167.728941 
L 167.694418 167.728941 
L 167.694418 167.374306 
L 169.089662 167.374306 
L 169.089662 166.665035 
L 169.521218 166.665035 
L 169.589749 165.955765 
L 169.875843 165.955765 
L 169.986203 164.891859 
L 170.299341 164.891859 
L 170.299341 164.537224 
L 170.964979 164.537224 
L 171.064631 151.061082 
L 171.506646 151.061082 
L 171.506646 150.706447 
L 172.22526 150.706447 
L 172.242242 149.997176 
L 172.465815 149.997176 
L 172.465815 149.642541 
L 172.954239 149.642541 
L 172.954239 149.287906 
L 174.087951 149.287906 
L 174.187707 148.578635 
L 174.630174 148.578635 
L 174.630174 148.224 
L 175.120826 148.224 
L 175.211641 147.514729 
L 175.244228 147.514729 
L 175.287589 132.265412 
L 175.427827 132.265412 
L 175.427827 131.910776 
L 176.158601 131.910776 
L 176.206783 129.428329 
L 176.456037 129.428329 
L 176.456037 117.725365 
L 176.604692 117.725365 
L 176.604692 117.016094 
L 177.311405 117.016094 
L 177.311405 116.661459 
L 177.699551 116.661459 
L 177.699551 116.306824 
L 177.904798 116.306824 
L 177.904798 115.597553 
L 178.277932 115.597553 
L 178.308695 102.121412 
L 178.476998 102.121412 
L 178.476998 100.702871 
L 179.287889 100.702871 
L 179.287889 100.348235 
L 180.401022 100.348235 
L 180.401022 99.9936 
L 180.860161 99.9936 
L 180.860161 99.638965 
L 181.004537 99.638965 
L 181.004537 99.284329 
L 182.977474 99.284329 
L 183.008625 97.865788 
L 183.232348 97.865788 
L 183.232348 97.511153 
L 183.867408 97.511153 
L 183.899404 71.977412 
L 184.184948 71.977412 
L 184.184948 71.622776 
L 184.858715 71.622776 
L 184.858715 69.8496 
L 185.228297 69.8496 
L 185.228297 69.494965 
L 186.109503 69.494965 
L 186.109503 69.140329 
L 186.556917 69.140329 
L 186.556917 68.785694 
L 186.982309 68.785694 
L 186.982309 68.431059 
L 187.312783 68.431059 
L 187.354637 67.721788 
L 187.445634 67.721788 
L 187.513593 52.827106 
L 187.849756 52.827106 
L 187.849756 52.472471 
L 187.969687 52.472471 
L 187.969687 51.408565 
L 189.158105 51.408565 
L 189.158105 51.053929 
L 202.122888 51.053929 
L 202.122888 38.287059 
L 205.071423 38.287059 
L 205.071423 37.932424 
L 207.005489 37.932424 
L 207.005489 27.648 
L 360.8064 27.648 
L 360.8064 27.648 
" style="fill: none; stroke: #000000; stroke-width: 1.5; stroke-linecap: square"/>
   </g>
   <g id="line2d_43">
    <defs>
     <path id="mcb23f89731" d="M 0 6 
C 1.591219 6 3.117479 5.367802 4.242641 4.242641 
C 5.367802 3.117479 6 1.591219 6 0 
C 6 -1.591219 5.367802 -3.117479 4.242641 -4.242641 
C 3.117479 -5.367802 1.591219 -6 0 -6 
C -1.591219 -6 -3.117479 -5.367802 -4.242641 -4.242641 
C -5.367802 -3.117479 -6 -1.591219 -6 0 
C -6 1.591219 -5.367802 3.117479 -4.242641 4.242641 
C -3.117479 5.367802 -1.591219 6 0 6 
z
" style="stroke: #000000; stroke-width: 1.5"/>
    </defs>
    <g>
     <use xlink:href="#mcb23f89731" x="119.105667" y="293.979106" style="fill-opacity: 0; stroke: #000000; stroke-width: 1.5"/>
     <use xlink:href="#mcb23f89731" x="163.239651" y="186.524612" style="fill-opacity: 0; stroke: #000000; stroke-width: 1.5"/>
     <use xlink:href="#mcb23f89731" x="189.158105" y="51.053929" style="fill-opacity: 0; stroke: #000000; stroke-width: 1.5"/>
     <use xlink:href="#mcb23f89731" x="207.005489" y="27.648" style="fill-opacity: 0; stroke: #000000; stroke-width: 1.5"/>
     <use xlink:href="#mcb23f89731" x="207.005489" y="27.648" style="fill-opacity: 0; stroke: #000000; stroke-width: 1.5"/>
     <use xlink:href="#mcb23f89731" x="360.8064" y="27.648" style="fill-opacity: 0; stroke: #000000; stroke-width: 1.5"/>
    </g>
   </g>
   <g id="line2d_44">
    <path style="fill: none; stroke: #000000; stroke-width: 1.5; stroke-linecap: square"/>
    <g/>
   </g>
   <g id="line2d_45">
    <defs>
     <path id="ma56f298212" d="M 0 1.5 
C 0.397805 1.5 0.77937 1.341951 1.06066 1.06066 
C 1.341951 0.77937 1.5 0.397805 1.5 0 
C 1.5 -0.397805 1.341951 -0.77937 1.06066 -1.06066 
C 0.77937 -1.341951 0.397805 -1.5 0 -1.5 
C -0.397805 -1.5 -0.77937 -1.341951 -1.06066 -1.06066 
C -1.341951 -0.77937 -1.5 -0.397805 -1.5 0 
C -1.5 0.397805 -1.341951 0.77937 -1.06066 1.06066 
C -0.77937 1.341951 -0.397805 1.5 0 1.5 
z
" style="stroke: #ff0000"/>
    </defs>
    <g>
     <use xlink:href="#ma56f298212" x="204.711586" y="27.648" style="fill: #ff0000; stroke: #ff0000"/>
     <use xlink:href="#ma56f298212" x="204.711586" y="27.648" style="fill: #ff0000; stroke: #ff0000"/>
    </g>
   </g>
   <g id="line2d_46">
    <path d="M 125.115773 298.944 
L 125.167667 297.880094 
L 127.88896 297.880094 
L 127.88896 297.525459 
L 128.375874 297.525459 
L 128.375874 296.816188 
L 129.188317 296.816188 
L 129.188317 296.461553 
L 130.618241 296.461553 
L 130.618241 295.752282 
L 131.674076 295.752282 
L 131.674076 295.397647 
L 132.05522 295.397647 
L 132.05522 295.043012 
L 132.829612 295.043012 
L 132.829612 294.333741 
L 133.289492 294.333741 
L 133.289492 293.979106 
L 134.573889 293.979106 
L 134.573889 292.9152 
L 135.3437 292.9152 
L 135.3437 292.560565 
L 136.342518 292.560565 
L 136.342518 292.205929 
L 137.0583 292.205929 
L 137.0583 291.496659 
L 137.399469 291.496659 
L 137.466966 290.432753 
L 138.425808 290.432753 
L 138.425808 290.078118 
L 138.918715 290.078118 
L 138.918715 289.723482 
L 140.044477 289.723482 
L 140.126547 289.014212 
L 140.26641 289.014212 
L 140.26641 288.659576 
L 140.543056 288.659576 
L 140.543056 287.950306 
L 141.073312 287.950306 
L 141.128852 287.241035 
L 141.632274 287.241035 
L 141.696956 285.822494 
L 141.932237 285.822494 
L 141.932237 285.113224 
L 142.059343 285.113224 
L 142.059343 284.758588 
L 142.641404 284.758588 
L 142.641404 284.403953 
L 143.086429 284.403953 
L 143.086429 284.049318 
L 143.295173 284.049318 
L 143.295173 282.985412 
L 143.734829 282.985412 
L 143.734829 282.630776 
L 144.107726 282.630776 
L 144.107726 282.276141 
L 144.314862 282.276141 
L 144.314862 281.921506 
L 144.565997 281.921506 
L 144.630562 281.212235 
L 145.547065 281.212235 
L 145.547065 280.8576 
L 146.142663 280.8576 
L 146.142663 280.502965 
L 146.328666 280.502965 
L 146.328666 280.148329 
L 146.479495 280.148329 
L 146.571076 278.729788 
L 147.486917 278.729788 
L 147.486917 276.956612 
L 147.878349 276.956612 
L 147.878349 276.601976 
L 148.322436 276.601976 
L 148.322436 276.247341 
L 148.674765 276.247341 
L 148.674765 275.892706 
L 149.151403 275.892706 
L 149.180344 259.224847 
L 149.281288 259.224847 
L 149.281288 258.870212 
L 149.453084 258.870212 
L 149.460208 257.806306 
L 149.91759 257.806306 
L 149.91759 257.451671 
L 150.620334 257.451671 
L 150.620334 256.387765 
L 151.017916 256.387765 
L 151.017916 256.033129 
L 151.174625 256.033129 
L 151.174625 242.556988 
L 151.496969 242.556988 
L 151.496969 242.202353 
L 151.98905 242.202353 
L 151.98905 241.847718 
L 153.17157 241.847718 
L 153.17157 241.493082 
L 153.570784 241.493082 
L 153.65646 240.429176 
L 154.012098 240.429176 
L 154.012098 240.074541 
L 154.228932 240.074541 
L 154.228932 239.719906 
L 154.383081 239.719906 
L 154.432362 239.010635 
L 154.622791 239.010635 
L 154.719981 238.301365 
L 154.923525 238.301365 
L 154.987347 237.592094 
L 155.140696 237.592094 
L 155.140696 237.237459 
L 155.282353 237.237459 
L 155.282353 236.173553 
L 156.110604 236.173553 
L 156.110604 235.818918 
L 156.442771 235.818918 
L 156.442771 235.464282 
L 156.706284 235.464282 
L 156.706284 235.109647 
L 156.927882 235.109647 
L 156.927882 234.755012 
L 157.170554 234.755012 
L 157.170554 234.400376 
L 157.396126 234.400376 
L 157.396126 233.691106 
L 157.595929 233.691106 
L 157.595929 233.336471 
L 157.871225 233.336471 
L 157.871225 232.981835 
L 158.285673 232.981835 
L 158.285673 232.6272 
L 158.559911 232.6272 
L 158.590624 231.917929 
L 158.88208 231.917929 
L 158.88208 231.208659 
L 159.20731 231.208659 
L 159.313076 215.959341 
L 159.767393 215.959341 
L 159.767393 215.604706 
L 160.008806 215.604706 
L 160.008806 215.250071 
L 160.263211 215.250071 
L 160.291267 214.5408 
L 160.624716 214.5408 
L 160.624716 214.186165 
L 160.902022 214.186165 
L 160.902022 213.831529 
L 161.31236 213.831529 
L 161.31236 213.476894 
L 161.97209 213.476894 
L 161.97209 213.122259 
L 162.11803 213.122259 
L 162.226747 211.703718 
L 162.370732 211.703718 
L 162.453027 210.639812 
L 162.499383 210.639812 
L 162.499383 210.285176 
L 162.711865 210.285176 
L 162.810208 208.866635 
L 162.918491 208.866635 
L 162.963715 206.738824 
L 164.138873 206.738824 
L 164.138873 206.384188 
L 164.818457 206.384188 
L 164.878182 204.611012 
L 165.275667 204.611012 
L 165.275667 204.256376 
L 166.160974 204.256376 
L 166.160974 203.192471 
L 166.786594 203.192471 
L 166.857352 188.652424 
L 166.981242 188.652424 
L 166.981242 188.297788 
L 167.22106 188.297788 
L 167.22106 187.943153 
L 167.400311 187.943153 
L 167.400311 174.467012 
L 167.602324 174.467012 
L 167.602324 174.112376 
L 168.397165 174.112376 
L 168.397165 173.757741 
L 168.722311 173.757741 
L 168.729985 173.048471 
L 168.865036 173.048471 
L 168.865036 172.693835 
L 169.016764 172.693835 
L 169.016764 172.3392 
L 169.174771 172.3392 
L 169.209704 170.566024 
L 170.103053 170.566024 
L 170.1695 169.147482 
L 170.228629 169.147482 
L 170.228629 168.792847 
L 170.621233 168.792847 
L 170.621233 168.438212 
L 170.764077 168.438212 
L 170.764077 168.083576 
L 171.497818 168.083576 
L 171.497818 167.728941 
L 171.871548 167.728941 
L 171.871548 167.374306 
L 172.248606 167.374306 
L 172.248606 167.019671 
L 172.409118 167.019671 
L 172.409118 166.665035 
L 172.711612 166.665035 
L 172.711612 165.955765 
L 172.905144 165.955765 
L 172.905144 165.601129 
L 173.460157 165.601129 
L 173.460157 165.246494 
L 173.614643 165.246494 
L 173.614643 164.891859 
L 174.120622 164.891859 
L 174.181966 163.827953 
L 174.281225 163.827953 
L 174.281225 153.188894 
L 174.398893 153.188894 
L 174.398893 152.834259 
L 174.970932 152.834259 
L 174.970932 152.479624 
L 175.255078 152.479624 
L 175.285785 151.770353 
L 175.901855 151.770353 
L 175.901855 151.415718 
L 176.208501 151.415718 
L 176.208501 151.061082 
L 176.555833 151.061082 
L 176.555833 150.351812 
L 177.267599 150.351812 
L 177.267599 149.997176 
L 177.859206 149.997176 
L 177.859206 149.642541 
L 178.244035 149.642541 
L 178.244035 149.287906 
L 178.446509 149.287906 
L 178.446509 135.102494 
L 178.873395 135.102494 
L 178.873395 134.747859 
L 179.283512 134.747859 
L 179.283512 134.393224 
L 179.763281 134.393224 
L 179.763281 133.329318 
L 180.013399 133.329318 
L 180.013399 132.974682 
L 180.702494 132.974682 
L 180.702494 132.620047 
L 180.9552 132.620047 
L 180.9552 132.265412 
L 181.129302 132.265412 
L 181.129302 119.143906 
L 183.277247 119.143906 
L 183.277247 106.377035 
L 184.328343 106.377035 
L 184.328343 106.0224 
L 184.58219 106.0224 
L 184.58219 105.667765 
L 185.25275 105.667765 
L 185.25275 105.313129 
L 185.755959 105.313129 
L 185.755959 104.958494 
L 186.609384 104.958494 
L 186.609384 104.603859 
L 186.764934 104.603859 
L 186.764934 104.249224 
L 187.253648 104.249224 
L 187.253648 90.773082 
L 187.729987 90.773082 
L 187.762558 67.012518 
L 188.079718 67.012518 
L 188.079718 53.891012 
L 190.019519 53.891012 
L 190.019519 52.827106 
L 191.150112 52.827106 
L 191.17417 52.117835 
L 191.26315 52.117835 
L 191.26315 51.7632 
L 201.936487 51.7632 
L 201.936487 40.414871 
L 204.711586 40.414871 
L 204.711586 27.648 
L 360.8064 27.648 
L 360.8064 27.648 
" style="fill: none; stroke: #ff0000; stroke-width: 1.5; stroke-linecap: square"/>
   </g>
   <g id="line2d_47">
    <defs>
     <path id="mabc5b9242d" d="M -6 6 
L 6 6 
L 6 -6 
L -6 -6 
z
" style="stroke: #ff0000; stroke-width: 1.5; stroke-linejoin: miter"/>
    </defs>
    <g>
     <use xlink:href="#mabc5b9242d" x="174.398893" y="152.834259" style="fill-opacity: 0; stroke: #ff0000; stroke-width: 1.5; stroke-linejoin: miter"/>
     <use xlink:href="#mabc5b9242d" x="204.711586" y="40.414871" style="fill-opacity: 0; stroke: #ff0000; stroke-width: 1.5; stroke-linejoin: miter"/>
     <use xlink:href="#mabc5b9242d" x="204.711586" y="27.648" style="fill-opacity: 0; stroke: #ff0000; stroke-width: 1.5; stroke-linejoin: miter"/>
     <use xlink:href="#mabc5b9242d" x="204.711586" y="27.648" style="fill-opacity: 0; stroke: #ff0000; stroke-width: 1.5; stroke-linejoin: miter"/>
     <use xlink:href="#mabc5b9242d" x="360.8064" y="27.648" style="fill-opacity: 0; stroke: #ff0000; stroke-width: 1.5; stroke-linejoin: miter"/>
    </g>
   </g>
   <g id="line2d_48">
    <path style="fill: none; stroke: #ff0000; stroke-width: 1.5; stroke-linecap: square"/>
    <g/>
   </g>
   <g id="line2d_49">
    <defs>
     <path id="m137a56cb4e" d="M 0 1.5 
C 0.397805 1.5 0.77937 1.341951 1.06066 1.06066 
C 1.341951 0.77937 1.5 0.397805 1.5 0 
C 1.5 -0.397805 1.341951 -0.77937 1.06066 -1.06066 
C 0.77937 -1.341951 0.397805 -1.5 0 -1.5 
C -0.397805 -1.5 -0.77937 -1.341951 -1.06066 -1.06066 
C -1.341951 -0.77937 -1.5 -0.397805 -1.5 0 
C -1.5 0.397805 -1.341951 0.77937 -1.06066 1.06066 
C -0.77937 1.341951 -0.397805 1.5 0 1.5 
z
" style="stroke: #bf00bf"/>
    </defs>
    <g>
     <use xlink:href="#m137a56cb4e" x="195.883075" y="27.648" style="fill: #bf00bf; stroke: #bf00bf"/>
     <use xlink:href="#m137a56cb4e" x="195.883075" y="27.648" style="fill: #bf00bf; stroke: #bf00bf"/>
    </g>
   </g>
   <g id="line2d_50">
    <path d="M 134.962732 298.944 
L 134.962732 298.589365 
L 136.808769 298.589365 
L 136.808769 298.234729 
L 137.399469 298.234729 
L 137.399469 297.880094 
L 137.886721 297.880094 
L 137.886721 297.525459 
L 138.316644 297.525459 
L 138.316644 297.170824 
L 139.049244 297.170824 
L 139.049244 296.816188 
L 139.700607 296.816188 
L 139.700607 296.461553 
L 140.073829 296.461553 
L 140.16161 295.752282 
L 140.260603 295.752282 
L 140.28962 295.043012 
L 142.027647 295.043012 
L 142.112051 294.333741 
L 142.518184 294.333741 
L 142.518184 293.979106 
L 142.935896 293.979106 
L 142.935896 293.624471 
L 143.993774 293.624471 
L 143.993774 293.269835 
L 144.593695 293.269835 
L 144.593695 292.9152 
L 144.968202 292.9152 
L 144.968202 292.560565 
L 145.712961 292.560565 
L 145.712961 292.205929 
L 145.842905 292.205929 
L 145.842905 291.851294 
L 146.27812 291.851294 
L 146.27812 291.496659 
L 146.492009 291.496659 
L 146.492009 291.142024 
L 147.038621 291.142024 
L 147.038621 290.787388 
L 147.212 290.787388 
L 147.212 290.432753 
L 147.691478 290.432753 
L 147.691478 290.078118 
L 148.001907 290.078118 
L 148.001907 289.723482 
L 148.495677 289.723482 
L 148.495677 289.368847 
L 149.118791 289.368847 
L 149.118791 289.014212 
L 149.292071 289.014212 
L 149.292071 288.659576 
L 149.750003 288.659576 
L 149.750003 288.304941 
L 149.955786 288.304941 
L 149.955786 287.950306 
L 150.603584 287.950306 
L 150.603584 287.595671 
L 150.730509 287.595671 
L 150.730509 287.241035 
L 150.99167 287.241035 
L 151.076835 286.531765 
L 151.207109 286.531765 
L 151.207109 286.177129 
L 151.923554 286.177129 
L 151.923554 285.822494 
L 152.063625 285.822494 
L 152.063625 285.467859 
L 152.239565 285.467859 
L 152.239565 285.113224 
L 152.598645 285.113224 
L 152.598645 284.758588 
L 153.107137 284.758588 
L 153.11007 284.049318 
L 153.395364 284.049318 
L 153.395364 283.694682 
L 153.625091 283.694682 
L 153.625091 283.340047 
L 153.919603 283.340047 
L 153.919603 282.985412 
L 154.611961 282.985412 
L 154.714595 282.276141 
L 154.781812 282.276141 
L 154.824706 281.566871 
L 154.976725 281.566871 
L 154.976725 281.212235 
L 155.109071 281.212235 
L 155.109071 280.8576 
L 155.608798 280.8576 
L 155.608798 280.502965 
L 156.088083 280.502965 
L 156.173023 279.793694 
L 156.20291 279.793694 
L 156.269983 279.084424 
L 156.486947 279.084424 
L 156.486947 278.729788 
L 156.815 278.729788 
L 156.815 278.375153 
L 157.76159 278.375153 
L 157.76159 278.020518 
L 158.445394 278.020518 
L 158.469677 277.311247 
L 158.84319 277.311247 
L 158.84319 276.956612 
L 158.983246 276.956612 
L 158.983246 276.601976 
L 159.118005 276.601976 
L 159.16271 275.892706 
L 159.618554 275.892706 
L 159.639297 275.183435 
L 159.814692 275.183435 
L 159.849576 274.119529 
L 160.045361 274.119529 
L 160.063612 273.410259 
L 160.422971 273.410259 
L 160.422971 273.055624 
L 160.662058 273.055624 
L 160.662058 272.700988 
L 161.202028 272.700988 
L 161.270586 271.637082 
L 161.73806 271.637082 
L 161.73806 271.282447 
L 162.074367 271.282447 
L 162.074367 270.927812 
L 162.315068 270.927812 
L 162.315068 270.573176 
L 162.495821 270.573176 
L 162.547401 269.863906 
L 162.706582 269.863906 
L 162.731223 269.154635 
L 162.885374 269.154635 
L 162.885374 268.8 
L 163.022691 268.8 
L 163.022691 268.445365 
L 163.193369 268.445365 
L 163.193369 268.090729 
L 164.155187 268.090729 
L 164.2138 267.381459 
L 164.431987 267.381459 
L 164.431987 267.026824 
L 164.655613 267.026824 
L 164.655613 266.672188 
L 164.900138 266.672188 
L 164.900138 266.317553 
L 165.1152 266.317553 
L 165.1152 265.253647 
L 165.241836 265.253647 
L 165.327832 264.544376 
L 166.003481 264.544376 
L 166.003481 264.189741 
L 166.353466 264.189741 
L 166.353466 263.835106 
L 166.522453 263.835106 
L 166.529641 262.7712 
L 166.681382 262.7712 
L 166.681382 262.416565 
L 166.841808 262.416565 
L 166.841808 262.061929 
L 167.07642 262.061929 
L 167.158612 260.998024 
L 167.201654 260.998024 
L 167.201654 260.643388 
L 167.76454 260.643388 
L 167.76454 260.288753 
L 167.877265 260.288753 
L 167.901332 259.579482 
L 168.010586 259.579482 
L 168.010586 259.224847 
L 168.17987 259.224847 
L 168.17987 258.870212 
L 168.393261 258.870212 
L 168.393261 258.515576 
L 168.873921 258.515576 
L 168.873921 257.097035 
L 169.409321 257.097035 
L 169.494227 256.387765 
L 169.642201 256.387765 
L 169.73334 255.323859 
L 169.774511 255.323859 
L 169.774511 254.969224 
L 170.245153 254.969224 
L 170.245153 254.614588 
L 170.377989 254.614588 
L 170.425955 253.550682 
L 170.951349 253.550682 
L 170.951349 253.196047 
L 171.576018 253.196047 
L 171.576018 252.841412 
L 171.811944 252.841412 
L 171.848812 251.422871 
L 172.02564 251.422871 
L 172.08992 250.7136 
L 172.587032 250.7136 
L 172.667065 250.004329 
L 172.7705 250.004329 
L 172.7705 249.649694 
L 173.117982 249.649694 
L 173.228036 247.521882 
L 173.347456 247.521882 
L 173.347456 247.167247 
L 173.485 247.167247 
L 173.583057 245.394071 
L 173.652083 245.394071 
L 173.7385 230.144753 
L 173.8985 230.144753 
L 173.8985 216.668612 
L 174.163775 216.668612 
L 174.163775 201.773929 
L 174.445188 201.773929 
L 174.551519 189.007059 
L 175.045114 189.007059 
L 175.045114 187.588518 
L 175.82046 187.588518 
L 175.886129 186.879247 
L 176.076581 186.879247 
L 176.076581 186.169976 
L 176.393181 186.169976 
L 176.393181 185.460706 
L 176.628234 185.460706 
L 176.628234 184.751435 
L 177.590493 184.751435 
L 177.6932 183.687529 
L 177.728896 183.687529 
L 177.802454 182.978259 
L 177.968286 182.978259 
L 177.968286 182.623624 
L 178.29332 182.623624 
L 178.29332 182.268988 
L 178.667949 182.268988 
L 178.723656 180.850447 
L 178.895008 180.850447 
L 178.965637 168.083576 
L 179.274754 168.083576 
L 179.274754 156.025976 
L 179.611168 156.025976 
L 179.611168 155.671341 
L 179.742643 155.671341 
L 179.742643 153.898165 
L 180.30659 153.898165 
L 180.30659 153.543529 
L 180.827927 153.543529 
L 180.842708 140.776659 
L 181.12401 140.776659 
L 181.194013 140.067388 
L 181.74805 140.067388 
L 181.74805 139.712753 
L 182.286857 139.712753 
L 182.286857 125.881976 
L 182.615481 125.881976 
L 182.615481 125.527341 
L 183.933056 125.527341 
L 183.933056 125.172706 
L 184.472315 125.172706 
L 184.472315 124.818071 
L 186.929415 124.818071 
L 186.929415 124.463435 
L 187.166036 124.463435 
L 187.209654 109.923388 
L 188.467897 109.923388 
L 188.467897 98.220424 
L 188.720978 98.220424 
L 188.720978 84.389647 
L 189.004675 84.389647 
L 189.004675 84.035012 
L 189.518516 84.035012 
L 189.518516 69.8496 
L 189.812213 69.8496 
L 189.812213 69.494965 
L 190.990238 69.494965 
L 191.00433 68.785694 
L 193.85937 68.785694 
L 193.85937 68.431059 
L 194.289462 68.431059 
L 194.328853 40.769506 
L 195.883075 40.769506 
L 195.883075 27.648 
L 360.8064 27.648 
L 360.8064 27.648 
" style="fill: none; stroke: #bf00bf; stroke-width: 1.5; stroke-linecap: square"/>
   </g>
   <g id="line2d_51">
    <defs>
     <path id="m6ca5c72e41" d="M 0 8.485281 
L 8.485281 0 
L 0 -8.485281 
L -8.485281 0 
z
" style="stroke: #bf00bf; stroke-width: 1.5; stroke-linejoin: miter"/>
    </defs>
    <g>
     <use xlink:href="#m6ca5c72e41" x="187.209654" y="109.923388" style="fill-opacity: 0; stroke: #bf00bf; stroke-width: 1.5; stroke-linejoin: miter"/>
     <use xlink:href="#m6ca5c72e41" x="195.883075" y="40.769506" style="fill-opacity: 0; stroke: #bf00bf; stroke-width: 1.5; stroke-linejoin: miter"/>
     <use xlink:href="#m6ca5c72e41" x="195.883075" y="27.648" style="fill-opacity: 0; stroke: #bf00bf; stroke-width: 1.5; stroke-linejoin: miter"/>
     <use xlink:href="#m6ca5c72e41" x="195.883075" y="27.648" style="fill-opacity: 0; stroke: #bf00bf; stroke-width: 1.5; stroke-linejoin: miter"/>
     <use xlink:href="#m6ca5c72e41" x="360.8064" y="27.648" style="fill-opacity: 0; stroke: #bf00bf; stroke-width: 1.5; stroke-linejoin: miter"/>
    </g>
   </g>
   <g id="line2d_52">
    <path style="fill: none; stroke: #bf00bf; stroke-width: 1.5; stroke-linecap: square"/>
    <g/>
   </g>
   <g id="line2d_53">
    <path d="M 360.8064 27.648 
L 380.514816 293.51808 
" style="fill: none; stroke: #00bfbf; stroke-width: 1.5; stroke-linecap: square"/>
    <g>
     <use xlink:href="#mb3e2a041c6" x="360.8064" y="27.648" style="fill-opacity: 0; stroke: #00bfbf; stroke-width: 1.5"/>
     <use xlink:href="#mb3e2a041c6" x="380.514816" y="293.51808" style="fill-opacity: 0; stroke: #00bfbf; stroke-width: 1.5"/>
    </g>
   </g>
   <g id="line2d_54">
    <path d="M 360.8064 27.648 
L 380.514816 241.429248 
" style="fill: none; stroke: #008000; stroke-width: 1.5; stroke-linecap: square"/>
    <g>
     <use xlink:href="#mb1d3607e1d" x="360.8064" y="27.648" style="fill-opacity: 0; stroke: #008000; stroke-width: 1.5; stroke-linejoin: miter"/>
     <use xlink:href="#mb1d3607e1d" x="380.514816" y="241.429248" style="fill-opacity: 0; stroke: #008000; stroke-width: 1.5; stroke-linejoin: miter"/>
    </g>
   </g>
   <g id="line2d_55">
    <path d="M 360.8064 27.648 
L 380.514816 189.340416 
" style="fill: none; stroke: #0000ff; stroke-width: 1.5; stroke-linecap: square"/>
    <g>
     <use xlink:href="#mcb755931b0" x="360.8064" y="27.648" style="fill-opacity: 0; stroke: #0000ff; stroke-width: 1.5; stroke-linejoin: bevel"/>
     <use xlink:href="#mcb755931b0" x="380.514816" y="189.340416" style="fill-opacity: 0; stroke: #0000ff; stroke-width: 1.5; stroke-linejoin: bevel"/>
    </g>
   </g>
   <g id="line2d_56">
    <path d="M 360.8064 27.648 
L 380.514816 137.251584 
" style="fill: none; stroke: #000000; stroke-width: 1.5; stroke-linecap: square"/>
    <g>
     <use xlink:href="#mcb23f89731" x="360.8064" y="27.648" style="fill-opacity: 0; stroke: #000000; stroke-width: 1.5"/>
     <use xlink:href="#mcb23f89731" x="380.514816" y="137.251584" style="fill-opacity: 0; stroke: #000000; stroke-width: 1.5"/>
    </g>
   </g>
   <g id="line2d_57">
    <path d="M 360.8064 27.648 
L 380.514816 85.162752 
" style="fill: none; stroke: #ff0000; stroke-width: 1.5; stroke-linecap: square"/>
    <g>
     <use xlink:href="#mabc5b9242d" x="360.8064" y="27.648" style="fill-opacity: 0; stroke: #ff0000; stroke-width: 1.5; stroke-linejoin: miter"/>
     <use xlink:href="#mabc5b9242d" x="380.514816" y="85.162752" style="fill-opacity: 0; stroke: #ff0000; stroke-width: 1.5; stroke-linejoin: miter"/>
    </g>
   </g>
   <g id="line2d_58">
    <path d="M 360.8064 27.648 
L 380.514816 33.07392 
" style="fill: none; stroke: #bf00bf; stroke-width: 1.5; stroke-linecap: square"/>
    <g>
     <use xlink:href="#m6ca5c72e41" x="360.8064" y="27.648" style="fill-opacity: 0; stroke: #bf00bf; stroke-width: 1.5; stroke-linejoin: miter"/>
     <use xlink:href="#m6ca5c72e41" x="380.514816" y="33.07392" style="fill-opacity: 0; stroke: #bf00bf; stroke-width: 1.5; stroke-linejoin: miter"/>
    </g>
   </g>
   <g id="line2d_59">
    <path d="M 360.8064 298.944 
L 360.8064 27.648 
" style="fill: none; stroke: #000000; stroke-width: 1.5; stroke-linecap: square"/>
   </g>
   <g id="patch_3">
    <path d="M 57.6 298.944 
L 360.8064 298.944 
" style="fill: none; stroke: #000000; stroke-width: 0.8; stroke-linejoin: miter; stroke-linecap: square"/>
   </g>
   <g id="patch_4">
    <path d="M 57.6 27.648 
L 360.8064 27.648 
" style="fill: none; stroke: #000000; stroke-width: 0.8; stroke-linejoin: miter; stroke-linecap: square"/>
   </g>
   <g id="text_13">
    <!-- 2-D -->
    <g transform="translate(386.578944 297.381205)scale(0.14 -0.14)">
     <defs>
      <path id="DejaVuSans-44" d="M 1259 4147 
L 1259 519 
L 2022 519 
Q 2988 519 3436 956 
Q 3884 1394 3884 2338 
Q 3884 3275 3436 3711 
Q 2988 4147 2022 4147 
L 1259 4147 
z
M 628 4666 
L 1925 4666 
Q 3281 4666 3915 4102 
Q 4550 3538 4550 2338 
Q 4550 1131 3912 565 
Q 3275 0 1925 0 
L 628 0 
L 628 4666 
z
" transform="scale(0.015625)"/>
     </defs>
     <use xlink:href="#DejaVuSans-32"/>
     <use xlink:href="#DejaVuSans-2d" x="63.623047"/>
     <use xlink:href="#DejaVuSans-44" x="99.707031"/>
    </g>
   </g>
   <g id="text_14">
    <!-- 3-D -->
    <g transform="translate(386.578944 245.292373)scale(0.14 -0.14)">
     <defs>
      <path id="DejaVuSans-33" d="M 2597 2516 
Q 3050 2419 3304 2112 
Q 3559 1806 3559 1356 
Q 3559 666 3084 287 
Q 2609 -91 1734 -91 
Q 1441 -91 1130 -33 
Q 819 25 488 141 
L 488 750 
Q 750 597 1062 519 
Q 1375 441 1716 441 
Q 2309 441 2620 675 
Q 2931 909 2931 1356 
Q 2931 1769 2642 2001 
Q 2353 2234 1838 2234 
L 1294 2234 
L 1294 2753 
L 1863 2753 
Q 2328 2753 2575 2939 
Q 2822 3125 2822 3475 
Q 2822 3834 2567 4026 
Q 2313 4219 1838 4219 
Q 1578 4219 1281 4162 
Q 984 4106 628 3988 
L 628 4550 
Q 988 4650 1302 4700 
Q 1616 4750 1894 4750 
Q 2613 4750 3031 4423 
Q 3450 4097 3450 3541 
Q 3450 3153 3228 2886 
Q 3006 2619 2597 2516 
z
" transform="scale(0.015625)"/>
     </defs>
     <use xlink:href="#DejaVuSans-33"/>
     <use xlink:href="#DejaVuSans-2d" x="63.623047"/>
     <use xlink:href="#DejaVuSans-44" x="99.707031"/>
    </g>
   </g>
   <g id="text_15">
    <!-- 5-D -->
    <g transform="translate(386.578944 193.203541)scale(0.14 -0.14)">
     <defs>
      <path id="DejaVuSans-35" d="M 691 4666 
L 3169 4666 
L 3169 4134 
L 1269 4134 
L 1269 2991 
Q 1406 3038 1543 3061 
Q 1681 3084 1819 3084 
Q 2600 3084 3056 2656 
Q 3513 2228 3513 1497 
Q 3513 744 3044 326 
Q 2575 -91 1722 -91 
Q 1428 -91 1123 -41 
Q 819 9 494 109 
L 494 744 
Q 775 591 1075 516 
Q 1375 441 1709 441 
Q 2250 441 2565 725 
Q 2881 1009 2881 1497 
Q 2881 1984 2565 2268 
Q 2250 2553 1709 2553 
Q 1456 2553 1204 2497 
Q 953 2441 691 2322 
L 691 4666 
z
" transform="scale(0.015625)"/>
     </defs>
     <use xlink:href="#DejaVuSans-35"/>
     <use xlink:href="#DejaVuSans-2d" x="63.623047"/>
     <use xlink:href="#DejaVuSans-44" x="99.707031"/>
    </g>
   </g>
   <g id="text_16">
    <!-- 10-D -->
    <g transform="translate(386.578944 141.114709)scale(0.14 -0.14)">
     <use xlink:href="#DejaVuSans-31"/>
     <use xlink:href="#DejaVuSans-30" x="63.623047"/>
     <use xlink:href="#DejaVuSans-2d" x="127.246094"/>
     <use xlink:href="#DejaVuSans-44" x="163.330078"/>
    </g>
   </g>
   <g id="text_17">
    <!-- 20-D -->
    <g transform="translate(386.578944 89.025877)scale(0.14 -0.14)">
     <use xlink:href="#DejaVuSans-32"/>
     <use xlink:href="#DejaVuSans-30" x="63.623047"/>
     <use xlink:href="#DejaVuSans-2d" x="127.246094"/>
     <use xlink:href="#DejaVuSans-44" x="163.330078"/>
    </g>
   </g>
   <g id="text_18">
    <!-- 40-D -->
    <g transform="translate(386.578944 36.937045)scale(0.14 -0.14)">
     <use xlink:href="#DejaVuSans-34"/>
     <use xlink:href="#DejaVuSans-30" x="63.623047"/>
     <use xlink:href="#DejaVuSans-2d" x="127.246094"/>
     <use xlink:href="#DejaVuSans-44" x="163.330078"/>
    </g>
   </g>
   <g id="text_19">
    <!-- bbob f5 -->
    <g transform="translate(60.632064 38.111366)scale(0.102 -0.102)">
     <defs>
      <path id="DejaVuSans-62" d="M 3116 1747 
Q 3116 2381 2855 2742 
Q 2594 3103 2138 3103 
Q 1681 3103 1420 2742 
Q 1159 2381 1159 1747 
Q 1159 1113 1420 752 
Q 1681 391 2138 391 
Q 2594 391 2855 752 
Q 3116 1113 3116 1747 
z
M 1159 2969 
Q 1341 3281 1617 3432 
Q 1894 3584 2278 3584 
Q 2916 3584 3314 3078 
Q 3713 2572 3713 1747 
Q 3713 922 3314 415 
Q 2916 -91 2278 -91 
Q 1894 -91 1617 61 
Q 1341 213 1159 525 
L 1159 0 
L 581 0 
L 581 4863 
L 1159 4863 
L 1159 2969 
z
" transform="scale(0.015625)"/>
     </defs>
     <use xlink:href="#DejaVuSans-62"/>
     <use xlink:href="#DejaVuSans-62" x="63.476562"/>
     <use xlink:href="#DejaVuSans-6f" x="126.953125"/>
     <use xlink:href="#DejaVuSans-62" x="188.134766"/>
     <use xlink:href="#DejaVuSans-20" x="251.611328"/>
     <use xlink:href="#DejaVuSans-66" x="283.398438"/>
     <use xlink:href="#DejaVuSans-35" x="318.603516"/>
    </g>
    <!-- 51 targets: 100..1e-08 -->
    <g transform="translate(60.632064 49.533135)scale(0.102 -0.102)">
     <defs>
      <path id="DejaVuSans-3a" d="M 750 794 
L 1409 794 
L 1409 0 
L 750 0 
L 750 794 
z
M 750 3309 
L 1409 3309 
L 1409 2516 
L 750 2516 
L 750 3309 
z
" transform="scale(0.015625)"/>
     </defs>
     <use xlink:href="#DejaVuSans-35"/>
     <use xlink:href="#DejaVuSans-31" x="63.623047"/>
     <use xlink:href="#DejaVuSans-20" x="127.246094"/>
     <use xlink:href="#DejaVuSans-74" x="159.033203"/>
     <use xlink:href="#DejaVuSans-61" x="198.242188"/>
     <use xlink:href="#DejaVuSans-72" x="259.521484"/>
     <use xlink:href="#DejaVuSans-67" x="298.884766"/>
     <use xlink:href="#DejaVuSans-65" x="362.361328"/>
     <use xlink:href="#DejaVuSans-74" x="423.884766"/>
     <use xlink:href="#DejaVuSans-73" x="463.09375"/>
     <use xlink:href="#DejaVuSans-3a" x="515.193359"/>
     <use xlink:href="#DejaVuSans-20" x="548.884766"/>
     <use xlink:href="#DejaVuSans-31" x="580.671875"/>
     <use xlink:href="#DejaVuSans-30" x="644.294922"/>
     <use xlink:href="#DejaVuSans-30" x="707.917969"/>
     <use xlink:href="#DejaVuSans-2e" x="771.541016"/>
     <use xlink:href="#DejaVuSans-2e" x="803.328125"/>
     <use xlink:href="#DejaVuSans-31" x="835.115234"/>
     <use xlink:href="#DejaVuSans-65" x="898.738281"/>
     <use xlink:href="#DejaVuSans-2d" x="960.261719"/>
     <use xlink:href="#DejaVuSans-30" x="996.345703"/>
     <use xlink:href="#DejaVuSans-38" x="1059.96875"/>
    </g>
    <!-- 15 instances -->
    <g transform="translate(60.632064 60.954904)scale(0.102 -0.102)">
     <use xlink:href="#DejaVuSans-31"/>
     <use xlink:href="#DejaVuSans-35" x="63.623047"/>
     <use xlink:href="#DejaVuSans-20" x="127.246094"/>
     <use xlink:href="#DejaVuSans-69" x="159.033203"/>
     <use xlink:href="#DejaVuSans-6e" x="186.816406"/>
     <use xlink:href="#DejaVuSans-73" x="250.195312"/>
     <use xlink:href="#DejaVuSans-74" x="302.294922"/>
     <use xlink:href="#DejaVuSans-61" x="341.503906"/>
     <use xlink:href="#DejaVuSans-6e" x="402.783203"/>
     <use xlink:href="#DejaVuSans-63" x="466.162109"/>
     <use xlink:href="#DejaVuSans-65" x="521.142578"/>
     <use xlink:href="#DejaVuSans-73" x="582.666016"/>
    </g>
   </g>
   <g id="text_20">
    <!-- v2.6 -->
    <g style="fill: #808080" transform="translate(198.292262 294.151352)scale(0.1 -0.1)">
     <use xlink:href="#DejaVuSans-76"/>
     <use xlink:href="#DejaVuSans-32" x="59.179688"/>
     <use xlink:href="#DejaVuSans-2e" x="122.802734"/>
     <use xlink:href="#DejaVuSans-36" x="154.589844"/>
    </g>
   </g>
   <g id="text_21">
    <!-- 5 Linear slope -->
    <g transform="translate(138.79695 21.648)scale(0.2 -0.2)">
     <defs>
      <path id="DejaVuSans-4c" d="M 628 4666 
L 1259 4666 
L 1259 531 
L 3531 531 
L 3531 0 
L 628 0 
L 628 4666 
z
" transform="scale(0.015625)"/>
     </defs>
     <use xlink:href="#DejaVuSans-35"/>
     <use xlink:href="#DejaVuSans-20" x="63.623047"/>
     <use xlink:href="#DejaVuSans-4c" x="95.410156"/>
     <use xlink:href="#DejaVuSans-69" x="151.123047"/>
     <use xlink:href="#DejaVuSans-6e" x="178.90625"/>
     <use xlink:href="#DejaVuSans-65" x="242.285156"/>
     <use xlink:href="#DejaVuSans-61" x="303.808594"/>
     <use xlink:href="#DejaVuSans-72" x="365.087891"/>
     <use xlink:href="#DejaVuSans-20" x="406.201172"/>
     <use xlink:href="#DejaVuSans-73" x="437.988281"/>
     <use xlink:href="#DejaVuSans-6c" x="490.087891"/>
     <use xlink:href="#DejaVuSans-6f" x="517.871094"/>
     <use xlink:href="#DejaVuSans-70" x="579.052734"/>
     <use xlink:href="#DejaVuSans-65" x="642.529297"/>
    </g>
   </g>
  </g>
 </g>
 <defs>
  <clipPath id="pe26654d122">
   <rect x="57.6" y="27.648" width="303.2064" height="271.296"/>
  </clipPath>
 </defs>
</svg>
