<?xml version="1.0" encoding="utf-8" standalone="no"?>
<!DOCTYPE svg PUBLIC "-//W3C//DTD SVG 1.1//EN"
  "http://www.w3.org/Graphics/SVG/1.1/DTD/svg11.dtd">
<svg xmlns:xlink="http://www.w3.org/1999/xlink" width="460.8pt" height="345.6pt" viewBox="0 0 460.8 345.6" xmlns="http://www.w3.org/2000/svg" version="1.1">
 <metadata>
  <rdf:RDF xmlns:dc="http://purl.org/dc/elements/1.1/" xmlns:cc="http://creativecommons.org/ns#" xmlns:rdf="http://www.w3.org/1999/02/22-rdf-syntax-ns#">
   <cc:Work>
    <dc:type rdf:resource="http://purl.org/dc/dcmitype/StillImage"/>
    <dc:date>2024-05-29T07:56:39.979764</dc:date>
    <dc:format>image/svg+xml</dc:format>
    <dc:creator>
     <cc:Agent>
      <dc:title>Matplotlib v3.5.1, https://matplotlib.org/</dc:title>
     </cc:Agent>
    </dc:creator>
   </cc:Work>
  </rdf:RDF>
 </metadata>
 <defs>
  <style type="text/css">*{stroke-linejoin: round; stroke-linecap: butt}</style>
 </defs>
 <g id="figure_1">
  <g id="patch_1">
   <path d="M 0 345.6 
L 460.8 345.6 
L 460.8 0 
L 0 0 
z
" style="fill: #ffffff"/>
  </g>
  <g id="axes_1">
   <g id="patch_2">
    <path d="M 57.6 298.944 
L 360.8064 298.944 
L 360.8064 27.648 
L 57.6 27.648 
z
" style="fill: #ffffff"/>
   </g>
   <g id="matplotlib.axis_1">
    <g id="xtick_1">
     <g id="line2d_1">
      <path d="M 57.6 298.944 
L 57.6 27.648 
" clip-path="url(#p48956a2695)" style="fill: none; stroke: #b0b0b0; stroke-width: 0.8; stroke-linecap: square"/>
     </g>
     <g id="line2d_2">
      <defs>
       <path id="me267be5073" d="M 0 0 
L 0 3.5 
" style="stroke: #000000; stroke-width: 0.8"/>
      </defs>
      <g>
       <use xlink:href="#me267be5073" x="57.6" y="298.944" style="stroke: #000000; stroke-width: 0.8"/>
      </g>
     </g>
     <g id="text_1">
      <!-- 0 -->
      <g transform="translate(52.191875 318.861344)scale(0.17 -0.17)">
       <defs>
        <path id="DejaVuSans-30" d="M 2034 4250 
Q 1547 4250 1301 3770 
Q 1056 3291 1056 2328 
Q 1056 1369 1301 889 
Q 1547 409 2034 409 
Q 2525 409 2770 889 
Q 3016 1369 3016 2328 
Q 3016 3291 2770 3770 
Q 2525 4250 2034 4250 
z
M 2034 4750 
Q 2819 4750 3233 4129 
Q 3647 3509 3647 2328 
Q 3647 1150 3233 529 
Q 2819 -91 2034 -91 
Q 1250 -91 836 529 
Q 422 1150 422 2328 
Q 422 3509 836 4129 
Q 1250 4750 2034 4750 
z
" transform="scale(0.015625)"/>
       </defs>
       <use xlink:href="#DejaVuSans-30"/>
      </g>
     </g>
    </g>
    <g id="xtick_2">
     <g id="line2d_3">
      <path d="M 144.2304 298.944 
L 144.2304 27.648 
" clip-path="url(#p48956a2695)" style="fill: none; stroke: #b0b0b0; stroke-width: 0.8; stroke-linecap: square"/>
     </g>
     <g id="line2d_4">
      <g>
       <use xlink:href="#me267be5073" x="144.2304" y="298.944" style="stroke: #000000; stroke-width: 0.8"/>
      </g>
     </g>
     <g id="text_2">
      <!-- 2 -->
      <g transform="translate(138.822275 318.861344)scale(0.17 -0.17)">
       <defs>
        <path id="DejaVuSans-32" d="M 1228 531 
L 3431 531 
L 3431 0 
L 469 0 
L 469 531 
Q 828 903 1448 1529 
Q 2069 2156 2228 2338 
Q 2531 2678 2651 2914 
Q 2772 3150 2772 3378 
Q 2772 3750 2511 3984 
Q 2250 4219 1831 4219 
Q 1534 4219 1204 4116 
Q 875 4013 500 3803 
L 500 4441 
Q 881 4594 1212 4672 
Q 1544 4750 1819 4750 
Q 2544 4750 2975 4387 
Q 3406 4025 3406 3419 
Q 3406 3131 3298 2873 
Q 3191 2616 2906 2266 
Q 2828 2175 2409 1742 
Q 1991 1309 1228 531 
z
" transform="scale(0.015625)"/>
       </defs>
       <use xlink:href="#DejaVuSans-32"/>
      </g>
     </g>
    </g>
    <g id="xtick_3">
     <g id="line2d_5">
      <path d="M 230.8608 298.944 
L 230.8608 27.648 
" clip-path="url(#p48956a2695)" style="fill: none; stroke: #b0b0b0; stroke-width: 0.8; stroke-linecap: square"/>
     </g>
     <g id="line2d_6">
      <g>
       <use xlink:href="#me267be5073" x="230.8608" y="298.944" style="stroke: #000000; stroke-width: 0.8"/>
      </g>
     </g>
     <g id="text_3">
      <!-- 4 -->
      <g transform="translate(225.452675 318.861344)scale(0.17 -0.17)">
       <defs>
        <path id="DejaVuSans-34" d="M 2419 4116 
L 825 1625 
L 2419 1625 
L 2419 4116 
z
M 2253 4666 
L 3047 4666 
L 3047 1625 
L 3713 1625 
L 3713 1100 
L 3047 1100 
L 3047 0 
L 2419 0 
L 2419 1100 
L 313 1100 
L 313 1709 
L 2253 4666 
z
" transform="scale(0.015625)"/>
       </defs>
       <use xlink:href="#DejaVuSans-34"/>
      </g>
     </g>
    </g>
    <g id="xtick_4">
     <g id="line2d_7">
      <path d="M 317.4912 298.944 
L 317.4912 27.648 
" clip-path="url(#p48956a2695)" style="fill: none; stroke: #b0b0b0; stroke-width: 0.8; stroke-linecap: square"/>
     </g>
     <g id="line2d_8">
      <g>
       <use xlink:href="#me267be5073" x="317.4912" y="298.944" style="stroke: #000000; stroke-width: 0.8"/>
      </g>
     </g>
     <g id="text_4">
      <!-- 6 -->
      <g transform="translate(312.083075 318.861344)scale(0.17 -0.17)">
       <defs>
        <path id="DejaVuSans-36" d="M 2113 2584 
Q 1688 2584 1439 2293 
Q 1191 2003 1191 1497 
Q 1191 994 1439 701 
Q 1688 409 2113 409 
Q 2538 409 2786 701 
Q 3034 994 3034 1497 
Q 3034 2003 2786 2293 
Q 2538 2584 2113 2584 
z
M 3366 4563 
L 3366 3988 
Q 3128 4100 2886 4159 
Q 2644 4219 2406 4219 
Q 1781 4219 1451 3797 
Q 1122 3375 1075 2522 
Q 1259 2794 1537 2939 
Q 1816 3084 2150 3084 
Q 2853 3084 3261 2657 
Q 3669 2231 3669 1497 
Q 3669 778 3244 343 
Q 2819 -91 2113 -91 
Q 1303 -91 875 529 
Q 447 1150 447 2328 
Q 447 3434 972 4092 
Q 1497 4750 2381 4750 
Q 2619 4750 2861 4703 
Q 3103 4656 3366 4563 
z
" transform="scale(0.015625)"/>
       </defs>
       <use xlink:href="#DejaVuSans-36"/>
      </g>
     </g>
    </g>
    <g id="xtick_5">
     <g id="line2d_9">
      <path d="M 100.9152 298.944 
L 100.9152 27.648 
" clip-path="url(#p48956a2695)" style="fill: none; stroke: #b0b0b0; stroke-width: 0.8; stroke-linecap: square"/>
     </g>
     <g id="line2d_10">
      <defs>
       <path id="mf1fceb952a" d="M 0 0 
L 0 2 
" style="stroke: #000000; stroke-width: 0.6"/>
      </defs>
      <g>
       <use xlink:href="#mf1fceb952a" x="100.9152" y="298.944" style="stroke: #000000; stroke-width: 0.6"/>
      </g>
     </g>
    </g>
    <g id="xtick_6">
     <g id="line2d_11">
      <path d="M 187.5456 298.944 
L 187.5456 27.648 
" clip-path="url(#p48956a2695)" style="fill: none; stroke: #b0b0b0; stroke-width: 0.8; stroke-linecap: square"/>
     </g>
     <g id="line2d_12">
      <g>
       <use xlink:href="#mf1fceb952a" x="187.5456" y="298.944" style="stroke: #000000; stroke-width: 0.6"/>
      </g>
     </g>
    </g>
    <g id="xtick_7">
     <g id="line2d_13">
      <path d="M 274.176 298.944 
L 274.176 27.648 
" clip-path="url(#p48956a2695)" style="fill: none; stroke: #b0b0b0; stroke-width: 0.8; stroke-linecap: square"/>
     </g>
     <g id="line2d_14">
      <g>
       <use xlink:href="#mf1fceb952a" x="274.176" y="298.944" style="stroke: #000000; stroke-width: 0.6"/>
      </g>
     </g>
    </g>
    <g id="xtick_8">
     <g id="line2d_15">
      <path d="M 360.8064 298.944 
L 360.8064 27.648 
" clip-path="url(#p48956a2695)" style="fill: none; stroke: #b0b0b0; stroke-width: 0.8; stroke-linecap: square"/>
     </g>
     <g id="line2d_16">
      <g>
       <use xlink:href="#mf1fceb952a" x="360.8064" y="298.944" style="stroke: #000000; stroke-width: 0.6"/>
      </g>
     </g>
    </g>
    <g id="text_5">
     <!-- log10(# f-evals / dimension) -->
     <g transform="translate(88.823278 339.314156)scale(0.17 -0.17)">
      <defs>
       <path id="DejaVuSans-6c" d="M 603 4863 
L 1178 4863 
L 1178 0 
L 603 0 
L 603 4863 
z
" transform="scale(0.015625)"/>
       <path id="DejaVuSans-6f" d="M 1959 3097 
Q 1497 3097 1228 2736 
Q 959 2375 959 1747 
Q 959 1119 1226 758 
Q 1494 397 1959 397 
Q 2419 397 2687 759 
Q 2956 1122 2956 1747 
Q 2956 2369 2687 2733 
Q 2419 3097 1959 3097 
z
M 1959 3584 
Q 2709 3584 3137 3096 
Q 3566 2609 3566 1747 
Q 3566 888 3137 398 
Q 2709 -91 1959 -91 
Q 1206 -91 779 398 
Q 353 888 353 1747 
Q 353 2609 779 3096 
Q 1206 3584 1959 3584 
z
" transform="scale(0.015625)"/>
       <path id="DejaVuSans-67" d="M 2906 1791 
Q 2906 2416 2648 2759 
Q 2391 3103 1925 3103 
Q 1463 3103 1205 2759 
Q 947 2416 947 1791 
Q 947 1169 1205 825 
Q 1463 481 1925 481 
Q 2391 481 2648 825 
Q 2906 1169 2906 1791 
z
M 3481 434 
Q 3481 -459 3084 -895 
Q 2688 -1331 1869 -1331 
Q 1566 -1331 1297 -1286 
Q 1028 -1241 775 -1147 
L 775 -588 
Q 1028 -725 1275 -790 
Q 1522 -856 1778 -856 
Q 2344 -856 2625 -561 
Q 2906 -266 2906 331 
L 2906 616 
Q 2728 306 2450 153 
Q 2172 0 1784 0 
Q 1141 0 747 490 
Q 353 981 353 1791 
Q 353 2603 747 3093 
Q 1141 3584 1784 3584 
Q 2172 3584 2450 3431 
Q 2728 3278 2906 2969 
L 2906 3500 
L 3481 3500 
L 3481 434 
z
" transform="scale(0.015625)"/>
       <path id="DejaVuSans-31" d="M 794 531 
L 1825 531 
L 1825 4091 
L 703 3866 
L 703 4441 
L 1819 4666 
L 2450 4666 
L 2450 531 
L 3481 531 
L 3481 0 
L 794 0 
L 794 531 
z
" transform="scale(0.015625)"/>
       <path id="DejaVuSans-28" d="M 1984 4856 
Q 1566 4138 1362 3434 
Q 1159 2731 1159 2009 
Q 1159 1288 1364 580 
Q 1569 -128 1984 -844 
L 1484 -844 
Q 1016 -109 783 600 
Q 550 1309 550 2009 
Q 550 2706 781 3412 
Q 1013 4119 1484 4856 
L 1984 4856 
z
" transform="scale(0.015625)"/>
       <path id="DejaVuSans-23" d="M 3272 2816 
L 2363 2816 
L 2100 1772 
L 3016 1772 
L 3272 2816 
z
M 2803 4594 
L 2478 3297 
L 3391 3297 
L 3719 4594 
L 4219 4594 
L 3897 3297 
L 4872 3297 
L 4872 2816 
L 3775 2816 
L 3519 1772 
L 4513 1772 
L 4513 1294 
L 3397 1294 
L 3072 0 
L 2572 0 
L 2894 1294 
L 1978 1294 
L 1656 0 
L 1153 0 
L 1478 1294 
L 494 1294 
L 494 1772 
L 1594 1772 
L 1856 2816 
L 850 2816 
L 850 3297 
L 1978 3297 
L 2297 4594 
L 2803 4594 
z
" transform="scale(0.015625)"/>
       <path id="DejaVuSans-20" transform="scale(0.015625)"/>
       <path id="DejaVuSans-66" d="M 2375 4863 
L 2375 4384 
L 1825 4384 
Q 1516 4384 1395 4259 
Q 1275 4134 1275 3809 
L 1275 3500 
L 2222 3500 
L 2222 3053 
L 1275 3053 
L 1275 0 
L 697 0 
L 697 3053 
L 147 3053 
L 147 3500 
L 697 3500 
L 697 3744 
Q 697 4328 969 4595 
Q 1241 4863 1831 4863 
L 2375 4863 
z
" transform="scale(0.015625)"/>
       <path id="DejaVuSans-2d" d="M 313 2009 
L 1997 2009 
L 1997 1497 
L 313 1497 
L 313 2009 
z
" transform="scale(0.015625)"/>
       <path id="DejaVuSans-65" d="M 3597 1894 
L 3597 1613 
L 953 1613 
Q 991 1019 1311 708 
Q 1631 397 2203 397 
Q 2534 397 2845 478 
Q 3156 559 3463 722 
L 3463 178 
Q 3153 47 2828 -22 
Q 2503 -91 2169 -91 
Q 1331 -91 842 396 
Q 353 884 353 1716 
Q 353 2575 817 3079 
Q 1281 3584 2069 3584 
Q 2775 3584 3186 3129 
Q 3597 2675 3597 1894 
z
M 3022 2063 
Q 3016 2534 2758 2815 
Q 2500 3097 2075 3097 
Q 1594 3097 1305 2825 
Q 1016 2553 972 2059 
L 3022 2063 
z
" transform="scale(0.015625)"/>
       <path id="DejaVuSans-76" d="M 191 3500 
L 800 3500 
L 1894 563 
L 2988 3500 
L 3597 3500 
L 2284 0 
L 1503 0 
L 191 3500 
z
" transform="scale(0.015625)"/>
       <path id="DejaVuSans-61" d="M 2194 1759 
Q 1497 1759 1228 1600 
Q 959 1441 959 1056 
Q 959 750 1161 570 
Q 1363 391 1709 391 
Q 2188 391 2477 730 
Q 2766 1069 2766 1631 
L 2766 1759 
L 2194 1759 
z
M 3341 1997 
L 3341 0 
L 2766 0 
L 2766 531 
Q 2569 213 2275 61 
Q 1981 -91 1556 -91 
Q 1019 -91 701 211 
Q 384 513 384 1019 
Q 384 1609 779 1909 
Q 1175 2209 1959 2209 
L 2766 2209 
L 2766 2266 
Q 2766 2663 2505 2880 
Q 2244 3097 1772 3097 
Q 1472 3097 1187 3025 
Q 903 2953 641 2809 
L 641 3341 
Q 956 3463 1253 3523 
Q 1550 3584 1831 3584 
Q 2591 3584 2966 3190 
Q 3341 2797 3341 1997 
z
" transform="scale(0.015625)"/>
       <path id="DejaVuSans-73" d="M 2834 3397 
L 2834 2853 
Q 2591 2978 2328 3040 
Q 2066 3103 1784 3103 
Q 1356 3103 1142 2972 
Q 928 2841 928 2578 
Q 928 2378 1081 2264 
Q 1234 2150 1697 2047 
L 1894 2003 
Q 2506 1872 2764 1633 
Q 3022 1394 3022 966 
Q 3022 478 2636 193 
Q 2250 -91 1575 -91 
Q 1294 -91 989 -36 
Q 684 19 347 128 
L 347 722 
Q 666 556 975 473 
Q 1284 391 1588 391 
Q 1994 391 2212 530 
Q 2431 669 2431 922 
Q 2431 1156 2273 1281 
Q 2116 1406 1581 1522 
L 1381 1569 
Q 847 1681 609 1914 
Q 372 2147 372 2553 
Q 372 3047 722 3315 
Q 1072 3584 1716 3584 
Q 2034 3584 2315 3537 
Q 2597 3491 2834 3397 
z
" transform="scale(0.015625)"/>
       <path id="DejaVuSans-2f" d="M 1625 4666 
L 2156 4666 
L 531 -594 
L 0 -594 
L 1625 4666 
z
" transform="scale(0.015625)"/>
       <path id="DejaVuSans-64" d="M 2906 2969 
L 2906 4863 
L 3481 4863 
L 3481 0 
L 2906 0 
L 2906 525 
Q 2725 213 2448 61 
Q 2172 -91 1784 -91 
Q 1150 -91 751 415 
Q 353 922 353 1747 
Q 353 2572 751 3078 
Q 1150 3584 1784 3584 
Q 2172 3584 2448 3432 
Q 2725 3281 2906 2969 
z
M 947 1747 
Q 947 1113 1208 752 
Q 1469 391 1925 391 
Q 2381 391 2643 752 
Q 2906 1113 2906 1747 
Q 2906 2381 2643 2742 
Q 2381 3103 1925 3103 
Q 1469 3103 1208 2742 
Q 947 2381 947 1747 
z
" transform="scale(0.015625)"/>
       <path id="DejaVuSans-69" d="M 603 3500 
L 1178 3500 
L 1178 0 
L 603 0 
L 603 3500 
z
M 603 4863 
L 1178 4863 
L 1178 4134 
L 603 4134 
L 603 4863 
z
" transform="scale(0.015625)"/>
       <path id="DejaVuSans-6d" d="M 3328 2828 
Q 3544 3216 3844 3400 
Q 4144 3584 4550 3584 
Q 5097 3584 5394 3201 
Q 5691 2819 5691 2113 
L 5691 0 
L 5113 0 
L 5113 2094 
Q 5113 2597 4934 2840 
Q 4756 3084 4391 3084 
Q 3944 3084 3684 2787 
Q 3425 2491 3425 1978 
L 3425 0 
L 2847 0 
L 2847 2094 
Q 2847 2600 2669 2842 
Q 2491 3084 2119 3084 
Q 1678 3084 1418 2786 
Q 1159 2488 1159 1978 
L 1159 0 
L 581 0 
L 581 3500 
L 1159 3500 
L 1159 2956 
Q 1356 3278 1631 3431 
Q 1906 3584 2284 3584 
Q 2666 3584 2933 3390 
Q 3200 3197 3328 2828 
z
" transform="scale(0.015625)"/>
       <path id="DejaVuSans-6e" d="M 3513 2113 
L 3513 0 
L 2938 0 
L 2938 2094 
Q 2938 2591 2744 2837 
Q 2550 3084 2163 3084 
Q 1697 3084 1428 2787 
Q 1159 2491 1159 1978 
L 1159 0 
L 581 0 
L 581 3500 
L 1159 3500 
L 1159 2956 
Q 1366 3272 1645 3428 
Q 1925 3584 2291 3584 
Q 2894 3584 3203 3211 
Q 3513 2838 3513 2113 
z
" transform="scale(0.015625)"/>
       <path id="DejaVuSans-29" d="M 513 4856 
L 1013 4856 
Q 1481 4119 1714 3412 
Q 1947 2706 1947 2009 
Q 1947 1309 1714 600 
Q 1481 -109 1013 -844 
L 513 -844 
Q 928 -128 1133 580 
Q 1338 1288 1338 2009 
Q 1338 2731 1133 3434 
Q 928 4138 513 4856 
z
" transform="scale(0.015625)"/>
      </defs>
      <use xlink:href="#DejaVuSans-6c"/>
      <use xlink:href="#DejaVuSans-6f" x="27.783203"/>
      <use xlink:href="#DejaVuSans-67" x="88.964844"/>
      <use xlink:href="#DejaVuSans-31" x="152.441406"/>
      <use xlink:href="#DejaVuSans-30" x="216.064453"/>
      <use xlink:href="#DejaVuSans-28" x="279.6875"/>
      <use xlink:href="#DejaVuSans-23" x="318.701172"/>
      <use xlink:href="#DejaVuSans-20" x="402.490234"/>
      <use xlink:href="#DejaVuSans-66" x="434.277344"/>
      <use xlink:href="#DejaVuSans-2d" x="463.982422"/>
      <use xlink:href="#DejaVuSans-65" x="500.066406"/>
      <use xlink:href="#DejaVuSans-76" x="561.589844"/>
      <use xlink:href="#DejaVuSans-61" x="620.769531"/>
      <use xlink:href="#DejaVuSans-6c" x="682.048828"/>
      <use xlink:href="#DejaVuSans-73" x="709.832031"/>
      <use xlink:href="#DejaVuSans-20" x="761.931641"/>
      <use xlink:href="#DejaVuSans-2f" x="793.71875"/>
      <use xlink:href="#DejaVuSans-20" x="827.410156"/>
      <use xlink:href="#DejaVuSans-64" x="859.197266"/>
      <use xlink:href="#DejaVuSans-69" x="922.673828"/>
      <use xlink:href="#DejaVuSans-6d" x="950.457031"/>
      <use xlink:href="#DejaVuSans-65" x="1047.869141"/>
      <use xlink:href="#DejaVuSans-6e" x="1109.392578"/>
      <use xlink:href="#DejaVuSans-73" x="1172.771484"/>
      <use xlink:href="#DejaVuSans-69" x="1224.871094"/>
      <use xlink:href="#DejaVuSans-6f" x="1252.654297"/>
      <use xlink:href="#DejaVuSans-6e" x="1313.835938"/>
      <use xlink:href="#DejaVuSans-29" x="1377.214844"/>
     </g>
    </g>
   </g>
   <g id="matplotlib.axis_2">
    <g id="ytick_1">
     <g id="line2d_17">
      <path d="M 57.6 298.944 
L 360.8064 298.944 
" clip-path="url(#p48956a2695)" style="fill: none; stroke: #b0b0b0; stroke-width: 0.8; stroke-linecap: square"/>
     </g>
     <g id="line2d_18">
      <defs>
       <path id="m7fdfcaf1da" d="M 0 0 
L -3.5 0 
" style="stroke: #000000; stroke-width: 0.8"/>
      </defs>
      <g>
       <use xlink:href="#m7fdfcaf1da" x="57.6" y="298.944" style="stroke: #000000; stroke-width: 0.8"/>
      </g>
     </g>
     <g id="text_6">
      <!-- 0.0 -->
      <g transform="translate(25.155 305.02275)scale(0.16 -0.16)">
       <defs>
        <path id="DejaVuSans-2e" d="M 684 794 
L 1344 794 
L 1344 0 
L 684 0 
L 684 794 
z
" transform="scale(0.015625)"/>
       </defs>
       <use xlink:href="#DejaVuSans-30"/>
       <use xlink:href="#DejaVuSans-2e" x="63.623047"/>
       <use xlink:href="#DejaVuSans-30" x="95.410156"/>
      </g>
     </g>
    </g>
    <g id="ytick_2">
     <g id="line2d_19">
      <path d="M 57.6 244.6848 
L 360.8064 244.6848 
" clip-path="url(#p48956a2695)" style="fill: none; stroke: #b0b0b0; stroke-width: 0.8; stroke-linecap: square"/>
     </g>
     <g id="line2d_20">
      <g>
       <use xlink:href="#m7fdfcaf1da" x="57.6" y="244.6848" style="stroke: #000000; stroke-width: 0.8"/>
      </g>
     </g>
     <g id="text_7">
      <!-- 0.2 -->
      <g transform="translate(25.155 250.76355)scale(0.16 -0.16)">
       <use xlink:href="#DejaVuSans-30"/>
       <use xlink:href="#DejaVuSans-2e" x="63.623047"/>
       <use xlink:href="#DejaVuSans-32" x="95.410156"/>
      </g>
     </g>
    </g>
    <g id="ytick_3">
     <g id="line2d_21">
      <path d="M 57.6 190.4256 
L 360.8064 190.4256 
" clip-path="url(#p48956a2695)" style="fill: none; stroke: #b0b0b0; stroke-width: 0.8; stroke-linecap: square"/>
     </g>
     <g id="line2d_22">
      <g>
       <use xlink:href="#m7fdfcaf1da" x="57.6" y="190.4256" style="stroke: #000000; stroke-width: 0.8"/>
      </g>
     </g>
     <g id="text_8">
      <!-- 0.4 -->
      <g transform="translate(25.155 196.50435)scale(0.16 -0.16)">
       <use xlink:href="#DejaVuSans-30"/>
       <use xlink:href="#DejaVuSans-2e" x="63.623047"/>
       <use xlink:href="#DejaVuSans-34" x="95.410156"/>
      </g>
     </g>
    </g>
    <g id="ytick_4">
     <g id="line2d_23">
      <path d="M 57.6 136.1664 
L 360.8064 136.1664 
" clip-path="url(#p48956a2695)" style="fill: none; stroke: #b0b0b0; stroke-width: 0.8; stroke-linecap: square"/>
     </g>
     <g id="line2d_24">
      <g>
       <use xlink:href="#m7fdfcaf1da" x="57.6" y="136.1664" style="stroke: #000000; stroke-width: 0.8"/>
      </g>
     </g>
     <g id="text_9">
      <!-- 0.6 -->
      <g transform="translate(25.155 142.24515)scale(0.16 -0.16)">
       <use xlink:href="#DejaVuSans-30"/>
       <use xlink:href="#DejaVuSans-2e" x="63.623047"/>
       <use xlink:href="#DejaVuSans-36" x="95.410156"/>
      </g>
     </g>
    </g>
    <g id="ytick_5">
     <g id="line2d_25">
      <path d="M 57.6 81.9072 
L 360.8064 81.9072 
" clip-path="url(#p48956a2695)" style="fill: none; stroke: #b0b0b0; stroke-width: 0.8; stroke-linecap: square"/>
     </g>
     <g id="line2d_26">
      <g>
       <use xlink:href="#m7fdfcaf1da" x="57.6" y="81.9072" style="stroke: #000000; stroke-width: 0.8"/>
      </g>
     </g>
     <g id="text_10">
      <!-- 0.8 -->
      <g transform="translate(25.155 87.98595)scale(0.16 -0.16)">
       <defs>
        <path id="DejaVuSans-38" d="M 2034 2216 
Q 1584 2216 1326 1975 
Q 1069 1734 1069 1313 
Q 1069 891 1326 650 
Q 1584 409 2034 409 
Q 2484 409 2743 651 
Q 3003 894 3003 1313 
Q 3003 1734 2745 1975 
Q 2488 2216 2034 2216 
z
M 1403 2484 
Q 997 2584 770 2862 
Q 544 3141 544 3541 
Q 544 4100 942 4425 
Q 1341 4750 2034 4750 
Q 2731 4750 3128 4425 
Q 3525 4100 3525 3541 
Q 3525 3141 3298 2862 
Q 3072 2584 2669 2484 
Q 3125 2378 3379 2068 
Q 3634 1759 3634 1313 
Q 3634 634 3220 271 
Q 2806 -91 2034 -91 
Q 1263 -91 848 271 
Q 434 634 434 1313 
Q 434 1759 690 2068 
Q 947 2378 1403 2484 
z
M 1172 3481 
Q 1172 3119 1398 2916 
Q 1625 2713 2034 2713 
Q 2441 2713 2670 2916 
Q 2900 3119 2900 3481 
Q 2900 3844 2670 4047 
Q 2441 4250 2034 4250 
Q 1625 4250 1398 4047 
Q 1172 3844 1172 3481 
z
" transform="scale(0.015625)"/>
       </defs>
       <use xlink:href="#DejaVuSans-30"/>
       <use xlink:href="#DejaVuSans-2e" x="63.623047"/>
       <use xlink:href="#DejaVuSans-38" x="95.410156"/>
      </g>
     </g>
    </g>
    <g id="ytick_6">
     <g id="line2d_27">
      <path d="M 57.6 27.648 
L 360.8064 27.648 
" clip-path="url(#p48956a2695)" style="fill: none; stroke: #b0b0b0; stroke-width: 0.8; stroke-linecap: square"/>
     </g>
     <g id="line2d_28">
      <g>
       <use xlink:href="#m7fdfcaf1da" x="57.6" y="27.648" style="stroke: #000000; stroke-width: 0.8"/>
      </g>
     </g>
     <g id="text_11">
      <!-- 1.0 -->
      <g transform="translate(25.155 33.72675)scale(0.16 -0.16)">
       <use xlink:href="#DejaVuSans-31"/>
       <use xlink:href="#DejaVuSans-2e" x="63.623047"/>
       <use xlink:href="#DejaVuSans-30" x="95.410156"/>
      </g>
     </g>
    </g>
    <g id="text_12">
     <!-- Fraction of function,target pairs -->
     <g transform="translate(17.619531 297.681)rotate(-90)scale(0.17 -0.17)">
      <defs>
       <path id="DejaVuSans-46" d="M 628 4666 
L 3309 4666 
L 3309 4134 
L 1259 4134 
L 1259 2759 
L 3109 2759 
L 3109 2228 
L 1259 2228 
L 1259 0 
L 628 0 
L 628 4666 
z
" transform="scale(0.015625)"/>
       <path id="DejaVuSans-72" d="M 2631 2963 
Q 2534 3019 2420 3045 
Q 2306 3072 2169 3072 
Q 1681 3072 1420 2755 
Q 1159 2438 1159 1844 
L 1159 0 
L 581 0 
L 581 3500 
L 1159 3500 
L 1159 2956 
Q 1341 3275 1631 3429 
Q 1922 3584 2338 3584 
Q 2397 3584 2469 3576 
Q 2541 3569 2628 3553 
L 2631 2963 
z
" transform="scale(0.015625)"/>
       <path id="DejaVuSans-63" d="M 3122 3366 
L 3122 2828 
Q 2878 2963 2633 3030 
Q 2388 3097 2138 3097 
Q 1578 3097 1268 2742 
Q 959 2388 959 1747 
Q 959 1106 1268 751 
Q 1578 397 2138 397 
Q 2388 397 2633 464 
Q 2878 531 3122 666 
L 3122 134 
Q 2881 22 2623 -34 
Q 2366 -91 2075 -91 
Q 1284 -91 818 406 
Q 353 903 353 1747 
Q 353 2603 823 3093 
Q 1294 3584 2113 3584 
Q 2378 3584 2631 3529 
Q 2884 3475 3122 3366 
z
" transform="scale(0.015625)"/>
       <path id="DejaVuSans-74" d="M 1172 4494 
L 1172 3500 
L 2356 3500 
L 2356 3053 
L 1172 3053 
L 1172 1153 
Q 1172 725 1289 603 
Q 1406 481 1766 481 
L 2356 481 
L 2356 0 
L 1766 0 
Q 1100 0 847 248 
Q 594 497 594 1153 
L 594 3053 
L 172 3053 
L 172 3500 
L 594 3500 
L 594 4494 
L 1172 4494 
z
" transform="scale(0.015625)"/>
       <path id="DejaVuSans-75" d="M 544 1381 
L 544 3500 
L 1119 3500 
L 1119 1403 
Q 1119 906 1312 657 
Q 1506 409 1894 409 
Q 2359 409 2629 706 
Q 2900 1003 2900 1516 
L 2900 3500 
L 3475 3500 
L 3475 0 
L 2900 0 
L 2900 538 
Q 2691 219 2414 64 
Q 2138 -91 1772 -91 
Q 1169 -91 856 284 
Q 544 659 544 1381 
z
M 1991 3584 
L 1991 3584 
z
" transform="scale(0.015625)"/>
       <path id="DejaVuSans-2c" d="M 750 794 
L 1409 794 
L 1409 256 
L 897 -744 
L 494 -744 
L 750 256 
L 750 794 
z
" transform="scale(0.015625)"/>
       <path id="DejaVuSans-70" d="M 1159 525 
L 1159 -1331 
L 581 -1331 
L 581 3500 
L 1159 3500 
L 1159 2969 
Q 1341 3281 1617 3432 
Q 1894 3584 2278 3584 
Q 2916 3584 3314 3078 
Q 3713 2572 3713 1747 
Q 3713 922 3314 415 
Q 2916 -91 2278 -91 
Q 1894 -91 1617 61 
Q 1341 213 1159 525 
z
M 3116 1747 
Q 3116 2381 2855 2742 
Q 2594 3103 2138 3103 
Q 1681 3103 1420 2742 
Q 1159 2381 1159 1747 
Q 1159 1113 1420 752 
Q 1681 391 2138 391 
Q 2594 391 2855 752 
Q 3116 1113 3116 1747 
z
" transform="scale(0.015625)"/>
      </defs>
      <use xlink:href="#DejaVuSans-46"/>
      <use xlink:href="#DejaVuSans-72" x="50.269531"/>
      <use xlink:href="#DejaVuSans-61" x="91.382812"/>
      <use xlink:href="#DejaVuSans-63" x="152.662109"/>
      <use xlink:href="#DejaVuSans-74" x="207.642578"/>
      <use xlink:href="#DejaVuSans-69" x="246.851562"/>
      <use xlink:href="#DejaVuSans-6f" x="274.634766"/>
      <use xlink:href="#DejaVuSans-6e" x="335.816406"/>
      <use xlink:href="#DejaVuSans-20" x="399.195312"/>
      <use xlink:href="#DejaVuSans-6f" x="430.982422"/>
      <use xlink:href="#DejaVuSans-66" x="492.164062"/>
      <use xlink:href="#DejaVuSans-20" x="527.369141"/>
      <use xlink:href="#DejaVuSans-66" x="559.15625"/>
      <use xlink:href="#DejaVuSans-75" x="594.361328"/>
      <use xlink:href="#DejaVuSans-6e" x="657.740234"/>
      <use xlink:href="#DejaVuSans-63" x="721.119141"/>
      <use xlink:href="#DejaVuSans-74" x="776.099609"/>
      <use xlink:href="#DejaVuSans-69" x="815.308594"/>
      <use xlink:href="#DejaVuSans-6f" x="843.091797"/>
      <use xlink:href="#DejaVuSans-6e" x="904.273438"/>
      <use xlink:href="#DejaVuSans-2c" x="967.652344"/>
      <use xlink:href="#DejaVuSans-74" x="999.439453"/>
      <use xlink:href="#DejaVuSans-61" x="1038.648438"/>
      <use xlink:href="#DejaVuSans-72" x="1099.927734"/>
      <use xlink:href="#DejaVuSans-67" x="1139.291016"/>
      <use xlink:href="#DejaVuSans-65" x="1202.767578"/>
      <use xlink:href="#DejaVuSans-74" x="1264.291016"/>
      <use xlink:href="#DejaVuSans-20" x="1303.5"/>
      <use xlink:href="#DejaVuSans-70" x="1335.287109"/>
      <use xlink:href="#DejaVuSans-61" x="1398.763672"/>
      <use xlink:href="#DejaVuSans-69" x="1460.042969"/>
      <use xlink:href="#DejaVuSans-72" x="1487.826172"/>
      <use xlink:href="#DejaVuSans-73" x="1528.939453"/>
     </g>
    </g>
   </g>
   <g id="line2d_29">
    <defs>
     <path id="mfe77e43692" d="M 0 1.5 
C 0.397805 1.5 0.77937 1.341951 1.06066 1.06066 
C 1.341951 0.77937 1.5 0.397805 1.5 0 
C 1.5 -0.397805 1.341951 -0.77937 1.06066 -1.06066 
C 0.77937 -1.341951 0.397805 -1.5 0 -1.5 
C -0.397805 -1.5 -0.77937 -1.341951 -1.06066 -1.06066 
C -1.341951 -0.77937 -1.5 -0.397805 -1.5 0 
C -1.5 0.397805 -1.341951 0.77937 -1.06066 1.06066 
C -0.77937 1.341951 -0.397805 1.5 0 1.5 
z
" style="stroke: #00bfbf"/>
    </defs>
    <g>
     <use xlink:href="#mfe77e43692" x="304.468178" y="27.648" style="fill: #00bfbf; stroke: #00bfbf"/>
     <use xlink:href="#mfe77e43692" x="304.468178" y="27.648" style="fill: #00bfbf; stroke: #00bfbf"/>
    </g>
   </g>
   <g id="line2d_30">
    <path d="M 44.560826 298.944 
L 44.560826 290.787388 
L 57.6 290.787388 
L 57.6 289.723482 
L 70.639174 289.723482 
L 70.639174 285.467859 
L 74.836851 285.467859 
L 74.836851 283.694682 
L 78.266603 283.694682 
L 78.266603 281.921506 
L 81.166416 281.921506 
L 81.166416 280.148329 
L 83.678349 280.148329 
L 83.678349 279.084424 
L 85.894031 279.084424 
L 85.894031 277.311247 
L 95.503454 277.311247 
L 95.503454 276.601976 
L 100.9152 276.601976 
L 100.9152 274.8288 
L 102.708132 274.8288 
L 102.708132 274.474165 
L 107.244765 274.474165 
L 107.244765 273.410259 
L 109.756698 273.410259 
L 109.756698 273.055624 
L 113.478107 273.055624 
L 113.478107 272.700988 
L 113.954374 272.700988 
L 113.954374 272.346353 
L 114.872193 272.346353 
L 114.872193 271.991718 
L 115.747307 271.991718 
L 115.747307 271.637082 
L 117.384126 271.637082 
L 117.384126 271.282447 
L 121.581803 271.282447 
L 121.581803 270.927812 
L 122.19863 270.927812 
L 122.19863 269.863906 
L 122.795872 269.863906 
L 122.795872 268.8 
L 124.481616 268.8 
L 124.481616 268.445365 
L 131.191226 268.445365 
L 131.191226 267.736094 
L 132.46399 267.736094 
L 132.46399 267.381459 
L 134.620977 267.381459 
L 134.620977 267.026824 
L 139.914782 267.026824 
L 139.914782 265.962918 
L 141.610664 265.962918 
L 141.610664 265.608282 
L 141.825656 265.608282 
L 141.825656 264.899012 
L 143.066428 264.899012 
L 143.066428 264.544376 
L 145.851536 264.544376 
L 145.851536 264.189741 
L 146.695245 264.189741 
L 146.695245 263.125835 
L 146.941151 263.125835 
L 146.941151 260.998024 
L 147.660152 260.998024 
L 147.660152 260.643388 
L 148.503173 260.643388 
L 148.503173 259.579482 
L 149.31003 259.579482 
L 149.31003 259.224847 
L 150.8268 259.224847 
L 150.8268 257.806306 
L 151.668766 257.806306 
L 151.668766 255.678494 
L 157.688143 255.678494 
L 157.688143 255.323859 
L 160.142495 255.323859 
L 160.142495 254.614588 
L 161.125559 254.614588 
L 161.125559 254.259953 
L 161.986735 254.259953 
L 161.986735 253.905318 
L 162.915008 253.905318 
L 162.984551 252.841412 
L 163.157294 252.841412 
L 163.157294 252.486776 
L 163.464289 252.486776 
L 163.565517 249.649694 
L 163.96507 249.649694 
L 163.96507 249.295059 
L 164.161708 249.295059 
L 164.161708 248.940424 
L 164.356312 248.940424 
L 164.356312 248.585788 
L 165.300233 248.585788 
L 165.300233 247.876518 
L 165.483464 247.876518 
L 165.574415 246.457976 
L 166.860176 246.457976 
L 166.944723 244.6848 
L 167.251516 244.6848 
L 167.251516 244.330165 
L 167.526142 244.330165 
L 167.526142 243.975529 
L 167.716022 243.975529 
L 167.716022 243.266259 
L 167.904005 243.266259 
L 167.904005 242.202353 
L 168.300609 242.202353 
L 168.326754 241.493082 
L 168.560441 241.493082 
L 168.560441 240.074541 
L 168.867575 240.074541 
L 168.943582 237.946729 
L 169.169775 237.946729 
L 169.169775 237.592094 
L 169.393282 237.592094 
L 169.491772 235.818918 
L 170.28522 235.818918 
L 170.28522 234.045741 
L 170.9104 234.045741 
L 170.9104 232.981835 
L 171.427048 232.981835 
L 171.427048 232.6272 
L 171.647326 232.6272 
L 171.647326 228.371576 
L 171.951446 228.371576 
L 172.015979 227.307671 
L 172.794209 227.307671 
L 172.794209 226.953035 
L 173.060174 226.953035 
L 173.060174 225.179859 
L 174.18388 225.179859 
L 174.18388 223.761318 
L 175.866889 223.761318 
L 175.866889 223.406682 
L 176.041072 223.406682 
L 176.075715 220.5696 
L 177.762943 220.5696 
L 177.762943 219.860329 
L 178.446509 219.860329 
L 178.537828 218.441788 
L 178.86892 218.441788 
L 178.86892 218.087153 
L 179.07662 218.087153 
L 179.179617 214.895435 
L 179.586055 214.895435 
L 179.60041 214.186165 
L 179.786028 214.186165 
L 179.786028 213.831529 
L 181.274261 213.831529 
L 181.274261 213.476894 
L 181.534993 213.476894 
L 181.586709 212.767624 
L 181.792161 212.767624 
L 181.804928 210.639812 
L 182.370637 210.639812 
L 182.370637 210.285176 
L 182.555488 210.285176 
L 182.555488 207.093459 
L 182.738541 207.093459 
L 182.738541 206.738824 
L 183.915382 206.738824 
L 184.017773 204.965647 
L 184.153434 204.965647 
L 184.187197 204.256376 
L 184.388512 204.256376 
L 184.432957 202.4832 
L 184.893403 202.4832 
L 184.904229 199.291482 
L 185.667825 199.291482 
L 185.667825 198.936847 
L 185.853977 198.936847 
L 185.853977 197.872941 
L 186.441569 197.872941 
L 186.531124 196.4544 
L 186.66959 196.4544 
L 186.66959 194.681224 
L 186.865648 194.681224 
L 186.943502 191.844141 
L 187.088617 191.844141 
L 187.088617 190.780235 
L 187.270836 190.780235 
L 187.318496 189.361694 
L 187.769995 189.361694 
L 187.769995 187.588518 
L 188.22906 187.588518 
L 188.22906 187.233882 
L 188.373626 187.233882 
L 188.373626 186.169976 
L 188.72142 186.169976 
L 188.72142 185.106071 
L 189.584883 185.106071 
L 189.59332 184.3968 
L 189.911175 184.3968 
L 189.969146 183.332894 
L 190.125601 183.332894 
L 190.125601 182.268988 
L 190.248206 182.268988 
L 190.264493 181.559718 
L 190.928264 181.559718 
L 190.93612 180.850447 
L 191.698075 180.850447 
L 191.698075 180.141176 
L 191.818373 180.141176 
L 191.818373 177.658729 
L 192.049284 177.658729 
L 192.049284 177.304094 
L 192.596488 177.304094 
L 192.596488 176.240188 
L 193.474543 176.240188 
L 193.474543 174.821647 
L 194.062346 174.821647 
L 194.075645 169.856753 
L 194.844102 169.856753 
L 194.85686 168.792847 
L 195.434563 168.792847 
L 195.434563 167.374306 
L 197.136202 167.374306 
L 197.136202 165.955765 
L 197.248846 165.955765 
L 197.248846 165.601129 
L 197.823965 165.601129 
L 197.823965 165.246494 
L 198.158641 165.246494 
L 198.158641 164.891859 
L 198.318469 164.891859 
L 198.408438 163.118682 
L 199.011124 163.118682 
L 199.011124 162.409412 
L 199.229718 162.409412 
L 199.335557 160.2816 
L 201.003343 160.2816 
L 201.07679 159.572329 
L 202.036885 159.572329 
L 202.067335 156.025976 
L 202.347756 156.025976 
L 202.347756 155.671341 
L 203.44962 155.671341 
L 203.457695 154.962071 
L 203.562361 154.962071 
L 203.562361 154.607435 
L 203.754072 154.607435 
L 203.754072 154.2528 
L 204.092745 154.2528 
L 204.092745 153.898165 
L 204.228849 153.898165 
L 204.228849 153.543529 
L 204.482855 153.543529 
L 204.509595 152.834259 
L 205.206538 152.834259 
L 205.206538 152.479624 
L 206.561697 152.479624 
L 206.561697 152.124988 
L 207.32305 152.124988 
L 207.32305 151.415718 
L 209.204523 151.415718 
L 209.204523 151.061082 
L 211.312496 151.061082 
L 211.312496 150.706447 
L 211.479264 150.706447 
L 211.479264 149.997176 
L 214.275636 149.997176 
L 214.296068 149.287906 
L 215.371937 149.287906 
L 215.451053 148.578635 
L 217.655351 148.578635 
L 217.655351 148.224 
L 217.770766 148.224 
L 217.770766 147.869365 
L 219.011578 147.869365 
L 219.011578 147.514729 
L 219.59916 147.514729 
L 219.59916 147.160094 
L 219.713486 147.160094 
L 219.713486 145.741553 
L 220.155656 145.741553 
L 220.155656 145.386918 
L 220.321092 145.386918 
L 220.321092 144.677647 
L 220.52749 144.677647 
L 220.52749 144.323012 
L 220.970249 144.323012 
L 220.981384 143.613741 
L 221.30929 143.613741 
L 221.30929 143.259106 
L 221.480419 143.259106 
L 221.480419 142.904471 
L 221.650004 142.904471 
L 221.650004 142.549835 
L 222.961471 142.549835 
L 223.035757 140.776659 
L 223.963485 140.776659 
L 223.963485 140.422024 
L 224.674596 140.422024 
L 224.674596 137.584941 
L 224.864429 137.584941 
L 224.864429 137.230306 
L 225.021601 137.230306 
L 225.021601 136.875671 
L 225.565325 136.875671 
L 225.603923 136.1664 
L 225.759995 136.1664 
L 225.759995 135.811765 
L 226.155477 135.811765 
L 226.155477 135.457129 
L 226.323825 135.457129 
L 226.328613 134.747859 
L 226.562921 134.747859 
L 226.649009 133.683953 
L 226.886357 133.683953 
L 226.886357 133.329318 
L 227.439324 133.329318 
L 227.439324 132.974682 
L 227.916099 132.974682 
L 227.916099 132.620047 
L 228.625238 132.620047 
L 228.625238 132.265412 
L 229.51888 132.265412 
L 229.51888 131.910776 
L 230.026132 131.910776 
L 230.026132 131.556141 
L 230.363297 131.556141 
L 230.363297 131.201506 
L 230.700218 131.201506 
L 230.700218 130.846871 
L 231.545167 130.846871 
L 231.545167 130.492235 
L 232.320745 130.492235 
L 232.320745 128.364424 
L 232.805323 128.364424 
L 232.858684 125.527341 
L 232.967478 125.527341 
L 232.967478 125.172706 
L 233.115736 125.172706 
L 233.115736 124.818071 
L 233.552812 124.818071 
L 233.552812 124.463435 
L 234.596867 124.463435 
L 234.596867 124.1088 
L 238.428564 124.1088 
L 238.428564 123.754165 
L 240.594345 123.754165 
L 240.594345 123.399529 
L 241.628363 123.399529 
L 241.628363 123.044894 
L 243.358961 123.044894 
L 243.358961 122.690259 
L 243.539116 122.690259 
L 243.575036 121.980988 
L 244.033065 121.980988 
L 244.033065 121.271718 
L 244.20922 121.271718 
L 244.25081 119.853176 
L 244.457848 119.853176 
L 244.457848 119.498541 
L 244.600207 119.498541 
L 244.600207 116.661459 
L 244.738798 116.661459 
L 244.764867 115.242918 
L 245.081978 115.242918 
L 245.081978 114.533647 
L 246.427009 114.533647 
L 246.427009 114.179012 
L 246.676573 114.179012 
L 246.686714 113.115106 
L 246.899226 113.115106 
L 246.914056 111.696565 
L 247.146601 111.696565 
L 247.146601 109.923388 
L 247.344613 109.923388 
L 247.422379 107.086306 
L 247.495554 107.086306 
L 247.513026 106.0224 
L 247.685715 106.0224 
L 247.685715 105.667765 
L 248.008272 105.667765 
L 248.025653 101.412141 
L 248.205321 101.412141 
L 248.21953 99.9936 
L 248.429921 99.9936 
L 248.429921 98.575059 
L 274.203914 98.575059 
L 274.314039 85.808188 
L 274.331305 85.808188 
L 274.440318 74.105224 
L 274.451259 74.105224 
L 274.55829 70.558871 
L 274.57874 70.558871 
L 274.685966 67.721788 
L 274.706735 67.721788 
L 274.706735 67.367153 
L 274.829959 67.367153 
L 274.939289 65.948612 
L 275.188355 65.948612 
L 275.294919 65.239341 
L 275.483454 65.239341 
L 275.506955 64.175435 
L 275.894566 64.175435 
L 275.894566 63.8208 
L 276.154251 63.8208 
L 276.185468 61.692988 
L 277.093596 61.692988 
L 277.093596 61.338353 
L 277.546087 61.338353 
L 277.627999 60.274447 
L 277.663743 60.274447 
L 277.724282 58.501271 
L 277.807982 58.501271 
L 277.807982 58.146635 
L 278.09792 58.146635 
L 278.187274 56.018824 
L 278.225461 56.018824 
L 278.258196 54.954918 
L 278.355835 54.954918 
L 278.359299 52.472471 
L 287.229137 52.472471 
L 287.337801 42.897318 
L 287.347798 42.897318 
L 287.445192 41.124141 
L 287.623576 41.124141 
L 287.728161 39.7056 
L 287.740193 39.7056 
L 287.744766 38.996329 
L 287.856002 38.996329 
L 287.952434 37.577788 
L 288.231986 37.577788 
L 288.246727 36.159247 
L 289.085928 36.159247 
L 289.085928 35.804612 
L 289.301448 35.804612 
L 289.301448 35.449976 
L 289.420946 35.449976 
L 289.468066 34.740706 
L 294.851912 34.740706 
L 294.946718 32.612894 
L 295.186143 32.612894 
L 295.223019 31.903624 
L 295.324658 31.903624 
L 295.329058 31.194353 
L 295.508337 31.194353 
L 295.508337 30.839718 
L 296.065018 30.839718 
L 296.065018 30.485082 
L 296.34147 30.485082 
L 296.34147 30.130447 
L 300.273762 30.130447 
L 300.34066 28.711906 
L 300.512591 28.711906 
L 300.512591 28.357271 
L 301.401983 28.357271 
L 301.401983 28.002635 
L 304.468178 28.002635 
L 304.468178 27.648 
L 360.8064 27.648 
L 360.8064 27.648 
" style="fill: none; stroke: #00bfbf; stroke-width: 1.5; stroke-linecap: square"/>
   </g>
   <g id="line2d_31">
    <defs>
     <path id="m26d8f005ff" d="M -6 0 
L 6 0 
M 0 6 
L 0 -6 
" style="stroke: #00bfbf; stroke-width: 1.5"/>
    </defs>
    <g>
     <use xlink:href="#m26d8f005ff" x="160.142495" y="255.323859" style="fill-opacity: 0; stroke: #00bfbf; stroke-width: 1.5"/>
     <use xlink:href="#m26d8f005ff" x="219.59916" y="147.160094" style="fill-opacity: 0; stroke: #00bfbf; stroke-width: 1.5"/>
     <use xlink:href="#m26d8f005ff" x="274.256623" y="95.028706" style="fill-opacity: 0; stroke: #00bfbf; stroke-width: 1.5"/>
     <use xlink:href="#m26d8f005ff" x="304.468178" y="27.648" style="fill-opacity: 0; stroke: #00bfbf; stroke-width: 1.5"/>
     <use xlink:href="#m26d8f005ff" x="304.468178" y="27.648" style="fill-opacity: 0; stroke: #00bfbf; stroke-width: 1.5"/>
     <use xlink:href="#m26d8f005ff" x="360.8064" y="27.648" style="fill-opacity: 0; stroke: #00bfbf; stroke-width: 1.5"/>
    </g>
   </g>
   <g id="line2d_32">
    <path style="fill: none; stroke: #00bfbf; stroke-width: 1.5; stroke-linecap: square"/>
    <g/>
   </g>
   <g id="line2d_33">
    <path d="M 274.176 98.575059 
" clip-path="url(#p48956a2695)" style="fill: none; stroke: #00bfbf; stroke-width: 1.5; stroke-linecap: square"/>
    <defs>
     <path id="m947c820705" d="M -12 12 
L 12 -12 
M -12 -12 
L 12 12 
" style="stroke: #00bfbf"/>
    </defs>
    <g clip-path="url(#p48956a2695)">
     <use xlink:href="#m947c820705" x="274.176" y="98.575059" style="fill: #00bfbf; stroke: #00bfbf"/>
    </g>
   </g>
   <g id="line2d_34">
    <defs>
     <path id="me0186ae4ce" d="M 0 1.5 
C 0.397805 1.5 0.77937 1.341951 1.06066 1.06066 
C 1.341951 0.77937 1.5 0.397805 1.5 0 
C 1.5 -0.397805 1.341951 -0.77937 1.06066 -1.06066 
C 0.77937 -1.341951 0.397805 -1.5 0 -1.5 
C -0.397805 -1.5 -0.77937 -1.341951 -1.06066 -1.06066 
C -1.341951 -0.77937 -1.5 -0.397805 -1.5 0 
C -1.5 0.397805 -1.341951 0.77937 -1.06066 1.06066 
C -0.77937 1.341951 -0.397805 1.5 0 1.5 
z
" style="stroke: #008000"/>
    </defs>
    <g>
     <use xlink:href="#me0186ae4ce" x="361.802977" y="27.648" style="fill: #008000; stroke: #008000"/>
     <use xlink:href="#me0186ae4ce" x="361.802977" y="27.648" style="fill: #008000; stroke: #008000"/>
    </g>
   </g>
   <g id="line2d_35">
    <path d="M 36.933397 298.944 
L 36.933397 297.525459 
L 49.972572 297.525459 
L 49.972572 295.752282 
L 57.6 295.752282 
L 57.6 293.979106 
L 63.011746 293.979106 
L 63.011746 293.269835 
L 67.209423 293.269835 
L 67.209423 292.9152 
L 70.639174 292.9152 
L 70.639174 292.205929 
L 73.538988 292.205929 
L 73.538988 291.496659 
L 80.248597 291.496659 
L 80.248597 290.432753 
L 82.04153 290.432753 
L 82.04153 289.014212 
L 83.678349 289.014212 
L 83.678349 287.950306 
L 85.184077 287.950306 
L 85.184077 287.595671 
L 86.578163 287.595671 
L 86.578163 287.241035 
L 87.876026 287.241035 
L 87.876026 286.177129 
L 90.230539 286.177129 
L 90.230539 285.822494 
L 91.305777 285.822494 
L 91.305777 285.467859 
L 95.080704 285.467859 
L 95.080704 285.113224 
L 100.9152 285.113224 
L 100.9152 284.403953 
L 102.708132 284.403953 
L 102.708132 283.340047 
L 103.269713 283.340047 
L 103.269713 282.985412 
L 104.344952 282.985412 
L 104.344952 282.630776 
L 105.850679 282.630776 
L 105.850679 281.212235 
L 106.791453 281.212235 
L 106.791453 280.8576 
L 108.542628 280.8576 
L 108.542628 280.502965 
L 110.524623 280.502965 
L 110.524623 280.148329 
L 111.620752 280.148329 
L 111.620752 279.439059 
L 114.265316 279.439059 
L 114.265316 278.729788 
L 117.6436 278.729788 
L 117.6436 278.375153 
L 123.563797 278.375153 
L 123.563797 278.020518 
L 126.677381 278.020518 
L 126.677381 277.311247 
L 130.4233 277.311247 
L 130.4233 276.601976 
L 135.932769 276.601976 
L 135.932769 276.247341 
L 137.250116 276.247341 
L 137.250116 275.538071 
L 145.736128 275.538071 
L 145.736128 275.183435 
L 149.262102 275.183435 
L 149.262102 274.8288 
L 153.726614 274.8288 
L 153.726614 274.474165 
L 153.952355 274.474165 
L 153.952355 274.119529 
L 154.577625 274.119529 
L 154.613767 273.410259 
L 154.829169 273.410259 
L 154.86483 272.346353 
L 154.971412 272.346353 
L 154.971412 271.991718 
L 155.147716 271.991718 
L 155.147716 271.282447 
L 155.460959 271.282447 
L 155.564225 269.863906 
L 155.971711 269.863906 
L 155.971711 269.509271 
L 156.205398 269.509271 
L 156.205398 268.8 
L 156.825436 268.8 
L 156.825436 267.736094 
L 157.048816 267.736094 
L 157.048816 267.381459 
L 157.175281 267.381459 
L 157.238196 265.962918 
L 157.795157 265.962918 
L 157.856036 265.253647 
L 157.946987 265.253647 
L 158.007377 264.189741 
L 158.630038 264.189741 
L 158.630038 263.835106 
L 159.090988 263.835106 
L 159.119425 263.125835 
L 159.204482 263.125835 
L 159.204482 262.7712 
L 159.457367 262.7712 
L 159.457367 262.416565 
L 160.881333 262.416565 
L 160.881333 262.061929 
L 161.442152 262.061929 
L 161.442152 261.707294 
L 163.214524 261.707294 
L 163.214524 260.643388 
L 163.666204 260.643388 
L 163.666204 260.288753 
L 164.324018 260.288753 
L 164.324018 259.934118 
L 165.854592 259.934118 
L 165.854592 259.579482 
L 166.537305 259.579482 
L 166.537305 259.224847 
L 166.8036 259.224847 
L 166.8036 258.515576 
L 166.935348 258.515576 
L 166.935348 258.160941 
L 169.294273 258.160941 
L 169.360337 257.451671 
L 171.286192 257.451671 
L 171.286192 257.097035 
L 171.449192 257.097035 
L 171.449192 256.7424 
L 173.208563 256.7424 
L 173.208563 256.387765 
L 173.829724 256.387765 
L 173.829724 255.678494 
L 174.10077 255.678494 
L 174.10077 255.323859 
L 174.780325 255.323859 
L 174.780325 254.969224 
L 175.790907 254.969224 
L 175.790907 254.614588 
L 178.694067 254.614588 
L 178.694067 254.259953 
L 182.967879 254.259953 
L 182.967879 253.550682 
L 193.467679 253.550682 
L 193.467679 253.196047 
L 194.565534 253.196047 
L 194.565534 252.841412 
L 201.427796 252.841412 
L 201.427796 252.486776 
L 203.870275 252.486776 
L 203.870275 252.132141 
L 204.812525 252.132141 
L 204.812525 251.777506 
L 205.807458 251.777506 
L 205.807458 251.422871 
L 208.535476 251.422871 
L 208.535476 251.068235 
L 213.708411 251.068235 
L 213.708411 250.7136 
L 216.500906 250.7136 
L 216.500906 250.358965 
L 223.630771 250.358965 
L 223.630771 250.004329 
L 225.145635 250.004329 
L 225.177046 249.295059 
L 228.286417 249.295059 
L 228.286417 248.940424 
L 236.379 248.940424 
L 236.379 248.585788 
L 240.750672 248.585788 
L 240.750672 248.231153 
L 257.775424 248.231153 
L 257.775424 247.876518 
L 257.889039 247.876518 
L 257.901406 246.457976 
L 258.065275 246.457976 
L 258.174957 245.748706 
L 258.312733 245.748706 
L 258.39184 243.975529 
L 258.528618 243.975529 
L 258.585149 242.202353 
L 258.754585 242.202353 
L 258.827606 235.109647 
L 258.929278 235.109647 
L 258.929278 234.045741 
L 274.247161 234.045741 
L 274.322907 232.6272 
L 275.032986 232.6272 
L 275.032986 232.272565 
L 275.415155 232.272565 
L 275.415155 231.917929 
L 277.116135 231.917929 
L 277.116135 230.854024 
L 280.748318 230.854024 
L 280.785555 229.435482 
L 280.867014 229.435482 
L 280.974091 225.534494 
L 280.978853 225.534494 
L 281.064743 218.441788 
L 281.095977 218.441788 
L 281.095977 217.023247 
L 287.237954 217.023247 
L 287.288772 216.313976 
L 287.437865 216.313976 
L 287.461862 215.604706 
L 287.844953 215.604706 
L 287.844953 215.250071 
L 290.786912 215.250071 
L 290.894966 211.703718 
L 290.919649 211.703718 
L 290.991581 206.029553 
L 294.866436 206.029553 
L 294.891699 204.965647 
L 295.00742 204.965647 
L 295.00742 204.611012 
L 295.132624 204.611012 
L 295.132624 204.256376 
L 297.297452 204.256376 
L 297.398407 195.745129 
L 297.420016 195.745129 
L 297.442475 187.588518 
L 301.033573 187.588518 
L 301.033573 187.233882 
L 302.135645 187.233882 
L 302.227011 175.530918 
L 304.626575 175.530918 
L 304.706473 174.821647 
L 305.972773 174.821647 
L 306.05464 162.764047 
L 309.149217 162.764047 
L 309.226592 158.153788 
L 311.873113 158.153788 
L 311.940076 146.805459 
L 314.258297 146.805459 
L 314.31104 137.584941 
L 316.368641 137.584941 
L 316.416344 132.265412 
L 318.261864 132.265412 
L 318.305252 125.881976 
L 319.990199 125.881976 
L 320.029558 118.789271 
L 321.569181 118.789271 
L 321.605374 112.760471 
L 323.026218 112.760471 
L 323.059329 107.440941 
L 324.374442 107.440941 
L 324.408924 102.476047 
L 325.639324 102.476047 
L 325.668144 97.511153 
L 326.821269 97.511153 
L 326.848335 92.546259 
L 327.933023 92.546259 
L 327.958835 86.517459 
L 328.987049 86.517459 
L 329.007417 80.843294 
L 329.977735 80.843294 
L 330.000623 77.651576 
L 330.921986 77.651576 
L 330.944009 72.686682 
L 331.819116 72.686682 
L 331.840233 68.431059 
L 332.679885 68.431059 
L 332.699712 65.593976 
L 333.512189 65.593976 
L 333.517785 64.530071 
L 334.29581 64.530071 
L 334.30545 63.111529 
L 335.040115 63.111529 
L 335.059683 59.919812 
L 335.768011 59.919812 
L 335.768011 59.565176 
L 336.480256 59.565176 
L 336.483074 58.501271 
L 337.143113 58.501271 
L 337.154387 57.082729 
L 337.791186 57.082729 
L 337.804432 56.018824 
L 338.429026 56.018824 
L 338.434567 54.600282 
L 339.02838 54.600282 
L 339.041096 51.7632 
L 339.617744 51.7632 
L 339.630068 49.990024 
L 340.192674 49.990024 
L 340.200864 49.280753 
L 340.743662 49.280753 
L 340.755135 45.379765 
L 341.290332 45.379765 
L 341.293541 44.315859 
L 341.806265 44.315859 
L 341.817236 43.606588 
L 342.323636 43.606588 
L 342.326219 42.897318 
L 342.819534 42.897318 
L 342.823478 42.188047 
L 343.771677 42.188047 
L 343.776145 40.769506 
L 344.22623 40.769506 
L 344.22623 40.060235 
L 344.677724 40.060235 
L 344.685471 39.350965 
L 345.119475 39.350965 
L 345.122495 38.641694 
L 345.548213 38.641694 
L 345.550611 37.577788 
L 346.370069 37.577788 
L 346.370069 37.223153 
L 346.771004 37.223153 
L 346.778751 36.159247 
L 347.16248 36.159247 
L 347.171621 34.740706 
L 347.555548 34.740706 
L 347.555548 34.386071 
L 347.928719 34.386071 
L 347.932239 33.6768 
L 348.301536 33.6768 
L 348.301536 33.322165 
L 349.019485 33.322165 
L 349.019669 32.612894 
L 349.368414 32.612894 
L 349.368414 32.258259 
L 349.708445 32.258259 
L 349.710812 31.194353 
L 350.701576 31.194353 
L 350.701576 30.839718 
L 351.021121 30.839718 
L 351.021121 30.485082 
L 352.540588 30.485082 
L 352.540588 30.130447 
L 353.390628 30.130447 
L 353.390628 29.775812 
L 353.943065 29.775812 
L 353.943065 29.421176 
L 356.233042 29.421176 
L 356.233042 29.066541 
L 357.398702 29.066541 
L 357.398702 28.711906 
L 358.065302 28.711906 
L 358.065302 28.357271 
L 359.928523 28.357271 
L 359.928523 28.002635 
L 360.8064 28.002635 
L 360.8064 28.002635 
" style="fill: none; stroke: #008000; stroke-width: 1.5; stroke-linecap: square"/>
   </g>
   <g id="line2d_36">
    <defs>
     <path id="m3a7c062780" d="M -0 6 
L 6 -6 
L -6 -6 
z
" style="stroke: #008000; stroke-width: 1.5; stroke-linejoin: miter"/>
    </defs>
    <g>
     <use xlink:href="#m3a7c062780" x="123.563797" y="278.375153" style="fill-opacity: 0; stroke: #008000; stroke-width: 1.5; stroke-linejoin: miter"/>
     <use xlink:href="#m3a7c062780" x="236.379" y="248.940424" style="fill-opacity: 0; stroke: #008000; stroke-width: 1.5; stroke-linejoin: miter"/>
     <use xlink:href="#m3a7c062780" x="287.844953" y="215.604706" style="fill-opacity: 0; stroke: #008000; stroke-width: 1.5; stroke-linejoin: miter"/>
     <use xlink:href="#m3a7c062780" x="331.839774" y="69.8496" style="fill-opacity: 0; stroke: #008000; stroke-width: 1.5; stroke-linejoin: miter"/>
     <use xlink:href="#m3a7c062780" x="359.928523" y="28.002635" style="fill-opacity: 0; stroke: #008000; stroke-width: 1.5; stroke-linejoin: miter"/>
     <use xlink:href="#m3a7c062780" x="360.8064" y="28.002635" style="fill-opacity: 0; stroke: #008000; stroke-width: 1.5; stroke-linejoin: miter"/>
    </g>
   </g>
   <g id="line2d_37">
    <path style="fill: none; stroke: #008000; stroke-width: 1.5; stroke-linecap: square"/>
    <g/>
   </g>
   <g id="line2d_38">
    <path d="M 274.176 234.045741 
" clip-path="url(#p48956a2695)" style="fill: none; stroke: #008000; stroke-width: 1.5; stroke-linecap: square"/>
    <defs>
     <path id="m9eadca0937" d="M -12 12 
L 12 -12 
M -12 -12 
L 12 12 
" style="stroke: #008000"/>
    </defs>
    <g clip-path="url(#p48956a2695)">
     <use xlink:href="#m9eadca0937" x="274.176" y="234.045741" style="fill: #008000; stroke: #008000"/>
    </g>
   </g>
   <g id="line2d_39">
    <defs>
     <path id="m68b1832ba6" d="M 0 1.5 
C 0.397805 1.5 0.77937 1.341951 1.06066 1.06066 
C 1.341951 0.77937 1.5 0.397805 1.5 0 
C 1.5 -0.397805 1.341951 -0.77937 1.06066 -1.06066 
C 0.77937 -1.341951 0.397805 -1.5 0 -1.5 
C -0.397805 -1.5 -0.77937 -1.341951 -1.06066 -1.06066 
C -1.341951 -0.77937 -1.5 -0.397805 -1.5 0 
C -1.5 0.397805 -1.341951 0.77937 -1.06066 1.06066 
C -0.77937 1.341951 -0.397805 1.5 0 1.5 
z
" style="stroke: #0000ff"/>
    </defs>
    <g>
     <use xlink:href="#m68b1832ba6" x="327.506799" y="251.068235" style="fill: #0000ff; stroke: #0000ff"/>
     <use xlink:href="#m68b1832ba6" x="327.506799" y="251.068235" style="fill: #0000ff; stroke: #0000ff"/>
    </g>
   </g>
   <g id="line2d_40">
    <path d="M 57.6 298.944 
L 57.6 298.234729 
L 61.029752 298.234729 
L 61.029752 297.880094 
L 63.929565 297.880094 
L 63.929565 297.525459 
L 70.639174 297.525459 
L 70.639174 296.816188 
L 74.068926 296.816188 
L 74.068926 296.106918 
L 76.96874 296.106918 
L 76.96874 295.043012 
L 78.266603 295.043012 
L 78.266603 294.688376 
L 79.480672 294.688376 
L 79.480672 294.333741 
L 83.678349 294.333741 
L 83.678349 293.624471 
L 84.596168 293.624471 
L 84.596168 293.269835 
L 93.66029 293.269835 
L 93.66029 292.9152 
L 94.205591 292.9152 
L 94.205591 292.560565 
L 99.346662 292.560565 
L 99.346662 292.205929 
L 103.047088 292.205929 
L 103.047088 291.496659 
L 115.227139 291.496659 
L 115.227139 291.142024 
L 115.575511 291.142024 
L 115.575511 290.787388 
L 116.086263 290.787388 
L 116.086263 290.432753 
L 120.813877 290.432753 
L 120.813877 290.078118 
L 126.804487 290.078118 
L 126.804487 289.723482 
L 127.366067 289.723482 
L 127.366067 289.368847 
L 131.489828 289.368847 
L 131.489828 289.014212 
L 131.63737 289.014212 
L 131.63737 288.659576 
L 135.298389 288.659576 
L 135.298389 288.304941 
L 137.304564 288.304941 
L 137.304564 287.950306 
L 144.529002 287.950306 
L 144.529002 287.595671 
L 144.71325 287.595671 
L 144.71325 287.241035 
L 144.895711 287.241035 
L 144.895711 286.8864 
L 145.184016 286.8864 
L 145.255407 286.177129 
L 145.397382 286.177129 
L 145.397382 285.822494 
L 145.538293 285.822494 
L 145.538293 285.467859 
L 146.227438 285.467859 
L 146.227438 285.113224 
L 146.761135 285.113224 
L 146.761135 284.758588 
L 147.119461 284.758588 
L 147.119461 284.403953 
L 147.312072 284.403953 
L 147.407644 283.340047 
L 147.909315 283.340047 
L 147.909315 282.985412 
L 148.094045 282.985412 
L 148.094045 282.630776 
L 149.223672 282.630776 
L 149.223672 282.276141 
L 149.42456 282.276141 
L 149.42456 281.921506 
L 149.98698 281.921506 
L 150.014665 280.8576 
L 150.262008 280.8576 
L 150.262008 280.502965 
L 150.506141 280.502965 
L 150.559965 279.793694 
L 150.72052 279.793694 
L 150.800286 279.084424 
L 150.958812 279.084424 
L 151.011358 278.375153 
L 152.131727 278.375153 
L 152.131727 278.020518 
L 153.513449 278.020518 
L 153.513449 277.665882 
L 154.886195 277.665882 
L 154.886195 277.311247 
L 155.964992 277.311247 
L 155.964992 276.956612 
L 156.165543 276.956612 
L 156.225294 276.247341 
L 158.276759 276.247341 
L 158.276759 275.892706 
L 158.976805 275.892706 
L 158.976805 275.538071 
L 161.765853 275.538071 
L 161.765853 275.183435 
L 164.783793 275.183435 
L 164.783793 274.8288 
L 166.181484 274.8288 
L 166.181484 274.474165 
L 166.564105 274.474165 
L 166.564105 274.119529 
L 169.687218 274.119529 
L 169.687218 273.764894 
L 171.127772 273.764894 
L 171.127772 273.410259 
L 171.369351 273.410259 
L 171.369351 273.055624 
L 172.007388 273.055624 
L 172.007388 272.700988 
L 173.462145 272.700988 
L 173.462145 272.346353 
L 175.581246 272.346353 
L 175.581246 271.991718 
L 176.023726 271.991718 
L 176.023726 271.637082 
L 179.921934 271.637082 
L 179.921934 271.282447 
L 180.25192 271.282447 
L 180.25192 270.927812 
L 180.472392 270.927812 
L 180.472392 270.573176 
L 183.201566 270.573176 
L 183.201566 270.218541 
L 186.914345 270.218541 
L 186.914345 269.863906 
L 188.065084 269.863906 
L 188.065084 269.509271 
L 188.986388 269.509271 
L 188.986388 269.154635 
L 192.645323 269.154635 
L 192.645323 268.8 
L 192.978028 268.8 
L 192.978028 268.445365 
L 196.269157 268.445365 
L 196.269157 268.090729 
L 198.942482 268.090729 
L 198.942482 267.736094 
L 199.592125 267.736094 
L 199.592125 267.381459 
L 200.290912 267.381459 
L 200.290912 267.026824 
L 205.494189 267.026824 
L 205.494189 266.672188 
L 207.173224 266.672188 
L 207.173224 266.317553 
L 208.488573 266.317553 
L 208.488573 265.962918 
L 211.873576 265.962918 
L 211.873576 265.608282 
L 213.195855 265.608282 
L 213.195855 265.253647 
L 215.317431 265.253647 
L 215.317431 264.899012 
L 217.852451 264.899012 
L 217.852451 264.544376 
L 225.742718 264.544376 
L 225.742718 264.189741 
L 226.135658 264.189741 
L 226.135658 263.835106 
L 227.815514 263.835106 
L 227.815514 263.480471 
L 227.991186 263.480471 
L 227.991186 263.125835 
L 228.641967 263.125835 
L 228.68383 262.416565 
L 229.573146 262.416565 
L 229.573146 262.061929 
L 243.412513 262.061929 
L 243.412513 261.707294 
L 254.932055 261.707294 
L 254.932055 261.352659 
L 265.340701 261.352659 
L 265.340701 260.998024 
L 268.298119 260.998024 
L 268.385131 259.934118 
L 270.843126 259.934118 
L 270.843126 259.579482 
L 272.520483 259.579482 
L 272.520483 259.224847 
L 274.255443 259.224847 
L 274.255443 258.870212 
L 274.472751 258.870212 
L 274.52955 257.806306 
L 274.740154 257.806306 
L 274.849408 256.7424 
L 274.897516 256.7424 
L 274.897516 256.387765 
L 275.725412 256.387765 
L 275.725412 256.033129 
L 275.855448 256.033129 
L 275.855448 255.678494 
L 287.457814 255.678494 
L 287.499366 254.614588 
L 287.622407 254.614588 
L 287.622407 254.259953 
L 295.03254 254.259953 
L 295.115068 253.196047 
L 300.396982 253.196047 
L 300.396982 252.486776 
L 308.018503 252.486776 
L 308.018503 252.132141 
L 313.364975 252.132141 
L 313.396161 251.422871 
L 327.506799 251.422871 
L 327.506799 251.068235 
L 360.8064 251.068235 
L 360.8064 251.068235 
" style="fill: none; stroke: #0000ff; stroke-width: 1.5; stroke-linecap: square"/>
   </g>
   <g id="line2d_41">
    <defs>
     <path id="m893313e1bc" d="M 0 -6 
L -1.347084 -1.854102 
L -5.706339 -1.854102 
L -2.179628 0.708204 
L -3.526712 4.854102 
L -0 2.291796 
L 3.526712 4.854102 
L 2.179628 0.708204 
L 5.706339 -1.854102 
L 1.347084 -1.854102 
z
" style="stroke: #0000ff; stroke-width: 1.5; stroke-linejoin: bevel"/>
    </defs>
    <g>
     <use xlink:href="#m893313e1bc" x="103.047088" y="291.496659" style="fill-opacity: 0; stroke: #0000ff; stroke-width: 1.5; stroke-linejoin: bevel"/>
     <use xlink:href="#m893313e1bc" x="188.986388" y="269.154635" style="fill-opacity: 0; stroke: #0000ff; stroke-width: 1.5; stroke-linejoin: bevel"/>
     <use xlink:href="#m893313e1bc" x="287.622407" y="254.614588" style="fill-opacity: 0; stroke: #0000ff; stroke-width: 1.5; stroke-linejoin: bevel"/>
     <use xlink:href="#m893313e1bc" x="327.506799" y="251.068235" style="fill-opacity: 0; stroke: #0000ff; stroke-width: 1.5; stroke-linejoin: bevel"/>
     <use xlink:href="#m893313e1bc" x="360.8064" y="251.068235" style="fill-opacity: 0; stroke: #0000ff; stroke-width: 1.5; stroke-linejoin: bevel"/>
    </g>
   </g>
   <g id="line2d_42">
    <path style="fill: none; stroke: #0000ff; stroke-width: 1.5; stroke-linecap: square"/>
    <g/>
   </g>
   <g id="line2d_43">
    <path d="M 274.176 259.224847 
" clip-path="url(#p48956a2695)" style="fill: none; stroke: #0000ff; stroke-width: 1.5; stroke-linecap: square"/>
    <defs>
     <path id="m16bc43acf8" d="M -12 12 
L 12 -12 
M -12 -12 
L 12 12 
" style="stroke: #0000ff"/>
    </defs>
    <g clip-path="url(#p48956a2695)">
     <use xlink:href="#m16bc43acf8" x="274.176" y="259.224847" style="fill: #0000ff; stroke: #0000ff"/>
    </g>
   </g>
   <g id="line2d_44">
    <defs>
     <path id="mccfb305b62" d="M 0 1.5 
C 0.397805 1.5 0.77937 1.341951 1.06066 1.06066 
C 1.341951 0.77937 1.5 0.397805 1.5 0 
C 1.5 -0.397805 1.341951 -0.77937 1.06066 -1.06066 
C 0.77937 -1.341951 0.397805 -1.5 0 -1.5 
C -0.397805 -1.5 -0.77937 -1.341951 -1.06066 -1.06066 
C -1.341951 -0.77937 -1.5 -0.397805 -1.5 0 
C -1.5 0.397805 -1.341951 0.77937 -1.06066 1.06066 
C -0.77937 1.341951 -0.397805 1.5 0 1.5 
z
" style="stroke: #000000"/>
    </defs>
    <g>
     <use xlink:href="#mccfb305b62" x="335.518695" y="267.026824" style="stroke: #000000"/>
     <use xlink:href="#mccfb305b62" x="335.518695" y="267.026824" style="stroke: #000000"/>
    </g>
   </g>
   <g id="line2d_45">
    <path d="M 132.46399 298.944 
L 132.499119 298.234729 
L 134.240933 298.234729 
L 134.240933 297.880094 
L 134.400219 297.880094 
L 134.400219 297.525459 
L 135.177024 297.525459 
L 135.177024 297.170824 
L 135.508912 297.170824 
L 135.508912 296.816188 
L 136.039681 296.816188 
L 136.039681 296.461553 
L 136.213327 296.461553 
L 136.213327 296.106918 
L 136.328207 296.106918 
L 136.413909 295.397647 
L 137.520791 295.397647 
L 137.601239 294.688376 
L 137.787626 294.688376 
L 137.814102 293.979106 
L 139.338138 293.979106 
L 139.338138 293.624471 
L 142.804452 293.624471 
L 142.804452 293.269835 
L 144.602918 293.269835 
L 144.602918 292.9152 
L 148.200973 292.9152 
L 148.200973 292.560565 
L 149.151403 292.560565 
L 149.151403 292.205929 
L 149.707872 292.205929 
L 149.707872 291.851294 
L 151.050671 291.851294 
L 151.050671 291.496659 
L 152.15643 291.496659 
L 152.15643 291.142024 
L 154.267588 291.142024 
L 154.278618 290.432753 
L 158.856162 290.432753 
L 158.864805 289.723482 
L 160.190875 289.723482 
L 160.190875 289.368847 
L 160.549809 289.368847 
L 160.636516 288.659576 
L 160.878745 288.659576 
L 160.878745 288.304941 
L 167.084795 288.304941 
L 167.084795 287.950306 
L 171.324847 287.950306 
L 171.324847 287.595671 
L 173.466122 287.595671 
L 173.466122 287.241035 
L 176.230828 287.241035 
L 176.230828 286.8864 
L 176.503464 286.8864 
L 176.554146 286.177129 
L 177.430947 286.177129 
L 177.430947 285.822494 
L 177.690023 285.822494 
L 177.690023 285.467859 
L 180.444974 285.467859 
L 180.444974 285.113224 
L 181.957455 285.113224 
L 181.957455 284.758588 
L 182.767665 284.758588 
L 182.767665 284.403953 
L 184.099287 284.403953 
L 184.099287 284.049318 
L 186.748259 284.049318 
L 186.748259 283.694682 
L 189.537562 283.694682 
L 189.537562 283.340047 
L 189.904539 283.340047 
L 189.904539 282.985412 
L 191.346333 282.985412 
L 191.427619 282.276141 
L 196.295167 282.276141 
L 196.295167 281.921506 
L 204.649549 281.921506 
L 204.649549 281.566871 
L 208.08511 281.566871 
L 208.08511 281.212235 
L 212.126332 281.212235 
L 212.126332 280.8576 
L 215.323017 280.8576 
L 215.323017 280.502965 
L 217.019574 280.502965 
L 217.019574 280.148329 
L 218.513066 280.148329 
L 218.513066 279.793694 
L 219.132677 279.793694 
L 219.132677 279.439059 
L 224.975616 279.439059 
L 224.975616 279.084424 
L 225.902545 279.084424 
L 225.902545 278.729788 
L 274.195178 278.729788 
L 274.304532 277.665882 
L 274.331977 277.665882 
L 274.405822 276.601976 
L 274.473158 276.601976 
L 274.473158 276.247341 
L 274.728357 276.247341 
L 274.728357 275.538071 
L 274.858353 275.538071 
L 274.858353 275.183435 
L 275.127327 275.183435 
L 275.127327 274.8288 
L 287.267398 274.8288 
L 287.27955 274.119529 
L 287.49338 274.119529 
L 287.49338 273.764894 
L 287.622526 273.764894 
L 287.622526 273.410259 
L 294.942178 273.410259 
L 294.942178 273.055624 
L 300.289259 273.055624 
L 300.289259 272.700988 
L 300.496729 272.700988 
L 300.496729 272.346353 
L 304.652646 272.346353 
L 304.652646 271.991718 
L 307.905058 271.991718 
L 307.905058 271.637082 
L 308.0314 271.637082 
L 308.109691 270.573176 
L 310.925109 270.573176 
L 310.925109 270.218541 
L 313.464717 270.218541 
L 313.464717 269.863906 
L 315.661454 269.863906 
L 315.661454 269.509271 
L 322.501591 269.509271 
L 322.501591 269.154635 
L 323.918781 269.154635 
L 323.918781 268.8 
L 330.579101 268.8 
L 330.579101 268.445365 
L 332.38574 268.445365 
L 332.38574 268.090729 
L 333.219236 268.090729 
L 333.219236 267.736094 
L 335.503347 267.736094 
L 335.518695 267.026824 
L 360.8064 267.026824 
L 360.8064 267.026824 
" style="fill: none; stroke: #000000; stroke-width: 1.5; stroke-linecap: square"/>
   </g>
   <g id="line2d_46">
    <defs>
     <path id="m9355ed52de" d="M 0 6 
C 1.591219 6 3.117479 5.367802 4.242641 4.242641 
C 5.367802 3.117479 6 1.591219 6 0 
C 6 -1.591219 5.367802 -3.117479 4.242641 -4.242641 
C 3.117479 -5.367802 1.591219 -6 0 -6 
C -1.591219 -6 -3.117479 -5.367802 -4.242641 -4.242641 
C -5.367802 -3.117479 -6 -1.591219 -6 0 
C -6 1.591219 -5.367802 3.117479 -4.242641 4.242641 
C -3.117479 5.367802 -1.591219 6 0 6 
z
" style="stroke: #000000; stroke-width: 1.5"/>
    </defs>
    <g>
     <use xlink:href="#m9355ed52de" x="196.295167" y="281.921506" style="fill-opacity: 0; stroke: #000000; stroke-width: 1.5"/>
     <use xlink:href="#m9355ed52de" x="225.902545" y="278.729788" style="fill-opacity: 0; stroke: #000000; stroke-width: 1.5"/>
     <use xlink:href="#m9355ed52de" x="323.918781" y="268.8" style="fill-opacity: 0; stroke: #000000; stroke-width: 1.5"/>
     <use xlink:href="#m9355ed52de" x="335.518695" y="267.026824" style="fill-opacity: 0; stroke: #000000; stroke-width: 1.5"/>
     <use xlink:href="#m9355ed52de" x="360.8064" y="267.026824" style="fill-opacity: 0; stroke: #000000; stroke-width: 1.5"/>
    </g>
   </g>
   <g id="line2d_47">
    <path style="fill: none; stroke: #000000; stroke-width: 1.5; stroke-linecap: square"/>
    <g/>
   </g>
   <g id="line2d_48">
    <path d="M 274.176 278.729788 
" clip-path="url(#p48956a2695)" style="fill: none; stroke: #000000; stroke-width: 1.5; stroke-linecap: square"/>
    <defs>
     <path id="m53450a873e" d="M -12 12 
L 12 -12 
M -12 -12 
L 12 12 
" style="stroke: #000000"/>
    </defs>
    <g clip-path="url(#p48956a2695)">
     <use xlink:href="#m53450a873e" x="274.176" y="278.729788" style="stroke: #000000"/>
    </g>
   </g>
   <g id="line2d_49">
    <defs>
     <path id="m4ddaf1f7dd" d="M 0 1.5 
C 0.397805 1.5 0.77937 1.341951 1.06066 1.06066 
C 1.341951 0.77937 1.5 0.397805 1.5 0 
C 1.5 -0.397805 1.341951 -0.77937 1.06066 -1.06066 
C 0.77937 -1.341951 0.397805 -1.5 0 -1.5 
C -0.397805 -1.5 -0.77937 -1.341951 -1.06066 -1.06066 
C -1.341951 -0.77937 -1.5 -0.397805 -1.5 0 
C -1.5 0.397805 -1.341951 0.77937 -1.06066 1.06066 
C -0.77937 1.341951 -0.397805 1.5 0 1.5 
z
" style="stroke: #ff0000"/>
    </defs>
    <g>
     <use xlink:href="#m4ddaf1f7dd" x="304.725154" y="293.624471" style="fill: #ff0000; stroke: #ff0000"/>
     <use xlink:href="#m4ddaf1f7dd" x="304.725154" y="293.624471" style="fill: #ff0000; stroke: #ff0000"/>
    </g>
   </g>
   <g id="line2d_50">
    <path d="M 189.406814 298.944 
L 189.406814 298.589365 
L 191.86553 298.589365 
L 191.86553 298.234729 
L 204.805763 298.234729 
L 204.805763 297.880094 
L 209.593071 297.880094 
L 209.593071 297.525459 
L 224.972915 297.525459 
L 224.972915 297.170824 
L 274.382542 297.170824 
L 274.382542 296.816188 
L 274.773733 296.816188 
L 274.773733 296.461553 
L 287.516415 296.461553 
L 287.516415 296.106918 
L 294.911702 296.106918 
L 294.911702 295.752282 
L 294.998909 295.752282 
L 294.998909 295.397647 
L 300.313425 295.397647 
L 300.313425 294.333741 
L 304.573101 294.333741 
L 304.573101 293.979106 
L 304.725154 293.979106 
L 304.725154 293.624471 
L 360.8064 293.624471 
" style="fill: none; stroke: #ff0000; stroke-width: 1.5; stroke-linecap: square"/>
   </g>
   <g id="line2d_51">
    <defs>
     <path id="m5937a2c38a" d="M -6 6 
L 6 6 
L 6 -6 
L -6 -6 
z
" style="stroke: #ff0000; stroke-width: 1.5; stroke-linejoin: miter"/>
    </defs>
    <g>
     <use xlink:href="#m5937a2c38a" x="224.972915" y="297.170824" style="fill-opacity: 0; stroke: #ff0000; stroke-width: 1.5; stroke-linejoin: miter"/>
     <use xlink:href="#m5937a2c38a" x="304.725154" y="293.624471" style="fill-opacity: 0; stroke: #ff0000; stroke-width: 1.5; stroke-linejoin: miter"/>
     <use xlink:href="#m5937a2c38a" x="304.725154" y="293.624471" style="fill-opacity: 0; stroke: #ff0000; stroke-width: 1.5; stroke-linejoin: miter"/>
     <use xlink:href="#m5937a2c38a" x="360.8064" y="293.624471" style="fill-opacity: 0; stroke: #ff0000; stroke-width: 1.5; stroke-linejoin: miter"/>
    </g>
   </g>
   <g id="line2d_52">
    <path style="fill: none; stroke: #ff0000; stroke-width: 1.5; stroke-linecap: square"/>
    <g/>
   </g>
   <g id="line2d_53">
    <path d="M 274.176 297.170824 
" clip-path="url(#p48956a2695)" style="fill: none; stroke: #ff0000; stroke-width: 1.5; stroke-linecap: square"/>
    <defs>
     <path id="m238f795610" d="M -12 12 
L 12 -12 
M -12 -12 
L 12 12 
" style="stroke: #ff0000"/>
    </defs>
    <g clip-path="url(#p48956a2695)">
     <use xlink:href="#m238f795610" x="274.176" y="297.170824" style="fill: #ff0000; stroke: #ff0000"/>
    </g>
   </g>
   <g id="line2d_54">
    <path d="M 57.6 298.944 
L 57.6 298.944 
L 57.6 298.944 
L 57.6 298.944 
L 360.8064 298.944 
" clip-path="url(#p48956a2695)" style="fill: none; stroke: #bf00bf; stroke-width: 1.5; stroke-linecap: square"/>
   </g>
   <g id="line2d_55">
    <defs>
     <path id="m678ec27431" d="M 0 8.485281 
L 8.485281 0 
L 0 -8.485281 
L -8.485281 0 
z
" style="stroke: #bf00bf; stroke-width: 1.5; stroke-linejoin: miter"/>
    </defs>
    <g clip-path="url(#p48956a2695)">
     <use xlink:href="#m678ec27431" x="57.6" y="298.944" style="fill-opacity: 0; stroke: #bf00bf; stroke-width: 1.5; stroke-linejoin: miter"/>
    </g>
   </g>
   <g id="line2d_56">
    <path clip-path="url(#p48956a2695)" style="fill: none; stroke: #bf00bf; stroke-width: 1.5; stroke-linecap: square"/>
    <g clip-path="url(#p48956a2695)">
     <use xlink:href="#m678ec27431" x="-1" y="570.24" style="fill-opacity: 0; stroke: #bf00bf; stroke-width: 1.5; stroke-linejoin: miter"/>
     <use xlink:href="#m678ec27431" x="360.8064" y="570.24" style="fill-opacity: 0; stroke: #bf00bf; stroke-width: 1.5; stroke-linejoin: miter"/>
    </g>
   </g>
   <g id="line2d_57">
    <path d="M 274.176 298.944 
" clip-path="url(#p48956a2695)" style="fill: none; stroke: #bf00bf; stroke-width: 1.5; stroke-linecap: square"/>
    <defs>
     <path id="m85a0f340dd" d="M -12 12 
L 12 -12 
M -12 -12 
L 12 12 
" style="stroke: #bf00bf"/>
    </defs>
    <g clip-path="url(#p48956a2695)">
     <use xlink:href="#m85a0f340dd" x="274.176" y="298.944" style="fill: #bf00bf; stroke: #bf00bf"/>
    </g>
   </g>
   <g id="line2d_58">
    <path d="M 360.8064 298.944 
L 380.514816 293.51808 
" style="fill: none; stroke: #bf00bf; stroke-width: 1.5; stroke-linecap: square"/>
    <g>
     <use xlink:href="#m678ec27431" x="360.8064" y="298.944" style="fill-opacity: 0; stroke: #bf00bf; stroke-width: 1.5; stroke-linejoin: miter"/>
     <use xlink:href="#m678ec27431" x="380.514816" y="293.51808" style="fill-opacity: 0; stroke: #bf00bf; stroke-width: 1.5; stroke-linejoin: miter"/>
    </g>
   </g>
   <g id="line2d_59">
    <path d="M 360.8064 293.624471 
L 380.514816 241.429248 
" style="fill: none; stroke: #ff0000; stroke-width: 1.5; stroke-linecap: square"/>
    <g>
     <use xlink:href="#m5937a2c38a" x="360.8064" y="293.624471" style="fill-opacity: 0; stroke: #ff0000; stroke-width: 1.5; stroke-linejoin: miter"/>
     <use xlink:href="#m5937a2c38a" x="380.514816" y="241.429248" style="fill-opacity: 0; stroke: #ff0000; stroke-width: 1.5; stroke-linejoin: miter"/>
    </g>
   </g>
   <g id="line2d_60">
    <path d="M 360.8064 267.026824 
L 380.514816 189.340416 
" style="fill: none; stroke: #000000; stroke-width: 1.5; stroke-linecap: square"/>
    <g>
     <use xlink:href="#m9355ed52de" x="360.8064" y="267.026824" style="fill-opacity: 0; stroke: #000000; stroke-width: 1.5"/>
     <use xlink:href="#m9355ed52de" x="380.514816" y="189.340416" style="fill-opacity: 0; stroke: #000000; stroke-width: 1.5"/>
    </g>
   </g>
   <g id="line2d_61">
    <path d="M 360.8064 251.068235 
L 380.514816 137.251584 
" style="fill: none; stroke: #0000ff; stroke-width: 1.5; stroke-linecap: square"/>
    <g>
     <use xlink:href="#m893313e1bc" x="360.8064" y="251.068235" style="fill-opacity: 0; stroke: #0000ff; stroke-width: 1.5; stroke-linejoin: bevel"/>
     <use xlink:href="#m893313e1bc" x="380.514816" y="137.251584" style="fill-opacity: 0; stroke: #0000ff; stroke-width: 1.5; stroke-linejoin: bevel"/>
    </g>
   </g>
   <g id="line2d_62">
    <path d="M 360.8064 28.002635 
L 380.514816 85.162752 
" style="fill: none; stroke: #008000; stroke-width: 1.5; stroke-linecap: square"/>
    <g>
     <use xlink:href="#m3a7c062780" x="360.8064" y="28.002635" style="fill-opacity: 0; stroke: #008000; stroke-width: 1.5; stroke-linejoin: miter"/>
     <use xlink:href="#m3a7c062780" x="380.514816" y="85.162752" style="fill-opacity: 0; stroke: #008000; stroke-width: 1.5; stroke-linejoin: miter"/>
    </g>
   </g>
   <g id="line2d_63">
    <path d="M 360.8064 27.648 
L 380.514816 33.07392 
" style="fill: none; stroke: #00bfbf; stroke-width: 1.5; stroke-linecap: square"/>
    <g>
     <use xlink:href="#m26d8f005ff" x="360.8064" y="27.648" style="fill-opacity: 0; stroke: #00bfbf; stroke-width: 1.5"/>
     <use xlink:href="#m26d8f005ff" x="380.514816" y="33.07392" style="fill-opacity: 0; stroke: #00bfbf; stroke-width: 1.5"/>
    </g>
   </g>
   <g id="line2d_64">
    <path d="M 360.8064 298.944 
L 360.8064 27.648 
" style="fill: none; stroke: #000000; stroke-width: 1.5; stroke-linecap: square"/>
   </g>
   <g id="patch_3">
    <path d="M 57.6 298.944 
L 360.8064 298.944 
" style="fill: none; stroke: #000000; stroke-width: 0.8; stroke-linejoin: miter; stroke-linecap: square"/>
   </g>
   <g id="patch_4">
    <path d="M 57.6 27.648 
L 360.8064 27.648 
" style="fill: none; stroke: #000000; stroke-width: 0.8; stroke-linejoin: miter; stroke-linecap: square"/>
   </g>
   <g id="text_13">
    <!-- 40-D -->
    <g transform="translate(386.578944 297.381205)scale(0.14 -0.14)">
     <defs>
      <path id="DejaVuSans-44" d="M 1259 4147 
L 1259 519 
L 2022 519 
Q 2988 519 3436 956 
Q 3884 1394 3884 2338 
Q 3884 3275 3436 3711 
Q 2988 4147 2022 4147 
L 1259 4147 
z
M 628 4666 
L 1925 4666 
Q 3281 4666 3915 4102 
Q 4550 3538 4550 2338 
Q 4550 1131 3912 565 
Q 3275 0 1925 0 
L 628 0 
L 628 4666 
z
" transform="scale(0.015625)"/>
     </defs>
     <use xlink:href="#DejaVuSans-34"/>
     <use xlink:href="#DejaVuSans-30" x="63.623047"/>
     <use xlink:href="#DejaVuSans-2d" x="127.246094"/>
     <use xlink:href="#DejaVuSans-44" x="163.330078"/>
    </g>
   </g>
   <g id="text_14">
    <!-- 20-D -->
    <g transform="translate(386.578944 245.292373)scale(0.14 -0.14)">
     <use xlink:href="#DejaVuSans-32"/>
     <use xlink:href="#DejaVuSans-30" x="63.623047"/>
     <use xlink:href="#DejaVuSans-2d" x="127.246094"/>
     <use xlink:href="#DejaVuSans-44" x="163.330078"/>
    </g>
   </g>
   <g id="text_15">
    <!-- 10-D -->
    <g transform="translate(386.578944 193.203541)scale(0.14 -0.14)">
     <use xlink:href="#DejaVuSans-31"/>
     <use xlink:href="#DejaVuSans-30" x="63.623047"/>
     <use xlink:href="#DejaVuSans-2d" x="127.246094"/>
     <use xlink:href="#DejaVuSans-44" x="163.330078"/>
    </g>
   </g>
   <g id="text_16">
    <!-- 5-D -->
    <g transform="translate(386.578944 141.114709)scale(0.14 -0.14)">
     <defs>
      <path id="DejaVuSans-35" d="M 691 4666 
L 3169 4666 
L 3169 4134 
L 1269 4134 
L 1269 2991 
Q 1406 3038 1543 3061 
Q 1681 3084 1819 3084 
Q 2600 3084 3056 2656 
Q 3513 2228 3513 1497 
Q 3513 744 3044 326 
Q 2575 -91 1722 -91 
Q 1428 -91 1123 -41 
Q 819 9 494 109 
L 494 744 
Q 775 591 1075 516 
Q 1375 441 1709 441 
Q 2250 441 2565 725 
Q 2881 1009 2881 1497 
Q 2881 1984 2565 2268 
Q 2250 2553 1709 2553 
Q 1456 2553 1204 2497 
Q 953 2441 691 2322 
L 691 4666 
z
" transform="scale(0.015625)"/>
     </defs>
     <use xlink:href="#DejaVuSans-35"/>
     <use xlink:href="#DejaVuSans-2d" x="63.623047"/>
     <use xlink:href="#DejaVuSans-44" x="99.707031"/>
    </g>
   </g>
   <g id="text_17">
    <!-- 3-D -->
    <g transform="translate(386.578944 89.025877)scale(0.14 -0.14)">
     <defs>
      <path id="DejaVuSans-33" d="M 2597 2516 
Q 3050 2419 3304 2112 
Q 3559 1806 3559 1356 
Q 3559 666 3084 287 
Q 2609 -91 1734 -91 
Q 1441 -91 1130 -33 
Q 819 25 488 141 
L 488 750 
Q 750 597 1062 519 
Q 1375 441 1716 441 
Q 2309 441 2620 675 
Q 2931 909 2931 1356 
Q 2931 1769 2642 2001 
Q 2353 2234 1838 2234 
L 1294 2234 
L 1294 2753 
L 1863 2753 
Q 2328 2753 2575 2939 
Q 2822 3125 2822 3475 
Q 2822 3834 2567 4026 
Q 2313 4219 1838 4219 
Q 1578 4219 1281 4162 
Q 984 4106 628 3988 
L 628 4550 
Q 988 4650 1302 4700 
Q 1616 4750 1894 4750 
Q 2613 4750 3031 4423 
Q 3450 4097 3450 3541 
Q 3450 3153 3228 2886 
Q 3006 2619 2597 2516 
z
" transform="scale(0.015625)"/>
     </defs>
     <use xlink:href="#DejaVuSans-33"/>
     <use xlink:href="#DejaVuSans-2d" x="63.623047"/>
     <use xlink:href="#DejaVuSans-44" x="99.707031"/>
    </g>
   </g>
   <g id="text_18">
    <!-- 2-D -->
    <g transform="translate(386.578944 36.937045)scale(0.14 -0.14)">
     <use xlink:href="#DejaVuSans-32"/>
     <use xlink:href="#DejaVuSans-2d" x="63.623047"/>
     <use xlink:href="#DejaVuSans-44" x="99.707031"/>
    </g>
   </g>
   <g id="text_19">
    <!-- bbob f15 -->
    <g transform="translate(60.632064 38.111366)scale(0.102 -0.102)">
     <defs>
      <path id="DejaVuSans-62" d="M 3116 1747 
Q 3116 2381 2855 2742 
Q 2594 3103 2138 3103 
Q 1681 3103 1420 2742 
Q 1159 2381 1159 1747 
Q 1159 1113 1420 752 
Q 1681 391 2138 391 
Q 2594 391 2855 752 
Q 3116 1113 3116 1747 
z
M 1159 2969 
Q 1341 3281 1617 3432 
Q 1894 3584 2278 3584 
Q 2916 3584 3314 3078 
Q 3713 2572 3713 1747 
Q 3713 922 3314 415 
Q 2916 -91 2278 -91 
Q 1894 -91 1617 61 
Q 1341 213 1159 525 
L 1159 0 
L 581 0 
L 581 4863 
L 1159 4863 
L 1159 2969 
z
" transform="scale(0.015625)"/>
     </defs>
     <use xlink:href="#DejaVuSans-62"/>
     <use xlink:href="#DejaVuSans-62" x="63.476562"/>
     <use xlink:href="#DejaVuSans-6f" x="126.953125"/>
     <use xlink:href="#DejaVuSans-62" x="188.134766"/>
     <use xlink:href="#DejaVuSans-20" x="251.611328"/>
     <use xlink:href="#DejaVuSans-66" x="283.398438"/>
     <use xlink:href="#DejaVuSans-31" x="318.603516"/>
     <use xlink:href="#DejaVuSans-35" x="382.226562"/>
    </g>
    <!-- 51 targets: 100..1e-08 -->
    <g transform="translate(60.632064 49.533135)scale(0.102 -0.102)">
     <defs>
      <path id="DejaVuSans-3a" d="M 750 794 
L 1409 794 
L 1409 0 
L 750 0 
L 750 794 
z
M 750 3309 
L 1409 3309 
L 1409 2516 
L 750 2516 
L 750 3309 
z
" transform="scale(0.015625)"/>
     </defs>
     <use xlink:href="#DejaVuSans-35"/>
     <use xlink:href="#DejaVuSans-31" x="63.623047"/>
     <use xlink:href="#DejaVuSans-20" x="127.246094"/>
     <use xlink:href="#DejaVuSans-74" x="159.033203"/>
     <use xlink:href="#DejaVuSans-61" x="198.242188"/>
     <use xlink:href="#DejaVuSans-72" x="259.521484"/>
     <use xlink:href="#DejaVuSans-67" x="298.884766"/>
     <use xlink:href="#DejaVuSans-65" x="362.361328"/>
     <use xlink:href="#DejaVuSans-74" x="423.884766"/>
     <use xlink:href="#DejaVuSans-73" x="463.09375"/>
     <use xlink:href="#DejaVuSans-3a" x="515.193359"/>
     <use xlink:href="#DejaVuSans-20" x="548.884766"/>
     <use xlink:href="#DejaVuSans-31" x="580.671875"/>
     <use xlink:href="#DejaVuSans-30" x="644.294922"/>
     <use xlink:href="#DejaVuSans-30" x="707.917969"/>
     <use xlink:href="#DejaVuSans-2e" x="771.541016"/>
     <use xlink:href="#DejaVuSans-2e" x="803.328125"/>
     <use xlink:href="#DejaVuSans-31" x="835.115234"/>
     <use xlink:href="#DejaVuSans-65" x="898.738281"/>
     <use xlink:href="#DejaVuSans-2d" x="960.261719"/>
     <use xlink:href="#DejaVuSans-30" x="996.345703"/>
     <use xlink:href="#DejaVuSans-38" x="1059.96875"/>
    </g>
    <!-- 15 instances -->
    <g transform="translate(60.632064 60.954904)scale(0.102 -0.102)">
     <use xlink:href="#DejaVuSans-31"/>
     <use xlink:href="#DejaVuSans-35" x="63.623047"/>
     <use xlink:href="#DejaVuSans-20" x="127.246094"/>
     <use xlink:href="#DejaVuSans-69" x="159.033203"/>
     <use xlink:href="#DejaVuSans-6e" x="186.816406"/>
     <use xlink:href="#DejaVuSans-73" x="250.195312"/>
     <use xlink:href="#DejaVuSans-74" x="302.294922"/>
     <use xlink:href="#DejaVuSans-61" x="341.503906"/>
     <use xlink:href="#DejaVuSans-6e" x="402.783203"/>
     <use xlink:href="#DejaVuSans-63" x="466.162109"/>
     <use xlink:href="#DejaVuSans-65" x="521.142578"/>
     <use xlink:href="#DejaVuSans-73" x="582.666016"/>
    </g>
   </g>
   <g id="text_20">
    <!-- v2.6 -->
    <g style="fill: #808080" transform="translate(198.292262 294.151352)scale(0.1 -0.1)">
     <use xlink:href="#DejaVuSans-76"/>
     <use xlink:href="#DejaVuSans-32" x="59.179688"/>
     <use xlink:href="#DejaVuSans-2e" x="122.802734"/>
     <use xlink:href="#DejaVuSans-36" x="154.589844"/>
    </g>
   </g>
   <g id="text_21">
    <!-- 15 Rastrigin -->
    <g transform="translate(148.9657 21.648)scale(0.2 -0.2)">
     <defs>
      <path id="DejaVuSans-52" d="M 2841 2188 
Q 3044 2119 3236 1894 
Q 3428 1669 3622 1275 
L 4263 0 
L 3584 0 
L 2988 1197 
Q 2756 1666 2539 1819 
Q 2322 1972 1947 1972 
L 1259 1972 
L 1259 0 
L 628 0 
L 628 4666 
L 2053 4666 
Q 2853 4666 3247 4331 
Q 3641 3997 3641 3322 
Q 3641 2881 3436 2590 
Q 3231 2300 2841 2188 
z
M 1259 4147 
L 1259 2491 
L 2053 2491 
Q 2509 2491 2742 2702 
Q 2975 2913 2975 3322 
Q 2975 3731 2742 3939 
Q 2509 4147 2053 4147 
L 1259 4147 
z
" transform="scale(0.015625)"/>
     </defs>
     <use xlink:href="#DejaVuSans-31"/>
     <use xlink:href="#DejaVuSans-35" x="63.623047"/>
     <use xlink:href="#DejaVuSans-20" x="127.246094"/>
     <use xlink:href="#DejaVuSans-52" x="159.033203"/>
     <use xlink:href="#DejaVuSans-61" x="226.265625"/>
     <use xlink:href="#DejaVuSans-73" x="287.544922"/>
     <use xlink:href="#DejaVuSans-74" x="339.644531"/>
     <use xlink:href="#DejaVuSans-72" x="378.853516"/>
     <use xlink:href="#DejaVuSans-69" x="419.966797"/>
     <use xlink:href="#DejaVuSans-67" x="447.75"/>
     <use xlink:href="#DejaVuSans-69" x="511.226562"/>
     <use xlink:href="#DejaVuSans-6e" x="539.009766"/>
    </g>
   </g>
  </g>
 </g>
 <defs>
  <clipPath id="p48956a2695">
   <rect x="57.6" y="27.648" width="303.2064" height="271.296"/>
  </clipPath>
 </defs>
</svg>
