<?xml version="1.0" encoding="utf-8" standalone="no"?>
<!DOCTYPE svg PUBLIC "-//W3C//DTD SVG 1.1//EN"
  "http://www.w3.org/Graphics/SVG/1.1/DTD/svg11.dtd">
<svg xmlns:xlink="http://www.w3.org/1999/xlink" width="460.8pt" height="345.6pt" viewBox="0 0 460.8 345.6" xmlns="http://www.w3.org/2000/svg" version="1.1">
 <metadata>
  <rdf:RDF xmlns:dc="http://purl.org/dc/elements/1.1/" xmlns:cc="http://creativecommons.org/ns#" xmlns:rdf="http://www.w3.org/1999/02/22-rdf-syntax-ns#">
   <cc:Work>
    <dc:type rdf:resource="http://purl.org/dc/dcmitype/StillImage"/>
    <dc:date>2024-05-29T07:56:43.641247</dc:date>
    <dc:format>image/svg+xml</dc:format>
    <dc:creator>
     <cc:Agent>
      <dc:title>Matplotlib v3.5.1, https://matplotlib.org/</dc:title>
     </cc:Agent>
    </dc:creator>
   </cc:Work>
  </rdf:RDF>
 </metadata>
 <defs>
  <style type="text/css">*{stroke-linejoin: round; stroke-linecap: butt}</style>
 </defs>
 <g id="figure_1">
  <g id="patch_1">
   <path d="M 0 345.6 
L 460.8 345.6 
L 460.8 0 
L 0 0 
z
" style="fill: #ffffff"/>
  </g>
  <g id="axes_1">
   <g id="patch_2">
    <path d="M 57.6 298.944 
L 360.8064 298.944 
L 360.8064 6.912 
L 57.6 6.912 
z
" style="fill: #ffffff"/>
   </g>
   <g id="matplotlib.axis_1">
    <g id="xtick_1">
     <g id="line2d_1">
      <path d="M 57.6 298.944 
L 57.6 6.912 
" clip-path="url(#p5a96f2da50)" style="fill: none; stroke: #b0b0b0; stroke-width: 0.8; stroke-linecap: square"/>
     </g>
     <g id="line2d_2">
      <defs>
       <path id="mbd121267fc" d="M 0 0 
L 0 3.5 
" style="stroke: #000000; stroke-width: 0.8"/>
      </defs>
      <g>
       <use xlink:href="#mbd121267fc" x="57.6" y="298.944" style="stroke: #000000; stroke-width: 0.8"/>
      </g>
     </g>
     <g id="text_1">
      <!-- 0 -->
      <g transform="translate(52.191875 318.861344)scale(0.17 -0.17)">
       <defs>
        <path id="DejaVuSans-30" d="M 2034 4250 
Q 1547 4250 1301 3770 
Q 1056 3291 1056 2328 
Q 1056 1369 1301 889 
Q 1547 409 2034 409 
Q 2525 409 2770 889 
Q 3016 1369 3016 2328 
Q 3016 3291 2770 3770 
Q 2525 4250 2034 4250 
z
M 2034 4750 
Q 2819 4750 3233 4129 
Q 3647 3509 3647 2328 
Q 3647 1150 3233 529 
Q 2819 -91 2034 -91 
Q 1250 -91 836 529 
Q 422 1150 422 2328 
Q 422 3509 836 4129 
Q 1250 4750 2034 4750 
z
" transform="scale(0.015625)"/>
       </defs>
       <use xlink:href="#DejaVuSans-30"/>
      </g>
     </g>
    </g>
    <g id="xtick_2">
     <g id="line2d_3">
      <path d="M 144.2304 298.944 
L 144.2304 6.912 
" clip-path="url(#p5a96f2da50)" style="fill: none; stroke: #b0b0b0; stroke-width: 0.8; stroke-linecap: square"/>
     </g>
     <g id="line2d_4">
      <g>
       <use xlink:href="#mbd121267fc" x="144.2304" y="298.944" style="stroke: #000000; stroke-width: 0.8"/>
      </g>
     </g>
     <g id="text_2">
      <!-- 2 -->
      <g transform="translate(138.822275 318.861344)scale(0.17 -0.17)">
       <defs>
        <path id="DejaVuSans-32" d="M 1228 531 
L 3431 531 
L 3431 0 
L 469 0 
L 469 531 
Q 828 903 1448 1529 
Q 2069 2156 2228 2338 
Q 2531 2678 2651 2914 
Q 2772 3150 2772 3378 
Q 2772 3750 2511 3984 
Q 2250 4219 1831 4219 
Q 1534 4219 1204 4116 
Q 875 4013 500 3803 
L 500 4441 
Q 881 4594 1212 4672 
Q 1544 4750 1819 4750 
Q 2544 4750 2975 4387 
Q 3406 4025 3406 3419 
Q 3406 3131 3298 2873 
Q 3191 2616 2906 2266 
Q 2828 2175 2409 1742 
Q 1991 1309 1228 531 
z
" transform="scale(0.015625)"/>
       </defs>
       <use xlink:href="#DejaVuSans-32"/>
      </g>
     </g>
    </g>
    <g id="xtick_3">
     <g id="line2d_5">
      <path d="M 230.8608 298.944 
L 230.8608 6.912 
" clip-path="url(#p5a96f2da50)" style="fill: none; stroke: #b0b0b0; stroke-width: 0.8; stroke-linecap: square"/>
     </g>
     <g id="line2d_6">
      <g>
       <use xlink:href="#mbd121267fc" x="230.8608" y="298.944" style="stroke: #000000; stroke-width: 0.8"/>
      </g>
     </g>
     <g id="text_3">
      <!-- 4 -->
      <g transform="translate(225.452675 318.861344)scale(0.17 -0.17)">
       <defs>
        <path id="DejaVuSans-34" d="M 2419 4116 
L 825 1625 
L 2419 1625 
L 2419 4116 
z
M 2253 4666 
L 3047 4666 
L 3047 1625 
L 3713 1625 
L 3713 1100 
L 3047 1100 
L 3047 0 
L 2419 0 
L 2419 1100 
L 313 1100 
L 313 1709 
L 2253 4666 
z
" transform="scale(0.015625)"/>
       </defs>
       <use xlink:href="#DejaVuSans-34"/>
      </g>
     </g>
    </g>
    <g id="xtick_4">
     <g id="line2d_7">
      <path d="M 317.4912 298.944 
L 317.4912 6.912 
" clip-path="url(#p5a96f2da50)" style="fill: none; stroke: #b0b0b0; stroke-width: 0.8; stroke-linecap: square"/>
     </g>
     <g id="line2d_8">
      <g>
       <use xlink:href="#mbd121267fc" x="317.4912" y="298.944" style="stroke: #000000; stroke-width: 0.8"/>
      </g>
     </g>
     <g id="text_4">
      <!-- 6 -->
      <g transform="translate(312.083075 318.861344)scale(0.17 -0.17)">
       <defs>
        <path id="DejaVuSans-36" d="M 2113 2584 
Q 1688 2584 1439 2293 
Q 1191 2003 1191 1497 
Q 1191 994 1439 701 
Q 1688 409 2113 409 
Q 2538 409 2786 701 
Q 3034 994 3034 1497 
Q 3034 2003 2786 2293 
Q 2538 2584 2113 2584 
z
M 3366 4563 
L 3366 3988 
Q 3128 4100 2886 4159 
Q 2644 4219 2406 4219 
Q 1781 4219 1451 3797 
Q 1122 3375 1075 2522 
Q 1259 2794 1537 2939 
Q 1816 3084 2150 3084 
Q 2853 3084 3261 2657 
Q 3669 2231 3669 1497 
Q 3669 778 3244 343 
Q 2819 -91 2113 -91 
Q 1303 -91 875 529 
Q 447 1150 447 2328 
Q 447 3434 972 4092 
Q 1497 4750 2381 4750 
Q 2619 4750 2861 4703 
Q 3103 4656 3366 4563 
z
" transform="scale(0.015625)"/>
       </defs>
       <use xlink:href="#DejaVuSans-36"/>
      </g>
     </g>
    </g>
    <g id="xtick_5">
     <g id="line2d_9">
      <path d="M 100.9152 298.944 
L 100.9152 6.912 
" clip-path="url(#p5a96f2da50)" style="fill: none; stroke: #b0b0b0; stroke-width: 0.8; stroke-linecap: square"/>
     </g>
     <g id="line2d_10">
      <defs>
       <path id="m91226c7ab1" d="M 0 0 
L 0 2 
" style="stroke: #000000; stroke-width: 0.6"/>
      </defs>
      <g>
       <use xlink:href="#m91226c7ab1" x="100.9152" y="298.944" style="stroke: #000000; stroke-width: 0.6"/>
      </g>
     </g>
    </g>
    <g id="xtick_6">
     <g id="line2d_11">
      <path d="M 187.5456 298.944 
L 187.5456 6.912 
" clip-path="url(#p5a96f2da50)" style="fill: none; stroke: #b0b0b0; stroke-width: 0.8; stroke-linecap: square"/>
     </g>
     <g id="line2d_12">
      <g>
       <use xlink:href="#m91226c7ab1" x="187.5456" y="298.944" style="stroke: #000000; stroke-width: 0.6"/>
      </g>
     </g>
    </g>
    <g id="xtick_7">
     <g id="line2d_13">
      <path d="M 274.176 298.944 
L 274.176 6.912 
" clip-path="url(#p5a96f2da50)" style="fill: none; stroke: #b0b0b0; stroke-width: 0.8; stroke-linecap: square"/>
     </g>
     <g id="line2d_14">
      <g>
       <use xlink:href="#m91226c7ab1" x="274.176" y="298.944" style="stroke: #000000; stroke-width: 0.6"/>
      </g>
     </g>
    </g>
    <g id="xtick_8">
     <g id="line2d_15">
      <path d="M 360.8064 298.944 
L 360.8064 6.912 
" clip-path="url(#p5a96f2da50)" style="fill: none; stroke: #b0b0b0; stroke-width: 0.8; stroke-linecap: square"/>
     </g>
     <g id="line2d_16">
      <g>
       <use xlink:href="#m91226c7ab1" x="360.8064" y="298.944" style="stroke: #000000; stroke-width: 0.6"/>
      </g>
     </g>
    </g>
    <g id="text_5">
     <!-- log10(# f-evals / dimension) -->
     <g transform="translate(88.823278 339.314156)scale(0.17 -0.17)">
      <defs>
       <path id="DejaVuSans-6c" d="M 603 4863 
L 1178 4863 
L 1178 0 
L 603 0 
L 603 4863 
z
" transform="scale(0.015625)"/>
       <path id="DejaVuSans-6f" d="M 1959 3097 
Q 1497 3097 1228 2736 
Q 959 2375 959 1747 
Q 959 1119 1226 758 
Q 1494 397 1959 397 
Q 2419 397 2687 759 
Q 2956 1122 2956 1747 
Q 2956 2369 2687 2733 
Q 2419 3097 1959 3097 
z
M 1959 3584 
Q 2709 3584 3137 3096 
Q 3566 2609 3566 1747 
Q 3566 888 3137 398 
Q 2709 -91 1959 -91 
Q 1206 -91 779 398 
Q 353 888 353 1747 
Q 353 2609 779 3096 
Q 1206 3584 1959 3584 
z
" transform="scale(0.015625)"/>
       <path id="DejaVuSans-67" d="M 2906 1791 
Q 2906 2416 2648 2759 
Q 2391 3103 1925 3103 
Q 1463 3103 1205 2759 
Q 947 2416 947 1791 
Q 947 1169 1205 825 
Q 1463 481 1925 481 
Q 2391 481 2648 825 
Q 2906 1169 2906 1791 
z
M 3481 434 
Q 3481 -459 3084 -895 
Q 2688 -1331 1869 -1331 
Q 1566 -1331 1297 -1286 
Q 1028 -1241 775 -1147 
L 775 -588 
Q 1028 -725 1275 -790 
Q 1522 -856 1778 -856 
Q 2344 -856 2625 -561 
Q 2906 -266 2906 331 
L 2906 616 
Q 2728 306 2450 153 
Q 2172 0 1784 0 
Q 1141 0 747 490 
Q 353 981 353 1791 
Q 353 2603 747 3093 
Q 1141 3584 1784 3584 
Q 2172 3584 2450 3431 
Q 2728 3278 2906 2969 
L 2906 3500 
L 3481 3500 
L 3481 434 
z
" transform="scale(0.015625)"/>
       <path id="DejaVuSans-31" d="M 794 531 
L 1825 531 
L 1825 4091 
L 703 3866 
L 703 4441 
L 1819 4666 
L 2450 4666 
L 2450 531 
L 3481 531 
L 3481 0 
L 794 0 
L 794 531 
z
" transform="scale(0.015625)"/>
       <path id="DejaVuSans-28" d="M 1984 4856 
Q 1566 4138 1362 3434 
Q 1159 2731 1159 2009 
Q 1159 1288 1364 580 
Q 1569 -128 1984 -844 
L 1484 -844 
Q 1016 -109 783 600 
Q 550 1309 550 2009 
Q 550 2706 781 3412 
Q 1013 4119 1484 4856 
L 1984 4856 
z
" transform="scale(0.015625)"/>
       <path id="DejaVuSans-23" d="M 3272 2816 
L 2363 2816 
L 2100 1772 
L 3016 1772 
L 3272 2816 
z
M 2803 4594 
L 2478 3297 
L 3391 3297 
L 3719 4594 
L 4219 4594 
L 3897 3297 
L 4872 3297 
L 4872 2816 
L 3775 2816 
L 3519 1772 
L 4513 1772 
L 4513 1294 
L 3397 1294 
L 3072 0 
L 2572 0 
L 2894 1294 
L 1978 1294 
L 1656 0 
L 1153 0 
L 1478 1294 
L 494 1294 
L 494 1772 
L 1594 1772 
L 1856 2816 
L 850 2816 
L 850 3297 
L 1978 3297 
L 2297 4594 
L 2803 4594 
z
" transform="scale(0.015625)"/>
       <path id="DejaVuSans-20" transform="scale(0.015625)"/>
       <path id="DejaVuSans-66" d="M 2375 4863 
L 2375 4384 
L 1825 4384 
Q 1516 4384 1395 4259 
Q 1275 4134 1275 3809 
L 1275 3500 
L 2222 3500 
L 2222 3053 
L 1275 3053 
L 1275 0 
L 697 0 
L 697 3053 
L 147 3053 
L 147 3500 
L 697 3500 
L 697 3744 
Q 697 4328 969 4595 
Q 1241 4863 1831 4863 
L 2375 4863 
z
" transform="scale(0.015625)"/>
       <path id="DejaVuSans-2d" d="M 313 2009 
L 1997 2009 
L 1997 1497 
L 313 1497 
L 313 2009 
z
" transform="scale(0.015625)"/>
       <path id="DejaVuSans-65" d="M 3597 1894 
L 3597 1613 
L 953 1613 
Q 991 1019 1311 708 
Q 1631 397 2203 397 
Q 2534 397 2845 478 
Q 3156 559 3463 722 
L 3463 178 
Q 3153 47 2828 -22 
Q 2503 -91 2169 -91 
Q 1331 -91 842 396 
Q 353 884 353 1716 
Q 353 2575 817 3079 
Q 1281 3584 2069 3584 
Q 2775 3584 3186 3129 
Q 3597 2675 3597 1894 
z
M 3022 2063 
Q 3016 2534 2758 2815 
Q 2500 3097 2075 3097 
Q 1594 3097 1305 2825 
Q 1016 2553 972 2059 
L 3022 2063 
z
" transform="scale(0.015625)"/>
       <path id="DejaVuSans-76" d="M 191 3500 
L 800 3500 
L 1894 563 
L 2988 3500 
L 3597 3500 
L 2284 0 
L 1503 0 
L 191 3500 
z
" transform="scale(0.015625)"/>
       <path id="DejaVuSans-61" d="M 2194 1759 
Q 1497 1759 1228 1600 
Q 959 1441 959 1056 
Q 959 750 1161 570 
Q 1363 391 1709 391 
Q 2188 391 2477 730 
Q 2766 1069 2766 1631 
L 2766 1759 
L 2194 1759 
z
M 3341 1997 
L 3341 0 
L 2766 0 
L 2766 531 
Q 2569 213 2275 61 
Q 1981 -91 1556 -91 
Q 1019 -91 701 211 
Q 384 513 384 1019 
Q 384 1609 779 1909 
Q 1175 2209 1959 2209 
L 2766 2209 
L 2766 2266 
Q 2766 2663 2505 2880 
Q 2244 3097 1772 3097 
Q 1472 3097 1187 3025 
Q 903 2953 641 2809 
L 641 3341 
Q 956 3463 1253 3523 
Q 1550 3584 1831 3584 
Q 2591 3584 2966 3190 
Q 3341 2797 3341 1997 
z
" transform="scale(0.015625)"/>
       <path id="DejaVuSans-73" d="M 2834 3397 
L 2834 2853 
Q 2591 2978 2328 3040 
Q 2066 3103 1784 3103 
Q 1356 3103 1142 2972 
Q 928 2841 928 2578 
Q 928 2378 1081 2264 
Q 1234 2150 1697 2047 
L 1894 2003 
Q 2506 1872 2764 1633 
Q 3022 1394 3022 966 
Q 3022 478 2636 193 
Q 2250 -91 1575 -91 
Q 1294 -91 989 -36 
Q 684 19 347 128 
L 347 722 
Q 666 556 975 473 
Q 1284 391 1588 391 
Q 1994 391 2212 530 
Q 2431 669 2431 922 
Q 2431 1156 2273 1281 
Q 2116 1406 1581 1522 
L 1381 1569 
Q 847 1681 609 1914 
Q 372 2147 372 2553 
Q 372 3047 722 3315 
Q 1072 3584 1716 3584 
Q 2034 3584 2315 3537 
Q 2597 3491 2834 3397 
z
" transform="scale(0.015625)"/>
       <path id="DejaVuSans-2f" d="M 1625 4666 
L 2156 4666 
L 531 -594 
L 0 -594 
L 1625 4666 
z
" transform="scale(0.015625)"/>
       <path id="DejaVuSans-64" d="M 2906 2969 
L 2906 4863 
L 3481 4863 
L 3481 0 
L 2906 0 
L 2906 525 
Q 2725 213 2448 61 
Q 2172 -91 1784 -91 
Q 1150 -91 751 415 
Q 353 922 353 1747 
Q 353 2572 751 3078 
Q 1150 3584 1784 3584 
Q 2172 3584 2448 3432 
Q 2725 3281 2906 2969 
z
M 947 1747 
Q 947 1113 1208 752 
Q 1469 391 1925 391 
Q 2381 391 2643 752 
Q 2906 1113 2906 1747 
Q 2906 2381 2643 2742 
Q 2381 3103 1925 3103 
Q 1469 3103 1208 2742 
Q 947 2381 947 1747 
z
" transform="scale(0.015625)"/>
       <path id="DejaVuSans-69" d="M 603 3500 
L 1178 3500 
L 1178 0 
L 603 0 
L 603 3500 
z
M 603 4863 
L 1178 4863 
L 1178 4134 
L 603 4134 
L 603 4863 
z
" transform="scale(0.015625)"/>
       <path id="DejaVuSans-6d" d="M 3328 2828 
Q 3544 3216 3844 3400 
Q 4144 3584 4550 3584 
Q 5097 3584 5394 3201 
Q 5691 2819 5691 2113 
L 5691 0 
L 5113 0 
L 5113 2094 
Q 5113 2597 4934 2840 
Q 4756 3084 4391 3084 
Q 3944 3084 3684 2787 
Q 3425 2491 3425 1978 
L 3425 0 
L 2847 0 
L 2847 2094 
Q 2847 2600 2669 2842 
Q 2491 3084 2119 3084 
Q 1678 3084 1418 2786 
Q 1159 2488 1159 1978 
L 1159 0 
L 581 0 
L 581 3500 
L 1159 3500 
L 1159 2956 
Q 1356 3278 1631 3431 
Q 1906 3584 2284 3584 
Q 2666 3584 2933 3390 
Q 3200 3197 3328 2828 
z
" transform="scale(0.015625)"/>
       <path id="DejaVuSans-6e" d="M 3513 2113 
L 3513 0 
L 2938 0 
L 2938 2094 
Q 2938 2591 2744 2837 
Q 2550 3084 2163 3084 
Q 1697 3084 1428 2787 
Q 1159 2491 1159 1978 
L 1159 0 
L 581 0 
L 581 3500 
L 1159 3500 
L 1159 2956 
Q 1366 3272 1645 3428 
Q 1925 3584 2291 3584 
Q 2894 3584 3203 3211 
Q 3513 2838 3513 2113 
z
" transform="scale(0.015625)"/>
       <path id="DejaVuSans-29" d="M 513 4856 
L 1013 4856 
Q 1481 4119 1714 3412 
Q 1947 2706 1947 2009 
Q 1947 1309 1714 600 
Q 1481 -109 1013 -844 
L 513 -844 
Q 928 -128 1133 580 
Q 1338 1288 1338 2009 
Q 1338 2731 1133 3434 
Q 928 4138 513 4856 
z
" transform="scale(0.015625)"/>
      </defs>
      <use xlink:href="#DejaVuSans-6c"/>
      <use xlink:href="#DejaVuSans-6f" x="27.783203"/>
      <use xlink:href="#DejaVuSans-67" x="88.964844"/>
      <use xlink:href="#DejaVuSans-31" x="152.441406"/>
      <use xlink:href="#DejaVuSans-30" x="216.064453"/>
      <use xlink:href="#DejaVuSans-28" x="279.6875"/>
      <use xlink:href="#DejaVuSans-23" x="318.701172"/>
      <use xlink:href="#DejaVuSans-20" x="402.490234"/>
      <use xlink:href="#DejaVuSans-66" x="434.277344"/>
      <use xlink:href="#DejaVuSans-2d" x="463.982422"/>
      <use xlink:href="#DejaVuSans-65" x="500.066406"/>
      <use xlink:href="#DejaVuSans-76" x="561.589844"/>
      <use xlink:href="#DejaVuSans-61" x="620.769531"/>
      <use xlink:href="#DejaVuSans-6c" x="682.048828"/>
      <use xlink:href="#DejaVuSans-73" x="709.832031"/>
      <use xlink:href="#DejaVuSans-20" x="761.931641"/>
      <use xlink:href="#DejaVuSans-2f" x="793.71875"/>
      <use xlink:href="#DejaVuSans-20" x="827.410156"/>
      <use xlink:href="#DejaVuSans-64" x="859.197266"/>
      <use xlink:href="#DejaVuSans-69" x="922.673828"/>
      <use xlink:href="#DejaVuSans-6d" x="950.457031"/>
      <use xlink:href="#DejaVuSans-65" x="1047.869141"/>
      <use xlink:href="#DejaVuSans-6e" x="1109.392578"/>
      <use xlink:href="#DejaVuSans-73" x="1172.771484"/>
      <use xlink:href="#DejaVuSans-69" x="1224.871094"/>
      <use xlink:href="#DejaVuSans-6f" x="1252.654297"/>
      <use xlink:href="#DejaVuSans-6e" x="1313.835938"/>
      <use xlink:href="#DejaVuSans-29" x="1377.214844"/>
     </g>
    </g>
   </g>
   <g id="matplotlib.axis_2">
    <g id="ytick_1">
     <g id="line2d_17">
      <path d="M 57.6 298.944 
L 360.8064 298.944 
" clip-path="url(#p5a96f2da50)" style="fill: none; stroke: #b0b0b0; stroke-width: 0.8; stroke-linecap: square"/>
     </g>
     <g id="line2d_18">
      <defs>
       <path id="mcebf6f388f" d="M 0 0 
L -3.5 0 
" style="stroke: #000000; stroke-width: 0.8"/>
      </defs>
      <g>
       <use xlink:href="#mcebf6f388f" x="57.6" y="298.944" style="stroke: #000000; stroke-width: 0.8"/>
      </g>
     </g>
     <g id="text_6">
      <!-- 0.0 -->
      <g transform="translate(25.155 305.02275)scale(0.16 -0.16)">
       <defs>
        <path id="DejaVuSans-2e" d="M 684 794 
L 1344 794 
L 1344 0 
L 684 0 
L 684 794 
z
" transform="scale(0.015625)"/>
       </defs>
       <use xlink:href="#DejaVuSans-30"/>
       <use xlink:href="#DejaVuSans-2e" x="63.623047"/>
       <use xlink:href="#DejaVuSans-30" x="95.410156"/>
      </g>
     </g>
    </g>
    <g id="ytick_2">
     <g id="line2d_19">
      <path d="M 57.6 240.5376 
L 360.8064 240.5376 
" clip-path="url(#p5a96f2da50)" style="fill: none; stroke: #b0b0b0; stroke-width: 0.8; stroke-linecap: square"/>
     </g>
     <g id="line2d_20">
      <g>
       <use xlink:href="#mcebf6f388f" x="57.6" y="240.5376" style="stroke: #000000; stroke-width: 0.8"/>
      </g>
     </g>
     <g id="text_7">
      <!-- 0.2 -->
      <g transform="translate(25.155 246.61635)scale(0.16 -0.16)">
       <use xlink:href="#DejaVuSans-30"/>
       <use xlink:href="#DejaVuSans-2e" x="63.623047"/>
       <use xlink:href="#DejaVuSans-32" x="95.410156"/>
      </g>
     </g>
    </g>
    <g id="ytick_3">
     <g id="line2d_21">
      <path d="M 57.6 182.1312 
L 360.8064 182.1312 
" clip-path="url(#p5a96f2da50)" style="fill: none; stroke: #b0b0b0; stroke-width: 0.8; stroke-linecap: square"/>
     </g>
     <g id="line2d_22">
      <g>
       <use xlink:href="#mcebf6f388f" x="57.6" y="182.1312" style="stroke: #000000; stroke-width: 0.8"/>
      </g>
     </g>
     <g id="text_8">
      <!-- 0.4 -->
      <g transform="translate(25.155 188.20995)scale(0.16 -0.16)">
       <use xlink:href="#DejaVuSans-30"/>
       <use xlink:href="#DejaVuSans-2e" x="63.623047"/>
       <use xlink:href="#DejaVuSans-34" x="95.410156"/>
      </g>
     </g>
    </g>
    <g id="ytick_4">
     <g id="line2d_23">
      <path d="M 57.6 123.7248 
L 360.8064 123.7248 
" clip-path="url(#p5a96f2da50)" style="fill: none; stroke: #b0b0b0; stroke-width: 0.8; stroke-linecap: square"/>
     </g>
     <g id="line2d_24">
      <g>
       <use xlink:href="#mcebf6f388f" x="57.6" y="123.7248" style="stroke: #000000; stroke-width: 0.8"/>
      </g>
     </g>
     <g id="text_9">
      <!-- 0.6 -->
      <g transform="translate(25.155 129.80355)scale(0.16 -0.16)">
       <use xlink:href="#DejaVuSans-30"/>
       <use xlink:href="#DejaVuSans-2e" x="63.623047"/>
       <use xlink:href="#DejaVuSans-36" x="95.410156"/>
      </g>
     </g>
    </g>
    <g id="ytick_5">
     <g id="line2d_25">
      <path d="M 57.6 65.3184 
L 360.8064 65.3184 
" clip-path="url(#p5a96f2da50)" style="fill: none; stroke: #b0b0b0; stroke-width: 0.8; stroke-linecap: square"/>
     </g>
     <g id="line2d_26">
      <g>
       <use xlink:href="#mcebf6f388f" x="57.6" y="65.3184" style="stroke: #000000; stroke-width: 0.8"/>
      </g>
     </g>
     <g id="text_10">
      <!-- 0.8 -->
      <g transform="translate(25.155 71.39715)scale(0.16 -0.16)">
       <defs>
        <path id="DejaVuSans-38" d="M 2034 2216 
Q 1584 2216 1326 1975 
Q 1069 1734 1069 1313 
Q 1069 891 1326 650 
Q 1584 409 2034 409 
Q 2484 409 2743 651 
Q 3003 894 3003 1313 
Q 3003 1734 2745 1975 
Q 2488 2216 2034 2216 
z
M 1403 2484 
Q 997 2584 770 2862 
Q 544 3141 544 3541 
Q 544 4100 942 4425 
Q 1341 4750 2034 4750 
Q 2731 4750 3128 4425 
Q 3525 4100 3525 3541 
Q 3525 3141 3298 2862 
Q 3072 2584 2669 2484 
Q 3125 2378 3379 2068 
Q 3634 1759 3634 1313 
Q 3634 634 3220 271 
Q 2806 -91 2034 -91 
Q 1263 -91 848 271 
Q 434 634 434 1313 
Q 434 1759 690 2068 
Q 947 2378 1403 2484 
z
M 1172 3481 
Q 1172 3119 1398 2916 
Q 1625 2713 2034 2713 
Q 2441 2713 2670 2916 
Q 2900 3119 2900 3481 
Q 2900 3844 2670 4047 
Q 2441 4250 2034 4250 
Q 1625 4250 1398 4047 
Q 1172 3844 1172 3481 
z
" transform="scale(0.015625)"/>
       </defs>
       <use xlink:href="#DejaVuSans-30"/>
       <use xlink:href="#DejaVuSans-2e" x="63.623047"/>
       <use xlink:href="#DejaVuSans-38" x="95.410156"/>
      </g>
     </g>
    </g>
    <g id="ytick_6">
     <g id="line2d_27">
      <path d="M 57.6 6.912 
L 360.8064 6.912 
" clip-path="url(#p5a96f2da50)" style="fill: none; stroke: #b0b0b0; stroke-width: 0.8; stroke-linecap: square"/>
     </g>
     <g id="line2d_28">
      <g>
       <use xlink:href="#mcebf6f388f" x="57.6" y="6.912" style="stroke: #000000; stroke-width: 0.8"/>
      </g>
     </g>
     <g id="text_11">
      <!-- 1.0 -->
      <g transform="translate(25.155 12.99075)scale(0.16 -0.16)">
       <use xlink:href="#DejaVuSans-31"/>
       <use xlink:href="#DejaVuSans-2e" x="63.623047"/>
       <use xlink:href="#DejaVuSans-30" x="95.410156"/>
      </g>
     </g>
    </g>
    <g id="text_12">
     <!-- Fraction of function,target pairs -->
     <g transform="translate(17.619531 287.313)rotate(-90)scale(0.17 -0.17)">
      <defs>
       <path id="DejaVuSans-46" d="M 628 4666 
L 3309 4666 
L 3309 4134 
L 1259 4134 
L 1259 2759 
L 3109 2759 
L 3109 2228 
L 1259 2228 
L 1259 0 
L 628 0 
L 628 4666 
z
" transform="scale(0.015625)"/>
       <path id="DejaVuSans-72" d="M 2631 2963 
Q 2534 3019 2420 3045 
Q 2306 3072 2169 3072 
Q 1681 3072 1420 2755 
Q 1159 2438 1159 1844 
L 1159 0 
L 581 0 
L 581 3500 
L 1159 3500 
L 1159 2956 
Q 1341 3275 1631 3429 
Q 1922 3584 2338 3584 
Q 2397 3584 2469 3576 
Q 2541 3569 2628 3553 
L 2631 2963 
z
" transform="scale(0.015625)"/>
       <path id="DejaVuSans-63" d="M 3122 3366 
L 3122 2828 
Q 2878 2963 2633 3030 
Q 2388 3097 2138 3097 
Q 1578 3097 1268 2742 
Q 959 2388 959 1747 
Q 959 1106 1268 751 
Q 1578 397 2138 397 
Q 2388 397 2633 464 
Q 2878 531 3122 666 
L 3122 134 
Q 2881 22 2623 -34 
Q 2366 -91 2075 -91 
Q 1284 -91 818 406 
Q 353 903 353 1747 
Q 353 2603 823 3093 
Q 1294 3584 2113 3584 
Q 2378 3584 2631 3529 
Q 2884 3475 3122 3366 
z
" transform="scale(0.015625)"/>
       <path id="DejaVuSans-74" d="M 1172 4494 
L 1172 3500 
L 2356 3500 
L 2356 3053 
L 1172 3053 
L 1172 1153 
Q 1172 725 1289 603 
Q 1406 481 1766 481 
L 2356 481 
L 2356 0 
L 1766 0 
Q 1100 0 847 248 
Q 594 497 594 1153 
L 594 3053 
L 172 3053 
L 172 3500 
L 594 3500 
L 594 4494 
L 1172 4494 
z
" transform="scale(0.015625)"/>
       <path id="DejaVuSans-75" d="M 544 1381 
L 544 3500 
L 1119 3500 
L 1119 1403 
Q 1119 906 1312 657 
Q 1506 409 1894 409 
Q 2359 409 2629 706 
Q 2900 1003 2900 1516 
L 2900 3500 
L 3475 3500 
L 3475 0 
L 2900 0 
L 2900 538 
Q 2691 219 2414 64 
Q 2138 -91 1772 -91 
Q 1169 -91 856 284 
Q 544 659 544 1381 
z
M 1991 3584 
L 1991 3584 
z
" transform="scale(0.015625)"/>
       <path id="DejaVuSans-2c" d="M 750 794 
L 1409 794 
L 1409 256 
L 897 -744 
L 494 -744 
L 750 256 
L 750 794 
z
" transform="scale(0.015625)"/>
       <path id="DejaVuSans-70" d="M 1159 525 
L 1159 -1331 
L 581 -1331 
L 581 3500 
L 1159 3500 
L 1159 2969 
Q 1341 3281 1617 3432 
Q 1894 3584 2278 3584 
Q 2916 3584 3314 3078 
Q 3713 2572 3713 1747 
Q 3713 922 3314 415 
Q 2916 -91 2278 -91 
Q 1894 -91 1617 61 
Q 1341 213 1159 525 
z
M 3116 1747 
Q 3116 2381 2855 2742 
Q 2594 3103 2138 3103 
Q 1681 3103 1420 2742 
Q 1159 2381 1159 1747 
Q 1159 1113 1420 752 
Q 1681 391 2138 391 
Q 2594 391 2855 752 
Q 3116 1113 3116 1747 
z
" transform="scale(0.015625)"/>
      </defs>
      <use xlink:href="#DejaVuSans-46"/>
      <use xlink:href="#DejaVuSans-72" x="50.269531"/>
      <use xlink:href="#DejaVuSans-61" x="91.382812"/>
      <use xlink:href="#DejaVuSans-63" x="152.662109"/>
      <use xlink:href="#DejaVuSans-74" x="207.642578"/>
      <use xlink:href="#DejaVuSans-69" x="246.851562"/>
      <use xlink:href="#DejaVuSans-6f" x="274.634766"/>
      <use xlink:href="#DejaVuSans-6e" x="335.816406"/>
      <use xlink:href="#DejaVuSans-20" x="399.195312"/>
      <use xlink:href="#DejaVuSans-6f" x="430.982422"/>
      <use xlink:href="#DejaVuSans-66" x="492.164062"/>
      <use xlink:href="#DejaVuSans-20" x="527.369141"/>
      <use xlink:href="#DejaVuSans-66" x="559.15625"/>
      <use xlink:href="#DejaVuSans-75" x="594.361328"/>
      <use xlink:href="#DejaVuSans-6e" x="657.740234"/>
      <use xlink:href="#DejaVuSans-63" x="721.119141"/>
      <use xlink:href="#DejaVuSans-74" x="776.099609"/>
      <use xlink:href="#DejaVuSans-69" x="815.308594"/>
      <use xlink:href="#DejaVuSans-6f" x="843.091797"/>
      <use xlink:href="#DejaVuSans-6e" x="904.273438"/>
      <use xlink:href="#DejaVuSans-2c" x="967.652344"/>
      <use xlink:href="#DejaVuSans-74" x="999.439453"/>
      <use xlink:href="#DejaVuSans-61" x="1038.648438"/>
      <use xlink:href="#DejaVuSans-72" x="1099.927734"/>
      <use xlink:href="#DejaVuSans-67" x="1139.291016"/>
      <use xlink:href="#DejaVuSans-65" x="1202.767578"/>
      <use xlink:href="#DejaVuSans-74" x="1264.291016"/>
      <use xlink:href="#DejaVuSans-20" x="1303.5"/>
      <use xlink:href="#DejaVuSans-70" x="1335.287109"/>
      <use xlink:href="#DejaVuSans-61" x="1398.763672"/>
      <use xlink:href="#DejaVuSans-69" x="1460.042969"/>
      <use xlink:href="#DejaVuSans-72" x="1487.826172"/>
      <use xlink:href="#DejaVuSans-73" x="1528.939453"/>
     </g>
    </g>
   </g>
   <g id="line2d_29">
    <defs>
     <path id="m11c2fb5611" d="M 0 1.5 
C 0.397805 1.5 0.77937 1.341951 1.06066 1.06066 
C 1.341951 0.77937 1.5 0.397805 1.5 0 
C 1.5 -0.397805 1.341951 -0.77937 1.06066 -1.06066 
C 0.77937 -1.341951 0.397805 -1.5 0 -1.5 
C -0.397805 -1.5 -0.77937 -1.341951 -1.06066 -1.06066 
C -1.341951 -0.77937 -1.5 -0.397805 -1.5 0 
C -1.5 0.397805 -1.341951 0.77937 -1.06066 1.06066 
C -0.77937 1.341951 -0.397805 1.5 0 1.5 
z
" style="stroke: #000080"/>
    </defs>
    <g>
     <use xlink:href="#m11c2fb5611" x="281.343811" y="6.912" style="fill: #000080; stroke: #000080"/>
     <use xlink:href="#m11c2fb5611" x="281.343811" y="6.912" style="fill: #000080; stroke: #000080"/>
    </g>
   </g>
   <g id="line2d_30">
    <path d="M 44.560826 298.944 
L 44.560826 296.653553 
L 57.6 296.653553 
L 57.6 295.126588 
L 65.227428 295.126588 
L 65.227428 284.056094 
L 70.639174 284.056094 
L 70.639174 282.147388 
L 74.836851 282.147388 
L 74.836851 281.383906 
L 81.166416 281.383906 
L 81.166416 280.620424 
L 83.678349 280.620424 
L 83.678349 279.093459 
L 89.668958 279.093459 
L 89.668958 277.184753 
L 91.305777 277.184753 
L 91.305777 276.039529 
L 92.811505 276.039529 
L 92.811505 274.130824 
L 94.205591 274.130824 
L 94.205591 272.9856 
L 95.503454 272.9856 
L 95.503454 269.931671 
L 96.717523 269.931671 
L 96.717523 268.786447 
L 98.933205 268.786447 
L 98.933205 267.259482 
L 107.244765 267.259482 
L 107.244765 264.205553 
L 108.542628 264.205553 
L 108.542628 262.678588 
L 109.159456 262.678588 
L 109.159456 260.388141 
L 109.756698 260.388141 
L 109.756698 256.570729 
L 112.989468 256.570729 
L 112.989468 256.188988 
L 113.478107 256.188988 
L 113.478107 254.280282 
L 115.314838 254.280282 
L 115.314838 251.989835 
L 118.524569 251.989835 
L 118.524569 251.608094 
L 119.599808 251.608094 
L 119.599808 250.844612 
L 119.944983 250.844612 
L 119.944983 249.317647 
L 122.795872 249.317647 
L 122.795872 248.935906 
L 128.133992 248.935906 
L 128.133992 247.790682 
L 132.46399 247.790682 
L 132.46399 247.408941 
L 135.835047 247.408941 
L 135.835047 243.591529 
L 136.836659 243.591529 
L 136.836659 243.209788 
L 137.250116 243.209788 
L 137.250116 242.828047 
L 137.654681 242.828047 
L 137.654681 241.301082 
L 139.067817 241.301082 
L 139.067817 240.919341 
L 143.066428 240.919341 
L 143.066428 240.155859 
L 147.423525 240.155859 
L 147.502732 239.392376 
L 148.200973 239.392376 
L 148.200973 237.483671 
L 148.800595 237.483671 
L 148.800595 235.956706 
L 150.357325 235.956706 
L 150.357325 234.811482 
L 151.089903 234.811482 
L 151.089903 233.284518 
L 152.894708 233.284518 
L 152.894708 232.902776 
L 154.212341 232.902776 
L 154.212341 230.230588 
L 157.916719 230.230588 
L 157.916719 229.467106 
L 158.187393 229.467106 
L 158.187393 229.085365 
L 159.359426 229.085365 
L 159.359426 228.703624 
L 163.328465 228.703624 
L 163.3965 225.649694 
L 163.531835 225.649694 
L 163.531835 224.504471 
L 163.79962 224.504471 
L 163.79962 224.122729 
L 163.997986 224.122729 
L 163.997986 223.740988 
L 164.388551 223.740988 
L 164.388551 222.595765 
L 166.169767 222.595765 
L 166.169767 220.687059 
L 166.460523 220.687059 
L 166.460523 217.633129 
L 166.860176 217.633129 
L 166.860176 216.869647 
L 166.972821 216.869647 
L 167.000877 215.724424 
L 167.16834 215.724424 
L 167.16834 215.342682 
L 167.306762 215.342682 
L 167.306762 214.960941 
L 167.661966 214.960941 
L 167.716022 214.197459 
L 167.796816 214.197459 
L 167.796816 213.815718 
L 167.930707 213.815718 
L 167.930707 213.433976 
L 168.195663 213.433976 
L 168.300609 212.670494 
L 169.244573 212.670494 
L 169.244573 211.907012 
L 170.09592 211.907012 
L 170.09592 211.525271 
L 170.49593 211.525271 
L 170.49593 210.761788 
L 170.864796 210.761788 
L 170.864796 210.380047 
L 171.360458 210.380047 
L 171.360458 209.616565 
L 173.10076 209.616565 
L 173.10076 209.234824 
L 173.302386 209.234824 
L 173.302386 207.707859 
L 173.442249 207.707859 
L 173.442249 206.944376 
L 173.972187 206.944376 
L 173.972187 206.562635 
L 174.260272 206.562635 
L 174.336355 204.272188 
L 174.393216 204.272188 
L 174.393216 203.508706 
L 174.581522 203.508706 
L 174.637648 202.745224 
L 174.767961 202.745224 
L 174.767961 201.981741 
L 177.826122 201.981741 
L 177.841883 201.218259 
L 178.169864 201.218259 
L 178.169864 200.454776 
L 178.613589 200.454776 
L 178.704102 198.927812 
L 179.017511 198.927812 
L 179.091369 198.164329 
L 179.714853 198.164329 
L 179.714853 197.782588 
L 180.59256 197.782588 
L 180.59256 197.400847 
L 182.383017 197.400847 
L 182.383017 197.019106 
L 183.158861 197.019106 
L 183.158861 196.637365 
L 183.823897 196.637365 
L 183.823897 196.255624 
L 184.006424 196.255624 
L 184.006424 195.873882 
L 185.076616 195.873882 
L 185.076616 195.492141 
L 185.268681 195.492141 
L 185.268681 194.728659 
L 186.038305 194.728659 
L 186.038305 193.965176 
L 186.361605 193.965176 
L 186.361605 193.201694 
L 186.580694 193.201694 
L 186.580694 192.819953 
L 187.732781 192.819953 
L 187.732781 192.438212 
L 188.065084 192.438212 
L 188.065084 192.056471 
L 188.328568 192.056471 
L 188.328568 191.674729 
L 189.201221 191.674729 
L 189.201221 191.292988 
L 189.902879 191.292988 
L 189.902879 190.529506 
L 190.043419 190.529506 
L 190.1338 186.330353 
L 191.154771 186.330353 
L 191.154771 185.948612 
L 192.423108 185.948612 
L 192.423108 184.803388 
L 194.181701 184.803388 
L 194.181701 184.421647 
L 194.64524 184.421647 
L 194.64524 182.512941 
L 195.686412 182.512941 
L 195.729075 181.749459 
L 196.132604 181.749459 
L 196.132604 181.367718 
L 197.107935 181.367718 
L 197.107935 180.985976 
L 197.851177 180.985976 
L 197.851177 180.604235 
L 198.105062 180.604235 
L 198.105062 180.222494 
L 198.344975 180.222494 
L 198.344975 179.840753 
L 199.036673 179.840753 
L 199.036673 179.459012 
L 199.199369 179.459012 
L 199.199369 179.077271 
L 199.530549 179.077271 
L 199.530549 178.695529 
L 199.753056 178.695529 
L 199.753056 178.313788 
L 199.953519 178.313788 
L 199.953519 177.932047 
L 200.271795 177.932047 
L 200.271795 177.550306 
L 200.785919 177.550306 
L 200.785919 177.168565 
L 201.358718 177.168565 
L 201.358718 176.786824 
L 201.672028 176.786824 
L 201.672028 176.405082 
L 202.076026 176.405082 
L 202.076026 176.023341 
L 202.394801 176.023341 
L 202.394801 174.496376 
L 202.917143 174.496376 
L 202.942054 173.732894 
L 203.489962 173.732894 
L 203.489962 173.351153 
L 204.084937 173.351153 
L 204.084937 172.205929 
L 204.410083 172.205929 
L 204.410083 171.824188 
L 204.857547 171.824188 
L 204.857547 171.442447 
L 205.331191 171.442447 
L 205.331191 171.060706 
L 206.139415 171.060706 
L 206.216268 168.388518 
L 207.250596 168.388518 
L 207.250596 167.625035 
L 208.149393 167.625035 
L 208.246659 166.479812 
L 208.380749 166.479812 
L 208.380749 166.098071 
L 208.627705 166.098071 
L 208.627705 165.716329 
L 209.520096 165.716329 
L 209.520096 165.334588 
L 209.720824 165.334588 
L 209.720824 164.952847 
L 209.89938 164.952847 
L 209.89938 164.571106 
L 210.025076 164.571106 
L 210.025076 164.189365 
L 210.316077 164.189365 
L 210.316077 163.807624 
L 211.932326 163.807624 
L 211.932326 163.425882 
L 212.088609 163.425882 
L 212.088609 163.044141 
L 212.943997 163.044141 
L 212.943997 162.6624 
L 213.224699 162.6624 
L 213.224699 162.280659 
L 214.093043 162.280659 
L 214.093043 161.898918 
L 214.436217 161.898918 
L 214.463222 160.753694 
L 215.31829 160.753694 
L 215.31829 160.371953 
L 215.862609 160.371953 
L 215.885558 159.608471 
L 216.047495 159.608471 
L 216.047495 159.226729 
L 217.014469 159.226729 
L 217.083071 158.463247 
L 217.403151 158.463247 
L 217.403151 158.081506 
L 218.474222 158.081506 
L 218.550382 157.318024 
L 219.133028 157.318024 
L 219.133028 156.936282 
L 219.444488 156.936282 
L 219.444488 156.554541 
L 221.460275 156.554541 
L 221.460275 156.1728 
L 221.648469 156.1728 
L 221.669946 154.645835 
L 221.903065 154.645835 
L 221.903065 154.264094 
L 222.097396 154.264094 
L 222.097396 153.882353 
L 223.381866 153.882353 
L 223.381866 153.118871 
L 223.547706 153.118871 
L 223.637677 151.973647 
L 223.735464 151.973647 
L 223.735464 151.210165 
L 223.855963 151.210165 
L 223.855963 148.537976 
L 224.000093 148.537976 
L 224.000093 148.156235 
L 224.224948 148.156235 
L 224.266394 147.011012 
L 224.525026 147.011012 
L 224.525026 146.629271 
L 224.748937 146.629271 
L 224.748937 146.247529 
L 224.901909 146.247529 
L 224.901909 145.484047 
L 225.113746 145.484047 
L 225.218141 144.338824 
L 226.120416 144.338824 
L 226.120416 143.957082 
L 226.483559 143.957082 
L 226.516766 143.1936 
L 227.117304 143.1936 
L 227.117304 142.430118 
L 227.633496 142.430118 
L 227.633496 142.048376 
L 227.800247 142.048376 
L 227.800247 141.666635 
L 228.283181 141.666635 
L 228.283181 141.284894 
L 228.437877 141.284894 
L 228.456056 138.994447 
L 229.079433 138.994447 
L 229.149614 136.322259 
L 229.23082 136.322259 
L 229.23082 135.940518 
L 229.621631 135.940518 
L 229.727821 133.268329 
L 229.90975 133.268329 
L 229.90975 132.886588 
L 230.186698 132.886588 
L 230.265499 131.741365 
L 230.588899 131.741365 
L 230.671738 130.977882 
L 231.398574 130.977882 
L 231.456984 130.2144 
L 232.53364 130.2144 
L 232.53364 129.832659 
L 234.129179 129.832659 
L 234.129179 129.450918 
L 234.457544 129.450918 
L 234.457544 129.069176 
L 234.589925 129.069176 
L 234.589925 128.687435 
L 235.257574 128.687435 
L 235.355598 127.923953 
L 235.371145 127.923953 
L 235.371145 127.542212 
L 235.644452 127.542212 
L 235.740485 126.396988 
L 235.921034 126.396988 
L 235.921034 126.015247 
L 236.257256 126.015247 
L 236.257256 125.633506 
L 236.616687 125.633506 
L 236.659583 124.106541 
L 236.751958 124.106541 
L 236.751958 123.343059 
L 236.917646 123.343059 
L 236.917646 122.579576 
L 237.18499 122.579576 
L 237.18499 122.197835 
L 237.405463 122.197835 
L 237.405463 121.816094 
L 238.143981 121.816094 
L 238.143981 121.434353 
L 238.481957 121.434353 
L 238.481957 121.052612 
L 238.634389 121.052612 
L 238.634389 120.670871 
L 239.603277 120.670871 
L 239.603277 120.289129 
L 239.883658 120.289129 
L 239.883658 119.907388 
L 240.183429 119.907388 
L 240.183429 119.525647 
L 240.40842 119.525647 
L 240.40842 119.143906 
L 241.165289 119.143906 
L 241.25698 117.998682 
L 241.533136 117.998682 
L 241.624648 116.471718 
L 241.773729 116.471718 
L 241.773729 116.089976 
L 242.486198 116.089976 
L 242.486198 115.708235 
L 242.902367 115.708235 
L 242.902367 115.326494 
L 243.07612 115.326494 
L 243.07612 114.944753 
L 243.293992 114.944753 
L 243.293992 113.799529 
L 243.446364 113.799529 
L 243.446364 113.417788 
L 243.56307 113.417788 
L 243.56307 112.654306 
L 243.938029 112.654306 
L 244.020452 110.363859 
L 244.116003 110.363859 
L 244.116003 109.982118 
L 244.257733 109.982118 
L 244.289084 109.218635 
L 244.550753 109.218635 
L 244.661277 108.455153 
L 244.697824 108.455153 
L 244.697824 108.073412 
L 245.032449 108.073412 
L 245.032449 107.691671 
L 245.145469 107.691671 
L 245.17142 106.164706 
L 245.509458 106.164706 
L 245.583568 105.019482 
L 245.641533 105.019482 
L 245.749683 102.729035 
L 245.779071 102.729035 
L 245.875431 100.820329 
L 245.911809 100.820329 
L 245.99193 99.675106 
L 246.05704 99.675106 
L 246.15783 97.7664 
L 246.184089 97.7664 
L 246.280888 95.475953 
L 246.300768 95.475953 
L 246.398617 94.712471 
L 246.426187 94.712471 
L 246.531158 92.803765 
L 246.539743 92.803765 
L 246.613983 88.986353 
L 246.672921 88.986353 
L 246.672921 87.841129 
L 246.937281 87.841129 
L 247.009173 86.314165 
L 247.169144 86.314165 
L 247.26495 85.550682 
L 247.295599 85.550682 
L 247.403261 84.7872 
L 247.419649 84.7872 
L 247.521563 81.351529 
L 247.540174 81.351529 
L 247.646064 76.770635 
L 247.654155 76.770635 
L 247.742928 75.625412 
L 247.777019 75.625412 
L 247.836244 74.480188 
L 247.915048 74.480188 
L 248.024898 72.189741 
L 248.069413 72.189741 
L 248.176494 66.081882 
L 248.226258 66.081882 
L 248.252023 63.791435 
L 248.379212 63.791435 
L 248.379212 62.646212 
L 248.493393 62.646212 
L 248.596263 60.737506 
L 248.628477 60.737506 
L 248.734978 57.683576 
L 248.779297 57.683576 
L 248.841602 54.629647 
L 248.906586 54.629647 
L 248.969549 51.193976 
L 249.204425 51.193976 
L 249.285131 50.048753 
L 249.4812 50.048753 
L 249.580907 48.903529 
L 250.063197 48.903529 
L 250.063197 48.521788 
L 250.293591 48.521788 
L 250.293591 47.758306 
L 250.618846 47.758306 
L 250.72679 46.231341 
L 250.730389 46.231341 
L 250.804493 44.322635 
L 250.867919 44.322635 
L 250.954094 42.795671 
L 251.054672 42.795671 
L 251.123349 41.650447 
L 251.314573 41.650447 
L 251.322816 40.886965 
L 252.33862 40.886965 
L 252.33862 40.505224 
L 253.1902 40.505224 
L 253.1902 40.123482 
L 253.519083 40.123482 
L 253.519083 39.741741 
L 253.682511 39.741741 
L 253.753672 37.451294 
L 253.882192 37.451294 
L 253.984545 36.687812 
L 254.063892 36.687812 
L 254.081966 34.015624 
L 254.177523 34.015624 
L 254.177523 33.252141 
L 254.360181 33.252141 
L 254.363418 31.343435 
L 254.640986 31.343435 
L 254.746703 30.579953 
L 254.92342 30.579953 
L 254.92342 30.198212 
L 255.422935 30.198212 
L 255.475622 28.671247 
L 255.701487 28.671247 
L 255.701487 27.907765 
L 256.597696 27.907765 
L 256.597696 27.526024 
L 256.765044 27.526024 
L 256.813161 26.762541 
L 256.932093 26.762541 
L 256.932093 25.999059 
L 257.068736 25.999059 
L 257.170978 24.090353 
L 257.340692 24.090353 
L 257.444675 22.945129 
L 257.505695 22.945129 
L 257.505695 21.036424 
L 257.625557 21.036424 
L 257.625557 20.654682 
L 257.896341 20.654682 
L 257.952796 19.8912 
L 258.080256 19.8912 
L 258.080256 19.509459 
L 258.273127 19.509459 
L 258.294581 18.364235 
L 258.405838 18.364235 
L 258.475962 17.600753 
L 258.621453 17.600753 
L 258.621453 17.219012 
L 259.722847 17.219012 
L 259.722847 16.837271 
L 259.871921 16.837271 
L 259.871921 16.073788 
L 260.001649 16.073788 
L 260.02641 14.546824 
L 262.504813 14.546824 
L 262.504813 14.165082 
L 262.695036 14.165082 
L 262.695036 13.783341 
L 275.819645 13.783341 
L 275.819645 13.4016 
L 276.290665 13.4016 
L 276.290665 13.019859 
L 277.550018 13.019859 
L 277.550018 12.638118 
L 277.883744 12.638118 
L 277.907439 11.874635 
L 278.054192 11.874635 
L 278.160961 10.347671 
L 278.264933 10.347671 
L 278.264933 9.584188 
L 278.468324 9.584188 
L 278.540508 8.820706 
L 278.947103 8.820706 
L 278.947103 8.438965 
L 279.68164 8.438965 
L 279.732531 7.293741 
L 281.343811 7.293741 
L 281.343811 6.912 
L 360.8064 6.912 
L 360.8064 6.912 
" style="fill: none; stroke: #000080; stroke-width: 1.5; stroke-linecap: square"/>
   </g>
   <g id="line2d_31">
    <defs>
     <path id="mc95c621722" d="M 0 6 
C 1.591219 6 3.117479 5.367802 4.242641 4.242641 
C 5.367802 3.117479 6 1.591219 6 0 
C 6 -1.591219 5.367802 -3.117479 4.242641 -4.242641 
C 3.117479 -5.367802 1.591219 -6 0 -6 
C -1.591219 -6 -3.117479 -5.367802 -4.242641 -4.242641 
C -5.367802 -3.117479 -6 -1.591219 -6 0 
C -6 1.591219 -5.367802 3.117479 -4.242641 4.242641 
C -3.117479 5.367802 -1.591219 6 0 6 
z
" style="stroke: #000080; stroke-width: 1.5"/>
    </defs>
    <g>
     <use xlink:href="#mc95c621722" x="81.166416" y="280.620424" style="fill-opacity: 0; stroke: #000080; stroke-width: 1.5"/>
     <use xlink:href="#mc95c621722" x="168.300609" y="212.670494" style="fill-opacity: 0; stroke: #000080; stroke-width: 1.5"/>
     <use xlink:href="#mc95c621722" x="225.123956" y="145.102306" style="fill-opacity: 0; stroke: #000080; stroke-width: 1.5"/>
     <use xlink:href="#mc95c621722" x="262.695036" y="13.783341" style="fill-opacity: 0; stroke: #000080; stroke-width: 1.5"/>
     <use xlink:href="#mc95c621722" x="281.343811" y="6.912" style="fill-opacity: 0; stroke: #000080; stroke-width: 1.5"/>
     <use xlink:href="#mc95c621722" x="360.8064" y="6.912" style="fill-opacity: 0; stroke: #000080; stroke-width: 1.5"/>
    </g>
   </g>
   <g id="line2d_32">
    <path style="fill: none; stroke: #000080; stroke-width: 1.5; stroke-linecap: square"/>
    <g/>
   </g>
   <g id="line2d_33">
    <path d="M 274.176 13.783341 
" clip-path="url(#p5a96f2da50)" style="fill: none; stroke: #000080; stroke-width: 1.5; stroke-linecap: square"/>
    <defs>
     <path id="mdb940c58c8" d="M -12 12 
L 12 -12 
M -12 -12 
L 12 12 
" style="stroke: #000080"/>
    </defs>
    <g clip-path="url(#p5a96f2da50)">
     <use xlink:href="#mdb940c58c8" x="274.176" y="13.783341" style="fill: #000080; stroke: #000080"/>
    </g>
   </g>
   <g id="line2d_34">
    <defs>
     <path id="m7b6b096159" d="M 0 1.5 
C 0.397805 1.5 0.77937 1.341951 1.06066 1.06066 
C 1.341951 0.77937 1.5 0.397805 1.5 0 
C 1.5 -0.397805 1.341951 -0.77937 1.06066 -1.06066 
C 0.77937 -1.341951 0.397805 -1.5 0 -1.5 
C -0.397805 -1.5 -0.77937 -1.341951 -1.06066 -1.06066 
C -1.341951 -0.77937 -1.5 -0.397805 -1.5 0 
C -1.5 0.397805 -1.341951 0.77937 -1.06066 1.06066 
C -0.77937 1.341951 -0.397805 1.5 0 1.5 
z
" style="stroke: #ff00ff"/>
    </defs>
    <g>
     <use xlink:href="#m7b6b096159" x="294.863253" y="6.912" style="fill: #ff00ff; stroke: #ff00ff"/>
     <use xlink:href="#m7b6b096159" x="294.863253" y="6.912" style="fill: #ff00ff; stroke: #ff00ff"/>
    </g>
   </g>
   <g id="line2d_35">
    <path d="M 44.560826 298.944 
L 44.560826 293.217882 
L 57.6 293.217882 
L 57.6 287.873506 
L 65.227428 287.873506 
L 65.227428 284.819576 
L 70.639174 284.819576 
L 70.639174 273.367341 
L 78.266603 273.367341 
L 78.266603 266.877741 
L 81.166416 266.877741 
L 81.166416 265.732518 
L 83.678349 265.732518 
L 83.678349 263.823812 
L 85.894031 263.823812 
L 85.894031 258.861176 
L 87.876026 258.861176 
L 87.876026 257.334212 
L 89.668958 257.334212 
L 89.668958 256.952471 
L 94.205591 256.952471 
L 94.205591 256.570729 
L 96.717523 256.570729 
L 96.717523 255.807247 
L 98.933205 255.807247 
L 98.933205 253.135059 
L 100.9152 253.135059 
L 100.9152 252.371576 
L 102.708132 252.371576 
L 102.708132 250.462871 
L 104.344952 250.462871 
L 104.344952 249.699388 
L 105.112877 249.699388 
L 105.112877 248.935906 
L 107.244765 248.935906 
L 107.244765 244.355012 
L 109.159456 244.355012 
L 109.159456 242.064565 
L 109.756698 242.064565 
L 109.756698 238.628894 
L 114.872193 238.628894 
L 114.872193 237.101929 
L 116.988079 237.101929 
L 116.988079 235.956706 
L 118.152051 235.956706 
L 118.152051 234.429741 
L 120.944062 234.429741 
L 120.944062 233.284518 
L 121.892744 233.284518 
L 121.892744 232.902776 
L 125.779479 232.902776 
L 125.779479 231.375812 
L 127.458055 231.375812 
L 127.458055 230.230588 
L 129.622688 230.230588 
L 129.622688 229.085365 
L 130.027253 229.085365 
L 130.027253 227.5584 
L 132.984158 227.5584 
L 132.984158 226.413176 
L 135.835047 226.413176 
L 135.835047 226.031435 
L 136.413909 226.031435 
L 136.413909 225.649694 
L 138.692823 225.649694 
L 138.692823 224.886212 
L 139.556456 224.886212 
L 139.556456 224.504471 
L 145.765046 224.504471 
L 145.765046 223.740988 
L 146.529503 223.740988 
L 146.529503 222.595765 
L 147.423525 222.595765 
L 147.423525 221.450541 
L 149.020615 221.450541 
L 149.020615 220.305318 
L 149.381693 220.305318 
L 149.381693 219.541835 
L 149.665646 219.541835 
L 149.665646 217.633129 
L 155.598521 217.633129 
L 155.598521 216.869647 
L 157.688143 216.869647 
L 157.688143 216.106165 
L 159.359426 216.106165 
L 159.359426 214.197459 
L 159.485256 214.197459 
L 159.485256 213.433976 
L 161.278189 213.433976 
L 161.278189 213.052235 
L 162.05979 213.052235 
L 162.05979 212.288753 
L 162.277267 212.288753 
L 162.31327 210.380047 
L 162.420867 210.380047 
L 162.420867 208.471341 
L 162.59884 208.471341 
L 162.59884 197.400847 
L 163.122872 197.400847 
L 163.157294 196.255624 
L 163.3965 196.255624 
L 163.3965 195.873882 
L 163.632702 195.873882 
L 163.632702 194.346918 
L 163.79962 194.346918 
L 163.832826 192.819953 
L 164.259262 192.819953 
L 164.259262 191.292988 
L 164.865624 191.292988 
L 164.897003 190.147765 
L 164.990826 190.147765 
L 164.990826 187.093835 
L 165.574415 187.093835 
L 165.604634 185.566871 
L 166.022686 185.566871 
L 166.111072 174.496376 
L 166.661411 174.496376 
L 166.689935 163.044141 
L 166.775248 163.044141 
L 166.775248 162.6624 
L 166.888401 162.6624 
L 166.888401 150.446682 
L 167.553385 150.446682 
L 167.580589 148.537976 
L 167.796816 148.537976 
L 167.796816 138.994447 
L 168.010586 138.994447 
L 168.010586 137.849224 
L 168.169334 137.849224 
L 168.169334 129.832659 
L 168.560441 129.832659 
L 168.611979 119.907388 
L 168.867575 119.907388 
L 168.867575 119.525647 
L 169.169775 119.525647 
L 169.219673 109.982118 
L 170.048295 109.982118 
L 170.048295 102.347294 
L 170.238073 102.347294 
L 170.308749 101.202071 
L 170.425955 101.202071 
L 170.425955 100.438588 
L 170.681267 100.438588 
L 170.681267 100.056847 
L 170.887612 100.056847 
L 170.9104 99.293365 
L 171.493403 99.293365 
L 171.493403 97.7664 
L 171.800001 97.7664 
L 171.800001 97.002918 
L 172.186995 97.002918 
L 172.186995 96.621176 
L 172.314244 96.621176 
L 172.335368 95.094212 
L 172.566188 95.094212 
L 172.566188 94.330729 
L 173.77765 94.330729 
L 173.77765 85.168941 
L 174.222115 85.168941 
L 174.222115 84.023718 
L 174.449906 84.023718 
L 174.449906 83.641976 
L 176.452644 83.641976 
L 176.452644 82.115012 
L 176.954762 82.115012 
L 176.954762 79.824565 
L 177.889089 79.824565 
L 177.889089 79.061082 
L 178.138873 79.061082 
L 178.138873 69.517553 
L 178.29332 69.517553 
L 178.29332 61.119247 
L 178.553005 61.119247 
L 178.553005 59.210541 
L 179.60041 59.210541 
L 179.60041 57.301835 
L 180.221402 57.301835 
L 180.221402 56.538353 
L 180.59256 56.538353 
L 180.59256 55.774871 
L 180.943179 55.774871 
L 180.943179 55.011388 
L 182.457127 55.011388 
L 182.457127 54.629647 
L 183.708911 54.629647 
L 183.708911 52.720941 
L 184.99062 52.720941 
L 184.99062 51.575718 
L 185.79213 51.575718 
L 185.79213 50.812235 
L 186.816825 50.812235 
L 186.865648 49.667012 
L 189.019466 49.667012 
L 189.019466 48.140047 
L 190.611297 48.140047 
L 190.611297 47.758306 
L 196.504304 47.758306 
L 196.504304 46.994824 
L 199.148677 46.994824 
L 199.148677 46.231341 
L 207.671512 46.231341 
L 207.671512 37.451294 
L 207.80975 37.451294 
L 207.80975 37.069553 
L 207.994616 37.069553 
L 207.994616 34.397365 
L 208.174542 34.397365 
L 208.174542 34.015624 
L 209.133007 34.015624 
L 209.177736 32.106918 
L 209.370342 32.106918 
L 209.370342 31.343435 
L 213.337251 31.343435 
L 213.337251 30.579953 
L 215.461719 30.579953 
L 215.461719 29.816471 
L 255.129067 29.816471 
L 255.129067 19.8912 
L 255.339147 19.8912 
L 255.341707 17.982494 
L 274.225878 17.982494 
L 274.328786 10.347671 
L 274.716516 10.347671 
L 274.760881 8.820706 
L 280.005924 8.820706 
L 280.062826 7.675482 
L 287.487374 7.675482 
L 287.487374 7.293741 
L 294.863253 7.293741 
L 294.863253 6.912 
L 360.8064 6.912 
L 360.8064 6.912 
" style="fill: none; stroke: #ff00ff; stroke-width: 1.5; stroke-linecap: square"/>
   </g>
   <g id="line2d_36">
    <defs>
     <path id="mbf0ff6e6fd" d="M 0 8.485281 
L 5.091169 0 
L 0 -8.485281 
L -5.091169 0 
z
" style="stroke: #ff00ff; stroke-width: 1.5; stroke-linejoin: miter"/>
    </defs>
    <g>
     <use xlink:href="#mbf0ff6e6fd" x="78.266603" y="273.367341" style="fill-opacity: 0; stroke: #ff00ff; stroke-width: 1.5; stroke-linejoin: miter"/>
     <use xlink:href="#mbf0ff6e6fd" x="166.111072" y="174.496376" style="fill-opacity: 0; stroke: #ff00ff; stroke-width: 1.5; stroke-linejoin: miter"/>
     <use xlink:href="#mbf0ff6e6fd" x="199.148677" y="46.231341" style="fill-opacity: 0; stroke: #ff00ff; stroke-width: 1.5; stroke-linejoin: miter"/>
     <use xlink:href="#mbf0ff6e6fd" x="255.341707" y="17.982494" style="fill-opacity: 0; stroke: #ff00ff; stroke-width: 1.5; stroke-linejoin: miter"/>
     <use xlink:href="#mbf0ff6e6fd" x="294.863253" y="6.912" style="fill-opacity: 0; stroke: #ff00ff; stroke-width: 1.5; stroke-linejoin: miter"/>
     <use xlink:href="#mbf0ff6e6fd" x="360.8064" y="6.912" style="fill-opacity: 0; stroke: #ff00ff; stroke-width: 1.5; stroke-linejoin: miter"/>
    </g>
   </g>
   <g id="line2d_37">
    <path style="fill: none; stroke: #ff00ff; stroke-width: 1.5; stroke-linecap: square"/>
    <g/>
   </g>
   <g id="line2d_38">
    <path d="M 274.176 17.982494 
" clip-path="url(#p5a96f2da50)" style="fill: none; stroke: #ff00ff; stroke-width: 1.5; stroke-linecap: square"/>
    <defs>
     <path id="mdcfcd60e6f" d="M -12 12 
L 12 -12 
M -12 -12 
L 12 12 
" style="stroke: #ff00ff"/>
    </defs>
    <g clip-path="url(#p5a96f2da50)">
     <use xlink:href="#mdcfcd60e6f" x="274.176" y="17.982494" style="fill: #ff00ff; stroke: #ff00ff"/>
    </g>
   </g>
   <g id="line2d_39">
    <defs>
     <path id="m07bc1a731c" d="M 0 1.5 
C 0.397805 1.5 0.77937 1.341951 1.06066 1.06066 
C 1.341951 0.77937 1.5 0.397805 1.5 0 
C 1.5 -0.397805 1.341951 -0.77937 1.06066 -1.06066 
C 0.77937 -1.341951 0.397805 -1.5 0 -1.5 
C -0.397805 -1.5 -0.77937 -1.341951 -1.06066 -1.06066 
C -1.341951 -0.77937 -1.5 -0.397805 -1.5 0 
C -1.5 0.397805 -1.341951 0.77937 -1.06066 1.06066 
C -0.77937 1.341951 -0.397805 1.5 0 1.5 
z
" style="stroke: #ff7500"/>
    </defs>
    <g>
     <use xlink:href="#m07bc1a731c" x="252.635359" y="6.912" style="fill: #ff7500; stroke: #ff7500"/>
     <use xlink:href="#m07bc1a731c" x="252.635359" y="6.912" style="fill: #ff7500; stroke: #ff7500"/>
    </g>
   </g>
   <g id="line2d_40">
    <path d="M 44.560826 298.944 
L 44.560826 294.744847 
L 70.639174 294.744847 
L 70.639174 290.927435 
L 74.836851 290.927435 
L 74.836851 287.873506 
L 78.266603 287.873506 
L 78.266603 287.110024 
L 83.678349 287.110024 
L 83.678349 286.728282 
L 85.894031 286.728282 
L 85.894031 282.529129 
L 87.876026 282.529129 
L 87.876026 279.856941 
L 94.205591 279.856941 
L 94.205591 279.4752 
L 96.717523 279.4752 
L 96.717523 274.894306 
L 99.950294 274.894306 
L 99.950294 273.749082 
L 100.9152 273.749082 
L 100.9152 272.222118 
L 103.544339 272.222118 
L 103.544339 269.549929 
L 105.850679 269.549929 
L 105.850679 260.388141 
L 109.756698 260.388141 
L 109.756698 260.0064 
L 111.97238 260.0064 
L 111.97238 259.242918 
L 114.418881 259.242918 
L 114.418881 258.861176 
L 117.772007 258.861176 
L 117.772007 256.952471 
L 118.152051 256.952471 
L 118.152051 255.425506 
L 119.24818 255.425506 
L 119.24818 255.043765 
L 121.892744 255.043765 
L 121.892744 253.135059 
L 122.499621 253.135059 
L 122.499621 252.371576 
L 126.274549 252.371576 
L 126.274549 251.989835 
L 128.999044 251.989835 
L 128.999044 251.226353 
L 129.417095 251.226353 
L 129.417095 250.462871 
L 129.622688 250.462871 
L 129.622688 249.699388 
L 130.811181 249.699388 
L 130.811181 248.172424 
L 131.191226 248.172424 
L 131.191226 247.0272 
L 133.154399 247.0272 
L 133.154399 245.500235 
L 134.14471 245.500235 
L 134.14471 243.591529 
L 135.388902 243.591529 
L 135.388902 242.446306 
L 137.787626 242.446306 
L 137.787626 242.064565 
L 138.050729 242.064565 
L 138.050729 241.301082 
L 139.313723 241.301082 
L 139.313723 240.919341 
L 141.173167 240.919341 
L 141.173167 240.155859 
L 141.50224 240.155859 
L 141.50224 238.628894 
L 141.825656 238.628894 
L 141.825656 237.865412 
L 144.786447 237.865412 
L 144.786447 236.720188 
L 145.237585 236.720188 
L 145.237585 235.956706 
L 145.678157 235.956706 
L 145.678157 234.429741 
L 145.851536 234.429741 
L 145.851536 234.048 
L 149.165879 234.048 
L 149.165879 233.666259 
L 151.731998 233.666259 
L 151.731998 232.902776 
L 152.352898 232.902776 
L 152.352898 232.521035 
L 154.322673 232.521035 
L 154.377597 230.230588 
L 154.918196 230.230588 
L 154.918196 229.848847 
L 156.937458 229.848847 
L 156.937458 227.5584 
L 157.269574 227.5584 
L 157.269574 227.176659 
L 160.933013 227.176659 
L 160.933013 226.794918 
L 161.542347 226.794918 
L 161.542347 225.649694 
L 161.876619 225.649694 
L 161.876619 223.740988 
L 162.023298 223.740988 
L 162.023298 222.595765 
L 162.31327 222.595765 
L 162.38507 221.0688 
L 163.464289 221.0688 
L 163.464289 219.541835 
L 164.194282 219.541835 
L 164.194282 219.160094 
L 164.548924 219.160094 
L 164.548924 218.014871 
L 164.771172 218.014871 
L 164.834193 214.960941 
L 164.990826 214.960941 
L 165.053116 212.670494 
L 165.146166 212.670494 
L 165.146166 212.288753 
L 165.269521 212.288753 
L 165.269521 211.525271 
L 165.392072 211.525271 
L 165.392072 210.761788 
L 166.052194 210.761788 
L 166.140442 209.234824 
L 166.315707 209.234824 
L 166.373767 206.562635 
L 166.489353 206.562635 
L 166.518139 204.653929 
L 166.689935 204.653929 
L 166.689935 201.218259 
L 166.8036 201.218259 
L 166.8036 200.073035 
L 166.916583 200.073035 
L 167.000877 196.637365 
L 167.306762 196.637365 
L 167.38933 195.1104 
L 167.553385 195.1104 
L 167.553385 194.346918 
L 167.850487 194.346918 
L 167.850487 190.147765 
L 168.248209 190.147765 
L 168.352863 189.002541 
L 168.404973 189.002541 
L 168.404973 188.6208 
L 168.765753 188.6208 
L 168.79126 187.093835 
L 169.269439 187.093835 
L 169.269439 186.712094 
L 169.832482 186.712094 
L 169.880655 184.039906 
L 170.214455 184.039906 
L 170.214455 181.367718 
L 172.440637 181.367718 
L 172.440637 180.985976 
L 172.814802 180.985976 
L 172.814802 177.550306 
L 172.958324 177.550306 
L 172.978738 176.023341 
L 173.12102 176.023341 
L 173.12102 174.878118 
L 173.242125 174.878118 
L 173.262233 171.824188 
L 174.487605 171.824188 
L 174.506426 171.060706 
L 174.712223 171.060706 
L 174.712223 169.915482 
L 175.244228 169.915482 
L 175.244228 169.533741 
L 176.604692 169.533741 
L 176.604692 169.152 
L 177.070019 169.152 
L 177.070019 168.388518 
L 179.714853 168.388518 
L 179.714853 166.861553 
L 180.822549 166.861553 
L 180.822549 166.479812 
L 181.208509 166.479812 
L 181.221678 165.334588 
L 181.470148 165.334588 
L 181.470148 164.952847 
L 182.931853 164.952847 
L 182.931853 164.571106 
L 184.388512 164.571106 
L 184.388512 164.189365 
L 184.554643 164.189365 
L 184.554643 163.807624 
L 185.406185 163.807624 
L 185.406185 163.425882 
L 185.79213 163.425882 
L 185.79213 163.044141 
L 190.571298 163.044141 
L 190.571298 162.280659 
L 191.006678 162.280659 
L 191.006678 161.135435 
L 192.459361 161.135435 
L 192.459361 159.608471 
L 193.009007 159.608471 
L 193.05117 158.463247 
L 194.287162 158.463247 
L 194.287162 158.081506 
L 194.600043 158.081506 
L 194.600043 156.936282 
L 199.624818 156.936282 
L 199.693978 154.645835 
L 199.757971 154.645835 
L 199.757971 152.737129 
L 200.040857 152.737129 
L 200.147055 151.973647 
L 200.4621 151.973647 
L 200.4621 151.591906 
L 201.07679 151.591906 
L 201.07679 151.210165 
L 201.632036 151.210165 
L 201.632036 150.064941 
L 202.804636 150.064941 
L 202.8922 149.301459 
L 203.201641 149.301459 
L 203.262923 146.629271 
L 203.397045 146.629271 
L 203.44962 144.338824 
L 203.908412 144.338824 
L 203.908412 143.957082 
L 204.947269 143.957082 
L 204.947269 143.575341 
L 205.294614 143.575341 
L 205.294614 143.1936 
L 206.375954 143.1936 
L 206.375954 141.666635 
L 206.745625 141.666635 
L 206.752403 140.903153 
L 207.210958 140.903153 
L 207.227484 140.139671 
L 208.461366 140.139671 
L 208.461366 139.376188 
L 208.64916 139.376188 
L 208.64916 138.994447 
L 210.14711 138.994447 
L 210.14711 138.612706 
L 211.07974 138.612706 
L 211.07974 138.230965 
L 213.130792 138.230965 
L 213.130792 137.467482 
L 213.961855 137.467482 
L 214.051714 136.704 
L 214.282449 136.704 
L 214.282449 134.413553 
L 216.464547 134.413553 
L 216.559336 133.650071 
L 217.314463 133.650071 
L 217.314463 133.268329 
L 218.450586 133.268329 
L 218.450586 132.886588 
L 218.983303 132.886588 
L 218.992143 132.123106 
L 220.040651 132.123106 
L 220.040651 131.741365 
L 220.383578 131.741365 
L 220.462212 127.542212 
L 222.534394 127.542212 
L 222.569504 126.396988 
L 223.024347 126.396988 
L 223.024347 126.015247 
L 225.626299 126.015247 
L 225.626299 123.7248 
L 226.272279 123.7248 
L 226.272279 123.343059 
L 227.440452 123.343059 
L 227.440452 122.579576 
L 229.038028 122.579576 
L 229.038028 122.197835 
L 234.127598 122.197835 
L 234.127598 121.816094 
L 236.767081 121.816094 
L 236.767081 121.434353 
L 236.951698 121.434353 
L 236.951698 121.052612 
L 237.790714 121.052612 
L 237.790714 120.670871 
L 239.216984 120.670871 
L 239.216984 120.289129 
L 239.343237 120.289129 
L 239.343237 119.907388 
L 240.128339 119.907388 
L 240.197749 118.380424 
L 241.248319 118.380424 
L 241.339607 115.326494 
L 241.847828 115.326494 
L 241.847828 114.944753 
L 245.36166 114.944753 
L 245.36166 114.563012 
L 245.511185 114.563012 
L 245.60248 113.799529 
L 245.644105 113.799529 
L 245.644105 113.417788 
L 245.897858 113.417788 
L 245.955707 112.272565 
L 246.010015 112.272565 
L 246.037741 109.982118 
L 246.146983 109.982118 
L 246.254349 108.836894 
L 246.380901 108.836894 
L 246.473414 104.637741 
L 246.502513 104.637741 
L 246.597284 100.056847 
L 246.64571 100.056847 
L 246.754317 93.567247 
L 246.882779 93.567247 
L 246.991226 89.749835 
L 246.995615 89.749835 
L 247.049791 87.077647 
L 247.125615 87.077647 
L 247.205868 83.260235 
L 247.283031 83.260235 
L 247.331294 78.679341 
L 247.468341 78.679341 
L 247.564574 76.388894 
L 247.590102 76.388894 
L 247.690329 73.334965 
L 247.702628 73.334965 
L 247.80952 67.608847 
L 247.814868 67.608847 
L 247.884251 62.264471 
L 247.97687 62.264471 
L 248.07544 58.447059 
L 248.097651 58.447059 
L 248.131857 56.156612 
L 248.270672 56.156612 
L 248.340997 50.048753 
L 248.527255 50.048753 
L 248.621161 47.376565 
L 248.671953 47.376565 
L 248.712779 44.322635 
L 248.813373 44.322635 
L 248.909108 42.032188 
L 248.930357 42.032188 
L 249.017261 37.069553 
L 249.075571 37.069553 
L 249.1337 32.8704 
L 249.398875 32.8704 
L 249.439206 31.725176 
L 249.680781 31.725176 
L 249.774965 30.579953 
L 249.802133 30.579953 
L 249.911436 27.907765 
L 249.92851 27.907765 
L 249.955798 25.999059 
L 250.105513 25.999059 
L 250.133895 23.708612 
L 250.510941 23.708612 
L 250.558865 19.509459 
L 250.680932 19.509459 
L 250.680932 18.745976 
L 251.042773 18.745976 
L 251.042773 17.982494 
L 251.177727 17.982494 
L 251.258682 14.546824 
L 251.333589 14.546824 
L 251.34499 13.783341 
L 251.645544 13.783341 
L 251.722032 13.019859 
L 251.762638 13.019859 
L 251.847285 11.492894 
L 251.897154 11.492894 
L 251.897154 11.111153 
L 252.099271 11.111153 
L 252.133304 8.438965 
L 252.469094 8.438965 
L 252.517938 7.293741 
L 252.635359 7.293741 
L 252.635359 6.912 
L 360.8064 6.912 
L 360.8064 6.912 
" style="fill: none; stroke: #ff7500; stroke-width: 1.5; stroke-linecap: square"/>
   </g>
   <g id="line2d_41">
    <defs>
     <path id="mef1f9eaa38" d="M 0 -6 
L -1.347084 -1.854102 
L -5.706339 -1.854102 
L -2.179628 0.708204 
L -3.526712 4.854102 
L -0 2.291796 
L 3.526712 4.854102 
L 2.179628 0.708204 
L 5.706339 -1.854102 
L 1.347084 -1.854102 
z
" style="stroke: #ff7500; stroke-width: 1.5; stroke-linejoin: bevel"/>
    </defs>
    <g>
     <use xlink:href="#mef1f9eaa38" x="137.787626" y="242.064565" style="fill-opacity: 0; stroke: #ff7500; stroke-width: 1.5; stroke-linejoin: bevel"/>
     <use xlink:href="#mef1f9eaa38" x="184.554643" y="164.189365" style="fill-opacity: 0; stroke: #ff7500; stroke-width: 1.5; stroke-linejoin: bevel"/>
     <use xlink:href="#mef1f9eaa38" x="249.012603" y="38.978259" style="fill-opacity: 0; stroke: #ff7500; stroke-width: 1.5; stroke-linejoin: bevel"/>
     <use xlink:href="#mef1f9eaa38" x="252.635359" y="6.912" style="fill-opacity: 0; stroke: #ff7500; stroke-width: 1.5; stroke-linejoin: bevel"/>
     <use xlink:href="#mef1f9eaa38" x="252.635359" y="6.912" style="fill-opacity: 0; stroke: #ff7500; stroke-width: 1.5; stroke-linejoin: bevel"/>
     <use xlink:href="#mef1f9eaa38" x="360.8064" y="6.912" style="fill-opacity: 0; stroke: #ff7500; stroke-width: 1.5; stroke-linejoin: bevel"/>
    </g>
   </g>
   <g id="line2d_42">
    <path style="fill: none; stroke: #ff7500; stroke-width: 1.5; stroke-linecap: square"/>
    <g/>
   </g>
   <g id="line2d_43">
    <defs>
     <path id="me6b8a634b6" d="M 0 1.5 
C 0.397805 1.5 0.77937 1.341951 1.06066 1.06066 
C 1.341951 0.77937 1.5 0.397805 1.5 0 
C 1.5 -0.397805 1.341951 -0.77937 1.06066 -1.06066 
C 0.77937 -1.341951 0.397805 -1.5 0 -1.5 
C -0.397805 -1.5 -0.77937 -1.341951 -1.06066 -1.06066 
C -1.341951 -0.77937 -1.5 -0.397805 -1.5 0 
C -1.5 0.397805 -1.341951 0.77937 -1.06066 1.06066 
C -0.77937 1.341951 -0.397805 1.5 0 1.5 
z
" style="stroke: #6495ed"/>
    </defs>
    <g>
     <use xlink:href="#me6b8a634b6" x="250.585584" y="6.912" style="fill: #6495ed; stroke: #6495ed"/>
     <use xlink:href="#me6b8a634b6" x="250.585584" y="6.912" style="fill: #6495ed; stroke: #6495ed"/>
    </g>
   </g>
   <g id="line2d_44">
    <path d="M 44.560826 298.944 
L 44.560826 295.890071 
L 57.6 295.890071 
L 57.6 292.836141 
L 65.227428 292.836141 
L 65.227428 292.072659 
L 70.639174 292.072659 
L 70.639174 291.690918 
L 74.836851 291.690918 
L 74.836851 290.545694 
L 81.166416 290.545694 
L 81.166416 288.636988 
L 83.678349 288.636988 
L 83.678349 287.110024 
L 87.876026 287.110024 
L 87.876026 285.583059 
L 89.668958 285.583059 
L 89.668958 282.529129 
L 92.811505 282.529129 
L 92.811505 281.002165 
L 95.503454 281.002165 
L 95.503454 279.093459 
L 103.544339 279.093459 
L 103.544339 276.421271 
L 105.112877 276.421271 
L 105.112877 276.039529 
L 106.560633 276.039529 
L 106.560633 272.9856 
L 108.542628 272.9856 
L 108.542628 271.458635 
L 112.487797 271.458635 
L 112.487797 270.313412 
L 113.478107 270.313412 
L 113.478107 269.931671 
L 116.583514 269.931671 
L 116.583514 269.549929 
L 116.988079 269.549929 
L 116.988079 266.496 
L 117.384126 266.496 
L 117.384126 264.587294 
L 117.772007 264.587294 
L 117.772007 263.442071 
L 118.889854 263.442071 
L 118.889854 262.678588 
L 119.599808 262.678588 
L 119.599808 260.769882 
L 120.944062 260.769882 
L 120.944062 260.0064 
L 121.265635 260.0064 
L 121.265635 259.242918 
L 122.19863 259.242918 
L 122.19863 257.334212 
L 122.795872 257.334212 
L 122.795872 256.188988 
L 123.936316 256.188988 
L 123.936316 255.807247 
L 127.686077 255.807247 
L 127.686077 255.425506 
L 128.133992 255.425506 
L 128.133992 255.043765 
L 128.999044 255.043765 
L 128.999044 254.662024 
L 130.618241 254.662024 
L 130.618241 253.898541 
L 132.812362 253.898541 
L 132.812362 253.135059 
L 134.620977 253.135059 
L 134.620977 250.844612 
L 134.77709 250.844612 
L 134.77709 250.462871 
L 135.538796 250.462871 
L 135.538796 249.699388 
L 136.270855 249.699388 
L 136.270855 248.935906 
L 136.836659 248.935906 
L 136.836659 248.172424 
L 137.113304 248.172424 
L 137.113304 247.790682 
L 137.654681 247.790682 
L 137.654681 246.645459 
L 138.692823 246.645459 
L 138.692823 245.881976 
L 138.943648 245.881976 
L 138.943648 245.118494 
L 139.435481 245.118494 
L 139.435481 243.209788 
L 140.032723 243.209788 
L 140.032723 242.828047 
L 140.26641 242.828047 
L 140.26641 241.682824 
L 141.393187 241.682824 
L 141.393187 240.919341 
L 145.851536 240.919341 
L 145.851536 240.155859 
L 149.806031 240.155859 
L 149.806031 239.010635 
L 150.62703 239.010635 
L 150.62703 237.865412 
L 151.349377 237.865412 
L 151.349377 236.720188 
L 155.443693 236.720188 
L 155.443693 235.956706 
L 156.452597 235.956706 
L 156.452597 233.666259 
L 158.365703 233.666259 
L 158.410018 232.902776 
L 158.498335 232.902776 
L 158.498335 231.757553 
L 159.232748 231.757553 
L 159.232748 230.612329 
L 161.765853 230.612329 
L 161.802848 229.085365 
L 162.205054 229.085365 
L 162.205054 228.703624 
L 162.845206 228.703624 
L 162.880139 226.031435 
L 163.191653 226.031435 
L 163.191653 224.122729 
L 163.632702 224.122729 
L 163.632702 223.740988 
L 163.766354 223.740988 
L 163.766354 223.359247 
L 164.030845 223.359247 
L 164.129077 221.832282 
L 164.194282 221.832282 
L 164.194282 221.450541 
L 164.452864 221.450541 
L 164.452864 219.923576 
L 164.739583 219.923576 
L 164.739583 218.014871 
L 165.207944 218.014871 
L 165.269521 216.869647 
L 165.51383 216.869647 
L 165.604634 213.052235 
L 165.784938 213.052235 
L 165.784938 211.907012 
L 166.111072 211.907012 
L 166.199045 210.761788 
L 166.431649 210.761788 
L 166.431649 208.853082 
L 167.000877 208.853082 
L 167.000877 207.707859 
L 167.196106 207.707859 
L 167.306762 205.799153 
L 167.444174 205.799153 
L 167.444174 204.653929 
L 167.607754 204.653929 
L 167.689013 203.890447 
L 167.742992 203.890447 
L 167.742992 202.363482 
L 168.010586 202.363482 
L 168.116567 200.836518 
L 168.142969 200.836518 
L 168.142969 200.454776 
L 169.467197 200.454776 
L 169.467197 200.073035 
L 170.143423 200.073035 
L 170.143423 199.691294 
L 170.773255 199.691294 
L 170.773255 199.309553 
L 172.732295 199.309553 
L 172.835373 197.400847 
L 173.541519 197.400847 
L 173.541519 197.019106 
L 173.679622 197.019106 
L 173.679622 195.492141 
L 174.010854 195.492141 
L 174.010854 195.1104 
L 174.786503 195.1104 
L 174.786503 194.728659 
L 175.0442 194.728659 
L 175.0442 193.965176 
L 175.549238 193.965176 
L 175.549238 193.583435 
L 177.004244 193.583435 
L 177.004244 192.819953 
L 177.715419 192.819953 
L 177.715419 192.056471 
L 177.873367 192.056471 
L 177.904798 189.384282 
L 178.045592 189.384282 
L 178.045592 188.6208 
L 178.308695 188.6208 
L 178.400683 187.475576 
L 178.446509 187.475576 
L 178.446509 186.712094 
L 179.542926 186.712094 
L 179.542926 186.330353 
L 181.208509 186.330353 
L 181.208509 184.803388 
L 181.378988 184.803388 
L 181.457152 184.039906 
L 182.183951 184.039906 
L 182.233915 180.985976 
L 182.345852 180.985976 
L 182.345852 180.604235 
L 182.665533 180.604235 
L 182.750681 179.459012 
L 183.720442 179.459012 
L 183.720442 179.077271 
L 183.938184 179.077271 
L 183.938184 177.932047 
L 184.310478 177.932047 
L 184.310478 177.550306 
L 184.87173 177.550306 
L 184.87173 174.878118 
L 185.268681 174.878118 
L 185.268681 174.496376 
L 185.636619 174.496376 
L 185.647027 173.351153 
L 185.91562 173.351153 
L 185.91562 172.587671 
L 186.190544 172.587671 
L 186.190544 172.205929 
L 186.689288 172.205929 
L 186.69913 171.442447 
L 187.030705 171.442447 
L 187.030705 171.060706 
L 187.175151 171.060706 
L 187.175151 169.915482 
L 187.639423 169.915482 
L 187.639423 169.533741 
L 189.278582 169.533741 
L 189.278582 168.388518 
L 189.559547 168.388518 
L 189.559547 167.243294 
L 190.150186 167.243294 
L 190.150186 166.479812 
L 191.1858 166.479812 
L 191.1858 165.716329 
L 191.818373 165.716329 
L 191.818373 164.952847 
L 193.267517 164.952847 
L 193.267517 159.608471 
L 194.996629 159.608471 
L 194.996629 156.1728 
L 197.254461 156.1728 
L 197.254461 155.409318 
L 200.233501 155.409318 
L 200.233501 155.027576 
L 201.195533 155.027576 
L 201.227374 154.264094 
L 201.587501 154.264094 
L 201.587501 153.882353 
L 203.197549 153.882353 
L 203.258844 153.118871 
L 203.311806 153.118871 
L 203.360561 152.355388 
L 203.453658 152.355388 
L 203.453658 150.828424 
L 203.702343 150.828424 
L 203.702343 147.011012 
L 205.177087 147.011012 
L 205.23227 146.247529 
L 206.048182 146.247529 
L 206.153412 145.484047 
L 206.91434 145.484047 
L 206.927772 143.1936 
L 207.191108 143.1936 
L 207.201035 140.139671 
L 211.458169 140.139671 
L 211.458169 139.376188 
L 211.592247 139.376188 
L 211.592247 138.230965 
L 214.604369 138.230965 
L 214.604369 137.849224 
L 215.659012 137.849224 
L 215.659012 136.704 
L 218.166459 136.704 
L 218.166459 136.322259 
L 222.354899 136.322259 
L 222.354899 135.940518 
L 226.799015 135.940518 
L 226.799015 135.558776 
L 240.494286 135.558776 
L 240.604994 134.413553 
L 241.269424 134.413553 
L 241.343917 132.886588 
L 241.514993 132.886588 
L 241.611374 130.977882 
L 241.628894 130.977882 
L 241.734195 129.832659 
L 241.995678 129.832659 
L 241.995678 129.069176 
L 242.214525 129.069176 
L 242.214525 128.687435 
L 242.807909 128.687435 
L 242.899887 127.923953 
L 243.495921 127.923953 
L 243.532403 126.778729 
L 243.77588 126.778729 
L 243.851472 125.251765 
L 243.911728 125.251765 
L 244.021387 123.343059 
L 244.039134 123.343059 
L 244.039134 122.961318 
L 244.333255 122.961318 
L 244.431349 122.197835 
L 244.57164 122.197835 
L 244.638681 119.907388 
L 244.765766 119.907388 
L 244.785966 117.616941 
L 245.041303 117.616941 
L 245.041303 117.2352 
L 245.246434 117.2352 
L 245.299334 113.036047 
L 245.380796 113.036047 
L 245.480942 107.309929 
L 245.518953 107.309929 
L 245.597754 103.110776 
L 245.750962 103.110776 
L 245.791835 100.820329 
L 245.951912 100.820329 
L 246.057879 97.384659 
L 246.068778 97.384659 
L 246.155328 94.330729 
L 246.186172 94.330729 
L 246.293729 88.222871 
L 246.307803 88.222871 
L 246.403146 77.152376 
L 246.502104 77.152376 
L 246.537699 75.243671 
L 246.680224 75.243671 
L 246.757549 63.027953 
L 246.802744 63.027953 
L 246.908847 59.974024 
L 247.018738 59.974024 
L 247.111743 58.447059 
L 247.424329 58.447059 
L 247.483507 57.301835 
L 247.646449 57.301835 
L 247.730655 51.575718 
L 247.780845 51.575718 
L 247.8774 48.903529 
L 247.89224 48.903529 
L 247.98482 45.467859 
L 248.042641 45.467859 
L 248.138991 36.306071 
L 248.159252 36.306071 
L 248.252769 34.397365 
L 248.289674 34.397365 
L 248.372539 29.052988 
L 248.415869 29.052988 
L 248.429182 27.526024 
L 248.620063 27.526024 
L 248.726611 24.853835 
L 248.87701 24.853835 
L 248.965239 20.272941 
L 249.05091 20.272941 
L 249.05091 19.509459 
L 249.197329 19.509459 
L 249.276298 13.783341 
L 249.341208 13.783341 
L 249.341208 10.729412 
L 249.621198 10.729412 
L 249.646509 9.202447 
L 250.147396 9.202447 
L 250.147396 8.438965 
L 250.369433 8.438965 
L 250.384765 7.293741 
L 250.585584 7.293741 
L 250.585584 6.912 
L 360.8064 6.912 
L 360.8064 6.912 
" style="fill: none; stroke: #6495ed; stroke-width: 1.5; stroke-linecap: square"/>
   </g>
   <g id="line2d_45">
    <defs>
     <path id="me3f61e3fa1" d="M -0 6 
L 6 -6 
L -6 -6 
z
" style="stroke: #6495ed; stroke-width: 1.5; stroke-linejoin: miter"/>
    </defs>
    <g>
     <use xlink:href="#me3f61e3fa1" x="83.678349" y="287.110024" style="fill-opacity: 0; stroke: #6495ed; stroke-width: 1.5; stroke-linejoin: miter"/>
     <use xlink:href="#me3f61e3fa1" x="165.51383" y="213.815718" style="fill-opacity: 0; stroke: #6495ed; stroke-width: 1.5; stroke-linejoin: miter"/>
     <use xlink:href="#me3f61e3fa1" x="215.659012" y="137.849224" style="fill-opacity: 0; stroke: #6495ed; stroke-width: 1.5; stroke-linejoin: miter"/>
     <use xlink:href="#me3f61e3fa1" x="250.585584" y="7.293741" style="fill-opacity: 0; stroke: #6495ed; stroke-width: 1.5; stroke-linejoin: miter"/>
     <use xlink:href="#me3f61e3fa1" x="250.585584" y="6.912" style="fill-opacity: 0; stroke: #6495ed; stroke-width: 1.5; stroke-linejoin: miter"/>
     <use xlink:href="#me3f61e3fa1" x="360.8064" y="6.912" style="fill-opacity: 0; stroke: #6495ed; stroke-width: 1.5; stroke-linejoin: miter"/>
    </g>
   </g>
   <g id="line2d_46">
    <path style="fill: none; stroke: #6495ed; stroke-width: 1.5; stroke-linecap: square"/>
    <g/>
   </g>
   <g id="line2d_47">
    <path d="M 360.8064 6.912 
L 380.514816 293.10336 
" style="fill: none; stroke: #ff00ff; stroke-width: 1.5; stroke-linecap: square"/>
    <g>
     <use xlink:href="#mbf0ff6e6fd" x="360.8064" y="6.912" style="fill-opacity: 0; stroke: #ff00ff; stroke-width: 1.5; stroke-linejoin: miter"/>
     <use xlink:href="#mbf0ff6e6fd" x="380.514816" y="293.10336" style="fill-opacity: 0; stroke: #ff00ff; stroke-width: 1.5; stroke-linejoin: miter"/>
    </g>
   </g>
   <g id="line2d_48">
    <path d="M 360.8064 6.912 
L 380.514816 199.65312 
" style="fill: none; stroke: #000080; stroke-width: 1.5; stroke-linecap: square"/>
    <g>
     <use xlink:href="#mc95c621722" x="360.8064" y="6.912" style="fill-opacity: 0; stroke: #000080; stroke-width: 1.5"/>
     <use xlink:href="#mc95c621722" x="380.514816" y="199.65312" style="fill-opacity: 0; stroke: #000080; stroke-width: 1.5"/>
    </g>
   </g>
   <g id="line2d_49">
    <path d="M 360.8064 6.912 
L 380.514816 106.20288 
" style="fill: none; stroke: #ff7500; stroke-width: 1.5; stroke-linecap: square"/>
    <g>
     <use xlink:href="#mef1f9eaa38" x="360.8064" y="6.912" style="fill-opacity: 0; stroke: #ff7500; stroke-width: 1.5; stroke-linejoin: bevel"/>
     <use xlink:href="#mef1f9eaa38" x="380.514816" y="106.20288" style="fill-opacity: 0; stroke: #ff7500; stroke-width: 1.5; stroke-linejoin: bevel"/>
    </g>
   </g>
   <g id="line2d_50">
    <path d="M 360.8064 6.912 
L 380.514816 12.75264 
" style="fill: none; stroke: #6495ed; stroke-width: 1.5; stroke-linecap: square"/>
    <g>
     <use xlink:href="#me3f61e3fa1" x="360.8064" y="6.912" style="fill-opacity: 0; stroke: #6495ed; stroke-width: 1.5; stroke-linejoin: miter"/>
     <use xlink:href="#me3f61e3fa1" x="380.514816" y="12.75264" style="fill-opacity: 0; stroke: #6495ed; stroke-width: 1.5; stroke-linejoin: miter"/>
    </g>
   </g>
   <g id="line2d_51">
    <path d="M 360.8064 298.944 
L 360.8064 6.912 
" style="fill: none; stroke: #000000; stroke-width: 1.5; stroke-linecap: square"/>
   </g>
   <g id="patch_3">
    <path d="M 57.6 298.944 
L 360.8064 298.944 
" style="fill: none; stroke: #000000; stroke-width: 0.8; stroke-linejoin: miter; stroke-linecap: square"/>
   </g>
   <g id="patch_4">
    <path d="M 57.6 6.912 
L 360.8064 6.912 
" style="fill: none; stroke: #000000; stroke-width: 0.8; stroke-linejoin: miter; stroke-linecap: square"/>
   </g>
   <g id="text_13">
    <!-- f7 -->
    <g transform="translate(386.578944 296.966485)scale(0.14 -0.14)">
     <defs>
      <path id="DejaVuSans-37" d="M 525 4666 
L 3525 4666 
L 3525 4397 
L 1831 0 
L 1172 0 
L 2766 4134 
L 525 4134 
L 525 4666 
z
" transform="scale(0.015625)"/>
     </defs>
     <use xlink:href="#DejaVuSans-66"/>
     <use xlink:href="#DejaVuSans-37" x="35.205078"/>
    </g>
   </g>
   <g id="text_14">
    <!-- f6 -->
    <g transform="translate(386.578944 203.516245)scale(0.14 -0.14)">
     <use xlink:href="#DejaVuSans-66"/>
     <use xlink:href="#DejaVuSans-36" x="35.205078"/>
    </g>
   </g>
   <g id="text_15">
    <!-- f8 -->
    <g transform="translate(386.578944 110.066005)scale(0.14 -0.14)">
     <use xlink:href="#DejaVuSans-66"/>
     <use xlink:href="#DejaVuSans-38" x="35.205078"/>
    </g>
   </g>
   <g id="text_16">
    <!-- f9 -->
    <g transform="translate(386.578944 16.615765)scale(0.14 -0.14)">
     <defs>
      <path id="DejaVuSans-39" d="M 703 97 
L 703 672 
Q 941 559 1184 500 
Q 1428 441 1663 441 
Q 2288 441 2617 861 
Q 2947 1281 2994 2138 
Q 2813 1869 2534 1725 
Q 2256 1581 1919 1581 
Q 1219 1581 811 2004 
Q 403 2428 403 3163 
Q 403 3881 828 4315 
Q 1253 4750 1959 4750 
Q 2769 4750 3195 4129 
Q 3622 3509 3622 2328 
Q 3622 1225 3098 567 
Q 2575 -91 1691 -91 
Q 1453 -91 1209 -44 
Q 966 3 703 97 
z
M 1959 2075 
Q 2384 2075 2632 2365 
Q 2881 2656 2881 3163 
Q 2881 3666 2632 3958 
Q 2384 4250 1959 4250 
Q 1534 4250 1286 3958 
Q 1038 3666 1038 3163 
Q 1038 2656 1286 2365 
Q 1534 2075 1959 2075 
z
" transform="scale(0.015625)"/>
     </defs>
     <use xlink:href="#DejaVuSans-66"/>
     <use xlink:href="#DejaVuSans-39" x="35.205078"/>
    </g>
   </g>
   <g id="text_17">
    <!-- bbob -->
    <g transform="translate(60.632064 17.582726)scale(0.102 -0.102)">
     <defs>
      <path id="DejaVuSans-62" d="M 3116 1747 
Q 3116 2381 2855 2742 
Q 2594 3103 2138 3103 
Q 1681 3103 1420 2742 
Q 1159 2381 1159 1747 
Q 1159 1113 1420 752 
Q 1681 391 2138 391 
Q 2594 391 2855 752 
Q 3116 1113 3116 1747 
z
M 1159 2969 
Q 1341 3281 1617 3432 
Q 1894 3584 2278 3584 
Q 2916 3584 3314 3078 
Q 3713 2572 3713 1747 
Q 3713 922 3314 415 
Q 2916 -91 2278 -91 
Q 1894 -91 1617 61 
Q 1341 213 1159 525 
L 1159 0 
L 581 0 
L 581 4863 
L 1159 4863 
L 1159 2969 
z
" transform="scale(0.015625)"/>
     </defs>
     <use xlink:href="#DejaVuSans-62"/>
     <use xlink:href="#DejaVuSans-62" x="63.476562"/>
     <use xlink:href="#DejaVuSans-6f" x="126.953125"/>
     <use xlink:href="#DejaVuSans-62" x="188.134766"/>
    </g>
    <!-- Misc. moderate functions, 2-D -->
    <g transform="translate(60.632064 29.004495)scale(0.102 -0.102)">
     <defs>
      <path id="DejaVuSans-4d" d="M 628 4666 
L 1569 4666 
L 2759 1491 
L 3956 4666 
L 4897 4666 
L 4897 0 
L 4281 0 
L 4281 4097 
L 3078 897 
L 2444 897 
L 1241 4097 
L 1241 0 
L 628 0 
L 628 4666 
z
" transform="scale(0.015625)"/>
      <path id="DejaVuSans-44" d="M 1259 4147 
L 1259 519 
L 2022 519 
Q 2988 519 3436 956 
Q 3884 1394 3884 2338 
Q 3884 3275 3436 3711 
Q 2988 4147 2022 4147 
L 1259 4147 
z
M 628 4666 
L 1925 4666 
Q 3281 4666 3915 4102 
Q 4550 3538 4550 2338 
Q 4550 1131 3912 565 
Q 3275 0 1925 0 
L 628 0 
L 628 4666 
z
" transform="scale(0.015625)"/>
     </defs>
     <use xlink:href="#DejaVuSans-4d"/>
     <use xlink:href="#DejaVuSans-69" x="86.279297"/>
     <use xlink:href="#DejaVuSans-73" x="114.0625"/>
     <use xlink:href="#DejaVuSans-63" x="166.162109"/>
     <use xlink:href="#DejaVuSans-2e" x="221.142578"/>
     <use xlink:href="#DejaVuSans-20" x="252.929688"/>
     <use xlink:href="#DejaVuSans-6d" x="284.716797"/>
     <use xlink:href="#DejaVuSans-6f" x="382.128906"/>
     <use xlink:href="#DejaVuSans-64" x="443.310547"/>
     <use xlink:href="#DejaVuSans-65" x="506.787109"/>
     <use xlink:href="#DejaVuSans-72" x="568.310547"/>
     <use xlink:href="#DejaVuSans-61" x="609.423828"/>
     <use xlink:href="#DejaVuSans-74" x="670.703125"/>
     <use xlink:href="#DejaVuSans-65" x="709.912109"/>
     <use xlink:href="#DejaVuSans-20" x="771.435547"/>
     <use xlink:href="#DejaVuSans-66" x="803.222656"/>
     <use xlink:href="#DejaVuSans-75" x="838.427734"/>
     <use xlink:href="#DejaVuSans-6e" x="901.806641"/>
     <use xlink:href="#DejaVuSans-63" x="965.185547"/>
     <use xlink:href="#DejaVuSans-74" x="1020.166016"/>
     <use xlink:href="#DejaVuSans-69" x="1059.375"/>
     <use xlink:href="#DejaVuSans-6f" x="1087.158203"/>
     <use xlink:href="#DejaVuSans-6e" x="1148.339844"/>
     <use xlink:href="#DejaVuSans-73" x="1211.71875"/>
     <use xlink:href="#DejaVuSans-2c" x="1263.818359"/>
     <use xlink:href="#DejaVuSans-20" x="1295.605469"/>
     <use xlink:href="#DejaVuSans-32" x="1327.392578"/>
     <use xlink:href="#DejaVuSans-2d" x="1391.015625"/>
     <use xlink:href="#DejaVuSans-44" x="1427.099609"/>
    </g>
    <!-- 51 targets: 100..1e-08 -->
    <g transform="translate(60.632064 40.426264)scale(0.102 -0.102)">
     <defs>
      <path id="DejaVuSans-35" d="M 691 4666 
L 3169 4666 
L 3169 4134 
L 1269 4134 
L 1269 2991 
Q 1406 3038 1543 3061 
Q 1681 3084 1819 3084 
Q 2600 3084 3056 2656 
Q 3513 2228 3513 1497 
Q 3513 744 3044 326 
Q 2575 -91 1722 -91 
Q 1428 -91 1123 -41 
Q 819 9 494 109 
L 494 744 
Q 775 591 1075 516 
Q 1375 441 1709 441 
Q 2250 441 2565 725 
Q 2881 1009 2881 1497 
Q 2881 1984 2565 2268 
Q 2250 2553 1709 2553 
Q 1456 2553 1204 2497 
Q 953 2441 691 2322 
L 691 4666 
z
" transform="scale(0.015625)"/>
      <path id="DejaVuSans-3a" d="M 750 794 
L 1409 794 
L 1409 0 
L 750 0 
L 750 794 
z
M 750 3309 
L 1409 3309 
L 1409 2516 
L 750 2516 
L 750 3309 
z
" transform="scale(0.015625)"/>
     </defs>
     <use xlink:href="#DejaVuSans-35"/>
     <use xlink:href="#DejaVuSans-31" x="63.623047"/>
     <use xlink:href="#DejaVuSans-20" x="127.246094"/>
     <use xlink:href="#DejaVuSans-74" x="159.033203"/>
     <use xlink:href="#DejaVuSans-61" x="198.242188"/>
     <use xlink:href="#DejaVuSans-72" x="259.521484"/>
     <use xlink:href="#DejaVuSans-67" x="298.884766"/>
     <use xlink:href="#DejaVuSans-65" x="362.361328"/>
     <use xlink:href="#DejaVuSans-74" x="423.884766"/>
     <use xlink:href="#DejaVuSans-73" x="463.09375"/>
     <use xlink:href="#DejaVuSans-3a" x="515.193359"/>
     <use xlink:href="#DejaVuSans-20" x="548.884766"/>
     <use xlink:href="#DejaVuSans-31" x="580.671875"/>
     <use xlink:href="#DejaVuSans-30" x="644.294922"/>
     <use xlink:href="#DejaVuSans-30" x="707.917969"/>
     <use xlink:href="#DejaVuSans-2e" x="771.541016"/>
     <use xlink:href="#DejaVuSans-2e" x="803.328125"/>
     <use xlink:href="#DejaVuSans-31" x="835.115234"/>
     <use xlink:href="#DejaVuSans-65" x="898.738281"/>
     <use xlink:href="#DejaVuSans-2d" x="960.261719"/>
     <use xlink:href="#DejaVuSans-30" x="996.345703"/>
     <use xlink:href="#DejaVuSans-38" x="1059.96875"/>
    </g>
    <!-- 15 instances -->
    <g transform="translate(60.632064 51.848032)scale(0.102 -0.102)">
     <use xlink:href="#DejaVuSans-31"/>
     <use xlink:href="#DejaVuSans-35" x="63.623047"/>
     <use xlink:href="#DejaVuSans-20" x="127.246094"/>
     <use xlink:href="#DejaVuSans-69" x="159.033203"/>
     <use xlink:href="#DejaVuSans-6e" x="186.816406"/>
     <use xlink:href="#DejaVuSans-73" x="250.195312"/>
     <use xlink:href="#DejaVuSans-74" x="302.294922"/>
     <use xlink:href="#DejaVuSans-61" x="341.503906"/>
     <use xlink:href="#DejaVuSans-6e" x="402.783203"/>
     <use xlink:href="#DejaVuSans-63" x="466.162109"/>
     <use xlink:href="#DejaVuSans-65" x="521.142578"/>
     <use xlink:href="#DejaVuSans-73" x="582.666016"/>
    </g>
   </g>
   <g id="text_18">
    <!-- v2.6 -->
    <g style="fill: #808080" transform="translate(198.292262 293.943992)scale(0.1 -0.1)">
     <use xlink:href="#DejaVuSans-76"/>
     <use xlink:href="#DejaVuSans-32" x="59.179688"/>
     <use xlink:href="#DejaVuSans-2e" x="122.802734"/>
     <use xlink:href="#DejaVuSans-36" x="154.589844"/>
    </g>
   </g>
  </g>
 </g>
 <defs>
  <clipPath id="p5a96f2da50">
   <rect x="57.6" y="6.912" width="303.2064" height="292.032"/>
  </clipPath>
 </defs>
</svg>
